<?xml version="1.0" encoding="UTF-8"?>
<svg xmlns="http://www.w3.org/2000/svg" width="72" height="27" viewBox="0 0 72 27" fill="none">
  <g clip-path="url(#clip0_3551_3951)">
    <path d="M30.9219 7.7556H33.5938V18.5749H36.2658V5.05078H33.5938C32.1243 5.05078 30.9219 6.26795 30.9219 7.7556Z" fill="black"></path>
    <path d="M38.9375 18.5754H41.6095V13.1658C41.6095 11.6781 40.4071 10.4609 38.9375 10.4609V18.5754Z" fill="black"></path>
    <path d="M44.2812 10.4609V18.5754H46.9532V13.1658H49.6252V15.8706C49.6252 17.3582 50.8275 18.5754 52.2971 18.5754V13.1658C52.2971 11.6781 51.0947 10.4609 49.6252 10.4609H44.2812Z" fill="black"></path>
    <path d="M68.3285 10.4604H65.6566V7.7556C65.6566 6.26795 64.4542 5.05078 62.9846 5.05078V15.87H57.6407V13.1652H60.3127V10.4604H57.6407C56.1711 10.4604 54.9688 11.6776 54.9688 13.1652V15.87C54.9688 17.3577 56.1711 18.5749 57.6407 18.5749H65.6566V13.1652H68.3285V15.87C68.3285 17.3577 69.5309 18.5749 71.0005 18.5749V13.1652C71.0005 11.6776 69.7981 10.4604 68.3285 10.4604Z" fill="black"></path>
    <path d="M38.9375 7.7556H41.6095C41.6095 6.26795 40.4071 5.05078 38.9375 5.05078V7.7556Z" fill="black"></path>
    <path fill-rule="evenodd" clip-rule="evenodd" d="M35.0876 21.2812V23.0513H34.8428L33.8811 21.8249V23.0513H33.5938V21.2812H33.8386L34.8003 22.5128V21.2812H35.0876ZM40.5227 23.0513H39.4861V21.2812H40.4978V21.5721H39.7934V22.012H40.4229V22.3029H39.7934V22.7606H40.5227V23.0513ZM44.9213 21.5721H45.4884V23.0513H45.7956V21.5721H46.3626V21.2812H44.9213V21.5721ZM52.902 21.2812H53.1967L52.6971 23.0513H52.4099L51.9877 21.7718L51.573 23.0513H51.2832L50.7611 21.2812H51.1059L51.4581 22.5431L51.8478 21.2812H52.1525L52.5522 22.5456L52.902 21.2812ZM57.85 21.5442C57.6802 21.7196 57.5953 21.9362 57.5953 22.1941C57.5953 22.4656 57.681 22.6855 57.8526 22.8541C58.024 23.0227 58.2414 23.107 58.5045 23.107C58.766 23.107 58.9833 23.0211 59.1565 22.8491C59.3297 22.6771 59.4163 22.4588 59.4163 22.1941C59.4163 21.9244 59.3297 21.7044 59.1565 21.5341C58.985 21.3656 58.7676 21.2812 58.5045 21.2812C58.2414 21.2812 58.0232 21.3689 57.85 21.5442ZM58.0874 22.6392C57.9758 22.5212 57.92 22.3728 57.92 22.1941C57.92 22.012 57.9749 21.8629 58.0848 21.7465C58.1964 21.6302 58.3363 21.5721 58.5045 21.5721C58.6694 21.5721 58.8085 21.6302 58.9217 21.7465C59.0349 21.8645 59.0915 22.0137 59.0915 22.1941C59.0915 22.3728 59.0382 22.5212 58.9317 22.6392C58.8268 22.7572 58.6844 22.8162 58.5045 22.8162C58.338 22.8162 58.1989 22.7572 58.0874 22.6392ZM64.122 22.3939V23.0564H63.8148V21.2863C63.9014 21.2863 63.9955 21.2854 64.097 21.2838C64.1987 21.2821 64.2819 21.2812 64.3469 21.2812C64.7698 21.2812 64.9814 21.4634 64.9814 21.8275C64.9814 21.9623 64.9473 22.0736 64.8789 22.1613C64.8107 22.2455 64.7324 22.3029 64.6441 22.3332L65.1912 23.0564H64.819L64.3369 22.3939H64.122ZM64.3319 21.5721C64.3236 21.5721 64.3103 21.5729 64.2919 21.5746C64.2736 21.5746 64.2478 21.5754 64.2145 21.5771H64.122V22.1031H64.3219C64.4202 22.1031 64.5001 22.0786 64.5617 22.0297C64.625 21.9809 64.6566 21.9142 64.6566 21.83C64.6566 21.658 64.5484 21.5721 64.3319 21.5721ZM69.5897 23.0513H69.8969V22.1385L70.6117 23.0513H71.0011L70.2369 22.1056L70.9564 21.2812H70.5863L69.8969 22.1208V21.2812H69.5897V23.0513Z" fill="black" fill-opacity="0.5"></path>
    <path d="M16.2326 5.73267C15.071 5.4886 13.7998 5.55517 13.7998 5.55517C13.7998 5.55517 13.3833 7.50772 10.7969 8.01805C10.8189 8.01805 14.2162 9.19397 16.2326 5.73267Z" fill="black" fill-opacity="0.3"></path>
    <path d="M17.2831 23.4392C18.6859 22.3299 19.738 20.7989 20.2202 19.0682C20.2421 19.0017 20.4394 18.8907 20.5709 18.802C20.7901 18.6688 21.0093 18.5579 21.0531 18.3804C21.1408 17.87 21.1846 17.3375 21.1846 16.805C21.1846 16.6053 20.9873 16.4056 20.7901 16.206C20.6367 16.0728 20.4832 15.9175 20.4832 15.8066C20.264 13.7874 19.3435 11.9015 17.875 10.5258L17.7216 10.6812C19.1462 12.0347 20.0668 13.8762 20.264 15.8288C20.286 16.0063 20.4613 16.1838 20.6367 16.3613C20.7901 16.4944 20.9654 16.6941 20.9654 16.7828C20.9654 17.2932 20.9216 17.8035 20.8339 18.3138C20.812 18.4025 20.6147 18.4913 20.4613 18.58C20.2421 18.691 20.0449 18.802 20.0011 18.9795C19.475 20.8654 18.2695 22.5074 16.6695 23.5724C16.9544 22.9511 17.853 20.932 18.3352 19.9113L18.2476 16.6275L15.4639 13.8984L13.8858 14.1203L12.1543 16.9603C12.1543 16.9603 12.9653 18.0032 11.8255 19.2235C10.7077 20.4217 9.83093 20.6879 9.83093 20.6879L9.01993 20.2442C9.26101 19.9335 9.74323 19.4676 10.1158 19.157C10.7515 18.6245 11.3871 18.58 11.3871 18.0032C11.4091 16.805 10.1377 17.1378 10.1377 17.1378L9.6775 17.5816L9.48024 19.2235L8.5158 20.4439L8.40625 20.4217L6.82812 20.0667C6.82812 20.0667 7.7925 19.5563 7.94594 18.9795C8.09937 18.4248 7.63906 16.5831 7.61715 16.4722C7.63906 16.4944 8.07746 16.8716 8.27472 17.4928C8.62541 16.5166 9.08566 15.5847 9.21719 15.4959C9.34871 15.4072 11.1241 14.4531 11.1241 14.4531L10.5323 16.0284L10.9707 15.7844L12.0227 13.1662C12.0227 13.1662 13.0529 12.6559 13.82 12.6559C15.2009 12.6337 17.2393 10.9252 16.3188 7.86328C16.5818 7.97425 21.1408 10.2818 21.9299 14.8081C22.5217 18.2916 20.5709 21.5532 17.2831 23.4392Z" fill="black" fill-opacity="0.3"></path>
    <path fill-rule="evenodd" clip-rule="evenodd" d="M20.1583 4.11309C20.1583 4.11309 21.2542 4.15746 22.3939 4.29059C19.8295 2.2493 17.3965 1.65022 15.4239 1.65022C12.7254 1.65022 10.8912 2.76572 10.7579 2.84679L10.7553 2.84837L11.6101 1.47272C11.6101 1.47272 8.19079 1.1399 6.98527 4.80091C6.67846 4.02434 6.3935 2.89275 6.3935 2.89275C6.3935 2.89275 4.61812 4.4681 5.45101 7.08626C3.41261 6.33188 0.497465 5.28905 0.387875 5.26686C0.234444 5.24467 0.190607 5.31123 0.190607 5.31123C0.190607 5.31123 0.146771 5.3778 0.278284 5.48874C0.519381 5.68843 5.12224 9.12759 6.13049 9.79318C5.9113 10.592 5.9113 10.9692 6.13049 11.3463C6.43732 11.8567 6.45923 12.1229 6.41541 12.5002C6.37159 12.8773 5.97706 16.1389 5.88938 16.5383C5.854 16.6995 5.68292 17.027 5.49433 17.388H5.49432C5.21568 17.9214 4.89883 18.5279 4.92498 18.7793C4.96881 19.2009 5.53869 20.9981 6.04281 21.1978C6.41541 21.3309 7.33603 21.6194 7.94971 21.6194C8.16888 21.6194 8.36614 21.575 8.45384 21.4862C8.82645 21.1534 8.93606 21.0869 9.19905 21.0869H9.26485C9.31501 21.0869 9.36972 21.0915 9.42911 21.0965H9.42917C9.49951 21.1026 9.5762 21.1091 9.65936 21.1091C10.0101 21.1091 10.4703 21.0425 10.7991 20.7319C11.0264 20.5018 11.3316 20.2322 11.6184 19.979C11.9399 19.6951 12.2382 19.4317 12.3772 19.2675C12.706 18.8459 12.8813 18.269 12.7937 17.6921C12.7279 17.1596 13.0129 16.6936 13.3417 16.2277C13.7581 15.673 14.5252 14.6746 14.5252 14.6746C16.0376 15.8283 16.98 17.5812 16.98 19.5337C16.98 22.995 13.9992 25.7907 10.3169 25.7907C9.747 25.7907 9.19905 25.7241 8.6511 25.591C10.3388 26.1901 11.7635 26.3898 12.9252 26.3898C15.4019 26.3898 16.7171 25.4801 16.7171 25.4801C16.7171 25.4801 16.2568 26.0792 15.5115 26.767H15.5335C19.6322 26.1901 21.6268 22.7731 21.6268 22.7731C21.6268 22.7731 21.4733 23.8826 21.2761 24.6369C26.5949 20.5934 25.8559 15.5594 25.7946 15.1415L25.7928 15.1296C25.7922 15.1247 25.7916 15.121 25.7913 15.1183C25.8184 15.1595 26.0385 15.43 26.2699 15.7144L26.27 15.7145L26.27 15.7146L26.2701 15.7146L26.2709 15.7156C26.4132 15.8905 26.5596 16.0705 26.668 16.2055C27.5448 7.06409 20.1583 4.11309 20.1583 4.11309ZM11.7635 18.7128C11.696 18.7982 11.4595 19.0153 11.2341 19.222C11.1669 19.2837 11.1006 19.3445 11.0402 19.4006C10.9488 19.4854 10.8548 19.5702 10.7618 19.6541L10.7617 19.6541H10.7617C10.5871 19.8116 10.4161 19.9659 10.273 20.1106C10.1854 20.1994 10.0101 20.2437 9.747 20.2437H9.50593H9.3744H9.28676H9.08944C9.41822 19.8 10.3827 18.7793 10.7114 18.5575C11.106 18.2912 11.3032 18.025 11.0621 17.559C10.821 17.093 10.1854 17.204 10.1854 17.204C10.1854 17.204 10.558 17.0486 10.8868 17.0486C10.4703 16.9377 9.94426 17.0486 9.70318 17.2928C9.52783 17.4554 9.48889 17.8942 9.44988 18.3331C9.43044 18.5525 9.41094 18.772 9.3744 18.9568C9.27627 19.4734 8.96719 19.7587 8.49439 20.1952L8.49399 20.1956L8.49372 20.1958L8.49232 20.1971L8.49199 20.1974C8.43754 20.2476 8.38097 20.2998 8.32232 20.3547C8.01544 20.6431 7.79628 20.7319 7.62093 20.7319C7.24832 20.6653 6.80992 20.5544 6.50312 20.4434C6.28388 20.155 5.95514 19.2009 5.86747 18.8015C5.91479 18.6419 6.06427 18.3557 6.19338 18.1087L6.19342 18.1086L6.19353 18.1084C6.24374 18.0122 6.2909 17.922 6.32777 17.8474L6.36431 17.7766C6.60505 17.3099 6.74626 17.0361 6.78801 16.7824C6.87572 16.4052 7.16068 14.0754 7.27023 13.0992C7.5552 13.4764 7.94971 14.0977 7.86207 14.4971C8.49766 13.5874 8.03742 12.6998 7.81819 12.3448C7.62093 11.9898 7.35794 11.2798 7.57711 10.5254C7.79628 9.771 8.58537 7.68531 8.58537 7.68531C8.58537 7.68531 8.84836 8.15129 9.22096 8.06257C9.59357 7.97378 12.5964 3.40307 12.5964 3.40307C12.5964 3.40307 13.4074 5.2003 12.5526 6.50939C11.6758 7.81846 10.821 8.06257 10.821 8.06257C10.821 8.06257 12.0265 8.28443 13.1444 7.46345C13.6046 8.55065 14.043 9.68228 14.0649 9.8376C14.0539 9.86377 14.0197 9.94627 13.97 10.066L13.9698 10.0666L13.9696 10.0668L13.9696 10.067L13.9695 10.0672C13.7248 10.6573 13.1076 12.1455 13.0348 12.256C12.991 12.3004 12.6841 12.3892 12.4649 12.4336C12.0923 12.5445 11.8731 12.6111 11.7854 12.6777C11.632 12.8107 10.9306 14.7633 10.6018 15.7174C10.2073 15.8283 9.8128 16.0502 9.52783 16.494C9.68127 16.383 10.1635 16.3165 10.5142 16.2721C10.821 16.2499 11.7635 16.7602 12.0046 17.7143V17.7587C12.0484 18.1137 11.9389 18.4465 11.7635 18.7128ZM9.70318 18.979C9.85842 18.752 9.87793 18.4014 9.88988 18.1866C9.89309 18.1284 9.89576 18.0802 9.90044 18.0471C9.92235 17.8918 9.96624 17.6033 10.1416 17.559C10.3169 17.5146 10.7334 17.5812 10.7334 17.8918C10.7334 18.0904 10.5879 18.1839 10.4257 18.288C10.3523 18.3351 10.2756 18.3844 10.2073 18.4465C10.1073 18.5477 9.94226 18.7242 9.82723 18.8473L9.82716 18.8473C9.76564 18.9131 9.71848 18.9635 9.70318 18.979ZM18.4486 14.7411C18.6678 13.6095 18.6897 12.6332 18.624 11.8345C19.4788 12.9882 20.0048 14.3861 20.1583 15.8283C20.1802 16.0058 20.3555 16.1833 20.5309 16.3608C20.6843 16.494 20.8597 16.6715 20.8597 16.7824C20.8597 17.2928 20.8158 17.803 20.7281 18.3133C20.7074 18.3764 20.529 18.4794 20.3798 18.5656L20.3555 18.5796C20.1363 18.6905 19.939 18.8015 19.8952 18.979C19.413 20.6875 18.3828 22.1962 17.002 23.2613C19.0404 21.109 20.0267 17.559 18.4486 14.7411ZM17.0678 23.461C18.4924 22.3516 19.5883 20.7984 20.0706 19.0455C20.0875 18.9941 20.2093 18.9161 20.3245 18.8423L20.3245 18.8423L20.3251 18.8419L20.3253 18.8419L20.3257 18.8415C20.3591 18.8202 20.3918 18.7992 20.4213 18.7793C20.6404 18.6684 20.8597 18.5353 20.9035 18.3578C20.9911 17.8474 21.035 17.3149 21.035 16.7824C21.035 16.5827 20.8377 16.383 20.6404 16.1833C20.6128 16.1497 20.5809 16.1147 20.5488 16.0794V16.0793C20.4535 15.9746 20.3555 15.8669 20.3555 15.7839C20.1802 14.1642 19.5445 12.6332 18.5582 11.3685C18.1269 8.74898 16.4227 7.91205 16.326 7.86458C16.3244 7.86376 16.3232 7.86322 16.3225 7.86282L16.3252 7.86694C16.4001 7.97933 17.4943 9.62277 16.7171 11.546C15.9922 13.311 14.2519 13.2503 13.7652 13.2334C13.7072 13.2314 13.6671 13.23 13.6485 13.2324C13.4732 13.2324 12.7937 14.1199 11.9389 15.7618C11.8293 15.7174 11.3689 15.6064 10.8429 15.6952C11.2375 14.5858 11.8293 13.0104 11.9389 12.8773C11.9738 12.842 12.1896 12.7784 12.3868 12.7204C12.4371 12.7056 12.4861 12.6912 12.5306 12.6777C12.9471 12.5667 13.1444 12.5002 13.2101 12.4114C13.2539 12.3448 13.4731 11.8345 13.6923 11.302C13.8896 11.302 14.3937 11.2576 14.4376 11.2354C14.4814 11.191 14.8979 10.1038 14.8979 9.97068C14.8979 9.85978 14.043 7.70756 13.7143 6.88658C13.8677 6.70908 14.0211 6.48719 14.1745 6.24313C18.6678 6.73126 22.1747 10.592 22.1747 15.2736C22.1747 18.868 20.0925 21.9966 17.0678 23.461ZM12.3772 4.73432C12.3772 4.73432 12.5745 5.62184 12.0704 6.22092C11.4347 6.95312 10.8868 6.93094 10.9087 6.93094L12.3772 4.73432ZM7.31405 17.3371L7.13871 18.2246C7.13871 18.2246 7.4894 18.1803 7.4894 18.5796C7.4894 18.8903 7.13871 19.3118 6.85381 19.334C6.56885 19.3563 6.4593 19.0013 6.52503 18.8015C6.59076 18.624 7.31405 17.3371 7.31405 17.3371ZM10.6676 9.92632C11.4347 10.0816 11.6539 10.9913 11.2375 11.4795C10.821 11.9454 9.76891 12.6111 9.15523 12.7664C9.0237 13.2767 7.90589 13.0548 8.32232 11.4351C8.32232 11.4351 8.51957 12.2117 8.71683 12.1451C8.91416 12.0785 11.1498 8.52847 11.1498 8.52847C11.1498 8.52847 10.8649 9.46035 10.6676 9.92632ZM10.4703 10.3701L9.33058 12.3448C9.33058 12.3448 10.3827 11.8567 10.7991 11.2355C11.1279 10.7029 10.4703 10.3701 10.4703 10.3701ZM10.3169 2.24931C8.34423 3.44746 8.73881 6.3097 8.73881 6.3097C6.93931 3.53493 9.87392 2.41825 10.2773 2.26475V2.26474L10.2774 2.26473V2.26472C10.2965 2.25744 10.31 2.25233 10.3169 2.24931ZM19.8733 3.42531C16.6074 2.80405 14.5033 3.11467 12.991 3.69156C12.9471 3.51406 12.7937 3.15905 12.6622 2.87061C12.2189 3.40479 11.7553 4.04186 11.4476 4.46476L11.4128 4.51252C10.5799 5.0894 10.2292 5.6441 10.2292 5.6441C10.7114 3.98001 12.1142 2.73748 13.8239 2.42685C14.306 2.33809 14.8321 2.29372 15.402 2.29372C16.9143 2.31591 18.4267 2.69311 19.8733 3.42531ZM20.5747 7.37473C23.6652 9.43817 25.068 11.7235 26.0543 14.4083C26.0105 11.5682 25.068 9.12752 23.2487 7.17498L23.2049 7.13062C21.6049 5.42217 19.2596 4.6234 16.9362 4.95622C16.0595 5.06716 15.1828 5.24466 14.5033 5.46654C14.3937 5.48873 14.2841 5.51092 14.1746 5.55529H14.2184C14.3937 5.5331 17.5938 5.37779 20.5747 7.37473ZM22.2843 22.8397C22.7227 22.3959 23.0953 21.93 23.4241 21.4862C25.3091 18.8237 25.0461 15.1627 22.8761 12.722C22.7008 12.5223 22.5035 12.3004 22.3063 12.1007C22.4159 12.3004 25.1118 17.3371 22.2843 22.8397ZM6.12507 4.42278C6.04188 4.7442 5.30297 7.5991 7.79628 7.68538C6.30586 6.77568 6.1305 4.42376 6.1305 4.40158C6.12928 4.4065 6.12745 4.41361 6.12507 4.42278ZM7.18259 9.08316C7.33596 8.79476 7.2045 8.59508 7.07298 8.48411L7.02916 8.43975C6.7661 8.30661 5.12224 7.68531 3.50028 7.10844C4.92497 8.06257 6.50312 8.99444 6.7661 9.12759C6.96336 9.21631 7.09489 9.23849 7.18259 9.08316Z" fill="black"></path>
  </g>
  <defs>
    <clipPath id="clip0_3551_3951">
      <rect width="71.5193" height="25.9128" fill="white" transform="translate(0.0195312 0.949219)"></rect>
    </clipPath>
  </defs>
</svg>
