<?xml version="1.0" encoding="UTF-8"?>
<svg xmlns="http://www.w3.org/2000/svg" width="84" height="26" viewBox="0 0 84 26" fill="none">
  <g clip-path="url(#clip0_4372_5632)">
    <path d="M44.5517 0.605002C44.1266 0.652567 43.761 0.873095 43.5285 1.22443C43.3652 1.4709 43.2894 1.71629 43.2635 2.07951C43.23 2.54327 43.3435 2.98 43.5923 3.34755C43.7816 3.62754 43.9589 3.81563 44.6349 4.45452C44.8815 4.68694 45.1119 4.91395 45.1487 4.96043C45.2817 5.12583 45.3758 5.31393 45.4094 5.4804C45.431 5.58743 45.4321 5.78958 45.4104 5.89768C45.365 6.12253 45.1909 6.32684 44.9832 6.39927C44.927 6.41873 44.8891 6.42305 44.7939 6.42414C44.6782 6.42414 44.6728 6.42305 44.5895 6.38306C44.5214 6.35063 44.4857 6.32468 44.4219 6.25874C44.3764 6.21226 44.3234 6.14739 44.304 6.11388C44.2164 5.96578 44.1536 5.77769 44.1158 5.55067L44.092 5.41338L44.0271 5.41879C43.9546 5.42527 43.1921 5.47824 43.1694 5.47824C43.151 5.47824 43.151 5.52689 43.1715 5.69445C43.2245 6.11929 43.363 6.48143 43.5847 6.77547C43.6896 6.91492 43.8854 7.08248 44.0433 7.16896C44.3873 7.35706 44.9464 7.40246 45.3812 7.27706C45.643 7.20139 45.8799 7.05329 46.0248 6.87492C46.2119 6.64466 46.3331 6.38954 46.3958 6.0901C46.4336 5.90849 46.4445 5.59716 46.4163 5.435C46.3547 5.06421 46.1568 4.65018 45.8723 4.29236C45.6733 4.04265 45.5186 3.8913 45.1163 3.55078C44.8848 3.35512 44.7701 3.24485 44.6717 3.12702C44.4608 2.87515 44.3256 2.60057 44.2899 2.35517C44.2737 2.23626 44.2834 2.03844 44.3115 1.92925C44.3559 1.76061 44.4586 1.60711 44.5722 1.54008C44.7085 1.46117 44.9151 1.46009 45.0687 1.53684C45.1271 1.56711 45.2049 1.63954 45.2547 1.71305C45.3304 1.82223 45.405 2.03303 45.4223 2.18113C45.4256 2.21572 45.4332 2.24923 45.4375 2.2568C45.444 2.26761 45.5511 2.2514 45.9188 2.18545L46.3915 2.10005L46.3839 2.0406C46.3568 1.81142 46.2855 1.57035 46.186 1.37577C45.9545 0.922822 45.5521 0.660134 45.0049 0.60284C44.8815 0.589868 44.676 0.590949 44.5517 0.605002Z" fill="#2C2C2C"></path>
    <path fill-rule="evenodd" clip-rule="evenodd" d="M49.4881 0.603929C49.2523 0.635279 49.0273 0.719598 48.8369 0.84824C48.4584 1.10336 48.2096 1.48928 48.1469 1.92061C48.1317 2.02115 48.1307 2.27843 48.1328 4.02428L48.1328 4.03174V4.03323C48.1371 6.0015 48.1372 6.01458 48.1599 6.11065C48.2723 6.59494 48.5871 6.99276 49.023 7.20248C49.2415 7.30734 49.4102 7.34193 49.699 7.34193C49.9283 7.34193 50.0343 7.32571 50.2138 7.26626C50.7168 7.0987 51.1343 6.62954 51.2392 6.11497C51.277 5.92904 51.2792 5.80472 51.2749 3.87834C51.2747 3.78029 51.2745 3.68719 51.2743 3.59875V3.59866C51.2712 2.08912 51.2709 1.93951 51.2347 1.79916C51.2307 1.78372 51.2263 1.76839 51.2214 1.75137C51.2188 1.7424 51.2161 1.73296 51.2132 1.72278C51.0996 1.3174 50.7871 0.945531 50.3955 0.750948C50.1868 0.646089 50.004 0.603929 49.7422 0.597443C49.6438 0.595281 49.5302 0.597443 49.4881 0.603929ZM49.8061 1.60279C49.9564 1.63847 50.1089 1.75846 50.1738 1.89142C50.1769 1.89768 50.1799 1.90345 50.1827 1.90894L50.1827 1.90902C50.1871 1.91748 50.1911 1.92531 50.1948 1.93327C50.2399 2.03024 50.2399 2.1482 50.2398 3.69777V3.69877C50.2398 3.7815 50.2398 3.86831 50.2398 3.95942C50.2398 4.02651 50.2398 4.09127 50.2398 4.15377C50.2398 5.76571 50.2398 5.88109 50.1969 5.97735C50.1936 5.98477 50.19 5.99208 50.1862 5.99995L50.1847 6.00309L50.1831 6.00631C50.1818 6.00893 50.1805 6.01164 50.1792 6.01444C50.1403 6.09659 50.0202 6.22199 49.9391 6.26523C49.7747 6.3528 49.5692 6.3528 49.4026 6.26415C49.2685 6.19389 49.1484 6.04038 49.116 5.89985C49.1084 5.86742 49.1041 5.21664 49.1041 3.95293C49.1041 2.08817 49.1041 2.0525 49.1257 1.98439C49.2123 1.70333 49.514 1.53469 49.8061 1.60279Z" fill="#2C2C2C"></path>
    <path d="M53.3494 1.22443C53.5819 0.873095 53.9475 0.652567 54.3726 0.605002C54.4969 0.590949 54.7024 0.589868 54.8257 0.60284C55.373 0.660134 55.7754 0.922822 56.0068 1.37577C56.1064 1.57035 56.1777 1.81142 56.2048 2.0406L56.2123 2.10005L55.7397 2.18545C55.3719 2.2514 55.2649 2.26761 55.2584 2.2568C55.2541 2.24923 55.2465 2.21572 55.2432 2.18113C55.2259 2.03303 55.1513 1.82223 55.0756 1.71305C55.0258 1.63954 54.948 1.56711 54.8896 1.53684C54.736 1.46009 54.5294 1.46117 54.3931 1.54008C54.2795 1.60711 54.1768 1.76061 54.1324 1.92925C54.1043 2.03844 54.0946 2.23626 54.1108 2.35517C54.1465 2.60057 54.2817 2.87515 54.4926 3.12702C54.591 3.24485 54.7057 3.35512 54.9371 3.55078C55.3395 3.8913 55.4942 4.04265 55.6932 4.29236C55.9776 4.65018 56.1756 5.06421 56.2372 5.435C56.2653 5.59716 56.2545 5.90849 56.2167 6.0901C56.1539 6.38954 56.0328 6.64466 55.8457 6.87492C55.7008 7.05329 55.4639 7.20139 55.2021 7.27706C54.7673 7.40246 54.2082 7.35706 53.8642 7.16896C53.7063 7.08248 53.5105 6.91492 53.4056 6.77547C53.1839 6.48143 53.0454 6.11929 52.9924 5.69445C52.9719 5.52689 52.9719 5.47824 52.9903 5.47824C53.013 5.47824 53.7755 5.42527 53.848 5.41879L53.9129 5.41338L53.9367 5.55067C53.9745 5.77769 54.0373 5.96578 54.1249 6.11388C54.1443 6.14739 54.1973 6.21226 54.2428 6.25874C54.3066 6.32468 54.3423 6.35063 54.4104 6.38306C54.4937 6.42305 54.4991 6.42414 54.6148 6.42414C54.71 6.42305 54.7479 6.41873 54.8041 6.39927C55.0118 6.32684 55.1859 6.12253 55.2313 5.89768C55.253 5.78958 55.2519 5.58743 55.2303 5.4804C55.1967 5.31393 55.1026 5.12583 54.9696 4.96043C54.9328 4.91395 54.7024 4.68694 54.4558 4.45452C53.7798 3.81563 53.6025 3.62754 53.4132 3.34755C53.1644 2.98 53.0508 2.54327 53.0844 2.07951C53.1103 1.71629 53.186 1.4709 53.3494 1.22443Z" fill="#2C2C2C"></path>
    <path d="M67.0921 0.605002C66.6671 0.652567 66.3015 0.873095 66.0689 1.22443C65.9056 1.4709 65.8299 1.71629 65.8039 2.07951C65.7704 2.54327 65.884 2.98 66.1327 3.34755C66.322 3.62754 66.4994 3.81563 67.1754 4.45452C67.422 4.68694 67.6524 4.91395 67.6892 4.96043C67.8222 5.12583 67.9163 5.31393 67.9498 5.4804C67.9715 5.58743 67.9725 5.78958 67.9509 5.89768C67.9055 6.12253 67.7313 6.32684 67.5237 6.39927C67.4674 6.41873 67.4296 6.42305 67.3344 6.42414C67.2187 6.42414 67.2133 6.42305 67.13 6.38306C67.0618 6.35063 67.0261 6.32468 66.9623 6.25874C66.9169 6.21226 66.8639 6.14739 66.8444 6.11388C66.7568 5.96578 66.6941 5.77769 66.6562 5.55067L66.6324 5.41338L66.5675 5.41879C66.4951 5.42527 65.7326 5.47824 65.7098 5.47824C65.6915 5.47824 65.6915 5.52689 65.712 5.69445C65.765 6.11929 65.9034 6.48143 66.1252 6.77547C66.2301 6.91492 66.4259 7.08248 66.5838 7.16896C66.9277 7.35706 67.4869 7.40246 67.9217 7.27706C68.1835 7.20139 68.4203 7.05329 68.5653 6.87492C68.7524 6.64466 68.8735 6.38954 68.9362 6.0901C68.9741 5.90849 68.9849 5.59716 68.9568 5.435C68.8951 5.06421 68.6972 4.65018 68.4127 4.29236C68.2137 4.04265 68.0591 3.8913 67.6567 3.55078C67.4253 3.35512 67.3106 3.24485 67.2122 3.12702C67.0013 2.87515 66.8661 2.60057 66.8304 2.35517C66.8142 2.23626 66.8239 2.03844 66.852 1.92925C66.8963 1.76061 66.9991 1.60711 67.1127 1.54008C67.249 1.46117 67.4555 1.46009 67.6091 1.53684C67.6675 1.56711 67.7454 1.63954 67.7952 1.71305C67.8709 1.82223 67.9455 2.03303 67.9628 2.18113C67.966 2.21572 67.9736 2.24923 67.9779 2.2568C67.9844 2.26761 68.0915 2.2514 68.4593 2.18545L68.9319 2.10005L68.9243 2.0406C68.8973 1.81142 68.8259 1.57035 68.7264 1.37577C68.4949 0.922822 68.0926 0.660134 67.5453 0.60284C67.422 0.589868 67.2165 0.590949 67.0921 0.605002Z" fill="#2C2C2C"></path>
    <path fill-rule="evenodd" clip-rule="evenodd" d="M38.1367 7.2522C38.1367 7.24031 39.2378 0.737971 39.2454 0.702297L39.2508 0.678515H40.6201L41.1684 3.96157C41.2051 4.18096 41.2409 4.39555 41.2756 4.60328L41.2758 4.6041C41.5268 6.10634 41.7178 7.24948 41.7168 7.25328C41.7168 7.25869 41.4843 7.26193 41.1987 7.26193H40.6817L40.6752 7.23166C40.6741 7.22293 40.6582 7.12016 40.6341 6.9647L40.6338 6.96295C40.6132 6.82996 40.5867 6.65873 40.5584 6.47495L40.4459 5.7485L39.9268 5.75066L39.4087 5.75391L39.1686 7.25652L38.6526 7.25977C38.3411 7.26085 38.1367 7.25869 38.1367 7.2522ZM40.2945 4.75072C40.2913 4.73775 40.2112 4.17453 40.116 3.49998C40.0209 2.82542 39.9387 2.2568 39.9343 2.23627C39.9289 2.21032 39.877 2.553 39.7451 3.47944C39.6455 4.18318 39.5644 4.76261 39.5644 4.76693C39.5644 4.77234 39.7299 4.77558 39.9322 4.77558H40.2999L40.2945 4.75072Z" fill="#2C2C2C"></path>
    <path d="M57.9732 7.26193H58.9574V0.678515H57.9732V7.26193Z" fill="#2C2C2C"></path>
    <path fill-rule="evenodd" clip-rule="evenodd" d="M60.688 7.2522C60.688 7.24031 61.7891 0.737971 61.7966 0.702297L61.802 0.678515H63.1713L63.8276 4.60741C64.0783 6.10801 64.269 7.24949 64.2681 7.25328C64.2681 7.25869 64.0355 7.26193 63.75 7.26193H63.233L63.2265 7.23166C63.2253 7.2229 63.2093 7.11942 63.1851 6.96304C63.1645 6.83004 63.138 6.65877 63.1097 6.47495L62.9972 5.7485L62.478 5.75066L61.9599 5.75391L61.7198 7.25652L61.2039 7.25977C60.8924 7.26085 60.688 7.25869 60.688 7.2522ZM62.8458 4.75072C62.8425 4.73775 62.7625 4.17453 62.6673 3.49998C62.5721 2.82542 62.4899 2.2568 62.4856 2.23627C62.4802 2.21032 62.4283 2.553 62.2963 3.47944C62.1968 4.18318 62.1157 4.76261 62.1157 4.76693C62.1157 4.77234 62.2812 4.77558 62.4834 4.77558H62.8512L62.8458 4.75072Z" fill="#2C2C2C"></path>
    <path d="M70.6928 7.26193H71.677V0.678515H70.6928V7.26193Z" fill="#2C2C2C"></path>
    <path fill-rule="evenodd" clip-rule="evenodd" d="M48.2204 9.72342C48.4108 9.59478 48.6358 9.51046 48.8716 9.47911C48.9137 9.47262 49.0273 9.47046 49.1257 9.47262C49.3875 9.47911 49.5703 9.52127 49.779 9.62613C50.1705 9.82071 50.4831 10.1926 50.5967 10.598C50.5996 10.6081 50.6023 10.6176 50.6049 10.6266C50.6098 10.6436 50.6142 10.6589 50.6182 10.6743C50.6544 10.8147 50.6547 10.9643 50.6578 12.4738V12.4739L50.6578 12.5071C50.6579 12.5512 50.658 12.5965 50.6581 12.6429L50.6583 12.7535C50.6627 14.6799 50.6605 14.8042 50.6227 14.9901C50.5177 15.5047 50.1002 15.9739 49.5973 16.1414C49.4178 16.2009 49.3118 16.2171 49.0825 16.2171C48.7937 16.2171 48.6249 16.1825 48.4065 16.0777C47.9706 15.8679 47.6558 15.4701 47.5434 14.9858C47.5207 14.8898 47.5206 14.8767 47.5163 12.908V12.9069L47.5163 12.8995C47.5141 11.1536 47.5152 10.8963 47.5304 10.7958C47.5931 10.3645 47.8419 9.97854 48.2204 9.72342ZM49.5573 10.7666C49.4924 10.6336 49.3399 10.5136 49.1895 10.478C48.8975 10.4099 48.5957 10.5785 48.5092 10.8596C48.4876 10.9277 48.4876 10.9633 48.4876 12.8281C48.4876 14.0918 48.4919 14.7426 48.4995 14.775C48.5438 14.9685 48.7223 15.1437 48.9213 15.1912C49.0565 15.2226 49.2025 15.2042 49.3226 15.1404C49.4037 15.0972 49.5238 14.9718 49.5627 14.8896C49.5642 14.8865 49.5657 14.8834 49.5671 14.8805L49.5676 14.8794L49.5712 14.8721C49.5727 14.869 49.5741 14.866 49.5756 14.863C49.5772 14.8595 49.5789 14.856 49.5804 14.8525C49.6233 14.7563 49.6233 14.6409 49.6233 13.029L49.6233 12.8346C49.6233 12.7435 49.6233 12.6567 49.6233 12.5739V12.5733C49.6234 11.0234 49.6234 10.9054 49.5783 10.8084C49.5745 10.8005 49.5705 10.7926 49.5662 10.7841L49.5655 10.7829C49.5642 10.7803 49.5629 10.7777 49.5615 10.7749C49.5601 10.7722 49.5587 10.7695 49.5573 10.7666Z" fill="#2C2C2C"></path>
    <path d="M53.7658 9.47802C53.3721 9.53315 53.026 9.72341 52.7729 10.0239C52.5793 10.2542 52.4722 10.4823 52.4246 10.7612C52.403 10.8866 52.403 10.9266 52.4062 12.894C52.4064 13.0541 52.4066 13.2017 52.4068 13.3379C52.4086 14.7911 52.4088 14.9392 52.4509 15.0743C52.4557 15.0896 52.461 15.1048 52.4669 15.1217L52.467 15.1218C52.4722 15.1367 52.4779 15.1529 52.4841 15.1718C52.5522 15.3761 52.6615 15.5566 52.8205 15.7252C53.0627 15.9825 53.3299 16.1306 53.6738 16.1987C53.8069 16.2247 54.1303 16.2247 54.2698 16.1987C54.5802 16.1414 54.8485 15.9966 55.0853 15.7588C55.3287 15.5155 55.4628 15.2593 55.5266 14.921C55.5418 14.8388 55.5439 14.7404 55.545 14.2778V13.7318H54.5175L54.5067 14.7804L54.4775 14.8496C54.3423 15.1653 53.9734 15.2982 53.676 15.1393C53.5386 15.0669 53.4143 14.9015 53.3872 14.7545C53.371 14.668 53.3721 10.9785 53.3883 10.9028C53.4208 10.7525 53.543 10.5893 53.6782 10.5169C53.8415 10.4304 54.0481 10.4304 54.2125 10.519C54.3401 10.5861 54.4602 10.7374 54.4969 10.8769C54.5088 10.919 54.5121 11.0325 54.5121 11.3612V11.7914H55.5526L55.5472 11.3179C55.5428 10.9536 55.5374 10.8261 55.5245 10.759C55.4596 10.4239 55.3244 10.1688 55.081 9.92556C54.8485 9.69314 54.6138 9.5645 54.3087 9.49964C54.1887 9.4737 53.8826 9.46181 53.7658 9.47802Z" fill="#2C2C2C"></path>
    <path d="M62.4099 10.0239C62.663 9.72341 63.0091 9.53315 63.4028 9.47802C63.5196 9.46181 63.8257 9.4737 63.9458 9.49964C64.2508 9.5645 64.4855 9.69314 64.718 9.92556C64.9614 10.1688 65.0966 10.4239 65.1615 10.759C65.1745 10.8261 65.1799 10.9536 65.1842 11.3179L65.1896 11.7914H64.1491V11.3612C64.1491 11.0325 64.1459 10.919 64.134 10.8769C64.0972 10.7374 63.9771 10.5861 63.8495 10.519C63.6851 10.4304 63.4785 10.4304 63.3152 10.5169C63.18 10.5893 63.0578 10.7525 63.0253 10.9028C63.0091 10.9785 63.008 14.668 63.0242 14.7545C63.0513 14.9015 63.1757 15.0669 63.313 15.1393C63.6105 15.2982 63.9793 15.1653 64.1145 14.8496L64.1437 14.7804L64.1545 13.7318H65.182V14.2778C65.1809 14.7404 65.1788 14.8388 65.1636 14.921C65.0998 15.2593 64.9657 15.5155 64.7224 15.7588C64.4855 15.9966 64.2172 16.1414 63.9068 16.1987C63.7673 16.2247 63.4439 16.2247 63.3109 16.1987C62.9669 16.1306 62.6998 15.9825 62.4575 15.7252C62.2985 15.5566 62.1893 15.3761 62.1211 15.1718C62.1149 15.1529 62.1092 15.1366 62.104 15.1217C62.098 15.1048 62.0927 15.0896 62.0879 15.0743C62.0458 14.9393 62.0456 14.7912 62.0438 13.3396V13.3378L62.0436 13.1502C62.0435 13.0686 62.0434 12.9833 62.0432 12.894C62.04 10.9266 62.04 10.8866 62.0616 10.7612C62.1092 10.4823 62.2163 10.2542 62.4099 10.0239Z" fill="#2C2C2C"></path>
    <path fill-rule="evenodd" clip-rule="evenodd" d="M38.1367 16.1371H39.1026C40.1712 16.1371 40.1734 16.1371 40.3821 16.0668C40.6796 15.9674 40.9543 15.775 41.1273 15.5436C41.2171 15.4258 41.3144 15.2345 41.3642 15.081C41.5697 14.4453 41.494 13.6151 41.1879 13.1535C41.0646 12.9654 40.9078 12.8205 40.7412 12.7362L40.6655 12.6984L40.7369 12.6562C41.0376 12.4811 41.2333 12.1827 41.3177 11.7741C41.3458 11.6357 41.3577 11.2801 41.3393 11.0941C41.3015 10.7061 41.1771 10.3818 40.9662 10.1191C40.7618 9.86719 40.3897 9.66288 39.9862 9.58396C39.8658 9.5603 39.8416 9.56018 39.0134 9.55592H39.013L38.9998 9.55586L38.1367 9.55261V16.1371ZM39.7743 10.5753C40.0068 10.625 40.1853 10.8001 40.2566 11.0509C40.3075 11.2271 40.3086 11.5233 40.261 11.7157C40.2101 11.92 40.0782 12.1017 39.9278 12.1752C39.8089 12.2346 39.7353 12.2454 39.4541 12.2454H39.2075V10.559H39.4541C39.6272 10.559 39.7213 10.5644 39.7743 10.5753ZM39.851 13.2238C40.2177 13.3286 40.4016 13.6886 40.3832 14.2615C40.3789 14.3859 40.3713 14.4583 40.3562 14.5167C40.2848 14.7858 40.142 14.9826 39.9527 15.0766C39.8218 15.1415 39.7407 15.1534 39.4498 15.1534H39.2075V13.1946L39.4974 13.2C39.7267 13.2032 39.7991 13.2086 39.851 13.2238Z" fill="#2C2C2C"></path>
    <path d="M43.2419 16.1371V9.55369H44.2261V15.1426H45.9458V16.1371H43.2419Z" fill="#2C2C2C"></path>
    <path d="M57.2485 16.1371H58.2436V14.0637L58.3896 13.7697C58.5205 13.5027 58.5356 13.4767 58.5464 13.5005C58.5469 13.5017 58.549 13.507 58.5525 13.5161L58.5886 13.6085C58.6687 13.8136 58.8536 14.2874 59.0645 14.8291L59.5718 16.1317L60.158 16.1349C60.6263 16.1371 60.7432 16.1349 60.7388 16.1241C60.7356 16.1166 60.3776 15.2409 59.9439 14.1783L59.1543 12.2476L59.6334 11.2974C59.7484 11.069 59.8714 10.8247 59.9827 10.6038C60.1258 10.3195 60.2495 10.0739 60.3116 9.95043L60.5106 9.55369H59.4474L58.249 11.8844L58.2436 9.55369H57.2485V16.1371Z" fill="#2C2C2C"></path>
    <path d="M66.8855 16.1371V9.55369H67.8806V12.3535H69.0704V9.55369H70.0654V16.1371H69.0704V13.3481H67.8806V16.1371H66.8855Z" fill="#2C2C2C"></path>
    <path fill-rule="evenodd" clip-rule="evenodd" d="M72.8938 9.57748C72.8862 9.61315 71.7852 16.1155 71.7852 16.1274C71.7852 16.1339 71.9896 16.136 72.3011 16.1349L72.817 16.1317L73.0571 14.6291L73.5752 14.6258L74.0944 14.6237L74.2069 15.3501C74.2352 15.534 74.2617 15.7052 74.2823 15.8382C74.3065 15.9946 74.3225 16.0981 74.3237 16.1068L74.3302 16.1371H74.8472C75.1327 16.1371 75.3652 16.1339 75.3652 16.1285C75.3662 16.1247 75.1755 14.9833 74.9248 13.4829L74.2685 9.55369H72.8992L72.8938 9.57748ZM73.7645 12.3752C73.8597 13.0497 73.9397 13.6129 73.9429 13.6259L73.9484 13.6508H73.5806C73.3784 13.6508 73.2129 13.6475 73.2129 13.6421C73.2129 13.6378 73.294 13.0584 73.3935 12.3546C73.5255 11.4282 73.5774 11.0855 73.5828 11.1114C73.5871 11.132 73.6693 11.7006 73.7645 12.3752Z" fill="#2C2C2C"></path>
    <path d="M77.0958 16.1371V9.55369H78.0801V16.1371H77.0958Z" fill="#2C2C2C"></path>
    <path d="M79.8647 16.1371H80.8489L80.85 14.0367C80.8511 12.4497 80.8543 11.9449 80.8641 11.9687C80.8706 11.986 81.1777 12.9297 81.5466 14.0659L82.2182 16.1317L82.7504 16.1349L83.2825 16.1371V9.55369H82.2875L82.2821 13.9372L81.6504 11.813C81.3032 10.6444 81.0101 9.65855 80.9982 9.62072L80.9776 9.55369H79.8647V16.1371Z" fill="#2C2C2C"></path>
    <path fill-rule="evenodd" clip-rule="evenodd" d="M51.6815 18.5986C51.8719 18.47 52.0969 18.3856 52.3327 18.3543C52.3748 18.3478 52.4884 18.3456 52.5868 18.3478C52.8486 18.3543 53.0314 18.3964 53.2401 18.5013C53.6317 18.6959 53.9442 19.0678 54.0578 19.4731C54.0587 19.4764 54.0596 19.4795 54.0605 19.4826C54.0624 19.4892 54.0642 19.4956 54.066 19.5017C54.0709 19.5187 54.0753 19.5341 54.0793 19.5495C54.1155 19.6899 54.1158 19.8395 54.1189 21.349V21.3491L54.1189 21.3563C54.1191 21.4426 54.1193 21.5333 54.1195 21.6287C54.1238 23.5551 54.1216 23.6794 54.0838 23.8653C53.9788 24.3799 53.5614 24.8491 53.0584 25.0166C52.8789 25.0761 52.7729 25.0923 52.5436 25.0923C52.2548 25.0923 52.0861 25.0577 51.8676 24.9528C51.4317 24.7431 51.1169 24.3453 51.0045 23.861C50.9818 23.7649 50.9817 23.7519 50.9774 21.7821L50.9774 21.7746C50.9753 20.0288 50.9763 19.7715 50.9915 19.671C51.0542 19.2396 51.303 18.8537 51.6815 18.5986ZM53.0184 19.6418C52.9535 19.5088 52.801 19.3888 52.6506 19.3531C52.3586 19.285 52.0569 19.4537 51.9703 19.7347C51.9487 19.8029 51.9487 19.8385 51.9487 21.7033C51.9487 22.967 51.953 23.6178 51.9606 23.6502C52.0049 23.8437 52.1834 24.0188 52.3824 24.0664C52.5176 24.0977 52.6636 24.0794 52.7837 24.0156C52.8648 23.9723 52.9849 23.8469 53.0238 23.7648C53.0262 23.7597 53.0286 23.7549 53.0308 23.7503L53.0308 23.7502C53.0347 23.7424 53.0382 23.7351 53.0415 23.7277C53.0844 23.6314 53.0844 23.5161 53.0844 21.9041L53.0844 21.7098C53.0844 21.6187 53.0844 21.5319 53.0844 21.4491V21.4488C53.0845 19.8986 53.0845 19.7806 53.0394 19.6836C53.0357 19.6756 53.0316 19.6678 53.0273 19.6593L53.025 19.6548C53.024 19.653 53.023 19.651 53.022 19.6491C53.0213 19.6476 53.0205 19.6461 53.0198 19.6445L53.0184 19.6418Z" fill="#2C2C2C"></path>
    <path d="M66.8758 18.3554C66.4507 18.4029 66.0852 18.6235 65.8526 18.9748C65.6893 19.2213 65.6136 19.4666 65.5876 19.8299C65.5541 20.2936 65.6677 20.7304 65.9164 21.0979C66.1057 21.3779 66.2831 21.566 66.9591 22.2049C67.2057 22.4373 67.4361 22.6643 67.4728 22.7108C67.6059 22.8762 67.7 23.0643 67.7335 23.2308C67.7551 23.3378 67.7562 23.5399 67.7346 23.648C67.6892 23.8729 67.515 24.0772 67.3074 24.1496C67.2511 24.1691 67.2133 24.1734 67.1181 24.1745C67.0023 24.1745 66.9969 24.1734 66.9137 24.1334C66.8455 24.101 66.8098 24.075 66.746 24.0091C66.7006 23.9626 66.6476 23.8977 66.6281 23.8642C66.5405 23.7161 66.4778 23.528 66.4399 23.301L66.4161 23.1637L66.3512 23.1691C66.2788 23.1756 65.5162 23.2286 65.4935 23.2286C65.4751 23.2286 65.4751 23.2772 65.4957 23.4448C65.5487 23.8696 65.6871 24.2318 65.9089 24.5258C66.0138 24.6653 66.2095 24.8328 66.3675 24.9193C66.7114 25.1074 67.2706 25.1528 67.7054 25.0274C67.9671 24.9517 68.204 24.8036 68.3489 24.6253C68.5361 24.395 68.6572 24.1399 68.7199 23.8405C68.7578 23.6588 68.7686 23.3475 68.7405 23.1854C68.6788 22.8146 68.4809 22.4005 68.1964 22.0427C67.9974 21.793 67.8427 21.6417 67.4404 21.3011C67.2089 21.1055 67.0943 20.9952 66.9959 20.8774C66.7849 20.6255 66.6497 20.3509 66.6141 20.1055C66.5978 19.9866 66.6076 19.7888 66.6357 19.6796C66.68 19.511 66.7828 19.3575 66.8963 19.2904C67.0326 19.2115 67.2392 19.2104 67.3928 19.2872C67.4512 19.3175 67.5291 19.3899 67.5788 19.4634C67.6545 19.5726 67.7292 19.7834 67.7465 19.9315C67.7497 19.9661 67.7573 19.9996 67.7616 20.0072C67.7681 20.018 67.8752 20.0018 68.2429 19.9358L68.7156 19.8504L68.708 19.791C68.681 19.5618 68.6096 19.3207 68.5101 19.1261C68.2786 18.6732 67.8763 18.4105 67.329 18.3532C67.2057 18.3402 67.0002 18.3413 66.8758 18.3554Z" fill="#2C2C2C"></path>
    <path d="M38.1367 25.0123V18.4289H39.121V25.0123H38.1367Z" fill="#2C2C2C"></path>
    <path d="M40.9164 25.0123H41.9007L41.9018 22.9119C41.9028 21.3249 41.9061 20.8201 41.9158 20.8439C41.9223 20.8612 42.2295 21.8049 42.5983 22.941L43.27 25.0069L43.8021 25.0101L44.3343 25.0123V18.4289H43.3392L43.3338 22.8124L42.7021 20.6882C42.3549 19.5196 42.0618 18.5337 42.0499 18.4959L42.0294 18.4289H40.9164V25.0123Z" fill="#2C2C2C"></path>
    <path fill-rule="evenodd" clip-rule="evenodd" d="M46.1081 25.0123V18.4278L46.9982 18.4321C47.8678 18.4354 47.8895 18.4364 47.9922 18.4591C48.2853 18.5262 48.52 18.6516 48.7331 18.8548C48.9754 19.0861 49.1279 19.3575 49.1982 19.6839C49.2166 19.7693 49.2177 19.885 49.2177 21.726V23.6772L49.1885 23.7983C49.1171 24.0945 48.983 24.3345 48.7634 24.5529C48.5049 24.8123 48.2107 24.9582 47.8657 25.0004C47.8029 25.008 47.4752 25.0123 46.9387 25.0123H46.1081ZM48.1945 19.7574C48.1231 19.6148 47.9609 19.4883 47.8083 19.4569C47.7737 19.4494 47.6202 19.445 47.4222 19.445H47.0923V24.0286H47.4255C47.8722 24.0286 47.9327 24.0134 48.0831 23.8621C48.1728 23.7724 48.2313 23.6632 48.2486 23.5529C48.2561 23.5064 48.2605 22.9011 48.2605 21.726L48.2605 21.5535C48.2605 20.0117 48.2605 19.8943 48.2152 19.7983C48.2133 19.7942 48.2113 19.7902 48.2093 19.7862C48.2073 19.7823 48.2052 19.7783 48.2031 19.7742C48.2003 19.7689 48.1975 19.7634 48.1945 19.7574Z" fill="#2C2C2C"></path>
    <path d="M55.8857 25.0123H56.87L56.871 22.9119C56.8721 21.3249 56.8754 20.8201 56.8851 20.8439C56.8916 20.8612 57.1988 21.8049 57.5676 22.941L58.2393 25.0069L58.7714 25.0101L59.3035 25.0123V18.4289H58.3085L58.3031 22.8124L57.6714 20.6882C57.3242 19.5196 57.0311 18.5337 57.0192 18.4959L56.9987 18.4289H55.8857V25.0123Z" fill="#2C2C2C"></path>
    <path d="M61.0774 25.0123V18.4289H63.9003V19.4234H62.0616V21.2179H63.4028V22.2124H62.0616V24.0177H63.9003V25.0123H61.0774Z" fill="#2C2C2C"></path>
    <path d="M70.4764 25.0123H71.4607V18.4289H70.4764V25.0123Z" fill="#2C2C2C"></path>
    <path fill-rule="evenodd" clip-rule="evenodd" d="M73.1912 25.0026C73.1912 24.9907 74.2923 18.4883 74.2999 18.4527L74.3053 18.4289H75.6746L76.3309 22.3581C76.5816 23.8585 76.7723 24.9998 76.7713 25.0036C76.7713 25.009 76.5388 25.0123 76.2532 25.0123H75.7362L75.7297 24.982C75.7286 24.9733 75.7126 24.8698 75.6884 24.7134C75.6678 24.5804 75.6413 24.4091 75.6129 24.2253L75.5004 23.4989L74.9813 23.501L74.4632 23.5043L74.2231 25.0069L73.7072 25.0101C73.3957 25.0112 73.1912 25.009 73.1912 25.0026ZM75.349 22.5011C75.3458 22.4881 75.2657 21.9249 75.1706 21.2503C75.0754 20.5758 74.9932 20.0072 74.9889 19.9866C74.9834 19.9607 74.9315 20.3034 74.7996 21.2298C74.7001 21.9335 74.6189 22.513 74.6189 22.5173C74.6189 22.5227 74.7844 22.5259 74.9867 22.5259H75.3544L75.349 22.5011Z" fill="#2C2C2C"></path>
    <path d="M18.4494 2.24957C19.8908 3.05605 21.1664 4.06164 22.2069 5.35252C22.2594 5.39596 22.3192 5.42967 22.3835 5.45207C22.3835 5.61939 22.4881 5.73233 22.5802 5.85364C22.8886 6.26411 23.1632 6.69889 23.4014 7.15372C24.6203 9.39629 25.0855 11.9712 24.7281 14.4982C24.5289 16.0269 24.0284 17.501 23.2557 18.8352C23.0448 19.2016 22.7141 19.5044 22.638 19.9462C20.7245 19.9955 19.0387 19.4132 17.6082 18.1324C17.7053 18.1208 17.7947 18.0737 17.8593 18.0002C19.16 16.7144 19.9611 15.1759 20.1134 13.3496C20.2859 11.274 19.6606 9.43345 18.292 7.85981C18.0945 7.63225 17.9371 7.31183 17.5638 7.29259C17.5471 7.02488 17.306 6.95795 17.1377 6.8333C16.3007 6.2276 15.3883 5.78086 14.3546 5.61605C13.9032 5.49033 13.4349 5.43641 12.9667 5.45626C12.4133 5.41813 11.8574 5.4641 11.3178 5.59262C9.74412 5.95989 8.40987 6.72538 7.35435 7.96438C5.83595 9.74885 5.30443 11.7943 5.72546 14.0816C6.01006 15.6285 6.75754 16.9311 7.91517 18.0069C9.27621 19.2727 10.8867 19.9027 12.7349 19.957C13.4413 20.8321 14.2022 21.6503 15.0962 22.343C15.8311 22.9127 16.6497 23.3411 17.4541 23.7962C17.4608 23.9175 17.3763 23.9685 17.2826 24.0028C16.1182 24.4253 14.9279 24.7298 13.6833 24.7942C13.6498 24.7708 13.618 24.7323 13.582 24.7273C12.0267 24.5173 10.5569 24.0656 9.19167 23.2716C7.17439 22.1004 5.59237 20.5109 4.49584 18.4545C3.49139 16.5629 3.05529 14.5434 3.13899 12.3892C3.19087 10.7818 3.57264 9.20229 4.26063 7.74854C4.94498 6.30608 5.91285 5.01607 7.10659 3.9554C8.47181 2.72643 10.0455 1.89151 11.7949 1.35525C12.416 1.16534 13.0647 1.12016 13.6874 0.945312C14.9338 1.00696 16.1605 1.28113 17.3144 1.75598C17.4433 1.80701 17.5655 1.87477 17.7111 1.86724C17.9304 2.0513 18.2008 2.12659 18.4494 2.24957Z" fill="#C4D0D2"></path>
    <path d="M13.6897 0.943687C13.0669 1.11854 12.4182 1.16371 11.7971 1.35362C10.0477 1.88988 8.47659 2.72481 7.10969 3.95377C5.91596 5.01445 4.94808 6.30445 4.26374 7.74691C3.57575 9.20066 3.19397 10.7802 3.1421 12.3875C3.05839 14.5418 3.49031 16.5613 4.49895 18.4529C5.5938 20.5059 7.17749 22.0971 9.19477 23.27C10.56 24.0639 12.0298 24.5157 13.5851 24.7257C13.6211 24.7307 13.6529 24.7692 13.6864 24.7926C11.4883 24.9323 9.37892 24.5626 7.43195 23.5335C3.96826 21.7031 1.78776 18.8662 1.07627 15.0002C0.447648 11.581 1.18508 8.41703 3.2936 5.65207C5.28744 3.03686 7.94506 1.44899 11.2455 1.01731C12.0575 0.912732 12.8694 0.807321 13.6897 0.943687Z" fill="#B4BDBE"></path>
    <path d="M22.8606 0.921875C25.3441 0.981274 27.6016 1.74676 29.5569 3.25599C33.2701 6.1272 34.9098 9.93206 34.2686 14.5894C33.5898 19.5078 30.0332 23.3294 25.1951 24.5081C24.3873 24.7047 23.5645 24.8645 22.7208 24.7959C22.4697 24.6637 22.1834 24.6888 21.9147 24.6428C18.8603 24.1225 16.3726 22.635 14.465 20.2222C13.0625 18.4659 12.207 16.3364 12.0049 14.0983C11.8816 12.8861 11.938 11.6624 12.1723 10.4666C12.5272 8.6805 13.2906 7.07841 14.3637 5.61436C15.3975 5.78168 16.309 6.22592 17.1469 6.83162C17.3143 6.95292 17.5562 7.0232 17.5729 7.29091C14.3219 10.1454 14.3436 15.375 17.6165 18.1307C19.0478 19.4116 20.7328 19.9938 22.6463 19.9445C26.3736 19.9445 29.5511 16.7813 29.6925 12.9237C29.8424 8.83444 26.4389 5.35084 22.3918 5.45039C22.3275 5.42799 22.2677 5.39427 22.2152 5.35084C21.1747 4.05996 19.8991 3.05437 18.4577 2.24789C19.8187 1.45646 21.3263 1.14859 22.8606 0.921875Z" fill="#2C2C2C"></path>
    <path d="M12.9713 5.45714C13.4395 5.43729 13.9078 5.49121 14.3592 5.61693C13.2861 7.08014 12.5227 8.68223 12.1678 10.4692C11.9335 11.6649 11.8771 12.8887 12.0004 14.1009C12.2025 16.339 13.0579 18.4684 14.4605 20.2248C16.3698 22.6384 18.8575 24.125 21.9102 24.6454C22.1788 24.6914 22.4634 24.6663 22.7162 24.7985C21.0061 24.9098 19.3798 24.5475 17.8028 23.9226C17.6873 23.8766 17.5692 23.8389 17.4529 23.7979C16.6485 23.3428 15.8299 22.9145 15.0949 22.3447C14.201 21.652 13.4401 20.8338 12.7336 19.9588C12.6206 19.7914 12.5043 19.6241 12.3938 19.4509C10.7147 16.8483 10.0994 14.0206 10.5724 10.9578C10.8896 8.91313 11.7334 7.10022 12.9713 5.45714Z" fill="#2C2C2C"></path>
    <path d="M18.4531 2.24737C18.202 2.12439 17.9316 2.0491 17.7148 1.86505C19.3287 1.14304 21.0924 0.819111 22.8577 0.920525C21.3233 1.14724 19.8158 1.45511 18.4531 2.24737Z" fill="#2C2C2C"></path>
  </g>
  <defs>
    <clipPath id="clip0_4372_5632">
      <rect width="82.396" height="24.4961" fill="white" transform="translate(0.875 0.613281)"></rect>
    </clipPath>
  </defs>
</svg>
