<?xml version="1.0" encoding="UTF-8"?>
<svg xmlns="http://www.w3.org/2000/svg" width="99" height="23" viewBox="0 0 99 23" fill="none">
  <g clip-path="url(#clip0_3551_4816)">
    <path d="M95.1654 1.61821C96.2836 1.61821 97.4026 1.62437 98.5207 1.61328C98.7506 1.61328 98.7945 1.66132 98.7176 1.87871C98.4686 2.58324 98.2304 3.29106 98.003 4.00215C97.9451 4.18197 97.8624 4.23247 97.6796 4.23186C95.9354 4.22447 94.1903 4.22323 92.4444 4.22816C91.6381 4.22816 91.141 4.53609 91.0194 5.21352C90.9508 5.61541 90.9657 6.02715 91.0633 6.42304C91.208 7.00686 91.6943 7.23226 92.2592 7.24827C93.0283 7.27106 93.7991 7.25689 94.5674 7.26613C95.2349 7.27352 95.8948 7.32772 96.5342 7.55558C97.544 7.91338 98.2155 8.60252 98.5306 9.6131C98.8631 10.6767 98.8929 11.8117 98.6166 12.8913C98.2428 14.4032 97.2305 15.2075 95.7311 15.4371C95.2737 15.5034 94.8131 15.5361 94.3516 15.5351C92.4419 15.5456 90.5331 15.5351 88.6243 15.5456C88.3778 15.5456 88.3158 15.4759 88.3208 15.2377C88.3373 14.5713 88.339 13.9037 88.3208 13.2374C88.3142 12.9849 88.3762 12.9134 88.6367 12.9153C90.6481 12.927 92.6586 12.9233 94.6717 12.9209C95.4631 12.9209 95.985 12.5919 96.1074 11.9354C96.1736 11.5638 96.1669 11.183 96.0875 10.814C95.9486 10.1735 95.4714 9.88412 94.689 9.87304C93.7247 9.86005 92.7587 9.88346 91.7944 9.83111C90.6382 9.76958 89.6349 9.35506 88.9684 8.34386C88.5689 7.73849 88.4242 7.05058 88.3596 6.33743C88.2869 5.52144 88.3299 4.71653 88.5904 3.93564C89.0436 2.57523 90.2006 1.72537 91.7778 1.65701C92.9034 1.60897 94.034 1.64777 95.1646 1.64777L95.1654 1.61821Z" fill="black"></path>
    <path d="M79.9254 15.5316C78.8481 15.5316 77.7708 15.5316 76.6935 15.5316C76.3418 15.5316 76.2802 15.4701 76.2784 15.1197C76.2746 14.5143 76.2827 13.9089 76.2784 13.3036C76.2746 13.0159 76.3922 12.9076 76.6854 12.9087C78.5424 12.9178 80.3996 12.9178 82.257 12.9087C83.0452 12.9087 83.6429 12.5627 83.9753 11.836C84.4153 10.8746 83.8595 9.93238 82.8051 9.88557C81.9244 9.84678 81.0406 9.87945 80.1569 9.861C79.2732 9.84248 78.4276 9.6688 77.6856 9.14718C76.9047 8.59787 76.5616 7.79788 76.3744 6.89813C75.8023 4.14961 78.0187 1.56983 80.907 1.60186C82.6714 1.6228 84.4368 1.60186 86.2034 1.60555C86.6459 1.60555 86.7079 1.6967 86.5656 2.12348C86.3713 2.70546 86.1678 3.28497 85.9884 3.87186C85.9081 4.13299 85.7659 4.22105 85.4954 4.21982C83.9158 4.20997 82.3347 4.20997 80.7537 4.21982C79.8336 4.22413 79.1316 4.76176 78.9425 5.58145C78.7424 6.44364 79.3058 7.20914 80.1963 7.24424C80.8621 7.26887 81.5297 7.25594 82.1966 7.25655C84.3475 7.25655 86.2092 8.74382 86.6227 10.8494C86.8741 12.1298 86.6839 13.3522 85.7998 14.3733C85.1191 15.1578 84.1829 15.4473 83.1862 15.4892C82.1012 15.5341 81.0124 15.4996 79.9223 15.4996L79.9254 15.5316Z" fill="black"></path>
    <path d="M73.3066 7.26222C73.0258 8.10778 72.761 8.92498 72.4746 9.73176C72.4494 9.80322 72.2861 9.86475 72.1864 9.86541C70.7084 9.87401 69.2304 9.87095 67.7523 9.87153C67.3884 9.87153 67.3668 9.8913 67.5232 10.2219C68.3164 11.8927 69.6078 12.8516 71.4856 12.9102C72.5725 12.944 73.6613 12.9261 74.7496 12.9102C75.0267 12.9065 75.0421 12.9797 74.9589 13.2149C74.7163 13.8998 74.4915 14.5908 74.2698 15.283C74.2125 15.4609 74.1368 15.5453 73.9292 15.5404C72.9857 15.5195 72.0411 15.5355 71.0963 15.5065C68.2394 15.4191 65.4251 13.0992 64.8068 10.31C64.731 9.96821 64.6299 9.83465 64.2629 9.85987C63.7161 9.89742 63.7142 9.86913 63.8854 9.3586C64.0874 8.75749 64.2475 8.13796 64.5012 7.55906C64.9015 6.64391 65.0961 5.64993 65.6843 4.80377C67.1389 2.71913 69.098 1.61245 71.658 1.61368C72.6944 1.61368 73.7309 1.61861 74.7674 1.60938C74.9922 1.60938 75.0507 1.6451 74.9669 1.87912C74.7206 2.57256 74.4884 3.27216 74.2686 3.97298C74.207 4.17991 74.0979 4.22857 73.8942 4.2261C73.0424 4.21624 72.1901 4.21317 71.339 4.2261C69.6823 4.25751 68.0707 5.427 67.4906 6.9857C67.4068 7.2111 67.4425 7.26037 67.679 7.25914C69.4342 7.25175 71.1893 7.25544 72.9439 7.25544L73.3066 7.26222Z" fill="black"></path>
    <path d="M57.2599 15.5264C54.7787 15.5141 51.9599 13.2336 51.2757 10.0103C50.5613 6.65389 52.4452 3.17437 55.6834 2.03506C58.6049 1.00783 61.7802 1.7955 63.7903 4.5126C63.9135 4.67888 63.887 4.74786 63.7201 4.85378C63.1235 5.23274 62.535 5.6238 61.9545 6.02697C61.7894 6.1409 61.7167 6.11996 61.5986 5.96538C60.352 4.32601 58.2379 3.74403 56.3737 4.57973C53.2163 5.99618 52.9317 10.0546 55.4105 11.9742C57.3566 13.4806 60.1063 13.1492 61.5918 11.192C61.726 11.0153 61.8048 11.0171 61.973 11.1305C62.5457 11.5267 63.126 11.912 63.714 12.2864C63.8987 12.4016 63.9147 12.4798 63.7817 12.6504C62.3351 14.5029 60.4764 15.5276 57.2599 15.5264Z" fill="black"></path>
    <path d="M45.412 15.5282C41.1011 15.5553 38.4412 12.8702 37.8488 10.1328C37.1098 6.72159 38.9025 3.27162 42.18 2.06518C45.0837 0.989298 48.3366 1.77512 50.3609 4.53595C50.473 4.68868 50.4329 4.75026 50.2994 4.83895C49.6983 5.23001 49.0972 5.62231 48.5073 6.02999C48.3391 6.147 48.2664 6.11437 48.1501 5.9641C46.8531 4.29208 44.7358 3.72489 42.8414 4.61909C39.7235 6.09158 39.5196 10.1309 42.0113 12.013C43.9339 13.4645 46.6591 13.1338 48.1242 11.2185C48.2701 11.0282 48.3631 11.0184 48.5516 11.1501C49.1145 11.5418 49.6861 11.9216 50.2667 12.2894C50.4515 12.4065 50.4669 12.4841 50.3283 12.659C48.8866 14.5108 47.0249 15.5263 45.412 15.5282Z" fill="black"></path>
    <path d="M36.5135 15.5355C36.2568 15.5355 35.9987 15.5164 35.7444 15.5404C35.3712 15.5762 35.166 15.4068 34.9991 15.0865C33.9978 13.162 32.9817 11.2461 31.9704 9.32717C31.7241 8.85601 31.4895 8.37689 31.2167 7.92054C31.1292 7.77335 30.9358 7.59907 30.7923 7.6003C30.6488 7.60154 30.4524 7.77705 30.3723 7.92608C29.0996 10.3074 27.8381 12.6958 26.5879 15.0914C26.4186 15.4166 26.2092 15.5589 25.841 15.5422C25.2984 15.5176 24.754 15.5422 24.2102 15.5342C23.7095 15.5287 23.5383 15.2503 23.7692 14.8125C25.9727 10.6419 28.1807 6.47475 30.3933 2.31081C30.4653 2.17594 30.6797 2.02136 30.809 2.03614C30.9611 2.054 31.1471 2.21782 31.2265 2.36685C32.7933 5.29828 34.3527 8.23483 35.9051 11.1765C36.532 12.3614 37.1581 13.5465 37.7834 14.7318C38.0686 15.2725 37.9066 15.5324 37.2858 15.5355C37.0259 15.5367 36.7673 15.5355 36.5135 15.5355Z" fill="black"></path>
    <path d="M4.02103 16.5641C4.02103 16.1022 4.02103 15.6403 4.02103 15.1784C4.02464 15.1092 4.03225 15.0403 4.04383 14.9721C4.11785 14.9909 4.18953 15.0179 4.25752 15.0527C5.69737 15.997 7.13619 16.9414 8.57398 17.8856C8.96815 18.1443 9.37456 18.3882 9.75334 18.6653C9.99964 18.8451 10.1899 18.8322 10.4424 18.6653C13.0639 16.9458 15.6897 15.233 18.3197 13.5267C18.3864 13.4793 18.4555 13.4354 18.5266 13.3949C18.7828 13.2618 19.0304 13.3776 19.0348 13.6591C19.0478 14.5213 19.0464 15.3835 19.0304 16.2457C19.0304 16.3509 18.9208 16.492 18.8235 16.5536C16.0079 18.4069 13.1893 20.2556 10.3679 22.0999C10.1832 22.223 10.023 22.2273 9.83274 22.0999C7.97784 20.8744 6.11553 19.6586 4.26676 18.4239C4.14359 18.3401 4.04136 18.1314 4.03089 17.9743C4.00379 17.5094 4.02103 17.0357 4.02103 16.5641Z" fill="black"></path>
    <path d="M13.0004 7.53206C13.0004 7.90156 13.0183 8.27107 12.9918 8.64058C12.9813 8.78284 12.9043 8.98111 12.7965 9.03777C12.6888 9.09442 12.4788 9.04703 12.3612 8.97069C10.7796 7.94221 9.2012 6.91128 7.63883 5.85634C7.29334 5.62355 7.04208 5.63463 6.70152 5.86188C5.0141 6.98703 3.31437 8.09186 1.60786 9.19176C1.47176 9.27918 1.23219 9.3513 1.11888 9.2891C1.00556 9.22683 0.945827 8.98732 0.941515 8.82349C0.922425 8.14605 0.91873 7.46862 0.941515 6.7912C0.947674 6.63538 1.05052 6.42168 1.17615 6.34163C3.10498 5.06005 5.04489 3.79572 6.98111 2.52338C7.06376 2.46192 7.16418 2.42903 7.26718 2.4297C7.37018 2.43036 7.47016 2.46455 7.552 2.52708C9.28068 3.66516 11.0142 4.79647 12.7343 5.94749C12.868 6.03678 12.969 6.25541 12.9863 6.42107C13.0263 6.79058 13.0004 7.16255 13.0004 7.53206Z" fill="black"></path>
    <path d="M0.930965 13.1673C0.930965 12.2534 0.935891 11.3401 0.927269 10.4268C0.919882 10.3302 0.940103 10.2336 0.985574 10.1481C1.03105 10.0626 1.09989 9.99179 1.18408 9.94399C3.08581 8.71476 4.98569 7.48306 6.88373 6.24891C7.09312 6.11281 7.27356 6.11589 7.47863 6.25261C8.02427 6.61534 8.57854 6.96638 9.12724 7.32602C9.50784 7.57237 9.50536 7.8187 9.11492 8.06997C7.43183 9.16616 5.75058 10.2648 4.06007 11.3493C3.78849 11.523 3.67086 11.7127 3.67394 12.044C3.68933 13.7783 3.68564 15.5131 3.67394 17.2473C3.67394 17.4129 3.61236 17.6236 3.50397 17.7314C3.3303 17.9001 3.14616 17.7351 2.98357 17.6285C2.4016 17.2455 1.82209 16.8556 1.2315 16.4886C1.00117 16.3451 0.923575 16.172 0.927269 15.9072C0.938971 14.9939 0.930965 14.0806 0.930965 13.1673Z" fill="black"></path>
    <path d="M19.0467 9.49772C19.0467 10.411 19.0399 11.3243 19.051 12.2376C19.051 12.4839 18.9678 12.633 18.7621 12.7635C16.9047 13.9485 15.0514 15.1391 13.2023 16.3355C12.9633 16.4913 12.7791 16.511 12.5372 16.3428C12.0069 15.9733 11.4563 15.6371 10.9162 15.2836C10.5295 15.0305 10.5276 14.7953 10.9125 14.5415C12.6153 13.4194 14.3157 12.2937 16.0241 11.1827C16.2944 11.0078 16.409 10.8188 16.4059 10.4886C16.3893 8.82584 16.3929 7.16306 16.4059 5.50027C16.4059 5.34016 16.4828 5.10428 16.598 5.0427C16.7131 4.98112 16.9484 5.05255 17.087 5.13693C17.6573 5.48735 18.2054 5.8667 18.767 6.22636C18.8603 6.27852 18.9367 6.3564 18.987 6.45074C19.0374 6.54507 19.0596 6.65187 19.051 6.75845C19.0392 7.67051 19.0467 8.58443 19.0467 9.49772Z" fill="black"></path>
    <path d="M13.3516 8.90543C13.3516 7.97116 13.346 7.03754 13.3564 6.10391C13.3564 5.91485 13.2949 5.81015 13.1391 5.71039C11.4968 4.64662 9.8568 3.57915 8.21908 2.508C7.79414 2.23025 7.79168 2.00669 8.21107 1.73326C8.72591 1.39701 9.24694 1.07061 9.75623 0.726354C9.95141 0.594563 10.1128 0.581014 10.3148 0.717116C12.1332 1.94347 13.9546 3.16469 15.7792 4.38078C15.862 4.43052 15.9294 4.5023 15.9737 4.58811C16.0181 4.67391 16.0377 4.77036 16.0304 4.86668C16.0247 6.71422 16.0247 8.56176 16.0304 10.4093C16.0364 10.511 16.0131 10.6123 15.9633 10.7013C15.9136 10.7902 15.8394 10.863 15.7497 10.9112C15.151 11.2875 14.5635 11.6816 13.9606 12.0499C13.8473 12.1195 13.6404 12.1663 13.5505 12.1115C13.4427 12.0425 13.362 11.8509 13.3595 11.7112C13.3441 10.7732 13.3516 9.83899 13.3516 8.90543Z" fill="black"></path>
    <path d="M4.0239 13.1555C4.0239 12.8174 3.99927 12.478 4.03499 12.1412C4.05224 11.981 4.14523 11.7784 4.27086 11.6891C4.8553 11.2747 5.46005 10.8885 6.0642 10.5018C6.41585 10.2763 6.66464 10.4155 6.66834 10.8324C6.67327 11.4175 6.67881 12.0026 6.66834 12.587C6.66219 12.8543 6.76503 13.0181 6.98797 13.1635C8.66143 14.2346 10.3316 15.3107 11.9985 16.3917C12.4468 16.6811 12.4456 16.8813 11.9985 17.177C11.4597 17.5317 10.917 17.8809 10.3831 18.2429C10.1861 18.3766 10.0137 18.3766 9.81781 18.2497C7.97763 17.0591 6.13605 15.8707 4.29303 14.6846C4.20327 14.6337 4.12998 14.5582 4.08184 14.467C4.0337 14.3757 4.01274 14.2725 4.02144 14.1697C4.03129 13.8329 4.0239 13.4923 4.0239 13.1555Z" fill="black"></path>
    <path d="M26.0479 19.5946C26.3743 19.7425 26.572 19.9709 26.6083 20.317C26.6625 20.827 26.3195 21.2334 25.719 21.2802C25.0872 21.3295 24.4503 21.3172 23.8154 21.319C23.7792 21.3088 23.7461 21.2895 23.7195 21.2628C23.6928 21.2362 23.6735 21.2031 23.6633 21.1669C23.6539 20.1622 23.6539 19.1576 23.6633 18.1529C23.6633 18.0994 23.7822 18.0027 23.8481 18.0021C24.3808 17.9965 24.9135 18.0021 25.4456 18.0199C25.8545 18.0353 26.2258 18.1597 26.3847 18.5828C26.5356 18.9862 26.3897 19.3224 26.0479 19.5946ZM24.9344 20.851C25.1777 20.8276 25.4363 20.846 25.6586 20.7647C25.7966 20.7143 25.9567 20.5184 25.9666 20.3762C25.9764 20.2339 25.8262 20.0621 25.7005 19.9568C25.6131 19.8828 25.4492 19.8853 25.3181 19.8798C25.0625 19.8693 24.8051 19.8952 24.5514 19.8712C24.313 19.849 24.2656 19.9327 24.27 20.1587C24.2804 20.8301 24.2705 20.8306 24.9344 20.851ZM24.8482 19.4025C25.032 19.4039 25.2157 19.3939 25.3981 19.3723C25.6204 19.3329 25.8077 19.2313 25.8114 18.9591C25.815 18.6869 25.6463 18.5477 25.3988 18.5169C25.1512 18.4861 24.8876 18.5022 24.6351 18.4701C24.3426 18.432 24.2509 18.5249 24.2656 18.8285C24.2934 19.3914 24.2736 19.3921 24.8482 19.4025Z" fill="black"></path>
    <path d="M65.1802 21.317C65.1054 21.3171 65.0305 21.3211 64.9561 21.3287C64.6481 21.3817 64.4418 21.2843 64.3753 20.9592C64.3064 20.6223 64.1087 20.4918 63.7644 20.5503C63.6012 20.5766 63.4349 20.5766 63.2717 20.5503C62.7557 20.4702 62.3868 20.5983 62.2685 21.1662C62.255 21.2277 62.1331 21.3022 62.0523 21.3164C61.9144 21.3417 61.7697 21.3238 61.5781 21.3238L61.8245 20.7695C62.2051 19.9203 62.5931 19.0741 62.9614 18.2187C63.0475 18.0185 63.1665 17.9804 63.3604 17.9847C63.5544 17.989 63.6936 17.9933 63.7915 18.2181C64.2355 19.2472 64.7024 20.2584 65.1802 21.317ZM63.9953 20.0607C63.7853 19.5767 63.5932 19.1326 63.3734 18.6252L62.7667 20.0416C62.8018 20.0514 62.8377 20.0583 62.8739 20.0626C63.2323 20.0613 63.5914 20.0607 63.9953 20.0607Z" fill="black"></path>
    <path d="M40.5974 21.291C40.1398 21.3963 39.8054 21.3262 39.5677 20.9215C39.4235 20.6752 39.2136 20.4719 39.035 20.2509C38.6975 20.4504 38.4973 20.7122 38.5725 21.126C38.6162 21.3655 38.4321 21.3292 38.2966 21.3194C38.1611 21.3095 37.9714 21.4074 37.9727 21.1346C37.9788 20.0791 37.9727 19.0235 37.9727 17.968C37.9727 17.668 38.2005 17.8189 38.3317 17.7918C38.4782 17.7616 38.5781 17.7918 38.5781 17.9901C38.5663 18.6059 38.5737 19.2175 38.5737 19.9165C38.8817 19.6307 39.1662 19.4059 39.4051 19.1411C39.6915 18.8227 40.0209 18.6866 40.4964 18.8111L39.8331 19.4762C39.4636 19.8493 39.4636 19.8456 39.7814 20.2528C40.0486 20.5909 40.3129 20.929 40.5974 21.291Z" fill="black"></path>
    <path d="M46.0241 18.9404C46.353 18.8788 46.6548 18.779 46.9578 18.7753C47.4948 18.7679 47.8742 19.1245 47.9087 19.6602C47.9413 20.1604 47.9216 20.6635 47.9222 21.1654C47.9222 21.4548 47.6999 21.2923 47.5804 21.3212C47.4406 21.3551 47.3254 21.3298 47.3297 21.1254C47.339 20.706 47.3261 20.2866 47.3186 19.8666C47.315 19.6245 47.2362 19.3807 46.9892 19.3382C46.7668 19.3 46.4732 19.3105 46.3044 19.4306C46.1473 19.5426 46.0617 19.821 46.0359 20.0371C46.0034 20.3943 46.0012 20.7536 46.0291 21.1112C46.0402 21.3335 45.9201 21.3452 45.7649 21.3249C45.6263 21.3071 45.4194 21.4209 45.4219 21.1254C45.4297 20.0801 45.4297 19.0352 45.4219 17.9907C45.4219 17.6939 45.6269 17.8115 45.7636 17.7936C45.9176 17.7727 46.0414 17.7801 46.0291 18.0043C46.0106 18.3307 46.0241 18.6583 46.0241 18.9404Z" fill="black"></path>
    <path d="M96.5251 19.0752C96.8237 18.8061 97.1463 18.7452 97.4953 18.7711C98.0304 18.8104 98.3967 19.1762 98.4191 19.7323C98.4373 20.2028 98.4191 20.6752 98.4273 21.1488C98.434 21.4315 98.233 21.3157 98.1065 21.3336C97.9617 21.3514 97.8203 21.3625 97.831 21.1297C97.8468 20.7602 97.841 20.3907 97.831 20.0212C97.8211 19.5113 97.6185 19.2723 97.2149 19.2822C96.784 19.2902 96.5326 19.5704 96.5251 20.0532C96.5185 20.4117 96.5094 20.7707 96.5285 21.1285C96.5409 21.3613 96.4052 21.349 96.2597 21.3336C96.1133 21.3182 95.9148 21.429 95.9197 21.1328C95.9305 20.4467 95.9197 19.7601 95.9247 19.0734C95.9247 18.9447 95.8635 18.7827 96.11 18.7809C96.478 18.7723 96.4797 18.7575 96.5251 19.0752Z" fill="black"></path>
    <path d="M84.5639 21.0534C84.1892 21.3761 83.7881 21.4229 83.363 21.2869C83.0079 21.1747 82.8164 20.8982 82.833 20.5527C82.8497 20.2072 83.0671 19.9455 83.4416 19.8876C83.7352 19.8492 84.0321 19.8354 84.3282 19.8464C84.5399 19.8495 84.5746 19.7183 84.4911 19.6038C84.3844 19.4627 84.2173 19.3014 84.0602 19.281C83.8179 19.2505 83.5722 19.2889 83.3514 19.3919C83.1052 19.515 83.0701 19.3672 82.9821 19.225C82.8497 19.0168 83.0252 18.9565 83.1459 18.9355C83.5325 18.8684 83.9312 18.765 84.3158 18.8C84.8533 18.8499 85.1163 19.2262 85.1246 19.7811C85.1304 20.2011 85.1287 20.6211 85.1246 21.0405C85.1246 21.1679 85.1933 21.3546 84.9402 21.3262C84.7673 21.3071 84.5109 21.4347 84.5639 21.0534ZM84.1454 20.1838L84.1247 20.2362C84.0743 20.2278 84.0222 20.2278 83.9717 20.2362C83.7922 20.3021 83.602 20.3593 83.449 20.4628C83.4126 20.4862 83.4548 20.7529 83.5102 20.7707C83.7004 20.8397 83.9113 20.8502 84.1148 20.8791C84.1454 20.8773 84.1752 20.8678 84.2016 20.8514C84.4142 20.7529 84.5854 20.5965 84.5176 20.3588C84.4919 20.275 84.2752 20.2417 84.1454 20.1838Z" fill="black"></path>
    <path d="M51.1175 21.0751C50.7079 21.3941 50.3046 21.4188 49.8858 21.266C49.7439 21.2187 49.6207 21.1276 49.5339 21.006C49.447 20.8842 49.401 20.7381 49.4024 20.5886C49.4067 20.2621 49.5822 19.9955 49.9289 19.9222C50.2442 19.8551 50.5768 19.8514 50.902 19.8489C51.1273 19.8489 51.139 19.7547 51.0713 19.5866C51.0366 19.4831 50.9671 19.3948 50.8748 19.3367C50.7824 19.2785 50.6728 19.2541 50.5645 19.2676C50.3255 19.2891 50.0718 19.3211 49.8587 19.4209C49.6351 19.5262 49.6493 19.3495 49.5828 19.2621C49.4984 19.1506 49.4713 19.0459 49.6351 18.9701C50.1389 18.7361 50.6544 18.6683 51.1779 18.8858C51.5405 19.036 51.684 19.3464 51.6908 19.7221C51.6982 20.1622 51.6982 20.6025 51.6908 21.043C51.6908 21.1552 51.7697 21.3423 51.5344 21.3245C51.3638 21.3103 51.1175 21.4366 51.1175 21.0751ZM50.6864 20.2351V20.2295C50.5528 20.2363 50.4025 20.2067 50.2916 20.2591C50.1685 20.3164 50.0145 20.4469 50.0089 20.5523C50.0034 20.6575 50.1549 20.8564 50.2553 20.8682C50.4641 20.8922 50.7129 20.8682 50.8902 20.7703C51.0134 20.7019 51.0399 20.4691 51.1095 20.3102C50.9863 20.285 50.8693 20.2597 50.7492 20.2357C50.7284 20.2336 50.7073 20.2334 50.6864 20.2351Z" fill="black"></path>
    <path d="M91.7695 20.0673C91.7695 19.3056 92.3121 18.7679 93.0945 18.7618C93.8768 18.7556 94.4764 19.316 94.4698 20.063C94.4632 20.81 93.8876 21.3563 93.1151 21.3563C92.3419 21.3563 91.7712 20.8168 91.7695 20.0673ZM92.3708 20.0427C92.3675 20.5175 92.6702 20.8495 93.1069 20.8513C93.5435 20.8531 93.8644 20.5089 93.8628 20.0507C93.8603 19.5925 93.5378 19.2581 93.1019 19.2624C92.666 19.2668 92.3741 19.5851 92.3708 20.0427Z" fill="black"></path>
    <path d="M30.1875 20.0519C30.1875 19.2938 30.7386 18.763 31.5257 18.7617C32.3017 18.7617 32.8806 19.308 32.8867 20.0458C32.891 20.7958 32.2999 21.3618 31.5171 21.3575C30.7343 21.3532 30.1863 20.8063 30.1875 20.0519ZM30.7861 20.0569C30.7861 20.5261 31.102 20.8574 31.5386 20.8494C31.9618 20.8408 32.2746 20.512 32.2808 20.0692C32.2869 19.6122 31.9685 19.2685 31.5343 19.2642C31.1001 19.2599 30.7855 19.5857 30.7861 20.0569Z" fill="black"></path>
    <path d="M56.2337 18.9651C56.5164 18.8918 56.7659 18.7839 57.0214 18.7686C57.6736 18.7304 58.0566 19.055 58.1127 19.704C58.154 20.1826 58.1336 20.6666 58.1361 21.1488C58.1361 21.45 57.9027 21.291 57.7728 21.3194C57.6428 21.3478 57.5166 21.3373 57.5264 21.1273C57.5425 20.7276 57.5338 20.3266 57.5301 19.927C57.5264 19.5101 57.3287 19.2853 56.961 19.2699C56.5786 19.2544 56.2719 19.4983 56.2467 19.8827C56.2201 20.2818 56.2166 20.6822 56.2362 21.0817C56.2485 21.341 56.1088 21.328 55.9332 21.328C55.7577 21.328 55.6179 21.3539 55.6253 21.0878C55.6444 20.4215 55.6253 19.7546 55.6376 19.0882C55.6376 18.9835 55.7195 18.7926 55.7651 18.792C55.9443 18.7889 56.2294 18.6362 56.2337 18.9651Z" fill="black"></path>
    <path d="M74.2733 18.7618C75.0529 18.7686 75.6139 19.316 75.6072 20.0655C75.6004 20.815 75.0129 21.3704 74.2234 21.3557C73.4437 21.3415 72.9091 20.8014 72.9141 20.031C72.9184 19.2809 73.4813 18.7556 74.2733 18.7618ZM73.5139 20.0377C73.5096 20.5126 73.8101 20.8452 74.248 20.8501C74.6859 20.855 75.0049 20.512 75.0079 20.0538C75.011 19.5956 74.6834 19.26 74.248 19.2625C73.8126 19.2649 73.5183 19.5802 73.5139 20.0377Z" fill="black"></path>
    <path d="M67.2541 18.7266C67.5521 18.7764 67.7695 18.7925 67.9721 18.8553C68.0718 18.8861 68.3145 18.8553 68.208 19.0967C68.1359 19.2624 68.1045 19.4601 67.8034 19.335C67.5816 19.2426 67.3021 19.2636 67.0514 19.2796C66.964 19.2851 66.8297 19.4206 66.8199 19.5075C66.8125 19.5814 66.943 19.715 67.0336 19.7446C67.2953 19.8289 67.5712 19.8677 67.8391 19.9343C68.1211 20.0051 68.3213 20.1757 68.3521 20.4756C68.374 20.6196 68.3477 20.7668 68.2775 20.8944C68.2072 21.0219 68.0969 21.1228 67.9635 21.1813C67.3969 21.4609 66.8316 21.3759 66.2724 21.1493C66.079 21.0712 66.193 20.9541 66.2459 20.8562C66.2989 20.7583 66.2982 20.6062 66.5132 20.6813C66.7927 20.7723 67.0822 20.8296 67.3754 20.8519C67.541 20.8673 67.7689 20.8285 67.7492 20.5982C67.7412 20.507 67.5552 20.398 67.4301 20.3567C67.1894 20.2773 66.9307 20.2533 66.6856 20.1831C66.4177 20.1061 66.2465 19.9226 66.2169 19.6362C66.1874 19.3498 66.2939 19.0918 66.5507 18.9624C66.7878 18.8443 67.0613 18.7882 67.2541 18.7266Z" fill="black"></path>
    <path d="M70.6341 18.7305C70.9007 18.7749 71.1181 18.7921 71.3213 18.8537C71.4236 18.885 71.6594 18.858 71.559 19.1C71.4864 19.2731 71.447 19.4535 71.1526 19.3346C70.9291 19.2447 70.6513 19.2633 70.4007 19.278C70.3126 19.2835 70.1784 19.4159 70.1666 19.504C70.1573 19.5755 70.2849 19.7115 70.3766 19.7411C70.6279 19.8237 70.8946 19.8594 71.1526 19.9259C71.4543 20.001 71.6748 20.1618 71.6957 20.5041C71.7155 20.8336 71.5615 21.0885 71.2308 21.2234C70.6968 21.4409 70.1684 21.3725 69.6462 21.1619C69.4799 21.096 69.4904 20.995 69.5778 20.878C69.6475 20.7844 69.6155 20.5916 69.8618 20.6815C70.1493 20.7809 70.4506 20.8349 70.7547 20.8416C70.8742 20.8453 71.0011 20.6815 71.1242 20.5953C71.0202 20.5158 70.9272 20.4025 70.8096 20.3644C70.5774 20.2892 70.3292 20.2652 70.0921 20.2036C69.7842 20.1248 69.5846 19.9284 69.5619 19.6032C69.5452 19.4584 69.5768 19.3121 69.6518 19.1871C69.7267 19.062 69.8408 18.9652 69.9763 18.9116C70.1937 18.8142 70.4413 18.7804 70.6341 18.7305Z" fill="black"></path>
    <path d="M78.2467 18.7618C78.6101 18.7618 78.939 18.8597 79.1785 19.1478C79.226 19.2057 79.2401 19.3794 79.2278 19.3849C79.0861 19.4423 78.9882 19.6726 78.7875 19.515C78.7634 19.4959 78.7455 19.47 78.7221 19.4503C78.5738 19.3212 78.3812 19.2545 78.1848 19.2643C77.9883 19.274 77.8033 19.3595 77.6685 19.5026C77.3907 19.8013 77.3987 20.3365 77.6857 20.624C77.9727 20.9117 78.4327 20.94 78.7326 20.6376C78.9722 20.3956 79.0781 20.6783 79.2444 20.7207C79.2001 20.8267 79.1828 20.9578 79.1083 21.033C78.7314 21.4142 77.9887 21.4641 77.4751 21.1561C76.9824 20.863 76.7552 20.2662 76.9208 19.6873C77.0865 19.1085 77.5909 18.7568 78.2467 18.7618Z" fill="black"></path>
    <path d="M42.9887 21.3541C42.3389 21.3443 41.853 21.0198 41.6689 20.5061C41.4848 19.9925 41.6295 19.4099 42.0273 19.0779C42.4627 18.7146 43.1691 18.6469 43.6433 18.9253C43.7261 18.9664 43.7992 19.0248 43.8576 19.0965C43.9137 19.1802 43.9322 19.2892 43.9672 19.3871C43.8053 19.4216 43.7098 19.7019 43.4746 19.4771C43.4035 19.406 43.319 19.35 43.2259 19.3121C43.1329 19.2742 43.0332 19.2553 42.9328 19.2564C42.8324 19.2576 42.7332 19.2788 42.6411 19.3188C42.5489 19.3588 42.4656 19.4168 42.3963 19.4894C42.1222 19.7782 42.1252 20.3293 42.4018 20.617C42.4713 20.6894 42.5545 20.747 42.6468 20.7866C42.739 20.8262 42.8382 20.8468 42.9385 20.8474C43.0389 20.8479 43.1383 20.8282 43.2309 20.7896C43.3235 20.751 43.4074 20.6942 43.4777 20.6225C43.7129 20.3904 43.8028 20.6903 43.9648 20.7137C43.9309 20.8109 43.9229 20.931 43.8595 21.0007C43.6132 21.268 43.2861 21.3449 42.9887 21.3541Z" fill="black"></path>
    <path d="M35.6415 18.7617C35.7984 18.7636 35.9531 18.7999 36.0944 18.868C36.2358 18.9361 36.3606 19.0343 36.4599 19.1559C36.5008 19.2214 36.5234 19.2967 36.5252 19.3739C36.3815 19.4386 36.2318 19.4887 36.0781 19.5235C36.0436 19.5309 35.9937 19.4416 35.9445 19.4065C35.7891 19.2944 35.5973 19.2449 35.4071 19.2677C35.2169 19.2905 35.0423 19.3841 34.9178 19.5297C34.6715 19.8253 34.6802 20.3241 34.9407 20.605C35.2012 20.8857 35.6852 20.9529 35.963 20.6702C36.2136 20.4152 36.3497 20.6332 36.5172 20.7318C36.5345 20.7422 36.4944 20.911 36.4408 20.9683C36.0997 21.3298 35.668 21.4086 35.1987 21.3169C34.695 21.219 34.3408 20.9325 34.1943 20.4325C33.9387 19.5531 34.5545 18.7648 35.6415 18.7617Z" fill="black"></path>
    <path d="M86.8651 19.9737C86.8651 19.8407 86.856 19.7065 86.8651 19.5741C86.8833 19.3715 86.8552 19.2341 86.5947 19.2612C86.5567 19.2655 86.4648 19.1152 86.4648 19.037C86.4648 18.9588 86.5567 18.8043 86.5939 18.8086C86.8916 18.8443 86.8866 18.6571 86.861 18.4662C86.8271 18.2087 86.9842 18.2161 87.1604 18.2198C87.3241 18.2248 87.5119 18.1853 87.4606 18.4532C87.3986 18.7802 87.5714 18.8369 87.8369 18.7944C88.0701 18.7575 88.1686 18.8363 88.1454 19.0888C88.1313 19.2396 88.0875 19.2883 87.9461 19.2735C87.8849 19.2668 87.8229 19.2803 87.7616 19.2735C87.5268 19.2378 87.4341 19.3184 87.4532 19.5697C87.4771 19.8647 87.4532 20.1634 87.4614 20.4608C87.4697 20.7891 87.6318 20.9388 87.9295 20.8359C88.1826 20.7491 88.2008 20.8975 88.2579 21.0509C88.3447 21.2837 88.1537 21.2769 88.0296 21.3114C87.3523 21.5004 86.8941 21.1679 86.8635 20.4676C86.8569 20.3038 86.8635 20.1394 86.8635 19.9749L86.8651 19.9737Z" fill="black"></path>
    <path d="M28.7116 19.5872C28.7116 20.0798 28.6986 20.5725 28.7177 21.0603C28.7264 21.2882 28.6444 21.3429 28.4394 21.3214C28.2736 21.3048 28.1006 21.3713 28.1056 21.075C28.1228 20.0618 28.1228 19.0485 28.1056 18.0352C28.1006 17.7439 28.27 17.8043 28.4375 17.7889C28.6432 17.7692 28.7251 17.8228 28.7171 18.0506C28.6992 18.5618 28.7116 19.0736 28.7116 19.5872Z" fill="black"></path>
    <path d="M53.9564 20.0601C53.9564 20.4191 53.9453 20.7788 53.9601 21.1372C53.9705 21.3903 53.7981 21.3263 53.6719 21.3219C53.5456 21.3176 53.3479 21.4094 53.3516 21.1335C53.3609 20.4154 53.362 19.6974 53.3516 18.9781C53.3473 18.6812 53.5536 18.7933 53.6922 18.7779C53.8307 18.7625 53.9749 18.7471 53.9619 18.9829C53.9416 19.3402 53.9564 19.7004 53.9564 20.0601Z" fill="black"></path>
    <path d="M90.2927 20.063C90.2927 20.422 90.2812 20.7811 90.2977 21.1394C90.3084 21.3907 90.1406 21.3316 90.0115 21.3242C89.8833 21.3168 89.6882 21.4092 89.6915 21.1351C89.7006 20.4177 89.7022 19.6996 89.6915 18.9797C89.6873 18.6847 89.89 18.7912 90.0306 18.7771C90.1703 18.7629 90.3126 18.7481 90.2993 18.9828C90.2787 19.3443 90.2936 19.7039 90.2927 20.063Z" fill="black"></path>
    <path d="M81.3213 20.032C81.3213 20.391 81.3053 20.7507 81.3268 21.1085C81.3428 21.3715 81.1803 21.3252 81.0313 21.324C80.8822 21.3228 80.7233 21.3776 80.7307 21.1153C80.7454 20.4076 80.7473 19.6988 80.7307 18.9918C80.7245 18.7307 80.8779 18.7763 81.0263 18.7775C81.1748 18.7788 81.3404 18.7233 81.3268 18.9857C81.3077 19.3336 81.3213 19.6828 81.3213 20.032Z" fill="black"></path>
    <path d="M90.3755 18.0059C90.3507 18.235 90.2266 18.3705 89.9951 18.3606C89.7759 18.3508 89.6163 18.2375 89.6254 17.9973C89.632 17.7756 89.7858 17.6659 89.9951 17.6641C90.2051 17.6623 90.3631 17.7608 90.3755 18.0059Z" fill="black"></path>
    <path d="M81.0634 18.3667C80.8281 18.3464 80.6587 18.2583 80.6563 18.0163C80.6538 17.7743 80.8121 17.6641 81.0332 17.6641C81.2376 17.6641 81.4027 17.7645 81.407 17.988C81.4113 18.2116 81.2715 18.3408 81.0634 18.3667Z" fill="black"></path>
    <path d="M53.6764 17.6562C53.887 17.6993 54.0533 17.7837 54.0286 18.0362C54.0065 18.253 53.8716 18.3718 53.6592 18.362C53.4467 18.3521 53.2786 18.2437 53.2854 18.0023C53.2921 17.7609 53.4621 17.6808 53.6764 17.6562Z" fill="black"></path>
  </g>
  <defs>
    <clipPath id="clip0_3551_4816">
      <rect width="98.4183" height="22.3302" fill="white" transform="translate(0.574219 0.617188)"></rect>
    </clipPath>
  </defs>
</svg>
