<?xml version="1.0" encoding="UTF-8"?>
<svg xmlns="http://www.w3.org/2000/svg" width="123" height="15" viewBox="0 0 123 15" fill="none">
  <g clip-path="url(#clip0_3551_4181)">
    <path d="M0.640625 14.7113C0.695537 14.6845 0.698216 14.6256 0.716966 14.5774C2.7197 9.82459 4.71663 5.06999 6.70776 0.313613C6.72243 0.253064 6.75904 0.200107 6.81049 0.16498C6.86195 0.129852 6.9246 0.115048 6.98634 0.123429C7.62385 0.136822 8.26137 0.134144 8.89889 0.123429C8.94475 0.116228 8.99166 0.125807 9.03102 0.15041C9.07039 0.175012 9.09956 0.212986 9.11318 0.257361C11.1222 5.04856 13.1338 9.83843 15.1482 14.627C15.1656 14.6698 15.1803 14.714 15.1991 14.7609C15.1508 14.7609 15.1147 14.7689 15.0785 14.7689C14.4089 14.7689 13.7392 14.7689 13.0695 14.7689C13.0285 14.7743 12.9869 14.7646 12.9525 14.7417C12.918 14.7188 12.893 14.6843 12.882 14.6444C11.4954 11.3425 10.1061 8.03704 8.71406 4.72802C8.47298 4.15211 8.23146 3.57665 7.98949 3.00163C7.97982 2.94936 7.95238 2.90205 7.91181 2.8677C7.69618 3.38066 7.48055 3.8896 7.26625 4.39989C5.83764 7.80712 4.40903 11.2148 2.98042 14.6229C2.9683 14.6731 2.93807 14.7169 2.89554 14.7461C2.85301 14.7753 2.80119 14.7877 2.75006 14.781C2.04959 14.7703 1.34779 14.781 0.645982 14.7716L0.640625 14.7113Z" fill="#0B0B0B"></path>
    <path d="M99.6162 14.8375C99.3484 14.2125 99.0841 13.5844 98.8233 12.9531C98.6318 12.4977 98.4376 12.0424 98.2461 11.5883C98.2876 11.5455 98.3318 11.5615 98.3706 11.5615C99.3711 11.5615 100.372 11.5615 101.372 11.5615C101.519 11.5615 101.526 11.5964 101.473 11.7196C101.048 12.708 100.627 13.6982 100.208 14.6902C100.188 14.7384 100.152 14.7826 100.161 14.8402L99.6162 14.8375Z" fill="#0B0B0B"></path>
    <path d="M58.2593 7.45257C58.2593 5.06858 58.2593 2.68458 58.2593 0.300588C58.2593 0.166656 58.2927 0.121119 58.4347 0.125137C58.949 0.142548 59.4647 0.0943323 59.9763 0.145227C61.0049 0.255051 61.7629 0.776047 62.1754 1.72831C63.4679 4.70696 64.7416 7.69499 66.0233 10.6803L66.8028 12.5032C66.8162 12.5326 66.8296 12.5621 66.8403 12.5915C66.8684 12.6679 66.9327 12.6518 66.989 12.6478C67.0452 12.6438 67.0412 12.5902 67.0425 12.55C67.0439 12.5099 67.0425 12.475 67.0425 12.4375C67.0425 8.82939 67.0394 5.2217 67.0332 1.61446C67.0332 1.16579 67.0332 0.715778 67.0251 0.267105C67.0251 0.151923 67.0586 0.125137 67.1698 0.133173C67.7417 0.133173 68.3149 0.133173 68.8881 0.133173C69.0221 0.133173 69.0555 0.166656 69.0555 0.300588C69.0555 3.02209 69.0555 5.74538 69.0555 8.47045C69.0555 10.5169 69.0555 12.5648 69.0555 14.6112C69.0555 14.7639 69.0113 14.7907 68.8707 14.7907C67.8475 14.7836 66.8247 14.7836 65.8023 14.7907C65.7536 14.7963 65.7046 14.7842 65.664 14.7567C65.6235 14.7291 65.5942 14.688 65.5813 14.6407C63.9108 10.7379 62.2384 6.83514 60.5642 2.93236C60.5415 2.88012 60.5415 2.80512 60.4557 2.79039C60.3071 2.76494 60.2749 2.79039 60.2749 2.95245C60.2749 6.82755 60.2749 10.7027 60.2749 14.5778C60.2749 14.8229 60.3084 14.7907 60.0647 14.7921C59.5129 14.7921 58.9611 14.7921 58.4093 14.7921C58.2753 14.7921 58.2539 14.7546 58.2539 14.6313C58.2584 12.2348 58.2602 9.84192 58.2593 7.45257Z" fill="#0B0B0B"></path>
    <path d="M49.2252 2.85082L45.6907 11.2644C45.7604 11.2644 45.8166 11.2725 45.8715 11.2725C47.2751 11.2725 48.6774 11.2805 50.081 11.2725C51.3105 11.2644 51.9159 12.1122 52.0967 13.031C52.1262 13.177 52.0471 13.1649 51.9628 13.1649H47.2992C46.5492 13.1649 45.7992 13.1649 45.0492 13.1649C45.0054 13.1587 44.9609 13.1689 44.9242 13.1937C44.8876 13.2184 44.8615 13.2559 44.851 13.2989C44.6688 13.7475 44.4719 14.1922 44.2911 14.6382C44.2799 14.686 44.2514 14.7279 44.2111 14.7558C44.1707 14.7838 44.1215 14.7958 44.0728 14.7895C43.4246 14.7895 42.7763 14.7895 42.1281 14.7895C41.9406 14.7895 41.9406 14.7895 42.0156 14.6114L44.9166 7.68979C45.9505 5.22543 46.9827 2.76063 48.0131 0.295389C48.022 0.24254 48.0509 0.195137 48.0938 0.162981C48.1366 0.130824 48.1902 0.116373 48.2435 0.122616C48.9024 0.130652 49.5614 0.129313 50.2203 0.122616C50.2642 0.116911 50.3086 0.127355 50.3453 0.151999C50.382 0.176643 50.4085 0.213804 50.4199 0.256548C52.419 5.02275 54.4204 9.78806 56.424 14.5525C56.4334 14.5726 56.4388 14.5927 56.4495 14.6114C56.5151 14.7293 56.5084 14.7802 56.3464 14.7788C55.6941 14.7708 55.0405 14.7788 54.3869 14.7788C54.3431 14.7842 54.2988 14.7737 54.2622 14.7491C54.2255 14.7245 54.199 14.6875 54.1874 14.6449C53.4588 12.9038 52.728 11.1627 51.9949 9.42153C51.0949 7.27862 50.1944 5.1357 49.2935 2.99278C49.2774 2.95662 49.26 2.92046 49.2252 2.85082Z" fill="#0B0B0B"></path>
    <path d="M16.8479 9.27601C16.8479 7.50186 16.8479 5.72726 16.8479 3.95221C16.8479 3.81828 16.8734 3.76068 17.0287 3.76336C17.543 3.77408 18.0569 3.77408 18.5703 3.76336C18.7122 3.76336 18.7457 3.79551 18.7457 3.93747C18.7457 6.85586 18.7457 9.77424 18.7377 12.6926C18.7377 12.86 18.7846 12.8895 18.9399 12.8895C20.4828 12.8815 22.0204 12.9042 23.5673 12.8748C24.9897 12.8466 26.2232 11.6613 26.3571 10.2443C26.3718 10.089 26.3785 9.93496 26.3785 9.7796V5.01697C26.3833 4.39769 26.1946 3.79236 25.8388 3.28549C25.483 2.77862 24.9777 2.39552 24.3937 2.18966C24.0712 2.07317 23.7307 2.01424 23.3878 2.01555C21.8449 2.01555 20.3025 2.01555 18.7605 2.01555C18.2787 2.02636 17.8112 1.85125 17.4551 1.52655C17.099 1.20185 16.8815 0.7525 16.8479 0.27175C16.8332 0.128442 16.9015 0.129782 17.0046 0.129782C18.6372 0.129782 20.2712 0.129782 21.9052 0.129782C22.536 0.129782 23.1682 0.11371 23.799 0.140496C24.8517 0.192335 25.8565 0.596458 26.652 1.28797C27.4475 1.97948 27.9875 2.91826 28.1853 3.95355C28.2399 4.25314 28.2673 4.55707 28.267 4.86161C28.267 6.56121 28.2603 8.26081 28.267 9.96041C28.2846 10.5932 28.1732 11.223 27.9395 11.8113C27.7058 12.3997 27.3547 12.9342 26.9076 13.3824C26.1772 14.1338 25.2125 14.6138 24.1727 14.7431C23.939 14.7717 23.7036 14.7842 23.4682 14.7806C21.3199 14.7806 19.1721 14.7806 17.0247 14.7806C16.8801 14.7806 16.8385 14.7471 16.8399 14.5971C16.8452 12.8248 16.8479 11.0511 16.8479 9.27601Z" fill="#0B0B0B"></path>
    <path d="M85.6329 7.46058C85.6329 5.07659 85.6329 2.69259 85.6329 0.308599C85.6303 0.161273 85.6691 0.121094 85.8218 0.121094C88.7933 0.126451 91.7652 0.126451 94.7377 0.121094C94.9519 0.121094 94.9519 0.121094 94.9278 0.334046C94.8767 0.796403 94.6555 1.22324 94.3073 1.53165C93.959 1.84005 93.5086 2.00799 93.0434 2.00284C91.7161 2.00284 90.3875 2.00284 89.0603 2.00284C88.5942 2.00284 88.1227 2.00284 87.662 2.00284C87.5575 2.00284 87.5281 2.03097 87.5281 2.13677C87.5281 3.84218 87.5281 5.54714 87.5281 7.25165C87.5281 7.40031 87.6098 7.38558 87.7009 7.38558C89.5491 7.38558 91.396 7.38558 93.2443 7.38558C93.3997 7.38558 93.4385 7.42174 93.4358 7.5771C93.4251 8.09006 93.4264 8.60302 93.4358 9.11598C93.4358 9.24992 93.401 9.27536 93.2751 9.27536C91.4282 9.27536 89.5799 9.27536 87.733 9.27536C87.575 9.27536 87.5267 9.30884 87.5281 9.47492C87.5379 10.5464 87.5379 11.6205 87.5281 12.6973C87.5281 12.8688 87.5803 12.8942 87.733 12.8942C89.9938 12.8942 92.2532 12.8942 94.5126 12.8942C94.5662 12.8852 94.6213 12.8967 94.6667 12.9265C94.7121 12.9563 94.7447 13.0022 94.7577 13.0549C94.96 13.5907 95.1729 14.117 95.3912 14.6447C95.4435 14.7786 95.4127 14.792 95.2854 14.792C92.1202 14.792 88.9554 14.792 85.791 14.792C85.6463 14.792 85.6436 14.7304 85.6436 14.6233C85.6383 12.2321 85.6347 9.84457 85.6329 7.46058Z" fill="#0B0B0B"></path>
    <path d="M111.23 2.87682C110.978 3.47684 110.727 4.07685 110.476 4.67687C109.078 8.00553 107.68 11.3346 106.283 14.6642C106.271 14.704 106.245 14.7381 106.21 14.7605C106.175 14.7829 106.134 14.792 106.092 14.7861C105.446 14.7861 104.797 14.7861 104.149 14.7861C103.956 14.7861 103.956 14.7861 104.03 14.6106C105.369 11.4186 106.709 8.22741 108.048 5.03715C108.712 3.45228 109.376 1.86831 110.041 0.285233C110.05 0.234217 110.079 0.188855 110.121 0.158646C110.164 0.128437 110.216 0.115726 110.267 0.123175C110.921 0.128532 111.574 0.128532 112.227 0.123175C112.273 0.116703 112.32 0.127436 112.359 0.153347C112.398 0.179258 112.426 0.218552 112.438 0.263804C114.325 4.76393 116.215 9.2636 118.108 13.7628C118.228 14.0481 118.341 14.3361 118.47 14.6173C118.539 14.7633 118.492 14.778 118.355 14.7767C117.709 14.7713 117.061 14.7713 116.412 14.7767C116.366 14.7838 116.32 14.7741 116.281 14.7495C116.242 14.7249 116.213 14.6869 116.2 14.6428C115.634 13.2847 115.065 11.9271 114.493 10.5699C113.432 8.04839 112.372 5.526 111.312 3.00272C111.293 2.95986 111.29 2.90763 111.23 2.87682Z" fill="#0B0B0B"></path>
    <path d="M36.5535 12.0649C37.2071 10.4965 37.8566 8.96302 38.5035 7.41878C39.2661 5.60445 40.0286 3.79011 40.7911 1.97578C41.0356 1.40626 41.4471 0.924322 41.9713 0.593609C42.4954 0.262896 43.1076 0.0989726 43.7269 0.123493C43.8876 0.123493 43.8032 0.20787 43.7805 0.257425C43.4581 1.02977 43.1345 1.80211 42.8095 2.57445C41.1273 6.59242 39.4464 10.6064 37.7669 14.6163C37.7542 14.6665 37.7234 14.7103 37.6804 14.7393C37.6374 14.7682 37.5852 14.7802 37.5339 14.773C36.8856 14.765 36.2374 14.773 35.5892 14.773C35.5357 14.7811 35.4811 14.7692 35.4359 14.7395C35.3907 14.7098 35.358 14.6645 35.3441 14.6123C33.5503 10.347 31.7529 6.07857 29.952 1.80702C29.7363 1.2954 29.5234 0.783778 29.3037 0.274836C29.2555 0.163672 29.2662 0.12885 29.3961 0.12885C30.0658 0.134207 30.7355 0.134207 31.4051 0.12885C31.4468 0.124935 31.4884 0.136392 31.5222 0.161062C31.556 0.185732 31.5796 0.221911 31.5886 0.262782C32.7886 3.12447 33.9918 5.98615 35.1981 8.84784C35.6285 9.86929 36.0579 10.8921 36.4865 11.9162C36.4986 11.9591 36.5213 12.0006 36.5535 12.0649Z" fill="#0B0B0B"></path>
    <path d="M79.4706 14.777C78.4099 14.777 77.3492 14.8024 76.2897 14.777C74.2419 14.718 72.4057 13.1845 71.9503 11.1876C71.8629 10.813 71.818 10.4298 71.8164 10.0452C71.8164 8.29153 71.8164 6.53836 71.8164 4.78563C71.8306 3.69477 72.2229 2.64263 72.9263 1.80875C73.6298 0.974873 74.6008 0.410941 75.6737 0.213185C75.9904 0.159016 76.3113 0.132131 76.6326 0.132826C78.6568 0.132826 80.6809 0.132826 82.7051 0.132826C82.8645 0.132826 82.8872 0.185059 82.8752 0.324349C82.8296 0.783862 82.6166 1.21056 82.2767 1.52321C81.9369 1.83587 81.494 2.01266 81.0323 2.01993C79.6032 2.01993 78.1728 2.00922 76.7465 2.01993C75.5491 2.03065 74.6477 2.56905 74.0678 3.61774C73.8421 4.02783 73.7254 4.48898 73.729 4.95707C73.729 6.62407 73.729 8.29153 73.729 9.95943C73.7396 10.6664 74.0015 11.3465 74.4677 11.878C74.934 12.4095 75.5741 12.7578 76.2737 12.8604C76.4326 12.8814 76.5928 12.8917 76.7532 12.8912C78.7407 12.8912 80.7269 12.8912 82.7131 12.8912C82.8578 12.8912 82.8899 12.9274 82.8886 13.0667C82.8797 13.5845 82.8797 14.1029 82.8886 14.6216C82.8886 14.7555 82.8618 14.7904 82.7252 14.7904C81.643 14.7904 80.5608 14.7904 79.48 14.7904L79.4706 14.777Z" fill="#0B0B0B"></path>
    <path d="M121.766 14.7819C121.444 14.7819 121.123 14.7712 120.803 14.7819C120.743 14.7919 120.683 14.7787 120.633 14.745C120.583 14.7114 120.548 14.6598 120.535 14.6011C119.268 11.5367 117.994 8.471 116.712 5.40395C116.003 3.69498 115.291 1.98645 114.579 0.278366C114.529 0.157827 114.536 0.129701 114.674 0.131041C115.322 0.131041 115.97 0.131041 116.617 0.131041C116.671 0.123563 116.726 0.135879 116.771 0.165694C116.816 0.195509 116.849 0.240789 116.864 0.293099C118.771 4.84679 120.68 9.39513 122.592 13.9381C122.694 14.1792 122.789 14.4216 122.896 14.66C122.943 14.7658 122.914 14.7859 122.81 14.7846C122.462 14.7792 122.117 14.7819 121.766 14.7819Z" fill="#0B0B0B"></path>
    <path d="M109.605 14.7793L110.12 13.5739C110.388 12.9324 110.666 12.2895 110.935 11.6467C110.944 11.6054 110.968 11.5688 111.002 11.5441C111.036 11.5193 111.078 11.5082 111.12 11.5127C111.491 11.5127 111.493 11.5127 111.64 11.8596C112.032 12.7811 112.423 13.7025 112.82 14.6226C112.873 14.7485 112.861 14.782 112.717 14.7807C111.689 14.778 110.664 14.7793 109.605 14.7793Z" fill="#0B0B0B"></path>
    <path d="M9.55399 14.7736H6.30078C6.33917 14.6349 6.39121 14.5003 6.45614 14.3718C6.84187 13.4598 7.23161 12.5477 7.61466 11.6343C7.62674 11.5945 7.65276 11.5604 7.68794 11.5383C7.72311 11.5161 7.7651 11.5074 7.80618 11.5137C8.17449 11.5137 8.17315 11.5137 8.3178 11.8512C8.7062 12.77 9.09327 13.6874 9.47899 14.6035L9.55399 14.7736Z" fill="#0B0B0B"></path>
  </g>
  <defs>
    <clipPath id="clip0_3551_4181">
      <rect width="122.277" height="14.7151" fill="white" transform="translate(0.644531 0.125)"></rect>
    </clipPath>
  </defs>
</svg>
