<?xml version="1.0" encoding="UTF-8"?>
<svg xmlns="http://www.w3.org/2000/svg" width="46" height="28" viewBox="0 0 46 28" fill="none">
  <path d="M33.9855 19.6554H11.8945L22.9371 0.523438C26.6286 6.91819 30.2998 13.2693 33.9855 19.6554ZM32.0438 18.545L22.9371 2.78195L13.8391 18.545H32.0438Z" fill="url(#paint0_linear_3551_4614)"></path>
  <path d="M20.9971 8.43718L22.9446 5.0625L30.0747 17.4073H28.758C26.8202 14.0607 24.8824 10.6996 22.9446 7.32392L22.3022 8.44009L27.4674 17.4044H20.9971L19.0438 14.0587L17.759 16.2853H19.0408L19.689 17.4015H15.8086L19.0438 11.8002L21.6394 16.2882H25.517L20.9971 8.43718Z" fill="url(#paint1_linear_3551_4614)"></path>
  <path d="M23.5893 15.1773H22.2871L19.6914 10.6981L20.3454 9.57031C21.4325 11.4451 22.4964 13.2822 23.5893 15.1773Z" fill="url(#paint2_linear_3551_4614)"></path>
  <path d="M31.884 25.8944V27.0413H31.7109V25.8944H31.884Z" fill="url(#paint3_linear_3551_4614)"></path>
  <path d="M32.4791 27.0413V25.8164L33.3155 26.6915V25.8944H33.4886V27.1112L32.6522 26.2383V27.0413H32.4791Z" fill="url(#paint4_linear_3551_4614)"></path>
  <path d="M34.0836 27.0413V25.8944H34.3243C34.4397 25.8944 34.5308 25.9058 34.5977 25.9286C34.6695 25.9509 34.7346 25.9887 34.793 26.0422C34.9114 26.1502 34.9706 26.2921 34.9706 26.4679C34.9706 26.6442 34.9089 26.7868 34.7856 26.8957C34.7237 26.9502 34.6588 26.9881 34.591 27.0094C34.5276 27.0307 34.4377 27.0413 34.3213 27.0413H34.0836ZM34.2567 26.8786H34.3347C34.4125 26.8786 34.4771 26.8705 34.5286 26.8541C34.5801 26.8368 34.6266 26.8093 34.6682 26.7717C34.7534 26.6939 34.796 26.5927 34.796 26.4679C34.796 26.3421 34.7539 26.2401 34.6697 26.1618C34.594 26.092 34.4823 26.0571 34.3347 26.0571H34.2567V26.8786Z" fill="url(#paint5_linear_3551_4614)"></path>
  <path d="M35.4512 26.4627C35.4512 26.3012 35.5104 26.1626 35.6288 26.0467C35.7466 25.9308 35.8883 25.8729 36.0537 25.8729C36.2171 25.8729 36.3572 25.9313 36.4741 26.0482C36.5915 26.165 36.6502 26.3054 36.6502 26.4694C36.6502 26.6343 36.5912 26.7742 36.4734 26.889C36.355 27.0044 36.2121 27.0621 36.0448 27.0621C35.8967 27.0621 35.7637 27.0109 35.6459 26.9084C35.5161 26.795 35.4512 26.6464 35.4512 26.4627ZM35.6258 26.4649C35.6258 26.5917 35.6684 26.6959 35.7536 26.7776C35.8383 26.8593 35.9361 26.9002 36.047 26.9002C36.1673 26.9002 36.2689 26.8586 36.3516 26.7754C36.4343 26.6912 36.4756 26.5887 36.4756 26.4679C36.4756 26.3455 36.4347 26.243 36.353 26.1603C36.2718 26.0771 36.1713 26.0355 36.0515 26.0355C35.9321 26.0355 35.8313 26.0771 35.7491 26.1603C35.6669 26.2425 35.6258 26.3441 35.6258 26.4649Z" fill="url(#paint6_linear_3551_4614)"></path>
  <path d="M37.1873 27.0413V25.8164L38.0237 26.6915V25.8944H38.1968V27.1112L37.3604 26.2383V27.0413H37.1873Z" fill="url(#paint7_linear_3551_4614)"></path>
  <path d="M39.4247 26.0571H38.9649V26.3327H39.4114V26.4953H38.9649V26.8786H39.4247V27.0413H38.7919V25.8944H39.4247V26.0571Z" fill="url(#paint8_linear_3551_4614)"></path>
  <path d="M40.62 26.0653L40.4796 26.1484C40.4534 26.1029 40.4284 26.0732 40.4046 26.0593C40.3798 26.0435 40.3479 26.0355 40.3088 26.0355C40.2607 26.0355 40.2209 26.0492 40.1892 26.0764C40.1575 26.1031 40.1416 26.1368 40.1416 26.1774C40.1416 26.2334 40.1832 26.2784 40.2664 26.3126L40.3808 26.3594C40.4739 26.397 40.542 26.4431 40.5851 26.4976C40.6282 26.5516 40.6497 26.6179 40.6497 26.6967C40.6497 26.8021 40.6146 26.8893 40.5442 26.9581C40.4734 27.0275 40.3855 27.0621 40.2805 27.0621C40.181 27.0621 40.0988 27.0327 40.0339 26.9737C39.97 26.9148 39.9302 26.8318 39.9143 26.7249L40.0896 26.6863C40.0976 26.7536 40.1114 26.8002 40.1312 26.8259C40.1669 26.8754 40.2189 26.9002 40.2872 26.9002C40.3412 26.9002 40.386 26.8821 40.4217 26.846C40.4573 26.8098 40.4752 26.764 40.4752 26.7085C40.4752 26.6863 40.4719 26.666 40.4655 26.6476C40.4596 26.6288 40.4499 26.6117 40.4365 26.5964C40.4237 26.5805 40.4068 26.5659 40.386 26.5525C40.3652 26.5387 40.3405 26.5256 40.3117 26.5132L40.2011 26.4671C40.0441 26.4008 39.9656 26.3037 39.9656 26.1759C39.9656 26.0898 39.9985 26.0177 40.0644 25.9598C40.1302 25.9013 40.2122 25.8721 40.3103 25.8721C40.4425 25.8721 40.5457 25.9365 40.62 26.0653Z" fill="url(#paint9_linear_3551_4614)"></path>
  <path d="M41.351 25.8944V27.0413H41.1779V25.8944H41.351Z" fill="url(#paint10_linear_3551_4614)"></path>
  <path d="M42.6198 26.7628H42.1288L42.001 27.0413H41.8146L42.3821 25.8223L42.9296 27.0413H42.7402L42.6198 26.7628ZM42.5492 26.6001L42.3791 26.2101L42.2009 26.6001H42.5492Z" fill="url(#paint11_linear_3551_4614)"></path>
  <path d="M17.1272 26.5265C17.1272 26.5874 17.103 26.6458 17.06 26.6889C17.0169 26.7319 16.9585 26.7561 16.8976 26.7561C16.8367 26.7561 16.7783 26.7319 16.7352 26.6889C16.6922 26.6458 16.668 26.5874 16.668 26.5265C16.668 26.4963 16.6739 26.4665 16.6854 26.4386C16.697 26.4108 16.7139 26.3855 16.7352 26.3641C16.7565 26.3428 16.7819 26.3259 16.8097 26.3144C16.8376 26.3028 16.8674 26.2969 16.8976 26.2969C16.9278 26.2969 16.9576 26.3028 16.9855 26.3144C17.0133 26.3259 17.0386 26.3428 17.06 26.3641C17.0813 26.3855 17.0982 26.4108 17.1097 26.4386C17.1213 26.4665 17.1272 26.4963 17.1272 26.5265Z" fill="url(#paint12_linear_3551_4614)"></path>
  <path d="M29.375 26.4967C29.3547 26.6479 29.2878 26.7438 29.1308 26.7467C29.1019 26.7491 29.0728 26.7456 29.0452 26.7364C29.0176 26.7272 28.9922 26.7125 28.9705 26.6932C28.9487 26.6739 28.9312 26.6504 28.9187 26.6242C28.9063 26.5979 28.8994 26.5694 28.8983 26.5403C28.8923 26.5084 28.8935 26.4755 28.9017 26.444C28.9099 26.4125 28.9249 26.3832 28.9457 26.3582C28.9666 26.3332 28.9926 26.3131 29.0221 26.2994C29.0516 26.2857 29.0838 26.2786 29.1163 26.2787C29.2675 26.2642 29.3401 26.3659 29.375 26.4967Z" fill="url(#paint13_linear_3551_4614)"></path>
  <path d="M4.61 25.9141V27.0767C4.42688 26.943 4.42688 26.1902 4.61 25.9141Z" fill="url(#paint14_linear_3551_4614)"></path>
  <line x1="0.109375" y1="25.0914" x2="45.2791" y2="25.0914" stroke="url(#paint15_linear_3551_4614)" stroke-width="0.145335"></line>
  <path d="M1.55468 23.4114H0.856773L0.67517 23.8074H0.410156L1.21681 22.0747L1.99496 23.8074H1.72572L1.55468 23.4114ZM1.45437 23.1802L1.21259 22.6259L0.959189 23.1802H1.45437Z" fill="url(#paint16_linear_3551_4614)"></path>
  <path d="M3.2729 22.42L3.07334 22.5383C3.03604 22.4735 3.00049 22.4313 2.96671 22.4116C2.93151 22.389 2.88611 22.3778 2.8305 22.3778C2.76223 22.3778 2.70556 22.3971 2.66051 22.4358C2.61546 22.4739 2.59294 22.5217 2.59294 22.5794C2.59294 22.659 2.65207 22.723 2.77032 22.7716L2.93292 22.8381C3.06525 22.8916 3.16203 22.9571 3.22327 23.0345C3.28451 23.1112 3.31513 23.2055 3.31513 23.3175C3.31513 23.4674 3.26515 23.5913 3.1652 23.6891C3.06455 23.7877 2.93961 23.8369 2.79038 23.8369C2.6489 23.8369 2.53205 23.7951 2.43985 23.7113C2.34904 23.6275 2.29238 23.5096 2.26986 23.3576L2.51903 23.3027C2.53029 23.3984 2.55 23.4646 2.57816 23.5012C2.62884 23.5716 2.70275 23.6068 2.79988 23.6068C2.87661 23.6068 2.94031 23.5811 2.99099 23.5297C3.04167 23.4783 3.06701 23.4132 3.06701 23.3344C3.06701 23.3027 3.06243 23.2738 3.05328 23.2478C3.04484 23.221 3.03111 23.1967 3.01211 23.1749C2.9938 23.1524 2.96987 23.1316 2.94031 23.1126C2.91075 23.0929 2.87555 23.0743 2.83473 23.0567L2.67741 22.9912C2.45427 22.8969 2.34271 22.7589 2.34271 22.5773C2.34271 22.4548 2.38952 22.3524 2.48313 22.2701C2.57675 22.187 2.69324 22.1455 2.83261 22.1455C3.02055 22.1455 3.16731 22.237 3.2729 22.42Z" fill="url(#paint17_linear_3551_4614)"></path>
  <path d="M4.68492 22.42L4.48537 22.5383C4.44807 22.4735 4.41252 22.4313 4.37873 22.4116C4.34354 22.389 4.29814 22.3778 4.24253 22.3778C4.17425 22.3778 4.11759 22.3971 4.07254 22.4358C4.02749 22.4739 4.00497 22.5217 4.00497 22.5794C4.00497 22.659 4.06409 22.723 4.18235 22.7716L4.34495 22.8381C4.47728 22.8916 4.57406 22.9571 4.6353 23.0345C4.69654 23.1112 4.72716 23.2055 4.72716 23.3175C4.72716 23.4674 4.67718 23.5913 4.57723 23.6891C4.47657 23.7877 4.35163 23.8369 4.20241 23.8369C4.06093 23.8369 3.94408 23.7951 3.85187 23.7113C3.76107 23.6275 3.70441 23.5096 3.68188 23.3576L3.93106 23.3027C3.94232 23.3984 3.96203 23.4646 3.99019 23.5012C4.04087 23.5716 4.11477 23.6068 4.21191 23.6068C4.28863 23.6068 4.35234 23.5811 4.40302 23.5297C4.4537 23.4783 4.47904 23.4132 4.47904 23.3344C4.47904 23.3027 4.47446 23.2738 4.46531 23.2478C4.45686 23.221 4.44314 23.1967 4.42413 23.1749C4.40583 23.1524 4.3819 23.1316 4.35234 23.1126C4.32277 23.0929 4.28758 23.0743 4.24675 23.0567L4.08943 22.9912C3.8663 22.8969 3.75474 22.7589 3.75474 22.5773C3.75474 22.4548 3.80154 22.3524 3.89516 22.2701C3.98878 22.187 4.10527 22.1455 4.24464 22.1455C4.43258 22.1455 4.57934 22.237 4.68492 22.42Z" fill="url(#paint18_linear_3551_4614)"></path>
  <path d="M6.07478 22.4084H5.42122V22.8001H6.05577V23.0313H5.42122V23.5761H6.07478V23.8074H5.17521V22.1772H6.07478V22.4084Z" fill="url(#paint19_linear_3551_4614)"></path>
  <path d="M6.99901 22.4084V23.8074H6.753V22.4084H6.37818V22.1772H7.37278V22.4084H6.99901Z" fill="url(#paint20_linear_3551_4614)"></path>
  <path d="M8.50539 23.8074L8.84853 22.0547L9.40812 23.3217L9.98777 22.0547L10.2961 23.8074H10.0437L9.88642 22.8233L9.4039 23.8823L8.93511 22.8223L8.75984 23.8074H8.50539Z" fill="url(#paint21_linear_3551_4614)"></path>
  <path d="M11.7514 23.4114H11.0535L10.8719 23.8074H10.6069L11.4135 22.0747L12.1917 23.8074H11.9224L11.7514 23.4114ZM11.6511 23.1802L11.4093 22.6259L11.1559 23.1802H11.6511Z" fill="url(#paint22_linear_3551_4614)"></path>
  <path d="M12.5479 23.8074V22.0663L13.7367 23.3101V22.1772H13.9827V23.9066L12.7939 22.666V23.8074H12.5479Z" fill="url(#paint23_linear_3551_4614)"></path>
  <path d="M15.4961 23.4114H14.7982L14.6166 23.8074H14.3516L15.1583 22.0747L15.9364 23.8074H15.6672L15.4961 23.4114ZM15.3958 23.1802L15.154 22.6259L14.9006 23.1802H15.3958Z" fill="url(#paint24_linear_3551_4614)"></path>
  <path d="M17.057 22.9585H17.7307V23.0123C17.7307 23.1348 17.7162 23.2432 17.6874 23.3375C17.6592 23.4248 17.6117 23.5065 17.5448 23.5825C17.3935 23.7528 17.201 23.838 16.9673 23.838C16.7392 23.838 16.5439 23.7556 16.3813 23.5909C16.2187 23.4255 16.1374 23.227 16.1374 22.9954C16.1374 22.7589 16.2201 22.5583 16.3855 22.3936C16.5509 22.2282 16.7523 22.1455 16.9895 22.1455C17.1169 22.1455 17.2358 22.1715 17.3463 22.2236C17.4519 22.2757 17.5557 22.3602 17.6578 22.477L17.4825 22.6449C17.3488 22.4668 17.1858 22.3778 16.9937 22.3778C16.8212 22.3778 16.6766 22.4373 16.5597 22.5562C16.4429 22.6731 16.3845 22.8195 16.3845 22.9954C16.3845 23.177 16.4496 23.3266 16.5798 23.4442C16.7016 23.5533 16.8335 23.6078 16.9757 23.6078C17.0968 23.6078 17.2056 23.567 17.302 23.4853C17.3984 23.403 17.4523 23.3044 17.4635 23.1897H17.057V22.9585Z" fill="url(#paint25_linear_3551_4614)"></path>
  <path d="M19.092 22.4084H18.4384V22.8001H19.073V23.0313H18.4384V23.5761H19.092V23.8074H18.1924V22.1772H19.092V22.4084Z" fill="url(#paint26_linear_3551_4614)"></path>
  <path d="M19.5094 23.8074L19.8526 22.0547L20.4122 23.3217L20.9918 22.0547L21.3001 23.8074H21.0478L20.8905 22.8233L20.4079 23.8823L19.9392 22.8223L19.7639 23.8074H19.5094Z" fill="url(#paint27_linear_3551_4614)"></path>
  <path d="M22.6974 22.4084H22.0438V22.8001H22.6784V23.0313H22.0438V23.5761H22.6974V23.8074H21.7978V22.1772H22.6974V22.4084Z" fill="url(#paint28_linear_3551_4614)"></path>
  <path d="M23.1718 23.8074V22.0663L24.3607 23.3101V22.1772H24.6067V23.9066L23.4178 22.666V23.8074H23.1718Z" fill="url(#paint29_linear_3551_4614)"></path>
  <path d="M25.5996 22.4084V23.8074H25.3535V22.4084H24.9787V22.1772H25.9733V22.4084H25.5996Z" fill="url(#paint30_linear_3551_4614)"></path>
  <path d="M27.1629 23.8074V22.1772H27.505C27.669 22.1772 27.7986 22.1934 27.8936 22.2257C27.9956 22.2574 28.0882 22.3113 28.1713 22.3873C28.3395 22.5407 28.4236 22.7424 28.4236 22.9923C28.4236 23.2429 28.336 23.4456 28.1607 23.6004C28.0727 23.6779 27.9805 23.7317 27.8841 23.762C27.794 23.7922 27.6662 23.8074 27.5008 23.8074H27.1629ZM27.409 23.5761H27.5198C27.6303 23.5761 27.7222 23.5645 27.7954 23.5413C27.8686 23.5167 27.9348 23.4776 27.9939 23.4241C28.115 23.3136 28.1755 23.1696 28.1755 22.9923C28.1755 22.8135 28.1157 22.6685 27.996 22.5573C27.8883 22.458 27.7296 22.4084 27.5198 22.4084H27.409V23.5761Z" fill="url(#paint31_linear_3551_4614)"></path>
  <path d="M29.1314 22.1772V23.8074H28.8854V22.1772H29.1314Z" fill="url(#paint32_linear_3551_4614)"></path>
  <path d="M30.5128 22.9585H31.1864V23.0123C31.1864 23.1348 31.172 23.2432 31.1431 23.3375C31.115 23.4248 31.0675 23.5065 31.0006 23.5825C30.8493 23.7528 30.6568 23.838 30.4231 23.838C30.195 23.838 29.9997 23.7556 29.8371 23.5909C29.6745 23.4255 29.5932 23.227 29.5932 22.9954C29.5932 22.7589 29.6759 22.5583 29.8413 22.3936C30.0067 22.2282 30.208 22.1455 30.4452 22.1455C30.5726 22.1455 30.6916 22.1715 30.8021 22.2236C30.9077 22.2757 31.0115 22.3602 31.1136 22.477L30.9383 22.6449C30.8046 22.4668 30.6416 22.3778 30.4495 22.3778C30.277 22.3778 30.1324 22.4373 30.0155 22.5562C29.8987 22.6731 29.8402 22.8195 29.8402 22.9954C29.8402 23.177 29.9054 23.3266 30.0356 23.4442C30.1573 23.5533 30.2893 23.6078 30.4315 23.6078C30.5526 23.6078 30.6613 23.567 30.7578 23.4853C30.8542 23.403 30.908 23.3044 30.9193 23.1897H30.5128V22.9585Z" fill="url(#paint33_linear_3551_4614)"></path>
  <path d="M31.8942 22.1772V23.8074H31.6482V22.1772H31.8942Z" fill="url(#paint34_linear_3551_4614)"></path>
  <path d="M32.8871 22.4084V23.8074H32.6411V22.4084H32.2662V22.1772H33.2608V22.4084H32.8871Z" fill="url(#paint35_linear_3551_4614)"></path>
  <path d="M34.5008 23.4114H33.8029L33.6213 23.8074H33.3562L34.1629 22.0747L34.941 23.8074H34.6718L34.5008 23.4114ZM34.4005 23.1802L34.1587 22.6259L33.9053 23.1802H34.4005Z" fill="url(#paint36_linear_3551_4614)"></path>
  <path d="M35.5433 22.1772V23.5761H36.0226V23.8074H35.2972V22.1772H35.5433Z" fill="url(#paint37_linear_3551_4614)"></path>
  <path d="M38.0643 22.9585H38.7379V23.0123C38.7379 23.1348 38.7235 23.2432 38.6946 23.3375C38.6665 23.4248 38.6189 23.5065 38.5521 23.5825C38.4007 23.7528 38.2082 23.838 37.9745 23.838C37.7465 23.838 37.5511 23.7556 37.3885 23.5909C37.226 23.4255 37.1447 23.227 37.1447 22.9954C37.1447 22.7589 37.2274 22.5583 37.3928 22.3936C37.5582 22.2282 37.7595 22.1455 37.9967 22.1455C38.1241 22.1455 38.2431 22.1715 38.3536 22.2236C38.4592 22.2757 38.563 22.3602 38.6651 22.477L38.4898 22.6449C38.356 22.4668 38.1931 22.3778 38.0009 22.3778C37.8285 22.3778 37.6838 22.4373 37.567 22.5562C37.4501 22.6731 37.3917 22.8195 37.3917 22.9954C37.3917 23.177 37.4568 23.3266 37.587 23.4442C37.7088 23.5533 37.8408 23.6078 37.983 23.6078C38.1041 23.6078 38.2128 23.567 38.3092 23.4853C38.4057 23.403 38.4595 23.3044 38.4708 23.1897H38.0643V22.9585Z" fill="url(#paint38_linear_3551_4614)"></path>
  <path d="M39.7519 23.1126L40.2566 23.8074H39.9557L39.49 23.1401H39.4457V23.8074H39.1997V22.1772H39.4879C39.7033 22.1772 39.8589 22.2176 39.9546 22.2986C40.0602 22.3887 40.113 22.5076 40.113 22.6555C40.113 22.7709 40.0799 22.8701 40.0137 22.9532C39.9476 23.0363 39.8603 23.0894 39.7519 23.1126ZM39.4457 22.9257H39.5238C39.7568 22.9257 39.8733 22.8367 39.8733 22.6586C39.8733 22.4918 39.76 22.4084 39.5333 22.4084H39.4457V22.9257Z" fill="url(#paint39_linear_3551_4614)"></path>
  <path d="M40.5346 22.9849C40.5346 22.7554 40.6188 22.5583 40.787 22.3936C40.9545 22.2289 41.1558 22.1465 41.3909 22.1465C41.6232 22.1465 41.8224 22.2296 41.9885 22.3957C42.1553 22.5618 42.2387 22.7614 42.2387 22.9944C42.2387 23.2288 42.155 23.4276 41.9875 23.5909C41.8192 23.7549 41.6162 23.8369 41.3782 23.8369C41.1678 23.8369 40.9788 23.7641 40.8113 23.6184C40.6268 23.4572 40.5346 23.246 40.5346 22.9849ZM40.7828 22.988C40.7828 23.1682 40.8433 23.3164 40.9644 23.4325C41.0847 23.5487 41.2237 23.6068 41.3814 23.6068C41.5525 23.6068 41.6968 23.5476 41.8143 23.4294C41.9319 23.3097 41.9906 23.164 41.9906 22.9923C41.9906 22.8184 41.9326 22.6727 41.8164 22.5552C41.701 22.4369 41.5581 22.3778 41.3877 22.3778C41.2181 22.3778 41.0749 22.4369 40.958 22.5552C40.8412 22.672 40.7828 22.8163 40.7828 22.988Z" fill="url(#paint40_linear_3551_4614)"></path>
  <path d="M42.9455 22.1772V23.1591C42.9455 23.2992 42.9684 23.4016 43.0141 23.4663C43.0824 23.56 43.1785 23.6068 43.3024 23.6068C43.4269 23.6068 43.5234 23.56 43.5916 23.4663C43.6374 23.4037 43.6603 23.3013 43.6603 23.1591V22.1772H43.9063V23.2267C43.9063 23.3984 43.8528 23.5399 43.7458 23.6511C43.6254 23.775 43.4776 23.8369 43.3024 23.8369C43.1271 23.8369 42.9796 23.775 42.86 23.6511C42.753 23.5399 42.6995 23.3984 42.6995 23.2267V22.1772H42.9455Z" fill="url(#paint41_linear_3551_4614)"></path>
  <path d="M44.6954 23.1454V23.8074H44.4494V22.1772H44.7281C44.8647 22.1772 44.9678 22.1867 45.0375 22.2057C45.1079 22.2247 45.1698 22.2606 45.2233 22.3134C45.3169 22.4049 45.3637 22.5203 45.3637 22.6597C45.3637 22.8089 45.3137 22.9272 45.2138 23.0144C45.1138 23.1017 44.979 23.1454 44.8094 23.1454H44.6954ZM44.6954 22.9173H44.7872C45.0132 22.9173 45.1262 22.8304 45.1262 22.6565C45.1262 22.4883 45.0097 22.4042 44.7767 22.4042H44.6954V22.9173Z" fill="url(#paint42_linear_3551_4614)"></path>
  <path d="M3.90116 26.0652L3.76077 26.1484C3.73452 26.1028 3.70952 26.0731 3.68575 26.0592C3.66098 26.0434 3.62904 26.0354 3.58992 26.0354C3.54188 26.0354 3.50202 26.0491 3.47033 26.0763C3.43863 26.103 3.42278 26.1367 3.42278 26.1773C3.42278 26.2333 3.46438 26.2783 3.54758 26.3125L3.66197 26.3593C3.75508 26.397 3.82317 26.443 3.86625 26.4975C3.90934 26.5515 3.93088 26.6178 3.93088 26.6966C3.93088 26.802 3.89572 26.8892 3.8254 26.958C3.75458 27.0274 3.66668 27.062 3.56169 27.062C3.46215 27.062 3.37995 27.0326 3.31507 26.9736C3.25119 26.9147 3.21133 26.8318 3.19548 26.7248L3.37079 26.6862C3.37871 26.7535 3.39258 26.8001 3.41239 26.8258C3.44804 26.8753 3.50004 26.9001 3.56838 26.9001C3.62236 26.9001 3.66717 26.882 3.70283 26.8459C3.73849 26.8097 3.75631 26.7639 3.75631 26.7084C3.75631 26.6862 3.75309 26.6659 3.74666 26.6475C3.74071 26.6287 3.73106 26.6116 3.71769 26.5963C3.70481 26.5804 3.68797 26.5658 3.66717 26.5525C3.64638 26.5386 3.62161 26.5255 3.59289 26.5131L3.48221 26.467C3.32523 26.4007 3.24674 26.3036 3.24674 26.1758C3.24674 26.0897 3.27967 26.0176 3.34553 25.9597C3.41139 25.9012 3.49335 25.872 3.59141 25.872C3.72363 25.872 3.82688 25.9364 3.90116 26.0652Z" fill="url(#paint43_linear_3551_4614)"></path>
  <path d="M4.63217 25.8943V27.0412H4.45909V25.8943H4.63217Z" fill="url(#paint44_linear_3551_4614)"></path>
  <path d="M5.22723 27.0412V25.8163L6.06365 26.6914V25.8943H6.23673V27.1111L5.40031 26.2382V27.0412H5.22723Z" fill="url(#paint45_linear_3551_4614)"></path>
  <path d="M7.43348 26.444H7.90741V26.4819C7.90741 26.568 7.89725 26.6443 7.87695 26.7107C7.85714 26.7721 7.82371 26.8295 7.77667 26.883C7.6702 27.0029 7.53475 27.0628 7.37034 27.0628C7.20989 27.0628 7.07247 27.0048 6.95807 26.889C6.84368 26.7726 6.78648 26.6329 6.78648 26.47C6.78648 26.3036 6.84467 26.1625 6.96104 26.0466C7.07742 25.9302 7.21905 25.872 7.38594 25.872C7.47558 25.872 7.55927 25.8903 7.63702 25.927C7.7113 25.9636 7.78434 26.0231 7.85615 26.1053L7.73284 26.2234C7.63875 26.0981 7.52411 26.0354 7.38891 26.0354C7.26758 26.0354 7.16582 26.0773 7.08361 26.161C7.00141 26.2432 6.9603 26.3462 6.9603 26.47C6.9603 26.5978 7.00611 26.703 7.09772 26.7857C7.1834 26.8625 7.27625 26.9008 7.37629 26.9008C7.46146 26.9008 7.53797 26.8721 7.60582 26.8147C7.67366 26.7567 7.71155 26.6874 7.71947 26.6067H7.43348V26.444Z" fill="url(#paint46_linear_3551_4614)"></path>
  <path d="M9.06702 26.7627H8.57601L8.44824 27.0412H8.26179L8.82931 25.8223L9.37678 27.0412H9.18736L9.06702 26.7627ZM8.99645 26.6L8.82634 26.21L8.64806 26.6H8.99645Z" fill="url(#paint47_linear_3551_4614)"></path>
  <path d="M10.0134 26.5755V27.0412H9.84036V25.8943H10.0365C10.1325 25.8943 10.2051 25.901 10.2541 25.9144C10.3036 25.9277 10.3472 25.953 10.3849 25.9901C10.4507 26.0545 10.4836 26.1357 10.4836 26.2338C10.4836 26.3388 10.4485 26.422 10.3782 26.4834C10.3078 26.5448 10.213 26.5755 10.0937 26.5755H10.0134ZM10.0134 26.415H10.0781C10.237 26.415 10.3165 26.3539 10.3165 26.2315C10.3165 26.1132 10.2346 26.054 10.0706 26.054H10.0134V26.415Z" fill="url(#paint48_linear_3551_4614)"></path>
  <path d="M10.9242 26.4626C10.9242 26.3011 10.9834 26.1625 11.1017 26.0466C11.2196 25.9307 11.3612 25.8728 11.5266 25.8728C11.6901 25.8728 11.8302 25.9312 11.9471 26.0481C12.0644 26.1649 12.1231 26.3053 12.1231 26.4693C12.1231 26.6342 12.0642 26.7741 11.9463 26.889C11.828 27.0043 11.6851 27.062 11.5177 27.062C11.3696 27.062 11.2367 27.0108 11.1188 26.9083C10.9891 26.7949 10.9242 26.6463 10.9242 26.4626ZM11.0988 26.4648C11.0988 26.5916 11.1414 26.6958 11.2265 26.7775C11.3112 26.8592 11.409 26.9001 11.5199 26.9001C11.6403 26.9001 11.7418 26.8585 11.8245 26.7753C11.9072 26.6911 11.9486 26.5886 11.9486 26.4678C11.9486 26.3454 11.9077 26.2429 11.826 26.1602C11.7448 26.077 11.6442 26.0354 11.5244 26.0354C11.4051 26.0354 11.3043 26.077 11.2221 26.1602C11.1399 26.2424 11.0988 26.344 11.0988 26.4648Z" fill="url(#paint49_linear_3551_4614)"></path>
  <path d="M13.0487 26.5525L13.4038 27.0412H13.1921L12.8645 26.5718H12.8333V27.0412H12.6602V25.8943H12.863C13.0146 25.8943 13.124 25.9228 13.1914 25.9797C13.2656 26.0431 13.3028 26.1268 13.3028 26.2308C13.3028 26.312 13.2795 26.3818 13.233 26.4403C13.1864 26.4987 13.125 26.5361 13.0487 26.5525ZM12.8333 26.421H12.8883C13.0522 26.421 13.1342 26.3583 13.1342 26.233C13.1342 26.1157 13.0544 26.057 12.895 26.057H12.8333V26.421Z" fill="url(#paint50_linear_3551_4614)"></path>
  <path d="M14.5293 26.057H14.0694V26.3326H14.5159V26.4953H14.0694V26.8786H14.5293V27.0412H13.8964V25.8943H14.5293V26.057Z" fill="url(#paint51_linear_3551_4614)"></path>
  <path d="M20.0078 26.057H19.548V26.3326H19.9944V26.4953H19.548V26.8786H20.0078V27.0412H19.3749V25.8943H20.0078V26.057Z" fill="url(#paint52_linear_3551_4614)"></path>
  <path d="M20.7277 25.8943V26.5851C20.7277 26.6837 20.7438 26.7557 20.7759 26.8013C20.824 26.8672 20.8916 26.9001 20.9787 26.9001C21.0664 26.9001 21.1342 26.8672 21.1823 26.8013C21.2145 26.7572 21.2306 26.6852 21.2306 26.5851V25.8943H21.4036V26.6327C21.4036 26.7535 21.366 26.853 21.2907 26.9313C21.206 27.0184 21.102 27.062 20.9787 27.062C20.8554 27.062 20.7517 27.0184 20.6675 26.9313C20.5922 26.853 20.5546 26.7535 20.5546 26.6327V25.8943H20.7277Z" fill="url(#paint53_linear_3551_4614)"></path>
  <path d="M22.3872 26.5525L22.7423 27.0412H22.5306L22.203 26.5718H22.1718V27.0412H21.9987V25.8943H22.2015C22.353 25.8943 22.4625 25.9228 22.5298 25.9797C22.6041 26.0431 22.6412 26.1268 22.6412 26.2308C22.6412 26.312 22.618 26.3818 22.5714 26.4403C22.5249 26.4987 22.4635 26.5361 22.3872 26.5525ZM22.1718 26.421H22.2267C22.3907 26.421 22.4726 26.3583 22.4726 26.233C22.4726 26.1157 22.3929 26.057 22.2334 26.057H22.1718V26.421Z" fill="url(#paint54_linear_3551_4614)"></path>
  <path d="M23.1509 26.4626C23.1509 26.3011 23.2101 26.1625 23.3284 26.0466C23.4463 25.9307 23.5879 25.8728 23.7533 25.8728C23.9167 25.8728 24.0569 25.9312 24.1737 26.0481C24.2911 26.1649 24.3498 26.3053 24.3498 26.4693C24.3498 26.6342 24.2909 26.7741 24.173 26.889C24.0546 27.0043 23.9118 27.062 23.7444 27.062C23.5963 27.062 23.4634 27.0108 23.3455 26.9083C23.2157 26.7949 23.1509 26.6463 23.1509 26.4626ZM23.3254 26.4648C23.3254 26.5916 23.368 26.6958 23.4532 26.7775C23.5379 26.8592 23.6357 26.9001 23.7466 26.9001C23.867 26.9001 23.9685 26.8585 24.0512 26.7753C24.1339 26.6911 24.1752 26.5886 24.1752 26.4678C24.1752 26.3454 24.1344 26.2429 24.0527 26.1602C23.9715 26.077 23.8709 26.0354 23.7511 26.0354C23.6317 26.0354 23.531 26.077 23.4488 26.1602C23.3665 26.2424 23.3254 26.344 23.3254 26.4648Z" fill="url(#paint55_linear_3551_4614)"></path>
  <path d="M25.06 26.5755V27.0412H24.8869V25.8943H25.083C25.1791 25.8943 25.2517 25.901 25.3007 25.9144C25.3502 25.9277 25.3938 25.953 25.4314 25.9901C25.4973 26.0545 25.5302 26.1357 25.5302 26.2338C25.5302 26.3388 25.495 26.422 25.4247 26.4834C25.3544 26.5448 25.2596 26.5755 25.1402 26.5755H25.06ZM25.06 26.415H25.1246C25.2836 26.415 25.3631 26.3539 25.3631 26.2315C25.3631 26.1132 25.2811 26.054 25.1172 26.054H25.06V26.415Z" fill="url(#paint56_linear_3551_4614)"></path>
  <path d="M26.6608 26.057H26.201V26.3326H26.6475V26.4953H26.201V26.8786H26.6608V27.0412H26.028V25.8943H26.6608V26.057Z" fill="url(#paint57_linear_3551_4614)"></path>
  <defs>
    <linearGradient id="paint0_linear_3551_4614" x1="22.94" y1="0.523437" x2="22.94" y2="19.6554" gradientUnits="userSpaceOnUse">
      <stop stop-color="#DBAA2C"></stop>
      <stop offset="1" stop-color="#B3850F"></stop>
    </linearGradient>
    <linearGradient id="paint1_linear_3551_4614" x1="22.9416" y1="5.0625" x2="22.9416" y2="17.4073" gradientUnits="userSpaceOnUse">
      <stop stop-color="#DBAA2C"></stop>
      <stop offset="1" stop-color="#B3850F"></stop>
    </linearGradient>
    <linearGradient id="paint2_linear_3551_4614" x1="21.6404" y1="9.57031" x2="21.6404" y2="15.1773" gradientUnits="userSpaceOnUse">
      <stop stop-color="#DBAA2C"></stop>
      <stop offset="1" stop-color="#B3850F"></stop>
    </linearGradient>
    <linearGradient id="paint3_linear_3551_4614" x1="37.3565" y1="25.3404" x2="37.3565" y2="27.3814" gradientUnits="userSpaceOnUse">
      <stop stop-color="#DBAA2C"></stop>
      <stop offset="1" stop-color="#B3850F"></stop>
    </linearGradient>
    <linearGradient id="paint4_linear_3551_4614" x1="37.3565" y1="25.3404" x2="37.3565" y2="27.3814" gradientUnits="userSpaceOnUse">
      <stop stop-color="#DBAA2C"></stop>
      <stop offset="1" stop-color="#B3850F"></stop>
    </linearGradient>
    <linearGradient id="paint5_linear_3551_4614" x1="37.3565" y1="25.3404" x2="37.3565" y2="27.3814" gradientUnits="userSpaceOnUse">
      <stop stop-color="#DBAA2C"></stop>
      <stop offset="1" stop-color="#B3850F"></stop>
    </linearGradient>
    <linearGradient id="paint6_linear_3551_4614" x1="37.3565" y1="25.3404" x2="37.3565" y2="27.3814" gradientUnits="userSpaceOnUse">
      <stop stop-color="#DBAA2C"></stop>
      <stop offset="1" stop-color="#B3850F"></stop>
    </linearGradient>
    <linearGradient id="paint7_linear_3551_4614" x1="37.3565" y1="25.3404" x2="37.3565" y2="27.3814" gradientUnits="userSpaceOnUse">
      <stop stop-color="#DBAA2C"></stop>
      <stop offset="1" stop-color="#B3850F"></stop>
    </linearGradient>
    <linearGradient id="paint8_linear_3551_4614" x1="37.3565" y1="25.3404" x2="37.3565" y2="27.3814" gradientUnits="userSpaceOnUse">
      <stop stop-color="#DBAA2C"></stop>
      <stop offset="1" stop-color="#B3850F"></stop>
    </linearGradient>
    <linearGradient id="paint9_linear_3551_4614" x1="37.3565" y1="25.3404" x2="37.3565" y2="27.3814" gradientUnits="userSpaceOnUse">
      <stop stop-color="#DBAA2C"></stop>
      <stop offset="1" stop-color="#B3850F"></stop>
    </linearGradient>
    <linearGradient id="paint10_linear_3551_4614" x1="37.3565" y1="25.3404" x2="37.3565" y2="27.3814" gradientUnits="userSpaceOnUse">
      <stop stop-color="#DBAA2C"></stop>
      <stop offset="1" stop-color="#B3850F"></stop>
    </linearGradient>
    <linearGradient id="paint11_linear_3551_4614" x1="37.3565" y1="25.3404" x2="37.3565" y2="27.3814" gradientUnits="userSpaceOnUse">
      <stop stop-color="#DBAA2C"></stop>
      <stop offset="1" stop-color="#B3850F"></stop>
    </linearGradient>
    <linearGradient id="paint12_linear_3551_4614" x1="16.8976" y1="26.2969" x2="16.8976" y2="26.7561" gradientUnits="userSpaceOnUse">
      <stop stop-color="#DBAA2C"></stop>
      <stop offset="1" stop-color="#B3850F"></stop>
    </linearGradient>
    <linearGradient id="paint13_linear_3551_4614" x1="29.1348" y1="26.2773" x2="29.1348" y2="26.7474" gradientUnits="userSpaceOnUse">
      <stop stop-color="#DBAA2C"></stop>
      <stop offset="1" stop-color="#B3850F"></stop>
    </linearGradient>
    <linearGradient id="paint14_linear_3551_4614" x1="4.54133" y1="25.9141" x2="4.54133" y2="27.0767" gradientUnits="userSpaceOnUse">
      <stop stop-color="#DBAA2C"></stop>
      <stop offset="1" stop-color="#B3850F"></stop>
    </linearGradient>
    <linearGradient id="paint15_linear_3551_4614" x1="22.6942" y1="25.1641" x2="22.6942" y2="26.1641" gradientUnits="userSpaceOnUse">
      <stop stop-color="#DBAA2C"></stop>
      <stop offset="1" stop-color="#B3850F"></stop>
    </linearGradient>
    <linearGradient id="paint16_linear_3551_4614" x1="23.1497" y1="25.3402" x2="23.1497" y2="27.3813" gradientUnits="userSpaceOnUse">
      <stop stop-color="#DBAA2C"></stop>
      <stop offset="1" stop-color="#B3850F"></stop>
    </linearGradient>
    <linearGradient id="paint17_linear_3551_4614" x1="23.1497" y1="25.3402" x2="23.1497" y2="27.3813" gradientUnits="userSpaceOnUse">
      <stop stop-color="#DBAA2C"></stop>
      <stop offset="1" stop-color="#B3850F"></stop>
    </linearGradient>
    <linearGradient id="paint18_linear_3551_4614" x1="23.1497" y1="25.3402" x2="23.1497" y2="27.3813" gradientUnits="userSpaceOnUse">
      <stop stop-color="#DBAA2C"></stop>
      <stop offset="1" stop-color="#B3850F"></stop>
    </linearGradient>
    <linearGradient id="paint19_linear_3551_4614" x1="23.1497" y1="25.3402" x2="23.1497" y2="27.3813" gradientUnits="userSpaceOnUse">
      <stop stop-color="#DBAA2C"></stop>
      <stop offset="1" stop-color="#B3850F"></stop>
    </linearGradient>
    <linearGradient id="paint20_linear_3551_4614" x1="23.1497" y1="25.3402" x2="23.1497" y2="27.3813" gradientUnits="userSpaceOnUse">
      <stop stop-color="#DBAA2C"></stop>
      <stop offset="1" stop-color="#B3850F"></stop>
    </linearGradient>
    <linearGradient id="paint21_linear_3551_4614" x1="23.1497" y1="25.3402" x2="23.1497" y2="27.3813" gradientUnits="userSpaceOnUse">
      <stop stop-color="#DBAA2C"></stop>
      <stop offset="1" stop-color="#B3850F"></stop>
    </linearGradient>
    <linearGradient id="paint22_linear_3551_4614" x1="23.1497" y1="25.3402" x2="23.1497" y2="27.3813" gradientUnits="userSpaceOnUse">
      <stop stop-color="#DBAA2C"></stop>
      <stop offset="1" stop-color="#B3850F"></stop>
    </linearGradient>
    <linearGradient id="paint23_linear_3551_4614" x1="23.1497" y1="25.3402" x2="23.1497" y2="27.3813" gradientUnits="userSpaceOnUse">
      <stop stop-color="#DBAA2C"></stop>
      <stop offset="1" stop-color="#B3850F"></stop>
    </linearGradient>
    <linearGradient id="paint24_linear_3551_4614" x1="23.1497" y1="25.3402" x2="23.1497" y2="27.3813" gradientUnits="userSpaceOnUse">
      <stop stop-color="#DBAA2C"></stop>
      <stop offset="1" stop-color="#B3850F"></stop>
    </linearGradient>
    <linearGradient id="paint25_linear_3551_4614" x1="23.1497" y1="25.3402" x2="23.1497" y2="27.3813" gradientUnits="userSpaceOnUse">
      <stop stop-color="#DBAA2C"></stop>
      <stop offset="1" stop-color="#B3850F"></stop>
    </linearGradient>
    <linearGradient id="paint26_linear_3551_4614" x1="23.1497" y1="25.3402" x2="23.1497" y2="27.3813" gradientUnits="userSpaceOnUse">
      <stop stop-color="#DBAA2C"></stop>
      <stop offset="1" stop-color="#B3850F"></stop>
    </linearGradient>
    <linearGradient id="paint27_linear_3551_4614" x1="23.1497" y1="25.3402" x2="23.1497" y2="27.3813" gradientUnits="userSpaceOnUse">
      <stop stop-color="#DBAA2C"></stop>
      <stop offset="1" stop-color="#B3850F"></stop>
    </linearGradient>
    <linearGradient id="paint28_linear_3551_4614" x1="23.1497" y1="25.3402" x2="23.1497" y2="27.3813" gradientUnits="userSpaceOnUse">
      <stop stop-color="#DBAA2C"></stop>
      <stop offset="1" stop-color="#B3850F"></stop>
    </linearGradient>
    <linearGradient id="paint29_linear_3551_4614" x1="23.1497" y1="25.3402" x2="23.1497" y2="27.3813" gradientUnits="userSpaceOnUse">
      <stop stop-color="#DBAA2C"></stop>
      <stop offset="1" stop-color="#B3850F"></stop>
    </linearGradient>
    <linearGradient id="paint30_linear_3551_4614" x1="23.1497" y1="25.3402" x2="23.1497" y2="27.3813" gradientUnits="userSpaceOnUse">
      <stop stop-color="#DBAA2C"></stop>
      <stop offset="1" stop-color="#B3850F"></stop>
    </linearGradient>
    <linearGradient id="paint31_linear_3551_4614" x1="23.1497" y1="25.3402" x2="23.1497" y2="27.3813" gradientUnits="userSpaceOnUse">
      <stop stop-color="#DBAA2C"></stop>
      <stop offset="1" stop-color="#B3850F"></stop>
    </linearGradient>
    <linearGradient id="paint32_linear_3551_4614" x1="23.1497" y1="25.3402" x2="23.1497" y2="27.3813" gradientUnits="userSpaceOnUse">
      <stop stop-color="#DBAA2C"></stop>
      <stop offset="1" stop-color="#B3850F"></stop>
    </linearGradient>
    <linearGradient id="paint33_linear_3551_4614" x1="23.1497" y1="25.3402" x2="23.1497" y2="27.3813" gradientUnits="userSpaceOnUse">
      <stop stop-color="#DBAA2C"></stop>
      <stop offset="1" stop-color="#B3850F"></stop>
    </linearGradient>
    <linearGradient id="paint34_linear_3551_4614" x1="23.1497" y1="25.3402" x2="23.1497" y2="27.3813" gradientUnits="userSpaceOnUse">
      <stop stop-color="#DBAA2C"></stop>
      <stop offset="1" stop-color="#B3850F"></stop>
    </linearGradient>
    <linearGradient id="paint35_linear_3551_4614" x1="23.1497" y1="25.3402" x2="23.1497" y2="27.3813" gradientUnits="userSpaceOnUse">
      <stop stop-color="#DBAA2C"></stop>
      <stop offset="1" stop-color="#B3850F"></stop>
    </linearGradient>
    <linearGradient id="paint36_linear_3551_4614" x1="23.1497" y1="25.3402" x2="23.1497" y2="27.3813" gradientUnits="userSpaceOnUse">
      <stop stop-color="#DBAA2C"></stop>
      <stop offset="1" stop-color="#B3850F"></stop>
    </linearGradient>
    <linearGradient id="paint37_linear_3551_4614" x1="23.1497" y1="25.3402" x2="23.1497" y2="27.3813" gradientUnits="userSpaceOnUse">
      <stop stop-color="#DBAA2C"></stop>
      <stop offset="1" stop-color="#B3850F"></stop>
    </linearGradient>
    <linearGradient id="paint38_linear_3551_4614" x1="23.1497" y1="25.3402" x2="23.1497" y2="27.3813" gradientUnits="userSpaceOnUse">
      <stop stop-color="#DBAA2C"></stop>
      <stop offset="1" stop-color="#B3850F"></stop>
    </linearGradient>
    <linearGradient id="paint39_linear_3551_4614" x1="23.1497" y1="25.3402" x2="23.1497" y2="27.3813" gradientUnits="userSpaceOnUse">
      <stop stop-color="#DBAA2C"></stop>
      <stop offset="1" stop-color="#B3850F"></stop>
    </linearGradient>
    <linearGradient id="paint40_linear_3551_4614" x1="23.1497" y1="25.3402" x2="23.1497" y2="27.3813" gradientUnits="userSpaceOnUse">
      <stop stop-color="#DBAA2C"></stop>
      <stop offset="1" stop-color="#B3850F"></stop>
    </linearGradient>
    <linearGradient id="paint41_linear_3551_4614" x1="23.1497" y1="25.3402" x2="23.1497" y2="27.3813" gradientUnits="userSpaceOnUse">
      <stop stop-color="#DBAA2C"></stop>
      <stop offset="1" stop-color="#B3850F"></stop>
    </linearGradient>
    <linearGradient id="paint42_linear_3551_4614" x1="23.1497" y1="25.3402" x2="23.1497" y2="27.3813" gradientUnits="userSpaceOnUse">
      <stop stop-color="#DBAA2C"></stop>
      <stop offset="1" stop-color="#B3850F"></stop>
    </linearGradient>
    <linearGradient id="paint43_linear_3551_4614" x1="23.1497" y1="25.3402" x2="23.1497" y2="27.3813" gradientUnits="userSpaceOnUse">
      <stop stop-color="#DBAA2C"></stop>
      <stop offset="1" stop-color="#B3850F"></stop>
    </linearGradient>
    <linearGradient id="paint44_linear_3551_4614" x1="23.1497" y1="25.3402" x2="23.1497" y2="27.3813" gradientUnits="userSpaceOnUse">
      <stop stop-color="#DBAA2C"></stop>
      <stop offset="1" stop-color="#B3850F"></stop>
    </linearGradient>
    <linearGradient id="paint45_linear_3551_4614" x1="23.1497" y1="25.3402" x2="23.1497" y2="27.3813" gradientUnits="userSpaceOnUse">
      <stop stop-color="#DBAA2C"></stop>
      <stop offset="1" stop-color="#B3850F"></stop>
    </linearGradient>
    <linearGradient id="paint46_linear_3551_4614" x1="23.1497" y1="25.3402" x2="23.1497" y2="27.3813" gradientUnits="userSpaceOnUse">
      <stop stop-color="#DBAA2C"></stop>
      <stop offset="1" stop-color="#B3850F"></stop>
    </linearGradient>
    <linearGradient id="paint47_linear_3551_4614" x1="23.1497" y1="25.3402" x2="23.1497" y2="27.3813" gradientUnits="userSpaceOnUse">
      <stop stop-color="#DBAA2C"></stop>
      <stop offset="1" stop-color="#B3850F"></stop>
    </linearGradient>
    <linearGradient id="paint48_linear_3551_4614" x1="23.1497" y1="25.3402" x2="23.1497" y2="27.3813" gradientUnits="userSpaceOnUse">
      <stop stop-color="#DBAA2C"></stop>
      <stop offset="1" stop-color="#B3850F"></stop>
    </linearGradient>
    <linearGradient id="paint49_linear_3551_4614" x1="23.1497" y1="25.3402" x2="23.1497" y2="27.3813" gradientUnits="userSpaceOnUse">
      <stop stop-color="#DBAA2C"></stop>
      <stop offset="1" stop-color="#B3850F"></stop>
    </linearGradient>
    <linearGradient id="paint50_linear_3551_4614" x1="23.1497" y1="25.3402" x2="23.1497" y2="27.3813" gradientUnits="userSpaceOnUse">
      <stop stop-color="#DBAA2C"></stop>
      <stop offset="1" stop-color="#B3850F"></stop>
    </linearGradient>
    <linearGradient id="paint51_linear_3551_4614" x1="23.1497" y1="25.3402" x2="23.1497" y2="27.3813" gradientUnits="userSpaceOnUse">
      <stop stop-color="#DBAA2C"></stop>
      <stop offset="1" stop-color="#B3850F"></stop>
    </linearGradient>
    <linearGradient id="paint52_linear_3551_4614" x1="23.1497" y1="25.3402" x2="23.1497" y2="27.3813" gradientUnits="userSpaceOnUse">
      <stop stop-color="#DBAA2C"></stop>
      <stop offset="1" stop-color="#B3850F"></stop>
    </linearGradient>
    <linearGradient id="paint53_linear_3551_4614" x1="23.1497" y1="25.3402" x2="23.1497" y2="27.3813" gradientUnits="userSpaceOnUse">
      <stop stop-color="#DBAA2C"></stop>
      <stop offset="1" stop-color="#B3850F"></stop>
    </linearGradient>
    <linearGradient id="paint54_linear_3551_4614" x1="23.1497" y1="25.3402" x2="23.1497" y2="27.3813" gradientUnits="userSpaceOnUse">
      <stop stop-color="#DBAA2C"></stop>
      <stop offset="1" stop-color="#B3850F"></stop>
    </linearGradient>
    <linearGradient id="paint55_linear_3551_4614" x1="23.1497" y1="25.3402" x2="23.1497" y2="27.3813" gradientUnits="userSpaceOnUse">
      <stop stop-color="#DBAA2C"></stop>
      <stop offset="1" stop-color="#B3850F"></stop>
    </linearGradient>
    <linearGradient id="paint56_linear_3551_4614" x1="23.1497" y1="25.3402" x2="23.1497" y2="27.3813" gradientUnits="userSpaceOnUse">
      <stop stop-color="#DBAA2C"></stop>
      <stop offset="1" stop-color="#B3850F"></stop>
    </linearGradient>
    <linearGradient id="paint57_linear_3551_4614" x1="23.1497" y1="25.3402" x2="23.1497" y2="27.3813" gradientUnits="userSpaceOnUse">
      <stop stop-color="#DBAA2C"></stop>
      <stop offset="1" stop-color="#B3850F"></stop>
    </linearGradient>
  </defs>
</svg>
