<?xml version="1.0" encoding="UTF-8"?>
<svg xmlns="http://www.w3.org/2000/svg" width="112" height="27" viewBox="0 0 112 27" fill="none">
  <g clip-path="url(#clip0_3551_4147)">
    <path d="M110.5 11.6907C110.344 11.6751 110.189 11.6438 110.034 11.6438C108.575 11.6438 107.116 11.6438 105.657 11.6438H105.242V5.39064H105.695C107.139 5.39064 108.584 5.39064 110.028 5.39064C110.186 5.39064 110.342 5.37152 110.5 5.35938V6.48842H106.413V10.5703H110.5V11.6907Z" fill="black"></path>
    <path d="M26.7052 14.1889C26.6496 17.0758 25.8472 19.3999 24.204 21.42C23.0264 22.8954 21.4763 24.0299 19.7139 24.7063C18.8034 25.0665 17.8478 25.3003 16.8739 25.4011C15.8855 25.4967 14.8955 25.6322 13.9071 25.6304C12.2197 25.6506 10.5385 25.4205 8.91848 24.9478C7.13186 24.3895 5.52347 23.3711 4.25468 21.9949C3.13807 20.8248 2.30025 19.4176 1.80379 17.8783C1.54482 17.114 1.38658 16.3193 1.33307 15.5142C1.31918 15.2276 1.27227 14.941 1.26185 14.6457C1.21495 13.1293 1.58146 11.6824 2.1095 10.2703C2.79423 8.45819 3.74876 6.75995 4.94078 5.233C6.02639 3.83299 7.28225 2.60321 8.90112 1.81288C10.18 1.17946 11.5652 0.788407 12.9865 0.659521C15.1958 0.458123 17.4152 0.917594 19.363 1.97963C20.4895 2.60019 21.4908 3.4248 22.3159 4.41141C23.2068 5.43757 23.9913 6.55147 24.6573 7.736C25.5031 9.18003 26.1168 10.748 26.4759 12.3824C26.6184 13.0633 26.6548 13.772 26.7052 14.1889ZM13.9974 1.33521C12.6047 1.32407 11.2246 1.60021 9.94331 2.14638C8.12294 2.8846 6.73162 4.12481 5.56088 5.65162C4.49781 7.01971 3.62162 8.52325 2.95542 10.1226C2.19983 11.9551 1.81073 13.8311 2.08692 15.8199C2.22426 16.8637 2.52127 17.8801 2.96756 18.8336C3.57531 20.114 4.43625 21.2579 5.49836 22.1964C6.34733 22.9622 7.3261 23.5704 8.38869 23.9924C9.9711 24.616 11.6456 24.821 13.3322 24.8991C14.5869 24.941 15.8426 24.8572 17.0806 24.649C18.2108 24.4946 19.308 24.156 20.3287 23.6468C22.5622 22.5121 24.3038 20.6002 25.2258 18.2709C26.1478 15.9416 26.1865 13.3557 25.3347 10.9998C24.7035 9.21385 23.8076 7.53282 22.6772 6.01291C21.866 4.91687 20.9593 3.89726 19.8233 3.13299C18.0794 1.9501 16.1513 1.29005 13.9974 1.33173V1.33521Z" fill="#D4E1EA"></path>
    <path d="M81.0132 9.702V11.6127H79.8633V5.41512C79.9238 5.40022 79.9853 5.38977 80.0474 5.38386C81.1608 5.38386 82.2759 5.38386 83.3894 5.38386C83.702 5.37412 84.0131 5.43246 84.301 5.55482C84.589 5.67719 84.8469 5.86067 85.0569 6.09255C85.8072 6.94367 85.8507 8.55038 84.4611 9.26602C84.3621 9.31639 84.2648 9.37198 84.1293 9.43972C84.6348 10.1658 85.1211 10.8606 85.6422 11.604H84.1866L82.9134 9.69332L81.0132 9.702ZM81.0132 8.55038C81.866 8.55038 82.6998 8.57991 83.5301 8.53822C83.7503 8.52651 83.9586 8.4348 84.116 8.28032C84.2733 8.12584 84.3689 7.91921 84.3846 7.69926C84.475 7.00447 84.0511 6.5129 83.3095 6.48337C82.8179 6.466 82.3263 6.48337 81.8365 6.48337H81.0132V8.55038Z" fill="black"></path>
    <path d="M50.8891 11.6018C50.5105 11.7234 50.2204 11.6278 49.9373 11.3204C48.8395 10.1306 47.7157 8.9633 46.5953 7.78736C46.5588 7.74915 46.5172 7.71614 46.4077 7.61366V11.6209H45.2266V5.42506C45.3946 5.3654 45.5769 5.3589 45.7488 5.40645C45.9206 5.45399 46.0737 5.55328 46.1871 5.69082C47.2293 6.82855 48.3149 7.9489 49.3797 9.06231C49.4657 9.16982 49.5676 9.26354 49.6819 9.34023C49.7566 8.02533 49.7323 6.72606 49.7479 5.40595H50.8839L50.8891 11.6018Z" fill="black"></path>
    <path d="M101.434 8.9817H99.6087C99.435 8.62215 99.2613 8.28691 99.079 7.9013C99.2023 7.88914 99.27 7.87698 99.3378 7.87698H102.62C102.926 8.86533 102.384 10.7569 100.845 11.4552C99.3065 12.1534 97.4149 11.6601 96.5186 10.3122C96.0835 9.6627 95.899 8.87728 95.9993 8.10192C96.0996 7.32657 96.4779 6.61398 97.0641 6.09657C97.6708 5.57329 98.4412 5.27825 99.2422 5.26239C100.043 5.24654 100.825 5.51086 101.451 6.00972L100.599 6.75315C99.9162 6.33106 99.2092 6.21816 98.4571 6.56035C98.1843 6.67919 97.9395 6.85412 97.7387 7.07378C97.5379 7.29344 97.3855 7.5529 97.2916 7.83529C97.2018 8.11517 97.1692 8.41023 97.1957 8.70296C97.2221 8.99569 97.3072 9.28012 97.4457 9.53935C97.5842 9.79858 97.7734 10.0273 98.0021 10.212C98.2307 10.3967 98.4942 10.5336 98.7767 10.6145C99.0588 10.6963 99.3549 10.7183 99.6459 10.679C99.937 10.6397 100.217 10.5399 100.467 10.3862C100.717 10.2324 100.932 10.0281 101.099 9.78621C101.265 9.54434 101.38 9.27031 101.434 8.9817Z" fill="black"></path>
    <path d="M54.3885 16.0465L53.5304 16.7986C52.9832 16.4669 52.4031 16.2775 51.7621 16.4669C51.3111 16.5858 50.9089 16.8434 50.6123 17.2033C50.3182 17.5476 50.1443 17.9782 50.1167 18.4301C50.0891 18.882 50.2094 19.3306 50.4594 19.7081C50.7013 20.0898 51.0546 20.3881 51.4714 20.5627C51.8883 20.7373 52.3487 20.7797 52.7904 20.6843C53.6363 20.4723 54.2808 19.7949 54.3242 19.0341H52.5594L52.0175 17.9641H55.5818C55.9101 19.3086 55.0364 20.9517 53.6798 21.5406C52.1755 22.192 50.2996 21.6552 49.4415 20.3247C49.0192 19.6845 48.8396 18.9145 48.9352 18.1536C49.0307 17.3926 49.3951 16.6909 49.9626 16.175C50.5666 15.6349 51.3421 15.3258 52.1521 15.3022C52.962 15.2787 53.7542 15.5423 54.3885 16.0465Z" fill="black"></path>
    <path d="M77.1665 8.52725C77.1665 10.3598 75.6988 11.7754 73.8124 11.7737C71.9261 11.7719 70.4548 10.3528 70.4531 8.52725C70.4514 6.70168 71.9156 5.25998 73.7916 5.26172C75.7127 5.26172 77.1665 6.67563 77.1665 8.52725ZM73.7742 10.662C74.1986 10.6617 74.6134 10.5355 74.9661 10.2996C75.3189 10.0636 75.5938 9.7284 75.7561 9.33628C75.9184 8.94415 75.9609 8.51271 75.8782 8.09646C75.7954 7.68021 75.5911 7.29783 75.2912 6.99761C74.9912 6.69739 74.609 6.49282 74.1928 6.40973C73.7766 6.32664 73.3451 6.36876 72.9529 6.53077C72.5606 6.69279 72.2252 6.96742 71.9889 7.31999C71.7527 7.67255 71.6262 8.08722 71.6256 8.51162C71.6237 8.79438 71.678 9.0747 71.7853 9.33631C71.8926 9.59793 72.0508 9.83564 72.2507 10.0357C72.4505 10.2357 72.6881 10.3941 72.9496 10.5016C73.2112 10.6091 73.4914 10.6636 73.7742 10.662Z" fill="black"></path>
    <path d="M36.7891 15.3906C37.8313 15.4323 38.8579 15.368 39.8445 15.5365C40.5833 15.6775 41.2452 16.0832 41.7061 16.6775C42.167 17.2718 42.3952 18.0139 42.3478 18.7645C42.3005 19.5151 41.9809 20.2226 41.449 20.7543C40.9171 21.286 40.2095 21.6054 39.4589 21.6525C38.5904 21.7185 37.6993 21.6664 36.7891 21.6664V15.3906ZM37.9338 16.5527V20.5477C38.4339 20.5719 38.9348 20.569 39.4346 20.539C39.9368 20.4855 40.3994 20.2416 40.7273 19.8575C41.0553 19.4733 41.2236 18.9782 41.1976 18.4738C41.1773 17.9786 40.9734 17.5087 40.6257 17.1555C40.278 16.8023 39.8113 16.5911 39.3165 16.5631C38.8718 16.5284 38.4306 16.5527 37.9338 16.5527Z" fill="black"></path>
    <path d="M42.9458 11.6216H41.6987L41.0977 10.4735H39.1522C38.9785 10.1434 38.8187 9.8169 38.6311 9.43128H40.5679C40.1979 8.63922 39.814 7.92706 39.3919 7.12631L37.0696 11.6077H35.8242L39.0914 5.39453H39.715L42.9458 11.6216Z" fill="black"></path>
    <path d="M75.0786 21.6642H73.8315L73.2322 20.5195H71.2868L70.7449 19.4773H72.7007L71.5161 17.1619L69.1903 21.6555H67.957C69.0513 19.5711 70.1335 17.518 71.2191 15.4492H71.8496C72.9126 17.5058 73.9861 19.5676 75.0786 21.6642Z" fill="black"></path>
    <path d="M93.2682 11.6073C93.0684 11.2269 92.8739 10.8586 92.6741 10.4765H90.7217L90.2006 9.43432H92.1374L90.9562 7.11892L88.6287 11.6212H87.3867L90.6557 5.40625H91.2811C92.3528 7.45937 93.4193 9.50901 94.5136 11.6073H93.2682Z" fill="black"></path>
    <path d="M59.4798 6.50081L58.6113 7.24076C58.1302 6.65366 57.5691 6.30279 56.7962 6.37227C56.257 6.41161 55.7549 6.66112 55.3979 7.06707C55.0274 7.48108 54.8305 8.02177 54.848 8.57704C54.8655 9.1323 55.096 9.65956 55.4917 10.0495C56.3949 10.9405 57.6924 10.8485 58.792 9.78718C58.9257 9.90009 59.0647 10.0182 59.2001 10.1346C59.3356 10.251 59.4763 10.3812 59.6083 10.5011C58.9865 11.4095 57.4614 12.1356 55.8391 11.5867C55.1848 11.3723 54.616 10.955 54.2151 10.3954C53.8141 9.83569 53.6021 9.16279 53.6096 8.47438C53.6172 7.78597 53.844 7.11789 54.2571 6.56714C54.6701 6.0164 55.248 5.61167 55.9068 5.41172C57.2981 4.97747 58.8024 5.50031 59.4798 6.50081Z" fill="black"></path>
    <path d="M67.148 16.5248H65.1782V21.642H63.9971V16.5509H61.8867V15.4531H67.148V16.5248Z" fill="black"></path>
    <path d="M81.9241 20.5668V21.6524H77.375V15.4531H78.5248V20.5668H81.9241Z" fill="black"></path>
    <path d="M66.6394 8.99877H64.3309C64.1486 8.63921 63.9836 8.30397 63.7734 7.89752H66.622V5.41016H67.7563V11.6268H66.6394V8.99877Z" fill="black"></path>
    <path d="M46.1789 21.6624H45.0586V15.4492H46.1789V21.6624Z" fill="black"></path>
    <path d="M58.1836 15.4453H59.3057V21.6585H58.1836V15.4453Z" fill="black"></path>
    <path d="M63.247 5.38281V11.6238H62.1406V5.38281H63.247Z" fill="black"></path>
    <path d="M106.867 7.89844H109.872V8.96147H107.42L106.867 7.89844Z" fill="black"></path>
    <path d="M14.0201 23.2119C12.6033 23.1998 11.1889 23.0907 9.78702 22.8854C6.81851 22.4442 4.74977 20.801 3.62941 18.0427C2.8634 16.1563 2.98846 14.2213 3.751 12.3436C4.72397 9.9925 5.97543 7.76658 7.47857 5.71354C8.05492 4.87898 8.77058 4.14981 9.59422 3.55794C11.1271 2.48605 13.0026 2.01951 14.859 2.24826C16.9434 2.47233 18.6283 3.44156 19.9519 5.06217C21.1184 6.53509 22.1399 8.11732 23.002 9.78677C23.6777 11.0478 24.3169 12.3228 24.6313 13.7315C25.1246 15.9444 24.6817 17.9697 23.3772 19.8109C22.5272 21.0301 21.3166 21.9522 19.9154 22.4477C19.1662 22.7055 18.3909 22.8803 17.6035 22.9688C16.4154 23.0973 15.2151 23.1338 14.0201 23.2119ZM14.0201 22.4477C15.236 22.3643 16.4692 22.3209 17.6868 22.1802C18.4003 22.1047 19.1009 21.9371 19.7712 21.6816C21.5968 20.9625 22.8648 19.6372 23.5926 17.8255C23.9948 16.8599 24.1482 15.8088 24.039 14.7684C23.9141 13.7085 23.6111 12.6773 23.1427 11.7183C22.2878 9.89949 21.2729 8.16029 20.1099 6.52124C19.5037 5.67185 18.8524 4.852 18.0012 4.24231C17.299 3.71887 16.4998 3.34015 15.6499 3.12815C14.8001 2.91614 13.9167 2.87507 13.0508 3.00732C11.6044 3.18592 10.2592 3.84321 9.22945 4.87458C8.45246 5.68898 7.75992 6.57997 7.16244 7.5339C6.26329 8.89748 5.47172 10.329 4.79493 11.8156C4.25646 13.0037 3.86217 14.223 3.90733 15.5709C3.94819 17.2618 4.6263 18.8749 5.80585 20.0871C7.02174 21.3881 8.58503 22.0221 10.3377 22.1854C11.5588 22.307 12.7851 22.3643 14.0201 22.4477Z" fill="black"></path>
    <path d="M14.2736 20.7318C12.8233 20.6936 11.6942 20.6866 10.5704 20.6241C9.87869 20.5958 9.19037 20.5122 8.51204 20.374C6.79069 20.0005 5.62865 18.9844 5.13187 17.2596C4.85181 16.2911 4.94349 15.2528 5.38895 14.3484C5.96215 13.1325 6.53883 11.9166 7.19715 10.7563C8.03264 9.28681 8.91503 7.84685 9.83215 6.42774C10.2093 5.83003 10.6683 5.28804 11.1957 4.81755C11.6384 4.43707 12.1536 4.15022 12.7102 3.97431C13.2669 3.79841 13.8534 3.7371 14.4343 3.79407C15.0153 3.85105 15.5787 4.02513 16.0905 4.30582C16.6023 4.58651 17.052 4.96799 17.4124 5.42723C18.3116 6.59452 19.1172 7.83105 19.8216 9.12528C20.6744 10.633 21.5047 12.1563 22.2968 13.697C22.6998 14.4787 22.9916 15.3089 22.9725 16.2226C22.9614 17.0576 22.7067 17.8712 22.2394 18.5634C21.7722 19.2556 21.113 19.7961 20.3427 20.1187C19.7124 20.371 19.0442 20.5155 18.366 20.546C16.8913 20.638 15.4235 20.6814 14.2736 20.7318ZM14.4473 19.9606C15.5746 19.9067 17.0893 19.8477 18.6039 19.7522C19.6809 19.6844 20.6293 19.3005 21.3519 18.4633C21.6703 18.1073 21.9094 17.6876 22.0531 17.2321C22.1969 16.7766 22.242 16.2957 22.1856 15.8214C22.1144 15.1266 21.8156 14.4891 21.5169 13.8655C20.4079 11.6086 19.1667 9.41908 17.7997 7.30839C17.3464 6.58928 16.8913 5.86322 16.1965 5.32823C15.1543 4.51358 13.9957 4.36767 12.7607 4.76544C11.8506 5.06073 11.2131 5.71731 10.7146 6.50243C9.84721 7.86075 8.99956 9.23528 8.1716 10.626C7.35304 11.9719 6.636 13.377 6.02642 14.8295C5.68706 15.6377 5.66429 16.544 5.96263 17.3683C6.26097 18.1925 6.85857 18.8742 7.63661 19.278C8.45299 19.7209 9.35101 19.7782 10.2421 19.8303C11.5066 19.9067 12.7816 19.9137 14.4456 19.9606H14.4473Z" fill="black"></path>
    <path d="M14.0184 18.2023C12.1233 18.2023 10.2283 18.1849 8.3332 18.2023C8.12101 18.2095 7.90978 18.1708 7.71394 18.0888C7.51809 18.0068 7.34226 17.8836 7.19845 17.7274C7.05464 17.5712 6.94624 17.3858 6.88068 17.1839C6.81511 16.982 6.79392 16.7683 6.81855 16.5574C6.8463 16.3584 6.91111 16.1663 7.00961 15.9911C7.53534 15.0462 8.06917 14.1071 8.61111 13.1737C9.45355 11.7147 10.3064 10.2625 11.161 8.80695C11.6891 7.90025 12.2165 6.99354 12.7434 6.08684C12.8689 5.8797 13.0445 5.70744 13.254 5.58587C13.4634 5.4643 13.7001 5.39733 13.9422 5.3911C14.1843 5.38488 14.4241 5.4396 14.6396 5.55024C14.855 5.66088 15.0392 5.8239 15.1752 6.0243C15.5486 6.58535 15.87 7.18114 16.2174 7.76129C17.3812 9.77851 18.5484 11.7969 19.7191 13.8164C20.1447 14.5512 20.5616 15.2894 20.9802 16.0259C21.5013 16.943 20.9211 17.8341 20.2507 18.1102C20.0619 18.1776 19.8621 18.2088 19.6618 18.2023C17.7807 18.2023 15.8995 18.2023 14.0184 18.2023ZM13.9402 17.438H16.8062C17.7459 17.438 18.6874 17.4485 19.6288 17.438C20.268 17.4276 20.5963 16.8666 20.2889 16.3246C19.7209 15.3241 19.1355 14.334 18.5519 13.3387C17.7367 11.9202 16.9174 10.4976 16.0941 9.07098C15.6025 8.22333 15.1196 7.37047 14.6089 6.53498C14.5478 6.42379 14.4579 6.33105 14.3487 6.26647C14.2394 6.20188 14.1149 6.16781 13.988 6.16781C13.8611 6.16781 13.7365 6.20188 13.6273 6.26647C13.518 6.33105 13.4281 6.42379 13.367 6.53498C12.9866 7.1464 12.6288 7.77345 12.2675 8.39876C11.4824 9.75709 10.6978 11.1171 9.91385 12.4789C9.20053 13.718 8.48431 14.9507 7.7652 16.177L7.70267 16.2899C7.32748 16.9326 7.81384 17.4589 8.38531 17.4502C10.2387 17.4189 12.0903 17.438 13.9402 17.438Z" fill="black"></path>
  </g>
  <defs>
    <clipPath id="clip0_3551_4147">
      <rect width="111" height="26" fill="white" transform="translate(0.28125 0.125)"></rect>
    </clipPath>
  </defs>
</svg>
