<?xml version="1.0" encoding="UTF-8"?>
<svg xmlns="http://www.w3.org/2000/svg" width="100" height="21" viewBox="0 0 100 21" fill="none">
  <g clip-path="url(#clip0_3551_4236)">
    <path d="M0.9102 17.3359L0.863281 17.3854V17.3359H0.912669H0.9102Z" fill="black"></path>
    <path d="M30.4426 16.2304L27.871 15.1612C25.6243 14.2275 23.3783 13.2925 21.1332 12.3562C20.9673 12.2867 20.8885 12.3445 20.7848 12.4541C19.3941 13.9753 18.0014 15.4952 16.6067 17.0139C16.5089 17.1186 16.4109 17.2208 16.2695 17.3706C16.294 16.9346 16.3107 16.5641 16.3361 16.1962C16.3762 15.6202 16.4242 15.0447 16.4643 14.4687C16.5622 13.0398 16.66 11.6109 16.7579 10.1821C16.8127 9.36969 16.8592 8.55692 16.914 7.74456C16.9864 6.67289 17.0643 5.6017 17.1386 4.53003C17.192 3.76664 17.2473 3.00374 17.2923 2.24036C17.3016 2.08572 17.303 2.02015 17.5066 2.05C19.4048 2.32843 21.3059 2.58828 23.2061 2.85596C24.4784 3.03457 25.7507 3.2171 27.023 3.39424C27.1114 3.40715 27.1915 3.45358 27.2467 3.52392C27.6871 4.01817 28.1216 4.5129 28.5679 5.00078C28.6658 5.10893 28.6609 5.17597 28.5679 5.28509C27.3318 6.70421 26.1021 8.12873 24.864 9.54635C24.7524 9.67411 24.7588 9.73914 24.8679 9.86251C26.7085 11.9435 28.5459 14.0277 30.38 16.1149C30.4029 16.1523 30.4239 16.1908 30.4426 16.2304Z" fill="black"></path>
    <path d="M45.6253 16.8593C44.8991 16.6219 44.1709 16.3895 43.4467 16.1468C40.9627 15.3152 38.4799 14.4804 35.9983 13.6423C35.8265 13.5841 35.7242 13.61 35.5936 13.7309C34.4808 14.7585 33.3602 15.7812 32.2416 16.804C32.2131 16.8299 32.1926 16.87 32.1358 16.8593C32.0556 16.4032 32.0702 15.9378 32.0448 15.4773C31.9616 13.9731 31.9024 12.4678 31.8315 10.9631C31.7825 9.96287 31.7336 8.96264 31.6846 7.96242C31.6024 6.29534 31.5201 4.62829 31.4375 2.96123C31.3651 1.55484 31.2863 0.148445 31.2109 -1.25795C31.2109 -1.29025 31.2109 -1.32254 31.2109 -1.41797C31.4067 -1.187 31.5726 -0.996635 31.7336 -0.80187C33.4375 1.25634 35.1399 3.31569 36.841 5.37618C36.9878 5.55626 37.0963 5.6277 37.3528 5.51956C38.8967 4.86774 40.4528 4.2448 42.005 3.61109C42.0638 3.58711 42.1225 3.56216 42.2443 3.51616C42.0075 3.98447 41.7985 4.40041 41.5872 4.81587C40.8198 6.32503 40.0512 7.83371 39.2813 9.34188C39.2187 9.4637 39.2358 9.54203 39.3249 9.64231C40.6373 11.1251 41.9473 12.6094 43.2548 14.0954C44.0309 14.9763 44.8074 15.8558 45.5841 16.734C45.6082 16.7662 45.6296 16.8002 45.6483 16.8358L45.6253 16.8593Z" fill="black"></path>
    <path d="M97.8616 -0.508205C97.3221 0.55075 96.7839 1.60954 96.2463 2.66817C95.3793 4.36459 94.5089 6.05872 93.635 7.75054C93.5371 7.938 93.5527 8.06421 93.6674 8.23256C95.3037 10.6265 96.9345 13.0231 98.5612 15.4226C98.5882 15.4618 98.6098 15.5048 98.6416 15.5581C98.5308 15.5895 98.4808 15.5092 98.4234 15.4666C96.1106 13.7862 93.7991 12.1033 91.4897 10.418C91.3269 10.2991 91.2513 10.2712 91.1331 10.4826C89.6583 13.1365 88.1761 15.787 86.6878 18.4341C86.6689 18.4674 86.6472 18.4992 86.5898 18.5926C86.5898 18.2012 86.5898 17.8826 86.5898 17.5626C86.5939 16.5271 86.5838 15.4911 86.6074 14.4566C86.6594 12.1987 86.629 9.94088 86.656 7.68301C86.679 5.6767 86.6844 3.67281 86.7006 1.66794C86.7006 1.59258 86.652 1.48443 86.7445 1.45017C86.787 1.43403 86.8701 1.50694 86.9268 1.54805C88.0809 2.41257 89.2329 3.27937 90.3836 4.14846C90.5274 4.25758 90.6246 4.27618 90.7827 4.1695C92.6856 2.88186 94.5912 1.59926 96.5003 0.321734C96.9405 0.0281234 97.3815 -0.260104 97.8258 -0.550781L97.8616 -0.508205Z" fill="black"></path>
    <path d="M49.3393 15.6593C49.2566 15.141 49.1836 14.6806 49.1097 14.2157C48.8895 12.8021 48.6695 11.3885 48.4496 9.97495C48.2438 8.64262 48.0382 7.30881 47.833 5.97355C47.6999 5.11425 47.5629 4.25495 47.4371 3.39467C47.4127 3.22928 47.3172 3.18817 47.1807 3.16224C45.9573 2.92979 44.7384 2.69196 43.5155 2.46442C43.2972 2.4238 43.1314 2.34893 43.0007 2.15319C42.7683 1.80477 42.504 1.47691 42.2305 1.11088C42.687 1.07026 43.0971 1.03111 43.5072 0.996856C44.8447 0.885283 46.1823 0.774527 47.5199 0.664586C48.6571 0.572588 49.7948 0.489398 50.9292 0.396422C51.9993 0.308339 53.0686 0.208511 54.1388 0.11945C55.023 0.0455573 55.9078 -0.0195262 56.7921 -0.0904819C57.1003 -0.115439 57.4081 -0.142353 57.7154 -0.17465C57.8794 -0.191777 57.9572 -0.17465 57.8951 0.0279413C57.7483 0.517292 57.6098 1.01252 57.4913 1.51068C57.4424 1.70641 57.3377 1.78129 57.1586 1.82826C55.9318 2.15173 54.7079 2.48595 53.4811 2.80696C53.2947 2.8559 53.2032 2.93077 53.1659 3.13728C52.7065 5.66428 52.2337 8.18931 51.7669 10.7149C51.6119 11.554 51.4604 12.3938 51.3123 13.2345C51.301 13.3239 51.2654 13.4085 51.2095 13.4792C50.6008 14.1912 49.9906 14.9013 49.3393 15.6593Z" fill="black"></path>
    <path d="M0.910156 17.3389C2.02261 14.9479 3.13507 12.5572 4.24753 10.167C5.65033 7.1571 7.05314 4.1473 8.45596 1.13746C8.46967 1.10859 8.48919 1.08266 8.52883 1.01953L14.2557 12.8417L12.036 12.2751C11.3353 12.096 10.6326 11.9228 9.93186 11.7324C9.739 11.6801 9.59469 11.7167 9.43269 11.8229C6.67308 13.6276 3.9102 15.4289 1.14407 17.2268C1.07164 17.2758 1.00803 17.3507 0.910156 17.3355V17.3389Z" fill="black"></path>
    <path d="M68.4532 15.3759L62 2.31805L63.973 2.58082C65.0203 2.72111 66.0673 2.86188 67.1142 3.00314C67.3961 3.0413 67.6794 3.07213 67.9588 3.12449C68.0805 3.15212 68.2068 3.15421 68.329 3.13063C68.4512 3.10704 68.5674 3.05829 68.67 2.98748C70.2103 1.9799 71.7601 0.987009 73.3065 -0.0102864C73.4003 -0.0709657 73.4976 -0.12773 73.6461 -0.21875C71.9127 4.9943 70.1934 10.152 68.4532 15.3759Z" fill="black"></path>
    <path d="M80.2314 1.01953C81.6765 6.10438 83.1068 11.1369 84.5559 16.2383C84.1582 15.9325 83.8091 15.6658 83.4613 15.3967C81.9216 14.2059 80.3827 13.0141 78.8444 11.8215C78.7039 11.7123 78.5912 11.7055 78.4271 11.7764C76.2615 12.713 74.0938 13.6443 71.9235 14.5701C71.887 14.5858 71.8485 14.5951 71.7344 14.6318L80.2314 1.01953Z" fill="black"></path>
    <path d="M56.7852 17.4792C56.8141 16.7452 56.932 16.0229 57.0005 15.2943C57.0646 14.5984 57.1546 13.9046 57.2314 13.2096C57.358 12.0711 57.4836 10.9321 57.6083 9.79252C57.7311 8.65231 57.8466 7.5117 57.9694 6.37197C58.0932 5.21661 58.2224 4.06175 58.356 2.84375C58.4216 2.95679 58.4602 3.01894 58.494 3.08304C59.4939 5.00325 60.4939 6.92314 61.4942 8.84267C61.574 8.98333 61.5969 9.14912 61.5583 9.30612C61.187 10.996 60.8231 12.6875 60.4665 14.3807C60.4496 14.4768 60.3987 14.5636 60.3232 14.6254C59.1663 15.5776 58.01 16.5307 56.8542 17.4846C56.8403 17.493 56.8253 17.4992 56.8096 17.5032L56.7852 17.4792Z" fill="black"></path>
    <path d="M45.6457 16.8398C45.6569 16.8494 45.6673 16.8598 45.6769 16.8709C45.6542 16.9025 45.6388 16.8843 45.625 16.8606L45.6457 16.8398Z" fill="black"></path>
    <path d="M56.8112 17.5007C56.7963 17.517 56.7805 17.5338 56.7617 17.5061C56.7617 17.5027 56.777 17.4869 56.7854 17.4766L56.8112 17.5007Z" fill="black"></path>
  </g>
  <defs>
    <clipPath id="clip0_3551_4236">
      <rect width="98.5909" height="20.2584" fill="white" transform="translate(0.484375 0.230469)"></rect>
    </clipPath>
  </defs>
</svg>
