<?xml version="1.0" encoding="UTF-8"?>
<svg xmlns="http://www.w3.org/2000/svg" width="86" height="25" viewBox="0 0 86 25" fill="none">
  <g clip-path="url(#clip0_3551_5092)">
    <path d="M32.4115 13.8521C32.0877 13.4248 31.6532 13.0941 31.1551 12.8959C31.4776 12.7108 31.7533 12.454 31.9608 12.1454C32.3023 11.6284 32.4762 11.0187 32.4589 10.3993C32.4609 9.8435 32.3237 9.29603 32.06 8.80679C31.7821 8.29231 31.3677 7.8644 30.8624 7.57013C30.263 7.2331 29.5823 7.06774 28.8951 7.09222H24.4496C24.3449 7.09222 24.2444 7.13383 24.1704 7.2079C24.0963 7.28197 24.0547 7.38243 24.0547 7.48719V19.0085C24.0547 19.1132 24.0963 19.2137 24.1704 19.2878C24.2444 19.3618 24.3449 19.4035 24.4496 19.4035H29.3572C30.0491 19.4235 30.7351 19.2701 31.3526 18.9571C31.8854 18.6722 32.3224 18.2366 32.609 17.7047C32.9095 17.1199 33.0588 16.4692 33.0434 15.812C33.0555 15.1068 32.8332 14.4175 32.4115 13.8521ZM25.8696 8.77638H28.8714C29.1047 8.76504 29.338 8.80008 29.5577 8.87947C29.7774 8.95886 29.9792 9.08102 30.1515 9.23889C30.3093 9.39141 30.4335 9.57536 30.5158 9.77886C30.5981 9.98235 30.6368 10.2009 30.6294 10.4202C30.6385 10.7415 30.5578 11.059 30.3963 11.3369C30.2451 11.5875 30.026 11.7902 29.7644 11.9215C29.4861 12.0553 29.1805 12.1229 28.8717 12.119H25.8696V8.77638ZM30.9335 16.8077C30.748 17.0958 30.4851 17.3258 30.1748 17.4712C29.8334 17.63 29.4607 17.7098 29.0842 17.7047H25.8696V13.8047H29.1952C29.5689 13.7956 29.9383 13.8856 30.266 14.0654C30.5629 14.2294 30.8069 14.4749 30.9691 14.7728C31.1344 15.0826 31.2188 15.4292 31.2143 15.7804C31.224 16.143 31.1263 16.5004 30.9335 16.8077Z" fill="black"></path>
    <path d="M35.0859 8.65975V6.92188H36.8727V8.26241C36.8727 8.36716 36.8311 8.46763 36.757 8.5417C36.683 8.61577 36.5825 8.65738 36.4777 8.65738L35.0859 8.65975ZM35.0859 19.4086V10.1713H36.8727V19.4066L35.0859 19.4086Z" fill="black"></path>
    <path d="M42.1498 11.6081V15.6858C42.1498 16.057 42.1538 16.377 42.1617 16.6499C42.1618 16.8923 42.2215 17.131 42.3355 17.345C42.4364 17.5183 42.5788 17.6639 42.7498 17.7688C42.9208 17.8736 43.1151 17.9344 43.3154 17.9458C43.8412 17.9941 44.371 17.9755 44.8921 17.8905V19.4036C44.329 19.5161 43.7551 19.5651 43.1811 19.5498C42.6667 19.5421 42.159 19.432 41.6877 19.2259C41.2591 19.0354 40.9089 18.7034 40.6959 18.2855C40.5008 17.9252 40.3899 17.5253 40.3717 17.116C40.3598 16.721 40.3519 16.2703 40.3519 15.7687V11.6081H38.977C38.8723 11.6081 38.7718 11.5665 38.6977 11.4924C38.6236 11.4183 38.582 11.3178 38.582 11.2131V10.1704H39.9569C40.0617 10.1704 40.1621 10.1288 40.2362 10.0547C40.3103 9.98066 40.3519 9.8802 40.3519 9.77545V7.60547H42.1498V10.17H44.8921V11.6081H42.1498Z" fill="black"></path>
    <path d="M48.8862 19.1267L46.3063 10.6744C46.2882 10.6151 46.2843 10.5525 46.2949 10.4915C46.3055 10.4305 46.3303 10.3728 46.3672 10.3231C46.4042 10.2735 46.4524 10.2332 46.5078 10.2056C46.5632 10.1779 46.6243 10.1637 46.6862 10.1641L47.9201 10.17L49.8523 16.5061L51.8023 10.17H53.3427L55.2919 16.5061L57.2249 10.17H58.9865L56.1628 19.4068H54.7263L52.5713 12.7195L50.4081 19.4068H49.2627C49.1782 19.4065 49.0961 19.3791 49.0284 19.3287C48.9606 19.2783 48.9108 19.2076 48.8862 19.1267Z" fill="black"></path>
    <path d="M68.6567 10.1695L63.5595 23.5085H62.4224C62.3588 23.5085 62.2961 23.4932 62.2397 23.4638C62.1833 23.4344 62.1348 23.3918 62.0984 23.3396C62.062 23.2875 62.0387 23.2273 62.0306 23.1642C62.0224 23.1011 62.0296 23.037 62.0515 22.9773L63.3779 19.3637L59.865 10.7138C59.8406 10.6539 59.8314 10.5889 59.8381 10.5245C59.8448 10.4602 59.8672 10.3985 59.9033 10.3448C59.9394 10.2911 59.9881 10.2471 60.0452 10.2167C60.1023 10.1863 60.166 10.1704 60.2307 10.1703H61.5049L64.2353 17.11L66.8422 10.168L68.6567 10.1695Z" fill="black"></path>
    <path d="M75.1467 10.1736V11.8487C74.8459 11.7733 74.5346 11.7482 74.2256 11.7745C73.8622 11.7973 73.5093 11.9056 73.1955 12.0905C72.89 12.2694 72.6311 12.518 72.4399 12.816C72.2697 13.0912 72.1468 13.3931 72.0766 13.7091C72.0006 14.0502 71.9635 14.3988 71.966 14.7482V19.4073H70.1602V10.5686C70.1602 10.4638 70.2018 10.3634 70.2759 10.2893C70.3499 10.2152 70.4504 10.1736 70.5551 10.1736H71.7523V11.6473C71.8191 11.5297 71.893 11.4163 71.9735 11.3076C72.1462 11.0676 72.3602 10.8602 72.6054 10.695C72.8436 10.5218 73.1075 10.3872 73.3875 10.2961C73.6747 10.2042 73.9718 10.147 74.2726 10.1258C74.5648 10.1053 74.8585 10.1214 75.1467 10.1736Z" fill="black"></path>
    <path d="M84.6764 15.293C84.7788 15.2931 84.8772 15.2534 84.9509 15.1823C85.0246 15.1112 85.0678 15.0142 85.0713 14.9119C85.1086 14.0652 84.9712 13.22 84.6677 12.4287C84.3765 11.6711 83.8575 11.0225 83.1822 10.5723C82.4652 10.1177 81.6281 9.88911 80.7796 9.91622C79.9497 9.89733 79.1307 10.108 78.4129 10.5249C77.7288 10.9326 77.1773 11.5294 76.8247 12.2434C76.4313 13.061 76.2376 13.9602 76.2595 14.8672C76.239 15.7386 76.4374 16.6013 76.8366 17.3761C77.2027 18.0815 77.7635 18.6671 78.4524 19.0634C79.1895 19.4744 80.0227 19.6817 80.8665 19.6638C81.7272 19.6736 82.573 19.438 83.3046 18.9844C84.0337 18.5282 84.6037 17.8573 84.9363 17.0641L83.1822 16.5111C82.9757 16.9583 82.6452 17.3368 82.2299 17.6016C81.7923 17.8633 81.2892 17.9949 80.7796 17.9812C80.4123 18.004 80.0448 17.9405 79.7065 17.7957C79.3683 17.6509 79.0686 17.4289 78.8316 17.1474C78.4307 16.6105 78.2033 15.9639 78.1799 15.2942L84.6764 15.293ZM78.2209 13.9023C78.2807 13.3377 78.4923 12.7998 78.8331 12.3457C79.0795 12.0557 79.3906 11.8277 79.7413 11.6801C80.0921 11.5325 80.4726 11.4695 80.8522 11.4962C81.1929 11.4705 81.5348 11.5271 81.849 11.6611C82.1633 11.7952 82.4407 12.0027 82.6581 12.2664C82.9931 12.7497 83.1899 13.3154 83.2272 13.9023H78.2209Z" fill="black"></path>
    <path d="M9.63672 0.601564V2.18145C10.6353 2.19208 11.6091 2.49324 12.4393 3.04816C13.2696 3.60308 13.9202 4.38774 14.3119 5.30633C14.7035 6.22492 14.8192 7.23767 14.6448 8.22092C14.4704 9.20416 14.0134 10.1153 13.3297 10.8432C13.8203 11.082 14.2826 11.3748 14.7082 11.7161C15.5519 10.7436 16.0982 9.54896 16.282 8.27466C16.4658 7.00036 16.2793 5.70008 15.7449 4.52877C15.2104 3.35746 14.3505 2.3645 13.2675 1.66821C12.1846 0.97192 10.9242 0.601665 9.63672 0.601562V0.601564Z" fill="url(#paint0_linear_3551_5092)"></path>
    <path d="M0.550782 2.18145V1.79438C0.550626 1.63769 0.581373 1.48251 0.641262 1.33772C0.701152 1.19293 0.789008 1.06138 0.899802 0.950583C1.0106 0.839789 1.14215 0.751933 1.28695 0.692043C1.43174 0.632154 1.58691 0.601407 1.7436 0.601563H9.63515V2.18145H0.550782Z" fill="url(#paint1_linear_3551_5092)"></path>
    <path d="M17.5346 17.5866C17.5346 19.5769 16.7439 21.4857 15.3366 22.893C13.9292 24.3004 12.0204 25.091 10.0301 25.091V23.5112C11.442 23.5101 12.807 23.0048 13.8793 22.0865C14.9517 21.1681 15.6608 19.897 15.879 18.5022C16.0972 17.1073 15.8101 15.6803 15.0694 14.4784C14.3287 13.2765 13.1832 12.3785 11.8391 11.9464C11.2549 11.7567 10.6443 11.6607 10.0301 11.662H1.7357C1.42144 11.662 1.12005 11.5371 0.897835 11.3149C0.67562 11.0927 0.550781 10.7913 0.550781 10.477V10.082H10.0301C11.1734 10.0799 12.3018 10.3407 13.3281 10.8444C13.8187 11.0831 14.281 11.3759 14.7066 11.7173C15.5901 12.4189 16.3035 13.3114 16.7932 14.3278C17.283 15.3443 17.5364 16.4583 17.5346 17.5866Z" fill="url(#paint2_linear_3551_5092)"></path>
    <path d="M13.5138 12.7945C12.3816 13.6012 11.0254 14.0335 9.63515 14.0307H0.550781V13.6397C0.551095 13.3245 0.676451 13.0223 0.899339 12.7994C1.12223 12.5765 1.42444 12.4511 1.73965 12.4508H9.63515C10.3986 12.4517 11.1523 12.2788 11.8391 11.9453C12.4389 12.1375 13.0042 12.4242 13.5138 12.7945Z" fill="url(#paint3_linear_3551_5092)"></path>
    <path d="M2.12672 2.17969H0.550781V10.0791H2.12672V2.17969Z" fill="#4E25F2"></path>
    <path d="M10.0301 23.5117V25.0916H1.71595C1.56293 25.0916 1.41139 25.0615 1.27 25.003C1.12861 24.9444 1.00014 24.8586 0.891936 24.7504C0.783729 24.6422 0.697906 24.5137 0.639369 24.3723C0.580832 24.231 0.55073 24.0794 0.550781 23.9264V23.5117H10.0301Z" fill="url(#paint4_linear_3551_5092)"></path>
    <path d="M2.13067 14.0312H0.550781V23.5105H2.13067V14.0312Z" fill="#4E25F2"></path>
    <path d="M9.63672 0.601564V2.18145C10.6353 2.19208 11.6091 2.49324 12.4393 3.04816C13.2696 3.60308 13.9202 4.38774 14.3119 5.30633C14.7035 6.22492 14.8192 7.23767 14.6448 8.22092C14.4704 9.20416 14.0134 10.1153 13.3297 10.8432C13.8203 11.082 14.2826 11.3748 14.7082 11.7161C15.5519 10.7436 16.0982 9.54896 16.282 8.27466C16.4658 7.00036 16.2793 5.70008 15.7449 4.52877C15.2104 3.35746 14.3505 2.3645 13.2675 1.66821C12.1846 0.97192 10.9242 0.601665 9.63672 0.601562V0.601564Z" fill="url(#paint5_linear_3551_5092)"></path>
    <path d="M0.550782 2.18145V1.79438C0.550626 1.63769 0.581373 1.48251 0.641262 1.33772C0.701152 1.19293 0.789008 1.06138 0.899802 0.950583C1.0106 0.839789 1.14215 0.751933 1.28695 0.692043C1.43174 0.632154 1.58691 0.601407 1.7436 0.601563H9.63515V2.18145H0.550782Z" fill="url(#paint6_linear_3551_5092)"></path>
    <path d="M17.5346 17.5866C17.5346 19.5769 16.7439 21.4857 15.3366 22.893C13.9292 24.3004 12.0204 25.091 10.0301 25.091V23.5112C11.442 23.5101 12.807 23.0048 13.8793 22.0865C14.9517 21.1681 15.6608 19.897 15.879 18.5022C16.0972 17.1073 15.8101 15.6803 15.0694 14.4784C14.3287 13.2765 13.1832 12.3785 11.8391 11.9464C11.2549 11.7567 10.6443 11.6607 10.0301 11.662H1.7357C1.42144 11.662 1.12005 11.5371 0.897835 11.3149C0.67562 11.0927 0.550781 10.7913 0.550781 10.477V10.082H10.0301C11.1734 10.0799 12.3018 10.3407 13.3281 10.8444C13.8187 11.0831 14.281 11.3759 14.7066 11.7173C15.5901 12.4189 16.3035 13.3114 16.7932 14.3278C17.283 15.3443 17.5364 16.4583 17.5346 17.5866Z" fill="url(#paint7_linear_3551_5092)"></path>
    <path d="M13.5138 12.7945C12.3816 13.6012 11.0254 14.0335 9.63515 14.0307H0.550781V13.6397C0.551095 13.3245 0.676451 13.0223 0.899339 12.7994C1.12223 12.5765 1.42444 12.4511 1.73965 12.4508H9.63515C10.3986 12.4517 11.1523 12.2788 11.8391 11.9453C12.4389 12.1375 13.0042 12.4242 13.5138 12.7945Z" fill="url(#paint8_linear_3551_5092)"></path>
    <path d="M2.12672 2.17969H0.550781V10.0791H2.12672V2.17969Z" fill="#3B1CEA"></path>
    <path d="M10.0301 23.5117V25.0916H1.71595C1.56293 25.0916 1.41139 25.0615 1.27 25.003C1.12861 24.9444 1.00014 24.8586 0.891936 24.7504C0.783729 24.6422 0.697906 24.5137 0.639369 24.3723C0.580832 24.231 0.55073 24.0794 0.550781 23.9264V23.5117H10.0301Z" fill="url(#paint9_linear_3551_5092)"></path>
    <path d="M2.13067 14.0312H0.550781V23.5105H2.13067V14.0312Z" fill="#3B1CEA"></path>
  </g>
  <defs>
    <linearGradient id="paint0_linear_3551_5092" x1="9.63672" y1="6.15882" x2="16.3513" y2="6.15882" gradientUnits="userSpaceOnUse">
      <stop stop-color="#4811E1"></stop>
      <stop offset="1" stop-color="#3527C1"></stop>
    </linearGradient>
    <linearGradient id="paint1_linear_3551_5092" x1="0.531823" y1="1.39151" x2="9.22675" y2="1.39151" gradientUnits="userSpaceOnUse">
      <stop offset="0.184" stop-color="#4E25F2"></stop>
      <stop offset="0.861" stop-color="#4811E1"></stop>
    </linearGradient>
    <linearGradient id="paint2_linear_3551_5092" x1="0.764066" y1="17.5866" x2="17.7479" y2="17.5866" gradientUnits="userSpaceOnUse">
      <stop offset="0.082" stop-color="#4E25F2"></stop>
      <stop offset="0.959" stop-color="#17ABE5"></stop>
    </linearGradient>
    <linearGradient id="paint3_linear_3551_5092" x1="0.550781" y1="12.988" x2="13.5138" y2="12.988" gradientUnits="userSpaceOnUse">
      <stop offset="0.138" stop-color="#4E25F2"></stop>
      <stop offset="0.393" stop-color="#4C25EE"></stop>
      <stop offset="0.631" stop-color="#4626E3"></stop>
      <stop offset="0.862" stop-color="#3D26D0"></stop>
      <stop offset="1" stop-color="#3527C1"></stop>
    </linearGradient>
    <linearGradient id="paint4_linear_3551_5092" x1="0.550781" y1="24.3016" x2="17.3873" y2="24.3016" gradientUnits="userSpaceOnUse">
      <stop offset="0.098" stop-color="#4E25F2"></stop>
      <stop offset="1" stop-color="#17ABE5"></stop>
    </linearGradient>
    <linearGradient id="paint5_linear_3551_5092" x1="9.63672" y1="6.15882" x2="16.3513" y2="6.15882" gradientUnits="userSpaceOnUse">
      <stop stop-color="#1E2DE8"></stop>
      <stop offset="1" stop-color="#143AC6"></stop>
    </linearGradient>
    <linearGradient id="paint6_linear_3551_5092" x1="0.531823" y1="1.39151" x2="9.22675" y2="1.39151" gradientUnits="userSpaceOnUse">
      <stop offset="0.184" stop-color="#3B1CEA"></stop>
      <stop offset="0.861" stop-color="#1E2DE8"></stop>
    </linearGradient>
    <linearGradient id="paint7_linear_3551_5092" x1="0.764066" y1="17.5866" x2="17.7479" y2="17.5866" gradientUnits="userSpaceOnUse">
      <stop offset="0.082" stop-color="#3B1CEA"></stop>
      <stop offset="0.984" stop-color="#0EA8E5"></stop>
    </linearGradient>
    <linearGradient id="paint8_linear_3551_5092" x1="0.550781" y1="12.988" x2="13.5138" y2="12.988" gradientUnits="userSpaceOnUse">
      <stop offset="0.138" stop-color="#3B1CEA"></stop>
      <stop offset="0.422" stop-color="#371FE7"></stop>
      <stop offset="0.687" stop-color="#2C28DC"></stop>
      <stop offset="0.944" stop-color="#1936CB"></stop>
      <stop offset="1" stop-color="#143AC6"></stop>
    </linearGradient>
    <linearGradient id="paint9_linear_3551_5092" x1="0.550781" y1="24.3016" x2="17.3873" y2="24.3016" gradientUnits="userSpaceOnUse">
      <stop offset="0.098" stop-color="#3B1CEA"></stop>
      <stop offset="1" stop-color="#0EA8E5"></stop>
    </linearGradient>
    <clipPath id="clip0_3551_5092">
      <rect width="85" height="24" fill="white" transform="translate(0.28125 0.84375)"></rect>
    </clipPath>
  </defs>
</svg>
