<?xml version="1.0" encoding="UTF-8"?>
<svg xmlns="http://www.w3.org/2000/svg" width="62" height="27" viewBox="0 0 62 27" fill="none">
  <g clip-path="url(#clip0_3551_4626)">
    <path d="M21.8596 13.1322L19.1114 11.5358V10.2723C19.1759 10.302 19.2264 10.3194 19.2717 10.3455L23.2468 12.6372C23.3494 12.6902 23.4343 12.7717 23.4916 12.8719C23.5488 12.9721 23.5758 13.0867 23.5693 13.2019C23.5693 15.2002 23.5693 17.1991 23.5693 19.1986C23.5759 19.3138 23.5491 19.4285 23.4922 19.5289C23.4354 19.6293 23.3508 19.7113 23.2486 19.765C21.5059 20.7699 19.7661 21.7749 18.0292 22.7798C17.9699 22.8147 17.9037 22.8409 17.841 22.8705C17.661 22.8844 17.4815 22.8384 17.3303 22.7398C17.0881 22.5952 16.8407 22.4627 16.5931 22.3251C16.5621 22.2987 16.5295 22.2742 16.4956 22.2519C15.4941 21.6709 14.4908 21.09 13.4859 20.5091C12.9875 20.2215 12.4926 19.9288 11.9958 19.6377L11.9541 19.5924C11.9154 19.4199 11.8863 19.2454 11.8669 19.0697C11.8512 18.8012 11.8669 18.5328 11.8565 18.2645C11.8565 18.2296 11.8565 18.1948 11.8565 18.1599V14.2684C11.8565 14.2283 11.8565 14.1883 11.8565 14.129C11.7833 14.1656 11.7205 14.1935 11.663 14.2266C10.9845 14.6193 10.306 15.012 9.62751 15.4047C9.16568 15.673 8.70734 15.9467 8.24727 16.2168C8.00851 16.3492 7.77325 16.4922 7.52752 16.6107C7.37087 16.6736 7.21018 16.726 7.04653 16.7675C6.63873 16.6089 6.54636 16.4451 6.60039 15.9885C6.71826 15.8682 6.84402 15.7558 6.97682 15.6521C7.20337 15.497 7.44561 15.3664 7.67391 15.2251C7.7227 15.2008 7.77499 15.1816 7.82204 15.1537C8.89788 14.5357 9.97028 13.917 11.0391 13.2977C11.1193 13.2524 11.1977 13.2019 11.2971 13.1426C10.762 12.8324 10.2514 12.5361 9.73904 12.2434L7.68088 11.0635C7.44387 10.9224 7.20512 10.7742 6.9716 10.6505C6.81028 10.572 6.67791 10.4445 6.59342 10.2863C6.55857 9.85066 6.63699 9.71118 7.00993 9.54038C7.20318 9.52975 7.39448 9.58364 7.55367 9.69375C7.78196 9.83145 8.01897 9.95517 8.25075 10.0859C8.71606 10.3612 9.18136 10.6383 9.64493 10.9085C10.3786 11.3319 11.1158 11.7502 11.8512 12.1702C12.1196 12.327 12.388 12.4856 12.6581 12.6407C12.7607 12.6926 12.8459 12.7733 12.9033 12.8731C12.9605 12.9727 12.9874 13.087 12.9805 13.2019C12.9805 13.5139 12.9805 13.8258 12.9805 14.1377C12.9805 14.5961 12.9805 15.0544 12.9805 15.511C12.9805 16.4346 12.9805 17.3565 12.9805 18.2802C12.9805 18.4945 12.916 18.7403 13.0014 18.9128C13.0868 19.0853 13.3203 19.1359 13.4893 19.2404C13.513 19.254 13.5375 19.2662 13.5626 19.277L16.8946 21.1957C16.9835 21.248 17.0777 21.2933 17.1701 21.3421L17.719 21.6733L18.2627 21.3421C18.7576 21.0598 19.2543 20.7809 19.7475 20.4952C20.4516 20.0897 21.1551 19.683 21.858 19.2752C22.02 19.1829 22.1874 19.101 22.3424 18.9947C22.37 18.9739 22.393 18.9478 22.4101 18.9178C22.4272 18.8879 22.438 18.8547 22.4418 18.8205C22.4539 18.6461 22.4418 18.4596 22.4418 18.2802C22.4418 17.1636 22.4418 16.0466 22.4418 14.9289C22.4418 14.6657 22.4418 14.4061 22.4418 14.1377C22.5167 13.6985 22.4418 13.3308 21.952 13.1862C21.9196 13.1712 21.8886 13.1531 21.8596 13.1322Z" fill="#EC1C3D"></path>
    <path d="M7.00767 22.8659C6.3373 22.4836 5.66694 22.102 4.99657 21.7209C3.89343 21.0866 2.79551 20.4435 1.68539 19.8162C1.55483 19.7522 1.44639 19.6506 1.37403 19.5245C1.30167 19.3984 1.26869 19.2536 1.27934 19.1086C1.28631 15.1247 1.28631 11.1426 1.27934 7.16222C1.26877 7.02285 1.30034 6.88353 1.36995 6.76232C1.43957 6.64113 1.54401 6.54366 1.66971 6.48255C3.38455 5.49617 5.10171 4.50573 6.8212 3.51121C6.88045 3.47636 6.94493 3.45022 7.00767 3.42059C7.10001 3.40279 7.1953 3.40782 7.28524 3.43527C7.37518 3.46272 7.45705 3.51174 7.52372 3.57806C7.59038 3.64438 7.63982 3.726 7.66773 3.81579C7.69564 3.90559 7.70118 4.00086 7.68385 4.09328C7.6787 4.16232 7.6787 4.23163 7.68385 4.30066C7.68385 4.3756 7.68385 4.45228 7.68385 4.52896V8.173L6.57199 8.81258V4.94548L5.82262 5.37592L2.99244 7.01931C2.87567 7.0838 2.76414 7.1535 2.64389 7.20753C2.55669 7.23131 2.48213 7.28804 2.43596 7.36576C2.38978 7.44347 2.37561 7.53608 2.39642 7.62404C2.40604 7.75573 2.40604 7.88795 2.39642 8.01964C2.39642 9.38361 2.39642 10.7493 2.39642 12.1168C2.39642 12.1168 2.41037 12.1342 2.42605 12.1551L5.73548 10.252V11.5365L2.42431 13.4534V18.2756L5.75814 16.3586C5.81522 16.7379 6.01384 17.0817 6.31407 17.3205C5.18652 17.9741 4.08686 18.6084 2.96107 19.2585L7.1436 21.6704L10.4984 19.736L11.6085 20.379C11.0403 20.7084 10.4966 21.0186 9.9564 21.3341C9.41611 21.6495 8.81836 21.9911 8.25023 22.3239C8.00974 22.4581 7.7675 22.5854 7.53049 22.7265C7.37653 22.8297 7.19258 22.8788 7.00767 22.8659Z" fill="#EC1C3D"></path>
    <path d="M17.8328 3.42032C18.4253 3.75666 19.0179 4.08952 19.6069 4.42936C20.7885 5.10902 21.9648 5.7939 23.1464 6.47008C23.3868 6.60601 23.5733 6.76286 23.5577 7.06261C23.542 7.36236 23.352 7.50177 23.1028 7.59937C22.925 7.55253 22.7503 7.49431 22.58 7.4251C22.3308 7.30485 22.0955 7.15498 21.8533 7.0173L18.5909 5.12644L17.7195 4.61932L13.5369 7.03124C14.0319 7.31705 14.4972 7.58717 14.966 7.85555C15.9402 8.41845 16.9144 8.98484 17.8938 9.54249C18.0127 9.59973 18.1119 9.6912 18.1787 9.80513C18.2455 9.91906 18.2767 10.0503 18.2685 10.1821C18.2685 12.1671 18.2685 14.152 18.2685 16.137C18.2685 16.4855 18.1692 16.6214 17.8032 16.7644C17.3501 16.7644 17.1287 16.4785 17.1654 16.0865C17.1657 16.016 17.1617 15.9455 17.1531 15.8756C17.1531 15.139 17.156 14.4006 17.1618 13.6606C17.1618 12.5801 17.1618 11.5013 17.1618 10.4122L16.9876 10.3041C16 9.73362 15.0125 9.16375 14.0249 8.59447C13.4847 8.29007 12.945 7.98683 12.4059 7.68476C12.3606 7.65514 12.3171 7.62202 12.27 7.59588C11.85 7.36758 11.7664 7.12883 11.9546 6.69142C12.0574 6.62171 12.155 6.54328 12.263 6.48054C13.6886 5.65682 15.1159 4.83077 16.5449 4.00239C16.8063 3.85252 17.0677 3.70612 17.3292 3.55102C17.4779 3.45267 17.655 3.40668 17.8328 3.42032Z" fill="#EC1C3D"></path>
    <path d="M17.8345 3.42234C17.6549 3.40751 17.4757 3.45354 17.3256 3.55304C17.0677 3.70814 16.8028 3.85454 16.5414 4.00441C16.5038 3.95896 16.4611 3.91802 16.4141 3.88241L12.5436 1.63081C12.5023 1.60594 12.4543 1.59443 12.4063 1.59787C12.3583 1.6013 12.3124 1.6195 12.2751 1.64999C11.9772 1.82426 11.6774 1.99853 11.3759 2.1728L7.6918 4.30242C7.68666 4.23338 7.68666 4.16406 7.6918 4.09503C7.70913 4.0026 7.7036 3.90734 7.67569 3.81754C7.64778 3.72774 7.59834 3.64612 7.53168 3.57981C7.465 3.51348 7.38314 3.46446 7.2932 3.43702C7.20326 3.40958 7.10796 3.40453 7.01562 3.42234C7.48267 3.14873 7.94624 2.86989 8.4098 2.59802L10.9699 1.11671C11.348 0.89016 11.7349 0.675804 12.1061 0.457964C12.2013 0.398638 12.3111 0.367188 12.4233 0.367188C12.5354 0.367188 12.6454 0.398638 12.7405 0.457964C13.7641 1.05049 14.7864 1.64302 15.8077 2.23555L17.7578 3.36134C17.7847 3.37989 17.8103 3.40027 17.8345 3.42234Z" fill="black"></path>
    <path d="M7.00781 22.8679C7.19293 22.8803 7.37689 22.8306 7.53063 22.7267C7.76765 22.5855 8.00988 22.4584 8.25038 22.3242L10.0767 23.3698C10.8227 23.8003 11.5668 24.2412 12.3162 24.6612C12.3486 24.6763 12.384 24.6841 12.4198 24.6841C12.4556 24.6841 12.4911 24.6763 12.5235 24.6612C13.1039 24.3352 13.6807 23.9972 14.2662 23.6643L16.5928 22.3259C16.8403 22.4636 17.0877 22.5961 17.3299 22.7407C17.4811 22.8393 17.6606 22.8853 17.8406 22.8714C17.4398 23.1066 17.0424 23.3454 16.6398 23.5789C15.6953 24.1261 14.7502 24.6716 13.8044 25.2154C13.4315 25.4297 13.055 25.6388 12.6804 25.8532C12.6038 25.9018 12.5149 25.9277 12.4242 25.9277C12.3334 25.9277 12.2446 25.9018 12.168 25.8532C11.5284 25.4872 10.8871 25.123 10.2511 24.7553C9.30531 24.2115 8.36017 23.6661 7.41561 23.1188C7.27793 23.0387 7.14375 22.9516 7.00781 22.8679Z" fill="black"></path>
    <path d="M58.542 16.854V20.0118H57.7734V14.6094H58.5193C58.8974 15.655 59.2808 16.7233 59.6625 17.7846H59.7008V14.6111H60.4729V20.0136H59.7392L58.5785 16.8401L58.542 16.854Z" fill="black"></path>
    <path d="M60.4729 12.2024H59.7358C59.3512 11.1463 58.9655 10.0902 58.5786 9.03412H58.5472V12.1972H57.7734V6.79471H58.5158C58.8992 7.85661 59.2809 8.92142 59.6608 9.98917H59.6957V6.79297H60.466L60.4729 12.2024Z" fill="black"></path>
    <path d="M27.3242 12.1977V6.75C27.8471 6.7744 28.3698 6.75 28.8735 6.83017C29.4416 6.91208 29.8023 7.40527 29.839 8.03265C29.8476 8.18588 29.8476 8.33949 29.839 8.49273C29.8163 8.86567 29.7361 9.00334 29.3597 9.35189C29.4383 9.41573 29.5133 9.48383 29.5845 9.55581C29.7418 9.73705 29.8279 9.9693 29.8268 10.2093C29.8457 10.5421 29.8323 10.876 29.7867 11.2061C29.6856 11.7987 29.2638 12.156 28.633 12.1925C28.2026 12.2152 27.7703 12.1977 27.3242 12.1977ZM28.0963 9.67776C28.0963 10.2494 28.0963 10.7688 28.0963 11.2898C28.0975 11.3271 28.101 11.3644 28.1067 11.4013C28.2878 11.4127 28.4694 11.4127 28.6504 11.4013C28.75 11.3959 28.8444 11.355 28.9163 11.2859C28.9883 11.2168 29.0331 11.1242 29.0425 11.0249C29.0679 10.7088 29.0679 10.3912 29.0425 10.0751C29.0353 9.98999 28.9987 9.91 28.9389 9.84893C28.8791 9.78787 28.7999 9.74955 28.7149 9.7405C28.5214 9.70218 28.3211 9.69696 28.0963 9.67776ZM28.1067 8.98069C28.5162 9.05737 28.8491 8.98069 28.9781 8.77157C29.107 8.56244 29.1349 7.98037 28.9781 7.7695C28.7532 7.45755 28.4221 7.51854 28.0963 7.52552L28.1067 8.98069Z" fill="black"></path>
    <path d="M48.3477 6.78906H49.1196V9.09642H50.0607V6.79081H50.8292V12.1933H50.0607V9.8249H49.1266V12.195H48.3477V6.78906Z" fill="black"></path>
    <path d="M33.7804 9.50629C33.7804 9.00617 33.7804 8.50426 33.7804 8.00236C33.7821 7.72224 33.8766 7.45059 34.049 7.22986C34.2215 7.00914 34.4623 6.8518 34.7337 6.78245C35.01 6.70154 35.3054 6.7154 35.5729 6.82183C35.8404 6.92826 36.0646 7.12114 36.2098 7.36975C36.3174 7.57878 36.3769 7.8092 36.384 8.04418C36.4032 9.02011 36.3962 9.99427 36.384 10.9685C36.3817 11.2787 36.2692 11.578 36.0664 11.8129C35.8637 12.0477 35.584 12.2028 35.2775 12.2503C34.9708 12.2979 34.6574 12.2348 34.393 12.0725C34.1287 11.9101 33.9306 11.659 33.8344 11.364C33.796 11.2237 33.7755 11.0791 33.7734 10.9336C33.7769 10.4544 33.7804 9.98037 33.7804 9.50629ZM34.5698 9.4854C34.5698 9.95772 34.5698 10.4317 34.5698 10.9057C34.5698 11.2543 34.7528 11.4494 35.0614 11.4564C35.1331 11.4659 35.2061 11.459 35.275 11.4365C35.3438 11.4138 35.4067 11.3761 35.4589 11.3258C35.5112 11.2756 35.5514 11.2143 35.5767 11.1463C35.602 11.0785 35.6117 11.0057 35.6051 10.9336C35.6138 9.97161 35.6051 9.01662 35.6051 8.04767C35.6096 7.95648 35.5886 7.86584 35.5446 7.78583C35.5006 7.70583 35.4352 7.63962 35.3559 7.59456C35.2772 7.54347 35.1861 7.51494 35.0923 7.51207C34.9986 7.5092 34.9058 7.53212 34.8243 7.57832C34.7427 7.62451 34.6753 7.69222 34.6295 7.77406C34.5837 7.8559 34.5613 7.94873 34.5646 8.04244C34.5646 8.52343 34.5646 9.00443 34.5646 9.4854H34.5698Z" fill="black"></path>
    <path d="M40.2599 17.3196C40.2599 17.8146 40.2599 18.3095 40.2599 18.8027C40.2631 19.0697 40.1799 19.3305 40.0229 19.5466C39.866 19.7626 39.6434 19.9222 39.3885 20.0017C39.1878 20.0751 38.972 20.0978 38.7603 20.0676C38.5487 20.0376 38.3477 19.9558 38.1753 19.8294C38.0029 19.703 37.8644 19.536 37.772 19.3432C37.6796 19.1504 37.6362 18.9379 37.6458 18.7243C37.6458 17.7849 37.6458 16.8439 37.6458 15.9045C37.6458 15.3538 37.8654 14.9095 38.3899 14.6847C38.62 14.5713 38.8784 14.5285 39.1327 14.5617C39.387 14.5949 39.6257 14.7026 39.819 14.8712C39.9629 14.9881 40.078 15.1367 40.155 15.3053C40.2321 15.474 40.2692 15.6582 40.2634 15.8436C40.2651 16.3315 40.2599 16.8247 40.2599 17.3196ZM39.4687 17.3196C39.4687 16.8316 39.4687 16.3438 39.4687 15.8558C39.4725 15.791 39.463 15.7261 39.441 15.665C39.4189 15.604 39.3847 15.548 39.3404 15.5006C39.2961 15.4532 39.2425 15.4153 39.1832 15.3891C39.1238 15.363 39.0596 15.3492 38.9947 15.3486C38.9304 15.3409 38.8652 15.346 38.8029 15.3637C38.7407 15.3814 38.6825 15.4113 38.632 15.4517C38.5813 15.4921 38.5393 15.5421 38.5081 15.5989C38.4771 15.6557 38.4577 15.7182 38.451 15.7826C38.4362 15.8648 38.4292 15.9483 38.43 16.0318C38.43 16.8892 38.43 17.7461 38.43 18.6023C38.4309 18.7136 38.4431 18.8246 38.4667 18.9334C38.4914 19.0285 38.5454 19.1133 38.6211 19.1759C38.6968 19.2384 38.7904 19.2755 38.8884 19.282C38.9628 19.2965 39.0397 19.2936 39.1128 19.2735C39.1859 19.2533 39.2534 19.2164 39.3099 19.1657C39.3663 19.115 39.4102 19.0519 39.438 18.9813C39.4659 18.9108 39.477 18.8347 39.4705 18.7591C39.4757 18.2747 39.4687 17.7919 39.4687 17.3126V17.3196Z" fill="black"></path>
    <path d="M54.3147 17.2939C54.3147 16.7849 54.3025 16.276 54.3147 15.769C54.3248 15.4951 54.4243 15.2322 54.5981 15.0204C54.7718 14.8086 55.0102 14.6595 55.2767 14.5961C55.5474 14.5234 55.8343 14.5385 56.0958 14.6393C56.3573 14.7402 56.5801 14.9216 56.7319 15.1573C56.8681 15.3861 56.9357 15.6491 56.9271 15.9153C56.9271 16.8477 56.9271 17.7817 56.9271 18.7142C56.9271 19.2544 56.7214 19.697 56.2091 19.934C55.9841 20.0495 55.7306 20.0976 55.479 20.0726C55.2274 20.0475 54.9883 19.9504 54.7905 19.7929C54.6345 19.6744 54.5093 19.52 54.4256 19.3428C54.3418 19.1657 54.302 18.9709 54.3095 18.7751C54.3095 18.2802 54.3095 17.787 54.3095 17.2921L54.3147 17.2939ZM55.106 17.2939V18.3395C55.106 18.4998 55.106 18.6601 55.106 18.8204C55.1176 18.9421 55.1724 19.0556 55.2604 19.1403C55.3485 19.2252 55.464 19.2757 55.5859 19.2829C55.708 19.29 55.8285 19.2533 55.9259 19.1794C56.0232 19.1055 56.0909 18.9992 56.1167 18.8797C56.1342 18.7984 56.143 18.7154 56.1429 18.6322C56.1429 17.7609 56.1429 16.8755 56.1429 15.999C56.142 15.8471 56.1062 15.6974 56.0383 15.5615C55.9809 15.4699 55.8946 15.3998 55.7931 15.3622C55.6916 15.3247 55.5804 15.3219 55.4771 15.3542C55.3693 15.3748 55.2721 15.433 55.2032 15.5186C55.1342 15.6041 55.0979 15.7114 55.1007 15.8213C55.099 16.3109 55.106 16.7989 55.106 17.2869V17.2939Z" fill="black"></path>
    <path d="M44.0609 12.2015H43.2314L42.3599 9.82269C42.1979 10.1992 41.9156 10.464 41.94 10.8684C41.9609 11.2361 41.94 11.6072 41.94 11.9767C41.94 12.0429 41.94 12.1109 41.9313 12.1876H41.168V6.78516H41.94V9.16397L41.9853 9.17443L43.0832 6.7869H43.871C43.7141 7.11279 43.5677 7.41777 43.4195 7.72274C43.2453 8.07129 43.0815 8.41984 42.8968 8.76838C42.8637 8.82374 42.8447 8.88633 42.8413 8.95073C42.8379 9.01512 42.8504 9.07935 42.8776 9.13784C43.2418 10.0632 43.5973 10.9921 43.9564 11.9262C43.9911 12.0064 44.0208 12.0918 44.0609 12.2015Z" fill="black"></path>
    <path d="M34.1172 18.4894H34.891C34.9085 18.6271 34.9137 18.7595 34.9415 18.8868C35.0043 19.1709 35.2151 19.2963 35.5637 19.2702C35.6206 19.2711 35.677 19.2606 35.7296 19.2391C35.7823 19.2177 35.8301 19.1859 35.8702 19.1455C35.9102 19.1051 35.9417 19.057 35.9627 19.0042C35.9837 18.9514 35.9938 18.8948 35.9924 18.8379C36.0064 18.6166 36.0011 18.3936 35.9924 18.1705C35.994 18.072 35.9641 17.9756 35.907 17.8953C35.8499 17.8151 35.7687 17.7552 35.6752 17.7244C35.487 17.6494 35.3057 17.5623 35.1158 17.4926C34.2898 17.1876 34.1416 16.6788 34.166 15.9049C34.1726 15.8007 34.1894 15.6974 34.2166 15.5965C34.2714 15.2762 34.4482 14.9895 34.7097 14.7966C34.9711 14.6036 35.2971 14.5193 35.6194 14.5614C35.9387 14.5875 36.2368 14.7309 36.4567 14.9638C36.6764 15.1968 36.8022 15.5028 36.8097 15.8231C36.8097 15.9311 36.8097 16.0426 36.8097 16.1716H36.0186C36.0098 16.0687 36.0064 15.9607 35.9958 15.8526C35.9931 15.7256 35.943 15.6043 35.8552 15.5123C35.7675 15.4204 35.6486 15.3647 35.5218 15.356C35.404 15.339 35.2841 15.3678 35.1868 15.4365C35.0895 15.5052 35.0224 15.6086 34.9991 15.7255C34.9667 15.8825 34.9527 16.0427 34.9572 16.203C34.9521 16.3223 34.9868 16.4401 35.0559 16.5375C35.1249 16.635 35.2245 16.7067 35.3389 16.7415C35.5671 16.8268 35.7885 16.9296 36.0168 17.0116C36.2186 17.0725 36.3977 17.1919 36.5314 17.3548C36.6652 17.5178 36.7475 17.7167 36.7679 17.9265C36.8399 18.352 36.8215 18.7878 36.7139 19.2056C36.5291 19.84 36.0569 20.1311 35.3093 20.077C35.0223 20.0561 34.7511 19.9378 34.5406 19.7415C34.3301 19.5454 34.1931 19.2831 34.1521 18.9983C34.1294 18.8379 34.1276 18.6637 34.1172 18.4894Z" fill="black"></path>
    <path d="M30.6394 18.4912H31.3782C31.3957 18.6306 31.4009 18.7614 31.4288 18.8885C31.4915 19.1726 31.7024 19.2981 32.0527 19.2719C32.1089 19.272 32.1645 19.2607 32.2163 19.2388C32.268 19.217 32.3149 19.1849 32.3541 19.1446C32.3933 19.1044 32.4239 19.0566 32.4442 19.0042C32.4647 18.9518 32.4743 18.8959 32.4727 18.8398C32.4866 18.6097 32.4814 18.3797 32.4727 18.1427C32.4725 18.0546 32.4457 17.9685 32.396 17.8958C32.3463 17.8231 32.2759 17.767 32.1938 17.7349C31.9969 17.6495 31.8 17.5606 31.5978 17.4857C30.7665 17.1789 30.6184 16.6665 30.6515 15.898C30.6665 15.6897 30.716 15.4853 30.798 15.2933C30.9098 15.0352 31.1057 14.8227 31.3538 14.6901C31.6019 14.5575 31.8875 14.5128 32.1642 14.5631C32.4464 14.5962 32.709 14.7237 32.9096 14.9249C33.1102 15.1261 33.2368 15.3892 33.2691 15.6714C33.2847 15.8283 33.2865 15.9868 33.297 16.1734H32.5006C32.4919 16.0548 32.4883 15.9469 32.4761 15.8405C32.4744 15.7099 32.422 15.5851 32.3299 15.4925C32.2379 15.3999 32.1136 15.3465 31.9829 15.3438C31.8709 15.3288 31.7573 15.3563 31.6645 15.4207C31.5716 15.4853 31.5061 15.5821 31.4811 15.6924C31.4454 15.8642 31.4302 16.0397 31.4358 16.2152C31.4313 16.3323 31.4663 16.4475 31.5352 16.5423C31.6041 16.6371 31.7029 16.706 31.8157 16.738C32.0509 16.8269 32.2792 16.9297 32.5128 17.0169C32.7068 17.0787 32.8788 17.1954 33.008 17.3528C33.1372 17.5102 33.2183 17.7016 33.2412 17.9039C33.3131 18.3228 33.3 18.7518 33.2029 19.1656C32.992 19.9638 32.1154 20.3246 31.3242 19.9463C31.0629 19.8163 30.8531 19.6018 30.7289 19.3378C30.6046 19.0737 30.5731 18.7754 30.6394 18.4912Z" fill="black"></path>
    <path d="M30.1961 20.0154H29.4084C29.3317 19.6302 29.255 19.252 29.1784 18.8668H28.1327C28.056 19.2433 27.9794 19.6215 27.8992 20.0118H27.1133C27.5158 18.2064 27.9167 16.4114 28.3209 14.6094H28.9884C29.3893 16.4009 29.7918 18.2029 30.1961 20.0154ZM29.0268 18.0983C28.9047 17.4657 28.7845 16.854 28.666 16.2406H28.6399C28.5214 16.854 28.4045 17.4605 28.2913 18.1001L29.0268 18.0983Z" fill="black"></path>
    <path d="M47.3192 14.6055H47.9849C48.3875 16.4039 48.7883 18.2025 49.1944 20.0184H48.4049C48.3283 19.6368 48.2533 19.2568 48.1766 18.8717H47.131C47.056 19.2428 46.9776 19.621 46.8992 20.0131H46.1133C46.5141 18.2077 46.9149 16.4092 47.3192 14.6055ZM48.0163 18.1049C47.8926 17.4635 47.7723 16.8466 47.6521 16.228H47.6224L47.2739 18.1049H48.0163Z" fill="black"></path>
    <path d="M52.9986 6.78906H53.6573C54.0582 8.58407 54.459 10.3791 54.865 12.1915H54.0825C54.0058 11.8134 53.9309 11.4334 53.8525 11.05H52.8069C52.7302 11.4299 52.6552 11.8081 52.5768 12.1967H51.7891C52.1952 10.3913 52.596 8.59278 52.9986 6.78906ZM52.9497 10.2745H53.6973C53.5772 9.64189 53.4586 9.0302 53.3401 8.4185H53.3088L52.9497 10.2745Z" fill="black"></path>
    <path d="M47.3198 8.34542H46.5443C46.5443 8.2426 46.5356 8.14152 46.5269 8.04044C46.5269 7.92829 46.4907 7.81912 46.424 7.72905C46.3571 7.63899 46.263 7.57281 46.1557 7.54029C46.1005 7.52368 46.0426 7.51841 45.9854 7.52479C45.9281 7.53117 45.8728 7.54906 45.8226 7.57738C45.7724 7.60572 45.7286 7.6439 45.6936 7.68964C45.6586 7.73537 45.6332 7.78772 45.6189 7.84352C45.5925 7.95132 45.5791 8.06189 45.5789 8.17289C45.5789 9.06517 45.5789 9.95685 45.5789 10.848C45.5788 10.9383 45.5893 11.0285 45.6102 11.1164C45.6199 11.2156 45.6677 11.3072 45.7433 11.3721C45.819 11.4371 45.9168 11.4703 46.0162 11.4649C46.121 11.4823 46.2284 11.4592 46.3168 11.4003C46.4052 11.3414 46.4678 11.2511 46.492 11.1477C46.5231 10.9936 46.5434 10.8375 46.5531 10.6807H47.3006C47.4104 11.3987 47.0549 12.0208 46.4293 12.2107C45.5789 12.4705 44.8051 11.9284 44.7912 11.0414C44.7754 10.0237 44.7807 9.00592 44.7912 7.98817C44.7872 7.82371 44.8164 7.66015 44.8772 7.5073C44.938 7.35446 45.0292 7.21549 45.1451 7.09877C45.261 6.98205 45.3993 6.88997 45.5517 6.82808C45.7041 6.76619 45.8674 6.73576 46.032 6.73863C46.7464 6.72295 47.2763 7.24054 47.3198 7.99687C47.325 8.10144 47.3198 8.21123 47.3198 8.34542Z" fill="black"></path>
    <path d="M43.6268 16.1625H42.8617C42.8533 16.0082 42.8353 15.8546 42.8076 15.7024C42.7956 15.6383 42.77 15.5774 42.7324 15.5241C42.6948 15.4707 42.6462 15.4259 42.5899 15.3929C42.5336 15.3598 42.4708 15.3393 42.4059 15.3326C42.3409 15.3259 42.2753 15.3332 42.2134 15.3539C42.1452 15.3702 42.083 15.4055 42.0343 15.4558C41.9855 15.5061 41.9521 15.5693 41.938 15.638C41.912 15.7459 41.898 15.8564 41.8962 15.9674C41.8962 16.8666 41.8962 17.7653 41.8962 18.6634C41.8962 18.7466 41.9049 18.8295 41.9224 18.9109C41.935 19.0108 41.9849 19.1023 42.0621 19.1669C42.1394 19.2316 42.2383 19.2646 42.3388 19.2594C42.4475 19.2727 42.557 19.2441 42.6451 19.1793C42.7332 19.1145 42.7933 19.0184 42.8128 18.9109C42.8383 18.7638 42.8552 18.6154 42.8634 18.4664H43.6041C43.6642 18.7269 43.6441 18.9995 43.5465 19.2483C43.4488 19.4971 43.2781 19.7106 43.0568 19.8606C42.8289 19.9963 42.5669 20.064 42.3017 20.056C42.0366 20.048 41.7792 19.9645 41.5599 19.8153C41.1974 19.5487 41.112 19.1601 41.1016 18.7435C41.1016 18.3828 41.1016 18.0203 41.1016 17.6578C41.1016 17.0513 41.1016 16.438 41.1016 15.8401C41.112 15.0891 41.5948 14.5697 42.2935 14.5383C42.4652 14.526 42.6375 14.5494 42.7995 14.6072C42.9616 14.6648 43.11 14.7555 43.2353 14.8733C43.3606 14.9913 43.4601 15.1339 43.5275 15.2922C43.5948 15.4505 43.6286 15.6211 43.6268 15.7931C43.6372 15.9099 43.6268 16.0266 43.6268 16.1625Z" fill="black"></path>
    <path d="M39.2539 10.6704H40.0156C40.0723 10.8796 40.0743 11.1 40.0213 11.3102C39.9684 11.5205 39.8623 11.7136 39.7132 11.8711C39.5641 12.0286 39.3771 12.1451 39.17 12.2095C38.963 12.2739 38.7428 12.2839 38.5307 12.2388C37.8877 12.122 37.5409 11.6985 37.5391 11.0415C37.5391 10.0168 37.5391 8.99382 37.5391 7.97084C37.5374 7.80679 37.5689 7.64408 37.6315 7.49245C37.6941 7.34083 37.7867 7.20338 37.9037 7.08836C38.0207 6.97333 38.1596 6.88308 38.3123 6.82301C38.4649 6.76293 38.6282 6.73428 38.7922 6.73873C38.955 6.73574 39.1167 6.76498 39.2681 6.82477C39.4195 6.88456 39.5576 6.97371 39.6743 7.08711C39.7912 7.20051 39.8844 7.33589 39.9486 7.48548C40.0129 7.63505 40.0469 7.79587 40.0487 7.95864C40.0487 8.08412 40.0487 8.20959 40.0487 8.34901H39.2592C39.2592 8.24793 39.2592 8.13988 39.2592 8.03184C39.2619 7.95306 39.245 7.87486 39.21 7.80421C39.1751 7.73355 39.1232 7.67264 39.059 7.62692C38.9949 7.58119 38.9203 7.55205 38.8421 7.54212C38.7639 7.5322 38.6845 7.54178 38.6109 7.57001C38.5358 7.59802 38.4703 7.64712 38.4224 7.71143C38.3745 7.77573 38.3461 7.85249 38.3408 7.9325C38.3303 8.00871 38.3268 8.08571 38.3303 8.16254V10.8689C38.3268 10.9317 38.3268 10.9945 38.3303 11.0572C38.3311 11.113 38.3433 11.1681 38.3662 11.2191C38.3889 11.2701 38.4219 11.3159 38.463 11.3538C38.5041 11.3916 38.5525 11.4207 38.6051 11.4392C38.6578 11.4577 38.7138 11.4654 38.7695 11.4615C38.8853 11.4718 39.0005 11.436 39.0902 11.362C39.1799 11.2879 39.2369 11.1816 39.2487 11.0659C39.2575 10.9342 39.2593 10.8022 39.2539 10.6704Z" fill="black"></path>
    <path d="M50.9678 20.0206H50.1783V15.3536H49.2773V14.6094H51.8356V15.3344H50.9643L50.9678 20.0206Z" fill="black"></path>
    <path d="M30.8516 12.1954V6.79297H31.6305V11.4181H33.1398V12.1954H30.8516Z" fill="black"></path>
    <path d="M17.1574 15.8789C17.1646 15.9472 17.1675 16.0159 17.1661 16.0846C17.1295 16.4766 17.3508 16.7589 17.8039 16.7625C17.5879 16.8984 17.3752 17.0378 17.1556 17.1667C16.2029 17.7198 15.2497 18.2711 14.2958 18.8206C14.0518 18.9617 13.8148 19.1169 13.5743 19.265C13.5492 19.2542 13.5248 19.242 13.5011 19.2284C13.3269 19.1239 13.0899 19.0541 13.0131 18.9008C12.9365 18.7474 12.9922 18.4825 12.9922 18.2682C13.1805 18.1653 13.3704 18.0677 13.5569 17.9597C14.7582 17.2696 15.9583 16.576 17.1574 15.8789Z" fill="black"></path>
    <path d="M21.8586 7.01953C22.1009 7.15721 22.3361 7.30708 22.5853 7.42733C22.7557 7.49655 22.9303 7.55475 23.1082 7.6016C22.7091 7.83686 22.3117 8.07562 21.9109 8.30914L19.6576 9.61271L19.1539 9.89501L18.6172 8.94001C18.7183 8.87727 18.8506 8.78665 18.9919 8.70474L21.6059 7.20078C21.6966 7.14849 21.775 7.08052 21.8586 7.01953Z" fill="black"></path>
    <path d="M31.9771 22.4102H32.4738V25.8085H32.0138L31.2992 23.8567H31.2644V25.8085H30.7852V22.4171H31.2539C31.4805 23.0427 31.7105 23.6789 31.9388 24.3167H31.9754L31.9771 22.4102Z" fill="#EC1C3D"></path>
    <path d="M22.4391 18.2742C22.4391 18.4484 22.4531 18.635 22.4391 18.8144C22.4354 18.8487 22.4245 18.8818 22.4075 18.9119C22.3904 18.9418 22.3674 18.968 22.3398 18.9887C22.1847 19.0933 22.0174 19.1769 21.8554 19.2693C21.5799 19.095 21.3081 18.9207 21.0275 18.7587C20.2311 18.2916 19.4312 17.8333 18.6313 17.3645L18.5703 17.3226C18.6923 17.1818 18.8052 17.0334 18.9084 16.8783C18.9917 16.714 19.0645 16.5447 19.1263 16.3711C19.4748 16.5733 19.8233 16.772 20.1614 16.9671L22.4391 18.2742Z" fill="black"></path>
    <path d="M55.8438 6.78906H56.6035V12.1915H55.8438V6.78906Z" fill="black"></path>
    <path d="M53.4664 20.0235H52.7031V14.6211H53.4664V20.0235Z" fill="black"></path>
    <path d="M21.8592 13.1328C21.8879 13.1512 21.9182 13.1669 21.9498 13.1798C22.4482 13.3245 22.5144 13.6922 22.4395 14.1313L20.8327 15.0498L19.2643 15.9525C19.2242 15.9752 19.1789 15.9891 19.1004 16.0223C19.1179 15.732 19.1179 15.4411 19.1004 15.1508C19.0604 14.8406 19.2033 14.6977 19.4489 14.5601C20.221 14.1349 20.9826 13.6888 21.7459 13.2461C21.7881 13.2131 21.8262 13.175 21.8592 13.1328Z" fill="black"></path>
    <path d="M45.3965 20.0196H44.6523V14.6172H45.3965V20.0196Z" fill="black"></path>
    <path d="M18.2626 21.3422L17.7188 21.6734L17.1699 21.3422C17.1699 20.3332 17.1699 19.3242 17.1699 18.3134C17.1625 18.2493 17.1767 18.1845 17.2101 18.1293C17.2435 18.0741 17.2943 18.0315 17.3547 18.0084C17.5794 17.8969 17.7886 17.7592 18.0047 17.6337C18.0761 17.5936 18.1493 17.5571 18.2661 17.4961L18.2626 21.3422Z" fill="black"></path>
    <path d="M42.956 25.8066L42.5047 24.3759H42.2328V25.8066H41.7344V22.4101C42.0602 22.4101 42.3809 22.3927 42.6981 22.4101C42.8388 22.4176 42.9735 22.4696 43.0828 22.5585C43.1921 22.6475 43.2704 22.7688 43.3063 22.9051C43.4082 23.1854 43.4155 23.4914 43.3272 23.7764C43.2338 23.9756 43.1206 24.1647 42.9891 24.341C43.1338 24.7733 43.3045 25.2821 43.4823 25.8084L42.956 25.8066ZM42.2328 23.9228C42.4506 23.8949 42.6946 24.0012 42.8131 23.7607C42.8731 23.6462 42.9037 23.5185 42.9022 23.3893C42.9006 23.26 42.8671 23.1331 42.8044 23.02C42.6824 22.8005 42.4436 22.8789 42.2328 22.8684V23.9228Z" fill="#EC1C3D"></path>
    <path d="M41.1717 24.1191C41.1717 24.4172 41.1717 24.7169 41.1717 25.0149C41.1771 25.1212 41.161 25.2276 41.1242 25.3276C41.0876 25.4275 41.0311 25.5191 40.9582 25.5966C40.8853 25.6743 40.7975 25.7364 40.7 25.7793C40.6025 25.8222 40.4974 25.8449 40.391 25.8461C40.2845 25.8583 40.1767 25.8481 40.0745 25.8162C39.9723 25.7842 39.8779 25.7314 39.7973 25.6608C39.7168 25.5902 39.6518 25.5036 39.6067 25.4064C39.5616 25.3094 39.5372 25.2038 39.5353 25.0968C39.5091 24.445 39.5091 23.7898 39.5353 23.1362C39.5374 23.0273 39.5623 22.9202 39.6084 22.8216C39.6544 22.7228 39.7206 22.6349 39.8027 22.5634C39.8848 22.4918 39.9809 22.4382 40.0849 22.406C40.1889 22.3739 40.2985 22.3637 40.4066 22.3764C40.5131 22.3797 40.6179 22.4044 40.7148 22.449C40.8115 22.4936 40.8983 22.5573 40.97 22.636C41.0417 22.7149 41.0969 22.8074 41.1321 22.908C41.1673 23.0086 41.1819 23.1153 41.1751 23.2216C41.1717 23.5196 41.1699 23.8193 41.1717 24.1191ZM40.0302 24.0843C40.0302 24.3962 40.0302 24.7099 40.0302 25.0236C40.0259 25.0655 40.0306 25.1078 40.0442 25.1477C40.0577 25.1876 40.0797 25.2242 40.1087 25.2548C40.1376 25.2853 40.1729 25.3094 40.212 25.3251C40.251 25.3408 40.2931 25.348 40.3351 25.346C40.3788 25.3506 40.4231 25.3457 40.4647 25.3315C40.5064 25.3173 40.5444 25.2943 40.5762 25.264C40.6081 25.2336 40.6329 25.1967 40.649 25.1558C40.6652 25.1149 40.6722 25.071 40.6697 25.0271C40.6697 24.4224 40.6697 23.8159 40.6697 23.2112C40.6716 23.167 40.6643 23.123 40.6484 23.0817C40.6324 23.0405 40.6083 23.003 40.5772 22.9715C40.5462 22.9401 40.509 22.9153 40.4681 22.8988C40.427 22.8823 40.383 22.8743 40.3389 22.8756C40.2947 22.8768 40.2513 22.887 40.2112 22.9058C40.1712 22.9244 40.1354 22.9512 40.1061 22.9843C40.0769 23.0174 40.0547 23.0561 40.0411 23.0982C40.0274 23.1402 40.0225 23.1846 40.0267 23.2286C40.0267 23.5144 40.0302 23.7985 40.0302 24.0843Z" fill="#EC1C3D"></path>
    <path d="M34.7511 23.3873H34.2456C34.2456 23.3158 34.2456 23.2478 34.23 23.1799C34.2284 23.138 34.2186 23.0968 34.2011 23.0587C34.1836 23.0206 34.1588 22.9864 34.128 22.9579C34.0972 22.9294 34.0611 22.9072 34.0219 22.8927C33.9825 22.8782 33.9408 22.8715 33.8988 22.8731C33.8568 22.873 33.8151 22.8816 33.7764 22.8984C33.7378 22.9151 33.703 22.9395 33.6742 22.9703C33.6454 23.001 33.6233 23.0373 33.6091 23.077C33.5951 23.1166 33.5893 23.1588 33.5921 23.2008C33.5921 23.8061 33.5921 24.412 33.5921 25.0185C33.5865 25.0604 33.5901 25.1031 33.6027 25.1435C33.6154 25.184 33.6368 25.2211 33.6654 25.2524C33.694 25.2836 33.729 25.3082 33.7682 25.3244C33.8074 25.3406 33.8496 25.348 33.8918 25.3461C33.9356 25.3512 33.9798 25.3468 34.0216 25.3331C34.0635 25.3193 34.1018 25.2966 34.134 25.2666C34.1661 25.2366 34.1914 25.1999 34.2079 25.1592C34.2245 25.1184 34.232 25.0746 34.23 25.0307C34.2422 24.8215 34.23 24.6141 34.23 24.3858H33.8675V23.9362H34.7214C34.7214 24.3597 34.7493 24.7641 34.7214 25.1561C34.6893 25.3498 34.5886 25.5255 34.4376 25.651C34.2866 25.7765 34.0955 25.8435 33.8992 25.8397C33.7029 25.8359 33.5146 25.7615 33.3686 25.6303C33.2226 25.499 33.1287 25.3195 33.1042 25.1248C33.0763 24.8076 33.092 24.4852 33.0902 24.1645C33.0884 23.8439 33.0815 23.5092 33.0902 23.1834C33.0849 22.986 33.1533 22.7937 33.2823 22.6441C33.4112 22.4946 33.5913 22.3986 33.7873 22.3748C33.9708 22.3434 34.1595 22.3767 34.3211 22.4693C34.4825 22.5618 34.6069 22.7077 34.6726 22.8819C34.7124 23.0479 34.7386 23.217 34.7511 23.3873Z" fill="#EC1C3D"></path>
    <path d="M28.9166 23.3867H28.4356C28.4182 23.2891 28.4077 23.1932 28.3833 23.1009C28.368 23.0319 28.328 22.9708 28.271 22.9291C28.2138 22.8874 28.1435 22.868 28.0731 22.8743C28.0028 22.8727 27.9342 22.8962 27.8796 22.9406C27.8249 22.985 27.7879 23.0473 27.7752 23.1165C27.6793 23.4651 27.7752 23.6516 28.0853 23.7823C28.169 23.8154 28.2596 23.8519 28.338 23.8781C28.5126 23.9222 28.6661 24.0265 28.7715 24.1724C28.877 24.3183 28.9278 24.4967 28.9149 24.6763C28.9187 24.8566 28.9059 25.0368 28.8765 25.2148C28.8016 25.6365 28.5071 25.8562 28.0522 25.8474C27.8591 25.8531 27.6705 25.788 27.5219 25.6645C27.3733 25.5409 27.275 25.3674 27.2453 25.1765C27.2296 25.0753 27.2314 24.9726 27.2227 24.8558H27.7228C27.7228 24.9098 27.7228 24.9568 27.7351 25.0039C27.7525 25.2391 27.8518 25.342 28.0679 25.3524C28.284 25.363 28.3903 25.2583 28.4165 25.0248C28.4165 24.9482 28.4165 24.8714 28.4165 24.7948C28.4165 24.5003 28.3746 24.4462 28.0958 24.3295L27.8065 24.211C27.6647 24.14 27.5412 24.0369 27.4461 23.9099C27.351 23.783 27.2868 23.6356 27.2586 23.4795C27.2303 23.3234 27.2389 23.1629 27.2834 23.0106C27.328 22.8584 27.4074 22.7186 27.5155 22.6024C27.6305 22.4886 27.7774 22.4123 27.9367 22.3837C28.0961 22.3551 28.2602 22.3754 28.4077 22.4421C28.5574 22.4937 28.687 22.591 28.7786 22.72C28.8702 22.8491 28.919 23.0036 28.9184 23.1618C28.9201 23.2246 28.9166 23.2943 28.9166 23.3867Z" fill="#EC1C3D"></path>
    <path d="M35.7016 25.1009C35.6563 25.3257 35.6075 25.5558 35.557 25.798H35.0586C35.3113 24.6687 35.5622 23.5464 35.8149 22.4102H36.2384C36.4882 23.5267 36.7409 24.6572 36.9965 25.8015H36.4981L36.3534 25.0957L35.7016 25.1009ZM36.2593 24.6077C36.1826 24.2174 36.1094 23.8392 36.0362 23.4627H36.0101C35.9386 23.8392 35.8654 24.2156 35.7906 24.6043L36.2593 24.6077Z" fill="#EC1C3D"></path>
    <path d="M37.4492 22.4147C37.7612 22.4147 38.0679 22.3956 38.3711 22.4147C38.5328 22.4308 38.6837 22.5028 38.798 22.6183C38.9122 22.7338 38.9825 22.8856 38.9968 23.0474C39.0229 23.3023 39.0229 23.5593 38.9968 23.8142C38.9515 24.222 38.6586 24.4625 38.223 24.4886C38.1341 24.4886 38.0487 24.4886 37.932 24.4886V25.8096H37.4492V22.4147ZM37.932 22.8714V24.0111C38.0068 24.0111 38.0748 24.0233 38.1411 24.0216C38.4408 24.0111 38.5401 23.9152 38.5489 23.619C38.5489 23.4883 38.5489 23.3558 38.5489 23.2251C38.5535 23.1782 38.5476 23.1309 38.5317 23.0865C38.5159 23.0421 38.4903 23.0018 38.457 22.9685C38.4237 22.9352 38.3833 22.9096 38.3389 22.8938C38.2946 22.8778 38.2472 22.872 38.2003 22.8766C38.1149 22.8679 38.0313 22.8714 37.932 22.8714Z" fill="#EC1C3D"></path>
    <path d="M45.3944 22.868H44.4533V23.8666H45.2724V24.3319H44.4499V25.3061H45.3926V25.8098H43.9531V22.4219H45.3944V22.868Z" fill="#EC1C3D"></path>
    <path d="M30.0865 25.8089H29.6055V22.4141H30.0865V25.8089Z" fill="#EC1C3D"></path>
    <path d="M11.8579 12.1633C11.8579 11.1612 11.8579 10.1574 11.8579 9.15537C11.85 9.09473 11.8615 9.03314 11.891 8.97955C11.9205 8.92596 11.9662 8.88316 12.0217 8.85736C12.4556 8.61687 12.4992 8.60641 12.9035 8.91313C12.9589 8.97861 12.9869 9.06283 12.982 9.14839C12.982 10.0808 12.982 11.0149 12.982 11.9472V12.1737L15.7703 10.5705L16.307 10.8789C16.3193 10.9156 16.3228 10.9225 16.3245 10.9277C16.3559 11.5133 16.3576 11.5185 15.847 11.8148C15.169 12.2104 14.4859 12.5973 13.8045 12.9893C13.7279 13.033 13.6547 13.0835 13.5484 13.1497C13.8219 13.3117 14.0711 13.4616 14.3186 13.6046C14.9268 13.9531 15.5385 14.3017 16.1485 14.6502C16.2104 14.6785 16.261 14.7265 16.2926 14.7868C16.3241 14.8471 16.3347 14.9161 16.3228 14.983C16.3149 15.1217 16.3149 15.2608 16.3228 15.3996L15.7738 15.7254L12.9889 14.1361C12.9889 13.8241 12.9889 13.5122 12.9889 13.2002C12.9958 13.0854 12.969 12.9711 12.9117 12.8714C12.8544 12.7717 12.7692 12.6909 12.6665 12.6391C12.3946 12.4788 12.1263 12.3202 11.8579 12.1633Z" fill="black"></path>
    <path d="M12.4072 7.68825L8.43727 9.98519C8.37802 10.02 8.31353 10.0478 8.25254 10.0793C8.01728 9.94855 7.78026 9.82484 7.55545 9.68713C7.39627 9.57702 7.20497 9.52313 7.01172 9.53376C7.48225 9.2567 7.94931 8.97437 8.42333 8.70077C9.29818 8.19305 10.1747 7.68825 11.0531 7.18634C11.3511 7.01207 11.6578 6.85697 11.9593 6.69141C11.7711 7.12882 11.8548 7.36758 12.2747 7.59588C12.3183 7.62202 12.3619 7.65513 12.4072 7.68825Z" fill="black"></path>
    <path d="M8.25152 16.2148L10.0919 17.2604L11.8624 18.2625C11.8624 18.5309 11.8624 18.7992 11.8729 19.0677C11.8924 19.2434 11.9215 19.4179 11.9601 19.5905C11.7858 19.5051 11.6115 19.4162 11.4494 19.3291C10.5119 18.7906 9.57599 18.2451 8.64014 17.7031C8.15218 17.4225 7.66422 17.1437 7.178 16.8614C7.13287 16.8312 7.09032 16.7975 7.05078 16.7603C7.21443 16.7188 7.37512 16.6664 7.53177 16.6034C7.77401 16.4902 8.00927 16.3472 8.25152 16.2148Z" fill="black"></path>
    <path d="M7.67947 11.0654V15.227C7.44421 15.3683 7.20196 15.4989 6.98238 15.654C6.84957 15.7577 6.72382 15.8701 6.60595 15.9904C6.60595 15.9294 6.59375 15.8666 6.59375 15.804V10.3631C6.59375 10.3352 6.59375 10.3074 6.59375 10.2812C6.67661 10.4418 6.80846 10.5719 6.97019 10.6524C7.2037 10.7761 7.44246 10.9243 7.67947 11.0654Z" fill="black"></path>
    <path d="M11.9946 19.6464L11.9531 19.6016L11.9946 19.6464Z" fill="black"></path>
    <path d="M2.9951 7.01953C3.44298 7.28617 3.88912 7.5528 4.33874 7.81595L6.30976 8.95744C6.02451 9.20826 5.82518 9.54232 5.73989 9.91245L4.27775 9.07943C3.7131 8.7518 3.14846 8.42242 2.58207 8.09653C2.52584 8.0689 2.46758 8.04559 2.4078 8.02682C2.41742 7.89513 2.41742 7.76292 2.4078 7.63123C2.38699 7.54326 2.40116 7.45066 2.44733 7.37295C2.49351 7.29523 2.56806 7.2385 2.65527 7.21471C2.7668 7.16243 2.87834 7.08401 2.9951 7.01953Z" fill="black"></path>
  </g>
  <defs>
    <clipPath id="clip0_3551_4626">
      <rect width="60.6011" height="26.1051" fill="white" transform="translate(0.480469 0.09375)"></rect>
    </clipPath>
  </defs>
</svg>
