<?xml version="1.0" encoding="UTF-8"?>
<svg xmlns="http://www.w3.org/2000/svg" width="132" height="23" viewBox="0 0 132 23" fill="none">
  <path d="M10.205 0.925781H7.72928C5.70959 0.925781 3.82021 2.03335 2.45203 4.1182C1.08385 6.07274 0.367188 8.74394 0.367188 11.5454C0.367188 14.4773 1.149 17.1485 2.58233 19.1681C3.95051 21.1227 5.77474 22.1651 7.66413 22.1651H10.1399C11.9641 22.0348 13.6581 20.9272 14.8959 18.9727C16.2641 16.953 16.9808 14.347 16.9808 11.5454C16.9808 8.87424 16.2641 6.20304 14.9611 4.2485C13.7884 2.29396 12.0293 1.18639 10.205 0.925781Z" fill="#875F27"></path>
  <path d="M14.5022 11.6077C14.5022 8.80616 13.7204 6.46071 12.5477 4.57132C11.7007 3.33345 10.7235 2.35618 9.55073 1.90012V1.37891H7.53104C3.75226 1.37891 0.625 5.9395 0.625 11.5425C0.625 14.4743 1.47197 17.0804 2.77499 18.9698C4.01287 20.6637 5.7068 21.7713 7.53104 21.7713H9.55073V21.3152C12.4825 19.947 14.5022 16.1683 14.5022 11.6077Z" fill="#F8B828"></path>
  <path d="M9.67978 21.8366H7.52979C5.70555 21.8366 4.01161 20.7941 2.70859 18.9048C1.34041 16.9502 0.558594 14.3442 0.558594 11.4775C0.558594 5.80934 3.75101 1.18359 7.59494 1.18359H9.74493V1.63965C10.8525 2.22601 11.8949 3.07298 12.6767 4.31086C13.9146 6.2654 14.6313 8.74115 14.6313 11.4124C14.6313 15.9078 12.6767 19.8169 9.81008 21.185L9.67978 21.8366ZM7.59494 1.4442C3.88131 1.4442 0.819199 5.93964 0.819199 11.5427C0.819199 14.3442 1.60101 16.9502 2.90404 18.8396C4.14192 20.6638 5.83585 21.6411 7.59494 21.6411H9.54948V21.185H9.61463C10.9828 20.5335 12.1555 19.2957 13.0676 17.6017C13.9798 15.9078 14.4358 13.6926 14.4358 11.5427C14.4358 8.9366 13.7192 6.46085 12.5464 4.57146C11.6343 3.33359 10.5919 2.42147 9.54948 1.96541H9.48432V1.4442H7.59494Z" fill="#B28445"></path>
  <path d="M14.6922 4.50492C13.4543 2.55038 11.6953 1.3125 9.74072 1.3125C5.89679 1.37765 2.76953 5.93824 2.76953 11.4761C2.76953 14.4079 3.6165 17.014 4.91952 18.9034C6.1574 20.5973 7.85133 21.7049 9.67557 21.7049C13.4543 21.7049 16.5816 17.1443 16.5816 11.5413C16.5165 8.87005 15.8649 6.3943 14.6922 4.50492ZM10.0665 19.2291C9.93618 19.2291 9.87102 19.2291 9.74072 19.2291C8.37254 19.2291 7.13467 18.3821 6.1574 17.1443C5.18013 15.8412 4.52862 13.9519 4.52862 11.867C4.52862 11.7367 4.52862 11.6716 4.52862 11.5413C4.52862 7.37157 6.87406 3.8534 9.67557 3.8534C9.80587 3.8534 9.87102 3.8534 10.0013 3.8534C12.6725 4.11401 14.8225 7.43672 14.8225 11.5413C14.8225 11.6716 14.8225 11.7367 14.8225 11.867C14.7574 15.8412 12.6725 18.9685 10.0665 19.2291Z" fill="#F6E245"></path>
  <path d="M9.67822 21.8366C7.85399 21.8366 6.16005 20.7941 4.85702 18.9048C3.48885 16.9502 2.70703 14.3442 2.70703 11.4775C2.70703 5.80934 5.83429 1.18359 9.67822 1.18359C11.6328 1.18359 13.3918 2.29117 14.6949 4.37601C15.9327 6.33055 16.6494 8.8063 16.6494 11.4775C16.5843 17.2108 13.457 21.8366 9.67822 21.8366ZM9.67822 1.4442C5.9646 1.4442 2.90249 5.93964 2.90249 11.5427C2.90249 14.3442 3.6843 16.9502 4.98733 18.8396C6.2252 20.6638 7.91914 21.6411 9.67822 21.6411C13.3918 21.6411 16.454 17.1457 16.454 11.5427C16.454 8.9366 15.7373 6.46085 14.5646 4.57146C13.2615 2.55177 11.5676 1.4442 9.67822 1.4442ZM9.67822 19.3608C8.31004 19.3608 7.00702 18.579 6.02975 17.2108C4.98733 15.8426 4.40097 13.8881 4.40097 11.8684C4.40097 11.7381 4.40097 11.673 4.40097 11.5427C4.40097 7.24267 6.74641 3.7245 9.74337 3.7245C9.87368 3.7245 9.93883 3.7245 10.0691 3.7245C12.8706 3.9851 15.0206 7.37297 15.0206 11.5427C15.0206 11.673 15.0206 11.7381 15.0206 11.8684C14.8903 15.8426 12.8055 19.1002 10.0691 19.2957C9.87368 19.3608 9.80853 19.3608 9.67822 19.3608ZM9.67822 3.9851C6.87672 3.9851 4.59642 7.37297 4.59642 11.6078C4.59642 11.7381 4.59642 11.8033 4.59642 11.9336C4.66157 13.9533 5.24793 15.8426 6.2252 17.0805C7.20247 18.3835 8.44035 19.1654 9.67822 19.1654C9.80853 19.1654 9.87368 19.1654 10.004 19.1654C12.61 18.9048 14.6297 15.7775 14.76 11.9336C14.76 11.8033 14.76 11.7381 14.76 11.6078C14.76 7.63357 12.6752 4.31086 10.004 3.9851C9.87368 3.9851 9.67822 3.9851 9.67822 3.9851Z" fill="#B28445"></path>
  <path d="M10.0707 3.92188C9.94044 3.92188 9.87528 3.92188 9.74498 3.92188C9.67983 3.92188 9.54953 3.92188 9.48438 3.92188H9.54953C12.2207 4.18248 14.3707 7.5052 14.3707 11.6097C14.3707 11.74 14.3707 11.8052 14.3707 11.9355C14.2404 15.9097 12.1556 19.037 9.54953 19.2324H9.48438C9.54953 19.2324 9.67983 19.2324 9.74498 19.2324C9.87528 19.2324 9.94044 19.2324 10.0707 19.2324C12.6768 18.9718 14.8268 15.7794 14.8919 11.9355C14.8919 11.8052 14.8919 11.74 14.8919 11.6097C14.8919 7.5052 12.7419 4.18248 10.0707 3.92188Z" fill="#F8B218"></path>
  <path d="M9.67857 19.3641C9.61342 19.3641 9.48312 19.3641 9.41797 19.3641V19.1687H9.48312C12.0892 18.9081 14.1089 15.7808 14.2392 11.9369C14.2392 11.8066 14.2392 11.7414 14.2392 11.6111C14.2392 7.6369 12.1543 4.31418 9.48312 3.98842H9.41797V3.79297C9.61342 3.79297 9.80888 3.79297 10.1346 3.79297C12.9361 4.05357 15.0861 7.44144 15.0861 11.6111C15.0861 11.7414 15.0861 11.8066 15.0861 11.9369C14.9558 15.9111 12.871 19.1687 10.1346 19.3641C9.87403 19.3641 9.80888 19.3641 9.67857 19.3641ZM10.721 4.18388C12.871 5.2263 14.3695 8.15811 14.3695 11.6111C14.3695 11.7414 14.3695 11.8066 14.3695 11.9369C14.3043 15.2596 12.7407 17.996 10.721 19.0384C12.9361 18.3217 14.6952 15.4551 14.6952 11.9369C14.6952 11.8066 14.6952 11.7414 14.6952 11.6111C14.7604 8.0278 13.0664 4.90054 10.721 4.18388Z" fill="#B28445"></path>
  <path d="M12.623 0.925781H10.1473C8.12756 0.925781 6.23817 2.03335 4.87 4.1182C3.50182 6.07274 2.78516 8.74394 2.78516 11.5454C2.78516 14.4773 3.56697 17.1485 5.0003 19.1681C6.36848 21.1227 8.19271 22.1651 10.0821 22.1651H12.5579C14.3821 22.0348 16.076 20.9272 17.3139 18.9727C18.6821 16.953 19.3987 14.347 19.3987 11.5454C19.3987 8.87424 18.6821 6.20304 17.379 4.2485C16.2063 2.29396 14.5124 1.18639 12.623 0.925781Z" fill="#875F27"></path>
  <path d="M16.9241 11.6077C16.9241 8.80616 16.1423 6.46071 14.9696 4.57132C14.1226 3.33345 13.1453 2.35618 11.9726 1.90012V1.37891H9.95292C6.17414 1.37891 3.04688 5.9395 3.04688 11.5425C3.04688 14.4743 3.89384 17.0804 5.19687 18.9698C6.43474 20.6637 8.12868 21.7713 9.95292 21.7713H11.9726V21.3152C14.9044 19.947 16.9241 16.1683 16.9241 11.6077Z" fill="#F8B828"></path>
  <path d="M12.2345 21.8366H10.0845C8.26024 21.8366 6.5663 20.7941 5.26328 18.9048C3.8951 16.9502 3.11328 14.279 3.11328 11.4775C3.11328 5.80934 6.24055 1.18359 10.0845 1.18359H12.2345V1.63965C13.342 2.22601 14.3845 3.07298 15.1663 4.31086C16.4042 6.2654 17.1208 8.74115 17.1208 11.4124C17.1208 13.6275 16.6648 15.7775 15.7526 17.5366C14.8405 19.2305 13.6678 20.5335 12.2996 21.185L12.2345 21.8366ZM10.0845 1.4442C6.37085 1.4442 3.30874 5.93964 3.30874 11.5427C3.30874 14.3442 4.09055 16.9502 5.39358 18.8396C6.63145 20.6638 8.32539 21.6411 10.0845 21.6411H12.039V21.185H12.1042C13.4723 20.5335 14.6451 19.2957 15.5572 17.6017C16.4693 15.9078 16.9254 13.6926 16.9254 11.5427C16.9254 8.9366 16.2087 6.46085 15.036 4.57146C14.1239 3.33359 13.0814 2.42147 12.039 1.96541H11.9739V1.4442H10.0845Z" fill="#B28445"></path>
  <path d="M17.0607 4.50492C15.8228 2.55038 14.0637 1.3125 12.1092 1.3125C8.33039 1.3125 5.20312 5.87309 5.20312 11.4761C5.20312 14.4079 6.05009 17.014 7.35312 18.9034C8.59099 20.5973 10.2849 21.7049 12.1092 21.7049C15.8879 21.7049 19.0152 17.1443 19.0152 11.5413C19.0804 8.87005 18.2334 6.3943 17.0607 4.50492ZM12.5001 19.2291C12.3698 19.2291 12.3046 19.2291 12.1743 19.2291C10.8061 19.2291 9.56826 18.3821 8.59099 17.1443C7.61372 15.8412 6.96221 13.9519 6.96221 11.867C6.96221 11.7367 6.96221 11.6716 6.96221 11.5413C6.96221 7.37157 9.30766 3.8534 12.1092 3.8534C12.2395 3.8534 12.3046 3.8534 12.4349 3.8534C15.1061 4.11401 17.2561 7.43672 17.2561 11.5413C17.2561 11.6716 17.2561 11.7367 17.2561 11.867C17.2561 15.8412 15.1061 18.9685 12.5001 19.2291Z" fill="#F6E245"></path>
  <path d="M12.1079 21.8366C10.2837 21.8366 8.58974 20.7941 7.28671 18.9048C5.91853 16.9502 5.13672 14.279 5.13672 11.4775C5.13672 5.80934 8.26398 1.18359 12.1079 1.18359C14.0624 1.18359 15.8215 2.29117 17.1246 4.37601C18.3624 6.33055 19.0791 8.8063 19.0791 11.4775C19.0791 17.2108 15.9518 21.8366 12.1079 21.8366ZM12.1079 1.4442C8.39428 1.4442 5.33217 5.93964 5.33217 11.5427C5.33217 14.3442 6.11399 16.9502 7.41701 18.8396C8.65489 20.6638 10.3488 21.6411 12.1079 21.6411C15.8215 21.6411 18.8836 17.1457 18.8836 11.5427C18.8836 8.9366 18.167 6.46085 16.9943 4.57146C15.6912 2.55177 13.9973 1.4442 12.1079 1.4442ZM12.1079 19.3608C10.7397 19.3608 9.43671 18.579 8.45944 17.2108C7.41701 15.8426 6.83065 13.8881 6.83065 11.8684C6.83065 11.7381 6.83065 11.673 6.83065 11.5427C6.83065 7.24267 9.1761 3.7245 12.1731 3.7245C12.3034 3.7245 12.3685 3.7245 12.4988 3.7245C15.3003 3.9851 17.4503 7.37297 17.4503 11.5427C17.4503 11.673 17.4503 11.7381 17.4503 11.8684C17.32 15.8426 15.2352 19.1002 12.4988 19.2957C12.4337 19.3608 12.2382 19.3608 12.1079 19.3608ZM12.1079 3.9851C9.3064 3.9851 7.02611 7.37297 7.02611 11.6078C7.02611 11.7381 7.02611 11.8033 7.02611 11.9336C7.09126 13.9533 7.67762 15.8426 8.65489 17.0805C9.63216 18.3835 10.87 19.1654 12.1079 19.1654C12.2382 19.1654 12.3034 19.1654 12.4337 19.1654C15.0397 18.9048 17.0594 15.7775 17.1897 11.9336C17.1897 11.8033 17.1897 11.7381 17.1897 11.6078C17.1897 7.63357 15.1049 4.31086 12.4337 3.9851C12.3685 3.9851 12.2382 3.9851 12.1079 3.9851Z" fill="#B28445"></path>
  <path d="M12.4965 3.91797C12.3662 3.91797 12.3011 3.91797 12.1708 3.91797C12.1056 3.91797 11.9753 3.91797 11.9102 3.91797H11.9753C14.6465 4.17857 16.7965 7.50129 16.7965 11.6058C16.7965 11.7361 16.7965 11.8013 16.7965 11.9316C16.6662 15.9058 14.5814 19.0331 11.9753 19.2285H11.9102C11.9753 19.2285 12.1056 19.2285 12.1708 19.2285C12.3011 19.2285 12.3662 19.2285 12.4965 19.2285C15.1026 18.9679 17.2526 15.7755 17.3177 11.9316C17.3177 11.8013 17.3177 11.7361 17.3177 11.6058C17.3177 7.50129 15.1677 4.17857 12.4965 3.91797Z" fill="#F8B218"></path>
  <path d="M12.107 19.3602C12.0419 19.3602 11.9116 19.3602 11.8464 19.3602V19.1648H11.9116C14.4525 18.9042 16.5373 15.7769 16.6024 11.933C16.6024 11.8027 16.6024 11.7375 16.6024 11.6072C16.6024 7.63299 14.5176 4.31027 11.8464 3.98452H11.7812V3.78906C11.9767 3.78906 12.1722 3.78906 12.4979 3.78906C15.2994 4.04967 17.4494 7.43754 17.4494 11.6072C17.4494 11.7375 17.4494 11.8027 17.4494 11.933C17.3191 15.9072 15.2343 19.1648 12.4979 19.3602C12.4328 19.3602 12.2373 19.3602 12.107 19.3602ZM13.1494 4.17997C15.2994 5.22239 16.7979 8.1542 16.7979 11.6072C16.7979 11.7375 16.7979 11.8027 16.7979 11.933C16.7328 15.2557 15.1691 17.992 13.1494 19.0345C15.3646 18.3178 17.1237 15.4511 17.1237 11.933C17.1237 11.8027 17.1237 11.7375 17.1237 11.6072C17.254 8.0239 15.4949 4.89663 13.1494 4.17997Z" fill="#B28445"></path>
  <path d="M14.8964 0.925781H12.4207C10.401 0.925781 8.51161 2.03335 7.14344 4.1182C5.77526 6.13789 5.05859 8.74394 5.05859 11.5454C5.05859 14.4773 5.84041 17.1485 7.27374 19.1681C8.64191 21.1227 10.4662 22.1651 12.3555 22.1651H14.8313C16.6555 22.0348 18.3495 20.9272 19.5873 18.9727C20.9555 16.953 21.6722 14.347 21.6722 11.5454C21.6722 8.87424 20.9555 6.20304 19.6525 4.2485C18.5449 2.29396 16.7858 1.18639 14.8964 0.925781Z" fill="#875F27"></path>
  <path d="M19.2679 11.6077C19.2679 8.80616 18.486 6.46071 17.3133 4.57132C16.4663 3.33345 15.4891 2.35618 14.3164 1.90012V1.37891H12.2967C8.51789 1.37891 5.39062 5.9395 5.39062 11.5425C5.39062 14.4743 6.23759 17.0804 7.54062 18.9698C8.77849 20.6637 10.4724 21.7713 12.2967 21.7713H14.3815V21.3152C17.2482 19.947 19.2679 16.1683 19.2679 11.6077Z" fill="#F8B828"></path>
  <path d="M14.5118 21.8366H12.3618C10.5376 21.8366 8.84365 20.7941 7.54062 18.9048C6.17244 16.9502 5.39062 14.279 5.39062 11.4775C5.39062 5.80934 8.58304 1.18359 12.3618 1.18359H14.5118V1.63965C15.6194 2.22601 16.6618 3.07298 17.4436 4.31086C18.6815 6.2654 19.3982 8.74115 19.3982 11.4124C19.3982 15.9078 17.4436 19.8169 14.577 21.185L14.5118 21.8366ZM12.427 1.4442C8.71334 1.4442 5.65123 5.93964 5.65123 11.5427C5.65123 14.3442 6.43305 16.9502 7.73607 18.8396C8.97395 20.6638 10.6679 21.6411 12.427 21.6411H14.3815V21.185H14.4467C15.8148 20.5335 16.9876 19.2957 17.8997 17.6017C18.8118 15.9078 19.2679 13.6926 19.2679 11.5427C19.2679 8.9366 18.5512 6.46085 17.3785 4.57146C16.5315 3.33359 15.4891 2.42147 14.3815 1.96541H14.3164V1.4442H12.427Z" fill="#B28445"></path>
  <path d="M19.4005 4.50882C18.1626 2.55428 16.4035 1.31641 14.449 1.31641C10.6702 1.31641 7.54297 5.877 7.54297 11.48C7.54297 14.4118 8.38994 17.0179 9.69296 18.9073C10.9308 20.6012 12.6248 21.7088 14.449 21.7088C18.2278 21.7088 21.355 17.1482 21.355 11.5452C21.355 8.87396 20.6384 6.39821 19.4005 4.50882ZM14.7748 19.233C14.6445 19.233 14.5793 19.233 14.449 19.233C13.0808 19.233 11.843 18.3861 10.8657 17.1482C9.88842 15.8452 9.2369 13.9558 9.2369 11.8709C9.2369 11.7406 9.2369 11.6755 9.2369 11.5452C9.2369 7.37548 11.5823 3.85731 14.3839 3.85731C14.5142 3.85731 14.5793 3.85731 14.7096 3.85731C17.3808 4.11791 19.5308 7.44063 19.5308 11.5452C19.5308 11.6755 19.5308 11.7406 19.5308 11.8709C19.5308 15.8452 17.446 18.9724 14.7748 19.233Z" fill="#F6E245"></path>
  <path d="M14.5142 21.8378C12.6899 21.8378 10.996 20.7954 9.69296 18.906C8.32478 16.9515 7.54297 14.2803 7.54297 11.4788C7.54297 5.87574 10.6051 1.25 14.5142 1.25C16.4687 1.25 18.2278 2.35757 19.5308 4.44241C20.7687 6.39695 21.4853 8.8727 21.4853 11.5439C21.4202 17.2121 18.3581 21.8378 14.5142 21.8378ZM14.5142 1.44545C10.8005 1.44545 7.73842 5.94089 7.73842 11.5439C7.73842 14.3454 8.52024 16.9515 9.82326 18.8409C11.0611 20.6651 12.7551 21.6424 14.5142 21.6424C18.2278 21.6424 21.2899 17.1469 21.2899 11.5439C21.2899 8.93785 20.5732 6.46211 19.4005 4.57272C18.0323 2.55303 16.2732 1.44545 14.5142 1.44545ZM14.5142 19.3621C13.146 19.3621 11.843 18.5802 10.8657 17.2121C9.82326 15.8439 9.2369 13.8894 9.2369 11.8697C9.2369 11.7394 9.2369 11.6742 9.2369 11.5439C9.2369 7.24392 11.5824 3.72575 14.5793 3.72575C14.7096 3.72575 14.7748 3.72575 14.9051 3.72575C17.7066 3.98636 19.8566 7.37422 19.8566 11.5439C19.8566 11.6742 19.8566 11.7394 19.8566 11.8697C19.7263 15.8439 17.6414 19.1015 14.9051 19.2969C14.7096 19.3621 14.5142 19.3621 14.5142 19.3621ZM14.5142 3.98636C11.7127 3.98636 9.43236 7.37422 9.43236 11.6091C9.43236 11.7394 9.43236 11.8045 9.43236 11.9348C9.49751 13.9545 10.0839 15.8439 11.0611 17.0818C12.0384 18.3848 13.2763 19.1666 14.5142 19.1666C14.6445 19.1666 14.7096 19.1666 14.8399 19.1666C17.446 18.906 19.4657 15.7787 19.596 11.9348C19.596 11.8045 19.596 11.7394 19.596 11.6091C19.596 7.63483 17.5111 4.31211 14.8399 3.98636C14.7096 3.98636 14.5142 3.98636 14.5142 3.98636Z" fill="#B28445"></path>
  <path d="M14.7778 3.91797C14.6475 3.91797 14.5823 3.91797 14.452 3.91797C14.3869 3.91797 14.2566 3.91797 14.1914 3.91797H14.2566C16.9278 4.17857 19.0778 7.50129 19.0778 11.6058C19.0778 11.7361 19.0778 11.8013 19.0778 11.9316C18.9475 15.9058 16.8626 19.0331 14.2566 19.2285H14.1914C14.2566 19.2285 14.3869 19.2285 14.452 19.2285C14.5823 19.2285 14.6475 19.2285 14.7778 19.2285C17.3838 18.9679 19.5338 15.7755 19.599 11.9316C19.599 11.8013 19.599 11.7361 19.599 11.6058C19.6641 7.50129 17.5141 4.17857 14.7778 3.91797Z" fill="#F8B218"></path>
  <path d="M14.5184 19.3602C14.4533 19.3602 14.323 19.3602 14.2578 19.3602V19.1648H14.323C16.929 18.9042 18.9487 15.7769 19.079 11.933C19.079 11.8027 19.079 11.7375 19.079 11.6072C19.079 7.63299 16.9942 4.31027 14.323 3.98452H14.2578V3.78906C14.4533 3.78906 14.6487 3.78906 14.9745 3.78906C17.776 4.04967 19.926 7.43754 19.926 11.6072C19.926 11.7375 19.926 11.8027 19.926 11.933C19.7305 15.9072 17.6457 19.0996 14.9093 19.3602C14.7139 19.3602 14.5184 19.3602 14.5184 19.3602ZM15.4957 4.17997C17.6457 5.22239 19.1442 8.1542 19.1442 11.6072C19.1442 11.7375 19.1442 11.8027 19.1442 11.933C19.079 15.2557 17.5154 17.992 15.4957 19.0345C17.7108 18.3178 19.4699 15.4511 19.4699 11.933C19.4699 11.8027 19.4699 11.7375 19.4699 11.6072C19.5351 8.0239 17.8411 4.89663 15.4957 4.17997Z" fill="#B28445"></path>
  <path d="M12.9432 13.7617V16.2375H12.2266V15.195L12.9432 13.7617Z" fill="#F6E245"></path>
  <path d="M13.7893 12.1289L14.1151 12.7153V12.7804V16.2334H13.3984V12.8456L13.7893 12.1289Z" fill="#F6E245"></path>
  <path d="M15.2206 12.3906V16.2346H14.5039V13.8891L14.6994 13.7588L15.1554 12.7164L15.2206 12.3906Z" fill="#F6E245"></path>
  <path d="M16.4628 10.0469V16.2363H15.7461V11.4802L16.4628 10.0469Z" fill="#F6E245"></path>
  <path d="M14.5096 12.6479H14.3142L13.793 11.6055H14.1187L14.5096 12.6479Z" fill="#875F27"></path>
  <path d="M12.2281 15.1914H11.9023V16.299H12.2281V15.1914Z" fill="#875F27"></path>
  <path d="M12.2281 15.195H11.9023L12.619 13.7617H12.9448L12.2281 15.195Z" fill="#875F27"></path>
  <path d="M13.4625 12.8477H13.1367V16.2355H13.4625V12.8477Z" fill="#875F27"></path>
  <path d="M13.3973 12.8456H13.1367L13.4625 12.1289H13.7882L13.3973 12.8456Z" fill="#875F27"></path>
  <path d="M15.1604 12.7164H14.7695L14.965 12.3906H15.2256L15.1604 12.7164Z" fill="#875F27"></path>
  <path d="M14.6995 13.7573H14.3086L14.7647 12.7148H15.1556L14.6995 13.7573Z" fill="#875F27"></path>
  <path d="M14.504 13.892H14.3086V13.7617H14.6995L14.504 13.892Z" fill="#875F27"></path>
  <path d="M14.6344 13.8906H14.3086V16.3664H14.6344V13.8906Z" fill="#875F27"></path>
  <path d="M15.8101 11.4766H15.4844V16.2326H15.8101V11.4766Z" fill="#875F27"></path>
  <path d="M15.745 11.4763H15.4844L16.201 10.043H16.4616L15.745 11.4763Z" fill="#875F27"></path>
  <path d="M16.9209 8.60715H16.5951L16.4648 8.08594H16.7906L16.9209 8.60715Z" fill="#875F27"></path>
  <path d="M16.2673 7.04716H15.9415L15.7461 6.65625H16.0719L16.2673 7.04716Z" fill="#875F27"></path>
  <path d="M14.504 10.5038H14.3086L15.9374 7.05078H16.2631L14.504 10.5038Z" fill="#875F27"></path>
  <path d="M14.1203 11.6085H13.7945L13.4688 10.957H13.8597L14.1203 11.6085Z" fill="#875F27"></path>
  <path d="M13.3414 9.91477H13.0156L13.4717 8.9375H13.8626L13.3414 9.91477Z" fill="#875F27"></path>
  <path d="M11.6448 13.5625H11.2539L13.013 9.91406H13.3387L11.6448 13.5625Z" fill="#875F27"></path>
  <path d="M12.1009 14.4785H11.7751L11.2539 13.5664H11.6448L12.1009 14.4785Z" fill="#875F27"></path>
  <path d="M16.067 6.65625H16.914V8.61079L16.7837 8.08958L15.0897 11.6077L14.5034 12.6502L14.1125 11.6077L13.8519 10.9562L12.0928 14.4744L11.6367 13.5623L13.3307 9.91382L13.8519 8.93655L14.3079 9.91382L14.5034 10.5002L16.2625 7.04716L16.067 6.65625Z" fill="#F6E245"></path>
  <path d="M25.6027 12.0006C25.6027 10.7799 25.8753 9.68957 26.4204 8.7296C26.9774 7.75778 27.73 7.00521 28.6781 6.47189C29.6381 5.92672 30.7107 5.65414 31.8958 5.65414C33.2824 5.65414 34.4972 6.00968 35.5402 6.72077C36.5831 7.43186 37.312 8.41554 37.7268 9.6718H34.8646C34.5802 9.07922 34.1772 8.63479 33.6558 8.3385C33.1462 8.04222 32.5536 7.89407 31.878 7.89407C31.1551 7.89407 30.5092 8.06592 29.9403 8.40961C29.3833 8.74145 28.9448 9.21551 28.6248 9.83179C28.3167 10.4481 28.1626 11.171 28.1626 12.0006C28.1626 12.8184 28.3167 13.5413 28.6248 14.1694C28.9448 14.7857 29.3833 15.2657 29.9403 15.6094C30.5092 15.9412 31.1551 16.1072 31.878 16.1072C32.5536 16.1072 33.1462 15.959 33.6558 15.6627C34.1772 15.3546 34.5802 14.9042 34.8646 14.3117H37.7268C37.312 15.5798 36.5831 16.5694 35.5402 17.2805C34.5091 17.9797 33.2943 18.3293 31.8958 18.3293C30.7107 18.3293 29.6381 18.0627 28.6781 17.5293C27.73 16.9842 26.9774 16.2316 26.4204 15.2716C25.8753 14.3117 25.6027 13.2213 25.6027 12.0006ZM44.2257 18.3827C43.2776 18.3827 42.4243 18.1753 41.6658 17.7604C40.9073 17.3338 40.3088 16.7353 39.8703 15.9649C39.4437 15.1946 39.2303 14.3057 39.2303 13.2984C39.2303 12.291 39.4496 11.4021 39.8881 10.6318C40.3384 9.86142 40.9488 9.26885 41.7191 8.85404C42.4895 8.42739 43.3487 8.21406 44.2968 8.21406C45.245 8.21406 46.1042 8.42739 46.8745 8.85404C47.6449 9.26885 48.2493 9.86142 48.6878 10.6318C49.1382 11.4021 49.3634 12.291 49.3634 13.2984C49.3634 14.3057 49.1323 15.1946 48.67 15.9649C48.2197 16.7353 47.6034 17.3338 46.8212 17.7604C46.0509 18.1753 45.1857 18.3827 44.2257 18.3827ZM44.2257 16.2138C44.6761 16.2138 45.0968 16.1072 45.4879 15.8938C45.8909 15.6687 46.2109 15.3368 46.4479 14.8983C46.6849 14.4598 46.8034 13.9265 46.8034 13.2984C46.8034 12.3621 46.5546 11.6451 46.0568 11.1473C45.5709 10.6377 44.9724 10.3829 44.2613 10.3829C43.5502 10.3829 42.9517 10.6377 42.4658 11.1473C41.9917 11.6451 41.7547 12.3621 41.7547 13.2984C41.7547 14.2346 41.9858 14.9576 42.448 15.4672C42.9221 15.9649 43.5146 16.2138 44.2257 16.2138ZM52.4512 7.20076C52.0127 7.20076 51.6453 7.06447 51.349 6.79188C51.0646 6.50745 50.9223 6.15783 50.9223 5.74302C50.9223 5.32822 51.0646 4.98453 51.349 4.71194C51.6453 4.42751 52.0127 4.28529 52.4512 4.28529C52.8897 4.28529 53.2512 4.42751 53.5356 4.71194C53.8319 4.98453 53.98 5.32822 53.98 5.74302C53.98 6.15783 53.8319 6.50745 53.5356 6.79188C53.2512 7.06447 52.8897 7.20076 52.4512 7.20076ZM53.6778 8.37406V18.2227H51.189V8.37406H53.6778ZM61.5944 8.23184C62.7677 8.23184 63.7158 8.60516 64.4387 9.35181C65.1617 10.0866 65.5232 11.1177 65.5232 12.445V18.2227H63.0343V12.7828C63.0343 12.0006 62.8388 11.4021 62.4477 10.9873C62.0566 10.5607 61.5233 10.3473 60.8477 10.3473C60.1604 10.3473 59.6152 10.5607 59.2122 10.9873C58.8211 11.4021 58.6256 12.0006 58.6256 12.7828V18.2227H56.1368V8.37406H58.6256V9.60069C58.9574 9.17403 59.3782 8.84219 59.8878 8.60516C60.4092 8.35628 60.9781 8.23184 61.5944 8.23184ZM71.9964 15.9294L74.4853 8.37406H77.1341L73.4897 18.2227H70.4676L66.841 8.37406H69.5076L71.9964 15.9294ZM87.6872 13.085C87.6872 13.4406 87.6635 13.7606 87.6161 14.045H80.4163C80.4756 14.7561 80.7245 15.3131 81.163 15.7161C81.6015 16.119 82.1407 16.3205 82.7807 16.3205C83.7051 16.3205 84.3629 15.9235 84.754 15.1294H87.4383C87.1539 16.0775 86.6087 16.8597 85.8028 17.476C84.9969 18.0804 84.0073 18.3827 82.834 18.3827C81.8859 18.3827 81.0326 18.1753 80.2741 17.7604C79.5275 17.3338 78.9408 16.7353 78.5142 15.9649C78.0994 15.1946 77.892 14.3057 77.892 13.2984C77.892 12.2791 78.0994 11.3843 78.5142 10.614C78.929 9.84364 79.5097 9.25107 80.2563 8.83627C81.003 8.42146 81.8622 8.21406 82.834 8.21406C83.7703 8.21406 84.6058 8.41554 85.3406 8.81849C86.0873 9.22144 86.6621 9.79624 87.065 10.5429C87.4798 11.2777 87.6872 12.1251 87.6872 13.085ZM85.1095 12.3739C85.0977 11.734 84.8666 11.2243 84.4162 10.8451C83.9659 10.454 83.4148 10.2584 82.7629 10.2584C82.1467 10.2584 81.6252 10.4481 81.1985 10.8273C80.7837 11.1947 80.5289 11.7103 80.4341 12.3739H85.1095ZM93.2726 18.3827C92.4667 18.3827 91.7438 18.2404 91.1038 17.956C90.4638 17.6597 89.9542 17.2627 89.5749 16.7649C89.2076 16.2672 89.0061 15.7161 88.9705 15.1116H91.4771C91.5245 15.4909 91.7082 15.8049 92.0282 16.0538C92.3601 16.3027 92.7689 16.4272 93.2548 16.4272C93.7289 16.4272 94.0963 16.3323 94.357 16.1427C94.6296 15.9531 94.7659 15.7101 94.7659 15.4139C94.7659 15.0939 94.6 14.8568 94.2681 14.7028C93.9482 14.5368 93.4326 14.3591 92.7215 14.1694C91.9867 13.9917 91.3823 13.808 90.9082 13.6183C90.446 13.4287 90.0431 13.1384 89.6994 12.7473C89.3675 12.3562 89.2016 11.8288 89.2016 11.1651C89.2016 10.6199 89.3557 10.1222 89.6638 9.6718C89.9838 9.22144 90.4342 8.8659 91.0149 8.60516C91.6075 8.34443 92.3008 8.21406 93.0948 8.21406C94.2681 8.21406 95.2044 8.51035 95.9037 9.10293C96.6029 9.68365 96.9881 10.4718 97.0592 11.4673H94.677C94.6415 11.0762 94.4755 10.7681 94.1793 10.5429C93.8948 10.3059 93.5096 10.1873 93.0237 10.1873C92.5734 10.1873 92.2238 10.2703 91.9749 10.4362C91.7378 10.6021 91.6193 10.8332 91.6193 11.1295C91.6193 11.4614 91.7853 11.7162 92.1171 11.894C92.4489 12.0599 92.9645 12.2317 93.6637 12.4095C94.3748 12.5873 94.9615 12.771 95.4237 12.9606C95.8859 13.1502 96.2829 13.4465 96.6147 13.8495C96.9584 14.2406 97.1362 14.762 97.1481 15.4139C97.1481 15.9827 96.9881 16.4923 96.6681 16.9427C96.3599 17.3931 95.9096 17.7486 95.317 18.0093C94.7363 18.2582 94.0548 18.3827 93.2726 18.3827ZM102.089 10.4184V15.1827C102.089 15.5146 102.166 15.7575 102.32 15.9116C102.486 16.0538 102.758 16.1249 103.138 16.1249H104.293V18.2227H102.729C100.631 18.2227 99.5822 17.2034 99.5822 15.165V10.4184H98.4089V8.37406H99.5822V5.93857H102.089V8.37406H104.293V10.4184H102.089ZM105.443 13.2628C105.443 12.2673 105.639 11.3843 106.03 10.614C106.433 9.84364 106.972 9.25107 107.648 8.83627C108.335 8.42146 109.099 8.21406 109.941 8.21406C110.676 8.21406 111.316 8.36221 111.861 8.65849C112.418 8.95478 112.862 9.3281 113.194 9.77846V8.37406H115.701V18.2227H113.194V16.7827C112.874 17.2449 112.43 17.6301 111.861 17.9382C111.304 18.2345 110.658 18.3827 109.923 18.3827C109.093 18.3827 108.335 18.1693 107.648 17.7427C106.972 17.316 106.433 16.7175 106.03 15.9472C105.639 15.165 105.443 14.2702 105.443 13.2628ZM113.194 13.2984C113.194 12.6939 113.076 12.1784 112.839 11.7517C112.602 11.3132 112.282 10.9814 111.879 10.7562C111.476 10.5192 111.043 10.4007 110.581 10.4007C110.119 10.4007 109.692 10.5133 109.301 10.7384C108.91 10.9636 108.59 11.2955 108.341 11.734C108.104 12.1606 107.985 12.6702 107.985 13.2628C107.985 13.8554 108.104 14.3768 108.341 14.8272C108.59 15.2657 108.91 15.6035 109.301 15.8405C109.704 16.0775 110.131 16.196 110.581 16.196C111.043 16.196 111.476 16.0835 111.879 15.8583C112.282 15.6213 112.602 15.2894 112.839 14.8628C113.076 14.4242 113.194 13.9028 113.194 13.2984ZM121.9 18.3827C121.094 18.3827 120.371 18.2404 119.731 17.956C119.091 17.6597 118.582 17.2627 118.203 16.7649C117.835 16.2672 117.634 15.7161 117.598 15.1116H120.105C120.152 15.4909 120.336 15.8049 120.656 16.0538C120.988 16.3027 121.397 16.4272 121.882 16.4272C122.357 16.4272 122.724 16.3323 122.985 16.1427C123.257 15.9531 123.394 15.7101 123.394 15.4139C123.394 15.0939 123.228 14.8568 122.896 14.7028C122.576 14.5368 122.06 14.3591 121.349 14.1694C120.614 13.9917 120.01 13.808 119.536 13.6183C119.074 13.4287 118.671 13.1384 118.327 12.7473C117.995 12.3562 117.829 11.8288 117.829 11.1651C117.829 10.6199 117.983 10.1222 118.291 9.6718C118.611 9.22144 119.062 8.8659 119.643 8.60516C120.235 8.34443 120.928 8.21406 121.722 8.21406C122.896 8.21406 123.832 8.51035 124.531 9.10293C125.231 9.68365 125.616 10.4718 125.687 11.4673H123.305C123.269 11.0762 123.103 10.7681 122.807 10.5429C122.522 10.3059 122.137 10.1873 121.651 10.1873C121.201 10.1873 120.851 10.2703 120.603 10.4362C120.365 10.6021 120.247 10.8332 120.247 11.1295C120.247 11.4614 120.413 11.7162 120.745 11.894C121.077 12.0599 121.592 12.2317 122.291 12.4095C123.002 12.5873 123.589 12.771 124.051 12.9606C124.514 13.1502 124.911 13.4465 125.242 13.8495C125.586 14.2406 125.764 14.762 125.776 15.4139C125.776 15.9827 125.616 16.4923 125.296 16.9427C124.988 17.3931 124.537 17.7486 123.945 18.0093C123.364 18.2582 122.682 18.3827 121.9 18.3827ZM129.081 7.20076C128.642 7.20076 128.275 7.06447 127.979 6.79188C127.694 6.50745 127.552 6.15783 127.552 5.74302C127.552 5.32822 127.694 4.98453 127.979 4.71194C128.275 4.42751 128.642 4.28529 129.081 4.28529C129.519 4.28529 129.881 4.42751 130.165 4.71194C130.462 4.98453 130.61 5.32822 130.61 5.74302C130.61 6.15783 130.462 6.50745 130.165 6.79188C129.881 7.06447 129.519 7.20076 129.081 7.20076ZM130.307 8.37406V18.2227H127.819V8.37406H130.307Z" fill="#0B0B0B"></path>
</svg>
