<?xml version="1.0" encoding="UTF-8"?>
<svg xmlns="http://www.w3.org/2000/svg" width="122" height="24" viewBox="0 0 122 24" fill="none">
  <g clip-path="url(#clip0_3551_4078)">
    <path d="M34.0184 16.8147C31.778 16.8147 30.3896 14.7803 30.3896 11.9655C30.3896 9.17859 31.558 7.10231 34.0046 7.10231C35.6128 7.10231 36.6712 8.14742 36.8639 9.52693H40.6027C40.41 7.81298 39.6541 6.30806 38.3346 5.30477C37.2624 4.46868 35.7779 3.95312 34.0184 3.95312C29.5098 3.95312 26.582 7.40888 26.582 11.9655C26.582 16.55 29.6061 19.9082 34.0461 19.9082C36.1764 19.9082 37.7296 19.309 38.8844 18.1664C39.9152 17.1631 40.6027 15.7696 40.6987 14.2508H36.9599C36.7952 15.7418 35.6953 16.8147 34.0184 16.8147Z" fill="#0B0B0B"></path>
    <path d="M47.5994 8.3125C44.1355 8.3125 41.8125 10.8207 41.8125 14.1232C41.8125 17.4257 44.1355 19.934 47.5994 19.934C51.0906 19.934 53.3725 17.4257 53.3725 14.1232C53.3725 10.8207 51.0906 8.3125 47.5994 8.3125ZM47.5856 17.4397C46.0873 17.4397 45.3037 16.1159 45.3037 14.1232C45.3037 12.1306 46.0873 10.7789 47.5856 10.7789C49.084 10.7789 49.8948 12.1306 49.8948 14.1232C49.8813 16.1159 49.084 17.4397 47.5856 17.4397Z" fill="#0B0B0B"></path>
    <path d="M58.2616 7.14561C58.997 6.40009 58.997 5.19138 58.2616 4.44586C57.5259 3.70034 56.3338 3.70034 55.5984 4.44586C54.863 5.19138 54.863 6.40009 55.5984 7.14561C56.3338 7.89112 57.5259 7.89112 58.2616 7.14561Z" fill="#0B0B0B"></path>
    <path d="M53.9336 11.0719H55.3767V19.5859H58.8133V8.60547H53.9336V11.0719Z" fill="#0B0B0B"></path>
    <path d="M67.2683 8.28516C65.7702 8.28516 64.7253 8.92614 63.9283 10.1106H63.8596V8.60566H60.5469V19.5722H63.997V13.5106C63.997 12.159 64.7529 11.1975 65.8939 11.1975C67.021 11.1975 67.5846 11.9917 67.5846 13.1483V19.5722H71.0347V12.4377C71.0347 9.99911 69.6327 8.28516 67.2683 8.28516Z" fill="#0B0B0B"></path>
    <path d="M79.1184 4.25781H72.6719V19.5719H78.8849C80.7818 19.5719 82.3074 19.0842 83.4898 18.1785C85.1805 16.8686 86.115 14.7088 86.115 12.0054C86.115 7.32341 83.2971 4.25781 79.1184 4.25781ZM78.61 16.3949H76.4107V7.43491H78.6512C81.0018 7.43491 82.335 9.23245 82.335 12.0194C82.3212 14.8202 81.0567 16.3949 78.61 16.3949Z" fill="#0B0B0B"></path>
    <path d="M96.3251 9.73277C95.3906 8.88277 94.1671 8.36719 92.6277 8.36719C89.3285 8.36719 87.0742 10.8754 87.0742 14.15C87.0742 17.4665 89.2736 19.9747 92.8476 19.9747C94.222 19.9747 95.3216 19.6124 96.229 18.9714C97.1773 18.3026 97.8096 17.3689 98.0434 16.3796H94.6893C94.3871 17.0624 93.7959 17.4665 92.8887 17.4665C91.4729 17.4665 90.6756 16.5468 90.4556 15.0697H98.2357C98.2495 12.8262 97.6172 10.9311 96.3251 9.73277ZM90.4694 12.9795C90.7032 11.6697 91.3766 10.8336 92.6826 10.8336C93.7959 10.8336 94.6071 11.6697 94.7307 12.9795H90.4694Z" fill="#0B0B0B"></path>
    <path d="M105.028 12.717C103.654 12.4662 102.431 12.3547 102.431 11.5883C102.431 10.9055 103.09 10.585 103.929 10.585C104.877 10.585 105.537 10.8915 105.661 11.867H108.836C108.671 9.70711 107.022 8.35547 103.956 8.35547C101.399 8.35547 99.2826 9.55384 99.2826 11.867C99.2826 14.4449 101.29 14.9465 103.173 15.267C104.616 15.5178 105.922 15.6293 105.922 16.6187C105.922 17.3293 105.262 17.7056 104.231 17.7056C103.09 17.7056 102.375 17.1761 102.238 16.0752H98.9805C99.0903 18.4999 101.07 19.9769 104.245 19.9769C107.077 19.9769 109.166 18.7367 109.166 16.34C109.18 13.5391 106.939 13.0375 105.028 12.717Z" fill="#0B0B0B"></path>
    <path d="M117.273 12.7301L121.08 8.60541H117.108L113.891 12.312V4.25781H110.496V19.5859H113.891V16.2137L114.936 15.0989L117.534 19.5859H121.52L117.273 12.7301Z" fill="#0B0B0B"></path>
    <path d="M11.4353 12.9813C12.0123 12.9813 12.48 12.5072 12.48 11.9223C12.48 11.3374 12.0123 10.8633 11.4353 10.8633C10.8584 10.8633 10.3906 11.3374 10.3906 11.9223C10.3906 12.5072 10.8584 12.9813 11.4353 12.9813Z" fill="#F8BF1E"></path>
    <path d="M19.7634 12.9813C20.3404 12.9813 20.8081 12.5072 20.8081 11.9223C20.8081 11.3374 20.3404 10.8633 19.7634 10.8633C19.1864 10.8633 18.7188 11.3374 18.7188 11.9223C18.7188 12.5072 19.1864 12.9813 19.7634 12.9813Z" fill="#F8BF1E"></path>
    <path d="M19.7634 21.4384C20.3404 21.4384 20.8081 20.9642 20.8081 20.3793C20.8081 19.7945 20.3404 19.3203 19.7634 19.3203C19.1864 19.3203 18.7188 19.7945 18.7188 20.3793C18.7188 20.9642 19.1864 21.4384 19.7634 21.4384Z" fill="#F8BF1E"></path>
    <path d="M22.8287 3.26824C22.7187 1.7215 21.4954 0.467386 19.9696 0.35591C18.9937 0.286237 18.1139 0.66247 17.4954 1.30346C17.028 1.79117 16.3957 2.0838 15.7222 2.0838H15.4748C14.7875 2.0838 14.1414 1.79117 13.6603 1.28953C13.0968 0.704273 12.3133 0.35591 11.4473 0.35591C10.5813 0.35591 9.79781 0.718209 9.23424 1.28953C8.75314 1.79117 8.10711 2.0838 7.41982 2.0838H7.18614C6.51262 2.0838 5.86656 1.81904 5.3992 1.33133C5.30299 1.23379 5.20675 1.13625 5.11054 1.05264C3.94218 0.0911524 2.22395 0.119021 1.09681 1.13625C-0.264013 2.34855 -0.318995 4.46662 0.945607 5.74858C0.959354 5.76252 0.973098 5.77645 0.986845 5.79039C1.48169 6.26416 1.74286 6.93305 1.74286 7.61584V7.85273C1.74286 8.54945 1.4542 9.20437 0.959351 9.69208C0.382034 10.2634 0.0383927 11.0577 0.0383927 11.9356C0.0383927 12.8134 0.395781 13.6077 0.959351 14.179C1.4542 14.6667 1.74286 15.3217 1.74286 16.0184V16.3389C1.74286 17.0217 1.4542 17.6627 0.973098 18.1364C0.36829 18.7356 -0.0028442 19.5856 0.0383927 20.5193C0.107121 22.1635 1.4267 23.4873 3.03495 23.5431C3.96966 23.5709 4.80814 23.1947 5.3992 22.5677C5.86656 22.0799 6.49884 21.7734 7.17239 21.7734H7.43356C8.10711 21.7734 8.7394 22.066 9.20676 22.5677C9.8253 23.2226 10.7188 23.5988 11.6947 23.5291C13.2205 23.4176 14.4576 22.1635 14.5676 20.6029C14.6913 18.7496 13.2617 17.2168 11.4611 17.2168C10.6088 17.2168 9.8253 17.5651 9.26173 18.1364C8.78063 18.6242 8.1346 18.9168 7.46105 18.9168H7.17239C6.49884 18.9168 5.83907 18.652 5.35797 18.1504C5.34422 18.1364 5.34422 18.1364 5.33048 18.1225C4.83563 17.6348 4.54697 16.9799 4.54697 16.2831V16.0045C4.54697 15.3077 4.83563 14.6528 5.33048 14.1651C5.90779 13.5938 6.25145 12.7995 6.25145 11.9216C6.25145 11.0438 5.89404 10.2495 5.33048 9.67814C4.83563 9.19043 4.54697 8.53551 4.54697 7.83879V7.58796C4.54697 6.89124 4.83563 6.23629 5.31673 5.74858C5.33048 5.73467 5.33048 5.73467 5.34422 5.72074C5.35797 5.7068 5.35796 5.7068 5.37171 5.69286C5.85281 5.20515 6.49884 4.91252 7.18614 4.91252H7.43356C8.12085 4.91252 8.76689 5.20515 9.24799 5.7068C9.81155 6.29204 10.5951 6.64041 11.4611 6.64041C12.327 6.64041 13.1105 6.2781 13.6741 5.7068C14.1552 5.20515 14.8013 4.91252 15.4885 4.91252H15.7085C16.3957 4.91252 17.0418 5.20515 17.5229 5.7068C18.0864 6.29204 18.87 6.64041 19.7359 6.64041C21.5229 6.65435 22.9524 5.12153 22.8287 3.26824Z" fill="#F8BF1E"></path>
  </g>
  <defs>
    <clipPath id="clip0_3551_4078">
      <rect width="121.487" height="23.279" fill="white" transform="translate(0.0351562 0.347656)"></rect>
    </clipPath>
  </defs>
</svg>
