<?xml version="1.0" encoding="UTF-8"?>
<svg xmlns="http://www.w3.org/2000/svg" width="102" height="18" viewBox="0 0 102 18" fill="none">
  <g clip-path="url(#clip0_3551_3918)">
    <path d="M20.6339 5.02526C16.9733 5.02526 14.1131 7.80407 14.1131 11.524C14.1131 15.2441 16.9011 17.9991 20.6339 17.9991C24.3667 17.9991 27.2031 15.1965 27.2031 11.5003C27.2031 7.82783 24.4152 5.02526 20.6339 5.02526ZM20.6586 15.3182C18.574 15.3182 17.0465 13.6992 17.0465 11.525C17.0465 9.32608 18.5493 7.70802 20.6339 7.70802C22.7431 7.70802 24.2698 9.35077 24.2698 11.525C24.2698 13.6992 22.7431 15.3182 20.6586 15.3182ZM28.0026 7.85253H29.8208V17.7585H32.7295V5.26674H28.0026V7.85253ZM6.79293 7.70709C8.32046 7.70709 9.53239 8.64923 9.99249 10.0505H13.0713C12.5134 7.05493 10.041 5.02526 6.81763 5.02526C3.15708 5.02526 0.296875 7.80407 0.296875 11.525C0.296875 15.2459 3.08482 18 6.81763 18C9.9687 18 12.4896 15.9703 13.0475 12.95H9.99249C9.55619 14.3513 8.34422 15.3182 6.81673 15.3182C4.70747 15.3182 3.22933 13.6992 3.22933 11.525C3.23026 9.32608 4.6846 7.70709 6.79293 7.70709ZM83.2693 10.3167L81.1363 10.0029C80.1184 9.85843 79.3911 9.52 79.3911 8.72241C79.3911 7.85253 80.337 7.41805 81.6212 7.41805C83.0271 7.41805 83.9243 8.02176 84.1181 9.01235H86.93C86.6145 6.49972 84.6752 5.02616 81.6943 5.02616C78.6154 5.02616 76.5795 6.59669 76.5795 8.81935C76.5795 10.9451 77.9129 12.1781 80.603 12.5641L82.736 12.8778C83.7789 13.0223 84.3605 13.4339 84.3605 14.2068C84.3605 15.1974 83.3427 15.6081 81.9367 15.6081C80.2152 15.6081 79.2457 14.9075 79.1003 13.8446H76.24C76.5072 16.285 78.4217 18 81.912 18C85.0878 18 87.1961 16.5502 87.1961 14.0614C87.1961 11.8387 85.6695 10.6789 83.2693 10.3167ZM31.2752 0.120738C30.2087 0.120738 29.4085 0.893644 29.4085 1.9565C29.4085 3.01936 30.2078 3.79226 31.2752 3.79226C32.3417 3.79226 33.1421 3.01936 33.1421 1.9565C33.1421 0.893644 32.3417 0.120738 31.2752 0.120738ZM73.9616 9.54377C73.9616 6.83814 72.3135 5.02616 68.8229 5.02616C65.5263 5.02616 63.6842 6.69364 63.3202 9.25473H66.205C66.3504 8.26414 67.1261 7.44275 68.7745 7.44275C70.2536 7.44275 70.9806 8.09491 70.9806 8.89253C70.9806 9.93161 69.6469 10.1969 67.9988 10.3661C65.7688 10.6075 63.0055 11.3804 63.0055 14.28C63.0055 16.5274 64.6784 17.9762 67.3449 17.9762C69.4293 17.9762 70.7382 17.1064 71.3932 15.7289C71.4902 16.9609 72.4113 17.7585 73.6964 17.7585H75.3932V15.1736H73.9624V9.54377H73.9616ZM71.1013 12.6848C71.1013 14.3522 69.6469 15.5843 67.877 15.5843C66.7861 15.5843 65.865 15.1251 65.865 14.1593C65.865 12.9272 67.3438 12.5887 68.7014 12.4442C70.0103 12.3235 70.7373 12.0335 71.1013 11.4774V12.6848ZM55.6607 5.02526C54.0362 5.02526 52.6788 5.70212 51.7094 6.83724V0H48.8007V17.7585H51.6607V16.1158C52.6302 17.2993 54.0125 18 55.6607 18C59.151 18 61.7936 15.2459 61.7936 11.525C61.7936 7.80407 59.1026 5.02526 55.6607 5.02526ZM55.2244 15.3182C53.1398 15.3182 51.6123 13.6992 51.6123 11.525C51.6123 9.35077 53.1637 7.70802 55.2481 7.70802C57.3574 7.70802 58.8354 9.32701 58.8354 11.525C58.8354 13.6992 57.3088 15.3182 55.2244 15.3182ZM41.8434 5.02526C39.9528 5.02526 38.7162 5.79817 37.9892 6.8857V5.26674H35.1041V17.7576H38.0128V10.9689C38.0128 9.05991 39.2247 7.70709 41.0185 7.70709C42.6914 7.70709 43.7331 8.89071 43.7331 10.6066V17.7585H46.6418V10.3899C46.6429 7.24792 45.0193 5.02526 41.8434 5.02526ZM101.062 11.1143C101.062 7.53879 98.4438 5.02616 94.9288 5.02616C91.196 5.02616 88.4567 7.82876 88.4567 11.525C88.4567 15.4151 91.3898 18 94.9774 18C98.0076 18 100.383 16.2118 100.989 13.6754H97.9581C97.5219 14.7867 96.4554 15.4151 95.025 15.4151C93.158 15.4151 91.7521 14.2553 91.4373 12.2256H101.061V11.1143H101.062ZM91.6075 10.1475C92.0687 8.40774 93.3774 7.56259 94.8804 7.56259C96.5285 7.56259 97.7891 8.50469 98.0799 10.1475H91.6075Z" fill="#2C2C2C"></path>
  </g>
  <defs>
    <clipPath id="clip0_3551_3918">
      <rect width="100.969" height="18" fill="white" transform="translate(0.296875)"></rect>
    </clipPath>
  </defs>
</svg>
