<?xml version="1.0" encoding="UTF-8"?>
<svg xmlns="http://www.w3.org/2000/svg" width="103" height="24" viewBox="0 0 103 24" fill="none">
  <g clip-path="url(#clip0_3551_4993)">
    <path d="M80.1436 22.9064C79.5826 22.7783 79.0018 22.7128 78.4706 22.5099C77.3727 22.09 76.6003 21.2942 76.1757 20.1954C75.6865 18.9694 75.6558 17.6079 76.0897 16.3612C76.5573 14.9893 77.5008 14.0635 78.869 13.6146C80.5897 13.0535 82.302 13.0863 83.9488 13.8952C84.9186 14.373 85.5564 15.1389 85.7949 16.2536H82.8173C82.4292 15.2969 81.6165 15.1389 80.7094 15.2484C79.879 15.3484 79.3787 15.8852 79.1383 16.6511C78.8378 17.5948 78.8646 18.6123 79.2141 19.5389C79.6499 20.7275 81.077 21.2325 82.1898 20.6218C82.6696 20.3581 82.8967 19.9448 82.9248 19.3585H81.1405V17.3151H85.7827V22.6456H83.7319C83.6786 22.4061 83.6253 22.1676 83.5626 21.8843C83.4261 21.99 83.2998 22.0919 83.1708 22.1882C82.6777 22.5479 82.0955 22.7655 81.4875 22.8176C81.2873 22.8391 81.0881 22.8737 80.8881 22.9027L80.1436 22.9064Z" fill="black"></path>
    <path d="M18.7979 0.933594C21.2592 1.05984 23.1931 2.41397 23.5999 4.80238C24.0872 7.65932 22.5029 10.0468 19.4702 10.477C18.3097 10.6416 17.166 10.5892 16.0736 10.1572C13.7218 9.22852 12.982 7.01219 13.2345 5.12222C13.5403 2.83479 15.117 1.31608 17.41 1.01589C17.5307 0.99999 17.6495 0.961649 17.7691 0.933594H18.7979ZM16.3505 5.67771C16.3505 6.32204 16.4318 6.9486 16.7545 7.52093C17.1473 8.21856 17.7832 8.48602 18.5462 8.47199C19.3094 8.45797 19.9041 8.12691 20.2052 7.4059C20.4332 6.87688 20.5517 6.30717 20.5534 5.73112C20.5552 5.15509 20.4402 4.58466 20.2155 4.05425C19.9135 3.31547 19.301 2.99657 18.5163 2.97507C17.7317 2.95356 17.0967 3.2313 16.7124 3.96447C16.4309 4.50406 16.3543 5.082 16.3505 5.67771Z" fill="black"></path>
    <path d="M1.40234 22.5364C1.74462 21.6789 2.09624 20.8241 2.43103 19.9619C3.25492 17.8035 4.06757 15.6414 4.88678 13.4766H8.79018L12.4832 22.6534H9.28302L8.66206 20.9887H4.99152L4.39488 22.6786C3.5364 22.6786 2.69942 22.6786 1.86151 22.6786C1.70908 22.6786 1.55758 22.7066 1.40608 22.7216L1.40234 22.5364ZM7.93637 18.7957L6.7618 15.3562C6.38773 16.5186 6.03517 17.6445 5.66952 18.7967L7.93637 18.7957Z" fill="black"></path>
    <path d="M8.0435 0.933594C8.58496 1.06452 9.14699 1.1412 9.66508 1.33665C10.9743 1.83042 11.8515 2.72351 12.1208 4.18798H9.14513C9.15354 4.19359 9.11239 4.18237 9.10491 4.15992C8.82436 3.31079 8.20154 2.99097 7.35428 2.9732C6.4827 2.95543 5.82808 3.30518 5.50357 4.11784C5.27998 4.65029 5.17155 5.22401 5.18541 5.80133C5.19927 6.37866 5.33511 6.94652 5.584 7.46762C5.9272 8.20547 6.56873 8.51875 7.37205 8.50285C8.17536 8.48695 8.78228 8.16432 9.07218 7.3713C9.09242 7.3241 9.11554 7.2782 9.14139 7.23382H12.0694C12.0614 7.34874 12.0445 7.46286 12.0189 7.57516C11.6355 8.86008 10.7919 9.73351 9.54537 10.1721C8.11419 10.6971 6.54627 10.7152 5.10333 10.2235C3.32276 9.62128 2.16503 8.08296 2.05841 6.20327C1.97331 4.6724 2.34925 3.30425 3.5126 2.22787C4.25793 1.53958 5.15756 1.18516 6.14416 1.02711C6.27977 1.00186 6.4135 0.964454 6.54723 0.933594H8.0435Z" fill="black"></path>
    <path d="M34.0005 3.22297L32.104 10.3489H29.624C29.0628 7.98672 28.4971 5.61482 27.9266 3.23326L27.8985 3.24355C27.9397 5.60578 27.9809 7.96708 28.022 10.3508H25.3633V1.15625H29.6427L31.066 6.82712L32.595 1.16093H36.8603V10.3424H34.0005V3.22297Z" fill="black"></path>
    <path d="M52.234 13.4805H54.874V22.6554H51.5925L48.1006 16.4674V22.647H45.4531V13.4823H48.9516C50.0279 15.3003 51.1324 17.164 52.234 19.0232V13.4805Z" fill="black"></path>
    <path d="M13.5 22.6395V13.499C13.5567 13.482 13.6149 13.4704 13.6739 13.4644C15.2787 13.4644 16.8834 13.4514 18.4882 13.4757C19.317 13.4739 20.1342 13.6711 20.871 14.0508C22.4804 14.9075 23.1986 16.3102 23.1406 18.0832C23.063 20.4886 21.5696 22.1653 19.2017 22.5964C18.8321 22.6536 18.4582 22.6787 18.0842 22.6712C16.6506 22.6796 15.2179 22.6758 13.7824 22.6712C13.6877 22.6662 13.5935 22.6555 13.5 22.6395ZM16.4925 20.5661C17.0695 20.5661 17.6306 20.611 18.1815 20.5558C19.038 20.4708 19.5973 19.9807 19.8441 19.1456C20.0485 18.4548 20.0589 17.721 19.8741 17.0247C19.6655 16.2148 19.1456 15.6743 18.3002 15.5799C17.7073 15.5125 17.1004 15.5668 16.4925 15.5668V20.5661Z" fill="black"></path>
    <path d="M95.5731 19.0011H90.6919V20.5544H96.169L95.8403 22.6426H87.7461V13.4883H95.8277V15.5999H90.6844V16.8595H95.5731V19.0011Z" fill="black"></path>
    <path d="M36.8229 13.4766H40.7319L44.4211 22.6459H41.2276C41.0321 22.1306 40.8198 21.5704 40.5991 20.9906H36.9314L36.344 22.6571H33.3516L36.8229 13.4766ZM39.8772 18.7976C39.4843 17.6511 39.101 16.5345 38.6998 15.3655C38.3257 16.5542 37.9676 17.6679 37.6075 18.7976H39.8772Z" fill="black"></path>
    <path d="M75.4402 22.6627H72.2392L71.607 20.9794H67.9421C67.7447 21.5405 67.5502 22.0922 67.3519 22.6571H64.3594C65.5247 19.5757 66.6768 16.527 67.8308 13.4766H71.7407L75.4402 22.6627ZM70.886 18.7957L69.7114 15.3571L68.621 18.7957H70.886Z" fill="black"></path>
    <path d="M42.0349 7.21751V10.3456H39.0938V1.19503C39.1283 1.17352 39.1545 1.14453 39.1807 1.14453C41.11 1.16043 43.042 1.13705 44.9694 1.21373C46.0289 1.25581 46.966 1.6888 47.5673 2.63612C48.4594 4.03888 47.9414 5.95597 46.4751 6.73684C45.8912 7.03555 45.2464 7.19556 44.5907 7.20442C43.9061 7.22781 43.2206 7.21845 42.5333 7.22219C42.3846 7.21845 42.2321 7.21751 42.0349 7.21751ZM42.0629 5.25366C42.8111 5.21813 43.5432 5.22374 44.2624 5.13583C44.7787 5.07318 45.0732 4.62991 45.0508 4.1352C45.0283 3.6405 44.7375 3.24585 44.2325 3.21125C43.5106 3.16075 42.7821 3.19816 42.0666 3.19816L42.0629 5.25366Z" fill="black"></path>
    <path d="M23.4883 13.4805H26.7613L28.9646 20.4063C29.6884 18.131 30.4235 15.8174 31.166 13.4861H34.368C33.1523 16.5599 31.9421 19.6002 30.7302 22.6563H27.0596C25.8738 19.6104 24.6872 16.5637 23.4883 13.4805Z" fill="black"></path>
    <path d="M62.2921 10.3422H59.2902C59.2902 9.50056 59.2594 8.68233 59.3004 7.86312C59.331 7.30603 59.1684 6.75547 58.8404 6.30419C57.7818 4.74713 56.7653 3.16296 55.7365 1.58814C55.6533 1.46096 55.5785 1.3291 55.4766 1.15983H58.9816L60.9248 4.76771C61.5914 3.55885 62.2563 2.35373 62.9196 1.15234H66.1282C66.0271 1.3132 65.9411 1.45347 65.8476 1.59001C64.7469 3.26583 63.649 4.94445 62.5381 6.61373C62.3624 6.86762 62.273 7.17116 62.2827 7.4797C62.3024 8.42889 62.2921 9.37532 62.2921 10.3422Z" fill="black"></path>
    <path d="M65.2319 13.4844V15.5913H62.216V22.6537H59.2533V15.6137H56.2188V13.4844H65.2319Z" fill="black"></path>
    <path d="M49.4023 1.16016H52.3574V8.20852H57.2895C57.168 8.95666 57.0558 9.64777 56.9408 10.3528H49.4023V1.16016Z" fill="black"></path>
    <path d="M102.347 11.0648C102.353 11.7396 102.09 12.3892 101.618 12.8707C101.145 13.3523 100.5 13.6262 99.8249 13.6323C99.1504 13.6383 98.5003 13.3761 98.0191 12.9032C97.5378 12.4302 97.2633 11.7855 97.2579 11.1105C97.2516 10.4357 97.5134 9.78608 97.9866 9.30456C98.4597 8.82307 99.1044 8.54915 99.7797 8.54307C100.454 8.537 101.103 8.79926 101.586 9.27215C102.067 9.74509 102.34 10.3898 102.347 11.0648ZM97.7274 11.0779C97.7274 12.3029 98.6339 13.2586 99.8032 13.2605C100.972 13.2624 101.888 12.2964 101.886 11.0798C101.886 9.87989 100.993 8.95221 99.8285 8.92883C98.6466 8.91574 97.7265 9.8528 97.7265 11.0779H97.7274Z" fill="black"></path>
    <path d="M98.8555 9.61435C99.2762 9.61435 99.678 9.60316 100.078 9.61435C100.653 9.63304 100.951 9.87619 100.999 10.3401C101.048 10.8254 100.848 11.0808 100.25 11.2686L101.036 12.5218L100.575 12.5434L99.7837 11.3182H99.3051V12.5209L98.8582 12.5424L98.8555 9.61435ZM99.3168 10.9432C99.6446 10.918 99.9227 10.9134 100.194 10.8703C100.45 10.8291 100.549 10.6449 100.531 10.3925C100.531 10.3415 100.521 10.2909 100.501 10.2439C100.482 10.1967 100.454 10.154 100.417 10.1181C100.381 10.0822 100.338 10.0539 100.291 10.0348C100.243 10.0158 100.193 10.0064 100.142 10.0071C99.8694 9.98942 99.5958 10.0071 99.3168 10.0071V10.9432Z" fill="black"></path>
  </g>
  <defs>
    <clipPath id="clip0_3551_4993">
      <rect width="102.028" height="23.4754" fill="white" transform="translate(0.769531 0.1875)"></rect>
    </clipPath>
  </defs>
</svg>
