<?xml version="1.0" encoding="UTF-8"?>
<svg xmlns="http://www.w3.org/2000/svg" width="122" height="29" viewBox="0 0 122 29" fill="none">
  <g clip-path="url(#clip0_3551_3931)">
    <path d="M13.3122 28.2906C13.3031 28.2907 13.2942 28.2934 13.2867 28.2985C13.2792 28.3035 13.2733 28.3107 13.2699 28.3191C13.2664 28.3275 13.2655 28.3367 13.2673 28.3456C13.2691 28.3545 13.2735 28.3627 13.2799 28.3691C13.2863 28.3755 13.2945 28.3799 13.3034 28.3817C13.3123 28.3835 13.3215 28.3826 13.3299 28.3791C13.3383 28.3757 13.3455 28.3698 13.3505 28.3623C13.3556 28.3548 13.3583 28.3459 13.3584 28.3368C13.3584 28.3246 13.3535 28.3128 13.3448 28.3042C13.3362 28.2955 13.3244 28.2906 13.3122 28.2906ZM12.0317 27.8467C12.0197 27.8466 12.0077 27.8489 11.9965 27.8535C11.9853 27.8581 11.9751 27.8648 11.9666 27.8734C11.958 27.8819 11.9512 27.892 11.9466 27.9032C11.942 27.9144 11.9397 27.9264 11.9398 27.9385C11.9397 27.9567 11.945 27.9746 11.9551 27.9899C11.9652 28.0051 11.9796 28.017 11.9964 28.024C12.0133 28.0311 12.0318 28.033 12.0498 28.0294C12.0677 28.0259 12.0842 28.0172 12.0971 28.0043C12.1101 27.9914 12.1189 27.9749 12.1224 27.957C12.126 27.9391 12.1242 27.9205 12.1172 27.9036C12.1102 27.8867 12.0983 27.8723 12.0831 27.8622C12.0679 27.8521 12.05 27.8467 12.0317 27.8467ZM10.8003 27.2699C10.7646 27.2714 10.7309 27.2866 10.7062 27.3124C10.6815 27.3382 10.6677 27.3725 10.6677 27.4082C10.6677 27.4439 10.6815 27.4782 10.7062 27.504C10.7309 27.5298 10.7646 27.545 10.8003 27.5466C10.819 27.5473 10.8376 27.5444 10.8551 27.5378C10.8726 27.5312 10.8885 27.5211 10.902 27.5082C10.9155 27.4953 10.9262 27.4797 10.9336 27.4626C10.9409 27.4454 10.9447 27.4269 10.9447 27.4082C10.9447 27.3895 10.9409 27.3711 10.9336 27.3539C10.9262 27.3367 10.9155 27.3212 10.902 27.3083C10.8885 27.2953 10.8726 27.2853 10.8551 27.2787C10.8376 27.2721 10.819 27.2691 10.8003 27.2699ZM9.63163 26.5661C9.59513 26.5662 9.5595 26.5772 9.52922 26.5976C9.49895 26.6179 9.47539 26.6468 9.46152 26.6806C9.44766 26.7144 9.44411 26.7515 9.45132 26.7873C9.45853 26.823 9.47618 26.8559 9.50204 26.8816C9.5279 26.9074 9.56081 26.9249 9.59662 26.932C9.63243 26.939 9.66953 26.9353 9.70323 26.9213C9.73694 26.9073 9.76574 26.8837 9.78601 26.8533C9.80627 26.8229 9.81708 26.7873 9.81708 26.7508C9.81711 26.7264 9.81234 26.7023 9.80302 26.6799C9.7937 26.6574 9.78003 26.637 9.76279 26.6198C9.74556 26.6027 9.72509 26.5891 9.70258 26.5798C9.68007 26.5706 9.65596 26.5659 9.63163 26.5661ZM8.53917 25.744C8.49347 25.744 8.44879 25.7575 8.41077 25.7829C8.37276 25.8082 8.34312 25.8443 8.32561 25.8865C8.3081 25.9287 8.3035 25.9751 8.31241 26.02C8.32131 26.0648 8.34331 26.106 8.37562 26.1383C8.40794 26.1706 8.44911 26.1926 8.49393 26.2015C8.53875 26.2104 8.5852 26.2058 8.62741 26.1883C8.66962 26.1708 8.70569 26.1411 8.73104 26.1031C8.7564 26.0651 8.76991 26.0204 8.76986 25.9747C8.76986 25.9135 8.74555 25.8549 8.70229 25.8116C8.65903 25.7683 8.60035 25.744 8.53917 25.744ZM7.53369 24.8095C7.47898 24.8097 7.42554 24.826 7.38012 24.8565C7.33469 24.887 7.29932 24.9303 7.27845 24.9808C7.25758 25.0314 7.25216 25.087 7.26287 25.1407C7.27358 25.1943 7.29994 25.2436 7.33862 25.2823C7.37731 25.321 7.42658 25.3473 7.48023 25.358C7.53388 25.3687 7.5895 25.3633 7.64007 25.3424C7.69064 25.3216 7.73389 25.2862 7.76438 25.2408C7.79487 25.1954 7.81122 25.1419 7.81136 25.0872C7.8115 25.0507 7.8044 25.0145 7.7905 24.9808C7.77659 24.947 7.75614 24.9164 7.73033 24.8906C7.70452 24.8648 7.67385 24.8443 7.64011 24.8304C7.60636 24.8165 7.57019 24.8094 7.53369 24.8095ZM6.62768 23.7756C6.56384 23.7759 6.50153 23.7951 6.44862 23.8309C6.3957 23.8666 6.35455 23.9172 6.33036 23.9763C6.30617 24.0353 6.30002 24.1003 6.31269 24.1628C6.32535 24.2254 6.35627 24.2828 6.40153 24.3278C6.4468 24.3729 6.50438 24.4035 6.56702 24.4158C6.62966 24.4281 6.69455 24.4216 6.7535 24.3971C6.81245 24.3726 6.86281 24.3312 6.89825 24.2781C6.93368 24.225 6.95259 24.1626 6.95259 24.0987C6.95259 24.0561 6.94418 24.014 6.92783 23.9746C6.91148 23.9353 6.88752 23.8996 6.85732 23.8696C6.82713 23.8396 6.7913 23.8158 6.75189 23.7997C6.71247 23.7835 6.67026 23.7753 6.62768 23.7756ZM5.83189 22.6491C5.75873 22.6491 5.68721 22.6708 5.62638 22.7114C5.56555 22.7521 5.51814 22.8099 5.49014 22.8775C5.46215 22.945 5.45482 23.0194 5.46909 23.0912C5.48337 23.1629 5.5186 23.2288 5.57033 23.2806C5.62206 23.3323 5.68797 23.3675 5.75972 23.3818C5.83148 23.3961 5.90585 23.3887 5.97344 23.3608C6.04104 23.3328 6.09881 23.2853 6.13945 23.2245C6.1801 23.1637 6.20179 23.0922 6.20179 23.019C6.20182 22.9704 6.19228 22.9223 6.1737 22.8774C6.15512 22.8325 6.12788 22.7917 6.09352 22.7574C6.05917 22.723 6.01838 22.6958 5.97348 22.6772C5.92859 22.6586 5.88047 22.6491 5.83189 22.6491ZM5.5952 21.8473C5.5952 21.7651 5.57082 21.6847 5.52513 21.6163C5.47944 21.5479 5.4145 21.4946 5.33852 21.4631C5.26254 21.4316 5.17894 21.4234 5.09827 21.4394C5.0176 21.4554 4.9435 21.495 4.88532 21.5532C4.82715 21.6113 4.78752 21.6854 4.77144 21.766C4.75537 21.8467 4.76357 21.9303 4.79501 22.0063C4.82645 22.0823 4.87971 22.1473 4.94807 22.193C5.01643 22.2387 5.09682 22.2632 5.17906 22.2632C5.28933 22.263 5.39502 22.2191 5.47301 22.1412C5.551 22.0632 5.59494 21.9576 5.5952 21.8473ZM5.14932 20.5999C5.14937 20.5085 5.12233 20.4192 5.07161 20.3432C5.0209 20.2672 4.94878 20.2079 4.86439 20.1728C4.77999 20.1378 4.68711 20.1286 4.59747 20.1463C4.50783 20.1641 4.42546 20.208 4.36077 20.2725C4.29609 20.3371 4.25199 20.4193 4.23406 20.5089C4.21612 20.5985 4.22515 20.6915 4.26 20.7759C4.29486 20.8604 4.35397 20.9326 4.42988 20.9835C4.50578 21.0344 4.59506 21.0616 4.68644 21.0618C4.74716 21.0618 4.8073 21.0499 4.86343 21.0268C4.91955 21.0036 4.97056 20.9696 5.01354 20.9267C5.05652 20.8838 5.09064 20.8329 5.11393 20.7768C5.13723 20.7207 5.14925 20.6606 5.14932 20.5999ZM4.87114 19.299C4.87114 19.1984 4.84133 19.1002 4.78547 19.0166C4.72961 18.933 4.65021 18.8678 4.55732 18.8293C4.46443 18.7909 4.36222 18.7808 4.2636 18.8004C4.16499 18.82 4.07441 18.8684 4.00331 18.9395C3.93221 19.0106 3.8838 19.1012 3.86418 19.1998C3.84457 19.2984 3.85463 19.4006 3.89311 19.4935C3.93159 19.5864 3.99675 19.6658 4.08035 19.7217C4.16395 19.7775 4.26223 19.8074 4.36278 19.8074C4.49759 19.8073 4.62685 19.7537 4.72217 19.6584C4.8175 19.5631 4.87108 19.4338 4.87114 19.299ZM4.76642 17.9683C4.76657 17.8587 4.73418 17.7514 4.67334 17.6601C4.61251 17.5689 4.52597 17.4977 4.42467 17.4556C4.32338 17.4136 4.21188 17.4025 4.10429 17.4238C3.9967 17.4451 3.89785 17.4979 3.82026 17.5754C3.74267 17.653 3.68982 17.7518 3.66839 17.8593C3.64697 17.9669 3.65794 18.0784 3.69991 18.1797C3.74189 18.2811 3.81298 18.3677 3.90419 18.4286C3.9954 18.4895 4.10264 18.522 4.21232 18.522C4.28507 18.5221 4.35713 18.5078 4.42437 18.48C4.4916 18.4522 4.55271 18.4115 4.60417 18.3601C4.65564 18.3086 4.69646 18.2476 4.7243 18.1804C4.75214 18.1131 4.76645 18.0411 4.76642 17.9683ZM4.23656 17.227C4.3552 17.227 4.47117 17.1919 4.56982 17.126C4.66846 17.06 4.74534 16.9664 4.79074 16.8568C4.83614 16.7471 4.84802 16.6265 4.82488 16.5102C4.80173 16.3938 4.7446 16.2869 4.66071 16.2031C4.57682 16.1192 4.46994 16.062 4.35359 16.0389C4.23723 16.0157 4.11662 16.0276 4.00701 16.073C3.89741 16.1184 3.80372 16.1953 3.73781 16.2939C3.6719 16.3926 3.63672 16.5086 3.63672 16.6272C3.63672 16.7863 3.69992 16.9389 3.81241 17.0514C3.9249 17.1638 4.07747 17.227 4.23656 17.227Z" fill="black"></path>
    <path d="M3.79206 15.2973C3.79216 15.4252 3.83017 15.5502 3.90129 15.6564C3.97241 15.7627 4.07344 15.8455 4.19161 15.8943C4.30978 15.9432 4.43978 15.9559 4.56518 15.9309C4.69057 15.9059 4.80574 15.8442 4.8961 15.7537C4.98647 15.6633 5.04798 15.548 5.07286 15.4226C5.09774 15.2972 5.08487 15.1672 5.03588 15.0491C4.98689 14.931 4.90397 14.83 4.79762 14.759C4.69127 14.6881 4.56626 14.6502 4.43839 14.6502C4.35343 14.6502 4.26929 14.6669 4.1908 14.6994C4.1123 14.7319 4.04099 14.7795 3.98095 14.8397C3.92091 14.8998 3.87332 14.9711 3.84091 15.0497C3.8085 15.1282 3.79189 15.2124 3.79206 15.2973ZM23.1982 25.1997C23.1901 25.1996 23.182 25.202 23.1752 25.2065C23.1685 25.211 23.1632 25.2174 23.16 25.2249C23.1569 25.2324 23.1562 25.2406 23.1576 25.2486C23.1593 25.2566 23.1631 25.2639 23.1689 25.2697C23.1746 25.2754 23.182 25.2793 23.19 25.2809C23.198 25.2825 23.2063 25.2816 23.2138 25.2785C23.2213 25.2754 23.2276 25.2701 23.232 25.2633C23.2365 25.2565 23.2389 25.2486 23.2388 25.2404C23.2388 25.2297 23.2344 25.2194 23.2267 25.2118C23.2191 25.2042 23.209 25.1999 23.1982 25.1997ZM22.0107 25.7823C22 25.7821 21.9892 25.7841 21.9793 25.7881C21.9693 25.7921 21.9603 25.798 21.9526 25.8055C21.9449 25.8131 21.9388 25.8221 21.9347 25.832C21.9305 25.8419 21.9282 25.8525 21.9282 25.8633C21.9276 25.8744 21.9292 25.8856 21.9331 25.8961C21.9369 25.9066 21.9429 25.9162 21.9506 25.9243C21.9583 25.9324 21.9676 25.9389 21.9778 25.9433C21.9881 25.9477 21.9991 25.95 22.0103 25.95C22.0215 25.95 22.0326 25.9477 22.0429 25.9433C22.0532 25.9389 22.0623 25.9324 22.07 25.9243C22.0777 25.9162 22.0837 25.9066 22.0875 25.8961C22.0914 25.8856 22.0931 25.8744 22.0924 25.8633C22.0924 25.8417 22.0837 25.8211 22.0683 25.8059C22.053 25.7907 22.0322 25.7822 22.0107 25.7823ZM20.7649 26.2372C20.7323 26.2372 20.701 26.2501 20.678 26.2731C20.655 26.2961 20.642 26.3273 20.642 26.3599C20.642 26.3924 20.655 26.4236 20.678 26.4467C20.701 26.4697 20.7323 26.4826 20.7649 26.4826C20.7973 26.4826 20.8285 26.4697 20.8515 26.4467C20.8745 26.4236 20.8876 26.3924 20.8876 26.3599C20.8876 26.3273 20.8745 26.2961 20.8515 26.2731C20.8285 26.2501 20.7973 26.2372 20.7649 26.2372ZM19.4734 26.5581C19.4312 26.5597 19.3913 26.5777 19.3619 26.6081C19.3326 26.6386 19.3164 26.6792 19.3164 26.7214C19.3164 26.7637 19.3326 26.8043 19.3619 26.8347C19.3913 26.8652 19.4312 26.8831 19.4734 26.8847C19.4953 26.8856 19.5173 26.882 19.5378 26.8742C19.5584 26.8664 19.5772 26.8545 19.5931 26.8392C19.6089 26.824 19.6215 26.8057 19.6301 26.7854C19.6388 26.7652 19.6432 26.7434 19.6432 26.7214C19.6432 26.6994 19.6388 26.6776 19.6301 26.6574C19.6215 26.6371 19.6089 26.6188 19.5931 26.6036C19.5772 26.5883 19.5584 26.5764 19.5378 26.5686C19.5173 26.5608 19.4953 26.5572 19.4734 26.5581ZM18.1518 26.7403C18.1112 26.7399 18.0714 26.7515 18.0375 26.7738C18.0037 26.796 17.9771 26.8279 17.9613 26.8652C17.9457 26.9026 17.9414 26.9437 17.9491 26.9836C17.9568 27.0234 17.976 27.06 18.0047 27.0887C18.0333 27.1175 18.0696 27.1371 18.1094 27.1451C18.1491 27.1531 18.1903 27.1491 18.2278 27.1336C18.2654 27.1182 18.2974 27.0919 18.3199 27.0581C18.3424 27.0244 18.3542 26.9848 18.3542 26.9442C18.354 26.8905 18.3327 26.8389 18.2948 26.8008C18.2568 26.7626 18.2056 26.7409 18.1518 26.7403ZM16.8137 26.7828C16.7652 26.7828 16.7178 26.7971 16.6775 26.824C16.6373 26.8509 16.606 26.8891 16.5874 26.9339C16.5689 26.9786 16.564 27.0278 16.5734 27.0753C16.5828 27.1228 16.606 27.1664 16.6402 27.2007C16.6744 27.235 16.7181 27.2584 16.7656 27.2679C16.813 27.2774 16.8623 27.2726 16.9069 27.2541C16.9517 27.2357 16.99 27.2044 17.017 27.1641C17.0439 27.1239 17.0585 27.0766 17.0585 27.0282C17.0588 26.996 17.0525 26.964 17.0403 26.9342C17.028 26.9044 17.01 26.8773 16.9872 26.8545C16.9644 26.8316 16.9374 26.8136 16.9076 26.8013C16.8778 26.789 16.8458 26.7827 16.8137 26.7828ZM15.4727 26.6848C15.4162 26.6849 15.361 26.7018 15.3141 26.7333C15.2673 26.7648 15.2308 26.8095 15.2093 26.8618C15.1878 26.914 15.1823 26.9715 15.1934 27.0268C15.2045 27.0822 15.2318 27.133 15.2718 27.1729C15.3119 27.2128 15.3629 27.2399 15.4184 27.2508C15.4738 27.2617 15.5311 27.2559 15.5834 27.2342C15.6355 27.2125 15.68 27.1758 15.7113 27.1287C15.7425 27.0817 15.7592 27.0265 15.7591 26.97C15.7591 26.9324 15.7517 26.8952 15.7374 26.8605C15.7229 26.8259 15.7017 26.7944 15.6751 26.7679C15.6486 26.7414 15.617 26.7204 15.5822 26.7061C15.5475 26.6919 15.5103 26.6846 15.4727 26.6848ZM14.1481 26.4429C14.0834 26.4429 14.0201 26.4621 13.9663 26.498C13.9126 26.534 13.8708 26.5851 13.8461 26.6449C13.8215 26.7047 13.8151 26.7705 13.8279 26.8339C13.8406 26.8973 13.8719 26.9555 13.9178 27.0011C13.9636 27.0467 14.0219 27.0777 14.0855 27.0901C14.1489 27.1025 14.2147 27.0958 14.2743 27.0708C14.334 27.0458 14.3849 27.0037 14.4206 26.9497C14.4563 26.8958 14.475 26.8324 14.4747 26.7678C14.4743 26.6814 14.4398 26.5987 14.3785 26.5378C14.3173 26.4769 14.2345 26.4427 14.1481 26.4429ZM12.858 26.035C12.7853 26.0351 12.7144 26.0567 12.6542 26.0971C12.5939 26.1375 12.547 26.1948 12.5192 26.2619C12.4915 26.329 12.4843 26.4028 12.4986 26.4739C12.5129 26.5451 12.5479 26.6104 12.5993 26.6617C12.6507 26.7129 12.7161 26.7478 12.7873 26.7618C12.8586 26.7759 12.9323 26.7685 12.9993 26.7406C13.0663 26.7128 13.1235 26.6657 13.1637 26.6053C13.2039 26.5449 13.2255 26.4739 13.2254 26.4014C13.225 26.3041 13.1862 26.2109 13.1173 26.1422C13.0484 26.0735 12.9552 26.035 12.858 26.035ZM11.6283 25.4606C11.5475 25.4605 11.4684 25.4843 11.4012 25.5291C11.3341 25.5738 11.2816 25.6375 11.2506 25.7121C11.2196 25.7867 11.2114 25.8688 11.2271 25.948C11.2428 26.0272 11.2816 26.1 11.3387 26.1572C11.3958 26.2143 11.4686 26.2533 11.5478 26.269C11.627 26.2848 11.7091 26.2767 11.7837 26.2458C11.8583 26.2149 11.9221 26.1626 11.967 26.0954C12.0118 26.0282 12.0357 25.9493 12.0357 25.8685C12.0357 25.815 12.0252 25.762 12.0047 25.7125C11.9843 25.663 11.9542 25.6181 11.9164 25.5802C11.8785 25.5423 11.8337 25.5123 11.7843 25.4917C11.7347 25.4712 11.6818 25.4606 11.6283 25.4606ZM10.9277 25.1772C10.9277 25.0882 10.9012 25.0012 10.8518 24.9273C10.8024 24.8533 10.7322 24.7956 10.65 24.7616C10.5677 24.7275 10.4773 24.7186 10.39 24.736C10.3027 24.7533 10.2226 24.7962 10.1597 24.8591C10.0968 24.922 10.0539 25.0022 10.0365 25.0894C10.0192 25.1767 10.0281 25.2671 10.0622 25.3494C10.0962 25.4316 10.1539 25.5018 10.2278 25.5513C10.3019 25.6007 10.3889 25.6271 10.4777 25.6271C10.537 25.6273 10.5956 25.6158 10.6502 25.5932C10.7049 25.5707 10.7545 25.5376 10.7963 25.4957C10.8381 25.4539 10.8713 25.4043 10.8939 25.3496C10.9164 25.2949 10.9279 25.2363 10.9277 25.1772ZM9.43081 23.8528C9.33399 23.8527 9.23932 23.8813 9.15877 23.935C9.07822 23.9888 9.01542 24.0652 8.97831 24.1546C8.94121 24.244 8.93146 24.3425 8.9503 24.4374C8.96915 24.5324 9.01574 24.6196 9.08419 24.6881C9.15263 24.7566 9.23985 24.8032 9.33481 24.8221C9.42977 24.841 9.5282 24.8313 9.61764 24.7943C9.70709 24.7572 9.78353 24.6944 9.8373 24.6139C9.89106 24.5334 9.91973 24.4387 9.91968 24.3419C9.91929 24.2124 9.86766 24.0882 9.77608 23.9966C9.68449 23.9049 9.56037 23.8533 9.43081 23.8528ZM8.49956 22.8458C8.39447 22.8457 8.29171 22.8767 8.20426 22.935C8.11682 22.9933 8.04863 23.0762 8.00832 23.1732C7.96801 23.2703 7.9574 23.3771 7.97783 23.4802C7.99826 23.5832 8.04881 23.678 8.12308 23.7523C8.19735 23.8266 8.29201 23.8773 8.39507 23.8978C8.49814 23.9183 8.60497 23.9078 8.70206 23.8676C8.79914 23.8274 8.88212 23.7593 8.94048 23.6719C8.99884 23.5845 9.02997 23.4818 9.02992 23.3767C9.02992 23.236 8.97406 23.101 8.87461 23.0015C8.77516 22.9019 8.64027 22.8459 8.49956 22.8458ZM7.70352 22.8703C7.81658 22.8704 7.92714 22.837 8.02119 22.7742C8.11525 22.7115 8.18859 22.6223 8.23194 22.5179C8.27529 22.4134 8.28669 22.2985 8.26472 22.1876C8.24274 22.0767 8.18836 21.9748 8.10847 21.8948C8.02857 21.8148 7.92675 21.7603 7.81587 21.7382C7.705 21.716 7.59005 21.7273 7.48557 21.7705C7.38109 21.8137 7.29177 21.8869 7.22891 21.9809C7.16605 22.0749 7.13247 22.1854 7.13242 22.2985C7.13223 22.3735 7.14686 22.4479 7.17548 22.5174C7.2041 22.5868 7.24615 22.6499 7.29921 22.703C7.35227 22.7561 7.4153 22.7982 7.48468 22.827C7.55406 22.8557 7.62843 22.8704 7.70352 22.8703ZM7.66478 21.1263C7.66468 21.0053 7.62874 20.8872 7.56148 20.7866C7.49423 20.6861 7.3987 20.6078 7.28695 20.5616C7.1752 20.5154 7.05226 20.5033 6.93366 20.527C6.81507 20.5506 6.70614 20.6089 6.62065 20.6944C6.53516 20.7799 6.47694 20.8889 6.45335 21.0075C6.42977 21.1261 6.44187 21.249 6.48814 21.3608C6.5344 21.4725 6.61275 21.568 6.71328 21.6352C6.81382 21.7024 6.93201 21.7383 7.05294 21.7384C7.21524 21.7383 7.37086 21.6738 7.48559 21.559C7.60033 21.4442 7.66478 21.2886 7.66478 21.1263ZM27.9993 16.0284C27.9897 16.0283 27.9804 16.032 27.9734 16.0387C27.9665 16.0453 27.9625 16.0545 27.9622 16.0641C27.9622 16.074 27.9662 16.0834 27.9732 16.0904C27.9802 16.0974 27.9895 16.1014 27.9993 16.1016C28.0042 16.1015 28.0091 16.1005 28.0135 16.0986C28.018 16.0967 28.0219 16.0939 28.0254 16.0904C28.0287 16.0869 28.0314 16.0828 28.0331 16.0783C28.0349 16.0738 28.0357 16.069 28.0357 16.0641C28.0357 16.0594 28.0347 16.0547 28.0329 16.0503C28.031 16.0459 28.0284 16.042 28.025 16.0387C28.0217 16.0353 28.0177 16.0327 28.0133 16.0309C28.0089 16.0292 28.0042 16.0283 27.9993 16.0284ZM27.6007 17.2723C27.5863 17.2722 27.5723 17.2764 27.5602 17.2843C27.5482 17.2923 27.5387 17.3036 27.5331 17.3169C27.5275 17.3302 27.5261 17.3448 27.5289 17.359C27.5317 17.3731 27.5385 17.3861 27.5487 17.3964C27.5588 17.4066 27.5718 17.4135 27.5861 17.4163C27.6001 17.4192 27.6149 17.4177 27.6282 17.4122C27.6415 17.4067 27.6528 17.3973 27.6607 17.3853C27.6687 17.3733 27.673 17.3592 27.673 17.3448C27.673 17.3353 27.6711 17.3258 27.6675 17.3171C27.6639 17.3083 27.6587 17.3003 27.652 17.2935C27.6452 17.2868 27.6373 17.2815 27.6285 17.2778C27.6196 17.2742 27.6103 17.2723 27.6007 17.2723ZM27.0697 18.4662C27.048 18.4664 27.0268 18.473 27.0088 18.4851C26.9908 18.4973 26.9767 18.5146 26.9685 18.5347C26.9604 18.5548 26.9583 18.5769 26.9627 18.5982C26.9669 18.6195 26.9776 18.639 26.993 18.6543C27.0084 18.6696 27.0281 18.68 27.0494 18.6841C27.0707 18.6883 27.0928 18.686 27.1129 18.6776C27.1329 18.6693 27.15 18.6551 27.1619 18.637C27.174 18.6189 27.1803 18.5977 27.1803 18.5759C27.1803 18.5615 27.1775 18.5471 27.1719 18.5338C27.1663 18.5204 27.1581 18.5083 27.1478 18.4981C27.1376 18.4879 27.1252 18.4798 27.1119 18.4744C27.0985 18.4689 27.0842 18.4661 27.0697 18.4662ZM26.4123 19.5997C26.3834 19.5998 26.3553 19.6084 26.3314 19.6245C26.3076 19.6406 26.2889 19.6634 26.278 19.69C26.267 19.7167 26.2643 19.746 26.27 19.7742C26.2757 19.8024 26.2896 19.8284 26.31 19.8487C26.3304 19.869 26.3565 19.8828 26.3848 19.8884C26.413 19.8939 26.4422 19.891 26.4688 19.8799C26.4954 19.8688 26.5181 19.8501 26.5341 19.8261C26.55 19.8021 26.5585 19.7739 26.5585 19.7451C26.5585 19.726 26.5546 19.707 26.5473 19.6893C26.5399 19.6716 26.5292 19.6556 26.5156 19.6421C26.502 19.6286 26.4858 19.6179 26.4681 19.6106C26.4504 19.6033 26.4314 19.5996 26.4123 19.5997ZM25.6357 20.6554C25.5998 20.6557 25.5646 20.6666 25.5347 20.6869C25.5049 20.7071 25.4818 20.7357 25.4681 20.7691C25.4545 20.8025 25.451 20.8391 25.4583 20.8745C25.4653 20.9098 25.4828 20.9422 25.5084 20.9676C25.5339 20.993 25.5665 21.0103 25.6019 21.0173C25.6373 21.0243 25.6738 21.0207 25.7071 21.0069C25.7404 20.9931 25.7689 20.9697 25.789 20.9398C25.8091 20.9099 25.8199 20.8746 25.82 20.8386C25.82 20.8145 25.8151 20.7906 25.8058 20.7683C25.7965 20.746 25.7829 20.7258 25.7659 20.7088C25.7488 20.6918 25.7285 20.6783 25.7062 20.6691C25.6838 20.66 25.6598 20.6553 25.6357 20.6554ZM24.7479 21.6236C24.7045 21.6236 24.6622 21.6364 24.6261 21.6605C24.5899 21.6846 24.5618 21.7188 24.545 21.7589C24.5285 21.799 24.524 21.8431 24.5324 21.8857C24.5409 21.9283 24.5618 21.9674 24.5924 21.9982C24.6231 22.0289 24.6622 22.0498 24.7048 22.0583C24.7474 22.0668 24.7915 22.0624 24.8316 22.0458C24.8717 22.0292 24.906 22.0011 24.9301 21.965C24.9543 21.9289 24.9671 21.8865 24.9671 21.8431C24.9672 21.8143 24.9615 21.7857 24.9506 21.7591C24.9396 21.7325 24.9234 21.7083 24.903 21.6879C24.8827 21.6675 24.8585 21.6514 24.8319 21.6403C24.8053 21.6293 24.7768 21.6236 24.7479 21.6236ZM23.7598 22.4947C23.7092 22.4949 23.6599 22.51 23.618 22.5383C23.576 22.5665 23.5434 22.6066 23.5242 22.6534C23.5051 22.7001 23.5002 22.7516 23.5102 22.8011C23.5203 22.8507 23.5447 22.8961 23.5805 22.9317C23.6164 22.9674 23.6621 22.9916 23.7118 23.0013C23.7614 23.011 23.8127 23.0057 23.8594 22.9862C23.906 22.9667 23.9458 22.9339 23.9737 22.8917C24.0017 22.8496 24.0166 22.8001 24.0165 22.7496C24.0165 22.716 24.0098 22.6826 23.997 22.6516C23.9841 22.6205 23.965 22.5923 23.9412 22.5686C23.9174 22.5449 23.889 22.5262 23.8578 22.5135C23.8267 22.5008 23.7934 22.4944 23.7598 22.4947ZM22.6807 23.2525C22.6229 23.2522 22.5662 23.2691 22.5179 23.301C22.4696 23.333 22.4317 23.3785 22.4093 23.432C22.3869 23.4854 22.3809 23.5443 22.392 23.6011C22.4032 23.658 22.4308 23.7103 22.4716 23.7514C22.5124 23.7925 22.5645 23.8205 22.6213 23.832C22.6782 23.8435 22.737 23.8378 22.7906 23.8158C22.8441 23.7938 22.8901 23.7563 22.9223 23.7082C22.9546 23.6601 22.9719 23.6036 22.972 23.5456C22.9719 23.4683 22.9412 23.3941 22.8867 23.3392C22.8321 23.2843 22.7582 23.2531 22.6807 23.2525ZM21.5098 23.8685C21.4447 23.8684 21.3809 23.8876 21.3267 23.9237C21.2724 23.9598 21.2302 24.0112 21.2052 24.0713C21.1802 24.1315 21.1736 24.1977 21.1863 24.2616C21.1989 24.3256 21.2303 24.3843 21.2763 24.4304C21.3224 24.4765 21.3811 24.5078 21.445 24.5205C21.5089 24.5332 21.5751 24.5267 21.6353 24.5017C21.6954 24.4768 21.7468 24.4345 21.7829 24.3803C21.8191 24.3261 21.8383 24.2624 21.8382 24.1972C21.8379 24.1102 21.8033 24.0268 21.7418 23.9653C21.6803 23.9037 21.5968 23.8689 21.5098 23.8685ZM20.2619 24.3244C20.1894 24.3242 20.1185 24.3455 20.0581 24.3856C19.9977 24.4257 19.9506 24.4828 19.9226 24.5498C19.8948 24.6167 19.8874 24.6904 19.9014 24.7615C19.9155 24.8326 19.9503 24.898 20.0016 24.9493C20.0529 25.0006 20.1182 25.0355 20.1893 25.0497C20.2604 25.0638 20.3341 25.0565 20.4011 25.0288C20.4681 25.001 20.5253 24.9539 20.5655 24.8936C20.6056 24.8332 20.6269 24.7623 20.6269 24.6898C20.6268 24.593 20.5884 24.5002 20.52 24.4317C20.4516 24.3632 20.3587 24.3246 20.2619 24.3244ZM18.9611 24.6126C18.8815 24.6124 18.8036 24.6359 18.7374 24.68C18.6711 24.7241 18.6194 24.7869 18.5888 24.8604C18.5582 24.9338 18.5501 25.0147 18.5655 25.0928C18.5809 25.1709 18.6192 25.2427 18.6754 25.2991C18.7316 25.3554 18.8032 25.3939 18.8811 25.4095C18.9592 25.4252 19.0401 25.4173 19.1138 25.387C19.1874 25.3566 19.2502 25.3051 19.2945 25.239C19.3389 25.1729 19.3626 25.0951 19.3626 25.0155C19.3626 24.9089 19.3204 24.8066 19.2451 24.7311C19.1698 24.6556 19.0676 24.613 18.9611 24.6126ZM17.6287 24.7261C17.542 24.726 17.4572 24.7517 17.385 24.7998C17.3129 24.8479 17.2565 24.9163 17.2234 24.9964C17.1901 25.0765 17.1812 25.1647 17.198 25.2497C17.2148 25.3348 17.2566 25.413 17.3178 25.4744C17.3791 25.5358 17.4571 25.5777 17.5422 25.5948C17.6271 25.6118 17.7154 25.6033 17.7955 25.5702C17.8757 25.5372 17.9443 25.4811 17.9925 25.4091C18.041 25.3371 18.0669 25.2524 18.0671 25.1657C18.0672 25.0493 18.021 24.9376 17.9389 24.8551C17.8567 24.7727 17.7451 24.7263 17.6287 24.7261ZM16.7631 25.1407C16.7631 25.0468 16.7353 24.955 16.6831 24.8769C16.6309 24.7988 16.5567 24.7379 16.4699 24.702C16.3832 24.666 16.2878 24.6566 16.1955 24.675C16.1034 24.6933 16.0188 24.7385 15.9524 24.8049C15.8861 24.8713 15.8408 24.9559 15.8224 25.0481C15.8041 25.1402 15.8135 25.2357 15.8496 25.3224C15.8855 25.4092 15.9464 25.4834 16.0245 25.5355C16.1026 25.5877 16.1944 25.6156 16.2882 25.6156C16.4141 25.6152 16.5346 25.5651 16.6236 25.4761C16.7126 25.3871 16.7627 25.2665 16.7631 25.1407ZM15.4745 24.942C15.4746 24.8408 15.4445 24.7419 15.3883 24.6577C15.3322 24.5736 15.2523 24.508 15.1589 24.4692C15.0654 24.4304 14.9627 24.4202 14.8633 24.4399C14.7641 24.4596 14.6729 24.5082 14.6013 24.5797C14.5297 24.6512 14.481 24.7423 14.4612 24.8415C14.4413 24.9408 14.4514 25.0436 14.4901 25.1371C14.5287 25.2306 14.5942 25.3106 14.6783 25.3669C14.7622 25.4232 14.8611 25.4533 14.9623 25.4534C15.0295 25.4535 15.0961 25.4403 15.1582 25.4147C15.2204 25.389 15.2768 25.3514 15.3244 25.3039C15.3719 25.2564 15.4097 25.2 15.4354 25.1379C15.4612 25.0758 15.4745 25.0092 15.4745 24.942ZM14.2231 24.5711C14.2231 24.4624 14.1908 24.356 14.1304 24.2656C14.07 24.1752 13.984 24.1047 13.8836 24.0631C13.7831 24.0215 13.6726 24.0106 13.566 24.0318C13.4593 24.053 13.3612 24.1054 13.2844 24.1823C13.2075 24.2592 13.1552 24.3572 13.1339 24.4638C13.1126 24.5705 13.1235 24.681 13.1651 24.7815C13.2069 24.882 13.2773 24.9679 13.3678 25.0283C13.4581 25.0887 13.5645 25.121 13.6732 25.121C13.7455 25.1211 13.817 25.107 13.8839 25.0794C13.9506 25.0519 14.0113 25.0114 14.0624 24.9603C14.1135 24.9092 14.1539 24.8485 14.1816 24.7817C14.2091 24.7149 14.2233 24.6434 14.2231 24.5711ZM13.0287 24.0357C13.0286 23.9201 12.9942 23.8071 12.9299 23.711C12.8657 23.6149 12.7743 23.54 12.6674 23.4958C12.5605 23.4516 12.4431 23.4401 12.3296 23.4627C12.2162 23.4853 12.1121 23.5411 12.0303 23.6229C11.9486 23.7047 11.8931 23.8089 11.8706 23.9223C11.8481 24.0358 11.8597 24.1533 11.904 24.2601C11.9485 24.3669 12.0234 24.4582 12.1196 24.5223C12.2158 24.5865 12.3288 24.6207 12.4445 24.6206C12.5212 24.6206 12.5974 24.6055 12.6683 24.5761C12.7392 24.5467 12.8036 24.5036 12.8579 24.4493C12.9122 24.395 12.9552 24.3305 12.9845 24.2595C13.0138 24.1886 13.0288 24.1125 13.0287 24.0357ZM24.9053 6.21745C24.9102 6.21787 24.9152 6.21724 24.92 6.2156C24.9249 6.21396 24.9292 6.21135 24.9329 6.20793C24.9366 6.20452 24.9396 6.20037 24.9417 6.19575C24.9437 6.19112 24.9447 6.18613 24.9447 6.18109C24.9447 6.17604 24.9437 6.17105 24.9417 6.16643C24.9396 6.16181 24.9366 6.15766 24.9329 6.15424C24.9292 6.15082 24.9249 6.14821 24.92 6.14657C24.9152 6.14493 24.9102 6.1443 24.9053 6.14472C24.8961 6.14548 24.8876 6.14964 24.8813 6.15637C24.8751 6.16311 24.8717 6.17193 24.8717 6.18109C24.8717 6.19024 24.8751 6.19906 24.8813 6.2058C24.8876 6.21254 24.8961 6.21669 24.9053 6.21745ZM25.5301 7.44213C25.5445 7.44213 25.5587 7.43784 25.5707 7.4298C25.5828 7.42177 25.5921 7.41034 25.5977 7.39698C25.6033 7.38361 25.6047 7.3689 25.6019 7.3547C25.5991 7.3405 25.5921 7.32745 25.5819 7.3172C25.5716 7.30695 25.5587 7.29996 25.5445 7.2971C25.5303 7.29425 25.5155 7.29566 25.5021 7.30117C25.4888 7.30667 25.4774 7.31602 25.4692 7.32803C25.4611 7.34004 25.4569 7.35417 25.4569 7.36865C25.4566 7.37831 25.4585 7.38791 25.4622 7.39687C25.4657 7.40582 25.4711 7.41397 25.4779 7.42081C25.4847 7.42766 25.4928 7.43307 25.5019 7.43673C25.5107 7.44039 25.5203 7.44223 25.5301 7.44213ZM26.0245 8.72454C26.0461 8.72459 26.0673 8.71821 26.0853 8.70621C26.1034 8.69421 26.1173 8.67713 26.1257 8.65713C26.1341 8.63713 26.1362 8.61512 26.132 8.59386C26.1278 8.57261 26.1175 8.55308 26.1021 8.53775C26.0868 8.52241 26.0674 8.51196 26.0462 8.50772C26.0249 8.50347 26.0028 8.50563 25.9828 8.5139C25.9628 8.52218 25.9456 8.53621 25.9336 8.55422C25.9216 8.57223 25.9151 8.5934 25.9151 8.61507C25.9151 8.62943 25.9179 8.64366 25.9235 8.65694C25.929 8.67022 25.937 8.68229 25.9471 8.69246C25.9573 8.70263 25.9692 8.7107 25.9825 8.7162C25.9958 8.7217 26.01 8.72454 26.0245 8.72454ZM26.3869 10.0522C26.4158 10.0523 26.4443 10.0438 26.4683 10.0277C26.4925 10.0117 26.5114 9.98879 26.5226 9.962C26.5337 9.93522 26.5366 9.90573 26.531 9.87727C26.5254 9.84882 26.5114 9.82267 26.4909 9.80216C26.4704 9.78165 26.4443 9.76769 26.4158 9.76205C26.3874 9.75642 26.3579 9.75936 26.3311 9.77051C26.3043 9.78166 26.2814 9.8005 26.2654 9.82467C26.2493 9.84883 26.2408 9.87721 26.2409 9.90622C26.2409 9.9254 26.2446 9.9444 26.2519 9.96212C26.2593 9.97984 26.27 9.99595 26.2836 10.0095C26.2971 10.0231 26.3132 10.0338 26.3309 10.0411C26.3486 10.0485 26.3677 10.0522 26.3869 10.0522ZM26.4273 11.2286C26.4274 11.2648 26.4384 11.3 26.4585 11.33C26.4787 11.3599 26.5072 11.3832 26.5408 11.3969C26.5742 11.4106 26.6108 11.4141 26.6462 11.407C26.6817 11.3998 26.7142 11.3823 26.7397 11.3566C26.7651 11.331 26.7824 11.2984 26.7894 11.263C26.7963 11.2275 26.7925 11.1908 26.7785 11.1575C26.7646 11.1241 26.7411 11.0957 26.7111 11.0757C26.681 11.0557 26.6457 11.0451 26.6096 11.0452C26.5611 11.0454 26.5147 11.0648 26.4804 11.0992C26.4462 11.1336 26.4271 11.1802 26.4273 11.2286ZM26.6929 12.3468C26.6496 12.3469 26.6073 12.3599 26.5714 12.384C26.5354 12.4081 26.5075 12.4424 26.4909 12.4824C26.4743 12.5224 26.4701 12.5664 26.4785 12.6089C26.4869 12.6514 26.5079 12.6904 26.5385 12.721C26.5692 12.7517 26.6082 12.7725 26.6506 12.781C26.6931 12.7895 26.737 12.7852 26.7771 12.7686C26.8172 12.7521 26.8513 12.7241 26.8755 12.6881C26.8996 12.6522 26.9125 12.6098 26.9126 12.5665C26.9126 12.5083 26.8896 12.4524 26.8484 12.4112C26.8071 12.37 26.7512 12.3468 26.6929 12.3468ZM26.6348 13.65C26.5841 13.65 26.5345 13.6651 26.4923 13.6934C26.4501 13.7216 26.4173 13.7617 26.3979 13.8086C26.3786 13.8555 26.3736 13.9071 26.3836 13.9568C26.3936 14.0065 26.4181 14.0522 26.454 14.088C26.4899 14.1238 26.5355 14.1482 26.5854 14.158C26.6352 14.1678 26.6866 14.1627 26.7335 14.1432C26.7803 14.1237 26.8204 14.0907 26.8484 14.0485C26.8765 14.0063 26.8916 13.9567 26.8915 13.9059C26.8915 13.8722 26.8848 13.8389 26.872 13.8077C26.8591 13.7766 26.8403 13.7483 26.8164 13.7245C26.7925 13.7008 26.7642 13.6819 26.733 13.6691C26.7019 13.6563 26.6685 13.6498 26.6348 13.65ZM26.4345 14.9402C26.3767 14.9403 26.3202 14.9576 26.2722 14.9898C26.2243 15.022 26.1869 15.0677 26.1649 15.1212C26.143 15.1746 26.1373 15.2334 26.1486 15.2901C26.16 15.3468 26.1879 15.3988 26.2288 15.4396C26.2698 15.4804 26.3218 15.5082 26.3785 15.5194C26.4352 15.5307 26.4939 15.5248 26.5473 15.5027C26.6007 15.4805 26.6463 15.443 26.6784 15.395C26.7106 15.3469 26.7278 15.2904 26.7278 15.2326C26.7278 15.1941 26.7202 15.156 26.7055 15.1204C26.6908 15.0849 26.6692 15.0526 26.642 15.0254C26.6147 14.9982 26.5823 14.9767 26.5467 14.9621C26.5111 14.9474 26.473 14.94 26.4345 14.9402ZM26.396 16.5217C26.396 16.4566 26.3766 16.393 26.3405 16.3389C26.3041 16.2847 26.2528 16.2426 26.1926 16.2177C26.1324 16.1929 26.0662 16.1864 26.0023 16.1992C25.9384 16.212 25.8797 16.2435 25.8337 16.2896C25.7878 16.3357 25.7565 16.3944 25.7439 16.4583C25.7313 16.5222 25.7379 16.5884 25.7631 16.6485C25.788 16.7087 25.8304 16.76 25.8846 16.7961C25.9389 16.8321 26.0026 16.8513 26.0676 16.8512C26.1108 16.8512 26.1536 16.8427 26.1936 16.8262C26.2335 16.8096 26.2698 16.7854 26.3004 16.7548C26.3309 16.7241 26.3551 16.6878 26.3715 16.6478C26.388 16.6078 26.3962 16.565 26.396 16.5217ZM25.5333 17.3868C25.4611 17.3868 25.3904 17.4082 25.3302 17.4483C25.2701 17.4885 25.2233 17.5456 25.1957 17.6123C25.168 17.6791 25.1609 17.7526 25.1749 17.8234C25.189 17.8943 25.2239 17.9594 25.275 18.0105C25.326 18.0616 25.3911 18.0964 25.462 18.1105C25.5329 18.1246 25.6063 18.1174 25.6731 18.0897C25.7398 18.0621 25.797 18.0153 25.8372 17.9552C25.8773 17.8951 25.8986 17.8244 25.8986 17.7522C25.8987 17.7042 25.8893 17.6566 25.871 17.6122C25.8526 17.5679 25.8257 17.5276 25.7918 17.4936C25.7578 17.4597 25.7175 17.4328 25.6731 17.4144C25.6288 17.3961 25.5813 17.3867 25.5333 17.3868ZM24.843 18.5C24.7636 18.5001 24.6859 18.5237 24.6199 18.5679C24.5539 18.6121 24.5026 18.6749 24.4722 18.7483C24.4419 18.8216 24.434 18.9024 24.4496 18.9803C24.4651 19.0581 24.5035 19.1297 24.5597 19.1858C24.6159 19.2419 24.6874 19.2801 24.7652 19.2956C24.8431 19.311 24.924 19.303 24.9972 19.2726C25.0707 19.2422 25.1334 19.1907 25.1775 19.1247C25.2215 19.0587 25.2451 18.981 25.2451 18.9016C25.2451 18.8488 25.2348 18.7966 25.2145 18.7478C25.1943 18.699 25.1646 18.6547 25.1273 18.6174C25.09 18.5801 25.0456 18.5505 24.9968 18.5304C24.948 18.5102 24.8958 18.4999 24.843 18.5ZM24.0072 19.5117C23.9205 19.5116 23.8357 19.5373 23.7635 19.5855C23.6914 19.6337 23.6351 19.7022 23.6019 19.7823C23.5688 19.8625 23.56 19.9506 23.577 20.0357C23.5939 20.1208 23.6357 20.1989 23.6971 20.2602C23.7585 20.3215 23.8366 20.3633 23.9217 20.3801C24.0068 20.397 24.0951 20.3882 24.1751 20.3549C24.2552 20.3216 24.3237 20.2653 24.3717 20.1931C24.4198 20.1209 24.4454 20.0361 24.4454 19.9493C24.4454 19.8918 24.4339 19.8349 24.4119 19.7817C24.3899 19.7286 24.3577 19.6803 24.3169 19.6397C24.2762 19.5991 24.228 19.5668 24.1749 19.5449C24.1217 19.5229 24.0648 19.5116 24.0072 19.5117ZM23.0422 20.4047C22.9482 20.4047 22.8565 20.4326 22.7784 20.4847C22.7003 20.5369 22.6395 20.6111 22.6035 20.6979C22.5676 20.7846 22.5582 20.8801 22.5765 20.9722C22.5947 21.0643 22.64 21.149 22.7064 21.2154C22.7729 21.2818 22.8575 21.327 22.9496 21.3453C23.0417 21.3637 23.1371 21.3543 23.2239 21.3183C23.3106 21.2824 23.3848 21.2215 23.437 21.1434C23.4893 21.0653 23.517 20.9735 23.517 20.8796C23.517 20.7536 23.4671 20.6329 23.378 20.5438C23.2889 20.4547 23.1681 20.4047 23.0422 20.4047ZM21.9645 21.165C21.8633 21.1651 21.7645 21.1951 21.6805 21.2513C21.5964 21.3074 21.531 21.3873 21.4923 21.4807C21.4536 21.5741 21.4435 21.6769 21.4632 21.776C21.4828 21.8752 21.5315 21.9663 21.6029 22.0378C21.6744 22.1093 21.7655 22.158 21.8647 22.1778C21.9638 22.1976 22.0666 22.1876 22.16 22.149C22.2535 22.1104 22.3333 22.045 22.3895 21.961C22.4458 21.877 22.476 21.7782 22.4762 21.6771C22.4762 21.6099 22.4629 21.5433 22.4373 21.4812C22.4116 21.4191 22.374 21.3626 22.3265 21.315C22.2789 21.2675 22.2225 21.2297 22.1604 21.204C22.0983 21.1783 22.0318 21.165 21.9645 21.165ZM20.7917 21.7773C20.6833 21.7772 20.5772 21.8093 20.487 21.8695C20.3967 21.9296 20.3263 22.0152 20.2847 22.1154C20.243 22.2155 20.232 22.3258 20.253 22.4322C20.274 22.5386 20.3262 22.6364 20.4028 22.7133C20.4793 22.7901 20.577 22.8425 20.6833 22.8638C20.7896 22.8852 20.9 22.8745 21.0002 22.8332C21.1005 22.7919 21.1863 22.7218 21.2468 22.6317C21.3072 22.5416 21.3397 22.4357 21.34 22.3272C21.34 22.2551 21.326 22.1836 21.2987 22.1169C21.2712 22.0503 21.2309 21.9896 21.18 21.9386C21.129 21.8875 21.0686 21.847 21.0019 21.8193C20.9353 21.7916 20.864 21.7774 20.7917 21.7773ZM19.5438 22.2325C19.4282 22.2326 19.3151 22.267 19.219 22.3313C19.1229 22.3956 19.0481 22.487 19.0039 22.5939C18.9598 22.7008 18.9482 22.8184 18.9708 22.9318C18.9935 23.0452 19.0492 23.1494 19.1311 23.2311C19.2129 23.3129 19.3172 23.3685 19.4307 23.391C19.5441 23.4135 19.6616 23.4018 19.7684 23.3575C19.8753 23.3132 19.9667 23.2382 20.0308 23.142C20.095 23.0458 20.1292 22.9327 20.1292 22.8171C20.129 22.6619 20.0674 22.5132 19.9576 22.4036C19.8479 22.294 19.6991 22.2324 19.5438 22.2325ZM15.7306 1.41673C15.7379 1.41663 15.7448 1.41441 15.7507 1.41035C15.7566 1.4063 15.7613 1.40058 15.764 1.39392C15.7667 1.38725 15.7674 1.37995 15.7659 1.37291C15.7645 1.36587 15.761 1.35941 15.7558 1.35435C15.7507 1.34929 15.7443 1.34584 15.7373 1.34445C15.7302 1.34305 15.7229 1.34377 15.7163 1.3465C15.7096 1.34924 15.7039 1.35388 15.6999 1.35984C15.6959 1.36579 15.6938 1.3728 15.6937 1.37999C15.6937 1.38483 15.6947 1.38963 15.6965 1.39411C15.6983 1.39858 15.701 1.40264 15.7045 1.40606C15.7079 1.40947 15.712 1.41217 15.7165 1.414C15.721 1.41583 15.7257 1.41676 15.7306 1.41673ZM17.0109 1.85211C17.0253 1.85201 17.0394 1.84764 17.0513 1.83955C17.0632 1.83145 17.0727 1.81999 17.0781 1.80662C17.0836 1.79324 17.0849 1.77855 17.0821 1.76438C17.0793 1.75022 17.0723 1.73721 17.062 1.72701C17.0518 1.71681 17.0387 1.70987 17.0245 1.70705C17.0103 1.70424 16.9956 1.70568 16.9823 1.7112C16.9689 1.71672 16.9575 1.72607 16.9494 1.73807C16.9414 1.75007 16.9372 1.76418 16.937 1.77863C16.937 1.78831 16.9389 1.7979 16.9426 1.80685C16.9464 1.81579 16.9518 1.82392 16.9587 1.83075C16.9655 1.83759 16.9736 1.84299 16.9825 1.84666C16.9916 1.85032 17.0012 1.85218 17.0109 1.85211ZM18.2425 2.41846C18.2642 2.41841 18.2853 2.41192 18.3034 2.39981C18.3214 2.3877 18.3354 2.37052 18.3438 2.35044C18.3519 2.33036 18.354 2.30828 18.3498 2.287C18.3455 2.26572 18.3349 2.24619 18.3195 2.23089C18.3041 2.21559 18.2845 2.20521 18.2633 2.20105C18.242 2.19689 18.2199 2.19915 18.1999 2.20754C18.1798 2.21593 18.1627 2.23007 18.1507 2.24817C18.1388 2.26628 18.1325 2.28753 18.1325 2.30924C18.1326 2.3383 18.1442 2.36611 18.1649 2.38659C18.1855 2.40706 18.2135 2.41853 18.2425 2.41846ZM19.4111 3.11303C19.4401 3.11293 19.4683 3.10427 19.4923 3.08814C19.5163 3.07202 19.5349 3.04915 19.5459 3.02242C19.5569 2.9957 19.5597 2.96631 19.5541 2.93799C19.5484 2.90966 19.5343 2.88365 19.5138 2.86325C19.4935 2.84285 19.4674 2.82898 19.4391 2.82338C19.4107 2.81778 19.3812 2.8207 19.3545 2.83178C19.3279 2.84286 19.3051 2.8616 19.289 2.88564C19.273 2.90967 19.2645 2.93792 19.2645 2.96681C19.2645 2.98607 19.2682 3.00514 19.2756 3.02292C19.283 3.04071 19.2938 3.05686 19.3074 3.07045C19.3211 3.08404 19.3372 3.0948 19.355 3.10211C19.3728 3.10941 19.392 3.11312 19.4111 3.11303ZM20.5037 3.92531C20.5396 3.92531 20.5749 3.91462 20.6049 3.8946C20.6349 3.87458 20.6581 3.84613 20.6719 3.81283C20.6857 3.77954 20.6894 3.74291 20.6824 3.70756C20.6753 3.67222 20.6579 3.63975 20.6325 3.61427C20.607 3.58879 20.5746 3.57144 20.5392 3.56441C20.5039 3.55738 20.4671 3.56099 20.4338 3.57478C20.4007 3.58857 20.3722 3.61192 20.3521 3.64188C20.3321 3.67185 20.3214 3.70707 20.3214 3.74311C20.3214 3.76705 20.326 3.79078 20.3351 3.81291C20.3442 3.83505 20.3577 3.85516 20.3746 3.87209C20.3915 3.88902 20.4116 3.90244 20.4338 3.91158C20.4559 3.92071 20.4797 3.92538 20.5037 3.92531ZM21.5084 4.85031C21.5519 4.85056 21.5944 4.83789 21.6308 4.81392C21.6671 4.78994 21.6954 4.75573 21.7122 4.71562C21.729 4.67552 21.7336 4.63132 21.7253 4.58863C21.7169 4.54594 21.6961 4.50667 21.6654 4.47581C21.6348 4.44495 21.5957 4.42389 21.553 4.41528C21.5104 4.40667 21.4662 4.41091 21.4259 4.42747C21.3857 4.44402 21.3514 4.47214 21.3272 4.50826C21.3029 4.54438 21.2899 4.58688 21.2899 4.63037C21.2899 4.68845 21.3128 4.74416 21.3538 4.78537C21.3947 4.82657 21.4503 4.84992 21.5084 4.85031ZM22.4158 5.87504C22.4665 5.87494 22.516 5.8598 22.5581 5.83154C22.6003 5.80327 22.633 5.76315 22.6523 5.71626C22.6715 5.66937 22.6765 5.61781 22.6665 5.56812C22.6565 5.51842 22.6318 5.47282 22.5958 5.43709C22.5599 5.40137 22.5142 5.37712 22.4643 5.36741C22.4146 5.35771 22.3632 5.36299 22.3164 5.38259C22.2696 5.40218 22.2297 5.43521 22.2017 5.4775C22.1737 5.51978 22.1589 5.56941 22.1591 5.62011C22.1594 5.68794 22.1867 5.7529 22.2348 5.8007C22.2829 5.8485 22.348 5.87524 22.4158 5.87504ZM23.2117 6.99225C23.2696 6.9922 23.326 6.975 23.3741 6.94282C23.4222 6.91064 23.4597 6.86493 23.4818 6.81146C23.504 6.75799 23.5097 6.69916 23.4984 6.64242C23.4872 6.58567 23.4592 6.53354 23.4184 6.49262C23.3775 6.45171 23.3254 6.42384 23.2686 6.41254C23.2119 6.40124 23.153 6.40701 23.0996 6.42913C23.0461 6.45125 23.0003 6.48873 22.9681 6.53682C22.9359 6.58491 22.9188 6.64146 22.9188 6.69932C22.9187 6.73781 22.9261 6.77593 22.9408 6.8115C22.9555 6.84707 22.9771 6.87938 23.0044 6.9066C23.0316 6.93381 23.0639 6.95539 23.0994 6.97008C23.135 6.98478 23.1732 6.99231 23.2117 6.99225ZM23.8638 8.19918C23.9286 8.19893 23.9921 8.17944 24.0459 8.14318C24.0998 8.10692 24.1419 8.0555 24.1665 7.99542C24.1912 7.93535 24.1975 7.8693 24.1847 7.80563C24.1719 7.74196 24.1404 7.68351 24.0944 7.63768C24.0485 7.59184 23.9898 7.56066 23.9261 7.54808C23.8624 7.5355 23.7964 7.54208 23.7365 7.56699C23.6765 7.5919 23.6251 7.63403 23.5891 7.68805C23.553 7.74207 23.5338 7.80556 23.5338 7.87051C23.5338 7.91376 23.5424 7.95657 23.559 7.9965C23.5758 8.03643 23.6 8.07269 23.6306 8.10321C23.6614 8.13373 23.6976 8.15792 23.7376 8.17438C23.7777 8.19085 23.8204 8.19928 23.8638 8.19918ZM23.9904 9.11668C23.9902 9.18903 24.0115 9.25982 24.0515 9.32007C24.0917 9.38033 24.1487 9.42735 24.2155 9.45519C24.2822 9.48303 24.3558 9.49042 24.4268 9.47645C24.4977 9.46247 24.563 9.42775 24.6143 9.37668C24.6655 9.32561 24.7004 9.26048 24.7146 9.18954C24.7288 9.1186 24.7216 9.04504 24.694 8.97816C24.6665 8.91128 24.6196 8.8541 24.5595 8.81385C24.4994 8.77359 24.4287 8.75208 24.3563 8.75203C24.3083 8.75187 24.2608 8.76118 24.2164 8.77943C24.1721 8.79768 24.1317 8.82451 24.0977 8.85839C24.0638 8.89227 24.0368 8.93252 24.0184 8.97685C24 9.02117 23.9904 9.06869 23.9904 9.11668ZM24.2784 10.4193C24.2786 10.4988 24.3022 10.5765 24.3465 10.6425C24.3908 10.7086 24.4536 10.76 24.5271 10.7903C24.6005 10.8206 24.6814 10.8285 24.7593 10.8129C24.8372 10.7974 24.9088 10.759 24.965 10.7028C25.0212 10.6465 25.0595 10.5749 25.0749 10.4969C25.0904 10.419 25.0824 10.3381 25.052 10.2647C25.0217 10.1913 24.9701 10.1285 24.9041 10.0843C24.838 10.0401 24.7603 10.0165 24.6807 10.0164C24.6278 10.0163 24.5753 10.0266 24.5264 10.0468C24.4775 10.067 24.4331 10.0967 24.3957 10.1341C24.3583 10.1716 24.3286 10.2161 24.3085 10.265C24.2883 10.314 24.2782 10.3664 24.2784 10.4193ZM24.3916 11.7513C24.3916 11.8381 24.4174 11.923 24.4657 11.9952C24.514 12.0674 24.5827 12.1236 24.663 12.1568C24.7432 12.19 24.8316 12.1986 24.9167 12.1816C25.0019 12.1646 25.0802 12.1227 25.1416 12.0613C25.2029 11.9998 25.2447 11.9215 25.2616 11.8363C25.2784 11.7511 25.2696 11.6628 25.2362 11.5826C25.2029 11.5023 25.1466 11.4338 25.0744 11.3856C25.0021 11.3374 24.917 11.3118 24.8302 11.3119C24.7726 11.3119 24.7155 11.3232 24.6621 11.3453C24.6089 11.3674 24.5606 11.3998 24.5198 11.4406C24.479 11.4814 24.4467 11.5299 24.4247 11.5832C24.4028 11.6365 24.3915 11.6936 24.3916 11.7513ZM25.2803 13.0906C25.2803 12.9967 25.2526 12.9049 25.2003 12.8268C25.1481 12.7487 25.0739 12.6879 24.9872 12.6519C24.9004 12.616 24.805 12.6066 24.7129 12.6249C24.6208 12.6432 24.5361 12.6884 24.4697 12.7549C24.4032 12.8213 24.358 12.9059 24.3398 12.998C24.3215 13.0901 24.3309 13.1856 24.3668 13.2724C24.4027 13.3591 24.4636 13.4333 24.5417 13.4855C24.6198 13.5377 24.7115 13.5655 24.8055 13.5655C24.9314 13.5655 25.0522 13.5155 25.1413 13.4264C25.2304 13.3374 25.2803 13.2166 25.2803 13.0906ZM25.1178 14.417C25.1178 14.3158 25.0877 14.2169 25.0315 14.1328C24.9752 14.0486 24.8952 13.9831 24.8016 13.9445C24.7081 13.9058 24.6053 13.8958 24.506 13.9156C24.4067 13.9355 24.3155 13.9843 24.244 14.056C24.1725 14.1276 24.1239 14.2189 24.1043 14.3182C24.0847 14.4175 24.095 14.5204 24.1339 14.6138C24.1728 14.7073 24.2386 14.7871 24.3228 14.8432C24.407 14.8993 24.5061 14.9291 24.6073 14.9289C24.7428 14.9287 24.8729 14.8747 24.9685 14.7787C25.0644 14.6827 25.118 14.5526 25.1178 14.417ZM24.7854 15.7057C24.7854 15.5973 24.7533 15.4914 24.6931 15.4012C24.6329 15.3111 24.5474 15.2408 24.4473 15.1992C24.3472 15.1577 24.2371 15.1467 24.1308 15.1678C24.0244 15.1888 23.9267 15.2409 23.85 15.3174C23.7732 15.394 23.7208 15.4915 23.6994 15.5978C23.6782 15.7041 23.6888 15.8143 23.73 15.9145C23.7713 16.0147 23.8415 16.1005 23.9314 16.1609C24.0214 16.2214 24.1272 16.2538 24.2356 16.2541C24.3077 16.2542 24.3792 16.2402 24.4459 16.2127C24.5126 16.1852 24.5732 16.1448 24.6243 16.0939C24.6754 16.043 24.7158 15.9825 24.7435 15.9159C24.7711 15.8492 24.7854 15.7778 24.7854 15.7057ZM23.7013 16.3498C23.5856 16.35 23.4725 16.3845 23.3764 16.4489C23.2804 16.5133 23.2055 16.6047 23.1614 16.7117C23.1172 16.8186 23.1059 16.9362 23.1285 17.0496C23.1512 17.1631 23.2071 17.2672 23.2889 17.349C23.3708 17.4307 23.475 17.4863 23.5884 17.5088C23.702 17.5313 23.8196 17.5197 23.9265 17.4753C24.0333 17.431 24.1245 17.356 24.1889 17.2598C24.253 17.1636 24.2873 17.0506 24.2873 16.9349C24.2873 16.858 24.2721 16.7818 24.2426 16.7108C24.2132 16.6397 24.17 16.5752 24.1155 16.5209C24.0611 16.4665 23.9965 16.4235 23.9254 16.3941C23.8543 16.3647 23.7782 16.3497 23.7013 16.3498ZM5.84776 4.50941C5.85737 4.50941 5.86659 4.50559 5.87339 4.49879C5.88019 4.49199 5.884 4.48278 5.884 4.47316C5.88394 4.46353 5.88012 4.45429 5.87335 4.44743C5.86658 4.44057 5.8574 4.43662 5.84776 4.43642C5.83802 4.43642 5.82867 4.4403 5.82178 4.44719C5.81489 4.45408 5.81102 4.46342 5.81102 4.47316C5.81099 4.47798 5.81192 4.48275 5.81376 4.48719C5.8156 4.49164 5.81831 4.49567 5.82174 4.49905C5.82516 4.50242 5.82923 4.50508 5.8337 4.50686C5.83817 4.50864 5.84295 4.50951 5.84776 4.50941ZM7.0342 3.92256C7.04858 3.92246 7.06261 3.9181 7.07452 3.91003C7.08642 3.90195 7.09567 3.89053 7.10108 3.8772C7.10649 3.86387 7.10783 3.84924 7.10493 3.83515C7.10203 3.82106 7.09501 3.80815 7.08477 3.79805C7.07453 3.78795 7.06152 3.78111 7.0474 3.7784C7.03327 3.77569 7.01866 3.77723 7.0054 3.78283C6.99215 3.78843 6.98086 3.79783 6.97295 3.80984C6.96504 3.82186 6.96087 3.83595 6.96097 3.85033C6.96103 3.85988 6.96298 3.86933 6.9667 3.87813C6.97041 3.88692 6.97582 3.89491 6.98262 3.90161C6.98942 3.90832 6.99748 3.91362 7.00633 3.91722C7.01518 3.92081 7.02465 3.92263 7.0342 3.92256ZM8.28012 3.46418C8.30199 3.46438 8.32343 3.45807 8.3417 3.44604C8.35997 3.43402 8.37426 3.41683 8.38273 3.39666C8.3912 3.3765 8.39349 3.35427 8.38928 3.3328C8.38508 3.31133 8.37459 3.2916 8.35914 3.27612C8.34369 3.26063 8.32399 3.2501 8.30253 3.24585C8.28107 3.2416 8.25883 3.24383 8.23865 3.25225C8.21846 3.26068 8.20124 3.27492 8.18918 3.29317C8.17711 3.31142 8.17075 3.33284 8.1709 3.35471C8.1709 3.3837 8.1824 3.41151 8.20287 3.43203C8.22335 3.45255 8.25113 3.46412 8.28012 3.46418ZM9.57128 3.13877C9.60019 3.13862 9.62842 3.1299 9.65238 3.11371C9.67634 3.09752 9.69496 3.07459 9.70589 3.04782C9.71682 3.02104 9.71956 2.99163 9.71378 2.9633C9.70799 2.93497 9.69393 2.90899 9.67338 2.88864C9.65283 2.8683 9.6267 2.85451 9.59831 2.84901C9.56992 2.84352 9.54054 2.84656 9.51388 2.85777C9.48722 2.86897 9.46448 2.88783 9.44854 2.91195C9.4326 2.93608 9.42417 2.96439 9.42431 2.99331C9.42428 3.01255 9.42807 3.0316 9.43546 3.04936C9.44285 3.06712 9.4537 3.08324 9.46737 3.09677C9.48105 3.11031 9.49727 3.12099 9.51511 3.1282C9.53295 3.13541 9.55204 3.139 9.57128 3.13877ZM10.8934 2.95157C10.9296 2.95147 10.9648 2.94068 10.9948 2.92057C11.0247 2.90046 11.048 2.87192 11.0618 2.83855C11.0755 2.80519 11.0792 2.7685 11.0721 2.7331C11.0651 2.69771 11.0477 2.6652 11.0222 2.63968C10.9965 2.61416 10.9641 2.59677 10.9286 2.5897C10.8932 2.58264 10.8566 2.58621 10.8232 2.59998C10.7899 2.61374 10.7613 2.63708 10.7413 2.66705C10.7212 2.69702 10.7104 2.73228 10.7102 2.76837C10.71 2.79246 10.7148 2.81635 10.7239 2.83863C10.7331 2.86092 10.7465 2.88117 10.7635 2.89821C10.7807 2.91524 10.8008 2.92873 10.8231 2.93789C10.8454 2.94705 10.8693 2.9517 10.8934 2.95157ZM12.2318 2.90533C12.2752 2.90523 12.3176 2.89227 12.3537 2.86807C12.3897 2.84388 12.4177 2.80954 12.4342 2.7694C12.4508 2.72927 12.4551 2.68514 12.4465 2.64259C12.4378 2.60004 12.4169 2.56099 12.3862 2.53037C12.3554 2.49975 12.3162 2.47894 12.2737 2.47057C12.2311 2.4622 12.1869 2.46664 12.1468 2.48334C12.1068 2.50004 12.0726 2.52825 12.0485 2.56439C12.0245 2.60053 12.0118 2.64299 12.0119 2.68639C12.0118 2.71525 12.0175 2.74385 12.0285 2.77052C12.0394 2.7972 12.0556 2.82142 12.0761 2.84178C12.0965 2.86215 12.1208 2.87825 12.1476 2.88916C12.1743 2.90006 12.2029 2.90556 12.2318 2.90533ZM13.5715 2.99906C13.6221 2.99916 13.6715 2.98424 13.7136 2.95621C13.7557 2.92817 13.7887 2.88828 13.8081 2.84157C13.8274 2.79486 13.8327 2.74343 13.8228 2.6938C13.813 2.64417 13.7886 2.59856 13.7529 2.56276C13.7171 2.52695 13.6716 2.50255 13.6221 2.49264C13.5725 2.48274 13.521 2.48777 13.4742 2.50711C13.4275 2.52644 13.3876 2.55922 13.3595 2.60127C13.3313 2.64333 13.3162 2.69278 13.3162 2.74337C13.3161 2.77695 13.3226 2.81024 13.3354 2.8413C13.3482 2.87236 13.367 2.90059 13.3906 2.92436C13.4143 2.94813 13.4425 2.96697 13.4735 2.97979C13.5047 2.99261 13.5379 2.99916 13.5715 2.99906ZM14.8979 3.23649C14.9557 3.23649 15.0121 3.21936 15.0603 3.18726C15.1084 3.15516 15.1458 3.10954 15.1679 3.05615C15.1901 3.00276 15.1959 2.944 15.1847 2.8873C15.1734 2.83059 15.1458 2.77849 15.1048 2.73756C15.064 2.69664 15.012 2.66873 14.9553 2.65736C14.8987 2.64599 14.84 2.65168 14.7865 2.67369C14.7331 2.69571 14.6874 2.73307 14.6551 2.78106C14.6229 2.82905 14.6055 2.88552 14.6054 2.94332C14.6052 2.98181 14.6126 3.01996 14.6272 3.05557C14.6418 3.09118 14.6635 3.12355 14.6905 3.1508C14.7177 3.17805 14.7501 3.19966 14.7857 3.21436C14.8212 3.22907 14.8594 3.23659 14.8979 3.23649ZM16.1873 3.64064C16.2523 3.64069 16.316 3.62144 16.3701 3.58534C16.4242 3.54924 16.4663 3.49791 16.4912 3.43782C16.5162 3.37774 16.5229 3.31161 16.5102 3.2478C16.4976 3.18399 16.4662 3.12536 16.4202 3.07932C16.3743 3.03329 16.3158 3.00192 16.252 2.98918C16.1882 2.97644 16.122 2.9829 16.0618 3.00775C16.0017 3.0326 15.9503 3.07472 15.9142 3.12878C15.878 3.18284 15.8587 3.24642 15.8587 3.31147C15.859 3.39859 15.8937 3.48204 15.9552 3.54369C16.0167 3.60533 16.1002 3.64018 16.1873 3.64064ZM17.4172 4.21073C17.4895 4.21098 17.5603 4.18975 17.6206 4.14972C17.681 4.10969 17.7281 4.05267 17.756 3.98588C17.7838 3.91909 17.7912 3.84553 17.7773 3.77452C17.7633 3.7035 17.7285 3.63823 17.6775 3.58697C17.6264 3.53571 17.5612 3.50076 17.4902 3.48655C17.4193 3.47234 17.3456 3.47951 17.2789 3.50714C17.212 3.53478 17.1547 3.58165 17.1145 3.64181C17.0742 3.70196 17.0527 3.77271 17.0527 3.84508C17.0527 3.89302 17.0621 3.94051 17.0804 3.98484C17.0986 4.02916 17.1254 4.06946 17.1593 4.10342C17.1931 4.13737 17.2332 4.16433 17.2775 4.18274C17.3218 4.20116 17.3693 4.21067 17.4172 4.21073ZM18.1644 4.53565C18.1644 4.61516 18.1879 4.69291 18.232 4.75906C18.2761 4.82522 18.3389 4.87681 18.4123 4.90731C18.4857 4.9378 18.5665 4.94583 18.6444 4.93038C18.7224 4.91493 18.7941 4.87669 18.8503 4.82051C18.9066 4.76432 18.945 4.69271 18.9606 4.61474C18.976 4.53676 18.9681 4.45593 18.9377 4.38247C18.9074 4.309 18.8558 4.2462 18.7897 4.20202C18.7236 4.15784 18.6459 4.13425 18.5664 4.13425C18.5137 4.13422 18.4614 4.14458 18.4126 4.16473C18.3639 4.18489 18.3197 4.21444 18.2824 4.25172C18.245 4.28899 18.2154 4.33325 18.1952 4.38196C18.1749 4.43068 18.1645 4.4829 18.1644 4.53565ZM19.6154 5.81031C19.702 5.81006 19.7866 5.78416 19.8584 5.73587C19.9305 5.68759 19.9863 5.61908 20.0194 5.539C20.0525 5.45892 20.0609 5.37085 20.0439 5.28591C20.0269 5.20098 19.9853 5.12298 19.924 5.06177C19.8626 5.00055 19.7845 4.95887 19.6996 4.94197C19.6147 4.92507 19.5266 4.93372 19.4466 4.96682C19.3666 4.99992 19.298 5.05599 19.2498 5.12796C19.2016 5.19992 19.1758 5.28456 19.1758 5.37118C19.1757 5.4289 19.187 5.48605 19.2092 5.53938C19.2313 5.59271 19.2636 5.64115 19.3044 5.68194C19.3452 5.72273 19.3937 5.75507 19.4471 5.77709C19.5005 5.79912 19.5577 5.81041 19.6154 5.81031ZM20.5464 6.81229C20.6403 6.81229 20.732 6.78444 20.8102 6.73226C20.8883 6.68008 20.9492 6.60592 20.9851 6.51915C21.021 6.43237 21.0304 6.33689 21.0121 6.24478C20.9937 6.15266 20.9486 6.06805 20.8822 6.00163C20.8158 5.93522 20.7311 5.88999 20.639 5.87167C20.5469 5.85335 20.4515 5.86275 20.3647 5.89869C20.2779 5.93464 20.2036 5.9955 20.1516 6.07359C20.0993 6.15169 20.0714 6.2435 20.0714 6.33742C20.0714 6.46336 20.1215 6.58415 20.2106 6.67321C20.2997 6.76226 20.4205 6.81229 20.5464 6.81229ZM21.3417 6.90302C21.2404 6.90302 21.1416 6.93303 21.0574 6.98924C20.9732 7.04546 20.9077 7.12536 20.8689 7.21885C20.8302 7.31233 20.8202 7.4152 20.8398 7.51445C20.8596 7.61369 20.9083 7.70485 20.9799 7.7764C21.0515 7.84795 21.1425 7.89668 21.2418 7.91642C21.341 7.93616 21.444 7.92603 21.5375 7.8873C21.631 7.84858 21.7108 7.78301 21.767 7.69887C21.8232 7.61474 21.8533 7.51582 21.8533 7.41463C21.8533 7.34744 21.84 7.2809 21.8144 7.21881C21.7887 7.15672 21.751 7.10031 21.7034 7.0528C21.6559 7.00528 21.5996 6.9676 21.5375 6.9419C21.4754 6.9162 21.4088 6.90299 21.3417 6.90302ZM21.4438 8.58807C21.444 8.69637 21.4762 8.80219 21.5366 8.89215C21.5969 8.98212 21.6825 9.05219 21.7826 9.09351C21.8827 9.13482 21.9928 9.14553 22.0989 9.12428C22.2051 9.10302 22.3027 9.05076 22.3792 8.9741C22.4557 8.89743 22.5077 8.79981 22.5287 8.69357C22.5497 8.58734 22.5387 8.47725 22.4972 8.37724C22.4557 8.27724 22.3853 8.19179 22.2952 8.13171C22.2052 8.07163 22.0992 8.03962 21.9909 8.03972C21.9191 8.03969 21.8477 8.05386 21.7812 8.08142C21.7148 8.10898 21.6544 8.14939 21.6036 8.20033C21.5527 8.25127 21.5126 8.31175 21.4851 8.37828C21.4577 8.44482 21.4436 8.51611 21.4438 8.58807ZM21.8978 9.83449C21.8977 9.95009 21.9319 10.0631 21.996 10.1593C22.0601 10.2555 22.1514 10.3305 22.2581 10.3749C22.3649 10.4192 22.4824 10.4309 22.5958 10.4085C22.7092 10.3861 22.8133 10.3305 22.8951 10.2489C22.977 10.1673 23.0329 10.0632 23.0555 9.94984C23.0782 9.83649 23.0669 9.71895 23.0228 9.61209C22.9787 9.50522 22.9039 9.41382 22.8079 9.34944C22.7118 9.28506 22.599 9.2506 22.4834 9.2504C22.3283 9.25033 22.1796 9.3118 22.0697 9.42131C21.9599 9.53082 21.8981 9.67942 21.8978 9.83449ZM22.805 10.5138C22.6821 10.5138 22.5618 10.5502 22.4597 10.6185C22.3573 10.6867 22.2777 10.7838 22.2306 10.8974C22.1835 11.0109 22.1712 11.1359 22.195 11.2565C22.219 11.3771 22.2782 11.4879 22.3652 11.5749C22.4521 11.6618 22.5629 11.721 22.6835 11.745C22.804 11.769 22.9289 11.7567 23.0425 11.7097C23.1561 11.6627 23.2533 11.583 23.3216 11.4808C23.3899 11.3786 23.4263 11.2584 23.4263 11.1354C23.4263 10.9706 23.3609 10.8126 23.2444 10.696C23.1278 10.5795 22.9699 10.5139 22.805 10.5138ZM1.04579 13.5803C1.0364 13.5797 1.02699 13.5811 1.01814 13.5843C1.0093 13.5875 1.0012 13.5925 0.994351 13.5989C0.987501 13.6054 0.982043 13.6131 0.978312 13.6218C0.974581 13.6304 0.972656 13.6397 0.972656 13.6491C0.972656 13.6585 0.974581 13.6678 0.978312 13.6765C0.982043 13.6851 0.987501 13.6929 0.994351 13.6993C1.0012 13.7058 1.0093 13.7108 1.01814 13.714C1.02699 13.7172 1.0364 13.7185 1.04579 13.718C1.05518 13.7185 1.06459 13.7172 1.07343 13.714C1.08228 13.7108 1.09038 13.7058 1.09723 13.6993C1.10408 13.6929 1.10953 13.6851 1.11327 13.6765C1.117 13.6678 1.11892 13.6585 1.11892 13.6491C1.11892 13.6397 1.117 13.6304 1.11327 13.6218C1.10953 13.6131 1.10408 13.6054 1.09723 13.5989C1.09038 13.5925 1.08228 13.5875 1.07343 13.5843C1.06459 13.5811 1.05518 13.5797 1.04579 13.5803ZM1.44518 12.2311C1.41787 12.231 1.39114 12.2389 1.36836 12.254C1.34558 12.2691 1.32778 12.2905 1.31721 12.3157C1.30665 12.3409 1.30379 12.3686 1.30901 12.3955C1.31423 12.4223 1.32729 12.4469 1.34652 12.4663C1.36576 12.4857 1.39032 12.4989 1.41709 12.5043C1.44385 12.5097 1.47162 12.5071 1.49688 12.4967C1.52214 12.4863 1.54375 12.4687 1.55897 12.446C1.57419 12.4233 1.58235 12.3966 1.5824 12.3693C1.58227 12.3329 1.5678 12.298 1.54212 12.2721C1.51645 12.2462 1.48162 12.2315 1.44518 12.2311ZM2.18274 11.1379C2.18288 11.0969 2.17086 11.0567 2.14817 11.0225C2.12549 10.9883 2.09318 10.9616 2.05531 10.9458C2.01745 10.9299 1.97574 10.9257 1.93547 10.9336C1.89519 10.9415 1.85816 10.9611 1.82905 10.99C1.79994 11.019 1.78007 11.0559 1.77195 11.0961C1.76383 11.1363 1.76782 11.1781 1.78342 11.216C1.79903 11.254 1.82554 11.2865 1.8596 11.3094C1.89366 11.3322 1.93375 11.3445 1.97479 11.3446C2.02975 11.3447 2.08249 11.323 2.12146 11.2842C2.16044 11.2455 2.18247 11.1929 2.18274 11.1379ZM2.63212 10.2446C2.68649 10.2446 2.73965 10.2285 2.78486 10.1983C2.83007 10.1681 2.86531 10.1252 2.88612 10.0749C2.90693 10.0247 2.91237 9.9694 2.90176 9.91607C2.89115 9.86274 2.86497 9.81375 2.82652 9.7753C2.78807 9.73685 2.73908 9.71067 2.68575 9.70006C2.63242 9.68945 2.57714 9.6949 2.52691 9.71571C2.47667 9.73652 2.43373 9.77175 2.40352 9.81697C2.37331 9.86218 2.35719 9.91533 2.35719 9.96971C2.35758 10.0425 2.38668 10.1122 2.43815 10.1637C2.48962 10.2152 2.55932 10.2442 2.63212 10.2446ZM3.40916 9.22066C3.47735 9.2207 3.54402 9.20053 3.60074 9.16267C3.65745 9.12482 3.70167 9.071 3.72779 9.00801C3.7539 8.94502 3.76075 8.8757 3.74746 8.80882C3.73417 8.74194 3.70134 8.6805 3.65312 8.63229C3.6049 8.58407 3.54347 8.55124 3.47659 8.53795C3.40971 8.52466 3.34039 8.5315 3.2774 8.55762C3.21441 8.58374 3.16059 8.62795 3.12273 8.68467C3.08488 8.74139 3.0647 8.80806 3.06475 8.87625C3.06469 8.92149 3.07355 8.96631 3.09083 9.00812C3.10812 9.04994 3.13349 9.08793 3.16548 9.11993C3.19747 9.15192 3.23547 9.17729 3.27728 9.19457C3.3191 9.21186 3.36391 9.22072 3.40916 9.22066ZM4.29668 8.2839C4.37844 8.2839 4.45836 8.25966 4.52634 8.21424C4.59432 8.16881 4.64731 8.10425 4.6786 8.02871C4.70989 7.95317 4.71807 7.87006 4.70212 7.78987C4.68617 7.70968 4.6468 7.63602 4.58899 7.5782C4.53117 7.52039 4.45751 7.48102 4.37732 7.46507C4.29713 7.44912 4.21401 7.4573 4.13848 7.48859C4.06294 7.51988 3.99838 7.57286 3.95295 7.64085C3.90753 7.70883 3.88329 7.78875 3.88329 7.87051C3.88329 7.98015 3.92684 8.0853 4.00436 8.16282C4.08189 8.24035 4.18704 8.2839 4.29668 8.2839ZM5.28491 7.44763C5.38056 7.44782 5.47411 7.41964 5.55373 7.36665C5.63335 7.31366 5.69546 7.23823 5.7322 7.14993C5.76894 7.06162 5.77866 6.9644 5.76012 6.87057C5.74158 6.77674 5.69562 6.69051 5.62806 6.62281C5.5605 6.55511 5.47437 6.50898 5.38058 6.49024C5.28679 6.47151 5.18955 6.48103 5.10117 6.51758C5.01278 6.55414 4.93723 6.61609 4.88407 6.6956C4.83092 6.77511 4.80254 6.86861 4.80254 6.96425C4.80248 7.02767 4.8149 7.09047 4.83911 7.14908C4.86331 7.20769 4.89882 7.26096 4.94362 7.30584C4.98841 7.35073 5.0416 7.38635 5.10016 7.41068C5.15872 7.43501 5.2215 7.44756 5.28491 7.44763ZM6.36213 6.71957C6.47132 6.71991 6.57816 6.68785 6.66911 6.62742C6.76006 6.567 6.83103 6.48094 6.87304 6.38015C6.91504 6.27936 6.92618 6.16837 6.90506 6.06124C6.88393 5.95412 6.83148 5.85567 6.75436 5.77837C6.67724 5.70107 6.57891 5.6484 6.47183 5.62703C6.36475 5.60566 6.25373 5.61655 6.15285 5.65833C6.05196 5.7001 5.96574 5.77088 5.90511 5.86169C5.84449 5.95251 5.81217 6.05927 5.81227 6.16846C5.81247 6.31435 5.87042 6.45422 5.97346 6.5575C6.0765 6.66077 6.21624 6.71904 6.36213 6.71957ZM7.52932 6.12723C7.652 6.12728 7.77194 6.09095 7.87397 6.02284C7.97601 5.95473 8.05556 5.85789 8.10256 5.74457C8.14957 5.63125 8.16192 5.50654 8.13805 5.38621C8.11418 5.26587 8.05517 5.15531 7.96848 5.06851C7.88178 4.98171 7.77129 4.92257 7.65099 4.89855C7.53068 4.87454 7.40595 4.88674 7.29258 4.93361C7.1792 4.98048 7.08227 5.05991 7.01404 5.16186C6.9458 5.26381 6.90933 5.38371 6.90923 5.50639C6.90917 5.58788 6.92515 5.66857 6.95628 5.74388C6.98741 5.81918 7.03307 5.88762 7.09066 5.94527C7.14824 6.00292 7.21662 6.04867 7.29189 6.07989C7.36715 6.11111 7.44783 6.12719 7.52932 6.12723Z" fill="black"></path>
    <path d="M8.77046 5.69084C8.93515 5.69014 9.09412 5.63042 9.21854 5.52252C9.34295 5.41461 9.42455 5.26568 9.44853 5.10275C9.52301 5.20995 9.62399 5.29603 9.74163 5.35261C9.85926 5.40919 9.98955 5.43434 10.1198 5.42561C10.25 5.41688 10.3757 5.37456 10.4848 5.30278C10.5939 5.231 10.6825 5.13221 10.742 5.01602C10.8148 5.11306 10.9081 5.19282 11.0154 5.24961C11.1226 5.30641 11.2412 5.33884 11.3624 5.34459C11.4836 5.35035 11.6046 5.32928 11.7168 5.2829C11.8288 5.23651 11.9293 5.16595 12.0112 5.07625C12.1474 5.26883 12.3542 5.39974 12.5866 5.44047C12.819 5.48119 13.0582 5.42844 13.2517 5.2937C13.2844 5.3478 13.3229 5.3981 13.3667 5.44366C13.1463 5.46681 12.9396 5.56204 12.7788 5.71458C12.6795 5.62365 12.5619 5.55474 12.4339 5.51238C12.306 5.47001 12.1705 5.45513 12.0364 5.46872C11.9023 5.48231 11.7726 5.52406 11.6558 5.59123C11.5388 5.65841 11.4374 5.7495 11.3582 5.85855C11.1995 5.73314 11.0029 5.66521 10.8006 5.66585C10.628 5.6661 10.4592 5.71562 10.3138 5.8086C10.1684 5.90158 10.0525 6.03415 9.97989 6.19071C9.86518 6.11266 9.73316 6.06378 9.59529 6.04829C9.45741 6.03281 9.31784 6.05118 9.18867 6.10183C9.0595 6.15248 8.94464 6.23387 8.85404 6.33894C8.76343 6.44402 8.69983 6.56961 8.66874 6.70482C8.54752 6.63091 8.40882 6.59059 8.26687 6.58801C8.12492 6.58544 7.98484 6.62069 7.86102 6.69016C7.7372 6.75962 7.63411 6.8608 7.56232 6.98329C7.49054 7.10578 7.45265 7.24517 7.45256 7.38714V7.39014C7.33909 7.3246 7.21036 7.2901 7.07932 7.29011C6.94828 7.29013 6.81955 7.32466 6.7061 7.39023C6.59264 7.4558 6.49846 7.5501 6.43303 7.66363C6.36759 7.77716 6.33322 7.90593 6.33336 8.03697C6.33365 8.10707 6.34366 8.1768 6.3631 8.24416C6.25482 8.17659 6.12983 8.14058 6.0022 8.14019C5.86502 8.14009 5.7309 8.18067 5.61679 8.2568C5.50268 8.33293 5.4137 8.44118 5.36112 8.56788C5.30853 8.69457 5.29469 8.83402 5.32136 8.96857C5.34802 9.10313 5.41399 9.22676 5.51092 9.32383C5.60784 9.42089 5.73138 9.48704 5.8659 9.5139C6.00042 9.54076 6.13988 9.52712 6.26665 9.47472C6.39342 9.42232 6.5018 9.3335 6.5781 9.2195C6.65439 9.10549 6.69516 8.97143 6.69526 8.83426C6.6944 8.77612 6.68651 8.7183 6.67177 8.66205C6.78254 8.73446 6.91059 8.77608 7.04277 8.78266C7.17495 8.78923 7.3065 8.76051 7.42391 8.69945C7.54132 8.63839 7.64038 8.54719 7.7109 8.4352C7.78142 8.32322 7.82088 8.19448 7.82521 8.06221C7.9529 8.14365 8.10115 8.187 8.2526 8.18718C8.26659 8.18718 8.28184 8.18518 8.29659 8.18518C8.1238 8.34241 8.01774 8.55981 8.00017 8.79277C7.87336 8.7688 7.74284 8.7731 7.61789 8.80535C7.49293 8.83761 7.37663 8.89702 7.27727 8.97937C7.17791 9.06171 7.09794 9.16495 7.04304 9.28174C6.98815 9.39853 6.95969 9.52599 6.95969 9.65504C6.95951 9.6894 6.96185 9.72374 6.96669 9.75776C6.9348 9.75348 6.90264 9.75148 6.87047 9.75176C6.76134 9.75173 6.65329 9.77319 6.55246 9.81493C6.45164 9.85667 6.36003 9.91785 6.28285 9.995C6.20568 10.0722 6.14446 10.1638 6.1027 10.2646C6.06093 10.3654 6.03944 10.4734 6.03944 10.5825C6.03893 10.6726 6.05372 10.7621 6.08317 10.8472C6.06618 10.8472 6.05018 10.845 6.03319 10.845C5.89372 10.8448 5.75674 10.882 5.6364 10.9524C5.51606 11.0229 5.41672 11.1243 5.34862 11.246C5.28053 11.3677 5.24616 11.5054 5.24906 11.6448C5.25196 11.7843 5.29202 11.9204 5.36511 12.0392C5.35754 12.0387 5.34994 12.0387 5.34237 12.0392C5.19409 12.039 5.04919 12.0835 4.92656 12.1669C4.80393 12.2502 4.70926 12.3686 4.65488 12.5066C4.60049 12.6445 4.58893 12.7956 4.62168 12.9403C4.65443 13.0849 4.72999 13.2163 4.8385 13.3173C4.82751 13.3173 4.81751 13.3141 4.80751 13.3141C4.64636 13.3137 4.49008 13.3694 4.3654 13.4715C4.24072 13.5736 4.15538 13.7158 4.12397 13.8739C4.09256 14.032 4.11704 14.196 4.19321 14.338C4.26938 14.4801 4.39252 14.5912 4.54158 14.6525C4.69063 14.7138 4.85634 14.7214 5.01038 14.674C5.16441 14.6266 5.29721 14.5272 5.38605 14.3927C5.4749 14.2583 5.51429 14.0971 5.49748 13.9369C5.48066 13.7766 5.4087 13.6271 5.29388 13.514C5.30938 13.514 5.32588 13.516 5.34237 13.516C5.44416 13.5161 5.54485 13.495 5.63808 13.4541C5.7313 13.4133 5.81503 13.3535 5.88398 13.2786V13.3036C5.88363 13.4864 5.94159 13.6646 6.04943 13.8122C5.91467 13.8601 5.79488 13.9426 5.70214 14.0515C5.6094 14.1603 5.54696 14.2917 5.52112 14.4324C5.49528 14.573 5.50694 14.718 5.55493 14.8528C5.60292 14.9875 5.68555 15.1072 5.7945 15.1998C5.6627 15.2601 5.55045 15.3561 5.47049 15.477C5.39053 15.5979 5.34608 15.7387 5.34217 15.8836C5.33827 16.0285 5.37507 16.1715 5.4484 16.2965C5.52173 16.4215 5.62865 16.5234 5.75701 16.5907C5.62238 16.6588 5.51204 16.7668 5.44103 16.8999C5.37003 17.033 5.34181 17.1848 5.36023 17.3346C5.37865 17.4843 5.44281 17.6247 5.54397 17.7367C5.64512 17.8486 5.77834 17.9267 5.92547 17.9601C5.78622 18.0301 5.6747 18.1451 5.60896 18.2864C5.54323 18.4277 5.52714 18.5871 5.56329 18.7387C5.59945 18.8903 5.68574 19.0252 5.80818 19.1217C5.93062 19.2181 6.08203 19.2704 6.23788 19.27C6.28061 19.2697 6.3232 19.2654 6.3651 19.257C6.21104 19.3083 6.082 19.4159 6.00377 19.5582C5.92555 19.7005 5.90389 19.867 5.94312 20.0246C5.98236 20.1822 6.0796 20.3191 6.21542 20.4081C6.35124 20.4971 6.51564 20.5316 6.67578 20.5047C6.83591 20.4778 6.97999 20.3914 7.07923 20.2629C7.17848 20.1344 7.22557 19.9731 7.21111 19.8114C7.19666 19.6497 7.12171 19.4993 7.00125 19.3904C6.88078 19.2815 6.72367 19.2221 6.5613 19.224C6.52145 19.2242 6.48171 19.228 6.44258 19.2355C6.58404 19.1926 6.70799 19.1054 6.79617 18.9867C6.88436 18.8681 6.93213 18.7243 6.93245 18.5764C6.93245 18.5589 6.92845 18.5442 6.92695 18.5265C7.03574 18.6461 7.17864 18.7295 7.33634 18.7654C7.24122 18.8769 7.18007 19.0133 7.16016 19.1584C7.14024 19.3036 7.1624 19.4515 7.224 19.5844C7.2856 19.7174 7.38405 19.8299 7.50768 19.9086C7.6313 19.9872 7.7749 20.0288 7.92144 20.0283H7.93818C7.85899 20.1373 7.81151 20.2661 7.80102 20.4004C7.79052 20.5347 7.81742 20.6693 7.87874 20.7892C7.94005 20.9092 8.03337 21.0098 8.14837 21.08C8.26338 21.1501 8.39556 21.1871 8.53027 21.1867C8.60215 21.1865 8.67362 21.1759 8.74247 21.1553C8.67316 21.2599 8.63348 21.3813 8.62765 21.5066C8.62181 21.6319 8.65004 21.7565 8.70933 21.8671C8.76862 21.9777 8.85676 22.0701 8.96438 22.1346C9.072 22.1992 9.19509 22.2333 9.32056 22.2335C9.47797 22.2332 9.63044 22.1785 9.7522 22.0788C9.66912 22.1751 9.61582 22.2936 9.59876 22.4197C9.58171 22.5458 9.60165 22.6741 9.65614 22.7891C9.71064 22.9041 9.79735 23.0008 9.90575 23.0675C10.0142 23.1341 10.1396 23.1679 10.2668 23.1646C10.3941 23.1613 10.5175 23.1212 10.6223 23.0491C10.7271 22.9769 10.8089 22.8759 10.8574 22.7583C10.9059 22.6406 10.9192 22.5114 10.8956 22.3864C10.8721 22.2613 10.8128 22.1458 10.7249 22.0538C10.811 22.0522 10.8962 22.0375 10.9778 22.0103V22.0193C10.978 22.1674 11.0189 22.3126 11.0962 22.4389C11.1735 22.5652 11.2842 22.6677 11.416 22.7351C11.3764 22.7265 11.3361 22.7222 11.2956 22.7223C11.1421 22.7214 10.9937 22.7765 10.8781 22.8775C10.7626 22.9784 10.688 23.1182 10.6684 23.2703C10.6488 23.4225 10.6855 23.5766 10.7717 23.7035C10.8579 23.8305 10.9875 23.9215 11.1361 23.9595C11.2847 23.9974 11.4422 23.9797 11.5787 23.9096C11.7151 23.8395 11.8212 23.7219 11.877 23.5789C11.9327 23.436 11.9342 23.2776 11.8812 23.1336C11.8281 22.9896 11.7243 22.87 11.5892 22.7973C11.6521 22.8137 11.7169 22.8221 11.7819 22.8223C11.9321 22.8224 12.0793 22.7802 12.2067 22.7006C12.2189 22.8478 12.2731 22.9884 12.3632 23.1055C12.4532 23.2225 12.5752 23.3111 12.7146 23.3604C12.8538 23.4098 13.0043 23.4179 13.148 23.3837C13.2916 23.3495 13.4223 23.2745 13.5245 23.1677C13.5485 23.3188 13.6194 23.4586 13.7271 23.5672C13.8349 23.6759 13.9741 23.748 14.125 23.7733C14.2759 23.7986 14.4309 23.7758 14.5681 23.7082C14.7054 23.6407 14.8181 23.5317 14.89 23.3967C14.9228 23.559 15.0127 23.7042 15.1433 23.8059C15.2739 23.9077 15.4366 23.9594 15.6019 23.9516C15.7673 23.9438 15.9244 23.877 16.0449 23.7633C16.1653 23.6496 16.241 23.4966 16.2583 23.3319C16.267 23.4589 16.3125 23.5805 16.3892 23.6821C16.4658 23.7836 16.5704 23.8607 16.69 23.9039C16.8097 23.9471 16.9394 23.9546 17.0632 23.9254C17.1871 23.8962 17.2998 23.8317 17.3876 23.7396C17.4754 23.6475 17.5345 23.5319 17.5578 23.4068C17.5811 23.2817 17.5675 23.1525 17.5186 23.035C17.4698 22.9175 17.3878 22.8168 17.2827 22.745C17.1776 22.6732 17.0541 22.6336 16.9268 22.6309C16.9866 22.5683 17.0367 22.4971 17.0753 22.4197C17.1795 22.5264 17.3113 22.6021 17.4561 22.6381C17.6008 22.6741 17.7528 22.6691 17.8948 22.6236C17.7716 22.707 17.6822 22.8318 17.6432 22.9755C17.6041 23.1191 17.6179 23.2719 17.6821 23.4063C17.7463 23.5406 17.8563 23.6474 17.9926 23.7074C18.1288 23.7673 18.2821 23.7764 18.4244 23.733C18.5668 23.6896 18.6888 23.5966 18.7684 23.4708C18.8479 23.345 18.8797 23.1949 18.858 23.0476C18.8363 22.9004 18.7624 22.7659 18.6499 22.6685C18.5373 22.5711 18.3935 22.5173 18.2446 22.5169C18.1842 22.5175 18.1243 22.5273 18.0667 22.5461C18.1586 22.4905 18.2385 22.417 18.3016 22.33C18.3647 22.243 18.4099 22.1442 18.4342 22.0395C18.5722 22.1572 18.7477 22.2216 18.9291 22.2212C19.1322 22.2208 19.3271 22.1399 19.4708 21.9962C19.6146 21.8525 19.6954 21.6577 19.6959 21.4544C19.6959 21.4487 19.694 21.4427 19.694 21.4379C19.8183 21.5285 19.9681 21.5772 20.1217 21.5769C20.2178 21.577 20.3129 21.5582 20.4016 21.5215C20.4902 21.4848 20.5709 21.431 20.6388 21.3632C20.7067 21.2954 20.7606 21.2148 20.7974 21.1261C20.8342 21.0374 20.8533 20.9423 20.8533 20.8463C20.8537 20.7744 20.843 20.7028 20.8216 20.6341C20.9591 20.7271 21.1254 20.7676 21.2903 20.7481C21.4551 20.7287 21.6074 20.6506 21.7195 20.5282C21.8316 20.4058 21.896 20.2472 21.9009 20.0813C21.9058 19.9154 21.851 19.7532 21.7463 19.6244C21.8643 19.7283 22.016 19.7855 22.1731 19.7854C22.3476 19.7854 22.5149 19.7161 22.6383 19.5927C22.7617 19.4693 22.8309 19.302 22.8309 19.1275C22.8309 18.9531 22.7617 18.7858 22.6383 18.6624C22.5149 18.539 22.3476 18.4697 22.1731 18.4697C22.004 18.4697 21.8415 18.5356 21.7202 18.6534C21.7183 18.567 21.7038 18.4813 21.6772 18.399H21.6847C21.8328 18.3989 21.9781 18.358 22.1045 18.2807C22.2309 18.2035 22.3335 18.0929 22.4011 17.9611C22.3932 18.0006 22.389 18.0408 22.3885 18.0811C22.3869 18.2347 22.4413 18.3838 22.5418 18.5C22.6423 18.6163 22.7819 18.6917 22.9342 18.7122C23.0865 18.7326 23.2411 18.6966 23.3687 18.6109C23.4963 18.5253 23.5882 18.3959 23.6269 18.2471C23.6656 18.0984 23.6486 17.9407 23.5791 17.8036C23.5096 17.6666 23.3923 17.5597 23.2493 17.5032C23.1064 17.4467 22.9478 17.4444 22.8034 17.4968C22.6588 17.5492 22.5385 17.6527 22.465 17.7876C22.4812 17.7248 22.4896 17.6601 22.49 17.5952C22.4893 17.445 22.4469 17.2979 22.3676 17.1703C22.5148 17.1583 22.6553 17.104 22.7724 17.0139C22.8895 16.9239 22.9781 16.8019 23.0273 16.6627C23.0766 16.5235 23.0848 16.373 23.0506 16.2293C23.0163 16.0857 22.9412 15.9549 22.8344 15.8529C22.9853 15.8287 23.1249 15.7577 23.2334 15.6501C23.3419 15.5424 23.4137 15.4034 23.4391 15.2527C23.4644 15.102 23.4419 14.9471 23.3745 14.8099C23.3072 14.6727 23.1987 14.56 23.0639 14.4878C23.2264 14.4554 23.372 14.3657 23.4741 14.2351C23.576 14.1045 23.6278 13.9417 23.6201 13.7761C23.6122 13.6106 23.5452 13.4533 23.4314 13.3329C23.3174 13.2126 23.164 13.1371 22.9991 13.1201C23.1693 13.1095 23.3288 13.0336 23.4445 12.9083C23.5601 12.783 23.6229 12.6179 23.6199 12.4474C23.6169 12.2769 23.5483 12.1142 23.4282 11.993C23.3083 11.8719 23.1462 11.8017 22.9757 11.797C22.8053 11.7924 22.6397 11.8536 22.5133 11.968C22.3869 12.0825 22.3095 12.2412 22.2971 12.4113C22.2848 12.5813 22.3385 12.7496 22.4471 12.881C22.5557 13.0125 22.7109 13.0969 22.8803 13.1169C22.7305 13.1258 22.5877 13.1833 22.4734 13.2807C22.3592 13.378 22.2799 13.5099 22.2474 13.6564C22.215 13.8029 22.2311 13.956 22.2936 14.0925C22.3559 14.229 22.4611 14.3414 22.5931 14.4128C22.4613 14.4355 22.3384 14.494 22.2377 14.5818C22.137 14.6696 22.0623 14.7834 22.0219 14.9108C21.9816 15.0381 21.9768 15.1741 22.0084 15.304C22.0401 15.4338 22.1068 15.5524 22.2012 15.647C22.0761 15.6638 21.957 15.7113 21.8547 15.7852C21.7523 15.8591 21.6698 15.9572 21.6145 16.0708C21.5592 16.1843 21.5329 16.3097 21.5378 16.4359C21.5427 16.5621 21.5788 16.685 21.6427 16.7939C21.4373 16.8048 21.2438 16.894 21.1022 17.0432C20.9605 17.1924 20.8815 17.3902 20.8813 17.5959C20.8813 17.675 20.8936 17.7536 20.9174 17.8289C20.9053 17.8272 20.8931 17.8263 20.8808 17.8261C20.6578 17.8262 20.4438 17.9148 20.2861 18.0725C20.1285 18.2303 20.0397 18.4441 20.0397 18.6672C20.0397 18.6873 20.0409 18.7074 20.0432 18.7274C19.9995 18.7201 19.9554 18.7164 19.9111 18.7164C19.7003 18.7162 19.4965 18.792 19.3372 18.9301C19.1779 19.0681 19.0737 19.259 19.0439 19.4677C18.9658 19.4466 18.8855 19.4356 18.8046 19.435C18.6308 19.4352 18.4606 19.4848 18.3141 19.5782C18.1675 19.6715 18.0507 19.8047 17.9771 19.9621C17.8818 19.8843 17.7697 19.8296 17.65 19.8022C17.5301 19.7748 17.4055 19.7754 17.2859 19.8039C17.1663 19.8325 17.0548 19.8883 16.9603 19.9669C16.8657 20.0455 16.7905 20.1449 16.7405 20.2572C16.6538 20.1629 16.5458 20.0907 16.4254 20.0466C16.3049 20.0025 16.1757 19.9879 16.0485 20.0039C15.9213 20.0199 15.7998 20.0661 15.6941 20.1387C15.5885 20.2112 15.5017 20.308 15.441 20.4209C15.3691 20.3311 15.2788 20.2577 15.1762 20.2056C15.0736 20.1536 14.9609 20.1241 14.846 20.1192C14.7311 20.1143 14.6164 20.1341 14.5097 20.1772C14.403 20.2203 14.3067 20.2858 14.2275 20.3692C14.1783 20.2611 14.1059 20.1652 14.0155 20.0884C13.925 20.0115 13.8188 19.9555 13.7042 19.9245C13.5896 19.8935 13.4694 19.8881 13.3525 19.9088C13.2356 19.9295 13.1248 19.9758 13.0279 20.0443C13.0015 19.9277 12.9495 19.8183 12.8757 19.7243C12.8019 19.6302 12.7081 19.5537 12.6011 19.5004C12.4941 19.4471 12.3766 19.4182 12.257 19.4159C12.1375 19.4136 12.0189 19.438 11.9099 19.4872C11.9066 19.3726 11.8788 19.2601 11.8285 19.1572C11.7782 19.0542 11.7064 18.9633 11.6179 18.8904C11.5295 18.8175 11.4265 18.7643 11.3159 18.7345C11.2052 18.7046 11.0894 18.6988 10.9763 18.7174C11.0037 18.6001 11.0043 18.4781 10.9783 18.3605C10.9522 18.2429 10.9002 18.1326 10.8258 18.0378C10.7515 17.943 10.6567 17.8661 10.5487 17.8128C10.4406 17.7594 10.3221 17.731 10.2016 17.7297C10.2475 17.6242 10.2703 17.5102 10.2683 17.3952C10.2663 17.2802 10.2397 17.1669 10.1902 17.0631C10.1407 16.9593 10.0695 16.8673 9.98138 16.7934C9.89326 16.7195 9.79031 16.6654 9.67947 16.6347C9.74952 16.5438 9.79934 16.439 9.82557 16.3272C9.85181 16.2155 9.85386 16.0995 9.83159 15.9869C9.80932 15.8743 9.76324 15.7678 9.69644 15.6745C9.62964 15.5811 9.54367 15.5032 9.44428 15.4458C9.5389 15.3731 9.61624 15.2804 9.67072 15.1743C9.7252 15.0682 9.75547 14.9514 9.75934 14.8321C9.76321 14.7129 9.7406 14.5943 9.69312 14.4849C9.64564 14.3755 9.57448 14.278 9.48477 14.1994C9.58868 14.147 9.68012 14.073 9.75287 13.9822C9.82562 13.8914 9.87799 13.7861 9.90641 13.6732C9.9346 13.5612 9.93819 13.4444 9.91692 13.3308C9.89565 13.2173 9.85003 13.1097 9.78319 13.0154C9.89438 12.9904 9.99898 12.9421 10.0901 12.8736C10.1811 12.8051 10.2566 12.718 10.3116 12.6182C10.3665 12.5183 10.3995 12.4079 10.4085 12.2943C10.4176 12.1807 10.4023 12.0665 10.3638 11.9592C10.4831 11.9653 10.6023 11.9448 10.7127 11.8992C10.8231 11.8536 10.9219 11.7841 11.0021 11.6956C11.0823 11.6071 11.1419 11.5018 11.1765 11.3875C11.2111 11.2732 11.2199 11.1526 11.2021 11.0344C11.3148 11.0621 11.432 11.0652 11.5459 11.0434C11.66 11.0216 11.7679 10.9755 11.8624 10.9082C11.9569 10.8409 12.0357 10.754 12.0936 10.6535C12.1516 10.553 12.187 10.4411 12.1979 10.3256C12.2993 10.3789 12.4111 10.4099 12.5257 10.4165C12.6402 10.4231 12.7547 10.4051 12.8617 10.3639C12.9688 10.3226 13.0656 10.2589 13.1461 10.1772C13.2265 10.0954 13.2885 9.9974 13.328 9.88973C13.4111 9.96523 13.5092 10.0223 13.616 10.0572C13.7227 10.0921 13.8356 10.104 13.9473 10.0922C14.0691 10.0806 14.1867 10.041 14.2907 9.97663C14.3948 9.91221 14.4825 9.82465 14.5471 9.72077C14.614 9.81653 14.701 9.89654 14.802 9.95521C14.903 10.0139 15.0156 10.0498 15.132 10.0605C15.2483 10.0711 15.3656 10.0563 15.4755 10.0169C15.5855 9.97761 15.6856 9.91475 15.7689 9.83274C15.813 9.94354 15.8811 10.0431 15.9685 10.1243C16.056 10.2054 16.1602 10.2661 16.274 10.3019C16.3877 10.3376 16.508 10.3476 16.6262 10.3311C16.7443 10.3146 16.8573 10.272 16.9568 10.2064C16.9792 10.3237 17.0272 10.4346 17.0975 10.5311C17.1679 10.6276 17.2586 10.7073 17.3634 10.7645H17.3619C17.5378 10.8614 17.7435 10.8888 17.9386 10.8415C17.9603 10.8715 17.9835 10.9005 18.0075 10.9275C18.0177 11.1057 18.0883 11.2752 18.2075 11.4081C18.2127 11.4139 18.2183 11.4194 18.2244 11.4243C18.635 11.854 19.588 12.8969 19.4098 14.2933C19.3646 14.6412 19.5598 14.8169 19.8097 14.548C21.3231 12.9167 21.0861 10.913 21.0522 10.68C21.0441 10.5308 21.011 10.3841 20.9543 10.2459C20.972 10.1595 20.9811 10.0716 20.9813 9.98345C20.9812 9.78393 20.9352 9.58711 20.8465 9.40833C20.7579 9.22955 20.6294 9.07363 20.4706 8.95272C20.4854 8.87553 20.493 8.79714 20.4933 8.71854C20.4934 8.47103 20.4195 8.22916 20.2812 8.02398C20.1427 7.8188 19.9461 7.65969 19.7166 7.56709C19.7113 7.28818 19.6078 7.02005 19.4245 6.80979C19.2412 6.59953 18.9897 6.4606 18.7141 6.4174C18.666 6.15784 18.5287 5.92329 18.3258 5.75439C18.1229 5.5855 17.8673 5.4929 17.6033 5.49264C17.5828 5.49264 17.5642 5.49464 17.5424 5.49539C17.4728 5.28036 17.3368 5.09294 17.1539 4.96002C16.9711 4.8271 16.7509 4.75553 16.525 4.75559C16.434 4.75557 16.3434 4.7675 16.2555 4.79108C16.1993 4.66788 16.1188 4.55718 16.0191 4.46553C15.9194 4.37388 15.8024 4.30313 15.6749 4.25745C15.5475 4.21177 15.412 4.19208 15.2768 4.19955C15.1417 4.20703 15.0093 4.24151 14.8876 4.30096C14.8181 4.18291 14.724 4.08112 14.6119 4.00245C14.4998 3.92379 14.372 3.87007 14.2374 3.84492C14.1027 3.81977 13.9643 3.82376 13.8313 3.85664C13.6982 3.88952 13.5738 3.95052 13.4664 4.03553C13.386 3.92362 13.2806 3.83187 13.1587 3.76747C13.0368 3.70308 12.9016 3.66778 12.7638 3.66434C12.6258 3.6609 12.4892 3.68942 12.3642 3.74766C12.2392 3.8059 12.1294 3.89228 12.0434 4.00004C11.9548 3.89039 11.8396 3.80527 11.7087 3.75281C11.5778 3.70035 11.4359 3.68229 11.2961 3.70037C11.1562 3.71844 11.0233 3.77204 10.9102 3.85605C10.797 3.94006 10.7073 4.05167 10.6495 4.18024C10.554 4.0669 10.4273 3.98405 10.2851 3.94195C10.1431 3.89985 9.99174 3.90035 9.84991 3.94339C9.70808 3.98643 9.58198 4.07011 9.48723 4.18409C9.39247 4.29807 9.33323 4.43733 9.31682 4.58463C9.24571 4.49171 9.15208 4.41845 9.04478 4.37179C8.93748 4.32513 8.82005 4.3066 8.7036 4.31795C8.58714 4.32931 8.47551 4.37017 8.37924 4.43669C8.28298 4.5032 8.20527 4.59316 8.15345 4.69807C8.10164 4.80298 8.07743 4.91937 8.08312 5.03624C8.08882 5.15311 8.12422 5.2666 8.18598 5.36598C8.24774 5.46536 8.33383 5.54734 8.4361 5.60419C8.53837 5.66103 8.65345 5.69085 8.77046 5.69084ZM4.13794 23.4771C4.13098 23.4772 4.12411 23.4787 4.11772 23.4815C4.11133 23.4842 4.10554 23.4882 4.10069 23.4932C4.09584 23.4982 4.09202 23.5041 4.08945 23.5105C4.08688 23.517 4.0856 23.5239 4.0857 23.5309C4.0857 23.5449 4.09115 23.5583 4.10091 23.5683C4.11066 23.5784 4.12395 23.5842 4.13794 23.5846C4.15222 23.5845 4.1659 23.5788 4.17606 23.5688C4.18623 23.5587 4.1921 23.5452 4.19243 23.5309C4.19229 23.5165 4.18649 23.5028 4.17628 23.4928C4.16607 23.4827 4.15228 23.4771 4.13794 23.4771ZM3.51561 22.2365C3.50164 22.2364 3.48779 22.2391 3.47486 22.2444C3.46193 22.2497 3.45017 22.2575 3.44026 22.2673C3.43035 22.2772 3.42247 22.2889 3.41709 22.3018C3.4117 22.3146 3.40892 22.3285 3.40888 22.3424C3.40888 22.3707 3.4201 22.3978 3.44007 22.4177C3.46004 22.4377 3.48712 22.4489 3.51536 22.4489C3.54359 22.4489 3.57068 22.4377 3.59064 22.4177C3.61061 22.3978 3.62183 22.3707 3.62183 22.3424C3.62186 22.3285 3.61913 22.3147 3.6138 22.3018C3.60847 22.2889 3.60065 22.2772 3.59077 22.2673C3.5809 22.2575 3.56918 22.2497 3.55627 22.2444C3.54337 22.2391 3.52955 22.2364 3.51561 22.2365ZM3.01999 20.9368C2.98832 20.9368 2.95735 20.9461 2.93099 20.9636C2.90463 20.9812 2.88406 21.0061 2.87187 21.0354C2.85968 21.0646 2.85643 21.0968 2.86252 21.1278C2.86862 21.1589 2.88378 21.1875 2.9061 21.21C2.92842 21.2324 2.9569 21.2478 2.98793 21.254C3.01897 21.2603 3.05117 21.2573 3.08047 21.2453C3.10977 21.2333 3.13486 21.2128 3.15256 21.1866C3.17027 21.1603 3.1798 21.1294 3.17994 21.0978C3.18001 21.0552 3.16321 21.0144 3.13323 20.9842C3.10324 20.9541 3.06252 20.937 3.01999 20.9368ZM2.65783 19.5927C2.61569 19.5928 2.57452 19.6054 2.53953 19.6288C2.50453 19.6523 2.47728 19.6857 2.46122 19.7246C2.44517 19.7636 2.44101 19.8064 2.4493 19.8478C2.45758 19.8891 2.47792 19.927 2.50776 19.9568C2.53759 19.9866 2.57558 20.0068 2.61692 20.015C2.65827 20.0232 2.70111 20.0189 2.74003 20.0028C2.77896 19.9866 2.81223 19.9593 2.83563 19.9243C2.85904 19.8892 2.87153 19.848 2.87153 19.8059C2.87156 19.7778 2.86605 19.75 2.85532 19.7241C2.84458 19.6982 2.82884 19.6747 2.80898 19.6549C2.78912 19.6351 2.76555 19.6194 2.73961 19.6087C2.71367 19.598 2.68588 19.5926 2.65783 19.5927ZM2.70032 18.4847C2.70047 18.4319 2.68492 18.3801 2.65565 18.3361C2.62638 18.2921 2.58469 18.2578 2.53589 18.2375C2.48708 18.2172 2.43335 18.2119 2.3815 18.2221C2.32965 18.2324 2.28202 18.2578 2.24465 18.2952C2.20727 18.3326 2.18183 18.3802 2.17156 18.4321C2.16128 18.4839 2.16663 18.5377 2.18693 18.5865C2.20722 18.6353 2.24155 18.6769 2.28556 18.7062C2.32957 18.7355 2.38129 18.751 2.43414 18.7509C2.5047 18.7508 2.57232 18.7227 2.62221 18.6728C2.6721 18.6229 2.70019 18.5553 2.70032 18.4847ZM2.67158 17.1456C2.67143 17.0823 2.65255 17.0205 2.61733 16.968C2.5821 16.9155 2.5321 16.8746 2.47365 16.8504C2.41519 16.8263 2.35089 16.82 2.28886 16.8323C2.22683 16.8447 2.16985 16.8751 2.12511 16.9198C2.08037 16.9645 2.04987 17.0215 2.03747 17.0835C2.02506 17.1455 2.03131 17.2098 2.05541 17.2683C2.07951 17.3268 2.12039 17.3768 2.17289 17.4121C2.22539 17.4474 2.28717 17.4663 2.35041 17.4665C2.39262 17.4666 2.43443 17.4585 2.47346 17.4424C2.51248 17.4263 2.54794 17.4027 2.57779 17.3729C2.60764 17.343 2.6313 17.3076 2.6474 17.2686C2.66349 17.2296 2.67171 17.1878 2.67158 17.1456ZM2.036 15.8067C2.03605 15.8804 2.05796 15.9525 2.09897 16.0139C2.13998 16.0752 2.19825 16.123 2.26641 16.1512C2.33457 16.1794 2.40956 16.1868 2.48192 16.1724C2.55427 16.158 2.62074 16.1225 2.67292 16.0704C2.7251 16.0182 2.76065 15.9518 2.77509 15.8794C2.78952 15.8071 2.78219 15.7321 2.75401 15.6639C2.72584 15.5957 2.67809 15.5374 2.6168 15.4964C2.5555 15.4553 2.48342 15.4334 2.40965 15.4333C2.36056 15.4331 2.31191 15.4427 2.26652 15.4614C2.22113 15.4801 2.17988 15.5076 2.14516 15.5423C2.11043 15.577 2.08291 15.6182 2.06418 15.6636C2.04544 15.7089 2.03587 15.7576 2.036 15.8067ZM2.6101 14.9072C2.69449 14.907 2.77695 14.8819 2.84706 14.8349C2.91716 14.7879 2.97176 14.7211 3.00395 14.6431C3.03615 14.5651 3.04449 14.4793 3.02794 14.3965C3.01138 14.3138 2.97067 14.2378 2.91094 14.1782C2.8512 14.1185 2.77514 14.0779 2.69235 14.0615C2.60956 14.0451 2.52377 14.0536 2.44581 14.086C2.36785 14.1183 2.30122 14.173 2.25435 14.2432C2.20748 14.3134 2.18246 14.3959 2.18246 14.4803C2.18243 14.5364 2.19347 14.592 2.21496 14.6439C2.23645 14.6957 2.26796 14.7428 2.30768 14.7825C2.34741 14.8221 2.39457 14.8536 2.44646 14.875C2.49836 14.8963 2.55396 14.9073 2.6101 14.9072ZM2.9775 12.7107C2.88251 12.7106 2.78961 12.7386 2.71055 12.7913C2.6315 12.844 2.56984 12.9189 2.53339 13.0066C2.49693 13.0943 2.48732 13.1909 2.50576 13.2841C2.5242 13.3773 2.56987 13.4629 2.63699 13.5301C2.7041 13.5973 2.78965 13.6431 2.88281 13.6617C2.97596 13.6803 3.07254 13.6708 3.16031 13.6345C3.24808 13.5982 3.32311 13.5367 3.3759 13.4577C3.42869 13.3787 3.45687 13.2859 3.45687 13.1909C3.4568 13.0637 3.4063 12.9417 3.31644 12.8517C3.22657 12.7617 3.10468 12.711 2.9775 12.7107ZM3.51011 12.4941C3.61576 12.4943 3.71911 12.4632 3.80707 12.4047C3.89503 12.3462 3.96365 12.2628 4.00424 12.1653C4.04483 12.0678 4.05557 11.9604 4.03509 11.8567C4.01461 11.7531 3.96384 11.6578 3.8892 11.5831C3.81457 11.5083 3.71942 11.4573 3.61581 11.4367C3.51221 11.416 3.40479 11.4265 3.30717 11.4669C3.20956 11.5073 3.12612 11.5758 3.06744 11.6637C3.00875 11.7515 2.97745 11.8548 2.9775 11.9604C2.97756 12.1018 3.03367 12.2373 3.13351 12.3373C3.23335 12.4374 3.36878 12.4937 3.51011 12.4941Z" fill="black"></path>
    <path d="M4.20138 11.4004C4.31741 11.4002 4.43077 11.3655 4.52712 11.3009C4.62347 11.2362 4.69849 11.1444 4.7427 11.0372C4.78691 10.9299 4.79833 10.8119 4.7755 10.6981C4.75268 10.5844 4.69664 10.4799 4.61447 10.398C4.5323 10.3161 4.42768 10.2603 4.31385 10.2378C4.20001 10.2154 4.08207 10.2271 3.97492 10.2716C3.86777 10.3162 3.77622 10.3915 3.71185 10.488C3.64749 10.5846 3.61318 10.698 3.61328 10.8141C3.61322 10.8912 3.62839 10.9677 3.65795 11.0389C3.6875 11.1102 3.73084 11.175 3.78549 11.2294C3.84013 11.2839 3.90501 11.3271 3.97638 11.3564C4.04775 11.3858 4.12421 11.4007 4.20138 11.4004ZM5.67673 9.76533C5.67678 9.63873 5.63929 9.51497 5.569 9.40968C5.49871 9.30439 5.39877 9.22231 5.28183 9.17382C5.16489 9.12533 5.0362 9.1126 4.91203 9.13725C4.78785 9.1619 4.67378 9.22282 4.58423 9.3123C4.49467 9.40178 4.43367 9.51581 4.40892 9.63996C4.38418 9.76411 4.3968 9.89282 4.4452 10.0098C4.4936 10.1268 4.5756 10.2268 4.68084 10.2972C4.78607 10.3675 4.90981 10.4051 5.0364 10.4052C5.20612 10.4051 5.36888 10.3377 5.48894 10.2177C5.60899 10.0978 5.67654 9.93505 5.67673 9.76533ZM38.5998 19.9744C37.9198 19.9775 37.2466 19.8414 36.6213 19.5745C36.0191 19.3171 35.4724 18.9461 35.0107 18.4818C34.5503 18.0137 34.1829 17.4624 33.9283 16.8572C33.6645 16.228 33.5286 15.5525 33.5286 14.8702C33.5286 14.188 33.6645 13.5125 33.9283 12.8833C34.439 11.6617 35.4035 10.6858 36.6188 10.1605C37.2485 9.88971 37.9269 9.75067 38.6124 9.75192C39.2979 9.75316 39.9757 9.89467 40.6045 10.1677C41.2153 10.4379 41.7691 10.8217 42.2365 11.2987C42.3388 11.4051 42.4157 11.5332 42.4614 11.6736C42.4897 11.7572 42.4986 11.8461 42.4874 11.9337C42.4762 12.0212 42.445 12.105 42.3965 12.1787C42.2812 12.3514 42.1133 12.4464 41.8966 12.4606H41.8896C41.6519 12.4606 41.4857 12.3912 41.3517 12.2542C40.9674 11.9321 40.5483 11.654 40.1021 11.4252C39.6374 11.183 39.1207 11.0573 38.5967 11.059C38.091 11.0574 37.5904 11.1599 37.1259 11.3602C36.6772 11.5553 36.2705 11.8353 35.9282 12.185C35.5884 12.537 35.3173 12.9493 35.1285 13.4006C34.9328 13.8664 34.8321 14.3665 34.8321 14.8716C34.8321 15.3768 34.9328 15.8769 35.1285 16.3426C35.5056 17.2519 36.223 17.9778 37.1278 18.3656C37.5919 18.5658 38.0922 18.6679 38.5975 18.6655C39.1263 18.6687 39.6498 18.5612 40.1345 18.3498C40.5994 18.1451 41.0174 17.8474 41.363 17.4751C41.4699 17.3562 41.6113 17.2736 41.7674 17.2389C41.8173 17.2266 41.8685 17.2201 41.9198 17.2196C42.0393 17.2202 42.1559 17.2575 42.2536 17.3263C42.3328 17.388 42.3963 17.4674 42.439 17.5582C42.4818 17.649 42.5024 17.7486 42.4995 17.849C42.4995 18.0531 42.4373 18.2239 42.3148 18.3596C41.8503 18.8676 41.2847 19.2728 40.6543 19.549C40.0068 19.8332 39.3069 19.9781 38.5998 19.9744Z" fill="black"></path>
    <path d="M49.2123 19.9592C48.5319 19.9621 47.858 19.826 47.2321 19.5593C46.6314 19.3037 46.0853 18.9354 45.6232 18.4743C45.1632 18.012 44.7949 17.4667 44.5378 16.8673C44.2756 16.2404 44.1406 15.5677 44.1406 14.8883C44.1406 14.2088 44.2756 13.5361 44.5378 12.9093C44.7962 12.3078 45.1643 11.7596 45.6232 11.2927C46.0843 10.8286 46.6305 10.4577 47.2321 10.2005C47.8585 9.93669 48.5313 9.80078 49.211 9.80078C49.8907 9.80078 50.5636 9.93669 51.19 10.2005C52.41 10.7182 53.3814 11.6894 53.8993 12.9093C54.1634 13.5357 54.2994 14.2085 54.2994 14.8883C54.2994 15.568 54.1634 16.2409 53.8993 16.8673C53.6433 17.4692 53.2731 18.0159 52.8091 18.4771C52.3418 18.9355 51.7931 19.3028 51.1913 19.5603C50.5657 19.8268 49.8922 19.9626 49.2123 19.9592ZM49.2123 11.1073C48.7075 11.1053 48.2075 11.2051 47.7422 11.4007C47.2931 11.5881 46.8854 11.8624 46.5425 12.2077C46.2011 12.5565 45.9286 12.9665 45.7395 13.4164C45.3509 14.3582 45.3509 15.4154 45.7395 16.3571C46.1324 17.2752 46.8722 18.0006 47.7977 18.3755C48.7232 18.7504 49.7594 18.7442 50.6804 18.3584C51.1303 18.1694 51.5403 17.897 51.8888 17.5556C52.4165 17.0225 52.7749 16.3454 52.919 15.6092C53.063 14.8731 52.9864 14.1109 52.6986 13.4182C52.5072 12.9679 52.2324 12.5579 51.8886 12.2097C51.5417 11.8654 51.1317 11.591 50.6811 11.4015C50.2162 11.2059 49.7167 11.1059 49.2123 11.1073Z" fill="black"></path>
    <path d="M63.2884 19.9893C63.2025 19.9895 63.1174 19.9728 63.038 19.94C62.9586 19.9073 62.8864 19.8592 62.8257 19.7985C62.7649 19.7378 62.7167 19.6657 62.6839 19.5863C62.651 19.5069 62.6342 19.4218 62.6343 19.3359V13.516C62.6368 13.1904 62.5714 12.8679 62.4424 12.569C62.1874 11.9778 61.7153 11.5071 61.1235 11.2538C60.8247 11.1255 60.5029 11.0594 60.1777 11.0594C59.8526 11.0594 59.5308 11.1255 59.232 11.2538C58.9422 11.3795 58.6792 11.5595 58.4572 11.7842C58.2354 12.0117 58.0575 12.2782 57.9323 12.5702C57.8034 12.8688 57.7372 13.1907 57.7379 13.516V19.3349C57.7394 19.4213 57.7232 19.507 57.6901 19.5868C57.6571 19.6666 57.608 19.7388 57.5459 19.7988C57.4858 19.8598 57.414 19.908 57.3348 19.9406C57.2556 19.9731 57.1707 19.9893 57.085 19.9883C56.999 19.9888 56.9137 19.9722 56.8341 19.9396C56.7545 19.9069 56.6822 19.8589 56.6213 19.7981C56.5603 19.7374 56.512 19.6652 56.4792 19.5857C56.4463 19.5062 56.4295 19.421 56.4297 19.3349V13.516C56.4276 13.0143 56.5266 12.5174 56.7209 12.0549C56.9069 11.6075 57.1794 11.2013 57.5229 10.8597C57.8655 10.5168 58.271 10.2431 58.7171 10.0536C59.1789 9.85462 59.6765 9.75207 60.1794 9.75229C60.6822 9.7525 61.1797 9.85547 61.6413 10.0549C62.5417 10.4373 63.2591 11.1534 63.6431 12.0531C63.843 12.5148 63.9451 13.0129 63.943 13.516V19.3349C63.9445 19.4208 63.9286 19.5061 63.8962 19.5856C63.8639 19.6651 63.8156 19.7372 63.7545 19.7976C63.6936 19.8591 63.621 19.9078 63.5409 19.9407C63.4608 19.9736 63.375 19.9901 63.2884 19.9893ZM69.7137 19.9893C69.232 19.9922 68.7535 19.9106 68.3001 19.7481C67.8753 19.5952 67.4811 19.3681 67.1359 19.0773C66.8072 18.8004 66.5387 18.4591 66.3468 18.0745C66.1547 17.6915 66.0558 17.2686 66.0582 16.8401C66.0582 16.6749 66.1238 16.5165 66.2406 16.3997C66.3574 16.2829 66.5158 16.2173 66.681 16.2173C66.8462 16.2173 67.0046 16.2829 67.1214 16.3997C67.2382 16.5165 67.3038 16.6749 67.3038 16.8401C67.3029 17.0933 67.3646 17.3428 67.4833 17.5664C67.6076 17.7985 67.7781 18.0026 67.9844 18.1662C68.2143 18.3443 68.4722 18.4826 68.7477 18.5756C69.0541 18.6768 69.3748 18.7275 69.6974 18.7256C70.0235 18.727 70.3477 18.6756 70.6574 18.5736C70.9404 18.4796 71.2062 18.3404 71.4447 18.1615C71.6585 18.0034 71.8342 17.7996 71.9591 17.5649C72.0754 17.3462 72.1274 17.0991 72.1091 16.8521C72.0907 16.6157 72.0149 16.3874 71.8881 16.187C71.7508 15.9683 71.5767 15.7749 71.3735 15.6154C71.1504 15.4403 70.903 15.2988 70.6389 15.1953C70.3571 15.082 70.0638 14.9997 69.7642 14.9498C69.3321 14.9198 68.9057 14.8348 68.495 14.6972C68.1094 14.5709 67.7443 14.389 67.4113 14.1573C67.1076 13.948 66.8485 13.6804 66.6493 13.37C66.4527 13.064 66.3493 12.7075 66.3518 12.3438C66.3503 11.9804 66.446 11.6232 66.629 11.3093C66.8188 10.9863 67.0733 10.706 67.3766 10.486C67.6857 10.2556 68.0514 10.0721 68.467 9.93616C69.3296 9.66711 70.2537 9.66711 71.1163 9.93616C71.5275 10.0719 71.8941 10.2553 72.206 10.486C72.5247 10.725 72.7749 11.0004 72.9526 11.3093C73.1369 11.6228 73.2335 11.9801 73.2323 12.3438C73.2324 12.4297 73.2156 12.5147 73.1828 12.5941C73.15 12.6735 73.1018 12.7455 73.041 12.8062C72.9802 12.8669 72.908 12.9149 72.8286 12.9476C72.7492 12.9803 72.6641 12.9969 72.5782 12.9966C72.491 12.9983 72.4044 12.9809 72.3246 12.9457C72.2448 12.9104 72.1736 12.8582 72.1161 12.7927C72.0026 12.6677 71.9396 12.4997 71.9254 12.2928C71.9143 12.1328 71.8561 11.9797 71.7579 11.8529C71.6347 11.6901 71.4821 11.5517 71.308 11.445C71.0952 11.3139 70.8643 11.2148 70.6227 11.1509C70.3524 11.0776 70.0735 11.0407 69.7934 11.0411C69.505 11.0398 69.2177 11.0767 68.9389 11.1509C68.6973 11.213 68.4666 11.3118 68.2548 11.4438C68.0806 11.5556 67.9308 11.7016 67.8145 11.8729C67.7144 12.0152 67.6604 12.1848 67.6597 12.3588C67.6597 12.5197 67.7197 12.6642 67.8457 12.8022C67.9959 12.9652 68.1735 13.1005 68.3706 13.2021C68.5995 13.3239 68.8396 13.4234 69.0876 13.4992C69.3252 13.574 69.5688 13.6283 69.8157 13.6617C70.287 13.7122 70.7491 13.8273 71.1891 14.0038C71.6234 14.1826 72.0046 14.407 72.3208 14.6712C72.6398 14.9342 72.9013 15.2601 73.0888 15.6287C73.2753 15.9994 73.3711 16.4091 73.3685 16.8241C73.3702 17.2546 73.2709 17.6795 73.0788 18.0648C72.8896 18.4515 72.6207 18.7938 72.2898 19.0693C71.566 19.6694 70.6539 19.9951 69.7137 19.9893ZM76.3089 19.9893C76.223 19.9897 76.1377 19.9731 76.0582 19.9404C75.9787 19.9078 75.9064 19.8597 75.8455 19.799C75.7846 19.7382 75.7364 19.666 75.7035 19.5866C75.6707 19.5071 75.6539 19.4219 75.6541 19.3359V10.4068C75.6531 10.3204 75.6696 10.2347 75.7026 10.1549C75.7356 10.075 75.7844 10.0027 75.8461 9.94216C75.9061 9.8804 75.9781 9.8316 76.0577 9.7988C76.1373 9.766 76.2228 9.74989 76.3089 9.75146H81.7575C81.8435 9.75112 81.9287 9.76787 82.0082 9.80072C82.0877 9.83357 82.1599 9.88188 82.2206 9.94284C82.2813 10.0038 82.3292 10.0762 82.3617 10.1558C82.3942 10.2355 82.4106 10.3208 82.4098 10.4068C82.4114 10.4925 82.3954 10.5775 82.3627 10.6568C82.3301 10.736 82.2816 10.8077 82.2201 10.8674C82.1599 10.9289 82.0879 10.9775 82.0084 11.0103C81.9289 11.0431 81.8435 11.0595 81.7575 11.0584H76.9628V14.1846H80.3574C80.5308 14.1846 80.6972 14.2535 80.8199 14.3761C80.9425 14.4988 81.0114 14.6652 81.0114 14.8386C81.0114 15.0121 80.9425 15.1785 80.8199 15.3011C80.6972 15.4238 80.5308 15.4927 80.3574 15.4927H76.9628V18.6804H81.7585C81.8445 18.6798 81.9298 18.6964 82.0093 18.7291C82.0889 18.7618 82.1611 18.81 82.2218 18.871C82.2825 18.9319 82.3305 19.0043 82.363 19.0839C82.3954 19.1636 82.4117 19.2489 82.4108 19.3349C82.4124 19.4209 82.3965 19.5063 82.3638 19.5859C82.3312 19.6654 82.2826 19.7375 82.2211 19.7976C82.1609 19.8589 82.0888 19.9075 82.0093 19.9403C81.9298 19.973 81.8445 19.9894 81.7585 19.9883L76.3089 19.9893ZM91.0258 19.9893C90.9398 19.9896 90.8546 19.9729 90.775 19.9403C90.6955 19.9076 90.6231 19.8595 90.5622 19.7988C90.5013 19.7381 90.4529 19.666 90.4199 19.5865C90.3869 19.5071 90.37 19.4219 90.37 19.3359V13.516C90.3725 13.1904 90.307 12.8678 90.1778 12.569C89.923 11.9781 89.4514 11.5075 88.8601 11.2538C88.5615 11.1255 88.24 11.0594 87.915 11.0594C87.59 11.0594 87.2684 11.1255 86.9699 11.2538C86.6796 11.3785 86.4164 11.5587 86.1951 11.7842C85.9731 12.0117 85.7943 12.2776 85.6672 12.569C85.5395 12.8683 85.4743 13.1906 85.4755 13.516V19.3349C85.4755 19.5083 85.4067 19.6745 85.2841 19.7971C85.1615 19.9197 84.9953 19.9885 84.8219 19.9885C84.6486 19.9885 84.4824 19.9197 84.3598 19.7971C84.2372 19.6745 84.1684 19.5083 84.1684 19.3349V13.516C84.1669 12.7781 84.3828 12.0562 84.7893 11.4403C85.1957 10.8244 85.7745 10.342 86.4535 10.0531C86.9159 9.85446 87.4139 9.75215 87.9172 9.75245C88.4204 9.75275 88.9183 9.85565 89.3805 10.0549C89.8258 10.244 90.2304 10.5173 90.5722 10.8597C90.9145 11.2025 91.1883 11.6076 91.3787 12.0531C91.5788 12.5147 91.6809 13.0129 91.6786 13.516V19.3349C91.6792 19.4209 91.6627 19.5061 91.6302 19.5857C91.5976 19.6652 91.5495 19.7376 91.4888 19.7984C91.4281 19.8593 91.3559 19.9075 91.2764 19.9402C91.197 19.973 91.1118 19.9897 91.0258 19.9893ZM97.4516 19.9893C96.9699 19.9921 96.4915 19.9105 96.038 19.7481C95.6126 19.5956 95.2181 19.368 94.873 19.0763C94.5448 18.7987 94.2759 18.4578 94.0822 18.074C93.8913 17.6908 93.7927 17.2682 93.7943 16.8401C93.7937 16.7585 93.8095 16.6775 93.8408 16.6021C93.872 16.5266 93.9181 16.4583 93.9763 16.401C94.0635 16.3137 94.1746 16.2542 94.2955 16.23C94.4165 16.2058 94.5419 16.218 94.656 16.2649C94.7701 16.3119 94.8677 16.3916 94.9366 16.4939C95.0054 16.5963 95.0425 16.7167 95.043 16.8401C95.0416 17.0927 95.1026 17.3416 95.2207 17.5649C95.3437 17.7975 95.514 18.0018 95.7205 18.1647C95.9501 18.344 96.2083 18.483 96.4843 18.5759C96.7913 18.6774 97.1128 18.7281 97.4361 18.7258C97.7622 18.7272 98.0864 18.6759 98.3961 18.5739C98.6788 18.4801 98.9443 18.3409 99.1821 18.1617C99.3948 18.0023 99.5704 17.7987 99.6967 17.5649C99.8133 17.3465 99.8653 17.0994 99.8467 16.8526C99.8276 16.6164 99.7519 16.3882 99.6258 16.1875C99.4884 15.9685 99.3141 15.7749 99.1106 15.6154C98.8882 15.4398 98.6406 15.2984 98.3763 15.196C98.094 15.0821 97.8 14.9998 97.4996 14.9506C97.0681 14.9208 96.6423 14.8359 96.2324 14.6979C95.8464 14.5722 95.481 14.3903 95.1479 14.1583C94.8446 13.9488 94.5858 13.6812 94.3864 13.371C94.1897 13.065 94.0861 12.7085 94.0882 12.3448C94.0885 11.9816 94.1841 11.6249 94.3654 11.3103C94.5561 10.9873 94.8113 10.707 95.1152 10.487C95.4259 10.2566 95.7913 10.0731 96.2037 9.93716C97.0663 9.66844 97.9903 9.66844 98.853 9.93716C99.2654 10.0729 99.6313 10.2563 99.9432 10.487C100.246 10.7068 100.5 10.9871 100.689 11.3103C100.873 11.6241 100.97 11.9812 100.969 12.3448C100.97 12.4311 100.953 12.5167 100.92 12.5964C100.886 12.676 100.837 12.7481 100.775 12.8082C100.716 12.87 100.644 12.9188 100.565 12.9514C100.486 12.984 100.401 12.9998 100.315 12.9976C100.228 12.9994 100.141 12.9819 100.061 12.9465C99.9805 12.911 99.9091 12.8584 99.8514 12.7924C99.7392 12.6702 99.675 12.502 99.6625 12.2963C99.6512 12.1363 99.5928 11.9832 99.4945 11.8564C99.3706 11.6934 99.2176 11.5546 99.0432 11.4473C98.8308 11.3158 98.6001 11.2166 98.3586 11.1531C98.088 11.0785 97.8083 11.0415 97.5276 11.0434C97.2392 11.0425 96.9519 11.0793 96.673 11.1531C96.432 11.2146 96.202 11.3135 95.9915 11.446C95.8172 11.558 95.6674 11.704 95.5508 11.8752C95.4507 12.0175 95.3966 12.187 95.3956 12.361C95.3956 12.5225 95.4574 12.6665 95.5803 12.8044C95.7323 12.9669 95.9109 13.1021 96.1084 13.2043C96.3376 13.3266 96.5782 13.4261 96.8267 13.5015C97.0634 13.5758 97.3058 13.6301 97.5516 13.6639C98.0234 13.7141 98.4859 13.8292 98.9262 14.0061C99.3356 14.1694 99.7176 14.3944 100.059 14.6734C100.376 14.9366 100.637 15.2616 100.824 15.6287C101.012 15.9998 101.109 16.4104 101.106 16.8264C101.108 17.2563 101.009 17.6808 100.818 18.066C100.627 18.4521 100.358 18.7942 100.028 19.0705C99.3042 19.6694 98.3929 19.9943 97.4536 19.9885L97.4516 19.9893ZM107.301 19.9893C107.215 19.9897 107.129 19.9731 107.05 19.9404C106.97 19.9078 106.898 19.8597 106.837 19.799C106.776 19.7382 106.728 19.666 106.695 19.5866C106.662 19.5071 106.646 19.4219 106.646 19.3359V16.0076L102.621 10.8064C102.567 10.7412 102.527 10.666 102.503 10.5852C102.479 10.5045 102.471 10.4197 102.48 10.3358C102.485 10.2509 102.508 10.1681 102.548 10.0929C102.588 10.0176 102.643 9.95161 102.71 9.89917C102.828 9.80174 102.977 9.74869 103.13 9.74921C103.357 9.76495 103.507 9.84643 103.62 9.98565L107.304 14.7224L111.058 9.98615C111.11 9.91829 111.177 9.86232 111.252 9.82191C111.328 9.7815 111.411 9.75758 111.497 9.75171H111.508C111.708 9.75171 111.848 9.8017 111.969 9.89692C112.037 9.94958 112.093 10.016 112.134 10.0917C112.174 10.1675 112.199 10.251 112.205 10.3368C112.218 10.5066 112.166 10.675 112.059 10.8072L107.955 16.0088V19.3349C107.956 19.4212 107.94 19.5068 107.908 19.5866C107.875 19.6664 107.826 19.7386 107.764 19.7988C107.704 19.8601 107.632 19.9086 107.552 19.9413C107.472 19.974 107.387 19.9903 107.301 19.9893ZM117.129 19.9893C116.647 19.992 116.168 19.9104 115.714 19.7481C115.29 19.5952 114.896 19.368 114.551 19.0773C114.223 18.7992 113.954 18.4583 113.761 18.0745C113.569 17.6918 113.471 17.2693 113.473 16.8413C113.473 16.718 113.51 16.5974 113.578 16.4949C113.647 16.3923 113.744 16.3125 113.858 16.2654C113.972 16.2184 114.098 16.2063 114.219 16.2306C114.339 16.255 114.45 16.3147 114.537 16.4022C114.596 16.4594 114.642 16.5277 114.673 16.6032C114.705 16.6786 114.72 16.7596 114.72 16.8413C114.719 17.0943 114.78 17.3437 114.897 17.5677C115.022 17.7998 115.193 18.0039 115.4 18.1675C115.629 18.3459 115.887 18.4843 116.163 18.5769C116.469 18.6784 116.79 18.729 117.113 18.7268C117.439 18.7282 117.763 18.6769 118.073 18.5749C118.356 18.481 118.622 18.3418 118.86 18.1627C119.073 18.0031 119.248 17.7991 119.375 17.5649C119.492 17.3467 119.544 17.0992 119.525 16.8521C119.505 16.6162 119.43 16.3883 119.305 16.187C119.166 15.9689 118.992 15.7757 118.789 15.6154C118.566 15.4404 118.319 15.299 118.055 15.196C117.772 15.0828 117.479 15.0005 117.179 14.9506C116.747 14.921 116.32 14.8361 115.91 14.6979C115.524 14.572 115.158 14.3901 114.825 14.1581C114.521 13.9486 114.263 13.681 114.064 13.3708C113.868 13.0647 113.765 12.7082 113.768 12.3448C113.767 11.9818 113.862 11.6249 114.043 11.3103C114.234 10.9874 114.489 10.7072 114.792 10.487C115.102 10.2566 115.467 10.0731 115.881 9.93716C116.744 9.66822 117.669 9.66822 118.532 9.93716C118.922 10.0604 119.289 10.2461 119.619 10.487C119.924 10.7058 120.179 10.9858 120.369 11.3091C120.551 11.6233 120.647 11.9802 120.647 12.3435C120.647 12.517 120.578 12.6831 120.455 12.8055C120.332 12.9279 120.165 12.9966 119.992 12.9964C119.905 12.9984 119.819 12.9811 119.739 12.9459C119.659 12.9106 119.588 12.8582 119.531 12.7924C119.418 12.67 119.352 12.502 119.338 12.2951C119.328 12.1351 119.27 11.9819 119.172 11.8552C119.049 11.6909 118.895 11.552 118.719 11.446C118.508 11.3149 118.277 11.2158 118.037 11.1519C117.766 11.0773 117.486 11.0404 117.205 11.0421C116.917 11.041 116.63 11.0779 116.352 11.1519C116.11 11.2133 115.88 11.3121 115.67 11.4448C115.495 11.5557 115.345 11.7018 115.229 11.8739C115.128 12.0161 115.074 12.1857 115.073 12.3598C115.073 12.5207 115.132 12.6652 115.258 12.8032C115.41 12.9658 115.588 13.1011 115.786 13.2031C116.014 13.3252 116.255 13.4247 116.503 13.5002C116.74 13.5745 116.983 13.6288 117.229 13.6627C117.701 13.713 118.164 13.8282 118.604 14.0048C119.037 14.1836 119.417 14.4067 119.736 14.6722C120.055 14.9352 120.316 15.2611 120.504 15.6297C120.69 16.0005 120.786 16.4101 120.784 16.8251C120.786 17.2552 120.687 17.6797 120.495 18.0648C120.305 18.4511 120.035 18.7933 119.704 19.0693C118.981 19.6689 118.069 19.9946 117.129 19.9893Z" fill="black"></path>
  </g>
  <defs>
    <clipPath id="clip0_3551_3931">
      <rect width="121" height="28" fill="white" transform="translate(0.28125 0.863281)"></rect>
    </clipPath>
  </defs>
</svg>
