<?xml version="1.0" encoding="UTF-8"?>
<svg xmlns="http://www.w3.org/2000/svg" width="114" height="27" viewBox="0 0 114 27" fill="none">
  <g clip-path="url(#clip0_3551_5115)">
    <path d="M31.7954 12.0963C31.7849 12.2298 31.7771 12.4149 31.772 12.6517C31.7666 12.8884 31.7641 13.1326 31.7641 13.3847C31.7641 13.6375 31.7666 13.8838 31.772 14.1257C31.7771 14.3676 31.7849 14.5555 31.7954 14.6891C31.8161 14.9258 31.8629 15.1518 31.9357 15.3682C32.0083 15.5845 32.1229 15.7747 32.2789 15.9394C32.4348 16.1041 32.6322 16.2352 32.8715 16.3328C33.1106 16.4305 33.4069 16.4793 33.7603 16.4793C34.1137 16.4793 34.4049 16.4385 34.6339 16.3562C34.8625 16.2738 35.0495 16.1733 35.1953 16.0552C35.3408 15.9371 35.4526 15.8054 35.5306 15.6617C35.6086 15.5175 35.6683 15.3835 35.7099 15.2603C35.7619 15.0956 35.8192 14.9798 35.8816 14.9128C35.9439 14.8463 36.0633 14.8128 36.2403 14.8128H38.2833C38.3769 14.8128 38.4574 14.8463 38.5251 14.9128C38.5926 14.9798 38.6264 15.0592 38.6264 15.1518C38.616 15.677 38.4861 16.1711 38.2366 16.6338C37.9871 17.0972 37.6439 17.498 37.2072 17.8377C36.7705 18.1772 36.2582 18.4475 35.671 18.6479C35.0834 18.8489 34.4466 18.9489 33.7603 18.9489C33.0118 18.9489 32.3436 18.8381 31.7563 18.6173C31.1688 18.3964 30.667 18.0954 30.2513 17.7144C29.8354 17.3339 29.5156 16.8882 29.2922 16.3795C29.0684 15.8701 28.9413 15.3323 28.91 14.7663C28.8891 14.3444 28.8789 13.8918 28.8789 13.408C28.8789 12.9242 28.8891 12.4615 28.91 12.0191C28.9308 11.453 29.0556 10.9152 29.2844 10.4059C29.513 9.89654 29.8327 9.45139 30.2436 9.07099C30.6542 8.68992 31.1559 8.38957 31.7486 8.16755C32.3411 7.94666 33.0118 7.83594 33.7603 7.83594C34.4466 7.83594 35.0834 7.93644 35.671 8.13688C36.2582 8.3379 36.7705 8.60758 37.2072 8.94715C37.6439 9.28671 37.9871 9.68821 38.2366 10.151C38.4861 10.6143 38.616 11.1083 38.6264 11.633C38.6264 11.7256 38.5926 11.8056 38.5251 11.8721C38.4574 11.939 38.3769 11.9726 38.2833 11.9726H36.2403C36.0633 11.9726 35.9439 11.939 35.8816 11.8721C35.8192 11.8056 35.7619 11.6897 35.7099 11.525C35.6683 11.4014 35.6086 11.2678 35.5306 11.1236C35.4526 10.9795 35.3408 10.8483 35.1953 10.7301C35.0495 10.612 34.8625 10.5115 34.6339 10.4292C34.4049 10.3468 34.1137 10.3054 33.7603 10.3054C33.4069 10.3054 33.1106 10.3543 32.8715 10.4525C32.6322 10.5501 32.4348 10.6813 32.2789 10.8459C32.1229 11.0106 32.0083 11.2008 31.9357 11.4166C31.8629 11.633 31.8161 11.8595 31.7954 12.0963Z" fill="black"></path>
    <path d="M45.0833 10.7695C45.1975 10.7695 45.2962 10.8103 45.3796 10.8927C45.4626 10.9756 45.5044 11.0733 45.5044 11.1863V12.745C45.5044 12.8585 45.4626 12.9562 45.3796 13.0386C45.2962 13.1209 45.1975 13.1618 45.0833 13.1618H43.6639C42.7073 13.1618 42.2292 13.6353 42.2292 14.5819V18.3789C42.2292 18.4919 42.1875 18.5896 42.1045 18.672C42.0211 18.7543 41.9223 18.7957 41.808 18.7957H39.843C39.7284 18.7957 39.6298 18.7543 39.5466 18.672C39.4633 18.5896 39.4219 18.4919 39.4219 18.3789V11.1863C39.4219 11.0733 39.4633 10.9756 39.5466 10.8927C39.6298 10.8103 39.7284 10.7695 39.843 10.7695H41.6521C41.7664 10.7695 41.8651 10.8103 41.9484 10.8927C42.0315 10.9756 42.0732 11.0733 42.0732 11.1863V11.5412C42.3123 11.3146 42.6008 11.1295 42.9389 10.9852C43.2766 10.8417 43.6796 10.7695 44.1475 10.7695H45.0833Z" fill="black"></path>
    <path d="M51.0184 21.3577C50.9871 21.4401 50.935 21.5219 50.8624 21.6048C50.7894 21.6871 50.6909 21.7279 50.566 21.7279H48.523C48.4189 21.7279 48.3304 21.6916 48.2578 21.6201C48.1849 21.548 48.1486 21.4605 48.1486 21.3577C48.1486 21.3163 48.1538 21.2806 48.1642 21.2493L49.3495 18.4868L46.1991 11.2482C46.1887 11.217 46.1836 11.1812 46.1836 11.1397C46.1836 11.037 46.2199 10.9496 46.2927 10.8774C46.3654 10.8059 46.4538 10.7695 46.5578 10.7695H48.601C48.7257 10.7695 48.8244 10.8104 48.8973 10.8927C48.9699 10.9756 49.022 11.0574 49.0533 11.1397L50.7844 15.1526L52.5 11.1397C52.5312 11.0574 52.5831 10.9756 52.6559 10.8927C52.7286 10.8104 52.8275 10.7695 52.9524 10.7695H55.011C55.1148 10.7695 55.2032 10.8059 55.2761 10.8774C55.349 10.9496 55.3851 11.037 55.3851 11.1397C55.3851 11.1812 55.3799 11.217 55.3696 11.2482L51.0184 21.3577Z" fill="black"></path>
    <path d="M61.6339 15.2166C61.6654 14.9287 61.6654 14.6408 61.6339 14.3524C61.6029 13.9924 61.4829 13.6784 61.2752 13.411C61.067 13.1435 60.7187 13.0095 60.2305 13.0095C60.0015 13.0095 59.8036 13.0458 59.6378 13.1174C59.4713 13.1901 59.3337 13.2849 59.2241 13.403C59.1151 13.5217 59.0295 13.6528 58.967 13.7971C58.9045 13.9407 58.8632 14.0901 58.8426 14.2445C58.8213 14.3989 58.8109 14.579 58.8109 14.7845C58.8109 14.9906 58.8213 15.1706 58.8426 15.3251C58.8632 15.4789 58.9045 15.6283 58.967 15.7725C59.0295 15.9167 59.1151 16.0479 59.2241 16.166C59.3337 16.2847 59.4713 16.3795 59.6378 16.4516C59.8036 16.5238 60.0015 16.5595 60.2305 16.5595C60.7187 16.5595 61.067 16.4261 61.2752 16.158C61.4829 15.8906 61.6029 15.5771 61.6339 15.2166ZM60.9321 18.9518C60.6304 18.9518 60.3652 18.9211 60.1369 18.8593C59.9079 18.7979 59.7101 18.7207 59.5442 18.6275C59.3778 18.535 59.2372 18.4351 59.1231 18.3272C59.0083 18.2187 58.9148 18.1187 58.8426 18.0257V21.3134C58.8426 21.4263 58.8006 21.524 58.7174 21.6069C58.6343 21.6892 58.5355 21.7301 58.4214 21.7301H56.4563C56.3415 21.7301 56.2429 21.6892 56.1596 21.6069C56.0765 21.524 56.0352 21.4263 56.0352 21.3134V11.1884C56.0352 11.0755 56.0765 10.9778 56.1596 10.8949C56.2429 10.8126 56.3415 10.7717 56.4563 10.7717H58.3434C58.4575 10.7717 58.5562 10.8126 58.6394 10.8949C58.7226 10.9778 58.7645 11.0755 58.7645 11.1884V11.5433C58.858 11.4406 58.959 11.3327 59.0686 11.2191C59.1776 11.1061 59.3125 11.0055 59.4737 10.9182C59.6349 10.8307 59.8329 10.7586 60.0664 10.7019C60.3005 10.6456 60.589 10.6172 60.9321 10.6172C61.3998 10.6172 61.8416 10.6865 62.2575 10.8256C62.6735 10.9647 63.0379 11.1805 63.3494 11.474C63.6616 11.7671 63.9134 12.135 64.1063 12.5774C64.2984 13.0197 64.4046 13.5449 64.4258 14.1519C64.4361 14.3059 64.4413 14.5143 64.4413 14.7771C64.4413 15.0395 64.4361 15.2478 64.4258 15.4017C64.4046 16.0093 64.2984 16.534 64.1063 16.9763C63.9134 17.4186 63.6616 17.7866 63.3494 18.0802C63.0379 18.3732 62.6735 18.5918 62.2575 18.7359C61.8416 18.8797 61.3998 18.9518 60.9321 18.9518Z" fill="black"></path>
    <path d="M69.2306 15.6617C69.2306 15.8985 69.2822 16.0808 69.3861 16.2097C69.4899 16.338 69.6615 16.4021 69.9007 16.4021H71.1486C71.2628 16.4021 71.3615 16.4436 71.4447 16.5259C71.5279 16.6082 71.5697 16.7059 71.5697 16.819V18.3782C71.5697 18.4912 71.5279 18.5888 71.4447 18.6712C71.3615 18.7535 71.2628 18.795 71.1486 18.795H69.6672C69.1784 18.795 68.7337 18.7251 68.3338 18.5866C67.9333 18.4475 67.5924 18.247 67.3119 17.9847C67.0314 17.7218 66.8128 17.4032 66.6566 17.0274C66.5012 16.652 66.4232 16.2273 66.4232 15.7542V13.161H65.2688C65.1546 13.161 65.0559 13.1201 64.9728 13.0378C64.8895 12.9554 64.8477 12.8578 64.8477 12.7442V11.1856C64.8477 11.0725 64.8895 10.9748 64.9728 10.892C65.0559 10.8096 65.1546 10.7688 65.2688 10.7688H66.4232V8.25273C66.4232 8.13972 66.4645 8.04206 66.5477 7.95972C66.6309 7.87739 66.7296 7.83594 66.8443 7.83594H68.8094C68.9236 7.83594 69.0223 7.87739 69.1054 7.95972C69.1887 8.04206 69.2306 8.13972 69.2306 8.25273V10.7688H70.9926C71.1068 10.7688 71.2054 10.8096 71.2892 10.892C71.3724 10.9748 71.4137 11.0725 71.4137 11.1856V12.7442C71.4137 12.8578 71.3724 12.9554 71.2892 13.0378C71.2054 13.1201 71.1068 13.161 70.9926 13.161H69.2306V15.6617Z" fill="black"></path>
    <path d="M75.1549 15.3092C75.1859 15.7004 75.3288 16.0065 75.5835 16.228C75.8383 16.4493 76.1739 16.5595 76.5899 16.5595C77.0053 16.5595 77.341 16.4493 77.5957 16.228C77.8504 16.0065 77.9933 15.7004 78.0244 15.3092C78.0449 15.1547 78.0559 14.9804 78.0559 14.7845C78.0559 14.5892 78.0449 14.4143 78.0244 14.2598C77.9933 13.8685 77.8504 13.5631 77.5957 13.3417C77.341 13.1202 77.0053 13.0095 76.5899 13.0095C76.1739 13.0095 75.8383 13.1202 75.5835 13.3417C75.3288 13.5631 75.1859 13.8685 75.1549 14.2598C75.1337 14.4143 75.1234 14.5892 75.1234 14.7845C75.1234 14.9804 75.1337 15.1547 75.1549 15.3092ZM80.8317 14.1979C80.8421 14.3524 80.8472 14.5506 80.8472 14.7924C80.8472 15.0343 80.8421 15.232 80.8317 15.3864C80.811 15.8804 80.6963 16.3438 80.4886 16.7759C80.2802 17.208 79.9946 17.5861 79.6308 17.9104C79.2671 18.2346 78.8275 18.4889 78.3129 18.6742C77.7982 18.8593 77.2239 18.9518 76.5899 18.9518C75.9553 18.9518 75.381 18.8593 74.8664 18.6742C74.3516 18.4889 73.9122 18.2346 73.5484 17.9104C73.1841 17.5861 72.8983 17.208 72.6906 16.7759C72.4823 16.3438 72.3681 15.8804 72.3475 15.3864C72.3372 15.232 72.332 15.0343 72.332 14.7924C72.332 14.5506 72.3372 14.3524 72.3475 14.1979C72.3579 13.7039 72.4668 13.2411 72.6751 12.809C72.8829 12.3769 73.1715 11.9988 73.5404 11.6746C73.9093 11.3503 74.3516 11.093 74.8664 10.9028C75.381 10.7127 75.9553 10.6172 76.5899 10.6172C77.2239 10.6172 77.7982 10.7127 78.3129 10.9028C78.8275 11.093 79.2693 11.3503 79.6388 11.6746C80.0078 11.9988 80.2935 12.3769 80.4966 12.809C80.6991 13.2411 80.811 13.7039 80.8317 14.1979Z" fill="black"></path>
    <path d="M89.9849 18.381C89.9849 18.4941 89.9424 18.5918 89.8598 18.6741C89.7764 18.7564 89.6771 18.7979 89.5635 18.7979H87.5988C87.4847 18.7979 87.3858 18.7564 87.3021 18.6741C87.2185 18.5918 87.1775 18.4941 87.1775 18.381V14.4761C87.1775 14.0332 87.0681 13.6783 86.8494 13.4109C86.6315 13.1434 86.289 13.0095 85.8202 13.0095C85.353 13.0095 85.012 13.1434 84.799 13.4109C84.5859 13.6783 84.4798 14.0332 84.4798 14.4761V18.381C84.4798 18.4941 84.438 18.5918 84.3543 18.6741C84.2715 18.7564 84.1726 18.7979 84.0584 18.7979H82.0932C81.9783 18.7979 81.8801 18.7564 81.7965 18.6741C81.7137 18.5918 81.6719 18.4941 81.6719 18.381V11.1884C81.6719 11.0755 81.7137 10.9778 81.7965 10.8949C81.8801 10.8126 81.9783 10.7717 82.0932 10.7717H83.9804C84.0946 10.7717 84.1935 10.8126 84.2763 10.8949C84.36 10.9778 84.4018 11.0755 84.4018 11.1884V11.5433C84.4845 11.4405 84.5883 11.3327 84.7137 11.2191C84.8384 11.1061 84.9888 11.0055 85.1656 10.9182C85.3425 10.8307 85.5476 10.7585 85.7816 10.7018C86.0155 10.6456 86.289 10.6172 86.601 10.6172C87.0995 10.6172 87.557 10.6865 87.9728 10.8256C88.3885 10.9647 88.7447 11.1782 89.0414 11.4661C89.3372 11.7546 89.5688 12.1197 89.7356 12.562C89.9015 13.0043 89.9849 13.529 89.9849 14.1366V18.381Z" fill="black"></path>
    <path d="M94.2242 16.8684C94.4522 16.8684 94.6651 16.8298 94.863 16.7526C95.06 16.6753 95.2321 16.5697 95.3776 16.4363C95.5231 16.3023 95.6376 16.1456 95.721 15.9656C95.8044 15.7856 95.8461 15.5925 95.8461 15.3864L94.4114 15.6028C94.131 15.6543 93.9039 15.7413 93.7317 15.8651C93.5605 15.9883 93.4753 16.1484 93.4753 16.3438C93.4753 16.5391 93.5401 16.6753 93.6696 16.7526C93.8 16.8298 93.9846 16.8684 94.2242 16.8684ZM90.668 16.5136C90.668 15.8344 90.9297 15.2734 91.4559 14.831C91.9802 14.3887 92.8356 14.0645 94.021 13.8583L95.8461 13.5501C95.8461 13.3031 95.7778 13.0998 95.6429 12.9403C95.5081 12.7806 95.2738 12.7012 94.9411 12.7012C94.7015 12.7012 94.5179 12.7347 94.3874 12.8011C94.257 12.8681 94.1612 12.9271 94.0982 12.9788C94.005 13.0612 93.9172 13.1128 93.8338 13.1333C93.7504 13.1537 93.6519 13.1639 93.5374 13.1639H91.557C91.4523 13.1639 91.3671 13.1333 91.2997 13.0714C91.2323 13.0095 91.203 12.9271 91.2136 12.8244C91.234 12.5876 91.3379 12.3412 91.5251 12.0834C91.7132 11.8267 91.9705 11.5894 92.2979 11.3735C92.6244 11.1573 93.0148 10.9778 93.4673 10.8331C93.9198 10.6893 94.4114 10.6172 94.9411 10.6172C95.5746 10.6172 96.1265 10.6945 96.5941 10.8489C97.0626 11.0028 97.4494 11.2168 97.7564 11.4894C98.0625 11.762 98.2888 12.0862 98.4352 12.4616C98.5798 12.8374 98.6526 13.2513 98.6526 13.7039V18.3811C98.6526 18.4941 98.6109 18.5918 98.5283 18.6742C98.4449 18.7564 98.3464 18.7979 98.232 18.7979H96.2676C96.1522 18.7979 96.0537 18.7564 95.9703 18.6742C95.8869 18.5918 95.8461 18.4941 95.8461 18.3811V17.949C95.5968 18.2573 95.2862 18.5021 94.918 18.682C94.5489 18.8615 94.0627 18.9518 93.4593 18.9518C93.0121 18.9518 92.6146 18.8904 92.2659 18.7667C91.9181 18.6434 91.6271 18.4737 91.3929 18.2573C91.1586 18.0416 90.9803 17.7843 90.8552 17.4856C90.7301 17.1876 90.668 16.8633 90.668 16.5136Z" fill="black"></path>
    <path d="M105.107 10.7695C105.221 10.7695 105.32 10.8103 105.402 10.8927C105.487 10.9756 105.528 11.0733 105.528 11.1863V12.745C105.528 12.8585 105.487 12.9562 105.402 13.0386C105.32 13.1209 105.221 13.1618 105.107 13.1618H103.687C102.731 13.1618 102.253 13.6353 102.253 14.5819V18.3789C102.253 18.4919 102.211 18.5896 102.128 18.672C102.044 18.7543 101.946 18.7957 101.832 18.7957H99.8668C99.7523 18.7957 99.6538 18.7543 99.5695 18.672C99.487 18.5896 99.4453 18.4919 99.4453 18.3789V11.1863C99.4453 11.0733 99.487 10.9756 99.5695 10.8927C99.6538 10.8103 99.7523 10.7695 99.8668 10.7695H101.676C101.79 10.7695 101.889 10.8103 101.971 10.8927C102.056 10.9756 102.096 11.0733 102.096 11.1863V11.5412C102.336 11.3146 102.624 11.1295 102.962 10.9852C103.301 10.8417 103.703 10.7695 104.171 10.7695H105.107Z" fill="black"></path>
    <path d="M108.647 21.3577C108.617 21.4401 108.565 21.5219 108.491 21.6048C108.418 21.6871 108.32 21.7279 108.196 21.7279H106.152C106.048 21.7279 105.96 21.6916 105.887 21.6201C105.814 21.548 105.779 21.4605 105.779 21.3577C105.779 21.3163 105.782 21.2806 105.794 21.2493L106.978 18.4868L103.828 11.2482C103.818 11.217 103.812 11.1812 103.812 11.1397C103.812 11.037 103.85 10.9496 103.922 10.8774C103.994 10.8059 104.082 10.7695 104.187 10.7695H106.23C106.355 10.7695 106.454 10.8104 106.526 10.8927C106.599 10.9756 106.652 11.0574 106.682 11.1397L108.413 15.1526L110.129 11.1397C110.161 11.0574 110.212 10.9756 110.285 10.8927C110.358 10.8104 110.456 10.7695 110.582 10.7695H112.641C112.745 10.7695 112.833 10.8059 112.905 10.8774C112.977 10.9496 113.014 11.037 113.014 11.1397C113.014 11.1812 113.01 11.217 112.999 11.2482L108.647 21.3577Z" fill="black"></path>
    <path d="M20.7164 21.5226H19.3647V20.1849H20.7164V21.5226ZM10.215 23.272H8.55142V21.9343H10.215V23.272ZM5.84805 6.91083V5.57359H7.30373V6.91083H5.84805ZM20.6905 16.8688C19.1904 18.6716 17.6547 19.8731 15.0476 19.8731C12.4614 19.8731 10.4421 18.29 9.56331 15.966H6.67983V14.6287H9.19903C9.12312 14.1892 9.0834 13.7332 9.0834 13.2636V13.1932C9.0834 9.58813 11.5476 6.61896 15.0476 6.61896C17.4405 6.61896 19.0833 7.78527 20.5119 9.51715L25.7261 5.52307C25.0655 4.62702 24.3085 3.80993 23.4371 3.10412H21.3577C20.7313 2.59649 20.0453 2.1462 19.2924 1.76633H21.3718C19.6617 0.902666 17.607 0.398438 15.1191 0.398438C10.5988 0.398438 6.79177 2.41422 4.45718 5.57359H3.00156C2.68689 5.99946 2.39921 6.44578 2.13991 6.91083H3.59554C2.55645 8.77556 1.97623 10.9384 1.97623 13.2636V13.3347C1.97623 13.773 1.9975 14.2045 2.03739 14.6287H1.92086H1.06525H0.441406V15.966H1.06525H2.23053C2.68514 18.2713 3.72992 20.3041 5.19972 21.9343H3.53614C3.97099 22.4164 4.44263 22.8638 4.94745 23.272H6.61104C8.84483 25.079 11.7214 26.1294 14.869 26.1294C16.786 26.1294 18.4202 25.841 19.8366 25.3299H17.909V25.0636C18.6098 24.761 19.2547 24.4009 19.8518 23.9922H22.4512C23.8134 23.0597 24.9298 21.8753 25.9047 20.5448L20.6905 16.8688Z" fill="black"></path>
  </g>
  <defs>
    <clipPath id="clip0_3551_5115">
      <rect width="112.684" height="25.731" fill="white" transform="translate(0.441406 0.398438)"></rect>
    </clipPath>
  </defs>
</svg>
