<?xml version="1.0" encoding="UTF-8"?>
<svg xmlns="http://www.w3.org/2000/svg" width="118" height="24" viewBox="0 0 118 24" fill="none">
  <g clip-path="url(#clip0_3551_3939)">
    <path d="M14.0781 19.3975H12.6933L11.0356 17.8588V17.0696L12.7518 15.4124V12.7886L14.9947 11.3089L17.5496 13.262L14.0781 19.3975ZM8.34411 15.2546L8.59772 12.7886L7.75905 10.579H12.7128L11.8937 12.7886L12.1277 15.2546H10.2165H8.34411ZM9.47534 17.8588L7.81756 19.4173H6.41334L2.92229 13.262L5.4967 11.3286L7.75905 12.7886V15.4124L9.47534 17.0696V17.8588ZM6.39383 6.02174H14.0585L14.9752 9.96736H5.4967L6.39383 6.02174ZM10.2359 1.10938L0.503906 6.79114V18.1547L10.2359 23.8364L19.9679 18.1547V6.79114L10.2359 1.10938Z" fill="black"></path>
    <path d="M30.8919 17.7397C28.3175 17.7397 26.4258 15.7077 26.4258 13.2022C26.4258 10.6967 28.3371 8.60547 30.9115 8.60547C32.5497 8.60547 33.5639 9.21704 34.3635 10.1048L33.1348 11.4464C32.5302 10.7953 31.8866 10.3613 30.8919 10.3613C29.4487 10.3613 28.3956 11.6239 28.3956 13.1627C28.3956 14.741 29.4682 16.0036 30.9895 16.0036C31.9256 16.0036 32.6082 15.5499 33.2323 14.9185L34.422 16.1219C33.5639 17.0492 32.5692 17.7397 30.8919 17.7397Z" fill="black"></path>
    <path d="M38.1846 17.7404H36.1953V8.62587H38.1846V10.7565C38.7307 9.45445 39.7253 8.54696 41.2466 8.62587V10.7565H41.1296C39.3938 10.7565 38.1846 11.9007 38.1846 14.2287V17.7404Z" fill="black"></path>
    <path d="M51.643 8.58984L47.2548 20.1901H45.246L46.2017 17.7438L42.4375 8.58984H44.5634L47.1182 15.3567L49.5756 8.58984H51.643Z" fill="black"></path>
    <path d="M57.4936 10.3457C56.1479 10.3457 54.9777 11.4504 54.9777 13.1668C54.9777 14.8831 56.1673 15.988 57.4936 15.988C58.8588 15.988 59.9705 14.9029 59.9705 13.1668C59.9705 11.4307 58.8392 10.3457 57.4936 10.3457ZM57.9421 17.7241C56.5184 17.7241 55.6212 16.9941 55.0166 16.1852V20.1901H53.0273V8.58984H55.0166V10.2273C55.6603 9.31978 56.5574 8.58984 57.9421 8.58984C59.9899 8.58984 61.9793 10.2273 61.9793 13.1471C61.9793 16.0669 60.0095 17.7241 57.9421 17.7241Z" fill="black"></path>
    <path d="M66.3277 10.506V14.8068C66.3277 15.5762 66.7177 15.8919 67.4003 15.8919H68.1804V17.6871H66.8152C65.372 17.6871 64.3383 17.0361 64.3383 15.1225V10.506H63.2461V8.78967H64.3383V6.38281H66.3277V8.78967H68.1804V10.506H66.3277Z" fill="black"></path>
    <path d="M74.4426 10.3415C72.8434 10.3415 71.8292 11.6042 71.8292 13.143C71.8292 14.7015 72.9214 15.9839 74.4621 15.9839C76.0614 15.9839 77.0756 14.7212 77.0756 13.1825C77.1145 11.6239 76.0029 10.3415 74.4426 10.3415ZM74.4426 17.7397C71.8097 17.7397 69.8594 15.7077 69.8594 13.2022C69.8594 10.6769 71.8292 8.60547 74.4816 8.60547C77.1341 8.60547 79.0843 10.6375 79.0843 13.1627C79.0843 15.6485 77.1341 17.7397 74.4426 17.7397Z" fill="black"></path>
    <path d="M98.0598 10.3415C96.4606 10.3415 95.4465 11.6042 95.4465 13.143C95.4465 14.7015 96.5386 15.9839 98.0787 15.9839C99.678 15.9839 100.692 14.7212 100.692 13.1825C100.712 11.6239 99.6196 10.3415 98.0598 10.3415ZM98.0598 17.7397C95.4267 17.7397 93.4766 15.7077 93.4766 13.2022C93.4766 10.6769 95.4465 8.60547 98.0985 8.60547C100.751 8.60547 102.701 10.6375 102.701 13.1627C102.701 15.6485 100.732 17.7397 98.0598 17.7397Z" fill="black"></path>
    <path d="M114.482 8.58984C116.374 8.58984 117.524 9.79331 117.524 11.9437V17.7241H115.535V12.5553C115.535 11.1545 114.891 10.4245 113.78 10.4245C112.707 10.4245 111.927 11.194 111.927 12.5947V17.7438H109.937V12.5553C109.937 11.194 109.275 10.4245 108.183 10.4245C107.09 10.4245 106.329 11.2532 106.329 12.6144V17.7438H104.34V8.60957H106.329V10.1089C106.895 9.3395 107.636 8.60957 108.963 8.60957C110.211 8.60957 111.069 9.22116 111.536 10.1484C112.259 9.20144 113.175 8.58984 114.482 8.58984Z" fill="black"></path>
    <path d="M82.7316 15.8848V16.9106L82.6733 17.0092L81.7954 17.5025H81.6784L80.8202 17.0092L80.7617 16.9106V15.8848L80.8202 15.7861L81.6784 15.293H81.7954L82.6733 15.7861L82.7316 15.8848Z" fill="black"></path>
    <path d="M88.7563 17.7214C86.1823 17.6622 84.3292 15.5908 84.3678 13.0852C84.4072 10.5798 86.3574 8.528 88.951 8.58719C90.5897 8.62664 91.6039 9.25794 92.3838 10.1655L91.1354 11.4873C90.5503 10.8362 89.9068 10.3627 88.9124 10.343C87.4693 10.3233 86.3968 11.5465 86.3771 13.1049C86.3377 14.6832 87.3912 15.9656 88.9124 15.9853C89.8485 16.005 90.5503 15.571 91.1749 14.9397L92.3451 16.1628C91.4674 17.0901 90.4533 17.7609 88.7563 17.7214Z" fill="black"></path>
  </g>
  <defs>
    <clipPath id="clip0_3551_3939">
      <rect width="117.52" height="23.0108" fill="white" transform="translate(0.0195312 0.9375)"></rect>
    </clipPath>
  </defs>
</svg>
