<?xml version="1.0" encoding="UTF-8"?>
<svg xmlns="http://www.w3.org/2000/svg" width="33" height="28" viewBox="0 0 33 28" fill="none">
  <g clip-path="url(#clip0_3551_4544)">
    <path d="M11.3762 8.4381L10.7871 10.1206C9.78735 12.9774 8.7874 15.8345 7.78723 18.6922C7.70638 18.9232 7.6698 18.954 7.42211 18.9546C6.41981 18.9572 5.41793 18.9572 4.41648 18.9546C4.36839 18.9561 4.32026 18.9531 4.27274 18.9456C4.09692 18.9136 4.0366 18.8244 4.09692 18.6543C4.1983 18.3675 4.31317 18.0851 4.42289 17.8015C5.54797 14.8964 6.67327 11.9913 7.79878 9.0862C8.89563 6.25767 9.99333 3.42871 11.0919 0.599319C11.1034 0.56916 11.1156 0.539642 11.1253 0.509483C11.1394 0.454631 11.1713 0.406004 11.216 0.371184C11.2607 0.336363 11.3157 0.317305 11.3723 0.316979C11.4968 0.30992 11.5809 0.367672 11.6386 0.515258C11.9197 1.23095 12.1977 1.94706 12.4728 2.66361C13.4567 5.1944 14.4406 7.72498 15.4245 10.2553C16.494 13.0094 17.5654 15.7633 18.6387 18.517C18.7728 18.8616 18.7112 18.9565 18.3474 18.9572C17.3695 18.9572 16.3918 18.9572 15.4143 18.9572C15.1326 18.9572 15.1075 18.9399 15.0145 18.6761C14.0306 15.8985 13.0467 13.1205 12.0628 10.342C11.857 9.76103 11.6508 9.1801 11.4442 8.59916C11.4333 8.56195 11.4153 8.52858 11.3762 8.4381Z" fill="#2C2C2C"></path>
    <path d="M25.2159 18.7312C26.0214 16.4874 26.827 14.2416 27.6325 11.9935H31.1951C31.19 12.0418 31.1805 12.0895 31.1669 12.136C30.1646 14.7271 29.1616 17.3182 28.158 19.9093C27.2661 22.2189 26.3729 24.5275 25.4784 26.835C25.4558 26.9034 25.4283 26.9701 25.3962 27.0346C25.3754 27.0735 25.3447 27.1062 25.3072 27.1294C25.2697 27.1526 25.2267 27.1655 25.1826 27.1667C25.1384 27.168 25.0948 27.1575 25.056 27.1364C25.0173 27.1154 24.9848 27.0844 24.9618 27.0467C24.9274 26.9833 24.8993 26.9167 24.8777 26.8478L21.3953 17.7898L17.9893 8.93464C17.861 8.5984 17.9136 8.51562 18.2723 8.51562C19.2335 8.51562 20.195 8.51562 21.1566 8.51562C21.4916 8.51562 21.507 8.52653 21.6212 8.84545C22.0734 10.1121 22.5256 11.379 22.9777 12.6461C23.6677 14.5763 24.358 16.5061 25.0484 18.4354C25.0857 18.5387 25.1274 18.6401 25.1665 18.7421L25.2159 18.7312Z" fill="#2C2C2C"></path>
    <path d="M27.9141 11.2618V9.6294C28.2535 9.61849 28.5942 9.58063 28.9286 9.68074C29.0024 9.70318 29.0691 9.74463 29.1219 9.80094C29.1747 9.85724 29.2118 9.92643 29.2295 10.0016C29.3076 10.2645 29.3092 10.5443 29.234 10.8082C29.2084 10.91 29.1549 11.0027 29.0795 11.0758C29.0041 11.1489 28.9099 11.1996 28.8073 11.2221C28.5147 11.2939 28.2214 11.2471 27.9141 11.2618ZM28.326 10.0272V10.8678C28.403 10.8723 28.4646 10.8813 28.5262 10.8794C28.7662 10.8704 28.8394 10.8005 28.8593 10.5669C28.8625 10.5271 28.8593 10.4873 28.8593 10.4475C28.8593 10.0446 28.7636 9.9573 28.3575 9.99837C28.3536 10.0029 28.3478 10.0099 28.326 10.0272Z" fill="#2C2C2C"></path>
    <path d="M32.8409 10.4388V10.4869C32.8319 11.1773 32.2056 11.5341 31.5967 11.1966C31.5373 11.1633 31.4853 11.1182 31.4438 11.0641C31.4023 11.0101 31.3722 10.9482 31.3554 10.8822C31.2704 10.597 31.2722 10.293 31.3605 10.0088C31.3883 9.91159 31.4426 9.82401 31.5174 9.75599C31.5923 9.68796 31.6846 9.64219 31.7841 9.62383C31.9874 9.57664 32.199 9.57862 32.4014 9.6296C32.4966 9.64759 32.5844 9.69339 32.6536 9.76123C32.7228 9.82908 32.7703 9.91591 32.7902 10.0108C32.8223 10.1494 32.8351 10.2925 32.8544 10.4336L32.8409 10.4388ZM31.716 10.4388H31.7109C31.7154 10.5106 31.7167 10.5831 31.7257 10.6537C31.7481 10.8289 31.8104 10.8905 31.9823 10.9104C32.0463 10.9176 32.1109 10.9176 32.1748 10.9104C32.3263 10.8918 32.3898 10.8417 32.4078 10.6871C32.4267 10.5381 32.429 10.3874 32.4148 10.2379C32.3924 10.0274 32.3282 9.98125 32.1229 9.96585C31.8219 9.9466 31.7327 10.0249 31.7148 10.3245C31.7141 10.3579 31.716 10.3983 31.716 10.4381V10.4388Z" fill="#2C2C2C"></path>
    <path d="M8.2741 21.4783H7.86727C7.83519 21.4006 7.8031 21.3217 7.76139 21.2255H7.17361L7.07223 21.4751H6.66797C6.847 20.9194 7.06389 20.4009 7.25639 19.8555H7.68696C7.8769 20.3816 8.06876 20.9142 8.2741 21.4783ZM7.65359 20.8693C7.59456 20.6768 7.5413 20.5023 7.48868 20.329H7.43863C7.38601 20.5036 7.33403 20.6787 7.27692 20.8687L7.65359 20.8693Z" fill="#2C2C2C"></path>
    <path d="M1.80431 21.2184H1.22679L1.11514 21.4751H0.707031C0.911728 20.9226 1.10744 20.3938 1.30636 19.8555H1.73372L2.31701 21.4731H1.91211L1.80431 21.2184ZM1.70035 20.8706C1.63619 20.6736 1.58485 20.4959 1.52967 20.3181H1.49309C1.43983 20.4952 1.38593 20.6717 1.32497 20.8712L1.70035 20.8706Z" fill="#2C2C2C"></path>
    <path d="M30.0779 9.62891H30.5033C30.692 10.1493 30.8832 10.6787 31.0879 11.2459L30.6894 11.2633C30.6496 11.1722 30.615 11.0945 30.5758 11.0066H29.9983L29.8886 11.2504H29.4805C29.6832 10.6979 29.8802 10.1647 30.0779 9.62891ZM30.0862 10.6556H30.4751C30.4109 10.4631 30.3589 10.2866 30.3044 10.1121L30.255 10.1159C30.2036 10.2892 30.1491 10.4599 30.0862 10.6582V10.6556Z" fill="#2C2C2C"></path>
    <path d="M3.89844 19.8501C4.20452 19.8366 4.49905 19.8193 4.79102 19.87C4.88801 19.8818 4.97804 19.9264 5.04619 19.9965C5.11435 20.0665 5.15653 20.1577 5.16576 20.255C5.22993 20.6547 5.09197 20.998 4.57605 21.0154C4.48943 21.0154 4.4028 21.0154 4.29628 21.0154C4.28665 21.1758 4.27831 21.3163 4.26869 21.471H3.89844V19.8501ZM4.28922 20.6477C4.33377 20.6563 4.37875 20.6625 4.42397 20.6663C4.47172 20.6669 4.51941 20.6631 4.56643 20.6547C4.71658 20.6271 4.76984 20.5578 4.75893 20.4083C4.75187 20.2755 4.70118 20.2235 4.54269 20.2081C4.4571 20.2048 4.37139 20.2065 4.28601 20.2133L4.28922 20.6477Z" fill="#2C2C2C"></path>
    <path d="M10.981 21.0793V21.3956C10.744 21.5054 10.4775 21.534 10.2226 21.4771C10.1262 21.4628 10.0366 21.4194 9.96571 21.3526C9.89481 21.2858 9.84606 21.199 9.82601 21.1037C9.75608 20.8471 9.75101 20.5772 9.81125 20.3182C9.83326 20.1992 9.89086 20.0897 9.97645 20.0041C10.062 19.9185 10.1716 19.8609 10.2906 19.8389C10.5043 19.7901 10.7167 19.812 10.9432 19.8241V20.1784C10.8091 20.1784 10.6756 20.1745 10.5428 20.1784C10.2989 20.1867 10.2142 20.2663 10.1975 20.512C10.1894 20.6239 10.1916 20.7362 10.204 20.8476C10.229 21.0485 10.3015 21.1159 10.5023 21.1159C10.6525 21.1165 10.8027 21.094 10.981 21.0793Z" fill="#2C2C2C"></path>
  </g>
  <defs>
    <clipPath id="clip0_3551_4544">
      <rect width="32.1547" height="26.8518" fill="white" transform="translate(0.703125 0.3125)"></rect>
    </clipPath>
  </defs>
</svg>
