<?xml version="1.0" encoding="UTF-8"?>
<svg xmlns="http://www.w3.org/2000/svg" width="98" height="29" viewBox="0 0 98 29" fill="none">
  <g clip-path="url(#clip0_4372_5616)">
    <path d="M18.1611 19.8909V28.325H9.85334V19.8909H18.1611ZM60.6553 10.2169C63.4038 10.2169 64.736 12.3396 64.736 14.9246C64.736 17.3041 63.5556 19.5467 60.9756 19.5467C59.8964 19.5467 58.7379 19.1604 58.1152 18.2472L58.0584 18.1601H58.0247V22.5768H56.1024V10.4566H57.9235V11.6549H57.9572C58.4968 10.6449 59.5423 10.2169 60.6553 10.2169ZM41.0948 10.2169C43.8098 10.2169 45.4883 12.6724 45.22 15.2898L45.2092 15.3868H38.8014C38.8014 16.7734 39.5434 18.006 41.1453 18.006C42.2245 18.006 42.8915 17.5392 43.2384 16.6212L43.27 16.5338H45.0911C44.6696 18.4682 43.0508 19.5467 41.1453 19.5467C38.4136 19.5467 36.8791 17.6123 36.8791 14.8904C36.8791 12.3739 38.4979 10.2169 41.0948 10.2169ZM50.4703 10.2169C53.1853 10.2169 54.8638 12.6724 54.5956 15.2898L54.5847 15.3868H48.177C48.177 16.7734 48.9189 18.006 50.5209 18.006C51.6001 18.006 52.267 17.5392 52.6139 16.6212L52.6456 16.5338H54.4667C54.0451 18.4682 52.4263 19.5467 50.5209 19.5467C47.7891 19.5467 46.2547 17.6123 46.2547 14.8904C46.2547 12.3739 47.8734 10.2169 50.4703 10.2169ZM70.2331 10.2169C72.2229 10.2169 73.9192 11.2101 74.1516 13.3104L74.1621 13.4181H72.2398C72.088 12.3396 71.3123 11.7576 70.25 11.7576L70.1571 11.7592C70.1414 11.7597 70.1257 11.7603 70.1098 11.7612L70.0141 11.7678C69.998 11.7692 69.9818 11.7707 69.9656 11.7724L69.8677 11.7848C69.8348 11.7895 69.8018 11.795 69.7686 11.8012L69.669 11.8221C68.7861 12.0271 67.8555 12.7845 67.8555 14.976C67.8555 16.4482 68.4963 18.006 70.1657 18.006C71.2515 18.006 72.0162 17.2891 72.2251 16.0777L72.2398 15.986H74.1621C73.808 18.2799 72.4084 19.5467 70.1657 19.5467C67.4339 19.5467 65.9332 17.578 65.9332 14.976C65.9332 12.3054 67.3665 10.2169 70.2331 10.2169ZM79.7267 10.2169C82.5259 10.2169 84.1278 12.1685 84.1278 14.8732C84.1278 17.5952 82.5259 19.5467 79.7267 19.5467C76.9275 19.5467 75.3256 17.5952 75.3256 14.8732C75.3256 12.1685 76.9275 10.2169 79.7267 10.2169ZM30.387 7.08414C34.0556 7.08414 35.6629 9.76264 35.6982 13.0834L35.6987 13.1956C35.6987 16.5305 34.1322 19.2461 30.5099 19.306L30.387 19.307H25.3957V7.08414H30.387ZM87.7027 10.4566V19.307H85.7804V10.4566H87.7027ZM94.3634 10.2169C96.2188 10.2169 97.407 11.2083 97.4481 13.1262L97.4492 13.2298V19.307H95.5269V13.7434C95.4932 12.3568 94.9536 11.7576 93.8238 11.7576C92.5695 11.7576 91.7513 12.7415 91.7171 14.0031L91.716 14.0858V19.307H89.7936V10.4566H91.6148V11.7576L91.6485 11.7918C92.2218 10.8161 93.2167 10.2169 94.3634 10.2169ZM9.0226 10.6134V19.0475H0.714844V10.6134H9.0226ZM18.1611 10.6134C18.1611 15.2248 14.5156 18.9719 9.99074 19.0464L9.85334 19.0475V10.6134H18.1611ZM60.4023 11.7576C58.7835 11.7576 57.9572 13.0073 57.9572 14.8904C57.9572 16.6707 58.8509 18.006 60.4023 18.006C62.156 18.006 62.8136 16.4311 62.8136 14.8904C62.8136 13.2812 61.9874 11.7576 60.4023 11.7576ZM79.7267 11.7576C78.0067 11.7576 77.248 13.3497 77.248 14.8732C77.248 16.4139 78.0067 18.006 79.7267 18.006C81.4467 18.006 82.2055 16.4139 82.2055 14.8732C82.2055 13.3497 81.4467 11.7576 79.7267 11.7576ZM29.5777 8.83027H27.5036V17.5609H29.5777C32.1261 17.5609 33.1306 16.4209 33.4569 14.7767L33.4856 14.6211C33.49 14.5949 33.4943 14.5686 33.4985 14.5422L33.5214 14.3824C33.5249 14.3555 33.5283 14.3286 33.5315 14.3015L33.5492 14.1377C33.5519 14.1102 33.5544 14.0826 33.5568 14.0549L33.5695 13.8874C33.5714 13.8593 33.5731 13.8311 33.5747 13.8028L33.5828 13.6319L33.5881 13.4589L33.5906 13.2838V13.1073L33.5881 12.9323L33.5828 12.7593L33.5747 12.5884C33.5731 12.5601 33.5714 12.5319 33.5695 12.5038L33.5568 12.3363L33.5408 12.1713C33.5379 12.144 33.5348 12.1168 33.5315 12.0897L33.5104 11.9285C33.5028 11.8753 33.4945 11.8224 33.4856 11.7701L33.4569 11.6145C33.1357 9.99594 32.1574 8.86602 29.696 8.8311L29.5777 8.83027ZM41.0948 11.7576C39.7904 11.7576 38.8902 12.7424 38.8057 14.0209L38.8014 14.1029H43.2869C43.2194 12.8703 42.3932 11.7576 41.0948 11.7576ZM50.4703 11.7576C49.1659 11.7576 48.2657 12.7424 48.1813 14.0209L48.177 14.1029H52.6624C52.595 12.8703 51.7687 11.7576 50.4703 11.7576ZM9.0226 1.33594V9.77001H0.714844V1.33594H9.0226ZM9.85334 1.33594C14.3957 1.33594 18.0866 5.03686 18.16 9.63053L18.1611 9.77001H9.85334V1.33594ZM87.7027 7.08414V8.93298H85.7804V7.08414H87.7027Z" fill="black"></path>
  </g>
  <defs>
    <clipPath id="clip0_4372_5616">
      <rect width="96.7344" height="28.2964" fill="white" transform="translate(0.707031 0.664062)"></rect>
    </clipPath>
  </defs>
</svg>
