<?xml version="1.0" encoding="UTF-8"?>
<svg xmlns="http://www.w3.org/2000/svg" width="99" height="26" viewBox="0 0 99 26" fill="none">
  <g clip-path="url(#clip0_3551_4263)">
    <path d="M93.0805 16.2751C92.5836 16.2751 92.1243 16.1532 91.7212 15.9189C91.3181 15.6845 90.99 15.3471 90.7557 14.9158C90.5213 14.4846 90.3994 13.9878 90.3994 13.4347C90.3994 12.8816 90.5213 12.3848 90.7557 11.9536C90.99 11.5224 91.3087 11.1943 91.7212 10.9506C92.1243 10.7162 92.5836 10.5943 93.0805 10.5943C93.5773 10.5943 94.0366 10.7162 94.4397 10.9506C94.8428 11.1849 95.1709 11.5224 95.4053 11.9536C95.6396 12.3848 95.7615 12.8816 95.7615 13.4347C95.7615 13.9972 95.6396 14.4846 95.4053 14.9158C95.1709 15.3471 94.8428 15.6752 94.4397 15.9189C94.0366 16.1626 93.5773 16.2751 93.0805 16.2751ZM93.0805 18.5999C94.1304 18.5999 95.0772 18.3749 95.9115 17.9343C96.7458 17.4938 97.402 16.8751 97.8801 16.0876C98.3581 15.3002 98.5925 14.419 98.5925 13.4347C98.5925 12.4504 98.3581 11.5693 97.8801 10.7818C97.402 9.99439 96.7458 9.38506 95.9115 8.9351C95.0772 8.49451 94.1304 8.26953 93.0805 8.26953C92.0305 8.26953 91.0837 8.49451 90.2494 8.9351C89.4151 9.37569 88.7589 9.99439 88.2809 10.7818C87.8028 11.5693 87.5684 12.4504 87.5684 13.4347C87.5684 14.419 87.8028 15.3002 88.2809 16.0876C88.7589 16.8751 89.4151 17.4844 90.2494 17.9343C91.0837 18.3843 92.0305 18.5999 93.0805 18.5999ZM83.0126 15.947C82.5438 16.1626 82.0376 16.2751 81.4939 16.2751C80.9502 16.2751 80.4628 16.1532 80.0316 15.9095C79.6097 15.6658 79.2723 15.3377 79.0379 14.9065C78.8035 14.4753 78.6817 13.9878 78.6817 13.4347C78.6817 12.5723 78.9442 11.888 79.4597 11.3724C79.9753 10.8568 80.669 10.6037 81.5127 10.6037C82.4501 10.6037 83.2563 10.9693 83.9219 11.7099L85.7123 10.0975C85.2249 9.50693 84.6062 9.06634 83.8656 8.74762C83.125 8.43827 82.3001 8.27891 81.3721 8.27891C80.3128 8.27891 79.366 8.49451 78.5223 8.9351C77.6786 9.37569 77.0224 9.98501 76.5537 10.7724C76.085 11.5599 75.8413 12.4504 75.8413 13.4347C75.8413 14.4284 76.0756 15.3189 76.5537 16.097C77.0224 16.8844 77.6786 17.4938 78.5129 17.9343C79.3472 18.3749 80.2847 18.5905 81.3252 18.5905C82.0658 18.5905 82.797 18.478 83.5375 18.2624C84.2781 18.0468 84.9249 17.7375 85.4967 17.325V13.2097H83.0126V15.947ZM71.0979 12.1505C71.0979 12.6098 70.948 12.9754 70.6573 13.2191C70.3667 13.4722 69.9262 13.5941 69.3543 13.5941H67.7982V10.6881H69.3543C69.9262 10.6881 70.3667 10.8193 70.6573 11.0724C70.948 11.3255 71.0979 11.6911 71.0979 12.1505ZM71.1261 18.403H74.1352L71.9979 15.2814C72.6259 14.9815 73.104 14.5596 73.4415 14.0253C73.779 13.491 73.9477 12.8629 73.9477 12.1505C73.9477 11.4005 73.7696 10.7537 73.4134 10.2006C73.0571 9.64754 72.5416 9.2257 71.8854 8.92573C71.2198 8.62575 70.4417 8.47576 69.5418 8.47576H64.986V18.403H67.7982V15.7689H69.3262L71.1261 18.403ZM57.571 18.5999C59.0427 18.5999 60.1957 18.1968 61.0113 17.3906C61.8268 16.5845 62.2393 15.4502 62.2393 13.969V8.47576H59.4739V13.8941C59.4739 15.4783 58.8458 16.2751 57.5991 16.2751C56.3429 16.2751 55.7149 15.4783 55.7149 13.8941V8.47576H52.9026V13.9784C52.9026 15.4502 53.3151 16.5938 54.1306 17.4C54.9462 18.1968 56.0992 18.5999 57.571 18.5999ZM50.156 18.403V8.47576H47.8405L44.4377 14.2034L40.9505 8.47576H38.6444V18.403H41.2411V13.2847L43.7815 17.4281H45.0189L47.5687 13.1441V18.403H50.156ZM30.9857 16.2376V14.419H35.3916V12.3192H30.9857V10.6506H35.9915V8.47576H28.2109V18.403H36.179V16.2376H30.9857Z" fill="#0B0B0B"></path>
    <path d="M17.7092 7.57071C18.9465 7.57071 19.9496 6.56764 19.9496 5.33028C19.9496 4.09292 18.9465 3.08984 17.7092 3.08984C16.4718 3.08984 15.4688 4.09292 15.4688 5.33028C15.4688 6.56764 16.4718 7.57071 17.7092 7.57071Z" fill="url(#paint0_linear_3551_4263)"></path>
    <path d="M21.3459 12.3715C22.4797 12.3715 23.3989 11.4524 23.3989 10.3186C23.3989 9.18476 22.4797 8.26562 21.3459 8.26562C20.2121 8.26562 19.293 9.18476 19.293 10.3186C19.293 11.4524 20.2121 12.3715 21.3459 12.3715Z" fill="url(#paint1_linear_3551_4263)"></path>
    <path d="M21.3459 18.5942C22.3762 18.5942 23.2114 17.759 23.2114 16.7287C23.2114 15.6985 22.3762 14.8633 21.3459 14.8633C20.3157 14.8633 19.4805 15.6985 19.4805 16.7287C19.4805 17.759 20.3157 18.5942 21.3459 18.5942Z" fill="url(#paint2_linear_3551_4263)"></path>
    <path d="M17.7131 23.395C18.6399 23.395 19.3911 22.6438 19.3911 21.717C19.3911 20.7903 18.6399 20.0391 17.7131 20.0391C16.7864 20.0391 16.0352 20.7903 16.0352 21.717C16.0352 22.6438 16.7864 23.395 17.7131 23.395Z" fill="url(#paint3_linear_3551_4263)"></path>
    <path d="M11.7092 25.1646C12.5324 25.1646 13.1997 24.4973 13.1997 23.6741C13.1997 22.8509 12.5324 22.1836 11.7092 22.1836C10.8861 22.1836 10.2188 22.8509 10.2188 23.6741C10.2188 24.4973 10.8861 25.1646 11.7092 25.1646Z" fill="url(#paint4_linear_3551_4263)"></path>
    <path d="M5.72098 23.0201C6.44062 23.0201 7.024 22.4367 7.024 21.7171C7.024 20.9974 6.44062 20.4141 5.72098 20.4141C5.00135 20.4141 4.41797 20.9974 4.41797 21.7171C4.41797 22.4367 5.00135 23.0201 5.72098 23.0201Z" fill="url(#paint5_linear_3551_4263)"></path>
    <path d="M2.08428 17.8443C2.70037 17.8443 3.19981 17.3449 3.19981 16.7288C3.19981 16.1127 2.70037 15.6133 2.08428 15.6133C1.46819 15.6133 0.96875 16.1127 0.96875 16.7288C0.96875 17.3449 1.46819 17.8443 2.08428 17.8443Z" fill="url(#paint6_linear_3551_4263)"></path>
    <path d="M2.0843 11.2428C2.59684 11.2428 3.01234 10.8273 3.01234 10.3148C3.01234 9.80222 2.59684 9.38672 2.0843 9.38672C1.57175 9.38672 1.15625 9.80222 1.15625 10.3148C1.15625 10.8273 1.57175 11.2428 2.0843 11.2428Z" fill="url(#paint7_linear_3551_4263)"></path>
    <path d="M5.72103 6.07097C6.13003 6.07097 6.46159 5.73941 6.46159 5.33041C6.46159 4.9214 6.13003 4.58984 5.72103 4.58984C5.31203 4.58984 4.98047 4.9214 4.98047 5.33041C4.98047 5.73941 5.31203 6.07097 5.72103 6.07097Z" fill="url(#paint8_linear_3551_4263)"></path>
    <path d="M11.7131 5.80115C13.054 5.80115 14.141 4.71414 14.141 3.37323C14.141 2.03233 13.054 0.945312 11.7131 0.945312C10.3722 0.945312 9.28516 2.03233 9.28516 3.37323C9.28516 4.71414 10.3722 5.80115 11.7131 5.80115Z" fill="url(#paint9_linear_3551_4263)"></path>
    <path d="M14.839 10.8068C15.5224 10.8068 16.0764 10.2528 16.0764 9.56943C16.0764 8.88603 15.5224 8.33203 14.839 8.33203C14.1556 8.33203 13.6016 8.88603 13.6016 9.56943C13.6016 10.2528 14.1556 10.8068 14.839 10.8068Z" fill="url(#paint10_linear_3551_4263)"></path>
    <path d="M16.853 13.46C17.4795 13.46 17.9873 12.9521 17.9873 12.3257C17.9873 11.6992 17.4795 11.1914 16.853 11.1914C16.2266 11.1914 15.7188 11.6992 15.7188 12.3257C15.7188 12.9521 16.2266 13.46 16.853 13.46Z" fill="url(#paint11_linear_3551_4263)"></path>
    <path d="M16.8554 16.9178C17.4249 16.9178 17.8865 16.4561 17.8865 15.8866C17.8865 15.3171 17.4249 14.8555 16.8554 14.8555C16.2859 14.8555 15.8242 15.3171 15.8242 15.8866C15.8242 16.4561 16.2859 16.9178 16.8554 16.9178Z" fill="url(#paint12_linear_3551_4263)"></path>
    <path d="M14.8382 19.5709C15.3507 19.5709 15.7662 19.1554 15.7662 18.6429C15.7662 18.1303 15.3507 17.7148 14.8382 17.7148C14.3257 17.7148 13.9102 18.1303 13.9102 18.6429C13.9102 19.1554 14.3257 19.5709 14.8382 19.5709Z" fill="url(#paint13_linear_3551_4263)"></path>
    <path d="M11.5202 20.5561C11.9758 20.5561 12.3452 20.1868 12.3452 19.7312C12.3452 19.2756 11.9758 18.9062 11.5202 18.9062C11.0646 18.9062 10.6953 19.2756 10.6953 19.7312C10.6953 20.1868 11.0646 20.5561 11.5202 20.5561Z" fill="url(#paint14_linear_3551_4263)"></path>
    <path d="M8.19447 19.3655C8.59312 19.3655 8.91628 19.0423 8.91628 18.6437C8.91628 18.245 8.59312 17.9219 8.19447 17.9219C7.79582 17.9219 7.47266 18.245 7.47266 18.6437C7.47266 19.0423 7.79582 19.3655 8.19447 19.3655Z" fill="url(#paint15_linear_3551_4263)"></path>
    <path d="M6.17729 16.5069C6.51899 16.5069 6.79599 16.2299 6.79599 15.8882C6.79599 15.5465 6.51899 15.2695 6.17729 15.2695C5.83559 15.2695 5.55859 15.5465 5.55859 15.8882C5.55859 16.2299 5.83559 16.5069 6.17729 16.5069Z" fill="url(#paint16_linear_3551_4263)"></path>
    <path d="M6.17964 12.8398C6.46439 12.8398 6.69523 12.6089 6.69523 12.3242C6.69523 12.0394 6.46439 11.8086 6.17964 11.8086C5.8949 11.8086 5.66406 12.0394 5.66406 12.3242C5.66406 12.6089 5.8949 12.8398 6.17964 12.8398Z" fill="url(#paint17_linear_3551_4263)"></path>
    <path d="M8.19371 9.98118C8.42151 9.98118 8.60618 9.79651 8.60618 9.56872C8.60618 9.34092 8.42151 9.15625 8.19371 9.15625C7.96592 9.15625 7.78125 9.34092 7.78125 9.56872C7.78125 9.79651 7.96592 9.98118 8.19371 9.98118Z" fill="url(#paint18_linear_3551_4263)"></path>
    <path d="M11.5257 9.83258C12.2712 9.83258 12.8756 9.22822 12.8756 8.4827C12.8756 7.73718 12.2712 7.13281 11.5257 7.13281C10.7801 7.13281 10.1758 7.73718 10.1758 8.4827C10.1758 9.22822 10.7801 9.83258 11.5257 9.83258Z" fill="url(#paint19_linear_3551_4263)"></path>
    <path d="M12.9531 12.6718C13.2637 12.6718 13.5155 12.42 13.5155 12.1093C13.5155 11.7987 13.2637 11.5469 12.9531 11.5469C12.6424 11.5469 12.3906 11.7987 12.3906 12.1093C12.3906 12.42 12.6424 12.6718 12.9531 12.6718Z" fill="url(#paint20_linear_3551_4263)"></path>
    <path d="M13.8632 13.871C14.148 13.871 14.3788 13.6402 14.3788 13.3554C14.3788 13.0707 14.148 12.8398 13.8632 12.8398C13.5785 12.8398 13.3477 13.0707 13.3477 13.3554C13.3477 13.6402 13.5785 13.871 13.8632 13.871Z" fill="url(#paint21_linear_3551_4263)"></path>
    <path d="M13.8632 15.4257C14.1221 15.4257 14.332 15.2159 14.332 14.957C14.332 14.6981 14.1221 14.4883 13.8632 14.4883C13.6044 14.4883 13.3945 14.6981 13.3945 14.957C13.3945 15.2159 13.6044 15.4257 13.8632 15.4257Z" fill="url(#paint22_linear_3551_4263)"></path>
    <path d="M12.957 16.6288C13.19 16.6288 13.3788 16.44 13.3788 16.207C13.3788 15.974 13.19 15.7852 12.957 15.7852C12.724 15.7852 12.5352 15.974 12.5352 16.207C12.5352 16.44 12.724 16.6288 12.957 16.6288Z" fill="url(#paint23_linear_3551_4263)"></path>
    <path d="M11.4648 17.0663C11.6719 17.0663 11.8398 16.8985 11.8398 16.6914C11.8398 16.4843 11.6719 16.3164 11.4648 16.3164C11.2577 16.3164 11.0898 16.4843 11.0898 16.6914C11.0898 16.8985 11.2577 17.0663 11.4648 17.0663Z" fill="url(#paint24_linear_3551_4263)"></path>
    <path d="M9.96482 16.5351C10.146 16.5351 10.2929 16.3882 10.2929 16.207C10.2929 16.0258 10.146 15.8789 9.96482 15.8789C9.78361 15.8789 9.63672 16.0258 9.63672 16.207C9.63672 16.3882 9.78361 16.5351 9.96482 16.5351Z" fill="url(#paint25_linear_3551_4263)"></path>
    <path d="M9.05466 15.2382C9.20998 15.2382 9.33589 15.1123 9.33589 14.957C9.33589 14.8017 9.20998 14.6758 9.05466 14.6758C8.89935 14.6758 8.77344 14.8017 8.77344 14.957C8.77344 15.1123 8.89935 15.2382 9.05466 15.2382Z" fill="url(#paint26_linear_3551_4263)"></path>
    <path d="M9.05467 13.5898C9.1841 13.5898 9.28902 13.4849 9.28902 13.3554C9.28902 13.226 9.1841 13.1211 9.05467 13.1211C8.92524 13.1211 8.82031 13.226 8.82031 13.3554C8.82031 13.4849 8.92524 13.5898 9.05467 13.5898Z" fill="url(#paint27_linear_3551_4263)"></path>
    <path d="M9.96483 12.2968C10.0684 12.2968 10.1523 12.2129 10.1523 12.1094C10.1523 12.0058 10.0684 11.9219 9.96483 11.9219C9.86128 11.9219 9.77734 12.0058 9.77734 12.1094C9.77734 12.2129 9.86128 12.2968 9.96483 12.2968Z" fill="url(#paint28_linear_3551_4263)"></path>
    <path d="M11.4648 12.2304C11.8013 12.2304 12.0741 11.9576 12.0741 11.621C12.0741 11.2845 11.8013 11.0117 11.4648 11.0117C11.1283 11.0117 10.8555 11.2845 10.8555 11.621C10.8555 11.9576 11.1283 12.2304 11.4648 12.2304Z" fill="url(#paint29_linear_3551_4263)"></path>
  </g>
  <defs>
    <linearGradient id="paint0_linear_3551_4263" x1="2.20965" y1="20.8292" x2="19.576" y2="3.46273" gradientUnits="userSpaceOnUse">
      <stop stop-color="#FFD363"></stop>
      <stop offset="1" stop-color="#FF1055"></stop>
    </linearGradient>
    <linearGradient id="paint1_linear_3551_4263" x1="6.48261" y1="25.1785" x2="23.849" y2="7.81205" gradientUnits="userSpaceOnUse">
      <stop stop-color="#FFD363"></stop>
      <stop offset="1" stop-color="#FF1055"></stop>
    </linearGradient>
    <linearGradient id="paint2_linear_3551_4263" x1="9.66284" y1="28.4128" x2="27.0292" y2="11.0463" gradientUnits="userSpaceOnUse">
      <stop stop-color="#FFD363"></stop>
      <stop offset="1" stop-color="#FF1055"></stop>
    </linearGradient>
    <linearGradient id="paint3_linear_3551_4263" x1="10.334" y1="29.0927" x2="27.7003" y2="11.7262" gradientUnits="userSpaceOnUse">
      <stop stop-color="#FFD363"></stop>
      <stop offset="1" stop-color="#FF1055"></stop>
    </linearGradient>
    <linearGradient id="paint4_linear_3551_4263" x1="8.32893" y1="27.0552" x2="25.6953" y2="9.68875" gradientUnits="userSpaceOnUse">
      <stop stop-color="#FFD363"></stop>
      <stop offset="1" stop-color="#FF1055"></stop>
    </linearGradient>
    <linearGradient id="paint5_linear_3551_4263" x1="4.3889" y1="23.0469" x2="21.7553" y2="5.68038" gradientUnits="userSpaceOnUse">
      <stop stop-color="#FFD363"></stop>
      <stop offset="1" stop-color="#FF1055"></stop>
    </linearGradient>
    <linearGradient id="paint6_linear_3551_4263" x1="0.11596" y1="18.6976" x2="17.4824" y2="1.33107" gradientUnits="userSpaceOnUse">
      <stop stop-color="#FFD363"></stop>
      <stop offset="1" stop-color="#FF1055"></stop>
    </linearGradient>
    <linearGradient id="paint7_linear_3551_4263" x1="-3.06457" y1="15.4591" x2="14.3018" y2="-1.90736" gradientUnits="userSpaceOnUse">
      <stop stop-color="#FFD363"></stop>
      <stop offset="1" stop-color="#FF1055"></stop>
    </linearGradient>
    <linearGradient id="paint8_linear_3551_4263" x1="-3.73221" y1="14.7827" x2="13.6342" y2="-2.5838" gradientUnits="userSpaceOnUse">
      <stop stop-color="#FFD363"></stop>
      <stop offset="1" stop-color="#FF1055"></stop>
    </linearGradient>
    <linearGradient id="paint9_linear_3551_4263" x1="-1.72903" y1="16.8206" x2="15.6374" y2="-0.545858" gradientUnits="userSpaceOnUse">
      <stop stop-color="#FFD363"></stop>
      <stop offset="1" stop-color="#FF1055"></stop>
    </linearGradient>
    <linearGradient id="paint10_linear_3551_4263" x1="2.88613" y1="21.5215" x2="20.2525" y2="4.15506" gradientUnits="userSpaceOnUse">
      <stop stop-color="#FFD363"></stop>
      <stop offset="1" stop-color="#FF1055"></stop>
    </linearGradient>
    <linearGradient id="paint11_linear_3551_4263" x1="5.25299" y1="23.9314" x2="22.6194" y2="6.56492" gradientUnits="userSpaceOnUse">
      <stop stop-color="#FFD363"></stop>
      <stop offset="1" stop-color="#FF1055"></stop>
    </linearGradient>
    <linearGradient id="paint12_linear_3551_4263" x1="7.01775" y1="25.7235" x2="24.3841" y2="8.357" gradientUnits="userSpaceOnUse">
      <stop stop-color="#FFD363"></stop>
      <stop offset="1" stop-color="#FF1055"></stop>
    </linearGradient>
    <linearGradient id="paint13_linear_3551_4263" x1="7.3855" y1="26.0998" x2="24.7519" y2="8.73336" gradientUnits="userSpaceOnUse">
      <stop stop-color="#FFD363"></stop>
      <stop offset="1" stop-color="#FF1055"></stop>
    </linearGradient>
    <linearGradient id="paint14_linear_3551_4263" x1="6.27731" y1="24.9728" x2="23.6437" y2="7.60634" gradientUnits="userSpaceOnUse">
      <stop stop-color="#FFD363"></stop>
      <stop offset="1" stop-color="#FF1055"></stop>
    </linearGradient>
    <linearGradient id="paint15_linear_3551_4263" x1="4.09488" y1="22.7502" x2="21.4613" y2="5.38369" gradientUnits="userSpaceOnUse">
      <stop stop-color="#FFD363"></stop>
      <stop offset="1" stop-color="#FF1055"></stop>
    </linearGradient>
    <linearGradient id="paint16_linear_3551_4263" x1="1.72491" y1="20.3411" x2="19.0913" y2="2.9746" gradientUnits="userSpaceOnUse">
      <stop stop-color="#FFD363"></stop>
      <stop offset="1" stop-color="#FF1055"></stop>
    </linearGradient>
    <linearGradient id="paint17_linear_3551_4263" x1="-0.0353291" y1="18.5457" x2="17.3311" y2="1.17925" gradientUnits="userSpaceOnUse">
      <stop stop-color="#FFD363"></stop>
      <stop offset="1" stop-color="#FF1055"></stop>
    </linearGradient>
    <linearGradient id="paint18_linear_3551_4263" x1="-0.406445" y1="18.1699" x2="16.9599" y2="0.803434" gradientUnits="userSpaceOnUse">
      <stop stop-color="#FFD363"></stop>
      <stop offset="1" stop-color="#FF1055"></stop>
    </linearGradient>
    <linearGradient id="paint19_linear_3551_4263" x1="0.706711" y1="19.2996" x2="18.0731" y2="1.93306" gradientUnits="userSpaceOnUse">
      <stop stop-color="#FFD363"></stop>
      <stop offset="1" stop-color="#FF1055"></stop>
    </linearGradient>
    <linearGradient id="paint20_linear_3551_4263" x1="3.21389" y1="21.8564" x2="20.5803" y2="4.48989" gradientUnits="userSpaceOnUse">
      <stop stop-color="#FFD363"></stop>
      <stop offset="1" stop-color="#FF1055"></stop>
    </linearGradient>
    <linearGradient id="paint21_linear_3551_4263" x1="4.28245" y1="22.9421" x2="21.6488" y2="5.57557" gradientUnits="userSpaceOnUse">
      <stop stop-color="#FFD363"></stop>
      <stop offset="1" stop-color="#FF1055"></stop>
    </linearGradient>
    <linearGradient id="paint22_linear_3551_4263" x1="5.07701" y1="23.7491" x2="22.4434" y2="6.38265" gradientUnits="userSpaceOnUse">
      <stop stop-color="#FFD363"></stop>
      <stop offset="1" stop-color="#FF1055"></stop>
    </linearGradient>
    <linearGradient id="paint23_linear_3551_4263" x1="5.24665" y1="23.9219" x2="22.613" y2="6.55546" gradientUnits="userSpaceOnUse">
      <stop stop-color="#FFD363"></stop>
      <stop offset="1" stop-color="#FF1055"></stop>
    </linearGradient>
    <linearGradient id="paint24_linear_3551_4263" x1="4.74511" y1="23.4104" x2="22.1115" y2="6.04387" gradientUnits="userSpaceOnUse">
      <stop stop-color="#FFD363"></stop>
      <stop offset="1" stop-color="#FF1055"></stop>
    </linearGradient>
    <linearGradient id="paint25_linear_3551_4263" x1="3.76013" y1="22.4114" x2="21.1265" y2="5.04494" gradientUnits="userSpaceOnUse">
      <stop stop-color="#FFD363"></stop>
      <stop offset="1" stop-color="#FF1055"></stop>
    </linearGradient>
    <linearGradient id="paint26_linear_3551_4263" x1="2.69157" y1="21.3218" x2="20.058" y2="3.95534" gradientUnits="userSpaceOnUse">
      <stop stop-color="#FFD363"></stop>
      <stop offset="1" stop-color="#FF1055"></stop>
    </linearGradient>
    <linearGradient id="paint27_linear_3551_4263" x1="1.89693" y1="20.5147" x2="19.2633" y2="3.14819" gradientUnits="userSpaceOnUse">
      <stop stop-color="#FFD363"></stop>
      <stop offset="1" stop-color="#FF1055"></stop>
    </linearGradient>
    <linearGradient id="paint28_linear_3551_4263" x1="1.73109" y1="20.3457" x2="19.0975" y2="2.97919" gradientUnits="userSpaceOnUse">
      <stop stop-color="#FFD363"></stop>
      <stop offset="1" stop-color="#FF1055"></stop>
    </linearGradient>
    <linearGradient id="paint29_linear_3551_4263" x1="2.23119" y1="20.8535" x2="19.5976" y2="3.48699" gradientUnits="userSpaceOnUse">
      <stop stop-color="#FFD363"></stop>
      <stop offset="1" stop-color="#FF1055"></stop>
    </linearGradient>
    <clipPath id="clip0_3551_4263">
      <rect width="98.3917" height="24.3729" fill="white" transform="translate(0.585938 0.875)"></rect>
    </clipPath>
  </defs>
</svg>
