<?xml version="1.0" encoding="UTF-8"?>
<svg xmlns="http://www.w3.org/2000/svg" width="84" height="19" viewBox="0 0 84 19" fill="none">
  <g clip-path="url(#clip0_3440_5515)">
    <path d="M21.2411 7.05176C20.4001 6.0625 19.2296 5.56787 17.7296 5.56787C16.0814 5.56787 14.7011 6.19018 13.5886 7.43479C12.4762 8.6794 11.9199 10.2329 11.9199 12.0954C11.9199 13.9578 12.4762 15.5114 13.5886 16.756C14.7011 18.0006 16.0814 18.6229 17.7296 18.6229C19.2296 18.6229 20.4001 18.1283 21.2411 17.139V18.276H25.3446V5.91876H21.2411V7.05176ZM20.5233 14.048C20.0456 14.5435 19.4206 14.7909 18.6483 14.79C17.876 14.7891 17.251 14.5418 16.7734 14.048C16.2948 13.5543 16.056 12.9034 16.0569 12.0954C16.0578 11.2874 16.2966 10.636 16.7734 10.1414C17.251 9.64768 17.876 9.40036 18.6483 9.39947C19.4206 9.39858 20.0456 9.64589 20.5233 10.1414C21.0009 10.6369 21.2402 11.2883 21.2411 12.0954C21.242 12.9025 21.0027 13.5534 20.5233 14.048Z" fill="#0B0B0B"></path>
    <path d="M44.4505 2.45166L40.3471 3.68913V5.91898H38.4922V9.84567H40.3471V13.53C40.3471 15.4942 40.8457 16.85 41.843 17.5973C42.8403 18.3446 44.567 18.5709 47.0232 18.2763V14.5679C46.0991 14.6179 45.4398 14.5768 45.0452 14.4447C44.6505 14.3125 44.4523 13.9746 44.4505 13.4309V9.84567H47.0232V5.91898H44.4505V2.45166Z" fill="#0B0B0B"></path>
    <path d="M55.3049 5.59229C53.3924 5.59229 51.8264 6.21459 50.6068 7.4592C49.3872 8.70381 48.7773 10.2493 48.7773 12.0957C48.7773 13.9706 49.3956 15.5242 50.6322 16.7563C51.8688 17.9884 53.4924 18.6022 55.5031 18.5978C57.8923 18.5978 59.6972 17.6996 60.9177 15.9032L58.7173 14.6242C58.0084 15.6456 56.945 16.1568 55.5272 16.1576C54.5058 16.1576 53.6406 15.9063 52.9317 15.4036C52.2228 14.901 51.7683 14.1773 51.5683 13.2327H61.4105C61.4682 12.8644 61.5008 12.4926 61.5083 12.1198C61.5083 10.3073 60.9279 8.76631 59.7672 7.4967C58.6066 6.22709 57.1191 5.59229 55.3049 5.59229ZM51.5469 11.0564C51.7255 10.1181 52.146 9.37657 52.8085 8.83194C53.471 8.28731 54.2951 8.01544 55.2808 8.01633C56.1086 8.00134 56.9163 8.27185 57.5682 8.78238C58.2191 9.29219 58.6351 10.0511 58.8164 11.0591L51.5469 11.0564Z" fill="#0B0B0B"></path>
    <path d="M69.6712 11.9479L74.072 5.91455H70.9569L68.1136 9.82115L65.2704 5.91455H62.1794L66.5802 11.9238L61.9316 18.2772H65.0467L68.1377 14.0492L71.2046 18.2772H74.2943L69.6712 11.9479Z" fill="#0B0B0B"></path>
    <path d="M10.9238 5.2468V0.969224H4.71233V0.963867H0.275391L0.291462 18.2764H4.71769V12.3422H10.7992V8.06458H4.71769V5.2468H10.9238Z" fill="#0B0B0B"></path>
    <path d="M32.0611 18.5185C30.446 18.5185 29.1469 18.1368 28.1987 17.3828C27.2505 16.6288 26.7617 15.6538 26.7617 14.3199H30.6456C30.635 14.4722 30.6658 14.6245 30.7346 14.7608C30.8034 14.897 30.9078 15.0121 31.0366 15.094C31.3282 15.3032 31.6811 15.4096 32.0397 15.3967C32.3771 15.4056 32.7098 15.3162 32.9973 15.1395C33.1139 15.0754 33.2109 14.9809 33.2781 14.8661C33.3453 14.7513 33.3802 14.6204 33.379 14.4873C33.3806 14.4076 33.3697 14.328 33.3468 14.2516C33.3237 14.1854 33.2852 14.1257 33.2343 14.0775C33.17 14.0123 33.1084 13.9547 33.0495 13.9047C32.9718 13.8478 32.886 13.8026 32.7951 13.7708C32.6692 13.7199 32.5634 13.6811 32.479 13.6516C32.3946 13.6222 32.2674 13.5887 32.0933 13.5431L31.6915 13.44C31.6004 13.4173 31.4518 13.3824 31.2442 13.3369L30.4139 13.1307C30.2223 13.0824 29.9478 12.9967 29.5969 12.8869C29.3038 12.7988 29.0195 12.6836 28.7478 12.5427C28.5062 12.4044 28.2744 12.2495 28.0541 12.0793C27.8112 11.9022 27.6029 11.6821 27.4394 11.4298C27.284 11.1688 27.1629 10.8888 27.0791 10.5968C26.9744 10.2453 26.9225 9.88013 26.9251 9.51334C26.9251 8.30801 27.3751 7.36384 28.2644 6.68484C29.1536 6.00584 30.379 5.67236 31.9312 5.67236C33.4834 5.67236 34.7129 6.03396 35.5834 6.74377C36.4539 7.45357 36.8999 8.21694 36.8999 9.46379H33.1232C33.0763 8.95621 32.3718 8.71247 31.8937 8.70309C31.6092 8.69736 31.3279 8.76468 31.0768 8.89862C30.9781 8.94766 30.896 9.02453 30.8405 9.11973C30.7851 9.21494 30.7587 9.32431 30.7647 9.43432C30.7642 9.51949 30.7854 9.6034 30.8264 9.67807C30.8755 9.76451 30.9454 9.83726 31.0299 9.88967C31.1284 9.95688 31.2313 10.0173 31.3379 10.0705C31.4812 10.1371 31.6294 10.1926 31.7812 10.2365C31.9808 10.2995 32.1442 10.3477 32.2727 10.3812C32.4013 10.4147 32.5968 10.4615 32.8647 10.5151C33.237 10.6088 33.5196 10.6798 33.7165 10.7321C33.9133 10.7843 34.1892 10.866 34.5602 10.9919C34.8593 11.0861 35.1493 11.2072 35.4267 11.3535C35.6742 11.4982 35.9138 11.656 36.1445 11.8262C36.4019 12.0045 36.6213 12.2321 36.79 12.4959C36.949 12.763 37.0758 13.048 37.1677 13.3449C37.278 13.6945 37.3326 14.0592 37.3298 14.4257C37.3298 15.7275 36.8383 16.7493 35.87 17.4618C34.9017 18.1743 33.6214 18.5185 32.0611 18.5185Z" fill="#0B0B0B"></path>
    <path d="M81.0621 1.37356C79.9307 1.18472 78.7757 1.18472 77.6443 1.37356C77.1206 1.45972 76.6371 1.70808 76.262 2.08363C75.887 2.45918 75.6392 2.94298 75.5537 3.46681C75.3649 4.59869 75.3649 5.75404 75.5537 6.88592C75.6395 7.40952 75.8873 7.89302 76.2624 8.26831C76.6374 8.64359 77.1208 8.89176 77.6443 8.97784C78.2092 9.06992 78.7808 9.11472 79.3532 9.11176C79.9255 9.11401 80.4971 9.06922 81.0621 8.97784C81.5853 8.89035 82.068 8.64156 82.4428 8.26624C82.8177 7.89093 83.0658 7.40786 83.1527 6.88458C83.3384 5.75424 83.3384 4.60117 83.1527 3.47083C83.0666 2.94682 82.8188 2.46286 82.4439 2.08677C82.069 1.71067 81.5858 1.46129 81.0621 1.37356ZM78.5764 7.77787C78.5051 7.77801 78.4351 7.75844 78.3742 7.72132C78.3133 7.6842 78.2639 7.63097 78.2313 7.56751C78.1988 7.50406 78.1844 7.43284 78.1897 7.36172C78.1951 7.2906 78.22 7.22234 78.2617 7.16449L79.2273 5.8172L77.6202 5.66319C77.5356 5.65462 77.4553 5.62177 77.389 5.56859C77.3227 5.51541 77.2731 5.44418 77.2464 5.36349C77.2196 5.28279 77.2168 5.19608 77.2382 5.11381C77.2596 5.03154 77.3044 4.95722 77.3671 4.89981L79.8594 2.66594C79.9327 2.59946 80.0284 2.56311 80.1273 2.56416C80.2283 2.56559 80.3246 2.60701 80.3951 2.67933C80.4592 2.7445 80.4983 2.83008 80.5056 2.92114C80.513 3.01221 80.4881 3.10295 80.4353 3.17753L79.4697 4.51679L81.0768 4.6708C81.1615 4.67946 81.2419 4.71239 81.3083 4.76563C81.3747 4.81887 81.4243 4.89016 81.4512 4.97092C81.4781 5.05169 81.481 5.13849 81.4598 5.22091C81.4385 5.30332 81.3939 5.37784 81.3313 5.43551L78.8376 7.67608C78.7663 7.74145 78.6731 7.77776 78.5764 7.77787Z" fill="#FF008C"></path>
  </g>
  <defs>
    <clipPath id="clip0_3440_5515">
      <rect width="83.0149" height="17.6594" fill="white" transform="translate(0.277344 0.964355)"></rect>
    </clipPath>
  </defs>
</svg>
