<?xml version="1.0" encoding="UTF-8"?>
<svg xmlns="http://www.w3.org/2000/svg" width="146" height="23" viewBox="0 0 146 23" fill="none">
  <g clip-path="url(#clip0_3551_4072)">
    <path d="M78.683 4.95476V9.68583C79.4724 8.6536 80.6126 8.13748 82.1036 8.13748C82.8053 8.13748 83.4193 8.2235 83.9455 8.48156C84.5595 8.6536 85.0857 8.99768 85.5243 9.42777C86.0505 9.85787 86.4014 10.374 86.6645 10.9761C86.9276 11.5783 87.0153 12.3524 87.0153 13.2126C87.0153 14.1588 86.8399 15.019 86.4891 15.8792C86.1382 16.6534 85.612 17.3416 84.8226 17.8577C84.0332 18.3738 83.1561 18.6318 82.0159 18.6318C80.4372 18.6318 79.297 18.1157 78.5953 17.1695V18.3738H75.5255V4.95476H78.683ZM67.0178 7.87942C72.9819 7.87942 72.4557 14.1588 72.4557 14.1588H64.3865C64.7373 15.3631 65.7898 16.2233 67.2809 16.2233C69.1228 16.2233 70.0876 15.1911 70.0876 15.1911L71.8417 16.9115C70.9646 17.7717 69.7367 18.5458 67.2809 18.5458C63.5094 18.5458 61.4921 16.0513 61.4921 13.4707C61.4921 10.8901 62.8955 7.87942 67.0178 7.87942ZM140.781 7.7934C143.324 7.7934 144.991 8.73962 144.991 8.73962L143.85 10.9761C140.43 9.25573 138.939 10.46 138.939 11.0621C138.939 11.6643 139.553 11.7503 141.921 12.1804C144.289 12.6105 145.342 13.5567 145.342 15.1051C145.342 16.6534 143.938 18.3738 140.605 18.3738C137.272 18.3738 135.781 17.3416 135.781 17.3416L136.834 15.1911C139.465 16.8254 142.447 16.3093 142.447 15.3631C142.447 14.675 141.482 14.5029 140.43 14.3309L139.991 14.2449C139.816 14.2449 139.553 14.1588 139.377 14.1588C138.062 13.9868 136.044 13.2126 136.044 11.2342C135.957 9.16971 138.237 7.7934 140.781 7.7934ZM125.87 4.18059V12.2664L130.343 8.13748H133.939L129.554 12.2664L134.378 18.4598H130.782L127.449 14.2449L125.87 15.7072V18.4598H122.888V4.18059H125.87ZM115.257 7.7934C117.362 7.7934 119.204 8.82564 120.257 10.374L117.713 11.8363C117.275 10.9761 116.31 10.374 115.257 10.374C113.679 10.374 112.451 11.5783 112.451 13.1266C112.451 14.675 113.679 15.8792 115.257 15.8792C116.31 15.8792 117.187 15.3631 117.626 14.5029L120.169 15.8792C119.117 17.3416 117.362 18.3738 115.257 18.3738C112.012 18.3738 109.469 15.9652 109.469 13.0406C109.381 10.1159 112.012 7.7934 115.257 7.7934ZM101.487 7.7934C104.732 7.7934 107.276 10.2019 107.276 13.1266C107.276 16.0513 104.645 18.4598 101.487 18.4598C98.242 18.4598 95.6985 16.0513 95.6985 13.1266C95.6108 10.1159 98.242 7.7934 101.487 7.7934ZM48.7744 8.05146V18.2878H45.5292V8.05146H48.7744ZM42.7225 4.95476V7.53535H35.5304V10.9761H41.8454V13.4707H35.5304V18.2878H32.2852V4.95476H42.7225ZM55.7034 9.34175C55.7034 9.34175 56.8436 7.62137 59.2117 7.87942V10.7181C59.2117 10.7181 56.6681 10.1159 55.7034 12.6965V18.3738H52.6336V8.05146H55.5279L55.7034 9.34175ZM92.541 4.18059V18.2878H89.2957V4.18059H92.541ZM81.2266 10.374C79.4724 10.374 78.5953 11.4062 78.5953 13.5567C78.5953 14.3309 78.8584 15.019 79.297 15.6212C79.7355 16.1373 80.4372 16.3953 81.402 16.3953C82.0159 16.3953 82.5422 16.2233 82.893 15.9652C83.2439 15.6212 83.507 15.2771 83.6824 14.847C83.8578 14.4169 83.9455 13.9008 83.9455 13.4707C83.9455 12.6105 83.7701 11.8363 83.3316 11.3202C82.8053 10.632 82.1036 10.374 81.2266 10.374ZM101.487 10.288C99.9085 10.288 98.6806 11.4922 98.6806 13.0406C98.6806 14.5889 99.9085 15.7932 101.487 15.7932C103.066 15.7932 104.294 14.5889 104.294 13.0406C104.206 11.5783 102.978 10.288 101.487 10.288ZM67.0178 10.0299C65.439 10.0299 64.5619 10.9761 64.2988 12.1804H69.5613C69.5613 11.9223 69.0351 10.0299 67.0178 10.0299ZM47.1956 3.23438C48.2481 3.23438 49.1252 4.00855 49.1252 4.95476C49.1252 5.90098 48.2481 6.67515 47.1956 6.67515C46.1431 6.67515 45.266 5.90098 45.266 4.95476C45.266 4.00855 46.1431 3.23438 47.1956 3.23438Z" fill="#0B0B0B"></path>
    <path d="M21.5124 0.84375C22.0387 0.84375 22.3895 1.18783 22.3895 1.70394V21.4884C22.3895 22.0045 22.0387 22.3486 21.5124 22.3486H1.0763C0.550053 22.3486 0.199219 22.0045 0.199219 21.4884V1.70394C0.199219 1.18783 0.550053 0.84375 1.0763 0.84375H21.5124ZM11.3382 6.77909L5.19861 16.3272H17.5655L11.3382 6.77909Z" fill="#0B0B0B"></path>
  </g>
  <defs>
    <clipPath id="clip0_3551_4072">
      <rect width="145.158" height="21.5049" fill="white" transform="translate(0.203125 0.84375)"></rect>
    </clipPath>
  </defs>
</svg>
