<?xml version="1.0" encoding="UTF-8"?>
<svg xmlns="http://www.w3.org/2000/svg" width="107" height="21" viewBox="0 0 107 21" fill="none">
  <g clip-path="url(#clip0_3551_4600)">
    <path d="M1.20312 17.5016V0.796875H4.69314V7.31015H5.88035V0.796875H9.37036V17.5016H5.87834V10.2806H4.69113V17.5036H1.20312V17.5016Z" fill="black"></path>
    <path d="M10.4375 17.5016V0.796875H17.1614V3.70965H13.9275V7.34401H16.6374V10.2567H13.9275V14.5908H17.1614V17.5036H10.4375V17.5016Z" fill="black"></path>
    <path d="M17.9396 17.5016L19.6846 0.796875H25.0824L27.0596 17.5016H23.4188L23.0695 13.1912L22.9523 11.2805L22.3825 3.75533H22.3587L21.8822 11.2805L21.777 13.3423L21.4971 17.5016H17.9375H17.9396ZM20.4866 13.8194V10.9068H24.6517V13.8194H20.4866Z" fill="black"></path>
    <path d="M28.002 17.5016V0.796875H32.0142C32.9372 0.796875 33.7075 0.950026 34.323 1.2562C34.9404 1.56238 35.4069 1.9978 35.7245 2.56044C36.0422 3.12309 36.201 3.80906 36.201 4.61622V13.6903C36.201 14.4975 36.0422 15.1873 35.7245 15.7579C35.4069 16.3285 34.9146 16.762 34.2475 17.0562C33.5805 17.3524 32.7189 17.4996 31.6647 17.4996H28L28.002 17.5016ZM31.4921 14.5311H31.6667C31.9844 14.5311 32.2205 14.4577 32.3754 14.3106C32.5303 14.1634 32.6078 13.8989 32.6078 13.5193V4.71161C32.6078 4.36176 32.5243 4.11712 32.3576 3.97794C32.1908 3.83889 31.9645 3.76929 31.6767 3.76929H31.4901V14.5332L31.4921 14.5311Z" fill="black"></path>
    <path d="M41.2767 17.7362C40.3376 17.7362 39.5594 17.5733 38.938 17.2472C38.3167 16.9211 37.8542 16.4498 37.5485 15.8316C37.2426 15.2132 37.0898 14.4637 37.0898 13.577V4.72365C37.0898 4.08739 37.1811 3.5148 37.3638 3.00588C37.5464 2.49684 37.8145 2.05954 38.1717 1.69573C38.5291 1.3299 38.9658 1.05153 39.4859 0.856602C40.0062 0.661796 40.6016 0.566406 41.2767 0.566406C41.9515 0.566406 42.5492 0.659782 43.0673 0.84666C43.5875 1.03366 44.0243 1.30599 44.3817 1.66779C44.7389 2.02972 45.007 2.46513 45.1895 2.97808C45.3722 3.49101 45.4635 4.07354 45.4635 4.72566V13.579C45.4635 14.4637 45.3106 15.2152 45.0049 15.8337C44.6992 16.4519 44.2346 16.923 43.6153 17.2491C42.9939 17.5752 42.2158 17.7382 41.2767 17.7382V17.7362ZM40.8935 19.6926L39.7064 16.5712H42.5334L44.5583 19.6926H40.8935ZM41.2767 14.8236C41.3997 14.8236 41.501 14.7958 41.5785 14.742C41.6558 14.6883 41.7134 14.6128 41.7531 14.5154C41.7909 14.418 41.8106 14.3086 41.8106 14.1834V4.1172C41.8106 3.99993 41.7909 3.89459 41.7531 3.79719C41.7134 3.69979 41.6558 3.62227 41.5785 3.5645C41.501 3.50687 41.3997 3.47704 41.2767 3.47704C41.1536 3.47704 41.0523 3.50486 40.9749 3.55859C40.8976 3.61233 40.8399 3.68783 40.8002 3.78523C40.7605 3.88264 40.7426 3.994 40.7426 4.1172V14.1814C40.7426 14.3067 40.7625 14.4159 40.8002 14.5134C40.8379 14.6108 40.8976 14.6864 40.9749 14.74C41.0523 14.7938 41.1536 14.8216 41.2767 14.8216V14.8236Z" fill="black"></path>
    <path d="M50.4764 17.7362C49.5771 17.7362 48.8226 17.591 48.2131 17.2987C47.6038 17.0085 47.1471 16.5869 46.8413 16.0342C46.5357 15.4835 46.3828 14.8314 46.3828 14.0779V0.796875H49.8967V14.1117C49.8967 14.2986 49.9442 14.4536 50.0416 14.577C50.1388 14.7022 50.2798 14.7639 50.4664 14.7639C50.6689 14.7639 50.8177 14.7022 50.915 14.577C51.0123 14.4536 51.06 14.2966 51.06 14.1117V0.796875H54.5739V14.0779C54.5739 14.8314 54.421 15.4815 54.1152 16.0283C53.8095 16.5752 53.3529 16.9966 52.7495 17.2928C52.1459 17.589 51.3876 17.7362 50.4803 17.7362H50.4764Z" fill="black"></path>
    <path d="M55.0002 17.5016L56.7432 0.796875H62.141L64.1182 17.5016H60.4774L60.1281 13.1912L60.0109 11.2805L59.4411 3.75533H59.4173L58.9408 11.2805L58.8356 13.3423L58.5556 17.5016H54.9961H55.0002ZM57.5473 13.8194V10.9068H61.7121V13.8194H57.5473Z" fill="black"></path>
    <path d="M64.5839 17.5016V0.796875H68.8304C70.2102 0.796875 71.2285 1.11501 71.8836 1.75127C72.5388 2.38741 72.8663 3.45909 72.8663 4.96607C72.8663 5.99207 72.7353 6.79923 72.4714 7.38969C72.2073 7.98014 71.832 8.40562 71.3437 8.66611C70.8554 8.92661 70.2697 9.07964 69.5868 9.12544L69.8885 8.93845C70.6866 9.00803 71.298 9.13338 71.7209 9.31234C72.1438 9.49117 72.4336 9.75167 72.5924 10.0937C72.7513 10.4356 72.8306 10.8849 72.8306 11.4456V17.5036H69.3168V11.4814C69.3168 11.0937 69.2334 10.8173 69.0667 10.6543C68.8999 10.4913 68.5683 10.4098 68.0721 10.4098V17.5036H64.582L64.5839 17.5016ZM68.213 7.67007C68.6319 7.67007 68.9237 7.511 69.0904 7.19287C69.2572 6.87474 69.3406 6.37375 69.3406 5.68979V5.15307C69.3406 4.59433 69.2632 4.18483 69.1083 3.92434C68.9535 3.66384 68.6517 3.5346 68.201 3.5346H68.074V7.67007H68.213Z" fill="black"></path>
    <path d="M75.3044 17.5016V3.82694H73.1523V0.796875H80.9463V3.82492H78.7944V17.5016H75.3044Z" fill="black"></path>
    <path d="M81.668 17.5016V0.796875H88.3919V3.70965H85.158V7.34401H87.8678V10.2567H85.158V14.5908H88.3919V17.5036H81.668V17.5016Z" fill="black"></path>
    <path d="M89.2168 17.5016V0.796875H93.4632C94.8432 0.796875 95.861 1.11501 96.5165 1.75127C97.1712 2.38741 97.499 3.45909 97.499 4.96607C97.499 5.99207 97.3659 6.79923 97.1042 7.38969C96.8398 7.98014 96.4649 8.40562 95.9769 8.66611C95.4879 8.92661 94.9021 9.07964 94.2193 9.12544L94.5208 8.93845C95.3195 9.00803 95.9307 9.13338 96.3535 9.31234C96.7764 9.49117 97.0661 9.75167 97.2255 10.0937C97.384 10.4356 97.4636 10.8849 97.4636 11.4456V17.5036H93.9495V11.4814C93.9495 11.0937 93.8662 10.8173 93.6996 10.6543C93.533 10.4913 93.2016 10.4098 92.7045 10.4098V17.5036H89.2148L89.2168 17.5016ZM92.8457 7.67007C93.2649 7.67007 93.5565 7.511 93.7231 7.19287C93.8897 6.87474 93.973 6.37375 93.973 5.68979V5.15307C93.973 4.59433 93.8961 4.18483 93.7412 3.92434C93.5864 3.66384 93.2822 3.5346 92.8339 3.5346H92.7072V7.67007H92.8457Z" fill="black"></path>
    <path d="M102.198 17.7343C101.329 17.7343 100.594 17.5713 99.9941 17.2453C99.3929 16.9192 98.9365 16.46 98.6223 15.8715C98.309 15.2809 98.1523 14.597 98.1523 13.8216V11.8176H101.687V13.8793C101.687 14.1596 101.734 14.3644 101.827 14.4976C101.92 14.6308 102.059 14.6964 102.246 14.6964C102.462 14.6964 102.619 14.6089 102.71 14.434C102.801 14.259 102.849 14.0284 102.849 13.7401V12.9707C102.849 12.4339 102.789 12.0263 102.668 11.7421C102.548 11.4596 102.341 11.2012 102.047 10.9666L100.07 9.37017C99.7206 9.08978 99.4264 8.8055 99.1864 8.51316C98.9465 8.22297 98.7518 7.91478 98.6051 7.59262C98.4575 7.27058 98.3506 6.92263 98.2855 6.55088C98.2194 6.17713 98.1858 5.77355 98.1858 5.34002V4.8033C98.1858 4.15118 98.2827 3.56072 98.4756 3.0318C98.6703 2.50301 98.9464 2.05764 99.3077 1.69182C99.669 1.32599 100.109 1.04763 100.633 0.85282C101.158 0.657889 101.742 0.5625 102.385 0.5625C102.966 0.5625 103.5 0.647948 103.991 0.818969C104.479 0.98999 104.898 1.24646 105.247 1.58838C105.596 1.93042 105.871 2.3598 106.073 2.87474C106.275 3.39171 106.375 3.98808 106.375 4.6621V5.90871H102.885V4.39368C102.877 4.13721 102.834 3.93837 102.752 3.79919C102.671 3.66001 102.533 3.59054 102.339 3.59054C102.145 3.59054 102.011 3.66202 101.914 3.80523C101.817 3.94832 101.769 4.181 101.769 4.49913V4.77939C101.769 5.15918 101.815 5.48323 101.908 5.75165C102.002 6.02008 102.194 6.27453 102.49 6.51514L104.434 8.18119C104.852 8.54702 105.21 8.91674 105.503 9.29456C105.797 9.67233 106.024 10.1137 106.179 10.6227C106.333 11.1316 106.41 11.7659 106.41 12.5273V13.3544C106.41 14.0681 106.319 14.7004 106.137 15.2472C105.954 15.7938 105.684 16.2532 105.328 16.621C104.971 16.9908 104.532 17.2671 104.008 17.454C103.485 17.6409 102.883 17.7343 102.2 17.7343H102.198Z" fill="black"></path>
  </g>
  <defs>
    <clipPath id="clip0_3551_4600">
      <rect width="105.941" height="19.9205" fill="white" transform="translate(0.808594 0.164062)"></rect>
    </clipPath>
  </defs>
</svg>
