<?xml version="1.0" encoding="UTF-8"?>
<svg xmlns="http://www.w3.org/2000/svg" width="57" height="25" viewBox="0 0 57 25" fill="none">
  <g clip-path="url(#clip0_3551_4105)">
    <path d="M0.730469 22.9219H11.6383V24.581H0.730469V22.9219Z" fill="#2C2C2C"></path>
    <path d="M0.730469 19.7383H11.6383V21.4032H0.730469V19.7383Z" fill="#2C2C2C"></path>
    <path d="M3.83984 16.5625H8.5186V18.2275H3.83984V16.5625Z" fill="#2C2C2C"></path>
    <path d="M3.83984 13.3867H8.5186V15.0517H3.83984V13.3867Z" fill="#2C2C2C"></path>
    <path d="M3.83984 10.2109H8.5186V11.8759H3.83984V10.2109Z" fill="#2C2C2C"></path>
    <path d="M3.83984 7.02734H8.5186V8.69233H3.83984V7.02734Z" fill="#2C2C2C"></path>
    <path d="M11.6383 3.85156H0.730469V5.51655H11.6383V3.85156Z" fill="#2C2C2C"></path>
    <path d="M11.6383 0.675781H0.730469V2.34076H11.6383V0.675781Z" fill="#2C2C2C"></path>
    <path d="M13.1992 21.4033H29.975C30.2584 20.8896 30.4695 20.3287 30.5974 19.7383H13.1992V21.4033Z" fill="#2C2C2C"></path>
    <path d="M28.669 13.3867H16.3164V15.0517H29.9749C29.6192 14.414 29.1802 13.8532 28.669 13.3867Z" fill="#2C2C2C"></path>
    <path d="M16.3164 10.2109V11.8759H28.669C29.1914 11.4095 29.6303 10.8486 29.9749 10.2109H16.3164Z" fill="#2C2C2C"></path>
    <path d="M29.9751 3.85156H13.1992V5.51655H30.5974C30.4529 4.92612 30.2418 4.36527 29.9751 3.85156Z" fill="#2C2C2C"></path>
    <path d="M24.8184 0.675781H13.1992V2.34076H28.8248C27.7801 1.31341 26.3632 0.675781 24.8184 0.675781Z" fill="#2C2C2C"></path>
    <path d="M20.9896 7.02734H16.3164V8.69233H20.9896V7.02734Z" fill="#2C2C2C"></path>
    <path d="M25.6641 8.69233H30.554C30.6929 8.16098 30.7651 7.60006 30.7651 7.02734H25.6641V8.69233Z" fill="#2C2C2C"></path>
    <path d="M16.3164 16.5625H20.9896V18.2275H16.3164V16.5625Z" fill="#2C2C2C"></path>
    <path d="M25.6641 16.5625V18.2275H30.7651C30.7651 17.6548 30.6929 17.0939 30.554 16.5625H25.6641Z" fill="#2C2C2C"></path>
    <path d="M13.1992 24.5692L24.8184 24.5869C26.3743 24.5869 27.7801 23.9492 28.8303 22.9219H13.1992V24.5692Z" fill="#2C2C2C"></path>
    <path d="M31.8984 22.9219H39.6889V24.581H31.8984V22.9219Z" fill="#2C2C2C"></path>
    <path d="M31.8984 19.7383H39.6889V21.4032H31.8984V19.7383Z" fill="#2C2C2C"></path>
    <path d="M35.0078 16.5625H39.6866V18.2275H35.0078V16.5625Z" fill="#2C2C2C"></path>
    <path d="M35.0078 13.3867H39.6866V15.0517H35.0078V13.3867Z" fill="#2C2C2C"></path>
    <path d="M41.8561 3.85156H31.8984V5.51655H42.3951L41.8561 3.85156Z" fill="#2C2C2C"></path>
    <path d="M40.8225 0.675781H31.8984V2.34076H41.3615L40.8225 0.675781Z" fill="#2C2C2C"></path>
    <path d="M49.0352 22.9219H56.8313V24.581H49.0352V22.9219Z" fill="#2C2C2C"></path>
    <path d="M49.0352 19.7383H56.8313V21.4032H49.0352V19.7383Z" fill="#2C2C2C"></path>
    <path d="M49.0352 16.5625H53.7139V18.2275H49.0352V16.5625Z" fill="#2C2C2C"></path>
    <path d="M49.0352 13.3867H53.7139V15.0517H49.0352V13.3867Z" fill="#2C2C2C"></path>
    <path d="M49.033 11.8759H53.7118V10.2109H49.033H44.7988L44.3598 11.5571L43.9208 10.2109H39.6866H35.0078V11.8759H39.6866V10.3467L40.1812 11.8759H48.5385L49.033 10.3467V11.8759Z" fill="#2C2C2C"></path>
    <path d="M53.7192 7.02734H45.8398L45.3008 8.69233H53.7192V7.02734Z" fill="#2C2C2C"></path>
    <path d="M47.9062 0.675781L47.3672 2.34076H56.8303V0.675781H47.9062Z" fill="#2C2C2C"></path>
    <path d="M44.3632 24.5692L44.9022 22.9219H43.8242L44.3632 24.5692Z" fill="#2C2C2C"></path>
    <path d="M43.3275 21.4032H45.3946L45.9502 19.7383H42.7773L43.3275 21.4032Z" fill="#2C2C2C"></path>
    <path d="M42.2767 18.2275H46.4443L46.9944 16.5625H41.7266L42.2767 18.2275Z" fill="#2C2C2C"></path>
    <path d="M41.2343 15.0517H47.4968L48.0302 13.3867H40.6953L41.2343 15.0517Z" fill="#2C2C2C"></path>
    <path d="M35.0078 8.69233H43.4263L42.8873 7.02734H35.0078V8.69233Z" fill="#2C2C2C"></path>
    <path d="M46.3359 5.51655H56.8326V3.85156H46.8694L46.3359 5.51655Z" fill="#2C2C2C"></path>
  </g>
  <defs>
    <clipPath id="clip0_3551_4105">
      <rect width="56.1009" height="23.9119" fill="white" transform="translate(0.730469 0.675781)"></rect>
    </clipPath>
  </defs>
</svg>
