<?xml version="1.0" encoding="UTF-8"?>
<svg xmlns="http://www.w3.org/2000/svg" width="165" height="27" viewBox="0 0 165 27" fill="none">
  <g clip-path="url(#clip0_3551_4098)">
    <path d="M44.3068 0.855469C41.2415 0.855469 37.8998 2.42629 34.3679 5.52032C32.6924 6.98642 31.2452 8.55724 30.1602 9.81389C30.1602 9.81389 30.1602 9.81389 30.1696 9.82342V9.81389C30.1696 9.81389 31.8831 11.6798 33.7777 13.679C34.7964 12.4701 36.2625 10.8231 37.9474 9.33789C41.0892 6.58659 43.1358 6.00587 44.3068 6.00587C48.7149 6.00587 52.2943 9.49974 52.2943 13.7933C52.2943 18.0583 48.7053 21.5522 44.3068 21.5807C44.1069 21.5807 43.8498 21.5522 43.5262 21.4856C44.8115 22.0377 46.1919 22.4376 47.5057 22.4376C55.5787 22.4376 57.159 17.173 57.2637 16.7921C57.5018 15.8306 57.6256 14.8215 57.6256 13.7837C57.6256 6.66273 51.6469 0.855469 44.3068 0.855469Z" fill="url(#paint0_linear_3551_4098)"></path>
    <path d="M16.1077 26.7518C19.1731 26.7518 22.5147 25.181 26.0466 22.087C27.7223 20.6208 29.1693 19.05 30.2545 17.7933C30.2545 17.7933 30.2545 17.7933 30.2449 17.7838V17.7933C30.2449 17.7933 28.5316 15.9274 26.6369 13.9282C25.6183 15.1372 24.1522 16.7842 22.4671 18.2694C19.3255 21.0206 17.2787 21.6014 16.1077 21.6014C11.6999 21.5918 8.12032 18.098 8.12032 13.8044C8.12032 9.53942 11.7094 6.04554 16.1077 6.01698C16.3077 6.01698 16.5646 6.04554 16.8884 6.11218C15.6031 5.56001 14.2227 5.16016 12.909 5.16016C4.8359 5.16016 3.26507 10.4248 3.15084 10.796C2.91282 11.7671 2.78906 12.7668 2.78906 13.8044C2.78906 20.9446 8.76769 26.7518 16.1077 26.7518Z" fill="url(#paint1_linear_3551_4098)"></path>
    <path d="M47.4875 22.3233C43.3557 22.2186 39.0622 18.9627 38.1863 18.1535C35.9206 16.0591 30.6939 10.3946 30.2847 9.94718C26.4576 5.65361 21.2691 0.855469 16.1092 0.855469H16.0997H16.0901C9.82593 0.884029 4.56132 5.13 3.15234 10.7945C3.25706 10.4232 5.32293 5.05383 12.9009 5.24425C17.0327 5.34897 21.3453 8.65244 22.2306 9.46165C24.4964 11.5561 29.723 17.2206 30.1324 17.668C33.9595 21.9521 39.1478 26.7503 44.3077 26.7503H44.3172H44.3268C50.591 26.7218 55.8651 22.4756 57.2646 16.8112C57.1504 17.1825 55.0749 22.5042 47.4875 22.3233Z" fill="#29ABE2"></path>
    <path d="M67.6152 10.8507V5.28188H66.5156V10.8507H67.6152ZM74.4537 10.8507V5.28188H73.3699V8.9656L71.0528 5.28188H69.7019V10.8507H70.7858V6.89989L73.3149 10.8507H74.4537ZM80.6311 6.31081V5.28188H76.0206V6.31081H77.78V10.8507H78.8718V6.31081H80.6311ZM85.6827 10.8507V9.82958H83.2793V8.54146H85.4549V7.57537H83.2793V6.30295H85.6827V5.28188H82.1953V10.8507H85.6827ZM90.2782 10.8507H91.4878L90.2939 8.57288C91.0244 8.36081 91.48 7.77173 91.48 6.99414C91.48 6.02805 90.7888 5.28188 89.7049 5.28188H87.5292V10.8507H88.621V8.7064H89.1864L90.2782 10.8507ZM88.621 7.77173V6.22441H89.5007C90.0505 6.22441 90.3725 6.53073 90.3725 7.00199C90.3725 7.45755 90.0505 7.77173 89.5007 7.77173H88.621ZM98.0138 10.8507V5.28188H96.9299V8.9656L94.6129 5.28188H93.262V10.8507H94.3458V6.89989L96.875 10.8507H98.0138ZM103.594 10.8507V9.82958H101.191V8.54146H103.367V7.57537H101.191V6.30295H103.594V5.28188H100.107V10.8507H103.594ZM109.525 6.31081V5.28188H104.914V6.31081H106.674V10.8507H107.765V6.31081H109.525ZM116.046 10.9684C117.608 10.9684 118.409 9.93169 118.621 9.07556L117.608 8.76923C117.459 9.28763 116.996 9.90812 116.046 9.90812C115.15 9.90812 114.318 9.25621 114.318 8.07019C114.318 6.80564 115.197 6.20871 116.03 6.20871C116.996 6.20871 117.428 6.79779 117.561 7.33188L118.582 7.00985C118.362 6.10659 117.569 5.16406 116.03 5.16406C114.537 5.16406 113.194 6.2951 113.194 8.07019C113.194 9.84529 114.49 10.9684 116.046 10.9684ZM121.039 8.06234C121.039 6.80564 121.919 6.20871 122.776 6.20871C123.639 6.20871 124.519 6.80564 124.519 8.06234C124.519 9.31904 123.639 9.91598 122.776 9.91598C121.919 9.91598 121.039 9.31904 121.039 8.06234ZM119.917 8.07019C119.917 9.861 121.267 10.9684 122.776 10.9684C124.291 10.9684 125.642 9.861 125.642 8.07019C125.642 6.27154 124.291 5.16406 122.776 5.16406C121.267 5.16406 119.917 6.27154 119.917 8.07019ZM133.61 10.8507V5.28188H132.134L130.5 9.30333L128.827 5.28188H127.398V10.8507H128.435V6.97844L130.037 10.8507H130.94L132.543 6.94701V10.8507H133.61ZM136.792 7.81885V6.22441H137.649C138.19 6.22441 138.52 6.53073 138.52 7.02556C138.52 7.50468 138.19 7.81885 137.649 7.81885H136.792ZM137.782 8.75353C138.881 8.75353 139.612 8.03092 139.612 7.01771C139.612 6.01234 138.881 5.28188 137.782 5.28188H135.701V10.8507H136.784V8.75353H137.782ZM143.33 10.9763C144.525 10.9763 145.475 10.2459 145.475 8.87919V5.28188H144.391V8.80066C144.391 9.53111 143.99 9.91598 143.33 9.91598C142.687 9.91598 142.278 9.53111 142.278 8.80066V5.28188H141.195V8.87919C141.195 10.2459 142.145 10.9763 143.33 10.9763ZM151.603 6.31081V5.28188H146.992V6.31081H148.752V10.8507H149.843V6.31081H151.603ZM156.655 10.8507V9.82958H154.251V8.54146H156.427V7.57537H154.251V6.30295H156.655V5.28188H153.167V10.8507H156.655ZM161.25 10.8507H162.459L161.266 8.57288C161.996 8.36081 162.451 7.77173 162.451 6.99414C162.451 6.02805 161.76 5.28188 160.677 5.28188H158.501V10.8507H159.592V8.7064H160.158L161.25 10.8507ZM159.592 7.77173V6.22441H160.472C161.022 6.22441 161.345 6.53073 161.345 7.00199C161.345 7.45755 161.022 7.77173 160.472 7.77173H159.592ZM67.6074 18.7674V17.173H68.4635C69.0054 17.173 69.3353 17.4792 69.3353 17.9741C69.3353 18.4533 69.0054 18.7674 68.4635 18.7674H67.6074ZM68.597 19.7021C69.6966 19.7021 70.427 18.9795 70.427 17.9663C70.427 16.9609 69.6966 16.2304 68.597 16.2304H66.5156V21.7992H67.5995V19.7021H68.597ZM74.8055 21.7992H76.0151L74.8212 19.5214C75.5517 19.3093 76.0073 18.7203 76.0073 17.9427C76.0073 16.9767 75.3161 16.2304 74.2322 16.2304H72.0565V21.7992H73.1482V19.655H73.7138L74.8055 21.7992ZM73.1482 18.7203V17.173H74.0279C74.5777 17.173 74.8998 17.4792 74.8998 17.9506C74.8998 18.4061 74.5777 18.7203 74.0279 18.7203H73.1482ZM78.5828 19.0109C78.5828 17.7542 79.4625 17.1572 80.3186 17.1572C81.1826 17.1572 82.0623 17.7542 82.0623 19.0109C82.0623 20.2676 81.1826 20.8645 80.3186 20.8645C79.4625 20.8645 78.5828 20.2676 78.5828 19.0109ZM77.4596 19.0187C77.4596 20.8096 78.8105 21.917 80.3186 21.917C81.8345 21.917 83.1855 20.8096 83.1855 19.0187C83.1855 17.2201 81.8345 16.1126 80.3186 16.1126C78.8105 16.1126 77.4596 17.2201 77.4596 19.0187ZM88.8569 17.2593V16.2304H84.2462V17.2593H86.0056V21.7992H87.0975V17.2593H88.8569ZM91.0453 19.0109C91.0453 17.7542 91.925 17.1572 92.7812 17.1572C93.6451 17.1572 94.5248 17.7542 94.5248 19.0109C94.5248 20.2676 93.6451 20.8645 92.7812 20.8645C91.925 20.8645 91.0453 20.2676 91.0453 19.0109ZM89.9222 19.0187C89.9222 20.8096 91.2731 21.917 92.7812 21.917C94.297 21.917 95.648 20.8096 95.648 19.0187C95.648 17.2201 94.297 16.1126 92.7812 16.1126C91.2731 16.1126 89.9222 17.2201 89.9222 19.0187ZM99.9251 21.917C101.488 21.917 102.289 20.8803 102.501 20.0241L101.488 19.7178C101.339 20.2362 100.875 20.8567 99.9251 20.8567C99.0297 20.8567 98.1971 20.2048 98.1971 19.0187C98.1971 17.7542 99.0768 17.1572 99.9094 17.1572C100.875 17.1572 101.308 17.7464 101.441 18.2805L102.462 17.9584C102.242 17.0551 101.449 16.1126 99.9094 16.1126C98.417 16.1126 97.074 17.2437 97.074 19.0187C97.074 20.7938 98.3699 21.917 99.9251 21.917ZM104.919 19.0109C104.919 17.7542 105.799 17.1572 106.656 17.1572C107.519 17.1572 108.399 17.7542 108.399 19.0109C108.399 20.2676 107.519 20.8645 106.656 20.8645C105.799 20.8645 104.919 20.2676 104.919 19.0109ZM103.797 19.0187C103.797 20.8096 105.147 21.917 106.656 21.917C108.171 21.917 109.523 20.8096 109.523 19.0187C109.523 17.2201 108.171 16.1126 106.656 16.1126C105.147 16.1126 103.797 17.2201 103.797 19.0187ZM114.844 21.7992V20.7625H112.361V16.2304H111.278V21.7992H114.844Z" fill="black"></path>
  </g>
  <defs>
    <linearGradient id="paint0_linear_3551_4098" x1="37.3738" y1="2.56286" x2="55.482" y2="21.3145" gradientUnits="userSpaceOnUse">
      <stop offset="0.21" stop-color="#F15A24"></stop>
      <stop offset="0.6841" stop-color="#FBB03B"></stop>
    </linearGradient>
    <linearGradient id="paint1_linear_3551_4098" x1="23.0407" y1="25.0444" x2="4.9325" y2="6.29274" gradientUnits="userSpaceOnUse">
      <stop offset="0.21" stop-color="#ED1E79"></stop>
      <stop offset="0.8929" stop-color="#522785"></stop>
    </linearGradient>
    <clipPath id="clip0_3551_4098">
      <rect width="164.438" height="26.2293" fill="white" transform="translate(0.5625 0.691406)"></rect>
    </clipPath>
  </defs>
</svg>
