<?xml version="1.0" encoding="UTF-8"?>
<svg xmlns="http://www.w3.org/2000/svg" width="121" height="21" viewBox="0 0 121 21" fill="none">
  <g clip-path="url(#clip0_3551_4011)">
    <path fill-rule="evenodd" clip-rule="evenodd" d="M0.605469 1.23438H4.7215V14.8784H0.605469V1.23438ZM3.53631 2.41956H1.79066V13.6932H3.53631V2.41956ZM2.072 13.1771V3.07972H3.26383V13.1771H2.072Z" fill="#0084B5"></path>
    <path fill-rule="evenodd" clip-rule="evenodd" d="M21.1498 12.3166H22.9553V2.50941H22.6739V12.0352H21.2739L11.7281 2.50941H7.83362V13.7831H9.57928V4.25506H10.9816L20.5273 13.7831H24.4218V2.07521H25.607V14.9683H20.0466L10.7667 5.66843V14.9683H6.64844V1.32422H12.2088L21.4888 10.6218V1.32422H24.1405V13.5017H20.6336L11.1056 3.97372H9.30015V12.7618H8.11497V2.78853H11.6218L21.1498 12.3166Z" fill="#0084B5"></path>
    <path fill-rule="evenodd" clip-rule="evenodd" d="M40.4982 5.21517C40.3474 5.17922 40.1924 5.16357 40.0374 5.16865H31.4686V12.0361H40.7729C41.018 12.0398 41.2631 12.0257 41.5062 11.994C41.6281 11.9912 41.7442 11.9415 41.8305 11.8553C41.9167 11.769 41.9664 11.6529 41.9692 11.531C42.0021 11.2873 42.0162 11.0414 42.0113 10.7955V4.94269C42.0161 4.69681 42.002 4.45093 41.9692 4.20721C41.9568 4.08808 41.909 3.9754 41.8318 3.88378C41.7394 3.80659 41.626 3.75876 41.5062 3.74643C41.2633 3.71286 41.0181 3.69804 40.7729 3.70212H30.0021V14.6967H27.3438V1.05262H40.7618C41.3851 1.03949 42.0078 1.09672 42.6183 1.2232C43.0786 1.31608 43.5033 1.53726 43.8433 1.8612C44.1657 2.20234 44.3866 2.62656 44.4813 3.08627C44.6079 3.69668 44.6651 4.31943 44.6519 4.94269V10.8044C44.664 11.4305 44.6068 12.0561 44.4813 12.6697C44.3892 13.1335 44.168 13.562 43.8433 13.9058C43.5027 14.2297 43.0758 14.4482 42.6138 14.535C42.004 14.6541 41.3832 14.7083 40.7618 14.6967H30.8329V13.5137H40.7707C41.246 13.5232 41.721 13.4846 42.1885 13.3985C42.4853 13.3583 42.7606 13.2215 42.972 13.0093C43.1834 12.7972 43.3191 12.5213 43.3582 12.2244C43.4442 11.7561 43.4828 11.2804 43.4734 10.8044V4.94269C43.4828 4.46669 43.4442 3.99095 43.3582 3.52268C43.3075 3.22973 43.1737 2.95752 42.9727 2.73846C42.7539 2.53665 42.4817 2.40207 42.1885 2.35079C41.7201 2.26563 41.2444 2.22778 40.7685 2.23781H28.5378V13.5137H28.8169V2.51693H40.7796C41.1647 2.51025 41.5495 2.53918 41.9293 2.60333C42.228 2.65062 42.5052 2.78734 42.7246 2.99544C42.9332 3.21447 43.07 3.49192 43.1167 3.79073C43.1809 4.17124 43.2099 4.55686 43.2031 4.94269V10.8044C43.2109 11.1939 43.182 11.5833 43.1167 11.9674C43.0743 12.2662 42.9353 12.543 42.7209 12.7554C42.5065 12.9678 42.2285 13.1042 41.9293 13.1437C41.5495 13.208 41.1647 13.2369 40.7796 13.2301H30.2879V3.98789H40.7751C41.3888 3.98789 41.7344 4.33348 41.7344 4.94712V10.8044C41.7344 11.4202 41.3888 11.7636 40.7751 11.7636H32.2994V10.5784H40.0352C40.1602 10.581 40.2853 10.5758 40.4096 10.5629C40.4254 10.5662 40.4418 10.5655 40.4573 10.5608C40.4728 10.5562 40.4869 10.5478 40.4983 10.5364C40.5097 10.525 40.5181 10.5109 40.5227 10.4954C40.5274 10.4799 40.5281 10.4635 40.5248 10.4477C40.5384 10.3234 40.5444 10.1984 40.5425 10.0733V5.67596C40.5465 5.52101 40.5309 5.36619 40.496 5.21517H40.4982Z" fill="#0084B5"></path>
    <path fill-rule="evenodd" clip-rule="evenodd" d="M78.4648 5.2152C78.3139 5.17924 78.159 5.1636 78.004 5.16868H69.4352V12.0361H78.7394C78.9853 12.0398 79.2311 12.0258 79.4749 11.994C79.5945 11.9818 79.7075 11.9331 79.7984 11.8545C79.8759 11.7631 79.9237 11.6503 79.9357 11.531C79.9694 11.2874 79.9842 11.0415 79.98 10.7955V4.94271C79.9841 4.69678 79.9693 4.4509 79.9357 4.20723C79.9237 4.088 79.8759 3.97521 79.7984 3.8838C79.7073 3.80582 79.5943 3.75786 79.4749 3.74645C79.2313 3.71288 78.9854 3.69807 78.7394 3.70214H67.9709V14.6967H65.3125V1.05264H78.7372C79.3605 1.03942 79.9832 1.09665 80.5937 1.22322C81.054 1.31611 81.4787 1.53729 81.8187 1.86123C82.1432 2.20089 82.3644 2.62574 82.4567 3.08629C82.5833 3.6967 82.6405 4.31946 82.6273 4.94271V10.8044C82.6394 11.4306 82.5822 12.0561 82.4567 12.6697C82.3655 13.1339 82.1442 13.5625 81.8187 13.9058C81.4787 14.2293 81.0526 14.4478 80.5914 14.535C79.9808 14.6541 79.3593 14.7083 78.7372 14.6967H68.9899V13.5137H78.7372C79.2132 13.5231 79.689 13.4845 80.1572 13.3985C80.4541 13.3589 80.7297 13.2226 80.9415 13.0109C81.1532 12.7991 81.2895 12.5235 81.3291 12.2266C81.4144 11.7583 81.4522 11.2825 81.4421 10.8066V4.94271C81.4522 4.46679 81.4144 3.99105 81.3291 3.52271C81.2771 3.22974 81.1426 2.9577 80.9415 2.73849C80.7227 2.53668 80.4504 2.4021 80.1572 2.35081C79.6889 2.26557 79.2132 2.22772 78.7372 2.23783H66.5043V13.5137H66.7857V2.51696H78.7372C79.1231 2.51021 79.5087 2.53913 79.8892 2.60335C80.1877 2.65118 80.4648 2.78782 80.6845 2.99546C80.8913 3.21569 81.0279 3.49257 81.0766 3.79076C81.1408 4.17126 81.1697 4.55689 81.163 4.94271V10.8044C81.17 11.194 81.1404 11.5834 81.0744 11.9674C81.0328 12.2662 80.8944 12.5431 80.6803 12.7556C80.4662 12.9681 80.1883 13.1045 79.8892 13.1438C79.5087 13.208 79.1231 13.2369 78.7372 13.2302H68.2522V3.98792H78.7372C79.3509 3.98792 79.6965 4.33351 79.6965 4.94714V10.8044C79.6965 11.4203 79.3509 11.7636 78.7372 11.7636H70.4542V10.5784H78.004C78.1297 10.5811 78.2555 10.5759 78.3806 10.5629C78.411 10.5609 78.4406 10.5518 78.467 10.5364C78.4824 10.5092 78.4915 10.4789 78.4936 10.4477C78.5072 10.3227 78.5132 10.1969 78.5113 10.0711V5.67598C78.5164 5.521 78.5007 5.36603 78.4648 5.2152Z" fill="#0084B5"></path>
    <path fill-rule="evenodd" clip-rule="evenodd" d="M97.5185 5.39799C97.3674 5.36394 97.2125 5.34906 97.0577 5.35369H88.9918C88.8668 5.35111 88.7417 5.35629 88.6174 5.3692C88.5863 5.37172 88.5561 5.38078 88.5288 5.39578C88.5138 5.42312 88.5047 5.45331 88.5022 5.48439C88.4893 5.60875 88.4841 5.73378 88.4867 5.85878V8.56588H99.0271V5.12773C99.0312 4.88179 99.0164 4.6359 98.9828 4.39225C98.9729 4.2725 98.9247 4.15911 98.8455 4.06881C98.7548 3.98978 98.6417 3.941 98.522 3.92925C98.2782 3.89744 98.0324 3.88338 97.7865 3.88716H88.2607C88.0149 3.88338 87.7691 3.89744 87.5253 3.92925C87.4055 3.941 87.2925 3.98978 87.2018 4.06881C87.1228 4.15948 87.074 4.27254 87.0623 4.39225C87.0305 4.63607 87.0164 4.88187 87.0202 5.12773V12.8015H85.835V5.12773C85.8282 4.7419 85.8571 4.35627 85.9214 3.97577C85.9692 3.67729 86.1058 3.40015 86.3135 3.18048C86.5304 2.97384 86.8044 2.83722 87.0999 2.78837C87.4833 2.72296 87.8719 2.69403 88.2607 2.70197H97.7865C98.1724 2.69522 98.558 2.72414 98.9385 2.78837C99.237 2.83619 99.5141 2.97283 99.7338 3.18048C99.9414 3.40015 100.078 3.67729 100.126 3.97577C100.19 4.35627 100.219 4.7419 100.212 5.12773V9.74885H87.3037V5.12773C87.3037 4.51187 87.6471 4.1685 88.2629 4.1685H97.7887C98.4024 4.1685 98.748 4.51187 98.748 5.12773V7.73514H97.5628V5.85878C97.5674 5.70393 97.5525 5.54912 97.5185 5.39799ZM99.0293 11.2154H88.4889V14.8795H84.3729V5.13216C84.3604 4.51019 84.4138 3.88865 84.5324 3.27795C84.6209 2.81663 84.8392 2.39013 85.1615 2.04846C85.5054 1.72377 85.9338 1.50264 86.3977 1.41045C87.0112 1.28496 87.6368 1.22775 88.2629 1.23987H97.7887C98.412 1.22782 99.0346 1.28503 99.6452 1.41045C100.105 1.5047 100.529 1.72569 100.87 2.04846C101.194 2.3893 101.415 2.81472 101.508 3.27573C101.636 3.88606 101.694 4.50882 101.681 5.13216V14.8795H97.5628V12.6819H89.4348V11.4967H98.7391V13.6943H100.485V5.12773C100.495 4.6518 100.457 4.17606 100.372 3.70772C100.322 3.41396 100.187 3.14126 99.9841 2.9235C99.7664 2.7202 99.4936 2.58539 99.1999 2.53582C98.7316 2.44984 98.2559 2.41124 97.7799 2.42063H88.2541C87.7781 2.41124 87.3023 2.44984 86.8341 2.53582C86.5403 2.58539 86.2676 2.7202 86.0499 2.9235C85.849 3.14208 85.7165 3.41471 85.6688 3.70772C85.5828 4.17599 85.5443 4.65172 85.5536 5.12773V13.6943H87.3015V10.0302H100.212V12.8658H99.0271V11.2154H99.0293Z" fill="#0084B5"></path>
    <path fill-rule="evenodd" clip-rule="evenodd" d="M119.275 3.56611L118.037 2.32997L113.163 7.1837H108.343L105.443 4.28165L106.273 3.45091L108.859 5.99851H112.698L118.037 0.664062L120.937 3.56611L115.398 9.10437L118.147 11.8536L117.315 12.6865L113.741 9.08221L119.279 3.56611H119.275ZM108.238 7.46283H109.421L104.342 12.5447L105.578 13.7831L110.432 8.92936H113.165L118.039 13.7831L119.277 12.5447L116.548 9.83763L117.374 8.98031L120.948 12.5469L118.037 15.4468L112.698 10.1145H110.906L105.578 15.4468L102.676 12.5447L107.16 8.05653L102.676 3.56611L105.578 0.664062L109.326 4.41235L108.471 5.24088L105.578 2.32997L104.342 3.56611L108.238 7.46283ZM110.29 8.63915L106.256 12.6998L105.423 11.8668L109.818 7.46283H113.28L117.315 3.4487L118.145 4.28165L113.805 8.63915H110.29Z" fill="#0084B5"></path>
    <path fill-rule="evenodd" clip-rule="evenodd" d="M62.289 10.6708L62.3887 5.7927L58.904 2.31246L50.8735 2.30359L47.5882 5.68415V10.6088L50.8403 13.6415L58.5983 13.5108L60.7848 10.0173L60.8357 6.43513L58.2638 3.86095L51.5226 3.85431L49.1345 6.43513L49.2785 10.0394L51.5581 12.0974L57.6612 12.0465L59.2828 9.60523V7.07979L57.6191 5.41609L52.1695 5.40945L50.7605 7.07093L50.8359 9.41029L52.2049 10.6952L56.8371 10.6486L56.8083 11.7541L51.7043 11.7984L49.6551 9.91537L49.5133 6.58356L51.6356 4.16666L58.1309 4.17552L60.5256 6.56805V9.91981L58.3967 13.276L51.0064 13.2937L47.9958 10.549L47.8895 5.93669L50.9954 2.61374L58.7777 2.62038L62.0785 5.9234V10.5689L59.2341 14.7691L50.3374 14.8843L46.3477 11.1294V5.1702L50.3574 1.05859L59.4224 1.06745L63.6314 5.27875L63.5251 11.136L61.5601 14.1577L60.5012 13.4311L62.289 10.6708Z" fill="#0084B5"></path>
    <path fill-rule="evenodd" clip-rule="evenodd" d="M2.65688 2.55859C2.81462 2.55859 2.96881 2.60537 3.09996 2.693C3.23111 2.78063 3.33332 2.90518 3.39369 3.05091C3.45405 3.19664 3.46984 3.35699 3.43907 3.51169C3.4083 3.66639 3.33234 3.80849 3.22081 3.92003C3.10927 4.03156 2.96717 4.10752 2.81247 4.13829C2.65777 4.16906 2.49742 4.15327 2.35169 4.09291C2.20596 4.03254 2.08141 3.93032 1.99378 3.79918C1.90615 3.66803 1.85938 3.51384 1.85938 3.3561C1.85938 3.14459 1.9434 2.94174 2.09296 2.79218C2.24252 2.64262 2.44537 2.55859 2.65688 2.55859Z" fill="#0084B5"></path>
    <path fill-rule="evenodd" clip-rule="evenodd" d="M2.65688 11.9609C2.81462 11.9609 2.96881 12.0077 3.09996 12.0953C3.23111 12.183 3.33332 12.3075 3.39369 12.4533C3.45405 12.599 3.46984 12.7593 3.43907 12.914C3.4083 13.0687 3.33234 13.2108 3.22081 13.3224C3.10927 13.4339 2.96717 13.5099 2.81247 13.5406C2.65777 13.5714 2.49742 13.5556 2.35169 13.4952C2.20596 13.4349 2.08141 13.3327 1.99378 13.2015C1.90615 13.0704 1.85938 12.9162 1.85938 12.7584C1.85938 12.5469 1.9434 12.3441 2.09296 12.1945C2.24252 12.045 2.44537 11.9609 2.65688 11.9609Z" fill="#0084B5"></path>
    <path fill-rule="evenodd" clip-rule="evenodd" d="M8.70324 12.0469C8.86106 12.046 9.01559 12.092 9.14728 12.179C9.27896 12.266 9.38187 12.3901 9.44297 12.5356C9.50408 12.6811 9.52063 12.8415 9.49054 12.9964C9.46045 13.1514 9.38507 13.2939 9.27393 13.406C9.1628 13.518 9.02092 13.5946 8.86624 13.626C8.71157 13.6574 8.55106 13.6421 8.40504 13.5822C8.25901 13.5224 8.13405 13.4205 8.04595 13.2895C7.95786 13.1586 7.9106 13.0044 7.91016 12.8466C7.91016 12.6351 7.99418 12.4322 8.14374 12.2827C8.2933 12.1331 8.49615 12.0491 8.70767 12.0491L8.70324 12.0469Z" fill="#0084B5"></path>
    <path fill-rule="evenodd" clip-rule="evenodd" d="M25.0124 1.36719C25.1701 1.36719 25.3243 1.41396 25.4554 1.50159C25.5866 1.58922 25.6888 1.71378 25.7492 1.8595C25.8095 2.00523 25.8253 2.16558 25.7945 2.32028C25.7638 2.47498 25.6878 2.61709 25.5763 2.72862C25.4647 2.84015 25.3226 2.91611 25.1679 2.94688C25.0132 2.97765 24.8529 2.96186 24.7072 2.9015C24.5614 2.84114 24.4369 2.73892 24.3492 2.60777C24.2616 2.47662 24.2148 2.32243 24.2148 2.1647C24.2148 1.95318 24.2989 1.75033 24.4484 1.60077C24.598 1.45121 24.8008 1.36719 25.0124 1.36719Z" fill="#0084B5"></path>
    <path fill-rule="evenodd" clip-rule="evenodd" d="M32.4069 10.375C32.5646 10.375 32.7188 10.4218 32.85 10.5094C32.9811 10.597 33.0833 10.7216 33.1437 10.8673C33.204 11.013 33.2198 11.1734 33.1891 11.3281C33.1583 11.4828 33.0823 11.6249 32.9708 11.7364C32.8593 11.848 32.7172 11.9239 32.5625 11.9547C32.4078 11.9855 32.2474 11.9697 32.1017 11.9093C31.956 11.8489 31.8314 11.7467 31.7438 11.6156C31.6561 11.4844 31.6094 11.3302 31.6094 11.1725C31.6094 10.961 31.6934 10.7581 31.843 10.6086C31.9925 10.459 32.1954 10.375 32.4069 10.375Z" fill="#0084B5"></path>
    <path d="M1.3669 17.9297V20.7764H0.742188V17.9297H1.3669Z" fill="#0B0B0B"></path>
    <path d="M3.35297 17.9297L4.54037 19.8393V17.9297H5.12521V20.7764H4.50936L3.32417 18.8712V20.7764H2.73047V17.9297H3.35297Z" fill="#0B0B0B"></path>
    <path d="M7.72337 17.9298C7.89771 17.9281 8.07096 17.9574 8.23511 18.0161C8.39038 18.0722 8.53117 18.1623 8.64715 18.2798C8.76813 18.4062 8.86032 18.5574 8.91742 18.7228C8.98795 18.9196 9.02246 19.1275 9.01932 19.3365C9.02127 19.5306 8.99439 19.724 8.93957 19.9102C8.89167 20.0775 8.80943 20.2329 8.6981 20.3666C8.58837 20.4949 8.45138 20.597 8.29714 20.6657C8.11747 20.7429 7.92332 20.7806 7.7278 20.7764H6.49609V17.9298H7.72337ZM7.69014 20.2492C7.77995 20.2501 7.86921 20.2351 7.95376 20.2049C8.03745 20.174 8.11315 20.1248 8.17529 20.0609C8.24648 19.9844 8.30081 19.8938 8.3348 19.795C8.3778 19.6666 8.39804 19.5317 8.39461 19.3963C8.39607 19.266 8.3827 19.1359 8.35473 19.0086C8.33043 18.9004 8.28363 18.7985 8.21738 18.7095C8.15034 18.6256 8.06251 18.5607 7.96262 18.5212C7.83909 18.4736 7.7073 18.451 7.57495 18.4548H7.13189V20.2492H7.69014Z" fill="#0B0B0B"></path>
    <path d="M10.236 18.7699C10.2963 18.5951 10.3896 18.4334 10.5107 18.2936C10.6337 18.1567 10.7849 18.0479 10.9537 17.9746C11.3315 17.821 11.7544 17.821 12.1323 17.9746C12.3013 18.0477 12.4524 18.1565 12.5753 18.2936C12.6972 18.4329 12.7905 18.5947 12.85 18.7699C12.9159 18.9609 12.9488 19.1616 12.9475 19.3636C12.9455 19.5587 12.9103 19.752 12.8434 19.9352C12.7841 20.1115 12.6891 20.2736 12.5642 20.4115C12.441 20.5465 12.2898 20.6531 12.1212 20.7238C11.7434 20.8775 11.3205 20.8775 10.9426 20.7238C10.7742 20.6529 10.623 20.5463 10.4996 20.4115C10.3811 20.2717 10.2915 20.1098 10.236 19.9352C10.171 19.7486 10.1388 19.5523 10.1407 19.3548C10.1396 19.1559 10.1718 18.9582 10.236 18.7699ZM10.8075 19.7136C10.8342 19.8227 10.8799 19.9262 10.9426 20.0194C11.0028 20.1119 11.085 20.1881 11.1819 20.2409C11.2923 20.299 11.416 20.3273 11.5408 20.3229C11.666 20.3246 11.7896 20.2941 11.8997 20.2342C11.9956 20.1801 12.0776 20.1042 12.1389 20.0127C12.2009 19.9194 12.2459 19.8159 12.2718 19.707C12.3004 19.5933 12.3145 19.4764 12.3139 19.3592C12.3147 19.2368 12.3005 19.1148 12.2718 18.9959C12.2468 18.8846 12.2017 18.7788 12.1389 18.6835C12.0788 18.591 11.9966 18.5148 11.8997 18.462C11.7886 18.406 11.6651 18.3793 11.5408 18.3845C11.416 18.38 11.2923 18.4083 11.1819 18.4664C11.0842 18.5181 11.0017 18.5945 10.9426 18.688C10.8791 18.7831 10.8333 18.8889 10.8075 19.0003C10.7806 19.1195 10.7673 19.2414 10.7676 19.3636C10.7672 19.4815 10.7806 19.5989 10.8075 19.7136Z" fill="#0B0B0B"></path>
    <path d="M14.8022 17.9297L15.9918 19.8393V17.9297H16.5789V20.7764H15.9586L14.78 18.8712V20.7764H14.1797V17.9297H14.8022Z" fill="#0B0B0B"></path>
    <path d="M20.0803 17.9297V18.4547H18.5761V19.0661H19.9563V19.5513H18.5761V20.2491H20.1114V20.7764H17.9492V17.9297H20.0803Z" fill="#0B0B0B"></path>
    <path d="M21.8268 20.0753C21.8595 20.1391 21.9065 20.1944 21.9641 20.237C22.0248 20.28 22.0933 20.3108 22.1657 20.3279C22.2438 20.3483 22.3242 20.3587 22.4049 20.3589C22.465 20.3585 22.5249 20.3541 22.5844 20.3456C22.6465 20.3355 22.7069 20.3169 22.7638 20.2902C22.8179 20.265 22.8656 20.2279 22.9034 20.1817C22.942 20.1309 22.9616 20.0682 22.9588 20.0044C22.9601 19.9697 22.9543 19.9351 22.9417 19.9027C22.9291 19.8703 22.91 19.8409 22.8857 19.8161C22.8298 19.7641 22.7644 19.7234 22.6929 19.6965C22.6041 19.6623 22.5131 19.6342 22.4205 19.6123C22.3208 19.5902 22.2166 19.5636 22.1147 19.5326C22.0086 19.5068 21.9043 19.4742 21.8024 19.4351C21.7058 19.3985 21.6148 19.3485 21.5321 19.2867C21.4528 19.2268 21.3864 19.1515 21.3372 19.0651C21.2857 18.9621 21.2606 18.848 21.2641 18.7328C21.2609 18.5998 21.293 18.4684 21.3571 18.3518C21.4191 18.246 21.5029 18.1547 21.603 18.0838C21.7065 18.0096 21.8229 17.9555 21.9464 17.9243C22.0711 17.8892 22.2001 17.8714 22.3296 17.8711C22.4737 17.871 22.6172 17.8881 22.7572 17.922C22.8882 17.9521 23.0123 18.007 23.1227 18.0838C23.2285 18.1566 23.3151 18.2538 23.3752 18.3673C23.4412 18.4976 23.4739 18.6422 23.4705 18.7882H22.8635C22.8626 18.7113 22.8444 18.6356 22.8103 18.5667C22.7813 18.513 22.7395 18.4674 22.6885 18.4338C22.6345 18.4015 22.5753 18.379 22.5135 18.3673C22.4406 18.3529 22.3663 18.3462 22.292 18.3474C22.2413 18.3471 22.1908 18.3523 22.1413 18.3629C22.0925 18.3726 22.0459 18.3914 22.004 18.4183C21.9633 18.4439 21.9285 18.4778 21.9021 18.518C21.879 18.5624 21.8669 18.6118 21.8669 18.662C21.8669 18.7121 21.879 18.7615 21.9021 18.806C21.9349 18.8484 21.9785 18.8813 22.0283 18.9012C22.1124 18.9373 22.199 18.9669 22.2875 18.9898L22.7306 19.1006C22.7838 19.1006 22.8569 19.1294 22.9521 19.1582C23.0517 19.189 23.1464 19.2338 23.2335 19.2911C23.3293 19.3565 23.4113 19.44 23.4749 19.537C23.5466 19.6549 23.582 19.7912 23.5768 19.9291C23.5777 20.0542 23.552 20.178 23.5015 20.2924C23.4512 20.405 23.3753 20.5044 23.28 20.5826C23.1692 20.6688 23.0429 20.7328 22.9078 20.7709C22.7418 20.8199 22.5692 20.843 22.3961 20.8396C22.2422 20.8396 22.0888 20.8202 21.9397 20.782C21.7944 20.7486 21.6568 20.6877 21.5343 20.6026C21.4211 20.52 21.3286 20.4123 21.2641 20.288C21.1949 20.1461 21.1622 19.9893 21.1688 19.8316H21.7758C21.7724 19.9158 21.7899 19.9996 21.8268 20.0753Z" fill="#0B0B0B"></path>
    <path d="M25.3786 17.9297V20.7764H24.7539V17.9297H25.3786Z" fill="#0B0B0B"></path>
    <path d="M28.1566 17.9297L29.2221 20.7764H28.5731L28.3515 20.1428H27.2882L27.0666 20.7764H26.4375L27.5119 17.9297H28.1566ZM28.1942 19.6753L27.8354 18.6319L27.4654 19.6753H28.1942Z" fill="#0B0B0B"></path>
    <path d="M33.5468 17.9298C33.6717 17.9284 33.7965 17.9403 33.9189 17.9652C34.021 17.9853 34.1181 18.0252 34.2047 18.0826C34.2853 18.1387 34.3495 18.2151 34.3908 18.3042C34.4382 18.4092 34.4609 18.5236 34.4573 18.6387C34.4622 18.7658 34.4273 18.8912 34.3576 18.9976C34.2851 19.1015 34.1855 19.1835 34.0696 19.2346C34.2275 19.2704 34.3669 19.3625 34.4617 19.4938C34.5384 19.6173 34.5828 19.7581 34.5909 19.9032C34.599 20.0484 34.5706 20.1932 34.5082 20.3245C34.4558 20.4266 34.3799 20.5147 34.2867 20.5815C34.1889 20.6499 34.0792 20.6995 33.9632 20.7277C33.842 20.7608 33.7168 20.7772 33.5911 20.7765H32.2109V17.9298H33.5468ZM33.467 19.0817C33.5649 19.0863 33.6615 19.0582 33.7417 19.002C33.7797 18.971 33.8094 18.9311 33.8283 18.8859C33.8473 18.8407 33.8548 18.7916 33.8503 18.7428C33.8529 18.686 33.8406 18.6295 33.8148 18.5789C33.7921 18.5381 33.7593 18.5038 33.7196 18.4792C33.6766 18.4541 33.6292 18.4375 33.58 18.4304C33.5275 18.4196 33.4741 18.4144 33.4205 18.4149H32.8334V19.0795L33.467 19.0817ZM33.5025 20.2891C33.562 20.29 33.6215 20.2841 33.6797 20.2714C33.732 20.2616 33.7817 20.2412 33.8259 20.2116C33.8691 20.1834 33.9042 20.1444 33.9278 20.0986C33.9546 20.0411 33.9675 19.9781 33.9655 19.9147C33.9711 19.8565 33.9628 19.7978 33.9412 19.7435C33.9196 19.6892 33.8854 19.6408 33.8414 19.6023C33.7461 19.5362 33.6316 19.5035 33.5158 19.5093H32.8334V20.2891H33.5025Z" fill="#0B0B0B"></path>
    <path d="M36.4489 17.9297V20.7764H35.8242V17.9297H36.4489Z" fill="#0B0B0B"></path>
    <path d="M37.5977 18.4547V17.9297H39.9237V18.4547H39.0708V20.7764H38.4439V18.4547H37.5977Z" fill="#0B0B0B"></path>
    <path d="M42.891 18.689C42.8549 18.6282 42.8075 18.5748 42.7514 18.5318C42.6958 18.4849 42.6319 18.4489 42.5631 18.4254C42.4922 18.3995 42.4171 18.3867 42.3416 18.3878C42.2168 18.3833 42.0931 18.4116 41.9827 18.4697C41.8854 18.5221 41.8031 18.5983 41.7434 18.6913C41.6797 18.786 41.6346 18.892 41.6105 19.0036C41.5818 19.1226 41.5677 19.2446 41.5684 19.3669C41.5678 19.4842 41.582 19.601 41.6105 19.7147C41.6355 19.824 41.6806 19.9277 41.7434 20.0204C41.8042 20.1125 41.8863 20.1885 41.9827 20.242C42.0931 20.3001 42.2168 20.3284 42.3416 20.3239C42.4237 20.3282 42.5057 20.3148 42.5821 20.2846C42.6586 20.2544 42.7276 20.2081 42.7846 20.1489C42.8985 20.0198 42.9676 19.8575 42.9818 19.6859H43.5888C43.5758 19.8488 43.5354 20.0084 43.4692 20.1578C43.4069 20.2954 43.3179 20.4192 43.2072 20.5219C43.0965 20.6246 42.9664 20.7042 42.8245 20.7559C42.6694 20.8105 42.506 20.8375 42.3416 20.8357C42.1392 20.839 41.9385 20.7998 41.7523 20.7205C41.5837 20.6498 41.4325 20.5432 41.3092 20.4081C41.1882 20.2703 41.0956 20.11 41.0368 19.9363C40.9718 19.7497 40.9396 19.5534 40.9415 19.3558C40.9394 19.154 40.9716 18.9532 41.0368 18.7621C41.0979 18.5872 41.1919 18.4255 41.3137 18.2859C41.4366 18.1488 41.5877 18.0399 41.7567 17.9669C41.9432 17.8886 42.1438 17.8494 42.346 17.8517C42.4964 17.8506 42.646 17.8738 42.7891 17.9203C42.9247 17.9631 43.0515 18.0299 43.1634 18.1175C43.2753 18.2048 43.368 18.3141 43.4359 18.4387C43.511 18.5755 43.557 18.7263 43.5711 18.8818H42.9663C42.9548 18.813 42.9291 18.7474 42.891 18.689Z" fill="#0B0B0B"></path>
    <path d="M44.8063 18.7699C44.8666 18.5951 44.9599 18.4334 45.081 18.2936C45.2041 18.1567 45.3552 18.0479 45.524 17.9746C45.9019 17.821 46.3248 17.821 46.7026 17.9746C46.8716 18.0477 47.0227 18.1565 47.1456 18.2936C47.2674 18.4333 47.3614 18.595 47.4225 18.7699C47.4866 18.9613 47.5188 19.1618 47.5178 19.3636C47.5186 19.5611 47.4864 19.7572 47.4225 19.944C47.3619 20.1165 47.2678 20.2754 47.1456 20.4115C47.0224 20.5465 46.8712 20.6531 46.7026 20.7238C46.3248 20.8775 45.9019 20.8775 45.524 20.7238C45.3555 20.6529 45.2044 20.5463 45.081 20.4115C44.9585 20.2726 44.8651 20.1107 44.8063 19.9352C44.7413 19.7486 44.7091 19.5523 44.711 19.3548C44.7099 19.1559 44.7421 18.9582 44.8063 18.7699ZM45.38 19.7136C45.405 19.8229 45.4501 19.9266 45.513 20.0194C45.5731 20.1119 45.6553 20.1881 45.7522 20.2409C45.8626 20.299 45.9864 20.3273 46.1111 20.3229C46.2358 20.3267 46.3593 20.2985 46.47 20.2409C46.5659 20.1868 46.6479 20.1109 46.7092 20.0194C46.7712 19.9261 46.8162 19.8226 46.8421 19.7136C46.8707 19.5999 46.8848 19.4831 46.8842 19.3658C46.885 19.2435 46.8708 19.1215 46.8421 19.0025C46.8171 18.8912 46.772 18.7854 46.7092 18.6902C46.6491 18.5976 46.5669 18.5215 46.47 18.4686C46.3593 18.4111 46.2358 18.3828 46.1111 18.3867C45.9864 18.3822 45.8626 18.4105 45.7522 18.4686C45.6545 18.5203 45.572 18.5967 45.513 18.6902C45.4492 18.7849 45.4041 18.8909 45.38 19.0025C45.3513 19.1215 45.3372 19.2435 45.3379 19.3658C45.3373 19.4831 45.3515 19.5999 45.38 19.7136Z" fill="#0B0B0B"></path>
    <path d="M49.3747 17.9297V20.7764H48.75V17.9297H49.3747Z" fill="#0B0B0B"></path>
    <path d="M51.3614 17.9297L52.551 19.8393V17.9297H53.1381V20.7764H52.5134L51.3348 18.8712V20.7764H50.75V17.9297H51.3614Z" fill="#0B0B0B"></path>
    <path d="M57.8485 17.9297L58.9141 20.7764H58.2628L58.0412 20.1428H56.9779L56.7564 20.7764H56.125L57.2016 17.9297H57.8485ZM57.884 19.6753L57.5361 18.6319L57.164 19.6753H57.884Z" fill="#0B0B0B"></path>
    <path d="M60.5991 17.9297L61.7887 19.8393V17.9297H62.3757V20.7764H61.7488L60.5658 18.8712V20.7764H59.9766V17.9297H60.5991Z" fill="#0B0B0B"></path>
    <path d="M64.9739 17.9298C65.1482 17.9281 65.3215 17.9574 65.4856 18.0161C65.6405 18.073 65.7811 18.163 65.8977 18.2798C66.0187 18.4062 66.1108 18.5574 66.1679 18.7228C66.2364 18.9215 66.2694 19.1308 66.2654 19.3409C66.2674 19.535 66.2405 19.7284 66.1857 19.9147C66.1378 20.0819 66.0555 20.2373 65.9442 20.371C65.8341 20.4998 65.6962 20.6021 65.541 20.6701C65.3621 20.7473 65.1687 20.7851 64.9739 20.7808H63.7422V17.9298H64.9739ZM64.9296 20.2492C65.0194 20.25 65.1086 20.235 65.1932 20.2049C65.277 20.1743 65.3528 20.1251 65.4147 20.0609C65.4859 19.9844 65.5403 19.8938 65.5742 19.795C65.6184 19.6669 65.6387 19.5317 65.6341 19.3963C65.6355 19.266 65.6221 19.1359 65.5942 19.0086C65.5691 18.9002 65.5216 18.7983 65.4546 18.7095C65.3889 18.6252 65.3017 18.5601 65.2021 18.5212C65.0785 18.4736 64.9468 18.451 64.8144 18.4548H64.3713V20.2492H64.9296Z" fill="#0B0B0B"></path>
    <path d="M71.262 18.6891C71.2259 18.6282 71.1786 18.5748 71.1224 18.5318C71.0668 18.4849 71.0029 18.4489 70.9341 18.4254C70.8632 18.3995 70.7881 18.3867 70.7126 18.3878C70.5879 18.3833 70.4641 18.4116 70.3537 18.4697C70.2568 18.5226 70.1746 18.5987 70.1145 18.6913C70.0507 18.786 70.0056 18.892 69.9815 19.0036C69.9528 19.1226 69.9387 19.2446 69.9394 19.3669C69.9388 19.4842 69.953 19.601 69.9815 19.7147C70.0065 19.824 70.0516 19.9277 70.1145 20.0205C70.1758 20.112 70.2577 20.1879 70.3537 20.242C70.4641 20.3001 70.5879 20.3284 70.7126 20.324C70.7946 20.3276 70.8765 20.314 70.9528 20.2838C71.0292 20.2536 71.0983 20.2077 71.1556 20.1489C71.2678 20.0188 71.3367 19.857 71.3528 19.686H71.9576C71.9441 19.8526 71.903 20.0158 71.8357 20.1689C71.7724 20.3066 71.6828 20.4308 71.5721 20.5344C71.4603 20.6329 71.33 20.7081 71.1889 20.7559C71.0338 20.8105 70.8703 20.8375 70.7059 20.8357C70.5043 20.8393 70.3042 20.8 70.1189 20.7205C69.9501 20.6502 69.7988 20.5435 69.6758 20.4081C69.5564 20.27 69.4653 20.1096 69.4078 19.9363C69.3439 19.7495 69.3117 19.5533 69.3125 19.3559C69.3116 19.1541 69.3437 18.9535 69.4078 18.7622C69.4689 18.5872 69.5629 18.4256 69.6847 18.2859C69.8073 18.1485 69.9586 18.0396 70.1278 17.9669C70.3134 17.8884 70.5133 17.8491 70.7148 17.8517C70.8652 17.8506 71.0148 17.8738 71.1579 17.9204C71.2935 17.9631 71.4203 18.0299 71.5323 18.1175C71.6441 18.2048 71.7368 18.3141 71.8047 18.4387C71.8805 18.5752 71.9266 18.7262 71.9399 18.8818H71.3351C71.3242 18.8132 71.2993 18.7476 71.262 18.6891Z" fill="#0B0B0B"></path>
    <path d="M74.7351 17.9299C74.8532 17.9276 74.9707 17.9486 75.0807 17.9919C75.1789 18.0299 75.2685 18.0871 75.3443 18.1602C75.4164 18.2312 75.473 18.3165 75.5104 18.4106C75.5491 18.5071 75.5686 18.6101 75.568 18.7141C75.5733 18.8684 75.5374 19.0213 75.4639 19.1571C75.3845 19.2879 75.2625 19.3873 75.1183 19.4385C75.1883 19.4564 75.2534 19.4897 75.3088 19.536C75.3597 19.5793 75.4018 19.6319 75.4329 19.691C75.4654 19.754 75.4892 19.821 75.5038 19.8904C75.5181 19.9635 75.5278 20.0375 75.5326 20.1119C75.5326 20.1562 75.5326 20.2094 75.5326 20.2714C75.5326 20.3335 75.5326 20.3955 75.5459 20.4575C75.5524 20.5187 75.5628 20.5793 75.5769 20.6392C75.5899 20.6915 75.6125 20.7411 75.6433 20.7854H75.0363C74.9997 20.6813 74.9788 20.5722 74.9743 20.4619C74.9743 20.3379 74.9544 20.2183 74.9367 20.1031C74.9277 19.9822 74.8803 19.8673 74.8015 19.7752C74.7063 19.6981 74.5846 19.6615 74.4626 19.6733H73.8379V20.7809H73.2109V17.9299H74.7351ZM74.5135 19.2169C74.6294 19.2263 74.7447 19.1924 74.837 19.1217C74.8759 19.0806 74.9058 19.0317 74.9245 18.9782C74.9432 18.9248 74.9504 18.868 74.9455 18.8115C74.9504 18.7565 74.9432 18.701 74.9244 18.6489C74.9057 18.5969 74.8758 18.5496 74.837 18.5103C74.7447 18.4396 74.6294 18.4056 74.5135 18.415H73.829V19.2169H74.5135Z" fill="#0B0B0B"></path>
    <path d="M76.4375 17.9297H77.1375L77.8021 19.0528L78.4667 17.9297H79.1645L78.1078 19.6842V20.7764H77.472V19.6687L76.4375 17.9297Z" fill="#0B0B0B"></path>
    <path d="M81.5064 17.9302C81.6614 17.9256 81.8158 17.952 81.9605 18.0077C82.0754 18.0526 82.179 18.1222 82.264 18.2115C82.3422 18.2953 82.4012 18.3951 82.4368 18.504C82.5048 18.7203 82.5048 18.9522 82.4368 19.1685C82.4022 19.2779 82.3431 19.3779 82.264 19.461C82.1797 19.5517 82.076 19.6222 81.9605 19.667C81.8155 19.7217 81.6613 19.748 81.5064 19.7445H80.8418V20.7658H80.2148V17.9302H81.5064ZM81.3336 19.2594C81.4033 19.26 81.473 19.2548 81.5418 19.2439C81.6039 19.2358 81.6635 19.2146 81.7168 19.1818C81.7685 19.1511 81.8107 19.1066 81.8387 19.0534C81.87 18.9837 81.8861 18.9082 81.8861 18.8318C81.8861 18.7555 81.87 18.68 81.8387 18.6103C81.8101 18.5569 81.7681 18.5118 81.7168 18.4796C81.6629 18.4485 81.6035 18.4282 81.5418 18.4198C81.473 18.4081 81.4034 18.4022 81.3336 18.4021H80.8484V19.2727L81.3336 19.2594Z" fill="#0B0B0B"></path>
    <path d="M83.4688 18.4547V17.9297H85.8015V18.4547H84.9486V20.7764H84.3216V18.4547H83.4688Z" fill="#0B0B0B"></path>
    <path d="M86.9117 18.7699C86.9721 18.5951 87.0654 18.4334 87.1864 18.2936C87.3095 18.1567 87.4606 18.0479 87.6295 17.9746C88.0073 17.821 88.4302 17.821 88.808 17.9746C88.9771 18.0477 89.1282 18.1565 89.2511 18.2936C89.373 18.4329 89.4663 18.5947 89.5258 18.7699C89.5916 18.9609 89.6246 19.1616 89.6233 19.3636C89.6244 19.5613 89.5915 19.7576 89.5258 19.944C89.4668 20.1168 89.3733 20.2758 89.2511 20.4115C89.1279 20.5465 88.9767 20.6531 88.808 20.7238C88.4302 20.8775 88.0073 20.8775 87.6295 20.7238C87.461 20.6529 87.3099 20.5463 87.1864 20.4115C87.064 20.2726 86.9706 20.1107 86.9117 19.9352C86.8468 19.7486 86.8146 19.5523 86.8165 19.3548C86.8154 19.1559 86.8476 18.9582 86.9117 18.7699ZM87.4855 19.7136C87.5105 19.8229 87.5555 19.9266 87.6184 20.0194C87.6785 20.1119 87.7608 20.1881 87.8577 20.2409C87.9681 20.299 88.0918 20.3273 88.2166 20.3229C88.3412 20.3267 88.4648 20.2985 88.5754 20.2409C88.6714 20.1868 88.7534 20.1109 88.8147 20.0194C88.8767 19.9261 88.9217 19.8226 88.9476 19.7136C88.9762 19.5999 88.9903 19.4831 88.9897 19.3658C88.9904 19.2435 88.9763 19.1215 88.9476 19.0025C88.9225 18.8912 88.8775 18.7854 88.8147 18.6902C88.7546 18.5976 88.6723 18.5215 88.5754 18.4686C88.465 18.4103 88.3414 18.3813 88.2166 18.3845C88.0918 18.38 87.9681 18.4083 87.8577 18.4664C87.76 18.5181 87.6775 18.5945 87.6184 18.688C87.5547 18.7827 87.5096 18.8887 87.4855 19.0003C87.4568 19.1193 87.4427 19.2413 87.4434 19.3636C87.4426 19.4816 87.4568 19.5992 87.4855 19.7136Z" fill="#0B0B0B"></path>
    <path d="M94.9102 17.9297V18.4547H93.4082V19.0661H94.7861V19.5513H93.4082V20.2491H94.9434V20.7764H92.7812V17.9297H94.9102Z" fill="#0B0B0B"></path>
    <path d="M95.9603 17.9297H96.6848L97.243 18.838L97.8212 17.9297H98.5079L97.5952 19.2899L98.5877 20.7764H97.8411L97.2186 19.7905L96.5851 20.7764H95.8828L96.8775 19.2855L95.9603 17.9297Z" fill="#0B0B0B"></path>
    <path d="M101.476 18.6891C101.439 18.6292 101.392 18.576 101.337 18.5318C101.28 18.4849 101.216 18.4489 101.146 18.4254C101.075 18.3994 101 18.3866 100.925 18.3878C100.8 18.3839 100.677 18.4122 100.566 18.4697C100.469 18.5226 100.387 18.5987 100.327 18.6913C100.265 18.787 100.22 18.8927 100.194 19.0036C100.165 19.1226 100.151 19.2446 100.152 19.3669C100.151 19.4842 100.165 19.601 100.194 19.7147C100.221 19.8234 100.266 19.9267 100.327 20.0205C100.388 20.112 100.47 20.1879 100.566 20.242C100.677 20.2996 100.8 20.3278 100.925 20.324C101.007 20.3278 101.089 20.3142 101.165 20.284C101.241 20.2538 101.311 20.2078 101.368 20.1489C101.481 20.0194 101.55 19.8573 101.565 19.686H102.172C102.162 19.8481 102.125 20.0074 102.063 20.1578C102.001 20.296 101.911 20.4203 101.8 20.5233C101.688 20.6222 101.558 20.6976 101.417 20.7449C101.262 20.7996 101.098 20.8266 100.934 20.8246C100.732 20.8282 100.532 20.7889 100.347 20.7094C100.178 20.6391 100.026 20.5325 99.9035 20.3971C99.782 20.263 99.688 20.1065 99.6266 19.9363C99.5617 19.7497 99.5294 19.5534 99.5313 19.3559C99.5293 19.154 99.5615 18.9533 99.6266 18.7622C99.687 18.5873 99.7802 18.4257 99.9013 18.2859C100.024 18.1485 100.175 18.0396 100.344 17.9669C100.53 17.8884 100.73 17.8491 100.931 17.8517C101.082 17.8506 101.231 17.8738 101.374 17.9204C101.51 17.9631 101.637 18.0299 101.749 18.1175C101.861 18.2053 101.954 18.3145 102.024 18.4387C102.098 18.576 102.144 18.7266 102.159 18.8818H101.552C101.54 18.813 101.515 18.7474 101.476 18.6891Z" fill="#0B0B0B"></path>
    <path d="M104.046 17.9297V19.0218H105.198V17.9297H105.832V20.7764H105.205V19.5491H104.053V20.7764H103.426V17.9297H104.046Z" fill="#0B0B0B"></path>
    <path d="M108.606 17.9297L109.672 20.7764H109.021L108.799 20.1428H107.736L107.514 20.7764H106.883L107.959 17.9297H108.606ZM108.642 19.6753L108.283 18.6319L107.911 19.6753H108.642Z" fill="#0B0B0B"></path>
    <path d="M111.357 17.9297L112.547 19.8393V17.9297H113.145V20.7764H112.518L111.335 18.8712V20.7764H110.75V17.9297H111.357Z" fill="#0B0B0B"></path>
    <path d="M116.187 20.7537C116.058 20.81 115.918 20.8394 115.777 20.8401C115.575 20.8437 115.374 20.8044 115.188 20.7249C115.019 20.6546 114.868 20.548 114.745 20.4126C114.623 20.2737 114.529 20.1118 114.47 19.9363C114.405 19.7497 114.373 19.5534 114.375 19.3559C114.373 19.154 114.405 18.9532 114.47 18.7622C114.531 18.5873 114.624 18.4257 114.745 18.2859C114.868 18.1485 115.019 18.0396 115.188 17.9669C115.375 17.8884 115.575 17.8492 115.777 17.8517C115.921 17.8514 116.064 17.8738 116.201 17.9181C116.335 17.9608 116.46 18.0259 116.573 18.1109C116.683 18.1976 116.775 18.3043 116.845 18.4254C116.92 18.562 116.965 18.7131 116.976 18.8685H116.378C116.351 18.7256 116.272 18.5978 116.156 18.5096C116.047 18.428 115.914 18.3844 115.777 18.3856C115.653 18.3811 115.529 18.4094 115.419 18.4675C115.321 18.5192 115.238 18.5956 115.179 18.6891C115.116 18.7842 115.07 18.89 115.044 19.0014C115.017 19.1206 115.002 19.2424 115.002 19.3647C115.003 19.4819 115.017 19.5986 115.044 19.7125C115.071 19.8216 115.117 19.9251 115.179 20.0182C115.239 20.1108 115.322 20.1869 115.419 20.2398C115.529 20.2979 115.653 20.3262 115.777 20.3217C115.951 20.3325 116.122 20.2762 116.256 20.1645C116.378 20.0453 116.452 19.8852 116.464 19.7147H115.833V19.2362H117.029V20.787H116.63L116.566 20.4635C116.467 20.5915 116.337 20.6915 116.187 20.7537Z" fill="#0B0B0B"></path>
    <path d="M120.469 17.9297V18.4547H118.967V19.0661H120.345V19.5513H118.967V20.2491H120.502V20.7764H118.34V17.9297H120.469Z" fill="#0B0B0B"></path>
    <path fill-rule="evenodd" clip-rule="evenodd" d="M30.9538 13.3086C31.1115 13.3086 31.2657 13.3554 31.3968 13.443C31.528 13.5306 31.6302 13.6552 31.6906 13.8009C31.7509 13.9466 31.7667 14.107 31.7359 14.2617C31.7052 14.4164 31.6292 14.5585 31.5177 14.67C31.4061 14.7816 31.264 14.8575 31.1093 14.8883C30.9546 14.9191 30.7943 14.9033 30.6486 14.8429C30.5028 14.7825 30.3783 14.6803 30.2907 14.5492C30.203 14.418 30.1562 14.2638 30.1562 14.1061C30.1562 13.8946 30.2403 13.6917 30.3898 13.5422C30.5394 13.3926 30.7422 13.3086 30.9538 13.3086Z" fill="#0084B5"></path>
    <path fill-rule="evenodd" clip-rule="evenodd" d="M57.0944 10.3516C57.2521 10.3516 57.4063 10.3983 57.5375 10.486C57.6686 10.5736 57.7708 10.6982 57.8312 10.8439C57.8915 10.9896 57.9073 11.15 57.8766 11.3047C57.8458 11.4594 57.7698 11.6015 57.6583 11.713C57.5468 11.8245 57.4047 11.9005 57.25 11.9313C57.0953 11.962 56.9349 11.9462 56.7892 11.8859C56.6435 11.8255 56.5189 11.7233 56.4313 11.5921C56.3437 11.461 56.2969 11.3068 56.2969 11.1491C56.2969 10.9376 56.3809 10.7347 56.5305 10.5851C56.68 10.4356 56.8829 10.3516 57.0944 10.3516Z" fill="#0084B5"></path>
    <path fill-rule="evenodd" clip-rule="evenodd" d="M60.9928 13.082C61.1506 13.082 61.3047 13.1288 61.4359 13.2164C61.567 13.3041 61.6693 13.4286 61.7296 13.5743C61.79 13.7201 61.8058 13.8804 61.775 14.0351C61.7442 14.1898 61.6683 14.3319 61.5567 14.4435C61.4452 14.555 61.3031 14.631 61.1484 14.6617C60.9937 14.6925 60.8334 14.6767 60.6876 14.6163C60.5419 14.556 60.4174 14.4538 60.3297 14.3226C60.2421 14.1915 60.1953 14.0373 60.1953 13.8795C60.1953 13.668 60.2793 13.4652 60.4289 13.3156C60.5785 13.1661 60.7813 13.082 60.9928 13.082Z" fill="#0084B5"></path>
    <path fill-rule="evenodd" clip-rule="evenodd" d="M70.3874 10.375C70.5451 10.375 70.6993 10.4218 70.8304 10.5094C70.9616 10.597 71.0638 10.7216 71.1242 10.8673C71.1845 11.013 71.2003 11.1734 71.1695 11.3281C71.1388 11.4828 71.0628 11.6249 70.9513 11.7364C70.8397 11.848 70.6976 11.9239 70.5429 11.9547C70.3882 11.9855 70.2279 11.9697 70.0822 11.9093C69.9364 11.8489 69.8119 11.7467 69.7243 11.6156C69.6366 11.4844 69.5898 11.3302 69.5898 11.1725C69.5898 10.961 69.6739 10.7581 69.8234 10.6086C69.973 10.459 70.1758 10.375 70.3874 10.375Z" fill="#0084B5"></path>
    <path fill-rule="evenodd" clip-rule="evenodd" d="M68.9069 13.3086C69.0646 13.3086 69.2188 13.3554 69.35 13.443C69.4811 13.5306 69.5833 13.6552 69.6437 13.8009C69.704 13.9466 69.7198 14.107 69.6891 14.2617C69.6583 14.4164 69.5823 14.5585 69.4708 14.67C69.3593 14.7816 69.2172 14.8575 69.0625 14.8883C68.9078 14.9191 68.7474 14.9033 68.6017 14.8429C68.456 14.7825 68.3314 14.6803 68.2438 14.5492C68.1561 14.418 68.1094 14.2638 68.1094 14.1061C68.1094 14.0014 68.13 13.8977 68.1701 13.8009C68.2102 13.7042 68.2689 13.6162 68.343 13.5422C68.417 13.4681 68.5049 13.4094 68.6017 13.3693C68.6984 13.3292 68.8021 13.3086 68.9069 13.3086Z" fill="#0084B5"></path>
    <path fill-rule="evenodd" clip-rule="evenodd" d="M98.1608 6.82812C98.3185 6.82812 98.4727 6.8749 98.6039 6.96253C98.735 7.05016 98.8372 7.17471 98.8976 7.32044C98.958 7.46617 98.9737 7.62652 98.943 7.78122C98.9122 7.93592 98.8363 8.07802 98.7247 8.18956C98.6132 8.30109 98.4711 8.37705 98.3164 8.40782C98.1617 8.43859 98.0013 8.4228 97.8556 8.36244C97.7099 8.30208 97.5853 8.19986 97.4977 8.06871C97.4101 7.93756 97.3633 7.78337 97.3633 7.62563C97.3633 7.41412 97.4473 7.21127 97.5969 7.06171C97.7464 6.91215 97.9493 6.82812 98.1608 6.82812Z" fill="#0084B5"></path>
    <path fill-rule="evenodd" clip-rule="evenodd" d="M86.4303 11.9609C86.5881 11.9609 86.7422 12.0077 86.8734 12.0953C87.0045 12.183 87.1068 12.3075 87.1671 12.4533C87.2275 12.599 87.2433 12.7593 87.2125 12.914C87.1817 13.0687 87.1058 13.2108 86.9942 13.3224C86.8827 13.4339 86.7406 13.5099 86.5859 13.5406C86.4312 13.5714 86.2709 13.5556 86.1251 13.4952C85.9794 13.4349 85.8549 13.3327 85.7672 13.2015C85.6796 13.0704 85.6328 12.9162 85.6328 12.7584C85.6328 12.5469 85.7168 12.3441 85.8664 12.1945C86.016 12.045 86.2188 11.9609 86.4303 11.9609Z" fill="#0084B5"></path>
    <path fill-rule="evenodd" clip-rule="evenodd" d="M89.442 11.2969C89.5998 11.2969 89.754 11.3436 89.8851 11.4313C90.0163 11.5189 90.1185 11.6435 90.1788 11.7892C90.2392 11.9349 90.255 12.0953 90.2242 12.25C90.1935 12.4047 90.1175 12.5468 90.006 12.6583C89.8944 12.7698 89.7523 12.8458 89.5976 12.8766C89.4429 12.9073 89.2826 12.8915 89.1368 12.8312C88.9911 12.7708 88.8666 12.6686 88.7789 12.5375C88.6913 12.4063 88.6445 12.2521 88.6445 12.0944C88.6445 11.9897 88.6652 11.8859 88.7052 11.7892C88.7453 11.6924 88.8041 11.6045 88.8781 11.5305C88.9522 11.4564 89.0401 11.3977 89.1368 11.3576C89.2336 11.3175 89.3373 11.2969 89.442 11.2969Z" fill="#0084B5"></path>
    <path fill-rule="evenodd" clip-rule="evenodd" d="M99.6295 11.9609C99.7873 11.9609 99.9415 12.0077 100.073 12.0953C100.204 12.183 100.306 12.3075 100.366 12.4533C100.427 12.599 100.442 12.7593 100.412 12.914C100.381 13.0687 100.305 13.2108 100.193 13.3224C100.082 13.4339 99.9398 13.5099 99.7851 13.5406C99.6304 13.5714 99.4701 13.5556 99.3243 13.4952C99.1786 13.4349 99.0541 13.3327 98.9664 13.2015C98.8788 13.0704 98.832 12.9162 98.832 12.7584C98.832 12.5469 98.9161 12.3441 99.0656 12.1945C99.2152 12.045 99.418 11.9609 99.6295 11.9609Z" fill="#0084B5"></path>
    <path fill-rule="evenodd" clip-rule="evenodd" d="M105.579 2.73828C105.736 2.73828 105.891 2.78505 106.022 2.87269C106.153 2.96032 106.255 3.08487 106.316 3.2306C106.376 3.37632 106.392 3.53668 106.361 3.69138C106.33 3.84608 106.254 3.98818 106.143 4.09971C106.031 4.21125 105.889 4.2872 105.734 4.31798C105.58 4.34875 105.419 4.33295 105.274 4.27259C105.128 4.21223 105.003 4.11001 104.916 3.97886C104.828 3.84771 104.781 3.69352 104.781 3.53579C104.781 3.32428 104.865 3.12143 105.015 2.97187C105.164 2.8223 105.367 2.73828 105.579 2.73828Z" fill="#0084B5"></path>
    <path fill-rule="evenodd" clip-rule="evenodd" d="M109.13 4.29688C109.287 4.29688 109.441 4.34365 109.573 4.43128C109.704 4.51891 109.806 4.64346 109.866 4.78919C109.927 4.93492 109.942 5.09527 109.912 5.24997C109.881 5.40467 109.805 5.54677 109.693 5.65831C109.582 5.76984 109.44 5.8458 109.285 5.87657C109.13 5.90734 108.97 5.89155 108.824 5.83119C108.679 5.77082 108.554 5.66861 108.466 5.53746C108.379 5.40631 108.332 5.25212 108.332 5.09438C108.332 4.98965 108.353 4.88595 108.393 4.78919C108.433 4.69243 108.492 4.60452 108.566 4.53046C108.64 4.4564 108.728 4.39766 108.824 4.35758C108.921 4.3175 109.025 4.29687 109.13 4.29688Z" fill="#0084B5"></path>
    <path fill-rule="evenodd" clip-rule="evenodd" d="M116.686 8.36719C116.844 8.36675 116.998 8.41315 117.13 8.50052C117.261 8.58788 117.364 8.71228 117.424 8.85797C117.485 9.00365 117.501 9.16408 117.471 9.31892C117.44 9.47377 117.364 9.61608 117.253 9.72784C117.141 9.83959 116.999 9.91577 116.845 9.94672C116.69 9.97767 116.529 9.96201 116.383 9.90171C116.238 9.84142 116.113 9.7392 116.025 9.608C115.937 9.4768 115.891 9.32253 115.891 9.1647C115.891 8.95357 115.974 8.75106 116.123 8.60156C116.273 8.45206 116.475 8.36778 116.686 8.36719Z" fill="#0084B5"></path>
    <path fill-rule="evenodd" clip-rule="evenodd" d="M117.985 2.80078C118.143 2.80078 118.297 2.84755 118.428 2.93519C118.559 3.02282 118.661 3.14737 118.722 3.2931C118.782 3.43882 118.798 3.59918 118.767 3.75388C118.736 3.90858 118.66 4.05068 118.549 4.16221C118.437 4.27375 118.295 4.3497 118.141 4.38048C117.986 4.41125 117.826 4.39545 117.68 4.33509C117.534 4.27473 117.41 4.17251 117.322 4.04136C117.234 3.91021 117.188 3.75602 117.188 3.59829C117.188 3.38678 117.272 3.18393 117.421 3.03437C117.571 2.8848 117.773 2.80078 117.985 2.80078Z" fill="#0084B5"></path>
    <path fill-rule="evenodd" clip-rule="evenodd" d="M117.989 11.7109C118.147 11.7109 118.301 11.7577 118.432 11.8453C118.563 11.933 118.665 12.0575 118.726 12.2033C118.786 12.349 118.802 12.5093 118.771 12.664C118.74 12.8187 118.664 12.9608 118.553 13.0724C118.441 13.1839 118.299 13.2599 118.145 13.2906C117.99 13.3214 117.829 13.3056 117.684 13.2452C117.538 13.1849 117.413 13.0827 117.326 12.9515C117.238 12.8204 117.191 12.6662 117.191 12.5084C117.191 12.2969 117.275 12.0941 117.425 11.9445C117.575 11.795 117.777 11.7109 117.989 11.7109Z" fill="#0084B5"></path>
    <path fill-rule="evenodd" clip-rule="evenodd" d="M105.583 11.707C105.74 11.707 105.895 11.7538 106.026 11.8414C106.157 11.9291 106.259 12.0536 106.319 12.1993C106.38 12.3451 106.396 12.5054 106.365 12.6601C106.334 12.8148 106.258 12.9569 106.147 13.0685C106.035 13.18 105.893 13.256 105.738 13.2867C105.584 13.3175 105.423 13.3017 105.277 13.2413C105.132 13.181 105.007 13.0788 104.92 12.9476C104.832 12.8165 104.785 12.6623 104.785 12.5045C104.785 12.293 104.869 12.0902 105.019 11.9406C105.168 11.7911 105.371 11.707 105.583 11.707Z" fill="#0084B5"></path>
  </g>
  <defs>
    <clipPath id="clip0_3551_4011">
      <rect width="120.344" height="20.177" fill="white" transform="translate(0.609375 0.664062)"></rect>
    </clipPath>
  </defs>
</svg>
