<?xml version="1.0" encoding="UTF-8"?>
<svg xmlns="http://www.w3.org/2000/svg" width="34" height="28" viewBox="0 0 34 28" fill="none">
  <g clip-path="url(#clip0_3551_4486)">
    <path d="M4.92488 11.0033C4.84274 11.1724 4.76975 11.3458 4.70621 11.5228C4.19465 12.6175 3.646 13.691 2.7912 14.5709C2.58338 14.7882 2.32066 14.9451 2.03087 15.0252C1.74109 15.1051 1.43505 15.1053 1.1452 15.0255C0.796655 14.9459 0.653525 14.7458 0.607141 14.388C0.495944 13.5803 0.462659 12.7637 0.507745 11.9495C0.593888 10.5474 0.931833 9.19694 1.38507 7.87035C1.66592 7.01163 2.04199 6.18703 2.50626 5.41196C2.85745 4.83944 3.12649 4.21921 3.50022 3.66127C4.07936 2.7919 4.69561 1.95565 5.56897 1.34602C6.11365 0.964342 6.68883 0.66483 7.37399 0.618446C7.58486 0.597563 7.79775 0.612801 8.0035 0.663505C8.3918 0.769527 8.62107 1.06904 8.65553 1.50505C8.69926 2.02721 8.56674 2.52286 8.41433 3.01586C8.16448 3.90671 7.80525 4.76317 7.34483 5.56569C7.12086 5.9381 6.98038 6.36085 6.80015 6.75844C6.75244 6.86314 6.69545 6.96386 6.65569 7.07518C6.85241 6.9197 7.03032 6.74179 7.1858 6.54507C7.21939 6.49767 7.25708 6.45333 7.29845 6.41254C8.3189 5.59618 9.25059 4.67511 10.2776 3.86536C10.8356 3.42405 11.4201 3.02382 12.0165 2.64082C12.5267 2.31347 13.1098 2.21143 13.7088 2.18492C13.7067 2.24866 13.6859 2.31038 13.6492 2.36251C13.2642 3.07054 12.7801 3.71987 12.2112 4.29078C11.6069 4.92691 10.9695 5.53256 10.3386 6.14616C9.62428 6.83928 8.92856 7.55228 8.21819 8.25468C8.00614 8.47333 7.77409 8.67167 7.52507 8.84707C7.41772 8.91996 7.43628 8.97958 7.53302 9.01136C7.75288 9.10115 7.98454 9.15873 8.22084 9.1824C8.23409 9.27117 8.30963 9.31488 8.36794 9.36129C9.18295 10.0981 9.99805 10.835 10.6938 11.6911C10.8366 11.8613 10.9878 12.024 11.1471 12.1788C11.5605 12.6131 11.8529 13.1482 11.9952 13.7307C12.0177 13.8443 12.0314 13.9596 12.0363 14.0753C11.9826 14.0749 11.9303 14.0926 11.8879 14.1256C11.4571 14.3699 10.9529 14.4512 10.4672 14.3549C9.96837 14.2667 9.48461 14.1079 9.03061 13.8831C8.50047 13.6366 7.99687 13.353 7.48929 13.068C6.92586 12.7752 6.41489 12.3909 5.97715 11.931C5.86549 11.8114 5.74642 11.699 5.62065 11.5944C5.40861 11.4168 5.16476 11.2618 5.07464 10.9728C5.06994 10.9546 5.05931 10.9385 5.04444 10.927C5.02956 10.9155 5.01128 10.9092 4.99247 10.9092C4.93814 10.9132 4.93416 10.9675 4.92488 11.0033Z" fill="black"></path>
    <path d="M15.7973 18.7197C15.6488 18.4055 15.5702 18.0628 15.5667 17.7153C15.5634 17.3679 15.6352 17.0237 15.7774 16.7066C15.9523 16.2945 16.448 16.0771 16.9834 16.1182C17.5679 16.1633 17.9695 16.4402 18.1881 16.9929C18.3789 17.4726 18.6838 17.8875 18.9701 18.3181C19.524 19.1424 20.0992 19.9548 20.5272 20.8561C20.7128 21.247 20.8758 21.6512 20.8122 22.0912C20.7035 22.8281 20.5603 23.5622 20.176 24.2196C19.8381 24.8001 19.4591 25.346 18.8349 25.6628C18.4924 25.8196 18.1378 25.9486 17.7746 26.0484C17.1385 26.2526 16.4944 26.446 15.8199 26.4037C14.6841 26.3321 13.604 26.0591 12.6776 25.358C12.3708 25.1053 12.0914 24.821 11.844 24.5098C11.5058 24.105 11.3082 23.6014 11.2808 23.0746C11.241 22.6319 11.2556 22.1866 11.2305 21.7427C11.2305 21.626 11.2689 21.5823 11.3735 21.5438C11.7484 21.3917 12.0644 21.1233 12.2754 20.7781C12.4862 20.4329 12.5808 20.0291 12.5451 19.6262C12.4854 19.1265 12.1581 18.8416 11.5896 18.8311C11.408 18.8311 11.3669 18.7873 11.3776 18.611C11.408 18.1578 11.4027 17.7032 11.5326 17.2606C11.5846 17.0441 11.7066 16.8507 11.8799 16.7106C12.1842 16.4632 12.5592 16.3187 12.9509 16.2977C13.3426 16.2767 13.7309 16.3805 14.0599 16.5939C14.2107 16.6891 14.3361 16.8193 14.4256 16.9735C14.5152 17.1277 14.5662 17.3012 14.5741 17.4793C14.6351 18.0796 14.5489 18.672 14.5436 19.271C14.5436 19.8237 14.4707 20.3803 14.5966 20.9316C14.677 21.3005 14.8062 21.6571 14.9809 21.9918C15.1221 22.2299 15.3384 22.4145 15.5957 22.5163C15.8531 22.6183 16.1371 22.6319 16.403 22.5551L16.5355 22.5153C16.5364 22.539 16.532 22.5626 16.5226 22.5844C16.5132 22.6062 16.499 22.6256 16.4812 22.6412C16.2412 22.9139 15.9631 23.1504 15.6555 23.3436C15.6118 23.3701 15.5481 23.3833 15.5548 23.4509C15.5614 23.5185 15.6343 23.5239 15.6873 23.5331C16.2175 23.6206 16.7157 23.4536 17.1703 23.2071C17.6249 22.9606 17.7428 22.4914 17.7667 22.0143C17.7985 21.361 17.5639 20.7739 17.2246 20.2292C16.9788 19.8355 16.6976 19.4651 16.3845 19.1226C16.2382 18.9276 16.0319 18.786 15.7973 18.7197Z" fill="black"></path>
    <path d="M2.47007 19.3162C2.45284 19.2288 2.43959 19.1386 2.41573 19.0511C2.40115 18.9955 2.37995 18.9477 2.46079 18.9318C2.5032 18.9226 2.5297 18.8974 2.51645 18.8524C2.5032 18.8073 2.46476 18.8086 2.42633 18.8033C2.20444 18.7936 1.98324 18.772 1.7637 18.7384C1.6379 18.7167 1.51828 18.668 1.41305 18.5957C1.30783 18.5234 1.21948 18.4292 1.15407 18.3196C0.812447 17.7112 0.664502 17.0131 0.729984 16.3184C0.771067 15.9116 1.00697 15.6704 1.38334 15.5233C2.16658 15.2184 2.94982 15.2317 3.74896 15.4451C4.47056 15.6264 5.18156 15.8477 5.87868 16.1077C6.61287 16.3953 7.3643 16.4059 8.13163 16.3025C8.77038 16.215 9.40387 16.0891 10.052 16.0732C10.2584 16.0648 10.4652 16.0764 10.6695 16.1077C11.1016 16.1793 11.2938 16.4364 11.2752 16.9108C11.2654 17.0636 11.2451 17.2155 11.2142 17.3654C11.1884 17.4877 11.1345 17.6025 11.0568 17.7005C10.979 17.7984 10.8796 17.877 10.7663 17.93C10.3818 18.1321 9.96195 18.258 9.52984 18.3011C8.86719 18.3885 8.1979 18.5117 7.52598 18.4972C7.05588 18.4723 6.58447 18.498 6.11987 18.5741C5.86926 18.6201 5.63285 18.7241 5.42941 18.8776C5.44266 18.8842 5.45193 18.8935 5.45724 18.8908C5.60832 18.8444 5.72229 18.8405 5.72229 19.0577C5.72229 19.0976 5.76072 19.1413 5.78458 19.1823C5.80844 19.2234 5.82964 19.2327 5.78458 19.2578C5.60036 19.3586 5.77 19.3612 5.82168 19.3719C6.15007 19.4312 6.48328 19.4596 6.81696 19.4567C7.62193 19.488 8.4281 19.4601 9.22895 19.3732C9.88501 19.291 10.541 19.2048 11.1997 19.1426C11.4038 19.1107 11.6118 19.1148 11.8146 19.1545C11.934 19.174 12.0424 19.2359 12.1199 19.3289C12.1973 19.4219 12.2386 19.5398 12.236 19.6608C12.236 20.3751 11.9404 21.145 10.9186 21.3598C10.0283 21.5459 9.1231 21.6519 8.2138 21.6765C7.82255 21.6822 7.43228 21.7172 7.04624 21.7812C6.93108 21.7969 6.81518 21.8066 6.69902 21.8104C6.81264 21.8788 6.94054 21.9201 7.07274 21.931C7.10829 21.9346 7.14178 21.9494 7.16843 21.9732C7.19509 21.997 7.21354 22.0286 7.22118 22.0635C7.32415 22.4243 7.51285 22.7548 7.77116 23.027C7.88657 23.158 7.9862 23.3021 8.06802 23.4564C8.33308 23.8606 8.73066 24.119 9.06992 24.445C9.28331 24.6518 9.52316 24.828 9.71931 25.052C9.97243 25.3395 10.0731 25.6603 9.9234 26.0327C9.27866 26.0379 8.64218 25.8874 8.06802 25.594C7.58032 25.3502 7.0913 25.113 6.62083 24.8386C6.03285 24.5172 5.49229 24.1158 5.01459 23.6459C4.61701 23.2351 4.31353 22.7513 3.97293 22.2954C3.44282 21.593 3.14198 20.7819 2.80801 19.9828C2.70597 19.7482 2.64368 19.5044 2.47007 19.3162Z" fill="black"></path>
    <path d="M18.1081 9.43617C18.1887 10.1616 18.3492 10.8758 18.5866 11.5659C18.7912 12.1683 18.8467 12.8113 18.7482 13.4398C18.6807 13.4398 18.6528 13.4956 18.6157 13.5472C18.4319 13.8625 18.1889 14.1392 17.9001 14.3622C17.716 14.524 17.4754 14.6065 17.2308 14.5915C16.7895 14.5518 16.5138 14.2788 16.3031 13.9289C16.0526 13.5008 15.944 13.0184 15.8207 12.544C15.5875 11.6534 15.5212 10.7403 15.4695 9.82584C15.5424 9.7954 15.6762 9.84571 15.6816 9.73969C15.6869 9.63367 15.5583 9.65092 15.4801 9.62708C15.0004 9.47464 14.518 9.55022 14.0356 9.6138C13.8227 9.64889 13.6124 9.69801 13.406 9.76091C13.3716 9.71323 13.3212 9.72912 13.2736 9.72641C12.8061 9.69505 12.3424 9.82821 11.9628 10.1028C11.4685 10.4421 11.0922 10.3295 10.77 9.92653C10.5289 9.62437 10.505 9.24671 10.5594 8.86635C10.5951 8.6437 10.6495 8.42503 10.6919 8.20371C10.9092 7.74649 11.1213 7.28662 11.3465 6.83337C11.4341 6.70607 11.5522 6.60267 11.6898 6.53254C12.485 5.98255 13.1648 5.29341 13.8619 4.63077C14.2877 4.21155 14.571 3.66915 14.6717 3.0802C14.6776 3.03263 14.6949 2.98718 14.7221 2.94767C15.0582 2.47866 15.4409 2.04486 15.8644 1.65288C16.0169 1.5071 16.1467 1.33747 16.2991 1.19036C16.8372 0.672179 17.6734 0.600614 18.2155 1.03265C18.5547 1.29771 18.678 1.69529 18.7456 2.10083C18.8318 2.67599 18.7456 3.24188 18.6634 3.80777C18.4885 5.09064 18.2936 6.37218 18.1201 7.65107C18.0602 8.13457 18.0447 8.62254 18.0736 9.1089C17.9584 9.1751 17.8193 9.15261 17.688 9.2096C17.8207 9.29803 17.9614 9.37387 18.1081 9.43617ZM13.6685 6.92747C13.6566 7.27408 13.7064 7.62005 13.8156 7.94925C14.1363 8.84249 14.9778 9.14196 15.7822 8.63707C16.2606 8.32642 16.6378 7.88286 16.8677 7.36083C17.2255 6.60808 17.3978 5.82087 17.195 4.99257C17.0625 4.46246 16.7975 4.03307 16.2196 3.89127C15.7505 3.77465 15.3369 3.94163 14.9818 4.23186C14.0925 4.96076 13.7348 5.94544 13.6685 6.92747Z" fill="black"></path>
    <path d="M25.7433 20.9156C25.8689 20.524 25.9733 20.1258 26.0561 19.7229C26.2522 18.6853 25.8626 17.8463 25.1814 17.1094C24.9548 16.8656 24.6341 16.753 24.3345 16.6231C24.2193 16.5727 24.202 16.5158 24.2312 16.4084C24.3637 15.8783 24.597 15.649 25.2092 15.5814C25.8619 15.4891 26.5271 15.5482 27.1534 15.7537C27.2713 15.7961 27.3853 15.8531 27.5033 15.8995C27.8399 16.032 27.9578 16.2971 27.9764 16.635C27.9847 17.1597 27.8888 17.681 27.6941 18.1684C27.5237 18.6053 27.3833 19.0534 27.274 19.5096C27.2608 19.5096 27.2477 19.5136 27.2368 19.5211C27.2259 19.5288 27.2177 19.5395 27.2131 19.5519C26.9113 20.2545 26.8484 21.0367 27.0341 21.7784C27.0786 21.9875 27.1972 22.1735 27.3681 22.3019C27.5234 22.4038 27.7017 22.4656 27.8868 22.4813C28.0719 22.497 28.2581 22.4663 28.4283 22.392C28.7345 22.2807 28.7531 22.1163 28.525 21.8844C28.4076 21.7855 28.3165 21.6588 28.26 21.516C28.374 21.4312 28.4893 21.3477 28.6032 21.2616C28.7529 21.1538 28.881 21.0189 28.981 20.864C29.4766 20.0542 29.7497 19.1862 29.6741 18.2253C29.6489 17.9047 29.6118 17.5826 29.6012 17.2619C29.5707 16.2865 29.9524 15.8465 30.7104 15.6556C30.9573 15.5954 31.2094 15.5595 31.4632 15.5483C31.7735 15.5354 32.0844 15.5541 32.3909 15.604C32.9581 15.6941 33.198 15.971 33.2139 16.5462C33.2285 17.0512 33.092 17.5295 32.9806 18.0133C32.6864 19.2815 32.1418 20.4492 31.499 21.5677C30.8178 22.7605 29.9683 23.7994 28.7795 24.5244C28.4667 24.7233 28.1219 24.8668 27.7604 24.9485C27.2144 25.0611 26.7439 24.8544 26.2827 24.6039C26.2831 24.5727 26.2777 24.5417 26.2668 24.5125C25.8149 23.7544 25.7035 22.9128 25.685 22.0554C25.6823 21.671 25.7248 21.2934 25.7433 20.9156Z" fill="black"></path>
    <path d="M18.6992 6.12852C18.7641 5.67925 18.8317 5.22998 18.8954 4.78071C18.9417 4.45602 18.9881 4.13133 19.0278 3.80532C19.1219 2.94522 19.5222 2.21499 19.9754 1.49802C20.1808 1.18633 20.4653 0.934784 20.7998 0.769115C21.1321 0.590817 21.5041 0.499628 21.8812 0.50406C21.9603 0.505549 22.039 0.515771 22.1157 0.534542C22.5133 0.633937 22.6459 0.831403 22.5955 1.23826C22.5809 1.34826 22.5518 1.45561 22.5292 1.56428C22.5216 1.59758 22.5064 1.62865 22.4849 1.65509C22.4632 1.68154 22.4358 1.70261 22.4047 1.71668C22.2628 1.79753 22.125 1.88632 21.9872 1.97379C21.9594 1.99235 21.9143 2.01222 21.9315 2.05729C21.9488 2.10234 21.9926 2.08113 22.0256 2.07186L22.2086 2.01752C23.1044 1.73524 24.0215 1.73789 24.9373 1.85186C25.3474 1.89473 25.7296 2.07996 26.0174 2.37535C26.372 2.75157 26.5819 3.24131 26.6098 3.7576C26.631 4.01604 26.6455 4.27446 26.6602 4.53289C26.6602 4.5859 26.6826 4.66542 26.5859 4.65747C26.3429 4.66897 26.0994 4.65386 25.8597 4.6124C25.7444 4.5859 25.6715 4.54349 25.6874 4.40434C25.689 4.31984 25.6815 4.23541 25.6648 4.15253C25.6648 4.10615 25.6648 4.04387 25.5999 4.04917C25.535 4.05447 25.5416 4.11278 25.535 4.16049C25.478 4.52494 25.4329 4.89337 25.3402 5.25251C25.2354 5.6501 25.1294 6.05961 24.9015 6.40286C24.317 7.28813 23.5484 7.93619 22.4683 8.13631C21.7375 8.25988 20.9929 8.2804 20.2564 8.19727C19.95 8.16741 19.6669 8.0202 19.4665 7.78644C19.3962 7.70823 19.3195 7.63597 19.2373 7.57042C19.3135 7.69781 19.3385 7.84942 19.3073 7.99457C19.2761 8.13972 19.1909 8.2676 19.0689 8.35233C19.0557 8.35277 19.0429 8.34825 19.0328 8.33967C19.0228 8.33109 19.0163 8.31906 19.0147 8.30594C18.9815 8.0674 18.9444 7.83017 18.9179 7.59162C18.8702 7.15428 18.8331 6.71695 18.7854 6.28093C18.7787 6.22394 18.7814 6.1484 18.6992 6.12852Z" fill="black"></path>
    <path d="M20.5641 24.1591C20.8928 23.572 21.0001 22.9146 21.1247 22.2692C21.2014 21.783 21.1142 21.2851 20.8769 20.8539C20.559 20.1802 20.1876 19.5332 19.7662 18.919C19.351 18.3736 18.9776 17.7977 18.6491 17.1961C18.4595 16.8184 18.5165 16.4248 18.6491 16.0444C18.6822 15.9806 18.729 15.925 18.7859 15.8812C18.843 15.8375 18.9089 15.8068 18.979 15.7913C19.4177 15.631 19.8736 15.6481 20.3282 15.6588C20.4078 15.6601 20.4871 15.6681 20.5654 15.6826C20.9246 15.7489 21.0531 15.8907 21.0955 16.2498C21.1035 16.3134 21.065 16.3068 21.0359 16.3174C20.9486 16.34 20.8641 16.3725 20.7841 16.4142C20.8039 16.4672 20.8517 16.4565 20.8901 16.4565C21.7097 16.4505 22.5285 16.5077 23.3392 16.6276C23.6957 16.6858 24.0125 16.8688 24.3451 17.0026C25.0925 17.3021 25.4504 17.9197 25.7035 18.6234C25.8174 18.9503 25.8367 19.3026 25.7591 19.6399C25.6656 20.0953 25.5398 20.5435 25.3828 20.9811C25.2318 21.4005 24.9981 21.7853 24.6956 22.1127C24.393 22.4401 24.0278 22.7033 23.6215 22.8868C23.448 22.9759 23.2676 23.0508 23.0821 23.1108C23.0476 23.1214 22.9973 23.1254 23.0026 23.1717C23.0079 23.2181 23.0635 23.2128 23.0927 23.2009C23.3127 23.1121 23.4174 23.2009 23.5155 23.4077C23.6351 23.604 23.8151 23.7565 24.0284 23.8423C24.5929 24.1299 25.1628 24.4069 25.726 24.6971C26.1231 24.8875 26.4849 25.1444 26.7955 25.4565C26.8883 25.5352 26.956 25.6393 26.9904 25.7561C26.8217 26.0758 26.5505 26.3297 26.2203 26.477C25.9891 26.5523 25.7417 26.5633 25.5047 26.5088C25.1903 26.477 24.8856 26.3819 24.6088 26.2292C24.3438 26.0714 24.1132 25.8727 23.8654 25.699C23.6231 25.5411 23.4026 25.3522 23.2093 25.1371C23.1094 25.0151 22.9995 24.9016 22.8807 24.7978C22.6037 24.5566 22.2988 24.3432 22.0776 24.0398C22.0405 23.9894 22.0232 23.9073 21.9357 23.9073C21.9265 23.8834 21.9357 23.8477 21.8986 23.8463C21.8615 23.8449 21.8695 23.8794 21.8642 23.9033C21.8106 24.1781 21.8052 24.4602 21.8483 24.7369C21.9186 25.2551 22.0868 25.7521 22.1664 26.2689C22.2091 26.5023 22.2166 26.7409 22.1888 26.9766C22.1798 27.087 22.133 27.1909 22.0564 27.2708C21.9914 27.1966 21.892 27.2099 21.8112 27.1714C21.5883 27.0626 21.3907 26.9084 21.231 26.7188C21.0713 26.5291 20.9529 26.3081 20.8835 26.0701C20.6917 25.4504 20.5843 24.8076 20.5641 24.1591ZM21.2174 19.0594C21.4003 19.3245 21.5885 19.6041 21.79 19.8758C21.8226 19.9155 21.8429 19.9638 21.8486 20.0148C21.8542 20.0659 21.8449 20.1175 21.8218 20.1634C21.6959 20.4775 21.5819 20.7981 21.4547 21.1414C21.8085 21.0341 22.1372 20.9413 22.4618 20.8353C22.506 20.8168 22.5544 20.8115 22.6014 20.82C22.6485 20.8285 22.6921 20.8503 22.727 20.883C22.992 21.1017 23.2571 21.3097 23.5221 21.5218L23.5725 21.5098C23.5725 21.1573 23.5725 20.8061 23.5725 20.4496C23.5686 20.4109 23.5765 20.372 23.5952 20.338C23.6138 20.3039 23.6424 20.2762 23.6772 20.2587C23.8971 20.1263 24.1092 19.9738 24.3252 19.8307L24.5823 19.6584C24.2152 19.5259 23.8826 19.4146 23.5473 19.302C23.5135 19.2922 23.483 19.2731 23.4596 19.2468C23.4361 19.2205 23.4207 19.1883 23.4147 19.1535C23.326 18.8089 23.2265 18.467 23.1232 18.0933C22.8979 18.3902 22.6845 18.6645 22.4791 18.9454C22.4569 18.9829 22.4242 19.0131 22.3852 19.0324C22.3462 19.0516 22.3024 19.0592 22.2591 19.0541C21.9145 19.0515 21.5674 19.0594 21.2174 19.0594Z" fill="black"></path>
    <path d="M26.3262 11.4686C26.1367 11.3943 25.9472 11.3148 25.755 11.2459C25.6543 11.2101 25.6875 11.1359 25.6941 11.0749C25.7431 10.6442 25.7935 10.2149 25.8571 9.78546C25.9502 9.14208 25.9945 8.49261 25.9896 7.84258C25.9856 7.80048 25.9964 7.7583 26.0201 7.72331C26.3952 7.22898 26.5674 6.64321 26.7556 6.06672L27.4647 5.74733C27.4927 6.21805 27.6006 6.68057 27.7841 7.11501C28.0359 7.69415 28.3738 8.20438 28.9477 8.51317C29.2171 8.67079 29.5377 8.71647 29.8405 8.6404C30.1432 8.56433 30.4041 8.37259 30.5671 8.10631C30.6654 7.96188 30.7431 7.80441 30.7978 7.63849C31.0747 6.77441 30.958 5.93684 30.6215 5.12047C30.4261 4.58947 30.0709 4.13204 29.605 3.8111C28.9423 3.37376 28.2028 3.54604 27.7907 4.22989C27.6959 4.38264 27.6262 4.54951 27.584 4.72422C27.3828 4.78771 27.1733 4.81989 26.9624 4.81963C27.026 4.12784 27.0021 3.444 26.6974 2.80257C26.6086 2.56899 26.4666 2.35934 26.2825 2.19029C26.2215 2.14258 26.2374 2.09619 26.2626 2.03921C26.3432 1.84486 26.4748 1.67589 26.6434 1.55016C26.8121 1.42441 27.0115 1.34658 27.2208 1.32489C27.751 1.24272 28.2201 1.42163 28.6706 1.67343C29.2922 2.02065 29.7561 2.54282 30.2278 3.05967C30.5939 3.47645 30.9254 3.92233 31.2191 4.3929C31.4432 4.73746 31.6976 5.06481 31.9149 5.41468C32.0969 5.71211 32.2436 6.02965 32.3523 6.36092C32.5312 6.89103 32.7711 7.39862 32.9155 7.94065C33.0208 8.28177 33.1061 8.62869 33.1713 8.97967C33.2065 9.31861 33.222 9.65932 33.2177 10.0001C33.2389 10.6191 33.2442 11.2393 33.2177 11.8555C33.1989 12.1128 33.1459 12.3663 33.06 12.6096C33.003 12.6096 32.9792 12.6467 32.9513 12.6878C32.7926 12.9123 32.6104 13.1193 32.4079 13.3054C32.1762 13.5247 31.884 13.6692 31.569 13.7201C31.3477 13.756 31.1834 13.6844 31.1145 13.5188C31.078 13.4308 31.0582 13.3369 31.0561 13.2417C31.0442 12.7779 31.0641 12.3141 31.0243 11.8488C31.0109 11.6231 30.9812 11.3986 30.9356 11.177C30.9038 11.0444 30.9011 10.9556 31.0549 10.8841C31.1293 10.8535 31.1928 10.801 31.2368 10.7335C31.2808 10.6662 31.3033 10.5869 31.3013 10.5064C31.2961 10.4153 31.2605 10.3287 31.2002 10.2602C31.1398 10.1917 31.0584 10.1455 30.9687 10.1287C30.9382 10.1208 30.9077 10.1075 30.8772 10.1022C30.554 10.0492 30.2241 10.0519 29.9018 10.1101C29.8528 10.1181 29.7693 10.0995 29.7508 10.1923C29.4724 10.1738 29.1955 10.1181 28.9185 10.1923C28.8125 10.2201 28.7104 10.2586 28.6057 10.2917C28.3406 10.1976 27.9431 10.4242 27.8755 10.7317C27.8436 10.9346 27.7671 11.1279 27.6515 11.2975C27.4063 11.5997 27.0697 11.5361 26.745 11.5202C26.6019 11.5123 26.4693 11.4301 26.3262 11.4686Z" fill="black"></path>
    <path d="M21.3629 11.6782C21.2794 11.7763 21.3629 11.8571 21.408 11.922C21.5707 12.1806 21.7523 12.4269 21.9513 12.6589C22.2468 12.9756 22.3489 13.3599 22.4085 13.7628C22.4555 14.076 22.4555 14.3945 22.4085 14.7077C22.3879 14.7106 22.3679 14.7165 22.3489 14.725C22.2367 14.8008 22.1051 14.8428 21.9698 14.8459C21.8344 14.8489 21.701 14.8129 21.5855 14.7422C21.3484 14.6002 21.1537 14.397 21.0223 14.1538C20.5282 13.323 20.1176 12.4453 19.7964 11.5337C19.5995 10.951 19.434 10.3583 19.3008 9.75785C19.9634 9.65048 20.3955 9.40133 20.7241 8.9375C20.7784 8.95603 20.7586 9.00777 20.7705 9.0448C20.8462 9.3386 21.0232 9.5962 21.2702 9.77239C21.4424 9.89033 21.6213 10.0017 21.8002 10.1117C21.8743 10.1566 21.958 10.1832 22.0444 10.1894C22.1308 10.1956 22.2175 10.1812 22.2972 10.1474C22.4213 10.0935 22.5597 10.0815 22.6913 10.1133C22.8228 10.1451 22.9404 10.219 23.0261 10.3237C23.3389 10.6498 23.7868 10.7783 24.1977 10.9625C25.0922 11.3601 26.0531 11.6252 26.8959 12.1275C27.0903 12.2434 27.2626 12.3928 27.4048 12.5688C27.4034 12.7054 27.3928 12.8418 27.373 12.977C27.3383 13.1703 27.2458 13.3486 27.1076 13.4882C26.9694 13.6279 26.7921 13.7222 26.5991 13.7588C26.2995 13.8185 26.0291 13.7191 25.7549 13.6263C25.4395 13.5216 25.128 13.4064 24.8126 13.3069C23.975 13.0419 23.148 12.757 22.4271 12.2295C22.1438 12.0094 21.8372 11.8215 21.5126 11.6689C21.4703 11.6516 21.408 11.5668 21.3629 11.6782Z" fill="black"></path>
    <path d="M8.22177 9.17845C7.98547 9.15478 7.75382 9.0972 7.53396 9.00742C7.43721 8.97698 7.41865 8.91601 7.52601 8.84311C7.77692 8.66756 8.01076 8.46878 8.22443 8.24939C8.92943 7.547 9.62523 6.834 10.3449 6.14089C10.9757 5.52861 11.6131 4.92296 12.2174 4.2855C12.782 3.71591 13.2626 3.06888 13.6448 2.36385C13.6816 2.31173 13.7023 2.25001 13.7044 2.18626C14.3075 2.14518 14.4665 2.58385 14.3472 3.10203C14.2106 3.6681 13.9012 4.1776 13.4619 4.55983C12.676 5.28608 11.8636 5.9792 11.0446 6.66304C10.3439 7.27453 9.68467 7.932 9.0713 8.63108C8.90416 8.80765 8.72338 8.97072 8.53056 9.11876C8.49111 9.15866 8.44051 9.18572 8.3854 9.19637C8.3303 9.20702 8.27325 9.20077 8.22177 9.17845Z" fill="#CBCBCB"></path>
    <path d="M2.46875 19.3164C2.64634 19.4993 2.70863 19.7432 2.80272 19.9684C3.13669 20.7636 3.44415 21.5786 3.96763 22.281C4.30823 22.737 4.61304 23.2207 5.0093 23.6315C5.487 24.1014 6.02756 24.5029 6.61553 24.8243C7.086 25.0986 7.57503 25.3358 8.06273 25.5797C8.63688 25.8731 9.2734 26.0236 9.91813 26.0183C9.88761 26.2675 9.71666 26.3894 9.50065 26.461C9.05874 26.604 8.58798 26.6337 8.13165 26.5471C7.09528 26.3709 6.2988 25.8037 5.61362 25.0522C5.42901 24.8562 5.23059 24.6738 5.0199 24.5062C4.27642 23.9032 3.6615 23.2034 3.29705 22.2983C2.91272 21.3401 2.58935 20.3594 2.46875 19.3164Z" fill="#CBCBCB"></path>
    <path d="M15.4834 9.82031C15.535 10.7348 15.6013 11.6479 15.8346 12.5385C15.9578 13.013 16.0665 13.4954 16.3169 13.9234C16.5237 14.2786 16.7993 14.5516 17.2446 14.5861C17.4893 14.601 17.7299 14.5186 17.9139 14.3568C18.2028 14.1338 18.4457 13.857 18.6295 13.5417C18.6601 13.49 18.6879 13.4396 18.7621 13.4344C18.6786 14.142 18.395 14.7451 17.7973 15.1572C17.2778 15.515 16.4376 15.4223 15.9127 15.0247C15.3879 14.6272 15.1878 14.097 15.0566 13.5046C14.8861 12.763 14.799 12.0047 14.7969 11.2437C14.7962 10.8318 14.8201 10.4202 14.8684 10.0112C14.8803 9.91179 14.9161 9.86935 15.0155 9.87865C15.173 9.87518 15.3298 9.85565 15.4834 9.82031Z" fill="#CBCBCB"></path>
    <path d="M19.299 9.75781C19.4358 10.3584 19.6048 10.9512 19.8053 11.5337C20.1235 12.445 20.531 13.3226 21.0219 14.1538C21.1534 14.3969 21.3479 14.6002 21.5852 14.7422C21.7006 14.813 21.834 14.8489 21.9693 14.8459C22.1047 14.8428 22.2363 14.8008 22.3485 14.725C22.3675 14.7164 22.3875 14.7107 22.4081 14.7077C22.3909 15.1901 22.0715 15.5029 21.5547 15.5109C21.1397 15.5329 20.7329 15.39 20.4229 15.1133C19.901 14.6361 19.5402 14.0086 19.3905 13.3175C19.1864 12.4574 18.9015 11.6278 18.7146 10.7677C18.6496 10.4695 18.5993 10.1687 18.541 9.8678C18.5291 9.80685 18.5277 9.76973 18.6139 9.77641C18.8423 9.79239 19.0718 9.78622 19.299 9.75781Z" fill="#CBCBCB"></path>
    <path d="M21.3633 11.6809C21.4083 11.5696 21.4707 11.6544 21.5157 11.6809C21.8403 11.8335 22.1469 12.0215 22.4301 12.2415C23.1484 12.7716 23.9754 13.0539 24.8156 13.319C25.1311 13.4183 25.4425 13.5336 25.7579 13.6384C26.0322 13.7285 26.3026 13.8278 26.6021 13.7709C26.7951 13.7343 26.9725 13.6399 27.1107 13.5002C27.2488 13.3607 27.3414 13.1824 27.3761 12.989C27.3958 12.8538 27.4065 12.7174 27.4079 12.5808C27.6557 12.7809 27.7339 13.0671 27.7789 13.3587C27.809 13.58 27.7964 13.8048 27.7419 14.0214C27.6518 14.4189 27.2369 14.7436 26.7731 14.7821C25.9567 14.851 25.2093 14.6177 24.4989 14.2427C24.1901 14.0949 23.8889 13.9317 23.5964 13.7536C23.0267 13.3763 22.5124 12.9213 22.0684 12.4018C21.8468 12.1487 21.6114 11.9081 21.3633 11.6809Z" fill="#CBCBCB"></path>
    <path d="M29.7539 10.1944C29.7672 10.1015 29.856 10.1201 29.905 10.1122C30.2273 10.0539 30.5572 10.0512 30.8804 10.1043C30.9109 10.1043 30.9413 10.1228 30.9718 10.1307C31.0615 10.1475 31.143 10.1938 31.2033 10.2623C31.2636 10.3307 31.2992 10.4174 31.3044 10.5085C31.3065 10.5889 31.284 10.6682 31.2399 10.7356C31.196 10.8031 31.1325 10.8556 31.058 10.8861C30.9042 10.9577 30.9069 11.0399 30.9387 11.1791C30.9844 11.4006 31.014 11.6251 31.0275 11.8509C31.0673 12.3148 31.0473 12.7786 31.0593 13.2438C31.0614 13.3389 31.0812 13.4328 31.1176 13.5208C31.1865 13.6865 31.3509 13.758 31.5722 13.7222C31.8871 13.6713 32.1794 13.5267 32.411 13.3075C32.6122 13.1212 32.7929 12.9142 32.9504 12.6899C32.9783 12.6488 33.0022 12.6103 33.0592 12.6117C32.9266 13.098 32.8404 13.5976 32.6152 14.0536C32.4801 14.3527 32.2466 14.5964 31.9536 14.7443C31.6606 14.8921 31.3258 14.935 31.005 14.8659C30.6445 14.801 30.451 14.5306 30.3808 14.0933C30.288 13.5155 30.3953 12.9482 30.4259 12.3705C30.4549 11.8404 30.5331 11.3103 30.5146 10.7801C30.5146 10.7443 30.4908 10.7086 30.5424 10.6701C30.675 10.5734 30.6617 10.4846 30.5027 10.417C30.3042 10.3191 30.0912 10.2537 29.8718 10.2235C29.8319 10.2163 29.7925 10.2065 29.7539 10.1944Z" fill="#CBCBCB"></path>
    <path d="M4.92578 11.0017C4.93506 10.9606 4.93903 10.9116 4.99337 10.9062C5.01218 10.9062 5.03046 10.9125 5.04534 10.924C5.06021 10.9355 5.07083 10.9517 5.07553 10.9698C5.16566 11.2588 5.40951 11.4139 5.62155 11.5914C5.74732 11.6961 5.86639 11.8085 5.97804 11.9281C6.41579 12.3881 6.92676 12.7722 7.49018 13.0651C7.99776 13.3514 8.50402 13.6336 9.03144 13.8815C9.48544 14.1067 9.96912 14.266 10.4681 14.3546C10.9538 14.4509 11.4579 14.3695 11.8888 14.1254C11.9311 14.0923 11.9835 14.0745 12.0372 14.075C12.1048 14.8701 11.4647 15.4135 10.6708 15.232C10.158 15.0945 9.65825 14.9122 9.17728 14.6872C8.62632 14.4762 8.10158 14.2022 7.61343 13.8709C6.93294 13.3872 6.28768 12.8558 5.68251 12.2806C5.45088 12.0488 5.24474 11.7929 5.06759 11.5172C4.97963 11.3592 4.93099 11.1824 4.92578 11.0017Z" fill="#CBCBCB"></path>
    <path d="M21.9399 23.8945C22.0274 23.8945 22.0447 23.978 22.0818 24.027C22.303 24.3305 22.6119 24.5439 22.8849 24.7851C23.0036 24.8889 23.1135 25.0023 23.2135 25.1244C23.4068 25.3394 23.6273 25.5283 23.8695 25.6863C24.1173 25.8639 24.3492 26.0627 24.613 26.2164C24.8897 26.3691 25.1944 26.4643 25.5088 26.496C25.7459 26.5506 25.9933 26.5396 26.2245 26.4643C26.5547 26.3169 26.8259 26.063 26.9945 25.7433C27.1058 25.9142 27.0502 26.1051 27.0396 26.2827C27.0193 26.5577 26.9189 26.8208 26.7506 27.0394C26.6577 27.1784 26.5257 27.2867 26.3711 27.3506C26.2166 27.4145 26.0466 27.4312 25.8826 27.3985C24.9167 27.2733 24.0254 26.8127 23.3646 26.0972C23.0013 25.6995 22.6677 25.2756 22.3667 24.8288C22.2181 24.6444 22.0931 24.4423 21.9943 24.2271C21.949 24.1225 21.9304 24.0082 21.9399 23.8945Z" fill="#CBCBCB"></path>
    <path d="M10.7092 8.20312C10.6641 8.42312 10.6098 8.64179 10.5767 8.86577C10.517 9.24211 10.5462 9.61985 10.7874 9.92598C11.1094 10.3236 11.4858 10.4415 11.9801 10.1023C12.3596 9.82757 12.8234 9.69442 13.2908 9.72587C13.3372 9.72587 13.3875 9.71259 13.4234 9.76036C13.2484 9.8597 13.0417 9.89284 12.8614 10.0465C12.9952 10.057 13.1297 10.044 13.259 10.0082C12.8614 10.6827 12.3565 11.1823 11.5812 11.3334C11.3614 11.3745 11.1353 11.3672 10.9186 11.3123C10.8724 11.3012 10.8307 11.2762 10.7993 11.2406C10.5594 10.9875 10.3209 10.7318 10.0784 10.4826C10.0412 10.441 10.0144 10.3913 10.0001 10.3374C9.9858 10.2835 9.98445 10.227 9.9962 10.1725C10.0878 9.47198 10.3311 8.7999 10.7092 8.20312Z" fill="#CBCBCB"></path>
    <path d="M15.7972 18.7148C16.0311 18.7797 16.2373 18.9194 16.3843 19.1124C16.6975 19.4549 16.9787 19.8253 17.2245 20.219C17.5638 20.7637 17.7984 21.3508 17.7666 22.0041C17.7428 22.4799 17.6261 22.9477 17.1702 23.1969C16.7143 23.446 16.2239 23.6104 15.6873 23.523C15.6316 23.5137 15.5547 23.523 15.5547 23.4408C15.5547 23.3586 15.6117 23.3599 15.6555 23.3334C15.963 23.1402 16.2411 22.9037 16.4811 22.631C16.499 22.6154 16.5131 22.596 16.5225 22.5742C16.5319 22.5524 16.5363 22.5288 16.5354 22.5051C17.1305 22.1738 17.255 21.3958 16.8535 20.7544C16.4679 20.1281 16.1236 19.4773 15.8224 18.8062C15.8105 18.7769 15.8021 18.7462 15.7972 18.7148Z" fill="#CBCBCB"></path>
    <path d="M20.5616 24.1602C20.5858 24.8055 20.6963 25.4446 20.8902 26.0606C20.9596 26.2986 21.078 26.5196 21.2378 26.7092C21.3975 26.8989 21.5952 27.0531 21.8179 27.1619C21.8988 27.2003 21.9982 27.1871 22.0631 27.2613C21.5662 27.7225 20.6504 27.6217 20.1971 27.0545C19.9848 26.7714 19.8205 26.4554 19.7107 26.1189C19.6538 25.9612 19.5199 25.7942 19.5464 25.6537C19.5729 25.5133 19.7572 25.4059 19.8698 25.2813C20.1405 24.9777 20.357 24.6298 20.5099 24.2529C20.5251 24.2209 20.5424 24.1899 20.5616 24.1602Z" fill="#CBCBCB"></path>
    <path d="M25.7425 20.918C25.724 21.2957 25.6816 21.6734 25.6895 22.0511C25.7081 22.9086 25.8221 23.7501 26.2713 24.5081C26.2822 24.5374 26.2876 24.5684 26.2872 24.5996C26.2171 24.5797 26.1485 24.5549 26.0818 24.5254C25.4973 24.2325 24.9156 23.937 24.3311 23.6441C24.3069 23.6348 24.2863 23.6179 24.2725 23.5959C24.2586 23.5739 24.2522 23.5481 24.2543 23.5222C24.2543 23.3644 24.2543 23.2067 24.2543 23.0491C24.2529 22.9797 24.2704 22.9112 24.305 22.8509C24.3395 22.7907 24.3898 22.741 24.4504 22.7071C25.0494 22.3241 25.3927 21.7424 25.6524 21.1009C25.67 21.0346 25.7007 20.9723 25.7425 20.918Z" fill="#CBCBCB"></path>
    <path d="M26.9607 4.82231C27.1715 4.82257 27.3811 4.79039 27.5822 4.72689C27.6875 4.73318 27.7917 4.70221 27.8764 4.63942C28.0619 4.61159 28.2025 4.48834 28.3707 4.41016C28.3972 4.52413 28.3177 4.61557 28.3283 4.71895L28.0274 5.2411L27.7147 5.55519C27.6241 5.60949 27.5397 5.67348 27.4629 5.74603L26.7539 6.06277C26.5591 6.1065 26.3643 6.14493 26.1708 6.1953C25.9216 6.25758 25.6698 6.21915 25.4193 6.22048C25.3239 6.22048 25.3372 6.17011 25.361 6.10517C25.5074 5.7103 25.6053 5.2991 25.6526 4.88063C25.6659 4.75737 25.752 4.7799 25.8142 4.7958C26.0836 4.8474 26.358 4.86741 26.632 4.85544C26.7424 4.85577 26.8525 4.84467 26.9607 4.82231Z" fill="#F3E4B3"></path>
    <path d="M26.3242 11.4688C26.4713 11.4303 26.6038 11.5125 26.7469 11.5204C27.0717 11.5363 27.4096 11.6 27.6534 11.2978C27.7708 11.1289 27.8491 10.9361 27.8827 10.7332C27.9569 10.4323 28.3479 10.2032 28.6129 10.2933L28.5003 10.3701C28.5083 10.3781 28.5148 10.3886 28.5215 10.3886C28.7866 10.3886 28.7866 10.3886 28.6712 10.6193C28.5109 10.9439 28.4963 11.3004 28.4539 11.649C28.4279 11.9856 28.3739 12.3194 28.2922 12.6469C28.2626 12.7763 28.1958 12.8943 28.1001 12.9862C28.0709 13.0114 28.0338 13.0551 28.0086 12.9769C27.7767 12.2454 27.1392 11.9405 26.5442 11.5907C26.4686 11.547 26.3931 11.5085 26.3242 11.4688Z" fill="#CBCBCB"></path>
    <path d="M18.1088 9.43406C17.9659 9.37327 17.8288 9.29964 17.6992 9.21408C17.8318 9.15709 17.9643 9.17967 18.0849 9.11338C18.672 8.92916 19.2379 8.7158 19.503 8.06641C19.7082 8.30888 19.9927 8.47085 20.3061 8.52363L20.4148 8.54219C20.4691 8.55279 20.5473 8.51435 20.5751 8.57001C20.6029 8.62567 20.5393 8.69459 20.5008 8.75025C20.1536 9.24586 19.6354 9.42484 19.0709 9.53086C18.7471 9.57339 18.4177 9.54033 18.1088 9.43406Z" fill="#F3E4B3"></path>
    <path d="M28.2602 21.5182C28.3166 21.661 28.4077 21.7876 28.5252 21.8866C28.7531 22.1186 28.7346 22.2842 28.4285 22.3942C28.2582 22.4685 28.072 22.4992 27.8869 22.4834C27.7018 22.4677 27.5235 22.4061 27.3682 22.304C27.1974 22.1756 27.0787 21.9896 27.0343 21.7805C26.8485 21.0388 26.9114 20.2566 27.2132 19.5541C27.2178 19.5416 27.2261 19.5309 27.237 19.5233C27.2479 19.5158 27.2608 19.5117 27.2741 19.5117C27.2107 19.8259 27.1665 20.1437 27.1416 20.4633C27.1247 20.7054 27.1399 20.9487 27.1867 21.1869C27.2191 21.3698 27.3184 21.5343 27.4654 21.648C27.6125 21.7616 27.7966 21.8165 27.9818 21.8018C28.0349 21.8018 28.1065 21.8018 28.1144 21.7527C28.1224 21.7037 28.0441 21.6931 28.0017 21.6547C28.0811 21.5973 28.1681 21.5513 28.2602 21.5182Z" fill="#CBCBCB"></path>
    <path d="M21.3356 8.58584C21.6543 8.58687 21.9726 8.5616 22.2872 8.5103C22.3852 8.49704 22.3852 8.53812 22.3759 8.60174C22.3279 9.04944 22.1769 9.47994 21.9346 9.85945C21.8922 9.92041 21.8551 9.97469 21.7716 9.91771C21.39 9.65266 21.0428 9.36115 20.9142 8.88137C20.8347 8.58318 20.8254 8.58584 21.1355 8.58584H21.3356Z" fill="#F3E4B3"></path>
    <path d="M24.0328 8.5699C24.0432 8.83303 23.998 9.09538 23.9003 9.33989C23.8592 9.4525 23.8048 9.48564 23.6882 9.42468C23.302 9.22837 22.958 8.95825 22.6757 8.62954C22.5604 8.49701 22.5777 8.44931 22.7407 8.40424C23.1241 8.30679 23.4897 8.14887 23.8234 7.93642C23.9175 7.87413 23.9559 7.85823 23.9785 8.00004C24.0161 8.18762 24.0343 8.37858 24.0328 8.5699Z" fill="#F3E4B3"></path>
    <path d="M25.5311 7.98147C25.5244 8.25447 25.5907 8.30218 25.266 8.22532C24.9095 8.14049 24.5397 8.09278 24.223 7.87809C24.113 7.8052 24.1077 7.73761 24.2097 7.6581C24.5333 7.38718 24.8202 7.07533 25.0632 6.73041C25.148 6.61776 25.1839 6.64294 25.2342 6.74234C25.3769 7.0141 25.4668 7.31045 25.4992 7.61568C25.5244 7.73591 25.5351 7.85871 25.5311 7.98147Z" fill="#F3E4B3"></path>
    <path d="M18.6995 6.12891C18.7816 6.14878 18.779 6.22432 18.7856 6.27999C18.8333 6.716 18.8705 7.15334 18.9181 7.59068C18.9447 7.82922 18.9817 8.06646 19.0149 8.30501C19.0165 8.31812 19.023 8.33014 19.033 8.33872C19.0431 8.3473 19.056 8.35182 19.0692 8.35139C18.9159 8.51112 18.7308 8.63707 18.5259 8.72114C18.4397 8.76619 18.4464 8.69595 18.4464 8.64295C18.4385 8.16275 18.474 7.68283 18.5524 7.209C18.6041 6.91877 18.6265 6.62323 18.6637 6.33034C18.673 6.26276 18.6875 6.19649 18.6995 6.12891Z" fill="#CBCBCB"></path>
    <path d="M21.9531 10.1083C22.3118 9.74619 22.5269 9.2664 22.5588 8.75781C22.8332 9.06046 23.1502 9.32153 23.4997 9.53306C23.006 9.77883 22.4875 9.97159 21.9531 10.1083Z" fill="black"></path>
    <path d="M25.6985 7.66443C25.6682 7.38278 25.6005 7.10645 25.4971 6.84275C25.4491 6.7139 25.3741 6.59684 25.277 6.49951C25.2559 6.4783 25.2293 6.45445 25.2412 6.41867C25.2532 6.38288 25.281 6.39084 25.3062 6.39481C25.6509 6.46969 26.0082 6.46425 26.3505 6.37891C26.2206 6.85203 25.9158 7.20853 25.6985 7.66443Z" fill="black"></path>
    <path d="M25.08 8.4222C24.8028 8.70526 24.4911 8.95238 24.1523 9.15775C24.2459 8.78916 24.2563 8.40435 24.1828 8.03125C24.4532 8.2645 24.7712 8.31883 25.08 8.4222Z" fill="black"></path>
    <path d="M27.8753 4.64094C27.9609 4.34857 28.1541 4.09948 28.416 3.94384C28.5681 3.86181 28.7395 3.8221 28.9122 3.82886C29.085 3.83563 29.2528 3.8886 29.398 3.98228C29.7575 4.19992 30.0483 4.51458 30.237 4.89009C30.5503 5.4508 30.709 6.08471 30.6968 6.72692C30.6902 7.20535 30.6041 7.67316 30.286 8.06015C30.1529 8.24137 29.9581 8.36759 29.7384 8.41496C29.5186 8.46233 29.2891 8.42757 29.0932 8.31725C28.6188 8.084 28.3259 7.67979 28.0993 7.22257C27.8423 6.70683 27.7093 6.13821 27.711 5.562L28.0238 5.24791C28.0705 5.3415 28.1343 5.42555 28.2119 5.49574C28.1516 5.9332 28.2192 6.37878 28.4067 6.7786C28.5216 7.07116 28.7198 7.32363 28.9766 7.50485C29.3317 7.7434 29.6922 7.69702 29.9493 7.38028C30.0067 7.4182 30.066 7.45314 30.127 7.48498C30.1739 7.51498 30.2288 7.53025 30.2846 7.52884C30.3403 7.52742 30.3943 7.50938 30.4397 7.47702C30.4803 7.43917 30.5092 7.39042 30.5228 7.33659C30.5364 7.28277 30.5343 7.22616 30.5166 7.17353C30.4688 6.97786 30.3563 6.80409 30.1971 6.68054C30.2389 6.44681 30.2271 6.20666 30.1627 5.97814C30.0567 5.50502 29.8632 5.07828 29.4603 4.77877C29.1264 4.53226 28.7804 4.55347 28.5035 4.82648L28.3246 4.72576C28.3139 4.62239 28.3935 4.53094 28.3669 4.41697C28.2013 4.48986 28.0608 4.61311 27.8753 4.64094Z" fill="#F628C5"></path>
    <path d="M13.9222 7.05265C13.9367 6.19707 14.2515 5.37381 14.8114 4.72679C15.0613 4.40758 15.4206 4.19228 15.8199 4.12247C15.9981 4.09144 16.1815 4.11586 16.3452 4.19241C16.509 4.26898 16.6453 4.39398 16.7357 4.55054C16.9876 4.93618 17.0406 5.37088 17.018 5.82147C16.9866 6.40171 16.8181 6.96623 16.5263 7.46878C16.3194 7.85803 16.0153 8.18719 15.6438 8.42431C15.4259 8.57767 15.1599 8.64688 14.8949 8.61912C14.4324 8.55286 14.109 8.20696 13.9924 7.66492C13.9425 7.46476 13.9189 7.25892 13.9222 7.05265ZM15.4131 7.82529C15.4343 7.87299 15.4529 7.92203 15.478 7.96708C15.4983 8.02719 15.5376 8.07906 15.59 8.11491C15.6423 8.15076 15.7049 8.16865 15.7683 8.16588C15.914 8.15528 15.9684 8.04262 16.0108 7.92733C16.0678 7.7516 16.0678 7.56235 16.0108 7.38662C16.2109 7.14369 16.3581 6.86169 16.4429 6.55864C16.5278 6.25559 16.5485 5.93817 16.5038 5.62666C16.4309 5.14293 16.1062 4.78246 15.6146 4.89113C15.5868 4.83414 15.5628 4.7745 15.5311 4.72149C15.5086 4.66765 15.4704 4.62188 15.4214 4.59019C15.3724 4.55849 15.315 4.54235 15.2567 4.54391C15.1242 4.55584 15.0606 4.65523 15.0182 4.76787C14.9638 4.9399 14.9601 5.12393 15.0076 5.29799C14.8513 5.45492 14.7286 5.64206 14.6471 5.84798C14.4377 6.31845 14.3502 6.80482 14.504 7.30578C14.6351 7.75239 14.9692 7.93528 15.4131 7.82529Z" fill="#D9FC0A"></path>
    <path d="M28.217 5.49035C28.2926 5.53745 28.3724 5.57738 28.4555 5.60963C28.6702 5.67456 28.8187 5.53276 28.7842 5.30879C28.7438 5.12207 28.6476 4.952 28.5085 4.82109C28.7855 4.54808 29.1314 4.52688 29.4653 4.77338C29.8629 5.07289 30.0617 5.49963 30.1677 5.97275C30.2321 6.20128 30.2439 6.44141 30.2022 6.67515C30.1598 6.65394 30.1187 6.63009 30.0763 6.61153C30.0292 6.58231 29.9748 6.56683 29.9193 6.56683C29.8638 6.56683 29.8094 6.58231 29.7623 6.61153C29.7235 6.64758 29.6958 6.6938 29.6822 6.74492C29.6686 6.79603 29.6697 6.84993 29.6853 6.90045C29.7221 7.08048 29.8148 7.24425 29.9504 7.36826C29.6933 7.68501 29.3329 7.73139 28.9777 7.49284C28.7208 7.31162 28.5228 7.05914 28.4078 6.76659C28.223 6.36833 28.1567 5.92526 28.217 5.49035ZM28.7377 5.93167C28.7358 6.08746 28.7656 6.24201 28.8256 6.38582C28.8855 6.52964 28.9743 6.65967 29.0863 6.76792C29.2984 6.9561 29.5197 6.90045 29.6164 6.63539C29.6809 6.46105 29.6924 6.27157 29.6496 6.0907C29.6135 5.83686 29.4817 5.60643 29.2811 5.44662C29.2457 5.41408 29.2027 5.39089 29.1559 5.37913C29.1092 5.36737 29.0604 5.36741 29.0137 5.37924C28.967 5.39107 28.9241 5.41432 28.8886 5.4469C28.8531 5.4795 28.8264 5.52038 28.8107 5.56589C28.7573 5.68017 28.7323 5.80565 28.7377 5.93167Z" fill="#CBCBCB"></path>
    <path d="M15.609 4.89055C16.098 4.78188 16.4254 5.14235 16.4983 5.62607C16.5434 5.93801 16.5229 6.25593 16.438 6.55946C16.3531 6.863 16.2057 7.14544 16.0053 7.38869L15.9616 7.3052C15.8966 7.18592 15.8184 7.0746 15.662 7.08917C15.5056 7.10375 15.4553 7.22966 15.4142 7.35423C15.3764 7.50788 15.3764 7.6684 15.4142 7.82205C14.9703 7.93205 14.6362 7.74916 14.4998 7.30254C14.346 6.79894 14.4335 6.31256 14.6429 5.84474C14.7244 5.63882 14.8471 5.45169 15.0033 5.29475C15.0153 5.32391 15.0273 5.35306 15.0418 5.3809C15.1107 5.51343 15.1836 5.64595 15.3545 5.62607C15.5256 5.60619 15.5759 5.45909 15.6197 5.31198C15.6406 5.17195 15.6371 5.02934 15.609 4.89055ZM15.9589 6.1363C15.9616 6.09924 15.9616 6.06204 15.9589 6.02498C15.9377 5.86993 15.9046 5.71619 15.7389 5.64992C15.5733 5.58367 15.4367 5.67246 15.3294 5.78246C15.1972 5.9096 15.0985 6.06756 15.0423 6.24218C14.9861 6.4168 14.9741 6.60263 15.0073 6.78304C15.067 7.11966 15.3307 7.2058 15.5878 6.97918C15.7051 6.87243 15.7988 6.74227 15.8627 6.59709C15.9266 6.4519 15.9595 6.29493 15.9589 6.1363Z" fill="#CBCBCB"></path>
  </g>
  <defs>
    <clipPath id="clip0_3551_4486">
      <rect width="32.9722" height="27.0541" fill="white" transform="translate(0.292969 0.496094)"></rect>
    </clipPath>
  </defs>
</svg>
