<?xml version="1.0" encoding="UTF-8"?>
<svg xmlns="http://www.w3.org/2000/svg" width="137" height="17" viewBox="0 0 137 17" fill="none">
  <g clip-path="url(#clip0_3551_4918)">
    <path d="M20.6337 3.85156C17.6525 3.85156 15.1482 5.92425 14.4837 8.6935H0.71875V11.6497H14.4837C15.1482 14.4189 17.6525 16.4916 20.6337 16.4916C24.1261 16.4916 26.9711 13.6544 26.9711 10.1716C26.9711 6.68877 24.1261 3.85156 20.6337 3.85156ZM20.6337 13.6544C18.7087 13.6544 17.1413 12.0914 17.1413 10.1716C17.1413 8.25178 18.7087 6.68877 20.6337 6.68877C22.5587 6.68877 24.1261 8.25178 24.1261 10.1716C24.1261 12.0914 22.5587 13.6544 20.6337 13.6544Z" fill="#0B0B0B"></path>
    <path d="M38.54 9.81435L36.3482 12.0345V15.5186H33.7773V1.90625H36.3482V8.89066L43.1873 1.90625H46.0713L40.2539 7.98317L46.4173 15.5023H43.4181L38.54 9.81435Z" fill="#0B0B0B"></path>
    <path d="M58.086 5.79297V16.3401H55.6389V15.582C54.5437 16.406 54.4924 16.4884 52.5073 16.4884C49.7008 16.4884 47.3906 15.0052 47.3906 11.8246V5.79297H49.9575V11.4785C49.9575 13.3902 50.8987 14.2966 52.5244 14.2966C54.3041 14.2966 55.5191 13.2254 55.5191 11.116V5.79297H58.086Z" fill="#0B0B0B"></path>
    <path d="M71.6993 10.4316V16.4883H69.1568V10.7451C69.1568 8.86379 68.2076 7.9561 66.5804 7.9561C64.7667 7.9561 63.5464 9.02882 63.5464 11.1412V16.4883H61.0039V5.92617H63.4278V6.71834C64.6651 5.92617 65.4278 5.77764 67.1737 5.79415C69.767 5.84366 71.6993 7.24645 71.6993 10.4316Z" fill="#0B0B0B"></path>
    <path d="M136.84 10.4316V16.4883H134.297V10.7451C134.297 8.86378 133.348 7.9561 131.721 7.9561C129.907 7.9561 128.687 9.02882 128.687 11.1412V16.4883H126.145V5.92617H128.568V6.71834C129.805 5.92617 130.569 5.77764 132.314 5.79415C134.908 5.84366 136.84 7.24645 136.84 10.4316Z" fill="#0B0B0B"></path>
    <path d="M74.6172 11.1325C74.6172 7.99736 77.1012 5.79297 80.6032 5.79297C82.7595 5.79297 84.4672 6.64207 85.3126 8.22596L83.3288 9.31999C82.6732 8.32393 81.6727 7.86673 80.5687 7.86673C78.6711 7.86673 77.222 9.12405 77.222 11.1325C77.222 13.1736 78.6711 14.3983 80.5687 14.3983C81.6727 14.3983 82.6559 13.9411 83.3288 12.945L85.3126 14.039C84.4672 15.6066 82.7423 16.4884 80.6032 16.4884C77.1012 16.4884 74.6172 14.2676 74.6172 11.1325Z" fill="#0B0B0B"></path>
    <path d="M87.25 2.44724C87.25 1.60633 87.8729 0.933594 88.7085 0.933594C89.5441 0.933594 90.1669 1.55587 90.1669 2.37997C90.1669 3.27133 89.5592 3.96088 88.7085 3.96088C87.8729 3.96088 87.25 3.28815 87.25 2.44724ZM87.5538 5.72681H89.8326V16.4905H87.5538V5.72681Z" fill="#0B0B0B"></path>
    <path d="M92.1133 9.20697C92.1133 4.96512 95.4554 1.90625 99.9462 1.90625C102.331 1.90625 104.368 2.73434 105.726 4.27222L103.968 5.87771C102.906 4.76232 101.583 4.22153 100.069 4.22153C97.0395 4.22153 94.8461 6.28331 94.8461 9.20697C94.8461 12.1306 97.0395 14.1924 100.069 14.1924C101.6 14.1924 102.906 13.6516 103.968 12.5025L105.726 14.1248C104.368 15.6627 102.314 16.4908 99.9287 16.4908C95.4554 16.5077 92.1133 13.4488 92.1133 9.20697Z" fill="#0B0B0B"></path>
    <path d="M106.699 11.1243C106.699 7.994 109.159 5.79297 112.524 5.79297C115.924 5.79297 118.367 8.01031 118.367 11.1243C118.367 14.2384 115.924 16.4884 112.524 16.4884C109.159 16.472 106.699 14.2547 106.699 11.1243ZM115.77 11.1243C115.77 9.13528 114.37 7.86357 112.508 7.86357C110.662 7.86357 109.261 9.13528 109.261 11.1243C109.261 13.1135 110.662 14.3852 112.508 14.3852C114.37 14.3852 115.77 13.1135 115.77 11.1243Z" fill="#0B0B0B"></path>
    <path d="M120.309 2.44724C120.309 1.60633 120.932 0.933594 121.767 0.933594C122.602 0.933594 123.226 1.55587 123.226 2.37997C123.226 3.27133 122.618 3.96088 121.767 3.96088C120.932 3.96088 120.309 3.28815 120.309 2.44724ZM120.612 5.72681H122.891V16.4905H120.612V5.72681Z" fill="#0B0B0B"></path>
    <path d="M20.1641 8.71094V11.6279C21.2468 11.6279 22.1087 10.9815 22.1087 10.1694C22.1087 9.3573 21.2248 8.71094 20.1641 8.71094Z" fill="#0B0B0B"></path>
    <path d="M10.8366 3.94035C10.8366 4.89935 10.0703 5.68075 9.11253 5.66298C8.17214 5.66298 7.4059 4.88159 7.42332 3.90484C7.42332 3.88708 7.42332 3.88708 7.42332 3.86932H6.53518H6.51777H5.78636C5.78636 3.88708 5.78636 3.88708 5.78636 3.88708C5.78636 4.84607 5.02012 5.62746 4.06233 5.60971C3.12194 5.60971 2.35571 4.82831 2.37312 3.85156H0.736164L0.71875 7.74079H12.369L12.3864 3.9226L10.8366 3.90484C10.8366 3.9226 10.8366 3.9226 10.8366 3.94035Z" fill="#0B0B0B"></path>
  </g>
  <defs>
    <clipPath id="clip0_3551_4918">
      <rect width="136.123" height="15.5569" fill="white" transform="translate(0.71875 0.933594)"></rect>
    </clipPath>
  </defs>
</svg>
