<?xml version="1.0" encoding="UTF-8"?>
<svg xmlns="http://www.w3.org/2000/svg" width="85" height="27" viewBox="0 0 85 27" fill="none">
  <g clip-path="url(#clip0_3551_4674)">
    <path d="M14.4006 23.7071C13.9801 23.9712 13.5611 24.2375 13.1392 24.4994C12.4132 24.9516 11.6859 25.4008 10.9512 25.856L9.58717 25.0114L3.845 21.4527C2.97649 20.9147 2.10848 20.377 1.24096 19.8394C1.15317 19.7848 1.05949 19.739 0.96875 19.6918V3.67738C1.01007 3.63232 1.06499 3.60201 1.12514 3.59106C2.2656 3.2805 3.41197 2.97583 4.55023 2.66969C5.98528 2.28462 7.41984 1.89758 8.85388 1.50857C9.43004 1.35218 10.0076 1.20317 10.5823 1.04383C10.6833 1.01506 10.7903 1.02686 10.89 0.992188H11.0227C11.3111 1.07702 11.5981 1.16776 11.8888 1.24595C13.641 1.71955 15.3933 2.19167 17.1455 2.66231L20.8052 3.64787C20.8472 3.65967 20.8878 3.6759 20.935 3.69213V5.28185C20.9203 5.36742 20.845 5.36889 20.7838 5.38365C19.6153 5.66619 18.4505 5.96348 17.2798 6.23937C17.1876 6.26076 17.0873 6.31314 17.0039 6.21207C16.9622 5.88624 16.96 5.55658 16.9973 5.23021C17.0349 5.14907 17.1138 5.13431 17.1883 5.11587C18.1326 4.88349 19.0783 4.65997 20.0196 4.41728C20.0754 4.39631 20.1361 4.3917 20.1944 4.404C19.8492 4.22843 19.5113 4.32138 19.1616 4.404C17.6708 4.77284 16.1806 5.14169 14.6883 5.50315C14.0819 5.65069 13.4763 5.79823 12.8706 5.95167C12.7622 5.97159 12.6913 5.89782 12.6257 5.83659C12.4118 5.63815 12.1971 5.44045 11.9846 5.2398C11.9382 5.19628 11.8806 5.15054 11.9109 5.07087C12.1042 4.97054 12.3181 4.93587 12.5262 4.88645C13.5692 4.63785 14.6094 4.37375 15.651 4.11999C16.2256 3.98057 16.7996 3.83598 17.3624 3.70319C17.104 3.60728 16.8217 3.59668 16.5569 3.67295C15.6618 3.89868 14.7655 4.11999 13.8679 4.33687C13.1696 4.50555 12.4718 4.67768 11.7744 4.85326C11.7164 4.87301 11.6539 4.87557 11.5944 4.86062C11.4204 4.73395 11.2564 4.59412 11.1039 4.44236C10.9645 4.31474 10.9394 4.30293 10.8007 4.43129C10.4318 4.76916 10.0689 5.1048 9.70594 5.4434C9.24121 5.87716 8.7617 6.29396 8.30433 6.73805C8.26074 6.78538 8.20133 6.81511 8.13732 6.82163C8.0733 6.82816 8.00912 6.81102 7.95688 6.77346C7.52754 6.5337 7.10559 6.28068 6.67772 6.03577C6.182 5.75545 5.68922 5.46406 5.18759 5.17931C5.13471 5.13698 5.06942 5.11313 5.0017 5.11144C4.94489 5.1771 4.9685 5.25898 4.9685 5.33275C4.9685 6.47125 4.9685 7.60926 4.9685 8.74674C4.9685 8.80209 4.9685 8.85745 4.9685 8.91272C4.95965 9.08756 4.92497 9.12742 4.74719 9.13406C4.36581 9.1407 3.98369 9.13406 3.6023 9.13406C3.38837 9.13406 3.37657 9.14663 3.37583 9.3554C3.37583 10.7093 3.37583 12.0617 3.37583 13.4127C3.37583 13.6237 3.38763 13.634 3.60451 13.634H8.2645C8.60752 13.634 8.61711 13.6435 8.61711 13.9873V19.52C8.61711 19.5311 8.61711 19.5421 8.61711 19.5532C8.60973 19.6446 8.64662 19.762 8.55662 19.815C8.46662 19.8682 8.36777 19.787 8.28884 19.731C7.93622 19.4831 7.57623 19.2448 7.21476 19.011C7.14069 18.9686 7.08007 18.9061 7.03988 18.8308C6.99969 18.7556 6.98155 18.6705 6.98756 18.5853C6.99346 17.5798 6.98756 16.5744 6.98756 15.5689C6.98756 15.3306 6.98091 15.324 6.75002 15.324C6.44019 15.324 6.13036 15.324 5.82053 15.324C5.65086 15.324 5.62947 15.3461 5.62947 15.5173C5.62947 16.8097 5.62947 18.1028 5.62947 19.3953C5.62639 19.4557 5.63989 19.5158 5.66849 19.5692C5.69709 19.6225 5.73972 19.6669 5.79176 19.6978C6.78543 20.3617 7.77467 21.0256 8.76612 21.6896C9.101 21.9145 9.43518 22.141 9.77015 22.3653C9.82321 22.4006 9.87121 22.4538 9.94642 22.4427C9.9907 22.3896 9.97591 22.3261 9.97591 22.2679C9.97591 19.0137 9.97591 15.7599 9.97591 12.5068C9.97591 12.2759 9.97006 12.2707 9.72951 12.2707H5.11825C5.05776 12.2707 4.99653 12.2707 4.93604 12.2707C4.79735 12.2707 4.73539 12.2021 4.73539 12.0664C4.73539 11.6193 4.73022 11.1716 4.73539 10.7245C4.73539 10.5608 4.78113 10.5253 4.94784 10.5158C5.00317 10.5158 5.0585 10.5158 5.11383 10.5158H10.7535C10.8473 10.5058 10.9422 10.5139 11.033 10.5393C11.0957 10.5681 11.0839 10.6463 11.1422 10.6965C11.3878 10.664 11.6293 10.6062 11.8629 10.5238C11.9343 10.5136 12.0063 10.5097 12.0783 10.5121H15.6745C15.7463 10.5094 15.8182 10.5133 15.8892 10.5238C15.917 10.5277 15.9437 10.537 15.9679 10.5511C15.9921 10.5654 16.0132 10.5841 16.0302 10.6065C16.0065 10.6847 15.932 10.6869 15.8723 10.7017C14.7274 10.9724 13.5855 11.2645 12.4427 11.539C12.0459 11.6341 11.6512 11.7418 11.2529 11.834C11.1363 11.8599 11.0758 11.9203 11.1172 12.045C11.1754 12.0966 11.2351 12.0642 11.2912 12.0501C12.6929 11.6939 14.1026 11.3619 15.5064 11.0093C15.9778 10.8905 16.4499 10.7732 16.9242 10.6648C17.009 10.6456 17.1057 10.591 17.1854 10.6876C17.2274 11.0254 17.2274 11.3671 17.1854 11.7049C17.1522 11.7676 17.0873 11.7698 17.0297 11.7839C16.3768 11.9468 15.724 12.1099 15.0682 12.2648C14.8702 12.2805 14.6714 12.2845 14.4729 12.2766C13.716 12.2766 12.9592 12.2766 12.203 12.2766C11.9817 12.2766 11.9729 12.2892 11.9677 12.5105C11.9633 12.6698 11.9876 12.8306 11.9463 12.9884C11.9168 13.0549 11.8519 13.0549 11.7936 13.0689C11.6062 13.1147 11.4196 13.1638 11.2337 13.2164C11.1083 13.2511 11.1002 13.274 11.1223 13.4267C11.2116 13.4658 11.2927 13.4148 11.3761 13.3972C11.5 13.3706 11.6225 13.3359 11.7486 13.319C11.8187 13.3093 11.8961 13.2991 11.9419 13.3743C11.981 13.6992 11.981 14.0276 11.9419 14.3525C11.9086 14.4218 11.8386 14.4262 11.7759 14.4447C11.5959 14.4919 11.4137 14.5317 11.2344 14.5826C11.1009 14.6203 11.0869 14.6505 11.1289 14.812C11.3141 14.812 11.4875 14.7383 11.6667 14.697C11.7604 14.6756 11.8592 14.6336 11.9382 14.7338C11.9769 15.0694 11.9769 15.4082 11.9382 15.7437C11.9072 15.8102 11.843 15.8102 11.7847 15.8227C11.601 15.8603 11.4203 15.9083 11.2366 15.9474C11.1061 15.9754 11.0655 16.0521 11.1223 16.1996C11.3141 16.1613 11.5015 16.103 11.6932 16.0617C11.7752 16.044 11.8659 15.999 11.9352 16.0941C11.974 16.4297 11.974 16.7685 11.9352 17.104C11.905 17.1689 11.8408 17.1734 11.7825 17.1859C11.5996 17.225 11.4218 17.2855 11.2381 17.3239C11.1208 17.3475 11.0633 17.4102 11.1179 17.5577C11.2997 17.53 11.48 17.4928 11.6579 17.4464C11.7523 17.4264 11.8534 17.3851 11.9323 17.4847C11.9721 17.8092 11.9736 18.1372 11.9367 18.4621C11.8969 18.5425 11.8157 18.5514 11.7427 18.5698C11.5952 18.6074 11.4425 18.634 11.2942 18.6753C11.246 18.6863 11.1994 18.7034 11.1555 18.7262C11.1284 18.7408 11.1079 18.7652 11.098 18.7944C11.0882 18.8235 11.0897 18.8553 11.1024 18.8833C11.1252 18.9445 11.1821 18.9343 11.23 18.9239C11.3908 18.8907 11.5458 18.8324 11.708 18.8015C11.7869 18.786 11.8718 18.7572 11.9294 18.845C11.968 19.1803 11.968 19.5189 11.9294 19.8542C11.8999 19.9198 11.8357 19.9227 11.7818 19.9375C11.6003 19.9832 11.4174 20.0202 11.2366 20.0652C11.0891 20.102 11.078 20.1293 11.1172 20.3108L11.7073 20.1773C11.7811 20.1596 11.8674 20.1146 11.933 20.2053C11.9713 20.5406 11.9713 20.8792 11.933 21.2145C11.891 21.2949 11.8076 21.2978 11.7339 21.3118C11.5605 21.345 11.3916 21.3989 11.2219 21.4461C11.095 21.4815 11.0877 21.5037 11.1134 21.6755C11.3012 21.6473 11.4874 21.6091 11.6712 21.5611C11.7589 21.542 11.8548 21.4984 11.9294 21.5959C11.9688 21.9209 11.9702 22.2493 11.9338 22.5748C11.888 22.6662 11.7951 22.6773 11.7125 22.6957C11.5507 22.7312 11.3896 22.7695 11.2293 22.8108C11.1105 22.8418 11.064 22.9089 11.1097 23.027C11.1835 23.069 11.2448 23.0328 11.3067 23.0181C12.5539 22.7082 13.8023 22.4014 15.052 22.0974L17.8611 21.4159C17.9349 21.3974 18.0189 21.3502 18.0972 21.4159C17.7217 21.6526 17.3477 21.8924 16.9707 22.1269C16.4543 22.4464 15.9416 22.7621 15.4274 23.0793C15.4046 23.1907 15.3064 23.1951 15.2253 23.215C13.9197 23.5279 12.6164 23.8475 11.3156 24.1741C11.1105 24.2249 11.1002 24.2404 11.1297 24.405C11.1894 24.4396 11.247 24.4093 11.3038 24.3953C12.2539 24.1622 13.2048 23.935 14.1527 23.6946C14.2339 23.6731 14.3202 23.6281 14.4006 23.7071Z" fill="#042E7A"></path>
    <path d="M79.8351 17.6375H77.9688V10.8507H79.8307V11.3944C79.8623 11.3783 79.8923 11.3595 79.9207 11.3383C80.938 10.3114 83.0557 10.5423 83.6646 12.2973C83.8259 12.7447 83.9129 13.2159 83.92 13.6916C83.9287 14.9788 83.9248 16.2661 83.9256 17.5533C83.9256 17.5799 83.9208 17.6065 83.9184 17.6367H82.0435V17.4508C82.0435 16.2189 82.0435 14.9869 82.0364 13.755C82.0332 13.5345 81.9945 13.316 81.9233 13.1073C81.796 12.7325 81.5105 12.5333 81.112 12.4972C80.3394 12.4278 79.9413 12.8742 79.8498 13.6082C79.8343 13.7621 79.8279 13.9168 79.8307 14.0715C79.8307 15.1986 79.8307 16.3258 79.8307 17.4531L79.8351 17.6375Z" fill="#0B0B0B"></path>
    <path d="M54.5227 17.6843H52.6468V10.9338H49.4961V9.13672H57.6557V10.9219H54.5227V17.6843Z" fill="#0B0B0B"></path>
    <path d="M38.9954 17.6409H37.1172V10.8542H38.9865V11.3882L39.016 11.4089C39.2813 11.1364 39.6112 10.9354 39.975 10.8247C40.3446 10.7237 40.7328 10.711 41.1081 10.7878C40.9901 11.4141 40.8735 12.0338 40.7547 12.6659C40.6241 12.5844 40.4788 12.5293 40.3269 12.504C40.1749 12.4787 40.0196 12.4836 39.8696 12.5184C39.4062 12.6106 39.0964 12.9779 39.0271 13.5062C39.004 13.681 38.9919 13.8572 38.9909 14.0336C38.9909 15.1711 38.9909 16.3087 38.9909 17.4454L38.9954 17.6409Z" fill="#0B0B0B"></path>
    <path d="M20.9371 19.3507C20.9924 19.5898 20.8884 19.7196 20.6775 19.8428C20.147 20.1445 19.6336 20.4757 19.1127 20.7951C19.0788 20.9021 18.9829 20.9272 18.8915 20.9478C18.052 21.1426 17.2169 21.3558 16.3833 21.5608L14.0176 22.1421C13.4163 22.2897 12.8173 22.4439 12.2125 22.5774C12.1872 22.5884 12.1599 22.5939 12.1324 22.5933C12.1048 22.5926 12.0778 22.5859 12.0531 22.5737C12.0214 22.5051 12.07 22.4719 12.1158 22.4417C12.5983 22.1149 13.0829 21.791 13.5653 21.4642C13.7749 21.3226 13.9836 21.1794 14.1946 21.04C14.2905 20.9773 14.3775 20.8969 14.4971 20.8763C16.0462 20.4897 17.5917 20.1135 19.1393 19.7329C19.6645 19.6045 20.1906 19.4783 20.7136 19.3434C20.7494 19.3296 20.7877 19.3231 20.826 19.3244C20.8645 19.3256 20.9022 19.3346 20.9371 19.3507Z" fill="#042E7A"></path>
    <path d="M20.9321 12.4974C20.9321 12.8387 20.9333 13.1804 20.9357 13.5228C20.8892 13.6054 20.8029 13.6172 20.724 13.6356C19.8528 13.8377 18.986 14.0591 18.1163 14.27C17.3705 14.4515 16.6262 14.6389 15.8811 14.8203C15.1095 15.0116 14.3373 15.2017 13.5648 15.3906C13.491 15.4083 13.4135 15.4444 13.3516 15.3626C13.3099 15.0248 13.3099 14.6831 13.3516 14.3452C13.3921 14.2715 13.4688 14.2715 13.5367 14.2515C14.3445 14.0436 15.1596 13.8532 15.9659 13.6518C16.3193 13.6252 16.6727 13.643 17.0267 13.64C17.4848 13.64 17.9437 13.64 18.4018 13.64C18.5832 13.64 18.598 13.6194 18.6032 13.4386C18.5964 13.323 18.6025 13.2069 18.6216 13.0927C18.6659 12.985 18.7692 12.9614 18.8621 12.94C19.3593 12.8308 19.8476 12.6855 20.3456 12.5822C20.4754 12.5556 20.6008 12.5084 20.7307 12.4812C20.7963 12.4642 20.8686 12.4391 20.9321 12.4974Z" fill="#042E7A"></path>
    <path d="M20.9355 18.0004V19.0015C20.8905 19.0974 20.7932 19.0974 20.7105 19.1188C20.0415 19.2907 19.3702 19.4507 18.6996 19.6167C17.7878 19.8425 16.8746 20.0593 15.9635 20.2902C15.7865 20.3345 15.6072 20.364 15.4317 20.4186C15.366 20.4378 15.293 20.4643 15.228 20.4076C15.2163 20.3301 15.2775 20.3021 15.3269 20.2711C15.6109 20.0925 15.8787 19.8882 16.1664 19.7148C16.217 19.6874 16.2588 19.6461 16.2869 19.5958C16.315 19.5455 16.3282 19.4883 16.325 19.4308C16.325 19.3025 16.2829 19.166 16.3707 19.0472C16.7108 18.9528 17.0539 18.8687 17.3969 18.7861C18.4296 18.5383 19.4557 18.2793 20.4856 18.0284C20.5711 18.0078 20.6574 17.9879 20.7445 17.9732C20.7761 17.9617 20.8101 17.9582 20.8434 17.963C20.8767 17.9678 20.9084 17.9806 20.9355 18.0004Z" fill="#042E7A"></path>
    <path d="M20.9381 13.8529V14.8805C20.9109 14.9543 20.8378 14.9609 20.7759 14.9772C20.1569 15.1431 19.5329 15.2907 18.911 15.4434C18.1379 15.633 17.3662 15.827 16.5924 16.0091C16.509 16.0291 16.4227 16.0785 16.3453 15.9936C16.2893 15.8329 16.3195 15.6654 16.3188 15.5016C16.3188 15.3748 16.2693 15.3276 16.1424 15.3268C15.8835 15.3268 15.626 15.3475 15.3649 15.3128C15.3236 15.2966 15.283 15.2796 15.2734 15.225C15.3111 15.1601 15.3826 15.1601 15.4438 15.1453C16.9458 14.7846 18.4425 14.401 19.9437 14.0447C20.2115 13.9805 20.4749 13.8972 20.7464 13.8448C20.8142 13.8337 20.8769 13.8005 20.9381 13.8529Z" fill="#042E7A"></path>
    <path d="M20.9323 16.6024V17.6278C20.8924 17.7016 20.8164 17.7082 20.7486 17.7258C20.1982 17.8734 19.642 18.0032 19.0917 18.1382C18.3078 18.3286 17.5243 18.5211 16.7414 18.7159C16.661 18.7365 16.5813 18.7609 16.5002 18.7756C16.4404 18.7867 16.3777 18.8014 16.3356 18.7365C16.2944 18.3989 16.2944 18.0576 16.3356 17.72C16.3792 17.6425 16.4633 17.6358 16.5356 17.6189C17.0284 17.4986 17.5212 17.3784 18.011 17.2544C18.8401 17.0457 19.6737 16.8546 20.5022 16.6422C20.6423 16.606 20.7817 16.5257 20.9323 16.6024Z" fill="#042E7A"></path>
    <path d="M20.9333 15.2389V16.2598C20.9126 16.3484 20.833 16.3536 20.7666 16.3691C19.6601 16.6257 18.569 16.9149 17.4669 17.1716C17.1718 17.241 16.8812 17.3347 16.5817 17.3929C16.4976 17.4084 16.4076 17.4461 16.3375 17.3568C16.2956 17.0302 16.2938 16.6998 16.3323 16.3727C16.349 16.3433 16.3726 16.3183 16.401 16.2998C16.4293 16.2813 16.4617 16.2699 16.4954 16.2665C17.4632 16.0209 18.4348 15.7878 19.4048 15.5502C19.8334 15.4454 20.2591 15.3289 20.6921 15.2382C20.7717 15.2242 20.8521 15.1932 20.9333 15.2389Z" fill="#042E7A"></path>
    <path d="M20.9321 7.02539V8.02643C20.9004 8.1061 20.8244 8.11495 20.7566 8.13192C19.7637 8.3842 18.7685 8.6301 17.7712 8.86963C17.5941 8.91162 17.42 8.96254 17.2429 9.00532C17.1596 9.02596 17.0696 9.05775 17.0002 8.96919C16.9583 8.63116 16.9583 8.28922 17.0002 7.95118C17.0335 7.88848 17.0984 7.88553 17.1559 7.87151C18.3163 7.59709 19.4715 7.30201 20.6304 7.02243C20.73 6.9944 20.8333 6.95162 20.9321 7.02539Z" fill="#042E7A"></path>
    <path d="M20.9297 5.63649C20.9297 5.97829 20.9297 6.31984 20.9297 6.66114C20.8906 6.73491 20.8139 6.74155 20.746 6.75999C20.2709 6.88761 19.7922 6.99974 19.3142 7.11556C18.6266 7.28228 17.942 7.4608 17.253 7.62161C17.1601 7.64374 17.0561 7.69538 16.9904 7.56702C16.9551 7.24111 16.9564 6.91228 16.9941 6.58663C17.031 6.51951 17.1003 6.51286 17.163 6.49737C18.1478 6.25615 19.1297 6.00534 20.1138 5.77444C20.3123 5.72797 20.5062 5.66452 20.7039 5.62026C20.7851 5.60404 20.8618 5.57157 20.9297 5.63649Z" fill="#042E7A"></path>
    <path d="M12.044 22.5385C12.2351 22.5046 12.4284 22.4816 12.6165 22.4359C13.7377 22.1644 14.858 21.8898 15.9774 21.6119C16.7461 21.4223 17.5133 21.2298 18.2812 21.0395C18.4627 20.9952 18.65 20.9657 18.8264 20.9126C18.9244 20.8789 19.02 20.8385 19.1126 20.7916C19.161 20.8024 19.2107 20.8059 19.2601 20.8019C20.0848 20.6052 20.9096 20.4046 21.7343 20.2C21.7926 20.1859 21.8516 20.1749 21.9239 20.1602V20.4552C21.6421 20.529 21.3559 20.6028 21.0682 20.6721L18.3387 21.336C18.2591 21.356 18.1824 21.387 18.1042 21.4135C17.725 21.5027 17.3443 21.5891 16.9651 21.682C15.9113 21.9412 14.8584 22.2006 13.8064 22.4603C12.9147 22.6796 12.0231 22.8987 11.1315 23.1176C11.1114 23.1219 11.0909 23.1248 11.0703 23.1264V22.8151L11.9253 22.6078C11.954 22.5621 11.9732 22.5038 12.044 22.5385Z" fill="#027DB0"></path>
    <path d="M14.4047 23.7067C14.1901 23.7524 13.9747 23.7929 13.7622 23.8439C12.8917 24.0548 12.0212 24.2673 11.1507 24.4812C11.1309 24.4864 11.1095 24.4871 11.0593 24.4937C11.0593 24.4266 11.0593 24.3684 11.0593 24.3115C11.0527 24.2178 11.0903 24.1795 11.1862 24.1574C11.6288 24.0556 12.0618 23.9442 12.4993 23.8357C13.3211 23.6321 14.1436 23.43 14.9646 23.2242C15.1233 23.1844 15.2774 23.1276 15.4338 23.0767C15.4969 23.0801 15.5602 23.0771 15.6227 23.0678C17.1305 22.699 18.6376 22.3287 20.144 21.9568C20.16 21.9542 20.1763 21.953 20.1926 21.9531C19.6849 22.2992 19.115 22.5436 18.5144 22.6731C17.2065 22.9682 15.9067 23.3054 14.6046 23.627C14.5363 23.6491 14.4695 23.6757 14.4047 23.7067Z" fill="#027DB0"></path>
    <path d="M20.9365 13.8555C20.2903 14.0112 19.6441 14.1646 18.9986 14.3217C18.0972 14.5406 17.1959 14.7619 16.295 14.9857C15.9615 15.0675 15.6311 15.1517 15.2976 15.235L15.3345 15.266C15.2998 15.3398 15.2275 15.325 15.167 15.3287C15.0808 15.3249 14.9947 15.3398 14.9148 15.3722C14.464 15.4843 14.017 15.6098 13.5625 15.7057C13.4925 15.7204 13.4202 15.7359 13.3611 15.6732C13.3366 15.6279 13.3253 15.5765 13.3287 15.5251C13.3321 15.4737 13.35 15.4242 13.3804 15.3826C13.9789 15.235 14.5771 15.0892 15.1752 14.9451C16.0668 14.7273 16.9581 14.5086 17.8493 14.2893C18.7197 14.0764 19.5902 13.8632 20.4607 13.6497C20.6208 13.6099 20.7794 13.5649 20.9379 13.5221L21.9236 13.3008V13.5915L20.9365 13.8555Z" fill="#027DB0"></path>
    <path d="M20.9325 8.36804C20.9325 8.70883 20.9325 9.04942 20.9325 9.38977C20.9178 9.47454 20.8425 9.47976 20.785 9.49526C20.1262 9.66267 19.463 9.81244 18.8043 9.98214C18.7482 9.99685 18.6848 10.019 18.6346 9.96071C18.5749 9.76744 18.6125 9.56896 18.6058 9.37055C18.5978 9.13743 18.5933 9.12937 18.3654 9.12494C18.2673 9.12494 18.1669 9.14115 18.0703 9.09536C18.0843 9.00688 18.0828 9.00174 18.192 8.9796C18.4023 8.93531 18.6073 8.87118 18.8154 8.82168C19.4547 8.66976 20.0906 8.51434 20.723 8.35549C20.757 8.34333 20.793 8.33817 20.8291 8.34032C20.8651 8.34248 20.9003 8.3519 20.9325 8.36804Z" fill="#042E7A"></path>
    <path d="M20.9332 9.7418C20.9332 10.086 20.9332 10.4281 20.9332 10.7679C20.9074 10.8453 20.8343 10.8505 20.7724 10.866C20.1232 11.0254 19.4756 11.1936 18.8241 11.3441C18.7571 11.3603 18.6825 11.3891 18.6264 11.3138C18.5858 10.9879 18.583 10.6585 18.6184 10.332C18.6545 10.2434 18.7356 10.222 18.8168 10.2021C19.4475 10.045 20.0804 9.89228 20.7119 9.73436C20.7856 9.71594 20.8616 9.6798 20.9332 9.7418Z" fill="#042E7A"></path>
    <path d="M20.9361 11.1326L20.9413 12.1543C20.8999 12.2281 20.824 12.2325 20.7561 12.2487C20.1409 12.3962 19.5234 12.5437 18.9119 12.7016C18.8197 12.7252 18.7194 12.7754 18.6353 12.6758C18.5924 12.3486 18.5904 12.0172 18.6294 11.6895C18.6692 11.6106 18.7474 11.5958 18.8219 11.5767C19.4524 11.4174 20.0843 11.2624 20.7178 11.1119C20.79 11.0965 20.8675 11.0721 20.9361 11.1326Z" fill="#042E7A"></path>
    <path d="M15.2327 20.3948C15.4348 20.3535 15.6392 20.321 15.8391 20.2694C16.8256 20.0284 17.8116 19.7855 18.7972 19.5406C19.4523 19.3797 20.1088 19.2211 20.7646 19.0603C20.8221 19.043 20.8787 19.0229 20.9342 18.9999C21.1556 18.9526 21.3813 18.9069 21.6041 18.8589C21.7052 18.8375 21.8062 18.811 21.9198 18.7852V19.0876C21.652 19.154 21.3769 19.2219 21.1024 19.292C21.0452 19.3083 20.9888 19.3275 20.9335 19.3495C20.5433 19.4417 20.1523 19.5309 19.7628 19.6261C19.0901 19.7892 18.4187 19.9559 17.7467 20.1211C16.8615 20.3385 15.9763 20.5561 15.0911 20.774C14.883 20.8249 14.6742 20.8677 14.4655 20.9142C14.4633 20.8949 14.4668 20.8754 14.4758 20.8582C14.4847 20.8409 14.4986 20.8268 14.5156 20.8175C14.7325 20.6832 14.9309 20.5224 15.1567 20.4C15.1675 20.3918 15.1804 20.3869 15.1939 20.386C15.2074 20.3851 15.2209 20.3881 15.2327 20.3948Z" fill="#027DB0"></path>
    <path d="M20.9334 15.2399C20.431 15.3587 19.9279 15.4737 19.427 15.5969C18.4776 15.8293 17.5296 16.0661 16.581 16.3007C16.5117 16.3184 16.4415 16.3316 16.3723 16.3464C16.3313 16.3011 16.3086 16.2423 16.3086 16.1811C16.3086 16.1201 16.3313 16.0613 16.3723 16.016C16.6289 15.9577 16.8886 15.9023 17.1431 15.8389C18.0938 15.6053 19.0441 15.3697 19.9942 15.1322C20.3085 15.054 20.6213 14.9699 20.9349 14.8888L21.719 14.7184L21.9211 14.6719V14.9766C21.6445 15.0444 21.3635 15.113 21.0831 15.1838C21.0321 15.1995 20.9821 15.2182 20.9334 15.2399Z" fill="#027DB0"></path>
    <path d="M16.3767 17.3634C16.6923 17.2896 17.0096 17.2247 17.3246 17.1479C18.4202 16.8809 19.5152 16.6104 20.6095 16.3365C20.7201 16.3092 20.8308 16.2745 20.9393 16.2435L21.6769 16.0856C21.7566 16.0687 21.8362 16.0488 21.9284 16.0273V16.3305C21.6732 16.3947 21.4121 16.4582 21.1539 16.5261C21.0801 16.5445 21.0122 16.574 20.9407 16.5998C20.6456 16.6684 20.3417 16.7318 20.0437 16.8056C19.1327 17.027 18.2223 17.2593 17.3142 17.4836C17.0052 17.5573 16.6938 17.6252 16.384 17.696C16.3419 17.6513 16.3178 17.5925 16.3165 17.5311C16.315 17.4696 16.3365 17.4099 16.3767 17.3634Z" fill="#027DB0"></path>
    <path d="M16.3775 18.7589C16.9913 18.6074 17.606 18.4562 18.2217 18.3052L20.8501 17.6634C20.8818 17.6553 20.9128 17.642 20.9438 17.6317L21.7921 17.4414L21.9271 17.4141V17.715C21.6593 17.78 21.3916 17.8427 21.126 17.912C21.0607 17.9348 20.9975 17.9632 20.9371 17.9969C20.6686 18.0522 20.3979 18.1009 20.1316 18.1651C19.132 18.4055 18.1332 18.6527 17.1336 18.8946C16.8828 18.9558 16.6305 19.009 16.379 19.0658C16.3391 19.0247 16.3166 18.9698 16.3164 18.9127C16.3161 18.8554 16.338 18.8003 16.3775 18.7589Z" fill="#027DB0"></path>
    <path d="M20.9318 5.62978C20.6751 5.68732 20.4154 5.74191 20.1617 5.80462C19.152 6.05051 18.1424 6.29862 17.1327 6.54894C17.1004 6.55486 17.0675 6.55855 17.0347 6.56001C16.9946 6.51409 16.9727 6.45527 16.9727 6.3944C16.9727 6.33353 16.9946 6.27471 17.0347 6.22879C17.3666 6.15502 17.6986 6.08641 18.0298 6.00748C18.9642 5.78322 19.8986 5.5565 20.833 5.32733C20.869 5.31448 20.9037 5.29791 20.9362 5.27791L21.674 5.12004L21.9248 5.0625V5.35758C21.6695 5.42176 21.4084 5.48594 21.1502 5.5538C21.0727 5.57445 21.0034 5.6047 20.9318 5.62978Z" fill="#027DB0"></path>
    <path d="M17.0353 7.5942C17.2108 7.56395 17.3894 7.54404 17.5619 7.50198C18.4472 7.28511 19.3324 7.05937 20.2177 6.84249C20.4574 6.782 20.6964 6.7193 20.9362 6.65807L21.7882 6.4648L21.9232 6.4375V6.73848C21.654 6.80413 21.3869 6.86683 21.1206 6.93618C21.0556 6.95894 20.9926 6.98733 20.9325 7.02101C20.664 7.07486 20.3939 7.12207 20.1277 7.18478C19.5235 7.32642 18.9208 7.47986 18.3181 7.62739C17.9448 7.71887 17.5723 7.81329 17.1983 7.90476C17.1452 7.91731 17.0899 7.92099 17.036 7.92837C16.9953 7.88227 16.9727 7.82293 16.9727 7.76142C16.9725 7.69992 16.9947 7.64047 17.0353 7.5942Z" fill="#027DB0"></path>
    <path d="M20.9319 8.36807L19.4942 8.71105C19.0368 8.82176 18.5796 8.9331 18.1228 9.04523C18.097 9.05385 18.0723 9.06524 18.049 9.07923C18.0334 9.09513 18.0147 9.10754 17.9939 9.11569C17.9732 9.12383 17.9511 9.12747 17.9288 9.12644C17.6699 9.13451 17.4124 9.13822 17.1506 9.12644C17.0723 9.12272 16.9691 9.11537 17.0303 8.97888C17.1741 8.94717 17.3195 8.91689 17.4626 8.88146C18.5568 8.61495 19.6503 8.34815 20.743 8.0811C20.8065 8.06561 20.8677 8.03905 20.9297 8.01766C21.1001 7.98373 21.2705 7.95201 21.4395 7.91512C21.5944 7.88119 21.7478 7.84136 21.9153 7.80078V8.10397C21.6467 8.1711 21.3723 8.23823 21.0979 8.30831C21.0433 8.32749 20.9879 8.3511 20.9319 8.36807Z" fill="#027DB0"></path>
    <path d="M18.6491 12.7018C18.8099 12.6686 18.9722 12.6399 19.1315 12.6015C19.734 12.454 20.3359 12.3065 20.9374 12.1589L21.9229 11.9258V12.226C21.6552 12.2932 21.3837 12.3588 21.1115 12.4289C21.0499 12.4482 20.9896 12.4711 20.9307 12.4975C20.6843 12.5521 20.438 12.6045 20.193 12.6628C19.7446 12.7697 19.2975 12.884 18.8497 12.991C18.7811 13.008 18.7148 13.0353 18.6476 13.0582C18.622 13.036 18.6014 13.0086 18.5874 12.9778C18.5734 12.947 18.5663 12.9135 18.5664 12.8797C18.5665 12.8458 18.574 12.8124 18.5882 12.7817C18.6025 12.751 18.6233 12.7238 18.6491 12.7018Z" fill="#027DB0"></path>
    <path d="M20.9339 11.135C20.6499 11.1925 20.3651 11.2434 20.0841 11.3098C19.6053 11.4234 19.1288 11.5474 18.6514 11.6661C18.6262 11.6469 18.6057 11.622 18.5917 11.5936C18.5776 11.5651 18.5703 11.5337 18.5703 11.502C18.5703 11.4702 18.5776 11.4389 18.5917 11.4104C18.6057 11.382 18.6262 11.3571 18.6514 11.3378C19.0838 11.2331 19.516 11.1291 19.9483 11.0229C20.2781 10.9409 20.6071 10.8554 20.9369 10.7713L21.6745 10.6076L21.9216 10.5508V10.851C21.7844 10.8864 21.6376 10.9247 21.4901 10.9631C21.3425 11.0014 21.178 11.0369 21.0238 11.0774C20.9911 11.092 20.9607 11.1114 20.9339 11.135Z" fill="#027DB0"></path>
    <path d="M20.9361 9.74718C20.61 9.82096 20.284 9.89474 19.9594 9.97737C19.5226 10.0851 19.0874 10.1986 18.6514 10.3063C18.6262 10.287 18.6057 10.2622 18.5917 10.2337C18.5776 10.2053 18.5703 10.174 18.5703 10.1422C18.5703 10.1105 18.5776 10.0791 18.5917 10.0507C18.6057 10.0222 18.6262 9.99738 18.6514 9.97808C19.368 9.8015 20.0841 9.625 20.7996 9.44842C20.8458 9.43387 20.8909 9.41608 20.9346 9.39528C21.1434 9.3525 21.3529 9.31194 21.5609 9.26765C21.6782 9.24259 21.7948 9.2138 21.9231 9.18359V9.47792L20.9361 9.74718Z" fill="#027DB0"></path>
    <path d="M18.6487 9.97208C18.6487 10.0813 18.6487 10.1934 18.6487 10.3004V11.6621C18.6487 12.0064 18.6487 12.3507 18.6487 12.695V13.693H15.9274C15.4922 13.7616 15.0533 13.7358 14.6158 13.7388C14.2757 13.7277 13.9349 13.7388 13.5948 13.7388C13.4384 13.7388 13.4348 13.7528 13.4237 13.9844C13.4237 14.0973 13.451 14.2146 13.3772 14.3171C13.3772 14.6707 13.3772 15.024 13.3772 15.3772C13.3772 15.4775 13.3772 15.5786 13.3772 15.6789C13.3973 15.7053 13.4119 15.7356 13.4202 15.7677C13.4286 15.7998 13.4305 15.8334 13.4259 15.8663C13.4259 16.1525 13.4326 16.4394 13.4259 16.7257C13.4304 16.8415 13.4304 16.9573 13.4259 17.0724C13.4326 17.4103 13.4333 17.7474 13.4259 18.0852C13.4304 18.1995 13.4311 18.3139 13.4259 18.4275C13.4313 18.7599 13.4313 19.0924 13.4259 19.4248C13.413 19.5431 13.4149 19.6626 13.4318 19.7804C13.6715 19.6388 13.8833 19.4795 14.0957 19.3253C14.1079 19.3148 14.1207 19.3053 14.1341 19.2965C14.1614 19.2788 14.1887 19.2611 14.2153 19.2419C14.3886 19.1327 14.5509 19.0095 14.7235 18.8996C14.7664 18.8743 14.8016 18.8376 14.8252 18.7936C14.8488 18.7497 14.8598 18.7001 14.8571 18.6503C14.8571 18.4459 14.8571 18.2423 14.8526 18.038C14.8526 17.9406 14.8526 17.844 14.8526 17.7429C14.846 17.3977 14.8452 17.0524 14.8526 16.7102C14.8467 16.6047 14.8489 16.4999 14.8526 16.3944C14.843 16.1045 14.8526 15.8146 14.8526 15.5254C14.8462 15.4593 14.8643 15.3932 14.9035 15.3395C14.9399 15.3094 14.9818 15.2864 15.0267 15.2717C15.1278 15.2591 15.231 15.2628 15.3336 15.2599H16.373V16.3369C16.373 16.6812 16.373 17.0254 16.373 17.3697C16.373 17.4803 16.373 17.5909 16.373 17.7017C16.373 18.0537 16.373 18.4058 16.373 18.758C16.373 18.8598 16.373 18.9616 16.373 19.0627C16.3634 19.1938 16.3619 19.3253 16.3686 19.4566C16.3826 19.5864 16.3243 19.6528 16.221 19.7184C15.8876 19.9398 15.5571 20.1655 15.2288 20.3897L14.4646 20.9061C14.0382 21.1887 13.611 21.469 13.1862 21.7537C12.8026 22.0112 12.4219 22.2701 12.0406 22.5327L11.9218 22.5984L11.9063 21.57C11.8783 21.5192 11.8637 21.4621 11.8637 21.4041C11.8637 21.346 11.8783 21.2889 11.9063 21.2381C11.9063 20.8865 11.9063 20.5341 11.9063 20.181C11.8795 20.1347 11.8653 20.0821 11.8653 20.0287C11.8653 19.9751 11.8795 19.9226 11.9063 19.8764V18.82C11.8781 18.7691 11.8634 18.712 11.8634 18.654C11.8634 18.5959 11.8781 18.5388 11.9063 18.488V17.4589C11.8783 17.408 11.8637 17.3507 11.8637 17.2926C11.8637 17.2344 11.8783 17.1772 11.9063 17.1262C11.9063 16.7746 11.9063 16.4225 11.9063 16.0698C11.8795 16.0236 11.8653 15.971 11.8653 15.9175C11.8653 15.8641 11.8795 15.8115 11.9063 15.7652V14.7073C11.8781 14.6568 11.8634 14.5999 11.8634 14.5421C11.8634 14.4842 11.8781 14.4274 11.9063 14.3768V13.3441C11.8785 13.2928 11.864 13.2354 11.864 13.177C11.864 13.1186 11.8785 13.0612 11.9063 13.0099V12.2199H15.1056C15.5379 12.1542 15.9739 12.1764 16.4084 12.1749C16.5899 12.1896 16.7714 12.1749 16.9536 12.1749C17.0642 12.1749 17.1173 12.1277 17.1121 12.0162C17.107 11.9049 17.0893 11.8112 17.163 11.7212V10.6582C17.1419 10.6407 17.1173 10.628 17.0908 10.6207C17.0644 10.6135 17.0367 10.6119 17.0096 10.6161C16.8001 10.6161 16.5899 10.6161 16.3803 10.6161C16.2314 10.6236 16.0821 10.6082 15.9377 10.5704C15.4848 10.5704 15.0326 10.5652 14.5797 10.5645C13.6856 10.5645 12.7913 10.5645 11.8967 10.5645C11.8694 10.5645 11.8421 10.5689 11.8148 10.5711C11.6257 10.6111 11.4324 10.627 11.2394 10.6183C11.173 10.6245 11.1064 10.6087 11.0498 10.5733C11.0107 10.5733 10.976 10.566 10.934 10.566H4.78389V12.2139H10.0215V22.5859C9.97428 22.5586 9.93735 22.5402 9.90272 22.5172L5.69788 19.6941C5.66103 19.6777 5.62961 19.6512 5.60727 19.6176C5.58493 19.5841 5.57261 19.5449 5.57174 19.5045C5.5769 18.1236 5.57174 16.7419 5.57174 15.361C5.57174 15.3344 5.57174 15.3078 5.5769 15.2739H7.03015V15.4472C7.03015 16.5191 7.03015 17.5909 7.03015 18.6628C7.02452 18.7138 7.03395 18.7652 7.05729 18.8109C7.08064 18.8565 7.11685 18.8943 7.16146 18.9195C7.60407 19.2087 8.04668 19.5097 8.48413 19.8048C8.5011 19.8159 8.51954 19.8254 8.5579 19.8468V13.693H3.32031V9.08689H4.89896V4.95583L8.13373 6.81628L10.9428 4.23438L11.6156 4.84149C11.7361 4.90214 11.8381 4.99413 11.9107 5.10779L12.8321 5.95318C12.9464 5.98638 12.9995 6.10073 13.0962 6.15678C13.2954 6.34785 13.4975 6.53522 13.7063 6.71596C13.7297 6.73956 13.7607 6.75402 13.7939 6.75673C13.827 6.75943 13.8601 6.7502 13.8869 6.73071C14.6298 6.294 15.3815 5.87278 16.1207 5.4309C16.1334 5.42145 16.1467 5.41282 16.1605 5.40508L16.2461 5.35861C16.446 5.25312 16.6327 5.12476 16.8362 5.02149C16.8967 4.9905 16.9587 4.91083 17.0273 4.97132C17.0959 5.03181 17.0797 5.11886 17.0354 5.19927V6.23203C17.0354 6.34269 17.0354 6.45334 17.0354 6.56326C17.0354 6.90751 17.0354 7.25177 17.0354 7.59602C17.0354 7.70668 17.0354 7.81733 17.0354 7.9265V8.98512C17.0111 9.06325 17.0391 9.09575 17.121 9.09425C17.4323 9.08911 17.7436 9.08689 18.0542 9.08318H18.6517L18.6487 9.97208Z" fill="#FEFEFE"></path>
    <path d="M13.0653 6.1708L12.8359 5.95761C12.9379 5.91256 13.0423 5.8734 13.1487 5.84032C13.6606 5.71049 14.1727 5.58581 14.6853 5.46115C15.5558 5.25091 16.4277 5.04436 17.2975 4.83116C18.0175 4.65412 18.7375 4.47486 19.4552 4.28748C19.6354 4.23375 19.8279 4.23788 20.0056 4.29929C20.1031 4.3255 20.1981 4.36031 20.2895 4.4033L17.0364 5.2037C17.0311 5.13362 17.0253 5.06353 17.0187 4.98239L16.2374 5.40508C16.2167 5.42131 16.1836 5.41394 16.1681 5.44049C15.5307 5.6559 14.8682 5.77762 14.2177 5.94138C13.9026 6.02032 13.5921 6.11843 13.2719 6.17597C13.2025 6.18556 13.1332 6.21138 13.0653 6.1708Z" fill="#027DB0"></path>
    <path d="M15.9457 10.5829C16.3253 10.5789 16.7058 10.5747 17.0869 10.5703C17.1606 10.5703 17.1887 10.5998 17.1695 10.6714C16.7364 10.7739 16.3027 10.8742 15.8704 10.9797C14.9198 11.2128 13.9699 11.4477 13.0208 11.6842C12.3907 11.8401 11.7605 11.9946 11.13 12.1475C11.1102 12.1508 11.0903 12.1528 11.0703 12.1534V11.8369L16.0128 10.6242L15.9457 10.5829Z" fill="#027DB0"></path>
    <path d="M11.9161 5.10744L11.6211 4.84113C12.1773 4.7054 12.733 4.56967 13.2883 4.43393C14.3412 4.17574 15.3934 3.91681 16.4448 3.65715C16.5732 3.62616 16.7008 3.59149 16.8299 3.56493C16.8827 3.55265 16.9374 3.5514 16.9907 3.56124C17.1662 3.59749 17.3389 3.64681 17.5071 3.70878C17.302 3.76189 17.097 3.8187 16.8911 3.86886C16.0197 4.08132 15.1484 4.29328 14.2775 4.50475C13.5024 4.6936 12.7279 4.88392 11.9538 5.07572C11.9405 5.08089 11.9287 5.09711 11.9161 5.10744Z" fill="#027DB0"></path>
    <path d="M14.6933 3.03456L11.0897 3.91978C11.03 3.62471 11.0366 3.61217 11.2874 3.55094C12.1845 3.32963 13.0829 3.11791 13.9785 2.89439C14.1865 2.84275 14.3687 2.93497 14.5628 2.9571C14.6056 2.96546 14.6478 2.97705 14.6889 2.99177L14.6933 3.03456Z" fill="#027DB0"></path>
    <path d="M17.1642 11.7344V12.0339C17.0049 12.1394 16.8204 12.1682 16.6382 12.1985C16.5688 12.2102 16.4981 12.2109 16.4294 12.2295H15.1016C15.7434 12.0681 16.3855 11.9071 17.0277 11.7462C17.0727 11.7378 17.1184 11.7339 17.1642 11.7344Z" fill="#027DB0"></path>
    <path d="M11.9082 21.2422V21.5742L11.1882 21.7253C11.1528 21.7327 11.1145 21.7357 11.0798 21.7408C11.0156 21.476 11.0289 21.4458 11.2694 21.3905C11.4826 21.3381 11.6958 21.2916 11.9082 21.2422Z" fill="#027DB0"></path>
    <path d="M11.9067 14.3789V14.7094C11.6811 14.7588 11.456 14.8082 11.2303 14.8569C11.1794 14.868 11.127 14.8731 11.0761 14.8806C11.0208 14.5965 11.0245 14.5855 11.2627 14.5294C11.4774 14.4755 11.6928 14.4283 11.9067 14.3789Z" fill="#027DB0"></path>
    <path d="M11.9064 18.4922V18.8242C11.6924 18.8722 11.4785 18.9216 11.2639 18.968C11.2019 18.9813 11.1377 18.9857 11.0625 18.9953V18.6951L11.9064 18.4922Z" fill="#027DB0"></path>
    <path d="M11.9089 17.1289V17.4616L11.1713 17.6091L11.0702 17.6261C11.065 17.5855 11.0577 17.5523 11.057 17.5221C11.0495 17.3244 11.0495 17.3229 11.2362 17.2801C11.4604 17.2278 11.6855 17.179 11.9089 17.1289Z" fill="#027DB0"></path>
    <path d="M11.9079 13.0117V13.3459L11.0648 13.503C11.0648 13.458 11.0581 13.4153 11.0537 13.3732C11.0404 13.2596 11.0699 13.1932 11.2012 13.1703C11.4439 13.132 11.6733 13.0693 11.9079 13.0117Z" fill="#027DB0"></path>
    <path d="M11.9074 15.7695V16.0742L11.0664 16.2653V15.9414L11.9074 15.7695Z" fill="#027DB0"></path>
    <path d="M11.9074 19.8867C11.9074 19.9886 11.9074 20.0896 11.9074 20.1914L11.0664 20.3855V20.0675L11.9074 19.8867Z" fill="#027DB0"></path>
    <path d="M11.0547 10.582H11.8197L11.0643 10.7989C11.0599 10.6986 11.0569 10.6396 11.0547 10.582Z" fill="#027DB0"></path>
    <path fill-rule="evenodd" clip-rule="evenodd" d="M64.4064 13.3605H63.4659C63.4622 13.351 63.4586 13.3416 63.455 13.3325C63.4463 13.3102 63.438 13.2889 63.4312 13.2669C62.9878 11.8188 62.0244 10.9527 60.5166 10.7632C59.3658 10.6185 58.3552 10.9756 57.574 11.8475C56.744 12.7734 56.5073 13.8718 56.7699 15.0749C57.0959 16.5688 58.2807 17.6126 59.8254 17.7491C60.5439 17.819 61.266 17.6564 61.8853 17.2853C62.5044 16.9141 62.9882 16.3539 63.2652 15.6872C63.3178 15.5608 63.3624 15.434 63.4069 15.3076C63.4273 15.2496 63.4478 15.1917 63.4688 15.1339H64.4123V17.6288H66.2934V15.145C66.3659 15.145 66.4367 15.1459 66.5062 15.1467C66.6418 15.1483 66.7728 15.1499 66.9035 15.145C66.9517 15.1392 67.0005 15.148 67.0436 15.1702C67.0867 15.1924 67.1222 15.2271 67.1455 15.2697C67.4518 15.7338 67.7619 16.1957 68.0719 16.6575C68.2636 16.943 68.4552 17.2284 68.6459 17.5145C68.6689 17.5571 68.7036 17.5922 68.746 17.6156C68.7884 17.639 68.8366 17.6498 68.8849 17.6465C69.4928 17.6428 70.1014 17.6428 70.7093 17.6428C70.7395 17.6428 70.7689 17.6403 70.8061 17.6372C70.8259 17.6354 70.848 17.6335 70.8737 17.6317L68.5567 14.2384L70.7853 10.8317H70.5728C70.3812 10.8317 70.1896 10.8326 69.998 10.8334C69.6147 10.835 69.2311 10.8367 68.848 10.8317C68.792 10.8259 68.7354 10.8369 68.6855 10.8631C68.6357 10.8894 68.5947 10.9298 68.5677 10.9793C68.0789 11.7361 67.5886 12.4908 67.0968 13.2433C67.0673 13.2882 67.0119 13.3458 66.9662 13.3458C66.8039 13.354 66.6417 13.3529 66.4723 13.3517C66.4122 13.3514 66.3512 13.351 66.289 13.351V9.09375H64.4064V13.3605ZM61.6866 13.7905C61.5464 12.9841 60.9423 12.4604 60.1374 12.4478C59.447 12.4368 58.9048 12.7886 58.6517 13.4297C58.4592 13.9235 58.4497 14.4699 58.6252 14.97C58.7173 15.2743 58.9035 15.5415 59.1571 15.7332C59.4107 15.9248 59.7185 16.0311 60.0364 16.0367C60.7756 16.0552 61.3148 15.7084 61.5811 15.0446C61.7329 14.6446 61.7694 14.2101 61.6866 13.7905Z" fill="#0B0B0B"></path>
    <path fill-rule="evenodd" clip-rule="evenodd" d="M24.9297 9.08984V17.647L25.123 17.6478C27.3026 17.6448 29.4815 17.6448 31.6596 17.6478C31.8192 17.6504 31.9782 17.6674 32.1347 17.6987C32.575 17.7898 33.029 17.7913 33.4699 17.7031C34.8922 17.3962 35.7988 16.5287 36.1544 15.1271C36.6722 13.0829 35.3842 11.0034 33.2302 10.7615C32.3486 10.6626 31.5342 10.8544 30.8127 11.3708C29.6487 12.2117 29.1249 13.7012 29.4849 15.1212C29.5269 15.2863 29.5829 15.4481 29.639 15.6102C29.6655 15.6869 29.6921 15.7638 29.7173 15.8411H26.7894V9.08984H24.9297ZM31.6596 12.9483C31.3298 13.3157 31.217 13.7658 31.2214 14.2895C31.2159 14.6032 31.2865 14.9135 31.4272 15.1939C31.7105 15.7479 32.1708 16.0238 32.7853 16.0371C33.4205 16.0511 33.9147 15.7914 34.2097 15.2205C34.4842 14.6952 34.4982 14.1353 34.3366 13.5791C34.1751 13.0229 33.8173 12.6289 33.2338 12.4999C32.6355 12.367 32.0874 12.4733 31.6596 12.9483Z" fill="#0B0B0B"></path>
    <path fill-rule="evenodd" clip-rule="evenodd" d="M46.3697 17.6392H48.2346V9.09375H46.3579V11.3887C46.2873 11.3456 46.2187 11.3012 46.1509 11.2574C46.0111 11.1671 45.8747 11.0788 45.7301 11.0073C44.4827 10.3921 42.5366 10.7911 41.7171 12.4576C41.3099 13.2853 41.2199 14.1572 41.3903 15.0558C41.557 15.9343 41.9701 16.6728 42.7079 17.2017C43.6764 17.8958 45.2278 18.0383 46.2863 17.1397C46.3127 17.1218 46.3407 17.1063 46.3697 17.0933V17.6392ZM45.8112 15.6552C46.2139 15.2724 46.3533 14.7862 46.3615 14.2492C46.3615 14.2344 46.3616 14.2195 46.3619 14.2046C46.3623 14.1698 46.3628 14.1348 46.3607 14.1001C46.3039 13.1124 45.6577 12.3437 44.5423 12.4632C44.2957 12.4832 44.0586 12.5669 43.8541 12.7062C43.6496 12.8455 43.4849 13.0355 43.3761 13.2577C43.1149 13.7549 43.0832 14.286 43.2181 14.8201C43.5811 16.2513 45.1428 16.2852 45.8112 15.6552Z" fill="#0B0B0B"></path>
    <path fill-rule="evenodd" clip-rule="evenodd" d="M72.4498 14.9201H76.9763C76.9811 14.892 76.986 14.8657 76.9908 14.8405C77.0003 14.7893 77.009 14.7432 77.0139 14.6981C77.0633 14.2194 77.0346 13.7358 76.9291 13.2662C76.6406 11.9635 75.7215 10.9108 74.28 10.7581C73.1757 10.6408 72.2056 10.9543 71.4444 11.7791C70.1659 13.1645 70.2043 15.3908 71.5107 16.7474C72.6954 17.9779 74.7115 18.1085 76.0394 17.0381C76.3319 16.8033 76.5772 16.5152 76.7623 16.189L75.2294 15.4365C74.5898 16.0385 73.9923 16.189 73.3181 15.9131C72.8703 15.7316 72.6062 15.3849 72.4498 14.9201ZM72.4642 13.6004H75.2402C75.128 12.9409 74.6345 12.3847 73.7382 12.4481C73.0448 12.4975 72.5019 13.0752 72.4642 13.6004Z" fill="#0B0B0B"></path>
    <path d="M13.3828 14.3233C13.3828 14.2142 13.3828 14.102 13.3828 13.995C13.4184 13.96 13.4651 13.9387 13.5149 13.9346C13.88 13.8608 14.2371 13.7442 14.6088 13.6992H15.9367L14.6915 14.012C14.2932 14.1103 13.8945 14.2087 13.4957 14.3071C13.4585 14.3154 13.4208 14.3208 13.3828 14.3233Z" fill="#027DB0"></path>
    <path d="M14.9054 15.3398V16.3977C14.7741 16.4877 14.614 16.4877 14.4687 16.532C14.1699 16.6242 13.86 16.6795 13.5562 16.7533C13.5282 16.7649 13.4977 16.7695 13.4676 16.7668C13.4374 16.7641 13.4083 16.7541 13.3828 16.7378V15.6762L14.2961 15.4727C14.4989 15.4291 14.7025 15.3848 14.9054 15.3398Z" fill="#042E7A"></path>
    <path d="M11.2899 6.61872L12.1566 7.41985C12.1411 7.52091 12.0519 7.52166 11.9826 7.54157C11.7443 7.60944 11.5001 7.65222 11.2611 7.71861C11.1092 7.76067 11.0966 7.79239 11.129 7.93992C11.1947 7.97533 11.2574 7.94361 11.3201 7.92886C11.6307 7.85509 11.939 7.77173 12.251 7.70755C12.2866 7.69386 12.3247 7.68765 12.3627 7.68929C12.4008 7.69094 12.4381 7.70043 12.4724 7.71714L13.3458 8.51385C13.3355 8.59573 13.2632 8.59352 13.2093 8.60827C12.6605 8.75577 12.1028 8.87091 11.5569 9.02139C11.4352 9.05531 11.3054 9.03167 11.1881 9.07817C11.0944 9.07817 11.0007 9.0841 10.907 9.0841C9.50982 9.0841 8.11239 9.0841 6.71472 9.0841H6.52734V7.60206L8.37157 8.66138C8.80161 8.26672 9.22799 7.87574 9.65367 7.48108L10.941 6.30078L11.0545 6.40553C11.1032 6.45422 11.0826 6.52872 11.1209 6.58332C11.1748 6.60323 11.2382 6.587 11.2899 6.61872Z" fill="#042E7A"></path>
    <path d="M13.3828 18.1037C13.3828 17.7594 13.3828 17.4151 13.3828 17.0709C13.4178 17.0347 13.4623 17.0091 13.5112 16.9971C13.9331 16.8901 14.3551 16.7839 14.7792 16.6895C14.7998 16.6812 14.822 16.6781 14.844 16.6804C14.866 16.6827 14.8871 16.6904 14.9054 16.7028C14.9054 17.0564 14.9054 17.4095 14.9054 17.7621C14.8671 17.8022 14.8164 17.8282 14.7615 17.8359C14.3839 17.9163 14.0142 18.0285 13.6374 18.111C13.5517 18.1309 13.4647 18.1612 13.3828 18.1037Z" fill="#042E7A"></path>
    <path d="M14.9047 18.0653C14.9047 18.2903 14.9135 18.5153 14.9047 18.7403C14.9024 18.7689 14.8944 18.7968 14.8809 18.8221C14.8675 18.8475 14.8489 18.8699 14.8264 18.8878C14.6251 19.0295 14.4164 19.1615 14.2098 19.2972C14.1899 19.3105 14.156 19.2972 14.1471 19.3341C13.9585 19.4022 13.7661 19.4593 13.5709 19.5053C13.541 19.5197 13.5079 19.5258 13.4749 19.5233C13.4418 19.5207 13.4101 19.5094 13.3828 19.4905C13.3828 19.1379 13.3828 18.7853 13.3828 18.4327C13.4227 18.3927 13.4745 18.3669 13.5304 18.3589C13.9191 18.2601 14.3116 18.1796 14.6974 18.069C14.7633 18.0409 14.8378 18.0395 14.9047 18.0653Z" fill="#042E7A"></path>
    <path d="M13.0664 6.17076L15.2058 5.64921C15.472 5.5843 15.7376 5.51496 16.0047 5.45151C16.0585 5.44273 16.113 5.43804 16.1677 5.4375C16.0098 5.53488 15.8541 5.63594 15.6941 5.73257C15.0808 6.08961 14.4661 6.44494 13.8498 6.79853C13.827 6.81181 13.8034 6.82361 13.7651 6.84427L13.0664 6.17076Z" fill="#042E7A"></path>
    <path d="M15.4037 8.35116V9.08072C15.3707 9.08586 15.3374 9.08926 15.3041 9.09107H12.5422C12.5208 9.09107 12.4987 9.08665 12.4766 9.08443C12.4891 8.99444 12.568 8.99887 12.624 8.98408C13.4865 8.76939 14.3503 8.56508 15.2111 8.34451C15.2768 8.32829 15.3417 8.30542 15.4037 8.35116Z" fill="#042E7A"></path>
    <path d="M15.4063 8.34856L13.5872 8.79115C13.2429 8.87528 12.8972 8.95982 12.55 9.0449C12.5241 9.0536 12.4994 9.06523 12.4762 9.07962H11.1875L12.2017 8.81186L13.3474 8.51675C13.5458 8.67387 13.5458 8.67314 13.7753 8.54699C13.9176 8.46806 14.0615 8.39134 14.2053 8.31388C14.2253 8.29692 14.2585 8.30356 14.2747 8.27848C14.5911 8.17225 14.9165 8.10069 15.2396 8.02028C15.2677 8.00882 15.2983 8.00516 15.3284 8.00971C15.3584 8.01425 15.3866 8.02683 15.41 8.0461L15.4063 8.34856Z" fill="#027DB0"></path>
    <path d="M14.9054 16.7048L13.3828 17.0736V16.7468C13.7671 16.6561 14.1507 16.5646 14.5351 16.4761C14.6575 16.4481 14.7815 16.4281 14.9039 16.4023C14.9047 16.5027 14.9054 16.6045 14.9054 16.7048Z" fill="#027DB0"></path>
    <path d="M14.9039 18.0736L13.3828 18.4425C13.3828 18.3326 13.3828 18.2212 13.3828 18.1128L14.3765 17.8914L14.9054 17.7734L14.9039 18.0736Z" fill="#027DB0"></path>
    <path d="M12.4785 7.7123L11.4834 7.93362L11.0703 8.02803V7.72042C11.2916 7.66509 11.5276 7.61198 11.7585 7.55001C11.895 7.51313 12.0271 7.46223 12.1606 7.41797L12.4785 7.7123Z" fill="#027DB0"></path>
    <path d="M15.4048 8.04912C15.1975 8.09412 14.9902 8.14059 14.7822 8.18412C14.6118 8.21879 14.4399 8.24903 14.2695 8.28149L15.4048 7.59766V8.04912Z" fill="#042E7A"></path>
    <path d="M14.6088 13.6992L13.3828 13.9943V13.6992H14.6088Z" fill="#042E7A"></path>
    <path d="M13.3828 19.4914C13.5857 19.4442 13.7878 19.3955 13.9914 19.3505C14.0448 19.3414 14.0989 19.3352 14.1529 19.332L13.3828 19.8765V19.4914Z" fill="#027DB0"></path>
    <path d="M16.4336 12.2267L17.1713 12.0312L17.1824 12.2267H16.4336Z" fill="#042E7A"></path>
    <path d="M11.2939 6.61849L11.0586 6.65538V6.40234L11.2939 6.61849Z" fill="#027DB0"></path>
    <path d="M14.2764 8.28125L14.207 8.31666L14.2764 8.28125Z" fill="#042E7A"></path>
    <path d="M14.1484 19.3376L14.2111 19.3008L14.1484 19.3376Z" fill="#027DB0"></path>
    <path d="M16.168 5.44166L16.2373 5.40625L16.168 5.44166Z" fill="#042E7A"></path>
  </g>
  <defs>
    <clipPath id="clip0_3551_4674">
      <rect width="83.822" height="25.3047" fill="white" transform="translate(0.871094 0.789062)"></rect>
    </clipPath>
  </defs>
</svg>
