<?xml version="1.0" encoding="UTF-8"?>
<svg xmlns="http://www.w3.org/2000/svg" width="122" height="23" viewBox="0 0 122 23" fill="none">
  <g clip-path="url(#clip0_3551_4301)">
    <path d="M33.2031 8.39453H35.4757L38.1056 13.9484L40.7126 8.39453H42.9623V15.5535H41.4787L41.5416 9.6372H41.5216L38.7459 15.5535H37.3995L34.6439 9.6372H34.6238L34.6867 15.5535H33.2031V8.39453Z" fill="#0B0B0B"></path>
    <path d="M47.6562 8.39335H54.1767V9.51611H49.2342V11.3202H53.9766V12.4429H49.2342V14.4268H54.2624V15.5496H47.6562V8.39062V8.39335Z" fill="#0B0B0B"></path>
    <path d="M60.6545 9.51729H57.8359V8.39453H65.051V9.51729H62.2324V15.5535H60.6545V9.51729Z" fill="#0B0B0B"></path>
    <path d="M71.075 8.39453H72.9474L76.2919 15.5535H74.5339L73.7449 13.7794H70.2117L69.4342 15.5535H67.7305L71.075 8.39453ZM73.2733 12.6567L71.9897 9.63993L70.6862 12.6567H73.2733Z" fill="#0B0B0B"></path>
    <path d="M80.1172 8.39453H85.0825C86.7977 8.39453 87.2379 9.26658 87.2379 10.1795C87.2379 11.2014 86.6176 11.493 86.2174 11.6729C86.7948 11.8446 87.5838 12.2452 87.5838 13.447C87.5838 14.2482 87.0578 15.5535 85.0282 15.5535H80.1172V8.39453ZM81.6951 11.3023H84.6395C85.0825 11.3023 85.66 11.2014 85.66 10.3893C85.66 9.79798 85.2826 9.51729 84.365 9.51729H81.6923V11.3023H81.6951ZM81.6951 14.4307H84.5251C85.2283 14.4307 85.9458 14.2999 85.9458 13.3788C85.9458 12.7166 85.4627 12.3651 84.7567 12.3651H81.6951V14.4307Z" fill="#0B0B0B"></path>
    <path d="M94.5203 8.39453H96.3927L99.7372 15.5535H97.9792L97.1902 13.7794H93.657L92.8795 15.5535H91.1758L94.5203 8.39453ZM96.7186 12.6567L95.4351 9.63993L94.1315 12.6567H96.7186Z" fill="#0B0B0B"></path>
    <path d="M106.478 8.19531C107.635 8.19531 109.948 8.39697 110.148 10.4708H108.444C108.393 9.92033 107.867 9.31808 106.552 9.31808C105.5 9.31808 104.805 9.62874 104.805 10.3019C104.805 11.986 110.4 10.3727 110.4 13.4303C110.4 15.2753 108.39 15.7576 106.792 15.7576C104.091 15.7576 103.004 14.7439 102.984 13.2423H104.688C104.731 14.1852 105.551 14.6348 106.843 14.6348C107.801 14.6348 108.696 14.3651 108.696 13.5829C108.696 11.8089 103.164 13.3513 103.164 10.4136C103.164 8.81937 104.648 8.19804 106.478 8.19804V8.19531Z" fill="#0B0B0B"></path>
    <path d="M114.52 8.39335H121.04V9.51611H116.097V11.3202H120.84V12.4429H116.097V14.4268H121.126V15.5496H114.52V8.39062V8.39335Z" fill="#0B0B0B"></path>
    <path d="M19.5058 13.4138C19.3885 14.0787 19.137 14.6782 18.7568 15.1987C18.4738 15.5857 18.1222 15.9291 17.7048 16.2179C17.5676 16.316 17.419 16.406 17.2646 16.4905L16.9645 16.6567L16.5986 16.8583H16.5957L14.4775 15.692L15.115 15.3404L15.5095 15.1224L16.2041 14.7409C16.5385 14.5583 16.8101 14.324 17.0159 14.0433C17.216 13.7626 17.3532 13.441 17.4161 13.0786C17.479 12.7107 17.4647 12.3618 17.3675 12.0403C17.2732 11.7133 17.096 11.4053 16.8416 11.1274L15.0349 9.14072L14.5604 8.61749L14.4775 8.52483L13.0768 6.9824L13.0511 6.95242L12.931 6.82161L10.1668 3.77762C9.88092 3.46695 9.53217 3.24349 9.15198 3.12631C8.76893 3.00912 8.343 2.99822 7.92279 3.0936C7.50544 3.18898 7.13383 3.3852 6.84797 3.65499C6.56211 3.92205 6.35915 4.27632 6.25338 4.67964L2.8088 17.9511C2.72018 18.3545 2.74591 18.7578 2.88312 19.1257C3.01461 19.4745 3.24616 19.7906 3.55203 20.0359C3.58919 20.0659 3.62921 20.0931 3.66637 20.1231C4.03227 20.3847 4.45534 20.54 4.88984 20.5646C5.32435 20.5891 5.76457 20.4855 6.16191 20.2675L10.83 17.6977L11.3245 17.4252L12.3564 16.8583L14.4747 18.0247L13.4827 18.5697L13.3655 18.6351L7.14526 22.0552C6.47921 22.4068 5.74741 22.5893 5.0099 22.5893C4.92414 22.5893 4.84125 22.5866 4.75835 22.5812C3.90935 22.5321 3.08894 22.2378 2.38859 21.7364L2.37143 21.7255C2.37143 21.7255 2.34571 21.7064 2.33141 21.6955C1.65679 21.1968 1.15368 20.5428 0.876398 19.8042C0.596257 19.0548 0.553378 18.2346 0.75062 17.4361L0.759195 17.3979L4.18663 4.19184C4.38387 3.43425 4.78407 2.75023 5.34436 2.21883C5.90464 1.68743 6.625 1.31135 7.42254 1.12877C8.21437 0.946184 9.02906 0.970711 9.78087 1.19962C10.5298 1.42581 11.2073 1.85638 11.7419 2.43684L11.7561 2.45047L14.1974 5.13747L14.346 5.30098L14.4689 5.43451L15.8696 6.97695L16.0697 7.20041L16.4385 7.60373L18.4338 9.79748C18.894 10.3071 19.2199 10.8739 19.4 11.4843C19.5801 12.0975 19.6115 12.7434 19.4943 13.4029L19.5058 13.4138Z" fill="url(#paint0_linear_3551_4301)"></path>
    <path d="M28.0758 19.8066C27.8499 20.4089 27.4869 20.943 26.9924 21.3954C26.8637 21.5125 26.7208 21.627 26.5664 21.7415C25.8632 22.2429 25.0457 22.5372 24.1938 22.5863C23.3734 22.6326 22.5501 22.45 21.8069 22.0576L21.7354 22.0194L15.7867 18.7465L15.1693 18.4059L14.4804 18.0271L12.3622 16.8607L12.3136 16.8335L11.6932 16.4928C11.5646 16.422 11.4417 16.3457 11.3216 16.2666C10.8757 15.9696 10.4984 15.6099 10.2011 15.2011C9.82373 14.6806 9.56932 14.0811 9.45212 13.4161C9.33492 12.7566 9.36636 12.1108 9.54645 11.4976C9.72654 10.8872 10.0524 10.3203 10.5127 9.81074L12.4851 7.63879L13.0768 6.98748L14.4775 8.52992L14.0973 8.94959L13.8372 9.23573L12.1135 11.1324C11.859 11.4104 11.6818 11.7183 11.5875 12.0426C11.4931 12.3642 11.476 12.713 11.5417 13.0809C11.6046 13.4406 11.739 13.7649 11.9448 14.0456C12.1478 14.3236 12.4222 14.558 12.7538 14.7405L13.0739 14.9177L14.1516 15.5118L14.4804 15.6943L16.5986 16.8607L17.0988 17.136H17.1045L17.8363 17.5365L22.7988 20.2699C23.2019 20.4906 23.6335 20.5914 24.0709 20.5669C24.5054 20.5424 24.9285 20.3871 25.2972 20.1254C25.3773 20.0682 25.443 20.0137 25.5059 19.9592C25.7689 19.7221 25.9604 19.4414 26.0805 19.128C26.2177 18.7574 26.2434 18.3459 26.1519 17.9399L26.1376 17.8854L22.7102 4.67928C22.6073 4.27868 22.4015 3.92441 22.1156 3.65735C21.8269 3.38756 21.4553 3.19407 21.0379 3.09597C20.6177 3.00059 20.1947 3.01149 19.8116 3.12867C19.4314 3.24312 19.0798 3.46931 18.7968 3.77998L18.7882 3.78815L16.4614 6.3498L16.3556 6.46698L15.8839 6.98748L14.4832 5.44505L14.912 4.97632L15.0235 4.85369L17.2103 2.44465C17.7391 1.8642 18.4223 1.43635 19.1741 1.20744C19.9259 0.978523 20.7435 0.953997 21.5325 1.13658C22.33 1.31917 23.0475 1.69524 23.6107 2.22664C24.1709 2.75805 24.574 3.44206 24.7684 4.19965L28.2044 17.4439C28.4016 18.2424 28.3588 19.0599 28.0786 19.8093L28.0758 19.8066Z" fill="url(#paint1_linear_3551_4301)"></path>
  </g>
  <defs>
    <linearGradient id="paint0_linear_3551_4301" x1="0.636277" y1="11.8032" x2="19.5744" y2="11.8032" gradientUnits="userSpaceOnUse">
      <stop stop-color="#D329F8"></stop>
      <stop offset="1" stop-color="#09FDF8"></stop>
    </linearGradient>
    <linearGradient id="paint1_linear_3551_4301" x1="9.38351" y1="11.8028" x2="28.3244" y2="11.8028" gradientUnits="userSpaceOnUse">
      <stop stop-color="#D329F8"></stop>
      <stop offset="1" stop-color="#09FDF8"></stop>
    </linearGradient>
    <clipPath id="clip0_3551_4301">
      <rect width="121.294" height="22.2218" fill="white" transform="translate(0.136719 0.652344)"></rect>
    </clipPath>
  </defs>
</svg>
