<?xml version="1.0" encoding="UTF-8"?>
<svg xmlns="http://www.w3.org/2000/svg" width="52" height="28" viewBox="0 0 52 28" fill="none">
  <g clip-path="url(#clip0_3551_5026)">
    <path d="M9.05043 3.28241C9.8312 2.50177 10.5993 1.73655 11.3631 0.966395C11.4 0.925369 11.4456 0.89311 11.4966 0.871978C11.5475 0.850845 11.6025 0.841373 11.6576 0.844255C12.0995 0.851658 12.5414 0.849807 12.9836 0.844255C13.0823 0.844255 13.1131 0.868313 13.1131 0.972563C13.1102 4.84812 13.1102 8.72409 13.1131 12.6004C13.1131 12.7108 13.0823 12.7367 12.9749 12.7355C12.5281 12.7296 12.0807 12.7269 11.6339 12.7355C11.4997 12.7387 11.4782 12.6964 11.4797 12.5733C11.483 9.49948 11.4839 6.42544 11.4825 3.35119V3.1575L10.7332 3.90699C10.4754 4.16515 10.2145 4.42022 9.96225 4.68393C9.91314 4.73808 9.88445 4.80767 9.88115 4.88071C9.87601 5.84179 9.87601 6.80296 9.88115 7.76424C9.88319 7.80933 9.87508 7.85431 9.85741 7.89584C9.83975 7.93737 9.81298 7.97441 9.77908 8.0042C9.56323 8.21055 9.3517 8.42028 9.14725 8.63711C9.07109 8.71792 9.03223 8.69417 8.96871 8.62847C8.76149 8.41411 8.54441 8.20931 8.34089 7.99187C8.28826 7.93386 8.25732 7.85943 8.25331 7.78121C8.24756 6.82507 8.24756 5.86893 8.25331 4.91279C8.25619 4.86523 8.24854 4.81763 8.2309 4.77337C8.21325 4.72912 8.18605 4.68931 8.15125 4.65679C7.65324 4.16638 7.15987 3.67073 6.63966 3.14948V3.33978C6.63966 6.41341 6.64069 9.48746 6.64275 12.5619C6.64275 12.6979 6.6153 12.7424 6.47037 12.7387C6.0288 12.7278 5.58661 12.7313 5.14442 12.7387C5.03649 12.7402 5.00751 12.7106 5.00782 12.6024C5.01069 8.7319 5.01069 4.86138 5.00782 0.990761C5.0072 0.869238 5.04235 0.844255 5.15552 0.845798C5.60264 0.851966 6.04977 0.843639 6.49658 0.852892C6.58463 0.856871 6.66856 0.891323 6.73402 0.950356C7.47409 1.68011 8.2049 2.41572 8.93849 3.1504C8.97673 3.19019 9.01003 3.23584 9.05043 3.28241Z" fill="black"></path>
    <path d="M10.392 21.8898C10.0423 22.2411 9.69976 22.581 9.36427 22.9283C9.32163 22.9821 9.29896 23.049 9.30013 23.1177C9.29612 24.0991 9.29458 25.0809 9.30013 26.0626C9.30013 26.1949 9.26374 26.2205 9.13947 26.2168C8.70283 26.2088 8.26609 26.2088 7.82925 26.2168C7.70837 26.219 7.67969 26.186 7.67969 26.0666C7.68298 22.9115 7.68462 19.7563 7.68462 16.6008C7.68462 15.8914 7.68802 15.182 7.68154 14.4726C7.68154 14.3539 7.71423 14.3317 7.82616 14.332C9.03864 14.3363 10.2514 14.332 11.4648 14.3385C11.5429 14.3419 11.6173 14.3728 11.6748 14.4257C12.1299 14.8717 12.5804 15.3224 13.0263 15.7776C13.0762 15.8313 13.1055 15.9009 13.1093 15.9741C13.1144 17.0022 13.1144 18.0303 13.1093 19.0584C13.1058 19.1317 13.0766 19.2015 13.0269 19.2555C12.5665 19.7253 12.1019 20.1909 11.6332 20.6521C11.5533 20.7304 11.5628 20.7656 11.6362 20.8371C12.0988 21.2915 12.5524 21.7526 13.0128 22.2075C13.0463 22.2376 13.0729 22.2747 13.0906 22.3161C13.1083 22.3576 13.1166 22.4024 13.1151 22.4475C13.1114 23.6553 13.1114 24.8631 13.1151 26.0709C13.1151 26.1801 13.0976 26.2202 12.9758 26.218C12.5185 26.2097 12.0612 26.2109 11.6039 26.218C11.4975 26.218 11.4805 26.1838 11.4805 26.0888C11.484 25.0969 11.4834 24.105 11.4787 23.1131C11.4746 23.0302 11.4419 22.9513 11.3862 22.8897C11.0599 22.5533 10.7269 22.2254 10.392 21.8898ZM9.29735 20.6607C9.31674 20.6513 9.33521 20.6402 9.35255 20.6274C10.0431 19.9388 10.7324 19.248 11.4207 18.555C11.4583 18.5096 11.4789 18.4524 11.4787 18.3934C11.4836 17.9925 11.4821 17.5915 11.4811 17.1905C11.4811 16.9697 11.5385 16.7233 11.4589 16.5354C11.3772 16.3423 11.1601 16.2063 11.0022 16.0453C10.9948 16.0379 10.9893 16.0274 10.9804 16.0237C10.9267 16.0012 10.8724 15.962 10.8182 15.962C10.3507 15.9571 9.88324 15.962 9.41576 15.9571C9.32171 15.9571 9.29519 15.9824 9.29519 16.078C9.29828 17.5989 9.29735 19.1192 9.29735 20.6607Z" fill="black"></path>
    <path d="M32.2649 6.78522C32.2649 8.71272 32.266 10.6401 32.268 12.5674C32.268 12.6972 32.2458 12.7414 32.104 12.7376C31.6676 12.7266 31.2304 12.7288 30.7937 12.7376C30.667 12.7399 30.6322 12.7069 30.6325 12.5781C30.6371 10.9743 30.6325 9.3705 30.6392 7.76665C30.6392 7.62971 30.6053 7.59856 30.4715 7.60041C29.8498 7.60822 29.2281 7.60822 28.6062 7.60041C28.4829 7.60041 28.4542 7.63495 28.4545 7.75463C28.4585 9.35847 28.4545 10.9623 28.4601 12.5661C28.4601 12.696 28.4379 12.742 28.2948 12.7382C27.8631 12.7268 27.4314 12.729 26.9997 12.7382C26.8698 12.7407 26.8261 12.7169 26.8282 12.5738C26.8375 11.9212 26.8322 11.2682 26.8322 10.6156C26.8322 7.41885 26.8313 4.22143 26.8295 1.0234C26.8295 0.888304 26.855 0.840497 27.0018 0.844507C27.428 0.85561 27.8548 0.85376 28.2812 0.844507C28.4175 0.841731 28.461 0.872266 28.4604 1.01846C28.4545 2.61182 28.4604 4.20519 28.453 5.79916C28.453 5.94968 28.4915 5.98422 28.638 5.98268C29.2547 5.97374 29.8714 5.97497 30.4882 5.98268C30.6143 5.98268 30.6374 5.94444 30.6371 5.82847C30.6334 4.22462 30.6371 2.62077 30.6318 1.01692C30.6318 0.88707 30.6541 0.841114 30.7965 0.844815C31.2341 0.854993 31.671 0.853143 32.1067 0.84389C32.2332 0.841422 32.2677 0.870724 32.2674 1.00181C32.2631 2.92992 32.2623 4.85773 32.2649 6.78522Z" fill="black"></path>
    <path d="M39.946 20.2657C39.946 18.8419 39.946 17.4179 39.9504 15.9942C39.9542 15.9061 39.9889 15.8221 40.0484 15.757C40.4826 15.3116 40.9222 14.8718 41.3673 14.4375C41.428 14.3806 41.5066 14.3465 41.5896 14.3413C42.3038 14.3341 43.018 14.3341 43.7324 14.3413C43.8108 14.3448 43.8854 14.3757 43.9433 14.4286C44.3956 14.8709 44.8425 15.3179 45.2841 15.7696C45.3366 15.8279 45.367 15.9028 45.3698 15.9812C45.3741 18.8445 45.3741 21.7075 45.3698 24.5701C45.3663 24.6536 45.3335 24.7332 45.2773 24.795C44.839 25.2434 44.3958 25.6869 43.9476 26.1253C43.8901 26.1783 43.8158 26.2095 43.7377 26.2135C43.0181 26.22 42.2986 26.22 41.5791 26.2135C41.506 26.2104 41.4364 26.1814 41.3827 26.1317C40.935 25.6928 40.4949 25.2462 40.0484 24.8055C40.013 24.7737 39.9851 24.7344 39.9666 24.6905C39.9482 24.6466 39.9397 24.5992 39.9417 24.5516C39.9467 23.1234 39.9481 21.6947 39.946 20.2657ZM41.5705 20.2684C41.5705 21.4758 41.5714 22.6832 41.5733 23.8907C41.5725 23.9594 41.5957 24.0263 41.6389 24.0797C41.9532 24.4048 42.2763 24.721 42.5949 25.0433C42.6519 25.1009 42.6837 25.0951 42.7373 25.0405C43.0506 24.7219 43.3698 24.4088 43.6809 24.0884C43.7231 24.04 43.7468 23.9783 43.7478 23.9141C43.7509 21.4892 43.7509 19.0642 43.7478 16.6391C43.7447 16.5703 43.7176 16.5048 43.671 16.454C43.367 16.1407 43.0543 15.8372 42.7497 15.5229C42.6726 15.443 42.6356 15.4661 42.5724 15.5309C42.2806 15.8276 41.9865 16.1234 41.6889 16.413C41.6495 16.4479 41.6184 16.4911 41.5978 16.5395C41.5772 16.5879 41.5677 16.6402 41.5699 16.6928C41.5714 17.8846 41.5714 19.0766 41.5714 20.2684H41.5705Z" fill="black"></path>
    <path d="M32.264 20.2921C32.264 21.7109 32.2647 23.1297 32.2662 24.5484C32.2687 24.5933 32.2613 24.6382 32.2444 24.6799C32.2276 24.7216 32.2017 24.7591 32.1687 24.7896C31.7219 25.2295 31.2825 25.677 30.8345 26.1159C30.7739 26.1724 30.6954 26.2059 30.6127 26.2106C29.8986 26.2178 29.1843 26.2178 28.4699 26.2106C28.3966 26.2072 28.3267 26.1782 28.2726 26.1285C27.8179 25.6821 27.3672 25.231 26.9207 24.7751C26.8701 24.722 26.8398 24.6526 26.8353 24.5793C26.831 21.7059 26.831 18.8327 26.8353 15.9595C26.838 15.8908 26.865 15.8252 26.9115 15.7745C27.3617 15.3161 27.8159 14.8618 28.2741 14.4115C28.3251 14.3655 28.3906 14.3388 28.4591 14.3359C29.1838 14.3308 29.9083 14.3308 30.6328 14.3359C30.7015 14.3389 30.7669 14.3659 30.8178 14.4121C31.2723 14.8587 31.7226 15.3096 32.1687 15.7646C32.225 15.826 32.2578 15.9053 32.2612 15.9885C32.2656 17.424 32.264 18.8579 32.264 20.2921ZM30.6346 20.2804C30.6346 19.0729 30.6337 17.8655 30.6319 16.6581C30.6332 16.5894 30.6105 16.5223 30.5677 16.4684C30.2569 16.1471 29.9368 15.8349 29.6241 15.5157C29.5625 15.454 29.5316 15.454 29.47 15.5157C29.1616 15.8318 28.8449 16.1403 28.5375 16.4573C28.4909 16.5081 28.4637 16.5736 28.4607 16.6424C28.4568 19.0624 28.4568 21.4824 28.4607 23.9026C28.4638 23.9762 28.4927 24.0465 28.5424 24.1009C28.8458 24.4149 29.1591 24.7178 29.4641 25.0314C29.531 25.1002 29.5646 25.0996 29.6309 25.0314C29.9212 24.7331 30.2155 24.4388 30.5138 24.1487C30.5549 24.1122 30.5874 24.0669 30.6087 24.0162C30.63 23.9655 30.6397 23.9107 30.6371 23.8557C30.6328 22.6642 30.6346 21.4724 30.6346 20.2804Z" fill="black"></path>
    <path d="M19.6885 20.2785C19.6885 21.7071 19.6892 23.1362 19.6907 24.5657C19.6928 24.6107 19.6849 24.6557 19.6676 24.6973C19.6502 24.739 19.6239 24.7763 19.5905 24.8066C19.1477 25.2433 18.7119 25.6868 18.267 26.1214C18.2056 26.1773 18.1266 26.21 18.0437 26.2139C17.3296 26.2207 16.6153 26.2207 15.9009 26.2139C15.8278 26.2118 15.7578 26.1841 15.703 26.1356C15.2443 25.6859 14.7901 25.2317 14.3403 24.7729C14.2938 24.7222 14.2669 24.6566 14.2645 24.5879C14.2608 21.7147 14.2608 18.8417 14.2645 15.9687C14.2673 15.8998 14.2947 15.8341 14.3419 15.7837C14.796 15.3231 15.2535 14.8653 15.7144 14.4102C15.7614 14.3672 15.8221 14.3422 15.8858 14.3396C16.6154 14.3347 17.3452 14.3347 18.0752 14.3396C18.139 14.3434 18.1995 14.3696 18.246 14.4136C18.7036 14.8645 19.1574 15.3191 19.6074 15.7772C19.6584 15.8375 19.6862 15.9141 19.6857 15.9931C19.6901 17.4209 19.691 18.8494 19.6885 20.2785ZM15.8864 20.263C15.8864 21.4702 15.8874 22.6774 15.8892 23.8846C15.8892 23.9491 15.9093 24.0315 15.9509 24.0749C16.2645 24.4 16.5883 24.7159 16.904 25.0385C16.9682 25.1042 17.0012 25.0912 17.0582 25.0332C17.3666 24.718 17.6836 24.4093 17.9904 24.0916C18.0396 24.0373 18.0682 23.9674 18.0712 23.8942C18.0753 21.4802 18.0753 19.0659 18.0712 16.6513C18.0688 16.5828 18.0425 16.5173 17.9969 16.4662C17.6885 16.1492 17.3721 15.8417 17.0644 15.5246C16.9925 15.4506 16.9552 15.4567 16.8868 15.5267C16.5899 15.8321 16.2887 16.1336 15.9833 16.4314C15.9498 16.4617 15.9235 16.499 15.9062 16.5408C15.889 16.5825 15.8811 16.6275 15.8834 16.6726C15.8868 17.8693 15.8879 19.0661 15.8864 20.263Z" fill="black"></path>
    <path d="M2.83024 27.8398C2.32638 27.3364 1.85459 26.8562 1.37262 26.3871C1.25298 26.2708 1.20672 26.1554 1.20703 25.9861C1.21238 22.1587 1.21238 18.3307 1.20703 14.5022C1.20703 14.3564 1.2502 14.3317 1.38372 14.3323C2.58078 14.3372 3.77783 14.3372 4.97489 14.3323C5.01985 14.3303 5.0647 14.3381 5.10631 14.3553C5.14791 14.3724 5.18525 14.3985 5.21572 14.4316C5.65544 14.8782 6.10257 15.3174 6.54167 15.7659C6.59776 15.8273 6.63051 15.9064 6.63418 15.9895C6.64035 17.0073 6.63665 18.0252 6.64066 19.043C6.64207 19.088 6.63362 19.1328 6.61588 19.1742C6.59814 19.2156 6.57155 19.2526 6.53797 19.2826C5.33742 20.48 4.13759 21.678 2.93848 22.8768C2.9015 22.9108 2.87245 22.9525 2.85338 22.999C2.8343 23.0455 2.82567 23.0956 2.82808 23.1457C2.83137 24.6468 2.83209 26.1473 2.83024 27.6473V27.8398ZM2.83024 20.6586C2.85181 20.6476 2.87244 20.6349 2.89191 20.6206C3.57771 19.9351 4.26299 19.2485 4.94775 18.5609C4.9856 18.5154 5.00633 18.4581 5.00634 18.399C5.01097 17.9937 5.00974 17.5881 5.0085 17.1825C5.0085 16.962 5.06308 16.7168 4.98445 16.528C4.90582 16.3393 4.69737 16.2011 4.53393 16.0537C4.47058 15.9998 4.39125 15.9684 4.30821 15.9642C3.87188 15.9559 3.43555 15.9676 2.99953 15.9562C2.84936 15.9522 2.82716 16.0046 2.82777 16.1372C2.83209 17.585 2.83024 19.0328 2.83024 20.4806V20.6586Z" fill="black"></path>
    <path d="M41.5735 6.80009C41.5735 7.9928 41.5753 9.1852 41.5707 10.3779C41.5685 10.4279 41.5775 10.4778 41.597 10.5239C41.6166 10.57 41.6461 10.6112 41.6836 10.6444C41.9858 10.9384 42.2838 11.2365 42.5778 11.5388C42.649 11.6122 42.6857 11.6097 42.7551 11.5388C43.0564 11.2304 43.3666 10.929 43.6666 10.6188C43.7156 10.5635 43.7444 10.4933 43.7484 10.4195C43.757 10.1216 43.7545 9.82335 43.7505 9.52509C43.7505 9.44058 43.7712 9.40943 43.8618 9.41036C44.3293 9.41467 44.797 9.41467 45.2649 9.41036C45.35 9.41036 45.3793 9.43133 45.3783 9.52077C45.3746 10.0553 45.3783 10.5901 45.3737 11.1247C45.3708 11.1785 45.349 11.2298 45.312 11.2692C44.8501 11.7374 44.3853 12.203 43.9176 12.6656C43.8739 12.7052 43.8175 12.7281 43.7585 12.7303C43.0287 12.7346 42.299 12.7346 41.5692 12.7303C41.5054 12.7273 41.4448 12.7022 41.3977 12.659C40.9364 12.2049 40.4787 11.7469 40.0246 11.2851C39.9794 11.2338 39.9536 11.1683 39.9518 11.0999C39.9483 8.22659 39.9483 5.35313 39.9518 2.47957C39.9558 2.40605 39.9858 2.33632 40.0363 2.28279C40.4791 1.83145 40.9261 1.38443 41.3774 0.941728C41.4351 0.888329 41.5097 0.856799 41.5883 0.852591C42.3078 0.846011 43.0273 0.846011 43.7468 0.852591C43.8156 0.855735 43.8811 0.883036 43.9318 0.929699C44.39 1.3798 44.8446 1.83382 45.2954 2.29174C45.342 2.34248 45.3693 2.40798 45.3725 2.4768C45.3787 3.00113 45.3725 3.52547 45.3783 4.0498C45.3783 4.14511 45.3549 4.16916 45.2596 4.16824C44.7971 4.16269 44.3345 4.16145 43.872 4.16824C43.7613 4.16824 43.7487 4.12783 43.7487 4.03561C43.7533 3.74785 43.7561 3.45977 43.7465 3.172C43.7427 3.09356 43.7124 3.01873 43.6605 2.9598C43.3648 2.65137 43.0558 2.35774 42.7613 2.04931C42.6743 1.95678 42.6339 1.97991 42.5596 2.0564C42.2693 2.35476 41.975 2.64911 41.6765 2.93944C41.6409 2.97109 41.6129 3.01027 41.5944 3.05412C41.5758 3.09798 41.5673 3.14542 41.5695 3.19298C41.5735 4.39432 41.5735 5.59721 41.5735 6.80009Z" fill="black"></path>
    <path d="M36.1026 25.1091C36.4545 24.7572 36.8038 24.4096 37.1492 24.0577C37.1792 24.0188 37.1951 23.9708 37.1942 23.9217C37.1988 23.7058 37.1988 23.4899 37.1942 23.2739C37.1942 23.2018 37.2121 23.1759 37.2883 23.1762C37.7662 23.1797 38.2441 23.1797 38.7218 23.1762C38.8014 23.1762 38.8276 23.1996 38.827 23.281C38.8233 23.723 38.827 24.165 38.8224 24.6073C38.8197 24.6614 38.7978 24.7128 38.7607 24.7523C38.2944 25.2236 37.8255 25.6921 37.3539 26.1578C37.3134 26.1932 37.2616 26.213 37.2078 26.2139C36.4677 26.2172 35.7277 26.2172 34.9876 26.2139C34.9338 26.2117 34.8826 26.1905 34.843 26.1541C34.3786 25.6956 33.9172 25.234 33.4587 24.7695C33.4159 24.7219 33.3912 24.6606 33.389 24.5965C33.386 21.7178 33.386 18.8396 33.389 15.9619C33.393 15.8933 33.4212 15.8283 33.4686 15.7784C33.9188 15.3201 34.3728 14.8657 34.8306 14.4152C34.8815 14.369 34.947 14.3422 35.0156 14.3396C35.7403 14.3347 36.4648 14.3347 37.1893 14.3396C37.2578 14.342 37.3233 14.3684 37.3743 14.4142C37.836 14.8682 38.2936 15.3263 38.7471 15.7883C38.7923 15.8396 38.8182 15.905 38.8205 15.9734C38.8261 16.4872 38.8205 17.0014 38.8264 17.5155C38.8264 17.6269 38.7928 17.6506 38.6882 17.6491C38.231 17.6439 37.7737 17.6439 37.3163 17.6491C37.2121 17.6506 37.1899 17.6182 37.193 17.5208C37.1992 17.233 37.2001 16.9452 37.193 16.6572C37.19 16.584 37.1622 16.514 37.114 16.4588C36.8057 16.1408 36.4905 15.8324 36.1809 15.5169C36.1233 15.458 36.0915 15.4459 36.0268 15.5122C35.7144 15.8321 35.3943 16.1442 35.0826 16.4647C35.0405 16.513 35.0166 16.5746 35.015 16.6386C35.0119 19.065 35.0119 21.4913 35.015 23.9176C35.0138 23.9718 35.0319 24.0245 35.0659 24.0666C35.4067 24.4155 35.7529 24.7594 36.1026 25.1091Z" fill="black"></path>
    <path d="M36.9219 6.80112C36.9219 8.18352 36.9241 9.56591 36.9189 10.9483C36.9189 11.0753 36.9466 11.1086 37.0758 11.1068C37.6151 11.0985 38.1551 11.1068 38.6944 11.1006C38.7992 11.1006 38.8335 11.1228 38.8316 11.2339C38.8248 11.6913 38.8261 12.1487 38.8316 12.6061C38.8316 12.7066 38.8057 12.7353 38.7037 12.7353C36.9721 12.7322 35.2407 12.7322 33.5093 12.7353C33.4103 12.7353 33.3776 12.7122 33.3789 12.6086C33.3844 12.146 33.3844 11.6832 33.3789 11.2206C33.3789 11.1248 33.4039 11.1004 33.4985 11.101C34.0536 11.1056 34.6086 11.101 35.1637 11.106C35.2738 11.106 35.2966 11.0751 35.2963 10.9703C35.2932 8.61131 35.2923 6.25242 35.2935 3.89353C35.2935 3.46172 35.2873 3.02992 35.291 2.59811C35.291 2.49942 35.2688 2.46826 35.1652 2.4695C34.6154 2.47474 34.0656 2.4695 33.5161 2.47443C33.4091 2.47443 33.378 2.44822 33.3795 2.33903C33.3857 1.88193 33.3847 1.42422 33.3795 0.967123C33.3795 0.872434 33.4039 0.84375 33.4995 0.84375C35.2361 0.846629 36.9732 0.846629 38.7107 0.84375C38.8033 0.84375 38.8341 0.863798 38.8341 0.962496C38.8285 1.42514 38.8276 1.88779 38.8341 2.35044C38.8341 2.4624 38.7915 2.47382 38.7 2.47227C38.1554 2.46888 37.6105 2.47505 37.0656 2.46734C36.9405 2.4658 36.9158 2.50404 36.9161 2.62155C36.9201 4.01413 36.9186 5.4067 36.9186 6.79958L36.9219 6.80112Z" fill="black"></path>
    <path d="M14.2618 3.43874C14.2618 2.63188 14.2665 1.82472 14.2579 1.01786C14.2563 0.868575 14.3054 0.844517 14.438 0.844517C14.8592 0.852228 15.2807 0.85377 15.7021 0.844517C15.8453 0.841124 15.891 0.870425 15.89 1.02526C15.8832 2.40796 15.8873 3.79066 15.8836 5.17337C15.8814 5.22092 15.89 5.26835 15.9085 5.3122C15.927 5.35606 15.955 5.39524 15.9906 5.4269C16.296 5.72443 16.5977 6.02587 16.8958 6.33122C16.9615 6.39877 16.9957 6.4 17.0623 6.33122C17.3635 6.02279 17.6688 5.71744 17.9779 5.41518C18.0112 5.3846 18.0372 5.3471 18.0544 5.30531C18.0715 5.26353 18.0794 5.21848 18.0772 5.17337C18.0742 3.78542 18.0772 2.39747 18.0714 1.00953C18.0714 0.868266 18.1108 0.841433 18.2419 0.8439C18.6785 0.852228 19.1154 0.850069 19.5521 0.8439C19.6551 0.8439 19.692 0.863948 19.6918 0.976526C19.6877 2.61646 19.6917 4.25609 19.6852 5.89571C19.6795 5.96909 19.648 6.03809 19.5964 6.09064C19.0294 6.66464 18.4556 7.23184 17.8904 7.80799C17.8306 7.87318 17.7957 7.95741 17.792 8.0458C17.7862 9.55177 17.7862 11.0578 17.792 12.564C17.792 12.6938 17.7695 12.7396 17.6264 12.7359C17.1901 12.7245 16.7528 12.7266 16.3162 12.7359C16.1928 12.7383 16.1666 12.7003 16.1669 12.5816C16.1709 11.0702 16.1688 9.55897 16.1716 8.04765C16.174 8.00277 16.1665 7.95791 16.1496 7.91627C16.1327 7.87462 16.1068 7.83723 16.0738 7.80676C15.5003 7.23925 14.9328 6.66556 14.3586 6.09835C14.3255 6.06779 14.2997 6.03029 14.2828 5.98854C14.2659 5.94679 14.2585 5.90182 14.261 5.85685C14.2634 5.05277 14.2618 4.24591 14.2618 3.43874Z" fill="black"></path>
    <path d="M22.4439 21.4948C22.4439 19.7118 22.4414 17.9287 22.4482 16.1457C22.4482 15.9828 22.4017 15.9538 22.2521 15.9563C21.7334 15.9656 21.2145 15.9563 20.6958 15.9622C20.5823 15.9622 20.5364 15.9449 20.5392 15.815C20.5481 15.3629 20.5459 14.9107 20.5392 14.4579C20.5392 14.3555 20.5678 14.3312 20.6668 14.3321C21.2268 14.3367 21.7868 14.3321 22.3468 14.3377C22.4104 14.3408 22.4711 14.3657 22.5185 14.4083C22.7412 14.6213 22.9591 14.8393 23.1723 15.0622C23.2392 15.1325 23.2746 15.1279 23.3391 15.0606C23.5492 14.842 23.7637 14.628 23.9826 14.4185C24.0326 14.3714 24.0973 14.343 24.1658 14.338C24.731 14.3318 25.2963 14.338 25.8618 14.3324C25.9543 14.3324 25.9851 14.3509 25.9827 14.4493C25.9768 14.912 25.9759 15.3746 25.9827 15.8373C25.9842 15.9464 25.9447 15.9625 25.8504 15.9606C25.3111 15.9569 24.7711 15.964 24.2321 15.9551C24.0936 15.9529 24.0647 15.9912 24.0647 16.1253C24.0686 19.7017 24.0706 23.2781 24.0708 26.8545C24.074 26.9119 24.0639 26.9693 24.0414 27.0222C24.0189 27.0752 23.9845 27.1222 23.941 27.1598C23.7347 27.3529 23.5367 27.5546 23.3412 27.7588C23.2796 27.8239 23.245 27.8205 23.1871 27.7588C22.9653 27.5299 22.7338 27.3106 22.5158 27.0787C22.4704 27.0206 22.4464 26.9488 22.4476 26.8751C22.4437 25.0817 22.4425 23.2883 22.4439 21.4948Z" fill="black"></path>
    <path d="M24.0677 7.62525C24.0677 9.28565 24.0664 10.9457 24.0637 12.6055C24.0595 12.6884 24.0269 12.7675 23.9712 12.8292C23.768 13.0472 23.5503 13.251 23.3437 13.4657C23.282 13.5289 23.2496 13.5306 23.1895 13.4657C22.9718 13.2402 22.7442 13.0244 22.5287 12.7968C22.4799 12.7416 22.4514 12.6716 22.4479 12.5982C22.4411 12.1256 22.4442 11.6528 22.4442 11.1793C22.4442 8.33722 22.4453 5.49502 22.4476 2.65271C22.4476 2.50466 22.4137 2.46487 22.2626 2.46765C21.7334 2.47783 21.204 2.46765 20.6748 2.47413C20.5681 2.47413 20.5376 2.45038 20.5391 2.34057C20.5459 1.88841 20.545 1.43594 20.5391 0.983472C20.5391 0.880455 20.5586 0.843443 20.6714 0.843752C22.3982 0.847453 24.1251 0.847453 25.8519 0.843752C25.9484 0.843752 25.9842 0.863183 25.9826 0.969592C25.9761 1.43224 25.9761 1.89489 25.9826 2.35754C25.9826 2.4584 25.9496 2.47351 25.8593 2.47289C25.3147 2.46888 24.7698 2.47505 24.225 2.46796C24.0982 2.46611 24.0634 2.4988 24.064 2.62742C24.0689 4.29439 24.0702 5.96034 24.0677 7.62525Z" fill="black"></path>
    <path d="M46.508 27.8438V27.6464C46.508 23.2679 46.5066 18.8894 46.5039 14.5109C46.5039 14.3567 46.5465 14.329 46.689 14.3323C47.1151 14.3426 47.5415 14.3426 47.968 14.3323C48.1062 14.3293 48.1352 14.3675 48.1352 14.5014C48.1311 17.816 48.1289 21.1307 48.1287 24.4455C48.1287 24.593 48.1521 24.6454 48.3168 24.6426C49.0155 24.6315 49.7143 24.6408 50.4137 24.6349C50.529 24.6349 50.558 24.6617 50.5558 24.7771C50.5484 25.2138 50.5484 25.6507 50.5558 26.0876C50.5577 26.1999 50.5228 26.2193 50.4189 26.2187C49.6945 26.2142 48.97 26.2142 48.2456 26.2187C48.1725 26.2218 48.1029 26.2508 48.0491 26.3004C47.5407 26.8032 47.0393 27.3096 46.508 27.8438Z" fill="black"></path>
  </g>
  <defs>
    <clipPath id="clip0_3551_5026">
      <rect width="51" height="27" fill="white" transform="translate(0.28125 0.84375)"></rect>
    </clipPath>
  </defs>
</svg>
