<?xml version="1.0" encoding="UTF-8"?>
<svg xmlns="http://www.w3.org/2000/svg" width="79" height="28" viewBox="0 0 79 28" fill="none">
  <g clip-path="url(#clip0_3551_4249)">
    <path d="M68.5215 22.8805C68.4957 22.8862 68.4696 22.8902 68.4432 22.8923C68.3822 22.8923 68.3208 22.8923 68.2594 22.8923H60.7255C60.6704 22.8923 60.6153 22.8923 60.5601 22.8923C60.505 22.8923 60.4866 22.9188 60.5064 22.9755C60.6584 23.4045 60.9018 23.7952 61.2197 24.1206C61.4348 24.3392 61.6792 24.527 61.9458 24.6786C62.4739 24.9717 63.0759 25.1044 63.6781 25.0603C64.2369 25.021 64.7746 24.8311 65.2344 24.5108C65.4543 24.3543 65.6543 24.1716 65.83 23.9667C65.851 23.941 65.8778 23.9206 65.9083 23.9071C65.9387 23.8937 65.9718 23.8877 66.005 23.8895C66.7035 23.8913 67.402 23.8895 68.1006 23.8895C68.1252 23.8897 68.1498 23.8917 68.1741 23.8953C68.1787 23.8958 68.183 23.8972 68.187 23.8995C68.1909 23.9018 68.1943 23.9049 68.197 23.9087C68.1996 23.9124 68.2014 23.9167 68.2022 23.9212C68.203 23.9257 68.2028 23.9303 68.2017 23.9347C68.1926 23.9702 68.1803 24.0049 68.1649 24.0382C67.7421 24.9934 67.039 25.7973 66.1491 26.3431C65.611 26.6754 65.0154 26.9036 64.3932 27.0159C64.092 27.0707 63.7865 27.0988 63.4803 27.0998C62.7308 27.1066 61.9889 26.9479 61.3075 26.6349C60.4376 26.2393 59.6955 25.6081 59.165 24.8125C58.6345 24.0169 58.3367 23.0887 58.3053 22.1326C58.2891 21.753 58.3163 21.3728 58.3862 20.9993C58.5267 20.2396 58.8358 19.5212 59.2906 18.897C59.7455 18.2728 60.3344 17.7588 61.0141 17.3929C61.6938 17.027 62.4469 16.8185 63.2178 16.7829C63.9886 16.7472 64.7577 16.8852 65.4682 17.1867C66.0347 17.4237 66.5523 17.7636 66.9951 18.1894C67.1454 18.3334 67.2882 18.485 67.423 18.6436C68.1176 19.4797 68.5302 20.5144 68.6017 21.5996C68.6305 22.0283 68.6036 22.4589 68.5215 22.8805ZM66.3594 20.8458C66.3622 20.8286 66.3622 20.8111 66.3594 20.7939C66.1885 20.3584 65.9216 19.9672 65.5785 19.6496C65.3904 19.4736 65.1814 19.3215 64.9561 19.1968C64.719 19.0685 64.4671 18.9696 64.2061 18.9024C63.9514 18.835 63.6886 18.803 63.4252 18.807C63.0207 18.8129 62.6212 18.8972 62.2487 19.0551C61.8919 19.2041 61.5665 19.4196 61.2899 19.69C61 19.9646 60.7688 20.2952 60.6101 20.6618C60.5844 20.7218 60.5388 20.7773 60.5546 20.8517C60.5728 20.8567 60.5913 20.8601 60.6101 20.862C62.5143 20.862 64.4183 20.8614 66.3223 20.8602C66.3353 20.8573 66.3478 20.8525 66.3594 20.8458Z" fill="#020202"></path>
    <path d="M35.7693 27.0784C35.7667 27.039 35.7616 26.9971 35.7612 26.9551C35.7612 26.71 35.7612 26.4648 35.7612 26.219C35.7629 26.1945 35.7629 26.1699 35.7612 26.1453C35.759 26.1288 35.7539 26.1067 35.7421 26.0997C35.7342 26.0969 35.7258 26.0959 35.7174 26.0967C35.7091 26.0976 35.7011 26.1004 35.6939 26.1049C35.5914 26.1718 35.4917 26.2433 35.3884 26.3088C34.7976 26.686 34.1349 26.9362 33.4425 27.0438C33.0124 27.1107 32.5756 27.1231 32.1425 27.0806C31.5561 27.026 30.9838 26.8693 30.4513 26.6176C29.399 26.1239 28.544 25.2891 28.0248 24.2483C27.7526 23.7043 27.5801 23.1159 27.5156 22.5109C27.3908 21.3804 27.6423 20.2401 28.2311 19.2674C28.8199 18.2946 29.7131 17.5436 30.7719 17.1311C31.2628 16.9375 31.7812 16.8229 32.3079 16.7914C32.9576 16.7508 33.6092 16.8325 34.2289 17.0321C35.1552 17.3317 35.9776 17.8881 36.6008 18.6368C37.2239 19.3856 37.6222 20.2958 37.7495 21.262C37.7773 21.4623 37.7915 21.6642 37.7921 21.8664C37.7921 23.5405 37.7921 25.2145 37.7921 26.8885C37.7921 26.9312 37.7921 26.9743 37.7921 27.0173C37.7921 27.0836 37.7741 27.0987 37.7017 27.1012C37.6712 27.1012 37.6406 27.1012 37.6101 27.1012H35.9377C35.8836 27.1012 35.8274 27.1108 35.7693 27.0784ZM32.6274 25.0706C34.3553 25.082 35.7234 23.6755 35.7649 22.0192C35.8068 20.3448 34.4781 18.807 32.634 18.8121C30.7991 18.8173 29.5516 20.3176 29.5138 21.8653C29.4719 23.5802 30.8619 25.0702 32.6274 25.0706Z" fill="#020202"></path>
    <path d="M50.4653 23.9658H51.3476C51.3965 23.9658 51.4454 23.9658 51.4947 23.9683C51.5101 23.9683 51.5251 23.9735 51.5371 23.9832C51.5491 23.9928 51.5575 24.0063 51.5609 24.0213C51.5664 24.0449 51.5708 24.0692 51.5752 24.095C51.6436 24.4822 51.8473 24.7858 52.1506 25.0273C52.4072 25.2284 52.7087 25.3643 53.0293 25.4234C53.5179 25.5193 54.0226 25.4951 54.4999 25.3527C54.7563 25.2838 54.988 25.1434 55.1679 24.9478C55.4168 24.6706 55.494 24.3515 55.391 23.9908C55.3538 23.8666 55.2851 23.7542 55.1918 23.6643C55.0707 23.5424 54.9314 23.4401 54.7789 23.361C54.6153 23.2774 54.4462 23.2052 54.2726 23.1449C53.9487 23.0308 53.6193 22.9359 53.287 22.8505C52.8127 22.7287 52.3418 22.5928 51.8778 22.4371C51.4814 22.3074 51.1021 22.1305 50.748 21.91C50.4204 21.7058 50.1373 21.4481 49.9204 21.1168C49.7228 20.8124 49.5984 20.4661 49.5572 20.1054C49.5365 19.9597 49.5264 19.8127 49.527 19.6655C49.529 19.3706 49.5818 19.0782 49.6833 18.8013C49.8137 18.4561 50.014 18.1417 50.2715 17.8777C50.5997 17.5449 50.993 17.2834 51.4267 17.1096C52.0297 16.8637 52.6748 16.738 53.3259 16.7396C53.6138 16.7337 53.9017 16.747 54.1877 16.7794C54.6833 16.8442 55.1612 16.9712 55.6087 17.1964C56.2164 17.5023 56.6955 17.9466 57.0094 18.5565C57.1904 18.9056 57.3077 19.2843 57.3557 19.6747C57.3673 19.766 57.3768 19.8573 57.3844 19.9486C57.3859 19.9576 57.3853 19.9669 57.3826 19.9758C57.38 19.9846 57.3755 19.9927 57.3693 19.9995C57.3631 20.0063 57.3555 20.0117 57.347 20.0152C57.3384 20.0186 57.3293 20.0201 57.3201 20.0196C57.2896 20.0196 57.2591 20.0196 57.2282 20.0196H55.4267C55.4021 20.0196 55.3774 20.0196 55.3532 20.0196C55.2914 20.0196 55.2737 20.0049 55.2642 19.95C55.2579 19.9132 55.2554 19.8764 55.2476 19.8396C55.1374 19.3184 54.851 18.9393 54.3612 18.7181C54.1366 18.6194 53.8975 18.5579 53.6532 18.5359C53.3113 18.5012 52.966 18.5261 52.6326 18.6095C52.4713 18.6467 52.3165 18.7079 52.1734 18.7909C52.0121 18.8818 51.8788 19.0151 51.7877 19.1763C51.5848 19.5444 51.6039 20.0347 51.9991 20.3774C52.1534 20.5086 52.3259 20.6167 52.5112 20.6983C52.7917 20.8214 53.0807 20.9238 53.3759 21.0049C53.7344 21.1102 54.0954 21.2052 54.4543 21.3097C54.9131 21.443 55.3679 21.5898 55.7999 21.797C56.1829 21.9811 56.5385 22.2063 56.8344 22.5177C57.1091 22.8005 57.3079 23.1482 57.4124 23.5285C57.5013 23.8483 57.532 24.1816 57.5028 24.5124C57.4684 24.9296 57.3343 25.3324 57.112 25.6869C56.8179 26.1562 56.4105 26.4993 55.9252 26.7565C55.5766 26.937 55.2045 27.0678 54.8197 27.1452C54.484 27.2151 54.1427 27.2547 53.7998 27.2634C53.3105 27.28 52.8211 27.2344 52.3432 27.1276C51.8277 27.0138 51.3365 26.8089 50.8929 26.5224C50.391 26.1952 49.9862 25.7738 49.7061 25.2412C49.5116 24.8641 49.395 24.4516 49.3634 24.0283C49.3629 24.0207 49.3639 24.0131 49.3664 24.0059C49.3689 23.9988 49.3728 23.9921 49.3779 23.9865C49.383 23.9809 49.3893 23.9764 49.3962 23.9733C49.4031 23.9702 49.4106 23.9685 49.4182 23.9683C49.4671 23.9665 49.5164 23.9658 49.5653 23.9658H50.4653Z" fill="#020202"></path>
    <path d="M13.3735 20.7112V20.7896C13.3437 20.8234 13.3437 20.8234 13.3735 20.8584C13.3694 20.9743 13.3665 21.0907 13.3617 21.2066C13.3595 21.2218 13.3517 21.2357 13.3399 21.2456C13.3281 21.2555 13.3131 21.2608 13.2978 21.2603C13.2489 21.2603 13.2 21.2629 13.1507 21.2629H9.52936C9.35288 21.2629 9.34553 21.2706 9.34884 21.0767C9.34943 20.8131 9.33285 20.5497 9.29921 20.2882C9.22843 19.661 9.08747 19.0436 8.87898 18.4478C8.61598 17.7009 8.25099 16.994 7.79442 16.3472C7.6066 16.0821 7.40356 15.828 7.18633 15.5864C6.56416 14.8901 5.83122 14.3017 5.0172 13.845C4.58018 13.5969 4.1205 13.391 3.6444 13.2303C3.28605 13.1051 2.91949 13.0047 2.54734 12.93C2.34293 12.8932 2.13668 12.8637 1.93079 12.8328C1.81609 12.8155 1.70101 12.8012 1.58594 12.7857C1.58678 12.7704 1.5934 12.756 1.60446 12.7454C1.61552 12.7348 1.63019 12.7288 1.6455 12.7286C1.76682 12.7239 1.89035 12.7419 2.00726 12.6937C2.15432 12.7021 2.29807 12.6749 2.44293 12.655C2.49154 12.6539 2.53983 12.6467 2.58668 12.6337C2.62158 12.623 2.6579 12.6177 2.6944 12.6178C2.76131 12.6145 2.82749 12.6178 2.89256 12.5917C2.95763 12.5656 3.03962 12.5965 3.10727 12.5549C3.27675 12.5387 3.43815 12.4739 3.60874 12.468C3.63273 12.4645 3.65636 12.4589 3.67933 12.4511C3.86315 12.4069 4.04257 12.351 4.22271 12.2958C4.40286 12.2406 4.58669 12.1993 4.765 12.1375C4.9661 12.0679 5.17309 12.0142 5.36684 11.9233C5.45507 11.8817 5.54588 11.8456 5.63632 11.8095C5.86868 11.7179 6.1036 11.6325 6.32456 11.5151C6.42162 11.4632 6.52089 11.4153 6.61868 11.3679C6.71648 11.3204 6.81721 11.2497 6.92751 11.2129C7.12898 11.0756 7.34295 10.9582 7.54993 10.8301C7.59626 10.8014 7.64405 10.7708 7.70361 10.7786C7.84479 10.8746 7.98744 10.9689 8.12751 11.0671C8.80615 11.5476 9.4336 12.0967 9.99995 12.7058C10.4233 13.1553 10.8112 13.6371 11.1599 14.1468C11.225 14.2422 11.2952 14.3346 11.3628 14.4284C11.3669 14.4461 11.3647 14.47 11.3757 14.4803C11.4533 14.5539 11.4933 14.6511 11.5481 14.738C11.6419 14.8874 11.7397 15.0358 11.8187 15.1933C11.9996 15.554 12.1897 15.9099 12.3503 16.2806C12.4448 16.4992 12.5301 16.7223 12.6103 16.9431C12.6919 17.1721 12.7816 17.3988 12.8415 17.6355C12.8728 17.7592 12.9125 17.8806 12.9441 18.0036C12.9937 18.1976 13.0397 18.3923 13.0871 18.587C13.1069 18.6698 13.1205 18.7545 13.1467 18.8351C13.1753 18.923 13.1492 19.0191 13.197 19.1034C13.1864 19.2208 13.2511 19.329 13.2389 19.4472C13.2362 19.4716 13.2402 19.4963 13.2503 19.5186C13.2783 19.5767 13.2731 19.6378 13.2746 19.6989C13.2696 19.7416 13.272 19.7848 13.2816 19.8267C13.3183 19.9157 13.3092 20.007 13.3114 20.0983C13.3076 20.1354 13.3107 20.1728 13.3205 20.2087C13.3551 20.2857 13.3459 20.3652 13.3474 20.4439C13.3474 20.5113 13.3474 20.579 13.3474 20.6464C13.3531 20.6691 13.3618 20.6909 13.3735 20.7112Z" fill="#01C8A0"></path>
    <path d="M9.33594 0.91158C9.33814 0.740056 9.33961 0.568899 9.34329 0.39627C9.34557 0.365667 9.35074 0.335349 9.35873 0.305723C9.36039 0.290666 9.36739 0.276705 9.37845 0.266372C9.38951 0.256039 9.40391 0.25002 9.41903 0.249406C9.46204 0.247198 9.50469 0.246094 9.5477 0.246094H13.165C13.2139 0.246094 13.2632 0.246094 13.3121 0.251615C13.3243 0.253092 13.3357 0.258648 13.3445 0.26739C13.3532 0.276133 13.3587 0.287558 13.3602 0.299833C13.3656 0.330724 13.3687 0.361975 13.3694 0.393325C13.3742 0.533931 13.3779 0.674537 13.3826 0.815512C13.3953 1.07847 13.4248 1.34034 13.4709 1.59952C13.5349 1.99248 13.6257 2.38061 13.7426 2.76118C13.8537 3.11701 13.9869 3.46552 14.1415 3.80468C14.3963 4.36221 14.7124 4.8896 15.0838 5.37711C15.2577 5.6142 15.4481 5.83867 15.6536 6.04886C15.6926 6.08566 15.7271 6.1302 15.7639 6.17106C15.7885 6.1983 15.811 6.22774 15.8374 6.2524C16.129 6.52294 16.4191 6.79532 16.7396 7.03273C17.0684 7.2778 17.4131 7.50049 17.7716 7.69932C18.2651 7.97092 18.7844 8.19226 19.322 8.36002C19.6844 8.47355 20.054 8.5627 20.4283 8.62688C20.6511 8.66369 20.8768 8.6843 21.1011 8.71264C21.1253 8.71559 21.1489 8.72258 21.1724 8.72737C21.1327 8.76859 21.0764 8.73914 21.0338 8.75792C20.9455 8.79656 20.8544 8.78773 20.7632 8.7892C20.7143 8.7892 20.6614 8.77779 20.6161 8.79325C20.5091 8.83006 20.4 8.8238 20.2908 8.82748C20.2725 8.82858 20.2545 8.83192 20.2371 8.83742C20.1147 8.87423 19.9856 8.87128 19.8606 8.89668C19.7963 8.90956 19.7297 8.91693 19.6643 8.92907C19.4202 8.97471 19.1768 9.0222 18.9356 9.08256C18.5588 9.17716 18.1819 9.26991 17.8161 9.40242C17.736 9.43113 17.6529 9.45285 17.576 9.48855C17.4772 9.53593 17.3747 9.57508 17.2694 9.6056C17.2224 9.61839 17.1764 9.63475 17.1319 9.65456C16.8878 9.76314 16.6441 9.87172 16.401 9.98251C16.0521 10.1423 15.7275 10.3473 15.3885 10.5258C15.3007 10.6016 15.1838 10.6336 15.1014 10.7201C15.0845 10.7378 15.0448 10.7338 15.0154 10.7397C14.7179 10.5357 14.4227 10.3296 14.1382 10.1073C13.8782 9.90375 13.6253 9.69136 13.3838 9.46684C13.0464 9.1563 12.7265 8.82722 12.4257 8.48112C12.0927 8.09862 11.7832 7.69631 11.4988 7.2764C11.4551 7.21051 11.4058 7.14831 11.3587 7.08426C11.3557 7.06636 11.3504 7.04892 11.3429 7.03236C11.297 6.95875 11.2477 6.89102 11.2025 6.81888C11.1573 6.74673 11.1165 6.67165 11.0716 6.59803C11.0268 6.52441 10.9654 6.46037 10.9356 6.3827C10.9058 6.30504 10.8444 6.23842 10.8301 6.15265C10.6948 5.948 10.6054 5.71943 10.4904 5.5041C10.4731 5.47187 10.4576 5.43869 10.444 5.40472C10.3705 5.22473 10.3062 5.03995 10.2216 4.86511C10.1337 4.68108 10.097 4.48231 10.0036 4.30343C9.97932 4.13374 9.90101 3.97952 9.86425 3.81315C9.84476 3.72444 9.80543 3.64015 9.78043 3.55255C9.75359 3.45942 9.73226 3.36483 9.70947 3.2706C9.68263 3.15833 9.66351 3.04386 9.62822 2.93454C9.59292 2.82522 9.60653 2.70412 9.56057 2.59628C9.56903 2.52266 9.52381 2.4542 9.52381 2.38169C9.52381 2.26501 9.46572 2.15642 9.48226 2.03827C9.48394 2.02557 9.48149 2.01266 9.47528 2.00146C9.44219 1.93852 9.44954 1.87043 9.4477 1.80344C9.45087 1.77301 9.44812 1.74226 9.43961 1.71289C9.40653 1.64295 9.41278 1.57007 9.41094 1.49683C9.41538 1.4599 9.41301 1.42247 9.40395 1.3864C9.36719 1.29769 9.37711 1.20604 9.37491 1.11513C9.37491 1.06617 9.37491 1.01722 9.37307 0.967896C9.37181 0.956225 9.36779 0.945024 9.36133 0.935228C9.35487 0.925431 9.34616 0.917323 9.33594 0.91158Z" fill="#01C8A0"></path>
    <path d="M15.0184 10.738C15.0479 10.7321 15.0876 10.738 15.1045 10.7185C15.1868 10.632 15.3037 10.6 15.3916 10.5241C15.7306 10.3456 16.0552 10.1406 16.4041 9.98086C16.6471 9.87044 16.8909 9.76001 17.135 9.6529C17.1795 9.6331 17.2255 9.61673 17.2725 9.60395C17.3777 9.57343 17.4803 9.53428 17.5791 9.4869C17.656 9.45009 17.739 9.42948 17.8192 9.40077C18.1868 9.26826 18.5618 9.1755 18.9387 9.08091C19.1799 9.02054 19.4232 8.97306 19.6674 8.92742C19.7328 8.91527 19.7993 8.90791 19.8637 8.89503C19.9887 8.86963 20.1177 8.87405 20.2402 8.83577C20.2576 8.83027 20.2756 8.82693 20.2938 8.82583C20.4041 8.82215 20.5122 8.82841 20.6192 8.7916C20.6633 8.77614 20.7163 8.78829 20.7663 8.78755C20.8574 8.78755 20.9501 8.79491 21.0369 8.75626C21.0795 8.73749 21.1358 8.76694 21.1755 8.72571C21.2055 8.72006 21.2361 8.71784 21.2666 8.71909C21.4302 8.74412 21.5957 8.74007 21.7604 8.74743C21.8258 8.75037 21.8424 8.76878 21.8446 8.83982C21.8446 8.88251 21.8446 8.92558 21.8446 8.96828V12.5357C21.8446 12.5604 21.8446 12.5847 21.8446 12.6093C21.8446 12.7565 21.8427 12.7565 21.6883 12.7613C21.04 12.7755 20.3952 12.8619 19.7659 13.019C19.2256 13.1549 18.7005 13.3455 18.1986 13.5877C17.8296 13.7656 17.4733 13.969 17.1324 14.1965C16.8323 14.3991 16.5448 14.6197 16.2714 14.8572C15.7588 15.3045 15.302 15.8122 14.9111 16.3692C14.5162 16.9306 14.1906 17.5378 13.9416 18.1776C13.782 18.5823 13.6563 18.9995 13.5659 19.425C13.496 19.7294 13.4456 20.038 13.4151 20.3489C13.4045 20.4704 13.3861 20.5911 13.3714 20.7122C13.3605 20.6912 13.3525 20.6688 13.3478 20.6456C13.3445 20.5782 13.3478 20.5105 13.3478 20.4431C13.3478 20.3644 13.3556 20.2849 13.321 20.2079C13.3111 20.172 13.308 20.1346 13.3118 20.0975C13.3096 20.0062 13.3173 19.9135 13.282 19.8259C13.2724 19.784 13.2701 19.7408 13.2751 19.6981C13.2751 19.637 13.2787 19.5759 13.2508 19.5178C13.2406 19.4954 13.2367 19.4708 13.2394 19.4464C13.2515 19.3282 13.1868 19.22 13.1975 19.1026C13.1497 19.019 13.1758 18.9222 13.1471 18.8343C13.121 18.7537 13.1074 18.669 13.0876 18.5862C13.0401 18.3915 12.9942 18.1967 12.9445 18.0028C12.9129 17.8791 12.8732 17.7576 12.842 17.6347C12.782 17.398 12.6923 17.1713 12.6107 16.9423C12.5306 16.7189 12.4453 16.497 12.3508 16.2798C12.1901 15.9091 12 15.5532 11.8192 15.1925C11.7401 15.035 11.6423 14.8866 11.5486 14.7372C11.4938 14.6496 11.4537 14.5531 11.3761 14.4795C11.3651 14.4692 11.3673 14.4453 11.3633 14.4276C11.4023 14.3728 11.4427 14.319 11.4802 14.2635C11.6912 13.9476 11.917 13.643 12.1574 13.3495C12.4559 12.985 12.7742 12.6372 13.1111 12.3079C13.4689 11.9563 13.8479 11.6271 14.246 11.3221C14.4497 11.1664 14.6629 11.0225 14.871 10.872C14.9229 10.8308 14.9876 10.8035 15.0184 10.738Z" fill="#01E3B4"></path>
    <path d="M9.33862 0.910156C9.34926 0.916287 9.3582 0.92499 9.36463 0.93547C9.37105 0.945951 9.37475 0.957874 9.37538 0.970153C9.37538 1.01911 9.37538 1.06806 9.37722 1.11738C9.37943 1.2083 9.36766 1.30142 9.40626 1.38866C9.41532 1.42473 9.41769 1.46216 9.41325 1.49908C9.41509 1.5727 9.40884 1.64631 9.44193 1.71514C9.45043 1.74452 9.45318 1.77527 9.45002 1.80569C9.45185 1.87268 9.4445 1.94078 9.47759 2.00372C9.48381 2.01492 9.48626 2.02782 9.48457 2.04053C9.46803 2.15868 9.52612 2.26726 9.52612 2.38394C9.52612 2.45756 9.57281 2.52308 9.56288 2.59853C9.60884 2.70638 9.59487 2.82564 9.63053 2.9368C9.66619 3.04796 9.68494 3.16059 9.71178 3.27285C9.73458 3.36708 9.7559 3.46168 9.78274 3.5548C9.80774 3.64241 9.84708 3.7267 9.86656 3.8154C9.90333 3.98177 9.98164 4.136 10.0059 4.30568C10.0993 4.48457 10.136 4.68517 10.2239 4.86737C10.3085 5.04221 10.371 5.22698 10.4463 5.40697C10.4599 5.44095 10.4754 5.47412 10.4927 5.50636C10.6077 5.72168 10.6971 5.95026 10.8324 6.15491C10.8467 6.24067 10.9059 6.30546 10.9379 6.38496C10.9699 6.46447 11.0287 6.52814 11.0739 6.60029C11.1191 6.67243 11.1596 6.74752 11.2048 6.82113C11.25 6.89475 11.2993 6.96284 11.3452 7.03462C11.3527 7.05117 11.358 7.06862 11.3611 7.08652C11.3363 7.11309 11.313 7.14099 11.2912 7.17007C11.0506 7.53254 10.7914 7.88232 10.5147 8.21799C10.2614 8.52571 9.98972 8.81649 9.70994 9.10138C9.25672 9.55835 8.76805 9.97866 8.24854 10.3584C8.09082 10.4743 7.92942 10.5862 7.7706 10.6985C7.73819 10.7164 7.71405 10.7462 7.70332 10.7817C7.64376 10.7739 7.59596 10.8045 7.54964 10.8332C7.34265 10.9613 7.12868 11.0787 6.92721 11.216C6.81691 11.2528 6.72169 11.3202 6.61838 11.371C6.51507 11.4218 6.42022 11.467 6.32427 11.5182C6.10368 11.6367 5.86838 11.7221 5.63603 11.8127C5.54559 11.8495 5.45478 11.8863 5.36654 11.9264C5.17279 12.0173 4.9658 12.071 4.7647 12.1406C4.58639 12.2024 4.4022 12.2437 4.22242 12.2989C4.04264 12.3541 3.86249 12.4093 3.67903 12.4542C3.65606 12.462 3.63243 12.4676 3.60844 12.4711C3.43712 12.477 3.27756 12.5418 3.10697 12.558C3.04006 12.5992 2.95991 12.5657 2.89226 12.5948C2.82462 12.6239 2.76101 12.6176 2.6941 12.621C2.6576 12.6208 2.62129 12.6261 2.58638 12.6368C2.53953 12.6498 2.49125 12.657 2.44263 12.6581C2.29778 12.678 2.15403 12.7052 2.00697 12.6968C1.89005 12.745 1.76652 12.727 1.6452 12.7317C1.62977 12.7317 1.61491 12.7376 1.60369 12.7482C1.59248 12.7589 1.58575 12.7734 1.5849 12.7888C1.56054 12.7922 1.53597 12.7939 1.51138 12.7939C1.32204 12.7847 1.13306 12.7744 0.943725 12.7641C0.934548 12.7645 0.925405 12.7629 0.916883 12.7594C0.90836 12.756 0.900648 12.7508 0.894242 12.7443C0.887836 12.7377 0.882878 12.7298 0.879686 12.7212C0.876495 12.7126 0.87514 12.7034 0.87571 12.6942C0.87571 12.6452 0.87571 12.5959 0.87571 12.547C0.87571 11.3514 0.87571 10.1561 0.87571 8.96078C0.87571 8.73993 0.851813 8.75649 1.08123 8.74913C1.39902 8.73963 1.71611 8.71371 2.03123 8.67147C2.38871 8.62054 2.74269 8.54752 3.09116 8.45283C3.61758 8.31166 4.12867 8.11845 4.6169 7.87605C5.21492 7.57851 5.77568 7.21119 6.2875 6.78175C6.8632 6.30387 7.37326 5.75187 7.80442 5.14012C8.07236 4.75914 8.30869 4.35683 8.51104 3.93724C8.7031 3.5333 8.86554 3.1159 8.99707 2.68834C9.0761 2.43081 9.14018 2.16892 9.18898 1.90397C9.25099 1.59784 9.29311 1.288 9.31509 0.97641C9.3199 0.95336 9.32781 0.931072 9.33862 0.910156Z" fill="#01E3B4"></path>
    <path d="M69.7899 27.0704V26.9295C69.7899 25.0836 69.787 23.2373 69.7921 21.3914C69.7876 20.9864 69.8325 20.5825 69.9259 20.1885C70.0844 19.5431 70.3841 18.941 70.8035 18.4258C71.2558 17.8712 71.8349 17.4341 72.4919 17.1513C73.1488 16.8685 73.8641 16.7484 74.5772 16.8012C75.2904 16.854 75.9803 17.0781 76.5885 17.4546C77.1967 17.8311 77.7053 18.3488 78.0712 18.9639C78.4388 19.5811 78.6355 20.2522 78.6914 20.9644C78.6951 21.0133 78.6936 21.0627 78.6936 21.1116V27.0804C78.664 27.0903 78.6335 27.0972 78.6024 27.101C78.4491 27.1032 78.2962 27.101 78.1429 27.101H76.8561C76.8131 27.101 76.7704 27.101 76.7278 27.0981C76.7216 27.0984 76.7155 27.0975 76.7097 27.0954C76.7039 27.0933 76.6986 27.0901 76.694 27.0859C76.6895 27.0817 76.6859 27.0767 76.6833 27.071C76.6808 27.0654 76.6794 27.0593 76.6793 27.0532C76.6767 26.992 76.676 26.9309 76.676 26.8691C76.676 25.0169 76.676 23.1643 76.676 21.3111C76.6801 20.9914 76.6227 20.6738 76.5068 20.3758C76.2353 19.6951 75.7566 19.225 75.0708 18.9654C74.8012 18.8616 74.514 18.8116 74.2252 18.8181C73.5862 18.8343 73.0329 19.0577 72.5708 19.505C72.2413 19.8207 72.0085 20.2239 71.8998 20.6674C71.8624 20.8222 71.84 20.9804 71.8329 21.1396C71.8178 21.4031 71.8223 21.6667 71.8223 21.9299C71.8223 23.5801 71.8223 25.2299 71.8223 26.8794C71.8223 26.9346 71.8223 26.9898 71.8201 27.0451C71.8206 27.0574 71.8162 27.0695 71.808 27.0787C71.7998 27.0879 71.7883 27.0935 71.7759 27.0944C71.7457 27.0979 71.7152 27.0997 71.6848 27.0995C71.1029 27.0995 70.5209 27.0995 69.9388 27.0995C69.8906 27.101 69.8403 27.1098 69.7899 27.0704Z" fill="#020202"></path>
    <path d="M26.3021 27.0914C26.2536 27.0959 26.2238 27.101 26.1944 27.101C25.5941 27.101 24.9936 27.101 24.3929 27.101C24.3683 27.1013 24.3437 27.0997 24.3194 27.0962C24.307 27.0953 24.2954 27.0899 24.2868 27.081C24.2782 27.0721 24.2732 27.0604 24.2727 27.048C24.2697 26.9932 24.2701 26.9376 24.2701 26.8827C24.2701 25.0178 24.2701 23.1536 24.2701 21.2902C24.2742 20.9518 24.2083 20.6163 24.0763 20.3048C23.8028 19.6715 23.3439 19.2298 22.6995 18.9797C22.4084 18.8634 22.0962 18.8095 21.7829 18.8214C21.1657 18.8479 20.6278 19.0673 20.1785 19.4976C19.8061 19.85 19.5566 20.3128 19.4668 20.8179C19.4588 20.8537 19.4531 20.89 19.4495 20.9265C19.4373 21.1223 19.4168 21.317 19.4168 21.5154C19.4168 23.3067 19.4168 25.0973 19.4168 26.8872C19.4207 26.9556 19.4181 27.0242 19.409 27.0922C19.359 27.097 19.3171 27.1036 19.2752 27.1043C18.3543 27.1172 17.5373 27.1098 17.4002 27.0874C17.3943 27.0714 17.3901 27.0549 17.3877 27.0381C17.3859 26.9887 17.3877 26.9398 17.3877 26.8908C17.3877 25.0696 17.3844 23.2469 17.3899 21.4267C17.3899 20.9482 17.4359 20.4726 17.5737 20.01C17.7577 19.3702 18.0831 18.78 18.5259 18.2833C19.08 17.6534 19.8032 17.1962 20.6094 16.966C20.9388 16.8711 21.2778 16.8139 21.6201 16.7955C22.3695 16.7549 23.117 16.9058 23.7921 17.2339C24.2235 17.4419 24.6175 17.72 24.958 18.0569C25.3573 18.4475 25.6801 18.9094 25.9098 19.4188C26.0504 19.7322 26.1532 20.0613 26.2161 20.399C26.2573 20.6281 26.2826 20.8599 26.2918 21.0925C26.3025 21.3133 26.3013 21.5342 26.3017 21.755C26.3017 23.4595 26.3017 25.1642 26.3017 26.8691L26.3021 27.0914Z" fill="#020202"></path>
    <path d="M48.2971 27.082C48.2797 27.0896 48.2612 27.0948 48.2424 27.0975C47.6051 27.0975 46.9678 27.0968 46.3306 27.0953C46.3196 27.0953 46.3085 27.085 46.2964 27.0791C46.278 27.0132 46.2879 26.9455 46.2879 26.8785C46.2879 25.0626 46.2879 23.2468 46.2879 21.4309C46.2879 21.2723 46.2769 21.1125 46.2615 20.9524C46.2122 20.4537 46.0041 20.0223 45.6813 19.6465C45.3067 19.2118 44.828 18.953 44.2688 18.8496C43.7909 18.7616 43.3295 18.8293 42.8861 19.0248C42.4975 19.1966 42.1609 19.4678 41.9102 19.8112C41.6594 20.1545 41.5034 20.5579 41.4578 20.9808C41.4369 21.1632 41.4256 21.3467 41.4239 21.5303C41.4257 23.2907 41.4257 25.0512 41.4239 26.8119V26.9223C41.4239 27.0986 41.4383 27.0979 41.2589 27.0975H39.5677C39.5195 27.0975 39.4717 27.0912 39.4236 27.0883C39.4164 27.0688 39.411 27.0487 39.4074 27.0283C39.4048 26.9915 39.4074 26.9547 39.4074 26.9179C39.4074 25.0775 39.4074 23.2371 39.4074 21.3967C39.4028 20.9486 39.458 20.5018 39.5714 20.0683C39.8386 19.086 40.434 18.225 41.2583 17.6288C42.0825 17.0326 43.0859 16.7371 44.1014 16.7915C45.1168 16.846 46.083 17.2471 46.8389 17.928C47.5949 18.609 48.095 19.5287 48.256 20.5339C48.2907 20.7396 48.3084 20.9477 48.3089 21.1563C48.3089 23.0642 48.3089 24.9718 48.3089 26.8792C48.3063 26.9481 48.3177 27.0158 48.2971 27.082Z" fill="#020202"></path>
    <path d="M13.3696 20.8584C13.3403 20.8232 13.3403 20.8232 13.3696 20.7891V20.8584Z" fill="#01E3B4"></path>
  </g>
  <defs>
    <clipPath id="clip0_3551_4249">
      <rect width="77.8206" height="27.021" fill="white" transform="translate(0.871094 0.246094)"></rect>
    </clipPath>
  </defs>
</svg>
