<?xml version="1.0" encoding="UTF-8"?>
<svg xmlns="http://www.w3.org/2000/svg" width="99" height="26" viewBox="0 0 99 26" fill="none">
  <g clip-path="url(#clip0_3551_4092)">
    <path d="M49.8302 5.84422V20.4864C49.8302 20.5979 49.7444 20.7095 49.6012 20.7095H48.026C47.31 20.7095 46.6227 20.3469 46.2217 19.7613L39.1192 9.07945L39.3483 14.4064V20.5143C39.3483 20.6259 39.2623 20.7374 39.1192 20.7374H37.0571C36.9426 20.7374 36.8281 20.6538 36.8281 20.5143V5.84422C36.8281 5.73265 36.914 5.62109 37.0571 5.62109H38.6037C39.3197 5.62109 40.007 5.98366 40.4079 6.56936L47.5104 17.2232L47.2814 11.8963V5.84422C47.2814 5.73265 47.3673 5.62109 47.5104 5.62109H49.5725C49.7444 5.62109 49.8302 5.70477 49.8302 5.84422Z" fill="#2C2C2C"></path>
    <path d="M70.9624 20.6816H68.7858C68.6426 20.6816 68.5281 20.5422 68.5854 20.4028L74.3705 5.81633C74.4278 5.70477 74.5423 5.62109 74.6569 5.62109H77.4062C77.5494 5.62109 77.664 5.70477 77.6927 5.81633L83.5065 20.4028C83.5637 20.5422 83.4491 20.6816 83.3059 20.6816H81.1293C81.0435 20.6816 80.9575 20.6259 80.9289 20.5422L76.2606 8.54953C76.2034 8.38219 75.9171 8.38219 75.8597 8.54953L71.1915 20.5422C71.1343 20.6259 71.0484 20.6816 70.9624 20.6816Z" fill="#2C2C2C"></path>
    <path d="M98.6886 20.3469L94.3354 14.9363C96.7984 14.4901 98.2303 12.8725 98.2303 10.3903C98.2303 7.54549 96.3401 5.62109 92.9607 5.62109H86.8892C86.7174 5.62109 86.5742 5.76054 86.5742 5.92788C86.5742 7.04347 87.4907 7.93595 88.6362 7.93595H92.7315C94.765 7.93595 95.7388 8.93998 95.7388 10.4182C95.7388 11.8963 94.7936 12.9004 92.7315 12.9004H86.9464C86.7746 12.9004 86.6314 13.0398 86.6314 13.2071V20.4585C86.6314 20.5701 86.7174 20.6816 86.8606 20.6816H88.9226C89.0372 20.6816 89.1517 20.5979 89.1517 20.4585V15.0757H91.5287L95.3091 19.8729C95.71 20.4028 96.3401 20.6816 97.0275 20.6816H98.6027C98.7172 20.6816 98.8031 20.4863 98.6886 20.3469Z" fill="#2C2C2C"></path>
    <path d="M64.4431 5.62109H54.849C54.6771 5.62109 54.5625 5.73265 54.5625 5.89999C54.5625 7.01559 55.5077 7.93595 56.6533 7.93595H64.4431C64.5577 7.93595 64.6722 7.85229 64.6722 7.71284V5.81633C64.6436 5.70477 64.5577 5.62109 64.4431 5.62109ZM64.4431 18.3668H57.2833C57.1688 18.3668 57.0542 18.2831 57.0542 18.1437V14.3785C57.0542 14.267 57.14 14.1554 57.2833 14.1554H63.899C64.0135 14.1554 64.1281 14.0717 64.1281 13.9323V12.0358C64.1281 11.9242 64.0421 11.8126 63.899 11.8126H54.8776C54.7058 11.8126 54.5625 11.9521 54.5625 12.1194V20.3469C54.5625 20.5143 54.7058 20.6538 54.8776 20.6538H64.4431C64.5577 20.6538 64.6722 20.5701 64.6722 20.4306V18.5341C64.6436 18.4504 64.5577 18.3668 64.4431 18.3668Z" fill="#2C2C2C"></path>
    <path d="M21.4743 1.88449L16.0903 9.66577C15.7179 10.1957 16.4339 10.8372 16.9494 10.3909L22.2476 5.90064C22.3909 5.78908 22.5913 5.87275 22.5913 6.06799V20.0966C22.5913 20.2918 22.3336 20.3755 22.219 20.236L6.18105 1.54982C5.66555 0.936242 4.92092 0.601562 4.09039 0.601562H3.5176C2.02836 0.601562 0.796875 1.80083 0.796875 3.27899V23.0251C0.796875 24.5031 2.02836 25.7025 3.54624 25.7025C4.49134 25.7025 5.37916 25.2283 5.89466 24.4196L11.2788 16.6383C11.6511 16.1084 10.9352 15.4668 10.4197 15.9131L5.1214 20.3755C4.9782 20.487 4.77773 20.4034 4.77773 20.2081V6.20743C4.77773 6.0122 5.03548 5.92853 5.15004 6.06799L21.188 24.7541C21.7035 25.3677 22.4767 25.7025 23.2786 25.7025H23.8515C25.3694 25.7025 26.6008 24.5031 26.6008 23.0251V3.27899C26.5722 1.80083 25.3406 0.601563 23.8229 0.601563C22.8777 0.601563 21.9898 1.07569 21.4743 1.88449Z" fill="#2C2C2C"></path>
  </g>
  <defs>
    <clipPath id="clip0_3551_4092">
      <rect width="97.9552" height="25.1052" fill="white" transform="translate(0.804688 0.585938)"></rect>
    </clipPath>
  </defs>
</svg>
