<svg width="442" height="101" viewBox="0 0 442 101" fill="none" xmlns="http://www.w3.org/2000/svg">
<g clip-path="url(#clip0_2029_1007)">
<path d="M101.144 50.5C101.144 78.3888 78.5007 101 50.5721 101C22.6434 101 0 78.3888 0 50.5C0 22.6112 22.6434 0 50.5721 0C78.5066 0 101.144 22.6112 101.144 50.5Z" fill="#2081E2"/>
<path d="M24.9551 52.1955L25.1732 51.853L38.3291 31.3018C38.5213 31.0009 38.9733 31.032 39.1188 31.3588C41.3167 36.2774 43.2131 42.3946 42.3247 46.2029C41.9454 47.7698 40.9062 49.8918 39.7371 51.853C39.5865 52.1385 39.4202 52.4186 39.2435 52.6884C39.1604 52.8129 39.0201 52.8856 38.8694 52.8856H25.3395C24.9758 52.8856 24.7628 52.4913 24.9551 52.1955Z" fill="#2C2C2C"/>
<path d="M83.5997 56.0148V59.2679C83.5997 59.4547 83.4854 59.6207 83.3191 59.6933C82.3008 60.1292 78.8144 61.7272 77.3648 63.7403C73.6653 68.882 70.8389 76.234 64.5207 76.234H38.1623C28.8203 76.234 21.25 68.6486 21.25 59.2886V58.9878C21.25 58.7387 21.4526 58.5364 21.702 58.5364H36.3958C36.6867 58.5364 36.8997 58.8062 36.8738 59.0915C36.7699 60.0461 36.9466 61.0216 37.3986 61.9088C38.2715 63.6781 40.0796 64.7832 42.0332 64.7832H49.3074V59.1123H42.1163C41.7475 59.1123 41.5293 58.6868 41.7423 58.3859C41.8202 58.2665 41.9086 58.1421 42.0021 58.002C42.6828 57.0369 43.6543 55.5375 44.6208 53.8305C45.2806 52.6787 45.9197 51.449 46.4341 50.2142C46.5381 49.9911 46.6211 49.7627 46.7042 49.5396C46.8445 49.1453 46.9901 48.777 47.094 48.4086C47.1979 48.0972 47.281 47.7704 47.3641 47.4643C47.6084 46.4162 47.7122 45.3059 47.7122 44.1541C47.7122 43.7027 47.6915 43.2306 47.6499 42.7792C47.6291 42.2863 47.5668 41.7933 47.5044 41.3004C47.4628 40.8646 47.3849 40.434 47.3018 39.9826C47.1979 39.3237 47.0524 38.67 46.8861 38.011L46.829 37.762C46.7042 37.3105 46.6004 36.88 46.4549 36.4286C46.0444 35.0121 45.5716 33.632 45.0728 32.3401C44.8909 31.8264 44.6831 31.3336 44.4752 30.8407C44.1688 30.0987 43.8569 29.4243 43.5712 28.786C43.4258 28.4955 43.301 28.2308 43.1763 27.9611C43.036 27.6549 42.8906 27.3488 42.7451 27.0583C42.6412 26.8352 42.5216 26.6277 42.4385 26.4201L41.55 24.7806C41.4253 24.5575 41.6332 24.2928 41.8773 24.3603L47.4369 25.8649H47.4525C47.4628 25.8649 47.4681 25.8702 47.4732 25.8702L48.2058 26.0725L49.0112 26.3008L49.3074 26.3838V23.084C49.3074 21.4911 50.5856 20.1992 52.1651 20.1992C52.9549 20.1992 53.6719 20.5209 54.1863 21.0449C54.7006 21.569 55.0227 22.285 55.0227 23.084V27.9819L55.6151 28.1478C55.6619 28.1635 55.7086 28.1842 55.7502 28.2153C55.8957 28.3243 56.1035 28.4851 56.3685 28.6823C56.5763 28.8483 56.7997 29.0507 57.0699 29.2582C57.6051 29.6888 58.2442 30.244 58.9456 30.8822C59.1326 31.043 59.3145 31.209 59.4808 31.3751C60.3849 32.2156 61.3981 33.2014 62.3645 34.2909C62.6347 34.5971 62.8997 34.9084 63.1698 35.2352C63.44 35.5673 63.7258 35.8941 63.9751 36.2211C64.3025 36.6569 64.6558 37.1082 64.9624 37.5804C65.1078 37.8035 65.2741 38.0318 65.4144 38.2549C65.8093 38.8515 66.1574 39.469 66.49 40.0864C66.6303 40.3717 66.7757 40.683 66.9004 40.9892C67.2693 41.8141 67.5603 42.6546 67.7473 43.4952C67.8044 43.6768 67.846 43.8739 67.8668 44.0504V44.0919C67.9291 44.3408 67.95 44.6055 67.9707 44.8752C68.0539 45.7366 68.0123 46.5978 67.8253 47.4643C67.7473 47.8327 67.6434 48.1803 67.5187 48.5487C67.394 48.9015 67.2693 49.2698 67.1083 49.6175C66.7965 50.3386 66.4276 51.0599 65.9911 51.7343C65.8508 51.9834 65.6846 52.248 65.5183 52.4971C65.3364 52.7616 65.1494 53.0107 64.9831 53.2546C64.7545 53.5659 64.5104 53.8927 64.261 54.1833C64.0375 54.4894 63.8089 54.7956 63.5595 55.0653C63.2114 55.4752 62.8788 55.8643 62.5307 56.2379C62.3229 56.4818 62.0995 56.7308 61.8708 56.9539C61.6475 57.2029 61.4188 57.426 61.2109 57.6336C60.8629 57.9812 60.5719 58.251 60.3277 58.4741L59.7562 58.9982C59.6731 59.0708 59.5639 59.1123 59.4496 59.1123H55.0227V64.7832H60.5927C61.8397 64.7832 63.0244 64.3422 63.9804 63.5328C64.3077 63.2474 65.7365 62.0126 67.4251 60.15C67.4823 60.0877 67.5551 60.041 67.6383 60.0203L83.023 55.579C83.3088 55.496 83.5997 55.7138 83.5997 56.0148Z" fill="#2C2C2C"/>
<path d="M150.412 74.7333C145.84 74.7333 141.638 73.7103 137.806 71.6642C134.019 69.618 130.993 66.7714 128.731 63.124C126.515 59.4322 125.406 55.2955 125.406 50.7142C125.406 46.1327 126.515 42.0183 128.731 38.371C130.993 34.7237 134.019 31.8769 137.806 29.8308C141.638 27.7847 145.84 26.7617 150.412 26.7617C154.984 26.7617 159.163 27.7847 162.95 29.8308C166.783 31.8769 169.784 34.7237 171.955 38.371C174.172 42.0183 175.279 46.1327 175.279 50.7142C175.279 55.2955 174.172 59.4322 171.955 63.124C169.739 66.7714 166.737 69.618 162.95 71.6642C159.163 73.7103 154.984 74.7333 150.412 74.7333ZM150.412 64.3249C154.291 64.3249 157.385 63.0795 159.694 60.5886C162.05 58.0978 163.227 54.8063 163.227 50.7142C163.227 46.5775 162.05 43.286 159.694 40.8396C157.385 38.3487 154.291 37.1033 150.412 37.1033C146.487 37.1033 143.347 38.3265 140.992 40.7728C138.682 43.2193 137.528 46.533 137.528 50.7142C137.528 54.8507 138.682 58.1645 140.992 60.6554C143.347 63.1018 146.487 64.3249 150.412 64.3249Z" fill="#2C2C2C"/>
<path d="M193.743 42.3125C194.897 40.5778 196.491 39.1766 198.522 38.1092C200.554 37.0416 202.932 36.5078 205.657 36.5078C208.843 36.5078 211.73 37.2862 214.316 38.843C216.901 40.3998 218.933 42.6239 220.411 45.515C221.935 48.4062 222.697 51.7645 222.697 55.5897C222.697 59.415 221.935 62.7955 220.411 65.7311C218.933 68.6224 216.901 70.8685 214.316 72.4699C211.73 74.0267 208.843 74.805 205.657 74.805C202.979 74.805 200.601 74.2713 198.522 73.2037C196.491 72.1363 194.897 70.7574 193.743 69.0671V85.3468H181.898V37.0416H193.743V42.3125ZM210.645 55.5897C210.645 52.7431 209.813 50.519 208.15 48.9178C206.534 47.272 204.525 46.4491 202.124 46.4491C199.77 46.4491 197.761 47.272 196.098 48.9178C194.482 50.5635 193.674 52.8097 193.674 55.6564C193.674 58.5032 194.482 60.7494 196.098 62.3951C197.761 64.0409 199.77 64.8638 202.124 64.8638C204.48 64.8638 206.489 64.0409 208.15 62.3951C209.813 60.7049 210.645 58.4364 210.645 55.5897Z" fill="#2C2C2C"/>
<path d="M265.344 55.056C265.344 56.1235 265.276 57.2354 265.137 58.392H238.33C238.515 60.7049 239.277 62.4841 240.616 63.7295C242.001 64.9305 243.686 65.531 245.673 65.531C248.628 65.531 250.683 64.33 251.838 61.9281H264.444C263.798 64.3745 262.621 66.5762 260.911 68.5334C259.25 70.4905 257.148 72.0251 254.608 73.1371C252.068 74.249 249.228 74.805 246.089 74.805C242.302 74.805 238.931 74.0267 235.975 72.4699C233.02 70.9131 230.711 68.689 229.048 65.7978C227.386 62.9067 226.555 59.5262 226.555 55.6564C226.555 51.7867 227.363 48.4062 228.979 45.515C230.641 42.6239 232.95 40.3998 235.905 38.843C238.861 37.2862 242.255 36.5078 246.089 36.5078C249.829 36.5078 253.154 37.264 256.062 38.7764C258.972 40.2886 261.235 42.4459 262.851 45.2482C264.514 48.0504 265.344 51.3197 265.344 55.056ZM253.223 52.0535C253.223 50.0965 252.531 48.5396 251.145 47.3832C249.759 46.2267 248.028 45.6485 245.95 45.6485C243.964 45.6485 242.279 46.2045 240.893 47.3164C239.554 48.4284 238.722 50.0075 238.4 52.0535H253.223Z" fill="#2C2C2C"/>
<path d="M295.137 36.6406C299.663 36.6406 303.264 38.0639 305.943 40.9107C308.667 43.7128 310.03 47.5827 310.03 52.5199V74.2706H298.254V54.0544C298.254 51.5636 297.584 49.6287 296.245 48.2499C294.906 46.8709 293.105 46.1815 290.843 46.1815C288.579 46.1815 286.779 46.8709 285.44 48.2499C284.1 49.6287 283.431 51.5636 283.431 54.0544V74.2706H271.586V37.0409H283.431V41.9782C284.632 40.3324 286.248 39.0425 288.28 38.1085C290.311 37.1299 292.597 36.6406 295.137 36.6406Z" fill="#2C2C2C"/>
<path d="M335.847 74.7333C332.292 74.7333 329.105 74.1773 326.288 73.0653C323.471 71.9533 321.208 70.3076 319.5 68.128C317.837 65.9485 316.959 63.3242 316.867 60.255H329.474C329.659 61.9898 330.282 63.3242 331.345 64.2583C332.407 65.1479 333.792 65.5927 335.501 65.5927C337.256 65.5927 338.64 65.2145 339.657 64.4585C340.672 63.6578 341.181 62.568 341.181 61.1892C341.181 60.0326 340.766 59.0764 339.934 58.3202C339.149 57.564 338.156 56.9413 336.955 56.4521C335.8 55.9627 334.139 55.4067 331.968 54.7841C328.827 53.8499 326.264 52.9159 324.279 51.9818C322.294 51.0478 320.585 49.6688 319.153 47.8452C317.722 46.0215 317.006 43.6418 317.006 40.7062C317.006 36.3471 318.645 32.9444 321.924 30.498C325.202 28.0072 329.474 26.7617 334.738 26.7617C340.096 26.7617 344.413 28.0072 347.692 30.498C350.971 32.9444 352.726 36.3693 352.956 40.7728H340.141C340.049 39.2606 339.472 38.0818 338.41 37.2367C337.348 36.3471 335.985 35.9023 334.323 35.9023C332.891 35.9023 331.737 36.2804 330.859 37.0365C329.983 37.7482 329.544 38.7935 329.544 40.1724C329.544 41.6847 330.282 42.8634 331.761 43.7085C333.238 44.5537 335.546 45.4655 338.687 46.4441C341.828 47.4671 344.367 48.4456 346.306 49.3798C348.293 50.3138 350.001 51.6704 351.432 53.4497C352.864 55.2289 353.579 57.5196 353.579 60.3218C353.579 62.9906 352.864 65.4147 351.432 67.5942C350.048 69.7738 348.016 71.5085 345.337 72.7984C342.659 74.0883 339.495 74.7333 335.847 74.7333Z" fill="#2C2C2C"/>
<path d="M397.299 55.056C397.299 56.1235 397.229 57.2354 397.09 58.392H370.283C370.468 60.7049 371.23 62.4841 372.569 63.7295C373.955 64.9305 375.641 65.531 377.626 65.531C380.582 65.531 382.637 64.33 383.791 61.9281H396.397C395.751 64.3745 394.574 66.5762 392.865 68.5334C391.203 70.4905 389.102 72.0251 386.561 73.1371C384.021 74.249 381.181 74.805 378.042 74.805C374.255 74.805 370.884 74.0267 367.928 72.4699C364.973 70.9131 362.664 68.689 361.001 65.7978C359.339 62.9067 358.508 59.5262 358.508 55.6564C358.508 51.7867 359.316 48.4062 360.932 45.515C362.594 42.6239 364.903 40.3998 367.859 38.843C370.814 37.2862 374.208 36.5078 378.042 36.5078C381.782 36.5078 385.107 37.264 388.017 38.7764C390.926 40.2886 393.188 42.4459 394.804 45.2482C396.467 48.0504 397.299 51.3197 397.299 55.056ZM385.176 52.0535C385.176 50.0965 384.484 48.5396 383.098 47.3832C381.712 46.2267 379.981 45.6485 377.903 45.6485C375.918 45.6485 374.232 46.2045 372.846 47.3164C371.507 48.4284 370.675 50.0075 370.353 52.0535H385.176Z" fill="#2C2C2C"/>
<path d="M401.211 55.5897C401.211 51.7645 401.95 48.4062 403.428 45.515C404.951 42.6239 407.007 40.3998 409.593 38.843C412.179 37.2862 415.065 36.5078 418.252 36.5078C420.976 36.5078 423.354 37.0416 425.386 38.1092C427.464 39.1766 429.057 40.5778 430.165 42.3125V37.0416H442.01V74.2713H430.165V69.0004C429.011 70.7351 427.395 72.1363 425.317 73.2037C423.285 74.2713 420.907 74.805 418.182 74.805C415.041 74.805 412.179 74.0267 409.593 72.4699C407.007 70.8685 404.951 68.6224 403.428 65.7311C401.95 62.7955 401.211 59.415 401.211 55.5897ZM430.165 55.6564C430.165 52.8097 429.334 50.5635 427.672 48.9178C426.056 47.272 424.07 46.4491 421.715 46.4491C419.359 46.4491 417.351 47.272 415.689 48.9178C414.072 50.519 413.264 52.7431 413.264 55.5897C413.264 58.4364 414.072 60.7049 415.689 62.3951C417.351 64.0409 419.359 64.8638 421.715 64.8638C424.07 64.8638 426.056 64.0409 427.672 62.3951C429.334 60.7494 430.165 58.5032 430.165 55.6564Z" fill="#2C2C2C"/>
</g>
<defs>
<clipPath id="clip0_2029_1007">
<rect width="442" height="101" fill="white"/>
</clipPath>
</defs>
</svg>
