<?xml version="1.0" encoding="UTF-8"?>
<svg xmlns="http://www.w3.org/2000/svg" width="34" height="28" viewBox="0 0 34 28" fill="none">
  <g clip-path="url(#clip0_3551_4854)">
    <path d="M4.83594 0.210938V9.43334H5.25513V0.630137H32.2935V27.459H5.25513V18.4462H4.83594V27.8781H32.7127V0.210938H4.83594Z" fill="black"></path>
    <path fill-rule="evenodd" clip-rule="evenodd" d="M3.52424 17.2116C4.07965 17.5241 4.69406 17.6803 5.36749 17.6803C6.04786 17.6803 6.66574 17.5241 7.22114 17.2116C7.77655 16.8922 8.21393 16.4515 8.53329 15.8891C8.85265 15.3267 9.01232 14.688 9.01232 13.973C9.01232 13.2579 8.85265 12.6191 8.53329 12.0568C8.21393 11.4945 7.77655 11.0571 7.22114 10.7447C6.66574 10.4253 6.04786 10.2656 5.36749 10.2656C4.69406 10.2656 4.07965 10.4253 3.52424 10.7447C2.96884 11.0571 2.52799 11.498 2.20169 12.0672C1.88233 12.6296 1.72266 13.2648 1.72266 13.973C1.72266 14.6811 1.88233 15.3198 2.20169 15.8891C2.52799 16.4515 2.96884 16.8922 3.52424 17.2116ZM6.7317 16.5035C6.32903 16.7395 5.87429 16.8576 5.36749 16.8576C4.86069 16.8576 4.40247 16.7395 3.99286 16.5035C3.5902 16.2675 3.27085 15.9308 3.03479 15.4934C2.8057 15.0559 2.69114 14.5492 2.69114 13.973C2.69114 13.3897 2.8057 12.8829 3.03479 12.4525C3.27085 12.0152 3.5902 11.6785 3.99286 11.4424C4.39554 11.2064 4.85374 11.0883 5.36749 11.0883C5.88124 11.0883 6.33944 11.2064 6.74211 11.4424C7.14477 11.6785 7.46067 12.0152 7.68977 12.4525C7.92582 12.8829 8.04384 13.3897 8.04384 13.973C8.04384 14.5492 7.92582 15.0559 7.68977 15.4934C7.46067 15.9308 7.14131 16.2675 6.7317 16.5035Z" fill="black"></path>
    <path d="M10.7497 17.429C11.1315 17.5956 11.5619 17.679 12.0409 17.679C12.5408 17.679 12.9747 17.5817 13.3427 17.3874C13.7106 17.193 13.9884 16.9395 14.1758 16.6272C14.3633 16.3148 14.457 15.9815 14.457 15.6275C14.457 15.1693 14.3528 14.8082 14.1446 14.5444C13.9363 14.2736 13.6864 14.0757 13.3948 13.9508C13.1032 13.8189 12.7179 13.687 12.2388 13.5551C11.8431 13.444 11.5342 13.3468 11.312 13.2635C11.0968 13.1732 10.9129 13.0448 10.7601 12.8782C10.6143 12.7116 10.5414 12.4963 10.5414 12.2326C10.5414 11.8646 10.6664 11.5799 10.9163 11.3786C11.1662 11.1703 11.489 11.0662 11.8848 11.0662C12.3083 11.0662 12.6485 11.1738 12.9053 11.389C13.1622 11.5973 13.308 11.8403 13.3427 12.1179H14.384C14.3286 11.5557 14.0821 11.1044 13.6447 10.7642C13.2143 10.424 12.6589 10.2539 11.9785 10.2539C11.5064 10.2539 11.0864 10.3372 10.7184 10.5038C10.3574 10.6705 10.0762 10.9065 9.87491 11.212C9.67358 11.5174 9.57291 11.868 9.57291 12.2638C9.57291 12.715 9.67358 13.0761 9.87491 13.3468C10.0832 13.6106 10.3296 13.8051 10.6143 13.93C10.9059 14.055 11.2912 14.1799 11.7703 14.3049C12.159 14.409 12.4679 14.5062 12.697 14.5964C12.9261 14.6867 13.1171 14.8186 13.2698 14.9922C13.4226 15.1658 13.499 15.3914 13.499 15.669C13.499 16.0232 13.367 16.3148 13.1032 16.5439C12.8463 16.766 12.4923 16.8771 12.0409 16.8771C11.5688 16.8771 11.2079 16.7626 10.958 16.5334C10.715 16.2973 10.5761 16.0093 10.5414 15.669H9.53125C9.5382 16.0648 9.64928 16.4154 9.8645 16.7209C10.0797 17.0194 10.3748 17.2555 10.7497 17.429Z" fill="black"></path>
    <path d="M18.8206 16.8355H16.2796V10.3477H15.332V17.6061H18.8206V16.8355Z" fill="black"></path>
  </g>
  <defs>
    <clipPath id="clip0_3551_4854">
      <rect width="33.125" height="27.7823" fill="white" transform="translate(0.21875 0.152344)"></rect>
    </clipPath>
  </defs>
</svg>
