<?xml version="1.0" encoding="UTF-8"?>
<svg xmlns="http://www.w3.org/2000/svg" width="88" height="29" viewBox="0 0 88 29" fill="none">
  <g clip-path="url(#clip0_3551_4866)">
    <path d="M10.8012 3.69787L8.29749 1.19141H9.96215L10.7945 2.02463L11.6336 1.19141H13.2983L10.8012 3.69787ZM3.29673 1.19141L0.792969 3.69787V5.36432L4.9614 1.19141H3.29673ZM0.792969 8.70401V10.3705L1.6253 11.2037L0.792969 12.0437V13.7102L3.29673 11.2037L0.792969 8.70401ZM20.8095 13.717V12.0505L19.9772 11.2173L20.8095 10.384V8.71757L18.3057 11.224L20.8095 13.717ZM6.63283 22.896L0.792969 17.0567V18.7231L6.63283 24.5692L10.8012 20.3963L11.6336 21.2295H13.2983L10.7945 18.7231L6.63283 22.896ZM0.792969 20.3963V22.0627L6.63283 27.9089L10.8012 23.736V22.0695L6.63283 26.2424L0.792969 20.3963ZM9.96892 27.9089L10.8012 27.0757V25.4092L8.29749 27.9157H9.96892V27.9089ZM0.792969 25.4024L3.29673 27.9089H4.9614L0.792969 23.736V25.4024ZM10.8012 10.3772L14.1373 7.03756L13.305 6.20433L10.8012 8.71079L6.63283 4.5311L4.12906 7.03756L8.29749 11.2105L4.12906 15.3834L6.63283 17.8899L10.8012 13.717L14.9696 17.8899L17.4734 15.3834L13.305 11.2105L17.4734 7.03756L14.9696 4.5311L14.1373 5.36432L15.802 7.03079L11.6336 11.2037L15.802 15.3767L14.9696 16.2099L10.8012 12.037L6.63283 16.2099L5.80049 15.3767L9.96892 11.2037L5.79373 7.03756L6.62605 6.20433L10.8012 10.3772ZM20.8095 7.03756L14.9696 1.19141L10.8012 5.36432L6.63283 1.19141L0.792969 7.03756L4.9614 11.2105L0.792969 15.3834L4.9614 19.5563L5.79373 18.7231L2.45764 15.3834L6.62605 11.2105L2.45764 7.03756L6.62605 2.86464L10.7945 7.03756L14.9629 2.86464L19.1314 7.03756L14.9629 11.2105L19.1314 15.3834L14.9629 19.5563L10.7945 15.3834L7.38396 18.8044L5.80049 20.3895L6.63283 21.2227L10.8012 17.0499L14.9696 21.2227L20.8095 15.3767L16.6411 11.2037L20.8095 7.03756Z" fill="black"></path>
    <path d="M25.8086 21.2286V8.70312H32.6905C33.5432 8.70312 34.2673 8.87926 34.8695 9.22474C35.4718 9.57022 35.9319 10.0512 36.2568 10.6676C36.5816 11.2841 36.7372 12.0021 36.7372 12.8286C36.7372 13.6821 36.5681 14.4138 36.2365 15.0371C35.9049 15.6535 35.4312 16.1412 34.8154 16.4867C34.1996 16.8322 33.4688 17.0083 32.6229 17.0083H29.0703V21.2354H25.8086V21.2286ZM29.0703 14.4815H31.8582C32.3658 14.4815 32.7583 14.3393 33.0221 14.0547C33.2861 13.7703 33.4214 13.3706 33.4214 12.8625C33.4214 12.4967 33.3605 12.1986 33.2455 11.9683C33.1305 11.738 32.9545 11.555 32.7244 11.4331C32.4944 11.3045 32.2034 11.2435 31.8515 11.2435H29.0635V14.4815H29.0703Z" fill="black"></path>
    <path d="M38 21.2286V8.70312H41.2617V18.5461H47.6158V21.2286H38Z" fill="black"></path>
    <path d="M54.7329 21.4434C53.3593 21.4434 52.1886 21.2064 51.2074 20.7254C50.2329 20.2444 49.4818 19.5264 48.9608 18.5644C48.4397 17.6025 48.1758 16.4034 48.1758 14.9538C48.1758 13.5109 48.4397 12.3051 48.9608 11.3566C49.4818 10.4015 50.2329 9.68342 51.2074 9.20244C52.1818 8.72147 53.3593 8.48438 54.7329 8.48438C56.1066 8.48438 57.2773 8.72147 58.2585 9.20244C59.2329 9.68342 59.9841 10.4015 60.5051 11.3566C61.0261 12.3118 61.2901 13.5109 61.2901 14.9538C61.2901 16.3966 61.0261 17.6025 60.5051 18.5644C59.9841 19.5264 59.2329 20.2444 58.2585 20.7254C57.2773 21.2064 56.0998 21.4434 54.7329 21.4434ZM54.7329 18.8896C55.254 18.8896 55.7141 18.8083 56.1201 18.6525C56.5194 18.4966 56.8577 18.2664 57.1284 17.9615C57.3991 17.6566 57.6021 17.284 57.7374 16.8505C57.8728 16.4102 57.9405 15.9224 57.9405 15.3738V14.5744C57.9405 14.0189 57.8728 13.5177 57.7374 13.0773C57.6021 12.6369 57.3991 12.2712 57.1284 11.9663C56.8577 11.6615 56.5194 11.4312 56.1201 11.2753C55.7209 11.1196 55.2608 11.0383 54.7329 11.0383C54.1983 11.0383 53.7315 11.1196 53.3322 11.2753C52.933 11.4312 52.5946 11.6615 52.3307 11.9663C52.0667 12.2712 51.8638 12.6437 51.7284 13.0773C51.5931 13.5177 51.5254 14.0122 51.5254 14.5744V15.3738C51.5254 15.9224 51.5931 16.4102 51.7284 16.8505C51.8638 17.2908 52.06 17.6566 52.3307 17.9615C52.5946 18.2664 52.933 18.4966 53.3322 18.6525C53.7315 18.8151 54.1983 18.8896 54.7329 18.8896Z" fill="black"></path>
    <path d="M65.9586 21.2286V11.3857H61.8984V8.70312H73.2805V11.3857H69.2203V21.2286H65.9586Z" fill="black"></path>
    <path d="M73.7734 21.2286L78.2735 14.6306L74.2133 8.70312H78.1651L80.4591 12.3476H80.5472L82.8411 8.70312H86.5359L82.4554 14.6306L86.9554 21.2286H82.9832L80.2697 16.9067H80.1817L77.4681 21.2286H73.7734Z" fill="black"></path>
  </g>
  <defs>
    <clipPath id="clip0_3551_4866">
      <rect width="86.4676" height="27.2033" fill="white" transform="translate(0.546875 0.949219)"></rect>
    </clipPath>
  </defs>
</svg>
