<?xml version="1.0" encoding="UTF-8"?>
<svg xmlns="http://www.w3.org/2000/svg" width="85" height="22" viewBox="0 0 85 22" fill="none">
  <g clip-path="url(#clip0_3551_3898)">
    <path d="M16.8961 13.3492C16.228 12.9615 15.4743 12.8497 14.7276 12.8253C14.1013 12.8043 13.168 12.4025 13.168 11.2532C13.1716 10.8392 13.3367 10.443 13.6282 10.1493C13.9196 9.85555 14.3142 9.68762 14.7276 9.6812C15.4743 9.65498 16.228 9.54324 16.8961 9.15721C17.4961 8.80939 17.994 8.30966 18.3402 7.7082C18.6862 7.10672 18.868 6.4247 18.8675 5.7306C18.867 5.0365 18.6841 4.35474 18.3371 3.7538C17.9903 3.15285 17.4915 2.65386 16.8911 2.30695C16.2906 1.96002 15.6095 1.77737 14.9163 1.77734C14.223 1.77732 13.5419 1.9599 12.9414 2.30676C12.3409 2.65363 11.8421 3.15257 11.4951 3.75348C11.1481 4.3544 10.9652 5.03613 10.9646 5.73024C10.9646 6.49702 11.2367 7.20268 11.5857 7.85768C11.877 8.40789 12.0253 9.42967 11.0222 10.0078C10.6596 10.2098 10.2324 10.2615 9.83226 10.1518C9.43208 10.0421 9.09079 9.77974 8.88159 9.42096C8.48907 8.79215 8.00931 8.19828 7.3516 7.81925C6.75088 7.47234 6.06955 7.2898 5.37605 7.29001C4.68257 7.29022 4.00134 7.47316 3.40083 7.82043C2.80032 8.16772 2.30167 8.66712 1.95498 9.26843C1.60829 9.86985 1.42578 10.5519 1.42578 11.2462C1.42578 11.9406 1.60829 12.6227 1.95498 13.224C2.30167 13.8254 2.80032 14.3248 3.40083 14.672C4.00134 15.0193 4.68257 15.2023 5.37605 15.2025C6.06955 15.2027 6.75088 15.0201 7.3516 14.6732C8.01455 14.2889 8.48907 13.7003 8.88159 13.0715C9.20434 12.5475 10.0086 11.8977 11.0222 12.4846C11.3782 12.6981 11.6364 13.0429 11.7415 13.4448C11.8465 13.8469 11.7899 14.2741 11.5839 14.6348C11.2351 15.2898 10.9646 15.9954 10.9646 16.7622C10.9646 17.4568 11.1474 18.1393 11.4943 18.7409C11.8412 19.3425 12.3401 19.8421 12.9409 20.1895C13.5418 20.5368 14.2234 20.7198 14.9172 20.7199C15.611 20.72 16.2927 20.5373 16.8936 20.1901C17.4946 19.8429 17.9938 19.3434 18.3408 18.7419C18.6879 18.1405 18.8708 17.458 18.8711 16.7634C18.8713 16.0687 18.6889 15.3862 18.3422 14.7845C17.9956 14.1827 17.4969 13.6828 16.8961 13.3353V13.3492Z" fill="#008CFF"></path>
    <path d="M24.3086 5.25037H27.0597V6.5499C27.4267 6.10299 27.8875 5.74273 28.4095 5.49484C28.9316 5.24695 29.5019 5.11754 30.0797 5.11588C30.4715 5.10119 30.8634 5.14653 31.2415 5.25037V8.39439C31.2415 8.39439 30.8612 8.25988 29.9453 8.25988C28.3752 8.25988 27.3285 9.30792 27.3285 10.8798V17.2989H24.3086V5.25037ZM39.0939 5.25037H41.8451V6.4154C42.7844 5.58511 43.9923 5.12347 45.2453 5.11588C48.2651 5.11588 50.8819 7.73589 50.8819 11.2746C50.8819 14.8133 48.2651 17.4334 45.2453 17.4334C44.0913 17.4364 42.9768 17.0142 42.1137 16.2474V21.622H39.0939V5.25037ZM47.8621 11.2746C47.8621 9.30443 46.5642 8.00488 44.865 8.00488C43.1658 8.00488 41.8451 9.29912 41.8451 11.2746C41.8451 13.2501 43.1639 14.5392 44.8666 14.5392C46.5694 14.5392 47.8621 13.2466 47.8621 11.2746ZM53.0958 5.25037H55.847V6.4154C56.7866 5.58552 57.9943 5.12394 59.2472 5.11588C62.2671 5.11588 64.8839 7.73589 64.8839 11.2746C64.8839 14.8133 62.2671 17.4334 59.2472 17.4334C58.0935 17.4354 56.9792 17.0133 56.1156 16.2474V21.622H53.0958V5.25037ZM61.8658 11.2746C61.8658 9.30443 60.5679 8.00488 58.8668 8.00488C57.1659 8.00488 55.847 9.29912 55.847 11.2746C55.847 13.2501 57.1676 14.5392 58.8668 14.5392C60.566 14.5392 61.8658 13.2466 61.8658 11.2746ZM67.0995 0.794615H70.1193V17.2989H67.0995V0.794615ZM72.3332 11.2746C72.3332 7.87212 75.0845 5.11588 78.3503 5.11588C81.5027 5.11588 84.1196 7.60315 84.1196 11.2746C84.107 11.6736 84.062 12.0708 83.9853 12.4623H75.5991C75.8677 13.6273 76.7923 14.5392 78.3503 14.5392C79.7599 14.5392 80.32 13.8912 80.32 13.8912H83.5857C82.9804 15.4632 81.1015 17.4282 78.352 17.4282C75.0845 17.4334 72.3332 14.6789 72.3332 11.2746ZM81.2306 10.3576C81.0933 9.69301 80.7313 9.09611 80.2057 8.66754C79.6801 8.23898 79.0229 8.00498 78.3451 8.00498C77.6672 8.00498 77.01 8.23898 76.4844 8.66754C75.9587 9.09611 75.5968 9.69301 75.4595 10.3576H81.2306ZM33.0036 2.09239C33.0036 1.63795 33.1839 1.20212 33.5048 0.880775C33.8258 0.559435 34.2611 0.378906 34.715 0.378906C35.1689 0.378906 35.6042 0.559435 35.9251 0.880775C36.2461 1.20212 36.4264 1.63795 36.4264 2.09239C36.4264 2.54684 36.2461 2.98266 35.9251 3.30401C35.6042 3.62534 35.1689 3.80587 34.715 3.80587C34.2611 3.80587 33.8258 3.62534 33.5048 3.30401C33.1839 2.98266 33.0036 2.54684 33.0036 2.09239ZM33.2059 5.25037H36.2311V17.3024H33.2112L33.2059 5.25037Z" fill="#1B1919"></path>
  </g>
  <defs>
    <clipPath id="clip0_3551_3898">
      <rect width="84" height="22" fill="white" transform="translate(0.78125)"></rect>
    </clipPath>
  </defs>
</svg>
