<?xml version="1.0" encoding="UTF-8"?>
<svg xmlns="http://www.w3.org/2000/svg" width="118" height="21" viewBox="0 0 118 21" fill="none">
  <g clip-path="url(#clip0_3551_4741)">
    <path d="M31.6797 13.8099C32.0679 14.4431 32.2939 15.1626 32.3372 15.9041C32.2965 16.6275 32.0699 17.3281 31.6797 17.9385C31.5037 18.2173 31.2932 18.4726 31.0529 18.6983C30.7759 18.9547 30.4651 19.172 30.1292 19.3443C29.7221 19.5514 29.2906 19.7069 28.845 19.8071C28.2852 19.9299 27.7133 19.9882 27.1403 19.9806C26.5609 19.9887 25.9825 19.9304 25.4164 19.8071C24.9706 19.7069 24.5392 19.5514 24.132 19.3443C23.7982 19.1735 23.4905 18.9559 23.218 18.6983C22.4554 17.9615 22.0005 16.963 21.9453 15.9041H24.4098C24.4013 16.0798 24.4358 16.2549 24.5104 16.4142C24.5851 16.5735 24.6974 16.7121 24.8378 16.8182C25.1196 17.0318 25.4359 17.1956 25.7731 17.3021C26.22 17.4328 26.6825 17.5015 27.148 17.5065C27.6052 17.5003 28.0593 17.4315 28.4979 17.3021C28.8376 17.1945 29.157 17.031 29.4428 16.8182C29.5847 16.7133 29.6983 16.5749 29.7737 16.4154C29.8491 16.2559 29.8838 16.0803 29.8747 15.9041C29.8846 15.7175 29.8506 15.5312 29.7756 15.3601C29.7006 15.1891 29.5867 15.0379 29.4428 14.9187C29.1635 14.691 28.8445 14.517 28.5017 14.4058C28.0627 14.2753 27.6094 14.1996 27.1519 14.1801C26.6053 14.1858 26.0602 14.1209 25.5301 13.9873C25.1081 13.8816 24.7012 13.7229 24.3191 13.5148C23.992 13.3417 23.6934 13.1193 23.434 12.8553C23.2122 12.6213 23.0181 12.3624 22.8555 12.084C22.4909 11.4423 22.2797 10.7248 22.2384 9.98793C22.2803 9.27252 22.4896 8.57693 22.8497 7.95734C23.0147 7.68995 23.2087 7.44161 23.4282 7.21685C23.6861 6.95714 23.9803 6.73629 24.3018 6.56121C24.6828 6.35327 25.0902 6.1976 25.5128 6.0984C26.0442 5.97456 26.5888 5.91564 27.1345 5.92293C27.6809 5.91572 28.226 5.97465 28.7582 6.0984C29.1808 6.1976 29.5881 6.35327 29.9692 6.56121C30.2903 6.73678 30.5845 6.95759 30.8427 7.21685C31.0623 7.44161 31.2563 7.68995 31.4213 7.95734C31.7828 8.57737 31.9941 9.27347 32.0383 9.98984H29.5854C29.5951 9.81812 29.5653 9.64656 29.4985 9.4881C29.4317 9.32973 29.3295 9.18869 29.1998 9.07582C28.9472 8.8649 28.6583 8.70156 28.3475 8.5937C27.9558 8.46448 27.5469 8.39557 27.1345 8.38929C26.7158 8.39466 26.3003 8.46358 25.9023 8.5937C25.5942 8.69992 25.3089 8.8635 25.0616 9.07582C24.9353 9.19068 24.8365 9.3325 24.7724 9.4907C24.7083 9.6489 24.6806 9.8195 24.6913 9.98984C24.6789 10.1742 24.7056 10.3591 24.7693 10.5325C24.8331 10.706 24.9327 10.864 25.0616 10.9964C25.3014 11.2261 25.5883 11.4011 25.9023 11.5094C26.2969 11.6531 26.7146 11.723 27.1345 11.7157C27.7084 11.7103 28.2809 11.775 28.8392 11.9085C29.2848 12.0135 29.7161 12.1722 30.1235 12.381C30.4636 12.555 30.775 12.7801 31.0471 13.0482C31.2861 13.2773 31.4983 13.5329 31.6797 13.8099ZM37.2043 9.72371C37.6203 9.30892 38.1119 8.9777 38.6526 8.74796C39.2136 8.50747 39.8182 8.38536 40.4286 8.38929C41.0131 8.38415 41.5948 8.4707 42.1525 8.64576C42.6529 8.8009 43.1231 9.04024 43.5429 9.35348C43.9269 9.6346 44.2475 9.99331 44.4839 10.4064C44.7083 10.8041 44.8252 11.2533 44.8233 11.7099H47.3494C47.3525 10.9275 47.1658 10.156 46.8056 9.46149C46.4403 8.75299 45.9337 8.1269 45.317 7.6218C44.6591 7.08729 43.916 6.66746 43.1186 6.37994C42.2536 6.06557 41.3392 5.90882 40.4189 5.91714C39.4795 5.91061 38.5489 6.09975 37.6865 6.47251C36.0112 7.19685 34.6773 8.53565 33.959 10.2135C33.5937 11.0778 33.4055 12.0067 33.4055 12.945C33.4055 13.8834 33.5937 14.8122 33.959 15.6765C34.6795 17.3561 36.0173 18.6953 37.6961 19.4175C38.559 19.7888 39.4893 19.9772 40.4286 19.971C41.3487 19.979 42.2629 19.8229 43.1283 19.5101C43.926 19.2226 44.6694 18.8021 45.3266 18.2663C45.9432 17.7619 46.4499 17.1365 46.8153 16.4286C47.1753 15.734 47.3618 14.9625 47.359 14.1801H44.8329C44.8348 14.6367 44.7179 15.086 44.4936 15.4837C44.2545 15.8994 43.9305 16.2601 43.5429 16.5424C43.1202 16.8556 42.6475 17.0949 42.1448 17.2501C41.5871 17.4251 41.0054 17.5116 40.4209 17.5065C39.8137 17.5118 39.2118 17.3924 38.6526 17.1556C37.5589 16.6914 36.6893 15.819 36.2286 14.7239C35.9919 14.1618 35.8699 13.5579 35.8699 12.9479C35.8699 12.3379 35.9919 11.734 36.2286 11.1719C36.4584 10.6312 36.7896 10.1396 37.2043 9.72371ZM60.3697 7.32099C59.7345 6.81208 59.0003 6.44103 58.2138 6.23146C57.4588 6.03013 56.6811 5.92644 55.8998 5.92293C55.2223 5.91155 54.5462 5.98804 53.8885 6.15047C53.4002 6.27383 52.9253 6.44566 52.4712 6.66341C52.0649 6.85306 51.6849 7.09485 51.3411 7.38269V0.378906H48.869V19.6008H51.3334V12.9479C51.3613 12.1556 51.5586 11.3784 51.912 10.6686C52.0552 10.3664 52.2366 10.0838 52.4518 9.82782C52.6905 9.55147 52.9633 9.3065 53.2637 9.09888C53.6068 8.86712 53.9843 8.69077 54.3822 8.57634C55.372 8.31669 56.4121 8.31669 57.4019 8.57634C57.8 8.69038 58.1775 8.86676 58.5204 9.09888C58.8199 9.30407 59.0898 9.5493 59.3226 9.82782C59.5345 10.0863 59.7199 10.3654 59.876 10.6609C60.2293 11.3707 60.4266 12.1479 60.4546 12.9402V19.5931H62.919V12.9479C62.7904 11.5338 62.4992 10.3736 62.0454 9.46721C61.6502 8.63809 61.0782 7.90552 60.3697 7.32099ZM80.2317 19.6008H82.6885V0.378906H80.2278L80.2317 19.6008ZM95.2729 6.29509H97.7295V19.6008H95.2616V18.2876C95.1021 18.452 94.927 18.6 94.7389 18.7291C94.4355 18.9432 94.1121 19.1284 93.7749 19.2826C93.3398 19.4843 92.8881 19.6463 92.4244 19.7666C91.8644 19.9089 91.2879 19.9776 90.7106 19.971C89.7709 19.9772 88.8408 19.7888 87.9782 19.4175C86.2958 18.6977 84.9545 17.3592 84.2312 15.6785C83.8656 14.8138 83.6772 13.8847 83.6772 12.946C83.6772 12.0073 83.8656 11.0781 84.2312 10.2135C84.9526 8.53534 86.2901 7.19776 87.9687 6.47636C88.8304 6.10361 89.7614 5.91447 90.701 5.92099C91.2558 5.91367 91.8106 5.9693 92.3533 6.08683C92.7841 6.18179 93.2037 6.31938 93.6067 6.49758C93.9405 6.64479 94.2569 6.82709 94.5516 7.04137C94.8177 7.2342 95.0553 7.42704 95.259 7.60638L95.2729 6.29509ZM95.2729 12.9498C95.2737 12.3699 95.1411 11.7974 94.8871 11.276C94.627 10.7343 94.2768 10.2412 93.8495 9.8182C93.4264 9.3924 92.9332 9.04159 92.3923 8.78075C91.8713 8.5245 91.2983 8.39123 90.7184 8.39123C90.1376 8.39123 89.5655 8.5245 89.0445 8.78075C87.9505 9.30537 87.0654 10.1839 86.5336 11.2741C86.2774 11.7949 86.1441 12.3675 86.1441 12.9479C86.1441 13.5284 86.2774 14.101 86.5336 14.6217C86.7945 15.1629 87.1452 15.6558 87.5708 16.0796C87.9939 16.5062 88.4871 16.8571 89.0289 17.1171C89.5499 17.3733 90.122 17.5065 90.7028 17.5065C91.2827 17.5065 91.8557 17.3733 92.3767 17.1171C93.4646 16.5891 94.3436 15.7101 94.8715 14.6217C95.1272 14.1007 95.2607 13.5282 95.2616 12.9479L95.2729 12.9498ZM103.345 6.66534C102.935 6.85631 102.554 7.10502 102.215 7.4039V6.29317H99.7389V19.5988H102.203V12.9479C102.221 12.4239 102.31 11.9046 102.469 11.4052C102.602 10.9982 102.786 10.6095 103.016 10.2482C103.212 9.93705 103.459 9.65965 103.744 9.42673C103.999 9.22068 104.274 9.04166 104.566 8.89259C105.249 8.5585 106.001 8.39005 106.762 8.40086V5.92293C106.088 5.91269 105.415 5.98916 104.761 6.15047C104.269 6.273 103.791 6.44485 103.334 6.66341L103.345 6.66534ZM117.576 6.29509H107.583V8.7576H114.195L107.583 17.5413V19.6008H117.565V17.1363H111.055L117.565 8.34687L117.576 6.29509ZM78.1472 13.2372C78.1472 14.6102 77.7401 15.9523 76.9772 17.094C76.2145 18.2356 75.1302 19.1254 73.8617 19.6508C72.5933 20.1763 71.1975 20.3137 69.8508 20.0458C68.5041 19.778 67.2672 19.1168 66.2963 18.1459C65.3254 17.1751 64.6643 15.9381 64.3964 14.5915C64.1286 13.2449 64.2661 11.8491 64.7915 10.5805C65.317 9.31204 66.2067 8.22785 67.3483 7.46505C68.4899 6.70224 69.8321 6.29509 71.2051 6.29509C73.0439 6.29816 74.8064 7.03064 76.1058 8.33178C77.4051 9.63295 78.1351 11.3964 78.1356 13.2353L78.1472 13.2372ZM67.9905 16.1297C67.9807 16.197 67.9599 16.2621 67.9289 16.3226C67.9141 16.3613 67.8925 16.3973 67.8652 16.4286L67.8845 16.4478C67.9213 16.42 67.9538 16.3869 67.9809 16.3495C68.0146 16.2822 68.0374 16.21 68.0484 16.1355C68.0723 15.988 68.0591 15.8369 68.0098 15.6958C67.9635 15.5533 67.8802 15.4256 67.7688 15.3256C67.7387 15.2993 67.7033 15.2799 67.6651 15.2687C67.6268 15.2573 67.5866 15.2544 67.547 15.26C67.5274 15.264 67.5087 15.2717 67.4921 15.2828C67.4754 15.294 67.4612 15.3083 67.4501 15.3249C67.439 15.3416 67.4313 15.3603 67.4274 15.3799C67.4235 15.3995 67.4235 15.4197 67.4275 15.4393C67.4294 15.4066 67.4435 15.3757 67.4671 15.3529C67.4907 15.33 67.522 15.3169 67.5547 15.3159C67.5867 15.3119 67.6192 15.3147 67.6501 15.324C67.681 15.3333 67.7096 15.3489 67.7341 15.3699C67.8356 15.4643 67.9113 15.5831 67.9539 15.7151C67.9687 15.7551 67.9797 15.7965 67.9867 15.8385C67.9767 15.8192 67.9637 15.8016 67.9481 15.7864C67.9213 15.765 67.8903 15.7493 67.8571 15.7404C67.824 15.7315 67.7893 15.7294 67.7553 15.7344C67.7207 15.7394 67.6883 15.7542 67.662 15.7771C67.6356 15.8 67.6165 15.83 67.6068 15.8636C67.5921 15.9282 67.5989 15.9959 67.6261 16.0565C67.6217 15.9982 67.6296 15.9398 67.6492 15.8848C67.6583 15.8609 67.674 15.84 67.6945 15.8246C67.7149 15.8092 67.7394 15.8 67.765 15.798C67.8184 15.788 67.8737 15.799 67.9192 15.8289C67.9493 15.8484 67.9749 15.874 67.9944 15.9041C67.9991 15.981 67.9939 16.058 67.979 16.1335L67.9905 16.1297ZM68.9412 15.744C68.9914 15.744 69.0357 15.6997 69.0415 15.6341C69.0481 15.6071 69.0439 15.5785 69.0299 15.5544C69.0158 15.5304 68.9931 15.5126 68.9663 15.505C68.9181 15.505 68.8738 15.5493 68.866 15.6148C68.8588 15.6404 68.8614 15.6678 68.8731 15.6916C68.8849 15.7154 68.905 15.7341 68.9297 15.744H68.9412ZM70.4492 16.1914C70.613 16.2062 70.7775 16.1711 70.921 16.0907C71.0645 16.0104 71.1804 15.8885 71.2534 15.7412C71.3264 15.5937 71.3531 15.4277 71.3302 15.2648C71.3071 15.102 71.2354 14.9499 71.1245 14.8286C71.0134 14.7072 70.8683 14.6222 70.7082 14.5847C70.548 14.5473 70.3803 14.5591 70.227 14.6188C70.0737 14.6783 69.942 14.7829 69.8491 14.9186C69.7563 15.0545 69.7067 15.2151 69.7068 15.3796C69.7013 15.4818 69.7163 15.5842 69.7508 15.6806C69.7853 15.777 69.8387 15.8656 69.9078 15.9411C69.9769 16.0167 70.0604 16.0777 70.1533 16.1207C70.2463 16.1637 70.3469 16.1877 70.4492 16.1914ZM72.8616 16.2705C73.0192 16.2845 73.1772 16.2505 73.315 16.1729C73.4528 16.0953 73.564 15.9777 73.6337 15.8358C73.7034 15.6938 73.7285 15.5341 73.7056 15.3775C73.6828 15.2211 73.6131 15.0751 73.5057 14.959C73.3983 14.8429 73.2582 14.7621 73.104 14.7271C72.9497 14.6921 72.7885 14.7047 72.6415 14.7632C72.4946 14.8216 72.3687 14.9233 72.2807 15.0546C72.1926 15.186 72.1464 15.341 72.148 15.4992C72.1412 15.6949 72.2112 15.8856 72.3431 16.0304C72.4749 16.1754 72.6583 16.2629 72.8538 16.2743L72.8616 16.2705ZM75.8216 13.2314C75.8195 12.5257 75.656 11.8297 75.3437 11.1969C75.0314 10.564 74.5784 10.011 74.0195 9.58008C73.4606 9.14907 72.8106 8.85169 72.1191 8.71056C71.4276 8.56942 70.713 8.58831 70.03 8.76575C69.3469 8.9432 68.7134 9.27451 68.178 9.73438C67.6427 10.1942 67.2196 10.7704 66.9411 11.4189C66.6626 12.0674 66.5361 12.7709 66.5713 13.4757C66.6064 14.1807 66.8023 14.8681 67.144 15.4856C67.149 15.3559 67.1904 15.2303 67.2636 15.1231C67.3009 15.0744 67.3478 15.0338 67.4014 15.0039C67.4551 14.974 67.5142 14.9555 67.5753 14.9493C67.6363 14.9431 67.698 14.9496 67.7565 14.9682C67.815 14.9868 67.8691 15.0173 67.9154 15.0576C68.0943 15.2537 68.2087 15.5001 68.2432 15.7633C68.2432 15.7633 68.3878 14.992 67.7611 14.7124C67.7611 14.7124 67.7611 14.7374 67.7611 14.695C67.784 14.6419 67.8209 14.5961 67.8677 14.5621C67.9145 14.5282 67.9696 14.5075 68.0272 14.5022C68.276 14.5022 68.4379 14.695 68.517 15.0499C68.6398 15.6729 68.5871 16.3178 68.3647 16.9126C68.3859 16.9281 68.4514 16.9569 68.4727 16.9724C68.7715 16.2859 68.7098 15.3565 68.6231 14.9842C68.5363 14.6121 68.3106 14.3749 68.0234 14.3749C67.9729 14.3755 67.9232 14.3871 67.8776 14.4087C67.832 14.4304 67.7916 14.4616 67.7591 14.5003C67.7617 14.1973 67.7809 13.8947 67.817 13.5939C67.8787 13.1677 68.3125 12.0512 68.974 11.6656L69.0126 11.6443C69.1843 11.6868 69.3369 11.7852 69.4465 11.924C69.6025 12.1232 69.748 12.3304 69.8823 12.5449C70.1657 12.9769 70.4608 13.4261 70.752 13.619C71.1443 13.8374 71.5873 13.9485 72.0362 13.9411C72.3687 13.9517 72.6982 13.8738 72.9908 13.7154C73.55 13.3838 73.685 12.6413 73.361 11.8391C73.7107 12.1177 73.9748 12.4893 74.1227 12.9113C74.3749 13.5995 74.4685 14.3358 74.3966 15.0653C74.3714 15.451 74.3136 16.2955 74.2886 16.6522C74.3637 16.5829 74.4371 16.5096 74.5084 16.4363L74.5373 15.9697C74.557 15.963 74.5779 15.9616 74.5983 15.9657C74.6186 15.9698 74.6375 15.979 74.653 15.9928C74.7028 16.0337 74.7429 16.0851 74.7706 16.1432C74.763 16.0706 74.7311 16.0026 74.6801 15.9504C74.6618 15.9323 74.6395 15.919 74.6149 15.9113C74.5905 15.9035 74.5646 15.9017 74.5393 15.9061V15.8192C74.5596 15.7664 74.5928 15.7193 74.6357 15.6823C74.6468 15.6736 74.6592 15.6664 74.6723 15.6611H74.7186C74.7498 15.6613 74.7803 15.6714 74.8054 15.69C74.8618 15.7307 74.907 15.7851 74.9365 15.8481C74.9252 15.7738 74.8884 15.7056 74.8324 15.6554C74.8003 15.6286 74.7603 15.613 74.7186 15.6109C74.6768 15.6088 74.6356 15.6203 74.601 15.6437C74.5809 15.6624 74.5628 15.6831 74.547 15.7055L74.5681 15.3699C74.5927 15.3357 74.6251 15.308 74.6628 15.2892C74.7004 15.2703 74.7421 15.261 74.7842 15.262C74.8728 15.262 75.0213 15.4258 75.0889 15.6919C75.5609 14.959 75.815 14.1071 75.8216 13.2353V13.2314ZM68.1179 14.0548C68.1043 14.0499 68.0899 14.0482 68.0756 14.0499C68.0613 14.0515 68.0476 14.0565 68.0357 14.0643C68.0236 14.0722 68.0136 14.0828 68.0064 14.0952C67.9991 14.1076 67.9948 14.1215 67.9939 14.1358C67.993 14.1501 67.9954 14.1645 68.001 14.1777C68.0065 14.191 68.0151 14.2027 68.026 14.212C68.0369 14.2214 68.0498 14.2281 68.0638 14.2316C68.0777 14.2351 68.0922 14.2353 68.1062 14.2322C68.1738 14.2322 68.2297 14.1994 68.2316 14.1512C68.2335 14.103 68.1834 14.0702 68.1179 14.0587V14.0548ZM73.1663 11.6482C73.5327 12.4504 73.4285 13.2063 72.8866 13.5284C72.2619 13.9005 71.1994 13.7212 70.7655 13.4358C70.4917 13.243 70.187 12.7975 69.9344 12.3964C69.8011 12.1823 69.6563 11.9757 69.5005 11.7774C69.4008 11.6507 69.267 11.555 69.1148 11.5016C69.8864 11.0878 70.773 10.94 71.637 11.0813C72.1861 11.1425 72.7114 11.3386 73.1663 11.652V11.6482ZM70.883 13.0617C70.8688 13.0492 70.8518 13.0401 70.8335 13.0352C70.8152 13.0303 70.7959 13.0297 70.7773 13.0335C70.7586 13.0372 70.7411 13.0452 70.7261 13.0568C70.7111 13.0684 70.699 13.0834 70.6907 13.1005C70.6824 13.1175 70.6781 13.1363 70.6782 13.1553C70.6784 13.1742 70.6829 13.193 70.6915 13.21C70.7 13.2269 70.7123 13.2417 70.7275 13.253C70.7427 13.2645 70.7603 13.2723 70.7789 13.2757C70.8095 13.2959 70.8468 13.3034 70.8828 13.2966C70.9188 13.2897 70.9507 13.2691 70.9718 13.2391C70.9813 13.2043 70.9774 13.1672 70.9611 13.1351C70.9447 13.1031 70.9168 13.0782 70.883 13.0655V13.0617ZM73.0467 13.1639C73.0245 13.1351 72.992 13.116 72.9561 13.1106C72.9202 13.1052 72.8835 13.114 72.8538 13.135C72.8371 13.1509 72.8252 13.1712 72.8195 13.1936C72.8138 13.2159 72.8144 13.2395 72.8214 13.2615C72.8284 13.2836 72.8414 13.3031 72.859 13.3181C72.8765 13.3331 72.8979 13.3428 72.9208 13.3463C72.9436 13.3498 72.967 13.3467 72.9881 13.3375C73.0093 13.3284 73.0275 13.3134 73.0406 13.2944C73.0537 13.2754 73.0613 13.253 73.0623 13.23C73.0634 13.2069 73.058 13.184 73.0467 13.1639Z" fill="black"></path>
    <path d="M20.2078 9.73082V10.926C20.1923 11.0586 20.1776 11.1918 20.1622 11.3244C20.1468 11.457 20.1229 11.6056 20.1053 11.7456C19.7259 14.2991 18.5436 16.4002 16.5585 18.0492C14.9934 19.348 13.1795 20.0645 11.1614 20.2756L10.9907 20.3166H9.68169L9.28329 20.2728C9.0215 20.233 8.75858 20.2022 8.49849 20.1527C5.28006 19.538 2.90964 17.7675 1.3673 14.8871C0.696869 13.6351 0.36962 12.2822 0.276852 10.8691L0.273438 9.84464C0.314415 9.48784 0.339456 9.1281 0.399784 8.7747C0.916553 5.70937 2.52207 3.37537 5.16453 1.75905C6.54808 0.915025 8.06709 0.492732 9.67831 0.382321L10.7596 0.378906C11.0442 0.407363 11.3287 0.424437 11.6065 0.465983C13.9888 0.817135 16.0036 1.8723 17.6244 3.6531C19.1042 5.27967 19.9294 7.20503 20.1645 9.38763L20.2078 9.73082ZM1.18916 10.3438C1.12713 15.0766 4.97387 19.3878 10.223 19.3997C11.4124 19.4014 12.5904 19.1688 13.69 18.7152C14.7894 18.2616 15.7888 17.5959 16.631 16.756C17.4733 15.9162 18.1418 14.9187 18.5985 13.8205C19.0553 12.7223 19.2912 11.5448 19.2929 10.3555C19.2945 9.16606 19.062 7.98797 18.6083 6.88847C18.1547 5.78896 17.489 4.78957 16.6491 3.94735C15.8093 3.10513 14.8118 2.43657 13.7136 1.97986C12.6154 1.52314 11.4379 1.28721 10.2485 1.28553C5.00119 1.27813 1.12372 5.58928 1.18916 10.3438Z" fill="black"></path>
    <path d="M2.36721 10.3318C2.36977 8.77261 2.83553 7.24933 3.70536 5.95532C4.5752 4.66131 5.80988 3.65489 7.25269 3.06383C8.69552 2.47277 10.2814 2.3237 11.8091 2.63555C13.3368 2.9474 14.7374 3.70611 15.8331 4.81537C16.9289 5.92464 17.6703 7.33444 17.9634 8.86585C18.2564 10.3972 18.0879 11.9812 17.4791 13.4167C16.8704 14.8521 15.8489 16.0744 14.5443 16.9282C13.2398 17.7821 11.7109 18.2291 10.1518 18.2126C8.077 18.1915 6.09463 17.3514 4.63653 15.8753C3.17842 14.3992 2.36274 12.4066 2.36721 10.3318ZM6.87078 16.4084C6.93225 16.5598 7.04374 16.516 7.1348 16.458C7.11943 16.3442 7.14732 16.2189 7.1348 16.1073C7.11373 15.911 7.02495 15.6845 7.09154 15.524C7.21391 15.232 7.1661 15.0146 6.98796 14.829V13.4467L10.1603 16.6218L16.4412 10.3415L10.2343 4.13798L3.9915 10.3785L6.49567 12.8633V14.8091C6.40802 14.9759 6.29248 15.1774 6.34143 15.3213C6.43363 15.5946 6.36647 15.8398 6.34143 16.0977C6.33119 16.2012 6.32094 16.3048 6.31639 16.4084C6.31639 16.434 6.29875 16.4596 6.31639 16.5023L6.52412 16.4875C6.55656 16.352 6.56592 16.3755 6.57957 16.3192C6.58811 16.4017 6.59915 16.3094 6.62021 16.5023H6.79628L6.84708 16.3192L6.87078 16.4084Z" fill="black"></path>
    <path d="M10.2274 12.3572C9.82745 12.3572 9.43641 12.2385 9.10397 12.016C8.77148 11.7936 8.51253 11.4774 8.3599 11.1077C8.20726 10.738 8.16782 10.3313 8.24657 9.93912C8.32531 9.54686 8.5187 9.18695 8.80223 8.90474C9.08576 8.62257 9.44664 8.43092 9.83924 8.35405C10.2317 8.2772 10.6383 8.31859 11.0073 8.47299C11.3763 8.6274 11.6912 8.88786 11.9121 9.22136C12.1329 9.55493 12.2497 9.94649 12.2478 10.3465C12.2503 10.6121 12.1998 10.8755 12.099 11.1212C11.9982 11.3669 11.8494 11.59 11.6611 11.7774C11.4728 11.9647 11.249 12.1125 11.0028 12.2121C10.7566 12.3117 10.493 12.361 10.2274 12.3572Z" fill="black"></path>
  </g>
  <defs>
    <clipPath id="clip0_3551_4741">
      <rect width="117.026" height="19.9377" fill="white" transform="translate(0.269531 0.378906)"></rect>
    </clipPath>
  </defs>
</svg>
