<?xml version="1.0" encoding="UTF-8"?>
<svg xmlns="http://www.w3.org/2000/svg" width="141" height="25" viewBox="0 0 141 25" fill="none">
  <g clip-path="url(#clip0_3551_4556)">
    <path d="M33.301 16.2846C33.515 16.2889 33.7282 16.2565 33.9314 16.1888C34.1293 16.1373 34.317 16.0521 34.4864 15.9371C34.6418 15.8295 34.7762 15.6941 34.8829 15.5376C34.9867 15.3656 35.0404 15.1676 35.0376 14.9664C35.0421 14.7192 34.9746 14.4761 34.8433 14.2673C34.6937 14.0527 34.5148 13.8604 34.312 13.6961C34.0735 13.5193 33.8216 13.3617 33.5587 13.2246C33.2812 13.0728 32.9799 12.9251 32.6786 12.7772C32.3772 12.6294 32.0997 12.4536 31.7984 12.3059C31.5316 12.1445 31.2784 11.9614 31.0411 11.7586C30.8265 11.5656 30.6514 11.3322 30.5257 11.0715C30.39 10.8032 30.3207 10.5058 30.3235 10.2046C30.3157 9.8893 30.3752 9.57601 30.498 9.28584C30.629 9.00159 30.8182 8.74832 31.0531 8.54286C31.316 8.3269 31.6136 8.158 31.9332 8.0435C32.3175 7.91981 32.7192 7.86043 33.1226 7.86772C33.8074 7.83177 34.486 8.01494 35.0613 8.39103C35.5543 8.76288 35.919 9.28125 36.104 9.87311L35.3468 10.2207C35.2674 9.96677 35.1568 9.72386 35.0177 9.49761C34.8855 9.28514 34.724 9.09284 34.538 8.9263C34.3458 8.76662 34.1232 8.64828 33.8838 8.57875C33.6136 8.49778 33.3332 8.45608 33.0512 8.45495C32.8119 8.45388 32.5743 8.49584 32.3495 8.57875C32.1612 8.64119 31.9881 8.74334 31.842 8.87842C31.7232 8.99637 31.6216 9.13091 31.5407 9.2779C31.4727 9.42543 31.4388 9.5866 31.4416 9.74924C31.4419 9.97331 31.5126 10.1915 31.6438 10.3724C31.7964 10.5762 31.9829 10.7519 32.1949 10.8917C32.4464 11.0697 32.7115 11.2273 32.9878 11.3631C33.2891 11.5109 33.5666 11.6867 33.8679 11.8344C34.1695 11.986 34.4632 12.1526 34.7481 12.3338C35.0316 12.4955 35.2974 12.687 35.541 12.905C35.7609 13.1027 35.9424 13.3397 36.0763 13.6041C36.2085 13.8566 36.278 14.1376 36.2785 14.4231C36.2772 14.7558 36.2083 15.0848 36.0763 15.3898C35.9457 15.6968 35.7478 15.9699 35.4974 16.1888C35.2103 16.4315 34.8751 16.6099 34.5142 16.712C34.0739 16.8487 33.615 16.9148 33.1543 16.9078C32.7792 16.9126 32.4053 16.8628 32.0442 16.76C31.7406 16.6706 31.4519 16.5359 31.1878 16.3605C30.9439 16.1906 30.7307 15.9799 30.5575 15.7374C30.373 15.4762 30.2212 15.1931 30.1055 14.8944L30.8984 14.5708C31.0436 15.1015 31.3638 15.5665 31.8063 15.8891C32.2738 16.1383 32.7922 16.275 33.3208 16.2886L33.301 16.2846Z" fill="black"></path>
    <path d="M44.8167 8.02734V8.57462H41.6925V16.608H40.2295V8.57462H37.1094V8.02734H44.8167Z" fill="black"></path>
    <path d="M48.7192 7.85156L52.7751 16.6399H51.3121L50.0038 13.7638H46.273L44.9131 16.6399H44.1836L48.3386 7.85156H48.7192ZM46.5267 13.2085H49.6984L48.1364 9.80901L46.5267 13.2085Z" fill="black"></path>
    <path d="M53.3477 8.02734H54.1407L59.8101 14.303H59.8617V8.02734H60.4881V16.8357H60.159L54.0494 9.84095H53.998V16.632H53.3438L53.3477 8.02734Z" fill="black"></path>
    <path d="M62.4453 8.02533H65.3158C66.0869 8.00951 66.857 8.09274 67.6073 8.27301C68.189 8.41528 68.7312 8.68844 69.1932 9.07196C69.6534 9.46373 70.031 9.94456 70.3033 10.4861C70.558 11.0362 70.6867 11.6368 70.68 12.2437C70.6863 12.8315 70.5743 13.4145 70.3509 13.9575C70.1182 14.4769 69.7884 14.9461 69.3795 15.3397C68.9274 15.7449 68.4025 16.0594 67.8333 16.2665C67.1434 16.5053 66.4179 16.6229 65.6884 16.614H62.4453V8.02533ZM63.9043 15.9868H65.4426C65.9155 15.9915 66.385 15.9061 66.8263 15.7352C67.2535 15.5852 67.6413 15.3393 67.9602 15.0161C68.2939 14.6952 68.5526 14.3036 68.7175 13.8696C68.9062 13.3587 68.999 12.8168 68.991 12.2718C69.0017 11.7727 68.9168 11.2764 68.7412 10.8096C68.5719 10.387 68.3243 10.0006 68.0117 9.67113C67.6991 9.34484 67.3205 9.0901 66.9016 8.92411C66.4525 8.74442 65.9735 8.65224 65.4902 8.65247H63.9559V15.9828L63.9043 15.9868Z" fill="black"></path>
    <path d="M75.3243 7.85156L79.3802 16.6399H77.9211L76.6088 13.7638H72.9058L71.5459 16.6399H70.8164L74.9714 7.85156H75.3243ZM73.1596 13.2085H76.3312L74.7692 9.80901L73.1596 13.2085Z" fill="black"></path>
    <path d="M80.3085 8.02545H83.2826C83.742 8.01143 84.2013 8.07075 84.642 8.20122C85.0032 8.28478 85.3411 8.44705 85.6331 8.6766C85.8799 8.86649 86.0784 9.11299 86.2123 9.3956C86.3462 9.66934 86.4194 9.96932 86.4264 10.2745C86.4303 10.5315 86.3789 10.7864 86.2754 11.0215C86.1695 11.2511 86.0239 11.4605 85.8472 11.6407C85.6502 11.8441 85.4197 12.0116 85.1652 12.136C84.8966 12.2836 84.6085 12.3925 84.3095 12.4596L87.4572 16.6221H85.7678L82.7508 12.5914H81.7442V16.6301H80.2852V8.02545H80.3085ZM81.7714 12.168H82.6045C82.9097 12.1649 83.2133 12.1234 83.5084 12.0442C83.7778 11.9764 84.0285 11.848 84.2418 11.6686C84.4395 11.5165 84.6015 11.323 84.7175 11.1014C84.8436 10.8647 84.9051 10.5988 84.8958 10.3304C84.8934 10.0944 84.8506 9.86056 84.7689 9.63929C84.6731 9.43274 84.5384 9.24682 84.3726 9.09204C84.1982 8.92535 83.9934 8.79565 83.7684 8.71055C83.5434 8.62545 83.3044 8.58676 83.0646 8.59672H81.78L81.7559 12.168H81.7714Z" fill="black"></path>
    <path d="M88.3359 8.02533H91.2065C91.978 8.00951 92.748 8.09274 93.4986 8.27301C94.0794 8.41632 94.6212 8.68937 95.0837 9.07196C95.543 9.46388 95.9191 9.9448 96.19 10.4861C96.4516 11.0345 96.5871 11.6353 96.5863 12.2437C96.5918 12.8318 96.4781 13.4148 96.2539 13.9575C96.0265 14.4769 95.7019 14.9475 95.2978 15.3436C94.8377 15.7505 94.3028 16.0639 93.7243 16.2665C93.0353 16.5052 92.3113 16.6228 91.5833 16.614H88.364V8.02533H88.3359ZM89.795 15.9868H91.3334C91.8075 15.9916 92.2786 15.9062 92.7208 15.7352C93.1474 15.5833 93.5351 15.3377 93.8551 15.0161C94.1884 14.6894 94.4453 14.2924 94.608 13.8536C94.7987 13.343 94.8922 12.8011 94.8859 12.2557C94.893 11.7567 94.8073 11.2606 94.6321 10.7937C94.4647 10.37 94.2172 9.98326 93.9026 9.65517C93.5896 9.32888 93.2113 9.07414 92.7924 8.90815C92.3432 8.72846 91.8644 8.63628 91.3809 8.63651H89.851V15.9828L89.795 15.9868Z" fill="black"></path>
    <path d="M104.543 7.85156L108.599 16.6399H107.14L105.828 13.7638H102.124L100.765 16.6399H100.035L104.19 7.85156H104.543ZM102.378 13.2085H105.55L103.988 9.80901L102.378 13.2085Z" fill="black"></path>
    <path d="M109.555 8.02734H111.006V16.0608H115.367V16.608H109.555V8.02734Z" fill="black"></path>
    <path d="M116.392 8.02868H119.115C119.54 8.0176 119.965 8.07561 120.372 8.20045C120.742 8.29735 121.092 8.4582 121.407 8.67583C121.698 8.87748 121.935 9.14795 122.097 9.4635C122.259 9.77904 122.343 10.1299 122.339 10.4854C122.355 10.8415 122.267 11.1945 122.085 11.5001C121.93 11.792 121.705 12.0405 121.431 12.2232C121.153 12.4106 120.846 12.5509 120.523 12.6386C120.187 12.7387 119.839 12.7898 119.488 12.7903H119.008C118.834 12.7903 118.679 12.7624 118.532 12.7624C118.386 12.7624 118.227 12.7384 118.104 12.7145C118.002 12.7035 117.9 12.6862 117.799 12.6626V16.6293H116.34V8.02868H116.392ZM117.831 12.1672C118.002 12.2263 118.179 12.2678 118.358 12.2911C118.547 12.3421 118.742 12.3676 118.937 12.367C119.221 12.3688 119.504 12.3174 119.769 12.2152C119.983 12.1278 120.18 12.0019 120.349 11.8436C120.507 11.6842 120.628 11.4901 120.701 11.2764C120.781 11.0532 120.824 10.8184 120.828 10.5813C120.833 10.3074 120.782 10.0354 120.677 9.78239C120.588 9.55832 120.453 9.35567 120.281 9.18711C120.11 9.01808 119.903 8.89094 119.674 8.81566C119.433 8.7227 119.175 8.6805 118.917 8.69179H117.886V12.1632L117.831 12.1672Z" fill="black"></path>
    <path d="M124.658 12.5174V16.632H123.223V8.02734H124.686V11.9462H129.015V8.02734H130.478V16.608H129.015V12.4934H124.654L124.658 12.5174Z" fill="black"></path>
    <path d="M136.095 7.85156L140.15 16.6399H138.687L137.378 13.7638H133.676L132.316 16.6399H131.582L135.737 7.85156H136.095ZM133.901 13.2085H137.073L135.511 9.80901L133.901 13.2085Z" fill="black"></path>
    <path d="M11.9932 1.08594C9.77724 1.08594 7.61103 1.74803 5.76852 2.98849C3.92601 4.22895 2.48994 5.99206 1.64193 8.05488C0.793917 10.1177 0.572038 12.3876 1.00435 14.5774C1.43667 16.7673 2.50375 18.7788 4.07068 20.3576C5.6376 21.9364 7.63399 23.0116 9.80736 23.4472C11.9808 23.8828 14.2335 23.6592 16.2808 22.8048C18.3281 21.9503 20.0779 20.5034 21.3091 18.6469C22.5402 16.7905 23.1973 14.6078 23.1973 12.375C23.1973 9.381 22.0169 6.50955 19.9157 4.39243C17.8145 2.27532 14.9647 1.08594 11.9932 1.08594ZM11.1448 6.97017V8.34434C10.9688 8.06295 10.7713 7.79583 10.554 7.5454C10.2923 7.26577 9.97125 6.97017 9.97125 6.97017H11.1448ZM4.75373 17.692V16.3178C4.92884 16.5998 5.1264 16.867 5.34446 17.1168C5.60613 17.3964 5.9233 17.688 5.9233 17.688L4.75373 17.692ZM7.32283 13.0701C6.52989 12.5747 4.74976 11.8517 4.74976 9.81442C4.75424 9.04661 4.9682 8.2948 5.36825 7.64128C5.36825 7.64128 4.89249 9.82641 7.8422 11.2006C9.42805 11.9396 11.1329 12.8864 11.1329 14.9916C11.1329 16.0142 10.1456 17.0888 10.1456 17.0888C10.1899 16.6642 10.2124 16.2374 10.2131 15.8105C10.1576 14.668 9.38048 14.4283 7.32283 13.0701ZM11.0972 17.692L11.6879 16.3178C11.6879 16.3178 11.9298 16.6134 12.2866 17.0009C12.5483 17.2925 12.9724 17.692 12.9724 17.692H11.0972ZM17.6151 17.7798L14.483 8.82371L15.276 6.97017L19.2406 17.7798H17.6151Z" fill="black"></path>
  </g>
  <defs>
    <clipPath id="clip0_3551_4556">
      <rect width="140.14" height="23.3567" fill="white" transform="translate(0.710938 0.695312)"></rect>
    </clipPath>
  </defs>
</svg>
