<?xml version="1.0" encoding="UTF-8"?>
<svg xmlns="http://www.w3.org/2000/svg" width="68" height="27" viewBox="0 0 68 27" fill="none">
  <g clip-path="url(#clip0_3551_3902)">
    <mask id="mask0_3551_3902" style="mask-type:alpha" maskUnits="userSpaceOnUse" x="0" y="12" width="17" height="15">
      <path d="M16.6927 26.6117H0.117188V12.75H16.6927V26.6117Z" fill="white"></path>
    </mask>
    <g mask="url(#mask0_3551_3902)">
      <path fill-rule="evenodd" clip-rule="evenodd" d="M12.9898 26.2206L1.9095 18.9593C1.9095 18.9593 0.519738 18.1553 0.201543 16.657C-0.245201 14.5534 1.228 12.75 1.228 12.75L15.6086 22.1772C16.7179 22.9051 17.0208 24.3939 16.3077 25.5169C15.5752 26.6705 14.0699 26.925 12.9898 26.2206Z" fill="#38D200"></path>
    </g>
    <mask id="mask1_3551_3902" style="mask-type:alpha" maskUnits="userSpaceOnUse" x="0" y="0" width="17" height="20">
      <path d="M16.7083 19.7927H0.792969V0H16.7083V19.7927Z" fill="white"></path>
    </mask>
    <g mask="url(#mask1_3551_3902)">
      <path fill-rule="evenodd" clip-rule="evenodd" d="M2.4903 11.1955C2.4903 11.1955 0.792969 10.1638 0.792969 7.77784C0.792969 5.39977 2.48962 4.38125 2.48962 4.38125L8.54721 0.39021C9.65749 -0.336235 11.1425 -0.019142 11.8642 1.09838C12.5859 2.2159 12.2709 3.71074 11.1606 4.43719L6.05519 7.78374L14.7542 13.4864C14.7542 13.4864 16.32 14.3897 16.6286 15.9139C17.0591 18.0406 15.6049 19.7927 15.6049 19.7927L2.4903 11.1955Z" fill="#0473EA"></path>
    </g>
    <path fill-rule="evenodd" clip-rule="evenodd" d="M13.9 5.40625C13.3311 5.40636 12.9264 5.58684 12.5315 5.84559L9.57422 7.78436L12.5315 9.72303C12.9302 9.98147 13.3486 10.1624 13.9 10.1624C15.2048 10.1624 16.2625 9.09773 16.2625 7.78434C16.2625 6.47095 15.2048 5.40598 13.9 5.40625Z" fill="#38D200"></path>
    <path fill-rule="evenodd" clip-rule="evenodd" d="M2.46406 26.6077C3.03293 26.6076 3.43768 26.4271 3.83251 26.1684L6.78983 24.2296L3.83251 22.2909C3.43384 22.0325 3.01547 21.8516 2.46406 21.8516C1.15928 21.8516 0.101562 22.9163 0.101562 24.2296C0.101562 25.543 1.15928 26.608 2.46406 26.6077Z" fill="#0473EA"></path>
    <path fill-rule="evenodd" clip-rule="evenodd" d="M64.8363 13.5316L65.7054 14.066V20.4573H64.8363V19.5544C64.4123 20.1839 63.734 20.568 62.9178 20.568C61.3914 20.568 60.2997 19.4263 60.2997 17.8686C60.2997 16.2788 61.3914 15.1158 62.9178 15.1158C63.734 15.1158 64.4123 15.5107 64.8363 16.1508V13.5316ZM42.6864 13.5292L43.545 14.0633V18.7091C43.545 19.4453 43.9901 19.7334 44.552 19.7334C44.976 19.7334 45.3999 19.616 45.7709 19.3493V20.1922C45.4106 20.459 44.9123 20.5656 44.4777 20.5656C43.3648 20.5656 42.6864 20.0641 42.6864 18.6451V13.5292ZM57.2232 15.1016C58.7283 15.1016 59.714 16.2218 59.714 17.7263C59.714 17.8756 59.7034 18.025 59.6823 18.1637H55.559C55.6862 19.1133 56.4282 19.7428 57.4669 19.7428C58.1347 19.7428 58.7813 19.5508 59.3325 19.156V19.9882C58.7707 20.3723 58.1347 20.5537 57.4669 20.5537C55.824 20.5537 54.6475 19.4867 54.6475 17.8756C54.6475 16.2965 55.6438 15.1016 57.2231 15.1016H57.2232ZM35.1551 15.1015C35.9713 15.1015 36.639 15.4857 37.0736 16.1152V15.1976H37.9427V20.4577H37.0736V19.5614C36.639 20.1803 35.9713 20.5537 35.1551 20.5537C33.6287 20.5537 32.537 19.412 32.537 17.8543C32.537 16.2645 33.6287 15.1016 35.1551 15.1016V15.1015ZM24.3753 15.1015C25.0006 15.1015 25.5836 15.283 26.0501 15.635V16.606C25.6366 16.1579 25.0643 15.9231 24.4282 15.9231C23.3153 15.9231 22.5309 16.702 22.5309 17.8223C22.5309 18.9426 23.326 19.7321 24.439 19.7321C25.0643 19.7321 25.6473 19.5614 26.103 19.1667V20.0522C25.5942 20.4043 24.9901 20.5537 24.3541 20.5537C22.7536 20.5537 21.6406 19.4334 21.6406 17.8223C21.6406 16.2219 22.7853 15.1015 24.3753 15.1015ZM48.3832 15.1016C49.8883 15.1016 50.874 16.2218 50.874 17.7263C50.874 17.8756 50.8634 18.025 50.8423 18.1637H46.719C46.8462 19.1133 47.5882 19.7428 48.627 19.7428C49.2947 19.7428 49.9413 19.5508 50.4925 19.156V19.9882C49.9307 20.3723 49.2947 20.5537 48.627 20.5537C46.984 20.5537 45.8075 19.4867 45.8075 17.8756C45.8075 16.2965 46.8038 15.1016 48.3832 15.1016ZM27.0569 13.5302L27.9155 14.0644L27.9155 16.0938C28.3077 15.4857 28.9331 15.1015 29.728 15.1015C31.0424 15.1015 31.742 16.0725 31.742 17.3635V20.4577H30.8728V17.5129C30.8728 16.4886 30.4276 15.9445 29.5161 15.9445C28.5515 15.9445 27.9155 16.7767 27.9155 17.8223V20.4577H27.0569V13.5302ZM42.0447 15.1015V16.0938C41.006 15.9445 40.1368 16.6487 40.1368 17.9503V20.4577H39.2782V15.1976H40.1368V16.3179C40.5501 15.539 41.2179 15.1015 42.0447 15.1015ZM54.5838 15.1015V16.0938C53.5451 15.9445 52.6759 16.6487 52.6759 17.9503V20.4577H51.8173V15.1976H52.6759V16.3179C53.0892 15.539 53.757 15.1015 54.5838 15.1015ZM63.0026 15.9374C61.9426 15.9374 61.19 16.7483 61.19 17.8579C61.19 18.9462 61.9426 19.7464 63.0026 19.7464C64.0732 19.7464 64.8363 18.9462 64.8363 17.8579C64.8363 16.7483 64.0732 15.9374 63.0026 15.9374ZM35.2399 15.9231C34.18 15.9231 33.4273 16.734 33.4273 17.8436C33.4273 18.9319 34.18 19.7321 35.2399 19.7321C36.3105 19.7321 37.0736 18.9319 37.0736 17.8436C37.0736 16.734 36.3105 15.9231 35.2399 15.9231ZM48.3937 15.9018C47.4399 15.9018 46.8674 16.574 46.7297 17.4595H49.9625C49.8777 16.5633 49.3159 15.9018 48.3937 15.9018ZM57.2337 15.9018C56.2799 15.9018 55.7074 16.574 55.5696 17.4595H58.8026C58.7177 16.5633 58.1559 15.9018 57.2337 15.9018ZM44.212 15.1226C44.4324 14.9816 44.7147 14.9841 44.9328 15.129L45.7976 15.7082L44.9437 16.2595C44.7261 16.4 44.4472 16.4003 44.2293 16.2604L44.211 16.2487C43.8019 15.986 43.8024 15.3845 44.2119 15.1226L44.212 15.1226ZM32.1024 7.40956C32.9186 7.40956 33.5864 7.79366 34.0209 8.4232V7.50558H34.8901V12.7657H34.0209V11.8694C33.5864 12.4883 32.9186 12.8617 32.1024 12.8617C30.576 12.8617 29.4843 11.7201 29.4843 10.1623C29.4843 8.57255 30.576 7.40956 32.1024 7.40956ZM26.9935 5.82031V11.0052C26.9935 11.7414 27.4386 12.0295 28.0004 12.0295C28.4245 12.0295 28.8484 11.9121 29.2194 11.6454V12.4883C28.8591 12.755 28.3608 12.8617 27.9262 12.8617C26.8133 12.8617 26.1349 12.3602 26.1349 10.9412V6.35502L26.9935 5.82031ZM63.0109 5.82068V12.7657H62.1418V11.8481C61.7179 12.4776 61.0395 12.8617 60.2233 12.8617C58.6969 12.8617 57.6052 11.7201 57.6052 10.1623C57.6052 8.57255 58.6969 7.40956 60.2233 7.40956C61.0395 7.40956 61.7179 7.80438 62.1418 8.44454V6.35474L63.0109 5.82068ZM50.6623 7.40956C51.4785 7.40956 52.1462 7.79366 52.5808 8.4232V7.50558H53.4499V12.7657H52.5808V11.8694C52.1462 12.4883 51.4785 12.8617 50.6623 12.8617C49.1359 12.8617 48.0442 11.7201 48.0442 10.1623C48.0442 8.57255 49.1359 7.40956 50.6623 7.40956ZM23.5168 7.40956C24.1315 7.40956 24.7039 7.58028 25.1066 7.88972V8.79659C24.6297 8.36985 24.0467 8.12447 23.5273 8.12447C22.9761 8.12447 22.5839 8.3805 22.5839 8.80731C22.5839 9.12738 22.7323 9.31945 23.1458 9.47945L24.386 9.98095C25.0536 10.269 25.3611 10.6745 25.3611 11.2399C25.3611 12.2429 24.5555 12.8617 23.4214 12.8617C22.7323 12.8617 22.1069 12.6697 21.6512 12.3282V11.3893C22.2024 11.9121 22.8171 12.1469 23.432 12.1469C24.0467 12.1469 24.4919 11.8801 24.4919 11.4C24.4919 11.1119 24.3435 10.8878 23.9514 10.7278L22.7112 10.2263C22.0752 9.94896 21.7255 9.58619 21.7255 8.90334C21.7255 7.98575 22.4568 7.40956 23.5168 7.40956ZM47.1114 5.82068V12.7657H46.2422V11.8481C45.8183 12.4776 45.1399 12.8617 44.3237 12.8617C42.7973 12.8617 41.7056 11.7201 41.7056 10.1623C41.7056 8.57255 42.7973 7.40956 44.3237 7.40956C45.1399 7.40956 45.8183 7.80438 46.2422 8.44454V6.35474L47.1114 5.82068ZM57.5519 7.40955V8.40183C56.5132 8.25248 55.644 8.95668 55.644 10.2583V12.7657H54.7854V7.50558H55.644V8.62589C56.0573 7.84701 56.7251 7.40955 57.5519 7.40955ZM38.8966 7.40955C40.211 7.40955 40.9106 8.38049 40.9106 9.67152V12.7657H40.0414V9.82087C40.0414 8.79661 39.5963 8.25248 38.6847 8.25248C37.7201 8.25248 37.0841 9.08469 37.0841 10.1303V12.7657H36.2255V7.50558H37.0841V8.40183C37.4763 7.79366 38.1017 7.40955 38.8966 7.40955ZM32.1872 8.23112C31.1273 8.23112 30.3746 9.04201 30.3746 10.1517C30.3746 11.2399 31.1273 12.0401 32.1872 12.0401C33.2578 12.0401 34.0209 11.2399 34.0209 10.1517C34.0209 9.04201 33.2578 8.23112 32.1872 8.23112ZM44.4085 8.23112C43.3486 8.23112 42.596 9.04201 42.596 10.1517C42.596 11.2399 43.3486 12.0401 44.4085 12.0401C45.4791 12.0401 46.2422 11.2399 46.2422 10.1517C46.2422 9.04201 45.4791 8.23112 44.4085 8.23112ZM60.3081 8.23112C59.2481 8.23112 58.4955 9.04201 58.4955 10.1517C58.4955 11.2399 59.2481 12.0401 60.3081 12.0401C61.3787 12.0401 62.1418 11.2399 62.1418 10.1517C62.1418 9.04201 61.3787 8.23112 60.3081 8.23112ZM50.7471 8.23112C49.6871 8.23112 48.9345 9.04201 48.9345 10.1517C48.9345 11.2399 49.6871 12.0401 50.7471 12.0401C51.8177 12.0401 52.5808 11.2399 52.5808 10.1517C52.5808 9.04201 51.8177 8.23112 50.7471 8.23112ZM28.1902 7.49604C28.4075 7.35507 28.6864 7.35402 28.9046 7.49343L28.923 7.50513C29.3327 7.76676 29.3336 8.36828 28.9247 8.63116C28.7045 8.77273 28.4222 8.77091 28.2039 8.62656L27.3377 8.04933L28.1902 7.49604Z" fill="#2C2C2C"></path>
  </g>
  <defs>
    <clipPath id="clip0_3551_3902">
      <rect width="67.3649" height="26.6133" fill="white" transform="translate(0.0976562)"></rect>
    </clipPath>
  </defs>
</svg>
