<?xml version="1.0" encoding="UTF-8"?>
<svg xmlns="http://www.w3.org/2000/svg" width="89" height="28" viewBox="0 0 89 28" fill="none">
  <path d="M53.6406 26.3104V23.6594H53.9015L53.9276 23.8742H53.9398C54.0245 23.8017 54.1177 23.7399 54.2174 23.6901C54.315 23.6392 54.4235 23.6129 54.5335 23.6134C54.6436 23.6115 54.7527 23.6345 54.8526 23.6809C54.944 23.7248 55.0231 23.7907 55.0828 23.8727C55.1473 23.963 55.1946 24.0643 55.2224 24.1718C55.2558 24.3 55.2718 24.4321 55.2699 24.5646C55.2721 24.7083 55.2504 24.8514 55.2054 24.988C55.1664 25.1032 55.1067 25.2103 55.029 25.304C54.9589 25.3882 54.8708 25.4558 54.7713 25.502C54.6751 25.5465 54.5705 25.5695 54.4645 25.5694C54.3749 25.5686 54.2865 25.5487 54.2052 25.5111C54.1138 25.4699 54.0274 25.4184 53.9474 25.3578L53.9551 25.683V26.3104H53.6406ZM54.4077 25.3056C54.4819 25.3061 54.555 25.2887 54.6209 25.2549C54.6878 25.2168 54.7454 25.1644 54.7897 25.1015C54.8407 25.0314 54.8781 24.9522 54.9002 24.8684C54.9288 24.7686 54.9427 24.6652 54.9416 24.5615C54.9425 24.4672 54.9331 24.373 54.914 24.2808C54.8991 24.2039 54.87 24.1305 54.828 24.0644C54.7899 24.0054 54.737 23.9573 54.6747 23.9249C54.6054 23.8897 54.5284 23.8723 54.4506 23.8742C54.3662 23.8761 54.2835 23.8987 54.2098 23.9402C54.1171 23.9927 54.0307 24.0554 53.9521 24.1273V25.1062C54.0245 25.171 54.1076 25.2229 54.1976 25.2595C54.2654 25.287 54.3377 25.3021 54.4108 25.304L54.4077 25.3056Z" fill="black"></path>
  <path d="M56.5889 25.5702C56.4761 25.5709 56.3643 25.5484 56.2605 25.5042C56.1573 25.4613 56.0641 25.3969 55.9874 25.3155C55.9047 25.2265 55.8401 25.1223 55.7972 25.0087C55.703 24.7406 55.703 24.4484 55.7972 24.1803C55.8405 24.0668 55.905 23.9627 55.9874 23.8735C56.064 23.7911 56.1571 23.7257 56.2605 23.6817C56.4709 23.5957 56.7067 23.5957 56.9171 23.6817C57.0208 23.7261 57.1143 23.7914 57.1918 23.8735C57.2737 23.9627 57.3377 24.0669 57.3805 24.1803C57.4764 24.4481 57.4764 24.7409 57.3805 25.0087C57.3381 25.1222 57.274 25.2265 57.1918 25.3155C57.1142 25.3966 57.0206 25.4609 56.9171 25.5042C56.8134 25.5484 56.7016 25.5709 56.5889 25.5702ZM56.5889 25.3094C56.6651 25.3105 56.7406 25.2925 56.8082 25.2572C56.8753 25.2222 56.9336 25.1724 56.9785 25.1115C57.0281 25.044 57.065 24.9681 57.0874 24.8875C57.1143 24.7927 57.1272 24.6946 57.1258 24.5961C57.1272 24.497 57.1143 24.3983 57.0874 24.303C57.0652 24.2209 57.0283 24.1434 56.9785 24.0744C56.9348 24.0105 56.8763 23.9578 56.8082 23.921C56.7406 23.8857 56.6651 23.8678 56.5889 23.8688C56.513 23.868 56.4382 23.8859 56.3709 23.921C56.302 23.9573 56.243 24.01 56.1992 24.0744C56.1499 24.1438 56.113 24.221 56.0902 24.303C56.0634 24.3983 56.0504 24.497 56.0519 24.5961C56.0504 24.6946 56.0634 24.7927 56.0902 24.8875C56.1133 24.9679 56.1502 25.0437 56.1992 25.1115C56.2442 25.1728 56.3031 25.2228 56.3709 25.2572C56.4382 25.2923 56.513 25.3102 56.5889 25.3094Z" fill="black"></path>
  <path d="M58.3349 25.5241L57.8164 23.6602H58.1385L58.4146 24.734C58.4346 24.8246 58.4546 24.9105 58.473 24.9949C58.4914 25.0792 58.5083 25.1651 58.5267 25.2526H58.542C58.562 25.1651 58.5819 25.0792 58.6033 24.9933C58.6249 24.9074 58.6448 24.8215 58.6678 24.734L58.9562 23.6602H59.2631L59.5545 24.734L59.6206 24.9949C59.6435 25.0792 59.6635 25.1651 59.6849 25.2526H59.7003C59.7203 25.1651 59.7387 25.0792 59.7571 24.9949C59.7755 24.9105 59.7939 24.8246 59.8154 24.734L60.087 23.6602H60.3861L59.8874 25.5241H59.5039L59.2355 24.5224C59.2125 24.4334 59.191 24.3444 59.1726 24.2585C59.1542 24.1725 59.1326 24.0805 59.1097 23.9854H59.0943C59.0729 24.0805 59.0529 24.1725 59.0329 24.26C59.013 24.3474 58.9884 24.4379 58.9639 24.5269L58.7031 25.5241H58.3349Z" fill="black"></path>
  <path d="M61.6437 25.5695C61.5233 25.5701 61.4039 25.5472 61.2924 25.5019C61.1855 25.4582 61.0889 25.393 61.0085 25.3102C60.9253 25.2218 60.8611 25.1175 60.8198 25.0034C60.7267 24.7371 60.7267 24.4473 60.8198 24.181C60.8625 24.0679 60.926 23.9638 61.007 23.8742C61.0819 23.7923 61.1727 23.7265 61.274 23.6809C61.3705 23.6374 61.4749 23.6144 61.5808 23.6134C61.6893 23.6112 61.797 23.6322 61.8968 23.6748C61.991 23.7138 62.074 23.776 62.1376 23.8558C62.2031 23.9377 62.252 24.0315 62.2819 24.1319C62.3171 24.2488 62.3341 24.3704 62.3325 24.4925C62.3325 24.5247 62.3325 24.5584 62.3325 24.5906C62.3314 24.6179 62.3283 24.6451 62.3233 24.6719H61.0637C61.0668 24.8471 61.1327 25.0154 61.2494 25.146C61.3056 25.2042 61.3735 25.2498 61.4486 25.2799C61.5236 25.3101 61.6042 25.324 61.6851 25.3209C61.7691 25.3215 61.8526 25.308 61.9321 25.281C62.0082 25.2532 62.0811 25.2178 62.1499 25.1751L62.2604 25.3822C62.1743 25.4353 62.0834 25.4799 61.9888 25.5157C61.8781 25.5548 61.7611 25.573 61.6437 25.5695ZM61.0637 24.4419H62.061C62.0712 24.2885 62.0285 24.1362 61.9398 24.0107C61.8993 23.9604 61.8475 23.9202 61.7886 23.8935C61.7296 23.8668 61.6653 23.8544 61.6007 23.8573C61.5354 23.8574 61.4707 23.8704 61.4105 23.8957C61.3494 23.9225 61.2941 23.9611 61.2479 24.0092C61.197 24.0624 61.1559 24.1242 61.1266 24.1918C61.0919 24.271 61.0707 24.3556 61.0637 24.4419Z" fill="black"></path>
  <path d="M62.8867 25.5234V23.6594H63.1476L63.1752 23.9969H63.1859C63.2424 23.8881 63.3213 23.7924 63.4176 23.7162C63.5024 23.6495 63.6073 23.6132 63.7152 23.6134C63.7836 23.612 63.8516 23.6251 63.9146 23.6517L63.8533 23.9279C63.7959 23.9065 63.735 23.8962 63.6738 23.8972C63.5829 23.9015 63.4958 23.9348 63.4253 23.9923C63.3222 24.0819 63.2448 24.1973 63.2012 24.3268V25.5234H62.8867Z" fill="black"></path>
  <path d="M65.0655 25.5695C64.9456 25.5699 64.8268 25.547 64.7157 25.5019C64.6087 25.4586 64.512 25.3933 64.4319 25.3102C64.3477 25.2224 64.2828 25.1178 64.2416 25.0034C64.1486 24.7371 64.1486 24.4473 64.2416 24.181C64.2849 24.0678 64.3489 23.9637 64.4303 23.8742C64.5047 23.7923 64.5951 23.7265 64.6958 23.6809C64.7923 23.6374 64.8967 23.6144 65.0026 23.6134C65.1111 23.6112 65.2188 23.6322 65.3186 23.6748C65.41 23.7137 65.4906 23.7742 65.5534 23.8512C65.6189 23.9328 65.6674 24.0267 65.696 24.1274C65.7312 24.2443 65.7483 24.3658 65.7467 24.4878C65.7467 24.52 65.7467 24.5538 65.7467 24.5861C65.7458 24.6134 65.7423 24.6407 65.736 24.6674H64.4779C64.4815 24.8427 64.5479 25.0109 64.6651 25.1414C64.721 25.1995 64.7887 25.2451 64.8635 25.2753C64.9383 25.3054 65.0187 25.3194 65.0993 25.3163C65.1838 25.3171 65.2677 25.3036 65.3478 25.2764C65.4233 25.2487 65.4958 25.2131 65.5641 25.1706L65.6745 25.3777C65.5885 25.4307 65.4975 25.4754 65.403 25.5112C65.295 25.5509 65.1807 25.5707 65.0655 25.5695ZM64.4795 24.4419H65.4767C65.4886 24.288 65.4463 24.135 65.357 24.0092C65.3166 23.9587 65.2648 23.9184 65.2059 23.8918C65.147 23.8651 65.0826 23.8528 65.018 23.8558C64.9527 23.8561 64.888 23.8691 64.8277 23.8942C64.7668 23.9214 64.7117 23.9599 64.6651 24.0077C64.6142 24.0609 64.5732 24.1227 64.5439 24.1903C64.5093 24.2702 64.4875 24.3551 64.4795 24.4419Z" fill="black"></path>
  <path d="M66.9499 25.5674C66.8428 25.5716 66.7363 25.551 66.6385 25.5071C66.5408 25.4631 66.4546 25.3971 66.3868 25.3142C66.2351 25.1057 66.1613 24.8505 66.1781 24.5932C66.1763 24.4542 66.1992 24.3161 66.2457 24.1851C66.2855 24.0727 66.3459 23.9687 66.4236 23.8782C66.4949 23.7959 66.5827 23.7295 66.6813 23.6834C66.7772 23.6377 66.882 23.6141 66.9882 23.6144C67.0844 23.6119 67.1799 23.6313 67.2674 23.6711C67.3533 23.7129 67.4341 23.7643 67.5083 23.8246L67.4945 23.5055V22.7891H67.8151V25.5198H67.5543L67.5283 25.3004H67.5083C67.4323 25.3741 67.3466 25.4371 67.2536 25.4876C67.1606 25.539 67.0562 25.5665 66.9499 25.5674ZM67.0189 25.302C67.1048 25.3026 67.1894 25.2809 67.2644 25.2391C67.3515 25.1882 67.4294 25.1229 67.4945 25.0458V24.0716C67.4277 24.0075 67.3505 23.9556 67.2659 23.9182C67.1942 23.8892 67.1177 23.8741 67.0403 23.8737C66.9676 23.8743 66.8961 23.8922 66.8317 23.9258C66.7648 23.9643 66.7067 24.0167 66.6614 24.0792C66.6102 24.1465 66.5712 24.2224 66.5464 24.3032C66.5172 24.3976 66.5027 24.4959 66.5034 24.5947C66.4931 24.7798 66.5403 24.9637 66.6384 25.121C66.6814 25.1807 66.7389 25.2286 66.8054 25.2603C66.8719 25.292 66.9453 25.3063 67.0189 25.302Z" fill="black"></path>
  <path d="M70.3512 25.5658C70.2578 25.5639 70.1658 25.5425 70.0812 25.5029C69.9853 25.4584 69.8968 25.3995 69.8189 25.3281H69.8066L69.7805 25.5198H69.5273V22.7891H69.8418V23.5331L69.8342 23.8706C69.9177 23.7969 70.0106 23.7346 70.1103 23.685C70.2051 23.6358 70.3103 23.6101 70.4172 23.6098C70.5268 23.6079 70.6354 23.6309 70.7347 23.6773C70.8266 23.7217 70.9066 23.7874 70.9679 23.8691C71.0337 23.9589 71.0815 24.0604 71.1091 24.1682C71.1423 24.2948 71.1583 24.4254 71.1566 24.5564C71.1588 24.7011 71.137 24.8452 71.0922 24.9829C71.0538 25.0988 70.9939 25.2066 70.9157 25.3004C70.8469 25.3834 70.7606 25.4501 70.663 25.496C70.5654 25.5418 70.459 25.5657 70.3512 25.5658ZM70.2975 25.3004C70.3716 25.301 70.4448 25.2836 70.5108 25.2498C70.5779 25.2121 70.6356 25.1596 70.6795 25.0964C70.7303 25.0259 70.7682 24.9469 70.7915 24.8632C70.8188 24.7632 70.8321 24.66 70.8314 24.5564C70.8322 24.4621 70.823 24.368 70.8038 24.2756C70.7896 24.1986 70.7604 24.1251 70.7179 24.0593C70.6796 24.0003 70.6268 23.9522 70.5644 23.9197C70.4952 23.8842 70.4182 23.8667 70.3405 23.8691C70.1486 23.8884 69.9708 23.9787 69.8418 24.1222V25.101C69.913 25.1667 69.9957 25.2187 70.0858 25.2544C70.1531 25.282 70.2247 25.2976 70.2975 25.3004Z" fill="black"></path>
  <path d="M71.7779 26.325C71.7379 26.3251 71.6979 26.3221 71.6582 26.3157C71.624 26.31 71.5905 26.3002 71.5585 26.2866L71.62 26.0381L71.689 26.0549C71.7131 26.0608 71.7378 26.0639 71.7626 26.0641C71.8119 26.0658 71.861 26.0567 71.9063 26.0374C71.9516 26.018 71.9922 25.9889 72.0249 25.9521C72.0951 25.8679 72.1473 25.7703 72.1784 25.6653L72.2198 25.5272L71.4727 23.6602H71.804L72.1845 24.6911C72.2121 24.774 72.2428 24.8598 72.275 24.9504C72.3072 25.0409 72.3364 25.1298 72.364 25.2173H72.3794C72.4085 25.133 72.4346 25.044 72.4607 24.9519C72.4868 24.8598 72.5113 24.774 72.5374 24.6911L72.8703 23.6602H73.1771L72.476 25.6775C72.4445 25.7653 72.407 25.851 72.364 25.9337C72.3268 26.0096 72.2775 26.079 72.2182 26.1394C72.1636 26.1966 72.0985 26.2429 72.0265 26.2759C71.9484 26.3107 71.8634 26.3274 71.7779 26.325Z" fill="black"></path>
  <path d="M78.8405 10.4321C81.2399 9.05134 81.4685 7.05694 81.7799 5.28653C81.9671 4.21263 82.0453 3.79688 82.0453 3.79688H86.298C86.298 3.79688 86.0954 4.93675 85.9083 6.00912C85.6015 7.78566 85.6474 9.07742 83.3232 10.4321L79.9926 12.3513C77.5932 13.7321 77.3647 15.7265 77.0547 17.4968C76.8676 18.5707 76.7893 18.9849 76.7893 18.9849H72.5352C72.5352 18.9849 72.7376 17.8451 72.9248 16.7727C73.2316 14.9962 73.1856 13.7044 75.5099 12.3513L78.8405 10.4321Z" fill="#00D37E"></path>
  <path d="M47.1544 6.77439H50.8978V18.9893H47.1544V6.77439ZM46.8047 3.49132C46.8047 2.35298 47.7021 1.45703 49.0369 1.45703C50.3715 1.45703 51.2445 2.35298 51.2445 3.49132C51.2445 4.60664 50.347 5.50412 49.0338 5.50412C47.7205 5.50412 46.8047 4.60664 46.8047 3.49132Z" fill="black"></path>
  <path d="M20.7274 15.8154H19.4403C18.6088 15.8154 18.3019 15.5086 18.3019 14.786V9.87671H20.1798L20.7274 6.76853H18.3019V3.79688H14.5586V14.743C14.5586 17.9172 16.3321 18.9896 18.8712 18.9896H20.1675L20.7274 15.8154Z" fill="black"></path>
  <path d="M59.7821 15.8154H58.495C57.6634 15.8154 57.3566 15.5086 57.3566 14.786V9.87671H59.2345L59.7821 6.76853H57.3566V3.79688H53.6133V14.743C53.6133 17.9172 55.3868 18.9896 57.9258 18.9896H59.2237L59.7821 15.8154Z" fill="black"></path>
  <path d="M31.2019 6.77452H30.5331C29.7766 6.75771 29.0287 6.93623 28.3614 7.29285C27.6941 7.64947 27.1301 8.17212 26.7237 8.81034V6.77452H22.9805V18.9894H26.7237V13.3131C26.7237 11.2128 27.7532 10.5991 29.5267 10.5991H30.5331L31.2019 6.77452Z" fill="black"></path>
  <path d="M36.9301 6.59766C38.7481 6.59766 40.0383 7.42916 40.6964 8.50153V6.77255H44.4398V18.9874H40.6964V17.257C40.0168 18.3308 38.725 19.1808 36.9086 19.1808C33.9308 19.1808 31.5391 16.7093 31.5391 12.857C31.5391 9.00473 33.9308 6.59766 36.9301 6.59766ZM38.0255 9.85925C36.6247 9.85925 35.3545 10.9102 35.3545 12.8585C35.3545 14.8069 36.6247 15.9007 38.0255 15.9007C39.4261 15.9007 40.6964 14.8268 40.6964 12.88C40.6964 10.9331 39.4477 9.85925 38.0255 9.85925Z" fill="black"></path>
  <path d="M3.33542 15.3227C5.5584 16.3367 9.09309 16.7831 9.16519 15.4009C9.26184 13.431 2.50391 14.8532 2.50391 10.3612C2.50391 8.27937 4.27892 6.57033 7.47916 6.57033C9.1369 6.56786 10.7812 6.8673 12.3316 7.454L11.8162 10.3873C9.87243 9.58493 8.2401 9.35328 7.36716 9.35328C6.49423 9.35328 6.00791 9.70306 6.00791 10.2952C6.00791 12.0242 12.6263 10.8644 12.6922 15.4239C12.6922 17.5487 10.8083 19.1488 7.73996 19.1488C6.05851 19.2058 4.38441 18.9013 2.83069 18.2559L3.33542 15.3227Z" fill="black"></path>
  <path d="M62.0815 15.3227C64.303 16.3367 67.8377 16.7831 67.9113 15.4009C68.008 13.431 61.25 14.8532 61.25 10.3612C61.25 8.27936 63.025 6.57033 66.2237 6.57033C67.882 6.56802 69.5268 6.86745 71.0778 7.454L70.5593 10.3873C68.6247 9.58339 66.9909 9.35327 66.1103 9.35327C65.2297 9.35327 64.7463 9.70305 64.7463 10.2952C64.7463 12.0242 71.3647 10.8644 71.4306 15.4239C71.4306 17.5487 69.5452 19.1488 66.4784 19.1488C64.7944 19.2069 63.1176 18.9023 61.5615 18.2559L62.0815 15.3227Z" fill="black"></path>
  <path d="M77.8664 9.89512H76.1252C75.4225 9.89392 74.7426 9.64549 74.2046 9.19333C73.6666 8.74118 73.3048 8.11415 73.1827 7.42208L72.543 3.79688H76.7971L77.8664 9.89512Z" fill="#00D37E"></path>
  <path d="M80.9727 12.8906H82.7124C83.4166 12.8904 84.0984 13.1383 84.638 13.5909C85.1775 14.0434 85.5403 14.6716 85.6626 15.3652L86.3008 18.9888H82.0482L80.9727 12.8906Z" fill="#00D37E"></path>
  <path d="M75.4858 24.1062L74.7555 22.793H75.607L75.992 23.6076L76.6348 22.793H77.5077L76.3418 24.235L77.0506 25.5176H76.219L75.834 24.7336L75.2203 25.5176H74.332L75.4858 24.1062Z" fill="black"></path>
  <path d="M80.9901 23.6297C81.0362 23.3781 80.8981 23.3229 80.6113 23.3229C80.1233 23.3229 80.0774 23.6405 80.0098 23.9796C80.0098 23.9841 80.9027 24.1314 80.9901 23.6297ZM80.6619 22.7461C81.2479 22.7461 81.771 22.8995 81.7358 23.5316C81.6529 24.7726 80.1494 24.5334 79.9592 24.452C79.8887 24.8678 79.9899 24.9752 80.355 24.9813C80.728 24.9813 81.1005 24.9521 81.4688 24.8939L81.3814 25.4063C80.921 25.5455 80.4387 25.5976 79.9592 25.5597C79.3087 25.529 79.0985 24.9798 79.2827 23.9841C79.4345 23.1465 79.6616 22.7507 80.6619 22.7461Z" fill="black"></path>
  <path d="M77.3722 23.3405H77.7021L77.3477 25.5159H78.0657L78.42 23.3405H79.2147C79.276 23.1723 79.3716 23.0188 79.4954 22.8895C79.5304 22.8535 79.5684 22.8207 79.609 22.7913H78.5121L78.5428 22.5965C78.6102 22.1592 78.6348 22.0257 78.9386 22.0319H79.3988L79.4663 21.5993C79.2676 21.5179 79.055 21.4763 78.8403 21.4766C78.2344 21.4766 77.9613 21.7174 77.8477 22.4215L77.7864 22.7928L77.3722 23.3405Z" fill="black"></path>
  <path d="M83.9526 24.9578H85.2352C85.2862 24.9625 85.337 24.947 85.3766 24.9146C85.4163 24.882 85.4416 24.8354 85.447 24.7844L85.4731 24.6464C85.4883 24.5328 85.4623 24.4714 85.3196 24.4714H84.706C84.2227 24.4714 83.9512 24.2045 84.0325 23.6814L84.0723 23.4343C84.1399 23.0033 84.3715 22.7578 84.8993 22.7578C85.427 22.7578 86.1357 22.7732 86.326 22.8959L86.2554 23.3561H85.0281C84.8441 23.3561 84.8026 23.4482 84.7873 23.5464L84.7673 23.6798C84.7305 23.8808 84.8532 23.8548 84.9514 23.8548H85.5773C86.1005 23.8548 86.2754 24.2183 86.2079 24.6142L86.1618 24.921C86.0744 25.4809 85.7016 25.5577 85.3809 25.5577C84.8625 25.5577 84.057 25.5377 83.8867 25.4042L83.9526 24.9578Z" fill="black"></path>
  <path d="M83.8543 23.3946C83.8798 23.1555 83.9884 22.9329 84.1612 22.7656H83.6274C83.312 22.7856 83.0138 22.916 82.785 23.1339L82.7284 22.7902H82.1146L81.6836 25.5148H82.4015L82.6762 23.7766C82.7663 23.6694 82.881 23.5854 83.0105 23.532C83.1401 23.4786 83.2806 23.4573 83.4202 23.4698H83.8329L83.8543 23.3946Z" fill="black"></path>
</svg>
