<?xml version="1.0" encoding="UTF-8"?>
<svg xmlns="http://www.w3.org/2000/svg" width="140" height="26" viewBox="0 0 140 26" fill="none">
  <g clip-path="url(#clip0_4372_5427)">
    <path d="M78.1769 6.95605C78.8649 9.60582 79.553 12.2556 80.2703 15.0225C81.017 12.2409 81.7197 9.60582 82.437 6.95605C83.4032 6.95605 84.3402 6.95605 85.321 6.95605C86.0383 9.59118 86.7557 12.2556 87.5023 15.0225C88.2197 12.2556 88.9077 9.59118 89.5811 6.94141C90.6059 6.94141 91.5721 6.94141 92.5969 6.94141C91.4111 11.0112 90.2399 15.0517 89.0687 19.0923C88.0879 19.0923 87.1656 19.0923 86.1701 19.0923C85.4235 16.3986 84.6622 13.6903 83.8863 10.8648C83.1104 13.6756 82.3492 16.3693 81.6025 19.0776C80.651 19.0776 79.6848 19.0776 78.7039 19.0776C77.5327 15.0517 76.3616 11.0112 75.1758 6.95605C76.1859 6.95605 77.1521 6.95605 78.1769 6.95605Z" fill="black"></path>
    <path d="M99.4474 6.79688C95.6703 6.79688 92.9913 9.2856 92.9766 12.8284C92.9766 16.7079 95.4947 19.3137 99.2863 19.3137C103.225 19.3137 105.889 16.8104 105.889 13.1065C105.875 9.32952 103.298 6.79688 99.4474 6.79688ZM99.4327 16.7372C97.3539 16.7372 95.8753 15.1561 95.8899 12.9455C95.8899 10.7788 97.3539 9.24168 99.4181 9.21241C101.483 9.19777 102.961 10.7642 102.961 12.9602C102.961 15.1707 101.483 16.7372 99.4327 16.7372Z" fill="black"></path>
    <path d="M136.692 8.24627C134.071 6.35776 131.026 7.11902 128.113 6.91406V19.0942C129.635 19.0942 131.114 19.1089 132.607 19.0942C135.564 19.0649 137.79 17.5863 138.566 15.1708C139.429 12.565 138.668 9.66631 136.692 8.24627ZM135.491 14.9805C134.525 16.8397 132.71 16.664 130.968 16.6201V9.34424C132.534 9.3296 134.188 9.12465 135.257 10.6179C136.223 11.9794 136.252 13.5165 135.491 14.9805Z" fill="black"></path>
    <path d="M71.9404 14.1015C73.6825 13.4281 74.3706 12.0959 74.2827 10.3392C74.1949 8.71417 73.2726 7.67476 71.7354 7.25021C69.642 6.66463 67.49 7.0599 65.3672 6.92814V19.079H68.2512V14.4822H69.1003C69.9494 16.0193 70.7985 17.5711 71.633 19.079H74.9854C73.9607 17.4101 72.9505 15.7558 71.9404 14.1015ZM71.1791 11.4811C70.4472 12.5644 69.2906 12.1398 68.2366 12.257V9.18264C69.2467 9.25584 70.33 8.90449 71.1059 9.82678C71.5159 10.3099 71.5305 10.954 71.1791 11.4811Z" fill="black"></path>
    <path d="M114.657 14.1027C116.355 13.4585 117.058 12.1703 117.014 10.4574C116.97 8.87634 116.135 7.77838 114.627 7.30991C112.49 6.62185 110.279 7.07567 108.113 6.91464V19.0802H110.982V14.4833H111.831C112.68 16.0351 113.529 17.5723 114.364 19.0802H117.716C116.692 17.3966 115.681 15.757 114.657 14.1027ZM113.925 11.4383C113.207 12.5948 112.007 12.1263 110.938 12.2727V9.19842C111.934 9.27162 113.032 8.92027 113.822 9.81328C114.232 10.2671 114.247 10.9113 113.925 11.4383Z" fill="black"></path>
    <path d="M31.2578 6.95703C32.2533 6.95703 33.1756 6.95703 34.1857 6.95703C34.1857 9.4604 34.1857 11.9638 34.1857 14.4525C34.1857 15.8433 34.8298 16.7216 36.2792 16.7509C37.787 16.7802 38.519 15.9457 38.5337 14.4671C38.5483 11.9638 38.5337 9.47504 38.5337 6.95703C39.5292 6.95703 40.4661 6.95703 41.2713 6.95703C41.2713 9.95815 41.4909 12.9739 41.1981 15.9457C40.9492 18.3759 38.5483 19.5471 35.4008 19.225C32.7364 18.9615 31.3163 17.2926 31.2578 14.2476C31.2139 11.832 31.2578 9.41649 31.2578 6.95703Z" fill="black"></path>
    <path d="M62.7012 9.25447C61.0323 9.25447 59.3781 9.25447 57.7091 9.25447C57.7091 10.0596 57.7091 10.8502 57.7091 11.67C59.2756 11.67 60.8274 11.67 62.4085 11.67C62.4085 12.4459 62.4085 13.1925 62.4085 13.9684C60.8567 13.9684 59.2902 13.9684 57.7091 13.9684C57.7091 14.9053 57.7091 15.813 57.7091 16.7353C59.4073 16.7353 61.1055 16.7353 62.8476 16.7353C62.8476 17.5258 62.8476 18.2871 62.8476 19.063C60.1832 19.063 57.5188 19.063 54.8398 19.063C54.8398 15.0225 54.8398 10.9966 54.8398 6.94141C57.4603 6.94141 60.0661 6.94141 62.7012 6.94141C62.7012 7.71731 62.7012 8.47857 62.7012 9.25447Z" fill="black"></path>
    <path d="M50.3332 7.17854C48.3422 6.68079 46.2927 7.03214 44.2578 6.91502V19.0805H47.1125V14.6301C47.6835 14.6301 48.2251 14.6301 48.7668 14.6301C51.1091 14.6008 52.7488 13.415 52.9976 11.5411C53.2904 9.28664 52.3681 7.69093 50.3332 7.17854ZM49.938 11.5851C49.2938 12.7123 48.1373 12.2878 47.1272 12.3902V9.18417C48.0641 9.24273 49.0889 8.92065 49.8208 9.78439C50.26 10.3407 50.26 11.0288 49.938 11.5851Z" fill="black"></path>
    <path d="M20.1758 17.4231C20.6296 16.7497 21.0981 16.0763 21.5665 15.3736C22.6206 16.2373 23.6893 17.0278 25.1532 16.8375C25.7681 16.7643 26.2366 16.4715 26.3244 15.8128C26.4122 15.154 26.0023 14.8026 25.4753 14.583C24.8604 14.3195 24.2163 14.0853 23.5721 13.8657C21.7129 13.2216 20.4246 12.1236 20.7174 9.97156C20.9809 8.05377 22.5913 6.89724 24.8458 6.83868C26.4269 6.79476 27.8176 7.27787 29.0474 8.31728C28.6375 8.9907 28.2275 9.66412 27.8176 10.3375C26.8514 9.50309 25.7827 8.93215 24.4505 9.19566C23.9528 9.29814 23.6014 9.57628 23.5429 10.0887C23.4989 10.5718 23.7625 10.9378 24.2017 11.1134C24.9629 11.4355 25.7388 11.743 26.5147 12.0357C28.33 12.6945 29.428 13.8657 29.1938 15.9006C28.9888 17.7013 27.3345 19.092 25.3582 19.2531C23.3086 19.3995 21.1713 18.6528 20.1758 17.4231Z" fill="black"></path>
    <path d="M119.359 19.0757C119.359 15.0205 119.359 11.0093 119.359 6.96875C120.311 6.96875 121.247 6.96875 122.199 6.96875C122.199 10.2041 122.199 13.4248 122.199 16.6895C123.604 16.6895 124.981 16.6895 126.371 16.6895C126.371 17.4946 126.371 18.2852 126.371 19.0903C124.058 19.0757 121.731 19.0757 119.359 19.0757Z" fill="black"></path>
    <path d="M14.4309 2.5367C12.7913 1.04346 10.8735 0.252921 8.50185 0.238281C8.29689 0.252921 7.94554 0.252924 7.60883 0.296843C5.2665 0.574996 3.37799 1.67297 1.9433 3.51756C0.786774 4.99616 0.230469 6.69435 0.230469 8.58286C0.230469 10.6031 0.786774 12.4916 2.20682 14.0142C2.54353 14.3801 4.94442 16.825 6.26199 18.1279C7.16964 19.0355 8.60433 18.772 9.11671 17.6155C9.39486 16.986 9.24847 16.254 8.76536 15.7709C7.49171 14.4826 6.20343 13.2236 4.95906 11.9061C3.87573 10.7642 3.48046 9.35876 3.72934 7.79232C4.15388 5.06935 6.83293 3.21013 9.5559 3.73715C10.5514 3.92747 11.4591 4.41057 12.1764 5.11327C13.0694 5.97701 14.4602 5.7135 14.9726 4.57161C15.2215 3.98602 15.1336 3.1662 14.4309 2.5367Z" fill="url(#paint0_linear_4372_5427)"></path>
    <path d="M13.9066 12.004C12.589 10.5986 11.2422 9.3542 9.86608 8.02199C9.42689 7.56817 8.285 7.45105 7.61158 8.13911C6.93815 8.81253 7.02599 9.85195 7.39198 10.2765C7.39198 10.2765 9.80752 12.7067 11.1543 14.0535C12.1059 15.0197 12.5597 16.1763 12.589 17.6109C12.5744 17.8013 12.5597 18.094 12.5158 18.3722C12.0913 20.8024 9.93927 22.5445 7.47982 22.4713C6.16226 22.442 5.02037 21.9296 4.08343 20.9927C3.41001 20.3339 2.34132 20.3339 1.6679 21.0073C1.6679 21.0073 1.6679 21.0073 1.65326 21.022C0.979835 21.6954 0.965195 22.7494 1.6679 23.4229C2.09244 23.8328 2.54627 24.1988 3.02938 24.5208C4.81541 25.6774 6.79176 26.1166 8.89986 25.7945C11.4032 25.3992 13.3503 24.1256 14.7264 22.0175C15.7512 20.4217 16.1757 18.665 16.0001 16.7765C15.7951 14.9612 15.151 13.3362 13.9066 12.004Z" fill="url(#paint1_linear_4372_5427)"></path>
  </g>
  <defs>
    <linearGradient id="paint0_linear_4372_5427" x1="18.9799" y1="18.239" x2="0.396918" y2="1.2353" gradientUnits="userSpaceOnUse">
      <stop stop-color="#1E3AD6"></stop>
      <stop offset="0.39" stop-color="#307EE7"></stop>
      <stop offset="0.78" stop-color="#44C6FA"></stop>
    </linearGradient>
    <linearGradient id="paint1_linear_4372_5427" x1="14.1989" y1="23.4629" x2="-4.38412" y2="6.45926" gradientUnits="userSpaceOnUse">
      <stop stop-color="#1E3AD6"></stop>
      <stop offset="0.39" stop-color="#307EE7"></stop>
      <stop offset="0.78" stop-color="#44C6FA"></stop>
    </linearGradient>
    <clipPath id="clip0_4372_5427">
      <rect width="139" height="26" fill="white" transform="translate(0.105469)"></rect>
    </clipPath>
  </defs>
</svg>
