<?xml version="1.0" encoding="UTF-8"?>
<svg xmlns="http://www.w3.org/2000/svg" width="50" height="25" viewBox="0 0 50 25" fill="none">
  <g clip-path="url(#clip0_3551_4443)">
    <path d="M9.50968 8.00992C10.7591 8.74752 11.6807 9.47582 12.2729 10.1964C12.8653 10.9016 13.1621 11.7427 13.1621 12.7199C13.1621 13.6014 12.9224 14.4333 12.4415 15.2188C11.9761 16.0044 11.2725 16.6368 10.3262 17.1177C9.39681 17.5986 8.26804 17.8383 6.93821 17.8383C6.28103 17.8383 5.65631 17.7826 5.06409 17.6697C4.48731 17.5739 3.75127 17.4208 2.85286 17.2135C2.6441 17.1656 2.29155 17.0929 1.79518 16.9971C1.31428 16.8858 0.87358 16.7976 0.473086 16.7326L0.0664062 9.33202L0.234954 9.30728C1.11635 11.0701 2.18176 12.4865 3.43118 13.5612C4.6806 14.6343 5.88208 15.3951 7.03563 15.8436C8.20464 16.2765 9.1742 16.493 9.94267 16.493C10.4391 16.493 10.7916 16.4048 11.0004 16.2286C11.2245 16.0523 11.3375 15.828 11.3375 15.5559C11.3375 15.14 11.0885 14.7472 10.5921 14.3792C10.1113 14.0112 9.30254 13.4978 8.16444 12.8406L7.08356 12.2159L4.29556 10.5087C3.51004 10.0448 2.86213 9.60417 2.34876 9.18666C1.83538 8.7537 1.41943 8.24187 1.09935 7.64809C0.779256 7.0543 0.619985 6.36001 0.619985 5.55902C0.619985 3.90911 1.17202 2.70763 2.27763 1.95457C3.39871 1.20152 4.88007 0.824219 6.72327 0.824219C7.5088 0.824219 8.23712 0.92009 8.90976 1.11183C9.58239 1.28811 10.1592 1.52779 10.64 1.83241L12.1787 0.870608H12.2993V7.83983H12.1555C10.8102 6.0291 9.36742 4.58794 7.83044 3.5148C6.29031 2.44321 4.91254 1.90663 3.69559 1.90663C3.31056 1.90663 3.01522 1.99478 2.80647 2.17105C2.59771 2.33187 2.49411 2.55609 2.49411 2.8437C2.49411 3.16379 2.62245 3.47614 2.87914 3.78077C3.1513 4.06838 3.52859 4.36527 4.00795 4.66989C4.48886 4.97452 5.36097 5.50335 6.6274 6.25641L9.50968 8.00992Z" fill="black"></path>
    <path d="M45.5816 8.00992C46.831 8.74752 47.7526 9.47582 48.3448 10.1964C48.9371 10.9016 49.234 11.7427 49.234 12.7199C49.234 13.6014 48.9943 14.4348 48.5134 15.2188C48.0495 16.0044 47.3444 16.6368 46.398 17.1177C45.4687 17.5986 44.34 17.8383 43.0101 17.8383C42.3529 17.8383 41.7282 17.7826 41.136 17.6697C40.5592 17.5739 39.8216 17.4208 38.9248 17.2135C38.716 17.1656 38.3635 17.0929 37.867 16.9971C37.3862 16.8858 36.9454 16.7976 36.545 16.7326L36.1367 9.33202L36.3053 9.30728C37.1866 11.0701 38.2521 12.488 39.5016 13.5612C40.7509 14.6343 41.9524 15.3951 43.106 15.8436C44.275 16.2765 45.2445 16.493 46.013 16.493C46.5094 16.493 46.8619 16.4048 47.0707 16.2286C47.2949 16.0523 47.4078 15.828 47.4078 15.5559C47.4078 15.14 47.1588 14.7472 46.6625 14.3777C46.1816 14.0096 45.3729 13.4962 44.2348 12.839L43.1539 12.2144L40.3659 10.5087C39.5804 10.0448 38.9325 9.60417 38.4191 9.18666C37.9057 8.7537 37.4898 8.24187 37.1697 7.64809C36.8496 7.05585 36.6888 6.35847 36.6888 5.55747C36.6888 3.90756 37.2408 2.70608 38.3464 1.95302C39.4675 1.19997 40.9504 0.824219 42.7921 0.824219C43.5776 0.824219 44.3059 0.92009 44.9786 1.11183C45.6512 1.28811 46.228 1.52779 46.7089 1.83241L48.2474 0.870608H48.368V7.83983H48.2242C46.879 6.0291 45.4363 4.58794 43.8992 3.5148C42.3622 2.44166 40.9828 1.90509 39.7659 1.90509C39.3809 1.90509 39.0856 1.99323 38.8768 2.16951C38.668 2.33032 38.5644 2.55454 38.5644 2.84216C38.5644 3.16224 38.6928 3.4746 38.9495 3.77922C39.2216 4.06683 39.599 4.36372 40.0783 4.66835C40.5592 4.97297 41.4313 5.50181 42.6977 6.25487L45.5816 8.00992Z" fill="black"></path>
    <path d="M25.5473 0.824219H34.754V1.02369L24.9814 23.7405H24.6164L14.5469 1.02369V0.824219H24.1185V1.02369L22.4562 2.75092L27.74 15.372H27.8729L28.5703 13.3787C29.0807 12.2932 29.3342 10.8984 29.3342 9.1944C29.3342 7.5785 29.0358 6.03992 28.4374 4.57866C27.839 3.1174 26.8756 1.93292 25.5458 1.02524V0.824219H25.5473Z" fill="black"></path>
  </g>
  <defs>
    <clipPath id="clip0_3551_4443">
      <rect width="49.4274" height="23.3657" fill="white" transform="translate(0.0664062 0.824219)"></rect>
    </clipPath>
  </defs>
</svg>
