<?xml version="1.0" encoding="UTF-8"?>
<svg xmlns="http://www.w3.org/2000/svg" width="71" height="26" viewBox="0 0 71 26" fill="none">
  <g clip-path="url(#clip0_3551_4220)">
    <path d="M35.4941 6.15294H31.1883V18.2298H30.1309V6.15294H25.8359V5.22656H35.4941V6.15294Z" fill="black"></path>
    <path d="M39.4687 18.4219C37.9284 18.4457 36.5113 17.5498 35.8278 16.1184C35.4637 15.3649 35.2806 14.5323 35.2936 13.6895V13.3054C35.2806 12.4389 35.4604 11.5814 35.8169 10.7974C36.1341 10.0856 36.6366 9.47898 37.2667 9.04629C37.863 8.63055 38.565 8.40686 39.2834 8.40234C40.4171 8.40234 41.3109 8.79775 41.9759 9.59986C42.6408 10.402 42.9679 11.4978 42.9679 12.8874V13.4861H36.3074V13.6895C36.3074 14.7853 36.6126 15.7004 37.2122 16.4234C37.7736 17.1318 38.6173 17.5362 39.5014 17.5193C40.005 17.5317 40.5054 17.4233 40.9621 17.203C41.4199 16.9691 41.8156 16.6234 42.1176 16.1975L42.7608 16.7059C42.0195 17.8458 40.9185 18.4219 39.4687 18.4219ZM39.2834 9.305C38.5377 9.29257 37.8226 9.61342 37.3212 10.1862C36.7871 10.7737 36.4709 11.5645 36.351 12.5586H41.9432V12.4457C41.9105 11.5193 41.6598 10.7624 41.1801 10.1749C40.7005 9.58743 40.0682 9.305 39.2834 9.305Z" fill="black"></path>
    <path d="M46.0215 17.337H52.0824V18.2408H44.7461V17.45L50.4037 9.49669H44.9205V8.57031H51.7009V9.37242L46.0215 17.337Z" fill="black"></path>
    <path d="M53.5671 13.2605C53.554 12.394 53.7339 11.5365 54.0903 10.7525C54.413 10.0396 54.9231 9.43746 55.5619 9.01268C56.2084 8.59242 56.9583 8.37664 57.7203 8.39133C58.963 8.39133 59.9659 8.84322 60.7399 9.74701C61.5138 10.6508 61.8954 11.8483 61.8954 13.3396V13.5655C61.9095 14.4354 61.7297 15.2974 61.3721 16.0848C61.0527 16.7965 60.5415 17.3976 59.9005 17.8144C59.2519 18.2257 58.503 18.438 57.7421 18.4245C56.5103 18.4245 55.4965 17.9726 54.7226 17.0688C53.9486 16.165 53.5671 14.9675 53.5671 13.4763V13.2605ZM54.6027 13.5542C54.6027 14.7065 54.897 15.6555 55.4638 16.4011C56.0307 17.1468 56.7937 17.5083 57.7312 17.5083C58.6131 17.5297 59.4536 17.1196 59.9986 16.4011C60.5763 15.6555 60.8598 14.6839 60.8598 13.4638V13.2605C60.8663 12.5623 60.7333 11.8686 60.4673 11.227C60.2341 10.6531 59.8482 10.1594 59.3554 9.80349C58.8736 9.46344 58.3024 9.28608 57.7203 9.29511C56.8395 9.27817 56.0034 9.69278 55.4638 10.4136C54.8861 11.1592 54.5918 12.142 54.5918 13.3509L54.6027 13.5542Z" fill="black"></path>
    <path d="M69.6117 15.7795C69.6248 15.2734 69.3915 14.7932 68.9903 14.5029C68.5761 14.1866 67.9656 13.9267 67.1263 13.746C66.4624 13.6172 65.8149 13.4093 65.1968 13.1246C64.739 12.8874 64.401 12.6049 64.183 12.266C63.953 11.9 63.8353 11.4707 63.8451 11.0346C63.8451 10.2664 64.1503 9.64505 64.7717 9.14797C65.393 8.65088 66.1779 8.40234 67.1372 8.40234C68.1728 8.40234 69.0121 8.67348 69.6444 9.20445C70.2625 9.70606 70.6146 10.4811 70.5927 11.2945H69.5572C69.5615 10.7364 69.3054 10.211 68.8704 9.88229C68.4126 9.50948 67.8348 9.31743 67.1372 9.31743C66.4613 9.31743 65.9163 9.47559 65.502 9.78062C65.1096 10.0529 64.8763 10.5116 64.8807 11.0007C64.86 11.4391 65.0529 11.8582 65.393 12.1192C65.731 12.379 66.3632 12.6275 67.268 12.8535C68.1728 13.0794 68.8486 13.3054 69.3064 13.5539C69.7087 13.7618 70.0542 14.0736 70.3093 14.4577C70.9198 15.5423 70.6527 16.9296 69.688 17.6887C69.0557 18.1745 68.2273 18.4231 67.2026 18.4231C66.1125 18.4231 65.2295 18.1519 64.5646 17.6097C63.8996 17.0674 63.5508 16.3783 63.5508 15.5423H64.5864C64.6082 16.1252 64.8894 16.6641 65.3494 16.9996C65.8182 17.3498 66.4395 17.5193 67.2135 17.5193C67.9329 17.5193 68.5107 17.3498 68.9576 17.0335C69.3937 16.6935 69.6117 16.2755 69.6117 15.7795Z" fill="black"></path>
    <path d="M18.2146 18.9633C17.9639 14.3653 12.3826 12.2753 11.8485 12.0606C11.8267 12.0494 11.8267 12.0268 11.8376 12.0042L17.5933 6.01658V5.37263C17.59 5.26757 17.5093 5.18397 17.4079 5.18058H6.80137V1.57673V0.492188L2.88794 1.33949V1.94954H3.10596C3.10596 1.94954 4.06524 1.94954 4.06524 2.94371V5.16928H1.03479C0.975925 5.1738 0.930142 5.22125 0.925781 5.28225V6.69442H4.07614V14.3653C4.07614 16.7716 5.56956 18.4436 8.18578 18.2177C8.72428 18.1623 9.24208 17.968 9.6901 17.6528C9.88741 17.5218 10.0062 17.297 10.0062 17.0541V16.2971C9.15596 16.8846 8.4365 16.8507 8.4365 16.8507C6.77956 16.8507 6.81227 14.6703 6.81227 14.6703V6.69442H14.4429L8.94884 12.4335C8.93794 13.1904 8.92704 13.7778 8.92704 13.7891C8.92486 13.8061 8.93685 13.8208 8.9532 13.823C8.95538 13.823 8.95756 13.823 8.95974 13.823C13.996 14.7042 15.3586 18.0821 15.3586 19.065C15.3586 19.065 15.9036 23.8438 11.2925 24.1714C11.2925 24.1714 8.27299 24.3069 7.73884 23.0529C7.71922 23.0123 7.73666 22.9626 7.77591 22.9434C7.77809 22.9422 7.78027 22.9411 7.78245 22.94C8.29588 22.7174 8.62836 22.1955 8.62181 21.6182C8.62181 20.6918 8.07677 19.9349 6.93218 19.9349C6.0056 19.9349 5.24254 20.6918 5.24254 21.6182C5.24254 21.6182 4.8065 25.64 11.2816 25.5271C18.6724 25.3915 18.2146 18.9633 18.2146 18.9633Z" fill="black"></path>
  </g>
  <defs>
    <clipPath id="clip0_3551_4220">
      <rect width="69.7112" height="25.0371" fill="white" transform="translate(0.925781 0.492188)"></rect>
    </clipPath>
  </defs>
</svg>
