<?xml version="1.0" encoding="UTF-8"?>
<svg xmlns="http://www.w3.org/2000/svg" width="118" height="25" viewBox="0 0 118 25" fill="none">
  <g clip-path="url(#clip0_3551_5128)">
    <path d="M16.4819 9.69087V2.78264H13.7576V1.1772H21.1767V2.78264H18.4523V9.69087H16.4819ZM22.2367 9.69087V1.1772H25.922C26.6842 1.1772 27.3409 1.30287 27.8923 1.55423C28.4437 1.79748 28.8694 2.15019 29.1693 2.61236C29.4694 3.07453 29.6193 3.6259 29.6193 4.26645C29.6193 4.89888 29.4694 5.44619 29.1693 5.90836C28.8694 6.36243 28.4437 6.71108 27.8923 6.95433C27.3409 7.19758 26.6842 7.3192 25.922 7.3192H23.3314L24.2071 6.45568V9.69087H22.2367ZM27.6491 9.69087L25.5206 6.60162H27.6247L29.7775 9.69087H27.6491ZM24.2071 6.67459L23.3314 5.75026H25.8125C26.4206 5.75026 26.8748 5.62052 27.1747 5.36106C27.4747 5.09349 27.6247 4.72861 27.6247 4.26645C27.6247 3.79616 27.4747 3.43129 27.1747 3.17183C26.8748 2.91236 26.4206 2.78264 25.8125 2.78264H23.3314L24.2071 1.84613V6.67459ZM34.9629 9.83681C33.7547 9.83681 32.8101 9.50032 32.1291 8.82733C31.448 8.15435 31.1074 7.19352 31.1074 5.94485V1.1772H33.0777V5.87188C33.0777 6.68271 33.2439 7.26649 33.5764 7.62326C33.9088 7.98003 34.3751 8.1584 34.9751 8.1584C35.575 8.1584 36.0413 7.98003 36.3738 7.62326C36.7062 7.26649 36.8724 6.68271 36.8724 5.87188V1.1772H38.8184V5.94485C38.8184 7.19352 38.4778 8.15435 37.7968 8.82733C37.1156 9.50032 36.171 9.83681 34.9629 9.83681ZM42.5776 4.60699H46.6763V6.13945H42.5776V4.60699ZM42.7235 8.10975H47.3574V9.69087H40.7654V1.1772H47.1993V2.75831H42.7235V8.10975ZM56.4805 9.83681C55.8075 9.83681 55.1872 9.7314 54.6196 9.52059C54.0601 9.30166 53.5696 8.99356 53.148 8.59626C52.7344 8.19895 52.4101 7.73272 52.175 7.19758C51.948 6.66243 51.8344 6.07458 51.8344 5.43403C51.8344 4.79348 51.948 4.20564 52.175 3.67049C52.4101 3.13535 52.7385 2.66912 53.1601 2.27181C53.5817 1.87451 54.0763 1.57045 54.644 1.35964C55.2115 1.14071 55.8358 1.03125 56.517 1.03125C57.271 1.03125 57.9481 1.15693 58.548 1.40828C59.1561 1.65964 59.667 2.02451 60.0805 2.5029L58.8156 3.67049C58.5075 3.34616 58.1711 3.10696 57.8062 2.95291C57.4412 2.79074 57.044 2.70965 56.6142 2.70965C56.2007 2.70965 55.8237 2.77452 55.4832 2.90426C55.1426 3.03399 54.8466 3.22048 54.5953 3.46372C54.352 3.70697 54.1615 3.99481 54.0236 4.32726C53.8939 4.65969 53.8291 5.02862 53.8291 5.43403C53.8291 5.83133 53.8939 6.1962 54.0236 6.52865C54.1615 6.86108 54.352 7.15298 54.5953 7.40433C54.8466 7.64759 55.1386 7.83407 55.471 7.96381C55.8115 8.09353 56.1845 8.1584 56.5899 8.1584C56.9791 8.1584 57.3562 8.09759 57.721 7.97597C58.094 7.84624 58.4548 7.63137 58.8035 7.33136L59.9224 8.75436C59.4602 9.10301 58.921 9.37059 58.3048 9.55708C57.6967 9.74357 57.0886 9.83681 56.4805 9.83681ZM58.1224 8.49895V5.30024H59.9224V8.75436L58.1224 8.49895ZM61.7527 9.69087V1.1772H63.7229V8.08543H67.992V9.69087H61.7527ZM73.0855 9.83681C72.4125 9.83681 71.7882 9.72736 71.2125 9.50843C70.6449 9.2895 70.1503 8.98139 69.7287 8.58408C69.3151 8.18678 68.9908 7.72056 68.7557 7.18542C68.5287 6.65027 68.4152 6.06648 68.4152 5.43403C68.4152 4.80159 68.5287 4.2178 68.7557 3.68265C68.9908 3.14751 69.3192 2.68128 69.7409 2.28397C70.1625 1.88667 70.6571 1.57855 71.2247 1.35964C71.7922 1.14071 72.4084 1.03125 73.0733 1.03125C73.7464 1.03125 74.3626 1.14071 74.922 1.35964C75.4896 1.57855 75.9801 1.88667 76.3937 2.28397C76.8153 2.68128 77.1437 3.14751 77.3789 3.68265C77.614 4.20968 77.7316 4.79348 77.7316 5.43403C77.7316 6.06648 77.614 6.65433 77.3789 7.19758C77.1437 7.73272 76.8153 8.19895 76.3937 8.59626C75.9801 8.98545 75.4896 9.2895 74.922 9.50843C74.3626 9.72736 73.7504 9.83681 73.0855 9.83681ZM73.0733 8.1584C73.4544 8.1584 73.8031 8.09353 74.1193 7.96381C74.4436 7.83407 74.7274 7.64759 74.9707 7.40433C75.2139 7.16109 75.4005 6.87324 75.5302 6.54081C75.668 6.20837 75.7369 5.83945 75.7369 5.43403C75.7369 5.02862 75.668 4.65969 75.5302 4.32726C75.4005 3.99481 75.2139 3.70697 74.9707 3.46372C74.7356 3.22048 74.4559 3.03399 74.1315 2.90426C73.8072 2.77452 73.4544 2.70965 73.0733 2.70965C72.6923 2.70965 72.3395 2.77452 72.0152 2.90426C71.6991 3.03399 71.4192 3.22048 71.176 3.46372C70.9328 3.70697 70.7422 3.99481 70.6044 4.32726C70.4746 4.65969 70.4098 5.02862 70.4098 5.43403C70.4098 5.83133 70.4746 6.20026 70.6044 6.54081C70.7422 6.87324 70.9288 7.16109 71.1639 7.40433C71.4071 7.64759 71.6909 7.83407 72.0152 7.96381C72.3395 8.09353 72.6923 8.1584 73.0733 8.1584ZM79.2123 9.69087V1.1772H83.3718C84.4422 1.1772 85.2448 1.3799 85.78 1.78532C86.3233 2.19073 86.5949 2.72587 86.5949 3.39075C86.5949 3.83671 86.4855 4.2259 86.2665 4.55834C86.0476 4.88267 85.7475 5.13403 85.3664 5.31241C84.9854 5.49079 84.5476 5.57998 84.053 5.57998L84.2841 5.08132C84.8191 5.08132 85.2935 5.17052 85.7071 5.3489C86.1205 5.51917 86.4408 5.77458 86.6679 6.11513C86.903 6.45568 87.0205 6.87324 87.0205 7.36785C87.0205 8.09759 86.7327 8.66923 86.1571 9.08275C85.5813 9.48816 84.734 9.69087 83.6151 9.69087H79.2123ZM81.1704 8.20705H83.4692C83.9799 8.20705 84.3651 8.12597 84.6246 7.96381C84.8922 7.79353 85.0259 7.52597 85.0259 7.16109C85.0259 6.80433 84.8922 6.54081 84.6246 6.37053C84.3651 6.19216 83.9799 6.10297 83.4692 6.10297H81.0245V4.6678H83.1286C83.6069 4.6678 83.9719 4.58672 84.2233 4.42455C84.4827 4.25428 84.6124 3.99887 84.6124 3.65832C84.6124 3.32588 84.4827 3.07858 84.2233 2.91642C83.9719 2.74614 83.6069 2.66101 83.1286 2.66101H81.1704V8.20705ZM87.3933 9.69087L91.188 1.1772H93.134L96.9408 9.69087H94.8731L91.7596 2.17451H92.538L89.4122 9.69087H87.3933ZM89.2906 7.86651L89.8137 6.37053H94.1921L94.7272 7.86651H89.2906ZM97.8241 9.69087V1.1772H99.7944V8.08543H104.064V9.69087H97.8241ZM3.82148 23.8543L0.148438 15.3407H2.27685L5.48772 22.8813H4.235L7.49452 15.3407H9.45266L5.76746 23.8543H3.82148ZM11.9756 18.7704H16.0744V20.3029H11.9756V18.7704ZM12.1216 22.2731H16.7555V23.8543H10.1635V15.3407H16.5974V16.9217H12.1216V22.2731ZM18.3232 23.8543V15.3407H19.953L24.976 21.4705H24.1855V15.3407H26.1315V23.8543H24.5138L19.4786 17.7245H20.2692V23.8543H18.3232ZM29.9093 23.8543V16.9461H27.1849V15.3407H34.6039V16.9461H31.8796V23.8543H29.9093ZM39.3041 24.0003C38.0959 24.0003 37.1513 23.6638 36.4703 22.9907C35.7891 22.3178 35.4486 21.357 35.4486 20.1083V15.3407H37.4189V20.0353C37.4189 20.8461 37.5851 21.4299 37.9176 21.7867C38.25 22.1434 38.7162 22.3218 39.3162 22.3218C39.9162 22.3218 40.3825 22.1434 40.715 21.7867C41.0474 21.4299 41.2136 20.8461 41.2136 20.0353V15.3407H43.1596V20.1083C43.1596 21.357 42.819 22.3178 42.1379 22.9907C41.4568 23.6638 40.5122 24.0003 39.3041 24.0003ZM45.1066 23.8543V15.3407H48.7917C49.5539 15.3407 50.2107 15.4663 50.7621 15.7176C51.3134 15.9609 51.7392 16.3136 52.0391 16.7758C52.3392 17.2379 52.4891 17.7893 52.4891 18.4299C52.4891 19.0623 52.3392 19.6096 52.0391 20.0717C51.7392 20.5259 51.3134 20.8745 50.7621 21.1177C50.2107 21.361 49.5539 21.4826 48.7917 21.4826H46.2012L47.0769 20.6191V23.8543H45.1066ZM50.5189 23.8543L48.3904 20.765H50.4945L52.6472 23.8543H50.5189ZM47.0769 20.838L46.2012 19.9137H48.6823C49.2904 19.9137 49.7445 19.7839 50.0445 19.5245C50.3446 19.2569 50.4945 18.892 50.4945 18.4299C50.4945 17.9596 50.3446 17.5948 50.0445 17.3353C49.7445 17.0758 49.2904 16.9461 48.6823 16.9461H46.2012L47.0769 16.0096V20.838ZM55.8624 18.7704H59.9611V20.3029H55.8624V18.7704ZM56.0083 22.2731H60.6422V23.8543H54.0502V15.3407H60.4841V16.9217H56.0083V22.2731ZM65.0072 24.0003C64.3262 24.0003 63.6735 23.911 63.0491 23.7327C62.4248 23.5461 61.922 23.307 61.541 23.0151L62.21 21.5313C62.5748 21.7908 63.0045 22.0056 63.4991 22.1759C64.0018 22.3381 64.5086 22.4191 65.0195 22.4191C65.4087 22.4191 65.7208 22.3826 65.956 22.3097C66.1992 22.2286 66.3775 22.1192 66.4911 21.9813C66.6046 21.8435 66.6613 21.6854 66.6613 21.5069C66.6613 21.2799 66.5722 21.1015 66.3937 20.9718C66.2154 20.8339 65.9803 20.7245 65.6884 20.6434C65.3964 20.5542 65.0722 20.4732 64.7154 20.4001C64.3667 20.3191 64.014 20.2218 63.6573 20.1083C63.3086 19.9948 62.9883 19.8488 62.6964 19.6704C62.4045 19.4921 62.1654 19.2569 61.9788 18.965C61.8004 18.6731 61.7113 18.3001 61.7113 17.8461C61.7113 17.3595 61.841 16.9177 62.1005 16.5204C62.3681 16.115 62.7654 15.7947 63.2924 15.5596C63.8275 15.3163 64.4964 15.1947 65.2992 15.1947C65.8343 15.1947 66.3614 15.2595 66.8803 15.3893C67.3992 15.5109 67.8573 15.6974 68.2546 15.9488L67.6465 17.4447C67.2492 17.2177 66.8519 17.0515 66.4546 16.9461C66.0573 16.8326 65.6681 16.7758 65.287 16.7758C64.906 16.7758 64.5938 16.8203 64.3505 16.9096C64.1073 16.9988 63.9329 17.1163 63.8275 17.2622C63.7221 17.4001 63.6694 17.5623 63.6694 17.7487C63.6694 17.9677 63.7586 18.1461 63.937 18.2839C64.1153 18.4136 64.3505 18.519 64.6424 18.6002C64.9343 18.6812 65.2546 18.7623 65.6032 18.8434C65.96 18.9245 66.3127 19.0177 66.6613 19.1231C67.0181 19.2285 67.3425 19.3705 67.6344 19.5488C67.9262 19.7272 68.1614 19.9623 68.3398 20.2542C68.5262 20.5461 68.6195 20.9151 68.6195 21.361C68.6195 21.8393 68.4857 22.2772 68.2182 22.6746C67.9506 23.0719 67.5492 23.3922 67.0141 23.6354C66.487 23.8786 65.8181 24.0003 65.0072 24.0003ZM72.7778 22.0665V20.7408L76.7914 15.3407H78.859L74.9305 20.7408L73.9697 20.4609H80.6712V22.0665H72.7778ZM77.363 23.8543V22.0665L77.4238 20.4609V18.8678H79.2847V23.8543H77.363ZM85.2401 23.8543V15.3407H88.9253C89.6874 15.3407 90.3442 15.4663 90.8955 15.7176C91.4469 15.9609 91.8726 16.3136 92.1726 16.7758C92.4726 17.2379 92.6227 17.7893 92.6227 18.4299C92.6227 19.0623 92.4726 19.6096 92.1726 20.0717C91.8726 20.534 91.4469 20.8907 90.8955 21.1421C90.3442 21.3853 89.6874 21.5069 88.9253 21.5069H86.3347L87.2103 20.6191V23.8543H85.2401ZM87.2103 20.838L86.3347 19.9015H88.8158C89.424 19.9015 89.878 19.7718 90.178 19.5123C90.478 19.2529 90.628 18.892 90.628 18.4299C90.628 17.9596 90.478 17.5948 90.178 17.3353C89.878 17.0758 89.424 16.9461 88.8158 16.9461H86.3347L87.2103 16.0096V20.838ZM94.0293 23.8543V15.3407H95.9995V22.2489H100.269V23.8543H94.0293ZM105.057 24.0003C103.848 24.0003 102.905 23.6638 102.223 22.9907C101.542 22.3178 101.201 21.357 101.201 20.1083V15.3407H103.172V20.0353C103.172 20.8461 103.337 21.4299 103.67 21.7867C104.003 22.1434 104.47 22.3218 105.069 22.3218C105.669 22.3218 106.136 22.1434 106.468 21.7867C106.8 21.4299 106.966 20.8461 106.966 20.0353V15.3407H108.913V20.1083C108.913 21.357 108.572 22.3178 107.891 22.9907C107.21 23.6638 106.265 24.0003 105.057 24.0003ZM113.657 24.0003C112.976 24.0003 112.323 23.911 111.699 23.7327C111.075 23.5461 110.572 23.307 110.191 23.0151L110.859 21.5313C111.225 21.7908 111.654 22.0056 112.148 22.1759C112.651 22.3381 113.158 22.4191 113.669 22.4191C114.058 22.4191 114.371 22.3826 114.606 22.3097C114.848 22.2286 115.027 22.1192 115.141 21.9813C115.254 21.8435 115.311 21.6854 115.311 21.5069C115.311 21.2799 115.222 21.1015 115.044 20.9718C114.865 20.8339 114.63 20.7245 114.337 20.6434C114.046 20.5542 113.721 20.4732 113.365 20.4001C113.016 20.3191 112.663 20.2218 112.307 20.1083C111.958 19.9948 111.638 19.8488 111.346 19.6704C111.055 19.4921 110.815 19.2569 110.629 18.965C110.45 18.6731 110.361 18.3001 110.361 17.8461C110.361 17.3595 110.49 16.9177 110.75 16.5204C111.017 16.115 111.415 15.7947 111.942 15.5596C112.477 15.3163 113.146 15.1947 113.949 15.1947C114.484 15.1947 115.011 15.2595 115.53 15.3893C116.049 15.5109 116.506 15.6974 116.904 15.9488L116.296 17.4447C115.898 17.2177 115.502 17.0515 115.104 16.9461C114.707 16.8326 114.317 16.7758 113.937 16.7758C113.555 16.7758 113.243 16.8203 113 16.9096C112.757 16.9988 112.582 17.1163 112.477 17.2622C112.372 17.4001 112.319 17.5623 112.319 17.7487C112.319 17.9677 112.408 18.1461 112.586 18.2839C112.765 18.4136 113 18.519 113.292 18.6002C113.584 18.6812 113.904 18.7623 114.252 18.8434C114.61 18.9245 114.963 19.0177 115.311 19.1231C115.668 19.2285 115.992 19.3705 116.284 19.5488C116.576 19.7272 116.811 19.9623 116.989 20.2542C117.176 20.5461 117.269 20.9151 117.269 21.361C117.269 21.8393 117.136 22.2772 116.868 22.6746C116.601 23.0719 116.199 23.3922 115.664 23.6354C115.137 23.8786 114.468 24.0003 113.657 24.0003Z" fill="black"></path>
  </g>
  <defs>
    <clipPath id="clip0_3551_5128">
      <rect width="117.354" height="24.2801" fill="white" transform="translate(0.105469 0.0820312)"></rect>
    </clipPath>
  </defs>
</svg>
