<?xml version="1.0" encoding="UTF-8"?>
<svg xmlns="http://www.w3.org/2000/svg" width="126" height="22" viewBox="0 0 126 22" fill="none">
  <g clip-path="url(#clip0_3551_4577)">
    <path d="M4.71897 20.9194C4.21055 20.9194 4.15405 20.5522 4.15405 20.1652C4.15405 19.1503 4.15405 18.1344 4.15405 17.1175C4.15405 15.4661 4.15405 13.8137 4.15405 12.1604C4.14633 12.0912 4.13501 12.0223 4.12016 11.9542H3.1824H2.19662C1.28993 11.9485 1.12611 11.8017 1.12611 10.8724C1.12089 10.6832 1.13413 10.494 1.16565 10.3075C1.25886 9.74255 1.39162 9.63804 1.94806 9.63239C2.65421 9.63239 3.36035 9.63239 4.12863 9.63239C4.12863 9.4036 4.16536 9.2087 4.16536 9.01098C4.16536 6.531 4.16536 4.05196 4.16536 1.57387C4.16536 0.76886 4.32353 0.616332 5.13983 0.610683C6.4335 0.582437 6.49281 0.644577 6.49281 1.92129C6.49281 4.3137 6.49281 6.72307 6.49281 9.10137C6.49281 9.50528 6.60862 9.63804 7.021 9.62957C8.22993 9.60979 8.23275 9.62957 8.23557 8.42911C8.23557 6.0866 8.23557 3.74408 8.23557 1.40156C8.23557 0.76321 8.34574 0.647403 8.97561 0.607858C10.3879 0.514647 10.515 0.607859 10.515 2.02014C10.515 4.31182 10.515 6.60162 10.515 8.88952V9.59284H12.2097C12.2097 9.40078 12.2323 9.21718 12.2323 9.02792C12.2323 6.51405 12.2323 4.00017 12.2323 1.4863C12.2323 0.794281 12.3933 0.638929 13.0797 0.599385C14.492 0.542893 14.5654 0.599385 14.5654 2.02862C14.5654 4.3862 14.5654 6.74002 14.5654 9.09007C14.5654 9.23978 14.5881 9.38947 14.6022 9.57307H16.297V1.42981C16.297 0.808404 16.4607 0.641753 17.0849 0.613507C18.4973 0.545717 18.582 0.613507 18.582 2.00603C18.582 4.35043 18.582 6.69295 18.582 9.03358C18.582 9.20305 18.582 9.3697 18.582 9.63239H20.5762C21.4574 9.63239 21.6043 9.77927 21.6156 10.6464V10.9035C21.6156 11.8243 21.4801 11.9514 20.5762 11.9542C19.9717 11.9542 19.3672 11.9542 18.7628 11.974C18.7006 11.987 18.6408 12.0089 18.5848 12.0389V20.1851C18.5848 20.7669 18.4577 20.9053 17.8786 20.9844C17.827 20.9872 17.7751 20.9872 17.7233 20.9844C16.4241 21.0522 16.2912 20.9307 16.2912 19.6568V11.9909H14.5485V12.5757C14.5485 15.1178 14.5485 17.6373 14.5485 20.1681C14.5485 20.5748 14.4949 20.8996 13.9836 20.9138L12.7634 20.9194C12.272 20.8743 12.2239 20.5325 12.2239 20.1398C12.2239 17.6259 12.2239 15.112 12.2239 12.5982V11.9965H10.5122V20.1567C10.5122 20.7641 10.3399 20.942 9.72131 21.0041H9.67046C8.34573 21.0748 8.22145 20.959 8.22145 19.6483V12.022H6.49281V12.5868C6.49281 15.114 6.49281 17.6438 6.49281 20.1765C6.49281 20.5635 6.46456 20.9166 5.95896 20.9562L4.71897 20.9194Z" fill="#DF0B1F"></path>
    <path d="M70.5742 10.1997C70.7154 10.2562 70.8567 10.3212 70.9979 10.3692C71.6553 10.5659 72.2418 10.9487 72.6865 11.4715C73.1311 11.9944 73.4148 12.6347 73.5033 13.3153C73.7115 14.385 73.6395 15.4904 73.2943 16.524C72.7293 18.1311 71.5232 18.9248 69.8822 19.1226C69.2255 19.1932 68.5654 19.2281 67.905 19.2271C65.4137 19.2271 62.9252 19.2271 60.4339 19.2271C59.8041 19.2271 59.6289 19.0605 59.6289 18.4475V3.16089C59.6289 2.52819 59.7899 2.36719 60.417 2.36719C62.993 2.36719 65.5691 2.36719 68.1451 2.38979C68.7666 2.39577 69.3846 2.48217 69.9838 2.64682C71.5995 3.0931 72.526 4.30202 72.5995 6.0815C72.6234 6.66474 72.5951 7.24894 72.5147 7.82709C72.4567 8.27196 72.2879 8.69513 72.0239 9.05785C71.7598 9.42057 71.409 9.71121 71.0035 9.90316C70.868 9.9766 70.7353 10.0529 70.6024 10.1291C70.5911 10.1433 70.5883 10.1659 70.5742 10.1997ZM63.2303 11.742V16.7358C64.9025 16.7358 66.5407 16.7782 68.1761 16.7358C69.1987 16.699 69.7607 16.1709 69.8991 15.2698C69.9716 14.7941 69.9876 14.3117 69.9472 13.8322C69.8342 12.4792 69.2409 11.8719 67.8909 11.8041C66.6339 11.7391 65.3714 11.7674 64.1115 11.7561L63.2303 11.742ZM63.2303 4.77372V9.29305C64.6425 9.29305 66.0238 9.3326 67.4022 9.27893C68.3682 9.24221 68.9867 8.71402 69.1422 7.86664C69.2148 7.39197 69.2337 6.91065 69.1987 6.43176C69.1562 5.40361 68.6677 4.82457 67.6564 4.77938C66.1877 4.72571 64.7217 4.77372 63.2246 4.77372H63.2303Z" fill="black"></path>
    <path d="M57.7649 9.73121C57.7649 11.8157 57.6802 13.4031 57.1746 14.9115C56.3271 17.496 54.48 18.9111 51.8305 19.3235C50.3417 19.5672 48.82 19.5232 47.3479 19.1936C44.6193 18.5609 43.0461 16.7644 42.4444 14.1093C41.908 11.7833 41.9313 9.36316 42.5122 7.04786C43.1646 4.44078 44.8171 2.85053 47.4863 2.35059C49.27 1.99899 51.1087 2.0385 52.8755 2.4664C55.3216 3.08216 56.7481 4.70346 57.3355 7.07894C57.5258 7.95476 57.6691 8.84011 57.7649 9.73121ZM45.5288 10.8978C45.6588 11.8468 45.7322 12.9654 45.9751 14.0472C46.3253 15.5978 47.3083 16.5893 48.9381 16.8096C49.436 16.867 49.938 16.8794 50.4379 16.8463C52.2287 16.7644 53.3473 15.9227 53.8274 14.2054C54.4094 12.0171 54.4376 9.71854 53.9094 7.51675C53.5761 6.03101 52.6694 5.03677 51.0848 4.80797C50.555 4.73689 50.0201 4.71233 49.4861 4.73454C47.1671 4.81927 46.1785 6.06208 45.8452 7.95738C45.6842 8.86689 45.6446 9.799 45.5288 10.8978Z" fill="black"></path>
    <path d="M40.1507 8.97539C40.1507 10.7972 40.21 12.6247 40.1507 14.4438C40.0518 16.9859 38.8344 18.4688 36.346 19.0422C34.2489 19.5312 32.0655 19.5139 29.9766 18.9913C27.8129 18.4518 26.5475 16.9152 26.4374 14.7036C26.3356 12.7462 26.3498 10.7831 26.3356 8.82003C26.3187 7.0123 26.3356 5.20458 26.3356 3.39684C26.3356 2.63421 26.4656 2.42801 27.2282 2.33763C27.8615 2.26278 28.5015 2.26278 29.1348 2.33763C29.8156 2.41671 29.9822 2.66527 29.9822 3.33752C29.9822 6.79763 30.0387 10.2577 29.9624 13.7179C29.92 15.5397 30.7222 16.3305 32.3661 16.4662C33.2236 16.5356 34.0866 16.4872 34.9308 16.3221C36.0805 16.0962 36.603 15.3392 36.603 14.1726C36.603 10.6438 36.603 7.11493 36.603 3.58609C36.603 2.54664 36.8092 2.30937 37.8542 2.28113C38.4047 2.25793 38.9562 2.28724 39.501 2.36869C40.1083 2.47037 40.2354 2.68505 40.2354 3.29515C40.2354 5.19139 40.2354 7.0848 40.2354 8.97539H40.1507Z" fill="black"></path>
    <path d="M84.4543 11.5141C84.5391 12.4632 84.6211 13.3897 84.7058 14.3133C84.7906 15.237 84.8696 16.1267 84.9572 17.0757H83.607C83.5251 16.1776 83.4432 15.2482 83.3472 14.1947C82.8867 15.0957 82.4998 15.8894 82.0817 16.6634C81.9715 16.8752 81.9349 17.1463 81.5762 17.1605C81.2174 17.1746 81.144 16.8781 81.0254 16.6521C80.6017 15.8584 80.1949 15.0534 79.7457 14.189C79.661 15.2031 79.582 16.1323 79.5028 17.0842H78.1641C78.3222 15.22 78.4804 13.3784 78.6414 11.4718C78.9481 11.4475 79.2565 11.4532 79.5622 11.4887C79.7441 11.5535 79.8938 11.6861 79.9802 11.8587C80.4999 12.8558 81.0083 13.8586 81.5451 14.9121C82.0027 14.0252 82.4433 13.1665 82.8811 12.3079C83.3188 11.4492 83.3246 11.4068 84.4543 11.5141Z" fill="black"></path>
    <path d="M109.776 13.4572C110 13.272 110.261 13.1362 110.541 13.0588C110.822 12.9815 111.115 12.9641 111.403 13.0081C111.691 13.021 111.964 13.1362 112.175 13.3329C112.386 13.5296 112.52 13.795 112.552 14.0814C112.595 15.0757 112.552 16.0586 112.552 17.0726H111.225C111.225 16.2818 111.225 15.5135 111.225 14.7452C111.233 14.6494 111.215 14.553 111.172 14.467C111.129 14.3809 111.063 14.3086 110.981 14.2581C110.899 14.2076 110.805 14.181 110.709 14.1812C110.613 14.1815 110.518 14.2085 110.437 14.2594C110.345 14.3212 110.267 14.4021 110.21 14.4967C110.152 14.5913 110.116 14.6974 110.103 14.8074C110.064 15.5587 110.086 16.3129 110.086 17.0839H108.742C108.742 16.31 108.742 15.5587 108.742 14.8074C108.742 14.3074 108.298 14.0137 107.895 14.2735C107.813 14.338 107.746 14.4188 107.697 14.5107C107.648 14.6025 107.619 14.7036 107.612 14.8074C107.578 15.5615 107.598 16.3157 107.598 17.0811H106.293V13.1691C107.067 13.0363 107.296 13.0731 107.522 13.3668C107.846 13.1095 108.252 12.9771 108.665 12.9937C109.079 13.0103 109.473 13.1747 109.776 13.4572Z" fill="black"></path>
    <path d="M101.585 13.0296C101.537 13.4137 101.957 13.8459 101.381 14.1595C101.35 14.1764 101.381 14.2866 101.367 14.3543C101.288 15.2948 100.963 15.665 100.042 15.8513C99.9906 15.8652 99.9421 15.8893 99.8999 15.9223C99.8577 15.9554 99.8225 15.9965 99.7967 16.0434C100.079 16.1479 100.345 16.244 100.61 16.3626C101.13 16.5885 101.593 16.8569 101.698 17.4924C101.753 17.7457 101.731 18.0099 101.633 18.2499C101.535 18.49 101.366 18.6947 101.15 18.8369C100.726 19.1105 100.229 19.2489 99.7242 19.2338C99.2197 19.2187 98.7319 19.0508 98.325 18.7522C97.5991 18.1619 97.6641 17.2071 98.5086 16.5405C98.0962 16.2072 98.0257 15.8598 98.5651 15.535C98.3674 15.3755 98.2163 15.1657 98.1279 14.9276C98.0394 14.6894 98.0167 14.4319 98.0623 14.182C98.2205 13.3346 98.9747 12.8743 99.9548 13.0014C100.226 13.0556 100.499 13.0961 100.774 13.1227C101.046 13.1111 101.317 13.0799 101.585 13.0296ZM99.7288 18.2409C100.167 18.2692 100.511 18.063 100.517 17.7721C100.523 17.4811 100.119 17.2071 99.6159 17.1704C99.5437 17.1585 99.4698 17.1613 99.3987 17.1788C99.3277 17.1963 99.2609 17.2281 99.2025 17.2722C99.144 17.3164 99.0952 17.372 99.0591 17.4355C99.0228 17.4991 98.9999 17.5694 98.9917 17.6421C98.9323 17.9556 99.2657 18.2155 99.7288 18.2409ZM99.7034 14.9248C100.031 14.8797 100.251 14.7216 100.246 14.3967C100.229 14.2646 100.163 14.1435 100.061 14.0571C99.9597 13.9708 99.8298 13.9252 99.6965 13.9295C99.5633 13.9337 99.4364 13.9874 99.3406 14.08C99.2448 14.1727 99.1869 14.2976 99.1781 14.4306C99.1894 14.7639 99.421 14.8995 99.7034 14.9248Z" fill="black"></path>
    <path d="M81.3205 8.58669H80.1568C79.4732 6.71681 78.7926 4.85259 78.0977 2.93753H79.5467L80.7782 6.46825C81.1171 5.5079 81.4928 4.55037 81.7866 3.57023C81.942 3.05334 82.1707 2.8076 82.7244 2.90928C82.9378 2.9268 83.1521 2.9268 83.3655 2.90928C82.6792 4.83282 82.0013 6.69986 81.3205 8.58669Z" fill="black"></path>
    <path d="M117.333 13.0929C117.743 13.2116 118.198 12.9376 118.511 13.254C118.949 13.143 119.394 13.0675 119.844 13.028C120.017 13.0226 120.189 13.0522 120.351 13.115C120.512 13.1777 120.659 13.2722 120.783 13.393C120.907 13.5136 121.005 13.6581 121.072 13.8177C121.139 13.9772 121.172 14.1486 121.172 14.3216C121.197 15.2311 121.172 16.1435 121.172 17.084H119.836C119.836 16.3497 119.836 15.6492 119.836 14.9458C119.836 14.4177 119.667 14.1974 119.271 14.1861C118.839 14.1861 118.593 14.4487 118.59 14.9685C118.59 15.6548 118.59 16.3411 118.59 17.0671H117.316L117.333 13.0929Z" fill="black"></path>
    <path d="M95.3408 4.58203H96.6797C96.6797 5.30513 96.6797 5.99433 96.6797 6.70612C96.6797 7.27103 96.8378 7.48287 97.2615 7.48571C97.6852 7.48853 97.8857 7.24844 97.8886 6.67787C97.8886 5.99149 97.8886 5.30513 97.8886 4.58768H99.2105V8.57034C98.8009 8.51667 98.3631 8.72852 97.9055 8.36133C97.6944 8.51901 97.45 8.62642 97.1911 8.67537C96.9322 8.72432 96.6655 8.71351 96.4113 8.64378C96.1112 8.58873 95.84 8.42976 95.6453 8.19477C95.4506 7.95979 95.3448 7.66376 95.3465 7.3586C95.3267 6.43778 95.3408 5.52827 95.3408 4.58203Z" fill="black"></path>
    <path d="M87.3867 4.52272C87.7906 4.6583 88.2341 4.3589 88.6238 4.80518C88.8646 4.62849 89.1452 4.51388 89.4409 4.4715C89.7364 4.42913 90.0379 4.46031 90.3186 4.56227C90.7903 4.73174 91.166 5.04527 91.1914 5.54805C91.2422 6.53665 91.2056 7.52525 91.2056 8.55623H89.9119C89.9119 7.80771 89.9119 7.07332 89.9119 6.33893C89.9119 5.85028 89.6775 5.61866 89.2735 5.66668C89.1914 5.66568 89.11 5.68263 89.035 5.71632C88.9601 5.75002 88.8934 5.79966 88.8396 5.86179C88.7858 5.9239 88.7462 5.99701 88.7236 6.07601C88.701 6.155 88.6958 6.23797 88.7086 6.31915C88.7227 7.05354 88.7086 7.78793 88.7086 8.55623H87.4065L87.3867 4.52272Z" fill="black"></path>
    <path d="M103.308 15.4978C103.729 16.2972 104.266 16.3932 105.568 15.9667C105.572 16.0354 105.572 16.1042 105.568 16.1728C105.458 17.1219 105.356 17.2151 104.37 17.249C103.385 17.283 102.416 16.7548 102.088 15.9498C101.91 15.5357 101.864 15.0767 101.957 14.6358C102.05 14.1948 102.277 13.7934 102.608 13.4867C103.692 12.5178 105.489 12.9641 105.797 14.2804C105.963 14.9978 105.559 15.5006 104.819 15.4978H103.308ZM103.235 14.5883H104.579C104.59 14.5166 104.586 14.4435 104.566 14.3736C104.547 14.3039 104.513 14.2388 104.467 14.1828C104.421 14.1269 104.364 14.0813 104.299 14.0489C104.234 14.0167 104.163 13.9982 104.091 13.9951C103.695 13.9528 103.413 14.1617 103.235 14.5883Z" fill="black"></path>
    <path d="M89.5352 13.1171C89.9477 13.1792 90.3826 12.9504 90.7724 13.3148C91.0078 13.1911 91.2571 13.0963 91.5153 13.0324C92.8117 12.8459 93.4558 13.5972 93.3879 14.6564C93.34 15.4417 93.3879 16.2326 93.3879 17.063H92.0774C92.0774 16.3116 92.0971 15.5463 92.0774 14.7835C92.0685 14.6787 92.0355 14.5773 91.9811 14.4872C91.9268 14.3971 91.8524 14.3207 91.7638 14.2639C91.6554 14.2258 91.5397 14.2124 91.4253 14.2246C91.3111 14.2368 91.2009 14.2744 91.1029 14.3345C90.9481 14.5087 90.8636 14.7341 90.8656 14.9672C90.8374 15.6508 90.8656 16.3371 90.8656 17.063H89.5352V13.1171Z" fill="black"></path>
    <path d="M84.2719 7.02578C84.6956 7.75169 85.2492 7.85338 86.5316 7.41839C86.4948 7.74039 86.4722 8.03415 86.4214 8.32508C86.409 8.37088 86.3865 8.41337 86.3558 8.4495C86.325 8.48563 86.2866 8.51453 86.2434 8.53409C85.1135 8.93237 83.4188 8.66968 82.9556 7.1896C82.8218 6.77802 82.817 6.33539 82.9416 5.92095C83.0663 5.50651 83.3145 5.14005 83.6533 4.87062C83.9779 4.62655 84.3648 4.47904 84.7696 4.44507C85.1744 4.41109 85.5804 4.49202 85.9411 4.67854C86.1901 4.80111 86.399 4.99221 86.5431 5.22938C86.6872 5.46656 86.7606 5.73994 86.7547 6.0174C86.7645 6.14012 86.7479 6.26354 86.7063 6.37936C86.6645 6.4952 86.5985 6.60077 86.5126 6.68903C86.4268 6.77728 86.3231 6.84618 86.2085 6.8911C86.0938 6.93602 85.9709 6.95594 85.848 6.94951L84.3482 6.96646C84.3482 6.96646 84.3171 6.98623 84.2719 7.02578ZM84.19 6.06259H85.5259C85.5119 5.6728 85.3311 5.47508 84.9808 5.46661C84.799 5.45256 84.6183 5.50538 84.4728 5.61511C84.3271 5.72485 84.2265 5.88396 84.19 6.06259Z" fill="black"></path>
    <path d="M104.166 6.9482C104.632 7.75038 105.143 7.84641 106.403 7.44249C106.419 7.47074 106.451 7.49899 106.448 7.52441C106.414 8.54408 106.273 8.68248 105.242 8.69095C104.016 8.69095 103.166 8.15146 102.872 7.16004C102.746 6.75392 102.746 6.31949 102.87 5.91305C102.995 5.50661 103.238 5.14691 103.57 4.8806C103.893 4.63389 104.28 4.48343 104.685 4.44645C105.09 4.40948 105.497 4.48751 105.86 4.67159C106.141 4.81095 106.371 5.03461 106.517 5.31119C106.664 5.58777 106.721 5.9034 106.679 6.21379C106.641 6.40436 106.544 6.57787 106.4 6.70934C106.257 6.8408 106.076 6.92345 105.883 6.94536C105.338 6.95667 104.79 6.9482 104.166 6.9482ZM105.47 6.10082C105.456 5.68561 105.262 5.46811 104.906 5.47093C104.722 5.46061 104.541 5.51961 104.399 5.63625C104.256 5.75288 104.163 5.91868 104.137 6.10082H105.47Z" fill="black"></path>
    <path d="M114.392 15.4971C114.94 16.3107 115.491 16.4068 116.697 15.9547C116.668 16.2542 116.66 16.5395 116.612 16.8163C116.6 16.8702 116.576 16.9208 116.542 16.9647C116.509 17.0085 116.466 17.0447 116.417 17.0705C115.499 17.3699 114.609 17.3303 113.813 16.7258C113.101 16.1863 112.932 15.435 113.09 14.6047C113.146 14.2337 113.313 13.8885 113.568 13.6138C113.824 13.3391 114.156 13.148 114.522 13.0652C115.282 12.8674 116.002 12.9635 116.561 13.5793C117.12 14.195 117.069 14.8842 116.522 15.339C116.388 15.4353 116.229 15.4885 116.064 15.4915C115.522 15.5084 115.002 15.4971 114.392 15.4971ZM115.685 14.6103C115.702 14.535 115.701 14.4571 115.683 14.3822C115.664 14.3075 115.629 14.2379 115.58 14.1787C115.53 14.1197 115.468 14.0726 115.398 14.0411C115.328 14.0097 115.251 13.9947 115.174 13.9973C114.773 13.9634 114.522 14.2007 114.358 14.6103H115.685Z" fill="black"></path>
    <path d="M94.2377 14.2378C94.0006 13.1504 94.0232 13.108 95.1163 13.012C95.3388 12.9908 95.5631 12.9908 95.7856 13.012C96.7545 13.1136 97.2347 13.608 97.2968 14.5768C97.3166 14.9045 97.2968 15.2322 97.2968 15.5569C97.2968 15.8817 97.2968 16.2264 97.7516 16.3196C97.5821 16.6557 97.4408 16.9438 97.2658 17.2885L96.359 16.9043C96.1357 17.0694 95.8764 17.1792 95.6026 17.2248C95.3286 17.2705 95.0477 17.2506 94.7829 17.1669C94.5048 17.0952 94.2594 16.9306 94.0874 16.7005C93.9153 16.4705 93.8269 16.1887 93.8367 15.9015C93.8415 15.6256 93.9381 15.359 94.1109 15.1437C94.2837 14.9286 94.523 14.7768 94.7914 14.7124C95.0739 14.6361 95.3705 14.639 95.6558 14.5796C95.7678 14.5352 95.8725 14.4743 95.9664 14.3988C95.8789 14.2887 95.7913 14.0854 95.7009 14.0854C95.3116 14.092 94.9231 14.1213 94.5372 14.1729C94.4355 14.185 94.3353 14.2067 94.2377 14.2378ZM96.0116 15.4496C95.3393 15.3903 95.0061 15.5174 95.0427 15.8648C95.0652 15.9617 95.1109 16.0517 95.1758 16.1269C95.2408 16.2022 95.3231 16.2605 95.4156 16.297C95.7942 16.3675 96.0484 15.9693 96.0116 15.4496Z" fill="black"></path>
    <path d="M89.2686 16.4014C89.1302 16.6838 88.9862 16.9466 88.8139 17.2911L87.9326 16.8872C87.6445 17.1196 87.2871 17.2497 86.9169 17.2568C86.5467 17.264 86.1846 17.1479 85.8876 16.9267C85.6854 16.7899 85.5329 16.5914 85.453 16.3608C85.373 16.1301 85.3699 15.8797 85.4441 15.6472C85.7267 14.5513 86.6757 14.619 87.5146 14.5343C87.4751 13.9157 87.1813 13.8677 85.7662 14.2264C85.7351 13.9045 85.7012 13.5909 85.6702 13.2632C86.3226 12.9544 87.064 12.8893 87.7604 13.0796C88.0763 13.1508 88.3569 13.3317 88.5519 13.5904C88.747 13.849 88.8439 14.1686 88.8252 14.4919C88.804 14.8173 88.804 15.1439 88.8252 15.4693C88.8893 15.7796 88.9771 16.0847 89.0878 16.3816L89.2686 16.4014ZM87.5598 15.4298C86.8678 15.4043 86.6333 15.5229 86.6051 15.8816C86.5825 16.1641 86.7717 16.2827 87.0062 16.2997C87.362 16.3308 87.5796 15.9861 87.5598 15.4298Z" fill="black"></path>
    <path d="M123.458 14.174C123.458 14.6372 123.458 15.0214 123.458 15.3942C123.458 15.9845 123.532 16.0411 124.116 16.0354C124.18 16.0354 124.246 16.0354 124.338 16.0354C124.338 16.1738 124.319 16.2896 124.311 16.4054C124.26 17.1764 124.192 17.233 123.413 17.1539C123.064 17.1343 122.737 16.9813 122.499 16.7267C122.26 16.4721 122.13 16.1354 122.133 15.7869C122.119 15.2699 122.133 14.7558 122.133 14.2078L121.5 14.1401V13.1345L122.094 13.1035C122.294 12.194 122.294 12.194 123.435 11.8945V13.1091H124.678C124.644 13.4848 124.618 13.804 124.587 14.174H123.458Z" fill="black"></path>
    <path d="M94.7843 5.63822H93.6404C93.6404 6.14382 93.6179 6.60422 93.6404 7.0505C93.663 7.49679 93.8212 7.5335 94.5301 7.51939C94.4963 7.86115 94.4624 8.19728 94.4313 8.51364C93.3014 8.88648 92.2056 8.29049 92.3072 6.97706C92.3383 6.55338 92.3072 6.12969 92.3072 5.66928L91.6406 5.59585V4.58465L92.3044 4.52533C92.3044 4.28807 92.327 4.05363 92.3383 3.78811L92.9512 3.56215L93.5811 3.31641V4.53663H94.8353C94.824 4.91794 94.807 5.23994 94.7843 5.63822Z" fill="black"></path>
    <path d="M99.832 4.5125C100.264 4.71869 100.869 4.1792 101.078 4.8684L102.428 4.40234C102.467 4.88534 102.496 5.24971 102.524 5.57736C102.278 5.63111 102.035 5.69997 101.798 5.78355C101.603 5.85723 101.435 5.98868 101.317 6.16031C101.199 6.33194 101.136 6.53557 101.137 6.74391C101.117 7.32577 101.137 7.90764 101.137 8.52905H99.8376L99.832 4.5125Z" fill="black"></path>
  </g>
  <defs>
    <clipPath id="clip0_3551_4577">
      <rect width="124.963" height="21.4222" fill="white" transform="translate(0.300781 0.0859375)"></rect>
    </clipPath>
  </defs>
</svg>
