<?xml version="1.0" encoding="UTF-8"?>
<svg xmlns="http://www.w3.org/2000/svg" width="27" height="27" viewBox="0 0 27 27" fill="none">
  <g clip-path="url(#clip0_3551_4536)">
    <path d="M14.0836 26.3125C14.0996 26.2919 14.1087 26.2622 14.127 26.2531C14.2805 26.1872 14.4082 26.073 14.4907 25.9278C14.5733 25.7826 14.606 25.6143 14.584 25.4488C14.5634 24.9369 14.5497 24.4251 14.4903 23.9201C14.3555 22.7411 14.191 21.5689 14.0516 20.3921C14.0376 20.2006 14.0522 20.0081 14.095 19.8209C14.3549 18.3009 15.0658 16.8941 16.1355 15.7833C17.2701 14.5924 18.7534 13.7924 20.3718 13.4984C20.8285 13.4413 21.2913 13.4575 21.7428 13.5464C22.9379 13.6903 24.1306 13.8366 25.3257 13.9668C25.6178 13.9862 25.9109 13.9862 26.2031 13.9668C26.3897 13.9618 26.5675 13.8866 26.701 13.7561C26.8345 13.6256 26.9137 13.4495 26.9228 13.263C26.9385 13.1701 26.9357 13.075 26.9146 12.9832C26.8934 12.8914 26.8543 12.8047 26.7995 12.7281C26.7447 12.6514 26.6753 12.5864 26.5953 12.5366C26.5153 12.4868 26.4263 12.4534 26.3333 12.4381C26.0079 12.3914 25.6779 12.3844 25.3508 12.4176C23.9455 12.5752 22.5448 12.7512 21.1419 12.9226C20.7681 12.9513 20.3923 12.9142 20.0314 12.8129C18.5463 12.476 17.1945 11.7063 16.1469 10.601C14.9964 9.42056 14.2645 7.89561 14.063 6.25958C14.0468 6.01423 14.0614 5.76782 14.1064 5.5261C14.2413 4.4316 14.3943 3.33939 14.5177 2.24488C14.5646 1.7726 14.5875 1.29824 14.5863 0.823631C14.5979 0.671856 14.5595 0.520443 14.477 0.392532C14.3945 0.264622 14.2724 0.167248 14.1293 0.11529C14.0026 0.0508671 13.8609 0.0217876 13.7191 0.0311069C13.5773 0.0404282 13.4406 0.0878048 13.3234 0.168253C13.2062 0.248701 13.1129 0.359243 13.0533 0.488249C12.9937 0.617254 12.9699 0.759951 12.9845 0.901321C12.9825 1.61005 13.0321 2.31798 13.133 3.01949C13.2541 4.02488 13.4118 5.02341 13.5123 6.0288C13.5221 6.33771 13.4827 6.6462 13.3958 6.94279C13.0665 8.46131 12.2774 9.84154 11.136 10.8958C10.0227 11.9518 8.6175 12.6485 7.103 12.8951C6.59116 12.9843 6.10446 12.854 5.61091 12.7992C4.55068 12.6804 3.49046 12.5501 2.43023 12.4404C2.10348 12.4062 1.77444 12.4176 1.44541 12.4039C1.30543 12.3991 1.16674 12.4319 1.04367 12.4987C0.920605 12.5656 0.817632 12.6641 0.745405 12.7841C0.673178 12.9041 0.634322 13.0412 0.632856 13.1812C0.631389 13.3213 0.667366 13.4592 0.737064 13.5806C0.798907 13.7042 0.895325 13.8071 1.01459 13.8769C1.13386 13.9467 1.27083 13.9803 1.40885 13.9736C2.1732 13.9833 2.93715 13.9337 3.69382 13.8251C4.55297 13.7177 5.41212 13.5966 6.26898 13.4778C6.87116 13.4213 7.47837 13.4993 8.04669 13.7063C9.96031 14.2696 11.5791 15.5565 12.5595 17.2937C13.0823 18.1842 13.4095 19.1757 13.5192 20.2025C13.5254 20.4034 13.5078 20.6044 13.4666 20.8011C13.3227 21.9939 13.1742 23.1889 13.0325 24.384C13.0005 24.6719 13.0028 24.9667 12.9799 25.2568C12.9411 25.7138 13.0554 26.0794 13.4735 26.3102L14.0836 26.3125Z" fill="#2C2C2C"></path>
    <path d="M9.75984 9.14151C9.41253 8.66623 9.07435 8.18182 8.7179 7.71568C7.90749 6.67374 7.09176 5.63712 6.27069 4.60584C6.07391 4.36533 5.86334 4.13645 5.64004 3.92034C5.56905 3.83579 5.4804 3.7678 5.38034 3.72116C5.28027 3.67451 5.1712 3.65034 5.0608 3.65034C4.95039 3.65034 4.84133 3.67451 4.74126 3.72116C4.64119 3.7678 4.55255 3.83579 4.48156 3.92034C4.40444 3.99244 4.34358 4.08016 4.30304 4.17763C4.26249 4.27511 4.2432 4.38011 4.24644 4.48563C4.24969 4.59115 4.27539 4.69477 4.32185 4.78957C4.3683 4.88438 4.43443 4.96818 4.51583 5.03541C5.15562 5.61351 5.80456 6.1779 6.48091 6.72172C7.43831 7.48719 8.41628 8.20924 9.39882 8.94728C9.5085 9.02954 9.62732 9.09809 9.73699 9.17578L9.75984 9.14151Z" fill="#2C2C2C"></path>
    <path d="M17.8008 9.13281C18.356 8.72152 18.9715 8.35652 19.5153 7.93152C20.5482 7.12416 21.5749 6.30918 22.5955 5.48659C22.778 5.33569 22.9484 5.17066 23.105 4.99304C23.2437 4.84783 23.3193 4.65371 23.3155 4.45298C23.3116 4.25224 23.2286 4.06117 23.0845 3.92139C22.7486 3.58093 22.3281 3.5398 21.9923 3.86198C21.6348 4.1995 21.3011 4.5614 20.9937 4.94506C20.0203 6.1858 19.0698 7.44253 18.1101 8.69241C18.0073 8.82951 17.8968 8.99114 17.8008 9.13281Z" fill="#2C2C2C"></path>
    <path d="M17.8555 17.2919C17.9332 17.4198 18.0017 17.5546 18.084 17.6734C18.918 18.7679 19.7451 19.8647 20.5974 20.9455C21.0087 21.4665 21.4589 21.9532 21.9067 22.4445C22.0286 22.5707 22.19 22.6516 22.3641 22.6736C22.5382 22.6956 22.7146 22.6575 22.8641 22.5656C23.0194 22.477 23.1401 22.3384 23.2065 22.1724C23.2729 22.0064 23.2811 21.8228 23.2297 21.6516C23.1747 21.5072 23.0871 21.3774 22.9738 21.2723C22.3729 20.7422 21.7788 20.2029 21.1458 19.7094C20.1564 18.9347 19.1419 18.1921 18.1365 17.4244C18.0543 17.3627 17.9629 17.3101 17.8783 17.253L17.8555 17.2919Z" fill="#2C2C2C"></path>
    <path d="M9.69869 17.2262C8.09921 18.4098 6.49973 19.5683 4.99165 20.8821C4.82713 21.0261 4.67175 21.1814 4.52094 21.3391C4.45011 21.4112 4.39421 21.4965 4.35643 21.5903C4.31866 21.684 4.29976 21.7843 4.30082 21.8853C4.30189 21.9864 4.32288 22.0862 4.36262 22.1791C4.40235 22.272 4.46004 22.3562 4.53237 22.4268C4.60327 22.5052 4.68983 22.5678 4.78645 22.6107C4.88307 22.6536 4.98761 22.6758 5.09333 22.6758C5.19904 22.6758 5.30358 22.6536 5.4002 22.6107C5.49682 22.5678 5.58338 22.5052 5.65429 22.4268C6.02709 22.0514 6.37948 21.6563 6.70994 21.2431C7.62393 20.0778 8.50822 18.8988 9.40393 17.722C9.52275 17.5666 9.63242 17.4044 9.7421 17.2444L9.69869 17.2262Z" fill="#2C2C2C"></path>
  </g>
  <defs>
    <clipPath id="clip0_3551_4536">
      <rect width="26.2726" height="26.2589" fill="white" transform="matrix(1 0 0 -1 0.644531 26.3125)"></rect>
    </clipPath>
  </defs>
</svg>
