<svg width="312" height="46" viewBox="0 0 312 46" fill="none" xmlns="http://www.w3.org/2000/svg">
<path d="M71.3348 1.4765C68.6117 1.44369 65.9214 1.8374 63.3623 2.65761V15.092C63.9529 14.3702 64.6418 13.6813 65.3964 13.1235C66.9712 11.9424 68.9726 11.3519 71.3348 11.3519C73.7298 11.3519 75.7311 11.9424 77.3059 13.1235C78.2574 13.8125 79.0776 14.6655 79.7338 15.617V2.82165C77.0435 1.87021 74.1891 1.44369 71.3348 1.4765Z" fill="url(#paint0_linear_3736_6090)"/>
<path d="M93.7105 23.5209C93.7105 26.2768 93.2512 29.0327 92.2998 31.6246C91.3811 34.2493 89.9704 36.6771 88.1003 38.744C86.1318 40.9094 83.7368 42.6483 81.0793 43.7965C78.2905 45.0433 75.0425 45.6666 71.3023 45.6666C67.5622 45.6666 64.3141 45.0433 61.5254 43.7965C58.8679 42.6154 56.4729 40.9094 54.5372 38.744C52.6999 36.6771 51.2563 34.2493 50.3049 31.6246C49.3535 29.0327 48.8613 26.2768 48.8613 23.5209C48.8613 20.765 49.3535 18.0419 50.3049 15.4828C51.2563 12.8581 52.6671 10.4631 54.5372 8.39618C56.4729 6.23082 58.8679 4.52478 61.4926 3.37648C62.0832 3.11401 62.6737 2.88435 63.2971 2.6875V15.0891C62.6737 15.8765 62.1488 16.7623 61.7551 17.681C60.1474 21.4212 60.1474 25.6206 61.7551 29.3608C62.5097 31.1981 63.7564 32.7729 65.3312 33.954C66.906 35.1351 68.9073 35.7257 71.2695 35.7257C73.6317 35.7257 75.6659 35.1351 77.2407 33.954C78.8155 32.7729 80.0622 31.1981 80.8168 29.3608C82.3916 25.6206 82.3916 21.4212 80.8168 17.681C80.5215 16.9592 80.1278 16.2374 79.6685 15.6141V2.81874C80.1278 2.98278 80.5871 3.14682 81.0137 3.37648C83.6711 4.52478 86.0662 6.26363 88.0347 8.39618C89.9048 10.4631 91.3155 12.8581 92.2342 15.4828C93.2512 18.0747 93.7105 20.765 93.7105 23.5209Z" fill="white"/>
<path d="M110.116 45.1093V28.8691H98.9609V45.1093H110.116Z" fill="url(#paint1_linear_3736_6090)"/>
<path d="M110.116 2.06641H98.9609V28.8709H110.116V2.06641Z" fill="white"/>
<path d="M143.483 2.06641V25.9838L143.45 25.951V44.1597L144.139 45.144H154.539V2.06641H143.483Z" fill="url(#paint2_linear_3736_6090)"/>
<path d="M143.449 25.9182V44.1269L128.357 22.4077V45.1112H117.301V2.06641H127.603L143.449 25.9182Z" fill="white"/>
<path d="M161.296 2.06641V20.9969H172.451V11.7121H192.464V2.06641H161.296Z" fill="url(#paint3_linear_3736_6090)"/>
<path d="M189.839 21.0328V30.2848H172.451V45.1142H161.296V21H172.451V21.0328H189.839Z" fill="white"/>
<path d="M199.158 2.06641V45.1112H210.313V2.06641H199.158Z" fill="url(#paint4_linear_3736_6090)"/>
<path d="M230.654 35.4316H210.346V45.0773H230.654V35.4316Z" fill="white"/>
<path d="M227.734 18.6992H210.346V27.8856H227.734V18.6992Z" fill="white"/>
<path d="M230.359 2.06641H210.346V11.7121H230.359V2.06641Z" fill="white"/>
<path d="M270.123 11.4218C269.697 10.2735 269.106 9.19086 268.384 8.2066C266.449 5.4835 263.693 3.44937 260.51 2.46512C258.575 1.80895 256.212 1.51367 253.457 1.51367C249.913 1.51367 246.895 2.10422 244.336 3.25252C241.777 4.40082 239.808 6.04124 238.43 8.07537C237.085 10.0767 236.363 12.4389 236.363 14.8667H247.321C247.321 14.7683 247.321 14.6699 247.321 14.5715C247.321 13.9153 247.518 13.2591 247.879 12.7014C248.338 12.0124 248.995 11.4546 249.749 11.1266C250.635 10.7 251.783 10.4704 253.26 10.4704C254.834 10.4704 256.048 10.7 256.967 11.1266C257.754 11.4875 258.443 12.0124 259.034 12.6358C259.526 13.2919 259.92 14.0137 260.149 14.8011H271.14C270.878 13.6528 270.55 12.5045 270.123 11.4218Z" fill="url(#paint5_linear_3736_6090)"/>
<path d="M272.288 31.855C272.321 34.3812 271.599 36.8747 270.188 39.0072C268.777 41.107 266.776 42.7146 264.151 43.9285C261.527 45.1096 258.311 45.7001 254.473 45.7001C251.487 45.7001 248.928 45.3393 246.829 44.6503C244.926 44.0925 243.187 43.1739 241.612 41.9928C240.332 41.0085 239.217 39.8274 238.331 38.5151C237.609 37.4324 236.986 36.2513 236.527 35.0046C236.1 33.7907 235.805 32.5439 235.575 31.2644H246.861C247.124 32.2487 247.55 33.1673 248.108 33.9875C248.764 34.8077 249.584 35.4311 250.503 35.8576C251.586 36.4153 253.062 36.6778 254.932 36.6778C257.229 36.6778 258.836 36.2513 259.722 35.3655C260.641 34.4796 261.1 33.561 261.1 32.5439C261.133 31.6909 260.772 30.8379 260.083 30.313C259.394 29.7552 258.213 29.3287 256.54 29.0662L250.798 28.1476C248.37 27.7539 246.008 27.0649 243.744 26.1135C241.645 25.2605 239.775 23.8825 238.364 22.1108C236.986 20.372 236.297 18.0754 236.297 15.2539C236.297 15.1554 236.297 15.0242 236.297 14.9258H247.321C247.386 15.8772 248.01 16.7303 248.895 17.0911C250.142 17.6817 251.455 18.0754 252.832 18.2722L258.869 19.2565C261.166 19.6174 263.43 20.3064 265.529 21.3234C267.498 22.2421 269.171 23.6528 270.451 25.3917C271.665 27.0977 272.288 29.2631 272.288 31.855Z" fill="white"/>
<path d="M287.677 2.06641V11.7121H287.71V45.0784H298.864V2.06641H287.677Z" fill="url(#paint6_linear_3736_6090)"/>
<path d="M311.887 2.06641H298.862V11.7121H311.887V2.06641Z" fill="white"/>
<path d="M287.641 2.06641H274.648V11.7121H287.641V2.06641Z" fill="white"/>
<path d="M32.1942 29.203C31.8661 30.3513 31.3412 31.434 30.685 32.4182C29.9632 33.3697 29.0118 34.1243 27.9291 34.6492C26.6824 35.3054 25.0091 35.6335 22.975 35.6335C20.5472 35.6335 18.513 35.0101 16.9054 33.7634C15.265 32.5167 14.0183 30.8762 13.2637 29.0062C13.1653 28.7437 13.034 28.4812 12.9684 28.2188H0.599609C0.829269 29.2686 1.12454 30.3185 1.48544 31.3684C2.43688 34.0915 3.88046 36.5849 5.78335 38.7831C7.75186 41.0469 10.1797 42.8185 12.9028 44.0324C15.7571 45.3448 19.1036 46.001 22.8766 46.001C26.1246 46.001 28.8805 45.6073 31.1771 44.787C33.2769 44.0981 35.2126 43.0482 36.9186 41.6702C38.3622 40.5219 39.5761 39.144 40.5604 37.602C41.3806 36.3225 42.0695 34.9773 42.5945 33.5665C43.0538 32.2542 43.4147 30.9419 43.6772 29.5639C43.6772 29.4327 43.71 29.3342 43.7428 29.2358L32.1942 29.203Z" fill="url(#paint7_linear_3736_6090)"/>
<path d="M43.6782 16.7651H32.1952C31.8671 15.6168 31.3422 14.5342 30.686 13.5499C29.9643 12.5985 29.0128 11.8111 27.9301 11.2861C26.6834 10.63 25.0102 10.3019 22.976 10.3019C20.5482 10.3019 18.5141 10.9252 16.9065 12.1391C15.266 13.3531 14.0193 14.9935 13.2647 16.8964C11.7555 20.5053 11.6571 24.5408 12.9694 28.2153H0.56784C-0.416415 23.6877 -0.12114 18.9305 1.45367 14.567C2.40511 11.8767 3.84869 9.38323 5.75158 7.21787C7.72009 4.98689 10.1479 3.18242 12.871 1.96851C15.7254 0.65617 19.0718 0 22.8448 0C26.0929 0 28.8488 0.426509 31.1454 1.21391C33.2451 1.90289 35.1808 2.95276 36.8868 4.33072C38.2976 5.47902 39.5443 6.85698 40.5286 8.36617C41.3488 9.6457 42.0378 10.9908 42.5627 12.4344C43.0548 13.8124 43.4157 15.256 43.6782 16.7651Z" fill="white"/>
<defs>
<linearGradient id="paint0_linear_3736_6090" x1="71.5464" y1="15.6284" x2="71.5464" y2="1.49661" gradientUnits="userSpaceOnUse">
<stop stop-color="white"/>
<stop offset="0.08" stop-color="white" stop-opacity="0.96"/>
<stop offset="0.2" stop-color="white" stop-opacity="0.85"/>
<stop offset="0.35" stop-color="white" stop-opacity="0.68"/>
<stop offset="0.54" stop-color="white" stop-opacity="0.44"/>
<stop offset="0.75" stop-color="white" stop-opacity="0.14"/>
<stop offset="0.84" stop-color="white" stop-opacity="0"/>
</linearGradient>
<linearGradient id="paint1_linear_3736_6090" x1="110.122" y1="36.9811" x2="98.9676" y2="36.9811" gradientUnits="userSpaceOnUse">
<stop stop-color="white"/>
<stop offset="0.08" stop-color="white" stop-opacity="0.96"/>
<stop offset="0.2" stop-color="white" stop-opacity="0.85"/>
<stop offset="0.35" stop-color="white" stop-opacity="0.68"/>
<stop offset="0.54" stop-color="white" stop-opacity="0.44"/>
<stop offset="0.75" stop-color="white" stop-opacity="0.14"/>
<stop offset="0.84" stop-color="white" stop-opacity="0"/>
</linearGradient>
<linearGradient id="paint2_linear_3736_6090" x1="148.993" y1="2.06477" x2="148.993" y2="45.1259" gradientUnits="userSpaceOnUse">
<stop stop-color="white"/>
<stop offset="0.08" stop-color="white" stop-opacity="0.96"/>
<stop offset="0.2" stop-color="white" stop-opacity="0.85"/>
<stop offset="0.35" stop-color="white" stop-opacity="0.68"/>
<stop offset="0.54" stop-color="white" stop-opacity="0.44"/>
<stop offset="0.75" stop-color="white" stop-opacity="0.14"/>
<stop offset="0.84" stop-color="white" stop-opacity="0"/>
</linearGradient>
<linearGradient id="paint3_linear_3736_6090" x1="161.306" y1="11.5349" x2="192.474" y2="11.5349" gradientUnits="userSpaceOnUse">
<stop stop-color="white" stop-opacity="0"/>
<stop offset="0.3" stop-color="white" stop-opacity="0.36"/>
<stop offset="0.59" stop-color="white" stop-opacity="0.68"/>
<stop offset="0.8" stop-color="white" stop-opacity="0.89"/>
<stop offset="0.9" stop-color="white" stop-opacity="0.97"/>
<stop offset="1" stop-color="white"/>
</linearGradient>
<linearGradient id="paint4_linear_3736_6090" x1="204.749" y1="2.06477" x2="204.749" y2="45.103" gradientUnits="userSpaceOnUse">
<stop stop-color="white" stop-opacity="0"/>
<stop offset="0.3" stop-color="white" stop-opacity="0.36"/>
<stop offset="0.59" stop-color="white" stop-opacity="0.68"/>
<stop offset="0.8" stop-color="white" stop-opacity="0.89"/>
<stop offset="0.9" stop-color="white" stop-opacity="0.97"/>
<stop offset="1" stop-color="white"/>
</linearGradient>
<linearGradient id="paint5_linear_3736_6090" x1="236.347" y1="8.17708" x2="271.081" y2="8.17708" gradientUnits="userSpaceOnUse">
<stop stop-color="white" stop-opacity="0"/>
<stop offset="0.3" stop-color="white" stop-opacity="0.36"/>
<stop offset="0.59" stop-color="white" stop-opacity="0.68"/>
<stop offset="0.8" stop-color="white" stop-opacity="0.89"/>
<stop offset="0.9" stop-color="white" stop-opacity="0.97"/>
<stop offset="1" stop-color="white"/>
</linearGradient>
<linearGradient id="paint6_linear_3736_6090" x1="293.271" y1="2.06477" x2="293.271" y2="45.103" gradientUnits="userSpaceOnUse">
<stop stop-color="white" stop-opacity="0"/>
<stop offset="0.3" stop-color="white" stop-opacity="0.36"/>
<stop offset="0.59" stop-color="white" stop-opacity="0.68"/>
<stop offset="0.8" stop-color="white" stop-opacity="0.89"/>
<stop offset="0.9" stop-color="white" stop-opacity="0.97"/>
<stop offset="1" stop-color="white"/>
</linearGradient>
<linearGradient id="paint7_linear_3736_6090" x1="43.6837" y1="37.0869" x2="0.514306" y2="37.0869" gradientUnits="userSpaceOnUse">
<stop stop-color="white"/>
<stop offset="0.08" stop-color="white" stop-opacity="0.96"/>
<stop offset="0.2" stop-color="white" stop-opacity="0.85"/>
<stop offset="0.35" stop-color="white" stop-opacity="0.68"/>
<stop offset="0.54" stop-color="white" stop-opacity="0.44"/>
<stop offset="0.75" stop-color="white" stop-opacity="0.14"/>
<stop offset="0.84" stop-color="white" stop-opacity="0"/>
</linearGradient>
</defs>
</svg>
