<svg width="144" height="48" viewBox="0 0 144 48" fill="none" xmlns="http://www.w3.org/2000/svg">
<path d="M47.619 47.6946V40.1035H42.4707V47.6946H47.619Z" fill="url(#paint0_linear_4407_4376)"/>
<path d="M47.619 27.5742H42.4707V40.1033H47.619V27.5742Z" fill="url(#paint1_linear_4407_4376)"/>
<path d="M37.792 31.9282C37.58 31.3914 37.3226 30.8854 36.9895 30.41C36.5958 29.8426 36.1112 29.3365 35.5661 28.9071C34.8999 28.3857 34.1428 27.987 33.3403 27.7416C32.4469 27.4349 31.3567 27.2969 30.0999 27.2969C28.4646 27.2969 27.0715 27.5729 25.8904 28.1097C24.7851 28.5851 23.8463 29.3672 23.1649 30.364C22.544 31.3148 22.2109 32.4189 22.2109 33.5537H27.2684C27.2684 33.5077 27.2684 33.4617 27.2684 33.4157C27.2684 33.109 27.3592 32.8023 27.5258 32.5416C27.7377 32.2196 28.0406 31.9589 28.3888 31.8055C28.7977 31.6061 29.3277 31.4988 30.009 31.4988C30.7359 31.4988 31.2961 31.5908 31.7201 31.8055C32.0835 31.9742 32.4015 32.2196 32.674 32.5109C32.9012 32.8176 33.0829 33.1704 33.1737 33.5384H38.2463C38.1251 33.0017 37.9737 32.4496 37.792 31.9282Z" fill="url(#paint2_linear_4407_4376)"/>
<path d="M38.7773 41.4831C38.7925 42.664 38.4594 43.8295 37.8083 44.8263C37.1572 45.8077 36.2335 46.5745 35.0221 47.1266C33.8108 47.6787 32.3269 47.9547 30.5704 47.9547C29.1925 47.9547 28.0114 47.786 27.0423 47.464C26.1641 47.2032 25.3616 46.7739 24.6348 46.2218C24.0442 45.7617 23.5294 45.2096 23.1206 44.5962C22.7874 44.0902 22.4997 43.5381 22.2878 42.9553C22.0909 42.3879 21.9546 41.8052 21.8486 41.2071H27.0575C27.1786 41.6671 27.3754 42.0965 27.6329 42.4799C27.9357 42.8633 28.3142 43.1547 28.7382 43.354C29.2379 43.6148 29.9193 43.7374 30.7824 43.7374C31.8423 43.7374 32.5843 43.5227 32.9931 43.124C33.4019 42.7253 33.6291 42.2806 33.6291 41.8052C33.6442 41.4064 33.4776 41.0077 33.1597 40.7624C32.8417 40.5017 32.2966 40.3023 31.5243 40.1796L28.8745 39.7502C27.754 39.5662 26.6638 39.2441 25.619 38.7994C24.6499 38.4007 23.7868 37.7566 23.1357 36.9285C22.4997 36.1157 22.1817 35.0422 22.1817 33.7234C22.1817 33.662 22.1817 33.616 22.1817 33.5547H27.2392C27.2694 33.9994 27.5572 34.3981 27.966 34.5668C28.5414 34.8429 29.1471 35.0269 29.783 35.1189L32.5691 35.579C33.6291 35.7477 34.6739 36.0697 35.643 36.5451C36.5515 36.9745 37.3237 37.6339 37.9142 38.4467C38.4896 39.2595 38.7773 40.2716 38.7773 41.4831Z" fill="url(#paint3_linear_4407_4376)"/>
<path d="M6.60093 27.5898L-0.000976562 47.71H5.35928L6.40408 44.3362L7.78199 39.8889L9.31133 34.9509L10.0836 32.4512L11.5826 27.5898H6.60093Z" fill="url(#paint4_linear_4407_4376)"/>
<path d="M20.1527 47.71H14.7925L13.7477 44.3362H6.41895L7.79686 39.8889H12.3697L10.0833 32.4512L11.5975 27.5898H13.5508L20.1527 47.71Z" fill="url(#paint5_linear_4407_4376)"/>
<path d="M57.4622 27.5898L50.8604 47.71H56.2206L57.2654 44.3362L58.6433 39.8889L60.1727 34.9509L60.9449 32.4512L62.4439 27.5898H57.4622Z" fill="url(#paint6_linear_4407_4376)"/>
<path d="M71.013 47.71H65.6528L64.5929 44.3362H57.2793L58.6572 39.8889H63.2301L60.9436 32.4512L62.4427 27.5898H64.4112L71.013 47.71Z" fill="url(#paint7_linear_4407_4376)"/>
<path d="M32.9227 0.690338C31.6659 0.675002 30.4242 0.859029 29.2432 1.24242V7.05455C29.5157 6.71717 29.8337 6.39513 30.182 6.13443C30.9088 5.58235 31.8324 5.30631 32.9227 5.30631C34.028 5.30631 34.9517 5.58235 35.6785 6.13443C36.1176 6.45647 36.4962 6.85519 36.799 7.29992V1.31909C35.5574 0.874364 34.24 0.675002 32.9227 0.690338Z" fill="url(#paint8_linear_4407_4376)"/>
<path d="M43.2518 10.9939C43.2518 12.2821 43.0398 13.5702 42.6007 14.7817C42.1767 16.0086 41.5256 17.1434 40.6625 18.1095C39.754 19.1217 38.6486 19.9345 37.4221 20.4712C36.1351 21.0539 34.636 21.3453 32.9098 21.3453C31.1836 21.3453 29.6846 21.0539 28.3975 20.4712C27.171 19.9191 26.0657 19.1217 25.1723 18.1095C24.3243 17.1434 23.6581 16.0086 23.219 14.7817C22.7799 13.5702 22.5527 12.2821 22.5527 10.9939C22.5527 9.7057 22.7799 8.43286 23.219 7.23669C23.6581 6.00985 24.3092 4.89037 25.1723 3.92423C26.0657 2.91209 27.171 2.11465 28.3824 1.57791C28.6549 1.45522 28.9275 1.34787 29.2152 1.25586V7.05267C28.9275 7.42072 28.6852 7.83477 28.5035 8.26417C27.7616 10.0124 27.7616 11.9753 28.5035 13.7236C28.8518 14.5824 29.4272 15.3185 30.154 15.8706C30.8808 16.4226 31.8045 16.6987 32.8947 16.6987C33.9849 16.6987 34.9237 16.4226 35.6505 15.8706C36.3773 15.3185 36.9527 14.5824 37.301 13.7236C38.0278 11.9753 38.0278 10.0124 37.301 8.26417C37.1647 7.92679 36.983 7.58941 36.771 7.29803V1.3172C36.983 1.39388 37.195 1.47056 37.3919 1.57791C38.6184 2.11465 39.7237 2.92743 40.6322 3.92423C41.4953 4.89037 42.1464 6.00985 42.5704 7.23669C43.0398 8.44819 43.2518 9.7057 43.2518 10.9939Z" fill="url(#paint9_linear_4407_4376)"/>
<path d="M50.8201 21.0871V13.4961H45.6719V21.0871H50.8201Z" fill="url(#paint10_linear_4407_4376)"/>
<path d="M50.8201 0.966797H45.6719V13.4959H50.8201V0.966797Z" fill="url(#paint11_linear_4407_4376)"/>
<path d="M66.2202 0.966797V12.1463L66.2051 12.131V20.6422L66.5231 21.1023H71.3231V0.966797H66.2202Z" fill="url(#paint12_linear_4407_4376)"/>
<path d="M66.2029 12.1157V20.6269L59.2376 10.4748V21.0869H54.1348V0.966797H58.8893L66.2029 12.1157Z" fill="url(#paint13_linear_4407_4376)"/>
<path d="M74.4434 0.966797V9.81536H79.5916V5.47542H88.8282V0.966797H74.4434V0.966797Z" fill="url(#paint14_linear_4407_4376)"/>
<path d="M87.6169 9.82979V14.1544H79.5916V21.086H74.4434V9.81445H79.5916V9.82979H87.6169Z" fill="url(#paint15_linear_4407_4376)"/>
<path d="M91.916 0.966797V21.0869H97.0643V0.966797H91.916Z" fill="url(#paint16_linear_4407_4376)"/>
<path d="M106.452 16.5625H97.0791V21.0711H106.452V16.5625Z" fill="url(#paint17_linear_4407_4376)"/>
<path d="M105.104 8.74023H97.0791V13.0342H105.104V8.74023Z" fill="url(#paint18_linear_4407_4376)"/>
<path d="M106.316 0.966797H97.0791V5.47542H106.316V0.966797Z" fill="url(#paint19_linear_4407_4376)"/>
<path d="M124.668 5.33639C124.471 4.79965 124.199 4.29358 123.865 3.83351C122.972 2.56067 121.7 1.60987 120.231 1.14981C119.338 0.843096 118.248 0.705078 116.976 0.705078C115.341 0.705078 113.947 0.981115 112.766 1.51786C111.585 2.0546 110.677 2.82137 110.041 3.77217C109.42 4.70763 109.087 5.81179 109.087 6.94661H114.144C114.144 6.90061 114.144 6.8546 114.144 6.80859C114.144 6.50188 114.235 6.19517 114.402 5.93447C114.614 5.61243 114.917 5.35172 115.265 5.19837C115.674 4.99901 116.204 4.89166 116.885 4.89166C117.612 4.89166 118.172 4.99901 118.596 5.19837C118.959 5.36706 119.277 5.61243 119.55 5.9038C119.777 6.21051 119.959 6.54789 120.065 6.91594H125.137C125.016 6.3792 124.865 5.84246 124.668 5.33639Z" fill="url(#paint20_linear_4407_4376)"/>
<path d="M125.666 14.8897C125.681 16.0705 125.348 17.236 124.696 18.2328C124.045 19.2143 123.122 19.9657 121.91 20.5331C120.699 21.0852 119.215 21.3612 117.443 21.3612C116.066 21.3612 114.884 21.1925 113.915 20.8705C113.037 20.6098 112.235 20.1804 111.508 19.6283C110.917 19.1683 110.402 18.6162 109.994 18.0028C109.66 17.4967 109.373 16.9446 109.161 16.3619C108.964 15.7945 108.828 15.2117 108.722 14.6136H113.931C114.052 15.0737 114.248 15.5031 114.506 15.8865C114.809 16.2699 115.187 16.5612 115.611 16.7606C116.111 17.0213 116.792 17.144 117.655 17.144C118.715 17.144 119.457 16.9446 119.866 16.5306C120.29 16.1165 120.502 15.6871 120.502 15.2117C120.517 14.813 120.351 14.4143 120.033 14.1689C119.715 13.9082 119.17 13.7088 118.397 13.5861L115.748 13.1568C114.627 12.9727 113.537 12.6507 112.492 12.206C111.523 11.8072 110.66 11.1631 110.009 10.335C109.373 9.52225 109.055 8.44877 109.055 7.12992C109.055 7.08391 109.055 7.02257 109.055 6.97656H114.142C114.173 7.42129 114.46 7.82001 114.869 7.9887C115.445 8.26474 116.05 8.44877 116.686 8.54078L119.472 9.00084C120.532 9.16953 121.577 9.49158 122.546 9.96698C123.455 10.3964 124.227 11.0558 124.818 11.8686C125.378 12.666 125.666 13.6782 125.666 14.8897Z" fill="url(#paint21_linear_4407_4376)"/>
<path d="M132.77 0.966797V5.47542H132.785V21.0716H137.933V0.966797H132.77Z" fill="url(#paint22_linear_4407_4376)"/>
<path d="M143.944 0.966797H137.933V5.47542H143.944V0.966797Z" fill="url(#paint23_linear_4407_4376)"/>
<path d="M132.753 0.966797H126.757V5.47542H132.753V0.966797Z" fill="url(#paint24_linear_4407_4376)"/>
<path d="M14.859 13.6476C14.7076 14.1843 14.4654 14.6904 14.1625 15.1504C13.8294 15.5952 13.3903 15.9479 12.8906 16.1933C12.3152 16.5 11.543 16.6533 10.6042 16.6533C9.48365 16.6533 8.54485 16.3619 7.8029 15.7792C7.0458 15.1964 6.4704 14.4297 6.12214 13.5556C6.07671 13.4329 6.01614 13.3102 5.98586 13.1875H0.277344C0.383337 13.6782 0.519615 14.169 0.686176 14.6597C1.12529 15.9325 1.79154 17.098 2.66977 18.1255C3.57829 19.1837 4.6988 20.0118 5.95558 20.5792C7.27293 21.1926 8.81741 21.4993 10.5587 21.4993C12.0578 21.4993 13.3297 21.3153 14.3896 20.9319C15.3587 20.6099 16.2521 20.1191 17.0395 19.475C17.7057 18.9383 18.266 18.2942 18.7202 17.5734C19.0988 16.9754 19.4168 16.3466 19.659 15.6872C19.871 15.0738 20.0376 14.4603 20.1587 13.8163C20.1587 13.7549 20.1739 13.7089 20.189 13.6629L14.859 13.6476Z" fill="url(#paint25_linear_4407_4376)"/>
<path d="M20.1586 7.83642H14.8589C14.7075 7.29968 14.4652 6.79361 14.1624 6.33355C13.8293 5.88882 13.3901 5.52077 12.8905 5.2754C12.3151 4.96869 11.5428 4.81533 10.604 4.81533C9.48352 4.81533 8.54472 5.10671 7.80277 5.67412C7.04567 6.24153 6.47027 7.00831 6.12201 7.89776C5.42548 9.58466 5.38005 11.4709 5.98573 13.1885H0.262072C-0.192186 11.0722 -0.0559091 8.84856 0.670905 6.80894C1.11002 5.55144 1.77627 4.38594 2.6545 3.3738C3.56302 2.33099 4.68352 1.48754 5.9403 0.920128C7.25765 0.306709 8.80214 0 10.5435 0C12.0425 0 13.3144 0.199361 14.3744 0.567412C15.3435 0.889456 16.2368 1.38019 17.0242 2.02428C17.6753 2.56102 18.2507 3.20511 18.705 3.91054C19.0835 4.50863 19.4015 5.13738 19.6438 5.81214C19.8709 6.45623 20.0375 7.13099 20.1586 7.83642Z" fill="url(#paint26_linear_4407_4376)"/>
<defs>
<linearGradient id="paint0_linear_4407_4376" x1="47.6129" y1="43.9021" x2="42.4706" y2="43.9021" gradientUnits="userSpaceOnUse">
<stop stop-color="#004ED0"/>
<stop offset="0.09" stop-color="#004ED0" stop-opacity="0.95"/>
<stop offset="0.23" stop-color="#004ED0" stop-opacity="0.82"/>
<stop offset="0.41" stop-color="#004ED0" stop-opacity="0.61"/>
<stop offset="0.63" stop-color="#004ED0" stop-opacity="0.32"/>
<stop offset="0.84" stop-color="#004ED0" stop-opacity="0"/>
</linearGradient>
<linearGradient id="paint1_linear_4407_4376" x1="42.4707" y1="33.8388" x2="47.7704" y2="33.8388" gradientUnits="userSpaceOnUse">
<stop stop-color="#004ED0"/>
<stop offset="1" stop-color="#5B97FC"/>
</linearGradient>
<linearGradient id="paint2_linear_4407_4376" x1="22.2201" y1="30.4215" x2="38.2661" y2="30.4215" gradientUnits="userSpaceOnUse">
<stop offset="0.02" stop-color="#004ED0" stop-opacity="0"/>
<stop offset="0.35" stop-color="#004ED0" stop-opacity="0.38"/>
<stop offset="0.66" stop-color="#004ED0" stop-opacity="0.72"/>
<stop offset="0.89" stop-color="#004ED0" stop-opacity="0.92"/>
<stop offset="1" stop-color="#004ED0"/>
</linearGradient>
<linearGradient id="paint3_linear_4407_4376" x1="21.8486" y1="40.7547" x2="39.2758" y2="40.7547" gradientUnits="userSpaceOnUse">
<stop stop-color="#004ED0"/>
<stop offset="1" stop-color="#5B97FC"/>
</linearGradient>
<linearGradient id="paint4_linear_4407_4376" x1="1.59264" y1="48.3767" x2="10.5107" y2="27.1405" gradientUnits="userSpaceOnUse">
<stop stop-color="#004ED0"/>
<stop offset="0.09" stop-color="#004ED0" stop-opacity="0.95"/>
<stop offset="0.23" stop-color="#004ED0" stop-opacity="0.82"/>
<stop offset="0.41" stop-color="#004ED0" stop-opacity="0.61"/>
<stop offset="0.63" stop-color="#004ED0" stop-opacity="0.32"/>
<stop offset="0.84" stop-color="#004ED0" stop-opacity="0"/>
</linearGradient>
<linearGradient id="paint5_linear_4407_4376" x1="6.41895" y1="37.6499" x2="20.5566" y2="37.6499" gradientUnits="userSpaceOnUse">
<stop stop-color="#004ED0"/>
<stop offset="1" stop-color="#5B97FC"/>
</linearGradient>
<linearGradient id="paint6_linear_4407_4376" x1="52.4603" y1="48.3762" x2="61.3781" y2="27.1404" gradientUnits="userSpaceOnUse">
<stop stop-color="#004ED0"/>
<stop offset="0.09" stop-color="#004ED0" stop-opacity="0.95"/>
<stop offset="0.23" stop-color="#004ED0" stop-opacity="0.82"/>
<stop offset="0.41" stop-color="#004ED0" stop-opacity="0.61"/>
<stop offset="0.63" stop-color="#004ED0" stop-opacity="0.32"/>
<stop offset="0.84" stop-color="#004ED0" stop-opacity="0"/>
</linearGradient>
<linearGradient id="paint7_linear_4407_4376" x1="57.2793" y1="37.6499" x2="71.417" y2="37.6499" gradientUnits="userSpaceOnUse">
<stop stop-color="#004ED0"/>
<stop offset="1" stop-color="#5B97FC"/>
</linearGradient>
<linearGradient id="paint8_linear_4407_4376" x1="33.0158" y1="7.28916" x2="33.0158" y2="0.690216" gradientUnits="userSpaceOnUse">
<stop stop-color="#004ED0"/>
<stop offset="0.09" stop-color="#004ED0" stop-opacity="0.95"/>
<stop offset="0.23" stop-color="#004ED0" stop-opacity="0.82"/>
<stop offset="0.41" stop-color="#004ED0" stop-opacity="0.61"/>
<stop offset="0.63" stop-color="#004ED0" stop-opacity="0.32"/>
<stop offset="0.84" stop-color="#004ED0" stop-opacity="0"/>
</linearGradient>
<linearGradient id="paint9_linear_4407_4376" x1="22.5527" y1="11.3006" x2="43.8606" y2="11.3006" gradientUnits="userSpaceOnUse">
<stop stop-color="#004ED0"/>
<stop offset="1" stop-color="#5B97FC"/>
</linearGradient>
<linearGradient id="paint10_linear_4407_4376" x1="50.8156" y1="17.2954" x2="45.6703" y2="17.2954" gradientUnits="userSpaceOnUse">
<stop stop-color="#004ED0"/>
<stop offset="0.09" stop-color="#004ED0" stop-opacity="0.95"/>
<stop offset="0.23" stop-color="#004ED0" stop-opacity="0.82"/>
<stop offset="0.41" stop-color="#004ED0" stop-opacity="0.61"/>
<stop offset="0.63" stop-color="#004ED0" stop-opacity="0.32"/>
<stop offset="0.84" stop-color="#004ED0" stop-opacity="0"/>
</linearGradient>
<linearGradient id="paint11_linear_4407_4376" x1="45.6719" y1="7.23134" x2="50.9716" y2="7.23134" gradientUnits="userSpaceOnUse">
<stop stop-color="#004ED0"/>
<stop offset="1" stop-color="#5B97FC"/>
</linearGradient>
<linearGradient id="paint12_linear_4407_4376" x1="68.7648" y1="0.962172" x2="68.7648" y2="21.1053" gradientUnits="userSpaceOnUse">
<stop stop-color="#004ED0"/>
<stop offset="0.09" stop-color="#004ED0" stop-opacity="0.95"/>
<stop offset="0.23" stop-color="#004ED0" stop-opacity="0.82"/>
<stop offset="0.41" stop-color="#004ED0" stop-opacity="0.61"/>
<stop offset="0.63" stop-color="#004ED0" stop-opacity="0.32"/>
<stop offset="0.84" stop-color="#004ED0" stop-opacity="0"/>
</linearGradient>
<linearGradient id="paint13_linear_4407_4376" x1="54.1348" y1="11.0269" x2="66.5579" y2="11.0269" gradientUnits="userSpaceOnUse">
<stop stop-color="#004ED0"/>
<stop offset="1" stop-color="#5B97FC"/>
</linearGradient>
<linearGradient id="paint14_linear_4407_4376" x1="74.4494" y1="5.38569" x2="88.8221" y2="5.38569" gradientUnits="userSpaceOnUse">
<stop offset="0.02" stop-color="#004ED0" stop-opacity="0"/>
<stop offset="0.35" stop-color="#004ED0" stop-opacity="0.38"/>
<stop offset="0.66" stop-color="#004ED0" stop-opacity="0.72"/>
<stop offset="0.89" stop-color="#004ED0" stop-opacity="0.92"/>
<stop offset="1" stop-color="#004ED0"/>
</linearGradient>
<linearGradient id="paint15_linear_4407_4376" x1="74.4434" y1="15.4502" x2="88.0043" y2="15.4502" gradientUnits="userSpaceOnUse">
<stop stop-color="#004ED0"/>
<stop offset="1" stop-color="#5B97FC"/>
</linearGradient>
<linearGradient id="paint16_linear_4407_4376" x1="94.4848" y1="21.09" x2="94.4848" y2="0.962176" gradientUnits="userSpaceOnUse">
<stop stop-color="#004ED0"/>
<stop offset="0.09" stop-color="#004ED0" stop-opacity="0.95"/>
<stop offset="0.23" stop-color="#004ED0" stop-opacity="0.82"/>
<stop offset="0.41" stop-color="#004ED0" stop-opacity="0.61"/>
<stop offset="0.63" stop-color="#004ED0" stop-opacity="0.32"/>
<stop offset="0.84" stop-color="#004ED0" stop-opacity="0"/>
</linearGradient>
<linearGradient id="paint17_linear_4407_4376" x1="97.0791" y1="18.8168" x2="106.728" y2="18.8168" gradientUnits="userSpaceOnUse">
<stop stop-color="#004ED0"/>
<stop offset="1" stop-color="#5B97FC"/>
</linearGradient>
<linearGradient id="paint18_linear_4407_4376" x1="97.0791" y1="10.8872" x2="105.34" y2="10.8872" gradientUnits="userSpaceOnUse">
<stop stop-color="#004ED0"/>
<stop offset="1" stop-color="#5B97FC"/>
</linearGradient>
<linearGradient id="paint19_linear_4407_4376" x1="97.0791" y1="3.22111" x2="106.587" y2="3.22111" gradientUnits="userSpaceOnUse">
<stop stop-color="#004ED0"/>
<stop offset="1" stop-color="#5B97FC"/>
</linearGradient>
<linearGradient id="paint20_linear_4407_4376" x1="109.075" y1="3.82585" x2="125.137" y2="3.82585" gradientUnits="userSpaceOnUse">
<stop offset="0.02" stop-color="#004ED0" stop-opacity="0"/>
<stop offset="0.35" stop-color="#004ED0" stop-opacity="0.38"/>
<stop offset="0.66" stop-color="#004ED0" stop-opacity="0.72"/>
<stop offset="0.89" stop-color="#004ED0" stop-opacity="0.92"/>
<stop offset="1" stop-color="#004ED0"/>
</linearGradient>
<linearGradient id="paint21_linear_4407_4376" x1="108.722" y1="14.1689" x2="126.164" y2="14.1689" gradientUnits="userSpaceOnUse">
<stop stop-color="#004ED0"/>
<stop offset="1" stop-color="#5B97FC"/>
</linearGradient>
<linearGradient id="paint22_linear_4407_4376" x1="135.347" y1="21.0747" x2="135.347" y2="0.962179" gradientUnits="userSpaceOnUse">
<stop stop-color="#004ED0"/>
<stop offset="0.09" stop-color="#004ED0" stop-opacity="0.95"/>
<stop offset="0.23" stop-color="#004ED0" stop-opacity="0.82"/>
<stop offset="0.41" stop-color="#004ED0" stop-opacity="0.61"/>
<stop offset="0.63" stop-color="#004ED0" stop-opacity="0.32"/>
<stop offset="0.84" stop-color="#004ED0" stop-opacity="0"/>
</linearGradient>
<linearGradient id="paint23_linear_4407_4376" x1="137.933" y1="3.22111" x2="144.121" y2="3.22111" gradientUnits="userSpaceOnUse">
<stop stop-color="#004ED0"/>
<stop offset="1" stop-color="#5B97FC"/>
</linearGradient>
<linearGradient id="paint24_linear_4407_4376" x1="126.757" y1="3.22111" x2="132.929" y2="3.22111" gradientUnits="userSpaceOnUse">
<stop stop-color="#004ED0"/>
<stop offset="1" stop-color="#5B97FC"/>
</linearGradient>
<linearGradient id="paint25_linear_4407_4376" x1="20.1769" y1="17.325" x2="0.269744" y2="17.325" gradientUnits="userSpaceOnUse">
<stop stop-color="#004ED0"/>
<stop offset="0.09" stop-color="#004ED0" stop-opacity="0.95"/>
<stop offset="0.23" stop-color="#004ED0" stop-opacity="0.82"/>
<stop offset="0.41" stop-color="#004ED0" stop-opacity="0.61"/>
<stop offset="0.63" stop-color="#004ED0" stop-opacity="0.32"/>
<stop offset="0.84" stop-color="#004ED0" stop-opacity="0"/>
</linearGradient>
<linearGradient id="paint26_linear_4407_4376" x1="-3.75483e-08" y1="6.59425" x2="20.7515" y2="6.59425" gradientUnits="userSpaceOnUse">
<stop stop-color="#004ED0"/>
<stop offset="1" stop-color="#5B97FC"/>
</linearGradient>
</defs>
</svg>
