<svg width="145" height="48" viewBox="0 0 145 48" fill="none" xmlns="http://www.w3.org/2000/svg">
<path d="M47.9526 47.6926V40.1016H42.7686V47.6926H47.9526Z" fill="url(#paint0_linear_3428_3068)"/>
<path d="M47.9526 27.5723H42.7686V40.1013H47.9526V27.5723Z" fill="white"/>
<path d="M38.0565 31.9282C37.843 31.3914 37.5838 30.8854 37.2484 30.41C36.8519 29.8426 36.364 29.3365 35.8151 28.9071C35.1443 28.3857 34.3819 27.987 33.5738 27.7416C32.6742 27.4349 31.5764 27.2969 30.3109 27.2969C28.6642 27.2969 27.2615 27.5729 26.0722 28.1097C24.9592 28.5851 24.0139 29.3672 23.3277 30.364C22.7026 31.3148 22.3672 32.4189 22.3672 33.5537H27.4597C27.4597 33.5077 27.4597 33.4617 27.4597 33.4157C27.4597 33.109 27.5512 32.8023 27.7189 32.5416C27.9324 32.2196 28.2373 31.9589 28.588 31.8055C28.9997 31.6061 29.5333 31.4988 30.2194 31.4988C30.9513 31.4988 31.5154 31.5908 31.9424 31.8055C32.3083 31.9742 32.6285 32.2196 32.9029 32.5109C33.1316 32.8176 33.3146 33.1704 33.4061 33.5384H38.5139C38.3919 33.0017 38.2394 32.4496 38.0565 31.9282Z" fill="url(#paint1_linear_3428_3068)"/>
<path d="M39.0482 41.4831C39.0635 42.664 38.728 43.8294 38.0724 44.8263C37.4168 45.8077 36.4867 46.5745 35.2669 47.1266C34.0472 47.6787 32.5529 47.9547 30.7843 47.9547C29.3968 47.9547 28.2075 47.786 27.2317 47.464C26.3474 47.2032 25.5393 46.7739 24.8074 46.2218C24.2128 45.7617 23.6944 45.2096 23.2827 44.5962C22.9473 44.0902 22.6576 43.5381 22.4441 42.9553C22.2459 42.3879 22.1087 41.8052 22.002 41.2071H27.247C27.3689 41.6671 27.5671 42.0965 27.8263 42.4799C28.1313 42.8633 28.5125 43.1547 28.9394 43.354C29.4425 43.6148 30.1287 43.7374 30.9977 43.7374C32.065 43.7374 32.8121 43.5227 33.2238 43.124C33.6355 42.7253 33.8642 42.2806 33.8642 41.8052C33.8795 41.4064 33.7117 41.0077 33.3915 40.7624C33.0713 40.5017 32.5225 40.3023 31.7449 40.1796L29.0766 39.7502C27.9483 39.5662 26.8505 39.2441 25.7985 38.7994C24.8227 38.4007 23.9536 37.7566 23.298 36.9285C22.6576 36.1157 22.3374 35.0422 22.3374 33.7234C22.3374 33.662 22.3374 33.616 22.3374 33.5547H27.4299C27.4604 33.9994 27.7501 34.3981 28.1618 34.5668C28.7412 34.8429 29.3511 35.0269 29.9914 35.1189L32.7969 35.579C33.8642 35.7477 34.9163 36.0697 35.8921 36.5451C36.8069 36.9745 37.5845 37.6339 38.1791 38.4467C38.7585 39.2595 39.0482 40.2716 39.0482 41.4831Z" fill="white"/>
<path d="M6.64775 27.5879L0 47.708H5.39748L6.44953 44.3342L7.83702 39.8869L9.37697 34.9489L10.1546 32.4492L11.664 27.5879H6.64775Z" fill="url(#paint2_linear_3428_3068)"/>
<path d="M20.294 47.708H14.8965L13.8444 44.3342H6.46484L7.85233 39.8869H12.457L10.1547 32.4492L11.6794 27.5879H13.6462L20.294 47.708Z" fill="white"/>
<path d="M57.8626 27.5879L51.2148 47.708H56.6123L57.6644 44.3342L59.0519 39.8869L60.5918 34.9489L61.3694 32.4492L62.8789 27.5879H57.8626Z" fill="url(#paint3_linear_3428_3068)"/>
<path d="M71.5088 47.708H66.1113L65.044 44.3342H57.6797L59.0672 39.8869H63.6718L61.3695 32.4492L62.8789 27.5879H64.8611L71.5088 47.708Z" fill="white"/>
<path d="M33.1523 0.690338C31.8868 0.675002 30.6365 0.859029 29.4473 1.24242V7.05455C29.7217 6.71717 30.0419 6.39513 30.3926 6.13443C31.1244 5.58235 32.0545 5.30631 33.1523 5.30631C34.2654 5.30631 35.1954 5.58235 35.9273 6.13443C36.3695 6.45647 36.7506 6.85519 37.0556 7.29992V1.31909C35.8053 0.874364 34.4788 0.675002 33.1523 0.690338Z" fill="url(#paint4_linear_3428_3068)"/>
<path d="M43.5508 10.9958C43.5508 12.284 43.3373 13.5722 42.8952 14.7837C42.4683 16.0105 41.8126 17.1454 40.9436 18.1115C40.0287 19.1236 38.9157 19.9364 37.6807 20.4732C36.3847 21.0559 34.8752 21.3473 33.137 21.3473C31.3989 21.3473 29.8894 21.0559 28.5934 20.4732C27.3584 19.9211 26.2453 19.1236 25.3458 18.1115C24.4919 17.1454 23.821 16.0105 23.3789 14.7837C22.9367 13.5722 22.708 12.284 22.708 10.9958C22.708 9.70765 22.9367 8.43481 23.3789 7.23864C23.821 6.01181 24.4767 4.89232 25.3458 3.92618C26.2453 2.91404 27.3584 2.1166 28.5781 1.57986C28.8526 1.45717 29.127 1.34983 29.4167 1.25781V7.05462C29.127 7.42267 28.8831 7.83673 28.7001 8.26612C27.953 10.0144 27.953 11.9773 28.7001 13.7255C29.0508 14.5843 29.6302 15.3204 30.3621 15.8725C31.0939 16.4246 32.024 16.7006 33.1218 16.7006C34.2196 16.7006 35.1649 16.4246 35.8968 15.8725C36.6286 15.3204 37.208 14.5843 37.5587 13.7255C38.2906 11.9773 38.2906 10.0144 37.5587 8.26612C37.4215 7.92874 37.2385 7.59136 37.025 7.29999V1.31916C37.2385 1.39583 37.452 1.47251 37.6502 1.57986C38.8852 2.1166 39.9982 2.92938 40.9131 3.92618C41.7821 4.89232 42.4378 6.01181 42.8647 7.23864C43.3373 8.45015 43.5508 9.70765 43.5508 10.9958Z" fill="white"/>
<path d="M51.1743 21.0871V13.4961H45.9902V21.0871H51.1743Z" fill="url(#paint5_linear_3428_3068)"/>
<path d="M51.1743 0.966797H45.9902V13.4959H51.1743V0.966797Z" fill="white"/>
<path d="M66.6803 0.966797V12.1463L66.665 12.131V20.6422L66.9852 21.1023H71.8186V0.966797H66.6803Z" fill="url(#paint6_linear_3428_3068)"/>
<path d="M66.6646 12.1157V20.6269L59.651 10.4748V21.0869H54.5127V0.966797H59.3003L66.6646 12.1157Z" fill="white"/>
<path d="M74.96 0.966797V9.81536H80.144V5.47542H89.4447V0.966797H74.96Z" fill="url(#paint7_linear_3428_3068)"/>
<path d="M88.2249 9.82979V14.1544H80.144V21.086H74.96V9.81445H80.144V9.82979H88.2249Z" fill="white"/>
<path d="M92.5547 0.966797V21.0869H97.7387V0.966797H92.5547Z" fill="url(#paint8_linear_3428_3068)"/>
<path d="M107.192 16.5625H97.7539V21.0711H107.192V16.5625Z" fill="white"/>
<path d="M105.835 8.74219H97.7539V13.0361H105.835V8.74219Z" fill="white"/>
<path d="M107.055 0.966797H97.7539V5.47542H107.055V0.966797Z" fill="white"/>
<path d="M125.534 5.33639C125.336 4.79965 125.061 4.29358 124.726 3.83351C123.826 2.56067 122.546 1.60987 121.067 1.14981C120.167 0.843096 119.069 0.705078 117.788 0.705078C116.142 0.705078 114.739 0.981115 113.55 1.51786C112.361 2.0546 111.446 2.82137 110.805 3.77217C110.18 4.70763 109.845 5.81179 109.845 6.94661H114.937C114.937 6.9006 114.937 6.8546 114.937 6.80859C114.937 6.50188 115.029 6.19517 115.196 5.93447C115.41 5.61242 115.715 5.35172 116.066 5.19837C116.477 4.99901 117.011 4.89166 117.697 4.89166C118.429 4.89166 118.993 4.99901 119.42 5.19837C119.786 5.36706 120.106 5.61243 120.38 5.9038C120.609 6.21051 120.792 6.54789 120.899 6.91594H126.007C125.885 6.3792 125.732 5.84246 125.534 5.33639Z" fill="url(#paint9_linear_3428_3068)"/>
<path d="M126.54 14.8916C126.555 16.0724 126.22 17.2379 125.564 18.2347C124.909 19.2162 123.979 19.9677 122.759 20.5351C121.539 21.0871 120.045 21.3632 118.261 21.3632C116.873 21.3632 115.684 21.1945 114.708 20.8724C113.824 20.6117 113.016 20.1823 112.284 19.6303C111.689 19.1702 111.171 18.6181 110.759 18.0047C110.424 17.4986 110.134 16.9466 109.921 16.3638C109.722 15.7964 109.585 15.2137 109.479 14.6156H114.724C114.845 15.0756 115.044 15.505 115.303 15.8884C115.608 16.2718 115.989 16.5632 116.416 16.7625C116.919 17.0232 117.605 17.1459 118.474 17.1459C119.542 17.1459 120.289 16.9466 120.7 16.5325C121.127 16.1185 121.341 15.6891 121.341 15.2137C121.356 14.8149 121.188 14.4162 120.868 14.1708C120.548 13.9101 119.999 13.7108 119.221 13.5881L116.553 13.1587C115.425 12.9747 114.327 12.6526 113.275 12.2079C112.299 11.8092 111.43 11.1651 110.775 10.337C110.134 9.5242 109.814 8.45072 109.814 7.13187C109.814 7.08586 109.814 7.02452 109.814 6.97852H114.937C114.967 7.42324 115.257 7.82197 115.669 7.99066C116.248 8.2667 116.858 8.45072 117.498 8.54273L120.304 9.0028C121.371 9.17149 122.423 9.49353 123.399 9.96893C124.314 10.3983 125.092 11.0577 125.686 11.8705C126.25 12.668 126.54 13.6801 126.54 14.8916Z" fill="white"/>
<path d="M133.691 0.966797V5.47542H133.707V21.0716H138.891V0.966797H133.691Z" fill="url(#paint10_linear_3428_3068)"/>
<path d="M144.944 0.966797H138.891V5.47542H144.944V0.966797Z" fill="white"/>
<path d="M133.677 0.966797H127.639V5.47542H133.677V0.966797Z" fill="white"/>
<path d="M14.9623 13.6495C14.8098 14.1863 14.5658 14.6923 14.2609 15.1524C13.9255 15.5971 13.4833 15.9498 12.9801 16.1952C12.4007 16.5019 11.6231 16.6553 10.6778 16.6553C9.54954 16.6553 8.60422 16.3639 7.85711 15.7811C7.09475 15.1984 6.51537 14.4316 6.16468 13.5575C6.11894 13.4348 6.05795 13.3121 6.02746 13.1895H0.279297C0.386027 13.6802 0.52325 14.1709 0.690968 14.6617C1.13313 15.9345 1.80401 17.1 2.68834 18.1275C3.60317 19.1856 4.73145 20.0137 5.99696 20.5811C7.32346 21.1946 8.87866 21.5013 10.6321 21.5013C12.1415 21.5013 13.4223 21.3172 14.4896 20.9339C15.4654 20.6118 16.365 20.1211 17.1578 19.477C17.8287 18.9403 18.3929 18.2962 18.8503 17.5754C19.2315 16.9773 19.5516 16.3486 19.7956 15.6891C20.0091 15.0757 20.1768 14.4623 20.2987 13.8182C20.2987 13.7569 20.314 13.7109 20.3292 13.6649L14.9623 13.6495Z" fill="url(#paint11_linear_3428_3068)"/>
<path d="M20.2986 7.83642H14.9621C14.8096 7.29968 14.5657 6.79361 14.2607 6.33355C13.9253 5.88882 13.4831 5.52077 12.98 5.2754C12.4006 4.96869 11.623 4.81533 10.6777 4.81533C9.54938 4.81533 8.60406 5.10671 7.85695 5.67412C7.0946 6.24153 6.51521 7.00831 6.16452 7.89776C5.46316 9.58466 5.41741 11.4709 6.0273 13.1885H0.263892C-0.193521 11.0722 -0.0562974 8.84856 0.675564 6.80894C1.11773 5.55144 1.7886 4.38594 2.67294 3.3738C3.58776 2.33099 4.71605 1.48754 5.98156 0.920128C7.30806 0.306709 8.86326 0 10.6167 0C12.1261 0 13.4069 0.199361 14.4742 0.567412C15.45 0.889456 16.3496 1.38019 17.1424 2.02428C17.7981 2.56102 18.3775 3.20511 18.8349 3.91054C19.216 4.50863 19.5362 5.13738 19.7802 5.81214C20.0089 6.45623 20.1766 7.13099 20.2986 7.83642Z" fill="white"/>
<defs>
<linearGradient id="paint0_linear_3428_3068" x1="47.948" y1="43.894" x2="42.764" y2="43.894" gradientUnits="userSpaceOnUse">
<stop stop-color="white"/>
<stop offset="0.08" stop-color="white" stop-opacity="0.96"/>
<stop offset="0.2" stop-color="white" stop-opacity="0.85"/>
<stop offset="0.35" stop-color="white" stop-opacity="0.68"/>
<stop offset="0.54" stop-color="white" stop-opacity="0.44"/>
<stop offset="0.75" stop-color="white" stop-opacity="0.14"/>
<stop offset="0.84" stop-color="white" stop-opacity="0"/>
</linearGradient>
<linearGradient id="paint1_linear_3428_3068" x1="22.3504" y1="30.4215" x2="38.488" y2="30.4215" gradientUnits="userSpaceOnUse">
<stop stop-color="white" stop-opacity="0"/>
<stop offset="0.3" stop-color="white" stop-opacity="0.36"/>
<stop offset="0.59" stop-color="white" stop-opacity="0.68"/>
<stop offset="0.8" stop-color="white" stop-opacity="0.89"/>
<stop offset="0.9" stop-color="white" stop-opacity="0.97"/>
<stop offset="1" stop-color="white"/>
</linearGradient>
<linearGradient id="paint2_linear_3428_3068" x1="1.61142" y1="48.3751" x2="10.4774" y2="27.0926" gradientUnits="userSpaceOnUse">
<stop stop-color="white"/>
<stop offset="0.08" stop-color="white" stop-opacity="0.96"/>
<stop offset="0.2" stop-color="white" stop-opacity="0.85"/>
<stop offset="0.35" stop-color="white" stop-opacity="0.68"/>
<stop offset="0.54" stop-color="white" stop-opacity="0.44"/>
<stop offset="0.75" stop-color="white" stop-opacity="0.14"/>
<stop offset="0.84" stop-color="white" stop-opacity="0"/>
</linearGradient>
<linearGradient id="paint3_linear_3428_3068" x1="52.8234" y1="48.3746" x2="61.6908" y2="27.0925" gradientUnits="userSpaceOnUse">
<stop stop-color="white"/>
<stop offset="0.08" stop-color="white" stop-opacity="0.96"/>
<stop offset="0.2" stop-color="white" stop-opacity="0.85"/>
<stop offset="0.35" stop-color="white" stop-opacity="0.68"/>
<stop offset="0.54" stop-color="white" stop-opacity="0.44"/>
<stop offset="0.75" stop-color="white" stop-opacity="0.14"/>
<stop offset="0.84" stop-color="white" stop-opacity="0"/>
</linearGradient>
<linearGradient id="paint4_linear_3428_3068" x1="33.2507" y1="7.30526" x2="33.2507" y2="0.699739" gradientUnits="userSpaceOnUse">
<stop stop-color="white"/>
<stop offset="0.08" stop-color="white" stop-opacity="0.96"/>
<stop offset="0.2" stop-color="white" stop-opacity="0.85"/>
<stop offset="0.35" stop-color="white" stop-opacity="0.68"/>
<stop offset="0.54" stop-color="white" stop-opacity="0.44"/>
<stop offset="0.75" stop-color="white" stop-opacity="0.14"/>
<stop offset="0.84" stop-color="white" stop-opacity="0"/>
</linearGradient>
<linearGradient id="paint5_linear_3428_3068" x1="51.1773" y1="17.2878" x2="45.9933" y2="17.2878" gradientUnits="userSpaceOnUse">
<stop stop-color="white"/>
<stop offset="0.08" stop-color="white" stop-opacity="0.96"/>
<stop offset="0.2" stop-color="white" stop-opacity="0.85"/>
<stop offset="0.35" stop-color="white" stop-opacity="0.68"/>
<stop offset="0.54" stop-color="white" stop-opacity="0.44"/>
<stop offset="0.75" stop-color="white" stop-opacity="0.14"/>
<stop offset="0.84" stop-color="white" stop-opacity="0"/>
</linearGradient>
<linearGradient id="paint6_linear_3428_3068" x1="69.241" y1="0.96603" x2="69.241" y2="21.0938" gradientUnits="userSpaceOnUse">
<stop stop-color="white"/>
<stop offset="0.08" stop-color="white" stop-opacity="0.96"/>
<stop offset="0.2" stop-color="white" stop-opacity="0.85"/>
<stop offset="0.35" stop-color="white" stop-opacity="0.68"/>
<stop offset="0.54" stop-color="white" stop-opacity="0.44"/>
<stop offset="0.75" stop-color="white" stop-opacity="0.14"/>
<stop offset="0.84" stop-color="white" stop-opacity="0"/>
</linearGradient>
<linearGradient id="paint7_linear_3428_3068" x1="74.9645" y1="5.39261" x2="89.4493" y2="5.39261" gradientUnits="userSpaceOnUse">
<stop stop-color="white" stop-opacity="0"/>
<stop offset="0.3" stop-color="white" stop-opacity="0.36"/>
<stop offset="0.59" stop-color="white" stop-opacity="0.68"/>
<stop offset="0.8" stop-color="white" stop-opacity="0.89"/>
<stop offset="0.9" stop-color="white" stop-opacity="0.97"/>
<stop offset="1" stop-color="white"/>
</linearGradient>
<linearGradient id="paint8_linear_3428_3068" x1="95.1528" y1="0.96603" x2="95.1528" y2="21.0831" gradientUnits="userSpaceOnUse">
<stop stop-color="white" stop-opacity="0"/>
<stop offset="0.3" stop-color="white" stop-opacity="0.36"/>
<stop offset="0.59" stop-color="white" stop-opacity="0.68"/>
<stop offset="0.8" stop-color="white" stop-opacity="0.89"/>
<stop offset="0.9" stop-color="white" stop-opacity="0.97"/>
<stop offset="1" stop-color="white"/>
</linearGradient>
<linearGradient id="paint9_linear_3428_3068" x1="109.837" y1="3.81971" x2="125.979" y2="3.81971" gradientUnits="userSpaceOnUse">
<stop stop-color="white" stop-opacity="0"/>
<stop offset="0.3" stop-color="white" stop-opacity="0.36"/>
<stop offset="0.59" stop-color="white" stop-opacity="0.68"/>
<stop offset="0.8" stop-color="white" stop-opacity="0.89"/>
<stop offset="0.9" stop-color="white" stop-opacity="0.97"/>
<stop offset="1" stop-color="white"/>
</linearGradient>
<linearGradient id="paint10_linear_3428_3068" x1="136.291" y1="0.96603" x2="136.291" y2="21.0831" gradientUnits="userSpaceOnUse">
<stop stop-color="white" stop-opacity="0"/>
<stop offset="0.3" stop-color="white" stop-opacity="0.36"/>
<stop offset="0.59" stop-color="white" stop-opacity="0.68"/>
<stop offset="0.8" stop-color="white" stop-opacity="0.89"/>
<stop offset="0.9" stop-color="white" stop-opacity="0.97"/>
<stop offset="1" stop-color="white"/>
</linearGradient>
<linearGradient id="paint11_linear_3428_3068" x1="20.3018" y1="17.3346" x2="0.239654" y2="17.3346" gradientUnits="userSpaceOnUse">
<stop stop-color="white"/>
<stop offset="0.08" stop-color="white" stop-opacity="0.96"/>
<stop offset="0.2" stop-color="white" stop-opacity="0.85"/>
<stop offset="0.35" stop-color="white" stop-opacity="0.68"/>
<stop offset="0.54" stop-color="white" stop-opacity="0.44"/>
<stop offset="0.75" stop-color="white" stop-opacity="0.14"/>
<stop offset="0.84" stop-color="white" stop-opacity="0"/>
</linearGradient>
</defs>
</svg>
