<svg width="300" height="107" fill="none" xmlns="http://www.w3.org/2000/svg"><g clip-path="url(#a)" fill="#0B0B0B"><path d="M161.654 40.377v9.347c1.56-2.04 3.812-3.059 6.758-3.059 1.386 0 2.599.17 3.638.68 1.213.34 2.253 1.02 3.119 1.869 1.04.85 1.733 1.87 2.253 3.059.52 1.19.693 2.719.693 4.418 0 1.87-.347 3.569-1.04 5.268-.693 1.53-1.733 2.889-3.292 3.908-1.559 1.02-3.292 1.53-5.545 1.53-3.118 0-5.371-1.02-6.757-2.89v2.38h-6.065v-26.51h6.238Zm-23.045 5.778c11.783 0 10.743 12.405 10.743 12.405h-15.941c.693 2.38 2.773 4.079 5.718 4.079 3.639 0 5.545-2.04 5.545-2.04l3.465 3.4c-1.733 1.698-4.158 3.228-9.01 3.228-7.45 0-11.436-4.928-11.436-10.026s2.773-11.046 10.916-11.046Zm145.72-.17c5.025 0 8.317 1.87 8.317 1.87l-2.252 4.418c-6.758-3.399-9.704-1.02-9.704.17s1.213 1.36 5.892 2.209c4.678.85 6.757 2.719 6.757 5.777 0 3.06-2.772 6.458-9.356 6.458-6.585 0-9.53-2.04-9.53-2.04l2.079-4.248c5.198 3.23 11.089 2.21 11.089.34 0-1.36-1.906-1.699-3.985-2.039l-.866-.17c-.347 0-.867-.17-1.213-.17-2.599-.34-6.584-1.869-6.584-5.778-.174-4.078 4.331-6.797 9.356-6.797Zm-29.456-7.137v15.974l8.837-8.157h7.104l-8.663 8.157 9.529 12.235h-7.104l-6.584-8.327-3.119 2.889v5.438h-5.891V38.848h5.891Zm-20.965 7.137c4.158 0 7.797 2.04 9.876 5.098l-5.025 2.89c-.866-1.7-2.772-2.89-4.851-2.89-3.119 0-5.545 2.38-5.545 5.438 0 3.059 2.426 5.438 5.545 5.438 2.079 0 3.812-1.02 4.678-2.719l5.025 2.719c-2.079 2.889-5.545 4.928-9.703 4.928-6.411 0-11.436-4.758-11.436-10.536-.173-5.778 5.025-10.366 11.436-10.366Zm-27.204 0c6.411 0 11.436 4.758 11.436 10.536s-5.198 10.536-11.436 10.536c-6.411 0-11.435-4.758-11.435-10.536-.174-5.948 5.024-10.536 11.435-10.536Zm-104.135.51v20.222h-6.41V46.495h6.41Zm-11.955-6.118v5.098H76.405v6.798h12.476V57.2H76.406v9.516h-6.412v-26.34h20.62Zm25.644 8.667s2.252-3.399 6.93-2.889v5.608s-5.025-1.19-6.93 3.908v11.216h-6.065V46.495h5.718l.347 2.549Zm72.773-10.196v27.869h-6.411V38.848h6.411Zm-22.352 12.235c-3.465 0-5.198 2.04-5.198 6.288 0 1.53.52 2.889 1.386 4.078.866 1.02 2.253 1.53 4.159 1.53 1.212 0 2.252-.34 2.945-.85.693-.68 1.213-1.36 1.56-2.21.346-.849.519-1.869.519-2.718 0-1.7-.346-3.229-1.213-4.248-1.039-1.36-2.425-1.87-4.158-1.87Zm40.025-.17c-3.119 0-5.544 2.38-5.544 5.438 0 3.059 2.425 5.438 5.544 5.438 3.119 0 5.545-2.38 5.545-5.438-.173-2.889-2.599-5.438-5.545-5.438Zm-68.095-.51c-3.119 0-4.851 1.87-5.371 4.249h10.396c0-.51-1.039-4.248-5.025-4.248ZM99.45 36.98c2.08 0 3.812 1.53 3.812 3.398 0 1.87-1.732 3.4-3.812 3.4-2.079 0-3.812-1.53-3.812-3.4 0-1.869 1.733-3.398 3.812-3.398ZM48.724 32.258c1.04 0 1.733.68 1.733 1.7v39.084c0 1.02-.694 1.7-1.733 1.7H8.352c-1.04 0-1.733-.68-1.733-1.7V33.958c0-1.02.693-1.7 1.733-1.7h40.372Zm-20.1 11.726L16.497 62.846h24.43L28.625 43.984Z"/></g><defs><clipPath id="a"><path fill="#fff" transform="translate(6.62 32.258)" d="M0 0h286.761v42.483H0z"/></clipPath></defs></svg>