<svg xmlns="http://www.w3.org/2000/svg" width="300" height="107" fill="none"><g fill="#0B0B0B" clip-path="url(#a)"><path d="M53.1 43.718c-6 0-11.04 4.172-12.378 9.745H13.02v5.95h27.703c1.338 5.573 6.378 9.744 12.378 9.744 7.029 0 12.754-5.71 12.754-12.72 0-7.009-5.725-12.719-12.754-12.719Zm0 19.73c-3.874 0-7.029-3.146-7.029-7.01s3.155-7.01 7.029-7.01 7.029 3.146 7.029 7.01-3.155 7.01-7.029 7.01ZM89.138 55.719l-4.411 4.468v7.012h-5.175V39.803h5.175V53.86L98.49 39.803h5.804l-11.708 12.23 12.405 15.133h-6.037L89.138 55.72ZM128.476 47.629v21.227h-4.925V67.33c-2.204 1.659-2.307 1.824-6.303 1.824-5.648 0-10.297-2.985-10.297-9.386v-12.14h5.166v11.444c0 3.847 1.894 5.671 5.166 5.671 3.582 0 6.027-2.156 6.027-6.401V47.629h5.166ZM155.87 56.965v12.19h-5.117v-11.56c0-3.786-1.911-5.613-5.186-5.613-3.65 0-6.106 2.16-6.106 6.41v10.762h-5.117V47.897h4.878v1.594c2.491-1.594 4.026-1.893 7.539-1.86 5.22.1 9.109 2.923 9.109 9.334ZM286.978 56.965v12.19h-5.117v-11.56c0-3.786-1.91-5.613-5.186-5.613-3.649 0-6.105 2.16-6.105 6.41v10.762h-5.117V47.897h4.878v1.594c2.489-1.594 4.026-1.893 7.538-1.86 5.221.1 9.109 2.923 9.109 9.334ZM161.742 58.375c0-6.31 5-10.746 12.048-10.746 4.34 0 7.777 1.709 9.478 4.896l-3.993 2.202c-1.319-2.004-3.333-2.925-5.555-2.925-3.819 0-6.735 2.53-6.735 6.573 0 4.108 2.916 6.573 6.735 6.573 2.222 0 4.201-.92 5.555-2.925l3.993 2.202c-1.701 3.155-5.173 4.93-9.478 4.93-7.048 0-12.048-4.47-12.048-10.78ZM187.178 40.892c0-1.693 1.254-3.047 2.936-3.047 1.681 0 2.935 1.252 2.935 2.911 0 1.794-1.223 3.182-2.935 3.182-1.682 0-2.936-1.354-2.936-3.047Zm.612 6.6h4.586v21.663h-4.586V47.492ZM196.962 54.496c0-8.537 6.726-14.693 15.764-14.693 4.801 0 8.9 1.666 11.632 4.762l-3.538 3.23c-2.137-2.244-4.8-3.333-7.847-3.333-6.097 0-10.511 4.15-10.511 10.034s4.414 10.034 10.511 10.034c3.082 0 5.71-1.089 7.847-3.401l3.538 3.265c-2.732 3.095-6.867 4.761-11.667 4.761-9.003.034-15.729-6.122-15.729-14.659ZM226.318 58.359c0-6.3 4.951-10.73 11.724-10.73 6.843 0 11.758 4.462 11.758 10.73 0 6.267-4.915 10.795-11.758 10.795-6.773-.033-11.724-4.495-11.724-10.795Zm18.256 0c0-4.004-2.818-6.563-6.566-6.563-3.714 0-6.534 2.56-6.534 6.563s2.82 6.562 6.534 6.562c3.748 0 6.566-2.559 6.566-6.562ZM253.712 40.892c0-1.693 1.254-3.047 2.935-3.047s2.935 1.252 2.935 2.911c0 1.794-1.223 3.182-2.935 3.182-1.681 0-2.935-1.354-2.935-3.047Zm.61 6.6h4.587v21.663h-4.587V47.492Z"/><path d="M52.154 53.502v5.87c2.18 0 3.914-1.3 3.914-2.935 0-1.634-1.78-2.935-3.914-2.935ZM33.382 43.897c0 1.93-1.542 3.503-3.47 3.467-1.892 0-3.434-1.573-3.4-3.539v-.071H23.219v.036c0 1.93-1.542 3.502-3.47 3.467-1.892 0-3.434-1.573-3.4-3.539h-3.294l-.035 7.828h23.448l.035-7.685-3.12-.036v.072Z"/></g><defs><clipPath id="a"><path fill="#fff" d="M13.02 37.845h273.96v31.31H13.02z"/></clipPath></defs></svg>