<svg width="338" height="105" viewBox="0 0 338 105" fill="none" xmlns="http://www.w3.org/2000/svg">
<g clip-path="url(#clip0_3441_4738)">
<path d="M86.2463 2.05132C83.4132 2.00815 80.5924 2.43426 77.8984 3.31238V16.3019C78.5236 15.5326 79.2414 14.8435 80.0357 14.2505C81.6935 13.0249 83.7627 12.4033 86.2522 12.4033C88.7418 12.4033 90.8584 13.0249 92.5161 14.2505C93.4999 14.9716 94.3564 15.8521 95.0501 16.8555V3.46039C92.4668 2.51706 89.5322 2.04737 86.2463 2.05132Z" fill="url(#paint0_linear_3441_4738)"/>
<path d="M109.673 25.1175C109.675 28.0048 109.18 30.8708 108.208 33.5897C107.249 36.3444 105.754 38.8819 103.809 41.0554C101.761 43.3202 99.2555 45.1251 96.4587 46.3513C93.5419 47.6636 90.1376 48.3198 86.2459 48.3198C82.3541 48.3198 78.944 47.6636 76.0153 46.3513C73.2316 45.1292 70.7431 43.3231 68.7183 41.0554C66.7819 38.878 65.2824 36.3484 64.3016 33.6045C63.31 30.8898 62.802 28.0224 62.8008 25.1323C62.7989 22.2593 63.3071 19.4087 64.3016 16.7133C65.2832 13.9849 66.7829 11.4719 68.7183 9.31275C70.7457 7.05686 73.2342 5.26292 76.0153 4.05241C76.6269 3.77102 77.2557 3.52878 77.898 3.32715V16.3019C77.2461 17.137 76.7058 18.0535 76.2906 19.0283C75.4642 20.9522 75.0363 23.0236 75.0325 25.1175C75.0359 27.2229 75.4638 29.306 76.2906 31.2422C77.0778 33.1574 78.3725 34.8216 80.0353 36.0555C81.693 37.2811 83.7652 37.8958 86.2518 37.8998C88.77 37.8998 90.8579 37.285 92.5157 36.0555C94.1776 34.8214 95.4713 33.1572 96.2574 31.2422C97.081 29.3055 97.5039 27.222 97.5007 25.1175C97.5035 23.0244 97.0805 20.9527 96.2574 19.0283C95.9388 18.2604 95.5336 17.5314 95.0496 16.8554V3.46036C95.5321 3.63501 96.0176 3.82447 96.4646 4.03169C99.2589 5.24607 101.764 7.03892 103.815 9.29203C105.757 11.4429 107.253 13.9585 108.214 16.6926C109.187 19.3945 109.681 22.2456 109.673 25.1175Z" fill="white"/>
<path d="M126.839 47.7009V30.6943H115.152V47.6891L126.839 47.7009Z" fill="url(#paint1_linear_3441_4738)"/>
<path d="M126.841 2.65479H115.16V30.706H126.841V2.65479Z" fill="white"/>
<path d="M161.755 2.65479V27.6718L161.723 27.6185V46.6795L162.43 47.6978H173.315V2.65479H161.755Z" fill="url(#paint2_linear_3441_4738)"/>
<path d="M161.725 27.6184V46.6824L145.938 23.9626V47.7007H134.363V2.65771H145.144L161.725 27.6184Z" fill="white"/>
<path d="M180.406 2.65479V22.4884H192.087V12.764H213.031V2.65479H180.406Z" fill="url(#paint3_linear_3441_4738)"/>
<path d="M210.287 22.4943V32.1743H192.087V47.7007H180.406V22.4795H192.087V22.4943H210.287Z" fill="white"/>
<path d="M220.035 2.65479V47.7007H231.713V2.65479H220.035Z" fill="url(#paint4_linear_3441_4738)"/>
<path d="M252.965 37.5918H231.711V47.701H252.965V37.5918Z" fill="white"/>
<path d="M249.91 20.064H231.711V29.6907H249.91V20.064Z" fill="white"/>
<path d="M252.655 2.65479H231.711V12.764H252.655V2.65479Z" fill="white"/>
<path d="M294.283 12.4387C293.824 11.24 293.215 10.1041 292.471 9.05815C290.452 6.19166 287.536 4.07937 284.183 3.05479C282.149 2.37986 279.698 2.05127 276.817 2.05127C273.126 2.05127 269.932 2.64332 267.259 3.8807C264.586 5.11808 262.522 6.77877 261.084 8.93678C259.682 11.0493 258.932 13.5269 258.926 16.0621H270.382C270.368 15.964 270.362 15.865 270.364 15.7661C270.375 15.0766 270.572 14.4029 270.933 13.8153C271.407 13.0882 272.086 12.5176 272.883 12.1753C273.799 11.7273 275.024 11.5033 276.557 11.5033C278.197 11.5033 279.473 11.7283 280.438 12.193C281.261 12.5649 281.997 13.1066 282.596 13.7827C283.123 14.461 283.516 15.2336 283.753 16.0591H295.26C295.049 14.8243 294.722 13.6121 294.283 12.4387Z" fill="url(#paint5_linear_3441_4738)"/>
<path d="M296.545 33.8295C296.579 36.4886 295.816 39.097 294.354 41.3189C292.89 43.5114 290.782 45.2244 288.031 46.4578C285.269 47.7011 281.906 48.305 277.922 48.305C274.798 48.305 272.134 47.9429 269.929 47.2186C267.956 46.6158 266.104 45.6699 264.459 44.4241C263.115 43.3949 261.944 42.1578 260.989 40.7594C260.218 39.6199 259.587 38.3914 259.11 37.1005C258.673 35.8334 258.346 34.531 258.133 33.2078H269.95C270.219 34.2258 270.663 35.1893 271.261 36.0556C271.936 36.8987 272.799 37.572 273.781 38.0211C274.92 38.5925 276.445 38.8855 278.405 38.8855C280.802 38.8855 282.478 38.4178 283.437 37.5031C284.396 36.5884 284.87 35.6086 284.87 34.5429C284.886 34.0969 284.799 33.6533 284.617 33.2462C284.434 32.8391 284.16 32.4796 283.816 32.1954C283.091 31.6034 281.868 31.18 280.124 30.887L274.103 29.919C271.567 29.5011 269.088 28.7867 266.718 27.7906C264.509 26.9032 262.571 25.4554 261.093 23.59C259.643 21.7635 258.917 19.3657 258.917 16.4144C258.914 16.2937 258.92 16.173 258.935 16.0532H270.391C270.478 17.0696 271.031 17.8284 272.049 18.3296C273.349 18.941 274.731 19.3598 276.152 19.5729L282.484 20.6298C284.9 21.008 287.248 21.7349 289.455 22.7878C291.496 23.757 293.263 25.2214 294.594 27.0475C295.888 28.8444 296.545 31.1031 296.545 33.8295Z" fill="white"/>
<path d="M312.641 2.65479V12.764H312.676V47.6948H324.354V2.65479H312.641Z" fill="url(#paint6_linear_3441_4738)"/>
<path d="M337.998 2.65479H324.352V12.764H337.998V2.65479Z" fill="white"/>
<path d="M312.639 2.65479H299.027V12.764H312.639V2.65479Z" fill="white"/>
<path d="M45.2736 31.0701C44.9271 32.2683 44.3914 33.4036 43.6869 34.4329C43.0653 35.321 42.0825 36.0907 40.7889 36.7626C39.4952 37.4346 37.7517 37.781 35.5966 37.781C33.0607 37.781 30.9382 37.1248 29.2291 35.8124C27.5293 34.5241 26.2072 32.8023 25.4015 30.8274C25.2875 30.5578 25.1886 30.2821 25.1055 30.0015H12.1367C12.3809 31.1165 12.6923 32.2158 13.0692 33.2932C14.0561 36.1419 15.5772 38.7762 17.551 41.055C19.6087 43.4129 22.158 45.2913 25.0197 46.5581C28.0214 47.9375 31.5085 48.6125 35.4575 48.6125C38.8381 48.6125 41.7391 48.198 44.1339 47.3514C46.3191 46.6338 48.3583 45.531 50.1551 44.0952C51.6481 42.8913 52.9409 41.4586 53.9856 39.8502C54.8518 38.5249 55.5695 37.1082 56.1259 35.6259C56.6143 34.2683 56.9838 32.8707 57.23 31.449C57.2478 31.3277 57.2803 31.2092 57.2981 31.0879L45.2736 31.0701Z" fill="url(#paint7_linear_3441_4738)"/>
<path d="M57.2983 18.0276H45.2738C44.9241 16.825 44.3887 15.6844 43.6871 14.647C42.9252 13.6364 41.9312 12.8241 40.7891 12.2788C39.4777 11.5891 37.7519 11.2605 35.5968 11.2605C33.0599 11.2605 30.9374 11.8999 29.2293 13.1935C27.5225 14.4699 26.1986 16.19 25.4017 18.1667C23.8385 21.9405 23.733 26.1605 25.1057 30.0077H12.1369C11.1125 25.2575 11.4355 20.3157 13.0694 15.7393C14.0551 12.9091 15.5779 10.2958 17.5542 8.04269C19.6211 5.69914 22.167 3.82655 25.0199 2.55144C28.0216 1.18974 31.5087 0.5 35.4577 0.5C38.8383 0.5 41.7393 0.932195 44.1341 1.77586C46.529 2.61953 48.5508 3.69114 50.1553 5.03212C51.6449 6.23265 52.9374 7.659 53.9858 9.25934C54.8501 10.592 55.5677 12.0143 56.1261 13.5014C56.6471 14.9733 57.0394 16.4877 57.2983 18.0276Z" fill="white"/>
<path d="M4.70678 104.754C1.62813 104.754 0 102.22 0 99.3245C0 90.3638 33.6638 33.2638 41.7186 33.2638C43.5273 33.2638 45.0667 34.7113 45.789 36.3395C47.2365 39.5957 44.2496 41.138 41.4463 41.4074C34.3861 50.2881 16.2843 78.7804 12.9392 89.5498C19.3659 84.5706 48.4147 53.1714 52.2156 53.1714C52.6509 53.1591 53.0842 53.2343 53.49 53.3924C53.8957 53.5506 54.2656 53.7885 54.5777 54.0921C54.8899 54.3957 55.138 54.7588 55.3073 55.16C55.4767 55.5611 55.5638 55.9922 55.5637 56.4276C55.5637 61.4038 49.137 77.9634 49.137 88.8245C49.137 96.9681 52.3044 92.0808 55.9248 87.3769C69.2281 70.3615 93.659 32.9914 102.72 28.8294C104.713 27.8347 107.335 29.6434 107.335 31.6357C107.335 34.2584 89.8699 54.0772 86.9748 57.6857C81.7263 64.1983 58.1983 97.4121 53.7638 100.58C52.4081 101.482 51.0493 102.208 49.3235 102.208C43.1721 102.208 42.3551 93.9723 42.3551 89.5379C42.3551 85.3758 42.808 81.3025 43.2609 77.321C43.8944 71.3502 43.2609 71.0779 38.5571 76.054C28.957 85.8406 10.0441 104.754 4.70678 104.754Z" fill="#FFC600"/>
<path d="M90.6756 77.2443C84.7936 85.3879 92.3925 85.4797 98.1857 84.1209C107.066 81.9481 116.835 75.6161 124.428 72.5375C126.237 71.904 126.42 72.5375 126.782 73.2628C127.143 74.2574 127.323 75.4326 126.148 76.2496C121.261 79.7782 109.677 85.8408 100.986 89.0971C94.0236 91.7228 81.7031 93.9844 81.7031 83.1263C81.7031 71.6317 100.888 57.0762 111.566 57.0762C114.914 57.0762 118.446 58.5237 118.446 62.4046C118.446 68.9171 101.43 77.8807 95.6518 77.8807C94.0765 77.8345 92.5428 77.3652 91.2114 76.522C91.0368 76.7914 90.8562 76.9719 90.6756 77.2443ZM105.876 67.1055C110.041 64.3909 107.596 63.2157 104.34 65.205C102.348 66.3891 99.9944 68.3724 97.5522 70.7258C100.992 69.6424 103.976 68.3754 105.876 67.1055Z" fill="#FFC600"/>
<path d="M129.221 77.2443C123.339 85.3879 130.941 85.4797 136.734 84.1209C145.6 81.9481 155.384 75.6161 162.977 72.5375C164.786 71.904 164.966 72.5375 165.327 73.2628C165.692 74.2574 165.872 75.4326 164.694 76.2496C159.81 79.7782 148.226 85.8408 139.532 89.0971C132.564 91.7228 120.258 93.9844 120.258 83.1263C120.258 71.6317 139.443 57.0762 150.121 57.0762C153.469 57.0762 156.997 58.5237 156.997 62.4046C156.997 68.9171 139.985 77.8807 134.203 77.8807C132.628 77.8349 131.094 77.3656 129.763 76.522C129.586 76.7914 129.402 76.9719 129.221 77.2443ZM144.425 67.1055C148.587 64.3909 146.145 63.2157 142.886 65.205C140.897 66.3891 138.543 68.3724 136.098 70.7258C139.538 69.6424 142.525 68.3754 144.425 67.1055Z" fill="#FFC600"/>
<path d="M177.751 90.3964C175.975 89.8695 174.64 88.8216 172.328 85.9087C170.635 83.7714 168.948 81.1487 166.961 78.5081C162.707 83.3955 159.179 90.9056 155.017 94.9759C152.752 96.3347 150.943 94.7066 150.852 93.7918C149.857 86.9389 187.141 38.687 195.465 38.687C198.541 38.687 199.266 42.7603 197.727 44.569C192.399 50.9039 178.995 60.7674 172.751 70.7227C177.911 69.364 185.241 66.9218 190.67 66.9218C192.742 66.9218 196.46 67.3747 196.824 69.9086C197.093 71.6256 196.01 72.712 194.379 72.712C188.589 72.712 180.17 74.3431 174.199 76.5129C175.772 79.0731 177.783 81.3366 180.14 83.2001C182.156 84.775 184.11 85.7755 184.095 87.4096C184.095 88.9163 182.411 89.9791 182.206 90.1034C180.454 91.1898 178.471 90.6066 177.751 90.3964Z" fill="#FFC600"/>
<path d="M231.539 74.4555C231.539 72.5905 232.131 71.0542 233.232 69.8908C234.334 68.7274 235.811 68.1472 237.578 68.1472C238.984 68.1191 240.356 68.5736 241.468 69.4349C242.529 70.2871 243.215 71.5205 243.38 72.8718H240.716C240.384 71.3354 239.132 70.5036 237.513 70.5036C235.316 70.5036 234.079 72.037 234.079 74.3933C234.079 76.7497 235.367 78.2831 237.513 78.2831C239.135 78.2831 240.337 77.4483 240.716 75.9149H243.49C243.412 76.5851 243.203 77.2334 242.874 77.8226C242.545 78.4118 242.104 78.9305 241.574 79.3488C240.462 80.2078 239.09 80.662 237.685 80.6365C236.88 80.662 236.078 80.5206 235.331 80.221C234.583 79.9214 233.906 79.4702 233.342 78.8958C232.14 77.842 231.539 76.3204 231.539 74.4555Z" fill="white"/>
<path d="M249.199 80.6485C248.574 80.6743 247.95 80.5671 247.37 80.3339C246.789 80.1007 246.264 79.7468 245.831 79.2956C245.407 78.8572 245.076 78.3386 244.856 77.7703C244.635 77.2019 244.531 76.5953 244.549 75.9861C244.522 74.7605 244.983 73.5744 245.831 72.6884C246.656 71.8003 247.802 71.3356 249.199 71.3356C249.825 71.3106 250.449 71.4182 251.03 71.6514C251.611 71.8845 252.136 72.2379 252.571 72.6884C253.392 73.5905 253.847 74.7663 253.847 75.9861C253.847 77.2059 253.392 78.3817 252.571 79.2838C252.128 79.724 251.602 80.0714 251.023 80.3057C250.444 80.54 249.824 80.6566 249.199 80.6485ZM246.95 76.0956C246.919 76.7682 247.141 77.4279 247.571 77.9458C247.777 78.1638 248.027 78.3361 248.304 78.4514C248.581 78.5666 248.879 78.6223 249.179 78.6148C249.479 78.6254 249.778 78.5711 250.055 78.4556C250.333 78.3402 250.582 78.1663 250.786 77.9458C251.227 77.434 251.45 76.7699 251.408 76.0956C251.438 75.423 251.217 74.7631 250.786 74.2455C250.576 74.0334 250.325 73.865 250.049 73.7501C249.773 73.6352 249.477 73.5761 249.179 73.5761C248.88 73.5761 248.584 73.6352 248.308 73.7501C248.032 73.865 247.782 74.0334 247.571 74.2455C247.118 74.6718 246.95 75.3171 246.95 76.0956Z" fill="white"/>
<path d="M255.424 80.4263V71.664H257.857V80.4263H255.424ZM256.626 70.4918C256.429 70.5024 256.233 70.4721 256.049 70.4028C255.865 70.3335 255.697 70.2267 255.557 70.0892C255.301 69.7903 255.159 69.411 255.154 69.0176C255.144 68.8208 255.174 68.6241 255.243 68.4396C255.313 68.2552 255.42 68.0871 255.557 67.946C255.697 67.8078 255.864 67.7006 256.049 67.6313C256.233 67.5619 256.429 67.532 256.626 67.5434C256.823 67.5328 257.02 67.5631 257.205 67.6324C257.39 67.7017 257.558 67.8084 257.7 67.946C257.963 68.2402 258.106 68.6228 258.1 69.0176C258.117 69.2036 258.089 69.3909 258.02 69.5643C257.95 69.7377 257.841 69.8922 257.7 70.0152C257.571 70.1736 257.407 70.2994 257.22 70.3822C257.033 70.4651 256.83 70.5026 256.626 70.4918Z" fill="white"/>
<path d="M262.237 71.6314V72.6675C262.687 71.8386 263.584 71.3887 264.851 71.3887C266.897 71.3887 268.084 72.7385 268.084 74.9173V80.4263H265.772V75.2074C265.745 74.0233 265.245 73.4786 264.224 73.4786C263.04 73.4786 262.448 74.2098 262.483 75.3761V80.5417H260.047V71.661H262.237V71.6314Z" fill="white"/>
<path d="M273.437 77.5994L275.598 71.6553H278.055L274.502 80.4235H272.288L268.789 71.6582H271.308L273.437 77.5994Z" fill="white"/>
<path d="M286.965 76.7706H280.376C280.55 78.0317 281.347 78.7184 282.56 78.7184C283.36 78.7184 284.041 78.3839 284.283 77.7445H286.743C286.476 78.638 285.928 79.4217 285.18 79.9795C284.381 80.5543 283.417 80.8527 282.433 80.8291C281.829 80.8468 281.228 80.7395 280.668 80.5138C280.107 80.2881 279.6 79.949 279.177 79.5177C278.33 78.6681 277.919 77.4958 277.919 76.0601C277.897 74.8141 278.346 73.6057 279.177 72.6766C279.585 72.2205 280.088 71.8598 280.65 71.6198C281.213 71.3799 281.822 71.2667 282.433 71.2882C283.036 71.2756 283.636 71.3853 284.195 71.6107C284.755 71.836 285.263 72.1725 285.689 72.5996C286.518 73.5316 286.969 74.7393 286.953 75.9861V76.7736L286.965 76.7706ZM280.63 74.9412H284.659C284.596 74.4578 284.353 74.0161 283.978 73.7047C283.603 73.3934 283.124 73.2355 282.637 73.2627C281.581 73.2627 280.882 73.9672 280.63 74.9412Z" fill="white"/>
<path d="M287.91 77.6229H290.355C290.409 78.3038 290.864 78.8248 291.835 78.8248C292.753 78.8248 293.262 78.4903 293.262 78.0314C293.262 77.4394 292.466 77.2351 291.486 77.1108C290.98 76.9865 290.518 76.9361 290.006 76.7763C289.482 76.6376 289.02 76.3246 288.697 75.8888C288.375 75.453 288.21 74.9204 288.23 74.3785C288.222 73.9736 288.31 73.5726 288.487 73.2083C288.664 72.8441 288.925 72.5269 289.248 72.2826C289.994 71.7079 290.915 71.4097 291.856 71.439C293.061 71.439 293.952 71.735 294.588 72.3596C295.17 72.9068 295.517 73.658 295.556 74.4555H293.209C293.159 73.822 292.697 73.3631 291.83 73.3631C291.036 73.3631 290.577 73.7716 290.577 74.2068C290.577 74.7988 291.374 74.9528 292.339 75.1274C292.8 75.2518 293.307 75.3021 293.819 75.4619C294.35 75.6054 294.816 75.9266 295.139 76.3721C295.463 76.8176 295.623 77.3604 295.595 77.9101C295.606 78.3104 295.519 78.7073 295.341 79.0659C295.162 79.4246 294.899 79.7342 294.574 79.9674C293.893 80.5595 292.972 80.7637 291.767 80.7637C289.364 80.7608 288.032 79.7424 287.91 77.6229Z" fill="white"/>
<path d="M301.197 78.3543V80.4265C300.802 80.5094 300.399 80.5501 299.995 80.5479C299.274 80.5339 298.588 80.2371 298.084 79.7215C297.58 79.2059 297.299 78.5129 297.301 77.7919V73.4818H296.203V71.6583H297.301V69.4736H299.738V71.5458H301.197V73.4936H299.874V77.5314C299.874 78.1027 300.14 78.3632 300.732 78.3632H301.212L301.197 78.3543Z" fill="white"/>
<path d="M302.406 77.9604C302.406 76.3915 303.472 75.4886 305.796 75.163L308.134 74.8344V74.6657C308.134 73.8368 307.637 73.3839 306.571 73.3839C305.58 73.3839 305.059 73.7125 304.973 74.4584H302.634C302.737 73.6329 303.112 72.8652 303.7 72.2767C304.319 71.6551 305.298 71.3887 306.607 71.3887C309.15 71.3887 310.455 72.5728 310.455 74.6864V78.8633C310.444 79.3994 310.539 79.9325 310.733 80.4322H308.445C308.365 80.1057 308.324 79.7708 308.324 79.4346C307.755 80.2131 306.811 80.6187 305.541 80.6187C303.484 80.6157 302.406 79.5382 302.406 77.9604ZM308.013 76.4507L305.882 76.7793C304.994 76.951 304.529 77.2795 304.529 77.8538C304.529 78.4281 304.979 78.8011 305.882 78.8011C307.231 78.8011 308.01 78.0226 308.01 76.8296L308.013 76.4507Z" fill="white"/>
<path d="M311.715 77.6231H314.16C314.21 78.3039 314.669 78.8249 315.64 78.8249C316.558 78.8249 317.067 78.4904 317.067 78.0316C317.067 77.4395 316.274 77.2353 315.291 77.111C314.785 76.9866 314.323 76.9363 313.811 76.7765C313.286 76.6377 312.825 76.3247 312.502 75.889C312.179 75.4532 312.014 74.9206 312.035 74.3787C312.028 73.9739 312.116 73.5731 312.293 73.209C312.47 72.8448 312.73 72.5275 313.053 72.2828C313.789 71.691 314.717 71.3907 315.661 71.4391C316.866 71.4391 317.757 71.7352 318.393 72.3598C318.975 72.9069 319.322 73.6581 319.361 74.4556H317.04C316.987 73.8221 316.528 73.3633 315.658 73.3633C314.862 73.3633 314.406 73.7718 314.406 74.207C314.406 74.799 315.199 74.9529 316.182 75.1276C316.641 75.2519 317.15 75.3022 317.662 75.4621C318.193 75.6056 318.659 75.9268 318.983 76.3723C319.306 76.8178 319.467 77.3606 319.438 77.9102C319.449 78.3102 319.362 78.7067 319.184 79.0653C319.007 79.4239 318.744 79.7337 318.42 79.9676C317.736 80.5596 316.815 80.7639 315.613 80.7639C313.174 80.7609 311.884 79.7426 311.715 77.6231Z" fill="white"/>
<path d="M320.917 80.4262V71.6639H323.35V80.4262H320.917ZM322.101 70.4916C321.904 70.5022 321.708 70.4718 321.523 70.4025C321.339 70.3332 321.171 70.2265 321.03 70.0891C320.898 69.9591 320.794 69.8036 320.725 69.632C320.656 69.4604 320.622 69.2764 320.627 69.0915C320.617 68.8947 320.647 68.698 320.716 68.5136C320.786 68.3292 320.892 68.1611 321.03 68.0198C321.17 67.8822 321.339 67.7755 321.523 67.7067C321.708 67.6379 321.905 67.6084 322.101 67.6202C322.297 67.6097 322.493 67.6398 322.677 67.7086C322.861 67.7773 323.029 67.8833 323.17 68.0198C323.308 68.1604 323.415 68.3283 323.485 68.5129C323.554 68.6975 323.584 68.8946 323.572 69.0915C323.591 69.2779 323.565 69.4662 323.494 69.64C323.424 69.8138 323.313 69.9679 323.17 70.0891C323.03 70.226 322.864 70.332 322.681 70.4004C322.498 70.4687 322.302 70.4978 322.107 70.4857L322.101 70.4916Z" fill="white"/>
<path d="M212.276 76.1665V68.2591H215.823C216.734 68.2591 217.435 68.4436 217.924 68.8126C218.414 69.1741 218.658 69.6711 218.658 70.3037C218.658 70.733 218.56 71.0945 218.365 71.3882C218.176 71.6819 217.92 71.9078 217.596 72.066C217.273 72.2241 216.922 72.3032 216.546 72.3032L216.749 71.9643C217.201 71.9643 217.6 72.0434 217.947 72.2015C218.293 72.3597 218.568 72.5931 218.771 72.9019C218.975 73.2031 219.076 73.5797 219.076 74.0315C219.076 74.7093 218.82 75.2364 218.308 75.613C217.804 75.982 217.051 76.1665 216.049 76.1665H212.276ZM213.406 75.2515H216.004C216.629 75.2515 217.107 75.1461 217.438 74.9352C217.77 74.7243 217.935 74.393 217.935 73.9411C217.935 73.4818 217.77 73.1466 217.438 72.9358C217.107 72.7249 216.629 72.6195 216.004 72.6195H213.304V71.7045H215.721C216.294 71.7045 216.738 71.599 217.054 71.3882C217.371 71.1773 217.529 70.861 217.529 70.4393C217.529 70.0176 217.371 69.7013 217.054 69.4904C216.738 69.2795 216.294 69.1741 215.721 69.1741H213.406V75.2515ZM220.927 78.4258C220.641 78.4258 220.362 78.3768 220.091 78.2789C219.82 78.1885 219.587 78.053 219.391 77.8722L219.854 77.0589C220.005 77.202 220.17 77.3112 220.351 77.3865C220.532 77.4618 220.724 77.4995 220.927 77.4995C221.191 77.4995 221.409 77.4317 221.582 77.2961C221.755 77.1606 221.917 76.9196 222.068 76.5732L222.441 75.7485L222.554 75.613L224.903 70.1795H225.965L223.062 76.7652C222.889 77.1869 222.693 77.5183 222.475 77.7593C222.264 78.0003 222.03 78.1697 221.774 78.2676C221.518 78.373 221.236 78.4258 220.927 78.4258ZM222.35 76.3585L219.617 70.1795H220.746L223.073 75.5113L222.35 76.3585Z" fill="white"/>
</g>
<defs>
<linearGradient id="paint0_linear_3441_4738" x1="86.4742" y1="2.04834" x2="86.4742" y2="16.7815" gradientUnits="userSpaceOnUse">
<stop stop-color="white" stop-opacity="0"/>
<stop offset="1" stop-color="white"/>
</linearGradient>
<linearGradient id="paint1_linear_3441_4738" x1="126.697" y1="39.279" x2="115.152" y2="39.279" gradientUnits="userSpaceOnUse">
<stop stop-color="white"/>
<stop offset="1" stop-color="white" stop-opacity="0"/>
</linearGradient>
<linearGradient id="paint2_linear_3441_4738" x1="167.519" y1="2.65479" x2="167.519" y2="47.6978" gradientUnits="userSpaceOnUse">
<stop stop-color="white"/>
<stop offset="0.875822" stop-color="white" stop-opacity="0"/>
</linearGradient>
<linearGradient id="paint3_linear_3441_4738" x1="213.138" y1="22.4884" x2="180.279" y2="22.4884" gradientUnits="userSpaceOnUse">
<stop stop-color="white"/>
<stop offset="1" stop-color="white" stop-opacity="0"/>
</linearGradient>
<linearGradient id="paint4_linear_3441_4738" x1="225.874" y1="2.65479" x2="225.874" y2="47.7007" gradientUnits="userSpaceOnUse">
<stop stop-color="white" stop-opacity="0"/>
<stop offset="1" stop-color="white"/>
</linearGradient>
<linearGradient id="paint5_linear_3441_4738" x1="295.135" y1="9.0848" x2="259.021" y2="9.0848" gradientUnits="userSpaceOnUse">
<stop stop-color="white"/>
<stop offset="1" stop-color="white" stop-opacity="0"/>
</linearGradient>
<linearGradient id="paint6_linear_3441_4738" x1="318.497" y1="2.65479" x2="318.497" y2="47.6948" gradientUnits="userSpaceOnUse">
<stop stop-color="white" stop-opacity="0"/>
<stop offset="1" stop-color="white"/>
</linearGradient>
<linearGradient id="paint7_linear_3441_4738" x1="57.4284" y1="48.6125" x2="12.1367" y2="48.6125" gradientUnits="userSpaceOnUse">
<stop stop-color="white"/>
<stop offset="1" stop-color="white" stop-opacity="0"/>
</linearGradient>
<clipPath id="clip0_3441_4738">
<rect width="338" height="104.254" fill="white" transform="translate(0 0.5)"/>
</clipPath>
</defs>
</svg>
