<svg width="144" height="48" viewBox="0 0 144 48" fill="none" xmlns="http://www.w3.org/2000/svg">
<path d="M47.6196 47.6941V40.103H42.4713V47.6941H47.6196Z" fill="url(#paint0_linear_490_42315)"/>
<path d="M47.6196 27.574H42.4713V40.1031H47.6196V27.574Z" fill="url(#paint1_linear_490_42315)"/>
<path d="M37.7925 31.9284C37.5805 31.3917 37.3231 30.8856 36.99 30.4102C36.5963 29.8428 36.1117 29.3367 35.5666 28.9073C34.9004 28.3859 34.1433 27.9872 33.3408 27.7418C32.4474 27.4351 31.3572 27.2971 30.1004 27.2971C28.4651 27.2971 27.072 27.5732 25.8909 28.1099C24.7855 28.5853 23.8467 29.3674 23.1654 30.3642C22.5445 31.315 22.2114 32.4192 22.2114 33.554H27.2688C27.2688 33.508 27.2688 33.462 27.2688 33.416C27.2688 33.1093 27.3597 32.8026 27.5262 32.5418C27.7382 32.2198 28.0411 31.9591 28.3893 31.8057C28.7982 31.6064 29.3281 31.499 30.0095 31.499C30.7363 31.499 31.2966 31.591 31.7206 31.8057C32.084 31.9744 32.402 32.2198 32.6745 32.5112C32.9016 32.8179 33.0834 33.1706 33.1742 33.5387H38.2468C38.1256 33.0019 37.9742 32.4498 37.7925 31.9284Z" fill="url(#paint2_linear_490_42315)"/>
<path d="M38.7781 41.4834C38.7932 42.6642 38.4601 43.8297 37.809 44.8265C37.1579 45.808 36.2342 46.5747 35.0229 47.1268C33.8115 47.6789 32.3276 47.9549 30.5711 47.9549C29.1932 47.9549 28.0121 47.7862 27.0431 47.4642C26.1648 47.2035 25.3623 46.7741 24.6355 46.222C24.045 45.762 23.5301 45.2099 23.1213 44.5965C22.7882 44.0904 22.5005 43.5383 22.2885 42.9556C22.0916 42.3882 21.9554 41.8054 21.8494 41.2073H27.0582C27.1793 41.6674 27.3762 42.0968 27.6336 42.4802C27.9364 42.8636 28.315 43.1549 28.739 43.3543C29.2386 43.615 29.92 43.7377 30.7831 43.7377C31.8431 43.7377 32.585 43.523 32.9938 43.1243C33.4027 42.7255 33.6298 42.2808 33.6298 41.8054C33.645 41.4067 33.4784 41.008 33.1604 40.7626C32.8424 40.5019 32.2973 40.3025 31.5251 40.1799L28.8752 39.7505C27.7547 39.5664 26.6645 39.2444 25.6197 38.7997C24.6506 38.4009 23.7875 37.7568 23.1364 36.9287C22.5005 36.116 22.1825 35.0425 22.1825 33.7236C22.1825 33.6623 22.1825 33.6163 22.1825 33.5549H27.2399C27.2702 33.9997 27.5579 34.3984 27.9667 34.5671C28.5421 34.8431 29.1478 35.0271 29.7838 35.1191L32.5699 35.5792C33.6298 35.7479 34.6746 36.0699 35.6437 36.5453C36.5522 36.9747 37.3244 37.6342 37.915 38.4469C38.4904 39.2597 38.7781 40.2719 38.7781 41.4834Z" fill="url(#paint3_linear_490_42315)"/>
<path d="M6.60118 27.5903L-0.000732422 47.7105H5.35952L6.40432 44.3367L7.78224 39.8894L9.31157 34.9514L10.0838 32.4517L11.5829 27.5903H6.60118Z" fill="url(#paint4_linear_490_42315)"/>
<path d="M20.1532 47.7105H14.7929L13.7481 44.3367H6.41943L7.79735 39.8894H12.3702L10.0838 32.4517L11.598 27.5903H13.5513L20.1532 47.7105Z" fill="url(#paint5_linear_490_42315)"/>
<path d="M57.4625 27.5903L50.8607 47.7105H56.2209L57.2657 44.3367L58.6436 39.8894L60.173 34.9514L60.9452 32.4517L62.4443 27.5903H57.4625Z" fill="url(#paint6_linear_490_42315)"/>
<path d="M71.0131 47.7105H65.6529L64.5929 44.3367H57.2794L58.6573 39.8894H63.2302L60.9437 32.4517L62.4428 27.5903H64.4112L71.0131 47.7105Z" fill="url(#paint7_linear_490_42315)"/>
<path d="M32.9229 0.689605C31.6661 0.67427 30.4245 0.858296 29.2434 1.24168V7.05382C29.516 6.71644 29.8339 6.3944 30.1822 6.13369C30.909 5.58162 31.8327 5.30558 32.9229 5.30558C34.0283 5.30558 34.9519 5.58162 35.6787 6.13369C36.1179 6.45574 36.4964 6.85446 36.7992 7.29919V1.31836C35.5576 0.873632 34.2403 0.67427 32.9229 0.689605Z" fill="url(#paint8_linear_490_42315)"/>
<path d="M43.2511 10.9949C43.2511 12.283 43.0391 13.5712 42.6 14.7827C42.176 16.0096 41.5249 17.1444 40.6618 18.1105C39.7533 19.1227 38.6479 19.9354 37.4214 20.4722C36.1343 21.0549 34.6353 21.3463 32.9091 21.3463C31.1829 21.3463 29.6839 21.0549 28.3968 20.4722C27.1703 19.9201 26.0649 19.1227 25.1716 18.1105C24.3236 17.1444 23.6574 16.0096 23.2182 14.7827C22.7791 13.5712 22.552 12.283 22.552 10.9949C22.552 9.70668 22.7791 8.43383 23.2182 7.23767C23.6574 6.01083 24.3085 4.89134 25.1716 3.92521C26.0649 2.91307 27.1703 2.11562 28.3817 1.57888C28.6542 1.4562 28.9268 1.34885 29.2145 1.25684V7.05364C28.9268 7.42169 28.6845 7.83575 28.5028 8.26514C27.7608 10.0134 27.7608 11.9763 28.5028 13.7246C28.8511 14.5834 29.4264 15.3195 30.1533 15.8715C30.8801 16.4236 31.8037 16.6996 32.894 16.6996C33.9842 16.6996 34.923 16.4236 35.6498 15.8715C36.3766 15.3195 36.952 14.5834 37.3003 13.7246C38.0271 11.9763 38.0271 10.0134 37.3003 8.26514C37.164 7.92776 36.9823 7.59038 36.7703 7.29901V1.31818C36.9823 1.39486 37.1943 1.47153 37.3911 1.57888C38.6176 2.11562 39.723 2.9284 40.6315 3.92521C41.4946 4.89134 42.1457 6.01083 42.5697 7.23767C43.0391 8.44917 43.2511 9.70668 43.2511 10.9949Z" fill="url(#paint9_linear_490_42315)"/>
<path d="M50.8196 21.0864V13.4954H45.6713V21.0864H50.8196Z" fill="url(#paint10_linear_490_42315)"/>
<path d="M50.8196 0.966309H45.6713V13.4954H50.8196V0.966309Z" fill="url(#paint11_linear_490_42315)"/>
<path d="M66.2205 0.966309V12.1459L66.2053 12.1305V20.6417L66.5233 21.1018H71.3233V0.966309H66.2205Z" fill="url(#paint12_linear_490_42315)"/>
<path d="M66.2027 12.1152V20.6264L59.2374 10.4743V21.0864H54.1345V0.966309H58.8891L66.2027 12.1152Z" fill="url(#paint13_linear_490_42315)"/>
<path d="M74.4427 0.966309V9.81487H79.591V5.47493H88.8276V0.966309H74.4427Z" fill="url(#paint14_linear_490_42315)"/>
<path d="M87.6163 9.82979V14.1544H79.591V21.086H74.4427V9.81445H79.591V9.82979H87.6163Z" fill="url(#paint15_linear_490_42315)"/>
<path d="M91.9156 0.966309V21.0864H97.0639V0.966309H91.9156Z" fill="url(#paint16_linear_490_42315)"/>
<path d="M106.452 16.5625H97.0793V21.0711H106.452V16.5625Z" fill="url(#paint17_linear_490_42315)"/>
<path d="M105.105 8.74023H97.0793V13.0342H105.105V8.74023Z" fill="url(#paint18_linear_490_42315)"/>
<path d="M106.316 0.966309H97.0793V5.47493H106.316V0.966309Z" fill="url(#paint19_linear_490_42315)"/>
<path d="M124.667 5.33736C124.47 4.80062 124.198 4.29455 123.865 3.83449C122.971 2.56164 121.699 1.61085 120.231 1.15078C119.337 0.844073 118.247 0.706055 116.975 0.706055C115.34 0.706055 113.947 0.982091 112.766 1.51883C111.585 2.05557 110.676 2.82235 110.04 3.77315C109.419 4.70861 109.086 5.81276 109.086 6.94759H114.144C114.144 6.90158 114.144 6.85557 114.144 6.80957C114.144 6.50286 114.234 6.19615 114.401 5.93545C114.613 5.6134 114.916 5.3527 115.264 5.19934C115.673 4.99998 116.203 4.89263 116.884 4.89263C117.611 4.89263 118.171 4.99998 118.595 5.19934C118.959 5.36803 119.277 5.6134 119.549 5.90478C119.776 6.21149 119.958 6.54887 120.064 6.91692H125.137C125.016 6.38018 124.864 5.84343 124.667 5.33736Z" fill="url(#paint20_linear_490_42315)"/>
<path d="M125.665 14.8904C125.68 16.0712 125.347 17.2367 124.696 18.2335C124.045 19.215 123.121 19.9664 121.91 20.5338C120.699 21.0859 119.215 21.362 117.443 21.362C116.065 21.362 114.884 21.1933 113.915 20.8712C113.037 20.6105 112.234 20.1811 111.507 19.6291C110.917 19.169 110.402 18.6169 109.993 18.0035C109.66 17.4974 109.372 16.9453 109.16 16.3626C108.964 15.7952 108.827 15.2124 108.721 14.6144H113.93C114.051 15.0744 114.248 15.5038 114.506 15.8872C114.808 16.2706 115.187 16.562 115.611 16.7613C116.111 17.022 116.792 17.1447 117.655 17.1447C118.715 17.1447 119.457 16.9453 119.866 16.5313C120.29 16.1172 120.502 15.6878 120.502 15.2124C120.517 14.8137 120.35 14.415 120.032 14.1696C119.714 13.9089 119.169 13.7096 118.397 13.5869L115.747 13.1575C114.627 12.9735 113.536 12.6514 112.492 12.2067C111.523 11.808 110.659 11.1639 110.008 10.3358C109.372 9.52298 109.054 8.4495 109.054 7.13065C109.054 7.08464 109.054 7.0233 109.054 6.97729H114.142C114.172 7.42202 114.46 7.82075 114.869 7.98944C115.444 8.26547 116.05 8.4495 116.686 8.54151L119.472 9.00158C120.532 9.17027 121.577 9.49231 122.546 9.96771C123.454 10.3971 124.227 11.0565 124.817 11.8693C125.377 12.6667 125.665 13.6789 125.665 14.8904Z" fill="url(#paint21_linear_490_42315)"/>
<path d="M132.769 0.966309V5.47493H132.784V21.0711H137.933V0.966309H132.769Z" fill="url(#paint22_linear_490_42315)"/>
<path d="M143.944 0.966309H137.933V5.47493H143.944V0.966309Z" fill="url(#paint23_linear_490_42315)"/>
<path d="M132.753 0.966309H126.757V5.47493H132.753V0.966309Z" fill="url(#paint24_linear_490_42315)"/>
<path d="M14.8592 13.6478C14.7078 14.1845 14.4655 14.6906 14.1626 15.1507C13.8295 15.5954 13.3904 15.9481 12.8907 16.1935C12.3153 16.5002 11.5431 16.6536 10.6043 16.6536C9.48378 16.6536 8.54497 16.3622 7.80302 15.7794C7.04592 15.1967 6.47053 14.4299 6.12226 13.5558C6.07684 13.4331 6.01627 13.3104 5.98598 13.1877H0.277466C0.38346 13.6785 0.519737 14.1692 0.686298 14.6599C1.12541 15.9328 1.79166 17.0983 2.6699 18.1258C3.57841 19.1839 4.69892 20.012 5.9557 20.5794C7.27305 21.1929 8.81753 21.4996 10.5589 21.4996C12.0579 21.4996 13.3298 21.3155 14.3898 20.9322C15.3589 20.6101 16.2522 20.1194 17.0396 19.4753C17.7059 18.9385 18.2661 18.2945 18.7204 17.5737C19.0989 16.9756 19.4169 16.3468 19.6592 15.6874C19.8712 15.074 20.0377 14.4606 20.1589 13.8165C20.1589 13.7552 20.174 13.7092 20.1891 13.6631L14.8592 13.6478Z" fill="url(#paint25_linear_490_42315)"/>
<path d="M20.1584 7.83642H14.8587C14.7073 7.29968 14.465 6.79361 14.1621 6.33355C13.829 5.88882 13.3899 5.52077 12.8902 5.2754C12.3148 4.96869 11.5426 4.81533 10.6038 4.81533C9.48328 4.81533 8.54448 5.10671 7.80252 5.67412C7.04542 6.24153 6.47003 7.00831 6.12177 7.89776C5.42524 9.58466 5.37981 11.4709 5.98549 13.1885H0.261828C-0.19243 11.0722 -0.0561533 8.84856 0.670661 6.80894C1.10978 5.55144 1.77602 4.38594 2.65426 3.3738C3.56277 2.33099 4.68328 1.48754 5.94006 0.920128C7.25741 0.306709 8.80189 0 10.5432 0C12.0423 0 13.3142 0.199361 14.3741 0.567412C15.3432 0.889456 16.2366 1.38019 17.024 2.02428C17.6751 2.56102 18.2505 3.20511 18.7047 3.91054C19.0833 4.50863 19.4013 5.13738 19.6435 5.81214C19.8707 6.45623 20.0372 7.13099 20.1584 7.83642Z" fill="url(#paint26_linear_490_42315)"/>
<defs>
<linearGradient id="paint0_linear_490_42315" x1="47.6135" y1="43.9016" x2="42.4713" y2="43.9016" gradientUnits="userSpaceOnUse">
<stop stop-color="#004ED0"/>
<stop offset="0.09" stop-color="#004ED0" stop-opacity="0.95"/>
<stop offset="0.23" stop-color="#004ED0" stop-opacity="0.82"/>
<stop offset="0.41" stop-color="#004ED0" stop-opacity="0.61"/>
<stop offset="0.63" stop-color="#004ED0" stop-opacity="0.32"/>
<stop offset="0.84" stop-color="#004ED0" stop-opacity="0"/>
</linearGradient>
<linearGradient id="paint1_linear_490_42315" x1="42.4713" y1="33.8385" x2="47.771" y2="33.8385" gradientUnits="userSpaceOnUse">
<stop stop-color="#004ED0"/>
<stop offset="1" stop-color="#5B97FC"/>
</linearGradient>
<linearGradient id="paint2_linear_490_42315" x1="22.2206" y1="30.4217" x2="38.2666" y2="30.4217" gradientUnits="userSpaceOnUse">
<stop offset="0.02" stop-color="#004ED0" stop-opacity="0"/>
<stop offset="0.35" stop-color="#004ED0" stop-opacity="0.38"/>
<stop offset="0.66" stop-color="#004ED0" stop-opacity="0.72"/>
<stop offset="0.89" stop-color="#004ED0" stop-opacity="0.92"/>
<stop offset="1" stop-color="#004ED0"/>
</linearGradient>
<linearGradient id="paint3_linear_490_42315" x1="21.8494" y1="40.7549" x2="39.2765" y2="40.7549" gradientUnits="userSpaceOnUse">
<stop stop-color="#004ED0"/>
<stop offset="1" stop-color="#5B97FC"/>
</linearGradient>
<linearGradient id="paint4_linear_490_42315" x1="1.59288" y1="48.3772" x2="10.5109" y2="27.1409" gradientUnits="userSpaceOnUse">
<stop stop-color="#004ED0"/>
<stop offset="0.09" stop-color="#004ED0" stop-opacity="0.95"/>
<stop offset="0.23" stop-color="#004ED0" stop-opacity="0.82"/>
<stop offset="0.41" stop-color="#004ED0" stop-opacity="0.61"/>
<stop offset="0.63" stop-color="#004ED0" stop-opacity="0.32"/>
<stop offset="0.84" stop-color="#004ED0" stop-opacity="0"/>
</linearGradient>
<linearGradient id="paint5_linear_490_42315" x1="6.41943" y1="37.6504" x2="20.5571" y2="37.6504" gradientUnits="userSpaceOnUse">
<stop stop-color="#004ED0"/>
<stop offset="1" stop-color="#5B97FC"/>
</linearGradient>
<linearGradient id="paint6_linear_490_42315" x1="52.4606" y1="48.3767" x2="61.3784" y2="27.1409" gradientUnits="userSpaceOnUse">
<stop stop-color="#004ED0"/>
<stop offset="0.09" stop-color="#004ED0" stop-opacity="0.95"/>
<stop offset="0.23" stop-color="#004ED0" stop-opacity="0.82"/>
<stop offset="0.41" stop-color="#004ED0" stop-opacity="0.61"/>
<stop offset="0.63" stop-color="#004ED0" stop-opacity="0.32"/>
<stop offset="0.84" stop-color="#004ED0" stop-opacity="0"/>
</linearGradient>
<linearGradient id="paint7_linear_490_42315" x1="57.2794" y1="37.6504" x2="71.417" y2="37.6504" gradientUnits="userSpaceOnUse">
<stop stop-color="#004ED0"/>
<stop offset="1" stop-color="#5B97FC"/>
</linearGradient>
<linearGradient id="paint8_linear_490_42315" x1="33.016" y1="7.28843" x2="33.016" y2="0.689484" gradientUnits="userSpaceOnUse">
<stop stop-color="#004ED0"/>
<stop offset="0.09" stop-color="#004ED0" stop-opacity="0.95"/>
<stop offset="0.23" stop-color="#004ED0" stop-opacity="0.82"/>
<stop offset="0.41" stop-color="#004ED0" stop-opacity="0.61"/>
<stop offset="0.63" stop-color="#004ED0" stop-opacity="0.32"/>
<stop offset="0.84" stop-color="#004ED0" stop-opacity="0"/>
</linearGradient>
<linearGradient id="paint9_linear_490_42315" x1="22.552" y1="11.3016" x2="43.8599" y2="11.3016" gradientUnits="userSpaceOnUse">
<stop stop-color="#004ED0"/>
<stop offset="1" stop-color="#5B97FC"/>
</linearGradient>
<linearGradient id="paint10_linear_490_42315" x1="50.8151" y1="17.2947" x2="45.6698" y2="17.2947" gradientUnits="userSpaceOnUse">
<stop stop-color="#004ED0"/>
<stop offset="0.09" stop-color="#004ED0" stop-opacity="0.95"/>
<stop offset="0.23" stop-color="#004ED0" stop-opacity="0.82"/>
<stop offset="0.41" stop-color="#004ED0" stop-opacity="0.61"/>
<stop offset="0.63" stop-color="#004ED0" stop-opacity="0.32"/>
<stop offset="0.84" stop-color="#004ED0" stop-opacity="0"/>
</linearGradient>
<linearGradient id="paint11_linear_490_42315" x1="45.6713" y1="7.23085" x2="50.971" y2="7.23085" gradientUnits="userSpaceOnUse">
<stop stop-color="#004ED0"/>
<stop offset="1" stop-color="#5B97FC"/>
</linearGradient>
<linearGradient id="paint12_linear_490_42315" x1="68.7651" y1="0.961683" x2="68.7651" y2="21.1049" gradientUnits="userSpaceOnUse">
<stop stop-color="#004ED0"/>
<stop offset="0.09" stop-color="#004ED0" stop-opacity="0.95"/>
<stop offset="0.23" stop-color="#004ED0" stop-opacity="0.82"/>
<stop offset="0.41" stop-color="#004ED0" stop-opacity="0.61"/>
<stop offset="0.63" stop-color="#004ED0" stop-opacity="0.32"/>
<stop offset="0.84" stop-color="#004ED0" stop-opacity="0"/>
</linearGradient>
<linearGradient id="paint13_linear_490_42315" x1="54.1345" y1="11.0264" x2="66.5576" y2="11.0264" gradientUnits="userSpaceOnUse">
<stop stop-color="#004ED0"/>
<stop offset="1" stop-color="#5B97FC"/>
</linearGradient>
<linearGradient id="paint14_linear_490_42315" x1="74.4488" y1="5.3852" x2="88.8215" y2="5.3852" gradientUnits="userSpaceOnUse">
<stop offset="0.02" stop-color="#004ED0" stop-opacity="0"/>
<stop offset="0.35" stop-color="#004ED0" stop-opacity="0.38"/>
<stop offset="0.66" stop-color="#004ED0" stop-opacity="0.72"/>
<stop offset="0.89" stop-color="#004ED0" stop-opacity="0.92"/>
<stop offset="1" stop-color="#004ED0"/>
</linearGradient>
<linearGradient id="paint15_linear_490_42315" x1="74.4427" y1="15.4502" x2="88.0037" y2="15.4502" gradientUnits="userSpaceOnUse">
<stop stop-color="#004ED0"/>
<stop offset="1" stop-color="#5B97FC"/>
</linearGradient>
<linearGradient id="paint16_linear_490_42315" x1="94.4845" y1="21.0895" x2="94.4845" y2="0.961687" gradientUnits="userSpaceOnUse">
<stop stop-color="#004ED0"/>
<stop offset="0.09" stop-color="#004ED0" stop-opacity="0.95"/>
<stop offset="0.23" stop-color="#004ED0" stop-opacity="0.82"/>
<stop offset="0.41" stop-color="#004ED0" stop-opacity="0.61"/>
<stop offset="0.63" stop-color="#004ED0" stop-opacity="0.32"/>
<stop offset="0.84" stop-color="#004ED0" stop-opacity="0"/>
</linearGradient>
<linearGradient id="paint17_linear_490_42315" x1="97.0793" y1="18.8168" x2="106.728" y2="18.8168" gradientUnits="userSpaceOnUse">
<stop stop-color="#004ED0"/>
<stop offset="1" stop-color="#5B97FC"/>
</linearGradient>
<linearGradient id="paint18_linear_490_42315" x1="97.0793" y1="10.8872" x2="105.341" y2="10.8872" gradientUnits="userSpaceOnUse">
<stop stop-color="#004ED0"/>
<stop offset="1" stop-color="#5B97FC"/>
</linearGradient>
<linearGradient id="paint19_linear_490_42315" x1="97.0793" y1="3.22062" x2="106.588" y2="3.22062" gradientUnits="userSpaceOnUse">
<stop stop-color="#004ED0"/>
<stop offset="1" stop-color="#5B97FC"/>
</linearGradient>
<linearGradient id="paint20_linear_490_42315" x1="109.074" y1="3.82682" x2="125.137" y2="3.82682" gradientUnits="userSpaceOnUse">
<stop offset="0.02" stop-color="#004ED0" stop-opacity="0"/>
<stop offset="0.35" stop-color="#004ED0" stop-opacity="0.38"/>
<stop offset="0.66" stop-color="#004ED0" stop-opacity="0.72"/>
<stop offset="0.89" stop-color="#004ED0" stop-opacity="0.92"/>
<stop offset="1" stop-color="#004ED0"/>
</linearGradient>
<linearGradient id="paint21_linear_490_42315" x1="108.721" y1="14.1696" x2="126.164" y2="14.1696" gradientUnits="userSpaceOnUse">
<stop stop-color="#004ED0"/>
<stop offset="1" stop-color="#5B97FC"/>
</linearGradient>
<linearGradient id="paint22_linear_490_42315" x1="135.347" y1="21.0742" x2="135.347" y2="0.961691" gradientUnits="userSpaceOnUse">
<stop stop-color="#004ED0"/>
<stop offset="0.09" stop-color="#004ED0" stop-opacity="0.95"/>
<stop offset="0.23" stop-color="#004ED0" stop-opacity="0.82"/>
<stop offset="0.41" stop-color="#004ED0" stop-opacity="0.61"/>
<stop offset="0.63" stop-color="#004ED0" stop-opacity="0.32"/>
<stop offset="0.84" stop-color="#004ED0" stop-opacity="0"/>
</linearGradient>
<linearGradient id="paint23_linear_490_42315" x1="137.933" y1="3.22062" x2="144.121" y2="3.22062" gradientUnits="userSpaceOnUse">
<stop stop-color="#004ED0"/>
<stop offset="1" stop-color="#5B97FC"/>
</linearGradient>
<linearGradient id="paint24_linear_490_42315" x1="126.757" y1="3.22062" x2="132.929" y2="3.22062" gradientUnits="userSpaceOnUse">
<stop stop-color="#004ED0"/>
<stop offset="1" stop-color="#5B97FC"/>
</linearGradient>
<linearGradient id="paint25_linear_490_42315" x1="20.177" y1="17.3252" x2="0.269866" y2="17.3252" gradientUnits="userSpaceOnUse">
<stop stop-color="#004ED0"/>
<stop offset="0.09" stop-color="#004ED0" stop-opacity="0.95"/>
<stop offset="0.23" stop-color="#004ED0" stop-opacity="0.82"/>
<stop offset="0.41" stop-color="#004ED0" stop-opacity="0.61"/>
<stop offset="0.63" stop-color="#004ED0" stop-opacity="0.32"/>
<stop offset="0.84" stop-color="#004ED0" stop-opacity="0"/>
</linearGradient>
<linearGradient id="paint26_linear_490_42315" x1="-0.000244178" y1="6.59425" x2="20.7513" y2="6.59425" gradientUnits="userSpaceOnUse">
<stop stop-color="#004ED0"/>
<stop offset="1" stop-color="#5B97FC"/>
</linearGradient>
</defs>
</svg>
