<svg width="223" height="20" fill="none" xmlns="http://www.w3.org/2000/svg"><path d="M7.065 2.373H5.287c-1.45 0-2.807.795-3.79 2.293C.515 6.069 0 7.988 0 10c0 2.105.561 4.024 1.59 5.474.983 1.404 2.293 2.152 3.65 2.152h1.778c1.31-.093 2.527-.889 3.416-2.292.982-1.45 1.497-3.322 1.497-5.334 0-1.919-.514-3.837-1.45-5.24-.842-1.404-2.106-2.2-3.416-2.387Z" fill="#875F27"/><path d="M10.154 10.047c0-2.012-.562-3.696-1.404-5.053-.608-.89-1.31-1.591-2.152-1.919v-.374h-1.45c-2.715 0-4.96 3.275-4.96 7.3 0 2.105.608 3.976 1.544 5.333.889 1.217 2.105 2.012 3.415 2.012h1.45v-.327c2.106-.983 3.557-3.697 3.557-6.972Z" fill="#F8B828"/><path d="M6.691 17.393H5.147c-1.31 0-2.527-.749-3.462-2.106C.702 13.883.14 12.012.14 9.953c0-4.07 2.292-7.392 5.053-7.392h1.544v.327c.795.421 1.544 1.03 2.105 1.918.89 1.404 1.404 3.182 1.404 5.1 0 3.229-1.404 6.036-3.462 7.019l-.094.468ZM5.194 2.748C2.527 2.748.328 5.976.328 10c0 2.012.561 3.883 1.497 5.24.889 1.31 2.106 2.012 3.369 2.012h1.404v-.327h.046c.983-.468 1.825-1.357 2.48-2.574.655-1.216.983-2.807.983-4.351 0-1.872-.515-3.65-1.357-5.006-.655-.89-1.404-1.544-2.152-1.872H6.55v-.374H5.194Z" fill="#B28445"/><path d="M10.293 4.947c-.89-1.404-2.152-2.293-3.556-2.293-2.76.047-5.007 3.322-5.007 7.3 0 2.105.609 3.976 1.545 5.333C4.164 16.504 5.38 17.3 6.69 17.3c2.714 0 4.96-3.275 4.96-7.299-.047-1.918-.515-3.696-1.357-5.053ZM6.97 15.521h-.234c-.983 0-1.872-.608-2.574-1.497-.701-.936-1.17-2.293-1.17-3.79V10c0-2.994 1.685-5.52 3.697-5.52h.234c1.918.186 3.462 2.572 3.462 5.52v.234c-.046 2.854-1.544 5.1-3.415 5.287Z" fill="#F6E245"/><path d="M6.69 17.393c-1.31 0-2.527-.749-3.462-2.106-.983-1.404-1.544-3.275-1.544-5.334 0-4.07 2.245-7.392 5.006-7.392 1.404 0 2.667.795 3.603 2.292.889 1.404 1.403 3.182 1.403 5.1-.046 4.118-2.292 7.44-5.006 7.44Zm0-14.645c-2.667 0-4.866 3.228-4.866 7.252 0 2.012.561 3.883 1.497 5.24.89 1.31 2.106 2.012 3.369 2.012 2.667 0 4.866-3.228 4.866-7.252 0-1.872-.515-3.65-1.357-5.006-.936-1.45-2.152-2.246-3.509-2.246Zm0 12.867c-.983 0-1.918-.562-2.62-1.544-.749-.983-1.17-2.387-1.17-3.837V10c0-3.088 1.685-5.615 3.837-5.615h.234c2.012.187 3.556 2.62 3.556 5.615v.234c-.094 2.854-1.591 5.194-3.556 5.334-.14.047-.187.047-.281.047Zm0-11.043c-2.012 0-3.65 2.433-3.65 5.475v.234c.047 1.45.468 2.807 1.17 3.696.702.936 1.591 1.497 2.48 1.497h.234c1.872-.187 3.322-2.433 3.416-5.193v-.234c0-2.854-1.498-5.24-3.416-5.475H6.69Z" fill="#B28445"/><path d="M6.968 4.53H6.547h.047c1.918.186 3.462 2.573 3.462 5.52v.234c-.094 2.854-1.59 5.1-3.462 5.24h-.047H6.968c1.872-.186 3.416-2.48 3.462-5.24v-.234c0-2.947-1.544-5.334-3.462-5.52Z" fill="#F8B218"/><path d="M6.687 15.618H6.5v-.14h.047c1.871-.187 3.322-2.433 3.415-5.194v-.234c0-2.854-1.497-5.24-3.415-5.474H6.5v-.14h.515c2.012.187 3.556 2.62 3.556 5.614v.234c-.094 2.854-1.591 5.194-3.556 5.334h-.328Zm.749-10.902c1.544.749 2.62 2.854 2.62 5.334v.234c-.047 2.386-1.17 4.351-2.62 5.1 1.59-.514 2.854-2.573 2.854-5.1v-.234c.047-2.573-1.17-4.819-2.854-5.334Z" fill="#B28445"/><path d="M8.8 2.373H7.022c-1.45 0-2.808.795-3.79 2.293C2.249 6.069 1.734 7.988 1.734 10c0 2.105.562 4.024 1.591 5.474.983 1.404 2.293 2.152 3.65 2.152h1.778c1.31-.093 2.526-.889 3.415-2.292.983-1.45 1.498-3.322 1.498-5.334 0-1.919-.515-3.837-1.45-5.24-.843-1.404-2.06-2.2-3.416-2.387Z" fill="#875F27"/><path d="M11.888 10.047c0-2.012-.562-3.696-1.404-5.053-.608-.89-1.31-1.591-2.152-1.919v-.374h-1.45c-2.714 0-4.96 3.275-4.96 7.3 0 2.105.608 3.976 1.544 5.333.889 1.217 2.105 2.012 3.416 2.012h1.45v-.327c2.105-.983 3.556-3.697 3.556-6.972Z" fill="#F8B828"/><path d="M8.52 17.393H6.974c-1.31 0-2.526-.749-3.462-2.106-.983-1.404-1.544-3.322-1.544-5.334 0-4.07 2.246-7.392 5.006-7.392H8.52v.327c.796.421 1.544 1.03 2.106 1.918.889 1.404 1.403 3.182 1.403 5.1 0 1.591-.327 3.135-.982 4.399-.655 1.216-1.497 2.152-2.48 2.62l-.047.468ZM6.974 2.748C4.308 2.748 2.11 5.976 2.11 10c0 2.012.562 3.883 1.497 5.24.89 1.31 2.106 2.012 3.37 2.012h1.403v-.327h.047c.982-.468 1.824-1.357 2.48-2.574.654-1.216.982-2.807.982-4.351 0-1.872-.515-3.65-1.357-5.006-.655-.89-1.404-1.544-2.152-1.872h-.047v-.374H6.975Z" fill="#B28445"/><path d="M11.984 4.947c-.889-1.404-2.152-2.293-3.556-2.293-2.713 0-4.96 3.276-4.96 7.3 0 2.105.609 3.976 1.545 5.333.889 1.217 2.105 2.012 3.415 2.012 2.714 0 4.96-3.275 4.96-7.299.047-1.918-.562-3.696-1.404-5.053ZM8.71 15.521h-.234c-.982 0-1.871-.608-2.573-1.497-.702-.936-1.17-2.293-1.17-3.79V10c0-2.994 1.684-5.52 3.696-5.52h.234c1.919.186 3.463 2.572 3.463 5.52v.234c0 2.854-1.544 5.1-3.416 5.287Z" fill="#F6E245"/><path d="M8.428 17.393c-1.31 0-2.526-.749-3.462-2.106-.983-1.404-1.544-3.322-1.544-5.334 0-4.07 2.246-7.392 5.006-7.392 1.404 0 2.667.795 3.603 2.292.889 1.404 1.404 3.182 1.404 5.1 0 4.118-2.246 7.44-5.007 7.44Zm0-14.645c-2.667 0-4.866 3.228-4.866 7.252 0 2.012.562 3.883 1.497 5.24.89 1.31 2.106 2.012 3.37 2.012 2.666 0 4.865-3.228 4.865-7.252 0-1.872-.514-3.65-1.357-5.006-.935-1.45-2.152-2.246-3.509-2.246Zm0 12.867c-.982 0-1.918-.562-2.62-1.544-.749-.983-1.17-2.387-1.17-3.837V10c0-3.088 1.685-5.615 3.837-5.615h.234c2.012.187 3.556 2.62 3.556 5.615v.234c-.094 2.854-1.59 5.194-3.556 5.334-.047.047-.187.047-.28.047Zm0-11.043c-2.012 0-3.65 2.433-3.65 5.475v.234c.048 1.45.469 2.807 1.17 3.696.702.936 1.591 1.497 2.48 1.497h.234c1.872-.187 3.322-2.433 3.416-5.193v-.234c0-2.854-1.497-5.24-3.416-5.475h-.234Z" fill="#B28445"/><path d="M8.71 4.525H8.29h.047c1.918.188 3.462 2.574 3.462 5.521v.234c-.093 2.855-1.59 5.1-3.462 5.24h-.047H8.71c1.872-.186 3.416-2.479 3.462-5.24v-.233c0-2.948-1.543-5.334-3.462-5.522Z" fill="#F8B218"/><path d="M8.43 15.614h-.188v-.14h.047c1.825-.187 3.322-2.433 3.369-5.194v-.234c0-2.854-1.497-5.24-3.416-5.474h-.047v-.14h.515c2.012.187 3.556 2.62 3.556 5.614v.234c-.094 2.854-1.59 5.194-3.556 5.334h-.28Zm.748-10.902c1.544.749 2.62 2.854 2.62 5.334v.234c-.047 2.386-1.17 4.352-2.62 5.1 1.59-.514 2.854-2.573 2.854-5.1v-.234c.094-2.573-1.17-4.819-2.854-5.334Z" fill="#B28445"/><path d="M10.432 2.373H8.654c-1.45 0-2.807.795-3.79 2.293C3.882 6.116 3.367 7.988 3.367 10c0 2.105.562 4.024 1.591 5.474.983 1.404 2.293 2.152 3.65 2.152h1.777c1.31-.093 2.527-.889 3.416-2.292.983-1.45 1.497-3.322 1.497-5.334 0-1.919-.514-3.837-1.45-5.24-.796-1.404-2.059-2.2-3.416-2.387Z" fill="#875F27"/><path d="M13.568 10.047c0-2.012-.562-3.696-1.404-5.053-.608-.89-1.31-1.591-2.152-1.919v-.374h-1.45c-2.715 0-4.96 3.275-4.96 7.3 0 2.105.608 3.976 1.544 5.333.889 1.217 2.105 2.012 3.415 2.012h1.497v-.327c2.06-.983 3.51-3.697 3.51-6.972Z" fill="#F8B828"/><path d="M10.152 17.393H8.608c-1.31 0-2.527-.749-3.462-2.106-.983-1.404-1.544-3.322-1.544-5.334 0-4.07 2.292-7.392 5.006-7.392h1.544v.327c.795.421 1.544 1.03 2.106 1.918.889 1.404 1.403 3.182 1.403 5.1 0 3.229-1.403 6.036-3.462 7.019l-.047.468ZM8.655 2.748c-2.667 0-4.866 3.228-4.866 7.252 0 2.012.561 3.883 1.497 5.24.889 1.31 2.105 2.012 3.369 2.012h1.403v-.327h.047c.983-.468 1.825-1.357 2.48-2.574.655-1.216.983-2.807.983-4.351 0-1.872-.515-3.65-1.357-5.006-.609-.89-1.357-1.544-2.153-1.872h-.046v-.374H8.655Z" fill="#B28445"/><path d="M13.664 4.947c-.889-1.404-2.152-2.293-3.556-2.293-2.714 0-4.96 3.276-4.96 7.3 0 2.105.609 3.976 1.544 5.333.89 1.217 2.106 2.012 3.416 2.012 2.714 0 4.96-3.275 4.96-7.299 0-1.918-.515-3.696-1.404-5.053Zm-3.322 10.574h-.234c-.982 0-1.871-.608-2.573-1.497-.702-.936-1.17-2.293-1.17-3.79V10c0-2.994 1.684-5.52 3.696-5.52h.234c1.919.186 3.463 2.572 3.463 5.52v.234c0 2.854-1.498 5.1-3.416 5.287Z" fill="#F6E245"/><path d="M10.155 17.393c-1.31 0-2.527-.749-3.463-2.106-.982-1.403-1.544-3.322-1.544-5.334 0-4.024 2.2-7.346 5.007-7.346 1.404 0 2.667.796 3.603 2.293.889 1.404 1.403 3.182 1.403 5.1-.046 4.07-2.246 7.393-5.006 7.393Zm0-14.645c-2.667 0-4.866 3.228-4.866 7.252 0 2.012.561 3.884 1.497 5.24.889 1.31 2.106 2.012 3.369 2.012 2.667 0 4.866-3.228 4.866-7.252 0-1.871-.515-3.65-1.357-5.006-.982-1.45-2.246-2.246-3.51-2.246Zm0 12.867c-.983 0-1.918-.562-2.62-1.544-.749-.983-1.17-2.386-1.17-3.837V10c0-3.088 1.684-5.615 3.837-5.615h.234c2.011.188 3.556 2.62 3.556 5.615v.234c-.094 2.854-1.591 5.194-3.556 5.334-.14.047-.281.047-.281.047Zm0-11.042c-2.012 0-3.65 2.433-3.65 5.474v.234c.047 1.45.468 2.807 1.17 3.696.702.936 1.59 1.497 2.48 1.497h.234c1.871-.187 3.322-2.433 3.415-5.193v-.234c0-2.854-1.497-5.24-3.415-5.474h-.234Z" fill="#B28445"/><path d="M10.343 4.525H9.922h.047c1.918.188 3.462 2.574 3.462 5.521v.234c-.093 2.855-1.59 5.1-3.462 5.24h-.047H10.343c1.871-.186 3.416-2.479 3.462-5.24v-.233c.047-2.948-1.497-5.334-3.462-5.522Z" fill="#F8B218"/><path d="M10.156 15.614h-.187v-.14h.046c1.872-.187 3.323-2.433 3.416-5.194v-.234c0-2.854-1.497-5.24-3.415-5.474h-.047v-.14h.514c2.012.187 3.556 2.62 3.556 5.614v.234c-.14 2.854-1.637 5.147-3.602 5.334h-.281Zm.702-10.902c1.544.749 2.62 2.854 2.62 5.334v.234c-.047 2.386-1.17 4.352-2.62 5.1 1.59-.514 2.854-2.573 2.854-5.1v-.234c.047-2.573-1.17-4.819-2.854-5.334Z" fill="#B28445"/><path d="M9.03 11.592v1.778h-.514v-.749l.514-1.03ZM9.64 10.42l.234.421v2.527H9.36v-2.433l.281-.515ZM10.667 10.607v2.761h-.515v-1.684l.14-.094.328-.749.047-.234ZM11.558 8.924v4.445h-.515V9.953l.515-1.03Z" fill="#F6E245"/><path d="M10.151 10.793h-.14l-.374-.748h.234l.28.748ZM8.515 12.62h-.234v.795h.234v-.796Z" fill="#875F27"/><path d="M8.515 12.621h-.234l.515-1.03h.234l-.515 1.03ZM9.406 10.935h-.234v2.434h.234v-2.434Z" fill="#875F27"/><path d="M9.359 10.935h-.187l.234-.515h.234l-.281.515ZM10.617 10.841h-.281l.14-.234h.188l-.047.234ZM10.293 11.59h-.281l.327-.748h.281l-.327.748ZM10.152 11.685h-.14v-.093h.28l-.14.093ZM10.246 11.685h-.234v1.778h.234v-1.777ZM11.085 9.951h-.233v3.416h.233V9.95Z" fill="#875F27"/><path d="M11.039 9.953h-.187l.514-1.03h.187l-.514 1.03ZM11.882 7.892h-.234l-.093-.374h.234l.093.374ZM11.413 6.771h-.234l-.14-.28h.234l.14.28Z" fill="#875F27"/><path d="M10.152 9.251h-.14l1.17-2.48h.233l-1.263 2.48ZM9.874 10.044H9.64l-.234-.468h.281l.187.468ZM9.312 8.829h-.234l.328-.702h.28l-.374.702ZM8.093 11.45h-.28l1.263-2.62h.234l-1.217 2.62ZM8.42 12.106h-.233l-.374-.655h.28l.328.655Z" fill="#875F27"/><path d="M11.275 6.49h.609v1.404l-.094-.374-1.216 2.526-.421.749-.281-.749-.187-.468-1.264 2.527-.327-.655L9.31 8.83l.375-.702.327.702.14.42 1.264-2.479-.14-.28Z" fill="#F6E245"/><path d="M25.989 16.16a6.707 6.707 0 0 1-2.384-.416 5.952 5.952 0 0 1-1.904-1.2 5.62 5.62 0 0 1-1.248-1.84 5.838 5.838 0 0 1-.448-2.304c0-.832.15-1.6.448-2.304a5.335 5.335 0 0 1 1.264-1.824 5.606 5.606 0 0 1 1.904-1.2 6.404 6.404 0 0 1 2.384-.432c.917 0 1.754.16 2.512.48.757.31 1.397.773 1.92 1.392l-1.344 1.264a3.969 3.969 0 0 0-1.36-.976 3.955 3.955 0 0 0-1.632-.336c-.587 0-1.126.096-1.616.288-.48.192-.902.464-1.264.816-.352.352-.63.768-.832 1.248A4.228 4.228 0 0 0 22.1 10.4c0 .576.096 1.104.288 1.584.202.48.48.896.832 1.248.362.352.784.624 1.264.816.49.192 1.03.288 1.616.288.586 0 1.13-.107 1.632-.32.501-.224.954-.56 1.36-1.008l1.344 1.28a5.124 5.124 0 0 1-1.92 1.392c-.758.32-1.6.48-2.528.48Zm11.454 0c-.874 0-1.68-.144-2.416-.432a5.911 5.911 0 0 1-1.92-1.2 5.55 5.55 0 0 1-1.264-1.824 5.838 5.838 0 0 1-.448-2.304c0-.832.15-1.595.448-2.288a5.337 5.337 0 0 1 1.264-1.824 5.776 5.776 0 0 1 1.92-1.216 6.53 6.53 0 0 1 2.4-.432c.875 0 1.675.144 2.4.432a5.776 5.776 0 0 1 1.92 1.216c.544.512.966 1.12 1.264 1.824.3.693.448 1.456.448 2.288 0 .832-.149 1.6-.448 2.304a5.337 5.337 0 0 1-1.264 1.824 5.911 5.911 0 0 1-1.92 1.2 6.404 6.404 0 0 1-2.384.432Zm-.016-1.824c.566 0 1.088-.096 1.568-.288.48-.192.896-.464 1.248-.816.352-.363.624-.779.816-1.248.203-.48.304-1.008.304-1.584 0-.576-.1-1.099-.304-1.568a3.671 3.671 0 0 0-.816-1.248 3.56 3.56 0 0 0-1.248-.832 4.184 4.184 0 0 0-1.568-.288c-.565 0-1.088.096-1.568.288-.469.192-.885.47-1.248.832-.352.352-.629.768-.832 1.248-.192.47-.288.992-.288 1.568 0 .565.096 1.088.288 1.568.203.48.48.901.832 1.264.352.352.768.624 1.248.816.48.192 1.003.288 1.568.288ZM45.664 16V4.8h2.08V16h-2.08Zm5.11 0V4.8h1.712l7.024 8.624h-.849V4.8h2.064V16h-1.712L51.99 7.376h.847V16h-2.064Zm16.186 0L62.066 4.8h2.255l4.369 10.128h-1.296L71.808 4.8h2.08L69.008 16h-2.047Zm10.03-6.544h5.568v1.712H76.99V9.456Zm.16 4.8h6.32V16h-8.4V4.8h8.176v1.744H77.15v7.712Zm12.111 1.904a8.52 8.52 0 0 1-2.512-.368c-.8-.256-1.434-.581-1.904-.976l.72-1.616c.448.352 1.003.645 1.664.88a6.033 6.033 0 0 0 2.032.352c.587 0 1.062-.064 1.424-.192.363-.128.63-.299.8-.512a1.21 1.21 0 0 0 .256-.752c0-.341-.123-.613-.368-.816-.245-.213-.565-.379-.96-.496a13.127 13.127 0 0 0-1.296-.352c-.47-.107-.944-.23-1.424-.368a6.778 6.778 0 0 1-1.296-.56 2.906 2.906 0 0 1-.944-.928c-.245-.384-.368-.875-.368-1.472 0-.608.16-1.163.48-1.664.33-.512.827-.917 1.488-1.216.672-.31 1.52-.464 2.544-.464.672 0 1.339.085 2 .256.662.17 1.238.416 1.728.736l-.656 1.616a5.95 5.95 0 0 0-1.552-.656 5.694 5.694 0 0 0-1.536-.224c-.576 0-1.045.07-1.408.208-.352.139-.613.32-.784.544-.16.224-.24.48-.24.768 0 .341.117.619.352.832.245.203.56.363.944.48.395.117.832.235 1.312.352.48.107.955.23 1.424.368.48.139.912.32 1.296.544.395.224.71.528.944.912.245.384.368.87.368 1.456a3.01 3.01 0 0 1-.496 1.664c-.32.501-.816.907-1.488 1.216-.672.299-1.52.448-2.544.448Zm8.706-.16V6.56h-3.712V4.8h9.504v1.76h-3.712V16h-2.08Zm5.207 0 5.04-11.2h2.048l5.056 11.2h-2.176l-4.336-10.096h.832L105.318 16h-2.144Zm2.32-2.592.56-1.632h6.048l.56 1.632h-7.168Zm14.72 2.752a8.524 8.524 0 0 1-2.512-.368c-.8-.256-1.434-.581-1.904-.976l.72-1.616c.448.352 1.003.645 1.664.88a6.037 6.037 0 0 0 2.032.352c.587 0 1.062-.064 1.424-.192.363-.128.63-.299.8-.512.171-.224.256-.475.256-.752 0-.341-.122-.613-.368-.816-.245-.213-.565-.379-.96-.496a13.127 13.127 0 0 0-1.296-.352c-.469-.107-.944-.23-1.424-.368a6.8 6.8 0 0 1-1.296-.56 2.912 2.912 0 0 1-.944-.928c-.245-.384-.368-.875-.368-1.472 0-.608.16-1.163.48-1.664.331-.512.827-.917 1.488-1.216.672-.31 1.52-.464 2.544-.464.672 0 1.339.085 2 .256.662.17 1.238.416 1.728.736l-.656 1.616a5.935 5.935 0 0 0-1.552-.656 5.69 5.69 0 0 0-1.536-.224c-.576 0-1.045.07-1.408.208-.352.139-.613.32-.784.544-.16.224-.24.48-.24.768 0 .341.118.619.352.832.246.203.56.363.944.48.395.117.832.235 1.312.352.48.107.955.23 1.424.368.48.139.912.32 1.296.544.395.224.71.528.944.912.246.384.368.87.368 1.456 0 .597-.165 1.152-.496 1.664-.32.501-.816.907-1.488 1.216-.672.299-1.52.448-2.544.448Zm6.591-.16V4.8h2.08V16h-2.08Zm9.531 0V4.8h4.608c.992 0 1.84.16 2.544.48.715.32 1.264.779 1.648 1.376.384.597.576 1.307.576 2.128 0 .821-.192 1.53-.576 2.128-.384.597-.933 1.056-1.648 1.376-.704.32-1.552.48-2.544.48h-3.456l.928-.976V16h-2.08Zm2.08-3.984-.928-1.008h3.36c.917 0 1.605-.192 2.064-.576.469-.395.704-.944.704-1.648 0-.715-.235-1.264-.704-1.648-.459-.384-1.147-.576-2.064-.576h-3.36l.928-1.024v6.48ZM147.789 16V4.8h4.608c.992 0 1.84.16 2.544.48.715.32 1.264.779 1.648 1.376.384.597.576 1.307.576 2.128 0 .821-.192 1.53-.576 2.128-.384.587-.933 1.04-1.648 1.36-.704.31-1.552.464-2.544.464h-3.456l.928-.944V16h-2.08Zm7.328 0-2.832-4.064h2.224L157.357 16h-2.24Zm-5.248-3.984-.928-.992h3.36c.917 0 1.605-.197 2.064-.592.469-.395.704-.944.704-1.648 0-.715-.235-1.264-.704-1.648-.459-.384-1.147-.576-2.064-.576h-3.36l.928-1.024v6.48Zm11.543-2.56h5.568v1.712h-5.568V9.456Zm.16 4.8h6.32V16h-8.4V4.8h8.176v1.744h-6.096v7.712Zm12.111 1.904a8.52 8.52 0 0 1-2.512-.368c-.8-.256-1.435-.581-1.904-.976l.72-1.616c.448.352 1.003.645 1.664.88a6.033 6.033 0 0 0 2.032.352c.587 0 1.061-.064 1.424-.192s.629-.299.8-.512c.171-.224.256-.475.256-.752 0-.341-.123-.613-.368-.816-.245-.213-.565-.379-.96-.496a13.127 13.127 0 0 0-1.296-.352c-.469-.107-.944-.23-1.424-.368a6.8 6.8 0 0 1-1.296-.56 2.903 2.903 0 0 1-.944-.928c-.245-.384-.368-.875-.368-1.472 0-.608.16-1.163.48-1.664.331-.512.827-.917 1.488-1.216.672-.31 1.52-.464 2.544-.464.672 0 1.339.085 2 .256.661.17 1.237.416 1.728.736l-.656 1.616a5.95 5.95 0 0 0-1.552-.656 5.69 5.69 0 0 0-1.536-.224c-.576 0-1.045.07-1.408.208-.352.139-.613.32-.784.544-.16.224-.24.48-.24.768 0 .341.117.619.352.832.245.203.56.363.944.48.395.117.832.235 1.312.352.48.107.955.23 1.424.368.48.139.912.32 1.296.544.395.224.709.528.944.912.245.384.368.87.368 1.456 0 .597-.165 1.152-.496 1.664-.32.501-.816.907-1.488 1.216-.672.299-1.52.448-2.544.448Zm8.511-6.704h5.568v1.712h-5.568V9.456Zm.16 4.8h6.32V16h-8.4V4.8h8.176v1.744h-6.096v7.712ZM190.992 16V4.8h1.712l7.024 8.624h-.848V4.8h2.064V16h-1.712l-7.024-8.624h.848V16h-2.064Zm15.225 0V6.56h-3.712V4.8h9.504v1.76h-3.712V16h-2.08Zm10.716.16a8.52 8.52 0 0 1-2.512-.368c-.8-.256-1.435-.581-1.904-.976l.72-1.616c.448.352 1.003.645 1.664.88a6.033 6.033 0 0 0 2.032.352c.587 0 1.061-.064 1.424-.192s.629-.299.8-.512c.171-.224.256-.475.256-.752 0-.341-.123-.613-.368-.816-.245-.213-.565-.379-.96-.496a13.127 13.127 0 0 0-1.296-.352c-.469-.107-.944-.23-1.424-.368a6.8 6.8 0 0 1-1.296-.56 2.903 2.903 0 0 1-.944-.928c-.245-.384-.368-.875-.368-1.472 0-.608.16-1.163.48-1.664.331-.512.827-.917 1.488-1.216.672-.31 1.52-.464 2.544-.464.672 0 1.339.085 2 .256.661.17 1.237.416 1.728.736l-.656 1.616a5.95 5.95 0 0 0-1.552-.656 5.69 5.69 0 0 0-1.536-.224c-.576 0-1.045.07-1.408.208-.352.139-.613.32-.784.544-.16.224-.24.48-.24.768 0 .341.117.619.352.832.245.203.56.363.944.48.395.117.832.235 1.312.352.48.107.955.23 1.424.368.48.139.912.32 1.296.544.395.224.709.528.944.912.245.384.368.87.368 1.456 0 .597-.165 1.152-.496 1.664-.32.501-.816.907-1.488 1.216-.672.299-1.52.448-2.544.448Z" fill="#000"/></svg>