<svg width="169" height="68" viewBox="0 0 169 68" fill="none" xmlns="http://www.w3.org/2000/svg">
<g clip-path="url(#clip0_1907_5706)">
<path d="M43.1986 0.724609C41.7573 0.724609 40.4524 0.914005 39.3027 1.31174V7.3724C39.5948 7.01319 39.9301 6.69132 40.3009 6.41405C41.0736 5.84587 42.0395 5.55325 43.1986 5.55325C44.3738 5.55325 45.3473 5.84303 46.12 6.41405C46.5791 6.7511 46.9791 7.16199 47.3038 7.62997V1.37992C46.1039 0.941467 44.7355 0.724609 43.1986 0.724609Z" fill="url(#paint0_linear_1907_5706)"/>
<path d="M54.1283 11.4858C54.1291 12.8319 53.8978 14.1681 53.4446 15.4356C52.9964 16.7187 52.299 17.9004 51.3925 18.913C50.4367 19.9693 49.2681 20.8114 47.9635 21.3836C46.6024 21.9966 45.014 22.3025 43.1983 22.3012C41.3826 22.3 39.7914 21.9941 38.4246 21.3836C37.0647 20.7643 35.9217 19.9433 35.0155 18.913C34.1137 17.8965 33.416 16.7159 32.9605 15.4356C32.4972 14.1696 32.26 12.832 32.2598 11.4839C32.2586 10.1434 32.4959 8.81328 32.9605 7.55584C33.4178 6.28277 34.1172 5.11029 35.0202 4.10316C35.9217 3.08042 37.0647 2.25939 38.4293 1.64764C38.7147 1.51707 39.0079 1.40416 39.3072 1.30957V7.37023C39.0037 7.7596 38.7523 8.1868 38.5591 8.64108C38.1728 9.53849 37.9727 10.505 37.971 11.482C37.9726 12.4642 38.1726 13.436 38.5591 14.339C38.9257 15.2329 39.5295 16.0096 40.3053 16.5853C41.078 17.1535 42.0439 17.4461 43.2031 17.4461C44.3783 17.4461 45.3517 17.1563 46.1245 16.5853C46.9003 16.0096 47.5041 15.2329 47.8707 14.339C48.2552 13.4357 48.4527 12.4638 48.4512 11.482C48.4525 10.5055 48.2549 9.53886 47.8707 8.64108C47.7221 8.28315 47.5334 7.94323 47.3082 7.62781V1.37775C47.5326 1.45825 47.759 1.54631 47.9711 1.64291C49.2748 2.2098 50.4435 3.04671 51.4001 4.09842C52.3061 5.10202 53.0036 6.27564 53.4522 7.5511C53.905 8.81327 54.1339 10.1449 54.1283 11.4858Z" fill="#015AFD"/>
<path d="M62.1378 22.0219V14.0938H56.688V22.0219H62.1378Z" fill="url(#paint1_linear_1907_5706)"/>
<path d="M62.1378 1.00586H56.688V14.0931H62.1378V1.00586Z" fill="#015AFD"/>
<path d="M78.4287 1.00586V12.6774L78.4126 12.6527V21.5468L78.7421 22.0203H83.8217V1.00586H78.4287Z" fill="url(#paint2_linear_1907_5706)"/>
<path d="M78.4127 12.6528V21.5468L71.048 10.9473V22.0222H65.6465V1.00684H70.6778L78.4127 12.6528Z" fill="#015AFD"/>
<path d="M87.1299 1.00586V10.254H92.5788V5.72276H102.351V1.00586H87.1299Z" fill="url(#paint3_linear_1907_5706)"/>
<path d="M101.07 10.2624V14.7776H92.5788V22.022H87.1299V10.2539H92.5788V10.2624H101.07Z" fill="#015AFD"/>
<path d="M105.616 1.00586V22.0222H111.065V1.00586H105.616Z" fill="url(#paint4_linear_1907_5706)"/>
<path d="M120.983 17.3052H111.066V22.0221H120.983V17.3052Z" fill="#015AFD"/>
<path d="M119.558 9.12695H111.066V13.6185H119.558V9.12695Z" fill="#015AFD"/>
<path d="M120.838 1.00586H111.066V5.72276H120.838V1.00586Z" fill="#015AFD"/>
<path d="M140.261 5.5703C140.044 5.01063 139.758 4.48055 139.408 3.99263C138.987 3.39572 138.479 2.86414 137.903 2.41497C137.283 1.91591 136.495 1.50587 135.553 1.19147C134.612 0.877073 133.46 0.724609 132.116 0.724609C130.393 0.724609 128.905 1.0087 127.656 1.57689C126.408 2.14508 125.443 2.92917 124.776 3.93487C124.131 4.89321 123.793 6.00401 123.769 7.25971H129.114C129.107 7.21175 129.104 7.16327 129.105 7.11482C129.111 6.79309 129.203 6.47874 129.371 6.20477C129.548 5.8989 129.854 5.64984 130.28 5.44056C130.707 5.23128 131.279 5.12616 131.995 5.12616C132.76 5.12616 133.355 5.23128 133.806 5.44814C134.19 5.62162 134.532 5.87395 134.812 6.18867C135.058 6.50494 135.241 6.86567 135.352 7.25118H140.72C140.62 6.67769 140.466 6.1149 140.261 5.5703Z" fill="url(#paint5_linear_1907_5706)"/>
<path d="M141.317 15.5501C141.333 16.7906 140.977 18.0074 140.295 19.0435C139.61 20.065 138.625 20.8645 137.34 21.4422C136.053 22.0218 134.483 22.303 132.624 22.303C131.167 22.303 129.922 22.1341 128.89 21.7964C127.859 21.4583 127.006 21.0236 126.333 20.4924C125.709 20.0129 125.166 19.4375 124.723 18.7878C124.364 18.2566 124.069 17.6843 123.846 17.0833C123.641 16.4912 123.487 15.8825 123.387 15.2641H128.901C129.026 15.7382 129.233 16.1868 129.513 16.5899C129.77 16.9355 130.157 17.2414 130.688 17.5075C131.219 17.7736 131.935 17.91 132.844 17.91C133.964 17.91 134.745 17.6922 135.187 17.2651C135.629 16.838 135.85 16.3806 135.85 15.8891C135.858 15.6812 135.817 15.4744 135.732 15.2845C135.647 15.0947 135.52 14.927 135.359 14.7944C135.021 14.5207 134.449 14.3209 133.637 14.1827L130.836 13.731C129.655 13.5331 128.501 13.1981 127.398 12.7328C126.369 12.32 125.465 11.646 124.775 10.7773C124.098 9.92379 123.76 8.80762 123.76 7.42882C123.758 7.37249 123.761 7.31615 123.768 7.26025H129.113C129.153 7.73501 129.41 8.08886 129.886 8.32182C130.493 8.60736 131.138 8.80261 131.802 8.90137L134.755 9.38433C135.882 9.56007 136.978 9.89885 138.007 10.39C138.96 10.8428 139.784 11.5264 140.406 12.3787C141.009 13.2243 141.317 14.2783 141.317 15.5501Z" fill="#015AFD"/>
<path d="M148.824 1.00586V5.72276H148.84V22.0222H154.29V1.00586H148.824Z" fill="url(#paint6_linear_1907_5706)"/>
<path d="M160.657 1.00586H154.291V5.72276H160.657V1.00586Z" fill="#015AFD"/>
<path d="M148.825 1.00586H142.474V5.72276H148.825V1.00586Z" fill="#015AFD"/>
<path d="M24.0809 14.2622C23.9194 14.8217 23.6694 15.3517 23.3404 15.8323C23.0506 16.2423 22.5923 16.605 21.9881 16.9185C21.3839 17.2319 20.5677 17.3919 19.5658 17.3919C18.382 17.3919 17.3921 17.0858 16.596 16.4734C15.8024 15.8725 15.1852 15.0692 14.8091 14.1476C14.7535 14.0216 14.7048 13.8926 14.6632 13.7612H8.61963C8.73402 14.282 8.87916 14.7955 9.05429 15.2991C9.51654 16.6254 10.2268 17.8518 11.1471 18.9128C12.1075 20.0126 13.2969 20.8889 14.632 21.4801C16.0335 22.124 17.6623 22.4384 19.5023 22.4384C21.08 22.4384 22.4323 22.249 23.5506 21.8503C24.669 21.4516 25.6113 20.9488 26.3603 20.3295C27.0564 19.7678 27.6592 19.0995 28.1463 18.3493C28.5498 17.732 28.8848 17.0725 29.1454 16.3825C29.3725 15.7491 29.5448 15.0974 29.6605 14.4345C29.6681 14.3777 29.6842 14.3218 29.6927 14.265L24.0809 14.2622Z" fill="url(#paint7_linear_1907_5706)"/>
<path d="M29.6925 8.17811H24.0807C23.9173 7.61665 23.6675 7.08406 23.3402 6.59949C23.0504 6.18093 22.5921 5.81066 21.9879 5.49721C21.3837 5.18376 20.5674 5.02372 19.5655 5.02372C18.3818 5.02372 17.3875 5.32107 16.5958 5.92524C15.8004 6.51882 15.1827 7.31892 14.8098 8.23871C14.0796 9.99786 14.0276 11.9653 14.664 13.7605H8.6194C8.14262 11.5445 8.29314 9.23944 9.05406 7.10423C9.51499 5.78443 10.2255 4.56562 11.1469 3.51424C12.1125 2.42282 13.3008 1.55097 14.6318 0.957395C16.0333 0.319132 17.6567 0 19.5021 0C21.0797 0 22.432 0.200759 23.5504 0.595649C24.6688 0.990539 25.611 1.4896 26.3601 2.1165C27.054 2.67758 27.6565 3.34303 28.1461 4.08905C28.5488 4.71155 28.8837 5.37538 29.1452 6.06918C29.3879 6.75511 29.571 7.4607 29.6925 8.17811Z" fill="#015AFD"/>
<path d="M52.0433 50.6454V42.7021H46.584V50.6454H52.0433Z" fill="url(#paint8_linear_1907_5706)"/>
<path d="M52.0443 29.5903H46.584V42.7022H52.0443V29.5903Z" fill="#015AFD"/>
<path d="M40.9599 34.4379C40.7527 33.903 40.4787 33.3965 40.1445 32.9303C39.7419 32.36 39.2571 31.8523 38.7061 31.4237C38.1142 30.9502 37.3604 30.5543 36.4608 30.2541C35.5612 29.9539 34.4608 29.8081 33.1767 29.8081C31.5299 29.8081 30.1075 30.077 28.9153 30.6235C27.723 31.1699 26.8007 31.9132 26.1643 32.8763C25.5488 33.792 25.2259 34.8536 25.2031 36.0534H30.3102C30.3039 36.0076 30.3014 35.9614 30.3026 35.9152C30.3073 35.6078 30.395 35.3074 30.5564 35.0458C30.7259 34.7532 31.0176 34.5155 31.4257 34.3148C31.8339 34.114 32.3793 34.0155 33.064 34.0155C33.7941 34.0155 34.3632 34.115 34.7941 34.3224C35.1607 34.4884 35.4881 34.7298 35.7553 35.0307C35.9907 35.3329 36.1659 35.6776 36.2714 36.0459H41.4012C41.3049 35.4972 41.1571 34.9588 40.9599 34.4379Z" fill="url(#paint9_linear_1907_5706)"/>
<path d="M41.9673 43.9747C41.9831 45.1601 41.6427 46.323 40.99 47.3128C40.3366 48.2894 39.396 49.0533 38.168 49.6045C36.937 50.1585 35.437 50.4284 33.6604 50.4284C32.2684 50.4284 31.0761 50.2664 30.0922 49.9435C29.1083 49.6206 28.293 49.2049 27.6537 48.6973C27.0576 48.2382 26.5385 47.6871 26.1159 47.0647C25.7719 46.5568 25.4905 46.0093 25.2778 45.434C25.0812 44.8692 24.9342 44.2884 24.8384 43.6982H30.1074C30.2268 44.1519 30.4245 44.5814 30.6917 44.9671C30.9379 45.2976 31.3072 45.5902 31.8148 45.844C32.3224 46.0978 33.007 46.2285 33.8754 46.2285C34.9455 46.2285 35.6917 46.0211 36.1141 45.613C36.5364 45.2048 36.7523 44.7673 36.7523 44.2976C36.7593 44.0997 36.7206 43.9028 36.6393 43.7221C36.5581 43.5415 36.4363 43.382 36.2836 43.2559C35.9597 42.9946 35.4142 42.8023 34.6377 42.6717L31.953 42.2351C30.8254 42.0474 29.7233 41.7296 28.6689 41.2881C27.6856 40.8911 26.8225 40.2453 26.1641 39.414C25.5183 38.5987 25.1954 37.5296 25.1954 36.2142C25.1942 36.1604 25.1967 36.1066 25.203 36.0532H30.31C30.3492 36.5065 30.5954 36.8449 31.0487 37.0684C31.6286 37.3411 32.2453 37.5277 32.8792 37.6224L35.7012 38.0835C36.7781 38.2522 37.825 38.576 38.8091 39.0447C39.7194 39.4771 40.5072 40.1301 41.1008 40.9444C41.6747 41.7521 41.9673 42.7597 41.9673 43.9747Z" fill="#015AFD"/>
<path d="M15.2494 29.5903H13.2228L11.595 34.7372L13.9975 42.4512H9.15557L7.68018 47.118H15.4454L16.5553 50.6454H22.2456C19.9142 43.6277 17.5821 36.6093 15.2494 29.5903Z" fill="#015AFD"/>
<path d="M9.13185 42.4513L11.5788 34.6861L11.5949 34.7401L13.2228 29.5933H7.87995L0.879883 50.6455H6.57028L7.68013 47.118L9.15553 42.4513H9.13185Z" fill="url(#paint10_linear_1907_5706)"/>
<path d="M70.2509 29.5903H68.2243L66.6003 34.7372L69.0018 42.4512H64.158L62.6826 47.118H70.4478L71.5577 50.6454H77.2481C74.9173 43.6277 72.5849 36.6093 70.2509 29.5903Z" fill="#015AFD"/>
<path d="M64.1381 42.4513L66.585 34.6861L66.6021 34.7401L68.229 29.5933H62.8814L55.8813 50.6455H61.5727L62.6825 47.118L64.1579 42.4513H64.1381Z" fill="url(#paint11_linear_1907_5706)"/>
<path d="M90.2635 50.6453V46.9861L93.1991 44.6954C94.8406 43.4094 96.2235 42.3289 97.3479 41.4539C98.4722 40.5789 99.3245 39.7875 99.9047 39.0798C100.481 38.3721 100.77 37.6177 100.77 36.8165C100.77 35.9788 100.486 35.3503 99.9179 34.9311C99.3935 34.5267 98.7507 34.3058 98.0884 34.3023C97.3829 34.3014 96.7018 34.5599 96.1745 35.0286C95.6064 35.5135 95.3223 36.2679 95.3223 37.2919H90.1802C90.1802 36.0072 90.4037 34.885 90.8506 33.9254C91.2671 33.0056 91.8884 32.1933 92.6669 31.5504C93.4359 30.9235 94.3175 30.4494 95.2645 30.1536C96.2407 29.8453 97.2588 29.6897 98.2825 29.6924C99.7529 29.6924 101.079 29.9718 102.26 30.5305C103.393 31.0474 104.367 31.8575 105.082 32.8771C105.781 33.8834 106.13 35.0662 106.13 36.4254C106.143 37.6443 105.819 38.8431 105.194 39.8895C104.57 40.9331 103.686 41.9432 102.542 42.9198C101.224 44.0291 99.8483 45.0691 98.4217 46.0354H106.328V50.6443L90.2635 50.6453Z" fill="#015AFD"/>
<path d="M132.559 50.6453V46.9861L135.495 44.6954C137.133 43.4094 138.516 42.3289 139.643 41.4539C140.771 40.5789 141.623 39.7875 142.2 39.0798C142.778 38.3721 143.067 37.6177 143.067 36.8165C143.067 35.9788 142.783 35.3503 142.214 34.9311C141.69 34.5267 141.047 34.3057 140.385 34.3023C139.679 34.3014 138.998 34.5599 138.471 35.0286C137.903 35.5135 137.619 36.2679 137.619 37.2919H132.479C132.479 36.0072 132.702 34.885 133.149 33.9254C133.565 33.0058 134.186 32.1935 134.964 31.5504C135.734 30.9237 136.616 30.4496 137.563 30.1536C138.539 29.8454 139.556 29.6898 140.58 29.6924C142.052 29.6924 143.377 29.9718 144.557 30.5305C145.69 31.0476 146.664 31.8577 147.379 32.8771C148.077 33.8834 148.427 35.0662 148.427 36.4254C148.44 37.6443 148.116 38.843 147.491 39.8895C146.867 40.9331 145.983 41.9432 144.839 42.9198C143.521 44.0291 142.146 45.0691 140.719 46.0354H148.625V50.6443L132.559 50.6453Z" fill="#015AFD"/>
<path d="M159.966 50.9247C158.531 50.9247 157.325 50.7618 156.348 50.436C155.372 50.1103 154.58 49.6958 153.973 49.1926C153.413 48.7423 152.939 48.1931 152.577 47.5724C152.279 47.0661 152.053 46.5207 151.906 45.9521C151.775 45.383 151.696 44.8033 151.668 44.2201H156.725C156.762 44.6261 156.881 45.0204 157.075 45.3792C157.251 45.6872 157.558 45.9574 157.996 46.1898C158.434 46.4221 159.063 46.5386 159.882 46.5392C160.777 46.5392 161.48 46.3343 161.991 45.9246C162.503 45.5149 162.759 45.012 162.759 44.4161C162.759 43.8574 162.531 43.3589 162.075 42.9208C161.618 42.4827 160.915 42.2639 159.966 42.2645H157.172V38.1575H160.022C160.842 38.1575 161.462 37.9479 161.88 37.5287C162.298 37.1095 162.507 36.6395 162.509 36.1187C162.509 35.5599 162.276 35.0754 161.81 34.665C161.344 34.2547 160.7 34.0498 159.878 34.0505C159.151 34.0505 158.592 34.1767 158.202 34.4292C157.846 34.643 157.552 34.9463 157.349 35.309C157.155 35.7026 157.037 36.1292 157 36.5666H152.055C152.082 35.964 152.166 35.3654 152.307 34.7787C152.457 34.2044 152.678 33.6507 152.963 33.13C153.306 32.5076 153.754 31.9497 154.289 31.4813C154.866 30.9605 155.616 30.5321 156.538 30.1963C157.46 29.8604 158.591 29.6928 159.933 29.6934C160.914 29.6904 161.892 29.822 162.838 30.0845C163.732 30.3289 164.581 30.7159 165.352 31.2304C166.075 31.7098 166.681 32.3446 167.126 33.0883C167.569 33.8459 167.796 34.7107 167.782 35.5884C167.782 36.4823 167.593 37.2399 167.214 37.8611C166.87 38.4435 166.409 38.9479 165.859 39.3422C165.426 39.6604 164.947 39.9102 164.438 40.0827V40.2778C165.065 40.5075 165.661 40.8125 166.213 41.1859C166.773 41.5597 167.244 42.0505 167.596 42.6244C167.949 43.2021 168.126 43.9192 168.126 44.7759C168.126 46.0796 167.749 47.1923 166.995 48.114C166.242 49.0358 165.25 49.7343 164.02 50.2097C162.725 50.6977 161.35 50.9401 159.966 50.9247Z" fill="#015AFD"/>
<path d="M119.646 31.6216C118.537 31.6098 117.437 31.818 116.409 32.2343C115.381 32.6505 114.445 33.2665 113.657 34.0466C112.869 34.8266 112.243 35.7553 111.816 36.7788C111.388 37.8023 111.168 38.9004 111.168 40.0094C111.168 41.1185 111.388 42.2166 111.816 43.2401C112.243 44.2636 112.869 45.1922 113.657 45.9723C114.445 46.7524 115.381 47.3683 116.409 47.7846C117.437 48.2008 118.537 48.4091 119.646 48.3973" stroke="url(#paint12_linear_1907_5706)" stroke-width="4.61936" stroke-miterlimit="10"/>
<path d="M119.646 48.3973C121.855 48.3738 123.966 47.4798 125.52 45.9093C127.074 44.3388 127.945 42.2187 127.945 40.0094C127.945 37.8002 127.074 35.6801 125.52 34.1096C123.966 32.5391 121.855 31.6451 119.646 31.6216" stroke="#015AFD" stroke-width="4.61936" stroke-miterlimit="10"/>
<path d="M59.3379 63.1414C59.3379 61.7569 59.7669 60.6187 60.5945 59.755C61.4326 58.8715 62.5074 58.4624 63.8143 58.4624C64.9506 58.4624 65.909 58.7995 66.7006 59.4179C67.4923 60.0363 67.9573 60.9331 68.1211 61.9672H66.1325C65.8872 60.8308 64.9573 60.2096 63.7565 60.2096C62.1277 60.2096 61.2072 61.346 61.2072 63.096C61.2072 64.846 62.1627 65.9824 63.7565 65.9824C64.9601 65.9824 65.8512 65.364 66.1325 64.2248H68.1912C68.0274 65.3081 67.5728 66.1377 66.7707 66.774C65.9449 67.4109 64.927 67.7479 63.8843 67.7295C62.5917 67.7295 61.5065 67.3024 60.6646 66.4369C59.782 65.6547 59.3379 64.5259 59.3379 63.1414Z" fill="#015AFD"/>
<path d="M72.443 67.7375C71.4013 67.7375 70.5821 67.4032 69.942 66.7347C69.3018 66.0661 68.995 65.2706 68.995 64.2867C68.9746 63.3779 69.3151 62.4981 69.942 61.8397C70.5566 61.1712 71.406 60.8359 72.443 60.8359C73.4799 60.8359 74.3047 61.175 74.9449 61.8378C75.5541 62.5074 75.8918 63.3801 75.8918 64.2853C75.8918 65.1906 75.5541 66.0633 74.9449 66.7328C74.6154 67.058 74.2245 67.3143 73.795 67.4868C73.3654 67.6593 72.9058 67.7446 72.443 67.7375ZM70.7734 64.3587C70.7734 64.9373 70.9373 65.4004 71.2346 65.7309C71.387 65.8931 71.5721 66.0213 71.7776 66.107C71.983 66.1927 72.2043 66.2339 72.4269 66.228C72.6498 66.2361 72.8719 66.1958 73.0779 66.11C73.2838 66.0242 73.4688 65.8949 73.6201 65.7309C73.9354 65.3966 74.0812 64.9373 74.0812 64.3587C74.0812 63.7801 73.9174 63.317 73.6201 62.9865C73.3227 62.656 72.9164 62.4903 72.4269 62.4903C72.2041 62.4818 71.9821 62.5217 71.7762 62.6074C71.5704 62.6931 71.3856 62.8224 71.2346 62.9865C70.8994 63.3038 70.7734 63.782 70.7734 64.3587Z" fill="#015AFD"/>
<path d="M77.0612 67.5679V61.066H78.868V67.5679H77.0612ZM77.9542 60.1957C77.8085 60.2036 77.6628 60.1813 77.5263 60.1301C77.3897 60.079 77.2652 60.0001 77.1606 59.8984C76.9708 59.6764 76.8649 59.3949 76.8614 59.1029C76.8536 58.9567 76.8761 58.8104 76.9276 58.6734C76.9791 58.5363 77.0585 58.4114 77.1606 58.3065C77.265 58.2046 77.3895 58.1256 77.5261 58.0746C77.6628 58.0235 77.8086 58.0016 77.9542 58.0101C78.1002 58.0023 78.2462 58.0245 78.3832 58.0755C78.5202 58.1265 78.6453 58.2051 78.7506 58.3065C78.9463 58.5251 79.0525 58.8095 79.0479 59.1029C79.0479 59.4381 78.9532 59.6815 78.7506 59.8425C78.6551 59.96 78.5332 60.0532 78.3948 60.1146C78.2563 60.176 78.1054 60.2038 77.9542 60.1957Z" fill="#015AFD"/>
<path d="M82.1192 61.0481V61.8161C82.4525 61.2015 83.1173 60.8691 84.0586 60.8691C85.5737 60.8691 86.4563 61.872 86.4563 63.4885V67.5709H84.7404V63.7006C84.7205 62.8246 84.3493 62.4184 83.5917 62.4184C82.7158 62.4184 82.2735 62.961 82.301 63.8266V67.658H80.4941V61.0633H82.1192V61.0481Z" fill="#015AFD"/>
<path d="M90.4281 65.476L92.038 61.0659H93.8619L91.2387 67.5698H89.5919L86.9868 61.0678H88.8543L90.4281 65.476Z" fill="#015AFD"/>
<path d="M100.467 64.8595H95.5778C95.7076 65.7951 96.3004 66.3056 97.2 66.3056C97.7919 66.3056 98.3023 66.0565 98.4784 65.584H100.303C100.105 66.2465 99.6985 66.8276 99.1441 67.2412C98.5517 67.6678 97.8361 67.8893 97.1063 67.8719C96.1328 67.8719 95.2805 67.5281 94.6886 66.8984C94.0579 66.2677 93.753 65.3984 93.753 64.333C93.7369 63.4078 94.0711 62.5108 94.6886 61.8216C95.2805 61.1351 96.1347 60.7923 97.1063 60.7923C97.5541 60.7827 97.9992 60.8641 98.4148 61.0314C98.8303 61.1987 99.2076 61.4485 99.5239 61.7657C100.138 62.4569 100.471 63.3527 100.459 64.2771V64.8614H100.469L100.467 64.8595ZM95.7596 63.5035H98.7493C98.6243 62.7629 98.0864 62.2563 97.2492 62.2563C96.4633 62.2667 95.9471 62.7809 95.7596 63.5035Z" fill="#015AFD"/>
<path d="M101.165 65.4919H102.98C103.018 65.9986 103.359 66.3849 104.078 66.3849C104.76 66.3849 105.137 66.1359 105.137 65.7949C105.137 65.3622 104.547 65.204 103.828 65.1122C103.449 65.0175 103.11 64.9824 102.733 64.8631C102.015 64.6519 101.425 64.0535 101.425 63.0856C101.419 62.785 101.485 62.4873 101.617 62.217C101.749 61.9466 101.942 61.7112 102.182 61.5298C102.689 61.1254 103.334 60.9038 104.118 60.9038C105.011 60.9038 105.674 61.115 106.144 61.5856C106.576 61.9916 106.834 62.5494 106.862 63.1415H105.121C105.083 62.668 104.742 62.3318 104.098 62.3318C103.509 62.3318 103.168 62.6349 103.168 62.9588C103.168 63.3915 103.759 63.5108 104.477 63.6406C104.818 63.7353 105.194 63.7703 105.573 63.8896C106.292 64.1008 106.882 64.6993 106.882 65.705C106.89 66.0022 106.825 66.2968 106.693 66.5632C106.561 66.8296 106.366 67.0597 106.124 67.2334C105.618 67.6662 104.935 67.8234 104.041 67.8234C102.246 67.8215 101.26 67.0658 101.165 65.4919Z" fill="#015AFD"/>
<path d="M111.025 66.0319V67.5622C110.732 67.6235 110.433 67.6536 110.134 67.6521C109.599 67.6415 109.09 67.4212 108.716 67.0388C108.342 66.6564 108.133 66.1424 108.135 65.6076V62.4201H107.32V61.0659H108.134V59.4399H109.941V60.9759H111.024V62.422H110.031V65.4182C110.031 65.8425 110.23 66.0347 110.669 66.0347H111.024L111.025 66.0319Z" fill="#015AFD"/>
<path d="M111.924 65.743C111.924 64.5782 112.714 63.9096 114.439 63.6662L116.173 63.4229V63.2979C116.173 62.6833 115.804 62.3509 115.014 62.3509C114.279 62.3509 113.891 62.5943 113.828 63.1464H112.094C112.17 62.5344 112.448 61.9653 112.884 61.5289C113.343 61.0687 114.071 60.8604 115.04 60.8604C116.927 60.8604 117.888 61.7363 117.888 63.3083V66.4059C117.881 66.8039 117.951 67.1996 118.096 67.5706H116.399C116.339 67.3286 116.309 67.0803 116.309 66.831C115.886 67.4097 115.186 67.707 114.243 67.707C112.725 67.7136 111.924 66.9182 111.924 65.743ZM116.083 64.6218L114.502 64.867C113.833 64.993 113.498 65.2382 113.498 65.6634C113.498 66.1237 113.833 66.367 114.502 66.367C115.505 66.367 116.082 65.7884 116.082 64.903L116.083 64.6218Z" fill="#015AFD"/>
<path d="M118.836 65.4919H120.652C120.687 65.9986 121.031 66.3849 121.748 66.3849C122.43 66.3849 122.808 66.1359 122.808 65.7949C122.808 65.3622 122.219 65.204 121.499 65.1122C121.121 65.0175 120.781 64.9824 120.402 64.8631C119.684 64.6519 119.093 64.0535 119.093 63.0856C119.088 62.785 119.154 62.4874 119.286 62.217C119.417 61.9467 119.611 61.7112 119.851 61.5298C120.357 61.097 121.001 60.9038 121.785 60.9038C122.679 60.9038 123.341 61.115 123.812 61.5856C124.244 61.9916 124.501 62.5494 124.53 63.1415H122.809C122.768 62.668 122.43 62.3318 121.783 62.3318C121.193 62.3318 120.853 62.6349 120.853 62.9588C120.853 63.3915 121.443 63.5108 122.162 63.6406C122.503 63.7353 122.88 63.7703 123.26 63.8896C123.978 64.1008 124.568 64.6993 124.568 65.705C124.575 66.0022 124.51 66.2968 124.378 66.5632C124.246 66.8296 124.051 67.0597 123.81 67.2334C123.303 67.6662 122.622 67.8234 121.727 67.8234C119.915 67.8215 118.956 67.0658 118.836 65.4919Z" fill="#015AFD"/>
<path d="M125.658 67.5679V61.0659H127.465V67.5679H125.658ZM126.542 60.1957C126.396 60.2034 126.25 60.1809 126.113 60.1298C125.976 60.0786 125.851 59.9998 125.746 59.8983C125.648 59.8018 125.572 59.6864 125.521 59.5592C125.469 59.432 125.445 59.2958 125.448 59.1587C125.441 59.0127 125.463 58.8666 125.514 58.7296C125.565 58.5926 125.644 58.4676 125.746 58.3623C125.953 58.1549 126.207 58.0659 126.542 58.0659C126.688 58.0558 126.835 58.0772 126.972 58.1285C127.109 58.1799 127.234 58.26 127.337 58.3636C127.441 58.4671 127.521 58.5917 127.572 58.7289C127.624 58.866 127.645 59.0126 127.635 59.1587C127.635 59.494 127.54 59.7373 127.336 59.8983C127.139 60.1038 126.877 60.1957 126.544 60.1957H126.542Z" fill="#015AFD"/>
<path d="M42.2486 65.0356V59.1691H44.8802C45.5562 59.1691 46.0758 59.306 46.439 59.5798C46.8022 59.848 46.9838 60.2167 46.9838 60.686C46.9838 61.0045 46.9111 61.2727 46.7659 61.4906C46.6262 61.7085 46.4362 61.8761 46.196 61.9934C45.9557 62.1108 45.6959 62.1694 45.4166 62.1694L45.5674 61.918C45.9026 61.918 46.1988 61.9767 46.4558 62.094C46.7128 62.2113 46.9167 62.3845 47.0676 62.6136C47.2184 62.8371 47.2938 63.1165 47.2938 63.4517C47.2938 63.9545 47.1039 64.3456 46.724 64.625C46.3496 64.8988 45.7909 65.0356 45.0478 65.0356H42.2486ZM43.0867 64.3568H45.0143C45.478 64.3568 45.8328 64.2786 46.0786 64.1221C46.3245 63.9657 46.4474 63.7199 46.4474 63.3846C46.4474 63.0438 46.3245 62.7952 46.0786 62.6387C45.8328 62.4823 45.478 62.4041 45.0143 62.4041H43.0113V61.7252H44.8048C45.2294 61.7252 45.559 61.647 45.7937 61.4906C46.0284 61.3341 46.1457 61.0995 46.1457 60.7866C46.1457 60.4737 46.0284 60.2391 45.7937 60.0826C45.559 59.9262 45.2294 59.848 44.8048 59.848H43.0867V64.3568ZM48.6669 66.7118C48.4546 66.7118 48.2479 66.6755 48.0467 66.6028C47.8456 66.5358 47.6724 66.4352 47.5271 66.3011L47.8707 65.6977C47.9825 65.8039 48.1054 65.8849 48.2395 65.9408C48.3736 65.9966 48.5161 66.0246 48.6669 66.0246C48.8625 66.0246 49.0245 65.9743 49.153 65.8737C49.2815 65.7732 49.4016 65.5944 49.5134 65.3374L49.7899 64.7256L49.8737 64.625L51.6169 60.5938H52.4047L50.2509 65.4798C50.1224 65.7927 49.9771 66.0385 49.8151 66.2173C49.6586 66.3961 49.4854 66.5218 49.2955 66.5945C49.1055 66.6727 48.896 66.7118 48.6669 66.7118ZM49.7229 65.1781L47.6948 60.5938H48.5328L50.2593 64.5496L49.7229 65.1781Z" fill="#015AFD"/>
</g>
<defs>
<linearGradient id="paint0_linear_1907_5706" x1="43.3028" y1="7.63092" x2="43.3028" y2="0.724609" gradientUnits="userSpaceOnUse">
<stop stop-color="#015AFD"/>
<stop offset="0.08" stop-color="#015AFD" stop-opacity="0.96"/>
<stop offset="0.2" stop-color="#015AFD" stop-opacity="0.85"/>
<stop offset="0.36" stop-color="#015AFD" stop-opacity="0.68"/>
<stop offset="0.54" stop-color="#015AFD" stop-opacity="0.44"/>
<stop offset="0.75" stop-color="#015AFD" stop-opacity="0.14"/>
<stop offset="0.84" stop-color="#015AFD" stop-opacity="0"/>
</linearGradient>
<linearGradient id="paint1_linear_1907_5706" x1="62.1369" y1="18.0578" x2="56.688" y2="18.0578" gradientUnits="userSpaceOnUse">
<stop stop-color="#015AFD"/>
<stop offset="0.08" stop-color="#015AFD" stop-opacity="0.96"/>
<stop offset="0.2" stop-color="#015AFD" stop-opacity="0.85"/>
<stop offset="0.36" stop-color="#015AFD" stop-opacity="0.68"/>
<stop offset="0.54" stop-color="#015AFD" stop-opacity="0.44"/>
<stop offset="0.75" stop-color="#015AFD" stop-opacity="0.14"/>
<stop offset="0.84" stop-color="#015AFD" stop-opacity="0"/>
</linearGradient>
<linearGradient id="paint2_linear_1907_5706" x1="81.1172" y1="1.00586" x2="81.1172" y2="22.0222" gradientUnits="userSpaceOnUse">
<stop stop-color="#015AFD"/>
<stop offset="0.08" stop-color="#015AFD" stop-opacity="0.96"/>
<stop offset="0.2" stop-color="#015AFD" stop-opacity="0.85"/>
<stop offset="0.36" stop-color="#015AFD" stop-opacity="0.68"/>
<stop offset="0.54" stop-color="#015AFD" stop-opacity="0.44"/>
<stop offset="0.75" stop-color="#015AFD" stop-opacity="0.14"/>
<stop offset="0.84" stop-color="#015AFD" stop-opacity="0"/>
</linearGradient>
<linearGradient id="paint3_linear_1907_5706" x1="87.1299" y1="5.62995" x2="102.351" y2="5.62995" gradientUnits="userSpaceOnUse">
<stop stop-color="#015AFD" stop-opacity="0.01"/>
<stop offset="0.08" stop-color="#015AFD" stop-opacity="0.22"/>
<stop offset="0.17" stop-color="#015AFD" stop-opacity="0.4"/>
<stop offset="0.26" stop-color="#015AFD" stop-opacity="0.56"/>
<stop offset="0.35" stop-color="#015AFD" stop-opacity="0.7"/>
<stop offset="0.45" stop-color="#015AFD" stop-opacity="0.81"/>
<stop offset="0.55" stop-color="#015AFD" stop-opacity="0.89"/>
<stop offset="0.67" stop-color="#015AFD" stop-opacity="0.95"/>
<stop offset="0.8" stop-color="#015AFD" stop-opacity="0.99"/>
<stop offset="1" stop-color="#015AFD"/>
</linearGradient>
<linearGradient id="paint4_linear_1907_5706" x1="108.342" y1="1.00586" x2="108.342" y2="22.0222" gradientUnits="userSpaceOnUse">
<stop stop-color="#015AFD" stop-opacity="0"/>
<stop offset="0.3" stop-color="#015AFD" stop-opacity="0.36"/>
<stop offset="0.59" stop-color="#015AFD" stop-opacity="0.69"/>
<stop offset="0.8" stop-color="#015AFD" stop-opacity="0.89"/>
<stop offset="0.9" stop-color="#015AFD" stop-opacity="0.97"/>
<stop offset="1" stop-color="#015AFD"/>
</linearGradient>
<linearGradient id="paint5_linear_1907_5706" x1="123.768" y1="3.99263" x2="140.719" y2="3.99263" gradientUnits="userSpaceOnUse">
<stop stop-color="#015AFD" stop-opacity="0"/>
<stop offset="0.3" stop-color="#015AFD" stop-opacity="0.36"/>
<stop offset="0.59" stop-color="#015AFD" stop-opacity="0.69"/>
<stop offset="0.8" stop-color="#015AFD" stop-opacity="0.89"/>
<stop offset="0.9" stop-color="#015AFD" stop-opacity="0.97"/>
<stop offset="1" stop-color="#015AFD"/>
</linearGradient>
<linearGradient id="paint6_linear_1907_5706" x1="151.557" y1="1.00586" x2="151.557" y2="22.0222" gradientUnits="userSpaceOnUse">
<stop stop-color="#015AFD" stop-opacity="0"/>
<stop offset="0.3" stop-color="#015AFD" stop-opacity="0.36"/>
<stop offset="0.59" stop-color="#015AFD" stop-opacity="0.69"/>
<stop offset="0.8" stop-color="#015AFD" stop-opacity="0.89"/>
<stop offset="0.9" stop-color="#015AFD" stop-opacity="0.97"/>
<stop offset="1" stop-color="#015AFD"/>
</linearGradient>
<linearGradient id="paint7_linear_1907_5706" x1="29.6927" y1="18.1022" x2="8.61963" y2="18.1022" gradientUnits="userSpaceOnUse">
<stop stop-color="#015AFD"/>
<stop offset="0.08" stop-color="#015AFD" stop-opacity="0.96"/>
<stop offset="0.2" stop-color="#015AFD" stop-opacity="0.85"/>
<stop offset="0.36" stop-color="#015AFD" stop-opacity="0.68"/>
<stop offset="0.54" stop-color="#015AFD" stop-opacity="0.44"/>
<stop offset="0.75" stop-color="#015AFD" stop-opacity="0.14"/>
<stop offset="0.84" stop-color="#015AFD" stop-opacity="0"/>
</linearGradient>
<linearGradient id="paint8_linear_1907_5706" x1="52.0433" y1="46.6747" x2="46.583" y2="46.6747" gradientUnits="userSpaceOnUse">
<stop stop-color="#015AFD"/>
<stop offset="0.08" stop-color="#015AFD" stop-opacity="0.96"/>
<stop offset="0.2" stop-color="#015AFD" stop-opacity="0.85"/>
<stop offset="0.36" stop-color="#015AFD" stop-opacity="0.68"/>
<stop offset="0.54" stop-color="#015AFD" stop-opacity="0.44"/>
<stop offset="0.75" stop-color="#015AFD" stop-opacity="0.14"/>
<stop offset="0.84" stop-color="#015AFD" stop-opacity="0"/>
</linearGradient>
<linearGradient id="paint9_linear_1907_5706" x1="25.2003" y1="32.9303" x2="41.3983" y2="32.9303" gradientUnits="userSpaceOnUse">
<stop stop-color="#015AFD" stop-opacity="0"/>
<stop offset="0.3" stop-color="#015AFD" stop-opacity="0.36"/>
<stop offset="0.59" stop-color="#015AFD" stop-opacity="0.69"/>
<stop offset="0.8" stop-color="#015AFD" stop-opacity="0.89"/>
<stop offset="0.9" stop-color="#015AFD" stop-opacity="0.97"/>
<stop offset="1" stop-color="#015AFD"/>
</linearGradient>
<linearGradient id="paint10_linear_1907_5706" x1="7.05134" y1="50.6455" x2="7.05134" y2="29.5904" gradientUnits="userSpaceOnUse">
<stop stop-color="#015AFD"/>
<stop offset="0.08" stop-color="#015AFD" stop-opacity="0.96"/>
<stop offset="0.2" stop-color="#015AFD" stop-opacity="0.85"/>
<stop offset="0.36" stop-color="#015AFD" stop-opacity="0.68"/>
<stop offset="0.54" stop-color="#015AFD" stop-opacity="0.44"/>
<stop offset="0.75" stop-color="#015AFD" stop-opacity="0.14"/>
<stop offset="0.84" stop-color="#015AFD" stop-opacity="0"/>
</linearGradient>
<linearGradient id="paint11_linear_1907_5706" x1="62.0528" y1="50.6455" x2="62.0528" y2="29.5904" gradientUnits="userSpaceOnUse">
<stop stop-color="#015AFD"/>
<stop offset="0.08" stop-color="#015AFD" stop-opacity="0.96"/>
<stop offset="0.2" stop-color="#015AFD" stop-opacity="0.85"/>
<stop offset="0.36" stop-color="#015AFD" stop-opacity="0.68"/>
<stop offset="0.54" stop-color="#015AFD" stop-opacity="0.44"/>
<stop offset="0.75" stop-color="#015AFD" stop-opacity="0.14"/>
<stop offset="0.84" stop-color="#015AFD" stop-opacity="0"/>
</linearGradient>
<linearGradient id="paint12_linear_1907_5706" x1="108.948" y1="40.009" x2="119.645" y2="40.009" gradientUnits="userSpaceOnUse">
<stop stop-color="#015AFD"/>
<stop offset="0.09" stop-color="#015AFD" stop-opacity="0.96"/>
<stop offset="0.24" stop-color="#015AFD" stop-opacity="0.85"/>
<stop offset="0.42" stop-color="#015AFD" stop-opacity="0.68"/>
<stop offset="0.65" stop-color="#015AFD" stop-opacity="0.44"/>
<stop offset="0.89" stop-color="#015AFD" stop-opacity="0.14"/>
<stop offset="1" stop-color="#015AFD" stop-opacity="0"/>
</linearGradient>
<clipPath id="clip0_1907_5706">
<rect width="167.243" height="67.8718" fill="white" transform="translate(0.878418)"/>
</clipPath>
</defs>
</svg>
