<svg width="135" height="46" viewBox="0 0 135 46" fill="none" xmlns="http://www.w3.org/2000/svg">
<path d="M44.3442 45.0623V37.9937H39.5503V45.0623H44.3442Z" fill="url(#paint0_linear_1235_2652)"/>
<path d="M44.3442 26.3262H39.5503V37.993H44.3442V26.3262Z" fill="url(#paint1_linear_1235_2652)"/>
<path d="M35.1941 30.3814C34.9967 29.8816 34.757 29.4104 34.4468 28.9677C34.0802 28.4393 33.629 27.9681 33.1214 27.5683C32.501 27.0827 31.796 26.7115 31.0487 26.483C30.2168 26.1974 29.2016 26.0688 28.0313 26.0688C26.5085 26.0688 25.2113 26.3259 24.1116 26.8257C23.0823 27.2684 22.2081 27.9967 21.5736 28.9249C20.9955 29.8102 20.6853 30.8384 20.6853 31.8951H25.3947C25.3947 31.8523 25.3947 31.8094 25.3947 31.7666C25.3947 31.481 25.4793 31.1954 25.6343 30.9526C25.8317 30.6527 26.1137 30.41 26.438 30.2672C26.8187 30.0815 27.3122 29.9816 27.9467 29.9816C28.6235 29.9816 29.1452 30.0673 29.54 30.2672C29.8784 30.4243 30.1745 30.6527 30.4283 30.9241C30.6398 31.2097 30.809 31.5381 30.8936 31.8808H35.6171C35.5043 31.381 35.3633 30.8669 35.1941 30.3814Z" fill="url(#paint2_linear_1235_2652)"/>
<path d="M36.1086 39.2788C36.1227 40.3783 35.8125 41.4636 35.2062 42.3918C34.5999 43.3058 33.7398 44.0198 32.6118 44.5338C31.4839 45.0479 30.1021 45.305 28.4665 45.305C27.1834 45.305 26.0836 45.1479 25.1812 44.848C24.3634 44.6052 23.6161 44.2054 22.9393 43.6913C22.3895 43.2629 21.9101 42.7488 21.5294 42.1776C21.2192 41.7064 20.9513 41.1923 20.7539 40.6497C20.5706 40.1213 20.4437 39.5787 20.345 39.0217H25.1953C25.3081 39.4501 25.4914 39.85 25.7311 40.207C26.0131 40.564 26.3656 40.8353 26.7604 41.0209C27.2257 41.2637 27.8602 41.3779 28.6639 41.3779C29.6509 41.3779 30.3418 41.178 30.7225 40.8067C31.1032 40.4355 31.3147 40.0213 31.3147 39.5787C31.3288 39.2074 31.1737 38.8361 30.8776 38.6076C30.5815 38.3649 30.0739 38.1792 29.3548 38.065L26.8873 37.6651C25.8439 37.4938 24.8287 37.1939 23.8558 36.7798C22.9534 36.4085 22.1498 35.8087 21.5435 35.0376C20.9513 34.2808 20.6552 33.2812 20.6552 32.0531C20.6552 31.996 20.6552 31.9531 20.6552 31.896H25.3645C25.3927 32.3101 25.6606 32.6814 26.0413 32.8385C26.5771 33.0955 27.1411 33.2669 27.7333 33.3526L30.3277 33.781C31.3147 33.938 32.2875 34.2379 33.1899 34.6806C34.0359 35.0804 34.755 35.6945 35.3049 36.4513C35.8407 37.2082 36.1086 38.1507 36.1086 39.2788Z" fill="url(#paint3_linear_1235_2652)"/>
<path d="M6.14755 26.3413L0 45.0767H4.99135L5.96425 41.9351L7.24733 37.7939L8.67141 33.1957L9.39052 30.8681L10.7864 26.3413H6.14755Z" fill="url(#paint4_linear_1235_2652)"/>
<path d="M18.7686 45.0767H13.7772L12.8043 41.9351H5.97998L7.26306 37.7939H11.5212L9.39216 30.8681L10.8021 26.3413H12.621L18.7686 45.0767Z" fill="url(#paint5_linear_1235_2652)"/>
<path d="M53.5067 26.3413L47.3591 45.0767H52.3505L53.3234 41.9351L54.6065 37.7939L56.0305 33.1957L56.7496 30.8681L58.1455 26.3413H53.5067Z" fill="url(#paint6_linear_1235_2652)"/>
<path d="M66.1277 45.0767H61.1363L60.1493 41.9351H53.3391L54.6222 37.7939H58.8804L56.7513 30.8681L58.1472 26.3413H59.9801L66.1277 45.0767Z" fill="url(#paint7_linear_1235_2652)"/>
<path d="M30.6587 1.29428C29.4884 1.28 28.3322 1.45136 27.2324 1.80836V7.2205C27.4862 6.90634 27.7823 6.60646 28.1066 6.3637C28.7834 5.84961 29.6435 5.59257 30.6587 5.59257C31.688 5.59257 32.5481 5.84961 33.2249 6.3637C33.6338 6.66358 33.9863 7.03486 34.2683 7.44898V1.87976C33.1121 1.46564 31.8854 1.28 30.6587 1.29428Z" fill="url(#paint8_linear_1235_2652)"/>
<path d="M40.2735 10.8896C40.2735 12.0891 40.0761 13.2887 39.6672 14.4168C39.2724 15.5592 38.6661 16.6159 37.8624 17.5155C37.0165 18.458 35.9872 19.2149 34.8451 19.7147C33.6466 20.2573 32.2507 20.5286 30.6433 20.5286C29.0359 20.5286 27.6401 20.2573 26.4416 19.7147C25.2995 19.2006 24.2702 18.458 23.4383 17.5155C22.6487 16.6159 22.0283 15.5592 21.6194 14.4168C21.2105 13.2887 20.999 12.0891 20.999 10.8896C20.999 9.69008 21.2105 8.50484 21.6194 7.39099C22.0283 6.24859 22.6346 5.20615 23.4383 4.30651C24.2702 3.36402 25.2995 2.62146 26.4275 2.12166C26.6813 2.00742 26.9351 1.90746 27.203 1.82178V7.21963C26.9351 7.56235 26.7095 7.94792 26.5403 8.34776C25.8494 9.97568 25.8494 11.8035 26.5403 13.4315C26.8646 14.2311 27.4004 14.9166 28.0771 15.4307C28.7539 15.9447 29.614 16.2018 30.6292 16.2018C31.6444 16.2018 32.5186 15.9447 33.1954 15.4307C33.8722 14.9166 34.408 14.2311 34.7323 13.4315C35.4091 11.8035 35.4091 9.97568 34.7323 8.34776C34.6054 8.0336 34.4362 7.71944 34.2388 7.44812V1.8789C34.4362 1.9503 34.6336 2.0217 34.8169 2.12166C35.959 2.62146 36.9883 3.3783 37.8342 4.30651C38.6379 5.20615 39.2442 6.24859 39.639 7.39099C40.0761 8.51912 40.2735 9.69008 40.2735 10.8896Z" fill="url(#paint9_linear_1235_2652)"/>
<path d="M47.321 20.2874V13.2188H42.5271V20.2874H47.321Z" fill="url(#paint10_linear_1235_2652)"/>
<path d="M47.321 1.55127H42.5271V13.2181H47.321V1.55127Z" fill="url(#paint11_linear_1235_2652)"/>
<path d="M61.6635 1.55127V11.9614L61.6494 11.9471V19.8726L61.9455 20.301H66.4152V1.55127H61.6635Z" fill="url(#paint12_linear_1235_2652)"/>
<path d="M61.6475 11.9329V19.8583L55.1616 10.4049V20.2867H50.4099V1.55127H54.8373L61.6475 11.9329Z" fill="url(#paint13_linear_1235_2652)"/>
<path d="M69.3186 1.55127V9.79085H74.1126V5.7496H82.7135V1.55127H69.3186Z" fill="url(#paint14_linear_1235_2652)"/>
<path d="M81.5855 9.80627V13.8332H74.1126V20.2878H69.3186V9.79199H74.1126V9.80627H81.5855Z" fill="url(#paint15_linear_1235_2652)"/>
<path d="M85.5908 1.55127V20.2867H90.3848V1.55127H85.5908Z" fill="url(#paint16_linear_1235_2652)"/>
<path d="M99.1245 16.0728H90.3967V20.2711H99.1245V16.0728Z" fill="url(#paint17_linear_1235_2652)"/>
<path d="M97.8697 8.79053H90.3967V12.7889H97.8697V8.79053Z" fill="url(#paint18_linear_1235_2652)"/>
<path d="M98.9976 1.55127H90.3967V5.7496H98.9976V1.55127Z" fill="url(#paint19_linear_1235_2652)"/>
<path d="M116.088 5.62117C115.905 5.12136 115.651 4.65012 115.341 4.22172C114.509 3.03648 113.325 2.15112 111.957 1.72271C111.125 1.43711 110.11 1.30859 108.926 1.30859C107.403 1.30859 106.106 1.56563 105.006 2.06543C103.906 2.56524 103.06 3.27924 102.468 4.1646C101.89 5.03569 101.58 6.06385 101.58 7.12057H106.289C106.289 7.07773 106.289 7.03489 106.289 6.99205C106.289 6.70645 106.374 6.42085 106.529 6.17809C106.726 5.87821 107.008 5.63545 107.332 5.49264C107.713 5.307 108.207 5.20704 108.841 5.20704C109.518 5.20704 110.04 5.307 110.434 5.49264C110.773 5.64973 111.069 5.87821 111.323 6.14953C111.534 6.43513 111.703 6.74929 111.802 7.09201H116.525C116.413 6.59221 116.272 6.09241 116.088 5.62117Z" fill="url(#paint20_linear_1235_2652)"/>
<path d="M117.017 14.5179C117.031 15.6175 116.721 16.7028 116.114 17.631C115.508 18.5449 114.648 19.2446 113.52 19.773C112.392 20.287 111.01 20.5441 109.361 20.5441C108.077 20.5441 106.978 20.387 106.075 20.0871C105.257 19.8444 104.51 19.4445 103.833 18.9304C103.283 18.502 102.804 17.988 102.423 17.4168C102.113 16.9455 101.845 16.4314 101.648 15.8888C101.465 15.3604 101.338 14.8178 101.239 14.2609H106.089C106.202 14.6893 106.385 15.0891 106.625 15.4461C106.907 15.8031 107.26 16.0744 107.654 16.2601C108.12 16.5028 108.754 16.6171 109.558 16.6171C110.545 16.6171 111.236 16.4314 111.617 16.0459C112.011 15.6603 112.209 15.2605 112.209 14.8178C112.223 14.4465 112.068 14.0752 111.772 13.8468C111.476 13.604 110.968 13.4184 110.249 13.3041L107.781 12.9043C106.738 12.7329 105.723 12.433 104.75 12.0189C103.847 11.6476 103.044 11.0479 102.438 10.2767C101.845 9.5199 101.549 8.5203 101.549 7.29221C101.549 7.24937 101.549 7.19225 101.549 7.14941H106.287C106.315 7.56354 106.583 7.93482 106.964 8.0919C107.499 8.34894 108.063 8.5203 108.656 8.60598L111.25 9.03438C112.237 9.19146 113.21 9.49134 114.112 9.93402C114.958 10.3339 115.677 10.9479 116.227 11.7047C116.749 12.4473 117.017 13.3898 117.017 14.5179Z" fill="url(#paint21_linear_1235_2652)"/>
<path d="M123.631 1.55127V5.7496H123.645V20.2724H128.439V1.55127H123.631Z" fill="url(#paint22_linear_1235_2652)"/>
<path d="M134.039 1.55127H128.441V5.7496H134.039V1.55127Z" fill="url(#paint23_linear_1235_2652)"/>
<path d="M123.614 1.55127H118.031V5.7496H123.614V1.55127Z" fill="url(#paint24_linear_1235_2652)"/>
<path d="M13.8352 13.361C13.6942 13.8608 13.4686 14.3321 13.1866 14.7605C12.8764 15.1746 12.4676 15.503 12.0023 15.7315C11.4665 16.0171 10.7474 16.1599 9.87318 16.1599C8.82979 16.1599 7.9556 15.8886 7.26471 15.3459C6.55971 14.8033 6.02392 14.0893 5.69962 13.2753C5.65732 13.1611 5.60092 13.0469 5.57272 12.9326H0.25708C0.355779 13.3896 0.482677 13.8465 0.637776 14.3035C1.04667 15.4887 1.66707 16.574 2.48486 17.5308C3.33085 18.5161 4.37424 19.2872 5.54452 19.8156C6.77121 20.3868 8.2094 20.6724 9.83088 20.6724C11.2268 20.6724 12.4112 20.501 13.3981 20.144C14.3005 19.8442 15.1324 19.3872 15.8656 18.7874C16.486 18.2876 17.0077 17.6879 17.4307 17.0167C17.7832 16.4598 18.0793 15.8743 18.3049 15.2603C18.5023 14.6891 18.6574 14.1179 18.7702 13.5181C18.7702 13.461 18.7843 13.4181 18.7984 13.3753L13.8352 13.361Z" fill="url(#paint25_linear_1235_2652)"/>
<path d="M18.771 7.94896H13.8361C13.6951 7.44916 13.4695 6.97792 13.1875 6.54951C12.8773 6.13539 12.4684 5.79267 12.0031 5.56419C11.4673 5.27859 10.7482 5.13579 9.87399 5.13579C8.8306 5.13579 7.95641 5.40711 7.26552 5.93547C6.56053 6.46383 6.02473 7.17784 5.70044 8.00608C5.05184 9.57688 5.00954 11.3333 5.57354 12.9327H0.243792C-0.179204 10.962 -0.0523055 8.89144 0.624488 6.99219C1.03338 5.82123 1.65378 4.73595 2.47157 3.79347C3.31756 2.82242 4.36095 2.03702 5.53124 1.50866C6.75792 0.937456 8.19611 0.651855 9.81759 0.651855C11.2135 0.651855 12.3979 0.837496 13.3849 1.18022C14.2872 1.4801 15.1191 1.93706 15.8523 2.53682C16.4586 3.03662 16.9944 3.63638 17.4174 4.29327C17.7699 4.85019 18.066 5.43567 18.2916 6.06399C18.5031 6.66375 18.6582 7.29208 18.771 7.94896Z" fill="url(#paint26_linear_1235_2652)"/>
<path d="M73.88 33.3413V26.1458H77.0208C77.481 26.1458 77.8732 26.2268 78.1974 26.3889C78.5215 26.5509 78.7678 26.7681 78.9364 27.0404C79.1114 27.3126 79.1989 27.6108 79.1989 27.9349C79.1989 28.2655 79.1373 28.5378 79.0141 28.7517C78.8975 28.9656 78.7548 29.1342 78.5863 29.2574C78.4242 29.374 78.2751 29.4551 78.139 29.5005V29.5685C78.3076 29.6139 78.4956 29.7014 78.703 29.8311C78.9169 29.9607 79.1017 30.1455 79.2572 30.3853C79.4128 30.6187 79.4906 30.9234 79.4906 31.2993C79.4906 31.6364 79.4096 31.9638 79.2475 32.2814C79.0855 32.5926 78.8294 32.8486 78.4793 33.0496C78.1293 33.2441 77.6658 33.3413 77.0889 33.3413H73.88ZM76.8458 27.264H75.2025V29.1407H76.8458C77.2217 29.1407 77.494 29.0467 77.6626 28.8587C77.8311 28.6707 77.9154 28.4503 77.9154 28.1975C77.9154 27.9511 77.8311 27.734 77.6626 27.546C77.494 27.358 77.2217 27.264 76.8458 27.264ZM76.943 30.1519H75.2025V32.2231H76.943C77.3708 32.2231 77.682 32.1194 77.8765 31.9119C78.0709 31.7045 78.1682 31.4614 78.1682 31.1826C78.1682 30.9104 78.0709 30.6705 77.8765 30.4631C77.682 30.2557 77.3708 30.1519 76.943 30.1519ZM80.7894 35.2374C80.6209 35.2374 80.4815 35.2309 80.3713 35.218C80.2676 35.205 80.2157 35.1985 80.2157 35.1985V34.1387C80.2157 34.1387 80.2643 34.1419 80.3616 34.1484C80.4588 34.1613 80.5722 34.1678 80.7019 34.1678C81.0325 34.1678 81.3048 34.1127 81.5187 34.0025C81.7391 33.8988 81.9238 33.7011 82.0729 33.4094L80.1379 28.1878H81.4506L82.7439 31.8633L84.0177 28.1878H85.3304L83.444 33.2149C83.1847 33.902 82.8508 34.4109 82.4424 34.7415C82.034 35.0721 81.483 35.2374 80.7894 35.2374ZM73.5203 41.938C73.5203 41.2703 73.6694 40.6739 73.9676 40.1489C74.2722 39.6173 74.6839 39.2057 75.2025 38.9139C75.7275 38.6158 76.3142 38.4667 76.9624 38.4667C77.7209 38.4667 78.3853 38.6611 78.9558 39.0501C79.5263 39.439 79.9249 39.9771 80.1518 40.6642H78.5863C78.4307 40.3401 78.2103 40.097 77.9251 39.9349C77.6463 39.7729 77.3222 39.6918 76.9527 39.6918C76.5573 39.6918 76.204 39.7858 75.8928 39.9738C75.5882 40.1553 75.3483 40.4146 75.1733 40.7517C75.0047 41.0888 74.9205 41.4842 74.9205 41.938C74.9205 42.3853 75.0047 42.7807 75.1733 43.1243C75.3483 43.4614 75.5882 43.7239 75.8928 43.9119C76.204 44.0934 76.5573 44.1842 76.9527 44.1842C77.3222 44.1842 77.6463 44.1032 77.9251 43.9411C78.2103 43.7726 78.4307 43.5262 78.5863 43.2021H80.1518C79.9249 43.8957 79.5263 44.437 78.9558 44.826C78.3918 45.2084 77.7274 45.3997 76.9624 45.3997C76.3142 45.3997 75.7275 45.2538 75.2025 44.9621C74.6839 44.6639 74.2722 44.2523 73.9676 43.7272C73.6694 43.2021 73.5203 42.6057 73.5203 41.938ZM83.7066 45.4288C83.188 45.4288 82.7213 45.3154 82.3064 45.0885C81.8915 44.8551 81.5641 44.5278 81.3243 44.1064C81.0909 43.685 80.9742 43.1989 80.9742 42.6478C80.9742 42.0968 81.0942 41.6107 81.334 41.1893C81.5803 40.7679 81.9142 40.4438 82.3355 40.2169C82.7569 39.9836 83.2269 39.8669 83.7455 39.8669C84.2641 39.8669 84.7341 39.9836 85.1554 40.2169C85.5768 40.4438 85.9074 40.7679 86.1472 41.1893C86.3936 41.6107 86.5167 42.0968 86.5167 42.6478C86.5167 43.1989 86.3903 43.685 86.1375 44.1064C85.8912 44.5278 85.5541 44.8551 85.1262 45.0885C84.7049 45.3154 84.2317 45.4288 83.7066 45.4288ZM83.7066 44.2425C83.9529 44.2425 84.183 44.1842 84.397 44.0675C84.6174 43.9443 84.7924 43.7628 84.922 43.523C85.0517 43.2831 85.1165 42.9914 85.1165 42.6478C85.1165 42.1357 84.9804 41.7435 84.7081 41.4713C84.4423 41.1925 84.115 41.0532 83.726 41.0532C83.3371 41.0532 83.0097 41.1925 82.7439 41.4713C82.4846 41.7435 82.355 42.1357 82.355 42.6478C82.355 43.16 82.4814 43.5554 82.7342 43.8341C82.9935 44.1064 83.3176 44.2425 83.7066 44.2425ZM88.2057 39.3126C87.9658 39.3126 87.7649 39.2381 87.6028 39.089C87.4472 38.9334 87.3695 38.7422 87.3695 38.5153C87.3695 38.2884 87.4472 38.1004 87.6028 37.9513C87.7649 37.7957 87.9658 37.7179 88.2057 37.7179C88.4455 37.7179 88.6433 37.7957 88.7988 37.9513C88.9609 38.1004 89.0419 38.2884 89.0419 38.5153C89.0419 38.7422 88.9609 38.9334 88.7988 39.089C88.6433 39.2381 88.4455 39.3126 88.2057 39.3126ZM88.8766 39.9544V45.3413H87.5153V39.9544H88.8766ZM93.2068 39.8766C93.8486 39.8766 94.3671 40.0808 94.7626 40.4892C95.158 40.8911 95.3557 41.4551 95.3557 42.1811V45.3413H93.9944V42.3659C93.9944 41.938 93.8874 41.6107 93.6735 41.3838C93.4596 41.1504 93.1679 41.0337 92.7984 41.0337C92.4224 41.0337 92.1242 41.1504 91.9038 41.3838C91.6899 41.6107 91.5829 41.938 91.5829 42.3659V45.3413H90.2216V39.9544H91.5829V40.6253C91.7644 40.3919 91.9946 40.2104 92.2733 40.0808C92.5585 39.9447 92.8697 39.8766 93.2068 39.8766ZM98.8964 44.087L100.258 39.9544H101.707L99.7132 45.3413H98.0602L96.0766 39.9544H97.5351L98.8964 44.087ZM107.479 42.5312C107.479 42.7256 107.466 42.9007 107.44 43.0562H103.502C103.534 43.4452 103.67 43.7499 103.91 43.9703C104.15 44.1907 104.445 44.3009 104.795 44.3009C105.301 44.3009 105.661 44.0837 105.874 43.6494H107.343C107.187 44.168 106.889 44.5958 106.448 44.9329C106.007 45.2635 105.466 45.4288 104.824 45.4288C104.306 45.4288 103.839 45.3154 103.424 45.0885C103.016 44.8551 102.695 44.5278 102.461 44.1064C102.235 43.685 102.121 43.1989 102.121 42.6478C102.121 42.0904 102.235 41.6009 102.461 41.1796C102.688 40.7582 103.006 40.4341 103.414 40.2072C103.823 39.9803 104.293 39.8669 104.824 39.8669C105.336 39.8669 105.793 39.9771 106.195 40.1975C106.604 40.4179 106.918 40.7323 107.139 41.1407C107.365 41.5426 107.479 42.0061 107.479 42.5312ZM106.069 42.1422C106.062 41.7922 105.936 41.5134 105.69 41.306C105.443 41.0921 105.142 40.9851 104.785 40.9851C104.448 40.9851 104.163 41.0888 103.93 41.2963C103.703 41.4972 103.563 41.7792 103.512 42.1422H106.069ZM110.534 45.4288C110.093 45.4288 109.698 45.351 109.348 45.1955C108.998 45.0334 108.719 44.8162 108.511 44.544C108.31 44.2717 108.2 43.9703 108.181 43.6397H109.552C109.578 43.8471 109.678 44.0189 109.853 44.155C110.035 44.2911 110.258 44.3592 110.524 44.3592C110.784 44.3592 110.984 44.3074 111.127 44.2036C111.276 44.0999 111.351 43.967 111.351 43.805C111.351 43.6299 111.26 43.5003 111.078 43.416C110.903 43.3253 110.621 43.228 110.233 43.1243C109.831 43.0271 109.5 42.9266 109.241 42.8229C108.988 42.7192 108.767 42.5603 108.579 42.3464C108.398 42.1325 108.307 41.844 108.307 41.481C108.307 41.1828 108.391 40.9105 108.56 40.6642C108.735 40.4179 108.981 40.2234 109.299 40.0808C109.623 39.9382 110.002 39.8669 110.437 39.8669C111.078 39.8669 111.591 40.0289 111.973 40.3531C112.356 40.6707 112.566 41.1018 112.605 41.6463H111.302C111.283 41.4324 111.192 41.2638 111.03 41.1407C110.874 41.011 110.664 40.9462 110.398 40.9462C110.151 40.9462 109.96 40.9916 109.824 41.0823C109.694 41.1731 109.63 41.2995 109.63 41.4616C109.63 41.6431 109.72 41.7824 109.902 41.8797C110.083 41.9704 110.365 42.0644 110.748 42.1617C111.137 42.2589 111.458 42.3594 111.711 42.4631C111.963 42.5668 112.18 42.7289 112.362 42.9493C112.55 43.1632 112.647 43.4484 112.654 43.805C112.654 44.1161 112.566 44.3949 112.391 44.6412C112.223 44.8875 111.976 45.082 111.652 45.2246C111.335 45.3608 110.962 45.4288 110.534 45.4288ZM115.356 41.0726V43.6786C115.356 43.8601 115.398 43.993 115.483 44.0772C115.573 44.155 115.722 44.1939 115.93 44.1939H116.562V45.3413H115.706C114.559 45.3413 113.985 44.7838 113.985 43.6688V41.0726H113.343V39.9544H113.985V38.6222H115.356V39.9544H116.562V41.0726H115.356ZM120.798 44.5731C120.649 44.8195 120.406 45.0269 120.069 45.1955C119.732 45.3575 119.369 45.4385 118.98 45.4385C118.643 45.4385 118.338 45.3705 118.066 45.2343C117.794 45.0982 117.58 44.9102 117.424 44.6704C117.269 44.4305 117.191 44.155 117.191 43.8439C117.191 43.3447 117.376 42.9363 117.745 42.6187C118.121 42.301 118.682 42.1422 119.427 42.1422H120.798C120.785 41.7986 120.685 41.5264 120.497 41.3254C120.316 41.118 120.063 41.0143 119.739 41.0143C119.453 41.0143 119.217 41.0921 119.029 41.2476C118.841 41.3967 118.721 41.6074 118.669 41.8797H117.308C117.372 41.4907 117.512 41.1439 117.726 40.8392C117.946 40.5281 118.231 40.2882 118.581 40.1197C118.938 39.9447 119.337 39.8571 119.777 39.8571C120.231 39.8571 120.64 39.9511 121.003 40.1391C121.372 40.3271 121.661 40.5961 121.868 40.9462C122.075 41.2963 122.179 41.7079 122.179 42.1811V45.3413H120.798V44.5731ZM119.379 44.3398C119.606 44.3398 119.826 44.2911 120.04 44.1939C120.26 44.0967 120.442 43.9508 120.585 43.7563C120.727 43.5619 120.798 43.3317 120.798 43.066V43.0271H119.505C119.194 43.0271 118.961 43.0887 118.805 43.2118C118.656 43.335 118.581 43.497 118.581 43.698C118.581 43.8925 118.65 44.0481 118.786 44.1647C118.928 44.2814 119.126 44.3398 119.379 44.3398ZM125.585 45.4288C125.144 45.4288 124.749 45.351 124.398 45.1955C124.048 45.0334 123.77 44.8162 123.562 44.544C123.361 44.2717 123.251 43.9703 123.232 43.6397H124.603C124.629 43.8471 124.729 44.0189 124.904 44.155C125.086 44.2911 125.309 44.3592 125.575 44.3592C125.834 44.3592 126.035 44.3074 126.178 44.2036C126.327 44.0999 126.402 43.967 126.402 43.805C126.402 43.6299 126.311 43.5003 126.129 43.416C125.954 43.3253 125.672 43.228 125.283 43.1243C124.881 43.0271 124.551 42.9266 124.292 42.8229C124.039 42.7192 123.818 42.5603 123.63 42.3464C123.449 42.1325 123.358 41.844 123.358 41.481C123.358 41.1828 123.442 40.9105 123.611 40.6642C123.786 40.4179 124.032 40.2234 124.35 40.0808C124.674 39.9382 125.053 39.8669 125.488 39.8669C126.129 39.8669 126.641 40.0289 127.024 40.3531C127.406 40.6707 127.617 41.1018 127.656 41.6463H126.353C126.334 41.4324 126.243 41.2638 126.081 41.1407C125.925 41.011 125.714 40.9462 125.449 40.9462C125.202 40.9462 125.011 40.9916 124.875 41.0823C124.745 41.1731 124.68 41.2995 124.68 41.4616C124.68 41.6431 124.771 41.7824 124.953 41.8797C125.134 41.9704 125.416 42.0644 125.799 42.1617C126.188 42.2589 126.509 42.3594 126.761 42.4631C127.014 42.5668 127.231 42.7289 127.413 42.9493C127.601 43.1632 127.698 43.4484 127.705 43.805C127.705 44.1161 127.617 44.3949 127.442 44.6412C127.273 44.8875 127.027 45.082 126.703 45.2246C126.385 45.3608 126.013 45.4288 125.585 45.4288ZM129.512 39.3126C129.273 39.3126 129.072 39.2381 128.91 39.089C128.754 38.9334 128.676 38.7422 128.676 38.5153C128.676 38.2884 128.754 38.1004 128.91 37.9513C129.072 37.7957 129.273 37.7179 129.512 37.7179C129.752 37.7179 129.95 37.7957 130.106 37.9513C130.268 38.1004 130.349 38.2884 130.349 38.5153C130.349 38.7422 130.268 38.9334 130.106 39.089C129.95 39.2381 129.752 39.3126 129.512 39.3126ZM130.183 39.9544V45.3413H128.822V39.9544H130.183Z" fill="#2458F1"/>
<defs>
<linearGradient id="paint0_linear_1235_2652" x1="44.3386" y1="41.5308" x2="39.5502" y2="41.5308" gradientUnits="userSpaceOnUse">
<stop stop-color="#004ED0"/>
<stop offset="0.09" stop-color="#004ED0" stop-opacity="0.95"/>
<stop offset="0.23" stop-color="#004ED0" stop-opacity="0.82"/>
<stop offset="0.41" stop-color="#004ED0" stop-opacity="0.61"/>
<stop offset="0.63" stop-color="#004ED0" stop-opacity="0.32"/>
<stop offset="0.84" stop-color="#004ED0" stop-opacity="0"/>
</linearGradient>
<linearGradient id="paint1_linear_1235_2652" x1="39.5503" y1="32.1596" x2="44.4852" y2="32.1596" gradientUnits="userSpaceOnUse">
<stop stop-color="#004ED0"/>
<stop offset="1" stop-color="#5B97FC"/>
</linearGradient>
<linearGradient id="paint2_linear_1235_2652" x1="20.6938" y1="28.9784" x2="35.6355" y2="28.9784" gradientUnits="userSpaceOnUse">
<stop offset="0.02" stop-color="#004ED0" stop-opacity="0"/>
<stop offset="0.35" stop-color="#004ED0" stop-opacity="0.38"/>
<stop offset="0.66" stop-color="#004ED0" stop-opacity="0.72"/>
<stop offset="0.89" stop-color="#004ED0" stop-opacity="0.92"/>
<stop offset="1" stop-color="#004ED0"/>
</linearGradient>
<linearGradient id="paint3_linear_1235_2652" x1="20.345" y1="38.6005" x2="36.5727" y2="38.6005" gradientUnits="userSpaceOnUse">
<stop stop-color="#004ED0"/>
<stop offset="1" stop-color="#5B97FC"/>
</linearGradient>
<linearGradient id="paint4_linear_1235_2652" x1="1.48394" y1="45.6976" x2="9.78821" y2="25.9228" gradientUnits="userSpaceOnUse">
<stop stop-color="#004ED0"/>
<stop offset="0.09" stop-color="#004ED0" stop-opacity="0.95"/>
<stop offset="0.23" stop-color="#004ED0" stop-opacity="0.82"/>
<stop offset="0.41" stop-color="#004ED0" stop-opacity="0.61"/>
<stop offset="0.63" stop-color="#004ED0" stop-opacity="0.32"/>
<stop offset="0.84" stop-color="#004ED0" stop-opacity="0"/>
</linearGradient>
<linearGradient id="paint5_linear_1235_2652" x1="5.97998" y1="35.709" x2="19.1447" y2="35.709" gradientUnits="userSpaceOnUse">
<stop stop-color="#004ED0"/>
<stop offset="1" stop-color="#5B97FC"/>
</linearGradient>
<linearGradient id="paint6_linear_1235_2652" x1="48.849" y1="45.6971" x2="57.153" y2="25.9228" gradientUnits="userSpaceOnUse">
<stop stop-color="#004ED0"/>
<stop offset="0.09" stop-color="#004ED0" stop-opacity="0.95"/>
<stop offset="0.23" stop-color="#004ED0" stop-opacity="0.82"/>
<stop offset="0.41" stop-color="#004ED0" stop-opacity="0.61"/>
<stop offset="0.63" stop-color="#004ED0" stop-opacity="0.32"/>
<stop offset="0.84" stop-color="#004ED0" stop-opacity="0"/>
</linearGradient>
<linearGradient id="paint7_linear_1235_2652" x1="53.3391" y1="35.709" x2="66.5038" y2="35.709" gradientUnits="userSpaceOnUse">
<stop stop-color="#004ED0"/>
<stop offset="1" stop-color="#5B97FC"/>
</linearGradient>
<linearGradient id="paint8_linear_1235_2652" x1="30.7454" y1="7.43896" x2="30.7454" y2="1.29417" gradientUnits="userSpaceOnUse">
<stop stop-color="#004ED0"/>
<stop offset="0.09" stop-color="#004ED0" stop-opacity="0.95"/>
<stop offset="0.23" stop-color="#004ED0" stop-opacity="0.82"/>
<stop offset="0.41" stop-color="#004ED0" stop-opacity="0.61"/>
<stop offset="0.63" stop-color="#004ED0" stop-opacity="0.32"/>
<stop offset="0.84" stop-color="#004ED0" stop-opacity="0"/>
</linearGradient>
<linearGradient id="paint9_linear_1235_2652" x1="20.999" y1="11.1752" x2="40.8404" y2="11.1752" gradientUnits="userSpaceOnUse">
<stop stop-color="#004ED0"/>
<stop offset="1" stop-color="#5B97FC"/>
</linearGradient>
<linearGradient id="paint10_linear_1235_2652" x1="47.3168" y1="16.7566" x2="42.5257" y2="16.7566" gradientUnits="userSpaceOnUse">
<stop stop-color="#004ED0"/>
<stop offset="0.09" stop-color="#004ED0" stop-opacity="0.95"/>
<stop offset="0.23" stop-color="#004ED0" stop-opacity="0.82"/>
<stop offset="0.41" stop-color="#004ED0" stop-opacity="0.61"/>
<stop offset="0.63" stop-color="#004ED0" stop-opacity="0.32"/>
<stop offset="0.84" stop-color="#004ED0" stop-opacity="0"/>
</linearGradient>
<linearGradient id="paint11_linear_1235_2652" x1="42.5271" y1="7.38467" x2="47.462" y2="7.38467" gradientUnits="userSpaceOnUse">
<stop stop-color="#004ED0"/>
<stop offset="1" stop-color="#5B97FC"/>
</linearGradient>
<linearGradient id="paint12_linear_1235_2652" x1="64.033" y1="1.54696" x2="64.033" y2="20.3038" gradientUnits="userSpaceOnUse">
<stop stop-color="#004ED0"/>
<stop offset="0.09" stop-color="#004ED0" stop-opacity="0.95"/>
<stop offset="0.23" stop-color="#004ED0" stop-opacity="0.82"/>
<stop offset="0.41" stop-color="#004ED0" stop-opacity="0.61"/>
<stop offset="0.63" stop-color="#004ED0" stop-opacity="0.32"/>
<stop offset="0.84" stop-color="#004ED0" stop-opacity="0"/>
</linearGradient>
<linearGradient id="paint13_linear_1235_2652" x1="50.4099" y1="10.919" x2="61.978" y2="10.919" gradientUnits="userSpaceOnUse">
<stop stop-color="#004ED0"/>
<stop offset="1" stop-color="#5B97FC"/>
</linearGradient>
<linearGradient id="paint14_linear_1235_2652" x1="69.3243" y1="5.66605" x2="82.7078" y2="5.66605" gradientUnits="userSpaceOnUse">
<stop offset="0.02" stop-color="#004ED0" stop-opacity="0"/>
<stop offset="0.35" stop-color="#004ED0" stop-opacity="0.38"/>
<stop offset="0.66" stop-color="#004ED0" stop-opacity="0.72"/>
<stop offset="0.89" stop-color="#004ED0" stop-opacity="0.92"/>
<stop offset="1" stop-color="#004ED0"/>
</linearGradient>
<linearGradient id="paint15_linear_1235_2652" x1="69.3186" y1="15.0399" x2="81.9463" y2="15.0399" gradientUnits="userSpaceOnUse">
<stop stop-color="#004ED0"/>
<stop offset="1" stop-color="#5B97FC"/>
</linearGradient>
<linearGradient id="paint16_linear_1235_2652" x1="87.9828" y1="20.2896" x2="87.9828" y2="1.54697" gradientUnits="userSpaceOnUse">
<stop stop-color="#004ED0"/>
<stop offset="0.09" stop-color="#004ED0" stop-opacity="0.95"/>
<stop offset="0.23" stop-color="#004ED0" stop-opacity="0.82"/>
<stop offset="0.41" stop-color="#004ED0" stop-opacity="0.61"/>
<stop offset="0.63" stop-color="#004ED0" stop-opacity="0.32"/>
<stop offset="0.84" stop-color="#004ED0" stop-opacity="0"/>
</linearGradient>
<linearGradient id="paint17_linear_1235_2652" x1="90.3967" y1="18.1719" x2="99.3812" y2="18.1719" gradientUnits="userSpaceOnUse">
<stop stop-color="#004ED0"/>
<stop offset="1" stop-color="#5B97FC"/>
</linearGradient>
<linearGradient id="paint18_linear_1235_2652" x1="90.3967" y1="10.7897" x2="98.0894" y2="10.7897" gradientUnits="userSpaceOnUse">
<stop stop-color="#004ED0"/>
<stop offset="1" stop-color="#5B97FC"/>
</linearGradient>
<linearGradient id="paint19_linear_1235_2652" x1="90.3967" y1="3.65044" x2="99.2506" y2="3.65044" gradientUnits="userSpaceOnUse">
<stop stop-color="#004ED0"/>
<stop offset="1" stop-color="#5B97FC"/>
</linearGradient>
<linearGradient id="paint20_linear_1235_2652" x1="101.568" y1="4.21458" x2="116.525" y2="4.21458" gradientUnits="userSpaceOnUse">
<stop offset="0.02" stop-color="#004ED0" stop-opacity="0"/>
<stop offset="0.35" stop-color="#004ED0" stop-opacity="0.38"/>
<stop offset="0.66" stop-color="#004ED0" stop-opacity="0.72"/>
<stop offset="0.89" stop-color="#004ED0" stop-opacity="0.92"/>
<stop offset="1" stop-color="#004ED0"/>
</linearGradient>
<linearGradient id="paint21_linear_1235_2652" x1="101.239" y1="13.8468" x2="117.481" y2="13.8468" gradientUnits="userSpaceOnUse">
<stop stop-color="#004ED0"/>
<stop offset="1" stop-color="#5B97FC"/>
</linearGradient>
<linearGradient id="paint22_linear_1235_2652" x1="126.032" y1="20.2753" x2="126.032" y2="1.54697" gradientUnits="userSpaceOnUse">
<stop stop-color="#004ED0"/>
<stop offset="0.09" stop-color="#004ED0" stop-opacity="0.95"/>
<stop offset="0.23" stop-color="#004ED0" stop-opacity="0.82"/>
<stop offset="0.41" stop-color="#004ED0" stop-opacity="0.61"/>
<stop offset="0.63" stop-color="#004ED0" stop-opacity="0.32"/>
<stop offset="0.84" stop-color="#004ED0" stop-opacity="0"/>
</linearGradient>
<linearGradient id="paint23_linear_1235_2652" x1="128.441" y1="3.65044" x2="134.203" y2="3.65044" gradientUnits="userSpaceOnUse">
<stop stop-color="#004ED0"/>
<stop offset="1" stop-color="#5B97FC"/>
</linearGradient>
<linearGradient id="paint24_linear_1235_2652" x1="118.031" y1="3.65044" x2="123.779" y2="3.65044" gradientUnits="userSpaceOnUse">
<stop stop-color="#004ED0"/>
<stop offset="1" stop-color="#5B97FC"/>
</linearGradient>
<linearGradient id="paint25_linear_1235_2652" x1="18.7871" y1="16.7853" x2="0.250003" y2="16.7853" gradientUnits="userSpaceOnUse">
<stop stop-color="#004ED0"/>
<stop offset="0.09" stop-color="#004ED0" stop-opacity="0.95"/>
<stop offset="0.23" stop-color="#004ED0" stop-opacity="0.82"/>
<stop offset="0.41" stop-color="#004ED0" stop-opacity="0.61"/>
<stop offset="0.63" stop-color="#004ED0" stop-opacity="0.32"/>
<stop offset="0.84" stop-color="#004ED0" stop-opacity="0"/>
</linearGradient>
<linearGradient id="paint26_linear_1235_2652" x1="-0.000244176" y1="6.79228" x2="19.3231" y2="6.79228" gradientUnits="userSpaceOnUse">
<stop stop-color="#004ED0"/>
<stop offset="1" stop-color="#5B97FC"/>
</linearGradient>
</defs>
</svg>
