<svg width="212" height="86" viewBox="0 0 212 86" fill="none" xmlns="http://www.w3.org/2000/svg">
<g clip-path="url(#clip0_1907_5556)">
<path d="M43.7445 0.909668C41.9364 0.909668 40.2971 1.14741 38.854 1.64668V9.25458C39.2207 8.80367 39.6415 8.39963 40.1069 8.05158C41.0769 7.33834 42.2894 6.97102 43.7445 6.97102C45.2197 6.97102 46.4429 7.33477 47.4117 8.05158C47.988 8.47467 48.4901 8.99045 48.8976 9.57792V1.73227C47.3951 1.18189 45.6785 0.909668 43.7445 0.909668Z" fill="url(#paint0_linear_1907_5556)"/>
<path d="M57.4692 14.4182C57.4704 16.1081 57.1796 17.7855 56.6098 19.3764C56.0476 20.9872 55.1721 22.4707 54.0338 23.7414C52.8342 25.0677 51.3672 26.1248 49.7294 26.8428C48.0208 27.6123 46.0269 27.9963 43.7477 27.9947C41.4685 27.9931 39.4714 27.6092 37.7564 26.8428C36.0482 26.0654 34.6134 25.0348 33.477 23.7414C32.3446 22.4655 31.4684 20.9836 30.8963 19.3764C30.3152 17.787 30.0174 16.1081 30.0166 14.4158C30.0157 12.7331 30.3136 11.0635 30.8963 9.48493C31.4702 7.88686 32.3482 6.41505 33.4818 5.15081C34.6134 3.86698 36.0482 2.83634 37.7612 2.06842C38.1191 1.90451 38.4867 1.76279 38.862 1.64404V9.25194C38.4796 9.74162 38.1627 10.2791 37.9193 10.8508C37.4344 11.9773 37.1833 13.1905 37.1811 14.417C37.1829 15.6504 37.434 16.8707 37.9193 18.0046C38.3795 19.1266 39.1375 20.1016 40.1113 20.8243C41.0813 21.5375 42.2938 21.9048 43.7489 21.9048C45.2241 21.9048 46.4473 21.5411 47.4161 20.8243C48.3904 20.1017 49.1488 19.1267 49.6093 18.0046C50.0911 16.8704 50.3385 15.6505 50.3368 14.4182C50.3383 13.1924 50.0908 11.9792 49.6093 10.852C49.4224 10.4026 49.1851 9.97593 48.902 9.58003V1.73439C49.1849 1.83543 49.4679 1.94598 49.7341 2.06723C51.3709 2.77853 52.838 3.82914 54.0385 5.14962C55.1762 6.40913 56.0519 7.88245 56.6145 9.48374C57.185 11.0661 57.4743 12.7361 57.4692 14.4182Z" fill="#015AFD"/>
<path d="M67.5187 27.644V17.6919H60.6812V27.644H67.5187Z" fill="url(#paint1_linear_1907_5556)"/>
<path d="M67.5223 1.2627H60.6812V17.691H67.5223V1.2627Z" fill="#015AFD"/>
<path d="M87.9724 1.2627V15.9138L87.9521 15.8829V27.0475L88.367 27.6419H94.741V1.2627H87.9724Z" fill="url(#paint2_linear_1907_5556)"/>
<path d="M87.9519 15.8827V27.0473L78.7071 13.7418V27.6441H71.9277V1.26367H78.2423L87.9519 15.8827Z" fill="#015AFD"/>
<path d="M98.8945 1.2627V12.8719H105.735V7.18378H118.001V1.2627H98.8945Z" fill="url(#paint3_linear_1907_5556)"/>
<path d="M116.394 12.8823V18.5502H105.735V27.644H98.8945V12.8716H105.735V12.8823H116.394Z" fill="#015AFD"/>
<path d="M122.104 1.2627V27.6443H128.943V1.2627H122.104Z" fill="url(#paint4_linear_1907_5556)"/>
<path d="M141.392 21.7231H128.943V27.6442H141.392V21.7231Z" fill="#015AFD"/>
<path d="M139.603 11.457H128.943V17.0952H139.603V11.457Z" fill="#015AFD"/>
<path d="M141.21 1.2627H128.943V7.18378H141.21V1.2627Z" fill="#015AFD"/>
<path d="M165.59 6.99242C165.318 6.28965 164.959 5.62419 164.52 5.01199C163.991 4.26235 163.354 3.595 162.63 3.03156C161.851 2.4051 160.861 1.89037 159.679 1.49571C158.498 1.10105 157.052 0.909668 155.365 0.909668C153.203 0.909668 151.333 1.26629 149.768 1.97953C148.202 2.69277 146.988 3.67704 146.15 4.93948C145.342 6.14247 144.918 7.53686 144.887 9.11312H151.596C151.588 9.05284 151.585 8.99202 151.586 8.93124C151.593 8.52747 151.708 8.13285 151.919 7.78887C152.142 7.40491 152.526 7.09227 153.06 6.82956C153.595 6.56685 154.315 6.4349 155.213 6.4349C156.173 6.4349 156.92 6.56685 157.486 6.83907C157.968 7.05686 158.398 7.37359 158.75 7.76866C159.059 8.16576 159.288 8.61858 159.426 9.10242H166.166C166.041 8.38251 165.848 7.67605 165.59 6.99242Z" fill="url(#paint5_linear_1907_5556)"/>
<path d="M166.913 19.5204C166.933 21.0776 166.486 22.6051 165.63 23.9057C164.772 25.1879 163.536 26.1916 161.922 26.9167C160.306 27.6442 158.335 27.9973 156.001 27.9973C154.173 27.9973 152.606 27.7857 151.313 27.3613C150.019 26.9369 148.947 26.3901 148.115 25.7244C147.332 25.1229 146.65 24.4006 146.094 23.5847C145.643 22.9184 145.273 22.2 144.994 21.445C144.736 20.7019 144.543 19.9379 144.417 19.1614H151.338C151.496 19.7564 151.756 20.3194 152.106 20.8257C152.429 21.2596 152.914 21.6435 153.581 21.9775C154.248 22.3116 155.147 22.4828 156.289 22.4828C157.693 22.4828 158.673 22.2094 159.229 21.6732C159.784 21.1371 160.068 20.563 160.068 19.946C160.078 19.6849 160.027 19.4251 159.92 19.1868C159.813 18.9485 159.652 18.738 159.451 18.5718C159.027 18.2283 158.31 17.9775 157.289 17.8039L153.758 17.2369C152.276 16.9883 150.829 16.5678 149.444 15.984C148.152 15.4657 147.016 14.6197 146.15 13.5292C145.301 12.4578 144.877 11.0566 144.877 9.32585C144.875 9.25519 144.879 9.1845 144.887 9.11426H151.596C151.647 9.71021 151.971 10.1544 152.566 10.4468C153.328 10.8053 154.138 11.0504 154.971 11.1743L158.678 11.7806C160.093 12.0012 161.468 12.4265 162.76 13.043C163.957 13.6107 164.992 14.4689 165.771 15.5394C166.53 16.6009 166.913 17.924 166.913 19.5204Z" fill="#015AFD"/>
<path d="M176.34 1.2627V7.18378H176.361V27.6443H183.201V1.2627H176.34Z" fill="url(#paint6_linear_1907_5556)"/>
<path d="M191.193 1.2627H183.201V7.18378H191.193V1.2627Z" fill="#015AFD"/>
<path d="M176.339 1.2627H168.368V7.18378H176.339V1.2627Z" fill="#015AFD"/>
<path d="M19.7519 17.9037C19.5481 18.6057 19.2343 19.2709 18.8223 19.8747C18.4586 20.3894 17.8821 20.8447 17.1248 21.2381C16.3676 21.6316 15.3417 21.8325 14.0829 21.8325C12.5977 21.8325 11.3551 21.4482 10.355 20.6794C9.35914 19.9249 8.5844 18.9165 8.11185 17.7599C8.04293 17.6015 7.98222 17.4396 7.92997 17.2749H0.342285C0.485323 17.9288 0.667528 18.5734 0.887914 19.2054C1.46735 20.8707 2.35897 22.4103 3.51502 23.7416C4.72002 25.1228 6.21328 26.2228 7.88956 26.9643C9.64769 27.7726 11.6935 28.1673 14.002 28.1673C15.9825 28.1673 17.68 27.9295 19.0839 27.4291C20.4878 26.9286 21.6705 26.2974 22.6108 25.52C23.4847 24.8146 24.2417 23.9758 24.854 23.0343C25.3602 22.2593 25.7803 21.4314 26.1069 20.5653C26.3931 19.7706 26.6095 18.9524 26.7536 18.1201C26.7631 18.0488 26.7833 17.9786 26.794 17.9073L19.7519 17.9037Z" fill="url(#paint7_linear_1907_5556)"/>
<path d="M26.7943 10.2659H19.7522C19.5462 9.56147 19.2326 8.89306 18.8226 8.28429C18.4589 7.75887 17.8823 7.29407 17.1251 6.9006C16.3679 6.50713 15.342 6.30623 14.0832 6.30623C12.5984 6.30623 11.3491 6.6795 10.3553 7.43791C9.35663 8.18316 8.58091 9.18744 8.11214 10.342C7.19655 12.5505 7.13176 15.02 7.93026 17.2735H0.342576C-0.256956 14.493 -0.0679804 11.6003 0.888205 8.92145C1.46586 7.26427 2.35787 5.73414 3.51531 4.41496C4.72701 3.04439 6.21879 1.94987 7.88985 1.20538C9.64838 0.401792 11.6859 0 14.0023 0C15.9827 0 17.6803 0.252012 19.0842 0.747714C20.4881 1.24342 21.6708 1.86988 22.6111 2.65682C23.4822 3.36146 24.2389 4.19673 24.8543 5.13295C25.3595 5.91438 25.7795 6.74769 26.1072 7.6186C26.4125 8.47947 26.6424 9.36524 26.7943 10.2659Z" fill="#015AFD"/>
<path d="M66.2838 63.5746V53.6035H59.4355V63.5746H66.2838Z" fill="url(#paint8_linear_1907_5556)"/>
<path d="M66.2854 37.1445H59.4312V53.6037H66.2854V37.1445Z" fill="#015AFD"/>
<path d="M52.3708 43.2297C52.1122 42.5585 51.7699 41.9227 51.3521 41.3372C50.8466 40.6213 50.2381 39.984 49.5464 39.4459C48.8034 38.8516 47.8572 38.3547 46.7279 37.9779C45.5986 37.601 44.2173 37.418 42.6054 37.418C40.5393 37.418 38.7527 37.7556 37.2561 38.4415C35.7594 39.1274 34.5969 40.0605 33.7956 41.2695C33.023 42.419 32.6176 43.7515 32.5879 45.2577H38.9987C38.9909 45.2002 38.9877 45.1421 38.9892 45.0841C38.9951 44.6983 39.1052 44.3212 39.3078 43.9929C39.5206 43.6255 39.8879 43.3272 40.3991 43.0752C40.9102 42.8231 41.5961 42.6995 42.4556 42.6995C43.3721 42.6995 44.0865 42.8243 44.6274 43.0847C45.0875 43.2931 45.4986 43.5961 45.834 43.9738C46.1282 44.3535 46.3469 44.7861 46.4782 45.2482H52.9212C52.8015 44.5596 52.6172 43.8838 52.3708 43.2297Z" fill="url(#paint9_linear_1907_5556)"/>
<path d="M53.6357 55.201C53.6556 56.6891 53.2282 58.1489 52.409 59.3913C51.5887 60.6173 50.4079 61.5762 48.8665 62.268C47.3212 62.9634 45.4394 63.3022 43.2082 63.3022C41.4647 63.3022 39.9716 63.0993 38.729 62.6936C37.4927 62.2882 36.4704 61.7664 35.668 61.1292C34.9197 60.553 34.2681 59.8612 33.7375 59.0798C33.3072 58.4429 32.9551 57.7564 32.6891 57.0352C32.4431 56.3253 32.259 55.5955 32.1387 54.8539H38.7516C38.9014 55.4238 39.15 55.9629 39.4862 56.4468C39.7941 56.8617 40.2577 57.229 40.8949 57.5476C41.532 57.8661 42.3915 58.0302 43.4828 58.0302C44.8248 58.0302 45.7616 57.7699 46.2917 57.2575C46.8219 56.7452 47.0929 56.196 47.0929 55.6064C47.1017 55.3579 47.0532 55.1107 46.9511 54.884C46.8491 54.6572 46.6963 54.457 46.5045 54.2987C46.0992 53.9707 45.4133 53.7293 44.4385 53.5653L41.0649 53.0173C39.6494 52.7817 38.266 52.3828 36.9423 51.8286C35.7076 51.3327 34.6232 50.524 33.7958 49.482C32.9839 48.4585 32.5785 47.1164 32.5785 45.4653C32.577 45.3978 32.5801 45.3302 32.588 45.2632H38.9989C39.048 45.8322 39.3571 46.257 39.9261 46.5375C40.6542 46.8795 41.4283 47.1137 42.2239 47.2329L45.7651 47.8059C47.1167 48.0176 48.4304 48.424 49.6654 49.0125C50.8076 49.5553 51.796 50.375 52.5409 51.3971C53.2684 52.411 53.6357 53.6759 53.6357 55.201Z" fill="#015AFD"/>
<path d="M20.0973 37.1445H17.5534L15.5099 43.6053L18.5257 53.2887H12.4489L10.5957 59.1468H20.3433L21.7365 63.5748H28.8856C25.9534 54.7655 23.0239 45.9554 20.0973 37.1445Z" fill="#015AFD"/>
<path d="M12.4177 53.2886L15.4894 43.541L15.5096 43.6087L17.553 37.1479H10.8462L2.05908 63.5747H9.20337L10.5954 59.1467L12.4486 53.2886H12.4177Z" fill="url(#paint10_linear_1907_5556)"/>
<path d="M89.1397 37.1445H86.5958L84.5535 43.6053L87.5681 53.2887H81.4913L79.644 59.1468H89.3917L90.786 63.5748H97.9268L89.1397 37.1445Z" fill="#015AFD"/>
<path d="M81.4605 53.2886L84.5322 43.541L84.5535 43.6087L86.5958 37.1479H79.889L71.103 63.5747H78.2461L79.6441 59.1467L81.4961 53.2886H81.4605Z" fill="url(#paint11_linear_1907_5556)"/>
<path d="M114.262 63.5744V58.9812L117.947 56.1056C120.007 54.4913 121.743 53.135 123.154 52.0366C124.566 50.9382 125.636 49.9448 126.364 49.0564C127.088 48.168 127.45 47.221 127.451 46.2154C127.451 45.1637 127.094 44.3748 126.381 43.8486C125.722 43.3414 124.915 43.0641 124.083 43.0593C123.197 43.0584 122.342 43.3828 121.68 43.971C120.967 44.5797 120.611 45.5267 120.611 46.8121H114.156C114.156 45.1994 114.436 43.7907 114.997 42.5861C115.52 41.4316 116.3 40.4118 117.277 39.6048C118.242 38.8181 119.349 38.223 120.537 37.8514C121.762 37.4643 123.039 37.269 124.324 37.2725C126.171 37.2725 127.835 37.6232 129.317 38.3245C130.738 38.9737 131.961 39.9906 132.858 41.2702C133.735 42.5334 134.174 44.0182 134.174 45.7244C134.19 47.2545 133.783 48.7593 132.998 50.0728C132.215 51.3828 131.105 52.6508 129.67 53.8767C128.014 55.2693 126.288 56.5747 124.497 57.7877H134.421V63.5732L114.262 63.5744Z" fill="#015AFD"/>
<path d="M167.356 63.5744V58.9812L171.041 56.1056C173.102 54.4913 174.838 53.135 176.249 52.0366C177.66 50.9382 178.73 49.9448 179.459 49.0564C180.182 48.168 180.544 47.221 180.545 46.2153C180.545 45.1637 180.189 44.3748 179.475 43.8486C178.817 43.3409 178.01 43.0636 177.179 43.0593C176.293 43.0581 175.438 43.3826 174.776 43.971C174.063 44.5797 173.706 45.5267 173.706 46.8121H167.254C167.254 45.1994 167.534 43.7907 168.096 42.5861C168.618 41.4316 169.398 40.4118 170.376 39.6048C171.341 38.8179 172.447 38.2227 173.636 37.8514C174.861 37.4645 176.139 37.2692 177.424 37.2725C179.271 37.2725 180.935 37.6232 182.416 38.3245C183.838 38.9733 185.061 39.9903 185.959 41.2702C186.836 42.5334 187.274 44.0182 187.273 45.7244C187.29 47.2544 186.884 48.7592 186.099 50.0728C185.316 51.3828 184.206 52.6508 182.77 53.8767C181.115 55.2693 179.389 56.5747 177.598 57.7877H187.523V63.5732L167.356 63.5744Z" fill="#015AFD"/>
<path d="M201.758 63.9254C199.957 63.9254 198.443 63.7209 197.217 63.312C195.991 62.9031 194.998 62.3828 194.238 61.7512C193.534 61.1858 192.94 60.4965 192.485 59.7173C192.112 59.0813 191.829 58.3968 191.643 57.6834C191.479 56.969 191.379 56.2413 191.345 55.5092H197.685C197.732 56.0187 197.881 56.5136 198.124 56.9642C198.345 57.3509 198.731 57.6901 199.281 57.9817C199.831 58.2734 200.62 58.4196 201.649 58.4204C202.771 58.4204 203.653 58.1632 204.296 57.6489C204.939 57.1346 205.26 56.5033 205.26 55.7552C205.26 55.0539 204.974 54.4282 204.402 53.8782C203.83 53.3282 202.947 53.0536 201.753 53.0544H198.247V47.8989H201.823C202.854 47.8989 203.631 47.6358 204.156 47.1096C204.68 46.5834 204.943 45.9934 204.945 45.3396C204.945 44.6382 204.653 44.03 204.068 43.5148C203.483 42.9997 202.677 42.7426 201.649 42.7434C200.737 42.7434 200.035 42.9019 199.545 43.2188C199.098 43.4873 198.729 43.8681 198.475 44.3232C198.232 44.8175 198.083 45.3529 198.036 45.9018H191.829C191.863 45.1454 191.969 44.3939 192.145 43.6575C192.334 42.9367 192.611 42.2417 192.969 41.5879C193.399 40.8069 193.962 40.1066 194.633 39.5183C195.358 38.8645 196.299 38.3268 197.456 37.9052C198.613 37.4836 200.034 37.2732 201.718 37.274C202.95 37.2702 204.177 37.4354 205.365 37.7649C206.487 38.0718 207.553 38.5575 208.521 39.2033C209.427 39.8051 210.188 40.602 210.747 41.5356C211.304 42.4865 211.589 43.572 211.572 44.6739C211.572 45.796 211.334 46.747 210.859 47.5268C210.427 48.258 209.848 48.8911 209.158 49.386C208.615 49.7855 208.013 50.099 207.375 50.3156V50.5605C208.159 50.852 208.905 51.238 209.597 51.71C210.299 52.1792 210.891 52.7953 211.332 53.5157C211.776 54.2408 211.998 55.1411 211.999 56.2165C211.999 57.853 211.523 59.2497 210.572 60.4068C209.622 61.5638 208.377 62.4387 206.839 63.0315C205.215 63.6419 203.492 63.9451 201.758 63.9254Z" fill="#015AFD"/>
<path d="M151.146 39.694C149.753 39.6792 148.372 39.9406 147.082 40.4631C145.791 40.9856 144.617 41.7588 143.628 42.738C142.638 43.7172 141.852 44.8829 141.316 46.1678C140.78 47.4526 140.504 48.831 140.504 50.2232C140.504 51.6154 140.78 52.9938 141.316 54.2786C141.852 55.5634 142.638 56.7291 143.628 57.7083C144.617 58.6875 145.791 59.4607 147.082 59.9832C148.372 60.5057 149.753 60.7672 151.146 60.7524" stroke="url(#paint12_linear_1907_5556)" stroke-width="5.79864" stroke-miterlimit="10"/>
<path d="M151.146 60.7528C153.919 60.7233 156.568 59.601 158.519 57.6296C160.469 55.6582 161.563 52.9968 161.563 50.2235C161.563 47.4502 160.469 44.7889 158.519 42.8175C156.568 40.8461 153.919 39.7238 151.146 39.6943" stroke="#015AFD" stroke-width="5.79864" stroke-miterlimit="10"/>
<path d="M22.9854 79.2612C22.9854 77.5233 23.5238 76.0944 24.5628 75.0103C25.6148 73.9012 26.964 73.3877 28.6045 73.3877C30.031 73.3877 31.234 73.8109 32.2278 74.5871C33.2215 75.3634 33.8052 76.4891 34.0109 77.7872H31.5145C31.2066 76.3607 30.0393 75.5809 28.532 75.5809C26.4862 75.5809 25.3319 77.0074 25.3319 79.2042C25.3319 81.4009 26.5313 82.8274 28.532 82.8274C30.0417 82.8274 31.1615 82.0512 31.5145 80.6211H34.0976C33.8932 81.9811 33.3214 83.0224 32.3145 83.8212C31.2779 84.6207 30.0002 85.0437 28.6913 85.0206C27.0687 85.0206 25.7064 84.4845 24.6496 83.398C23.5464 82.4161 22.9854 80.9992 22.9854 79.2612Z" fill="#015AFD"/>
<path d="M39.4364 85.0302C38.1288 85.0302 37.1005 84.6106 36.2957 83.7713C35.491 82.9321 35.107 81.9335 35.107 80.6984C35.0818 79.5577 35.5092 78.4534 36.2957 77.6268C37.0672 76.7875 38.1347 76.3667 39.4364 76.3667C40.738 76.3667 41.7722 76.7923 42.5758 77.6244C43.3414 78.4645 43.7657 79.5601 43.7657 80.6967C43.7657 81.8332 43.3414 82.9289 42.5758 83.7689C42.1625 84.1771 41.672 84.4989 41.133 84.7155C40.594 84.932 40.0172 85.039 39.4364 85.0302ZM37.3406 80.7888C37.3406 81.5151 37.5463 82.0964 37.9184 82.5113C38.1099 82.715 38.3424 82.8759 38.6006 82.9834C38.8587 83.091 39.1366 83.1428 39.4162 83.1354C39.696 83.1453 39.9748 83.0947 40.2333 82.987C40.4918 82.8793 40.724 82.717 40.914 82.5113C41.3086 82.0916 41.4917 81.5151 41.4917 80.7888C41.4917 80.0625 41.2861 79.4812 40.914 79.0663C40.5419 78.6514 40.0296 78.4434 39.4162 78.4434C39.1363 78.4326 38.8574 78.4827 38.5988 78.5902C38.3402 78.6978 38.108 78.8602 37.9184 79.0663C37.4976 79.4645 37.3406 80.0649 37.3406 80.7888Z" fill="#015AFD"/>
<path d="M45.2329 84.8175V76.6557H47.5022V84.8175H45.2329ZM46.3598 75.5632C46.1768 75.5731 45.9938 75.545 45.8221 75.4808C45.6505 75.4165 45.494 75.3175 45.3625 75.19C45.1247 74.9111 44.9919 74.5579 44.9868 74.1914C44.9948 73.9203 45.0805 73.6573 45.2338 73.4335C45.387 73.2098 45.6014 73.0348 45.8513 72.9294C46.1012 72.8241 46.3761 72.7928 46.6433 72.8393C46.9105 72.8858 47.1587 73.0081 47.3583 73.1917C47.6041 73.4661 47.7373 73.8231 47.7316 74.1914C47.7316 74.6122 47.6187 74.9177 47.3583 75.1198C47.2388 75.2674 47.0859 75.3845 46.9124 75.4616C46.7388 75.5386 46.5494 75.5735 46.3598 75.5632Z" fill="#015AFD"/>
<path d="M51.5831 76.6329V77.5969C52.0015 76.8254 52.8348 76.4082 54.0164 76.4082C55.9184 76.4082 57.0263 77.6671 57.0263 79.6962V84.8209H54.8735V79.9625C54.8485 78.8629 54.3825 78.353 53.4303 78.353C52.332 78.353 51.7756 79.0341 51.8113 80.1206V84.9302H49.542V76.6519H51.5831V76.6329Z" fill="#015AFD"/>
<path d="M62.0115 82.1912L64.0324 76.6553H66.3183L63.0255 84.8195H60.9619L57.6929 76.6577H60.0382L62.0115 82.1912Z" fill="#015AFD"/>
<path d="M74.6137 81.4176H68.4703C68.6331 82.5921 69.3761 83.2328 70.5054 83.2328C71.2495 83.2328 71.8903 82.9201 72.1102 82.327H74.4021C74.152 83.1581 73.642 83.8873 72.9471 84.4073C72.2029 84.9428 71.3043 85.2208 70.3877 85.1989C69.1657 85.1989 68.097 84.7674 67.3529 83.9769C66.5624 83.1852 66.1784 82.094 66.1784 80.7566C66.1587 79.5954 66.5781 78.4694 67.3529 77.6041C68.097 76.7423 69.1681 76.312 70.3877 76.312C70.9499 76.3 71.5087 76.4021 72.0303 76.6122C72.5519 76.8222 73.0255 77.1358 73.4225 77.534C74.1941 78.4012 74.6131 79.5258 74.597 80.6865V81.42H74.6089L74.6137 81.4176ZM68.708 79.7153H72.4621C72.304 78.7857 71.6228 78.1498 70.5791 78.1498C69.5924 78.1628 68.9434 78.8083 68.708 79.7153Z" fill="#015AFD"/>
<path d="M75.4932 82.2116H77.772C77.8195 82.8475 78.2475 83.3325 79.1485 83.3325C80.0056 83.3325 80.4787 83.0199 80.4787 82.592C80.4787 82.0487 79.7369 81.8502 78.8359 81.7349C78.3604 81.616 77.9348 81.572 77.4605 81.4222C76.5595 81.1572 75.8189 80.4059 75.8189 79.191C75.8125 78.8136 75.8952 78.44 76.0605 78.1006C76.2257 77.7612 76.4688 77.4656 76.7699 77.2379C77.4058 76.7303 78.2142 76.4521 79.1984 76.4521C80.3206 76.4521 81.1515 76.7172 81.7423 77.308C82.2849 77.8175 82.6084 78.5178 82.6446 79.2611H80.4561C80.4086 78.6668 79.9806 78.2448 79.1711 78.2448C78.4329 78.2448 78.005 78.6252 78.005 79.0317C78.005 79.575 78.7455 79.7247 79.6466 79.8876C80.0757 80.0065 80.5488 80.0504 81.0243 80.2002C81.9254 80.4653 82.6672 81.2166 82.6672 82.479C82.6769 82.8521 82.5954 83.2219 82.4297 83.5563C82.2639 83.8907 82.019 84.1795 81.7162 84.3976C81.0802 84.9409 80.2243 85.1382 79.101 85.1382C76.8471 85.1359 75.6108 84.1872 75.4932 82.2116Z" fill="#015AFD"/>
<path d="M87.8676 82.8895V84.8105C87.4994 84.8875 87.124 84.9254 86.7478 84.9235C86.0766 84.91 85.4375 84.6336 84.9681 84.1535C84.4988 83.6735 84.2367 83.0283 84.2384 82.357V78.3557H83.2173V76.6558H84.2384V74.6147H86.5077V76.5429H87.8676V78.3581H86.6206V82.1192C86.6206 82.6518 86.8703 82.8931 87.4218 82.8931H87.8676V82.8895Z" fill="#015AFD"/>
<path d="M88.9971 82.5266C88.9971 81.0644 89.9885 80.2252 92.1543 79.9197L94.3297 79.6142V79.4573C94.3297 78.6858 93.8673 78.2685 92.8747 78.2685C91.9511 78.2685 91.4649 78.574 91.3852 79.2671H89.2099C89.3045 78.4986 89.6535 77.7839 90.2013 77.2367C90.7766 76.659 91.6907 76.3975 92.908 76.3975C95.276 76.3975 96.4837 77.497 96.4837 79.4703V83.3587C96.4738 83.8584 96.5622 84.3552 96.744 84.8208H94.6126C94.5378 84.517 94.4999 84.2053 94.4997 83.8924C93.9695 84.6187 93.0911 84.992 91.9059 84.992C90.0004 85.0003 88.9971 84.0018 88.9971 82.5266ZM94.2168 81.1191L92.2316 81.4282C91.3924 81.5863 90.9727 81.8942 90.9727 82.4279C90.9727 83.0056 91.3924 83.3111 92.2316 83.3111C93.4917 83.3111 94.2144 82.5848 94.2144 81.4734L94.2168 81.1191Z" fill="#015AFD"/>
<path d="M97.6724 82.2116H99.9512C99.9963 82.8475 100.427 83.3325 101.329 83.3325C102.185 83.3325 102.658 83.0199 102.658 82.592C102.658 82.0487 101.92 81.8502 101.015 81.7349C100.54 81.616 100.114 81.572 99.6385 81.4222C98.7363 81.1572 97.9957 80.4059 97.9957 79.191C97.9893 78.8136 98.0721 78.44 98.2373 78.1006C98.4026 77.7612 98.6456 77.4656 98.9467 77.2379C99.5827 76.6946 100.392 76.4521 101.375 76.4521C102.497 76.4521 103.328 76.7172 103.92 77.308C104.463 77.8176 104.786 78.5179 104.821 79.2611H102.658C102.608 78.6668 102.182 78.2448 101.371 78.2448C100.63 78.2448 100.204 78.6252 100.204 79.0317C100.204 79.575 100.943 79.7247 101.847 79.8876C102.275 80.0065 102.748 80.0504 103.224 80.2002C104.125 80.4653 104.867 81.2166 104.867 82.479C104.876 82.8521 104.795 83.222 104.629 83.5564C104.463 83.8908 104.218 84.1796 103.916 84.3976C103.28 84.9409 102.423 85.1382 101.3 85.1382C99.0204 85.1359 97.8233 84.1872 97.6724 82.2116Z" fill="#015AFD"/>
<path d="M106.236 84.8175V76.6557H108.504V84.8175H106.236ZM107.341 75.5632C107.158 75.5729 106.975 75.5448 106.803 75.4806C106.631 75.4164 106.475 75.3174 106.343 75.19C106.221 75.0688 106.125 74.9239 106.06 74.7643C105.996 74.6046 105.965 74.4336 105.97 74.2616C105.96 74.0782 105.988 73.8949 106.052 73.7229C106.117 73.5509 106.215 73.394 106.343 73.2618C106.603 73.0015 106.921 72.8898 107.341 72.8898C107.525 72.8771 107.709 72.9039 107.881 72.9684C108.053 73.0328 108.21 73.1334 108.34 73.2634C108.47 73.3934 108.571 73.5497 108.635 73.7219C108.7 73.8941 108.727 74.0781 108.714 74.2616C108.714 74.6824 108.596 74.9879 108.339 75.19C108.094 75.4479 107.766 75.5632 107.341 75.5632Z" fill="#015AFD"/>
<path d="M1.53285 81.5962V74.232H4.83623C5.68486 74.232 6.33712 74.4038 6.793 74.7475C7.24888 75.0841 7.47682 75.547 7.47682 76.1362C7.47682 76.5359 7.38565 76.8726 7.20329 77.1461C7.02796 77.4196 6.7895 77.63 6.48791 77.7773C6.18633 77.9246 5.8602 77.9983 5.50953 77.9983L5.69889 77.6826C6.1197 77.6826 6.49142 77.7563 6.81404 77.9036C7.13667 78.0509 7.39266 78.2683 7.58202 78.5558C7.77139 78.8364 7.86607 79.187 7.86607 79.6079C7.86607 80.2391 7.62761 80.73 7.15069 81.0807C6.68079 81.4244 5.97943 81.5962 5.04663 81.5962H1.53285ZM2.58488 80.744H5.00455C5.58667 80.744 6.03203 80.6459 6.34063 80.4495C6.64922 80.2531 6.80352 79.9445 6.80352 79.5237C6.80352 79.0959 6.64922 78.7838 6.34063 78.5874C6.03203 78.391 5.58667 78.2928 5.00455 78.2928H2.4902V77.4407H4.74154C5.27457 77.4407 5.68837 77.3425 5.98294 77.1461C6.27751 76.9497 6.42479 76.6552 6.42479 76.2624C6.42479 75.8696 6.27751 75.5751 5.98294 75.3787C5.68837 75.1823 5.27457 75.0841 4.74154 75.0841H2.58488V80.744ZM9.58967 83.7003C9.32316 83.7003 9.06366 83.6547 8.81117 83.5635C8.55869 83.4793 8.34127 83.3531 8.15891 83.1848L8.59025 82.4273C8.73052 82.5606 8.88481 82.6622 9.05314 82.7324C9.22146 82.8025 9.40031 82.8376 9.58967 82.8376C9.83515 82.8376 10.0385 82.7745 10.1999 82.6482C10.3612 82.522 10.512 82.2975 10.6522 81.9749L10.9994 81.2069L11.1046 81.0807L13.2928 76.0204H14.2817L11.578 82.1538C11.4167 82.5465 11.2343 82.8551 11.031 83.0796C10.8346 83.304 10.6172 83.4618 10.3787 83.553C10.1402 83.6512 9.87723 83.7003 9.58967 83.7003ZM10.9152 81.775L8.36932 76.0204H9.42135L11.5885 80.986L10.9152 81.775Z" fill="#015AFD"/>
</g>
<defs>
<linearGradient id="paint0_linear_1907_5556" x1="43.88" y1="9.5791" x2="43.88" y2="0.909668" gradientUnits="userSpaceOnUse">
<stop stop-color="#015AFD"/>
<stop offset="0.08" stop-color="#015AFD" stop-opacity="0.96"/>
<stop offset="0.2" stop-color="#015AFD" stop-opacity="0.85"/>
<stop offset="0.36" stop-color="#015AFD" stop-opacity="0.68"/>
<stop offset="0.54" stop-color="#015AFD" stop-opacity="0.44"/>
<stop offset="0.75" stop-color="#015AFD" stop-opacity="0.14"/>
<stop offset="0.84" stop-color="#015AFD" stop-opacity="0"/>
</linearGradient>
<linearGradient id="paint1_linear_1907_5556" x1="67.5223" y1="22.6679" x2="60.6823" y2="22.6679" gradientUnits="userSpaceOnUse">
<stop stop-color="#015AFD"/>
<stop offset="0.08" stop-color="#015AFD" stop-opacity="0.96"/>
<stop offset="0.2" stop-color="#015AFD" stop-opacity="0.85"/>
<stop offset="0.36" stop-color="#015AFD" stop-opacity="0.68"/>
<stop offset="0.54" stop-color="#015AFD" stop-opacity="0.44"/>
<stop offset="0.75" stop-color="#015AFD" stop-opacity="0.14"/>
<stop offset="0.84" stop-color="#015AFD" stop-opacity="0"/>
</linearGradient>
<linearGradient id="paint2_linear_1907_5556" x1="91.3472" y1="1.2627" x2="91.3472" y2="27.6443" gradientUnits="userSpaceOnUse">
<stop stop-color="#015AFD"/>
<stop offset="0.08" stop-color="#015AFD" stop-opacity="0.96"/>
<stop offset="0.2" stop-color="#015AFD" stop-opacity="0.85"/>
<stop offset="0.36" stop-color="#015AFD" stop-opacity="0.68"/>
<stop offset="0.54" stop-color="#015AFD" stop-opacity="0.44"/>
<stop offset="0.75" stop-color="#015AFD" stop-opacity="0.14"/>
<stop offset="0.84" stop-color="#015AFD" stop-opacity="0"/>
</linearGradient>
<linearGradient id="paint3_linear_1907_5556" x1="98.8945" y1="7.06728" x2="118.001" y2="7.06728" gradientUnits="userSpaceOnUse">
<stop stop-color="#015AFD" stop-opacity="0.01"/>
<stop offset="0.08" stop-color="#015AFD" stop-opacity="0.22"/>
<stop offset="0.17" stop-color="#015AFD" stop-opacity="0.4"/>
<stop offset="0.26" stop-color="#015AFD" stop-opacity="0.56"/>
<stop offset="0.35" stop-color="#015AFD" stop-opacity="0.7"/>
<stop offset="0.45" stop-color="#015AFD" stop-opacity="0.81"/>
<stop offset="0.55" stop-color="#015AFD" stop-opacity="0.89"/>
<stop offset="0.67" stop-color="#015AFD" stop-opacity="0.95"/>
<stop offset="0.8" stop-color="#015AFD" stop-opacity="0.99"/>
<stop offset="1" stop-color="#015AFD"/>
</linearGradient>
<linearGradient id="paint4_linear_1907_5556" x1="125.523" y1="1.2627" x2="125.523" y2="27.6443" gradientUnits="userSpaceOnUse">
<stop stop-color="#015AFD" stop-opacity="0"/>
<stop offset="0.3" stop-color="#015AFD" stop-opacity="0.36"/>
<stop offset="0.59" stop-color="#015AFD" stop-opacity="0.69"/>
<stop offset="0.8" stop-color="#015AFD" stop-opacity="0.89"/>
<stop offset="0.9" stop-color="#015AFD" stop-opacity="0.97"/>
<stop offset="1" stop-color="#015AFD"/>
</linearGradient>
<linearGradient id="paint5_linear_1907_5556" x1="144.887" y1="5.01199" x2="166.166" y2="5.01199" gradientUnits="userSpaceOnUse">
<stop stop-color="#015AFD" stop-opacity="0"/>
<stop offset="0.3" stop-color="#015AFD" stop-opacity="0.36"/>
<stop offset="0.59" stop-color="#015AFD" stop-opacity="0.69"/>
<stop offset="0.8" stop-color="#015AFD" stop-opacity="0.89"/>
<stop offset="0.9" stop-color="#015AFD" stop-opacity="0.97"/>
<stop offset="1" stop-color="#015AFD"/>
</linearGradient>
<linearGradient id="paint6_linear_1907_5556" x1="179.77" y1="1.2627" x2="179.77" y2="27.6443" gradientUnits="userSpaceOnUse">
<stop stop-color="#015AFD" stop-opacity="0"/>
<stop offset="0.3" stop-color="#015AFD" stop-opacity="0.36"/>
<stop offset="0.59" stop-color="#015AFD" stop-opacity="0.69"/>
<stop offset="0.8" stop-color="#015AFD" stop-opacity="0.89"/>
<stop offset="0.9" stop-color="#015AFD" stop-opacity="0.97"/>
<stop offset="1" stop-color="#015AFD"/>
</linearGradient>
<linearGradient id="paint7_linear_1907_5556" x1="26.794" y1="22.7241" x2="0.342285" y2="22.7241" gradientUnits="userSpaceOnUse">
<stop stop-color="#015AFD"/>
<stop offset="0.08" stop-color="#015AFD" stop-opacity="0.96"/>
<stop offset="0.2" stop-color="#015AFD" stop-opacity="0.85"/>
<stop offset="0.36" stop-color="#015AFD" stop-opacity="0.68"/>
<stop offset="0.54" stop-color="#015AFD" stop-opacity="0.44"/>
<stop offset="0.75" stop-color="#015AFD" stop-opacity="0.14"/>
<stop offset="0.84" stop-color="#015AFD" stop-opacity="0"/>
</linearGradient>
<linearGradient id="paint8_linear_1907_5556" x1="66.285" y1="58.5891" x2="59.4308" y2="58.5891" gradientUnits="userSpaceOnUse">
<stop stop-color="#015AFD"/>
<stop offset="0.08" stop-color="#015AFD" stop-opacity="0.96"/>
<stop offset="0.2" stop-color="#015AFD" stop-opacity="0.85"/>
<stop offset="0.36" stop-color="#015AFD" stop-opacity="0.68"/>
<stop offset="0.54" stop-color="#015AFD" stop-opacity="0.44"/>
<stop offset="0.75" stop-color="#015AFD" stop-opacity="0.14"/>
<stop offset="0.84" stop-color="#015AFD" stop-opacity="0"/>
</linearGradient>
<linearGradient id="paint9_linear_1907_5556" x1="32.5879" y1="41.3372" x2="52.9212" y2="41.3372" gradientUnits="userSpaceOnUse">
<stop stop-color="#015AFD" stop-opacity="0"/>
<stop offset="0.3" stop-color="#015AFD" stop-opacity="0.36"/>
<stop offset="0.59" stop-color="#015AFD" stop-opacity="0.69"/>
<stop offset="0.8" stop-color="#015AFD" stop-opacity="0.89"/>
<stop offset="0.9" stop-color="#015AFD" stop-opacity="0.97"/>
<stop offset="1" stop-color="#015AFD"/>
</linearGradient>
<linearGradient id="paint10_linear_1907_5556" x1="9.80606" y1="63.5747" x2="9.80606" y2="37.1444" gradientUnits="userSpaceOnUse">
<stop stop-color="#015AFD"/>
<stop offset="0.08" stop-color="#015AFD" stop-opacity="0.96"/>
<stop offset="0.2" stop-color="#015AFD" stop-opacity="0.85"/>
<stop offset="0.36" stop-color="#015AFD" stop-opacity="0.68"/>
<stop offset="0.54" stop-color="#015AFD" stop-opacity="0.44"/>
<stop offset="0.75" stop-color="#015AFD" stop-opacity="0.14"/>
<stop offset="0.84" stop-color="#015AFD" stop-opacity="0"/>
</linearGradient>
<linearGradient id="paint11_linear_1907_5556" x1="78.8488" y1="63.5747" x2="78.8488" y2="37.1444" gradientUnits="userSpaceOnUse">
<stop stop-color="#015AFD"/>
<stop offset="0.08" stop-color="#015AFD" stop-opacity="0.96"/>
<stop offset="0.2" stop-color="#015AFD" stop-opacity="0.85"/>
<stop offset="0.36" stop-color="#015AFD" stop-opacity="0.68"/>
<stop offset="0.54" stop-color="#015AFD" stop-opacity="0.44"/>
<stop offset="0.75" stop-color="#015AFD" stop-opacity="0.14"/>
<stop offset="0.84" stop-color="#015AFD" stop-opacity="0"/>
</linearGradient>
<linearGradient id="paint12_linear_1907_5556" x1="137.716" y1="50.2226" x2="151.144" y2="50.2226" gradientUnits="userSpaceOnUse">
<stop stop-color="#015AFD"/>
<stop offset="0.09" stop-color="#015AFD" stop-opacity="0.96"/>
<stop offset="0.24" stop-color="#015AFD" stop-opacity="0.85"/>
<stop offset="0.42" stop-color="#015AFD" stop-opacity="0.68"/>
<stop offset="0.65" stop-color="#015AFD" stop-opacity="0.44"/>
<stop offset="0.89" stop-color="#015AFD" stop-opacity="0.14"/>
<stop offset="1" stop-color="#015AFD" stop-opacity="0"/>
</linearGradient>
<clipPath id="clip0_1907_5556">
<rect width="212" height="85.1989" fill="white"/>
</clipPath>
</defs>
</svg>
