<svg xmlns="http://www.w3.org/2000/svg" width="883" height="662" fill="none"><g clip-path="url(#a)"><path fill="#E4735D" d="m354.112 365.142 512.726 118.755-1.176 5.075-512.725-118.754zM341.718 452.997l512.726 118.755-1.176 5.075-512.726-118.754zM344.85 397.186 857.576 515.94l-5.995 25.882-512.725-118.754z"/><path fill="#FFEFCD" d="m342.68 403.103-4.715 16 94.349 13.526z"/></g><path fill="#232826" d="M243.432 407.086a2.93 2.93 0 0 0-1.588 1.926 2.96 2.96 0 0 0 .438 2.459c4.76 6.819 24.016 23.335 99.494 29.26.289.007 1.794-.117 2.981-4.623s-.06-5.351-.346-5.502c-68.592-31.998-93.465-27.135-100.984-23.548z"/><path fill="#C9CDA9" d="m267.432 369.984 37.108 17.544s-5.965-3.549-4.21-10.203c1.724-6.504 17.473-10.808 17.473-10.808l-31.814-10.157s-12.363 13.443-18.562 13.596z"/><path fill="url(#b)" d="m285.967 356.39 31.814 10.157s-15.782 4.282-17.473 10.809c-1.76 6.625 4.21 10.203 4.21 10.203l-37.108-17.545c2.896-.083 7.128-3.028 10.802-6.19-.072.734.149 2.135 2.462 3.309 2.473 1.26 9.255 3.251 12.199 4.082-2.89 4.002-4.803 6.533-4.826 6.566l.236.189s5.2-6.893 11.522-16.061l-.23-.16c-2.406 3.483-4.638 6.648-6.518 9.202-2.883-.812-9.759-2.844-12.227-4.077-2.726-1.388-2.357-3.039-2.267-3.343.277-.222.55-.473.794-.718.066.046.173-.002.191-.063l-.015-.083c3.608-3.208 6.383-6.239 6.383-6.239zm6.901 13.5s-.168.03-.186.09c-.013.089.03.168.091.186.089.013.167-.03.185-.091.013-.089-.029-.167-.118-.18zm-1.096-.324s-.167.03-.185.091c-.013.088.03.167.091.185.06.018.167-.03.185-.09 0 0-.03-.168-.091-.186m-1.128-.347s-.167.03-.185.091c-.013.089.029.168.09.186.089.013.168-.03.186-.091 0 0-.03-.168-.091-.186m-1.123-.319s-.168.03-.186.091c-.013.089.03.168.091.186.089.013.168-.03.186-.091 0 0-.03-.168-.091-.186m-1.128-.346s-.168.03-.186.091c-.013.088.03.167.091.185.089.013.167-.03.185-.091 0 0-.029-.167-.09-.185m-1.106-.38s-.167.03-.185.091c-.013.089.03.168.091.186.088.013.139-.025.185-.091 0 0-.03-.168-.091-.186m-1.1-.351s-.167.029-.185.09.029.168.09.186c.089.013.168-.03.186-.091 0 0-.03-.167-.091-.185m-1.105-.38s-.168.03-.186.091c-.013.088.03.167.091.185.089.013.168-.03.186-.09 0 0-.03-.168-.091-.186m-1.11-.408s-.168.03-.186.091c-.013.089.03.168.091.186.089.013.167-.03.185-.091 0 0-.029-.168-.09-.186m-1.083-.412s-.167.03-.185.091c-.046.065.025.139.091.185.065.046.167-.03.185-.091 0 0-.03-.167-.091-.185m-1.064-.474s-.172.002-.195.035c-.046.066.001.173.062.191.066.046.145.003.191-.063l-.005-.028c-.01-.056-.025-.139-.086-.157zm-.967-.577s-.15-.031-.196.035a.137.137 0 0 0 .035.196c.066.046.15.031.195-.035l-.01-.056-.029-.168zm-1.013-.828s-.059.155-.021.205c.038.051.127.064.206.021 0 0 .051-.037.046-.065l-.025-.14c-.038-.051-.155-.059-.206-.021m-.473-1.04s-.125.109-.115.165c.015.083.109.124.165.114s.106-.047.096-.103l-.014-.084c-.015-.084-.109-.125-.165-.115zm9.943 14.399s-.031.15.035.196c.066.045.15.031.196-.035l.018-.061c-.01-.056-.02-.112-.058-.163a.137.137 0 0 0-.196.035zm.895-.966s-.15-.031-.196.034a.137.137 0 0 0 .035.196c.066.046.15.031.196-.035l.018-.061a.36.36 0 0 0-.058-.162zm.699-.932s-.15-.031-.196.035a.136.136 0 0 0 .035.195.137.137 0 0 0 .195-.034l-.01-.056-.029-.168zm.698-.931s-.149-.031-.195.034a.137.137 0 0 0 .035.196.136.136 0 0 0 .195-.035l-.01-.056-.03-.167zm.694-.96s-.15-.031-.195.035a.137.137 0 0 0 .034.195c.066.046.15.031.196-.034l.018-.061a.36.36 0 0 0-.058-.163zm.699-.931s-.15-.031-.196.034a.137.137 0 0 0 .035.196c.066.046.15.031.196-.035l.018-.061-.03-.167zm.666-.955s-.15-.031-.196.035a.136.136 0 0 0 .035.195c.066.046.15.031.196-.034l.018-.061c-.01-.056-.02-.112-.058-.163zm.699-.931s-.15-.031-.196.034a.137.137 0 0 0 .035.196.136.136 0 0 0 .195-.035l.018-.061-.029-.167zm.47-.92s-.031.15.035.195a.137.137 0 0 0 .195-.034l.018-.061c-.01-.056-.02-.112-.058-.163a.136.136 0 0 0-.195.035zm.889-.994s-.149-.031-.195.034a.137.137 0 0 0 .035.196.136.136 0 0 0 .195-.035l.018-.061a.36.36 0 0 0-.058-.162zm.694-.96s-.15-.031-.196.035a.14.14 0 0 0 .035.196c.066.045.15.031.196-.035l.018-.061-.03-.168zm.666-.954s-.15-.031-.196.035a.136.136 0 0 0 .035.195c.066.046.15.031.196-.035l-.005-.028zm.671-.927s-.15-.031-.196.035a.137.137 0 0 0 .035.196c.066.045.15.031.196-.035l.018-.061c-.01-.056-.02-.112-.058-.163zm.694-.959s-.15-.031-.196.035a.136.136 0 0 0 .035.195.136.136 0 0 0 .195-.035l.018-.061c-.01-.055-.02-.111-.057-.162zm.665-.955s-.149-.031-.195.035a.137.137 0 0 0 .035.196.136.136 0 0 0 .195-.035l.018-.061-.03-.168zm.661-.982s-.149-.031-.195.035a.136.136 0 0 0 .035.195.136.136 0 0 0 .195-.035l-.01-.056c-.01-.055-.02-.111-.058-.162zm.666-.955s-.149-.031-.195.035a.14.14 0 0 0 .034.196c.066.046.15.031.196-.035l.018-.061c-.01-.056-.02-.112-.058-.163z"/><path fill="#232826" d="M317.892 366.699c-.168.03-15.633 4.312-17.28 10.601-1.67 6.322 3.836 9.722 4.094 9.878l-.311.517s-6.116-3.753-4.353-10.524c1.737-6.593 17.039-10.817 17.694-11.02l.161.576zM286.211 356.463c-.507.552-12.521 13.529-18.747 13.687l-.016-.573c5.998-.146 18.228-13.364 18.348-13.501z"/><path fill="#232826" d="m280.918 365.736-.03-.167s-.15-.031-.196.035c0 0-.031.149.035.195 0 0 .15.031.196-.035l-.01-.055zm-.863-.797-.025-.14s-.154-.059-.205-.021c0 0-.059.155-.021.206 0 0 .126.064.205.021 0 0 .051-.038.046-.066m-.501-1.035-.015-.084s-.109-.124-.165-.115c0 0-.125.109-.115.165 0 0 .109.125.165.115s.107-.048.097-.104zM278.329 363.342l.282.123s-.654 1.673 1.676 3.102l-.221.213c-2.467-1.55-1.727-3.382-1.732-3.41z"/><path fill="url(#c)" d="M263.635 344.487c4.063 5.819 21.462 21.455 92.093 27.033 0 0 1.34.079 2.423-4.034s-.118-4.706-.118-4.706c-64.226-29.98-87.044-24.907-93.476-21.859-1.355.645-1.798 2.367-.95 3.571z"/><path fill="#EFDC8D" d="M358.036 362.779s1.168.57.195 4.491c.502-2.194-.674-2.647-.674-2.647-65.577-24.782-87.25-24.121-93.18-22.949-.615.109-.989.435-1.097.8a2.45 2.45 0 0 1 1.302-1.586c6.4-3.071 29.251-8.121 93.477 21.858z"/><path fill="#232826" d="M272.519 347.256c.205.021-.205 1.276-.4 1.8-.136.37-.456 1.004-.582.94-.193-.11-.38-.192-.545-.307-2.155-1.259-3.773-2.412-5.016-3.401.295.034.63-.026.856-.21.245-.246.315-.662.306-1.035a81 81 0 0 0 4.8 2.028c.188.082.375.164.586.213zM335.624 364.293c.294.034-.627 1.985-.982 2.74-.105.22-.251.534-.447.569a6 6 0 0 1-.654-.114c-11.184-1.784-20.629-3.675-28.587-5.63.519-1.13 1.184-2.575 1.795-4.326 7.939 2.015 17.267 4.216 28.243 6.614.211.049.421.098.627.119zM336.62 361.636l-.085.332a2934 2934 0 0 0-29.449-8.042l.085-.332a2907 2907 0 0 1 29.449 8.042M336.547 362.515s-.03-.167-.124-.208c0 0-.168.029-.209.123 0 0 .03.168.124.209 0 0 .168-.03.209-.124m-1.306-.373s-.03-.167-.124-.208c0 0-.167.03-.208.124 0 0 .029.167.123.208 0 0 .168-.03.209-.124m-1.273-.349s-.03-.168-.124-.209c0 0-.167.03-.208.124 0 0 .03.167.123.208 0 0 .168-.03.209-.123m-1.301-.345s-.03-.168-.124-.209c0 0-.167.03-.208.124 0 0 .035.196.124.209 0 0 .167-.03.208-.124m-1.273-.35s-.03-.167-.123-.208c0 0-.168.029-.209.123 0 0 .03.168.124.209 0 0 .167-.03.208-.124m-1.278-.377s-.03-.168-.123-.209c0 0-.168.03-.209.124 0 0 .03.167.124.208 0 0 .167-.03.208-.123m-1.273-.35s-.029-.168-.123-.209c0 0-.168.03-.209.124 0 0 .03.167.124.208 0 0 .168-.029.208-.123m-1.3-.345s-.03-.168-.124-.209c0 0-.168.03-.209.124 0 0 .03.168.124.209s.168-.03.209-.124m-1.273-.35s-.035-.195-.124-.208c0 0-.167.03-.208.123 0 0 .029.168.123.209 0 0 .168-.03.209-.124m-1.306-.372s-.03-.168-.124-.209c0 0-.167.03-.208.124 0 0 .03.167.123.208.094.041.168-.03.209-.123m-1.273-.35s-.03-.168-.124-.209c0 0-.167.03-.208.124 0 0 .03.167.124.208.088.013.167-.029.208-.123m-1.301-.345s-.03-.168-.123-.209c0 0-.168.03-.209.124 0 0 .03.168.124.209.088.013.195-.035.208-.124m-1.273-.35s-.029-.167-.123-.208c0 0-.168.03-.209.123 0 0 .03.168.124.209 0 0 .195-.035.208-.124m-1.273-.349s-.034-.196-.123-.209c0 0-.168.03-.209.124 0 0 .03.167.124.208 0 0 .195-.035.208-.123m-1.305-.373s-.03-.168-.124-.209c0 0-.168.03-.208.124 0 0 .029.167.123.208 0 0 .168-.029.209-.123m-1.273-.35s-.035-.195-.124-.208c0 0-.167.029-.208.123 0 0 .029.168.123.209 0 0 .168-.03.209-.124m-1.301-.345s-.03-.167-.124-.208c0 0-.167.03-.208.123 0 0 .03.168.123.209.089.013.168-.03.209-.124m-1.273-.349s-.03-.168-.123-.209c0 0-.168.03-.209.124 0 0 .03.167.124.208.088.013.167-.03.208-.123m-1.301-.345s-.03-.168-.123-.209c0 0-.168.03-.209.124 0 0 .03.167.124.208.089.013.167-.029.208-.123m-1.273-.35s-.029-.168-.123-.209c0 0-.168.03-.209.124 0 0 .035.196.124.209 0 0 .167-.03.208-.124m-1.3-.345s-.03-.167-.124-.208c0 0-.168.03-.209.123 0 0 .035.196.124.209 0 0 .196-.035.209-.124m-1.273-.349s-.03-.168-.124-.209c0 0-.168.03-.208.124 0 0 .034.195.123.208 0 0 .168-.03.209-.123m-1.296-.317s-.03-.168-.124-.209c0 0-.167.03-.208.124 0 0 .03.167.123.208.089.013.168-.03.209-.123M273.094 348.246c7.943 3.169 18.908 6.634 32.567 10.341-.117.309-.217.557-.34.839l-.033-.023c-.089-.013-.196.035-.209.123-.013.089.03.168.124.209-.3.745-.614 1.406-.888 1.974a.6.6 0 0 1-.243-.072 11 11 0 0 1-.604-.152c-15.415-3.855-25.084-7.811-31.148-11.112.217-.557.489-1.298.797-2.159zm30.893 10.812s-.167.03-.208.124c-.013.088.029.167.123.208.089.013.196-.035.209-.123.013-.089-.035-.196-.124-.209m-1.273-.35s-.167.03-.208.124c-.013.089.03.167.123.208.089.013.196-.034.209-.123s-.035-.196-.124-.209m-1.278-.377s-.167.029-.208.123c-.013.089.03.168.123.209.089.013.168-.03.209-.124.013-.089-.035-.195-.124-.208m-1.277-.378s-.168.03-.209.123c-.013.089.03.168.124.209.088.013.167-.03.208-.124.013-.088-.03-.167-.123-.208m-1.278-.378s-.196.035-.209.124.03.167.124.208c.093.041.167-.03.213-.095.013-.089-.03-.168-.123-.209zm-1.273-.35s-.168.03-.209.124c-.013.089.03.168.124.209s.167-.03.213-.096c.013-.089-.034-.196-.123-.209zm-1.306-.372s-.168.03-.214.095c-.013.089.035.196.124.209s.168-.03.209-.124c.013-.088-.03-.167-.124-.208zm-1.255-.411s-.168.03-.208.124c-.041.093.029.167.123.208s.168-.03.214-.095c0 0-.03-.168-.124-.209zm-1.278-.378s-.167.03-.213.096a.22.22 0 0 0 .095.214c.089.013.196-.035.209-.124s-.03-.168-.124-.209zm-1.278-.377s-.167.03-.208.123a.22.22 0 0 0 .096.214c.088.013.195-.035.213-.096 0 0-.035-.195-.124-.208zm-1.282-.406s-.196.035-.214.096a.22.22 0 0 0 .096.213c.088.013.195-.034.208-.123a.22.22 0 0 0-.095-.214zm-1.255-.41s-.196.034-.214.095c-.013.089.035.196.124.209a.22.22 0 0 0 .213-.096s-.035-.195-.095-.213zm-1.283-.406s-.168.03-.209.124a.22.22 0 0 0 .096.213c.089.013.196-.035.209-.124a.22.22 0 0 0-.096-.213m-1.255-.411s-.168.03-.214.096c-.013.089.035.196.096.214.094.04.196-.035.214-.096 0 0-.03-.168-.096-.214m-1.283-.405s-.168.03-.213.095c-.013.089.029.168.123.209a.22.22 0 0 0 .214-.096s-.03-.167-.096-.213zm-1.255-.411s-.195.035-.213.096c-.041.094.03.167.095.213 0 0 .168-.03.214-.095 0 0-.035-.196-.096-.214m-1.26-.438s-.195.034-.213.095c-.041.094.03.168.095.214.094.041.168-.03.214-.096 0 0-.03-.168-.096-.213m-1.255-.411s-.167.03-.213.096a.22.22 0 0 0 .096.213c.093.041.167-.03.213-.096 0 0-.03-.167-.096-.213m-1.259-.439s-.196.035-.214.096c-.013.089.035.196.096.214.093.041.195-.035.213-.096 0 0-.03-.168-.095-.214m-1.26-.438s-.196.035-.214.096c-.041.093.03.167.096.213.094.041.195-.035.213-.096a.22.22 0 0 0-.095-.213m-1.265-.467s-.168.03-.214.096c-.041.094.035.196.096.214a.22.22 0 0 0 .214-.096s-.03-.168-.096-.214m-1.237-.471s-.168.03-.214.096c-.041.093.03.167.096.213.094.041.168-.03.214-.096 0 0-.03-.167-.096-.213m-1.265-.467s-.168.03-.213.096c-.041.094.029.168.095.214.094.041.168-.03.214-.096a.22.22 0 0 0-.096-.214m-1.237-.471s-.167.03-.213.096c-.041.093.029.167.095.213.094.041.168-.03.214-.095a.22.22 0 0 0-.096-.214m-1.237-.471s-.167.029-.213.095c-.041.094.03.168.095.214.094.041.173-.002.214-.096a.22.22 0 0 0-.096-.213"/><path fill="#232826" d="M273.351 347.567s-.072.244-.136.37c7.938 3.14 18.88 6.639 32.573 10.368.123-.281.213-.585.331-.894l-.244-.072c-.21-.049-.421-.098-.603-.152-15.552-3.975-25.554-7.209-31.921-9.62M305.735 358.635l.085-.333-.056.01c-.041.094-.077.216-.118.31 0 0 .056-.01.061.018zM305.391 359.616s-.024-.14-.09-.186l-.123.282c.089.013.167-.03.208-.124zM335.812 366.162a639 639 0 0 0 20.741 3.656c-.271.423-.602.828-.9.938-7.54-.905-14.168-2.03-20.57-3.023.237-.445.46-.975.729-1.571m.027.803s-.035-.196-.123-.209c-.089-.013-.168.03-.181.119-.013.088.03.167.124.208 0 0 .167-.03.18-.118m1.314.256s-.035-.196-.124-.209c-.088-.013-.167.03-.208.124-.013.088.03.167.146.175.089.013.168-.03.181-.118zm1.309.228s-.035-.196-.124-.209c-.088-.013-.167.03-.208.124-.013.088.03.167.123.208.089.013.168-.03.181-.118zm1.309.228s-.035-.196-.124-.209c-.084.015-.167.03-.175.147-.013.088.029.167.118.18s.168-.03.181-.118m1.337.223s-.035-.196-.152-.204c-.089-.013-.168.03-.176.147-.013.088.03.167.147.175.089.013.168-.03.181-.118m1.308.228s-.034-.196-.123-.209-.196.035-.209.124.03.167.124.208c.089.013.167-.029.18-.118zm1.309.228s-.035-.196-.123-.209c-.084.015-.168.03-.204.152-.013.089.03.167.147.175.088.013.167-.029.18-.118m11.535 1.808s.029.167.146.175c.089.013.168-.03.181-.118 0 0-.035-.196-.152-.204-.089-.013-.195.035-.175.147m-1.332-.195s.03.167.146.175c.089.013.168-.03.181-.118 0 0-.035-.196-.124-.209-.083.015-.195.035-.175.147zm-1.304-.201s.03.168.147.176c.088.013.167-.03.18-.119 0 0-.03-.167-.146-.175-.089-.013-.168.03-.176.146zm-1.332-.195s.03.168.147.176c.088.013.167-.03.18-.119 0 0-.034-.195-.123-.208-.084.015-.196.035-.176.146zm-1.304-.2s.03.168.124.209c.084-.015.167-.03.181-.119s-.03-.167-.147-.176c-.089-.013-.196.035-.176.147zm-1.309-.228s.03.168.147.176c.089.013.168-.03.181-.119 0 0-.035-.195-.152-.203-.089-.013-.168.029-.176.146m-1.331-.195s.029.168.146.176c.089.013.168-.03.181-.119s-.03-.168-.147-.176c-.089-.013-.167.03-.175.147zm-1.309-.228s.03.168.123.209c.089.013.168-.03.181-.119 0 0-.035-.196-.152-.204-.088-.013-.167.03-.175.147zm-1.337-.223s.03.168.152.204c.088.013.167-.03.18-.119 0 0-.035-.196-.151-.204-.089-.013-.168.03-.209.124zM357.142 368.762l-.659-.142a1185 1185 0 0 1-19.996-4.163c-.171.492-.353.928-.535 1.364a541 541 0 0 0 20.797 3.645c.248-.39.388-.732.388-.732z"/><path fill="#232826" d="M307.076 354.675c-.788 3.022-1.997 6.264-3.825 9.27l-.291-.178c5.425-8.864 5.31-20.027 5.295-20.111l.345-.004s.066 5.061-1.519 11.051zM273.339 345.554c-.502 1.877-1.174 3.927-2.095 5.878l-.314-.145c2.698-5.727 3.309-12.494 3.299-12.55l.322.029s-.26 3.073-1.24 6.793zM336.593 362.302c-.6 2.298-1.543 4.771-3.043 7.028l-.292-.179c4.349-6.655 4.035-15.217 4.02-15.301l.345-.004s.151 3.922-1.058 8.461z"/><path fill="#232826" d="M358.161 362.499c-63.658-29.706-86.749-25.19-93.705-21.846-.719.329-1.24.97-1.445 1.756a2.65 2.65 0 0 0 .398 2.235c4.414 6.333 22.27 21.628 92.313 27.138.172-.002 1.609-.027 2.728-4.262s-.139-4.99-.294-5.049zm-2.394 8.728c-69.781-5.499-87.496-20.647-91.895-26.896a2.18 2.18 0 0 1-.314-1.76 2.14 2.14 0 0 1 1.137-1.385c6.878-3.3 29.777-7.753 93.188 21.853 0 0 .977.633-.026 4.385-1.004 3.753-2.118 3.808-2.118 3.808z"/><path fill="url(#d)" d="M63.338 342.172c12.45 17.786 65.49 65.553 281.23 82.525 0 0 4.113.276 7.43-12.334 3.322-12.582-.403-14.398-.403-14.398-196.097-91.491-265.785-76.081-285.388-66.709-4.116 1.972-5.495 7.175-2.869 10.916"/><path fill="url(#e)" d="M96.124 324.456c-1.39 18.896-9.64 37.314-10.085 38.373-12.526-8.347-19.19-15.663-22.675-20.663-2.598-3.745-1.22-8.949 2.87-10.916 5.499-2.623 14.893-5.708 29.89-6.794"/><path fill="#232826" d="M348.906 416.199s-1.745 4.605-3.568 5.535c-23.054-2.725-44.239-5.638-63.741-8.65 1.296-2.594 2.798-5.975 4.251-9.952a3768 3768 0 0 0 61.057 12.674zM196.592 369.713c-4.804 18.178-12.463 31.331-12.567 31.552l-.352-.197c.178-.291 17.373-29.814 16.236-61.605l.401-.014c.375 10.684-1.309 21.13-3.713 30.292zM93.256 343.154c-2.996 11.343-6.83 19.75-6.894 19.877l-.375-.164c.082-.187 8.685-19.042 10.13-38.439l.411.042c-.483 6.514-1.782 12.971-3.273 18.684M286.549 393.816c-3.639 13.878-9.817 23.856-9.909 23.988l-.357-.225c.133-.225 13.937-22.572 12.369-46.908l.401-.014c.539 8.205-.664 16.173-2.504 23.159"/><path fill="url(#f)" d="M89.874 360.1A163 163 0 0 0 93 351.444c19.528 7.359 50.051 17.228 97.494 29.357.603.152 1.239.327 1.843.479l.36.08a139 139 0 0 1-5.489 13.199c-.271-.067-.15-.031-.388-.075-.631-.147-1.268-.322-1.899-.469-47.028-11.742-76.587-23.8-95.076-33.91zm95.985 33.028s-.229.012-.27.105c-.041.094-.016.234.106.27.094.041.234.016.269-.106l-.004-.028a.23.23 0 0 0-.129-.236zm.716-1.482s-.229.011-.27.105a.22.22 0 0 0 .106.27c.099.068.229-.012.269-.106a.27.27 0 0 0-.1-.242zm.655-1.501s-.229.012-.269.106.011.228.105.269.229-.012.27-.105c0 0-.04-.224-.134-.265zm.65-1.528s-.228.012-.269.106a.22.22 0 0 0 .105.269c.094.041.229-.012.27-.105a.23.23 0 0 0-.129-.237zm.65-1.528s-.228.012-.269.106c-.041.093.012.228.106.269.093.041.228-.012.269-.106 0 0-.04-.223-.134-.264zm2.232-5.759s.223-.039.264-.133-.04-.224-.133-.265c-.122-.036-.224.04-.265.134s.012.228.134.264m-.562 1.542s.224-.04.27-.106c0 0-.04-.224-.134-.265-.122-.036-.223.04-.264.134s.039.224.133.264zm-.589 1.546s.228-.012.269-.106c0 0-.039-.223-.133-.264-.122-.036-.224.039-.27.105a.22.22 0 0 0 .106.27zm-.622 1.523s.228-.012.269-.106c0 0-.04-.223-.133-.264-.094-.041-.229.012-.27.105a.22.22 0 0 0 .106.27z"/><path fill="#232826" d="M195.338 365.267s.04.223.161.259c.117.008.224-.04.232-.156 0 0-.04-.224-.161-.26-.122-.036-.224.04-.26.162zM192.25 376.395s.04.224.134.265c.122.036.224-.04.265-.134 0 0-.04-.224-.134-.265-.122-.036-.224.04-.265.134M194.961 366.863s.04.224.162.26c.094.041.224-.04.232-.156 0 0-.04-.224-.162-.26s-.224.04-.26.161zM194.056 370.54s.04.224.162.26.224-.04.265-.133c.036-.122-.04-.224-.162-.26s-.223.04-.265.133M194.55 368.463s.04.224.162.26.224-.04.26-.162-.04-.223-.162-.26c-.122-.036-.224.04-.265.134zM192.742 374.811s.04.224.134.265c.122.036.224-.04.265-.134.036-.122-.04-.224-.134-.265-.122-.036-.224.04-.265.134M191.749 377.955s.04.224.134.265c.122.036.224-.04.265-.134 0 0-.04-.224-.134-.265-.122-.036-.224.04-.265.134M183.408 397.657s-.016.234.078.275.234.016.275-.078c0 0-.04-.223-.106-.269-.094-.041-.234-.016-.275.077zM181.849 400.558s-.021.206.05.28c.099.069.234.016.28-.05l-.01-.056s.026-.178-.045-.252c-.099-.068-.234-.016-.28.05zM184.16 396.198s-.016.234.078.275.234.016.275-.078l-.01-.056s-.007-.201-.101-.242-.234-.016-.275.078zM191.214 379.489s.04.224.134.265c.121.036.223-.04.264-.134 0 0-.039-.224-.133-.265-.122-.036-.224.04-.265.134M184.904 394.712s-.016.234.078.275.234.016.27-.106c0 0-.04-.224-.106-.27-.099-.069-.234-.016-.275.078zM182.634 399.12s-.016.234.078.275c.099.069.206.021.275-.078l-.005-.028a.27.27 0 0 0-.101-.242c-.099-.069-.234-.016-.275.078zM198.076 344.083s.096.214.213.222c.112-.02.195-.035.204-.152l-.01-.055c-.02-.112-.096-.214-.213-.222-.112.02-.214.095-.222.212zM198.029 345.735s.095.214.212.222c.084-.015.191-.063.204-.152-.025-.14-.101-.242-.217-.25-.112.02-.214.096-.222.213zM197.952 347.391s.096.214.185.227c.084-.015.196-.035.204-.152-.025-.14-.101-.242-.19-.255-.117-.008-.219.068-.227.185zM197.836 349.03s.068.219.185.227c.084-.015.196-.035.204-.152-.025-.14-.073-.247-.19-.255s-.219.068-.227.185zM198.105 340.823s.096.214.208.194c.084-.015.191-.063.204-.152l-.01-.056c-.02-.112-.096-.214-.213-.222-.112.02-.214.096-.194.208zM198.066 339.158s.096.214.208.194a.26.26 0 0 0 .204-.152l-.01-.056c-.02-.112-.096-.214-.208-.194s-.214.096-.194.208M198.105 342.465s.096.214.213.222a.26.26 0 0 0 .204-.152l-.01-.056s-.068-.219-.185-.227c-.112.02-.213.096-.222.213M195.691 363.679s.04.224.162.26c.117.008.224-.04.232-.157 0 0-.04-.224-.162-.26-.117-.008-.224.04-.232.157M197.694 350.666s.068.218.185.226c.084-.015.196-.034.232-.156l-.005-.028c.008-.117-.068-.219-.185-.227s-.219.068-.227.185M196.896 357.178s.039.224.184.227c.117.008.224-.04.232-.157s-.04-.224-.157-.232-.223.04-.231.157zM197.13 355.581s.04.224.185.227c.116.008.195-.035.231-.157 0 0-.044-.252-.189-.255-.117-.008-.224.04-.227.185M197.351 353.928s.068.218.185.227a.21.21 0 0 0 .231-.157s-.044-.252-.189-.255c-.117-.008-.224.04-.227.185M197.552 352.304s.068.219.185.227c.083-.015.195-.035.203-.152 0 0-.072-.247-.189-.255s-.219.068-.227.185zM196.03 362.059s.04.223.157.231.224-.039.232-.156c0 0-.04-.224-.162-.26-.117-.008-.224.04-.232.157zM196.324 360.45s.04.224.157.232.224-.04.232-.157c0 0-.04-.224-.162-.26-.117-.008-.224.04-.232.157zM196.637 358.811s.04.224.157.232.223-.04.231-.156c0 0-.039-.224-.161-.26-.117-.008-.224.04-.232.156zM281.966 402.384l-.015-.084c.388.075.809.173 1.197.248.878.074-1.91 6.105-2.948 8.365-.338.695-.885 1.83-1.007 1.794-.682-.109-1.748-.265-2.397-.352-34.141-5.419-62.963-11.238-87.252-17.173 1.641-3.405 3.579-7.901 5.489-13.199 24.24 6.145 52.736 12.887 86.259 20.175.122.036.238.044.332.085 0 0-.028.005-.051.038-.041.094.04.223.134.264.122.036.223-.039.269-.105zm-4.016 8.844s-.229.011-.27.105c-.069.099-.016.234.078.275s.233.016.269-.106c0 0-.039-.224-.105-.269zm.716-1.483s-.229.012-.27.106a.22.22 0 0 0 .106.269c.094.041.233.016.269-.105a.27.27 0 0 0-.1-.242zm.683-1.505s-.229.012-.27.106a.22.22 0 0 0 .106.269c.094.041.229-.012.269-.105 0 0-.039-.224-.133-.265zm.655-1.5s-.229.012-.269.106c-.041.093.011.228.105.269a.22.22 0 0 0 .27-.106s-.04-.223-.106-.269m.65-1.528s-.228.012-.269.105c-.041.094.012.229.105.27a.22.22 0 0 0 .27-.106s-.04-.223-.134-.264zm.622-1.523s-.228.011-.269.105a.22.22 0 0 0 .106.27c.093.041.228-.012.264-.134a.22.22 0 0 0-.106-.269zM282.688 399.143s.04.224.134.265c.122.036.224-.04.265-.134 0 0-.04-.224-.134-.265s-.224.04-.265.134M282.132 400.71s.039.224.133.265c.122.036.224-.04.265-.134 0 0-.04-.224-.134-.265-.122-.036-.223.04-.264.134M283.657 396.028s.04.224.134.265c.122.036.224-.04.265-.134s-.04-.224-.134-.265c-.122-.036-.224.04-.265.134M283.184 397.584s.04.223.133.264c.122.036.224-.039.265-.133 0 0-.04-.224-.134-.265-.093-.041-.223.04-.264.134M284.124 394.419s.04.224.134.265c.121.036.223-.04.259-.162.036-.121-.039-.223-.133-.264-.122-.036-.224.039-.265.133zM276.936 412.821s-.016.234.078.275c.093.041.233.016.274-.078 0 0-.04-.224-.105-.27-.094-.041-.234-.016-.27.106zM284.533 392.848s.04.224.162.26.224-.04.26-.162c.041-.093-.04-.223-.157-.231s-.224.039-.26.161zM275.404 415.718s-.016.234.078.275c.098.069.233.016.279-.05l.018-.061c.013-.089-.03-.168-.1-.242-.094-.041-.234-.016-.275.078M276.183 414.253s-.017.233.077.274c.099.069.234.017.275-.077l-.005-.028a.27.27 0 0 0-.101-.242c-.094-.041-.233-.016-.274.078zM274.566 417.132s-.049.211.05.28.211.049.28-.05c0 0-.005-.028.018-.061a.22.22 0 0 0-.096-.213c-.099-.069-.234-.016-.308.054zM286.811 379.905s.067.218.184.226c.084-.014.196-.034.232-.156l-.005-.028c.008-.117-.068-.219-.185-.227s-.218.068-.226.185M286.918 378.24s.096.214.185.227c.111-.02.195-.035.203-.152l-.005-.028c.008-.117-.067-.219-.184-.227s-.219.068-.227.185zM287.004 376.611s.096.214.213.222c.112-.02.196-.035.204-.152l-.005-.028c-.02-.112-.096-.214-.213-.222-.112.02-.214.096-.222.213zM287.146 371.915s.096.213.208.193c.084-.014.163-.057.176-.146l-.01-.056c-.02-.112-.091-.186-.208-.194-.112.02-.214.096-.194.208zM286.639 381.519s.068.218.185.226c.084-.015.196-.034.232-.156 0 0-.073-.247-.19-.255s-.219.068-.227.185M286.212 384.795s.04.224.184.227c.084-.015.196-.035.232-.157 0 0-.044-.251-.189-.255-.117-.008-.224.04-.232.157zM285.638 388.039s.039.224.156.232.224-.04.232-.156c0 0-.04-.224-.162-.26-.116-.008-.223.04-.231.156zM285.947 386.4s.04.224.156.232c.117.008.224-.04.232-.157 0 0-.04-.224-.161-.26-.117-.008-.224.04-.232.157zM285.316 389.623s.039.224.156.232.224-.04.232-.157c0 0-.04-.224-.162-.26-.093-.041-.223.04-.259.162zM284.939 391.247s.04.224.162.26c.117.008.224-.04.26-.162s-.04-.224-.162-.26c-.117-.008-.223.04-.26.162M286.444 383.168s.04.224.185.227c.117.008.196-.035.232-.157 0 0-.073-.246-.19-.255-.117-.008-.219.068-.227.185M194.933 374.971c-43.014-11.218-77.597-20.738-102.791-28.357l.13-.398c25.194 7.619 59.778 17.139 102.792 28.357l-.103.393zM351.543 414.032l-3.911-.917a10505 10505 0 0 1-62.355-15.267l.103-.393c19.691 4.88 40.663 9.993 62.355 15.267l3.911.917zM289.054 376.193l-.136.37c-32.158-12.085-62.062-22.035-88.916-29.588l.103-.393c26.854 7.553 56.786 17.498 88.944 29.583zM195.598 373.204s-.04-.223-.161-.259c0 0-.224.039-.26.161 0 0 .04.224.162.26.121.036.223-.04.259-.162m-1.666-.453s-.039-.223-.161-.259c0 0-.224.04-.26.161 0 0 .04.224.162.26s.223-.04.259-.162m-1.534-.36s-.04-.224-.161-.26c0 0-.224.04-.26.162 0 0 .04.223.162.259.121.036.223-.04.259-.161m-1.605-.435s-.04-.224-.161-.26c0 0-.224.04-.26.162 0 0 .04.223.162.259.121.036.223-.039.259-.161m-1.572-.412s-.04-.223-.162-.259c0 0-.223.04-.259.161 0 0 .04.224.161.26.122.036.224-.04.26-.162m-1.6-.407s-.04-.223-.162-.259c0 0-.223.04-.259.161 0 0 .04.224.161.26.122.036.224-.04.26-.162m-1.605-.434s-.04-.224-.162-.26c0 0-.223.04-.259.162 0 0 .04.223.161.259.122.036.224-.04.26-.161m-1.6-.407s-.04-.224-.162-.26c0 0-.223.04-.259.162 0 0 .039.224.161.259s.224-.039.26-.161m-1.573-.412s-.039-.223-.161-.259c0 0-.224.04-.26.161 0 0 .04.224.162.26s.223-.04.259-.162m-1.605-.434s-.039-.224-.161-.26c0 0-.224.04-.26.162 0 0 .04.223.162.259s.223-.04.259-.161m-1.6-.407s-.04-.224-.161-.26c0 0-.224.04-.26.162 0 0 .04.223.162.259s.223-.04.259-.161m-1.605-.435s-.04-.223-.161-.259c0 0-.224.039-.26.161 0 0 .04.224.162.26.121.036.223-.04.259-.162m-1.572-.412s-.04-.223-.161-.259c0 0-.224.04-.26.161 0 0 .04.224.162.26.121.036.223-.04.259-.162m-1.605-.434s-.04-.224-.162-.26c0 0-.223.04-.259.162 0 0 .04.223.161.259.122.036.224-.04.26-.161m-1.6-.407s-.04-.224-.134-.265c0 0-.223.04-.259.162 0 0 .04.223.161.259.122.036.224-.039.26-.161zm-1.577-.44s-.04-.223-.162-.259c0 0-.223.04-.259.161 0 0 .04.224.161.26.122.036.224-.04.26-.162m-1.6-.407s-.04-.223-.162-.259c0 0-.223.04-.259.161 0 0 .039.224.161.26s.224-.04.26-.162m-1.605-.434s-.04-.224-.162-.26c0 0-.223.04-.259.162 0 0 .039.223.161.259 0 0 .224-.04.26-.161m-1.601-.407s-.039-.224-.133-.264c0 0-.224.039-.26.161 0 0 .04.224.134.264.122.036.224-.039.259-.161m-1.577-.44s-.039-.223-.161-.259c0 0-.224.04-.26.161 0 0 .04.224.162.26s.223-.04.259-.162m-1.605-.434s-.04-.224-.161-.26c0 0-.224.04-.26.162 0 0 .04.223.162.259.121.036.223-.04.259-.161m-1.572-.412s-.04-.224-.161-.26c0 0-.224.04-.26.162 0 0 .04.223.162.259.121.036.223-.039.259-.161m-1.605-.435s-.04-.223-.161-.259c0 0-.224.04-.26.161 0 0 .04.224.162.26.121.036.223-.04.259-.162m-1.605-.435s-.04-.223-.162-.259c0 0-.223.04-.259.162 0 0 .04.223.162.259 0 0 .223-.04.264-.134zm-1.577-.439s-.04-.224-.162-.26c0 0-.223.04-.259.162 0 0 .04.223.161.259.122.036.224-.039.26-.161m-1.6-.407s-.04-.223-.162-.259c0 0-.223.039-.259.161 0 0 .04.224.161.26 0 0 .224-.04.26-.162m-1.605-.435s-.04-.223-.162-.259c0 0-.223.04-.259.161 0 0 .04.224.161.26.122.036.224-.04.26-.162m-1.577-.439s-.04-.224-.162-.26c0 0-.223.04-.259.162 0 0 .039.223.161.259s.224-.04.26-.161m-1.606-.435s-.039-.224-.161-.259c0 0-.224.039-.26.161 0 0 .04.224.162.26 0 0 .223-.04.259-.162m-1.577-.44s-.039-.223-.161-.259c0 0-.224.04-.26.161 0 0 .04.224.162.26 0 0 .223-.04.264-.134zm-1.6-.406s-.04-.224-.161-.26c0 0-.224.04-.26.162 0 0 .04.223.162.259 0 0 .223-.04.259-.161m-1.577-.44s-.04-.224-.161-.26c0 0-.224.04-.26.162 0 0 .04.223.162.259.121.036.223-.039.259-.161m-1.605-.435s-.04-.223-.161-.259c0 0-.224.04-.26.161 0 0 .04.224.162.26.121.036.223-.04.259-.162m-1.577-.439s-.04-.224-.134-.265c0 0-.223.04-.259.162 0 0 .04.223.161.259.122.036.224-.04.265-.134zm-1.605-.435s-.04-.224-.134-.265c0 0-.223.04-.259.162 0 0 .04.223.161.259.122.036.224-.039.265-.133zm-1.577-.44s-.04-.223-.162-.259c0 0-.223.039-.259.161 0 0 .04.224.161.26 0 0 .224-.04.26-.162m-1.605-.435s-.04-.223-.134-.264c0 0-.223.04-.264.134 0 0 .039.223.161.259 0 0 .224-.04.26-.161zm-1.577-.439s-.04-.224-.129-.237c0 0-.224.04-.265.134 0 0 .04.223.134.264 0 0 .224-.04.26-.161m-1.606-.435s-.039-.223-.133-.264c0 0-.224.039-.265.133 0 0 .04.224.162.26 0 0 .223-.04.259-.162zm-1.577-.44s-.04-.223-.133-.264c0 0-.224.04-.265.134 0 0 .04.223.134.264 0 0 .223-.04.259-.162zm-1.605-.434s-.04-.224-.133-.265c0 0-.224.04-.265.134 0 0 .04.223.162.259 0 0 .223-.04.259-.161zm-1.582-.468s-.04-.223-.133-.264c0 0-.224.039-.265.133 0 0 .04.224.162.26.121.036.223-.04.259-.162zm-1.577-.44s-.04-.223-.134-.264c0 0-.223.04-.264.134 0 0 .04.223.161.259 0 0 .224-.04.265-.134zm-1.577-.439s-.04-.224-.162-.26c0 0-.223.04-.264.134 0 0 .04.223.161.259 0 0 .224-.039.265-.133m-1.605-.435s-.04-.223-.162-.259c0 0-.223.039-.264.133 0 0 .04.224.161.26 0 0 .224-.04.265-.134m-1.577-.44s-.04-.223-.162-.259c0 0-.223.04-.264.133 0 0 .039.224.133.265 0 0 .224-.04.265-.134zm-1.582-.467s-.04-.224-.162-.26c0 0-.223.04-.259.162 0 0 .039.223.133.264 0 0 .224-.04.265-.133zm-1.606-.435s-.039-.223-.161-.259c0 0-.224.039-.264.133 0 0 .039.224.133.265 0 0 .224-.04.265-.134zm-1.582-.468s-.039-.223-.161-.259c0 0-.224.04-.265.134 0 0 .04.223.134.264 0 0 .223-.04.264-.134zm-1.577-.439s-.04-.224-.161-.26c0 0-.224.04-.265.134 0 0 .04.223.134.264 0 0 .223-.039.264-.133zm-1.61-.463s-.04-.223-.161-.259c0 0-.224.04-.265.133 0 0 .04.224.134.265 0 0 .223-.04.264-.134zm-1.577-.44s-.04-.223-.161-.259c0 0-.224.04-.265.134 0 0 .04.223.134.264 0 0 .223-.04.264-.134zm-1.582-.467s-.04-.224-.162-.26c0 0-.223.04-.259.162 0 0 .04.223.134.264 0 0 .223-.039.264-.133zm-1.577-.44s-.04-.223-.134-.264c0 0-.223.04-.264.133 0 0 .04.224.133.265 0 0 .224-.04.265-.134m-1.582-.467s-.04-.224-.134-.265c0 0-.223.04-.264.134 0 0 .039.223.133.264 0 0 .224-.04.265-.133m-1.61-.463s-.04-.224-.134-.264c0 0-.223.039-.264.133 0 0 .039.224.133.265 0 0 .224-.04.265-.134m-1.582-.468s-.04-.223-.134-.264c0 0-.224.04-.264.133 0 0 .039.224.161.26 0 0 .224-.04.264-.134zm-1.578-.439s-.039-.224-.133-.265c0 0-.224.04-.265.134 0 0 .04.223.134.264 0 0 .223-.04.264-.133m-1.582-.468s-.04-.223-.161-.259c0 0-.224.039-.265.133 0 0 .04.224.162.26 0 0 .223-.04.264-.134m-1.582-.468s-.04-.223-.161-.259c0 0-.224.04-.265.134 0 0 .04.223.134.264 0 0 .223-.04.264-.134zm-1.582-.467s-.04-.224-.162-.26c0 0-.223.04-.264.134 0 0 .04.223.134.264 0 0 .223-.039.264-.133zm-1.582-.468s-.04-.223-.134-.264c0 0-.223.04-.264.133 0 0 .04.224.133.265 0 0 .224-.04.265-.134m-1.582-.467s-.04-.224-.134-.265c0 0-.223.04-.264.134 0 0 .04.223.133.264 0 0 .224-.04.265-.133m-1.56-.501s-.04-.223-.128-.236c0 0-.223.039-.264.133 0 0 .04.224.133.265 0 0 .224-.04.265-.134zm-1.581-.468s-.04-.223-.134-.264c0 0-.224.04-.264.134 0 0 .04.223.133.264 0 0 .224-.04.265-.134M351.522 412.129s-.04-.223-.161-.259c0 0-.224.04-.26.161 0 0 .04.224.162.26.121.036.223-.04.231-.157zm-1.595-.378s-.04-.224-.161-.26c0 0-.224.04-.26.162 0 0 .04.223.157.231s.223-.04.259-.161zm-1.623-.374s-.04-.224-.161-.26c0 0-.224.04-.232.157 0 0 .04.223.157.231.121.036.223-.039.231-.156zm-1.6-.407s-.04-.223-.162-.259c0 0-.223.039-.231.156 0 0 .04.224.156.232.122.036.224-.04.26-.162zm-1.595-.379s-.04-.223-.162-.259c0 0-.223.04-.259.161 0 0 .04.224.156.232.122.036.224-.04.26-.162zm-1.595-.379s-.04-.223-.162-.259c0 0-.223.04-.259.161 0 0 .04.224.156.232.117.008.224-.04.26-.162zm-1.628-.401s-.04-.224-.162-.26c0 0-.223.04-.259.162 0 0 .04.223.161.259.094.041.224-.04.232-.156zm-1.567-.384s-.04-.224-.162-.26c0 0-.223.04-.232.157 0 0 .04.223.162.259s.223-.04.259-.161zm-1.624-.374s-.039-.224-.161-.26c0 0-.224.04-.26.162 0 0 .04.223.162.259s.223-.039.232-.156zm-1.6-.407s-.039-.223-.161-.259c0 0-.224.04-.26.161 0 0 .04.224.162.26 0 0 .223-.04.231-.157zm-1.595-.379s-.04-.223-.161-.259c0 0-.224.04-.232.156 0 0 .04.224.162.26.116.008.223-.04.259-.162zm-1.595-.378s-.04-.224-.161-.26c0 0-.224.04-.26.162 0 0 .04.223.162.259.093.041.223-.04.231-.157zm-1.6-.407s-.04-.224-.161-.26c0 0-.224.04-.232.157 0 0 .04.223.161.259.094.041.224-.04.232-.156m-1.595-.379s-.04-.224-.162-.26c0 0-.223.04-.231.157 0 0 .04.223.161.259 0 0 .224-.039.26-.161zm-1.6-.407s-.04-.223-.157-.231c0 0-.223.039-.259.161 0 0 .04.224.161.26.117.008.224-.04.26-.162zm-1.595-.379s-.04-.223-.162-.259c0 0-.223.04-.259.161 0 0 .04.224.156.232.122.036.224-.04.26-.162zm-1.595-.378s-.04-.224-.162-.26c0 0-.223.04-.231.157 0 0 .039.223.161.259s.224-.04.26-.161zm-1.601-.407s-.039-.224-.161-.26c0 0-.224.04-.259.162 0 0 .039.223.161.259.117.008.224-.04.232-.156zm-1.595-.379s-.039-.224-.161-.26c0 0-.224.04-.26.162 0 0 .04.223.157.232 0 0 .223-.04.259-.162zm-1.595-.379s-.04-.223-.161-.259c0 0-.224.039-.26.161 0 0 .04.224.162.26.094.041.223-.04.231-.157zm-1.6-.407s-.04-.223-.161-.259c0 0-.224.04-.26.161 0 0 .04.224.157.232.121.036.223-.04.259-.162zm-1.595-.378s-.04-.224-.161-.26c0 0-.224.04-.232.157 0 0 .04.223.161.259.122.036.224-.04.26-.161zm-1.6-.407s-.04-.224-.157-.232c0 0-.223.04-.259.162 0 0 .04.223.161.259.094.041.224-.04.232-.156zm-1.595-.379s-.04-.224-.162-.259c0 0-.223.039-.259.161 0 0 .04.224.161.259.122.036.224-.039.26-.161m-1.6-.407s-.04-.223-.162-.259c0 0-.223.04-.259.161 0 0 .04.224.161.26.094.041.224-.04.232-.157zm-1.595-.379s-.04-.223-.162-.259c0 0-.223.04-.259.161 0 0 .039.224.161.26.094.041.224-.04.232-.157zm-1.6-.406s-.04-.224-.162-.26c0 0-.224.04-.259.162 0 0 .039.223.156.231s.224-.04.26-.161zm-1.596-.379s-.039-.224-.161-.26c0 0-.224.04-.232.157 0 0 .04.223.162.259s.223-.039.259-.161zm-1.6-.407s-.04-.223-.161-.259c0 0-.224.039-.26.161 0 0 .04.224.157.232 0 0 .223-.04.259-.162zm-1.595-.379s-.04-.223-.161-.259c0 0-.224.04-.26.161 0 0 .04.224.157.232.121.036.223-.04.259-.162zm-1.628-.402s-.04-.223-.161-.259c0 0-.224.04-.232.157 0 0 .04.223.162.259 0 0 .223-.04.259-.162zm-1.595-.378s-.04-.224-.161-.26c0 0-.224.04-.26.162 0 0 .04.223.162.259.121.036.223-.04.259-.161m-1.6-.407s-.04-.224-.162-.26c0 0-.223.04-.259.162 0 0 .04.223.156.231.122.036.224-.039.26-.161zm-1.595-.379s-.04-.223-.162-.259c0 0-.223.039-.259.161 0 0 .04.224.156.232.122.036.224-.04.26-.162zm-1.6-.407s-.04-.223-.157-.231c0 0-.223.04-.259.161 0 0 .04.224.161.26.117.008.224-.04.26-.162zm-1.6-.406s-.04-.224-.162-.26c0 0-.223.04-.231.157 0 0 .039.223.161.259s.224-.04.26-.161zm-1.595-.379s-.04-.224-.162-.26c0 0-.224.04-.259.162 0 0 .039.223.161.259s.224-.04.26-.161m-1.601-.407s-.039-.224-.161-.26c0 0-.224.04-.26.162 0 0 .04.223.162.259s.223-.039.259-.161m-1.623-.374s-.039-.223-.161-.259c0 0-.224.039-.26.161 0 0 .04.224.162.26s.223-.04.259-.162m-1.6-.407s-.04-.223-.161-.259c0 0-.224.04-.26.161 0 0 .04.224.162.26.121.036.223-.04.259-.162m-1.6-.406s-.04-.224-.161-.26c0 0-.224.04-.26.162 0 0 .04.223.162.259.093.041.223-.04.231-.156zm-1.595-.379s-.04-.224-.161-.26c0 0-.224.04-.26.162 0 0 .04.223.162.259.121.036.223-.04.259-.161M287.549 374.032s-.035-.196-.129-.237c0 0-.223.04-.264.134 0 0 .012.228.106.269 0 0 .223-.04.269-.106zm-1.541-.562s-.035-.195-.129-.236c0 0-.223.039-.264.133 0 0 .04.224.133.265 0 0 .224-.04.27-.106zm-1.569-.556s-.04-.224-.129-.237c0 0-.228.012-.269.106 0 0 .039.223.105.269 0 0 .224-.04.265-.133zm-1.546-.59s-.035-.195-.129-.236c0 0-.224.04-.264.133 0 0 .039.224.133.265 0 0 .224-.04.269-.106zm-1.542-.561s-.039-.223-.128-.236c0 0-.224.039-.27.105 0 0 .012.229.106.27 0 0 .223-.04.264-.134zm-1.546-.589s-.04-.224-.128-.237c0 0-.224.04-.27.106 0 0 .012.228.106.269 0 0 .223-.04.264-.133zm-1.541-.562s-.04-.223-.129-.236c0 0-.223.04-.264.133 0 0 .04.224.134.265 0 0 .223-.04.264-.134zm-1.569-.556s-.04-.224-.129-.237c0 0-.223.04-.269.106 0 0 .04.224.134.265 0 0 .228-.012.269-.106zm-1.541-.561s-.035-.196-.129-.237c0 0-.223.04-.264.134 0 0 .04.223.133.264 0 0 .224-.04.265-.133zm-1.546-.59s-.04-.223-.129-.236c0 0-.223.04-.264.133 0 0 .039.224.133.265 0 0 .224-.04.27-.106zm-1.541-.561s-.035-.196-.129-.237c0 0-.224.04-.265.134 0 0 .04.223.134.264 0 0 .224-.039.264-.133zm-1.57-.556s-.034-.196-.128-.237c0 0-.224.04-.265.134 0 0 .04.223.106.269 0 0 .224-.04.264-.134zm-1.541-.562s-.035-.195-.128-.236c0 0-.224.039-.265.133 0 0 .04.224.134.265 0 0 .223-.04.264-.134zm-1.564-.528s-.035-.196-.128-.237c0 0-.224.04-.265.134 0 0 .04.223.134.264 0 0 .223-.04.264-.133zm-1.541-.562s-.035-.195-.129-.236c0 0-.223.04-.264.133 0 0 .04.224.133.265 0 0 .224-.04.265-.134zm-1.569-.556s-.035-.196-.129-.237c0 0-.223.04-.264.134 0 0 .04.223.133.264 0 0 .224-.039.265-.133zm-1.536-.534s-.04-.223-.129-.236c0 0-.223.04-.264.134 0 0 .039.223.133.264 0 0 .224-.04.265-.134zm-1.569-.556s-.04-.223-.129-.236c0 0-.224.039-.264.133 0 0 .039.224.133.265 0 0 .224-.04.265-.134zm-1.57-.556s-.039-.224-.128-.237c0 0-.224.04-.265.134 0 0 .04.223.134.264 0 0 .223-.04.264-.133zm-1.536-.534s-.04-.223-.128-.236c0 0-.224.04-.265.133 0 0 .04.224.134.265 0 0 .223-.04.264-.134zm-1.564-.528s-.04-.224-.133-.265c0 0-.224.04-.265.134 0 0 .04.223.134.264 0 0 .223-.039.264-.133m-1.569-.557s-.04-.223-.129-.236c0 0-.223.04-.264.133 0 0 .04.224.134.265 0 0 .223-.04.264-.134zm-1.536-.533s-.04-.224-.129-.237c0 0-.223.04-.264.134 0 0 .04.224.133.264 0 0 .224-.039.265-.133zm-1.592-.524s-.04-.223-.129-.236c0 0-.223.04-.264.134 0 0 .04.223.133.264 0 0 .224-.04.265-.134zm-1.536-.533s-.04-.223-.134-.264c0 0-.223.039-.264.133 0 0 .039.224.133.265 0 0 .224-.04.265-.134m-1.565-.528s-.039-.224-.128-.237c0 0-.224.04-.265.134 0 0 .04.223.134.264 0 0 .224-.04.264-.133zm-1.564-.529s-.039-.223-.133-.264c0 0-.224.039-.265.133 0 0 .04.224.134.265 0 0 .223-.04.264-.134m-1.564-.528s-.04-.224-.128-.237c0 0-.224.04-.265.134 0 0 .04.223.134.264 0 0 .223-.04.264-.133zm-1.564-.529s-.04-.223-.128-.236c0 0-.224.039-.265.133 0 0 .04.224.134.265 0 0 .223-.04.264-.134zm-1.564-.528s-.04-.224-.134-.265c0 0-.223.04-.264.134 0 0 .04.223.134.264 0 0 .223-.04.264-.133m-1.587-.496s-.04-.223-.129-.236c0 0-.223.039-.264.133 0 0 .04.224.133.265 0 0 .224-.04.265-.134zm-1.564-.528s-.04-.224-.134-.265c0 0-.223.04-.264.134 0 0 .04.223.133.264 0 0 .224-.04.265-.133m-1.559-.501s-.04-.223-.134-.264c0 0-.223.04-.264.133 0 0 .039.224.133.265 0 0 .224-.04.265-.134m-1.565-.528s-.039-.224-.128-.237c0 0-.224.04-.265.134 0 0 .04.223.134.264 0 0 .224-.04.264-.133zm-1.559-.501s-.039-.223-.133-.264c0 0-.224.04-.265.133 0 0 .04.224.134.265 0 0 .223-.04.264-.134m-1.592-.523s-.04-.224-.133-.265c0 0-.224.04-.265.134 0 0 .04.223.134.264 0 0 .223-.04.264-.133m-1.559-.501s-.04-.223-.128-.236c0 0-.224.04-.265.133 0 0 .04.224.134.265 0 0 .223-.04.264-.134zm-1.587-.495s-.04-.224-.134-.265c0 0-.223.04-.264.134 0 0 .04.223.134.264 0 0 .223-.04.264-.133m-1.559-.501s-.04-.223-.134-.264c0 0-.223.039-.264.133 0 0 .04.224.133.265 0 0 .224-.04.265-.134m-1.587-.495s-.04-.224-.134-.265c0 0-.223.04-.264.134 0 0 .04.223.133.264 0 0 .224-.04.265-.133m-1.554-.473s-.04-.224-.134-.264c0 0-.223.039-.264.133 0 0 .039.224.133.265 0 0 .224-.04.265-.134m-1.587-.496s-.04-.223-.134-.264c0 0-.224.04-.264.134 0 0 .039.223.133.264 0 0 .224-.04.265-.134m-1.56-.5s-.039-.224-.133-.265c0 0-.224.04-.265.134 0 0 .04.224.134.264 0 0 .223-.039.264-.133m-1.587-.496s-.039-.223-.133-.264c0 0-.224.04-.265.134 0 0 .04.223.134.264 0 0 .223-.04.264-.134m-1.582-.467s-.04-.224-.133-.265c0 0-.224.04-.265.134 0 0 .04.223.134.264 0 0 .223-.039.264-.133m-1.587-.496s-.04-.223-.128-.236c0 0-.224.04-.265.133 0 0 .04.224.134.265 0 0 .223-.04.264-.134zm-1.554-.472s-.04-.224-.134-.265c0 0-.223.04-.264.134 0 0 .04.223.134.264 0 0 .223-.04.264-.133m-1.582-.468s-.04-.223-.134-.264c0 0-.223.039-.264.133 0 0 .04.224.133.265 0 0 .224-.04.265-.134m-1.582-.468s-.04-.223-.134-.264c0 0-.223.04-.264.134 0 0 .04.223.133.264 0 0 .224-.04.265-.134m-1.582-.467s-.04-.224-.134-.265c0 0-.223.04-.264.134 0 0 .039.223.133.264 0 0 .224-.039.265-.133m-1.582-.468s-.04-.223-.134-.264c0 0-.224.04-.26.161 0 0 .04.224.134.265 0 0 .224-.04.264-.134zm-1.583-.467s-.039-.224-.161-.26c0 0-.224.04-.26.162 0 0 .04.223.134.264 0 0 .224-.04.264-.134zm-1.582-.468s-.04-.224-.161-.259c0 0-.224.039-.26.161 0 0 .04.224.134.264 0 0 .223-.039.264-.133zm-1.605-.435s-.04-.223-.161-.259c0 0-.224.04-.265.133 0 0 .04.224.134.265 0 0 .223-.04.264-.134zm-1.582-.467s-.04-.224-.161-.26c0 0-.224.04-.265.134 0 0 .04.223.134.264 0 0 .223-.04.264-.133zm-1.577-.44s-.04-.223-.162-.259c0 0-.223.039-.264.133 0 0 .04.224.134.265 0 0 .223-.04.264-.134zM90.779 344.952s.04.224.161.26c.122.036.224-.04.26-.162s-.04-.224-.134-.265c-.121-.036-.224.04-.264.134zM90.343 346.529s.04.224.134.265.224-.04.265-.134c0 0-.04-.224-.162-.26s-.224.04-.265.134zM91.462 343.596a.2.2 0 1 1-.07-.393.2.2 0 0 1 .07.393M91.653 341.743s.04.224.162.26.224-.04.26-.162c.008-.117-.04-.224-.162-.26s-.224.04-.232.157zM85.986 358.952s.012.229.106.27a.22.22 0 0 0 .27-.106s-.04-.224-.106-.27a.22.22 0 0 0-.27.106M84.677 361.979s.012.229.105.27c.094.041.234.016.275-.078l-.005-.028a.27.27 0 0 0-.1-.242.22.22 0 0 0-.27.106zM89.376 349.669s.04.224.133.265c.094.041.224-.04.265-.134 0 0-.04-.224-.134-.265-.121-.036-.223.04-.264.134M85.329 360.478s.012.229.106.27a.22.22 0 0 0 .27-.106s-.04-.224-.106-.27a.22.22 0 0 0-.27.106M92.03 340.147s.04.224.162.26c.094.041.223-.04.231-.157 0 0-.04-.223-.161-.259-.122-.036-.224.039-.26.161zM89.875 348.112s.04.223.134.264c.122.037.224-.039.265-.133 0 0-.04-.224-.134-.265-.122-.036-.224.04-.265.134M93.648 332.075s.04.223.157.231.224-.039.232-.156c0 0-.045-.252-.19-.255-.117-.008-.224.04-.232.157zM93.884 330.479s.04.224.185.227c.117.008.196-.035.232-.156 0 0-.045-.252-.19-.255-.117-.008-.224.04-.227.184M93.362 333.716s.04.224.157.232.224-.04.232-.157c0 0-.04-.224-.162-.26-.117-.008-.224.04-.232.157zM93.07 335.32s.04.224.157.232.224-.04.232-.157c0 0-.04-.224-.162-.26-.117-.008-.224.04-.232.157zM94.448 325.564s.068.218.185.226c.084-.015.196-.034.204-.151 0 0-.073-.247-.19-.255-.112.02-.219.068-.227.185zM94.103 328.823s.068.219.185.227a.21.21 0 0 0 .231-.156s-.072-.247-.19-.255c-.116-.008-.223.04-.226.184M94.308 327.201s.068.219.185.227.196-.035.232-.157c.008-.117-.068-.219-.185-.227s-.219.068-.227.185zM92.41 338.551s.04.224.162.26c.117.008.224-.04.232-.157 0 0-.04-.224-.162-.26-.117-.008-.224.04-.26.162zM92.758 336.933s.04.223.157.232c.122.036.224-.04.232-.157 0 0-.04-.224-.162-.26s-.224.04-.232.157z"/><path fill="url(#g)" d="M74.057 343.606c3.836 1.796 8.64 3.851 14.648 6.182.59.241 1.176.454 1.766.695.622.091-.947 3.742-1.508 5.284-.43 1.143-.906 3.331-1.258 3.135a42 42 0 0 1-1.864-1.081c-6.593-3.84-11.54-7.341-15.283-10.392-3.542-2.569-8.557-8.074-6.968-10.317.763-1.058-.002 1.931 10.462 6.466zm12.79 13.719s-.228.012-.269.106c-.035.121.04.223.106.269.094.041.229-.012.27-.106 0 0-.04-.223-.134-.264zm.618-1.551s-.228.012-.27.106c-.04.093.013.228.106.269a.22.22 0 0 0 .27-.106s-.04-.223-.134-.264zm.561-1.541s-.228.012-.264.133.04.224.134.265c.093.041.228-.012.264-.134 0 0-.04-.223-.133-.264m.557-1.569s-.224.04-.265.133c-.035.122.04.224.134.265.122.036.224-.04.264-.134.036-.122-.04-.223-.133-.264m.528-1.564s-.223.039-.264.133c-.036.122.04.224.134.265.121.036.223-.04.264-.134 0 0-.04-.223-.134-.264"/><path fill="url(#h)" d="M307.416 411.284c.426.126.363.743-.094.766-4.455.073-11.771 1.232-11.808 7.984q-.017.391.05.769c.831 8.873 16.383 16.566 16.383 16.566l-10.208-2.937-34.059-9.815s-2.994-13.245-11.888-19.328c-1.016-.684-.515-2.243.708-2.172 9.257.513 28.614 2.224 50.944 8.162z"/><path fill="url(#i)" d="M234.699 430.091c4.755 6.791 25.043 25.054 107.478 31.528 0 0 1.573.094 2.849-4.716s-.145-5.508-.145-5.508c-74.942-34.96-101.59-29.06-109.058-25.511a2.83 2.83 0 0 0-1.101 4.174z"/><path fill="#232826" d="M344.979 451.147c-74.281-34.646-101.189-29.392-109.314-25.494-.822.405-1.443 1.121-1.657 2.024-.247.88-.078 1.83.457 2.57 5.149 7.384 25.969 25.236 107.704 31.661.177.026 1.842-.011 3.127-4.938s-.135-5.77-.317-5.823m-2.77 10.178c-81.474-6.414-102.147-24.09-107.258-31.424a2.54 2.54 0 0 1-.373-2.095 2.54 2.54 0 0 1 1.349-1.652c8.047-3.855 34.764-9.046 108.796 25.499 0 0 1.17.743-.003 5.16s-2.544 4.489-2.544 4.489z"/><path fill="#232826" d="M245.064 433.26c.238.044-.254 1.486-.467 2.072-.154.431-1.038 2.75-1.165 2.686-.22-.105-1.489-.917-1.681-1.026-2.508-1.456-4.678-4.096-5.117-4.94.819.229 1.53.015 1.808-.207.295-.283.355-.755.359-1.217 1.478.688 3.32 1.484 5.583 2.378.216.077.436.182.68.254M284.293 445.092c-.733 2.033-1.582 3.74-2.188 5.03-.089-.013-1.1 2.56-1.344 2.488-17.979-4.494-29.59-10.294-36.678-14.162.808-1.124 1.515-3.47 1.961-4.846 7.45 2.823 19.127 6.566 37.253 11.235.243.072.481.116.697.193l.271.067zM318.701 453.148c.35.024-.739 2.322-1.131 3.199-.123.281-1.337 2.688-1.616 2.738-.267-.039-24.917-4.123-34.199-6.389 1.371-2.176 2.53-5.38 3.268-7.385 9.268 2.356 20.158 4.913 32.963 7.705.238.044.482.116.72.16zM343.847 458.378s-1.23 3.13-2.435 2.999c-8.806-1.054-16.739-1.255-24.207-2.404.9-1.256 1.984-4.072 2.545-5.613q10.747 2.323 23.344 4.835l.776.15zM319.52 451.415a2830 2830 0 0 1-34.532-8.751l.066-.272c10.308 2.69 21.93 5.635 34.533 8.751zM286.339 437.149l-.067.271c-16.388-4.46-29.722-7.475-39.671-8.959l.034-.295c9.949 1.485 23.311 4.495 39.699 8.955zM345.438 452.91l-.122.282c-8.33-3.561-17.058-7.252-24.391-10.068l.095-.276c7.332 2.816 16.06 6.507 24.395 10.095zM319.877 450.516s-.03-.167-.119-.18c0 0-.167.03-.18.118 0 0 .03.168.118.181.089.013.168-.03.181-.119m-1.118-.29s-.03-.168-.119-.181c0 0-.167.03-.181.119 0 0 .03.167.119.18s.168-.03.181-.118m-1.146-.286s-.03-.168-.119-.181c0 0-.168.03-.181.119 0 0 .03.167.119.18s.168-.029.181-.118m-1.142-.258s-.03-.168-.118-.181c0 0-.168.03-.181.119 0 0 .03.167.119.18.088.013.167-.029.18-.118m-1.118-.291s-.03-.168-.119-.181c0 0-.167.03-.18.119 0 0 .03.168.118.181.089.013.168-.03.181-.119m-1.146-.286s-.03-.167-.119-.18c0 0-.167.029-.18.118 0 0 .029.168.118.181s.168-.03.181-.119m-1.118-.291s-.03-.167-.119-.18c0 0-.168.03-.181.118 0 0 .03.168.119.181s.168-.03.181-.119m-1.147-.285s-.029-.168-.118-.181c0 0-.168.03-.181.119 0 0 .03.167.119.18 0 0 .167-.03.18-.118m-1.146-.286s-.03-.168-.118-.181c0 0-.168.03-.181.119 0 0 .025.139.119.18.093.041.167-.03.18-.118m-1.113-.263s-.03-.168-.119-.181c0 0-.139.025-.18.119 0 0 .029.167.118.18s.168-.029.181-.118m-1.146-.286s-.03-.168-.119-.181c0 0-.168.03-.181.119 0 0 .03.168.119.181s.168-.03.181-.119m-1.119-.291s-.029-.167-.118-.18c0 0-.168.029-.181.118 0 0 .025.14.119.181s.167-.03.18-.119m-1.146-.286s-.03-.167-.118-.18c0 0-.168.03-.181.118 0 0 .03.168.119.181.088.013.167-.03.18-.119m-1.146-.286s-.03-.167-.119-.18c0 0-.167.03-.18.118 0 0 .03.168.118.181.089.013.168-.03.181-.119m-1.118-.29s-.03-.168-.119-.181c0 0-.168.03-.181.119 0 0 .03.167.119.18 0 0 .168-.03.181-.118m-1.146-.286s-.03-.168-.119-.181c0 0-.168.03-.181.119 0 0 .03.167.119.18s.168-.029.181-.118m-1.119-.291s-.03-.168-.118-.181c0 0-.168.03-.181.119 0 0 .03.168.119.181.088.013.167-.03.18-.119m-1.146-.286s-.03-.167-.119-.18c0 0-.167.029-.18.118 0 0 .03.168.118.181.089.013.168-.03.181-.119m-1.118-.291s-.03-.167-.119-.18c0 0-.167.03-.18.118 0 0 .029.168.118.181 0 0 .168-.03.181-.119m-1.146-.286s-.03-.167-.119-.18c0 0-.168.03-.181.118 0 0 .03.168.119.181s.168-.03.181-.119m-1.119-.29s-.03-.168-.118-.181c0 0-.168.03-.181.119 0 0 .025.139.119.18.093.041.167-.03.185-.09zm-1.146-.286s-.03-.168-.119-.181c0 0-.167.03-.18.119 0 0 .03.167.118.18.089.013.168-.029.181-.118m-1.118-.291s-.03-.168-.119-.181c0 0-.167.03-.18.119 0 0 .029.168.118.181 0 0 .168-.03.181-.119m-1.146-.286s-.03-.167-.119-.18c0 0-.168.029-.181.118 0 0 .03.168.119.181s.168-.03.181-.119m-1.119-.291s-.029-.167-.118-.18c0 0-.168.03-.181.118 0 0 .03.168.119.181s.167-.03.18-.119m-1.146-.285s-.03-.168-.118-.181c0 0-.168.03-.181.119 0 0 .03.167.119.18.088.013.167-.03.18-.118m-1.118-.291s-.03-.168-.119-.181c0 0-.167.03-.18.119 0 0 .029.167.118.18s.168-.03.181-.118m-1.146-.286s-.03-.168-.119-.181c0 0-.168.03-.181.119 0 0 .03.167.119.18s.168-.029.181-.118m-1.119-.291s-.029-.168-.118-.181c0 0-.168.03-.181.119 0 0 .03.168.119.181s.167-.03.18-.119m-1.123-.319s-.03-.167-.118-.18c0 0-.168.03-.181.118 0 0 .03.168.119.181.088.013.167-.03.18-.119m-1.146-.286s-.03-.167-.119-.18c0 0-.167.03-.18.118 0 0 .03.168.118.181 0 0 .168-.03.181-.119M286.413 436.447s-.025-.14-.118-.181c0 0-.168.03-.186.091 0 0 .03.167.091.185 0 0 .167-.03.18-.118zm-1.123-.319s-.03-.168-.119-.181c0 0-.167.03-.18.119 0 0 .03.167.118.18.061.018.168-.029.181-.118m-1.118-.291s-.03-.168-.119-.181c0 0-.167.03-.18.119 0 0 .029.168.118.181 0 0 .168-.03.181-.119m-1.151-.314s-.03-.167-.119-.18c0 0-.168.029-.186.09 0 0 .03.168.091.186s.168-.03.181-.119zm-1.119-.291s-.029-.167-.118-.18c0 0-.168.03-.181.118 0 0 .03.168.119.181s.167-.03.18-.119m-1.118-.29s-.03-.168-.119-.181c0 0-.167.03-.18.119 0 0 .03.167.118.18.089.013.168-.03.181-.118m-1.151-.314s-.03-.168-.119-.181c0 0-.167.03-.18.119 0 0 .03.167.118.18.089.013.168-.029.181-.118m-1.118-.291s-.03-.168-.119-.181c0 0-.168.03-.181.119 0 0 .03.168.119.181s.168-.03.181-.119m-1.147-.286s-.029-.167-.118-.18c0 0-.168.029-.181.118 0 0 .03.168.119.181 0 0 .167-.03.185-.091zm-1.118-.291s-.03-.167-.118-.18c0 0-.168.03-.181.118 0 0 .03.168.119.181.088.013.167-.03.18-.119m-1.146-.285s-.03-.168-.119-.181c0 0-.167.03-.18.119 0 0 .03.167.118.18.089.013.168-.03.181-.118m-1.118-.291s-.03-.168-.119-.181c0 0-.168.03-.181.119 0 0 .03.167.119.18s.168-.03.181-.118m-1.141-.258s-.03-.168-.119-.181c0 0-.168.03-.181.119 0 0 .03.167.119.18s.167-.029.181-.118m-1.147-.286s-.03-.168-.118-.181c0 0-.168.03-.181.119 0 0 .03.168.119.181.088.013.167-.03.18-.119m-1.118-.291s-.03-.167-.119-.18c0 0-.167.029-.18.118 0 0 .03.168.118.181.061.018.168-.03.181-.119m-1.141-.258s-.03-.167-.119-.18c0 0-.167.029-.18.118 0 0 .029.168.118.181.061.018.14-.025.181-.119m-1.146-.286s-.03-.167-.119-.18c0 0-.168.03-.181.118 0 0 .03.168.119.181 0 0 .14-.025.181-.119m-1.142-.258s-.029-.167-.118-.18c0 0-.168.03-.181.119 0 0 .03.167.119.18.061.018.167-.03.18-.119m-1.141-.257s-.03-.168-.119-.181c0 0-.167.03-.18.119 0 0 .03.167.119.18.088.013.167-.03.18-.118m-1.141-.258s-.03-.168-.119-.181c0 0-.167.03-.18.119 0 0 .029.167.118.18s.168-.03.181-.118m-1.113-.263s-.03-.168-.119-.181c0 0-.168.03-.181.119 0 0 .03.167.119.18.084-.014.168-.029.181-.118m-1.17-.253s-.029-.168-.118-.181c0 0-.168.03-.181.119 0 0 .03.168.119.181.084-.015.167-.03.18-.119m-1.136-.23s-.03-.168-.118-.181c0 0-.168.03-.181.119 0 0 .03.168.119.181.088.013.167-.03.18-.119m-1.141-.258s-.03-.168-.119-.181c0 0-.167.03-.18.119 0 0 .03.168.118.181.084-.015.14-.025.153-.114zm-1.136-.23s-.03-.168-.119-.181c0 0-.168.03-.181.119 0 0 .03.168.119.181.084-.015.168-.03.181-.119m-1.142-.258s-.029-.167-.118-.18c0 0-.168.029-.181.118 0 0 .03.168.119.181s.167-.03.18-.119m-1.164-.225s-.03-.167-.118-.18c0 0-.168.029-.181.118 0 0 .03.168.119.181.083-.015.139-.025.152-.114zm-1.136-.23s-.03-.167-.119-.18c0 0-.167.029-.18.118 0 0 .03.168.118.181.089.013.168-.03.181-.119m-1.131-.202s-.03-.167-.119-.18c0 0-.167.029-.181.118 0 0 .03.168.119.181.084-.015.14-.025.153-.114zm-1.164-.225s-.03-.167-.119-.18c0 0-.168.029-.181.118 0 0 .03.168.119.181 0 0 .14-.025.153-.114zm-1.165-.225s-.029-.167-.118-.18c0 0-.168.029-.153.113 0 0 .03.168.119.181q.132.02.152-.114m-1.131-.202s-.03-.167-.119-.18c0 0-.167.029-.18.118 0 0 .03.168.118.181.084-.015.14-.025.153-.114zm-1.154-.169s-.03-.168-.119-.181c0 0-.167.03-.18.119 0 0 .029.168.118.181.084-.015.14-.025.153-.114zm-1.159-.197s-.03-.168-.119-.181c0 0-.14.025-.153.114 0 0 .03.168.119.181 0 0 .14-.025.153-.114m-1.16-.197s-.029-.168-.118-.181c0 0-.168.03-.153.114 0 0 .03.168.119.181.056-.01.139-.025.152-.114M344.819 452.042s-.025-.14-.086-.158c0 0-.173.002-.191.063 0 0 .025.14.091.185 0 0 .14-.024.191-.062zm-1.065-.474s-.025-.139-.086-.157c0 0-.172.002-.19.062 0 0 .025.14.091.186 0 0 .172-.002.19-.063zm-1.092-.468s-.025-.14-.086-.158c0 0-.167.03-.19.063 0 0 .03.168.062.191 0 0 .173-.002.191-.063zm-1.064-.473s-.025-.14-.086-.158c0 0-.14.025-.186.091 0 0 .025.139.063.19 0 0 .168-.03.186-.091zm-1.065-.474s-.025-.139-.085-.157c0 0-.14.024-.191.062 0 0 .03.168.091.186 0 0 .139-.025.185-.091m-1.087-.44s-.025-.14-.086-.158c0 0-.172.002-.19.063 0 0 .03.167.09.185 0 0 .168-.029.191-.062zm-1.064-.474s-.025-.139-.086-.157c0 0-.168.03-.191.062 0 0 .03.168.063.191 0 0 .168-.03.191-.063zm-1.092-.468s-.025-.14-.086-.158c0 0-.168.03-.191.063 0 0 .03.168.091.186 0 0 .168-.03.19-.063zm-1.06-.445s-.025-.14-.086-.158c0 0-.167.03-.19.063 0 0 .03.167.063.19 0 0 .167-.03.185-.09zm-1.092-.469s-.025-.139-.091-.185c0 0-.167.029-.19.062 0 0 .029.168.062.191 0 0 .168-.03.191-.063zm-1.059-.445s-.025-.14-.086-.158c0 0-.14.025-.191.063 0 0 .025.14.063.19 0 0 .14-.024.191-.062zm-1.093-.469s-.025-.139-.085-.157c0 0-.173.002-.191.062 0 0 .025.14.091.186 0 0 .139-.025.19-.063zm-1.087-.44s-.025-.14-.086-.158c0 0-.172.002-.19.063 0 0 .03.168.09.186 0 0 .14-.025.191-.063zm-1.059-.446s-.025-.139-.091-.185c0 0-.168.03-.186.091 0 0 .03.167.091.185 0 0 .168-.03.191-.063zm-1.093-.468s-.024-.14-.09-.186c0 0-.168.03-.186.091 0 0 .03.168.091.186 0 0 .167-.03.185-.091m-1.087-.44s-.025-.14-.086-.158c0 0-.139.025-.185.091 0 0 .03.167.063.19 0 0 .167-.03.185-.09zm-1.059-.446s-.025-.139-.091-.185c0 0-.167.029-.185.09 0 0 .024.14.09.186 0 0 .168-.03.186-.091m-1.087-.44s-.025-.14-.091-.186c0 0-.168.03-.186.091 0 0 .03.167.091.185 0 0 .168-.029.186-.09m-1.088-.441s-.025-.139-.09-.185c0 0-.168.03-.186.09 0 0 .03.168.091.186 0 0 .167-.03.185-.091m-1.087-.44s-.025-.14-.091-.186c0 0-.167.03-.185.091 0 0 .002.173.09.186 0 0 .168-.03.186-.091m-1.082-.413s-.025-.139-.091-.185c0 0-.168.03-.186.09 0 0 .03.168.091.186 0 0 .168-.03.186-.091m-1.088-.44s-.024-.14-.09-.186c0 0-.168.03-.186.091 0 0 .03.168.091.186 0 0 .167-.03.19-.063zm-1.087-.441s-.025-.139-.091-.185c0 0-.167.03-.185.09 0 0 .03.168.091.186 0 0 .167-.03.185-.091"/><path fill="#232826" d="M285.686 440.608c-1.845 6.958-4.779 12.006-4.825 12.072l-.258-.156s6.619-11.382 6.191-23.498l.279-.05c.158 4.123-.483 8.128-1.415 11.637zM246.205 430.46c-1.128 4.352-2.604 7.555-2.622 7.615l-.253-.127s3.315-7.278 3.872-14.669l.295.034c-.192 2.484-.673 4.962-1.264 7.142zM320.071 449.818c-1.387 5.32-3.761 9.144-3.784 9.177l-.258-.156s5.325-8.615 4.709-17.902l.279-.05c.217 3.161-.243 6.241-.951 8.903z"/><path fill="#232826" d="m312.047 437.122-.251.535c-.666-.343-16.645-8.334-16.561-17.573.048-7.012 7.588-8.211 12.098-8.294 0 0 .084-.015.074-.071s-.015-.084-.076-.102c-22.18-5.907-41.397-7.643-50.883-8.144-.495-.027-.785.284-.875.588s-.066.761.357 1.032c8.889 6.055 11.981 19.368 12.029 19.475l-.587.104s-3.072-13.201-11.764-19.118a1.51 1.51 0 0 1-.593-1.711 1.4 1.4 0 0 1 1.468-.982c9.486.501 28.764 2.256 51.005 8.181.332.085.532.395.508.745a.68.68 0 0 1-.642.605c-4.282.071-11.492 1.182-11.541 7.705-.06 8.888 16.079 16.966 16.239 17.053z"/><path fill="#232826" d="m284.831 428.363-.279.05c-.025-.14-1.775-13.202-4.307-22.724l.279-.05c2.527 9.494 4.282 22.585 4.307 22.724M285.901 428.697l-.01-.056s-.08-.13-.164-.115c0 0-.13.081-.115.164 0 0 .081.13.165.115a.16.16 0 0 0 .124-.108m-.176-1.151-.01-.056s-.08-.129-.164-.115c0 0-.13.081-.115.165 0 0 .081.13.165.115a.16.16 0 0 0 .124-.109m-.181-1.178-.01-.056s-.08-.13-.164-.115c0 0-.13.081-.115.165 0 0 .081.129.164.115a.16.16 0 0 0 .125-.109m-.148-1.156-.01-.055s-.081-.13-.164-.115c0 0-.13.081-.115.164 0 0 .081.13.164.115a.16.16 0 0 0 .125-.109m-.204-1.145-.01-.056s-.081-.13-.164-.115c0 0-.13.081-.115.165 0 0 .08.13.164.115a.16.16 0 0 0 .125-.109m-.176-1.15-.01-.056s-.081-.13-.165-.115c0 0-.129.081-.114.165 0 0 .08.129.164.114a.16.16 0 0 0 .125-.108m-.176-1.151-.01-.056s-.081-.129-.165-.114c0 0-.129.08-.114.164 0 0 .08.13.164.115a.16.16 0 0 0 .125-.109m-.209-1.173-.01-.056s-.081-.13-.165-.115c0 0-.129.081-.114.165 0 0 .08.13.164.115a.16.16 0 0 0 .125-.109m-.204-1.146-.01-.055s-.081-.13-.165-.115c0 0-.129.081-.114.164 0 0 .08.13.164.115a.16.16 0 0 0 .125-.109m-.176-1.15-.01-.056s-.081-.13-.165-.115c0 0-.129.081-.115.165 0 0 .081.13.165.115a.16.16 0 0 0 .125-.109m-.232-1.14-.01-.056s-.081-.13-.165-.115c0 0-.129.081-.114.165 0 0 .08.129.164.114a.16.16 0 0 0 .125-.108m-.209-1.174-.01-.056s-.081-.129-.165-.114c0 0-.129.08-.114.164 0 0 .08.13.164.115a.16.16 0 0 0 .125-.109m-.232-1.14-.01-.056s-.081-.13-.165-.115c0 0-.129.081-.114.165 0 0 .08.129.164.115a.16.16 0 0 0 .125-.109m-.204-1.146-.01-.055s-.109-.125-.165-.115c0 0-.129.08-.114.164 0 0 .08.13.164.115a.16.16 0 0 0 .125-.109m-.26-1.135-.01-.056s-.109-.125-.165-.115c0 0-.129.081-.114.165 0 0 .08.13.164.115a.16.16 0 0 0 .125-.109m-.237-1.168-.01-.056s-.081-.13-.164-.115c0 0-.13.081-.115.164 0 0 .08.13.164.115a.16.16 0 0 0 .125-.108m-.26-1.136-.01-.056s-.108-.125-.164-.115c0 0-.13.081-.115.165 0 0 .109.125.164.115s.107-.048.097-.104zm-.26-1.135-.01-.056s-.08-.13-.164-.115c0 0-.125.109-.115.164 0 0 .109.125.165.115.055-.01.106-.048.096-.103zm-.26-1.136-.015-.084s-.108-.124-.164-.114c0 0-.125.108-.115.164 0 0 .109.125.165.115s.106-.048.096-.104zm-.287-1.13-.015-.084s-.109-.125-.193-.11c0 0-.125.109-.115.165 0 0 .109.124.193.109.056-.01.079-.042.097-.103z"/><path fill="#232826" d="M283.296 419.729s-10.287-2.577-13.746-2.739c-3.342-.154-3.606 1.766-3.619 1.855l-.294-.034s.315-2.276 3.919-2.111c3.487.158 13.714 2.717 13.807 2.758z"/><path fill="#232826" d="M282.825 420.478s-.029-.168-.118-.181c0 0-.168.03-.181.119 0 0 .03.167.119.18.084-.014.167-.029.18-.118m-1.146-.286s-.03-.168-.118-.181c0 0-.168.03-.181.119 0 0 .025.14.119.181.093.041.167-.03.18-.119m-1.141-.258s-.03-.168-.119-.181c0 0-.167.03-.18.119 0 0 .03.168.118.181.061.018.14-.025.181-.119m-1.141-.258s-.03-.167-.119-.18c0 0-.168.029-.181.118 0 0 .03.168.119.181.084-.015.168-.03.181-.119m-1.141-.258s-.03-.167-.119-.18c0 0-.168.029-.181.118 0 0 .03.168.119.181.061.018.168-.03.181-.119m-1.142-.258s-.03-.167-.118-.18c0 0-.168.03-.181.118 0 0 .03.168.119.181.083-.015.167-.03.18-.119m-1.136-.23s-.03-.167-.119-.18c0 0-.167.03-.18.118 0 0 .03.168.118.181 0 0 .14-.025.181-.119m-1.169-.253s-.03-.167-.119-.18c0 0-.167.03-.18.118 0 0 .029.168.118.181.061.018.14-.025.153-.114zm-1.131-.202s-.03-.167-.119-.18c0 0-.168.03-.181.118 0 0 .03.168.119.181.084-.015.14-.025.153-.114zm-1.16-.197s-.029-.167-.118-.18c0 0-.14.025-.153.113 0 0 .03.168.119.181.056-.01.139-.025.152-.114m-1.154-.169s-.03-.167-.119-.18c0 0-.167.03-.18.118 0 0 .03.168.114.153.083-.015.139-.025.152-.114zm-1.172-.108s-.058-.163-.147-.176c0 0-.134.053-.147.142 0 0 .052.135.141.148.056-.01.14-.025.153-.114m-1.175.036-.01-.055s-.081-.13-.165-.115c0 0-.13.08-.115.164 0 0 .081.13.165.115a.16.16 0 0 0 .125-.109m-1.131.288-.015-.084s-.108-.124-.187-.081c0 0-.125.108-.082.187 0 0 .108.125.187.082.056-.01.074-.071.097-.104m-.954.631-.025-.139s-.154-.059-.2.007c0 0-.059.154.007.2 0 0 .154.059.2-.007l.046-.066zm-.539 1.019s-.03-.168-.119-.181c0 0-.167.03-.147.142 0 0 .029.167.113.152s.14-.024.153-.113M296.148 417.932s-.025-.139-.091-.185c0 0-.167.03-.185.09 0 0 .029.168.09.186 0 0 .168-.03.186-.091m-1.11-.407s-.025-.14-.091-.186c0 0-.168.03-.186.091 0 0 .025.14.091.186 0 0 .168-.03.186-.091m-1.101-.352s-.029-.167-.09-.185c0 0-.168.029-.186.09 0 0 .03.168.091.186 0 0 .167-.03.185-.091m-1.123-.319s-.03-.167-.119-.18c0 0-.167.03-.18.118 0 0 .03.168.118.181 0 0 .168-.03.181-.119m-1.118-.29s-.03-.168-.119-.181c0 0-.167.03-.18.119 0 0 .029.167.118.18s.168-.03.181-.118m-1.146-.286s-.03-.168-.119-.181c0 0-.168.03-.181.119 0 0 .03.167.119.18s.168-.029.181-.118m-1.147-.286s-.029-.168-.118-.181c0 0-.14.025-.181.119 0 0 .03.168.119.181.061.018.14-.025.18-.119m-1.141-.258s-.03-.168-.118-.181c0 0-.168.03-.181.119 0 0 .03.168.119.181.083-.015.167-.03.18-.119m-1.141-.258s-.03-.168-.119-.181c0 0-.167.03-.18.119 0 0 .03.168.118.181.061.018.14-.025.186-.091zm-1.141-.258s-.03-.167-.119-.18c0 0-.168.029-.181.118 0 0 .03.168.119.181.084-.015.14-.025.153-.114zm-1.136-.23s-.03-.167-.119-.18c0 0-.168.029-.181.118 0 0 .03.168.119.181.084-.015.14-.025.153-.114zM296.231 416.761l-.095.277c-.618-.236-2.426-.836-5.355-1.583-3.798-.937-8.554-1.906-8.582-1.901l.062-.3s4.811.959 8.61 1.897c2.929.746 4.737 1.347 5.383 1.578zM197.72 362.104c-28.09-7.118-49.753-17.261-48.387-22.654 1.367-5.393 25.246-3.995 53.336 3.124s49.753 17.261 48.386 22.654-25.245 3.995-53.335-3.124"/><path fill="#A34023" d="M193.4 359.048c-26.261-6.083-46.532-15.407-45.277-20.827 1.256-5.421 23.562-4.884 49.823 1.199 26.261 6.082 46.531 15.407 45.276 20.827s-23.562 4.883-49.822-1.199"/><path fill="#CB5F32" d="M193.729 357.999c-25.681-5.948-45.524-14.979-44.322-20.17s22.995-4.577 48.676 1.371 45.524 14.978 44.322 20.169c-1.203 5.191-22.995 4.578-48.676-1.37"/><path stroke="#232826" stroke-miterlimit="10" stroke-width=".869" d="M193.401 359.049c-26.261-6.083-46.532-15.407-45.276-20.827s23.561-4.884 49.822 1.199c26.261 6.082 46.532 15.407 45.277 20.827-1.256 5.42-23.562 4.883-49.823-1.199Z"/><path stroke="#232826" stroke-miterlimit="10" stroke-width=".869" d="M193.729 357.998c-25.68-5.948-45.524-14.978-44.322-20.169 1.203-5.191 22.996-4.578 48.676 1.37s45.525 14.978 44.322 20.169-22.995 4.578-48.676-1.37Z"/><mask id="j" width="285" height="144" x="61" y="219" maskUnits="userSpaceOnUse" style="mask-type:luminance"><path fill="#fff" d="M149.417 337.851c-1.206 5.201 18.648 14.232 44.322 20.179 25.675 5.948 47.46 6.564 48.666 1.363.758-3.191 112.545-67.865 101.99-105.761-21.552-77.472-269.207 2.611-279.156.319-25.674-5.948 85.39 78.726 84.178 83.9"/></mask><g mask="url(#j)"><g clip-path="url(#k)"><path fill="url(#l)" d="M181.431 290.446c-.374-.362-.911-.61-1.679-.667a6.3 6.3 0 0 0-1.632.121c-.03-.029-.644.075-1.473.233-1.798.34-4.459.898-4.599.923l10.254 9.932c.14-.025 2.801-.584 4.599-.924.809-.154 1.414-.257 1.467-.236l.002.01c1.701-.323 2.729-.033 3.325.543l-10.254-9.932z"/><path fill="url(#m)" d="m201.829 263.27 10.254 9.932-2.721 13.643-10.254-9.932z"/><path fill="url(#n)" d="m216.86 260.408 10.259 9.931-2.777 13.922-10.254-9.932z"/><path fill="url(#o)" d="m197.327 286.837 10.254 9.932-3.374 16.918-10.254-9.932z"/><path fill="url(#p)" d="m214.153 286.734 10.254 9.932c-2.384-2.306-7.844-1.687-12.166-.862-1.889.361-3.562.759-4.665.97l-10.254-9.932c1.103-.211 2.776-.609 4.665-.97 4.322-.825 9.782-1.443 12.166.862"/><mask id="q" width="28" height="12" x="197" y="285" maskUnits="userSpaceOnUse" style="mask-type:luminance"><path fill="#fff" d="m214.157 286.737 10.254 9.931c-2.384-2.305-7.844-1.687-12.166-.862-1.889.361-3.562.759-4.665.97l-10.254-9.931c1.104-.212 2.777-.609 4.665-.971 4.322-.824 9.782-1.443 12.166.863"/></mask><g mask="url(#q)"><path fill="url(#r)" d="m214.157 286.736 10.254 9.932c-2.384-2.306-7.843-1.687-12.166-.862-1.888.361-3.561.759-4.665.97l-10.254-9.932c1.104-.211 2.777-.609 4.665-.97 4.323-.825 9.783-1.443 12.166.862"/></g><path fill="url(#s)" d="m192.247 312.294 10.254 9.931-3.722 18.654-10.254-9.931z"/><path fill="url(#t)" d="M177.958 342.675c-1.95.357-3.931.7-5.96 1.086l-10.877 2.067 10.254 9.932 10.876-2.072q1.518-.285 3.011-.551a310 310 0 0 0 2.949-.535l-10.254-9.932z"/><path fill="url(#u)" d="m229.312 276.947 10.254 9.932c1.746 1.692 2.582 4.229 2.196 7.88-.754 7.209-4.67 12.191-10.008 15.618l-10.254-9.932c5.344-3.423 9.254-8.409 10.008-15.618.391-3.652-.45-6.188-2.196-7.88"/><mask id="v" width="21" height="35" x="221" y="276" maskUnits="userSpaceOnUse" style="mask-type:luminance"><path fill="#fff" d="m229.314 276.945 10.254 9.931c1.746 1.692 2.582 4.229 2.196 7.88-.754 7.209-4.67 12.191-10.008 15.618l-10.254-9.932c5.344-3.423 9.254-8.409 10.008-15.618.391-3.652-.45-6.187-2.196-7.879"/></mask><g mask="url(#v)"><path fill="url(#w)" d="m229.314 276.947 10.254 9.932c1.746 1.692 2.582 4.228 2.196 7.879-.754 7.209-4.669 12.192-10.008 15.619l-10.254-9.932c5.344-3.423 9.254-8.409 10.008-15.618.391-3.652-.45-6.188-2.196-7.88"/></g><path fill="url(#x)" d="m212.689 312.057 10.254 9.932c-2.811-2.723-9.607-1.911-14.927-.899-2.237.424-4.207.884-5.517 1.138l-10.254-9.932c1.311-.249 3.286-.71 5.517-1.137 5.32-1.013 12.121-1.825 14.927.898"/><mask id="y" width="31" height="13" x="192" y="310" maskUnits="userSpaceOnUse" style="mask-type:luminance"><path fill="#fff" d="m212.691 312.059 10.254 9.932c-2.812-2.723-9.607-1.911-14.928-.899-2.236.423-4.207.884-5.517 1.137l-10.254-9.931c1.311-.249 3.287-.71 5.518-1.138 5.32-1.012 12.12-1.825 14.927.899"/></mask><g mask="url(#y)"><path fill="url(#z)" d="m212.691 312.059 10.254 9.932c-2.812-2.723-9.607-1.911-14.927-.898-2.237.423-4.208.884-5.518 1.137l-10.253-9.932c1.31-.248 3.286-.71 5.517-1.137 5.32-1.013 12.12-1.825 14.927.898"/></g><path fill="url(#A)" d="m192.947 340.025 10.254 9.931q-.203.035-.405.077c-2.038.388-4.119.764-6.26 1.131l-10.254-9.932a346 346 0 0 0 6.665-1.207"/><mask id="B" width="18" height="12" x="186" y="340" maskUnits="userSpaceOnUse" style="mask-type:luminance"><path fill="#fff" d="m192.955 340.026 10.254 9.931a337.742 337.742 0 0 1-6.666 1.207l-10.254-9.931a345 345 0 0 0 6.666-1.207"/></mask><g mask="url(#B)"><path fill="url(#C)" d="m192.955 340.026 10.254 9.931q-.202.035-.405.077c-2.038.388-4.119.764-6.261 1.13l-10.253-9.931a346 346 0 0 0 6.665-1.207"/></g><path fill="url(#D)" d="m186.281 341.233 10.253 9.932-2.774 13.931-10.254-9.931z"/><path fill="url(#E)" d="m183.507 355.162 10.254 9.932-8.347 1.586-10.253-9.931z"/><path fill="url(#F)" d="m201.345 338.25 10.253 9.932-2.808 14.052-10.254-9.932z"/><path fill="url(#G)" d="m198.537 352.302 10.254 9.932-8.355 1.593-10.254-9.932z"/><path fill="url(#H)" d="m228.848 303.005 10.254 9.932c2.36 2.285 2.984 6.264 1.148 12.685-3.893 13.612-14.444 19.074-28.65 22.561l-10.254-9.932c14.21-3.493 24.761-8.954 28.65-22.561 1.836-6.421 1.207-10.399-1.148-12.685"/><mask id="I" width="41" height="46" x="201" y="303" maskUnits="userSpaceOnUse" style="mask-type:luminance"><path fill="#fff" d="m228.847 303.005 10.254 9.931c2.36 2.285 2.984 6.265 1.148 12.685-3.893 13.613-14.444 19.074-28.65 22.561l-10.254-9.932c14.21-3.492 24.761-8.954 28.65-22.561 1.836-6.42 1.207-10.398-1.148-12.684"/></mask><g mask="url(#I)"><path fill="url(#J)" d="m228.848 303.005 10.253 9.932c2.361 2.285 2.985 6.264 1.149 12.685-3.893 13.612-14.444 19.074-28.651 22.561l-10.253-9.932c14.21-3.493 24.761-8.954 28.65-22.561 1.836-6.421 1.207-10.399-1.148-12.685"/></g><path fill="url(#K)" d="M221.499 300.446c7.589.427 11.629 4.281 8.494 15.243-3.893 13.612-14.444 19.074-28.65 22.561l-2.807 14.057-8.357 1.588 2.767-13.866q-.203.036-.405.078a345 345 0 0 1-6.261 1.13l-2.774 13.931-8.347 1.586 2.799-14.075c-1.949.357-3.931.7-5.96 1.087l-10.876 2.071 3.677-10.435c.135-.024 2.74-.478 4.541-.824.902-.17 1.57-.309 1.54-.334 2.366-.451 3.338-2.293 3.704-3.405l4.442-22.274 3.159-15.859c.024-1.658-.682-3.441-4.066-2.803.042-.042-.596.066-1.474.233-1.797.34-4.458.898-4.598.923l1.806-9.05 11.528-2.188c1.727-.288 3.509-.66 5.329-1.044l2.768-13.915 8.351-1.587-2.721 13.642a363 363 0 0 1 6.693-1.356l2.701-13.565 8.357-1.588-2.777 13.922c10.597-1.095 18.47.646 17.425 10.498-.754 7.209-4.67 12.191-10.008 15.618m-28.815 29.75c7.436-1.414 19.421-4.446 21.13-13.035 1.681-8.436-8.624-7.412-16.055-5.999-2.237.423-4.207.884-5.517 1.137l-3.723 18.654c.526-.099 1.159-.206 1.869-.333.696-.124 1.463-.26 2.292-.418m4.642-43.366-3.374 16.918c.892-.168 2.137-.365 3.587-.644 6.202-1.179 16.09-3.767 17.641-11.532 1.522-7.65-7.001-6.889-13.189-5.712-1.889.361-3.562.759-4.665.97"/></g><path stroke="#B9AC94" stroke-miterlimit="10" stroke-width="2.535" d="M214.957 370.194c-32.88 5.856-64.282-16.051-70.138-48.93s16.05-64.282 48.93-70.139 64.282 16.051 70.138 48.931-16.05 64.281-48.93 70.138Z"/><path fill="#B9AC94" d="M226.022 261.749c20.4 10.317 33.116 32.84 31.392 55.688 4.709-22.918-9.41-47.814-31.392-55.688M151.689 320.042c-1.908-17.992 4.393-36.177 16.948-49.194-14.69 11.062-21.694 31.449-16.948 49.194"/><path fill="url(#L)" d="M214.957 370.194c-32.88 5.856-64.282-16.051-70.138-48.93s16.05-64.282 48.93-70.139 64.282 16.051 70.138 48.931-16.05 64.281-48.93 70.138"/><path fill="url(#M)" d="M154.159 292.161c5.951-16.106 19.528-29.045 37.478-33.453a53 53 0 0 1 16.084-1.452"/><path fill="url(#N)" d="M217.06 362.585c-18.643 4.56-37.407-1.264-50.185-13.775Z"/></g><path fill="#fff" d="m116.926 410.768 119.301 37.55-118.783-39.17zM123.981 407.955l64.876 20.035-64.353-21.627z"/><defs><linearGradient id="b" x1="318.025" x2="268.632" y1="367.916" y2="376.714" gradientUnits="userSpaceOnUse"><stop offset=".04" stop-color="#BEF5EB"/><stop offset=".08" stop-color="#C7D3E1"/><stop offset=".47" stop-color="#ED4F35"/><stop offset="1" stop-color="#BEF5EB"/></linearGradient><linearGradient id="c" x1="355.701" x2="266.805" y1="347.746" y2="363.58" gradientUnits="userSpaceOnUse"><stop offset=".04" stop-color="#BEF5EB"/><stop offset=".08" stop-color="#C7D3E1"/><stop offset=".47" stop-color="#ED4F35"/><stop offset="1" stop-color="#BEF5EB"/></linearGradient><linearGradient id="d" x1="344.465" x2="73.028" y1="352.109" y2="400.456" gradientUnits="userSpaceOnUse"><stop offset=".04" stop-color="#BEF5EB"/><stop offset=".12" stop-color="#8FE6EF"/><stop offset=".22" stop-color="#5CD7F4"/><stop offset=".31" stop-color="#34CBF8"/><stop offset=".4" stop-color="#17C3FB"/><stop offset=".47" stop-color="#06BDFD"/><stop offset=".52" stop-color="#00BCFE"/><stop offset=".72" stop-color="#0F85D4"/><stop offset="1" stop-color="#263495"/></linearGradient><linearGradient id="e" x1="99.224" x2="63.715" y1="341.861" y2="348.185" gradientUnits="userSpaceOnUse"><stop offset=".04" stop-color="#BEF5EB"/><stop offset=".08" stop-color="#C7D3E1"/><stop offset=".47" stop-color="#ED4F35"/><stop offset="1" stop-color="#BEF5EB"/></linearGradient><linearGradient id="f" x1="146.798" x2="161.041" y1="401.757" y2="351.982" gradientUnits="userSpaceOnUse"><stop/><stop offset=".625" stop-opacity="0"/></linearGradient><linearGradient id="g" x1="79.764" x2="75.227" y1="360.338" y2="334.87" gradientUnits="userSpaceOnUse"><stop/><stop offset="1" stop-opacity="0"/></linearGradient><linearGradient id="h" x1="308.47" x2="258.854" y1="415.91" y2="424.747" gradientUnits="userSpaceOnUse"><stop offset=".04" stop-color="#BEF5EB"/><stop offset=".08" stop-color="#C7D3E1"/><stop offset=".47" stop-color="#ED4F35"/><stop offset="1" stop-color="#BEF5EB"/></linearGradient><linearGradient id="i" x1="342.139" x2="238.409" y1="433.897" y2="452.373" gradientUnits="userSpaceOnUse"><stop offset=".04" stop-color="#BEF5EB"/><stop offset=".08" stop-color="#C7D3E1"/><stop offset=".47" stop-color="#ED4F35"/><stop offset="1" stop-color="#BEF5EB"/></linearGradient><linearGradient id="l" x1="172.36" x2="191.322" y1="295.923" y2="294.691" gradientUnits="userSpaceOnUse"><stop offset=".04" stop-color="#EDE6E5"/><stop offset=".1" stop-color="#EDD2C4"/><stop offset=".21" stop-color="#EDB491"/><stop offset=".3" stop-color="#ED9C69"/><stop offset=".39" stop-color="#ED8B4C"/><stop offset=".47" stop-color="#ED803B"/><stop offset=".52" stop-color="#ED7D35"/><stop offset="1" stop-color="#ED4F35"/></linearGradient><linearGradient id="m" x1="199.019" x2="212.176" y1="275.486" y2="274.63" gradientUnits="userSpaceOnUse"><stop offset=".04" stop-color="#EDE6E5"/><stop offset=".1" stop-color="#EDD2C4"/><stop offset=".21" stop-color="#EDB491"/><stop offset=".3" stop-color="#ED9C69"/><stop offset=".39" stop-color="#ED8B4C"/><stop offset=".47" stop-color="#ED803B"/><stop offset=".52" stop-color="#ED7D35"/><stop offset="1" stop-color="#ED4F35"/></linearGradient><linearGradient id="n" x1="213.987" x2="227.222" y1="272.762" y2="271.902" gradientUnits="userSpaceOnUse"><stop offset=".04" stop-color="#EDE6E5"/><stop offset=".1" stop-color="#EDD2C4"/><stop offset=".21" stop-color="#EDB491"/><stop offset=".3" stop-color="#ED9C69"/><stop offset=".39" stop-color="#ED8B4C"/><stop offset=".47" stop-color="#ED803B"/><stop offset=".52" stop-color="#ED7D35"/><stop offset="1" stop-color="#ED4F35"/></linearGradient><linearGradient id="o" x1="193.757" x2="207.78" y1="300.715" y2="299.803" gradientUnits="userSpaceOnUse"><stop offset=".04" stop-color="#EDE6E5"/><stop offset=".1" stop-color="#EDD2C4"/><stop offset=".21" stop-color="#EDB491"/><stop offset=".3" stop-color="#ED9C69"/><stop offset=".39" stop-color="#ED8B4C"/><stop offset=".47" stop-color="#ED803B"/><stop offset=".52" stop-color="#ED7D35"/><stop offset="1" stop-color="#ED4F35"/></linearGradient><linearGradient id="p" x1="197.668" x2="224.002" y1="292.094" y2="290.382" gradientUnits="userSpaceOnUse"><stop offset=".04" stop-color="#EDE6E5"/><stop offset=".1" stop-color="#EDD2C4"/><stop offset=".21" stop-color="#EDB491"/><stop offset=".3" stop-color="#ED9C69"/><stop offset=".39" stop-color="#ED8B4C"/><stop offset=".47" stop-color="#ED803B"/><stop offset=".52" stop-color="#ED7D35"/><stop offset="1" stop-color="#ED4F35"/></linearGradient><linearGradient id="r" x1="197.673" x2="224.007" y1="292.096" y2="290.384" gradientUnits="userSpaceOnUse"><stop offset=".04" stop-color="#EDE6E5"/><stop offset=".1" stop-color="#EDD2C4"/><stop offset=".21" stop-color="#EDB491"/><stop offset=".3" stop-color="#ED9C69"/><stop offset=".39" stop-color="#ED8B4C"/><stop offset=".47" stop-color="#ED803B"/><stop offset=".52" stop-color="#ED7D35"/><stop offset="1" stop-color="#ED4F35"/></linearGradient><linearGradient id="s" x1="188.274" x2="202.758" y1="327.054" y2="326.112" gradientUnits="userSpaceOnUse"><stop offset=".04" stop-color="#EDE6E5"/><stop offset=".1" stop-color="#EDD2C4"/><stop offset=".21" stop-color="#EDB491"/><stop offset=".3" stop-color="#ED9C69"/><stop offset=".39" stop-color="#ED8B4C"/><stop offset=".47" stop-color="#ED803B"/><stop offset=".52" stop-color="#ED7D35"/><stop offset="1" stop-color="#ED4F35"/></linearGradient><linearGradient id="t" x1="161.398" x2="187.938" y1="350.08" y2="348.355" gradientUnits="userSpaceOnUse"><stop offset=".04" stop-color="#EDE6E5"/><stop offset=".1" stop-color="#EDD2C4"/><stop offset=".21" stop-color="#EDB491"/><stop offset=".3" stop-color="#ED9C69"/><stop offset=".39" stop-color="#ED8B4C"/><stop offset=".47" stop-color="#ED803B"/><stop offset=".52" stop-color="#ED7D35"/><stop offset="1" stop-color="#ED4F35"/></linearGradient><linearGradient id="u" x1="221.101" x2="241.88" y1="294.271" y2="292.92" gradientUnits="userSpaceOnUse"><stop offset=".04" stop-color="#EDE6E5"/><stop offset=".1" stop-color="#EDD2C4"/><stop offset=".21" stop-color="#EDB491"/><stop offset=".3" stop-color="#ED9C69"/><stop offset=".39" stop-color="#ED8B4C"/><stop offset=".47" stop-color="#ED803B"/><stop offset=".52" stop-color="#ED7D35"/><stop offset="1" stop-color="#ED4F35"/></linearGradient><linearGradient id="w" x1="226.429" x2="247.207" y1="293.924" y2="292.573" gradientUnits="userSpaceOnUse"><stop offset=".04" stop-color="#EDE6E5"/><stop offset=".1" stop-color="#EDD2C4"/><stop offset=".21" stop-color="#EDB491"/><stop offset=".3" stop-color="#ED9C69"/><stop offset=".39" stop-color="#ED8B4C"/><stop offset=".47" stop-color="#ED803B"/><stop offset=".52" stop-color="#ED7D35"/><stop offset="1" stop-color="#ED4F35"/></linearGradient><linearGradient id="x" x1="192.586" x2="222.532" y1="317.495" y2="315.549" gradientUnits="userSpaceOnUse"><stop offset=".04" stop-color="#EDE6E5"/><stop offset=".1" stop-color="#EDD2C4"/><stop offset=".21" stop-color="#EDB491"/><stop offset=".3" stop-color="#ED9C69"/><stop offset=".39" stop-color="#ED8B4C"/><stop offset=".47" stop-color="#ED803B"/><stop offset=".52" stop-color="#ED7D35"/><stop offset="1" stop-color="#ED4F35"/></linearGradient><linearGradient id="z" x1="192.587" x2="222.533" y1="317.497" y2="315.551" gradientUnits="userSpaceOnUse"><stop offset=".04" stop-color="#EDE6E5"/><stop offset=".1" stop-color="#EDD2C4"/><stop offset=".21" stop-color="#EDB491"/><stop offset=".3" stop-color="#ED9C69"/><stop offset=".39" stop-color="#ED8B4C"/><stop offset=".47" stop-color="#ED803B"/><stop offset=".52" stop-color="#ED7D35"/><stop offset="1" stop-color="#ED4F35"/></linearGradient><linearGradient id="A" x1="186.6" x2="202.89" y1="346.126" y2="345.067" gradientUnits="userSpaceOnUse"><stop offset=".04" stop-color="#EDE6E5"/><stop offset=".1" stop-color="#EDD2C4"/><stop offset=".21" stop-color="#EDB491"/><stop offset=".3" stop-color="#ED9C69"/><stop offset=".39" stop-color="#ED8B4C"/><stop offset=".47" stop-color="#ED803B"/><stop offset=".52" stop-color="#ED7D35"/><stop offset="1" stop-color="#ED4F35"/></linearGradient><linearGradient id="C" x1="186.608" x2="202.897" y1="346.127" y2="345.068" gradientUnits="userSpaceOnUse"><stop offset=".04" stop-color="#EDE6E5"/><stop offset=".1" stop-color="#EDD2C4"/><stop offset=".21" stop-color="#EDB491"/><stop offset=".3" stop-color="#ED9C69"/><stop offset=".39" stop-color="#ED8B4C"/><stop offset=".47" stop-color="#ED803B"/><stop offset=".52" stop-color="#ED7D35"/><stop offset="1" stop-color="#ED4F35"/></linearGradient><linearGradient id="D" x1="183.407" x2="196.638" y1="353.595" y2="352.735" gradientUnits="userSpaceOnUse"><stop offset=".04" stop-color="#EDE6E5"/><stop offset=".1" stop-color="#EDD2C4"/><stop offset=".21" stop-color="#EDB491"/><stop offset=".3" stop-color="#ED9C69"/><stop offset=".39" stop-color="#ED8B4C"/><stop offset=".47" stop-color="#ED803B"/><stop offset=".52" stop-color="#ED7D35"/><stop offset="1" stop-color="#ED4F35"/></linearGradient><linearGradient id="E" x1="175.469" x2="193.457" y1="361.507" y2="360.337" gradientUnits="userSpaceOnUse"><stop offset=".04" stop-color="#EDE6E5"/><stop offset=".1" stop-color="#EDD2C4"/><stop offset=".21" stop-color="#EDB491"/><stop offset=".3" stop-color="#ED9C69"/><stop offset=".39" stop-color="#ED8B4C"/><stop offset=".47" stop-color="#ED803B"/><stop offset=".52" stop-color="#ED7D35"/><stop offset="1" stop-color="#ED4F35"/></linearGradient><linearGradient id="F" x1="198.431" x2="211.706" y1="350.671" y2="349.808" gradientUnits="userSpaceOnUse"><stop offset=".04" stop-color="#EDE6E5"/><stop offset=".1" stop-color="#EDD2C4"/><stop offset=".21" stop-color="#EDB491"/><stop offset=".3" stop-color="#ED9C69"/><stop offset=".39" stop-color="#ED8B4C"/><stop offset=".47" stop-color="#ED803B"/><stop offset=".52" stop-color="#ED7D35"/><stop offset="1" stop-color="#ED4F35"/></linearGradient><linearGradient id="G" x1="190.491" x2="208.484" y1="358.649" y2="357.479" gradientUnits="userSpaceOnUse"><stop offset=".04" stop-color="#EDE6E5"/><stop offset=".1" stop-color="#EDD2C4"/><stop offset=".21" stop-color="#EDB491"/><stop offset=".3" stop-color="#ED9C69"/><stop offset=".39" stop-color="#ED8B4C"/><stop offset=".47" stop-color="#ED803B"/><stop offset=".52" stop-color="#ED7D35"/><stop offset="1" stop-color="#ED4F35"/></linearGradient><linearGradient id="H" x1="200.606" x2="241.683" y1="326.867" y2="324.197" gradientUnits="userSpaceOnUse"><stop offset=".04" stop-color="#EDE6E5"/><stop offset=".1" stop-color="#EDD2C4"/><stop offset=".21" stop-color="#EDB491"/><stop offset=".3" stop-color="#ED9C69"/><stop offset=".39" stop-color="#ED8B4C"/><stop offset=".47" stop-color="#ED803B"/><stop offset=".52" stop-color="#ED7D35"/><stop offset="1" stop-color="#ED4F35"/></linearGradient><linearGradient id="J" x1="210.849" x2="251.967" y1="326.02" y2="324.143" gradientUnits="userSpaceOnUse"><stop offset=".04" stop-color="#EDE6E5"/><stop offset=".1" stop-color="#EDD2C4"/><stop offset=".21" stop-color="#EDB491"/><stop offset=".3" stop-color="#ED9C69"/><stop offset=".39" stop-color="#ED8B4C"/><stop offset=".47" stop-color="#ED803B"/><stop offset=".52" stop-color="#ED7D35"/><stop offset="1" stop-color="#ED4F35"/></linearGradient><linearGradient id="K" x1="172.07" x2="228.697" y1="328.997" y2="280.698" gradientUnits="userSpaceOnUse"><stop offset=".04" stop-color="#EDE6E5"/><stop offset=".1" stop-color="#EDD2C4"/><stop offset=".21" stop-color="#EDB491"/><stop offset=".3" stop-color="#ED9C69"/><stop offset=".39" stop-color="#ED8B4C"/><stop offset=".47" stop-color="#ED803B"/><stop offset=".52" stop-color="#ED7D35"/><stop offset="1" stop-color="#ED4F35"/></linearGradient><linearGradient id="L" x1="189.865" x2="218.637" y1="249.377" y2="366.876" gradientUnits="userSpaceOnUse"><stop stop-color="#EFDC8D"/><stop offset=".07" stop-color="#EFDC8D" stop-opacity=".672"/><stop offset=".17" stop-color="#EFDC8D" stop-opacity=".36"/><stop offset=".27" stop-color="#EFDC8D" stop-opacity=".176"/><stop offset=".38" stop-color="#EFDC8D" stop-opacity=".073"/><stop offset=".48" stop-color="#EFDC8D" stop-opacity=".022"/><stop offset=".58" stop-color="#EFDC8D" stop-opacity=".01"/><stop offset=".68" stop-color="#EFDC8D" stop-opacity=".01"/><stop offset=".78" stop-color="#EFDC8D" stop-opacity="0"/></linearGradient><linearGradient id="M" x1="177.747" x2="183.356" y1="259.561" y2="282.466" gradientUnits="userSpaceOnUse"><stop stop-color="#EFDC8D"/><stop offset=".07" stop-color="#EFDC8D" stop-opacity=".672"/><stop offset=".17" stop-color="#EFDC8D" stop-opacity=".36"/><stop offset=".27" stop-color="#EFDC8D" stop-opacity=".176"/><stop offset=".38" stop-color="#EFDC8D" stop-opacity=".073"/><stop offset=".48" stop-color="#EFDC8D" stop-opacity=".022"/><stop offset=".58" stop-color="#EFDC8D" stop-opacity=".01"/><stop offset=".68" stop-color="#EFDC8D" stop-opacity=".01"/><stop offset=".78" stop-color="#EFDC8D" stop-opacity="0"/></linearGradient><linearGradient id="N" x1="188.851" x2="194.865" y1="340.923" y2="365.482" gradientUnits="userSpaceOnUse"><stop stop-color="#EFDC8D"/><stop offset=".07" stop-color="#EFDC8D" stop-opacity=".672"/><stop offset=".17" stop-color="#EFDC8D" stop-opacity=".36"/><stop offset=".27" stop-color="#EFDC8D" stop-opacity=".176"/><stop offset=".38" stop-color="#EFDC8D" stop-opacity=".073"/><stop offset=".48" stop-color="#EFDC8D" stop-opacity=".022"/><stop offset=".58" stop-color="#EFDC8D" stop-opacity=".01"/><stop offset=".68" stop-color="#EFDC8D" stop-opacity=".01"/><stop offset=".78" stop-color="#EFDC8D" stop-opacity="0"/></linearGradient><clipPath id="a"><path fill="#fff" d="m830.581 280.31-505.662 90.067 51.889 291.32L882.47 571.63z"/></clipPath><clipPath id="k"><path fill="#fff" d="m148.088 272.657 87.551-15.594 17.38 97.576-87.551 15.594z"/></clipPath></defs></svg>