<svg xmlns="http://www.w3.org/2000/svg" width="109" height="109" fill="none"><circle cx="54.154" cy="54.154" r="54.154" fill="url(#a)"/><g clip-path="url(#b)"><path fill="#E82164" d="M17.948 28.06a39 39 0 0 0-1.13 2.657l-.06.029c-.812.485-1.754.714-2.66.969-1.228.308-2.485.482-3.74.637-2.066.223-4.334.359-6.024 1.619a2.5 2.5 0 0 0-.919.875c-.065.072-.142.153-.216.24.051-.46.188-.916.386-1.323.464-.934 1.155-1.944 2.223-2.208 3.82-.569 7.608-1.466 11.16-3.014.33-.15.66-.308.979-.482zm89.021 20.133c-.061-.097-.123-.189-.177-.27a2.53 2.53 0 0 0-.778-1.003c-1.482-1.5-3.703-1.975-5.711-2.506-1.219-.342-2.433-.703-3.602-1.192-.856-.388-1.753-.757-2.484-1.359a.8.8 0 0 0-.318-.144 41 41 0 0 0-.66-2.85c.352.282.725.538 1.102.784 3.28 2.065 6.889 3.522 10.58 4.657 1.016.422 1.548 1.524 1.866 2.518.135.433.201.902.183 1.365z"/><path fill="#FEA1A3" d="M65.45 80.415c.2 3.295 1.124 6.905-.678 9.904-.589.94-1.464 1.58-2.447 2.022a4 4 0 0 0-.19-.614c-.838-1.943-2.092-2.256-3.501-.594-.331.377-1.136 1.644-1.078 2.313-5.41.588-10.959-.588-16.121-2.176-1.842-.665-4.305-1.648-6.437-2.97.268-1.23.295-2.561-.077-3.769-.618-1.74-2.574-1.302-3.389.036-.073.117-.166.242-.244.375a5.8 5.8 0 0 1-.638-1.316c-.642-2.41 1.758-4.77 2.545-6.972a19 19 0 0 0 .649-1.66c.229-.186.444-.395.577-.48.966-.801 1.972-1.559 3.066-2.18 7.039-3.895 14.605-2.163 21.049 2.042 1.693 1.074 3.234 2.365 4.686 3.74.52.49 1.032.978 1.535 1.486.264.191.434.618.693.814"/><path fill="#FEB5B7" d="M65.45 80.415c.2 3.295 1.124 6.905-.678 9.904-.589.94-1.464 1.58-2.447 2.022a4 4 0 0 0-.19-.614c-.838-1.943-2.092-2.256-3.501-.594-.331.377-1.136 1.644-1.078 2.313-5.41.588-10.959-.588-16.121-2.176-1.842-.665-4.305-1.648-6.437-2.97.268-1.23.295-2.561-.077-3.769-.618-1.74-2.574-1.302-3.389.036-.073.117-.166.242-.244.375a5.8 5.8 0 0 1-.638-1.316c-.642-2.41 1.758-4.77 2.545-6.972a19 19 0 0 0 .649-1.66c.229-.186.444-.395.577-.48.966-.801 1.972-1.559 3.066-2.18 7.039-3.895 14.605-2.163 21.049 2.042 1.693 1.074 3.234 2.365 4.686 3.74.52.49 1.032.978 1.535 1.486.264.191.434.618.693.814M53.612 65.783l-.005-.03q0-.004-.003-.008l-.002-.02c.24.876-2.297 2.163-2.962 2.579-.851-.503-2.416-2.872-1.352-3.661.065-.007.147-.024.217-.006l-.002.004c.69.298.557 1.435 1.041 1.923.831.568 1.19-.526 1.649-.981.409-.323 1.233-.402 1.419.2"/><path fill="#FEA1A3" d="M54.49 66.532c.223-.67-.093-1.455-.776-1.696-.838-.345-1.745.085-2.41.602-1.14-2.692-4.02-1.537-3.373 1.132.38 1.181 1.217 2.383 2.433 2.794.397.41.897.011 1.276-.212 1.048-.672 2.35-1.402 2.85-2.62m12.03 4.38c-.316.63-.368 1.657-.548 2.257-.357 1.784-.568 3.57-.58 5.38-.784-.87-1.652-1.664-2.554-2.41-5.508-4.437-14.957-8.294-22.028-6.459a15.8 15.8 0 0 0-5.87 3.108q-.315.274-.614.546a22.3 22.3 0 0 0 .626-5.138c-.028-1.204.03-2.508-.23-3.712 3.875.073 7.79-.588 11.575-1.352 3.32-.817 6.387-.482 9.371 1.23 3.705 2.03 7.034 4.732 10.854 6.55zM42.63 48.924c-.56-.02-1.13-.023-1.672-.183-.702-.176-1.556-.731-1.424-1.555.25-.546.97-.139 1.343.058.7.428 1.207 1.084 1.754 1.68m27.929 3.53c.421-.01 1.248-.055 1.229.544-.248.796-1.26.913-1.967.76-.558-.098-1.07-.348-1.58-.58.754-.291 1.5-.653 2.318-.724"/><path fill="#fff" d="M33.751 84.283c.5.554.366 2.233.15 3.282-.754-.55-1.436-1.149-1.994-1.799a.6.6 0 0 0 .123-.118c.34-.28 1.295-1.679 1.721-1.364m27.373 8.493q-.347.1-.699.179-.901.212-1.811.35c.435-.698.789-1.857 1.053-2.147.395-.532.678-.476.962.104.25.47.44.98.495 1.513M87.985 39.64c1.203 3.064.257 6.736-1.976 9.14l.059-.062c-1.511 1.705-3.88 2.596-6.137 2.207-3.156-.576-4.4-3.603-3.58-6.506q.029-.1.06-.198c.424 1.256 1.505 2.266 2.802 2.57 2.172.458 4.691-.195 6.35-1.681 1.42-1.319 2.475-3.468 2.42-5.47zm-55.407-3.527c-.557 2.965-3.019 5.121-6.1 4.234-2.194-.657-3.92-2.508-4.515-4.708l.025.082c-.93-3.145-.143-6.856 2.297-9.064-.938 1.769-.949 4.163-.265 5.975.826 2.069 2.79 3.775 4.94 4.33 1.296.306 2.715-.118 3.653-1.055q-.015.103-.035.205"/><path fill="#000" d="M27.954 48.477c-.383-.098-.19-.685.172-.61.445.071.23.728-.172.61m-3.966 3.363c-.153-.436.623-.67.672-.182.035.358-.54.544-.672.182m3.396 4.874c-.308-.332.307-.831.573-.472.23.327-.298.754-.573.472m8.512-1.554a.42.42 0 0 1 .486-.28c.207.041.305.276.244.464a.42.42 0 0 1-.486.28c-.207-.04-.305-.276-.244-.464m-3.071-2.675c.012-.42.776-.466.757-.013-.012.42-.775.468-.757.013m47.3 7.778c-.439-.11-.178-.77.221-.627.425.115.167.757-.22.627m-8.22 1.524c-.088-.394.602-.56.643-.13.035.356-.56.505-.643.13m2.412 5.454a.396.396 0 0 1 .456-.263c.195.039.287.26.23.436a.396.396 0 0 1-.456.263c-.195-.039-.287-.26-.23-.436m8.219-.429.013.014.034.023c-.386-.222.015-.826.377-.588.405.244-.081.865-.424.55zm-3.859-2.624c-.528-.092-.147-.88.262-.58.32.17.07.673-.262.58M77.371 59.8c-.33-.252.103-.777.424-.527.328.258-.104.774-.424.527m6.741 2.24c.01-.42.702-.463.682-.01-.013.42-.704.462-.682.01m-53.546-9.055c-.39-.067-.172-.655.171-.515.332.099.14.603-.171.515m3.009 5.29c-.368-.09-.164-.64.175-.538.353.094.154.628-.175.538"/><path fill="#000" d="M28.248 63.556c-4.322-1.242-8.544-4.235-9.987-8.646-.952-3.233-.173-6.864 1.49-9.735.456-.775 2.302-3.35 3.3-2.764.337.383-.9 1.145-1.12 1.548a13 13 0 0 0-1.679 2.706c-1.04 2.546-1.609 5.537-.622 8.184 1.357 3.532 4.706 5.967 8.177 7.203 3.144 1.05 6.505 1.315 9.799 1.092 5.09-.21 10.218-2.257 15.292-.995 4.9 1.33 8.76 4.854 13.223 7.11 5.171 2.654 11.715 4.15 17.086 1.284 4.242-2.136 6.095-7.132 5.594-11.674-.243-1.589-.77-3.157-1.694-4.482-.202-.294-.41-.583-.633-.861-.458-.558.485-1.298.924-.741 5.702 7.37 2.053 18.382-7.278 20.222-4.127.862-8.457.051-12.313-1.526-4.374-1.782-8.025-4.864-12.139-7.118-2.984-1.714-6.05-2.048-9.37-1.23-5.915 1.193-12.142 2.135-18.05.424z"/><path fill="#000" d="M43.267 93.158c-4.917-1.417-12.475-4.409-13.72-9.935-.538-2.614 1.53-4.682 2.452-6.946 1.263-2.777 1.754-5.843 1.76-8.88.008-.969-.044-1.937-.036-2.907-.03-.45.11-1.35.735-.89.557 1.429.458 3.09.493 4.596-.021 2.896-.574 5.806-1.757 8.457-.786 2.2-3.187 4.562-2.545 6.971 1.272 3.857 7.205 6.35 10.785 7.645 6.08 1.87 12.697 3.17 18.99 1.687 1.697-.383 3.41-1.123 4.36-2.657l-.024.039-.002.003c1.868-3.081.841-6.812.677-10.184-.142-2.363.074-4.678.537-6.988.223-.745.25-2.144.826-2.633.284-.184.71-.116.879.192.099.173.084.364.025.547a44 44 0 0 0-.97 4.612 29 29 0 0 0-.29 5.58c.108 2.361.48 4.738.09 7.093-.366 3.25-2.973 5.09-6.007 5.661-5.7 1.37-11.67.388-17.258-1.064"/><path fill="#000" d="M43.32 96.306c-5.497-1.568-14.717-5.788-16.716-11.49-.058-.309-.181-.782.16-.956.184-.089.358.053.414.225.42 1.002 1.104 1.84 1.813 2.65 6.596 6.62 16.265 9.897 25.518 9.517 3.519-.218 7.045-.919 10.232-2.445 1.101-.542 2.151-1.192 3.06-2.02.575-.516 1.375.367.797.898-6.68 5.614-17.186 5.753-25.277 3.622zm55.19-27.504v.007zm.002.009v.009l.003.02-.004-.029m.005.029v.005l.002.02v.004l-.004-.028zm.004.031v.01l.005.034zm.002.01v-.002l-.001-.008v-.006l.011.092zM7.501 41.201c-2.21-.753-4.364-2.282-5.273-4.497-.375-.813-.482-1.734-.182-2.59.405-1.238 1.228-2.38 2.4-2.985 2.004-1.008 4.255-1.282 6.41-1.81a67 67 0 0 0 5.345-1.652c.765-.26 1.5-.603 2.273-.836.28-.113.82-.1.709.33-.083.187-.275.29-.431.409-.558.385-1.167.69-1.784.971-3.551 1.548-7.34 2.445-11.16 3.014-1.068.264-1.758 1.273-2.223 2.208-.552 1.134-.622 2.637.29 3.604 1.341 1.493 3.353 2.828 5.41 2.877 1.563-.013 2.958-.544 4.444-.841.45-.088.903-.21 1.363-.216.691.034.796 1.005.087 1.137-2.572.207-5.084 1.748-7.68.877z"/><path fill="#000" d="M2.996 35.922c-.411-.32.344-.957.55-1.226 1.722-1.942 4.405-2.084 6.813-2.343 1.255-.155 2.511-.329 3.74-.637.905-.255 1.847-.484 2.66-.97.87-.457 1.715.844.115 1.3-1.255.477-2.534.914-3.865 1.124-2.226.422-4.518.293-6.743.69-.785.203-1.538.56-2.131 1.12-.254.247-.505.498-.71.787-.034.18-.282.26-.43.155z"/><path fill="#000" d="M3.02 37.309c-.349-.428-.149-1.09.008-1.565.196-.755.66-1.447 1.368-1.806.343-.17.696-.316 1.036-.491.119-.058.266-.018.32.108a.27.27 0 0 1-.13.337c-.538.305-1.2.475-1.59.982-.336.476-.457 1.091-.508 1.662-.032.232.071.494-.05.705-.096.147-.324.197-.454.068m98.777 16.284c2.297-.412 4.658-1.6 5.888-3.653.495-.747.738-1.642.57-2.533-.214-1.285-.856-2.537-1.924-3.312-1.829-1.299-4.013-1.908-6.065-2.753a68 68 0 0 1-5.037-2.437c-.716-.373-1.391-.823-2.12-1.17-.259-.154-.796-.222-.75.221.052.196.227.329.364.468.493.466 1.05.86 1.617 1.229 3.279 2.064 6.889 3.521 10.58 4.657 1.016.422 1.548 1.524 1.866 2.517.376 1.204.218 2.7-.83 3.52-1.55 1.274-3.739 2.291-5.781 2.03-1.543-.247-2.842-.982-4.267-1.5-.432-.153-.861-.342-1.314-.417-.69-.07-.94.873-.258 1.11 2.512.591 4.763 2.493 7.46 2.023z"/><path fill="#000" d="M107.045 49.052c.454-.255-.197-.999-.36-1.295-1.41-2.18-4.042-2.723-6.383-3.342-1.219-.341-2.434-.702-3.602-1.192-.856-.388-1.754-.757-2.484-1.359-.791-.582-1.822.576-.309 1.267 1.169.662 2.368 1.286 3.652 1.693 2.137.753 4.423.97 6.562 1.697.746.319 1.436.784 1.939 1.428.213.281.425.568.584.884.006.182.239.299.401.218"/><path fill="#000" d="M106.812 50.419c.409-.37.311-1.055.228-1.548-.081-.776-.435-1.53-1.081-1.99-.313-.22-.641-.417-.951-.642-.108-.075-.26-.057-.332.059a.27.27 0 0 0 .077.353c.486.382 1.115.65 1.424 1.21.261.52.288 1.147.253 1.72-.004.233-.145.476-.056.703.072.16.29.243.438.135M33.754 88.15c.273-.834.609-3.19-.002-3.867-.426-.315-1.381 1.085-1.72 1.364-.2.256-.656.382-.852.055-.21-.403.144-.81.353-1.136.814-1.339 2.77-1.778 3.388-.037.379 1.233.343 2.592.06 3.841-.205.712-1.366.575-1.227-.22m23.896 5.557c-.412-.518.601-2.138.984-2.574 1.41-1.662 2.664-1.35 3.5.594.107.264.18.536.234.815.194.805-1.11 1.174-1.237.299-.045-.555-.24-1.087-.501-1.576-.284-.58-.568-.636-.963-.105-.438.482-1.12 3.349-2.016 2.547zm-24.729-18.66c.03-.261.238-.46.388-.663.507-.609 1.048-1.084 1.632-1.596a15.8 15.8 0 0 1 5.87-3.108c7.071-1.836 16.52 2.022 22.028 6.458 1.037.86 2.032 1.782 2.903 2.811.332.413.919 1.139.24 1.51-.633.293-.818-.561-1.225-.858a62 62 0 0 0-1.535-1.484c-1.453-1.377-2.995-2.668-4.687-3.741-6.443-4.206-14.009-5.937-21.049-2.043-1.094.62-2.098 1.378-3.065 2.18-.357.23-1.313 1.351-1.5.535z"/><path fill="#000" d="M50.364 69.364c-1.216-.41-2.052-1.612-2.433-2.794-.646-2.67 2.233-3.823 3.373-1.131.665-.518 1.572-.949 2.41-.602.683.24.998 1.026.775 1.695-.499 1.218-1.802 1.949-2.85 2.62-.378.224-.879.623-1.276.212m.275-1.058c.665-.417 3.203-1.704 2.963-2.58l.003.02.002.007.005.031c-.187-.602-1.01-.523-1.42-.2-.458.456-.817 1.55-1.647.981-.485-.487-.351-1.624-1.042-1.922l.003-.005c-.071-.018-.153 0-.218.007-1.062.789.502 3.158 1.352 3.66m17.678-13.832c-.53-.21-2.099-.65-2.207-1.233-.122-.605.652-1.049 1.113-.635 1.464-.767 3.341-2.023 4.961-.98 1.007.745.396 2.192-.553 2.684-.992.62-2.245.513-3.314.163m1.504-.714c.707.154 1.72.037 1.967-.76.02-.6-.807-.555-1.23-.545-.816.072-1.563.434-2.318.725.512.231 1.023.482 1.58.58zM41.988 50.05c.568.048 2.168.351 2.524-.123.38-.487-.116-1.228-.715-1.063-.97-1.338-2.092-3.298-4.007-3.084-1.233.22-1.329 1.786-.698 2.65.613.996 1.782 1.458 2.896 1.62m-1.03-1.31c-.702-.175-1.556-.731-1.424-1.555.25-.546.97-.138 1.343.059.7.427 1.207 1.084 1.754 1.68-.561-.02-1.131-.023-1.674-.183m37.168 2.582c-1.804-.938-2.876-2.839-2.991-4.827-.213-3.368 1.713-6.516 4.066-8.778 2.232-2.089 6.03-4.146 8.395-1.13 1.212 1.417 1.915 3.252 2.055 5.105.3 4.028-1.902 8.426-5.797 9.883-1.836.65-3.988.703-5.728-.253m1.807-.397c2.257.388 4.625-.503 6.136-2.208q-.029.03-.058.063c2.522-2.716 3.402-7.05 1.397-10.296-.783-1.307-2.216-2.863-3.88-2.158-1.074.377-2.04 1.007-2.913 1.73-1.948 1.683-3.54 3.877-4.263 6.362-.82 2.904.425 5.93 3.58 6.507"/><path fill="#000" d="m80.867 41.174-.001-.008-.017.02zm5.792-4.646c2.47 2.377 1.137 6.508-1.094 8.582-1.66 1.486-4.179 2.14-6.351 1.68-1.358-.317-2.481-1.41-2.858-2.75-.153-.602-.32-1.603.193-2.063.526-1.855 2.064-3.196 3.52-4.358 1.792-1.392 4.596-2.843 6.59-1.09m-6.954-2.602c-1.356-.946.365-2.424 1.369-2.808.628-.214 1.7-.82 2.24-.212 2.042 1.466-2.256 3.824-3.608 3.02m-51.787 7.58c2.033-.038 3.838-1.263 4.826-2.993 1.69-2.92 1.365-6.597.263-9.67-1.07-2.864-3.556-6.396-7.015-4.747-1.716.731-3.162 2.061-4.111 3.658-2.061 3.474-2.047 8.392.794 11.43 1.355 1.398 3.26 2.403 5.243 2.321m-1.441-1.16c-2.194-.656-3.92-2.507-4.514-4.707l.024.082c-1.05-3.554.09-7.827 3.33-9.843 1.283-.822 3.257-1.578 4.433-.207.796.816 1.379 1.81 1.84 2.846.995 2.374 1.446 5.047.988 7.594-.558 2.966-3.02 5.122-6.101 4.236"/><path fill="#000" d="m29.979 31.198.005-.006.006.026zm-3.12-6.738c-3.27 1.03-3.914 5.322-2.839 8.172.826 2.07 2.79 3.776 4.94 4.331 1.358.32 2.85-.16 3.783-1.191.405-.472 1-1.294.746-1.934.354-1.895-.427-3.78-1.215-5.47-.985-2.042-2.851-4.59-5.417-3.907zm7.383.765c1.635-.244.75-2.333.024-3.124-.468-.47-1.159-1.49-1.912-1.186-2.481.405.32 4.428 1.888 4.309m9.995 13.456c.014-1.103 2.526-.633 3.313-.796 5.879-.125 11.825 1 17.352 2.966.599.186.435.96-.207.743-5.003-1.345-10.149-2.357-15.34-2.492q-1.638-.002-3.274.087c-.618-.031-1.735.408-1.845-.507z"/></g><defs><linearGradient id="a" x1="28.418" x2="76.618" y1="0" y2="102.959" gradientUnits="userSpaceOnUse"><stop stop-color="#B4098A"/><stop offset=".415" stop-color="#FA2956"/><stop offset="1" stop-color="#E5E5E5"/></linearGradient><clipPath id="b"><path fill="#fff" d="M1.873 20.86h106.436v76.716H1.873z"/></clipPath></defs></svg>