<svg xmlns="http://www.w3.org/2000/svg" width="803" height="552" fill="none"><g clip-path="url(#a)"><path fill="url(#b)" d="m284.956 186.112 496.85 140.106-1.386 4.917-496.85-140.106z"/><path fill="url(#c)" d="m268.755 271.599 496.85 140.106-1.386 4.917-496.85-140.106z"/><path fill="url(#d)" d="M274.401 217.071 771.25 357.177l-7.068 25.075-496.85-140.106z"/><path fill="#FFEFCD" d="m272.003 222.767-5.358 15.454 91.812 17.625z"/></g><path fill="#232826" d="M174.576 222.099c-.8.328-1.387.994-1.645 1.813a2.9 2.9 0 0 0 .315 2.428c4.349 6.901 22.452 23.973 96.126 33.278.283.019 1.764-.032 3.134-4.391 1.371-4.359.189-5.244-.084-5.405-65.725-34.526-90.319-30.916-97.85-27.751z"/><path fill="#C9CDA9" d="m199.808 186.872 35.545 18.908s-5.68-3.753-3.654-10.19c1.99-6.291 17.618-9.777 17.618-9.777l-30.7-11.426s-12.733 12.596-18.813 12.458z"/><path fill="url(#e)" d="m218.593 174.417 30.701 11.426s-15.66 3.461-17.618 9.776c-2.03 6.409 3.653 10.191 3.653 10.191l-35.545-18.908c2.842.052 7.123-2.636 10.868-5.563-.103.715.048 2.099 2.26 3.355 2.365 1.35 8.918 3.615 11.763 4.565-3.016 3.787-5.007 6.177-5.031 6.209l.222.195s5.413-6.51 12.03-15.198l-.218-.168c-2.518 3.301-4.851 6.298-6.811 8.713-2.786-.93-9.429-3.24-11.79-4.561-2.607-1.486-2.169-3.087-2.067-3.381.282-.204.561-.437.812-.666.062.048.169.006.189-.053l-.011-.082c3.683-2.976 6.542-5.816 6.542-5.816zm6.138 13.544s-.165.021-.186.08c-.017.086.022.166.081.186.086.017.165-.021.186-.08.016-.087-.022-.166-.108-.183zm-1.058-.368s-.166.021-.186.08c-.017.086.022.166.08.186.059.021.166-.021.186-.08 0 0-.021-.166-.08-.186m-1.089-.392s-.166.021-.186.08c-.017.087.021.166.08.186.086.017.166-.021.186-.08 0 0-.021-.166-.08-.186m-1.086-.364s-.166.021-.186.08c-.017.086.022.165.08.186.087.017.166-.022.186-.08 0 0-.021-.166-.08-.186m-1.089-.392s-.166.021-.186.08c-.017.086.021.165.08.186.086.017.166-.022.186-.08 0 0-.022-.166-.08-.186m-1.066-.424s-.165.022-.186.081c-.016.086.022.165.081.186.086.017.138-.018.186-.08 0 0-.022-.166-.081-.187m-1.061-.395s-.166.021-.186.08c-.021.059.021.166.08.186.086.017.166-.021.186-.08 0 0-.022-.166-.08-.186m-1.066-.423s-.165.021-.186.08c-.017.086.022.166.081.186.086.017.165-.021.186-.08 0 0-.022-.166-.081-.186m-1.069-.451s-.165.022-.186.08c-.016.087.022.166.081.186.086.017.165-.021.186-.08 0 0-.022-.165-.081-.186m-1.041-.454s-.165.021-.186.08c-.048.062.018.138.08.186.063.048.166-.021.186-.08 0 0-.021-.166-.08-.186m-1.021-.513s-.169-.006-.193.025c-.048.062-.006.169.053.189.062.048.141.01.189-.052l-.003-.028c-.007-.055-.018-.138-.077-.158zm-.921-.61s-.145-.038-.193.025a.135.135 0 0 0 .025.193.135.135 0 0 0 .193-.025l-.007-.055-.022-.166zm-.953-.859s-.065.149-.031.2c.035.052.122.069.201.03 0 0 .051-.034.048-.062l-.018-.138c-.035-.052-.149-.065-.2-.03m-.416-1.041s-.128.101-.12.156c.01.083.1.128.156.12.055-.007.106-.042.099-.097l-.011-.082c-.01-.083-.1-.128-.155-.121zm9.077 14.567s-.037.145.025.193a.135.135 0 0 0 .193-.025l.021-.059c-.008-.055-.015-.11-.05-.162a.135.135 0 0 0-.193.025zm.921-.905s-.146-.038-.194.025a.134.134 0 0 0 .026.193.135.135 0 0 0 .193-.025l.02-.059c-.007-.055-.014-.11-.049-.162zm.727-.881s-.145-.037-.193.025a.136.136 0 0 0 .025.194.135.135 0 0 0 .193-.025l-.007-.056-.021-.165zm.728-.88s-.145-.037-.193.025a.135.135 0 0 0 .025.194.135.135 0 0 0 .193-.025l-.007-.056-.022-.165zm.724-.907s-.145-.038-.193.025a.134.134 0 0 0 .025.193.135.135 0 0 0 .193-.025l.02-.059c-.007-.055-.014-.11-.049-.162zm.727-.88s-.145-.038-.193.025a.135.135 0 0 0 .025.193.136.136 0 0 0 .194-.025l.02-.059-.022-.166zm.697-.905s-.145-.037-.193.025a.135.135 0 0 0 .025.194.135.135 0 0 0 .193-.025l.02-.059c-.007-.055-.014-.111-.049-.162zm.728-.88s-.146-.037-.194.025a.136.136 0 0 0 .025.194.136.136 0 0 0 .194-.025l.02-.059-.021-.166zm.503-.879s-.038.145.025.193a.133.133 0 0 0 .193-.025l.02-.058a.34.34 0 0 0-.049-.162.134.134 0 0 0-.193.025zm.917-.932s-.145-.038-.193.025a.134.134 0 0 0 .025.193.135.135 0 0 0 .193-.025l.02-.059c-.007-.055-.014-.11-.049-.162zm.724-.908s-.145-.037-.193.025a.135.135 0 0 0 .025.193.135.135 0 0 0 .193-.025l.021-.059-.022-.165zm.696-.904s-.145-.038-.193.025a.135.135 0 0 0 .025.193.136.136 0 0 0 .194-.025l-.004-.028zm.7-.877s-.145-.037-.193.025a.135.135 0 0 0 .025.193.134.134 0 0 0 .194-.025l.02-.058a.34.34 0 0 0-.049-.162zm.724-.907s-.145-.038-.193.025a.135.135 0 0 0 .025.193.136.136 0 0 0 .194-.025l.02-.059c-.007-.055-.014-.11-.049-.162zm.697-.905s-.145-.037-.193.025a.135.135 0 0 0 .025.194.135.135 0 0 0 .193-.025l.02-.059-.021-.166zm.693-.931s-.145-.038-.193.025a.133.133 0 0 0 .025.193.135.135 0 0 0 .193-.025l-.007-.055c-.008-.055-.015-.111-.049-.162zm.696-.904s-.145-.038-.193.025a.135.135 0 0 0 .025.193.135.135 0 0 0 .193-.025l.021-.059c-.008-.055-.015-.11-.049-.162z"/><path fill="#232826" d="M249.395 185.994c-.166.022-15.514 3.499-17.418 9.583-1.928 6.115 3.309 9.701 3.555 9.866l-.329.491s-5.819-3.96-3.779-10.51c2.006-6.378 17.192-9.806 17.844-9.974l.131.572zM218.829 174.501c-.522.517-12.892 12.672-18.999 12.538l.011-.562c5.883.135 18.476-12.246 18.599-12.374z"/><path fill="#232826" d="m213.215 183.339-.022-.166s-.145-.037-.193.025c0 0-.037.145.025.193 0 0 .145.037.193-.025l-.007-.055zm-.809-.822-.018-.138s-.148-.065-.2-.03c0 0-.065.149-.03.201 0 0 .121.068.2.03 0 0 .052-.035.048-.063m-.443-1.037-.011-.082s-.101-.128-.156-.12c0 0-.127.1-.12.155 0 0 .101.128.156.121s.107-.042.1-.098zM210.79 180.874l.27.133s-.718 1.609 1.499 3.117l-.227.198c-2.345-1.632-1.535-3.393-1.539-3.421z"/><path fill="url(#f)" d="M197.265 161.717c3.712 5.889 20.036 22.014 88.977 30.756 0 0 1.309.139 2.56-3.84s.102-4.615.102-4.615c-61.54-32.349-84.13-28.438-90.572-25.751-1.358.569-1.871 2.235-1.095 3.453z"/><path fill="#EFDC8D" d="M288.908 184.019s1.118.613-.017 4.408c.594-2.125-.537-2.624-.537-2.624-63.105-27.32-84.368-27.678-90.233-26.805-.607.078-.989.38-1.112.733a2.4 2.4 0 0 1 1.35-1.494c6.411-2.712 29.032-6.599 90.573 25.751z"/><path fill="#232826" d="M205.84 164.85c.2.03-.26 1.24-.475 1.745-.15.357-.493.962-.614.894-.183-.117-.363-.206-.519-.326-2.054-1.333-3.585-2.538-4.757-3.564.287.047.618.004.848-.166.251-.229.339-.634.347-1a80 80 0 0 0 4.609 2.209c.18.089.36.178.564.236zM266.88 184.46c.287.047-.705 1.916-1.088 2.639-.113.211-.271.512-.464.537-.2-.03-.432-.084-.636-.142-10.875-2.266-20.041-4.558-27.747-6.842.561-1.083 1.279-2.467 1.958-4.155 7.685 2.343 16.722 4.932 27.365 7.79.204.058.408.116.608.146zM267.979 181.903l-.098.321a2905 2905 0 0 0-28.481-9.245l.099-.321c8.519 2.712 18.1 5.82 28.48 9.245M267.866 182.761s-.021-.166-.111-.21c0 0-.166.021-.21.111 0 0 .021.166.111.21 0 0 .166-.021.21-.111m-1.262-.426s-.021-.166-.111-.21c0 0-.166.021-.21.111 0 0 .021.166.111.21 0 0 .166-.021.21-.111m-1.231-.402s-.021-.165-.111-.21c0 0-.166.022-.21.112 0 0 .021.165.111.21 0 0 .166-.022.21-.112m-1.258-.398s-.022-.165-.112-.21c0 0-.165.022-.21.112 0 0 .025.193.112.21 0 0 .165-.022.21-.112m-1.231-.401s-.022-.166-.112-.211c0 0-.165.022-.21.112 0 0 .022.166.112.21 0 0 .165-.021.21-.111m-1.235-.43s-.021-.165-.111-.21c0 0-.166.022-.21.112 0 0 .021.165.111.21 0 0 .166-.022.21-.112m-1.231-.401s-.021-.166-.111-.211c0 0-.166.022-.21.112 0 0 .021.166.111.21 0 0 .166-.021.21-.111m-1.258-.399s-.022-.165-.112-.21c0 0-.165.022-.21.112 0 0 .022.165.112.21s.165-.022.21-.112m-1.231-.401s-.025-.193-.112-.21c0 0-.165.021-.21.111 0 0 .022.166.112.21 0 0 .165-.021.21-.111m-1.262-.426s-.022-.166-.112-.21c0 0-.165.021-.21.111 0 0 .022.166.112.21.09.045.165-.021.21-.111m-1.231-.402s-.022-.165-.112-.21c0 0-.165.022-.21.112 0 0 .022.165.112.21.086.017.165-.022.21-.112m-1.259-.398s-.021-.165-.111-.21c0 0-.166.022-.21.112 0 0 .021.165.111.21.087.017.193-.025.21-.112m-1.231-.401s-.021-.166-.111-.211c0 0-.166.022-.21.112 0 0 .021.166.111.21 0 0 .193-.025.21-.111m-1.231-.402s-.025-.193-.111-.21c0 0-.166.021-.21.111 0 0 .021.166.111.21 0 0 .193-.025.21-.111m-1.262-.426s-.021-.165-.111-.21c0 0-.166.022-.21.111 0 0 .021.166.111.211 0 0 .166-.022.21-.112m-1.231-.402s-.025-.193-.111-.21c0 0-.166.022-.21.112 0 0 .021.165.111.21 0 0 .166-.022.21-.112m-1.258-.398s-.022-.165-.112-.21c0 0-.165.022-.21.112 0 0 .022.165.112.21.086.017.165-.022.21-.112m-1.231-.401s-.022-.166-.112-.21c0 0-.165.021-.21.111 0 0 .022.166.112.21.086.017.165-.021.21-.111m-1.259-.398s-.021-.166-.111-.211c0 0-.166.022-.21.112 0 0 .021.165.111.21.087.017.166-.022.21-.111m-1.231-.402s-.021-.166-.111-.21c0 0-.166.021-.21.111 0 0 .025.193.111.21 0 0 .166-.021.21-.111m-1.258-.398s-.022-.166-.112-.21c0 0-.165.021-.21.111 0 0 .025.193.112.21 0 0 .193-.025.21-.111m-1.231-.402s-.022-.166-.112-.21c0 0-.165.021-.21.111 0 0 .025.194.112.21 0 0 .165-.021.21-.111m-1.255-.37s-.022-.166-.112-.211c0 0-.165.022-.21.112 0 0 .022.165.112.21.086.017.165-.022.21-.111M206.358 165.843c7.636 3.472 18.219 7.376 31.43 11.641-.13.297-.239.536-.372.806l-.032-.024c-.086-.017-.193.025-.21.111-.016.087.022.166.112.21-.328.716-.667 1.35-.961 1.893-.086-.017-.173-.034-.235-.082-.204-.058-.408-.115-.584-.177-14.925-4.491-24.215-8.815-30.004-12.331.239-.536.539-1.248.88-2.078zm29.768 12.025s-.166.021-.21.111c-.017.087.021.166.111.21.087.017.194-.025.21-.111.017-.087-.025-.193-.111-.21m-1.231-.402s-.166.021-.21.111c-.017.087.022.166.111.211.087.016.194-.026.211-.112s-.026-.193-.112-.21m-1.234-.429s-.166.021-.21.111c-.017.087.021.166.111.21.086.017.166-.021.21-.111.017-.087-.025-.193-.111-.21m-1.235-.43s-.166.022-.21.112c-.017.086.022.165.111.21.087.017.166-.022.211-.111.016-.087-.022-.166-.112-.211m-1.234-.429s-.194.025-.211.112c-.016.086.022.165.112.21s.166-.022.214-.084c.016-.087-.022-.166-.112-.21zm-1.231-.402s-.166.022-.21.112c-.017.086.021.165.111.21s.166-.022.214-.084c.017-.086-.025-.193-.112-.21zm-1.262-.425s-.166.021-.214.084c-.017.086.025.193.111.21.087.017.166-.022.21-.112.017-.086-.021-.165-.111-.21zm-1.211-.461s-.166.022-.21.112.021.165.111.21.166-.022.214-.084c0 0-.021-.166-.111-.21zm-1.234-.429s-.166.021-.214.084a.21.21 0 0 0 .084.213c.086.017.193-.025.21-.111s-.022-.166-.112-.21zm-1.235-.429s-.166.021-.21.111a.22.22 0 0 0 .084.214c.086.017.193-.025.213-.084 0 0-.025-.193-.111-.21zm-1.238-.457s-.193.025-.214.084a.22.22 0 0 0 .084.213c.087.017.193-.025.21-.111a.22.22 0 0 0-.084-.214zm-1.211-.461s-.193.025-.213.084c-.017.087.025.193.111.21a.22.22 0 0 0 .214-.084s-.025-.193-.084-.213zm-1.238-.457s-.165.022-.21.112a.22.22 0 0 0 .084.214c.087.016.193-.026.21-.112a.22.22 0 0 0-.084-.214m-1.21-.46s-.166.021-.214.084c-.017.086.025.193.084.213.09.045.193-.025.214-.083 0 0-.022-.166-.084-.214m-1.238-.457s-.166.022-.214.084c-.017.086.022.166.112.21a.21.21 0 0 0 .213-.084s-.021-.165-.084-.213zm-1.211-.46s-.193.025-.213.083c-.045.09.021.166.084.214 0 0 .165-.021.213-.084 0 0-.025-.193-.084-.213m-1.214-.488s-.193.025-.213.083c-.045.09.021.166.083.214.09.045.166-.021.214-.084 0 0-.021-.165-.084-.213m-1.21-.461s-.166.022-.214.084a.22.22 0 0 0 .084.214c.09.044.166-.022.214-.084 0 0-.022-.166-.084-.214m-1.214-.488s-.194.025-.214.084c-.017.086.025.193.084.214.09.044.193-.026.213-.084 0 0-.021-.166-.083-.214m-1.214-.488s-.194.025-.214.084c-.045.09.021.165.084.213.09.045.193-.025.213-.083a.22.22 0 0 0-.083-.214m-1.218-.516s-.166.022-.214.084c-.044.09.025.193.084.214a.22.22 0 0 0 .214-.084s-.022-.166-.084-.214m-1.19-.519s-.166.022-.214.084c-.044.09.022.166.084.214.09.044.166-.022.214-.084 0 0-.022-.166-.084-.214m-1.218-.516s-.165.022-.213.084c-.045.09.021.166.083.214.09.044.166-.022.214-.084a.22.22 0 0 0-.084-.214m-1.19-.519s-.166.022-.214.084c-.044.09.022.166.084.214.09.044.166-.022.214-.084a.22.22 0 0 0-.084-.214m-1.19-.519s-.166.021-.214.084c-.044.09.022.165.084.213.09.045.169.007.214-.083a.22.22 0 0 0-.084-.214"/><path fill="#232826" d="M206.642 165.19s-.082.235-.15.356c7.632 3.445 18.191 7.38 31.433 11.669.134-.27.236-.564.366-.861l-.236-.082c-.204-.058-.408-.115-.584-.177-15.053-4.615-24.702-8.247-30.829-10.905"/><path fill="#232826" d="m237.858 177.531.098-.321-.055.007c-.045.09-.085.208-.13.298 0 0 .055-.008.059.02zM237.477 178.476s-.018-.138-.08-.186l-.133.27c.086.017.165-.021.21-.111zM266.977 186.295a631 631 0 0 0 20.152 4.544c-.284.402-.628.783-.924.877-7.346-1.236-13.787-2.646-20.015-3.916.254-.425.496-.934.787-1.505m-.01.787s-.025-.193-.111-.21c-.087-.017-.166.022-.183.108s.022.166.112.21c0 0 .165-.021.182-.108m1.276.312s-.026-.193-.112-.21-.166.021-.21.111c-.017.087.021.166.135.179.087.017.166-.021.183-.108zm1.271.284s-.025-.193-.111-.21c-.087-.017-.166.021-.21.111-.017.087.021.166.111.21.087.017.166-.021.183-.107zm1.272.284s-.025-.193-.111-.21c-.083.011-.166.022-.179.136-.017.086.021.165.108.182.086.017.165-.021.182-.108m1.3.281s-.026-.193-.14-.207c-.086-.017-.165.022-.178.136-.017.086.021.165.135.179.086.016.166-.022.183-.108m1.271.284s-.025-.193-.111-.21c-.087-.017-.193.025-.21.111-.017.087.021.166.111.21.087.017.166-.021.183-.108zm1.272.284s-.025-.193-.111-.21c-.083.011-.166.021-.207.139-.017.086.022.166.136.179.086.017.165-.022.182-.108m11.217 2.306s.022.166.136.179c.086.017.165-.021.182-.108 0 0-.025-.193-.139-.206-.086-.017-.193.025-.179.135m-1.295-.253s.021.166.135.179c.086.017.166-.021.182-.108 0 0-.025-.193-.111-.21-.083.011-.193.025-.179.136zm-1.269-.256s.022.165.136.179c.086.017.165-.022.182-.108 0 0-.021-.166-.135-.179-.087-.017-.166.022-.179.135zm-1.296-.253s.022.166.136.179c.086.017.166-.022.182-.108 0 0-.025-.193-.111-.21-.083.011-.193.025-.179.135zm-1.268-.257s.022.166.112.21c.083-.01.165-.021.182-.107.017-.087-.021-.166-.135-.179-.087-.017-.194.025-.179.135zm-1.272-.284s.022.166.136.179c.086.017.166-.021.182-.108 0 0-.025-.193-.139-.206-.086-.017-.165.021-.179.135m-1.295-.253s.021.166.135.179c.087.017.166-.021.183-.108.016-.086-.022-.165-.136-.179-.086-.016-.166.022-.179.136zm-1.272-.284s.021.166.111.21c.087.017.166-.021.183-.108 0 0-.025-.193-.139-.206-.087-.017-.166.021-.179.135zm-1.3-.28s.022.165.14.206c.086.017.165-.021.182-.108 0 0-.025-.193-.139-.206-.087-.017-.166.021-.21.111zM287.756 189.833l-.64-.17a1176 1176 0 0 1-19.398-5.006 24 24 0 0 1-.587 1.311 532 532 0 0 0 20.207 4.536c.261-.37.414-.699.414-.699z"/><path fill="#232826" d="M239.355 173.716c-.911 2.924-2.246 6.043-4.175 8.903l-.277-.188c5.724-8.431 6.126-19.371 6.115-19.453l.339.012s-.17 4.96-1.999 10.754zM206.723 163.22c-.578 1.815-1.331 3.793-2.323 5.661l-.301-.158c2.907-5.483 3.817-12.084 3.81-12.139l.315.044s-.397 2.997-1.529 6.596zM267.921 182.553c-.693 2.222-1.731 4.602-3.305 6.742l-.277-.189c4.567-6.316 4.654-14.718 4.643-14.8l.339.012s-.034 3.848-1.427 8.238z"/><path fill="#232826" d="M289.043 183.75c-60.997-32.054-83.827-28.701-90.797-25.749-.72.29-1.259.893-1.497 1.654a2.6 2.6 0 0 0 .287 2.208c4.032 6.409 20.821 22.221 89.189 30.868.169.007 1.578.048 2.87-4.048s.093-4.895-.055-4.96zm-2.748 8.439c-68.113-8.625-84.77-24.285-88.791-30.612a2.14 2.14 0 0 1-.226-1.738 2.1 2.1 0 0 1 1.178-1.304c6.89-2.914 29.531-6.214 90.289 25.731 0 0 .929.666-.227 4.295s-2.251 3.632-2.251 3.632z"/><path fill="url(#g)" d="M1.129 150.171c11.375 18 61.135 67.252 271.72 93.882 0 0 4.017.462 7.849-11.737 3.835-12.172.27-14.123.27-14.123C93.07 119.475 24.082 131.339 4.444 139.61c-4.124 1.742-5.715 6.775-3.315 10.561"/><path fill="url(#h)" d="M34.066 134.353c-2.235 18.445-11.167 36.103-11.652 37.12-11.887-8.757-18.078-16.233-21.26-21.292-2.373-3.789-.782-8.822 3.314-10.56 5.51-2.313 14.855-4.9 29.598-5.268"/><path fill="#232826" d="M277.493 235.917s-1.922 4.43-3.752 5.257c-22.461-3.739-43.082-7.575-62.051-11.43 1.39-2.481 3.018-5.723 4.625-9.552 18.2 4.853 37.889 9.933 59.235 15.247zM130.411 183.331c-5.545 17.583-13.656 30.112-13.769 30.323l-.336-.209c.189-.277 18.397-28.398 18.751-59.59l.394.005c-.126 10.483-2.259 20.636-5.036 29.499zM30.394 152.535c-3.458 10.971-7.603 19.029-7.671 19.15l-.36-.178c.089-.18 9.388-18.25 11.699-37.182l.4.061c-.773 6.358-2.345 12.622-4.068 18.149M217.433 211.103c-4.206 13.425-10.719 22.912-10.815 23.037l-.339-.237c.14-.215 14.695-21.463 14.283-45.373l.393.005c.15 8.062-1.397 15.81-3.522 22.568"/><path fill="url(#i)" d="M26.299 168.971a160 160 0 0 0 3.464-8.335c18.791 8.115 48.24 19.198 94.16 33.282.585.176 1.2.377 1.784.554l.349.095a136 136 0 0 1-5.987 12.675c-.262-.078-.145-.037-.376-.091-.612-.174-1.228-.375-1.84-.548-45.531-13.684-73.934-26.867-91.582-37.629zm92.514 36.806s-.225.001-.269.091-.027.228.091.269c.09.045.228.027.269-.091l-.004-.027a.22.22 0 0 0-.115-.238zm.769-1.418s-.224.001-.268.09c-.045.09.001.225.091.269.093.072.224-.001.269-.091a.27.27 0 0 0-.088-.241zm.712-1.44s-.225.001-.269.091.001.225.091.269.224-.001.269-.091c0 0-.029-.221-.119-.265zm.707-1.467s-.224.002-.269.091c-.044.09.001.225.091.269s.225-.001.269-.091a.22.22 0 0 0-.115-.237zm.708-1.466s-.225.001-.269.091.001.224.091.268.224-.001.269-.091c0 0-.029-.22-.119-.265zm2.452-5.538s.22-.029.265-.119c.044-.089-.029-.22-.119-.265-.117-.041-.221.029-.265.119s.001.224.119.265m-.622 1.484s.221-.029.269-.091c0 0-.028-.221-.118-.265-.118-.041-.221.028-.266.118-.044.09.029.221.119.265zm-.648 1.487s.224-.001.269-.091c0 0-.029-.221-.119-.265-.118-.041-.221.028-.269.091a.22.22 0 0 0 .091.269zm-.68 1.463s.224-.001.269-.091c0 0-.029-.221-.119-.265a.22.22 0 0 0-.269.091.22.22 0 0 0 .091.269z"/><path fill="#232826" d="M129.39 178.921s.028.221.146.261c.114.014.221-.028.234-.142 0 0-.029-.221-.146-.262-.118-.041-.221.029-.262.146zM125.849 189.677s.029.221.119.265c.117.041.221-.028.265-.118 0 0-.029-.221-.119-.266-.117-.041-.22.029-.265.119M128.946 180.467s.029.22.147.261c.09.045.22-.028.234-.142 0 0-.029-.221-.146-.262-.118-.041-.221.029-.262.146zM127.89 184.025s.028.221.146.262.221-.029.265-.119c.041-.117-.028-.221-.146-.261s-.221.028-.265.118M128.471 182.014s.028.22.146.261.221-.028.261-.146-.028-.221-.146-.262c-.117-.04-.221.029-.265.119zM126.404 188.148s.029.22.119.265c.117.041.221-.029.265-.119.041-.117-.029-.221-.119-.265-.117-.041-.22.029-.265.119M125.287 191.181s.028.221.118.265c.118.041.221-.029.266-.119 0 0-.029-.22-.119-.265-.118-.041-.221.029-.265.119M116.203 210.093s-.026.228.063.272c.09.045.228.027.273-.063 0 0-.029-.221-.091-.269-.09-.045-.228-.027-.273.063zM114.542 212.862s-.03.2.036.276c.093.072.228.027.276-.036l-.007-.055s.033-.173-.033-.248c-.093-.072-.228-.027-.276.035zM117.007 208.698s-.027.228.063.272.228.027.273-.063l-.007-.055s.002-.197-.088-.241c-.09-.045-.228-.027-.272.063zM124.692 192.659s.029.221.119.266c.117.04.22-.029.265-.119 0 0-.029-.221-.119-.265-.117-.041-.221.028-.265.118M117.804 207.276s-.027.228.063.273c.09.044.228.026.269-.091 0 0-.029-.221-.091-.269-.094-.072-.228-.027-.272.063zM115.377 211.489s-.026.228.064.273c.093.072.2.03.272-.064l-.003-.027a.27.27 0 0 0-.088-.241c-.093-.072-.228-.027-.272.063zM133.053 158.298s.084.213.198.227c.11-.015.193-.025.206-.139l-.007-.056c-.014-.11-.084-.213-.198-.226-.11.014-.213.083-.227.197zM132.93 159.913s.084.213.198.227c.083-.011.19-.053.207-.139-.018-.138-.088-.242-.202-.255-.11.014-.213.084-.227.198zM132.778 161.532s.084.214.17.231c.083-.011.194-.025.207-.139-.018-.138-.088-.241-.174-.258-.114-.014-.217.056-.23.17zM132.589 163.131s.056.217.17.23c.083-.01.193-.025.206-.139-.017-.138-.059-.244-.173-.258-.114-.013-.218.057-.231.171zM133.231 155.106s.084.213.195.199c.083-.011.189-.053.206-.139l-.007-.055c-.014-.111-.084-.214-.198-.227-.11.014-.213.084-.199.194zM133.271 153.473s.084.213.194.199a.26.26 0 0 0 .207-.139l-.008-.055c-.014-.111-.083-.214-.194-.2-.11.015-.213.084-.199.195M133.156 156.714s.084.213.197.227a.25.25 0 0 0 .207-.139l-.007-.056s-.057-.217-.17-.23c-.111.014-.214.084-.227.198M129.81 177.381s.029.22.146.261c.114.014.221-.028.234-.142 0 0-.028-.221-.146-.262-.114-.013-.221.029-.234.143M132.373 164.727s.057.217.171.231c.083-.011.193-.025.234-.143l-.004-.027c.013-.114-.056-.218-.17-.231s-.217.056-.231.17M131.289 171.068s.029.221.17.231c.114.013.221-.029.235-.143s-.029-.221-.143-.234-.221.029-.234.143zM131.593 169.514s.028.221.17.231c.114.013.193-.025.234-.143 0 0-.032-.248-.174-.258-.114-.013-.221.029-.23.17M131.888 167.906s.056.217.17.23a.206.206 0 0 0 .234-.142s-.032-.249-.174-.258c-.114-.014-.221.028-.23.17M132.159 166.325s.056.218.17.231c.083-.011.194-.025.207-.139 0 0-.06-.245-.174-.258s-.217.056-.231.17zM130.217 175.81s.029.22.143.234c.114.013.221-.029.234-.143 0 0-.029-.221-.146-.261-.114-.014-.221.028-.235.142zM130.579 174.248s.029.221.143.234.221-.028.234-.142c0 0-.029-.221-.146-.262-.114-.013-.221.029-.234.143zM130.96 172.656s.029.221.143.234.221-.028.234-.142c0 0-.029-.221-.146-.262-.114-.013-.221.029-.234.143zM212.544 219.286l-.011-.082c.377.091.785.207 1.162.298.856.113-2.154 5.892-3.275 8.058-.363.664-.952 1.751-1.069 1.71-.664-.138-1.7-.341-2.333-.455-33.199-6.893-61.168-13.931-84.691-20.871 1.766-3.26 3.872-7.574 5.987-12.675 23.465 7.144 51.073 15.071 83.58 23.765.117.041.231.054.321.099 0 0-.027.003-.051.034-.045.09.028.221.118.266.118.04.221-.029.269-.091zm-4.343 8.477s-.225.001-.269.091c-.072.094-.027.228.063.273.09.044.228.026.269-.091 0 0-.029-.221-.091-.269zm.77-1.418s-.225.001-.269.091.001.224.091.268.228.027.269-.091a.27.27 0 0 0-.088-.241zm.738-1.443s-.224.001-.269.091c-.044.09.002.224.092.269.09.044.224-.001.268-.091 0 0-.028-.221-.118-.266zm.711-1.439s-.224.001-.268.091.001.224.091.268.224-.001.269-.091c0 0-.029-.22-.092-.268m.708-1.467s-.224.001-.269.091a.22.22 0 0 0 .091.269c.09.044.225-.002.269-.091 0 0-.029-.221-.119-.266zm.68-1.464s-.224.001-.269.091c-.044.09.001.225.091.269s.225-.001.265-.118c.045-.09-.001-.225-.091-.269zM213.404 216.141s.029.221.119.265c.117.041.22-.029.265-.119 0 0-.029-.22-.119-.265-.09-.044-.221.029-.265.119M212.786 217.65s.028.22.118.265c.118.041.221-.029.266-.119 0 0-.029-.221-.119-.265-.118-.041-.221.029-.265.119M214.498 213.134s.029.221.119.265c.117.041.22-.029.265-.118.044-.09-.029-.221-.119-.266-.117-.041-.221.029-.265.119M213.961 214.637s.028.221.118.265c.118.041.221-.029.265-.118 0 0-.028-.221-.118-.266-.09-.044-.221.029-.265.119M215.03 211.58s.028.221.118.266c.118.041.221-.029.262-.146.041-.118-.029-.221-.119-.266-.117-.041-.22.029-.265.119zM207.135 229.272s-.026.228.064.273c.09.044.228.026.272-.064 0 0-.028-.221-.091-.269-.09-.044-.228-.026-.269.091zM215.502 210.06s.029.22.147.261.22-.028.261-.146c.045-.09-.028-.221-.142-.234s-.221.029-.262.146zM205.499 232.039s-.027.228.063.272c.094.073.228.027.276-.035l.02-.059c.017-.086-.021-.166-.087-.241-.09-.045-.228-.027-.272.063M206.33 230.639s-.027.228.063.272c.094.073.228.027.273-.063l-.004-.028a.27.27 0 0 0-.087-.241c-.09-.044-.228-.026-.273.064zM204.614 233.386s-.057.204.036.276c.094.072.204.058.276-.036 0 0-.003-.027.021-.059a.22.22 0 0 0-.084-.213c-.094-.072-.228-.027-.304.039zM218.332 197.489s.057.217.171.23c.083-.01.193-.025.234-.142l-.004-.028c.013-.114-.056-.217-.17-.23s-.217.056-.231.17M218.515 195.862s.084.214.171.231c.11-.014.193-.025.206-.139l-.004-.028c.014-.114-.056-.217-.17-.23s-.217.056-.23.17zM218.674 194.271s.084.214.198.227c.111-.014.194-.025.207-.139l-.004-.028c-.014-.11-.084-.213-.198-.227-.11.015-.213.084-.227.198zM219.031 189.679s.084.214.194.199c.083-.011.162-.049.179-.135l-.007-.055c-.014-.111-.08-.186-.194-.2-.111.015-.214.084-.2.194zM218.089 199.06s.057.218.171.231c.083-.011.193-.025.234-.143 0 0-.06-.245-.174-.258s-.217.056-.231.17M217.519 202.251s.028.221.17.23c.083-.01.193-.025.234-.142 0 0-.032-.249-.174-.258-.114-.014-.221.028-.234.142zM216.807 205.402s.029.221.143.235.22-.029.234-.143c0 0-.029-.221-.147-.262-.114-.013-.22.029-.234.143zM217.187 203.811s.028.22.142.234c.114.013.221-.029.235-.143 0 0-.029-.221-.147-.262-.114-.013-.221.029-.234.143zM216.419 206.938s.028.22.142.234c.114.013.221-.029.235-.143 0 0-.029-.221-.147-.262-.09-.044-.221.029-.261.147zM215.975 208.511s.028.221.146.262c.114.013.221-.029.262-.146.041-.118-.029-.221-.147-.262-.114-.013-.22.029-.261.146M217.822 200.668s.029.221.17.23c.114.014.193-.025.234-.142 0 0-.06-.245-.174-.258s-.217.056-.23.17M128.541 188.411c-41.624-12.985-75.067-23.915-99.399-32.547l.147-.384c24.332 8.632 57.774 19.562 99.399 32.547l-.119.38zM280.176 233.917l-3.789-1.08A10272 10272 0 0 1 216 214.988l.119-.38c19.067 5.694 39.378 11.676 60.387 17.848l3.789 1.081zM220.701 193.965l-.15.356c-30.948-13.33-59.786-24.465-85.747-33.11l.119-.38c25.961 8.645 54.827 19.776 85.775 33.106zM129.275 186.713s-.029-.221-.146-.262c0 0-.221.029-.262.146 0 0 .029.221.146.262.118.041.221-.029.262-.146m-1.611-.521s-.029-.221-.147-.262c0 0-.22.029-.261.146 0 0 .028.221.146.262s.221-.029.262-.146m-1.487-.425s-.029-.221-.146-.261c0 0-.221.028-.262.146 0 0 .029.22.146.261.118.041.221-.028.262-.146m-1.552-.5s-.029-.221-.147-.262c0 0-.22.029-.261.146 0 0 .028.221.146.262s.221-.029.262-.146m-1.522-.476s-.028-.221-.146-.262c0 0-.221.029-.262.146 0 0 .029.221.147.262s.22-.029.261-.146m-1.549-.473s-.028-.221-.146-.262c0 0-.221.029-.261.146 0 0 .028.221.146.262s.221-.029.261-.146m-1.552-.5s-.029-.221-.146-.262c0 0-.221.029-.262.146 0 0 .029.221.146.262.118.041.221-.029.262-.146m-1.549-.473s-.029-.221-.146-.262c0 0-.221.029-.262.146 0 0 .029.221.146.262.118.041.221-.028.262-.146m-1.521-.476s-.029-.221-.146-.262c0 0-.221.029-.262.146 0 0 .029.221.146.262.118.041.221-.029.262-.146m-1.553-.501s-.028-.22-.146-.261c0 0-.221.028-.262.146 0 0 .029.221.147.262.117.04.22-.029.261-.147m-1.549-.472s-.028-.221-.146-.262c0 0-.221.029-.261.146 0 0 .028.221.146.262s.221-.029.261-.146m-1.552-.501s-.029-.22-.146-.261c0 0-.221.028-.262.146 0 0 .029.221.146.262.118.04.221-.029.262-.147m-1.521-.476s-.029-.221-.147-.262c0 0-.22.029-.261.147 0 0 .028.22.146.261s.221-.028.262-.146m-1.553-.5s-.028-.221-.146-.262c0 0-.221.029-.262.146 0 0 .029.221.147.262s.22-.029.261-.146m-1.549-.473s-.028-.221-.118-.265c0 0-.221.029-.262.146 0 0 .029.221.146.262.118.041.221-.029.262-.146zm-1.525-.504s-.028-.221-.146-.261c0 0-.221.028-.261.146 0 0 .028.221.146.261s.221-.028.261-.146m-1.548-.472s-.029-.221-.147-.262c0 0-.22.029-.261.146 0 0 .028.221.146.262s.221-.029.262-.146m-1.553-.501s-.029-.221-.146-.261c0 0-.221.028-.262.146 0 0 .029.221.146.261 0 0 .221-.028.262-.146m-1.549-.472s-.028-.221-.118-.266c0 0-.221.029-.262.147 0 0 .029.22.119.265.117.041.22-.029.261-.146m-1.525-.504s-.028-.221-.146-.262c0 0-.22.029-.262.146 0 0 .03.221.147.262s.22-.029.261-.146m-1.552-.501s-.029-.22-.146-.261c0 0-.221.028-.262.146 0 0 .029.221.146.262.118.04.221-.029.262-.147m-1.521-.476s-.03-.221-.147-.262c0 0-.22.029-.261.147 0 0 .028.22.146.261s.22-.028.262-.146m-1.553-.5s-.029-.221-.146-.262c0 0-.22.029-.262.146 0 0 .029.221.146.262.118.041.221-.029.262-.146m-1.552-.5s-.029-.221-.147-.262c0 0-.22.029-.261.146 0 0 .028.221.146.262 0 0 .22-.029.265-.119zm-1.525-.504s-.029-.221-.146-.262c0 0-.221.029-.262.146 0 0 .029.221.146.262.118.041.22-.029.262-.146m-1.55-.473s-.028-.221-.145-.262c0 0-.221.029-.262.146 0 0 .029.221.146.262 0 0 .221-.028.262-.146m-1.552-.5s-.028-.221-.146-.262c0 0-.22.029-.261.146 0 0 .028.221.146.262s.22-.029.261-.146m-1.524-.504s-.03-.221-.147-.262c0 0-.22.029-.261.146 0 0 .028.221.146.262s.22-.029.262-.146m-1.553-.5s-.029-.221-.146-.262c0 0-.221.028-.262.146 0 0 .029.221.146.262 0 0 .221-.029.262-.146m-1.525-.504s-.029-.221-.146-.262c0 0-.22.029-.262.146 0 0 .029.221.147.262 0 0 .22-.029.265-.119zM83 172.058s-.028-.221-.146-.262c0 0-.22.029-.262.146 0 0 .03.221.147.262 0 0 .22-.028.261-.146m-1.525-.504s-.028-.221-.146-.262c0 0-.22.029-.261.147 0 0 .028.22.146.261s.22-.028.261-.146m-1.552-.5s-.029-.221-.146-.262c0 0-.221.029-.262.146 0 0 .029.221.146.262.118.041.221-.029.262-.146m-1.525-.504s-.029-.221-.119-.265c0 0-.22.028-.261.146 0 0 .028.221.146.262.118.04.22-.029.265-.119zm-1.552-.5s-.03-.221-.119-.266c0 0-.22.029-.262.147 0 0 .029.22.147.261s.22-.028.265-.118zm-1.525-.504s-.029-.221-.146-.262c0 0-.221.029-.262.146 0 0 .028.221.146.262 0 0 .22-.029.262-.146m-1.553-.501s-.028-.22-.118-.265c0 0-.221.029-.266.119 0 0 .03.221.147.261 0 0 .22-.028.261-.146zm-1.525-.503s-.028-.221-.115-.238c0 0-.22.029-.265.119 0 0 .029.22.119.265 0 0 .22-.029.261-.146m-1.552-.501s-.029-.221-.119-.265c0 0-.22.029-.265.119 0 0 .029.22.146.261 0 0 .221-.028.262-.146zm-1.525-.504s-.029-.22-.119-.265c0 0-.22.029-.265.119 0 0 .029.221.119.265 0 0 .22-.029.261-.146zm-1.552-.5s-.03-.221-.12-.265c0 0-.22.029-.264.118 0 0 .028.221.146.262 0 0 .22-.029.262-.146zm-1.529-.531s-.029-.221-.118-.266c0 0-.221.029-.266.119 0 0 .029.221.147.262s.22-.029.261-.147zm-1.525-.504s-.028-.221-.118-.265c0 0-.221.028-.266.118 0 0 .029.221.147.262 0 0 .22-.029.265-.119zm-1.525-.504s-.028-.221-.146-.262c0 0-.22.029-.265.119 0 0 .029.221.146.261 0 0 .22-.028.265-.118m-1.552-.5s-.029-.221-.146-.262c0 0-.221.029-.266.119 0 0 .03.22.147.261 0 0 .22-.028.265-.118m-1.525-.504s-.029-.221-.146-.262c0 0-.221.029-.266.119 0 0 .03.22.12.265 0 0 .22-.029.264-.119zm-1.528-.532s-.03-.221-.147-.261c0 0-.22.028-.261.146 0 0 .028.221.118.265 0 0 .221-.029.266-.119zm-1.553-.5s-.029-.221-.146-.262c0 0-.221.029-.265.119 0 0 .028.221.118.265 0 0 .221-.028.266-.118zm-1.528-.532s-.029-.22-.147-.261c0 0-.22.028-.265.118 0 0 .029.221.119.266 0 0 .22-.029.265-.119zm-1.525-.503s-.029-.221-.147-.262c0 0-.22.029-.265.119 0 0 .029.22.119.265 0 0 .22-.029.265-.119zm-1.556-.528s-.029-.221-.147-.262c0 0-.22.029-.265.119 0 0 .029.22.119.265 0 0 .22-.029.265-.119zm-1.525-.504s-.029-.221-.146-.262c0 0-.221.029-.266.119 0 0 .029.221.119.265 0 0 .22-.029.265-.119zm-1.529-.532s-.028-.22-.146-.261c0 0-.22.028-.261.146 0 0 .028.221.118.265 0 0 .22-.028.265-.118zm-1.525-.503s-.028-.221-.118-.266c0 0-.22.029-.265.119 0 0 .028.221.118.265 0 0 .221-.029.265-.118m-1.528-.532s-.029-.221-.119-.265c0 0-.22.028-.265.118 0 0 .029.221.119.266 0 0 .22-.029.265-.119m-1.556-.528s-.029-.221-.119-.265c0 0-.22.029-.265.118 0 0 .029.221.119.266 0 0 .22-.029.265-.119m-1.528-.531s-.03-.221-.12-.266c0 0-.22.029-.264.119 0 0 .028.221.146.262 0 0 .22-.029.265-.119zm-1.525-.504s-.029-.221-.119-.265c0 0-.22.028-.265.118 0 0 .029.221.118.265 0 0 .221-.028.266-.118m-1.529-.532s-.029-.22-.146-.261c0 0-.22.028-.265.118 0 0 .028.221.146.262 0 0 .22-.029.265-.119m-1.528-.531s-.029-.221-.147-.262c0 0-.22.029-.265.119 0 0 .029.221.119.265 0 0 .22-.029.265-.119zm-1.529-.532s-.028-.22-.146-.261c0 0-.22.028-.265.118 0 0 .029.221.118.266 0 0 .221-.029.266-.119zm-1.528-.531s-.029-.221-.119-.265c0 0-.22.028-.265.118 0 0 .029.221.119.266 0 0 .22-.029.265-.119m-1.529-.532s-.028-.22-.118-.265c0 0-.221.029-.265.119 0 0 .028.221.118.265 0 0 .22-.029.265-.119m-1.504-.562s-.029-.221-.115-.238c0 0-.22.029-.265.119 0 0 .028.221.118.265 0 0 .221-.029.265-.119zm-1.529-.532s-.028-.22-.118-.265c0 0-.221.029-.265.119 0 0 .028.22.118.265 0 0 .221-.029.265-.119M280.243 232.054s-.028-.22-.146-.261c0 0-.221.028-.262.146 0 0 .029.221.147.262.117.04.22-.029.234-.143zm-1.545-.445s-.029-.221-.146-.261c0 0-.221.028-.262.146 0 0 .029.221.143.234s.22-.029.261-.146zm-1.573-.441s-.029-.221-.146-.262c0 0-.221.029-.234.143 0 0 .028.22.142.234.118.041.221-.029.234-.143zm-1.549-.473s-.029-.221-.146-.262c0 0-.221.029-.234.143 0 0 .028.221.142.234.118.041.221-.029.262-.146zm-1.545-.445s-.029-.221-.146-.262c0 0-.221.029-.262.146 0 0 .029.221.143.235.117.04.22-.029.261-.147zm-1.546-.445s-.028-.221-.146-.262c0 0-.221.029-.261.146 0 0 .028.221.142.234s.221-.028.262-.146zm-1.576-.469s-.029-.221-.146-.262c0 0-.221.029-.262.146 0 0 .029.221.146.262.09.044.221-.029.234-.143zm-1.518-.449s-.028-.221-.146-.262c0 0-.221.029-.234.143 0 0 .029.221.146.262.118.041.221-.029.262-.147zm-1.573-.442s-.028-.22-.146-.261c0 0-.221.028-.262.146 0 0 .029.221.147.262s.221-.029.234-.143zm-1.549-.472s-.028-.221-.146-.262c0 0-.221.029-.261.146 0 0 .028.221.146.262 0 0 .221-.029.234-.143zm-1.545-.445s-.029-.221-.146-.262c0 0-.221.029-.234.143 0 0 .029.22.146.261.114.014.221-.028.262-.146zm-1.545-.445s-.029-.221-.146-.262c0 0-.221.029-.262.146 0 0 .029.221.146.262.09.044.221-.029.234-.143zm-1.549-.473s-.029-.221-.146-.262c0 0-.221.029-.234.143 0 0 .028.221.146.262.09.044.221-.029.234-.143m-1.545-.445s-.029-.221-.147-.262c0 0-.22.029-.234.143 0 0 .029.221.147.261 0 0 .22-.028.261-.146zm-1.549-.473s-.029-.221-.143-.234c0 0-.221.029-.262.146 0 0 .029.221.147.262.114.013.221-.029.261-.146zm-1.546-.445s-.028-.221-.146-.262c0 0-.221.029-.261.147 0 0 .028.22.142.234.118.04.221-.029.262-.147zm-1.545-.445s-.029-.221-.146-.262c0 0-.221.029-.234.143 0 0 .029.221.146.262.118.04.221-.029.262-.147zm-1.549-.473s-.028-.221-.146-.261c0 0-.221.028-.262.146 0 0 .029.22.147.261.114.014.22-.028.234-.142zm-1.545-.445s-.029-.221-.146-.262c0 0-.221.029-.262.147 0 0 .029.22.143.234 0 0 .221-.029.261-.146zm-1.545-.445s-.029-.221-.147-.262c0 0-.22.029-.261.147 0 0 .028.22.146.261.09.045.221-.028.234-.142zm-1.549-.473s-.029-.22-.146-.261c0 0-.221.028-.262.146 0 0 .029.221.143.234.117.041.22-.029.261-.146zm-1.546-.445s-.028-.221-.146-.261c0 0-.221.028-.234.142 0 0 .029.221.146.262.118.041.221-.029.262-.146zm-1.548-.472s-.029-.221-.143-.235c0 0-.221.029-.262.147 0 0 .029.22.146.261.09.045.221-.028.235-.142zm-1.546-.446s-.028-.22-.146-.261c0 0-.221.028-.262.146 0 0 .029.221.147.262.117.04.22-.029.261-.147m-1.549-.472s-.028-.221-.146-.262c0 0-.221.029-.262.146 0 0 .029.221.147.262.09.044.221-.029.234-.143zm-1.545-.445s-.029-.221-.146-.262c0 0-.221.029-.262.146 0 0 .029.221.146.262.09.044.221-.029.234-.143zm-1.549-.473s-.029-.221-.146-.262c0 0-.221.029-.262.146 0 0 .029.221.143.235s.221-.029.262-.147zm-1.545-.445s-.029-.221-.146-.262c0 0-.221.029-.234.143 0 0 .028.221.146.261s.221-.028.261-.146zm-1.549-.473s-.029-.221-.146-.262c0 0-.221.029-.262.147 0 0 .029.22.143.234 0 0 .221-.029.261-.146zm-1.545-.445s-.029-.221-.147-.262c0 0-.22.029-.261.147 0 0 .028.22.142.234.118.04.221-.029.262-.147zm-1.577-.469s-.028-.221-.146-.262c0 0-.221.029-.234.143 0 0 .029.221.146.262 0 0 .221-.029.262-.147zm-1.545-.445s-.029-.221-.146-.262c0 0-.221.029-.262.146 0 0 .029.221.146.262.118.041.221-.029.262-.146m-1.549-.473s-.029-.221-.146-.262c0 0-.221.029-.262.147 0 0 .029.22.143.234.117.041.221-.029.261-.147zm-1.545-.445s-.029-.221-.147-.262c0 0-.22.029-.261.147 0 0 .028.22.142.234.118.04.221-.029.262-.147zm-1.549-.473s-.029-.22-.143-.234c0 0-.221.029-.262.146 0 0 .029.221.147.262.114.013.221-.029.261-.146zm-1.549-.472s-.029-.221-.146-.262c0 0-.221.029-.234.143 0 0 .028.22.146.261s.221-.028.261-.146zm-1.545-.446s-.029-.22-.147-.261c0 0-.22.028-.261.146 0 0 .028.221.146.262s.221-.029.262-.147m-1.549-.472s-.029-.221-.147-.262c0 0-.22.029-.261.146 0 0 .028.221.146.262s.221-.029.262-.146m-1.573-.442s-.029-.221-.146-.261c0 0-.221.028-.262.146 0 0 .029.221.146.261.118.041.221-.028.262-.146m-1.549-.472s-.029-.221-.146-.262c0 0-.221.029-.262.146 0 0 .029.221.146.262.118.041.221-.029.262-.146m-1.549-.473s-.029-.221-.146-.262c0 0-.221.029-.262.146 0 0 .029.221.146.262.09.045.221-.029.234-.143zm-1.545-.445s-.029-.221-.147-.262c0 0-.22.029-.261.146 0 0 .028.221.146.262s.221-.029.262-.146M219.327 191.778s-.026-.193-.115-.238c0 0-.221.029-.266.119 0 0 .001.224.091.269 0 0 .221-.029.269-.091zm-1.484-.622s-.026-.193-.115-.237c0 0-.221.028-.266.118 0 0 .029.221.119.266 0 0 .221-.029.269-.091zm-1.512-.617s-.029-.221-.115-.238c0 0-.224.001-.269.091 0 0 .029.221.091.269 0 0 .221-.029.265-.119zm-1.488-.649s-.025-.194-.115-.238c0 0-.22.029-.265.118 0 0 .029.221.119.266 0 0 .221-.029.269-.091zm-1.484-.622s-.028-.221-.115-.238c0 0-.22.029-.269.091 0 0 .002.225.092.269 0 0 .22-.028.265-.118zm-1.487-.649s-.029-.221-.115-.238c0 0-.221.029-.269.091 0 0 .001.225.091.269 0 0 .221-.028.265-.118zm-1.484-.621s-.029-.221-.115-.238c0 0-.221.029-.266.119 0 0 .029.22.119.265 0 0 .221-.029.265-.119zm-1.512-.618s-.028-.221-.115-.238c0 0-.221.029-.269.091 0 0 .029.221.119.265 0 0 .224-.001.269-.091zm-1.484-.622s-.025-.193-.115-.237c0 0-.221.028-.265.118 0 0 .029.221.119.266 0 0 .22-.029.265-.119zm-1.487-.649s-.029-.22-.115-.237c0 0-.221.028-.266.118 0 0 .029.221.119.266 0 0 .221-.029.269-.091zm-1.484-.621s-.026-.193-.115-.238c0 0-.221.029-.266.119 0 0 .029.221.119.265 0 0 .221-.028.265-.118zm-1.512-.618s-.025-.193-.115-.237c0 0-.221.028-.265.118 0 0 .028.221.091.269 0 0 .221-.029.265-.119zm-1.484-.621s-.025-.193-.115-.238c0 0-.221.029-.265.119 0 0 .028.22.118.265 0 0 .221-.029.266-.119zm-1.508-.59s-.025-.194-.115-.238c0 0-.221.029-.265.118 0 0 .028.221.118.266 0 0 .221-.029.266-.119zm-1.484-.622s-.025-.193-.115-.238c0 0-.221.029-.265.119 0 0 .028.221.118.265 0 0 .221-.028.266-.118zm-1.512-.618s-.025-.193-.115-.237c0 0-.221.028-.265.118 0 0 .029.221.119.265 0 0 .22-.028.265-.118zm-1.48-.594s-.029-.22-.115-.237c0 0-.221.028-.265.118 0 0 .028.221.118.266 0 0 .221-.029.266-.119zm-1.512-.617s-.028-.221-.115-.238c0 0-.221.029-.265.119 0 0 .029.22.119.265 0 0 .22-.029.265-.119zm-1.511-.618s-.029-.221-.115-.238c0 0-.221.029-.266.119 0 0 .029.22.119.265 0 0 .221-.029.265-.119zm-1.481-.594s-.028-.221-.115-.238c0 0-.221.029-.265.119 0 0 .029.221.119.265 0 0 .22-.029.265-.118zm-1.508-.59s-.028-.221-.118-.266c0 0-.221.029-.266.119 0 0 .029.221.119.265 0 0 .221-.028.265-.118m-1.511-.618s-.029-.221-.115-.238c0 0-.221.029-.266.119 0 0 .029.221.119.265 0 0 .221-.029.265-.119zm-1.481-.594s-.028-.221-.115-.238c0 0-.221.029-.265.119 0 0 .029.221.119.265 0 0 .22-.028.265-.118zm-1.535-.587s-.029-.22-.115-.237c0 0-.221.028-.266.118 0 0 .029.221.119.266 0 0 .221-.029.265-.119zm-1.481-.593s-.028-.221-.118-.266c0 0-.221.029-.266.119 0 0 .029.221.119.265 0 0 .221-.028.265-.118m-1.508-.591s-.028-.22-.115-.237c0 0-.221.028-.265.118 0 0 .029.221.119.266 0 0 .22-.029.265-.119zm-1.508-.59s-.028-.221-.118-.265c0 0-.221.028-.266.118 0 0 .029.221.119.266 0 0 .221-.029.265-.119m-1.508-.59s-.029-.221-.115-.238c0 0-.221.029-.265.119 0 0 .029.221.118.265 0 0 .221-.029.266-.119zm-1.508-.59s-.029-.221-.115-.238c0 0-.221.029-.265.119 0 0 .029.22.118.265 0 0 .221-.029.266-.119zm-1.508-.591s-.029-.22-.119-.265c0 0-.22.029-.265.119 0 0 .029.22.119.265 0 0 .221-.029.265-.119m-1.532-.559s-.029-.22-.115-.237c0 0-.221.028-.265.118 0 0 .028.221.118.265 0 0 .221-.028.266-.118zm-1.508-.59s-.029-.221-.119-.265c0 0-.22.028-.265.118 0 0 .029.221.119.266 0 0 .221-.029.265-.119m-1.504-.563s-.029-.22-.119-.265c0 0-.221.029-.265.119 0 0 .028.221.118.265 0 0 .221-.029.266-.119m-1.508-.59s-.029-.221-.115-.237c0 0-.221.028-.266.118 0 0 .029.221.119.265 0 0 .221-.028.265-.118zm-1.505-.562s-.028-.221-.118-.266c0 0-.221.029-.266.119 0 0 .029.221.119.265 0 0 .221-.028.265-.118m-1.535-.587s-.029-.221-.119-.265c0 0-.221.028-.265.118 0 0 .028.221.118.265 0 0 .221-.028.266-.118m-1.505-.563s-.029-.221-.115-.237c0 0-.221.028-.265.118 0 0 .028.221.118.265 0 0 .221-.028.266-.118zm-1.532-.559s-.029-.221-.119-.265c0 0-.22.029-.265.119 0 0 .029.22.119.265 0 0 .221-.029.265-.119m-1.504-.562s-.029-.221-.119-.266c0 0-.221.029-.265.119 0 0 .028.221.118.265 0 0 .221-.029.266-.118m-1.532-.56s-.029-.22-.119-.265c0 0-.221.029-.265.119 0 0 .028.221.118.265 0 0 .221-.029.266-.119m-1.501-.535s-.029-.22-.119-.265c0 0-.221.029-.265.119 0 0 .029.221.119.265 0 0 .22-.029.265-.119m-1.532-.559s-.029-.22-.119-.265c0 0-.221.029-.265.119 0 0 .029.22.118.265 0 0 .221-.029.266-.119m-1.505-.562s-.028-.221-.118-.266c0 0-.221.029-.266.119 0 0 .029.221.119.265 0 0 .221-.028.265-.118m-1.532-.559s-.028-.221-.118-.266c0 0-.221.029-.266.119 0 0 .029.221.119.265 0 0 .221-.028.265-.118m-1.528-.532s-.029-.221-.119-.265c0 0-.221.029-.265.119 0 0 .029.22.119.265 0 0 .22-.029.265-.119m-1.532-.559s-.029-.221-.115-.238c0 0-.221.029-.266.119 0 0 .029.221.119.265 0 0 .221-.028.265-.118zm-1.501-.535s-.029-.221-.119-.265c0 0-.221.028-.265.118 0 0 .029.221.119.266 0 0 .221-.029.265-.119m-1.529-.531s-.028-.221-.118-.266c0 0-.221.029-.265.119 0 0 .028.221.118.265 0 0 .221-.028.265-.118m-1.528-.532s-.029-.221-.119-.265c0 0-.22.029-.265.118 0 0 .029.221.119.266 0 0 .221-.029.265-.119m-1.528-.531s-.029-.221-.119-.266c0 0-.221.029-.265.119 0 0 .028.221.118.265 0 0 .221-.028.266-.118m-1.529-.532s-.029-.221-.119-.265c0 0-.22.029-.261.146 0 0 .029.221.118.265 0 0 .221-.028.266-.118zm-1.528-.531s-.029-.221-.147-.262c0 0-.22.029-.261.146 0 0 .028.221.118.266 0 0 .221-.029.266-.119zm-1.529-.532s-.028-.22-.146-.261c0 0-.221.028-.262.146 0 0 .029.221.119.265 0 0 .221-.029.265-.119zm-1.552-.5s-.029-.221-.146-.262c0 0-.221.029-.266.119 0 0 .029.221.119.265 0 0 .221-.028.265-.118zm-1.529-.531s-.028-.221-.146-.262c0 0-.221.029-.265.118 0 0 .029.221.118.266 0 0 .221-.029.266-.119zm-1.525-.504s-.028-.221-.146-.262c0 0-.221.029-.265.119 0 0 .029.22.119.265 0 0 .22-.029.265-.119zM27.889 154.18s.029.221.146.261c.118.041.22-.028.262-.146.04-.117-.029-.221-.119-.265-.117-.041-.22.029-.265.119zM27.388 155.703s.029.221.119.266c.09.044.22-.029.265-.119 0 0-.028-.221-.146-.262s-.22.029-.265.119zM28.619 152.882a.194.194 0 1 1-.051-.386.194.194 0 0 1 .05.386M28.892 151.075s.029.221.146.262c.118.041.221-.029.262-.146.014-.114-.029-.221-.146-.262-.118-.041-.22.028-.234.142zM22.545 167.671s.001.224.091.269c.09.044.224-.001.269-.091 0 0-.029-.221-.091-.269-.09-.045-.225.001-.27.091M21.122 170.574s.001.225.091.269.228.027.273-.063l-.004-.028a.27.27 0 0 0-.087-.241c-.09-.045-.225.001-.27.091zM26.294 158.734s.028.22.118.265c.09.044.221-.029.265-.119 0 0-.028-.221-.118-.265-.118-.041-.221.029-.265.119M21.831 169.135s.001.224.091.268.224-.001.269-.091c0 0-.029-.22-.091-.268-.09-.045-.225.001-.269.091M29.336 149.531s.029.221.146.262c.09.044.221-.029.234-.143 0 0-.028-.221-.146-.261s-.22.028-.262.146zM26.856 157.232s.029.22.119.265c.117.041.22-.029.265-.119 0 0-.029-.221-.119-.265-.117-.041-.22.029-.265.119M31.295 141.699s.029.221.143.234.22-.028.234-.142c0 0-.032-.249-.174-.258-.114-.014-.22.028-.234.142zM31.599 140.147s.028.221.17.23c.114.014.193-.025.234-.142 0 0-.032-.249-.174-.258-.114-.014-.22.028-.23.17M30.936 143.292s.029.221.142.234c.114.013.221-.028.235-.142 0 0-.03-.221-.147-.262-.114-.013-.22.029-.234.143zM30.578 144.852s.03.22.143.234c.114.013.22-.029.234-.143 0 0-.029-.221-.146-.262-.114-.013-.22.029-.234.143zM32.379 135.358s.056.218.17.231c.083-.011.193-.025.207-.139 0 0-.06-.245-.174-.258-.11.014-.218.056-.23.17zM31.89 138.537s.056.217.17.23a.205.205 0 0 0 .234-.143s-.06-.244-.174-.258c-.114-.013-.22.029-.23.171M32.164 136.956s.056.217.17.23.193-.025.234-.143c.013-.114-.056-.217-.17-.23s-.217.056-.23.17zM29.782 147.986s.029.221.146.262c.114.013.22-.029.234-.143 0 0-.028-.221-.146-.261-.114-.014-.22.028-.262.146zM30.197 146.415s.029.221.143.234c.117.041.22-.028.234-.142 0 0-.029-.221-.146-.262-.118-.041-.221.029-.235.143z"/><path fill="url(#j)" d="M11.567 152.085c3.675 1.937 8.288 4.173 14.065 6.736.567.263 1.131.498 1.698.761.605.118-1.1 3.623-1.722 5.106-.474 1.1-1.04 3.222-1.376 3.013a41 41 0 0 1-1.777-1.145c-6.281-4.068-10.966-7.726-14.492-10.889-3.351-2.68-8.011-8.305-6.35-10.429.795-1.001-.092 1.892 9.95 6.82zm11.898 14.032s-.225.001-.27.091c-.04.117.03.221.092.269.09.044.224-.001.269-.091 0 0-.029-.221-.119-.266zm.676-1.491s-.224.001-.269.091c-.044.09.001.224.091.269.09.044.225-.001.27-.091 0 0-.03-.221-.12-.265zm.621-1.483s-.224.001-.265.118c-.041.118.029.221.119.265s.224-.001.265-.118c0 0-.029-.221-.119-.265m.618-1.512s-.221.029-.266.119c-.04.117.03.221.119.265.118.041.22-.029.265-.118.041-.118-.028-.221-.118-.266m.59-1.507s-.221.028-.266.118c-.04.118.029.221.119.265.117.041.22-.028.265-.118 0 0-.029-.221-.119-.265"/><path fill="url(#k)" d="M237.07 229.18c.411.143.321.744-.128.746-4.367-.135-11.589.661-11.937 7.272q-.034.384.014.756c.405 8.731 15.286 16.988 15.286 16.988l-9.865-3.351-32.915-11.195s-2.321-13.112-10.755-19.483c-.963-.717-.4-2.222.795-2.096 9.045.932 27.93 3.507 49.532 10.359z"/><path fill="url(#l)" d="M164.958 244.224c4.346 6.873 23.379 25.706 103.844 35.872 0 0 1.537.166 3.009-4.487 1.473-4.653.112-5.403.112-5.403-71.809-37.725-98.189-33.182-105.669-30.051a2.774 2.774 0 0 0-1.271 4.037z"/><path fill="#232826" d="M272.031 269.969c-71.176-37.386-97.78-33.488-105.921-30.047-.824.359-1.466 1.032-1.717 1.906a2.95 2.95 0 0 0 .33 2.54c4.703 7.472 24.277 25.926 104.058 36.013.173.033 1.806.074 3.291-4.693 1.486-4.767.135-5.658-.041-5.719m-3.184 9.842c-79.525-10.064-98.963-28.339-103.632-35.76a2.48 2.48 0 0 1-.269-2.07 2.5 2.5 0 0 1 1.398-1.556c8.061-3.403 34.476-7.248 105.413 30.028 0 0 1.112.782-.241 5.055s-2.7 4.279-2.7 4.279z"/><path fill="#232826" d="M174.965 247.817c.231.054-.318 1.444-.553 2.008-.171.415-1.144 2.645-1.265 2.577-.211-.113-1.417-.967-1.6-1.084-2.39-1.542-4.394-4.228-4.785-5.076.792.262 1.498.087 1.781-.118.302-.264.383-.723.408-1.176 1.416.743 3.184 1.608 5.36 2.589.207.085.419.198.654.28M212.853 261.224c-.812 1.958-1.722 3.591-2.376 4.826-.086-.017-1.196 2.457-1.431 2.375-17.407-5.236-28.515-11.457-35.281-15.575.844-1.064 1.644-3.329 2.145-4.656 7.168 3.111 18.436 7.319 35.979 12.734.235.082.466.136.674.221l.262.079zM246.193 270.708c.342.04-.832 2.241-1.256 3.081-.133.27-1.434 2.572-1.71 2.607-.259-.05-24.222-5.194-33.21-7.845 1.443-2.068 2.726-5.153 3.542-7.083 8.972 2.738 19.522 5.748 31.939 9.077.231.055.467.136.698.19zM270.589 276.994s-1.349 3.01-2.524 2.825c-8.579-1.441-16.342-2.006-23.606-3.478.94-1.188 2.132-3.897 2.753-5.381a1458 1458 0 0 0 22.647 5.82l.754.183zM247.076 269.046a2743 2743 0 0 1-33.429-10.175l.078-.263a2765 2765 0 0 0 33.429 10.176zM215.227 253.538l-.078.263c-15.85-5.13-28.775-8.702-38.454-10.618l.046-.287c9.679 1.916 22.632 5.485 38.482 10.614zM272.401 271.711l-.133.27c-7.997-3.874-16.377-7.895-23.431-10.994l.105-.266c7.054 3.099 15.435 7.12 23.435 11.021zM247.469 268.185s-.021-.166-.107-.183c0 0-.166.022-.183.108 0 0 .022.166.108.182.086.017.166-.021.182-.107m-1.082-.337s-.021-.166-.108-.183c0 0-.165.022-.182.108 0 0 .021.166.108.183.086.017.165-.022.182-.108m-1.11-.333s-.021-.166-.107-.183c0 0-.166.022-.183.108 0 0 .022.166.108.182.086.017.166-.021.182-.107m-1.106-.306s-.021-.166-.108-.182c0 0-.165.021-.182.107 0 0 .021.166.108.183.086.017.165-.022.182-.108m-1.082-.337s-.021-.165-.108-.182c0 0-.165.021-.182.108 0 0 .021.165.108.182.086.017.165-.021.182-.108m-1.11-.333s-.021-.166-.108-.182c0 0-.165.021-.182.107 0 0 .021.166.108.183.086.017.165-.022.182-.108m-1.082-.337s-.021-.165-.108-.182c0 0-.165.021-.182.108 0 0 .021.165.108.182.086.017.165-.021.182-.108m-1.11-.333s-.021-.166-.108-.182c0 0-.165.021-.182.107 0 0 .022.166.108.183 0 0 .165-.022.182-.108m-1.109-.333s-.022-.166-.108-.183c0 0-.166.022-.183.108 0 0 .018.138.108.183s.166-.022.183-.108m-1.079-.309s-.022-.166-.108-.183c0 0-.138.018-.182.108 0 0 .021.166.108.183.086.016.165-.022.182-.108m-1.11-.334s-.021-.165-.108-.182c0 0-.165.021-.182.108 0 0 .021.165.108.182.086.017.165-.021.182-.108m-1.082-.336s-.022-.166-.108-.183c0 0-.165.022-.182.108 0 0 .018.138.108.182.09.045.165-.021.182-.107m-1.11-.334s-.021-.165-.108-.182c0 0-.165.021-.182.108 0 0 .021.165.108.182.086.017.165-.021.182-.108m-1.11-.333s-.021-.165-.107-.182c0 0-.166.021-.183.108 0 0 .022.165.108.182s.166-.021.182-.108m-1.082-.337s-.021-.165-.108-.182c0 0-.165.021-.182.108 0 0 .021.165.108.182 0 0 .165-.021.182-.108m-1.11-.333s-.021-.165-.107-.182c0 0-.166.021-.183.108 0 0 .022.165.108.182s.166-.021.182-.108m-1.082-.337s-.021-.165-.108-.182c0 0-.165.021-.182.108 0 0 .021.165.108.182.086.017.165-.021.182-.108m-1.109-.333s-.022-.165-.108-.182c0 0-.166.021-.183.108 0 0 .022.165.108.182s.166-.021.183-.108m-1.083-.337s-.021-.165-.108-.182c0 0-.165.021-.182.108 0 0 .022.165.108.182 0 0 .166-.021.182-.108m-1.109-.333s-.022-.165-.108-.182c0 0-.166.021-.183.108 0 0 .022.165.108.182.087.017.166-.021.183-.108m-1.083-.337s-.021-.165-.107-.182c0 0-.166.021-.183.108 0 0 .018.138.108.182.09.045.166-.021.186-.08zm-1.109-.333s-.022-.165-.108-.182c0 0-.166.021-.183.108 0 0 .022.165.108.182.087.017.166-.021.183-.108m-1.083-.337s-.021-.165-.107-.182c0 0-.166.021-.183.108 0 0 .022.165.108.182 0 0 .166-.021.182-.108m-1.109-.333s-.022-.165-.108-.182c0 0-.166.021-.183.108 0 0 .022.165.108.182.087.017.166-.021.183-.108m-1.083-.337s-.021-.165-.107-.182c0 0-.166.021-.183.108 0 0 .022.165.108.182s.166-.021.182-.108m-1.109-.333s-.022-.165-.108-.182c0 0-.166.021-.183.108 0 0 .022.165.108.182.087.017.166-.021.183-.108m-1.082-.337s-.022-.165-.108-.182c0 0-.166.022-.183.108 0 0 .022.165.108.182s.166-.021.183-.108m-1.11-.333s-.022-.165-.108-.182c0 0-.166.021-.183.108 0 0 .022.165.108.182.087.017.166-.021.183-.108m-1.082-.337s-.022-.165-.108-.182c0 0-.166.022-.183.108 0 0 .022.165.108.182.087.017.166-.021.183-.108m-1.086-.364s-.022-.165-.108-.182c0 0-.166.021-.183.107 0 0 .022.166.108.183.087.017.166-.022.183-.108m-1.11-.333s-.021-.166-.108-.183c0 0-.165.022-.182.108 0 0 .021.166.108.183 0 0 .165-.022.182-.108M215.333 252.853s-.018-.138-.108-.183c0 0-.165.022-.186.081 0 0 .022.165.081.186 0 0 .165-.022.182-.108zm-1.086-.364s-.021-.166-.107-.183c0 0-.166.022-.183.108 0 0 .022.166.108.182.059.021.166-.021.182-.107m-1.082-.337s-.021-.166-.108-.183c0 0-.165.022-.182.108 0 0 .021.166.108.183 0 0 .165-.022.182-.108m-1.113-.361s-.022-.166-.108-.183c0 0-.166.022-.186.081 0 0 .021.165.08.186s.166-.022.183-.108zm-1.082-.337s-.022-.165-.108-.182c0 0-.166.021-.183.108 0 0 .022.165.108.182.087.017.166-.021.183-.108m-1.082-.337s-.022-.165-.108-.182c0 0-.166.021-.183.108 0 0 .022.165.108.182s.166-.021.183-.108m-1.114-.36s-.021-.166-.108-.183c0 0-.165.022-.182.108 0 0 .021.166.108.182.086.017.165-.021.182-.107m-1.082-.337s-.022-.166-.108-.183c0 0-.166.022-.182.108 0 0 .021.166.108.183.086.016.165-.022.182-.108m-1.11-.333s-.021-.166-.108-.183c0 0-.165.022-.182.108 0 0 .021.166.108.182 0 0 .165-.021.186-.08zm-1.082-.337s-.022-.166-.108-.183c0 0-.166.022-.182.108 0 0 .021.166.108.183.086.016.165-.022.182-.108m-1.11-.333s-.021-.166-.108-.183c0 0-.165.022-.182.108 0 0 .021.166.108.182.086.017.165-.021.182-.107m-1.082-.337s-.021-.166-.108-.183c0 0-.165.022-.182.108 0 0 .021.166.108.183.086.016.165-.022.182-.108m-1.106-.306s-.022-.165-.108-.182c0 0-.166.021-.183.108 0 0 .022.165.108.182.087.017.166-.021.183-.108m-1.11-.333s-.021-.166-.108-.183c0 0-.165.022-.182.108 0 0 .021.166.108.183.086.017.165-.022.182-.108m-1.082-.337s-.022-.165-.108-.182c0 0-.166.021-.182.108 0 0 .021.165.107.182.059.02.166-.021.183-.108m-1.106-.305s-.022-.166-.108-.183c0 0-.166.022-.183.108 0 0 .022.166.108.182.059.021.138-.018.183-.107m-1.11-.334s-.022-.165-.108-.182c0 0-.166.021-.182.108 0 0 .021.165.107.182 0 0 .138-.018.183-.108m-1.106-.305s-.022-.166-.108-.183c0 0-.166.022-.183.108 0 0 .022.166.108.183.059.02.166-.022.183-.108m-1.107-.306s-.021-.166-.107-.182c0 0-.166.021-.183.107 0 0 .022.166.108.183s.166-.022.182-.108m-1.106-.306s-.021-.165-.108-.182c0 0-.165.021-.182.108 0 0 .021.165.108.182.086.017.165-.021.182-.108m-1.078-.309s-.022-.165-.108-.182c0 0-.166.021-.183.108 0 0 .022.165.108.182.083-.011.166-.021.183-.108m-1.134-.302s-.022-.165-.108-.182c0 0-.166.021-.182.108 0 0 .021.165.107.182.083-.011.166-.021.183-.108m-1.103-.278s-.021-.165-.108-.182c0 0-.165.021-.182.108 0 0 .021.165.108.182.086.017.165-.021.182-.108m-1.106-.305s-.021-.166-.108-.183c0 0-.165.022-.182.108 0 0 .021.166.108.183.082-.011.138-.018.154-.105zm-1.103-.278s-.021-.166-.107-.183c0 0-.166.022-.183.108 0 0 .022.166.108.182.083-.01.166-.021.182-.107m-1.106-.306s-.021-.166-.108-.182c0 0-.165.021-.182.107 0 0 .021.166.108.183.086.017.165-.022.182-.108m-1.13-.274s-.021-.166-.108-.183c0 0-.165.022-.182.108 0 0 .021.166.108.182.082-.01.138-.017.154-.104zm-1.103-.278s-.021-.166-.107-.183c0 0-.166.022-.183.108 0 0 .022.166.108.182.086.017.166-.021.182-.107m-1.099-.251s-.021-.165-.107-.182c0 0-.166.021-.183.108 0 0 .022.165.108.182.083-.011.138-.018.155-.104zm-1.13-.274s-.021-.166-.108-.183c0 0-.165.022-.182.108 0 0 .021.166.108.183 0 0 .138-.018.155-.105zm-1.13-.275s-.021-.165-.108-.182c0 0-.165.021-.155.104 0 0 .022.166.108.183q.13.025.155-.105m-1.099-.25s-.022-.166-.108-.183c0 0-.166.022-.182.108 0 0 .021.166.108.183.082-.011.138-.018.154-.105zm-1.123-.219s-.022-.166-.108-.183c0 0-.166.022-.182.108 0 0 .021.166.108.183.082-.011.138-.018.154-.105zm-1.127-.247s-.021-.166-.108-.183c0 0-.138.018-.154.105 0 0 .021.165.107.182 0 0 .138-.018.155-.104m-1.126-.247s-.022-.166-.108-.182c0 0-.166.021-.155.104 0 0 .021.165.108.182.055-.007.138-.018.155-.104M271.836 270.833s-.018-.138-.077-.158c0 0-.169-.007-.189.052 0 0 .018.138.08.186 0 0 .138-.018.19-.052zm-1.021-.513s-.018-.138-.076-.158c0 0-.17-.007-.19.052 0 0 .018.138.08.186 0 0 .169.006.19-.052zm-1.048-.51s-.018-.138-.077-.158c0 0-.165.021-.19.053 0 0 .022.165.053.189 0 0 .169.006.19-.052zm-1.021-.513s-.018-.138-.077-.158c0 0-.138.018-.186.08 0 0 .018.138.053.19 0 0 .166-.022.186-.08zm-1.021-.513s-.018-.138-.077-.158c0 0-.138.018-.189.052 0 0 .021.166.08.186 0 0 .138-.017.186-.08m-1.045-.482s-.018-.138-.077-.158c0 0-.169-.006-.189.053 0 0 .021.165.08.186 0 0 .166-.022.19-.053zm-1.021-.513s-.018-.138-.076-.158c0 0-.166.021-.19.052 0 0 .022.166.053.19 0 0 .165-.021.189-.053zm-1.048-.509s-.018-.138-.077-.159c0 0-.165.022-.189.053 0 0 .021.166.08.186 0 0 .165-.022.189-.053zm-1.017-.486s-.018-.138-.077-.158c0 0-.166.021-.19.052 0 0 .022.166.053.19 0 0 .166-.021.186-.08zm-1.049-.509s-.018-.138-.08-.186c0 0-.166.021-.19.052 0 0 .022.166.053.19 0 0 .165-.022.189-.053zm-1.017-.486s-.018-.138-.077-.158c0 0-.138.018-.19.052 0 0 .018.138.053.19 0 0 .138-.018.19-.053zm-1.049-.509s-.018-.138-.076-.159c0 0-.17-.006-.19.053 0 0 .018.138.08.186 0 0 .138-.018.19-.053zm-1.045-.482s-.017-.138-.076-.159c0 0-.169-.006-.19.053 0 0 .022.166.08.186 0 0 .138-.018.19-.053zm-1.017-.486s-.018-.138-.08-.186c0 0-.166.022-.186.08 0 0 .021.166.08.186 0 0 .166-.021.19-.052zm-1.048-.509s-.018-.138-.081-.186c0 0-.165.021-.186.08 0 0 .022.166.081.186 0 0 .165-.022.186-.08m-1.045-.482s-.018-.138-.077-.159c0 0-.138.018-.186.081 0 0 .022.165.053.189 0 0 .165-.021.186-.08zm-1.017-.486s-.018-.138-.081-.186c0 0-.165.022-.186.081 0 0 .018.137.08.186 0 0 .166-.022.187-.081m-1.045-.482s-.018-.138-.081-.186c0 0-.165.022-.186.081 0 0 .022.165.081.186 0 0 .165-.022.186-.081m-1.045-.482s-.018-.138-.081-.186c0 0-.165.022-.186.081 0 0 .022.165.081.186 0 0 .165-.022.186-.081m-1.045-.481s-.018-.138-.08-.187c0 0-.166.022-.186.081 0 0-.007.169.08.186 0 0 .165-.022.186-.08m-1.041-.455s-.018-.138-.081-.186c0 0-.165.022-.186.08 0 0 .022.166.081.186 0 0 .165-.021.186-.08m-1.045-.482s-.018-.138-.081-.186c0 0-.165.022-.186.08 0 0 .022.166.081.187 0 0 .165-.022.189-.053zm-1.045-.482s-.018-.138-.081-.186c0 0-.165.022-.186.081 0 0 .022.165.081.186 0 0 .165-.022.186-.081"/><path fill="#232826" d="M214.427 256.895c-2.128 6.73-5.236 11.538-5.284 11.601l-.246-.165s7.01-10.842 7.149-22.73l.276-.036c-.035 4.046-.848 7.939-1.923 11.334zM176.213 245.128c-1.305 4.21-2.899 7.278-2.919 7.337l-.243-.137s3.584-6.974 4.471-14.189l.287.047c-.303 2.425-.888 4.83-1.568 6.938zM247.69 267.508c-1.605 5.146-4.107 8.782-4.131 8.813l-.246-.164s5.615-8.193 5.439-17.318l.276-.035c.067 3.106-.526 6.101-1.342 8.676z"/><path fill="#232826" d="m240.414 254.704-.27.512c-.637-.366-15.923-8.936-15.415-17.981.371-6.868 7.813-7.692 12.236-7.564 0 0 .083-.011.076-.066s-.011-.083-.07-.103c-21.457-6.816-40.204-9.408-49.474-10.339-.484-.049-.782.242-.885.536s-.1.742.302 1.027c8.43 6.344 10.845 19.528 10.886 19.635l-.579.075s-2.4-13.074-10.643-19.274a1.48 1.48 0 0 1-.502-1.702 1.37 1.37 0 0 1 1.484-.894c9.27.931 28.076 3.543 49.591 10.379.322.099.503.412.463.754a.666.666 0 0 1-.657.562c-4.198-.129-11.313.625-11.661 7.012-.469 8.704 14.969 17.366 15.121 17.459z"/><path fill="#232826" d="m214.154 244.862-.276.036c-.018-.138-1.129-13.014-3.169-22.457l.276-.036c2.037 9.416 3.151 22.319 3.169 22.457M215.188 245.237l-.007-.055s-.073-.131-.156-.12c0 0-.131.073-.12.155 0 0 .073.131.156.12a.15.15 0 0 0 .127-.1m-.119-1.135-.007-.055s-.073-.131-.156-.12c0 0-.131.073-.12.155 0 0 .073.131.156.121a.15.15 0 0 0 .127-.101m-.123-1.163-.007-.055s-.073-.131-.156-.12c0 0-.131.073-.12.156 0 0 .073.131.156.12a.15.15 0 0 0 .127-.101m-.092-1.138-.007-.055s-.073-.131-.156-.12c0 0-.131.073-.12.155 0 0 .073.131.156.12a.15.15 0 0 0 .127-.1m-.147-1.132-.007-.055s-.073-.131-.156-.12c0 0-.13.073-.12.156 0 0 .073.131.156.12a.15.15 0 0 0 .127-.101m-.119-1.134-.007-.056s-.073-.13-.156-.12c0 0-.131.073-.12.156 0 0 .073.131.156.12a.15.15 0 0 0 .127-.1m-.119-1.135-.007-.056s-.074-.13-.156-.12c0 0-.131.073-.12.156 0 0 .073.131.156.12a.15.15 0 0 0 .127-.1m-.151-1.159-.007-.056s-.073-.13-.156-.12c0 0-.131.073-.12.156 0 0 .073.131.156.12a.15.15 0 0 0 .127-.1m-.147-1.132-.007-.055s-.073-.131-.156-.12c0 0-.131.073-.12.156 0 0 .073.131.156.12a.15.15 0 0 0 .127-.101m-.119-1.135-.007-.055s-.073-.131-.156-.12c0 0-.131.073-.12.156 0 0 .073.131.156.12a.15.15 0 0 0 .127-.101m-.175-1.127-.007-.056s-.073-.13-.156-.12c0 0-.13.073-.12.156 0 0 .073.131.156.12a.15.15 0 0 0 .127-.1m-.15-1.159-.007-.056s-.073-.13-.156-.12c0 0-.131.073-.12.156 0 0 .073.131.156.12a.15.15 0 0 0 .127-.1m-.175-1.128-.007-.055s-.073-.131-.156-.12c0 0-.13.073-.12.155 0 0 .073.131.156.12a.15.15 0 0 0 .127-.1m-.147-1.132-.007-.055s-.1-.127-.156-.12c0 0-.13.073-.12.156 0 0 .074.131.156.12a.15.15 0 0 0 .127-.101m-.202-1.124-.007-.055s-.1-.127-.156-.12c0 0-.13.073-.12.156 0 0 .073.131.156.12a.15.15 0 0 0 .127-.101m-.178-1.155-.007-.055s-.073-.131-.156-.12c0 0-.131.073-.12.155 0 0 .073.131.156.121a.15.15 0 0 0 .127-.101m-.202-1.124-.007-.056s-.101-.127-.156-.12c0 0-.131.073-.12.156 0 0 .101.127.156.12s.107-.042.1-.097zm-.202-1.125-.007-.055s-.073-.131-.156-.12c0 0-.127.101-.12.156 0 0 .101.127.156.12s.107-.042.099-.097zm-.202-1.124-.011-.083s-.1-.127-.156-.12c0 0-.127.101-.12.156 0 0 .101.127.156.12s.107-.042.1-.097zm-.23-1.12-.01-.083s-.101-.127-.184-.117c0 0-.127.101-.12.156 0 0 .101.127.184.117.055-.007.079-.039.099-.097z"/><path fill="#232826" d="M213.05 236.336s-9.961-3.003-13.342-3.322c-3.267-.306-3.614 1.563-3.631 1.65l-.287-.048s.414-2.214 3.937-1.885c3.409.316 13.311 3.298 13.401 3.342z"/><path fill="#232826" d="M212.555 237.045s-.022-.165-.108-.182c0 0-.166.021-.183.108 0 0 .022.165.108.182.083-.011.166-.021.183-.108m-1.11-.333s-.022-.165-.108-.182c0 0-.166.021-.183.108 0 0 .018.138.108.182s.166-.021.183-.108m-1.106-.305s-.022-.166-.108-.183c0 0-.166.022-.183.108 0 0 .022.166.108.182.059.021.138-.017.183-.107m-1.107-.306s-.021-.166-.108-.182c0 0-.165.021-.182.107 0 0 .022.166.108.183.083-.011.165-.022.182-.108m-1.106-.306s-.021-.165-.108-.182c0 0-.165.021-.182.108 0 0 .021.165.108.182.058.021.165-.021.182-.108m-1.106-.305s-.022-.166-.108-.183c0 0-.166.022-.182.108 0 0 .021.166.107.183.083-.011.166-.022.183-.108m-1.103-.278s-.021-.166-.108-.183c0 0-.165.022-.182.108 0 0 .021.166.108.183 0 0 .138-.018.182-.108m-1.134-.302s-.021-.166-.107-.183c0 0-.166.022-.183.108 0 0 .022.166.108.183.059.02.138-.018.155-.105zm-1.099-.251s-.021-.165-.107-.182c0 0-.166.021-.183.108 0 0 .022.165.108.182.083-.011.138-.018.155-.104zm-1.126-.247s-.022-.165-.108-.182c0 0-.138.018-.155.104 0 0 .022.166.108.183.055-.007.138-.018.155-.105m-1.123-.219s-.022-.165-.108-.182c0 0-.166.021-.183.108 0 0 .022.165.105.155s.138-.018.155-.105zm-1.144-.16s-.049-.162-.135-.179c0 0-.135.045-.151.132 0 0 .045.134.131.151.056-.007.138-.018.155-.104m-1.153-.019-.007-.055s-.073-.131-.156-.12c0 0-.131.073-.12.156 0 0 .073.13.156.12a.15.15 0 0 0 .127-.101m-1.121.229-.011-.082s-.1-.128-.179-.089c0 0-.128.1-.089.18 0 0 .1.127.18.089.055-.008.075-.066.099-.098m-.964.575-.018-.138s-.148-.065-.196-.003c0 0-.065.149-.003.197 0 0 .149.065.197.002l.048-.062zm-.575.972s-.021-.165-.108-.182c0 0-.165.021-.151.132 0 0 .021.165.104.154.083-.01.138-.017.155-.104M225.725 235.169s-.018-.138-.08-.186c0 0-.166.021-.187.08 0 0 .022.166.081.186 0 0 .165-.022.186-.08m-1.069-.451s-.018-.138-.08-.186c0 0-.166.021-.186.08 0 0 .017.138.08.186 0 0 .165-.021.186-.08m-1.062-.396s-.021-.165-.08-.186c0 0-.166.022-.186.081 0 0 .021.165.08.186 0 0 .166-.022.186-.081m-1.086-.364s-.021-.166-.108-.182c0 0-.165.021-.182.107 0 0 .022.166.108.183 0 0 .166-.022.182-.108m-1.082-.337s-.021-.165-.108-.182c0 0-.165.021-.182.108 0 0 .021.165.108.182.086.017.165-.021.182-.108m-1.11-.333s-.021-.165-.107-.182c0 0-.166.021-.183.107 0 0 .022.166.108.183s.166-.022.182-.108m-1.109-.333s-.022-.166-.108-.183c0 0-.138.018-.183.108 0 0 .022.166.108.183.059.02.138-.018.183-.108m-1.107-.306s-.021-.165-.107-.182c0 0-.166.021-.183.108 0 0 .022.165.108.182.083-.011.166-.021.182-.108m-1.106-.305s-.021-.166-.108-.183c0 0-.165.022-.182.108 0 0 .021.166.108.183.059.02.138-.018.186-.081zm-1.106-.306s-.021-.165-.108-.182c0 0-.165.021-.182.108 0 0 .021.165.108.182.082-.011.138-.018.154-.104zm-1.103-.278s-.021-.165-.107-.182c0 0-.166.021-.183.108 0 0 .022.165.108.182.083-.011.138-.018.155-.104zM225.86 234.027l-.106.267c-.595-.26-2.338-.932-5.173-1.799-3.679-1.095-8.293-2.265-8.321-2.261l.075-.29s4.669 1.162 8.348 2.257c2.835.867 4.578 1.539 5.201 1.795zM131.865 175.927c-27.193-8.274-47.95-19.212-46.362-24.429 1.588-5.218 24.919-2.74 52.112 5.534s47.949 19.212 46.362 24.43c-1.588 5.218-24.919 2.739-52.112-5.535"/><path fill="#A34023" d="M127.776 172.734c-25.449-7.174-44.88-17.246-43.4-22.495s23.31-3.688 48.759 3.487c25.449 7.174 44.879 17.246 43.399 22.495s-23.31 3.688-48.758-3.487"/><path fill="#CB5F32" d="M128.146 171.721c-24.886-7.016-43.912-16.78-42.494-21.807s22.74-3.415 47.627 3.601c24.886 7.017 43.912 16.78 42.494 21.808s-22.74 3.415-47.627-3.602"/><path stroke="#232826" stroke-miterlimit="10" stroke-width=".76" d="M127.779 172.733c-25.449-7.174-44.88-17.246-43.4-22.495s23.31-3.688 48.759 3.487c25.449 7.174 44.879 17.246 43.399 22.495s-23.31 3.688-48.758-3.487Z"/><path stroke="#232826" stroke-miterlimit="10" stroke-width=".76" d="M128.149 171.72c-24.886-7.016-43.912-16.78-42.494-21.807s22.74-3.415 47.627 3.602c24.886 7.016 43.912 16.779 42.494 21.807s-22.741 3.415-47.627-3.602Z"/><mask id="m" width="279" height="140" x="3" y="39" maskUnits="userSpaceOnUse" style="mask-type:luminance"><path fill="#fff" d="M85.67 149.939c-1.422 5.039 17.613 14.807 42.492 21.825 24.88 7.017 46.195 8.632 47.617 3.592.889-3.09 113.396-61.26 104.804-98.874C263.043-.412 16.713 66.55 7.071 63.842c-24.88-7.017 80.025 81.085 78.6 86.097"/></mask><g mask="url(#m)"><g clip-path="url(#n)"><path fill="url(#o)" d="M119.222 104.982c-.349-.371-.864-.639-1.614-.731a6 6 0 0 0-1.605.043c-.028-.031-.634.043-1.453.159-1.777.25-4.41.674-4.548.692l9.587 10.204c.138-.018 2.771-.441 4.548-.691.8-.114 1.397-.186 1.448-.164l.001.01c1.682-.238 2.676.094 3.233.687l-9.587-10.205z"/><path fill="url(#p)" d="m140.461 79.309 9.587 10.204-3.296 13.238-9.587-10.204z"/><path fill="url(#q)" d="m155.317 77.204 9.592 10.204-3.362 13.508-9.588-10.205z"/><path fill="url(#r)" d="m134.963 102.186 9.587 10.204-4.086 16.416-9.587-10.205z"/><path fill="url(#s)" d="m151.452 102.866 9.587 10.205c-2.229-2.369-7.606-2.017-11.879-1.409-1.867.266-3.524.578-4.615.734l-9.587-10.205c1.091-.156 2.748-.468 4.615-.734 4.273-.607 9.65-.96 11.879 1.409"/><mask id="t" width="28" height="13" x="134" y="101" maskUnits="userSpaceOnUse" style="mask-type:luminance"><path fill="#fff" d="m151.455 102.87 9.587 10.205c-2.229-2.369-7.606-2.017-11.879-1.409-1.867.266-3.524.578-4.615.734l-9.587-10.205c1.091-.156 2.748-.468 4.615-.734 4.273-.607 9.65-.96 11.879 1.409"/></mask><g mask="url(#t)"><path fill="url(#u)" d="m151.455 102.87 9.587 10.205c-2.229-2.369-7.606-2.017-11.879-1.409-1.867.266-3.524.578-4.615.734l-9.587-10.205c1.091-.156 2.748-.468 4.615-.734 4.273-.607 9.65-.96 11.879 1.409"/></g><path fill="url(#v)" d="m128.811 126.885 9.587 10.205-4.507 18.1-9.587-10.205z"/><path fill="url(#w)" d="M113.409 155.984c-1.926.259-3.883.503-5.888.787l-10.751 1.52 9.587 10.205 10.75-1.525q1.502-.209 2.975-.4a301 301 0 0 0 2.914-.387l-9.587-10.205z"/><path fill="url(#x)" d="m166.752 93.983 9.587 10.205c1.633 1.738 2.334 4.262 1.788 7.82-1.071 7.027-5.137 11.726-10.525 14.835l-9.587-10.205c5.393-3.105 9.454-7.808 10.525-14.834.551-3.56-.155-6.082-1.788-7.82"/><mask id="y" width="21" height="34" x="158" y="93" maskUnits="userSpaceOnUse" style="mask-type:luminance"><path fill="#fff" d="m166.754 93.98 9.587 10.205c1.633 1.738 2.334 4.262 1.788 7.82-1.071 7.027-5.137 11.726-10.525 14.835l-9.587-10.205c5.393-3.105 9.454-7.807 10.525-14.834.551-3.56-.155-6.082-1.788-7.82"/></mask><g mask="url(#y)"><path fill="url(#z)" d="m166.756 93.982 9.587 10.205c1.633 1.738 2.334 4.262 1.788 7.82-1.071 7.027-5.137 11.726-10.525 14.835l-9.587-10.205c5.393-3.105 9.453-7.807 10.525-14.834.551-3.56-.155-6.082-1.788-7.82"/></g><path fill="url(#A)" d="m148.847 127.601 9.587 10.205c-2.629-2.798-9.324-2.318-14.582-1.573-2.211.311-4.163.671-5.458.858l-9.587-10.205c1.296-.182 3.252-.543 5.457-.858 5.259-.744 11.959-1.225 14.583 1.573"/><mask id="B" width="31" height="13" x="128" y="125" maskUnits="userSpaceOnUse" style="mask-type:luminance"><path fill="#fff" d="m148.847 127.602 9.587 10.205c-2.629-2.798-9.324-2.318-14.582-1.573-2.211.311-4.163.67-5.458.858l-9.587-10.205c1.296-.182 3.252-.543 5.457-.858 5.259-.745 11.959-1.225 14.583 1.573"/></mask><g mask="url(#B)"><path fill="url(#C)" d="m148.847 127.603 9.587 10.205c-2.629-2.798-9.324-2.318-14.582-1.573-2.211.311-4.163.67-5.458.858l-9.587-10.205c1.296-.182 3.252-.543 5.457-.858 5.259-.745 11.959-1.225 14.583 1.573"/></g><path fill="url(#D)" d="m128.219 154.082 9.587 10.205a332.844 332.844 0 0 1-6.586.873l-9.587-10.204c2.116-.26 4.171-.531 6.186-.817q.2-.024.4-.057"/><mask id="E" width="17" height="12" x="121" y="154" maskUnits="userSpaceOnUse" style="mask-type:luminance"><path fill="#fff" d="m128.227 154.082 9.587 10.205a333.965 333.965 0 0 1-6.586.873l-9.587-10.204c2.115-.26 4.171-.531 6.186-.817q.2-.024.4-.057"/></mask><g mask="url(#E)"><path fill="url(#F)" d="m128.228 154.081 9.587 10.205a333.965 333.965 0 0 1-6.586.873l-9.587-10.204c2.115-.26 4.171-.531 6.186-.817q.2-.024.4-.057"/></g><path fill="url(#G)" d="m121.63 154.957 9.587 10.205-3.362 13.517-9.587-10.204z"/><path fill="url(#H)" d="m118.27 168.474 9.587 10.204-8.25 1.167-9.587-10.205z"/><path fill="url(#I)" d="m136.525 152.733 9.587 10.205-3.4 13.634-9.587-10.204z"/><path fill="url(#J)" d="m133.127 166.369 9.587 10.205-8.259 1.172-9.587-10.204z"/><path fill="url(#K)" d="m165.095 119.485 9.587 10.204c2.207 2.348 2.635 6.275.54 12.479-4.442 13.153-15.03 18.014-29.109 20.77l-9.587-10.204c14.083-2.762 24.671-7.623 29.109-20.771 2.095-6.204 1.662-10.13-.54-12.478"/><mask id="L" width="41" height="44" x="136" y="119" maskUnits="userSpaceOnUse" style="mask-type:luminance"><path fill="#fff" d="m165.094 119.484 9.588 10.204c2.206 2.348 2.634 6.275.539 12.479-4.442 13.153-15.03 18.014-29.109 20.77l-9.587-10.204c14.083-2.762 24.671-7.623 29.109-20.771 2.095-6.204 1.662-10.13-.54-12.478"/></mask><g mask="url(#L)"><path fill="url(#M)" d="m165.095 119.484 9.587 10.204c2.207 2.348 2.635 6.275.54 12.479-4.442 13.153-15.03 18.014-29.109 20.77l-9.587-10.204c14.083-2.762 24.671-7.623 29.109-20.771 2.095-6.204 1.662-10.13-.54-12.478"/></g><path fill="url(#N)" d="M158.014 116.638c7.415.771 11.195 4.734 7.618 15.325-4.441 13.154-15.03 18.014-29.108 20.771l-3.399 13.639-8.26 1.168 3.35-13.454q-.2.025-.4.057c-2.015.285-4.07.557-6.185.816l-3.362 13.518-8.25 1.167 3.392-13.658c-1.926.26-3.884.504-5.889.788l-10.75 1.525 4.083-10.052c.134-.017 2.706-.341 4.487-.596.891-.125 1.552-.23 1.524-.256 2.339-.332 3.376-2.091 3.785-3.163l5.38-21.613 3.827-15.388c.099-1.623-.51-3.402-3.855-2.935.044-.039-.587.038-1.454.16-1.777.25-4.409.673-4.547.691l2.186-8.781 11.395-1.609c1.705-.201 3.469-.483 5.269-.775l3.354-13.502 8.255-1.167-3.296 13.237c2.219-.355 4.443-.712 6.62-1.018l3.272-13.162 8.26-1.168-3.363 13.509c10.432-.582 18.064 1.49 16.586 11.092-1.071 7.026-5.137 11.725-10.525 14.834m-29.601 27.805c7.349-1.04 19.231-3.454 21.301-11.789 2.036-8.185-8.107-7.66-15.452-6.621-2.21.311-4.162.671-5.457.858l-4.508 18.1c.52-.072 1.145-.148 1.847-.239.687-.089 1.445-.188 2.264-.304m6.549-42.263-4.086 16.415c.881-.124 2.11-.259 3.544-.464 6.13-.868 15.936-2.944 17.814-10.478 1.844-7.423-6.541-7.073-12.657-6.207-1.867.266-3.525.578-4.615.734"/></g><path stroke="#B9AC94" stroke-miterlimit="10" stroke-width="2.216" d="M148.387 184.658c-32.481 4.211-62.234-18.705-66.454-51.185s18.69-62.223 51.172-66.434 62.234 18.705 66.454 51.185c4.221 32.48-18.69 62.223-51.172 66.434Z"/><path fill="#B9AC94" d="M164.24 78.943c19.507 11.052 30.924 33.703 28.181 56.002 5.671-22.229-7.011-47.27-28.181-56.002M88.718 132.6c-1.038-17.713 5.974-35.234 18.873-47.4-14.9 10.153-22.703 29.797-18.873 47.4"/><path fill="url(#O)" d="M148.387 184.658c-32.481 4.211-62.234-18.705-66.454-51.185s18.69-62.223 51.172-66.434 62.234 18.705 66.454 51.185c4.221 32.48-18.69 62.223-51.172 66.434"/><path fill="url(#P)" d="M92.426 105.406C99 89.904 112.899 77.859 130.689 74.374a52 52 0 0 1 15.825-.677"/><path fill="url(#Q)" d="M150.794 177.3c-18.476 3.602-36.59-2.974-48.531-15.823Z"/></g><path fill="#fff" d="m50.456 219.847 115.15 42.316-114.567-43.879zM57.5 217.422l62.635 22.634-62.05-24.17z"/><defs><linearGradient id="b" x1="284.263" x2="781.126" y1="188.57" y2="328.628" gradientUnits="userSpaceOnUse"><stop stop-color="#E4735D"/><stop offset="1" stop-color="#7E4033" stop-opacity="0"/></linearGradient><linearGradient id="c" x1="268.062" x2="764.926" y1="274.058" y2="414.115" gradientUnits="userSpaceOnUse"><stop stop-color="#E4735D"/><stop offset="1" stop-color="#7E4033" stop-opacity="0"/></linearGradient><linearGradient id="d" x1="270.867" x2="767.73" y1="229.608" y2="369.666" gradientUnits="userSpaceOnUse"><stop stop-color="#E4735D"/><stop offset="1" stop-color="#7E4033" stop-opacity="0"/></linearGradient><linearGradient id="e" x1="249.469" x2="200.674" y1="187.195" y2="193.534" gradientUnits="userSpaceOnUse"><stop offset=".04" stop-color="#BEF5EB"/><stop offset=".08" stop-color="#C7D3E1"/><stop offset=".47" stop-color="#ED4F35"/><stop offset="1" stop-color="#BEF5EB"/></linearGradient><linearGradient id="f" x1="287.314" x2="199.492" y1="169.182" y2="180.592" gradientUnits="userSpaceOnUse"><stop offset=".04" stop-color="#BEF5EB"/><stop offset=".08" stop-color="#C7D3E1"/><stop offset=".47" stop-color="#ED4F35"/><stop offset="1" stop-color="#BEF5EB"/></linearGradient><linearGradient id="g" x1="276.1" x2="7.939" y1="172.942" y2="207.778" gradientUnits="userSpaceOnUse"><stop offset=".04" stop-color="#BEF5EB"/><stop offset=".12" stop-color="#8FE6EF"/><stop offset=".22" stop-color="#5CD7F4"/><stop offset=".31" stop-color="#34CBF8"/><stop offset=".4" stop-color="#17C3FB"/><stop offset=".47" stop-color="#06BDFD"/><stop offset=".52" stop-color="#00BCFE"/><stop offset=".72" stop-color="#0F85D4"/><stop offset="1" stop-color="#263495"/></linearGradient><linearGradient id="h" x1="36.299" x2="1.221" y1="151.545" y2="156.102" gradientUnits="userSpaceOnUse"><stop offset=".04" stop-color="#BEF5EB"/><stop offset=".08" stop-color="#C7D3E1"/><stop offset=".47" stop-color="#ED4F35"/><stop offset="1" stop-color="#BEF5EB"/></linearGradient><linearGradient id="i" x1="80.145" x2="96.403" y1="212.418" y2="164.322" gradientUnits="userSpaceOnUse"><stop/><stop offset=".625" stop-opacity="0"/></linearGradient><linearGradient id="j" x1="16.386" x2="13.123" y1="168.74" y2="143.581" gradientUnits="userSpaceOnUse"><stop/><stop offset="1" stop-opacity="0"/></linearGradient><linearGradient id="k" x1="237.889" x2="188.874" y1="233.76" y2="240.128" gradientUnits="userSpaceOnUse"><stop offset=".04" stop-color="#BEF5EB"/><stop offset=".08" stop-color="#C7D3E1"/><stop offset=".47" stop-color="#ED4F35"/><stop offset="1" stop-color="#BEF5EB"/></linearGradient><linearGradient id="l" x1="270.045" x2="167.568" y1="252.938" y2="266.252" gradientUnits="userSpaceOnUse"><stop offset=".04" stop-color="#BEF5EB"/><stop offset=".08" stop-color="#C7D3E1"/><stop offset=".47" stop-color="#ED4F35"/><stop offset="1" stop-color="#BEF5EB"/></linearGradient><linearGradient id="o" x1="110.083" x2="128.716" y1="109.927" y2="109.594" gradientUnits="userSpaceOnUse"><stop offset=".04" stop-color="#EDE6E5"/><stop offset=".1" stop-color="#EDD2C4"/><stop offset=".21" stop-color="#EDB491"/><stop offset=".3" stop-color="#ED9C69"/><stop offset=".39" stop-color="#ED8B4C"/><stop offset=".47" stop-color="#ED803B"/><stop offset=".52" stop-color="#ED7D35"/><stop offset="1" stop-color="#ED4F35"/></linearGradient><linearGradient id="p" x1="137.144" x2="150.073" y1="91.144" y2="90.913" gradientUnits="userSpaceOnUse"><stop offset=".04" stop-color="#EDE6E5"/><stop offset=".1" stop-color="#EDD2C4"/><stop offset=".21" stop-color="#EDB491"/><stop offset=".3" stop-color="#ED9C69"/><stop offset=".39" stop-color="#ED8B4C"/><stop offset=".47" stop-color="#ED803B"/><stop offset=".52" stop-color="#ED7D35"/><stop offset="1" stop-color="#ED4F35"/></linearGradient><linearGradient id="q" x1="151.932" x2="164.938" y1="89.172" y2="88.94" gradientUnits="userSpaceOnUse"><stop offset=".04" stop-color="#EDE6E5"/><stop offset=".1" stop-color="#EDD2C4"/><stop offset=".21" stop-color="#EDB491"/><stop offset=".3" stop-color="#ED9C69"/><stop offset=".39" stop-color="#ED8B4C"/><stop offset=".47" stop-color="#ED803B"/><stop offset=".52" stop-color="#ED7D35"/><stop offset="1" stop-color="#ED4F35"/></linearGradient><linearGradient id="r" x1="130.824" x2="144.605" y1="115.614" y2="115.368" gradientUnits="userSpaceOnUse"><stop offset=".04" stop-color="#EDE6E5"/><stop offset=".1" stop-color="#EDD2C4"/><stop offset=".21" stop-color="#EDB491"/><stop offset=".3" stop-color="#ED9C69"/><stop offset=".39" stop-color="#ED8B4C"/><stop offset=".47" stop-color="#ED803B"/><stop offset=".52" stop-color="#ED7D35"/><stop offset="1" stop-color="#ED4F35"/></linearGradient><linearGradient id="s" x1="135.055" x2="160.932" y1="107.352" y2="106.89" gradientUnits="userSpaceOnUse"><stop offset=".04" stop-color="#EDE6E5"/><stop offset=".1" stop-color="#EDD2C4"/><stop offset=".21" stop-color="#EDB491"/><stop offset=".3" stop-color="#ED9C69"/><stop offset=".39" stop-color="#ED8B4C"/><stop offset=".47" stop-color="#ED803B"/><stop offset=".52" stop-color="#ED7D35"/><stop offset="1" stop-color="#ED4F35"/></linearGradient><linearGradient id="u" x1="135.058" x2="160.935" y1="107.356" y2="106.894" gradientUnits="userSpaceOnUse"><stop offset=".04" stop-color="#EDE6E5"/><stop offset=".1" stop-color="#EDD2C4"/><stop offset=".21" stop-color="#EDB491"/><stop offset=".3" stop-color="#ED9C69"/><stop offset=".39" stop-color="#ED8B4C"/><stop offset=".47" stop-color="#ED803B"/><stop offset=".52" stop-color="#ED7D35"/><stop offset="1" stop-color="#ED4F35"/></linearGradient><linearGradient id="v" x1="124.238" x2="138.47" y1="141.159" y2="140.905" gradientUnits="userSpaceOnUse"><stop offset=".04" stop-color="#EDE6E5"/><stop offset=".1" stop-color="#EDD2C4"/><stop offset=".21" stop-color="#EDB491"/><stop offset=".3" stop-color="#ED9C69"/><stop offset=".39" stop-color="#ED8B4C"/><stop offset=".47" stop-color="#ED803B"/><stop offset=".52" stop-color="#ED7D35"/><stop offset="1" stop-color="#ED4F35"/></linearGradient><linearGradient id="w" x1="96.845" x2="122.924" y1="162.469" y2="162.004" gradientUnits="userSpaceOnUse"><stop offset=".04" stop-color="#EDE6E5"/><stop offset=".1" stop-color="#EDD2C4"/><stop offset=".21" stop-color="#EDB491"/><stop offset=".3" stop-color="#ED9C69"/><stop offset=".39" stop-color="#ED8B4C"/><stop offset=".47" stop-color="#ED803B"/><stop offset=".52" stop-color="#ED7D35"/><stop offset="1" stop-color="#ED4F35"/></linearGradient><linearGradient id="x" x1="157.909" x2="178.327" y1="110.571" y2="110.207" gradientUnits="userSpaceOnUse"><stop offset=".04" stop-color="#EDE6E5"/><stop offset=".1" stop-color="#EDD2C4"/><stop offset=".21" stop-color="#EDB491"/><stop offset=".3" stop-color="#ED9C69"/><stop offset=".39" stop-color="#ED8B4C"/><stop offset=".47" stop-color="#ED803B"/><stop offset=".52" stop-color="#ED7D35"/><stop offset="1" stop-color="#ED4F35"/></linearGradient><linearGradient id="z" x1="163.146" x2="183.564" y1="110.479" y2="110.114" gradientUnits="userSpaceOnUse"><stop offset=".04" stop-color="#EDE6E5"/><stop offset=".1" stop-color="#EDD2C4"/><stop offset=".21" stop-color="#EDB491"/><stop offset=".3" stop-color="#ED9C69"/><stop offset=".39" stop-color="#ED8B4C"/><stop offset=".47" stop-color="#ED803B"/><stop offset=".52" stop-color="#ED7D35"/><stop offset="1" stop-color="#ED4F35"/></linearGradient><linearGradient id="A" x1="128.901" x2="158.328" y1="131.995" y2="131.47" gradientUnits="userSpaceOnUse"><stop offset=".04" stop-color="#EDE6E5"/><stop offset=".1" stop-color="#EDD2C4"/><stop offset=".21" stop-color="#EDB491"/><stop offset=".3" stop-color="#ED9C69"/><stop offset=".39" stop-color="#ED8B4C"/><stop offset=".47" stop-color="#ED803B"/><stop offset=".52" stop-color="#ED7D35"/><stop offset="1" stop-color="#ED4F35"/></linearGradient><linearGradient id="C" x1="128.901" x2="158.328" y1="131.997" y2="131.472" gradientUnits="userSpaceOnUse"><stop offset=".04" stop-color="#EDE6E5"/><stop offset=".1" stop-color="#EDD2C4"/><stop offset=".21" stop-color="#EDB491"/><stop offset=".3" stop-color="#ED9C69"/><stop offset=".39" stop-color="#ED8B4C"/><stop offset=".47" stop-color="#ED803B"/><stop offset=".52" stop-color="#ED7D35"/><stop offset="1" stop-color="#ED4F35"/></linearGradient><linearGradient id="D" x1="121.719" x2="137.726" y1="159.765" y2="159.479" gradientUnits="userSpaceOnUse"><stop offset=".04" stop-color="#EDE6E5"/><stop offset=".1" stop-color="#EDD2C4"/><stop offset=".21" stop-color="#EDB491"/><stop offset=".3" stop-color="#ED9C69"/><stop offset=".39" stop-color="#ED8B4C"/><stop offset=".47" stop-color="#ED803B"/><stop offset=".52" stop-color="#ED7D35"/><stop offset="1" stop-color="#ED4F35"/></linearGradient><linearGradient id="F" x1="121.728" x2="137.735" y1="159.764" y2="159.478" gradientUnits="userSpaceOnUse"><stop offset=".04" stop-color="#EDE6E5"/><stop offset=".1" stop-color="#EDD2C4"/><stop offset=".21" stop-color="#EDB491"/><stop offset=".3" stop-color="#ED9C69"/><stop offset=".39" stop-color="#ED8B4C"/><stop offset=".47" stop-color="#ED803B"/><stop offset=".52" stop-color="#ED7D35"/><stop offset="1" stop-color="#ED4F35"/></linearGradient><linearGradient id="G" x1="118.244" x2="131.246" y1="166.933" y2="166.701" gradientUnits="userSpaceOnUse"><stop offset=".04" stop-color="#EDE6E5"/><stop offset=".1" stop-color="#EDD2C4"/><stop offset=".21" stop-color="#EDB491"/><stop offset=".3" stop-color="#ED9C69"/><stop offset=".39" stop-color="#ED8B4C"/><stop offset=".47" stop-color="#ED803B"/><stop offset=".52" stop-color="#ED7D35"/><stop offset="1" stop-color="#ED4F35"/></linearGradient><linearGradient id="H" x1="110.103" x2="127.779" y1="174.315" y2="174" gradientUnits="userSpaceOnUse"><stop offset=".04" stop-color="#EDE6E5"/><stop offset=".1" stop-color="#EDD2C4"/><stop offset=".21" stop-color="#EDB491"/><stop offset=".3" stop-color="#ED9C69"/><stop offset=".39" stop-color="#ED8B4C"/><stop offset=".47" stop-color="#ED803B"/><stop offset=".52" stop-color="#ED7D35"/><stop offset="1" stop-color="#ED4F35"/></linearGradient><linearGradient id="I" x1="133.098" x2="146.142" y1="164.765" y2="164.532" gradientUnits="userSpaceOnUse"><stop offset=".04" stop-color="#EDE6E5"/><stop offset=".1" stop-color="#EDD2C4"/><stop offset=".21" stop-color="#EDB491"/><stop offset=".3" stop-color="#ED9C69"/><stop offset=".39" stop-color="#ED8B4C"/><stop offset=".47" stop-color="#ED803B"/><stop offset=".52" stop-color="#ED7D35"/><stop offset="1" stop-color="#ED4F35"/></linearGradient><linearGradient id="J" x1="124.951" x2="142.633" y1="172.212" y2="171.897" gradientUnits="userSpaceOnUse"><stop offset=".04" stop-color="#EDE6E5"/><stop offset=".1" stop-color="#EDD2C4"/><stop offset=".21" stop-color="#EDB491"/><stop offset=".3" stop-color="#ED9C69"/><stop offset=".39" stop-color="#ED8B4C"/><stop offset=".47" stop-color="#ED803B"/><stop offset=".52" stop-color="#ED7D35"/><stop offset="1" stop-color="#ED4F35"/></linearGradient><linearGradient id="K" x1="136.327" x2="176.691" y1="141.548" y2="140.828" gradientUnits="userSpaceOnUse"><stop offset=".04" stop-color="#EDE6E5"/><stop offset=".1" stop-color="#EDD2C4"/><stop offset=".21" stop-color="#EDB491"/><stop offset=".3" stop-color="#ED9C69"/><stop offset=".39" stop-color="#ED8B4C"/><stop offset=".47" stop-color="#ED803B"/><stop offset=".52" stop-color="#ED7D35"/><stop offset="1" stop-color="#ED4F35"/></linearGradient><linearGradient id="M" x1="146.4" x2="186.769" y1="141.192" y2="141.251" gradientUnits="userSpaceOnUse"><stop offset=".04" stop-color="#EDE6E5"/><stop offset=".1" stop-color="#EDD2C4"/><stop offset=".21" stop-color="#EDB491"/><stop offset=".3" stop-color="#ED9C69"/><stop offset=".39" stop-color="#ED8B4C"/><stop offset=".47" stop-color="#ED803B"/><stop offset=".52" stop-color="#ED7D35"/><stop offset="1" stop-color="#ED4F35"/></linearGradient><linearGradient id="N" x1="108.273" x2="165.97" y1="142.311" y2="97.618" gradientUnits="userSpaceOnUse"><stop offset=".04" stop-color="#EDE6E5"/><stop offset=".1" stop-color="#EDD2C4"/><stop offset=".21" stop-color="#EDB491"/><stop offset=".3" stop-color="#ED9C69"/><stop offset=".39" stop-color="#ED8B4C"/><stop offset=".47" stop-color="#ED803B"/><stop offset=".52" stop-color="#ED7D35"/><stop offset="1" stop-color="#ED4F35"/></linearGradient><linearGradient id="O" x1="129.38" x2="152.112" y1="65.146" y2="181.586" gradientUnits="userSpaceOnUse"><stop stop-color="#EFDC8D"/><stop offset=".07" stop-color="#EFDC8D" stop-opacity=".672"/><stop offset=".17" stop-color="#EFDC8D" stop-opacity=".36"/><stop offset=".27" stop-color="#EFDC8D" stop-opacity=".176"/><stop offset=".38" stop-color="#EFDC8D" stop-opacity=".073"/><stop offset=".48" stop-color="#EFDC8D" stop-opacity=".022"/><stop offset=".58" stop-color="#EFDC8D" stop-opacity=".01"/><stop offset=".68" stop-color="#EFDC8D" stop-opacity=".01"/><stop offset=".78" stop-color="#EFDC8D" stop-opacity="0"/></linearGradient><linearGradient id="P" x1="117.041" x2="121.473" y1="74.565" y2="97.265" gradientUnits="userSpaceOnUse"><stop stop-color="#EFDC8D"/><stop offset=".07" stop-color="#EFDC8D" stop-opacity=".672"/><stop offset=".17" stop-color="#EFDC8D" stop-opacity=".36"/><stop offset=".27" stop-color="#EFDC8D" stop-opacity=".176"/><stop offset=".38" stop-color="#EFDC8D" stop-opacity=".073"/><stop offset=".48" stop-color="#EFDC8D" stop-opacity=".022"/><stop offset=".58" stop-color="#EFDC8D" stop-opacity=".01"/><stop offset=".68" stop-color="#EFDC8D" stop-opacity=".01"/><stop offset=".78" stop-color="#EFDC8D" stop-opacity="0"/></linearGradient><linearGradient id="Q" x1="124.157" x2="128.909" y1="154.771" y2="179.11" gradientUnits="userSpaceOnUse"><stop stop-color="#EFDC8D"/><stop offset=".07" stop-color="#EFDC8D" stop-opacity=".672"/><stop offset=".17" stop-color="#EFDC8D" stop-opacity=".36"/><stop offset=".27" stop-color="#EFDC8D" stop-opacity=".176"/><stop offset=".38" stop-color="#EFDC8D" stop-opacity=".073"/><stop offset=".48" stop-color="#EFDC8D" stop-opacity=".022"/><stop offset=".58" stop-color="#EFDC8D" stop-opacity=".01"/><stop offset=".68" stop-color="#EFDC8D" stop-opacity=".01"/><stop offset=".78" stop-color="#EFDC8D" stop-opacity="0"/></linearGradient><clipPath id="a"><path fill="#fff" d="m755.685 125.107-499.573 64.779 37.384 287.778 499.573-64.78z"/></clipPath><clipPath id="n"><path fill="#fff" d="m87.378 86.01 86.49-11.212 12.524 96.389-86.49 11.212z"/></clipPath></defs></svg>