<svg xmlns="http://www.w3.org/2000/svg" width="382" height="230" fill="none"><g clip-path="url(#a)"><path fill="url(#b)" d="M240.935 81.92 0 184.886l1.02 2.385L241.953 84.305z"/><path fill="url(#c)" d="M254.68 123.9 13.746 226.866l1.019 2.385 240.934-102.966z"/><path fill="url(#d)" d="M248.268 96.816 7.334 199.782l5.197 12.162 240.935-102.966z"/><path fill="#FFEFCD" d="m249.851 99.528 3.707 7.431-45.062 14.866z"/></g><path fill="#232826" d="M298.849 92.818c.424.113.763.41.947.805s.183.847 0 1.243c-1.738 3.758-9.734 13.534-46.211 23.027-.141.029-.89.099-1.864-2.006s-.438-2.627-.311-2.726c30.825-21.671 43.441-21.46 47.439-20.357z"/><path fill="#C9CDA9" d="m283.851 76.727-16.656 11.838s2.613-2.26 1.172-5.368c-1.413-3.038-9.507-3.772-9.507-3.772l14.706-7.756s7.233 5.51 10.285 5.043z"/><path fill="url(#e)" d="m273.584 71.683-14.706 7.755s8.109.721 9.508 3.772c1.441 3.094-1.173 5.369-1.173 5.369l16.656-11.839c-1.427.212-3.758-.862-5.834-2.09.098.352.113 1.059-.919 1.836-1.102.833-4.252 2.401-5.622 3.066 1.766 1.709 2.924 2.782 2.938 2.797l-.099.113s-3.15-2.925-7.049-6.866l.099-.099a192 192 0 0 0 3.998 3.942c1.342-.65 4.534-2.247 5.636-3.066 1.215-.918.89-1.695.82-1.837a5 5 0 0 1-.452-.282c-.029.028-.085.014-.099-.014v-.043c-2.049-1.257-3.673-2.5-3.673-2.5zm-2.203 7.219s.084 0 .099.028c.014.042 0 .085-.029.099-.042.014-.085 0-.099-.028-.014-.043 0-.085.043-.1zm.508-.255s.085 0 .099.029c.014.042 0 .084-.028.099s-.085 0-.099-.029c0 0 0-.084.028-.099m.523-.268s.085 0 .099.028c.014.043 0 .085-.028.1-.043.013-.085 0-.099-.03 0 0 0-.084.028-.098m.523-.254s.084 0 .099.028c.014.042 0 .085-.029.099-.042.014-.085 0-.099-.028 0 0 0-.085.029-.1m.522-.269s.085 0 .099.029c.014.042 0 .084-.028.098-.042.014-.085 0-.099-.028 0 0 0-.085.028-.099m.509-.282s.085 0 .099.028c.014.042 0 .085-.028.099-.043.014-.071 0-.099-.028 0 0 0-.085.028-.1m.508-.269s.085 0 .099.028c.015.029 0 .085-.028.1-.042.013-.085 0-.099-.029 0 0 0-.085.028-.099m.509-.282s.085 0 .099.028c.014.042 0 .085-.028.099-.043.014-.085 0-.099-.028 0 0 0-.085.028-.1m.509-.297s.084 0 .099.028c.014.043 0 .085-.029.1-.042.013-.084 0-.099-.03 0 0 0-.084.029-.098m.494-.297s.085 0 .099.029c.028.028 0 .07-.028.099-.029.028-.085 0-.099-.029 0 0 0-.085.028-.099m.48-.325s.085-.014.099 0c.029.029.014.085-.014.1-.028.028-.07.014-.099-.015v-.014c0-.028 0-.07.029-.085zm.424-.367s.071-.028.099 0a.07.07 0 0 1 0 .099.07.07 0 0 1-.099 0v-.113zm.424-.494s.042.07.028.099-.056.042-.099.028c0 0-.028-.014-.028-.028v-.071c.014-.028.071-.043.099-.028m.141-.551s.071.042.071.07c0 .043-.042.071-.071.071s-.056-.014-.056-.042v-.043c0-.042.042-.07.07-.07zm-3.616 7.925s.028.07 0 .099a.07.07 0 0 1-.099 0l-.014-.028c0-.029 0-.057.014-.085a.07.07 0 0 1 .099 0zm-.523-.395s.071-.029.099 0a.07.07 0 0 1 0 .098.07.07 0 0 1-.099 0l-.014-.028c0-.028 0-.056.014-.085zm-.424-.396s.071-.028.099 0a.07.07 0 0 1 0 .099.07.07 0 0 1-.099 0v-.113zm-.424-.396s.071-.028.099 0a.067.067 0 0 1 0 .1.07.07 0 0 1-.099 0v-.114zm-.423-.41s.07-.027.098 0a.067.067 0 0 1 0 .1.067.067 0 0 1-.098 0l-.015-.029c0-.028 0-.056.015-.084zm-.424-.395s.07-.028.099 0a.07.07 0 0 1 0 .099.07.07 0 0 1-.099 0l-.014-.028v-.085zm-.41-.41s.071-.028.099 0a.07.07 0 0 1 0 .1.07.07 0 0 1-.099 0l-.014-.029c0-.028 0-.056.014-.085zm-.424-.395s.071-.028.099 0a.07.07 0 0 1 0 .099.07.07 0 0 1-.099 0l-.014-.028v-.085zm-.311-.41s.029.07 0 .1a.067.067 0 0 1-.098 0l-.015-.03c0-.027 0-.056.015-.084a.067.067 0 0 1 .098 0zm-.522-.41s.07-.028.099 0a.07.07 0 0 1 0 .1.07.07 0 0 1-.099 0l-.014-.029c0-.028 0-.056.014-.085zm-.424-.41s.071-.027.099 0a.07.07 0 0 1 0 .1.07.07 0 0 1-.099 0l-.014-.028v-.085zm-.41-.409s.071-.028.099 0a.07.07 0 0 1 0 .099.07.07 0 0 1-.099 0v-.099m-.409-.395s.07-.029.098 0a.067.067 0 0 1 0 .099.067.067 0 0 1-.098 0l-.015-.029c0-.028 0-.056.015-.085zm-.424-.41s.07-.028.099 0a.07.07 0 0 1 0 .099.07.07 0 0 1-.099 0l-.014-.028c0-.029 0-.057.014-.085zm-.41-.41s.071-.028.099 0a.07.07 0 0 1 0 .1.07.07 0 0 1-.099 0l-.014-.03v-.084zm-.41-.424s.071-.028.099 0a.067.067 0 0 1 0 .1.07.07 0 0 1-.099 0v-.029c0-.028 0-.056.015-.085zm-.409-.41s.07-.028.099 0a.07.07 0 0 1 0 .1.07.07 0 0 1-.099 0l-.014-.029c0-.028 0-.056.014-.084z"/><path fill="#232826" d="M258.832 79.522c.085 0 8.038.748 9.395 3.687 1.37 2.953-1.032 5.1-1.145 5.199l.198.226s2.67-2.374 1.215-5.538c-1.427-3.08-9.296-3.814-9.635-3.857l-.028.297zM273.467 71.738c.297.226 7.318 5.538 10.384 5.072l-.043-.283c-2.952.452-10.101-4.959-10.171-5.015z"/><path fill="#232826" d="M276.873 75.822v-.085s.071-.028.099 0c0 0 .029.07 0 .099 0 0-.07.028-.099 0v-.028zm.354-.467v-.07s.07-.043.099-.028c0 0 .042.07.028.098 0 0-.057.043-.099.029 0 0-.028-.014-.028-.029m.155-.55v-.043s.042-.07.071-.07c0 0 .07.042.07.07 0 0-.042.07-.07.07s-.057-.013-.057-.042zM277.934 74.423l-.127.084s.466.763-.551 1.667l.127.085c1.074-.975.551-1.808.551-1.822z"/><path fill="url(#f)" d="M283.487 63.898c-1.484 3.207-8.646 12.39-42.777 21.29 0 0-.65.155-1.54-1.766s-.353-2.317-.353-2.317c28.861-20.3 40.488-19.806 43.907-18.874a1.21 1.21 0 0 1 .777 1.667z"/><path fill="#EFDC8D" d="M238.816 81.106s-.523.381.296 2.218c-.438-1.032.099-1.356.099-1.356 29.978-17.871 40.658-19.44 43.668-19.383.31 0 .522.127.607.297a1.22 1.22 0 0 0-.777-.664c-3.405-.947-15.045-1.427-43.907 18.874z"/><path fill="#232826" d="M279.377 66.032c-.099.028.212.608.353.848.099.17.311.452.367.41.085-.071.17-.128.241-.198a21 21 0 0 0 2.161-2.105.59.59 0 0 1-.438-.029c-.141-.099-.212-.296-.24-.48-.565.396-1.272.862-2.176 1.413a1.6 1.6 0 0 1-.268.155zM249.933 79.89c-.141.043.48.919.721 1.258.07.099.169.24.268.24.099-.028.212-.07.311-.113 5.326-1.85 9.79-3.603 13.52-5.255a23 23 0 0 1-1.258-1.964c-3.715 1.681-8.095 3.574-13.265 5.707-.099.043-.198.085-.297.113zM249.212 78.676l.07.155c5.001-2.401 9.621-4.591 13.732-6.513l-.071-.155c-4.111 1.921-8.73 4.111-13.731 6.513M249.322 79.1s0-.084.043-.113c0 0 .085 0 .113.043 0 0 0 .085-.043.113 0 0-.084 0-.113-.043m.608-.296s0-.085.042-.113c0 0 .085 0 .113.042 0 0 0 .085-.042.113 0 0-.085 0-.113-.042m.593-.283s0-.085.043-.113c0 0 .084 0 .113.043 0 0 0 .084-.043.113 0 0-.085 0-.113-.043m.608-.282s0-.085.042-.113c0 0 .085 0 .113.042 0 0 0 .099-.042.113 0 0-.085 0-.113-.042m.593-.283s0-.085.042-.113c0 0 .085 0 .113.042 0 0 0 .085-.042.114 0 0-.085 0-.113-.043m.593-.297s0-.084.043-.113c0 0 .085 0 .113.043 0 0 0 .085-.043.113 0 0-.084 0-.113-.043m.594-.282s0-.085.042-.113c0 0 .085 0 .113.042 0 0 0 .085-.042.113 0 0-.085 0-.113-.042m.607-.283s0-.084.043-.113c0 0 .084 0 .113.043 0 0 0 .084-.043.113s-.085 0-.113-.043m.594-.282s0-.1.042-.113c0 0 .085 0 .113.042 0 0 0 .085-.042.113 0 0-.085 0-.113-.042m.607-.297s0-.085.042-.113c0 0 .085 0 .113.043 0 0 0 .084-.042.113s-.085 0-.113-.043m.593-.282s0-.085.043-.114c0 0 .084 0 .113.043 0 0 0 .085-.043.113-.042.014-.084 0-.113-.042m.608-.283s0-.085.042-.113c0 0 .085 0 .113.042 0 0 0 .085-.042.113-.043.014-.099 0-.113-.042m.593-.282s0-.085.043-.114c0 0 .084 0 .113.043 0 0 0 .085-.043.113 0 0-.099 0-.113-.042m.593-.283s0-.099.043-.113c0 0 .085 0 .113.042 0 0 0 .085-.042.113 0 0-.099 0-.114-.042m.608-.297s0-.084.042-.113c0 0 .085 0 .113.043 0 0 0 .084-.042.113 0 0-.085 0-.113-.043m.593-.282s0-.1.043-.113c0 0 .084 0 .113.042 0 0 0 .085-.043.113 0 0-.084 0-.113-.042m.608-.283s0-.085.042-.113c0 0 .085 0 .113.043 0 0 0 .084-.042.112-.043.015-.085 0-.113-.042m.593-.282s0-.085.043-.113c0 0 .084 0 .113.042 0 0 0 .085-.043.113-.042.014-.085 0-.113-.042m.608-.283s0-.085.042-.113c0 0 .085 0 .113.042 0 0 0 .085-.042.114-.043.014-.085 0-.113-.043m.593-.282s0-.085.042-.114c0 0 .085 0 .113.043 0 0 0 .099-.042.113 0 0-.085 0-.113-.043m.607-.283s0-.085.043-.113c0 0 .085 0 .113.042 0 0 0 .1-.043.113 0 0-.098 0-.113-.042m.594-.283s0-.084.042-.113c0 0 .085 0 .113.043 0 0 0 .099-.042.113 0 0-.085 0-.113-.043m.607-.268s0-.085.043-.113c0 0 .084 0 .113.042 0 0 0 .085-.043.113-.042.014-.085 0-.113-.042M279.178 66.57c-3.616 2.246-8.688 4.902-15.059 7.911.085.141.155.254.24.382l.014-.015c.043-.014.099 0 .113.043s0 .084-.042.113c.212.339.424.635.607.89a.3.3 0 0 0 .113-.057c.099-.042.198-.085.283-.127 7.219-3.235 11.612-6.018 14.297-8.165a39 39 0 0 1-.58-.99zm-14.197 7.996s.084 0 .113.042c.014.043 0 .085-.043.113-.042.014-.099 0-.113-.042s0-.1.043-.113m.593-.283s.085 0 .113.043c.014.042 0 .084-.042.113-.043.014-.099 0-.113-.043-.015-.042 0-.099.042-.113m.593-.296s.085 0 .113.042c.014.042 0 .085-.042.113-.042.014-.085 0-.113-.042-.014-.043 0-.1.042-.113m.594-.297s.084 0 .113.042c.014.043 0 .085-.043.113-.042.014-.084 0-.113-.042-.014-.042 0-.085.043-.113m.593-.297s.099 0 .113.043 0 .084-.042.113-.085 0-.113-.029c-.015-.042 0-.084.042-.113zm.593-.282s.085 0 .113.042c.014.042 0 .085-.042.113s-.085 0-.113-.028c-.014-.043 0-.1.042-.113zm.608-.297s.085 0 .113.028c.014.043 0 .1-.043.113-.042.014-.084 0-.113-.042-.014-.042 0-.085.043-.113zm.579-.31s.085 0 .113.042 0 .084-.042.113-.085 0-.113-.029c0 0 0-.084.042-.113zm.593-.297s.085 0 .113.028a.11.11 0 0 1-.028.113c-.042.014-.099 0-.113-.043s0-.084.042-.113zm.594-.297s.084 0 .113.042a.11.11 0 0 1-.029.113c-.042.014-.098 0-.113-.028 0 0 0-.099.043-.113zm.593-.31s.099 0 .113.027a.11.11 0 0 1-.028.113c-.043.014-.099 0-.113-.042a.11.11 0 0 1 .028-.113zm.579-.312s.099 0 .113.029c.014.042 0 .098-.042.113a.11.11 0 0 1-.113-.029s0-.099.028-.113zm.594-.31s.084 0 .113.042a.11.11 0 0 1-.029.113c-.042.014-.099 0-.113-.042a.11.11 0 0 1 .029-.113m.579-.311s.085 0 .113.028c.014.042 0 .099-.028.113-.043.028-.099 0-.113-.028 0 0 0-.085.028-.113m.593-.311s.085 0 .113.028c.014.043 0 .085-.042.113a.11.11 0 0 1-.113-.028s0-.085.028-.113zm.579-.31s.099 0 .113.027c.029.043 0 .085-.028.113 0 0-.085 0-.113-.028 0 0 0-.099.028-.113m.58-.326s.098 0 .113.028c.028.043 0 .085-.029.113-.042.029-.084 0-.113-.028 0 0 0-.085.029-.113m.579-.31s.085 0 .113.028a.11.11 0 0 1-.028.113c-.043.028-.085 0-.113-.029 0 0 0-.084.028-.113m.579-.326s.099 0 .113.029c.014.042 0 .099-.028.113-.043.028-.099 0-.113-.028 0 0 0-.085.028-.114m.579-.325s.099 0 .113.029c.029.042 0 .085-.028.113-.042.028-.099 0-.113-.028a.11.11 0 0 1 .028-.114m.579-.338s.085 0 .113.028c.029.042 0 .099-.028.113a.11.11 0 0 1-.113-.028s0-.085.028-.114m.566-.34s.084 0 .113.029c.028.042 0 .084-.029.113-.042.028-.084 0-.113-.029 0 0 0-.084.029-.113m.579-.339s.085 0 .113.029c.028.042 0 .084-.028.113-.043.028-.085 0-.113-.029a.11.11 0 0 1 .028-.113m.565-.339s.085 0 .113.029c.028.042 0 .084-.028.113-.043.028-.085 0-.113-.029a.11.11 0 0 1 .028-.113m.565-.339s.085 0 .113.029c.028.042 0 .084-.028.112-.043.029-.085.015-.113-.028a.11.11 0 0 1 .028-.113"/><path fill="#232826" d="M278.992 66.259s.057.113.099.17c-3.616 2.232-8.674 4.902-15.059 7.925-.085-.127-.156-.269-.24-.41l.113-.056c.098-.043.197-.085.282-.127 7.276-3.306 11.895-5.764 14.805-7.502M264.088 74.51l-.071-.156h.029c.028.043.056.1.084.142 0 0-.028 0-.028.014zM264.345 74.961s0-.07.028-.099l.085.128c-.043.014-.085 0-.113-.043zM250.005 80.824a318 318 0 0 1-9.846 3.602c.169.184.367.353.522.381 3.617-1.102 6.767-2.232 9.819-3.277-.156-.198-.311-.438-.495-.707m.057.395s0-.099.042-.113.085 0 .099.042 0 .085-.042.113c0 0-.085 0-.099-.042m-.622.24s0-.099.043-.113.084 0 .113.043c.014.042 0 .084-.057.099-.042.014-.085 0-.099-.043zm-.621.226s0-.099.042-.113.085 0 .113.043c.014.042 0 .084-.042.113-.043.014-.085 0-.099-.043zm-.622.226s0-.099.042-.113c.043 0 .085 0 .099.057.015.042 0 .084-.042.099s-.085 0-.099-.043m-.636.226s0-.099.057-.113c.042-.014.085 0 .099.057.014.042 0 .085-.057.099-.042.014-.084 0-.099-.043m-.621.226s0-.099.042-.113.099 0 .113.043 0 .084-.042.113c-.043.014-.085 0-.099-.043zm-.622.226s0-.099.043-.113c.042 0 .084 0 .113.057.014.042 0 .085-.057.099-.042.014-.085 0-.099-.043m-5.495 1.893s0 .085-.057.1c-.042.014-.085 0-.099-.043 0 0 0-.099.057-.113.042-.014.099 0 .099.056m.635-.212s0 .085-.056.1c-.042.014-.085 0-.099-.043 0 0 0-.099.042-.113.043 0 .099 0 .099.056zm.622-.211s0 .084-.056.099c-.043.014-.085 0-.099-.043 0 0 0-.085.056-.099.043-.014.085 0 .099.057zm.636-.212s0 .085-.057.099c-.042.014-.085 0-.099-.043 0 0 0-.099.043-.113.042 0 .099 0 .099.057zm.621-.212s0 .085-.042.113c-.042 0-.085 0-.099-.043s0-.084.057-.098c.042-.015.098 0 .098.056zm.622-.226s0 .084-.057.099c-.042.014-.084 0-.098-.043 0 0 0-.099.056-.113.042-.014.085 0 .099.057m.636-.212s0 .085-.057.099c-.042.014-.085 0-.099-.043s0-.084.057-.099c.042-.014.085 0 .099.057zm.621-.226s0 .085-.042.113c-.042.014-.085 0-.099-.043 0 0 0-.098.057-.113.042-.014.084 0 .098.057zm.636-.226s0 .085-.057.113c-.042.014-.084 0-.098-.043 0 0 0-.099.056-.113.042-.014.085 0 .113.043zM239.776 83.96l.311-.127c3.405-1.329 6.541-2.6 9.437-3.787.127.226.254.424.381.622-3.094 1.2-6.654 2.5-9.875 3.602-.155-.17-.254-.325-.254-.325z"/><path fill="#232826" d="M263.086 72.686c.65 1.413 1.526 2.896 2.684 4.21l.127-.113c-3.433-3.87-4.351-9.352-4.351-9.395l-.17.029s.41 2.486 1.71 5.283zM278.825 65.268c.41.876.918 1.822 1.54 2.698l.141-.099c-1.822-2.57-2.712-5.834-2.712-5.862l-.156.042s.396 1.483 1.201 3.221zM249.28 79c.494 1.074 1.172 2.204 2.104 3.179l.128-.113c-2.713-2.882-3.306-7.106-3.306-7.148l-.17.028s.269 1.935 1.258 4.054z"/><path fill="#232826" d="M238.732 80.978c28.608-20.117 40.319-19.92 44.021-18.888.381.099.692.367.861.734.17.368.17.777 0 1.13-1.61 3.49-9.027 12.546-42.876 21.361-.084.014-.791.127-1.709-1.85s-.367-2.459-.297-2.501zm1.936 4.069c33.721-8.788 41.082-17.758 42.692-21.205a1.09 1.09 0 0 0 0-.89 1.07 1.07 0 0 0-.678-.58c-3.659-1.017-15.271-1.2-43.766 18.846 0 0-.424.396.396 2.147.819 1.752 1.37 1.681 1.37 1.681z"/><path fill="url(#g)" d="M381.455 45.28c-4.549 9.805-26.376 37.848-130.635 65 0 0-1.992.494-4.718-5.397-2.727-5.876-1.06-7.091-1.06-7.091C333.168 35.83 368.67 37.299 379.096 40.18c2.189.607 3.32 3.037 2.359 5.1"/><path fill="url(#h)" d="M363.836 39.46c2.331 9.14 7.982 17.446 8.293 17.927 5.41-5.185 8.038-9.352 9.31-12.107.946-2.063-.184-4.493-2.36-5.1-2.924-.805-7.798-1.498-15.243-.72"/><path fill="#232826" d="M244.931 97.636c37.974-26.7 70.339-44.586 96.22-53.147 21.474-7.106 33.03-5.863 38.002-4.492a3.84 3.84 0 0 1 2.487 2.119 3.88 3.88 0 0 1 0 3.263c-2.176 4.69-8.688 14.297-28 26.079-23.268 14.198-57.837 27.322-102.762 39.019-.085.029-2.19.467-4.959-5.509s-1.073-7.29-.988-7.346zm136.341-52.44a3.52 3.52 0 0 0 0-2.925 3.44 3.44 0 0 0-2.232-1.893c-4.93-1.356-16.401-2.585-37.762 4.493-25.838 8.546-58.176 26.417-96.107 53.09-.014 0-1.469 1.243 1.13 6.837 2.599 5.595 4.464 5.284 4.478 5.284 44.882-11.683 79.424-24.808 102.649-38.977 19.213-11.726 25.697-21.262 27.844-25.91"/><path fill="#232826" d="M247.954 106.493s1.257 2.104 2.232 2.401a901 901 0 0 0 30.486-9.804 48 48 0 0 1-2.952-4.507 1868 1868 0 0 1-28.82 11.542zM318.545 70.412c3.942 8.49 8.844 14.269 8.915 14.368l.155-.128c-.113-.127-11.118-13.096-13.336-28.777l-.198.029c.749 5.269 2.487 10.242 4.464 14.522zM366.873 48.374c2.458 5.298 5.072 9.084 5.114 9.14l.17-.113c-.057-.085-5.92-8.575-8.321-17.955l-.198.056c.805 3.15 2.006 6.202 3.235 8.872M276.56 90.078c2.995 6.484 6.894 10.835 6.95 10.892l.156-.142c-.085-.099-8.802-9.846-10.158-21.911l-.198.028c.452 4.069 1.738 7.87 3.25 11.133"/><path fill="#232826" d="M370.016 56.384a82 82 0 0 1-2.289-3.97c-8.928 5.312-23.027 12.814-45.221 22.9-.282.128-.579.269-.862.396l-.169.07a69 69 0 0 0 3.842 5.99c.128-.056.071-.028.184-.07.297-.127.593-.268.89-.395 22.025-9.861 35.46-18.352 43.639-24.92zm-44.162 24.567s.113-.014.142.029c.028.042.028.113-.029.14-.042.03-.113.03-.141-.027v-.014a.115.115 0 0 1 .042-.128zm-.48-.664s.113-.014.141.029c.029.042.014.113-.028.14-.042.043-.113.015-.141-.027a.14.14 0 0 1 .028-.127zm-.452-.678s.113-.014.141.029c.028.042.014.112-.028.14s-.113.015-.141-.028c0 0 0-.112.042-.14zm-.452-.692s.113-.014.141.028.014.113-.028.142-.113.014-.141-.029a.11.11 0 0 1 .042-.127zm-.452-.692s.113-.014.141.028.014.113-.028.141-.113.014-.141-.028c0 0 0-.113.042-.141zm-1.597-2.628s-.113 0-.141-.042 0-.113.043-.142c.056-.028.113 0 .141.043s.014.113-.043.141m.41.707s-.113 0-.141-.029c0 0 0-.113.042-.141.057-.028.113 0 .141.042.029.043 0 .113-.042.142zm.424.706s-.113.014-.141-.028c0 0 0-.114.042-.142.057-.028.113 0 .141.028.029.043.014.114-.028.142zm.438.692s-.113.014-.141-.028c0 0 0-.113.042-.142s.113-.014.141.029c.028.042.014.113-.028.141zM318.778 68.124s0 .113-.057.141c-.056.014-.113 0-.127-.056 0 0 0-.113.056-.142.057-.028.113 0 .142.057zM321.257 73.308s0 .113-.042.141c-.056.028-.113 0-.141-.042 0 0 0-.113.042-.141.057-.029.113 0 .141.042M319.1 68.874s0 .113-.056.14c-.043.029-.113 0-.127-.056 0 0 0-.113.056-.141.057-.028.113 0 .141.057zM319.863 70.596s0 .113-.057.141c-.056.028-.113 0-.141-.042-.028-.057 0-.113.057-.142.056-.028.113 0 .141.043M319.444 69.62s0 .113-.057.141-.113 0-.141-.056c-.029-.057 0-.113.056-.142.057-.028.113 0 .142.043zM320.877 72.574s0 .113-.042.141c-.057.028-.113 0-.142-.042-.028-.057 0-.113.043-.142.056-.028.113 0 .141.043M321.645 74.029s0 .113-.043.141c-.056.028-.113 0-.141-.042 0 0 0-.113.042-.141.057-.029.113 0 .142.042M327.452 82.958s.028.113-.014.141-.113.028-.141-.014c0 0 0-.113.028-.141.042-.029.113-.029.141.014zM328.465 84.244s.028.098 0 .14c-.043.043-.113.029-.142 0v-.028s-.028-.084 0-.127c.043-.042.113-.028.142 0zM326.956 82.307s.029.113-.014.141c-.042.029-.113.029-.141-.014v-.028s-.014-.099.028-.127.113-.028.142.014zM322.036 74.735s0 .113-.042.14c-.056.03-.113 0-.141-.041 0 0 0-.114.042-.142.057-.028.113 0 .141.043M326.461 81.644s.028.113-.014.141c-.043.029-.113.029-.141-.028 0 0 0-.113.028-.141.042-.043.113-.028.141.014zM327.96 83.607s.028.113-.014.142c-.042.042-.099.028-.141-.014v-.015a.13.13 0 0 1 .028-.127c.042-.042.113-.028.141.014zM315.584 57.98s-.029.112-.085.126c-.057 0-.099 0-.113-.056v-.028c0-.057.028-.113.085-.127.056 0 .113.028.127.084zM315.754 58.786s-.028.113-.085.127c-.042 0-.099-.014-.113-.056 0-.07.029-.127.085-.141.057 0 .113.028.127.084zM315.934 59.59s-.029.113-.071.127c-.042 0-.099 0-.113-.056 0-.07.028-.127.071-.142.056-.014.113.015.127.071zM316.132 60.382s-.014.113-.071.127c-.042 0-.099 0-.113-.056 0-.071.014-.128.071-.142s.113.014.127.07zM315.289 56.385s-.029.113-.085.113c-.043 0-.099-.014-.113-.056v-.029c0-.056.028-.113.084-.127.057 0 .114.028.114.085zM315.159 55.564s-.028.112-.084.112a.13.13 0 0 1-.113-.056v-.028c0-.057.028-.113.084-.113s.113.028.113.084M315.431 57.19s-.028.112-.084.126a.13.13 0 0 1-.113-.056v-.028s.014-.113.07-.127c.057 0 .113.028.127.084M318.469 67.375s0 .113-.057.14c-.056.015-.113 0-.127-.056 0 0 0-.113.057-.14.056-.015.113 0 .127.056M316.343 61.172s-.014.113-.071.127c-.042 0-.098 0-.127-.056v-.015c-.014-.056.014-.113.071-.127s.113.014.127.07M317.308 64.295s0 .112-.071.127c-.056.014-.113 0-.127-.057-.014-.056 0-.113.057-.127.056-.014.113 0 .127.056zM317.054 63.531s0 .113-.071.127c-.056.015-.099 0-.127-.056 0 0 0-.127.071-.141.056-.014.113 0 .127.07M316.8 62.74s-.014.113-.07.127a.104.104 0 0 1-.127-.056s0-.127.07-.141c.057-.014.113 0 .127.07M316.556 61.965s-.014.113-.071.127c-.042 0-.099 0-.113-.057 0 0 .014-.127.071-.141s.113.014.127.07zM318.151 66.612s0 .113-.057.128c-.056.014-.113 0-.127-.057 0 0 0-.113.057-.141.056-.014.113 0 .127.056zM317.87 65.85s0 .112-.057.126c-.056.014-.113 0-.127-.056 0 0 0-.113.056-.142.057-.014.113 0 .128.057zM317.575 65.071s0 .113-.057.127c-.056.014-.113 0-.127-.056 0 0 0-.113.056-.141.057-.015.113 0 .128.056zM279.555 93.877v-.042c-.183.07-.381.155-.565.226-.424.113 1.469 2.825 2.176 3.842.226.311.593.82.65.791.325-.113.833-.282 1.144-.381 16.26-5.637 29.879-11.005 41.266-16.035a70 70 0 0 1-3.843-5.99c-11.344 5.129-24.723 10.92-40.517 17.42-.056.028-.113.042-.155.07 0 0 .014 0 .028.014.028.043 0 .113-.042.141-.057.029-.113 0-.142-.028zm2.741 3.984s.113-.014.141.028c.043.043.029.113-.014.141-.042.029-.113.029-.141-.028 0 0 0-.113.028-.141zm-.48-.664s.113-.014.141.028.014.113-.028.141c-.043.029-.113.029-.142-.028a.13.13 0 0 1 .029-.127zm-.466-.678s.113-.014.141.028.014.113-.028.141a.11.11 0 0 1-.142-.028s0-.113.043-.141zm-.453-.678s.113-.014.142.028a.11.11 0 0 1-.029.141c-.042.028-.113.014-.141-.028 0 0 0-.113.028-.141m-.452-.693s.113-.014.142.029a.11.11 0 0 1-.029.141c-.042.028-.113.014-.141-.028 0 0 0-.113.042-.142zm-.438-.692s.113-.014.142.028.014.114-.029.142c-.042.028-.113.014-.141-.043-.028-.042-.014-.113.028-.14zM278.92 92.352s0 .113-.043.14c-.056.03-.113 0-.141-.041 0 0 0-.113.042-.142s.113 0 .142.043M279.33 93.072s0 .113-.043.141c-.056.028-.113 0-.141-.042 0 0 0-.113.042-.142.057-.028.113 0 .142.043M278.17 90.91s0 .113-.042.142c-.057.028-.113 0-.141-.043-.029-.042 0-.113.042-.141.056-.028.113 0 .141.042M278.537 91.631s0 .113-.043.142c-.056.028-.113 0-.141-.043 0 0 0-.113.042-.141s.113 0 .142.042M277.806 90.163s0 .113-.042.141c-.057.028-.113 0-.142-.056-.028-.057 0-.113.043-.142.056-.028.113 0 .141.043zM282.929 98.554s.028.113-.014.141c-.043.029-.113.029-.141-.014 0 0 0-.113.028-.141.042-.028.113-.028.141.028zM277.465 89.428s0 .113-.057.141c-.056.029-.113 0-.141-.056-.028-.043 0-.113.057-.127.056-.014.113 0 .141.056zM283.935 99.839s.028.113-.014.141c-.042.043-.113.029-.141 0l-.014-.028c-.015-.042 0-.085.028-.127.042-.028.113-.028.141.014M283.428 99.19s.028.113-.015.14c-.042.043-.113.03-.141-.013v-.014a.14.14 0 0 1 .028-.127c.043-.029.113-.029.142.014zM284.47 100.461s.042.099 0 .141c-.043.043-.099.043-.142 0 0 0 0-.014-.014-.028a.11.11 0 0 1 .028-.113c.043-.042.113-.028.156 0zM275.217 83.282s-.014.113-.07.127c-.043 0-.099 0-.128-.056v-.014c-.014-.057.015-.114.071-.128.057-.014.113.014.127.071M275.023 82.476s-.028.113-.07.127c-.057 0-.099 0-.113-.057v-.014c-.014-.056.014-.113.07-.127s.113.014.127.07zM274.836 81.685s-.029.113-.085.127c-.057 0-.099 0-.113-.056v-.014c0-.057.028-.113.085-.127.056 0 .113.028.127.085zM274.356 79.398s-.028.112-.085.112c-.042 0-.085-.014-.099-.056v-.028c0-.057.028-.1.085-.113.056 0 .113.028.113.084zM275.444 84.058s-.014.113-.071.127c-.042 0-.098 0-.127-.056 0 0 .014-.127.071-.142s.113.015.127.071M275.937 85.627s0 .113-.07.127c-.043 0-.099 0-.128-.057 0 0 0-.127.071-.14.057-.015.113 0 .127.056zM276.504 87.166s0 .113-.057.127c-.056.015-.113 0-.127-.056 0 0 0-.113.057-.141.056-.014.113 0 .127.056zM276.205 86.39s0 .112-.057.126c-.056.014-.113 0-.127-.056 0 0 0-.113.056-.141.057-.015.113 0 .128.056zM276.799 87.916s0 .113-.057.127c-.056.014-.113 0-.127-.056 0 0 0-.113.057-.142.042-.028.113 0 .141.057zM277.124 88.678s0 .113-.057.141c-.056.014-.113 0-.141-.056-.028-.057 0-.113.056-.141.057-.015.113 0 .142.056M275.684 84.85s0 .113-.071.127c-.056.014-.099 0-.127-.056 0 0 .014-.128.071-.142s.113.014.127.07M319.818 72.843c20.103-9.254 36.222-16.939 47.905-22.873l-.099-.183c-11.683 5.933-27.802 13.619-47.905 22.872l.084.183zM246.466 105.66l1.837-.791a5240 5240 0 0 0 29.229-12.927l-.085-.183a7168 7168 0 0 1-29.229 12.926l-1.836.791zM273.785 81.658l.099.17c14.706-8.731 28.495-16.219 40.997-22.265l-.085-.184c-12.502 6.047-26.304 13.534-41.011 22.265zM319.336 72.039s0-.113.057-.141c0 0 .113 0 .141.056 0 0 0 .113-.057.142-.056.028-.113 0-.141-.057m.777-.367s0-.113.057-.142c0 0 .113 0 .141.057 0 0 0 .113-.057.141-.056.028-.113 0-.141-.056m.721-.311s0-.113.056-.141c0 0 .113 0 .141.056 0 0 0 .113-.056.141-.057.029-.113 0-.141-.056m.748-.353s0-.113.057-.142c0 0 .113 0 .141.057 0 0 0 .113-.056.141-.057.028-.113 0-.142-.056m.735-.34s0-.112.056-.14c0 0 .113 0 .142.056 0 0 0 .113-.057.141-.056.028-.113 0-.141-.056m.749-.338s0-.113.056-.142c0 0 .113 0 .141.057 0 0 0 .113-.056.141-.057.028-.113 0-.141-.056m.748-.354s0-.113.057-.14c0 0 .113 0 .141.056 0 0 0 .113-.056.14-.057.03-.113 0-.142-.056m.749-.339s0-.113.057-.14c0 0 .113 0 .141.056 0 0 0 .113-.057.14-.056.03-.113 0-.141-.056m.735-.339s0-.113.056-.141c0 0 .113 0 .142.056 0 0 0 .114-.057.142s-.113 0-.141-.057m.748-.353s0-.113.057-.141c0 0 .113 0 .141.056 0 0 0 .113-.056.142-.057.028-.113 0-.142-.057m.749-.339s0-.113.057-.141c0 0 .113 0 .141.056 0 0 0 .113-.057.142-.056.028-.113 0-.141-.057m.749-.353s0-.113.056-.141c0 0 .113 0 .142.056 0 0 0 .113-.057.141-.056.029-.113 0-.141-.056m.735-.34s0-.112.056-.14c0 0 .113 0 .141.056 0 0 0 .113-.056.141-.057.029-.113 0-.141-.056m.748-.352s0-.113.057-.142c0 0 .113 0 .141.057 0 0 0 .113-.056.141-.057.028-.113 0-.142-.056m.749-.34s0-.112.042-.14c0 0 .113 0 .142.056 0 0 0 .113-.057.141-.056.028-.113 0-.141-.056zm.735-.353s0-.113.056-.14c0 0 .113 0 .141.056 0 0 0 .113-.056.14-.057.03-.113 0-.141-.056m.748-.339s0-.113.057-.14c0 0 .113 0 .141.056 0 0 0 .113-.056.14-.057.03-.113 0-.142-.056m.749-.353s0-.113.057-.141c0 0 .113 0 .141.056 0 0 0 .113-.057.142 0 0-.113 0-.141-.057m.749-.339s0-.113.042-.141c0 0 .113 0 .142.056 0 0 0 .113-.043.142-.056.028-.113 0-.141-.057m.735-.353s0-.113.056-.141c0 0 .113 0 .141.056 0 0 0 .113-.056.141-.057.029-.113 0-.141-.056m.748-.353s0-.113.057-.141c0 0 .113 0 .141.056 0 0 0 .113-.056.141-.057.029-.113 0-.142-.056m.735-.34s0-.112.056-.14c0 0 .113 0 .142.056 0 0 0 .113-.057.141-.056.028-.113 0-.141-.056m.749-.352s0-.113.056-.142c0 0 .113 0 .141.057 0 0 0 .113-.056.141-.057.028-.113 0-.141-.056m.748-.354s0-.113.057-.14c0 0 .113 0 .141.056 0 0 0 .113-.056.14 0 0-.113 0-.142-.041zm.735-.353s0-.113.056-.141c0 0 .114 0 .142.056 0 0 0 .113-.057.142-.056.028-.113 0-.141-.057m.749-.339s0-.113.056-.141c0 0 .113 0 .141.056 0 0 0 .113-.056.142 0 0-.113 0-.141-.057m.748-.353s0-.113.057-.141c0 0 .113 0 .141.056 0 0 0 .113-.056.141-.057.029-.113 0-.142-.056m.735-.353s0-.113.057-.142c0 0 .113 0 .141.057 0 0 0 .113-.057.141-.056.029-.113 0-.141-.056m.749-.353s0-.114.056-.142c0 0 .113 0 .142.057 0 0 0 .113-.057.141 0 0-.113 0-.141-.056m.734-.354s0-.113.057-.14c0 0 .113 0 .141.056 0 0 0 .113-.056.14 0 0-.113 0-.142-.041zm.749-.339s0-.113.057-.141c0 0 .113 0 .141.057 0 0 0 .113-.057.14 0 0-.113 0-.141-.056m.735-.353s0-.113.056-.141c0 0 .113 0 .142.056 0 0 0 .113-.057.142-.056.028-.113 0-.141-.057m.749-.353s0-.113.056-.141c0 0 .113 0 .141.056 0 0 0 .113-.056.142-.057.028-.113 0-.141-.057m.734-.353s0-.113.043-.142c0 0 .113 0 .141.057 0 0 0 .113-.057.141-.056.029-.113 0-.141-.042zm.749-.353s0-.113.042-.142c0 0 .113 0 .142.057 0 0 0 .113-.057.141-.056.028-.113 0-.141-.042zm.735-.354s0-.113.056-.14c0 0 .113 0 .141.056 0 0 0 .113-.056.14 0 0-.113 0-.141-.056m.748-.353s0-.113.043-.141c0 0 .113 0 .141.042 0 0 0 .113-.057.142 0 0-.113 0-.141-.057zm.735-.353s0-.113.042-.127c0 0 .113 0 .142.042 0 0 0 .113-.043.142 0 0-.113 0-.141-.057m.749-.353s0-.113.042-.141c0 0 .113 0 .141.042 0 0 0 .113-.056.141 0 0-.113 0-.142-.056zm.734-.353s0-.113.043-.142c0 0 .113 0 .141.043 0 0 0 .113-.043.141 0 0-.113 0-.141-.056zm.749-.354s0-.113.042-.14c0 0 .113 0 .142.042 0 0 0 .113-.057.14 0 0-.113 0-.141-.056zm.735-.367s0-.113.042-.141c0 0 .113 0 .141.042 0 0 0 .113-.056.142-.057.028-.113 0-.142-.057zm.734-.353s0-.113.043-.141c0 0 .113 0 .141.042 0 0 0 .113-.057.141 0 0-.113 0-.141-.042zm.735-.353s0-.113.056-.141c0 0 .113 0 .142.042 0 0 0 .113-.057.141 0 0-.113 0-.141-.042m.749-.353s0-.113.056-.142c0 0 .113 0 .141.043 0 0 0 .113-.056.141 0 0-.113 0-.141-.042m.734-.353s0-.113.057-.142c0 0 .113 0 .141.043 0 0 0 .113-.042.14 0 0-.113 0-.142-.041zm.735-.368s0-.113.056-.141c0 0 .113 0 .142.056 0 0 0 .113-.043.142 0 0-.113 0-.141-.043zm.749-.353s0-.113.056-.141c0 0 .113 0 .141.042 0 0 0 .113-.042.141 0 0-.113 0-.141-.042zm.734-.367s0-.113.057-.142c0 0 .113 0 .141.043 0 0 0 .113-.042.141 0 0-.113 0-.142-.042zm.735-.353s0-.114.056-.142c0 0 .113 0 .142.043 0 0 0 .113-.043.14 0 0-.113 0-.141-.041zm.749-.368s0-.113.056-.141c0 0 .113 0 .141.042 0 0 0 .113-.042.142 0 0-.113 0-.141-.043zm.734-.353s0-.113.057-.141c0 0 .113 0 .141.042 0 0 0 .113-.042.141 0 0-.113 0-.142-.042zm.735-.367s0-.113.056-.142c0 0 .113 0 .142.057 0 0 0 .113-.043.141 0 0-.113 0-.141-.042zm.734-.354s0-.113.043-.14c0 0 .113 0 .141.042 0 0 0 .113-.042.14 0 0-.113 0-.142-.041m.735-.367s0-.113.042-.141c0 0 .113 0 .142.042 0 0 0 .113-.043.142 0 0-.113 0-.141-.043m.749-.367s0-.113.042-.141c0 0 .113 0 .141.042 0 0 0 .113-.042.141 0 0-.113 0-.141-.042m.734-.367s0-.113.043-.142c0 0 .113 0 .141.043 0 0 0 .113-.057.141 0 0-.113 0-.141-.042zm.735-.354s0-.113.042-.14c0 0 .113 0 .142.042 0 0 0 .113-.043.14 0 0-.113 0-.141-.042m.735-.367s0-.113.056-.141c0 0 .113 0 .141.042 0 0 0 .113-.056.141 0 0-.113 0-.141-.042m.734-.367s0-.113.057-.142c0 0 .113 0 .141.043 0 0 0 .113-.042.141 0 0-.113 0-.142-.042zm.735-.367s0-.113.056-.142c0 0 .113 0 .142.043 0 0 0 .113-.043.14 0 0-.113 0-.141-.041zm.734-.368s0-.113.043-.141c0 0 .113 0 .141.042 0 0 0 .113-.042.142 0 0-.113 0-.142-.043m.735-.367s0-.113.042-.141c0 0 .113 0 .142.042 0 0 0 .113-.043.141 0 0-.113 0-.141-.042m.721-.381s0-.114.042-.128c0 0 .113 0 .141.043 0 0 0 .113-.042.141 0 0-.113 0-.141-.042zm.734-.368s0-.113.043-.141c0 0 .113 0 .141.042 0 0 0 .113-.043.142 0 0-.113 0-.141-.043M246.313 104.729s0-.113.056-.141c0 0 .113 0 .141.056 0 0 0 .114-.056.142-.057.028-.113 0-.127-.057zm.748-.325s0-.113.057-.141c0 0 .113 0 .141.057 0 0 0 .113-.056.127-.057.014-.113 0-.142-.057zm.763-.325s0-.113.057-.141c0 0 .113 0 .127.057 0 0 0 .113-.057.127-.056.028-.113 0-.127-.057zm.749-.339s0-.113.056-.141c0 0 .113 0 .128.057 0 0 0 .113-.057.127-.056.028-.113 0-.141-.057zm.749-.325s0-.113.056-.141c0 0 .113 0 .141.057 0 0 0 .113-.056.127-.057.028-.113 0-.141-.057zm.748-.324s0-.114.057-.142c0 0 .113 0 .141.057 0 0 0 .113-.056.127-.057.014-.113 0-.142-.057zm.763-.34s0-.113.057-.141c0 0 .113 0 .141.057 0 0 0 .113-.056.141-.043.028-.113 0-.128-.057zm.735-.324s0-.113.056-.142c0 0 .113 0 .128.057 0 0 0 .113-.057.141-.056.028-.113 0-.141-.056zm.763-.325s0-.113.056-.142c0 0 .113 0 .142.057 0 0 0 .113-.057.141-.056.028-.113 0-.127-.056zm.749-.339s0-.113.056-.142c0 0 .113 0 .141.057 0 0 0 .113-.056.141 0 0-.113 0-.127-.056zm.748-.325s0-.113.057-.142c0 0 .113 0 .127.057 0 0 0 .113-.057.141-.056.014-.113 0-.141-.056zm.749-.325s0-.113.056-.142c0 0 .114 0 .142.057 0 0 0 .113-.057.141-.042.028-.113 0-.127-.056zm.749-.339s0-.113.056-.142c0 0 .113 0 .127.057 0 0 0 .113-.056.141-.043.028-.113 0-.127-.056m.748-.325s0-.113.057-.142c0 0 .113 0 .127.057 0 0 0 .113-.056.141 0 0-.113 0-.142-.056zm.749-.339s0-.113.057-.127c0 0 .113 0 .141.056 0 0 0 .113-.057.141-.056.014-.113 0-.141-.056zm.749-.325s0-.113.056-.141c0 0 .113 0 .142.056 0 0 0 .113-.057.127-.056.028-.113 0-.141-.056zm.749-.325s0-.113.056-.141c0 0 .113 0 .127.056 0 0 0 .113-.056.141-.057.029-.113 0-.141-.056zm.748-.34s0-.112.057-.14c0 0 .113 0 .141.056 0 0 0 .113-.056.141-.057.014-.113 0-.127-.056zm.749-.324s0-.113.057-.141c0 0 .113 0 .141.056 0 0 0 .113-.057.127 0 0-.113 0-.141-.056zm.749-.325s0-.113.056-.141c0 0 .113 0 .142.056 0 0 0 .113-.057.141-.042.029-.113 0-.127-.056zm.749-.34s0-.112.056-.14c0 0 .113 0 .141.056 0 0 0 .113-.056.127-.057.028-.113 0-.141-.056zm.748-.324s0-.113.057-.141c0 0 .113 0 .127.056 0 0 0 .113-.056.141-.057.029-.113 0-.142-.056zm.749-.34s0-.112.057-.126c0 0 .113 0 .141.056 0 0 0 .113-.057.141-.042.029-.113 0-.127-.056zm.749-.324s0-.113.056-.141c0 0 .113 0 .142.056 0 0 0 .113-.057.141-.056.029-.113 0-.141-.056m.749-.34s0-.112.056-.14c0 0 .113 0 .141.056 0 0 0 .113-.056.141-.042.029-.113 0-.127-.056zm.748-.324s0-.113.057-.141c0 0 .113 0 .141.056 0 0 0 .113-.056.141-.043.029-.113 0-.127-.056zm.749-.34s0-.112.057-.14c0 0 .113 0 .141.056 0 0 0 .113-.057.127-.056.014-.113 0-.141-.056zm.749-.324s0-.113.056-.141c0 0 .113 0 .128.056 0 0 0 .113-.057.141-.056.029-.113 0-.141-.056zm.749-.34s0-.112.056-.14c0 0 .113 0 .141.056 0 0 0 .113-.056.127 0 0-.113 0-.141-.056zm.748-.324s0-.113.057-.141c0 0 .113 0 .141.056 0 0 0 .113-.056.127-.057.029-.113 0-.142-.056zm.763-.34s0-.112.057-.14c0 0 .113 0 .127.056 0 0 0 .113-.057.141 0 0-.113 0-.141-.056zm.749-.324s0-.113.056-.141c0 0 .114 0 .142.056 0 0 0 .113-.057.141-.056.029-.113 0-.141-.056m.749-.339s0-.113.056-.141c0 0 .113 0 .142.056 0 0 0 .113-.057.127-.057.029-.113 0-.141-.056zm.748-.325s0-.113.057-.141c0 0 .113 0 .141.056 0 0 0 .113-.056.127-.057.029-.113 0-.142-.056zm.749-.339s0-.113.057-.127c0 0 .113 0 .141.056 0 0 0 .113-.057.142-.056.014-.113 0-.141-.057zm.749-.34s0-.112.056-.14c0 0 .113 0 .128.056 0 0 0 .113-.057.141-.056.029-.113 0-.141-.056zm.749-.324s0-.113.056-.141c0 0 .113 0 .141.056 0 0 0 .113-.056.141-.057.029-.113 0-.141-.056m.748-.339s0-.113.057-.141c0 0 .113 0 .141.056 0 0 0 .113-.056.141-.057.029-.113 0-.142-.056m.763-.325s0-.113.057-.141c0 0 .113 0 .141.056 0 0 0 .113-.056.142-.057.028-.113 0-.142-.057m.749-.339s0-.113.057-.141c0 0 .113 0 .141.056 0 0 0 .113-.057.142-.056.028-.113 0-.141-.057m.749-.34s0-.112.056-.14c0 0 .113 0 .142.056 0 0 0 .113-.057.141-.042.029-.113 0-.127-.056zm.749-.324s0-.113.056-.141c0 0 .113 0 .141.056 0 0 0 .113-.056.142-.057.028-.113 0-.141-.057M274.343 80.472s0-.099.042-.127c0 0 .113 0 .141.043 0 0 .015.112-.028.14 0 0-.113 0-.141-.028zm.706-.41s0-.098.043-.127c0 0 .113 0 .141.043 0 0 0 .113-.043.141 0 0-.113 0-.141-.028zm.721-.41s0-.112.042-.126c0 0 .113-.014.141.028 0 0 0 .113-.028.141 0 0-.113 0-.141-.042zm.706-.423s0-.099.042-.127c0 0 .113 0 .142.042 0 0 0 .113-.043.141 0 0-.113 0-.141-.028zm.706-.41s0-.113.043-.127c0 0 .113 0 .141.029 0 0 .014.112-.028.14 0 0-.113 0-.141-.042zm.707-.424s0-.112.042-.127c0 0 .113 0 .141.029 0 0 .015.113-.028.14 0 0-.113 0-.141-.041zm.706-.41s0-.112.043-.126c0 0 .113 0 .141.042 0 0 0 .113-.043.141 0 0-.113 0-.141-.042zm.721-.409s0-.113.042-.127c0 0 .113 0 .141.028 0 0 0 .113-.042.141 0 0-.113.015-.141-.028zm.706-.41s0-.098.042-.127c0 0 .113 0 .142.043 0 0 0 .113-.043.141 0 0-.113 0-.141-.042zm.706-.423s0-.113.043-.127c0 0 .113 0 .141.042 0 0 0 .113-.042.141 0 0-.113 0-.142-.028zm.707-.41s0-.099.042-.127c0 0 .113 0 .141.042 0 0 0 .113-.042.141 0 0-.113 0-.141-.042zm.72-.41s0-.099.043-.127c0 0 .113 0 .141.042 0 0 0 .114-.028.142 0 0-.113 0-.142-.043zm.707-.41s0-.098.042-.127c0 0 .113 0 .141.043 0 0 0 .113-.042.141 0 0-.113 0-.141-.042zm.72-.395s0-.099.042-.127c0 0 .113 0 .142.042 0 0 0 .113-.043.141 0 0-.113 0-.141-.042zm.706-.41s0-.099.043-.127c0 0 .113 0 .141.043 0 0 0 .113-.042.14 0 0-.113 0-.142-.042zm.721-.41s0-.098.042-.127c0 0 .113 0 .142.043 0 0 0 .113-.043.141 0 0-.113 0-.141-.042zm.706-.395s0-.113.043-.127c0 0 .113 0 .141.042 0 0 0 .113-.042.142 0 0-.113 0-.142-.043zm.721-.41s0-.113.042-.127c0 0 .113 0 .141.043 0 0 0 .113-.042.14 0 0-.113 0-.141-.042zm.72-.41s0-.112.043-.126c0 0 .113 0 .141.042 0 0 0 .113-.042.141 0 0-.114 0-.142-.042zm.707-.395s0-.113.042-.127c0 0 .113 0 .141.042 0 0 0 .113-.042.142 0 0-.113 0-.141-.043zm.72-.395s0-.114.042-.142c0 0 .113 0 .142.043 0 0 0 .113-.043.14 0 0-.113 0-.141-.041m.721-.41s0-.113.042-.127c0 0 .113 0 .141.042 0 0 0 .113-.042.141 0 0-.113 0-.141-.042zm.706-.396s0-.113.042-.127c0 0 .113 0 .142.043 0 0 0 .113-.043.14 0 0-.113 0-.141-.042zm.735-.395s0-.113.042-.127c0 0 .113 0 .141.042 0 0 0 .113-.042.141 0 0-.113 0-.141-.042zm.706-.396s0-.113.042-.141c0 0 .113 0 .142.042 0 0 0 .113-.043.142 0 0-.113 0-.141-.043m.72-.395s0-.113.043-.127c0 0 .113 0 .141.042 0 0 0 .113-.042.141 0 0-.113 0-.142-.042zm.721-.396s0-.113.042-.141c0 0 .113 0 .142.042 0 0 0 .113-.043.141 0 0-.113 0-.141-.042m.72-.395s0-.114.043-.128c0 0 .113 0 .141.043 0 0 0 .113-.042.141 0 0-.113 0-.142-.042zm.721-.396s0-.113.042-.127c0 0 .113 0 .142.042 0 0 0 .113-.043.141 0 0-.113 0-.141-.042zm.72-.396s0-.113.043-.14c0 0 .113 0 .141.041 0 0 0 .114-.042.142 0 0-.113 0-.142-.043m.735-.381s0-.113.042-.127c0 0 .113 0 .142.042 0 0 0 .113-.043.141 0 0-.113 0-.141-.042zm.72-.396s0-.113.043-.14c0 0 .113 0 .141.041 0 0 0 .114-.042.142 0 0-.113 0-.142-.043m.721-.381s0-.113.042-.141c0 0 .113 0 .142.042 0 0 0 .113-.043.141 0 0-.113 0-.141-.042m.72-.396s0-.113.043-.127c0 0 .113 0 .141.043 0 0 0 .113-.042.14 0 0-.113 0-.142-.041zm.721-.381s0-.113.042-.141c0 0 .113 0 .142.042 0 0 0 .113-.043.141 0 0-.113 0-.141-.042m.735-.396s0-.113.042-.14c0 0 .113 0 .141.041 0 0 0 .114-.042.142 0 0-.113 0-.141-.043m.72-.381s0-.113.042-.127c0 0 .113 0 .142.042 0 0 0 .113-.043.141 0 0-.113 0-.141-.042zm.735-.382s0-.112.042-.14c0 0 .113 0 .141.042 0 0 0 .113-.042.14 0 0-.113 0-.141-.041m.72-.38s0-.114.043-.142c0 0 .113 0 .141.042 0 0 0 .113-.043.141 0 0-.113 0-.141-.042m.735-.382s0-.113.042-.142c0 0 .113 0 .141.043 0 0 0 .113-.042.141 0 0-.113 0-.141-.042m.72-.368s0-.113.043-.14c0 0 .113 0 .141.041 0 0 0 .114-.042.142 0 0-.114 0-.142-.043m.735-.381s0-.113.042-.141c0 0 .113 0 .142.042 0 0 0 .113-.043.141 0 0-.113 0-.141-.042m.72-.382s0-.113.043-.14c0 0 .113 0 .141.042 0 0 0 .113-.042.14 0 0-.113 0-.142-.042m.735-.381s0-.113.042-.141c0 0 .113 0 .142.042 0 0 0 .113-.043.141 0 0-.113 0-.141-.042m.735-.367s0-.113.042-.142c0 0 .113 0 .141.043 0 0 0 .113-.042.141 0 0-.113 0-.141-.042m.734-.382s0-.113.043-.127c0 0 .113 0 .141.043 0 0 0 .112-.043.14 0 0-.113 0-.141-.042zm.721-.367s0-.113.042-.141c0 0 .113 0 .141.042 0 0 0 .113-.042.141 0 0-.113 0-.141-.042m.734-.367s0-.113.043-.142c0 0 .113 0 .141.043 0 0 0 .113-.042.141 0 0-.113 0-.142-.042m.735-.368s0-.113.042-.14c0 0 .113 0 .142.041 0 0 0 .114-.043.142 0 0-.113 0-.141-.043m.735-.367s0-.113.042-.141c0 0 .113 0 .141.042 0 0 0 .113-.042.141 0 0-.113 0-.141-.042m.734-.367s0-.113.043-.142c0 0 .113 0 .141.057 0 0 0 .113-.043.141 0 0-.113 0-.141-.042zm.735-.368s0-.113.056-.14c0 0 .113 0 .142.056 0 0 0 .113-.043.14 0 0-.113 0-.141-.041zm.734-.367s0-.113.057-.141c0 0 .113 0 .141.056 0 0 0 .113-.042.142 0 0-.113 0-.142-.043zm.749-.353s0-.113.057-.141c0 0 .113 0 .141.042 0 0 0 .113-.042.141 0 0-.114 0-.142-.042zm.735-.367s0-.113.056-.142c0 0 .113 0 .142.043 0 0 0 .113-.043.141 0 0-.113 0-.141-.042zm.734-.354s0-.113.057-.14c0 0 .113 0 .141.042 0 0 0 .113-.042.14 0 0-.113 0-.142-.041zM368.244 49.037s0 .113-.056.14c-.057.03-.113 0-.141-.056-.029-.056 0-.113.042-.14.057-.03.113 0 .141.041zM368.592 49.771s0 .113-.042.142-.113 0-.141-.043c0 0 0-.113.056-.141.057-.028.113 0 .141.042zM367.793 48.43a.099.099 0 1 0 0-.199.099.099 0 1 0 0 .198M367.538 47.54s0 .113-.057.141c-.056.029-.113 0-.141-.056-.014-.057 0-.113.056-.142.057-.028.113 0 .127.057zM371.819 55.48s.014.113-.029.142c-.042.028-.113.014-.141-.029 0 0 0-.113.028-.141a.11.11 0 0 1 .142.028M372.718 56.849s.014.113-.028.141-.113.028-.141-.014v-.014a.14.14 0 0 1 .028-.127c.042-.029.113-.014.141.028zM369.344 51.228s0 .113-.043.141c-.042.029-.113 0-.141-.042 0 0 0-.113.042-.141.057-.029.113 0 .142.042M372.266 56.173s.014.113-.029.141c-.042.028-.113.014-.141-.028 0 0 0-.113.028-.141a.11.11 0 0 1 .142.028M367.209 46.791s0 .113-.056.142c-.042.028-.113 0-.127-.057 0 0 0-.113.056-.141.057-.029.113 0 .142.056zM368.961 50.506s0 .113-.042.141c-.057.029-.113 0-.142-.042 0 0 0-.113.043-.141.056-.029.113 0 .141.042M365.711 42.977s0 .113-.056.127c-.057.014-.113 0-.127-.057 0 0 0-.127.07-.141.057-.014.113 0 .128.056zM365.458 42.213s0 .113-.07.127c-.057.014-.099 0-.128-.056 0 0 0-.127.071-.141.057-.014.113 0 .127.07M365.993 43.754s0 .113-.057.127c-.056.014-.113 0-.127-.057 0 0 0-.113.056-.14.057-.015.113 0 .128.056zM366.274 44.516s0 .113-.057.128c-.056.014-.113 0-.127-.057 0 0 0-.113.057-.141.056-.014.113 0 .127.056zM364.753 39.855s-.015.113-.071.127c-.042 0-.099 0-.113-.057 0 0 .014-.127.071-.141.056 0 .113.014.127.07zM365.205 41.422s-.015.113-.071.127a.104.104 0 0 1-.127-.056s.014-.127.07-.141.113 0 .128.07M364.964 40.646s-.014.113-.071.127-.099 0-.127-.056c-.014-.057.014-.113.071-.127.056-.015.113.014.127.07zM366.887 46.042s0 .113-.057.141c-.056.014-.113 0-.127-.056 0 0 0-.113.057-.142.056-.014.113 0 .141.057zM366.573 45.28s0 .112-.056.127c-.057.028-.113 0-.127-.057 0 0 0-.113.056-.141.057-.028.113 0 .127.056z"/><path fill="#232826" d="M376.324 46.918c-1.724 1.215-3.899 2.642-6.64 4.309-.268.17-.537.325-.805.494-.297.1.791 1.752 1.201 2.458.31.523.734 1.554.89 1.427.254-.198.593-.494.819-.692 2.896-2.458 5.015-4.605 6.583-6.428 1.512-1.568 3.49-4.704 2.515-5.665-.466-.452.169.947-4.563 4.083zm-5.072 7.84s.113-.014.141.029c.029.056 0 .113-.028.141-.042.028-.113.014-.141-.028 0 0 0-.113.042-.141zm-.438-.706s.113-.014.141.029a.11.11 0 0 1-.028.14c-.042.029-.113.015-.141-.027 0 0 0-.114.042-.142zm-.41-.706s.113-.014.142.042c.028.057 0 .113-.043.142s-.113.014-.141-.043c0 0 0-.113.042-.141m-.409-.72s.113 0 .141.042c.028.056 0 .113-.042.141-.057.028-.113 0-.142-.042-.028-.057 0-.113.043-.142m-.396-.721s.113 0 .141.042c.029.057 0 .113-.042.142-.056.028-.113 0-.141-.043 0 0 0-.113.042-.141"/><path fill="url(#i)" d="M267.853 100.461a.194.194 0 0 0 .113.367c2.19-.353 5.877-.424 6.484 2.882q.043.19.043.381c.367 4.422-6.584 9.55-6.584 9.55l4.747-2.331 15.837-7.784s.311-6.752 4.139-10.51c.438-.424.057-1.145-.537-1.003-4.492 1.06-13.83 3.588-24.256 8.448z"/><path fill="url(#j)" d="M305.133 103.328c-1.737 3.744-10.087 14.466-49.925 24.836 0 0-.763.183-1.809-2.063s-.409-2.712-.409-2.712c33.679-23.678 47.255-23.113 51.225-22.025a1.41 1.41 0 0 1 .904 1.95z"/><path fill="#232826" d="M252.918 123.275c33.383-23.465 47.029-23.239 51.352-22.038.438.127.806.423.989.847.198.41.198.89 0 1.3-1.879 4.069-10.525 14.636-50.024 24.92-.085.029-.904.156-1.964-2.147-1.059-2.303-.438-2.84-.353-2.882m2.246 4.747c39.373-10.257 47.962-20.725 49.827-24.765a1.268 1.268 0 0 0-.805-1.752c-4.281-1.187-17.829-1.399-51.099 21.996 0 0-.508.466.452 2.529.961 2.062 1.639 1.978 1.639 1.978z"/><path fill="#232826" d="M300.329 105.785c-.113.043.255.707.41.975.113.198.749 1.257.805 1.215.099-.071.65-.579.735-.65 1.102-.932 1.935-2.416 2.077-2.868-.382.184-.749.142-.905.057-.169-.113-.24-.339-.282-.565a52 52 0 0 1-2.529 1.653c-.099.056-.198.127-.311.183M282.133 115.011c.537.933 1.102 1.696 1.511 2.275.043-.014.763 1.158.876 1.102 8.42-3.772 13.605-7.629 16.741-10.144-.494-.48-1.045-1.568-1.384-2.203-3.405 2.034-8.802 4.888-17.278 8.758-.113.057-.226.099-.325.156l-.127.056zM265.974 121.961c-.169.043.565 1.074.834 1.47.084.127.89 1.201 1.031 1.201.127-.043 11.853-4.196 16.204-6.118-.862-.946-1.71-2.415-2.246-3.334-4.338 1.964-9.452 4.168-15.484 6.654-.113.043-.226.099-.339.142zM254.103 126.722s.876 1.427 1.455 1.257c4.224-1.285 8.095-2.076 11.655-3.291-.551-.537-1.328-1.823-1.738-2.529a747 747 0 0 1-11.019 4.408l-.367.141zM265.42 121.186a1413 1413 0 0 0 16.162-7.304l-.057-.127a1389 1389 0 0 1-16.161 7.303zM280.441 111.296l.057.128c7.642-3.617 13.915-6.259 18.662-7.855l-.043-.142c-4.747 1.597-11.033 4.239-18.676 7.855zM252.849 124.18l.085.127c3.772-2.472 7.727-5.043 11.075-7.063l-.07-.128c-3.348 2.021-7.304 4.592-11.076 7.078zM265.166 120.774s0-.085.042-.099c0 0 .085 0 .099.042 0 0 0 .085-.043.099s-.084 0-.098-.042m.522-.24s0-.085.043-.099c0 0 .084 0 .099.042 0 0 0 .085-.043.099s-.085 0-.099-.042m.537-.241s0-.084.043-.098c0 0 .084 0 .098.042 0 0 0 .085-.042.099s-.085 0-.099-.043m.537-.226s0-.084.042-.098c0 0 .085 0 .099.042 0 0 0 .085-.042.099s-.085 0-.099-.043m.523-.24s0-.085.042-.099c0 0 .085 0 .099.043 0 0 0 .085-.042.099s-.085 0-.099-.043m.537-.24s0-.085.042-.099c0 0 .085 0 .099.043 0 0 0 .084-.043.098-.042.015-.084 0-.098-.042m.522-.24s0-.085.043-.099c0 0 .084 0 .098.042 0 0 0 .085-.042.099s-.085 0-.099-.042m.537-.24s0-.085.042-.099c0 0 .085 0 .099.042 0 0 0 .085-.042.099 0 0-.085 0-.099-.042m.537-.24s0-.085.042-.099c0 0 .085 0 .099.042 0 0 0 .071-.042.099s-.085 0-.099-.042m.523-.226s0-.085.042-.099c0 0 .071 0 .099.042 0 0 0 .085-.043.099s-.084 0-.098-.042m.536-.241s0-.084.043-.098c0 0 .085 0 .099.042 0 0 0 .085-.043.099s-.084 0-.099-.043m.523-.24s0-.085.043-.099c0 0 .084 0 .098.043 0 0 0 .07-.042.099s-.085 0-.099-.043m.537-.24s0-.085.042-.099c0 0 .085 0 .099.043 0 0 0 .084-.042.098-.043.015-.085 0-.099-.042m.537-.24s0-.085.042-.099c0 0 .085 0 .099.042 0 0 0 .085-.042.099s-.085 0-.099-.042m.523-.24s0-.085.042-.099c0 0 .085 0 .099.042 0 0 0 .085-.043.099 0 0-.084 0-.098-.042m.536-.24s0-.085.043-.099c0 0 .084 0 .099.042 0 0 0 .085-.043.099s-.085 0-.099-.042m.523-.241s0-.084.042-.098c0 0 .085 0 .099.042 0 0 0 .085-.042.099s-.085 0-.099-.043m.537-.24s0-.084.042-.099c0 0 .085 0 .099.043 0 0 0 .085-.042.099s-.085 0-.099-.043m.523-.24s0-.085.042-.099c0 0 .085 0 .099.043 0 0 0 .084-.043.098 0 0-.084 0-.098-.042m.536-.24s0-.085.043-.099c0 0 .085 0 .099.042 0 0 0 .085-.043.099s-.084 0-.099-.042m.523-.24s0-.085.043-.099c0 0 .084 0 .098.042 0 0 0 .071-.042.099s-.085 0-.099-.028zm.537-.24s0-.085.042-.099c0 0 .085 0 .099.042 0 0 0 .085-.042.099s-.085 0-.099-.042m.523-.241s0-.084.042-.098c0 0 .085 0 .099.042 0 0 0 .085-.042.099 0 0-.085 0-.099-.043m.537-.24s0-.084.042-.099c0 0 .085 0 .099.043 0 0 0 .085-.043.099s-.084 0-.098-.043m.522-.24s0-.085.043-.099c0 0 .084 0 .098.043 0 0 0 .084-.042.099s-.085 0-.099-.043m.537-.24s0-.085.042-.099c0 0 .085 0 .099.042 0 0 0 .085-.042.099s-.085 0-.099-.042m.523-.24s0-.085.042-.099c0 0 .085 0 .099.042 0 0 0 .085-.042.099s-.085 0-.099-.042m.537-.24s0-.085.042-.099c0 0 .085 0 .099.042 0 0 0 .085-.043.099s-.084 0-.098-.042m.522-.241s0-.084.043-.098c0 0 .084 0 .099.042 0 0 0 .085-.043.099s-.085 0-.099-.043m.523-.254s0-.085.042-.099c0 0 .085 0 .099.043 0 0 0 .084-.042.099s-.085 0-.099-.043m.537-.24s0-.085.042-.099c0 0 .085 0 .099.043 0 0 0 .084-.042.098 0 0-.085 0-.099-.042M280.34 110.956s0-.071.042-.099c0 0 .085 0 .099.028 0 0 0 .085-.028.099 0 0-.085 0-.099-.042zm.523-.255s0-.084.042-.098c0 0 .085 0 .099.042 0 0 0 .085-.043.099-.028.014-.084 0-.098-.043m.522-.24s0-.084.043-.099c0 0 .084 0 .098.043 0 0 0 .085-.042.099 0 0-.085 0-.099-.043m.537-.254s0-.085.042-.099c0 0 .085 0 .099.028 0 0 0 .085-.028.099s-.085 0-.099-.042zm.523-.24s0-.085.042-.099c0 0 .085 0 .099.042 0 0 0 .085-.042.099s-.085 0-.099-.042m.522-.24s0-.085.043-.099c0 0 .085 0 .099.042 0 0 0 .085-.043.099s-.084 0-.099-.042m.537-.255s0-.084.043-.099c0 0 .084 0 .099.043 0 0 0 .085-.043.099s-.085 0-.099-.043m.523-.24s0-.085.042-.099c0 0 .085 0 .099.043 0 0 0 .084-.042.099s-.085 0-.099-.043m.537-.24s0-.085.042-.099c0 0 .085 0 .099.043 0 0 0 .084-.042.098 0 0-.085 0-.099-.028zm.523-.24s0-.085.042-.099c0 0 .085 0 .099.042 0 0 0 .085-.043.099s-.084 0-.098-.042m.536-.24s0-.085.043-.099c0 0 .085 0 .099.042 0 0 0 .085-.043.099s-.084 0-.099-.042m.523-.24s0-.085.042-.099c0 0 .085 0 .099.042 0 0 0 .085-.042.099s-.085 0-.099-.042m.537-.226s0-.085.042-.099c0 0 .085 0 .099.042 0 0 0 .085-.042.099s-.085 0-.099-.042m.537-.241s0-.084.042-.099c0 0 .085 0 .099.043 0 0 0 .085-.042.099s-.085 0-.099-.043m.522-.24s0-.085.043-.099c0 0 .085 0 .099.043 0 0 0 .084-.043.099-.028.014-.084 0-.099-.043m.537-.226s0-.085.043-.099c0 0 .084 0 .099.043 0 0 0 .084-.043.099-.028.014-.07 0-.099-.043m.537-.24s0-.085.043-.099c0 0 .084 0 .098.042 0 0 0 .085-.042.099 0 0-.071 0-.099-.042m.537-.226s0-.085.042-.099c0 0 .085 0 .099.042 0 0 0 .085-.042.099-.028.014-.085 0-.099-.042m.537-.226s0-.085.042-.099c0 0 .085 0 .099.042 0 0 0 .085-.042.099s-.085 0-.099-.042m.537-.226s0-.085.042-.099c0 0 .085 0 .099.042 0 0 0 .085-.042.099s-.085 0-.099-.042m.522-.226s0-.085.043-.099c0 0 .085 0 .099.042 0 0 0 .085-.043.099-.042 0-.085 0-.099-.042m.551-.226s0-.085.043-.099c0 0 .084 0 .099.042 0 0 0 .085-.043.099-.042 0-.085 0-.099-.042m.537-.212s0-.085.043-.099c0 0 .084 0 .098.042 0 0 0 .085-.042.099s-.085 0-.099-.042m.537-.226s0-.085.042-.099c0 0 .085 0 .099.042 0 0 0 .085-.042.099-.043 0-.071 0-.085-.042zm.537-.212s0-.085.042-.099c0 0 .085 0 .099.042 0 0 0 .085-.042.099-.043 0-.085 0-.099-.042m.537-.226s0-.085.042-.099c0 0 .085 0 .099.042 0 0 0 .085-.042.099s-.085 0-.099-.042m.551-.212s0-.085.042-.099c0 0 .085 0 .099.043 0 0 0 .084-.042.098-.043 0-.071 0-.085-.042zm.536-.212s0-.085.043-.099c0 0 .085 0 .099.043 0 0 0 .084-.043.099s-.084-.001-.099-.043m.537-.198s0-.084.043-.099c0 0 .084 0 .099.043 0 0 0 .085-.043.099-.042 0-.07 0-.085-.043zm.551-.212s0-.084.043-.098c0 0 .084 0 .099.042 0 0 0 .085-.043.099 0 0-.07 0-.085-.043zm.551-.211s0-.085.043-.099c0 0 .084 0 .084.042 0 0 0 .085-.042.099q-.063.021-.085-.042m.537-.198s0-.085.042-.099c0 0 .085 0 .099.042 0 0 0 .085-.042.099-.042 0-.071 0-.085-.042zm.551-.184s0-.085.042-.099c0 0 .085 0 .099.043 0 0 0 .084-.042.098-.042 0-.071 0-.085-.042zm.551-.198s0-.084.042-.099c0 0 .071 0 .085.043 0 0 0 .085-.042.099 0 0-.071 0-.085-.043m.551-.197s0-.085.042-.099c0 0 .085 0 .085.042 0 0 0 .085-.042.099-.029 0-.071 0-.085-.042M253.075 123.698s0-.07.028-.085c0 0 .085-.014.099.015 0 0 0 .07-.028.098 0 0-.071 0-.099-.014zm.48-.325s0-.07.028-.085c0 0 .085-.014.099.015 0 0 0 .07-.028.098 0 0-.085.015-.099-.014zm.494-.325s0-.07.029-.084c0 0 .084 0 .099.014 0 0 0 .084-.015.099 0 0-.084.014-.098-.015zm.481-.325s0-.07.028-.084c0 0 .071 0 .099.028 0 0 0 .071-.014.099 0 0-.085 0-.099-.028zm.48-.325s0-.07.028-.084c0 0 .071 0 .099.014 0 0 0 .085-.028.099 0 0-.071 0-.099-.029m.495-.31s0-.071.028-.085c0 0 .085-.014.099.014 0 0 0 .085-.029.099 0 0-.084 0-.098-.014zm.48-.325s0-.071.028-.085c0 0 .085 0 .099.014 0 0 0 .085-.014.099 0 0-.085 0-.099-.014zm.494-.325s0-.071.029-.085c0 0 .084 0 .098.014 0 0 0 .085-.028.099 0 0-.085 0-.099-.014zm.481-.311s0-.071.028-.085c0 0 .085 0 .099.014 0 0 0 .085-.014.099 0 0-.085 0-.099-.028zm.494-.325s0-.071.028-.099c0 0 .085 0 .099.014 0 0 0 .085-.014.099 0 0-.085 0-.099-.014zm.48-.311s0-.07.029-.084c0 0 .07 0 .099.014 0 0 0 .07-.015.099 0 0-.07 0-.098-.015zm.495-.325s0-.07.028-.084c0 0 .085-.015.099.014 0 0 0 .07-.028.099 0 0-.071 0-.099-.015zm.494-.31s0-.071.029-.085c0 0 .084-.014.098.014 0 0 0 .085-.028.099 0 0-.07 0-.099-.014zm.481-.311s0-.071.028-.099c0 0 .085 0 .099.028 0 0 0 .085-.028.099 0 0-.085 0-.099-.014zm.494-.325s0-.071.028-.099c0 0 .085 0 .099.028 0 0 0 .085-.028.099 0 0-.085 0-.099-.028m.495-.311s0-.071.028-.085c0 0 .07 0 .099.029 0 0 0 .084-.014.098 0 0-.085 0-.099-.028zm.48-.311s0-.07.028-.099c0 0 .085 0 .099.029 0 0 0 .07-.028.098 0 0-.085 0-.099-.028m.494-.311s0-.07.029-.098c0 0 .084 0 .099.028 0 0 0 .085-.029.099 0 0-.085 0-.099-.029m.495-.31s0-.071.028-.099c0 0 .085 0 .099.028 0 0 0 .085-.028.099 0 0-.085 0-.099-.028m.494-.311s0-.071.029-.099c0 0 .084 0 .098.028 0 0 .015.085-.028.099 0 0-.085 0-.099-.028m.495-.297s0-.07.028-.099c0 0 .085 0 .099.029 0 0 0 .084-.028.098 0 0-.085 0-.099-.028m.494-.311s0-.07.028-.099c0 0 .085 0 .099.029 0 0 0 .084-.028.099 0 0-.085 0-.099-.014zm.495-.31s0-.071.028-.099c0 0 .085 0 .099.028 0 0 0 .085-.028.099 0 0-.085 0-.099-.028"/><path fill="#232826" d="M281.058 112.935c1.511 3.249 3.39 5.467 3.419 5.495l.113-.099s-4.239-5.001-5.086-10.977h-.141c.282 2.035.946 3.942 1.709 5.581zM299.523 104.513c.933 2.035 1.936 3.476 1.95 3.504l.113-.085s-2.26-3.277-3.179-6.851l-.141.042a19.6 19.6 0 0 0 1.243 3.39zM265.012 120.45c1.144 2.487 2.641 4.154 2.656 4.168l.113-.099s-3.363-3.758-3.871-8.363h-.142c.17 1.568.664 3.037 1.244 4.28z"/><path fill="#232826" d="m267.837 113.528.17.24c.296-.226 7.431-5.537 6.583-10.058-.636-3.433-4.436-3.362-6.654-3.009 0 0-.042 0-.042-.028 0-.029 0-.043.028-.057 10.355-4.832 19.623-7.36 24.228-8.434.24-.056.41.07.481.212.07.141.098.367-.085.537-3.829 3.743-4.182 10.539-4.196 10.595h.297s.353-6.738 4.097-10.397a.75.75 0 0 0 .141-.89.696.696 0 0 0-.805-.354c-4.606 1.074-13.902 3.617-24.285 8.463-.155.07-.226.24-.184.409.057.17.198.255.368.24 2.105-.339 5.735-.423 6.329 2.769.805 4.352-6.4 9.72-6.471 9.776z"/><path fill="#232826" d="M280.412 106.86h.141c0-.071-.283-6.626.127-11.514h-.141c-.41 4.874-.127 11.443-.127 11.514M279.918 107.114v-.028s.028-.071.07-.071c0 0 .071.028.071.071 0 0-.028.07-.071.07a.08.08 0 0 1-.07-.042m-.014-.579v-.028s.028-.071.07-.071c0 0 .071.028.071.071 0 0-.028.07-.071.07a.08.08 0 0 1-.07-.042m-.014-.593v-.029s.028-.07.07-.07c0 0 .071.028.071.07 0 0-.028.071-.071.071a.08.08 0 0 1-.07-.042m-.029-.58v-.028s.029-.071.071-.071c0 0 .071.029.071.071 0 0-.029.071-.071.071a.08.08 0 0 1-.071-.043m0-.579v-.028s.029-.071.071-.071c0 0 .071.028.071.071 0 0-.029.07-.071.07a.08.08 0 0 1-.071-.042m-.014-.579v-.028s.028-.071.071-.071c0 0 .07.028.07.071 0 0-.028.07-.07.07a.08.08 0 0 1-.071-.042m-.014-.579v-.029s.028-.07.071-.07c0 0 .07.028.07.07 0 0-.028.071-.07.071a.08.08 0 0 1-.071-.042m0-.594v-.028s.028-.071.071-.071c0 0 .07.029.07.071 0 0-.028.071-.07.071a.08.08 0 0 1-.071-.043m0-.579v-.028s.028-.071.071-.071c0 0 .07.028.07.071 0 0-.028.07-.07.07a.08.08 0 0 1-.071-.042m-.014-.579v-.028s.028-.071.071-.071c0 0 .07.028.07.071 0 0-.028.07-.07.07a.08.08 0 0 1-.071-.042m.014-.579v-.029s.028-.07.071-.07c0 0 .07.028.07.07 0 0-.028.071-.07.071a.08.08 0 0 1-.071-.042m0-.594v-.028s.028-.071.071-.071c0 0 .07.029.07.071 0 0-.028.071-.07.071a.08.08 0 0 1-.071-.043m.014-.579v-.028s.028-.071.071-.071c0 0 .07.028.07.071 0 0-.028.07-.07.07a.08.08 0 0 1-.071-.042m0-.58v-.027s.043-.071.071-.071c0 0 .07.028.07.07 0 0-.028.071-.07.071a.08.08 0 0 1-.071-.042m.028-.578v-.029s.043-.07.071-.07c0 0 .071.028.071.07 0 0-.029.071-.071.071a.08.08 0 0 1-.071-.042m.015-.594v-.028s.028-.07.07-.07c0 0 .071.028.071.07 0 0-.028.07-.071.07a.08.08 0 0 1-.07-.042m.028-.579v-.028s.042-.07.07-.07c0 0 .071.028.071.07 0 0-.042.07-.071.07s-.056-.014-.056-.042zm.028-.58v-.027s.028-.071.071-.071c0 0 .07.042.07.07 0 0-.042.071-.07.071s-.057-.014-.057-.042zm.028-.578v-.043s.043-.07.071-.07c0 0 .071.042.071.07 0 0-.043.07-.071.07s-.057-.013-.057-.041zm.043-.58v-.042s.042-.07.084-.07c0 0 .071.042.071.07 0 0-.042.07-.085.07-.028 0-.042-.013-.056-.042z"/><path fill="#232826" d="M280.41 102.494s4.818-2.161 6.499-2.543c1.624-.367 1.921.551 1.935.594l.141-.043s-.353-1.088-2.105-.692c-1.695.381-6.484 2.529-6.526 2.557z"/><path fill="#232826" d="M280.709 102.82s0-.085.042-.099c0 0 .085 0 .099.043 0 0 0 .084-.043.098-.042 0-.084 0-.098-.042m.536-.24s0-.085.043-.099c0 0 .085 0 .099.042 0 0 0 .071-.043.099s-.085 0-.099-.042m.537-.226s0-.085.043-.099c0 0 .084 0 .098.042 0 0 0 .085-.042.099-.028.014-.071 0-.099-.042m.537-.226s0-.085.042-.099c0 0 .085 0 .099.042 0 0 0 .085-.042.099-.042 0-.085 0-.099-.042m.537-.226s0-.085.042-.099c0 0 .085 0 .099.042 0 0 0 .085-.042.099-.028.014-.085 0-.099-.042m.537-.226s0-.085.042-.099c0 0 .085 0 .099.042 0 0 0 .085-.042.099-.043 0-.085 0-.099-.042m.537-.212s0-.085.042-.099c0 0 .085 0 .099.042 0 0 0 .085-.043.099 0 0-.07 0-.098-.042m.55-.226s0-.085.043-.099c0 0 .085 0 .099.042 0 0 0 .085-.043.099-.028.014-.07 0-.084-.042zm.537-.198s0-.085.043-.099c0 0 .084 0 .099.043 0 0 0 .084-.043.098-.042 0-.07 0-.085-.042zm.551-.198s0-.084.043-.099c0 0 .07 0 .084.043 0 0 0 .085-.042.099-.028 0-.071 0-.085-.043m.551-.183s0-.085.043-.099c0 0 .084 0 .099.042 0 0 0 .085-.043.085s-.07 0-.085-.042zm.565-.156s.014-.085.057-.099c0 0 .07.014.085.057 0 0-.015.07-.057.085-.028 0-.071 0-.085-.043m.58-.085v-.028s.028-.07.07-.07c0 0 .071.028.071.07 0 0-.028.071-.071.071a.08.08 0 0 1-.07-.043m.579.043v-.043s.042-.07.085-.056c0 0 .07.042.056.085 0 0-.042.07-.085.056-.028 0-.042-.028-.056-.042m.522.226v-.071s.071-.042.099-.014c0 0 .043.071.015.099 0 0-.071.042-.099.014l-.029-.028zm.354.452s0-.085.042-.099c0 0 .085 0 .085.057 0 0 0 .084-.043.084s-.07 0-.084-.042M273.956 102.735s0-.071.028-.099c0 0 .085 0 .099.028 0 0 0 .085-.028.099 0 0-.085 0-.099-.028m.508-.297s0-.071.028-.099c0 0 .085 0 .099.028 0 0 0 .071-.028.099 0 0-.085 0-.099-.028m.509-.269s0-.084.028-.098c0 0 .085 0 .099.028 0 0 0 .085-.028.099 0 0-.085 0-.099-.029m.523-.254s0-.085.042-.099c0 0 .085 0 .099.043 0 0 0 .084-.043.099 0 0-.084 0-.098-.043m.522-.24s0-.085.043-.099c0 0 .084 0 .099.043 0 0 0 .084-.043.098-.042.015-.085 0-.099-.042m.537-.24s0-.085.042-.099c0 0 .085 0 .099.042 0 0 0 .085-.042.099s-.085 0-.099-.042m.537-.24s0-.085.042-.099c0 0 .071 0 .099.042 0 0 0 .085-.042.099-.028.014-.071 0-.099-.042m.537-.226s0-.085.042-.099c0 0 .085 0 .099.042 0 0 0 .085-.042.099-.043 0-.085 0-.099-.042m.537-.226s0-.085.042-.099c0 0 .085 0 .099.042 0 0 0 .085-.043.099-.028.014-.07 0-.098-.028zm.536-.226s0-.085.043-.099c0 0 .085 0 .099.042 0 0 0 .085-.043.099-.042 0-.07 0-.084-.042zm.537-.212s0-.085.043-.099c0 0 .084 0 .099.042 0 0 0 .085-.043.099-.042 0-.071 0-.085-.042zM273.813 102.17l.071.127c.282-.169 1.116-.622 2.486-1.243 1.78-.791 4.026-1.681 4.04-1.681l-.056-.142s-2.275.89-4.055 1.682c-1.37.621-2.203 1.073-2.5 1.243zM317.331 66.78c13.147-5.94 22.879-12.803 21.738-15.327-1.14-2.524-12.722.246-25.868 6.188-13.146 5.94-22.879 12.803-21.738 15.327s12.722-.246 25.868-6.187"/><path fill="#A34023" d="M319.177 64.907c12.34-5.273 21.462-11.613 20.373-14.16s-11.974-.337-24.315 4.937c-12.34 5.274-21.461 11.614-20.373 14.16 1.089 2.548 11.975.337 24.315-4.937"/><path fill="#CB5F32" d="M318.932 64.42c12.067-5.157 21.005-11.315 19.962-13.755-1.042-2.439-11.67-.236-23.737 4.922-12.068 5.157-21.006 11.315-19.963 13.754s11.67.237 23.738-4.92"/><path stroke="#232826" stroke-miterlimit="10" stroke-width=".356" d="M319.177 64.906c12.34-5.274 21.462-11.614 20.373-14.16-1.088-2.548-11.974-.337-24.315 4.936-12.34 5.274-21.461 11.614-20.373 14.161 1.089 2.547 11.975.337 24.315-4.937Z"/><path stroke="#232826" stroke-miterlimit="10" stroke-width=".356" d="M318.927 64.419c12.068-5.157 21.005-11.316 19.963-13.755-1.043-2.44-11.67-.236-23.738 4.921s-21.005 11.316-19.963 13.755c1.043 2.44 11.671.236 23.738-4.921Z"/><mask id="k" width="140" height="71" x="235" y="0" maskUnits="userSpaceOnUse" style="mask-type:luminance"><path fill="#fff" d="M338.891 50.676c1.046 2.444-7.897 8.603-19.962 13.76-12.064 5.156-22.688 7.36-23.733 4.916-.65-1.497-61.087-23.437-59.222-42.932 3.801-39.853 132.175-22.223 136.851-24.214 12.064-5.157-34.979 46.04-33.934 48.47"/></mask><g mask="url(#k)"><g clip-path="url(#l)"><path fill="#020302" d="M302.608 23.383c.915-.367 1.834-.347 2.678.173.531.317 1.1.504 1.664.744.18.07.277.04.361-.153.623-1.368 1.61-2.355 3.06-2.872a20 20 0 0 1 4.196-1.058c.526-.07 1.024.03 1.531.172.701.2 1.434.349 2.031.805.634.5 1.293 1.003 1.806 1.652.323.39.694.692 1.107.985.564.386 1.113.785 1.631 1.234.42.36.919.58 1.356.902.597.457 1.093.997 1.646 1.49.921.847 1.668 1.838 2.545 2.722 1.032 1.071 1.932 2.277 2.951 3.36.582.615 1.077 1.303 1.616 1.954.862 1.042 1.512 2.21 2.191 3.355.392.65.712 1.361.95 2.091.207.633.507 1.262.77 1.874.305.722.637 1.447.913 2.194.317.884.605 1.791.907 2.687a18 18 0 0 0 .753 1.912c.332.725.403 1.519.475 2.313.057.952-.045 1.89-.2 2.823-.143.947-.557 1.801-1.084 2.579-.479.688-1.091 1.244-1.755 1.768-.332.275-.692.548-1.013.838-.381.364-.872.625-1.314.916-.467.29-.944.538-1.412.828-.595.37-1.255.575-1.893.835-1.168.503-2.389.855-3.612 1.233-.934.285-1.889.515-2.845.745-.587.144-1.236.096-1.836.226-.707.147-1.434.212-2.132.4-.712.199-1.41.386-2.144.53-.994.213-1.976.44-2.968.627-.719.132-1.474.074-2.207-.075-.171-.03-.344-.033-.529-.05-.608-.058-1.086-.37-1.501-.782-.071-.087-.141-.2-.278-.16-.164.038-.14.214-.136.307.025.59-.345.968-.723 1.306-.729.652-1.297 1.438-1.975 2.121-.618.609-1.322.996-2.121 1.267-.896.303-1.777.593-2.68.828-.657.178-1.309.45-1.988.572-.652.126-1.302.224-1.992.186-.849-.054-1.681 0-2.515-.211-.533-.144-1.081-.276-1.58-.496-.668-.277-.969-.906-.824-1.733.172-.97.305-1.959.698-2.868.226-.553.168-1.212.473-1.757.641-1.14 1.002-2.413 1.794-3.459a13 13 0 0 1 2.057-2.14c.289-.24.463-.53.587-.852.088-.218.05-.382-.164-.522-.566-.36-1.118-.733-1.503-1.316-.34-.5-.53-1.024-.446-1.63.032-.197-.035-.337-.184-.457-.312-.23-.607-.498-.918-.728-.672-.517-.862-1.188-.523-1.957.083-.165-.004-.24-.102-.33-.352-.366-.796-.608-1.223-.889-.454-.283-.835-.626-1.04-1.139a.7.7 0 0 1-.059-.365c.087-.633.173-1.265.557-1.802.092-.125.119-.269.134-.428.029-.73.356-1.367.695-1.989.066-.127.143-.24.206-.34.111-.19.083-.313-.121-.412a4.7 4.7 0 0 1-1.279-1.014 3.68 3.68 0 0 1-.825-2 6 6 0 0 0-.341-1.473 4.5 4.5 0 0 1-.178-.657c-.033-.216-.044-.377-.352-.367-.188.01-.355-.34-.289-.614.093-.418.337-.742.646-1.046.367-.352.647-.78 1.062-1.074.087-.071.094-.15.116-.242a6.27 6.27 0 0 1 1.376-2.698c.357-.393.652-.832 1.069-1.153.073-.06.092-.125.061-.221-.085-.369.015-.72.115-1.07a67 67 0 0 1 1.13-3.348c.33-.956.956-1.644 1.708-2.267l.449-.371c.333-.276.675-.51 1.096-.59.544-.109 1.078-.259 1.625-.394z"/><path fill="url(#m)" d="M293.252 36.826c.421-.64 1.04-.983 1.77-1.22 1.032-.343 2.091-.537 3.181-.634.363-.032.702.053 1.029.124.156.042.327.071.385-.123.059-.195-.081-.275-.263-.319a3.14 3.14 0 0 0-1.563-.12c-.732.117-1.456.155-2.171.381-.329.102-.662.231-.992.333-.081.02-.159.132-.257.043-.06-.073 0-.147.022-.238.314-.918.814-1.698 1.469-2.41.64-.7 1.294-1.412 2.089-1.923 1.179-.756 2.434-1.331 3.83-1.56 1.056-.167 2.095-.148 3.179-.046-.199.408-.474.782-.637 1.234-.342.941-.673 1.897-.847 2.895q-.085.472.155.895c.072.087.091.169.04.284-.113.216-.201.434-.339.622-.444.611-.48 1.275-.36 1.98.052.298.133.573.196.886.026.149.052.298.223.327.211.02.217-.18.294-.292.026.296-.096.591-.044.89.012.16.023.322.061.486.026.149.049.325.28.28.205-.048.179-.197.153-.346-.092-.582-.051-1.152.222-1.647.371-.672.756-1.356 1.227-1.965.198-.261.434-.506.57-.813.422-.934 1.136-1.574 1.987-2.107.226-.139.438-.265.653-.419.904-.675 2.006-.757 3.053-.965a29 29 0 0 0 1.868-.424c1.401-.428 2.745-.394 3.983.483.388.264.792.515 1.195.767.252.157.335.405.404.665.028.123-.02.212-.169.238-.272.054-.476-.045-.673-.224-.479-.432-.976-.826-1.598-1.018-.531-.17-1.101-.211-1.647-.223-1.746-.018-3.485.178-5.132.81-.665.257-1.203.726-1.654 1.27-.527.631-1.149 1.146-1.795 1.632-.934.699-1.512 1.591-1.583 2.772-.038.543-.223 1.086-.196 1.649.007.067-.048.089-.065.127-.71.734-.618 1.316.292 1.709.307.136.6.283.932.301.37.035.67.25.972.439.691.452 1.351.955 2.107 1.28.565.24 1.153.362 1.764.393.784.034 1.558.174 2.322.273.329.044.654-.005.97-.095.163-.038.212-.127.186-.276-.029-.123-.124-.239-.262-.198-.741.223-1.476-.046-2.202-.128-.435-.055-.89-.044-1.313-.084-.978-.093-1.818-.52-2.605-1.087-.199-.152-.401-.278-.653-.435.523-.164.978-.321 1.457-.45 1.16-.277 2.273-.759 3.402-1.132.674-.217 1.351-.46 2.003-.731 1.043-.449 1.799-1.245 2.346-2.233.208-.368.443-.732.737-1.025.101-.084.205-.194.085-.339-.131-.159-.295-.12-.428.013-.323.317-.536.737-.797 1.099-.29.386-.479.835-.858 1.173a5.9 5.9 0 0 1-1.784 1.086c-1.023.383-2.08.697-3.091 1.095-.651.245-1.293.411-1.95.59a6 6 0 0 0-.648.218c-.956.377-1.869.157-2.733-.298-.293-.148-.328-.485-.082-.688l.087-.072c.323.244.666.01.995.054.421.066.841.133 1.279.16.238.023.471-.048.7-.066.823-.096 1.562-.44 2.323-.728 1.134-.426 2.085-1.164 3.138-1.718.477-.248.923-.593 1.33-.955.261-.215.452-.544.626-.835a2.9 2.9 0 0 1 1.086-1.044c.759-.409 1.401-.988 2.052-1.527.174-.144.327-.076.489-.087.495-.02.818-.337.741-.784-.062-.34-.188-.698-.502-.902a51 51 0 0 0-2.114-1.346c-.607-.351-1.278-.308-1.927-.356-.691-.039-1.326.195-1.969.36-1.177.317-2.371.524-3.581.77-.883.17-1.717.518-2.597.662-.393.056-.763.168-1.132.253-.78.206-1.315.65-1.7 1.333-.063.101-.112.337-.239.271-.142-.053-.107-.277-.08-.42.327-1.49.72-2.961 1.59-4.266a9.4 9.4 0 0 1 1.512-1.738c.145-.12.304-.252.496-.314 1.06-.34 2.088-.776 3.169-1.061a11.5 11.5 0 0 1 3.024-.381c.666.01 1.25.184 1.836.48.42.213.835.479 1.316.618.182.044.362.114.45-.104.087-.219-.105-.304-.276-.333-.471-.098-.871-.376-1.277-.601-.9-.499-1.855-.562-2.845-.523-1.703.093-3.3.61-4.88 1.234-.207.073-.428.16-.647.219s-.187-.138-.192-.232a4.5 4.5 0 0 1 .064-.954c.243-1.445 1.002-2.56 2.224-3.352.383-.244.797-.392 1.212-.54.994-.359 2.022-.649 3.066-.83a5.4 5.4 0 0 1 2.679.173c.543.184 1.103.33 1.534.705.518.45 1.096.824 1.484 1.381.529.757 1.357 1.169 2.052 1.715.794.635 1.682 1.12 2.435 1.764.899.792 1.781 1.622 2.591 2.513.603.67 1.137 1.375 1.799 1.997.501.488.9 1.06 1.343 1.595.467.564.975 1.119 1.456 1.671.458.524.915 1.047 1.301 1.63.117.172.275.334.407.493.431.52.679 1.145 1.054 1.687a10.6 10.6 0 0 1 1.369 2.597c.35.954.77 1.874 1.12 2.828.234.635.534 1.264.809 1.89.176.39.242.824.39 1.238.383 1.023.671 2.078 1.124 3.068.356.754.425 1.574.468 2.392.061.9-.06 1.755-.183 2.637-.099.765-.431 1.454-.827 2.123-.431.747-1.061 1.34-1.724 1.865-.649.513-1.262 1.068-1.973 1.535-.511.325-1.067.566-1.566.906-.615.435-1.342.646-2.024.942-1.17.53-2.4.84-3.611 1.233-.73.238-1.466.409-2.193.62-.797.245-1.622.22-2.435.357a41 41 0 0 0-1.399.255c-.994.213-1.983.52-2.989.718-.992.186-1.947.416-2.927.617-.707.147-1.431.038-2.14-.082-.182-.044-.382-.05-.541-.064-.411-.026-.684-.239-1.01-.456-.499-.368-.863-.749-.88-1.417-.014-.135-.096-.263-.136-.4-.155-.482-.112-.931.053-1.41.27-.734.602-1.423.998-2.093.223-.379.359-.833.267-1.269-.142-.76-1.008-1.335-1.79-1.25-.567.08-1.054.288-1.306.838-.051.115-.116.096-.19.035-.132-.159-.314-.203-.485-.232-.916-.194-1.669-.692-2.454-1.14-.938-.515-1.945-.877-3-1.003-.791-.102-1.503.098-1.937.87-.128.229-.321.437-.461.65-.063.102-.133.135-.246.058-.448-.336-.94-.636-1.297-1.097-.285-.374-.432-.788-.496-1.247-.035-.19.001-.294.217-.18a4.2 4.2 0 0 0 1.829.413c.147 0 .32.004.457-.037.66-.204 1.331-.394 1.989-.572.739-.197 1.508-.298 2.281-.425a20 20 0 0 0 3.427-.837c.718-.252 1.457-.45 2.205-.605.407-.069.792-.192 1.149-.439.386-.27.853-.413 1.296-.584 1.175-.436 2.338-.887 3.301-1.756a29 29 0 0 1 1.968-1.628c.574-.426 1.124-.881 1.6-1.397.55-.602 1.283-1.013 1.859-1.612.447-.491.92-.98 1.281-1.546.457-.744.119-1.683-.52-2.13-.299-.216-.656-.116-.974 0-1.141.507-2.216 1.152-3.282 1.838-.609.383-1.267.708-1.92.98-.845.333-1.633.766-2.457 1.155-1.089.51-2.165 1.036-3.312 1.448a40 40 0 0 0-2.215.858 5 5 0 0 1-.742.223c-1.396.375-2.761.847-4.124 1.291-.744.25-1.495.433-2.265.533-.541.083-1.066.273-1.614.288-.83.029-1.677.095-2.416-.415-.952-.65-1.772-1.435-2.242-2.533-.372-.862-.071-1.648.348-2.408.097-.178.189-.45.341-.502.151-.052.299.215.489.327.29.174.583.322.947.29a6 6 0 0 0 1.073-.206c.164-.038.318-.117.244-.324-.05-.178-.211-.167-.363-.114-.248.083-.517.11-.789.165-.433.066-.767-.072-1.095-.41.483-.035.9-.209 1.335-.3.179-.05.345-.115.271-.322-.062-.193-.25-.184-.428-.134-.192.062-.37.112-.563.174-.592.197-1.143.092-1.644-.25-.667-.422-1.216-.968-1.444-1.803.209.046.329.191.454.283.856.681 1.824.88 2.902.768 1.429-.159 2.761-.7 4.128-1.05.561-.148 1.079-.406 1.585-.678.73-.385.77-.808.244-1.592-.211-.313-.508-.554-.81-.743-.629-.406-1.209-.901-1.838-1.308-.629-.406-1.333-.58-2.049-.767-.286-.08-.591.051-.887.076-.996.093-1.906.407-2.824.8-.626.275-.89.81-1.095 1.418a3.8 3.8 0 0 1-.305.692c-.126-.36-.255-.691-.261-1.052-.006-.214-.13-.453.036-.664.302-.371.654-.712 1.122-.854.963-.31 1.89-.662 2.86-.904 1.473-.341 2.811-.108 4.066.731.024.029.063.046.101.063.137.106.271.092.378-.044.08-.14.01-.253-.114-.345a6.1 6.1 0 0 0-1.84-.867c-1.182-.339-2.32-.153-3.461.206-.77.248-1.526.483-2.273.76-.248.083-.412.267-.66.35l-.084-.1z"/><path fill="url(#n)" d="M302.167 61.536c-.178.05-.291-.028-.404-.105-.48-.286-.996-.468-1.507-.703-.166-.082-.301-.069-.398.11-.084.191.055.271.197.325.773.286 1.464.738 2.225 1.01.582.202 1.18.365 1.797.464.46.083.812.303 1.148.562.211.166.403.398.614.565.323.244.32.563.208.9-.173.557-.461 1.063-.924 1.447a1.87 1.87 0 0 1-1.189.447c-.135.014-.178-.096-.238-.169-.481-.699-1.152-1.216-1.809-1.745-.372-.302-.845-.373-1.268-.56-.103-.036-.185-.017-.236.098-.063.1-.059.194.04.284.048.058.11.104.175.123.863.188 1.457.818 2.085 1.371.309.256.529.61.766.926.249.33.04.844-.338 1.035s-.79.313-1.199.407c-.274.081-.524.044-.728-.202s-.499-.367-.751-.524c-.592-.363-1.168-.764-1.758-1.154-.089-.048-.164-.108-.264-.171-.113-.078-.243-.117-.323.023-.08.139-.054.288.086.368.429.254.842.546 1.254.839.351.246.689.478 1.088.636.422.187.334.552.314.91-.013.28-.237.392-.471.463-.467.142-.864.105-1.317-.178-.655-.409-1.218-.942-1.871-1.377a1.7 1.7 0 0 0-.406-.226c-.129-.038-.202.021-.25.11-.051.115-.061.221.066.287.847.493 1.566 1.215 2.428 1.696.456.257.946.29 1.457.111.318-.116.609-.235.762-.581.017-.039.063-.101.053-.142-.089-.462.211-.394.521-.431.592-.05 1.172-.263 1.681-.562.381-.217.521-.577.494-.993-.009-.188.034-.224.225-.26.705-.12 1.297-.464 1.648-1.07.429-.72 1.02-1.332 1.46-2.038.365-.619.572-1.253.361-1.98-.079-.3-.025-.59-.009-.895.003-.173.135-.16.231-.191.4-.136.778-.327 1.051-.675.244-.323.303-.665.247-1.057-.12-.705.625-1.395 1.276-1.227.157.042.325.098.466.151.49.18.693.573.576 1.108-.115.51-.381.925-.661 1.352-.201.288-.31.598-.396.937-.026.144-.053.288-.131.4-.368.646-.266 1.27-.033 1.905.24.703.305 1.43.156 2.163-.049.235-.232.338-.365.472-.76.702-1.386 1.537-2.136 2.28-.56.56-1.23.87-1.95 1.15-.997.386-2.025.675-3.053.965-.356.1-.717.253-1.086.338a8.8 8.8 0 0 1-2.843.305c-.69-.039-1.388.002-2.078-.183-.533-.144-1.066-.288-1.58-.496-.296-.122-.504-.462-.5-.781.017-.6.112-1.19.194-1.77.094-.711.421-1.347.579-2.04.11-.456.155-.932.383-1.364.801-1.565 1.389-3.27 2.76-4.502.364-.325.69-.668 1.078-.965.362-.3.505-.686.651-1.1.056-.167.109-.309.216-.446.227-.285.427-.573.642-.873.433-.626 1.056-.58 1.7-.48 1.288.202 2.433.79 3.53 1.468.139.08.351.1.379.222.014.135-.207.221-.285.334-.109.163-.232.338-.317.53-.169.384-.089.659.247.917.187.138.377.25.581.349.142.053.288.054.342-.088.068-.154-.014-.282-.167-.35 0 0-.024-.028-.051-.03-.706-.294-.748-.552-.188-1.113.34-.354.744-.396 1.236-.096.264.172.482.552.413 1-.057.314-.286.48-.524.603-.8.419-1.582.505-2.422.078-.562-.266-1.141-.494-1.691-.746-.549-.252-1.096-.117-1.611.114a2.7 2.7 0 0 0-1.076.792c-.106.137-.133.281-.006.347.358.167.426.574.755.765z"/><path fill="#CF6E6C" d="M294.63 47.509c.298.802.76 1.42 1.335 1.967.611.591 1.268 1.12 2.099 1.359.507.141 1.008.069 1.513.09.558.026 1.094-.15 1.638-.26.559-.12 1.124-.173 1.673-.335 1.331-.394 2.663-.789 3.963-1.28.248-.083.493-.14.739-.196.939-.192 1.779-.62 2.69-.934.647-.219 1.276-.52 1.912-.753.594-.224 1.132-.547 1.715-.785 1.028-.436 1.99-1.012 3.042-1.42.706-.267 1.356-.659 2.01-1.077.923-.594 1.87-1.158 2.86-1.611.195-.089.434-.213.669-.017.294.268.438.588.427.988-.016.305-.159.545-.354.78-.573.693-1.16 1.398-1.89 1.929-.916.66-1.603 1.57-2.516 2.204-.972.681-1.8 1.537-2.771 2.22-.543.375-1.188.567-1.788.844-.571.253-1.232.337-1.734.703-.701.508-1.51.591-2.302.783-.914.22-1.779.62-2.703.799-1.293.265-2.57.517-3.855.703-.433.066-.86.199-1.276.373-1.154.491-2.25.374-3.289-.204-.444-.242-.797-.61-1.195-.913-.235-.196-.484-.38-.589-.683-.052-.152-.093-.29-.078-.448.007-.493.091-.538.54-.349.464.177.876.47 1.325.659.346.153.74.216 1.12.146 1.305-.25 2.614-.407 3.88-.821.674-.216 1.379-.337 2.063-.512 1.75-.448 3.483-1.005 5.086-1.867.985-.548 2.033-.902 3.135-1.132.611-.115 1.158-.397 1.726-.624 1.25-.522 2.316-1.355 3.452-2.075.284-.186.607-.356.927-.5.643-.312 1.054-.847 1.465-1.382.029-.023.034-.076.051-.115.051-.115.116-.242-.009-.334-.124-.092-.226-.008-.315.09s-.191.182-.268.295c-.445.612-1.045 1.035-1.753 1.328-.501.22-.897.596-1.35.873-.834.495-1.622 1.075-2.537 1.442-.639.26-1.272.466-1.941.63-1.187.275-2.263.8-3.343 1.352a11.6 11.6 0 0 1-1.885.755c-.701.214-1.359.539-2.078.671-.462.09-.91.168-1.36.272-.491.114-.961.283-1.445.464-.539.202-1.119.267-1.687.347-.553.068-1.087.218-1.643.312-.46.063-.888.076-1.279-.161-.581-.348-1.256-.546-1.791-.956a16 16 0 0 0-1.588-1.124 1.9 1.9 0 0 1-.525-.517.98.98 0 0 1-.211-.873c.074-.354.121-.71.319-1.118z"/><path fill="url(#o)" d="M296.835 30.961c.293-1.266.74-2.464 1.136-3.694.462-1.357 1.532-2.097 2.557-2.92.131-.108.333-.13.496-.167.848-.213 1.643-.578 2.516-.643.551-.041 1.092.023 1.581.35.501.34 1.073.501 1.64.715.219.087.278.16.215.407a3.9 3.9 0 0 0-.121 1.71c.025.149-.023.238-.124.322-.483.447-.941.924-1.326 1.462-.137.187-.37.111-.57.106-.851-.027-1.698-.107-2.549.012-1.121.148-2.19.447-3.212.951-.771.394-1.542.788-2.224 1.377z"/><path fill="url(#p)" d="M307.372 35.387c.844-.6 1.355-1.486 2.134-2.107.535-.443 1.168-.65 1.823-.801 1.649-.365 3.299-.609 4.994-.329.735.123 1.297.536 1.838 1.014.036.044.06.073.055.126-.036.103-.492.407-.595.37-.622-.192-1.233-.076-1.842.013-1.391.175-2.782.35-4.139.743-.92.273-1.852.532-2.79.724-.503.099-.989.16-1.492.259z"/><path fill="#DBDDDE" d="M308.919 35.613c-.601 1.13-.104 2.085.448 3.017.115.198.271.386.472.512.175.123.103.183-.049.235-1.119.415-2.244.735-3.445.462-.248-.063-.512-.088-.76-.005-.166.064-.183-.044-.211-.167-.066-.286.067-.567.08-.846.035-.37.108-.724.143-1.094.055-.582.35-1.02.698-1.455.06-.074.13-.108.215-.153.782-.233 1.605-.328 2.421-.492z"/><path fill="url(#q)" d="M303.732 37.909a4.3 4.3 0 0 1-.291-1.442c-.025-.442.118-.829.343-1.234.308-.572.702-1.068 1.009-1.64.242-.444.577-.745 1.085-.897.675-.217 1.38-.337 2.066-.539.014-.012.053.005.103.036-.179.197-.391.324-.588.438-.75.45-1.202 1.14-1.63 1.86-.477.81-1.054 1.556-1.543 2.35-.206.34-.334.715-.54 1.056z"/><path fill="url(#r)" d="M299.612 37.441c-.878.264-1.678.535-2.499.751-.768.221-1.452.543-1.99 1.16-.3.345-.709.586-1.083.87-.13.109-.258.19-.379.339-.12-.145-.133-.28-.039-.431.266-.415.458-.89.582-1.36.144-.533.515-.79.961-.989.961-.43 1.995-.652 3.044-.74.457-.036.887.218 1.377.398z"/><path fill="#DADCDD" d="M297.369 42.15c-1.035.223-1.979.054-2.809-.625-.137-.106-.302-.189-.439-.295-.187-.138-.254-.278-.039-.43.202-.168.417-.322.632-.475.361-.299.721-.572 1.032-.903.225-.258.533-.416.88-.557-.51 1.3-.401 2.404.729 3.297z"/><path fill="url(#s)" d="M303.172 59.897c.477-.102.868.136 1.279.308.703.32 1.404.666 2.164.818.182.044.43-.04.555.052.149.121-.021.359.027.563.069.26.108.544.136.814.014.134.019.228-.188.155-1.215-.555-2.359-1.29-3.509-1.972-.189-.112-.359-.288-.532-.437-.06-.073-.192-.085-.168-.203.025-.118.166-.064.224-.112z"/><path fill="#fff" d="M306.636 64.078a4.9 4.9 0 0 0-1.877-1.739 1.5 1.5 0 0 0-.534-.143c-.355-.047-.692-.16-.96-.425-.331-.311-.753-.498-1.038-.871-.228-.276-.184-.458.084-.606.113-.07.178-.05.264.025 1.316 1.178 2.886 1.927 4.44 2.714.204.1.223.181.111.37-.154.226-.247.498-.476.663z"/><path fill="#DADBDA" d="M317.236 34.024c-.717.666-1.648.924-2.142 1.771-.248-.623-.759-1.005-1.299-1.363 1.139-.186 2.248-.348 3.441-.409"/><path fill="#DADCDC" d="M310.898 37.587c-.288.092-.553.068-.812-.157-.453-.43-.367-.915.204-1.168.265-.122.878.03 1.055.273.335.405.126.92-.447 1.052"/><path fill="#D9DBDA" d="M301.093 38.408c.621.339 1.161.697 1.609 1.18l.132.158c.318.444.294.562-.198.822-.169.091-.311.184-.479.275-.058.048-.14.067-.142-.053.061-.928-.42-1.627-.937-2.37zM297.33 40.427c-.107-.424.06-.635.594-.785.22-.059.476.192.564.534.097.383-.058.608-.455.717-.368.086-.594-.069-.703-.466"/><path fill="#D6D8D6" d="M313.061 35.723c-.233.071-.399-.011-.47-.245-.083-.248.088-.365.256-.456.155-.078.43.108.48.286s-.073.353-.266.415"/><path fill="#D4D7D4" d="M300.278 38.892c.033.217-.05.383-.228.432-.19.036-.353-.073-.427-.28-.062-.193.021-.358.213-.42.248-.083.351.1.442.268"/><path fill="#D7D9D7" d="M313.389 36.622c.045.23-.062.367-.266.415-.231.045-.341-.06-.401-.278-.062-.193-.006-.361.211-.394.202-.02.385.023.47.245z"/><path fill="#D2D5D2" d="M299.926 40.474c-.062-.193.027-.291.217-.327.205-.047.318.03.368.209.035.19-.03.317-.235.364-.205.048-.3-.068-.35-.246"/><path fill="url(#t)" d="M293.258 36.826s.074.06.084.101a4 4 0 0 0-.775.86c.093-.417.423-.666.691-.961"/><path fill="#010302" d="M301.308 43.5c-.566.2-1.1.349-1.677.388a.6.6 0 0 1-.303-.042q-.216-.04-.216-.26c.027-.145.141-.214.261-.216.983.04 1.834-.347 2.641-.844.296-.173.581-.36.841-.575.116-.095.239-.124.361-.006.134.133.057.246-.032.344-.087.072-.15.173-.249.23-.692.549-1.295 1.145-1.64 1.966-.271.615-.682 1.15-.826 1.83-.025.118-.102.23-.273.201-.183-.044-.196-.179-.167-.35.086-.485.325-.902.553-1.334.242-.444.458-.891.714-1.347z"/><path fill="#030603" d="M320.414 41.074c.758-.116 1.591-.317 2.463-.088.495.127.939.369 1.289.762.095.116.177.244.044.378-.147.146-.257.042-.368-.061-.596-.604-1.303-.75-2.109-.693-.483.034-.957.11-1.436.237-.164.038-.357.1-.401-.13-.036-.191.094-.299.273-.349.067-.007.122-.028.259-.068zM320.595 39.436c.503-.099 1.004-.172 1.499-.045.209.047.348.126.287.348-.046.209-.231.191-.4.135-.507-.141-.974.002-1.472.048-.175.023-.368.085-.381-.196-.016-.255.181-.223.333-.276.029-.024.081-.019.122-.028z"/></g><path stroke="#B9AC94" stroke-miterlimit="10" stroke-width="1.04" d="M309.583 72.247c16.627 0 30.105-13.478 30.105-30.105 0-16.626-13.478-30.105-30.105-30.105s-30.105 13.479-30.105 30.105 13.478 30.105 30.105 30.105Z"/><path fill="#B9AC94" d="M294.692 20.062c-9.098 6.838-13.364 18.987-10.525 30.035-4.309-10.822.438-24.257 10.525-30.035M336.21 42.142c-.635-8.985-5.311-17.348-12.601-22.632 8.165 4.14 13.378 13.52 12.601 22.632"/><path fill="url(#u)" d="M309.583 72.247c16.627 0 30.105-13.478 30.105-30.105 0-16.626-13.478-30.105-30.105-30.105s-30.105 13.479-30.105 30.105 13.478 30.105 30.105 30.105"/><path fill="url(#v)" d="M332.567 28.693c-4.323-7.375-12.107-12.531-21.289-13.125a26.4 26.4 0 0 0-8.011.693"/><path fill="url(#w)" d="M307.886 68.7c9.536.608 18.224-3.884 23.395-11.131Z"/></g><path fill="#fff" d="m318.784 13.875-37.55 19.538 37.225-20.16zM315.915 12.674l-20.456 10.468 20.131-11.076zM361.173 83.578l-55.195 28.819 54.799-29.568zM357.47 82.816l-30.049 15.483 29.653-16.218z"/><defs><linearGradient id="b" x1=".51" x2="241.444" y1="186.079" y2="83.113" gradientUnits="userSpaceOnUse"><stop stop-color="#7E4033" stop-opacity="0"/><stop offset="1" stop-color="#E4735D"/></linearGradient><linearGradient id="c" x1="14.255" x2="255.19" y1="228.059" y2="125.093" gradientUnits="userSpaceOnUse"><stop stop-color="#7E4033" stop-opacity="0"/><stop offset="1" stop-color="#E4735D"/></linearGradient><linearGradient id="d" x1="9.933" x2="250.867" y1="205.863" y2="102.897" gradientUnits="userSpaceOnUse"><stop stop-color="#7E4033" stop-opacity="0"/><stop offset="1" stop-color="#E4735D"/></linearGradient><linearGradient id="e" x1="258.878" x2="283.855" y1="80.131" y2="80.131" gradientUnits="userSpaceOnUse"><stop offset=".04" stop-color="#BEF5EB"/><stop offset=".08" stop-color="#C7D3E1"/><stop offset=".47" stop-color="#ED4F35"/><stop offset="1" stop-color="#BEF5EB"/></linearGradient><linearGradient id="f" x1="238.647" x2="283.6" y1="73.533" y2="73.533" gradientUnits="userSpaceOnUse"><stop offset=".04" stop-color="#BEF5EB"/><stop offset=".08" stop-color="#C7D3E1"/><stop offset=".47" stop-color="#ED4F35"/><stop offset="1" stop-color="#BEF5EB"/></linearGradient><linearGradient id="g" x1="244.534" x2="381.794" y1="74.694" y2="74.694" gradientUnits="userSpaceOnUse"><stop offset=".04" stop-color="#BEF5EB"/><stop offset=".12" stop-color="#8FE6EF"/><stop offset=".22" stop-color="#5CD7F4"/><stop offset=".31" stop-color="#34CBF8"/><stop offset=".4" stop-color="#17C3FB"/><stop offset=".47" stop-color="#06BDFD"/><stop offset=".52" stop-color="#00BCFE"/><stop offset=".72" stop-color="#0F85D4"/><stop offset="1" stop-color="#263495"/></linearGradient><linearGradient id="h" x1="363.836" x2="381.792" y1="48.261" y2="48.261" gradientUnits="userSpaceOnUse"><stop offset=".04" stop-color="#BEF5EB"/><stop offset=".08" stop-color="#C7D3E1"/><stop offset=".47" stop-color="#ED4F35"/><stop offset="1" stop-color="#BEF5EB"/></linearGradient><linearGradient id="i" x1="267.74" x2="292.83" y1="102.82" y2="102.82" gradientUnits="userSpaceOnUse"><stop offset=".04" stop-color="#BEF5EB"/><stop offset=".08" stop-color="#C7D3E1"/><stop offset=".47" stop-color="#ED4F35"/><stop offset="1" stop-color="#BEF5EB"/></linearGradient><linearGradient id="j" x1="252.806" x2="305.26" y1="114.573" y2="114.573" gradientUnits="userSpaceOnUse"><stop offset=".04" stop-color="#BEF5EB"/><stop offset=".08" stop-color="#C7D3E1"/><stop offset=".47" stop-color="#ED4F35"/><stop offset="1" stop-color="#BEF5EB"/></linearGradient><linearGradient id="m" x1="300.585" x2="330.686" y1="58.477" y2="33.573" gradientUnits="userSpaceOnUse"><stop offset=".04" stop-color="#BEF5EB"/><stop offset=".12" stop-color="#8FE6EF"/><stop offset=".22" stop-color="#5CD7F4"/><stop offset=".31" stop-color="#34CBF8"/><stop offset=".4" stop-color="#17C3FB"/><stop offset=".47" stop-color="#06BDFD"/><stop offset=".52" stop-color="#00BCFE"/><stop offset=".72" stop-color="#0F85D4"/><stop offset="1" stop-color="#263495"/></linearGradient><linearGradient id="n" x1="295.158" x2="310.831" y1="70.625" y2="57.658" gradientUnits="userSpaceOnUse"><stop offset=".04" stop-color="#BEF5EB"/><stop offset=".12" stop-color="#8FE6EF"/><stop offset=".22" stop-color="#5CD7F4"/><stop offset=".31" stop-color="#34CBF8"/><stop offset=".4" stop-color="#17C3FB"/><stop offset=".47" stop-color="#06BDFD"/><stop offset=".52" stop-color="#00BCFE"/><stop offset=".72" stop-color="#0F85D4"/><stop offset="1" stop-color="#263495"/></linearGradient><linearGradient id="o" x1="297.087" x2="306.146" y1="31.265" y2="23.77" gradientUnits="userSpaceOnUse"><stop offset=".04" stop-color="#BEF5EB"/><stop offset=".12" stop-color="#8FE6EF"/><stop offset=".22" stop-color="#5CD7F4"/><stop offset=".31" stop-color="#34CBF8"/><stop offset=".4" stop-color="#17C3FB"/><stop offset=".47" stop-color="#06BDFD"/><stop offset=".52" stop-color="#00BCFE"/><stop offset=".72" stop-color="#0F85D4"/><stop offset="1" stop-color="#263495"/></linearGradient><linearGradient id="p" x1="308.989" x2="316.5" y1="37.34" y2="31.126" gradientUnits="userSpaceOnUse"><stop offset=".04" stop-color="#BEF5EB"/><stop offset=".12" stop-color="#8FE6EF"/><stop offset=".22" stop-color="#5CD7F4"/><stop offset=".31" stop-color="#34CBF8"/><stop offset=".4" stop-color="#17C3FB"/><stop offset=".47" stop-color="#06BDFD"/><stop offset=".52" stop-color="#00BCFE"/><stop offset=".72" stop-color="#0F85D4"/><stop offset="1" stop-color="#263495"/></linearGradient><linearGradient id="q" x1="302.846" x2="308.2" y1="36.838" y2="32.408" gradientUnits="userSpaceOnUse"><stop offset=".04" stop-color="#BEF5EB"/><stop offset=".12" stop-color="#8FE6EF"/><stop offset=".22" stop-color="#5CD7F4"/><stop offset=".31" stop-color="#34CBF8"/><stop offset=".4" stop-color="#17C3FB"/><stop offset=".47" stop-color="#06BDFD"/><stop offset=".52" stop-color="#00BCFE"/><stop offset=".72" stop-color="#0F85D4"/><stop offset="1" stop-color="#263495"/></linearGradient><linearGradient id="r" x1="293.712" x2="298.762" y1="40.592" y2="36.413" gradientUnits="userSpaceOnUse"><stop offset=".04" stop-color="#BEF5EB"/><stop offset=".12" stop-color="#8FE6EF"/><stop offset=".22" stop-color="#5CD7F4"/><stop offset=".31" stop-color="#34CBF8"/><stop offset=".4" stop-color="#17C3FB"/><stop offset=".47" stop-color="#06BDFD"/><stop offset=".52" stop-color="#00BCFE"/><stop offset=".72" stop-color="#0F85D4"/><stop offset="1" stop-color="#263495"/></linearGradient><linearGradient id="s" x1="304.44" x2="306.452" y1="61.871" y2="60.207" gradientUnits="userSpaceOnUse"><stop offset=".04" stop-color="#BEF5EB"/><stop offset=".12" stop-color="#8FE6EF"/><stop offset=".22" stop-color="#5CD7F4"/><stop offset=".31" stop-color="#34CBF8"/><stop offset=".4" stop-color="#17C3FB"/><stop offset=".47" stop-color="#06BDFD"/><stop offset=".52" stop-color="#00BCFE"/><stop offset=".72" stop-color="#0F85D4"/><stop offset="1" stop-color="#263495"/></linearGradient><linearGradient id="t" x1="292.471" x2="293.368" y1="37.672" y2="36.93" gradientUnits="userSpaceOnUse"><stop stop-color="#263495"/><stop offset=".28" stop-color="#0F85D4"/><stop offset=".48" stop-color="#00BCFE"/><stop offset=".53" stop-color="#06BDFD"/><stop offset=".6" stop-color="#17C3FB"/><stop offset=".69" stop-color="#34CBF8"/><stop offset=".78" stop-color="#5CD7F4"/><stop offset=".88" stop-color="#8FE6EF"/><stop offset=".96" stop-color="#BEF5EB"/></linearGradient><linearGradient id="u" x1="311.334" x2="307.49" y1="10.841" y2="70.943" gradientUnits="userSpaceOnUse"><stop stop-color="#EFDC8D"/><stop offset=".07" stop-color="#EFDC8D" stop-opacity=".672"/><stop offset=".17" stop-color="#EFDC8D" stop-opacity=".36"/><stop offset=".27" stop-color="#EFDC8D" stop-opacity=".176"/><stop offset=".38" stop-color="#EFDC8D" stop-opacity=".073"/><stop offset=".48" stop-color="#EFDC8D" stop-opacity=".022"/><stop offset=".58" stop-color="#EFDC8D" stop-opacity=".01"/><stop offset=".68" stop-color="#EFDC8D" stop-opacity=".01"/><stop offset=".78" stop-color="#EFDC8D" stop-opacity="0"/></linearGradient><linearGradient id="v" x1="318.16" x2="317.41" y1="14.774" y2="26.49" gradientUnits="userSpaceOnUse"><stop stop-color="#EFDC8D"/><stop offset=".07" stop-color="#EFDC8D" stop-opacity=".672"/><stop offset=".17" stop-color="#EFDC8D" stop-opacity=".36"/><stop offset=".27" stop-color="#EFDC8D" stop-opacity=".176"/><stop offset=".38" stop-color="#EFDC8D" stop-opacity=".073"/><stop offset=".48" stop-color="#EFDC8D" stop-opacity=".022"/><stop offset=".58" stop-color="#EFDC8D" stop-opacity=".01"/><stop offset=".68" stop-color="#EFDC8D" stop-opacity=".01"/><stop offset=".78" stop-color="#EFDC8D" stop-opacity="0"/></linearGradient><linearGradient id="w" x1="319.821" x2="319.018" y1="55.621" y2="68.183" gradientUnits="userSpaceOnUse"><stop stop-color="#EFDC8D"/><stop offset=".07" stop-color="#EFDC8D" stop-opacity=".672"/><stop offset=".17" stop-color="#EFDC8D" stop-opacity=".36"/><stop offset=".27" stop-color="#EFDC8D" stop-opacity=".176"/><stop offset=".38" stop-color="#EFDC8D" stop-opacity=".073"/><stop offset=".48" stop-color="#EFDC8D" stop-opacity=".022"/><stop offset=".58" stop-color="#EFDC8D" stop-opacity=".01"/><stop offset=".68" stop-color="#EFDC8D" stop-opacity=".01"/><stop offset=".78" stop-color="#EFDC8D" stop-opacity="0"/></linearGradient><clipPath id="a"><path fill="#fff" d="M0 81.939h255.703v147.314H0z"/></clipPath><clipPath id="l"><path fill="#fff" d="m274.076 45.7 39.87-32.985 32.028 38.713-39.87 32.985z"/></clipPath></defs></svg>