<svg xmlns="http://www.w3.org/2000/svg" width="883" height="662" fill="none"><g clip-path="url(#a)"><g clip-path="url(#b)"><path fill="url(#c)" d="m346.989 372.071 496.85 140.106-1.386 4.917-496.85-140.106z"/><path fill="url(#d)" d="m330.789 457.558 496.85 140.106-1.386 4.917-496.85-140.106z"/><path fill="url(#e)" d="m336.434 403.029 496.85 140.107-7.068 25.075-496.85-140.106z"/><path fill="#FFEFCD" d="m334.036 408.726-5.357 15.454 91.811 17.625z"/></g><path fill="#232826" d="M236.609 408.058a2.87 2.87 0 0 0-1.645 1.813 2.9 2.9 0 0 0 .315 2.428c4.349 6.901 22.452 23.973 96.126 33.278.284.019 1.764-.032 3.135-4.391s.188-5.244-.085-5.405c-65.725-34.526-90.318-30.916-97.85-27.751z"/><path fill="#C9CDA9" d="m261.841 372.831 35.545 18.908s-5.68-3.753-3.653-10.19c1.989-6.291 17.617-9.777 17.617-9.777l-30.7-11.426s-12.733 12.596-18.813 12.458z"/><path fill="url(#f)" d="m280.627 360.376 30.7 11.426s-15.66 3.461-17.618 9.776c-2.03 6.409 3.654 10.191 3.654 10.191l-35.546-18.908c2.842.052 7.123-2.636 10.869-5.563-.104.715.048 2.099 2.26 3.355 2.364 1.35 8.917 3.615 11.763 4.565-3.017 3.787-5.007 6.177-5.031 6.209l.222.195s5.412-6.51 12.029-15.198l-.218-.168c-2.518 3.301-4.851 6.298-6.81 8.713-2.787-.93-9.43-3.24-11.791-4.561-2.606-1.486-2.169-3.087-2.067-3.381.282-.204.561-.437.812-.666.062.048.169.006.189-.053l-.01-.082c3.683-2.976 6.541-5.816 6.541-5.816zm6.137 13.544s-.165.021-.186.08c-.016.086.022.166.081.186.086.017.165-.021.186-.08.017-.087-.022-.166-.108-.183zm-1.058-.368s-.165.021-.186.08c-.017.086.022.166.081.186.058.021.165-.021.186-.08 0 0-.022-.166-.081-.186m-1.089-.392s-.166.021-.186.08c-.017.087.021.166.08.186.087.017.166-.021.186-.08 0 0-.021-.166-.08-.186m-1.086-.364s-.165.021-.186.08c-.017.086.022.165.08.186.087.017.166-.022.187-.08 0 0-.022-.166-.081-.186m-1.089-.392s-.166.021-.186.08c-.017.086.021.165.08.186.087.017.166-.022.186-.08 0 0-.021-.166-.08-.186m-1.065-.424s-.166.022-.186.081c-.017.086.021.165.08.186.086.017.138-.018.186-.081 0 0-.022-.165-.08-.186m-1.062-.395s-.166.021-.186.08c-.021.059.021.166.08.186.087.017.166-.021.186-.08 0 0-.021-.166-.08-.186m-1.065-.423s-.166.021-.186.08c-.017.086.021.166.08.186.086.017.165-.021.186-.08 0 0-.022-.166-.08-.186m-1.069-.451s-.166.022-.186.08c-.017.087.021.166.08.186.086.017.166-.021.186-.08 0 0-.022-.165-.08-.186m-1.042-.454s-.165.021-.186.08c-.048.062.018.138.081.186.062.048.165-.021.186-.08 0 0-.022-.166-.081-.186m-1.021-.513s-.169-.006-.193.025c-.048.062-.006.169.053.189.062.048.142.01.19-.052l-.004-.028c-.007-.055-.018-.138-.077-.158zm-.921-.61s-.145-.038-.193.025a.135.135 0 0 0 .025.193.135.135 0 0 0 .193-.025l-.007-.056-.021-.165zm-.953-.859s-.065.149-.03.2c.034.052.121.069.2.03 0 0 .052-.034.048-.062l-.018-.138c-.035-.052-.149-.065-.2-.03m-.416-1.041s-.127.101-.12.156c.011.083.101.128.156.12.055-.007.107-.042.099-.097l-.01-.083c-.011-.082-.101-.127-.156-.12zm9.077 14.567s-.037.145.025.193a.135.135 0 0 0 .193-.025l.021-.059a.4.4 0 0 0-.049-.162.136.136 0 0 0-.194.025zm.921-.905s-.145-.038-.193.025a.134.134 0 0 0 .025.193.135.135 0 0 0 .193-.025l.02-.059c-.007-.055-.014-.11-.049-.162zm.727-.881s-.145-.037-.193.025a.136.136 0 0 0 .025.194.136.136 0 0 0 .194-.025l-.008-.056-.021-.165zm.728-.88s-.145-.037-.193.025a.136.136 0 0 0 .025.194.135.135 0 0 0 .193-.025l-.007-.056-.022-.165zm.724-.907s-.145-.038-.193.025a.135.135 0 0 0 .025.193.135.135 0 0 0 .193-.025l.021-.059c-.008-.055-.015-.11-.05-.162zm.728-.88s-.145-.038-.194.025a.134.134 0 0 0 .026.193.135.135 0 0 0 .193-.025l.02-.059-.021-.166zm.696-.905s-.145-.037-.193.025a.136.136 0 0 0 .025.194.135.135 0 0 0 .193-.025l.021-.059c-.008-.055-.015-.111-.049-.162zm.728-.88s-.145-.037-.193.025a.134.134 0 0 0 .025.194.135.135 0 0 0 .193-.025l.02-.059-.021-.166zm.503-.879s-.037.145.025.193a.133.133 0 0 0 .193-.025l.021-.058c-.008-.056-.015-.111-.049-.162a.135.135 0 0 0-.194.025zm.917-.932s-.145-.038-.193.025a.135.135 0 0 0 .025.193.135.135 0 0 0 .193-.025l.021-.059a.4.4 0 0 0-.049-.162zm.724-.908s-.145-.037-.193.025a.135.135 0 0 0 .025.193.135.135 0 0 0 .193-.025l.021-.059-.022-.165zm.697-.904s-.146-.038-.194.025a.134.134 0 0 0 .026.193.135.135 0 0 0 .193-.025l-.004-.028zm.7-.877s-.146-.037-.194.025a.134.134 0 0 0 .026.193.133.133 0 0 0 .193-.025l.02-.058a.34.34 0 0 0-.049-.162zm.724-.907s-.146-.038-.194.025a.134.134 0 0 0 .026.193.135.135 0 0 0 .193-.025l.02-.059a.35.35 0 0 0-.049-.162zm.696-.905s-.145-.037-.193.025a.136.136 0 0 0 .025.194.135.135 0 0 0 .193-.025l.021-.059-.022-.166zm.693-.931s-.145-.038-.193.025a.134.134 0 0 0 .025.193.135.135 0 0 0 .193-.025l-.007-.055a.36.36 0 0 0-.049-.162zm.696-.904s-.145-.038-.193.025a.135.135 0 0 0 .025.193.135.135 0 0 0 .193-.025l.021-.059a.35.35 0 0 0-.049-.162z"/><path fill="#232826" d="M311.428 371.953c-.165.022-15.514 3.499-17.418 9.583-1.928 6.115 3.309 9.701 3.555 9.866l-.329.491s-5.818-3.96-3.779-10.51c2.006-6.378 17.193-9.806 17.844-9.974l.131.572zM280.862 360.46c-.522.517-12.892 12.672-18.999 12.538l.011-.562c5.883.135 18.476-12.246 18.599-12.375z"/><path fill="#232826" d="m275.248 369.298-.022-.166s-.145-.037-.193.025c0 0-.037.145.025.193 0 0 .145.037.193-.025l-.007-.055zm-.808-.822-.018-.138s-.149-.065-.201-.03c0 0-.065.149-.03.201 0 0 .121.068.2.03 0 0 .052-.035.049-.063m-.444-1.037-.011-.082s-.1-.128-.156-.12c0 0-.127.1-.12.155 0 0 .101.128.156.121s.107-.042.1-.098zM272.823 366.833l.27.133s-.717 1.608 1.499 3.117l-.227.198c-2.345-1.632-1.535-3.393-1.539-3.421z"/><path fill="url(#g)" d="M259.298 347.676c3.712 5.889 20.036 22.014 88.977 30.756 0 0 1.31.139 2.561-3.84s.102-4.615.102-4.615c-61.541-32.349-84.13-28.439-90.573-25.751-1.357.569-1.871 2.235-1.095 3.453z"/><path fill="#EFDC8D" d="M350.941 369.978s1.118.613-.017 4.408c.594-2.125-.537-2.624-.537-2.624-63.104-27.32-84.368-27.678-90.233-26.805-.607.078-.989.38-1.111.733a2.4 2.4 0 0 1 1.349-1.494c6.412-2.712 29.032-6.599 90.573 25.751z"/><path fill="#232826" d="M267.873 350.809c.2.03-.26 1.24-.475 1.745-.15.357-.492.962-.614.894-.183-.117-.363-.206-.519-.326-2.054-1.333-3.585-2.538-4.757-3.564.287.047.618.004.848-.166.251-.229.339-.634.348-1a80 80 0 0 0 4.609 2.209c.179.089.359.178.563.236zM328.913 370.419c.287.047-.705 1.916-1.088 2.639-.113.211-.27.512-.464.537-.2-.03-.432-.084-.636-.142-10.875-2.266-20.041-4.558-27.747-6.842.561-1.083 1.279-2.467 1.958-4.155 7.686 2.343 16.722 4.932 27.365 7.79.204.058.408.116.609.146zM330.012 367.862l-.098.321a2896 2896 0 0 0-28.481-9.245l.099-.321c8.519 2.712 18.1 5.82 28.48 9.245M329.899 368.72s-.021-.166-.111-.21c0 0-.166.021-.21.111 0 0 .021.166.111.21 0 0 .166-.021.21-.111m-1.262-.426s-.021-.166-.111-.21c0 0-.166.021-.21.111 0 0 .021.166.111.21 0 0 .166-.021.21-.111m-1.231-.402s-.021-.165-.111-.21c0 0-.166.022-.21.112 0 0 .021.165.111.21 0 0 .166-.022.21-.112m-1.258-.398s-.022-.165-.112-.21c0 0-.165.022-.21.112 0 0 .025.193.112.21 0 0 .165-.022.21-.112m-1.231-.401s-.022-.166-.112-.211c0 0-.165.022-.21.112 0 0 .022.165.112.21 0 0 .165-.022.21-.111m-1.235-.43s-.021-.165-.111-.21c0 0-.166.022-.21.112 0 0 .021.165.111.21 0 0 .166-.022.21-.112m-1.231-.401s-.021-.166-.111-.211c0 0-.166.022-.21.112 0 0 .021.166.111.21 0 0 .166-.021.21-.111m-1.258-.399s-.022-.165-.112-.21c0 0-.165.022-.21.112 0 0 .022.165.112.21s.165-.022.21-.112m-1.231-.401s-.025-.193-.112-.21c0 0-.165.021-.21.111 0 0 .022.166.112.21 0 0 .166-.021.21-.111m-1.262-.426s-.022-.166-.112-.21c0 0-.165.021-.21.111 0 0 .022.166.112.21.09.045.165-.021.21-.111m-1.231-.402s-.022-.165-.112-.21c0 0-.165.022-.21.112 0 0 .022.165.112.21.086.017.165-.022.21-.112m-1.259-.398s-.021-.165-.111-.21c0 0-.166.022-.21.112 0 0 .021.165.111.21.087.017.194-.025.21-.112m-1.231-.401s-.021-.166-.111-.211c0 0-.166.022-.21.112 0 0 .021.165.111.21 0 0 .194-.025.21-.111m-1.23-.402s-.026-.193-.112-.21c0 0-.166.021-.21.111 0 0 .021.166.111.21 0 0 .194-.025.211-.111m-1.263-.426s-.021-.165-.111-.21c0 0-.166.022-.21.111 0 0 .021.166.111.211 0 0 .166-.022.21-.112m-1.231-.402s-.025-.193-.111-.21c0 0-.166.022-.21.112 0 0 .021.165.111.21 0 0 .166-.022.21-.112m-1.258-.398s-.022-.165-.112-.21c0 0-.165.022-.21.112 0 0 .022.165.112.21.086.017.165-.022.21-.112m-1.231-.401s-.022-.166-.112-.21c0 0-.165.021-.21.111 0 0 .022.166.112.21.086.017.166-.021.21-.111m-1.259-.398s-.021-.166-.111-.211c0 0-.166.022-.21.112 0 0 .021.165.111.21.087.017.166-.022.21-.111m-1.231-.402s-.021-.166-.111-.21c0 0-.166.021-.21.111 0 0 .025.193.111.21 0 0 .166-.021.21-.111m-1.258-.398s-.022-.166-.112-.21c0 0-.165.021-.21.111 0 0 .026.193.112.21 0 0 .193-.025.21-.111m-1.231-.402s-.021-.166-.111-.21c0 0-.166.021-.211.111 0 0 .026.194.112.21 0 0 .166-.021.21-.111m-1.255-.371s-.021-.165-.111-.21c0 0-.166.022-.21.112 0 0 .021.165.111.21.086.017.166-.022.21-.112M268.392 351.802c7.635 3.472 18.218 7.376 31.429 11.641a18 18 0 0 1-.372.806l-.031-.024c-.087-.017-.194.025-.21.111-.017.087.021.166.111.21a31 31 0 0 1-.961 1.893c-.086-.017-.173-.034-.235-.082-.204-.058-.408-.115-.584-.177-14.925-4.491-24.215-8.815-30.004-12.331.239-.536.539-1.248.881-2.078zm29.767 12.025s-.165.021-.21.111c-.017.087.022.166.112.21.086.017.193-.025.21-.111.017-.087-.025-.193-.112-.21m-1.231-.402s-.165.021-.21.111c-.017.087.022.166.112.21.086.017.193-.025.21-.111s-.025-.193-.112-.21m-1.234-.429s-.166.021-.21.111c-.017.087.021.166.111.21.087.017.166-.021.21-.111.017-.087-.025-.193-.111-.21m-1.235-.43s-.165.022-.21.112c-.017.086.022.165.112.21.086.017.165-.022.21-.112.017-.086-.022-.165-.112-.21m-1.234-.429s-.193.025-.21.112c-.017.086.021.165.111.21s.166-.022.214-.084c.017-.087-.022-.166-.112-.21zm-1.231-.402s-.166.022-.21.112c-.017.086.021.165.111.21s.166-.022.214-.084c.017-.086-.025-.193-.112-.21zm-1.262-.425s-.166.021-.214.084c-.017.086.025.193.112.21.086.016.165-.022.21-.112.016-.086-.022-.165-.112-.21zm-1.211-.461s-.165.022-.21.112.022.165.112.21.165-.022.213-.084c0 0-.021-.166-.111-.21zm-1.234-.429s-.166.021-.214.084a.22.22 0 0 0 .084.213c.086.017.193-.025.21-.111s-.021-.166-.111-.21zm-1.235-.429s-.165.021-.21.111a.22.22 0 0 0 .084.214c.086.017.193-.025.214-.084 0 0-.025-.193-.112-.21zm-1.238-.457s-.193.025-.214.084a.22.22 0 0 0 .084.213c.087.017.194-.025.21-.111a.22.22 0 0 0-.083-.214zm-1.21-.461s-.194.025-.214.084c-.017.087.025.193.111.21a.22.22 0 0 0 .214-.084s-.025-.193-.084-.213zm-1.238-.457s-.166.022-.211.112a.22.22 0 0 0 .084.214c.087.016.194-.026.21-.112a.22.22 0 0 0-.083-.214m-1.211-.46s-.166.021-.214.084c-.016.086.026.193.084.213.09.045.194-.025.214-.083 0 0-.022-.166-.084-.214m-1.238-.457s-.166.022-.214.084c-.017.086.022.166.112.21a.21.21 0 0 0 .213-.084s-.021-.165-.083-.213zm-1.211-.46s-.193.025-.213.083c-.045.09.021.166.084.214 0 0 .165-.021.213-.084 0 0-.025-.193-.084-.213m-1.214-.488s-.193.025-.213.083c-.045.09.021.166.084.214.09.044.165-.021.213-.084 0 0-.021-.165-.084-.213m-1.21-.461s-.166.022-.214.084a.22.22 0 0 0 .084.214c.09.044.166-.022.214-.084 0 0-.022-.166-.084-.214m-1.214-.488s-.193.025-.214.084c-.017.086.025.193.084.214.09.044.193-.026.214-.084 0 0-.022-.166-.084-.214m-1.214-.488s-.193.025-.214.084c-.044.09.022.165.084.213.09.045.193-.025.214-.083a.22.22 0 0 0-.084-.214m-1.218-.516s-.166.022-.214.084c-.044.09.026.193.084.214a.22.22 0 0 0 .214-.084s-.022-.166-.084-.214m-1.19-.519s-.166.022-.214.084c-.044.09.022.165.084.214.09.044.166-.022.214-.084 0 0-.022-.166-.084-.214m-1.218-.516s-.165.022-.213.084c-.045.09.021.166.084.214.09.044.165-.022.213-.084a.22.22 0 0 0-.084-.214m-1.19-.519s-.165.022-.213.084c-.045.09.021.166.084.214.09.044.165-.022.213-.084a.22.22 0 0 0-.084-.214m-1.19-.519s-.165.021-.213.084c-.045.09.021.165.083.213.09.045.17.007.214-.083a.22.22 0 0 0-.084-.214"/><path fill="#232826" d="M268.675 351.149s-.082.235-.15.356c7.632 3.445 18.191 7.38 31.434 11.669.133-.27.235-.564.365-.861l-.235-.082a12 12 0 0 1-.585-.177c-15.053-4.615-24.702-8.247-30.829-10.905"/><path fill="#232826" d="m299.891 363.49.098-.321-.055.007c-.044.09-.085.208-.13.298 0 0 .056-.008.059.02zM299.51 364.435s-.017-.138-.08-.186l-.133.27c.086.017.165-.021.21-.111zM329.01 372.254a631 631 0 0 0 20.152 4.544c-.284.402-.628.783-.924.877-7.345-1.236-13.787-2.646-20.014-3.916.253-.425.496-.934.786-1.505m-.01.787s-.025-.193-.111-.21c-.087-.017-.166.022-.183.108s.022.166.112.21c0 0 .165-.021.182-.108m1.276.312s-.025-.193-.112-.21c-.086-.017-.165.021-.21.111-.017.087.022.166.136.179.086.017.165-.021.182-.108zm1.272.284s-.026-.193-.112-.21-.166.021-.21.111c-.017.087.022.166.111.21.087.017.166-.021.183-.107zm1.271.284s-.025-.193-.111-.21c-.083.011-.166.022-.179.136-.017.086.021.165.108.182.086.017.165-.021.182-.108m1.3.281s-.025-.193-.139-.207c-.087-.017-.166.022-.179.136-.017.086.021.165.135.179.087.016.166-.022.183-.108m1.272.284s-.026-.193-.112-.21-.193.025-.21.111c-.017.087.022.166.111.21.087.017.166-.021.183-.108zm1.271.284s-.025-.193-.111-.21c-.083.011-.166.021-.207.139-.016.086.022.166.136.179.086.017.166-.022.182-.108m11.218 2.306s.021.166.135.179c.086.017.166-.021.182-.108 0 0-.025-.193-.139-.206-.086-.017-.193.025-.178.135m-1.296-.253s.021.166.135.179c.087.017.166-.021.183-.108 0 0-.025-.193-.112-.21-.083.011-.193.025-.179.136zm-1.269-.256s.022.165.136.179c.086.017.166-.022.182-.108 0 0-.021-.166-.135-.179-.086-.017-.166.021-.179.135zm-1.295-.253s.021.166.135.179c.087.017.166-.022.183-.108 0 0-.025-.193-.112-.21-.083.011-.193.025-.179.135zm-1.269-.257s.022.166.112.21c.083-.01.166-.021.182-.107.017-.087-.021-.166-.135-.179-.086-.017-.193.025-.179.135zm-1.271-.284s.021.166.135.179c.087.017.166-.021.183-.108 0 0-.025-.193-.139-.206-.087-.017-.166.021-.179.135m-1.296-.253s.021.166.135.179c.087.017.166-.021.183-.108.017-.086-.022-.165-.136-.179-.086-.016-.165.022-.179.136zm-1.272-.284s.022.166.112.21c.086.017.165-.021.182-.108 0 0-.025-.193-.139-.206-.087-.017-.166.021-.179.135zm-1.299-.28s.021.165.139.206c.086.017.165-.021.182-.108 0 0-.025-.193-.139-.206-.086-.017-.166.021-.21.111zM349.789 375.792l-.639-.17a1174 1174 0 0 1-19.399-5.006 24 24 0 0 1-.587 1.311 533 533 0 0 0 20.207 4.536c.261-.37.415-.699.415-.699z"/><path fill="#232826" d="M301.388 359.675c-.911 2.924-2.245 6.043-4.175 8.903l-.277-.188c5.724-8.431 6.126-19.371 6.116-19.454l.338.013s-.169 4.96-1.998 10.753zM268.756 349.179c-.578 1.815-1.331 3.792-2.323 5.661l-.301-.158c2.907-5.484 3.818-12.084 3.811-12.139l.314.044s-.396 2.997-1.528 6.596zM329.954 368.512c-.693 2.222-1.731 4.602-3.305 6.742l-.277-.189c4.567-6.316 4.654-14.718 4.644-14.8l.338.012s-.033 3.848-1.427 8.238z"/><path fill="#232826" d="M351.076 369.709c-60.996-32.054-83.827-28.701-90.797-25.749-.72.29-1.259.893-1.497 1.654a2.6 2.6 0 0 0 .287 2.208c4.032 6.409 20.821 22.221 89.189 30.868.169.007 1.578.048 2.87-4.048s.094-4.895-.055-4.96zm-2.748 8.439c-68.113-8.625-84.769-24.285-88.791-30.612a2.14 2.14 0 0 1-.226-1.738 2.1 2.1 0 0 1 1.178-1.304c6.89-2.914 29.531-6.214 90.29 25.731 0 0 .928.666-.228 4.295s-2.251 3.632-2.251 3.632z"/><path fill="url(#h)" d="M63.162 336.13c11.376 18 61.135 67.252 271.72 93.882 0 0 4.017.462 7.849-11.737 3.836-12.172.27-14.123.27-14.123-187.898-98.718-256.886-86.854-276.524-78.583-4.124 1.742-5.715 6.775-3.315 10.561"/><path fill="url(#i)" d="M96.099 320.312c-2.235 18.445-11.167 36.103-11.652 37.12-11.886-8.757-18.077-16.233-21.26-21.292-2.373-3.789-.782-8.822 3.314-10.56 5.51-2.313 14.855-4.9 29.598-5.268"/><path fill="#232826" d="M339.526 421.876s-1.922 4.43-3.751 5.257c-22.462-3.739-43.083-7.575-62.051-11.43 1.389-2.481 3.017-5.723 4.625-9.552a3681 3681 0 0 0 59.235 15.247zM192.444 369.29c-5.545 17.583-13.656 30.112-13.769 30.323l-.335-.209c.188-.277 18.396-28.398 18.75-59.59l.394.005c-.126 10.483-2.259 20.636-5.036 29.499zM92.427 338.494c-3.458 10.971-7.603 19.029-7.671 19.15l-.36-.178c.089-.18 9.388-18.25 11.7-37.182l.4.061c-.774 6.357-2.346 12.622-4.069 18.149M279.466 397.062c-4.206 13.425-10.719 22.912-10.815 23.037l-.339-.237c.14-.215 14.695-21.463 14.283-45.373l.394.005c.149 8.062-1.398 15.81-3.523 22.568"/><path fill="url(#j)" d="M88.332 354.93a160 160 0 0 0 3.464-8.335c18.791 8.115 48.24 19.198 94.16 33.282.585.176 1.2.377 1.784.554l.35.095a137 137 0 0 1-5.987 12.675c-.263-.078-.146-.037-.377-.091-.612-.174-1.228-.375-1.839-.548-45.532-13.684-73.935-26.867-91.583-37.629zm92.514 36.806s-.225.001-.269.091-.027.228.091.269c.09.045.228.027.269-.091l-.004-.027a.22.22 0 0 0-.115-.238zm.77-1.418s-.225.001-.269.09c-.045.09.001.225.091.269.093.072.224-.001.269-.091a.27.27 0 0 0-.088-.241zm.711-1.44s-.225.001-.269.091.001.225.091.269.224-.001.269-.091c0 0-.029-.221-.119-.265zm.707-1.467s-.224.001-.269.091c-.044.09.002.225.092.269s.224-.001.268-.091a.22.22 0 0 0-.115-.237zm.708-1.466s-.225.001-.269.091.001.224.091.268.224-.001.269-.091c0 0-.029-.22-.119-.265zm2.452-5.538s.221-.029.265-.119c.044-.089-.029-.22-.119-.265-.117-.041-.22.029-.265.119-.044.09.001.224.119.265m-.621 1.484s.22-.029.268-.091c0 0-.028-.221-.118-.266-.118-.04-.221.029-.265.119s.028.221.118.265zm-.649 1.487s.224-.001.269-.091c0 0-.029-.221-.119-.265-.118-.041-.221.028-.269.091a.22.22 0 0 0 .091.269zm-.68 1.463s.224-.001.269-.091c0 0-.029-.221-.119-.265a.22.22 0 0 0-.269.091.22.22 0 0 0 .091.269z"/><path fill="#232826" d="M191.423 364.88s.029.22.146.261c.114.014.221-.028.234-.142 0 0-.028-.221-.146-.262s-.221.029-.262.146zM187.882 375.636s.029.221.119.265c.118.041.221-.029.265-.118 0 0-.028-.221-.118-.266-.118-.041-.221.029-.266.119M190.98 366.426s.028.22.146.261c.09.045.221-.028.234-.142 0 0-.029-.221-.146-.262-.118-.041-.221.029-.262.146zM189.923 369.984s.029.221.146.262c.118.041.221-.029.265-.119.041-.117-.028-.221-.146-.261s-.221.028-.265.118M190.504 367.973s.028.22.146.261.221-.028.262-.146c.04-.117-.029-.221-.147-.262-.117-.04-.22.029-.265.119zM188.437 374.107s.029.22.119.265c.118.041.221-.029.265-.119.041-.117-.028-.221-.118-.265-.118-.041-.221.029-.266.119M187.32 377.14s.029.221.119.265c.117.041.22-.029.265-.119 0 0-.029-.22-.119-.265-.117-.041-.221.029-.265.119M178.236 396.052s-.026.228.064.272.228.027.272-.063c0 0-.029-.221-.091-.269-.09-.045-.228-.027-.272.063zM176.575 398.821s-.03.2.036.276c.093.072.228.026.276-.036l-.007-.055s.033-.173-.033-.248c-.093-.072-.227-.027-.275.035zM179.04 394.657s-.026.228.064.272.228.027.272-.063l-.007-.055s.002-.197-.088-.241c-.09-.045-.228-.027-.272.063zM186.725 378.618s.029.221.119.266c.117.04.221-.029.265-.119 0 0-.029-.221-.119-.265-.117-.041-.22.028-.265.118M179.837 393.235s-.026.228.063.273c.09.044.228.026.269-.091 0 0-.028-.221-.091-.269-.093-.072-.228-.027-.272.063zM177.411 397.448s-.027.228.063.273c.094.072.2.03.272-.064l-.003-.027a.26.26 0 0 0-.088-.241c-.093-.072-.228-.027-.272.063zM195.086 344.257s.084.213.198.227c.111-.015.193-.025.207-.139l-.008-.056c-.014-.11-.083-.213-.197-.227-.111.015-.214.084-.227.198zM194.964 345.872s.083.213.197.227c.083-.011.19-.053.207-.139-.018-.138-.088-.242-.202-.255-.11.014-.213.084-.226.198zM194.811 347.491s.084.214.171.231c.082-.011.193-.025.206-.139-.018-.138-.087-.241-.174-.258-.114-.014-.217.056-.23.17zM194.622 349.09s.056.217.17.23c.083-.01.193-.025.207-.139-.018-.138-.06-.244-.174-.258-.114-.013-.217.057-.231.171zM195.265 341.065s.084.213.194.199c.083-.011.19-.053.206-.139l-.007-.055c-.014-.111-.084-.214-.198-.227-.11.014-.213.084-.199.194zM195.304 339.431s.084.214.194.2a.26.26 0 0 0 .207-.139l-.007-.055c-.015-.111-.084-.214-.195-.2-.11.015-.213.084-.199.194M195.189 342.673s.084.213.198.227a.25.25 0 0 0 .206-.139l-.007-.056s-.056-.217-.17-.23c-.111.014-.214.084-.227.198M191.843 363.34s.029.22.147.261c.114.014.22-.028.234-.142 0 0-.029-.221-.147-.262-.114-.013-.22.029-.234.143M194.407 350.686s.056.217.17.231c.083-.011.193-.025.234-.143l-.004-.027c.014-.114-.056-.218-.17-.231s-.217.056-.23.17M193.322 357.027s.029.221.171.231c.114.013.22-.029.234-.143.013-.114-.029-.221-.143-.234s-.221.029-.234.143zM193.626 355.473s.029.221.17.231c.114.013.193-.025.234-.143 0 0-.032-.248-.174-.258-.114-.013-.22.029-.23.17M193.921 353.865s.056.217.17.23a.205.205 0 0 0 .234-.142s-.032-.249-.174-.258c-.114-.014-.22.028-.23.17M194.192 352.284s.057.218.171.231c.082-.011.193-.025.206-.139 0 0-.06-.245-.174-.258s-.217.056-.23.17zM192.25 361.769s.029.22.143.234c.114.013.221-.029.234-.143 0 0-.029-.221-.146-.262-.114-.013-.221.029-.234.143zM192.613 360.207s.028.221.142.234.221-.028.234-.142c0 0-.028-.221-.146-.262-.114-.013-.221.029-.234.143zM192.993 358.615s.029.221.143.234.221-.028.234-.142c0 0-.029-.221-.146-.262-.114-.013-.221.029-.234.143zM274.577 405.245l-.01-.082c.376.091.784.207 1.161.298.857.113-2.153 5.892-3.275 8.058-.363.664-.952 1.751-1.069 1.71-.664-.138-1.7-.341-2.333-.455-33.199-6.893-61.168-13.931-84.691-20.871 1.766-3.26 3.872-7.574 5.988-12.675 23.464 7.144 51.072 15.071 83.579 23.765.118.041.232.054.322.099 0 0-.028.003-.052.034-.044.09.029.221.119.266.117.04.22-.029.269-.091zm-4.343 8.477s-.224.001-.269.091c-.072.094-.026.228.064.273.09.044.228.026.268-.091 0 0-.028-.221-.091-.269zm.77-1.418s-.225.001-.269.091.001.224.091.268.228.027.269-.091a.27.27 0 0 0-.088-.241zm.739-1.443s-.225.001-.269.091.001.224.091.269a.22.22 0 0 0 .269-.091s-.029-.221-.119-.266zm.711-1.439s-.225.001-.269.091c-.045.089.001.224.091.268s.224-.001.269-.091c0 0-.029-.22-.091-.268m.707-1.467s-.224.001-.269.091a.22.22 0 0 0 .091.269c.09.044.225-.002.269-.091 0 0-.028-.221-.118-.266zm.68-1.464s-.224.001-.269.091c-.044.09.001.225.091.269s.225-.001.266-.118c.044-.09-.001-.225-.091-.269zM275.437 402.1s.029.221.119.265c.117.041.221-.029.265-.119 0 0-.029-.22-.119-.265-.09-.044-.22.029-.265.119M274.819 403.609s.029.22.119.265c.117.041.22-.029.265-.119 0 0-.029-.221-.119-.265-.117-.041-.221.029-.265.119M276.531 399.093s.029.221.119.265c.117.041.221-.029.265-.118.044-.09-.029-.221-.119-.266-.117-.041-.22.029-.265.119M275.994 400.596s.028.221.118.265c.118.041.221-.029.266-.118 0 0-.029-.221-.119-.266-.09-.044-.221.029-.265.119M277.063 397.539s.029.221.119.266c.117.041.22-.029.261-.147s-.028-.22-.118-.265c-.118-.041-.221.029-.266.119zM269.169 415.231s-.027.228.063.273c.09.044.228.026.272-.064 0 0-.028-.221-.091-.269-.09-.044-.228-.026-.268.091zM277.536 396.019s.028.22.146.261.221-.028.262-.146c.044-.09-.029-.221-.143-.234s-.221.029-.262.146zM267.532 417.998s-.027.228.063.272c.094.073.228.027.276-.035l.021-.059c.017-.086-.022-.166-.088-.241-.09-.045-.228-.027-.272.063M268.363 416.598s-.026.228.064.272c.093.072.228.027.272-.063l-.004-.028a.27.27 0 0 0-.087-.241c-.09-.044-.228-.026-.273.064zM266.647 419.345s-.057.204.036.276c.094.072.204.058.276-.036 0 0-.003-.027.021-.059a.22.22 0 0 0-.084-.213c-.094-.072-.228-.027-.304.039zM280.366 383.448s.056.217.17.23c.083-.01.193-.025.234-.142l-.004-.028c.014-.114-.056-.217-.17-.23s-.217.056-.23.17M280.549 381.821s.083.214.17.231c.11-.014.193-.025.206-.139l-.003-.028c.013-.114-.057-.217-.171-.23s-.217.056-.23.17zM280.708 380.23s.084.214.198.227c.11-.014.193-.025.206-.139l-.004-.028c-.014-.11-.083-.213-.197-.227-.111.015-.214.084-.227.198zM281.064 375.638s.084.214.194.199c.083-.011.162-.049.179-.135l-.007-.055c-.014-.111-.08-.186-.194-.2-.111.015-.214.084-.2.194zM280.123 385.019s.056.218.17.231c.083-.011.193-.025.234-.143 0 0-.06-.245-.174-.258s-.217.056-.23.17M279.552 388.21s.028.221.17.23c.083-.01.193-.025.234-.142 0 0-.032-.249-.174-.258-.114-.014-.221.028-.234.142zM278.84 391.361s.029.221.143.235.221-.029.234-.143c0 0-.029-.221-.146-.262-.114-.013-.221.029-.234.143zM279.22 389.77s.029.22.143.234c.114.013.22-.029.234-.143 0 0-.029-.221-.147-.262-.114-.013-.22.029-.234.143zM278.452 392.897s.029.22.143.234c.114.013.22-.029.234-.143 0 0-.029-.221-.147-.262-.09-.044-.22.029-.261.147zM278.008 394.47s.029.221.146.262c.114.013.221-.029.262-.146.041-.118-.029-.221-.146-.262-.114-.013-.221.029-.262.146M279.855 386.627s.029.221.17.23c.114.014.194-.025.234-.142 0 0-.059-.245-.173-.258s-.218.056-.231.17M190.574 374.37c-41.624-12.985-75.067-23.915-99.399-32.547l.147-.384c24.332 8.632 57.775 19.562 99.399 32.547l-.119.38zM342.209 419.876l-3.789-1.08a10271 10271 0 0 1-60.386-17.849l.119-.38c19.066 5.694 39.377 11.676 60.386 17.848l3.789 1.081zM282.734 379.924l-.15.356c-30.948-13.33-59.786-24.465-85.747-33.11l.119-.38c25.961 8.645 54.827 19.776 85.775 33.106zM191.308 372.672s-.029-.221-.146-.262c0 0-.221.029-.262.146 0 0 .029.221.146.262.118.041.221-.029.262-.146m-1.611-.521s-.029-.221-.146-.262c0 0-.221.029-.262.146 0 0 .029.221.146.262.118.041.221-.029.262-.146m-1.487-.425s-.028-.221-.146-.261c0 0-.221.028-.262.146 0 0 .029.22.147.261s.22-.028.261-.146m-1.552-.5s-.029-.221-.146-.262c0 0-.221.029-.262.146 0 0 .029.221.146.262.118.041.221-.029.262-.146m-1.521-.476s-.029-.221-.147-.262c0 0-.221.029-.261.146 0 0 .028.221.146.262s.221-.029.262-.146m-1.549-.473s-.029-.221-.147-.262c0 0-.22.029-.261.146 0 0 .028.221.146.262s.221-.029.262-.146m-1.553-.5s-.028-.221-.146-.262c0 0-.221.029-.262.146 0 0 .029.221.147.262s.22-.029.261-.146m-1.549-.473s-.028-.221-.146-.262c0 0-.221.029-.262.146 0 0 .029.221.147.262s.22-.029.261-.146m-1.521-.476s-.029-.221-.146-.262c0 0-.221.029-.262.146 0 0 .029.221.146.262.118.041.221-.029.262-.146m-1.552-.501s-.029-.22-.147-.261c0 0-.221.028-.261.146 0 0 .028.221.146.262.117.04.221-.029.262-.147m-1.549-.472s-.029-.221-.147-.262c0 0-.22.029-.261.146 0 0 .028.221.146.262s.221-.029.262-.146m-1.553-.501s-.028-.22-.146-.261c0 0-.221.028-.262.146 0 0 .029.221.147.262.117.04.22-.029.261-.147m-1.521-.476s-.029-.221-.146-.262c0 0-.221.029-.262.147 0 0 .029.22.146.261.118.041.221-.028.262-.146m-1.553-.5s-.028-.221-.146-.262c0 0-.221.029-.261.146 0 0 .028.221.146.262s.221-.029.261-.146m-1.548-.473s-.029-.221-.119-.265c0 0-.221.028-.262.146 0 0 .029.221.146.262.118.041.221-.029.262-.146zm-1.525-.504s-.029-.221-.147-.261c0 0-.22.028-.261.146 0 0 .028.221.146.261s.221-.028.262-.146m-1.549-.472s-.029-.221-.146-.262c0 0-.221.029-.262.146 0 0 .029.221.146.262.118.041.221-.029.262-.146m-1.553-.501s-.028-.221-.146-.261c0 0-.221.028-.262.146 0 0 .029.221.147.261 0 0 .22-.028.261-.146m-1.549-.472s-.028-.221-.118-.266c0 0-.221.029-.262.146 0 0 .029.221.119.266.117.041.221-.029.261-.146m-1.524-.504s-.029-.221-.147-.262c0 0-.221.029-.261.146 0 0 .028.221.146.262s.221-.029.262-.146m-1.553-.501s-.029-.22-.146-.261c0 0-.221.028-.262.146 0 0 .029.221.146.262.118.04.221-.029.262-.147m-1.521-.476s-.029-.221-.146-.262c0 0-.221.029-.262.147 0 0 .029.22.146.261.118.041.221-.028.262-.146m-1.553-.5s-.028-.221-.146-.262c0 0-.221.029-.262.146 0 0 .029.221.147.262s.22-.029.261-.146m-1.552-.5s-.029-.221-.146-.262c0 0-.221.028-.262.146 0 0 .029.221.146.262 0 0 .221-.029.265-.119zm-1.525-.504s-.029-.221-.146-.262c0 0-.221.029-.262.146 0 0 .029.221.146.262.118.041.221-.029.262-.146m-1.549-.473s-.029-.221-.146-.262c0 0-.221.029-.262.146 0 0 .029.221.146.262 0 0 .221-.028.262-.146m-1.552-.5s-.029-.221-.147-.262c0 0-.22.029-.261.146 0 0 .028.221.146.262s.221-.029.262-.146m-1.525-.504s-.029-.221-.147-.262c0 0-.22.029-.261.146 0 0 .028.221.146.262s.221-.029.262-.146m-1.553-.5s-.028-.221-.146-.262c0 0-.221.028-.262.146 0 0 .029.221.147.262 0 0 .22-.029.261-.146m-1.525-.504s-.028-.221-.146-.262c0 0-.221.029-.262.146 0 0 .029.221.147.262 0 0 .221-.029.265-.119zm-1.548-.473s-.029-.221-.147-.262c0 0-.221.029-.261.146 0 0 .028.221.146.262 0 0 .221-.029.262-.146m-1.525-.504s-.029-.221-.147-.262c0 0-.22.029-.261.147 0 0 .028.22.146.261s.221-.028.262-.146m-1.553-.5s-.029-.221-.146-.262c0 0-.221.029-.262.146 0 0 .029.221.147.262s.22-.029.261-.146m-1.525-.504s-.028-.221-.118-.265c0 0-.221.028-.262.146 0 0 .029.221.146.261.118.041.221-.028.265-.118zm-1.552-.5s-.029-.221-.119-.266c0 0-.221.029-.262.147 0 0 .029.22.147.261s.221-.028.265-.118zm-1.525-.504s-.029-.221-.146-.262c0 0-.221.029-.262.146 0 0 .029.221.146.262 0 0 .221-.029.262-.146m-1.553-.501s-.028-.22-.118-.265c0 0-.221.029-.265.119 0 0 .028.221.146.261 0 0 .221-.028.262-.146zm-1.524-.503s-.029-.221-.115-.238c0 0-.221.029-.266.118 0 0 .029.221.119.266 0 0 .221-.029.262-.146m-1.553-.501s-.029-.221-.119-.265c0 0-.22.029-.265.119 0 0 .029.22.146.261 0 0 .221-.028.262-.146zm-1.525-.504s-.028-.22-.118-.265c0 0-.221.029-.266.119 0 0 .029.221.119.265 0 0 .221-.029.262-.146zm-1.552-.5s-.029-.221-.119-.265c0 0-.221.028-.265.118 0 0 .029.221.146.262 0 0 .221-.029.262-.146zm-1.529-.531s-.028-.221-.118-.266c0 0-.221.029-.266.119 0 0 .029.221.147.262s.22-.029.261-.147zm-1.525-.504s-.028-.221-.118-.265c0 0-.221.028-.265.118 0 0 .028.221.146.262 0 0 .221-.029.265-.119zm-1.524-.504s-.029-.221-.147-.262c0 0-.22.029-.265.119 0 0 .029.221.146.261 0 0 .221-.028.266-.118m-1.553-.5s-.029-.221-.146-.262c0 0-.221.029-.265.119 0 0 .028.22.146.261 0 0 .221-.028.265-.118m-1.525-.504s-.028-.221-.146-.262c0 0-.221.029-.265.119 0 0 .028.22.118.265 0 0 .221-.029.266-.119zm-1.528-.532s-.029-.221-.146-.261c0 0-.221.028-.262.146 0 0 .029.221.119.265 0 0 .22-.029.265-.119zm-1.553-.5s-.028-.221-.146-.262c0 0-.221.029-.265.119 0 0 .028.221.118.265 0 0 .221-.029.266-.118zm-1.528-.532s-.029-.22-.146-.261c0 0-.221.028-.266.118 0 0 .029.221.119.266 0 0 .221-.029.265-.119zm-1.525-.503s-.029-.221-.146-.262c0 0-.221.029-.266.119 0 0 .029.22.119.265 0 0 .221-.029.265-.119zm-1.556-.528s-.029-.221-.146-.262c0 0-.221.029-.266.119 0 0 .029.22.119.265 0 0 .221-.029.265-.119zm-1.525-.504s-.029-.221-.146-.262c0 0-.221.029-.265.119 0 0 .028.221.118.265 0 0 .221-.029.265-.119zm-1.528-.532s-.029-.22-.147-.261c0 0-.22.028-.261.146 0 0 .028.221.118.265 0 0 .221-.028.266-.118zm-1.525-.503s-.029-.221-.119-.266c0 0-.221.029-.265.119 0 0 .029.221.118.265 0 0 .221-.029.266-.118m-1.529-.532s-.028-.221-.118-.265c0 0-.221.028-.266.118 0 0 .029.221.119.266 0 0 .221-.029.265-.119m-1.556-.528s-.028-.221-.118-.265c0 0-.221.029-.266.118 0 0 .029.221.119.266 0 0 .221-.029.265-.119m-1.528-.531s-.029-.221-.119-.266c0 0-.221.029-.265.119 0 0 .029.221.146.262 0 0 .221-.029.265-.119zm-1.525-.504s-.029-.221-.119-.265c0 0-.221.028-.265.118 0 0 .029.221.119.265 0 0 .22-.028.265-.118m-1.529-.532s-.028-.22-.146-.261c0 0-.221.028-.265.118 0 0 .029.221.146.262 0 0 .221-.029.265-.119m-1.528-.531s-.029-.221-.146-.262c0 0-.221.029-.266.119 0 0 .029.221.119.265 0 0 .221-.029.265-.119zm-1.528-.532s-.03-.22-.147-.261c0 0-.22.028-.265.118 0 0 .029.221.119.266 0 0 .22-.029.265-.119zm-1.529-.531s-.029-.221-.119-.265c0 0-.22.028-.265.118 0 0 .029.221.119.265 0 0 .22-.028.265-.118m-1.528-.532s-.03-.22-.12-.265c0 0-.22.029-.264.119 0 0 .028.221.118.265 0 0 .221-.029.266-.119m-1.505-.562s-.028-.221-.115-.238c0 0-.22.029-.265.119 0 0 .028.221.118.265 0 0 .221-.029.266-.119zm-1.528-.532s-.029-.22-.119-.265c0 0-.22.029-.265.119 0 0 .028.22.118.265 0 0 .221-.029.266-.119M342.276 418.013s-.028-.22-.146-.261c0 0-.221.028-.262.146 0 0 .029.221.147.261s.221-.028.234-.142zm-1.545-.445s-.029-.221-.146-.261c0 0-.221.028-.262.146 0 0 .029.221.143.234s.221-.029.262-.146zm-1.573-.441s-.028-.221-.146-.262c0 0-.221.029-.234.143 0 0 .029.22.143.234.117.041.22-.029.234-.143zm-1.549-.473s-.028-.221-.146-.262c0 0-.221.029-.234.143 0 0 .029.221.143.234.117.041.22-.029.261-.146zm-1.545-.445s-.029-.221-.146-.262c0 0-.221.029-.262.146 0 0 .029.221.143.234.117.041.221-.028.261-.146zm-1.545-.445s-.029-.221-.147-.262c0 0-.22.029-.261.146 0 0 .028.221.142.234s.221-.028.262-.146zm-1.577-.469s-.028-.221-.146-.262c0 0-.221.029-.262.146 0 0 .029.221.147.262.09.044.22-.029.234-.143zm-1.518-.449s-.028-.221-.146-.262c0 0-.221.029-.234.143 0 0 .029.221.146.262.118.04.221-.029.262-.147zm-1.572-.442s-.029-.22-.147-.261c0 0-.22.028-.261.146 0 0 .028.221.146.262s.221-.029.234-.143zm-1.549-.472s-.029-.221-.147-.262c0 0-.22.029-.261.146 0 0 .028.221.146.262 0 0 .221-.029.234-.143zm-1.546-.445s-.028-.221-.146-.262c0 0-.221.029-.234.143 0 0 .029.22.146.261.114.014.221-.028.262-.146zm-1.545-.445s-.029-.221-.146-.262c0 0-.221.029-.262.146 0 0 .029.221.146.262.09.044.221-.029.234-.143zm-1.549-.473s-.028-.221-.146-.262c0 0-.221.029-.234.143 0 0 .029.221.146.261.09.045.221-.028.234-.142m-1.545-.445s-.029-.221-.146-.262c0 0-.221.029-.234.143 0 0 .028.221.146.261 0 0 .221-.028.261-.146zm-1.549-.473s-.029-.221-.143-.234c0 0-.22.029-.261.146 0 0 .028.221.146.262.114.013.221-.029.262-.146zm-1.545-.445s-.029-.221-.147-.262c0 0-.22.029-.261.146 0 0 .028.221.142.235.118.04.221-.029.262-.147zm-1.546-.445s-.028-.221-.146-.262c0 0-.221.029-.234.143 0 0 .029.221.146.261.118.041.221-.028.262-.146zm-1.549-.473s-.028-.221-.146-.261c0 0-.221.028-.261.146 0 0 .028.22.146.261.114.014.221-.028.234-.142zm-1.545-.445s-.029-.221-.146-.262c0 0-.221.029-.262.147 0 0 .029.22.143.234 0 0 .221-.029.262-.147zm-1.545-.445s-.029-.221-.146-.262c0 0-.221.029-.262.146 0 0 .029.221.146.262.09.045.221-.028.234-.142zm-1.549-.473s-.029-.22-.146-.261c0 0-.221.028-.262.146 0 0 .029.221.143.234.117.041.221-.029.261-.146zm-1.545-.445s-.029-.221-.147-.261c0 0-.22.028-.234.142 0 0 .029.221.147.262s.22-.029.261-.146zm-1.549-.473s-.029-.22-.143-.234c0 0-.221.029-.262.147 0 0 .029.22.147.261.09.045.221-.028.234-.142zm-1.546-.445s-.028-.22-.146-.261c0 0-.221.028-.261.146 0 0 .028.221.146.262.117.04.221-.029.261-.147m-1.548-.472s-.029-.221-.147-.262c0 0-.22.029-.261.146 0 0 .028.221.146.262.09.044.221-.029.234-.143zm-1.546-.445s-.028-.221-.146-.262c0 0-.221.029-.262.146 0 0 .029.221.147.262.09.044.22-.029.234-.143zm-1.549-.473s-.028-.221-.146-.262c0 0-.221.029-.262.146 0 0 .029.221.143.234s.221-.028.262-.146zm-1.545-.445s-.029-.221-.146-.262c0 0-.221.029-.234.143 0 0 .028.221.146.261s.221-.028.262-.146zm-1.549-.473s-.028-.221-.146-.262c0 0-.221.029-.262.147 0 0 .029.22.143.234 0 0 .221-.029.262-.147zm-1.545-.445s-.029-.221-.146-.262c0 0-.221.029-.262.147 0 0 .029.22.143.234.117.04.22-.029.261-.147zm-1.577-.469s-.028-.221-.146-.262c0 0-.221.029-.234.143 0 0 .029.221.146.261 0 0 .221-.028.262-.146zm-1.545-.445s-.029-.221-.146-.262c0 0-.221.029-.262.146 0 0 .029.221.146.262.118.041.221-.029.262-.146m-1.549-.473s-.028-.221-.146-.262c0 0-.221.029-.262.147 0 0 .029.22.143.234.118.041.221-.029.262-.147zm-1.545-.445s-.029-.221-.146-.262c0 0-.221.029-.262.146 0 0 .029.221.143.235.117.04.22-.029.261-.147zm-1.549-.473s-.029-.221-.143-.234c0 0-.22.029-.261.146 0 0 .028.221.146.262.114.013.221-.029.262-.146zm-1.549-.472s-.029-.221-.146-.262c0 0-.221.029-.234.143 0 0 .028.22.146.261s.221-.028.262-.146zm-1.545-.446s-.029-.22-.146-.261c0 0-.221.028-.262.146 0 0 .029.221.146.262.118.041.221-.029.262-.147m-1.549-.472s-.029-.221-.146-.262c0 0-.221.029-.262.146 0 0 .029.221.146.262.118.041.221-.029.262-.146m-1.573-.442s-.029-.221-.146-.261c0 0-.221.028-.262.146 0 0 .029.221.146.261.118.041.221-.028.262-.146m-1.549-.472s-.029-.221-.146-.262c0 0-.221.029-.262.146 0 0 .029.221.146.262.118.041.221-.029.262-.146m-1.549-.473s-.028-.221-.146-.262c0 0-.221.029-.262.146 0 0 .029.221.147.262.09.045.22-.029.234-.143zm-1.545-.445s-.029-.221-.146-.262c0 0-.221.029-.262.146 0 0 .029.221.146.262.118.041.221-.029.262-.146M281.36 377.737s-.025-.193-.115-.238c0 0-.221.029-.266.119 0 0 .002.224.092.269 0 0 .22-.029.268-.091zm-1.484-.622s-.025-.193-.115-.237c0 0-.221.028-.266.118 0 0 .029.221.119.266 0 0 .221-.029.269-.091zm-1.512-.617s-.029-.221-.115-.238c0 0-.224.001-.269.091 0 0 .029.221.091.269 0 0 .221-.029.266-.119zm-1.487-.649s-.026-.194-.115-.238c0 0-.221.029-.266.118 0 0 .029.221.119.266 0 0 .221-.029.269-.091zm-1.484-.622s-.029-.221-.115-.238c0 0-.221.029-.269.091 0 0 .001.225.091.269 0 0 .221-.028.265-.118zm-1.488-.649s-.029-.221-.115-.238c0 0-.221.029-.269.091 0 0 .001.225.091.269 0 0 .221-.028.265-.118zm-1.484-.621s-.029-.221-.115-.238c0 0-.221.029-.265.119 0 0 .028.22.118.265 0 0 .221-.029.266-.119zm-1.512-.618s-.028-.221-.115-.238c0 0-.22.029-.269.091 0 0 .029.221.119.265 0 0 .225-.001.269-.091zm-1.484-.622s-.025-.193-.115-.237c0 0-.22.028-.265.118 0 0 .029.221.119.266 0 0 .221-.029.265-.119zm-1.487-.649s-.029-.22-.115-.237c0 0-.221.028-.266.118 0 0 .029.221.119.266 0 0 .221-.029.269-.091zm-1.484-.621s-.025-.193-.115-.238c0 0-.221.029-.266.119 0 0 .029.221.119.265 0 0 .221-.028.265-.118zm-1.512-.618s-.025-.193-.115-.237c0 0-.221.028-.265.118 0 0 .029.221.091.269 0 0 .221-.029.265-.119zm-1.484-.621s-.025-.193-.115-.238c0 0-.221.029-.265.119 0 0 .029.22.119.265 0 0 .22-.029.265-.119zm-1.508-.591s-.025-.193-.115-.237c0 0-.221.028-.265.118 0 0 .029.221.118.266 0 0 .221-.029.266-.119zm-1.484-.621s-.025-.193-.115-.238c0 0-.221.029-.265.119 0 0 .029.221.118.265 0 0 .221-.028.266-.118zm-1.511-.618s-.026-.193-.116-.237c0 0-.22.028-.265.118 0 0 .029.221.119.265 0 0 .221-.028.265-.118zm-1.481-.594s-.029-.22-.115-.237c0 0-.221.028-.265.118 0 0 .028.221.118.266 0 0 .221-.029.266-.119zm-1.511-.617s-.029-.221-.116-.238c0 0-.22.029-.265.119 0 0 .029.22.119.265 0 0 .221-.029.265-.119zm-1.512-.618s-.029-.221-.115-.238c0 0-.221.029-.265.119 0 0 .028.22.118.265 0 0 .221-.029.266-.119zm-1.48-.594s-.029-.221-.116-.238c0 0-.22.029-.265.119 0 0 .029.221.119.265 0 0 .221-.029.265-.118zm-1.509-.59s-.028-.221-.118-.266c0 0-.221.029-.265.119 0 0 .028.221.118.265 0 0 .221-.028.265-.118m-1.511-.618s-.029-.221-.115-.238c0 0-.221.029-.265.119 0 0 .028.221.118.265 0 0 .221-.029.265-.119zm-1.481-.594s-.028-.221-.115-.238c0 0-.22.029-.265.119 0 0 .029.221.119.265 0 0 .221-.028.265-.118zm-1.535-.587s-.029-.22-.115-.237c0 0-.221.028-.265.118 0 0 .028.221.118.266 0 0 .221-.029.265-.119zm-1.481-.593s-.028-.221-.118-.266c0 0-.221.029-.265.119 0 0 .028.221.118.265 0 0 .221-.028.265-.118m-1.508-.591s-.028-.22-.115-.237c0 0-.22.028-.265.118 0 0 .029.221.119.265 0 0 .221-.028.265-.118zm-1.508-.59s-.028-.221-.118-.265c0 0-.221.028-.266.118 0 0 .029.221.119.266 0 0 .221-.029.265-.119m-1.508-.59s-.028-.221-.115-.238c0 0-.221.029-.265.119 0 0 .029.221.119.265 0 0 .221-.029.265-.119zm-1.508-.59s-.028-.221-.115-.238c0 0-.221.029-.265.119 0 0 .029.22.119.265 0 0 .22-.029.265-.119zm-1.508-.591s-.028-.22-.118-.265c0 0-.221.029-.266.119 0 0 .029.22.119.265 0 0 .221-.029.265-.119m-1.532-.559s-.028-.22-.115-.237c0 0-.221.028-.265.118 0 0 .029.221.119.265 0 0 .22-.028.265-.118zm-1.508-.59s-.028-.221-.118-.265c0 0-.221.028-.266.118 0 0 .029.221.119.266 0 0 .221-.029.265-.119m-1.504-.563s-.029-.22-.119-.265c0 0-.221.029-.265.119 0 0 .029.221.119.265 0 0 .22-.029.265-.119m-1.508-.59s-.029-.221-.115-.237c0 0-.221.028-.265.118 0 0 .028.221.118.265 0 0 .221-.028.265-.118zm-1.505-.562s-.028-.221-.118-.266c0 0-.221.029-.266.119 0 0 .029.221.119.265 0 0 .221-.029.265-.118m-1.535-.587s-.029-.221-.119-.265c0 0-.221.028-.265.118 0 0 .029.221.119.265 0 0 .22-.028.265-.118m-1.505-.563s-.028-.221-.115-.237c0 0-.221.028-.265.118 0 0 .029.221.119.265 0 0 .22-.028.265-.118zm-1.532-.559s-.028-.221-.118-.265c0 0-.221.029-.266.119 0 0 .029.22.119.265 0 0 .221-.029.265-.119m-1.504-.562s-.029-.221-.119-.266c0 0-.221.029-.265.119 0 0 .029.221.119.265 0 0 .22-.029.265-.118m-1.532-.56s-.029-.22-.119-.265c0 0-.221.029-.265.119 0 0 .029.221.119.265 0 0 .22-.029.265-.119m-1.501-.535s-.029-.22-.119-.265c0 0-.22.029-.265.119 0 0 .029.221.119.265 0 0 .221-.029.265-.119m-1.532-.559s-.029-.22-.119-.265c0 0-.221.029-.265.119 0 0 .029.22.119.265 0 0 .221-.029.265-.119m-1.504-.562s-.029-.221-.119-.266c0 0-.221.029-.265.119 0 0 .028.221.118.265 0 0 .221-.028.266-.118m-1.533-.559s-.028-.221-.118-.266c0 0-.221.029-.265.119 0 0 .028.221.118.265 0 0 .221-.028.265-.118m-1.528-.532s-.029-.221-.119-.265c0 0-.22.029-.265.119 0 0 .029.22.119.265 0 0 .221-.029.265-.119m-1.532-.559s-.029-.221-.115-.238c0 0-.221.029-.265.119 0 0 .028.221.118.265 0 0 .221-.028.266-.118zm-1.501-.535s-.029-.221-.119-.265c0 0-.22.028-.265.118 0 0 .029.221.119.266 0 0 .221-.029.265-.119m-1.528-.531s-.029-.221-.119-.266c0 0-.221.029-.265.119 0 0 .028.221.118.265 0 0 .221-.028.266-.118m-1.529-.532s-.028-.221-.118-.265c0 0-.221.029-.266.118 0 0 .029.221.119.266 0 0 .221-.029.265-.119m-1.528-.531s-.029-.221-.119-.266c0 0-.221.029-.265.119 0 0 .029.221.119.265 0 0 .22-.028.265-.118m-1.529-.532s-.028-.221-.118-.265c0 0-.221.029-.262.146 0 0 .029.221.119.265 0 0 .22-.028.265-.118zm-1.528-.531s-.029-.221-.146-.262c0 0-.221.029-.262.146 0 0 .029.221.119.266 0 0 .22-.029.265-.119zm-1.529-.532s-.028-.221-.146-.261c0 0-.221.028-.261.146 0 0 .028.221.118.265 0 0 .221-.029.265-.119zm-1.552-.5s-.029-.221-.146-.262c0 0-.221.029-.266.119 0 0 .029.221.119.265 0 0 .221-.028.265-.118zm-1.528-.531s-.029-.221-.147-.262c0 0-.221.028-.265.118 0 0 .029.221.119.266 0 0 .22-.029.265-.119zm-1.525-.504s-.029-.221-.147-.262c0 0-.22.029-.265.119 0 0 .029.22.119.265 0 0 .221-.029.265-.119zM89.922 340.139s.029.22.146.261c.118.041.221-.028.262-.146.04-.117-.029-.221-.119-.265-.117-.041-.22.029-.265.119zM89.421 341.662s.03.221.12.266c.09.044.22-.029.264-.119 0 0-.028-.221-.146-.262s-.22.029-.265.119zM90.652 338.841a.194.194 0 1 1-.051-.386.194.194 0 0 1 .05.386M90.926 337.034s.028.221.146.262.22-.029.261-.147c.014-.113-.028-.22-.146-.261s-.22.028-.234.142zM84.578 353.63s.001.224.091.269c.09.044.225-.001.269-.091 0 0-.029-.221-.091-.269-.09-.045-.224.001-.269.091M83.156 356.533s0 .225.09.269.229.027.273-.063l-.004-.028a.27.27 0 0 0-.087-.241c-.09-.045-.224.001-.269.091zM88.327 344.693s.028.22.118.265c.09.044.221-.029.266-.119 0 0-.03-.221-.119-.265-.118-.041-.22.029-.265.119M83.864 355.094s.001.224.091.268.225-.001.27-.091c0 0-.03-.22-.092-.268-.09-.045-.224.001-.269.091M91.37 335.49s.028.221.146.262c.09.044.22-.029.234-.143 0 0-.03-.221-.147-.262-.117-.04-.22.029-.261.147zM88.89 343.191s.028.22.118.265c.118.041.22-.029.265-.119 0 0-.029-.221-.118-.265-.118-.041-.221.029-.266.119M93.328 327.658s.03.221.143.234c.114.014.22-.028.234-.142 0 0-.032-.249-.174-.258-.114-.014-.22.028-.234.142zM93.632 326.106s.028.221.17.23c.114.014.193-.025.234-.142 0 0-.032-.249-.174-.258-.114-.014-.22.028-.23.17M92.969 329.251s.029.221.143.234.22-.028.234-.142c0 0-.029-.221-.147-.262-.114-.013-.22.029-.234.142zM92.612 330.811s.028.22.142.234c.114.013.221-.029.234-.143 0 0-.028-.221-.146-.262-.114-.013-.22.029-.234.143zM94.412 321.317s.056.218.17.231c.083-.011.194-.025.207-.139 0 0-.06-.245-.174-.258-.11.014-.217.056-.23.17zM93.923 324.496s.056.217.17.23a.205.205 0 0 0 .234-.143s-.06-.244-.174-.258c-.114-.013-.22.029-.23.171M94.197 322.915s.056.217.17.23.194-.025.234-.143c.014-.114-.056-.217-.17-.23s-.217.056-.23.17zM91.815 333.945s.029.221.146.262c.114.013.221-.029.234-.143 0 0-.028-.221-.146-.261-.114-.014-.22.028-.262.146zM92.23 332.374s.029.221.143.234c.117.041.22-.028.234-.142 0 0-.029-.221-.146-.262-.118-.041-.221.029-.234.143z"/><path fill="url(#k)" d="M73.6 338.044c3.675 1.937 8.288 4.173 14.065 6.736.567.263 1.131.498 1.699.761.604.118-1.101 3.623-1.722 5.106-.475 1.1-1.041 3.222-1.377 3.013a41 41 0 0 1-1.776-1.145c-6.282-4.068-10.967-7.726-14.493-10.889-3.351-2.68-8.011-8.305-6.35-10.429.796-1.001-.092 1.892 9.95 6.82zm11.898 14.032s-.225.001-.269.091c-.04.117.029.221.091.269.09.044.225-.001.269-.091 0 0-.029-.221-.119-.266zm.676-1.491s-.224.001-.269.091c-.044.09.001.224.091.269.09.044.225-.001.27-.091 0 0-.03-.221-.12-.265zm.621-1.483s-.224.001-.265.118c-.04.118.029.221.119.265s.224-.001.265-.118c0 0-.029-.221-.119-.265m.618-1.512s-.221.029-.265.119c-.041.117.028.221.118.265.118.041.221-.029.265-.118.041-.118-.028-.221-.118-.266m.59-1.507s-.221.028-.266.118c-.04.118.03.221.12.265.117.041.22-.028.264-.118 0 0-.028-.221-.118-.265"/><path fill="url(#l)" d="M299.103 415.139a.382.382 0 0 1-.128.746c-4.367-.135-11.589.661-11.936 7.272q-.035.384.014.756c.404 8.731 15.285 16.988 15.285 16.988l-9.865-3.351-32.915-11.195s-2.321-13.112-10.754-19.483c-.964-.717-.401-2.222.794-2.096 9.045.932 27.931 3.507 49.533 10.359z"/><path fill="url(#m)" d="M226.992 430.183c4.345 6.873 23.378 25.706 103.843 35.872 0 0 1.537.166 3.01-4.487s.112-5.403.112-5.403c-71.81-37.725-98.19-33.182-105.67-30.051-1.571.652-2.19 2.585-1.271 4.037z"/><path fill="#232826" d="M334.064 455.928c-71.175-37.386-97.78-33.488-105.921-30.047-.823.359-1.466 1.032-1.717 1.906a2.96 2.96 0 0 0 .33 2.54c4.704 7.472 24.277 25.926 104.058 36.013.173.033 1.806.074 3.292-4.693s.135-5.658-.042-5.719m-3.183 9.842c-79.526-10.064-98.964-28.339-103.633-35.76a2.49 2.49 0 0 1-.269-2.07 2.5 2.5 0 0 1 1.398-1.556c8.061-3.403 34.476-7.248 105.413 30.028 0 0 1.112.782-.241 5.055s-2.7 4.279-2.7 4.279z"/><path fill="#232826" d="M236.998 433.776c.231.054-.318 1.444-.553 2.008-.171.415-1.144 2.645-1.265 2.577-.211-.113-1.416-.967-1.6-1.084-2.389-1.542-4.394-4.228-4.785-5.076.792.262 1.499.087 1.781-.118.302-.264.383-.724.408-1.176 1.416.743 3.184 1.608 5.36 2.589.208.085.419.198.654.28M274.886 447.183c-.812 1.958-1.722 3.591-2.376 4.826-.086-.017-1.196 2.457-1.431 2.375-17.407-5.236-28.515-11.457-35.281-15.575.844-1.064 1.645-3.329 2.146-4.656 7.168 3.111 18.435 7.319 35.978 12.734.235.082.466.136.674.221l.263.079zM308.226 456.667c.342.04-.832 2.241-1.256 3.081-.133.27-1.434 2.572-1.71 2.607-.259-.05-24.221-5.194-33.21-7.845 1.443-2.068 2.726-5.153 3.542-7.083 8.972 2.738 19.523 5.748 31.939 9.077.232.055.467.136.698.19zM332.622 462.953s-1.349 3.01-2.524 2.825c-8.579-1.441-16.342-2.006-23.606-3.478.94-1.188 2.132-3.897 2.753-5.381a1458 1458 0 0 0 22.647 5.82l.754.183zM309.109 455.005a2748 2748 0 0 1-33.429-10.175l.078-.263a2765 2765 0 0 0 33.429 10.176zM277.26 439.497l-.078.263c-15.85-5.13-28.775-8.702-38.454-10.618l.047-.287c9.679 1.916 22.631 5.485 38.481 10.614zM334.434 457.67l-.133.27c-7.997-3.874-16.377-7.895-23.431-10.994l.106-.266c7.054 3.099 15.434 7.12 23.434 11.021zM309.503 454.144s-.022-.166-.108-.183c0 0-.166.022-.183.108 0 0 .022.166.108.182.087.017.166-.021.183-.107m-1.083-.337s-.021-.166-.107-.183c0 0-.166.022-.183.108 0 0 .022.166.108.183s.166-.022.182-.108m-1.109-.333s-.022-.166-.108-.183c0 0-.166.022-.183.108 0 0 .022.166.108.182.087.017.166-.021.183-.107m-1.107-.306s-.021-.166-.107-.182c0 0-.166.021-.183.107 0 0 .022.166.108.183s.166-.022.182-.108m-1.082-.337s-.021-.165-.108-.182c0 0-.165.021-.182.108 0 0 .021.165.108.182.086.017.165-.021.182-.108m-1.109-.333s-.022-.166-.108-.182c0 0-.166.021-.183.107 0 0 .022.166.108.183s.166-.022.183-.108m-1.083-.337s-.021-.165-.108-.182c0 0-.165.021-.182.108 0 0 .021.165.108.182.086.017.165-.021.182-.108m-1.109-.333s-.022-.166-.108-.182c0 0-.166.021-.183.107 0 0 .022.166.108.183 0 0 .166-.022.183-.108m-1.11-.333s-.022-.166-.108-.183c0 0-.166.022-.183.108 0 0 .018.138.108.183s.166-.022.183-.108m-1.079-.309s-.021-.166-.108-.183c0 0-.138.018-.182.108 0 0 .021.166.108.182.086.017.165-.021.182-.107m-1.11-.334s-.021-.165-.108-.182c0 0-.165.021-.182.108 0 0 .022.165.108.182s.166-.021.182-.108m-1.082-.336s-.021-.166-.108-.183c0 0-.165.022-.182.108 0 0 .018.138.108.182.09.045.165-.021.182-.107m-1.11-.334s-.021-.165-.107-.182c0 0-.166.021-.183.108 0 0 .022.165.108.182s.166-.021.182-.108m-1.109-.333s-.022-.165-.108-.182c0 0-.166.021-.183.108 0 0 .022.165.108.182.087.017.166-.021.183-.108m-1.083-.337s-.021-.165-.107-.182c0 0-.166.021-.183.108 0 0 .022.165.108.182 0 0 .166-.021.182-.108m-1.109-.333s-.022-.165-.108-.182c0 0-.166.021-.183.108 0 0 .022.165.108.182.087.017.166-.021.183-.108m-1.082-.337s-.022-.165-.108-.182c0 0-.166.021-.183.108 0 0 .022.165.108.182s.166-.021.183-.108m-1.11-.333s-.022-.165-.108-.182c0 0-.166.021-.183.108 0 0 .022.165.108.182.087.017.166-.021.183-.108m-1.082-.337s-.022-.165-.108-.182c0 0-.166.021-.183.108 0 0 .022.165.108.182 0 0 .166-.021.183-.108m-1.11-.333s-.022-.165-.108-.182c0 0-.166.021-.183.108 0 0 .022.165.108.182.087.017.166-.021.183-.108m-1.082-.337s-.022-.165-.108-.182c0 0-.166.021-.183.108 0 0 .018.138.108.182.09.045.166-.021.186-.08zm-1.11-.333s-.022-.165-.108-.182c0 0-.166.021-.183.108 0 0 .022.165.108.182.087.017.166-.021.183-.108m-1.082-.337s-.022-.165-.108-.182c0 0-.166.021-.183.108 0 0 .022.165.108.182 0 0 .166-.021.183-.108m-1.11-.333s-.022-.165-.108-.182c0 0-.166.021-.182.108 0 0 .021.165.107.182.087.017.166-.021.183-.108m-1.082-.337s-.022-.165-.108-.182c0 0-.166.021-.183.108 0 0 .022.165.108.182.087.017.166-.021.183-.108m-1.11-.333s-.022-.165-.108-.182c0 0-.166.021-.182.108 0 0 .021.165.107.182.087.017.166-.021.183-.108m-1.082-.337s-.022-.165-.108-.182c0 0-.166.021-.183.108 0 0 .022.165.108.182.087.017.166-.021.183-.108m-1.11-.333s-.022-.165-.108-.182c0 0-.166.021-.182.108 0 0 .021.165.108.182.086.017.165-.021.182-.108m-1.082-.337s-.022-.165-.108-.182c0 0-.166.021-.183.108 0 0 .022.165.108.182.087.017.166-.021.183-.108m-1.086-.364s-.021-.165-.108-.182c0 0-.165.021-.182.107 0 0 .021.166.108.183.086.017.165-.022.182-.108m-1.11-.333s-.021-.166-.108-.183c0 0-.165.022-.182.108 0 0 .021.166.108.183 0 0 .165-.022.182-.108M277.366 438.812s-.018-.138-.108-.183c0 0-.165.022-.186.081 0 0 .022.165.081.186 0 0 .165-.022.182-.108zm-1.085-.364s-.022-.166-.108-.183c0 0-.166.022-.183.108 0 0 .022.165.108.182.059.021.166-.021.183-.107m-1.083-.337s-.021-.166-.107-.183c0 0-.166.022-.183.108 0 0 .022.166.108.183 0 0 .166-.022.182-.108m-1.113-.361s-.021-.166-.108-.183c0 0-.165.022-.186.081 0 0 .022.165.08.186s.166-.022.183-.108zm-1.082-.337s-.022-.165-.108-.182c0 0-.166.021-.182.108 0 0 .021.165.107.182.087.017.166-.022.183-.108m-1.082-.337s-.022-.165-.108-.182c0 0-.166.021-.183.108 0 0 .022.165.108.182.087.017.166-.021.183-.108m-1.114-.36s-.021-.166-.108-.183c0 0-.165.022-.182.108 0 0 .022.165.108.182s.165-.021.182-.107m-1.082-.337s-.021-.166-.108-.183c0 0-.165.022-.182.108 0 0 .021.166.108.183.086.016.165-.022.182-.108m-1.11-.333s-.021-.166-.108-.183c0 0-.165.022-.182.108 0 0 .022.166.108.182 0 0 .166-.021.186-.08zm-1.082-.337s-.021-.166-.108-.183c0 0-.165.022-.182.108 0 0 .021.166.108.183.086.016.165-.022.182-.108m-1.11-.333s-.021-.166-.107-.183c0 0-.166.022-.183.108 0 0 .022.165.108.182s.166-.021.182-.107m-1.082-.337s-.021-.166-.108-.183c0 0-.165.022-.182.108 0 0 .021.166.108.183.086.016.165-.022.182-.108m-1.106-.306s-.021-.165-.108-.182c0 0-.165.021-.182.108 0 0 .021.165.108.182.086.017.165-.021.182-.108m-1.11-.333s-.021-.166-.108-.183c0 0-.165.022-.182.108 0 0 .021.166.108.183.086.017.165-.022.182-.108m-1.082-.337s-.021-.165-.108-.182c0 0-.165.021-.182.108 0 0 .021.165.108.182.058.02.165-.022.182-.108m-1.106-.305s-.022-.166-.108-.183c0 0-.166.022-.182.108 0 0 .021.166.107.182.059.021.138-.018.183-.107m-1.11-.334s-.021-.165-.108-.182c0 0-.165.021-.182.108 0 0 .021.165.108.182 0 0 .138-.018.182-.108m-1.106-.305s-.022-.166-.108-.183c0 0-.166.022-.182.108 0 0 .021.166.107.183.059.02.166-.022.183-.108m-1.106-.306s-.022-.166-.108-.182c0 0-.166.021-.183.107 0 0 .022.166.108.183.087.017.166-.022.183-.108m-1.107-.306s-.021-.165-.107-.182c0 0-.166.021-.183.108 0 0 .022.165.108.182s.166-.021.182-.108m-1.078-.309s-.022-.165-.108-.182c0 0-.166.021-.182.108 0 0 .021.165.107.182.083-.011.166-.021.183-.108m-1.134-.302s-.021-.165-.108-.182c0 0-.165.021-.182.108 0 0 .021.165.108.182.082-.011.165-.021.182-.108m-1.103-.278s-.021-.165-.107-.182c0 0-.166.021-.183.108 0 0 .022.165.108.182s.166-.021.182-.108m-1.106-.305s-.021-.166-.108-.183c0 0-.165.022-.182.108 0 0 .021.166.108.182.083-.01.138-.017.155-.104zm-1.102-.278s-.022-.166-.108-.183c0 0-.166.022-.183.108 0 0 .022.166.108.182.083-.01.166-.021.183-.107m-1.107-.306s-.021-.166-.107-.182c0 0-.166.021-.183.107 0 0 .022.166.108.183s.166-.022.182-.108m-1.13-.274s-.021-.166-.108-.183c0 0-.165.022-.182.108 0 0 .021.166.108.182.083-.01.138-.017.155-.104zm-1.102-.278s-.022-.166-.108-.183c0 0-.166.022-.183.108 0 0 .022.166.108.182.087.017.166-.021.183-.107m-1.099-.251s-.022-.165-.108-.182c0 0-.166.021-.183.108 0 0 .022.165.108.182.083-.011.138-.018.155-.104zm-1.131-.274s-.021-.166-.107-.183c0 0-.166.022-.183.108 0 0 .022.166.108.183 0 0 .138-.018.155-.105zm-1.13-.275s-.021-.165-.108-.182c0 0-.165.021-.155.104 0 0 .022.166.108.183q.13.025.155-.105m-1.099-.25s-.021-.166-.108-.183c0 0-.165.022-.182.108 0 0 .021.166.108.183.083-.011.138-.018.155-.105zm-1.123-.219s-.021-.166-.108-.183c0 0-.165.022-.182.108 0 0 .021.166.108.183.083-.011.138-.018.155-.105zm-1.126-.247s-.022-.166-.108-.183c0 0-.138.018-.155.105 0 0 .021.165.108.182 0 0 .138-.018.155-.104m-1.127-.247s-.022-.166-.108-.182c0 0-.166.021-.155.104 0 0 .022.165.108.182.055-.007.138-.018.155-.104M333.869 456.792s-.018-.138-.076-.158c0 0-.17-.007-.19.052 0 0 .018.138.08.186 0 0 .138-.018.19-.052zm-1.02-.513s-.018-.138-.077-.159c0 0-.169-.006-.19.053 0 0 .018.138.08.186 0 0 .17.006.19-.052zm-1.049-.51s-.018-.138-.077-.158c0 0-.165.021-.189.053 0 0 .021.165.052.189 0 0 .17.006.19-.052zm-1.021-.513s-.018-.138-.077-.158c0 0-.138.018-.186.08 0 0 .018.138.053.19 0 0 .166-.022.186-.081zm-1.021-.513s-.018-.138-.076-.158c0 0-.138.018-.19.052 0 0 .021.166.08.186 0 0 .138-.017.186-.08m-1.045-.482s-.018-.138-.076-.158c0 0-.17-.006-.19.053 0 0 .022.165.08.186 0 0 .166-.022.19-.053zm-1.02-.513s-.018-.138-.077-.158c0 0-.166.021-.19.052 0 0 .022.166.053.19 0 0 .165-.021.19-.053zm-1.049-.509s-.018-.138-.077-.159c0 0-.165.022-.189.053 0 0 .021.165.08.186 0 0 .166-.022.19-.053zm-1.017-.486s-.018-.138-.077-.158c0 0-.166.021-.19.052 0 0 .022.166.053.19 0 0 .166-.021.186-.08zm-1.049-.509s-.018-.138-.08-.186c0 0-.166.021-.19.052 0 0 .022.166.053.19 0 0 .166-.022.19-.053zm-1.017-.486s-.018-.138-.077-.158c0 0-.138.018-.189.052 0 0 .018.138.052.19 0 0 .138-.018.19-.053zm-1.048-.509s-.018-.138-.077-.159c0 0-.169-.006-.19.053 0 0 .018.138.081.186 0 0 .137-.018.189-.053zm-1.045-.482s-.018-.138-.077-.159c0 0-.169-.006-.19.053 0 0 .022.166.081.186 0 0 .138-.018.189-.053zm-1.018-.486s-.018-.138-.08-.186c0 0-.166.022-.186.08 0 0 .022.166.08.186 0 0 .166-.021.19-.052zm-1.048-.509s-.018-.138-.08-.186c0 0-.166.021-.186.08 0 0 .021.166.08.186 0 0 .165-.022.186-.08m-1.045-.482s-.018-.138-.077-.159c0 0-.138.018-.186.081 0 0 .022.165.053.189 0 0 .166-.021.186-.08zm-1.017-.486s-.018-.138-.081-.186c0 0-.165.022-.186.08 0 0 .018.138.081.187 0 0 .165-.022.186-.081m-1.045-.482s-.018-.138-.08-.186c0 0-.166.022-.187.081 0 0 .022.165.081.186 0 0 .165-.022.186-.081m-1.045-.482s-.018-.138-.08-.186c0 0-.166.022-.186.081 0 0 .021.165.08.186 0 0 .166-.022.186-.081m-1.045-.481s-.018-.138-.08-.187c0 0-.166.022-.186.081 0 0-.006.169.08.186 0 0 .166-.022.186-.08m-1.041-.455s-.018-.138-.081-.186c0 0-.165.022-.186.08 0 0 .022.166.081.186 0 0 .165-.021.186-.08m-1.045-.482s-.018-.138-.08-.186c0 0-.166.022-.186.08 0 0 .021.166.08.186 0 0 .165-.021.189-.052zm-1.045-.482s-.018-.138-.08-.186c0 0-.166.022-.186.081 0 0 .021.165.08.186 0 0 .166-.022.186-.081"/><path fill="#232826" d="M276.46 442.854c-2.128 6.73-5.236 11.538-5.284 11.601l-.246-.165s7.01-10.842 7.149-22.73l.276-.036c-.035 4.046-.848 7.939-1.923 11.334zM238.246 431.087c-1.305 4.21-2.899 7.278-2.919 7.337l-.242-.137s3.583-6.974 4.47-14.189l.287.047c-.303 2.425-.888 4.83-1.568 6.938zM309.723 453.467c-1.604 5.146-4.107 8.782-4.131 8.813l-.246-.165s5.615-8.192 5.44-17.317l.276-.035c.066 3.106-.527 6.101-1.343 8.676z"/><path fill="#232826" d="m302.447 440.663-.27.512c-.637-.366-15.923-8.936-15.415-17.981.371-6.868 7.813-7.692 12.236-7.564 0 0 .083-.011.076-.066s-.011-.083-.07-.103c-21.457-6.816-40.204-9.408-49.474-10.339-.483-.049-.782.242-.884.536-.103.294-.1.742.301 1.027 8.43 6.343 10.845 19.528 10.887 19.635l-.58.075s-2.4-13.074-10.643-19.274a1.48 1.48 0 0 1-.502-1.702 1.37 1.37 0 0 1 1.484-.894c9.27.931 28.076 3.543 49.591 10.379.322.099.503.412.463.754a.666.666 0 0 1-.656.562c-4.199-.129-11.313.625-11.662 7.012-.469 8.704 14.969 17.366 15.122 17.459z"/><path fill="#232826" d="m276.187 430.821-.276.036c-.018-.138-1.129-13.014-3.168-22.457l.275-.036c2.037 9.416 3.151 22.319 3.169 22.457M277.222 431.196l-.008-.055s-.073-.131-.156-.12c0 0-.13.073-.12.155 0 0 .074.131.156.12a.15.15 0 0 0 .128-.1m-.12-1.135-.007-.055s-.073-.131-.156-.12c0 0-.131.073-.12.155 0 0 .073.131.156.121a.15.15 0 0 0 .127-.101m-.123-1.163-.007-.055s-.073-.131-.156-.12c0 0-.131.073-.12.156 0 0 .073.131.156.12a.15.15 0 0 0 .127-.101m-.091-1.138-.008-.055s-.073-.131-.156-.12c0 0-.13.073-.12.155 0 0 .074.131.156.12a.15.15 0 0 0 .128-.1m-.147-1.132-.008-.055s-.073-.131-.155-.12c0 0-.131.073-.12.156 0 0 .073.131.155.12a.15.15 0 0 0 .128-.101m-.12-1.134-.007-.056s-.073-.13-.156-.12c0 0-.131.073-.12.156 0 0 .073.131.156.12a.15.15 0 0 0 .127-.1m-.119-1.135-.007-.056s-.073-.13-.156-.12c0 0-.131.073-.12.156 0 0 .073.131.156.12a.15.15 0 0 0 .127-.1m-.151-1.159-.007-.056s-.073-.13-.156-.12c0 0-.13.073-.12.156 0 0 .073.131.156.12a.15.15 0 0 0 .127-.1m-.147-1.132-.007-.055s-.073-.131-.156-.12c0 0-.13.073-.12.156 0 0 .074.131.156.12a.15.15 0 0 0 .127-.101m-.119-1.135-.007-.055s-.073-.131-.156-.12c0 0-.131.073-.12.156 0 0 .073.131.156.12a.15.15 0 0 0 .127-.101m-.174-1.127-.008-.056s-.073-.13-.155-.12c0 0-.131.073-.12.156 0 0 .073.131.155.12a.15.15 0 0 0 .128-.1m-.151-1.159-.007-.056s-.073-.13-.156-.12c0 0-.131.073-.12.156 0 0 .073.131.156.12a.15.15 0 0 0 .127-.1m-.174-1.128-.008-.055s-.073-.131-.155-.12c0 0-.131.073-.12.155 0 0 .073.131.155.12a.15.15 0 0 0 .128-.1m-.147-1.132-.007-.055s-.101-.127-.156-.12c0 0-.131.073-.12.156 0 0 .073.131.155.12a.15.15 0 0 0 .128-.101m-.202-1.124-.008-.055s-.1-.127-.155-.12c0 0-.131.073-.12.156 0 0 .073.131.155.12a.15.15 0 0 0 .128-.101m-.179-1.155-.007-.055s-.073-.131-.156-.12c0 0-.13.073-.12.155 0 0 .074.131.156.121a.15.15 0 0 0 .127-.101m-.202-1.124-.007-.056s-.1-.127-.156-.12c0 0-.13.073-.12.156 0 0 .101.127.156.12s.107-.042.1-.097zm-.202-1.125-.007-.055s-.073-.131-.156-.12c0 0-.127.101-.12.156 0 0 .101.127.156.12s.107-.042.1-.097zm-.202-1.124-.011-.083s-.1-.127-.155-.12c0 0-.128.101-.12.156 0 0 .1.127.155.12.056-.007.107-.042.1-.097zm-.23-1.12-.01-.083s-.101-.127-.184-.117c0 0-.127.101-.12.156 0 0 .101.127.184.117.055-.007.079-.039.099-.097z"/><path fill="#232826" d="M275.083 422.295s-9.96-3.003-13.342-3.322c-3.267-.306-3.614 1.563-3.631 1.649l-.286-.047s.414-2.214 3.937-1.885c3.408.316 13.31 3.298 13.4 3.342z"/><path fill="#232826" d="M274.588 423.004s-.022-.165-.108-.182c0 0-.166.021-.183.108 0 0 .022.165.108.182.083-.011.166-.021.183-.108m-1.11-.333s-.022-.165-.108-.182c0 0-.166.021-.182.108 0 0 .018.138.108.182.089.044.165-.021.182-.108m-1.106-.305s-.022-.166-.108-.183c0 0-.166.022-.183.108 0 0 .022.166.108.182.059.021.138-.017.183-.107m-1.106-.306s-.022-.166-.108-.183c0 0-.166.022-.183.108 0 0 .022.166.108.183.083-.011.166-.022.183-.108m-1.107-.306s-.021-.165-.108-.182c0 0-.165.021-.182.108 0 0 .021.165.108.182.059.021.165-.021.182-.108m-1.106-.305s-.021-.166-.108-.183c0 0-.165.022-.182.108 0 0 .021.166.108.183.082-.011.165-.022.182-.108m-1.102-.278s-.022-.166-.108-.183c0 0-.166.022-.183.108 0 0 .022.166.108.183 0 0 .138-.018.183-.108m-1.134-.302s-.022-.166-.108-.183c0 0-.166.022-.183.108 0 0 .022.166.108.183.059.02.138-.018.155-.105zm-1.099-.251s-.022-.165-.108-.182c0 0-.166.021-.183.108 0 0 .022.165.108.182.083-.011.138-.018.155-.104zm-1.127-.247s-.021-.165-.108-.182c0 0-.138.018-.155.104 0 0 .022.166.108.183.055-.007.138-.018.155-.105m-1.123-.219s-.022-.165-.108-.182c0 0-.166.021-.182.108 0 0 .021.165.104.155s.138-.018.155-.105zm-1.144-.16s-.049-.162-.135-.179c0 0-.134.045-.151.132 0 0 .045.134.132.151.055-.007.138-.018.154-.104m-1.153-.019-.007-.055s-.073-.131-.156-.12c0 0-.131.073-.12.156 0 0 .073.13.156.12a.15.15 0 0 0 .127-.101m-1.121.229-.01-.082s-.101-.128-.18-.089c0 0-.128.1-.089.18 0 0 .101.127.18.089.055-.008.075-.066.099-.098m-.963.574-.018-.137s-.149-.065-.197-.003c0 0-.065.149-.003.197 0 0 .149.065.197.002l.048-.062zm-.576.973s-.021-.165-.108-.182c0 0-.165.021-.151.132 0 0 .022.165.104.154.083-.01.138-.017.155-.104M287.758 421.128s-.018-.138-.08-.186c0 0-.166.021-.186.08 0 0 .021.165.08.186 0 0 .166-.022.186-.08m-1.069-.451s-.018-.138-.08-.186c0 0-.166.021-.186.08 0 0 .018.138.08.186 0 0 .166-.021.186-.08m-1.062-.396s-.021-.165-.08-.186c0 0-.166.022-.186.081 0 0 .022.165.08.186 0 0 .166-.022.186-.081m-1.085-.364s-.022-.166-.108-.182c0 0-.166.021-.183.107 0 0 .022.166.108.183 0 0 .166-.022.183-.108m-1.083-.337s-.021-.165-.107-.182c0 0-.166.021-.183.108 0 0 .022.165.108.182s.166-.021.182-.108m-1.109-.333s-.022-.166-.108-.182c0 0-.166.021-.183.107 0 0 .022.166.108.183.087.017.166-.022.183-.108m-1.11-.333s-.022-.166-.108-.183c0 0-.138.018-.182.108 0 0 .021.166.107.183.059.02.138-.018.183-.108m-1.106-.306s-.022-.165-.108-.182c0 0-.166.021-.183.108 0 0 .022.165.108.182.083-.011.166-.021.183-.108m-1.107-.305s-.021-.166-.107-.183c0 0-.166.022-.183.108 0 0 .022.166.108.183.059.02.138-.018.186-.081zm-1.106-.306s-.021-.165-.108-.182c0 0-.165.021-.182.107 0 0 .021.166.108.183.083-.011.138-.018.155-.104zm-1.102-.278s-.022-.165-.108-.182c0 0-.166.021-.183.107 0 0 .022.166.108.183.083-.011.138-.018.155-.104zM287.893 419.986l-.106.267c-.595-.26-2.338-.932-5.173-1.799-3.678-1.095-8.293-2.265-8.32-2.261l.074-.29s4.67 1.162 8.348 2.257c2.835.867 4.578 1.539 5.201 1.795zM193.898 361.886c-27.193-8.274-47.949-19.212-46.362-24.429 1.588-5.218 24.919-2.74 52.112 5.534s47.95 19.212 46.362 24.43-24.919 2.739-52.112-5.535"/><path fill="#A34023" d="M189.809 358.693c-25.449-7.174-44.879-17.246-43.4-22.495 1.48-5.25 23.31-3.688 48.759 3.486s44.879 17.247 43.399 22.496-23.309 3.688-48.758-3.487"/><path fill="#CB5F32" d="M190.179 357.68c-24.886-7.016-43.912-16.78-42.494-21.807s22.741-3.415 47.627 3.601c24.887 7.017 43.912 16.78 42.495 21.808s-22.741 3.415-47.628-3.602"/><path stroke="#232826" stroke-miterlimit="10" stroke-width=".76" d="M189.812 358.692c-25.449-7.174-44.88-17.246-43.4-22.495s23.31-3.688 48.759 3.487c25.449 7.174 44.879 17.246 43.399 22.495s-23.31 3.688-48.758-3.487Z"/><path stroke="#232826" stroke-miterlimit="10" stroke-width=".76" d="M190.182 357.679c-24.886-7.016-43.912-16.78-42.494-21.807s22.741-3.415 47.627 3.602 43.912 16.779 42.495 21.807-22.741 3.415-47.628-3.602Z"/><mask id="n" width="279" height="140" x="65" y="225" maskUnits="userSpaceOnUse" style="mask-type:luminance"><path fill="#fff" d="M147.703 335.898c-1.422 5.039 17.613 14.807 42.492 21.825 24.88 7.017 46.195 8.632 47.617 3.592.889-3.09 113.396-61.26 104.804-98.874-17.54-76.894-263.87-9.932-273.511-12.639-24.88-7.018 80.024 81.084 78.598 86.096"/></mask><g mask="url(#n)"><g clip-path="url(#o)"><path fill="url(#p)" d="M181.255 290.941c-.349-.371-.864-.639-1.613-.731a6 6 0 0 0-1.605.043c-.029-.031-.635.043-1.454.159-1.777.25-4.41.674-4.548.692l9.587 10.204c.138-.018 2.771-.441 4.548-.691.8-.114 1.397-.186 1.448-.164l.002.01c1.681-.238 2.675.094 3.232.687l-9.587-10.205z"/><path fill="url(#q)" d="m202.494 265.268 9.587 10.204-3.295 13.238-9.588-10.204z"/><path fill="url(#r)" d="m217.35 263.163 9.592 10.204-3.362 13.508-9.587-10.205z"/><path fill="url(#s)" d="m196.996 288.145 9.587 10.204-4.086 16.416-9.587-10.205z"/><path fill="url(#t)" d="m213.485 288.825 9.587 10.205c-2.229-2.369-7.606-2.017-11.878-1.409-1.867.266-3.525.578-4.615.734l-9.587-10.205c1.09-.156 2.748-.468 4.614-.734 4.273-.607 9.65-.96 11.879 1.409"/><mask id="u" width="28" height="14" x="196" y="286" maskUnits="userSpaceOnUse" style="mask-type:luminance"><path fill="#fff" d="m213.488 288.829 9.587 10.205c-2.229-2.369-7.606-2.017-11.879-1.409-1.866.266-3.524.578-4.614.734l-9.587-10.205c1.09-.156 2.747-.468 4.614-.734 4.273-.607 9.65-.96 11.879 1.409"/></mask><g mask="url(#u)"><path fill="url(#v)" d="m213.488 288.829 9.587 10.205c-2.229-2.369-7.606-2.017-11.879-1.409-1.866.266-3.524.578-4.614.734l-9.587-10.205c1.09-.156 2.747-.468 4.614-.734 4.273-.607 9.65-.96 11.879 1.409"/></g><path fill="url(#w)" d="m190.844 312.844 9.587 10.205-4.507 18.1-9.587-10.205z"/><path fill="url(#x)" d="M175.443 341.943c-1.926.259-3.884.503-5.889.787l-10.751 1.52 9.587 10.205 10.751-1.525q1.5-.209 2.975-.4a301 301 0 0 0 2.913-.387l-9.587-10.205z"/><path fill="url(#y)" d="m228.785 279.942 9.587 10.205c1.633 1.738 2.334 4.262 1.788 7.82-1.071 7.027-5.137 11.726-10.525 14.835l-9.587-10.205c5.393-3.105 9.454-7.808 10.525-14.834.551-3.559-.155-6.082-1.788-7.821"/><mask id="z" width="21" height="34" x="220" y="279" maskUnits="userSpaceOnUse" style="mask-type:luminance"><path fill="#fff" d="m228.787 279.939 9.587 10.205c1.633 1.738 2.334 4.262 1.788 7.82-1.071 7.027-5.137 11.726-10.525 14.835l-9.587-10.205c5.393-3.105 9.454-7.807 10.525-14.834.551-3.559-.155-6.082-1.788-7.821"/></mask><g mask="url(#z)"><path fill="url(#A)" d="m228.789 279.941 9.587 10.205c1.633 1.738 2.334 4.262 1.788 7.82-1.071 7.027-5.137 11.726-10.525 14.835l-9.587-10.205c5.393-3.105 9.454-7.807 10.525-14.834.551-3.559-.155-6.082-1.788-7.821"/></g><path fill="url(#B)" d="m210.88 313.56 9.587 10.205c-2.629-2.798-9.324-2.318-14.582-1.573-2.211.311-4.163.671-5.458.858l-9.587-10.205c1.296-.182 3.253-.543 5.458-.858 5.258-.744 11.958-1.225 14.582 1.573"/><mask id="C" width="31" height="13" x="190" y="311" maskUnits="userSpaceOnUse" style="mask-type:luminance"><path fill="#fff" d="m210.88 313.561 9.587 10.205c-2.629-2.798-9.324-2.318-14.582-1.573-2.211.311-4.163.67-5.458.858l-9.587-10.205c1.296-.182 3.253-.543 5.458-.858 5.258-.745 11.958-1.225 14.582 1.573"/></mask><g mask="url(#C)"><path fill="url(#D)" d="m210.88 313.562 9.587 10.205c-2.629-2.798-9.324-2.318-14.582-1.573-2.211.311-4.163.67-5.458.858l-9.587-10.205c1.296-.182 3.253-.543 5.458-.858 5.258-.745 11.958-1.225 14.582 1.573"/></g><path fill="url(#E)" d="m190.252 340.041 9.587 10.205q-.2.025-.4.057c-2.015.285-4.07.557-6.185.816l-9.587-10.204a334 334 0 0 0 6.585-.874"/><mask id="F" width="17" height="12" x="183" y="340" maskUnits="userSpaceOnUse" style="mask-type:luminance"><path fill="#fff" d="m190.26 340.041 9.587 10.205q-.2.025-.4.057c-2.015.285-4.07.557-6.186.816l-9.587-10.204c2.116-.26 4.171-.531 6.186-.817q.2-.024.4-.057"/></mask><g mask="url(#F)"><path fill="url(#G)" d="m190.261 340.04 9.587 10.205a332.844 332.844 0 0 1-6.586.873l-9.587-10.204c2.116-.26 4.171-.531 6.186-.817q.2-.024.4-.057"/></g><path fill="url(#H)" d="m183.663 340.916 9.587 10.205-3.361 13.517-9.587-10.204z"/><path fill="url(#I)" d="m180.304 354.433 9.587 10.204-8.251 1.167-9.587-10.205z"/><path fill="url(#J)" d="m198.558 338.692 9.587 10.205-3.399 13.634-9.587-10.204z"/><path fill="url(#K)" d="m195.16 352.328 9.587 10.205-8.259 1.172-9.587-10.204z"/><path fill="url(#L)" d="m227.129 305.444 9.587 10.204c2.206 2.348 2.634 6.275.539 12.479-4.442 13.153-15.03 18.014-29.108 20.77l-9.587-10.204c14.082-2.762 24.671-7.623 29.108-20.771 2.095-6.204 1.662-10.13-.539-12.478"/><mask id="M" width="41" height="44" x="198" y="305" maskUnits="userSpaceOnUse" style="mask-type:luminance"><path fill="#fff" d="m227.128 305.443 9.587 10.204c2.206 2.348 2.634 6.275.539 12.479-4.442 13.153-15.03 18.014-29.108 20.77l-9.587-10.204c14.082-2.762 24.671-7.623 29.108-20.771 2.095-6.204 1.663-10.13-.539-12.478"/></mask><g mask="url(#M)"><path fill="url(#N)" d="m227.129 305.443 9.587 10.204c2.206 2.348 2.634 6.275.539 12.479-4.442 13.153-15.03 18.014-29.108 20.77l-9.587-10.204c14.082-2.762 24.671-7.623 29.108-20.771 2.095-6.204 1.662-10.13-.539-12.478"/></g><path fill="url(#O)" d="M220.047 302.597c7.416.771 11.195 4.734 7.619 15.325-4.442 13.154-15.031 18.014-29.109 20.771l-3.399 13.639-8.26 1.168 3.35-13.454q-.2.026-.4.057c-2.015.285-4.07.557-6.185.816l-3.362 13.518-8.25 1.167 3.392-13.658c-1.926.26-3.883.504-5.889.788l-10.75 1.525 4.083-10.052c.134-.017 2.706-.341 4.488-.596.89-.125 1.551-.23 1.523-.256 2.339-.332 3.377-2.091 3.785-3.163l5.381-21.613 3.826-15.388c.1-1.623-.51-3.402-3.854-2.935.043-.039-.587.038-1.454.16-1.777.25-4.41.673-4.548.691l2.187-8.782 11.394-1.608c1.706-.201 3.469-.483 5.269-.775l3.354-13.502 8.255-1.168-3.296 13.238c2.219-.355 4.443-.712 6.62-1.018l3.272-13.162 8.26-1.168-3.363 13.509c10.432-.581 18.065 1.49 16.586 11.092-1.071 7.026-5.137 11.725-10.525 14.834m-29.601 27.805c7.35-1.04 19.231-3.454 21.301-11.789 2.037-8.185-8.107-7.66-15.452-6.621-2.21.311-4.162.671-5.457.858l-4.507 18.1c.519-.072 1.145-.148 1.846-.239.687-.089 1.445-.188 2.265-.304m6.548-42.263-4.086 16.415c.881-.124 2.111-.259 3.544-.464 6.13-.868 15.936-2.944 17.814-10.478 1.845-7.423-6.541-7.073-12.657-6.207-1.867.266-3.524.578-4.615.734"/></g><path stroke="#B9AC94" stroke-miterlimit="10" stroke-width="2.216" d="M210.421 370.617c-32.482 4.211-62.235-18.705-66.455-51.185s18.69-62.223 51.172-66.434 62.234 18.705 66.455 51.185-18.691 62.223-51.172 66.434Z"/><path fill="#B9AC94" d="M226.273 264.902c19.507 11.052 30.925 33.703 28.182 56.002 5.67-22.229-7.012-47.27-28.182-56.002M150.751 318.559c-1.038-17.713 5.974-35.234 18.873-47.401-14.901 10.154-22.703 29.798-18.873 47.401"/><path fill="url(#P)" d="M210.421 370.617c-32.482 4.211-62.235-18.705-66.455-51.185s18.69-62.223 51.172-66.434 62.234 18.705 66.455 51.185-18.691 62.223-51.172 66.434"/><path fill="url(#Q)" d="M154.459 291.365c6.574-15.502 20.473-27.547 38.263-31.032a52 52 0 0 1 15.825-.677"/><path fill="url(#R)" d="M212.828 363.259c-18.476 3.602-36.591-2.974-48.532-15.823Z"/></g><path fill="#fff" d="m112.489 405.806 115.15 42.316-114.567-43.879zM119.532 403.381l62.636 22.634-62.049-24.17z"/></g><defs><linearGradient id="c" x1="346.296" x2="843.16" y1="374.529" y2="514.587" gradientUnits="userSpaceOnUse"><stop stop-color="#E4735D"/><stop offset="1" stop-color="#7E4033" stop-opacity="0"/></linearGradient><linearGradient id="d" x1="330.096" x2="826.959" y1="460.017" y2="600.074" gradientUnits="userSpaceOnUse"><stop stop-color="#E4735D"/><stop offset="1" stop-color="#7E4033" stop-opacity="0"/></linearGradient><linearGradient id="e" x1="332.9" x2="829.764" y1="415.567" y2="555.625" gradientUnits="userSpaceOnUse"><stop stop-color="#E4735D"/><stop offset="1" stop-color="#7E4033" stop-opacity="0"/></linearGradient><linearGradient id="f" x1="311.503" x2="262.707" y1="373.154" y2="379.493" gradientUnits="userSpaceOnUse"><stop offset=".04" stop-color="#BEF5EB"/><stop offset=".08" stop-color="#C7D3E1"/><stop offset=".47" stop-color="#ED4F35"/><stop offset="1" stop-color="#BEF5EB"/></linearGradient><linearGradient id="g" x1="349.347" x2="261.526" y1="355.141" y2="366.551" gradientUnits="userSpaceOnUse"><stop offset=".04" stop-color="#BEF5EB"/><stop offset=".08" stop-color="#C7D3E1"/><stop offset=".47" stop-color="#ED4F35"/><stop offset="1" stop-color="#BEF5EB"/></linearGradient><linearGradient id="h" x1="338.133" x2="69.972" y1="358.901" y2="393.737" gradientUnits="userSpaceOnUse"><stop offset=".04" stop-color="#BEF5EB"/><stop offset=".12" stop-color="#8FE6EF"/><stop offset=".22" stop-color="#5CD7F4"/><stop offset=".31" stop-color="#34CBF8"/><stop offset=".4" stop-color="#17C3FB"/><stop offset=".47" stop-color="#06BDFD"/><stop offset=".52" stop-color="#00BCFE"/><stop offset=".72" stop-color="#0F85D4"/><stop offset="1" stop-color="#263495"/></linearGradient><linearGradient id="i" x1="98.332" x2="63.254" y1="337.504" y2="342.061" gradientUnits="userSpaceOnUse"><stop offset=".04" stop-color="#BEF5EB"/><stop offset=".08" stop-color="#C7D3E1"/><stop offset=".47" stop-color="#ED4F35"/><stop offset="1" stop-color="#BEF5EB"/></linearGradient><linearGradient id="j" x1="142.179" x2="158.437" y1="398.377" y2="350.281" gradientUnits="userSpaceOnUse"><stop/><stop offset=".625" stop-opacity="0"/></linearGradient><linearGradient id="k" x1="78.419" x2="75.157" y1="354.699" y2="329.54" gradientUnits="userSpaceOnUse"><stop/><stop offset="1" stop-opacity="0"/></linearGradient><linearGradient id="l" x1="299.923" x2="250.907" y1="419.719" y2="426.087" gradientUnits="userSpaceOnUse"><stop offset=".04" stop-color="#BEF5EB"/><stop offset=".08" stop-color="#C7D3E1"/><stop offset=".47" stop-color="#ED4F35"/><stop offset="1" stop-color="#BEF5EB"/></linearGradient><linearGradient id="m" x1="332.078" x2="229.601" y1="438.897" y2="452.211" gradientUnits="userSpaceOnUse"><stop offset=".04" stop-color="#BEF5EB"/><stop offset=".08" stop-color="#C7D3E1"/><stop offset=".47" stop-color="#ED4F35"/><stop offset="1" stop-color="#BEF5EB"/></linearGradient><linearGradient id="p" x1="172.116" x2="190.749" y1="295.886" y2="295.553" gradientUnits="userSpaceOnUse"><stop offset=".04" stop-color="#EDE6E5"/><stop offset=".1" stop-color="#EDD2C4"/><stop offset=".21" stop-color="#EDB491"/><stop offset=".3" stop-color="#ED9C69"/><stop offset=".39" stop-color="#ED8B4C"/><stop offset=".47" stop-color="#ED803B"/><stop offset=".52" stop-color="#ED7D35"/><stop offset="1" stop-color="#ED4F35"/></linearGradient><linearGradient id="q" x1="199.177" x2="212.106" y1="277.103" y2="276.872" gradientUnits="userSpaceOnUse"><stop offset=".04" stop-color="#EDE6E5"/><stop offset=".1" stop-color="#EDD2C4"/><stop offset=".21" stop-color="#EDB491"/><stop offset=".3" stop-color="#ED9C69"/><stop offset=".39" stop-color="#ED8B4C"/><stop offset=".47" stop-color="#ED803B"/><stop offset=".52" stop-color="#ED7D35"/><stop offset="1" stop-color="#ED4F35"/></linearGradient><linearGradient id="r" x1="213.966" x2="226.971" y1="275.131" y2="274.899" gradientUnits="userSpaceOnUse"><stop offset=".04" stop-color="#EDE6E5"/><stop offset=".1" stop-color="#EDD2C4"/><stop offset=".21" stop-color="#EDB491"/><stop offset=".3" stop-color="#ED9C69"/><stop offset=".39" stop-color="#ED8B4C"/><stop offset=".47" stop-color="#ED803B"/><stop offset=".52" stop-color="#ED7D35"/><stop offset="1" stop-color="#ED4F35"/></linearGradient><linearGradient id="s" x1="192.858" x2="206.638" y1="301.573" y2="301.327" gradientUnits="userSpaceOnUse"><stop offset=".04" stop-color="#EDE6E5"/><stop offset=".1" stop-color="#EDD2C4"/><stop offset=".21" stop-color="#EDB491"/><stop offset=".3" stop-color="#ED9C69"/><stop offset=".39" stop-color="#ED8B4C"/><stop offset=".47" stop-color="#ED803B"/><stop offset=".52" stop-color="#ED7D35"/><stop offset="1" stop-color="#ED4F35"/></linearGradient><linearGradient id="t" x1="197.088" x2="222.966" y1="293.311" y2="292.849" gradientUnits="userSpaceOnUse"><stop offset=".04" stop-color="#EDE6E5"/><stop offset=".1" stop-color="#EDD2C4"/><stop offset=".21" stop-color="#EDB491"/><stop offset=".3" stop-color="#ED9C69"/><stop offset=".39" stop-color="#ED8B4C"/><stop offset=".47" stop-color="#ED803B"/><stop offset=".52" stop-color="#ED7D35"/><stop offset="1" stop-color="#ED4F35"/></linearGradient><linearGradient id="v" x1="197.091" x2="222.969" y1="293.315" y2="292.853" gradientUnits="userSpaceOnUse"><stop offset=".04" stop-color="#EDE6E5"/><stop offset=".1" stop-color="#EDD2C4"/><stop offset=".21" stop-color="#EDB491"/><stop offset=".3" stop-color="#ED9C69"/><stop offset=".39" stop-color="#ED8B4C"/><stop offset=".47" stop-color="#ED803B"/><stop offset=".52" stop-color="#ED7D35"/><stop offset="1" stop-color="#ED4F35"/></linearGradient><linearGradient id="w" x1="186.271" x2="200.503" y1="327.118" y2="326.864" gradientUnits="userSpaceOnUse"><stop offset=".04" stop-color="#EDE6E5"/><stop offset=".1" stop-color="#EDD2C4"/><stop offset=".21" stop-color="#EDB491"/><stop offset=".3" stop-color="#ED9C69"/><stop offset=".39" stop-color="#ED8B4C"/><stop offset=".47" stop-color="#ED803B"/><stop offset=".52" stop-color="#ED7D35"/><stop offset="1" stop-color="#ED4F35"/></linearGradient><linearGradient id="x" x1="158.878" x2="184.957" y1="348.428" y2="347.963" gradientUnits="userSpaceOnUse"><stop offset=".04" stop-color="#EDE6E5"/><stop offset=".1" stop-color="#EDD2C4"/><stop offset=".21" stop-color="#EDB491"/><stop offset=".3" stop-color="#ED9C69"/><stop offset=".39" stop-color="#ED8B4C"/><stop offset=".47" stop-color="#ED803B"/><stop offset=".52" stop-color="#ED7D35"/><stop offset="1" stop-color="#ED4F35"/></linearGradient><linearGradient id="y" x1="219.942" x2="240.36" y1="296.53" y2="296.166" gradientUnits="userSpaceOnUse"><stop offset=".04" stop-color="#EDE6E5"/><stop offset=".1" stop-color="#EDD2C4"/><stop offset=".21" stop-color="#EDB491"/><stop offset=".3" stop-color="#ED9C69"/><stop offset=".39" stop-color="#ED8B4C"/><stop offset=".47" stop-color="#ED803B"/><stop offset=".52" stop-color="#ED7D35"/><stop offset="1" stop-color="#ED4F35"/></linearGradient><linearGradient id="A" x1="225.179" x2="245.597" y1="296.438" y2="296.073" gradientUnits="userSpaceOnUse"><stop offset=".04" stop-color="#EDE6E5"/><stop offset=".1" stop-color="#EDD2C4"/><stop offset=".21" stop-color="#EDB491"/><stop offset=".3" stop-color="#ED9C69"/><stop offset=".39" stop-color="#ED8B4C"/><stop offset=".47" stop-color="#ED803B"/><stop offset=".52" stop-color="#ED7D35"/><stop offset="1" stop-color="#ED4F35"/></linearGradient><linearGradient id="B" x1="190.934" x2="220.361" y1="317.954" y2="317.429" gradientUnits="userSpaceOnUse"><stop offset=".04" stop-color="#EDE6E5"/><stop offset=".1" stop-color="#EDD2C4"/><stop offset=".21" stop-color="#EDB491"/><stop offset=".3" stop-color="#ED9C69"/><stop offset=".39" stop-color="#ED8B4C"/><stop offset=".47" stop-color="#ED803B"/><stop offset=".52" stop-color="#ED7D35"/><stop offset="1" stop-color="#ED4F35"/></linearGradient><linearGradient id="D" x1="190.934" x2="220.361" y1="317.956" y2="317.431" gradientUnits="userSpaceOnUse"><stop offset=".04" stop-color="#EDE6E5"/><stop offset=".1" stop-color="#EDD2C4"/><stop offset=".21" stop-color="#EDB491"/><stop offset=".3" stop-color="#ED9C69"/><stop offset=".39" stop-color="#ED8B4C"/><stop offset=".47" stop-color="#ED803B"/><stop offset=".52" stop-color="#ED7D35"/><stop offset="1" stop-color="#ED4F35"/></linearGradient><linearGradient id="E" x1="183.752" x2="199.76" y1="345.724" y2="345.438" gradientUnits="userSpaceOnUse"><stop offset=".04" stop-color="#EDE6E5"/><stop offset=".1" stop-color="#EDD2C4"/><stop offset=".21" stop-color="#EDB491"/><stop offset=".3" stop-color="#ED9C69"/><stop offset=".39" stop-color="#ED8B4C"/><stop offset=".47" stop-color="#ED803B"/><stop offset=".52" stop-color="#ED7D35"/><stop offset="1" stop-color="#ED4F35"/></linearGradient><linearGradient id="G" x1="183.761" x2="199.768" y1="345.723" y2="345.437" gradientUnits="userSpaceOnUse"><stop offset=".04" stop-color="#EDE6E5"/><stop offset=".1" stop-color="#EDD2C4"/><stop offset=".21" stop-color="#EDB491"/><stop offset=".3" stop-color="#ED9C69"/><stop offset=".39" stop-color="#ED8B4C"/><stop offset=".47" stop-color="#ED803B"/><stop offset=".52" stop-color="#ED7D35"/><stop offset="1" stop-color="#ED4F35"/></linearGradient><linearGradient id="H" x1="180.278" x2="193.279" y1="352.892" y2="352.66" gradientUnits="userSpaceOnUse"><stop offset=".04" stop-color="#EDE6E5"/><stop offset=".1" stop-color="#EDD2C4"/><stop offset=".21" stop-color="#EDB491"/><stop offset=".3" stop-color="#ED9C69"/><stop offset=".39" stop-color="#ED8B4C"/><stop offset=".47" stop-color="#ED803B"/><stop offset=".52" stop-color="#ED7D35"/><stop offset="1" stop-color="#ED4F35"/></linearGradient><linearGradient id="I" x1="172.136" x2="189.812" y1="360.274" y2="359.959" gradientUnits="userSpaceOnUse"><stop offset=".04" stop-color="#EDE6E5"/><stop offset=".1" stop-color="#EDD2C4"/><stop offset=".21" stop-color="#EDB491"/><stop offset=".3" stop-color="#ED9C69"/><stop offset=".39" stop-color="#ED8B4C"/><stop offset=".47" stop-color="#ED803B"/><stop offset=".52" stop-color="#ED7D35"/><stop offset="1" stop-color="#ED4F35"/></linearGradient><linearGradient id="J" x1="195.131" x2="208.175" y1="350.724" y2="350.491" gradientUnits="userSpaceOnUse"><stop offset=".04" stop-color="#EDE6E5"/><stop offset=".1" stop-color="#EDD2C4"/><stop offset=".21" stop-color="#EDB491"/><stop offset=".3" stop-color="#ED9C69"/><stop offset=".39" stop-color="#ED8B4C"/><stop offset=".47" stop-color="#ED803B"/><stop offset=".52" stop-color="#ED7D35"/><stop offset="1" stop-color="#ED4F35"/></linearGradient><linearGradient id="K" x1="186.985" x2="204.666" y1="358.171" y2="357.856" gradientUnits="userSpaceOnUse"><stop offset=".04" stop-color="#EDE6E5"/><stop offset=".1" stop-color="#EDD2C4"/><stop offset=".21" stop-color="#EDB491"/><stop offset=".3" stop-color="#ED9C69"/><stop offset=".39" stop-color="#ED8B4C"/><stop offset=".47" stop-color="#ED803B"/><stop offset=".52" stop-color="#ED7D35"/><stop offset="1" stop-color="#ED4F35"/></linearGradient><linearGradient id="L" x1="198.36" x2="238.725" y1="327.507" y2="326.787" gradientUnits="userSpaceOnUse"><stop offset=".04" stop-color="#EDE6E5"/><stop offset=".1" stop-color="#EDD2C4"/><stop offset=".21" stop-color="#EDB491"/><stop offset=".3" stop-color="#ED9C69"/><stop offset=".39" stop-color="#ED8B4C"/><stop offset=".47" stop-color="#ED803B"/><stop offset=".52" stop-color="#ED7D35"/><stop offset="1" stop-color="#ED4F35"/></linearGradient><linearGradient id="N" x1="208.434" x2="248.803" y1="327.151" y2="327.21" gradientUnits="userSpaceOnUse"><stop offset=".04" stop-color="#EDE6E5"/><stop offset=".1" stop-color="#EDD2C4"/><stop offset=".21" stop-color="#EDB491"/><stop offset=".3" stop-color="#ED9C69"/><stop offset=".39" stop-color="#ED8B4C"/><stop offset=".47" stop-color="#ED803B"/><stop offset=".52" stop-color="#ED7D35"/><stop offset="1" stop-color="#ED4F35"/></linearGradient><linearGradient id="O" x1="170.306" x2="228.003" y1="328.27" y2="283.577" gradientUnits="userSpaceOnUse"><stop offset=".04" stop-color="#EDE6E5"/><stop offset=".1" stop-color="#EDD2C4"/><stop offset=".21" stop-color="#EDB491"/><stop offset=".3" stop-color="#ED9C69"/><stop offset=".39" stop-color="#ED8B4C"/><stop offset=".47" stop-color="#ED803B"/><stop offset=".52" stop-color="#ED7D35"/><stop offset="1" stop-color="#ED4F35"/></linearGradient><linearGradient id="P" x1="191.413" x2="214.146" y1="251.105" y2="367.545" gradientUnits="userSpaceOnUse"><stop stop-color="#EFDC8D"/><stop offset=".07" stop-color="#EFDC8D" stop-opacity=".672"/><stop offset=".17" stop-color="#EFDC8D" stop-opacity=".36"/><stop offset=".27" stop-color="#EFDC8D" stop-opacity=".176"/><stop offset=".38" stop-color="#EFDC8D" stop-opacity=".073"/><stop offset=".48" stop-color="#EFDC8D" stop-opacity=".022"/><stop offset=".58" stop-color="#EFDC8D" stop-opacity=".01"/><stop offset=".68" stop-color="#EFDC8D" stop-opacity=".01"/><stop offset=".78" stop-color="#EFDC8D" stop-opacity="0"/></linearGradient><linearGradient id="Q" x1="179.074" x2="183.506" y1="260.524" y2="283.224" gradientUnits="userSpaceOnUse"><stop stop-color="#EFDC8D"/><stop offset=".07" stop-color="#EFDC8D" stop-opacity=".672"/><stop offset=".17" stop-color="#EFDC8D" stop-opacity=".36"/><stop offset=".27" stop-color="#EFDC8D" stop-opacity=".176"/><stop offset=".38" stop-color="#EFDC8D" stop-opacity=".073"/><stop offset=".48" stop-color="#EFDC8D" stop-opacity=".022"/><stop offset=".58" stop-color="#EFDC8D" stop-opacity=".01"/><stop offset=".68" stop-color="#EFDC8D" stop-opacity=".01"/><stop offset=".78" stop-color="#EFDC8D" stop-opacity="0"/></linearGradient><linearGradient id="R" x1="186.19" x2="190.942" y1="340.73" y2="365.069" gradientUnits="userSpaceOnUse"><stop stop-color="#EFDC8D"/><stop offset=".07" stop-color="#EFDC8D" stop-opacity=".672"/><stop offset=".17" stop-color="#EFDC8D" stop-opacity=".36"/><stop offset=".27" stop-color="#EFDC8D" stop-opacity=".176"/><stop offset=".38" stop-color="#EFDC8D" stop-opacity=".073"/><stop offset=".48" stop-color="#EFDC8D" stop-opacity=".022"/><stop offset=".58" stop-color="#EFDC8D" stop-opacity=".01"/><stop offset=".68" stop-color="#EFDC8D" stop-opacity=".01"/><stop offset=".78" stop-color="#EFDC8D" stop-opacity="0"/></linearGradient><clipPath id="a"><path fill="#fff" d="M0 0h883v662H0z"/></clipPath><clipPath id="b"><path fill="#fff" d="m817.719 311.066-499.573 64.779 37.384 287.778 499.573-64.78z"/></clipPath><clipPath id="o"><path fill="#fff" d="m149.411 271.97 86.49-11.213 12.524 96.39-86.49 11.212z"/></clipPath></defs></svg>