<svg xmlns="http://www.w3.org/2000/svg" width="113" height="109" fill="none"><circle cx="54.154" cy="54.154" r="54.154" fill="url(#a)" transform="matrix(-1 0 0 1 112.517 0)"/><g clip-path="url(#b)"><path fill="#fff" d="M93.04 68.512s-.931-3.49-8.55-.815-26.498 10.254-43.417 9.027c-16.92-1.227-25.48-1.96-31.192-6.06S1.85 65.987 1.85 70.5c0 2.169 3.199 2.564 2.553 6.02-.238 1.267 2.786 4.652 5.014 5.542 2.227.89 7.2 4.833 24.265 5.967 5.286.35 7.59 1.094 19.675.39s26.342-5.822 30.512-7.119 11.66-4.548 9.998-11.504c-.152-.628-.815-1.28-.815-1.28z"/><path fill="#00AEEF" d="M46.842 90.008c26.807 0 44.075-10.999 44.854-11.505 5.967-3.88 4.502-7.91 3.908-9.055-1.715-3.316-6.42-4.816-10.277-3.28-31.872 12.707-57.666 8.805-67.28 6.542-6.125-1.442-8.963-3.588-10.836-5.007-1.192-.902-2.134-1.617-3.332-1.617-2.362 0-2.96 1.46-3.106 2.088-.401 1.698.785 4.048 2.437 5.833.081 8.096 14.476 14.261 37.02 15.774a99 99 0 0 0 6.618.22zm41.702-22.13c2.221 0 4.222 1.15 4.99 2.64.988 1.907-.146 4.106-3.112 6.031-.814.53-20.263 12.912-50.053 10.911-17.85-1.198-31.227-5.717-34.216-11.208 15.209 7.503 34.047 7.881 42.114 8.044.53.012 1.012.017 1.437.03 6.979.15 35.868-8.777 37.095-9.155a1.17 1.17 0 0 0 .767-1.454 1.165 1.165 0 0 0-1.454-.768c-.29.093-29.214 9.055-36.164 9.055h-.18c-.43-.011-.92-.023-1.449-.029-7.956-.157-26.59-.535-41.37-7.927-.593-.297-1.157-.721-1.663-1.21a1 1 0 0 0-.186-.186c-1.355-1.384-2.25-3.175-2.065-3.943.047-.198.332-.297.844-.297.418 0 1.081.506 1.93 1.146C7.718 71 10.917 73.42 17.518 74.973c9.83 2.32 36.194 6.31 68.677-6.642a6.3 6.3 0 0 1 2.355-.454zM15.11 56.356c3.99 0 8.991-.593 13.958-2.146a1.16 1.16 0 1 0-.692-2.216c-8.963 2.797-17.198 2.198-19.42 1.28-1.855-.774-2.978-1.699-3.245-2.688-.245-.907.308-1.68.314-1.686.39-.512.29-1.24-.215-1.629a1.16 1.16 0 0 0-1.629.215c-.128.169-1.245 1.704-.71 3.705.466 1.74 2.013 3.164 4.601 4.234 1.361.564 3.885.937 7.05.942z"/><path fill="#fff" d="M39.851 35.44s-4.507-4.332-10.358-5.495-13.29-1.995-18.466-1.146S-.07 33.312 1.244 41.141c0 0 .221 6.147 8.05 9.509 7.305 1.035 10.742 1.611 19.42 0 3.995-.587 9.555-3.658 10.434-4.391s2.716-10.742.697-10.824z"/><path fill="#00AEEF" d="M16.064 25.775c.337 0 .674-.146.907-.43.267-.332 6.578-7.701 23.555-1.81a1.162 1.162 0 0 0 .762-2.192c-18.658-6.473-25.841 2.18-26.138 2.553a1.16 1.16 0 0 0 .186 1.634c.216.17.471.256.728.256zM28.725 61.294a1.164 1.164 0 0 0 .058-2.326c-15.023-.757-16.506-4.008-16.593-4.24a1.164 1.164 0 0 0-2.32.15c.017 1.286 1.43 5.543 18.791 6.416h.064"/><path fill="#00AEEF" d="M5.56 31.649c.477 0 .925-.297 1.093-.768.1-.262 2.292-5.857 10.935-5.02 6.676.64 15.685 2.577 18.46 4.433a1.17 1.17 0 0 0 1.617-.32 1.163 1.163 0 0 0-.32-1.617c-3.53-2.367-13.546-4.24-19.53-4.816-5.445-.523-8.765 1.245-10.598 2.815-2.03 1.745-2.721 3.653-2.75 3.734A1.168 1.168 0 0 0 5.56 31.65M90.434 27.59a1.163 1.163 0 0 0 .57-2.175c-.629-.356-15.646-8.69-33.612-6.247-4.083.552-7.642 3.42-8.765 5.182a1.164 1.164 0 0 0 .355 1.605 1.16 1.16 0 0 0 1.605-.355c.745-1.169 3.688-3.658 7.12-4.13 17.203-2.337 32.011 5.887 32.157 5.968.18.105.378.151.57.151M64.081 64.679c4.647 0 11.365-1.35 20.88-5.799a1.163 1.163 0 1 0-.989-2.105c-21.63 10.114-27.359 3.402-27.417 3.332a1.17 1.17 0 0 0-1.623-.198c-.5.39-.604 1.1-.226 1.606.157.21 2.495 3.164 9.375 3.164"/><path fill="#00AEEF" d="M80.431 33.795a1.164 1.164 0 0 0 .442-2.24c-.867-.354-21.299-8.717-32.035-7.653-4.28.424-6.944 1.71-7.922 3.815-1.128 2.431.507 4.85.576 4.95a1.16 1.16 0 0 0 1.617.296c.53-.36.663-1.081.303-1.61-.024-.03-.954-1.455-.384-2.67.593-1.262 2.74-2.14 6.037-2.466 10.16-1.006 30.709 7.404 30.918 7.485.146.058.297.087.442.087z"/><mask id="c" width="41" height="24" x="0" y="28" maskUnits="userSpaceOnUse" style="mask-type:luminance"><path fill="#fff" d="M39.7 35.72s-4.508-4.333-10.36-5.496c-5.85-1.163-13.289-1.995-18.465-1.146S-.222 33.591 1.092 41.42c0 0 .221 6.147 8.05 9.51 7.305 1.034 10.742 1.61 19.42 0 3.995-.588 9.555-3.66 10.433-4.392s2.717-10.742.698-10.824z"/></mask><g mask="url(#c)"><path fill="#2D2E30" d="M19.43 55.192c-8.207 0-14.86-6.653-14.86-14.86s6.653-14.86 14.86-14.86 14.86 6.653 14.86 14.86-6.653 14.86-14.86 14.86"/><path fill="#fff" d="M25.956 38.6a3.35 3.35 0 1 1 0-6.701 3.35 3.35 0 0 1 0 6.7M28.817 40.896a1.21 1.21 0 1 1 0-2.42 1.21 1.21 0 0 1 0 2.42"/></g><path fill="#00AEEF" d="M56.515 61.294c2.152 0 4.583-.105 7.322-.32 13.372-1.03 18.548-11.47 18.763-11.917a1.164 1.164 0 0 0-2.094-1.012c-.192.395-4.844 9.683-16.849 10.608-6.363.489-15.203.791-18.437-2.204-.93-.86-1.384-1.983-1.384-3.432 0-.64-.523-1.163-1.163-1.163s-1.163.524-1.163 1.163c0 2.1.715 3.827 2.128 5.136 2.303 2.129 6.299 3.135 12.877 3.135zM17.174 52.72c1.315 0 2.705-.063 4.159-.197 14.086-1.297 18.478-6.142 18.658-6.351a.8.8 0 0 0 .116-.17c.14-.267 3.356-6.56.471-11.026q-.042-.061-.093-.123c-.238-.256-5.99-6.322-16.797-6.932-8.328-.471-16.163-.553-20.53 3.577-2.1 1.983-3.164 4.804-3.17 8.38 0 1.99.488 5.776 3.763 8.765 2.972 2.71 7.473 4.078 13.418 4.078zm21.444-7.636c-.576.564-5.048 4.554-17.442 5.694-7.526.698-12.988-.46-16.239-3.426-2.78-2.536-3.193-5.775-3.193-7.48 0-3.123.861-5.449 2.623-7.112 3.862-3.653 11.3-3.554 19.234-3.1 9.597.54 14.994 5.746 15.57 6.322 2.088 3.35-.163 8.317-.547 9.102z"/><path fill="#fff" d="M87.09 39.728s-.86-.733-7.555-3.397-10.975-5.42-18.204-6.444-13.912.157-15.645.71c-1.734.552-6.62 2.46-7.009 9.613-.39 7.154 3.257 12.342 3.99 12.813s8.916 4.688 22.299 1.838c8.02-2.594 17.361-10.725 19.501-12.731s2.623-2.397 2.623-2.397z"/><mask id="d" width="50" height="27" x="38" y="29" maskUnits="userSpaceOnUse" style="mask-type:luminance"><path fill="#fff" d="M87.072 39.774s-.86-.733-7.555-3.397-10.975-5.42-18.204-6.444c-7.23-1.023-13.912.157-15.646.71s-6.618 2.46-7.008 9.614 3.257 12.342 3.99 12.813c.733.47 8.916 4.688 22.299 1.838 8.02-2.594 17.36-10.725 19.501-12.732 2.14-2.006 2.623-2.396 2.623-2.396z"/></mask><g mask="url(#d)"><path fill="#2D2E30" d="M57.527 56.623c-8.207 0-14.86-6.653-14.86-14.86s6.653-14.86 14.86-14.86 14.86 6.653 14.86 14.86-6.653 14.86-14.86 14.86"/><path fill="#fff" d="M64.732 39.693a3.35 3.35 0 1 1 0-6.7 3.35 3.35 0 0 1 0 6.7M67.6 41.99a1.21 1.21 0 1 1 0-2.42 1.21 1.21 0 0 1 0 2.42"/></g><path fill="#00AEEF" d="M54.694 56.96c2.449 0 5.014-.226 7.468-.703 8.282-1.611 18.32-7.875 25.574-15.948a.871.871 0 0 0-.36-1.407c-.07-.023-6.783-2.35-11.668-5.281-5.52-3.31-23.189-8.59-34.17-2.018a1 1 0 0 0-.174.133c-.087.088-8.422 8.806.593 21.776.012.017.03.035.04.052C43.75 55.7 48.92 56.95 54.7 56.95zm30.86-16.854c-6.932 7.345-16.122 12.964-23.73 14.441-8.118 1.582-16.57.198-18.465-2.053-3.443-4.967-4.607-9.771-3.46-14.29.755-2.966 2.285-4.787 2.628-5.165 10.213-6.014 27.208-.96 32.274 2.076 3.803 2.28 8.532 4.159 10.754 4.985z"/></g><defs><linearGradient id="a" x1="28.418" x2="79.89" y1="0" y2="108.308" gradientUnits="userSpaceOnUse"><stop stop-color="#C3DFFF"/><stop offset=".145" stop-color="#fff"/><stop offset=".305" stop-color="#C3DFFF"/><stop offset=".75" stop-color="#0063FD"/><stop offset="1" stop-color="#001C3F"/></linearGradient><clipPath id="b"><path fill="#fff" d="M96.204 18.72H0v71.288h96.204z"/></clipPath></defs></svg>