<svg xmlns="http://www.w3.org/2000/svg" width="118" height="111" fill="none"><path fill="#EAD1BC" stroke="#000" stroke-linejoin="round" stroke-width="18.986" d="M25.765 10.86c1.156 2.275 6.154 5.765 8.51 7.226-1.33-.141-6.22.823-7.088 1.403-.695.463-3.716 1.975-4.18 4.66-.949-3.732 1.312-16.131 2.758-13.288Z"/><circle cx="62.444" cy="56.154" r="54.154" fill="url(#a)"/><path fill="#EAD1BC" stroke="#000" stroke-linejoin="round" stroke-width="18.986" d="M105.767 24.032c-1.391 2.14-6.73 5.08-9.226 6.284 1.337 0 5.482.967 6.284 1.636.642.534 4.101 2.866 4.279 5.585 1.337-3.61.401-16.18-1.337-13.505Z"/><g clip-path="url(#b)"><path fill="#212121" d="M26.114 85.434c.646 1.216 1.913 3.258 3.753 4.73 2.785 2.225 8.638 2.163 13.6 2.014 4.962-.147 7.065 1.527 13.453.062 6.388-1.466 14.807-5.663 12.05-5.38 0 0-7.478.613-13.964 2.166s-7.213-2.97-12.544-3.945c-5.333-.975-12.396-3.036-15.47-2.033-1.88.743-1.21 1.763-.88 2.386z"/><path fill="#A7A9AC" d="M50.142 79.122c0 .416-.286.755-.637.755s-.638-.337-.638-.755.286-.755.638-.755c.351 0 .637.337.637.755M49.292 85.723c0 .354-.244.642-.543.642s-.543-.288-.543-.642.243-.642.543-.642.542.288.542.642M51.084 83.05c0 .416-.287.755-.638.755s-.638-.338-.638-.755c0-.418.286-.755.638-.755.351 0 .638.337.638.755M48.207 83.651c0 .417-.286.755-.637.755s-.638-.337-.638-.755.286-.754.638-.754c.351 0 .637.338.637.754M52.43 79.299c.352 0 .637-.338.637-.755s-.285-.755-.638-.755c-.352 0-.638.338-.638.755s.286.755.638.755M53.045 83.05c.352 0 .637-.338.637-.755s-.285-.755-.637-.755-.638.338-.638.755.286.755.638.755M55.354 78.657c.352 0 .637-.338.637-.755s-.285-.755-.637-.755-.638.338-.638.755.285.755.638.755M56.285 81.859c0 .416-.287.755-.638.755s-.638-.338-.638-.755c0-.418.286-.755.638-.755.351 0 .638.337.638.755M48.59 77.053c.353 0 .639-.337.639-.754s-.286-.755-.638-.755-.638.338-.638.755c0 .416.286.754.638.754M28.269 77.614c0 .416-.286.754-.638.754-.351 0-.638-.337-.638-.754 0-.418.287-.755.638-.755s.638.337.638.755M51.499 74.628c0 .416-.287.754-.638.754s-.638-.337-.638-.755c0-.417.287-.753.638-.753s.638.337.638.754M54.237 73.446c0 .417-.286.755-.638.755-.351 0-.638-.337-.638-.755s.287-.755.638-.755.638.337.638.755M59.64 72.915c0 .34-.235.618-.524.618s-.523-.277-.523-.618.234-.619.523-.619.523.278.523.619M56.922 72.691c0 .416-.287.755-.638.755s-.638-.337-.638-.755.287-.755.638-.755.638.337.638.755M25.615 76.299c.276 0 .5-.265.5-.592s-.224-.593-.5-.593c-.277 0-.502.266-.502.593s.225.592.502.592M26.692 79.875c0 .378-.26.683-.578.683-.32 0-.578-.305-.578-.683 0-.377.259-.683.578-.683s.578.306.578.683M24.275 78.031c0 .295-.203.536-.453.536s-.453-.24-.453-.536.203-.536.453-.536.453.24.453.536M24.088 74.327c0 .228-.157.414-.35.414-.194 0-.35-.185-.35-.414s.156-.414.35-.414.35.185.35.414M46.613 80.63c.352 0 .637-.338.637-.755s-.285-.755-.637-.755-.638.338-.638.755.285.755.638.755"/><path fill="#6D6E71" d="M26.765 62.956a36 36 0 0 0-3.016-3.315c-1.066-1.042-2.17-2.049-3.363-2.946l-.447-.338c-.148-.113-.307-.211-.46-.318-.31-.208-.617-.421-.93-.624-.645-.375-1.272-.785-1.948-1.107-1.313-.72-2.723-1.244-4.142-1.725l.011-.04c1.437.431 2.873.906 4.221 1.584.69.306 1.333.702 1.995 1.064.322.196.637.403.956.605.157.103.321.199.473.308l.46.331c1.232.87 2.414 1.826 3.458 2.92.263.273.511.558.766.836.245.288.49.577.721.875.462.597.904 1.21 1.276 1.867l-.034.023zM23.072 64.308c-.313-.253-.623-.507-.944-.747a34 34 0 0 0-.96-.724l-.972-.704-.99-.675c-1.328-.888-2.676-1.747-4.087-2.5-.355-.182-.703-.382-1.067-.549l-1.088-.506c-.363-.17-.74-.304-1.109-.458l-.557-.224c-.186-.073-.379-.13-.567-.196l-1.137-.388-1.16-.315-.58-.156-.59-.116-1.18-.233.005-.04 1.191.192.596.096.587.138 1.176.279 1.155.353c.192.06.387.114.577.183l.566.212c.376.146.759.274 1.129.434l1.108.483c.371.158.727.35 1.09.525 1.442.721 2.855 1.514 4.169 2.456 1.302.952 2.563 1.97 3.662 3.154l-.029.028zM20.781 67.26a35.5 35.5 0 0 0-4.85-2.511c-.418-.18-.83-.371-1.26-.527-.423-.162-.839-.352-1.27-.497l-1.284-.462-1.305-.401c-1.754-.49-3.535-.904-5.347-1.125-.9-.152-1.813-.202-2.723-.284-.454-.05-.912-.041-1.369-.057L0 61.364v-.04l1.372-.008c.458.002.916-.021 1.373.017.914.054 1.832.078 2.742.204 1.827.18 3.63.558 5.41 1.012l1.328.369 1.31.43a28 28 0 0 1 2.56 1.031c1.659.789 3.282 1.684 4.708 2.847l-.024.032zM23.357 72.161a42 42 0 0 0-4.474-2.026c-1.524-.585-3.066-1.133-4.658-1.511a24 24 0 0 0-2.408-.46c-.403-.064-.812-.097-1.218-.143-.407-.026-.816-.065-1.225-.07a19.5 19.5 0 0 0-4.885.418l-.01-.04a19.6 19.6 0 0 1 4.9-.58c.412-.005.825.025 1.237.04.411.035.824.06 1.234.115.821.091 1.637.23 2.445.403 1.618.34 3.214.811 4.738 1.451 1.516.658 3.001 1.404 4.344 2.368l-.022.034zM19.704 73.804a34 34 0 0 0-2.666-.136c-.222-.004-.443-.01-.665-.008-.222 0-.443-.014-.666-.005l-.666.003-.665.031c-.885.065-1.773.159-2.647.333-.441.068-.873.178-1.31.273-.434.102-.861.236-1.293.352l-.013-.038c.424-.142.844-.302 1.275-.43.432-.122.86-.26 1.3-.355.874-.216 1.767-.351 2.662-.458.896-.099 1.801-.166 2.705-.101.9.066 1.803.198 2.659.5zM51.495 70.637c2.629-.42 5.276-.698 7.925-.953 2.65-.246 5.308-.372 7.969-.472a128 128 0 0 1 7.982-.088c1.33.021 2.66.107 3.986.198l1.986.203 1.97.32-.007.04-1.972-.279-1.985-.163c-1.326-.065-2.652-.122-3.98-.117-2.657-.02-5.314.06-7.966.207-2.653.145-5.301.36-7.951.553l-7.952.59-.005-.04M66.333 73.512c1.773-.254 3.565-.327 5.353-.354 1.791-.013 3.58.112 5.36.28a56 56 0 0 1 5.31.769c1.754.354 3.48.833 5.17 1.415l-.014.037a40 40 0 0 0-5.193-1.254 55 55 0 0 0-5.3-.645c-1.777-.125-3.556-.16-5.336-.199-1.78-.047-3.56-.032-5.346-.01l-.004-.04M52.425 77.77c3.252-.511 6.553-.644 9.845-.606 3.294.05 6.582.403 9.824.981a56 56 0 0 1 4.817 1.095c1.589.436 3.148.97 4.68 1.572a39 39 0 0 1 4.447 2.137 34 34 0 0 1 4.084 2.76l-.025.03a34 34 0 0 0-4.118-2.684 39 39 0 0 0-4.463-2.056 46 46 0 0 0-4.675-1.507 56 56 0 0 0-4.802-1.03c-3.233-.532-6.505-.79-9.778-.895a82 82 0 0 0-9.83.243l-.004-.04zM61.082 81.52c1.927.131 3.823.557 5.68 1.092a30 30 0 0 1 5.359 2.203c.858.445 1.697.927 2.505 1.458.41.256.8.543 1.196.819.386.292.776.575 1.144.887a23 23 0 0 1 3.971 4.187l-.032.025a22.8 22.8 0 0 0-4.065-4.053c-.372-.302-.765-.575-1.153-.856-.398-.266-.79-.542-1.201-.786a28 28 0 0 0-2.51-1.392c-1.716-.851-3.517-1.508-5.333-2.106a44 44 0 0 0-5.565-1.437l.003-.04zM46.616 80.61c2.417.438 4.787 1.101 7.127 1.849 2.337.758 4.616 1.698 6.834 2.756 1.108.535 2.2 1.101 3.263 1.72a34 34 0 0 1 3.08 2.027 21 21 0 0 1 2.747 2.459c.834.902 1.575 1.899 2.121 3l-.036.02c-.568-1.086-1.327-2.06-2.174-2.937a21 21 0 0 0-2.777-2.38 34 34 0 0 0-3.091-1.962 48 48 0 0 0-3.27-1.654c-2.224-1.013-4.518-1.862-6.826-2.667a113 113 0 0 0-7.006-2.192z"/><path fill="#222" d="M34.83 62.03c-3.728-.637-10.066-2.875-9.88 2.904s3.915 13.235 9.88 13.235c5.964 0 13.599-6.337 13.599-9.88 0-3.542-13.6-6.26-13.6-6.26"/><path fill="#000" d="M34.087 70.173c-.45-.096-.837.337-.935.877-.267 1.49-.722 4.572-.384 6.69l.02.122q.679.209 1.407.276c-.197-2.503.13-6.061.397-6.971.195-.668-.056-.9-.505-.995M42.057 71.973c.4-.542.65-1.293.65-2.124 0-1.648-.976-2.984-2.181-2.984s-2.181 1.336-2.181 2.984.954 2.95 2.14 2.98c.528.483 1.651 1.085 4.002 1.234q.484-.401.925-.816c-.916-.369-2.223-.819-3.355-1.274M29.263 64.083c-1.123 0-2.033 1.245-2.033 2.78q.001.428.088.814a55 55 0 0 1-2.076-.196q.136.706.331 1.412c1.171.319 1.94.27 2.416.137.348.383.79.615 1.274.615 1.123 0 2.033-1.245 2.033-2.781s-.911-2.781-2.033-2.781"/><path fill="#474646" d="M25.89 83.803c-.394.586-.005 1.201.223 1.631.647 1.216 1.913 3.258 3.754 4.73 2.785 2.225 8.638 2.163 13.6 2.014 4.962-.147 7.065 1.527 13.453.062 2.654-.608 5.659-1.688 8.067-2.724 3.014-1.295-2.592-.901-5.914.075-3.796 1.114-8.97 1.764-20.728.063-7.05-.438-12.454-5.852-12.454-5.852z"/><path fill="#303030" d="M34.83 62.03s13.599 2.718 13.599 6.26c0 .16-.021.328-.051.498 3.234-5.626-5.775-9.15-11.961-10.305-6.273-1.114-9.656 2.342-10.66 3.607 1.802-1.983 6.206-.55 9.07-.06z"/><path fill="#4D4D4F" d="M25.69 62.03c.211-.43.588-.797 1.018-1.053a4.6 4.6 0 0 1 1.392-.523c.961-.199 1.918-.187 2.836-.101.92.087 1.803.28 2.655.52.428.12.84.239 1.266.345.1.024.24.061.34.09l.325.091.648.18q1.295.36 2.573.768 1.276.418 2.532.896c1.666.649 3.32 1.374 4.822 2.352l-.089.159c-1.616-.713-3.303-1.217-5.01-1.645a55 55 0 0 0-2.568-.595 67 67 0 0 0-2.584-.517l-.648-.109q-.162-.026-.324-.048a8 8 0 0 0-.311-.04 49 49 0 0 1-1.34-.167c-.883-.125-1.733-.3-2.565-.484-.831-.18-1.649-.349-2.457-.414-.807-.059-1.6-.031-2.379.418l-.134-.123z"/><path fill="#524C3F" d="M26.993 83.05c3.074-1.004 10.138 1.059 15.47 2.032q.297.056.576.125c.088-1.276-.004-2.765-.576-4.102-1.263-2.947 3.75-1.37 3.64-8.546-2.723 2.88-7.357 5.61-11.273 5.61-3.917 0-6.715-3.053-8.359-6.765-1.99 2.22-1.358 12.389.522 11.645" opacity=".7"/><path fill="#524C3F" d="M34.156 83.375c-.326-.701-.605-2.179-.112-5.255a7 7 0 0 1-.906-.162c-.246 1.286-.567 3.659-.001 5.236q.502.085 1.02.181zM59.043 89.6c-2.037.552-4.32.994-6.614.922-3.52-.112-9.057-.483-13.916-.844 11.608 1.666 16.756 1.026 20.53-.078" opacity=".7"/><path fill="#E9BB7D" d="m65.005 89.509-.017.008-.038.015q-.205.088-.416.177l-.016.007q-.207.087-.418.173l-.063.026-.426.172-.077.03-.444.174q-.012.004-.022.01l-.435.166q-.037.015-.075.028-.22.083-.443.164l-.087.031q-.228.084-.46.166l-.015.005q-.226.08-.455.159l-.081.027q-.225.078-.452.152l-.088.03q-.233.078-.467.153-.008.001-.017.005-.228.073-.455.142l-.088.027q-.224.069-.448.134-.047.014-.095.027-.23.067-.46.132l-.014.004q-.225.062-.446.12l-.09.024q-.22.059-.437.112l-.089.022q-.224.056-.446.107h-.004c-2.794.64-4.77.68-6.523.535a30 30 0 0 1-1.51-.167q-.31-.04-.62-.083c-1.45-.198-2.92-.403-4.802-.347-1.085.032-2.214.06-3.342.06h-.49a58 58 0 0 1-.95-.014c-3.295-.076-6.446-.472-8.41-1.768a6 6 0 0 1-.407-.293 10 10 0 0 1-.354-.297l-.061-.056a11 11 0 0 1-.284-.259l-.038-.036q-.151-.145-.297-.293-.004-.006-.009-.01a14 14 0 0 1-.307-.326c0 .001 2.932 5.343 13.361 5.258 10.432-.084 11.947.65 15.254-.135 3.259-.773 6.923-1.821 9.156-5.076q-.606.282-1.284.574z"/></g><g clip-path="url(#c)"><path fill="#474646" d="M65.01 52.99c1.026.977 2.127 1.779 3.312 2.388a16.2 16.2 0 0 0 3.692 1.353 23 23 0 0 0 3.888.555c.33.012.66.034.987.05l.994.004c.331.008.659-.005.987-.015.164-.007.328-.007.492-.018l.488-.04.489-.034.483-.057c.16-.02.323-.033.484-.059l.478-.08c.64-.092 1.265-.246 1.885-.406 1.235-.34 2.421-.827 3.532-1.47 2.214-1.289 4.122-3.241 5.419-5.748a8 8 0 0 1-.437 2.102c-.23.686-.535 1.352-.903 1.987a11.9 11.9 0 0 1-2.921 3.341c-.592.46-1.22.885-1.889 1.231-.66.369-1.358.65-2.063.906-.71.239-1.433.436-2.161.58l-.549.102c-.182.032-.366.05-.55.075l-.55.072q-.276.027-.551.046l-.552.035c-.184.01-.367.008-.55.013-.367.005-.735.02-1.096-.003l-1.091-.052a48 48 0 0 1-1.091-.116c-1.45-.19-2.896-.522-4.273-1.062-1.375-.54-2.678-1.288-3.792-2.245-.142-.114-.273-.246-.407-.371-.13-.13-.267-.248-.39-.385-.244-.273-.492-.537-.704-.832a8.6 8.6 0 0 1-1.092-1.845zM32.402 46.675c-.629.827-1.522 1.466-2.5 1.912a9.5 9.5 0 0 1-3.14.802c-1.142.1-2.434-.133-3.503-.807-1.082-.654-1.873-1.654-2.4-2.683a10 10 0 0 1-.63-1.593 11.548 11.548 0 0 1-.308-4.893c.093-.542.21-1.094.453-1.655.215-.497.471-.96.75-1.409.565-.888 1.237-1.706 2.048-2.355-.358.972-.664 1.91-.896 2.856-.117.47-.218.942-.293 1.4-.05.397-.054.845-.034 1.298.046.909.168 1.829.37 2.707.099.44.216.872.361 1.285.136.416.303.813.49 1.184.374.748.852 1.379 1.443 1.834.592.45 1.316.75 2.17.853 1.82.203 3.722.06 5.62-.736"/><path fill="#474646" d="M65.01 52.99c1.026.977 2.127 1.779 3.312 2.388a16.2 16.2 0 0 0 3.692 1.353 23 23 0 0 0 3.888.555c.33.012.66.034.987.05l.994.004c.331.008.659-.005.987-.015.164-.007.328-.007.492-.018l.488-.04.489-.034.483-.057c.16-.02.323-.033.484-.059l.478-.08c.64-.092 1.265-.246 1.885-.406 1.235-.34 2.421-.827 3.532-1.47 2.214-1.289 4.122-3.241 5.419-5.748a8 8 0 0 1-.437 2.102c-.23.686-.535 1.352-.903 1.987a11.9 11.9 0 0 1-2.921 3.341c-.592.46-1.22.885-1.889 1.231-.66.369-1.358.65-2.063.906-.71.239-1.433.436-2.161.58l-.549.102c-.182.032-.366.05-.55.075l-.55.072q-.276.027-.551.046l-.552.035c-.184.01-.367.008-.55.013-.367.005-.735.02-1.096-.003l-1.091-.052a48 48 0 0 1-1.091-.116c-1.45-.19-2.896-.522-4.273-1.062-1.375-.54-2.678-1.288-3.792-2.245-.142-.114-.273-.246-.407-.371-.13-.13-.267-.248-.39-.385-.244-.273-.492-.537-.704-.832a8.6 8.6 0 0 1-1.092-1.845z"/><path fill="#212121" d="M37.23 40.892c-2.86 4.947-5.905 7.51-10.397 7.51-5.907 0-6.38-7.984-5.671-10.346.709-2.364 3.544-8.743 10.397-7.798s7.292 7.83 5.671 10.634"/><path fill="#fff" d="M35.948 36.922a1.291 1.291 0 1 0-2.513-.596 1.291 1.291 0 0 0 2.513.596M29.085 36.69a1.292 1.292 0 1 0-1.827-1.827 1.292 1.292 0 0 0 1.826 1.826"/><path fill="#fff" d="M28.171 33.994c-.564.912-1.015 1.736-1.372 2.57-.356.828-.61 1.642-.763 2.484-.152.84-.219 1.706-.209 2.628-.003.924.075 1.887.085 2.968-.804-.724-1.351-1.66-1.692-2.69a6.66 6.66 0 0 1-.223-3.286c.2-1.11.716-2.163 1.442-2.994a5.8 5.8 0 0 1 1.238-1.068c.46-.284.954-.522 1.496-.61z"/><path fill="#CA9A61" d="M38.843 36.132a7.9 7.9 0 0 0-.495-2.327c-.55-1.528-1.702-2.906-3.14-3.76a9 9 0 0 0-2.27-.95c-.785-.209-1.565-.32-2.371-.35a9.9 9.9 0 0 0-2.428.232c-.8.19-1.582.483-2.293.886-1.434.8-2.58 1.97-3.412 3.252a12.7 12.7 0 0 0-1.668 3.853q.17-.315.36-.617c.564-.888 1.236-1.706 2.048-2.356V34c1.63-2.249 4.29-4.305 8.388-3.74 6.852.946 7.293 7.83 5.671 10.634q-.386.67-.78 1.282l-.014.045c.25-.256.481-.526.726-.79l.353-.406q.177-.225.328-.467c.401-.648.667-1.372.831-2.118.164-.748.221-1.523.172-2.304zM77.034 39.871c5.924 0 10.77 1.646 15.587 9.543-1.027-2.786-2.62-5.434-4.994-7.512a13.4 13.4 0 0 0-4.085-2.434 15.3 15.3 0 0 0-2.299-.654c-.388-.072-.78-.15-1.168-.19-.388-.044-.78-.098-1.164-.116a18 18 0 0 0-1.158-.046l-.575-.006h-.144l-.174.006-.35.019a8.1 8.1 0 0 0-2.523.712 12 12 0 0 0-2.086 1.245c-.639.465-1.224.974-1.776 1.506a24.5 24.5 0 0 0-2.933 3.448c-.858 1.224-1.633 2.5-2.26 3.854 2.225-2.97 7.551-9.378 12.102-9.378z"/><path fill="#212121" d="M65.01 52.99c1.027.978 2.128 1.779 3.312 2.388a16.2 16.2 0 0 0 3.692 1.353c1.273.303 2.575.472 3.888.556.33.011.66.033.987.05l.994.003c.331.009.66-.005.987-.015.164-.007.328-.007.492-.018l.489-.04.488-.034.484-.057c.16-.02.322-.033.483-.058l.478-.08c.641-.093 1.265-.246 1.886-.407a15 15 0 0 0 3.532-1.469c2.213-1.29 4.122-3.242 5.418-5.747-4.816-7.898-9.663-9.544-15.587-9.544-4.55 0-9.877 6.408-12.102 9.379-.672.897-.8 2.466.079 3.74"/><path fill="#fff" d="M76.38 43.155c-2.456.46-5.309 4.181-5.309 8.327 0 4.145 4.989 5.61 4.989 5.61s1.447.354 2.663.238c.651-.061.534-.81.137-.893-2.344-.495-3.116-2.056-3.116-5.546 0-4.423 6.054-4.517 5.94-6.754 0-1.432-2.849-1.44-5.306-.98z"/><path fill="#fff" d="M82.456 46.994a1.291 1.291 0 1 0-1.827-1.827 1.291 1.291 0 0 0 1.827 1.827"/></g><defs><clipPath id="b"><path fill="#fff" d="M0 52.544h90.123V94.44H0z"/></clipPath><clipPath id="c"><path fill="#fff" d="M19.79 28.743h72.83v31.169H19.79z"/></clipPath><linearGradient id="a" x1="36.708" x2="84.908" y1="2" y2="104.959" gradientUnits="userSpaceOnUse"><stop stop-color="#FA8929"/><stop offset=".415" stop-color="#FA8929"/><stop offset="1" stop-color="#E5E5E5"/></linearGradient></defs></svg>