<svg xmlns="http://www.w3.org/2000/svg" width="771" height="723" fill="none"><path fill="url(#a)" d="M706.55 239.55C671.1 107.25 535.113 28.738 402.813 64.187S192.001 235.624 227.451 367.924c35.449 132.3 171.437 210.812 303.736 175.363 132.3-35.45 210.812-171.438 175.363-303.737"/><g clip-path="url(#b)"><path fill="url(#c)" d="m271.976 418.061 451.539 88.093-.872 4.47-451.539-88.093z"/><path fill="url(#d)" d="m263.83 495.19 451.539 88.093-.872 4.47-451.539-88.093z"/><path fill="url(#e)" d="m264.862 446.336 451.539 88.093-4.447 22.793-451.539-88.093z"/><path fill="#FFEFCD" d="m263.149 451.572-3.63 14.121 82.835 8.936z"/></g><path fill="#232826" d="M176.569 458.085a2.56 2.56 0 0 0-1.329 1.73 2.59 2.59 0 0 0 .458 2.135c4.366 5.812 21.692 19.652 87.81 22.525.253-.003 1.564-.158 2.463-4.13s-.215-4.673-.47-4.796c-60.898-25.859-82.479-20.852-88.937-17.489z"/><path fill="#C9CDA9" d="m196.402 424.939 32.953 14.195s-5.319-2.919-3.989-8.785c1.307-5.735 14.935-9.976 14.935-9.976l-28.103-7.902s-10.39 12.121-15.801 12.444z"/><path fill="url(#f)" d="m212.179 412.498 28.103 7.903s-13.657 4.221-14.935 9.975c-1.335 5.842 3.989 8.785 3.989 8.785l-32.952-14.194c2.527-.162 6.134-2.863 9.247-5.737-.04.642.196 1.86 2.253 2.815 2.198 1.025 8.184 2.558 10.781 3.193-2.403 3.585-3.996 5.855-4.015 5.884l.211.158s4.332-6.18 9.576-14.382l-.207-.134c-1.995 3.117-3.848 5.95-5.413 8.239-2.543-.622-8.612-2.188-10.805-3.189-2.424-1.129-2.152-2.583-2.083-2.851a9 9 0 0 0 .672-.652c.059.038.151-.007.165-.06l-.016-.073c3.054-2.913 5.386-5.645 5.386-5.645zm6.441 11.583s-.146.031-.16.085c-.008.078.032.145.085.159.078.009.146-.031.16-.085.008-.078-.032-.145-.11-.154zm-.967-.249s-.146.031-.159.084c-.009.078.031.146.085.16.053.014.145-.031.159-.085 0 0-.031-.146-.085-.159m-.996-.269s-.146.031-.16.085c-.008.078.032.146.085.159.078.009.146-.031.16-.084 0 0-.031-.146-.085-.16m-.991-.244s-.146.031-.16.085c-.008.078.032.145.085.159.078.009.146-.031.16-.085 0 0-.031-.145-.085-.159m-.996-.268s-.146.031-.16.084c-.008.078.031.146.085.16.078.009.146-.031.16-.085 0 0-.032-.146-.085-.159m-.977-.298s-.146.031-.16.085c-.009.078.031.145.085.159.078.009.121-.026.159-.085 0 0-.031-.145-.084-.159m-.972-.274s-.146.031-.16.085.031.145.085.159c.078.009.146-.031.159-.085 0 0-.031-.145-.084-.159m-.978-.298s-.145.031-.159.085c-.009.078.031.146.085.159.078.009.145-.031.159-.084 0 0-.031-.146-.085-.16m-.982-.322s-.145.031-.159.085c-.009.078.031.145.085.159.078.009.145-.031.159-.085 0 0-.031-.145-.085-.159m-.958-.327s-.145.031-.159.085c-.038.059.026.121.085.159.058.038.145-.031.159-.085 0 0-.031-.145-.085-.159m-.944-.381s-.151.007-.17.036c-.038.059.007.151.061.165.059.038.126-.002.164-.061l-.005-.024c-.01-.049-.026-.122-.08-.135zm-.863-.475s-.132-.022-.17.036a.12.12 0 0 0 .037.17.12.12 0 0 0 .169-.036l-.01-.049-.031-.145zm-.91-.693s-.046.137-.012.18c.035.044.113.052.18.012 0 0 .044-.034.039-.058l-.026-.122c-.035-.043-.137-.047-.181-.012m-.445-.894s-.106.099-.095.148c.015.072.099.105.147.095.049-.011.092-.045.081-.094l-.015-.073c-.016-.072-.099-.105-.147-.095zm9.126 12.275s-.022.132.037.17a.12.12 0 0 0 .169-.036l.014-.054a.3.3 0 0 0-.055-.14.12.12 0 0 0-.17.036zm.752-.871s-.132-.023-.17.036a.12.12 0 0 0 .037.17.12.12 0 0 0 .169-.036l.014-.054a.3.3 0 0 0-.055-.14zm.582-.835s-.132-.023-.17.036a.12.12 0 0 0 .037.17.12.12 0 0 0 .169-.036l-.01-.049-.031-.145zm.582-.835s-.132-.023-.17.036a.12.12 0 0 0 .037.17.12.12 0 0 0 .169-.036l-.01-.049-.031-.145zm.577-.86s-.132-.022-.17.037a.12.12 0 0 0 .036.17.12.12 0 0 0 .17-.037l.014-.053a.3.3 0 0 0-.055-.141zm.582-.835s-.132-.022-.17.037a.12.12 0 0 0 .036.17.12.12 0 0 0 .17-.037l.014-.054-.031-.145zm.552-.854s-.131-.022-.169.037a.12.12 0 0 0 .036.169.12.12 0 0 0 .17-.036l.014-.054c-.011-.048-.021-.097-.056-.14zm.582-.835s-.131-.022-.169.036a.12.12 0 0 0 .036.17.12.12 0 0 0 .17-.036l.014-.054-.032-.145zm.383-.818s-.022.132.037.17a.12.12 0 0 0 .169-.036l.014-.054a.3.3 0 0 0-.055-.14.12.12 0 0 0-.17.036zm.747-.895s-.132-.023-.17.036a.12.12 0 0 0 .036.17.12.12 0 0 0 .17-.037l.014-.053a.3.3 0 0 0-.055-.141zm.577-.86s-.132-.022-.17.037a.12.12 0 0 0 .036.169.12.12 0 0 0 .17-.036l.014-.054-.031-.145zm.552-.854s-.132-.022-.17.036a.12.12 0 0 0 .037.17.12.12 0 0 0 .17-.036l-.006-.024zm.558-.83s-.132-.022-.17.037a.12.12 0 0 0 .037.169.12.12 0 0 0 .169-.036l.014-.054a.3.3 0 0 0-.055-.14zm.577-.859s-.132-.023-.17.036a.12.12 0 0 0 .036.17.12.12 0 0 0 .17-.036l.014-.054a.3.3 0 0 0-.055-.14zm.552-.854s-.131-.023-.169.036a.12.12 0 0 0 .036.17.12.12 0 0 0 .17-.037l.014-.053-.032-.146zm.548-.879s-.132-.022-.17.037a.12.12 0 0 0 .036.169.12.12 0 0 0 .17-.036l-.01-.048c-.011-.049-.021-.098-.056-.141zm.552-.854s-.131-.022-.17.036a.12.12 0 0 0 .037.17.12.12 0 0 0 .17-.036l.013-.054c-.01-.048-.02-.097-.055-.14z"/><path fill="#232826" d="M240.383 420.53c-.146.031-13.525 4.244-14.772 9.788-1.266 5.573 3.648 8.376 3.878 8.504l-.256.461s-5.457-3.092-4.124-9.061c1.316-5.812 14.555-9.97 15.121-10.167l.158.499zM212.395 412.555c-.427.497-10.526 12.201-15.96 12.529l-.032-.501c5.236-.311 15.517-12.231 15.617-12.354z"/><path fill="#232826" d="m208.053 420.817-.031-.146s-.132-.022-.17.037c0 0-.022.131.037.169 0 0 .131.023.169-.036l-.01-.048zm-.778-.671-.026-.121s-.137-.047-.18-.012c0 0-.047.137-.012.18 0 0 .113.052.18.012 0 0 .043-.034.038-.059m-.469-.888-.016-.073s-.099-.106-.147-.095c0 0-.106.098-.096.147 0 0 .099.106.148.095s.092-.045.081-.093zM205.719 418.804l.25.099s-.52 1.481 1.559 2.659l-.187.192c-2.202-1.278-1.611-2.902-1.617-2.926z"/><path fill="url(#g)" d="M192.305 402.78c3.727 4.959 19.403 18.088 81.276 20.805 0 0 1.173.028 1.994-3.598s-.246-4.108-.246-4.108c-57.023-24.23-76.802-19.101-82.328-16.242-1.164.605-1.498 2.122-.72 3.148z"/><path fill="#EFDC8D" d="M275.332 415.879s1.037.463.307 3.917c.372-1.932-.669-2.292-.669-2.292-58.045-19.647-76.958-18.408-82.103-17.203-.534.114-.851.41-.934.732a2.15 2.15 0 0 1 1.09-1.425c5.497-2.879 25.305-7.988 82.328 16.242z"/><path fill="#232826" d="M200.151 404.929c.18.012-.14 1.121-.294 1.585-.108.328-.368.891-.48.839-.172-.09-.338-.156-.485-.252-1.922-1.034-3.37-1.992-4.486-2.818.258.021.549-.041.741-.209.207-.222.255-.588.236-.914 1.116.472 2.5 1.012 4.255 1.625.166.066.333.132.518.168zM255.799 417.886c.258.021-.487 1.753-.774 2.424-.085.195-.203.474-.373.511a5 5 0 0 1-.575-.08c-9.825-1.217-18.134-2.581-25.145-4.046.419-1.003.956-2.285 1.436-3.834 6.997 1.518 15.213 3.156 24.875 4.916.185.036.37.072.551.085zM256.588 415.534l-.064.293a2534 2534 0 0 0-25.971-6.127l.064-.293a2588 2588 0 0 1 25.971 6.127M256.551 416.304s-.032-.146-.115-.179c0 0-.145.031-.178.115 0 0 .031.145.114.178 0 0 .146-.031.179-.114m-1.153-.286s-.031-.146-.114-.178c0 0-.145.031-.178.114 0 0 .031.145.114.178 0 0 .146-.031.178-.114m-1.122-.267s-.031-.145-.115-.178c0 0-.145.031-.178.114 0 0 .031.146.114.179 0 0 .146-.032.179-.115m-1.147-.261s-.031-.146-.114-.179c0 0-.146.032-.179.115 0 0 .036.17.114.178 0 0 .146-.031.179-.114m-1.123-.267s-.031-.145-.114-.178c0 0-.146.031-.179.114 0 0 .032.146.115.178 0 0 .145-.031.178-.114m-1.128-.291s-.031-.145-.114-.178c0 0-.146.031-.178.114 0 0 .031.146.114.179 0 0 .145-.032.178-.115m-1.122-.267s-.031-.145-.115-.178c0 0-.145.031-.178.114 0 0 .031.146.114.179 0 0 .146-.031.179-.115m-1.147-.261s-.031-.146-.115-.178c0 0-.145.031-.178.114 0 0 .031.145.114.178.084.033.146-.031.179-.114m-1.123-.267s-.036-.169-.114-.178c0 0-.146.031-.179.114 0 0 .032.146.115.179 0 0 .145-.032.178-.115m-1.152-.285s-.031-.146-.114-.179c0 0-.146.031-.179.115 0 0 .031.145.115.178.083.033.145-.031.178-.114m-1.123-.267s-.031-.146-.114-.179c0 0-.146.032-.178.115 0 0 .031.145.114.178.078.009.145-.031.178-.114m-1.147-.262s-.031-.145-.114-.178c0 0-.145.031-.178.114 0 0 .031.146.114.179.078.008.17-.037.178-.115m-1.122-.266s-.031-.146-.115-.179c0 0-.145.031-.178.115 0 0 .031.145.114.178 0 0 .17-.036.179-.114m-1.123-.267s-.036-.17-.114-.178c0 0-.146.031-.179.114 0 0 .032.145.115.178 0 0 .169-.036.178-.114m-1.152-.286s-.031-.145-.114-.178c0 0-.146.031-.179.114 0 0 .031.146.115.179 0 0 .145-.032.178-.115m-1.123-.266s-.036-.17-.114-.179c0 0-.145.031-.178.115 0 0 .031.145.114.178 0 0 .145-.031.178-.114m-1.147-.262s-.031-.145-.114-.178c0 0-.145.031-.178.114 0 0 .031.146.114.178.078.009.146-.031.178-.114m-1.122-.267s-.031-.145-.115-.178c0 0-.145.031-.178.114 0 0 .031.146.114.179.078.008.146-.031.179-.115m-1.147-.261s-.031-.146-.114-.178c0 0-.146.031-.179.114 0 0 .031.145.114.178.078.009.146-.031.179-.114m-1.123-.267s-.031-.145-.114-.178c0 0-.146.031-.179.114 0 0 .037.17.115.179 0 0 .145-.032.178-.115m-1.147-.261s-.031-.146-.114-.179c0 0-.146.032-.178.115 0 0 .036.17.114.178 0 0 .17-.036.178-.114m-1.122-.267s-.032-.145-.115-.178c0 0-.145.031-.178.114 0 0 .036.17.114.178 0 0 .146-.031.179-.114m-1.142-.237s-.031-.146-.114-.179c0 0-.146.032-.179.115 0 0 .031.145.115.178.078.009.145-.031.178-.114M200.684 405.777c7.035 2.525 16.72 5.218 28.766 8.039-.093.274-.173.494-.272.743l-.029-.019c-.078-.009-.17.036-.179.114s.032.146.115.179c-.239.66-.494 1.247-.716 1.751a.5.5 0 0 1-.214-.055 10 10 0 0 1-.532-.114c-13.585-2.897-22.152-6.058-27.551-8.757.174-.494.388-1.148.631-1.911zm27.318 8.502s-.146.031-.179.114c-.008.078.032.145.115.178.078.009.17-.036.178-.114.009-.078-.036-.17-.114-.178m-1.123-.267s-.145.031-.178.114c-.009.078.031.146.114.179.078.008.17-.037.179-.115s-.037-.169-.115-.178m-1.128-.291s-.145.031-.178.114c-.009.078.031.146.114.179.078.008.146-.031.179-.115.008-.078-.037-.169-.115-.178m-1.128-.291s-.145.031-.178.114c-.009.078.031.146.114.179.078.008.146-.031.179-.115.008-.078-.031-.145-.115-.178m-1.127-.291s-.17.036-.179.114.031.146.115.179c.083.033.145-.031.183-.09.009-.078-.031-.146-.114-.179zm-1.123-.267s-.146.032-.178.115c-.009.078.031.145.114.178s.145-.031.184-.09c.008-.078-.037-.17-.115-.178zm-1.152-.285s-.146.031-.184.09c-.008.078.037.17.115.178.078.009.145-.031.178-.114.009-.078-.031-.146-.114-.179zm-1.109-.321s-.145.031-.178.115c-.033.083.031.145.114.178s.146-.031.184-.09c0 0-.032-.146-.115-.178zm-1.128-.291s-.145.032-.183.09a.19.19 0 0 0 .09.184c.078.009.169-.036.178-.114s-.031-.146-.114-.179zm-1.128-.291s-.145.032-.178.115a.19.19 0 0 0 .09.183c.078.009.17-.036.184-.09 0 0-.037-.17-.115-.178zm-1.133-.315s-.169.037-.183.09a.19.19 0 0 0 .09.184c.078.009.17-.036.178-.114a.19.19 0 0 0-.09-.184zm-1.109-.32s-.169.036-.183.09c-.009.078.036.17.114.178a.19.19 0 0 0 .184-.09s-.037-.17-.09-.183zm-1.133-.315s-.145.031-.178.114a.19.19 0 0 0 .09.184c.078.008.17-.037.179-.115a.19.19 0 0 0-.091-.183m-1.108-.321s-.146.031-.184.09c-.009.078.036.17.09.184.083.033.17-.036.184-.09 0 0-.031-.146-.09-.184m-1.133-.315s-.146.031-.184.09c-.009.078.031.146.114.179a.2.2 0 0 0 .184-.091s-.031-.145-.09-.183zm-1.109-.32s-.17.036-.184.09c-.033.083.031.145.09.183 0 0 .146-.031.184-.09 0 0-.037-.17-.09-.183m-1.114-.345s-.17.036-.184.09c-.033.083.031.146.09.184.083.033.146-.031.184-.09 0 0-.031-.146-.09-.184m-1.109-.32s-.146.031-.184.09a.2.2 0 0 0 .09.183c.084.033.146-.031.184-.09 0 0-.031-.145-.09-.183m-1.114-.345s-.17.036-.184.09c-.008.078.037.17.09.184.084.033.17-.037.184-.09 0 0-.031-.146-.09-.184m-1.114-.345s-.17.037-.184.09c-.033.084.032.146.09.184.084.033.17-.036.184-.09a.19.19 0 0 0-.09-.184m-1.119-.369s-.146.032-.184.091c-.033.083.037.169.09.183a.19.19 0 0 0 .184-.09s-.031-.145-.09-.184m-1.095-.374s-.146.031-.184.09c-.033.084.031.146.09.184.083.033.146-.031.184-.09 0 0-.031-.146-.09-.184m-1.119-.369s-.146.032-.184.091c-.033.083.031.145.09.183.083.033.146-.031.184-.09a.2.2 0 0 0-.09-.184m-1.095-.374s-.146.031-.184.09c-.033.084.031.146.09.184.083.033.146-.031.184-.09a.19.19 0 0 0-.09-.184m-1.095-.374s-.146.031-.184.09c-.033.083.031.146.09.184.083.033.151-.007.184-.09a.19.19 0 0 0-.09-.184"/><path fill="#232826" d="M200.888 405.176s-.056.214-.108.327c7.031 2.501 16.697 5.223 28.772 8.063.099-.249.168-.518.262-.791l-.215-.056a10 10 0 0 1-.532-.114c-13.708-2.998-22.543-5.517-28.179-7.429M229.515 413.855l.064-.293-.048.01c-.033.084-.061.191-.094.274 0 0 .049-.01.054.014zM229.246 414.722s-.026-.121-.085-.159l-.099.249c.078.009.146-.031.179-.114zM256.019 419.513c5.724.904 12.29 1.83 18.231 2.56-.224.378-.501.742-.757.848-6.615-.561-12.439-1.342-18.063-2.013.194-.397.372-.867.589-1.395m.048.7s-.036-.17-.114-.179-.145.032-.154.11.031.145.114.178c0 0 .146-.031.154-.109m1.156.183s-.036-.169-.114-.178-.146.031-.179.114c-.008.078.031.146.134.149.078.009.145-.031.154-.109zm1.15.16s-.036-.17-.114-.179-.145.031-.178.115c-.009.078.031.145.114.178.078.009.146-.031.154-.109zm1.151.159s-.037-.17-.115-.179c-.072.016-.145.032-.149.134-.008.078.032.145.11.154s.145-.031.154-.109m1.174.154s-.036-.17-.138-.173c-.078-.009-.146.031-.149.133-.009.078.031.146.133.149.078.009.146-.031.154-.109m1.151.159s-.037-.17-.115-.178c-.078-.009-.169.036-.178.114s.031.146.114.179c.078.008.146-.032.155-.11zm1.15.16s-.036-.17-.114-.179c-.073.016-.146.031-.173.139-.009.078.031.145.133.149.078.008.145-.032.154-.109m10.132 1.227s.031.145.133.149c.078.008.146-.031.154-.109 0 0-.036-.17-.138-.174-.078-.008-.17.037-.149.134m-1.17-.13s.031.146.134.149c.078.009.145-.031.154-.109 0 0-.037-.17-.115-.179-.072.016-.169.037-.149.134zm-1.145-.135s.031.145.133.149c.078.009.146-.031.155-.109 0 0-.032-.146-.134-.149-.078-.009-.145.031-.149.133zm-1.169-.13s.031.146.133.149c.078.009.146-.031.154-.109 0 0-.036-.17-.114-.178-.073.015-.17.036-.149.133zm-1.146-.135s.032.146.115.179c.073-.016.145-.032.154-.11s-.031-.145-.133-.149c-.078-.008-.17.037-.149.134zm-1.15-.159s.031.145.134.149c.077.009.145-.031.154-.109 0 0-.037-.17-.139-.174-.078-.008-.145.032-.149.134m-1.169-.13s.031.146.133.149c.078.009.146-.031.154-.109s-.031-.146-.133-.149c-.078-.009-.146.031-.149.133zm-1.151-.159s.032.145.115.178c.078.009.145-.031.154-.109 0 0-.037-.17-.139-.173-.078-.009-.145.031-.149.133zm-1.174-.154s.031.145.138.173c.078.009.146-.031.154-.109 0 0-.036-.17-.138-.173-.078-.009-.146.031-.179.114zM274.733 421.133l-.58-.104a1035 1035 0 0 1-17.596-3.026c-.135.435-.28.821-.426 1.207a475 475 0 0 0 18.28 2.551c.204-.349.317-.652.317-.652z"/><path fill="#232826" d="M230.566 410.355c-.596 2.665-1.554 5.534-3.059 8.216l-.26-.147c4.469-7.91 4.028-17.658 4.013-17.731l.301-.014s.212 4.42-.99 9.7zM200.816 403.416c-.381 1.655-.906 3.467-1.65 5.2l-.279-.118c2.182-5.085 2.509-11.015 2.498-11.064l.283.016s-.133 2.692-.876 5.972zM256.584 416.117c-.454 2.026-1.202 4.216-2.444 6.232l-.26-.147c3.596-5.946 3.06-13.416 3.045-13.489l.301-.014s.252 3.421-.666 7.424z"/><path fill="#232826" d="M275.433 415.631c-56.519-24.008-76.552-19.358-82.527-16.225a2.3 2.3 0 0 0-1.209 1.578 2.31 2.31 0 0 0 .416 1.941c4.049 5.398 20.115 18.214 81.472 20.89.151-.007 1.405-.073 2.254-3.806.848-3.734-.275-4.356-.412-4.402zm-1.826 7.697c-61.128-2.674-77.066-15.366-81.099-20.691a1.9 1.9 0 0 1-.328-1.528c.114-.532.473-.989.951-1.244 5.907-3.093 25.776-7.682 82.075 16.246 0 0 .873.523.111 3.832s-1.734 3.391-1.734 3.391z"/><path fill="url(#h)" d="M17.258 406.873c11.418 15.158 59.212 55.268 248.199 63.509 0 0 3.602.116 6.115-11.001 2.517-11.094-.792-12.566-.792-12.566-174.101-73.941-234.51-58.351-251.349-49.566-3.536 1.849-4.582 6.437-2.173 9.624"/><path fill="url(#i)" d="M45.358 390.397c-.637 16.55-7.281 32.891-7.638 33.83-11.198-6.91-17.243-13.097-20.44-17.359-2.384-3.192-1.338-7.78 2.174-9.624 4.724-2.459 12.837-5.441 25.904-6.847"/><path fill="#232826" d="M268.988 462.826s-1.384 4.076-2.948 4.945c-20.223-1.677-38.82-3.576-55.949-5.611 1.054-2.306 2.263-5.305 3.411-8.824a3289 3289 0 0 0 53.726 9.208zM134.509 426.865c-3.641 16.027-9.931 27.751-10.016 27.947l-.313-.161c.147-.26 14.267-26.575 12.303-54.314l.35-.024c.654 9.322-.499 18.499-2.319 26.576zM43.424 406.818c-2.27 10-5.363 17.462-5.415 17.575l-.333-.132c.066-.166 7.006-16.9 7.677-33.889l.36.024c-.223 5.705-1.161 11.386-2.289 16.422M213.83 445.175c-2.755 12.235-7.847 21.14-7.924 21.258l-.318-.186c.109-.2 11.485-20.144 9.373-41.356l.35-.024c.722 7.151-.087 14.149-1.481 20.308"/><path fill="url(#j)" d="M40.988 421.726a143 143 0 0 0 2.468-7.657c17.283 5.833 44.25 13.522 86.065 22.67.532.115 1.093.248 1.625.362l.317.059a121 121 0 0 1-4.392 11.698c-.239-.05-.132-.022-.341-.053-.557-.11-1.118-.243-1.674-.352-41.441-8.823-67.632-18.454-84.092-26.722zm84.86 25.923s-.2.017-.232.101c-.033.083-.007.204.1.232.083.033.204.007.232-.101l-.005-.024a.2.2 0 0 0-.12-.203zm.58-1.317s-.199.018-.232.101a.19.19 0 0 0 .1.232c.089.057.2-.017.232-.1a.24.24 0 0 0-.095-.208zm.526-1.33s-.199.017-.232.1.018.2.101.232a.19.19 0 0 0 .232-.1s-.042-.194-.125-.227zm.522-1.355s-.199.017-.232.1c-.033.084.017.2.1.233s.199-.018.232-.101a.2.2 0 0 0-.119-.203zm.521-1.355s-.199.017-.232.101a.19.19 0 0 0 .1.232c.084.033.2-.018.233-.101 0 0-.042-.194-.125-.227zm1.774-5.099s.194-.041.227-.124c.032-.084-.042-.194-.125-.227-.108-.028-.194.041-.227.124-.033.084.017.2.125.227m-.444 1.364s.194-.042.232-.101c0 0-.041-.194-.124-.227-.108-.027-.194.042-.227.125s.041.194.124.227zm-.467 1.369s.199-.018.232-.101c0 0-.042-.194-.125-.227-.107-.028-.194.042-.232.101a.19.19 0 0 0 .1.232zm-.497 1.349s.199-.017.232-.1c0 0-.042-.194-.125-.227a.19.19 0 0 0-.232.1.19.19 0 0 0 .1.232z"/><path fill="#232826" d="M133.279 423.021s.042.194.149.222c.102.003.194-.042.198-.144 0 0-.042-.194-.149-.222-.108-.027-.194.042-.222.149zM130.921 432.837s.041.194.124.227c.108.027.194-.042.227-.125 0 0-.041-.194-.125-.227-.107-.028-.194.041-.226.125M132.999 424.427s.041.194.149.222c.083.033.194-.042.197-.144 0 0-.042-.194-.149-.222s-.194.042-.222.149zM132.32 427.666s.041.194.149.222.194-.042.227-.125c.027-.107-.042-.194-.149-.222-.108-.027-.194.042-.227.125M132.688 425.837s.042.194.149.222c.108.027.194-.042.222-.149.028-.108-.042-.194-.149-.222-.108-.028-.194.042-.227.125zM131.302 431.438s.042.194.125.226c.107.028.194-.041.227-.124.027-.108-.042-.194-.125-.227-.107-.028-.194.041-.227.125M130.531 434.214s.042.194.125.227c.107.028.194-.042.227-.125 0 0-.042-.194-.125-.227-.107-.027-.194.042-.227.125M123.845 451.68s-.007.205.077.238c.083.032.204.006.237-.077 0 0-.042-.194-.101-.232-.083-.033-.204-.007-.237.076zM122.573 454.263s-.012.18.052.242c.088.057.204.007.242-.052l-.01-.048s.017-.156-.047-.219c-.088-.057-.204-.007-.243.052zM124.458 450.383s-.007.204.076.237c.084.033.205.007.238-.076l-.011-.049s-.012-.175-.095-.208-.204-.007-.237.076zM130.11 435.571s.042.194.125.227c.108.028.194-.042.227-.125 0 0-.041-.194-.125-.227-.107-.027-.194.042-.227.125M125.062 449.062s-.007.204.076.237.204.007.232-.1c0 0-.041-.194-.1-.233-.089-.057-.205-.006-.238.077zM123.215 452.982s-.007.204.076.237c.088.057.18.012.237-.076l-.005-.024a.24.24 0 0 0-.095-.208c-.089-.057-.205-.007-.238.076zM135.025 404.431s.09.183.192.187c.097-.021.17-.037.173-.139l-.01-.048c-.021-.097-.09-.184-.192-.187-.097.02-.184.09-.188.192zM135.034 405.875s.09.184.192.187c.073-.015.164-.06.173-.138-.026-.122-.095-.208-.197-.212-.097.021-.184.09-.187.193zM135.018 407.325s.09.184.168.192c.072-.015.169-.036.173-.138-.026-.122-.095-.208-.173-.217-.103-.003-.189.066-.193.168zM134.966 408.76s.066.188.168.192c.072-.016.169-.037.173-.139-.026-.121-.071-.213-.173-.216-.103-.004-.189.065-.193.168zM134.95 401.582s.09.184.187.163c.072-.015.164-.06.173-.138l-.01-.049c-.021-.097-.091-.184-.193-.187-.097.021-.183.09-.163.187zM134.865 400.128s.09.184.187.163a.23.23 0 0 0 .174-.139l-.011-.048c-.021-.097-.09-.184-.187-.163s-.184.09-.163.187M135 403.016s.09.184.193.187a.23.23 0 0 0 .173-.138l-.011-.049s-.066-.189-.168-.192c-.097.021-.183.09-.187.192M133.539 421.623s.042.194.149.221c.103.004.194-.041.198-.143 0 0-.042-.195-.149-.222-.102-.004-.194.041-.198.144M134.892 410.193s.065.189.168.193c.072-.016.169-.037.197-.144l-.005-.025c.003-.102-.066-.188-.168-.192-.102-.003-.189.066-.192.168M134.392 415.907s.042.194.168.192c.102.003.194-.042.198-.144.003-.102-.042-.194-.144-.198-.102-.003-.194.042-.198.144zM134.548 414.503s.042.194.168.193c.102.003.17-.037.198-.144 0 0-.047-.219-.174-.217-.102-.003-.194.042-.192.168M134.692 413.053s.066.188.168.192a.183.183 0 0 0 .197-.144s-.046-.218-.173-.216c-.102-.004-.194.041-.192.168M134.818 411.629s.066.188.168.192c.073-.016.17-.036.173-.139 0 0-.071-.213-.173-.216s-.189.066-.192.168zM133.786 420.197s.042.194.144.198c.102.003.194-.042.198-.144 0 0-.042-.194-.149-.222-.103-.003-.194.042-.198.144zM133.994 418.783s.042.194.144.198c.102.003.194-.042.198-.144 0 0-.042-.194-.149-.222-.103-.003-.195.042-.198.144zM134.216 417.341s.041.194.144.197.194-.041.197-.144c0 0-.042-.194-.149-.221-.102-.004-.194.041-.197.143zM210.087 452.8l-.016-.073c.342.053.712.126 1.054.18.769.038-1.483 5.391-2.321 7.398-.274.616-.717 1.625-.824 1.597-.6-.074-1.535-.178-2.105-.234-29.991-3.692-55.348-7.896-76.748-12.339 1.331-3.025 2.886-7.012 4.393-11.698 21.363 4.629 46.463 9.649 75.971 14.992.107.028.21.031.293.064 0 0-.024.005-.044.035-.032.083.042.194.125.227.108.027.194-.042.232-.101zm-3.239 7.848s-.199.017-.232.1c-.057.089-.007.205.076.238s.205.007.232-.101c0 0-.041-.194-.1-.232zm.58-1.317s-.199.018-.232.101.018.199.101.232.204.007.232-.101a.24.24 0 0 0-.095-.208zm.551-1.336s-.199.018-.232.101a.19.19 0 0 0 .1.232c.084.033.2-.017.233-.1 0 0-.042-.195-.125-.227zm.527-1.33s-.2.017-.232.1c-.033.083.017.2.1.232a.19.19 0 0 0 .232-.1s-.041-.194-.1-.232m.521-1.355s-.199.017-.232.1c-.033.084.017.2.1.233.084.033.2-.018.232-.101 0 0-.041-.194-.124-.227zm.497-1.35s-.199.018-.232.101a.19.19 0 0 0 .1.232c.084.033.2-.017.227-.125a.19.19 0 0 0-.1-.232zM210.62 449.946s.041.194.124.227c.108.028.194-.042.227-.125 0 0-.041-.194-.124-.227-.084-.033-.194.042-.227.125M210.181 451.332s.041.194.125.227c.107.028.194-.041.226-.125 0 0-.041-.194-.124-.227-.108-.027-.194.042-.227.125M211.372 447.195s.041.194.124.227c.108.027.194-.042.227-.125s-.041-.194-.124-.227c-.108-.028-.195.042-.227.125M211.004 448.569s.042.194.125.227c.108.028.194-.042.227-.125 0 0-.042-.194-.125-.227s-.194.042-.227.125M211.73 445.776s.042.194.125.227c.107.027.194-.042.222-.149.027-.108-.042-.194-.125-.227-.108-.028-.194.041-.227.124zM206.012 462.071s-.007.204.076.237.205.007.237-.076c0 0-.041-.194-.1-.232-.083-.033-.204-.007-.232.1zM212.039 444.39s.042.194.149.222.194-.042.222-.149c.033-.084-.042-.194-.144-.198-.102-.003-.194.042-.222.149zM204.761 464.649s-.007.204.076.237c.089.057.205.007.243-.052l.014-.054c.008-.077-.031-.145-.096-.207-.083-.033-.204-.007-.237.076M205.397 463.344s-.007.204.076.237c.089.057.205.007.238-.076l-.006-.024a.24.24 0 0 0-.095-.208c-.083-.033-.204-.007-.237.076zM204.074 465.91s-.036.185.052.242c.088.058.185.037.242-.052 0 0-.005-.024.014-.053a.19.19 0 0 0-.09-.184c-.088-.057-.204-.007-.267.057zM213.634 433.014s.066.189.168.192c.073-.015.17-.036.197-.143l-.005-.025c.004-.102-.066-.189-.168-.192s-.189.066-.192.168M213.677 431.556s.09.184.168.193c.097-.021.17-.037.173-.139l-.005-.024c.003-.103-.066-.189-.168-.193-.102-.003-.189.066-.192.168zM213.702 430.13s.09.184.192.187c.097-.021.17-.036.173-.138l-.005-.025c-.021-.097-.09-.183-.192-.187-.097.021-.184.09-.187.193zM213.683 426.024s.09.184.187.163c.073-.016.141-.055.149-.133l-.01-.049c-.021-.097-.085-.159-.187-.163-.097.021-.184.09-.163.187zM213.533 434.429s.066.189.168.192c.073-.016.17-.036.197-.144 0 0-.071-.213-.173-.216s-.189.066-.192.168M213.259 437.304s.042.194.168.193c.073-.016.17-.037.198-.144 0 0-.047-.218-.174-.217-.102-.003-.194.042-.197.144zM212.857 440.157s.041.194.144.197.194-.042.197-.144c0 0-.042-.194-.149-.221-.102-.004-.194.041-.197.143zM213.078 438.715s.042.194.144.197.194-.041.197-.144c0 0-.041-.194-.149-.221-.102-.004-.194.041-.197.143zM212.625 441.549s.041.194.143.197c.103.004.194-.041.198-.144 0 0-.042-.194-.149-.221-.083-.033-.194.041-.222.149zM212.346 442.98s.041.194.149.222c.102.003.194-.042.221-.149.028-.108-.041-.194-.149-.222-.102-.003-.194.042-.221.149M213.413 435.876s.041.194.168.192c.102.004.17-.036.197-.143 0 0-.071-.214-.173-.217s-.189.066-.192.168M133.22 431.508c-37.92-8.487-68.421-15.748-90.663-21.634l.102-.352c22.242 5.887 52.744 13.148 90.663 21.635l-.078.346zM271.225 460.852l-3.444-.683a9062 9062 0 0 1-54.939-11.434l.078-.346c17.351 3.662 35.828 7.489 54.939 11.434l3.444.682zM215.48 429.703l-.107.328c-28.462-9.576-54.89-17.356-78.58-23.134l.078-.347c23.69 5.779 50.142 13.553 78.604 23.129zM133.747 429.946s-.042-.194-.149-.221c0 0-.195.041-.222.149 0 0 .041.194.149.221.107.028.194-.041.222-.149m-1.47-.344s-.041-.194-.149-.222c0 0-.194.042-.221.149 0 0 .041.194.149.222s.194-.042.221-.149m-1.351-.269s-.042-.194-.149-.221c0 0-.194.041-.222.149 0 0 .042.194.149.221.108.028.194-.041.222-.149m-1.415-.33s-.042-.195-.149-.222c0 0-.194.041-.222.149 0 0 .041.194.149.222s.194-.042.222-.149m-1.386-.312s-.042-.194-.149-.222c0 0-.194.042-.222.149 0 0 .041.194.149.222s.194-.042.222-.149m-1.411-.307s-.041-.194-.149-.221c0 0-.194.041-.221.149 0 0 .041.194.149.221.107.028.194-.041.221-.149m-1.415-.33s-.042-.194-.149-.222c0 0-.194.041-.222.149 0 0 .042.194.149.222.108.027.194-.042.222-.149m-1.41-.307s-.042-.194-.149-.222c0 0-.194.042-.222.149 0 0 .041.194.149.222s.194-.042.222-.149m-1.386-.312s-.042-.194-.149-.221c0 0-.194.041-.222.149 0 0 .041.194.149.221.107.028.194-.041.222-.149m-1.416-.33s-.041-.194-.149-.222c0 0-.194.041-.222.149 0 0 .042.194.149.222.108.027.194-.042.222-.149m-1.41-.307s-.042-.194-.149-.222c0 0-.194.042-.222.149 0 0 .042.194.149.222.108.028.194-.041.222-.149m-1.415-.331s-.042-.194-.15-.221c0 0-.194.041-.221.149 0 0 .041.194.149.221.107.028.194-.041.222-.149m-1.386-.311s-.042-.194-.15-.222c0 0-.194.041-.221.149 0 0 .041.194.149.222s.194-.042.222-.149m-1.416-.331s-.042-.194-.149-.222c0 0-.194.042-.222.149 0 0 .042.194.149.222.108.028.194-.042.222-.149m-1.41-.307s-.042-.194-.125-.227c0 0-.194.042-.222.149 0 0 .042.194.149.222.108.028.194-.041.222-.149zm-1.391-.336s-.042-.194-.149-.221c0 0-.194.041-.222.149 0 0 .041.194.149.221.107.028.194-.041.222-.149m-1.411-.306s-.041-.194-.149-.222c0 0-.194.042-.221.149 0 0 .041.194.149.222s.194-.042.221-.149m-1.415-.331s-.042-.194-.149-.222c0 0-.194.042-.222.149 0 0 .042.194.149.222 0 0 .194-.041.222-.149m-1.41-.306s-.042-.194-.125-.227c0 0-.194.041-.222.149 0 0 .042.194.125.227.107.027.194-.042.222-.149m-1.392-.336s-.041-.194-.149-.222c0 0-.194.042-.221.149 0 0 .041.194.149.222s.194-.042.221-.149m-1.415-.331s-.042-.194-.149-.222c0 0-.194.042-.222.149 0 0 .042.194.149.222.108.028.194-.042.222-.149m-1.386-.312s-.042-.194-.149-.221c0 0-.194.041-.222.149 0 0 .042.194.149.221.108.028.194-.041.222-.149m-1.415-.33s-.042-.195-.149-.222c0 0-.194.041-.222.149 0 0 .041.194.149.222s.194-.042.222-.149m-1.416-.331s-.041-.194-.149-.222c0 0-.194.042-.222.149 0 0 .042.194.149.222 0 0 .194-.042.227-.125zm-1.391-.336s-.042-.194-.15-.222c0 0-.193.042-.22.149 0 0 .04.194.148.222s.194-.042.222-.149m-1.41-.307s-.042-.194-.15-.221c0 0-.193.041-.221.149 0 0 .042.194.149.221 0 0 .194-.041.222-.149m-1.416-.33s-.041-.194-.149-.222c0 0-.194.041-.222.149 0 0 .042.194.15.222s.194-.042.221-.149m-1.39-.336s-.043-.194-.15-.222c0 0-.194.041-.222.149 0 0 .042.194.15.222s.193-.042.221-.149m-1.416-.331s-.042-.194-.15-.222c0 0-.193.042-.221.149 0 0 .041.194.149.222 0 0 .194-.042.222-.149m-1.392-.336s-.041-.194-.149-.222c0 0-.194.042-.221.149 0 0 .041.194.149.222 0 0 .194-.042.227-.125zm-1.41-.307s-.041-.194-.149-.221c0 0-.194.041-.222.149 0 0 .042.194.15.221 0 0 .194-.041.221-.149m-1.391-.336s-.042-.194-.149-.221c0 0-.194.041-.222.149 0 0 .042.194.15.221.107.028.193-.041.221-.149m-1.416-.33s-.041-.194-.148-.222c0 0-.195.042-.222.149 0 0 .041.194.149.222s.194-.042.221-.149m-1.39-.336s-.042-.194-.125-.227c0 0-.194.041-.222.149 0 0 .041.194.149.222s.194-.042.227-.125zm-1.416-.331s-.042-.194-.125-.227c0 0-.194.042-.222.149 0 0 .042.194.15.222s.193-.042.226-.125zm-1.391-.336s-.042-.194-.15-.222c0 0-.193.042-.221.149 0 0 .042.194.149.222 0 0 .194-.042.222-.149m-1.416-.331s-.041-.194-.124-.227c0 0-.195.042-.227.125 0 0 .041.194.149.222 0 0 .194-.042.221-.149zm-1.39-.336s-.042-.194-.12-.202c0 0-.195.041-.227.124 0 0 .041.194.124.227 0 0 .194-.041.222-.149m-1.416-.33s-.042-.195-.125-.227c0 0-.194.041-.227.124 0 0 .041.194.149.222 0 0 .194-.042.222-.149zm-1.392-.336s-.041-.194-.124-.227c0 0-.194.041-.227.124 0 0 .041.194.124.227 0 0 .195-.041.222-.149zm-1.415-.331s-.042-.194-.125-.227c0 0-.194.041-.227.125 0 0 .042.194.15.221 0 0 .193-.041.221-.149zm-1.396-.36s-.042-.194-.125-.227c0 0-.194.041-.227.124 0 0 .041.194.149.222s.194-.041.222-.149zm-1.392-.336s-.041-.194-.124-.227c0 0-.194.041-.227.124 0 0 .041.194.149.222 0 0 .194-.041.227-.125zm-1.39-.336s-.042-.194-.15-.222c0 0-.194.042-.227.125 0 0 .042.194.15.221 0 0 .193-.041.226-.124m-1.416-.331s-.042-.194-.15-.222c0 0-.193.042-.226.125 0 0 .041.194.149.222 0 0 .194-.042.227-.125m-1.391-.336s-.042-.194-.15-.222c0 0-.194.042-.226.125 0 0 .041.194.124.227 0 0 .194-.042.227-.125zm-1.397-.36s-.041-.194-.149-.222c0 0-.194.042-.222.149 0 0 .042.194.125.227 0 0 .194-.042.227-.125zm-1.415-.331s-.042-.194-.15-.222c0 0-.193.042-.226.125 0 0 .041.194.125.227 0 0 .194-.042.227-.125zm-1.397-.36s-.041-.194-.149-.222c0 0-.194.042-.227.125 0 0 .042.194.125.227 0 0 .194-.042.227-.125zm-1.39-.336s-.042-.194-.15-.222c0 0-.194.042-.227.125 0 0 .042.194.125.227 0 0 .194-.042.227-.125zm-1.421-.355s-.042-.194-.15-.222c0 0-.194.042-.227.125 0 0 .042.194.125.227 0 0 .194-.042.227-.125zm-1.392-.336s-.041-.194-.149-.222c0 0-.194.042-.227.125 0 0 .042.194.125.227 0 0 .194-.042.227-.125zm-1.396-.36s-.042-.194-.15-.222c0 0-.193.042-.22.149 0 0 .04.194.124.227 0 0 .194-.042.227-.125zm-1.391-.336s-.042-.194-.125-.227c0 0-.194.041-.227.125 0 0 .042.194.125.226 0 0 .194-.041.227-.124m-1.397-.361s-.041-.194-.124-.226c0 0-.194.041-.227.124 0 0 .041.194.124.227 0 0 .194-.041.227-.125m-1.42-.355s-.042-.194-.125-.226c0 0-.194.041-.227.124 0 0 .042.194.125.227 0 0 .194-.041.227-.125m-1.397-.36s-.041-.194-.124-.227c0 0-.194.042-.227.125 0 0 .041.194.149.222 0 0 .194-.042.226-.125zm-1.39-.336s-.042-.194-.126-.227c0 0-.194.042-.227.125 0 0 .042.194.125.227 0 0 .194-.042.227-.125m-1.397-.36s-.042-.194-.15-.222c0 0-.193.042-.226.125 0 0 .041.194.149.222 0 0 .194-.042.227-.125m-1.397-.36s-.041-.194-.149-.222c0 0-.194.042-.227.125 0 0 .042.194.125.227 0 0 .194-.042.227-.125zm-1.396-.36s-.042-.194-.15-.222c0 0-.193.042-.226.125 0 0 .041.194.125.227 0 0 .194-.042.227-.125zm-1.397-.361s-.041-.194-.124-.226c0 0-.194.041-.227.124 0 0 .041.194.125.227 0 0 .194-.041.227-.125m-1.396-.36s-.042-.194-.125-.227c0 0-.194.042-.227.125 0 0 .042.194.125.227 0 0 .194-.042.227-.125m-1.377-.389s-.042-.194-.12-.203c0 0-.194.042-.227.125 0 0 .042.194.125.227 0 0 .194-.042.227-.125zm-1.397-.361s-.041-.194-.124-.227c0 0-.194.042-.227.125 0 0 .041.194.124.227 0 0 .195-.041.227-.125M271.148 459.192s-.042-.194-.149-.222c0 0-.194.042-.222.149 0 0 .042.194.149.222.108.028.194-.042.198-.144zm-1.405-.282s-.042-.194-.149-.222c0 0-.194.042-.222.149 0 0 .042.194.144.198.102.003.194-.042.222-.149zm-1.429-.277s-.042-.194-.149-.222c0 0-.194.042-.198.144 0 0 .042.194.144.197.107.028.194-.041.197-.143zm-1.411-.307s-.041-.194-.149-.221c0 0-.194.041-.197.143 0 0 .042.194.144.198.107.028.194-.042.221-.149zm-1.405-.282s-.041-.194-.149-.222c0 0-.194.042-.221.149 0 0 .041.194.143.198.108.027.194-.042.222-.149zm-1.405-.282s-.041-.194-.149-.222c0 0-.194.042-.221.149 0 0 .041.194.143.198.103.003.194-.042.222-.149zm-1.434-.302s-.042-.194-.149-.221c0 0-.194.041-.222.149 0 0 .042.194.149.221.083.033.194-.041.198-.143zm-1.381-.287s-.042-.194-.149-.222c0 0-.194.042-.197.144 0 0 .041.194.149.222s.194-.042.221-.149zm-1.429-.277s-.042-.194-.149-.222c0 0-.194.042-.222.149 0 0 .042.194.149.222s.194-.042.197-.144zm-1.411-.307s-.041-.194-.149-.221c0 0-.194.041-.221.149 0 0 .041.194.149.221 0 0 .194-.041.197-.143zm-1.405-.282s-.041-.194-.149-.222c0 0-.194.042-.197.144 0 0 .042.194.149.222.102.003.194-.042.222-.149zm-1.405-.282s-.041-.194-.149-.222c0 0-.194.042-.221.149 0 0 .041.194.149.222.083.033.194-.042.197-.144zm-1.41-.307s-.041-.194-.149-.221c0 0-.194.041-.197.144 0 0 .041.194.149.221.083.033.194-.041.197-.144m-1.405-.282s-.042-.194-.149-.222c0 0-.194.042-.197.144 0 0 .041.194.149.222 0 0 .194-.042.221-.149zm-1.41-.306s-.042-.194-.144-.198c0 0-.194.042-.222.149 0 0 .042.194.149.222.103.003.194-.042.222-.149zm-1.405-.283s-.042-.194-.149-.221c0 0-.194.041-.222.149 0 0 .042.194.144.197.107.028.194-.041.222-.149zm-1.405-.282s-.042-.194-.149-.222c0 0-.194.042-.198.144 0 0 .042.194.149.222.108.028.194-.042.222-.149zm-1.411-.306s-.041-.194-.149-.222c0 0-.194.042-.221.149 0 0 .041.194.149.222.102.003.194-.042.197-.144zm-1.405-.283s-.041-.194-.149-.221c0 0-.194.041-.221.149 0 0 .041.194.144.197 0 0 .194-.041.221-.149zm-1.405-.282s-.041-.194-.149-.222c0 0-.194.042-.221.149 0 0 .041.195.149.222.083.033.194-.041.197-.144zm-1.41-.306s-.041-.194-.149-.222c0 0-.194.042-.222.149 0 0 .042.194.144.197.108.028.194-.041.222-.149zm-1.405-.283s-.042-.194-.149-.221c0 0-.194.041-.197.144 0 0 .041.194.149.221.107.028.194-.041.221-.149zm-1.41-.306s-.042-.194-.144-.198c0 0-.194.042-.222.15 0 0 .042.194.149.221.083.033.194-.041.198-.144zm-1.405-.282s-.042-.194-.149-.222c0 0-.194.042-.222.149 0 0 .042.194.149.222s.194-.042.222-.149m-1.41-.307s-.042-.194-.149-.222c0 0-.194.042-.222.149 0 0 .041.195.149.222.083.033.194-.041.197-.144zm-1.405-.282s-.042-.194-.15-.222c0 0-.194.042-.221.149 0 0 .041.194.149.222.083.033.194-.042.197-.144zm-1.411-.307s-.041-.194-.149-.221c0 0-.194.041-.222.149 0 0 .042.194.144.197.103.004.194-.041.222-.149zm-1.405-.282s-.041-.194-.149-.222c0 0-.194.042-.197.144 0 0 .041.194.149.222s.194-.042.221-.149zm-1.41-.306s-.042-.194-.149-.222c0 0-.194.042-.222.149 0 0 .042.194.144.197 0 0 .194-.041.222-.149zm-1.405-.283s-.042-.194-.149-.221c0 0-.194.041-.222.149 0 0 .042.194.144.197.107.028.194-.041.222-.149zm-1.435-.301s-.041-.194-.149-.222c0 0-.194.042-.197.144 0 0 .042.194.149.222 0 0 .194-.042.222-.149zm-1.405-.282s-.041-.194-.149-.222c0 0-.194.042-.221.149 0 0 .041.194.149.222s.194-.042.221-.149m-1.41-.307s-.041-.194-.149-.221c0 0-.194.041-.222.149 0 0 .042.194.144.197.108.028.194-.041.222-.149zm-1.405-.282s-.042-.194-.149-.222c0 0-.194.042-.222.149 0 0 .042.194.144.198.108.028.194-.042.222-.149zm-1.41-.306s-.042-.194-.144-.198c0 0-.194.042-.222.149 0 0 .042.194.149.222.102.003.194-.042.222-.149zm-1.41-.307s-.042-.194-.149-.222c0 0-.194.042-.198.144 0 0 .042.194.149.222.108.028.194-.042.222-.149zm-1.405-.282s-.042-.194-.149-.222c0 0-.195.042-.222.149 0 0 .041.194.149.222s.194-.042.222-.149m-1.411-.307s-.041-.194-.149-.221c0 0-.194.041-.221.149 0 0 .041.194.149.221.107.028.194-.041.221-.149m-1.429-.277s-.042-.194-.149-.221c0 0-.194.041-.222.149 0 0 .042.194.149.221.108.028.194-.041.222-.149m-1.41-.306s-.042-.194-.149-.222c0 0-.194.042-.222.149 0 0 .042.194.149.222s.194-.042.222-.149m-1.411-.307s-.041-.194-.149-.221c0 0-.194.041-.221.149 0 0 .041.194.149.221.083.033.194-.041.197-.143zm-1.405-.282s-.041-.194-.149-.222c0 0-.194.042-.221.149 0 0 .041.194.149.222s.194-.041.221-.149M214.099 427.862s-.036-.17-.119-.202c0 0-.194.041-.227.124 0 0 .017.2.1.232 0 0 .194-.041.232-.1zm-1.363-.443s-.037-.17-.12-.203c0 0-.194.042-.227.125 0 0 .042.194.125.227 0 0 .194-.042.232-.101zm-1.388-.438s-.042-.194-.119-.203c0 0-.2.017-.233.101 0 0 .042.194.101.232 0 0 .194-.042.227-.125zm-1.369-.468s-.036-.17-.119-.203c0 0-.194.042-.227.125 0 0 .041.194.125.227 0 0 .194-.042.232-.1zm-1.363-.443s-.042-.194-.12-.203c0 0-.194.042-.232.101 0 0 .018.199.101.232 0 0 .194-.042.227-.125zm-1.369-.468s-.041-.194-.119-.203c0 0-.194.042-.232.101 0 0 .017.199.1.232 0 0 .194-.042.227-.125zm-1.363-.443s-.042-.194-.12-.203c0 0-.194.042-.227.125 0 0 .042.194.125.227 0 0 .194-.042.227-.125zm-1.388-.438s-.042-.194-.12-.203c0 0-.194.041-.232.1 0 0 .042.194.125.227 0 0 .199-.017.232-.1zm-1.363-.444s-.037-.17-.12-.203c0 0-.194.042-.227.125 0 0 .042.194.125.227 0 0 .194-.041.227-.125zm-1.369-.467s-.042-.194-.12-.203c0 0-.194.041-.227.125 0 0 .042.194.125.227 0 0 .194-.042.232-.101zm-1.364-.444s-.036-.17-.119-.203c0 0-.194.042-.227.125 0 0 .041.194.125.227 0 0 .194-.041.227-.125zm-1.387-.438s-.037-.17-.12-.203c0 0-.194.042-.227.125 0 0 .042.194.101.232 0 0 .194-.041.227-.125zm-1.364-.443s-.036-.17-.119-.203c0 0-.194.042-.227.125 0 0 .041.194.124.227 0 0 .194-.042.227-.125zm-1.382-.414s-.037-.17-.12-.203c0 0-.194.042-.227.125 0 0 .042.194.125.227 0 0 .194-.042.227-.125zm-1.364-.444s-.036-.169-.119-.202c0 0-.195.041-.227.124 0 0 .041.194.124.227 0 0 .194-.041.227-.124zm-1.388-.438s-.036-.17-.119-.202c0 0-.194.041-.227.124 0 0 .041.194.125.227 0 0 .194-.041.227-.125zm-1.358-.419s-.042-.194-.119-.203c0 0-.195.042-.227.125 0 0 .041.194.124.227 0 0 .194-.042.227-.125zm-1.388-.438s-.041-.194-.119-.203c0 0-.194.042-.227.125 0 0 .041.194.125.227 0 0 .194-.042.227-.125zm-1.387-.438s-.042-.194-.12-.203c0 0-.194.042-.227.125 0 0 .042.194.125.227 0 0 .194-.042.227-.125zm-1.359-.419s-.041-.194-.119-.203c0 0-.194.042-.227.125 0 0 .041.194.125.227 0 0 .194-.042.227-.125zm-1.382-.414s-.042-.194-.125-.227c0 0-.194.041-.227.125 0 0 .042.194.125.226 0 0 .194-.041.227-.124m-1.388-.438s-.042-.195-.12-.203c0 0-.194.041-.226.125 0 0 .041.194.124.227 0 0 .194-.042.227-.125zm-1.358-.42s-.042-.194-.12-.202c0 0-.194.041-.227.124 0 0 .042.195.125.227 0 0 .194-.041.227-.124zm-1.407-.408s-.042-.194-.12-.203c0 0-.194.042-.227.125 0 0 .042.194.125.227 0 0 .194-.042.227-.125zm-1.358-.419s-.042-.194-.125-.227c0 0-.194.041-.227.124 0 0 .042.194.125.227 0 0 .194-.041.227-.124m-1.383-.414s-.041-.194-.119-.203c0 0-.194.042-.227.125 0 0 .041.194.124.227 0 0 .194-.042.227-.125zm-1.382-.414s-.042-.194-.125-.227c0 0-.194.041-.227.125 0 0 .041.194.125.226 0 0 .194-.041.227-.124m-1.383-.414s-.042-.194-.12-.203c0 0-.194.042-.226.125 0 0 .041.194.124.227 0 0 .194-.042.227-.125zm-1.383-.414s-.041-.194-.119-.203c0 0-.194.042-.227.125 0 0 .042.194.125.227 0 0 .194-.042.227-.125zm-1.382-.414s-.042-.194-.125-.227c0 0-.194.042-.227.125 0 0 .042.194.125.227 0 0 .194-.042.227-.125m-1.402-.384s-.041-.195-.119-.203c0 0-.194.041-.227.125 0 0 .041.194.125.227 0 0 .194-.042.227-.125zm-1.382-.414s-.042-.194-.125-.227c0 0-.194.041-.227.124 0 0 .042.194.125.227 0 0 .194-.041.227-.124m-1.378-.39s-.041-.194-.124-.227c0 0-.194.042-.227.125 0 0 .041.194.125.227 0 0 .194-.042.226-.125m-1.382-.414s-.042-.194-.12-.203c0 0-.194.042-.227.125 0 0 .042.194.125.227 0 0 .194-.042.227-.125zm-1.377-.39s-.042-.194-.125-.227c0 0-.194.042-.227.125 0 0 .042.194.125.227 0 0 .194-.041.227-.125m-1.407-.408s-.042-.194-.125-.227c0 0-.194.041-.227.124 0 0 .042.194.125.227 0 0 .194-.041.227-.124m-1.378-.39s-.041-.194-.119-.203c0 0-.194.042-.227.125 0 0 .042.194.125.227 0 0 .194-.042.227-.125zm-1.401-.384s-.042-.195-.125-.227c0 0-.194.041-.227.124 0 0 .042.194.125.227 0 0 .194-.041.227-.124m-1.377-.39s-.042-.194-.125-.227c0 0-.194.042-.227.125 0 0 .041.194.125.227 0 0 .194-.042.227-.125m-1.402-.385s-.042-.194-.125-.227c0 0-.194.042-.227.125 0 0 .042.194.125.227 0 0 .194-.041.227-.125m-1.372-.365s-.042-.194-.125-.227c0 0-.194.042-.227.125 0 0 .042.194.125.227 0 0 .194-.042.227-.125m-1.402-.384s-.041-.195-.125-.227c0 0-.194.041-.226.124 0 0 .041.194.124.227 0 0 .194-.041.227-.124m-1.377-.39s-.042-.194-.125-.227c0 0-.194.042-.227.125 0 0 .042.194.125.227 0 0 .194-.042.227-.125m-1.402-.385s-.041-.194-.124-.227c0 0-.195.042-.227.125 0 0 .041.194.124.227 0 0 .194-.041.227-.125m-1.396-.36s-.042-.194-.125-.227c0 0-.194.042-.227.125 0 0 .042.194.125.227 0 0 .194-.042.227-.125m-1.402-.384s-.041-.194-.119-.203c0 0-.194.042-.227.125 0 0 .041.194.125.227 0 0 .194-.042.227-.125zm-1.372-.366s-.041-.194-.125-.227c0 0-.194.042-.227.125 0 0 .042.194.125.227 0 0 .194-.042.227-.125m-1.396-.36s-.042-.194-.125-.227c0 0-.194.042-.227.125 0 0 .042.194.125.227 0 0 .194-.042.227-.125m-1.397-.36s-.041-.194-.124-.227c0 0-.194.042-.227.125 0 0 .041.194.124.227 0 0 .194-.042.227-.125m-1.396-.36s-.042-.194-.125-.227c0 0-.194.041-.227.125 0 0 .042.194.125.226 0 0 .194-.041.227-.124m-1.396-.361s-.042-.194-.125-.226c0 0-.194.041-.222.149 0 0 .042.194.125.226 0 0 .194-.041.227-.124zm-1.397-.36s-.041-.194-.149-.221c0 0-.194.041-.222.149 0 0 .042.194.125.226 0 0 .194-.041.227-.124zm-1.396-.36s-.042-.194-.149-.222c0 0-.194.042-.222.149 0 0 .042.194.125.227 0 0 .194-.041.227-.124zm-1.416-.331s-.041-.194-.149-.221c0 0-.194.041-.227.124 0 0 .042.194.125.227 0 0 .194-.041.227-.124zm-1.396-.36s-.042-.194-.149-.222c0 0-.194.042-.227.125 0 0 .042.194.125.227 0 0 .194-.042.227-.125zm-1.391-.336s-.042-.194-.149-.222c0 0-.194.042-.227.125 0 0 .041.194.125.227 0 0 .194-.042.227-.125zM41.32 408.464s.041.194.148.221c.108.028.194-.041.222-.149s-.041-.194-.125-.227c-.107-.027-.194.042-.227.125zM40.986 409.854s.042.194.125.227.194-.042.227-.125c0 0-.042-.194-.15-.222s-.193.042-.226.125zM41.873 407.257a.173.173 0 1 1-.074-.339.173.173 0 0 1 .074.339M41.983 405.632s.042.194.149.222.194-.042.222-.149c.003-.102-.042-.194-.15-.222s-.193.042-.197.144zM37.559 420.84s.017.199.1.232.2-.017.232-.1c0 0-.041-.194-.1-.232-.083-.033-.2.017-.232.1M36.508 423.524s.017.199.1.232.205.007.238-.076l-.006-.024a.24.24 0 0 0-.095-.208c-.083-.033-.2.017-.232.1zM40.235 412.626s.042.194.125.227.194-.041.227-.125c0 0-.042-.194-.125-.227-.107-.027-.194.042-.227.125M37.032 422.193s.017.2.1.232c.084.033.2-.017.233-.1 0 0-.042-.194-.1-.232-.084-.033-.2.017-.233.1M42.264 404.228s.042.194.15.221c.082.033.193-.041.197-.143 0 0-.042-.195-.15-.222-.107-.028-.193.041-.221.149zM40.625 411.25s.042.194.125.227c.107.028.194-.041.227-.125 0 0-.042-.194-.125-.227-.107-.027-.194.042-.227.125M43.432 397.126s.041.194.144.198c.102.003.194-.042.197-.144 0 0-.047-.218-.173-.217-.102-.003-.194.042-.198.144zM43.588 395.725s.041.194.168.192c.102.004.17-.036.197-.144 0 0-.047-.218-.173-.216-.102-.004-.194.042-.192.168M43.23 398.568s.041.194.144.197.194-.041.197-.144c0 0-.042-.194-.149-.221-.102-.004-.194.041-.197.143zM43.026 399.979s.042.194.144.198c.102.003.194-.042.197-.144 0 0-.041-.194-.149-.222-.102-.003-.194.042-.197.144zM43.931 391.413s.066.189.168.193c.073-.016.17-.037.173-.139 0 0-.07-.213-.173-.216-.097.02-.189.065-.192.168zM43.729 394.273s.066.189.168.193a.185.185 0 0 0 .197-.144s-.07-.213-.173-.217c-.102-.003-.194.042-.192.168M43.857 392.848s.066.189.168.193c.102.003.17-.037.198-.144.003-.103-.066-.189-.168-.193-.103-.003-.19.066-.193.168zM42.547 402.822s.042.194.15.222c.102.003.194-.042.197-.144 0 0-.042-.194-.15-.222-.101-.003-.193.042-.22.149zM42.802 401.397s.041.194.144.197c.107.028.194-.041.197-.143 0 0-.041-.194-.149-.222s-.194.041-.197.144z"/><path fill="url(#k)" d="M26.669 407.797c3.406 1.452 7.666 3.101 12.985 4.954.523.192 1.041.36 1.564.552.546.061-.713 3.299-1.156 4.663-.341 1.011-.69 2.938-1.003 2.777-.51-.246-1.2-.631-1.662-.887-5.876-3.154-10.305-6.061-13.668-8.612-3.172-2.136-7.722-6.793-6.402-8.801.634-.947.057 1.688 9.337 5.33zm11.593 11.595s-.2.017-.232.1c-.028.107.041.194.1.232.083.033.2-.017.232-.1 0 0-.041-.194-.124-.227zm.492-1.374s-.2.017-.232.1c-.033.083.017.199.1.232s.2-.017.232-.1c0 0-.041-.194-.124-.227zm.443-1.364s-.2.017-.227.125c-.027.107.042.194.125.227s.2-.018.227-.125c0 0-.042-.194-.125-.227m.438-1.388s-.194.042-.227.125c-.027.108.042.194.125.227.108.028.194-.042.227-.125.028-.107-.042-.194-.125-.227m.414-1.382s-.194.041-.227.125c-.028.107.042.194.125.227.107.027.194-.042.227-.125 0 0-.042-.194-.125-.227"/><path fill="url(#l)" d="M232.594 459.798c.376.097.34.638-.059.672-3.889.2-10.245 1.436-10.072 7.335q-.002.343.068.67c.997 7.727 14.817 13.973 14.817 13.973l-9.007-2.255-30.053-7.535s-3.02-11.479-10.975-16.521c-.908-.566-.519-1.944.552-1.92 8.103.166 25.065 1.07 44.753 5.576z"/><path fill="url(#m)" d="M169.644 478.446c4.361 5.788 22.642 21.123 94.854 24.262 0 0 1.377.035 2.345-4.206s-.295-4.808-.295-4.808c-66.535-28.253-89.635-22.286-96.05-18.957a2.474 2.474 0 0 0-.835 3.68z"/><path fill="#232826" d="M266.626 493.475c-65.948-27.999-89.294-22.588-96.274-18.935-.705.38-1.226 1.024-1.386 1.819a2.63 2.63 0 0 0 .479 2.232c4.723 6.293 23.456 21.253 95.055 24.371.156.017 1.609-.066 2.581-4.41.971-4.343-.293-5.036-.455-5.077m-2.109 8.976c-71.37-3.117-89.97-17.927-94.658-24.178a2.21 2.21 0 0 1-.39-1.819 2.22 2.22 0 0 1 1.127-1.484c6.913-3.613 30.094-8.964 95.823 18.955 0 0 1.044.613.154 4.508s-2.085 3.999-2.085 3.999z"/><path fill="#232826" d="M178.795 480.899c.209.031-.177 1.306-.345 1.824-.121.381-.823 2.434-.935 2.382-.196-.085-1.329-.755-1.501-.845-2.235-1.195-4.212-3.435-4.62-4.159.722.175 1.337-.033 1.573-.236.249-.257.287-.671.277-1.074a90 90 0 0 0 4.949 1.907c.191.06.387.145.602.201M213.426 490.038c-.578 1.798-1.267 3.316-1.758 4.461-.078-.009-.883 2.27-1.098 2.214-15.843-3.376-26.164-8.089-32.474-11.252.672-1.007 1.218-3.077 1.566-4.293 6.594 2.239 16.909 5.152 32.886 8.678.215.055.425.086.615.147l.239.05zM243.732 496.026c.306.01-.575 2.051-.891 2.829-.098.249-1.086 2.389-1.328 2.441-.234-.026-21.893-2.841-30.071-4.538 1.131-1.942 2.046-4.776 2.629-6.55 8.169 1.774 17.76 3.676 29.032 5.724.209.031.424.087.634.118zM265.859 499.827s-.979 2.772-2.036 2.695c-7.725-.653-14.661-.586-21.221-1.362.749-1.124 1.609-3.617 2.053-4.981a1311 1311 0 0 0 20.54 3.512l.683.107zM244.393 494.485a2462 2462 0 0 1-30.434-6.591l.05-.239a2458 2458 0 0 0 30.435 6.591zM214.972 483.036l-.05.239c-14.453-3.396-26.194-5.623-34.931-6.616l.021-.258c8.737.993 20.502 3.215 34.955 6.61zM267.082 495.001l-.099.25c-7.386-2.856-15.123-5.814-21.615-8.05l.074-.245c6.492 2.236 14.23 5.195 21.621 8.075zM244.68 493.69s-.031-.145-.109-.154c0 0-.146.031-.154.109 0 0 .031.146.109.154s.146-.031.154-.109m-.986-.22s-.031-.145-.109-.154c0 0-.145.031-.154.109 0 0 .031.146.109.154s.146-.031.154-.109m-1.01-.214s-.031-.146-.109-.155c0 0-.145.032-.154.11 0 0 .031.145.109.154.078.008.146-.031.154-.109m-1.004-.191s-.032-.145-.11-.154c0 0-.145.031-.154.109 0 0 .031.146.109.154s.146-.031.155-.109m-.986-.22s-.031-.145-.109-.154c0 0-.146.031-.155.109 0 0 .032.146.11.154s.145-.031.154-.109m-1.01-.214s-.032-.146-.109-.155c0 0-.146.032-.155.109 0 0 .032.146.11.155.077.008.145-.032.154-.109m-.986-.22s-.031-.146-.109-.155c0 0-.146.032-.154.11 0 0 .031.145.109.154.078.008.145-.031.154-.109m-1.01-.215s-.031-.146-.109-.154c0 0-.146.031-.154.109 0 0 .031.145.109.154 0 0 .145-.031.154-.109m-1.01-.215s-.031-.145-.109-.154c0 0-.146.031-.155.109 0 0 .026.121.11.154.083.033.145-.031.154-.109m-.981-.196s-.031-.145-.109-.154c0 0-.121.026-.154.109 0 0 .031.146.109.155.078.008.146-.032.154-.11m-1.01-.214s-.031-.146-.109-.154c0 0-.146.031-.154.109 0 0 .031.145.109.154s.146-.031.154-.109m-.986-.22s-.031-.146-.109-.154c0 0-.145.031-.154.109 0 0 .026.121.109.154s.146-.031.154-.109m-1.01-.215s-.031-.145-.109-.154c0 0-.145.031-.154.109 0 0 .031.146.109.154s.146-.031.154-.109m-1.01-.215s-.031-.145-.109-.154c0 0-.145.031-.154.109 0 0 .031.146.109.155.078.008.146-.032.154-.11m-.985-.22s-.032-.145-.11-.154c0 0-.145.031-.154.109 0 0 .031.146.109.155 0 0 .146-.032.155-.11m-1.011-.214s-.031-.146-.109-.154c0 0-.145.031-.154.109 0 0 .031.145.109.154s.146-.031.154-.109m-.985-.22s-.032-.146-.109-.154c0 0-.146.031-.155.109 0 0 .032.145.11.154.077.009.145-.031.154-.109m-1.01-.215s-.032-.145-.11-.154c0 0-.145.031-.154.109 0 0 .032.146.109.154.078.009.146-.031.155-.109m-.986-.22s-.031-.145-.109-.154c0 0-.146.031-.154.109 0 0 .031.146.109.154 0 0 .145-.031.154-.109m-1.01-.215s-.031-.145-.109-.154c0 0-.146.031-.155.109 0 0 .032.146.11.155.078.008.145-.032.154-.11m-.986-.219s-.031-.146-.109-.155c0 0-.146.032-.154.11 0 0 .026.121.109.154s.145-.032.159-.085zm-1.01-.215s-.031-.146-.109-.154c0 0-.146.031-.154.109 0 0 .031.145.109.154s.145-.031.154-.109m-.986-.22s-.031-.146-.109-.154c0 0-.145.031-.154.109 0 0 .031.145.109.154 0 0 .146-.031.154-.109m-1.01-.215s-.031-.145-.109-.154c0 0-.146.031-.154.109 0 0 .031.146.109.154s.146-.031.154-.109m-.986-.22s-.031-.145-.109-.154c0 0-.145.031-.154.109 0 0 .031.146.109.154s.146-.031.154-.109m-1.01-.214s-.031-.146-.109-.155c0 0-.145.032-.154.109 0 0 .031.146.109.155.078.008.146-.032.154-.109m-.985-.22s-.032-.146-.11-.155c0 0-.145.032-.154.11 0 0 .031.145.109.154.078.008.146-.031.155-.109m-1.011-.215s-.031-.146-.109-.154c0 0-.145.031-.154.109 0 0 .031.145.109.154s.146-.031.154-.109m-.985-.22s-.031-.146-.109-.154c0 0-.146.031-.155.109 0 0 .032.145.11.154.077.009.145-.031.154-.109m-.991-.244s-.031-.146-.109-.154c0 0-.146.031-.155.109 0 0 .032.145.11.154s.145-.031.154-.109m-1.01-.215s-.032-.145-.109-.154c0 0-.146.031-.155.109 0 0 .032.146.11.154 0 0 .145-.031.154-.109M215.017 482.419s-.026-.121-.109-.154c0 0-.146.031-.16.085 0 0 .031.145.085.159 0 0 .146-.031.154-.109zm-.991-.244s-.031-.146-.109-.154c0 0-.146.031-.155.109 0 0 .032.145.11.154.053.014.145-.031.154-.109m-.986-.22s-.031-.146-.109-.154c0 0-.146.031-.154.109 0 0 .031.145.109.154 0 0 .145-.031.154-.109m-1.015-.239s-.031-.146-.109-.154c0 0-.146.031-.16.085 0 0 .031.145.085.159s.146-.031.154-.109zm-.986-.22s-.031-.145-.109-.154c0 0-.146.031-.154.109 0 0 .031.146.109.154s.145-.031.154-.109m-.986-.22s-.031-.145-.109-.154c0 0-.145.031-.154.109 0 0 .031.146.109.154s.146-.031.154-.109m-1.015-.239s-.031-.145-.109-.154c0 0-.146.031-.154.109 0 0 .031.146.109.154s.145-.031.154-.109m-.986-.22s-.031-.145-.109-.154c0 0-.146.031-.154.109 0 0 .031.146.109.154s.146-.031.154-.109m-1.01-.215s-.031-.145-.109-.154c0 0-.146.032-.154.109 0 0 .031.146.109.155 0 0 .145-.032.159-.085zm-.986-.219s-.031-.146-.109-.155c0 0-.145.032-.154.11 0 0 .031.145.109.154.078.008.146-.031.154-.109m-1.01-.215s-.031-.146-.109-.154c0 0-.145.031-.154.109 0 0 .031.145.109.154s.146-.031.154-.109m-.985-.22s-.032-.146-.11-.154c0 0-.145.031-.154.109 0 0 .031.145.109.154s.146-.031.155-.109m-1.005-.191s-.032-.145-.109-.154c0 0-.146.031-.155.109 0 0 .032.146.109.155.078.008.146-.032.155-.11m-1.01-.214s-.032-.146-.11-.154c0 0-.145.031-.154.109 0 0 .031.145.109.154s.146-.031.155-.109m-.986-.22s-.031-.146-.109-.154c0 0-.146.031-.155.109 0 0 .032.145.11.154.053.014.145-.031.154-.109m-1.005-.191s-.031-.145-.109-.154c0 0-.146.031-.154.109 0 0 .031.146.109.155.054.013.121-.026.154-.11m-1.01-.214s-.031-.146-.109-.155c0 0-.146.032-.154.11 0 0 .031.145.109.154 0 0 .121-.026.154-.109m-1.005-.191s-.031-.145-.109-.154c0 0-.146.031-.154.109 0 0 .031.146.109.154.054.014.145-.031.154-.109m-1.005-.19s-.031-.146-.109-.154c0 0-.145.031-.154.109 0 0 .031.145.109.154.078.008.146-.031.154-.109m-1.005-.191s-.031-.145-.109-.154c0 0-.145.031-.154.109 0 0 .031.146.109.154s.146-.031.154-.109m-.98-.195s-.031-.146-.109-.155c0 0-.146.032-.155.11 0 0 .032.145.11.154.072-.016.145-.031.154-.109m-1.029-.186s-.031-.145-.109-.154c0 0-.146.031-.155.109 0 0 .032.146.11.154.072-.015.145-.031.154-.109m-1-.166s-.031-.145-.109-.154c0 0-.146.031-.154.109 0 0 .031.146.109.154s.145-.031.154-.109m-1.005-.19s-.031-.146-.109-.155c0 0-.145.032-.154.11 0 0 .031.145.109.154.073-.016.121-.026.13-.104zm-.999-.167s-.032-.145-.11-.154c0 0-.145.031-.154.109 0 0 .031.146.109.155.073-.016.146-.032.155-.11m-1.005-.19s-.031-.146-.109-.154c0 0-.146.031-.155.109 0 0 .032.145.11.154s.145-.031.154-.109m-1.024-.161s-.031-.146-.109-.154c0 0-.146.031-.154.109 0 0 .031.145.109.154.072-.016.121-.026.13-.104zm-1-.166s-.031-.146-.109-.155c0 0-.145.032-.154.11 0 0 .031.145.109.154s.146-.031.154-.109m-.994-.142s-.031-.146-.109-.154c0 0-.146.031-.155.109 0 0 .032.145.11.154.072-.016.121-.026.13-.104zm-1.024-.161s-.031-.146-.109-.154c0 0-.146.031-.154.109 0 0 .031.145.109.154 0 0 .121-.026.13-.104zm-1.024-.161s-.031-.146-.109-.154c0 0-.146.031-.13.103 0 0 .031.146.109.155q.117.012.13-.104m-.994-.142s-.032-.146-.11-.154c0 0-.145.031-.154.109 0 0 .031.145.109.154.073-.016.122-.026.13-.104zm-1.014-.113s-.031-.145-.109-.154c0 0-.146.031-.154.109 0 0 .031.146.109.154.073-.015.121-.026.13-.104zm-1.019-.137s-.031-.145-.109-.154c0 0-.121.026-.13.104 0 0 .031.146.109.154 0 0 .122-.026.13-.104m-1.018-.136s-.032-.146-.109-.154c0 0-.146.031-.13.103 0 0 .031.146.109.155.048-.011.121-.026.13-.104M266.516 494.262s-.026-.121-.08-.135c0 0-.151.007-.164.06 0 0 .026.122.084.16 0 0 .122-.026.165-.061zm-.944-.381s-.026-.121-.08-.135c0 0-.151.007-.165.06 0 0 .026.122.085.16 0 0 .151-.007.165-.061zm-.969-.376s-.026-.121-.08-.135c0 0-.145.031-.164.06 0 0 .031.146.06.165 0 0 .151-.007.165-.061zm-.944-.381s-.026-.121-.08-.135c0 0-.121.026-.159.085 0 0 .026.121.06.164 0 0 .146-.031.16-.085zm-.944-.381s-.026-.121-.08-.135c0 0-.121.026-.165.06 0 0 .032.146.085.16 0 0 .122-.026.16-.085m-.964-.352s-.026-.121-.079-.135c0 0-.151.007-.165.061 0 0 .031.145.085.159 0 0 .146-.031.165-.06zm-.944-.381s-.026-.121-.08-.135c0 0-.145.031-.164.061 0 0 .031.145.061.164 0 0 .145-.031.164-.06zm-.968-.376s-.026-.121-.08-.135c0 0-.146.031-.165.061 0 0 .032.145.085.159 0 0 .146-.031.165-.06zm-.939-.356s-.026-.122-.08-.136c0 0-.146.032-.165.061 0 0 .032.146.061.165 0 0 .146-.032.159-.085zm-.969-.376s-.026-.122-.085-.16c0 0-.145.032-.164.061 0 0 .031.146.06.165 0 0 .146-.032.165-.061zm-.939-.357s-.026-.121-.08-.135c0 0-.121.026-.164.06 0 0 .026.122.06.165 0 0 .122-.026.165-.061zm-.968-.376s-.026-.121-.08-.135c0 0-.151.007-.165.061 0 0 .026.121.085.159 0 0 .122-.026.165-.061zm-.964-.351s-.026-.122-.079-.136c0 0-.151.007-.165.061 0 0 .031.146.085.159 0 0 .121-.026.165-.06zm-.939-.357s-.026-.122-.085-.16c0 0-.145.032-.159.085 0 0 .031.146.085.16 0 0 .145-.032.165-.061zm-.968-.376s-.026-.121-.085-.159c0 0-.146.031-.159.084 0 0 .031.146.084.16 0 0 .146-.031.16-.085m-.963-.352s-.026-.121-.08-.135c0 0-.121.026-.159.085 0 0 .031.146.06.165 0 0 .146-.032.16-.085zm-.939-.357s-.026-.121-.085-.159c0 0-.146.031-.16.085 0 0 .026.121.085.159 0 0 .146-.031.16-.085m-.964-.351s-.026-.121-.085-.159c0 0-.145.031-.159.084 0 0 .031.146.085.16 0 0 .145-.031.159-.085m-.963-.352s-.026-.121-.085-.159c0 0-.145.031-.159.085 0 0 .031.145.085.159 0 0 .145-.031.159-.085m-.963-.351s-.026-.122-.085-.16c0 0-.146.032-.16.085 0 0 .007.151.085.16 0 0 .146-.032.16-.085m-.958-.328s-.026-.121-.085-.159c0 0-.146.031-.16.085 0 0 .032.145.085.159 0 0 .146-.031.16-.085m-.964-.351s-.026-.121-.085-.16c0 0-.145.032-.159.085 0 0 .031.146.085.16 0 0 .146-.031.165-.061zm-.963-.352s-.026-.121-.085-.159c0 0-.145.031-.159.085 0 0 .031.145.085.159 0 0 .145-.031.159-.085"/><path fill="#232826" d="M214.508 486.079c-1.4 6.135-3.809 10.634-3.847 10.693l-.231-.128s5.436-10.146 4.692-20.717l.242-.052c.264 3.597-.174 7.115-.881 10.209zM179.707 478.419c-.852 3.836-2.044 6.679-2.058 6.733l-.225-.104s2.674-6.459 2.935-12.933l.258.021c-.091 2.176-.436 4.355-.886 6.278zM244.827 493.075c-1.05 4.69-3.007 8.103-3.026 8.132l-.23-.128s4.389-7.689 3.567-15.783l.242-.052c.286 2.755-.022 5.459-.558 7.807z"/><path fill="#232826" d="m237.429 482.228-.203.475c-.593-.279-14.796-6.773-15.005-14.846-.172-6.127 6.379-7.405 10.316-7.615 0 0 .073-.016.063-.064-.011-.049-.016-.073-.07-.087-19.556-4.483-36.397-5.413-44.699-5.561a.724.724 0 0 0-.747.54c-.069.269-.034.667.343.891 7.951 5.018 11.059 16.554 11.104 16.646l-.51.109s-3.086-11.439-10.86-16.343a1.32 1.32 0 0 1-.571-1.476 1.22 1.22 0 0 1 1.253-.903c8.302.148 25.197 1.093 44.807 5.59.293.064.476.329.466.636a.594.594 0 0 1-.542.547c-3.739.193-10.003 1.384-9.847 7.083.219 7.767 14.565 14.331 14.707 14.402z"/><path fill="#232826" d="m213.386 475.408-.243.052c-.026-.121-1.954-11.479-4.456-19.72l.242-.052c2.498 8.216 4.431 19.599 4.457 19.72M214.331 475.665l-.01-.048s-.075-.111-.147-.095c0 0-.111.074-.096.147 0 0 .075.111.148.095a.14.14 0 0 0 .105-.099m-.189-.999-.01-.049s-.075-.11-.147-.095c0 0-.111.075-.096.147 0 0 .075.111.148.096a.14.14 0 0 0 .105-.099m-.194-1.024-.01-.048s-.075-.111-.148-.096c0 0-.11.075-.095.148 0 0 .075.11.147.095a.14.14 0 0 0 .106-.099m-.165-1.005-.01-.048s-.074-.111-.147-.096c0 0-.111.075-.095.148 0 0 .074.111.147.095a.13.13 0 0 0 .105-.099m-.213-.994-.01-.049s-.075-.111-.147-.095c0 0-.111.075-.096.147 0 0 .075.111.148.096a.14.14 0 0 0 .105-.099m-.189-1-.01-.048s-.075-.111-.147-.096c0 0-.111.075-.096.148 0 0 .075.111.148.095a.14.14 0 0 0 .105-.099m-.189-.999-.01-.049s-.075-.111-.147-.095c0 0-.111.074-.096.147 0 0 .075.111.148.095a.14.14 0 0 0 .105-.098m-.218-1.019-.01-.049s-.075-.11-.148-.095c0 0-.111.075-.095.147 0 0 .075.111.147.096a.14.14 0 0 0 .106-.099m-.213-.994-.011-.049s-.074-.111-.147-.095c0 0-.111.074-.095.147 0 0 .074.111.147.095a.14.14 0 0 0 .106-.098m-.189-1-.011-.049s-.074-.11-.147-.095c0 0-.111.075-.095.147 0 0 .074.111.147.096a.14.14 0 0 0 .106-.099m-.238-.989-.01-.049s-.074-.111-.147-.095c0 0-.111.074-.096.147 0 0 .075.111.148.095a.14.14 0 0 0 .105-.098m-.218-1.019-.01-.048s-.075-.111-.148-.096c0 0-.111.075-.095.148 0 0 .075.11.147.095a.14.14 0 0 0 .106-.099m-.237-.989-.011-.049s-.074-.111-.147-.095c0 0-.111.075-.095.147 0 0 .074.111.147.096a.14.14 0 0 0 .106-.099m-.214-.995-.01-.048s-.099-.106-.147-.095c0 0-.111.074-.096.147 0 0 .075.111.148.095a.13.13 0 0 0 .105-.099m-.261-.984-.011-.048s-.098-.106-.147-.095c0 0-.111.074-.095.147 0 0 .074.111.147.095a.14.14 0 0 0 .106-.099m-.243-1.013-.01-.049s-.075-.11-.148-.095c0 0-.11.075-.095.147 0 0 .075.111.147.096a.14.14 0 0 0 .106-.099m-.262-.984-.01-.049s-.099-.105-.147-.095c0 0-.111.075-.096.147 0 0 .099.106.148.096.048-.011.091-.045.081-.094zm-.261-.984-.011-.049s-.074-.11-.147-.095c0 0-.106.099-.095.147 0 0 .098.106.147.096.048-.011.092-.045.081-.094zm-.262-.984-.016-.073s-.098-.105-.147-.095c0 0-.106.099-.095.147 0 0 .099.106.147.095.049-.01.092-.045.081-.093zm-.286-.979-.016-.073s-.098-.105-.171-.09c0 0-.106.099-.095.148 0 0 .098.105.171.09.049-.011.068-.04.082-.094z"/><path fill="#232826" d="M211.782 467.913s-9.066-1.938-12.093-1.974c-2.924-.032-3.096 1.653-3.104 1.731l-.259-.021s.206-1.997 3.36-1.963c3.05.031 12.063 1.955 12.146 1.988z"/><path fill="#232826" d="M211.393 468.58s-.031-.145-.109-.154c0 0-.146.031-.154.109 0 0 .031.146.109.154.072-.015.145-.031.154-.109m-1.01-.215s-.031-.145-.109-.154c0 0-.146.031-.155.109 0 0 .026.122.11.154.083.033.145-.031.154-.109m-1.005-.19s-.031-.146-.109-.154c0 0-.146.031-.154.109 0 0 .031.145.109.154.054.014.121-.026.154-.109m-1.005-.191s-.031-.145-.109-.154c0 0-.146.031-.154.109 0 0 .031.146.109.155.073-.016.145-.032.154-.11m-1.005-.19s-.031-.146-.109-.154c0 0-.145.031-.154.109 0 0 .031.145.109.154.054.014.146-.031.154-.109m-1.005-.191s-.031-.145-.109-.154c0 0-.145.031-.154.109 0 0 .031.146.109.155.073-.016.146-.032.154-.11m-.999-.166s-.031-.145-.109-.154c0 0-.146.031-.155.109 0 0 .032.146.11.154 0 0 .121-.026.154-.109m-1.029-.185s-.031-.146-.109-.154c0 0-.146.031-.155.109 0 0 .032.145.11.154.053.014.121-.026.129-.104zm-.995-.142s-.031-.146-.109-.154c0 0-.145.031-.154.109 0 0 .031.146.109.154.073-.015.121-.026.13-.104zm-1.018-.137s-.032-.145-.11-.154c0 0-.121.026-.13.104 0 0 .032.146.11.154.048-.01.121-.026.13-.104m-1.014-.112s-.031-.146-.109-.154c0 0-.146.031-.154.109 0 0 .031.145.104.13.072-.016.121-.026.13-.104zm-1.027-.059s-.056-.14-.134-.149c0 0-.116.05-.124.128 0 0 .05.116.128.125.048-.011.121-.026.13-.104m-1.026.068-.01-.049s-.075-.111-.148-.095c0 0-.11.074-.095.147 0 0 .075.111.147.095a.14.14 0 0 0 .106-.098m-.979.286-.015-.073s-.099-.106-.167-.066c0 0-.105.099-.065.166 0 0 .098.106.166.066.048-.01.062-.064.081-.093m-.814.58-.026-.121s-.137-.047-.175.012c0 0-.047.137.012.175 0 0 .137.047.175-.012l.038-.059zm-.44.906s-.031-.145-.109-.154c0 0-.146.031-.125.128 0 0 .031.146.104.13s.122-.026.13-.104M222.953 465.949s-.026-.121-.085-.159c0 0-.145.031-.159.085 0 0 .031.145.085.159 0 0 .145-.031.159-.085m-.982-.322s-.026-.121-.085-.159c0 0-.145.031-.159.085 0 0 .026.121.085.159 0 0 .145-.031.159-.085m-.972-.273s-.031-.146-.085-.16c0 0-.145.031-.159.085 0 0 .031.146.085.159 0 0 .145-.031.159-.084m-.991-.245s-.031-.145-.109-.154c0 0-.146.031-.154.109 0 0 .031.146.109.155 0 0 .145-.032.154-.11m-.986-.22s-.031-.145-.109-.154c0 0-.145.031-.154.109 0 0 .031.146.109.155.078.008.146-.032.154-.11m-1.01-.214s-.031-.146-.109-.154c0 0-.145.031-.154.109 0 0 .031.145.109.154s.146-.031.154-.109m-1.01-.215s-.031-.145-.109-.154c0 0-.121.026-.154.109 0 0 .031.146.109.154.054.014.121-.026.154-.109m-1.005-.19s-.031-.146-.109-.155c0 0-.145.032-.154.11 0 0 .031.145.109.154.073-.016.146-.031.154-.109m-1.004-.191s-.032-.145-.11-.154c0 0-.145.031-.154.109 0 0 .031.146.109.154.054.014.122-.026.16-.085zm-1.005-.19s-.032-.146-.109-.155c0 0-.146.032-.155.11 0 0 .032.145.109.154.073-.016.122-.026.13-.104zm-1-.167s-.031-.145-.109-.154c0 0-.146.031-.154.109 0 0 .031.146.109.155.073-.016.121-.026.13-.104zM222.99 464.925l-.075.244c-.547-.187-2.145-.656-4.726-1.219a192 192 0 0 0-7.556-1.399l.046-.263s4.232.691 7.579 1.394c2.582.562 4.179 1.032 4.751 1.214zM135.259 420.184c-24.757-5.361-43.991-13.56-42.962-18.314 1.03-4.753 21.933-4.26 46.689 1.102 24.756 5.361 43.991 13.56 42.962 18.313-1.03 4.754-21.933 4.261-46.689-1.101"/><path fill="#A34023" d="M131.392 417.646c-23.127-4.512-41.12-12.039-40.189-16.812.932-4.773 20.435-4.985 43.562-.473s41.12 12.039 40.188 16.812-20.434 4.985-43.561.473"/><path fill="#CB5F32" d="M131.648 416.719c-22.616-4.412-40.227-11.695-39.335-16.267s19.949-4.701 42.565-.288 40.226 11.695 39.335 16.266c-.892 4.572-19.949 4.701-42.565.289"/><path stroke="#232826" stroke-miterlimit="10" stroke-width=".76" d="M131.395 417.646c-23.127-4.512-41.12-12.039-40.19-16.813.932-4.773 20.435-4.985 43.562-.473s41.12 12.039 40.189 16.813-20.434 4.985-43.561.473Z"/><path stroke="#232826" stroke-miterlimit="10" stroke-width=".76" d="M131.65 416.718c-22.616-4.412-40.227-11.695-39.335-16.266.892-4.572 19.949-4.701 42.565-.289s40.227 11.695 39.335 16.267-19.949 4.701-42.565.288Z"/><mask id="n" width="249" height="127" x="12" y="293" maskUnits="userSpaceOnUse" style="mask-type:luminance"><path fill="#fff" d="M92.324 400.47c-.895 4.581 16.724 11.864 39.335 16.276s41.661 4.285 42.556-.295c.565-2.81 96.247-62.721 85.87-95.505-21.193-67.021-235.098 10.498-243.86 8.799-22.61-4.412 77 66.169 76.099 70.725"/></mask><g mask="url(#n)"><g clip-path="url(#o)"><path fill="url(#p)" d="M118.844 358.08c-.337-.305-.814-.505-1.486-.532a5.4 5.4 0 0 0-1.423.156c-.027-.025-.56.085-1.28.248-1.56.352-3.867.921-3.989.947l9.261 8.363c.122-.026 2.429-.595 3.989-.947.703-.159 1.228-.267 1.275-.251l.002.008c1.476-.334 2.383-.112 2.921.373l-9.26-8.363z"/><path fill="url(#q)" d="m135.836 333.716 9.26 8.363-1.961 12.002-9.261-8.364z"/><path fill="url(#r)" d="m148.878 330.758 9.265 8.362-2 12.247-9.261-8.363z"/><path fill="url(#s)" d="m132.622 354.442 9.261 8.363-2.432 14.883-9.26-8.364z"/><path fill="url(#t)" d="m147.318 353.839 9.261 8.363c-2.153-1.942-6.904-1.234-10.654-.382-1.639.373-3.089.772-4.046.99l-9.261-8.363c.958-.219 2.407-.617 4.046-.99 3.751-.853 8.502-1.56 10.654.382"/><mask id="u" width="25" height="11" x="132" y="352" maskUnits="userSpaceOnUse" style="mask-type:luminance"><path fill="#fff" d="m147.321 353.842 9.261 8.363c-2.153-1.941-6.903-1.234-10.654-.382-1.639.374-3.088.772-4.046.991l-9.261-8.364c.958-.218 2.407-.617 4.046-.99 3.751-.852 8.502-1.559 10.654.382"/></mask><g mask="url(#u)"><path fill="url(#v)" d="m147.322 353.843 9.261 8.363c-2.153-1.942-6.904-1.234-10.655-.382-1.639.373-3.088.772-4.045.99l-9.261-8.363c.957-.219 2.406-.617 4.045-.99 3.751-.853 8.502-1.56 10.655.382"/></g><path fill="url(#w)" d="m128.961 376.836 9.261 8.363-2.683 16.41-9.261-8.364z"/><path fill="url(#x)" d="M117.404 403.813c-1.691.371-3.412.731-5.173 1.131l-9.438 2.137 9.26 8.364 9.438-2.142q1.318-.295 2.614-.573c.863-.186 1.714-.368 2.559-.558l-9.26-8.363z"/><path fill="url(#y)" d="m160.261 344.827 9.261 8.363c1.577 1.425 2.385 3.615 2.159 6.817-.439 6.321-3.707 10.792-8.266 13.949l-9.261-8.363c4.564-3.154 7.828-7.629 8.266-13.95.23-3.202-.581-5.391-2.159-6.816"/><mask id="z" width="18" height="30" x="154" y="344" maskUnits="userSpaceOnUse" style="mask-type:luminance"><path fill="#fff" d="m160.263 344.823 9.261 8.364c1.577 1.425 2.384 3.615 2.158 6.816-.438 6.321-3.707 10.793-8.266 13.95l-9.261-8.364c4.565-3.153 7.828-7.628 8.266-13.949.23-3.202-.581-5.392-2.158-6.817"/></mask><g mask="url(#z)"><path fill="url(#A)" d="m160.264 344.825 9.261 8.364c1.577 1.424 2.384 3.615 2.159 6.816-.439 6.321-3.707 10.793-8.266 13.95l-9.261-8.364c4.564-3.153 7.827-7.628 8.266-13.949.23-3.202-.582-5.392-2.159-6.817"/></g><path fill="url(#B)" d="m146.81 376.003 9.261 8.364c-2.539-2.293-8.451-1.376-13.068-.33-1.941.438-3.648.901-4.785 1.162l-9.261-8.363c1.138-.257 2.849-.721 4.785-1.162 4.617-1.047 10.533-1.964 13.068.329"/><mask id="C" width="29" height="12" x="128" y="374" maskUnits="userSpaceOnUse" style="mask-type:luminance"><path fill="#fff" d="m146.81 376.004 9.261 8.364c-2.539-2.293-8.451-1.376-13.068-.33-1.941.438-3.648.901-4.785 1.162l-9.261-8.363c1.138-.257 2.85-.721 4.785-1.162 4.617-1.047 10.533-1.964 13.068.329"/></mask><g mask="url(#C)"><path fill="url(#D)" d="m146.81 376.005 9.261 8.363c-2.539-2.293-8.451-1.376-13.068-.329-1.94.438-3.648.9-4.785 1.162l-9.261-8.364c1.138-.257 2.85-.72 4.785-1.162 4.617-1.046 10.533-1.964 13.068.33"/></g><path fill="url(#E)" d="m130.42 401.04 9.261 8.363q-.176.038-.351.08c-1.769.401-3.575.793-5.435 1.178l-9.261-8.363a304 304 0 0 0 5.786-1.258"/><mask id="F" width="16" height="10" x="124" y="401" maskUnits="userSpaceOnUse" style="mask-type:luminance"><path fill="#fff" d="m130.427 401.039 9.261 8.363q-.176.038-.351.08c-1.769.401-3.575.793-5.435 1.178l-9.261-8.363a304 304 0 0 0 5.786-1.258"/></mask><g mask="url(#F)"><path fill="url(#G)" d="m130.428 401.039 9.261 8.363q-.177.036-.351.08c-1.769.401-3.575.792-5.435 1.178l-9.261-8.363a304 304 0 0 0 5.786-1.258"/></g><path fill="url(#H)" d="m124.631 402.299 9.261 8.363-1.999 12.255-9.26-8.363z"/><path fill="url(#I)" d="m122.634 414.553 9.261 8.363-7.243 1.641-9.261-8.364z"/><path fill="url(#J)" d="m137.7 399.233 9.261 8.363-2.025 12.362-9.261-8.364z"/><path fill="url(#K)" d="m135.676 411.595 9.261 8.363-7.251 1.647-9.26-8.364z"/><path fill="url(#L)" d="m160.651 367.603 9.261 8.363c2.131 1.924 2.798 5.382 1.39 11.046-2.985 12.011-12.036 17.104-24.34 20.584l-9.261-8.363c12.308-3.485 21.358-8.579 24.34-20.584 1.408-5.665.737-9.121-1.39-11.046"/><mask id="M" width="36" height="41" x="137" y="367" maskUnits="userSpaceOnUse" style="mask-type:luminance"><path fill="#fff" d="m160.65 367.602 9.26 8.364c2.132 1.924 2.799 5.381 1.391 11.046-2.986 12.01-12.036 17.104-24.34 20.584l-9.261-8.364c12.307-3.485 21.358-8.578 24.34-20.583 1.408-5.665.737-9.122-1.39-11.047"/></mask><g mask="url(#M)"><path fill="url(#N)" d="m160.65 367.602 9.261 8.363c2.131 1.924 2.798 5.382 1.39 11.046-2.985 12.011-12.036 17.104-24.34 20.584l-9.261-8.363c12.308-3.485 21.358-8.579 24.34-20.584 1.408-5.665.737-9.121-1.39-11.046"/></g><path fill="url(#O)" d="M154.153 365.594c6.643.141 10.29 3.385 7.886 13.056-2.985 12.011-12.036 17.104-24.34 20.584l-2.023 12.365-7.252 1.643 1.994-12.197q-.177.036-.351.079c-1.769.401-3.575.793-5.435 1.179l-1.999 12.255-7.243 1.64 2.015-12.381c-1.692.371-3.412.731-5.173 1.131l-9.438 2.142 2.894-9.229c.117-.025 2.378-.501 3.942-.858.782-.176 1.361-.318 1.335-.339 2.053-.466 2.846-2.105 3.131-3.087l3.201-19.595 2.276-13.95c-.03-1.45-.701-2.985-3.638-2.325.035-.038-.519.076-1.28.248-1.56.352-3.868.921-3.989.948l1.301-7.962 10.004-2.263c1.5-.304 3.046-.684 4.624-1.075l1.993-12.241 7.248-1.641-1.962 12.001c1.946-.478 3.895-.957 5.807-1.389l1.945-11.932 7.251-1.643-2 12.247c9.223-1.28 16.155.001 15.542 8.639-.438 6.321-3.707 10.793-8.266 13.95m-24.264 26.868c6.453-1.462 16.831-4.476 18.061-12.032 1.211-7.421-7.76-6.212-14.209-4.751-1.941.438-3.648.901-4.785 1.162l-2.682 16.41c.456-.103 1.006-.216 1.622-.348q.908-.193 1.99-.436m2.731-38.025-2.431 14.882c.774-.174 1.856-.384 3.114-.672 5.382-1.219 13.941-3.782 15.059-10.613 1.096-6.729-6.327-5.804-11.696-4.587-1.639.373-3.088.772-4.046.99"/></g><path stroke="#B9AC94" stroke-miterlimit="10" stroke-width="2.216" d="M150.567 426.724c-28.545 6.12-56.646-12.059-62.766-40.604-6.12-28.544 12.06-56.646 40.604-62.765 28.545-6.12 56.646 12.059 62.766 40.604s-12.059 56.646-40.604 62.765Z"/><path fill="#B9AC94" d="M156.923 331.651c18.136 8.39 29.933 27.678 29.124 47.689 3.414-20.164-9.68-41.482-29.124-47.689M93.765 384.843c-2.215-15.659 2.734-31.739 13.305-43.493-12.495 10.112-17.992 28.135-13.305 43.493"/><path fill="url(#P)" d="M150.567 426.724c-28.545 6.12-56.646-12.059-62.766-40.604-6.12-28.544 12.06-56.646 40.604-62.765 28.545-6.12 56.646 12.059 62.766 40.604s-12.059 56.646-40.604 62.765"/><path fill="url(#Q)" d="M95.072 360.412c4.707-14.252 16.173-25.97 31.72-30.368a46.4 46.4 0 0 1 14.006-1.76"/><path fill="url(#R)" d="M152.172 420.013c-16.148 4.553-32.718.038-44.262-10.501z"/></g><path fill="#fff" d="m66.164 465.161 105.368 29.162L66.568 463.73zM72.242 462.488l57.287 15.522-56.878-16.929z"/><defs><linearGradient id="c" x1="271.54" x2="723.079" y1="420.296" y2="508.389" gradientUnits="userSpaceOnUse"><stop stop-color="#E4735D"/><stop offset="1" stop-color="#7E4033" stop-opacity="0"/></linearGradient><linearGradient id="d" x1="263.394" x2="714.933" y1="497.425" y2="585.518" gradientUnits="userSpaceOnUse"><stop stop-color="#E4735D"/><stop offset="1" stop-color="#7E4033" stop-opacity="0"/></linearGradient><linearGradient id="e" x1="262.639" x2="714.177" y1="457.732" y2="545.825" gradientUnits="userSpaceOnUse"><stop stop-color="#E4735D"/><stop offset="1" stop-color="#7E4033" stop-opacity="0"/></linearGradient><linearGradient id="f" x1="240.537" x2="197.656" y1="421.589" y2="430.782" gradientUnits="userSpaceOnUse"><stop offset=".04" stop-color="#BEF5EB"/><stop offset=".08" stop-color="#C7D3E1"/><stop offset=".47" stop-color="#ED4F35"/><stop offset="1" stop-color="#BEF5EB"/></linearGradient><linearGradient id="g" x1="272.833" x2="195.657" y1="402.816" y2="419.362" gradientUnits="userSpaceOnUse"><stop offset=".04" stop-color="#BEF5EB"/><stop offset=".08" stop-color="#C7D3E1"/><stop offset=".47" stop-color="#ED4F35"/><stop offset="1" stop-color="#BEF5EB"/></linearGradient><linearGradient id="h" x1="263.152" x2="27.502" y1="406.973" y2="457.494" gradientUnits="userSpaceOnUse"><stop offset=".04" stop-color="#BEF5EB"/><stop offset=".12" stop-color="#8FE6EF"/><stop offset=".22" stop-color="#5CD7F4"/><stop offset=".31" stop-color="#34CBF8"/><stop offset=".4" stop-color="#17C3FB"/><stop offset=".47" stop-color="#06BDFD"/><stop offset=".52" stop-color="#00BCFE"/><stop offset=".72" stop-color="#0F85D4"/><stop offset="1" stop-color="#263495"/></linearGradient><linearGradient id="i" x1="48.598" x2="17.771" y1="405.507" y2="412.116" gradientUnits="userSpaceOnUse"><stop offset=".04" stop-color="#BEF5EB"/><stop offset=".08" stop-color="#C7D3E1"/><stop offset=".47" stop-color="#ED4F35"/><stop offset="1" stop-color="#BEF5EB"/></linearGradient><linearGradient id="j" x1="91.988" x2="102.911" y1="456.38" y2="412.462" gradientUnits="userSpaceOnUse"><stop/><stop offset=".625" stop-opacity="0"/></linearGradient><linearGradient id="k" x1="32.165" x2="27.425" y1="422.24" y2="400.129" gradientUnits="userSpaceOnUse"><stop/><stop offset="1" stop-opacity="0"/></linearGradient><linearGradient id="l" x1="233.656" x2="190.582" y1="463.807" y2="473.042" gradientUnits="userSpaceOnUse"><stop offset=".04" stop-color="#BEF5EB"/><stop offset=".08" stop-color="#C7D3E1"/><stop offset=".47" stop-color="#ED4F35"/><stop offset="1" stop-color="#BEF5EB"/></linearGradient><linearGradient id="m" x1="263.619" x2="173.565" y1="478.492" y2="497.799" gradientUnits="userSpaceOnUse"><stop offset=".04" stop-color="#BEF5EB"/><stop offset=".08" stop-color="#C7D3E1"/><stop offset=".47" stop-color="#ED4F35"/><stop offset="1" stop-color="#BEF5EB"/></linearGradient><linearGradient id="p" x1="111.087" x2="127.615" y1="363.141" y2="361.486" gradientUnits="userSpaceOnUse"><stop offset=".04" stop-color="#EDE6E5"/><stop offset=".1" stop-color="#EDD2C4"/><stop offset=".21" stop-color="#EDB491"/><stop offset=".3" stop-color="#ED9C69"/><stop offset=".39" stop-color="#ED8B4C"/><stop offset=".47" stop-color="#ED803B"/><stop offset=".52" stop-color="#ED7D35"/><stop offset="1" stop-color="#ED4F35"/></linearGradient><linearGradient id="q" x1="133.753" x2="145.221" y1="344.473" y2="343.324" gradientUnits="userSpaceOnUse"><stop offset=".04" stop-color="#EDE6E5"/><stop offset=".1" stop-color="#EDD2C4"/><stop offset=".21" stop-color="#EDB491"/><stop offset=".3" stop-color="#ED9C69"/><stop offset=".39" stop-color="#ED8B4C"/><stop offset=".47" stop-color="#ED803B"/><stop offset=".52" stop-color="#ED7D35"/><stop offset="1" stop-color="#ED4F35"/></linearGradient><linearGradient id="r" x1="146.745" x2="158.281" y1="341.638" y2="340.482" gradientUnits="userSpaceOnUse"><stop offset=".04" stop-color="#EDE6E5"/><stop offset=".1" stop-color="#EDD2C4"/><stop offset=".21" stop-color="#EDB491"/><stop offset=".3" stop-color="#ED9C69"/><stop offset=".39" stop-color="#ED8B4C"/><stop offset=".47" stop-color="#ED803B"/><stop offset=".52" stop-color="#ED7D35"/><stop offset="1" stop-color="#ED4F35"/></linearGradient><linearGradient id="s" x1="129.926" x2="142.149" y1="366.675" y2="365.45" gradientUnits="userSpaceOnUse"><stop offset=".04" stop-color="#EDE6E5"/><stop offset=".1" stop-color="#EDD2C4"/><stop offset=".21" stop-color="#EDB491"/><stop offset=".3" stop-color="#ED9C69"/><stop offset=".39" stop-color="#ED8B4C"/><stop offset=".47" stop-color="#ED803B"/><stop offset=".52" stop-color="#ED7D35"/><stop offset="1" stop-color="#ED4F35"/></linearGradient><linearGradient id="t" x1="133.081" x2="156.034" y1="359.024" y2="356.725" gradientUnits="userSpaceOnUse"><stop offset=".04" stop-color="#EDE6E5"/><stop offset=".1" stop-color="#EDD2C4"/><stop offset=".21" stop-color="#EDB491"/><stop offset=".3" stop-color="#ED9C69"/><stop offset=".39" stop-color="#ED8B4C"/><stop offset=".47" stop-color="#ED803B"/><stop offset=".52" stop-color="#ED7D35"/><stop offset="1" stop-color="#ED4F35"/></linearGradient><linearGradient id="v" x1="133.085" x2="156.037" y1="359.028" y2="356.729" gradientUnits="userSpaceOnUse"><stop offset=".04" stop-color="#EDE6E5"/><stop offset=".1" stop-color="#EDD2C4"/><stop offset=".21" stop-color="#EDB491"/><stop offset=".3" stop-color="#ED9C69"/><stop offset=".39" stop-color="#ED8B4C"/><stop offset=".47" stop-color="#ED803B"/><stop offset=".52" stop-color="#ED7D35"/><stop offset="1" stop-color="#ED4F35"/></linearGradient><linearGradient id="w" x1="125.941" x2="138.565" y1="389.851" y2="388.587" gradientUnits="userSpaceOnUse"><stop offset=".04" stop-color="#EDE6E5"/><stop offset=".1" stop-color="#EDD2C4"/><stop offset=".21" stop-color="#EDB491"/><stop offset=".3" stop-color="#ED9C69"/><stop offset=".39" stop-color="#ED8B4C"/><stop offset=".47" stop-color="#ED803B"/><stop offset=".52" stop-color="#ED7D35"/><stop offset="1" stop-color="#ED4F35"/></linearGradient><linearGradient id="x" x1="103.164" x2="126.296" y1="410.787" y2="408.47" gradientUnits="userSpaceOnUse"><stop offset=".04" stop-color="#EDE6E5"/><stop offset=".1" stop-color="#EDD2C4"/><stop offset=".21" stop-color="#EDB491"/><stop offset=".3" stop-color="#ED9C69"/><stop offset=".39" stop-color="#ED8B4C"/><stop offset=".47" stop-color="#ED803B"/><stop offset=".52" stop-color="#ED7D35"/><stop offset="1" stop-color="#ED4F35"/></linearGradient><linearGradient id="y" x1="153.617" x2="171.728" y1="360.211" y2="358.397" gradientUnits="userSpaceOnUse"><stop offset=".04" stop-color="#EDE6E5"/><stop offset=".1" stop-color="#EDD2C4"/><stop offset=".21" stop-color="#EDB491"/><stop offset=".3" stop-color="#ED9C69"/><stop offset=".39" stop-color="#ED8B4C"/><stop offset=".47" stop-color="#ED803B"/><stop offset=".52" stop-color="#ED7D35"/><stop offset="1" stop-color="#ED4F35"/></linearGradient><linearGradient id="A" x1="158.262" x2="176.372" y1="359.744" y2="357.93" gradientUnits="userSpaceOnUse"><stop offset=".04" stop-color="#EDE6E5"/><stop offset=".1" stop-color="#EDD2C4"/><stop offset=".21" stop-color="#EDB491"/><stop offset=".3" stop-color="#ED9C69"/><stop offset=".39" stop-color="#ED8B4C"/><stop offset=".47" stop-color="#ED803B"/><stop offset=".52" stop-color="#ED7D35"/><stop offset="1" stop-color="#ED4F35"/></linearGradient><linearGradient id="B" x1="129.413" x2="155.515" y1="381.368" y2="378.753" gradientUnits="userSpaceOnUse"><stop offset=".04" stop-color="#EDE6E5"/><stop offset=".1" stop-color="#EDD2C4"/><stop offset=".21" stop-color="#EDB491"/><stop offset=".3" stop-color="#ED9C69"/><stop offset=".39" stop-color="#ED8B4C"/><stop offset=".47" stop-color="#ED803B"/><stop offset=".52" stop-color="#ED7D35"/><stop offset="1" stop-color="#ED4F35"/></linearGradient><linearGradient id="D" x1="129.414" x2="155.515" y1="381.369" y2="378.754" gradientUnits="userSpaceOnUse"><stop offset=".04" stop-color="#EDE6E5"/><stop offset=".1" stop-color="#EDD2C4"/><stop offset=".21" stop-color="#EDB491"/><stop offset=".3" stop-color="#ED9C69"/><stop offset=".39" stop-color="#ED8B4C"/><stop offset=".47" stop-color="#ED803B"/><stop offset=".52" stop-color="#ED7D35"/><stop offset="1" stop-color="#ED4F35"/></linearGradient><linearGradient id="E" x1="125.062" x2="139.26" y1="406.564" y2="405.142" gradientUnits="userSpaceOnUse"><stop offset=".04" stop-color="#EDE6E5"/><stop offset=".1" stop-color="#EDD2C4"/><stop offset=".21" stop-color="#EDB491"/><stop offset=".3" stop-color="#ED9C69"/><stop offset=".39" stop-color="#ED8B4C"/><stop offset=".47" stop-color="#ED803B"/><stop offset=".52" stop-color="#ED7D35"/><stop offset="1" stop-color="#ED4F35"/></linearGradient><linearGradient id="G" x1="125.069" x2="139.267" y1="406.563" y2="405.14" gradientUnits="userSpaceOnUse"><stop offset=".04" stop-color="#EDE6E5"/><stop offset=".1" stop-color="#EDD2C4"/><stop offset=".21" stop-color="#EDB491"/><stop offset=".3" stop-color="#ED9C69"/><stop offset=".39" stop-color="#ED8B4C"/><stop offset=".47" stop-color="#ED803B"/><stop offset=".52" stop-color="#ED7D35"/><stop offset="1" stop-color="#ED4F35"/></linearGradient><linearGradient id="H" x1="122.499" x2="134.031" y1="413.186" y2="412.031" gradientUnits="userSpaceOnUse"><stop offset=".04" stop-color="#EDE6E5"/><stop offset=".1" stop-color="#EDD2C4"/><stop offset=".21" stop-color="#EDB491"/><stop offset=".3" stop-color="#ED9C69"/><stop offset=".39" stop-color="#ED8B4C"/><stop offset=".47" stop-color="#ED803B"/><stop offset=".52" stop-color="#ED7D35"/><stop offset="1" stop-color="#ED4F35"/></linearGradient><linearGradient id="I" x1="115.806" x2="131.484" y1="420.34" y2="418.77" gradientUnits="userSpaceOnUse"><stop offset=".04" stop-color="#EDE6E5"/><stop offset=".1" stop-color="#EDD2C4"/><stop offset=".21" stop-color="#EDB491"/><stop offset=".3" stop-color="#ED9C69"/><stop offset=".39" stop-color="#ED8B4C"/><stop offset=".47" stop-color="#ED803B"/><stop offset=".52" stop-color="#ED7D35"/><stop offset="1" stop-color="#ED4F35"/></linearGradient><linearGradient id="J" x1="135.534" x2="147.104" y1="410.172" y2="409.013" gradientUnits="userSpaceOnUse"><stop offset=".04" stop-color="#EDE6E5"/><stop offset=".1" stop-color="#EDD2C4"/><stop offset=".21" stop-color="#EDB491"/><stop offset=".3" stop-color="#ED9C69"/><stop offset=".39" stop-color="#ED8B4C"/><stop offset=".47" stop-color="#ED803B"/><stop offset=".52" stop-color="#ED7D35"/><stop offset="1" stop-color="#ED4F35"/></linearGradient><linearGradient id="K" x1="128.841" x2="144.524" y1="417.385" y2="415.814" gradientUnits="userSpaceOnUse"><stop offset=".04" stop-color="#EDE6E5"/><stop offset=".1" stop-color="#EDD2C4"/><stop offset=".21" stop-color="#EDB491"/><stop offset=".3" stop-color="#ED9C69"/><stop offset=".39" stop-color="#ED8B4C"/><stop offset=".47" stop-color="#ED803B"/><stop offset=".52" stop-color="#ED7D35"/><stop offset="1" stop-color="#ED4F35"/></linearGradient><linearGradient id="L" x1="136.708" x2="172.51" y1="389.311" y2="385.724" gradientUnits="userSpaceOnUse"><stop offset=".04" stop-color="#EDE6E5"/><stop offset=".1" stop-color="#EDD2C4"/><stop offset=".21" stop-color="#EDB491"/><stop offset=".3" stop-color="#ED9C69"/><stop offset=".39" stop-color="#ED8B4C"/><stop offset=".47" stop-color="#ED803B"/><stop offset=".52" stop-color="#ED7D35"/><stop offset="1" stop-color="#ED4F35"/></linearGradient><linearGradient id="N" x1="145.629" x2="181.492" y1="388.257" y2="385.362" gradientUnits="userSpaceOnUse"><stop offset=".04" stop-color="#EDE6E5"/><stop offset=".1" stop-color="#EDD2C4"/><stop offset=".21" stop-color="#EDB491"/><stop offset=".3" stop-color="#ED9C69"/><stop offset=".39" stop-color="#ED8B4C"/><stop offset=".47" stop-color="#ED803B"/><stop offset=".52" stop-color="#ED7D35"/><stop offset="1" stop-color="#ED4F35"/></linearGradient><linearGradient id="O" x1="111.844" x2="159.839" y1="392.043" y2="348.122" gradientUnits="userSpaceOnUse"><stop offset=".04" stop-color="#EDE6E5"/><stop offset=".1" stop-color="#EDD2C4"/><stop offset=".21" stop-color="#EDB491"/><stop offset=".3" stop-color="#ED9C69"/><stop offset=".39" stop-color="#ED8B4C"/><stop offset=".47" stop-color="#ED803B"/><stop offset=".52" stop-color="#ED7D35"/><stop offset="1" stop-color="#ED4F35"/></linearGradient><linearGradient id="P" x1="124.959" x2="153.681" y1="321.946" y2="423.714" gradientUnits="userSpaceOnUse"><stop stop-color="#EFDC8D"/><stop offset=".07" stop-color="#EFDC8D" stop-opacity=".672"/><stop offset=".17" stop-color="#EFDC8D" stop-opacity=".36"/><stop offset=".27" stop-color="#EFDC8D" stop-opacity=".176"/><stop offset=".38" stop-color="#EFDC8D" stop-opacity=".073"/><stop offset=".48" stop-color="#EFDC8D" stop-opacity=".022"/><stop offset=".58" stop-color="#EFDC8D" stop-opacity=".01"/><stop offset=".68" stop-color="#EFDC8D" stop-opacity=".01"/><stop offset=".78" stop-color="#EFDC8D" stop-opacity="0"/></linearGradient><linearGradient id="Q" x1="114.684" x2="120.283" y1="331.213" y2="351.051" gradientUnits="userSpaceOnUse"><stop stop-color="#EFDC8D"/><stop offset=".07" stop-color="#EFDC8D" stop-opacity=".672"/><stop offset=".17" stop-color="#EFDC8D" stop-opacity=".36"/><stop offset=".27" stop-color="#EFDC8D" stop-opacity=".176"/><stop offset=".38" stop-color="#EFDC8D" stop-opacity=".073"/><stop offset=".48" stop-color="#EFDC8D" stop-opacity=".022"/><stop offset=".58" stop-color="#EFDC8D" stop-opacity=".01"/><stop offset=".68" stop-color="#EFDC8D" stop-opacity=".01"/><stop offset=".78" stop-color="#EFDC8D" stop-opacity="0"/></linearGradient><linearGradient id="R" x1="126.867" x2="132.871" y1="401.951" y2="423.222" gradientUnits="userSpaceOnUse"><stop stop-color="#EFDC8D"/><stop offset=".07" stop-color="#EFDC8D" stop-opacity=".672"/><stop offset=".17" stop-color="#EFDC8D" stop-opacity=".36"/><stop offset=".27" stop-color="#EFDC8D" stop-opacity=".176"/><stop offset=".38" stop-color="#EFDC8D" stop-opacity=".073"/><stop offset=".48" stop-color="#EFDC8D" stop-opacity=".022"/><stop offset=".58" stop-color="#EFDC8D" stop-opacity=".01"/><stop offset=".68" stop-color="#EFDC8D" stop-opacity=".01"/><stop offset=".78" stop-color="#EFDC8D" stop-opacity="0"/></linearGradient><clipPath id="b"><path fill="#fff" d="m685.627 329.409-438.994 94.117 54.222 252.91 438.994-94.116z"/></clipPath><clipPath id="o"><path fill="#fff" d="m89.173 343.558 76.008-16.295 18.161 84.71-76.008 16.296z"/></clipPath><radialGradient id="a" cx="0" cy="0" r="1" gradientTransform="rotate(75 129.01 462.835)scale(377.508)" gradientUnits="userSpaceOnUse"><stop offset=".04" stop-color="#BEF5EB"/><stop offset=".07" stop-color="#8FE6EF"/><stop offset=".11" stop-color="#5CD7F4"/><stop offset=".15" stop-color="#34CBF8"/><stop offset=".18" stop-color="#17C3FB"/><stop offset=".21" stop-color="#06BDFD"/><stop offset=".23" stop-color="#00BCFE"/><stop offset=".33" stop-color="#0F85D4"/><stop offset=".73" stop-color="#ED4F35"/><stop offset="1" stop-color="#BEF5EB"/></radialGradient></defs></svg>