<svg xmlns="http://www.w3.org/2000/svg" width="387" height="230" fill="none"><g clip-path="url(#a)"><path fill="url(#b)" d="m139.405 79.17 246.65 105.408-1.044 2.442L138.362 81.611z"/><path fill="url(#c)" d="m125.33 122.145 246.649 105.409-1.043 2.441-246.649-105.408z"/><path fill="url(#d)" d="M131.894 94.42 378.543 199.83l-5.32 12.45-246.65-105.408z"/><path fill="#FFEFCD" d="m130.272 97.196-3.796 7.606 46.131 15.219z"/></g><path fill="#232826" d="M80.957 90.374c-.407.11-.748.395-.924.78a1.45 1.45 0 0 0 0 1.21c1.694 3.663 9.481 13.177 44.985 22.426.143.033.869.099 1.815-1.946.945-2.046.429-2.563.308-2.651-30.016-21.106-42.301-20.886-46.195-19.82z"/><path fill="#C9CDA9" d="m95.554 74.7 16.212 11.527s-2.54-2.21-1.144-5.224 9.261-3.662 9.261-3.662l-14.32-7.546s-7.039 5.357-10.009 4.906"/><path fill="url(#e)" d="m105.563 69.795 14.32 7.546s-7.897.703-9.261 3.662 1.144 5.224 1.144 5.224L95.554 74.701c1.386.209 3.652-.847 5.687-2.024-.088.341-.11 1.034.902 1.793 1.077.814 4.135 2.332 5.466 2.98-1.727 1.672-2.849 2.717-2.871 2.728l.099.1s3.069-2.85 6.863-6.677l-.099-.099a285 285 0 0 1-3.882 3.839c-1.309-.638-4.411-2.178-5.489-2.992-1.187-.891-.868-1.65-.791-1.793.154-.088.297-.176.451-.264a.07.07 0 0 0 .099-.022v-.044a49 49 0 0 0 3.585-2.43zm2.156 7.028s-.077 0-.088.034c-.022.032 0 .076.033.088.033.022.077 0 .099-.033.022-.034 0-.078-.033-.1zm-.506-.252s-.077 0-.099.033 0 .077.033.099.077 0 .088-.033c0 0 0-.077-.033-.1zm-.506-.253s-.077 0-.099.033 0 .077.033.099.077 0 .099-.033c0 0 0-.077-.033-.1m-.506-.264s-.077 0-.099.033 0 .077.033.099.077 0 .099-.033c0 0 0-.077-.033-.1m-.506-.253s-.077 0-.099.033 0 .077.033.099.077 0 .099-.033c0 0 0-.077-.033-.1m-.506-.264s-.077 0-.099.033 0 .077.033.099.077 0 .099-.033c0 0 0-.077-.033-.1m-.495-.275s-.077 0-.099.033a.09.09 0 0 0 .033.099c.033.022.077 0 .099-.033 0 0 0-.077-.033-.1m-.495-.275s-.077 0-.099.022c-.022.033 0 .077.022.099.033.022.077 0 .099-.022 0 0 0-.077-.033-.1zm-.495-.275s-.077 0-.099.022c-.022.033 0 .077.022.099.033.022.077 0 .099-.022 0 0 0-.077-.022-.1m-.473-.297s-.077-.011-.099.022a.07.07 0 0 0 .022.099c.033.022.077 0 .099-.022 0 0 0-.077-.022-.1m-.473-.32s-.077-.021-.099.012-.022.077.011.099.077.01.099-.011v-.011a.09.09 0 0 0-.022-.088zm-.407-.362s-.077-.033-.098 0a.07.07 0 0 0 0 .099c.021.033.065.033.098 0 0 0 0-.011.011-.022.011-.022 0-.055-.011-.077m-.428-.473s-.044.066-.033.099q.033.05.099.033c.011 0 .022-.022.033-.033v-.066a.09.09 0 0 0-.099-.033m-.121-.539s-.066.033-.066.077.033.066.077.066c.022 0 .044-.022.055-.044v-.033c0-.044-.033-.066-.077-.066zm3.508 7.721s-.033.066 0 .1q.05.048.099 0s.011-.012.011-.023c.011-.022 0-.055-.011-.077-.022-.033-.066-.033-.099 0m.517-.385s-.066-.033-.099 0a.07.07 0 0 0 0 .1.07.07 0 0 0 .099 0s.011-.012.011-.023c.011-.022 0-.055-.011-.077m.418-.385s-.077-.033-.099 0c-.033.022-.033.066 0 .1q.05.048.099 0s0-.012.011-.023c.011-.022 0-.055-.011-.077m.407-.396s-.077-.033-.099 0c-.033.022-.033.066 0 .1.022.032.066.032.099 0 0 0 0-.012.011-.023.011-.022 0-.055-.011-.077m.407-.385s-.066-.033-.099 0c-.033.022-.033.066 0 .1q.05.048.099 0s.011-.012.011-.023c.011-.022 0-.055-.011-.077m.418-.396s-.077-.022-.099 0a.07.07 0 0 0 0 .1q.05.048.099 0s.011-.012.011-.023c.011-.022 0-.055-.011-.077m.396-.396s-.066-.033-.099 0c-.033.022-.033.077 0 .1.022.032.077.032.099 0 0 0 .011-.012.011-.023.011-.022 0-.055-.011-.077m.418-.396s-.077-.033-.099 0c-.033.022-.022.077 0 .1a.07.07 0 0 0 .099 0s.011-.012.011-.023c.011-.022 0-.055-.011-.077m.308-.395s-.022.076 0 .098c.022.033.077.033.099 0 0 0 .011-.01.011-.022.011-.022 0-.055-.011-.076-.022-.034-.066-.034-.099 0m.506-.386s-.077-.032-.099 0c-.033.023-.033.067 0 .1.022.032.066.032.099 0 0 0 .011-.012.011-.023.011-.021 0-.054-.011-.076m.407-.395s-.077-.033-.099 0q-.05.05 0 .099c.022.033.066.033.099 0 0 0 .011-.011.011-.022.011-.022 0-.055-.011-.077m.396-.407s-.077-.022-.099 0c-.033.022-.022.077 0 .099s.077.022.099 0c0 0 0-.011.011-.022.011-.022 0-.055-.011-.077m.407-.396s-.077-.033-.099 0-.033.077 0 .099.077.022.099 0c0 0 .011-.011.011-.022.011-.022 0-.055-.011-.077m.395-.396s-.077-.022-.099 0c-.033.022-.033.077 0 .099.022.033.066.033.099 0 0 0 .011-.011.011-.022.011-.022 0-.055-.011-.077m.407-.396s-.077-.033-.099 0-.033.077 0 .099.077.033.099 0c0 0 .011-.011.011-.022.011-.022 0-.055-.011-.077m.407-.407s-.077-.033-.099 0c-.033.022-.033.066 0 .099s.077.033.099 0c0 0 0-.011.011-.022.011-.022 0-.055-.011-.077m.396-.396s-.077-.022-.099 0a.07.07 0 0 0 0 .099.07.07 0 0 0 .099 0s.011-.011.011-.022c.011-.022 0-.055-.011-.077"/><path fill="#232826" d="M119.925 77.428c-.077 0-7.831.737-9.151 3.586-1.33 2.881 1.012 4.971 1.111 5.059l-.187.209s-2.606-2.31-1.177-5.39c1.386-3.002 9.052-3.717 9.382-3.75zM105.687 69.849c-.286.22-7.127 5.39-10.119 4.938l.044-.275c2.882.44 9.833-4.828 9.899-4.883l.176.23z"/><path fill="#232826" d="M102.349 73.82s0-.054-.011-.076c0 0-.077-.033-.099 0 0 0-.033.066 0 .099 0 0 .066.033.099 0 0 0 0-.011.011-.022m-.33-.45v-.066s-.066-.044-.099-.033c0 0-.044.066-.033.099 0 0 .055.044.099.033.011 0 .022-.022.033-.033m-.165-.54v-.032s-.033-.066-.077-.066c0 0-.066.033-.066.077 0 0 .033.066.077.066.022 0 .044-.022.055-.044zM101.325 72.467l.121.077s-.451.737.539 1.617l-.121.077c-1.045-.957-.539-1.76-.539-1.77"/><path fill="url(#f)" d="M95.919 62.216c1.451 3.124 8.413 12.066 41.651 20.722 0 0 .638.154 1.507-1.716s.341-2.255.341-2.255C111.317 59.203 99.999 59.676 96.678 60.6a1.174 1.174 0 0 0-.748 1.627z"/><path fill="url(#g)" d="M139.416 78.956s.506.374-.297 2.156c.429-1.001-.099-1.32-.099-1.32-29.19-17.4-39.584-18.929-42.51-18.874-.308 0-.506.121-.594.297.144-.297.407-.55.748-.638 3.322-.924 14.64-1.386 42.741 18.368z"/><path fill="#232826" d="M99.92 64.284c.099.032-.21.593-.341.813-.1.165-.308.44-.352.396l-.231-.198a20 20 0 0 1-2.101-2.045.5.5 0 0 0 .418-.033c.143-.088.209-.286.23-.473.55.385 1.244.846 2.113 1.374.088.056.165.11.264.154zM128.583 77.779c.132.033-.462.902-.693 1.22-.066.1-.154.232-.264.232-.099-.033-.198-.066-.297-.11-5.191-1.793-9.525-3.509-13.165-5.115a21 21 0 0 0 1.221-1.903 394 394 0 0 0 12.923 5.555c.099.033.187.077.286.11zM129.289 76.592l-.066.143a1129 1129 0 0 0-13.374-6.346l.066-.143c4.004 1.87 8.502 4.003 13.374 6.346M129.18 77.01s0-.089-.033-.11c0 0-.088 0-.11.043 0 0 0 .088.033.11 0 0 .088 0 .11-.033zm-.583-.287s0-.088-.033-.11c0 0-.088 0-.11.033 0 0 0 .088.044.11 0 0 .088 0 .11-.033zm-.583-.275s0-.088-.033-.11c0 0-.088 0-.11.033 0 0 0 .088.044.11 0 0 .088 0 .11-.033zm-.582-.275s0-.088-.033-.11c0 0-.088 0-.11.033 0 0 0 .088.033.11 0 0 .088 0 .11-.044zm-.583-.286s0-.088-.033-.11c0 0-.088 0-.11.033 0 0 0 .088.044.11 0 0 .088 0 .11-.044zm-.583-.275s0-.088-.044-.11c0 0-.088 0-.11.044 0 0 0 .088.033.11 0 0 .088 0 .11-.033zm-.583-.275s0-.088-.044-.11c0 0-.088 0-.11.044 0 0 0 .088.033.11 0 0 .088 0 .11-.033zm-.583-.286s0-.088-.033-.11c0 0-.088 0-.11.044 0 0 0 .088.033.11.044.022.088 0 .11-.033zm-.583-.275s0-.088-.044-.11c0 0-.088 0-.11.044 0 0 0 .088.033.11 0 0 .088 0 .11-.033zm-.583-.275s0-.088-.044-.11c0 0-.088 0-.11.044 0 0 0 .088.033.11s.088 0 .11-.032zm-.583-.285s0-.088-.044-.11c0 0-.088 0-.11.044 0 0 0 .087.033.11.044.021.088 0 .11-.034zm-.583-.275s0-.088-.044-.11c0 0-.088 0-.11.043 0 0 0 .089.033.11.044.023.088 0 .11-.032zm-.583-.275s0-.088-.044-.11c0 0-.088 0-.11.044 0 0 0 .088.033.11 0 0 .088 0 .11-.033zm-.583-.275s0-.088-.044-.11c0 0-.088 0-.11.044 0 0 0 .088.033.11 0 0 .088 0 .11-.033zm-.583-.286s0-.088-.044-.11c0 0-.088 0-.11.044 0 0 0 .088.033.11 0 0 .088 0 .11-.033zm-.594-.264s0-.088-.044-.11c0 0-.088 0-.11.044 0 0 0 .088.033.11 0 0 .088 0 .11-.033zm-.583-.286s0-.088-.044-.11c0 0-.088 0-.109.044 0 0 0 .088.032.11.044.022.088 0 .11-.033zm-.582-.275s0-.088-.044-.11c0 0-.088 0-.11.044 0 0 0 .088.044.11.033.022.088 0 .11-.044m-.583-.275s0-.088-.044-.11c0 0-.088 0-.11.044 0 0 0 .088.044.11.033.022.088 0 .11-.044m-.583-.275s0-.088-.044-.1c0 0-.088 0-.11.034 0 0 0 .088.033.11 0 0 .088 0 .11-.044zm-.583-.275s0-.088-.044-.1c0 0-.088 0-.11.034 0 0 0 .088.033.11 0 0 .088 0 .11-.044zm-.594-.275s0-.088-.044-.1c0 0-.088 0-.11.034 0 0 0 .088.033.11 0 0 .088 0 .11-.044zm-.583-.275s0-.088-.044-.11c0 0-.088 0-.11.044 0 0 0 .088.044.11.033.022.088 0 .11-.044M100.12 64.811c3.531 2.178 8.447 4.774 14.662 7.71-.077.132-.154.253-.231.374 0 0 0-.01-.011-.022-.044-.022-.088 0-.11.033-.022.044 0 .088.033.11-.209.33-.418.627-.594.87-.044-.012-.077-.034-.121-.056-.099-.044-.187-.088-.286-.12-7.028-3.146-11.307-5.852-13.913-7.953.153-.253.351-.572.56-.957zm13.826 7.787s-.088 0-.11.033c-.022.044 0 .088.033.11.044.022.088 0 .11-.033.022-.044 0-.088-.033-.11m-.583-.286s-.088 0-.11.033c-.022.044 0 .088.033.11.044.022.088 0 .11-.033.022-.044 0-.088-.033-.11m-.583-.286s-.088 0-.11.033c-.022.044 0 .088.033.11s.088 0 .11-.033c.022-.044 0-.088-.033-.11m-.572-.275s-.088 0-.11.033c-.022.044 0 .088.033.11s.088 0 .11-.033c.022-.044 0-.088-.033-.11m-.583-.297s-.088 0-.11.034c-.022.043 0 .088.033.11s.088 0 .11-.034c.022-.043 0-.087-.033-.11m-.583-.285s-.088 0-.11.032c-.022.045 0 .089.033.11s.088 0 .11-.033c.022-.044 0-.088-.033-.11m-.572-.287s-.088 0-.11.033c-.022.044 0 .088.033.11s.088 0 .11-.032c.022-.044 0-.088-.033-.11m-.583-.296s-.088 0-.11.033 0 .088.033.11.088 0 .11-.033c0 0 0-.088-.033-.11m-.572-.286s-.088 0-.11.033c-.022.044 0 .088.033.11.044.022.088 0 .11-.033.022-.044 0-.088-.033-.11m-.572-.297s-.088 0-.11.033c-.022.044 0 .088.033.11.044.022.088 0 .11-.033 0 0 0-.088-.033-.11m-.572-.297s-.088 0-.11.033c-.022.044 0 .088.033.11.044.022.088 0 .11-.033s0-.088-.033-.11m-.572-.297s-.088 0-.11.033c-.022.044 0 .088.033.11s.088 0 .11-.033c0 0 0-.088-.033-.11m-.571-.297s-.088 0-.11.033 0 .088.033.11c.044.022.088 0 .11-.033.022-.044 0-.088-.033-.11m-.572-.308s-.088 0-.11.033c-.022.044 0 .088.033.11.044.022.088 0 .11-.033 0 0 0-.088-.033-.11m-.572-.308s-.088 0-.11.033c-.022.044 0 .088.033.11s.088 0 .11-.033c0 0 0-.088-.033-.11m-.572-.308s-.088 0-.11.033c-.022.044 0 .088.033.11 0 0 .088 0 .11-.033 0 0 0-.088-.033-.11m-.561-.308s-.088 0-.11.033c-.022.044 0 .088.033.11s.088 0 .11-.033c0 0 0-.088-.033-.11m-.572-.308s-.088 0-.11.033 0 .088.033.11c.044.022.088 0 .11-.033 0 0 0-.088-.033-.11m-.561-.319s-.088 0-.11.033c-.022.044 0 .088.033.11.044.022.088 0 .11-.033 0 0 0-.088-.033-.11m-.561-.319s-.088 0-.11.033c-.022.044 0 .088.033.11.044.022.088 0 .11-.033s0-.088-.033-.11m-.561-.319s-.088 0-.11.033c-.022.044 0 .088.033.11s.088 0 .11-.033c0 0 0-.088-.033-.11m-.55-.33s-.088 0-.11.033c-.022.044 0 .088.033.11.044.022.088 0 .11-.033 0 0 0-.088-.033-.11m-.561-.33s-.088 0-.11.033-.011.088.033.11c.033.022.088 0 .11-.033s0-.088-.033-.11m-.55-.33s-.088 0-.11.022c-.022.044 0 .088.022.11.044.022.088 0 .11-.033s0-.077-.033-.099zm-.55-.34s-.088-.012-.11.021c-.022.044 0 .088.033.11a.085.085 0 0 0 .11-.022c.022-.033 0-.077-.033-.099z"/><path fill="#232826" d="M100.284 64.503c-.033.055-.066.11-.088.165 3.52 2.178 8.447 4.774 14.661 7.71l.231-.395-.11-.056c-.099-.044-.187-.088-.275-.12-7.083-3.223-11.57-5.61-14.419-7.304M114.814 72.532l.066-.143h-.022a1 1 0 0 1-.088.143c.011 0 .022 0 .033.01zM114.559 72.984s0-.066-.022-.088c-.022.043-.055.088-.077.132.044.01.088 0 .099-.034zM128.532 78.693a335 335 0 0 0 9.579 3.508c-.165.176-.352.341-.506.374-3.53-1.067-6.588-2.177-9.557-3.19.143-.197.308-.428.484-.692m-.055.385s0-.1-.044-.11c-.044-.011-.088 0-.099.044s0 .088.044.099c0 0 .088 0 .099-.044zm.604.23s0-.098-.044-.11c-.044-.01-.087 0-.098.045-.011.044-.001.088.043.099.044.01.088 0 .099-.044zm.605.22s0-.098-.044-.11c-.044-.01-.088 0-.099.045-.011.044 0 .088.044.099.044.01.088 0 .099-.044zm.605.22s0-.098-.044-.11c-.044-.01-.088 0-.099.056-.011.044 0 .088.044.099.044.01.088 0 .099-.044m.605.22s0-.087-.055-.11c-.044-.01-.088 0-.099.045-.011.044 0 .088.044.099.044.01.088 0 .099-.044zm.605.22s0-.098-.044-.11c-.044-.01-.088 0-.099.045-.011.044 0 .088.044.099.044.01.088 0 .099-.044zm.616.22s0-.098-.044-.11c-.044-.01-.088 0-.11.056-.011.044 0 .088.044.099.044.01.088 0 .099-.044zm5.345 1.848s0 .088.044.1c.044.01.077 0 .099-.045 0 0 0-.099-.044-.11s-.088 0-.099.055m-.615-.209s0 .088.044.1c.044.01.077 0 .099-.045 0 0 0-.099-.044-.11s-.088 0-.099.055m-.605-.209s0 .089.044.1c.044.01.088 0 .099-.044 0 0 0-.089-.044-.1-.044-.01-.088 0-.099.044m-.616-.209s0 .088.044.1c.044.01.077 0 .099-.044 0 0 0-.1-.044-.11-.044-.011-.088 0-.099.054m-.616-.209s0 .088.044.1c.044.01.088 0 .099-.044s0-.088-.044-.1c-.044-.01-.088 0-.099.044m-.605-.208s0 .087.044.099c.044.01.077 0 .099-.044 0 0 0-.1-.044-.11-.044-.011-.088 0-.099.055m-.616-.22s0 .088.044.099c.044.01.088 0 .099-.044s0-.088-.044-.1c-.044-.01-.088 0-.099.045m-.605-.21s0 .089.044.1c.044.01.077 0 .099-.044 0 0 0-.1-.044-.11-.044-.011-.088 0-.099.044zm-.616-.22s0 .089.055.11q.066.02.099-.043s0-.1-.044-.11c-.044-.011-.088 0-.099.044zM138.485 81.75l-.308-.12a627 627 0 0 1-9.184-3.685c-.121.22-.253.418-.374.605a280 280 0 0 0 9.613 3.508c.143-.176.253-.319.253-.319z"/><path fill="#232826" d="M115.781 70.76c-.638 1.364-1.485 2.816-2.618 4.092l-.121-.11c3.344-3.761 4.235-9.096 4.235-9.15l.165.021s-.396 2.431-1.661 5.148M100.462 63.546c-.396.858-.89 1.782-1.495 2.629l-.132-.088c1.781-2.508 2.639-5.676 2.639-5.709l.154.044s-.385 1.441-1.177 3.135zM129.222 76.922c-.484 1.045-1.144 2.144-2.046 3.101l-.121-.11c2.651-2.804 3.223-6.918 3.223-6.962l.165.022s-.264 1.88-1.221 3.949"/><path fill="#232826" d="M139.498 78.847c-27.859-19.589-39.254-19.391-42.862-18.39a1.31 1.31 0 0 0-.846.715 1.3 1.3 0 0 0 0 1.11c1.572 3.4 8.787 12.22 41.75 20.8.077.021.77.131 1.672-1.794.891-1.924.352-2.386.297-2.43zm-1.892 3.96c-32.842-8.547-40.002-17.29-41.563-20.645a1 1 0 0 1 0-.87c.131-.274.373-.483.66-.56 3.574-.99 14.87-1.166 42.619 18.346 0 0 .407.395-.374 2.09-.781 1.693-1.342 1.638-1.342 1.638"/><path fill="url(#h)" d="M.535 44.08c4.421 9.547 25.682 36.846 127.188 63.287 0 0 1.936.473 4.598-5.247s1.034-6.896 1.034-6.896C47.543 34.874 12.975 36.315 2.834 39.11c-2.123.583-3.223 2.959-2.3 4.96z"/><path fill="#A07A4B" d="M17.675 38.416C15.398 47.314 9.91 55.41 9.59 55.871c-5.258-5.037-7.82-9.107-9.063-11.78-.924-2.001.176-4.377 2.299-4.97 2.837-.782 7.589-1.464 14.848-.705"/><path fill="#232826" d="M133.456 95.059C96.49 69.058 64.968 51.647 39.77 43.31c-20.909-6.918-32.16-5.708-37-4.377A3.77 3.77 0 0 0 .35 40.99a3.78 3.78 0 0 0 0 3.178c2.112 4.565 8.47 13.924 27.266 25.396 22.646 13.825 56.313 26.606 100.055 38 .088.022 2.134.451 4.817-5.356s1.045-7.094.968-7.15M.714 44.003a3.4 3.4 0 0 1 0-2.849 3.36 3.36 0 0 1 2.166-1.847c4.807-1.32 15.96-2.519 36.769 4.366C64.803 52 96.28 69.4 133.225 95.367c.011.01 1.43 1.21-1.1 6.654-2.518 5.444-4.355 5.147-4.366 5.136-43.698-11.383-77.332-24.153-99.945-37.945C9.117 57.806 2.804 48.524.714 44.003"/><path fill="#232826" d="M130.52 103.682s-1.221 2.045-2.178 2.331c-10.767-3.266-20.633-6.445-29.685-9.546a47 47 0 0 0 2.871-4.389c8.612 3.53 17.938 7.27 28.057 11.241l.924.363zM61.787 68.553c-3.827 8.271-8.612 13.903-8.678 13.98l-.154-.133c.11-.12 10.823-12.747 12.979-28.024l.198.033c-.726 5.136-2.42 9.976-4.345 14.144M14.727 47.093c-2.387 5.159-4.939 8.843-4.972 8.898l-.165-.11c.055-.088 5.764-8.348 8.095-17.477l.198.055c-.78 3.069-1.946 6.039-3.156 8.645zM102.66 87.701c-2.926 6.314-6.71 10.548-6.764 10.614l-.143-.132c.088-.099 8.568-9.59 9.888-21.337l.198.022c-.44 3.96-1.694 7.666-3.168 10.844z"/><path fill="#232826" d="M11.673 54.891a66 66 0 0 0 2.233-3.871c8.688 5.18 22.426 12.472 44.038 22.305.275.132.561.264.847.385l.165.077a68 68 0 0 1-3.74 5.829c-.12-.044-.066-.022-.176-.077-.297-.132-.572-.253-.858-.385-21.447-9.602-34.524-17.873-42.498-24.263zm43.004 23.922s-.11-.022-.142.022a.104.104 0 0 0 .022.143c.043.033.11.022.142-.022l.011-.01c.022-.045 0-.1-.033-.122zm.462-.649s-.11-.022-.143.022a.104.104 0 0 0 .022.143c.044.033.11.022.143-.022v-.01c.022-.045 0-.1-.033-.122zm.451-.66s-.11-.022-.132.022a.104.104 0 0 0 .022.143c.044.033.11.022.143-.022.022-.055 0-.11-.033-.132zm.44-.67s-.11-.023-.132.032c-.033.044-.01.11.033.132.044.033.11.022.132-.033v-.01c.022-.045 0-.1-.044-.122zm.43-.672s-.11-.022-.133.033c-.022.055-.01.11.033.143s.11.011.132-.033c.022-.055 0-.11-.044-.143zM58.02 73.6s.11.01.132-.033 0-.11-.033-.132c-.044-.022-.11-.011-.132.033-.033.044-.011.11.033.132m-.396.682s.11.01.132-.033c0 0 0-.11-.033-.143-.044-.022-.11 0-.143.033-.022.044-.01.11.033.132zm-.418.693s.11.01.143-.033c0 0 0-.11-.033-.143a.12.12 0 0 0-.143.033c-.033.044-.01.11.033.143m-.418.681s.11.011.143-.032a.13.13 0 0 0-.033-.143c-.044-.033-.11-.011-.143.032-.033.044-.01.11.033.143M61.56 66.33s0 .11.055.132c.044.022.11 0 .132-.056 0 0 0-.11-.055-.132s-.11 0-.132.055M59.154 71.367s0 .11.044.143c.055.022.11 0 .132-.044 0 0 0-.11-.044-.132-.055-.022-.11 0-.143.044zM61.243 67.056s0 .11.055.132c.044.022.11 0 .132-.055 0 0 0-.11-.055-.132s-.11 0-.132.044zM60.505 68.739s0 .11.044.132.11 0 .132-.044c.022-.055 0-.11-.044-.132-.055-.022-.11 0-.132.044M60.912 67.782s0 .11.055.132.11 0 .132-.044c.022-.055 0-.11-.044-.132-.055-.022-.11 0-.132.044zM59.516 70.664s0 .11.044.132c.055.021.11 0 .132-.045a.106.106 0 0 0-.044-.132.106.106 0 0 0-.132.044M58.768 72.07s0 .11.044.133c.044.022.11.01.132-.033 0 0 0-.11-.044-.132s-.11 0-.143.044zM53.114 80.77s-.022.11.022.144.11.022.143-.022v-.022s.022-.088-.022-.121a.115.115 0 0 0-.143.01zM52.125 82.014s-.033.099.01.143c.044.033.11.033.144 0v-.022s.021-.088-.012-.121c-.044-.033-.11-.033-.132.01zM53.598 80.133s-.022.11.022.142c.044.033.11.022.143-.022v-.022s.011-.087-.022-.12c-.044-.034-.11-.023-.132.021zM58.385 72.764s0 .11.033.132c.044.022.11.011.132-.033 0 0 0-.11-.044-.132s-.11 0-.132.033zM54.082 79.484s-.022.11.022.143.11.022.143-.022v-.022s.011-.088-.022-.12c-.044-.034-.11-.023-.132.021zM52.63 81.398s-.022.11.022.143.099.022.143-.011c0 0 0-.011.011-.022.022-.044 0-.088-.033-.121a.115.115 0 0 0-.143.01M64.674 56.453a.1.1 0 0 0 .077.12c.044 0 .099-.01.11-.054v-.022a.101.101 0 1 0-.198-.044zM64.51 57.233s.022.11.077.121c.044 0 .088-.01.11-.055v-.022s-.011-.11-.066-.12a.1.1 0 0 0-.121.076M64.332 58.014s.022.11.077.121c.044.011.088 0 .11-.055v-.022s-.011-.11-.066-.12c-.055-.012-.11.01-.121.065zM64.148 58.784s.022.11.077.121c.044.011.1-.011.11-.055.011-.066-.022-.121-.077-.132s-.11.011-.12.077zM64.973 54.892s.022.11.077.11c.044 0 .088-.011.11-.055v-.022c0-.055-.033-.11-.077-.121-.055 0-.11.033-.11.088M65.095 54.099c0 .055.033.11.088.11a.14.14 0 0 0 .11-.055v-.022c0-.055-.033-.11-.088-.11s-.11.033-.11.088zM64.827 55.672s.022.11.077.121a.14.14 0 0 0 .11-.055v-.022s-.01-.11-.077-.12c-.055 0-.11.021-.12.076zM61.87 65.593s0 .11.055.132.11 0 .132-.055c0 0 0-.11-.055-.132s-.11 0-.132.055M63.939 59.555s.01.11.066.12a.11.11 0 0 0 .12-.054v-.011c.012-.055-.01-.11-.065-.121s-.11.01-.121.066M62.992 62.602s0 .11.066.132c.055.021.11 0 .12-.067.023-.055 0-.11-.065-.12-.055-.022-.11 0-.132.055zM63.246 61.854s.01.11.066.12c.055.012.099 0 .12-.054.012-.066 0-.121-.065-.143-.055-.011-.11.01-.121.066zM63.49 61.083s.01.11.066.121c.044.022.099 0 .12-.055.012-.066-.01-.12-.065-.132-.055-.01-.11 0-.132.066zM63.72 60.325s.01.11.065.12c.044.012.1 0 .121-.054.011-.066-.01-.121-.066-.143-.055-.011-.11.01-.12.066zM62.166 64.845s0 .11.055.132c.044.022.11 0 .132-.055s0-.12-.055-.132c-.055-.022-.11 0-.132.055M62.452 64.108s0 .11.055.132c.044.022.1 0 .121-.055.022-.055 0-.12-.055-.132-.044-.022-.11 0-.132.055zM62.727 63.36s0 .11.066.12c.055.023.1 0 .121-.054.022-.055 0-.121-.066-.132-.055-.022-.11 0-.132.055zM99.745 91.397v-.044c.187.077.374.154.55.22.418.11-1.43 2.75-2.123 3.74-.22.308-.582.803-.626.77-.309-.1-.803-.275-1.111-.374-15.838-5.489-29.092-10.713-40.178-15.607a72 72 0 0 0 3.74-5.83c11.042 5.005 24.075 10.625 39.44 16.96.055.022.11.044.154.066 0 0-.022 0-.022.022-.022.044-.01.11.033.132a.12.12 0 0 0 .143-.033zm-2.661 3.883s-.11-.022-.143.022a.104.104 0 0 0 .022.143c.044.033.11.022.143-.022V95.4s.01-.088-.022-.121m.462-.649s-.11-.022-.144.022a.104.104 0 0 0 .022.143c.044.033.11.022.143-.022v-.011c.023-.044 0-.099-.032-.121zm.45-.649s-.11-.022-.142.022a.104.104 0 0 0 .022.143c.043.033.11.022.142-.022.022-.055 0-.11-.033-.132zm.451-.67s-.11-.023-.143.032c-.033.044-.022.11.033.143.044.033.11.022.143-.033 0 0 0-.11-.033-.132zm.43-.672s-.11-.01-.133.033c-.033.044-.01.11.033.143s.11.022.132-.033 0-.11-.044-.143zm.428-.682s-.11-.01-.143.033-.01.11.033.143c.044.022.11.011.132-.033.033-.044.011-.11-.033-.132zM100.363 89.924s0 .11.044.132.11.01.132-.033c0 0 0-.11-.044-.143a.106.106 0 0 0-.132.044M99.967 90.617s0 .11.033.132c.044.022.11.01.132-.033 0 0 0-.11-.044-.132s-.11-.011-.132.033zM101.098 88.505s0 .11.044.132.11 0 .132-.044a.106.106 0 0 0-.044-.132c-.055-.022-.11 0-.132.044M100.736 89.209s0 .11.044.143c.055.022.11 0 .132-.044 0 0 0-.11-.044-.132a.106.106 0 0 0-.132.044zM101.45 87.79s0 .11.044.132c.055.022.11 0 .132-.044a.106.106 0 0 0-.044-.132.106.106 0 0 0-.132.044M96.469 95.95s-.022.11.022.133c.044.033.11.022.143-.022v-.022s.022-.088-.022-.121a.104.104 0 0 0-.143.022zM101.792 87.064s0 .11.044.132.11 0 .132-.055c.022-.044 0-.11-.055-.132s-.11 0-.132.044zM95.479 97.205s-.033.11.01.143c.045.033.11.033.133-.011 0 0 0-.011.01-.022.023-.044 0-.088-.032-.121a.115.115 0 0 0-.143.01zM95.974 96.578s-.022.11.022.143.11.022.143-.011c0 0 0-.011.011-.022.022-.044 0-.088-.033-.121a.115.115 0 0 0-.143.01M94.96 97.81s-.033.1 0 .143a.116.116 0 0 0 .143 0l.022-.022c.022-.033 0-.088-.022-.12-.044-.034-.11-.034-.143 0M103.957 81.08s.011.11.077.122a.11.11 0 0 0 .121-.055v-.011a.1.1 0 0 0-.077-.121c-.055-.011-.11.01-.121.077zM104.156 80.3s.022.11.077.12c.044 0 .099-.01.11-.055v-.022a.101.101 0 1 0-.198-.044zM104.33 79.53s.022.11.077.12c.044 0 .099-.01.11-.054v-.022a.101.101 0 1 0-.198-.044zM104.804 77.308c0 .055.033.11.088.11.044 0 .088-.022.099-.055v-.022a.11.11 0 0 0-.088-.11c-.055 0-.11.033-.11.088zM103.748 81.85s.011.11.066.121a.11.11 0 0 0 .121-.055c.011-.066-.011-.12-.066-.143-.055-.01-.11.011-.121.066zM103.264 83.358s0 .11.066.132c.044.01.099 0 .121-.055.011-.067 0-.121-.066-.143-.044-.022-.11.01-.121.066M102.714 84.865s0 .11.055.132c.044.022.11 0 .132-.055s0-.121-.055-.132c-.055-.022-.11 0-.132.055M103 84.117s0 .11.055.132c.055.01.11 0 .121-.055.022-.055 0-.121-.055-.132-.055-.022-.11 0-.132.055zM102.414 85.601s0 .11.055.132.11 0 .132-.055c0 0 0-.11-.055-.132-.044-.022-.11 0-.132.055M102.111 86.337s0 .11.055.132c.044.022.11 0 .132-.055s0-.11-.044-.132c-.055-.022-.11 0-.132.055zM103.519 82.61s.011.11.066.132c.055.01.099 0 .121-.055.011-.066-.011-.121-.066-.143-.055-.011-.11.01-.132.066zM60.547 70.917C40.969 61.909 25.274 54.419 13.9 48.645l.088-.176c11.373 5.774 27.068 13.264 46.635 22.272l-.088.187zM131.951 102.868l-1.793-.769a5748 5748 0 0 1-28.464-12.583l.077-.187a5748 5748 0 0 0 28.464 12.583l1.793.769zM105.355 79.496l-.099.175c-14.32-8.502-27.75-15.783-39.914-21.667l.088-.176c12.175 5.884 25.605 13.176 39.925 21.679zM61.01 70.136s0-.11-.045-.132c0 0-.11 0-.132.044 0 0 0 .11.044.132.055.022.11 0 .132-.044m-.76-.363s0-.11-.044-.132c0 0-.11 0-.132.044 0 0 0 .11.044.132s.11 0 .132-.044m-.693-.296s0-.11-.044-.133c0 0-.11 0-.131.044 0 0 0 .11.044.132.043.023.11 0 .131-.043m-.725-.342s0-.11-.044-.132c0 0-.11 0-.132.044 0 0 0 .11.044.133.044.021.11 0 .132-.045m-.726-.33s0-.11-.044-.131c0 0-.11 0-.132.044 0 0 0 .11.044.132s.11 0 .132-.044m-.726-.34s0-.11-.044-.132c0 0-.11 0-.132.044 0 0 0 .11.044.132s.11 0 .132-.044m-.726-.33s0-.11-.044-.132c0 0-.11 0-.132.044 0 0 0 .11.044.132s.11 0 .132-.044m-.726-.341s0-.11-.044-.132c0 0-.11 0-.132.044 0 0 0 .11.044.132s.11 0 .132-.044m-.726-.33s0-.11-.044-.132c0 0-.11 0-.132.044 0 0 0 .11.044.132s.11 0 .132-.044m-.726-.341s0-.11-.044-.132c0 0-.11 0-.132.044 0 0 0 .11.044.132s.11 0 .132-.044m-.726-.341s0-.11-.044-.132c0 0-.11 0-.132.044 0 0 0 .11.044.132s.11 0 .132-.044m-.726-.33s0-.11-.044-.132c0 0-.11 0-.132.044 0 0 0 .11.044.132s.11 0 .132-.044m-.726-.341s0-.11-.044-.132c0 0-.11 0-.132.044 0 0 0 .11.044.132s.11 0 .132-.044m-.726-.33s0-.11-.044-.132c0 0-.11 0-.131.044 0 0 0 .11.044.132.043.022.11 0 .131-.044m-.725-.341s0-.11-.044-.132c0 0-.11 0-.132.055 0 0 0 .11.044.132s.11 0 .132-.044zm-.726-.341s0-.11-.044-.132c0 0-.11 0-.132.044 0 0 0 .11.044.132s.11 0 .132-.044m-.715-.33s0-.11-.044-.132c0 0-.11 0-.132.044 0 0 0 .11.044.132s.11 0 .132-.044m-.726-.34s0-.11-.044-.133c0 0-.11 0-.132.044 0 0 0 .11.044.132 0 0 .11 0 .132-.044m-.726-.342s0-.11-.044-.132c0 0-.11 0-.132.044 0 0 0 .11.044.132.055.022.11 0 .132-.044m-.726-.34s0-.11-.044-.133c0 0-.11 0-.132.044 0 0 0 .11.044.132s.11 0 .132-.044m-.726-.33s0-.11-.044-.133c0 0-.11 0-.132.044 0 0 0 .11.044.132s.11 0 .132-.044m-.726-.342s0-.11-.044-.132c0 0-.11 0-.132.044 0 0 0 .11.044.132s.11 0 .132-.044m-.715-.34s0-.11-.044-.133c0 0-.11 0-.132.044 0 0 0 .11.044.132s.11 0 .132-.044m-.726-.342s0-.11-.044-.132c0 0-.11 0-.132.044 0 0 0 .11.044.132 0 0 .11 0 .132-.044m-.726-.34s0-.11-.044-.133c0 0-.11 0-.131.044 0 0 0 .11.044.132s.11 0 .131-.044m-.725-.342s0-.11-.044-.132c0 0-.11 0-.132.044 0 0 0 .11.044.132 0 0 .11 0 .132-.044m-.726-.34s0-.11-.044-.133c0 0-.11 0-.132.044 0 0 0 .11.044.133.044.022.11 0 .132-.044m-.715-.342s0-.11-.044-.132c0 0-.11 0-.132.044 0 0 0 .11.044.133.044.022.11 0 .132-.044m-.726-.34s0-.11-.044-.132c0 0-.11 0-.132.044 0 0 0 .11.044.132 0 0 .11 0 .132-.044m-.726-.341s0-.11-.044-.132c0 0-.11 0-.132.044 0 0 0 .11.044.132 0 0 .11 0 .132-.044m-.726-.341s0-.11-.044-.132c0 0-.11 0-.132.044 0 0 0 .11.044.132 0 0 .11 0 .132-.044m-.715-.341s0-.11-.044-.132c0 0-.11 0-.132.044 0 0 0 .11.044.132s.11 0 .132-.044m-.726-.341s0-.11-.044-.132c0 0-.11 0-.132.044 0 0 0 .11.044.132s.11 0 .132-.044m-.726-.341s0-.11-.044-.132c0 0-.11 0-.132.044 0 0 0 .11.044.132s.11 0 .132-.044m-.715-.341s0-.11-.044-.132c0 0-.11 0-.132.044 0 0 0 .11.044.132s.11 0 .132-.044m-.726-.352s0-.11-.044-.132c0 0-.11 0-.132.044 0 0 0 .11.044.132 0 0 .11 0 .132-.044m-.725-.341s0-.11-.044-.132c0 0-.11 0-.132.044 0 0 0 .11.044.132 0 0 .11 0 .132-.044m-.715-.352s0-.11-.044-.132c0 0-.11 0-.132.044 0 0 0 .11.044.132 0 0 .11 0 .132-.044m-.726-.341s0-.11-.044-.132c0 0-.11 0-.132.044 0 0 0 .11.044.132 0 0 .11 0 .132-.044m-.715-.341s0-.11-.044-.132c0 0-.11 0-.132.044 0 0 0 .11.044.132 0 0 .11 0 .132-.044m-.726-.352s0-.11-.044-.132c0 0-.11 0-.132.044 0 0 0 .11.044.132 0 0 .11 0 .132-.044m-.715-.34s0-.11-.044-.133c0 0-.11 0-.132.044 0 0 0 .11.044.132s.11 0 .132-.044m-.726-.353s0-.11-.044-.132c0 0-.11 0-.132.044 0 0 0 .11.044.132 0 0 .11 0 .132-.044m-.715-.34s0-.11-.044-.133c0 0-.11 0-.132.044 0 0 0 .11.044.132 0 0 .11 0 .132-.044m-.726-.353s0-.11-.044-.132c0 0-.11 0-.132.044 0 0 0 .11.044.132 0 0 .11 0 .132-.044m-.715-.34s0-.11-.044-.133c0 0-.11 0-.132.044 0 0 0 .11.044.132 0 0 .11 0 .132-.044m-.715-.353s0-.11-.044-.132c0 0-.11 0-.132.044 0 0 0 .11.044.132 0 0 .11 0 .132-.044m-.726-.352s0-.11-.044-.132c0 0-.11 0-.131.044 0 0 0 .11.044.132 0 0 .11 0 .131-.044m-.714-.352s0-.11-.044-.132c0 0-.11 0-.132.044 0 0 0 .11.044.132 0 0 .11 0 .132-.044m-.726-.34s0-.11-.044-.133c0 0-.11 0-.132.044 0 0 0 .11.044.132 0 0 .11 0 .132-.044m-.715-.352s0-.11-.044-.133c0 0-.11 0-.132.044 0 0 0 .11.044.133 0 0 .11 0 .132-.044m-.715-.352s0-.11-.044-.132c0 0-.11 0-.132.044 0 0 0 .11.044.132 0 0 .11 0 .132-.044m-.726-.352s0-.11-.044-.132c0 0-.11 0-.132.044 0 0 0 .11.044.132 0 0 .11 0 .132-.044m-.715-.352s0-.11-.044-.132c0 0-.11 0-.132.044 0 0 0 .11.044.132 0 0 .11 0 .132-.044m-.715-.363s0-.11-.044-.132c0 0-.11 0-.132.044 0 0 0 .11.044.132 0 0 .11 0 .132-.044m-.715-.352s0-.11-.044-.132c0 0-.11 0-.132.044 0 0 0 .11.044.132 0 0 .11 0 .132-.044m-.726-.352s0-.11-.044-.132c0 0-.11 0-.132.044 0 0 0 .11.044.132 0 0 .11 0 .132-.044m-.715-.352s0-.11-.044-.132c0 0-.11 0-.132.044 0 0 0 .11.044.132 0 0 .11 0 .132-.044m-.703-.363s0-.11-.044-.132c0 0-.11 0-.132.044 0 0 0 .11.043.132 0 0 .11 0 .133-.044m-.726-.352s0-.11-.044-.132c0 0-.11 0-.132.044 0 0 0 .11.044.132 0 0 .11 0 .132-.044m-.715-.352s0-.11-.044-.132c0 0-.11 0-.132.044 0 0 0 .11.044.132 0 0 .11 0 .132-.044m-.715-.363s0-.11-.044-.132c0 0-.11 0-.132.044 0 0 0 .11.044.132 0 0 .11 0 .132-.044m-.715-.363s0-.11-.044-.132c0 0-.11 0-.132.044 0 0 0 .11.044.132 0 0 .11 0 .132-.044m-.715-.363s0-.11-.044-.132c0 0-.11 0-.132.044 0 0 0 .11.044.132 0 0 .11 0 .132-.044m-.715-.352s0-.11-.044-.132c0 0-.11 0-.132.044 0 0 0 .11.044.132 0 0 .11 0 .132-.044M132.104 101.956s0-.11-.055-.132c0 0-.11 0-.132.055 0 0 0 .11.055.132s.11 0 .132-.055m-.726-.308s0-.11-.055-.132c0 0-.11 0-.132.055 0 0 0 .11.055.132s.11 0 .132-.044zm-.737-.319s0-.11-.055-.132c0 0-.11 0-.132.055 0 0 0 .11.055.132s.11 0 .132-.055m-.737-.319s0-.11-.055-.132c0 0-.11 0-.132.055 0 0 0 .11.055.132s.11 0 .132-.044zm-.726-.329s0-.11-.044-.132c0 0-.11 0-.132.055 0 0 0 .11.055.132s.11 0 .132-.044zm-.726-.319s0-.11-.055-.132c0 0-.11 0-.132.055 0 0 0 .11.055.132s.11 0 .132-.044zm-.737-.319s0-.11-.044-.132c0 0-.11 0-.132.055 0 0 0 .11.055.132.044.022.11 0 .132-.055zm-.725-.32s0-.11-.055-.131c0 0-.11 0-.132.055 0 0 0 .11.044.132.055.022.11 0 .132-.044zm-.737-.318s0-.11-.055-.132c0 0-.11 0-.132.044 0 0 0 .11.055.132s.11 0 .132-.055zm-.726-.32s0-.11-.055-.131c0 0-.11 0-.132.044 0 0 0 .11.055.132 0 0 .11 0 .132-.055zm-.726-.33s0-.11-.055-.142c0 0-.11 0-.132.055 0 0 0 .11.044.132.055.022.11 0 .132-.044zm-.737-.318s0-.11-.044-.132c0 0-.11 0-.132.055 0 0 0 .11.055.132.044.022.11 0 .132-.055zm-.726-.32s0-.11-.055-.131c0 0-.11 0-.132.055 0 0 0 .11.055.132.044.022.11 0 .132-.055m-.726-.318s0-.11-.055-.132c0 0-.11 0-.132.055 0 0 0 .11.044.132 0 0 .11 0 .132-.044zm-.737-.33s0-.11-.055-.132c0 0-.11 0-.132.044 0 0 0 .11.055.132.044.022.11 0 .132-.055zm-.726-.319s0-.11-.055-.132c0 0-.11 0-.132.055 0 0 0 .11.055.132s.11 0 .132-.044zm-.726-.319s0-.11-.055-.132c0 0-.11 0-.132.055 0 0 0 .11.044.132s.11 0 .132-.044zm-.737-.319s0-.11-.044-.132c0 0-.11 0-.132.055 0 0 0 .11.055.132.044.022.11 0 .132-.055zm-.725-.33s0-.11-.055-.132c0 0-.11 0-.132.055 0 0 0 .11.055.132 0 0 .11 0 .132-.044zm-.726-.319s0-.11-.055-.132c0 0-.11 0-.132.044 0 0 0 .11.055.132.044.022.11 0 .132-.055zm-.726-.319s0-.11-.044-.132c0 0-.11 0-.132.055 0 0 0 .11.055.132s.11 0 .132-.044zm-.737-.319s0-.11-.055-.132c0 0-.11 0-.132.055 0 0 0 .11.044.132s.11 0 .132-.044zm-.726-.33s0-.11-.055-.132c0 0-.11 0-.132.044 0 0 0 .11.055.132.044.022.11 0 .132-.055zm-.726-.319s0-.11-.055-.132c0 0-.11 0-.132.044 0 0 0 .11.044.132s.11 0 .132-.044zm-.737-.33s0-.11-.044-.132c0 0-.11 0-.132.055 0 0 0 .11.055.132.044.022.11 0 .132-.055zm-.726-.319s0-.11-.055-.132c0 0-.11 0-.132.044 0 0 0 .11.055.132.044.022.11 0 .132-.055zm-.726-.319s0-.11-.055-.132c0 0-.11 0-.132.055 0 0 0 .11.055.132s.11 0 .132-.044zm-.737-.319c.022-.055 0-.11-.055-.132 0 0-.11 0-.132.055 0 0 0 .11.044.132s.11 0 .132-.044zm-.726-.33s0-.11-.055-.132c0 0-.11 0-.132.055 0 0 0 .11.055.132 0 0 .11 0 .132-.043zm-.725-.319s0-.11-.055-.132c0 0-.11 0-.132.056 0 0 0 .11.055.132s.11 0 .132-.044zm-.737-.33s0-.11-.055-.131c0 0-.11 0-.132.055 0 0 0 .11.044.132 0 0 .11 0 .132-.044zm-.726-.318s0-.11-.044-.132c0 0-.11 0-.132.044 0 0 0 .11.044.132s.11 0 .132-.044m-.737-.33s0-.11-.055-.132c0 0-.11 0-.132.055 0 0 0 .11.055.132s.11 0 .132-.044zm-.726-.32s0-.11-.055-.131c0 0-.11 0-.132.055 0 0 0 .11.055.132s.11 0 .132-.044zm-.737-.33s0-.11-.055-.131c0 0-.11 0-.132.044 0 0 0 .11.044.132.055.022.11 0 .132-.055zm-.726-.318s0-.11-.055-.132c0 0-.11 0-.132.055 0 0 0 .11.044.132.055.022.11 0 .132-.044zm-.737-.33s0-.11-.055-.132c0 0-.11 0-.132.044 0 0 0 .11.044.132.055.022.11 0 .132-.044zm-.726-.32s0-.11-.055-.131c0 0-.11 0-.132.044 0 0 0 .11.044.132.055.022.11 0 .132-.044zm-.737-.33s0-.11-.044-.131c0 0-.11 0-.132.044 0 0 0 .11.044.132.055.022.11 0 .132-.044m-.726-.318s0-.11-.044-.132c0 0-.11 0-.132.044 0 0 0 .11.044.132.055.022.11 0 .132-.044m-.725-.33s0-.11-.044-.132c0 0-.11 0-.132.055 0 0 0 .11.055.132.044.022.11 0 .132-.055zm-.737-.33s0-.11-.044-.132c0 0-.11 0-.132.044 0 0 0 .11.044.132.055.022.11 0 .132-.044M104.818 78.353s0-.099-.044-.132c0 0-.11 0-.132.033 0 0-.011.11.033.132 0 0 .11.011.143-.033m-.693-.407s0-.099-.044-.132c0 0-.11-.011-.132.033 0 0 0 .11.033.132 0 0 .11 0 .143-.033m-.682-.407s0-.099-.044-.132c0 0-.11-.01-.132.033 0 0-.011.11.033.143 0 0 .11 0 .143-.033zm-.692-.407s0-.099-.044-.132c0 0-.11-.01-.132.033 0 0 0 .11.033.132 0 0 .11.011.143-.033m-.693-.396s0-.099-.044-.132c0 0-.11-.01-.132.033 0 0-.011.11.033.143 0 0 .11.011.143-.033zm-.682-.407s0-.099-.044-.132c0 0-.11-.01-.132.033 0 0-.011.11.033.143 0 0 .11 0 .132-.033zm-.693-.407s0-.099-.044-.132c0 0-.11-.01-.143.033 0 0-.011.11.033.132 0 0 .11 0 .132-.033zm-.693-.396s0-.099-.033-.132c0 0-.11-.01-.143.033 0 0-.011.11.033.132 0 0 .11.011.132-.033zm-.693-.407s0-.099-.044-.132c0 0-.11-.01-.132.033 0 0-.011.11.033.132 0 0 .11.011.132-.033zm-.693-.396s0-.099-.044-.132c0 0-.11 0-.132.033 0 0-.011.11.033.132 0 0 .11.011.132-.033zm-.693-.406s0-.1-.044-.132c0 0-.11-.011-.132.032 0 0-.01.11.033.133 0 0 .11 0 .132-.033zm-.693-.396s0-.1-.033-.133c0 0-.11 0-.132.034 0 0-.01.11.033.132 0 0 .11.01.132-.033m-.693-.396s0-.1-.044-.121c0 0-.11 0-.132.033 0 0-.01.11.033.132 0 0 .11 0 .132-.033zm-.693-.396s0-.1-.044-.132c0 0-.11 0-.132.033 0 0-.01.11.033.132 0 0 .11 0 .132-.033zm-.692-.396s0-.1-.044-.121c0 0-.11-.011-.133.033 0 0 0 .11.034.132 0 0 .11 0 .132-.033zm-.704-.396s0-.1-.045-.132c0 0-.11 0-.131.033 0 0-.011.11.033.132 0 0 .11 0 .131-.033zm-.693-.396s0-.1-.044-.132c0 0-.11-.011-.132.033 0 0 0 .11.033.132 0 0 .11.01.132-.033zm-.693-.385s0-.1-.044-.132c0 0-.11 0-.132.033 0 0 0 .11.033.132 0 0 .11 0 .132-.033zm-.704-.396s0-.1-.044-.132c0 0-.11-.011-.132.033 0 0 0 .11.033.132 0 0 .11 0 .132-.033zm-.693-.396s0-.1-.044-.132c0 0-.11 0-.132.033 0 0-.011.11.033.132 0 0 .11.01.132-.033zm-.693-.385s0-.11-.044-.132c0 0-.11-.011-.132.033 0 0 0 .11.044.143 0 0 .11 0 .132-.044m-.704-.396s0-.099-.044-.132c0 0-.11-.011-.132.033 0 0 0 .11.033.132 0 0 .11 0 .132-.033zm-.693-.385s0-.099-.044-.132c0 0-.11 0-.132.044 0 0 0 .11.044.132 0 0 .11.011.132-.033zm-.704-.385s0-.099-.044-.132c0 0-.11-.01-.132.033 0 0-.01.11.033.132 0 0 .11 0 .132-.033zm-.693-.385s0-.099-.044-.132c0 0-.11 0-.132.044 0 0 0 .11.033.132 0 0 .11 0 .143-.044m-.704-.385s0-.099-.044-.132c0 0-.11 0-.132.033 0 0 0 .11.033.132 0 0 .11 0 .132-.033zm-.704-.385s0-.11-.043-.132c0 0-.11 0-.133.044 0 0 0 .11.044.132 0 0 .11 0 .132-.033zm-.703-.385s0-.099-.044-.132c0 0-.11 0-.132.033 0 0 0 .11.033.132 0 0 .11 0 .132-.033zm-.704-.385s0-.099-.044-.132c0 0-.11 0-.132.033 0 0 0 .11.044.143 0 0 .11 0 .132-.044m-.693-.385s0-.099-.044-.132c0 0-.11 0-.132.044 0 0 0 .11.044.132 0 0 .11.011.132-.033zm-.704-.374s0-.099-.044-.132c0 0-.11 0-.132.033 0 0 0 .11.044.143 0 0 .11 0 .132-.044m-.704-.385s0-.11-.044-.132c0 0-.11 0-.132.044 0 0-.011.11.033.133 0 0 .11 0 .143-.044m-.704-.374s0-.099-.044-.132c0 0-.11 0-.132.044 0 0 0 .11.044.144 0 0 .11 0 .132-.044zm-.715-.384s0-.1-.044-.132c0 0-.11 0-.143.044 0 0 0 .11.044.132 0 0 .11 0 .132-.044zm-.693-.374s0-.11-.044-.132c0 0-.11 0-.132.044 0 0 0 .11.044.132 0 0 .11 0 .132-.033zm-.715-.374s0-.1-.044-.132c0 0-.11 0-.132.044 0 0 0 .11.044.132 0 0 .11 0 .132-.044m-.704-.374s0-.11-.044-.132c0 0-.11 0-.132.033 0 0 0 .11.044.143 0 0 .11 0 .132-.044m-.715-.374s0-.11-.044-.132c0 0-.11 0-.131.044 0 0-.011.11.044.132 0 0 .11.01.131-.044m-.704-.363s0-.11-.043-.132c0 0-.11 0-.133.044 0 0 0 .11.034.132 0 0 .11 0 .132-.044zm-.703-.374s0-.11-.044-.132c0 0-.11 0-.132.044 0 0 0 .11.044.132 0 0 .11 0 .132-.044m-.715-.374s0-.11-.044-.132c0 0-.11 0-.132.044 0 0 0 .11.044.132 0 0 .11 0 .132-.044m-.704-.363s0-.11-.044-.132c0 0-.11 0-.132.044 0 0 0 .11.044.132 0 0 .11 0 .132-.044m-.715-.374s0-.11-.044-.132c0 0-.11 0-.132.044 0 0 0 .11.044.132 0 0 .11 0 .132-.044m-.704-.363s0-.11-.044-.132c0 0-.11 0-.132.044 0 0 0 .11.044.132 0 0 .11 0 .132-.044m-.715-.363s0-.11-.044-.132c0 0-.11 0-.132.044 0 0 0 .11.044.132 0 0 .11 0 .132-.044m-.715-.363s0-.11-.044-.132c0 0-.11 0-.132.044 0 0 0 .11.044.132 0 0 .11 0 .132-.044m-.715-.363s0-.11-.044-.132c0 0-.11 0-.132.044 0 0 0 .11.044.132 0 0 .11 0 .132-.044m-.715-.363s0-.11-.044-.132c0 0-.11 0-.132.044 0 0 0 .11.044.132 0 0 .11 0 .132-.044m-.715-.352s0-.099-.044-.132c0 0-.11 0-.132.044 0 0 0 .11.044.132 0 0 .11 0 .132-.044m-.715-.363s0-.099-.043-.132c0 0-.11 0-.133.044 0 0 0 .11.044.132 0 0 .11 0 .132-.044m-.714-.352s0-.099-.044-.132c0 0-.11 0-.132.044 0 0 0 .11.044.132 0 0 .11 0 .132-.044m-.715-.363s0-.11-.044-.132c0 0-.11 0-.132.044 0 0 0 .11.044.132 0 0 .11 0 .132-.044m-.715-.352s0-.11-.044-.132c0 0-.11 0-.132.044 0 0 0 .11.044.132 0 0 .11 0 .132-.044m-.715-.352s0-.11-.044-.132c0 0-.11 0-.132.044 0 0 0 .11.044.132 0 0 .11 0 .132-.044m-.715-.34s0-.11-.044-.133c0 0-.11 0-.132.044 0 0 0 .11.044.133 0 0 .11 0 .132-.044m-.726-.352s0-.11-.044-.132c0 0-.11 0-.132.044 0 0 0 .11.044.131 0 0 .11 0 .132-.044M13.393 47.732s0 .11.044.132.11 0 .132-.044a.106.106 0 0 0-.044-.132c-.055-.022-.11 0-.132.044M13.041 48.446s0 .11.044.132.11 0 .132-.044c0 0 0-.11-.044-.132a.106.106 0 0 0-.132.044M13.833 47.16a.099.099 0 1 0 0-.198.099.099 0 0 0 0 .198M14.076 46.29s0 .11.044.133c.044.022.11 0 .132-.044.022-.055 0-.11-.055-.132s-.11 0-.132.055zM9.905 54.012s-.011.11.033.142c.044.033.11.011.143-.033 0 0 0-.11-.033-.132-.044-.032-.11-.01-.143.034zM9.027 55.343s-.022.11.022.142c.044.033.11.022.132-.022 0 0 0-.01.01-.022.023-.044 0-.099-.032-.12a.104.104 0 0 0-.143.022zM12.317 49.876s0 .11.044.132.11 0 .132-.044c0 0 0-.11-.044-.132a.106.106 0 0 0-.132.044M9.477 54.682s-.01.11.022.143c.044.033.11.011.143-.022a.13.13 0 0 0-.033-.143c-.044-.033-.11-.01-.132.033zM14.396 45.564s0 .11.055.132c.044.022.11 0 .132-.055 0 0 0-.11-.055-.132s-.11 0-.132.055M12.69 49.162s0 .11.043.132c.044.022.11 0 .143-.044 0 0 0-.11-.044-.133-.055-.021-.11 0-.132.044zM15.848 41.848s0 .11.066.12c.044.023.099 0 .121-.054.011-.066 0-.121-.066-.132-.055-.022-.11 0-.121.066M16.1 41.089s.01.11.065.132c.055.01.1 0 .121-.055.011-.066 0-.121-.066-.143-.055-.011-.11.01-.132.066zM15.587 42.594s0 .11.055.132c.055.011.11 0 .132-.055s0-.11-.055-.132-.11 0-.132.055M15.298 43.343s0 .11.055.132c.044.022.1 0 .121-.055.022-.055 0-.121-.055-.132-.055-.022-.11 0-.132.055zM16.796 38.8s.01.11.066.122c.044.01.099-.011.11-.055.01-.066-.011-.121-.066-.143-.055 0-.11.022-.121.077zM16.343 40.329s.011.11.066.121c.044.011.099 0 .121-.055.011-.066-.011-.121-.066-.132s-.11.011-.132.066zM16.572 39.57s.011.11.066.12c.055.012.1 0 .121-.054v-.011c.011-.055-.01-.11-.066-.121-.055-.011-.11.01-.12.066M14.713 44.828s0 .11.055.132c.044.022.11 0 .132-.055s0-.11-.055-.132-.11 0-.132.055M15.012 44.09s0 .11.055.133c.055.022.11 0 .132-.055s0-.11-.055-.132-.11 0-.132.055"/><path fill="#232826" d="M5.531 45.675c1.672 1.177 3.795 2.574 6.456 4.202.264.165.517.319.792.484.286.088-.77 1.716-1.166 2.398-.297.517-.715 1.517-.868 1.385a52 52 0 0 1-.803-.67c-2.816-2.387-4.884-4.488-6.413-6.248-1.462-1.529-3.398-4.575-2.441-5.51.45-.44-.165.913 4.443 3.97zm4.939 7.634s-.11-.011-.133.033a.12.12 0 0 0 .034.142c.043.033.11.011.143-.032 0 0 0-.11-.034-.133zm.417-.682s-.11-.011-.132.033c-.033.044-.01.11.034.132.043.032.11.01.131-.034 0 0 0-.11-.033-.131m.396-.693s-.11-.011-.132.033-.01.11.033.132c.044.033.11.01.132-.033 0 0 0-.11-.044-.132zm.396-.704s-.11-.011-.132.033-.01.11.033.132.11.01.132-.033.011-.11-.033-.132m.385-.693s-.11 0-.132.044 0 .11.033.132c.055.022.11 0 .143-.044 0 0 0-.11-.044-.132"/><path fill="url(#i)" d="M111.139 97.81c.198.088.11.385-.11.352-2.133-.341-5.719-.407-6.313 2.815-.022.121-.033.242-.044.363-.363 4.301 6.412 9.294 6.412 9.294l-4.619-2.266-15.42-7.578s-.308-6.577-4.037-10.229c-.418-.406-.055-1.11.517-.978 4.367 1.023 13.463 3.486 23.625 8.227z"/><path fill="url(#j)" d="M74.834 100.602c1.694 3.651 9.81 14.078 48.614 24.186 0 0 .737.187 1.76-2.002 1.012-2.189.396-2.639.396-2.639-32.787-23.054-46.008-22.515-49.88-21.437-.813.22-1.23 1.133-.879 1.903z"/><path fill="#232826" d="M125.681 120.026c-32.5-22.855-45.787-22.624-50-21.458a1.52 1.52 0 0 0-.968 2.1c1.837 3.96 10.251 14.255 48.703 24.263.088.022.879.143 1.913-2.089 1.034-2.233.418-2.761.352-2.816m-2.199 4.619c-38.33-9.986-46.7-20.182-48.515-24.109a1.21 1.21 0 0 1 0-1.034c.154-.33.44-.571.78-.67 4.169-1.155 17.367-1.364 49.758 21.414 0 0 .495.462-.44 2.464-.934 2.001-1.594 1.924-1.594 1.924z"/><path fill="#232826" d="M79.52 102.989c.11.033-.242.693-.396.957-.11.198-.737 1.232-.792 1.177-.1-.077-.627-.561-.715-.638-1.078-.913-1.892-2.354-2.013-2.794.374.176.737.143.88.055.165-.11.242-.33.275-.55.638.451 1.452.99 2.464 1.606.099.066.198.121.297.187M97.227 111.974c-.517.913-1.078 1.65-1.474 2.211-.044-.022-.737 1.122-.847 1.078-8.194-3.674-13.254-7.435-16.3-9.877.473-.462 1.012-1.529 1.342-2.134 3.321 1.98 8.568 4.763 16.828 8.524.11.044.209.099.319.143zM112.967 118.75c.154.044-.55 1.045-.814 1.43-.088.121-.869 1.166-1.001 1.166-.121-.044-11.537-4.092-15.772-5.961.836-.924 1.66-2.354 2.178-3.256 4.223 1.914 9.206 4.058 15.079 6.478l.33.132zM124.516 123.369s-.858 1.397-1.419 1.221c-4.114-1.243-7.886-2.012-11.34-3.2.528-.517 1.298-1.782 1.683-2.453a686 686 0 0 0 10.724 4.3l.352.143zM113.494 117.991a1321 1321 0 0 1-15.739-7.116l.055-.132c4.696 2.156 9.987 4.554 15.739 7.116zM98.89 108.356l-.067.132c-7.435-3.519-13.55-6.093-18.17-7.644l.044-.132c4.63 1.562 10.746 4.136 18.192 7.655zM125.747 120.905l-.077.121c-3.674-2.409-7.523-4.917-10.779-6.885l.077-.121c3.256 1.968 7.105 4.476 10.779 6.885M113.749 117.584s0-.077-.033-.099c0 0-.077 0-.088.033 0 0 0 .077.033.088.033.022.077 0 .099-.033zm-.517-.231s0-.077-.033-.088c0 0-.077 0-.088.033 0 0 0 .077.033.099.033.011.077 0 .099-.033zm-.517-.231s0-.077-.033-.099c0 0-.077 0-.088.033 0 0 0 .077.033.088.033.022.077 0 .099-.033zm-.517-.231s0-.077-.033-.099c0 0-.077 0-.088.033 0 0 0 .077.033.099s.077 0 .099-.033zm-.517-.231s0-.077-.033-.099c0 0-.077 0-.088.033 0 0 0 .077.033.099s.077 0 .099-.033zm-.517-.231s0-.077-.032-.099c0 0-.077 0-.088.033 0 0 0 .077.033.099.033.011.076 0 .098-.033zm-.516-.231s0-.077-.033-.099c0 0-.077 0-.088.033 0 0 0 .077.033.099s.077 0 .099-.033zm-.517-.231s0-.077-.033-.099c0 0-.077 0-.088.033 0 0 0 .077.033.099 0 0 .077 0 .099-.033zm-.517-.231s0-.077-.033-.099c0 0-.077 0-.088.033 0 0 0 .077.033.088s.077 0 .099-.033zm-.517-.231s0-.077-.033-.088c0 0-.077 0-.088.033 0 0 0 .077.033.099.033.011.077 0 .099-.033zm-.517-.231s0-.077-.033-.099c0 0-.077 0-.099.033 0 0 0 .077.033.099s.077 0 .099-.033m-.517-.231s0-.077-.033-.099c0 0-.077 0-.088.033 0 0 0 .077.033.088s.077 0 .099-.033zm-.517-.231s0-.077-.033-.099c0 0-.077 0-.088.033 0 0 0 .077.033.088.033.022.077 0 .099-.033zm-.517-.231s0-.077-.033-.099c0 0-.077 0-.099.033 0 0 0 .077.033.099.033.011.077 0 .099-.033m-.517-.231s0-.077-.033-.099c0 0-.077 0-.099.033 0 0 0 .077.033.099 0 0 .077 0 .099-.033m-.517-.242s0-.077-.033-.088c0 0-.077 0-.099.033 0 0 0 .077.033.099s.077 0 .099-.033zm-.517-.231s0-.077-.033-.099c0 0-.077 0-.099.033 0 0 0 .077.033.088.033.022.077 0 .099-.033zm-.517-.231s0-.077-.033-.099c0 0-.077 0-.099.033 0 0 0 .077.033.099s.077 0 .099-.033m-.517-.231s0-.077-.033-.099c0 0-.077 0-.099.033 0 0 0 .077.033.099 0 0 .077 0 .099-.033m-.506-.242s0-.077-.033-.099c0 0-.077 0-.099.033 0 0 0 .077.033.099s.077 0 .099-.033m-.517-.231s0-.077-.033-.099c0 0-.077 0-.099.033 0 0 0 .077.033.088s.077 0 .088-.033zm-.516-.231s0-.077-.033-.099c0 0-.077 0-.099.033 0 0 0 .077.033.099s.077 0 .099-.033m-.517-.241s0-.077-.033-.099c0 0-.077 0-.099.033 0 0 0 .077.033.099 0 0 .077 0 .099-.033m-.517-.231s0-.077-.033-.088c0 0-.077 0-.099.033 0 0 0 .077.033.088.033.022.077 0 .099-.033m-.517-.231s0-.077-.033-.099c0 0-.077 0-.099.033 0 0 0 .077.033.099s.077 0 .099-.033m-.517-.242s0-.077-.033-.099c0 0-.077 0-.099.033 0 0 0 .077.033.099s.077 0 .099-.033m-.517-.231s0-.077-.033-.099c0 0-.077 0-.099.033 0 0 0 .077.033.099s.077 0 .099-.033m-.517-.242s0-.077-.033-.099c0 0-.077 0-.1.033 0 0 0 .077.034.099.033.022.077 0 .099-.033m-.506-.231s0-.077-.033-.099c0 0-.077 0-.099.033 0 0 0 .077.033.099s.077 0 .099-.033m-.517-.242s0-.077-.033-.088c0 0-.077 0-.099.033 0 0 0 .077.033.099.033.011.077 0 .099-.033zm-.517-.231s0-.077-.033-.099c0 0-.077 0-.099.033 0 0 0 .077.033.099 0 0 .077 0 .1-.033M98.979 108.027s0-.077-.033-.088c0 0-.077 0-.088.033 0 0 0 .077.033.099 0 0 .077 0 .099-.033zm-.506-.242s0-.077-.033-.099c0 0-.077 0-.099.033 0 0 0 .077.033.099.033.011.077 0 .1-.033m-.517-.242s0-.077-.033-.099c0 0-.077 0-.099.033 0 0 0 .077.033.099 0 0 .077 0 .1-.033m-.517-.242s0-.077-.033-.099c0 0-.077 0-.088.033 0 0 0 .077.033.099s.077 0 .1-.033zm-.506-.242s0-.077-.033-.099c0 0-.077 0-.099.033 0 0 0 .077.033.099s.077 0 .1-.033m-.517-.231s0-.077-.033-.099c0 0-.077 0-.099.033 0 0 0 .077.033.099s.077 0 .1-.033m-.517-.242s0-.077-.033-.088c0 0-.077 0-.099.033 0 0 0 .077.033.099s.077 0 .1-.033zm-.517-.231s0-.077-.032-.099c0 0-.078 0-.1.033 0 0 0 .077.034.099.032.022.076 0 .098-.033m-.517-.231s0-.077-.032-.099c0 0-.078 0-.1.033 0 0 0 .077.033.088 0 0 .078 0 .088-.033zm-.516-.242s0-.077-.033-.099c0 0-.077 0-.1.033 0 0 0 .077.034.099.033.022.077 0 .099-.033m-.517-.231s0-.077-.033-.099c0 0-.077 0-.088.033 0 0 0 .077.033.099s.077 0 .099-.033zm-.506-.231s0-.077-.033-.088c0 0-.077 0-.1.033 0 0 0 .077.034.099.033.022.077 0 .099-.033zm-.528-.231s0-.077-.033-.099c0 0-.077 0-.1.033 0 0 0 .077.034.099.033.011.077 0 .099-.033m-.517-.231s0-.077-.033-.099c0 0-.077 0-.088.033 0 0 0 .077.033.099s.077 0 .099-.033zm-.517-.231s0-.077-.033-.099c0 0-.077 0-.088.033 0 0 0 .077.033.088s.077 0 .088-.033zm-.517-.22s0-.077-.033-.099c0 0-.077 0-.088.033 0 0 0 .077.033.088s.077 0 .088-.033zm-.517-.231s0-.077-.033-.099c0 0-.077 0-.088.033 0 0 0 .077.033.088 0 0 .077 0 .088-.033zm-.528-.22s0-.077-.033-.099c0 0-.077 0-.088.033 0 0 0 .077.033.088s.077 0 .088-.033zm-.517-.22s0-.077-.033-.099c0 0-.077 0-.099.033 0 0 0 .077.033.088s.077 0 .088-.033zm-.528-.22s0-.077-.033-.099c0 0-.077 0-.088.033 0 0 0 .077.033.088s.077 0 .088-.033zm-.517-.22s0-.077-.033-.099c0 0-.077 0-.088.033 0 0 0 .077.033.088s.077 0 .088-.033zm-.517-.22s0-.077-.033-.099c0 0-.077 0-.088.033 0 0 0 .077.033.088s.077 0 .088-.033zm-.528-.22s0-.077-.033-.099c0 0-.077 0-.088.033 0 0 0 .077.033.088s.077 0 .088-.033zm-.528-.209s0-.077-.032-.099c0 0-.078 0-.088.033 0 0 0 .077.043.099.034.011.078 0 .089-.033zm-.527-.209s0-.077-.044-.099c0 0-.078 0-.088.044 0 0 0 .077.032.088.034.011.078 0 .088-.033zm-.517-.209s0-.076-.044-.098c0 0-.077 0-.088.033 0 0 0 .076.033.087s.077 0 .088-.033zm-.528-.208s0-.077-.044-.099c0 0-.077 0-.088.033 0 0 0 .077.044.099.033.011.077 0 .088-.033m-.528-.209s0-.077-.044-.099c0 0-.077 0-.088.044 0 0 0 .077.044.088.033.011.077 0 .088-.033m-.54-.198s0-.077-.043-.099c0 0-.077 0-.088.044 0 0 0 .077.044.099.033.011.077 0 .088-.033zm-.527-.209s0-.077-.044-.099c0 0-.077 0-.088.044 0 0 0 .077.044.088 0 0 .077 0 .088-.033m-.528-.198s0-.077-.044-.099c0 0-.077 0-.088.044 0 0 0 .077.044.088.033.011.077 0 .088-.033m-.528-.187s0-.077-.044-.099c0 0-.077 0-.088.044 0 0 0 .077.044.088.033.011.077 0 .088-.033m-.539-.198s0-.088-.044-.099c0 0-.077 0-.088.044 0 0 0 .077.044.088.033 0 .077 0 .088-.033m-.528-.187s0-.088-.044-.099c0 0-.077 0-.088.044 0 0 0 .077.044.088 0 0 .077 0 .088-.044zm-.539-.187s0-.088-.044-.099c0 0-.077 0-.088.044 0 0 0 .077.044.088.033 0 .077 0 .088-.033M125.529 120.434s0-.066-.022-.088c0 0-.077-.011-.099.022 0 0-.011.077.022.099 0 0 .077.011.099-.022zm-.473-.319s0-.066-.022-.088c0 0-.077-.011-.099.022 0 0-.011.077.022.099 0 0 .077.011.099-.022zm-.473-.308s0-.066-.022-.088c0 0-.077 0-.099.022 0 0-.011.077.022.099 0 0 .077.011.099-.022zm-.473-.319s0-.066-.022-.088c0 0-.077-.011-.099.022 0 0-.011.077.022.099 0 0 .077.011.099-.022zm-.473-.308s0-.066-.022-.088c0 0-.077-.011-.099.022 0 0 0 .077.022.099 0 0 .077.011.099-.022zm-.473-.319s0-.066-.022-.088c0 0-.077-.011-.099.022 0 0 0 .077.022.099 0 0 .077 0 .099-.022zm-.473-.308s0-.066-.022-.088c0 0-.077-.011-.099.022 0 0-.011.077.022.099 0 0 .077.011.099-.022zm-.484-.308s0-.066-.022-.088c0 0-.076-.011-.098.022 0 0-.011.077.022.099 0 0 .077 0 .098-.022zm-.472-.319s0-.066-.022-.088c0 0-.077-.011-.099.022 0 0-.011.077.022.099 0 0 .077.011.099-.022zm-.473-.308s0-.066-.022-.088c0 0-.077 0-.099.022 0 0-.011.077.022.099 0 0 .077.011.099-.022zm-.473-.308s0-.066-.033-.088c0 0-.077-.011-.099.022 0 0-.011.077.022.099 0 0 .077.011.099-.022zm-.473-.308s0-.066-.022-.088c0 0-.077-.011-.099.022 0 0-.011.077.022.099 0 0 .077.011.099-.022zm-.484-.308s0-.066-.022-.088c0 0-.077-.011-.099.022 0 0 0 .077.022.099 0 0 .077.011.099-.022zm-.473-.308s0-.066-.022-.088c0 0-.077 0-.099.022 0 0 0 .077.022.099 0 0 .077 0 .099-.022zm-.473-.308s0-.066-.022-.088c0 0-.077 0-.099.022 0 0 0 .077.022.099 0 0 .077 0 .099-.022zm-.484-.297s0-.066-.033-.088c0 0-.077-.011-.099.022 0 0 0 .077.022.099 0 0 .077.011.099-.022zm-.473-.308s0-.066-.022-.088c0 0-.077-.011-.099.022 0 0-.011.077.022.099 0 0 .077 0 .099-.022zm-.484-.308s0-.066-.022-.088c0 0-.077 0-.099.022 0 0 0 .077.022.099 0 0 .077 0 .099-.022zm-.473-.297s0-.077-.022-.088c0 0-.077 0-.099.022 0 0-.011.077.022.099 0 0 .077 0 .099-.022zm-.484-.297s0-.077-.022-.088c0 0-.077 0-.099.022 0 0-.011.077.022.099 0 0 .077 0 .099-.022zm-.484-.297s0-.066-.022-.088c0 0-.077 0-.099.022 0 0 0 .077.022.099 0 0 .077 0 .099-.022zm-.484-.307s0-.077-.022-.088c0 0-.077 0-.099.022 0 0 0 .076.022.098 0 0 .077.011.099-.022zm-.473-.297s0-.066-.022-.088c0 0-.077 0-.099.022 0 0 0 .077.022.099 0 0 .077 0 .099-.022z"/><path fill="#232826" d="M98.272 109.961c-1.463 3.168-3.3 5.324-3.322 5.357l-.11-.088s4.125-4.862 4.95-10.691l.143.022c-.275 1.969-.924 3.817-1.661 5.411zM80.292 101.758c-.913 1.98-1.892 3.387-1.903 3.409l-.121-.077s2.2-3.189 3.09-6.665l.132.033c-.296 1.177-.747 2.31-1.21 3.311zM113.902 117.277c-1.122 2.419-2.573 4.036-2.595 4.058l-.11-.099s3.266-3.651 3.772-8.139h.143c-.165 1.529-.649 2.948-1.21 4.169z"/><path fill="#232826" d="m111.152 110.524-.165.231c-.297-.22-7.226-5.39-6.412-9.8.616-3.344 4.322-3.267 6.478-2.926 0 0 .033 0 .044-.033 0-.022 0-.044-.022-.055-10.086-4.707-19.115-7.16-23.592-8.216a.41.41 0 0 0-.473.21.43.43 0 0 0 .077.527c3.729 3.64 4.08 10.251 4.08 10.317h-.285s-.341-6.555-3.993-10.119a.72.72 0 0 1-.132-.869.68.68 0 0 1 .781-.34c4.487 1.055 13.539 3.519 23.647 8.237.154.066.22.231.176.396s-.198.253-.363.231c-2.057-.33-5.576-.418-6.159 2.695-.781 4.234 6.236 9.47 6.302 9.525z"/><path fill="#232826" d="M98.9 104.046h-.143c0-.066.286-6.457-.121-11.208h.143c.407 4.751.12 11.142.12 11.208M99.383 104.288v-.022s-.033-.077-.066-.077c0 0-.077.033-.077.066 0 0 .022.066.066.077a.07.07 0 0 0 .066-.044zm.022-.561v-.033s-.034-.066-.067-.077c0 0-.076.033-.076.066 0 0 .032.066.066.077.032 0 .054-.011.066-.044zm.01-.572v-.022s-.033-.077-.066-.077c0 0-.066.033-.077.066 0 0 .033.077.066.077.034 0 .056-.011.067-.044zm.022-.572v-.022s-.032-.077-.066-.077c0 0-.076.033-.066.066 0 0 .033.077.066.077.034 0 .056-.011.067-.044m.011-.561v-.033s-.032-.077-.066-.077c0 0-.077.033-.077.066 0 0 .033.066.066.077a.07.07 0 0 0 .067-.044zm.012-.572v-.033s-.033-.066-.066-.066c0 0-.067.033-.078.066 0 0 .034.066.066.066.033 0 .055-.011.066-.044zm.01-.561v-.033s-.032-.066-.076-.066c0 0-.067.033-.067.066 0 0 .034.066.067.066.032 0 .054-.011.066-.044zm0-.571v-.033s-.033-.066-.066-.077c0 0-.066.033-.066.066 0 0 .034.066.067.077a.07.07 0 0 0 .066-.044zm.011-.561v-.033s-.032-.066-.066-.066c0 0-.066.033-.077.066 0 0 .034.066.078.066.032 0 .054-.022.065-.044zm0-.572v-.033s-.032-.066-.066-.066c0 0-.066.033-.077.066 0 0 .034.077.078.077.032 0 .054-.022.065-.044m-.01-.572v-.033s-.034-.066-.067-.066c0 0-.066.033-.066.066 0 0 .034.066.067.066a.07.07 0 0 0 .066-.044zm0-.561v-.033s-.034-.066-.067-.066c0 0-.066.033-.066.077 0 0 .034.066.078.066.032 0 .054-.011.065-.044zm-.011-.572v-.033s-.033-.066-.078-.066c0 0-.066.033-.066.066 0 0 .034.066.078.066a.07.07 0 0 0 .066-.044zm-.012-.561v-.033s-.032-.066-.076-.066c0 0-.067.033-.067.077 0 0 .033.066.066.066a.07.07 0 0 0 .067-.044zm-.01-.572v-.033s-.034-.066-.078-.066c0 0-.066.033-.066.077 0 0 .034.066.067.066a.07.07 0 0 0 .066-.044zm-.023-.56v-.034s-.033-.066-.077-.066c0 0-.066.033-.066.077 0 0 .033.066.078.066a.07.07 0 0 0 .066-.044m-.022-.573v-.033s-.032-.066-.076-.066c0 0-.066.033-.066.077 0 0 .032.066.076.066.034 0 .044-.022.055-.044zm-.032-.572v-.033s-.034-.066-.078-.066c0 0-.066.033-.066.077 0 0 .034.066.078.066a.07.07 0 0 0 .066-.044m-.023-.56v-.034s-.032-.066-.076-.066c0 0-.067.033-.067.077 0 0 .034.066.078.066.022 0 .044-.022.055-.044zm-.043-.562v-.033s-.034-.066-.078-.066c0 0-.066.033-.066.077 0 0 .034.066.078.066.022 0 .043-.022.055-.044z"/><path fill="#232826" d="M98.895 99.789s-4.696-2.1-6.335-2.475c-1.573-.363-1.88.54-1.892.583l-.132-.044s.341-1.067 2.057-.67c1.65.373 6.313 2.463 6.357 2.485l-.055.132z"/><path fill="#232826" d="M98.612 100.097s0-.077-.033-.1c0 0-.077 0-.099.034 0 0 0 .077.033.099.033.011.077 0 .088-.033zm-.517-.22s0-.077-.033-.1c0 0-.077 0-.088.034 0 0 0 .077.033.088s.077 0 .1-.033zm-.517-.231s0-.077-.033-.1c0 0-.077 0-.099.034 0 0 0 .077.033.088s.077 0 .088-.033zm-.528-.22s0-.077-.032-.1c0 0-.078 0-.088.034 0 0 0 .077.032.088.034.01.078 0 .088-.033zm-.516-.22s0-.077-.034-.1c0 0-.076 0-.087.034 0 0 0 .077.032.088.034.01.078 0 .089-.033zm-.528-.21s0-.076-.044-.098c0 0-.077 0-.088.044 0 0 0 .077.033.088s.077 0 .088-.033zm-.528-.22s0-.076-.033-.098c0 0-.077 0-.088.044 0 0 0 .077.044.088 0 0 .077 0 .088-.033zm-.528-.208s0-.077-.033-.1c0 0-.077 0-.1.045 0 0 0 .077.045.088.033.01.077 0 .088-.033m-.528-.198s0-.077-.044-.1c0 0-.077 0-.088.045 0 0 0 .077.044.088.033.01.077 0 .088-.033m-.54-.187s0-.088-.043-.099c0 0-.077 0-.088.044 0 0 0 .077.044.088.033.01.066 0 .088-.033m-.538-.176s-.011-.088-.044-.099c0 0-.077 0-.088.044 0 0 .01.077.044.088s.066 0 .088-.033m-.55-.154s-.011-.088-.055-.099c0 0-.077.011-.088.055 0 0 .011.077.055.088.033 0 .066 0 .077-.044zm-.55-.088v-.022s-.033-.077-.066-.077c0 0-.077.022-.077.066 0 0 .022.066.066.077.033 0 .055-.011.066-.044zm-.572.044v-.044s-.044-.066-.088-.055c0 0-.066.044-.055.088 0 0 .044.066.088.055.022 0 .044-.022.055-.044m-.506.22s.011-.055 0-.077c0 0-.066-.033-.099-.011 0 0-.033.066-.01.099 0 0 .065.033.098.011l.022-.022zm-.352.45s-.01-.087-.044-.098c0 0-.077.01-.088.055 0 0 0 .077.044.088.033 0 .066 0 .088-.044M105.189 100.02s0-.077-.022-.088c0 0-.077-.01-.099.022 0 0 0 .077.022.099 0 0 .077.011.099-.022zm-.484-.275s0-.077-.033-.088c0 0-.077 0-.099.033 0 0 0 .077.033.1 0 0 .077 0 .099-.023zm-.506-.264s0-.077-.033-.088c0 0-.076 0-.098.033 0 0 0 .077.033.1 0 0 .076 0 .098-.034zm-.505-.253s0-.077-.033-.099c0 0-.077 0-.099.033 0 0 0 .077.033.1 0 0 .077 0 .099-.034m-.517-.241s0-.078-.033-.1c0 0-.077 0-.099.034 0 0 0 .076.033.098s.077 0 .099-.032m-.517-.231s0-.078-.033-.1c0 0-.077 0-.088.033 0 0 0 .078.033.1s.077 0 .099-.034zm-.517-.231s0-.078-.033-.089c0 0-.077 0-.088.033 0 0 0 .078.033.089s.077 0 .088-.034m-.517-.22s0-.077-.033-.1c0 0-.077 0-.088.034 0 0 0 .077.033.099.033.01.077 0 .088-.033m-.528-.22s0-.077-.033-.1c0 0-.077 0-.088.034 0 0 0 .077.033.088s.077 0 .088-.033zm-.517-.22s0-.077-.033-.1c0 0-.077 0-.088.034 0 0 0 .077.044.099.033.01.077 0 .088-.033zm-.528-.21s0-.087-.044-.098c0 0-.077 0-.088.044 0 0 0 .077.044.088.033.01.077 0 .088-.033M105.334 99.47l-.066.12c-.286-.165-1.078-.604-2.419-1.21-1.738-.77-3.916-1.627-3.938-1.638l.055-.132s2.211.869 3.949 1.639c1.341.594 2.144 1.044 2.43 1.21zM88.147 71.027c1.108-2.452-8.368-9.128-21.166-14.912s-24.07-8.485-25.179-6.033c-1.108 2.453 8.368 9.13 21.166 14.913 12.798 5.784 24.07 8.484 25.179 6.032"/><path fill="#A34023" d="M84.858 67.995c1.057-2.475-7.825-8.643-19.84-13.778s-22.612-7.291-23.67-4.816c-1.057 2.474 7.825 8.642 19.84 13.777s22.612 7.291 23.67 4.817"/><path fill="#CB5F32" d="M84.52 67.516c1.017-2.38-7.681-8.378-19.428-13.398S43 46.958 41.982 49.337s7.681 8.378 19.428 13.398 22.093 7.16 23.11 4.78"/><path stroke="#232826" stroke-miterlimit="10" stroke-width=".382" d="M84.858 67.995c1.057-2.475-7.825-8.643-19.84-13.778s-22.612-7.291-23.67-4.816c-1.057 2.474 7.825 8.642 19.84 13.777s22.612 7.291 23.67 4.817Z"/><path stroke="#232826" stroke-miterlimit="10" stroke-width=".382" d="M84.52 67.516c1.017-2.38-7.681-8.378-19.428-13.398S43 46.958 41.982 49.337s7.681 8.378 19.428 13.398 22.093 7.16 23.11 4.78Z"/><mask id="k" width="136" height="69" x="7" y="0" maskUnits="userSpaceOnUse" style="mask-type:luminance"><path fill="#fff" d="M41.978 49.338c-1.012 2.375 7.688 8.37 19.435 13.396 11.746 5.015 22.096 7.16 23.108 4.784.627-1.451 59.47-22.81 57.655-41.794C138.48-13.08 13.492 4.089 8.938 2.142c-11.746-5.026 34.052 44.82 33.04 47.196"/></mask><g mask="url(#k)"><path fill="#F4DDAB" d="M45.66 47.577c.11-.231.209-.473.319-.704l.319-.704.318-.704.165-.352.165-.352.165-.352c.055-.12.11-.23.176-.352l.363-.693c.132-.23.253-.45.385-.681l.198-.33.21-.33c.131-.22.285-.44.428-.65.077-.11.143-.22.22-.318l.231-.32.231-.318.242-.308c.154-.21.319-.418.484-.616.253-.308.495-.605.759-.902l.033-.033c.407-.473.814-.946 1.243-1.408.682-.77 1.386-1.529 2.078-2.288l.715-.77s1.507-1.748 1.958-2.133c.264-.33.495-.693.726-1.045s.44-.726.649-1.089c.418-.737.803-1.485 1.155-2.255.363-.759.682-1.54.979-2.331.143-.396.286-.792.407-1.2.033-.098.066-.197.088-.296l.044-.154.044-.154c.055-.209.12-.418.187-.616a18 18 0 0 1 1.011-2.365c.397-.759.825-1.506 1.31-2.21.241-.352.494-.704.77-1.034.263-.33.55-.66.857-.968a9 9 0 0 1 .473-.44c.165-.143.341-.275.517-.385.803-.649 1.562-.363 1.562-.363l.033.044c.154.033.297.099.429.176.253.143.275.429.462.638.374.429.66.902.902 1.408.473 1 1.254 4.432 2.1 5.213.154.22.43.495.605.693.363.396.825.649 1.265.968l.231.165c.506.319.935.55 1.155.66.616.319 2.827.935 2.827.935s.275.022.67.066c.33.022.66.044.99.055.55.022 1.1.01 1.65-.022.54-.044 1.078-.11 1.595-.264.253-.077.506-.154.748-.264l.176-.088.165-.1c.055-.032.11-.065.176-.11.055-.032.11-.076.176-.11.913-.604 1.804-1.275 2.728-1.913.461-.319.934-.616 1.44-.88.253-.132.517-.242.792-.319.033 0 .077-.022.11-.033.1-.022.21-.044.308-.044h.198a.6.6 0 0 1 .231.066c.044.011.077.033.121.055a.6.6 0 0 1 .121.121c.066.1.044.242.055.352.022.231-.055.385-.088.605-.077.44-.275.825-.418 1.243a39 39 0 0 1-.968 2.397c-.088.198-.352.32-.429.506-.077.198.066.715-.132.65-.209-.078-.319.22-.099.296l-.033.308-.132.638c-.253.792-.429 1.606-.715 2.398.044.077.121.165.165.242.308.517.583 1.045.836 1.595.22.45.407.924.605 1.386.066.175.143.352.21.517l.373.967.187.484.187.473.1.231.043.121.044.121.044.132s.033.088.044.132c.022.088.055.176.077.264.088.352.121.715.132 1.067 0 .363-.01.715-.055 1.067-.033.352-.088.693-.154 1.045a32 32 0 0 1-.44 2.035c-.154.67-.308 1.341-.407 2.012a8 8 0 0 0-.099 1.001v.506l.022.517c.033.704.022 1.397-.033 2.1a12.4 12.4 0 0 1-.34 2.09 9 9 0 0 1-.76 1.991 5.3 5.3 0 0 1-.594.902c-.22.286-.472.539-.758.77-.528.429-1.034.89-1.53 1.375a49 49 0 0 0-2.815 3.013c-.022.023-.044.033-.066.056.022.373.022.747 0 1.11 0 .1 0 .198-.022.308-.033.32-.077.627-.132.946a13 13 0 0 1-.682 2.409c-.297.78-.66 1.54-1.078 2.255s-1.814 2.375-2.364 3.002c-2.53 2.728-7.26 0-10.284-1.276L52.17 61.611c-5.632-2.463-11.02-4.817-9.371-8.6.033-.034 2.024-3.575 2.882-5.445z"/><path stroke="#121112" stroke-miterlimit="10" stroke-width=".271" d="M57.065 31.959c-.45.385-1.958 2.134-1.958 2.134l-.715.77c-.692.758-1.396 1.517-2.078 2.287-.43.462-.836.935-1.243 1.408l-.033.033c-.264.297-.506.594-.759.902-.165.198-.33.407-.484.616l-.242.308-.23.319-.232.319c-.077.099-.143.209-.22.319-.143.209-.297.429-.429.649l-.209.33-.198.33c-.132.23-.253.45-.385.681l-.363.693a5 5 0 0 0-.176.352l-.165.352-.165.352-.165.352-.319.704-.319.704c-.11.231-.208.473-.318.704l.022-.011c-.858 1.87-2.85 5.411-2.882 5.444-1.65 3.784 3.74 6.138 9.37 8.601l15.575 6.918c3.024 1.276 7.754 4.004 10.284 1.276.55-.627 1.946-2.288 2.364-3.002.418-.715.781-1.474 1.078-2.255s.54-1.584.682-2.409c.055-.319.1-.627.132-.946.022-.11.022-.209.022-.308a9 9 0 0 0 0-1.11c.022-.023.044-.033.066-.056a49 49 0 0 1 2.816-3.013c.495-.484 1-.946 1.529-1.375.285-.231.538-.484.758-.77.231-.286.43-.583.594-.902a9 9 0 0 0 .76-1.99c.175-.694.285-1.386.34-2.09s.066-1.397.033-2.101l-.022-.517v-.506c.011-.33.044-.67.1-1 .098-.672.252-1.343.406-2.014.165-.67.32-1.352.44-2.034.066-.352.121-.693.154-1.045.044-.352.055-.704.055-1.067a5 5 0 0 0-.132-1.067c-.022-.088-.055-.176-.077-.264a2 2 0 0 0-.044-.132l-.044-.132c-.01-.033-.044-.12-.044-.12l-.044-.122-.099-.23-.187-.474-.187-.484-.374-.968c-.066-.164-.143-.34-.209-.517-.198-.461-.385-.934-.605-1.385a17 17 0 0 0-.836-1.595c-.044-.077-.12-.165-.165-.242.286-.792.462-1.606.715-2.398l.132-.638.033-.308c-.22-.077-.11-.374.1-.297.197.066.054-.45.131-.649.077-.186.341-.308.43-.506.34-.78.67-1.572.967-2.397.143-.418.341-.803.418-1.243.033-.22.11-.374.088-.605-.01-.11.011-.253-.055-.352a.6.6 0 0 0-.12-.12c-.045-.023-.078-.045-.122-.056a.6.6 0 0 0-.23-.066h-.199c-.099 0-.209.022-.308.044-.033.011-.077.033-.11.033a4 4 0 0 0-.792.32c-.506.263-.979.56-1.44.879-.924.638-1.815 1.309-2.728 1.914-.066.033-.121.077-.176.11-.066.044-.121.077-.176.11l-.165.099-.176.088c-.242.11-.495.187-.748.264-.517.154-1.056.22-1.595.264-.55.033-1.1.044-1.65.022-.33-.011-.66-.033-.99-.055-.395-.044-.67-.066-.67-.066s-2.211-.616-2.827-.935c-.22-.11-.649-.341-1.155-.66l-.23-.165c-.44-.32-.903-.572-1.266-.968-.176-.198-.45-.473-.605-.693-.846-.78-1.627-4.212-2.1-5.213a6.1 6.1 0 0 0-.902-1.408c-.187-.21-.21-.495-.462-.638a1.5 1.5 0 0 0-.43-.176l-.032-.044s-.76-.286-1.562.363c-.176.11-.352.242-.517.385a9 9 0 0 0-.473.44c-.308.308-.594.638-.858.968-.275.33-.528.682-.77 1.034a21 21 0 0 0-1.309 2.21 18 18 0 0 0-1.011 2.365c-.066.198-.132.407-.187.616l-.044.154-.044.154c-.022.099-.055.198-.088.297-.121.407-.264.803-.407 1.199a29 29 0 0 1-.98 2.331c-.351.77-.736 1.518-1.154 2.255-.209.363-.418.737-.649 1.089-.23.352-.462.715-.726 1.045Zm0 0Z"/><path fill="#E8BA7D" d="M45.656 47.577c.11-.231.209-.473.319-.704l.319-.704.319-.704.165-.352.165-.352.165-.352c.055-.12.11-.23.176-.352l.363-.693c.132-.23.253-.45.385-.681l.198-.33.209-.33c.132-.22.286-.44.429-.65.077-.11.143-.22.22-.318l.23-.32.232-.318.242-.308c.154-.21.319-.418.483-.616.253-.308.495-.605.76-.902l.032-.033c.407-.473.814-.946 1.243-1.408.693-.77 1.386-1.529 2.079-2.288l.715-.77s1.507-1.748 1.958-2.133c.264-.33.495-.693.726-1.045s.44-.726.648-1.089c.418-.737.803-1.485 1.155-2.255.363-.759.682-1.54.98-2.331.142-.396.285-.792.406-1.2.033-.098.066-.197.088-.296l.044-.154.044-.154c.055-.209.121-.418.187-.616.275-.814.627-1.606 1.012-2.365.396-.759.825-1.506 1.309-2.21.242-.352.495-.704.77-1.034.264-.33.55-.66.858-.968.154-.154.308-.297.472-.44.166-.143.342-.275.517-.385.803-.649 1.562-.363 1.562-.363l.033.044c.154.033.297.099.43.176.252.143.274.429.461.638.374.429.66.902.902 1.408.473 1 1.254 4.432 2.1 5.213.155.22.43.495.606.693.363.396.825.649 1.265.968l.23.165c.507.319.935.55 1.155.66.616.319 2.827.935 2.827.935s.275.022.671.066c.33.022.66.044.99.055.55.022 1.1.01 1.65-.022.539-.044 1.078-.11 1.594-.264.253-.077.506-.154.748-.264l.176-.088.165-.1c.055-.032.11-.065.176-.11.055-.032.11-.076.176-.11.913-.604 1.804-1.275 2.728-1.913.462-.319.935-.616 1.44-.88a4 4 0 0 1 .793-.319c.033 0 .077-.022.11-.033.099-.022.209-.044.308-.044h.198a.6.6 0 0 1 .23.066c.044.011.078.033.122.055a.6.6 0 0 1 .12.121c.067.1.044.242.055.352.022.231-.055.385-.088.605-.076.44-.274.825-.417 1.243a39 39 0 0 1-.968 2.397c-.088.198-.352.32-.43.506-.076.198.067.715-.131.65-.21-.078-.32.22-.1.296l-.032.308-.132.638c-.253.792-.43 1.606-.715 2.398.044.077.12.165.165.242.308.517.583 1.045.836 1.595.22.45.407.924.605 1.386.066.175.143.352.209.517l.374.967.187.484.187.473.099.231.044.121s.032.088.054.121l.044.132s.034.088.044.132c.022.088.055.176.078.264.087.352.12.715.132 1.067 0 .363-.011.715-.055 1.067-.034.352-.088.693-.154 1.045a32 32 0 0 1-.44 2.035c-.154.67-.308 1.341-.407 2.012 0 .066-.022.121-.022.187.01-1.496-.121-4.586-1.441-4.707-1.749-.154-2.728 6.071-3.696 3.673s.374-4.531.374-4.531l2.079-.451s-.132-4.4-2.013-4.95c-1.88-.56-3.178 1.53-2.596 4.466.584 2.937 2.827 6.082 1.265 7.204-1.561 1.122-2.958-.957-2.958-.957S78.64 44.3 76.2 44.101c-2.453-.198-3.344-1.957-2.541-2.683s-4.378-.814-5.61-4.719c-1.232-3.904-7.479-3.266-8.304-.693-.814 2.574 3.52 13.452.022 13.045l-.253-.55c-.044-.088-.077-.187-.12-.286l-.11-.286-.11-.286c-.034-.099-.078-.187-.11-.286l-.199-.572-.099-.286-.088-.297c-.066-.198-.12-.396-.187-.594-.055-.198-.12-.396-.175-.594l-.166-.594c-.11-.396-.209-.791-.307-1.187a23 23 0 0 1-.265-1.2 23 23 0 0 1-.362-2.43 14 14 0 0 1-.033-2.442c0-.209.044-.407.066-.605.033-.198.055-.407.11-.605.033-.198.088-.396.143-.593l.087-.286.023-.078.021-.066.055-.142a5.8 5.8 0 0 1 1.331-2.057c-.319.264-.605.56-.868.89l-.187.254-.166.264-.044.066-.032.066-.078.143-.076.143-.066.143-.066.142-.033.077-.033.078-.11.297c-.066.197-.132.395-.187.604-.055.198-.1.407-.143.616-.033.21-.077.418-.1.627-.11.836-.12 1.672-.087 2.519.022.418.055.836.11 1.254.044.418.11.825.176 1.243.066.407.143.825.23 1.231.045.21.089.407.133.616s.099.407.142.605c.056.198.1.407.154.605l.165.605c.055.198.11.396.176.605l.088.297.1.297c.22.693.483 1.375.78 2.046-2.936.319-4.344 4.234-7.589 1.089-3.52-3.41-5.356-1.76-5.554 1.188-.088 1.297 1.848 2.628 1.287 3.585-.572.957-2.915-1.254-4.323-1.925.033-.033 2.024-3.574 2.882-5.444z"/><path fill="#212120" d="M83.13 53.23c-.32.254-.913.66-1.595.848-1.034.275-2.629-.44-3.97-1.078-1.343-.638-2.123-.43-3.696-1.595s-3.377-3.322-2.662-2.915c0 0 1.98 1.067 3.564 2.266 1.594 1.199 2.331.055 3.915.418s3.762.649 4.488 1.298c.428.429.12.627-.044.759"/><path fill="#474646" stroke="#121112" stroke-miterlimit="10" stroke-width=".271" d="M75.948 39.109q-.462.165-.924.198a3.6 3.6 0 0 1-.913-.055 6 6 0 0 1-.88-.242c-.066-.033-.143-.055-.22-.077l-.209-.088a4 4 0 0 1-.209-.099c-.033-.022-.066-.033-.099-.055l-.099-.055-.099-.055-.099-.055s-.066-.033-.099-.055L72 38.405a3 3 0 0 1-.363-.264 3.8 3.8 0 0 1-.616-.638 3.3 3.3 0 0 1-.616-1.727 1.8 1.8 0 0 0-.099.484 4 4 0 0 0 0 .506c.044.341.143.682.308.99.088.154.176.297.286.44s.231.264.352.385c.132.121.264.231.407.33l.11.077s.077.044.11.066l.11.066s.077.044.11.066l.11.055s.077.033.121.055c.077.033.154.077.231.099l.242.088c.077.022.165.055.242.077.33.099.67.154 1.012.176a3.2 3.2 0 0 0 1.023-.121.5.5 0 0 0 .12-.044c.045-.011.078-.033.122-.044.077-.033.154-.066.23-.11.144-.077.287-.176.408-.297z"/><path fill="#DA964F" d="M67.502 16.363c-1.474 0-3.927 3.816-4.972 8.26-1.044 4.432-3.871 7.358-3.871 7.358s-2.65 1.496-1.628-.022c.264-.33.495-.693.726-1.045s.44-.726.649-1.089c.418-.737.803-1.485 1.155-2.255.363-.759.682-1.54.979-2.331.143-.396.286-.792.407-1.2.033-.098.066-.197.087-.296l.044-.154.044-.154c.056-.209.121-.418.188-.616.274-.814.626-1.606 1.011-2.365.396-.759.825-1.506 1.31-2.21.241-.352.494-.704.77-1.034.263-.33.55-.66.857-.968a9 9 0 0 1 .473-.44c.165-.143.34-.275.517-.385.803-.649 1.562-.363 1.562-.363l.033.044c.154.033.297.099.429.176.253.143.275.429.462.638.374.429.66.902.901 1.408.473 1 1.254 4.432 2.101 5.213.154.22.43.495.605.693.363.396.825.649 1.265.968l.231.165c.506.319.935.55 1.155.66.616.319 2.826.935 2.826.935s.276.022.671.066c.33.022.66.044.99.055.55.022 1.1.01 1.65-.022.539-.044 1.078-.11 1.595-.264.253-.077.506-.154.748-.264l.176-.088.165-.1c.055-.032.11-.065.176-.11.055-.032.11-.076.176-.11.913-.604 1.803-1.275 2.727-1.913.462-.319.935-.616 1.441-.88.253-.132.517-.242.792-.319.033 0 .077-.022.11-.033.1-.022.209-.044.308-.044h.198s-4.63 5.642-5.103 6.951c0 0-3.047-1.803-4.774 5.742 0 0-1.056-6.325-4.465-7.348-3.41-1.022-4.675-.506-4.675-.506l-.924-3.772s-.824-6.632-2.298-6.632"/><path stroke="#121112" stroke-miterlimit="10" stroke-width=".271" d="M57.031 31.959c-1.023 1.518 1.628.022 1.628.022s2.827-2.926 3.871-7.358c1.045-4.444 3.498-8.26 4.972-8.26s2.299 6.632 2.299 6.632l.923 3.772s1.265-.516 4.675.506 4.465 7.348 4.465 7.348c1.727-7.546 4.774-5.742 4.774-5.742.473-1.309 5.103-6.95 5.103-6.95h-.198c-.099 0-.209.021-.308.043-.033.011-.077.033-.11.033a4 4 0 0 0-.792.32c-.506.263-.979.56-1.44.879-.924.638-1.815 1.309-2.728 1.914-.066.033-.121.077-.176.11-.066.044-.121.077-.176.11l-.165.099-.176.088c-.242.11-.495.187-.748.264-.517.154-1.056.22-1.595.264-.55.033-1.1.044-1.65.022-.33-.011-.66-.033-.99-.055-.395-.044-.67-.066-.67-.066s-2.211-.616-2.827-.935c-.22-.11-.65-.341-1.155-.66l-.231-.165c-.44-.32-.902-.572-1.265-.968-.176-.198-.45-.473-.605-.693-.847-.78-1.628-4.212-2.1-5.213a6.1 6.1 0 0 0-.902-1.408c-.187-.21-.21-.495-.462-.638a1.5 1.5 0 0 0-.43-.176l-.032-.044s-.76-.286-1.562.363c-.176.11-.352.242-.517.385a9 9 0 0 0-.473.44 12 12 0 0 0-.858.968c-.275.33-.528.682-.77 1.034a21 21 0 0 0-1.309 2.21c-.385.76-.736 1.551-1.011 2.365-.067.198-.133.407-.187.616l-.044.154-.044.154a3 3 0 0 1-.088.297c-.121.407-.264.803-.407 1.199a29 29 0 0 1-.98 2.331c-.351.77-.736 1.518-1.154 2.255-.21.363-.418.737-.649 1.089s-.462.715-.726 1.045Zm0 0Z"/><path fill="#A6A8AB" d="M77.307 48.623c-.055.11-.011.242.087.286.1.044.22-.01.264-.132.044-.12.011-.242-.088-.286s-.22.011-.263.132M76.753 50.536c-.044.1 0 .21.077.242.077.033.187-.01.231-.11.044-.099 0-.209-.077-.242s-.187.011-.23.11M76.579 49.591c-.055.11-.011.242.088.286s.22-.01.264-.132c.044-.12.01-.242-.088-.286-.1-.044-.22.011-.264.132M77.293 50.097c-.055.11-.011.242.088.286s.22-.011.264-.132.01-.242-.088-.286c-.1-.044-.22.01-.264.132M76.93 48.271c.052-.117.017-.245-.078-.286-.095-.042-.213.02-.264.136-.051.117-.016.245.079.287.094.041.213-.02.264-.137M76.318 49.23c.05-.118.016-.246-.079-.287-.095-.042-.213.02-.264.136-.05.117-.016.245.079.287s.213-.02.264-.137M76.2 47.746c.05-.117.015-.245-.08-.287-.094-.041-.212.02-.263.137s-.016.245.079.287c.094.04.212-.02.263-.137M75.304 48.645c-.055.11-.01.242.088.286.1.044.22-.011.264-.132s.011-.242-.088-.286-.22.01-.264.132M78.254 48.122c.051-.117.016-.245-.079-.287-.094-.041-.213.02-.264.137-.05.117-.015.245.08.286.094.042.212-.02.263-.136"/><path fill="#A6A8AB" stroke="#121112" stroke-miterlimit="10" stroke-width=".271" d="M83.488 50.834c-.055.11-.011.241.088.285s.22-.01.264-.132c.043-.12.01-.241-.089-.285s-.22.01-.263.132Z"/><path fill="#A6A8AB" d="M77.484 47.237c-.055.11-.01.242.088.286.1.044.22-.011.264-.132s.011-.242-.088-.286-.22.01-.264.132M76.868 46.577c-.055.11-.011.242.088.286s.22-.01.264-.132c.044-.12.01-.242-.088-.286-.1-.044-.22.011-.264.132M75.448 45.785c-.044.099 0 .198.066.23.066.034.176-.01.22-.11.044-.098 0-.197-.066-.23s-.176.01-.22.11M76.227 46.048c-.055.11-.01.242.088.286.1.044.22-.011.264-.132s.011-.242-.088-.286-.22.01-.264.132"/><path fill="#A6A8AB" stroke="#121112" stroke-miterlimit="10" stroke-width=".271" d="M84.582 50.7c.04-.09.008-.189-.07-.223s-.173.01-.212.1c-.039.089-.007.188.07.223.079.034.173-.011.212-.1ZM83.655 51.648c-.044.099 0 .22.077.253s.198-.011.242-.121 0-.22-.077-.253-.198.01-.242.12Z"/><path fill="#A6A8AB" d="M84.529 51.426c-.033.077 0 .176.055.198.054.022.153-.01.186-.088.034-.077 0-.176-.054-.198-.055-.022-.154.011-.187.088M85.029 50.438c-.022.066 0 .131.044.154s.12 0 .143-.066c.022-.067 0-.133-.044-.155s-.121 0-.143.066M78.362 49.346c.051-.117.016-.245-.079-.287-.094-.041-.213.02-.264.137-.05.117-.015.245.08.287.094.041.212-.02.263-.137"/><path fill="#474646" d="M83.482 40.802c.055.23.187.45.352.638.165.187.374.34.594.462.23.132.528.198.825.154s.55-.176.758-.352a2.3 2.3 0 0 0 .286-.286c.088-.1.154-.21.22-.32.132-.22.231-.45.297-.703.033-.121.055-.253.055-.396 0-.121 0-.253-.033-.374a2.1 2.1 0 0 0-.22-.693 4.6 4.6 0 0 1-.077.693l-.066.33a1.4 1.4 0 0 1-.11.275 4.4 4.4 0 0 1-.33.539c-.066.088-.132.165-.198.242a2 2 0 0 1-.22.209c-.153.12-.307.22-.472.253a1 1 0 0 1-.54-.022 2.5 2.5 0 0 1-1.132-.682z"/><path fill="#BB8652" stroke="#121112" stroke-miterlimit="10" stroke-width=".271" d="M42.788 53.022c1.188-1.683 2.21-3.497 3.145-5.334.231-.462.462-.924.682-1.397l.341-.693.165-.34.176-.342.176-.34c.055-.11.11-.232.176-.342l.363-.67.385-.66.198-.33.198-.32c1.089-1.726 2.398-3.3 3.706-4.894 1.32-1.584 2.63-3.178 3.872-4.828-.176.187-.363.374-.539.56l-.528.562-1.056 1.132-1.056 1.133c-.352.374-.693.76-1.044 1.144a60 60 0 0 0-2.035 2.343c-.165.198-.32.407-.484.616l-.242.308-.231.319-.231.319c-.077.11-.143.22-.22.319-.143.22-.297.429-.43.649l-.208.33c-.066.11-.143.22-.198.33-.132.23-.264.45-.385.681l-.363.693c-.066.11-.12.231-.176.352l-.165.352-.165.352-.165.352-.319.704c-.209.473-.418.946-.627 1.408a89 89 0 0 1-2.727 5.543z"/><path fill="#F4DDAB" stroke="#121112" stroke-miterlimit="10" stroke-width=".271" d="M82.306 59.632a42 42 0 0 1-.583 2.398c-.22.78-.484 1.55-.781 2.31a45 45 0 0 1-.946 2.254c-.34.748-.693 1.485-1.056 2.233a12.6 12.6 0 0 0 1.474-2.013c.429-.715.792-1.474 1.089-2.255s.539-1.595.682-2.42a9.5 9.5 0 0 0 .12-2.496z"/><path fill="url(#l)" d="M85.99 29.903c.44.539.815 1.11 1.145 1.716s.615 1.231.88 1.858c.065.165.131.32.186.484l.187.484.176.484.176.484.341.98c.11.329.231.648.352.978l.1.242.043.12s.022.078.044.11l.044.11.033.122a4.845 4.845 0 0 1 .154 1.21c0 .66-.099 1.33-.23 2.002-.265 1.341-.66 2.661-.892 4.058a9 9 0 0 0-.11 1.056v.55c0 .187.022.352.022.517.033.682.033 1.352-.022 2.034a14 14 0 0 1-.308 2.002 8.2 8.2 0 0 1-.682 1.881 5.5 5.5 0 0 1-1.198 1.562 24 24 0 0 0-1.518 1.44 36.532 36.532 0 0 0-2.706 3.157c-.088.077-.198.165-.297.253-.055.044-.11.077-.165.121l-.165.121c-.22.154-.462.286-.715.396a5 5 0 0 1-.374.154l-.198.066-.099.033-.099.022c-.264.077-.538.11-.814.132.275 0 .55 0 .825-.066l.1-.022.098-.022c.066-.022.132-.033.198-.055.132-.044.264-.077.396-.132q.396-.148.76-.363l.175-.11c.055-.044.121-.077.176-.12.121-.078.231-.166.341-.265.902-1.034 1.837-2.057 2.827-3.002.495-.484 1-.935 1.529-1.375.275-.231.538-.495.758-.77.22-.286.418-.583.594-.902a8.7 8.7 0 0 0 .76-1.99c.175-.694.274-1.387.34-2.09q.083-1.057.033-2.112l-.022-.517v-.495c.011-.33.055-.66.1-1.001.098-.671.252-1.342.406-2.013s.308-1.353.43-2.035c.065-.34.11-.692.153-1.044.033-.352.055-.704.044-1.067a5 5 0 0 0-.143-1.078 2 2 0 0 0-.077-.264.6.6 0 0 0-.044-.132l-.055-.132-.055-.132-.055-.121-.099-.231-.187-.473-.187-.484-.385-.968a26 26 0 0 0-.825-1.914 18 18 0 0 0-.99-1.825 10.2 10.2 0 0 0-1.275-1.64z"/><path fill="#BB8652" stroke="#121112" stroke-miterlimit="10" stroke-width=".271" d="M89.93 21.951s.088.055.121.1a.4.4 0 0 1 .066.131.7.7 0 0 1 .022.297 2.3 2.3 0 0 1-.154.594c-.143.396-.319.781-.495 1.166-.363.77-.748 1.54-1.1 2.332-.088.198-.165.396-.252.605-.078.209-.154.407-.22.627-.034.11-.067.22-.089.319-.021.11-.054.209-.076.319-.055.209-.1.418-.143.638a23 23 0 0 0-.385 2.562c.319-.814.583-1.628.847-2.452l.197-.616.1-.308q.049-.15.099-.297c.076-.198.153-.385.23-.583s.165-.396.253-.583c.341-.781.693-1.573.98-2.398.142-.407.274-.836.351-1.276.033-.22.055-.45.033-.67a.74.74 0 0 0-.11-.33.6.6 0 0 0-.12-.122.4.4 0 0 0-.155-.066zM77.764 25.877c.132.044.264.088.407.132.132.033.275.077.407.11q.413.099.825.165c.561.088 1.122.143 1.694.154.286 0 .572-.01.858-.044.286-.022.572-.077.858-.143s.572-.154.847-.275l.198-.099c.066-.033.132-.077.197-.11.066-.033.121-.077.188-.11.066-.033.12-.077.175-.11.957-.616 1.815-1.33 2.684-2.023.44-.341.869-.693 1.32-1.001a7 7 0 0 1 .704-.418c.12-.055.253-.11.385-.143s.264-.044.407-.022a.9.9 0 0 0-.418-.077c-.143 0-.286.033-.43.066a4 4 0 0 0-.791.319c-.506.253-.99.56-1.452.869-.935.627-1.815 1.297-2.739 1.902-.054.033-.11.077-.175.11-.055.033-.121.077-.176.11l-.165.1-.176.087c-.231.11-.484.198-.737.264a8.3 8.3 0 0 1-1.595.264c-.539.044-1.1.044-1.65.033-.55-.022-1.11-.055-1.672-.11zM67.351 14.966a1 1 0 0 0-.319-.01c-.11.01-.22.043-.319.076a2.7 2.7 0 0 0-.583.297 6.5 6.5 0 0 0-1 .825c-.616.605-1.144 1.287-1.628 2.002a19.5 19.5 0 0 0-1.31 2.21 18 18 0 0 0-1.011 2.376c-.066.21-.132.407-.187.616l-.044.154-.044.154c-.033.1-.055.198-.088.297-.12.396-.253.803-.396 1.188a31 31 0 0 1-.968 2.332 31 31 0 0 1-1.155 2.255c-.209.373-.418.736-.648 1.088-.22.363-.463.715-.716 1.045.143-.154.286-.319.418-.484.133-.165.264-.33.385-.506q.38-.51.726-1.055.693-1.073 1.287-2.211c.396-.76.76-1.529 1.09-2.32.164-.397.307-.804.45-1.21.033-.1.066-.21.099-.309l.044-.154.044-.143c.066-.198.132-.396.209-.583.297-.78.649-1.54 1.034-2.287.385-.748.792-1.474 1.232-2.189s.913-1.408 1.44-2.046c.132-.165.264-.319.407-.473s.286-.297.451-.429c.154-.132.32-.264.506-.363.176-.099.385-.176.594-.165zM74.918 24.942a5.6 5.6 0 0 1-.715-.385c-.231-.143-.451-.297-.671-.451a8.6 8.6 0 0 1-1.199-1.078 9 9 0 0 1-.506-.616 6 6 0 0 1-.418-.67 4.6 4.6 0 0 1-.319-.716c-.055-.12-.077-.253-.12-.385a5 5 0 0 0-.11-.396c-.298-1.044-.628-2.09-1.1-3.09-.243-.495-.529-.99-.913-1.419a2.7 2.7 0 0 0-.671-.55 1.44 1.44 0 0 0-.814-.198c.132.044.253.1.374.165.11.066.22.143.308.231q.28.264.495.594c.285.44.495.924.704 1.408.208.495.395.99.582 1.496q.28.758.594 1.517c.055.121.11.253.165.374s.121.242.165.374c.11.264.231.506.385.748.143.242.308.473.484.682.176.22.363.418.561.616a8.3 8.3 0 0 0 2.013 1.43c.242.12.495.242.748.319z"/><path fill="#C38340" d="M66.439 17.595c.308.792.56 1.584.77 2.364q.314 1.188.462 2.376c.01.1.033.198.044.297l.022.297.066.627c.044.429.132.858.242 1.276.12.418.275.836.506 1.22.033.045.055.1.088.144l.099.132.055.066.054.066s.067.088.11.12c.044.045.078.078.122.11l.132.1c.043.033.099.055.142.077a.6.6 0 0 0 .154.055c-.088-.066-.142-.143-.209-.231a1 1 0 0 1-.076-.132l-.066-.132s-.044-.1-.056-.143l-.032-.066-.022-.077s-.034-.1-.045-.143c-.01-.044-.022-.1-.044-.143a8.5 8.5 0 0 1-.208-1.177c-.033-.407-.077-.803-.088-1.21 0-.099 0-.198-.011-.308l-.022-.319-.022-.33c0-.11-.022-.22-.033-.319a9 9 0 0 0-.693-2.497 9 9 0 0 0-.616-1.143 8 8 0 0 0-.385-.528 4.5 4.5 0 0 0-.44-.473zM88.762 24.602a.66.66 0 0 0-.275.142 1.4 1.4 0 0 0-.23.21c-.144.154-.265.319-.386.483-.23.33-.418.671-.616 1.012-.187.33-.374.66-.582.957-.11.143-.22.286-.364.407a1.06 1.06 0 0 1-.494.253.9.9 0 0 0 .638-.01c.099-.034.197-.089.296-.144.088-.055.176-.12.253-.198.165-.143.297-.308.418-.473a5 5 0 0 0 .33-.517c.198-.352.363-.715.506-1.078.077-.175.143-.363.22-.538.033-.088.077-.177.121-.265.044-.087.1-.164.165-.241"/><path fill="#B07B48" d="M65.504 24.6c0-.088-.022-.165-.044-.253a2 2 0 0 0-.043-.253 2 2 0 0 0-.044-.263.6.6 0 0 0-.023-.132c0-.044-.021-.088-.021-.132l-.022-.143s0-.1-.023-.143c0-.1-.022-.198-.022-.308a2 2 0 0 0-.351.319 1 1 0 0 0-.143.176c-.044.055-.088.12-.132.176a6 6 0 0 0-.21.363c-.054.12-.11.241-.153.351a2 2 0 0 0-.1.352 3.089 3.089 0 0 0-.055.979c.045.407.199.77.419 1.078.12.154.264.286.418.418.088.055.175.11.275.165.099.055.197.1.307.132.033-.12.055-.242.078-.352.022-.11.022-.22.032-.319.022-.209.022-.407.022-.594v-.286c0-.088-.022-.176-.022-.275 0-.088-.01-.176-.022-.264v-.066l-.01-.066"/><path fill="#C38340" d="M71.092 27.086c.297-.12.616-.22.924-.308a7.7 7.7 0 0 1 1.947-.264c.33 0 .66.033.99.088s.66.143.968.264c.154.066.308.132.462.21l.11.054.11.066c.077.044.154.088.22.143.297.198.539.44.758.704.11.132.21.264.308.396.1.143.187.275.275.418.176.286.32.583.462.88.275.605.495 1.22.671 1.848.176.627.32 1.264.43 1.902.032.21.076.286.131.286.143.066.165-.407.231-.78a9.2 9.2 0 0 1 .726-2.222 5.5 5.5 0 0 1 .616-1.034c.253-.32.55-.627.924-.836.363-.22.803-.32 1.199-.286.407.033.77.198 1.067.418-.374-.077-.737-.11-1.067-.044a1.9 1.9 0 0 0-.891.407c-.132.099-.242.22-.352.352-.055.066-.11.132-.154.198-.055.066-.1.143-.154.209a7.6 7.6 0 0 0-.506.935c-.297.648-.539 1.352-.77 2.056-.11.352-.55 3.399-.902 3.245-.132-.055-1.023-4.234-1.155-4.586a19 19 0 0 0-.737-1.727 9 9 0 0 0-.44-.803 9.777 9.777 0 0 0-.517-.726c-.099-.11-.186-.22-.296-.32a2.5 2.5 0 0 0-.32-.274c-.054-.044-.11-.077-.175-.121-.066-.033-.121-.077-.187-.11-.132-.066-.253-.132-.396-.198a5.7 5.7 0 0 0-1.727-.429 8.7 8.7 0 0 0-1.848.033c-.616.077-1.243.198-1.859.363.275-.165.572-.297.88-.418z"/><path fill="#474646" d="M75.948 39.109q-.462.165-.924.198a3.6 3.6 0 0 1-.913-.055 6 6 0 0 1-.88-.242c-.066-.033-.143-.055-.22-.077l-.209-.088a4 4 0 0 1-.209-.099c-.033-.022-.066-.033-.099-.055l-.099-.055-.099-.055-.099-.055s-.066-.033-.099-.055L72 38.405a3 3 0 0 1-.363-.264 3.8 3.8 0 0 1-.616-.638 3.3 3.3 0 0 1-.616-1.727 1.8 1.8 0 0 0-.099.484 4 4 0 0 0 0 .506c.044.341.143.682.308.99.088.154.176.297.286.44s.231.264.352.385c.132.121.264.231.407.33l.11.077s.077.044.11.066l.11.066s.077.044.11.066l.11.055s.077.033.121.055c.077.033.154.077.231.099l.242.088c.077.022.165.055.242.077.33.099.67.154 1.012.176a3.2 3.2 0 0 0 1.023-.121.5.5 0 0 0 .12-.044c.045-.011.078-.033.122-.044.077-.033.154-.066.23-.11.144-.077.287-.176.408-.297z"/><path fill="#212120" d="M82.997 39.119c.154 1.32.561 2.156 1.518 2.574 1.265.55 2.1-1.111 2.178-1.683.066-.572.055-2.2-1.496-2.629-1.55-.44-2.288.99-2.2 1.738"/><path fill="#fff" d="M83.935 38.745a.297.297 0 1 0 0-.594.297.297 0 0 0 0 .594M85.408 39.175a.297.297 0 1 0 0-.595.297.297 0 0 0 0 .595"/><path fill="#fff" d="M85.575 38.492a5 5 0 0 1 .055.67c0 .21-.022.408-.066.605-.044.198-.11.386-.198.583-.088.198-.187.396-.297.627.242-.077.44-.23.616-.418.165-.186.297-.428.352-.681a1.4 1.4 0 0 0-.198-1.111 1 1 0 0 0-.264-.275"/><path fill="#6D6E70" stroke="#121112" stroke-miterlimit="10" stroke-width=".086" d="M85.647 46.995c.396-.209.803-.396 1.22-.55a12 12 0 0 1 1.277-.407l.165-.044.165-.033c.11-.022.22-.044.33-.055.22-.022.44-.066.67-.066.452-.044.891-.01 1.343.022a7 7 0 0 0-1.342-.088c-.231 0-.451.033-.671.055a3 3 0 0 0-.33.055.4.4 0 0 0-.165.033l-.165.033c-.44.088-.88.21-1.298.385-.099.044-.209.088-.308.132-.099.055-.198.1-.297.154-.198.11-.396.22-.572.363zM86.497 47.809c.12-.033.23-.066.352-.088.12-.033.23-.055.352-.088l.352-.077.352-.066q.708-.132 1.418-.198c.121 0 .242-.022.363-.022h.363c.121-.011.242 0 .363 0h.176c.055 0 .121.01.176.022l.363.033.352.055.176.022.176.044.352.077-.352-.1-.176-.043-.176-.033-.352-.066-.363-.044a1 1 0 0 1-.176-.022h-.176a4 4 0 0 0-.363-.022h-.363c-.12 0-.242 0-.363.01a9 9 0 0 0-1.44.177c-.473.11-.935.23-1.386.429ZM86.772 48.898c.539-.077 1.089-.11 1.628-.11h.407c.132 0 .275 0 .407.01l.407.023.406.044c.54.077 1.078.176 1.595.33.264.066.517.165.781.253.132.044.253.099.385.143l.385.154-.374-.176c-.12-.055-.253-.11-.374-.165a11.36 11.36 0 0 0-2.387-.649l-.406-.055-.407-.044a7 7 0 0 0-.825-.022c-.55.022-1.1.066-1.628.22zM85.483 49.931c.495-.033.98-.044 1.474-.022.484.022.98.055 1.463.143a7.5 7.5 0 0 1 1.067.275c.11.044.23.077.34.132.452.176.892.418 1.288.704a5.5 5.5 0 0 0-1.276-.759c-.11-.055-.231-.088-.341-.132-.121-.044-.231-.077-.352-.12-.231-.078-.473-.133-.715-.188a7.4 7.4 0 0 0-1.474-.165c-.495 0-.99.022-1.474.132ZM86.284 50.811c.253.088.506.176.748.286.066.022.121.055.187.077s.121.044.187.077l.187.077.176.088c.231.121.462.253.682.407.11.066.22.154.33.231s.209.165.308.253c-.099-.099-.198-.198-.297-.275a4 4 0 0 0-.319-.253 5.4 5.4 0 0 0-.67-.44 4.4 4.4 0 0 0-.727-.352 3.2 3.2 0 0 0-.792-.187zM77.953 46.137a39 39 0 0 0-2.057-1.21c-.693-.385-1.408-.737-2.123-1.089a32 32 0 0 0-2.178-.979 17 17 0 0 0-1.121-.418l-.573-.187-.582-.143.572.176.56.198c.374.143.737.286 1.1.44.726.308 1.452.65 2.156 1.012.715.352 1.408.737 2.112 1.1l2.111 1.11zM73.537 45.148c-.45-.286-.935-.517-1.43-.737-.483-.22-.99-.396-1.506-.56a18 18 0 0 0-1.551-.43 13 13 0 0 0-1.584-.23c.528.065 1.056.164 1.573.285.517.132 1.023.275 1.529.462.506.176.99.385 1.484.583.495.198.98.418 1.463.638zM76.84 47.985c-.826-.528-1.717-.957-2.63-1.341a18 18 0 0 0-2.804-.913c-.484-.11-.968-.21-1.452-.275s-.979-.11-1.474-.132c-.495-.011-.99 0-1.474.055q-.743.082-1.452.264a13 13 0 0 1 1.452-.231c.484-.044.98-.055 1.474-.033.484.022.979.066 1.463.143s.968.176 1.44.297c.947.242 1.882.56 2.783.923.913.363 1.804.77 2.662 1.243zM74.023 47.974c-.54-.198-1.111-.308-1.683-.385a9 9 0 0 0-1.738-.033q-.429.033-.858.099c-.143.022-.286.055-.429.077a5 5 0 0 0-.418.11 7 7 0 0 0-1.595.67 7.6 7.6 0 0 1 1.595-.615c.143-.033.275-.066.418-.1.143-.021.286-.054.43-.065.285-.044.571-.066.857-.077.572-.033 1.144 0 1.716.066a13 13 0 0 1 1.694.275zM78.092 49.459a18 18 0 0 0-2.178-.352 16 16 0 0 0-2.2-.066c-.363.01-.737.033-1.1.077a9 9 0 0 0-1.089.187 6.5 6.5 0 0 0-1.045.34c-.34.144-.66.33-.946.573a4.2 4.2 0 0 1 .946-.54 6 6 0 0 1 1.045-.318 9 9 0 0 1 1.078-.165q.544-.05 1.089-.066c.726-.011 1.463.033 2.189.088s1.452.143 2.177.242z"/><path fill="#212221" stroke="#121112" stroke-miterlimit="10" stroke-width=".271" d="M83.553 45.774c1.1.275 3.101.418 2.364 1.98-.748 1.562-2.661 3.156-4.29 2.441-1.627-.715-2.969-3.365-2.54-4.333.43-.968 4.477-.088 4.477-.088z"/><path fill="#000" stroke="#121112" stroke-miterlimit="10" stroke-width=".271" d="M82.778 48.094c.132.033.187.198.154.352-.11.44-.352 1.342-.693 1.881 0 0-.01.022-.022.033a1.8 1.8 0 0 1-.418-.088c.352-.66.693-1.672.726-1.958.022-.209.121-.242.253-.209zM80.38 47.632a1.1 1.1 0 0 1 .077-.66c.198-.45.627-.704.957-.56.33.142.44.626.242 1.077s-.616.693-.946.56c-.198.067-.583.1-1.243-.142-.055-.11-.11-.22-.154-.33.297 0 .704.044 1.067.055ZM84.825 47.005c.308.132.407.583.22 1.001a1 1 0 0 1-.12.21c.186.065.395.131.593.197a4 4 0 0 1-.264.352c-.363-.055-.56-.154-.682-.253a.47.47 0 0 1-.418.011c-.308-.132-.407-.583-.22-1 .187-.419.583-.65.891-.518Z"/><path fill="url(#m)" d="M76.455 61.26a8 8 0 0 1-1.232.144c-.407.01-.825 0-1.232-.033a9 9 0 0 1-1.21-.176 11.8 11.8 0 0 1-2.331-.737 10 10 0 0 1-1.09-.55 8 8 0 0 1-.516-.32c-.088-.054-.165-.11-.253-.164a4 4 0 0 1-.253-.176l-.495-.363c-.077-.066-.165-.121-.253-.176l-.242-.187c-1.287-1.012-2.497-2.123-3.564-3.355-.264-.308-.538-.616-.791-.934l-.385-.473-.363-.495c-.253-.32-.473-.66-.704-1.001-.055-.088-.121-.165-.176-.253l-.165-.264-.32-.517c-.11-.176-.197-.352-.307-.528l-.154-.264-.077-.132-.066-.132-.275-.539-.143-.275-.132-.275-.253-.55c-.044-.088-.077-.187-.121-.286l-.11-.286-.11-.286c-.033-.099-.077-.187-.11-.286l-.198-.572-.099-.286-.088-.297c-.066-.197-.12-.395-.187-.593-.055-.198-.12-.396-.176-.594l-.165-.594c-.11-.396-.209-.792-.308-1.188a23 23 0 0 1-.264-1.199 23 23 0 0 1-.363-2.43 14 14 0 0 1-.033-2.442c0-.21.044-.407.066-.605.033-.198.055-.407.11-.605.033-.198.088-.396.143-.594l.088-.286.022-.077.022-.066.055-.143a5.8 5.8 0 0 1 1.331-2.057c-.319.264-.605.561-.869.891l-.187.253-.165.264-.044.066-.033.066-.077.143-.077.143-.066.143-.066.143-.033.077-.033.077-.11.297a10 10 0 0 0-.187.605c-.055.198-.099.407-.143.616-.033.209-.077.418-.099.627-.11.836-.12 1.671-.088 2.518.022.418.055.836.11 1.254.044.418.11.825.176 1.243.066.407.143.825.231 1.232l.132.616c.044.209.1.407.143.605.055.198.1.407.154.605l.165.605c.055.198.11.396.176.605l.088.297.1.296a22.4 22.4 0 0 0 2.089 4.576 25.3 25.3 0 0 0 6.753 7.369l.253.187c.088.066.176.12.264.176l.517.352.264.165c.088.055.176.11.275.165.187.099.363.209.56.297.375.198.76.363 1.156.517s.791.286 1.198.385c.814.209 1.65.33 2.486.34.836 0 1.672-.065 2.464-.307z"/><path fill="#474646" d="M83.397 52.813c.033.21-.143.33-.253.418-.32.253-.913.66-1.595.847-1.034.275-2.629-.44-3.97-1.078s-2.123-.429-3.696-1.595c-.66-.484-1.353-1.144-1.88-1.715-.672-.715.813.066 1.616.725.902.76 2.244 1.562 5.675 2.497 1.98.726 4.114-.11 4.114-.11z"/><path fill="#BC8651" d="M69.9 27.109a10 10 0 0 1-1.287.627c-.44.176-.891.33-1.353.44-.11.022-.231.055-.341.077l-.352.076c-.23.044-.473.1-.704.154-.23.055-.473.11-.704.165s-.473.122-.704.198l-.176.055-.176.055c-.12.033-.23.077-.352.121-.11.044-.23.088-.34.132s-.232.1-.342.143c-.11.055-.22.1-.33.154l-.164.088-.165.088c-.11.055-.21.121-.32.176l-.307.176c-.418.242-.836.484-1.243.76-.198.142-.396.285-.583.44l-.275.241c-.088.088-.176.165-.253.253.055-.033.099-.066.143-.099l.154-.099.297-.198c.198-.12.407-.242.627-.352.429-.22.858-.418 1.287-.638l.319-.154c.11-.055.22-.11.319-.154l.164-.077.166-.077c.11-.055.22-.099.33-.143l.33-.132c.11-.044.22-.088.33-.12.11-.034.22-.078.34-.11l.165-.056.165-.055c.231-.066.451-.132.682-.198s.462-.12.693-.187l.693-.187.352-.099c.121-.032.231-.066.352-.099a8 8 0 0 0 1.353-.571 6 6 0 0 0 1.199-.825z"/><path fill="#303030" stroke="#121112" stroke-miterlimit="10" stroke-width=".271" d="M83.548 45.774s-4.047-.88-4.476.087a.6.6 0 0 0-.044.144c-.21-1.925 2.683-1.815 4.509-1.397 1.848.45 2.365 1.803 2.486 2.265-.253-.758-1.64-.89-2.475-1.1Z"/><path fill="#4D4D4F" d="M86.057 46.873a.7.7 0 0 0-.154-.407 1.4 1.4 0 0 0-.319-.308 2.7 2.7 0 0 0-.77-.363 4 4 0 0 0-.792-.176c-.132-.022-.264-.032-.385-.054-.033 0-.077-.011-.099-.011h-.099l-.198-.044-.792-.1a20 20 0 0 0-.802-.054c-.54-.023-1.078-.023-1.606.066v.055c.539 0 1.056.066 1.573.153.263.044.516.088.78.143l.77.165.187.044s.066.022.1.022c.032 0 .054.011.087.022.132.044.264.077.385.11.253.077.506.121.76.176.252.055.494.1.725.176.231.077.44.187.605.396l.055-.022z"/><path fill="#CA9962" d="M83.098 37.954c.077-.165.187-.32.319-.451a1.7 1.7 0 0 1 1.023-.506c.198-.022.385-.022.572 0 .187.033.363.077.539.143s.34.165.495.275.297.253.407.407c.23.308.363.66.429 1.012.055.33.055.66 0 .979 0-.055-.011-.11-.022-.165a2.1 2.1 0 0 0-.22-.693c-.143-.627-.517-1.32-1.441-1.584-1.551-.44-2.288.99-2.2 1.738.011.12.033.23.044.34v.012c-.033-.077-.055-.154-.077-.231l-.033-.121s-.022-.088-.022-.132a1.7 1.7 0 0 1 .022-.528c.033-.176.1-.341.176-.506zM74.607 35.193c-1.265-.55-2.453-.649-4.212.583.473-.495 1.067-.913 1.76-1.133.351-.11.725-.154 1.1-.143.186 0 .373.033.55.077l.263.066c.088.022.176.055.264.088s.165.066.253.1l.121.054h.033l.033.033.077.033a2.22 2.22 0 0 1 .803.847c.088.154.165.319.242.484.132.33.23.67.308 1.012.066.34.11.682.12 1.034-.197-.836-.736-2.706-1.704-3.124z"/><path fill="#212120" d="M75.952 39.109q-.462.164-.924.197a3.6 3.6 0 0 1-.913-.054 6 6 0 0 1-.88-.242c-.066-.033-.143-.055-.22-.077l-.209-.088c-.077-.033-.143-.066-.209-.1-.033-.021-.066-.032-.099-.054l-.099-.055-.099-.055-.099-.055s-.066-.033-.099-.055l-.099-.066a3 3 0 0 1-.363-.264 3.8 3.8 0 0 1-.615-.638 3.3 3.3 0 0 1-.616-1.727c1.76-1.232 2.947-1.133 4.212-.583.968.429 1.507 2.288 1.705 3.124a.77.77 0 0 1-.363.791z"/><path fill="#fff" d="M74.444 35.952c.483.33.736 1.386.352 2.266-.385.88-1.584.726-1.584.726s-.341-.055-.594-.198c-.132-.077-.033-.22.055-.198.55.11.858-.143 1.177-.89.407-.947-.87-1.53-.638-1.992.132-.308.737-.044 1.22.286z"/><path fill="#fff" d="M73.07 36.392a.297.297 0 1 0 0-.594.297.297 0 0 0 0 .594"/><path fill="#524C3F" stroke="#121112" stroke-miterlimit="10" stroke-width=".271" d="M83.186 52.471c-.726-.638-2.904-.924-4.488-1.298l-.176-.033c.132-.363.33-.759.65-1.056.703-.66-.87-.825.021-2.782.407 1.11 1.342 2.42 2.42 2.892 1.078.473 2.21-.033 3.102-.858.275.847-1.111 3.564-1.54 3.135z"/><path fill="#524C3F" stroke="#121112" stroke-miterlimit="10" stroke-width=".271" d="M81.186 51.713c.176-.154.43-.528.66-1.43l.264.066c-.088.385-.286 1.067-.627 1.43a3 3 0 0 1-.297-.078z" opacity=".7"/><path fill="#E8BA7D" d="M71.99 49.69a1 1 0 0 1 .088.099l.099.099.01.011.1.099.022.022.099.099.099.099.022.022.099.099.022.022a1 1 0 0 0 .11.099c.033.033.066.066.11.099l.022.022a1 1 0 0 0 .11.099l.022.022c.033.033.077.066.11.099a1 1 0 0 0 .11.088l.022.022c.033.033.066.066.11.088l.022.022a1 1 0 0 0 .11.088c.033.033.077.055.11.088l.022.022c.033.033.066.055.11.088 0 0 .01 0 .022.01.033.034.077.056.11.089.693.506 1.22.759 1.727.924q.046.016.11.033l.33.099c.054.022.12.033.175.055.418.12.847.242 1.353.484.297.143.594.286.913.418a.7.7 0 0 0 .132.055c.088.033.176.077.264.11.913.373 1.826.637 2.519.516.055 0 .099-.022.143-.032a.6.6 0 0 0 .132-.044h.022l.11-.034h.01c.045-.01.078-.032.122-.044.044-.021.088-.032.12-.054 0 0-1.44 1.11-4.289-.155-2.848-1.275-3.354-1.253-4.168-1.858-.803-.605-1.683-1.331-1.903-2.486.088.1.187.209.286.308z"/><path stroke="#B9AC94" stroke-miterlimit="10" stroke-width="1.073" d="M70.493 70.334c16.188 0 29.311-13.123 29.311-29.312 0-16.188-13.123-29.311-29.311-29.311S41.182 24.834 41.182 41.022s13.123 29.312 29.311 29.312Z"/><path fill="#fff" d="M84.986 19.531c9.843 5.62 14.44 18.709 10.25 29.234.308-1.352.561-2.705.682-4.08 1.078-9.59-3.278-19.336-10.933-25.165zM44.57 41.023c-.792-8.832 4.345-18.049 12.264-22.042-7.128 5.225-11.604 13.22-12.264 22.042"/><path fill="url(#n)" d="M70.493 70.334c16.188 0 29.311-13.123 29.311-29.312 0-16.188-13.123-29.311-29.311-29.311S41.182 24.834 41.182 41.022s13.123 29.312 29.311 29.312"/></g><defs><linearGradient id="b" x1="138.884" x2="385.533" y1="80.391" y2="185.799" gradientUnits="userSpaceOnUse"><stop stop-color="#E4735D"/><stop offset="1" stop-color="#7E4033" stop-opacity="0"/></linearGradient><linearGradient id="c" x1="124.808" x2="371.458" y1="123.366" y2="228.774" gradientUnits="userSpaceOnUse"><stop stop-color="#E4735D"/><stop offset="1" stop-color="#7E4033" stop-opacity="0"/></linearGradient><linearGradient id="d" x1="129.234" x2="375.883" y1="100.646" y2="206.054" gradientUnits="userSpaceOnUse"><stop stop-color="#E4735D"/><stop offset="1" stop-color="#7E4033" stop-opacity="0"/></linearGradient><linearGradient id="e" x1="95.554" x2="119.883" y1="78.011" y2="78.011" gradientUnits="userSpaceOnUse"><stop offset=".04" stop-color="#BEF5EB"/><stop offset=".12" stop-color="#8FE6EF"/><stop offset=".22" stop-color="#5CD7F4"/><stop offset=".31" stop-color="#34CBF8"/><stop offset=".4" stop-color="#17C3FB"/><stop offset=".47" stop-color="#06BDFD"/><stop offset=".52" stop-color="#00BCFE"/><stop offset=".72" stop-color="#0F85D4"/><stop offset="1" stop-color="#263495"/></linearGradient><linearGradient id="f" x1="95.808" x2="139.572" y1="71.598" y2="71.598" gradientUnits="userSpaceOnUse"><stop offset=".04" stop-color="#BEF5EB"/><stop offset=".12" stop-color="#8FE6EF"/><stop offset=".22" stop-color="#5CD7F4"/><stop offset=".31" stop-color="#34CBF8"/><stop offset=".4" stop-color="#17C3FB"/><stop offset=".47" stop-color="#06BDFD"/><stop offset=".52" stop-color="#00BCFE"/><stop offset=".72" stop-color="#0F85D4"/><stop offset="1" stop-color="#263495"/></linearGradient><linearGradient id="g" x1="95.916" x2="139.57" y1="70.685" y2="70.685" gradientUnits="userSpaceOnUse"><stop offset=".04" stop-color="#BEF5EB"/><stop offset=".12" stop-color="#8FE6EF"/><stop offset=".22" stop-color="#5CD7F4"/><stop offset=".31" stop-color="#34CBF8"/><stop offset=".4" stop-color="#17C3FB"/><stop offset=".47" stop-color="#06BDFD"/><stop offset=".52" stop-color="#00BCFE"/><stop offset=".72" stop-color="#0F85D4"/><stop offset="1" stop-color="#263495"/></linearGradient><linearGradient id="h" x1=".205" x2="133.839" y1="72.721" y2="72.721" gradientUnits="userSpaceOnUse"><stop offset=".04" stop-color="#BEF5EB"/><stop offset=".08" stop-color="#C7D3E1"/><stop offset=".47" stop-color="#ED4F35"/><stop offset="1" stop-color="#BEF5EB"/></linearGradient><linearGradient id="i" x1="86.821" x2="111.238" y1="100.108" y2="100.108" gradientUnits="userSpaceOnUse"><stop offset=".04" stop-color="#BEF5EB"/><stop offset=".12" stop-color="#8FE6EF"/><stop offset=".22" stop-color="#5CD7F4"/><stop offset=".31" stop-color="#34CBF8"/><stop offset=".4" stop-color="#17C3FB"/><stop offset=".47" stop-color="#06BDFD"/><stop offset=".52" stop-color="#00BCFE"/><stop offset=".72" stop-color="#0F85D4"/><stop offset="1" stop-color="#263495"/></linearGradient><linearGradient id="j" x1="74.713" x2="125.78" y1="111.546" y2="111.546" gradientUnits="userSpaceOnUse"><stop offset=".04" stop-color="#BEF5EB"/><stop offset=".12" stop-color="#8FE6EF"/><stop offset=".22" stop-color="#5CD7F4"/><stop offset=".31" stop-color="#34CBF8"/><stop offset=".4" stop-color="#17C3FB"/><stop offset=".47" stop-color="#06BDFD"/><stop offset=".52" stop-color="#00BCFE"/><stop offset=".72" stop-color="#0F85D4"/><stop offset="1" stop-color="#263495"/></linearGradient><linearGradient id="l" x1="86.535" x2="75.817" y1="43.142" y2="59.919" gradientUnits="userSpaceOnUse"><stop stop-color="#DB974F"/><stop offset=".21" stop-color="#E0A460"/><stop offset=".48" stop-color="#E9BB7D"/><stop offset="1" stop-color="#F5DEAC"/></linearGradient><linearGradient id="m" x1="60.322" x2="70.925" y1="35.861" y2="61.802" gradientUnits="userSpaceOnUse"><stop stop-color="#BC8651"/><stop offset=".22" stop-color="#CD8F4F"/><stop offset=".36" stop-color="#DB974F"/><stop offset=".48" stop-color="#E0A460"/><stop offset=".63" stop-color="#E9BB7D"/><stop offset="1" stop-color="#F5DEAC"/></linearGradient><linearGradient id="n" x1="65.19" x2="75.541" y1="14.091" y2="71.792" gradientUnits="userSpaceOnUse"><stop stop-color="#EFDC8D"/><stop offset=".07" stop-color="#EFDC8D" stop-opacity=".672"/><stop offset=".17" stop-color="#EFDC8D" stop-opacity=".36"/><stop offset=".27" stop-color="#EFDC8D" stop-opacity=".176"/><stop offset=".38" stop-color="#EFDC8D" stop-opacity=".073"/><stop offset=".48" stop-color="#EFDC8D" stop-opacity=".022"/><stop offset=".58" stop-color="#EFDC8D" stop-opacity=".01"/><stop offset=".68" stop-color="#EFDC8D" stop-opacity=".01"/><stop offset=".78" stop-color="#EFDC8D" stop-opacity="0"/></linearGradient><clipPath id="a"><path fill="#fff" d="M386.055 79.19H124.287v150.809h261.768z"/></clipPath></defs></svg>