<svg xmlns="http://www.w3.org/2000/svg" width="846" height="564" fill="none"><g clip-path="url(#a)"><path fill="url(#b)" d="M541.004 231.849 5.803 424.358l1.902 5.489 535.201-192.51z"/><path fill="url(#c)" d="m565.405 327.799-535.2 192.51 1.902 5.488 535.201-192.51z"/><path fill="url(#d)" d="m554.983 266.28-535.2 192.51 9.701 27.988 535.201-192.51z"/><path fill="#FFEFCD" d="m558.06 272.586 7.079 17.182-99.536 26.191z"/></g><path fill="#232826" d="M662.883 262.453a3.1 3.1 0 0 1 1.851 1.847 3.3 3.3 0 0 1-.157 2.65c-4.055 7.772-21.746 27.464-97.98 42.491-.307.051-1.849.088-3.583-4.532s-.574-5.677-.307-5.851c66.173-41.807 92.109-39.514 100.199-36.603z"/><path fill="#C9CDA9" d="m634.249 225.818-35.771 22.715s5.657-4.444 3.077-11.242-19.15-9.416-19.15-9.416l31.266-14.303s14.234 12.778 20.578 12.246"/><path fill="url(#e)" d="m613.671 213.572-31.266 14.303s16.633 2.743 19.15 9.416-3.077 11.242-3.077 11.242l35.771-22.715c-2.961.245-7.626-2.408-11.787-5.29.144.759.104 2.276-2.134 3.78-2.384 1.614-9.048 4.465-11.947 5.68 3.447 3.916 5.691 6.371 5.736 6.398l-.222.201s-6.14-6.693-13.695-15.635l.222-.201a634 634 0 0 0 7.74 8.98c2.851-1.195 9.611-4.086 11.995-5.701 2.627-1.765 2.046-3.472 1.901-3.796-.315-.216-.606-.43-.921-.646-.073.043-.165.012-.207-.063l.005-.096c-4.062-2.972-7.287-5.859-7.287-5.859zm-5.445 15.029s.163.012.183.086c.042.075-.01.168-.081.187-.073.043-.163-.012-.206-.087-.042-.076.01-.169.082-.212zm1.103-.476s.163.012.206.088c.042.075-.01.168-.082.211s-.163-.012-.183-.086c0 0 .01-.168.083-.211zm1.103-.475s.163.012.206.087-.01.168-.083.211c-.072.043-.163-.011-.205-.087 0 0 .01-.168.082-.211m1.105-.5s.163.012.205.087c.042.076-.01.169-.082.212s-.163-.012-.206-.088c0 0 .01-.168.083-.211m1.103-.475s.163.011.205.087c.042.075-.01.168-.082.211s-.163-.012-.206-.087c0 0 .01-.168.083-.211m1.104-.5s.163.012.205.087c.043.076-.009.168-.082.211s-.163-.011-.205-.087c0 0 .009-.168.082-.211m1.082-.526s.163.012.206.088a.195.195 0 0 1-.083.211c-.072.043-.163-.012-.205-.087 0 0 .01-.168.082-.212m1.083-.525s.163.012.206.063c.043.076-.009.169-.059.213-.072.043-.163-.011-.206-.063 0 0 .009-.168.082-.211zm1.082-.525s.163.012.207.063c.042.075-.01.168-.059.213-.073.043-.163-.012-.207-.063 0 0 .01-.169.059-.213m1.039-.577s.164-.012.206.063a.16.16 0 0 1-.059.213c-.072.043-.163-.012-.206-.063 0 0 .009-.168.059-.213m1.041-.625s.166-.036.208.039c.043.076.037.172-.036.215-.072.043-.164.012-.208-.039l.002-.024a.19.19 0 0 1 .057-.189zm.907-.731s.167-.06.21.015c.043.052.061.149-.013.216-.05.069-.144.063-.209-.015 0 0 .001-.024-.021-.049-.02-.05.007-.121.033-.167m.968-.968s.084.151.057.221q-.076.103-.214.057c-.023-.001-.044-.051-.065-.077l.008-.144a.18.18 0 0 1 .214-.057m.323-1.159s.136.082.13.178c-.005.096-.078.139-.171.133-.047-.004-.09-.055-.111-.105l.004-.072c.006-.096.078-.139.172-.132zm-8.396 16.337s.062.149-.012.216q-.111.1-.21-.015s-.022-.026-.02-.05c-.021-.05.007-.12.033-.167.05-.068.143-.062.209.016m-1.046-.92s.144-.063.209.015c.044.051.062.149-.012.216a.145.145 0 0 1-.21-.015s-.021-.026-.02-.05c-.021-.05.007-.12.033-.166m-.837-.905s.167-.061.21.015c.067.053.061.149-.013.216q-.111.1-.209-.015s.001-.024-.021-.05c-.02-.05.007-.12.033-.166m-.812-.928s.167-.06.21.015c.067.053.061.15-.013.217-.05.068-.144.062-.209-.015 0 0 .001-.024-.021-.05-.02-.05.007-.12.033-.167m-.813-.903s.143-.062.209.015c.067.053.062.149-.012.216q-.111.101-.21-.015s-.022-.025-.02-.049c-.021-.05.007-.121.033-.167m-.836-.929s.166-.036.21.015a.155.155 0 0 1-.013.216q-.11.102-.209-.015s-.022-.025-.021-.049c-.02-.05.007-.121.033-.167m-.788-.926s.143-.062.209.016c.067.053.06.173-.012.216-.051.069-.167.06-.21-.015 0 0-.022-.026-.02-.05-.021-.05.006-.12.033-.167m-.836-.929s.167-.06.21.016c.067.053.037.171-.013.216a.143.143 0 0 1-.209-.015s-.022-.026-.021-.05c-.02-.05.007-.12.033-.167m-.602-.912s.037.172-.013.217c-.05.068-.167.06-.209-.016 0 0-.022-.025-.021-.049-.02-.05.007-.12.033-.167.051-.069.144-.062.21.015m-1.023-.918s.167-.06.209.015c.067.053.062.149-.012.216-.051.069-.144.062-.21-.015 0 0-.022-.025-.02-.049-.021-.05.007-.121.033-.167m-.812-.927s.167-.061.209.015q.099.116-.012.216c-.051.069-.144.062-.21-.015 0 0-.022-.026-.02-.05-.021-.05.007-.12.033-.166m-.788-.95s.166-.036.21.015c.067.053.037.172-.013.216s-.165.037-.209-.015c0 0 .001-.024-.021-.049-.02-.05.007-.121.033-.167m-.812-.927s.167-.061.21.015c.042.075.06.173-.013.216-.072.043-.165.036-.209-.015 0 0-.022-.026-.021-.05-.02-.049.007-.12.033-.166m-.789-.926s.166-.036.21.015c.067.053.06.173-.012.217-.051.068-.144.062-.21-.016 0 0-.022-.025-.02-.049-.021-.05.006-.121.032-.167m-.812-.927s.168-.061.21.015c.042.075.06.173-.012.216-.073.043-.168.061-.21-.015 0 0-.022-.026-.021-.05-.02-.049.007-.12.033-.166m-.81-.951s.167-.061.209.015c.067.053.062.149-.012.216s-.167.06-.21-.015c0 0 .002-.024-.02-.05-.021-.05.007-.12.033-.166m-.789-.926s.166-.036.21.015a.156.156 0 0 1-.013.216.143.143 0 0 1-.209-.015s-.022-.026-.021-.05c-.02-.049.007-.12.033-.166"/><path fill="#232826" d="M582.299 228.178c.163.012 16.507 2.81 18.948 9.248 2.459 6.512-2.769 10.729-2.99 10.906l.371.486s5.815-4.658 3.17-11.618c-2.561-6.785-18.722-9.522-19.417-9.644zM613.429 213.517c.577.523 14.404 12.837 20.79 12.309l-.058-.606c-6.152.521-20.199-12.026-20.332-12.156l-.401.477z"/><path fill="#232826" d="M619.965 222.723s.006-.121.033-.168c0 0 .168-.06.211.016 0 0 .062.15-.012.217 0 0-.145.062-.211-.016 0 0 .001-.024-.021-.049m.759-.937.008-.144s.146-.086.215-.057c0 0 .086.151.058.222 0 0-.122.088-.215.057-.023-.002-.044-.052-.066-.078m.418-1.155.004-.072s.078-.14.172-.133c0 0 .137.083.132.179 0 0-.079.14-.173.133-.047-.004-.091-.055-.112-.105zM622.303 219.907l-.268.15s.874 1.688-1.351 3.462l.249.188c2.353-1.934 1.369-3.775 1.37-3.8"/><path fill="url(#f)" d="M635.16 198.821c-3.447 6.535-19.263 24.795-90.729 38.237 0 0-1.37.232-2.99-3.957-1.62-4.19-.455-4.939-.455-4.939 61.899-38.329 85.828-35.497 92.758-32.965 1.446.516 2.122 2.266 1.391 3.646z"/><path fill="url(#g)" d="M541.021 228.09s-1.116.729.373 4.712c-.79-2.234.367-2.84.367-2.84 63.906-32.994 86.107-34.644 92.299-34.058.653.049 1.058.343 1.223.737-.267-.665-.797-1.254-1.509-1.499-6.927-2.529-30.85-5.335-92.729 32.926z"/><path fill="#232826" d="M626.375 202.054c-.215.056.373 1.328.627 1.829.191.376.603 1.009.701.92l.515-.394a42 42 0 0 0 4.708-4.122c-.309.072-.636.048-.884-.14-.294-.214-.41-.657-.435-1.068a80 80 0 0 1-4.652 2.658c-.193.106-.364.213-.579.293zM564.056 227.52c-.284.05.872 2.026 1.323 2.754.128.224.299.524.532.542.214-.056.427-.112.642-.191 11.213-3.053 20.598-6.075 28.503-8.971a47 47 0 0 1-2.362-4.314c-7.861 2.97-17.122 6.29-28.041 9.962-.214.056-.405.137-.619.192zM562.749 224.782l.123.32a2337 2337 0 0 1 29.089-11.6l-.123-.32a2753 2753 0 0 0-29.089 11.6M562.928 225.719s.01-.191.083-.233c0 0 .186.014.227.113 0 0-.01.19-.083.232 0 0-.186-.014-.229-.089zm1.269-.526s.01-.191.083-.233c0 0 .186.014.229.089 0 0-.011.19-.107.231 0 0-.186-.014-.229-.089zm1.267-.502s.011-.191.083-.233c0 0 .187.014.229.089 0 0-.01.19-.106.231 0 0-.186-.014-.229-.089zm1.268-.502s.01-.191.083-.233c0 0 .186.014.229.089 0 0-.011.19-.083.233 0 0-.186-.014-.228-.113zm1.269-.526s.01-.191.083-.233c0 0 .186.014.229.089 0 0-.011.19-.106.231 0 0-.187-.014-.228-.113zm1.267-.502s.011-.191.107-.231c0 0 .186.014.227.113 0 0-.01.19-.083.232 0 0-.186-.014-.229-.089zm1.268-.502s.01-.191.106-.231c0 0 .187.014.228.112 0 0-.01.191-.083.233 0 0-.186-.014-.229-.089zm1.269-.526s.01-.191.083-.233c0 0 .186.014.228.113 0 0-.011.19-.083.233-.096.04-.187-.014-.229-.089zm1.268-.502s.01-.191.106-.231c0 0 .186.014.228.113 0 0-.011.19-.083.232 0 0-.187-.014-.229-.089zm1.267-.502s.011-.191.107-.231c0 0 .186.014.227.113 0 0-.01.19-.083.232-.072.043-.186-.014-.229-.089zm1.269-.526s.011-.19.106-.231c0 0 .187.014.228.113 0 0-.01.19-.083.232-.096.041-.186-.014-.229-.088zm1.268-.502s.01-.191.106-.231c0 0 .186.014.228.113 0 0-.011.19-.083.232-.096.041-.186-.014-.229-.089zm1.267-.502s.011-.191.107-.231c0 0 .186.014.228.113 0 0-.011.19-.083.232 0 0-.187-.014-.23-.089zm1.268-.502s.011-.191.106-.231c0 0 .187.014.228.113 0 0-.01.19-.083.232 0 0-.186-.014-.229-.089zm1.269-.526s.01-.19.106-.231c0 0 .187.014.228.113 0 0-.01.19-.083.233 0 0-.186-.015-.229-.089zm1.29-.476s.01-.191.106-.232c0 0 .186.015.228.113 0 0-.011.191-.083.233 0 0-.187-.014-.229-.089zm1.269-.526s.01-.191.106-.231c0 0 .186.014.228.112 0 0-.011.191-.083.233-.096.041-.187-.014-.229-.089zm1.267-.502s.011-.191.106-.231c0 0 .187.014.228.112 0 0-.01.191-.106.231-.072.043-.186-.014-.228-.112m1.268-.502s.01-.191.106-.231c0 0 .187.014.228.112 0 0-.011.191-.106.231-.073.043-.187-.014-.228-.112m1.268-.502s.01-.191.104-.208c0 0 .187.014.23.089 0 0-.011.191-.083.233 0 0-.187-.014-.228-.113zm1.267-.502s.011-.191.105-.208c0 0 .187.014.229.089 0 0-.01.191-.083.233 0 0-.186-.014-.228-.113zm1.291-.501s.011-.19.105-.207c0 0 .186.014.229.089 0 0-.01.19-.083.233 0 0-.186-.014-.228-.113zm1.268-.502s.01-.19.106-.231c0 0 .186.014.228.113 0 0-.011.19-.106.231-.073.042-.187-.014-.228-.113M625.897 203.535c-7.745 4.138-18.479 8.956-32.007 14.299.148.298.297.573.447.847 0 0 .001-.023.025-.045.096-.041.187.014.23.089.042.099-.01.19-.083.233.405.748.814 1.425 1.16 1.978.094-.017.167-.059.263-.1.215-.079.407-.16.621-.215 15.279-5.663 24.673-10.822 30.448-14.945-.297-.573-.68-1.296-1.079-2.163zm-30.242 14.602s.186.015.229.09c.042.098-.01.19-.083.232-.095.041-.186-.014-.229-.089-.042-.099.01-.191.083-.233m1.27-.524s.187.015.23.09c.041.098-.011.19-.083.232-.096.041-.187-.014-.23-.089a.185.185 0 0 1 .083-.233m1.27-.524s.187.015.23.09c.041.098-.01.19-.083.232s-.187-.014-.23-.089a.186.186 0 0 1 .083-.233m1.246-.502s.187.015.229.09c.042.099-.01.19-.082.232s-.187-.014-.23-.089c-.042-.099.01-.19.083-.233m1.271-.547s.187.014.23.089c.041.099-.01.19-.083.233-.073.042-.187-.015-.229-.09-.042-.099.01-.19.082-.232m1.271-.524s.186.014.229.089c.042.099-.01.19-.083.233-.072.042-.186-.015-.229-.09-.042-.099.01-.19.083-.232m1.246-.526s.187.014.23.089c.042.099-.01.191-.083.233-.072.042-.187-.014-.229-.089-.042-.099.01-.191.082-.233m1.272-.548s.187.014.229.089-.01.191-.082.233-.187-.014-.23-.089c0 0 .01-.191.083-.233m1.247-.526s.187.015.229.09c.042.099-.01.19-.082.232-.096.041-.187-.014-.23-.089-.042-.099.01-.19.083-.233m1.248-.549s.187.014.23.089a.186.186 0 0 1-.083.233c-.096.04-.187-.015-.23-.09 0 0 .01-.19.083-.232m1.248-.55s.187.015.23.09c.041.098-.011.19-.083.232-.096.041-.187-.014-.23-.089s.011-.191.083-.233m1.248-.549s.187.014.23.089c.041.099-.01.19-.083.233-.073.042-.187-.015-.23-.09 0 0 .011-.19.083-.232m1.248-.55s.187.014.23.089-.01.191-.083.233c-.096.041-.186-.014-.229-.089-.042-.099.01-.191.082-.233m1.25-.573s.187.014.229.089c.042.099-.01.191-.082.233-.096.04-.187-.015-.23-.09 0 0 .01-.19.083-.232m1.249-.574s.187.015.23.09c.041.098-.01.19-.083.232-.072.043-.187-.014-.229-.089 0 0 .01-.191.082-.233m1.25-.573s.186.014.229.089c.042.099-.01.191-.082.233 0 0-.187-.014-.23-.089 0 0 .01-.191.083-.233m1.226-.575s.187.014.229.089c.042.099-.01.191-.082.233s-.187-.015-.23-.09c0 0 .01-.19.083-.232m1.249-.574s.187.015.23.09-.01.19-.083.232c-.096.041-.187-.014-.229-.089 0 0 .01-.19.082-.233m1.228-.599s.186.015.229.09c.042.099-.01.19-.083.232-.095.041-.186-.014-.229-.089 0 0 .01-.19.083-.233m1.227-.599s.187.015.23.09c.041.099-.011.19-.083.232-.096.041-.187-.014-.23-.089s.01-.19.083-.233m1.227-.599s.187.015.23.09c.042.099-.01.19-.083.232-.072.043-.187-.014-.229-.089 0 0 .01-.19.082-.233m1.206-.624s.186.014.229.089c.042.099-.01.191-.082.233-.096.04-.187-.014-.23-.09 0 0 .01-.19.083-.232m1.228-.623s.187.014.23.089a.17.17 0 0 1-.083.233c-.072.042-.187-.014-.229-.089s.01-.191.082-.233m1.206-.625s.186.015.231.066c.041.099-.011.19-.06.234-.096.041-.187-.014-.229-.089s.009-.167.081-.209zm1.206-.648s.188-.01.231.066c.042.098-.01.19-.083.232-.072.042-.188.01-.23-.065s.008-.167.081-.209z"/><path fill="#232826" d="M625.596 202.836c.063.124.127.249.167.371-7.717 4.133-18.468 8.939-31.988 14.273l-.444-.893.239-.101c.215-.079.407-.16.598-.217 15.396-5.81 25.19-10.237 31.428-13.433M593.844 218.136l-.125-.326.047.003c.043.101.107.228.173.33-.024-.001-.047-.003-.072.019zM594.322 219.163s.008-.146.058-.19c.042.1.108.203.15.303-.096.017-.189-.014-.209-.089zM564.073 229.935a692 692 0 0 1-20.698 5.996c.329.405.706.79 1.028.885 7.602-1.723 14.207-3.617 20.614-5.313a48 48 0 0 1-.944-1.568m.071.837s.012-.213.106-.229c.095-.017.187.014.205.11.018.097-.01.189-.105.206 0 0-.186-.014-.204-.111zm-1.308.399s.012-.213.106-.23c.095-.016.187.015.205.111s-.01.189-.105.206c-.094.016-.186-.015-.204-.111zm-1.306.375s.011-.213.106-.229c.094-.017.186.014.204.11.018.097-.01.189-.105.206-.094.016-.186-.014-.204-.111zm-1.307.375s.011-.213.106-.229c.094-.017.186.014.203.134.018.096-.01.189-.105.206-.094.016-.186-.014-.204-.111m-1.307.375s.01-.189.129-.227c.095-.017.187.014.205.11.018.097-.01.189-.105.206-.094.017-.186-.014-.204-.111zm-1.307.376s.012-.213.106-.23c.095-.016.187.014.205.111.018.096-.011.189-.105.205-.094.017-.186-.014-.205-.11zm-1.33.373s.012-.213.106-.229c.095-.017.186.014.227.136.018.096-.011.189-.105.205-.094.017-.186-.014-.205-.11zm-11.536 3.109s-.01.189-.105.205c-.094.017-.163-.012-.204-.11 0 0 .011-.213.106-.229.094-.017.186.014.203.134m1.329-.35s-.01.189-.105.206c-.094.016-.163-.013-.204-.111 0 0 .011-.213.106-.229.094-.017.186.014.203.134m1.305-.352s-.01.19-.104.206c-.095.017-.187-.014-.205-.11 0 0 .01-.19.105-.206.094-.017.186.014.204.11m1.329-.349s-.01.189-.104.205c-.095.017-.164-.012-.205-.11 0 0 .011-.213.106-.229.094-.017.186.014.203.134m1.329-.35s-.01.189-.105.206c-.094.016-.186-.015-.204-.111s.01-.189.104-.206c.095-.016.187.015.205.111m1.306-.352s-.011.19-.105.206c-.095.017-.163-.012-.205-.11 0 0 .012-.213.106-.23.095-.016.187.014.204.134m1.33-.373s-.011.189-.105.206c-.095.016-.186-.014-.205-.111-.018-.096.011-.189.105-.206s.186.015.205.111m1.305-.352s-.01.19-.105.206c-.094.017-.163-.012-.204-.11 0 0 .011-.213.106-.23.094-.016.186.014.204.111zm1.33-.373s-.01.189-.129.228c-.095.016-.163-.013-.205-.111 0 0 .012-.213.106-.229.095-.017.187.014.205.11zM542.648 234.882l.666-.21a1300 1300 0 0 0 19.885-6.447c.231.493.487.94.722 1.363a579 579 0 0 1-20.773 5.998c-.283-.402-.499-.727-.499-.727z"/><path fill="#232826" d="M592.035 214.081c1.203 3.092 2.844 6.41 5.118 9.389l.273-.221c-6.714-8.784-7.983-20.618-7.977-20.739l-.356.022s.557 5.391 2.942 11.549M625.354 200.38c.746 1.944 1.695 4.048 2.89 6.002l.293-.172c-3.517-5.783-4.975-12.863-4.971-12.935l-.335.071s.652 3.22 2.145 7.06zM562.837 225.734c.912 2.368 2.194 4.885 4.011 7.128l.273-.222c-5.343-6.574-6.075-15.681-6.07-15.778l-.356.022s.34 4.164 2.142 8.85"/><path fill="#232826" d="M540.846 228.008c61.382-38.217 85.488-36.006 93.007-33.267.78.274 1.4.896 1.706 1.686a2.91 2.91 0 0 1-.135 2.414c-3.744 7.141-20.096 25.183-90.947 38.675-.165.036-1.646.167-3.322-4.157-1.653-4.322-.455-5.242-.334-5.329zm3.525 8.901c70.59-13.44 86.817-31.324 90.532-38.37.313-.577.352-1.27.106-1.888-.246-.619-.733-1.111-1.33-1.323-7.449-2.709-31.349-4.857-92.488 33.209 0 0-.91.797.538 4.6s2.642 3.772 2.642 3.772"/><path fill="url(#h)" d="M838.907 172.391c-10.583 20.258-59.055 76.917-277.009 119.868 0 0-4.153.751-9.036-12.168-4.883-12.92-1.291-15.258-1.291-15.258 189.183-119.536 262.054-111.284 283.123-103.67 4.41 1.59 6.427 6.955 4.214 11.204z"/><path fill="#A07A4B" d="M803.375 156.813c3.662 19.869 14.224 38.451 14.839 39.512 11.779-10.281 17.731-18.836 20.708-24.52 2.214-4.258.196-9.635-4.219-11.253-5.903-2.133-15.869-4.332-31.328-3.739"/><path fill="#232826" d="M551.383 264.458c81.498-51.502 150.376-84.991 204.711-99.537 45.085-12.072 68.708-7.763 78.763-4.135 2.216.808 4.002 2.578 4.847 4.862s.717 4.84-.413 6.962c-5.055 9.687-19.704 29.251-60.917 51.607-49.654 26.944-122.464 49.975-216.386 68.485-.189.035-4.568.673-9.487-12.442-4.918-13.116-1.288-15.693-1.118-15.802m287.163-92.263c1-1.913 1.134-4.178.369-6.239s-2.351-3.647-4.339-4.367c-9.987-3.599-33.402-7.869-78.274 4.144-54.24 14.529-123.023 48.001-204.471 99.433-.024.023-3.178 2.44 1.462 14.737 4.616 12.297 8.537 11.917 8.562 11.895 93.827-18.493 166.566-41.505 216.146-68.381 40.995-22.226 55.542-41.628 60.545-51.222"/><path fill="#232826" d="M556.477 284.316s2.315 4.657 4.299 5.424c23.176-5.563 44.434-11.067 63.962-16.522a106 106 0 0 1-5.496-10.028c-18.654 6.459-38.847 13.27-60.742 20.469l-1.999.659zM706.269 216.879c7.042 18.748 16.459 31.834 16.589 32.013l.344-.267c-.218-.282-21.3-29.622-23.884-63.523l-.424.043c.871 11.398 3.834 22.286 7.375 31.734M808.511 176.327c4.391 11.692 9.324 20.169 9.387 20.295l.365-.217c-.106-.202-11.139-19.203-14.897-39.615l-.427.091c1.257 6.861 3.343 13.562 5.57 19.47zM617.424 253.226c5.385 14.31 12.859 24.178 12.967 24.331l.321-.269c-.174-.23-16.927-22.35-18.197-48.366l-.423.019c.418 8.769 2.595 17.102 5.307 24.307z"/><path fill="#232826" d="M813.953 194.366a148 148 0 0 1-4.241-8.794c-19.041 9.987-49.031 23.816-96.008 41.993-.599.246-1.221.491-1.841.712l-.359.143a152 152 0 0 0 7.185 13.298c.262-.078.143-.038.382-.141.646-.243 1.243-.466 1.865-.71 46.599-17.698 75.315-33.765 92.993-46.503zm-94.022 45.681s.235-.031.299.07a.23.23 0 0 1-.064.309c-.097.065-.236.031-.3-.07l-.022-.026a.22.22 0 0 1 .085-.259zm-.897-1.488s.236-.031.3.07a.23.23 0 0 1-.064.309c-.098.066-.236.031-.3-.07l.001-.024a.22.22 0 0 1 .085-.259zm-.872-1.509s.236-.031.277.068a.23.23 0 0 1-.065.309c-.097.065-.235.031-.299-.07-.04-.123.013-.24.086-.283zm-.847-1.532s.236-.031.275.092c.065.101.01.242-.086.283-.097.065-.236.031-.275-.092l.001-.024a.204.204 0 0 1 .108-.258zm-.824-1.531s.236-.031.275.093c.04.123.01.241-.087.307-.098.065-.235.007-.276-.092a.266.266 0 0 1 .111-.306zm-2.985-5.833s-.234.007-.275-.092c-.041-.1.014-.241.086-.284.096-.041.235-.007.276.093.064.101.009.241-.087.283m.753 1.549s-.234.007-.275-.092c0 0 .014-.24.088-.307.095-.042.232.016.298.094.041.099.01.241-.086.283zm.798 1.577s-.234.007-.299-.094c0 0 .014-.24.088-.307a.25.25 0 0 1 .299.094c.064.101.009.241-.088.307m.799 1.552s-.234.008-.298-.093a.3.3 0 0 1 .087-.308c.098-.065.235-.007.299.094s.009.242-.088.307M707.066 212.036s-.014.241-.133.281c-.096.041-.233-.017-.273-.141 0 0 .014-.24.133-.28s.234.017.273.14M711.475 223.463s-.014.241-.111.307a.22.22 0 0 1-.276-.117s.014-.241.111-.283c.119-.04.234.017.298.119zM707.649 213.679s-.014.241-.133.281c-.096.041-.233-.017-.273-.141 0 0 .014-.24.133-.28s.234.017.275.116zM708.982 217.487s-.014.241-.111.283c-.096.042-.234-.017-.275-.117-.04-.124.014-.242.11-.283.12-.04.234.017.276.117M708.246 215.322s-.013.241-.133.281a.216.216 0 0 1-.274-.117c-.04-.123.014-.24.11-.282a.215.215 0 0 1 .274.117zM710.806 221.864s-.014.241-.11.283a.22.22 0 0 1-.276-.117c-.041-.1.014-.242.111-.283.096-.042.234.017.275.117M712.191 225.068s-.014.242-.11.283c-.096.042-.235.008-.277-.092 0 0 .014-.242.111-.283.096-.042.233.016.298.118zM722.939 245.022s.033.244-.064.309a.22.22 0 0 1-.301-.07l.003-.048s-.036-.196.062-.261c.097-.066.236-.032.302.046zM724.867 247.894s.058.222-.041.312c-.098.066-.238.056-.304-.022l.002-.048s-.035-.197.039-.264c.098-.066.238-.056.279.044zM722.012 243.549s.033.245-.064.31c-.098.066-.236.032-.301-.07l.003-.048s-.012-.194.062-.262c.097-.065.236-.031.277.069zM712.914 226.654s-.014.241-.087.285c-.096.041-.236.007-.277-.093 0 0 .014-.242.11-.283.097-.042.234.017.277.092zM721.074 242.049s.033.245-.065.31c-.097.066-.236.032-.3-.07l.003-.048s-.013-.194.061-.262c.098-.065.237-.031.278.069zM723.88 246.47s.033.244-.065.31c-.097.065-.212.033-.301-.046 0 0 .001-.024-.021-.05-.041-.1.011-.193.085-.26.098-.065.236-.031.302.046M701.841 189.853c.016.122-.061.238-.179.253-.093-.007-.208-.039-.226-.137l.003-.048c-.016-.122.06-.238.178-.253a.22.22 0 0 1 .247.187zM702.085 191.596s-.061.238-.179.253c-.093-.007-.185-.037-.226-.137l.003-.048s.037-.239.155-.255a.22.22 0 0 1 .247.187M702.347 193.336s-.06.237-.178.253c-.095.017-.187-.014-.226-.137l.002-.048s.038-.24.156-.255.231.041.248.163zM702.637 195.058s-.06.237-.178.253c-.095.017-.209-.039-.227-.137-.015-.146.062-.262.18-.277s.232.04.247.187zM701.427 186.375s-.06.238-.177.229c-.093-.006-.185-.037-.226-.137l.003-.048c.007-.12.084-.236.178-.253.117.008.229.089.222.209M701.275 184.615c-.007.12-.084.235-.201.227a.3.3 0 0 1-.226-.137l.003-.048c.007-.121.084-.236.2-.228.117.009.229.09.222.21zM701.617 188.112s-.06.238-.178.253a.29.29 0 0 1-.226-.137l.003-.048s.037-.239.178-.253c.117.008.23.065.247.187zM706.521 210.37s-.013.241-.133.281c-.119.04-.233-.017-.273-.141 0 0 .014-.24.133-.28s.234.017.273.14M702.98 196.786s-.038.24-.156.255a.235.235 0 0 1-.25-.139l.001-.024c-.016-.123.037-.24.156-.256.118-.015.232.041.249.164M704.562 203.63s-.014.241-.157.279c-.119.04-.233-.017-.248-.163-.04-.124.014-.241.155-.255a.21.21 0 0 1 .273.141zM704.133 201.943s-.038.239-.156.255-.209-.015-.249-.139c-.015-.146.015-.265.158-.303.118-.016.232.041.248.163zM703.725 200.219s-.037.239-.155.255c-.096.041-.21-.015-.25-.139-.015-.146.039-.263.157-.279.118-.015.233.017.271.165zM703.335 198.513s-.037.239-.155.254c-.095.018-.21-.015-.25-.139-.015-.146.039-.263.158-.303.118-.015.232.041.248.163zM705.996 208.679s-.014.241-.133.28c-.096.042-.233-.016-.273-.14s.015-.265.133-.281a.21.21 0 0 1 .273.141M705.488 207.02s-.014.241-.133.281c-.096.041-.21-.016-.249-.139s.015-.265.133-.281c.096-.041.233.017.273.141zM705.015 205.333s-.014.241-.155.255c-.119.04-.21-.015-.249-.139s.015-.265.156-.279c.119-.04.233.017.273.141zM623.049 261.441l.005-.096c-.405.139-.81.279-1.191.396-.898.176 2.681 6.212 4.023 8.476.426.705 1.132 1.839 1.23 1.774.663-.169 1.733-.478 2.396-.647 34.194-9.557 62.886-18.932 86.953-27.918a162 162 0 0 1-7.181-13.278c-23.988 9.232-52.264 19.504-85.563 30.98a4 4 0 0 0-.334.12s.046.004.044.052c.041.099.009.241-.087.282a.25.25 0 0 1-.298-.093zm5.144 8.87s.236-.032.3.069a.23.23 0 0 1-.064.309.22.22 0 0 1-.3-.07l.003-.048s-.013-.194.061-.26m-.896-1.486s.236-.031.3.07a.23.23 0 0 1-.064.309.22.22 0 0 1-.3-.07l.001-.024a.22.22 0 0 1 .085-.259zm-.872-1.483s.235-.031.299.07a.23.23 0 0 1-.064.308c-.097.065-.236.031-.3-.07-.039-.123.014-.239.087-.282zm-.87-1.531s.235-.032.298.093a.216.216 0 0 1-.088.307c-.097.065-.235.031-.298-.094 0 0 .014-.239.086-.282zm-.824-1.528s.234-.008.275.092c.065.101.01.241-.087.306-.098.066-.236.032-.275-.092a.26.26 0 0 1 .111-.305zm-.822-1.552s.234-.008.299.093.009.242-.088.307c-.096.041-.234.007-.275-.092-.064-.101-.01-.241.086-.283zM621.993 258.457s-.013.241-.109.282c-.097.042-.235.008-.276-.092 0 0 .014-.241.111-.306.096-.042.233.016.274.116M622.736 260.043s-.014.242-.087.285c-.096.042-.236.008-.277-.093 0 0 .014-.241.11-.283.097-.041.236-.007.277.093zM620.629 255.232s-.014.242-.11.283c-.096.042-.234-.017-.275-.117s.014-.241.11-.283c.12-.04.234.017.275.117M621.305 256.831s-.014.241-.111.307a.22.22 0 0 1-.276-.117s.014-.241.111-.283c.096-.042.234.017.275.117zM619.986 253.607s-.014.242-.111.283a.216.216 0 0 1-.275-.117c-.041-.1.014-.241.11-.283.097-.042.234.017.276.117M629.4 272.277s.033.244-.063.285c-.098.066-.236.032-.301-.07l.003-.048s-.036-.196.062-.262c.097-.065.236-.031.3.07zM619.367 251.962s-.014.241-.11.282c-.096.042-.233-.017-.273-.14a.22.22 0 0 1 .134-.281.216.216 0 0 1 .274.116zM631.315 275.178s.056.246-.042.311c-.097.066-.237.056-.278-.044 0 0 .001-.024-.021-.05-.041-.1.011-.193.086-.26.097-.065.236-.031.301.046zM630.357 273.728s.032.244-.065.31c-.097.065-.236.031-.302-.046 0 0 .002-.024-.02-.05-.041-.1.011-.193.085-.26.097-.065.236-.031.302.046M632.324 276.583s.058.223-.018.315a.24.24 0 0 1-.304-.022l-.044-.052c-.043-.076.011-.193.062-.263.098-.065.238-.055.304.022M615.593 238.481s-.037.239-.178.253a.235.235 0 0 1-.25-.138l.001-.024c-.016-.123.061-.238.179-.254.118-.015.232.041.247.187zM615.29 236.734s-.06.237-.178.253c-.094-.007-.209-.039-.227-.137l.003-.048c-.016-.122.061-.238.179-.253a.22.22 0 0 1 .246.187zM615.024 235.02s-.06.238-.178.253c-.093-.007-.208-.039-.226-.137l.003-.048c-.017-.122.06-.238.178-.253a.22.22 0 0 1 .247.187zM614.324 230.061c-.006.121-.083.236-.2.228-.093-.007-.183-.062-.203-.136l.003-.048c.007-.12.082-.212.2-.227.117.008.229.089.222.209zM615.946 240.207s-.037.239-.155.255a.24.24 0 0 1-.25-.139c-.015-.146.039-.263.158-.303.118-.016.232.041.248.163zM616.755 243.593s-.014.241-.157.279c-.095.018-.21-.015-.25-.139-.015-.146.016-.265.158-.303.096-.041.232.041.249.163M617.712 246.988s-.014.241-.133.281c-.096.042-.234-.017-.273-.14s.015-.265.133-.281a.207.207 0 0 1 .273.14M617.204 245.301s-.014.241-.133.281c-.118.015-.233-.017-.25-.139-.039-.124.016-.265.134-.281a.206.206 0 0 1 .272.141zM618.237 248.654s-.014.24-.133.28a.207.207 0 0 1-.273-.14s.014-.241.133-.281c.096-.042.233.017.273.141M618.787 250.318s-.014.24-.133.28c-.096.042-.233-.017-.273-.14s.014-.241.11-.283a.21.21 0 0 1 .273.141zM616.326 241.909s-.037.239-.156.278c-.118.016-.21-.015-.25-.138-.015-.147.039-.264.158-.303.118-.016.232.04.272.164zM708.589 221.796c42.542-16.66 76.681-30.601 101.462-41.459l-.164-.397c-24.781 10.858-58.92 24.799-101.439 41.461l.163.421zM553.574 282.165l3.889-1.405c21.505-7.983 42.295-15.728 61.779-23.086l-.139-.419c-19.484 7.358-40.275 15.103-61.78 23.086l-3.888 1.405zM612.859 234.387l.187.399c31.367-16.373 60.696-30.217 87.174-41.206l-.164-.397c-26.501 10.987-55.831 24.855-87.199 41.228zM707.727 220.016s.014-.24.11-.281c0 0 .232.017.273.116 0 0-.013.24-.109.281a.217.217 0 0 1-.274-.116m1.651-.676s.014-.24.11-.281c0 0 .232.017.273.116 0 0-.014.24-.109.281-.096.041-.233-.017-.274-.116m1.503-.542s.014-.24.11-.281c0 0 .232.017.273.116 0 0-.014.24-.109.281-.096.041-.233-.017-.274-.116m1.578-.633s.014-.24.11-.281c0 0 .232.017.274.116 0 0-.014.24-.11.281s-.233-.017-.274-.116m1.577-.609s.014-.239.11-.281c0 0 .232.017.273.116 0 0-.013.24-.109.281s-.233-.016-.274-.116m1.578-.633s.014-.239.11-.281c0 0 .233.017.274.116 0 0-.014.24-.11.281s-.233-.016-.274-.116m1.577-.608s.014-.24.11-.281c0 0 .233.016.274.115 0 0-.014.24-.11.281s-.233-.016-.274-.115m1.579-.633s.013-.24.109-.281c0 0 .233.016.274.116 0 0-.014.239-.11.281-.096.041-.232-.017-.273-.116m1.577-.609s.013-.24.109-.281c0 0 .233.016.274.116 0 0-.014.239-.11.281-.096.041-.232-.017-.273-.116m1.578-.633s.014-.24.109-.281c0 0 .233.017.274.116 0 0-.014.24-.11.281-.095.041-.232-.017-.273-.116m1.578-.633s.014-.24.11-.281c0 0 .232.017.273.116 0 0-.013.24-.109.281s-.233-.017-.274-.116m1.577-.609s.014-.24.11-.281c0 0 .232.017.273.116 0 0-.014.24-.109.281-.096.041-.233-.017-.274-.116m1.578-.633s.014-.239.11-.281c0 0 .232.017.274.116 0 0-.014.24-.11.281s-.233-.017-.274-.116m1.577-.609s.014-.239.11-.281c0 0 .232.017.273.116 0 0-.013.24-.109.281s-.233-.016-.274-.116m1.578-.633s.014-.239.11-.281c0 0 .233.017.272.14 0 0-.013.24-.109.281s-.233-.016-.274-.116zm1.579-.632s.013-.24.109-.281c0 0 .233.016.274.116 0 0-.014.239-.11.281-.095.041-.232-.017-.273-.116m1.553-.611s.014-.24.11-.281c0 0 .233.017.274.116 0 0-.014.24-.11.281s-.233-.017-.274-.116m1.579-.633s.013-.24.109-.281c0 0 .233.017.274.116 0 0-.014.24-.11.281 0 0-.232-.017-.273-.116m1.578-.633s.014-.239.109-.281c0 0 .233.017.274.116 0 0-.014.24-.109.281-.12.04-.233-.016-.274-.116m1.578-.633s.014-.239.11-.281c0 0 .232.017.273.116 0 0-.013.24-.109.281s-.233-.016-.274-.116m1.577-.608s.014-.24.11-.281c0 0 .232.016.273.116 0 0-.013.239-.109.281-.096.041-.233-.017-.274-.116m1.578-.633s.014-.24.11-.281c0 0 .233.016.274.116 0 0-.014.239-.11.281-.096.041-.233-.017-.274-.116m1.555-.635s.014-.24.11-.281c0 0 .233.017.274.116 0 0-.014.24-.11.281s-.233-.017-.274-.116m1.579-.633s.013-.239.109-.281c0 0 .233.017.274.116 0 0-.014.24-.11.281 0 0-.232-.016-.273-.116m1.578-.633s.014-.239.11-.281c0 0 .232.017.273.116 0 0-.014.24-.109.281-.096.042-.233-.016-.274-.116m1.578-.632s.014-.24.11-.281c0 0 .232.016.273.115 0 0-.013.24-.109.281 0 0-.233-.016-.274-.115m1.578-.633s.014-.24.11-.281c0 0 .233.016.274.116 0 0-.014.239-.11.281-.096.041-.233-.017-.274-.116m1.555-.635s.014-.24.11-.281c0 0 .233.017.274.116 0 0-.014.24-.11.281s-.232-.017-.274-.116m1.579-.633s.014-.24.109-.281c0 0 .233.017.274.116 0 0-.014.24-.11.281 0 0-.232-.017-.273-.116m1.578-.633s.014-.239.11-.281c0 0 .232.017.273.116 0 0-.013.24-.109.281 0 0-.233-.016-.274-.116m1.578-.632s.014-.24.11-.282c0 0 .233.017.274.116 0 0-.014.24-.11.281 0 0-.233-.016-.274-.115m1.555-.635s.014-.24.11-.281c0 0 .233.017.274.116 0 0-.014.24-.11.281s-.233-.017-.274-.116m1.579-.633s.013-.24.109-.281c0 0 .233.017.274.116 0 0-.014.24-.11.281s-.232-.017-.273-.116m1.578-.633s.014-.24.109-.281c0 0 .233.017.274.116 0 0-.014.24-.109.281-.096.041-.233-.017-.274-.116m1.555-.634s.014-.24.109-.281c0 0 .233.016.274.116 0 0-.014.239-.109.281-.096.041-.233-.017-.274-.116m1.58-.657s.013-.24.109-.281c0 0 .233.017.274.116 0 0-.014.24-.11.281 0 0-.232-.017-.273-.116m1.578-.633s.014-.24.109-.281c0 0 .233.017.274.116 0 0-.014.24-.109.281 0 0-.233-.017-.274-.116m1.556-.659s.014-.239.11-.281c0 0 .232.017.274.116 0 0-.014.24-.11.281 0 0-.233-.016-.274-.116m1.579-.632s.013-.24.109-.281c0 0 .233.016.274.116 0 0-.014.239-.11.281 0 0-.232-.017-.273-.116m1.555-.635s.013-.24.109-.281c0 0 .233.017.274.116 0 0-.014.24-.11.281 0 0-.232-.017-.273-.116m1.579-.657s.014-.24.11-.281c0 0 .232.017.273.116 0 0-.013.24-.109.281 0 0-.233-.017-.274-.116m1.555-.634s.014-.24.11-.281c0 0 .232.016.273.116 0 0-.013.239-.109.281-.096.041-.233-.017-.274-.116m1.58-.657s.014-.24.109-.281c0 0 .233.017.274.116 0 0-.014.24-.109.281 0 0-.233-.017-.274-.116m1.555-.635s.014-.239.109-.281c0 0 .233.017.274.116 0 0-.014.24-.109.281 0 0-.233-.016-.274-.116m1.58-.657s.013-.239.109-.281c0 0 .233.017.274.116 0 0-.014.24-.11.281 0 0-.232-.016-.273-.116m1.555-.634s.013-.24.109-.281c0 0 .233.017.274.116 0 0-.014.24-.11.281 0 0-.232-.017-.273-.116m1.556-.659s.014-.239.11-.281c0 0 .232.017.273.116 0 0-.014.24-.109.281 0 0-.233-.016-.274-.116m1.58-.656s.013-.24.109-.281c0 0 .233.016.274.115 0 0-.014.24-.11.281 0 0-.232-.016-.273-.115m1.556-.659s.014-.24.11-.281c0 0 .232.017.273.116 0 0-.014.24-.109.281 0 0-.233-.017-.274-.116m1.578-.633s.014-.24.11-.281c0 0 .233.017.274.116 0 0-.014.24-.11.281 0 0-.233-.017-.274-.116m1.557-.658s.013-.24.109-.281c0 0 .233.016.274.116 0 0-.014.239-.11.281 0 0-.232-.017-.273-.116m1.556-.659s.014-.24.11-.281c0 0 .232.017.273.116 0 0-.013.24-.109.281 0 0-.233-.017-.274-.116m1.58-.657s.013-.239.109-.281c0 0 .233.017.274.116 0 0-.014.24-.11.281 0 0-.232-.017-.273-.116m1.556-.658s.014-.24.11-.281c0 0 .232.016.273.116 0 0-.013.239-.109.281 0 0-.233-.017-.274-.116m1.558-.683s.014-.239.109-.281c0 0 .233.017.274.116 0 0-.014.24-.109.281 0 0-.233-.017-.274-.116m1.556-.658s.014-.24.11-.281c0 0 .232.016.274.116 0 0-.014.239-.11.281 0 0-.233-.017-.274-.116m1.58-.657s.014-.24.109-.281c0 0 .233.017.274.116 0 0-.014.24-.109.281 0 0-.233-.017-.274-.116m1.556-.659s.014-.239.11-.281c0 0 .233.017.274.116 0 0-.014.24-.11.281 0 0-.233-.016-.274-.116m1.535-.684s.014-.24.109-.281c0 0 .233.017.274.116 0 0-.014.24-.11.281 0 0-.232-.017-.273-.116m1.579-.657s.014-.239.11-.281c0 0 .233.017.274.116 0 0-.014.24-.11.281 0 0-.233-.016-.274-.116m1.557-.658s.014-.24.109-.281c0 0 .233.017.274.116 0 0-.014.24-.109.281 0 0-.233-.017-.274-.116m1.558-.683s.013-.239.109-.281c0 0 .233.017.274.116 0 0-.014.24-.11.281 0 0-.232-.016-.273-.116m1.557-.682s.014-.24.11-.281c0 0 .233.017.274.116 0 0-.014.24-.11.281 0 0-.233-.017-.274-.116m1.558-.683s.014-.239.11-.281c0 0 .232.017.273.116 0 0-.013.24-.109.281 0 0-.233-.016-.274-.116m1.557-.658s.013-.24.109-.281c0 0 .233.017.274.116 0 0-.014.24-.11.281 0 0-.232-.017-.273-.116M553.386 280.138s.014-.239.133-.279c0 0 .232.017.272.14 0 0-.014.24-.133.279a.206.206 0 0 1-.272-.14m1.574-.56s.014-.24.133-.279c0 0 .232.016.272.139 0 0-.014.24-.133.28a.217.217 0 0 1-.274-.116zm1.598-.583s.014-.24.133-.279c0 0 .233.016.272.139 0 0-.013.24-.132.28a.21.21 0 0 1-.273-.14m1.599-.583s.014-.24.133-.279c0 0 .232.016.272.14 0 0-.014.239-.133.279a.217.217 0 0 1-.274-.116zm1.576-.609s.014-.239.11-.28c0 0 .233.016.272.139 0 0-.013.24-.133.28a.215.215 0 0 1-.273-.116zm1.576-.584s.014-.24.133-.279c0 0 .232.016.272.14 0 0-.014.239-.133.279a.217.217 0 0 1-.274-.116zm1.598-.583s.014-.24.11-.281c0 0 .233.017.272.14 0 0-.014.24-.133.279-.096.041-.232-.017-.272-.14zm1.576-.585s.013-.239.132-.279c0 0 .233.017.273.14 0 0-.014.24-.11.281a.217.217 0 0 1-.274-.116zm1.598-.583s.014-.239.133-.279c0 0 .233.017.274.116 0 0-.014.24-.133.279a.207.207 0 0 1-.273-.139zm1.575-.584s.014-.24.133-.279c0 0 .233.017.274.116 0 0-.014.239-.133.279 0 0-.233-.017-.272-.14zm1.577-.609s.014-.239.134-.303c0 0 .233.017.273.14 0 0-.014.24-.11.281a.216.216 0 0 1-.274-.116zm1.599-.582s.013-.24.109-.281c0 0 .233.016.272.14 0 0-.013.239-.132.279-.096.041-.233-.017-.273-.14zm1.575-.585s.014-.24.133-.279c0 0 .232.017.272.14 0 0-.014.239-.133.279-.096.041-.233-.017-.272-.14m1.575-.585s.014-.239.133-.279c0 0 .233.017.272.14 0 0-.014.24-.109.281 0 0-.233-.017-.274-.116zm1.6-.606s.014-.24.133-.28c0 0 .233.017.274.116 0 0-.014.24-.133.279-.096.042-.233-.016-.273-.139zm1.575-.585s.014-.24.133-.279c0 0 .233.017.272.14 0 0-.013.239-.132.279a.217.217 0 0 1-.274-.116zm1.576-.585s.013-.239.132-.279c0 0 .233.017.273.14 0 0-.014.24-.11.281s-.233-.017-.274-.116zm1.598-.582s.014-.24.11-.281c0 0 .232.016.272.14 0 0-.014.239-.133.279-.096.041-.232-.017-.272-.14zm1.577-.609s.014-.24.133-.279c0 0 .232.017.272.14 0 0-.014.239-.133.279 0 0-.233-.017-.274-.116zm1.575-.584s.014-.24.133-.28c0 0 .233.017.274.116 0 0-.014.24-.133.279-.096.042-.233-.016-.273-.139zm1.575-.585s.014-.24.11-.281c0 0 .233.017.272.14 0 0-.014.24-.133.279a.215.215 0 0 1-.273-.116zm1.599-.583s.014-.24.133-.279c0 0 .232.017.272.14 0 0-.014.239-.11.281-.095.041-.232-.017-.273-.116zm1.577-.608s.013-.24.132-.28c0 0 .233.017.274.116 0 0-.014.24-.133.279-.096.042-.232-.016-.272-.139zm1.575-.585s.014-.24.133-.279c0 0 .232.017.273.116 0 0-.013.239-.109.281-.096.041-.233-.017-.274-.116zm1.6-.607s.013-.239.109-.281c0 0 .233.017.273.14 0 0-.014.24-.133.279-.096.042-.233-.016-.273-.139zm1.575-.584s.014-.24.133-.28c0 0 .232.017.273.116 0 0-.013.24-.132.28-.096.041-.233-.017-.273-.14zm1.575-.585s.014-.24.133-.279c0 0 .233.017.272.14 0 0-.013.239-.132.279-.12.039-.233-.017-.274-.116zm1.599-.583c-.04-.123.014-.239.133-.279 0 0 .232.017.272.14 0 0-.014.239-.11.281-.095.041-.232-.017-.273-.116zm1.576-.608s.014-.24.133-.279c0 0 .233.016.273.139 0 0-.014.24-.133.28 0 0-.233-.017-.274-.116zm1.576-.585s.014-.239.133-.279c0 0 .232.017.272.14 0 0-.014.239-.133.279a.216.216 0 0 1-.274-.116zm1.6-.607s.013-.239.132-.279c0 0 .233.017.273.14 0 0-.014.24-.11.281 0 0-.232-.017-.273-.116zm1.575-.584s.014-.24.11-.281c0 0 .232.017.273.116 0 0-.014.239-.109.281-.096.041-.233-.017-.274-.116m1.6-.607s.014-.24.133-.279c0 0 .232.016.272.14 0 0-.014.239-.133.279a.217.217 0 0 1-.274-.116zm1.575-.585s.014-.239.133-.279c0 0 .233.017.272.14 0 0-.014.24-.133.279a.215.215 0 0 1-.273-.116zm1.6-.607s.014-.239.133-.279c0 0 .232.017.274.116 0 0-.014.24-.11.281a.206.206 0 0 1-.272-.14zm1.575-.584s.014-.24.133-.279c0 0 .233.016.272.14 0 0-.013.239-.109.28a.215.215 0 0 1-.274-.115zm1.6-.607s.014-.24.133-.279c0 0 .233.017.274.116 0 0-.014.239-.11.281a.217.217 0 0 1-.274-.116zm1.575-.584s.014-.24.133-.28c0 0 .233.017.274.116 0 0-.014.24-.11.281a.215.215 0 0 1-.273-.116zm1.6-.607s.014-.24.11-.281c0 0 .233.017.274.116 0 0-.014.239-.11.281a.217.217 0 0 1-.274-.116m1.576-.585s.013-.239.109-.281c0 0 .233.017.274.116 0 0-.014.24-.11.281a.215.215 0 0 1-.273-.116m1.576-.608s.014-.24.11-.281c0 0 .233.016.272.14 0 0-.014.239-.133.279-.095.041-.232-.017-.272-.14zm1.6-.607s.014-.24.11-.281c0 0 .232.017.273.116 0 0-.013.239-.109.281a.217.217 0 0 1-.274-.116M614.163 231.954s.012-.216.109-.282c0 0 .233.017.276.092 0 0 .009.242-.087.283 0 0-.234.008-.298-.093m1.517-.783s.012-.216.11-.281c0 0 .234-.007.275.092 0 0-.014.24-.087.283 0 0-.232-.017-.298-.094m1.494-.784s.012-.216.11-.281c0 0 .234-.008.275.092 0 0 .009.241-.088.307 0 0-.233-.017-.298-.094zm1.517-.783s.013-.216.11-.281c0 0 .234-.007.275.092 0 0-.014.24-.086.283 0 0-.234.007-.299-.094m1.516-.758s.012-.216.11-.281c0 0 .234-.008.275.092 0 0 .009.241-.088.307 0 0-.234.007-.298-.094zm1.494-.784s.012-.216.11-.282c0 0 .234-.007.275.092 0 0 .009.242-.088.307 0 0-.233-.016-.275-.092zm1.517-.783s.013-.216.11-.281c0 0 .234-.007.298.094 0 0 .01.241-.086.283 0 0-.233-.017-.275-.093zm1.516-.758s.012-.216.086-.283c0 0 .234-.008.299.093 0 0 .009.242-.087.283 0 0-.234.008-.275-.092zm1.517-.783s.013-.216.11-.281c0 0 .234-.007.275.092 0 0 .009.242-.086.283 0 0-.235.007-.276-.092zm1.516-.758s.012-.216.11-.282c0 0 .232.017.275.092 0 0 .009.242-.087.283 0 0-.234.008-.275-.092zm1.517-.783s.013-.216.11-.281c0 0 .234-.008.275.092 0 0 .009.241-.086.283 0 0-.233-.017-.276-.092zm1.516-.758s.012-.216.086-.283c0 0 .233.016.276.092 0 0 .009.241-.087.283 0 0-.234.007-.275-.092m1.516-.759s.012-.216.108-.257c0 0 .233.016.275.092 0 0 .01.241-.086.283 0 0-.233-.017-.275-.092zm1.516-.759s.012-.216.109-.281c0 0 .233.017.275.092 0 0 .01.242-.086.283 0 0-.233-.017-.275-.092zm1.515-.758s.013-.216.109-.257c0 0 .234-.008.275.092 0 0-.014.24-.086.283 0 0-.233-.017-.276-.092zm1.54-.757s.012-.216.109-.281c0 0 .233.017.275.092 0 0 .01.242-.086.283 0 0-.233-.017-.275-.092zm1.515-.758s.013-.216.11-.282c0 0 .234-.007.275.092 0 0-.014.24-.086.283 0 0-.234.008-.275-.092zm1.515-.735s.012-.216.109-.281c0 0 .233.016.276.092 0 0-.014.24-.087.283 0 0-.232-.017-.275-.092zm1.539-.757s.012-.216.11-.281c0 0 .234-.007.275.092 0 0-.014.24-.087.283 0 0-.232-.017-.275-.092zm1.516-.758s.012-.216.109-.282c0 0 .233.017.276.092 0 0 .009.242-.087.283 0 0-.234.008-.275-.092zm1.514-.735s.014-.24.11-.281c0 0 .234-.007.275.092 0 0-.014.24-.111.305 0 0-.233-.017-.274-.116m1.539-.757s.013-.216.11-.281c0 0 .234-.007.275.092 0 0-.014.24-.086.283 0 0-.233-.017-.275-.092zm1.515-.734s.012-.216.109-.282c0 0 .233.017.274.117 0 0-.014.24-.11.281 0 0-.234.007-.275-.092zm1.537-.733s.013-.216.11-.281c0 0 .234-.008.275.092 0 0 .01.241-.086.283 0 0-.233-.017-.275-.092zm1.515-.735s.012-.216.11-.281c0 0 .232.017.273.116 0 0-.013.24-.086.283 0 0-.233-.017-.297-.118m1.538-.732s.012-.216.109-.282c0 0 .233.017.275.092 0 0-.013.24-.086.283 0 0-.233-.016-.275-.092zm1.537-.733s.014-.24.11-.282c0 0 .233.017.274.116 0 0-.014.24-.11.282 0 0-.233-.017-.275-.092zm1.538-.733s.012-.216.11-.281c0 0 .232.016.275.092 0 0-.014.24-.087.283 0 0-.232-.017-.275-.093zm1.538-.733s.012-.216.109-.281c0 0 .233.016.276.092 0 0-.014.24-.111.305 0 0-.233-.017-.274-.116m1.514-.735s.013-.216.11-.281c0 0 .233.017.274.116 0 0-.014.24-.11.282 0 0-.234.007-.275-.093zm1.537-.708s.012-.216.109-.282c0 0 .233.017.275.092 0 0-.013.24-.111.306 0 0-.232-.017-.273-.116m1.537-.733s.014-.24.11-.282c0 0 .233.017.274.117 0 0 .009.241-.087.282 0 0-.232-.016-.297-.117m1.537-.709s.012-.216.109-.281c0 0 .233.016.274.116 0 0-.014.24-.111.305 0 0-.233-.017-.274-.116zm1.561-.731s.012-.216.109-.282c0 0 .233.017.297.118 0 0-.014.24-.109.281 0 0-.233-.016-.274-.116zm1.513-.711s.013-.24.109-.281c0 0 .233.017.274.116 0 0-.014.24-.11.281 0 0-.232-.016-.275-.092zm1.559-.707s.013-.216.11-.281c0 0 .233.016.274.116 0 0-.014.24-.11.281 0 0-.233-.017-.274-.116m1.537-.709s.013-.24.109-.281c0 0 .233.017.275.092 0 0-.013.24-.111.305 0 0-.232-.017-.273-.116m1.559-.707s.014-.24.11-.281c0 0 .233.016.274.116 0 0 .009.241-.11.281 0 0-.234.007-.274-.116m1.535-.685s.014-.24.11-.281c0 0 .233.017.274.116 0 0-.014.24-.087.283 0 0-.233-.017-.274-.116zm1.536-.709s.014-.24.11-.281c0 0 .233.017.274.116 0 0-.014.24-.11.281 0 0-.232-.016-.274-.116m1.56-.707s.014-.24.11-.281c0 0 .232.017.274.116 0 0-.014.24-.11.281 0 0-.233-.017-.274-.116m1.535-.685s.014-.24.11-.281c0 0 .232.017.273.116 0 0-.013.24-.109.281 0 0-.233-.016-.274-.116m1.56-.707s.013-.24.109-.281c0 0 .233.016.274.116 0 0-.014.24-.11.281 0 0-.232-.017-.273-.116m1.535-.685s.013-.24.109-.281c0 0 .233.017.274.116 0 0-.014.24-.11.281 0 0-.232-.016-.273-.116m1.558-.683s.014-.24.11-.281c0 0 .232.016.273.116 0 0-.013.24-.109.281 0 0-.233-.017-.274-.116m1.558-.683s.014-.24.11-.281c0 0 .232.016.274.116 0 0-.014.24-.11.281 0 0-.233-.017-.274-.116m1.558-.683s.014-.24.11-.282c0 0 .233.017.274.116 0 0-.014.24-.11.282 0 0-.233-.017-.274-.116m1.559-.684s.013-.24.109-.281c0 0 .233.017.274.116 0 0-.014.24-.11.282 0 0-.232-.017-.273-.117m1.556-.659s.013-.216.11-.281c0 0 .233.017.274.116 0 0-.014.24-.11.281 0 0-.233-.016-.274-.116m1.559-.683s.012-.216.109-.281c0 0 .233.017.274.116 0 0-.014.24-.11.281 0 0-.232-.017-.273-.116m1.557-.659s.012-.216.109-.281c0 0 .233.016.274.116 0 0-.014.24-.11.281 0 0-.232-.017-.273-.116m1.558-.683s.014-.24.109-.282c0 0 .233.017.274.117 0 0-.014.24-.109.281 0 0-.233-.017-.274-.116m1.557-.659s.013-.24.109-.282c0 0 .233.017.274.116 0 0-.014.24-.11.282 0 0-.232-.017-.273-.116m1.556-.66s.014-.24.11-.281c0 0 .233.017.274.116 0 0-.014.24-.11.281 0 0-.232-.016-.274-.116m1.556-.635s.014-.24.11-.281c0 0 .232.017.273.116 0 0-.013.24-.109.281 0 0-.233-.016-.274-.116m1.58-.657s.014-.24.11-.282c0 0 .232.017.273.116 0 0-.013.24-.109.282 0 0-.233-.017-.274-.116M811.243 177.93s-.013.242-.11.283c-.096.042-.234-.017-.275-.117s.014-.241.11-.283c.12-.04.234.017.275.117M811.881 179.551s-.014.242-.11.283c-.097.042-.234-.016-.275-.116 0 0 .013-.242.11-.284.096-.041.234.017.275.117M810.386 176.605a.22.22 0 0 1-.197-.232.21.21 0 0 1 .222-.202.22.22 0 0 1 .198.232.21.21 0 0 1-.223.202M809.997 174.659s-.013.241-.109.282c-.096.042-.233-.017-.275-.116-.039-.124.014-.241.134-.281a.206.206 0 0 1 .272.141zM817.745 192.248s.009.242-.088.308c-.098.065-.235.007-.299-.094 0 0 .013-.241.086-.284.098-.066.235-.007.299.094zM819.418 195.3s.033.245-.065.31c-.097.066-.236.032-.277-.068 0 0 .001-.024-.02-.05a.22.22 0 0 1 .085-.26c.097-.065.236-.031.3.07zM813.217 182.803s-.014.242-.11.283c-.097.042-.234-.016-.276-.116 0 0 .014-.242.111-.284.096-.041.234.017.275.117M818.561 193.785s.009.242-.065.31c-.097.065-.234.007-.3-.07a.3.3 0 0 1 .088-.309c.097-.065.234-.007.275.093zM809.418 173.016s-.014.241-.133.28c-.096.042-.234-.016-.273-.14 0 0 .013-.241.133-.281.119-.04.233.017.273.141M812.53 181.174s-.013.242-.11.283c-.096.042-.234-.016-.298-.118 0 0 .014-.242.11-.283.12-.04.234.016.275.117zM806.857 164.629s-.014.241-.155.255c-.096.042-.21-.015-.25-.139-.015-.146.015-.265.157-.279.119-.039.233.017.248.163M806.421 162.925s-.037.239-.156.279c-.118.016-.21-.015-.25-.139-.015-.146.015-.265.158-.303.118-.015.232.041.272.165zM807.309 166.312s-.013.24-.133.28c-.118.016-.233-.017-.273-.14-.039-.124.014-.241.134-.281a.206.206 0 0 1 .272.141M807.817 167.999s-.013.241-.133.281c-.096.041-.21-.015-.249-.139s.015-.265.133-.28a.207.207 0 0 1 .273.14zM805.272 157.788s-.037.239-.155.255c-.095.017-.209-.039-.227-.137-.015-.147.039-.264.158-.303.117.008.231.065.247.187zM806.018 161.217s-.037.239-.155.255c-.095.017-.21-.015-.25-.139-.015-.146.039-.263.157-.279.118-.015.231.041.271.165zM805.638 159.513s-.037.239-.155.255c-.118.015-.21-.016-.25-.139l.002-.024c-.017-.122.037-.24.155-.255s.231.041.248.163M808.844 171.35s-.014.241-.134.28c-.096.042-.233-.016-.272-.14s.013-.241.133-.281c.119-.04.233.017.273.141M808.322 169.687s-.014.241-.133.28a.207.207 0 0 1-.273-.14c-.04-.124.014-.241.133-.281s.233.017.273.141"/><path fill="#232826" d="M828.105 174.552c-3.694 2.322-8.371 5.057-14.22 8.215-.581.321-1.137.62-1.741.939-.617.149 1.418 3.876 2.172 5.43.565 1.178 1.326 3.434 1.67 3.168.538-.396 1.272-.948 1.787-1.346 6.271-4.797 10.92-9.082 14.383-12.703 3.294-3.125 7.782-9.501 5.869-11.695-.901-1.033.236 2.024-9.922 8.016zm-11.431 15.963s.234-.007.275.093.01.243-.088.308c-.097.066-.234.007-.299-.094 0 0 .014-.241.087-.284zm-.801-1.557s.234-.007.275.092c.065.102.01.243-.086.284-.098.066-.235.008-.276-.092 0 0 .014-.241.087-.284m-.753-1.578s.234-.008.275.092.01.243-.086.284c-.098.066-.235.007-.276-.092 0 0 .014-.241.11-.283zm-.752-1.603s.235-.007.276.093.009.242-.087.284-.234.007-.275-.093c-.042-.099-.01-.242.086-.284m-.729-1.576s.233.017.274.116c.041.1-.014.241-.087.284-.119.04-.233-.017-.297-.118 0 0 .014-.241.11-.282"/><path fill="url(#i)" d="M598.054 274.187c-.43.162-.281.826.189.787 4.565-.42 12.171-.017 13.026 7.126.032.268.04.535.048.801.23 9.466-14.753 19.358-14.753 19.358l10.073-4.252 33.628-14.227s1.477-14.346 9.836-21.767c.936-.826.255-2.422-.973-2.221-9.382 1.571-28.966 5.573-51.097 14.393z"/><path fill="url(#j)" d="M674.468 286.263c-4.031 7.67-22.487 29.059-105.891 44.958 0 0-1.583.291-3.483-4.625-1.877-4.915-.518-5.798-.518-5.798 72.236-44.97 100.168-41.733 108.236-38.785 1.696.605 2.471 2.654 1.632 4.272z"/><path fill="#232826" d="M564.421 320.526c71.608-44.588 99.717-42.009 108.497-38.817a3.3 3.3 0 0 1 1.949 1.944 3.38 3.38 0 0 1-.155 2.773c-4.371 8.317-23.441 29.374-106.089 45.114-.189.034-1.881.173-3.799-4.841-1.918-5.013-.549-6.064-.403-6.173m4.097 10.382c82.389-15.711 101.354-36.559 105.674-44.809a2.7 2.7 0 0 0 .126-2.247 2.73 2.73 0 0 0-1.572-1.58c-8.688-3.161-36.613-5.678-107.979 38.759 0 0-1.104.927.632 5.423s3.144 4.432 3.144 4.432z"/><path fill="#232826" d="M664.186 290.148c-.238.055.429 1.553.724 2.154.209.45 1.415 2.808 1.539 2.696.219-.152 1.4-1.127 1.596-1.282 2.4-1.825 4.305-4.846 4.615-5.789-.815.326-1.582.197-1.875-.018-.337-.266-.474-.759-.517-1.245a90 90 0 0 1-5.429 3.122c-.218.129-.435.234-.653.362M625.585 307.244c.985 2.069 2.084 3.762 2.855 5.046.096-.041 1.425 2.559 1.664 2.48 17.813-6.717 28.994-14.116 35.748-18.957-.946-1.08-1.959-3.488-2.585-4.857-7.28 3.791-18.738 9.03-36.702 15.928-.238.078-.455.183-.693.261zM591.459 319.945c-.332.071 1.037 2.357 1.55 3.234.171.277 1.698 2.67 1.977 2.691.262-.077 24.932-7.089 34.127-10.49-1.658-2.139-3.231-5.375-4.216-7.416-9.177 3.499-19.99 7.381-32.722 11.722l-.715.235zM566.479 328.509s1.646 3.164 2.855 2.87c8.858-2.054 16.937-3.136 24.391-5.173-1.054-1.204-2.53-4.067-3.264-5.583a1431 1431 0 0 1-23.221 7.655l-.762.255zM590.482 318.107c12.489-4.626 23.979-8.946 34.184-12.884l-.101-.294a3207 3207 0 0 1-34.183 12.884zM622.607 298.936l.124.296c16.163-6.421 29.419-11.008 39.385-13.624l-.077-.292c-9.992 2.638-23.247 7.225-39.433 13.644zM564.226 322.86l.149.275c8.079-4.646 16.543-9.478 23.683-13.234l-.149-.276c-7.14 3.757-15.604 8.589-23.683 13.235M590.003 317.177s.009-.167.081-.209c0 0 .164.012.183.085 0 0-.009.167-.08.185-.073.043-.164-.012-.206-.087zm1.122-.418s.009-.166.081-.185c0 0 .163.013.182.086 0 0-.009.166-.082.209a.19.19 0 0 1-.205-.087zm1.123-.417s.009-.166.081-.209c0 0 .163.013.183.086 0 0-.009.166-.081.185-.072.042-.163-.012-.205-.087zm1.122-.417s.009-.166.082-.209c0 0 .163.013.182.086 0 0-.009.166-.082.209-.072.042-.163-.013-.205-.088zm1.122-.417s.009-.167.082-.209c0 0 .163.012.182.086 0 0-.009.166-.081.208-.073.043-.163-.012-.206-.087zm1.123-.417s.009-.167.081-.209c0 0 .163.012.183.085 0 0-.009.167-.082.209a.19.19 0 0 1-.206-.087zm1.122-.417s.009-.167.082-.209c0 0 .163.012.182.085 0 0-.009.167-.081.209s-.164-.012-.206-.087zm1.122-.418s.01-.166.082-.208c0 0 .163.012.183.085 0 0-.01.167-.082.209 0 0-.163-.012-.206-.087zm1.123-.417s.009-.166.081-.209c0 0 .164.013.183.086 0 0-.009.166-.08.185a.19.19 0 0 1-.206-.087zm1.122-.417s.009-.166.081-.185c0 0 .163.012.182.085 0 0-.009.167-.082.209a.19.19 0 0 1-.205-.087zm1.123-.417s.009-.167.081-.209c0 0 .163.012.206.087 0 0-.009.167-.082.209-.072.042-.163-.012-.205-.087m1.122-.417s.009-.167.082-.209c0 0 .163.012.182.085 0 0-.009.167-.08.185a.19.19 0 0 1-.206-.087zm1.122-.417s.009-.167.082-.209c0 0 .163.012.182.085 0 0-.009.167-.08.185-.072.043-.163-.012-.206-.087zm1.123-.418s.009-.166.081-.208c0 0 .163.012.206.087 0 0-.009.166-.082.209a.19.19 0 0 1-.205-.088m1.122-.417s.009-.166.082-.209c0 0 .163.013.206.088 0 0-.01.166-.082.208 0 0-.163-.012-.206-.087m1.124-.441s.009-.166.08-.185c0 0 .163.013.206.087 0 0-.009.167-.082.209-.072.043-.163-.012-.206-.087zm1.122-.417s.009-.166.082-.209c0 0 .163.013.206.087 0 0-.01.167-.081.185-.072.043-.163-.012-.206-.087zm1.123-.417s.009-.167.081-.209c0 0 .163.012.206.087 0 0-.009.167-.082.209-.072.042-.163-.012-.205-.087m1.122-.417s.009-.167.082-.209c0 0 .163.012.205.087 0 0-.009.167-.081.209 0 0-.163-.012-.206-.087m1.1-.443s.009-.166.082-.209c0 0 .163.013.206.087 0 0-.009.167-.082.209-.072.043-.163-.012-.206-.087m1.123-.417s.009-.167.081-.209c0 0 .163.012.206.087 0 0-.009.167-.08.185-.071.019-.163-.012-.183-.085zm1.122-.417s.009-.167.082-.209c0 0 .163.012.205.087 0 0-.009.167-.081.209s-.163-.012-.206-.087m1.124-.441s.009-.167.081-.209c0 0 .163.012.206.087 0 0-.009.167-.081.209 0 0-.164-.012-.206-.087m1.122-.417s.009-.167.081-.185c0 0 .163.012.205.087 0 0-.009.166-.08.185-.073.042-.163-.013-.206-.087m1.123-.418s.009-.166.081-.208c0 0 .163.012.206.087 0 0-.009.166-.082.209-.072.042-.163-.013-.205-.088m1.123-.44s.009-.167.082-.209c0 0 .163.012.206.087 0 0-.01.166-.082.209s-.163-.013-.206-.087m1.123-.418s.009-.166.081-.208c0 0 .163.012.206.087 0 0-.009.166-.082.208-.072.043-.163-.012-.205-.087m1.123-.441s.009-.166.082-.208c0 0 .163.012.206.087 0 0-.009.166-.082.208-.072.043-.163-.012-.206-.087m1.099-.419s.01-.166.082-.208c0 0 .163.012.206.087 0 0-.009.166-.082.209-.072.042-.163-.013-.206-.088m1.124-.441s.009-.166.08-.185c0 0 .163.013.206.088 0 0-.009.166-.081.208a.19.19 0 0 1-.206-.087zm1.122-.417s.01-.166.082-.209c0 0 .163.013.206.088 0 0-.009.166-.082.208 0 0-.163-.012-.206-.087M622.469 298.199s.009-.167.081-.185c0 0 .163.012.182.085 0 0-.009.166-.082.209 0 0-.163-.012-.205-.087zm1.1-.443s.01-.166.082-.208c0 0 .163.012.206.087 0 0-.009.166-.082.208a.19.19 0 0 1-.206-.087m1.124-.44s.009-.166.082-.209c0 0 .163.013.205.087 0 0-.009.167-.081.209 0 0-.163-.012-.206-.087m1.123-.441s.009-.166.082-.208c0 0 .163.012.182.085 0 0-.009.166-.081.209s-.163-.013-.206-.087zm1.1-.442s.01-.166.082-.208c0 0 .163.012.206.087 0 0-.009.166-.082.208-.072.043-.163-.012-.206-.087m1.123-.417s.009-.166.081-.208c0 0 .163.012.206.087 0 0-.009.166-.082.209-.072.042-.163-.013-.205-.088m1.123-.44s.009-.166.08-.185c0 0 .163.012.206.087 0 0-.009.166-.082.209-.072.042-.163-.012-.205-.087zm1.122-.417s.009-.166.082-.208c0 0 .163.012.205.087 0 0-.009.166-.081.208-.073.043-.163-.012-.206-.087m1.122-.417s.009-.166.082-.208c0 0 .163.012.206.087 0 0-.01.166-.081.185 0 0-.163-.012-.182-.086zm1.124-.44s.009-.166.081-.209c0 0 .163.013.206.087 0 0-.009.167-.082.209-.072.042-.163-.012-.205-.087m1.122-.417s.009-.166.081-.208c0 0 .164.012.183.085 0 0-.009.166-.082.209-.072.042-.163-.013-.205-.088zm1.099-.418s.009-.167.08-.185c0 0 .163.012.206.087 0 0-.009.166-.082.209-.072.042-.163-.013-.206-.087zm1.145-.415s.009-.167.082-.209c0 0 .163.012.205.087 0 0-.009.167-.081.209a.19.19 0 0 1-.206-.087m1.122-.417s.009-.166.082-.209c0 0 .163.013.182.086 0 0-.009.166-.081.208-.073.043-.163-.012-.206-.087zm1.122-.417s.009-.166.082-.208c0 0 .163.012.182.085 0 0-.009.166-.08.185s-.163-.012-.182-.085zm1.121-.393s.009-.166.082-.208c0 0 .163.012.182.085 0 0-.009.166-.08.185s-.163-.012-.183-.085zm1.122-.416s.009-.167.082-.209c0 0 .163.012.182.085 0 0-.009.167-.08.185 0 0-.163-.012-.182-.085zm1.144-.392s.01-.166.082-.208c0 0 .163.012.182.085 0 0-.009.166-.08.185s-.163-.012-.182-.085zm1.121-.393s.009-.166.082-.208c0 0 .163.012.206.087 0 0-.01.166-.081.185s-.163-.013-.182-.086zm1.144-.391s.009-.166.082-.208c0 0 .163.012.182.085 0 0-.009.166-.08.185s-.163-.013-.182-.086zm1.121-.393s.009-.166.082-.208c0 0 .163.012.182.085 0 0-.009.166-.08.185s-.163-.013-.183-.086zm1.121-.393s.009-.166.082-.208c0 0 .163.012.182.085 0 0-.009.166-.08.185s-.163-.013-.183-.086zm1.144-.391s.009-.166.082-.209c0 0 .163.013.182.086 0 0-.009.166-.08.184-.071.019-.163-.012-.183-.085zm1.143-.367s.009-.167.081-.209c0 0 .164.012.183.085 0 0-.009.167-.105.207-.071.019-.163-.012-.182-.085zm1.143-.368s.009-.166.105-.207c0 0 .163.012.181.109 0 0-.009.167-.081.185-.071.019-.163-.012-.182-.085zm1.119-.369s.009-.167.105-.207c0 0 .163.012.183.085 0 0-.01.167-.081.185-.071.019-.163-.012-.182-.085zm1.143-.368s.009-.166.105-.206c0 0 .163.012.182.085 0 0-.009.166-.105.207-.071.018-.163-.013-.182-.086m1.143-.367s.009-.166.105-.207c0 0 .163.012.181.109 0 0-.009.166-.104.183-.071.019-.163-.012-.182-.085m1.165-.342s.009-.166.104-.207c0 0 .164.012.182.109 0 0-.01.166-.105.207-.072.018-.163-.012-.183-.085zm1.142-.368s.01-.166.105-.206c0 0 .163.012.181.109 0 0-.009.166-.103.183 0 0-.163-.012-.183-.086m1.142-.343s.009-.167.105-.207c0 0 .163.012.181.109 0 0-.009.166-.104.183-.071.019-.163-.012-.182-.085m1.14-.32s.009-.166.105-.207c0 0 .163.012.181.109 0 0-.009.166-.104.183-.071.019-.163-.012-.182-.085m1.165-.342s.01-.19.105-.207c0 0 .163.012.181.109 0 0-.009.166-.104.183-.07-.005-.163-.012-.182-.085m1.14-.32s.01-.19.105-.207c0 0 .163.012.181.109 0 0-.009.166-.104.183 0 0-.163-.012-.181-.109zm1.164-.318s.01-.19.104-.207c0 0 .163.012.182.109 0 0-.01.166-.104.183-.07-.005-.163-.012-.182-.085M564.756 321.855s.008-.144.058-.188c0 0 .164-.011.207.064 0 0 .014.169-.058.211 0 0-.165.012-.208-.063zm1.042-.618s.007-.143.057-.187c0 0 .164-.012.207.063 0 0 .014.169-.058.212 0 0-.165.012-.208-.064zm1.039-.593s.008-.143.058-.188c0 0 .163.013.207.064 0 0 .014.169-.058.211 0 0-.165.012-.208-.063zm1.042-.617s.007-.144.057-.188c0 0 .164-.012.207.064 0 0 .014.169-.058.211 0 0-.165.012-.208-.064zm1.04-.594s.007-.143.057-.188c0 0 .164-.011.207.064 0 0-.009.167-.058.212 0 0-.165.011-.208-.064zm1.041-.617s.008-.144.057-.188c0 0 .164-.011.207.064 0 0-.009.167-.058.211 0 0-.164-.012-.208-.063zm1.04-.594s.007-.143.057-.187c0 0 .164-.012.207.063 0 0 .014.169-.058.212 0 0-.165.011-.208-.064zm1.063-.591s.008-.144.057-.188c0 0 .164-.012.207.064 0 0 .014.169-.058.211 0 0-.164-.012-.208-.063zm1.041-.618s.008-.143.057-.187c0 0 .165-.012.207.063 0 0 .015.169-.058.212 0 0-.165.011-.207-.064zm1.04-.593s.008-.144.057-.188c0 0 .163.012.207.064 0 0 .014.169-.058.211 0 0-.165.012-.208-.063zm1.04-.594s.007-.143.08-.186c0 0 .165-.011.207.064 0 0 .015.169-.058.212 0 0-.165.011-.207-.064zm1.039-.593s.008-.143.058-.188c0 0 .164-.011.207.064 0 0 .014.169-.058.211 0 0-.165.012-.208-.063zm1.064-.592s.008-.143.057-.187c0 0 .164-.012.207.063 0 0-.009.167-.058.212 0 0-.165.011-.208-.064zm1.04-.593s.007-.144.057-.188c0 0 .163.012.207.064 0 0-.009.167-.058.211 0 0-.164-.012-.208-.063zm1.039-.594s.008-.143.058-.187c0 0 .163.012.207.063 0 0-.009.168-.059.212 0 0-.163-.013-.207-.064zm1.062-.568s.008-.143.081-.185c0 0 .164-.012.207.063 0 0-.009.168-.058.212 0 0-.165.011-.208-.064zm1.04-.593s.008-.143.057-.188c0 0 .165-.011.208.064 0 0 .014.169-.059.212 0 0-.163-.013-.207-.064zm1.063-.592s.008-.143.057-.187c0 0 .164.012.208.063 0 0-.009.168-.059.212 0 0-.163-.012-.207-.064zm1.039-.569s.009-.168.057-.188c0 0 .163.012.207.064 0 0 .015.169-.058.211 0 0-.163-.012-.207-.063zm1.062-.568s.009-.167.057-.188c0 0 .163.013.207.064 0 0 .014.169-.058.212 0 0-.164-.013-.208-.064zm1.062-.568s.007-.143.057-.187c0 0 .163.012.207.063 0 0-.009.167-.058.212 0 0-.164-.013-.208-.064zm1.063-.592s.009-.167.057-.187c0 0 .163.012.207.063 0 0-.009.168-.058.212 0 0-.165.012-.207-.064zm1.038-.569s.008-.143.058-.188c0 0 .163.013.207.064 0 0-.009.167-.059.211 0 0-.163-.012-.207-.063z"/><path fill="#232826" d="M623.669 302.853c2.738 7.179 6.4 12.197 6.443 12.273l.245-.176s-8.219-11.314-9.267-24.23l-.308.026c.346 4.361 1.507 8.517 2.886 12.131zM662.751 287.352c1.708 4.486 3.627 7.728 3.648 7.778l.268-.15s-4.31-7.343-5.787-15.106l-.287.051c.491 2.628 1.315 5.184 2.18 7.452zM589.705 316.735c2.101 5.485 5.005 9.26 5.049 9.312l.248-.2s-6.534-8.525-7.065-18.447l-.305-.023c.165 3.38 1.025 6.568 2.074 9.334z"/><path fill="#232826" d="m596.433 302.008.321.531c.657-.436 15.989-10.69 14.817-20.466-.886-7.41-8.751-7.808-13.362-7.392 0 0-.07-.005-.089-.078.003-.049.005-.097.053-.117 21.964-8.761 41.407-12.748 51.026-14.375.496-.085.831.205.976.53a.96.96 0 0 1-.229 1.143c-8.358 7.397-9.932 21.808-9.941 21.953l.606.044s1.545-14.293 9.729-21.533c.542-.469.68-1.232.389-1.881-.29-.65-.927-.986-1.612-.866-9.642 1.625-29.134 5.633-51.145 14.414-.335.121-.495.472-.423.84a.69.69 0 0 0 .741.561c4.4-.408 11.869-.063 12.714 6.837 1.125 9.386-14.402 19.77-14.549 19.881z"/><path fill="#232826" d="m623.183 289.748.317.022c.009-.145.215-14.252 1.745-24.646l-.318-.022c-1.529 10.394-1.736 24.501-1.744 24.646M622.127 290.215l.003-.048s.083-.164.156-.159c0 0 .167.084.163.157 0 0-.058.142-.157.159a.17.17 0 0 1-.141-.107zm.025-1.238.004-.072s.082-.14.157-.159c0 0 .167.084.162.157 0 0-.082.14-.156.159-.074-.005-.121-.033-.141-.107zm.051-1.26.003-.048s.083-.165.156-.16c0 0 .143.083.163.157 0 0-.084.165-.157.16s-.121-.033-.141-.107zm.026-1.262.003-.048s.084-.165.157-.16c0 0 .167.085.138.156 0 0-.084.164-.157.159s-.121-.033-.141-.107m.05-1.236.004-.073s.084-.164.157-.159c0 0 .167.084.162.157 0 0-.082.14-.156.159a.16.16 0 0 1-.141-.107zm.051-1.26.004-.073s.082-.14.155-.135c0 0 .143.083.163.157 0 0-.082.14-.156.135-.073-.005-.12-.033-.14-.107zm.049-1.237.004-.072s.083-.14.18-.134c0 0 .143.083.138.156 0 0-.082.14-.155.135s-.121-.033-.141-.107zm.076-1.258.004-.073s.082-.14.157-.159c0 0 .142.083.138.155 0 0-.082.14-.157.159a.17.17 0 0 1-.141-.106zm.049-1.236.004-.073s.082-.14.156-.135c0 0 .142.083.162.157 0 0-.082.14-.18.133a.17.17 0 0 1-.14-.107zm.075-1.259.005-.073s.082-.14.155-.135c0 0 .143.083.163.157 0 0-.084.165-.182.158a.17.17 0 0 1-.141-.107m.1-1.257.005-.073s.082-.14.155-.135c0 0 .143.083.138.156 0 0-.082.14-.155.135a.17.17 0 0 1-.141-.107zm.074-1.235.005-.072s.082-.14.155-.135c0 0 .143.082.137.179 0 0-.082.14-.18.134-.074-.005-.121-.033-.141-.107zm.1-1.257.005-.072s.082-.14.179-.134c0 0 .143.083.139.156 0 0-.083.14-.18.133a.17.17 0 0 1-.141-.107zm.099-1.232.004-.073s.082-.14.18-.133c0 0 .142.082.137.179 0 0-.083.14-.156.135a.17.17 0 0 1-.141-.107zm.099-1.257.005-.073s.082-.14.18-.133c0 0 .142.082.136.179 0 0-.082.14-.155.135a.17.17 0 0 1-.141-.107zm.123-1.231.005-.073s.082-.14.18-.133c0 0 .142.082.136.179 0 0-.082.14-.18.134a.17.17 0 0 1-.141-.107m.125-1.256.004-.072s.082-.14.18-.134c0 0 .142.083.137.18 0 0-.082.14-.18.133-.074-.005-.095-.055-.117-.105zm.149-1.253.004-.073s.082-.14.18-.133c0 0 .142.082.136.179 0 0-.082.14-.18.134a.17.17 0 0 1-.14-.107m.122-1.231.005-.073s.082-.14.18-.133c0 0 .142.082.136.179 0 0-.082.14-.18.134-.049-.004-.095-.056-.116-.106zm.172-1.228.005-.073s.082-.14.179-.133c0 0 .143.083.137.179 0 0-.082.141-.18.134-.049-.004-.095-.055-.116-.105z"/><path fill="#232826" d="M623.749 280.302s10.191-3.849 13.701-4.412c3.37-.55 3.909 1.455 3.926 1.552l.285-.075s-.587-2.368-4.264-1.769c-3.534.562-13.653 4.392-13.749 4.433l.1.295z"/><path fill="#232826" d="M624.304 281.026s.01-.167.082-.21c0 0 .163.012.205.087 0 0-.009.167-.082.21-.071.018-.162-.012-.182-.085zm1.12-.399s.01-.167.082-.21c0 0 .163.012.182.085 0 0-.009.167-.08.186a.19.19 0 0 1-.206-.087zm1.122-.423s.01-.167.082-.21c0 0 .163.012.205.087 0 0-.009.167-.081.186-.071.019-.162-.012-.181-.085zm1.143-.397s.01-.168.082-.21c0 0 .163.011.182.085 0 0-.009.167-.08.186s-.163-.012-.182-.085zm1.121-.4s.009-.167.082-.209c0 0 .162.011.181.085 0 0-.009.167-.08.186s-.163-.012-.182-.085zm1.142-.373s.009-.167.105-.208c0 0 .163.011.18.109 0 0-.009.167-.08.186s-.163-.012-.182-.085zm1.143-.397s.01-.168.082-.21c0 0 .163.011.181.108 0 0-.01.168-.104.185 0 0-.163-.012-.182-.085zm1.142-.374s.01-.167.082-.21c0 0 .163.012.204.111 0 0-.01.167-.104.184-.071.019-.163-.012-.182-.085m1.141-.35s.009-.167.105-.208c0 0 .163.012.181.109 0 0-.01.167-.104.184-.072.019-.163-.011-.182-.085m1.162-.324s.011-.191.106-.208c0 0 .162.012.18.109 0 0-.01.167-.104.184-.071.019-.139-.01-.182-.085m1.161-.3s.035-.189.106-.208c0 0 .163.011.18.109 0 0-.033.165-.104.184s-.139-.01-.182-.085m1.182-.251s.034-.189.129-.206c0 0 .161.035.179.132 0 0-.033.166-.127.183-.07-.005-.14-.01-.158-.107zm1.173-.108.003-.047s.08-.162.149-.157c0 0 .16.059.155.154 0 0-.055.14-.149.158-.07-.005-.115-.033-.134-.106zm1.204.182.005-.095s.102-.137.193-.106c0 0 .134.105.105.199 0 0-.101.137-.192.106-.047-.003-.091-.054-.111-.104m1.042.554s-.017-.121.009-.167c0 0 .144-.061.211-.008 0 0 .062.148.011.216 0 0-.144.062-.211.009l-.043-.051zm.687 1.032s.035-.189.106-.208c0 0 .161.036.179.133 0 0-.01.167-.104.184-.07-.005-.14-.01-.181-.109M610.436 279.946s.009-.167.057-.188c0 0 .165-.012.207.063 0 0-.01.168-.059.212 0 0-.164.013-.207-.063zm1.058-.525s.01-.168.081-.187c0 0 .163.012.205.087 0 0-.01.168-.082.211 0 0-.163-.012-.207-.063zm1.103-.498s.01-.168.081-.187c0 0 .163.012.205.087 0 0-.009.168-.082.211 0 0-.163-.012-.205-.087zm1.102-.475s.01-.168.082-.21c0 0 .163.011.206.087 0 0-.01.167-.083.21 0 0-.162-.011-.205-.087m1.124-.448s.01-.168.082-.211c0 0 .163.012.205.087 0 0-.009.168-.082.211-.072.042-.163-.012-.205-.087m1.122-.425s.01-.168.083-.211c0 0 .162.012.182.085 0 0-.01.168-.083.211-.072.043-.163-.012-.205-.087zm1.123-.425s.009-.168.081-.187c0 0 .162.012.182.086 0 0-.01.168-.081.186-.071.019-.163-.011-.182-.085m1.121-.401s.009-.167.082-.21c0 0 .163.011.182.085 0 0-.01.168-.082.211-.071.019-.163-.012-.182-.086m1.144-.399s.01-.167.082-.21c0 0 .163.011.182.085 0 0-.009.168-.081.187-.071.019-.162-.012-.182-.086zm1.121-.4s.01-.168.082-.211c0 0 .163.012.182.085 0 0-.009.168-.105.209-.071.019-.163-.011-.182-.085zm1.143-.375s.011-.192.106-.209c0 0 .162.011.18.109 0 0-.009.168-.104.185-.071.019-.163-.012-.182-.085M610.215 278.706l.124.273c.626-.315 2.356-1.154 5.27-2.268 3.772-1.413 8.486-2.951 8.534-2.971l-.1-.296s-4.785 1.557-8.557 2.97c-2.913 1.09-4.668 1.95-5.293 2.266zM650.406 218.44c-2.047-5.642 18.793-18.993 46.546-29.821s51.91-15.032 53.957-9.391c2.046 5.641-18.793 18.992-46.546 29.82s-51.911 15.033-53.957 9.392"/><path fill="#A34023" d="M657.753 212.227c-1.937-5.684 17.582-18 43.595-27.51s48.671-12.611 50.607-6.927-17.582 18.001-43.595 27.511c-26.014 9.509-48.671 12.61-50.607 6.926"/><path fill="#CB5F32" d="M658.526 211.227c-1.862-5.466 17.247-17.435 42.68-26.734 25.434-9.298 47.561-12.404 49.423-6.938s-17.247 17.436-42.68 26.734c-25.434 9.298-47.561 12.405-49.423 6.938"/><path stroke="#232826" stroke-miterlimit="10" stroke-width=".794" d="M657.752 212.228c-1.936-5.684 17.583-18 43.596-27.51 26.014-9.51 48.671-12.611 50.607-6.928s-17.582 18.001-43.595 27.511c-26.014 9.51-48.671 12.611-50.608 6.927Z"/><path stroke="#232826" stroke-miterlimit="10" stroke-width=".794" d="M658.527 211.228c-1.862-5.466 17.247-17.435 42.68-26.734 25.434-9.298 47.561-12.405 49.423-6.938s-17.247 17.435-42.68 26.733c-25.434 9.299-47.561 12.405-49.423 6.939Z"/><mask id="k" width="290" height="149" x="541" y="64" maskUnits="userSpaceOnUse" style="mask-type:luminance"><path fill="#fff" d="M751.122 177.442c1.853 5.319-17.298 16.984-42.783 26.071-25.484 9.062-47.66 12.106-49.514 6.786-1.151-3.252-123.153-58.848-117.001-99.81 12.545-83.73 275.122-26.909 285.001-30.427 25.485-9.087-77.557 92.06-75.703 97.38"/></mask><g mask="url(#k)"><path stroke="#B9AC94" stroke-miterlimit="10" stroke-width="2.229" d="M688.156 218.988c-34.439-2.615-60.801-33.36-58.882-68.67s31.394-61.814 65.832-59.2c34.439 2.616 60.801 33.36 58.882 68.67s-31.394 61.814-65.832 59.2Z"/><path fill="#fff" d="M663.948 105.933c-21.828 10.726-33.276 38.678-25.532 62.438-.5-3.017-.881-6.024-.977-9.058-1.167-21.205 9.361-41.865 26.51-53.404zM746.696 158.728c2.747-19.209-7.142-40.223-23.607-50.249a67.94 67.94 0 0 1 23.607 50.249"/><path fill="url(#l)" d="M688.156 218.988c-34.439-2.615-60.801-33.36-58.882-68.67s31.394-61.814 65.832-59.2c34.439 2.616 60.801 33.36 58.882 68.67s-31.394 61.814-65.832 59.2"/><g clip-path="url(#m)"><path fill="url(#n)" d="m705.329 169.477-7.123 11.603 10.706-26.91 7.123-11.603z"/><path fill="url(#o)" d="m650.008 111.328 62.133 27.146-10.706 26.91-31.57 4.982z"/><path fill="url(#p)" d="m701.437 165.381-7.124 11.604-31.567 4.987 7.121-11.609z"/><path fill="url(#q)" d="m669.868 170.366-7.121 11.609-19.859-59.043 7.123-11.603z"/><path fill="url(#r)" d="m716.033 142.565 19.865 59.041-62.14-27.149 31.569-4.982z"/><path fill="url(#s)" d="m735.9 201.61-7.123 11.603-62.138-27.143 7.121-11.609z"/></g></g><defs><linearGradient id="b" x1="6.754" x2="544.116" y1="427.103" y2="240.826" gradientUnits="userSpaceOnUse"><stop stop-color="#7E4033" stop-opacity="0"/><stop offset="1" stop-color="#E4735D"/></linearGradient><linearGradient id="c" x1="31.155" x2="568.517" y1="523.053" y2="336.776" gradientUnits="userSpaceOnUse"><stop stop-color="#7E4033" stop-opacity="0"/><stop offset="1" stop-color="#E4735D"/></linearGradient><linearGradient id="d" x1="24.633" x2="561.995" y1="472.784" y2="286.507" gradientUnits="userSpaceOnUse"><stop stop-color="#7E4033" stop-opacity="0"/><stop offset="1" stop-color="#E4735D"/></linearGradient><linearGradient id="e" x1="633.834" x2="582.278" y1="233.052" y2="230.096" gradientUnits="userSpaceOnUse"><stop offset=".04" stop-color="#BEF5EB"/><stop offset=".12" stop-color="#8FE6EF"/><stop offset=".22" stop-color="#5CD7F4"/><stop offset=".31" stop-color="#34CBF8"/><stop offset=".4" stop-color="#17C3FB"/><stop offset=".47" stop-color="#06BDFD"/><stop offset=".52" stop-color="#00BCFE"/><stop offset=".72" stop-color="#0F85D4"/><stop offset="1" stop-color="#263495"/></linearGradient><linearGradient id="f" x1="634.28" x2="541.43" y1="219.163" y2="214.078" gradientUnits="userSpaceOnUse"><stop offset=".04" stop-color="#BEF5EB"/><stop offset=".12" stop-color="#8FE6EF"/><stop offset=".22" stop-color="#5CD7F4"/><stop offset=".31" stop-color="#34CBF8"/><stop offset=".4" stop-color="#17C3FB"/><stop offset=".47" stop-color="#06BDFD"/><stop offset=".52" stop-color="#00BCFE"/><stop offset=".72" stop-color="#0F85D4"/><stop offset="1" stop-color="#263495"/></linearGradient><linearGradient id="g" x1="634.16" x2="541.572" y1="217.133" y2="212.058" gradientUnits="userSpaceOnUse"><stop offset=".04" stop-color="#BEF5EB"/><stop offset=".12" stop-color="#8FE6EF"/><stop offset=".22" stop-color="#5CD7F4"/><stop offset=".31" stop-color="#34CBF8"/><stop offset=".4" stop-color="#17C3FB"/><stop offset=".47" stop-color="#06BDFD"/><stop offset=".52" stop-color="#00BCFE"/><stop offset=".72" stop-color="#0F85D4"/><stop offset="1" stop-color="#263495"/></linearGradient><linearGradient id="h" x1="835.889" x2="553.292" y1="235.171" y2="218.435" gradientUnits="userSpaceOnUse"><stop offset=".04" stop-color="#BEF5EB"/><stop offset=".08" stop-color="#C7D3E1"/><stop offset=".47" stop-color="#ED4F35"/><stop offset="1" stop-color="#BEF5EB"/></linearGradient><linearGradient id="i" x1="649.3" x2="597.513" y1="282.933" y2="279.967" gradientUnits="userSpaceOnUse"><stop offset=".04" stop-color="#BEF5EB"/><stop offset=".12" stop-color="#8FE6EF"/><stop offset=".22" stop-color="#5CD7F4"/><stop offset=".31" stop-color="#34CBF8"/><stop offset=".4" stop-color="#17C3FB"/><stop offset=".47" stop-color="#06BDFD"/><stop offset=".52" stop-color="#00BCFE"/><stop offset=".72" stop-color="#0F85D4"/><stop offset="1" stop-color="#263495"/></linearGradient><linearGradient id="j" x1="673.394" x2="565.141" y1="310.063" y2="304.007" gradientUnits="userSpaceOnUse"><stop offset=".04" stop-color="#BEF5EB"/><stop offset=".12" stop-color="#8FE6EF"/><stop offset=".22" stop-color="#5CD7F4"/><stop offset=".31" stop-color="#34CBF8"/><stop offset=".4" stop-color="#17C3FB"/><stop offset=".47" stop-color="#06BDFD"/><stop offset=".52" stop-color="#00BCFE"/><stop offset=".72" stop-color="#0F85D4"/><stop offset="1" stop-color="#263495"/></linearGradient><linearGradient id="l" x1="706.106" x2="673.75" y1="97.166" y2="220.437" gradientUnits="userSpaceOnUse"><stop stop-color="#EFDC8D"/><stop offset=".07" stop-color="#EFDC8D" stop-opacity=".672"/><stop offset=".17" stop-color="#EFDC8D" stop-opacity=".36"/><stop offset=".27" stop-color="#EFDC8D" stop-opacity=".176"/><stop offset=".38" stop-color="#EFDC8D" stop-opacity=".073"/><stop offset=".48" stop-color="#EFDC8D" stop-opacity=".022"/><stop offset=".58" stop-color="#EFDC8D" stop-opacity=".01"/><stop offset=".68" stop-color="#EFDC8D" stop-opacity=".01"/><stop offset=".78" stop-color="#EFDC8D" stop-opacity="0"/></linearGradient><linearGradient id="n" x1="692.512" x2="722.59" y1="172.837" y2="152.054" gradientUnits="userSpaceOnUse"><stop offset=".04" stop-color="#BEF5EB"/><stop offset=".12" stop-color="#8FE6EF"/><stop offset=".22" stop-color="#5CD7F4"/><stop offset=".31" stop-color="#34CBF8"/><stop offset=".4" stop-color="#17C3FB"/><stop offset=".47" stop-color="#06BDFD"/><stop offset=".52" stop-color="#00BCFE"/><stop offset=".72" stop-color="#0F85D4"/><stop offset="1" stop-color="#263495"/></linearGradient><linearGradient id="o" x1="657.322" x2="700.854" y1="152.216" y2="122.137" gradientUnits="userSpaceOnUse"><stop offset=".04" stop-color="#BEF5EB"/><stop offset=".12" stop-color="#8FE6EF"/><stop offset=".22" stop-color="#5CD7F4"/><stop offset=".31" stop-color="#34CBF8"/><stop offset=".4" stop-color="#17C3FB"/><stop offset=".47" stop-color="#06BDFD"/><stop offset=".52" stop-color="#00BCFE"/><stop offset=".72" stop-color="#0F85D4"/><stop offset="1" stop-color="#263495"/></linearGradient><linearGradient id="p" x1="665.604" x2="699.55" y1="186.1" y2="162.645" gradientUnits="userSpaceOnUse"><stop offset=".04" stop-color="#BEF5EB"/><stop offset=".12" stop-color="#8FE6EF"/><stop offset=".22" stop-color="#5CD7F4"/><stop offset=".31" stop-color="#34CBF8"/><stop offset=".4" stop-color="#17C3FB"/><stop offset=".47" stop-color="#06BDFD"/><stop offset=".52" stop-color="#00BCFE"/><stop offset=".72" stop-color="#0F85D4"/><stop offset="1" stop-color="#263495"/></linearGradient><linearGradient id="q" x1="644.518" x2="668.931" y1="155.584" y2="138.715" gradientUnits="userSpaceOnUse"><stop offset=".04" stop-color="#BEF5EB"/><stop offset=".12" stop-color="#8FE6EF"/><stop offset=".22" stop-color="#5CD7F4"/><stop offset=".31" stop-color="#34CBF8"/><stop offset=".4" stop-color="#17C3FB"/><stop offset=".47" stop-color="#06BDFD"/><stop offset=".52" stop-color="#00BCFE"/><stop offset=".72" stop-color="#0F85D4"/><stop offset="1" stop-color="#263495"/></linearGradient><linearGradient id="r" x1="690.556" x2="679.083" y1="198.765" y2="206.692" gradientUnits="userSpaceOnUse"><stop offset=".04" stop-color="#BEF5EB"/><stop offset=".12" stop-color="#8FE6EF"/><stop offset=".22" stop-color="#5CD7F4"/><stop offset=".31" stop-color="#34CBF8"/><stop offset=".4" stop-color="#17C3FB"/><stop offset=".47" stop-color="#06BDFD"/><stop offset=".52" stop-color="#00BCFE"/><stop offset=".72" stop-color="#0F85D4"/><stop offset="1" stop-color="#263495"/></linearGradient><linearGradient id="s" x1="682.027" x2="721.637" y1="208.336" y2="180.967" gradientUnits="userSpaceOnUse"><stop offset=".04" stop-color="#BEF5EB"/><stop offset=".12" stop-color="#8FE6EF"/><stop offset=".22" stop-color="#5CD7F4"/><stop offset=".31" stop-color="#34CBF8"/><stop offset=".4" stop-color="#17C3FB"/><stop offset=".47" stop-color="#06BDFD"/><stop offset=".52" stop-color="#00BCFE"/><stop offset=".72" stop-color="#0F85D4"/><stop offset="1" stop-color="#263495"/></linearGradient><clipPath id="a"><path fill="#fff" d="m18.983 194.318 553.998 39.876-18.886 329.18L.098 523.498z"/></clipPath><clipPath id="m"><path fill="#fff" d="m636.172 117.425 58.844-25.921 47.598 115.614-58.843 25.921z"/></clipPath></defs></svg>