<svg xmlns="http://www.w3.org/2000/svg" width="746" height="448" fill="none"><g clip-path="url(#a)"><path fill="url(#b)" d="m274.883 159.867 470.189 200.941-1.989 4.655-470.189-200.941z"/><path fill="url(#c)" d="m248.059 241.79 470.189 200.94-1.989 4.655L246.07 246.444z"/><path fill="url(#d)" d="m260.565 188.938 470.19 200.941-10.144 23.735-470.189-200.941z"/><path fill="#FFEFCD" d="m257.481 194.229-7.235 14.501 87.94 29.012z"/></g><path fill="#232826" d="M161.873 181.136a2.84 2.84 0 0 0-1.847 1.571 2.87 2.87 0 0 0 0 2.426c3.391 7.334 18.996 26.412 90.18 44.939.276.055 1.737.193 3.64-3.915 1.902-4.108.854-5.128.606-5.321-60.157-42.292-84.777-41.878-92.579-39.728z"/><path fill="#C9CDA9" d="m191.15 149.735 32.504 23.103s-5.1-4.411-2.288-10.476c2.757-5.927 18.554-7.361 18.554-7.361l-28.7-15.136s-14.115 10.752-20.07 9.843z"/><path fill="url(#e)" d="m211.193 139.891 28.7 15.135s-15.825 1.406-18.554 7.361c-2.813 6.038 2.288 10.477 2.288 10.477l-32.505-23.103c2.785.413 7.334-1.682 11.387-4.081-.193.689-.221 2.068 1.792 3.584 2.15 1.627 8.298 4.687 10.972 5.983-3.446 3.336-5.707 5.431-5.734 5.459l.193.22s6.148-5.707 13.757-13.399l-.193-.193c-2.895 2.923-5.569 5.569-7.802 7.692-2.619-1.268-8.85-4.383-11-5.982-2.371-1.792-1.737-3.309-1.599-3.584.303-.166.606-.359.882-.552.055.055.165.028.193-.027v-.083c3.997-2.454 7.168-4.88 7.168-4.88zm4.301 14.088s-.166 0-.193.055c-.028.083 0 .165.055.193.083.027.165 0 .193-.055.028-.083 0-.166-.083-.193zm-.993-.497s-.165 0-.193.056c-.027.082 0 .165.055.193.056.027.166 0 .193-.056 0 0 0-.165-.055-.193m-1.02-.523s-.165 0-.193.055c-.027.082 0 .165.055.193.083.027.166 0 .193-.055 0 0 0-.166-.055-.193m-1.02-.497s-.165 0-.193.056c-.027.082 0 .165.055.192.083.028.166 0 .193-.055 0 0 0-.165-.055-.193m-1.02-.523s-.165 0-.193.055c-.027.082 0 .165.055.193.083.027.166 0 .193-.055 0 0 0-.166-.055-.193m-.992-.552s-.166 0-.193.055c-.028.083 0 .166.055.193.082.028.138 0 .193-.055 0 0 0-.165-.055-.193m-.993-.524s-.165 0-.193.055c-.027.056 0 .166.055.193.083.028.166 0 .193-.055 0 0 0-.165-.055-.193m-.992-.551s-.166 0-.193.055c-.028.083 0 .165.055.193.082.028.165 0 .193-.055 0 0 0-.165-.055-.193m-.993-.579s-.165 0-.193.055c-.027.083 0 .166.055.193.083.028.166 0 .193-.055 0 0 0-.165-.055-.193m-.965-.579s-.165 0-.193.055c-.055.055 0 .138.055.193s.166 0 .193-.055c0 0 0-.165-.055-.193m-.937-.634s-.166-.028-.193 0c-.055.055-.028.165.027.193.055.055.138.027.193-.028v-.027c0-.055 0-.138-.055-.166zm-.827-.717s-.138-.055-.193 0a.134.134 0 0 0 0 .193.134.134 0 0 0 .193 0v-.22zm-.827-.965s-.083.138-.056.193.111.083.193.055c0 0 .056-.027.056-.055v-.138c-.028-.055-.138-.082-.193-.055m-.276-1.075s-.138.083-.138.138c0 .082.083.138.138.138s.11-.028.11-.083v-.083c0-.082-.083-.138-.138-.138zm7.058 15.466s-.055.138 0 .193a.13.13 0 0 0 .193 0l.027-.055c0-.055 0-.11-.027-.165a.134.134 0 0 0-.193 0zm1.02-.771s-.138-.056-.193 0a.133.133 0 0 0 0 .193.134.134 0 0 0 .193 0l.027-.056c0-.055 0-.11-.027-.165zm.827-.772s-.138-.056-.193 0a.133.133 0 0 0 0 .193.134.134 0 0 0 .193 0v-.221zm.827-.772s-.138-.055-.193 0a.133.133 0 0 0 0 .193.134.134 0 0 0 .193 0v-.221zm.827-.8s-.138-.055-.193 0a.134.134 0 0 0 0 .193.134.134 0 0 0 .193 0l.028-.055c0-.055 0-.11-.028-.165zm.827-.772s-.138-.055-.193 0a.134.134 0 0 0 0 .193.134.134 0 0 0 .193 0l.028-.055v-.165zm.8-.799s-.138-.055-.193 0a.134.134 0 0 0 0 .193.134.134 0 0 0 .193 0l.027-.055c0-.056 0-.111-.027-.166zm.827-.772s-.138-.055-.193 0a.134.134 0 0 0 0 .193.134.134 0 0 0 .193 0l.027-.055v-.166zm.606-.8s-.055.138 0 .193a.134.134 0 0 0 .193 0l.028-.055c0-.055 0-.11-.028-.165a.13.13 0 0 0-.193 0zm1.02-.799s-.137-.055-.193 0a.134.134 0 0 0 0 .193.133.133 0 0 0 .193 0l.028-.055c0-.056 0-.111-.028-.166zm.827-.8s-.137-.055-.193 0a.134.134 0 0 0 0 .193.133.133 0 0 0 .193 0l.028-.055v-.165zm.8-.799s-.138-.055-.193 0a.133.133 0 0 0 0 .193.134.134 0 0 0 .193 0v-.193m.799-.772s-.137-.055-.192 0a.13.13 0 0 0 0 .193.13.13 0 0 0 .192 0l.028-.055c0-.056 0-.111-.028-.166zm.828-.8s-.138-.055-.193 0a.13.13 0 0 0 0 .193.133.133 0 0 0 .193 0l.027-.055c0-.055 0-.11-.027-.165zm.799-.799s-.138-.055-.193 0a.134.134 0 0 0 0 .193.134.134 0 0 0 .193 0l.028-.055v-.166zm.8-.827s-.138-.056-.193 0a.13.13 0 0 0 0 .193.133.133 0 0 0 .193 0v-.056c0-.055 0-.11-.028-.165zm.799-.8s-.138-.055-.193 0a.134.134 0 0 0 0 .193.134.134 0 0 0 .193 0l.028-.055c0-.055 0-.11-.028-.166z"/><path fill="#232826" d="M239.975 155.19c-.165 0-15.687 1.461-18.334 7.196-2.674 5.762 2.013 9.952 2.233 10.145l-.386.441s-5.21-4.631-2.371-10.807c2.785-6.01 18.141-7.444 18.803-7.526l.055.579zM211.414 140.002c-.579.441-14.281 10.807-20.263 9.897l.082-.551c5.763.882 19.713-9.677 19.851-9.787z"/><path fill="#232826" d="M204.772 147.969v-.165s-.138-.056-.193 0c0 0-.055.137 0 .193 0 0 .138.055.193 0v-.056zm-.689-.91v-.138s-.138-.082-.193-.055c0 0-.083.138-.056.193 0 0 .111.083.193.055 0 0 .056-.027.056-.055m-.304-1.075v-.083s-.082-.138-.138-.138c0 0-.137.083-.137.138 0 0 .082.138.137.138s.111-.027.111-.083zM202.704 145.238l.248.166s-.909 1.488 1.076 3.253l-.248.165c-2.096-1.902-1.076-3.529-1.076-3.556z"/><path fill="url(#f)" d="M191.86 124.697c2.895 6.258 16.872 24.179 83.481 41.548 0 0 1.268.303 3.005-3.447s.689-4.521.689-4.521c-56.325-39.618-79.015-38.653-85.687-36.833-1.406.386-2.122 1.957-1.516 3.253z"/><path fill="#EFDC8D" d="M279.037 158.278s1.02.744-.579 4.328c.855-2.012-.193-2.646-.193-2.646-58.502-34.876-79.345-37.936-85.217-37.826-.607 0-1.021.248-1.186.579a2.38 2.38 0 0 1 1.516-1.296c6.645-1.847 29.362-2.784 85.687 36.833z"/><path fill="#232826" d="M199.885 128.861c.193.055-.414 1.185-.689 1.654-.193.331-.607.882-.717.799-.165-.137-.331-.248-.469-.385-1.847-1.572-3.198-2.95-4.218-4.108.276.082.607.082.855-.056.275-.192.413-.578.468-.937a80 80 0 0 0 4.246 2.757c.166.11.331.221.524.303zM257.343 155.908c.276.082-.937 1.792-1.406 2.453-.138.193-.331.469-.524.469a6 6 0 0 1-.607-.22c-10.393-3.612-19.105-7.031-26.384-10.256.69-.993 1.572-2.261 2.454-3.833 7.251 3.281 15.797 6.976 25.888 11.139.193.082.386.165.579.22zM258.748 153.536l-.137.303c-9.76-4.687-18.775-8.96-26.798-12.71l.138-.303a2850 2850 0 0 1 26.797 12.71M258.528 154.364s0-.166-.083-.221c0 0-.165 0-.221.083 0 0 0 .165.083.22 0 0 .166 0 .221-.082m-1.186-.579s0-.166-.082-.221c0 0-.166 0-.221.083 0 0 0 .165.083.22 0 0 .165 0 .22-.082m-1.158-.552s0-.165-.082-.22c0 0-.166 0-.221.082 0 0 0 .166.083.221 0 0 .165 0 .22-.083m-1.185-.551s0-.166-.083-.221c0 0-.165 0-.22.083 0 0 0 .193.082.221 0 0 .166 0 .221-.083m-1.158-.552s0-.165-.083-.22c0 0-.165 0-.22.083 0 0 0 .165.082.22 0 0 .166 0 .221-.083m-1.158-.579s0-.165-.083-.22c0 0-.165 0-.22.083 0 0 0 .165.082.22 0 0 .166 0 .221-.083m-1.158-.551s0-.165-.083-.22c0 0-.165 0-.22.082 0 0 0 .166.082.221 0 0 .166 0 .221-.083m-1.185-.551s0-.166-.083-.221c0 0-.166 0-.221.083 0 0 0 .165.083.22.083.056.165 0 .221-.082m-1.158-.552s0-.193-.083-.22c0 0-.166 0-.221.082 0 0 0 .166.083.221 0 0 .165 0 .221-.083m-1.186-.579s0-.165-.083-.22c0 0-.165 0-.22.082 0 0 0 .166.083.221.082.055.165 0 .22-.083m-1.158-.551s0-.165-.083-.221c0 0-.165 0-.22.083 0 0 0 .166.083.221.082.027.165 0 .22-.083m-1.185-.551s0-.166-.083-.221c0 0-.165 0-.221.083 0 0 0 .165.083.22.083.028.193 0 .221-.082m-1.158-.552s0-.165-.083-.22c0 0-.165 0-.22.082 0 0 0 .166.082.221 0 0 .193 0 .221-.083m-1.158-.551s0-.193-.083-.221c0 0-.165 0-.22.083 0 0 0 .165.082.22 0 0 .193 0 .221-.082m-1.186-.579s0-.166-.082-.221c0 0-.166 0-.221.083 0 0 0 .165.083.221 0 0 .165 0 .22-.083m-1.158-.552s0-.193-.082-.22c0 0-.166 0-.221.083 0 0 0 .165.083.22 0 0 .165 0 .22-.083m-1.185-.551s0-.165-.083-.221c0 0-.165 0-.22.083 0 0 0 .166.082.221.083.027.166 0 .221-.083m-1.158-.551s0-.166-.083-.221c0 0-.165 0-.22.083 0 0 0 .165.082.22.083.028.166 0 .221-.082m-1.185-.552s0-.165-.083-.22c0 0-.166 0-.221.082 0 0 0 .166.083.221.083.028.165 0 .221-.083m-1.158-.551s0-.166-.083-.221c0 0-.166 0-.221.083 0 0 0 .193.083.221 0 0 .165 0 .221-.083m-1.186-.552s0-.165-.083-.22c0 0-.165 0-.22.083 0 0 0 .193.083.22 0 0 .193 0 .22-.083m-1.158-.551s0-.165-.083-.22c0 0-.165 0-.22.082 0 0 0 .193.083.221 0 0 .165 0 .22-.083m-1.185-.524s0-.165-.083-.22c0 0-.165 0-.221.082 0 0 0 .166.083.221.083.028.166 0 .221-.083M200.267 129.906c7.058 4.384 16.956 9.567 29.39 15.439-.166.276-.304.497-.469.745l-.028-.028c-.082-.027-.193 0-.22.083-.028.083 0 .165.083.221-.414.661-.828 1.24-1.186 1.736a.55.55 0 0 1-.221-.11c-.193-.083-.386-.165-.551-.248-14.088-6.313-22.662-11.745-27.9-15.935a81 81 0 0 0 1.13-1.93zm27.708 15.605s-.166 0-.221.083c-.027.082 0 .165.083.22.083.028.193 0 .221-.083.027-.082 0-.193-.083-.22m-1.158-.552s-.165 0-.221.083c-.027.083 0 .166.083.221.083.027.193 0 .221-.083s0-.193-.083-.221m-1.158-.578s-.165 0-.221.082c-.027.083 0 .166.083.221.083.027.166 0 .221-.083.027-.083 0-.193-.083-.22m-1.158-.579s-.165 0-.22.082c-.028.083 0 .166.082.221.083.027.166 0 .221-.083.027-.083 0-.165-.083-.22m-1.158-.579s-.193 0-.22.082c-.028.083 0 .166.082.221.083.055.166 0 .221-.055.027-.083 0-.166-.083-.221zm-1.158-.552s-.165 0-.22.083c-.028.083 0 .165.082.22.083.056.166 0 .221-.055.028-.082 0-.193-.083-.22zm-1.185-.579s-.166 0-.221.055c-.027.083 0 .193.083.221s.165 0 .22-.083c.028-.082 0-.165-.082-.22zm-1.131-.606s-.165 0-.22.082c-.055.083 0 .166.083.221.082.055.165 0 .22-.055 0 0 0-.166-.083-.221zm-1.158-.579s-.165 0-.22.055a.21.21 0 0 0 .055.22c.083.028.193 0 .221-.082.027-.083 0-.166-.083-.221zm-1.157-.579s-.166 0-.221.082a.21.21 0 0 0 .055.221c.083.028.193 0 .221-.055 0 0 0-.193-.083-.221zm-1.158-.607s-.193 0-.221.055a.22.22 0 0 0 .055.221c.083.028.193 0 .221-.083a.22.22 0 0 0-.055-.22zm-1.131-.606s-.193 0-.22.055c-.028.083 0 .193.082.22.083.028.166 0 .221-.055 0 0 0-.193-.055-.22zm-1.158-.607s-.165 0-.22.083a.21.21 0 0 0 .055.22c.083.028.193 0 .22-.082a.21.21 0 0 0-.055-.221m-1.13-.606s-.165 0-.221.055c-.027.083 0 .193.056.22.082.055.193 0 .22-.055 0 0 0-.165-.055-.22m-1.158-.607s-.165 0-.22.055c-.028.083 0 .166.082.221.083.027.166 0 .221-.055 0 0 0-.166-.055-.221zm-1.13-.606s-.193 0-.221.055c-.055.082 0 .165.055.22 0 0 .166 0 .221-.055 0 0 0-.193-.055-.22m-1.131-.635s-.193 0-.22.056c-.055.082 0 .165.055.22.083.055.165 0 .221-.055 0 0 0-.165-.056-.221m-1.13-.606s-.165 0-.221.055a.22.22 0 0 0 .056.221c.082.055.165 0 .22-.055 0 0 0-.166-.055-.221m-1.13-.634s-.193 0-.221.055c-.027.083 0 .193.055.221.083.055.193 0 .221-.056 0 0 0-.165-.055-.22m-1.131-.634s-.193 0-.22.055c-.055.083 0 .165.055.22.083.056.193 0 .22-.055a.21.21 0 0 0-.055-.22m-1.13-.662s-.165 0-.221.055c-.055.083 0 .193.056.221.082.027.165 0 .22-.055 0 0 0-.166-.055-.221m-1.103-.662s-.165 0-.22.056c-.056.082 0 .165.055.22.082.055.165 0 .22-.055 0 0 0-.165-.055-.221m-1.13-.661s-.166 0-.221.055c-.055.083 0 .165.055.22.083.056.166 0 .221-.055a.21.21 0 0 0-.055-.22m-1.103-.662s-.165 0-.221.055c-.055.083 0 .166.056.221.082.055.165 0 .22-.055a.21.21 0 0 0-.055-.221m-1.103-.662s-.165 0-.22.056c-.055.082 0 .165.055.22.083.055.165.028.22-.055a.22.22 0 0 0-.055-.221"/><path fill="#232826" d="M200.628 129.301s-.11.22-.193.331c7.058 4.356 16.928 9.566 29.39 15.466.165-.248.303-.524.468-.799l-.22-.111a10 10 0 0 1-.552-.248c-14.198-6.451-23.213-11.248-28.893-14.639M229.716 145.403l.138-.303h-.055c-.055.082-.111.193-.166.275 0 0 .055 0 .055.028zM229.221 146.283s0-.138-.055-.193l-.165.248c.082.028.165 0 .22-.083zM257.202 157.727a625 625 0 0 0 19.216 7.03c-.331.358-.716.689-1.02.744-7.058-2.15-13.206-4.356-19.161-6.396.304-.386.607-.855.965-1.378m-.11.772s0-.193-.083-.221c-.082-.028-.165 0-.193.083-.027.082 0 .165.083.22 0 0 .165 0 .193-.082m1.213.468s0-.193-.083-.22c-.082-.028-.165 0-.22.082-.028.083 0 .166.11.193.083.028.166 0 .193-.082zm1.213.441s0-.193-.083-.22c-.082-.028-.165 0-.22.082-.028.083 0 .166.083.221.082.028.165 0 .193-.083zm1.213.441s0-.193-.082-.22c-.083 0-.166 0-.193.11-.028.083 0 .166.082.193.083.028.166 0 .193-.083m1.241.442s0-.193-.11-.221c-.083-.028-.166 0-.193.11-.028.083 0 .166.11.193.083.028.165 0 .193-.082m1.213.441s0-.193-.083-.221c-.082-.027-.193 0-.22.083-.028.083 0 .165.082.22.083.028.166 0 .193-.082zm1.213.441s0-.193-.083-.221c-.082 0-.165 0-.22.11-.028.083 0 .166.11.193.083.028.165 0 .193-.082m10.725 3.694s0 .166.11.193c.083.028.165 0 .193-.083 0 0 0-.193-.11-.22-.083-.028-.193 0-.193.11m-1.241-.413s0 .165.11.193c.083.027.166 0 .193-.083 0 0 0-.193-.083-.221-.082 0-.193 0-.193.111zm-1.213-.414s0 .165.11.193c.083.028.166 0 .193-.083 0 0 0-.165-.11-.193-.083-.027-.166 0-.193.111zm-1.241-.414s0 .166.111.193c.082.028.165 0 .193-.082 0 0 0-.193-.083-.221-.083 0-.193 0-.193.11zm-1.213-.413s0 .165.083.22c.083 0 .165 0 .193-.082.027-.083 0-.166-.11-.193-.083-.028-.193 0-.193.11zm-1.213-.441s0 .165.11.193c.083.027.166 0 .193-.083 0 0 0-.193-.11-.22-.083-.028-.165 0-.193.11m-1.241-.414s0 .166.111.193c.082.028.165 0 .193-.082.027-.083 0-.166-.111-.193-.082-.028-.165 0-.193.11zm-1.213-.441s0 .166.083.221c.083.027.166 0 .193-.083 0 0 0-.193-.11-.221-.083-.027-.166 0-.193.111zm-1.24-.441s0 .165.11.221c.083.027.165 0 .193-.083 0 0 0-.193-.11-.221-.083-.027-.166 0-.221.083zM277.162 163.848l-.606-.248a1158 1158 0 0 1-18.417-7.389c-.248.441-.496.827-.744 1.213a527 527 0 0 0 19.271 7.03c.303-.331.496-.634.496-.634z"/><path fill="#232826" d="M231.674 141.844c-1.268 2.757-2.977 5.652-5.238 8.216l-.248-.22c6.699-7.554 8.491-18.251 8.491-18.334l.331.055s-.799 4.852-3.336 10.311zM200.96 127.372c-.8 1.71-1.792 3.557-3.005 5.266l-.276-.193c3.557-5.017 5.293-11.386 5.293-11.441l.304.083s-.772 2.894-2.344 6.285zM258.607 154.169c-.964 2.095-2.288 4.301-4.107 6.203l-.249-.221c5.294-5.624 6.452-13.867 6.452-13.95l.331.055s-.524 3.777-2.454 7.913z"/><path fill="#232826" d="M279.205 158.032c-55.828-39.259-78.683-38.873-85.906-36.861-.745.193-1.351.717-1.682 1.434a2.57 2.57 0 0 0 0 2.205c3.143 6.81 17.617 24.482 83.674 41.686.165.027 1.543.248 3.335-3.612s.717-4.797.579-4.88zm-3.777 7.94c-65.808-17.148-80.172-34.655-83.315-41.382a2.12 2.12 0 0 1 0-1.737 2.08 2.08 0 0 1 1.323-1.13c7.141-1.985 29.803-2.344 85.411 36.777 0 0 .827.772-.772 4.191s-2.674 3.281-2.674 3.281z"/><path fill="url(#g)" d="M.673 88.363c8.877 19.133 51.472 73.859 254.936 126.848 0 0 3.887.965 9.208-10.532 5.321-11.469 2.068-13.84 2.068-13.84C94.905 69.919 25.623 72.786 5.277 78.41c-4.273 1.186-6.479 5.928-4.604 9.953"/><path fill="url(#h)" d="M35.051 77.004c-4.549 17.838-15.577 34.049-16.183 34.986C8.308 101.872 3.18 93.739.699 88.363c-1.847-4.025.359-8.767 4.605-9.953 5.706-1.571 15.218-2.922 29.747-1.406"/><path fill="#232826" d="M261.205 207.821s-2.453 4.108-4.356 4.687c-21.587-6.534-41.354-12.93-59.495-19.133 1.682-2.261 3.695-5.238 5.762-8.795a3663 3663 0 0 0 56.242 22.524zM123.438 137.408c-7.692 16.57-17.259 27.846-17.397 28.038l-.303-.248c.221-.248 21.697-25.557 26.026-56.159l.386.055c-1.461 10.284-4.852 19.988-8.712 28.342zM29.123 94.4c-4.797 10.339-9.897 17.728-9.98 17.838l-.33-.22c.11-.166 11.551-16.735 16.238-35.041l.386.11c-1.572 6.148-3.915 12.103-6.314 17.314M205.376 175.788c-5.845 12.654-13.454 21.146-13.564 21.256l-.303-.276c.165-.193 17.176-19.216 19.822-42.76l.386.055c-.882 7.94-3.391 15.356-6.341 21.725"/><path fill="url(#i)" d="M23.005 110.034a159 159 0 0 0 4.466-7.747c17.424 10.366 44.938 25.006 88.25 44.69.552.249 1.131.524 1.682.772l.331.138c-2.73 4.77-5.376 8.74-7.499 11.69-.248-.111-.138-.055-.358-.138-.579-.248-1.158-.524-1.737-.772-42.981-19.244-69.2-35.813-85.163-48.633zm86.182 47.944s-.22-.028-.275.055-.056.22.055.276c.082.055.22.055.275-.056v-.027a.22.22 0 0 0-.082-.248zm.938-1.296s-.221-.028-.276.055-.028.221.055.276c.083.083.221.027.276-.055a.27.27 0 0 0-.055-.248zm.882-1.323s-.221-.028-.276.055c-.055.082-.027.22.055.275.083.056.221.028.276-.055 0 0 0-.22-.083-.275zm.882-1.351s-.22-.028-.276.055c-.055.083-.027.22.056.276.082.055.22.027.275-.056a.22.22 0 0 0-.082-.248zm.882-1.351s-.22-.028-.275.055-.028.221.055.276c.082.055.22.027.275-.055 0 0 0-.221-.082-.276zm3.116-5.128s.22 0 .275-.083 0-.22-.082-.276c-.111-.055-.221 0-.276.083s-.028.221.083.276m-.8 1.378s.221 0 .276-.055c0 0 0-.22-.083-.276-.11-.055-.22 0-.276.083-.055.083 0 .221.083.276zm-.827 1.379s.221.027.276-.055c0 0 0-.221-.083-.276-.11-.055-.22 0-.276.055a.214.214 0 0 0 .056.276zm-.855 1.351s.221.027.276-.055c0 0 0-.221-.083-.276-.082-.055-.22-.028-.275.055s-.028.221.055.276z"/><path fill="#232826" d="M123 132.944s0 .221.111.276c.11.028.22 0 .248-.11 0 0 0-.221-.111-.276-.11-.055-.22 0-.275.11zM118.15 143.062s0 .221.082.276c.111.055.221 0 .276-.083 0 0 0-.22-.083-.276-.11-.055-.22 0-.275.083M122.367 134.407s0 .221.111.276c.082.055.22 0 .248-.111 0 0 0-.22-.111-.275-.11-.055-.22 0-.275.11zM120.877 137.769s0 .221.11.276c.111.055.221 0 .276-.083.055-.11 0-.221-.11-.276-.111-.055-.221 0-.276.083M121.703 135.867s0 .22.11.276c.111.055.221 0 .276-.111.055-.11 0-.22-.11-.275s-.221 0-.276.082zM118.893 141.63s0 .221.083.276c.11.055.22 0 .276-.083.055-.11 0-.22-.083-.275-.11-.056-.221 0-.276.082M117.406 144.468s0 .221.082.276c.111.055.221 0 .276-.083 0 0 0-.22-.083-.276-.11-.055-.22 0-.275.083M106.07 161.892s-.055.221.028.276c.082.055.22.055.275-.028 0 0 0-.22-.055-.275-.082-.056-.22-.056-.275.027zM104.087 164.402s-.055.193 0 .276c.083.082.22.055.276 0v-.055s.055-.166 0-.249c-.083-.082-.221-.055-.276 0zM107.038 160.625s-.055.22.028.276c.083.055.221.055.276-.028v-.055s.027-.193-.055-.248c-.083-.055-.221-.055-.276.027zM116.632 145.845s0 .221.083.276c.11.055.22 0 .276-.083 0 0 0-.22-.083-.276-.11-.055-.221 0-.276.083M108.004 159.33s-.055.22.027.275c.083.056.221.056.276-.055 0 0 0-.22-.055-.275-.083-.083-.221-.056-.276.027zM105.083 163.16s-.055.22.027.275c.083.083.193.055.276-.027v-.028a.26.26 0 0 0-.055-.248c-.083-.083-.221-.055-.276.028zM129.23 113.148s.055.22.165.248c.11 0 .193 0 .221-.11v-.055c0-.111-.056-.221-.166-.249-.11 0-.22.056-.248.166zM128.902 114.72s.055.22.165.248c.083 0 .193-.028.22-.11 0-.138-.055-.248-.165-.276-.11 0-.22.055-.248.165zM128.547 116.291s.055.221.138.248c.083 0 .193 0 .221-.11 0-.138-.055-.248-.138-.275-.11-.028-.221.027-.248.137zM128.158 117.838s.027.221.137.248c.083 0 .193 0 .221-.11 0-.138-.028-.248-.138-.276-.11-.027-.22.028-.248.138zM129.811 110.035s.055.22.165.22c.083 0 .193-.027.221-.11v-.055c0-.11-.055-.221-.166-.248-.11 0-.22.055-.22.165zM130.059 108.435s.055.221.165.221a.25.25 0 0 0 .221-.111v-.055c0-.11-.055-.22-.166-.22-.11 0-.22.055-.22.165M129.532 111.605s.056.22.166.248a.25.25 0 0 0 .22-.11v-.055s-.027-.221-.138-.249c-.11 0-.22.056-.248.166M123.61 131.485s0 .221.11.276c.11.027.221 0 .248-.11 0 0 0-.221-.11-.276-.11-.028-.221 0-.248.11M127.741 119.379s.028.221.138.248c.083 0 .193 0 .248-.11v-.027c.028-.111-.027-.221-.138-.249-.11-.027-.22.028-.248.138M125.868 125.472s0 .22.138.248c.11.027.221 0 .248-.11.028-.111 0-.221-.11-.248-.11-.028-.221-.001-.248.11zM126.365 123.983s0 .221.137.249c.111.027.193 0 .248-.111 0 0 0-.248-.137-.275-.111-.028-.221 0-.248.137M126.86 122.44s.028.221.138.249c.083.027.193 0 .248-.111 0 0 0-.248-.137-.275-.111-.028-.221 0-.249.137M127.328 120.922s.028.221.138.248c.083 0 .193 0 .221-.11 0 0-.028-.248-.138-.276-.11-.027-.221.028-.248.138zM124.212 129.994s0 .22.111.248c.11.027.22 0 .248-.111 0 0 0-.22-.111-.275-.11-.028-.22 0-.248.11zM124.767 128.505s0 .221.11.248c.111.028.221 0 .248-.11 0 0 0-.22-.11-.276-.11-.027-.22 0-.248.111zM125.342 126.99s0 .22.11.248c.111.027.221 0 .249-.111 0 0 0-.22-.111-.275-.11-.028-.22 0-.248.11zM199.532 183.201v-.083c.359.138.745.304 1.103.442.827.22-2.867 5.513-4.246 7.498-.441.607-1.158 1.6-1.268 1.544-.634-.22-1.627-.551-2.233-.744-31.733-11-58.31-21.477-80.531-31.292 2.15-2.977 4.77-6.947 7.499-11.689 22.138 10.008 48.247 21.311 79.07 33.993.11.055.22.083.303.138 0 0-.028 0-.055.028-.055.082 0 .22.082.275.111.056.221 0 .276-.055zm-5.348 7.775s-.221-.028-.276.055c-.083.083-.055.22.028.276.082.055.22.055.275-.056 0 0 0-.22-.055-.275zm.937-1.296s-.221-.028-.276.055a.215.215 0 0 0 .055.276c.083.055.221.055.276-.055a.26.26 0 0 0-.055-.248zm.91-1.323s-.221-.028-.276.055c-.055.082-.027.22.055.275.083.056.221.028.276-.055 0 0 0-.22-.083-.275zm.882-1.324s-.221-.027-.276.055a.215.215 0 0 0 .055.276c.083.055.221.028.276-.055 0 0 0-.221-.055-.276m.882-1.351s-.22-.027-.275.056c-.056.082-.028.22.055.275.082.055.22.028.275-.055 0 0 0-.22-.082-.276zm.855-1.351s-.221-.027-.276.056c-.055.082-.027.22.055.275.083.055.221.028.276-.082.055-.083.028-.221-.055-.276zM200.777 180.224s0 .221.082.276c.111.055.221 0 .276-.083 0 0 0-.221-.083-.276-.082-.055-.22 0-.275.083M199.976 181.628s0 .221.083.276c.11.055.22 0 .275-.083 0 0 0-.22-.082-.275-.111-.056-.221 0-.276.082M202.235 177.41s0 .22.083.275c.11.055.22 0 .275-.082.056-.083 0-.221-.082-.276-.111-.055-.221 0-.276.083M201.515 178.818s0 .22.083.275c.11.056.22 0 .275-.082 0 0 0-.221-.082-.276-.083-.055-.221 0-.276.083M202.954 175.951s0 .22.082.276c.111.055.221 0 .276-.111.055-.11 0-.22-.083-.275-.11-.056-.22 0-.275.082zM192.943 192.327s-.055.221.028.276c.082.055.22.055.275-.027 0 0 0-.221-.055-.276-.082-.055-.22-.055-.275.055zM203.614 174.516s0 .221.111.276c.11.055.22 0 .275-.11.055-.083 0-.221-.11-.248-.11-.028-.221 0-.276.11zM190.985 194.837s-.055.221.027.276c.083.083.221.055.276 0l.028-.055c.027-.083 0-.165-.055-.248-.083-.055-.221-.055-.276.027M191.977 193.568s-.055.221.028.276c.083.082.22.055.276-.028v-.027a.27.27 0 0 0-.056-.249c-.082-.055-.22-.055-.275.028zM189.942 196.048s-.083.193 0 .276.193.083.276 0c0 0 0-.028.027-.055a.21.21 0 0 0-.055-.221c-.082-.082-.22-.055-.303 0zM207.996 162.526s.028.22.138.248c.083 0 .193 0 .248-.11v-.028c.028-.11-.028-.221-.138-.248-.11-.028-.22.027-.248.138M208.383 160.952s.055.22.138.248c.11 0 .193 0 .22-.111v-.027c.028-.11-.027-.221-.137-.248-.111-.028-.221.027-.249.138zM208.743 159.407s.055.221.166.249c.11 0 .193 0 .22-.111v-.027c0-.111-.055-.221-.165-.248-.11 0-.221.055-.248.165zM209.679 154.941s.055.22.165.22c.083 0 .166-.027.193-.11v-.055c0-.111-.055-.193-.165-.221-.11 0-.22.055-.22.166zM207.558 164.039s.027.221.138.249c.082 0 .193 0 .248-.111 0 0-.028-.248-.138-.275s-.221.027-.248.137M206.589 167.101s0 .22.138.248c.083 0 .193 0 .248-.11 0 0 0-.248-.138-.276-.11-.027-.22 0-.248.11zM205.488 170.107s0 .22.11.248.22 0 .248-.11c0 0 0-.221-.11-.276-.11-.028-.221 0-.248.11zM206.066 168.591s0 .221.11.248c.11.028.221 0 .248-.11 0 0 0-.221-.11-.276-.11-.027-.221 0-.248.111zM204.911 171.566s0 .22.111.248c.11.027.22 0 .248-.11 0 0 0-.221-.11-.276-.083-.055-.221 0-.276.11zM204.274 173.056s0 .22.111.275c.11.028.22 0 .275-.11s0-.22-.11-.276c-.11-.027-.22 0-.276.111M207.089 165.584s0 .221.138.248c.11.028.193 0 .248-.11 0 0-.028-.248-.138-.276-.11-.027-.22.028-.248.138M120.954 142.154c-39.231-18.058-70.688-33.056-93.488-44.635l.192-.359c22.8 11.579 54.257 26.577 93.489 44.635l-.165.359zM264.097 206.197l-3.584-1.544a10076 10076 0 0 1-57.042-25.226l.166-.359c18.002 8.023 37.191 16.487 57.041 25.227l3.584 1.543zM210.774 159.358l-.193.331c-28.7-17.038-55.608-31.65-80.007-43.45l.165-.358c24.399 11.8 51.335 26.412 80.035 43.45zM121.894 140.579s0-.221-.11-.276c0 0-.221 0-.276.111 0 0 0 .22.11.275.111.055.221 0 .276-.11m-1.516-.717s0-.22-.111-.276c0 0-.22 0-.275.111 0 0 0 .22.11.275s.22 0 .276-.11m-1.406-.606s0-.221-.111-.276c0 0-.22 0-.275.11 0 0 0 .221.11.276s.22 0 .276-.11m-1.462-.69s0-.22-.11-.275c0 0-.22 0-.276.11 0 0 0 .221.111.276.11.055.22 0 .275-.111m-1.433-.661s0-.221-.111-.276c0 0-.22 0-.275.11 0 0 0 .221.11.276s.221 0 .276-.11m-1.461-.662s0-.221-.111-.276c0 0-.22 0-.275.111 0 0 0 .22.11.275s.22 0 .276-.11m-1.462-.689s0-.221-.11-.276c0 0-.22 0-.276.11 0 0 0 .221.111.276.11.055.22 0 .275-.11m-1.461-.662s0-.22-.11-.276c0 0-.221 0-.276.111 0 0 0 .22.11.275.111.056.221 0 .276-.11m-1.433-.662s0-.22-.111-.275c0 0-.22 0-.275.11 0 0 0 .221.11.276s.22 0 .276-.111m-1.462-.689s0-.22-.11-.275c0 0-.22 0-.276.11 0 0 0 .22.111.275.11.056.22 0 .275-.11m-1.461-.661s0-.221-.11-.276c0 0-.221 0-.276.11 0 0 0 .221.11.276.111.055.221 0 .276-.11m-1.461-.69s0-.22-.11-.275c0 0-.221 0-.276.11 0 0 0 .22.11.276.111.055.221 0 .276-.111m-1.434-.661s0-.221-.11-.276c0 0-.22 0-.276.11 0 0 0 .221.111.276.11.055.22 0 .275-.11m-1.461-.69s0-.22-.11-.275c0 0-.221 0-.276.11 0 0 0 .221.11.276.111.055.221 0 .276-.111m-1.461-.661s0-.221-.083-.276c0 0-.22 0-.275.11 0 0 0 .221.11.276s.22 0 .276-.11zm-1.434-.69s0-.22-.11-.275c0 0-.22 0-.276.11 0 0 0 .221.11.276s.221 0 .276-.111m-1.46-.661s0-.221-.111-.276c0 0-.22 0-.276.11 0 0 0 .221.11.276s.221 0 .276-.11m-1.462-.689s0-.221-.11-.276c0 0-.22 0-.276.11 0 0 0 .221.11.276 0 0 .22 0 .276-.11m-1.461-.662s0-.221-.083-.276c0 0-.22 0-.276.11 0 0 0 .221.083.276.11.055.22 0 .276-.11m-1.434-.689s0-.221-.11-.276c0 0-.22 0-.276.11 0 0 0 .221.11.276s.221 0 .276-.11m-1.461-.69s0-.22-.11-.275c0 0-.22 0-.276.11 0 0 0 .221.11.276s.22 0 .276-.111m-1.434-.661s0-.221-.11-.276c0 0-.22 0-.276.11 0 0 0 .221.11.276s.221 0 .276-.11m-1.46-.69s0-.22-.111-.275c0 0-.22 0-.276.11 0 0 0 .221.11.276s.221 0 .276-.111m-1.462-.689s0-.22-.11-.275c0 0-.22 0-.276.11 0 0 0 .22.11.276 0 0 .22 0 .276-.083zm-1.434-.689s0-.221-.11-.276c0 0-.22 0-.276.111 0 0 0 .22.11.275s.221 0 .276-.11m-1.46-.662s0-.22-.111-.275c0 0-.22 0-.276.11 0 0 0 .22.11.276 0 0 .221 0 .276-.111m-1.462-.689s0-.22-.11-.276c0 0-.22 0-.276.111 0 0 0 .22.11.275s.22 0 .276-.11m-1.434-.689s0-.221-.11-.276c0 0-.22 0-.276.11 0 0 0 .221.11.276s.221 0 .276-.11m-1.46-.689s0-.221-.111-.276c0 0-.22 0-.276.11 0 0 0 .221.11.276 0 0 .221 0 .276-.11m-1.434-.69s0-.22-.11-.275c0 0-.221 0-.276.11 0 0 0 .221.11.276 0 0 .22 0 .276-.083zm-1.462-.661s0-.221-.11-.276c0 0-.22 0-.276.11 0 0 0 .221.11.276 0 0 .221 0 .276-.11m-1.433-.69s0-.22-.11-.275c0 0-.221 0-.276.11 0 0 0 .221.11.276s.22 0 .276-.111m-1.461-.689s0-.22-.11-.275c0 0-.221 0-.276.11 0 0 0 .22.11.275s.22.001.276-.11m-1.434-.689s0-.221-.083-.276c0 0-.22 0-.275.111 0 0 0 .22.11.275s.22 0 .275-.082zm-1.461-.689s0-.221-.083-.276c0 0-.22 0-.276.11 0 0 0 .221.11.276s.221 0 .276-.083zm-1.434-.689s0-.221-.11-.276c0 0-.22 0-.276.11 0 0 0 .221.11.276 0 0 .221 0 .276-.11m-1.461-.69s0-.22-.083-.275c0 0-.22 0-.276.082 0 0 0 .221.11.276 0 0 .221 0 .276-.11zm-1.434-.689s0-.221-.082-.248c0 0-.22 0-.276.083 0 0 0 .22.083.275 0 0 .22 0 .275-.11m-1.46-.689s0-.221-.084-.276c0 0-.22 0-.275.083 0 0 0 .22.11.275 0 0 .22 0 .276-.11zm-1.434-.689s0-.221-.083-.276c0 0-.22 0-.276.083 0 0 0 .22.083.275 0 0 .22 0 .275-.11zm-1.462-.69s0-.22-.082-.275c0 0-.221 0-.276.082 0 0 0 .221.11.276 0 0 .22 0 .276-.11zm-1.433-.717s0-.22-.083-.275c0 0-.22 0-.276.083 0 0 0 .22.11.275s.221 0 .276-.11zm-1.434-.689s0-.22-.083-.275c0 0-.22 0-.275.082 0 0 0 .221.11.276 0 0 .22 0 .276-.083zm-1.434-.689s0-.221-.11-.276c0 0-.22 0-.276.083 0 0 0 .221.11.276 0 0 .221 0 .276-.083m-1.46-.689s0-.221-.111-.276c0 0-.22 0-.276.083 0 0 0 .22.11.275 0 0 .221 0 .276-.082m-1.434-.689s0-.221-.11-.276c0 0-.221 0-.276.083 0 0 0 .22.082.275 0 0 .22 0 .276-.082zm-1.434-.717s0-.221-.11-.276c0 0-.22 0-.276.11 0 0 0 .221.083.276 0 0 .22 0 .276-.083zm-1.461-.69s0-.22-.11-.275c0 0-.221 0-.276.082 0 0 0 .221.083.276 0 0 .22 0 .275-.083zm-1.434-.716s0-.221-.11-.276c0 0-.22 0-.276.083 0 0 0 .22.083.275 0 0 .22 0 .276-.082zm-1.433-.69s0-.22-.11-.275c0 0-.221 0-.276.082 0 0 0 .221.082.276 0 0 .22 0 .276-.083zm-1.462-.716s0-.221-.11-.276c0 0-.22 0-.276.083 0 0 0 .22.083.275 0 0 .22 0 .276-.082zm-1.433-.69s0-.22-.11-.275c0 0-.221 0-.276.082 0 0 0 .221.082.276 0 0 .221 0 .276-.083zm-1.434-.716s0-.221-.11-.276c0 0-.22 0-.276.11 0 0 0 .221.083.276 0 0 .22 0 .276-.083zm-1.433-.69s0-.22-.083-.275c0 0-.22 0-.276.082 0 0 0 .221.083.276 0 0 .22 0 .276-.083m-1.434-.716s0-.221-.083-.276c0 0-.22 0-.275.083 0 0 0 .22.082.275 0 0 .22 0 .276-.082m-1.461-.717s0-.221-.083-.276c0 0-.22 0-.276.083 0 0 0 .22.083.275 0 0 .22 0 .276-.082m-1.434-.717s0-.221-.083-.276c0 0-.22 0-.275.083 0 0 0 .22.11.276 0 0 .22 0 .276-.083zm-1.434-.689s0-.221-.082-.276c0 0-.22 0-.276.083 0 0 0 .22.083.275 0 0 .22 0 .275-.082m-1.433-.717s0-.221-.11-.276c0 0-.22 0-.276.083 0 0 0 .22.11.276 0 0 .22 0 .276-.083m-1.434-.717s0-.22-.11-.276c0 0-.22 0-.276.083 0 0 0 .221.083.276 0 0 .22 0 .276-.083zm-1.433-.717s0-.22-.11-.276c0 0-.221 0-.276.083 0 0 0 .22.082.276 0 0 .22 0 .276-.083zm-1.434-.717s0-.22-.083-.275c0 0-.22 0-.275.082 0 0 0 .221.082.276 0 0 .22 0 .276-.083m-1.434-.716s0-.22-.082-.276c0 0-.22 0-.276.083 0 0 0 .22.083.275 0 0 .22 0 .275-.082m-1.406-.745s0-.22-.082-.248c0 0-.22 0-.276.083 0 0 0 .22.083.276 0 0 .22 0 .275-.083zm-1.433-.717s0-.22-.083-.275c0 0-.22 0-.276.082 0 0 0 .221.083.276 0 0 .22 0 .276-.083M264.403 204.376s0-.221-.111-.276c0 0-.22 0-.275.11 0 0 0 .221.11.276s.221 0 .248-.11zm-1.461-.635s0-.22-.111-.275c0 0-.22 0-.275.11 0 0 0 .221.11.248.11.028.22 0 .276-.11zm-1.489-.634s0-.22-.111-.275c0 0-.22 0-.248.11 0 0 0 .22.111.248.11.055.22 0 .248-.11zm-1.461-.661s0-.221-.111-.276c0 0-.22 0-.248.11 0 0 0 .221.11.248.111.056.221 0 .276-.11zm-1.462-.634s0-.221-.11-.276c0 0-.22 0-.276.11 0 0 0 .221.111.248.11.055.22 0 .275-.11zm-1.461-.635s0-.22-.11-.275c0 0-.221 0-.276.11 0 0 0 .221.11.248.111.028.221 0 .276-.11zm-1.489-.661s0-.221-.11-.276c0 0-.22 0-.276.11 0 0 0 .221.111.276.082.055.22 0 .248-.11zm-1.433-.634s0-.221-.11-.276c0 0-.221 0-.249.11 0 0 0 .221.111.276.11.055.22 0 .275-.11zm-1.489-.634s0-.221-.11-.276c0 0-.221 0-.276.11 0 0 0 .221.11.276.111.055.221 0 .248-.11zm-1.461-.662s0-.221-.11-.276c0 0-.221 0-.276.111 0 0 0 .22.11.275 0 0 .221 0 .248-.11zm-1.461-.634s0-.221-.111-.276c0 0-.22 0-.248.11 0 0 0 .221.111.276.11.028.22 0 .275-.11zm-1.462-.634s0-.221-.11-.276c0 0-.22 0-.275.11 0 0 0 .221.11.276.082.055.22 0 .248-.11zm-1.461-.662s0-.22-.11-.276c0 0-.221 0-.248.111 0 0 0 .22.11.275.083.056.221 0 .248-.11m-1.461-.634s0-.221-.11-.276c0 0-.221 0-.248.111 0 0 0 .22.11.275 0 0 .221 0 .276-.11zm-1.461-.662s0-.22-.11-.248c0 0-.221 0-.276.11 0 0 0 .221.11.276.11.028.221 0 .276-.11zm-1.461-.634s0-.22-.111-.275c0 0-.22 0-.275.11 0 0 0 .22.11.248.11.055.221 0 .276-.11zm-1.461-.634s0-.22-.111-.276c0 0-.22 0-.248.111 0 0 0 .22.11.275.111.056.221 0 .276-.11zm-1.462-.662s0-.22-.11-.275c0 0-.22 0-.276.11 0 0 0 .221.111.276.11.027.22 0 .248-.111zm-1.461-.634s0-.22-.11-.275c0 0-.221 0-.276.11 0 0 0 .22.11.248 0 0 .221 0 .276-.11zm-1.461-.634s0-.22-.11-.275c0 0-.221 0-.276.11 0 0 0 .22.11.276.083.055.221-.001.248-.111zm-1.461-.661s0-.221-.111-.276c0 0-.22 0-.275.11 0 0 0 .221.11.248.11.055.221 0 .276-.11zm-1.461-.635s0-.22-.111-.275c0 0-.22 0-.248.11 0 0 0 .221.11.276.111.055.221 0 .276-.111zm-1.462-.661s0-.221-.11-.248c0 0-.22 0-.276.11 0 0 0 .22.111.276.082.055.22 0 .248-.111zm-1.461-.634s0-.221-.11-.276c0 0-.221 0-.276.11 0 0 0 .221.111.276.11.055.22 0 .275-.11m-1.461-.662s0-.221-.11-.276c0 0-.221 0-.276.111 0 0 0 .22.11.275.083.055.221 0 .248-.11zm-1.461-.634s0-.221-.11-.276c0 0-.221 0-.276.111 0 0 0 .22.11.275.083.055.221 0 .248-.11zm-1.461-.662s0-.22-.111-.275c0 0-.22 0-.275.11 0 0 0 .22.11.248s.221 0 .276-.11zm-1.462-.634s0-.22-.11-.276c0 0-.22 0-.248.111 0 0 0 .22.11.275.111.056.221 0 .276-.11zm-1.461-.662s0-.22-.11-.275c0 0-.221 0-.276.11 0 0 0 .221.111.248 0 0 .22 0 .275-.11zm-1.461-.634s0-.22-.11-.275c0 0-.221 0-.276.11 0 0 0 .221.11.248.111.055.221 0 .276-.11zm-1.489-.661s0-.221-.11-.276c0 0-.221 0-.248.11 0 0 0 .221.11.276 0 0 .221 0 .276-.11zm-1.461-.634s0-.221-.11-.276c0 0-.221 0-.276.11 0 0 0 .221.11.276.111.055.221 0 .276-.11m-1.461-.662s0-.221-.11-.276c0 0-.221 0-.276.111 0 0 0 .22.11.248.111.055.221 0 .276-.111zm-1.461-.634s0-.221-.111-.276c0 0-.22 0-.275.11 0 0 0 .221.11.249.11.055.221 0 .276-.111zm-1.461-.662s0-.22-.111-.248c0 0-.22 0-.275.11 0 0 0 .221.11.276.11.028.22 0 .276-.11zm-1.462-.662s0-.22-.11-.275c0 0-.22 0-.248.11 0 0 0 .221.11.276.111.055.221 0 .276-.111zm-1.461-.634s0-.22-.11-.275c0 0-.221 0-.276.11 0 0 0 .221.11.276.111.055.221 0 .276-.111m-1.461-.661s0-.221-.11-.276c0 0-.221 0-.276.11 0 0 0 .221.11.276.111.055.221 0 .276-.11m-1.489-.634s0-.221-.11-.276c0 0-.221 0-.276.11 0 0 0 .221.111.276.11.055.22 0 .275-.11m-1.461-.662s0-.221-.11-.276c0 0-.221 0-.276.111 0 0 0 .22.11.275.111.055.221 0 .276-.11m-1.461-.662s0-.22-.11-.275c0 0-.221 0-.276.11 0 0 0 .22.11.276.083.055.221 0 .248-.111zm-1.461-.634s0-.22-.111-.276c0 0-.22 0-.275.111 0 0 0 .22.11.275s.221 0 .276-.11M209.703 157.036s0-.193-.082-.248c0 0-.221 0-.276.082 0 0-.027.221.055.276 0 0 .221 0 .276-.055zm-1.378-.8s0-.193-.083-.248c0 0-.22 0-.275.083 0 0 0 .22.082.275 0 0 .221 0 .276-.055zm-1.406-.799s0-.221-.083-.248c0 0-.22-.028-.275.055 0 0 0 .22.055.275 0 0 .22 0 .275-.082zm-1.379-.827s0-.193-.082-.249c0 0-.221 0-.276.083 0 0 0 .221.083.276 0 0 .22 0 .275-.055zm-1.378-.8s0-.22-.083-.248c0 0-.22 0-.275.055 0 0-.028.221.055.276 0 0 .22 0 .275-.083zm-1.378-.827s0-.221-.083-.248c0 0-.221 0-.276.055 0 0-.027.221.055.276 0 0 .221 0 .276-.083zm-1.379-.8s0-.22-.083-.248c0 0-.22 0-.275.083 0 0 0 .221.082.276 0 0 .221 0 .276-.083zm-1.406-.799s0-.221-.083-.248c0 0-.22 0-.275.055 0 0 0 .22.082.276 0 0 .221.027.276-.056zm-1.378-.8s0-.193-.083-.248c0 0-.221 0-.276.083 0 0 0 .221.083.276 0 0 .22 0 .276-.083zm-1.379-.827s0-.22-.083-.248c0 0-.22 0-.275.083 0 0 0 .22.082.276 0 0 .221 0 .276-.056zm-1.378-.799s0-.193-.083-.248c0 0-.221 0-.276.082 0 0 0 .221.083.276 0 0 .22 0 .276-.083zm-1.407-.8s0-.193-.082-.248c0 0-.221 0-.276.083 0 0 0 .22.055.276 0 0 .221 0 .276-.083zm-1.378-.799s0-.193-.083-.248c0 0-.22 0-.275.082 0 0 0 .221.082.276 0 0 .221 0 .276-.083zm-1.406-.772s0-.193-.083-.248c0 0-.22 0-.275.082 0 0 0 .221.082.276 0 0 .221 0 .276-.083zm-1.379-.8s0-.193-.082-.248c0 0-.221 0-.276.083 0 0 0 .22.083.276 0 0 .22 0 .275-.083zm-1.406-.799s0-.193-.082-.248c0 0-.221 0-.276.082 0 0 0 .221.083.276 0 0 .22 0 .275-.083zm-1.378-.772s0-.221-.083-.248c0 0-.22 0-.275.082 0 0 0 .221.082.276 0 0 .221 0 .276-.083zm-1.406-.8s0-.22-.083-.248c0 0-.22 0-.276.083 0 0 .001.22.083.276 0 0 .221 0 .276-.083zm-1.406-.799s0-.221-.083-.248c0 0-.22 0-.276.082 0 0 0 .221.083.276 0 0 .221 0 .276-.083zm-1.379-.772s0-.221-.082-.248c0 0-.221 0-.276.082 0 0 0 .221.083.276 0 0 .22 0 .275-.083zm-1.406-.772s0-.221-.082-.276c0 0-.221 0-.276.083 0 0 0 .22.083.276 0 0 .22 0 .275-.083m-1.406-.8s0-.22-.082-.248c0 0-.221 0-.276.083 0 0 0 .221.083.276 0 0 .22 0 .275-.083zm-1.378-.772s0-.22-.083-.248c0 0-.22 0-.276.083 0 0 0 .221.083.276 0 0 .221 0 .276-.083zm-1.434-.772s0-.22-.083-.248c0 0-.22 0-.275.083 0 0 0 .221.082.276 0 0 .221 0 .276-.083zm-1.378-.771s0-.221-.083-.276c0 0-.221 0-.276.083 0 0 0 .22.083.275 0 0 .221 0 .276-.082m-1.406-.772s0-.221-.083-.249c0 0-.221 0-.276.083 0 0 0 .221.083.276 0 0 .22 0 .276-.083zm-1.406-.772s0-.221-.083-.276c0 0-.221 0-.276.083 0 0 0 .22.083.275 0 0 .22 0 .276-.082m-1.406-.772s0-.221-.083-.248c0 0-.221 0-.276.082 0 0 0 .221.083.276 0 0 .22 0 .276-.083zm-1.407-.772s0-.221-.082-.248c0 0-.221 0-.276.082 0 0 0 .221.083.276 0 0 .22 0 .275-.083zm-1.406-.772s0-.221-.082-.276c0 0-.221 0-.276.083 0 0 0 .22.083.275 0 0 .22 0 .275-.082m-1.433-.745s0-.22-.083-.248c0 0-.22 0-.276.083 0 0 0 .221.083.276 0 0 .221 0 .276-.083zm-1.406-.772s0-.22-.083-.275c0 0-.22 0-.276.082 0 0 0 .221.083.276 0 0 .221 0 .276-.083m-1.406-.744s0-.22-.083-.276c0 0-.221 0-.276.083 0 0 0 .221.083.276 0 0 .221 0 .276-.083m-1.406-.772s0-.22-.083-.248c0 0-.221 0-.276.083 0 0 0 .22.083.275 0 0 .221 0 .276-.082zm-1.406-.744s0-.221-.083-.276c0 0-.221 0-.276.083 0 0 0 .22.083.275 0 0 .22 0 .276-.082m-1.434-.772s0-.221-.083-.276c0 0-.22 0-.275.083 0 0 0 .22.082.276 0 0 .221 0 .276-.083m-1.406-.745s0-.22-.083-.248c0 0-.22 0-.275.083 0 0 0 .221.082.276 0 0 .221 0 .276-.083zm-1.434-.744s0-.221-.082-.276c0 0-.221 0-.276.083 0 0 0 .221.083.276 0 0 .22 0 .275-.083m-1.406-.744s0-.221-.082-.276c0 0-.221 0-.276.083 0 0 0 .22.083.275 0 0 .22 0 .275-.082m-1.433-.745s0-.22-.083-.275c0 0-.221 0-.276.082 0 0 0 .221.083.276 0 0 .221 0 .276-.083m-1.406-.717s0-.22-.083-.275c0 0-.221 0-.276.082 0 0 0 .221.083.276 0 0 .22 0 .276-.083m-1.434-.744s0-.22-.083-.276c0 0-.22 0-.275.083 0 0 0 .221.082.276 0 0 .221 0 .276-.083m-1.406-.744s0-.221-.083-.276c0 0-.22 0-.275.083 0 0 0 .22.082.275 0 0 .221 0 .276-.082m-1.434-.745s0-.22-.082-.275c0 0-.221 0-.276.082 0 0 0 .221.083.276 0 0 .22 0 .275-.083m-1.433-.716s0-.221-.083-.276c0 0-.221 0-.276.083 0 0 0 .22.083.275 0 0 .221 0 .276-.082m-1.434-.745s0-.22-.083-.248c0 0-.22 0-.275.083 0 0 0 .22.082.275 0 0 .221 0 .276-.082zm-1.406-.717s0-.22-.083-.275c0 0-.22 0-.275.082 0 0 0 .221.082.276 0 0 .221 0 .276-.083m-1.434-.716s0-.221-.082-.276c0 0-.221 0-.276.083 0 0 0 .22.083.275 0 0 .22 0 .275-.082m-1.433-.717s0-.221-.083-.276c0 0-.22 0-.276.083 0 0 0 .22.083.275 0 0 .221 0 .276-.082m-1.434-.717s0-.221-.083-.276c0 0-.22 0-.275.083 0 0 0 .22.082.276 0 0 .221 0 .276-.083m-1.433-.717s0-.22-.083-.276c0 0-.221 0-.276.111 0 0 0 .22.083.275 0 0 .22 0 .276-.082zm-1.434-.717s0-.22-.11-.275c0 0-.221 0-.276.11 0 0 0 .22.083.276 0 0 .22 0 .275-.083zm-1.434-.717s0-.22-.11-.275c0 0-.221 0-.276.11 0 0 0 .221.083.276 0 0 .221 0 .276-.083zm-1.461-.689s0-.22-.11-.275c0 0-.221 0-.276.082 0 0 0 .221.083.276 0 0 .22 0 .276-.083zm-1.434-.717s0-.22-.11-.275c0 0-.22 0-.275.082 0 0 0 .221.082.276 0 0 .221 0 .276-.083zm-1.433-.689s0-.22-.11-.276c0 0-.221 0-.276.083 0 0 0 .221.083.276 0 0 .22 0 .275-.083zM26.45 95.697s0 .22.11.276c.111.055.221 0 .277-.11.055-.11 0-.221-.083-.276-.11-.056-.22 0-.276.082zM25.763 97.13s0 .22.083.276c.082.055.22 0 .276-.083 0 0 0-.22-.11-.275-.111-.056-.221 0-.277.082zM27.333 94.515a.193.193 0 1 1 0-.386.193.193 0 0 1 0 .386M27.83 92.775s0 .22.111.275c.11.055.22 0 .276-.11.027-.11 0-.22-.11-.276-.11-.055-.221 0-.249.11zM19.48 108.271s-.029.221.054.276.22.028.276-.055c0 0 0-.221-.055-.276-.083-.055-.22-.027-.276.055M17.711 110.943s-.027.221.056.276c.082.055.22.055.275-.028v-.027a.27.27 0 0 0-.055-.249c-.083-.055-.22-.027-.276.056zM24.302 99.968s0 .221.083.276c.082.055.22 0 .275-.083 0 0 0-.22-.082-.276-.11-.055-.22 0-.276.083M18.591 109.619s-.027.221.055.276c.083.055.221.027.276-.055 0 0 0-.221-.055-.276-.083-.055-.22-.028-.276.055M28.465 91.314s0 .22.11.275c.083.055.221 0 .248-.11 0 0 0-.22-.11-.276-.11-.055-.22 0-.275.11zM25.046 98.564s0 .22.083.276c.11.055.22 0 .276-.083 0 0 0-.22-.083-.276-.11-.055-.22 0-.276.083M31.388 83.869s0 .22.11.248.22 0 .248-.11c0 0 0-.249-.137-.276-.11-.028-.22 0-.249.11zM31.884 82.382s0 .22.138.248c.11.028.193 0 .248-.11 0 0 0-.248-.138-.276-.11-.028-.22 0-.248.138M30.833 85.388s0 .22.11.248.221 0 .249-.11c0 0 0-.22-.11-.276-.11-.027-.221 0-.249.11zM30.283 86.874s0 .22.11.249c.11.027.22 0 .248-.11 0 0 0-.221-.11-.276-.11-.028-.22 0-.248.11zM33.261 77.777s.028.22.138.248c.083 0 .193 0 .22-.11 0 0-.027-.249-.137-.276-.11 0-.22.027-.248.138zM32.376 80.837s.028.22.138.248c.083.028.193 0 .248-.11 0 0-.028-.248-.138-.276s-.22 0-.248.138M32.848 79.319s.027.22.137.248.193 0 .249-.11c.027-.111-.028-.221-.138-.249s-.22.028-.248.138zM29.099 89.853s0 .22.11.275c.11.028.22 0 .248-.11 0 0 0-.22-.11-.276-.11-.027-.22 0-.276.11zM29.708 88.363s0 .22.11.248c.11.055.221 0 .249-.11 0 0 0-.221-.11-.276s-.221 0-.249.11z"/><path fill="url(#j)" d="M10.682 91.56c3.364 2.37 7.61 5.155 12.958 8.408.524.331 1.047.634 1.571.965.58.193-1.544 3.419-2.343 4.797-.607 1.02-1.434 3.033-1.737 2.785a41 41 0 0 1-1.6-1.351c-5.65-4.797-9.786-8.988-12.847-12.544-2.95-3.06-6.81-9.18-4.907-11.056.91-.882-.33 1.848 8.905 7.968zm9.897 15.301s-.22-.028-.275.055c-.055.11 0 .22.055.276.083.055.22.027.276-.056 0 0 0-.22-.083-.275zm.855-1.379s-.22-.027-.276.055c-.055.083-.027.221.056.276.082.055.22.028.275-.055 0 0 0-.221-.082-.276zm.8-1.378s-.22-.028-.276.082c-.055.111 0 .221.083.276.082.055.22.028.275-.083 0 0 0-.22-.082-.275m.8-1.406s-.221 0-.276.082c-.056.111 0 .221.082.276.11.055.22 0 .276-.083.055-.11 0-.22-.083-.275m.771-1.406s-.22 0-.276.082c-.055.111 0 .221.083.276.11.055.22 0 .276-.083 0 0 0-.22-.083-.275"/><path fill="url(#k)" d="M222.362 196.051c.386.193.221.772-.22.717-4.274-.689-11.469-.827-12.655 5.624a3.4 3.4 0 0 0-.083.745c-.716 8.629 12.848 18.637 12.848 18.637l-9.264-4.549-30.905-15.191s-.607-13.178-8.078-20.512c-.855-.827-.11-2.233 1.048-1.957 8.767 2.067 26.99 7.002 47.337 16.486z"/><path fill="url(#l)" d="M149.606 201.65c3.391 7.306 19.684 28.231 97.431 48.467 0 0 1.488.359 3.528-4.025s.8-5.293.8-5.293c-65.726-46.207-92.22-45.104-99.967-42.981a2.75 2.75 0 0 0-1.765 3.804z"/><path fill="#232826" d="M251.501 240.578c-65.147-45.793-91.78-45.352-100.216-43.008-.855.248-1.571.827-1.93 1.654a2.92 2.92 0 0 0 0 2.536c3.667 7.94 20.54 28.563 97.624 48.633.166.055 1.765.303 3.832-4.19s.855-5.542.69-5.625m-4.384 9.264c-76.836-20.016-93.599-40.445-97.238-48.33a2.46 2.46 0 0 1 0-2.067 2.47 2.47 0 0 1 1.572-1.351c8.353-2.316 34.792-2.73 99.719 42.926 0 0 .992.909-.882 4.934s-3.198 3.86-3.198 3.86z"/><path fill="#232826" d="M158.978 206.447c.221.083-.496 1.379-.799 1.903-.221.386-1.461 2.453-1.572 2.371-.193-.138-1.268-1.131-1.433-1.269-2.151-1.819-3.777-4.714-4.053-5.596.744.358 1.461.275 1.765.11.33-.22.468-.662.551-1.103a100 100 0 0 0 4.935 3.226c.193.11.386.248.606.358M194.487 224.448c-1.048 1.82-2.151 3.308-2.95 4.439-.083-.028-1.489 2.261-1.71 2.15-16.431-7.361-26.549-14.887-32.67-19.795.965-.937 2.041-3.06 2.702-4.301 6.645 3.97 17.176 9.54 33.718 17.094.22.11.441.193.634.303l.248.11zM226.026 238.016c.33.083-1.103 2.096-1.627 2.868-.165.248-1.737 2.343-2.013 2.343-.248-.083-23.131-8.188-31.622-11.938 1.682-1.847 3.336-4.714 4.384-6.506 8.463 3.832 18.444 8.133 30.216 12.985.22.083.441.193.662.276zM249.186 247.303s-1.71 2.785-2.84 2.454c-8.243-2.509-15.797-4.053-22.745-6.424 1.075-1.047 2.592-3.556 3.391-4.935A1454 1454 0 0 0 248.496 247l.717.276zM227.103 236.496a2732 2732 0 0 1-31.54-14.254l.111-.248a2724 2724 0 0 0 31.539 14.254zM197.797 217.198l-.11.248c-14.915-7.058-27.156-12.213-36.419-15.329l.082-.275c9.264 3.115 21.532 8.271 36.447 15.328zM251.639 242.343l-.165.248c-7.361-4.824-15.081-9.842-21.615-13.785l.138-.248c6.534 3.943 14.253 8.96 21.614 13.813zM227.598 235.699s0-.166-.083-.193c0 0-.165 0-.193.082 0 0 0 .166.083.193.083.028.165 0 .193-.082m-1.02-.469s0-.166-.083-.193c0 0-.165 0-.193.083 0 0 0 .165.083.193s.165 0 .193-.083m-1.048-.469s0-.165-.082-.193c0 0-.166 0-.193.083 0 0 0 .165.082.193.083.027.166 0 .193-.083m-1.047-.441s0-.165-.083-.193c0 0-.165 0-.193.083 0 0 0 .165.083.193.082.027.165 0 .193-.083m-1.02-.469s0-.165-.083-.193c0 0-.166 0-.193.083 0 0 0 .166.083.193.082.028.165 0 .193-.083m-1.048-.468s0-.166-.083-.193c0 0-.165 0-.193.082 0 0 0 .166.083.193.083.028.165 0 .193-.082m-1.02-.469s0-.165-.083-.193c0 0-.165 0-.193.083 0 0 0 .165.083.193s.165 0 .193-.083m-1.048-.469s0-.165-.082-.193c0 0-.166 0-.193.083 0 0 0 .165.082.193 0 0 .166 0 .193-.083m-1.047-.468s0-.166-.083-.193c0 0-.166 0-.193.082 0 0 0 .138.083.193.082.056.165 0 .193-.082m-1.021-.441s0-.166-.082-.193c0 0-.138 0-.193.082 0 0 0 .166.083.193.082.028.165 0 .192-.082m-1.047-.469s0-.166-.083-.193c0 0-.165 0-.193.083 0 0 0 .165.083.193s.165 0 .193-.083m-1.02-.469s0-.165-.083-.193c0 0-.165 0-.193.083 0 0 0 .138.083.193.082.055.165 0 .193-.083m-1.048-.468s0-.166-.083-.193c0 0-.165 0-.193.082 0 0 0 .166.083.193.083.028.166 0 .193-.082m-1.048-.469s0-.166-.082-.193c0 0-.166 0-.193.083 0 0 0 .165.082.193.083.027.166 0 .193-.083m-1.02-.469s0-.165-.082-.193c0 0-.166 0-.193.083 0 0 0 .165.082.193 0 0 .166 0 .193-.083m-1.047-.469s0-.165-.083-.193c0 0-.165 0-.193.083 0 0 0 .166.083.193.082.028.165 0 .193-.083m-1.02-.468s0-.166-.083-.193c0 0-.165 0-.193.082 0 0 0 .166.083.193.082.028.165 0 .193-.082m-1.048-.469s0-.165-.083-.193c0 0-.165 0-.193.083 0 0 0 .165.083.193s.165 0 .193-.083m-1.02-.469s0-.165-.083-.193c0 0-.165 0-.193.083 0 0 0 .166.083.193 0 0 .165 0 .193-.083m-1.048-.468s0-.166-.082-.193c0 0-.166 0-.193.082 0 0 0 .166.082.193.083.028.166 0 .193-.082m-1.02-.469s0-.165-.082-.193c0 0-.166 0-.193.083 0 0 0 .138.082.193.083.055.166 0 .193-.055zm-1.047-.469s0-.165-.083-.193c0 0-.166 0-.193.083 0 0 0 .166.083.193.082.028.165 0 .193-.083m-1.02-.468s0-.166-.083-.193c0 0-.166 0-.193.082 0 0 0 .166.083.193 0 0 .165 0 .193-.082m-1.048-.469s0-.165-.083-.193c0 0-.165 0-.193.083 0 0 0 .165.083.193s.165 0 .193-.083m-1.02-.469s0-.165-.083-.193c0 0-.165 0-.193.083 0 0 0 .165.083.193s.165 0 .193-.083m-1.048-.468s0-.166-.083-.193c0 0-.165 0-.193.082 0 0 0 .166.083.193.083.028.166 0 .193-.082m-1.02-.469s0-.165-.083-.193c0 0-.165 0-.193.083 0 0 0 .165.083.193s.166 0 .193-.083m-1.048-.469s0-.165-.082-.193c0 0-.166 0-.193.083 0 0 0 .165.082.193.083.028.166 0 .193-.083m-1.02-.468s0-.166-.082-.193c0 0-.166 0-.193.082 0 0 0 .166.082.193.083.028.166 0 .193-.082m-1.02-.497s0-.165-.082-.193c0 0-.166 0-.193.083 0 0 0 .165.082.193.083.028.166 0 .193-.083m-1.047-.468s0-.166-.083-.193c0 0-.165 0-.193.082 0 0 0 .166.083.193 0 0 .165 0 .193-.082M197.987 216.539s0-.138-.083-.193c0 0-.166 0-.193.055 0 0 0 .165.055.193 0 0 .165 0 .193-.083zm-1.02-.496s0-.166-.083-.193c0 0-.166 0-.193.082 0 0 0 .166.083.193.055.028.165 0 .193-.082m-1.021-.469s0-.166-.082-.193c0 0-.166 0-.193.083 0 0 0 .165.082.193 0 0 .166 0 .193-.083m-1.047-.496s0-.166-.083-.193c0 0-.165 0-.193.055 0 0 0 .165.055.193s.166 0 .193-.083zm-1.02-.469s0-.166-.083-.193c0 0-.165 0-.193.083 0 0 0 .165.083.193.082.027.165 0 .193-.083m-1.02-.469s0-.165-.083-.193c0 0-.165 0-.193.083 0 0 0 .165.083.193.082.027.165 0 .193-.083m-1.048-.496s0-.165-.083-.193c0 0-.165 0-.193.083 0 0 0 .165.083.193s.165 0 .193-.083m-1.02-.469s0-.165-.083-.193c0 0-.165 0-.193.083 0 0 0 .165.083.193s.165 0 .193-.083m-1.048-.468s0-.166-.082-.193c0 0-.166 0-.193.082 0 0 0 .166.082.193 0 0 .166 0 .193-.055zm-1.02-.469s0-.166-.083-.193c0 0-.165 0-.193.083 0 0 .001.165.083.193.083.027.166 0 .193-.083m-1.047-.469s0-.165-.083-.193c0 0-.166 0-.193.083 0 0 0 .165.083.193.082.027.165 0 .193-.083m-1.021-.468s0-.166-.082-.193c0 0-.166 0-.193.082 0 0 0 .166.082.193.083.028.166 0 .193-.082m-1.047-.442s0-.165-.083-.193c0 0-.165 0-.193.083 0 0 0 .166.083.193.083.028.165 0 .193-.083m-1.048-.468s0-.166-.083-.193c0 0-.165 0-.193.082 0 0 0 .166.083.193.083.028.166 0 .193-.082m-1.02-.469s0-.165-.083-.193c0 0-.165 0-.193.083 0 0 0 .165.083.193.055.027.166 0 .193-.083m-1.048-.441s0-.165-.082-.193c0 0-.166 0-.193.083 0 0 0 .165.082.193.056.027.138 0 .193-.083m-1.047-.469s0-.165-.083-.193c0 0-.165 0-.193.083 0 0 0 .165.083.193 0 0 .138 0 .193-.083m-1.048-.441s0-.165-.083-.193c0 0-.165 0-.193.083 0 0 0 .165.083.193.055.027.166 0 .193-.083m-1.047-.441s0-.165-.083-.193c0 0-.166 0-.193.083 0 0 0 .165.083.193.082.027.165 0 .193-.083m-1.048-.441s0-.165-.083-.193c0 0-.165 0-.193.083 0 0 0 .165.083.193s.165 0 .193-.083m-1.02-.441s0-.166-.083-.193c0 0-.165 0-.193.083 0 0 0 .165.083.193.083 0 .165 0 .193-.083m-1.075-.441s0-.166-.083-.193c0 0-.166 0-.193.082 0 0 0 .166.083.193.082 0 .165 0 .193-.082m-1.048-.414s0-.165-.083-.193c0 0-.165 0-.193.083 0 0 0 .165.083.193s.165 0 .193-.083m-1.048-.441s0-.165-.082-.193c0 0-.166 0-.193.083 0 0 0 .165.082.193.083 0 .138 0 .166-.083zm-1.047-.414s0-.165-.083-.192c0 0-.165 0-.193.082 0 0 0 .166.083.193.082 0 .165 0 .193-.083m-1.048-.441s0-.165-.083-.193c0 0-.165 0-.193.083 0 0 0 .166.083.193.083.028.165 0 .193-.083m-1.075-.413s0-.166-.083-.193c0 0-.165 0-.193.083 0 0 0 .165.083.193.083 0 .138 0 .165-.083zm-1.048-.414s0-.165-.083-.193c0 0-.165 0-.193.083 0 0 0 .165.083.193s.166 0 .193-.083m-1.047-.386s0-.165-.083-.193c0 0-.166 0-.193.083 0 0 0 .165.083.193.082 0 .137 0 .165-.083zm-1.076-.413s0-.166-.082-.193c0 0-.166 0-.193.082 0 0 0 .166.082.193 0 0 .138 0 .166-.082zm-1.075-.414s0-.165-.083-.193c0 0-.165 0-.165.083 0 0 0 .165.083.193q.124.041.165-.083m-1.048-.386s0-.165-.082-.193c0 0-.166 0-.193.083 0 0 0 .165.082.193.083 0 .138 0 .166-.083zm-1.075-.358s0-.166-.082-.193c0 0-.166 0-.193.083 0 0 0 .165.082.193.083 0 .138 0 .166-.083zm-1.075-.386s0-.166-.083-.193c0 0-.138 0-.165.083 0 0 0 .165.083.193 0 0 .137 0 .165-.083m-1.075-.386s0-.166-.083-.193c0 0-.165 0-.165.083 0 0 0 .165.082.193.056 0 .138 0 .166-.083M251.196 241.408s0-.138-.055-.166c0 0-.166-.027-.193.028 0 0 0 .138.055.193 0 0 .138 0 .193-.028zm-.938-.634s0-.138-.055-.166c0 0-.165-.027-.193.028 0 0 0 .138.055.193 0 0 .166.027.193-.028zm-.965-.635s0-.137-.055-.165c0 0-.165 0-.193.028 0 0 0 .165.028.193 0 0 .165.027.193-.028zm-.937-.634s0-.138-.055-.165c0 0-.138 0-.193.055 0 0 0 .138.027.193 0 0 .166 0 .193-.055zm-.937-.634s0-.138-.055-.165c0 0-.138 0-.193.027 0 0 0 .166.055.193 0 0 .138 0 .193-.055m-.965-.606s0-.138-.055-.166c0 0-.166-.027-.193.028 0 0 0 .165.055.193 0 0 .165 0 .193-.028zm-.938-.634s0-.138-.055-.166c0 0-.165 0-.193.028 0 0 0 .165.028.193 0 0 .165 0 .193-.028zm-.965-.635s0-.137-.055-.165c0 0-.165 0-.193.028 0 0 0 .165.055.193 0 0 .166 0 .193-.028zm-.937-.606s0-.138-.055-.165c0 0-.166 0-.193.027 0 0 0 .166.027.193 0 0 .166 0 .193-.055zm-.965-.634s0-.138-.055-.193c0 0-.165 0-.193.027 0 0 0 .166.028.193 0 0 .165 0 .193-.027zm-.937-.607s0-.138-.055-.165c0 0-.138 0-.193.027 0 0 0 .138.027.193 0 0 .138 0 .193-.027zm-.965-.634s0-.138-.055-.165c0 0-.166-.028-.193.027 0 0 0 .138.055.193 0 0 .138 0 .193-.027zm-.965-.606s0-.138-.055-.166c0 0-.166-.027-.193.028 0 0 0 .165.055.193 0 0 .138 0 .193-.028zm-.938-.607s0-.138-.055-.193c0 0-.165 0-.193.055 0 0 0 .166.056.193 0 0 .165 0 .192-.027zm-.964-.634s0-.138-.056-.193c0 0-.165 0-.193.055 0 0 0 .166.056.193 0 0 .165 0 .193-.055m-.965-.606s0-.138-.056-.166c0 0-.137 0-.193.055 0 0 0 .166.028.193 0 0 .165 0 .193-.055zm-.938-.607s0-.138-.055-.193c0 0-.165 0-.193.055 0 0 0 .138.055.193 0 0 .166 0 .193-.055m-.965-.607s0-.137-.055-.193c0 0-.165 0-.193.056 0 0 0 .165.055.193 0 0 .166 0 .193-.056m-.965-.606s0-.138-.055-.193c0 0-.165 0-.193.055 0 0 0 .166.055.193 0 0 .166 0 .193-.055m-.965-.607s0-.137-.055-.193c0 0-.165 0-.193.056 0 0-.027.165.055.193 0 0 .166 0 .193-.056m-.964-.579s0-.137-.056-.193c0 0-.165 0-.193.056 0 0 0 .165.056.193 0 0 .165 0 .193-.056m-.965-.606s0-.138-.056-.193c0 0-.165 0-.193.055 0 0 0 .165.056.193 0 0 .165 0 .193-.028zm-.965-.607s0-.137-.056-.193c0 0-.165 0-.192.056 0 0 0 .165.055.193 0 0 .165 0 .193-.056"/><path fill="#232826" d="M196.583 220.398c-2.95 6.341-6.617 10.669-6.672 10.724l-.221-.193s8.271-9.759 9.925-21.421h.276c-.551 3.97-1.847 7.692-3.336 10.89zM160.547 203.965c-1.819 3.97-3.777 6.782-3.804 6.837l-.221-.165s4.411-6.396 6.203-13.371l.276.082c-.606 2.344-1.489 4.632-2.426 6.617zM227.902 235.065c-2.233 4.852-5.155 8.105-5.183 8.133l-.22-.193s6.561-7.334 7.554-16.321h.275c-.33 3.06-1.295 5.927-2.426 8.353z"/><path fill="#232826" d="m222.389 221.554-.331.468c-.579-.441-14.501-10.807-12.847-19.629 1.24-6.7 8.657-6.562 12.985-5.873 0 0 .083 0 .083-.055s0-.082-.055-.11c-20.209-9.429-38.294-14.364-47.282-16.459-.469-.11-.8.138-.938.414s-.193.716.166 1.047c7.471 7.306 8.16 20.567 8.188 20.677h-.579s-.689-13.15-7.995-20.291a1.47 1.47 0 0 1-.276-1.737 1.36 1.36 0 0 1 1.572-.689c8.987 2.095 27.128 7.058 47.392 16.514.303.138.441.469.358.8-.11.331-.386.496-.717.468-4.107-.661-11.193-.827-12.351 5.404-1.571 8.491 12.489 18.968 12.627 19.078z"/><path fill="#232826" d="M197.85 208.54h-.275c0-.138.551-12.931-.249-22.47h.276c.8 9.512.248 22.332.248 22.47M198.817 209.04v-.055s-.055-.138-.138-.138c0 0-.138.055-.138.138 0 0 .056.138.138.138a.15.15 0 0 0 .138-.083m.028-1.13v-.056s-.055-.137-.138-.137c0 0-.138.055-.138.137 0 0 .055.138.138.138.055 0 .11-.027.138-.082m.027-1.158v-.055s-.055-.138-.138-.138c0 0-.137.055-.137.138 0 0 .055.137.137.137a.15.15 0 0 0 .138-.082m.055-1.131v-.055s-.055-.138-.137-.138c0 0-.138.055-.138.138 0 0 .055.138.138.138a.15.15 0 0 0 .137-.083m0-1.13v-.055s-.055-.138-.137-.138c0 0-.138.055-.138.138 0 0 .055.138.138.138a.15.15 0 0 0 .137-.083m.028-1.13v-.056s-.055-.137-.138-.137c0 0-.138.055-.138.137 0 0 .055.138.138.138.055 0 .11-.027.138-.082m.028-1.131v-.055s-.056-.138-.138-.138c0 0-.138.055-.138.138 0 0 .055.138.138.138.055 0 .11-.028.138-.083m0-1.158v-.055s-.056-.138-.138-.138c0 0-.138.056-.138.138 0 0 .055.138.138.138.055 0 .11-.028.138-.083m0-1.13v-.055s-.056-.138-.138-.138c0 0-.138.055-.138.138 0 0 .055.138.138.138.055 0 .11-.028.138-.083m.027-1.13v-.055s-.055-.138-.138-.138c0 0-.138.055-.138.138 0 0 .056.137.138.137a.15.15 0 0 0 .138-.082m-.027-1.131v-.055s-.056-.138-.138-.138c0 0-.138.055-.138.138 0 0 .055.138.138.138.055 0 .11-.028.138-.083m0-1.158v-.055s-.056-.138-.138-.138c0 0-.138.056-.138.138 0 0 .055.138.138.138.055 0 .11-.027.138-.083m-.028-1.13v-.055s-.055-.138-.138-.138c0 0-.138.055-.138.138 0 0 .055.138.138.138.055 0 .11-.028.138-.083m0-1.13v-.055s-.083-.138-.138-.138c0 0-.138.055-.138.138 0 0 .055.137.138.137.055 0 .11-.027.138-.082m-.055-1.131v-.055s-.083-.138-.138-.138c0 0-.138.055-.138.138 0 0 .055.138.138.138.055 0 .11-.028.138-.083m-.028-1.158v-.055s-.055-.138-.138-.138c0 0-.137.056-.137.138 0 0 .055.138.137.138a.15.15 0 0 0 .138-.083m-.055-1.13v-.055s-.083-.138-.138-.138c0 0-.138.055-.138.138 0 0 .083.138.138.138s.111-.028.111-.083zm-.055-1.13v-.055s-.055-.138-.138-.138c0 0-.138.082-.138.138 0 0 .083.137.138.137s.11-.027.11-.082zm-.055-1.131v-.082s-.083-.138-.138-.138c0 0-.138.082-.138.138 0 0 .083.137.138.137s.11-.027.11-.082zm-.083-1.13v-.083s-.083-.138-.165-.138c0 0-.138.083-.138.138 0 0 .083.138.165.138.055 0 .083-.027.111-.083z"/><path fill="#232826" d="M197.853 200.021s-9.401-4.219-12.682-4.963c-3.171-.717-3.75 1.075-3.777 1.158l-.276-.083s.689-2.123 4.108-1.351c3.308.745 12.655 4.935 12.737 4.99z"/><path fill="#232826" d="M197.274 200.655s0-.165-.083-.193c0 0-.165 0-.193.083 0 0 0 .165.083.193.083 0 .165 0 .193-.083m-1.048-.468s0-.166-.083-.193c0 0-.165 0-.193.082 0 0 0 .138.083.193s.166 0 .193-.082m-1.047-.442s0-.165-.083-.193c0 0-.166 0-.193.083 0 0 0 .166.083.193.055.028.137 0 .193-.083m-1.048-.441s0-.165-.083-.193c0 0-.165 0-.193.083 0 0 0 .165.083.193.083 0 .165 0 .193-.083m-1.048-.441s0-.165-.082-.193c0 0-.166 0-.193.083 0 0 0 .165.082.193.055.027.166 0 .193-.083m-1.047-.441s0-.165-.083-.193c0 0-.166 0-.193.083 0 0 0 .165.083.193.082 0 .165 0 .193-.083m-1.048-.413s0-.166-.083-.193c0 0-.165 0-.193.082 0 0 0 .166.083.193 0 0 .138 0 .193-.082m-1.075-.442s0-.165-.083-.193c0 0-.165 0-.193.083 0 0 0 .166.083.193.055.028.138 0 .165-.083zm-1.048-.386s0-.165-.083-.193c0 0-.165 0-.193.083 0 0 0 .166.083.193.083 0 .138 0 .166-.083zm-1.075-.386s0-.165-.083-.193c0 0-.138 0-.165.083 0 0 0 .166.082.193.056 0 .138 0 .166-.083m-1.075-.358s0-.165-.083-.193c0 0-.165 0-.193.083 0 0 0 .165.083.165.082 0 .138 0 .165-.083zm-1.103-.303s-.028-.166-.11-.193c0 0-.138.027-.166.11 0 0 .028.138.11.165.056 0 .138 0 .166-.082m-1.13-.166v-.055s-.056-.138-.138-.138c0 0-.138.056-.138.138 0 0 .055.138.138.138.055 0 .11-.027.138-.083m-1.131.083v-.083s-.083-.137-.165-.11c0 0-.138.083-.111.166 0 0 .083.137.166.11.055 0 .083-.055.11-.083m-1.02.441v-.138s-.138-.082-.193-.027c0 0-.083.138-.027.193 0 0 .137.082.193.027l.055-.055zm-.689.882s0-.165-.083-.193c0 0-.165 0-.165.111 0 0 0 .165.082.165.083 0 .138 0 .166-.083M210.452 200.49s0-.138-.056-.193c0 0-.165 0-.193.055 0 0 0 .165.056.193 0 0 .165 0 .193-.055m-.993-.579s0-.138-.055-.193c0 0-.166 0-.193.055 0 0 0 .138.055.193 0 0 .165 0 .193-.055m-.992-.524s0-.166-.056-.193c0 0-.165 0-.193.055 0 0 0 .165.056.193 0 0 .165 0 .193-.055m-1.021-.496s0-.166-.082-.193c0 0-.166 0-.193.082 0 0 0 .166.082.193 0 0 .166 0 .193-.082m-1.02-.469s0-.165-.082-.193c0 0-.166 0-.193.083 0 0 0 .165.082.193.083.027.166 0 .193-.083m-1.047-.469s0-.165-.083-.193c0 0-.165 0-.193.083 0 0 0 .165.083.193.082.028.165 0 .193-.083m-1.048-.468s0-.166-.083-.193c0 0-.137 0-.193.082 0 0 0 .166.083.193.055.028.138 0 .193-.082m-1.048-.442s0-.165-.082-.193c0 0-.166 0-.193.083 0 0 0 .166.082.193.083 0 .166 0 .193-.083m-1.047-.441s0-.165-.083-.193c0 0-.165 0-.193.083 0 0 0 .165.083.193.055.028.138 0 .193-.055zm-1.048-.441s0-.165-.083-.193c0 0-.165 0-.193.083 0 0 0 .165.083.193.083 0 .138 0 .166-.083zm-1.047-.413s0-.166-.083-.193c0 0-.166 0-.193.082 0 0 0 .166.083.193.082 0 .137 0 .165-.082zM210.729 199.385l-.138.248c-.552-.331-2.178-1.213-4.852-2.426a214 214 0 0 0-7.885-3.281l.11-.276s4.439 1.737 7.912 3.281c2.675 1.213 4.301 2.095 4.88 2.426zM125.811 130.322c-25.655-11.594-44.648-24.986-42.422-29.912s24.828.48 50.483 12.075 44.648 24.987 42.422 29.912-24.828-.48-50.483-12.075"/><path fill="#A34023" d="M122.202 126.663C98.12 116.372 80.32 103.999 82.444 99.029s23.368-.657 47.451 9.635c24.082 10.292 41.882 22.664 39.758 27.635-2.124 4.97-23.368.656-47.451-9.636"/><path fill="#CB5F32" d="M122.695 125.715c-23.55-10.064-40.992-22.082-38.958-26.843 2.035-4.76 22.775-.46 46.325 9.604s40.992 22.082 38.958 26.843c-2.035 4.76-22.775.46-46.325-9.604"/><path stroke="#232826" stroke-miterlimit="10" stroke-width=".844" d="M122.202 126.663C98.12 116.372 80.32 103.999 82.444 99.029s23.369-.657 47.451 9.635 41.882 22.664 39.758 27.635c-2.124 4.97-23.368.656-47.451-9.636Z"/><path stroke="#232826" stroke-miterlimit="10" stroke-width=".844" d="M122.695 125.715c-23.55-10.064-40.992-22.082-38.958-26.843 2.035-4.76 22.775-.46 46.325 9.604s40.992 22.082 38.958 26.843c-2.035 4.76-22.775.46-46.325-9.604Z"/><mask id="m" width="272" height="138" x="13" y="0" maskUnits="userSpaceOnUse" style="mask-type:luminance"><path fill="#fff" d="M83.743 98.895c-2.04 4.77 15.412 16.79 38.956 26.853s44.277 14.364 46.317 9.594c1.268-2.922 119.211-45.738 115.572-83.784C277.172-26.215 26.646 8.191 17.521 4.304-6.024-5.759 85.783 94.154 83.743 98.895"/></mask><g mask="url(#m)"><g clip-path="url(#n)"><path fill="url(#o)" d="M122.438 59.006c-.296-.41-.767-.74-1.492-.925a6 6 0 0 0-1.582-.162c-.024-.033-.629-.038-1.449-.029-1.777.02-4.417.1-4.555.1l8.115 11.247c.138 0 2.779-.08 4.556-.1.801-.01 1.396-.005 1.444.024v.01c1.682-.02 2.616.433 3.088 1.086l-8.116-11.247z"/><path fill="url(#p)" d="m146.577 36.487 8.115 11.246-4.927 12.586-8.116-11.247z"/><path fill="url(#q)" d="m161.442 36.31 8.121 11.247-5.028 12.843-8.115-11.246z"/><path fill="url(#r)" d="m138.255 58.262 8.116 11.246-6.11 15.607-8.115-11.246z"/><path fill="url(#s)" d="m154.366 61.03 8.115 11.247c-1.887-2.612-7.215-2.95-11.489-2.898-1.868.024-3.536.12-4.628.134l-8.115-11.247c1.091-.014 2.759-.11 4.627-.133 4.275-.053 9.603.285 11.49 2.897"/><mask id="t" width="25" height="15" x="138" y="58" maskUnits="userSpaceOnUse" style="mask-type:luminance"><path fill="#fff" d="m154.366 61.034 8.116 11.246c-1.888-2.611-7.215-2.95-11.49-2.897-1.868.024-3.536.119-4.628.133l-8.115-11.246c1.091-.015 2.759-.11 4.627-.134 4.275-.052 9.603.286 11.49 2.898"/></mask><g mask="url(#t)"><path fill="url(#u)" d="m154.366 61.034 8.116 11.246c-1.888-2.611-7.215-2.95-11.49-2.897-1.868.024-3.536.119-4.628.133l-8.115-11.246c1.091-.015 2.759-.11 4.627-.134 4.275-.052 9.603.286 11.49 2.898"/></g><path fill="url(#v)" d="m129.06 81.745 8.115 11.247-6.738 17.208-8.116-11.246z"/><path fill="url(#w)" d="M110.217 108.371c-1.925.01-3.879 0-5.886.024l-10.755.124 8.115 11.247 10.756-.129q1.501-.014 2.974-.014c.982 0 1.949 0 2.912-.01l-8.116-11.246z"/><path fill="url(#x)" d="m170.534 54.253 8.115 11.247c1.382 1.916 1.749 4.484.758 7.91-1.949 6.768-6.543 10.866-12.233 13.235l-8.116-11.247c5.695-2.364 10.284-6.467 12.233-13.234.996-3.426.625-5.995-.757-7.91"/><mask id="y" width="21" height="33" x="159" y="54" maskUnits="userSpaceOnUse" style="mask-type:luminance"><path fill="#fff" d="m170.533 54.251 8.116 11.247c1.382 1.916 1.749 4.484.758 7.91-1.949 6.768-6.543 10.866-12.233 13.235l-8.116-11.247c5.695-2.364 10.284-6.467 12.233-13.234.996-3.426.624-5.995-.758-7.91"/></mask><g mask="url(#y)"><path fill="url(#z)" d="m170.534 54.252 8.115 11.247c1.382 1.915 1.749 4.484.758 7.91-1.949 6.767-6.543 10.866-12.233 13.234l-8.116-11.246c5.695-2.364 10.284-6.467 12.233-13.234.996-3.427.625-5.995-.757-7.911"/></g><path fill="url(#A)" d="m148.653 85 8.116 11.246c-2.225-3.083-8.864-3.464-14.125-3.402-2.211.024-4.175.128-5.471.147l-8.115-11.246c1.296-.015 3.264-.12 5.47-.148 5.262-.062 11.905.32 14.125 3.403"/><mask id="B" width="28" height="16" x="129" y="81" maskUnits="userSpaceOnUse" style="mask-type:luminance"><path fill="#fff" d="m148.653 85 8.116 11.246c-2.225-3.084-8.864-3.465-14.125-3.403-2.211.024-4.175.129-5.471.148l-8.115-11.247c1.296-.014 3.264-.119 5.47-.147 5.262-.062 11.905.319 14.125 3.402"/></mask><g mask="url(#B)"><path fill="url(#C)" d="m148.653 85 8.116 11.246c-2.225-3.083-8.864-3.464-14.125-3.402-2.211.024-4.175.128-5.471.147l-8.115-11.246c1.296-.015 3.264-.12 5.47-.148 5.262-.062 11.905.32 14.125 3.403"/></g><path fill="url(#D)" d="m125.009 108.39 8.116 11.247q-.2-.001-.4.004c-2.016.024-4.07.029-6.181.015l-8.116-11.247c2.111.014 4.165.009 6.181-.014q.2.001.4-.005"/><mask id="E" width="16" height="12" x="118" y="108" maskUnits="userSpaceOnUse" style="mask-type:luminance"><path fill="#fff" d="m125.012 108.392 8.116 11.246q-.2-.001-.4.005c-2.016.024-4.07.029-6.181.014l-8.116-11.246c2.111.014 4.165.009 6.181-.015q.2.001.4-.004"/></mask><g mask="url(#E)"><path fill="url(#F)" d="m125.012 108.392 8.116 11.247q-.2-.001-.4.005c-2.016.023-4.07.028-6.181.014l-8.116-11.247c2.111.014 4.165.01 6.181-.014q.2.001.4-.005"/></g><path fill="url(#G)" d="m118.421 108.409 8.116 11.247-5.028 12.853-8.116-11.247z"/><path fill="url(#H)" d="m113.396 121.26 8.115 11.247-8.254.095-8.115-11.246z"/><path fill="url(#I)" d="m133.339 108.122 8.115 11.247-5.08 12.962-8.115-11.247z"/><path fill="url(#J)" d="m128.261 121.085 8.116 11.247-8.263.1-8.116-11.246z"/><path fill="url(#K)" d="m165.65 79.096 8.115 11.247c1.869 2.587 1.788 6.5-1.062 12.328-6.043 12.357-17.066 15.784-31.248 16.699l-8.116-11.247c14.187-.92 25.21-4.346 31.248-16.699 2.85-5.828 2.926-9.74 1.063-12.328"/><mask id="L" width="43" height="41" x="133" y="79" maskUnits="userSpaceOnUse" style="mask-type:luminance"><path fill="#fff" d="m165.65 79.096 8.115 11.247c1.869 2.588 1.788 6.5-1.062 12.329-6.043 12.357-17.066 15.783-31.248 16.698l-8.116-11.247c14.187-.919 25.21-4.346 31.248-16.698 2.85-5.828 2.926-9.74 1.063-12.329"/></mask><g mask="url(#L)"><path fill="url(#M)" d="m165.65 79.096 8.115 11.247c1.869 2.588 1.788 6.5-1.062 12.329-6.043 12.357-17.066 15.783-31.248 16.698l-8.116-11.247c14.187-.919 25.21-4.346 31.248-16.698 2.85-5.828 2.926-9.74 1.063-12.329"/></g><path fill="url(#N)" d="M159.059 75.398c7.186 1.7 10.394 6.076 5.528 16.026-6.043 12.357-17.065 15.784-31.248 16.699l-5.08 12.967-8.263.095 5.008-12.791q-.2-.001-.4.005c-2.016.024-4.07.029-6.181.014l-5.027 12.853-8.254.095 5.075-12.986c-1.925.01-3.879 0-5.886.024l-10.755.129 5.294-9.355c.134 0 2.702.01 4.485-.014.891-.01 1.553-.029 1.529-.058 2.34-.028 3.584-1.625 4.122-2.625l8.045-20.55 5.723-14.63c.305-1.582-.067-3.407-3.412-3.374.048-.033-.581-.038-1.449-.028-1.777.019-4.417.1-4.556.1l3.27-8.35 11.399-.128c1.701.019 3.469-.033 5.275-.09l5.018-12.84 8.259-.094-4.928 12.585c2.226-.066 4.456-.133 6.634-.157l4.894-12.514 8.264-.096-5.028 12.844c10.322.757 17.556 3.764 14.878 13.01-1.949 6.767-6.543 10.865-12.233 13.234m-32.63 23.546c7.354-.086 19.334-.944 22.432-8.869 3.045-7.782-6.987-8.559-14.335-8.473-2.211.024-4.175.129-5.471.148l-6.738 17.208c.519-.004 1.143 0 1.844 0 .686 0 1.444 0 2.264-.01m11.828-40.687-6.11 15.607c.882-.01 2.107.014 3.541-.005 6.133-.071 16.031-.862 18.838-8.025 2.759-7.058-5.523-7.782-11.642-7.71-1.868.023-3.536.118-4.627.133"/></g><path stroke="#B9AC94" stroke-miterlimit="10" stroke-width="2.463" d="M140.919 140.998c-32.447 0-58.75-26.304-58.75-58.751s26.303-58.75 58.75-58.75S199.67 49.8 199.67 82.246s-26.303 58.751-58.751 58.751Z"/><path fill="#B9AC94" d="M169.978 39.156C187.733 52.5 196.059 76.21 190.517 97.77c8.409-21.118-.855-47.337-20.539-58.613M88.95 82.249c1.24-17.535 10.365-33.856 24.591-44.167-15.935 8.078-26.108 26.384-24.592 44.167"/><path fill="url(#O)" d="M140.919 140.998c-32.447 0-58.75-26.304-58.75-58.751s26.303-58.75 58.75-58.75S199.67 49.8 199.67 82.246s-26.303 58.751-58.751 58.751"/><path fill="url(#P)" d="M96.061 56.002c8.437-14.392 23.627-24.455 41.548-25.613a51.5 51.5 0 0 1 15.632 1.351"/><path fill="url(#Q)" d="M144.227 134.078c-18.61 1.186-35.565-7.581-45.655-21.724Z"/></g><path fill="#fff" d="m40.238 163.102 107.715 56.242L41.01 161.641zM47.464 161.613l58.641 30.217-57.869-31.65z"/><defs><linearGradient id="b" x1="273.888" x2="744.078" y1="162.195" y2="363.136" gradientUnits="userSpaceOnUse"><stop stop-color="#E4735D"/><stop offset="1" stop-color="#7E4033" stop-opacity="0"/></linearGradient><linearGradient id="c" x1="247.064" x2="717.254" y1="244.117" y2="445.058" gradientUnits="userSpaceOnUse"><stop stop-color="#E4735D"/><stop offset="1" stop-color="#7E4033" stop-opacity="0"/></linearGradient><linearGradient id="d" x1="255.494" x2="725.683" y1="200.805" y2="401.746" gradientUnits="userSpaceOnUse"><stop stop-color="#E4735D"/><stop offset="1" stop-color="#7E4033" stop-opacity="0"/></linearGradient><linearGradient id="e" x1="239.893" x2="191.15" y1="156.377" y2="156.377" gradientUnits="userSpaceOnUse"><stop offset=".04" stop-color="#BEF5EB"/><stop offset=".08" stop-color="#C7D3E1"/><stop offset=".47" stop-color="#ED4F35"/><stop offset="1" stop-color="#BEF5EB"/></linearGradient><linearGradient id="f" x1="279.366" x2="191.639" y1="143.5" y2="143.5" gradientUnits="userSpaceOnUse"><stop offset=".04" stop-color="#BEF5EB"/><stop offset=".08" stop-color="#C7D3E1"/><stop offset=".47" stop-color="#ED4F35"/><stop offset="1" stop-color="#BEF5EB"/></linearGradient><linearGradient id="g" x1="267.877" x2=".011" y1="145.763" y2="145.763" gradientUnits="userSpaceOnUse"><stop offset=".04" stop-color="#BEF5EB"/><stop offset=".12" stop-color="#8FE6EF"/><stop offset=".22" stop-color="#5CD7F4"/><stop offset=".31" stop-color="#34CBF8"/><stop offset=".4" stop-color="#17C3FB"/><stop offset=".47" stop-color="#06BDFD"/><stop offset=".52" stop-color="#00BCFE"/><stop offset=".72" stop-color="#0F85D4"/><stop offset="1" stop-color="#263495"/></linearGradient><linearGradient id="h" x1="35.051" x2=".01" y1="94.18" y2="94.18" gradientUnits="userSpaceOnUse"><stop offset=".04" stop-color="#BEF5EB"/><stop offset=".08" stop-color="#C7D3E1"/><stop offset=".47" stop-color="#ED4F35"/><stop offset="1" stop-color="#BEF5EB"/></linearGradient><linearGradient id="i" x1="70.356" x2="92.459" y1="159.577" y2="114.394" gradientUnits="userSpaceOnUse"><stop/><stop offset=".625" stop-opacity="0"/></linearGradient><linearGradient id="j" x1="13.29" x2="13.29" y1="108.536" y2="83.402" gradientUnits="userSpaceOnUse"><stop/><stop offset="1" stop-opacity="0"/></linearGradient><linearGradient id="k" x1="222.583" x2="173.619" y1="200.655" y2="200.655" gradientUnits="userSpaceOnUse"><stop offset=".04" stop-color="#BEF5EB"/><stop offset=".08" stop-color="#C7D3E1"/><stop offset=".47" stop-color="#ED4F35"/><stop offset="1" stop-color="#BEF5EB"/></linearGradient><linearGradient id="l" x1="251.723" x2="149.357" y1="223.595" y2="223.595" gradientUnits="userSpaceOnUse"><stop offset=".04" stop-color="#BEF5EB"/><stop offset=".08" stop-color="#C7D3E1"/><stop offset=".47" stop-color="#ED4F35"/><stop offset="1" stop-color="#BEF5EB"/></linearGradient><linearGradient id="o" x1="112.829" x2="131.176" y1="62.699" y2="64.75" gradientUnits="userSpaceOnUse"><stop offset=".04" stop-color="#EDE6E5"/><stop offset=".1" stop-color="#EDD2C4"/><stop offset=".21" stop-color="#EDB491"/><stop offset=".3" stop-color="#ED9C69"/><stop offset=".39" stop-color="#ED8B4C"/><stop offset=".47" stop-color="#ED803B"/><stop offset=".52" stop-color="#ED7D35"/><stop offset="1" stop-color="#ED4F35"/></linearGradient><linearGradient id="p" x1="141.807" x2="154.537" y1="47.692" y2="49.115" gradientUnits="userSpaceOnUse"><stop offset=".04" stop-color="#EDE6E5"/><stop offset=".1" stop-color="#EDD2C4"/><stop offset=".21" stop-color="#EDB491"/><stop offset=".3" stop-color="#ED9C69"/><stop offset=".39" stop-color="#ED8B4C"/><stop offset=".47" stop-color="#ED803B"/><stop offset=".52" stop-color="#ED7D35"/><stop offset="1" stop-color="#ED4F35"/></linearGradient><linearGradient id="q" x1="156.589" x2="169.396" y1="47.638" y2="49.07" gradientUnits="userSpaceOnUse"><stop offset=".04" stop-color="#EDE6E5"/><stop offset=".1" stop-color="#EDD2C4"/><stop offset=".21" stop-color="#EDB491"/><stop offset=".3" stop-color="#ED9C69"/><stop offset=".39" stop-color="#ED8B4C"/><stop offset=".47" stop-color="#ED803B"/><stop offset=".52" stop-color="#ED7D35"/><stop offset="1" stop-color="#ED4F35"/></linearGradient><linearGradient id="r" x1="132.476" x2="146.044" y1="70.927" y2="72.445" gradientUnits="userSpaceOnUse"><stop offset=".04" stop-color="#EDE6E5"/><stop offset=".1" stop-color="#EDD2C4"/><stop offset=".21" stop-color="#EDB491"/><stop offset=".3" stop-color="#ED9C69"/><stop offset=".39" stop-color="#ED8B4C"/><stop offset=".47" stop-color="#ED803B"/><stop offset=".52" stop-color="#ED7D35"/><stop offset="1" stop-color="#ED4F35"/></linearGradient><linearGradient id="s" x1="137.685" x2="163.165" y1="63.348" y2="66.197" gradientUnits="userSpaceOnUse"><stop offset=".04" stop-color="#EDE6E5"/><stop offset=".1" stop-color="#EDD2C4"/><stop offset=".21" stop-color="#EDB491"/><stop offset=".3" stop-color="#ED9C69"/><stop offset=".39" stop-color="#ED8B4C"/><stop offset=".47" stop-color="#ED803B"/><stop offset=".52" stop-color="#ED7D35"/><stop offset="1" stop-color="#ED4F35"/></linearGradient><linearGradient id="u" x1="137.685" x2="163.165" y1="63.352" y2="66.201" gradientUnits="userSpaceOnUse"><stop offset=".04" stop-color="#EDE6E5"/><stop offset=".1" stop-color="#EDD2C4"/><stop offset=".21" stop-color="#EDB491"/><stop offset=".3" stop-color="#ED9C69"/><stop offset=".39" stop-color="#ED8B4C"/><stop offset=".47" stop-color="#ED803B"/><stop offset=".52" stop-color="#ED7D35"/><stop offset="1" stop-color="#ED4F35"/></linearGradient><linearGradient id="v" x1="122.745" x2="136.759" y1="95.186" y2="96.753" gradientUnits="userSpaceOnUse"><stop offset=".04" stop-color="#EDE6E5"/><stop offset=".1" stop-color="#EDD2C4"/><stop offset=".21" stop-color="#EDB491"/><stop offset=".3" stop-color="#ED9C69"/><stop offset=".39" stop-color="#ED8B4C"/><stop offset=".47" stop-color="#ED803B"/><stop offset=".52" stop-color="#ED7D35"/><stop offset="1" stop-color="#ED4F35"/></linearGradient><linearGradient id="w" x1="93.116" x2="118.795" y1="112.633" y2="115.505" gradientUnits="userSpaceOnUse"><stop offset=".04" stop-color="#EDE6E5"/><stop offset=".1" stop-color="#EDD2C4"/><stop offset=".21" stop-color="#EDB491"/><stop offset=".3" stop-color="#ED9C69"/><stop offset=".39" stop-color="#ED8B4C"/><stop offset=".47" stop-color="#ED803B"/><stop offset=".52" stop-color="#ED7D35"/><stop offset="1" stop-color="#ED4F35"/></linearGradient><linearGradient id="x" x1="159.729" x2="179.833" y1="69.424" y2="71.672" gradientUnits="userSpaceOnUse"><stop offset=".04" stop-color="#EDE6E5"/><stop offset=".1" stop-color="#EDD2C4"/><stop offset=".21" stop-color="#EDB491"/><stop offset=".3" stop-color="#ED9C69"/><stop offset=".39" stop-color="#ED8B4C"/><stop offset=".47" stop-color="#ED803B"/><stop offset=".52" stop-color="#ED7D35"/><stop offset="1" stop-color="#ED4F35"/></linearGradient><linearGradient id="z" x1="164.882" x2="184.986" y1="69.999" y2="72.247" gradientUnits="userSpaceOnUse"><stop offset=".04" stop-color="#EDE6E5"/><stop offset=".1" stop-color="#EDD2C4"/><stop offset=".21" stop-color="#EDB491"/><stop offset=".3" stop-color="#ED9C69"/><stop offset=".39" stop-color="#ED8B4C"/><stop offset=".47" stop-color="#ED803B"/><stop offset=".52" stop-color="#ED7D35"/><stop offset="1" stop-color="#ED4F35"/></linearGradient><linearGradient id="A" x1="128.498" x2="157.473" y1="86.776" y2="90.016" gradientUnits="userSpaceOnUse"><stop offset=".04" stop-color="#EDE6E5"/><stop offset=".1" stop-color="#EDD2C4"/><stop offset=".21" stop-color="#EDB491"/><stop offset=".3" stop-color="#ED9C69"/><stop offset=".39" stop-color="#ED8B4C"/><stop offset=".47" stop-color="#ED803B"/><stop offset=".52" stop-color="#ED7D35"/><stop offset="1" stop-color="#ED4F35"/></linearGradient><linearGradient id="C" x1="128.498" x2="157.473" y1="86.776" y2="90.016" gradientUnits="userSpaceOnUse"><stop offset=".04" stop-color="#EDE6E5"/><stop offset=".1" stop-color="#EDD2C4"/><stop offset=".21" stop-color="#EDB491"/><stop offset=".3" stop-color="#ED9C69"/><stop offset=".39" stop-color="#ED8B4C"/><stop offset=".47" stop-color="#ED803B"/><stop offset=".52" stop-color="#ED7D35"/><stop offset="1" stop-color="#ED4F35"/></linearGradient><linearGradient id="D" x1="117.898" x2="133.66" y1="113.145" y2="114.907" gradientUnits="userSpaceOnUse"><stop offset=".04" stop-color="#EDE6E5"/><stop offset=".1" stop-color="#EDD2C4"/><stop offset=".21" stop-color="#EDB491"/><stop offset=".3" stop-color="#ED9C69"/><stop offset=".39" stop-color="#ED8B4C"/><stop offset=".47" stop-color="#ED803B"/><stop offset=".52" stop-color="#ED7D35"/><stop offset="1" stop-color="#ED4F35"/></linearGradient><linearGradient id="F" x1="117.902" x2="133.663" y1="113.147" y2="114.909" gradientUnits="userSpaceOnUse"><stop offset=".04" stop-color="#EDE6E5"/><stop offset=".1" stop-color="#EDD2C4"/><stop offset=".21" stop-color="#EDB491"/><stop offset=".3" stop-color="#ED9C69"/><stop offset=".39" stop-color="#ED8B4C"/><stop offset=".47" stop-color="#ED803B"/><stop offset=".52" stop-color="#ED7D35"/><stop offset="1" stop-color="#ED4F35"/></linearGradient><linearGradient id="G" x1="113.567" x2="126.368" y1="119.744" y2="121.175" gradientUnits="userSpaceOnUse"><stop offset=".04" stop-color="#EDE6E5"/><stop offset=".1" stop-color="#EDD2C4"/><stop offset=".21" stop-color="#EDB491"/><stop offset=".3" stop-color="#ED9C69"/><stop offset=".39" stop-color="#ED8B4C"/><stop offset=".47" stop-color="#ED803B"/><stop offset=".52" stop-color="#ED7D35"/><stop offset="1" stop-color="#ED4F35"/></linearGradient><linearGradient id="H" x1="104.626" x2="122.031" y1="125.959" y2="127.905" gradientUnits="userSpaceOnUse"><stop offset=".04" stop-color="#EDE6E5"/><stop offset=".1" stop-color="#EDD2C4"/><stop offset=".21" stop-color="#EDB491"/><stop offset=".3" stop-color="#ED9C69"/><stop offset=".39" stop-color="#ED8B4C"/><stop offset=".47" stop-color="#ED803B"/><stop offset=".52" stop-color="#ED7D35"/><stop offset="1" stop-color="#ED4F35"/></linearGradient><linearGradient id="I" x1="128.436" x2="141.28" y1="119.506" y2="120.942" gradientUnits="userSpaceOnUse"><stop offset=".04" stop-color="#EDE6E5"/><stop offset=".1" stop-color="#EDD2C4"/><stop offset=".21" stop-color="#EDB491"/><stop offset=".3" stop-color="#ED9C69"/><stop offset=".39" stop-color="#ED8B4C"/><stop offset=".47" stop-color="#ED803B"/><stop offset=".52" stop-color="#ED7D35"/><stop offset="1" stop-color="#ED4F35"/></linearGradient><linearGradient id="J" x1="119.484" x2="136.894" y1="125.785" y2="127.732" gradientUnits="userSpaceOnUse"><stop offset=".04" stop-color="#EDE6E5"/><stop offset=".1" stop-color="#EDD2C4"/><stop offset=".21" stop-color="#EDB491"/><stop offset=".3" stop-color="#ED9C69"/><stop offset=".39" stop-color="#ED8B4C"/><stop offset=".47" stop-color="#ED803B"/><stop offset=".52" stop-color="#ED7D35"/><stop offset="1" stop-color="#ED4F35"/></linearGradient><linearGradient id="K" x1="134.571" x2="174.316" y1="97.109" y2="101.553" gradientUnits="userSpaceOnUse"><stop offset=".04" stop-color="#EDE6E5"/><stop offset=".1" stop-color="#EDD2C4"/><stop offset=".21" stop-color="#EDB491"/><stop offset=".3" stop-color="#ED9C69"/><stop offset=".39" stop-color="#ED8B4C"/><stop offset=".47" stop-color="#ED803B"/><stop offset=".52" stop-color="#ED7D35"/><stop offset="1" stop-color="#ED4F35"/></linearGradient><linearGradient id="M" x1="144.513" x2="184.162" y1="98.043" y2="103.254" gradientUnits="userSpaceOnUse"><stop offset=".04" stop-color="#EDE6E5"/><stop offset=".1" stop-color="#EDD2C4"/><stop offset=".21" stop-color="#EDB491"/><stop offset=".3" stop-color="#ED9C69"/><stop offset=".39" stop-color="#ED8B4C"/><stop offset=".47" stop-color="#ED803B"/><stop offset=".52" stop-color="#ED7D35"/><stop offset="1" stop-color="#ED4F35"/></linearGradient><linearGradient id="N" x1="106.916" x2="169.308" y1="94.285" y2="57.734" gradientUnits="userSpaceOnUse"><stop offset=".04" stop-color="#EDE6E5"/><stop offset=".1" stop-color="#EDD2C4"/><stop offset=".21" stop-color="#EDB491"/><stop offset=".3" stop-color="#ED9C69"/><stop offset=".39" stop-color="#ED8B4C"/><stop offset=".47" stop-color="#ED803B"/><stop offset=".52" stop-color="#ED7D35"/><stop offset="1" stop-color="#ED4F35"/></linearGradient><linearGradient id="O" x1="137.502" x2="145.005" y1="21.162" y2="138.452" gradientUnits="userSpaceOnUse"><stop stop-color="#EFDC8D"/><stop offset=".07" stop-color="#EFDC8D" stop-opacity=".672"/><stop offset=".17" stop-color="#EFDC8D" stop-opacity=".36"/><stop offset=".27" stop-color="#EFDC8D" stop-opacity=".176"/><stop offset=".38" stop-color="#EFDC8D" stop-opacity=".073"/><stop offset=".48" stop-color="#EFDC8D" stop-opacity=".022"/><stop offset=".58" stop-color="#EFDC8D" stop-opacity=".01"/><stop offset=".68" stop-color="#EFDC8D" stop-opacity=".01"/><stop offset=".78" stop-color="#EFDC8D" stop-opacity="0"/></linearGradient><linearGradient id="P" x1="124.178" x2="125.64" y1="28.839" y2="51.703" gradientUnits="userSpaceOnUse"><stop stop-color="#EFDC8D"/><stop offset=".07" stop-color="#EFDC8D" stop-opacity=".672"/><stop offset=".17" stop-color="#EFDC8D" stop-opacity=".36"/><stop offset=".27" stop-color="#EFDC8D" stop-opacity=".176"/><stop offset=".38" stop-color="#EFDC8D" stop-opacity=".073"/><stop offset=".48" stop-color="#EFDC8D" stop-opacity=".022"/><stop offset=".58" stop-color="#EFDC8D" stop-opacity=".01"/><stop offset=".68" stop-color="#EFDC8D" stop-opacity=".01"/><stop offset=".78" stop-color="#EFDC8D" stop-opacity="0"/></linearGradient><linearGradient id="Q" x1="120.935" x2="122.504" y1="108.554" y2="133.068" gradientUnits="userSpaceOnUse"><stop stop-color="#EFDC8D"/><stop offset=".07" stop-color="#EFDC8D" stop-opacity=".672"/><stop offset=".17" stop-color="#EFDC8D" stop-opacity=".36"/><stop offset=".27" stop-color="#EFDC8D" stop-opacity=".176"/><stop offset=".38" stop-color="#EFDC8D" stop-opacity=".073"/><stop offset=".48" stop-color="#EFDC8D" stop-opacity=".022"/><stop offset=".58" stop-color="#EFDC8D" stop-opacity=".01"/><stop offset=".68" stop-color="#EFDC8D" stop-opacity=".01"/><stop offset=".78" stop-color="#EFDC8D" stop-opacity="0"/></linearGradient><clipPath id="a"><path fill="#fff" d="M745.078 159.902h-499.01v287.487h499.01z"/></clipPath><clipPath id="n"><path fill="#fff" d="M93.576 36.31h86.399v96.294h-86.4z"/></clipPath></defs></svg>