<svg xmlns="http://www.w3.org/2000/svg" width="501" height="313" fill="none"><path fill="#617783" d="M10 281.249c-5.523 0-10-4.477-10-10V26.835c0-5.645 4.655-10.17 10.297-9.976 12.526.428 33.576 1.2 46.346 1.95 19.079 1.13 50.592 2.584 54.675 9.315 4.096 6.732.248 6.27 11.989 12.195s30.772 13.01 50.704 32.389c19.933 19.378 12.992 18.278 47.363 31.141 34.372 12.863 100.171 37.115 122.9 51.147 22.716 14.043 14.983 19.074 31.352 28.96 16.357 9.875 16.295 12.136 32.578 24.281 10.569 7.878 46.466 36.253 70.39 55.221 7.417 5.881 3.242 17.791-6.224 17.791z"/><path fill="#434E43" d="M.3 281.219s86.176 5.208 107.986-.195c21.822-5.402 40.995 7.817 67.851 7.07 24.071-.682 66.128 14.171 74.585 17.256a9 9 0 0 0 3.185.542c8.994-.087 51.463-.466 59.383-.217 7.095.228 98.38.303 134.692.325 6.657 0 10.405-6.636 6.32-11.183-3.21-3.584-7.644-8.217-13.74-14.139-20.798-20.191-4.235-1.949-9.443-12.937-5.209-10.988-22.484-16.835-46.442-33.539-23.971-16.705 3.622-19.974-33.002-37.642s-45.418-25.084-77.407-39.374c-32.003-14.29-169.655-53.946-184.182-65.725-10.755-8.726-33.551 23.752-44.656 41.171-2.848 4.472-10.13 4.84-13.528.672C21.447 120.464 0 106.65 0 106.65z"/><path fill="#487270" d="M97.428 282.387zc.004-.031 2.803-26.78 10.68-31.743 7.879-4.955 11.822-6.225 18.629-7.094s8.791-1.38 16.241.755c7.439 2.132 12.373 1.814 19.22 2.889s25.648 5.868 28.808 8.19c3.163 2.312-2.448 4.567-.676 6.045 1.775 1.467 2.262 6.584 2.015 10.727-.244 4.134 2.454 3.64 2.291 11.312s-.864.053 6.111 6.973c3.209 3.188 6.469 8.078 9.052 12.424 2.17 3.652-1.165 7.828-5.282 6.781L97.442 282.411a.02.02 0 0 1-.014-.024"/><path fill="#383E31" d="M344.225 195.292s-47.308 3.166-65.404-6.333-55.149-26.506-79.084-26.072-27.174-2.711-53.061-.445c-25.886 2.277-65.153 28.423-78.246 32.034-13.093 3.622 4.127 10.686-13.331 11.66S10.455 205.066 0 194.244l.113 19.474s14.006 7.254 24.848 4.66c27.112 4.723 29.4 13.227 52.548 7 23.16-6.227 73.182-4.776 110.31-1.313s29.501-11.861 63.641-3.633 67.729 13.492 35.327 21.667-32.564 8.441-32.564 8.441.776 16.658 55.487 4.246c54.711-12.401 9.754 2.351 32.877 2.574 23.122.211 51.372-1.335 52.135 15.98.763 17.325 24.611 25.331 29.775 27.322 5.165 1.991 30.726.243 30.726.243s-4.802-14.73-19.471-22.006c-14.681-7.285 11.13-17.748-36.29-32.288s-10.092-12.687-30.764-31.505c-20.684-18.819-24.448-19.835-24.448-19.835z" opacity=".91"/><path fill="#4E5744" d="M111.898 98.738S93.612 83.874 66 78.941c-27.612-4.924-57.514 5.535-66 3.845v35.553z"/><path fill="#544943" d="M314.85 256.285s-5.4 1.673-9.522 5.316-8.084 8.015-8.718 9.042c-.634 1.017-1.532 1.472-2.832.508-1.3-.963.074-7.549 3.043-10.726 2.98-3.176 3.868-3.727 1.48-6.088s-10.24-4.447-12.565-4.669c-2.336-.233-4.28 1.09-5.717 1.768-1.448.677-2.885 2.975-4.154 3.589-1.268.625-3.698.286-2.927-1.44.772-1.736 3.414-4.722 3.762-5.252.349-.518 3.35-2.943 4.893-3.822s6.901-1.059 6.901-1.059c3.963.911 4.111 1.716 6.34.826 2.23-.889 17.384-7.507 21.981-6.099s4.396 2.404 8.676 5.654c4.291 3.262 7.366 3.706 12.565 7.264 5.189 3.568 10.029 4.299 15.725 7.147 5.696 2.838 11.646 6.385 16.856 12.463 5.209 6.077 7.968 6.67 14.308 8.746 6.341 2.064 13.781 8.322 21.653 9.19 7.873.868 26.198-2.838 43.022 10.207H345.253s-4.354-10.44-9.955-16.719c-5.601-6.268-7.218-3.621-9.405-7.274-2.188-3.642-11.043-18.572-11.043-18.572"/><path fill="#3F7544" d="M169.703 49.92c-2.991.858-6.235 2.277-7.958 3.908-2.282 2.17-6.689 5.03-8.105 9.18-1.416 4.161-4.787 9.381-4.766 12.854s5.59 13.267 5.59 13.267 2.346-.349 2.653 7.031c.105 2.584-1.374 1.948-2.336 2.382-1.775.805-3.646.858-3.646.858s3.118.042-4.375.582c-7.492.54-13.347 4.755-16.094 6.205s-.18-1.366-10.357 3.801c-10.176 5.168-7.26 16.349-7.26 16.349-1.891 9.572 6.024 17.619 8.211 19.938 2.188 2.308 1.131 2.573 1.131 2.573.032 3.727-.93 7.062-.93 7.062-.37 12.685 6.785 11.107 4.629 15.279s1.458 3.261-1.532 4.659c-2.991 1.408-2.082 5.421-2.907 5.58-.813.159-1.183-.837-4.332 3.557s-.529 11.415.084 12.728c.624 1.302 2.684 2.001 4.809 3.42 2.124 1.418 4.11 4.553 5.453 4.881 1.342.318 3.709 1.885 7.503 3.314 3.793 1.44 6.414 1.281 7.809-.614s1.702 0 3.826-.9 2.251-1.938 2.251-1.938 2.811 1.144 4.797 0c1.987-1.133 1.152-5.866.983-6.649s.476-1.186 1.976-1.44 2.441-2.192 2.441-2.192-.951-1.08 8.106 3.081c9.056 4.172 11.096 6.65 16.337 11.838 5.242 5.188 7.007 4.426 12.692 6.12s9.532 6.702 9.532 6.702c4.65 3.346 11.35 7.253 14.129 7.232s3.836 1.26 21.463 5.04c17.617 3.78 62.17.043 68.236-1.62 1.099-.296-.941 1.176-.782 3.388.169 2.277 3.899 3.992 4.544 3.706.824-.37 2.875-2.488 5.4-3.335 4.196-1.408 9.744-1.631 13.559-1.673 2.99-.032-3.298-4.691-.666-4.256a540 540 0 0 0 11.793 1.789c22.256 11.128 33.289 11.16 33.289 11.16 24.062.762 51.031-6.713 54.666-7.454 3.636-.741 5.4.985 8.296 1.186s4.238-1.483 6.637-1.684c2.388-.201 3.233 1.017 4.861 1.091 1.617.085 4.026-.053 10.398.91 6.373.964 7.377-1.418 7.377-1.418l1.204.381c5.009.487.719-1.514 3.953-1.557s2.441-2.859 2.441-2.859.211.964 2.504-.158c2.293-1.133.328-3.537.317-3.537l1.427-.36c1.363-.932.634-1.842.285-2.425-.338-.582-2.705-2.213-4.005-2.393s-3.635-.921-5.03-1.312c-1.395-.392-1.638-1.843-.55-2.161 1.089-.317 6.552 1.038 8.317.128 1.765-.922 1.987-2.51-.613-5.337s-6.689-2.054-6.689-2.054l-1.215-.117c-3.224-1.143-5.802-.127-8.169 1.239s-8.095 4.098-11.181 4.617c-3.086.529-6.298-.773-9.722-1.26s-5.517-1.408-7.915-.201c-2.399 1.207-6.024 4.256-14.372 2.382-8.338-1.864-15.271.053-18.885-3.251s-19.402-8.184-31.027-6.819c-11.624 1.366-10.145.128-10.145.128-13.04-10.155-20.86-7.19-24.538-9.128-3.688-1.927-8.655-2.964-8.655-2.964s4.861-13.172 9.892-22.723c5.03-9.561 7.989-25.221 6.847-34.698-1.13-9.476-1.69-13.098-.38-18.053s1.934-6.438.465-11.605c-1.469-5.156-.919-5.019-.919-5.019-.613-4.912-3.34-10.185-8.666-11.827-1.723-.53-9.87-3.007-18.272-.497l6.066-2.129c5.073-2.72 10.631-10.927 14.795-14.283 4.164-3.357 12.153-12.79 13.622-15.703 1.469-2.922 2.251-4.415 4.09-5.548s2.018-2.276 2.018-2.276 4.238 2.911 6.235 3.822c1.997.91 3.202 0 8.01-.053 4.809-.042 8.74 2.901 8.74 2.901s.613 3.081.993 3.42c.381.35 1.733-.148 1.733-.148l.888-1.768s.592.73 3.043.37c2.452-.35-.105-4.055-.655-4.616-.549-.561-1.025-1.768-1.606-2.277-.581-.508-.993-3.398-.56-3.028s2.621.254 3.709 1.61a212 212 0 0 1 2.875 3.716l2.028 3.907c1.934.487 1.554-1.472 1.554-1.472l.93.52c1.543.93 3.466-.308 3.318-.69-.148-.37-1.374-1.46-1.733-2.392-.349-.932-1.585-3.187-2.304-4.733s-2.134-3.664-2.134-3.664.169.17.887.34c.719.169 4.291 3.229 6.108 3.716 1.818.487 3.192-1.218 2.632-1.705-.56-.477-1.638-.604-2.853-2.33s-3.963-3.377-4.671-4.129-.529-1.747-2.854-2.33c-2.325-.582-8.57-.645-10.293-1.725-1.712-1.09-2.441-2.563-6.604-1.81-4.154.751-4.978 1.82-10.547 1.005-5.559-.815-14.055.868-15.661 1.641-1.607.773-4.206 2.796-6.563 5.517-2.356 2.732-3.012 2.403-3.012 2.403-4.28 1.832-9.563 7.91-14.9 10.208s-5.199 1.715-14.362 4.51-12.639 8.016-17.954 12.558c-5.316 4.532-8.232 3.219-8.232 3.219-12.83-.9-35.18 8.979-35.18 8.979-20.185-8.736-27.011.497-27.011.497-10.336.678-11.942 9.19-14.425 9.413-2.494.223-4.555-.624-8.539-1.186-3.984-.56-5.685-.158-6.827-1.853-1.141-1.694 1.025-2.054 2.103-2.54 1.078-.488 3.329-.869 4.164-2.193.835-1.334.095-4.489.095-4.489l1.321-1.758s-1.014-1.26-.444-1.44 1.152-.71 1.152-.71-.687-2.276-.021-3.366c3.868-1.99 3.117-2.944 1.807-4.712-.37-.498-1.289-1.09-1.638-1.715-.888-1.588-1.067-3.304-1.12-3.653-.064-.487-.592-9.847-.592-9.847s-1.522-3.156-3.868-4.733c-2.346-1.589-9.172-4.829-9.172-4.829s-8.434-1.757-11.91-1.154c-.867.148-1.839.381-2.843.667zm145.633 44.218c-5.241 1.863-19.296 15.416-19.296 15.416l-6.912 8.556s-12.036 9.931-16.401 17.767c-4.819 8.65-7.418 18.985-7.418 18.985-4.122 5.95-9.902 4.553-9.902 4.553s-7.873-.318-11.73-1.599-3.688-3.526-3.688-3.526l-.856-5.718-1.924-13.33 2.05-7.762.539-8.184s.782-2.912 5.517-3.558c4.734-.646 15.196-1.303 15.196-1.303s10.135-3.525 20.364-7.983c3.688-1.61 7.725-4.701 10.832-5.877 2.557-.963 15.376-2.89 15.376-2.89l6.954-3.092zm-11.18 88.793c.75-.063-1.226 13.183-.338 15.65-.656 1.45-6.901-1.557-8.37-2.171-1.501-.624.486-1.567 1.12-3.07.222-.519.476-.911.835-1.345.528-.625 6.013-9 6.763-9.064z"/><path fill="#111" d="M169.703 49.92c-2.928.9-5.95 2.012-8.212 4.15-2.303 2.055-4.861 3.907-6.594 6.502-1.173 1.715-1.617 3.79-2.536 5.633-1.236 2.816-2.822 5.57-3.361 8.63-.338 3.112 1.48 5.992 2.642 8.766.846 1.874 1.987 3.727 2.843 5.549 0-.022.042.042.021-.075.698.032 1.152.625 1.48 1.176.909 1.757 1.056 3.79 1.183 5.728.021.635.053 1.366-.38 1.906-.476.55-1.247.423-1.828.635a11.2 11.2 0 0 1-3.794.921v-.095l.423.021c.095.021.253-.01.264.106-.011.053-.032.032-.043.053l-.063.021c-.296.074-.634.106-.94.138l-1.67.159c-3.34.18-6.679.646-9.796 1.927-3.15 1.175-5.971 3.007-8.909 4.606-1.004.582-2.209.19-3.265.646-4.069 1.588-8.497 3.25-11.392 6.66-2.854 3.473-3.541 8.322-2.621 12.621-.803 4.214.275 8.576 2.367 12.272 1.025 1.853 2.272 3.589 3.656 5.209.455.868 4.777 4.289 3.276 5.167.254 1.663-.327 5.009-.845 6.957-.18 4.426.771 9.032 4.195 12.092.645.646 1.047 1.641.719 2.541-.581 1.482-1.532 2.816-.571 4.341.021.36-.274.498-.444.625-.803.445-1.616.752-2.145 1.461-.518.688-.803 1.525-.961 2.393l-.212 1.313c-.053.222-.074.455-.232.688-.212.275-.529.201-.729.201-.423-.053-.793.127-1.131.403-1.575 1.461-3.075 3.272-3.709 5.336-.518 1.673-.487 3.484-.265 5.22.265 1.737.719 3.473 1.427 5.083.877 1.503 2.8 2.064 4.195 3.017 2.357 1.25 3.667 3.982 5.939 5.199 4.037 1.26 10.663 6.417 14.721 3.272.529-.551 1.247-1.768 2.241-1.398.877.297 1.648.202 2.451-.222.751-.371 1.564-.921 1.786-1.641l.349-.021s-.042-.106-.074-.106l.032.01.063.021c5.326 1.642 6.235-1.281 5.516-5.855l-.095-.55c-.042-.18-.074-.435 0-.657.582-1.249 2.124-.762 3.044-1.514.655-.434 1.014-1.186 1.49-1.768-.085-.043-.212.254-.116.286-.022-.032-.032-.043-.043-.096-.359-1.556 11.868 4.553 12.872 5.125 2.029 1.112 4.005 2.361 5.801 3.844 3.615 2.858 6.394 6.744 10.283 9.19 2.959 1.779 6.626 1.843 9.817 3.156 3.149 1.281 6.288 3.79 8.243 6.247 3.931 2.71 8.031 5.474 12.597 6.946 1.553.37 3.244.222 4.755.804 6.203 1.779 12.481 3.272 18.79 4.564 6.319 1.154 12.786 1.387 19.222 1.482 16.053-.063 32.306-.603 48.147-3.229.105-.011.19-.064.401-.064.074.021.074-.021.212.053.137.085.2.233.19.297 0 .211-.042.233-.064.307-.655 1.143-1.405 2.446-.856 3.727.687 1.387 2.368 2.541 3.91 2.763.106-.042.286-.158.444-.264l.951-.72c4.862-3.992 11.604-3.791 17.553-4.045.212 0 .37-.011.508-.042.137-.064.126-.043.126-.106 0-.191-.211-.583-.422-.89-.36-.688-3.086-3.24-.877-3.24 1.933.339 9.965 1.461 11.983 1.8 9.659 4.68 19.72 9.064 30.351 10.832 5.178.678 10.853.244 16.063-.021 10.726-.794 21.368-2.605 31.872-4.934 3.942-.678 8-2.372 11.973-2.414 2.716.211 5.083 1.884 7.778 1.196 1.236-.275 2.388-1.016 3.794-1.376 1.384-.371 2.948-.159 4.206.444.634.276 1.173.477 1.786.487l2.018.053c2.716.096 5.411.424 8.084.816 2.22.286 4.608.582 6.573-.593.391-.265.561-.551.708-.911l.37.117 1.205.381-.095-.021c.38.021.771.074 1.141.063.37.021.772-.021.973-.095.01 0 .031-.011.052-.021-.01 0-.021 0-.01.01-.011.011 0 .032 0-.032 0-.116-.106-.36.01-.751.064-.223.212-.35.37-.466.666-.371 1.533-.201 2.177-.371 1.025-.18 1.48-1.164 1.205-2.181l.888-.222c-.053-.106.063.053.264.021.211 0 .454-.053.708-.138.909-.317 1.934-.752 1.691-1.842a3.3 3.3 0 0 0-.603-1.271l-.031-.032c.021.011-.064-.063.063.053.106.085.285.106.38.064l-.222-.9 1.427-.36c1.649-1.292-1.818-3.304-3.308-3.812-1.468-.243-3.688-.9-5.167-1.334-.708-.18-1.385-.498-1.712-1.239-.455-.783.19-1.916 1.12-1.959 2.811-.222 6.098 1.313 8.496-.127.867-.677.613-1.651.053-2.583-1.479-2.69-4.523-4.109-7.534-3.579-.043 0-.096.01-.138 0l-1.215-.117c-3.583-1.45-6.816.572-9.923 2.277-3.329 1.556-6.647 3.335-10.367 3.706-4.914-.032-9.469-1.991-14.288-2.15-2.346.075-4.216 2.044-6.488 2.69-3.519 1.292-7.419.963-10.991.148-3.54-.752-7.101-.783-10.726-.974-2.462-.159-5.083-.339-7.196-1.853-3.731-3.049-8.486-4.278-13.052-5.538-4.649-1.133-9.426-1.853-14.203-1.831-4.184 0-8.422.963-12.649.847-.581-.032-1.247-.022-1.775-.371-.296-.212-.317-.741-.011-.974l.011.741c-4.661-3.589-9.934-6.554-15.767-7.602-2.959-.689-6.035-.254-8.888-1.599-2.769-1.387-5.823-2.277-8.845-2.954l.18-.477c2.842-7.475 5.896-14.866 9.542-22.002 5.316-10.515 7.979-22.723 7.292-34.508-.402-3.949-1.025-7.909-1.173-11.933-.338-4.034 1.184-7.973 1.934-11.827.518-2.922-.539-5.823-1.258-8.661-.19-1.006-.602-2.044-.401-3.081.021-.043.042-.096.084-.138.085-.063.095-.169.412-.148l-.465.413c-.528-4.077-2.441-8.227-6.013-10.43-6.192-3.06-13.833-3.388-20.448-1.61l-.211-.666 6.076-2.128c3.424-1.96 6.478-5.591 9.257-8.651 2.716-3.335 6.161-6.014 9.173-9.074 2.959-3.092 5.781-6.353 8.327-9.784 1.353-1.715 2.093-3.695 3.266-5.538.782-1.45 2.356-2.265 3.561-3.303a2.88 2.88 0 0 0 .867-1.641c1.817 1.228 3.667 2.467 5.569 3.536.898.508 1.775.932 2.769.879 3.043-.19 6.266-.858 9.299-.064a17 17 0 0 1 5.802 2.648l.021.116c.275 1.07.391 2.33.919 3.282.434.117.962-.074 1.416-.211l-.158.137.898-1.768.169-.328c.645.773 1.945.677 2.917.572 1.099-.032 1.141-.996.771-1.822-.348-.868-.856-1.725-1.49-2.424-.708-.847-.961-1.673-1.733-2.457-.433-.942-.666-1.863-.592-2.89 0-.032.032-.106.053-.16-.021-.02.138-.2.286-.211.084 0 .253.085.264.095l.031.021.127.053c.106.032.222.064.328.085 1.226.233 2.652.582 3.392 1.684l.909 1.175 1.818 2.35.01.022.011.02 2.018 3.908-.169-.138c.359.074.771.138 1.036-.116.348-.339.2-1.112.116-1.588l.465.254.951.53c.845.507 1.997.327 2.758-.255.127-.074.19-.275.169-.138-.042-.095-.169-.243-.285-.38l-.708-.827c-.507-.53-.772-1.302-1.067-1.937-1.448-2.976-2.896-6.014-4.819-8.746l1.13.847c.106.116.582.222.782.275.571.19.973.582 1.448.879 1.395.953 2.758 2.054 4.301 2.721.74.318 1.585.244 2.219-.222.307-.212.592-.572.582-.837 0-.159-.169-.19-.275-.275l-.56-.307c-.793-.413-1.469-1.048-1.987-1.768-.972-1.377-2.388-2.372-3.751-3.41-.719-.455-1.385-1.228-1.744-1.948-1.596-1.842-4.872-1.366-7.133-1.81-1.744-.234-3.477-.287-5.115-1.06-.782-.455-1.395-1.069-2.114-1.46-2.314-1.208-4.977-.255-7.386.296-3.35 1.175-6.891.275-10.283.116-3.413-.063-6.848.34-10.187 1.038-1.701.318-3.265.847-4.629 1.938a28 28 0 0 0-3.815 3.409c-1.12 1.133-2.081 2.626-3.582 3.325-.137.032-.211.095-.454.02h.158c-4.819 2.352-8.422 6.672-13.125 9.298-4.745 2.657-10.166 3.515-15.281 5.145-5.21 1.398-9.86 4.257-13.706 8.037-3.646 3.155-8.053 9.021-13.474 7.983-5.833-.254-12.142 1.155-17.902 2.796-5.886 1.652-11.645 3.865-17.278 6.162-7.461-3.07-16.538-5.76-24.126-1.747-1.067.561-2.029 1.366-2.832 2.224-3.942.19-7.725 1.97-10.261 5.019-1.395 1.355-2.156 3.504-3.984 4.34-3.984.255-7.736-1.376-11.709-1.482-1.649-.105-3.847-.423-4.228-2.371a.95.95 0 0 1 .254-.72c4.28-2.711 7.862-1.006 6.446-7.762l1.321-1.757v.053a5 5 0 0 1-.433-.636c-.106-.222-.275-.476-.148-.762.211-.201.455-.19.687-.36.275-.117.444-.381.676-.434.022 0-.074.063-.074.021-.021-.042 0-.021-.01-.032v-.02l-.011-.054c-.243-1.07-.507-2.266.021-3.293 1.575-.847 3.932-2.033 2.272-4.023-.486-.826-1.268-1.366-1.891-2.065-1.638-2.33-1.332-5.506-1.575-8.195l-.327-5.623a15.8 15.8 0 0 0-2.325-3.388c-2.98-2.859-7.091-4.246-10.684-6.173-4.238-.688-8.655-1.864-12.924-.921l-1.818.423zm0 0 1.817-.424c4.259-.953 8.697.223 12.935.9 3.604 1.927 7.725 3.304 10.705 6.163a15 15 0 0 1 2.346 3.41l.338 5.61c.201 2.69 0 5.846 1.575 8.154.623.688 1.416 1.25 1.902 2.065 1.723 2.043-.761 3.324-2.272 4.108-.507 1.006-.243 2.234.011 3.282v.022c0-.032-.106.01-.074.02v.032l.084-.02c-.412.444-.813.582-1.278.836-.106.466.327.953.591 1.323l-.021.032-1.321 1.758v-.043c1.522 6.851-2.43 5.189-6.446 7.815-.349.36-.233.9.032 1.291.792 1.387 2.441 1.45 3.867 1.6 3.921.084 7.768 1.714 11.667 1.46 1.754-.836 2.536-2.964 3.9-4.299 2.546-3.08 6.383-4.902 10.356-5.093 4.851-5.336 13.696-4.785 20.29-2.932 1.934.571 4.861 1.609 6.763 2.424h-.084c8.422-3.547 17.109-6.65 26.113-8.322 3.022-.508 6.097-.91 9.172-.688 2.589.667 5.21-1.017 7.229-2.51 4.184-3.356 7.598-7.698 12.311-10.419 5.812-3.536 12.755-4.193 19.011-6.607 6.521-2.17 10.737-7.983 16.782-11.012.327.064.803-.286 1.099-.508 2.219-2.012 4.005-4.51 6.531-6.215 2.779-2.16 6.52-2.33 9.88-2.827 3.424-.466 6.933-.191 10.304.211 4.185.572 8.57-2.816 12.723-.857 1.533 1.059 2.59 1.97 4.523 2.128 2.558.434 5.115.455 7.683.974.835.212 1.765.54 2.314 1.345.455.815.888 1.334 1.649 1.853 1.353 1.037 2.811 2.054 3.847 3.505.613.868 1.469 1.482 2.409 1.937.243.127.518.37.507.657-.031.614-.412.953-.782 1.25-1.659 1.27-3.54-.086-4.956-1.007-1.247-.73-2.367-1.927-3.73-2.372-.233-.084-.412-.105-.687-.328l.38-.307c2.082 2.933 3.245 6.438 5.115 9.477l.698.815c.116.148.232.265.359.487.032.01.063.254.021.307-.053.19-.211.318-.338.434-.93.72-2.304.921-3.34.307l-.94-.519.38-.275c.191.773-.19 1.842-1.109 1.853a2.6 2.6 0 0 1-.761-.074l-.116-.021-.053-.106-2.029-3.907.021.042-1.818-2.34c-.507-.646-1.173-1.694-1.934-2.054-.792-.445-1.817-.455-2.652-.794l-.116-.074c-.043-.01.063.053.095.02.095.033.19-.126.158-.084-.053.773.18 1.81.529 2.52.222.297.697.773.887 1.176.772 1.334 1.871 2.318 2.389 3.79.38.89.412 2.266-.825 2.499-1.162.18-2.504.381-3.508-.424l.465-.052-.888 1.768-.053.106c-.655.211-1.881.677-2.303-.149-.455-1.08-.656-2.191-.899-3.314l.106.17a16.7 16.7 0 0 0-5.506-2.478c-1.965-.508-4.016-.381-6.055-.201-2.04.265-4.343.656-6.161-.657-1.818-1.016-3.54-2.16-5.263-3.314l.476-.212c-.37 1.271-1.342 1.96-2.251 2.552-2.769 1.758-3.414 5.326-5.421 7.75-3.245 4.321-6.774 8.419-10.684 12.146a58 58 0 0 0-6.827 6.787c-2.927 3.198-5.696 6.66-9.532 8.852l-6.066 2.128-.211-.667c6.805-2.033 19.782-1.662 24.263 4.595 1.765 2.33 2.769 5.157 3.149 8.026l-.465.413c.286.021.275-.063.338-.106q.032-.032.032-.063v.01c.074 1.885.772 3.664 1.215 5.496 1.353 3.917.18 8.11-.887 11.922-1.279 5.866.169 11.817.687 17.735.718 11.997-1.934 24.248-7.324 34.984-3.603 7.084-6.636 14.474-9.458 21.918l-.327-.593c2.948.678 5.833 1.535 8.57 2.901 2.6 1.207 5.833.847 8.644 1.493 2.98.551 5.865 1.557 8.571 2.901 2.705 1.356 5.22 3.029 7.619 4.85v.741c.159-.095.159-.413.021-.487.286.064.835.169 1.205.148 4.238.096 8.348-.857 12.607-.868 7.324.021 14.573 1.461 21.421 3.992 2.261.857 4.607 1.948 6.436 3.526 1.817 1.313 4.29 1.493 6.647 1.641 3.593.169 7.313.222 10.874.974 3.456.773 7.08 1.112 10.43-.116 2.336-.689 4.248-2.7 6.806-2.743 2.568.053 4.755.72 7.27 1.08 3.572.794 6.943 1.79 10.388.339 2.251-.773 4.449-1.758 6.584-2.827 3.17-1.779 6.859-3.875 10.589-2.329l-.116-.022 1.215.117h-.137c1.69-.244 3.381-.064 4.945.635 2.822 1.197 6.679 6.406 2.103 7.888-2.42.487-4.84-.211-7.228-.317-.803-.064-1.078.169-.888.646.095.222.328.423.603.55.074.032.148.053.222.085l.285.085.571.169 2.272.646c.38.095.76.201 1.13.275 1.575.17 3.223 1.091 4.439 2.107.306.233.676.689.845 1.038.212.36.444.921.264 1.493-.211.582-.591.921-1.004 1.186l-.084.021-1.427.36-.222-.9a.5.5 0 0 1 .423.106c.137.138.063.074.095.095l.042.053.074.095c.307.466.592.985.687 1.557.381 1.874-1.68 2.986-3.318 3.071-.338-.022-.909-.053-1.152-.752l.888-.223c.243.943.095 1.97-.613 2.669-.972.857-2.019.677-3.012.836l-.148.053c0 .011-.01 0 0 0-.01-.021 0 .148.032.424a.92.92 0 0 1-.127.54c-.433.55-1.258.561-1.796.54a9 9 0 0 1-1.321-.096l-1.205-.381.549-.254c-2.504 3.918-11.931.54-16.052.837l-2.018-.064c-1.427 0-2.558-.985-3.9-1.091-2.092-.286-3.593.996-5.654 1.504-2.789.762-5.4-.953-8.031-1.186-3.868.074-7.884 1.705-11.741 2.372-11.846 2.615-23.914 4.553-36.046 5.135-2.515.053-5.654.17-8.106.085-6.795-.148-13.368-2.446-19.698-4.691-4.871-1.81-10.472-4.341-14.721-6.512-1.923-.338-10.261-1.535-11.941-1.821h-.18c-.031 0 .011 0 .021-.021.043-.032.043-.085.043-.085.433 1.112 2.018 2.182 2.145 3.59.01.317-.317.667-.613.72a2.8 2.8 0 0 1-.687.074c-5.823.254-12.428.01-17.162 3.886l-.972.741c-.18.116-.338.244-.592.349-1.173.17-2.124-.614-3.043-1.175-2.494-1.736-2.251-4.087-.793-6.162 0 0 .021.116.116.169.106.032.043.021.064.032l-.191.042c-9.574 1.768-19.264 2.192-28.955 2.774-12.893.477-25.912 1.049-38.699-1.111-7.133-1.345-14.108-3.442-21.146-5.115-2.473.032-4.798-1.09-6.932-2.191-2.875-1.514-5.612-3.251-8.243-5.136-2.917-3.515-6.859-6.321-11.413-7.21-2.209-.562-4.576-.943-6.595-2.192-3.962-2.499-6.699-6.374-10.324-9.244-3.551-2.943-7.757-4.934-11.942-6.819-2.029-.836-4.005-1.916-6.15-2.393-.032 0-.011.011.021-.031.042-.053.042-.106.042-.127v-.022h-.01c.095.032-.021.339-.106.308l.127-.106c-.571 1.027-1.374 2.064-2.6 2.297-.655.149-1.5.223-1.796.837-.085.243.074.656.105 1.027.804 4.934-.475 7.962-6.013 6.247l-.074-.021c-.074-.011-.148-.085-.179-.148l.349-.022c-.307 1.006-1.152 1.462-1.987 1.917-.782.445-1.85.561-2.684.254-.413-.127-.751 0-1.047.307-3.307 4.564-9.606.529-13.505-1.175-.793-.381-1.585-.816-2.42-1.038-.93-.349-1.501-1.069-2.135-1.694-1.226-1.292-2.367-2.668-3.889-3.558-1.469-1.006-3.371-1.514-4.311-3.155-2.146-5.008-2.568-11.001 1.68-15.046.581-.635 1.321-1.493 2.293-1.398.592.085.56-.211.676-.667.349-2.679.835-4.246 3.435-5.347.169-.116.359-.254.328-.37-.032-.149-.191-.36-.265-.572-.19-.445-.179-.932-.105-1.387.2-1.144.951-2.012 1.078-3.113-.106-1.578-1.744-2.436-2.547-3.696-2.177-2.933-2.547-6.723-2.473-10.26.613-2.319.94-4.722.93-7.126.253-.031.296-.296.211-.571-.761-1.684-2.399-2.806-3.498-4.267-4.132-4.733-7.313-11.319-6.034-17.566-1.543-6.851 1.406-13.945 8.01-16.783 2.505-1.133 5.02-2.711 7.799-2.975a2.83 2.83 0 0 0 1.586-.329c4.808-2.752 9.775-5.675 15.418-6.236 1.522-.19 3.445-.244 4.998-.434.307-.043.624-.064.92-.138.031 0 .053-.032.031 0 .011.053 0 .032.011.032-.042-.01-.127-.021-.19-.032l-.412-.021v-.095c1.3-.074 2.578-.382 3.772-.91.613-.213 1.364-.096 1.797-.604.401-.498.391-1.208.359-1.843-.063-1.302-.19-2.605-.497-3.875-.348-1.207-.739-2.679-2.113-3.028l-.021.053c-1.976-3.622-3.953-7.296-5.199-11.245-.296-.985-.487-2.033-.296-3.07.549-3.071 2.134-5.824 3.381-8.64.93-1.843 1.374-3.919 2.547-5.634 1.744-2.594 4.301-4.447 6.605-6.501 2.272-2.139 5.294-3.24 8.222-4.14z"/><path fill="#111" d="M315.335 94.137c-3.762 1.715-6.858 4.574-10.029 7.189a221 221 0 0 0-9.109 8.386c.085-.106-6.858 8.598-6.837 8.577-5.569 4.86-11.107 10.027-15.281 16.158-1.955 3.102-3.466 6.533-4.851 9.953a98 98 0 0 0-3.498 10.651c-2.124 3.421-6.731 5.644-10.356 4.839-4.153-.444-15.439-.158-15.915-5.664-.919-5.718-1.87-12.77-2.769-18.932l-.01-.106.021-.095c.475-1.822 1.331-5.009 1.796-6.788l.127-.487.064-.243c.052-.191.063-.445.433-.551.327-.074.528.191.581.318l-.962.085.55-8.185c1.543-4.183 6.499-4.013 10.103-4.447 3.498-.318 7.873-.657 10.948-.784a329 329 0 0 0 11.677-4.309c3.826-1.567 7.789-2.944 11.403-4.913 3.614-2.001 7.091-4.659 11.297-5.21 4.058-.783 8.295-1.418 12.29-1.99l6.985-3.029 1.31-.444zm0 0c-.655.116-7.429 3.272-8.232 3.621-4.1.678-8.211 1.366-12.28 2.224-4.185.624-7.492 3.303-11.096 5.326-1.807 1.069-3.762 1.853-5.664 2.678-5.781 2.446-11.614 4.776-17.543 6.851-3.677.265-7.355.54-11.022.879-3.212.328-7.925.445-9.246 3.6l-.529 8.185-.961.084s0 .075.095.233c.306.371.75.096.813-.106l-.031.117-.064.243c-.528 2.002-1.373 5.252-1.902 7.275l.011-.202c.042.096 2.8 19.07 2.811 19.155.708 4.33 11.36 4.203 14.911 4.606 3.688.73 7.45-1.26 9.5-4.331.634-2.816 2.198-7.253 3.477-10.514 1.405-3.473 2.948-6.893 4.998-10.08 4.238-6.11 10.04-11.457 15.503-16.073 0-.011 6.985-8.513 6.985-8.524a221 221 0 0 1 9.279-8.227c3.212-2.562 6.372-5.379 10.166-7.02zM304.156 182.931c.243.191.148.646.18.932.032.635-.095 2.287-.116 2.954-.064 3.876-.75 8.005.084 11.796l-.074.158c-1.056 1.758-5.199-.349-6.668-.878-.475-.233-1.754-.763-2.208-.996-.222-.137-.624-.19-.878-.751-.232-.784.455-1.303.878-1.79.359-.392.676-.762.877-1.196.486-1.027 1.289-1.737 1.923-2.669a989 989 0 0 1 3.868-5.156c.602-.699 1.331-1.927 2.124-2.404zm0 0c-1.616 1.356-2.652 3.378-3.867 5.104-.835 1.45-2.737 4.045-3.371 5.4-.286.879-1.216 1.694-1.543 2.372.222.159 2.124.9 2.599 1.122 1.659.625 3.35 1.482 5.126 1.546.211-.011.296-.085.306-.095v.339c-.37-1.43-.169-2.69-.106-4.088.254-3.61.92-7.178 1.025-10.789-.031-.297.074-.731-.169-.932zM229.611 146.517c4.354-.233 7.197 5.389 7.704 9.127-2.124-3.399-3.699-7.687-7.704-9.127M226.694 193.095c1.216-.264 2.515-1.683 3.53-2.382 3.551-2.499 6.436-5.591 9.944-8.195-3.033 4.076-6.805 7.666-11.371 9.974-.634.296-1.352.709-2.103.603M221.961 178.864c3.868-1.069 6.943 2.256 9.035 5.061-3.17-1.704-5.326-4.584-9.035-5.061M156.999 95.842c.55.624.307 1.641.222 2.361-.179 2.255-.74 5.008-2.747 6.385 1.035-2.129 1.31-4.299 1.944-6.576.243-.773.687-1.376.581-2.17M188.069 97.122c-.042-1.408 1.205-2.404 2.547-2.404-.581 1.281-1.331 1.78-2.547 2.404M183.493 94.889c.698.307.465 1.313.296 1.884-.391 1.271-1.236 2.468-2.103 3.389-.444.455-.253.656-.074 1.302.402 1.355.423 2.806-.2 4.14-.645 1.313-1.765 2.022-2.579 3.028.761-1.821 2.261-3.07 2.061-5.093.137-1.26-.909-2.414-.307-3.61 1.184-1.356 2.547-2.467 3.097-4.193.074-.286.084-.614-.18-.837zM171.679 101.961c.391 3.145 1.733 6.776 2.177 9.942.232 2.976.359 6.015 1.247 8.831.285.784.792.487 1.669-.222 2.315-2.425 5.411-4.49 8.846-4.744-2.632.657-4.946 2.107-6.838 3.939-5.326 6.618-5.326-1.662-5.78-5.718.095-4.076-1.406-7.941-1.311-12.028zM151.515 103.539c-1.828.741-6.552 1.916-5.506 4.574 1.395 2.277 3.91 3.854 6.425 4.744 2.917 1.048 6.172 1.397 9.247 2.223.306.085.634.117.972.127 1.385.085 2.854-.476 4.248-.296.37.116.666.317.983.455.296.159.698.095 1.004.297-.327-.149-.697-.022-1.057-.149-.348-.106-.676-.275-.993-.328-.528-.063-1.469.254-2.029.36-1.384.371-2.927.424-4.343.064-2.78-.466-5.633-.795-8.402-1.769-2.747-.995-5.326-2.689-6.805-5.421-1.078-3.483 3.825-4.405 6.256-4.892z"/><path fill="#111" d="M158.005 84.088c.074-.095.158.064.2.117.106.116.328.572.413.72.306.614 1.067 2.361 1.352 3.018 1.617 3.917 3.223 8.364 4.83 12.229 1.162 2.795 1.754 5.665 2.399 8.534l.877 4.31.792 4.33c-1.342-4.013-2.451-8.576-3.646-12.663-1.225-4.236-3.17-8.175-4.385-12.378-.634-1.917-1.723-5.432-2.367-7.317l-.191-.508-.116-.254c-.042-.053-.095-.212-.169-.138zM127.495 137.814c.063 1.028 1.067 1.695 1.744 2.351.951.815 2.018 1.546 3.033 2.287.549.455 1.257.318 1.764.879.381.593.423 1.345.634 1.895 1.173 2.139 2.315 4.426 4.09 6.163a27 27 0 0 0 2.23 2.001c1.236 1.038 1.881 2.361 3.128 3.208 1.236.752 2.631 1.599 3.921 2.203 3.645 1.842 7.82 1.09 11.761 1.048l1.522-.032c1.501-.032 2.949-.836 4.47-.656-1.553 0-2.906.91-4.459 1.058l-1.511.149c-4.027.275-8.423 1.228-12.206-.689-1.363-.614-2.779-1.44-4.069-2.202-1.342-.815-2.145-2.382-3.223-3.314-.771-.646-1.564-1.345-2.272-2.097-1.849-1.863-3.001-4.224-4.1-6.596-.201-.646-.201-1.228-.455-1.747-.401-.35-1.194-.413-1.585-.826-.983-.794-1.976-1.62-2.874-2.52-.655-.72-1.606-1.504-1.554-2.552zM178.875 132.573c.507 2.901.359 5.506.993 8.523.074 2.806.423 5.655 1.194 8.355.455 2.234 1.818 3.97 3.583 5.389.845.762 1.765 1.451 2.599 2.245-1.923-1.218-3.994-2.287-5.558-4.14-2.103-2.849-2.473-6.639-2.727-10.08.011-1.006 0-2.383-.148-3.378-.359-2.298.169-4.606.074-6.904zM226.663 131.905c.454 3.367-.708 6.904-1.86 10.038-.698 1.588-1.575 3.113-2.801 4.405-1.268 1.27-2.79 1.99-3.994 3.197.898-1.482 2.367-2.52 3.392-3.758 2.04-2.616 3.139-5.824 4.1-8.979.434-1.642 1.142-3.187 1.173-4.903zM235.781 92.867c1.839 2.827-1.987 6.5-3.519 8.703-.37.498-.814 1.049-.941 1.525-.507 1.715.359 3.96-.201 5.834-.57 1.98-1.838 3.632-3.043 5.22-1.268 1.493-2.24 3.336-3.762 4.553-.444.445-.888.974-.867 1.652-.158-.667.243-1.345.655-1.842 1.364-1.462 2.146-3.251 3.308-4.839 1.036-1.61 2.188-3.177 2.705-5.009.465-1.948-.401-3.78.254-5.887 1.215-2.456 3.498-3.97 4.851-6.31.665-1.06 1.194-2.372.56-3.59z"/><path fill="#111" d="M230.646 105.009c3.71 2.288 8.233.117 12.238-.116 2.082-.286 4.164-.614 6.214-1.016 1.997-.413 4.015-1.324 6.161-1.409-2.072.487-3.858 1.62-5.971 2.213-2.061.572-4.153.943-6.256 1.26-4.037.244-9.014 2.16-12.386-.932M230.762 107.127c3.508 4.289 8.993 6.576 14.372 7.465-5.231.763-12.354-2.393-14.372-7.465M211.412 141.499c2.156-4.903 7.25-3.537 6.996 1.747.212 2.965-3.92 5.845-6.15 3.24-.602-.741-.898-1.61-1.067-2.478.634 1.451 1.838 3.113 3.582 2.658 1.49-.445 2.631-1.832 2.589-3.452.169-4.659-3.392-5.209-5.939-1.705z"/><path fill="#111" d="M214.805 142.071c2.039-.995 2.42 2.308.507 2.679.074-.636.37-1.525.127-2.107-.095-.17-.328-.35-.624-.583zM141.898 147.999c.285 1.313.148 2.859.518 4.077.275.275.951.232 1.437.095.655-.17 1.321-.466 2.061-.678-.497.583-1.046 1.091-1.765 1.451-3.699 1.588-3.149-2.806-2.251-4.945"/><path fill="#111" d="M143.442 150.317c-.138-.074-.265-.19-.402-.243.042.116.317.084.37-.064.148.053-.042 1.006-.042 1.207-.022.043.052.064-.064-.148-.032-.032-.084-.085-.137-.095-.021 0 .021 0 .031.01.191.096.286.032.138.159-.064.064-.032.117 0 .085.095-.138.095-.583.127-.9zm0 0c1.056.456.898 2.054-.465 1.694-1.216-.317-.444-1.535-.053-2.16.042-.18.274-.254.401-.148.18.17.127.402.117.625zM205.251 179.646c.507-.19 1.057-.9 1.48-1.26 6.14-5.982 15.333-9.18 23.777-7.2 1.258.382 2.483.826 3.794.869-1.311.201-2.642-.159-3.91-.371-6.383-.932-12.935.752-18.589 3.738-2.409 1.09-4.385 3.092-6.552 4.214z"/><path fill="#111" d="M215.672 178.843c-.866-.201-.518-.371.127-.466 2.209-.212 3.868-1.758 5.738-2.817.782-.412 1.459-1.005 2.346-1.228.613-.212.983.688.391.964-.222.106-.655.466-.961.741-1.068.752-.761 1.895-1.512 2.869-1.077 1.017-2.525-.381-3.497-.54-.423-.042-.878.149-1.279.339-.317.191-.983.17-1.353.127zm0 0c.349.032 1.046.021 1.332-.17.401-.211.813-.465 1.31-.455 1.067.064 1.966.815 2.853.413.465-.529.286-1.302.529-2.022.179-.625.57-.985.909-1.324.391-.328.602-.625 1.204-.932l.391.964c-2.536.889-5.527 2.975-8.422 3.092-.592.084-.993.201-.127.434zM196.417 213.668c3.276-.455 5.907-2.774 8.655-4.468 2.082-1.409 4.333-2.266 6.298-3.823 3.614-2.075 7.641-3.282 11.635-4.33 6.415-1.493 12.713-3.007 18.863-5.432 1.86-.752 3.826-1.302 5.506-2.372 2.219-1.789 4.037-3.981 5.665-6.31l1.384-2.033c2.335-2.933 2.43-6.851 3.054-10.419l.042-.307c.021 0-.042-.096.064-.032l-.011.074-.021.148-.085.614.043-.614v-.159l.021-.074c.021 0-.053-.021.053-.01v.063l-.021.307c-.286 2.88-.434 5.813-1.374 8.577-1.575 2.88-3.456 5.717-5.569 8.237-.994 1.102-1.987 2.235-3.255 3.039-1.681.858-3.435 1.504-5.168 2.182-6.097 2.52-12.554 4.065-18.969 5.463-3.921.985-7.894 2.15-11.466 4.013-1.944 1.461-4.375 2.351-6.436 3.642-2.821 1.546-5.611 3.802-8.919 4.035zM256.316 162.822c2.97 4.998 5.485 10.176 8.18 15.332 1.395 3.113 2.546 6.544 4.945 9.032-2.842-2.033-4.354-5.559-5.854-8.587-2.801-5.072-5.221-10.356-7.281-15.766zM362.457 208.058c6.869 2.498 14.224 3.727 20.934 6.638 3.424 1.44 7.102 1.43 10.621 2.436 2.674.709 5.252 1.503 7.989 1.906.898.169 1.85.444 2.505 1.111-.74-.571-1.659-.72-2.547-.825-2.737-.127-5.464-.837-8.137-1.398-3.583-.794-7.376-.815-10.8-2.224-6.753-2.964-13.96-4.351-20.576-7.634zM360.491 212.78c-3.381.688-6.721-1.355-9.563-2.944-2.98-1.588-6.182-2.668-9.036-4.574-1.638-1.111-3.159-2.329-4.903-3.24-.254-.106-.507-.264-.793-.222.571-.127 1.131.18 1.649.371 1.564.645 3.022 1.567 4.47 2.403 2.906 1.631 6.161 2.721 9.088 4.394 2.811 1.705 5.675 3.844 9.088 3.823zM479.441 226.808c-3.667.889-7.672-.17-10.472-2.637.951.064 1.817.604 2.599.869 2.589.826 5.147 1.207 7.873 1.778zM477.422 230.821c-2.018.571-3.952.042-5.833-.689-1.131-.476-1.966-1.26-3.033-1.853.813-.042 1.617.265 2.325.53.623.254 1.5.508 2.145.699 1.5.614 2.832.857 4.396 1.302zM473.25 233.161c-1.12 1.049-2.748.159-3.625-.836 1.363-.424 2.325.381 3.625.836M304.178 182.698c.253-2.774 1.31-5.591 1.257-8.386 0-2.817-1.648-5.284-2.356-8.142-1.628-9.212-1.86-18.816 1.215-27.742a21 21 0 0 1 3.794-7.814c1.278-1.535 3.255-3.028 3.265-5.114-.222-1.737-.57-3.6-.158-5.347.264-.879.909-1.546 1.226-2.393.052-.053.021-.212.147-.201.053.095-.01.18-.01.264 0-.084.042-.18 0-.254-.042-.021-.053.138-.095.201-.391 1.176-1.268 2.171-1.152 3.473-.042 1.462.306 2.806.56 4.236.085 1.556-.898 2.88-1.828 3.991-2.399 2.563-4.005 5.792-4.84 9.191-1.015 3.41-1.86 6.83-2.093 10.398-.496 5.622-.042 11.372.751 16.941.285 1.355.813 2.679 1.278 4.034.465 1.356.867 2.806.814 4.289-.074 2.138-.792 4.288-1.3 6.331l-.348 1.017c-.085.328-.254.699-.117 1.027zM322.131 131.577c4.756 6.512 4.037 15.078 2.653 22.585-.803 5.114-1.924 10.302-4.259 14.951-2.188 4.69-5.072 8.968-6.784 13.86-.782 2.107-1.512 4.256-2.072 6.427-.042.307-.179.656.011.932-.212-.265-.106-.636-.095-.943.391-2.234 1.014-4.415 1.669-6.586 2.262-7.38 7.239-13.764 8.983-21.282.666-2.467 1.162-4.987 1.606-7.518 1.427-7.465 2.494-15.596-1.701-22.426zM134.787 109.681c.761-.763 1.987-.466 2.948-.615 2.167-.222 5.443.202 4.555 3.304-.475 1.154-1.405 1.609-2.092 2.351.338-.975 1.152-1.779 1.299-2.584.37-2.181-2.187-2.054-3.772-2.245-.983 0-1.976-.561-2.938-.211M208.929 105.858c-1.649-1.97-2.843-4.934-1.342-7.317.158-.212.37-.053.56-.116-.106.159-.37.17-.317.275-.296 2.541.782 4.606 1.099 7.147zM125.995 167.863c.064-.212.349-.191.518-.17.37.043 1.236.382 1.606.498 2.071.635 4.058 1.461 6.256 1.377 2.98-.011 5.844.529 8.824.455-2.853.91-5.907.561-8.834.603-2.262.075-4.492-.931-6.468-1.958-.317-.191-1.088-.699-1.426-.816-.148-.053-.37-.159-.476.021zM125.466 173.019c2.166-1.038 4.65-.731 6.985-.942 6.584.635 12.132 4.659 17.595 8.026.212.105.899.603 1.131.645.042.011.211.043.148.159-.095.064-.158-.01-.232 0 .063-.01.169.022.2-.021.032-.053-.063-.053-.126-.063-.296 0-.962-.371-1.247-.477-5.739-2.552-11.255-6.416-17.522-7.465-2.293.032-4.681-.476-6.932.127zM122.655 178.196c1.12.043 2.188.519 3.266.657 2.219.254 4.449-.466 6.699-.096 2.199.297 4.27 1.144 6.478.773 1.057-.042 1.924-.656 2.991-.54 2.399.35 4.692 1.197 6.922 1.875 2.135.656 4.618.794 6.383 2.467 5.4 5.506-7.641 3.526-9.818 1.884-.93-.783-1.817-1.037-2.98-1.26-1.099-.381-1.955-1.143-3.075-1.313 1.131.053 2.135.763 3.149 1.038 1.12.106 2.272.392 3.181 1.08 1.924.953 4.174 1.228 6.351 1.324 1.269-.011 2.695.137 3.636-.636-.053.18-.011-.053-.159-.243-.232-.403-.602-.837-.961-1.186-1.596-1.461-3.953-1.535-6.014-2.15-2.155-.688-4.216-1.471-6.361-1.874-.486-.127-.909-.095-1.416.096-2.811 1.005-5.686-.075-8.412-.678-2.177-.424-4.439.148-6.647-.286-1.12-.233-2.114-.783-3.223-.932z"/><path fill="#111" d="M147.869 186.18c1.892.37 3.731 1.048 5.495 1.789 1.881.487 3.974.868 5.485 2.255 2.114 1.843.666 4.511-1.659 5.295-1.363.413-2.779.042-4.058-.318-1.871-.477-3.826-.572-5.643-1.345-1.131-.624-2.41-.932-3.519-1.535 1.162.371 2.525.593 3.698 1.048 1.797.614 3.794.519 5.675.921 1.681.413 3.657.816 4.872-.677 2.462-2.827-3.065-4.32-5.073-5.019-1.764-.89-3.413-1.715-5.262-2.414zM140.124 197.702c.687-.434 1.585.116 2.23.328 2.113.635 4.174 1.684 6.002 2.87-.274-.117-.57.063-.866-.043-1.945-.423-3.741-1.143-5.485-2.096-.666-.371-1.088-1.027-1.87-1.07zM138.273 202.115c1.216-.582 2.6.074 3.308 1.186-1.384.212-2.282-.317-3.308-1.186M144.288 186.149c-.635 1.186-.582 1.43-.983 2.711-1.3-.709-.518-3.102.983-2.711M141.179 192.8c-.465.317-.761.434-1.014.847-.222.286-.465.847-1.057 1.196-.18-.667-.18-1.196.201-1.8.401-.614 1.352-.773 1.881-.243zM137.155 198.092c-.159.815-.106 1.154-.983 1.598-.708-.73.074-2.022.983-1.598M135.41 202.762c.233.741.19 1.038-.644 1.165-.539-.614-.18-1.377.644-1.165M119.791 121.496c.845-.297 1.744.212 2.547.434 6.013 2.414 11.307-1.842 15.196-6.088-2.515 4.426-7.461 8.862-12.914 7.475-1.31-.254-2.462-.9-3.624-1.525-.381-.158-.782-.381-1.205-.307zM183.843 168.605c1.817-.784 3.054-2.457 5.051-3.198 5.072-2.191 10.198 1.377 13.315 5.178.497.519 1.237 1.038 1.395 1.758.053.127.053.158.095.031 0-.105-.074-.222-.095-.349.042.116.138.201.169.339 0 .063.021.18-.137.201-.296-.148-.317-.593-.571-.731-1.215-.836-2.388-1.831-3.466-2.795-2.843-2.456-6.721-4.119-10.43-2.88-1.807.498-3.34 2.001-5.337 2.425zM196.122 162.822c-.191-.137-.043-.434.074-.582.866-1.016 1.912-1.789 2.959-2.615 1.215-.868 2.451-1.652 3.857-2.298-1.67 2.33-4.069 3.939-6.616 5.125-.137.095-.338.18-.274.37M188.153 159.688c1.152.72 2.241 1.451 3.128 2.478.307.328.56.688.877 1.038-.517.042-.982-.18-1.384-.381-1.173-.699-2.399-1.705-2.631-3.135zM174.723 178.408c.444 1.535-.191 3.145-.191 4.617a29 29 0 0 0 .275 4.584c.116.731.254 1.525.529 2.097.232.423.951.709 1.659.857 1.437.318 2.969.382 4.512.424 6.235.296 12.502 2.022 17.669 5.569-5.474-2.784-11.592-4.256-17.701-4.521-1.553-.074-3.128-.116-4.713-.508-.856-.244-1.765-.529-2.24-1.408-.37-.847-.423-1.62-.507-2.425a29 29 0 0 1 .01-4.712c.19-1.599.909-3.017.708-4.585zM235.783 166.095c-.233-.889.951-1.471 1.511-1.927 1.913-1.408 2.959-3.896 5.157-5.019-1.575 2.415-2.864 5.316-5.854 6.205-.339.17-.74.318-.804.731zM249.224 196.547c.211-.466.739-.667 1.183-.868 3.287-1.122 6.616-2.213 10.092-2.605 9.68-1.186 20.142-3.346 29.463.667l5.4 2.467c-3.741-1.185-7.323-2.985-11.265-3.398-5.833-.752-11.772-.191-17.616.476-5.4.477-10.79 1.027-16.021 2.541-.454.149-.983.276-1.236.71zM303.776 198.919c1.965-.413 4.005.243 5.844.116 2.874-.18 5.759-1.313 8.718-1.397 2.758.074 5.432.339 8.126.847.106.032.434.116.539.159.032.01.064.021.085.042.053.021 0 .074-.021.063.148-.063-.233-.074-.254-.084-.222-.011-.866-.032-1.099-.043-3.403.149-6.827-.317-10.166.435-1.902.36-3.868.857-5.907.815-2.093-.032-3.879-.943-5.855-.943zM295.047 158.406c-1.649 1.927-3.329 3.854-4.819 5.909a2.3 2.3 0 0 0-.381.889c-1.299 4.119 1.089 8.809-.454 13.045-1.575 4.044-4.755 7.327-8.782 8.883-.37.074 0-.254.127-.349-.085.095-.19.191-.232.307-.022 0 .052-.011.074-.032 4.67-2.636 8.76-7.645 8.274-13.267-.201-2.88-.856-6.004.222-8.841.19-.731.793-1.366 1.268-1.927a48.5 48.5 0 0 1 4.703-4.617M285.788 81.578c1.046-.424 2.188.307 3.181.614 1.458.614 3.223 1.197 4.438 2.16.222.127.339.18.56.18 1.216.032 2.653-.148 3.667-.71 3.34-1.852 6.722-3.684 10.293-5.04.518-.18 1.036-.391 1.586-.433-1.734.677-4.048 2.234-5.707 3.144l-5.654 3.251c-1.12.582-2.251.73-3.392.784-.602.01-1.353-.011-1.839-.392-1.331-1.101-2.694-1.641-4.163-2.478-.93-.445-1.892-1.281-2.97-1.08"/><path fill="#111" d="M295.014 85.412c1.902-.032 2.505 3.97 2.071 5.41-.475 1.345-1.838 1.97-2.969 2.53-1.511.668-3.075 1.102-4.555 1.6-.401.148-2.43.931-2.811 1.048-.095.021-.359.137-.454.137-.053 0-.053.043-.021-.042.137.021.644-.19.919-.18-.381.074-.634.477-1.057.392-.116-.053-.148-.148-.148-.265.064-.19.169-.18.212-.212.084-.02.295-.169.369-.2 2.167-1.398 4.777-2.277 7.091-3.251 1.311-.593 2.78-1.303 2.716-2.912.053-1.123-.031-2.35-.528-3.378-.18-.328-.444-.656-.856-.688zM339.093 55.33c.412-.847 1.31-1.334 2.039-1.905 3.097-2.086 6.658-4.14 10.515-3.918 1.776.614 4.079.783 5.02 2.626.412.91.507 1.82.761 2.72-.476-.804-.698-1.746-1.205-2.456-.729-1.133-2.198-1.27-3.456-1.577-.887-.276-1.638-.445-2.515-.254-2.23.328-4.354 1.08-6.372 2.085-1.374.763-3.688 1.536-4.787 2.68"/><path fill="#111" d="M354.3 52.588c-11.529 10.302-23.745 21.367-39.354 24.618 1.839-.667 3.71-1.218 5.474-2.044 8.972-3.759 16.94-9.498 24.591-15.448 3.076-2.287 6.013-5.125 9.289-7.126M369.845 47.643c.286 2.287 2.515 3.801 3.974 5.432-2.167-.148-5.379-3.208-3.974-5.432M374.196 51.466c.761-.509 1.691-.89 2.082-1.631.317-.614.624-1.366.75-2.054-.01.063 0-.085 0-.085 0-.053.022-.116.043-.159.105-.254.528-.307.687-.063.137.148.222.497.317.603 1.416.964 2.716-.836 4.1-1.08.201-.01.423.117.518.19 1.331.763 3.392.742 4.935.424.201-.095.327-.328.708-.38.792.073.75.54 1.109.889.772.54 1.512 1.26 2.473 1.387.212.053.508.159.539.413-.095-.233-.348-.255-.57-.265-.951.042-1.839-.498-2.653-.943-.232-.116-.454-.338-.592-.518-.126-.18-.306-.244-.232-.212.053 0 0 .01-.074.085-.095.116-.381.339-.602.37-1.744.487-3.699.54-5.358-.243a1 1 0 0 1-.254-.127c-.053-.043-.095-.053-.063-.043.01 0 .052.021.116.021.074 0 .158-.031.095-.01-.761.286-1.353.762-2.156 1.059-.951.413-2.578.307-2.969-1.102-.043-.074.01.022.095.053.211.138.528 0 .57-.233v.053c-.19.837-.602 1.536-1.088 2.235-.698.825-1.649 1.037-2.505 1.344z"/><path fill="#111" d="M377.718 50.058c.38-.265.866-.032 1.257.032 1.712.296 3.562 1.207 4.354 2.837-1.553-.635-3.17-1.376-4.628-2.202-.36-.223-.55-.572-.983-.667M379.219 55.057c.486.18.866.031 1.384.053 1.532.116 2.906.825 3.857 2.054-1.49-.17-2.694-.73-3.984-1.24-.401-.137-1.067-.317-1.247-.867zM379.915 61.493c1.046-.55 2.441.021 2.906 1.08-1.226.201-2.113-.233-2.906-1.08M145.809 159.085c-.137 0 .116.318.137.36.571.9 1.226 1.864 1.765 2.775 1.839 3.261 4.143 6.109 5.95 9.444-3.583-3.303-6.468-7.443-7.862-12.155-.022-.106-.138-.466.01-.424M331.42 95.153c-2.558.974-5.189 2.467-5.115 5.548-.053.921.063 1.885.021 2.891-.38-.911-.729-1.832-.845-2.859-.571-3.505 2.737-5.792 5.939-5.58M202.948 151.832c-5.147 1.451-10.526 2.594-14.964 5.686-.264.169-.666.254-.951.339-1.955.561-4.005 1.164-5.77 2.16-.899.688-1.902 1.525-2.832 2.17-.444.382-.856.816-1.142 1.356.338-1.186 1.448-2.012 2.251-2.806 1.818-2.118 4.629-3.05 7.207-3.865.201-.063.582-.148.74-.265 4.481-3.208 10.113-4.203 15.461-4.775M303.14 228.091c.55-.053.909-.583 1.3-.943 2.642-2.837 5.295-5.738 8.687-7.729 3.857-2.467 8.676-2.562 13.083-2.181 3.244.413 7.038.688 9.542 2.996 1.68 1.366 3.741 2.118 5.802 2.679 3.212.762 6.584.254 9.807.974-2.198-.243-4.386-.053-6.605-.032-2.801.032-5.633-.667-8.137-1.937-1.385-.784-2.663-2.097-4.101-2.573-4.163-1.006-8.633-1.504-12.924-1.144-4.354.36-8.169 2.88-11.392 5.718-1.479 1.228-2.8 2.679-4.322 3.854-.222.148-.476.339-.761.307zM331.663 106.843c-.084-.095-.01-.011 0 .063l.317.583c.624 1.228 1.406 2.53 2.473 3.388 1.258.858 3.171.784 4.534.244.993-.424 1.849-1.218 2.673-2.086-.803 2.393-3.497 4.002-6.002 3.409-1.332-.106-2.409-1.175-3.012-2.287-.592-.985-.877-2.107-1.057-3.229 0-.011-.021-.149 0-.149.043 0 .043.043.064.074zM306.606 104.08c.043-.593.772-.847 1.216-1.102 3.286-1.821 7.387.911 8.496 4.162.391 1.133-.19 2.414-.275 3.494-.084 1.546.169 3.229.888 4.595.898 2.054 3.519 1.885 5.675 2.234-2.219.127-5.051.466-6.362-1.81-.983-1.536-1.279-3.315-1.226-5.104.043-1.122.582-2.065.317-3.123-.993-2.87-4.343-5.411-7.408-4.204-.465.191-1.162.296-1.321.847zM238.456 97.28c.771-1.673 2.663-2.478 4.142-3.325.973-.593 1.797-1.45 2.79-2.096 1.554-.996 3.34-1.25 4.925-2.14-.782.943-1.902 1.515-2.917 2.076-1.617.752-2.716 2.16-4.312 3.028-1.606.784-3.318 1.186-4.628 2.446zM195.9 185.609c-.338-.455-.021-1.09.148-1.556 3.466-7.465 11.318-11.372 18.388-14.665-6.394 4.564-13.77 8.037-18.145 14.792-.222.424-.624.942-.402 1.429zM215.862 210.206c3.54-.37 7.049.614 10.505 1.091 6.985 1.027 14.044 1.44 20.987 2.869 10.314 2.234 20.67 4.574 31.217 5.03 7.038.285 14.076-.265 21.083-.975-6.965 1.144-14.013 1.896-21.104 1.79-10.642-.244-21.093-2.52-31.386-4.903-6.89-1.44-13.939-2.075-20.871-3.303-3.477-.657-6.869-1.737-10.42-1.599zM264.136 172.416c-.159-2.001.919-3.864 1.786-5.601.972-1.705 2.092-3.431 3.614-4.765 2.969-2.742 6.668-4.351 9.627-6.797 3.022-2.351 4.66-6.078 7.197-9.138 2.42-3.134 5.114-6.025 7.989-8.725-1.268 1.504-2.568 2.986-3.773 4.532-2.504 3.039-4.702 6.236-6.795 9.582-1.067 1.663-2.367 3.283-3.942 4.564-3.138 2.552-6.805 4.108-9.764 6.596-1.511 1.197-2.642 2.775-3.709 4.426-1.004 1.631-2.156 3.367-2.23 5.337z"/><path fill="#111" d="M311.363 108.559c-1.427.413-2.41 1.546-3.72 2.266-3.667 2.266-7.461 4.574-9.511 8.534.951-4.532 5.21-7.369 9.109-9.254 1.173-.529 2.801-1.599 4.122-1.546M337.106 128.569c.486 2.976 0 6.004.052 8.958a73 73 0 0 1-.211 8.99c-.518 5.993-1.807 11.869-2.969 17.724-.476 2.944-1.734 5.803-2.653 8.609-1.522 5.728-2.969 11.657-5.527 17.068-1.31 2.7-2.726 5.326-3.825 8.1.877-2.869 2.219-5.569 3.35-8.312 2.335-5.41 3.561-11.456 5.072-17.142.898-2.88 2.071-5.538 2.536-8.534 1.247-5.845 2.505-11.679 3.202-17.598.36-2.954.508-5.919.497-8.916.127-3.017.708-5.95.465-8.947zM360.978 227.008c5.982.403 11.942 1.038 17.934 1.207 5.981-.021 12.015.434 17.975.773 4.914.117 10.029.233 14.943 1.006 3.984.159 7.873-1.228 11.899-1.186 1.924.074 7.017.329 9.004.434l1.501.085c1.268.138 2.388-.614 3.677-.55 3.223.137 6.436-.763 9.68-.731 1.48.032 3.033.127 4.502.191 1.532-.096 2.927.741 4.428.794-1.522.021-2.896-.72-4.428-.572-1.469 0-3.054-.032-4.491-.011-3.255.117-6.415 1.08-9.712 1.017-1.226 0-2.42.773-3.688.635l-1.501-.042c-1.997-.064-7.059-.233-8.972-.307-3.994 0-7.883 1.419-11.931 1.281-4.998-.72-9.849-.943-14.942-1.08-6.013-.371-11.942-.921-17.955-1.07-6.002-.307-11.952-1.154-17.912-1.874zM459.057 221.144c2.367-1.683 4.882-2.932 7.64-3.928 2.853-.836 5.728-.413 8.623-.307-2.8.731-5.727.519-8.316 1.324-1.924.699-4.006 1.493-5.94 2.149-.634.254-1.278.699-2.007.773zM142.173 155.56c0 1.069.581 2.149.571 3.208.56 3.303 2.737 6.088 3.508 9.349 1.289 4.193 1.332 8.99 4.185 12.526-3.498-3.007-3.899-8.057-5.199-12.229-.793-3.282-2.801-6.184-3.012-9.604.074-.9-.032-1.62-.159-2.499 0-.264.053-.529.095-.794.022-.01 0 .032 0 .043zM140.06 105.402c-.285-3.049 4.439-4.955 6.901-5.442-.993.932-2.61 1.832-3.752 2.573-1.194.815-2.578 1.44-3.149 2.869M200.855 111.681c.053-.9 1.057-1.43 1.617-1.97 1.575-1.397 3.276-2.784 5.284-3.536.402-.127.877-.286 1.31-.148-2.219 1.112-3.899 3.123-6.118 4.341-.719.487-1.596.582-2.103 1.313zM192.181 102.513c-.296 1.482-1.839 2.35-2.642 3.494-1.131 2.573-3.382 4.934-4.29 7.581-.392 1.228-.339 3.039.792 2.848 2.092-.169 3.688-1.98 4.967-3.515 2.821-2.372 5.273-5.4 8.771-6.808-2.6 1.482-4.459 3.758-6.541 5.918-.951.922-1.85 1.716-2.568 2.806-2.589 3.156-7.947 4.331-6.373-1.556 1.11-2.975 3.372-4.871 4.84-7.603.994-1.133 2.494-1.725 3.044-3.176zM316.489 231.213c1.025 1.228 1.321 2.848.623 4.309-.771-1.418-1.014-2.731-.623-4.309M329.243 230.461s.011-.053.042-.053c.529.095.951.476 1.121 1.006.137.518.052 1.016-.349 1.471-.677-.741-.856-1.535-.803-2.414zM325.523 230.652c.761.635 1.078 1.408.391 2.234-.75-.625-1.057-1.408-.391-2.234M321.022 231.192c.993-.085 1.321 1.45.591 2.075-.824-.656-.687-1.218-.591-2.075M309.725 231.626c.908-1.207 2.652-1.091 3.899-1.62l1.342-.519c3.593-1.355 7.546-2.266 11.392-1.662 1.913.275 3.773.794 5.58 1.291-.898-.063-1.902-.116-2.843-.211-5.178-.837-10.303.211-15.249 1.768-1.384.423-2.948 0-4.121.963zM260.585 192.492c-.211-.371-.032-.795.063-1.144.92-2.425 2.473-4.68 4.724-6.056-1.067 2.001-2.282 3.663-3.582 5.452-.328.477-1.11 1.176-1.194 1.748zM113.304 122.026c.391.106.739-.127 1.067-.318.951-.656 1.796-1.503 2.589-2.329.983-1.239 2.642-1.885 3.762-2.891 2.198-2.181 4.333-4.563 6.415-6.893-1.459 2.891-3.424 5.379-5.717 7.687-1.332 1.144-2.833 1.599-3.889 2.69-.92.794-1.903 1.535-3.044 1.99-.359.138-.835.286-1.194.064zM127.717 139.432c1.088 4.087 2.018 8.46 3.307 12.494.677 2.107.983 4.299 1.237 6.438.106 2.139 1.078 4.066 1.818 6.12-.835-1.408-1.755-2.795-2.262-4.373-.676-2.626-.94-5.336-1.796-7.867-1.29-4.151-2.008-8.502-2.294-12.812zM235.36 111.84c-.032-.243-.18.022-.254.128-.782 1.535-1.775 3.028-1.881 4.785l-.19 1.928c-.275 2.594-.412 5.145-.656 7.761-.76-3.219-.644-6.576-.147-9.816.211-1.853 1.5-3.462 2.758-4.764.105-.106.422-.318.37-.022"/><path fill="#331549" d="M219.912 57.478s3.064 4.574 1.12 8.48c-1.945 3.908-14.425 9.033-27.075 11.743-12.649 2.721-38.942 1.398-42.059-5.612 0 0-1.564-1.408 2.906-1.672 4.47-.265 33.901-1.006 46.9-6.936s18.208-6.004 18.208-6.004"/><path fill="#111" d="M219.91 57.478c3.498 5.845 2.082 9.72-3.836 12.823-4.533 2.552-9.468 4.288-14.425 5.813-6.605 2.075-13.516 3.293-20.459 3.346-7.714.084-27.106-.244-30.065-7.793 0-1.726 2.748-1.63 3.9-1.769l4.438-.2c2.959-.138 5.907-.308 8.856-.52 8.824-.709 17.69-1.514 26.292-3.653 8.581-2.138 16.348-7.274 25.299-8.057zm0 0c-7.387.974-14.034 4.617-20.86 7.37-9.871 3.325-20.333 4.415-30.647 5.283q-4.439.337-8.877.562l-4.427.222c-.983.095-2.209.074-2.938.646 2.79 5.135 13.336 6.003 18.747 6.639 10.272.868 20.67.275 30.572-2.753 4.946-1.43 9.86-3.113 14.415-5.517 5.875-2.912 7.281-6.543 4.036-12.452z"/><path fill="#D11077" d="M200.644 80.107s.613-3.622-7.535-4.31c-8.158-.688-20.469 1.959-19.391 6.957 0 0 21.251 1.715 26.937-2.648z"/><path fill="#111" d="M200.645 80.107c-.73-6.862-21.389-3.78-25.014-.36-.972.762-1.659 1.81-1.416 2.9l-.465-.402c4.523.371 9.088.434 13.632.36 4.47-.264 9.268-.211 13.252-2.498zm0 0c-1.818 1.376-4.175 1.99-6.383 2.456-6.795 1.218-13.728 1.112-20.586.71a.51.51 0 0 1-.465-.403c-1.839-8.142 27.508-10.705 27.434-2.753z"/><path fill="#3F7544" d="M117.298 44.182s-10.441 15.268-7.778 29.35 7.26 27.392 23.566 28.769 75.168 4.775 89.424-31.077c0 0 3.138-4.86-6.087-.783-9.226 4.076-39.978 19.747-59.856 6.586 0 0-7.968-6.311-.57-7.55s41.816 1.832 67.083-15.11c0 0 6.341-4.51-2.642-12.335-8.982-7.835-16.02-19.578-25.013-32.294 0 0-14.837-20.53-33.331-1.207 0 0-15.999-8.069-30.044 4.362-14.044 12.43-15.587 31.257-14.52 36.255"/><path fill="#111" d="M117.297 44.18c-4.692 7.56-8.254 16.307-8.063 25.317 0 .88.074 1.758.221 2.68a70 70 0 0 0 3.276 13.033c4.185 11.806 11.9 16.889 24.285 17.1 10.726.689 21.537.646 32.232-.561 20.564-2.255 44.542-9.752 52.87-30.685 3.35-5.463-12.269 3.156-13.717 3.442-11.012 4.658-22.763 8.523-34.884 8.131-6.034-.222-12.153-1.79-17.257-5.188-1.871-1.62-5.654-5.019-3.023-7.465 2.505-1.62 5.538-1.133 8.307-1.376 19.793-.381 40.506-2.35 57.921-12.526l2.325-1.408c.37-.233.803-.477 1.131-.7 5.273-4.86-1.437-10.545-5.147-13.902-7.799-7.772-13.611-17.227-19.867-26.185-8.951-14.559-23.238-18.391-35.602-5.156l-.138.138-.19-.085c-5.432-2.435-11.709-3.187-17.553-1.98-14.964 3.303-24.369 18.974-26.641 33.321-.433 2.986-.74 6.036-.243 9.032-.518-2.996-.243-6.056.169-9.042 2.187-14.506 11.54-30.283 26.62-33.756 5.96-1.281 12.301-.561 17.891 1.938l-.328.053c8.381-9.074 19.519-11.637 29.474-3.24 2.916 2.276 5.051 5.368 7.101 8.396 4.174 5.993 8.19 12.092 12.66 17.842 3.319 4.404 7.123 8.216 11.191 11.933 3.583 3.451 5.189 9.307-.063 12.102l-2.346 1.44c-15.894 9.328-34.704 12.007-52.849 12.632-3.149.116-7.788.159-10.853.54-5.464.678-1.553 4.743.666 6.618 18.049 11.382 41.816 1.44 59.39-6.544 1.754-.699 3.551-1.567 5.517-1.652.401 0 .919.053 1.342.456.782.794.042 2.128-.201 2.53-13.03 31.172-56.854 33.269-85.916 31.5-12.533-.233-20.448-5.506-24.58-17.534a71 71 0 0 1-3.181-13.13l-.169-1.344-.032-1.355c-.127-9.053 3.519-17.8 8.285-25.328z"/><path fill="#233F22" d="M125.847 61.291s-2.716-11.975-2.05-21.886 1.722-15.543 9.109-26.545c0 0-8.401 5.348-12.29 16.529s-3.276 16.454-3.276 16.454-1.448-1.546-6.129 10.387c-2.367 6.035-2.188 15.935.074 24.745 2.113 8.27 6.943 14.548 9.511 16.793 7.957 6.935 30.509 4.881 32.379 4.902 1.871.022 42.197 2.891 64.822-23.21 0 0-16.549 13.734-41.879 16.55-25.331 2.817-44.733 0-52.416-19.62 0 0-3.815-14.876-1.237-18.921l3.372 3.812z" opacity=".3" style="mix-blend-mode:hard-light"/><path fill="#111" d="M117.298 44.18c-4.692 7.56-8.254 16.307-8.063 25.317 0 .88.074 1.758.222 2.68a69.8 69.8 0 0 0 3.276 13.033c4.184 11.806 11.899 16.889 24.284 17.1 10.726.689 21.537.646 32.232-.561 20.564-2.255 44.543-9.752 52.87-30.685 3.35-5.463-12.269 3.156-13.717 3.442-11.012 4.658-22.763 8.523-34.884 8.131-6.024-.222-12.142-1.778-17.246-5.177-1.882-1.62-5.665-5.03-3.033-7.476 2.504-1.62 5.537-1.133 8.306-1.376 19.793-.381 40.506-2.35 57.921-12.526l2.325-1.408c.37-.233.803-.477 1.131-.7 5.273-4.86-1.437-10.545-5.146-13.902-7.799-7.772-13.612-17.227-19.868-26.185-5.484-9.275-16.158-16.867-26.969-11.604-3.265 1.524-6.118 3.854-8.633 6.448a.3.3 0 0 1-.317.063c-6.108-2.742-13.305-3.356-19.73-1.44-13.833 4.522-22.224 18.964-24.464 32.771-.434 2.986-.74 6.036-.244 9.032-.517-2.996-.243-6.056.17-9.042 2.187-14.506 11.539-30.283 26.62-33.756 5.96-1.281 12.3-.561 17.891 1.938l-.328.053c8.38-9.074 19.519-11.637 29.473-3.24 2.917 2.276 5.052 5.368 7.102 8.396 4.174 5.993 8.19 12.092 12.66 17.842 3.318 4.404 7.123 8.216 11.191 11.933 3.583 3.451 5.189 9.307-.063 12.102l-2.346 1.44c-15.894 9.328-34.705 12.007-52.849 12.632-3.149.116-7.789.159-10.853.54-5.464.678-1.554 4.743.665 6.618 18.05 11.382 41.817 1.44 59.391-6.544 1.754-.699 3.551-1.567 5.516-1.652.402 0 .92.053 1.342.456.782.794.043 2.128-.2 2.53-13.03 31.172-56.855 33.269-85.916 31.5-12.533-.233-20.448-5.506-24.58-17.534a71 71 0 0 1-3.181-13.13l-.169-1.344-.032-1.355c-.127-9.053 3.519-17.8 8.285-25.328z"/><path fill="#111" d="M162.253 11.284c4.755.54 8.771 4.786 9.342 9.497-2.019-4.129-5.168-7.517-9.342-9.497"/><path fill="#3F7544" d="M204.755 14.703s-1.712-3.124-6.034-2.192-21.78 1.885-25.701 9.01"/><path fill="#111" d="M204.755 14.702c-1.976-2.668-4.946-2.17-7.809-1.482-7.028 1.302-14.468 1.831-20.776 5.42-1.237.72-2.325 1.684-3.15 2.88.624-1.323 1.681-2.424 2.864-3.313 6.119-4.172 13.802-4.913 20.956-5.792 2.927-.55 6.309-.752 7.926 2.287z"/><path fill="#111" d="M133.381 32.12c4.967-13.966 25.246-19.588 38.065-14.241 1.606.614 3.149 1.408 4.628 2.276-1.574-.688-3.138-1.387-4.776-1.863-13.062-4.288-31.725.783-37.917 13.828"/><path fill="#111" d="M184.465 28.467c-1.712-5.146-6.151-8.407-11.604-7.465-5.072.455-10.208 1.25-14.837 3.293-4.977 1.81-7.778 6.247-10.314 10.61-1.321 2.202-2.663 4.648-4.977 5.982-1.142.699-2.431 1.016-3.646 1.387-1.215.36-2.346 1.048-3.075 2.128.634-1.154 1.754-1.959 2.98-2.393 1.215-.466 2.43-.847 3.466-1.567 2.145-1.355 3.318-3.706 4.555-5.95 4.332-8.513 8.781-11.626 18.092-13.395 8.38-1.419 16.475-2.774 19.37 7.36z"/><path fill="#3F7544" d="M181.221 25.652S190.119 12.85 208 15.168c0 0 5.379.815 5.231 5.03"/><path fill="#111" d="M181.221 25.651c4.523-6.692 12.46-10.704 20.438-11.191 3.815.052 8.846-.34 11.118 3.398.401.72.528 1.557.465 2.35-.043-.793-.275-1.566-.698-2.201-2.504-3.272-7.165-2.563-10.811-2.542-7.788.636-15.323 4.3-20.501 10.197zM144.077 47.96c2.261.043 4.798.022 6.689 1.504 1.765 1.419 3.847 2.33 6.045 2.806 8.592 1.821 25.965-.318 32.052-7.084 1.501-1.535 2.409-4.383.349-5.866 2.272 1.356 1.521 4.49.052 6.194-6.139 7.497-23.629 9.773-32.654 7.54-2.251-.583-4.438-1.642-6.182-3.188-1.67-1.514-4.206-1.63-6.362-1.895z"/><path fill="#3F7544" d="M217.278 32.07s3.699 1.704 2.399 4.478-16.01 10.472-22.509 9.434"/><path fill="#111" d="M217.278 32.07c7.651 3.673-1.405 8.48-5.241 10.418-4.587 2.118-9.722 4.31-14.869 3.494 5.104 0 9.86-2.329 14.393-4.447 2.706-1.45 5.749-2.774 7.768-5.071 1.025-1.758-.518-3.474-2.051-4.395M174.225 60.316a94 94 0 0 0 6.129-5.463c1.722-1.8 4.016-3.907 4.491-6.364l.698.413c-10.61 6.554-19.73 15.364-32.792 8.703 9.5 3.844 16.803.752 24.729-4.743l7.577-4.733c.295-.233.76.032.697.413-.222 1.63-1.194 2.732-2.061 3.812-2.758 3.102-6.055 5.643-9.479 7.962zM153.935 63.102c-4.048.466-8.518 1.08-11.519 4.034-2.896 3.113-2.23 8.09.814 10.98-3.868-2.414-4.83-8.28-1.585-11.71 3.244-3.177 8.031-3.664 12.29-3.315zM208.887 52.407c-2.166-1.472-4.227-3.303-6.742-4.002-.835-.127-1.797-.127-2.642-.318-1.205-.222-2.388-.561-3.498-1.09 2.156.243 4.195.243 6.341.391 2.779.678 4.924 2.785 6.541 5.02"/><path fill="#111" d="M216.857 41.206c-2.79 3.822-6.922 7.634-11.857 7.941 4.523-1.779 7.947-5.124 11.857-7.94M202.314 49.105c-2.568 1.757-5.548.211-8.116-.742 2.79-.53 5.126 1.017 8.116.742"/><path fill="#FF4C43" d="M224.929 48.374s-3.34 8.789-27.233 14.242c-23.894 5.463-36.184 3.939-42.355 4.902-6.172.964-8.011 3.187-7.176 5.76s15.27 12.632 38.53 10.123c23.259-2.51 43.158-13.649 40.21-20.923 0 0-1.786-5.082-6.372-3.748 0 0-.994.212-.021 3.145.972 2.933-.381 5.22-12.946 9.709-12.565 4.49-34.905 5.802-40.59 5.284-5.686-.52-12.174-1.567-12.153-4.712 0 0 .887-.381 6.922-.01 6.034.37 30.107-.975 43.517-6.64 13.411-5.675 19.508-9.497 20.998-11.382 2.103-2.647 3.72-6.49-1.342-5.75z"/><path fill="#111" d="M224.93 48.374c-7.714 12.95-38.255 17.143-52.479 18.498-5.664.55-11.424.328-17.056.974-7.915 1.27-9.965 5.04-2.061 9.307 16.834 9.244 37.537 7.02 55.026.72 6.108-2.456 15.154-6.162 18.029-12.42.951-2.446-.877-5.39-3.192-6.236-.687-.286-2.082-.17-2.483 0-.455 1.323.613 2.657.549 4.034-.169 4.33-8.306 6.628-11.635 8.079-10.515 4.32-44.5 9.296-53.895 3.102-.676-.519-1.289-1.376-1.247-2.34 0-.127.095-.233.211-.264.582-.16.951-.138 1.427-.17 6.584.148 13.136.35 19.698-.381 10.409-1.006 20.988-2.425 30.689-6.523 3.234-1.365 6.436-2.784 9.585-4.33 3.762-2.065 8.169-3.696 10.8-7.232 1.839-2.615 2.314-5.464-1.966-4.828zm0 0c4.217-.677 3.942 2.129 2.04 4.882-2.6 3.589-7.028 5.294-10.769 7.411-6.298 3.103-12.681 6.184-19.529 7.878-6.837 1.694-13.812 2.71-20.808 3.357-3.497.317-7.006.55-10.525.614-3.445.159-6.975-.466-10.377-.032l.211-.318c-.011.678.412 1.282.983 1.726 9.32 5.887 42.767.89 53.134-3.42 2.98-1.302 10.769-3.653 10.969-7.21 0-1.356-1.268-3.22-.359-4.649.127-.137.201-.264.528-.37h-.031c4.195-1.462 8.528 3.557 6.974 7.56-2.969 6.617-12.3 10.43-18.683 12.96-17.754 6.31-38.667 8.46-55.713-.996-1.649-.995-3.276-2.032-4.608-3.546-1.5-1.737-.475-4.384 1.395-5.305 3.509-1.927 7.493-1.99 11.265-2.129 3.805-.105 7.599-.233 11.382-.518 14.192-1.345 44.659-5.051 52.521-17.916z"/><path fill="#AB80AD" d="M218.988 30.828s.497-9.519-9.87-12.177-21.421 4.257-22.964 8.418-3.318 8.333-2.05 12.103 5.812 3.833 7.619 4.14c1.808.307 11.012-.625 15.524-2.287 4.513-1.663 11.477-4.913 11.741-10.197"/><path fill="#111" d="M218.989 30.828c-.655-15.957-21.484-14.93-30.361-6.29-1.12 1.027-1.881 2.128-2.325 3.568-.486 1.366-1.067 2.88-1.437 4.267-1.142 3.495-1.215 8.44 2.948 9.71 1.332.477 2.906.678 4.322.879 6.457 0 13.136-.858 19.022-3.685 3.456-1.705 7.482-4.235 7.841-8.46zm0 0c-.846 9.36-19.994 13.373-27.687 12.822-7.377-.36-9.353-4.923-7.461-11.573.412-1.43 1.004-2.933 1.521-4.32.624-2.022 2.156-3.674 3.805-4.902 9.437-7.666 29.431-7.433 29.811 7.973z"/><path fill="#fff" d="M186.283 35.308c1.099 6.077 11.223 6.607 19.688 4.076 8.464-2.53 12.639-7.655 10.969-13.246-1.67-5.59-9.881-8.079-18.346-5.537-8.464 2.54-13.347 8.979-12.311 14.717z"/><path fill="#111" d="M186.284 35.308c1.934 7.137 12.861 5.633 18.314 4.172 4.735-1.376 10.04-3.748 11.826-8.64 1.722-5.273-2.653-9.646-7.662-10.45-9.257-2.012-23.608 3.737-22.478 14.908zm0 0c-1.268-11.191 13.189-17.566 22.658-15.797 5.6.836 10.462 5.707 8.411 11.647-1.912 5.241-7.672 7.623-12.628 8.841-5.485 1.228-16.686 2.425-18.441-4.68z"/><path fill="#700F2B" d="M205.637 38.582c4.547-1.362 7.098-6.267 5.699-10.957s-6.218-7.387-10.764-6.026c-4.547 1.361-7.098 6.267-5.699 10.956 1.399 4.69 6.218 7.388 10.764 6.026"/><path fill="#111" d="M194.873 32.556c1.226 4.458 6.33 7.338 10.695 5.781 6.858-2.223 7.513-12.05 1.405-15.565-6.541-4.012-14.351 2.563-12.089 9.784zm0 0c-2.346-7.454 5.517-14.442 12.544-10.578 4.365 2.266 6.14 8.227 3.73 12.526-3.762 7.095-14.16 5.58-16.274-1.948"/><path fill="#ECFFF0" d="M202.05 26.847c.348 1.176 1.796 1.96 2.969 1.6s1.786-1.748 1.437-2.923a2.216 2.216 0 0 0-2.758-1.493c-1.173.35-1.997 1.63-1.648 2.806z"/><path fill="#111" d="M202.049 26.847c1.035 2.563 4.512 1.589 3.92-1.08-.644-2.52-4.502-1.567-3.92 1.08m0 0c-.74-3.155 3.962-4.711 4.945-1.334.655 3.516-3.804 4.416-4.945 1.334"/><path fill="#ECFFF0" d="M203.127 34.026c.275.91 1.395 1.525 2.304 1.25.909-.276 1.395-1.356 1.12-2.277a1.71 1.71 0 0 0-2.145-1.154c-.919.275-1.554 1.27-1.279 2.18"/><path fill="#111" d="M203.127 34.026c.793 1.948 3.393 1.175 2.938-.816-.465-1.874-3.371-1.207-2.938.816m0 0c-.613-2.52 3.181-3.79 3.963-1.07.518 2.838-3.054 3.537-3.963 1.07"/><path fill="#AB80AD" d="M137.059 46.628c.063-.413.401-.731.803-.847 1.86-.53 8.475-2.595 10.779-5.771 2.684-3.717 4.47-10.377 14.065-14.178 9.596-3.801 19.149-3.07 23.809 5.697s-1.616 13.595-6.129 15.268c-4.068 1.504-12.301 4.754-21.643 2.446-1.69-.413-3.265-1.197-4.66-2.234-1.469-1.102-3.667-2.489-5.104-2.181-2.219.476-5.347 1.143-9.247 2.594-.571.211-1.183.296-1.775.17-.518-.107-.983-.36-.888-.943z"/><path fill="#111" d="M137.058 46.627c.116-.752.909-.89 1.511-1.07 3.097-1.005 6.246-2.202 8.793-4.298 2.874-2.732 3.91-6.851 6.678-9.731 3.477-4.077 8.571-6.395 13.696-7.634 5.136-1.26 11.16-.91 15.366 2.636 4.047 3.42 7.069 9.456 4.681 14.633-1.215 2.542-3.498 4.31-5.918 5.475-4.914 2.022-10.071 3.536-15.407 3.631-3.921 0-8.116-.36-11.498-2.52-1.628-1.101-3.128-2.477-5.094-2.87-2.99.107-6.615 1.409-9.511 2.31-.898.349-1.934.677-2.874.243-.307-.128-.507-.477-.433-.805zm0 0c-.074.328.127.667.433.794.941.423 1.955.095 2.854-.265 2.473-.9 5.009-1.61 7.577-2.17.634-.127 1.289-.37 1.965-.233 1.977.37 3.562 1.757 5.189 2.806 3.382 2.043 7.503 2.287 11.36 2.191 5.221-.211 10.293-1.884 15.038-3.917 2.272-1.112 4.365-2.806 5.421-5.072 2.093-4.744-.792-10.303-4.417-13.458-3.984-3.399-9.638-3.738-14.594-2.69-5.051 1.102-10.081 3.24-13.6 7.159-2.833 2.774-3.963 6.892-6.859 9.593-2.578 2.075-5.738 3.25-8.856 4.224-.602.18-1.395.307-1.511 1.049z"/><path fill="#fff" d="M155.056 40.717c.623 6.142 10.663 7.476 19.307 5.623 8.634-1.853 13.199-6.629 11.984-12.336-1.226-5.707-9.215-8.83-17.849-6.977s-14.013 7.888-13.432 13.701z"/><path fill="#111" d="M155.055 40.719c1.363 7.263 12.375 6.639 17.923 5.611 4.829-.995 10.303-2.943 12.47-7.676 2.134-5.125-1.892-9.826-6.816-11.023-9.067-2.731-23.831 1.854-23.577 13.088m0 0c-.38-11.256 14.531-16.465 23.83-13.956 5.527 1.27 9.976 6.523 7.472 12.272-2.325 5.072-8.243 6.988-13.284 7.814-5.569.795-16.824 1.102-18.018-6.13"/><path fill="#700F2B" d="M174.25 48.29c4.639-.997 7.57-5.684 6.546-10.47s-5.615-7.858-10.255-6.861c-4.639.996-7.57 5.684-6.546 10.47 1.024 4.785 5.615 7.857 10.255 6.86"/><path fill="#111" d="M163.997 41.415c.866 4.542 5.727 7.814 10.208 6.607 7.017-1.673 8.444-11.425 2.621-15.406-6.204-4.51-14.51 1.419-12.829 8.799m0 0c-1.755-7.623 6.636-13.966 13.336-9.55 4.174 2.604 5.474 8.692 2.737 12.78-4.312 6.776-14.552 4.436-16.073-3.23"/><path fill="#ECFFF0" d="M171.605 36.302c.254 1.197 1.638 2.086 2.832 1.832 1.195-.254 1.924-1.599 1.66-2.795a2.226 2.226 0 0 0-2.632-1.705c-1.194.254-2.124 1.472-1.87 2.668z"/><path fill="#111" d="M171.607 36.303c.824 2.636 4.375 1.937 3.994-.773-.444-2.563-4.364-1.917-3.994.773m0 0c-.486-3.209 4.332-4.384 5.03-.943.38 3.558-4.143 4.098-5.03.943"/><path fill="#ECFFF0" d="M172.111 43.534c.2.932 1.268 1.631 2.198 1.43s1.49-1.25 1.289-2.181a1.716 1.716 0 0 0-2.04-1.324c-.93.201-1.648 1.144-1.447 2.075"/><path fill="#111" d="M172.109 43.534c.645 2.001 3.287 1.44 2.991-.582-.317-1.906-3.265-1.472-2.991.582m0 0c-.412-2.562 3.477-3.526 4.027-.752.296 2.87-3.329 3.283-4.027.752"/><path fill="#29472C" d="M250.768 183.418c.476-.042 1.364-.095 2.251-.222.655-.095 1.311-.233 1.924-.476.253-.096.38-.509.57-.773-.243-.17-.475-.392-.75-.487-.338-.117-.719-.117-1.078-.18-.581-.117-1.141-.318-1.3-.953-.179-.72-.042-1.472.603-1.843a9.4 9.4 0 0 1 2.578-1.027c1.247-.275 2.536-.328 3.804-.529.307-.043.582-.276.867-.424-.201-.286-.402-.572-.623-.836-.053-.064-.148-.106-.233-.149-.528-.317-1.025-.667-.951-1.376.085-.784.476-1.44 1.236-1.673a14.3 14.3 0 0 1 2.685-.498c1.363-.127 2.737-.137 4.11-.254s2.494-.635 3.086-2.022c.328-.752.782-1.451 1.194-2.16.212-.371.486-.741.983-.434.433.275.307.656.085 1.016-.476.784-.899 1.61-1.438 2.34-.782 1.038-.686 2.118-.243 3.187.487 1.186 1.121 2.309 1.628 3.484.433 1.006.845 2.022 1.099 3.081.106.434-.116 1.048-.37 1.461-.454.731-1.057.826-1.839.456-.327-.159-.644-.36-.993-.466-.56-.17-.824.095-.634.635.433 1.207.993 2.372 1.395 3.589.275.858.486 1.779.507 2.679.011.498-.296 1.112-.655 1.493-.634.667-1.342.583-1.976-.095-.349-.371-.613-.805-.962-1.165-.159-.159-.476-.349-.624-.296-.2.084-.401.381-.443.614-.053.296-.021.646.074.942.285.816.602 1.631.961 2.425.793 1.747.899 3.536.381 5.368a4 4 0 0 1-.275.699c-.771 1.546-1.818 1.705-2.97.445-.422-.455-.792-.953-1.225-1.387-.444-.445-.751-.36-.93.243-.138.456-.169.953-.317 1.409-.349 1.037-.656 2.107-1.163 3.07-.708 1.324-2.251 1.44-3.265.35-.106-.117-.212-.244-.317-.36-.951-1.049-1.364-1.017-2.41-.011-.465.455-1.014.9-1.606 1.122-2.462.921-4.512-.794-4.164-3.42.064-.497.254-.974.349-1.472.201-.952 0-1.249-.919-1.503-.349-.095-.719-.159-1.057-.275-1.258-.413-1.86-1.758-1.131-2.849.719-1.069 1.68-1.969 2.526-2.954.327-.381.655-.783.972-1.175-.486-.201-.962-.434-1.448-.604-.475-.158-.983-.222-1.458-.381-.888-.307-1.226-.974-.846-1.842a5.3 5.3 0 0 1 1.078-1.567c.92-.921 2.04-1.535 3.72-1.97z"/><path fill="#111" d="M250.768 183.418c1.257-.148 2.652-.191 3.846-.603.487-.075.645-.498.867-.879v.031c-.761-.963-2.24-.264-3.001-1.291a1.91 1.91 0 0 1-.074-1.663c.264-.55.866-.741 1.342-.995 1.014-.498 2.124-.741 3.234-.868l1.659-.201c.592-.032 1.046-.18 1.532-.519l-.032.127-.496-.657-.127-.158c-.391-.276-.856-.456-1.11-.922-.37-.815.032-1.853.782-2.318 2.558-1.07 5.495-.657 8.095-1.176 1.025-.264 1.744-.995 2.103-2.033a25 25 0 0 1 1.226-2.192c.328-.55 1.152-.561 1.532 0 .37.477-.053 1.133-.264 1.472-.581 1.366-2.113 2.541-1.68 4.172.824 2.435 2.483 4.786 3.054 7.38.137 1.122-.465 2.435-1.628 2.679-.686.106-1.289-.254-1.817-.529-.212-.106-.455-.18-.529-.17-.042.021.085-.032.096-.106 0-.053 0 .021.031.096.761 2.054 1.881 4.108 1.966 6.363.074 1.334-1.279 3.092-2.758 2.425-.782-.318-1.332-1.398-1.797-1.8-.169-.138-.201-.043.011-.106-.402.423.042 1.175.285 1.842l.592 1.504c1.078 2.139 1.152 7.295-1.754 7.952-1.67 0-2.272-1.705-3.308-2.541-.053 0 .084-.022.063-.022-.285.466-.243 1.133-.496 1.769-.645 2.043-1.723 5.58-4.555 3.78-.93-.752-1.448-2.002-2.283-1.186-1.553 1.683-4.258 2.774-5.97.635-.719-.953-.782-2.213-.497-3.293.317-1.175.803-2.054-.793-2.34-1.056-.169-2.303-.847-2.314-2.096 0-1.176 1.025-1.949 1.701-2.785a42 42 0 0 0 2.156-2.457l.021.085-1.331-.561c-.846-.36-2.103-.254-2.526-1.26-.18-.487.021-.995.254-1.408.93-1.747 2.79-2.743 4.65-3.187zm0 0c-1.85.466-3.699 1.472-4.608 3.208-.592.953-.285 1.927.846 2.182.845.148 2.008.592 2.811.942-1.015 1.323-2.209 2.488-3.234 3.791-.771.804-.803 2.096.148 2.752.75.731 2.589.255 2.811 1.546.032.604-.169 1.133-.296 1.652-.645 2.107.919 4.447 3.223 3.854 1.057-.169 1.733-.942 2.6-1.715.222-.18.507-.371.898-.402.972.031 1.458 1.09 2.082 1.503 2.716 1.652 3.297-3.346 3.825-5.114.391-1.186 1.385-.72 1.871-.032.74.773 1.479 1.843 2.177 1.769.518-.022 1.014-.869 1.183-1.419.613-1.684.487-3.611-.264-5.231l-.623-1.546c-.201-.54-.529-1.112-.529-1.726-.063-.974.846-1.959 1.755-1.207.824.593 1.109 1.832 2.029 1.694 2.092-1.111-.106-5.103-.677-6.755-.158-.508-.475-.889-.306-1.514.296-.805 1.321-.519 1.765-.265.549.275 1.225.741 1.659.212.275-.339.528-.89.465-1.292-.592-2.668-2.124-4.786-2.917-7.412-.497-1.831 1.11-3.166 1.871-4.669.158-.307.401-.519.317-.763-.159-.137-.307-.296-.518 0-.846 1.112-1.194 2.478-2.156 3.505-2.145 1.726-5.58.72-8.084 1.366-1.036.159-2.188.434-2.315 1.652-.348 1.175 1.459 1.44 1.765 2.562-.275.117-.507.318-.824.424-1.892.36-8.423.434-6.964 3.663.676.974 2.198.329 2.969 1.303v.021c-.116.18-.201.392-.327.572-.117.201-.36.254-.56.328-1.205.402-2.611.434-3.858.572z"/><path fill="#111" d="M255.396 198.093c1.246-7.709 4.216-17.641 10.99-22.194-5.918 5.993-8.137 14.475-10.99 22.194"/><path fill="#3F7544" d="M117.298 44.182s-10.441 15.268-7.778 29.35 7.26 27.392 23.566 28.769 75.168 4.775 89.424-31.077c0 0 3.138-4.86-6.087-.783-9.226 4.076-39.978 19.747-59.856 6.586 0 0-7.968-6.311-.57-7.55s41.816 1.832 67.083-15.11c0 0 6.341-4.51-2.642-12.335-8.982-7.835-16.02-19.578-25.013-32.294 0 0-14.837-20.53-33.331-1.207 0 0-15.999-8.069-30.044 4.362-14.044 12.43-15.587 31.257-14.52 36.255"/><path fill="#111" d="M117.297 44.18c-4.692 7.56-8.254 16.307-8.063 25.317 0 .88.074 1.758.221 2.68a70 70 0 0 0 3.276 13.033c4.185 11.806 11.9 16.889 24.285 17.1 10.726.689 21.537.646 32.232-.561 20.564-2.255 44.542-9.752 52.87-30.685 3.35-5.463-12.269 3.156-13.717 3.442-11.012 4.658-22.763 8.523-34.884 8.131-6.034-.222-12.153-1.79-17.257-5.188-1.871-1.62-5.654-5.019-3.023-7.465 2.505-1.62 5.538-1.133 8.307-1.376 19.793-.381 40.506-2.35 57.921-12.526l2.325-1.408c.37-.233.803-.477 1.131-.7 5.273-4.86-1.437-10.545-5.147-13.902-7.799-7.772-13.611-17.227-19.867-26.185-8.951-14.559-23.238-18.391-35.602-5.156l-.138.138-.19-.085c-5.432-2.435-11.709-3.187-17.553-1.98-14.964 3.303-24.369 18.974-26.641 33.321-.433 2.986-.74 6.036-.243 9.032-.518-2.996-.243-6.056.169-9.042 2.187-14.506 11.54-30.283 26.62-33.756 5.96-1.281 12.301-.561 17.891 1.938l-.328.053c8.381-9.074 19.519-11.637 29.474-3.24 2.916 2.276 5.051 5.368 7.101 8.396 4.174 5.993 8.19 12.092 12.66 17.842 3.319 4.404 7.123 8.216 11.191 11.933 3.583 3.451 5.189 9.307-.063 12.102l-2.346 1.44c-15.894 9.328-34.704 12.007-52.849 12.632-3.149.116-7.788.159-10.853.54-5.464.678-1.553 4.743.666 6.618 18.049 11.382 41.816 1.44 59.39-6.544 1.754-.699 3.551-1.567 5.517-1.652.401 0 .919.053 1.342.456.782.794.042 2.128-.201 2.53-13.03 31.172-56.854 33.269-85.916 31.5-12.533-.233-20.448-5.506-24.58-17.534a71 71 0 0 1-3.181-13.13l-.169-1.344-.032-1.355c-.127-9.053 3.519-17.8 8.285-25.328z"/><path fill="#233F22" d="M125.847 61.291s-2.716-11.975-2.05-21.886 1.722-15.543 9.109-26.545c0 0-8.401 5.348-12.29 16.529s-3.276 16.454-3.276 16.454-1.448-1.546-6.129 10.387c-2.367 6.035-2.188 15.935.074 24.745 2.113 8.27 6.943 14.548 9.511 16.793 7.957 6.935 30.509 4.881 32.379 4.902 1.871.022 42.197 2.891 64.822-23.21 0 0-16.549 13.734-41.879 16.55-25.331 2.817-44.733 0-52.416-19.62 0 0-3.815-14.876-1.237-18.921l3.372 3.812z" opacity=".3" style="mix-blend-mode:hard-light"/><path fill="#111" d="M117.298 44.18c-4.692 7.56-8.254 16.307-8.063 25.317 0 .88.074 1.758.222 2.68a69.8 69.8 0 0 0 3.276 13.033c4.184 11.806 11.899 16.889 24.284 17.1 10.726.689 21.537.646 32.232-.561 20.564-2.255 44.543-9.752 52.87-30.685 3.35-5.463-12.269 3.156-13.717 3.442-11.012 4.658-22.763 8.523-34.884 8.131-6.024-.222-12.142-1.778-17.246-5.177-1.882-1.62-5.665-5.03-3.033-7.476 2.504-1.62 5.537-1.133 8.306-1.376 19.793-.381 40.506-2.35 57.921-12.526l2.325-1.408c.37-.233.803-.477 1.131-.7 5.273-4.86-1.437-10.545-5.146-13.902-7.799-7.772-13.612-17.227-19.868-26.185-5.484-9.275-16.158-16.867-26.969-11.604-3.265 1.524-6.118 3.854-8.633 6.448a.3.3 0 0 1-.317.063c-6.108-2.742-13.305-3.356-19.73-1.44-13.833 4.522-22.224 18.964-24.464 32.771-.434 2.986-.74 6.036-.244 9.032-.517-2.996-.243-6.056.17-9.042 2.187-14.506 11.539-30.283 26.62-33.756 5.96-1.281 12.3-.561 17.891 1.938l-.328.053c8.38-9.074 19.519-11.637 29.473-3.24 2.917 2.276 5.052 5.368 7.102 8.396 4.174 5.993 8.19 12.092 12.66 17.842 3.318 4.404 7.123 8.216 11.191 11.933 3.583 3.451 5.189 9.307-.063 12.102l-2.346 1.44c-15.894 9.328-34.705 12.007-52.849 12.632-3.149.116-7.789.159-10.853.54-5.464.678-1.554 4.743.665 6.618 18.05 11.382 41.817 1.44 59.391-6.544 1.754-.699 3.551-1.567 5.516-1.652.402 0 .92.053 1.342.456.782.794.043 2.128-.2 2.53-13.03 31.172-56.855 33.269-85.916 31.5-12.533-.233-20.448-5.506-24.58-17.534a71 71 0 0 1-3.181-13.13l-.169-1.344-.032-1.355c-.127-9.053 3.519-17.8 8.285-25.328z"/><path fill="#111" d="M162.253 11.284c4.755.54 8.771 4.786 9.342 9.497-2.019-4.129-5.168-7.517-9.342-9.497"/><path fill="#3F7544" d="M204.755 14.703s-1.712-3.124-6.034-2.192-21.78 1.885-25.701 9.01"/><path fill="#111" d="M204.755 14.702c-1.976-2.668-4.946-2.17-7.809-1.482-7.028 1.302-14.468 1.831-20.776 5.42-1.237.72-2.325 1.684-3.15 2.88.624-1.323 1.681-2.424 2.864-3.313 6.119-4.172 13.802-4.913 20.956-5.792 2.927-.55 6.309-.752 7.926 2.287z"/><path fill="#111" d="M133.381 32.12c4.967-13.966 25.246-19.588 38.065-14.241 1.606.614 3.149 1.408 4.628 2.276-1.574-.688-3.138-1.387-4.776-1.863-13.062-4.288-31.725.783-37.917 13.828"/><path fill="#111" d="M184.465 28.467c-1.712-5.146-6.151-8.407-11.604-7.465-5.072.455-10.208 1.25-14.837 3.293-4.977 1.81-7.778 6.247-10.314 10.61-1.321 2.202-2.663 4.648-4.977 5.982-1.142.699-2.431 1.016-3.646 1.387-1.215.36-2.346 1.048-3.075 2.128.634-1.154 1.754-1.959 2.98-2.393 1.215-.466 2.43-.847 3.466-1.567 2.145-1.355 3.318-3.706 4.555-5.95 4.332-8.513 8.781-11.626 18.092-13.395 8.38-1.419 16.475-2.774 19.37 7.36z"/><path fill="#3F7544" d="M181.221 25.652S190.119 12.85 208 15.168c0 0 5.379.815 5.231 5.03"/><path fill="#111" d="M181.221 25.651c4.523-6.692 12.46-10.704 20.438-11.191 3.815.052 8.846-.34 11.118 3.398.401.72.528 1.557.465 2.35-.043-.793-.275-1.566-.698-2.201-2.504-3.272-7.165-2.563-10.811-2.542-7.788.636-15.323 4.3-20.501 10.197zM144.077 47.96c2.261.043 4.798.022 6.689 1.504 1.765 1.419 3.847 2.33 6.045 2.806 8.592 1.821 25.965-.318 32.052-7.084 1.501-1.535 2.409-4.383.349-5.866 2.272 1.356 1.521 4.49.052 6.194-6.139 7.497-23.629 9.773-32.654 7.54-2.251-.583-4.438-1.642-6.182-3.188-1.67-1.514-4.206-1.63-6.362-1.895z"/><path fill="#3F7544" d="M217.278 32.07s3.699 1.704 2.399 4.478-16.01 10.472-22.509 9.434"/><path fill="#111" d="M217.278 32.07c7.651 3.673-1.405 8.48-5.241 10.418-4.587 2.118-9.722 4.31-14.869 3.494 5.104 0 9.86-2.329 14.393-4.447 2.706-1.45 5.749-2.774 7.768-5.071 1.025-1.758-.518-3.474-2.051-4.395M174.225 60.316a94 94 0 0 0 6.129-5.463c1.722-1.8 4.016-3.907 4.491-6.364l.698.413c-10.61 6.554-19.73 15.364-32.792 8.703 9.5 3.844 16.803.752 24.729-4.743l7.577-4.733c.295-.233.76.032.697.413-.222 1.63-1.194 2.732-2.061 3.812-2.758 3.102-6.055 5.643-9.479 7.962zM153.935 63.102c-4.048.466-8.518 1.08-11.519 4.034-2.896 3.113-2.23 8.09.814 10.98-3.868-2.414-4.83-8.28-1.585-11.71 3.244-3.177 8.031-3.664 12.29-3.315zM208.887 52.407c-2.166-1.472-4.227-3.303-6.742-4.002-.835-.127-1.797-.127-2.642-.318-1.205-.222-2.388-.561-3.498-1.09 2.156.243 4.195.243 6.341.391 2.779.678 4.924 2.785 6.541 5.02"/><path fill="#111" d="M216.857 41.206c-2.79 3.822-6.922 7.634-11.857 7.941 4.523-1.779 7.947-5.124 11.857-7.94M202.314 49.105c-2.568 1.757-5.548.211-8.116-.742 2.79-.53 5.126 1.017 8.116.742"/><path fill="#FF4C43" d="M224.929 48.374s-3.34 8.789-27.233 14.242c-23.894 5.463-36.184 3.939-42.355 4.902-6.172.964-8.011 3.187-7.176 5.76s15.27 12.632 38.53 10.123c23.259-2.51 43.158-13.649 40.21-20.923 0 0-1.786-5.082-6.372-3.748 0 0-.994.212-.021 3.145.972 2.933-.381 5.22-12.946 9.709-12.565 4.49-34.905 5.802-40.59 5.284-5.686-.52-12.174-1.567-12.153-4.712 0 0 .887-.381 6.922-.01 6.034.37 30.107-.975 43.517-6.64 13.411-5.675 19.508-9.497 20.998-11.382 2.103-2.647 3.72-6.49-1.342-5.75z"/><path fill="#111" d="M224.93 48.374c-7.714 12.95-38.255 17.143-52.479 18.498-5.664.55-11.424.328-17.056.974-7.915 1.27-9.965 5.04-2.061 9.307 16.834 9.244 37.537 7.02 55.026.72 6.108-2.456 15.154-6.162 18.029-12.42.951-2.446-.877-5.39-3.192-6.236-.687-.286-2.082-.17-2.483 0-.455 1.323.613 2.657.549 4.034-.169 4.33-8.306 6.628-11.635 8.079-10.515 4.32-44.5 9.296-53.895 3.102-.676-.519-1.289-1.376-1.247-2.34 0-.127.095-.233.211-.264.582-.16.951-.138 1.427-.17 6.584.148 13.136.35 19.698-.381 10.409-1.006 20.988-2.425 30.689-6.523 3.234-1.365 6.436-2.784 9.585-4.33 3.762-2.065 8.169-3.696 10.8-7.232 1.839-2.615 2.314-5.464-1.966-4.828zm0 0c4.217-.677 3.942 2.129 2.04 4.882-2.6 3.589-7.028 5.294-10.769 7.411-6.298 3.103-12.681 6.184-19.529 7.878-6.837 1.694-13.812 2.71-20.808 3.357-3.497.317-7.006.55-10.525.614-3.445.159-6.975-.466-10.377-.032l.211-.318c-.011.678.412 1.282.983 1.726 9.32 5.887 42.767.89 53.134-3.42 2.98-1.302 10.769-3.653 10.969-7.21 0-1.356-1.268-3.22-.359-4.649.127-.137.201-.264.528-.37h-.031c4.195-1.462 8.528 3.557 6.974 7.56-2.969 6.617-12.3 10.43-18.683 12.96-17.754 6.31-38.667 8.46-55.713-.996-1.649-.995-3.276-2.032-4.608-3.546-1.5-1.737-.475-4.384 1.395-5.305 3.509-1.927 7.493-1.99 11.265-2.129 3.805-.105 7.599-.233 11.382-.518 14.192-1.345 44.659-5.051 52.521-17.916z"/><path fill="#AB80AD" d="M218.988 30.828s.497-9.519-9.87-12.177-21.421 4.257-22.964 8.418-3.318 8.333-2.05 12.103 5.812 3.833 7.619 4.14c1.808.307 11.012-.625 15.524-2.287 4.513-1.663 11.477-4.913 11.741-10.197"/><path fill="#111" d="M218.989 30.828c-.655-15.957-21.484-14.93-30.361-6.29-1.12 1.027-1.881 2.128-2.325 3.568-.486 1.366-1.067 2.88-1.437 4.267-1.142 3.495-1.215 8.44 2.948 9.71 1.332.477 2.906.678 4.322.879 6.457 0 13.136-.858 19.022-3.685 3.456-1.705 7.482-4.235 7.841-8.46zm0 0c-.846 9.36-19.994 13.373-27.687 12.822-7.377-.36-9.353-4.923-7.461-11.573.412-1.43 1.004-2.933 1.521-4.32.624-2.022 2.156-3.674 3.805-4.902 9.437-7.666 29.431-7.433 29.811 7.973z"/><path fill="#fff" d="M186.283 35.308c1.099 6.077 11.223 6.607 19.688 4.076 8.464-2.53 12.639-7.655 10.969-13.246-1.67-5.59-9.881-8.079-18.346-5.537-8.464 2.54-13.347 8.979-12.311 14.717z"/><path fill="#111" d="M186.284 35.308c1.934 7.137 12.861 5.633 18.314 4.172 4.735-1.376 10.04-3.748 11.826-8.64 1.722-5.273-2.653-9.646-7.662-10.45-9.257-2.012-23.608 3.737-22.478 14.908zm0 0c-1.268-11.191 13.189-17.566 22.658-15.797 5.6.836 10.462 5.707 8.411 11.647-1.912 5.241-7.672 7.623-12.628 8.841-5.485 1.228-16.686 2.425-18.441-4.68z"/><path fill="#700F2B" d="M205.637 38.582c4.547-1.362 7.098-6.267 5.699-10.957s-6.218-7.387-10.764-6.026c-4.547 1.361-7.098 6.267-5.699 10.956 1.399 4.69 6.218 7.388 10.764 6.026"/><path fill="#111" d="M194.873 32.556c1.226 4.458 6.33 7.338 10.695 5.781 6.858-2.223 7.513-12.05 1.405-15.565-6.541-4.012-14.351 2.563-12.089 9.784zm0 0c-2.346-7.454 5.517-14.442 12.544-10.578 4.365 2.266 6.14 8.227 3.73 12.526-3.762 7.095-14.16 5.58-16.274-1.948"/><path fill="#ECFFF0" d="M202.05 26.847c.348 1.176 1.796 1.96 2.969 1.6s1.786-1.748 1.437-2.923a2.216 2.216 0 0 0-2.758-1.493c-1.173.35-1.997 1.63-1.648 2.806z"/><path fill="#111" d="M202.049 26.847c1.035 2.563 4.512 1.589 3.92-1.08-.644-2.52-4.502-1.567-3.92 1.08m0 0c-.74-3.155 3.962-4.711 4.945-1.334.655 3.516-3.804 4.416-4.945 1.334"/><path fill="#ECFFF0" d="M203.127 34.026c.275.91 1.395 1.525 2.304 1.25.909-.276 1.395-1.356 1.12-2.277a1.71 1.71 0 0 0-2.145-1.154c-.919.275-1.554 1.27-1.279 2.18"/><path fill="#111" d="M203.127 34.026c.793 1.948 3.393 1.175 2.938-.816-.465-1.874-3.371-1.207-2.938.816m0 0c-.613-2.52 3.181-3.79 3.963-1.07.518 2.838-3.054 3.537-3.963 1.07"/><path fill="#AB80AD" d="M137.059 46.628c.063-.413.401-.731.803-.847 1.86-.53 8.475-2.595 10.779-5.771 2.684-3.717 4.47-10.377 14.065-14.178 9.596-3.801 19.149-3.07 23.809 5.697s-1.616 13.595-6.129 15.268c-4.068 1.504-12.301 4.754-21.643 2.446-1.69-.413-3.265-1.197-4.66-2.234-1.469-1.102-3.667-2.489-5.104-2.181-2.219.476-5.347 1.143-9.247 2.594-.571.211-1.183.296-1.775.17-.518-.107-.983-.36-.888-.943z"/><path fill="#111" d="M137.058 46.627c.116-.752.909-.89 1.511-1.07 3.097-1.005 6.246-2.202 8.793-4.298 2.874-2.732 3.91-6.851 6.678-9.731 3.477-4.077 8.571-6.395 13.696-7.634 5.136-1.26 11.16-.91 15.366 2.636 4.047 3.42 7.069 9.456 4.681 14.633-1.215 2.542-3.498 4.31-5.918 5.475-4.914 2.022-10.071 3.536-15.407 3.631-3.921 0-8.116-.36-11.498-2.52-1.628-1.101-3.128-2.477-5.094-2.87-2.99.107-6.615 1.409-9.511 2.31-.898.349-1.934.677-2.874.243-.307-.128-.507-.477-.433-.805zm0 0c-.074.328.127.667.433.794.941.423 1.955.095 2.854-.265 2.473-.9 5.009-1.61 7.577-2.17.634-.127 1.289-.37 1.965-.233 1.977.37 3.562 1.757 5.189 2.806 3.382 2.043 7.503 2.287 11.36 2.191 5.221-.211 10.293-1.884 15.038-3.917 2.272-1.112 4.365-2.806 5.421-5.072 2.093-4.744-.792-10.303-4.417-13.458-3.984-3.399-9.638-3.738-14.594-2.69-5.051 1.102-10.081 3.24-13.6 7.159-2.833 2.774-3.963 6.892-6.859 9.593-2.578 2.075-5.738 3.25-8.856 4.224-.602.18-1.395.307-1.511 1.049z"/><path fill="#fff" d="M155.056 40.717c.623 6.142 10.663 7.476 19.307 5.623 8.634-1.853 13.199-6.629 11.984-12.336-1.226-5.707-9.215-8.83-17.849-6.977s-14.013 7.888-13.432 13.701z"/><path fill="#111" d="M155.055 40.719c1.363 7.263 12.375 6.639 17.923 5.611 4.829-.995 10.303-2.943 12.47-7.676 2.134-5.125-1.892-9.826-6.816-11.023-9.067-2.731-23.831 1.854-23.577 13.088m0 0c-.38-11.256 14.531-16.465 23.83-13.956 5.527 1.27 9.976 6.523 7.472 12.272-2.325 5.072-8.243 6.988-13.284 7.814-5.569.795-16.824 1.102-18.018-6.13"/><path fill="#700F2B" d="M174.25 48.29c4.639-.997 7.57-5.684 6.546-10.47s-5.615-7.858-10.255-6.861c-4.639.996-7.57 5.684-6.546 10.47 1.024 4.785 5.615 7.857 10.255 6.86"/><path fill="#111" d="M163.997 41.415c.866 4.542 5.727 7.814 10.208 6.607 7.017-1.673 8.444-11.425 2.621-15.406-6.204-4.51-14.51 1.419-12.829 8.799m0 0c-1.755-7.623 6.636-13.966 13.336-9.55 4.174 2.604 5.474 8.692 2.737 12.78-4.312 6.776-14.552 4.436-16.073-3.23"/><path fill="#ECFFF0" d="M171.605 36.302c.254 1.197 1.638 2.086 2.832 1.832 1.195-.254 1.924-1.599 1.66-2.795a2.226 2.226 0 0 0-2.632-1.705c-1.194.254-2.124 1.472-1.87 2.668z"/><path fill="#111" d="M171.607 36.303c.824 2.636 4.375 1.937 3.994-.773-.444-2.563-4.364-1.917-3.994.773m0 0c-.486-3.209 4.332-4.384 5.03-.943.38 3.558-4.143 4.098-5.03.943"/><path fill="#ECFFF0" d="M172.111 43.534c.2.932 1.268 1.631 2.198 1.43s1.49-1.25 1.289-2.181a1.716 1.716 0 0 0-2.04-1.324c-.93.201-1.648 1.144-1.447 2.075"/><path fill="#111" d="M172.109 43.534c.645 2.001 3.287 1.44 2.991-.582-.317-1.906-3.265-1.472-2.991.582m0 0c-.412-2.562 3.477-3.526 4.027-.752.296 2.87-3.329 3.283-4.027.752"/></svg>