<svg xmlns="http://www.w3.org/2000/svg" width="240" height="231" fill="none"><circle cx="113.671" cy="113.671" r="113.671" fill="url(#a)" transform="scale(-1 1)rotate(-.858 116.389 15998.614)"/><g clip-path="url(#b)"><path fill="#fff" d="M196.522 146.717s-1.844-7.354-17.919-1.978-55.936 20.688-91.407 17.58c-35.471-3.107-53.417-4.914-65.275-13.699s-16.71-10.067-16.853-.595c-.068 4.553 6.634 5.484 5.17 12.715-.54 2.653 5.7 9.853 10.348 11.79 4.647 1.938 14.96 10.37 50.74 13.287 11.084.899 15.895 2.534 41.283 1.436s55.467-11.391 64.261-13.982 24.617-9.179 21.345-23.831c-.298-1.323-1.669-2.711-1.669-2.711z"/><path fill="#00AEEF" d="M98.888 190.381c56.261.843 92.849-21.698 94.5-22.735 12.646-7.955 9.697-16.46 8.488-18.883-3.497-7.012-13.325-10.31-21.467-7.208-67.292 25.67-121.307 16.668-141.414 11.618-12.808-3.22-18.698-7.814-22.584-10.851-2.474-1.929-4.429-3.46-6.943-3.498-4.956-.074-6.26 2.971-6.584 4.285-.896 3.551 1.52 8.52 4.93 12.32-.083 16.994 29.935 30.386 77.202 34.268 4.743.389 9.38.604 13.884.672zm88.218-45.136c4.663.07 8.826 2.549 10.391 5.699 2.015 4.034-.435 8.613-6.721 12.56-1.725 1.085-42.934 26.462-105.395 21.327-37.425-3.076-65.358-12.981-71.46-24.598 31.685 16.225 71.211 17.61 88.137 18.206 1.11.041 2.123.068 3.014.106 14.643.537 75.555-17.293 78.143-18.048a2.455 2.455 0 0 0 1.657-3.027 2.446 2.446 0 0 0-3.028-1.657c-.613.186-61.599 18.087-76.186 17.869l-.379-.006c-.903-.038-1.928-.077-3.038-.106-16.694-.58-55.793-1.959-86.578-17.938-1.236-.642-2.407-1.55-3.453-2.592a2 2 0 0 0-.385-.396c-2.801-2.948-4.625-6.736-4.21-8.341.104-.414.705-.612 1.78-.596.878.013 2.254 1.096 4.016 2.465 3.959 3.087 10.596 8.266 24.402 11.733 20.557 5.179 75.765 14.382 144.347-11.782a13.3 13.3 0 0 1 4.958-.878zM33.345 118.755c8.374.126 18.89-.962 29.364-4.065a2.44 2.44 0 0 0 1.644-3.028 2.435 2.435 0 0 0-3.027-1.645c-18.899 5.59-36.165 4.074-40.799 2.075-3.87-1.681-6.196-3.658-6.727-5.741-.484-1.912.7-3.518.712-3.53a2.445 2.445 0 0 0-.4-3.425 2.433 2.433 0 0 0-3.425.4c-.274.351-2.666 3.538-1.606 7.754.922 3.664 4.125 6.704 9.523 9.031 2.839 1.227 8.125 2.088 14.765 2.199z"/><path fill="#fff" d="M85.93 75.637s-9.324-9.236-21.567-11.861-27.83-4.605-38.721-2.985S2.21 69.915 4.722 86.386c0 0 .27 12.91 16.596 20.211 15.299 2.403 22.495 3.719 40.758.611 8.405-1.108 20.171-7.378 22.037-8.888 1.867-1.51 6.038-22.461 1.805-22.695z"/><path fill="#00AEEF" d="M36.309 54.6c.708.011 1.42-.283 1.917-.874.572-.687 14.048-15.955 49.495-3.056a2.44 2.44 0 0 0 3.123-1.455 2.44 2.44 0 0 0-1.455-3.123C50.433 31.92 35.085 49.857 34.45 50.63a2.433 2.433 0 0 0 .34 3.436c.446.361.98.552 1.517.56zM61.766 129.547a2.443 2.443 0 0 0 .195-4.881c-31.506-2.059-34.517-8.93-34.693-9.421-.115-1.235-1.151-2.178-2.433-2.197-1.343.004-2.446 1.099-2.442 2.442-.004 2.698 2.829 11.678 39.239 14.055l.122.001z"/><path fill="#00AEEF" d="M14.079 66.6c1 .015 1.95-.594 2.319-1.577.215-.546 4.993-12.22 23.106-10.191 13.994 1.553 32.841 5.9 38.605 9.882a2.453 2.453 0 0 0 3.404-.62 2.44 2.44 0 0 0-.62-3.404c-7.336-5.08-28.297-9.325-40.84-10.721-11.409-1.27-18.434 2.336-22.329 5.575-4.315 3.598-5.828 7.58-5.891 7.75a2.452 2.452 0 0 0 2.246 3.306M192.34 60.747a2.44 2.44 0 0 0 1.265-4.547c-1.308-.764-32.564-18.729-70.347-14.167-8.587 1.032-16.148 6.938-18.559 10.601a2.444 2.444 0 0 0 .694 3.38c1.125.75 2.643.43 3.38-.694 1.6-2.43 7.855-7.562 15.071-8.443 36.182-4.366 67.002 13.36 67.304 13.535.375.226.789.33 1.192.335M135.866 137.762c9.753.146 23.894-2.475 44.005-11.514a2.44 2.44 0 0 0 1.22-3.23 2.44 2.44 0 0 0-3.229-1.22c-45.715 20.548-57.528 6.281-57.648 6.133-.815-1.05-2.337-1.268-3.399-.466-1.063.802-1.305 2.288-.527 3.362.323.444 5.137 6.719 19.578 6.935"/><path fill="#00AEEF" d="M171.151 73.458a2.45 2.45 0 0 0 2.281-1.48 2.444 2.444 0 0 0-1.283-3.206c-1.808-.772-44.427-18.968-66.994-17.071-8.998.756-14.63 3.37-16.746 7.759-2.445 5.067.91 10.196 1.053 10.406a2.435 2.435 0 0 0 3.384.673 2.43 2.43 0 0 0 .685-3.372c-.048-.061-1.956-3.081-.721-5.615 1.284-2.63 5.816-4.406 12.748-4.986 21.357-1.792 64.219 16.505 64.656 16.682.303.127.62.193.925.197z"/><mask id="c" width="84" height="50" x="4" y="60" maskUnits="userSpaceOnUse" style="mask-type:luminance"><path fill="#fff" d="M85.603 76.218s-9.324-9.236-21.568-11.861c-12.243-2.626-27.83-4.605-38.72-2.986S1.881 70.495 4.394 86.967c0 0 .27 12.91 16.595 20.211 15.3 2.402 22.495 3.719 40.759.61 8.404-1.107 20.17-7.377 22.037-8.888 1.866-1.51 6.038-22.46 1.805-22.695z"/></mask><g mask="url(#c)"><path fill="#2D2E30" d="M42.45 116.449c-17.226-.258-30.98-14.43-30.722-31.655s14.43-30.98 31.656-30.721c17.224.257 30.979 14.43 30.72 31.655-.257 17.225-14.43 30.979-31.655 30.721"/><path fill="#fff" d="M56.667 81.83a7.032 7.032 0 1 1 .21-14.063 7.032 7.032 0 0 1-.21 14.063M62.6 86.74a2.54 2.54 0 1 1 .076-5.079 2.54 2.54 0 0 1-.076 5.078"/></g><path fill="#00AEEF" d="M120.091 130.42c4.516.067 9.622-.076 15.378-.442 28.096-1.74 39.288-23.489 39.754-24.422a2.444 2.444 0 0 0-1.086-3.276 2.444 2.444 0 0 0-3.277 1.087c-.415.824-10.472 20.172-35.696 21.735-13.37.826-31.934 1.182-38.626-5.206-1.926-1.836-2.843-4.206-2.798-7.245a2.45 2.45 0 0 0-2.405-2.478 2.45 2.45 0 0 0-2.478 2.405c-.066 4.406 1.382 8.054 4.307 10.845 4.767 4.54 13.121 6.778 26.927 6.984zM37.793 111.189a95 95 0 0 0 8.734-.284c29.605-2.279 38.974-12.31 39.359-12.743.1-.109.186-.23.25-.35.3-.558 7.249-13.665 1.335-23.13-.06-.086-.12-.173-.192-.26-.492-.544-12.374-13.456-35.035-15.078-17.466-1.25-33.906-1.667-43.203 6.862-4.469 4.097-6.791 9.983-6.916 17.49-.062 4.175.844 12.137 7.622 18.514 6.153 5.782 15.558 8.792 28.033 8.979zm45.246-15.353c-1.226 1.166-10.739 9.399-36.787 11.402-15.818 1.228-27.243-1.372-33.974-7.7-5.755-5.41-6.52-12.222-6.466-15.798.098-6.555 1.978-11.411 5.729-14.847 8.22-7.544 23.83-7.103 40.465-5.902C72.13 64.428 83.295 75.523 84.485 76.75c4.277 7.097-.603 17.451-1.434 19.087z"/><path fill="#fff" d="M184.94 86.118s-1.784-1.565-15.75-7.366-22.864-11.722-38.005-14.098c-15.141-2.375-29.203-.108-32.858.998-3.655 1.105-13.969 4.955-15.012 19.957-1.042 15.002 6.448 26.006 7.972 27.017 1.523 1.012 18.565 10.119 46.743 4.559 16.914-5.193 36.774-21.964 41.329-26.108s5.581-4.947 5.581-4.947z"/><mask id="d" width="102" height="57" x="83" y="63" maskUnits="userSpaceOnUse" style="mask-type:luminance"><path fill="#fff" d="M184.902 86.215s-1.784-1.565-15.75-7.366-22.864-11.722-38.005-14.098c-15.141-2.375-29.203-.107-32.858.998S84.32 70.704 83.277 85.706s6.448 26.006 7.971 27.017c1.524 1.012 18.566 10.119 46.744 4.559 16.914-5.192 36.774-21.964 41.329-26.108s5.581-4.947 5.581-4.947z"/></mask><g mask="url(#d)"><path fill="#2D2E30" d="M122.362 120.65c-17.225-.258-30.98-14.431-30.721-31.656.258-17.225 14.43-30.98 31.655-30.721 17.225.258 30.98 14.43 30.722 31.655s-14.431 30.979-31.656 30.722"/><path fill="#fff" d="M138.018 85.342a7.032 7.032 0 1 1 .21-14.062 7.032 7.032 0 0 1-.21 14.062M143.964 90.253a2.54 2.54 0 1 1 .076-5.078 2.54 2.54 0 0 1-.076 5.078"/></g><path fill="#00AEEF" d="M116.407 121.268c5.139.077 10.53-.318 15.696-1.242 17.433-3.121 38.699-15.952 54.175-32.667a1.85 1.85 0 0 0 .44-1.679 1.83 1.83 0 0 0-1.153-1.287c-.146-.05-14.159-5.144-24.321-11.45-11.48-7.12-48.398-18.759-71.651-5.31a2 2 0 0 0-.37.275c-.187.18-17.953 18.217.56 45.721.024.037.06.074.084.111 3.607 4.535 14.419 7.322 26.553 7.504zm65.3-34.405c-14.782 15.199-34.245 26.702-50.258 29.563-17.091 3.066-34.784-.105-38.692-4.889-7.07-10.533-9.361-20.652-6.814-30.1 1.68-6.203 4.948-9.975 5.68-10.758 21.624-12.3 57.133-1.159 67.67 5.372 7.912 4.905 17.777 8.996 22.414 10.8z"/></g><defs><linearGradient id="a" x1="59.65" x2="167.692" y1="0" y2="227.342" gradientUnits="userSpaceOnUse"><stop stop-color="#C3DFFF"/><stop offset=".145" stop-color="#fff"/><stop offset=".305" stop-color="#C3DFFF"/><stop offset=".75" stop-color="#0063FD"/><stop offset="1" stop-color="#001C3F"/></linearGradient><clipPath id="b"><path fill="#fff" d="M204.729 42.314 2.816 39.29.575 188.909l201.913 3.024z"/></clipPath></defs></svg>