<svg xmlns="http://www.w3.org/2000/svg" width="158" height="158" fill="none"><path fill="#7BFFFF" stroke="#000" stroke-linejoin="round" stroke-width="19.464" d="M36.018 46.991c1.507 1.916 6.839 4.257 9.316 5.188-1.272.114-5.794 1.304-6.5 2.008-.565.564-2.993 3.165-2.93 5.767-1.581-3.32-1.769-15.358.114-12.963Z"/><circle cx="51.727" cy="51.727" r="51.727" fill="url(#a)" transform="scale(-1 1)rotate(45 -46.32 -100.107)"/><path fill="#7BFFFF" stroke="#000" stroke-linejoin="round" stroke-width="19.464" d="M90.023 22.287c.118 2.434-2.377 7.696-3.638 10.023 1.036-.747 5.01-1.945 6.006-1.875.796.056 4.555-.438 6.212 1.57-.98-3.545-8.727-12.761-8.58-9.718Z"/><path fill="#6D6E71" d="M38.846 88.732c-.433.142-.867.28-1.289.44-.43.146-.847.308-1.265.472l-1.244.503-1.215.544c-1.606.742-3.182 1.53-4.648 2.464-.358.243-.738.462-1.08.725l-1.036.778c-.346.26-.654.56-.982.838l-.485.426c-.16.144-.302.306-.454.458l-.903.921-.818 1.002-.408.503-.36.544-.722 1.087-.049-.036.674-1.13.338-.566.387-.523.778-1.047.864-.97c.147-.158.285-.326.442-.477l.473-.445c.32-.291.62-.604.957-.878l1.014-.819c.335-.276.708-.509 1.06-.765 1.436-.993 2.952-1.9 4.622-2.586 1.678-.667 3.426-1.238 5.324-1.508l.026.053zM40.654 93.139c-.322.287-.646.57-.952.875-.317.292-.62.597-.92.904l-.895.929-.856.963c-1.125 1.298-2.21 2.635-3.155 4.093-.226.37-.478.724-.685 1.112l-.63 1.155c-.21.385-.376.801-.565 1.201l-.276.606c-.09.204-.158.421-.24.631l-.47 1.264-.376 1.324-.185.663-.132.692-.266 1.383-.054-.023.213-1.413.106-.708.161-.679.326-1.358.425-1.304c.074-.214.137-.437.222-.647l.26-.622c.179-.411.334-.839.532-1.236l.598-1.191c.196-.4.438-.766.655-1.149.9-1.51 1.896-2.956 3.093-4.214 1.21-1.24 2.51-2.402 4.031-3.291l.039.047zM44.56 97.222c-.195.398-.392.793-.568 1.205-.188.402-.36.813-.531 1.226l-.502 1.245-.458 1.271c-.593 1.704-1.14 3.436-1.531 5.257-.087.459-.202.907-.268 1.378l-.207 1.408c-.069.47-.09.959-.138 1.438l-.061.723c-.018.242-.014.493-.023.738l-.039 1.478.062 1.512.033.757.088.771.173 1.544-.053-.009-.228-1.56-.115-.78-.058-.767-.114-1.535-.014-1.505c.002-.249-.008-.504.003-.751l.044-.735c.034-.488.044-.986.099-1.465l.169-1.437c.053-.48.155-.939.231-1.408.337-1.864.776-3.686 1.443-5.368.682-1.668 1.466-3.277 2.52-4.664l.048.04z"/><g clip-path="url(#b)"><path fill="#EF5E5E" d="M47.128 108.816c12.638 11.084 29.217 4.82 34.156 1.331 3.874-2.735 18.609-16.553 14.988-29.77 0 0-48.645-15.804-49.144 28.439"/><path fill="#2D2E30" d="M60.751 56.3a1.7 1.7 0 0 1-.034-.454q0-.013.002-.028l.006-.07c.01-.108.028-.208.058-.311.118-.426.377-.822.736-1.066 3.087-3.56 7.718-5.183 12.4-4.323.966.178 1.473 1.4 1.21 2.262-.291.968-1.186 1.344-2.096 1.235a2.4 2.4 0 0 1-.571.524 22.8 22.8 0 0 1-9.32 3.568 1.7 1.7 0 0 1-2.087-.67 1.75 1.75 0 0 1-.306-.674zM32.43 77.207c-.038-3.977 2.977-6.706 5.92-8.89.785-.585 1.847-.679 2.564.094.612.659.695 1.975-.094 2.564a.1.1 0 0 1-.022.017 2 2 0 0 1-.216.61 23 23 0 0 1-4.066 5.32c-.145.145-.297.25-.452.332l-.002.087c.022 2.342-3.604 2.196-3.625-.137z"/><path fill="#EF5E5E" d="M42.365 74.465c-.485-.936-.053-1.916.775-2.449 2.712-1.744 5.147-3.858 7.317-6.238.661-.726 1.937-.58 2.564.094.715.77.567 1.838-.094 2.564q-.177.195-.358.387a2 2 0 0 1-.139.332c-1.609 3.099-4 6.328-7.858 6.202-.803.31-1.821-.16-2.202-.897z"/><path fill="#FFFDF8" d="M66.243 54.265c.208.455 1.038.524 1.858.154s1.316-1.043 1.109-1.498-1.038-.525-1.858-.155-1.316 1.043-1.109 1.499M38.988 73.078c.357.208.948-.139 1.316-.776.368-.638.377-1.323.017-1.529-.357-.207-.948.14-1.316.777-.368.638-.377 1.323-.017 1.528"/><path fill="#C85154" d="M47.128 108.816c.499-44.243 49.14-28.44 49.14-28.44-.993-3.625-3.37-7.208-7.728-10.502-20.253-15.308-38.797 3.228-38.797 3.228s-20.325 20.183-2.617 35.716z"/></g><path fill="#6D6E71" d="M82.677 57.4c.261-.553.52-1.107.801-1.651.269-.55.553-1.091.84-1.63l.87-1.612.913-1.585c1.236-2.1 2.52-4.174 3.96-6.144.369-.484.714-.99 1.104-1.46l1.16-1.417c.387-.473.814-.909 1.22-1.365l.618-.676c.208-.224.434-.43.65-.646l1.305-1.286 1.385-1.202.694-.599.734-.55 1.468-1.102-.034-.052-1.51 1.054-.755.527-.715.579-1.43 1.161-1.356 1.25c-.222.211-.455.414-.67.635l-.638.666c-.42.45-.862.879-1.264 1.344l-1.204 1.398c-.405.464-.765.964-1.15 1.445-1.503 1.946-2.92 3.972-4.102 6.137-1.16 2.171-2.218 4.407-2.944 6.761l.058.02zM87.628 58.664c.416-.45.828-.902 1.26-1.337.42-.444.853-.875 1.288-1.304l1.312-1.278 1.346-1.24c1.807-1.633 3.653-3.228 5.616-4.677.497-.352.977-.732 1.49-1.064l1.531-1.005c.511-.335 1.049-.623 1.573-.937l.791-.46c.265-.152.543-.281.814-.423l1.629-.837 1.681-.732.842-.364.864-.305 1.731-.613-.017-.06-1.755.555-.879.277-.855.338-1.713.68-1.667.788c-.275.135-.558.259-.83.405l-.807.445c-.536.304-1.085.58-1.608.904l-1.567.974c-.525.322-1.02.692-1.529 1.035-2.017 1.408-3.976 2.917-5.75 4.63-1.757 1.724-3.435 3.542-4.832 5.57l.05.038zM91.749 62.532c.523-.32 1.042-.64 1.577-.94.527-.312 1.06-.608 1.597-.901l1.612-.87L98.169 59c2.187-1.075 4.399-2.103 6.685-2.959.574-.202 1.14-.435 1.724-.613l1.748-.547c.583-.183 1.179-.312 1.769-.47l.888-.226c.296-.073.599-.12.898-.183l1.796-.358 1.818-.242.909-.12.915-.056 1.833-.114v-.063l-1.84.052-.921.026-.916.09-1.833.184-1.819.301c-.302.054-.608.095-.909.161l-.899.207c-.599.145-1.203.26-1.794.428l-1.775.507c-.593.166-1.169.386-1.753.576-2.327.8-4.624 1.714-6.8 2.875-2.162 1.176-4.275 2.464-6.175 4.032l.038.049z"/><defs><linearGradient id="a" x1="27.145" x2="76.31" y1="0" y2="103.454" gradientUnits="userSpaceOnUse"><stop stop-color="#ED35D4"/><stop offset=".75" stop-color="#4DFFFF"/><stop offset="1" stop-color="#fff"/></linearGradient><clipPath id="b"><path fill="#fff" d="M65.206 41.002 22.217 83.99l42.88 42.88 42.988-42.988z"/></clipPath></defs></svg>