<svg xmlns="http://www.w3.org/2000/svg" width="753" height="449" fill="none"><g clip-path="url(#a)"><path fill="url(#b)" d="M480.478 154.224.009 359.557l2.033 4.757L482.51 158.98z"/><path fill="url(#c)" d="M507.894 237.938 27.425 443.272l2.033 4.756 480.468-205.334z"/><path fill="url(#d)" d="M495.106 183.931 14.638 389.265l10.365 24.253L505.47 208.185z"/><path fill="#FFEFCD" d="m498.26 189.337 7.393 14.818-89.862 29.645z"/></g><path fill="#232826" d="M594.316 176.045a2.78 2.78 0 0 1 1.8 1.521c.343.75.343 1.607 0 2.357-3.299 7.134-18.468 25.667-87.629 43.686-.278.064-1.692.193-3.535-3.793-1.843-3.985-.836-4.992-.6-5.163 58.469-41.115 82.401-40.686 89.986-38.608z"/><path fill="#C9CDA9" d="m565.883 145.515-31.581 22.453s4.949-4.306 2.228-10.177-18.04-7.134-18.04-7.134l27.896-14.698s13.712 10.434 19.497 9.556"/><path fill="url(#e)" d="m546.386 135.959-27.896 14.698s15.384 1.371 18.04 7.134c2.657 5.764-2.228 10.177-2.228 10.177l31.581-22.453c-2.7.407-7.113-1.65-11.077-3.943.172.665.214 2.014-1.757 3.493-2.099 1.585-8.056 4.542-10.648 5.806 3.364 3.257 5.549 5.292 5.592 5.313l-.193.193s-5.978-5.549-13.369-13.005l.193-.193c2.828 2.85 5.42 5.399 7.563 7.478 2.549-1.243 8.591-4.243 10.691-5.828 2.314-1.735 1.692-3.214 1.542-3.492-.299-.172-.578-.343-.878-.514a.14.14 0 0 1-.193-.043v-.086c-3.878-2.378-6.984-4.735-6.984-4.735zm-4.199 13.691s.15 0 .171.064c.043.064 0 .15-.064.171-.064.043-.15 0-.193-.064s0-.15.064-.193zm.985-.493s.15 0 .193.064 0 .15-.064.193-.15 0-.172-.064c0 0 0-.15.065-.193zm.986-.493s.15 0 .193.064c.042.065 0 .15-.065.193-.064.043-.15 0-.192-.064 0 0 0-.15.064-.193m.985-.514s.15 0 .193.064 0 .15-.064.193-.15 0-.193-.064c0 0 0-.15.064-.193m.986-.493s.15 0 .193.064c.043.065 0 .15-.065.193-.064.043-.149 0-.192-.064 0 0 0-.15.064-.193m.985-.514s.15 0 .193.064 0 .15-.064.193-.15 0-.193-.064c0 0 0-.15.064-.193m.965-.536s.15 0 .192.065a.17.17 0 0 1-.064.192c-.064.043-.15 0-.193-.064 0 0 0-.15.065-.193m.964-.535s.15 0 .193.043c.042.064 0 .149-.043.192-.065.043-.15 0-.193-.043 0 0 0-.149.064-.192zm.964-.536s.15 0 .193.043c.043.064 0 .15-.043.193-.064.043-.15 0-.193-.043 0 0 0-.15.043-.193m.921-.578s.15-.022.193.042a.14.14 0 0 1-.043.193c-.064.043-.15 0-.193-.043 0 0 0-.15.043-.192m.921-.622s.15-.043.193.022c.043.064.043.15-.021.192s-.15.022-.193-.021v-.021a.17.17 0 0 1 .043-.172zm.793-.707s.15-.064.193 0a.136.136 0 0 1 0 .193c-.043.064-.129.064-.193 0 0 0 0-.021-.021-.043-.022-.043 0-.107.021-.15m.836-.921s.085.128.064.193q-.064.096-.193.064c-.021 0-.043-.043-.064-.064v-.129c.043-.064.128-.086.193-.064m.235-1.05s.129.064.129.15-.064.129-.15.129c-.043 0-.086-.043-.107-.086v-.064c0-.086.064-.129.15-.129zm-6.834 15.041s.064.128 0 .192q-.096.097-.193 0s-.021-.021-.021-.042c-.022-.043 0-.108.021-.15.043-.065.129-.065.193 0m-1.007-.75s.128-.065.193 0a.134.134 0 0 1 0 .192.135.135 0 0 1-.193 0s-.022-.021-.022-.042c-.021-.043 0-.107.022-.15m-.814-.75s.15-.064.192 0c.065.043.065.128 0 .193q-.096.096-.192 0s0-.022-.022-.043c-.021-.043 0-.107.022-.15m-.793-.772s.15-.064.193 0c.064.043.064.129 0 .193-.043.065-.129.065-.193 0 0 0 0-.021-.021-.043-.022-.042 0-.107.021-.15m-.793-.749s.129-.065.193 0c.064.042.064.128 0 .192q-.097.097-.193 0s-.021-.021-.021-.042c-.022-.043 0-.108.021-.15m-.814-.772s.15-.043.193 0a.136.136 0 0 1 0 .193q-.096.096-.193 0s-.021-.021-.021-.043c-.022-.043 0-.107.021-.15m-.771-.771s.128-.064.193 0c.064.043.064.15 0 .193-.043.064-.15.064-.193 0 0 0-.022-.022-.022-.043-.021-.043 0-.107.022-.15m-.814-.771s.15-.065.192 0c.065.043.043.15 0 .193a.135.135 0 0 1-.192 0s-.022-.022-.022-.043c-.021-.043 0-.107.022-.15m-.6-.772s.043.15 0 .193c-.043.064-.15.064-.193 0 0 0-.022-.021-.022-.043-.021-.042 0-.107.022-.15.043-.064.128-.064.193 0m-.986-.749s.15-.065.193 0c.064.042.064.128 0 .192-.043.065-.129.065-.193 0 0 0-.021-.021-.021-.043-.022-.042 0-.107.021-.149m-.793-.772s.15-.064.193 0q.096.096 0 .193c-.043.064-.128.064-.193 0 0 0-.021-.021-.021-.043-.021-.043 0-.107.021-.15m-.771-.793s.15-.042.193 0c.064.043.043.15 0 .193s-.15.043-.193 0c0 0 0-.021-.021-.043-.022-.042 0-.107.021-.15m-.793-.771s.15-.064.193 0 .064.15 0 .193-.15.043-.193 0c0 0-.021-.021-.021-.043-.021-.043 0-.107.021-.15m-.771-.771s.15-.043.193 0c.064.043.064.15 0 .193-.043.064-.129.064-.193 0 0 0-.021-.022-.021-.043-.022-.043 0-.107.021-.15m-.793-.771s.15-.065.193 0c.043.064.064.15 0 .192s-.15.065-.193 0c0 0-.021-.021-.021-.042-.022-.043 0-.108.021-.15m-.792-.793s.15-.064.192 0c.065.043.065.128 0 .193-.064.064-.15.064-.192 0 0 0 0-.022-.022-.043-.021-.043 0-.107.022-.15m-.772-.771s.15-.043.193 0a.134.134 0 0 1 0 .192.135.135 0 0 1-.193 0s-.021-.021-.021-.043c-.022-.042 0-.107.021-.149"/><path fill="#232826" d="M518.4 150.829c.15 0 15.254 1.435 17.825 6.984 2.593 5.614-1.971 9.684-2.164 9.856l.365.407s5.077-4.499 2.292-10.499c-2.699-5.849-17.633-7.241-18.276-7.306zM546.153 136.067c.557.429 13.884 10.499 19.711 9.62l-.085-.536c-5.614.857-19.154-9.405-19.283-9.512l-.343.45z"/><path fill="#232826" d="M552.639 143.801s0-.107.022-.15c0 0 .15-.064.193 0 0 0 .064.128 0 .193 0 0-.129.064-.193 0 0 0 0-.022-.022-.043m.643-.879v-.128s.129-.086.193-.064c0 0 .086.128.064.192 0 0-.107.086-.193.065-.021 0-.043-.043-.064-.065m.321-1.049v-.065s.065-.128.15-.128c0 0 .129.064.129.15 0 0-.064.128-.15.128-.043 0-.086-.043-.107-.085zM554.63 141.164l-.236.15s.878 1.436-1.05 3.15l.236.15c2.035-1.864 1.05-3.429 1.05-3.45"/><path fill="url(#f)" d="M565.177 121.199c-2.828 6.085-16.39 23.504-81.137 40.365 0 0-1.243.3-2.935-3.342-1.693-3.642-.664-4.392-.664-4.392 54.741-38.501 76.787-37.58 83.258-35.78 1.35.364 2.057 1.885 1.457 3.171z"/><path fill="url(#g)" d="M480.442 153.808s-.985.729.579 4.199c-.836-1.949.193-2.571.193-2.571 56.862-33.894 77.109-36.872 82.808-36.765.6 0 .986.236 1.157.578-.279-.578-.793-1.071-1.457-1.242-6.47-1.8-28.517-2.7-83.258 35.78z"/><path fill="#232826" d="M557.378 125.226c-.193.064.407 1.157.664 1.586.193.321.6.857.685.771l.45-.386a39 39 0 0 0 4.093-3.985c-.279.086-.579.086-.815-.064-.278-.172-.407-.557-.45-.921a76 76 0 0 1-4.113 2.678c-.172.107-.322.214-.514.3zM501.546 151.514c-.257.065.9 1.757 1.35 2.379.129.192.3.449.514.449.193-.064.386-.128.579-.214 10.113-3.492 18.554-6.834 25.646-9.962a41 41 0 0 1-2.378-3.707c-7.049 3.192-15.362 6.792-25.175 10.82-.193.064-.364.15-.557.214zM500.169 149.204l.129.279c9.469-4.564 18.232-8.72 26.053-12.363l-.129-.278a2590 2590 0 0 0-26.053 12.362M500.386 150.015s0-.171.065-.214c0 0 .171 0 .214.086 0 0 0 .171-.064.214 0 0-.172 0-.215-.064zm1.136-.557s0-.171.064-.214c0 0 .172 0 .214.064 0 0 0 .172-.085.215 0 0-.172 0-.215-.065zm1.135-.535s0-.172.065-.215c0 0 .171 0 .214.065 0 0 0 .171-.086.214 0 0-.171 0-.214-.064zm1.136-.536s0-.171.064-.214c0 0 .172 0 .214.064 0 0 0 .171-.064.214 0 0-.171 0-.214-.085zm1.135-.557s0-.171.065-.214c0 0 .171 0 .214.064 0 0 0 .171-.086.214 0 0-.171 0-.214-.085zm1.136-.536s0-.171.086-.214c0 0 .171 0 .214.086 0 0 0 .171-.064.214 0 0-.172 0-.215-.064zm1.136-.535s0-.172.085-.215c0 0 .172 0 .215.086 0 0 0 .172-.065.214 0 0-.171 0-.214-.064zm1.135-.557s0-.172.064-.215c0 0 .172 0 .215.086 0 0 0 .172-.065.214-.085.043-.171 0-.214-.064zm1.136-.536s0-.171.085-.214c0 0 .172 0 .215.086 0 0 0 .171-.065.214 0 0-.171 0-.214-.065zm1.135-.536s0-.171.086-.214c0 0 .171 0 .214.086 0 0 0 .171-.064.214s-.172 0-.214-.064zm1.136-.557s0-.171.085-.214c0 0 .172 0 .215.086 0 0 0 .171-.065.214-.085.043-.171 0-.214-.064zm1.135-.535s0-.172.086-.215c0 0 .171 0 .214.086 0 0 0 .172-.064.214-.086.043-.171 0-.214-.064zm1.136-.536s0-.171.085-.214c0 0 .172 0 .215.086 0 0 0 .171-.065.214 0 0-.171 0-.214-.064zm1.135-.536s0-.171.086-.214c0 0 .171 0 .214.086 0 0 0 .171-.064.214 0 0-.171 0-.214-.064zm1.136-.557s0-.171.086-.214c0 0 .171 0 .214.086 0 0 0 .171-.064.214 0 0-.172 0-.215-.064zm1.157-.514s0-.171.086-.214c0 0 .171 0 .214.086 0 0 0 .171-.065.214 0 0-.171 0-.214-.064zm1.135-.557s0-.171.086-.214c0 0 .171 0 .214.086 0 0 0 .171-.064.214-.086.043-.171 0-.214-.064zm1.136-.535s0-.172.086-.215c0 0 .171 0 .214.086 0 0 0 .171-.086.214-.064.043-.171 0-.214-.085m1.135-.536s0-.171.086-.214c0 0 .172 0 .214.085 0 0 0 .172-.085.215-.065.042-.172 0-.215-.086m1.136-.536s0-.171.086-.193c0 0 .171 0 .214.065 0 0 0 .171-.064.214 0 0-.172 0-.215-.086zm1.135-.535s0-.172.086-.193c0 0 .172 0 .214.064 0 0 0 .172-.064.214 0 0-.171 0-.214-.085zm1.157-.536s0-.171.086-.193c0 0 .172 0 .214.064 0 0 0 .172-.064.215 0 0-.171 0-.214-.086zm1.136-.536s0-.171.086-.214c0 0 .171 0 .214.086 0 0 0 .171-.086.214-.064.043-.171 0-.214-.086M556.987 126.254c-6.877 4.242-16.454 9.298-28.559 15.019.15.257.3.493.45.728 0 0 0-.021.021-.042.086-.043.171 0 .214.064.043.085 0 .171-.064.214.407.643.814 1.221 1.157 1.693.086-.022.15-.065.236-.108.192-.085.364-.171.557-.235 13.69-6.128 22.025-11.398 27.103-15.491-.3-.492-.686-1.114-1.093-1.864zm-26.931 15.169s.171 0 .214.064c.043.086 0 .172-.064.214-.086.043-.171 0-.214-.064-.043-.086 0-.171.064-.214m1.136-.557s.171 0 .214.064c.043.086 0 .171-.064.214-.086.043-.172 0-.215-.064-.043-.086 0-.171.065-.214m1.135-.557s.171 0 .214.064c.043.086 0 .171-.064.214s-.171 0-.214-.064c-.043-.086 0-.171.064-.214m1.114-.536s.172 0 .214.064c.043.086 0 .172-.064.215s-.171 0-.214-.065c-.043-.085 0-.171.064-.214m1.136-.578s.171 0 .214.064c.043.086 0 .171-.064.214-.065.043-.172 0-.215-.064-.042-.086 0-.171.065-.214m1.135-.557s.172 0 .215.064c.042.086 0 .171-.065.214-.064.043-.171 0-.214-.064-.043-.086 0-.172.064-.214m1.114-.557s.172 0 .215.064c.042.086 0 .171-.065.214-.064.043-.171 0-.214-.064-.043-.086 0-.172.064-.214m1.136-.579s.171 0 .214.064c.043.065 0 .172-.064.215-.064.042-.172 0-.214-.065 0 0 0-.171.064-.214m1.114-.557s.171 0 .214.064c.043.086 0 .172-.064.215-.086.042-.171 0-.214-.065-.043-.085 0-.171.064-.214m1.114-.578s.172 0 .214.064c.043.086 0 .171-.064.214-.086.043-.171 0-.214-.064 0 0 0-.172.064-.214m1.114-.579s.172 0 .214.064c.043.086 0 .172-.064.215-.086.042-.171 0-.214-.065-.043-.064 0-.171.064-.214m1.114-.578s.172 0 .215.064c.042.086 0 .171-.065.214-.064.043-.171 0-.214-.064 0 0 0-.172.064-.214m1.114-.579s.172 0 .215.064c.043.065 0 .172-.065.215-.085.042-.171 0-.214-.065-.043-.085 0-.171.064-.214m1.115-.6s.171 0 .214.064c.043.086 0 .172-.064.215-.086.043-.172 0-.215-.065 0 0 0-.171.065-.214m1.114-.6s.171 0 .214.065c.043.085 0 .171-.064.214-.065.043-.172 0-.215-.064 0 0 0-.172.065-.215m1.114-.6s.171 0 .214.065c.043.085 0 .171-.064.214 0 0-.172 0-.215-.064 0 0 0-.172.065-.215m1.092-.6s.172 0 .215.065c.043.085 0 .171-.065.214-.064.043-.171 0-.214-.064 0 0 0-.172.064-.215m1.115-.599s.171 0 .214.064 0 .171-.064.214c-.086.043-.172 0-.215-.064 0 0 0-.172.065-.214m1.092-.622s.172 0 .214.065c.043.085 0 .171-.064.214-.085.043-.171 0-.214-.065 0 0 0-.171.064-.214m1.093-.621s.171 0 .214.064c.043.086 0 .172-.064.214-.086.043-.172 0-.214-.064s0-.171.064-.214m1.093-.621s.171 0 .214.064c.043.086 0 .171-.064.214-.065.043-.172 0-.215-.064 0 0 0-.172.065-.214m1.071-.643s.171 0 .214.064c.043.086 0 .172-.064.214-.086.043-.172 0-.214-.064 0 0 0-.171.064-.214m1.093-.643s.171 0 .214.064c.043.065.021.172-.064.215-.065.042-.172 0-.215-.065-.043-.064 0-.171.065-.214m1.071-.643s.171 0 .214.043c.043.086 0 .172-.043.214-.085.043-.171 0-.214-.064s0-.15.064-.193zm1.071-.664s.171-.021.214.043c.043.086 0 .171-.064.214a.165.165 0 0 1-.214-.043c-.043-.064 0-.15.064-.192z"/><path fill="#232826" d="M556.665 125.656c.064.108.128.215.171.322-6.856 4.242-16.454 9.298-28.56 15.019l-.45-.771.215-.108c.192-.085.364-.171.535-.235 13.798-6.278 22.54-10.927 28.089-14.227M528.362 141.295l-.128-.277h.042c.043.085.107.192.171.277-.021 0-.042 0-.064.022zM528.857 142.173s0-.128.043-.171c.043.085.107.171.15.256-.086.022-.171 0-.193-.064zM501.651 153.291a651 651 0 0 1-18.661 6.835c.321.342.686.664.985.728 6.878-2.078 12.834-4.242 18.619-6.213-.279-.386-.6-.836-.943-1.35m.107.75s0-.193.086-.214c.086-.022.171 0 .193.085s0 .172-.086.193c0 0-.171 0-.193-.086zm-1.178.45s0-.193.086-.214c.085-.022.171 0 .193.085s0 .172-.086.193-.172 0-.193-.086zm-1.178.428s0-.193.085-.214.172 0 .193.086 0 .171-.086.193-.171 0-.192-.086zm-1.179.429s0-.193.086-.214c.086-.022.171 0 .193.107.021.085 0 .171-.086.193s-.171 0-.193-.086m-1.178.428s0-.171.107-.214c.086-.021.171 0 .193.086s0 .171-.086.193-.171 0-.193-.086zm-1.179.429s0-.193.086-.214c.086-.022.172 0 .193.085s0 .172-.086.193-.171 0-.193-.086zm-1.199.428s0-.192.085-.214.172 0 .215.107c.021.086 0 .172-.086.193s-.172 0-.193-.086zm-10.413 3.6s0 .171-.086.193-.15 0-.193-.086c0 0 0-.193.086-.214.086-.022.172 0 .193.107m1.2-.407s0 .171-.086.193-.15 0-.193-.086c0 0 0-.193.086-.214.086-.022.171 0 .193.107m1.178-.407s0 .171-.086.192c-.085.022-.171 0-.192-.085 0 0 0-.172.085-.193s.172 0 .193.086m1.2-.407s0 .171-.086.192c-.085.022-.15 0-.193-.085 0 0 0-.193.086-.215s.172 0 .193.108m1.2-.408s0 .172-.086.193-.171 0-.193-.085 0-.172.086-.193.171 0 .193.085m1.178-.407s0 .172-.085.193-.15 0-.193-.086c0 0 0-.192.085-.214s.172 0 .193.107m1.2-.428s0 .171-.086.193-.171 0-.192-.086c-.022-.086-.001-.171.085-.193s.172 0 .193.086m1.178-.407s0 .171-.085.193-.15 0-.193-.086c0 0 0-.193.086-.214.085-.022.171 0 .192.085zm1.2-.429s0 .172-.107.215c-.086.021-.15 0-.193-.086 0 0 0-.193.086-.214.086-.022.171 0 .193.085zM482.261 159.249l.6-.236a1226 1226 0 0 0 17.89-7.177c.236.428.493.814.729 1.178a549 549 0 0 1-18.726 6.835c-.278-.343-.493-.621-.493-.621z"/><path fill="#232826" d="M526.48 137.845c1.242 2.657 2.892 5.485 5.099 7.971l.236-.215c-6.514-7.327-8.249-17.718-8.249-17.825l-.321.042s.771 4.735 3.235 10.027M556.329 123.79c.772 1.671 1.736 3.47 2.914 5.12l.257-.171c-3.471-4.885-5.142-11.056-5.142-11.12l-.3.086s.75 2.807 2.293 6.106zM500.301 149.844c.942 2.035 2.228 4.178 3.985 6.042l.235-.214c-5.163-5.464-6.277-13.477-6.277-13.563l-.321.043s.514 3.664 2.378 7.692"/><path fill="#232826" d="M480.288 153.591c54.27-38.158 76.467-37.772 83.494-35.823a2.55 2.55 0 0 1 1.65 1.393 2.55 2.55 0 0 1 0 2.164c-3.064 6.62-17.119 23.803-81.33 40.515-.15.043-1.5.257-3.257-3.492-1.735-3.75-.685-4.65-.578-4.735zm3.685 7.713c63.976-16.647 77.924-33.68 80.966-40.215a1.95 1.95 0 0 0 0-1.692 2.03 2.03 0 0 0-1.285-1.093c-6.964-1.928-28.967-2.271-83.023 35.737 0 0-.793.772.728 4.071 1.522 3.299 2.614 3.192 2.614 3.192"/><path fill="url(#h)" d="M750.976 85.868c-8.613 18.597-50.028 71.774-247.761 123.281 0 0-3.771.921-8.956-10.22s-2.014-13.434-2.014-13.434C659.405 67.935 726.744 70.742 746.498 76.184c4.135 1.136 6.277 5.763 4.478 9.663z"/><path fill="#A07A4B" d="M717.597 74.833c4.435 17.333 15.126 33.102 15.748 34.002 10.241-9.813 15.233-17.74 17.654-22.947 1.8-3.899-.343-8.527-4.478-9.684-5.527-1.52-14.783-2.85-28.924-1.371"/><path fill="#232826" d="M492.054 185.173c72.01-50.649 133.415-84.565 182.5-100.805 40.729-13.477 62.647-11.12 72.074-8.528a7.34 7.34 0 0 1 4.714 4.007c.899 1.971.921 4.242 0 6.192-4.114 8.891-16.498 27.124-53.113 49.47-44.115 26.932-109.697 51.828-194.905 74.024-.172.043-4.157.879-9.384-10.434s-2.036-13.819-1.886-13.926m258.581-99.456a6.61 6.61 0 0 0 0-5.549 6.55 6.55 0 0 0-4.221-3.6c-9.363-2.57-31.088-4.906-71.625 8.507-48.999 16.218-110.318 50.113-182.285 100.698-.021.021-2.785 2.357 2.143 12.962 4.906 10.606 8.484 10.027 8.505 10.006 85.123-22.175 150.641-47.05 194.691-73.917 36.423-22.218 48.721-40.3 52.792-49.107"/><path fill="#232826" d="M497.774 201.969s2.378 3.985 4.242 4.542c20.975-6.363 40.194-12.555 57.827-18.597a92 92 0 0 1-5.592-8.549c-16.776 6.878-34.945 14.162-54.656 21.897l-1.8.707zM631.661 133.541c7.456 16.112 16.776 27.081 16.904 27.231l.3-.257c-.214-.236-21.082-24.832-25.281-54.591l-.386.064c1.414 10.006 4.714 19.433 8.463 27.553M723.342 91.738c4.649 10.049 9.62 17.226 9.684 17.333l.322-.214c-.107-.171-11.227-16.262-15.769-34.044l-.386.107c1.521 5.977 3.792 11.762 6.149 16.84zM552.043 170.838c5.699 12.298 13.07 20.547 13.177 20.675l.278-.257c-.171-.193-16.69-18.683-19.261-41.565l-.386.043c.857 7.713 3.3 14.934 6.171 21.125z"/><path fill="#232826" d="M729.291 106.928a129 129 0 0 1-4.349-7.541c-16.926 10.091-43.686 24.296-85.787 43.45-.535.257-1.092.514-1.649.75l-.322.15a132 132 0 0 0 7.285 11.355c.236-.086.128-.043.343-.15.578-.257 1.114-.493 1.671-.75 41.779-18.704 67.253-34.816 82.787-47.264zm-83.772 46.6s.214-.043.278.043a.2.2 0 0 1-.043.278.2.2 0 0 1-.278-.042l-.022-.022c-.042-.085 0-.193.065-.235zm-.9-1.264s.214-.043.278.043a.2.2 0 0 1-.042.278.203.203 0 0 1-.279-.042v-.022c-.043-.086 0-.193.064-.236zm-.879-1.285s.215-.043.258.042a.205.205 0 0 1-.043.279.204.204 0 0 1-.279-.043c-.043-.107 0-.214.064-.257zm-.857-1.307s.215-.043.258.064c.064.086.021.214-.065.257-.085.064-.214.043-.257-.064v-.022c-.043-.085 0-.193.086-.235zm-.835-1.307s.214-.043.257.064.021.214-.064.278-.215.022-.257-.064c-.043-.107 0-.214.085-.278zm-3.043-4.992s-.214.021-.257-.065c-.042-.085 0-.214.065-.257.085-.043.214-.021.257.064.064.086.021.215-.065.258m.772 1.328s-.214.021-.257-.064c0 0 0-.215.064-.279.086-.043.214 0 .278.064.043.086.022.215-.064.258zm.814 1.35s-.214.021-.279-.065c0 0 0-.214.065-.278a.234.234 0 0 1 .278.064c.065.086.022.214-.064.279m.814 1.328s-.214.022-.278-.064a.26.26 0 0 1 .064-.279c.086-.064.214-.021.278.065.065.085.022.214-.064.278M632.104 129.211s0 .214-.107.257c-.086.042-.214 0-.257-.107 0 0 0-.214.107-.257.107-.042.214 0 .257.107M636.797 139.022s0 .214-.085.278c-.107.043-.214 0-.257-.085 0 0 0-.214.086-.257.107-.043.213 0 .277.086zM632.725 130.626s0 .213-.107.256c-.086.043-.214 0-.257-.107 0 0 0-.214.107-.256s.214 0 .257.085zM634.164 133.901s0 .214-.085.257c-.086.042-.214 0-.257-.086-.043-.107 0-.214.086-.256.107-.043.213 0 .256.085M633.373 132.038s0 .214-.107.256-.213 0-.256-.085c-.043-.107 0-.214.085-.257.107-.042.214 0 .257.086zM636.092 137.651s0 .214-.085.257c-.107.042-.214 0-.257-.086s0-.214.086-.256.213 0 .256.085M637.547 140.393s0 .214-.085.257-.214.021-.257-.064c0 0 0-.214.086-.257.085-.042.213 0 .277.086zM648.558 157.341s.043.214-.043.278a.203.203 0 0 1-.278-.043v-.042s-.043-.171.043-.236.214-.042.278.022zM650.488 159.761s.064.192-.022.277c-.085.064-.213.064-.277 0v-.042s-.043-.171.021-.235c.085-.065.214-.065.256.021zM647.617 156.1s.043.213-.043.277a.2.2 0 0 1-.277-.042v-.043s-.022-.171.042-.235c.086-.064.214-.043.257.043zM638.3 141.747s0 .214-.064.257c-.086.043-.214.021-.257-.064 0 0 0-.214.086-.257s.214 0 .256.064zM646.671 154.834s.043.214-.043.278a.203.203 0 0 1-.278-.043v-.043s-.021-.171.043-.235c.086-.064.214-.043.257.043zM649.504 158.564s.043.214-.043.278-.192.043-.278-.022c0 0 .001-.021-.021-.042-.043-.086 0-.171.064-.235a.224.224 0 0 1 .278.021M626.043 109.97a.196.196 0 0 1-.149.235c-.086 0-.193-.021-.214-.107v-.042a.197.197 0 0 1 .149-.235.197.197 0 0 1 .236.149zM626.365 111.492s-.042.213-.149.235c-.086 0-.171-.022-.214-.107v-.043s.021-.214.128-.235a.197.197 0 0 1 .235.15M626.703 113.01s-.042.214-.149.236c-.086.021-.171 0-.214-.107v-.043s.021-.214.128-.235c.107-.022.214.021.235.128zM627.071 114.51s-.043.214-.15.236c-.086.021-.192-.022-.214-.107-.021-.129.043-.235.15-.257.107-.021.214.022.235.15zM625.465 106.931s-.043.213-.15.213c-.085 0-.171-.021-.213-.106v-.043c0-.107.064-.214.149-.235.107 0 .214.064.214.171M625.229 105.386c0 .107-.064.214-.171.214a.26.26 0 0 1-.214-.107v-.043c0-.107.064-.214.171-.214s.214.064.214.171zM625.741 108.448s-.042.214-.149.236a.26.26 0 0 1-.214-.107v-.043s.021-.214.15-.235c.107 0 .213.043.235.149zM631.506 127.776s0 .213-.107.256-.214 0-.256-.107c0 0 0-.214.107-.256a.19.19 0 0 1 .256.107M627.481 116.012s-.022.214-.129.236a.22.22 0 0 1-.235-.107v-.022c-.021-.107.022-.213.128-.235s.214.022.236.128M629.323 121.949s0 .214-.128.257c-.107.043-.213 0-.235-.128-.043-.107 0-.214.128-.235.107-.043.214 0 .257.106zM628.832 120.489s-.021.214-.128.235-.192 0-.235-.107c-.022-.128 0-.235.128-.278.107-.021.214.022.235.129zM628.36 118.993s-.022.214-.129.235c-.085.043-.192 0-.235-.107-.021-.128.022-.235.129-.256.106-.022.213 0 .256.128zM627.905 117.512s-.021.214-.128.235c-.085.022-.192 0-.235-.106-.021-.129.021-.235.128-.278.107-.022.214.021.235.128zM630.925 126.317s0 .213-.107.256c-.085.043-.214 0-.256-.107s0-.235.106-.256c.107-.043.214 0 .257.107M630.369 124.883s0 .214-.107.256c-.085.043-.192 0-.235-.106-.043-.107 0-.235.107-.257.086-.043.214 0 .257.107zM629.834 123.426s0 .214-.128.235c-.107.043-.192 0-.235-.107s0-.235.128-.256c.107-.043.214 0 .257.106zM557.722 178.039v-.086c-.364.15-.728.3-1.071.428-.814.215 2.786 5.357 4.135 7.285.429.6 1.136 1.564 1.222 1.5.599-.193 1.564-.536 2.163-.729 30.853-10.691 56.67-20.868 78.267-30.402a141 141 0 0 1-7.285-11.355c-21.511 9.748-46.9 20.696-76.831 33.037-.107.043-.214.086-.3.129 0 0 .043 0 .043.043.043.085.022.214-.064.257a.235.235 0 0 1-.279-.064zm5.185 7.563s.215-.043.279.043a.203.203 0 0 1-.043.278.2.2 0 0 1-.278-.043v-.043s-.022-.171.042-.235m-.899-1.264s.214-.043.278.043a.203.203 0 0 1-.043.278.203.203 0 0 1-.278-.043v-.021c-.043-.086 0-.193.064-.236zm-.879-1.264s.214-.043.279.042a.205.205 0 0 1-.043.279.204.204 0 0 1-.279-.043c-.043-.107 0-.214.065-.257zm-.878-1.307s.214-.043.278.064c.064.086.043.214-.064.278-.086.065-.214.043-.279-.064 0 0 0-.214.065-.257zm-.836-1.307s.214-.022.257.064c.064.086.022.214-.064.279-.086.064-.214.042-.257-.065s0-.214.086-.278zm-.835-1.329s.214-.021.278.065c.064.085.021.214-.064.278-.086.043-.214.022-.257-.064-.065-.086-.022-.214.064-.257zM556.522 175.167s0 .213-.086.256-.214.022-.256-.064c0 0 0-.214.085-.278a.206.206 0 0 1 .257.086M557.294 176.519s0 .214-.064.257c-.085.042-.214.021-.256-.065 0 0 0-.213.085-.256s.214-.021.257.064zM555.086 172.405s0 .214-.085.256a.206.206 0 0 1-.257-.085c-.043-.086 0-.214.086-.256.106-.043.213 0 .256.085M555.795 173.774s0 .214-.085.278c-.107.043-.214 0-.257-.085 0 0 0-.214.086-.257s.213 0 .256.086zM554.401 171.01s0 .214-.085.257c-.107.043-.214 0-.256-.086s0-.213.085-.256.214 0 .256.085M564.108 186.908s.042.214-.043.257a.203.203 0 0 1-.278-.043v-.043s-.043-.171.043-.235a.203.203 0 0 1 .278.043zM553.74 169.596s0 .214-.085.257c-.085.042-.214 0-.256-.107-.043-.086 0-.214.106-.257.107-.042.214 0 .257.086zM566.036 189.349s.064.214-.022.278-.214.064-.256-.021c0 0 0-.022-.022-.043-.042-.086 0-.171.064-.235a.224.224 0 0 1 .278.021zM565.071 188.128s.043.214-.042.278a.224.224 0 0 1-.278-.021s0-.021-.021-.043c-.043-.085 0-.171.064-.235a.22.22 0 0 1 .277.021M567.041 190.531s.064.192 0 .277a.225.225 0 0 1-.278 0l-.043-.042c-.042-.065 0-.171.043-.235.086-.065.214-.065.278 0M549.513 157.94s-.022.214-.15.235a.214.214 0 0 1-.235-.107v-.021a.197.197 0 0 1 .15-.235c.107-.021.213.021.235.149zM549.131 156.419s-.043.214-.149.235c-.086 0-.193-.021-.214-.106v-.043a.196.196 0 0 1 .149-.235.196.196 0 0 1 .235.149zM548.792 154.921s-.043.214-.149.235c-.086 0-.193-.021-.214-.106v-.043a.197.197 0 0 1 .15-.235.197.197 0 0 1 .235.149zM547.865 150.595c0 .107-.064.214-.171.214-.085 0-.17-.043-.192-.107v-.043c0-.107.064-.192.171-.214.107 0 .214.064.214.171zM549.928 159.44s-.022.214-.128.235a.21.21 0 0 1-.235-.107c-.022-.128.021-.235.128-.278.107-.021.213.022.235.129zM550.865 162.376s0 .214-.128.256c-.085.022-.192 0-.235-.106-.021-.129 0-.235.128-.278.086-.043.214.021.235.128M551.939 165.311s0 .213-.107.256c-.086.043-.214 0-.257-.107-.042-.107 0-.235.107-.256.107-.043.214 0 .257.107M551.378 163.856s0 .213-.107.256c-.107.021-.213 0-.235-.107-.043-.107 0-.235.107-.256.107-.043.214 0 .257.107zM552.514 166.748s0 .214-.107.257c-.107.042-.214 0-.257-.107 0 0 0-.214.107-.257.086-.042.214 0 .257.107M553.113 168.182s0 .214-.106.256c-.086.043-.214 0-.257-.107-.043-.106 0-.213.086-.256a.19.19 0 0 1 .256.107zM550.373 160.919s-.021.213-.128.256c-.107.022-.192 0-.235-.107-.021-.128.021-.235.128-.278.107-.021.214.022.257.129zM634.082 138.147c38.137-17.547 68.711-32.138 90.864-43.386l-.171-.343c-22.154 11.248-52.727 25.839-90.843 43.386l.172.364zM494.985 200.388l3.493-1.5c19.304-8.484 37.965-16.711 55.448-24.51l-.15-.364c-17.483 7.798-36.144 16.026-55.448 24.51l-3.493 1.5zM546.795 154.858l.192.343c27.896-16.562 54.056-30.745 77.752-42.208l-.171-.343c-23.718 11.463-49.878 25.668-77.773 42.229zM633.182 136.625s0-.214.086-.257c0 0 .214 0 .257.085 0 0 0 .215-.086.258-.107.042-.214 0-.257-.086m1.479-.707s0-.214.085-.257c0 0 .215 0 .257.085 0 0 0 .215-.085.258-.086.042-.215 0-.257-.086m1.349-.579s0-.214.086-.257c0 0 .214 0 .257.086 0 0 0 .214-.085.257a.21.21 0 0 1-.258-.086m1.414-.664s0-.214.086-.257c0 0 .214 0 .257.086 0 0 0 .214-.085.257a.21.21 0 0 1-.258-.086m1.415-.643s0-.214.085-.257c0 0 .214 0 .257.086 0 0 0 .214-.085.257s-.215 0-.257-.086m1.414-.664s0-.214.085-.257c0 0 .215 0 .257.086 0 0 0 .214-.085.257s-.215 0-.257-.086m1.414-.643s0-.214.085-.257c0 0 .215 0 .257.086 0 0 0 .214-.085.257a.206.206 0 0 1-.257-.086m1.414-.664s0-.214.085-.257c0 0 .215 0 .258.086 0 0 0 .214-.086.257a.206.206 0 0 1-.257-.086m1.414-.642s0-.215.085-.258c0 0 .215 0 .258.086 0 0 0 .214-.086.257a.206.206 0 0 1-.257-.085m1.414-.665s0-.214.086-.257c0 0 .214 0 .257.086 0 0 0 .214-.086.257a.206.206 0 0 1-.257-.086m1.414-.664s0-.214.086-.257c0 0 .214 0 .257.086 0 0 0 .214-.086.257a.206.206 0 0 1-.257-.086m1.414-.643s0-.214.086-.257c0 0 .214 0 .257.086 0 0 0 .214-.086.257a.206.206 0 0 1-.257-.086m1.414-.664s0-.214.086-.257c0 0 .214 0 .257.086 0 0 0 .214-.086.257a.206.206 0 0 1-.257-.086m1.414-.643s0-.214.086-.257c0 0 .214 0 .257.086 0 0 0 .214-.086.257a.206.206 0 0 1-.257-.086m1.414-.664s0-.214.086-.257c0 0 .214 0 .257.107 0 0 0 .215-.086.257s-.214 0-.257-.085zm1.414-.664s0-.214.086-.257c0 0 .214 0 .257.086 0 0 0 .214-.086.257s-.214 0-.257-.086m1.393-.643s0-.214.086-.257c0 0 .214 0 .257.086 0 0 0 .214-.086.257a.206.206 0 0 1-.257-.086m1.414-.664s0-.214.086-.257c0 0 .214 0 .257.086 0 0 0 .214-.086.257 0 0-.214 0-.257-.086m1.414-.664s0-.214.086-.257c0 0 .214 0 .257.086 0 0 0 .214-.086.257-.107.043-.214 0-.257-.086m1.414-.664s0-.214.086-.257c0 0 .214 0 .257.085 0 0 0 .215-.086.258-.086.042-.214 0-.257-.086m1.414-.643s0-.214.086-.257c0 0 .214 0 .257.086 0 0 0 .214-.086.257a.206.206 0 0 1-.257-.086m1.414-.664s0-.214.086-.257c0 0 .214 0 .257.085 0 0 0 .215-.086.258-.085.042-.214 0-.257-.086m1.393-.664s0-.215.085-.257c0 0 .215 0 .258.085 0 0 0 .215-.086.257a.206.206 0 0 1-.257-.085m1.414-.664s0-.215.086-.258c0 0 .214 0 .257.086 0 0 0 .214-.086.257 0 0-.214 0-.257-.085m1.414-.665s0-.214.086-.257c0 0 .214 0 .257.086 0 0 0 .214-.086.257a.206.206 0 0 1-.257-.086m1.414-.664s0-.214.086-.257c0 0 .214 0 .257.086 0 0 0 .214-.086.257 0 0-.214 0-.257-.086m1.414-.664s0-.214.086-.257c0 0 .214 0 .257.086 0 0 0 .214-.086.257a.206.206 0 0 1-.257-.086m1.393-.664s0-.214.085-.257c0 0 .215 0 .257.085 0 0 0 .215-.085.258-.086.042-.214 0-.257-.086m1.414-.664s0-.215.085-.257c0 0 .215 0 .258.085 0 0 0 .214-.086.257 0 0-.214 0-.257-.085m1.414-.665s0-.214.085-.257c0 0 .215 0 .258.086 0 0 0 .214-.086.257 0 0-.214 0-.257-.086m1.414-.664s0-.214.086-.257c0 0 .214 0 .257.086 0 0 0 .214-.086.257 0 0-.214 0-.257-.086m1.392-.664s0-.214.086-.257c0 0 .214 0 .257.086 0 0 0 .214-.085.257a.21.21 0 0 1-.258-.086m1.415-.664s0-.214.085-.257c0 0 .215 0 .257.086 0 0 0 .214-.085.257-.086.042-.215 0-.257-.086m1.414-.664s0-.215.085-.257c0 0 .215 0 .257.085 0 0 0 .215-.085.257s-.215 0-.257-.085m1.392-.664s0-.215.086-.258c0 0 .214 0 .257.086 0 0 0 .214-.086.257s-.214 0-.257-.085m1.414-.686s0-.214.086-.257c0 0 .214 0 .257.086 0 0 0 .214-.086.257 0 0-.214 0-.257-.086m1.414-.664s0-.214.086-.257c0 0 .214 0 .257.085 0 0 0 .215-.086.257 0 0-.214 0-.257-.085m1.393-.686s0-.214.086-.257c0 0 .214 0 .257.086 0 0 0 .214-.086.257 0 0-.214 0-.257-.086m1.414-.664s0-.214.086-.257c0 0 .214 0 .257.086 0 0 0 .214-.086.257 0 0-.214 0-.257-.086m1.393-.664s0-.214.085-.257c0 0 .215 0 .258.085 0 0 0 .215-.086.257 0 0-.214 0-.257-.085m1.414-.686s0-.214.085-.257c0 0 .215 0 .258.086 0 0 0 .214-.086.257 0 0-.214 0-.257-.086m1.392-.664s0-.214.086-.257c0 0 .214 0 .257.086 0 0 0 .214-.086.257s-.214 0-.257-.086m1.414-.686s0-.214.086-.257c0 0 .214 0 .257.086 0 0 0 .214-.085.257 0 0-.215 0-.258-.086m1.393-.664s0-.214.086-.257c0 0 .214 0 .257.086 0 0 0 .214-.086.257 0 0-.214 0-.257-.086m1.414-.685s0-.215.086-.257c0 0 .214 0 .257.085 0 0 0 .214-.086.257 0 0-.214 0-.257-.085m1.393-.665s0-.214.085-.257c0 0 .215 0 .258.086 0 0 0 .214-.086.257 0 0-.214 0-.257-.086m1.392-.685s0-.214.086-.257c0 0 .214 0 .257.085 0 0 0 .215-.085.258 0 0-.215 0-.258-.086m1.414-.686s0-.214.086-.257c0 0 .214 0 .257.086 0 0 0 .214-.085.257 0 0-.215 0-.258-.086m1.393-.685s0-.215.086-.257c0 0 .214 0 .257.085 0 0 0 .214-.086.257 0 0-.214 0-.257-.085m1.414-.665s0-.214.086-.257c0 0 .214 0 .257.086 0 0 0 .214-.086.257 0 0-.214 0-.257-.086m1.393-.685s0-.214.086-.257c0 0 .214 0 .257.085 0 0 0 .215-.086.258 0 0-.214 0-.257-.086m1.392-.686s0-.214.086-.257c0 0 .214 0 .257.086 0 0 0 .214-.085.257 0 0-.215 0-.258-.086m1.415-.685s0-.215.085-.257c0 0 .214 0 .257.085 0 0 0 .214-.085.257 0 0-.215 0-.257-.085m1.392-.686s0-.214.086-.257c0 0 .214 0 .257.086 0 0 0 .214-.086.257 0 0-.214 0-.257-.086m1.393-.707s0-.214.085-.257c0 0 .215 0 .258.086 0 0 0 .214-.086.257 0 0-.214 0-.257-.086m1.392-.686s0-.214.086-.257c0 0 .214 0 .257.086 0 0 0 .214-.085.257 0 0-.215 0-.258-.086m1.414-.685s0-.215.086-.257c0 0 .214 0 .257.085 0 0 0 .215-.085.258 0 0-.215 0-.258-.086m1.393-.686s0-.214.086-.257c0 0 .214 0 .257.086 0 0 0 .214-.086.257 0 0-.214 0-.257-.086m1.371-.707s0-.214.086-.257c0 0 .214 0 .257.086 0 0 0 .214-.086.257 0 0-.214 0-.257-.086m1.414-.686s0-.214.086-.257c0 0 .214 0 .257.086 0 0 0 .214-.086.257 0 0-.214 0-.257-.085m1.393-.685s0-.214.086-.257c0 0 .214 0 .257.085 0 0 0 .215-.086.258 0 0-.214 0-.257-.086m1.393-.707s0-.214.085-.257c0 0 .215 0 .257.085 0 0 0 .215-.085.258 0 0-.214 0-.257-.086m1.392-.707s0-.214.086-.257c0 0 .214 0 .257.085 0 0 0 .215-.086.258 0 0-.214 0-.257-.086m1.393-.707s0-.214.086-.257c0 0 .214 0 .257.085 0 0 0 .215-.086.257 0 0-.214 0-.257-.085m1.393-.686s0-.214.085-.257c0 0 .215 0 .257.086 0 0 0 .214-.085.257 0 0-.215 0-.257-.086M494.69 198.61s0-.214.107-.257c0 0 .214 0 .257.107 0 0 0 .214-.107.257s-.215 0-.257-.107m1.414-.6s0-.214.107-.257c0 0 .214 0 .257.107 0 0 0 .214-.107.257s-.215 0-.257-.086zm1.435-.621s0-.215.107-.258c0 0 .214 0 .257.108 0 0 0 .214-.107.257s-.214 0-.257-.107m1.436-.622s0-.214.107-.257c0 0 .214 0 .257.107 0 0 0 .214-.107.257s-.215 0-.257-.085zm1.414-.643s0-.214.085-.257c0 0 .215 0 .257.107 0 0 0 .215-.107.258-.107.042-.214 0-.257-.086zm1.414-.621s0-.214.107-.257c0 0 .214 0 .257.107 0 0 0 .214-.107.257s-.214 0-.257-.085zm1.435-.621s0-.214.086-.257c0 0 .214 0 .257.107 0 0 0 .214-.107.257-.086.043-.214 0-.257-.107zm1.414-.622s0-.214.107-.257c0 0 .215 0 .258.107 0 0 0 .215-.086.258-.107.042-.214 0-.257-.086zm1.436-.621s0-.214.107-.257c0 0 .214 0 .257.086 0 0 0 .214-.107.257s-.214 0-.257-.107zm1.414-.621s0-.214.107-.257c0 0 .214 0 .257.085 0 0 0 .215-.107.257 0 0-.214.001-.257-.107zm1.414-.643s0-.214.107-.278c0 0 .214 0 .257.107 0 0 0 .214-.086.257-.107.043-.214 0-.257-.086zm1.435-.621s0-.215.086-.257c0 0 .214 0 .257.107 0 0 0 .214-.107.257-.086.043-.214 0-.257-.107zm1.414-.622s0-.214.108-.257c0 0 .214 0 .257.107 0 0 0 .215-.107.258-.086.042-.215 0-.258-.108m1.414-.621s0-.214.108-.257c0 0 .214 0 .257.107 0 0 0 .214-.086.257 0 0-.214 0-.257-.086zm1.436-.643s0-.214.107-.257c0 0 .214 0 .257.086 0 0 0 .214-.107.257-.086.043-.214 0-.257-.107zm1.414-.621s0-.214.107-.257c0 0 .214 0 .257.107 0 0 0 .214-.107.257s-.214 0-.257-.086zm1.414-.621s0-.215.107-.257c0 0 .214 0 .257.107 0 0 0 .214-.085.257s-.215 0-.257-.086zm1.436-.622s0-.214.085-.257c0 0 .215 0 .257.107 0 0 0 .215-.107.257-.085.043-.214 0-.257-.107zm1.414-.642s0-.215.107-.258c0 0 .214 0 .257.108 0 0 0 .214-.107.257 0 0-.215 0-.257-.086zm1.414-.622s0-.214.107-.257c0 0 .214 0 .257.086 0 0 0 .214-.107.257-.086.043-.214 0-.257-.107zm1.414-.621s0-.214.085-.257c0 0 .215 0 .258.107 0 0 0 .214-.108.257-.107.043-.214 0-.257-.086zm1.435-.621s0-.215.107-.258c0 0 .215 0 .257.108 0 0 0 .214-.085.257a.206.206 0 0 1-.257-.086zm1.414-.643s0-.214.107-.257c0 0 .215 0 .258.085 0 0 0 .215-.108.258-.085.042-.214 0-.257-.108zm1.414-.622s0-.214.108-.257c0 0 .214 0 .257.086 0 0 0 .214-.086.257a.206.206 0 0 1-.257-.086zm1.436-.642s0-.215.086-.257c0 0 .214 0 .257.107 0 0 0 .214-.107.257-.086.043-.215 0-.258-.107zm1.414-.622s0-.214.107-.257c0 0 .214 0 .257.086 0 0 0 .214-.107.257-.086.043-.214 0-.257-.107zm1.414-.621s0-.214.107-.257c0 0 .214 0 .257.107 0 0 0 .214-.107.257s-.214 0-.257-.086zm1.435-.621c-.042-.107 0-.215.108-.257 0 0 .214 0 .257.107 0 0 0 .214-.086.257a.206.206 0 0 1-.257-.086zm1.415-.643s0-.214.107-.257c0 0 .214 0 .257.107 0 0 0 .214-.107.257 0 0-.215 0-.257-.086zm1.414-.621s0-.215.107-.257c0 0 .214 0 .257.107 0 0 0 .214-.107.257s-.215 0-.257-.086zm1.435-.643s0-.214.107-.257c0 0 .214 0 .257.107 0 0 0 .214-.085.257 0 0-.215 0-.257-.086zm1.414-.621s0-.215.086-.258c0 0 .214 0 .257.086 0 0 0 .214-.086.257s-.214 0-.257-.085m1.436-.643s0-.214.107-.257c0 0 .214 0 .257.107 0 0 0 .214-.107.257s-.215 0-.257-.086zm1.414-.622s0-.214.107-.257c0 0 .214 0 .257.108 0 0 0 .214-.107.257-.107.042-.214 0-.257-.086zm1.435-.642s0-.215.107-.257c0 0 .215 0 .257.085 0 0 0 .215-.085.257-.107.043-.215 0-.257-.107zm1.414-.622s0-.214.107-.257c0 0 .215 0 .257.107 0 0 0 .215-.085.258-.107.042-.214 0-.257-.086zm1.436-.642s0-.215.107-.257c0 0 .214 0 .257.085 0 0 0 .214-.086.257-.107.043-.214 0-.257-.085zm1.414-.622s0-.214.107-.257c0 0 .214 0 .257.086 0 0 0 .214-.086.257-.107.043-.214 0-.257-.086zm1.435-.642s0-.215.086-.258c0 0 .214 0 .257.086 0 0 0 .214-.086.257-.107.043-.214 0-.257-.085m1.414-.622s0-.214.086-.257c0 0 .214 0 .257.086 0 0 0 .214-.086.257-.107.043-.214 0-.257-.086m1.414-.643s0-.214.086-.257c0 0 .214 0 .257.108 0 0 0 .214-.107.257-.086.042-.214 0-.257-.108zm1.436-.642s0-.215.086-.257c0 0 .214 0 .257.085 0 0 0 .215-.086.257-.107.043-.214 0-.257-.085M547.848 152.629s0-.193.085-.257c0 0 .215 0 .258.064 0 0 .021.214-.065.257 0 0-.214.021-.278-.064m1.35-.793s0-.193.085-.257c0 0 .215-.022.257.064 0 0 0 .214-.064.257 0 0-.214 0-.278-.064m1.328-.793s0-.193.086-.257c0 0 .214-.021.257.064 0 0 .021.215-.065.279 0 0-.214 0-.278-.064zm1.35-.793s0-.192.085-.257c0 0 .215-.021.258.065 0 0 0 .214-.065.257 0 0-.214.021-.278-.065m1.35-.771s0-.193.085-.257c0 0 .214-.021.257.064 0 0 .022.215-.064.279 0 0-.214.021-.278-.064zm1.328-.793s0-.192.086-.257c0 0 .214-.021.257.065 0 0 .021.214-.065.278 0 0-.214 0-.257-.064zm1.35-.792s0-.193.085-.257c0 0 .215-.022.279.064 0 0 .021.214-.064.257 0 0-.215 0-.257-.064zm1.349-.772s0-.192.065-.257c0 0 .214-.021.278.065 0 0 .022.214-.064.257 0 0-.214.021-.257-.065zm1.35-.792s0-.193.086-.257c0 0 .214-.022.257.064 0 0 .021.214-.064.257 0 0-.214.021-.257-.064zm1.35-.772s0-.192.086-.257c0 0 .214 0 .257.065 0 0 .021.214-.064.257 0 0-.215.021-.258-.065zm1.35-.792s0-.193.085-.257c0 0 .215-.022.258.064 0 0 .021.214-.065.257 0 0-.214 0-.257-.064zm1.35-.772s0-.192.064-.257c0 0 .214 0 .257.065 0 0 .021.214-.064.257 0 0-.215.021-.257-.065m1.349-.771s0-.193.086-.236c0 0 .214 0 .257.065 0 0 .022.214-.064.257 0 0-.214 0-.257-.065zm1.35-.771s0-.193.086-.257c0 0 .214 0 .257.064 0 0 .021.214-.064.257 0 0-.215 0-.257-.064zm1.35-.772s0-.192.086-.235c0 0 .214-.022.257.064 0 0 0 .214-.065.257 0 0-.214 0-.257-.064zm1.371-.771s0-.193.086-.257c0 0 .214 0 .257.064 0 0 .021.215-.064.257 0 0-.215 0-.257-.064zm1.35-.771s0-.193.086-.257c0 0 .214-.022.257.064 0 0 0 .214-.065.257 0 0-.214.022-.257-.064zm1.35-.75s0-.193.085-.257c0 0 .215 0 .258.064 0 0 0 .214-.065.257 0 0-.214 0-.257-.064zm1.371-.771s0-.193.086-.257c0 0 .214-.022.257.064 0 0 0 .214-.065.257 0 0-.214 0-.257-.064zm1.35-.772s0-.193.085-.257c0 0 .215 0 .258.064 0 0 .021.215-.065.258 0 0-.214.021-.257-.065zm1.35-.75s-.001-.214.085-.257c0 0 .214-.021.257.065 0 0 0 .214-.085.278 0 0-.215 0-.257-.086m1.371-.771s0-.193.085-.257c0 0 .215-.021.258.064 0 0 0 .215-.065.257 0 0-.214 0-.257-.064zm1.35-.75s0-.193.085-.257c0 0 .214 0 .257.086 0 0 0 .214-.085.257 0 0-.215.021-.257-.064zm1.371-.75s0-.192.085-.257c0 0 .215-.021.258.065 0 0 .021.214-.065.257 0 0-.214 0-.257-.065zm1.349-.75s0-.192.086-.257c0 0 .214 0 .257.086 0 0 0 .214-.064.257 0 0-.214 0-.279-.086m1.372-.749s0-.193.085-.257c0 0 .215 0 .258.064 0 0 0 .214-.065.257 0 0-.214 0-.257-.064zm1.371-.75s0-.215.086-.257c0 0 .214 0 .257.085 0 0 0 .215-.086.257 0 0-.214 0-.257-.064zm1.371-.75s0-.193.086-.257c0 0 .214 0 .257.064 0 0 0 .214-.064.257 0 0-.215 0-.257-.064zm1.371-.75s0-.193.086-.257c0 0 .214 0 .257.064 0 0 0 .214-.086.279 0 0-.214 0-.257-.086m1.35-.75s0-.193.086-.257c0 0 .214 0 .257.086 0 0 0 .214-.086.257 0 0-.214.021-.257-.064zm1.371-.728s0-.193.086-.257c0 0 .214 0 .257.064 0 0 0 .214-.086.278 0 0-.214 0-.257-.085m1.372-.75s0-.214.085-.257c0 0 .215 0 .257.085 0 0 .022.215-.064.257 0 0-.214 0-.278-.085m1.371-.729s0-.193.085-.257c0 0 .215 0 .258.086 0 0 0 .214-.086.278 0 0-.214 0-.257-.085zm1.392-.75s0-.192.086-.257c0 0 .214 0 .279.086 0 0 0 .214-.086.257 0 0-.214 0-.257-.086zm1.35-.728s0-.214.086-.257c0 0 .214 0 .257.086 0 0 0 .214-.086.257 0 0-.214 0-.257-.065zm1.393-.728s0-.193.086-.258c0 0 .214 0 .257.086 0 0 0 .214-.086.257 0 0-.214 0-.257-.085m1.371-.729s0-.214.086-.257c0 0 .214 0 .257.064 0 0 0 .214-.086.279 0 0-.214 0-.257-.086m1.393-.728s0-.215.085-.258c0 0 .215 0 .257.086 0 0 .022.214-.085.257 0 0-.214.022-.257-.085m1.371-.707s0-.215.086-.258c0 0 .214 0 .257.086 0 0 0 .214-.065.257 0 0-.214 0-.257-.085zm1.371-.729s0-.214.086-.257c0 0 .214 0 .257.086 0 0 0 .214-.086.257 0 0-.214 0-.257-.086m1.393-.728s0-.215.085-.257c0 0 .215 0 .258.085 0 0 0 .214-.086.257 0 0-.214 0-.257-.085m1.371-.707s0-.215.086-.257c0 0 .214 0 .257.085 0 0 0 .214-.086.257 0 0-.214 0-.257-.085m1.393-.729s0-.214.085-.257c0 0 .215 0 .257.086 0 0 0 .214-.085.257 0 0-.215 0-.257-.086m1.371-.707s0-.214.085-.257c0 0 .215 0 .258.086 0 0 0 .214-.086.257 0 0-.214 0-.257-.086m1.392-.707s0-.214.086-.257c0 0 .214 0 .257.086 0 0 0 .214-.085.257 0 0-.215 0-.258-.086m1.393-.707s0-.214.086-.257c0 0 .214 0 .257.086 0 0 0 .214-.086.257 0 0-.214 0-.257-.086m1.393-.707s0-.214.085-.257c0 0 .215 0 .257.086 0 0 0 .214-.085.257 0 0-.214 0-.257-.086m1.392-.707s0-.214.086-.257c0 0 .214 0 .257.086 0 0 0 .214-.086.257 0 0-.214 0-.257-.086m1.393-.686s0-.192.086-.257c0 0 .214 0 .257.086 0 0 0 .214-.086.257 0 0-.214 0-.257-.086m1.393-.707s0-.192.085-.257c0 0 .215 0 .257.086 0 0 0 .214-.085.257 0 0-.215 0-.257-.086m1.392-.685s0-.193.086-.257c0 0 .214 0 .257.085 0 0 0 .215-.086.257 0 0-.214 0-.257-.085m1.393-.707s0-.215.086-.257c0 0 .214 0 .257.085 0 0 0 .215-.086.257 0 0-.214 0-.257-.085m1.393-.686s-.001-.214.085-.257c0 0 .214 0 .257.086 0 0 0 .214-.085.257 0 0-.215 0-.257-.086m1.392-.685s0-.215.086-.258c0 0 .214 0 .257.086 0 0 0 .214-.086.257 0 0-.214 0-.257-.085m1.393-.665s0-.214.085-.257c0 0 .215 0 .258.086 0 0 0 .214-.086.257 0 0-.214 0-.257-.086m1.414-.685s0-.215.086-.257c0 0 .214 0 .257.085 0 0 0 .215-.086.257 0 0-.214 0-.257-.085M725.934 92.981s0 .214-.086.257c-.085.042-.213 0-.256-.086s0-.214.085-.256c.107-.043.214 0 .257.085M726.613 94.372s0 .213-.085.256a.206.206 0 0 1-.257-.085s0-.214.086-.257c.085-.042.214 0 .256.086M725.073 91.865a.192.192 0 1 1 0-.384.192.192 0 0 1 0 .384M724.606 90.172s0 .214-.086.257c-.085.042-.214 0-.256-.086-.043-.107 0-.214.107-.256a.19.19 0 0 1 .256.107zM732.72 105.214s.022.214-.064.278-.213.021-.278-.064c0 0 0-.214.065-.257.085-.064.213-.021.277.065zM734.432 107.807s.043.213-.043.277-.214.043-.256-.042c0 0 0-.022-.022-.043-.042-.086 0-.192.064-.235a.2.2 0 0 1 .278.043zM728.026 97.159s0 .214-.086.256-.214 0-.256-.085c0 0 0-.214.085-.257a.206.206 0 0 1 .257.086M733.559 106.521s.022.214-.043.278c-.085.064-.213.021-.277-.043a.26.26 0 0 1 .064-.278c.085-.064.213-.021.256.064zM723.979 88.758s0 .214-.107.257c-.086.042-.214 0-.257-.107 0 0 0-.214.107-.257s.214 0 .257.107M727.299 95.764s0 .214-.086.257-.213 0-.277-.086c0 0 0-.213.085-.256.107-.043.214 0 .257.085zM721.151 81.517s0 .214-.129.235c-.085.043-.192 0-.235-.106-.021-.129 0-.236.128-.257.107-.043.214 0 .236.128M720.658 80.042s-.021.213-.128.256c-.107.022-.192 0-.235-.107-.021-.128 0-.235.128-.278.107-.02.214.022.257.129zM721.666 82.973s0 .214-.107.256c-.107.022-.213 0-.256-.106-.043-.107 0-.214.107-.257s.213 0 .256.107M722.225 84.432s0 .214-.107.256c-.086.043-.192 0-.235-.107-.043-.106 0-.235.107-.256.107-.043.213 0 .256.107zM719.31 75.583s-.022.214-.128.235c-.086.022-.193-.021-.214-.107-.022-.128.021-.235.128-.277.107 0 .214.042.235.15zM720.192 78.561s-.022.214-.129.235c-.085.022-.192 0-.235-.107-.021-.128.022-.234.129-.256.106-.021.213.021.256.128zM719.738 77.08s-.021.215-.128.236-.192 0-.235-.107v-.021c-.021-.107.021-.214.128-.235.107-.022.214.021.235.128M723.357 87.323s0 .213-.107.256c-.086.043-.214 0-.257-.107s0-.214.107-.256.214 0 .257.107M722.781 85.889s0 .214-.106.256c-.107.043-.214 0-.257-.106-.043-.107 0-.214.107-.257s.214 0 .256.107"/><path fill="#232826" d="M741.249 88.975c-3.256 2.292-7.391 5.013-12.576 8.184-.515.321-1.007.621-1.543.943-.557.171 1.5 3.342 2.271 4.67.579 1.007 1.393 2.957 1.693 2.7.471-.386 1.114-.921 1.564-1.307 5.485-4.65 9.513-8.741 12.491-12.17 2.849-2.978 6.62-8.912 4.756-10.733-.878-.857.321 1.778-8.656 7.734zm-9.62 14.869s.215-.022.257.064a.23.23 0 0 1-.064.278c-.086.065-.214.022-.278-.064 0 0 0-.214.064-.257zm-.814-1.329s.214-.021.257.065c.065.085.022.214-.064.257-.086.064-.214.021-.257-.065 0 0 0-.214.064-.257m-.771-1.349s.214-.022.257.064.021.214-.064.257c-.086.064-.215.021-.257-.064 0 0 0-.215.085-.257zm-.771-1.372s.214-.021.257.065c.043.085.021.214-.065.257-.085.043-.214.021-.257-.065-.043-.085-.021-.214.065-.257m-.75-1.35s.214 0 .257.086 0 .215-.064.257a.235.235 0 0 1-.279-.085s0-.215.086-.257"/><path fill="url(#i)" d="M535.524 190.532c-.386.172-.214.75.214.686 4.157-.664 11.141-.793 12.298 5.485.043.235.065.471.086.707.707 8.377-12.491 18.104-12.491 18.104l8.999-4.414 30.038-14.762s.6-12.812 7.863-19.925c.814-.793.107-2.164-1.007-1.907-8.506 1.993-26.225 6.792-46.021 16.026z"/><path fill="url(#j)" d="M606.252 195.972c-3.3 7.114-19.112 27.425-94.7 47.114 0 0-1.435.365-3.428-3.899-1.971-4.264-.771-5.142-.771-5.142 63.868-44.907 89.621-43.857 97.163-41.758 1.586.429 2.4 2.207 1.714 3.707z"/><path fill="#232826" d="M507.201 233.811c63.311-44.522 89.193-44.072 97.398-41.801a2.94 2.94 0 0 1 1.886 1.607 2.97 2.97 0 0 1 0 2.486c-3.578 7.713-19.968 27.767-94.871 47.263-.171.043-1.714.279-3.728-4.07s-.814-5.378-.685-5.485m4.285 8.998c74.666-19.454 90.971-39.315 94.506-46.964.3-.642.3-1.371 0-2.014a2.42 2.42 0 0 0-1.521-1.306c-8.12-2.25-33.831-2.657-96.928 41.714 0 0-.964.9.857 4.8s3.107 3.749 3.107 3.749z"/><path fill="#232826" d="M597.121 200.621c-.214.064.471 1.35.771 1.864.214.386 1.436 2.4 1.543 2.293.193-.15 1.221-1.093 1.392-1.243 2.1-1.778 3.685-4.585 3.921-5.442-.728.343-1.435.279-1.714.107-.321-.214-.471-.643-.535-1.071a85 85 0 0 1-4.8 3.128c-.193.129-.385.236-.578.364M562.628 218.127c1.007 1.778 2.099 3.214 2.871 4.306.085-.043 1.435 2.186 1.649 2.1 15.962-7.156 25.818-14.483 31.753-19.24-.922-.9-1.972-2.978-2.614-4.156-6.471 3.856-16.691 9.277-32.781 16.604-.214.086-.407.193-.621.279zM531.967 231.326c-.3.085 1.071 2.035 1.585 2.785.172.236 1.693 2.271 1.95 2.271.236-.086 22.475-7.97 30.724-11.612-1.629-1.8-3.235-4.585-4.242-6.342-8.228 3.728-17.933 7.906-29.374 12.619l-.643.257zM509.469 240.322s1.671 2.721 2.764 2.378c8.013-2.421 15.362-3.921 22.089-6.235-1.028-1.007-2.528-3.471-3.278-4.777a1364 1364 0 0 1-20.889 8.377l-.686.278zM530.938 229.85c11.206-4.992 21.511-9.642 30.66-13.862l-.107-.258c-9.149 4.2-19.454 8.87-30.66 13.863zM559.389 211.08l.129.257c14.483-6.856 26.396-11.869 35.394-14.89l-.085-.258c-9.02 3.043-20.933 8.056-35.438 14.912zM507.068 235.523l.15.236c7.156-4.692 14.655-9.577 20.997-13.412l-.15-.236c-6.342 3.835-13.841 8.72-20.997 13.412M530.447 229.054s0-.15.065-.193c0 0 .15 0 .171.064 0 0 0 .15-.064.171-.064.043-.15 0-.193-.064zm1.007-.45s0-.15.065-.172c0 0 .15 0 .171.065 0 0 0 .15-.064.192a.17.17 0 0 1-.193-.064zm1.007-.45s0-.15.065-.193c0 0 .15 0 .171.064 0 0 0 .15-.064.172-.065.042-.15 0-.193-.065zm1.007-.45s0-.15.065-.193c0 0 .15 0 .171.064 0 0 0 .15-.064.193-.065.043-.15 0-.193-.064zm1.007-.45s0-.15.065-.193c0 0 .15 0 .171.064 0 0 0 .15-.064.193-.065.043-.15 0-.193-.064zm1.007-.45s0-.15.065-.193c0 0 .15 0 .171.064 0 0 0 .15-.064.193a.17.17 0 0 1-.193-.064zm1.007-.45s0-.15.065-.193c0 0 .15 0 .171.064 0 0 0 .15-.064.193-.065.043-.15 0-.193-.064zm1.007-.45s0-.15.065-.193c0 0 .15 0 .171.065 0 0 0 .15-.064.192 0 0-.15 0-.193-.064zm1.007-.45s0-.15.065-.193c0 0 .149 0 .171.065 0 0 0 .15-.064.171a.17.17 0 0 1-.193-.064zm1.007-.45s0-.15.065-.171c0 0 .149 0 .171.064 0 0 0 .15-.064.193a.17.17 0 0 1-.193-.064zm1.007-.45s0-.15.064-.192c0 0 .15-.001.193.064 0 0 0 .15-.064.193-.064.042-.15 0-.193-.065m1.007-.45s0-.15.064-.192c0 0 .15 0 .172.064 0 0 0 .15-.064.171a.17.17 0 0 1-.193-.064zm1.007-.45s0-.15.064-.192c0 0 .15 0 .172.064 0 0 0 .15-.064.171-.065.043-.15 0-.193-.064zm1.007-.449s0-.15.064-.193c0 0 .15 0 .193.064 0 0 0 .15-.064.193a.17.17 0 0 1-.193-.064m1.007-.45s0-.15.064-.193c0 0 .15 0 .193.064 0 0 0 .15-.064.193 0 0-.15 0-.193-.064m1.007-.472s0-.15.064-.171c0 0 .15 0 .193.064 0 0 0 .15-.064.193s-.15 0-.193-.064zm1.007-.45s0-.15.064-.193c0 0 .15.001.193.065 0 0 0 .15-.064.171-.064.043-.15 0-.193-.064zm1.007-.45s0-.15.064-.192c0 0 .15 0 .193.064 0 0 0 .15-.064.193s-.15 0-.193-.065m1.007-.45s0-.15.064-.192c0 0 .15 0 .193.064 0 0 0 .15-.064.193 0 0-.15 0-.193-.065m.986-.471s0-.15.064-.193c0 0 .15 0 .193.065 0 0 0 .15-.065.192-.064.043-.15 0-.192-.064m1.007-.45s0-.15.064-.193c0 0 .15 0 .193.065 0 0 0 .15-.065.171-.064.021-.15 0-.171-.064zm1.007-.45s0-.15.064-.193c0 0 .15 0 .193.065 0 0 0 .15-.065.193-.064.042-.15 0-.192-.065m1.007-.471s0-.15.064-.193c0 0 .15 0 .193.064 0 0 0 .15-.065.193 0 0-.15 0-.192-.064m1.007-.45s0-.15.064-.171c0 0 .15 0 .193.064 0 0 0 .15-.065.171-.064.043-.15 0-.192-.064m1.007-.45s0-.15.064-.193c0 0 .15 0 .193.064 0 0 0 .15-.065.193-.064.043-.15 0-.192-.064m1.007-.471s0-.15.064-.193c0 0 .15 0 .193.064 0 0 0 .15-.065.193-.064.043-.15 0-.192-.064m1.007-.45s0-.15.064-.193c0 0 .15 0 .193.064 0 0 0 .15-.065.193-.064.043-.15 0-.192-.064m1.007-.472s0-.15.064-.192c0 0 .15 0 .193.064 0 0 0 .15-.065.193-.064.043-.15 0-.192-.065m.985-.45s0-.149.064-.192c0 0 .15 0 .193.064 0 0 0 .15-.064.193s-.15 0-.193-.065m1.007-.471s0-.15.064-.171c0 0 .15 0 .193.064 0 0 0 .15-.064.193a.17.17 0 0 1-.193-.064zm1.007-.45s0-.15.064-.193c0 0 .15 0 .193.065 0 0 0 .15-.064.192 0 0-.15 0-.193-.064M559.223 210.436s0-.15.064-.172c0 0 .15 0 .172.064 0 0 0 .15-.065.193 0 0-.15 0-.192-.064zm.986-.472s0-.15.064-.193c0 0 .15 0 .193.065 0 0 0 .15-.065.192a.17.17 0 0 1-.192-.064m1.007-.471s0-.15.064-.193c0 0 .15 0 .193.064 0 0 0 .15-.065.193 0 0-.15 0-.192-.064m1.007-.472s0-.15.064-.192c0 0 .15 0 .171.064 0 0 0 .15-.064.193s-.15 0-.193-.065zm.985-.471s0-.15.064-.193c0 0 .15 0 .193.065 0 0 0 .15-.064.192s-.15 0-.193-.064m1.007-.45s0-.15.064-.193c0 0 .15 0 .193.065 0 0 0 .15-.064.192s-.15 0-.193-.064m1.007-.471s0-.15.064-.172c0 0 .15 0 .193.065 0 0 0 .15-.064.193-.064.042-.15 0-.193-.065zm1.007-.45s0-.15.064-.193c0 0 .15 0 .193.064 0 0 0 .15-.064.193s-.15 0-.193-.064m1.007-.45s0-.15.064-.193c0 0 .15 0 .193.064 0 0 0 .15-.064.172 0 0-.15 0-.171-.064zm1.007-.471s0-.15.064-.193c0 0 .15 0 .193.064 0 0 0 .15-.064.193s-.15 0-.193-.064m1.007-.45s0-.15.064-.193c0 0 .15 0 .172.064 0 0 0 .15-.065.193-.064.043-.15 0-.192-.064zm.986-.45s0-.15.064-.172c0 0 .15 0 .193.065 0 0 0 .15-.065.192-.064.043-.15 0-.192-.064zm1.028-.45s0-.15.064-.193c0 0 .15 0 .193.064 0 0 0 .15-.064.193a.17.17 0 0 1-.193-.064m1.007-.45s0-.15.064-.193c0 0 .15 0 .172.064 0 0 0 .15-.065.193-.064.043-.15 0-.192-.064zm1.007-.45s0-.15.064-.193c0 0 .15 0 .172.064 0 0 0 .15-.065.172-.064.021-.15 0-.171-.064zm1.007-.429s0-.15.064-.192c0 0 .15 0 .172.064 0 0 0 .15-.065.171-.064.022-.15 0-.171-.064zm1.007-.449s0-.15.064-.193c0 0 .15 0 .172.064 0 0 0 .15-.065.171 0 0-.15 0-.171-.064zm1.028-.429s0-.15.065-.193c0 0 .15 0 .171.064 0 0 0 .15-.064.172-.065.021-.15 0-.172-.064zm1.007-.428s0-.15.065-.193c0 0 .15 0 .192.064 0 0 0 .15-.064.171s-.15 0-.171-.064zm1.029-.429s0-.15.064-.193c0 0 .15 0 .171.064 0 0 0 .15-.064.172s-.15 0-.171-.064zm1.007-.428s0-.15.064-.193c0 0 .15 0 .171.064 0 0 0 .15-.064.171s-.15 0-.171-.064zm1.007-.429s0-.15.064-.193c0 0 .15 0 .171.064 0 0 0 .15-.064.172s-.15 0-.171-.064zm1.028-.428s0-.15.064-.193c0 0 .15 0 .172.064 0 0 0 .15-.064.171-.065.022-.15 0-.172-.064zm1.029-.408s0-.15.064-.192c0 0 .15 0 .171.064 0 0 0 .15-.085.193-.065.021-.15 0-.172-.065zm1.028-.407s0-.15.086-.192c0 0 .15 0 .171.085 0 0 0 .15-.064.172-.065.021-.15 0-.172-.065zm1.007-.407s0-.15.086-.193c0 0 .15 0 .171.065 0 0 0 .15-.064.171-.065.022-.15 0-.172-.064zm1.028-.407s0-.15.086-.193c0 0 .15 0 .171.065 0 0 0 .15-.085.192-.065.022-.15 0-.172-.064m1.029-.407s0-.15.085-.193c0 0 .15 0 .172.086 0 0 0 .15-.086.171-.064.022-.15 0-.171-.064m1.05-.386s0-.15.085-.192c0 0 .15 0 .172.085 0 0 0 .15-.086.193-.064.022-.15 0-.171-.064zm1.028-.407s0-.15.086-.192c0 0 .15 0 .171.085 0 0 0 .15-.086.172 0 0-.15 0-.171-.065m1.028-.385s0-.15.086-.193c0 0 .15 0 .171.086 0 0 0 .15-.085.171-.064.021-.15 0-.172-.064m1.029-.364s0-.15.085-.193c0 0 .15 0 .172.085 0 0 0 .15-.086.172-.064.021-.15 0-.171-.064m1.05-.386s0-.172.085-.193c0 0 .15 0 .172.086 0 0 0 .15-.086.171-.064 0-.15 0-.171-.064m1.028-.364s0-.172.086-.193c0 0 .15 0 .171.086 0 0 0 .149-.086.171 0 0-.15 0-.171-.086zm1.05-.365s0-.171.086-.192c0 0 .15 0 .171.085 0 0 0 .15-.086.172-.064 0-.15 0-.171-.065M507.501 234.604s0-.129.043-.172c0 0 .15-.021.193.043 0 0 .021.15-.043.193 0 0-.15.021-.193-.043zm.922-.622s0-.128.042-.171c0 0 .15-.022.193.043 0 0 .022.15-.043.192 0 0-.15.022-.192-.042zm.921-.6s0-.128.043-.171c0 0 .15 0 .193.043 0 0 .021.15-.043.193 0 0-.15.021-.193-.043zm.921-.621s0-.129.043-.171c0 0 .15-.022.193.042 0 0 .021.15-.043.193 0 0-.15.022-.193-.043zm.921-.6s0-.129.043-.171c0 0 .15-.022.193.042 0 0 0 .15-.043.193 0 0-.15.022-.193-.043zm.922-.621s0-.129.043-.172c0 0 .15-.021.192.043 0 0 0 .15-.042.193 0 0-.15 0-.193-.043zm.921-.6s0-.129.043-.172c0 0 .15-.021.193.043 0 0 .021.15-.043.193 0 0-.15.022-.193-.043zm.943-.6s0-.129.043-.172c0 0 .15-.021.192.043 0 0 .022.15-.042.193 0 0-.15 0-.193-.043zm.921-.621s0-.129.043-.172c0 0 .15-.021.193.043 0 0 .021.15-.043.193 0 0-.15.021-.193-.043zm.921-.6s0-.129.043-.172c0 0 .15 0 .193.043 0 0 .021.15-.043.193 0 0-.15.021-.193-.043zm.922-.6s0-.129.064-.172c0 0 .15-.021.193.043 0 0 .021.15-.043.193 0 0-.15.021-.193-.043zm.921-.6s0-.129.043-.172c0 0 .15-.021.193.043 0 0 .021.15-.043.193 0 0-.15.022-.193-.043zm.943-.6s0-.129.042-.171c0 0 .15-.022.193.042 0 0 0 .15-.043.193 0 0-.15.022-.192-.043zm.921-.6s0-.129.043-.171c0 0 .15 0 .193.042 0 0 0 .15-.043.193 0 0-.15 0-.193-.043zm.921-.6s0-.128.043-.171c0 0 .15 0 .193.043 0 0 0 .15-.043.192 0 0-.15 0-.193-.042zm.943-.578s0-.129.064-.172c0 0 .15-.021.193.043 0 0 0 .15-.043.193 0 0-.15.021-.193-.043zm.921-.6s0-.129.043-.172c0 0 .15-.021.193.043 0 0 .021.15-.043.193 0 0-.15 0-.193-.043zm.943-.6s0-.129.043-.172c0 0 .15 0 .192.043 0 0 0 .15-.042.193 0 0-.15 0-.193-.043zm.921-.579s0-.15.043-.171c0 0 .15 0 .193.043 0 0 .021.15-.043.193 0 0-.15 0-.193-.043zm.943-.578s0-.15.043-.172c0 0 .15 0 .192.043 0 0 .022.15-.042.193 0 0-.15 0-.193-.043zm.943-.579s0-.128.042-.171c0 0 .15 0 .193.043 0 0 0 .15-.043.193 0 0-.15 0-.192-.043zm.942-.599s0-.15.043-.172c0 0 .15 0 .193.043 0 0 0 .15-.043.193 0 0-.15.021-.193-.043zm.922-.579s-.001-.129.042-.171c0 0 .15 0 .193.042 0 0 0 .15-.043.193 0 0-.15 0-.192-.043z"/><path fill="#232826" d="M560.592 214.205c2.849 6.171 6.427 10.37 6.47 10.434l.214-.171s-8.034-9.47-9.641-20.825l-.278.042c.535 3.836 1.799 7.435 3.235 10.542zM595.624 198.222c1.779 3.857 3.685 6.599 3.707 6.642l.236-.15s-4.285-6.213-6.021-12.984l-.257.065c.578 2.292 1.457 4.499 2.357 6.449zM530.144 228.454c2.186 4.713 5.014 7.863 5.057 7.906l.214-.193s-6.363-7.113-7.349-15.855h-.278c.321 2.978 1.264 5.742 2.356 8.12z"/><path fill="#232826" d="m535.501 215.3.322.45c.578-.429 14.076-10.499 12.491-19.09-1.2-6.513-8.42-6.363-12.62-5.699 0 0-.064 0-.085-.064 0-.043 0-.086.042-.108 19.647-9.17 37.237-13.947 45.957-16.004a.8.8 0 0 1 .922.407.84.84 0 0 1-.15 1.028c-7.263 7.092-7.949 19.969-7.949 20.097h.557s.664-12.769 7.777-19.711a1.4 1.4 0 0 0 .257-1.693c-.3-.557-.899-.814-1.521-.664-8.741 2.057-26.374 6.856-46.064 16.048-.3.128-.428.45-.343.771.086.321.386.493.707.45 4.007-.643 10.863-.814 11.998 5.249 1.522 8.249-12.148 18.447-12.276 18.554z"/><path fill="#232826" d="M559.371 202.68h.278c0-.129-.557-12.577.236-21.832h-.279c-.792 9.255-.235 21.703-.235 21.832M558.425 203.152v-.042s.064-.15.129-.15c0 0 .15.064.15.128 0 0-.043.129-.129.15a.14.14 0 0 1-.128-.086zm-.043-1.092v-.065s.065-.128.129-.15c0 0 .15.065.15.129 0 0-.064.129-.129.15-.064 0-.107-.021-.128-.086zm-.021-1.114v-.043s.064-.15.128-.15c0 0 .129.064.15.128 0 0-.064.15-.128.15s-.107-.021-.129-.085zm-.043-1.114v-.043s.064-.15.129-.15c0 0 .15.064.128.128 0 0-.064.15-.128.15-.065 0-.108-.021-.129-.085m-.021-1.093v-.064s.064-.15.128-.15c0 0 .15.064.15.128 0 0-.064.129-.128.15a.14.14 0 0 1-.129-.086zm-.022-1.114v-.065s.064-.128.129-.128c0 0 .128.064.15.128 0 0-.065.129-.129.129s-.107-.021-.128-.086zm-.021-1.093v-.064s.064-.129.15-.129c0 0 .128.065.128.129 0 0-.064.128-.128.128-.065 0-.107-.021-.129-.085zm0-1.114v-.064s.064-.129.128-.15c0 0 .129.064.129.128 0 0-.064.129-.129.15a.14.14 0 0 1-.128-.085zm-.022-1.093v-.064s.065-.129.129-.129c0 0 .128.065.15.129 0 0-.064.129-.15.129-.064 0-.107-.043-.129-.086zm0-1.114v-.064s.065-.129.129-.129c0 0 .128.065.15.129 0 0-.064.15-.15.15-.064 0-.107-.043-.129-.086m.022-1.114v-.064s.064-.129.128-.129c0 0 .129.064.129.129 0 0-.064.128-.129.128a.14.14 0 0 1-.128-.085zm0-1.093v-.064s.064-.128.128-.128c0 0 .129.064.129.15 0 0-.064.128-.15.128-.064 0-.107-.021-.129-.086zm.021-1.114v-.064s.064-.129.15-.129c0 0 .129.065.129.129 0 0-.065.129-.15.129-.065 0-.107-.043-.129-.086zm.022-1.092v-.065s.064-.128.15-.128c0 0 .128.064.128.15 0 0-.064.128-.128.128a.14.14 0 0 1-.129-.085zm.021-1.115v-.064s.064-.128.15-.128c0 0 .129.064.129.15 0 0-.065.128-.129.128s-.107-.043-.129-.086zm.043-1.092v-.064s.064-.129.15-.129c0 0 .128.064.128.15 0 0-.064.128-.15.128a.14.14 0 0 1-.128-.085m.043-1.114v-.065s.064-.128.15-.128c0 0 .128.064.128.15 0 0-.064.128-.15.128-.064 0-.085-.042-.107-.085zm.064-1.114v-.065s.064-.128.15-.128c0 0 .129.064.129.15 0 0-.065.128-.15.128a.14.14 0 0 1-.129-.085m.043-1.093v-.064s.064-.129.15-.129c0 0 .128.064.128.15 0 0-.064.129-.15.129-.042 0-.085-.043-.107-.086zm.086-1.093v-.064s.064-.129.15-.129c0 0 .128.065.128.15 0 0-.064.129-.15.129-.043 0-.086-.043-.107-.086z"/><path fill="#232826" d="M559.371 194.388s9.149-4.092 12.341-4.821c3.064-.707 3.664 1.05 3.685 1.136l.257-.086s-.664-2.078-4.006-1.307c-3.214.729-12.298 4.8-12.384 4.842l.107.257z"/><path fill="#232826" d="M559.924 194.987s0-.15.064-.193c0 0 .15 0 .193.064 0 0 0 .15-.065.193-.064.022-.149 0-.171-.064zm1.007-.429s0-.15.064-.192c0 0 .15 0 .171.064 0 0 0 .15-.064.171a.17.17 0 0 1-.193-.064zm1.007-.45s0-.149.064-.192c0 0 .15 0 .193.064 0 0 0 .15-.065.171-.064.022-.15 0-.171-.064zm1.028-.428s0-.15.064-.193c0 0 .15 0 .172.064 0 0 0 .15-.065.172-.064.021-.15 0-.171-.064zm1.007-.429s0-.15.064-.192c0 0 .15 0 .172.064 0 0 0 .15-.065.171-.064.022-.15 0-.171-.064zm1.028-.407s0-.15.086-.192c0 0 .15 0 .172.085 0 0 0 .15-.065.172-.064.021-.15 0-.171-.065zm1.029-.428s0-.15.064-.193c0 0 .15 0 .172.086 0 0 0 .15-.086.171 0 0-.15 0-.172-.064zm1.028-.407s0-.15.065-.193c0 0 .149 0 .192.086 0 0 0 .15-.085.171-.065.022-.15 0-.172-.064m1.029-.386s0-.15.085-.193c0 0 .15 0 .172.086 0 0 0 .15-.086.171-.064.022-.15 0-.171-.064m1.049-.364s0-.171.086-.193c0 0 .15 0 .172.086 0 0 0 .15-.086.171-.064.022-.129 0-.172-.064m1.05-.343s.022-.171.086-.193c0 0 .15 0 .171.086 0 0-.021.15-.085.171-.065.022-.129 0-.172-.064m1.072-.3s.021-.171.107-.193c0 0 .15.022.171.107 0 0-.021.15-.107.172-.064 0-.129 0-.15-.086zm1.071-.171v-.043s.064-.15.128-.15c0 0 .15.043.15.128 0 0-.042.129-.128.15-.064 0-.107-.021-.129-.085zm1.114.085v-.085s.086-.129.171-.107c0 0 .129.085.107.171 0 0-.085.129-.171.107-.043 0-.086-.043-.107-.086m.986.429s-.022-.107 0-.15c0 0 .128-.064.192-.021 0 0 .065.128.022.192 0 0-.129.065-.193.022l-.043-.043zm.685.878s.022-.171.086-.192c0 0 .15.021.171.107 0 0 0 .15-.085.171-.065 0-.129 0-.172-.086M547.113 194.838s0-.15.043-.171c0 0 .15-.022.193.043 0 0 0 .15-.043.193 0 0-.15.021-.193-.043zm.943-.535s0-.15.064-.172c0 0 .15 0 .193.065 0 0 0 .15-.064.192 0 0-.15 0-.193-.042zm.986-.515s0-.149.064-.171c0 0 .15 0 .193.064 0 0 0 .15-.064.193 0 0-.15 0-.193-.064zm.985-.492s0-.15.065-.193c0 0 .15 0 .192.064 0 0 0 .15-.064.193 0 0-.15 0-.193-.064m1.007-.472s0-.15.065-.192c0 0 .149 0 .192.064 0 0 0 .15-.064.193-.064.042-.15 0-.193-.065m1.007-.45s0-.15.065-.192c0 0 .149 0 .171.064 0 0 0 .15-.064.193-.065.043-.15 0-.193-.065zm1.007-.45s0-.149.064-.171c0 0 .15 0 .172.064 0 0 0 .15-.064.172-.065.021-.15 0-.172-.065m1.007-.428s0-.15.064-.193c0 0 .15 0 .172.064 0 0 0 .15-.064.193-.065.022-.15 0-.172-.064m1.029-.429s0-.15.064-.192c0 0 .15 0 .171.064 0 0 0 .15-.064.171s-.15 0-.171-.064zm1.007-.428s0-.15.064-.193c0 0 .15 0 .171.064 0 0 0 .15-.085.193-.065.022-.15 0-.172-.064zm1.028-.407s0-.172.086-.193c0 0 .15 0 .171.086 0 0 0 .15-.086.171-.064.022-.15 0-.171-.064M546.837 193.766l.129.236c.557-.322 2.1-1.179 4.714-2.357 3.385-1.5 7.627-3.171 7.67-3.193l-.107-.257s-4.307 1.693-7.692 3.193c-2.614 1.157-4.178 2.035-4.735 2.356zM580.323 138.36c-2.159-4.777 16.3-17.782 41.23-29.049s46.889-16.528 49.048-11.751-16.301 17.782-41.23 29.049c-24.93 11.267-46.89 16.528-49.048 11.751"/><path fill="#A34023" d="M586.727 132.453c-2.06-4.821 15.244-16.837 38.648-26.839s44.048-14.203 46.108-9.383-15.243 16.836-38.648 26.839c-23.404 10.002-44.048 14.203-46.108 9.383"/><path fill="#CB5F32" d="M587.382 131.52c-1.981-4.635 14.963-16.32 37.845-26.099 22.883-9.78 43.038-13.949 45.019-9.314s-14.963 16.32-37.845 26.1c-22.882 9.779-43.038 13.948-45.019 9.313"/><path stroke="#232826" stroke-miterlimit="10" stroke-width=".568" d="M586.727 132.453c-2.06-4.821 15.244-16.837 38.648-26.839s44.048-14.203 46.108-9.383-15.243 16.836-38.648 26.839c-23.404 10.002-44.048 14.203-46.108 9.383Z"/><path stroke="#232826" stroke-miterlimit="10" stroke-width=".568" d="M587.382 131.52c-1.981-4.635 14.963-16.32 37.845-26.099 22.883-9.78 43.038-13.949 45.019-9.314s-14.963 16.32-37.845 26.1c-22.882 9.779-43.038 13.948-45.019 9.313Z"/><mask id="k" width="265" height="134" x="474" y="0" maskUnits="userSpaceOnUse" style="mask-type:luminance"><path fill="#fff" d="M670.242 96.109c1.971 4.628-14.976 16.304-37.858 26.096-22.883 9.769-43.044 13.947-45.015 9.32-1.221-2.829-115.846-44.436-112.31-81.416C482.257-25.48 725.733 7.966 734.603 4.173c22.882-9.791-66.332 87.308-64.361 91.936"/></mask><g mask="url(#k)"><path stroke="#B9AC94" stroke-miterlimit="10" stroke-width="1.594" d="M614.688 137.007c-31.534 0-57.098-25.564-57.098-57.098 0-31.535 25.564-57.098 57.098-57.098 31.535 0 57.098 25.563 57.098 57.098 0 31.534-25.563 57.098-57.098 57.098Z"/><path fill="#fff" d="M586.449 38.041c-19.175 10.949-28.131 36.444-19.968 56.948-.6-2.635-1.093-5.27-1.328-7.948-2.1-18.683 6.384-37.666 21.296-49.021zM665.188 79.909c1.543-17.205-8.463-35.159-23.889-42.936 13.884 10.177 22.604 25.753 23.889 42.936"/><path fill="url(#l)" d="M614.688 137.007c-31.534 0-57.098-25.564-57.098-57.098 0-31.535 25.564-57.098 57.098-57.098 31.535 0 57.098 25.563 57.098 57.098 0 31.534-25.563 57.098-57.098 57.098"/><g clip-path="url(#m)"><path fill="url(#n)" d="m628.131 91.689-5.997 10.7 8.536-24.428 5.996-10.7z"/><path fill="url(#o)" d="m574.093 44.134 58.769 19.78-8.535 24.427-28.915 6.496z"/><path fill="url(#p)" d="m624.329 88.34-5.996 10.7-28.913 6.5 5.994-10.705z"/><path fill="url(#q)" d="m595.413 94.837-5.995 10.705-21.321-50.707 5.997-10.7z"/><path fill="url(#r)" d="m636.66 67.26 21.326 50.704-58.776-19.78 28.915-6.496z"/><path fill="url(#s)" d="m657.991 117.966-5.996 10.7-58.774-19.776 5.994-10.705z"/></g></g><defs><linearGradient id="b" x1="1.025" x2="481.494" y1="361.935" y2="156.602" gradientUnits="userSpaceOnUse"><stop stop-color="#7E4033" stop-opacity="0"/><stop offset="1" stop-color="#E4735D"/></linearGradient><linearGradient id="c" x1="28.442" x2="508.91" y1="445.65" y2="240.316" gradientUnits="userSpaceOnUse"><stop stop-color="#7E4033" stop-opacity="0"/><stop offset="1" stop-color="#E4735D"/></linearGradient><linearGradient id="d" x1="19.82" x2="500.289" y1="401.391" y2="196.058" gradientUnits="userSpaceOnUse"><stop stop-color="#7E4033" stop-opacity="0"/><stop offset="1" stop-color="#E4735D"/></linearGradient><linearGradient id="e" x1="565.883" x2="518.49" y1="151.964" y2="151.964" gradientUnits="userSpaceOnUse"><stop offset=".04" stop-color="#BEF5EB"/><stop offset=".12" stop-color="#8FE6EF"/><stop offset=".22" stop-color="#5CD7F4"/><stop offset=".31" stop-color="#34CBF8"/><stop offset=".4" stop-color="#17C3FB"/><stop offset=".47" stop-color="#06BDFD"/><stop offset=".52" stop-color="#00BCFE"/><stop offset=".72" stop-color="#0F85D4"/><stop offset="1" stop-color="#263495"/></linearGradient><linearGradient id="f" x1="565.391" x2="480.141" y1="139.475" y2="139.475" gradientUnits="userSpaceOnUse"><stop offset=".04" stop-color="#BEF5EB"/><stop offset=".12" stop-color="#8FE6EF"/><stop offset=".22" stop-color="#5CD7F4"/><stop offset=".31" stop-color="#34CBF8"/><stop offset=".4" stop-color="#17C3FB"/><stop offset=".47" stop-color="#06BDFD"/><stop offset=".52" stop-color="#00BCFE"/><stop offset=".72" stop-color="#0F85D4"/><stop offset="1" stop-color="#263495"/></linearGradient><linearGradient id="g" x1="565.179" x2="480.142" y1="137.696" y2="137.696" gradientUnits="userSpaceOnUse"><stop offset=".04" stop-color="#BEF5EB"/><stop offset=".12" stop-color="#8FE6EF"/><stop offset=".22" stop-color="#5CD7F4"/><stop offset=".31" stop-color="#34CBF8"/><stop offset=".4" stop-color="#17C3FB"/><stop offset=".47" stop-color="#06BDFD"/><stop offset=".52" stop-color="#00BCFE"/><stop offset=".72" stop-color="#0F85D4"/><stop offset="1" stop-color="#263495"/></linearGradient><linearGradient id="h" x1="751.618" x2="491.303" y1="141.659" y2="141.659" gradientUnits="userSpaceOnUse"><stop offset=".04" stop-color="#BEF5EB"/><stop offset=".08" stop-color="#C7D3E1"/><stop offset=".47" stop-color="#ED4F35"/><stop offset="1" stop-color="#BEF5EB"/></linearGradient><linearGradient id="i" x1="582.895" x2="535.331" y1="195.01" y2="195.01" gradientUnits="userSpaceOnUse"><stop offset=".04" stop-color="#BEF5EB"/><stop offset=".12" stop-color="#8FE6EF"/><stop offset=".22" stop-color="#5CD7F4"/><stop offset=".31" stop-color="#34CBF8"/><stop offset=".4" stop-color="#17C3FB"/><stop offset=".47" stop-color="#06BDFD"/><stop offset=".52" stop-color="#00BCFE"/><stop offset=".72" stop-color="#0F85D4"/><stop offset="1" stop-color="#263495"/></linearGradient><linearGradient id="j" x1="606.487" x2="507.01" y1="217.29" y2="217.29" gradientUnits="userSpaceOnUse"><stop offset=".04" stop-color="#BEF5EB"/><stop offset=".12" stop-color="#8FE6EF"/><stop offset=".22" stop-color="#5CD7F4"/><stop offset=".31" stop-color="#34CBF8"/><stop offset=".4" stop-color="#17C3FB"/><stop offset=".47" stop-color="#06BDFD"/><stop offset=".52" stop-color="#00BCFE"/><stop offset=".72" stop-color="#0F85D4"/><stop offset="1" stop-color="#263495"/></linearGradient><linearGradient id="l" x1="625.019" x2="604.855" y1="27.447" y2="139.849" gradientUnits="userSpaceOnUse"><stop stop-color="#EFDC8D"/><stop offset=".07" stop-color="#EFDC8D" stop-opacity=".672"/><stop offset=".17" stop-color="#EFDC8D" stop-opacity=".36"/><stop offset=".27" stop-color="#EFDC8D" stop-opacity=".176"/><stop offset=".38" stop-color="#EFDC8D" stop-opacity=".073"/><stop offset=".48" stop-color="#EFDC8D" stop-opacity=".022"/><stop offset=".58" stop-color="#EFDC8D" stop-opacity=".01"/><stop offset=".68" stop-color="#EFDC8D" stop-opacity=".01"/><stop offset=".78" stop-color="#EFDC8D" stop-opacity="0"/></linearGradient><linearGradient id="n" x1="616.458" x2="642.349" y1="95.504" y2="74.153" gradientUnits="userSpaceOnUse"><stop offset=".04" stop-color="#BEF5EB"/><stop offset=".12" stop-color="#8FE6EF"/><stop offset=".22" stop-color="#5CD7F4"/><stop offset=".31" stop-color="#34CBF8"/><stop offset=".4" stop-color="#17C3FB"/><stop offset=".47" stop-color="#06BDFD"/><stop offset=".52" stop-color="#00BCFE"/><stop offset=".72" stop-color="#0F85D4"/><stop offset="1" stop-color="#263495"/></linearGradient><linearGradient id="o" x1="582.909" x2="620.382" y1="79.678" y2="48.777" gradientUnits="userSpaceOnUse"><stop offset=".04" stop-color="#BEF5EB"/><stop offset=".12" stop-color="#8FE6EF"/><stop offset=".22" stop-color="#5CD7F4"/><stop offset=".31" stop-color="#34CBF8"/><stop offset=".4" stop-color="#17C3FB"/><stop offset=".47" stop-color="#06BDFD"/><stop offset=".52" stop-color="#00BCFE"/><stop offset=".72" stop-color="#0F85D4"/><stop offset="1" stop-color="#263495"/></linearGradient><linearGradient id="p" x1="592.268" x2="621.488" y1="108.986" y2="84.89" gradientUnits="userSpaceOnUse"><stop offset=".04" stop-color="#BEF5EB"/><stop offset=".12" stop-color="#8FE6EF"/><stop offset=".22" stop-color="#5CD7F4"/><stop offset=".31" stop-color="#34CBF8"/><stop offset=".4" stop-color="#17C3FB"/><stop offset=".47" stop-color="#06BDFD"/><stop offset=".52" stop-color="#00BCFE"/><stop offset=".72" stop-color="#0F85D4"/><stop offset="1" stop-color="#263495"/></linearGradient><linearGradient id="q" x1="571.247" x2="592.263" y1="83.501" y2="66.171" gradientUnits="userSpaceOnUse"><stop offset=".04" stop-color="#BEF5EB"/><stop offset=".12" stop-color="#8FE6EF"/><stop offset=".22" stop-color="#5CD7F4"/><stop offset=".31" stop-color="#34CBF8"/><stop offset=".4" stop-color="#17C3FB"/><stop offset=".47" stop-color="#06BDFD"/><stop offset=".52" stop-color="#00BCFE"/><stop offset=".72" stop-color="#0F85D4"/><stop offset="1" stop-color="#263495"/></linearGradient><linearGradient id="r" x1="615.953" x2="606.077" y1="118.484" y2="126.628" gradientUnits="userSpaceOnUse"><stop offset=".04" stop-color="#BEF5EB"/><stop offset=".12" stop-color="#8FE6EF"/><stop offset=".22" stop-color="#5CD7F4"/><stop offset=".31" stop-color="#34CBF8"/><stop offset=".4" stop-color="#17C3FB"/><stop offset=".47" stop-color="#06BDFD"/><stop offset=".52" stop-color="#00BCFE"/><stop offset=".72" stop-color="#0F85D4"/><stop offset="1" stop-color="#263495"/></linearGradient><linearGradient id="s" x1="608.559" x2="642.655" y1="127.485" y2="99.368" gradientUnits="userSpaceOnUse"><stop offset=".04" stop-color="#BEF5EB"/><stop offset=".12" stop-color="#8FE6EF"/><stop offset=".22" stop-color="#5CD7F4"/><stop offset=".31" stop-color="#34CBF8"/><stop offset=".4" stop-color="#17C3FB"/><stop offset=".47" stop-color="#06BDFD"/><stop offset=".52" stop-color="#00BCFE"/><stop offset=".72" stop-color="#0F85D4"/><stop offset="1" stop-color="#263495"/></linearGradient><clipPath id="a"><path fill="#fff" d="M0 154.262h509.919v293.772H0z"/></clipPath><clipPath id="m"><path fill="#fff" d="m561.615 50.43 53.058-26.767 49.797 98.71-53.057 26.767z"/></clipPath></defs></svg>