<svg xmlns="http://www.w3.org/2000/svg" width="113" height="109" fill="none"><circle cx="54.154" cy="54.154" r="54.154" fill="url(#a)" transform="matrix(-1 0 0 1 112.518 0)"/><g clip-path="url(#b)"><path fill="#fff" d="M93.04 68.511s-.93-3.49-8.55-.814c-7.618 2.675-26.497 10.254-43.416 9.026-16.92-1.227-25.48-1.96-31.192-6.06S1.85 65.987 1.85 70.5c0 2.17 3.199 2.565 2.553 6.02-.238 1.268 2.786 4.653 5.014 5.543 2.227.89 7.2 4.833 24.265 5.967 5.286.349 7.59 1.093 19.675.39 12.086-.704 26.341-5.822 30.512-7.12 4.17-1.296 11.66-4.547 9.998-11.504-.152-.628-.815-1.28-.815-1.28z"/><path fill="#ED803B" d="M46.843 90.008c26.807 0 44.075-10.999 44.854-11.505 5.967-3.88 4.502-7.91 3.909-9.055-1.716-3.316-6.421-4.816-10.277-3.28-31.873 12.707-57.667 8.805-67.281 6.542-6.124-1.442-8.963-3.588-10.835-5.007-1.193-.902-2.135-1.617-3.333-1.617-2.361 0-2.96 1.46-3.106 2.088-.401 1.698.785 4.048 2.437 5.833.082 8.096 14.476 14.261 37.02 15.774a99 99 0 0 0 6.618.22zm41.702-22.13c2.221 0 4.222 1.15 4.99 2.64.989 1.907-.145 4.106-3.112 6.031-.814.53-20.263 12.912-50.053 10.911-17.85-1.198-31.227-5.717-34.216-11.208 15.21 7.503 34.047 7.881 42.114 8.044.53.012 1.012.017 1.437.03 6.98.15 35.868-8.777 37.095-9.155a1.17 1.17 0 0 0 .768-1.454 1.165 1.165 0 0 0-1.454-.768c-.291.093-29.215 9.055-36.165 9.055h-.18c-.43-.011-.919-.023-1.448-.029-7.957-.157-26.591-.535-41.37-7.927-.593-.297-1.158-.721-1.664-1.21a1 1 0 0 0-.186-.186c-1.355-1.384-2.25-3.175-2.064-3.943.046-.198.331-.297.843-.297.419 0 1.082.506 1.93 1.146C7.72 71 10.918 73.42 17.52 74.973c9.829 2.32 36.193 6.31 68.676-6.642a6.3 6.3 0 0 1 2.356-.454zM15.111 56.36c3.99 0 8.992-.594 13.959-2.147a1.162 1.162 0 0 0-.692-2.216c-8.963 2.798-17.199 2.199-19.42 1.28-1.856-.774-2.978-1.699-3.246-2.687-.244-.908.308-1.681.314-1.687.39-.512.291-1.239-.215-1.628a1.16 1.16 0 0 0-1.628.215c-.128.168-1.245 1.704-.71 3.704.465 1.74 2.012 3.164 4.6 4.235 1.361.564 3.886.936 7.05.942z"/><path fill="#fff" d="M39.852 35.442s-4.507-4.333-10.358-5.496-13.29-1.995-18.466-1.146S-.07 33.313 1.245 41.142c0 0 .221 6.147 8.05 9.509 7.305 1.035 10.742 1.61 19.42 0 3.995-.588 9.555-3.658 10.434-4.391s2.716-10.743.697-10.824z"/><path fill="#ED803B" d="M16.066 25.774c.338 0 .675-.146.908-.43.267-.332 6.578-7.701 23.555-1.81a1.162 1.162 0 0 0 .762-2.192c-18.658-6.473-25.841 2.181-26.138 2.553a1.16 1.16 0 0 0 .186 1.635c.216.168.471.255.727.255zM28.726 61.293a1.164 1.164 0 0 0 .058-2.327c-15.023-.755-16.506-4.007-16.593-4.24a1.164 1.164 0 0 0-2.321.152c.017 1.285 1.43 5.543 18.792 6.415h.064"/><path fill="#ED803B" d="M5.562 31.649c.477 0 .925-.297 1.093-.768.1-.262 2.292-5.857 10.935-5.02 6.677.64 15.686 2.577 18.46 4.433a1.17 1.17 0 0 0 1.617-.32 1.163 1.163 0 0 0-.32-1.617c-3.53-2.367-13.546-4.24-19.53-4.816-5.444-.523-8.765 1.245-10.597 2.815-2.03 1.745-2.722 3.653-2.751 3.734a1.168 1.168 0 0 0 1.093 1.559M90.435 27.59a1.163 1.163 0 0 0 .57-2.175c-.629-.355-15.646-8.69-33.612-6.247-4.083.553-7.642 3.42-8.765 5.183a1.164 1.164 0 0 0 .355 1.605 1.16 1.16 0 0 0 1.605-.355c.745-1.17 3.688-3.658 7.12-4.13 17.203-2.338 32.011 5.886 32.157 5.968.18.105.378.151.57.151M64.082 64.68c4.647 0 11.365-1.349 20.88-5.798a1.163 1.163 0 1 0-.989-2.105c-21.63 10.114-27.359 3.402-27.417 3.332a1.17 1.17 0 0 0-1.623-.197c-.5.39-.605 1.099-.227 1.605.157.21 2.496 3.164 9.376 3.164"/><path fill="#ED803B" d="M80.432 33.798a1.164 1.164 0 0 0 .442-2.24c-.866-.354-21.298-8.717-32.035-7.653-4.28.425-6.944 1.71-7.921 3.815-1.129 2.432.506 4.851.575 4.95a1.16 1.16 0 0 0 1.617.297c.53-.361.663-1.082.303-1.611-.023-.03-.954-1.455-.384-2.67.593-1.262 2.74-2.14 6.037-2.466 10.16-1.006 30.709 7.404 30.918 7.485.146.058.297.087.442.087z"/><mask id="c" width="41" height="24" x="0" y="28" maskUnits="userSpaceOnUse" style="mask-type:luminance"><path fill="#fff" d="M39.7 35.717s-4.507-4.333-10.359-5.496c-5.85-1.163-13.29-1.995-18.466-1.146S-.222 33.59 1.093 41.417c0 0 .22 6.148 8.05 9.51 7.304 1.035 10.742 1.61 19.42 0 3.995-.588 9.555-3.659 10.433-4.392s2.716-10.742.698-10.824z"/></mask><g mask="url(#c)"><path fill="#2D2E30" d="M19.43 55.19c-8.206 0-14.86-6.653-14.86-14.86s6.654-14.86 14.86-14.86c8.208 0 14.861 6.653 14.861 14.86s-6.653 14.86-14.86 14.86"/><path fill="#fff" d="M25.957 38.596a3.35 3.35 0 1 1 0-6.7 3.35 3.35 0 0 1 0 6.7M28.818 40.892a1.21 1.21 0 1 1 0-2.42 1.21 1.21 0 0 1 0 2.42"/></g><path fill="#ED803B" d="M56.516 61.297c2.152 0 4.583-.104 7.323-.32 13.37-1.03 18.547-11.47 18.762-11.917a1.164 1.164 0 0 0-2.094-1.012c-.192.396-4.844 9.684-16.849 10.609-6.363.488-15.203.79-18.437-2.205-.93-.86-1.384-1.983-1.384-3.431 0-.64-.524-1.163-1.163-1.163-.64 0-1.163.523-1.163 1.163 0 2.1.715 3.827 2.128 5.136 2.303 2.128 6.299 3.134 12.877 3.134zM17.176 52.72c1.314 0 2.705-.065 4.159-.198 14.086-1.297 18.477-6.142 18.658-6.352a.8.8 0 0 0 .116-.168c.14-.268 3.356-6.56.471-11.028-.03-.04-.058-.08-.093-.122-.239-.256-5.99-6.322-16.797-6.932-8.329-.472-16.163-.553-20.53 3.576-2.1 1.984-3.165 4.805-3.17 8.381 0 1.99.488 5.776 3.762 8.765 2.972 2.71 7.474 4.077 13.418 4.077zm21.444-7.637c-.576.564-5.048 4.554-17.442 5.694-7.526.698-12.988-.46-16.24-3.426-2.78-2.536-3.192-5.775-3.192-7.48 0-3.123.86-5.449 2.623-7.112 3.862-3.653 11.3-3.554 19.234-3.1 9.596.54 14.994 5.746 15.57 6.322 2.087 3.35-.163 8.317-.547 9.102z"/><path fill="#fff" d="M87.092 39.728s-.861-.733-7.555-3.397c-6.695-2.664-10.975-5.42-18.205-6.444s-13.912.157-15.645.71-6.619 2.46-7.008 9.614c-.39 7.153 3.257 12.341 3.99 12.813.732.47 8.916 4.687 22.298 1.837 8.02-2.594 17.361-10.724 19.502-12.731s2.623-2.396 2.623-2.396z"/><mask id="d" width="50" height="27" x="38" y="29" maskUnits="userSpaceOnUse" style="mask-type:luminance"><path fill="#fff" d="M87.074 39.774s-.86-.733-7.555-3.397-10.975-5.42-18.204-6.444-13.912.157-15.646.71-6.618 2.46-7.008 9.614c-.39 7.153 3.257 12.341 3.99 12.812s8.916 4.688 22.299 1.838c8.02-2.594 17.36-10.725 19.501-12.731 2.14-2.007 2.623-2.396 2.623-2.396z"/></mask><g mask="url(#d)"><path fill="#2D2E30" d="M57.529 56.627c-8.208 0-14.86-6.654-14.86-14.86 0-8.208 6.653-14.86 14.86-14.86s14.86 6.652 14.86 14.86c0 8.206-6.653 14.86-14.86 14.86"/><path fill="#fff" d="M64.736 39.694a3.35 3.35 0 1 1 0-6.7 3.35 3.35 0 0 1 0 6.7M67.603 41.992a1.21 1.21 0 1 1 0-2.42 1.21 1.21 0 0 1 0 2.42"/></g><path fill="#ED803B" d="M54.698 56.96c2.448 0 5.013-.226 7.467-.703 8.283-1.611 18.321-7.875 25.574-15.948a.872.872 0 0 0-.36-1.407c-.07-.024-6.782-2.35-11.668-5.281-5.52-3.31-23.189-8.59-34.17-2.019a1 1 0 0 0-.174.134c-.087.087-8.422 8.806.593 21.776.012.017.03.035.041.052 1.75 2.135 6.921 3.385 12.702 3.385zm30.86-16.854c-6.933 7.345-16.123 12.964-23.73 14.44-8.12 1.583-16.57.199-18.466-2.052-3.443-4.967-4.606-9.771-3.46-14.29.755-2.967 2.285-4.787 2.628-5.165 10.213-6.014 27.208-.96 32.274 2.076 3.803 2.28 8.532 4.159 10.754 4.985z"/></g><defs><linearGradient id="a" x1="28.418" x2="76.618" y1="0" y2="102.959" gradientUnits="userSpaceOnUse"><stop stop-color="#FA8929"/><stop offset=".415" stop-color="#FA8929"/><stop offset="1" stop-color="#E5E5E5"/></linearGradient><clipPath id="b"><path fill="#fff" d="M96.205 18.72H.001V90.01h96.204z"/></clipPath></defs></svg>