<svg xmlns="http://www.w3.org/2000/svg" width="236" height="220" fill="none"><path fill="#EAD1BC" stroke="#000" stroke-linejoin="round" stroke-width="15.029" d="M181.51 18.45c-2.239 4.573-12.108 11.686-16.763 14.671 2.649-.322 12.434 1.456 14.184 2.587 1.4.905 7.473 3.83 8.481 9.173 1.779-7.474-3.102-32.148-5.902-26.431Z"/><circle cx="108.068" cy="108.068" r="108.068" fill="url(#a)" transform="scale(-1 1)rotate(.858 -124.555 -14431.328)"/><path fill="#EAD1BC" stroke="#000" stroke-linejoin="round" stroke-width="15.029" d="M22.27 47.122c2.839 4.228 13.58 9.938 18.597 12.264-2.668.04-10.91 2.094-12.49 3.452-1.265 1.086-8.097 5.841-8.372 11.272-2.776-7.164-1.284-32.272 2.265-26.988Z"/><g clip-path="url(#b)"><path fill="#212121" d="M183.042 167.26c-1.254 2.445-3.72 6.558-7.348 9.55-5.491 4.524-17.172 4.574-27.076 4.426-9.906-.145-14.053 3.258-26.843.525s-29.715-10.857-24.206-10.376c0 0 14.941 1.002 27.93 3.906 12.987 2.905 14.304-6.141 24.912-8.246 10.611-2.104 24.643-6.429 30.807-4.519 3.775 1.427 2.468 3.481 1.827 4.734z"/><path fill="#A7A9AC" d="M134.908 155.384c.012.831.594 1.497 1.295 1.487s1.262-.692 1.25-1.525c-.013-.834-.594-1.498-1.295-1.488-.702.011-1.263.692-1.25 1.526M136.803 168.53c.01.706.505 1.273 1.102 1.264s1.074-.591 1.064-1.297-.505-1.273-1.102-1.264-1.075.59-1.064 1.297M133.147 163.248c.012.831.594 1.498 1.295 1.488s1.262-.692 1.25-1.526c-.013-.833-.594-1.497-1.295-1.487s-1.263.692-1.25 1.525M138.905 164.363c.012.831.594 1.498 1.295 1.487s1.262-.691 1.25-1.525-.594-1.495-1.295-1.485-1.263.692-1.25 1.523M130.35 155.804c-.703.011-1.283-.655-1.295-1.487s.547-1.514 1.25-1.525c.702-.011 1.282.655 1.295 1.487s-.548 1.515-1.25 1.525M129.234 163.307c-.703.01-1.282-.655-1.295-1.487s.547-1.515 1.25-1.526c.703-.01 1.283.656 1.295 1.488s-.547 1.514-1.25 1.525M124.496 154.612c-.703.01-1.283-.656-1.295-1.488-.013-.831.547-1.514 1.25-1.525s1.282.655 1.295 1.487-.547 1.515-1.25 1.526M122.734 161.028c.012.831.594 1.498 1.295 1.487s1.262-.691 1.25-1.525c-.013-.833-.594-1.498-1.295-1.487s-1.263.692-1.25 1.525M137.941 151.21c-.703.011-1.283-.655-1.295-1.487s.547-1.515 1.25-1.525 1.283.655 1.295 1.487-.547 1.515-1.25 1.525M178.507 151.721c.013.831.594 1.497 1.295 1.487s1.263-.692 1.25-1.525c-.012-.834-.594-1.498-1.295-1.488s-1.262.692-1.25 1.526M132.067 146.456c.013.831.594 1.498 1.296 1.487.701-.01 1.262-.691 1.25-1.525-.013-.833-.594-1.495-1.296-1.484-.701.01-1.262.691-1.25 1.522M126.568 144.181c.013.831.594 1.498 1.295 1.487.702-.01 1.263-.691 1.25-1.525s-.594-1.498-1.295-1.487-1.262.691-1.25 1.525M115.772 143.281c.01.681.486 1.227 1.062 1.218.577-.008 1.036-.568 1.026-1.249-.01-.68-.486-1.226-1.063-1.218-.576.009-1.035.569-1.025 1.249M121.188 142.754c.012.831.594 1.498 1.295 1.487s1.262-.692 1.25-1.525c-.013-.834-.594-1.498-1.295-1.487-.702.01-1.263.691-1.25 1.525M183.765 149.017c-.552.008-1.007-.514-1.017-1.167-.01-.652.43-1.188.982-1.196s1.008.514 1.018 1.166c.009.653-.43 1.189-.983 1.197M181.722 156.186c.011.753.537 1.355 1.174 1.346.636-.01 1.144-.628 1.132-1.381-.011-.753-.537-1.356-1.173-1.346-.636.009-1.144.627-1.133 1.381M186.49 152.435c.009.589.421 1.064.919 1.056.499-.007.897-.491.888-1.083s-.421-1.064-.92-1.057c-.498.008-.896.492-.887 1.084M186.753 145.038c.006.454.324.821.711.815s.693-.379.686-.836-.324-.821-.711-.816-.693.38-.686.837M141.995 158.287c-.702.011-1.282-.655-1.295-1.487s.547-1.515 1.25-1.525 1.283.655 1.295 1.487-.547 1.515-1.25 1.525"/><path fill="#6D6E71" d="M181.071 122.429a71 71 0 0 1 5.918-6.705c2.096-2.109 4.268-4.152 6.623-5.977l.881-.689c.292-.23.606-.43.909-.647.612-.425 1.219-.86 1.836-1.274 1.277-.768 2.516-1.604 3.855-2.266 2.598-1.475 5.395-2.564 8.214-3.568l-.024-.077c-2.855.902-5.705 1.893-8.375 3.287-1.367.63-2.638 1.439-3.949 2.181-.636.402-1.258.824-1.888 1.236-.312.21-.636.407-.937.63l-.906.673c-2.434 1.774-4.763 3.716-6.813 5.931-.517.551-1.004 1.127-1.505 1.69-.48.581-.959 1.165-1.412 1.767-.905 1.206-1.767 2.442-2.49 3.765l.068.043zM188.479 125.016c.616-.513 1.227-1.029 1.861-1.519a69 69 0 0 1 1.892-1.472l1.919-1.434 1.956-1.378c2.623-1.811 5.287-3.565 8.08-5.111.704-.371 1.391-.782 2.113-1.125l2.156-1.043c.72-.348 1.466-.629 2.199-.947l1.105-.463c.369-.151.752-.271 1.126-.409l2.256-.808 2.304-.663 1.154-.329 1.173-.249 2.348-.5-.011-.08-2.371.419-1.186.21-1.167.293-2.337.591-2.296.738c-.38.128-.768.241-1.145.384l-1.123.44c-.746.302-1.506.568-2.239.899l-2.198.996c-.735.328-1.438.723-2.158 1.082-2.856 1.482-5.652 3.106-8.244 5.025-2.572 1.937-5.058 4.008-7.214 6.402l.058.056zM193.138 130.837c3.067-1.976 6.286-3.679 9.604-5.154.828-.371 1.646-.765 2.496-1.09.841-.334 1.664-.726 2.519-1.03l2.55-.96 2.593-.839c3.483-1.029 7.026-1.908 10.634-2.403 1.793-.331 3.612-.457 5.425-.648.905-.115 1.819-.11 2.73-.155l2.739-.106-.001-.081-2.738.026c-.914.019-1.829-.014-2.739.075-1.821.136-3.654.21-5.466.489-3.641.416-7.226 1.223-10.763 2.182l-2.64.775-2.602.896a56 56 0 0 0-5.075 2.136c-3.288 1.623-6.499 3.459-9.311 5.82l.05.064zM188.145 140.695a83 83 0 0 1 8.866-4.177c3.023-1.212 6.084-2.351 9.249-3.155a49 49 0 0 1 4.791-.988c.803-.14 1.617-.219 2.426-.322.812-.065 1.626-.155 2.442-.177 3.26-.187 6.546.052 9.761.687l.017-.078a39.2 39.2 0 0 0-9.792-1.012c-.823.002-1.646.074-2.469.118-.819.082-1.642.144-2.458.265-1.636.206-3.26.509-4.868.878-3.218.726-6.387 1.714-9.409 3.037-3.006 1.357-5.947 2.89-8.598 4.854l.045.067zM195.482 143.863c1.781-.191 3.549-.3 5.317-.35.441-.014.883-.034 1.327-.035.441-.007.882-.042 1.327-.031l1.329-.014 1.328.042c1.768.103 3.542.264 5.292.586.883.122 1.748.329 2.621.506.871.19 1.726.444 2.592.663l.025-.076c-.851-.271-1.695-.577-2.558-.819-.866-.231-1.724-.494-2.605-.67-1.749-.405-3.535-.649-5.324-.835-1.79-.17-3.6-.278-5.4-.122-1.795.16-3.593.449-5.291 1.077l.022.078zM131.953 138.496c-5.258-.758-10.549-1.235-15.841-1.665-5.295-.411-10.604-.584-15.915-.704-5.31-.134-10.624-.135-15.93.064-2.654.082-5.305.293-7.949.514l-3.957.465-3.922.697.017.078 3.926-.615 3.955-.384c2.645-.169 5.29-.323 7.94-.352 5.3-.121 10.603-.04 15.901.175 5.297.209 10.588.558 15.881.866l15.885.939.009-.081zM102.431 144.675c-3.544-.454-7.122-.546-10.691-.547-3.574.028-7.139.33-10.686.721-3.55.381-7.08.971-10.573 1.691a81 81 0 0 0-10.273 2.978l.027.074a81 81 0 0 1 10.325-2.658c3.497-.64 7.017-1.144 10.558-1.444 3.54-.303 7.09-.426 10.639-.557 3.551-.147 7.104-.171 10.668-.18l.006-.081zM130.31 152.754c-6.502-.921-13.095-1.087-19.661-.914-6.572.2-13.121 1.002-19.573 2.252-3.227.633-6.42 1.416-9.579 2.328-3.157.917-6.253 2.031-9.291 3.277-3.033 1.269-5.967 2.76-8.81 4.397a68.4 68.4 0 0 0-8.067 5.628l.05.061a68 68 0 0 1 8.137-5.48c2.862-1.586 5.804-3.022 8.843-4.234 3.04-1.202 6.133-2.274 9.284-3.147 3.15-.868 6.337-1.61 9.552-2.198 6.435-1.159 12.956-1.773 19.484-2.079a165 165 0 0 1 19.619.189l.01-.08zM113.15 160.497c-3.842.32-7.614 1.226-11.303 2.349-3.682 1.161-7.238 2.714-10.626 4.557a56 56 0 0 0-4.956 2.983c-.81.524-1.578 1.107-2.362 1.669-.76.596-1.53 1.171-2.256 1.806-2.953 2.478-5.567 5.346-7.799 8.473l.066.048c2.316-3.058 4.994-5.833 7.99-8.208.733-.614 1.51-1.171 2.275-1.744.786-.541 1.56-1.104 2.373-1.604a57 57 0 0 1 4.968-2.851c3.398-1.75 6.972-3.115 10.577-4.361a89 89 0 0 1 11.062-3.034l-.009-.08zM141.987 158.247c-4.809.947-9.518 2.342-14.165 3.903-4.642 1.584-9.161 3.527-13.555 5.705a95 95 0 0 0-6.459 3.528 69 69 0 0 0-6.086 4.138c-1.936 1.51-3.764 3.166-5.406 4.988-1.638 1.824-3.086 3.836-4.144 6.052l.073.035c1.1-2.183 2.585-4.148 4.25-5.924 1.67-1.773 3.515-3.375 5.47-4.83a69 69 0 0 1 6.11-4.009 95 95 0 0 1 6.474-3.398c4.408-2.087 8.961-3.851 13.541-5.525 4.578-1.69 9.226-3.191 13.914-4.583l-.019-.078z"/><path fill="#222" d="M164.951 120.821c7.418-1.381 19.999-6.035 19.8 5.501s-7.416 26.526-19.318 26.704-27.325-12.238-27.431-19.307 26.949-12.898 26.949-12.898"/><path fill="#000" d="M166.677 137.047c.893-.203 1.68.647 1.891 1.722.577 2.966 1.578 9.102.966 13.34l-.035.242c-.9.289-1.832.49-2.8.592.318-4.999-.44-12.09-1-13.897-.409-1.326.085-1.796.978-1.999M150.827 140.877c-.816-1.069-1.337-2.56-1.362-4.219-.049-3.288 1.859-5.982 4.264-6.018 2.404-.036 4.392 2.6 4.441 5.887.049 3.288-1.815 5.916-4.18 6.011-1.04.98-3.263 2.216-7.949 2.582a38 38 0 0 1-1.871-1.601c1.817-.762 4.411-1.7 6.657-2.642M176.12 124.752c2.241-.034 4.093 2.425 4.139 5.489a7.5 7.5 0 0 1-.152 1.626c1.32-.111 2.77-.286 4.136-.454-.168.94-.372 1.886-.617 2.827-2.328.671-3.862.596-4.816.345-.685.777-1.561 1.252-2.524 1.266-2.241.034-4.094-2.424-4.14-5.489s1.735-5.577 3.974-5.61"/><path fill="#474646" d="M183.437 164.001c.805 1.157.047 2.397-.395 3.261-1.254 2.445-3.72 6.557-7.348 9.549-5.491 4.525-17.172 4.575-27.076 4.427-9.907-.145-14.053 3.257-26.843.524-5.313-1.133-11.342-3.199-16.177-5.194-6.054-2.494 5.143-1.875 11.803-.026 7.606 2.109 17.948 3.25 41.361-.495 14.052-1.083 24.675-12.048 24.675-12.048z"/><path fill="#303030" d="M164.951 120.82s-27.055 5.832-26.949 12.898c.005.32.052.654.116.993-6.621-11.13 11.25-18.432 23.559-20.92 12.484-2.41 19.336 4.386 21.379 6.88-3.656-3.904-12.401-.913-18.103.149z"/><path fill="#4D4D4F" d="M183.187 120.547c-.434-.85-1.195-1.571-2.062-2.068-.873-.501-1.836-.816-2.792-1.002-1.925-.369-3.834-.317-5.662-.118-1.834.202-3.591.615-5.282 1.116-.851.254-1.668.503-2.517.728-.199.05-.476.13-.675.19l-.646.191-1.288.378a140 140 0 0 0-5.112 1.609 114 114 0 0 0-5.024 1.865c-3.305 1.343-6.584 2.839-9.551 4.837l.181.314c3.204-1.471 6.555-2.527 9.946-3.432a109 109 0 0 1 5.109-1.264 136 136 0 0 1 5.14-1.108l1.29-.238c.215-.039.43-.071.645-.105.23-.038.383-.058.619-.088a94 94 0 0 0 2.67-.375c1.757-.275 3.448-.651 5.102-1.042 1.654-.383 3.28-.746 4.89-.9 1.609-.141 3.194-.11 4.76.763l.264-.248z"/><path fill="#524C3F" d="M181.215 162.53c-6.164-1.911-20.196 2.416-30.806 4.518-.397.079-.775.17-1.147.267-.212-2.545-.075-5.519 1.028-8.203 2.431-5.917-7.526-2.62-7.519-16.943 5.518 5.663 14.848 10.973 22.662 10.856s13.307-6.293 16.476-13.749c4.037 4.371 3.081 24.68-.694 23.254" opacity=".7"/><path fill="#524C3F" d="M166.934 163.392c.628-1.409 1.142-4.365.066-10.49a14 14 0 0 0 1.803-.349c.529 2.559 1.241 7.284.159 10.448q-1.003.184-2.031.391zM117.461 176.557c4.08 1.041 8.651 1.855 13.225 1.641 7.021-.328 18.058-1.234 27.741-2.098-23.112 3.671-33.402 2.547-40.966.457" opacity=".7"/><path fill="#E9BB7D" d="m105.561 176.554.034.015.076.03q.412.169.836.341l.032.013q.415.166.838.332.065.026.128.05.424.166.855.331.077.03.154.057.441.167.891.335.023.007.044.017c.29.108.58.212.872.32q.076.027.152.055l.888.314.175.059q.458.16.924.316l.029.01q.455.154.913.303l.162.053q.453.149.906.29.09.029.177.057.47.149.937.29.015.004.034.01.456.138.911.269l.177.052q.449.13.898.254l.19.052.921.249.028.007q.449.118.895.228l.18.044q.441.11.876.21l.177.042q.45.103.894.2l.008-.001c5.594 1.195 9.538 1.216 13.032.873q.374-.038.741-.079c.768-.087 1.52-.189 2.266-.299q.618-.09 1.236-.184c2.885-.438 5.813-.893 9.57-.837 2.167.032 4.419.056 6.671.022l.976-.015q.952-.02 1.898-.057c6.571-.251 12.846-1.135 16.727-3.78q.422-.285.804-.597.356-.293.697-.602.06-.057.121-.114.284-.259.558-.525.038-.037.074-.074.3-.293.584-.593.009-.01.017-.021.31-.328.604-.659c0 .003-5.692 10.748-26.504 10.891-20.817.143-23.818 1.653-30.44.186-6.526-1.445-13.868-3.426-18.422-9.855.811.362 1.674.734 2.581 1.107z"/></g><g clip-path="url(#c)"><path fill="#474646" d="M104.461 103.687c-2.021 1.98-4.193 3.612-6.538 4.862a32.3 32.3 0 0 1-7.327 2.811c-2.532.643-5.124 1.019-7.742 1.225-.657.033-1.314.086-1.968.129l-1.982.037c-.661.026-1.316.009-1.97-.001-.328-.008-.655-.003-.982-.022l-.976-.065-.976-.052-.966-.1c-.321-.035-.646-.057-.967-.102l-.957-.146c-1.281-.164-2.531-.453-3.774-.755a29.8 29.8 0 0 1-7.091-2.825c-4.455-2.508-8.322-6.346-10.984-11.308.105 1.414.446 2.825.934 4.18a22 22 0 0 0 1.862 3.938 23.7 23.7 0 0 0 5.928 6.579c1.196.901 2.46 1.73 3.806 2.401 1.326.715 2.73 1.254 4.143 1.744 1.422.456 2.874.829 4.33 1.094l1.098.187c.365.058.733.089 1.1.134l1.101.127c.368.031.732.052 1.1.074l1.102.053c.368.015.731.006 1.099.011.731-.001 1.466.018 2.186-.04l2.175-.136a94 94 0 0 0 2.173-.263c2.889-.424 5.763-1.128 8.494-2.247 2.728-1.12 5.306-2.651 7.5-4.593.281-.232.538-.499.801-.754.256-.261.526-.502.766-.779.479-.552.965-1.086 1.381-1.68a17.3 17.3 0 0 0 2.124-3.715zM169.336 90.11c1.279 1.631 3.081 2.88 5.044 3.742 1.973.865 4.104 1.35 6.29 1.505 2.283.166 4.853-.337 6.966-1.714 2.14-1.337 3.689-3.357 4.71-5.426.515-1.043.893-2.12 1.207-3.197.288-1.082.505-2.17.629-3.258.245-2.18.212-4.35-.161-6.515-.2-1.079-.45-2.177-.951-3.288a21.6 21.6 0 0 0-1.54-2.788c-1.152-1.756-2.518-3.368-4.157-4.64.744 1.93 1.383 3.793 1.875 5.672.248.935.462 1.873.626 2.785.112.79.132 1.685.105 2.59a31 31 0 0 1-.656 5.412 23 23 0 0 1-.683 2.575c-.258.835-.58 1.631-.943 2.378-.722 1.503-1.658 2.776-2.822 3.701-1.169.916-2.605 1.535-4.305 1.768-3.625.458-7.425.231-11.238-1.301z"/><path fill="#474646" d="M104.461 103.687c-2.021 1.98-4.193 3.612-6.538 4.862a32.3 32.3 0 0 1-7.327 2.811c-2.532.643-5.124 1.019-7.742 1.225-.657.033-1.314.086-1.968.129l-1.982.037c-.661.026-1.316.009-1.97-.001-.328-.008-.655-.003-.982-.022l-.976-.065-.976-.052-.966-.1c-.321-.035-.646-.057-.967-.102l-.957-.146c-1.281-.164-2.531-.453-3.774-.755a29.8 29.8 0 0 1-7.091-2.825c-4.455-2.508-8.322-6.346-10.984-11.308.105 1.414.446 2.825.934 4.18a22 22 0 0 0 1.862 3.938 23.7 23.7 0 0 0 5.928 6.579c1.196.901 2.46 1.73 3.806 2.401 1.326.715 2.73 1.254 4.143 1.744 1.422.456 2.874.829 4.33 1.094l1.098.187c.365.058.733.089 1.1.134l1.101.127c.368.031.732.052 1.1.074l1.102.053c.368.015.731.006 1.099.011.731-.001 1.466.018 2.186-.04l2.175-.136a94 94 0 0 0 2.173-.263c2.889-.424 5.763-1.128 8.494-2.247 2.728-1.12 5.306-2.651 7.5-4.593.281-.232.538-.499.801-.754.256-.261.526-.502.766-.779.479-.552.965-1.086 1.381-1.68a17.3 17.3 0 0 0 2.124-3.715z"/><path fill="#212121" d="M159.529 78.715c5.856 9.785 12.008 14.809 20.971 14.674 11.787-.176 12.49-16.12 11.007-20.812-1.486-4.696-7.334-17.34-20.979-15.249s-14.317 15.84-10.999 21.387"/><path fill="#fff" d="M161.967 70.755a2.577 2.577 0 1 1 4.997-1.264 2.577 2.577 0 0 1-4.997 1.263M175.656 70.085a2.577 2.577 0 1 1 3.589-3.7 2.577 2.577 0 0 1-3.589 3.7"/><path fill="#fff" d="M177.399 64.68c1.152 1.803 2.078 3.435 2.814 5.087.735 1.642 1.267 3.26 1.596 4.934.329 1.671.488 3.399.496 5.238.034 1.843-.094 3.768-.082 5.925 1.584-1.47 2.648-3.352 3.298-5.419.647-2.063.793-4.356.346-6.563a12.6 12.6 0 0 0-2.967-5.932c-.743-.813-1.579-1.532-2.502-2.093-.927-.553-1.918-1.013-3.003-1.173z"/><path fill="#CA9A61" d="M156.169 69.266c.067-1.56.37-3.137.918-4.658 1.053-3.064 3.308-5.85 6.154-7.595 1.412-.886 2.952-1.513 4.501-1.964 1.56-.44 3.112-.684 4.72-.768 1.605-.061 3.246.045 4.851.388 1.601.357 3.172.917 4.603 1.7 2.884 1.553 5.206 3.852 6.903 6.388 1.602 2.38 2.726 4.964 3.444 7.638a22 22 0 0 0-.737-1.221c-1.151-1.756-2.517-3.368-4.156-4.639v.007c-3.318-4.438-8.687-8.461-16.849-7.21-13.645 2.09-14.317 15.84-10.999 21.386a66 66 0 0 0 1.594 2.534l.032.09c-.509-.503-.977-1.034-1.473-1.554l-.716-.8a9 9 0 0 1-.668-.922c-.821-1.28-1.373-2.718-1.723-4.201a16.6 16.6 0 0 1-.412-4.592zM80.077 77.868c-11.82.177-21.442 3.607-30.816 19.507 1.966-5.59 5.065-10.921 9.74-15.138a26.7 26.7 0 0 1 8.078-4.98 30.6 30.6 0 0 1 4.568-1.373c.772-.155 1.55-.324 2.324-.412.773-.102 1.553-.22 2.32-.269.77-.058 1.544-.116 2.309-.124l1.148-.03.287-.005.347.008.698.026c1.84.17 3.53.675 5.056 1.347a23.7 23.7 0 0 1 4.2 2.421 34 34 0 0 1 3.59 2.951c2.228 2.097 4.192 4.382 5.954 6.793 1.749 2.418 3.333 4.938 4.625 7.623-4.528-5.862-15.348-18.488-24.428-18.352z"/><path fill="#212121" d="M104.46 103.687c-2.02 1.98-4.193 3.612-6.538 4.863a32.3 32.3 0 0 1-7.327 2.811c-2.531.642-5.123 1.018-7.741 1.224-.658.033-1.314.087-1.968.13l-1.983.036c-.66.027-1.315.01-1.97 0-.327-.009-.655-.004-.982-.022l-.976-.066-.976-.052-.966-.099c-.321-.035-.645-.057-.967-.103l-.957-.146c-1.281-.164-2.53-.452-3.774-.754a29.9 29.9 0 0 1-7.09-2.826c-4.456-2.507-8.323-6.346-10.985-11.304 9.375-15.904 18.996-19.333 30.817-19.51 9.08-.136 19.9 12.49 24.428 18.352 1.369 1.769 1.67 4.896-.045 7.466"/><path fill="#fff" d="M81.48 84.401c4.914.845 10.717 8.184 10.84 16.456.125 8.272-9.786 11.342-9.786 11.342s-2.877.751-5.307.557c-1.3-.104-1.09-1.6-.3-1.779 4.661-1.058 6.157-4.195 6.053-11.159-.133-8.826-12.216-8.832-12.056-13.299-.043-2.857 5.642-2.959 10.56-2.114z"/><path fill="#fff" d="M69.47 92.243a2.577 2.577 0 1 1 3.59-3.7 2.577 2.577 0 0 1-3.59 3.7"/></g><defs><clipPath id="b"><path fill="#fff" d="m234.165 100.853-179.827 2.693 1.252 83.599 179.827-2.693z"/></clipPath><clipPath id="c"><path fill="#fff" d="M193.966 53.952 48.642 56.128l.932 62.193 145.323-2.176z"/></clipPath><linearGradient id="a" x1="56.71" x2="152.897" y1="0" y2="205.463" gradientUnits="userSpaceOnUse"><stop stop-color="#FA8929"/><stop offset=".415" stop-color="#FA8929"/><stop offset="1" stop-color="#E5E5E5"/></linearGradient></defs></svg>