<svg xmlns="http://www.w3.org/2000/svg" width="743" height="690" fill="none"><ellipse cx="281" cy="248" fill="url(#a)" rx="246.398" ry="248"/><g clip-path="url(#b)"><path fill="url(#c)" d="M475.786 384.239 14.019 491.641l1.063 4.571L476.849 388.81z"/><path fill="url(#d)" d="M487.028 463.373 25.26 570.775l1.063 4.571 461.768-107.402z"/><path fill="url(#e)" d="M484.151 413.095 22.383 520.497l5.422 23.31 461.767-107.402z"/><path fill="#FFEFCD" d="m486.11 418.426 4.261 14.408-84.979 12.263z"/></g><path fill="#232826" d="M574.033 421.752a2.52 2.52 0 0 1 1.367 1.644c.188.724.052 1.49-.373 2.106-4.077 5.852-20.563 20.008-85.205 25.16-.259.013-1.543-.096-2.559-3.948-1.015-3.852.044-4.592.282-4.708 58.746-27.479 80.06-23.308 86.507-20.251z"/><path fill="#C9CDA9" d="m553.462 389.978-31.77 15.062s5.104-3.064 3.602-8.739-14.988-9.23-14.988-9.23l27.249-8.716s10.599 11.492 15.907 11.623"/><path fill="url(#f)" d="m537.555 378.355-27.249 8.716s13.527 3.66 14.988 9.23c1.461 5.569-3.602 8.739-3.602 8.739l31.77-15.062c-2.477-.063-6.094-2.6-9.273-5.275.048.62-.127 1.833-2.122 2.842-2.127 1.084-7.917 2.783-10.433 3.502 2.49 3.442 4.12 5.606 4.155 5.632l-.203.142s-4.462-5.904-9.886-13.735l.203-.142a512 512 0 0 0 5.574 7.878c2.474-.707 8.347-2.431 10.474-3.515 2.342-1.184 2.021-2.603 1.931-2.876-.241-.2-.463-.398-.703-.598a.127.127 0 0 1-.166-.069l.014-.077c-3.089-2.738-5.491-5.336-5.491-5.336zm-5.919 11.567s.134.024.143.084c.028.065-.024.134-.084.143-.065.029-.134-.023-.163-.088-.028-.064.024-.134.088-.162zm.959-.284s.134.023.162.088c.028.064-.024.134-.088.162s-.134-.024-.143-.085c0 0 .024-.134.088-.162zm.958-.285s.134.024.162.088c.028.065-.023.134-.088.162-.064.029-.134-.023-.162-.088 0 0 .024-.134.088-.162m.962-.303s.134.024.162.088-.024.134-.088.162-.134-.024-.162-.088c0 0 .024-.134.088-.162m.959-.284s.134.023.162.088c.028.064-.024.134-.088.162s-.134-.024-.162-.088c0 0 .023-.134.088-.162m.962-.304s.134.024.162.088-.024.134-.088.162c-.065.028-.134-.023-.162-.088 0 0 .023-.134.088-.162m.946-.326s.134.024.162.088a.16.16 0 0 1-.088.162c-.064.029-.134-.023-.162-.088 0 0 .023-.134.088-.162m.946-.326s.134.024.165.069c.028.064-.023.134-.068.166-.065.028-.134-.024-.166-.069 0 0 .024-.134.088-.162zm.946-.326s.134.024.166.069c.028.064-.024.134-.069.166-.064.028-.134-.024-.166-.069 0 0 .024-.134.069-.166m.915-.371s.137.005.165.069a.127.127 0 0 1-.069.166c-.064.028-.134-.024-.165-.069 0 0 .024-.134.069-.166m.921-.409s.141-.014.169.05.015.141-.05.169c-.064.028-.137-.005-.169-.05l.004-.019a.15.15 0 0 1 .065-.146zm.82-.506s.144-.034.173.03a.124.124 0 0 1-.031.173c-.048.05-.125.037-.172-.031 0 0 .003-.019-.013-.041-.012-.042.017-.096.043-.131m.893-.691s.056.129.027.183q-.073.075-.183.026c-.019-.003-.031-.045-.047-.067l.02-.115a.16.16 0 0 1 .183-.027m.376-.901s.105.078.092.155c-.014.076-.078.104-.155.091-.038-.007-.07-.052-.082-.094l.01-.057c.014-.077.078-.105.155-.091zm-8.487 12.356s.038.125-.03.173q-.102.07-.172-.031s-.016-.022-.013-.042c-.012-.041.017-.095.043-.13.049-.051.125-.037.172.03m-.781-.829s.126-.037.173.03a.124.124 0 0 1-.031.173.123.123 0 0 1-.172-.031s-.016-.022-.012-.041c-.013-.042.017-.096.042-.131m-.608-.799s.144-.034.172.031c.051.048.037.125-.03.172q-.101.07-.173-.031s.004-.019-.012-.041c-.012-.042.017-.096.043-.131m-.586-.814s.144-.034.172.03c.051.049.037.125-.031.172-.048.051-.125.037-.172-.03 0 0 .003-.019-.012-.042-.013-.042.017-.096.043-.13m-.59-.796s.125-.037.172.031c.051.048.037.125-.03.172q-.102.07-.172-.031s-.016-.022-.013-.041c-.012-.042.017-.096.043-.131m-.605-.818s.141-.014.172.031a.12.12 0 0 1-.03.172q-.102.07-.173-.031s-.016-.022-.012-.041c-.012-.042.017-.096.043-.131m-.567-.811s.125-.037.172.03c.051.049.034.145-.031.173-.048.05-.144.033-.172-.031 0 0-.016-.022-.012-.041-.013-.042.017-.096.043-.131m-.606-.818s.145-.034.173.03c.05.049.014.141-.031.173a.123.123 0 0 1-.172-.031s-.016-.022-.012-.041c-.013-.042.016-.096.042-.131m-.413-.784s.014.141-.031.172c-.048.051-.144.034-.172-.03 0 0-.016-.023-.013-.042-.012-.042.017-.096.043-.131.049-.05.125-.037.173.031m-.762-.826s.144-.034.172.03c.051.049.037.125-.031.173-.048.05-.125.037-.172-.031 0 0-.016-.022-.012-.041-.013-.042.017-.096.043-.131m-.586-.815s.144-.033.172.031q.07.101-.031.172c-.048.051-.125.037-.172-.03 0 0-.016-.023-.012-.042-.013-.042.017-.096.043-.131m-.564-.83s.141-.015.172.03c.051.049.015.141-.03.173-.045.031-.141.014-.173-.031 0 0 .004-.019-.012-.041-.012-.042.017-.096.043-.131m-.586-.815s.144-.033.172.031.034.144-.031.172c-.064.028-.14.015-.172-.03 0 0-.016-.023-.012-.042-.013-.042.017-.096.043-.131m-.567-.811s.14-.014.172.031c.051.048.034.144-.031.172-.048.051-.125.037-.172-.031 0 0-.016-.022-.012-.041-.013-.042.017-.096.043-.131m-.586-.814s.144-.034.172.03.033.144-.031.172c-.064.029-.144.034-.172-.03 0 0-.016-.023-.012-.042-.013-.041.017-.096.043-.13m-.583-.834s.144-.034.172.03c.051.049.037.125-.03.173-.068.047-.145.033-.173-.031 0 0 .004-.019-.012-.042-.013-.041.017-.095.043-.13m-.567-.811s.14-.015.172.03a.12.12 0 0 1-.031.172c-.067.048-.14.015-.172-.03 0 0-.016-.023-.012-.042-.013-.041.017-.095.043-.13"/><path fill="#232826" d="M510.198 387.21c.134.023 13.402 3.697 14.821 9.062 1.427 5.425-3.294 8.34-3.493 8.462l.261.422s5.248-3.216 3.709-9.017c-1.486-5.653-14.607-9.261-15.171-9.42zM537.331 378.413c.43.471 10.743 11.577 16.088 11.715l.009-.492c-5.151-.123-15.625-11.435-15.723-11.551l-.377.347z"/><path fill="#232826" d="M541.898 386.349s.016-.095.042-.13c0 0 .145-.034.173.03 0 0 .037.125-.031.172 0 0-.125.038-.172-.03 0 0 .003-.019-.012-.042m.713-.683.02-.115s.129-.056.183-.027c0 0 .056.129.027.183 0 0-.11.059-.183.027-.019-.004-.031-.045-.047-.068m.453-.887.01-.057s.078-.105.155-.091c0 0 .104.077.091.154 0 0-.078.105-.155.091-.038-.007-.069-.052-.082-.094zM544.096 384.307l-.235.097s.558 1.422-1.436 2.648l.187.171c2.113-1.343 1.48-2.896 1.484-2.916"/><path fill="url(#g)" d="M556.681 368.14c-3.49 4.989-18.364 18.405-78.88 23.221 0 0-1.158.071-2.094-3.451s.102-4.029.102-4.029c55.002-25.733 74.553-21.421 80.049-18.789 1.149.539 1.54 2.01.8 3.064z"/><path fill="url(#h)" d="M475.815 383.862s-.995.495-.147 3.843c-.438-1.874.579-2.266.579-2.266 56.168-21.283 74.728-20.739 79.803-19.741.536.095.843.367.942.7-.157-.561-.539-1.082-1.105-1.341-5.496-2.632-25.051-6.925-80.049 18.789z"/><path fill="#232826" d="M549.075 370.502c-.182.027.181 1.098.343 1.521.121.318.4.861.49.798l.463-.273a35.4 35.4 0 0 0 4.287-2.913c-.262.032-.53-.015-.717-.186-.222-.198-.276-.562-.256-.895a68 68 0 0 1-4.099 1.742c-.171.069-.322.14-.507.187zM495.032 385.152c-.24.016.526 1.712.829 2.338.085.193.197.449.389.483.182-.027.365-.053.55-.1 9.588-1.519 17.659-3.169 24.49-4.841a37 37 0 0 1-1.538-3.688c-6.803 1.736-14.8 3.636-24.204 5.682-.183.027-.349.076-.532.103zM494.17 382.871l.071.269a1989 1989 0 0 1 25.233-6.921l-.07-.27a2350 2350 0 0 0-25.234 6.922M494.235 383.629s.027-.153.091-.181c0 0 .153.027.178.11 0 0-.027.153-.091.181 0 0-.154-.027-.182-.091zm1.102-.318s.028-.153.092-.181c0 0 .153.027.181.091 0 0-.027.153-.111.178 0 0-.153-.027-.181-.091zm1.1-.299s.027-.153.091-.181c0 0 .153.027.181.091 0 0-.027.153-.11.178 0 0-.153-.027-.181-.091zm1.099-.299s.027-.153.091-.181c0 0 .153.027.182.092 0 0-.028.153-.092.181 0 0-.153-.027-.178-.111zm1.103-.318s.027-.153.091-.181c0 0 .153.027.181.092 0 0-.027.153-.11.177 0 0-.153-.027-.178-.11zm1.099-.298s.027-.153.11-.178c0 0 .154.027.178.11 0 0-.027.153-.091.182 0 0-.153-.028-.181-.092zm1.099-.299s.027-.153.111-.178c0 0 .153.027.178.11 0 0-.028.154-.092.182 0 0-.153-.027-.181-.092zm1.103-.318s.027-.153.091-.181c0 0 .153.027.178.11 0 0-.027.153-.091.181-.084.025-.153-.027-.181-.091zm1.099-.299s.027-.153.111-.178c0 0 .153.027.178.111 0 0-.027.153-.092.181 0 0-.153-.027-.181-.091zm1.1-.299s.027-.153.11-.178c0 0 .153.028.178.111 0 0-.027.153-.091.181-.065.028-.154-.027-.182-.091zm1.102-.318s.027-.153.111-.178c0 0 .153.028.178.111 0 0-.027.153-.092.181-.083.025-.153-.027-.181-.091zm1.1-.298s.027-.154.11-.178c0 0 .153.027.178.11 0 0-.027.153-.091.181-.084.025-.154-.027-.182-.091zm1.099-.299s.027-.153.11-.178c0 0 .154.027.178.11 0 0-.027.153-.091.182 0 0-.153-.028-.181-.092zm1.099-.299s.027-.153.111-.178c0 0 .153.027.178.111 0 0-.028.153-.092.181 0 0-.153-.027-.181-.092zm1.103-.318s.027-.153.11-.178c0 0 .154.027.178.111 0 0-.027.153-.091.181 0 0-.153-.027-.181-.092zm1.115-.276s.027-.153.11-.178c0 0 .154.027.178.11 0 0-.027.153-.091.182 0 0-.153-.028-.181-.092zm1.103-.318s.027-.153.11-.178c0 0 .153.027.178.11 0 0-.027.153-.091.182-.084.024-.153-.028-.182-.092zm1.099-.299s.027-.153.11-.178c0 0 .154.027.178.111 0 0-.027.153-.11.177-.064.028-.153-.027-.178-.11m1.099-.299s.027-.153.111-.178c0 0 .153.027.178.111 0 0-.028.153-.111.178-.064.028-.153-.028-.178-.111m1.1-.299s.027-.153.107-.158c0 0 .153.027.181.091 0 0-.027.153-.091.181 0 0-.154-.027-.178-.11zm1.099-.299s.027-.153.107-.158c0 0 .153.027.181.091 0 0-.027.153-.091.181 0 0-.153-.027-.178-.11zm1.118-.295s.027-.153.107-.159c0 0 .154.027.182.092 0 0-.027.153-.092.181 0 0-.153-.027-.178-.111zm1.1-.299s.027-.153.11-.178c0 0 .153.027.178.111 0 0-.027.153-.11.178-.065.028-.154-.027-.178-.111M548.566 371.359c-6.816 2.701-16.173 5.703-27.894 8.898.094.253.19.488.287.722 0 0 .003-.019.026-.035.083-.025.153.027.181.091.025.084-.027.154-.091.182.262.638.534 1.22.765 1.695.08-.006.145-.034.228-.058.186-.046.353-.096.535-.123 13.202-3.307 21.482-6.697 26.666-9.55-.19-.487-.436-1.103-.681-1.838zm-26.463 9.29s.153.027.182.091c.024.083-.028.153-.092.181-.083.025-.153-.027-.181-.091-.025-.083.027-.153.091-.181m1.103-.318s.153.027.181.091c.025.083-.027.153-.091.181-.083.025-.153-.027-.181-.091-.025-.083.027-.153.091-.181m1.103-.318s.153.027.181.091c.025.083-.027.153-.091.181-.065.028-.154-.027-.182-.091-.024-.083.027-.153.092-.181m1.08-.302s.153.027.181.091c.025.083-.027.153-.091.181s-.153-.027-.182-.091c-.024-.084.028-.153.092-.181m1.106-.338s.153.028.181.092c.025.083-.027.153-.091.181s-.153-.027-.181-.091c-.025-.084.027-.153.091-.182m1.103-.318s.153.028.181.092c.025.083-.027.153-.091.181-.065.028-.154-.027-.182-.091-.024-.084.027-.153.092-.182m1.083-.321s.153.027.181.091c.025.084-.027.154-.091.182s-.153-.027-.181-.092c-.025-.083.027-.153.091-.181m1.106-.337s.153.027.182.091c.028.065-.028.153-.092.182s-.153-.028-.181-.092c0 0 .027-.153.091-.181m1.084-.321s.153.027.181.091c.025.083-.027.153-.091.181-.084.025-.153-.027-.182-.091-.024-.083.028-.153.092-.181m1.087-.341s.153.027.181.092c.025.083-.027.153-.091.181-.084.024-.153-.027-.182-.092 0 0 .028-.153.092-.181m1.087-.34s.153.027.181.091c.025.083-.027.153-.091.181-.084.025-.154-.027-.182-.091s.027-.153.092-.181m1.087-.341s.153.027.181.092c.025.083-.027.153-.091.181-.065.028-.154-.027-.182-.092 0 0 .027-.153.092-.181m1.087-.34s.153.027.181.091-.027.153-.091.181c-.084.025-.154-.027-.182-.091-.024-.083.027-.153.092-.181m1.09-.36s.153.027.181.091c.025.084-.027.154-.091.182-.084.024-.153-.027-.181-.092 0 0 .027-.153.091-.181m1.09-.36s.153.028.182.092c.024.083-.028.153-.092.181s-.153-.027-.181-.091c0 0 .027-.153.091-.182m1.091-.359s.153.027.181.091c.025.084-.027.153-.091.181 0 0-.154-.027-.182-.091 0 0 .027-.153.092-.181m1.071-.363s.153.027.181.091c.025.083-.027.153-.091.181-.064.029-.153-.027-.182-.091 0 0 .028-.153.092-.181m1.09-.36s.153.027.181.092c.028.064-.027.153-.091.181-.083.024-.153-.027-.181-.092 0 0 .027-.153.091-.181m1.075-.382s.153.027.181.091c.025.084-.027.153-.091.182-.084.024-.154-.028-.182-.092 0 0 .028-.153.092-.181m1.074-.382s.153.027.182.091c.024.084-.028.153-.092.181-.083.025-.153-.027-.181-.091s.027-.153.091-.181m1.075-.382s.153.027.181.091c.025.083-.027.153-.091.181s-.153-.027-.181-.091c0 0 .027-.153.091-.181m1.059-.405s.153.027.181.091c.025.084-.027.153-.091.182-.084.024-.153-.028-.182-.092 0 0 .028-.153.092-.181m1.078-.401s.153.027.181.091-.008.157-.091.181c-.065.028-.154-.027-.182-.091s.028-.153.092-.181m1.059-.405s.153.027.184.072c.025.084-.027.153-.072.185-.083.025-.153-.027-.181-.092-.028-.064.023-.134.088-.162zm1.062-.424s.156.008.184.072c.025.084-.027.153-.091.182s-.156-.008-.185-.073c-.028-.064.024-.134.088-.162z"/><path fill="#232826" d="M548.372 370.775c.041.106.081.212.103.314-6.797 2.705-16.173 5.704-27.894 8.898l-.28-.76.209-.062c.185-.046.352-.095.515-.126 13.321-3.424 21.867-6.194 27.347-8.264M520.607 380.269l-.071-.271.038.006c.025.084.066.191.11.279-.019-.003-.038-.007-.061.009zM520.915 381.133s.021-.116.066-.148c.025.084.069.172.094.256-.08.005-.154-.028-.163-.089zM494.848 386.761a590 590 0 0 1-17.754 3.152c.233.358.507.702.765.807 6.473-.768 12.137-1.758 17.618-2.604a39 39 0 0 1-.629-1.355m-.023.687s.031-.172.111-.178.153.027.158.107-.027.153-.107.159c0 0-.153-.027-.158-.107zm-1.124.215s.031-.172.111-.178c.08-.005.153.028.158.108s-.027.153-.107.158-.153-.027-.158-.107zm-1.12.197s.03-.173.11-.178.153.027.159.107c.005.08-.027.153-.107.159-.08.005-.154-.028-.159-.107zm-1.121.196s.03-.172.11-.178c.08-.005.154.027.156.126.005.08-.027.153-.107.159s-.154-.027-.159-.107m-1.121.196s.027-.153.13-.174c.08-.006.153.027.159.107.005.08-.028.153-.107.159-.08.005-.154-.028-.159-.107zm-1.12.197s.03-.173.11-.178.153.027.159.107c.005.08-.027.153-.107.159-.08.005-.153-.028-.159-.108zm-1.14.193s.03-.173.11-.178.153.027.175.129c.005.08-.027.153-.107.159s-.153-.027-.159-.107zm-9.873 1.567s-.027.153-.107.159-.134-.024-.159-.107c0 0 .031-.172.111-.178s.153.027.155.126m1.137-.174s-.028.154-.108.159-.134-.024-.158-.107c0 0 .03-.172.11-.178.08-.005.153.027.156.126m1.117-.177s-.027.153-.107.159-.153-.027-.159-.107c0 0 .027-.153.107-.159.08-.005.153.027.159.107m1.136-.174s-.027.154-.107.159-.134-.024-.159-.107c0 0 .031-.172.111-.178.08-.005.153.027.155.126m1.137-.173s-.028.153-.108.158-.153-.027-.158-.107.027-.153.107-.158.153.027.159.107m1.117-.177s-.027.153-.107.158-.134-.024-.159-.107c0 0 .03-.172.11-.178.08-.005.154.027.156.127m1.14-.193s-.028.153-.108.158-.153-.027-.158-.107.027-.153.107-.159c.08-.005.153.028.159.108m1.117-.178s-.027.154-.107.159-.134-.024-.159-.107c0 0 .031-.172.11-.178.08-.005.154.027.159.107zm1.14-.193s-.028.154-.13.175c-.08.006-.134-.024-.159-.107 0 0 .031-.172.111-.178s.153.027.158.107zM476.581 389.014l.573-.116a1113 1113 0 0 0 17.12-3.581c.143.42.311.806.464 1.168a498 498 0 0 1-17.812 3.143c-.194-.351-.341-.633-.341-.633z"/><path fill="#232826" d="M519.473 376.887c.69 2.57 1.716 5.358 3.294 7.928l.245-.155c-4.66-7.577-4.565-17.136-4.548-17.231l-.294-.013s-.061 4.353 1.303 9.471M548.365 369.052c.425 1.616 1.001 3.376 1.793 5.037l.257-.113c-2.328-4.914-2.844-10.691-2.834-10.748l-.282.029s.226 2.626 1.082 5.818zM494.183 383.463c.52 1.968 1.329 4.085 2.604 6.029l.244-.154c-3.748-5.699-3.475-13.034-3.462-13.111l-.294-.013s-.12 3.355.908 7.249"/><path fill="#232826" d="M475.712 383.644c54.526-25.502 74.296-21.644 80.266-18.79.62.288 1.075.842 1.254 1.506a2.31 2.31 0 0 1-.343 1.933c-3.785 5.43-19.062 18.557-79.076 23.324-.14.015-1.38-.007-2.356-3.635-.957-3.625.123-4.263.232-4.322zm2.071 7.474c59.793-4.747 74.951-17.757 78.703-23.114a1.77 1.77 0 0 0 .268-1.512 1.85 1.85 0 0 0-.975-1.18c-5.916-2.824-25.521-6.614-79.832 18.788 0 0-.831.564.006 3.752.837 3.189 1.83 3.266 1.83 3.266"/><path fill="url(#i)" d="M728.271 365.982c-10.638 15.252-56.057 56.207-240.871 70.927 0 0-3.515.226-6.384-10.549-2.868-10.774.327-12.32.327-12.32 167.954-78.574 227.673-65.407 244.46-57.419 3.515 1.669 4.697 6.143 2.472 9.342z"/><path fill="#A07A4B" d="M700.195 350.842c1.219 16.188 8.274 31.968 8.687 32.871 10.703-7.146 16.418-13.439 19.405-17.707 2.225-3.199 1.044-7.673-2.468-9.361-4.698-2.234-12.757-4.886-25.624-5.803"/><path fill="#232826" d="M481.223 413.722c72.353-33.853 132.582-54.436 179.007-61.176 38.522-5.594 57.731-.019 65.743 3.79a6.65 6.65 0 0 1 3.578 4.325c.492 1.904.151 3.936-.981 5.532-5.082 7.293-19.032 21.623-55.283 35.792-43.676 17.079-106.21 28.941-185.851 35.285-.16.012-3.853.127-6.733-10.807s.369-12.669.52-12.741m246.767-47.928a6 6 0 0 0 .878-4.958 5.95 5.95 0 0 0-3.201-3.884c-7.958-3.779-26.999-9.304-65.338-3.737-46.345 6.735-106.494 27.311-178.799 61.114-.023.016-2.862 1.665-.138 11.92 2.705 10.252 5.994 10.302 6.016 10.286 79.561-6.338 142.035-18.192 185.643-35.224 36.058-14.085 49.908-28.294 54.939-35.517"/><path fill="#232826" d="M483.677 429.633s1.494 3.936 3.072 4.729c19.747-2.365 37.897-4.855 54.607-7.462a84 84 0 0 1-3.643-8.523 3533 3533 0 0 1-52.297 10.912l-1.719.347zM614.125 389.692c4.111 15.574 10.701 26.85 10.793 27.005l.308-.183c-.154-.244-14.905-25.522-13.946-52.775l-.355-.004c-.32 9.164 1.135 18.108 3.2 25.957M702.653 366.853c2.563 9.713 5.868 16.913 5.908 17.019l.321-.141c-.068-.17-7.456-16.306-8.7-32.913l-.361.035c.413 5.582 1.526 11.109 2.828 16.019zM537.087 410.409c3.145 11.89 8.424 20.426 8.5 20.558l.289-.186c-.122-.199-11.954-19.333-10.629-40.184l-.352-.023c-.455 7.027.584 13.865 2.169 19.851z"/><path fill="#232826" d="M705.561 381.369c-.739-1.849-1.71-4.39-2.692-7.427-16.72 6.337-42.876 14.793-83.522 25.242a36 36 0 0 1-1.593.409l-.31.083a120 120 0 0 0 4.71 11.298c.225-.039.122-.018.33-.08.558-.138 1.074-.264 1.612-.405 40.288-10.098 65.598-20.461 81.446-29.124zm-82.221 28.374s.198-.005.242.082a.185.185 0 0 1-.082.242.183.183 0 0 1-.242-.082l-.016-.023c-.025-.083.03-.172.095-.2zm-.604-1.272s.198-.004.242.082a.183.183 0 0 1-.082.242.184.184 0 0 1-.242-.082l.003-.019c-.025-.083.031-.172.095-.2zm-.581-1.288s.198-.004.223.079a.185.185 0 0 1-.083.243.185.185 0 0 1-.242-.083c-.021-.102.034-.191.098-.219zm-.559-1.303s.198-.004.219.098c.044.087-.014.195-.098.22-.086.044-.198.004-.219-.098l.003-.019c-.025-.084.031-.173.114-.197zm-.54-1.3s.198-.004.22.098-.015.195-.102.239c-.086.044-.195-.015-.219-.098-.022-.103.034-.192.12-.235zm-1.928-4.941s-.195-.015-.219-.099c-.025-.083.034-.191.098-.219.083-.025.195.015.219.098.044.087-.014.195-.098.22m.479 1.308s-.195-.014-.219-.098c0 0 .033-.191.101-.238.083-.025.191.034.239.101.024.084-.015.195-.098.22zm.514 1.335s-.195-.014-.239-.101c0 0 .034-.192.102-.239a.21.21 0 0 1 .238.102c.044.086-.014.194-.101.238m.517 1.316s-.195-.015-.239-.102a.24.24 0 0 1 .102-.238c.087-.044.195.015.238.101.044.087-.014.195-.101.239M615.199 385.895s-.033.191-.136.212c-.083.025-.191-.034-.213-.136 0 0 .034-.192.137-.213.102-.021.191.034.212.137M617.845 395.402s-.034.192-.121.236c-.103.021-.192-.034-.217-.118 0 0 .034-.192.118-.217a.214.214 0 0 1 .236.121zM615.537 387.256s-.034.192-.136.213c-.084.025-.192-.034-.213-.136 0 0 .034-.192.136-.213s.192.034.216.117zM616.306 390.411s-.034.192-.118.217-.192-.034-.217-.118c-.021-.102.035-.192.118-.216.103-.022.192.034.217.117M615.888 388.62s-.034.191-.137.213c-.102.021-.191-.034-.216-.118-.021-.102.034-.191.117-.216.103-.021.192.034.216.117zM617.431 394.066s-.034.192-.118.217c-.103.021-.192-.034-.217-.118s.034-.192.118-.217.192.034.217.118M618.297 396.746s-.034.192-.118.217-.195-.015-.22-.099c0 0 .034-.192.118-.216.083-.025.192.034.236.121zM625.449 413.631s.004.198-.083.242a.184.184 0 0 1-.242-.082l.007-.038s-.011-.16.076-.204.198-.004.245.063zM626.794 416.097s.027.183-.064.247c-.087.044-.202.023-.249-.045l.007-.038s-.012-.16.056-.208c.087-.044.202-.023.227.06zM624.809 412.373s.005.198-.082.242a.184.184 0 0 1-.242-.082l.007-.038s.008-.157.075-.204c.087-.044.199-.005.223.079zM618.756 398.076s-.034.192-.099.22c-.083.025-.195-.015-.22-.098 0 0 .034-.192.118-.217s.192.034.22.098zM624.163 411.092s.004.198-.083.242a.185.185 0 0 1-.242-.082l.007-.039s.008-.156.076-.203c.086-.044.198-.005.223.079zM626.101 414.872s.005.199-.082.242c-.087.044-.179.008-.245-.063 0 0 .003-.019-.013-.041-.024-.084.027-.154.095-.201.087-.044.198-.004.245.063M612.834 367.745a.18.18 0 0 1-.172.186c-.076-.013-.168-.049-.174-.129l.007-.039a.18.18 0 0 1 .171-.186.18.18 0 0 1 .187.171zM612.881 369.155s-.072.184-.171.186c-.077-.013-.15-.046-.174-.129l.006-.038s.053-.188.152-.191a.18.18 0 0 1 .187.172M612.945 370.565s-.072.185-.171.187c-.08.005-.153-.027-.174-.13l.006-.038s.053-.188.152-.19c.1-.002.188.053.191.152zM613.032 371.963s-.072.185-.172.187c-.079.006-.168-.05-.174-.13.001-.118.076-.203.175-.205.099-.003.188.053.186.171zM612.8 364.936s-.072.185-.168.168c-.076-.014-.15-.046-.174-.13l.007-.038c.017-.096.091-.181.171-.187.095.017.181.092.164.187M612.83 363.521c-.017.095-.092.181-.187.164a.24.24 0 0 1-.175-.13l.007-.038c.017-.096.091-.181.187-.164s.181.091.164.187zM612.803 366.338s-.072.184-.171.186a.24.24 0 0 1-.174-.129l.006-.039s.053-.187.172-.186c.095.017.184.072.186.171zM614.895 384.517s-.034.191-.136.213-.192-.034-.213-.137c0 0 .034-.191.136-.212.103-.022.192.034.213.136M613.162 373.371s-.053.188-.152.19a.195.195 0 0 1-.194-.133l.003-.019c-.002-.1.053-.189.153-.191.099-.002.188.053.19.153M613.868 378.967s-.034.191-.156.209c-.102.021-.191-.034-.19-.152-.021-.102.034-.191.152-.19.103-.021.192.034.213.136zM613.661 377.584s-.053.188-.152.19-.172-.03-.194-.133c.001-.118.038-.21.159-.228.099-.002.188.053.19.152zM613.476 376.173s-.053.188-.152.19c-.083.025-.172-.03-.194-.133.002-.118.057-.207.156-.209s.191.034.209.155zM613.304 374.778s-.053.188-.152.191c-.08.005-.172-.031-.193-.133.001-.119.056-.208.158-.229.1-.002.188.053.191.152zM614.61 383.121s-.034.191-.137.212c-.083.025-.191-.034-.212-.136-.022-.103.037-.211.136-.213.103-.021.191.034.213.137M614.336 381.752s-.034.192-.136.213c-.083.025-.172-.03-.194-.133-.021-.102.038-.21.137-.213.083-.024.191.034.212.137zM614.093 380.365s-.034.192-.152.19c-.103.022-.173-.03-.194-.132s.037-.211.156-.21c.102-.021.191.034.212.137zM541.021 417.743l.014-.077c-.349.076-.698.153-1.025.213-.761.063 1.641 5.227 2.541 7.163.288.604.767 1.577.854 1.533.567-.077 1.482-.231 2.049-.308 29.256-4.668 53.933-9.674 74.738-14.774a128 128 0 0 1-4.711-11.298c-20.762 5.304-45.178 11.067-73.873 17.356-.102.021-.205.042-.288.067 0 0 .038.007.031.045.025.083-.014.195-.098.22a.21.21 0 0 1-.238-.102zm3.436 7.578s.198-.005.242.082a.184.184 0 0 1-.083.242.185.185 0 0 1-.242-.082l.007-.039s.008-.156.076-.203m-.604-1.272s.198-.005.242.082a.184.184 0 0 1-.083.242.184.184 0 0 1-.242-.082l.004-.019c-.025-.084.03-.173.095-.201zm-.585-1.269s.198-.004.242.083a.184.184 0 0 1-.082.242.184.184 0 0 1-.242-.083c-.022-.102.034-.191.098-.219zm-.578-1.306s.198-.005.239.101c.044.087.004.198-.102.239-.086.044-.198.004-.238-.102 0 0 .034-.191.098-.219zm-.54-1.3s.195.014.22.098c.044.087-.015.195-.102.238-.086.044-.198.005-.219-.098-.021-.102.034-.191.121-.235zm-.536-1.319s.195.014.239.101-.015.195-.102.239c-.083.024-.194-.015-.219-.098-.044-.087.015-.195.098-.22zM540.402 414.986s-.034.191-.118.216-.194-.015-.219-.098c0 0 .034-.192.121-.236a.19.19 0 0 1 .216.118M540.877 416.318s-.034.192-.098.22c-.084.025-.196-.015-.221-.099 0 0 .035-.192.118-.216.084-.025.196.014.22.098zM539.555 412.291s-.034.192-.118.216c-.083.025-.192-.034-.216-.117a.19.19 0 0 1 .117-.217c.103-.021.192.034.217.118M539.975 413.627s-.034.192-.121.236c-.103.022-.192-.034-.217-.117 0 0 .034-.192.117-.217.084-.025.192.034.217.118zM539.165 410.938s-.034.192-.117.216c-.103.022-.192-.034-.217-.117a.19.19 0 0 1 .117-.217c.084-.025.192.034.217.118M545.323 426.677s.005.198-.079.223a.184.184 0 0 1-.242-.083l.007-.038s-.011-.16.076-.203a.184.184 0 0 1 .242.082zM538.798 409.57s-.034.191-.117.216c-.084.024-.192-.034-.213-.137-.025-.083.034-.191.136-.212.103-.022.192.034.216.117zM546.656 429.165s.024.201-.063.245c-.086.044-.201.024-.226-.06 0 0 .003-.019-.012-.041-.025-.084.027-.153.094-.201.087-.044.198-.004.246.063zM545.988 427.922s.005.198-.082.242-.198.004-.245-.064c0 0 .003-.019-.013-.041-.024-.083.028-.153.095-.2a.2.2 0 0 1 .245.063M547.37 430.377s.027.183-.044.25a.205.205 0 0 1-.25-.045l-.031-.045c-.029-.064.027-.153.075-.204.087-.044.203-.024.25.044M536.863 398.486s-.053.188-.171.186a.19.19 0 0 1-.193-.133l.003-.019a.18.18 0 0 1 .171-.186c.099-.003.188.053.187.171zM536.767 397.066s-.072.184-.171.187c-.076-.014-.169-.05-.174-.13l.007-.038a.18.18 0 0 1 .171-.187.18.18 0 0 1 .187.171zM536.698 395.676s-.072.184-.171.186c-.076-.013-.169-.049-.174-.129l.007-.038a.18.18 0 0 1 .171-.187.18.18 0 0 1 .187.171zM536.559 391.663c-.017.095-.091.181-.187.164-.077-.014-.146-.065-.155-.126l.006-.038a.19.19 0 0 1 .187-.165c.096.017.182.092.165.187zM537.003 399.893s-.053.188-.152.19a.2.2 0 0 1-.194-.133c.001-.118.057-.207.159-.229.099-.002.188.053.19.153zM537.373 402.664s-.034.191-.155.209c-.08.006-.172-.03-.194-.133.002-.118.038-.21.159-.228.084-.025.188.053.19.152M537.866 405.457s-.034.191-.136.212c-.084.025-.192-.034-.213-.136s.037-.211.136-.213c.103-.021.192.034.213.137M537.595 404.066s-.034.192-.136.213c-.099.002-.192-.034-.194-.133-.021-.102.037-.21.136-.213.103-.021.192.034.213.137zM538.154 406.831s-.034.191-.137.213c-.102.021-.191-.034-.212-.137 0 0 .034-.191.136-.212.083-.025.191.034.213.136M538.463 408.207s-.034.191-.136.213c-.084.024-.192-.034-.213-.137-.021-.102.034-.191.117-.216.103-.021.191.034.213.137zM537.168 401.283s-.053.188-.156.209c-.099.003-.172-.03-.193-.133.001-.118.056-.207.159-.228.099-.002.188.053.209.156zM615.556 394.186c36.851-9.641 66.476-17.837 88.049-24.38l-.099-.334c-21.573 6.543-51.198 14.74-88.029 24.384l.095.353zM481.433 427.778l3.358-.787c18.59-4.525 36.565-8.922 53.419-13.122l-.076-.349c-16.855 4.2-34.83 8.597-53.419 13.122l-3.358.787zM534.924 395.301l.118.337c27.545-10.382 53.162-18.913 76.147-25.403l-.098-.333c-23.005 6.486-48.626 15.037-76.17 25.418zM615 392.685s.034-.191.117-.216c0 0 .191.034.216.117 0 0-.034.192-.117.216-.103.022-.192-.033-.216-.117m1.432-.398s.034-.191.118-.216c0 0 .191.034.216.118 0 0-.034.191-.118.216a.19.19 0 0 1-.216-.118m1.298-.303s.034-.191.117-.216c0 0 .192.034.216.117 0 0-.034.192-.117.217a.19.19 0 0 1-.216-.118m1.368-.369s.034-.192.118-.216c0 0 .191.033.216.117 0 0-.034.191-.118.216s-.191-.034-.216-.117m1.365-.351s.034-.191.118-.216c0 0 .191.034.216.117 0 0-.034.192-.117.217-.084.024-.192-.034-.217-.118m1.369-.369s.034-.192.117-.216c0 0 .192.033.216.117 0 0-.034.191-.117.216s-.191-.034-.216-.117m1.365-.351s.034-.191.117-.216c0 0 .192.034.216.117 0 0-.033.192-.117.217a.19.19 0 0 1-.216-.118m1.369-.369s.033-.192.117-.216c0 0 .191.033.216.117 0 0-.034.191-.117.216-.084.025-.192-.034-.216-.117m1.365-.351s.034-.191.117-.216c0 0 .191.034.216.117 0 0-.034.192-.117.217-.084.024-.192-.034-.216-.118m1.368-.369s.034-.192.117-.216c0 0 .192.033.217.117 0 0-.034.191-.118.216s-.191-.034-.216-.117m1.369-.37s.034-.191.117-.216c0 0 .191.034.216.117 0 0-.034.192-.117.216-.084.025-.192-.034-.216-.117m1.365-.35s.034-.192.117-.216c0 0 .191.033.216.117 0 0-.034.191-.117.216s-.192-.034-.216-.117m1.368-.37s.034-.191.118-.216c0 0 .191.034.216.117 0 0-.034.192-.118.216-.083.025-.191-.034-.216-.117m1.365-.35s.034-.192.118-.217c0 0 .191.034.216.118 0 0-.034.191-.117.216a.19.19 0 0 1-.217-.117m1.369-.37s.034-.191.117-.216c0 0 .192.034.213.136 0 0-.034.192-.117.216a.19.19 0 0 1-.217-.117zm1.368-.37s.034-.191.118-.216c0 0 .191.034.216.118 0 0-.034.191-.117.216-.084.024-.192-.034-.217-.118m1.346-.353s.034-.192.118-.216c0 0 .191.033.216.117 0 0-.034.191-.118.216s-.191-.034-.216-.117m1.369-.37s.034-.191.117-.216c0 0 .192.034.216.117 0 0-.034.192-.117.216 0 0-.191-.034-.216-.117m1.368-.37s.034-.191.118-.216c0 0 .191.034.216.118 0 0-.034.191-.118.216-.102.021-.191-.034-.216-.118m1.369-.369s.034-.192.117-.216c0 0 .192.034.216.117 0 0-.034.191-.117.216s-.191-.034-.216-.117m1.365-.351s.034-.191.117-.216c0 0 .192.034.216.118 0 0-.034.191-.117.216a.19.19 0 0 1-.216-.118m1.368-.369s.034-.192.118-.216c0 0 .191.034.216.117 0 0-.034.191-.117.216a.19.19 0 0 1-.217-.117m1.35-.373s.034-.191.117-.216c0 0 .191.034.216.117 0 0-.034.191-.117.216s-.191-.034-.216-.117m1.368-.37s.034-.191.118-.216c0 0 .191.034.216.117 0 0-.034.192-.118.217 0 0-.191-.034-.216-.118m1.369-.369s.034-.192.117-.216c0 0 .191.034.216.117 0 0-.034.191-.117.216s-.191-.034-.216-.117m1.368-.37s.034-.191.118-.216c0 0 .191.034.216.117 0 0-.034.192-.118.216 0 0-.191-.033-.216-.117m1.369-.369s.034-.192.117-.217c0 0 .191.034.216.118 0 0-.034.191-.117.216s-.191-.034-.216-.117m1.349-.373s.034-.192.117-.216c0 0 .192.033.217.117 0 0-.034.191-.118.216s-.191-.034-.216-.117m1.369-.37s.034-.191.117-.216c0 0 .191.034.216.117 0 0-.034.192-.117.216 0 0-.192-.034-.216-.117m1.368-.37s.034-.191.117-.216c0 0 .192.034.217.118 0 0-.034.191-.118.216 0 0-.191-.034-.216-.118m1.369-.369s.034-.192.117-.216c0 0 .191.034.216.117 0 0-.034.191-.117.216 0 0-.192-.034-.216-.117m1.349-.373s.034-.191.117-.216c0 0 .192.034.216.117 0 0-.034.191-.117.216s-.191-.034-.216-.117m1.369-.37s.033-.191.117-.216c0 0 .191.034.216.117 0 0-.034.192-.117.217-.084.024-.192-.034-.216-.118m1.368-.369s.034-.192.117-.216c0 0 .192.034.216.117 0 0-.034.191-.117.216s-.191-.034-.216-.117m1.349-.373s.034-.192.118-.216c0 0 .191.034.216.117 0 0-.034.191-.118.216s-.191-.034-.216-.117m1.372-.389s.034-.191.118-.216c0 0 .191.034.216.117 0 0-.034.192-.118.216 0 0-.191-.034-.216-.117m1.369-.369s.034-.192.117-.217c0 0 .191.034.216.118 0 0-.034.191-.117.216 0 0-.192-.034-.216-.117m1.352-.393s.034-.191.118-.216c0 0 .191.034.216.118 0 0-.034.191-.117.216 0 0-.192-.034-.217-.118m1.369-.369s.034-.192.117-.216c0 0 .192.034.216.117 0 0-.034.191-.117.216 0 0-.191-.034-.216-.117m1.349-.373s.034-.192.118-.216c0 0 .191.034.216.117 0 0-.034.191-.118.216 0 0-.191-.034-.216-.117m1.372-.389s.034-.191.118-.216c0 0 .191.034.216.117 0 0-.034.192-.118.216 0 0-.191-.034-.216-.117m1.35-.373s.034-.191.117-.216c0 0 .191.034.216.117 0 0-.034.192-.117.216-.084.025-.192-.033-.216-.117m1.371-.389s.034-.191.118-.216c0 0 .191.034.216.118 0 0-.034.191-.117.216 0 0-.192-.034-.217-.118m1.35-.373s.034-.191.117-.216c0 0 .192.034.216.118 0 0-.034.191-.117.216 0 0-.191-.034-.216-.118m1.372-.388s.034-.192.117-.216c0 0 .191.034.216.117 0 0-.034.191-.117.216 0 0-.192-.034-.216-.117m1.349-.373s.034-.192.117-.216c0 0 .192.034.217.117 0 0-.034.191-.118.216 0 0-.191-.034-.216-.117m1.353-.392s.034-.192.117-.216c0 0 .192.033.216.117 0 0-.034.191-.117.216 0 0-.191-.034-.216-.117m1.372-.389s.034-.191.117-.216c0 0 .191.034.216.117 0 0-.034.191-.117.216 0 0-.192-.034-.216-.117m1.352-.392s.034-.192.118-.216c0 0 .191.034.216.117 0 0-.034.191-.117.216 0 0-.192-.034-.217-.117m1.369-.37s.034-.191.117-.216c0 0 .192.034.216.117 0 0-.034.192-.117.217 0 0-.191-.034-.216-.118m1.353-.392s.034-.191.117-.216c0 0 .191.034.216.117 0 0-.034.192-.117.216 0 0-.192-.034-.216-.117m1.352-.392s.034-.191.118-.216c0 0 .191.034.216.117 0 0-.034.192-.117.216 0 0-.192-.034-.217-.117m1.372-.389s.034-.191.118-.216c0 0 .191.034.216.117 0 0-.034.192-.117.217 0 0-.192-.034-.217-.118m1.353-.392s.034-.191.117-.216c0 0 .192.034.217.117 0 0-.034.192-.118.216 0 0-.191-.033-.216-.117m1.356-.411s.034-.191.118-.216c0 0 .191.034.216.117 0 0-.034.191-.118.216 0 0-.191-.034-.216-.117m1.353-.392s.034-.192.117-.216c0 0 .192.034.216.117 0 0-.034.191-.117.216 0 0-.191-.034-.216-.117m1.372-.389s.034-.191.117-.216c0 0 .192.034.216.117 0 0-.034.192-.117.216 0 0-.191-.034-.216-.117m1.353-.392s.034-.191.117-.216c0 0 .191.034.216.117 0 0-.034.192-.117.216 0 0-.192-.034-.216-.117m1.337-.415s.034-.191.117-.216c0 0 .191.034.216.117 0 0-.034.192-.117.217 0 0-.192-.034-.216-.118m1.372-.388s.033-.192.117-.217c0 0 .191.034.216.118 0 0-.034.191-.117.216 0 0-.192-.034-.216-.117m1.352-.392s.034-.192.118-.217c0 0 .191.034.216.118 0 0-.034.191-.118.216 0 0-.191-.034-.216-.117m1.356-.412s.034-.191.118-.216c0 0 .191.034.216.117 0 0-.034.192-.117.217 0 0-.192-.034-.217-.118m1.357-.411s.033-.191.117-.216c0 0 .191.034.216.117 0 0-.034.192-.117.216 0 0-.192-.034-.216-.117m1.356-.411s.034-.192.117-.216c0 0 .191.034.216.117 0 0-.034.191-.117.216 0 0-.192-.034-.216-.117m1.352-.392s.034-.192.118-.216c0 0 .191.033.216.117 0 0-.034.191-.117.216 0 0-.192-.034-.217-.117M481.458 426.144s.034-.192.136-.213c0 0 .192.034.213.136 0 0-.034.192-.136.213s-.192-.034-.213-.136m1.358-.313s.034-.191.137-.212c0 0 .191.034.212.136 0 0-.034.191-.136.213s-.191-.034-.216-.117zm1.381-.328s.034-.191.136-.212c0 0 .192.034.213.136 0 0-.034.192-.136.213s-.192-.034-.213-.137m1.381-.327s.034-.192.136-.213c0 0 .192.034.213.136 0 0-.034.192-.136.213s-.192-.034-.216-.117zm1.365-.351s.034-.191.117-.216c0 0 .192.034.213.136 0 0-.034.192-.136.213s-.192-.034-.217-.117zm1.362-.331s.034-.192.136-.213c0 0 .192.034.213.137 0 0-.034.191-.137.212-.102.022-.191-.034-.216-.117zm1.381-.328s.033-.191.117-.216c0 0 .191.034.213.136 0 0-.034.192-.137.213-.083.025-.191-.034-.213-.136zm1.361-.331s.034-.192.137-.213c0 0 .191.034.212.136 0 0-.033.192-.117.216-.102.022-.191-.033-.216-.117zm1.381-.328s.034-.192.137-.213c0 0 .191.034.216.117 0 0-.034.192-.137.213-.102.021-.191-.034-.212-.136zm1.362-.332s.034-.191.136-.212c0 0 .192.034.216.117 0 0-.034.191-.136.213 0 0-.191-.034-.213-.137zm1.365-.35s.034-.191.14-.232c0 0 .191.034.213.137 0 0-.034.191-.118.216-.102.021-.191-.034-.216-.118zm1.381-.328s.034-.191.117-.216c0 0 .192.034.213.136 0 0-.034.192-.137.213-.083.025-.191-.034-.212-.136zm1.362-.331s.033-.192.136-.213c0 0 .191.034.213.136 0 0-.034.192-.137.213-.083.025-.191-.034-.212-.136m1.361-.331s.034-.192.137-.213c0 0 .191.034.212.136 0 0-.033.192-.117.216 0 0-.191-.034-.216-.117zm1.385-.348s.033-.191.136-.212c0 0 .191.034.216.117 0 0-.034.191-.136.213-.084.024-.192-.034-.213-.137zm1.361-.331s.034-.191.137-.213c0 0 .191.034.212.137 0 0-.034.191-.136.213s-.191-.034-.216-.118zm1.362-.331s.034-.192.136-.213c0 0 .192.034.213.137 0 0-.034.191-.117.216-.084.024-.192-.034-.216-.118zm1.381-.328s.034-.191.117-.216c0 0 .191.034.213.136 0 0-.034.192-.137.213-.083.025-.191-.034-.212-.136zm1.365-.35s.034-.192.136-.213c0 0 .192.034.213.136 0 0-.034.192-.136.213 0 0-.192-.034-.216-.117zm1.362-.332s.034-.191.136-.212c0 0 .191.033.216.117 0 0-.034.191-.136.213-.084.024-.192-.034-.213-.137zm1.361-.331s.034-.191.118-.216c0 0 .191.034.212.136 0 0-.034.192-.136.213s-.191-.034-.216-.117zm1.381-.328s.034-.191.137-.213c0 0 .191.034.212.137 0 0-.034.191-.117.216s-.191-.034-.216-.117zm1.365-.35s.034-.192.137-.213c0 0 .191.034.216.117 0 0-.034.192-.137.213-.083.025-.191-.034-.212-.137zm1.362-.332s.034-.191.136-.212c0 0 .192.034.217.117 0 0-.034.191-.118.216s-.191-.034-.216-.117zm1.384-.347s.034-.191.118-.216c0 0 .191.034.212.137 0 0-.034.191-.136.212-.083.025-.192-.034-.213-.136zm1.362-.331s.034-.191.136-.213c0 0 .192.034.217.118 0 0-.034.191-.137.212-.083.025-.191-.034-.213-.136zm1.362-.331s.034-.192.136-.213c0 0 .192.034.213.136 0 0-.034.192-.137.213-.102.021-.191-.034-.216-.117zm1.381-.328c-.022-.103.033-.192.136-.213 0 0 .191.034.213.136 0 0-.034.192-.118.217a.19.19 0 0 1-.216-.118zm1.365-.351s.034-.191.136-.212c0 0 .192.034.213.136 0 0-.034.191-.137.213 0 0-.191-.034-.216-.118zm1.361-.331s.034-.191.137-.213c0 0 .191.034.213.137 0 0-.034.191-.137.212-.102.022-.191-.033-.216-.117zm1.385-.347s.034-.191.136-.213c0 0 .191.034.213.137 0 0-.034.191-.117.216 0 0-.192-.034-.217-.117zm1.361-.331s.034-.192.118-.216c0 0 .191.033.216.117 0 0-.034.191-.117.216a.19.19 0 0 1-.217-.117m1.385-.347s.034-.192.136-.213c0 0 .191.034.213.136 0 0-.034.192-.137.213-.102.021-.191-.034-.216-.117zm1.361-.332s.034-.191.137-.212c0 0 .191.034.212.136 0 0-.033.191-.136.213-.102.021-.191-.034-.216-.117zm1.385-.347s.033-.191.136-.212c0 0 .191.033.216.117 0 0-.034.191-.117.216-.103.021-.192-.034-.213-.136zm1.361-.331s.034-.191.137-.213c0 0 .191.034.212.137 0 0-.033.191-.117.216-.102.021-.191-.034-.216-.117zm1.385-.347s.033-.191.136-.213c0 0 .191.034.216.118 0 0-.034.191-.117.216-.103.021-.192-.034-.216-.118zm1.361-.331s.034-.192.137-.213c0 0 .191.034.216.117 0 0-.034.192-.117.216-.103.022-.192-.034-.217-.117zm1.385-.347s.033-.192.117-.216c0 0 .191.033.216.117 0 0-.034.191-.117.216-.103.021-.192-.034-.216-.117m1.361-.332s.034-.191.117-.216c0 0 .192.034.217.117 0 0-.034.192-.118.217-.102.021-.191-.034-.216-.118m1.365-.35s.034-.191.118-.216c0 0 .191.034.212.136 0 0-.034.192-.136.213-.083.025-.191-.034-.213-.136zm1.385-.347s.034-.192.117-.216c0 0 .191.034.216.117 0 0-.034.191-.117.216-.103.021-.192-.034-.216-.117M536.224 393.476s.03-.172.117-.216c0 0 .191.034.22.098 0 0-.015.195-.099.22 0 0-.194-.015-.238-.102m1.331-.495s.031-.172.117-.216c0 0 .195.015.22.098 0 0-.034.192-.098.22 0 0-.192-.034-.239-.102m1.312-.498s.031-.172.118-.216c0 0 .194.015.219.098 0 0-.015.195-.101.239 0 0-.192-.034-.239-.101zm1.332-.494s.03-.172.117-.216c0 0 .195.014.22.098 0 0-.034.191-.098.219 0 0-.195-.014-.239-.101m1.328-.476s.03-.172.117-.216c0 0 .195.015.22.098 0 0-.015.195-.102.239 0 0-.195-.015-.239-.102zm1.312-.498s.031-.172.117-.216c0 0 .195.015.22.098 0 0-.015.195-.102.239 0 0-.191-.034-.219-.098zm1.332-.494s.03-.173.117-.216c0 0 .195.014.238.101 0 0-.014.195-.098.22 0 0-.191-.034-.219-.098zm1.328-.476s.03-.172.098-.219c0 0 .195.015.238.101 0 0-.014.195-.098.22 0 0-.195-.015-.219-.098zm1.331-.494s.031-.173.117-.216c0 0 .195.014.22.098 0 0-.015.194-.098.219 0 0-.195-.015-.22-.098zm1.328-.476s.031-.172.117-.216c0 0 .192.034.22.098 0 0-.015.195-.098.22 0 0-.195-.015-.22-.098zm1.331-.494s.031-.173.118-.217c0 0 .195.015.219.099 0 0-.015.194-.098.219 0 0-.191-.034-.219-.098zm1.328-.476s.031-.172.099-.219c0 0 .191.034.219.098 0 0-.015.195-.098.219 0 0-.195-.015-.22-.098m1.329-.475s.03-.173.113-.197c0 0 .192.034.22.098 0 0-.015.195-.098.219 0 0-.192-.034-.22-.098zm1.328-.476s.03-.172.117-.216c0 0 .191.034.219.098 0 0-.014.195-.098.22 0 0-.191-.034-.219-.098zm1.328-.475s.03-.173.113-.197c0 0 .195.015.22.098 0 0-.034.191-.098.219 0 0-.192-.034-.22-.098zm1.347-.472s.03-.173.117-.216c0 0 .191.033.22.098 0 0-.015.194-.099.219 0 0-.191-.034-.219-.098zm1.328-.476s.03-.172.117-.216c0 0 .195.015.22.098 0 0-.034.192-.099.22 0 0-.194-.015-.219-.098zm1.324-.456s.031-.172.118-.216c0 0 .191.034.219.098 0 0-.034.191-.098.219 0 0-.191-.034-.219-.098zm1.348-.472s.03-.172.117-.216c0 0 .195.014.219.098 0 0-.034.191-.098.219 0 0-.191-.034-.219-.098zm1.328-.476s.03-.172.117-.216c0 0 .191.034.219.098 0 0-.014.195-.098.22 0 0-.195-.015-.219-.098zm1.324-.456s.034-.191.118-.216c0 0 .194.015.219.098 0 0-.034.191-.121.235 0 0-.191-.034-.216-.117m1.347-.472s.031-.172.118-.216c0 0 .195.015.219.098 0 0-.034.191-.098.219 0 0-.191-.033-.219-.098zm1.325-.456s.031-.173.117-.216c0 0 .192.033.216.117 0 0-.033.191-.117.216 0 0-.195-.015-.219-.098zm1.344-.453s.03-.173.117-.216c0 0 .195.014.22.098 0 0-.015.195-.098.219 0 0-.192-.034-.22-.098zm1.324-.457s.031-.172.118-.216c0 0 .191.034.216.118 0 0-.034.191-.098.219 0 0-.192-.034-.236-.121m1.344-.453s.031-.172.118-.216c0 0 .191.034.219.098 0 0-.034.192-.098.22 0 0-.191-.034-.22-.098zm1.344-.452s.034-.192.117-.217c0 0 .192.034.216.118 0 0-.033.191-.117.216 0 0-.191-.034-.219-.098zm1.344-.453s.03-.173.117-.217c0 0 .192.034.22.099 0 0-.034.191-.098.219 0 0-.192-.034-.22-.098zm1.344-.453s.03-.173.117-.216c0 0 .191.033.219.098 0 0-.034.191-.12.235 0 0-.192-.034-.216-.117m1.324-.457s.031-.172.118-.216c0 0 .191.034.216.117 0 0-.034.192-.118.217 0 0-.194-.015-.219-.098zm1.341-.433s.03-.173.117-.217c0 0 .191.034.219.099 0 0-.033.191-.12.235 0 0-.192-.034-.216-.117m1.343-.453s.034-.192.118-.216c0 0 .191.033.216.117 0 0-.015.195-.098.219 0 0-.192-.034-.236-.12m1.341-.434s.03-.172.117-.216c0 0 .191.034.216.117 0 0-.034.191-.12.235 0 0-.192-.034-.217-.117zm1.363-.45s.03-.172.117-.216c0 0 .191.034.235.121 0 0-.034.191-.117.216 0 0-.191-.034-.216-.117zm1.321-.437s.034-.191.117-.216c0 0 .192.034.216.117 0 0-.034.192-.117.216 0 0-.191-.034-.219-.098zm1.36-.43s.03-.173.117-.216c0 0 .191.034.216.117 0 0-.034.191-.117.216 0 0-.192-.034-.216-.117m1.34-.434s.034-.191.117-.216c0 0 .192.034.22.098 0 0-.034.191-.121.235 0 0-.191-.034-.216-.117m1.359-.43s.034-.192.118-.217c0 0 .191.034.216.118 0 0-.015.195-.117.216 0 0-.195-.015-.217-.117m1.337-.415s.034-.191.118-.216c0 0 .191.034.216.117 0 0-.034.191-.098.22 0 0-.192-.034-.216-.118zm1.341-.434s.034-.191.117-.216c0 0 .191.034.216.117 0 0-.034.192-.117.216 0 0-.191-.034-.216-.117m1.359-.43s.034-.192.118-.216c0 0 .191.034.216.117 0 0-.034.191-.118.216 0 0-.191-.034-.216-.117m1.337-.415s.034-.191.118-.216c0 0 .191.034.216.117 0 0-.034.192-.118.216 0 0-.191-.034-.216-.117m1.36-.43s.034-.192.117-.216c0 0 .192.033.216.117 0 0-.034.191-.117.216 0 0-.191-.034-.216-.117m1.337-.415s.034-.191.117-.216c0 0 .192.034.216.117 0 0-.034.192-.117.216 0 0-.191-.034-.216-.117m1.356-.411s.034-.192.117-.216c0 0 .192.034.216.117 0 0-.033.191-.117.216 0 0-.191-.034-.216-.117m1.356-.411s.034-.192.117-.217c0 0 .192.034.217.118 0 0-.034.191-.118.216 0 0-.191-.034-.216-.117m1.356-.412s.034-.191.118-.216c0 0 .191.034.216.117 0 0-.034.192-.118.217 0 0-.191-.034-.216-.118m1.356-.411s.034-.191.118-.216c0 0 .191.034.216.117 0 0-.034.192-.117.216 0 0-.192-.034-.217-.117m1.353-.392s.031-.172.117-.216c0 0 .192.034.217.117 0 0-.034.191-.118.216 0 0-.191-.034-.216-.117m1.356-.411s.031-.173.118-.216c0 0 .191.033.216.117 0 0-.034.191-.118.216 0 0-.191-.034-.216-.117m1.353-.392s.031-.173.117-.217c0 0 .192.034.216.118 0 0-.033.191-.117.216 0 0-.191-.034-.216-.117m1.356-.412s.034-.191.117-.216c0 0 .192.034.217.117 0 0-.034.192-.118.217 0 0-.191-.034-.216-.118m1.353-.392s.034-.191.117-.216c0 0 .192.034.216.117 0 0-.034.192-.117.216 0 0-.191-.033-.216-.117m1.353-.392s.034-.191.117-.216c0 0 .191.034.216.117 0 0-.034.192-.117.216 0 0-.192-.034-.216-.117m1.349-.373s.034-.191.117-.216c0 0 .192.034.216.117 0 0-.033.192-.117.216 0 0-.191-.034-.216-.117m1.372-.389s.034-.191.117-.216c0 0 .192.034.216.118 0 0-.034.191-.117.216 0 0-.191-.034-.216-.118M704.772 368.376s-.034.192-.118.216c-.083.025-.192-.034-.217-.117-.024-.084.034-.192.118-.217.103-.021.192.034.217.118M705.157 369.726s-.034.192-.118.216c-.083.025-.192-.034-.216-.117 0 0 .034-.192.117-.217.084-.025.192.034.217.118M704.177 367.243a.175.175 0 1 1 .06-.344.175.175 0 0 1-.06.344M704.028 365.656s-.034.191-.118.216-.191-.034-.216-.117c-.021-.103.034-.192.137-.213.102-.021.191.034.212.136zM708.897 380.38s-.015.195-.101.239-.195-.015-.239-.102c0 0 .034-.191.098-.219.087-.044.195.014.239.101zM710.016 382.966s.004.198-.083.242-.198.004-.223-.079c0 0 .004-.019-.012-.042-.025-.083.031-.172.095-.2a.184.184 0 0 1 .242.082zM705.977 372.44s-.034.192-.117.217c-.084.025-.192-.034-.217-.118 0 0 .034-.192.117-.217.084-.024.192.034.217.118M709.438 381.68s-.015.194-.082.242c-.087.043-.195-.015-.242-.083a.24.24 0 0 1 .101-.238c.087-.044.195.014.22.098zM703.691 364.293s-.033.192-.136.213c-.083.025-.191-.034-.213-.136 0 0 .034-.192.137-.213.102-.021.191.034.212.136M705.552 371.079s-.034.192-.118.217-.192-.035-.236-.122c0 0 .034-.192.118-.216.102-.022.192.034.216.117zM702.312 357.378s-.034.192-.153.19c-.083.025-.172-.03-.193-.133.001-.118.037-.21.155-.209.103-.021.192.034.191.152M702.101 355.98s-.053.188-.155.209c-.099.002-.172-.03-.194-.133.002-.118.038-.21.159-.228.099-.002.188.053.21.155zM702.538 358.759s-.034.192-.136.213c-.099.002-.191-.034-.213-.136s.034-.192.137-.213c.102-.021.191.034.212.136M702.809 360.151s-.034.191-.136.213c-.083.024-.172-.031-.194-.133-.021-.103.038-.211.137-.213.102-.021.191.034.212.136zM701.604 351.783s-.053.188-.152.19c-.08.006-.169-.05-.174-.13.001-.118.056-.207.159-.228.095.017.184.072.187.171zM701.918 354.583s-.053.187-.152.19c-.08.005-.172-.031-.193-.133.001-.119.056-.207.155-.21.099-.002.188.053.21.156zM701.754 353.189s-.053.188-.152.191c-.099.002-.172-.031-.193-.133l.003-.02c-.002-.099.053-.187.152-.19.099-.002.188.053.19.152M703.363 362.914s-.034.191-.136.212c-.083.025-.191-.034-.213-.136s.034-.191.137-.213c.102-.021.191.034.212.137M703.078 361.541s-.034.191-.136.212-.192-.034-.213-.136.034-.192.136-.213.192.034.213.137"/><path fill="#232826" d="M719.088 367.218c-3.272 1.533-7.397 3.31-12.532 5.322-.51.206-.998.396-1.527.598-.525.065.811 3.223 1.29 4.532.357.992.776 2.862 1.085 2.68a95 95 0 0 0 1.604-.92c5.636-3.286 9.883-6.304 13.086-8.896 3.017-2.209 7.326-6.915 5.948-8.837-.649-.904.006 1.64-8.957 5.54zM708.14 378.98s.195.015.219.098a.21.21 0 0 1-.101.239c-.087.044-.195-.015-.239-.102 0 0 .034-.191.098-.219zm-.517-1.316s.195.015.219.099c.044.086-.014.194-.098.219-.087.044-.195-.015-.219-.098 0 0 .034-.191.098-.22m-.476-1.328s.195.015.22.099c.025.083-.015.194-.098.219-.087.044-.195-.015-.22-.098 0 0 .034-.191.117-.216zm-.472-1.347s.195.015.22.098c.025.084-.015.195-.098.22-.084.025-.195-.015-.22-.098-.025-.084.015-.195.098-.22m-.456-1.324s.191.034.216.117-.034.191-.098.219c-.103.022-.191-.033-.235-.12 0 0 .034-.192.117-.216"/><path fill="url(#j)" d="M519.214 425.392c-.371.092-.31.636.083.646 3.819.065 10.08 1.055 10.12 6.847.001.218-.018.432-.036.645-.694 7.597-14.025 14.198-14.025 14.198l8.738-2.519 29.174-8.434s2.564-11.352 10.179-16.557c.853-.58.438-1.917-.598-1.863-7.915.434-24.505 1.917-43.654 7.033z"/><path fill="url(#k)" d="M581.544 441.448c-4.073 5.832-21.415 21.476-92.064 27.103 0 0-1.341.099-2.446-4.026-1.086-4.121.125-4.716.125-4.716 64.17-30.012 87.013-24.998 93.418-21.929 1.349.634 1.795 2.352.945 3.583z"/><path fill="#232826" d="M487.058 459.576c63.612-29.756 86.664-25.258 93.636-21.93a2.69 2.69 0 0 1 1.037 3.955c-4.418 6.325-22.236 21.647-92.242 27.211-.16.011-1.575-.023-2.686-4.228-1.111-4.204.124-4.933.255-5.008m2.404 8.718c69.789-5.563 87.5-20.727 91.869-27.001.37-.527.485-1.178.319-1.799a2.2 2.2 0 0 0-1.152-1.409c-6.899-3.295-29.805-7.728-93.201 21.928 0 0-1.004.651.006 4.423s2.182 3.842 2.182 3.842z"/><path fill="#232826" d="M572.648 444.155c-.202.024.207 1.281.394 1.787.13.379.903 2.372 1.015 2.293.196-.104 1.264-.783 1.441-.89 2.158-1.256 4.018-3.513 4.365-4.241-.706.191-1.327.021-1.549-.176-.253-.242-.319-.649-.309-1.042a77 77 0 0 1-4.783 2.035c-.192.085-.382.15-.574.234M539.062 454.336c.619 1.748 1.368 3.204 1.884 4.302.083-.025.936 2.18 1.141 2.137 15.394-3.867 25.359-8.853 31.414-12.164-.68-.949-1.289-2.972-1.677-4.127-6.392 2.422-16.38 5.647-31.916 9.647-.205.042-.394.107-.599.15zM509.578 461.277c-.281.029.635 1.988.976 2.739.116.238 1.153 2.297 1.382 2.338.224-.04 21.342-3.564 29.288-5.512-1.17-1.866-2.165-4.609-2.786-6.338-7.941 2.029-17.274 4.225-28.241 6.626l-.615.128zM488.054 465.75s1.063 2.696 2.093 2.562c7.542-.894 14.345-1.071 20.722-2.074-.759-1.062-1.709-3.501-2.172-4.787-6.141 1.34-12.784 2.73-19.99 4.178l-.656.14zM508.893 459.793c10.802-2.687 20.745-5.209 29.587-7.532l-.055-.247a2717 2717 0 0 1-29.587 7.532zM537.282 447.527l.075.25c14.025-3.833 25.461-6.426 33.979-7.701l-.036-.243c-8.54 1.29-19.977 3.884-34.021 7.713zM486.669 461.084l.097.234c7.136-3.059 14.609-6.237 20.882-8.659l-.097-.234c-6.273 2.422-13.746 5.6-20.882 8.659M508.578 459.006s.024-.134.088-.162c0 0 .134.023.143.084 0 0-.024.134-.084.143-.065.028-.134-.024-.162-.088zm.971-.243s.024-.134.085-.143c0 0 .134.024.143.085 0 0-.024.134-.088.162a.16.16 0 0 1-.162-.088zm.971-.243s.024-.134.088-.162c0 0 .134.024.143.085 0 0-.024.134-.085.143-.064.028-.134-.024-.162-.088zm.971-.242s.024-.134.088-.162c0 0 .134.023.143.084 0 0-.024.134-.088.162s-.134-.023-.162-.088zm.971-.243s.024-.134.088-.162c0 0 .134.024.143.085 0 0-.024.134-.088.162s-.134-.024-.162-.088zm.971-.242s.023-.134.088-.162c0 0 .134.023.143.084 0 0-.024.134-.088.162a.16.16 0 0 1-.162-.088zm.971-.243s.023-.134.088-.162c0 0 .134.024.143.084 0 0-.024.134-.088.163-.065.028-.134-.024-.162-.088zm.971-.243s.023-.134.087-.162c0 0 .134.024.143.085 0 0-.023.134-.088.162 0 0-.133-.024-.162-.088zm.97-.242s.024-.134.088-.162c0 0 .134.023.143.084 0 0-.023.134-.084.143a.155.155 0 0 1-.162-.088zm.971-.243s.024-.134.085-.143c0 0 .134.024.143.085 0 0-.024.134-.088.162a.16.16 0 0 1-.162-.088zm.971-.242s.024-.134.088-.162c0 0 .134.023.162.088 0 0-.023.134-.088.162-.064.028-.134-.024-.162-.088m.971-.243s.024-.134.088-.162c0 0 .134.024.143.085 0 0-.024.134-.085.143a.16.16 0 0 1-.162-.088zm.971-.243s.024-.133.088-.162c0 0 .134.024.143.085 0 0-.024.134-.085.143-.064.028-.134-.024-.162-.088zm.971-.242s.024-.134.088-.162c0 0 .134.024.162.088 0 0-.024.134-.088.162a.16.16 0 0 1-.162-.088m.971-.243s.024-.134.088-.162c0 0 .134.024.162.088 0 0-.024.134-.088.162 0 0-.134-.023-.162-.088m.974-.261s.024-.134.085-.143c0 0 .134.023.162.088 0 0-.024.134-.088.162s-.134-.024-.162-.088zm.971-.243s.024-.134.088-.162c0 0 .134.024.162.088 0 0-.024.134-.085.143-.064.028-.134-.024-.162-.088zm.971-.243s.024-.134.088-.162c0 0 .134.024.162.088 0 0-.024.134-.088.162s-.134-.023-.162-.088m.971-.242s.023-.134.088-.162c0 0 .134.023.162.088 0 0-.024.134-.088.162 0 0-.134-.024-.162-.088m.955-.265s.024-.134.088-.162c0 0 .134.023.162.088 0 0-.024.134-.088.162s-.134-.024-.162-.088m.971-.243s.023-.134.088-.162c0 0 .134.024.162.088 0 0-.024.134-.085.143s-.134-.024-.143-.085zm.971-.243s.023-.134.088-.162c0 0 .134.024.162.088 0 0-.024.134-.088.162-.064.029-.134-.023-.162-.088m.974-.261s.024-.134.088-.162c0 0 .134.023.162.088 0 0-.024.134-.088.162 0 0-.134-.024-.162-.088m.971-.243s.024-.134.084-.143c0 0 .134.024.162.088 0 0-.023.134-.084.143-.064.028-.134-.024-.162-.088m.971-.242s.023-.134.088-.163c0 0 .134.024.162.088 0 0-.024.134-.088.163s-.134-.024-.162-.088m.974-.262s.024-.134.088-.162c0 0 .134.023.162.088 0 0-.024.134-.088.162s-.134-.024-.162-.088m.971-.243s.024-.134.088-.162c0 0 .134.024.162.088 0 0-.024.134-.088.162s-.134-.024-.162-.088m.974-.261s.024-.134.088-.163c0 0 .134.024.162.088 0 0-.024.134-.088.162-.064.029-.134-.023-.162-.087m.952-.246s.024-.134.088-.163c0 0 .134.024.162.088 0 0-.024.134-.088.162-.064.029-.134-.023-.162-.087m.974-.262s.024-.134.085-.143c0 0 .134.024.162.088 0 0-.024.134-.088.162a.16.16 0 0 1-.162-.088zm.971-.243s.024-.134.088-.162c0 0 .134.024.162.088 0 0-.024.134-.088.162 0 0-.134-.024-.162-.088M537.233 446.926s.024-.134.084-.143c0 0 .134.024.143.085 0 0-.023.134-.088.162 0 0-.134-.024-.162-.088zm.955-.265s.024-.134.088-.162c0 0 .134.024.162.088 0 0-.024.134-.088.162a.16.16 0 0 1-.162-.088m.974-.262s.024-.134.088-.162c0 0 .134.024.162.088 0 0-.023.134-.088.162 0 0-.134-.024-.162-.088m.975-.262s.023-.134.087-.162c0 0 .134.024.143.085 0 0-.023.134-.087.162-.065.028-.134-.024-.163-.088zm.955-.265s.023-.134.088-.162c0 0 .134.024.162.088 0 0-.024.134-.088.162s-.134-.023-.162-.088m.971-.242s.023-.134.088-.162c0 0 .134.023.162.088 0 0-.024.134-.088.162-.065.028-.134-.024-.162-.088m.974-.262s.024-.134.084-.143c0 0 .134.024.163.088 0 0-.024.134-.088.162-.065.028-.134-.024-.163-.088zm.971-.243s.023-.134.088-.162c0 0 .134.024.162.088 0 0-.024.134-.088.162-.064.029-.134-.023-.162-.088m.971-.242s.023-.134.088-.162c0 0 .134.023.162.088 0 0-.024.134-.085.143 0 0-.134-.024-.143-.085zm.974-.262s.024-.134.088-.162c0 0 .134.024.162.088 0 0-.024.134-.088.162s-.134-.024-.162-.088m.971-.242s.024-.134.088-.163c0 0 .134.024.143.085 0 0-.024.134-.088.162s-.134-.024-.162-.088zm.952-.246s.023-.134.084-.143c0 0 .134.023.162.088 0 0-.024.134-.088.162s-.134-.024-.162-.088zm.99-.24s.023-.134.088-.162c0 0 .134.024.162.088 0 0-.024.134-.088.162a.155.155 0 0 1-.162-.088m.97-.242s.024-.134.088-.162c0 0 .134.023.143.084 0 0-.023.134-.088.162-.064.028-.134-.023-.162-.088zm.971-.243s.024-.134.088-.162c0 0 .134.024.143.085 0 0-.023.134-.084.143s-.134-.024-.143-.085zm.968-.223s.024-.134.088-.162c0 0 .134.023.143.084 0 0-.024.134-.085.143s-.134-.024-.143-.084zm.971-.243s.023-.134.088-.162c0 0 .134.024.143.085 0 0-.024.134-.085.143 0 0-.134-.024-.143-.085zm.986-.22s.024-.134.088-.162c0 0 .134.024.143.085 0 0-.023.133-.084.142s-.134-.023-.143-.084zm.968-.223s.024-.134.088-.163c0 0 .134.024.162.088 0 0-.024.134-.085.143-.06.009-.134-.023-.143-.084zm.987-.22s.023-.134.087-.163c0 0 .134.024.143.085 0 0-.023.134-.084.143s-.134-.024-.143-.085zm.967-.224s.024-.134.088-.162c0 0 .134.024.143.085 0 0-.024.134-.085.142-.06.009-.134-.023-.143-.084zm.968-.223s.023-.134.087-.162c0 0 .134.023.143.084 0 0-.023.134-.084.143s-.134-.024-.143-.085zm.986-.22s.024-.134.088-.163c0 0 .134.024.143.085 0 0-.024.134-.084.143s-.134-.024-.143-.085zm.983-.201s.024-.134.088-.162c0 0 .134.023.143.084 0 0-.023.134-.107.159-.061.009-.134-.024-.143-.085zm.984-.201s.023-.134.107-.159c0 0 .134.024.139.104 0 0-.023.134-.084.143s-.134-.024-.143-.085zm.964-.205s.023-.134.107-.158c0 0 .134.023.143.084 0 0-.024.134-.085.143s-.134-.024-.143-.084zm.983-.2s.024-.134.107-.159c0 0 .134.024.143.084 0 0-.024.134-.107.159-.061.009-.134-.024-.143-.084m.983-.201s.024-.134.107-.159c0 0 .134.024.14.104 0 0-.024.134-.104.139-.061.009-.134-.024-.143-.084m.999-.179s.024-.134.107-.159c0 0 .134.024.14.104 0 0-.024.134-.107.159-.061.009-.134-.024-.143-.085zm.984-.201s.023-.134.107-.158c0 0 .134.023.139.103 0 0-.024.134-.104.14 0 0-.134-.024-.142-.085m.979-.181s.024-.134.107-.159c0 0 .134.024.14.103 0 0-.024.134-.104.14-.06.009-.134-.024-.143-.084m.977-.163s.024-.134.107-.159c0 0 .134.024.139.104 0 0-.023.134-.103.139-.061.009-.134-.023-.143-.084m.999-.178s.027-.154.107-.159c0 0 .134.024.139.103 0 0-.023.134-.103.14-.058-.01-.134-.024-.143-.084m.976-.163s.027-.153.107-.159c0 0 .134.024.14.104 0 0-.024.134-.104.139 0 0-.134-.023-.139-.103zm.996-.159s.027-.154.107-.159c0 0 .134.024.14.104 0 0-.024.134-.104.139-.058-.01-.134-.024-.143-.084M487.198 460.332s.02-.115.065-.147c0 0 .138.005.166.069 0 0-.005.137-.069.166 0 0-.137-.005-.166-.069zm.921-.41s.021-.115.066-.146c0 0 .137.005.165.069 0 0-.004.137-.069.165 0 0-.137-.004-.165-.069zm.918-.39s.021-.115.066-.146c0 0 .134.024.165.069 0 0-.004.137-.069.165 0 0-.137-.005-.165-.069zm.922-.409s.02-.115.065-.147c0 0 .138.005.166.069 0 0-.005.138-.069.166 0 0-.137-.005-.166-.069zm.918-.39s.02-.115.065-.147c0 0 .138.005.166.069 0 0-.024.134-.069.166 0 0-.137-.005-.166-.069zm.921-.41s.021-.114.066-.146c0 0 .137.005.165.069 0 0-.024.134-.069.165 0 0-.134-.023-.165-.068zm.918-.39s.021-.115.066-.146c0 0 .137.004.165.069 0 0-.004.137-.069.165 0 0-.137-.004-.165-.069zm.938-.387s.02-.114.065-.146c0 0 .137.005.165.069 0 0-.004.137-.068.165 0 0-.134-.023-.166-.068zm.921-.409s.02-.115.065-.146c0 0 .138.004.166.069 0 0-.005.137-.069.165 0 0-.137-.004-.165-.069zm.918-.39s.02-.115.065-.146c0 0 .134.023.166.068 0 0-.005.138-.069.166 0 0-.137-.005-.165-.069zm.918-.39s.02-.115.085-.143c0 0 .137.005.165.069 0 0-.004.137-.069.165 0 0-.137-.004-.165-.069zm.918-.39s.021-.115.066-.147c0 0 .137.005.165.069 0 0-.004.138-.069.166 0 0-.137-.005-.165-.069zm.937-.387s.021-.115.066-.146c0 0 .137.004.165.068 0 0-.023.134-.068.166 0 0-.138-.005-.166-.069zm.918-.39s.021-.115.066-.147c0 0 .134.024.165.069 0 0-.023.134-.068.166 0 0-.134-.024-.166-.069zm.919-.39s.02-.115.065-.147c0 0 .134.024.165.069 0 0-.023.134-.068.166 0 0-.134-.024-.166-.069zm.933-.368s.021-.115.085-.143c0 0 .137.005.165.069 0 0-.023.134-.068.165 0 0-.138-.004-.166-.068zm.918-.39s.021-.115.066-.146c0 0 .137.004.165.068 0 0-.004.138-.068.166 0 0-.134-.024-.166-.069zm.938-.387s.02-.115.065-.146c0 0 .134.024.166.069 0 0-.024.134-.069.165 0 0-.134-.024-.166-.069zm.914-.371s.024-.134.066-.146c0 0 .134.024.165.069 0 0-.004.137-.069.165 0 0-.134-.024-.165-.069zm.934-.367s.024-.134.065-.147c0 0 .134.024.166.069 0 0-.005.137-.069.165 0 0-.134-.023-.165-.068zm.934-.368s.02-.115.065-.146c0 0 .134.023.166.068 0 0-.024.134-.069.166 0 0-.134-.024-.166-.069zm.937-.387s.024-.134.066-.146c0 0 .134.024.165.069 0 0-.024.134-.069.165 0 0-.137-.005-.165-.069zm.915-.371s.02-.115.065-.146c0 0 .134.024.166.069 0 0-.024.134-.069.165 0 0-.134-.024-.166-.069z"/><path fill="#232826" d="M537.86 450.511c1.569 5.964 4.101 10.282 4.129 10.347l.219-.12s-5.679-9.732-5.318-20.132l-.255-.006c-.129 3.512.431 6.928 1.222 9.93zM571.692 441.777c.979 3.727 2.248 6.479 2.261 6.521l.234-.097s-2.845-6.229-3.324-12.553l-.24.017c.154 2.14.59 4.25 1.085 6.135zM508.407 458.422c1.207 4.557 3.235 7.818 3.266 7.863l.222-.138s-4.559-7.362-4.056-15.328l-.249-.044c-.184 2.711.221 5.33.821 7.627z"/><path fill="#232826" d="m515.272 447.516.215.453c.585-.291 14.238-7.151 14.182-15.078-.041-6.009-6.516-7.018-10.373-7.09 0 0-.057-.01-.066-.071.007-.038.013-.076.055-.088 19.005-5.083 35.477-6.568 43.593-7.025a.724.724 0 0 1 .759.509.76.76 0 0 1-.297.895c-7.612 5.187-10.263 16.582-10.283 16.697l.498.089s2.614-11.304 10.068-16.38a1.27 1.27 0 0 0 .498-1.472c-.18-.545-.675-.869-1.254-.834-8.136.454-24.649 1.951-43.695 7.046-.289.068-.454.335-.429.635.026.301.267.502.561.514 3.681.06 9.834.992 9.888 6.589.054 7.61-13.773 14.558-13.905 14.634z"/><path fill="#232826" d="m538.595 440.018.249.044c.02-.115 1.493-11.324 3.666-19.468l-.249-.044c-2.173 8.144-3.645 19.353-3.666 19.468M537.676 440.292l.007-.039s.081-.123.138-.113c0 0 .124.081.114.138 0 0-.059.108-.139.114a.13.13 0 0 1-.101-.097zm.135-.983.01-.058s.078-.104.138-.113c0 0 .124.081.114.138 0 0-.078.105-.139.114-.057-.01-.092-.036-.101-.097zm.157-.999.007-.038s.081-.124.138-.114c0 0 .105.078.114.139 0 0-.081.123-.139.113-.057-.01-.092-.036-.101-.097zm.138-1.002.007-.039s.081-.123.138-.113c0 0 .124.081.095.135 0 0-.081.124-.139.114-.057-.01-.092-.036-.101-.097m.154-.98.01-.057s.081-.124.138-.114c0 0 .124.081.114.139 0 0-.078.104-.139.113-.057-.01-.088-.055-.101-.097zm.157-.999.01-.057s.078-.105.135-.095c0 0 .105.078.114.139 0 0-.078.105-.135.095-.058-.011-.093-.037-.102-.097zm.154-.979.01-.058s.078-.104.154-.091c0 0 .105.078.095.135 0 0-.078.105-.136.095-.057-.01-.092-.036-.101-.097zm.176-.996.01-.057s.078-.105.139-.114c0 0 .104.078.094.135 0 0-.078.105-.138.114-.058-.01-.089-.055-.102-.097zm.154-.979.01-.058s.078-.104.135-.094c0 0 .105.078.114.138 0 0-.078.105-.155.091-.057-.01-.088-.055-.101-.096zm.176-.996.01-.057s.078-.105.136-.095c0 0 .104.078.113.139 0 0-.081.124-.158.11-.057-.01-.088-.055-.101-.097m.196-.992.01-.057s.078-.105.135-.095c0 0 .105.078.095.136 0 0-.078.104-.136.094a.13.13 0 0 1-.101-.097zm.173-.976.01-.057s.078-.105.135-.095c0 0 .105.078.091.155 0 0-.078.104-.154.091-.058-.011-.093-.036-.102-.097zm.195-.992.01-.057s.078-.105.155-.091c0 0 .104.077.094.135 0 0-.078.104-.154.091-.058-.01-.089-.055-.102-.097zm.192-.973.01-.057s.078-.105.155-.091c0 0 .104.077.091.154 0 0-.078.105-.135.095a.14.14 0 0 1-.102-.097zm.196-.992.01-.057s.078-.105.154-.091c0 0 .105.078.091.154 0 0-.077.105-.135.095a.13.13 0 0 1-.101-.097zm.211-.969.01-.058s.078-.104.154-.091c0 0 .105.078.092.155 0 0-.078.104-.155.091-.057-.01-.089-.056-.101-.097m.215-.989.01-.057s.077-.105.154-.091c0 0 .105.077.091.154 0 0-.078.105-.154.091-.058-.01-.07-.052-.082-.093zm.233-.985.01-.057s.078-.105.155-.092c0 0 .104.078.091.155 0 0-.078.104-.154.091-.058-.01-.089-.055-.102-.097m.212-.969.01-.058s.077-.105.154-.091c0 0 .105.078.091.154 0 0-.078.105-.154.091-.038-.006-.07-.051-.082-.093zm.249-.963.01-.058s.078-.104.155-.091c0 0 .104.078.091.155 0 0-.078.104-.155.091-.038-.007-.069-.052-.082-.094z"/><path fill="#232826" d="M539.909 432.611s8.821-2.208 11.789-2.354c2.849-.147 3.107 1.518 3.112 1.598l.244-.036s-.265-1.962-3.373-1.802c-2.987.142-11.747 2.341-11.831 2.366l.055.247z"/><path fill="#232826" d="M540.306 433.234s.024-.134.088-.163c0 0 .134.024.162.088 0 0-.023.134-.088.162-.06.009-.134-.023-.143-.084zm.968-.224s.024-.134.088-.162c0 0 .134.024.143.085 0 0-.024.134-.085.142a.16.16 0 0 1-.162-.087zm.971-.243s.023-.134.088-.162c0 0 .134.024.162.088 0 0-.024.134-.085.143s-.134-.023-.143-.084zm.986-.22s.024-.134.088-.162c0 0 .134.024.143.085 0 0-.023.134-.084.143s-.134-.024-.143-.085zm.968-.223s.024-.134.088-.162c0 0 .134.024.143.084 0 0-.024.134-.085.143s-.134-.023-.143-.084zm.983-.201s.024-.134.107-.159c0 0 .134.024.14.104 0 0-.024.134-.085.143s-.134-.024-.143-.085zm.987-.22s.023-.134.088-.162c0 0 .134.024.139.104 0 0-.023.134-.103.139 0 0-.134-.024-.143-.084zm.983-.201s.024-.134.088-.162c0 0 .134.024.159.107 0 0-.024.134-.104.14-.061.009-.134-.024-.143-.085m.98-.182s.024-.134.107-.158c0 0 .134.023.14.103 0 0-.024.134-.104.14-.061.009-.134-.024-.143-.085m.995-.159s.028-.153.108-.159c0 0 .134.024.139.104 0 0-.024.134-.104.14-.06.009-.114-.021-.143-.085m.993-.14s.046-.15.107-.159c0 0 .134.024.139.104 0 0-.043.131-.103.14-.061.008-.115-.021-.143-.085m1.004-.098s.047-.15.126-.156c0 0 .131.043.137.123 0 0-.043.131-.123.136-.058-.01-.115-.02-.121-.1zm.984.016.007-.038s.081-.124.139-.114c0 0 .127.062.114.139 0 0-.059.108-.139.113-.058-.01-.092-.036-.101-.097zm.982.253.014-.077s.097-.101.17-.068c0 0 .101.097.069.17 0 0-.097.101-.171.068-.038-.006-.069-.051-.082-.093m.813.539s-.002-.099.024-.134c0 0 .125-.037.175.011 0 0 .037.125-.011.176 0 0-.125.037-.176-.012l-.031-.045zm.474.893s.046-.15.107-.159c0 0 .13.043.136.123 0 0-.024.134-.104.14-.057-.01-.115-.021-.139-.104M528.884 431.073s.024-.134.066-.146c0 0 .137.004.165.069 0 0-.023.134-.069.165 0 0-.137-.005-.165-.069zm.927-.329s.024-.134.085-.143c0 0 .134.024.162.088 0 0-.024.134-.088.162 0 0-.134-.024-.165-.069zm.962-.304s.024-.134.085-.143c0 0 .134.024.162.088 0 0-.024.134-.088.162 0 0-.134-.023-.162-.088zm.959-.284s.024-.134.088-.162c0 0 .134.024.162.088 0 0-.024.134-.088.162 0 0-.134-.024-.162-.088m.974-.262s.024-.134.088-.162c0 0 .134.024.162.088 0 0-.024.134-.088.162s-.134-.023-.162-.088m.971-.242s.024-.134.088-.162c0 0 .134.023.143.084 0 0-.024.134-.088.162s-.134-.023-.162-.088zm.971-.243s.024-.134.084-.143c0 0 .134.024.143.085 0 0-.023.134-.084.143s-.134-.024-.143-.085m.967-.223s.024-.134.088-.162c0 0 .134.023.143.084 0 0-.023.134-.088.162-.06.009-.134-.024-.143-.084m.987-.22s.024-.134.088-.162c0 0 .134.023.143.084 0 0-.024.134-.085.143-.06.009-.134-.024-.143-.085zm.968-.224s.023-.134.088-.162c0 0 .134.024.142.085 0 0-.023.134-.107.158-.06.009-.134-.023-.143-.084zm.983-.201s.027-.153.107-.158c0 0 .134.023.139.103 0 0-.023.134-.103.14-.061.009-.134-.024-.143-.085M528.811 430.073l.078.231c.549-.199 2.062-.721 4.584-1.36 3.262-.804 7.317-1.626 7.358-1.638l-.055-.247s-4.115.831-7.377 1.635c-2.518.62-4.055 1.157-4.603 1.356zM567.494 385.868c-1.173-4.61 17.378-13.307 41.434-19.428 24.057-6.12 44.509-7.344 45.682-2.735 1.172 4.61-17.379 13.308-41.435 19.428s-44.509 7.344-45.681 2.735"/><path fill="#A34023" d="M574.15 381.603c-1.077-4.633 16.284-12.629 38.778-17.861 22.493-5.232 41.601-5.718 42.679-1.085 1.077 4.632-16.284 12.629-38.777 17.861s-41.602 5.717-42.68 1.085"/><path fill="#CB5F32" d="M574.885 380.874c-1.036-4.455 15.952-12.213 37.943-17.328 21.992-5.115 40.66-5.65 41.696-1.195s-15.952 12.213-37.944 17.328c-21.991 5.115-40.659 5.65-41.695 1.195"/><path stroke="#232826" stroke-miterlimit="10" stroke-width=".794" d="M574.15 381.603c-1.077-4.633 16.284-12.629 38.778-17.861 22.493-5.232 41.601-5.718 42.679-1.085 1.077 4.632-16.284 12.629-38.777 17.861s-41.602 5.717-42.68 1.085Z"/><path stroke="#232826" stroke-miterlimit="10" stroke-width=".794" d="M574.885 380.874c-1.036-4.455 15.952-12.213 37.943-17.328 21.992-5.115 40.66-5.65 41.696-1.195s-15.952 12.213-37.944 17.328c-21.991 5.115-40.659 5.65-41.695 1.195Z"/><mask id="l" width="244" height="123" x="486" y="261" maskUnits="userSpaceOnUse" style="mask-type:luminance"><path fill="#fff" d="M654.515 362.352c1.029 4.446-15.961 12.196-37.954 17.322-21.99 5.107-40.664 5.648-41.693 1.202-.643-2.72-96.467-58.037-87.455-90.517 18.396-66.393 230.631 2.026 239.156.042 21.994-5.126-73.082 67.504-72.054 71.951"/></mask><g mask="url(#l)"><path stroke="#B9AC94" stroke-miterlimit="10" stroke-width="2.229" d="M598.414 390.099c-28.174-4.991-46.967-31.877-41.976-60.051s31.877-46.967 60.051-41.976c28.174 4.992 46.967 31.877 41.976 60.051-4.992 28.174-31.878 46.967-60.051 41.976Z"/><path fill="#fff" d="M588.85 297.21c-18.865 6.746-30.902 28.108-26.854 47.719-.119-2.45-.142-4.882.071-7.312 1.081-17.024 11.666-32.641 26.786-40.426zM652.571 347.08c4.101-15.127-1.996-32.752-14.548-42.142 10.793 11.29 16.119 26.587 14.548 42.142"/><path fill="url(#m)" d="M598.414 390.099c-28.174-4.991-46.967-31.877-41.976-60.051s31.877-46.967 60.051-41.976c28.174 4.992 46.967 31.877 41.976 60.051-4.992 28.174-31.878 46.967-60.051 41.976"/><g clip-path="url(#n)"><path fill="url(#o)" d="m617.592 351.737-7.051 8.611 11.493-20.474 7.051-8.61z"/><path fill="url(#p)" d="m576.84 300.698 49.376 26.973-11.493 20.474-26.861 1.227z"/><path fill="url(#q)" d="m614.725 348.143-7.051 8.61-26.861 1.231 7.05-8.615z"/><path fill="url(#r)" d="m587.864 349.372-7.049 8.615-11.023-48.678 7.051-8.61z"/><path fill="url(#s)" d="m629.083 331.262 11.027 48.677-49.381-26.977 26.862-1.226z"/><path fill="url(#t)" d="m640.112 379.942-7.051 8.611-49.38-26.972 7.049-8.616z"/></g></g><defs><linearGradient id="c" x1="14.55" x2="476.318" y1="493.927" y2="386.525" gradientUnits="userSpaceOnUse"><stop stop-color="#7E4033" stop-opacity="0"/><stop offset="1" stop-color="#E4735D"/></linearGradient><linearGradient id="d" x1="25.791" x2="487.559" y1="573.06" y2="465.659" gradientUnits="userSpaceOnUse"><stop stop-color="#7E4033" stop-opacity="0"/><stop offset="1" stop-color="#E4735D"/></linearGradient><linearGradient id="e" x1="25.094" x2="486.861" y1="532.152" y2="424.75" gradientUnits="userSpaceOnUse"><stop stop-color="#7E4033" stop-opacity="0"/><stop offset="1" stop-color="#E4735D"/></linearGradient><linearGradient id="f" x1="552.441" x2="510.099" y1="395.74" y2="388.239" gradientUnits="userSpaceOnUse"><stop offset=".04" stop-color="#BEF5EB"/><stop offset=".12" stop-color="#8FE6EF"/><stop offset=".22" stop-color="#5CD7F4"/><stop offset=".31" stop-color="#34CBF8"/><stop offset=".4" stop-color="#17C3FB"/><stop offset=".47" stop-color="#06BDFD"/><stop offset=".52" stop-color="#00BCFE"/><stop offset=".72" stop-color="#0F85D4"/><stop offset="1" stop-color="#263495"/></linearGradient><linearGradient id="g" x1="553.979" x2="477.813" y1="384.502" y2="371.008" gradientUnits="userSpaceOnUse"><stop offset=".04" stop-color="#BEF5EB"/><stop offset=".12" stop-color="#8FE6EF"/><stop offset=".22" stop-color="#5CD7F4"/><stop offset=".31" stop-color="#34CBF8"/><stop offset=".4" stop-color="#17C3FB"/><stop offset=".47" stop-color="#06BDFD"/><stop offset=".52" stop-color="#00BCFE"/><stop offset=".72" stop-color="#0F85D4"/><stop offset="1" stop-color="#263495"/></linearGradient><linearGradient id="h" x1="554.072" x2="478.098" y1="382.879" y2="369.419" gradientUnits="userSpaceOnUse"><stop offset=".04" stop-color="#BEF5EB"/><stop offset=".12" stop-color="#8FE6EF"/><stop offset=".22" stop-color="#5CD7F4"/><stop offset=".31" stop-color="#34CBF8"/><stop offset=".4" stop-color="#17C3FB"/><stop offset=".47" stop-color="#06BDFD"/><stop offset=".52" stop-color="#00BCFE"/><stop offset=".72" stop-color="#0F85D4"/><stop offset="1" stop-color="#263495"/></linearGradient><linearGradient id="i" x1="720.015" x2="487.44" y1="415.93" y2="374.726" gradientUnits="userSpaceOnUse"><stop offset=".04" stop-color="#BEF5EB"/><stop offset=".08" stop-color="#C7D3E1"/><stop offset=".47" stop-color="#ED4F35"/><stop offset="1" stop-color="#BEF5EB"/></linearGradient><linearGradient id="j" x1="560.828" x2="518.333" y1="436.891" y2="429.362" gradientUnits="userSpaceOnUse"><stop offset=".04" stop-color="#BEF5EB"/><stop offset=".12" stop-color="#8FE6EF"/><stop offset=".22" stop-color="#5CD7F4"/><stop offset=".31" stop-color="#34CBF8"/><stop offset=".4" stop-color="#17C3FB"/><stop offset=".47" stop-color="#06BDFD"/><stop offset=".52" stop-color="#00BCFE"/><stop offset=".72" stop-color="#0F85D4"/><stop offset="1" stop-color="#263495"/></linearGradient><linearGradient id="k" x1="578.381" x2="489.505" y1="460.531" y2="444.786" gradientUnits="userSpaceOnUse"><stop offset=".04" stop-color="#BEF5EB"/><stop offset=".12" stop-color="#8FE6EF"/><stop offset=".22" stop-color="#5CD7F4"/><stop offset=".31" stop-color="#34CBF8"/><stop offset=".4" stop-color="#17C3FB"/><stop offset=".47" stop-color="#06BDFD"/><stop offset=".52" stop-color="#00BCFE"/><stop offset=".72" stop-color="#0F85D4"/><stop offset="1" stop-color="#263495"/></linearGradient><linearGradient id="m" x1="624.985" x2="589.179" y1="293.849" y2="391.081" gradientUnits="userSpaceOnUse"><stop stop-color="#EFDC8D"/><stop offset=".07" stop-color="#EFDC8D" stop-opacity=".672"/><stop offset=".17" stop-color="#EFDC8D" stop-opacity=".36"/><stop offset=".27" stop-color="#EFDC8D" stop-opacity=".176"/><stop offset=".38" stop-color="#EFDC8D" stop-opacity=".073"/><stop offset=".48" stop-color="#EFDC8D" stop-opacity=".022"/><stop offset=".58" stop-color="#EFDC8D" stop-opacity=".01"/><stop offset=".68" stop-color="#EFDC8D" stop-opacity=".01"/><stop offset=".78" stop-color="#EFDC8D" stop-opacity="0"/></linearGradient><linearGradient id="o" x1="606.56" x2="633.071" y1="353.298" y2="338.321" gradientUnits="userSpaceOnUse"><stop offset=".04" stop-color="#BEF5EB"/><stop offset=".12" stop-color="#8FE6EF"/><stop offset=".22" stop-color="#5CD7F4"/><stop offset=".31" stop-color="#34CBF8"/><stop offset=".4" stop-color="#17C3FB"/><stop offset=".47" stop-color="#06BDFD"/><stop offset=".52" stop-color="#00BCFE"/><stop offset=".72" stop-color="#0F85D4"/><stop offset="1" stop-color="#263495"/></linearGradient><linearGradient id="p" x1="579.091" x2="617.461" y1="333.85" y2="312.173" gradientUnits="userSpaceOnUse"><stop offset=".04" stop-color="#BEF5EB"/><stop offset=".12" stop-color="#8FE6EF"/><stop offset=".22" stop-color="#5CD7F4"/><stop offset=".31" stop-color="#34CBF8"/><stop offset=".4" stop-color="#17C3FB"/><stop offset=".47" stop-color="#06BDFD"/><stop offset=".52" stop-color="#00BCFE"/><stop offset=".72" stop-color="#0F85D4"/><stop offset="1" stop-color="#263495"/></linearGradient><linearGradient id="q" x1="582.812" x2="612.733" y1="361.515" y2="344.611" gradientUnits="userSpaceOnUse"><stop offset=".04" stop-color="#BEF5EB"/><stop offset=".12" stop-color="#8FE6EF"/><stop offset=".22" stop-color="#5CD7F4"/><stop offset=".31" stop-color="#34CBF8"/><stop offset=".4" stop-color="#17C3FB"/><stop offset=".47" stop-color="#06BDFD"/><stop offset=".52" stop-color="#00BCFE"/><stop offset=".72" stop-color="#0F85D4"/><stop offset="1" stop-color="#263495"/></linearGradient><linearGradient id="r" x1="568.069" x2="589.588" y1="335.419" y2="323.262" gradientUnits="userSpaceOnUse"><stop offset=".04" stop-color="#BEF5EB"/><stop offset=".12" stop-color="#8FE6EF"/><stop offset=".22" stop-color="#5CD7F4"/><stop offset=".31" stop-color="#34CBF8"/><stop offset=".4" stop-color="#17C3FB"/><stop offset=".47" stop-color="#06BDFD"/><stop offset=".52" stop-color="#00BCFE"/><stop offset=".72" stop-color="#0F85D4"/><stop offset="1" stop-color="#263495"/></linearGradient><linearGradient id="s" x1="602.474" x2="592.362" y1="373.75" y2="379.463" gradientUnits="userSpaceOnUse"><stop offset=".04" stop-color="#BEF5EB"/><stop offset=".12" stop-color="#8FE6EF"/><stop offset=".22" stop-color="#5CD7F4"/><stop offset=".31" stop-color="#34CBF8"/><stop offset=".4" stop-color="#17C3FB"/><stop offset=".47" stop-color="#06BDFD"/><stop offset=".52" stop-color="#00BCFE"/><stop offset=".72" stop-color="#0F85D4"/><stop offset="1" stop-color="#263495"/></linearGradient><linearGradient id="t" x1="594.44" x2="629.354" y1="380.622" y2="360.898" gradientUnits="userSpaceOnUse"><stop offset=".04" stop-color="#BEF5EB"/><stop offset=".12" stop-color="#8FE6EF"/><stop offset=".22" stop-color="#5CD7F4"/><stop offset=".31" stop-color="#34CBF8"/><stop offset=".4" stop-color="#17C3FB"/><stop offset=".47" stop-color="#06BDFD"/><stop offset=".52" stop-color="#00BCFE"/><stop offset=".72" stop-color="#0F85D4"/><stop offset="1" stop-color="#263495"/></linearGradient><clipPath id="b"><path fill="#fff" d="m46.5 308.221 455.578 80.712-46.5 262.466L0 570.687z"/></clipPath><clipPath id="n"><path fill="#fff" d="m564.697 304.348 51.64-15.516 28.867 96.073-51.64 15.516z"/></clipPath><radialGradient id="a" cx="0" cy="0" r="1" gradientTransform="matrix(309.04363 366.31802 -364.79548 307.75913 167.264 100.461)" gradientUnits="userSpaceOnUse"><stop stop-color="#B4098A"/><stop offset=".415" stop-color="#FA2956"/><stop offset="1" stop-color="#E5E5E5"/></radialGradient></defs></svg>