<svg width="675" height="965" fill="none" xmlns="http://www.w3.org/2000/svg"><g opacity=".42" stroke="#fff" stroke-width="1.38" stroke-miterlimit="10" clip-path="url(#a)"><path d="M162.759 843.036a483.549 483.549 0 0 1-65.709-71.412v-.226h-.169c-.722-.939-1.444-1.879-2.147-2.903a465.782 465.782 0 0 1-23.362-34.766l-12.488-21.612a485.288 485.288 0 0 1-18.037-37.012 763.598 763.598 0 0 1-1.406-3.27 479.278 479.278 0 0 1-28.913-93.023 486.679 486.679 0 0 1-6.178-38.638 488.999 488.999 0 0 1 0-115.339 470.99 470.99 0 0 1 6.178-38.638 478.953 478.953 0 0 1 28.922-93.023c.46-1.09.938-2.18 1.397-3.261a474.564 474.564 0 0 1 18.037-37.002c0-.066.066-.132.103-.188l12.31-21.367a469.28 469.28 0 0 1 23.437-34.851c.713-.94 1.435-1.936 2.157-2.904h.159v-.216a482.245 482.245 0 0 1 95.878-96.096h.216v-.169a480.004 480.004 0 0 1 96.084-56.171c1.191-.536 2.4-1.043 3.609-1.55a466.548 466.548 0 0 1 36.329-13.813 474.743 474.743 0 0 1 56.156-15.034 480.049 480.049 0 0 1 38.653-6.211c1.219-.15 2.447-.291 3.675-.423A485.961 485.961 0 0 1 481.416.94v192.615a289.036 289.036 0 0 0-52.707 4.82c-2.1.376-4.181.79-6.253 1.222-60.279 12.625-114.944 44.258-155.99 90.27a351.479 351.479 0 0 0-4.21 4.802 291.545 291.545 0 0 0-26.897 37.096 344.036 344.036 0 0 0-7.5 12.939.147.147 0 0 1 0 .066 287.869 287.869 0 0 0-18.356 41.409 263.957 263.957 0 0 0-2.034 5.995 291.663 291.663 0 0 0 0 180.625 263.957 263.957 0 0 0 2.034 5.995 287.667 287.667 0 0 0 18.356 41.4.19.19 0 0 1 0 .075 268.823 268.823 0 0 0 7.5 12.939 290.85 290.85 0 0 0 26.897 37.087 239.374 239.374 0 0 0 4.21 4.811 285.208 285.208 0 0 0 22.762 22.814 286.645 286.645 0 0 0 133.228 67.485c2.072.432 4.153.845 6.253 1.221a288.859 288.859 0 0 0 52.707 4.82v192.568c-17.964 0-35.912-.996-53.766-2.978a241.212 241.212 0 0 1-3.675-.423 474.814 474.814 0 0 1-38.653-6.211 475.303 475.303 0 0 1-56.156-15.034 468.326 468.326 0 0 1-36.329-13.813 156.641 156.641 0 0 1-3.609-1.55 479.913 479.913 0 0 1-96.084-56.134v-.178h-.197a463.694 463.694 0 0 1-30.188-24.656Z"/><path d="M577.51 315.604a193.06 193.06 0 0 1 67.949 66.432l2.382 4.144 2.512 4.359c.024.028.043.06.057.094a193.519 193.519 0 0 1 23.184 91.854c0 32.071-7.968 63.639-23.184 91.853a.253.253 0 0 1-.057.094l-2.512 4.36-2.447 4.257a193.127 193.127 0 0 1-67.856 66.3 191.035 191.035 0 0 1-96.094 25.737v-96.294a95.85 95.85 0 0 1-47.109-12.326 96.096 96.096 0 0 1-35.082-34.016l-2.212-3.843-.103-.189a96.742 96.742 0 0 1-11.587-46.214 96.754 96.754 0 0 1 11.868-46.142l2.025-3.504a96.062 96.062 0 0 1 35.023-33.993 95.787 95.787 0 0 1 47.168-12.359v-96.341a191.032 191.032 0 0 1 96.075 25.737Z"/></g><defs><clipPath id="a"><path fill="#fff" d="M0 0h675v965H0z"/></clipPath></defs></svg>