<svg width="24" height="24" viewBox="0 0 24 24" fill="none" xmlns="http://www.w3.org/2000/svg">
<g clip-path="url(#clip0_3472_6742)">
<path d="M13.6631 2.8526H6.59494C5.90878 2.8526 5.34753 3.4139 5.34753 4.10001V19.8999C5.34753 20.5862 5.90883 21.1473 6.59494 21.1473H17.4052C18.0916 21.1473 18.6527 20.5862 18.6527 19.8999V7.84217L15.7423 5.76316L13.6631 2.8526Z" fill="#0F9C57"/>
<path d="M8.67371 11.7921V17.8213H15.3265V11.7921H8.67371ZM11.5843 16.9895H9.50526V15.9501H11.5843V16.9895ZM11.5843 15.3265H9.50526V14.2867H11.5843V15.3265ZM11.5843 13.6629H9.50526V12.6237H11.5843V13.6629ZM14.4948 16.9895H12.4156V15.9501H14.4948V16.9895ZM14.4948 15.3265H12.4156V14.2867H14.4948V15.3265ZM14.4948 13.6629H12.4156V12.6237H14.4948V13.6629Z" fill="#F0F0F0"/>
<mask id="mask0_3472_6742" style="mask-type:luminance" maskUnits="userSpaceOnUse" x="14" y="7" width="5" height="6">
<path d="M14.0201 7.46899H18.661V12.9061H14.0201V7.46899Z" fill="url(#paint0_linear_3472_6742)"/>
</mask>
<g mask="url(#mask0_3472_6742)">
<path d="M14.028 7.47687L18.6524 12.1006V7.84185L14.028 7.47687Z" fill="url(#paint1_linear_3472_6742)"/>
</g>
<path d="M13.6631 2.8526V6.59482C13.6631 7.284 14.2214 7.84217 14.9104 7.84217H18.6526L13.6631 2.8526Z" fill="#87CDAC"/>
<path d="M6.59482 2.8526C5.90866 2.8526 5.34741 3.4139 5.34741 4.10006V4.20396C5.34741 3.51796 5.90871 2.95655 6.59482 2.95655H13.663V2.85265H6.59482V2.8526Z" fill="white" fill-opacity="0.2"/>
<path d="M17.4051 21.0435H6.59482C5.90866 21.0435 5.34741 20.482 5.34741 19.7961V19.8998C5.34741 20.5861 5.90871 21.1472 6.59482 21.1472H17.4051C18.0915 21.1472 18.6525 20.5861 18.6525 19.8998V19.7961C18.6525 20.4821 18.0914 21.0435 17.4051 21.0435Z" fill="#263138" fill-opacity="0.2"/>
<path d="M14.9104 7.84214C14.2214 7.84214 13.6631 7.28397 13.6631 6.59479V6.69868C13.6631 7.38786 14.2214 7.94604 14.9104 7.94604H18.6526V7.84214H14.9104Z" fill="#263138" fill-opacity="0.102"/>
<mask id="mask1_3472_6742" style="mask-type:luminance" maskUnits="userSpaceOnUse" x="5" y="2" width="14" height="20">
<path d="M5.33936 2.8446H18.661V21.1558H5.33936V2.8446Z" fill="url(#paint2_radial_3472_6742)"/>
</mask>
<g mask="url(#mask1_3472_6742)">
<path d="M13.6631 2.8526H6.59494C5.90878 2.8526 5.34753 3.4139 5.34753 4.10006V19.8999C5.34753 20.5862 5.90883 21.1473 6.59494 21.1473H17.4052C18.0916 21.1473 18.6527 20.5862 18.6527 19.8999V7.84217L13.6631 2.8526Z" fill="url(#paint3_radial_3472_6742)"/>
</g>
</g>
<defs>
<linearGradient id="paint0_linear_3472_6742" x1="16.3406" y1="7.85668" x2="16.3406" y2="12.5184" gradientUnits="userSpaceOnUse">
<stop stop-color="white" stop-opacity="0.02"/>
<stop offset="1" stop-color="white" stop-opacity="0.2"/>
</linearGradient>
<linearGradient id="paint1_linear_3472_6742" x1="16.3402" y1="8.07314" x2="16.3402" y2="12.3012" gradientUnits="userSpaceOnUse">
<stop stop-color="#263138"/>
<stop offset="1" stop-color="#263138"/>
</linearGradient>
<radialGradient id="paint2_radial_3472_6742" cx="0" cy="0" r="1" gradientUnits="userSpaceOnUse" gradientTransform="translate(5.34759 2.85284) scale(0)">
<stop stop-color="white" stop-opacity="0"/>
<stop offset="1" stop-color="white" stop-opacity="0.098"/>
</radialGradient>
<radialGradient id="paint3_radial_3472_6742" cx="0" cy="0" r="1" gradientUnits="userSpaceOnUse" gradientTransform="translate(5.87968 3.40146) scale(9.14737)">
<stop stop-color="white"/>
<stop offset="1" stop-color="white"/>
</radialGradient>
<clipPath id="clip0_3472_6742">
<rect width="13.3052" height="18.2947" fill="white" transform="translate(5.34741 2.8526)"/>
</clipPath>
</defs>
</svg>
