<svg width="118" height="24" viewBox="0 0 118 24" fill="none" xmlns="http://www.w3.org/2000/svg">
<g clip-path="url(#clip0_4513_5427)">
<path d="M14.0585 18.46H12.6738L11.016 16.9213V16.1321L12.7323 14.4749V11.8511L14.9752 10.3714L17.5301 12.3245L14.0585 18.46ZM8.32458 14.3171L8.57819 11.8511L7.73952 9.64146H12.6933L11.8742 11.8511L12.1082 14.3171H10.1969H8.32458ZM9.45581 16.9213L7.79803 18.4798H6.39381L2.90276 12.3245L5.47717 10.3911L7.73952 11.8511V14.4749L9.45581 16.1321V16.9213ZM6.3743 5.08424H14.039L14.9556 9.02986H5.47717L6.3743 5.08424ZM10.2164 0.171875L0.484375 5.85364V17.2172L10.2164 22.8989L19.9484 17.2172V5.85364L10.2164 0.171875Z" fill="black"/>
<path d="M30.8724 16.8022C28.298 16.8022 26.4062 14.7702 26.4062 12.2647C26.4062 9.75922 28.3175 7.66797 30.892 7.66797C32.5302 7.66797 33.5444 8.27954 34.344 9.16735L33.1153 10.5089C32.5107 9.85784 31.867 9.42383 30.8724 9.42383C29.4292 9.42383 28.3761 10.6864 28.3761 12.2252C28.3761 13.8035 29.4487 15.0661 30.97 15.0661C31.9061 15.0661 32.5887 14.6124 33.2128 13.981L34.4025 15.1844C33.5444 16.1117 32.5496 16.8022 30.8724 16.8022Z" fill="black"/>
<path d="M38.1651 16.8029H36.1758V7.68837H38.1651V9.81903C38.7112 8.51695 39.7058 7.60946 41.2271 7.68837V9.81903H41.11C39.3743 9.81903 38.1651 10.9632 38.1651 13.2912V16.8029Z" fill="black"/>
<path d="M51.6235 7.65234L47.2353 19.2526H45.2264L46.1821 16.8063L42.418 7.65234H44.5438L47.0987 14.4192L49.5561 7.65234H51.6235Z" fill="black"/>
<path d="M57.4741 9.40815C56.1283 9.40815 54.9581 10.5129 54.9581 12.2293C54.9581 13.9456 56.1478 15.0505 57.4741 15.0505C58.8393 15.0505 59.9509 13.9654 59.9509 12.2293C59.9509 10.4932 58.8197 9.40815 57.4741 9.40815ZM57.9226 16.7866C56.4989 16.7866 55.6017 16.0566 54.9971 15.2477V19.2526H53.0078V7.65234H54.9971V9.28981C55.6407 8.38228 56.5378 7.65234 57.9226 7.65234C59.9704 7.65234 61.9598 9.28981 61.9598 12.2096C61.9598 15.1294 59.99 16.7866 57.9226 16.7866Z" fill="black"/>
<path d="M66.3081 9.56852V13.8693C66.3081 14.6387 66.6982 14.9544 67.3808 14.9544H68.1609V16.7496H66.7957C65.3524 16.7496 64.3188 16.0986 64.3188 14.185V9.56852H63.2266V7.85217H64.3188V5.44531H66.3081V7.85217H68.1609V9.56852H66.3081Z" fill="black"/>
<path d="M74.4231 9.40403C72.8239 9.40403 71.8097 10.6667 71.8097 12.2055C71.8097 13.764 72.9018 15.0464 74.4426 15.0464C76.0418 15.0464 77.056 13.7837 77.056 12.245C77.095 10.6864 75.9833 9.40403 74.4231 9.40403ZM74.4231 16.8022C71.7902 16.8022 69.8398 14.7702 69.8398 12.2647C69.8398 9.73941 71.8097 7.66797 74.4621 7.66797C77.1146 7.66797 79.0648 9.69996 79.0648 12.2252C79.0648 14.711 77.1146 16.8022 74.4231 16.8022Z" fill="black"/>
<path d="M98.0403 9.40403C96.441 9.40403 95.4269 10.6667 95.4269 12.2055C95.4269 13.764 96.5191 15.0464 98.0592 15.0464C99.6584 15.0464 100.673 13.7837 100.673 12.245C100.692 10.6864 99.6001 9.40403 98.0403 9.40403ZM98.0403 16.8022C95.4072 16.8022 93.457 14.7702 93.457 12.2647C93.457 9.73941 95.4269 7.66797 98.0789 7.66797C100.732 7.66797 102.682 9.69996 102.682 12.2252C102.682 14.711 100.712 16.8022 98.0403 16.8022Z" fill="black"/>
<path d="M114.462 7.65234C116.354 7.65234 117.505 8.85581 117.505 11.0062V16.7866H115.515V11.6178C115.515 10.217 114.872 9.48705 113.76 9.48705C112.687 9.48705 111.907 10.2565 111.907 11.6572V16.8063H109.918V11.6178C109.918 10.2565 109.255 9.48705 108.163 9.48705C107.071 9.48705 106.31 10.3157 106.31 11.6769V16.8063H104.32V7.67207H106.31V9.17139C106.875 8.402 107.617 7.67207 108.943 7.67207C110.191 7.67207 111.049 8.28366 111.517 9.21092C112.239 8.26394 113.156 7.65234 114.462 7.65234Z" fill="black"/>
<path d="M82.7121 14.9473V15.9731L82.6537 16.0717L81.7759 16.565H81.6588L80.8007 16.0717L80.7422 15.9731V14.9473L80.8007 14.8486L81.6588 14.3555H81.7759L82.6537 14.8486L82.7121 14.9473Z" fill="black"/>
<path d="M88.7367 16.7839C86.1628 16.7247 84.3096 14.6533 84.3482 12.1477C84.3877 9.64225 86.3379 7.5905 88.9315 7.64969C90.5702 7.68914 91.5843 8.32044 92.3642 9.22797L91.1159 10.5498C90.5308 9.89874 89.8873 9.42521 88.8929 9.40549C87.4498 9.38576 86.3773 10.609 86.3576 12.1674C86.3181 13.7457 87.3717 15.0281 88.8929 15.0478C89.8289 15.0675 90.5308 14.6335 91.1553 14.0022L92.3256 15.2253C91.4479 16.1526 90.4338 16.8234 88.7367 16.7839Z" fill="black"/>
</g>
<defs>
<clipPath id="clip0_4513_5427">
<rect width="117.52" height="23.0108" fill="white"/>
</clipPath>
</defs>
</svg>
