<svg width="292" height="107" viewBox="0 0 292 107" fill="none" xmlns="http://www.w3.org/2000/svg">
<path d="M89.6342 24.9077C77.374 20.5278 67.8416 33.8012 67.2444 44.2369C68.8638 32.6646 81.2191 27.5968 87.8306 30.1359C89.5198 30.7778 90.8956 32.1357 90.5465 34.2024C90.435 34.8784 90.071 35.5544 89.5912 36.2616C89.5912 36.2616 96.7523 27.4646 89.6342 24.9077Z" fill="url(#paint0_linear_3216_5976)"/>
<path d="M73.6605 80.6021C66.0967 76.656 67.0416 56.1515 67.0386 48.1345C67.039 46.8328 67.1079 45.532 67.2452 44.2375C67.7756 34.977 75.326 23.4998 85.5864 24.0792C84.5168 23.9929 83.4418 23.9964 82.3728 24.0896C79.5588 24.3139 72.1094 25.7789 66.327 31.2552C60.3143 36.9574 58.7112 45.3146 58.7899 54.4355C58.9816 76.4821 69.0607 80.1043 73.4451 81.1949C73.4767 81.2026 73.5091 81.2071 73.5416 81.2082C73.5833 81.2086 73.6246 81.2007 73.6632 81.1849C73.7018 81.1692 73.7368 81.1459 73.7663 81.1164C73.7958 81.087 73.8191 81.0519 73.8348 81.0133C73.8506 80.9748 73.8585 80.9334 73.8581 80.8918C73.8561 80.8297 73.8364 80.7695 73.8014 80.7182C73.7665 80.6669 73.7176 80.6266 73.6605 80.6021Z" fill="url(#paint1_linear_3216_5976)"/>
<path d="M100.856 56.8819C94.6802 51.3149 91.0506 49.6835 90.8248 46.3912C90.6539 43.9531 92.523 42.5506 94.6579 39.3741C98.4332 33.7655 96.1853 27.6933 90.3077 25.1929C96.27 28.044 89.5901 36.26 89.5901 36.26C89.6133 36.2146 89.6412 36.1718 89.6733 36.1323C87.5235 39.1973 82.6028 43.3648 83.5923 47.6035C85.1969 54.5537 95.6786 51.297 102.993 59.1253C102.336 58.3266 101.622 57.5768 100.856 56.8819V56.8819Z" fill="url(#paint2_linear_3216_5976)"/>
<path d="M102.848 58.9812C95.5412 51.3461 85.1917 54.5106 83.6035 47.608C83.544 47.3642 83.5067 47.1156 83.492 46.8651C83.6139 52.8511 87.4901 55.1346 93.6202 59.7538C100.229 64.7354 101.245 80.1795 77.1465 81.2195C76.9979 81.2195 76.8078 81.2477 76.6072 81.2566C76.5284 81.2659 76.4558 81.3038 76.4031 81.3631C76.3503 81.4224 76.3212 81.499 76.3212 81.5783C76.3212 81.6576 76.3503 81.7342 76.4031 81.7935C76.4558 81.8528 76.5284 81.8907 76.6072 81.9C82.9349 83.4614 95.6244 84.2311 102.491 77.7563C107.488 73.0168 108.045 65.2658 102.848 58.9812Z" fill="url(#paint3_radial_3216_5976)"/>
<path d="M122.75 42.7619C122.744 42.438 122.804 42.1163 122.925 41.8158C123.046 41.5153 123.226 41.2423 123.455 41.0129C123.684 40.7835 123.956 40.6024 124.256 40.4805C124.556 40.3585 124.878 40.2982 125.202 40.303H135.174C138.344 40.303 140.836 41.1692 142.418 42.7544C143.644 43.9861 144.277 45.4897 144.277 47.3498V47.4285C144.277 50.7476 142.377 52.529 140.317 53.5987C143.565 54.7071 145.815 56.5702 145.815 60.3276V60.4152C145.815 65.3582 141.745 68.0058 135.563 68.0028H125.202C124.879 68.0086 124.558 67.9495 124.258 67.8288C123.958 67.7082 123.685 67.5286 123.456 67.3007C123.227 67.0727 123.046 66.8011 122.924 66.5018C122.802 66.2026 122.742 65.8819 122.746 65.5588L122.75 42.7619ZM134.181 51.9734C137.312 51.9734 139.405 50.7521 139.407 48.2145V48.1387C139.407 45.9621 137.658 44.6101 134.539 44.6146H127.536V51.9719L134.181 51.9734ZM135.602 63.6838C138.928 63.6838 140.95 62.3809 140.95 59.8863V59.8106C140.95 57.472 139.087 56.0962 135.256 56.0962H127.54V63.6927L135.602 63.6838Z" fill="#0B0B0B"/>
<path d="M148.589 42.522C148.589 41.1492 149.736 40.2711 151.214 40.2711C152.693 40.2711 153.844 41.1492 153.844 42.5131V42.7508C153.844 44.1087 152.699 45.0254 151.214 45.0254C149.73 45.0254 148.586 44.1162 148.588 42.7448L148.589 42.522ZM148.935 50.0175C148.932 49.715 148.988 49.4149 149.101 49.1342C149.213 48.8536 149.381 48.5981 149.593 48.3824C149.804 48.1667 150.057 47.995 150.336 47.8774C150.614 47.7597 150.913 47.6983 151.216 47.6968C151.831 47.6995 152.42 47.9448 152.855 48.3793C153.29 48.8139 153.536 49.4025 153.54 50.0175V65.9147C153.54 66.5255 153.297 67.1112 152.865 67.5431C152.433 67.975 151.847 68.2176 151.237 68.2176C150.626 68.2176 150.04 67.975 149.608 67.5431C149.176 67.1112 148.934 66.5255 148.934 65.9147L148.935 50.0175Z" fill="#0B0B0B"/>
<path d="M156.615 66.1412V66.0624C156.615 65.1844 156.921 64.6153 157.645 63.8606L168.342 51.6776H158.833C158.344 51.6639 157.878 51.4596 157.537 51.1082C157.195 50.7568 157.004 50.2861 157.004 49.796C157.004 49.3059 157.195 48.8351 157.537 48.4837C157.878 48.1324 158.344 47.9281 158.833 47.9143H172.116C173.368 47.9143 174.319 48.6735 174.319 49.7388V49.8487C174.319 50.7283 174.013 51.3018 173.327 52.0624L162.597 64.232H172.49C172.741 64.2296 172.989 64.2772 173.222 64.372C173.454 64.4668 173.664 64.6069 173.842 64.7841C174.019 64.9612 174.159 65.172 174.254 65.404C174.349 65.636 174.397 65.8846 174.395 66.1352C174.394 66.3836 174.343 66.6293 174.246 66.8579C174.149 67.0865 174.007 67.2934 173.829 67.4665C173.65 67.6396 173.439 67.7754 173.208 67.866C172.977 67.9565 172.73 68 172.481 67.9939H158.863C157.566 67.9939 156.617 67.2391 156.615 66.1412Z" fill="#0B0B0B"/>
<path d="M177.053 50.0063C177.05 49.7039 177.107 49.4039 177.22 49.1235C177.333 48.8431 177.501 48.5879 177.713 48.3724C177.925 48.1569 178.178 47.9854 178.456 47.8678C178.735 47.7502 179.034 47.6888 179.336 47.687C179.952 47.6906 180.542 47.9372 180.977 48.3732C181.412 48.8092 181.657 49.3993 181.659 50.0152V51.0403C182.948 49.1356 184.814 47.5058 187.937 47.5028C192.463 47.5028 195.088 50.5426 195.088 55.2286V65.9258C195.088 66.5365 194.845 67.1223 194.414 67.5542C193.982 67.986 193.396 68.2286 192.785 68.2286C192.174 68.2286 191.589 67.986 191.157 67.5542C190.725 67.1223 190.482 66.5365 190.482 65.9258V56.5895C190.482 53.4695 188.918 51.6866 186.174 51.6866C183.513 51.6866 181.651 53.5482 181.651 56.6682L181.659 65.9124C181.659 66.5232 181.416 67.1089 180.984 67.5408C180.552 67.9727 179.966 68.2153 179.356 68.2153C178.745 68.2153 178.159 67.9727 177.727 67.5408C177.295 67.1089 177.053 66.5232 177.053 65.9124V50.0063Z" fill="#0B0B0B"/>
<path d="M197.63 58.0396V57.9712C197.63 52.217 201.7 47.4984 207.436 47.5028C213.825 47.5028 216.984 52.7548 216.984 57.3962C216.991 57.685 216.939 57.9722 216.833 58.2408C216.727 58.5094 216.568 58.7539 216.365 58.9597C216.162 59.1655 215.92 59.3285 215.654 59.439C215.387 59.5494 215.1 59.605 214.811 59.6025H202.229C202.725 62.8711 205.052 64.703 208.016 64.703C209.763 64.7316 211.459 64.107 212.77 62.9514C213.104 62.6829 213.519 62.5352 213.948 62.5324C214.321 62.5375 214.683 62.6547 214.989 62.8688C215.294 63.0828 215.527 63.3838 215.659 63.7326C215.791 64.0813 215.814 64.4616 215.727 64.8239C215.639 65.1862 215.444 65.5137 215.168 65.7638C213.346 67.3981 211.06 68.4619 207.938 68.4634C202.116 68.4589 197.628 64.2365 197.63 58.0396ZM212.506 56.5538C212.198 53.5824 210.443 51.2632 207.41 51.2647C204.587 51.2647 202.611 53.4279 202.195 56.5479L212.506 56.5538Z" fill="#0B0B0B"/>
<path d="M220.76 62.4497V51.8773H220.005C219.489 51.8632 218.999 51.6482 218.639 51.2782C218.279 50.9082 218.077 50.4123 218.077 49.8961C218.077 49.3798 218.279 48.884 218.639 48.5139C218.999 48.1439 219.489 47.929 220.005 47.9149H220.766V44.4918C220.787 43.8953 221.039 43.3305 221.468 42.9161C221.898 42.5017 222.472 42.2701 223.068 42.2701C223.665 42.2701 224.239 42.5017 224.668 42.9161C225.098 43.3305 225.35 43.8953 225.371 44.4918V47.9089H228.985C229.509 47.9089 230.012 48.1173 230.383 48.4881C230.754 48.859 230.962 49.362 230.962 49.8864C230.962 50.4109 230.754 50.9139 230.383 51.2847C230.012 51.6556 229.509 51.8639 228.985 51.8639H225.376V61.7217C225.376 63.5046 226.288 64.2281 227.846 64.2281C228.229 64.2103 228.61 64.1731 228.989 64.1167C229.496 64.1166 229.982 64.3156 230.343 64.6708C230.705 65.026 230.912 65.5089 230.92 66.0154C230.914 66.3999 230.795 66.774 230.579 67.092C230.363 67.41 230.059 67.6581 229.704 67.8057C228.689 68.1663 227.619 68.3458 226.542 68.3361C223.156 68.3436 220.763 66.8653 220.76 62.4497Z" fill="#0B0B0B"/>
<path d="M228.904 42.0588V42.0454C228.932 41.4935 229.17 40.9732 229.57 40.5917C229.969 40.2103 230.5 39.9968 231.053 39.9952C231.605 39.9937 232.138 40.2043 232.539 40.5835C232.941 40.9628 233.182 41.4818 233.213 42.0335V42.0424C233.194 42.6001 232.96 43.1289 232.56 43.5176C232.16 43.9063 231.624 44.1247 231.066 44.1268C230.508 44.1289 229.971 43.9146 229.568 43.5289C229.165 43.1433 228.927 42.6163 228.904 42.0588V42.0588ZM232.889 42.0424V42.0306C232.888 41.7904 232.84 41.5527 232.747 41.3311C232.655 41.1095 232.519 40.9083 232.349 40.7391C232.179 40.5698 231.977 40.4357 231.754 40.3445C231.532 40.2533 231.294 40.2068 231.054 40.2076C230.814 40.2084 230.576 40.2564 230.355 40.3491C230.133 40.4417 229.932 40.5771 229.763 40.7475C229.593 40.9178 229.459 41.1199 229.368 41.3421C229.277 41.5643 229.23 41.8023 229.231 42.0424V42.0528C229.232 42.5375 229.426 43.0018 229.77 43.3435C229.94 43.5127 230.142 43.6468 230.364 43.738C230.586 43.8292 230.824 43.8758 231.064 43.8751C231.304 43.8744 231.541 43.8265 231.763 43.734C231.984 43.6415 232.185 43.5063 232.354 43.3362C232.524 43.166 232.658 42.9642 232.749 42.7422C232.84 42.5202 232.887 42.2824 232.886 42.0424H232.889Z" fill="#0B0B0B"/>
<path d="M230.193 41.0667C230.194 41.0083 230.218 40.9526 230.258 40.9109C230.299 40.8692 230.355 40.8447 230.413 40.8424H231.202C231.327 40.8355 231.452 40.8534 231.57 40.8953C231.688 40.9371 231.797 41.0019 231.89 41.0861C231.95 41.1482 231.997 41.222 232.028 41.303C232.059 41.384 232.073 41.4704 232.07 41.557V41.5689C232.074 41.7225 232.027 41.8731 231.935 41.9962C231.843 42.1193 231.712 42.2075 231.563 42.2464L232 42.7753C232.039 42.8151 232.06 42.8683 232.061 42.9239C232.06 42.9779 232.039 43.0297 232.001 43.0685C231.964 43.1073 231.913 43.13 231.859 43.1319C231.822 43.1342 231.785 43.1265 231.752 43.1095C231.719 43.0925 231.691 43.0668 231.671 43.0353L231.107 42.3133C231.107 42.3133 231.093 42.3133 231.086 42.3133H230.625V42.9179C230.621 42.9722 230.596 43.0228 230.556 43.0596C230.516 43.0965 230.464 43.1169 230.409 43.1169C230.355 43.1169 230.302 43.0965 230.262 43.0596C230.222 43.0228 230.198 42.9722 230.193 42.9179V41.0667ZM231.186 41.9582C231.463 41.9582 231.631 41.8215 231.631 41.6061V41.5971C231.631 41.3654 231.462 41.2406 231.186 41.2391H230.628V41.9597L231.186 41.9582Z" fill="#0B0B0B"/>
<defs>
<linearGradient id="paint0_linear_3216_5976" x1="67.2039" y1="33.7191" x2="92.7732" y2="33.7191" gradientUnits="userSpaceOnUse">
<stop offset="0.09" stop-color="#0BADE4"/>
<stop offset="0.25" stop-color="#0EA1DB"/>
<stop offset="0.54" stop-color="#1782C4"/>
<stop offset="0.93" stop-color="#25519E"/>
<stop offset="1" stop-color="#284696"/>
</linearGradient>
<linearGradient id="paint1_linear_3216_5976" x1="86.5246" y1="74.7962" x2="65.5295" y2="29.7714" gradientUnits="userSpaceOnUse">
<stop stop-color="#76CBEC"/>
<stop offset="0.07" stop-color="#72CAEC"/>
<stop offset="0.14" stop-color="#65C6EB"/>
<stop offset="0.22" stop-color="#4FC0E9"/>
<stop offset="0.3" stop-color="#31B8E7"/>
<stop offset="0.38" stop-color="#0BADE4"/>
<stop offset="0.49" stop-color="#0CA9E1"/>
<stop offset="0.62" stop-color="#109CD7"/>
<stop offset="0.75" stop-color="#1686C6"/>
<stop offset="0.88" stop-color="#1E68B0"/>
<stop offset="1" stop-color="#284696"/>
</linearGradient>
<linearGradient id="paint2_linear_3216_5976" x1="93.2142" y1="24.2424" x2="93.2142" y2="61.0493" gradientUnits="userSpaceOnUse">
<stop stop-color="#0BADE4"/>
<stop offset="0.14" stop-color="#0CA1DB"/>
<stop offset="0.39" stop-color="#1082C4"/>
<stop offset="0.71" stop-color="#1553A0"/>
<stop offset="0.91" stop-color="#214B9A"/>
<stop offset="1" stop-color="#284696"/>
</linearGradient>
<radialGradient id="paint3_radial_3216_5976" cx="0" cy="0" r="1" gradientUnits="userSpaceOnUse" gradientTransform="translate(78.3308 84.2899) scale(35.3516 44.2172)">
<stop stop-color="#76CBEC"/>
<stop offset="0.07" stop-color="#66C6EB"/>
<stop offset="0.22" stop-color="#3CBBE8"/>
<stop offset="0.37" stop-color="#0BADE4"/>
<stop offset="0.54" stop-color="#0A9DD8"/>
<stop offset="0.88" stop-color="#0873B8"/>
<stop offset="0.93" stop-color="#086CB3"/>
<stop offset="1" stop-color="#086CB3"/>
</radialGradient>
</defs>
</svg>
