<svg xmlns="http://www.w3.org/2000/svg" width="217" height="108" fill="none"><g fill="#000" clip-path="url(#a)"><path d="M94.479 39.242a17.53 17.53 0 0 1 2.13.056c5.358.522 10.311 3.973 11.471 10.16.544 2.895.388 5.753-.741 8.495-1.433 3.479-4.016 5.776-7.57 6.922-4.191 1.352-8.246.962-12.025-1.356-2.976-1.825-4.753-4.543-5.435-7.95-.576-2.877-.411-5.72.647-8.482a11.744 11.744 0 0 1 1.854-3.196c.073-.091.135-.195.186-.3 1.786-3.639 3.57-7.277 5.35-10.918.08-.163.161-.236.357-.235 2.266.009 4.533.006 6.8.006.274 0 .275 0 .153.251l-3.054 6.277c-.04.081-.075.164-.123.27Zm.717 6.92c-.29.009-.603.013-.914.064-2.039.338-3.562 1.383-4.453 3.274-.592 1.257-.714 2.592-.543 3.954.203 1.614.88 2.985 2.196 3.986 1.374 1.046 2.942 1.415 4.632 1.159 2.03-.307 3.552-1.362 4.433-3.252.541-1.159.657-2.388.56-3.652-.251-3.228-2.662-5.502-5.911-5.534ZM135.02 64.766c-.006 2.493-.49 4.87-1.76 7.041-1.733 2.962-4.319 4.837-7.602 5.712-3.914 1.042-7.692.646-11.209-1.432-3.088-1.825-4.968-4.56-5.698-8.056-.624-2.986-.481-5.95.681-8.796 1.519-3.723 4.304-6.1 8.129-7.204 4.218-1.218 8.256-.717 11.959 1.706 2.853 1.867 4.514 4.572 5.199 7.894.214 1.033.296 2.081.3 3.135h.001Zm-13.234 6.277c.216.008.495-.011.772-.053 1.957-.29 3.481-1.231 4.427-3 .721-1.35.865-2.803.674-4.299-.175-1.376-.69-2.604-1.697-3.58-1.363-1.32-3.018-1.846-4.889-1.652-1.937.202-3.469 1.108-4.481 2.797-.82 1.37-1.01 2.878-.831 4.44.367 3.191 2.776 5.346 6.025 5.347ZM118.008 49.074c-2.357-.045-4.587-.743-6.462-2.39-1.702-1.494-2.614-3.411-2.905-5.633-.239-1.83-.103-3.63.574-5.357 1.05-2.677 2.995-4.436 5.725-5.26 3.08-.928 6.047-.614 8.769 1.177 2.127 1.4 3.339 3.428 3.768 5.917.353 2.045.231 4.066-.576 5.997-1.151 2.751-3.259 4.411-6.095 5.197-.88.243-1.781.34-2.798.352Zm4.404-9.555a5.307 5.307 0 0 0-.126-1.213c-.402-1.683-1.423-2.804-3.111-3.204-1.686-.399-3.192.01-4.353 1.342-.94 1.076-1.162 2.384-.996 3.766.195 1.624 1.002 2.84 2.535 3.466 1.568.641 3.085.474 4.444-.558 1.177-.895 1.595-2.166 1.607-3.6Z"/></g><defs><clipPath id="a"><path fill="#fff" d="M81.981 29.925h53.038v48.15H81.981z"/></clipPath></defs></svg>