<svg width="217" height="108" fill="none" xmlns="http://www.w3.org/2000/svg"><path d="M134.822 49.07c-.295.471-.592.94-.882 1.412-.398.649-.789 1.301-1.185 1.952-.622 1.024-1.246 2.047-1.867 3.072-.377.623-.75 1.248-1.126 1.873-.271.45-.546.897-.818 1.347-.191.316-.377.635-.57.95-.545.883-1.05 1.795-1.654 2.636-.444.617-.891 1.218-1.605 1.65-1.181.715-2.393.843-3.638.487-.804-.23-1.595-.633-2.078-1.416-.276-.448-.57-.885-.858-1.325-.25-.382-.518-.753-.752-1.144-.204-.341-.356-.715-.561-1.055-.39-.648-.807-1.279-1.201-1.924-.239-.392-.443-.806-.685-1.197-.236-.384-.518-.741-.747-1.129-.222-.374-.379-.785-.605-1.156-.158-.259-.396-.466-.574-.714a8.993 8.993 0 0 1-.488-.78c-.186-.323-.348-.66-.54-.98-.259-.43-.545-.843-.801-1.274-.225-.378-.411-.779-.64-1.154-.202-.332-.445-.638-.657-.964-.084-.132-.116-.298-.2-.43-.225-.348-.47-.684-.697-1.032-.099-.151-.167-.323-.261-.477-.446-.728-.895-1.453-1.343-2.178-.56-.907-1.125-1.81-1.678-2.72-.353-.584-.677-1.184-1.03-1.767-.194-.32-.424-.619-.635-.929-.049-.071-.084-.15-.129-.223-.244-.397-.492-.79-.731-1.19-.239-.4-.483-.798-.697-1.21-.211-.405-.381-.83-.582-1.238-.305-.616-.304-1.278-.222-1.924.064-.512.193-1.042.421-1.502.357-.72.853-1.344 1.581-1.77.62-.365 1.248-.637 1.971-.71.89-.088 1.746.05 2.511.478.444.248.904.522 1.205.995.329.518.734.986 1.099 1.48.069.094.1.215.161.315.234.384.472.765.709 1.146.017.027.04.05.057.078.336.565.678 1.127 1.006 1.697.204.355.334.767.593 1.073.376.444.611.95.883 1.45.416.761.915 1.477 1.372 2.216.281.456.543.925.824 1.381 1.099 1.787 2.199 3.574 3.305 5.356.785 1.266 1.58 2.526 2.37 3.788.17.272.344.543.507.82.09.151.186.178.285.027.215-.328.417-.664.626-.995.253-.402.511-.801.759-1.206.229-.374.44-.76.674-1.13.366-.58.751-1.146 1.115-1.726.185-.295.336-.61.51-.912.325-.562.648-1.126.987-1.68.536-.874 1.088-1.739 1.626-2.612.22-.355.411-.728.633-1.082.375-.6.773-1.185 1.142-1.788.26-.425.474-.879.732-1.306.534-.882 1.086-1.752 1.624-2.63.507-.827 1-1.662 1.51-2.486.378-.612.729-1.25 1.173-1.81.462-.584 1.1-.95 1.819-1.198 1.329-.458 2.603-.301 3.794.355.742.409 1.289 1.057 1.689 1.837.367.719.466 1.464.468 2.246.01 3.859.026 7.717.037 11.576.015 5.184.023 10.369.043 15.553.004 1.007-.31 1.873-.916 2.682-1.203 1.607-3.142 2.069-4.976 1.53a4.033 4.033 0 0 1-1.865-1.203c-.834-.935-1.13-2.046-1.134-3.284-.011-3.524-.059-7.048-.093-10.571-.002-.102-.013-.205-.018-.307l-.08-.017-.002-.002ZM109.938 66.432c-.521.03-1.245-.157-1.881-.536-.638-.38-1.264-.806-1.624-1.518-.243-.48-.545-.934-.836-1.39-.227-.355-.497-.685-.715-1.046-.219-.362-.384-.757-.6-1.12-.195-.33-.429-.636-.646-.951-.048-.07-.103-.137-.146-.21-.342-.576-.688-1.15-1.019-1.732-.358-.631-.687-1.279-1.055-1.904-.243-.413-.534-.799-.797-1.2-.379-.578-.755-1.157-1.125-1.741-.084-.133-.118-.297-.202-.429-.213-.327-.446-.641-.66-.967-.075-.115-.104-.26-.177-.377-.218-.35-.452-.691-.672-1.042-.084-.132-.138-.282-.216-.418-.322-.563-.642-1.127-.976-1.683-.262-.437-.553-.856-.815-1.292-.197-.328-.358-.68-.556-1.007-.173-.285-.375-.551-.565-.825-.205-.294-.403-.593-.624-.875-.08-.1-.159-.401-.358-.062a227.28 227.28 0 0 1-1.803 3.001c-.586.961-1.19 1.912-1.773 2.876-.387.64-.735 1.301-1.123 1.94-.51.838-1.053 1.658-1.566 2.496-.664 1.084-1.308 2.18-1.97 3.266-.681 1.12-1.378 2.23-2.063 3.346-.22.357-.418.727-.638 1.083-.372.606-.75 1.208-1.131 1.809-.187.295-.387.58-.576.873-.337.523-.844.847-1.372 1.13-1.034.555-2.143.642-3.258.347-.89-.236-1.607-.759-2.25-1.448-.82-.88-1.048-1.93-1.056-3.038-.006-.92.316-1.779.842-2.558.448-.665.848-1.363 1.265-2.049.62-1.02 1.229-2.048 1.857-3.065.345-.558.74-1.086 1.078-1.648.57-.95 1.101-1.923 1.673-2.871.478-.794.998-1.563 1.485-2.352.373-.602.712-1.224 1.085-1.826.508-.822 1.04-1.629 1.548-2.452.26-.423.472-.877.735-1.3.358-.575.754-1.129 1.113-1.704.235-.377.426-.782.653-1.164.22-.373.467-.731.694-1.1.18-.291.338-.595.522-.882.288-.45.603-.884.88-1.34.232-.38.424-.783.639-1.174.072-.131.156-.256.237-.381.327-.511.61-1.06.998-1.52.322-.383.773-.655 1.155-.99.626-.549 1.433-.542 2.179-.67.37-.064.777.142 1.172.168.6.04 1.073.372 1.565.644.272.15.481.427.688.673.275.327.53.674.775 1.026.19.274.346.572.521.858.288.468.58.932.869 1.4.459.748.915 1.499 1.374 2.246.553.901 1.115 1.798 1.663 2.703.517.85 1.014 1.714 1.53 2.566.567.935 1.147 1.862 1.716 2.796.789 1.295 1.569 2.595 2.36 3.889.663 1.086 1.343 2.162 2.002 3.25.428.706.824 1.431 1.252 2.137.453.75.927 1.486 1.39 2.23.48.772.997 1.523 1.427 2.322.858 1.595.819 3.212-.103 4.764-.331.557-.831.98-1.412 1.332-.736.447-1.506.65-2.584.686h.001ZM106.102 77.652l.526-1.954c.09-.33.172-.663.279-.988.021-.066.137-.137.213-.14.343-.02.69-.031 1.033-.011.077.004.21.144.21.222.012 1.466.012 2.931-.001 4.397-.001.078-.135.222-.205.22-.77-.011-.655.153-.666-.619-.015-1-.004-2-.004-3.035-.312 1.165-.62 2.288-.909 3.416-.051.198-.134.25-.328.25-.713.003-.718-.003-.886-.708-.197-.824-.409-1.644-.617-2.465a.271.271 0 0 0-.154-.189v.546c-.001.83-.011 1.659 0 2.487.004.258-.093.352-.337.33a2.064 2.064 0 0 0-.291 0c-.176.009-.251-.059-.251-.245.006-1.455.001-2.91.017-4.363 0-.083.148-.225.237-.234.299-.03.603-.002.904-.019.212-.01.303.066.352.276.166.71.347 1.417.538 2.121.065.242.176.471.267.706h.073ZM92.272 76.853c.205 0 .412.021.613-.005.323-.042.452.068.435.4-.023.451.005.906-.028 1.356a.536.536 0 0 1-.239.367c-.751.42-1.556.632-2.416.444-.951-.207-1.52-.68-1.72-1.63a3.775 3.775 0 0 1 .14-2.06c.212-.607.723-.947 1.292-1.114.915-.268 1.814-.239 2.537.524.08.084.145.185.202.287.222.404.18.48-.26.51-.128.009-.258.055-.382.043-.087-.009-.206-.066-.244-.138-.236-.447-.645-.608-1.094-.57-.493.041-.954.24-1.144.76a2.698 2.698 0 0 0 .021 1.96c.268.67 1.05.82 1.808.6.334-.098.522-.278.573-.637.035-.244-.061-.315-.266-.323-.215-.008-.431-.02-.645-.005-.18.012-.231-.057-.215-.222.011-.117-.017-.245.02-.352.028-.08.129-.183.204-.19.267-.023.537-.008.806-.008v.004l.002-.001ZM127.455 76.829c.259 0 .518.008.775-.003.183-.007.282.037.279.244-.008.528.011 1.056-.011 1.582a.462.462 0 0 1-.204.325c-.826.461-1.71.621-2.642.422-.794-.17-1.46-.91-1.567-1.72-.108-.814-.085-1.602.388-2.326.3-.458.759-.7 1.241-.769a4.713 4.713 0 0 1 1.688.066c.445.103.834.425.985.926.065.217.063.357-.22.354-.149-.001-.3.052-.448.043-.089-.005-.21-.059-.256-.13-.289-.447-.717-.63-1.213-.573-.555.064-1.017.354-1.163.922-.18.701-.187 1.4.26 2.042.264.38.649.447 1.04.437.314-.008.63-.11.935-.202.209-.064.369-.573.254-.76-.03-.049-.123-.08-.188-.082a9.676 9.676 0 0 0-.775-.004c-.171.007-.23-.05-.215-.223.063-.68-.095-.553.573-.557h.485v-.015l-.001.001ZM109.229 76.986c.014-.547.032-1.084.381-1.562.401-.55.928-.841 1.585-.923.729-.092 1.396.072 1.964.54.534.44.715 1.061.764 1.716.058.763-.081 1.49-.63 2.064-.384.4-.881.59-1.436.65-.756.082-1.442-.091-2.007-.593-.417-.37-.591-.884-.62-1.44-.008-.15-.002-.302-.002-.453h.001Zm.955-.035c0 .172.003.345 0 .517-.008.437.248.818.546.998.875.529 2.06.208 2.159-.988a4.593 4.593 0 0 0-.07-1.314c-.11-.524-.537-.794-1.033-.902-.473-.104-.868.09-1.22.414-.388.357-.391.811-.381 1.276h-.001ZM121.067 74.53c.485-.018.991.057 1.395.394.248.208.491.467.629.755.388.81.427 1.653.072 2.5-.385.917-1.345 1.42-2.468 1.282-1.22-.149-1.874-.787-2.004-2.008-.068-.633-.079-1.277.258-1.855.465-.796 1.188-1.111 2.118-1.068Zm-1.442 2.407c-.001.568.051 1.028.459 1.414.392.37 1.317.464 1.729.122.772-.64.773-2.275.087-2.882-.535-.473-1.449-.393-1.921.154-.331.384-.341.81-.355 1.192h.001ZM100.916 79.586c-.439-.147-.904-.242-1.309-.455-.393-.207-.56-.631-.626-1.068-.007-.052.115-.158.194-.182.162-.047.336-.071.505-.073.068 0 .169.07.198.134.257.553.602.774 1.21.751.448-.017.813-.278.849-.608.028-.26-.31-.598-.706-.696-.406-.1-.818-.179-1.22-.292-.564-.16-.894-.683-.879-1.354.012-.523.426-1.05.947-1.16.575-.124 1.152-.143 1.725.034.469.144.838.59.877 1.082.003.042.012.119.005.12-.222.046-.445.104-.67.114-.1.005-.26-.064-.297-.143-.262-.58-1.059-.75-1.527-.31-.204.192-.207.417.029.564.206.13.439.223.67.303.385.132.788.218 1.166.367.628.248 1.07 1.154.683 1.894-.388.745-1.056.87-1.791.882l-.033.096ZM98.142 76.404c-.033.623-.047 1.248-.104 1.868-.057.627-.468 1.019-1.044 1.116-.519.088-1.074.07-1.598-.006-.592-.085-1.033-.618-1.056-1.22-.038-.99-.032-1.98-.044-2.97v-.033c.005-.185-.033-.512.025-.53.236-.073.503-.067.757-.054.049.003.126.166.128.256.017.958.03 1.917.024 2.876-.003.414.117.734.519.9.435.18.882.123 1.22-.153.164-.133.195-.49.201-.747.022-.925.019-1.852.002-2.778-.005-.283.05-.396.363-.386.658.02.56-.062.572.567.007.43.001.862.001 1.293l.034.001ZM87.746 79.409c-.299.09-.435-.07-.556-.405-.27-.745-.298-.736-1.098-.728-.247.002-.498.037-.74.006-.313-.04-.422.124-.497.376-.064.215-.136.43-.226.635-.025.058-.12.11-.189.121-.115.018-.235-.001-.354-.003-.543-.01-.53-.01-.332-.499.31-.761.59-1.534.89-2.3.25-.645.506-1.287.77-1.926a.261.261 0 0 1 .185-.132 4.96 4.96 0 0 1 .74.013c.073.007.167.096.196.17.29.726.561 1.46.85 2.187.26.656.547 1.3.798 1.96.198.519.182.525-.438.524v.001ZM85.9 77.61v.005c.172 0 .346.016.516-.006.09-.012.241-.084.245-.137.008-.118-.054-.243-.098-.361-.028-.075-.088-.138-.111-.214-.068-.225-.1-.466-.193-.68-.067-.153-.209-.274-.318-.41-.091.12-.213.228-.268.363-.16.392-.3.792-.434 1.194-.045.135-.021.258.177.248.161-.01.323-.002.485-.002h-.001ZM130.751 78.315c0-.021-.004-.044 0-.065.191-.765-.315-1.306-.64-1.89-.306-.55-.688-1.055-1.03-1.584-.068-.105-.109-.233.106-.218.054.004.109.01.161 0 .596-.127.908.154 1.132.688.158.377.433.706.667 1.048.021.031.166.032.182.004.301-.498.584-1.008.889-1.504.06-.1.185-.205.293-.22.232-.036.472-.013.709-.016.184-.002.235.055.127.227-.454.722-.858 1.483-1.371 2.16-.311.412-.289.823-.3 1.263-.004.183 0 .366-.002.55-.004.724-.008.731-.734.648-.067-.008-.17-.119-.174-.187-.02-.3-.009-.602-.009-.903h-.006ZM114.727 76.95c0-.688.007-1.376-.004-2.065-.004-.214.078-.288.277-.278.787.042.682-.159.686.672.006 1.01.011 2.022-.002 3.034-.002.242.076.322.311.318.613-.01 1.227.004 1.84-.007.214-.003.301.046.29.286-.022.497-.007.499-.499.498-.839 0-1.679-.008-2.518.003-.269.004-.388-.075-.382-.363.014-.699.004-1.398.004-2.097h-.003Z" fill="#000"/></svg>