<svg width="217" height="108" fill="none" xmlns="http://www.w3.org/2000/svg"><g clip-path="url(#a)" fill="#010101"><path d="M92.574 41.956c-.65 1.855-1.268 3.624-1.889 5.391l-6.237 17.82c-.243.692-.298.737-1.019.739-2.228.003-4.456.003-6.686 0-.835 0-.951-.179-.646-.965l14.776-38.162c.35-.904.703-1.807 1.051-2.711.127-.33.243-.655.693-.64.42.014.518.335.634.634 1.357 3.497 2.709 6.993 4.067 10.488 3.917 10.084 7.838 20.166 11.758 30.249.04.1.079.2.116.301.192.551.048.797-.52.8-2.337.011-4.673-.003-7.01.011-.531.004-.69-.317-.835-.731-1.21-3.436-2.426-6.868-3.642-10.302a32545.69 32545.69 0 0 0-4.343-12.25c-.07-.2-.157-.394-.27-.676l.002.004ZM124.026 65.521c.121-.305.213-.513.289-.726l5.082-14.183c.141-.393.43-.59.868-.591H137.745c-.075.246-.12.445-.193.632a63403.484 63403.484 0 0 1-12.839 33.16c-.053.14-.071.313-.164.417-.134.15-.323.349-.484.345-.195-.003-.409-.172-.573-.317-.102-.09-.127-.269-.18-.409l-15.698-40.86c-.255-.663-.121-.883.575-.886 2.251-.009 4.502-.007 6.751 0 .689.002.694.017.947.726 2.634 7.344 5.266 14.69 7.898 22.034l.237.658h.004ZM131.585 31.627c1.083 0 2.122-.05 3.155.01 1.882.111 2.718.986 2.8 2.873.038.886.014 1.773.015 2.66 0 1.104.011 2.206-.005 3.31-.007.429-.045.862-.116 1.287-.199 1.195-.866 1.918-2.067 2.08-.916.123-1.852.103-2.779.137-.322.012-.646.002-1.005.002V31.627h.002Zm2.58 9.724c.63-.009.788-.121.791-.676.014-1.925.014-3.85 0-5.773-.003-.55-.168-.66-.791-.652v7.1ZM158.343 37.787c0 1.038.026 2.077-.012 3.115a5.795 5.795 0 0 1-.256 1.457c-.278.924-.92 1.487-1.872 1.686-.691.144-1.381.13-2.046-.099-.663-.228-1.185-.67-1.4-1.346-.187-.59-.352-1.215-.367-1.828-.045-1.989-.026-3.98-.011-5.97.004-.408.063-.822.155-1.22.331-1.449 1.419-2.229 2.962-2.149 1.768.092 2.743 1.09 2.826 2.979.049 1.122.009 2.249.009 3.373h.01l.002.002Zm-3.378.034c0 .995-.007 1.988.001 2.982.006.57.118.752.421.725.465-.044.362-.425.364-.699.012-2.03.011-4.063 0-6.093 0-.286.071-.652-.371-.706-.28-.032-.41.196-.415.744-.009 1.015-.002 2.03-.002 3.046l.002.001ZM143.224 31.584h3.109c.126 0 .253.02.412.036l1.417 12.33h-2.571l-.144-1.897h-.935l-.123 1.89h-2.584l1.419-12.36Zm2.052 7.792c-.084-1.41-.165-2.812-.246-4.216h-.054c-.101 1.41-.201 2.823-.303 4.275.18 0 .284.005.386-.002.059-.004.118-.03.217-.057ZM104.827 77.031h-2.334c0-.522.005-1.03 0-1.538-.009-.595-.111-.792-.393-.735-.425.085-.326.464-.328.735-.015 1.729-.008 3.456-.007 5.185 0 .087 0 .175.016.258.043.201.019.458.338.458.348 0 .351-.267.364-.5.019-.365.01-.734.013-1.101v-.65h2.343c-.061.89-.035 1.76-.192 2.594-.349 1.838-1.833 2.155-3.19 1.911-1.158-.208-1.882-1.04-1.922-2.351-.062-2.136-.088-4.28.004-6.414.087-2.033 2.088-3.09 3.917-2.171.77.386 1.127 1.069 1.231 1.866.1.786.097 1.585.142 2.451l-.002.002ZM64.296 83.548h-2.27l-.152-1.707h-.806c-.045.551-.09 1.104-.14 1.698h-2.28c.419-3.652.838-7.293 1.26-10.954h3.125l1.263 10.96v.003Zm-2.549-4.022-.19-2.74c-.058 0-.115 0-.172.003l-.182 2.737h.544ZM91.4 83.563h-2.275c-.052-.57-.104-1.14-.156-1.727h-.816l-.104 1.7h-2.3l1.257-10.942h3.129c.42 3.633.838 7.272 1.265 10.97Zm-3.091-4.018c.22-.014.358-.024.54-.034l-.261-3.724h-.05l-.231 3.756.002.002ZM72.378 72.512c1.134.054 2.215.052 3.284.172 1.166.13 1.809.748 1.914 1.923.1 1.11.1 2.242.007 3.353-.1 1.19-.774 1.797-1.947 1.987-.317.052-.636.092-.998.142v3.459h-2.26V72.51v.001Zm2.248 2.384c0 .522-.002.997 0 1.47.003.457.012.915.019 1.367.546.02.73-.215.73-.63 0-.52.015-1.04-.003-1.559-.015-.514-.09-.573-.748-.648h.002Z"/></g><defs><clipPath id="a"><path fill="#fff" transform="translate(58.648 23.427)" d="M0 0h99.705v61.147H0z"/></clipPath></defs></svg>