<svg xmlns="http://www.w3.org/2000/svg" width="217" height="108" fill="none"><g clip-path="url(#a)"><path fill="#040404" d="M42.252 53.913c2.056 1.924 4.063 3.832 6.102 5.757-2.5 2.549-7.127 7.06-10.844 7.949-8.52 2.007-17.024-4.49-17.172-13.224-.099-5.889 3.06-10.84 8.405-13.208 5.083-2.237 11.02-1.168 15.215 2.78 1.003.937 3.267 3.218 4.287 4.155.46.428.592.69.049 1.2a174.46 174.46 0 0 0-4.918 4.952c-.395.41-.642.427-1.036 0-1.037-1.086-3.366-3.465-4.468-4.468-1.694-1.497-4.21-1.76-6.185-.724-1.94 1.02-3.141 3.224-2.944 5.379.214 2.253 1.744 4.177 3.931 4.819 1.875.56 3.602.164 5.083-1.07.839-.707 3.656-3.54 4.479-4.314l.016.017Z"/><path fill="#96FB05" d="M60.537 67.948c-2.993-.016-6.332-1.76-9.178-4.589-2.911-2.895-5.757-5.84-8.668-8.718-.527-.526-.494-.789 0-1.299 2.845-2.829 5.625-5.74 8.487-8.57 4.425-4.342 9.59-6.003 15.56-3.733 1.76.674 3.273 1.99 4.852 3.043.609.411.74.855.066 1.48-1.612 1.497-3.175 3.076-4.704 4.655-.477.477-.773.51-1.217 0-2.139-2.467-6.086-2.336-8.553.543-.856 1.003-1.875 1.842-2.764 2.812-.148.165-.148.724 0 .889 1.201 1.25 2.402 2.5 3.718 3.635 2.253 1.973 5.197 1.924 7.352-.165.724-.69 1.086-.658 1.743.05 1.431 1.53 2.928 2.977 4.458 4.408.625.592.56.97-.016 1.513-2.6 2.401-5.938 4.03-11.136 4.03v.016Z"/><path fill="#040404" d="M113.977 49.395c-.312-1.201.296-1.234 1.069-1.218 2.122.033 2.122 0 2.122 2.073 0 3.108-.033 6.217.017 9.326 0 .79-.148 1.184-1.02 1.053-.379-.05-.79-.033-1.184 0-.774.065-1.415 0-.856-1.464-1.497 1.447-2.928 1.908-4.556 1.71-1.612-.197-2.895-.987-3.849-2.27-1.99-2.664-1.71-6.858.609-9.128 2.105-2.073 4.885-2.155 7.648-.082Zm-6.201 4.917c-.033 1.99 1.25 3.455 3.06 3.488 1.858.032 3.158-1.333 3.207-3.34.049-1.99-1.234-3.47-3.043-3.52-1.793-.049-3.174 1.399-3.207 3.356l-.017.017ZM154.128 55.53c-1.185 0-2.369.033-3.553 0-.806-.017-.856.28-.543.904.74 1.563 2.665 2.106 4.622 1.267.46-.197 1.085-.724 1.299-.592.642.41 1.135 1.069 1.629 1.677.082.1-.099.543-.28.708-1.892 1.628-5.658 1.924-7.928.641-2.188-1.233-3.388-3.947-2.977-6.71.51-3.405 2.796-5.527 5.987-5.544 4.194-.033 6.283 3.438 5.971 7.155 0 .181-.444.477-.691.477-1.184.05-2.369.017-3.553.017h.017Zm-1.662-2.27c.675 0 1.333-.017 2.007 0 .559.033.691-.148.493-.674-.394-1.053-1.085-1.728-2.22-1.826-1.151-.099-2.056.345-2.632 1.398-.444.822-.345 1.233.707 1.102.543-.066 1.102 0 1.645 0ZM123.863 49.378c1.53-1.48 3.175-1.81 5.017-1.316 1.809.494 3.158 2.024 3.224 3.931.098 2.681.049 5.362.033 8.027 0 .197-.362.411-.56.592-.049.033-.148 0-.23 0-1.645.044-2.473-.756-2.484-2.401 0-1.58.033-3.158-.016-4.72-.049-1.58-.872-2.468-2.237-2.517-1.398-.05-2.5.839-2.582 2.335-.116 2.073-.099 4.178-.066 6.25 0 .79-.132 1.086-1.004 1.07-2.286-.05-2.286 0-2.286-2.237 0-3.027.049-6.07-.033-9.096-.016-.987.313-1.25 1.201-1.135.312.05.625.033.938 0 .805-.082 1.381.05 1.085 1.2v.017ZM101.74 52.355v2.714c-.049 4.277-3.175 6.695-7.369 5.708-2.566-.609-4.079-2.402-4.128-5.034-.05-2.236 0-4.49-.033-6.727 0-.575.098-.806.756-.822 2.55-.066 2.55-.099 2.55 2.483 0 1.53-.017 3.076 0 4.606.05 1.628.871 2.5 2.319 2.55 1.546.049 2.5-.757 2.582-2.418.099-2.04.066-4.096.033-6.136 0-.773.099-1.102 1.004-1.085 2.269.05 2.286 0 2.286 2.286v1.892-.017ZM171.612 52.454c0-1.184.033-2.369 0-3.553-.016-.592.198-.707.74-.724 2.566-.098 2.566-.115 2.566 2.484 0 1.497-.016 2.994 0 4.49.033 1.727.839 2.616 2.336 2.665 1.579.05 2.516-.806 2.582-2.55.083-2.04.05-4.095 0-6.151 0-.707.165-.938.921-.938 2.352 0 2.352-.032 2.352 2.336 0 1.859.066 3.717-.065 5.56-.231 3.157-2.484 4.934-5.955 4.852-3.24-.083-5.362-2.056-5.46-5.149-.033-1.102 0-2.204 0-3.306l-.017-.016ZM190.675 61.122c-1.316-.362-2.812-.757-4.293-1.2-.592-.182-.806-.527-.394-1.136.345-.51.477-1.299.937-1.579.296-.18 1.003.444 1.546.51 1.267.165 2.566.28 3.833.247.345 0 .674-.609 1.019-.954-.312-.296-.592-.773-.954-.872-1.052-.296-2.154-.411-3.223-.674-2.122-.56-3.109-1.76-3.06-3.619.05-1.908 1.267-3.306 3.306-3.75 2.106-.444 4.129-.148 6.135.609.691.263.856.575.477 1.184a.926.926 0 0 0-.148.312c-.246 1.185-.74 1.514-1.99.987-.97-.394-2.138-.427-3.224-.427-.394 0-.773.625-1.167.954.345.312.658.79 1.052.904 1.053.296 2.171.379 3.224.675 1.875.51 2.829 1.645 2.911 3.273.083 1.694-.871 3.19-2.615 3.8-.987.345-2.056.46-3.372.74v.016ZM136.61 54.296c0-.74-.066-1.497 0-2.237.082-.773-.23-.937-.921-.888-.477.033-1.349-.066-1.365-.197a9.056 9.056 0 0 1 .033-2.583c.016-.115.839-.197 1.283-.164.74.05 1.118-.148.97-.954-.016-.115 0-.23 0-.362 0-2.632 0-2.648 2.681-2.385.23.016.576.411.592.658.083.773-.016 1.579.066 2.352.033.23.395.608.642.625a18.04 18.04 0 0 0 2.829 0c.756-.05.904.247.904.954 0 2.056.033 2.056-2.006 2.056-1.601 0-2.402.817-2.402 2.45v1.892c.017 2.023 1.152 2.862 2.994 2.023.937-.427 1.283-.296 1.661.642.674 1.678.74 1.842-1.036 2.319-1.152.313-2.418.428-3.586.296-1.941-.214-3.142-1.793-3.29-4.013-.049-.823 0-1.645 0-2.484h-.049ZM82.858 60.908c-2.978-.033-5.346-1.776-6.086-4.49-.823-2.96.213-6.036 2.533-7.533 2.368-1.53 5.674-1.333 7.73.394.74.625.905 1.102 0 1.645a2.38 2.38 0 0 0-.542.46c-.56.61-1.02.807-1.81.149-1.217-1.004-2.928-.724-3.947.395-1.168 1.283-1.168 3.602-.033 4.901.97 1.102 2.648 1.283 3.98.444.346-.214.872-.625 1.036-.51.74.51 1.382 1.152 2.04 1.793.033.033-.164.379-.313.543-1.25 1.3-2.796 1.859-4.572 1.81h-.016ZM164.868 48.885c.839-.84 2.221-1.168 3.734-.97.592.081 1.118.23.789 1.019-.065.148-.049.313-.082.46-.099.626-.016 1.382-.362 1.81-.181.23-1.069-.099-1.628-.132-1.744-.115-2.763.773-2.813 2.566a128.733 128.733 0 0 0 0 6.152c0 .674-.181.855-.855.855-2.451.033-2.451.066-2.451-2.418 0-2.96.049-5.921-.033-8.865-.033-1.037.296-1.333 1.25-1.185.313.05.642-.065.938.017.428.115.806.345 1.513.674v.017Z"/></g><defs><clipPath id="a"><path fill="#fff" d="M20.338 40.02h176.324V67.98H20.338z"/></clipPath></defs></svg>