<svg width="217" height="108" fill="none" xmlns="http://www.w3.org/2000/svg"><g clip-path="url(#a)"><path d="m66.682 75.728.021-1.065c.142-.003.284-.008.426-.008h10.776c.484-.002.449.04.45-.432 0-.154-.003-.308.002-.462.005-.134.037-.166.174-.17.237-.005.474 0 .711-.005.137-.003.169-.034.173-.17.006-.236 0-.473.006-.71.003-.141.033-.172.164-.177.142-.005.285-.002.427-.004.528-.003.472.052.472-.478 0-4.278 0-8.557.002-12.835 0-.154.008-.307.012-.462.285.002.57-.001.853.006.15.004.188.048.195.194.004.095.002.19.002.285v13.897c0 .512.047.456-.455.46-.118.001-.237-.002-.356.001-.234.005-.246.015-.25.236-.004.154 0 .308-.001.462 0 .071.001.142-.004.214-.008.112-.04.143-.153.152-.047.003-.095.003-.142.003h-.32c-.487.002-.446-.047-.449.43 0 .213-.003.427-.004.64H66.682v-.002ZM141.865 75.728l-.002-1.063c.059-.003.118-.01.177-.01h3.554c.095 0 .19.002.285-.001.167-.008.196-.038.201-.219.005-.154.001-.308.002-.462 0-.083 0-.166.006-.248.006-.082.054-.127.137-.132.071-.004.142-.004.213-.004.178-.002.356.002.533-.004.13-.004.163-.041.17-.175.005-.107.003-.213.003-.32V62.29c0-.349.002-.35.352-.35 1.15-.002 2.299 0 3.448 0 .095 0 .19 0 .285-.004.133-.006.159-.035.164-.177.006-.154.003-.308.003-.462 0-.457-.029-.419.424-.421.166 0 .332 0 .497-.005.082-.002.133-.045.138-.13.004-.071.004-.142.004-.213v-1.563c.001-.414.008-.829.013-1.243.296.003.592.003.888.01.11.002.15.044.157.149.005.07.004.142.004.213v3.483c0 .071.001.142-.004.213-.007.108-.044.148-.153.151-.178.006-.356.003-.533.005-.071 0-.142-.002-.213.003-.114.007-.151.04-.155.149-.006.154-.003.308-.004.462 0 .083.002.166-.001.248-.007.165-.03.19-.182.198-.095.004-.19.002-.285.002h-3.377c-.095 0-.19 0-.284.006-.065.004-.11.046-.114.112a5.99 5.99 0 0 0-.008.355l-.001 10.663c0 .582.069.511-.505.518-.59.007-.516-.07-.52.54-.001.177.011.354.017.53h-5.334v-.003ZM173.589 66.2c-.285-.002-.569-.007-.853-.004-.111.001-.148.04-.151.152-.006.225 0 .45-.007.675-.005.189-.042.224-.236.228-.213.006-.427 0-.64.005-.153.004-.179.033-.184.195-.005.19 0 .38-.003.569-.004.272-.022.291-.315.293-.462.003-.924 0-1.386.002-.095 0-.19 0-.285.005-.082.005-.13.052-.133.135-.005.107-.005.213-.005.32v5.475c0 .432.03.408-.4.408h-.213c-.497.004-.445-.051-.449.466l-.005.604h-6.33l-.013-1.063c.107-.003.214-.01.32-.01h4.481c.106 0 .213.002.32-.004.115-.005.151-.04.158-.146.006-.082.004-.166.005-.25 0-.165-.002-.331.003-.497.005-.133.037-.163.175-.168.166-.005.332-.002.498-.003.403 0 .389.023.387-.386v-5.476c0-.095-.002-.19.002-.284.008-.152.039-.187.194-.19.355-.004.711-.002 1.067-.002.19 0 .379.003.569 0 .267-.006.289-.027.294-.281.003-.154 0-.309.002-.463.002-.209.107-.315.315-.318h.177c.131 0 .261.003.392-.005.125-.007.165-.05.175-.178.005-.07.003-.143.003-.214 0-.154-.003-.308.002-.462.005-.178.025-.196.214-.203.107-.003.213 0 .32 0 .553-.003.528.052.528-.511v-6.471c0-.142.006-.284.01-.426l.997.018V66.2ZM112.27 57.719c.284.003.569.002.853.009.114.003.15.04.157.147.006.094.004.19.004.284v16.053c0 .48.041.44-.436.445-.68.008-.582-.091-.59.575-.001.165.012.33.018.495h-6.402l.001-1.065c.143-.002.284-.01.426-.01h4.37c.083 0 .166.003.249 0 .203-.007.229-.031.237-.22.003-.096 0-.19.001-.285 0-.13-.002-.26.004-.39.006-.128.043-.163.176-.168.107-.005.214-.002.32-.002.13 0 .26.002.39-.004.129-.006.162-.042.169-.176.005-.106.003-.213.003-.32V58.206c0-.107-.005-.213.003-.32.004-.056.031-.111.047-.167ZM46.624 75.728c-.004-.354-.009-.708-.012-1.063.154-.003.307-.01.462-.01h8.957c.628 0 1.256.002 1.884 0 .314 0 .315-.004.318-.316.002-.142 0-.284 0-.426 0-.059 0-.118.004-.177.005-.081.045-.135.129-.141.082-.006.166-.005.249-.005.166-.002.332.002.497-.003.154-.006.181-.034.186-.196.005-.166.001-.332.002-.497.001-.083.003-.166.01-.249.005-.067.049-.11.114-.112.178-.006.355-.006.533-.006.428 0 .406.02.405-.406l.001-5.508c0-.142.013-.283.02-.425.296.002.592 0 .888.005.112.003.146.04.152.152.006.094.003.19.003.284v6.535c0 .462.032.428-.414.43-.166 0-.332-.001-.497.005-.107.003-.145.042-.148.156-.005.236 0 .473-.005.71-.004.159-.033.19-.186.193-.212.005-.426 0-.64.005-.16.003-.196.034-.196.182 0 .295.01.59.015.885h-12.73v-.002ZM117.54 75.728l-.013-1.063c.154-.003.308-.01.461-.01h12.816c.117 0 .236-.003.354-.009.068-.004.107-.049.114-.113.007-.082.006-.165.007-.248.001-.177-.002-.355.003-.532.004-.115.042-.152.146-.16.07-.006.141-.004.212-.005.178-.001.355.002.532-.004.131-.004.163-.037.166-.175.005-.237 0-.474.003-.71.005-.414.012-.827.018-1.24.295 0 .59 0 .884.006.118.002.15.035.158.144.005.07.004.142.004.212v2.476c0 .082-.002.165-.009.247-.005.067-.051.106-.117.107-.188.005-.377.005-.565.007-.07 0-.142-.001-.212.003-.112.007-.15.04-.154.148-.006.165-.002.33-.005.495-.001.142-.005.283-.008.424H117.54ZM100.618 71.46c.26 0 .52 0 .779.002.266.003.267.005.271.285.002.07 0 .142 0 .213v2.3c0 .094-.001.19-.008.282-.005.069-.052.106-.116.11-.094.006-.189.005-.283.006-.165.002-.331-.001-.496.004-.115.003-.146.037-.155.146a1.333 1.333 0 0 0-.003.142l.004.778H86.812l.008-1.064c.153-.003.307-.009.46-.009H99.07c.107 0 .213.002.32-.004.109-.005.144-.04.147-.156.006-.248.002-.497.007-.745.003-.116.038-.153.147-.157.177-.006.355-.004.533-.004.398 0 .382.023.383-.39l.012-1.74Z" fill="#5CF9D9"/><path d="M93.698 51.362c-.284-.004-.568-.007-.852-.014-.181-.005-.197-.022-.201-.213-.004-.166 0-.331-.002-.497-.002-.23-.123-.346-.363-.349h-.39c-.06 0-.12 0-.179-.005-.084-.007-.124-.058-.127-.14l-.003-.107c-.006-.403-.016-.805-.016-1.207V33.836c0-.119 0-.237.006-.355.005-.082.053-.13.136-.135.095-.005.19-.005.284-.005.166-.002.332-.001.497-.004.082-.002.134-.043.135-.13.003-.165.003-.33.003-.496 0-.466-.025-.437.45-.437l11.906.001c.415 0 .829.01 1.244.02.154.003.194.04.198.187.007.212 0 .426.005.64.004.224.012.231.25.236.189.003.379-.003.568.002.202.004.229.031.239.22.003.048.002.096.002.143v.285c.001.437-.029.412.396.413.119 0 .237-.002.356 0 .274.004.274.006.281.28l.018.78c-.008.153-.022.306-.022.46l-.001 12.788c0 .118 0 .237-.006.355-.004.083-.057.126-.138.13-.071.005-.143.005-.213.006-.154 0-.308-.003-.462.002-.193.005-.233.043-.241.225-.005.13-.002.26-.002.39-.001.474.032.44-.441.445-.674.006-.574-.087-.581.585-.006.53.046.476-.477.476-3.932 0-7.864 0-11.797.002-.153 0-.307.01-.46.017Zm.015-16.947c-.272.003-.545.005-.817.01-.235.005-.24.012-.247.24V46.71c0 .095 0 .19.004.284.004.084.054.13.136.13.261.002.521.002.782 0 .085 0 .13-.053.131-.135.004-.119.004-.238.004-.355l.002-12.224c.107.003.214.01.32.01h8.818c.071 0 .142 0 .213-.003.143-.007.172-.032.175-.165.005-.225.005-.45.002-.675-.003-.185-.025-.205-.203-.212-.071-.003-.143-.001-.214-.001h-8.676c-.095 0-.19-.002-.284.004-.107.006-.145.044-.146.158-.004.297-.002.592-.002.889h.002Zm7.4 7.42V38.07c0-.095.002-.19-.003-.284-.006-.142-.031-.173-.166-.173-.58-.003-1.16-.003-1.74 0-.141 0-.168.032-.177.165-.004.07-.003.142-.003.212v7.705c0 .083 0 .166.007.248.006.064.042.11.112.115.07.005.141.008.213.008.473 0 .947.002 1.42 0 .333 0 .336-.003.336-.327v-3.905h.001Zm4.248-7.928c-.008-.625.084-.54-.55-.541-.584-.002-.506-.068-.505.512.001.627-.088.538.547.54.574.002.501.074.508-.511ZM92.653 48.712v.388c0 .084.053.136.13.138.26.007.518.007.776.002.098-.002.142-.056.143-.164.004-.246.002-.494 0-.74 0-.084-.048-.132-.13-.135a8.38 8.38 0 0 0-.388-.004c-.61.006-.527-.074-.53.515ZM83.11 51.362c-.284-.005-.567-.007-.85-.014-.178-.005-.2-.028-.203-.212-.004-.236-.002-.472-.006-.709-.001-.082-.05-.13-.133-.133-.117-.005-.236-.004-.354-.005-.141-.002-.283-.001-.425-.005-.08-.002-.134-.045-.139-.129-.006-.106-.006-.212-.006-.318v-5.461c0-.46.029-.427-.417-.426-.2 0-.401.007-.602.011-.284-.004-.568-.014-.852-.013-.188 0-.207.025-.215.203-.003.095-.001.19-.001.284v5.366c0 .095.002.19-.001.285-.007.156-.038.19-.187.195-.201.005-.403 0-.603.003-.254.004-.266.016-.27.254-.004.143-.002.285 0 .427 0 .397.017.381-.394.38H73.97c-.13 0-.26.011-.39.017-.273-.004-.545-.007-.817-.013-.222-.005-.233-.017-.237-.25-.004-.214.002-.427-.004-.64-.002-.13-.037-.163-.175-.166-.237-.005-.474 0-.71-.006-.13-.003-.167-.041-.17-.173-.01-.414-.023-.829-.023-1.244V34.865c0-.107 0-.214.005-.32.004-.082.055-.13.137-.134.142-.005.284-.004.427-.005.118-.002.237-.001.355-.003.083-.002.134-.042.136-.129.003-.154.004-.308.004-.462.001-.516-.038-.468.487-.47.154-.001.308-.002.462-.007.068-.003.107-.048.109-.114.004-.143.004-.285.005-.426.002-.12-.001-.238.005-.355.005-.11.045-.152.15-.16.093-.006.189-.004.284-.004h10.88c.415 0 .83.01 1.244.02.14.004.17.032.173.167.005.25.002.498.007.746.002.112.037.146.154.148.249.005.498.001.746.007.114.003.15.039.154.15.005.19.003.38.003.568 0 .34-.008.342.325.341.19 0 .38-.002.569.002.134.004.163.035.167.175.007.295.01.592.014.887-.002.154-.008.308-.008.462v13.816c0 .106.002.213-.002.32-.007.157-.038.19-.184.198-.083.004-.166.001-.249.001-.142 0-.284-.003-.426.002-.17.006-.196.034-.201.215-.005.155-.002.308-.002.462 0 .398.017.384-.391.384H83.5c-.13 0-.26.011-.39.017v-.002ZM74.645 34.41c.095.003.19.009.284.009h7.814c.059 0 .118.001.177-.002.167-.007.19-.026.195-.181.005-.142.003-.284.003-.426-.003-.485.045-.446-.432-.446h-7.6c-.095 0-.19-.003-.284.003-.107.006-.143.044-.145.16-.004.295-.004.59-.005.887-.295.004-.59.005-.886.013-.137.003-.167.033-.17.169-.007.295-.008.59-.011.885l-.675.006c-.397 0-.379-.026-.379.394v9.808c0 .083 0 .166.005.248.005.086.058.126.14.127.154.003.308.004.461.003.5-.004.45.053.45-.462v-9.737c0-.13-.004-.26-.007-.391.306 0 .611.004.917 0 .111-.002.148-.039.149-.15.004-.306.001-.612.001-.917h-.002Zm4.262 4.237h-.001v.213c0 .236-.002.473.003.709.002.109.043.146.15.154.048.004.095.003.142.003h1.49c.06 0 .118-.003.177-.007.068-.006.11-.046.118-.11.008-.06.007-.119.007-.178v-1.525c0-.06 0-.118-.007-.177-.006-.066-.045-.11-.112-.112a11.601 11.601 0 0 0-.426-.007c-.449 0-.899-.002-1.348.001-.16.002-.19.03-.192.184-.004.284-.001.567-.001.851v.001Zm6.335-4.734c-.01-.628.089-.546-.544-.547-.587-.002-.513-.067-.512.506.001.632-.087.545.542.546.584 0 .507.075.513-.505h.001ZM73.582 47.7c0-.142.002-.284 0-.426 0-.082-.042-.136-.127-.136-.261-.003-.522-.003-.782 0-.081 0-.137.042-.138.128-.003.26-.004.52-.002.78 0 .083.045.137.13.139.26.003.52.002.781 0 .082 0 .135-.045.138-.13.004-.118 0-.236 0-.354V47.7ZM80.497 58.75c-.004.153-.013.307-.013.46l-.001 12.835c0 .53.056.475-.472.479-.142 0-.285-.002-.427.004-.131.005-.162.035-.165.177-.005.237 0 .474-.005.71-.003.135-.036.166-.173.17-.237.005-.474 0-.712.005-.137.003-.168.036-.173.17-.005.153-.003.308-.003.462-.001.472.035.43-.449.432H67.128c-.142 0-.284.005-.426.008-.285-.004-.568-.005-.853-.011-.138-.003-.173-.035-.176-.165-.005-.25-.001-.498-.007-.747-.002-.107-.043-.146-.154-.149-.25-.005-.498-.001-.746-.006-.114-.002-.15-.04-.154-.15-.005-.2-.002-.402-.004-.603-.004-.3-.004-.301-.29-.305-.2-.002-.402.002-.604-.004-.136-.003-.162-.03-.165-.174-.008-.414-.017-.829-.017-1.243-.002-4.313 0-8.626 0-12.94 0-.106.001-.213.007-.319.005-.082.057-.13.137-.132.143-.006.285-.005.427-.007.107-.001.214.002.32-.004.122-.008.163-.053.17-.182.004-.118 0-.237.001-.355.005-.573-.056-.518.51-.521.13-.001.26.001.39-.006.106-.005.153-.05.158-.154.007-.165.004-.332.006-.497.001-.095.003-.19.011-.284.006-.066.05-.106.116-.112.082-.007.165-.01.248-.01h11.023c.344 0 .687.008 1.03.014.266.004.267.006.27.287.003.154 0 .308.002.462.004.305.008.308.327.312.154.002.308-.001.462 0 .267.005.267.006.271.288.002.178-.002.355.001.533.005.203.032.231.222.238.154.006.308.002.462.002.084 0 .166 0 .25.005.084.005.127.055.13.138.002.118 0 .237.003.355.003.178.007.355.012.533h-.001ZM70.954 65.1V68.9c0 .107.002.213.007.319.004.069.05.105.115.11.083.006.166.005.249.006h1.349c.428 0 .399.027.399-.408V61.26c0-.083 0-.166-.004-.248-.004-.086-.055-.127-.136-.13-.072-.004-.143-.004-.213-.004h-1.385c-.4 0-.381-.023-.381.39v3.834Zm-5.283-1.034v-4.8c0-.094.002-.189-.001-.284-.007-.16-.036-.192-.184-.196-.166-.005-.332-.002-.498-.002-.385 0-.373-.017-.373.364v9.81c0 .072-.002.143.003.214.006.119.035.152.145.156.166.006.332.005.498.005.436 0 .41.032.41-.398v-4.87Zm5.296-6.349h3.766c.094 0 .19.002.283-.001.14-.006.174-.035.176-.165.004-.225.005-.45.001-.675-.002-.185-.025-.205-.202-.213-.047-.002-.095 0-.142 0h-7.815c-.071 0-.145-.007-.212.009-.037.008-.086.052-.094.087-.017.08-.014.165-.016.247-.003.178 0 .355-.006.533-.005.105-.05.148-.156.155-.13.007-.26.004-.39.006-.119.002-.237.002-.355.008-.066.002-.121.035-.122.103a33.12 33.12 0 0 0 0 .816c0 .066.043.114.11.114.272.004.544.006.816.002.064 0 .11-.048.112-.116.005-.165.008-.331.01-.496 0-.428-.023-.413.4-.413h3.836Zm-5.816 12.687c-.129 0-.259-.002-.388 0-.079 0-.142.034-.143.12-.003.27-.002.54 0 .81.001.065.04.114.109.115.27.004.54.005.81.004.083 0 .128-.055.128-.136.002-.259.002-.517 0-.775 0-.082-.045-.135-.13-.137-.128-.004-.258 0-.387 0h.001Zm12.136-13.213v-.389c-.002-.082-.044-.134-.13-.135-.258-.002-.518-.002-.777 0-.082 0-.136.043-.138.126-.003.26-.004.519 0 .778.001.078.05.137.132.139.26.005.519.004.778.002.082 0 .131-.05.133-.132.004-.13.001-.26.001-.389ZM140.283 51.362c-.295-.005-.59-.008-.885-.016-.137-.004-.168-.033-.171-.168-.005-.225 0-.45-.005-.674-.004-.172-.039-.209-.209-.213-.236-.007-.473-.004-.709-.008-.082-.001-.133-.044-.137-.129a8.46 8.46 0 0 1-.005-.318v-5.46c0-.465.034-.428-.412-.427-.213 0-.426.008-.638.012-.224-.005-.449-.013-.673-.015-.426-.003-.398-.02-.398.41v5.43c0 .107.002.214-.003.32-.006.132-.038.168-.171.17-.236.007-.473.002-.71.01-.122.003-.169.053-.174.178-.008.166-.005.331-.005.497 0 .398.019.382-.392.382h-3.409c-.141 0-.283.011-.424.017-.272-.004-.545-.007-.817-.014-.227-.005-.232-.01-.236-.249-.002-.166.001-.331-.001-.497-.004-.305-.007-.308-.327-.313-.154-.002-.308 0-.461-.001-.059 0-.122.003-.175-.017-.037-.012-.071-.056-.086-.094-.017-.043-.011-.094-.012-.14-.006-.403-.016-.805-.016-1.208V34.901c0-.107-.002-.213.003-.32.007-.133.041-.167.17-.176.059-.005.119-.003.178-.003h.32c.42 0 .392.028.393-.376v-.355c0-.06 0-.118.004-.177.01-.105.048-.147.157-.151.165-.007.331-.004.497-.005.095-.001.19 0 .284-.005.067-.004.108-.044.113-.113.004-.07.006-.142.006-.213.001-.166-.002-.332.001-.497.005-.205.029-.23.221-.238.083-.004.166-.001.249-.001h10.803c.414 0 .828.01 1.243.02.151.004.184.037.188.193.005.213-.001.426.003.64.005.207.023.227.221.23.202.004.403 0 .604.003.206.004.228.024.233.22.004.213-.002.425.003.639.004.174.029.197.213.2.237.005.474.003.711.007.084.001.129.051.132.134.004.094.002.19.004.283l.016.638c-.007.154-.018.307-.018.46l-.001 13.81c0 .119.003.238-.003.355-.006.134-.037.17-.169.173-.237.007-.474.002-.71.009-.123.004-.171.053-.176.178-.007.165-.004.331-.005.496 0 .4.018.383-.392.383h-3.409c-.141 0-.283.011-.424.017l-.002.003Zm-8.448-16.951c.072.003.143.008.213.008h7.893c.071 0 .142 0 .213-.003.083-.005.132-.05.134-.133.003-.166.003-.333.003-.498 0-.455.037-.42-.422-.42h-7.608c-.095 0-.19-.001-.285.004-.106.006-.145.044-.146.158-.001.296.006.592.009.888l-.807.01c-.253.005-.264.012-.266.25-.002.27.004.538.006.807-.225.002-.45.005-.674.005-.419 0-.395-.022-.395.376v9.835c0 .083 0 .166.006.248.005.066.045.111.112.114.166.005.332.007.497.006.481-.001.441.046.441-.435v-9.764c0-.13.006-.26.008-.39.245 0 .49.004.735.003.316-.002.316-.003.32-.336.003-.245.008-.49.013-.734Zm4.21 4.269c0 .295-.002.59.002.886.001.115.038.154.145.158.177.006.354.004.532.004.402 0 .804.002 1.206-.002.207-.001.227-.023.232-.217.003-.154.001-.308 0-.461 0-.425 0-.85-.003-1.276-.001-.117-.037-.156-.145-.156-.603-.003-1.206-.004-1.809-.001-.126 0-.158.038-.16.18-.004.295-.001.59-.001.886l.001-.001Zm-5.855 9.505v.001c.143 0 .285.003.426 0 .081-.002.138-.043.139-.129.003-.26.002-.52.001-.781 0-.084-.045-.137-.129-.138a46.328 46.328 0 0 0-.782 0c-.081 0-.137.04-.138.127-.003.26-.002.52-.001.781 0 .083.044.135.128.138.118.005.237 0 .355 0h.001Zm11.719-14.819c-.13 0-.259-.002-.389.002-.113.005-.156.041-.158.145-.004.26-.002.519.001.778.001.086.058.125.138.126.26.001.519.002.778-.002.085 0 .128-.057.129-.137.002-.247.004-.495-.001-.742-.003-.121-.051-.162-.18-.168-.106-.005-.212 0-.319 0l.001-.002ZM53.458 51.362c-.273-.005-.545-.007-.817-.014-.21-.004-.228-.021-.233-.22-.004-.201.002-.403-.002-.604-.005-.205-.027-.229-.222-.234-.213-.005-.427 0-.64-.005-.13-.004-.163-.038-.167-.175-.005-.225 0-.45-.006-.675-.003-.133-.04-.172-.168-.175-.213-.005-.427 0-.64-.004-.233-.004-.246-.017-.25-.238-.007-.403-.014-.806-.014-1.208V34.87c0-.5-.034-.465.456-.467h.106c.573-.008.493.079.5-.518.002-.083 0-.166 0-.249 0-.047 0-.095.006-.142.01-.1.053-.147.16-.15.19-.007.38-.006.57-.006.324 0 .328.015.327-.336-.001-.19-.001-.38.005-.569.004-.1.055-.15.156-.156.094-.007.19-.005.285-.005H64.78c.402 0 .805.01 1.208.019.175.003.197.026.2.212.005.225 0 .45.004.675.003.139.033.17.166.174.214.006.427 0 .64.004.248.004.253.007.253.268.003.877.001 1.754.001 2.631l-.001.107c-.01.155-.03.18-.195.183-.237.005-.474 0-.71.005-.114.002-.15.039-.153.15-.005.25-.001.498-.007.747-.002.117-.037.152-.143.158-.107.005-.214.004-.32.004H58.15c-.464 0-.423-.035-.424.419v7.606c0 .479-.039.43.447.43.76.002 1.517 0 2.276 0 .071 0 .142.002.213 0 .218-.007.242-.025.243-.251.004-.534.002-1.067.002-1.6 0-.036 0-.071-.004-.107-.012-.107-.05-.15-.157-.154-.178-.007-.356-.005-.533-.005-.383 0-.367.017-.368-.368 0-.178.002-.356-.005-.533-.004-.107-.048-.152-.154-.156-.237-.007-.474-.002-.71-.007-.161-.004-.188-.03-.19-.187-.002-.58-.003-1.161 0-1.741.002-.167.026-.187.184-.195.071-.004.143.003.213-.003.209-.02.424.053.626-.05.074-.194.023-.396.037-.594.006-.082.001-.166.005-.25.004-.083.051-.129.134-.133.095-.003.19-.004.285-.004h6.578c.432 0 .407-.026.407.403 0 .142-.003.285.001.427.005.173.029.197.214.2.225.005.45 0 .676.005.135.003.163.035.169.172.004.095 0 .19.002.285l.011.604c-.003.141-.01.283-.01.425v6.498c0 .107.001.214-.004.32-.006.103-.05.146-.158.15-.224.005-.45 0-.674.006-.185.007-.222.048-.226.24-.005.225-.002.45-.006.675-.001.081-.044.135-.129.14-.118.005-.236.004-.355.005-.671.01-.565-.09-.574.59-.007.525.052.472-.479.472-3.93 0-7.86 0-11.791.002-.153 0-.307.01-.46.016h-.004Zm4.832-17.998h-4.37c-.095 0-.19-.001-.284.006-.105.007-.148.05-.156.155-.006.094-.004.189-.005.284-.001.154.002.308-.004.462-.005.11-.04.142-.154.15-.07.005-.143.003-.214.004-.154 0-.308-.002-.462.002-.16.004-.191.034-.197.182-.005.13-.003.26-.001.39.005.538-.06.485.468.48.643-.004.578.11.583-.585.004-.523-.051-.474.48-.474h8.598c.107 0 .213 0 .32-.004.085-.002.126-.056.13-.136.004-.142.004-.284.004-.426.002-.537.024-.487-.472-.488h-4.263l-.001-.002Zm-6.91 7.407v4.834c0 .095-.003.19.002.285.006.14.032.17.166.175.142.005.284.003.427.003.466-.002.432.039.432-.45V35.95c0-.095.003-.19-.002-.285-.007-.135-.038-.172-.168-.174a15.86 15.86 0 0 0-.676 0c-.14.002-.172.034-.178.162-.005.095-.004.19-.004.285v4.834-.001Zm13.739-6.883c0-.13.003-.26 0-.39-.003-.085-.056-.13-.138-.13-.26-.002-.52-.002-.782 0-.084 0-.13.055-.13.137 0 .26 0 .521.002.781 0 .085.056.128.137.129.26.002.521.002.782 0 .086 0 .127-.054.129-.136.002-.13 0-.26 0-.39ZM51.38 47.616c0 .13-.003.26.001.389.004.14.036.178.16.18.236.006.472.006.708 0 .13-.002.178-.046.18-.166a16.41 16.41 0 0 0 0-.743c-.002-.101-.045-.138-.163-.139a20.612 20.612 0 0 0-.707 0c-.154.003-.173.027-.179.196-.004.094 0 .189 0 .283ZM150.838 51.36c-.284-.004-.568-.007-.853-.015-.134-.003-.162-.033-.165-.174-.006-.201 0-.403-.004-.605-.005-.258-.02-.272-.291-.277-.166-.003-.332.001-.498-.002-.262-.004-.267-.008-.272-.253-.006-.367-.014-.734-.014-1.102v-15.18c0-.423-.017-.41.403-.417.208-.004.423.052.625-.045.011-.198.024-.398.033-.596.003-.06 0-.119.002-.178.008-.216.03-.237.253-.244.083-.003.166-.002.249 0l4.444.018c.071 0 .143 0 .214.004.084.003.13.05.132.134.004.166.003.332.005.498.003.475-.044.428.447.43.166.002.332.003.498.008.068.003.107.05.112.114.005.094.005.19.005.285 0 .936-.002 1.873 0 2.808.002.604.01 1.209.016 1.813 0 .047 0 .095.004.142.004.066.036.112.106.12.046.005.094.006.141.006h1.565c.036 0 .071 0 .107-.003.107-.01.154-.05.162-.15.007-.107.005-.214.005-.32v-4.373c0-.495-.029-.467.459-.467.154 0 .308 0 .463-.003.083 0 .131-.044.136-.129.004-.071.004-.142.004-.213 0-.154-.003-.309.001-.463.006-.222.033-.249.24-.258.048-.003.095-.001.142-.001 1.198 0 2.395-.002 3.592 0 .38.002.758.011 1.138.02.158.004.185.031.189.189.004.201 0 .403.002.605.004.265.006.267.287.27.201.004.403 0 .604.004.137.003.163.032.169.172.005.095 0 .19.003.284.003.202.008.403.012.604-.004.154-.012.308-.012.461v14.847c0 .106.002.213-.001.319-.006.206-.025.228-.22.233-.202.004-.403-.002-.604.003-.22.004-.233.019-.238.25-.003.143 0 .285-.001.427 0 .4.023.385-.389.385h-3.481c-.13 0-.26.01-.39.016-.273-.005-.545-.007-.817-.013-.22-.005-.235-.019-.238-.25-.004-.202.002-.403-.003-.605-.005-.17-.036-.199-.216-.203-.225-.005-.45-.002-.676-.007-.083-.001-.131-.05-.135-.133a11.388 11.388 0 0 1-.004-.32v-5.44c0-.479.009-.442-.448-.44-.201 0-.402.006-.604.01-.295-.004-.591-.013-.887-.012-.151 0-.173.032-.18.198-.003.095-.001.19-.001.285v5.364c0 .095.002.19-.002.285-.006.161-.033.19-.182.198-.071.004-.142.002-.213.002-.166.001-.332-.002-.497.003-.13.005-.163.039-.166.177-.006.166-.003.331-.003.497 0 .402.024.386-.387.386h-3.483c-.13 0-.26.01-.39.016l-.004.002Zm.038-11.1v-5.4c0-.106 0-.213.006-.319.004-.066.043-.11.112-.114a5.15 5.15 0 0 1 .284-.008h2.345c.095 0 .19 0 .284-.006.065-.004.116-.039.116-.108.004-.272.006-.544.003-.816 0-.065-.039-.11-.109-.117a1.98 1.98 0 0 0-.177-.008h-2.593c-.06 0-.122-.005-.176.013-.038.012-.085.054-.093.09-.019.08-.018.164-.02.246-.004.19-.003.379-.006.569-.002.082-.05.132-.133.135-.178.005-.355.006-.533.006-.383 0-.366-.01-.366.372v10.906c0 .083 0 .166.007.248.006.066.047.11.115.11.178.005.355.007.533.007.419 0 .4.038.4-.407v-5.4l.001.001Zm11.106-5.841h1.207c.083 0 .166 0 .248-.005.065-.004.117-.037.118-.106.005-.272.006-.544.004-.816 0-.085-.06-.123-.141-.126l-.071-.002c-.911 0-1.822-.002-2.733 0-.187 0-.218.036-.223.235-.004.165 0 .331-.001.497-.003.215-.117.323-.343.326h-.426c-.059 0-.118 0-.177.004-.068.005-.113.047-.113.113-.002.627-.002 1.253 0 1.88 0 .066.041.115.109.116.284.003.568.004.852 0 .066 0 .105-.05.109-.116a3.42 3.42 0 0 0 .007-.248v-1.35c0-.094 0-.189.006-.283.004-.066.044-.109.113-.113.082-.005.165-.008.248-.008h1.207v.002Zm-2.099 3.194h-.423c-.065.001-.124.03-.125.097-.004.282-.002.564.005.846.001.064.057.102.122.103.27.003.541.004.813.002.084 0 .128-.056.129-.136.002-.26.002-.518 0-.778-.001-.08-.048-.132-.132-.134-.129-.003-.259 0-.388 0h-.001Zm-9.495 9.524c-.142 0-.283-.002-.425 0-.081 0-.136.04-.137.127-.002.26-.002.518-.001.778 0 .08.042.138.126.14.259.003.518.004.778 0 .097-.003.141-.055.143-.167.005-.247.003-.495 0-.742-.001-.082-.047-.133-.131-.136-.117-.004-.235 0-.353 0ZM60.383 66.186c-.006.141-.02.283-.02.425v5.508c0 .427.022.405-.406.406-.178 0-.355 0-.532.006-.066.002-.11.045-.115.112a3.536 3.536 0 0 0-.01.249c0 .166.003.332-.001.497-.006.162-.032.19-.186.195-.166.006-.332.002-.498.003-.083 0-.166 0-.249.006-.083.005-.124.06-.129.14-.003.06-.003.119-.003.178v.426c-.004.312-.005.315-.319.316-.627.002-1.256 0-1.884 0h-8.957c-.154 0-.308.007-.462.01-.296-.004-.592-.006-.888-.014-.137-.003-.164-.03-.168-.172-.005-.166-.002-.332-.002-.497-.002-.43.029-.393-.412-.395-.166 0-.332.002-.498-.004-.113-.003-.147-.037-.15-.152a65.3 65.3 0 0 1-.018-1.137c-.003-.52 0-1.043 0-1.564 0-.07 0-.142.006-.213.006-.083.058-.126.14-.131.07-.005.141-.005.212-.005h.356c.369 0 .349.012.35-.349 0-.19 0-.379.005-.568.002-.08.048-.134.13-.139.107-.005.214-.006.32-.006H52.5c.486 0 .437.05.439-.437.001-.474.002-.947-.002-1.422-.001-.159-.028-.184-.187-.188-.426-.01-.852-.023-1.278-.024a3374.57 3374.57 0 0 0-5.511 0c-.442 0-.407.022-.408-.401 0-.142.002-.285 0-.427-.006-.208-.023-.228-.219-.232-.213-.005-.426.001-.64-.003-.178-.004-.198-.025-.201-.212-.005-.237-.003-.473-.006-.71 0-.086-.048-.132-.132-.133-.226-.003-.45-.002-.675-.005-.238-.004-.246-.012-.25-.236-.007-.379-.016-.758-.016-1.137-.002-1.872 0-3.743-.001-5.616 0-.446-.019-.431.423-.43.142 0 .285.002.427-.001.193-.005.207-.018.212-.2.004-.142 0-.284.001-.426 0-.084-.001-.166.003-.25.01-.147.041-.179.2-.183.166-.005.332-.002.498-.003.083 0 .166 0 .249-.006.068-.005.108-.049.11-.116.003-.178.002-.355.004-.532.001-.095.002-.19.01-.284.005-.066.047-.108.113-.114.083-.007.166-.01.249-.01H56.97c.343 0 .687.009 1.03.014.259.004.266.01.27.253.004.19-.002.38.002.569.005.217.023.234.253.238.213.003.427-.002.64.003.13.003.166.04.17.173.01.296.015.591.021.888-.09.141-.048.3-.05.45-.004.462 0 .924-.003 1.385-.001.23-.02.248-.239.253-.201.004-.403-.002-.603.004-.169.004-.215.049-.22.21-.007.177-.001.354-.004.532-.002.21-.107.315-.315.318h-6.609c-.106 0-.213-.002-.32.003-.112.006-.153.04-.153.15.002.307.013.615.02.922-.006.294-.016.59-.017.885 0 .126.039.155.18.16.095.005.189.002.284.002h6.532c.418 0 .437-.047.433.42-.001.142-.003.284.002.426.005.181.03.21.202.214.177.004.355.002.533.002.071 0 .142 0 .212.006.067.007.109.05.11.117.005.177.005.355.008.532.001.083-.001.166.004.248.007.107.048.151.152.155.153.006.308.003.462.004.083 0 .166-.002.248.002.133.008.16.034.164.177.008.296.013.591.019.887l-.005.005Zm-13.76-8.45c.141-.006.283-.016.424-.017h7.568c.095 0 .19.002.285-.003.141-.007.172-.033.175-.165.005-.225.006-.45.002-.675-.003-.187-.023-.205-.202-.212-.072-.003-.143-.001-.214-.001h-7.603c-.095 0-.19-.001-.284.004-.114.006-.15.038-.15.15-.003.308.002.616.003.923-.296-.005-.592-.013-.888-.012-.15 0-.175.032-.18.195-.005.143-.002.285-.002.427 0 .083.002.166-.004.249-.006.11-.043.15-.15.155-.165.005-.331.005-.497.004-.456-.005-.41.02-.41.407-.002 1.504 0 3.01 0 4.513 0 .083 0 .166.003.25.003.085.057.126.138.127.178.003.356.003.534.003.401 0 .382.028.382-.389V59.12c.002-.225.11-.34.326-.342.13-.002.26 0 .39 0 .228-.002.343-.113.345-.33l.01-.711-.001-.001Zm10.052-1.069h-.39c-.08.002-.135.042-.136.128-.002.26-.002.519 0 .778 0 .08.042.138.126.139.259.003.518.003.778 0 .08-.001.137-.052.139-.132.006-.26.005-.519.004-.778 0-.082-.048-.132-.132-.135-.13-.003-.259 0-.389 0ZM132.36 71.458c-.006.414-.014.827-.018 1.24-.003.237.002.474-.003.71-.003.14-.035.172-.166.176-.177.006-.355.002-.532.004-.071 0-.142-.001-.213.005-.104.008-.142.045-.145.16-.005.177-.002.355-.004.532 0 .083.001.166-.006.248-.006.064-.046.11-.115.113a7.06 7.06 0 0 1-.354.008l-12.815.001c-.153 0-.308.007-.461.01-.296-.004-.592-.006-.889-.014-.137-.003-.163-.03-.167-.171-.005-.166-.002-.333-.002-.498-.002-.43.029-.392-.412-.395-.166 0-.332.002-.498-.003-.113-.004-.147-.038-.15-.153a57.28 57.28 0 0 1-.018-1.243c-.002-5.036-.001-10.072-.001-15.107 0-.469-.025-.435.45-.437.166 0 .332 0 .498-.005.068-.003.109-.048.11-.115.004-.178.003-.355.004-.532.002-.095.003-.19.01-.284.005-.066.048-.108.114-.114.082-.008.165-.01.248-.01h12.124c.344 0 .687.007 1.03.013.266.004.268.005.272.288.002.19-.003.38.002.568.004.171.034.199.216.203.225.005.45.002.675.006.083.002.133.048.135.132.003.178.001.356.005.533.003.13.012.26.018.39-.008.117-.022.235-.023.352-.003.498.001.994-.002 1.491-.001.23-.017.243-.24.25-.071.002-.142 0-.213 0-.142 0-.284-.003-.426.005-.123.006-.17.052-.176.177-.008.154-.005.308-.005.461-.001.45.026.419-.428.42h-6.497c-.107 0-.214-.002-.32.003-.112.006-.153.041-.152.152.002.306.012.613.019.92-.006.295-.016.59-.016.886 0 .126.038.155.178.161.094.004.189.002.284.002h5.5c.429 0 .406-.035.406.4 0 .153-.003.307.002.46.005.174.028.196.215.2.225.003.45-.002.674.003.131.003.163.037.166.175.009.295.013.59.019.886-.07.094-.047.204-.05.308-.003.201 0 .403-.006.603-.003.104-.048.144-.156.152-.058.004-.119.003-.177.003-.166.001-.331-.003-.497.003-.151.005-.18.036-.185.196-.005.189 0 .379-.003.568-.004.228-.023.247-.237.255-.095.002-.189 0-.284 0h-5.36c-.107 0-.214-.002-.32.005-.119.01-.172.059-.172.181 0 .307.011.614.017.92-.005.284-.014.567-.014.851 0 .13.037.16.175.166.106.004.213.001.32.001h7.525c.479 0 .433-.04.444.438.004.196-.051.4.046.59.186.011.373.024.56.033.106.005.212.002.319.005.085.003.127.055.13.136.004.095.002.189.004.284l.015.638-.001.001Zm-15.887-7.428v5.902c0 .095-.002.19.002.284.006.143.033.175.162.177.237.005.475.006.712.001.151-.003.174-.032.18-.198.003-.106.001-.213.001-.32v-11.66c0-.12 0-.238.004-.356.002-.083.045-.134.13-.137.118-.005.237-.006.355-.006l8.428-.001c.187 0 .374-.02.562-.031.105-.188.046-.392.049-.588.008-.482.045-.433-.441-.433h-8.641c-.083 0-.166-.003-.249.001-.16.007-.186.03-.19.187-.005.225 0 .45-.006.675-.004.13-.041.165-.173.17-.155.006-.309.003-.463.003-.481-.003-.421.01-.422.43-.002 1.967 0 3.933 0 5.901Zm.002 7.943c0 .13-.004.259.001.388.003.115.038.153.144.155.259.004.517.003.776 0 .085 0 .129-.053.13-.134.002-.259.003-.518 0-.776-.002-.102-.044-.135-.162-.14a8.463 8.463 0 0 0-.387-.002c-.573.006-.496-.07-.501.51h-.001Zm12.201-15.307c-.13 0-.259-.004-.389 0-.117.005-.153.036-.155.145-.004.248-.005.495-.001.743.001.116.038.157.143.159.248.004.495.004.743 0 .106-.002.153-.049.159-.15a5.6 5.6 0 0 0 .006-.39c-.004-.587.062-.503-.506-.508ZM172.593 57.718c-.004.142-.011.284-.011.426v6.47c0 .564.025.51-.527.511-.107 0-.214-.002-.32.002-.189.007-.209.024-.214.202-.005.154-.002.309-.002.463 0 .07.002.142-.004.213-.009.128-.049.171-.174.179-.13.007-.261.004-.392.005h-.178c-.207.003-.312.109-.315.318-.001.154.003.308-.001.462-.005.254-.027.275-.294.281-.19.004-.38 0-.569 0-.356 0-.712-.001-1.067.003-.155.002-.186.036-.194.189-.004.095-.002.19-.002.285v5.475c.001.41.016.387-.387.387-.166 0-.332-.003-.498.003-.138.004-.17.035-.175.167-.006.166-.002.332-.003.498 0 .083.001.166-.005.25-.007.105-.044.14-.158.146-.107.005-.214.004-.321.004h-4.481c-.106 0-.212.006-.319.01-.296-.005-.593-.007-.888-.014-.138-.004-.165-.03-.168-.172-.005-.213 0-.427-.004-.64-.003-.247-.006-.248-.269-.252-.213-.003-.426 0-.64-.005-.112-.003-.147-.038-.149-.153a64.016 64.016 0 0 1-.018-1.315c-.003-1.481 0-2.962-.001-4.444 0-.435.031-.397-.405-.401-.497-.005-.995-.014-1.492-.025-.17-.003-.205-.041-.209-.215-.005-.225 0-.45-.005-.675-.003-.134-.033-.161-.174-.165-.178-.005-.356-.002-.534-.003-.059 0-.118 0-.178-.003-.13-.01-.17-.044-.175-.174-.006-.19-.003-.38-.004-.568 0-.06-.001-.119-.004-.178-.004-.083-.046-.133-.132-.134a29.926 29.926 0 0 0-.569-.003c-.361.001-.357.01-.358-.344l-.02-7.714v-.142c.007-.261.022-.277.288-.281.213-.004.427-.002.64-.004.084 0 .131-.048.133-.132.003-.19.002-.38.003-.57 0-.07 0-.141.006-.213.005-.081.05-.132.132-.137.094-.007.19-.006.285-.006 1.185 0 2.37-.002 3.556 0 .391 0 .782.007 1.173.015.156.002.182.03.185.19.005.238 0 .475.005.711.003.112.04.152.15.154.249.006.498.002.747.007.113.002.153.042.158.147.005.095.004.19.004.285 0 .971-.003 1.943 0 2.915.002.556.012 1.114.019 1.67 0 .047-.005.099.012.14a.165.165 0 0 0 .089.089c.055.017.118.012.177.012h1.494c.059 0 .121.004.175-.013.037-.012.083-.055.088-.09.014-.105.012-.213.012-.319V57.09c0-.47-.02-.438.446-.447.198-.004.401.052.592-.047.009-.188.024-.375.026-.564.004-.475-.027-.449.44-.449h3.521c.379 0 .758.008 1.137.014.223.004.232.014.236.25.004.225.002.45.006.675.002.083.053.13.136.131.19.003.379.003.569.005.071 0 .142 0 .213.004.082.005.132.05.135.133.004.095.003.19.006.284l.014.64h-.001Zm-5.33 2.084c0-.522-.003-1.043.001-1.564.005-.6-.075-.515.537-.518.747-.005 1.494-.001 2.24-.002.095 0 .189 0 .284-.006.065-.004.116-.042.117-.11a37.12 37.12 0 0 0 0-.817c0-.067-.044-.11-.11-.115-.082-.007-.166-.007-.248-.007h-2.454c-.071 0-.142-.002-.213.004-.108.007-.142.041-.145.157-.005.226 0 .451-.006.676-.003.158-.035.19-.185.196-.178.006-.356.001-.533.003-.338.004-.341.004-.341.333-.002 1.197 0 2.394 0 3.591 0 .06 0 .119.004.178.006.085.056.128.138.13h.782c.086-.002.126-.056.129-.139.003-.095.003-.19.003-.284V59.8v.001Zm-9.526.025v-1.704c0-.095.003-.19.008-.284.004-.068.044-.11.11-.115.094-.007.189-.006.284-.006h2.38c.094 0 .189 0 .283-.007.067-.004.114-.045.115-.11a31.7 31.7 0 0 0-.001-.816c0-.068-.044-.109-.11-.114-.082-.007-.165-.007-.248-.007h-2.45c-.071 0-.142-.001-.213.003-.107.007-.145.043-.149.155-.005.19-.001.379-.003.568-.005.305-.006.306-.326.31-.142.001-.283-.002-.426 0-.307.004-.314.01-.314.323v3.586c0 .07.002.141.008.212.006.07.054.108.118.108.272.003.544.001.817-.002.067 0 .108-.046.112-.112.005-.094.006-.189.006-.283v-1.705h-.001Zm-1.056 3.652c0 .153-.003.306.001.459.002.066.045.112.111.113.271.004.542.004.813.001.085 0 .126-.056.127-.136.002-.26.002-.518 0-.777-.001-.082-.047-.132-.13-.134a16.033 16.033 0 0 0-.46-.003c-.52.003-.464-.057-.461.477h-.001ZM100.619 71.46c-.004.58-.01 1.159-.012 1.74-.001.412.015.388-.383.389-.178 0-.355-.002-.533.004-.11.004-.145.04-.147.157-.006.248-.002.497-.007.745-.003.117-.038.15-.148.156-.106.006-.212.004-.32.004H87.282c-.153 0-.307.006-.46.01-.297-.005-.593-.006-.889-.013-.136-.003-.162-.033-.169-.172-.004-.083.002-.166-.003-.249-.01-.198-.023-.397-.034-.596-.19-.095-.394-.028-.59-.047-.07-.007-.143 0-.214-.002-.174-.007-.213-.04-.218-.205-.007-.201 0-.403-.004-.604-.005-.23-.02-.246-.238-.25-.213-.005-.427 0-.64-.005-.108-.003-.147-.043-.15-.154-.007-.414-.016-.829-.016-1.243-.002-4.325 0-8.649-.001-12.973 0-.467-.022-.446.444-.446.142 0 .284.003.427-.003.143-.006.181-.046.188-.198.004-.095.001-.19.001-.285 0-.118-.003-.237.003-.355.007-.178.037-.21.205-.219.095-.005.19-.002.284-.002.119 0 .238.002.356-.002.142-.006.17-.03.175-.165.005-.13.002-.26.002-.391 0-.107-.002-.214.003-.32.007-.136.042-.172.166-.181.071-.005.142-.004.214-.004H98.21c.38 0 .758.008 1.138.015.161.003.186.028.19.186.005.154.002.308.002.462.001.438-.032.412.396.412.166 0 .332-.003.498.003.138.004.165.033.171.17.005.094.001.189.003.284l.013.604-.013 1.598c-.001.107.002.214-.003.32-.006.134-.036.167-.172.17-.225.007-.45 0-.675.006-.186.004-.21.027-.215.2-.005.143-.002.285-.002.427-.001.476.036.433-.447.433h-7.57c-.483 0-.448-.04-.448.432v7.603c0 .083-.001.166.003.25.007.136.035.17.169.172.295.002.592-.005.887-.008.143.005.284.013.426.013h6.542c.481 0 .428-.04.44.442.005.196-.054.4.048.589.188.01.375.023.562.031.107.005.214.002.32.005.086.002.129.052.131.135.003.095.003.19.004.285l.012.64h-.001Zm-13.81-13.725c.141-.005.284-.015.425-.015l8.639-.001c.119 0 .237-.002.355-.007.068-.003.111-.047.113-.113.006-.19.006-.379.006-.568.001-.383.018-.366-.369-.366h-8.78c-.084 0-.167 0-.25.005-.065.006-.11.044-.114.113-.005.082-.006.165-.007.248l-.013.71c-.283-.004-.566-.012-.85-.01-.12 0-.162.035-.164.137a22.78 22.78 0 0 0 0 .744c.001.082.05.133.134.134.236.004.472.007.708.002.151-.003.177-.03.178-.198.001-.27-.007-.542-.01-.814h-.001Zm-1.05 6.348c0-1.562.002-3.124-.001-4.686 0-.187-.022-.373-.035-.56-.189-.102-.393-.044-.588-.049-.425-.01-.401-.024-.401.406v9.727c0 .083-.002.166.003.248.007.132.034.158.177.163.153.004.308.002.462.002.402 0 .383.024.383-.388v-4.864Zm12.71-6.892v-.392c-.002-.085-.051-.13-.134-.132-.261-.002-.522-.002-.782 0-.083 0-.133.047-.134.132-.002.261-.002.521 0 .782 0 .084.05.133.133.133.261.003.522.003.782 0 .083 0 .132-.05.133-.133.003-.13.001-.26.001-.391Zm-13.73 13.721c0 .141-.003.283.002.423.002.064.04.115.109.115.258.004.516.005.775.004.083 0 .129-.053.13-.134.002-.259.002-.517 0-.776-.001-.08-.044-.133-.129-.136a8.638 8.638 0 0 0-.388-.006c-.572.006-.498-.067-.5.51h.001ZM152.472 57.719c-.004.414-.01.828-.012 1.243-.003.52 0 1.042 0 1.563 0 .071 0 .142-.005.213-.005.084-.055.128-.137.13-.166.004-.332.004-.497.005-.454.001-.423-.036-.424.421 0 .155.002.309-.003.462-.004.143-.032.17-.164.177-.095.005-.19.003-.285.003h-3.448c-.35 0-.353.002-.353.35V73.09c0 .106.003.213-.003.319-.006.134-.04.17-.169.175-.178.006-.356.002-.533.004-.071 0-.142 0-.214.004-.082.004-.131.05-.137.132-.006.082-.006.165-.006.248 0 .154.003.308-.001.462-.005.18-.034.21-.202.218-.094.005-.189.002-.284.002h-3.554c-.059 0-.118.006-.177.01-.297-.004-.592-.006-.889-.013-.136-.003-.166-.033-.169-.171-.005-.214 0-.427-.003-.64-.004-.246-.008-.249-.268-.252-.213-.003-.427 0-.64-.005-.111-.003-.148-.04-.15-.152-.009-.45-.021-.9-.021-1.35v-9.705c-.003-.465.038-.419-.42-.421l-3.448-.016c-.06 0-.119 0-.178-.003-.114-.009-.148-.039-.154-.15-.005-.095-.003-.19-.003-.285-.001-.142.003-.284-.003-.426-.006-.15-.046-.192-.191-.197-.166-.006-.332-.001-.498-.003-.083 0-.166-.001-.248-.006-.066-.005-.108-.042-.115-.11a1.661 1.661 0 0 1-.007-.142c-.006-1.22-.01-2.44-.014-3.66l.001-.107c.01-.172.036-.2.217-.205.154-.005.308-.002.463-.002.253-.002.38-.124.382-.367.001-.177-.001-.355.006-.532.004-.11.044-.15.15-.158.094-.007.19-.005.285-.005h14.08c.38 0 .758.007 1.138.014.214.003.227.015.231.217.004.225-.001.45.004.675.003.133.034.162.175.165.249.005.498.003.746.007.083.002.131.05.134.133.003.095.002.19.004.285l.014.64-.003.003Zm-10.036-1.055h-5.365c-.095 0-.19-.003-.285.001-.163.007-.189.028-.192.183-.006.225 0 .45-.006.675-.004.131-.042.17-.171.174-.212.006-.426 0-.639.004-.235.005-.252.018-.252.234-.003.545-.001 1.09 0 1.634 0 .048-.005.099.012.14.016.037.059.088.09.088.284.008.568.009.851.004.067 0 .099-.058.103-.123.004-.083.005-.165.005-.248 0-.462-.002-.923.001-1.385.001-.32.003-.32.306-.325h10.837a7.1 7.1 0 0 0 .355-.008.113.113 0 0 0 .114-.112c.005-.178.006-.355.005-.533 0-.432.03-.401-.404-.401h-5.365v-.002Zm7.891.515h-.002c0-.13.002-.26-.001-.39-.001-.067-.039-.116-.107-.117a33.21 33.21 0 0 0-.817-.003c-.064 0-.116.037-.118.107-.004.272-.005.544-.004.816 0 .066.042.116.109.117.272.005.545.005.817.002.085 0 .122-.061.124-.142v-.39h-.001ZM113.818 51.362c-.273-.005-.545-.008-.817-.014-.226-.005-.232-.01-.237-.249-.003-.19.002-.38-.002-.568-.004-.213-.028-.235-.256-.24-.178-.005-.355 0-.533-.002-.036 0-.071 0-.107-.003-.116-.008-.152-.04-.161-.143-.003-.036-.003-.072-.003-.107l-.014-3.696c0-.048 0-.095.004-.143.007-.081.05-.133.133-.137.143-.005.285-.004.427-.006.571-.007.49.07.497-.484.002-.13-.002-.261.004-.392.007-.148.04-.177.198-.185.095-.004.19-.002.285-.002h3.377c.358 0 .349.02.349-.349v-10.77c0-.107-.003-.214.003-.32.009-.159.055-.205.224-.21.201-.007.403 0 .605-.004.224-.003.229-.008.232-.25.002-.202-.003-.403.002-.604.005-.176.035-.202.212-.21.095-.004.189-.001.284-.001 1.47 0 2.939-.002 4.409 0 .426 0 .853.01 1.279.02.175.004.206.035.21.212.006.226 0 .451.005.675.003.14.032.17.166.174.19.005.38.001.569.004.071 0 .144-.003.212.015.037.01.08.055.091.092.018.067.017.14.019.21.004.25.006.498.008.747-.075.132-.04.278-.04.417-.002 4.608-.001 9.215-.001 13.823 0 .107.002.214-.002.32-.007.206-.028.23-.221.235-.202.005-.404-.001-.604.004-.186.005-.227.046-.233.234-.006.178 0 .356-.003.533-.004.283-.011.288-.308.293-.166.002-.332-.003-.498.002-.185.004-.21.029-.216.201-.004.142-.001.285-.001.426-.002.477.034.433-.448.433h-8.637c-.154 0-.308.012-.461.018h-.001Zm.026-4.217c-.295-.003-.59-.01-.885-.008-.158 0-.186.029-.187.186-.004.437-.005.874-.001 1.31.001.188.016.375.025.563.188.102.392.044.588.05.486.013.44.003.443-.442l.013-1.663 1.67-.011c.095 0 .189-.002.284-.005.083-.002.139-.05.141-.129.006-.26.005-.52 0-.78-.001-.076-.044-.133-.132-.138-.024-.001-.047-.004-.071-.004-.568 0-1.137-.001-1.705.002-.162 0-.192.029-.193.183-.001.296.007.591.011.888l-.001-.002Zm5.262-12.73c-.213.004-.426.008-.64.01-.452.003-.418-.039-.418.424v7.426c0 .119-.002.237 0 .355.005.237.013.246.235.251.13.003.26.002.391 0 .481-.003.434.043.434-.442V34.8c0-.13-.005-.26-.007-.39l2.978.009c.024 0 .047-.001.071-.003.08-.005.138-.04.139-.126.003-.26.006-.52.002-.78-.002-.106-.042-.137-.159-.143-.083-.005-.166-.003-.249-.003h-2.411c-.371-.003-.358-.001-.358.342 0 .236-.005.472-.008.708v.001Zm-.543 10.586c.142 0 .283.002.424-.001.066-.002.114-.042.114-.109.005-.27.005-.542.003-.812 0-.064-.033-.119-.103-.12a31.879 31.879 0 0 0-.847.002c-.069 0-.1.059-.102.122-.004.142-.005.283-.004.424.006.573-.067.492.515.494ZM112.27 57.719c-.016.056-.043.111-.047.167-.008.106-.003.213-.003.32v14.883c0 .106.002.213-.003.319-.007.134-.04.17-.169.176-.13.005-.26.003-.391.003-.106 0-.213-.003-.319.002-.133.007-.17.04-.176.169-.006.13-.003.26-.004.39 0 .095.002.19-.002.284-.007.19-.033.213-.236.22-.083.004-.166.002-.249.002h-4.37c-.142 0-.284.006-.426.01-.296-.004-.592-.006-.888-.013-.135-.003-.163-.034-.168-.172-.004-.166-.002-.332-.002-.498-.002-.428.027-.392-.411-.394-.166-.001-.332.001-.498-.004-.111-.004-.147-.04-.15-.153-.01-.426-.023-.852-.023-1.278l-.001-15.064c0-.47-.021-.44.444-.448.197-.004.401.051.591-.045.01-.188.026-.375.028-.563.004-.475-.029-.45.436-.45h4.585c.391 0 .782.007 1.172.015.178.003.198.026.202.212.004.226-.001.45.004.675.003.132.039.167.173.17.237.005.474 0 .711.005.13.003.166.04.171.172.01.296.013.591.019.887Zm-6.391 5.812c0-1.776-.002-3.553.001-5.329 0-.549-.062-.48.5-.483.758-.003 1.516 0 2.274 0 .095 0 .19 0 .284-.006.064-.004.118-.04.118-.107.005-.272.004-.544.002-.817 0-.067-.041-.111-.108-.118-.07-.007-.141-.007-.212-.007h-2.523c-.072 0-.143 0-.213.006-.066.006-.108.046-.111.114-.006.094-.006.189-.007.284-.001.154.002.308-.004.461-.006.128-.043.162-.178.167-.177.006-.355.002-.532.004-.346.003-.348.003-.348.361v10.907c0 .083.002.166.008.248.004.069.048.11.114.113.177.006.355.006.532.006.434 0 .402.03.402-.404v-5.4h.001Zm-.003 7.398c0-.13.002-.26 0-.388-.002-.082-.045-.134-.129-.135a69.084 69.084 0 0 0-.775-.001c-.079 0-.141.037-.142.121-.004.27-.003.54 0 .81.001.066.045.113.11.114.27.005.54.005.811.002.085 0 .124-.057.126-.137.002-.129 0-.258 0-.387h-.001Z" fill="#816FFF"/><path d="M93.698 51.362c.154-.006.307-.017.461-.017l11.797-.001c.523 0 .471.054.477-.477.007-.672-.094-.578.582-.584.472-.005.439.029.44-.445 0-.13-.004-.26.002-.39.007-.182.048-.22.241-.226.155-.004.309 0 .462-.001.071 0 .142 0 .213-.005.081-.005.134-.049.138-.132.006-.117.006-.236.006-.355l.001-12.788c0-.154.014-.306.022-.46.297.003.592.003.889.009.11.002.144.04.149.153.006.094.004.19.004.284v13.925c0 .475.034.437-.442.439-.154 0-.308-.002-.462.007-.101.005-.146.057-.153.16-.007.095.003.19-.007.284-.021.195.061.401-.061.585-.188.008-.376.018-.564.025-.072.003-.143-.001-.214.002-.17.008-.213.045-.218.209-.008.236-.004.473-.009.71-.001.08-.048.131-.131.136a6.114 6.114 0 0 1-.284.005H94.14c-.476 0-.428.037-.432-.447l-.008-.604h-.002ZM113.818 51.362c.153-.006.307-.017.461-.017l8.637-.001c.483 0 .447.044.448-.433 0-.142-.003-.284.001-.426.006-.173.031-.196.217-.202.166-.004.332 0 .497-.002.297-.004.303-.01.308-.292.003-.178-.003-.356.003-.533.006-.188.047-.23.233-.234.201-.006.403.001.604-.004.194-.005.215-.03.221-.235.004-.107.002-.213.002-.32l.001-13.823c0-.14-.035-.285.04-.418.273 0 .546-.003.818 0 .174.004.197.032.204.214.003.083.002.166.002.249v14.932c0 .521.045.469-.484.472-.106 0-.213-.003-.32 0-.219.008-.25.035-.255.246-.005.213 0 .427-.005.64-.004.131-.04.167-.172.17-.226.006-.451.001-.676.007-.133.004-.17.04-.173.171-.006.237 0 .474-.006.71-.003.138-.036.17-.168.176-.095.005-.19.003-.285.003h-9.672c-.524 0-.465.05-.47-.483-.002-.19-.007-.378-.01-.568h-.001ZM53.458 51.362c.153-.006.307-.017.46-.017l11.791-.001c.53 0 .472.053.48-.472.008-.68-.097-.58.573-.59.119-.001.238 0 .355-.006.085-.004.128-.058.13-.14.003-.224 0-.45.005-.674.005-.192.042-.233.226-.24.225-.007.45-.001.675-.007.108-.003.15-.046.157-.15.006-.106.004-.212.004-.32v-6.497c0-.142.007-.284.01-.426.285 0 .569-.003.853.002.146.003.189.05.197.193.005.082.002.166.002.248V49.975c-.002.23-.125.346-.366.349-.154.001-.308-.002-.462.001-.21.005-.228.021-.232.22-.005.178 0 .355-.003.533-.004.262-.01.268-.288.272-.201.003-.402-.001-.604.004-.133.003-.164.035-.167.173-.006.248-.004.497-.007.746 0 .083-.048.13-.132.135-.095.005-.19.005-.284.005H53.863c-.42 0-.398.021-.398-.413 0-.214-.005-.426-.007-.64v.003ZM160.37 51.36c.13-.005.259-.015.39-.015 1.16-.002 2.321-.001 3.481 0 .412 0 .389.016.389-.385 0-.142-.002-.285.001-.426.005-.232.019-.247.238-.251.201-.004.402.002.604-.003.195-.005.214-.027.22-.233.003-.107.001-.213.001-.32V34.882c0-.153.008-.307.012-.46.297 0 .593 0 .889.004.117.002.151.037.158.146.006.094.003.19.003.284v16.062c0 .472.039.43-.448.433-.154 0-.308-.002-.462.003-.107.004-.145.044-.149.156-.005.166-.002.332-.003.497-.001.095-.002.19-.008.284-.003.067-.045.108-.112.114a2.23 2.23 0 0 1-.212.008h-4.657c-.325 0-.325-.003-.327-.341l-.008-.71ZM83.11 51.362c.13-.006.26-.017.39-.017 1.16-.002 2.321-.002 3.481 0 .409 0 .393.014.392-.384 0-.154-.003-.308.001-.462.005-.181.031-.21.202-.216.142-.004.284-.001.426-.001.083 0 .166.002.249-.001.146-.008.178-.041.184-.2.004-.106.001-.213.001-.319V35.948c0-.154.006-.308.009-.462.296 0 .592-.002.888.002.114.002.152.04.16.146.005.094.003.188.003.283V50.94c0 .445.025.45-.45.444a11.348 11.348 0 0 0-.354 0c-.237.007-.251.021-.257.272-.003.19.002.379-.003.568-.005.154-.035.18-.194.187-.083.004-.166.001-.249.001h-4.44c-.475 0-.43.037-.433-.446l-.007-.604h.001ZM140.283 51.362c.141-.006.283-.017.424-.017h3.409c.41 0 .391.017.392-.383 0-.166-.002-.331.005-.496.005-.124.054-.174.176-.178.236-.007.473-.003.71-.009.132-.004.164-.039.169-.173.006-.117.003-.236.003-.355l.001-13.81c0-.153.012-.306.018-.46.296.002.592.001.888.007.113.002.147.04.154.15.005.094.004.19.004.284v14.99c0 .477.039.436-.441.44-.154 0-.308-.002-.461.006-.104.005-.15.053-.154.158-.008.165-.004.331-.006.497-.002.095-.003.189-.009.284-.005.067-.049.106-.115.11a3.463 3.463 0 0 1-.248.008h-4.548c-.378 0-.361.008-.362-.377 0-.224-.006-.45-.009-.674v-.002ZM92.135 69.322c-.296.003-.592.009-.888.007-.133 0-.162-.035-.169-.172-.004-.083-.002-.166-.002-.25v-7.602c0-.473-.036-.432.448-.432h7.57c.482 0 .445.043.447-.434 0-.142-.003-.284.001-.426.005-.174.03-.197.216-.2.225-.005.45 0 .675-.006.136-.004.165-.036.172-.171.005-.107.002-.213.003-.32l.013-1.598c.296.003.592.004.888.01.11.002.15.044.158.149.005.07.004.142.004.213v2.417c0 .07.001.142-.003.213-.008.112-.043.15-.152.155-.154.006-.308.004-.461.004-.083 0-.166-.002-.249.002-.16.007-.192.034-.195.184-.005.214.001.427-.003.64-.005.22-.018.231-.251.237-.094.002-.189 0-.284 0h-7.43c-.57 0-.501-.067-.502.52-.003 2.287-.003 4.573-.004 6.86h-.002ZM73.579 51.362c.13-.006.26-.017.39-.017 1.16-.002 2.322-.001 3.483 0 .412 0 .394.016.393-.381 0-.142-.002-.285 0-.426.005-.239.017-.25.27-.255.202-.002.404.003.604-.002.15-.004.18-.039.186-.196.005-.095.002-.19.002-.285v-5.365c0-.095-.002-.19.001-.285.007-.178.027-.202.215-.202.283-.001.568.008.852.012-.002 1.007-.005 2.014-.005 3.02v3.979c0 .4.016.393-.385.39-.154 0-.308-.002-.462.002-.185.005-.21.028-.215.202-.004.178 0 .355-.002.533 0 .07-.003.142-.009.212-.006.07-.054.103-.118.11-.07.005-.143.004-.213.004h-4.62c-.377 0-.361.006-.361-.376 0-.225-.004-.45-.006-.675ZM150.839 51.36c.13-.005.26-.016.39-.016h3.482c.412 0 .388.017.388-.386 0-.166-.003-.331.002-.497.005-.138.037-.172.166-.176.166-.005.332-.002.497-.003.072 0 .143.001.214-.002.149-.008.176-.037.182-.199.004-.095.002-.19.002-.285v-5.364c0-.095-.003-.19.001-.284.006-.167.029-.199.18-.199.296 0 .592.008.887.013-.001.343-.005.687-.005 1.03v5.967c0 .403.025.393-.382.392-.166 0-.332-.003-.498.002-.154.006-.178.03-.181.197-.005.236 0 .473-.006.71-.003.11-.04.143-.153.15-.083.005-.166.003-.249.003h-4.512c-.414 0-.398.027-.398-.413 0-.212-.005-.426-.007-.638v-.001ZM130.751 51.362c.142-.006.283-.017.425-.017h3.409c.411 0 .392.017.392-.382 0-.165-.003-.331.004-.496.005-.126.053-.175.175-.18.236-.006.473-.002.71-.008.132-.004.164-.039.17-.171.005-.106.003-.213.003-.32v-5.43c0-.431-.027-.414.398-.41.225.001.449.01.674.015-.002.142-.008.284-.008.426v6.53c0 .475.037.43-.447.433-.142 0-.284-.003-.426.004-.143.007-.182.049-.186.201-.006.177-.001.355-.003.532-.002.215-.116.323-.341.326h-4.509c-.474 0-.427.037-.432-.448-.001-.2-.006-.401-.009-.603l.001-.002ZM50.855 61.948c-.008-.307-.018-.614-.02-.921 0-.11.041-.145.154-.15.106-.006.213-.004.319-.004h6.608c.208-.003.313-.108.316-.317.002-.178-.004-.356.003-.533.006-.161.053-.205.22-.21.201-.006.403 0 .604-.004.218-.005.236-.022.239-.252.003-.462-.003-.924.003-1.385.002-.15-.04-.31.05-.45.285.001.57 0 .853.007.113.002.148.041.156.15.005.07.003.142.003.213v2.418c0 .07.002.142-.003.213-.008.11-.043.149-.152.153-.166.006-.332.003-.498.004-.083 0-.166-.001-.248.006-.099.008-.148.056-.153.16-.008.154-.006.308-.006.462-.002.471.032.434-.45.434H51.14c-.095 0-.19.004-.285.007v-.001ZM122.838 61.948c-.008-.307-.018-.614-.02-.92 0-.11.041-.146.153-.151.106-.006.213-.004.319-.004h6.498c.455 0 .427.03.427-.42 0-.154-.002-.307.005-.46.007-.126.054-.172.177-.178.141-.008.284-.004.426-.005.071 0 .142.002.213 0 .223-.008.238-.02.24-.25.003-.497 0-.993.002-1.49 0-.118.015-.235.023-.353.261.002.521.003.782.008.241.004.251.014.255.269.003.213 0 .426 0 .64l.005 1.846c0 .095-.002.189-.009.284-.005.069-.053.106-.117.108-.142.006-.284.005-.426.007-.107.001-.214-.003-.32.003-.141.009-.18.052-.188.203-.005.094-.001.19-.002.283-.01.668.091.572-.591.573-2.475.003-4.951.001-7.426.001-.142 0-.283.005-.426.007v-.001ZM122.836 68.317c-.007-.307-.018-.613-.018-.92 0-.123.054-.172.173-.181.106-.007.213-.005.319-.005h5.361c.095 0 .19.002.284-.001.213-.007.232-.026.237-.255.004-.189-.002-.379.003-.567.004-.16.033-.191.184-.196.166-.006.332-.002.498-.003.059 0 .118.001.177-.004.107-.008.153-.047.156-.151.006-.2.002-.402.006-.603.002-.105-.021-.214.05-.308.248 0 .496-.001.744.002.256.004.266.012.269.255.003.307.001.614.001.922 0 .248.003.496-.001.744-.003.177-.031.203-.21.207-.225.005-.449.002-.674.007-.082.001-.132.05-.135.132-.005.166-.004.33-.006.497-.002.094 0 .189-.008.283-.007.08-.06.13-.139.136-.106.007-.213.007-.319.007h-6.49c-.154 0-.308.002-.461.003h-.001Z" fill="#5CF9D9"/></g><defs><clipPath id="a"><path fill="#fff" transform="translate(43.411 32.272)" d="M0 0h130.178v43.456H0z"/></clipPath></defs></svg>