<svg width="217" height="108" fill="none" xmlns="http://www.w3.org/2000/svg"><g clip-path="url(#a)"><path d="M99.9 52.187 74.086 26.372c-1-1-2.623-1-3.623 0L44.65 52.187c-1.001 1.001-1.001 2.625 0 3.626l25.813 25.815c1 1.001 2.623 1.001 3.623 0l25.813-25.815c1.001-1.001 1.001-2.625 0-3.626Zm-25.507-7.249h11.744l-2.884 3.637h-6.517l-2.343 2.324v-5.96Zm8.953 10.882h-5.314v7.241h-3.638V55.82h-1.585a9.457 9.457 0 0 1-9.297 7.654c-5.223 0-9.472-4.25-9.472-9.475s4.249-9.474 9.472-9.474a9.412 9.412 0 0 1 8.035 4.456l.171.277h-4.81l-.046-.033a5.762 5.762 0 0 0-3.35-1.059 5.84 5.84 0 0 0-5.835 5.833 5.84 5.84 0 0 0 5.835 5.835 5.853 5.853 0 0 0 5.541-4.013h-6.958l2.274-3.64h18.978v3.64-.001Zm5.17 7.26h-3.64V49.788l3.643-4.85-.004 18.142h.001Z" fill="url(#b)"/><path d="m88.52 44.938-.005 18.142h-3.64V49.788l3.644-4.85ZM86.137 44.938l-2.884 3.637h-6.517L74.393 50.9v-5.96h11.744Z" fill="#231F20"/><path d="M83.346 52.18v3.64h-5.314v7.242h-3.639V55.82H72.81a9.457 9.457 0 0 1-9.297 7.655c-5.223 0-9.472-4.25-9.472-9.476 0-5.224 4.249-9.473 9.472-9.473a9.412 9.412 0 0 1 8.035 4.455l.171.277h-4.81l-.046-.032a5.763 5.763 0 0 0-3.35-1.06A5.84 5.84 0 0 0 57.677 54a5.84 5.84 0 0 0 5.835 5.835 5.853 5.853 0 0 0 5.541-4.014h-6.959l2.275-3.64h18.978v-.001Z" fill="#231F20"/><path d="M112.804 39.505v22.668h22.626V48.555h-10.758v4.525h6.233v4.568H117.33V43.987h18.1v-4.525h-22.626v.043Z" fill="url(#c)"/><path d="M173.101 39.505h-4.526V62.13h4.526V39.505Z" fill="url(#d)"/><path d="M140.689 39.505V62.13h4.526v-9.05h18.1v-4.525h-18.1v-4.568h18.1v-4.525h-22.626v.043Z" fill="url(#e)"/><path d="M115.078 66.599c.043 0 .063.019.063.063v.282c0 .044-.019.067-.063.067h-1.448c-.297 0-.384.087-.384.394v.416c0 .306.087.396.384.396h.954c.101 0 .143-.046.143-.176v-.235c0-.026-.008-.038-.034-.038h-.846c-.041 0-.064-.023-.064-.066v-.216c0-.044.023-.067.064-.067h1.204c.058 0 .087.029.087.086v.674c0 .323-.127.441-.358.441h-1.167c-.583 0-.808-.208-.808-.762v-.497c0-.555.225-.762.808-.762h1.465ZM117.18 66.598c.587 0 .809.208.809.762v.497c0 .555-.223.763-.809.763h-.892c-.584 0-.809-.208-.809-.763v-.497c0-.554.225-.762.809-.762h.892Zm-1.259 1.228c0 .303.086.393.384.393h.857c.298 0 .384-.09.384-.393v-.433c0-.304-.086-.393-.384-.393h-.857c-.298 0-.384.089-.384.393v.433ZM118.718 66.598c.044 0 .063.02.063.064v1.152c0 .306.088.396.385.396h1.17c.043 0 .063.02.063.063v.284c0 .043-.019.063-.063.063h-1.187c-.584 0-.809-.208-.809-.762v-1.196c0-.043.023-.063.067-.063h.311ZM122.099 66.598c.626 0 .883.251.883.814v.393c0 .564-.257.815-.883.815h-1.353c-.058 0-.086-.029-.086-.086v-1.85c0-.057.028-.086.086-.086h1.353Zm-.998 1.583c0 .026.012.038.038.038h.948c.34 0 .453-.11.453-.451v-.318c0-.34-.113-.45-.453-.45h-.948c-.026 0-.038.01-.038.04v1.141ZM126.311 66.599c.185 0 .226.022.336.17l1.074 1.41a.04.04 0 0 0 .037.02h.027c.015 0 .023-.01.023-.03v-1.507c0-.044.019-.064.063-.064h.303c.044 0 .065.02.065.064v1.657c0 .234-.084.3-.261.3h-.248c-.176 0-.22-.017-.335-.17l-1.078-1.41c-.011-.014-.019-.02-.038-.02h-.025c-.018 0-.023.008-.023.03v1.507c0 .043-.021.064-.064.064h-.304c-.042 0-.066-.02-.066-.064v-1.658c0-.234.084-.3.261-.3h.253ZM131.646 66.598c.043 0 .066.02.066.064v.273c0 .044-.023.065-.066.065h-1.254c-.298 0-.384.089-.384.393v.057h1.623c.043 0 .064.02.064.063v.229c0 .043-.021.063-.064.063h-1.623v.752c0 .043-.02.063-.064.063h-.312c-.043 0-.066-.02-.066-.063V67.36c0-.554.225-.761.809-.761h1.271ZM132.376 66.598c.043 0 .064.02.064.064v1.895c0 .043-.021.063-.064.063h-.312c-.043 0-.066-.02-.066-.063v-1.895c0-.044.023-.064.066-.064h.312ZM133.338 66.599c.185 0 .225.022.335.17l1.074 1.41a.04.04 0 0 0 .037.02h.027c.015 0 .023-.01.023-.03v-1.507c0-.044.02-.064.064-.064h.303c.043 0 .064.02.064.064v1.657c0 .234-.084.3-.261.3h-.248c-.176 0-.22-.017-.335-.17l-1.078-1.41c-.011-.014-.019-.02-.038-.02h-.025c-.018 0-.023.008-.023.03v1.507c0 .043-.021.064-.064.064h-.304c-.043 0-.066-.02-.066-.064v-1.658c0-.234.084-.3.26-.3h.255ZM136.93 66.598c.147 0 .237.046.332.22l.956 1.735c.021.038.012.067-.034.067h-.367c-.037 0-.052-.008-.066-.037l-.206-.373h-1.357l-.2.373c-.014.029-.031.037-.067.037h-.374c-.05 0-.059-.029-.038-.067l.947-1.736c.095-.172.182-.219.303-.219h.171Zm-.561 1.277h.995l-.46-.847c-.008-.014-.017-.02-.031-.02h-.017c-.015 0-.024.007-.033.02l-.454.847ZM138.979 66.599c.185 0 .225.022.334.17l1.074 1.41c.009.013.02.02.038.02h.026c.015 0 .023-.01.023-.03v-1.507c0-.044.02-.064.064-.064h.303c.043 0 .064.02.064.064v1.657c0 .234-.084.3-.26.3h-.249c-.176 0-.22-.017-.335-.17l-1.077-1.41c-.012-.014-.02-.02-.038-.02h-.026c-.017 0-.023.008-.023.03v1.507c0 .043-.02.064-.063.064h-.304c-.043 0-.066-.02-.066-.064v-1.658c0-.234.083-.3.259-.3h.256ZM143.377 66.598c.043 0 .063.02.063.064v.282c0 .044-.019.067-.063.067h-1.286c-.297 0-.384.087-.384.393v.41c0 .307.087.396.384.396h1.286c.043 0 .063.02.063.064v.283c0 .043-.019.064-.063.064h-1.303c-.584 0-.809-.208-.809-.763v-.497c0-.555.225-.762.809-.762h1.303ZM144.127 66.598c.043 0 .064.02.064.064v1.895c0 .043-.021.063-.064.063h-.312c-.042 0-.066-.02-.066-.063v-1.895c0-.044.023-.064.066-.064h.312ZM145.857 66.598c.147 0 .237.046.332.22l.956 1.735c.02.038.012.067-.034.067h-.368c-.036 0-.051-.008-.066-.037l-.205-.373h-1.357l-.2.373c-.015.029-.032.037-.067.037h-.374c-.05 0-.059-.029-.038-.067l.947-1.736c.095-.172.182-.219.303-.219h.171Zm-.561 1.277h.995l-.46-.847c-.008-.014-.017-.02-.031-.02h-.018c-.014 0-.024.007-.032.02l-.454.847ZM147.648 66.598c.043 0 .063.02.063.064v1.152c0 .306.088.396.384.396h1.171c.043 0 .063.02.063.063v.284c0 .043-.02.063-.063.063h-1.188c-.583 0-.808-.208-.808-.762v-1.196c0-.043.023-.063.067-.063h.311ZM150.935 66.598c.043 0 .063.02.063.064v1.895c0 .043-.02.063-.063.063h-.313c-.042 0-.066-.02-.066-.063v-1.895c0-.044.023-.064.066-.064h.313ZM151.895 66.599c.185 0 .226.022.336.17l1.075 1.41c.008.013.019.02.037.02h.026c.015 0 .023-.01.023-.03v-1.507c0-.044.02-.064.064-.064h.303c.043 0 .064.02.064.064v1.657c0 .234-.084.3-.26.3h-.249c-.176 0-.22-.017-.335-.17l-1.078-1.41c-.011-.014-.019-.02-.037-.02h-.026c-.017 0-.023.008-.023.03v1.507c0 .043-.021.064-.064.064h-.304c-.042 0-.066-.02-.066-.064v-1.658c0-.234.084-.3.261-.3h.253ZM154.72 66.599c.185 0 .226.022.335.17l1.075 1.41a.04.04 0 0 0 .037.02h.027c.014 0 .023-.01.023-.03v-1.507c0-.044.019-.064.063-.064h.303c.044 0 .064.02.064.064v1.657c0 .234-.083.3-.26.3h-.248c-.177 0-.22-.017-.336-.17l-1.077-1.41c-.011-.014-.02-.02-.038-.02h-.026c-.017 0-.023.008-.023.03v1.507c0 .043-.02.064-.063.064h-.304c-.043 0-.066-.02-.066-.064v-1.658c0-.234.084-.3.26-.3h.254ZM158.709 66.598c.586 0 .809.208.809.762v.497c0 .555-.223.763-.809.763h-.893c-.583 0-.808-.208-.808-.763v-.497c0-.554.225-.762.808-.762h.893Zm-1.26 1.228c0 .303.087.393.384.393h.858c.297 0 .384-.09.384-.393v-.433c0-.304-.087-.393-.384-.393h-.858c-.297 0-.384.089-.384.393v.433ZM160.023 66.598c.038 0 .053.011.067.037l.845 1.555c.009.017.019.02.035.02h.015c.015 0 .023-.004.032-.02l.834-1.555c.015-.028.031-.037.067-.037h.378c.046 0 .055.029.034.067l-.946 1.736c-.096.176-.182.22-.304.22h-.168c-.15 0-.233-.044-.332-.22l-.959-1.736c-.02-.038-.012-.067.038-.067h.364ZM163.31 66.598c.147 0 .237.046.332.22l.957 1.735c.019.038.011.067-.035.067h-.367c-.038 0-.052-.008-.067-.037l-.205-.373h-1.357l-.2.373c-.015.029-.031.037-.067.037h-.375c-.049 0-.058-.029-.037-.067l.947-1.736c.095-.172.181-.219.303-.219h.171Zm-.56 1.277h.993l-.459-.847c-.008-.014-.017-.02-.031-.02h-.018c-.014 0-.022.007-.032.02l-.453.847ZM166.666 66.598c.043 0 .067.02.067.064v.282c0 .044-.024.067-.067.067h-.908v1.546c0 .043-.019.063-.063.063h-.315c-.043 0-.063-.02-.063-.063V67.01h-.908c-.042 0-.066-.023-.066-.067v-.282c0-.044.023-.064.066-.064h2.257ZM167.367 66.598c.044 0 .064.02.064.064v1.895c0 .043-.02.063-.064.063h-.312c-.043 0-.066-.02-.066-.063v-1.895c0-.044.023-.064.066-.064h.312ZM169.493 66.598c.587 0 .809.208.809.762v.497c0 .555-.223.763-.809.763h-.892c-.584 0-.809-.208-.809-.763v-.497c0-.554.225-.762.809-.762h.892Zm-1.26 1.228c0 .303.087.393.385.393h.857c.298 0 .384-.09.384-.393v-.433c0-.304-.086-.393-.384-.393h-.857c-.298 0-.385.089-.385.393v.433ZM171.174 66.599c.185 0 .225.022.334.17l1.074 1.41c.01.013.021.02.038.02h.027c.014 0 .023-.01.023-.03v-1.507c0-.044.019-.064.063-.064h.303c.044 0 .065.02.065.064v1.657c0 .234-.084.3-.261.3h-.248c-.176 0-.22-.017-.336-.17l-1.077-1.41c-.011-.014-.02-.02-.038-.02h-.026c-.017 0-.023.008-.023.03v1.507c0 .043-.02.064-.063.064h-.304c-.043 0-.066-.02-.066-.064v-1.658c0-.234.084-.3.259-.3h.256ZM124.334 67h1.064c.043 0 .067-.021.067-.064v-.273c0-.046-.024-.065-.067-.065h-2.014c-.043 0-.067.022-.067.065v1.892c0 .046.024.064.067.064h2.014c.043 0 .067-.02.067-.064v-.273c0-.046-.024-.064-.067-.064h-1.679v-.443h1.662c.042 0 .066-.019.066-.057v-.241c0-.041-.024-.057-.066-.057h-1.662V67h.615Z" fill="#231F20"/></g><defs><linearGradient id="b" x1="52.561" y1="85.853" x2="98.93" y2="10.931" gradientUnits="userSpaceOnUse"><stop stop-color="#B27F2B"/><stop offset=".15" stop-color="#B27F2B"/><stop offset=".45" stop-color="#E0BE61"/><stop offset=".61" stop-color="#F7DE7C"/><stop offset=".72" stop-color="#FFF3A5"/><stop offset=".84" stop-color="#F7DE7C"/><stop offset="1" stop-color="#B27F2B"/></linearGradient><linearGradient id="c" x1="96.308" y1="67.552" x2="174.883" y2="20.269" gradientUnits="userSpaceOnUse"><stop stop-color="#B27F2B"/><stop offset=".15" stop-color="#B27F2B"/><stop offset=".45" stop-color="#E0BE61"/><stop offset=".61" stop-color="#F7DE7C"/><stop offset=".72" stop-color="#FFF3A5"/><stop offset=".84" stop-color="#F7DE7C"/><stop offset="1" stop-color="#B27F2B"/></linearGradient><linearGradient id="d" x1="108.728" y1="88.191" x2="187.303" y2="40.91" gradientUnits="userSpaceOnUse"><stop stop-color="#B27F2B"/><stop offset=".15" stop-color="#B27F2B"/><stop offset=".45" stop-color="#E0BE61"/><stop offset=".61" stop-color="#F7DE7C"/><stop offset=".72" stop-color="#FFF3A5"/><stop offset=".84" stop-color="#F7DE7C"/><stop offset="1" stop-color="#B27F2B"/></linearGradient><linearGradient id="e" x1="101.712" y1="76.533" x2="180.287" y2="29.25" gradientUnits="userSpaceOnUse"><stop stop-color="#B27F2B"/><stop offset=".15" stop-color="#B27F2B"/><stop offset=".45" stop-color="#E0BE61"/><stop offset=".61" stop-color="#F7DE7C"/><stop offset=".72" stop-color="#FFF3A5"/><stop offset=".84" stop-color="#F7DE7C"/><stop offset="1" stop-color="#B27F2B"/></linearGradient><clipPath id="a"><path fill="#fff" transform="translate(43.9 25.622)" d="M0 0h129.202v56.757H0z"/></clipPath></defs></svg>