<svg width="217" height="108" fill="none" xmlns="http://www.w3.org/2000/svg"><path d="M112.466 52.864c-.482 1.796-.965 3.593-1.445 5.391-.065.247-.115.497-.175.744-.29 1.167-.295 1.2-1.471 1.017-.271-.043-.657-.352-.717-.602-.728-3.031-1.4-6.076-2.101-9.113-.12-.523-.045-.707.562-.617 1.298.192 1.279.162 1.502 1.438.26 1.48.562 2.955.857 4.431.046.232.146.451.416.688.261-.847.537-1.69.779-2.543.301-1.064.591-2.132.86-3.205.143-.571.432-.856 1.061-.878.683-.026.693.466.813.88.562 1.949 1.113 3.9 1.666 5.85l.254.026c.269-1.245.552-2.488.804-3.736.163-.807.262-1.626.439-2.43.044-.204.271-.518.418-.521.497-.01.996.096 1.493.157-.027.161-.048.324-.084.482-.593 2.595-1.189 5.19-1.783 7.786-.049.22-.096.444-.116.667-.124 1.305-.202 1.351-1.502 1.265-.492-.032-.662-.21-.766-.692-.406-1.884-.874-3.756-1.324-5.63-.07-.291-.166-.578-.252-.866-.061.004-.125.007-.186.012l-.002-.002ZM167.363 57c.032-.989.09-1.977.09-2.966 0-1.333-.046-2.667-.072-4 0-.083.002-.24.007-.24.52-.018 1.044-.06 1.557-.006.12.012.293.346.293.532-.009 2.729-.043 5.46-.072 8.189 0 .056-.01.113-.012.17-.014.464-.026.929-.039 1.393-.71-.02-1.428.014-2.126-.094-.209-.033-.396-.442-.525-.71-.919-1.916-1.819-3.843-2.731-5.763-.106-.223-.246-.43-.493-.858-.048.433-.091.654-.095.877-.025 1.962-.084 3.925-.048 5.888.023 1.22-.838.58-1.309.676-.643.13-.515-.34-.511-.76a619.28 619.28 0 0 0-.012-9.041c-.004-.439.056-.533.533-.588 1.385-.161 2.1.37 2.635 1.682.797 1.947 1.874 3.781 2.83 5.662l.17.206-.074-.249h.004ZM195.915 60.014c-1.547.265-2.572-.218-3.161-1.595-.278-.647-.672-1.246-1.038-1.854-.126-.213-.288-.444-.493-.563-.82-.474-1.075-.317-1.087.621-.012.967.005 1.934-.058 2.897-.012.189-.304.44-.518.514a1.366 1.366 0 0 1-.84-.012c-.197-.068-.468-.32-.468-.492-.022-3.128-.014-6.257.02-9.384.002-.16.309-.454.474-.454 1.537.005 3.078.016 4.611.117 1.26.084 2.479 1.848 2.206 3.178-.219 1.071-.382 2.227-1.728 2.597-.082.022-.156.49-.063.66.579 1.066 1.207 2.107 1.815 3.158.11.188.208.384.329.612h-.001Zm-4.103-8.436v.029c-.425 0-.855-.036-1.273.019-.156.02-.396.238-.408.384a7.91 7.91 0 0 0 .01 1.606c.019.166.295.42.465.429.733.04 1.477.053 2.206-.03.262-.029.646-.318.708-.557.42-1.61.183-1.889-1.454-1.88h-.255.001ZM179.478 54.82c0-1.507.008-3.014-.007-4.521-.004-.429.037-.675.591-.657a134.6 134.6 0 0 0 5.64.093c.598-.004.7.195.672.734-.062 1.213-.031 1.164-1.179 1.1-1.164-.065-2.335-.015-3.503-.017-.056 0-.162-.012-.164-.007-.091.667-.218 1.336-.225 2.006-.001.166.376.473.588.48 1.053.04 2.109.017 3.163-.02.485-.018.698.11.574.627-.051.216-.027.452-.012.679.024.4-.123.535-.545.526-1.021-.019-2.045.05-3.067.03-.522-.008-.766.085-.756.695.038 2.035-.279 1.62 1.639 1.694.938.036 1.883 0 2.819-.072.546-.041.684.135.678.656-.01 1.166.018 1.175-1.116 1.185-1.71.015-3.421.005-5.13.038-.559.01-.707-.136-.679-.732.07-1.504.024-3.012.022-4.52l-.003.002ZM88.907 54.837c0-1.48.034-2.96-.018-4.439-.02-.617.156-.793.758-.744 1.149.095 1.152.07 1.15 1.255 0 .825.009 1.651-.012 2.476-.01.44.072.685.61.656.825-.044 1.655-.04 2.48.01.53.033.708-.137.696-.66-.023-.995.044-1.993 0-2.986-.028-.608.149-.854.768-.742.192.034.4.038.593.007.463-.074.584.103.58.559-.033 3.044-.056 6.089-.04 9.133.003.635-.238.773-.8.683-.507-.083-1.206.228-1.124-.777.08-.962.01-1.935.055-2.9.019-.42-.108-.554-.52-.539-.939.036-1.878.052-2.82.05-.464 0-.563.2-.54.634.052.965.013 1.934.073 2.9.032.524-.11.745-.65.668-.195-.03-.4-.028-.598-.01-.53.047-.753-.103-.73-.71.054-1.505.017-3.014.017-4.52h.068l.004-.004ZM141.952 54.794c0-1.536.018-3.074-.012-4.61-.008-.428.12-.552.53-.53 1.298.066 1.296.057 1.281 1.43-.009.768.005 1.538-.019 2.306-.014.47.161.667.648.648.883-.031 1.771-.058 2.652-.012.542.029.622-.211.614-.65a67.46 67.46 0 0 1-.014-3.243c.005-.167.248-.425.42-.465.295-.067.648-.06.926.048.21.082.485.369.486.568.03 3.044.016 6.089.023 9.133 0 .436-.072.732-.614.636a2.11 2.11 0 0 0-.597 0c-.534.06-.762-.073-.708-.7.091-1.016.076-2.046.054-3.068-.004-.168-.275-.466-.431-.471-.939-.036-1.882.017-2.823 0-.532-.01-.676.194-.653.711.043.995.003 1.992.008 2.99.004 1.034-.78.406-1.186.54-.413.136-.682-.024-.672-.564.031-1.565.01-3.13.01-4.695h.079l-.002-.002ZM122.016 54.75c.552-.837 1.102-1.677 1.658-2.512.362-.544.797-1.048 1.087-1.627.579-1.162 1.618-.957 2.597-.951.01 0 .101.428.012.555a71.827 71.827 0 0 1-2.213 3.019c-.473.605-.446 1.123-.043 1.766.903 1.438 1.733 2.92 2.6 4.381.324.544.211.705-.444.708-.996.007-1.657-.377-2.101-1.265-.419-.836-.916-1.632-1.38-2.444-.427-.748-.465-.727-.971.008-.666.97-1.332 1.917-1.014 3.204.025.107-.285.417-.451.427-1.435.093-1.408.079-1.389-1.35.04-2.843.058-5.685.053-8.528 0-.432.127-.56.525-.533 1.431.098 1.232-.281 1.27 1.193.033 1.277.007 2.556.007 3.835l.202.11-.005.003ZM159.235 53.664c-.066 1.305-.087 2.613-.21 3.91-.136 1.427-1.159 2.188-2.411 2.421-2.743.51-4.879-.77-4.865-3.69.009-2.019-.034-4.038-.08-6.057-.011-.446.102-.594.572-.583 1.399.032 1.385.01 1.384 1.417-.002 1.88.008 3.756.034 5.635.014 1.034.598 1.577 1.67 1.61 1.061.03 1.81-.5 1.894-1.443a42.375 42.375 0 0 0 .062-6.565c-.035-.536.12-.7.665-.642 1.246.133 1.244.113 1.231 1.42-.009.855 0 1.708 0 2.562l.056.003-.002.002ZM200.699 60.281c-1.097-.34-2.213-.636-3.288-1.037-.756-.281-.362-.919-.231-1.392.164-.6.553-.212.888-.132.985.24 1.973.526 2.976.631.447.046 1.04-.185 1.369-.497.27-.256.385-.845.307-1.236-.053-.26-.536-.523-.874-.623-.761-.222-1.563-.303-2.326-.517-1.37-.384-2.112-1.231-2.191-2.397-.096-1.424.494-2.5 1.807-3.074 1.675-.731 3.284-.413 4.817.468.393.227.504.564.187.918-.295.329-.389 1.116-1.118.644-.835-.54-1.745-.626-2.695-.57-.751.042-1.119.486-1.229 1.184-.108.687.411.89.898 1.039.705.216 1.434.355 2.148.535 1.967.493 2.601 1.354 2.411 3.262-.146 1.464-1.435 2.537-3.103 2.582-.228.005-.456 0-.684 0a5.823 5.823 0 0 0-.065.214l-.004-.002ZM132.071 60.316c-1.053-.364-2.14-.654-3.148-1.115-.711-.325-.207-.994-.123-1.503.007-.041.602-.1.816.029.979.581 2.045.75 3.125.605.48-.063 1.018-.387 1.346-.758.535-.603.284-1.256-.501-1.484-.816-.237-1.661-.377-2.479-.614-1.803-.52-2.396-1.325-2.302-3.044.074-1.336 1.197-2.54 2.71-2.759 1.26-.183 2.491-.005 3.65.597.759.394.588.95.339 1.517-.274.627-.721.224-1.059.089-1.173-.471-2.33-.778-3.473.043-.686.492-.634 1.277.158 1.582.79.304 1.633.47 2.453.695 1.993.543 2.665 1.476 2.419 3.356-.192 1.46-1.459 2.467-3.162 2.51-.228.005-.456 0-.684 0-.027.084-.056.166-.084.25l-.001.004ZM106.711 60.004c-.597 0-1.219.106-1.769-.045-.283-.077-.551-.585-.635-.943-.149-.634-.348-.938-1.073-.704-.389.125-.85.07-1.274.036-.99-.083-1.81.046-2.173 1.176-.15.464-1.327.797-1.75.52-.136-.088-.15-.536-.066-.762.701-1.882 1.433-3.753 2.164-5.625.452-1.16.884-2.33 1.395-3.464.125-.278.492-.537.796-.609.152-.036.505.327.605.576 1.286 3.226 2.542 6.465 3.802 9.7.017.044-.014.11-.019.14l-.003.004Zm-4.363-6.978-.238.041c-.342 1.005-.7 2.006-1 3.025-.029.097.295.43.454.43.602.002 1.204-.088 1.806-.144-.005-.028-.007-.057-.016-.084l-1.008-3.268h.002ZM175.417 55.891c0 1.138-.039 2.277.01 3.411.055 1.248-.862.636-1.371.736-.636.123-.588-.268-.574-.778.06-2.388.054-4.778.034-7.166 0-.158-.309-.436-.489-.45-.593-.042-1.193-.005-1.789.032-.431.025-.604-.105-.6-.575.006-1.33-.016-1.342 1.332-1.347 1.88-.007 3.762.032 5.643-.007.627-.014.802.202.715.773-.029.194-.019.401.01.595.069.45-.099.602-.559.566-.595-.048-1.198-.007-1.795-.047-.457-.03-.596.153-.588.588.021 1.223.007 2.447.007 3.669h.014Z" fill="#0C0B0D"/><path d="m167.363 57 .073.249-.169-.206.036-.058.06.017V57Z" fill="#67D0F6"/><path fill-rule="evenodd" clip-rule="evenodd" d="M71.265 41.616a914.852 914.852 0 0 1 10.448-5.261l-.003-.002c.47-.233.96-.425 1.513-.64.275-.107.565-.22.875-.347-.054.15-.094.272-.127.377-.058.18-.098.305-.165.415-.49.814-.971 1.636-1.452 2.457-1.169 2-2.338 3.999-3.665 5.888-1.074 1.529-2.333 2.93-3.593 4.33-.53.59-1.062 1.18-1.579 1.78-.22.254-.453.497-.686.74-.161.167-.323.334-.48.506-.352.387-.376.723.224.84 1.124.22 1.362 1.107 1.501 2.021.028.182-.286.504-.516.624a3133.61 3133.61 0 0 1-10.038 5.21l-3.647 1.887c-.213.11-.421.23-.63.35-.384.218-.767.437-1.173.602-.753.303-1 .824-.815 1.548.257 1.004-.125 1.664-.936 2.239-1.756 1.24-3.495 2.504-5.234 3.768l-1.74 1.263c-.858.622-1.693.554-2.51-.072l-1.416-1.083c-1.785-1.366-3.57-2.733-5.348-4.108-.795-.614-1.193-1.36-.679-2.372.053-.106.035-.246.018-.386a1.861 1.861 0 0 1-.018-.194l-4.935-2.589c-3.289-1.725-6.578-3.45-9.866-5.177-.314-.164-.625-.335-.936-.505a53.725 53.725 0 0 0-1.092-.587c-.418-.217-.536-.485-.221-.876.133-.164.26-.334.388-.504.28-.375.562-.75.9-1.064.536-.5.491-.849-.01-1.325-3.03-2.875-5.545-6.17-7.796-9.666-.577-.895-1.079-1.838-1.58-2.782-.229-.43-.457-.859-.693-1.284l-.5-1.001-.64-1.28 1.126.57 1.732.876c.356.159.714.312 1.073.465.787.336 1.573.672 2.331 1.063 3.017 1.556 6.024 3.132 9.03 4.707 1.296.679 2.591 1.358 3.888 2.035l2.393 1.25c1.873.977 3.745 1.954 5.616 2.936.205.108.396.242.586.375.088.062.176.123.266.182 1.486.721 2.574 1.894 3.662 3.066.3.324.602.648.912.963a40.836 40.836 0 0 1 2.696 3.062c.406.504.634.387.99 0 .567-.622 1.142-1.238 1.716-1.853.897-.961 1.793-1.922 2.663-2.906 1.636-1.85 3.712-3.045 5.884-4.118.085-.05.17-.098.255-.146 1.195-.623 2.388-1.247 3.582-1.872 2.813-1.472 5.626-2.945 8.45-4.395Zm4.459 2.012c.133-.178.266-.357.4-.534l.004-.002c.084-.11.088-.28.093-.45.002-.078.004-.157.013-.229a2.65 2.65 0 0 1-.226.012c-.172.004-.344.007-.476.08-.385.216-.762.447-1.138.679-.473.29-.946.581-1.436.839-1.491.786-2.989 1.562-4.486 2.339a491.924 491.924 0 0 0-6.626 3.476c-.369.198-.74.393-1.113.588-2.118 1.11-4.24 2.22-5.903 4.032-.94 1.024-1.89 2.038-2.841 3.052-1.092 1.165-2.183 2.33-3.259 3.508-.392.43-.624.47-1.01.043-1.575-1.746-3.16-3.485-4.743-5.225l-1.565-1.72a53.79 53.79 0 0 0-.307-.323l-.017-.03-.179-.12-.105-.072-.023-.017a54.843 54.843 0 0 0-.34-.317h-.013c-.238-.16-.473-.328-.708-.496-.508-.363-1.017-.725-1.562-1.02-4.18-2.264-8.376-4.5-12.574-6.726-1.61-.854-3.242-1.67-4.874-2.48-.14-.07-.311-.077-.483-.085-.08-.003-.16-.007-.237-.017.031.07.058.144.085.217.057.153.114.306.207.433 2.302 3.118 4.865 6.007 7.724 8.628.514.47 1.05.917 1.585 1.364.336.28.671.561 1.002.847.11.096.2.215.29.334.041.054.082.108.125.16-.067.034-.134.07-.2.107-.145.079-.289.158-.443.212-.23.081-.466.143-.703.205-.098.026-.197.052-.295.08l-.016.115a8.94 8.94 0 0 0-.016.116c.242.152.482.309.721.466.515.338 1.03.675 1.573.962a708.401 708.401 0 0 0 6.161 3.213l2.316 1.2.008.006.258.151.257.151.029.012c.136.06.273.118.41.177l.41.176.02.009.492.288.063.029.313.165.313.164.386.184c.689.329.754.71.102 1.16-.071.05-.134.114-.196.178l-.054.055c-.758.756-.785.947.052 1.603.817.64 1.649 1.262 2.481 1.884.696.52 1.392 1.04 2.079 1.57.591.458 1.08.343 1.61-.084l.83-.675c.955-.781 1.912-1.563 2.912-2.283 1.497-1.08 1.417-1.16.664-1.913a16.4 16.4 0 0 1-.428-.44c-.536-.574-.5-.82.173-1.165 4.336-2.217 8.661-4.45 12.981-6.696.258-.133.484-.33.71-.525.102-.089.205-.177.31-.26l-.407-.085a46.778 46.778 0 0 1-.788-.167c-.159-.037-.315-.08-.472-.124l-.241-.067c.043-.064.082-.132.122-.2.084-.143.168-.287.283-.401.94-.94 1.885-1.878 2.83-2.814 1.78-1.766 3.561-3.532 5.318-5.322.657-.669 1.223-1.428 1.788-2.185Z" fill="url(#a)"/><path d="M48.573 54.712c-.151.132-.652.104-.804-.042h.001a103.56 103.56 0 0 1-2.519-2.52l-.871-.89h7.589l.139.18-.818.769c-.897.844-1.794 1.688-2.717 2.503Z" fill="url(#b)"/><defs><linearGradient id="a" x1="12.413" y1="54" x2="84.098" y2="54" gradientUnits="userSpaceOnUse"><stop stop-color="#67D0F6"/><stop offset="1" stop-color="#A42DFA"/></linearGradient><linearGradient id="b" x1="12.413" y1="54" x2="84.098" y2="54" gradientUnits="userSpaceOnUse"><stop stop-color="#67D0F6"/><stop offset="1" stop-color="#A42DFA"/></linearGradient></defs></svg>