<svg width="217" height="107" viewBox="0 0 217 107" fill="none" xmlns="http://www.w3.org/2000/svg">
<g clip-path="url(#clip0_1628_2710)">
<path d="M73.9873 75.9044C73.3287 75.9044 72.7202 75.7862 72.162 75.5499C71.6038 75.3136 71.1194 74.9917 70.7059 74.5841C70.2953 74.1765 69.9734 73.701 69.746 73.1605C69.5156 72.62 69.4004 72.0411 69.4004 71.4238C69.4004 70.8065 69.5156 70.2246 69.7489 69.6812C69.9822 69.1377 70.3012 68.6592 70.7059 68.2516C71.1105 67.844 71.586 67.5191 72.1354 67.2799C72.6848 67.0407 73.2725 66.9196 73.9046 66.9196C74.5367 66.9196 75.1215 67.0318 75.6679 67.2592C76.2143 67.4866 76.6869 67.7879 77.0915 68.163C77.4962 68.5411 77.8122 68.9723 78.0426 69.4626C78.273 69.9529 78.3881 70.4609 78.3881 70.9896C78.3881 71.4208 78.335 71.7989 78.2286 72.1208C78.1223 72.4428 77.9776 72.7115 77.7915 72.9271C77.6054 73.1428 77.3898 73.3052 77.1388 73.4115C76.8877 73.5179 76.6219 73.571 76.3413 73.571C75.9219 73.571 75.5881 73.506 75.34 73.3761C75.089 73.2461 74.9 73.1044 74.77 72.9537C74.5928 73.1103 74.3772 73.255 74.1261 73.379C73.8751 73.506 73.5827 73.5681 73.246 73.5681C72.986 73.5681 72.7409 73.5208 72.5105 73.4293C72.2801 73.3377 72.0793 73.2048 71.908 73.0335C71.7367 72.8622 71.6038 72.6554 71.5063 72.4103C71.4088 72.1681 71.3616 71.8904 71.3616 71.5833C71.3616 71.22 71.4236 70.8803 71.5506 70.5643C71.6776 70.2482 71.846 69.9765 72.0586 69.7461C72.2713 69.5158 72.5164 69.3356 72.7941 69.2027C73.0717 69.0698 73.3611 69.0018 73.6624 69.0018C74.0198 69.0018 74.3092 69.0698 74.5308 69.2027C74.7523 69.3356 74.9384 69.5039 75.0801 69.7018L75.1924 69.1554L76.4063 69.3504L75.9219 72.1149C75.9071 72.171 75.8983 72.2271 75.8953 72.2833C75.8924 72.3423 75.8894 72.3925 75.8894 72.4309C75.8894 72.617 75.9544 72.7706 76.0843 72.8947C76.2143 73.0187 76.4004 73.0807 76.6396 73.0807C76.8257 73.0807 76.997 73.0364 77.1535 72.9478C77.3101 72.8592 77.4489 72.7263 77.5641 72.5461C77.6793 72.3689 77.7738 72.1474 77.8417 71.8875C77.9097 71.6276 77.9451 71.3263 77.9451 70.9837C77.9451 70.5111 77.8417 70.0533 77.6379 69.6103C77.4312 69.1672 77.1506 68.7774 76.7903 68.4377C76.4299 68.098 76.0016 67.8293 75.5054 67.6255C75.0092 67.4246 74.4717 67.3212 73.8957 67.3212C73.3198 67.3212 72.7734 67.4305 72.2772 67.6461C71.781 67.8618 71.3498 68.1542 70.9865 68.5263C70.6232 68.8955 70.3396 69.3297 70.1329 69.8259C69.9261 70.3221 69.8257 70.8537 69.8257 71.4149C69.8257 71.9761 69.9291 72.5136 70.1329 73.0098C70.3396 73.5031 70.6261 73.9343 70.9924 74.3006C71.3586 74.6668 71.7957 74.9563 72.3038 75.1689C72.8118 75.3816 73.37 75.4879 73.9784 75.4879C74.4924 75.4879 74.9443 75.4288 75.3312 75.3136C75.7181 75.1955 76.108 75.0242 76.4978 74.7997L76.7046 75.1276C76.3059 75.3668 75.8865 75.5558 75.4464 75.6917C75.0033 75.8276 74.516 75.8984 73.9814 75.8984L73.9873 75.9044ZM73.6063 72.5107C73.7717 72.5107 73.9253 72.4723 74.073 72.3985C74.2206 72.3246 74.3506 72.2183 74.4628 72.0854C74.5751 71.9525 74.6637 71.7959 74.7316 71.6187C74.7966 71.4415 74.8291 71.2466 74.8291 71.0339C74.8291 70.7385 74.7405 70.5052 74.5633 70.3309C74.386 70.1567 74.1557 70.0681 73.8751 70.0681C73.7097 70.0681 73.5531 70.1065 73.4025 70.1803C73.2519 70.2571 73.119 70.3575 73.0067 70.4845C72.8945 70.6115 72.8059 70.7651 72.7379 70.9423C72.67 71.1196 72.6405 71.3115 72.6405 71.5183C72.6405 71.8402 72.7291 72.0883 72.9092 72.2596C73.0865 72.4309 73.3198 72.5166 73.6092 72.5166L73.6063 72.5107Z" fill="#262262"/>
<path d="M79.6319 66.7335H81.1943V69.5158C81.2829 69.3977 81.3804 69.2854 81.4867 69.1791C81.5931 69.0728 81.7112 68.9783 81.8412 68.8956C81.9711 68.8129 82.1158 68.7479 82.2724 68.6977C82.4289 68.6504 82.6091 68.6238 82.807 68.6238C83.4036 68.6238 83.8644 68.807 84.1893 69.1673C84.5142 69.5306 84.6766 70.0297 84.6766 70.6677V74.2356H83.1142V71.1698C83.1142 70.8006 83.0315 70.523 82.8661 70.334C82.7007 70.1449 82.4673 70.0504 82.1661 70.0504C81.8648 70.0504 81.6256 70.1449 81.4513 70.334C81.277 70.523 81.1884 70.8006 81.1884 71.1698V74.2356H79.626V66.7306L79.6319 66.7335Z" fill="#262262"/>
<path d="M88.7409 74.3597C88.3155 74.3597 87.9227 74.2858 87.5594 74.1381C87.1961 73.9905 86.8831 73.7896 86.6172 73.5327C86.3544 73.2757 86.1447 72.9744 85.994 72.6289C85.8434 72.2833 85.7666 71.9111 85.7666 71.5124V71.4917C85.7666 71.093 85.8434 70.7238 85.994 70.3753C86.1447 70.0297 86.3544 69.7255 86.6202 69.4656C86.889 69.2057 87.202 68.9989 87.5653 68.8483C87.9286 68.6976 88.3274 68.6208 88.7586 68.6208C89.1898 68.6208 89.5767 68.6947 89.94 68.8424C90.3033 68.99 90.6164 69.1909 90.8822 69.4479C91.1451 69.7048 91.3548 70.0061 91.5054 70.3516C91.656 70.6972 91.7328 71.0694 91.7328 71.4681V71.4888C91.7328 71.8875 91.656 72.2597 91.5054 72.6052C91.3548 72.9508 91.1451 73.255 90.8793 73.5149C90.6134 73.7748 90.2974 73.9816 89.9341 74.1322C89.5708 74.2829 89.1721 74.3597 88.7409 74.3597ZM88.7615 73.0128C88.989 73.0128 89.1868 72.9744 89.3641 72.8947C89.5383 72.8149 89.689 72.7086 89.8101 72.5698C89.9341 72.4339 90.0286 72.2744 90.0936 72.0913C90.1586 71.9111 90.1911 71.7162 90.1911 71.5095V71.4888C90.1911 71.282 90.1556 71.09 90.0877 70.9069C90.0198 70.7268 89.9193 70.5643 89.7894 70.4225C89.6594 70.2808 89.5058 70.1715 89.3257 70.0888C89.1485 70.0061 88.9506 69.9647 88.7409 69.9647C88.5134 69.9647 88.3155 70.0031 88.1383 70.0829C87.9641 70.1626 87.8134 70.2689 87.6923 70.4078C87.5683 70.5436 87.4738 70.7031 87.4088 70.8862C87.3438 71.0694 87.3113 71.2614 87.3113 71.4681V71.4888C87.3113 71.6955 87.3468 71.8875 87.4147 72.0706C87.4826 72.2538 87.5831 72.4132 87.713 72.555C87.843 72.6968 87.9966 72.8061 88.1708 72.8888C88.3451 72.9715 88.543 73.0128 88.7615 73.0128Z" fill="#262262"/>
<path d="M94.7248 74.3302C94.4856 74.3302 94.267 74.3036 94.0721 74.2534C93.8772 74.2032 93.7088 74.1116 93.567 73.9816C93.4253 73.8517 93.316 73.6804 93.2392 73.4736C93.1594 73.2639 93.1211 72.9981 93.1211 72.6762V70.0652H92.4624V68.7272H93.1211V67.3184H94.6835V68.7272H95.9801V70.0652H94.6835V72.4281C94.6835 72.7854 94.8519 72.9656 95.1886 72.9656C95.4632 72.9656 95.7202 72.8977 95.9594 72.7589V74.0141C95.794 74.1116 95.6139 74.1884 95.416 74.2445C95.2181 74.3036 94.9877 74.3331 94.7278 74.3331L94.7248 74.3302Z" fill="#262262"/>
<path d="M99.7396 74.3597C99.3291 74.3597 98.9451 74.2918 98.5936 74.1529C98.2392 74.0171 97.935 73.8192 97.678 73.5681C97.421 73.3141 97.2202 73.0158 97.0755 72.6673C96.9308 72.3217 96.8599 71.9348 96.8599 71.5095V71.4888C96.8599 71.0989 96.9278 70.7268 97.0607 70.3783C97.1936 70.0297 97.3797 69.7226 97.6219 69.4626C97.8611 69.2027 98.1476 68.996 98.4814 68.8453C98.8122 68.6947 99.1814 68.6179 99.586 68.6179C100.044 68.6179 100.443 68.7006 100.779 68.866C101.116 69.0314 101.394 69.2529 101.618 69.5306C101.84 69.8082 102.005 70.1272 102.111 70.4875C102.218 70.8479 102.271 71.223 102.271 71.6129C102.271 71.6749 102.271 71.7399 102.265 71.8078C102.262 71.8757 102.256 71.9496 102.25 72.0234H98.4164C98.4932 72.3808 98.6468 72.6496 98.8831 72.8297C99.1194 73.0129 99.4118 73.1015 99.7632 73.1015C100.023 73.1015 100.256 73.0572 100.463 72.9685C100.67 72.8799 100.883 72.7352 101.101 72.5373L101.996 73.3289C101.736 73.6508 101.42 73.9019 101.051 74.085C100.682 74.2652 100.245 74.3567 99.7455 74.3567L99.7396 74.3597ZM100.747 71.0487C100.7 70.7002 100.575 70.4167 100.378 70.201C100.18 69.9854 99.9139 69.8761 99.586 69.8761C99.2582 69.8761 98.9923 69.9825 98.7886 70.1951C98.5848 70.4078 98.4548 70.6913 98.3928 71.0487H100.747Z" fill="#262262"/>
<path d="M103.502 66.7335H105.064V74.2386H103.502V66.7335Z" fill="#262262"/>
<path d="M106.568 66.7335H108.214V68.1217H106.568V66.7335ZM106.61 68.7272H108.172V74.2386H106.61V68.7272Z" fill="#262262"/>
<path d="M112.254 74.3597C111.843 74.3597 111.459 74.2918 111.108 74.1529C110.753 74.0171 110.449 73.8192 110.192 73.5681C109.935 73.3141 109.734 73.0158 109.59 72.6673C109.445 72.3217 109.374 71.9348 109.374 71.5095V71.4888C109.374 71.0989 109.442 70.7268 109.575 70.3783C109.708 70.0297 109.894 69.7226 110.136 69.4626C110.375 69.2027 110.662 68.996 110.996 68.8453C111.329 68.6947 111.696 68.6179 112.1 68.6179C112.558 68.6179 112.957 68.7006 113.293 68.866C113.63 69.0314 113.908 69.2529 114.132 69.5306C114.357 69.8082 114.519 70.1272 114.625 70.4875C114.732 70.8479 114.785 71.223 114.785 71.6129C114.785 71.6749 114.785 71.7399 114.779 71.8078C114.776 71.8757 114.77 71.9496 114.764 72.0234H110.931C111.004 72.3808 111.161 72.6496 111.397 72.8297C111.634 73.0129 111.926 73.1015 112.277 73.1015C112.537 73.1015 112.771 73.0572 112.977 72.9685C113.184 72.8799 113.397 72.7352 113.615 72.5373L114.51 73.3289C114.25 73.6508 113.934 73.9019 113.565 74.085C113.196 74.2652 112.759 74.3567 112.26 74.3567L112.254 74.3597ZM113.261 71.0487C113.214 70.7002 113.09 70.4167 112.892 70.201C112.694 69.9854 112.428 69.8761 112.1 69.8761C111.772 69.8761 111.507 69.9825 111.303 70.1951C111.099 70.4078 110.969 70.6913 110.907 71.0487H113.261Z" fill="#262262"/>
<path d="M115.943 68.7271H117.505V69.8376C117.662 69.4596 117.877 69.1583 118.152 68.9338C118.427 68.7064 118.796 68.606 119.263 68.6267V70.26H119.18C118.66 70.26 118.25 70.4165 117.951 70.7326C117.653 71.0486 117.505 71.5389 117.505 72.2035V74.2385H115.943V68.7271Z" fill="#262262"/>
<path d="M122.843 74.3597C122.432 74.3597 122.048 74.2829 121.697 74.1322C121.342 73.9816 121.041 73.7778 120.787 73.5208C120.533 73.2639 120.335 72.9626 120.19 72.617C120.045 72.2715 119.975 71.9023 119.975 71.5124V71.4917C119.975 71.1019 120.045 70.7297 120.19 70.3812C120.335 70.0327 120.533 69.7255 120.787 69.4656C121.041 69.2057 121.345 68.9989 121.697 68.8483C122.048 68.6976 122.438 68.6208 122.863 68.6208C123.383 68.6208 123.814 68.7035 124.16 68.8689C124.502 69.0344 124.804 69.2588 125.064 69.5483L124.107 70.5761C123.929 70.39 123.746 70.2453 123.557 70.1331C123.368 70.0238 123.135 69.9677 122.854 69.9677C122.656 69.9677 122.476 70.0061 122.314 70.0858C122.154 70.1656 122.013 70.2719 121.891 70.4107C121.77 70.5495 121.679 70.7061 121.614 70.8892C121.549 71.0723 121.516 71.2643 121.516 71.4711V71.4917C121.516 71.7044 121.549 71.9023 121.614 72.0884C121.679 72.2744 121.773 72.4339 121.897 72.5727C122.021 72.7086 122.169 72.8179 122.34 72.8976C122.512 72.9774 122.704 73.0158 122.916 73.0158C123.176 73.0158 123.404 72.9626 123.599 72.8563C123.794 72.75 123.989 72.6082 124.181 72.431L125.096 73.3554C124.827 73.6508 124.523 73.893 124.181 74.0791C123.838 74.2651 123.392 74.3626 122.843 74.3626V74.3597Z" fill="#262262"/>
<path d="M126.112 68.7271H127.674V69.8376C127.831 69.4596 128.046 69.1583 128.321 68.9338C128.596 68.7064 128.965 68.606 129.432 68.6267V70.26H129.349C128.829 70.26 128.419 70.4165 128.12 70.7326C127.822 71.0486 127.674 71.5389 127.674 72.2035V74.2385H126.112V68.7271Z" fill="#262262"/>
<path d="M131.727 75.9133C131.438 75.9133 131.187 75.8778 130.965 75.8099C130.746 75.742 130.537 75.6474 130.339 75.5323L130.865 74.401C130.968 74.4631 131.08 74.5133 131.198 74.5546C131.319 74.596 131.429 74.6166 131.532 74.6166C131.668 74.6166 131.777 74.5901 131.857 74.5398C131.937 74.4896 132.011 74.3951 132.079 74.2563L129.919 68.7242H131.573L132.829 72.4782L134.031 68.7242H135.655L133.538 74.3685C133.434 74.6491 133.325 74.8884 133.21 75.0833C133.092 75.2782 132.965 75.4377 132.823 75.5618C132.681 75.6858 132.522 75.7744 132.344 75.8276C132.167 75.8837 131.96 75.9103 131.727 75.9103V75.9133Z" fill="#262262"/>
<path d="M136.58 68.7272H138.142V69.5187C138.334 69.2588 138.564 69.0432 138.836 68.8748C139.108 68.7065 139.448 68.6238 139.858 68.6238C140.18 68.6238 140.493 68.6858 140.794 68.8099C141.096 68.9339 141.364 69.117 141.595 69.3592C141.828 69.6014 142.014 69.8997 142.156 70.2542C142.295 70.6086 142.366 71.0132 142.366 71.471V71.4917C142.366 71.9525 142.295 72.3571 142.156 72.7086C142.014 73.063 141.831 73.3613 141.601 73.6035C141.37 73.8457 141.104 74.0288 140.803 74.1529C140.502 74.2769 140.186 74.339 139.858 74.339C139.439 74.339 139.096 74.2563 138.824 74.0909C138.553 73.9255 138.325 73.7335 138.142 73.5149V75.8807H136.58V68.7242V68.7272ZM139.459 73.0158C139.645 73.0158 139.817 72.9803 139.979 72.9065C140.139 72.8356 140.283 72.7322 140.404 72.5993C140.526 72.4664 140.626 72.3069 140.697 72.1208C140.768 71.9347 140.806 71.728 140.806 71.4947V71.474C140.806 71.2466 140.771 71.0398 140.697 70.8508C140.626 70.6618 140.529 70.5023 140.404 70.3664C140.28 70.2305 140.139 70.1301 139.979 70.0592C139.817 69.9883 139.645 69.9499 139.459 69.9499C139.273 69.9499 139.102 69.9854 138.939 70.0592C138.777 70.1301 138.638 70.2335 138.517 70.3664C138.396 70.4993 138.302 70.6618 138.231 70.8508C138.16 71.0398 138.121 71.2466 138.121 71.474V71.4947C138.121 71.7221 138.157 71.9288 138.231 72.1179C138.302 72.3069 138.399 72.4664 138.517 72.6023C138.635 72.7381 138.777 72.8385 138.939 72.9094C139.099 72.9803 139.273 73.0187 139.459 73.0187V73.0158Z" fill="#262262"/>
<path d="M145.378 74.3302C145.139 74.3302 144.92 74.3036 144.725 74.2534C144.53 74.2032 144.362 74.1116 144.22 73.9816C144.079 73.8517 143.969 73.6804 143.893 73.4736C143.813 73.2639 143.774 72.9981 143.774 72.6762V70.0652H143.116V68.7272H143.774V67.3184H145.337V68.7272H146.633V70.0652H145.337V72.4281C145.337 72.7854 145.505 72.9656 145.842 72.9656C146.117 72.9656 146.374 72.8977 146.613 72.7589V74.0141C146.447 74.1116 146.267 74.1884 146.069 74.2445C145.871 74.3036 145.641 74.3331 145.381 74.3331L145.378 74.3302Z" fill="#262262"/>
<path d="M150.488 74.3597C150.063 74.3597 149.67 74.2858 149.306 74.1381C148.943 73.9905 148.63 73.7896 148.367 73.5327C148.104 73.2757 147.895 72.9744 147.744 72.6289C147.593 72.2833 147.517 71.9111 147.517 71.5124V71.4917C147.517 71.093 147.59 70.7238 147.744 70.3753C147.895 70.0297 148.104 69.7255 148.37 69.4656C148.636 69.2057 148.952 68.9989 149.315 68.8483C149.679 68.6976 150.077 68.6208 150.509 68.6208C150.94 68.6208 151.327 68.6947 151.69 68.8424C152.053 68.99 152.366 69.1909 152.632 69.4479C152.895 69.7048 153.102 70.0061 153.255 70.3516C153.409 70.6972 153.483 71.0694 153.483 71.4681V71.4888C153.483 71.8875 153.406 72.2597 153.255 72.6052C153.105 72.9508 152.895 73.255 152.629 73.5149C152.363 73.7748 152.047 73.9816 151.684 74.1322C151.321 74.2829 150.922 74.3597 150.491 74.3597H150.488ZM150.509 73.0128C150.736 73.0128 150.934 72.9744 151.111 72.8947C151.285 72.8149 151.436 72.7086 151.557 72.5698C151.681 72.4339 151.776 72.2744 151.841 72.0913C151.906 71.9111 151.938 71.7162 151.938 71.5095V71.4888C151.938 71.282 151.903 71.09 151.835 70.9069C151.767 70.7268 151.666 70.5643 151.536 70.4225C151.406 70.2808 151.253 70.1715 151.073 70.0888C150.896 70.0061 150.701 69.9647 150.488 69.9647C150.26 69.9647 150.06 70.0031 149.885 70.0829C149.711 70.1626 149.56 70.2689 149.439 70.4078C149.318 70.5466 149.221 70.7031 149.156 70.8862C149.091 71.0694 149.058 71.2614 149.058 71.4681V71.4888C149.058 71.6955 149.094 71.8875 149.162 72.0706C149.23 72.2538 149.33 72.4132 149.46 72.555C149.59 72.6968 149.744 72.8061 149.918 72.8888C150.092 72.9715 150.29 73.0128 150.509 73.0128Z" fill="#262262"/>
<path d="M59.9491 83.3148C59.6064 83.3148 59.2697 83.2557 58.9389 83.1376C58.6081 83.0195 58.3098 82.8393 58.0381 82.5941L58.6229 81.8941C58.8296 82.0625 59.0393 82.1954 59.255 82.2929C59.4706 82.3903 59.7069 82.4406 59.9638 82.4406C60.1706 82.4406 60.3301 82.4022 60.4423 82.3283C60.5545 82.2545 60.6136 82.1481 60.6136 82.0152V82.0034C60.6136 81.9384 60.6018 81.8823 60.5782 81.8321C60.5545 81.7819 60.5102 81.7376 60.4423 81.6933C60.3744 81.6519 60.2828 81.6076 60.1647 81.5633C60.0465 81.519 59.8929 81.4747 59.7039 81.4275C59.4765 81.3714 59.2697 81.3093 59.0866 81.2414C58.9005 81.1735 58.744 81.0878 58.617 80.9874C58.487 80.887 58.3896 80.7629 58.3187 80.6123C58.2478 80.4616 58.2123 80.2756 58.2123 80.0541V80.0422C58.2123 79.8355 58.2507 79.6524 58.3275 79.487C58.4043 79.3216 58.5107 79.1798 58.6495 79.0587C58.7883 78.9376 58.9537 78.846 59.1457 78.7811C59.3377 78.7161 59.5503 78.6836 59.7807 78.6836C60.1115 78.6836 60.4128 78.7338 60.6904 78.8313C60.968 78.9287 61.2191 79.0705 61.4524 79.2566L60.9385 80.0009C60.7377 79.865 60.5398 79.7557 60.3478 79.676C60.1558 79.5963 59.9609 79.5579 59.7689 79.5579C59.5769 79.5579 59.4322 79.5963 59.3347 79.6701C59.2372 79.7439 59.19 79.8384 59.19 79.9507V79.9625C59.19 80.0363 59.2048 80.0984 59.2313 80.1515C59.2579 80.2047 59.3111 80.2519 59.382 80.2963C59.4558 80.3406 59.5533 80.379 59.6803 80.4173C59.8073 80.4557 59.9668 80.5 60.1617 80.5532C60.3891 80.6123 60.5929 80.6802 60.7701 80.757C60.9474 80.8308 61.098 80.9224 61.222 81.0258C61.3431 81.1321 61.4377 81.2532 61.4997 81.395C61.5617 81.5368 61.5942 81.7051 61.5942 81.903V81.9148C61.5942 82.1363 61.5528 82.3342 61.4731 82.5085C61.3934 82.6827 61.2782 82.8275 61.1334 82.9456C60.9887 83.0638 60.8174 83.1524 60.6166 83.2144C60.4157 83.2764 60.1942 83.3089 59.9491 83.3089V83.3148Z" fill="#262262"/>
<path d="M62.4536 78.7545H65.8414V79.6347H63.4312V80.5473H65.5519V81.4275H63.4312V82.3727H65.8739V83.2528H62.4566V78.7545H62.4536Z" fill="#262262"/>
<path d="M66.7598 78.7545H67.8261L69.0075 80.6566L70.1889 78.7545H71.2552V83.2528H70.2775V80.317L69.0104 82.2397H68.9839L67.7315 80.3376V83.2558H66.7539V78.7575L66.7598 78.7545Z" fill="#262262"/>
<path d="M73.8813 78.722H74.794L76.7226 83.2528H75.6889L75.2783 82.2427H73.3762L72.9657 83.2528H71.9556L73.8843 78.722H73.8813ZM74.921 81.3685L74.3243 79.9094L73.7277 81.3685H74.9239H74.921Z" fill="#262262"/>
<path d="M77.4136 78.7545H78.3262L80.4351 81.525V78.7545H81.4127V83.2528H80.571L78.3912 80.3938V83.2528H77.4136V78.7545Z" fill="#262262"/>
<path d="M84.6558 83.3296C84.3044 83.3296 83.9854 83.2706 83.6959 83.1554C83.4065 83.0402 83.1584 82.8777 82.9516 82.6739C82.7449 82.4672 82.5824 82.225 82.4672 81.9414C82.352 81.6579 82.293 81.3507 82.293 81.017V81.0052C82.293 80.6832 82.352 80.3819 82.4702 80.1014C82.5883 79.8208 82.7508 79.5756 82.9605 79.363C83.1702 79.1503 83.4183 78.9849 83.7048 78.8609C83.9913 78.7398 84.3073 78.6777 84.6499 78.6777C84.8508 78.6777 85.0339 78.6925 85.1993 78.7191C85.3647 78.7457 85.5183 78.787 85.6601 78.8372C85.8018 78.8874 85.9347 78.9524 86.0588 79.0292C86.1828 79.106 86.3039 79.1946 86.4191 79.2921L85.7959 80.0452C85.7103 79.9714 85.6246 79.9094 85.539 79.8533C85.4533 79.7971 85.3647 79.7499 85.2731 79.7115C85.1816 79.6731 85.0811 79.6436 84.9748 79.6229C84.8685 79.6022 84.7503 79.5904 84.6204 79.5904C84.4402 79.5904 84.2719 79.6288 84.1153 79.7026C83.9588 79.7765 83.8229 79.8798 83.7048 80.0039C83.5866 80.1309 83.4951 80.2786 83.4271 80.4469C83.3592 80.6153 83.3267 80.7984 83.3267 80.9904V81.0022C83.3267 81.209 83.3592 81.398 83.4271 81.5722C83.4921 81.7465 83.5866 81.8971 83.7107 82.0271C83.8318 82.1571 83.9765 82.2545 84.1419 82.3254C84.3073 82.3963 84.4904 82.4317 84.6913 82.4317C85.0605 82.4317 85.3706 82.3402 85.6217 82.16V81.5132H84.6263V80.6596H86.5786V82.6119C86.3482 82.8098 86.0706 82.9781 85.7516 83.117C85.4326 83.2558 85.0664 83.3267 84.6558 83.3267V83.3296Z" fill="#262262"/>
<path d="M89.0712 78.722H89.9839L91.9126 83.2528H90.8788L90.4683 82.2427H88.5662L88.1556 83.2528H87.1455L89.0742 78.722H89.0712ZM90.1109 81.3685L89.5143 79.9094L88.9177 81.3685H90.1139H90.1109Z" fill="#262262"/>
<path d="M93.6522 79.6672H92.2847V78.7545H96.0121V79.6672H94.6446V83.2528H93.6551V79.6672H93.6522Z" fill="#262262"/>
<path d="M98.6968 78.7545H99.7631L100.944 80.6566L102.126 78.7545H103.192V83.2528H102.215V80.317L100.947 82.2397H100.921L99.6686 80.3376V83.2558H98.6909V78.7575L98.6968 78.7545Z" fill="#262262"/>
<path d="M104.273 78.7545H107.658V79.6347H105.248V80.5473H107.368V81.4275H105.248V82.3727H107.69V83.2528H104.273V78.7545Z" fill="#262262"/>
<path d="M108.58 78.7545H109.646L110.827 80.6566L112.009 78.7545H113.075V83.2528H112.097V80.317L110.83 82.2397H110.804L109.551 80.3376V83.2558H108.574V78.7575L108.58 78.7545Z" fill="#262262"/>
<path d="M114.156 78.7547H116.241C116.758 78.7547 117.151 78.8876 117.414 79.1534C117.618 79.3601 117.721 79.6142 117.721 79.9184V79.9302C117.721 80.0601 117.706 80.1724 117.674 80.2699C117.641 80.3673 117.6 80.4559 117.547 80.5357C117.494 80.6154 117.432 80.6834 117.361 80.7454C117.29 80.8044 117.216 80.8576 117.133 80.899C117.393 80.9964 117.597 81.1323 117.748 81.3006C117.895 81.469 117.972 81.7053 117.972 82.0036V82.0154C117.972 82.2222 117.934 82.4023 117.854 82.5559C117.774 82.7095 117.662 82.8395 117.514 82.9428C117.367 83.0462 117.19 83.123 116.983 83.1732C116.776 83.2234 116.546 83.25 116.295 83.25H114.159V78.7517L114.156 78.7547ZM116.032 80.5741C116.25 80.5741 116.425 80.5357 116.552 80.4618C116.682 80.388 116.744 80.2669 116.744 80.0985V80.0867C116.744 79.9361 116.687 79.8209 116.575 79.7441C116.463 79.6673 116.304 79.626 116.094 79.626H115.116V80.577H116.029L116.032 80.5741ZM116.295 82.3876C116.513 82.3876 116.685 82.3492 116.809 82.2694C116.933 82.1897 116.995 82.0656 116.995 81.9002V81.8884C116.995 81.7378 116.936 81.6196 116.82 81.531C116.705 81.4424 116.519 81.3981 116.262 81.3981H115.119V82.3876H116.295Z" fill="#262262"/>
<path d="M120.338 78.722H121.251L123.179 83.2528H122.145L121.735 82.2427H119.833L119.422 83.2528H118.412L120.341 78.722H120.338ZM121.378 81.3685L120.781 79.9094L120.184 81.3685H121.38H121.378Z" fill="#262262"/>
<path d="M123.874 78.7545H124.786L126.895 81.525V78.7545H127.873V83.2528H127.031L124.851 80.3938V83.2528H123.874V78.7545Z" fill="#262262"/>
<path d="M131.116 83.3296C130.764 83.3296 130.445 83.2706 130.156 83.1554C129.866 83.0402 129.618 82.8777 129.412 82.6739C129.205 82.4672 129.042 82.225 128.927 81.9414C128.812 81.6579 128.753 81.3507 128.753 81.017V81.0052C128.753 80.6832 128.812 80.3819 128.93 80.1014C129.048 79.8208 129.211 79.5756 129.423 79.363C129.633 79.1503 129.881 78.9849 130.168 78.8609C130.454 78.7398 130.77 78.6777 131.113 78.6777C131.314 78.6777 131.497 78.6925 131.662 78.7191C131.828 78.7457 131.981 78.787 132.123 78.8372C132.265 78.8874 132.398 78.9524 132.522 79.0292C132.646 79.106 132.767 79.1946 132.882 79.2921L132.259 80.0452C132.173 79.9714 132.088 79.9094 132.002 79.8533C131.916 79.7971 131.828 79.7499 131.736 79.7115C131.644 79.6731 131.544 79.6436 131.438 79.6229C131.331 79.6022 131.213 79.5904 131.083 79.5904C130.903 79.5904 130.735 79.6288 130.578 79.7026C130.422 79.7765 130.286 79.8798 130.168 80.0039C130.05 80.1309 129.958 80.2786 129.89 80.4469C129.822 80.6153 129.79 80.7984 129.79 80.9904V81.0022C129.79 81.209 129.822 81.398 129.89 81.5722C129.955 81.7465 130.05 81.8971 130.174 82.0271C130.298 82.1571 130.439 82.2545 130.605 82.3254C130.77 82.3963 130.953 82.4317 131.154 82.4317C131.523 82.4317 131.834 82.3402 132.085 82.16V81.5132H131.089V80.6596H133.042V82.6119C132.811 82.8098 132.534 82.9781 132.215 83.117C131.896 83.2558 131.529 83.3267 131.119 83.3267L131.116 83.3296Z" fill="#262262"/>
<path d="M135.865 83.3209C135.262 83.3209 134.784 83.1525 134.438 82.8188C134.093 82.485 133.918 81.9859 133.918 81.3213V78.7517H134.908V81.2977C134.908 81.6669 134.994 81.9445 135.165 82.1306C135.336 82.3167 135.575 82.4112 135.88 82.4112C136.184 82.4112 136.42 82.3226 136.594 82.1424C136.766 81.9623 136.851 81.6935 136.851 81.3331V78.7576H137.841V81.2947C137.841 81.6374 137.794 81.9357 137.702 82.1867C137.61 82.4378 137.478 82.6504 137.306 82.8188C137.135 82.9871 136.928 83.1141 136.683 83.1968C136.438 83.2795 136.166 83.3209 135.868 83.3209H135.865Z" fill="#262262"/>
<path d="M138.845 78.7545H139.758L141.867 81.525V78.7545H142.844V83.2528H142.003L139.823 80.3938V83.2528H138.845V78.7545Z" fill="#262262"/>
<path d="M145.851 78.7547H147.907C148.477 78.7547 148.914 78.9082 149.218 79.2095C149.475 79.4665 149.605 79.8091 149.605 80.2374V80.2492C149.605 80.6125 149.516 80.9108 149.339 81.1382C149.162 81.3686 148.929 81.5369 148.642 81.6433L149.741 83.25H148.583L147.62 81.8116H146.843V83.25H145.854V78.7517L145.851 78.7547ZM147.845 80.9403C148.09 80.9403 148.276 80.8812 148.406 80.766C148.536 80.6509 148.601 80.4973 148.601 80.3023V80.2905C148.601 80.0749 148.533 79.9154 148.394 79.8091C148.258 79.7028 148.066 79.6496 147.821 79.6496H146.838V80.9403H147.839H147.845Z" fill="#262262"/>
<path d="M152.373 83.3209C151.77 83.3209 151.292 83.1525 150.946 82.8188C150.601 82.485 150.426 81.9859 150.426 81.3213V78.7517H151.416V81.2977C151.416 81.6669 151.501 81.9445 151.673 82.1306C151.844 82.3167 152.083 82.4112 152.387 82.4112C152.692 82.4112 152.928 82.3226 153.102 82.1424C153.274 81.9623 153.359 81.6935 153.359 81.3331V78.7576H154.349V81.2947C154.349 81.6374 154.301 81.9357 154.21 82.1867C154.118 82.4378 153.985 82.6504 153.814 82.8188C153.643 82.9871 153.436 83.1141 153.191 83.1968C152.946 83.2795 152.674 83.3209 152.376 83.3209H152.373Z" fill="#262262"/>
<path d="M155.353 78.7545H156.342V80.7216L158.167 78.7545H159.364L157.532 80.6625L159.446 83.2528H158.256L156.862 81.3389L156.342 81.8794V83.2558H155.353V78.7575V78.7545Z" fill="#262262"/>
<path d="M162.229 83.3297C161.883 83.3297 161.561 83.2676 161.272 83.1465C160.979 83.0254 160.728 82.86 160.516 82.6503C160.303 82.4406 160.138 82.1984 160.02 81.9178C159.901 81.6373 159.842 81.336 159.842 81.014V81.0022C159.842 80.6803 159.901 80.379 160.022 80.0984C160.144 79.8178 160.309 79.5727 160.522 79.36C160.734 79.1474 160.985 78.982 161.281 78.8579C161.573 78.7368 161.895 78.6748 162.241 78.6748C162.586 78.6748 162.905 78.7368 163.198 78.8579C163.49 78.979 163.741 79.1444 163.954 79.3541C164.166 79.5609 164.332 79.806 164.447 80.0866C164.565 80.3672 164.624 80.6685 164.624 80.9904V81.0022C164.624 81.3242 164.565 81.6254 164.444 81.906C164.323 82.1866 164.157 82.4318 163.945 82.6444C163.732 82.8571 163.481 83.0225 163.186 83.1465C162.893 83.2676 162.571 83.3297 162.226 83.3297H162.229ZM162.241 82.417C162.438 82.417 162.619 82.3816 162.787 82.3077C162.955 82.2339 163.097 82.1334 163.215 82.0064C163.333 81.8765 163.425 81.7288 163.493 81.5605C163.558 81.3921 163.593 81.209 163.593 81.017V81.0052C163.593 80.8132 163.561 80.6301 163.493 80.4588C163.425 80.2875 163.333 80.1368 163.209 80.0098C163.088 79.8799 162.944 79.7794 162.775 79.7056C162.607 79.6318 162.427 79.5934 162.229 79.5934C162.031 79.5934 161.845 79.6288 161.679 79.7027C161.514 79.7765 161.372 79.8769 161.254 80.0039C161.136 80.1339 161.044 80.2816 160.976 80.4499C160.909 80.6183 160.876 80.8014 160.876 80.9934V81.0052C160.876 81.1972 160.909 81.3803 160.976 81.5516C161.041 81.7229 161.136 81.8735 161.26 82.0005C161.381 82.1305 161.526 82.2309 161.691 82.3048C161.857 82.3786 162.04 82.417 162.241 82.417Z" fill="#262262"/>
<path d="M53.4009 69.3209C55.2971 68.1542 57.3469 67.3154 59.4499 66.5474C61.9634 65.6289 64.5359 64.8669 67.1174 64.1728C72.23 62.7994 77.4195 61.6947 82.6266 60.7525C84.5287 60.407 86.4338 60.0821 88.3477 59.8015C88.5663 59.769 89.0329 59.6508 89.0831 59.3821C89.1334 59.1133 88.6962 59.1162 88.5367 59.1369C84.384 59.7453 80.249 60.528 76.1435 61.3964C70.6144 62.566 65.0882 63.9069 59.7511 65.7795C57.2996 66.639 54.8364 67.6137 52.6182 68.9812C52.4381 69.0905 52.2431 69.3031 52.4971 69.4479C52.7511 69.5926 53.1912 69.4479 53.4039 69.3179L53.4009 69.3209Z" fill="#262262"/>
<path d="M70.4785 39.4897C68.1511 40.5795 66.2165 42.3192 64.3794 44.0825C63.4874 44.939 62.6161 45.8192 61.7093 46.661C61.0241 47.296 60.3182 47.9546 59.503 48.4243C59.2756 48.5542 59.2372 48.5483 59.0009 48.6783C58.741 48.823 58.5076 49.0209 58.3334 49.2601C57.9849 49.7327 57.8313 50.3204 57.6688 50.8728C57.2908 52.1723 57.4266 53.5162 57.465 54.8512C57.53 57.1344 57.5595 59.4175 57.6806 61.6976C57.722 62.4863 57.7574 63.2867 57.8903 64.0635C57.9583 64.4592 58.0292 64.7812 58.4722 64.8462C58.9714 64.92 59.5 64.8964 60.0022 64.8993C60.8085 64.9052 61.6178 64.8993 62.427 64.8905C64.0751 64.8727 65.7262 64.8462 67.3743 64.7723C67.8262 64.7517 68.3017 64.7576 68.7418 64.6483C69.1819 64.539 69.7608 64.4031 70.0443 64.0428C70.2304 63.8095 70.1536 63.5289 70.1241 63.2571C70.0443 62.5276 70.1241 61.7803 70.1477 61.0479C70.1743 60.1854 70.1979 59.3259 70.2186 58.4635C70.2599 56.7474 70.2924 55.0314 70.3131 53.3124C70.3545 49.8065 70.3545 46.2977 70.3102 42.7918C70.2983 41.9323 70.2865 41.0757 70.2688 40.2162C70.2629 39.8589 68.9751 40.0951 68.984 40.5589C69.108 47.2517 69.0785 53.9445 68.8865 60.6344C68.8629 61.4318 68.8186 62.2293 68.8127 63.0268C68.8127 63.3162 68.8127 63.7799 68.8777 64.0133C68.8865 64.0457 68.8599 64.0251 68.9072 63.9926C69.0047 63.9276 69.049 63.9276 68.9072 63.969C68.9988 63.9424 68.7093 64.028 68.6916 64.0339C68.476 64.1048 68.7152 64.0369 68.7152 64.0369C68.6621 64.0339 68.5941 64.0517 68.541 64.0576C68.4937 64.0635 68.3519 64.0694 68.5557 64.0576C68.5026 64.0605 68.4494 64.0635 68.3962 64.0664C66.9519 64.155 65.5017 64.1698 64.0574 64.1934C62.6131 64.2171 61.1216 64.2466 59.6566 64.2023C59.5562 64.1993 59.4528 64.1934 59.3524 64.1905C59.3317 64.1905 59.184 64.1787 59.2962 64.1905C59.4085 64.2023 59.2726 64.1934 59.2578 64.1846C59.2017 64.1521 59.122 64.1166 59.2667 64.1964C59.3642 64.2495 59.311 64.2082 59.311 64.2171C59.311 64.2466 59.2962 64.1816 59.2844 64.1462C59.1072 63.585 59.0806 62.9677 59.0393 62.3858C58.8798 60.274 58.8532 58.1533 58.8 56.0386C58.7735 54.9694 58.7292 53.9002 58.7055 52.831C58.6878 52.0572 58.7705 51.3394 58.9861 50.5981C59.1279 50.1078 59.2578 49.5289 59.6182 49.1449C59.8545 48.8939 60.2798 48.7698 60.5929 48.566C60.9798 48.315 61.349 48.0373 61.7034 47.742C62.5334 47.0538 63.3043 46.2977 64.0751 45.5445C65.8 43.861 67.519 42.0977 69.5452 40.7686C70.0059 40.4673 70.4844 40.1808 70.9865 39.9475C71.1431 39.8736 71.5123 39.6905 71.338 39.469C71.1815 39.2711 70.6675 39.3952 70.4933 39.4779L70.4785 39.4897Z" fill="#262262"/>
<path d="M68.7034 40.5973C74.6697 42.142 80.6389 43.6867 86.6051 45.2344L95.5928 47.5618L97.8051 48.1348C98.1625 48.2264 98.5198 48.318 98.8743 48.4125C99.1933 48.4952 99.462 48.5867 99.5536 48.9382C99.7072 49.526 99.6806 50.2083 99.7338 50.8137C99.7751 51.2834 99.8165 51.753 99.8549 52.2226C99.9198 53.0142 99.9671 53.8057 99.9966 54.5973C100.014 55.1023 100.029 55.6074 100.041 56.1095C100.056 56.6825 100.005 57.2969 100.085 57.8639C100.124 58.1268 101.278 57.7812 101.358 57.5745C101.408 57.4475 101.37 57.2466 101.373 57.1137C101.373 56.7918 101.373 56.4699 101.373 56.1479C101.373 55.6842 101.423 55.188 101.373 54.7272C101.346 54.4998 100.106 54.7627 100.088 55.0699C100.044 55.8348 100.085 56.6175 100.085 57.3825C100.085 57.4888 100.082 57.5981 100.085 57.7045C100.1 58.0825 100.073 57.799 100.094 57.7931C100.13 57.7871 100.218 57.6897 100.262 57.6631C100.28 57.6513 100.434 57.5893 100.416 57.5952C100.28 57.6454 100.525 57.5715 100.487 57.5745C100.422 57.5804 100.351 57.6099 100.286 57.6277C100.109 57.672 100.392 57.607 100.307 57.6247C100.248 57.6365 100.189 57.6513 100.13 57.6631C98.6321 57.9762 97.1139 58.2036 95.6076 58.4576C89.9692 59.4028 84.3367 60.3804 78.7397 61.55C75.092 62.312 71.4532 63.1479 67.8587 64.1285C67.7494 64.158 67.2148 64.2968 67.265 64.4829C67.3152 64.669 67.8735 64.5154 67.9562 64.4918C74.3595 62.7433 80.8811 61.4437 87.4085 60.2682C90.0313 59.7956 92.657 59.3525 95.2857 58.9125C96.8333 58.6525 98.3928 58.4222 99.9317 58.0943C100.162 58.0441 100.395 57.9969 100.62 57.9289C100.83 57.8669 101.261 57.7753 101.364 57.5538C101.423 57.4298 101.376 57.226 101.376 57.096C101.376 56.8656 101.376 56.6382 101.376 56.4078C101.376 56.08 101.376 55.7492 101.376 55.4213C101.376 55.188 101.364 54.9517 101.376 54.7213L100.091 55.0639C100.141 55.5099 100.091 55.9914 100.091 56.4374C100.091 56.7504 100.091 57.0665 100.091 57.3796C100.091 57.4888 100.091 57.5952 100.091 57.7045C100.091 57.7576 100.062 57.8964 100.1 57.8019L101.373 57.5125C101.302 57.0163 101.346 56.4728 101.332 55.9707C101.317 55.4686 101.305 54.9931 101.29 54.5057C101.267 53.7939 101.231 53.085 101.178 52.3762C101.104 51.3779 101.013 50.3796 100.924 49.3783C100.871 48.7728 100.892 48.2323 100.236 48.0108C99.5802 47.7893 98.8447 47.6416 98.1536 47.4644C92.0899 45.8931 86.0291 44.3247 79.9654 42.7534L69.7667 40.1129C69.492 40.042 69.1169 40.1661 68.8718 40.2842C68.7596 40.3374 68.4347 40.5235 68.7093 40.5943L68.7034 40.5973Z" fill="#262262"/>
<path d="M99.4298 48.5897C101.249 48.5838 103.066 48.5778 104.885 48.5719C105.818 48.569 106.752 48.5631 107.685 48.5631C108.007 48.5631 108.211 48.5158 108.288 48.8821C108.364 49.2483 108.367 49.653 108.4 50.031C108.509 51.3631 108.462 52.6863 108.574 54.0331C108.669 55.1909 108.716 56.334 108.686 57.4947L109.064 57.1078C108.864 57.2082 108.68 57.3145 108.612 57.5449C108.562 57.7133 108.745 57.8344 108.875 57.8698C109.242 57.9732 109.673 57.8285 109.95 57.5892C110.063 57.4918 110.125 57.2998 110.015 57.1757C109.815 56.9483 109.425 57.0162 109.156 57.0192C108.781 57.0251 108.409 57.034 108.034 57.0428C107.227 57.0635 106.418 57.0901 105.612 57.1167C104.064 57.1698 102.513 57.2289 100.963 57.2496C100.673 57.2525 100.269 57.3293 100.121 57.6217C99.9909 57.8816 100.233 58.0825 100.49 58.0795C101.958 58.0588 103.426 58.0086 104.891 57.9584C105.626 57.9348 106.362 57.9082 107.097 57.8875C107.458 57.8757 107.821 57.8669 108.181 57.858C108.355 57.8551 108.527 57.8491 108.701 57.8462C108.76 57.8462 108.816 57.8462 108.875 57.8432C108.878 57.8432 109.215 57.8521 109.032 57.8226L108.822 57.6985L108.828 57.7074L108.893 57.2939C109.1 57.1137 109.363 57.0103 109.634 57.0871L109.897 57.412V57.4032C109.823 57.5065 109.744 57.6069 109.667 57.7103L109.596 57.7487C109.732 57.6808 109.968 57.5449 109.974 57.3618C110.001 56.3399 109.998 55.3179 109.906 54.2989C109.832 53.4749 109.741 52.6567 109.767 51.8416C109.791 51.1563 109.744 50.474 109.688 49.7918C109.631 49.1095 109.744 48.1407 109.005 47.8424C108.645 47.6977 108.24 47.7302 107.856 47.7302L106.382 47.7361C104.22 47.742 102.058 47.7508 99.8964 47.7568C99.607 47.7568 99.1994 47.8395 99.0547 48.1289C98.9217 48.3918 99.1698 48.5867 99.4239 48.5867L99.4298 48.5897Z" fill="#262262"/>
<path d="M100.584 48.6783C100.109 42.5408 99.6333 36.4003 99.1608 30.2627L98.7591 25.0526L97.8996 25.7054C99.5536 26.113 101.166 26.7125 102.693 27.4657C103.237 27.7345 103.748 28.0151 104.229 28.3813C104.51 28.5969 104.778 28.8302 105.059 29.0459C105.526 29.4003 106.607 28.8037 106.043 28.2868C105.65 27.9264 104.956 28.0446 104.713 28.529C104.592 28.7712 104.586 29.0783 104.578 29.3412C104.536 30.4636 104.637 31.5978 104.716 32.7172C104.965 36.1669 105.316 39.6108 105.594 43.0606C105.721 44.6555 105.848 46.2534 105.874 47.8543C105.886 48.5454 107.186 48.3652 107.177 47.7657C107.13 44.8003 106.811 41.8349 106.548 38.8842C106.291 35.9897 105.963 33.0834 105.883 30.1741C105.871 29.7577 105.857 29.3324 105.901 28.9159C105.907 28.8539 105.922 28.7918 105.927 28.7328C105.939 28.5999 105.88 28.8332 105.933 28.718C105.954 28.6737 105.857 28.8184 105.839 28.8362C105.641 29.0281 105.301 29.0872 105.053 29.0104C104.908 28.9661 104.956 28.9543 105.053 29.0459L106.037 28.2868C105.744 28.0653 105.467 27.8201 105.174 27.5986C104.631 27.1851 104.031 26.8779 103.42 26.5767C101.792 25.7733 100.088 25.1767 98.3278 24.7425C97.9202 24.6421 97.4359 24.9758 97.4683 25.3952C97.9439 31.5328 98.4194 37.6733 98.892 43.8108C99.0249 45.5475 99.1608 47.2842 99.2937 49.0209C99.3173 49.3429 99.8401 49.3665 100.059 49.3074C100.366 49.2247 100.602 49.0032 100.578 48.6783H100.584Z" fill="#262262"/>
<path d="M81.2918 43.5007C81.2475 41.4538 81.2062 39.4099 81.1619 37.3631C81.153 36.9614 81.0703 36.4741 81.1826 36.0842C81.2859 35.7239 81.8619 35.4994 82.1602 35.3015C82.8779 34.8201 83.5868 34.3268 84.2897 33.8277C87.1665 31.7897 89.9872 29.6484 93.056 27.8969C94.6923 26.9635 96.4112 26.1484 98.2129 25.5872C98.4256 25.5222 98.8273 25.345 98.7593 25.0526C98.6914 24.7602 98.2129 24.8015 98.0209 24.8635C94.5062 25.9564 91.3311 27.8703 88.3125 29.9408C86.7855 30.9893 85.291 32.0821 83.7817 33.1572C83.0433 33.6829 82.299 34.2057 81.5488 34.7108C80.8724 35.1686 79.9125 35.5644 79.8623 36.4918C79.8003 37.6437 79.9037 38.8281 79.9273 39.9829C79.9539 41.1998 79.9775 42.4196 80.0041 43.6365C80.0159 44.2213 81.3037 43.9673 81.2948 43.4977L81.2918 43.5007Z" fill="#262262"/>
<path d="M73.6034 41.6251C73.4616 39.8382 73.311 38.0513 73.1781 36.2614C73.119 35.4522 73.1161 34.6399 73.5739 33.937C73.9135 33.4142 74.4334 33.0361 74.9532 32.7083C76.3857 31.8045 77.9216 31.0366 79.4043 30.2155C80.9933 29.3353 82.5794 28.4551 84.1684 27.575C85.9701 26.5766 87.7718 25.5754 89.5734 24.5771L88.522 24.518C88.9148 26.4172 88.9325 28.3517 88.581 30.2568C88.4777 30.8091 89.7802 30.6112 89.8717 30.1209C90.235 28.1539 90.2114 26.1336 89.8068 24.1724C89.7182 23.7442 88.9709 23.9952 88.7553 24.1134C85.4502 25.9446 82.1481 27.7788 78.8431 29.61C77.2747 30.4783 75.6502 31.2876 74.1351 32.2446C72.868 33.042 71.8697 34.1142 71.8549 35.6884C71.846 36.7133 71.9849 37.753 72.0676 38.7749L72.3216 41.9707C72.36 42.4551 73.6477 42.1686 73.6064 41.6281L73.6034 41.6251Z" fill="#262262"/>
<path d="M88.6165 24.3761C90.6515 25.401 92.8017 26.1867 95.0198 26.7183C95.3152 26.7892 95.7051 26.6858 95.9266 26.4761C96.1245 26.2871 96.0684 26.0626 95.7996 25.9976C93.6612 25.4867 91.5966 24.7276 89.6355 23.7381C89.3608 23.5993 88.9709 23.6968 88.7258 23.8533C88.5485 23.9656 88.3418 24.2373 88.6194 24.3761H88.6165Z" fill="#262262"/>
<path d="M86.2776 59.8104C91.1776 59.0986 96.1101 58.5906 101.054 58.3247C105.999 58.0589 110.544 58.0294 115.273 58.4193C117.591 58.6112 119.904 58.9066 122.178 59.3998C122.474 59.4648 122.816 59.3851 123.079 59.2463C123.189 59.1901 123.525 58.9332 123.224 58.8712C118.912 57.9378 114.473 57.6366 110.072 57.5775C105.036 57.5095 99.9999 57.7724 94.9877 58.2539C92.1523 58.5256 89.3228 58.8682 86.5021 59.2787C86.3219 59.3053 85.7932 59.4205 85.7548 59.6509C85.7164 59.8931 86.1536 59.8311 86.2776 59.8133V59.8104Z" fill="#262262"/>
<path d="M60.9972 67.8322C65.3596 65.7677 69.8018 63.8774 74.3179 62.1761C75.6027 61.6917 76.8904 61.2251 78.187 60.7702C78.3702 60.7053 78.698 60.4778 78.5297 60.2593C78.3613 60.0407 77.8799 60.1795 77.679 60.2474C73.1246 61.8453 68.6381 63.6263 64.2284 65.5905C62.9761 66.1487 61.7297 66.7217 60.4892 67.3095C60.3179 67.3922 59.9694 67.5901 60.1466 67.8204C60.309 68.0301 60.8082 67.9209 60.9972 67.8322Z" fill="#262262"/>
<path d="M87.6005 64.8579C92.7427 62.6191 98.0946 60.8883 103.571 59.6774C109.067 58.4634 114.679 57.7871 120.306 57.6482C123.466 57.5714 126.626 57.6719 129.775 57.9406C130.067 57.9643 130.478 57.8461 130.614 57.5567C130.749 57.2672 130.498 57.0752 130.233 57.0516C124.511 56.5613 118.743 56.6293 113.037 57.2525C107.33 57.8757 101.668 59.0453 96.1836 60.7525C93.0794 61.7183 90.0284 62.8525 87.0482 64.152C86.8178 64.2524 86.5608 64.5271 86.7351 64.7811C86.9094 65.0351 87.3672 64.9613 87.6035 64.8579H87.6005Z" fill="#262262"/>
<path d="M105.186 38.2668C112.098 39.1322 118.965 40.3314 125.758 41.8672C127.678 42.3014 129.592 42.7622 131.5 43.2495C131.777 43.3204 132.197 43.1934 132.407 43.0073C132.616 42.8213 132.554 42.6706 132.3 42.6056C125.551 40.8837 118.723 39.4896 111.838 38.4352C109.891 38.1369 107.942 37.8681 105.987 37.6229C105.691 37.5846 105.307 37.6613 105.08 37.8651C104.897 38.0305 104.912 38.2314 105.186 38.2668Z" fill="#262262"/>
<path d="M57.5687 50.356C58.0236 54.1425 58.4784 57.926 58.9303 61.7125C59.0012 62.2914 60.286 61.9783 60.2152 61.3699C59.7603 57.5834 59.3055 53.7999 58.8536 50.0134C58.7827 49.4345 57.4979 49.7476 57.5687 50.356Z" fill="#262262"/>
<path d="M101.208 49.1155C96.6504 47.4526 91.9749 46.1146 87.2255 45.1252C85.8669 44.8416 84.5023 44.5876 83.1319 44.3602C82.8424 44.3129 82.4969 44.4104 82.2369 44.5315C82.1424 44.5758 81.785 44.7855 82.0715 44.8328C86.8091 45.6184 91.4876 46.7408 96.0627 48.1969C97.3829 48.6163 98.6943 49.0652 99.9939 49.5408C100.248 49.6323 100.573 49.5408 100.818 49.4522C100.862 49.4374 101.394 49.1834 101.208 49.1155Z" fill="#262262"/>
<path d="M109.542 56.653C109.664 54.237 109.477 51.8209 108.987 49.4522C108.931 49.1804 107.64 49.4847 107.702 49.7948C108.193 52.1636 108.379 54.5796 108.258 56.9956C108.249 57.1817 109.522 57.0311 109.542 56.653Z" fill="#262262"/>
<path d="M82.0122 34.38C81.4097 34.7817 80.8101 35.1804 80.2076 35.5821C79.738 35.8952 79.0321 36.2437 78.9818 36.8817C78.9553 37.2036 79.0734 37.5226 79.1532 37.8298C79.2506 38.2049 79.3481 38.58 79.4456 38.9581C79.6405 39.7083 79.8354 40.4614 80.0333 41.2117C80.1397 41.6192 81.4245 41.2825 81.3181 40.869C80.9785 39.5665 80.5797 38.2669 80.3021 36.9496C80.246 36.6897 80.2578 36.4771 80.4586 36.291C80.6595 36.1049 80.9223 35.9661 81.1498 35.8125L82.8008 34.7138C82.9692 34.6015 83.1848 34.3918 82.9249 34.2501C82.6856 34.1201 82.2278 34.2412 82.0181 34.38H82.0122Z" fill="#262262"/>
<path d="M73.5264 40.5943C73.4201 38.3791 73.3137 36.164 73.2074 33.9517C73.1897 33.5943 71.9019 33.8395 71.9226 34.2943C72.0289 36.5095 72.1353 38.7247 72.2416 40.937C72.2593 41.2943 73.5471 41.0492 73.5264 40.5943Z" fill="#262262"/>
<path d="M104.262 37.7972C108.872 38.5917 113.43 39.6728 117.907 41.0255C118.208 41.1171 118.607 41.0284 118.814 40.7833C119 40.5647 118.944 40.2723 118.654 40.1867C114.079 38.8044 109.422 37.7057 104.714 36.8964C104.427 36.8462 104.002 37.0057 103.875 37.2833C103.739 37.5816 103.999 37.7559 104.259 37.8002L104.262 37.7972Z" fill="#262262"/>
<path d="M97.8435 25.8471C100.15 26.7716 102.457 27.6931 104.767 28.6175C105.036 28.7239 105.428 28.5998 105.668 28.4699C105.815 28.3901 106.078 28.1804 105.806 28.0711C103.5 27.1467 101.193 26.2251 98.8832 25.3007C98.6144 25.1943 98.2216 25.3184 97.9824 25.4484C97.8347 25.5281 97.5718 25.7378 97.8435 25.8471Z" fill="#262262"/>
<path d="M94.4557 50.2378C89.3489 49.1006 84.1713 48.3002 78.9612 47.8483C77.4785 47.7184 75.9958 47.6209 74.5101 47.5471C74.2089 47.5323 73.8101 47.6327 73.6743 47.9399C73.5502 48.2175 73.7836 48.4627 74.0641 48.4745C79.289 48.7314 84.4932 49.331 89.6384 50.2762C91.1004 50.5449 92.5595 50.8432 94.0097 51.1652C94.6358 51.304 95.3033 50.4268 94.4557 50.2378Z" fill="#262262"/>
<path d="M92.8697 51.1003C93.1444 51.1003 93.5667 51.0117 93.7174 50.7488C93.868 50.4859 93.5933 50.3707 93.3689 50.3707C93.0942 50.3707 92.6718 50.4593 92.5212 50.7222C92.3705 50.9851 92.6452 51.1003 92.8697 51.1003Z" fill="#262262"/>
<path d="M100.969 53.1767C101.072 48.9796 100.972 44.7826 100.685 40.5944C100.665 40.2813 100.133 40.2813 99.9291 40.3345C99.6338 40.4142 99.3798 40.618 99.4034 40.937C99.6869 45.0425 99.7726 49.1627 99.6722 53.2771C99.6574 53.9357 100.957 53.7408 100.972 53.1737L100.969 53.1767Z" fill="#262262"/>
<path d="M95.7198 26.9281C94.9696 26.0037 93.8679 25.4602 92.6953 25.3243C92.4029 25.2918 92.0278 25.4041 91.7886 25.5665C91.7295 25.6049 91.6173 25.6817 91.6409 25.7674C91.6645 25.853 91.8063 25.8589 91.8683 25.8648C91.8772 25.8648 91.9835 25.8796 91.9451 25.8737C91.9126 25.8678 91.9924 25.8826 92.0013 25.8826C92.0662 25.8944 92.1342 25.9062 92.1991 25.921C92.3291 25.9505 92.4591 25.9859 92.589 26.0273C92.8342 26.107 93.0645 26.2104 93.289 26.3374C93.7586 26.6003 94.1751 26.9518 94.5147 27.3712C94.5679 27.4361 94.7835 27.4214 94.8426 27.4184C95.008 27.4066 95.1882 27.3682 95.3418 27.3062C95.4658 27.2589 95.8675 27.1083 95.7198 26.9252V26.9281Z" fill="#262262"/>
<path d="M92.9196 40.42C93.0525 37.9833 92.9669 35.5378 92.6656 33.1158C92.6065 32.6285 91.3158 32.9268 91.3808 33.4584C91.6732 35.8154 91.7559 38.1871 91.6259 40.5559C91.5934 41.1348 92.8901 40.9044 92.9167 40.4171L92.9196 40.42Z" fill="#262262"/>
<path d="M91.2692 38.1016V35.8864C91.2692 35.8096 91.0713 35.7978 91.0447 35.7948C90.8941 35.7859 90.7198 35.8184 90.5751 35.8568C90.4303 35.8952 90.2649 35.9484 90.1379 36.037C90.07 36.0843 89.9873 36.1345 89.9873 36.229V38.4442C89.9873 38.521 90.1852 38.5328 90.2118 38.5357C90.3624 38.5446 90.5367 38.5121 90.6814 38.4737C90.8261 38.4353 90.9915 38.3821 91.1185 38.2935C91.1865 38.2463 91.2692 38.1961 91.2692 38.1016Z" fill="#262262"/>
<path d="M77.3661 34.4302C76.7163 34.7345 76.0754 35.0594 75.4522 35.4138C75.2041 35.5556 74.7049 35.9129 74.9796 36.2467C75.0978 36.3914 75.3134 36.4357 75.4935 36.4328C75.8539 36.4239 76.3028 36.291 76.4682 35.9395C76.5125 35.848 76.4091 35.7594 76.3412 35.7269C76.2231 35.6708 76.0459 35.6737 75.9218 35.6914C75.6471 35.7328 75.3134 35.8421 75.1893 36.1108L75.5201 35.8391L75.8627 35.7475C75.9779 35.7269 76.0872 35.7357 76.1935 35.7741C76.1581 35.7564 76.167 35.7653 76.2231 35.7978C76.2172 35.8037 76.1729 35.7416 76.1699 35.7357L76.2142 35.8096C76.2024 35.783 76.1965 35.7623 76.1965 35.7328V35.8184C76.1965 35.8007 76.1994 35.78 76.2053 35.7623C76.1788 35.8096 76.1758 35.8125 76.1994 35.7771C76.2319 35.7387 76.2231 35.7475 76.1729 35.8007C76.1876 35.7859 76.2024 35.7741 76.2201 35.7623C76.1433 35.8155 76.1286 35.8243 76.1788 35.7948C76.1965 35.7859 76.2113 35.7741 76.229 35.7653C76.2733 35.7387 76.3205 35.7151 76.3678 35.6885C76.5391 35.591 76.7134 35.4994 76.8876 35.4049C77.0619 35.3104 77.2361 35.2218 77.4134 35.1332C77.4606 35.1096 77.5108 35.0889 77.5551 35.0623C77.3927 35.1568 77.5492 35.0653 77.5876 35.0475C77.6821 35.0032 77.7767 34.956 77.8712 34.9117C77.9923 34.8556 78.1399 34.7847 78.2167 34.6724C78.2669 34.6016 78.2965 34.4952 78.2167 34.4243C78.0159 34.2412 77.5847 34.3269 77.372 34.4243L77.3661 34.4302Z" fill="#262262"/>
<path d="M95.7435 59.7838C97.7755 58.7767 99.9996 58.2509 102.268 58.2066C102.528 58.2007 102.962 58.1121 103.122 57.8788C103.281 57.6454 102.98 57.5893 102.797 57.5923C100.082 57.6425 97.4093 58.31 94.9785 59.5151C94.8072 59.6007 94.5945 59.8016 94.8426 59.9256C95.0907 60.0497 95.522 59.8931 95.7464 59.7809L95.7435 59.7838Z" fill="#262262"/>
<path d="M68.1719 50.7901C66.8457 51.9508 65.3866 52.9432 63.8242 53.7555C63.7828 53.7761 63.6529 53.8618 63.6706 53.9356C63.6883 54.0095 63.8478 54.0124 63.8921 54.0154C64.2052 54.0242 64.5271 53.9149 64.7989 53.7732C66.4263 52.9285 67.9503 51.8858 69.3297 50.6808C69.5453 50.4917 69.1347 50.4829 69.0313 50.4917C68.7537 50.5183 68.3875 50.601 68.1719 50.793V50.7901Z" fill="#262262"/>
<path d="M69.9054 43.9968C67.6784 45.8989 65.2948 47.6061 62.7754 49.0976C62.5864 49.2099 62.4092 49.4432 62.6602 49.5879C62.9113 49.7327 63.3425 49.5998 63.5699 49.4639C66.1691 47.9221 68.6353 46.1588 70.9332 44.1947C71.1429 44.0145 71.0632 43.8137 70.8151 43.7517C70.5256 43.6778 70.1298 43.8048 69.9083 43.9939L69.9054 43.9968Z" fill="#262262"/>
<path d="M97.3178 48.374C101.01 49.0238 104.734 49.4875 108.474 49.7652C108.763 49.7859 109.144 49.6884 109.38 49.523C109.578 49.3842 109.56 49.2631 109.306 49.2424C105.641 48.9707 101.993 48.5158 98.3723 47.8778C98.0799 47.8276 97.7372 47.9133 97.4744 48.0432C97.3769 48.0905 97.0225 48.3238 97.3178 48.377V48.374Z" fill="#262262"/>
</g>
<defs>
<clipPath id="clip0_1628_2710">
<rect width="112.254" height="59.6594" fill="white" transform="translate(52.373 23.6703)"/>
</clipPath>
</defs>
</svg>
