<svg xmlns="http://www.w3.org/2000/svg" width="217" height="108" fill="none"><path fill="#0B0B0B" d="M92.158 57.093a.483.483 0 0 0 .029-.248v-10.8c0-.235 0-.235.198-.123 1.992 1.124 3.984 2.247 5.977 3.369a.263.263 0 0 1 .16.264v29.018a1.331 1.331 0 0 1-.483-.145 24.291 24.291 0 0 1-2.52-1.375 55.756 55.756 0 0 0-2.4-1.35 2.712 2.712 0 0 1-1.326-1.603c-.893-2.62-1.805-5.23-2.71-7.845l-.065-.17c-.01.096-.016.146-.018.197-.073 2.188-.144 4.377-.214 6.565 0 .226-.01.228-.228.136a7.979 7.979 0 0 1-1.109-.582c-1.526-.94-3.104-1.79-4.674-2.653a.261.261 0 0 1-.161-.27V40.513c0-.229 0-.235.218-.145.203.08.4.175.59.284 1.258.775 2.578 1.436 3.858 2.18.45.253.88.537 1.29.85.215.165.37.396.441.658.223.78.323 1.586.524 2.37.38 1.542.772 3.08 1.16 4.619.47 1.853.938 3.709 1.403 5.566.016.06.035.117.06.2ZM131.934 39.421c-.011.142-.019.284-.035.424a1.413 1.413 0 0 1-.806 1.128c-1.085.589-2.147 1.217-3.212 1.838-4.23 2.468-8.483 4.895-12.685 7.414-1.693 1.012-3.408 1.99-5.192 2.834a8.378 8.378 0 0 1-1.235.483 1.096 1.096 0 0 1-.717-.027 20.95 20.95 0 0 1-2.477-1.197c-3.282-1.773-6.477-3.69-9.68-5.597-1.303-.775-2.646-1.481-3.924-2.298-.218-.139-.423-.295-.635-.44-.107-.075-.121-.139-.018-.239.13-.125.274-.233.43-.322 2.826-1.583 5.627-3.208 8.432-4.828l14.872-8.59c.261-.152.522-.307.769-.484a.847.847 0 0 1 1.007-.034c.726.427 1.451.846 2.184 1.268l10.853 6.303c.322.187.645.364.967.55.171.102.333.22.484.35a1.599 1.599 0 0 1 .618 1.464Zm-21.693 6.547c.209.01.418-.032.607-.122.321-.132.633-.286.934-.46 1.289-.725 2.506-1.566 3.802-2.279a27.653 27.653 0 0 0 2.347-1.45 8.157 8.157 0 0 0 1.37-1.103c.15-.15.261-.336.322-.54.211-.773-.042-1.462-.746-1.944-1.012-.694-2.066-1.323-3.132-1.934a.941.941 0 0 0-1.03-.017c-1.315.704-2.596 1.466-3.888 2.208-2.451 1.409-4.835 2.932-7.361 4.21-.13.066-.185.085-.203.172-.018.087.142.186.219.213.345.19.843.382 1.238.622.99.561 1.934 1.188 2.958 1.698a6.157 6.157 0 0 0 2.563.727Z"/><path fill="#0B0B0B" d="M116.685 50.519v7.541a.27.27 0 0 1-.208.315 9.985 9.985 0 0 0-1.589.823l-5.226 3.087c-.244.144-.497.27-.757.38a1.043 1.043 0 0 1-1.061-.104c-.255-.174-.505-.356-.758-.534l-.423-.298c-.057.047-.031.102-.031.147v4.213c0 .09 0 .17.105.218a7.563 7.563 0 0 1 1.558.99c.068.052.12.091.216.028 1.504-.967 3.097-1.78 4.649-2.663.743-.42 1.484-.844 2.229-1.33 0 .61.171 1.176.169 1.76v5.624c0 .249-.053.463-.301.576-.914.419-1.747.982-2.621 1.472-1.356.76-2.685 1.568-4.047 2.317a.25.25 0 0 1-.334-.035c-.506-.414-1.064-.76-1.623-1.177v9.188c0 .242 0 .245-.223.143-.759-.35-1.465-.806-2.187-1.217-1.268-.735-2.534-1.473-3.804-2.203a.219.219 0 0 1-.097-.097.226.226 0 0 1-.022-.135V50.752c0-.253 0-.26.239-.16.86.402 1.699.85 2.512 1.342 1.451.825 2.861 1.728 4.32 2.542.292.16.59.314.895.451a.55.55 0 0 0 .528-.023c1.319-.696 2.605-1.45 3.89-2.205 1.173-.691 2.338-1.397 3.559-2.006.14-.075.289-.133.443-.174ZM123.993 53.915a166.908 166.908 0 0 1-5.359 3.088V49.418c0-.161.054-.211.19-.27a25.815 25.815 0 0 0 2.698-1.442c2.289-1.331 4.565-2.684 6.858-4.007 1.731-1 3.446-2.024 5.178-3.022.21-.124.428-.235.652-.332.126-.053.178-.052.176.113v7.304a.238.238 0 0 1-.151.23c-1.298.749-2.592 1.5-3.893 2.241a.337.337 0 0 0-.193.347v21.276a.331.331 0 0 1-.199.342 2229.67 2229.67 0 0 0-5.802 3.202l-.162.083.007-21.568ZM83.268 39.163c1.056-.59 2.086-1.142 3.098-1.724a2965.06 2965.06 0 0 0 10.382-5.996c3.487-2.018 6.991-4.006 10.454-6.064.389-.24.798-.444 1.222-.611a.24.24 0 0 1 .236 0c1.399.867 2.862 1.622 4.269 2.473.47.268.92.568 1.348.897.129.107.134.153-.024.244-4.807 2.737-9.612 5.477-14.415 8.22-2.78 1.594-5.537 3.216-8.309 4.818-.585.337-1.185.645-1.746 1.023-.453.303-.87.284-1.326 0-1.414-.867-2.806-1.773-4.207-2.656l-.982-.624Z"/></svg>