<svg xmlns="http://www.w3.org/2000/svg" width="217" height="108" fill="none"><path fill="#0B0B0B" d="M82.952 47.423h10.05c-.16.776-.312 1.482-.455 2.193-.182.952-.151 1.867.764 2.435.886.549 1.838.437 2.666-.127.485-.333 1.057-.792 1.21-1.307.56-1.877.96-3.801 1.45-5.835h-5.08a57727.23 57727.23 0 0 1 3.718-17.488h10.092c-1.233 5.808-2.45 11.536-3.685 17.36h2.436c1.24-5.794 2.467-11.558 3.7-17.336.193-.04.388-.066.585-.08 5.389 0 10.781-.04 16.169.016 4.129.044 7.45 2.558 8.471 6.264.914 3.339.053 6.378-1.608 9.267-.374.652-.855 1.244-1.389 2.01h4.828c-.237.309-.325.457-.444.576-2.911 2.945-6.359 4.634-10.58 4.553-1.882-.036-3.767 0-5.718 0-.894 4.203-1.773 8.324-2.666 12.516h-10.078c1.231-5.83 2.452-11.613 3.696-17.497h-2.421c-.331 1.52-.687 3.083-1.007 4.654-1.385 6.806-7.399 12.244-14.253 12.872-5.03.463-9.165-2.019-10.782-6.487-.817-2.264-.629-4.552-.084-6.838l.415-1.721Zm34.309-7.591c2.22 0 4.252.056 6.277-.042.466-.024 1.04-.495 1.329-.914.469-.696.053-1.502-.753-1.52-2.085-.046-4.174-.015-6.33-.015l-.523 2.49ZM102.4 71.517h1.146l4.265 6.255.183-.045v-6.184h1.329v9.122h-1.135l-4.218-6.191-.194.058v6.122h-1.37l-.006-9.137ZM82.523 80.674h-.913l-.432-.715c-1.62.954-3.305 1.19-4.934.072-1.562-1.073-2.192-2.632-2.02-4.505.204-2.17 1.984-3.943 4.093-4.113 1.845-.148 3.6 1.107 4.108 3.006h-1.33c-1.064-1.563-1.918-1.994-3.24-1.617-1.59.45-2.56 2.287-2.168 4.104.365 1.7 1.756 2.756 3.348 2.542 1.096-.146 1.88-.936 2.085-2.193h-2.59v-1.261h3.993v4.68ZM122.696 71.493c1.266 0 2.482-.046 3.691.013 1.354.066 2.33.914 2.623 2.138.292 1.224-.236 2.332-1.462 3.044-.13.075-.265.143-.474.252l2.182 3.73h-1.52l-2.105-3.583h-1.537v3.567h-1.402l.004-9.16Zm1.409 4.216c.833 0 1.564.062 2.279-.017a1.375 1.375 0 0 0 1.257-1.434c-.033-.71-.391-1.28-1.096-1.367-.795-.102-1.612-.024-2.433-.024l-.007 2.842ZM84.064 75.973c.049-2.509 2.054-4.59 4.396-4.568 2.343.022 4.386 2.215 4.366 4.72-.027 2.558-2.043 4.667-4.424 4.636-2.45-.029-4.391-2.174-4.338-4.788Zm7.333.143c0-1.87-1.321-3.42-2.937-3.434-1.615-.014-3.002 1.554-3.017 3.383-.014 1.829 1.345 3.402 2.968 3.415 1.623.013 2.982-1.49 2.986-3.364ZM134.446 80.761c-2.405-.022-4.347-2.13-4.336-4.703.013-2.544 2.037-4.68 4.409-4.653 2.372.028 4.386 2.224 4.359 4.726-.037 2.56-2.038 4.65-4.432 4.63Zm3.003-4.649c0-1.869-1.329-3.419-2.942-3.43-1.614-.01-3.012 1.576-3.014 3.39 0 1.844 1.351 3.395 2.973 3.408 1.623.013 2.983-1.502 2.983-3.368ZM72.556 80.715c-.285-.71-.548-1.352-.826-2.056h-3.655l-.818 2.01h-1.438l3.472-9.137h1.217l3.472 9.108-1.424.075Zm-2.662-7.076c-.466 1.323-.85 2.409-1.245 3.534h2.524l-1.28-3.534ZM101.228 80.675h-1.462c-.275-.673-.549-1.34-.826-2.034h-3.624l-.82 2.014h-1.452l3.472-9.119h1.22l3.492 9.139Zm-5.358-3.492h2.53l-1.279-3.529-1.251 3.529ZM114.849 71.557c1.33 0 2.638-.117 3.918.033 1.372.159 2.329 1.495 2.302 2.874a2.844 2.844 0 0 1-2.407 2.794c-.771.116-1.558.114-2.461.174v3.234h-1.352v-9.11Zm1.423 1.28v3.126c.731 0 1.387.05 2.038-.013a1.568 1.568 0 0 0 1.37-1.563 1.605 1.605 0 0 0-1.507-1.544c-.605-.036-1.208-.005-1.906-.005l.005-.002ZM145.579 75.377v1.335h-3.58v3.941h-1.396v-9.102h5.747v1.244h-4.294v2.579l3.523.004ZM154.839 80.67h-1.447v-7.833h-2.705v-1.294h6.838v1.252h-2.686v7.874ZM59.478 78.094h1.12c.282.403.476.89.834 1.152.98.714 2.192.038 2.224-1.257.05-1.762.014-3.527.016-5.3v-1.15h1.383c0 2.322.1 4.63-.034 6.923-.092 1.557-1.524 2.45-3.185 2.268-1.468-.156-2.427-1.21-2.358-2.636ZM147.923 71.54h1.301v9.098h-1.301V71.54Z"/></svg>