<svg width="217" height="108" fill="none" xmlns="http://www.w3.org/2000/svg"><g clip-path="url(#a)"><path d="m147.654 28.436-52.877 2.032a5.663 5.663 0 0 0 .435 11.318l52.877-2.032a5.663 5.663 0 0 0-.435-11.318Z" fill="#FFDA00"/><path d="M97.85 32.3c-.501 0-1.048-.01-1.672-.03h-.065c-.067 0-.117 0-.143-.005a1.326 1.326 0 0 1-.929-.425 1.361 1.361 0 0 1 .99-2.292h.055c.198.006.445.037.737.074.61.086 1.226.133 1.843.14 1.362 0 2.512-.296 3.514-.897.834-1.313 1.029-2.31 1.249-4.544a2.004 2.004 0 0 1-.779-.381l-.008-.007a1.776 1.776 0 0 1-.594-1.755c.09-.378.297-.648.489-.89l.046-.058c.068-.092.131-.18.197-.267l.019-.027.611-.615c.108-.265.258-.512.442-.73l.013-.015.038-.04a.697.697 0 0 1 .499-.218c.062 0 .123.009.182.027a.76.76 0 0 1 .473.428l.018.04.009.044c.012.06.024.129.033.198l.018.009a.67.67 0 0 1 .36.592v.038a.66.66 0 0 1 .391.37.664.664 0 0 1 .043.368 7.16 7.16 0 0 1-.915 2.407c-.068 3.264-.184 5.35-1.148 6.674-1.08 1.488-3.104 1.787-6.015 1.787Z" fill="#FFDA00"/><path d="M104.348 23.736c-.453 0-.844-.542-1.616-1.667-.144-.208-.291-.424-.431-.621a6.48 6.48 0 0 0-.593-.706c-.256-.27-.456-.484-.418-.797.034-.269.235-.425.384-.52a.649.649 0 0 1 .35-.099c.615 0 1.427.829 1.978 1.603.25.351 1.459 2.13.651 2.707a.524.524 0 0 1-.308.1h.003Z" fill="#FFDA00"/><path d="M103.107 21.212c-.065.09-.13.18-.205.278-.186.24-.382.47-.459.791a1.35 1.35 0 0 0 .462 1.334c.277.22.62.342.974.347-.266 2.796-.454 3.816-1.555 5.44l.317-.336c-2.603 1.738-5.553.934-6.574.9a.945.945 0 1 0-.073 1.886c.061.004.123.004.185 0 7.894.261 8.278-1.033 8.422-8.1 0-.019 0-.038.008-.047a6.777 6.777 0 0 0 .911-2.343.252.252 0 0 0-.377-.26c-.029.011-.048.032-.077.042.015-.158.02-.317.014-.476a.265.265 0 0 0-.144-.228.25.25 0 0 0-.204 0 4.333 4.333 0 0 0-.065-.495.354.354 0 0 0-.211-.198.265.265 0 0 0-.259.077l-.038.04c-.173.206-.309.44-.404.692" fill="#885F27"/><path d="M103.667 21.172c-.693-.972-1.478-1.582-1.771-1.395-.505.321.048.458.743 1.431.695.973 1.492 2.294 1.78 2.092.288-.202-.057-1.154-.752-2.128Z" fill="#885F27"/><g filter="url(#b)"><path d="M95.21 23.835c-1.674-2.773-4.186-4.395-6.854-4.761H78.049c-2.877 0-5.546 1.57-7.482 4.499-1.936 2.878-2.982 6.593-2.982 10.621 0 4.133 1.099 8.006 3.139 10.831 1.935 2.77 4.5 4.342 7.272 4.342h10.308c2.564-.208 5.023-1.726 6.802-4.499 1.936-2.878 2.982-6.593 2.982-10.621 0-3.82-.994-7.586-2.878-10.412Z" fill="#FFDA00"/><g filter="url(#c)"><path d="M81.767 21.056h-3.092c-2.5 0-4.82 1.364-6.502 3.91-1.681 2.501-2.592 5.73-2.592 9.23 0 3.593.956 6.958 2.729 9.413 1.681 2.41 3.91 3.774 6.32 3.774h3.088c2.228-.182 4.365-1.5 5.911-3.91 1.682-2.501 2.591-5.73 2.591-9.23 0-3.32-.863-6.594-2.5-9.05-1.497-2.41-3.629-3.82-5.953-4.137Z" fill="#875E27"/><path d="M87.132 34.334c0-3.456-.954-6.413-2.41-8.73-1.045-1.501-2.227-2.73-3.682-3.32v-.64h-2.501c-4.729 0-8.591 5.687-8.591 12.599 0 3.592 1.046 6.824 2.638 9.184 1.5 2.137 3.59 3.501 5.91 3.501h2.501v-.682c3.634-1.592 6.135-6.32 6.135-11.913Z" fill="#F9B82A"/><path d="M81.13 47.063h-2.637c-2.228 0-4.365-1.273-6.002-3.593-1.681-2.41-2.638-5.683-2.638-9.184 0-7.003 3.911-12.732 8.73-12.732h2.64v.593a9.566 9.566 0 0 1 3.59 3.32c1.5 2.409 2.41 5.502 2.41 8.82 0 5.547-2.41 10.458-6.002 12.14l-.09.637v-.002Zm-2.546-25.32c-4.592 0-8.407 5.547-8.407 12.504 0 3.456.955 6.684 2.592 9.048 1.5 2.228 3.591 3.456 5.82 3.456h2.41v-.545h.091c1.681-.774 3.183-2.32 4.274-4.457 1.09-2.137 1.681-4.82 1.681-7.547 0-3.274-.863-6.321-2.32-8.64-1.087-1.5-2.408-2.637-3.772-3.273h-.091v-.594l-2.275.046-.003.002Z" fill="#B28445"/><path d="M87.36 25.512c-1.5-2.41-3.774-3.91-6.183-3.91-4.73 0-8.594 5.684-8.594 12.595 0 3.592 1.045 6.825 2.637 9.184 1.5 2.138 3.592 3.502 5.911 3.502 4.729 0 8.593-5.684 8.593-12.595-.094-3.365-.954-6.457-2.364-8.776Zm-5.775 18.233h-.408c-1.681 0-3.275-1.045-4.457-2.591-1.182-1.638-2-3.91-2.046-6.503v-.408c0-5.23 2.91-9.55 6.412-9.55h.408c3.32.364 6.003 4.457 6.003 9.55v.408c-.043 5.002-2.683 8.776-5.912 9.094Z" fill="#F6E244"/><path d="M81.131 47.063c-2.228 0-4.365-1.273-6.002-3.593-1.682-2.41-2.637-5.683-2.637-9.184 0-7.003 3.864-12.732 8.64-12.732 2.409 0 4.591 1.364 6.23 3.91 1.5 2.41 2.41 5.503 2.41 8.822-.002 6.958-3.912 12.776-8.64 12.776Zm0-25.327c-4.593.007-8.414 5.546-8.414 12.506 0 3.456.955 6.684 2.592 9.048 1.5 2.229 3.592 3.456 5.82 3.456 4.593 0 8.412-5.548 8.412-12.504 0-3.273-.864-6.32-2.32-8.639-1.634-2.501-3.723-3.86-6.09-3.86v-.007Zm0 22.235c-1.681 0-3.319-.956-4.55-2.638-1.272-1.681-2-4.092-2.046-6.593v-.407c0-5.32 2.911-9.685 6.594-9.685h.409c3.456.364 6.184 4.55 6.184 9.685v.409c-.182 4.956-2.728 8.912-6.184 9.23h-.409l.002-.001Zm0-19.143c-3.5 0-6.32 4.229-6.32 9.412v.409c.09 2.501.773 4.82 2 6.412 1.187 1.637 2.728 2.591 4.275 2.591h.408c3.274-.364 5.73-4.228 5.912-9v-.409c0-4.956-2.593-9.048-5.912-9.412l-.363-.003Z" fill="#B28445"/><path d="M81.585 24.784h-.682c3.32.364 6.002 4.457 6.002 9.55v.408c-.182 4.91-2.728 8.821-6.002 9.049h.682c3.274-.364 5.911-4.275 6.002-9.049v-.408c.046-5.139-2.638-9.228-6.002-9.55Z" fill="#FAB217"/><path d="M81.131 43.973h-.364v-.228h.091c3.274-.364 5.729-4.228 5.91-9v-.412c0-4.956-2.59-9.048-5.91-9.412h-.09v-.228h.863c3.456.364 6.184 4.55 6.184 9.686v.408c-.182 4.956-2.728 8.913-6.184 9.231a2.04 2.04 0 0 0-.5-.045Zm1.273-18.867c2.637 1.272 4.55 4.956 4.55 9.185v.408c-.091 4.093-2.001 7.549-4.55 8.822 2.728-.864 4.91-4.451 4.956-8.822v-.408c.137-4.414-2-8.278-4.956-9.185Z" fill="#B28445"/><path d="M84.768 21.056h-3.092c-2.5 0-4.82 1.364-6.502 3.91-1.681 2.501-2.591 5.73-2.591 9.23 0 3.593.954 6.958 2.728 9.413 1.681 2.41 3.91 3.774 6.32 3.774h3.092c2.228-.182 4.365-1.5 5.911-3.91 1.681-2.501 2.591-5.73 2.591-9.23 0-3.32-.863-6.594-2.5-9.05-1.5-2.41-3.638-3.82-5.957-4.137Z" fill="#875E27"/><path d="M90.133 34.334c0-3.456-.954-6.413-2.41-8.73-1.046-1.501-2.227-2.73-3.682-3.32v-.64h-2.502c-4.728 0-8.593 5.684-8.593 12.596 0 3.592 1.046 6.824 2.637 9.184 1.5 2.137 3.593 3.501 5.91 3.501h2.5v-.682c3.64-1.589 6.14-6.317 6.14-11.91Z" fill="#F9B82A"/><path d="M84.314 47.063h-2.638c-2.227 0-4.365-1.273-6.002-3.593-1.681-2.41-2.637-5.728-2.637-9.184 0-7.003 3.865-12.732 8.639-12.732h2.638v.593a9.571 9.571 0 0 1 3.591 3.32c1.501 2.409 2.41 5.502 2.41 8.82 0 2.729-.593 5.411-1.681 7.594-1.088 2.137-2.591 3.683-4.274 4.55l-.045.636-.001-.005Zm-2.729-25.32c-4.592 0-8.407 5.547-8.407 12.504 0 3.456.956 6.684 2.592 9.048 1.5 2.228 3.593 3.456 5.82 3.456h2.402v-.545h.1c1.68-.774 3.182-2.32 4.273-4.457 1.09-2.137 1.681-4.82 1.681-7.547 0-3.274-.863-6.321-2.318-8.64-1.088-1.5-2.41-2.637-3.683-3.273h-.091v-.594l-2.369.048Z" fill="#B28445"/><path d="M90.316 25.512c-1.5-2.41-3.775-3.91-6.184-3.91-4.729 0-8.594 5.684-8.594 12.595 0 3.592 1.046 6.825 2.637 9.184 1.5 2.138 3.592 3.502 5.911 3.502 4.73 0 8.594-5.684 8.594-12.595a15.896 15.896 0 0 0-2.365-8.776ZM84.63 43.745h-.408c-1.681 0-3.274-1.045-4.457-2.591-1.187-1.638-2-3.91-2.045-6.503v-.408c0-5.23 2.91-9.55 6.41-9.55h.41c3.32.364 6.002 4.457 6.002 9.55v.408c-.046 5.002-2.728 8.776-5.912 9.094Z" fill="#F6E244"/><path d="M84.132 47.063c-2.229 0-4.366-1.273-6.003-3.593-1.681-2.41-2.637-5.728-2.637-9.184 0-7.003 3.866-12.732 8.64-12.732 2.41 0 4.592 1.364 6.23 3.91 1.501 2.41 2.411 5.503 2.411 8.822-.002 6.958-3.913 12.776-8.641 12.776Zm0-25.327c-4.59.007-8.412 5.546-8.412 12.506 0 3.456.954 6.684 2.591 9.048 1.5 2.229 3.592 3.456 5.82 3.456 4.593 0 8.408-5.548 8.408-12.504 0-3.273-.865-6.32-2.32-8.639-1.586-2.501-3.769-3.86-6.087-3.86v-.007Zm0 22.235c-1.682 0-3.32-.956-4.55-2.638-1.273-1.681-2-4.092-2.045-6.593v-.407c0-5.32 2.91-9.685 6.593-9.685h.408c3.456.364 6.185 4.55 6.185 9.685v.409c-.182 4.956-2.729 8.912-6.185 9.23h-.408l.002-.001Zm0-19.143c-3.502 0-6.32 4.229-6.32 9.412v.409c.09 2.501.772 4.82 2 6.412 1.187 1.637 2.728 2.591 4.274 2.591h.41c3.273-.364 5.728-4.228 5.91-9v-.409c0-4.956-2.591-9.048-5.91-9.412l-.364-.003Z" fill="#B28445"/><path d="M84.631 24.784h-.681c3.319.364 6.001 4.457 6.001 9.55v.408c-.182 4.91-2.727 8.821-6.001 9.049h.681c3.274-.364 5.912-4.275 6.003-9.049v-.408c-.091-5.139-2.73-9.228-6.003-9.55Z" fill="#FAB217"/><path d="M84.132 43.973h-.364v-.228h.09c3.183-.364 5.73-4.228 5.82-9v-.412c0-4.956-2.591-9.048-5.91-9.412h-.091v-.228h.863c3.456.364 6.185 4.55 6.185 9.686v.408c-.182 4.956-2.73 8.913-6.185 9.231-.044-.045-.226-.045-.408-.045Zm1.273-18.867c2.636 1.272 4.55 4.956 4.55 9.185v.408c-.092 4.093-2.002 7.549-4.55 8.822 2.727-.864 4.91-4.451 4.956-8.822v-.408c.136-4.414-2.047-8.278-4.956-9.185Z" fill="#B28445"/><path d="M87.633 21.056H84.54c-2.5 0-4.82 1.364-6.502 3.91-1.681 2.501-2.591 5.73-2.591 9.23 0 3.593.954 6.958 2.728 9.413 1.681 2.41 3.91 3.774 6.32 3.774h3.092c2.228-.182 4.365-1.5 5.91-3.91 1.682-2.501 2.593-5.73 2.593-9.23 0-3.32-.864-6.594-2.501-9.05-1.455-2.41-3.638-3.82-5.956-4.137Z" fill="#875E27"/><path d="M93.043 34.334c0-3.456-.954-6.413-2.41-8.73-1.046-1.501-2.227-2.73-3.682-3.32v-.64h-2.5c-4.73 0-8.595 5.684-8.595 12.596 0 3.592 1.046 6.824 2.637 9.184 1.5 2.137 3.593 3.501 5.912 3.501h2.591v-.682c3.501-1.589 6.047-6.317 6.047-11.91Z" fill="#F9B82A"/><path d="M87.133 47.063h-2.637c-2.228 0-4.366-1.273-6.003-3.593-1.681-2.41-2.637-5.728-2.637-9.184 0-7.003 3.91-12.732 8.64-12.732h2.637v.593a9.58 9.58 0 0 1 3.592 3.32c1.5 2.409 2.41 5.502 2.41 8.82 0 5.547-2.41 10.458-6.002 12.14v.636Zm-2.637-25.32c-4.593 0-8.416 5.539-8.416 12.5 0 3.455.954 6.683 2.591 9.047 1.5 2.229 3.592 3.456 5.82 3.456h2.41v-.545h.091c1.681-.773 3.183-2.32 4.274-4.457 1.09-2.137 1.681-4.82 1.681-7.547 0-3.274-.863-6.321-2.318-8.64-1.042-1.5-2.315-2.637-3.678-3.273h-.09v-.594l-2.364.046-.001.007Z" fill="#B28445"/><path d="M93.134 25.512c-1.5-2.41-3.773-3.91-6.183-3.91-4.729 0-8.596 5.68-8.596 12.595 0 3.592 1.046 6.825 2.638 9.184 1.5 2.138 3.591 3.502 5.91 3.502 4.729 0 8.594-5.684 8.594-12.595.093-3.365-.771-6.457-2.363-8.776Zm-5.637 18.233h-.41c-1.681 0-3.273-1.045-4.455-2.591-1.187-1.638-2.001-3.91-2.047-6.503v-.408c0-5.23 2.91-9.55 6.411-9.55h.41c3.319.364 6.001 4.457 6.001 9.55v.408c-.09 5.002-2.682 8.776-5.91 9.094Z" fill="#F6E244"/><path d="M87.087 47.063c-2.228 0-4.365-1.273-6.002-3.593-1.681-2.409-2.637-5.728-2.637-9.184 0-7.005 3.863-12.73 8.639-12.73 2.41 0 4.592 1.364 6.23 3.91 1.501 2.41 2.411 5.503 2.411 8.822-.047 6.956-3.867 12.775-8.641 12.775Zm0-25.327c-4.592.007-8.412 5.546-8.412 12.506 0 3.456.954 6.684 2.591 9.048 1.502 2.229 3.593 3.456 5.82 3.456 4.593 0 8.408-5.547 8.408-12.504 0-3.273-.865-6.32-2.32-8.639-1.723-2.501-3.904-3.86-6.087-3.86v-.007Zm0 22.235c-1.681 0-3.32-.956-4.55-2.638-1.274-1.681-2-4.092-2.046-6.593v-.407c0-5.32 2.91-9.685 6.593-9.685h.41c3.455.364 6.183 4.55 6.183 9.686v.408c-.182 4.956-2.728 8.912-6.184 9.23h-.41l.004-.001Zm0-19.143c-3.501 0-6.32 4.229-6.32 9.412v.409c.09 2.501.772 4.82 2 6.412 1.183 1.637 2.729 2.591 4.274 2.591h.413c3.274-.364 5.728-4.228 5.91-9v-.409c0-4.956-2.591-9.048-5.91-9.412l-.367-.003Z" fill="#B28445"/><path d="M87.496 24.784h-.682c3.319.364 6.002 4.457 6.002 9.55v.408c-.182 4.91-2.729 8.821-6.002 9.049h.682c3.274-.364 5.91-4.275 6.002-9.049v-.408c0-5.139-2.637-9.228-6.002-9.55Z" fill="#FAB217"/><path d="M87.087 43.973h-.364v-.228h.09c3.275-.364 5.73-4.228 5.912-9v-.412c0-4.956-2.592-9.048-5.911-9.412h-.091v-.228h.864c3.456.364 6.184 4.55 6.184 9.686v.408c-.185 4.956-2.728 8.913-6.184 9.231a2.701 2.701 0 0 0-.5-.045Zm1.227-18.867c2.638 1.272 4.55 4.956 4.55 9.185v.408c-.091 4.093-2 7.549-4.55 8.822 2.73-.864 4.91-4.451 4.956-8.822v-.408c.046-4.414-2-8.278-4.956-9.185Z" fill="#B28445"/><path d="M85.177 37.061v3.046h-.864V38.79l.864-1.728ZM86.223 35.015l.409.682V40.108h-.864v-4.183l.455-.91ZM87.996 35.334v4.774h-.863v-2.956l.227-.09.545-1.365.091-.364ZM89.587 32.378v7.73h-.909v-5.911l.909-1.82Z" fill="#F6E244"/><path d="M87.133 35.606h-.228l-.681-1.273h.408l.5 1.273ZM84.314 38.789h-.41v1.364h.41v-1.364ZM84.314 38.789h-.41l.864-1.728h.409l-.864 1.728ZM85.814 35.925h-.41v4.228h.41v-4.228Z" fill="#875E27"/><path d="M85.769 35.925h-.365l.456-.91h.364l-.456.91ZM87.905 35.697h-.409l.228-.364h.272l-.091.364ZM87.36 37.061h-.455l.591-1.364h.409l-.545 1.364ZM87.132 37.152h-.227v-.09h.455l-.228.09ZM87.314 37.152h-.41v3.092h.41v-3.092ZM88.723 34.197h-.409v5.91h.41v-5.91ZM88.678 34.197h-.364l.91-1.82h.363l-.91 1.82ZM90.134 30.56h-.364l-.182-.547h.318l.228.546ZM89.27 28.74h-.41l-.182-.545h.364l.227.545ZM87.132 32.969h-.227l1.955-4.229h.41l-2.138 4.229ZM86.632 34.334h-.408l-.364-.82h.408l.364.82ZM85.724 32.287h-.455l.591-1.273h.409l-.546 1.273Z" fill="#875E27"/><path d="M83.54 36.743h-.409l2.137-4.456h.455l-2.182 4.456ZM84.132 37.88h-.41l-.59-1.137h.409l.591 1.137Z" fill="#875E27"/><path d="M89.042 28.195h1.091v2.364l-.227-.546-2.092 4.32-.682 1.273-.5-1.273-.364-.818-2.136 4.365-.592-1.137 2.183-4.456.545-1.273.637 1.273.227.682 2.138-4.229-.228-.545Z" fill="#F6E244"/></g></g><path d="M75.265 34.025s-1.194-1.555-2.069-.132c-.23.384-.567 1.172-3.083 2.967-2.384 1.712-4.012 2.807-3.381 3.992.431.815 2.416 1.829 6.17 1.12 3.755-.71 5.452-1.275 5.836-.814.37.464.248.807.248.807s.866-1.239-.297-1.557c-1.169-.336-3.89.54-5.904.728-2.014.186-4.114-.005-4.172-.855-.057-.833 6.89-3.937 6.652-6.256Z" fill="#875E27"/><path d="M77.6 43.765a.248.248 0 0 1-.296-.148.253.253 0 0 1 .138-.346 2.114 2.114 0 0 0 1.21-2.263.26.26 0 1 1 .513-.082 2.572 2.572 0 0 1-.288 1.673 2.638 2.638 0 0 1-1.249 1.16l-.028.006Z" fill="#875E27"/><path d="M77.331 43.23a2.21 2.21 0 0 1-1.735-.341.264.264 0 0 1 .297-.433c.513.366 1.286.395 1.801.044a1.63 1.63 0 0 0 .692-1.663.258.258 0 0 1 .105-.27.257.257 0 0 1 .293.002c.058.04.099.1.113.17a2.193 2.193 0 0 1-.925 2.23c-.199.12-.415.207-.64.26Z" fill="#875E27"/><path d="M77.503 42.958c-.084.022-.17.035-.257.04-.593.019-1.136-.407-1.205-.939a.265.265 0 0 1 .128-.276.267.267 0 0 1 .403.207c.044.272.341.487.656.483.314-.004.633-.21.876-.529.221-.333.385-.7.486-1.088a.274.274 0 0 1 .236-.19.271.271 0 0 1 .282.356c-.149.448-.297.88-.565 1.254a1.925 1.925 0 0 1-1.04.682Z" fill="#875E27"/><path d="M77.466 42.867a.807.807 0 0 1-.633-.09.744.744 0 0 1-.32-.608c.01-.192.053-.38.124-.559a.267.267 0 0 1 .437-.087.268.268 0 0 1 .058.292c-.048.106-.078.22-.091.335a.237.237 0 0 0 .074.182c.058.038.188.025.342-.027.381-.139.723-.369.994-.67a.268.268 0 0 1 .396.359 2.834 2.834 0 0 1-1.212.817c-.046.012-.107.042-.169.056Z" fill="#875E27"/><path d="M98.764 35.47a3.72 3.72 0 0 1 .593-1.605c.322-.48.729-.859 1.219-1.135a3.45 3.45 0 0 1 1.605-.458c.711-.029 1.293.136 1.746.493.459.358.73.86.813 1.506l-1.604.065a.957.957 0 0 0-.432-.538 1.251 1.251 0 0 0-.724-.168c-.45.019-.833.19-1.15.517-.318.32-.511.741-.581 1.263-.022.16-.031.3-.026.42.016.398.14.709.371.933.231.224.54.328.927.313.279-.011.535-.087.768-.228.24-.14.437-.337.592-.588l1.604-.065a3.446 3.446 0 0 1-1.226 1.588 3.492 3.492 0 0 1-1.906.633c-.512.02-.962-.061-1.352-.245a2.102 2.102 0 0 1-.913-.809c-.219-.355-.338-.775-.358-1.258a3.301 3.301 0 0 1 .034-.634Zm8.508 2.732a2.346 2.346 0 0 1-1.102-.204 1.796 1.796 0 0 1-.77-.67 2.103 2.103 0 0 1-.299-1.038 2.912 2.912 0 0 1 .325-1.492 2.731 2.731 0 0 1 1.015-1.083 2.985 2.985 0 0 1 1.486-.445c.41-.017.777.054 1.103.211.331.152.59.375.779.67.188.294.291.64.307 1.038a2.868 2.868 0 0 1-.333 1.5 2.736 2.736 0 0 1-1.024 1.076 3.038 3.038 0 0 1-1.487.437Zm.154-1.263c.239-.01.45-.09.632-.24.187-.155.327-.349.42-.58.099-.238.143-.482.133-.732-.011-.284-.097-.5-.257-.648a.787.787 0 0 0-.589-.206 1.02 1.02 0 0 0-.64.248c-.176.15-.31.343-.403.58a1.795 1.795 0 0 0-.124.74c.011.279.094.492.248.64a.774.774 0 0 0 .58.198Zm4.551-4.26c-.227.009-.412-.044-.553-.157a.62.62 0 0 1-.215-.462.856.856 0 0 1 .272-.669c.191-.19.429-.29.714-.302.227-.01.409.046.545.166a.608.608 0 0 1 .215.461c.01.25-.081.47-.272.66-.192.19-.427.291-.706.303Zm.651.469-.643 4.794-1.459.06.644-4.795 1.458-.06Zm3.965-.212c.478-.02.858.099 1.142.355.284.257.436.623.455 1.101.006.16-.004.33-.03.514l-.383 2.802-1.45.058.356-2.603c.013-.098.018-.183.015-.257-.009-.24-.085-.421-.227-.547-.136-.125-.324-.183-.562-.173-.285.011-.52.109-.706.293-.187.184-.302.437-.346.758l-.001-.043-.355 2.646-1.459.06.644-4.795 1.459-.06-.085.645a2.08 2.08 0 0 1 1.533-.754Zm4.523 3.269 1.501-3.462 1.561-.063-2.341 4.863-1.809.073-1.037-4.726 1.553-.063.572 3.378Zm5.789-3.704c.614-.025 1.107.123 1.479.444.378.315.578.76.601 1.335.008.187 0 .356-.022.505a3.43 3.43 0 0 1-.085.422l-3.302.134a1.137 1.137 0 0 0-.002.162c.01.25.086.438.228.563.142.126.326.184.554.174a.93.93 0 0 0 .817-.494l1.553-.063c-.185.492-.502.9-.95 1.226-.448.326-.96.5-1.534.524-.615.025-1.113-.126-1.497-.452-.378-.327-.579-.783-.602-1.369-.007-.176.002-.359.029-.548.065-.498.224-.937.476-1.318.253-.38.574-.678.964-.894.39-.215.821-.332 1.293-.351Zm.612 2.018c.008-.08.011-.135.01-.163-.009-.228-.087-.398-.234-.512-.148-.12-.338-.174-.571-.165-.25.01-.469.096-.656.257-.182.156-.31.375-.384.657l1.835-.074Zm3.854 2.706a2.745 2.745 0 0 1-1.023-.138c-.3-.107-.54-.263-.719-.466a1.16 1.16 0 0 1-.286-.732 2.19 2.19 0 0 1 .008-.214l1.408-.057a.514.514 0 0 0 .171.42c.123.098.293.142.509.133a.9.9 0 0 0 .448-.12c.117-.074.173-.173.168-.298-.005-.12-.074-.21-.208-.273a3.8 3.8 0 0 0-.642-.24 7.789 7.789 0 0 1-.788-.266 1.558 1.558 0 0 1-.547-.414c-.155-.182-.239-.415-.25-.7a1.223 1.223 0 0 1 .217-.76 1.59 1.59 0 0 1 .669-.557 2.701 2.701 0 0 1 1.033-.23c.393-.016.737.036 1.032.155.295.113.527.28.696.502.168.22.258.473.27.758l-.004.128-1.322.054a.479.479 0 0 0-.17-.404c-.118-.097-.282-.142-.493-.133a.753.753 0 0 0-.405.119.32.32 0 0 0-.142.287c.005.125.077.228.217.308.146.073.368.156.668.246.311.09.569.182.772.276.209.089.388.221.537.397.155.17.238.39.249.657.012.307-.071.575-.249.805-.173.229-.42.41-.739.542a3.243 3.243 0 0 1-1.085.215Zm4.688-1.899c-.004.029-.006.066-.004.111.004.103.036.175.094.219.065.043.165.061.302.056l.52-.021-.172 1.246-.742.03c-.955.039-1.449-.343-1.482-1.145-.005-.12.003-.27.025-.454l.264-1.908-.58.024.164-1.22.58-.024.158-1.168 1.459-.06-.158 1.17.956-.04-.165 1.22-.955.04-.264 1.924Zm1.593-.816c.065-.493.216-.93.451-1.309a2.68 2.68 0 0 1 .87-.89 2.239 2.239 0 0 1 1.105-.344c.336-.013.62.044.853.17.233.128.405.3.517.518l.092-.679 1.459-.059-.652 4.795-1.459.06.101-.68a2.073 2.073 0 0 1-1.583.808 1.738 1.738 0 0 1-.905-.194 1.567 1.567 0 0 1-.623-.625 2.21 2.21 0 0 1-.254-.99 3.563 3.563 0 0 1 .028-.581Zm3.566-.136c.013-.103.018-.198.014-.283-.011-.279-.102-.494-.274-.647a.83.83 0 0 0-.623-.214 1.172 1.172 0 0 0-.781.348c-.231.214-.37.505-.418.871a1.764 1.764 0 0 0-.014.283c.011.279.1.497.266.656a.85.85 0 0 0 .624.214c.29-.012.55-.128.781-.348.23-.22.372-.514.425-.88Zm4.167 2.283a2.739 2.739 0 0 1-1.023-.138 1.7 1.7 0 0 1-.72-.466 1.172 1.172 0 0 1-.286-.732c-.001-.04.002-.111.009-.214l1.408-.057a.51.51 0 0 0 .17.42c.124.098.294.142.51.133a.902.902 0 0 0 .448-.12c.117-.073.172-.172.167-.297-.004-.12-.074-.211-.207-.274a3.81 3.81 0 0 0-.642-.239 7.818 7.818 0 0 1-.789-.267 1.546 1.546 0 0 1-.546-.414c-.156-.181-.239-.414-.251-.699a1.23 1.23 0 0 1 .217-.76c.156-.235.379-.42.67-.558a2.699 2.699 0 0 1 1.033-.23 2.48 2.48 0 0 1 1.032.155c.295.114.527.28.695.502a1.3 1.3 0 0 1 .27.758l-.003.128-1.323.054a.476.476 0 0 0-.17-.403c-.118-.098-.282-.143-.492-.134a.759.759 0 0 0-.406.119.322.322 0 0 0-.142.288c.005.125.078.227.218.307.145.074.368.156.668.246.311.09.568.182.771.277.209.088.388.22.538.397.155.17.238.389.249.656a1.19 1.19 0 0 1-.25.805c-.173.23-.419.41-.738.543a3.24 3.24 0 0 1-1.085.214Zm4.225-5.503c-.227.009-.411-.043-.553-.157a.624.624 0 0 1-.215-.462.86.86 0 0 1 .272-.669c.192-.19.43-.29.714-.302.228-.01.409.046.545.166a.602.602 0 0 1 .215.461c.011.25-.08.47-.272.66-.192.19-.427.291-.706.303Zm.652.47-.643 4.793-1.459.06.643-4.795 1.459-.059ZM86.665 88.51a.416.416 0 0 1-.36-.627l4.74-8.11-1.885-6.47h-.006l-.861 6.2a.417.417 0 0 1-.27.334.444.444 0 0 1-.092.046l-.183.093h.001a.468.468 0 0 1-.091.047.449.449 0 0 1-.092.046l-.181.093h-.001a.376.376 0 0 1-.091.047.403.403 0 0 1-.092.047.413.413 0 0 1-.091.047.462.462 0 0 1-.091.046.44.44 0 0 1-.092.046l-.182.094a.449.449 0 0 1-.092.046l-.182.093a.462.462 0 0 1-.09.046.441.441 0 0 1-.093.047l-.182.093a.47.47 0 0 1-.09.046.401.401 0 0 1-.093.047.376.376 0 0 1-.09.046.419.419 0 0 1-.092.048.446.446 0 0 1-.092.046.416.416 0 0 1-.09.047.416.416 0 0 1-.092.046.462.462 0 0 1-.09.047.444.444 0 0 1-.093.046.413.413 0 0 1-.09.047.415.415 0 0 1-.092.046.449.449 0 0 1-.092.047l-.182.093a.439.439 0 0 1-.09.046.446.446 0 0 1-.093.047.413.413 0 0 1-.09.046.398.398 0 0 1-.092.047.413.413 0 0 1-.09.046.401.401 0 0 1-.093.047.376.376 0 0 1-.09.046.424.424 0 0 1-.092.048.419.419 0 0 1-.09.045.403.403 0 0 1-.093.047.416.416 0 0 1-.09.047.462.462 0 0 1-.092.047.446.446 0 0 1-.092.046.413.413 0 0 1-.09.047.436.436 0 0 1-.092.046.417.417 0 0 1-.217.071l-6.636.248h-.015a.414.414 0 0 1-.4-.298.415.415 0 0 1-.013-.176l.424-3.032-3.524 2.25c-1.667 1.062-3.576 1.64-5.672 1.718a11.834 11.834 0 0 1-1.107-.009 8.819 8.819 0 0 1-3.332-.82 7.115 7.115 0 0 1-3.105-2.802c-.712-1.192-1.103-2.59-1.161-4.154-.026-.701.011-1.403.112-2.096a12.067 12.067 0 0 1 1.862-5.057c.254-.387.531-.758.83-1.111l2.902-3.462a11.945 11.945 0 0 1 3.309-2.758 12.112 12.112 0 0 1 5.57-1.546 13.702 13.702 0 0 1 1.195.01 9.65 9.65 0 0 1 3.402.792 7.628 7.628 0 0 1 3.308 2.77c.198.303.375.62.529.948h.007a.383.383 0 0 1 .084-.07l.168-.14a.448.448 0 0 1 .085-.07.44.44 0 0 1 .084-.071.405.405 0 0 1 .084-.07.388.388 0 0 1 .085-.07.407.407 0 0 1 .084-.07l.001-.002.168-.14v.002l.168-.14a.414.414 0 0 1 .29-.133l7.132-.266h.015a.416.416 0 0 1 .413.473l-.016.12a6.896 6.896 0 0 1 3.038-.852l1.212-.045h.016c.108 0 .213.043.29.119l5.19-.198h.016a.417.417 0 0 1 .405.322l.396 1.72a.377.377 0 0 1 .078-.043.403.403 0 0 1 .116-.071.394.394 0 0 1 .115-.072.405.405 0 0 1 .115-.07l.23-.142.002-.001.231-.142a.442.442 0 0 1 .116-.072h-.001l.348-.213.231-.143a.41.41 0 0 1 .115-.071h.001l.346-.213a.437.437 0 0 1 .116-.072l.231-.142.001-.001.23-.142h.001a.407.407 0 0 1 .115-.071l.346-.213h.002a.396.396 0 0 1 .115-.072.405.405 0 0 1 .115-.071.434.434 0 0 1 .116-.071.418.418 0 0 1 .258-.1l13.787-.517h.016a.414.414 0 0 1 .388.264 7.514 7.514 0 0 1 2.629-.558c.099 0 .197-.006.303-.006a7.416 7.416 0 0 1 .995.067.422.422 0 0 1 .125-.056c.101-.053.203-.104.305-.156a.423.423 0 0 1 .152-.078.403.403 0 0 1 .152-.077.425.425 0 0 1 .152-.078.407.407 0 0 1 .153-.077.42.42 0 0 1 .151-.078.415.415 0 0 1 .152-.077.427.427 0 0 1 .153-.079.408.408 0 0 1 .152-.077.431.431 0 0 1 .152-.078.413.413 0 0 1 .153-.077.423.423 0 0 1 .152-.078.416.416 0 0 1 .152-.077.427.427 0 0 1 .153-.078.401.401 0 0 1 .152-.078.431.431 0 0 1 .152-.078.411.411 0 0 1 .153-.077.423.423 0 0 1 .152-.078.409.409 0 0 1 .152-.077.425.425 0 0 1 .152-.078.402.402 0 0 1 .152-.077.431.431 0 0 1 .152-.078.416.416 0 0 1 .152-.078.427.427 0 0 1 .153-.078.409.409 0 0 1 .152-.077.431.431 0 0 1 .152-.078.411.411 0 0 1 .153-.077.431.431 0 0 1 .152-.078.416.416 0 0 1 .152-.078.427.427 0 0 1 .153-.078.402.402 0 0 1 .152-.077.425.425 0 0 1 .152-.078.413.413 0 0 1 .153-.077l.303-.155a.414.414 0 0 1 .153-.078.39.39 0 0 1 .152-.078.416.416 0 0 1 .152-.077.405.405 0 0 1 .152-.078.413.413 0 0 1 .153-.077.39.39 0 0 1 .152-.078.416.416 0 0 1 .152-.077.427.427 0 0 1 .153-.078.408.408 0 0 1 .152-.078.431.431 0 0 1 .152-.078.42.42 0 0 1 .246-.092l7.158-.267h.016a.421.421 0 0 1 .314.143.418.418 0 0 1 .099.331l-.422 3.041 2.113-.079h.016a.42.42 0 0 1 .314.143.418.418 0 0 1 .098.33l-.208 1.493.026-.01.171-.073.172-.073.17-.071c.059-.025.11-.048.17-.072.059-.025.114-.05.174-.074l.172-.073.171-.073.167-.07.162-.07.013-.004.166-.07.162-.069.014-.007.163-.068h.009c.049-.022.105-.044.161-.068h.011c.052-.024.111-.049.172-.073l.145-.062.025-.01.158-.067.014-.006.151-.064.02-.009.159-.067.013-.005.151-.064.019-.008c.051-.023.108-.047.166-.07l.165-.07.012-.006a11.174 11.174 0 0 1 4.094-.909 10.504 10.504 0 0 1 .967.01 8.317 8.317 0 0 1 3.066.749 6.925 6.925 0 0 1 2.954 2.572c.714 1.115 1.104 2.429 1.159 3.904.072 1.923-.33 3.703-1.193 5.29a9.812 9.812 0 0 1-3.665 3.795 10.5 10.5 0 0 1-2.599 1.094 4.925 4.925 0 0 1-.177.051l-.178.05-.178.05-.178.05-.178.05-.177.05a6.062 6.062 0 0 1-.179.05l-.177.05-.178.05-.179.05-.178.05-.177.05-.178.05-.178.05-.178.05-.178.05-.178.05-.178.05-.177.049-.178.05-.179.05-.178.05-.177.05-.178.05-.178.05-.178.05-.178.05-.178.05-.178.05-.178.05-.179.05-.178.05-.178.05-.177.05-.178.05-.179.05-.177.05-.178.05-.178.05a6.64 6.64 0 0 1-.178.05l-.178.05c-.053.016-.116.032-.178.05l-.177.05-.179.05-.177.05-.178.05-.178.05-.178.049-.178.05-.178.05c-.86.248-1.748.389-2.643.42-.123 0-.249.006-.372.006-.179 0-.358 0-.53-.015a7.735 7.735 0 0 1-2.849-.692 5.838 5.838 0 0 1-.41-.21.4.4 0 0 1-.157.046.412.412 0 0 1-.162.05.444.444 0 0 1-.162.049.42.42 0 0 1-.164.048l-.324.098v.001a.422.422 0 0 1-.162.05l-.325.098a.43.43 0 0 1-.162.05.425.425 0 0 1-.162.05.42.42 0 0 1-.163.048l-.001-.002-.324.1a.41.41 0 0 1-.162.05.395.395 0 0 1-.162.049.417.417 0 0 1-.162.05.437.437 0 0 1-.163.049.414.414 0 0 1-.163.048.396.396 0 0 1-.162.05.4.4 0 0 1-.184.05l-2.848.106c-.14.006-.279.008-.416.008-.19 0-.377 0-.557-.015-1.82-.105-3.213-.772-4.055-1.935h-.014c-.042.015-.091.033-.141.049l-.136.047-.143.05a3.327 3.327 0 0 1-.14.048l-.141.05-.139.048-.141.048-.14.049-.141.048-.139.049a4.132 4.132 0 0 1-.14.048l-.14.05-.137.046c-.048.018-.099.034-.144.05l-.139.05-.141.048-.139.048-.141.049-.14.048-.14.05-.14.047c-.049.016-.091.033-.14.05l-.14.048-.14.048-.141.049-.139.048-.141.049-.139.048-.137.048-.14.048-.144.05-.14.049-.136.047-.105.037-.7 5.072a.999.999 0 0 1-.624.432.395.395 0 0 1-.131.038l-.262.077a.445.445 0 0 1-.131.037.39.39 0 0 1-.13.038.411.411 0 0 1-.131.039.394.394 0 0 1-.13.037.427.427 0 0 1-.132.039.382.382 0 0 1-.13.037.427.427 0 0 1-.131.039.388.388 0 0 1-.131.037.424.424 0 0 1-.13.04.396.396 0 0 1-.132.037.415.415 0 0 1-.13.038.388.388 0 0 1-.131.038.413.413 0 0 1-.13.038.4.4 0 0 1-.131.038.419.419 0 0 1-.131.038.395.395 0 0 1-.131.038l-.261.076a147.465 147.465 0 0 0-1.18.344.412.412 0 0 1-.131.037 14.43 14.43 0 0 1-.262.076.413.413 0 0 1-.13.039.451.451 0 0 1-.131.037.416.416 0 0 1-.13.039l-.262.076-.262.076a.44.44 0 0 1-.13.038.395.395 0 0 1-.131.037.418.418 0 0 1-.13.039.4.4 0 0 1-.132.038.416.416 0 0 1-.13.038.39.39 0 0 1-.131.038.42.42 0 0 1-.13.038.4.4 0 0 1-.132.038.416.416 0 0 1-.164.041l-6.61.247h-.016a.414.414 0 0 1-.412-.473l.841-6.11-2.632 4.737a.422.422 0 0 1-.284.207.41.41 0 0 1-.108.037.389.389 0 0 1-.108.037.414.414 0 0 1-.109.038.448.448 0 0 1-.108.037l-.215.074a.406.406 0 0 1-.109.037.372.372 0 0 1-.107.038.432.432 0 0 1-.109.037.448.448 0 0 1-.107.038l-.216.074a.414.414 0 0 1-.109.036.366.366 0 0 1-.107.038.412.412 0 0 1-.108.038.452.452 0 0 1-.108.037.412.412 0 0 1-.108.037.416.416 0 0 1-.109.037.409.409 0 0 1-.108.037.377.377 0 0 1-.107.038.41.41 0 0 1-.108.037.449.449 0 0 1-.108.038.414.414 0 0 1-.109.036c-.071.026-.143.05-.215.075a.377.377 0 0 1-.108.037.412.412 0 0 1-.108.038.461.461 0 0 1-.108.037.425.425 0 0 1-.109.037l-.215.074a.379.379 0 0 1-.108.038.412.412 0 0 1-.108.037.46.46 0 0 1-.109.038l-.215.074a.409.409 0 0 1-.108.037.379.379 0 0 1-.108.037.47.47 0 0 1-.108.038.461.461 0 0 1-.108.037l-.216.075a.409.409 0 0 1-.108.036.383.383 0 0 1-.109.038.441.441 0 0 1-.106.037.455.455 0 0 1-.11.038l-.215.074a.422.422 0 0 1-.108.037.38.38 0 0 1-.109.037.41.41 0 0 1-.173.045l-7.35.275h-.011ZM69.579 70.072l-.02.136a4.815 4.815 0 0 0-.048.92c.027.701.198 1.202.52 1.53.244.248.56.375.993.4h.273c.083 0 .165-.01.247-.019l.036-.026.145-.117a.444.444 0 0 1 .07-.058.506.506 0 0 1 .073-.058.392.392 0 0 1 .072-.058.377.377 0 0 1 .072-.059.394.394 0 0 1 .071-.057.369.369 0 0 1 .073-.059.409.409 0 0 1 .072-.058.341.341 0 0 1 .072-.058.399.399 0 0 1 .071-.059.405.405 0 0 1 .072-.058.399.399 0 0 1 .072-.058.5.5 0 0 1 .072-.059.455.455 0 0 1 .072-.058.453.453 0 0 1 .071-.058.462.462 0 0 1 .073-.059.41.41 0 0 1 .072-.058.46.46 0 0 1 .072-.058.448.448 0 0 1 .071-.059l.006-.006-1.752.066h-.015a.416.416 0 0 1-.396-.28l-.23-.66a1.286 1.286 0 0 0-.512-.701 1.358 1.358 0 0 0-.54-.194Z" fill="#243B7F"/><path d="m137.486 57.541-.489 3.534 2.608-.099-.309 2.22.015-.006.171-.073c.056-.025.113-.05.171-.073l.172-.072.171-.072c.056-.026.114-.05.171-.073l.171-.073.171-.072.172-.073.172-.072.171-.072c.057-.026.114-.05.172-.074l.171-.072.171-.072c.057-.026.114-.05.171-.073l.172-.072.171-.073.171-.073.171-.072.172-.072.172-.073.171-.073.171-.072c.057-.026.115-.05.172-.073l.171-.072.171-.072a10.75 10.75 0 0 1 3.948-.878 9.806 9.806 0 0 1 .929.008c1.007.05 1.996.291 2.913.711a6.531 6.531 0 0 1 2.779 2.42c.674 1.052 1.042 2.295 1.094 3.696.068 1.846-.316 3.554-1.143 5.074a9.403 9.403 0 0 1-3.512 3.635c-.781.462-1.62.816-2.495 1.052-.059.018-.118.034-.178.051l-.178.05-.178.05-.178.05-.178.05-.178.05-.178.05-.177.05-.178.05-.178.049-.178.05-.178.05-.178.05-.178.05-.178.05-.178.05a4.62 4.62 0 0 1-.178.05l-.177.05-.178.05-.178.05-.178.05-.178.05-.178.05-.179.05-.178.05-.178.05-.178.05-.177.05-.178.05-.178.05-.178.05-.178.05-.178.05-.178.05-.178.05-.178.05-.178.049c-.058.018-.118.034-.178.05l-.177.05-.178.05-.178.05-.178.05-.178.05-.178.05-.178.05-.178.05-.177.05-.179.05-.177.05-.178.05c-.83.24-1.686.376-2.549.405-.12 0-.239.007-.357.007-.172 0-.341-.005-.507-.014a7.345 7.345 0 0 1-2.697-.658 6.019 6.019 0 0 1-.555-.297h-.056l-.007.043-.156.007-.006.043-.156.006-.006.043-.156.005-.006.044-.157.006-.006.043-.156.006-.006.044-.156.006-.006.042-.156.006-.007.044-.157.006-.005.043-.157.006-.006.044h-.156l-.006.043-.156.006-.006.044-.156.005-.006.044-.157.006-.005.044h-.157l-.007.043-.155.006-.007.043-.156.006-.006.044-.156.006-.006.043h-.157l-.005.044-.157.006-.006.043-.156.006-.006.044-.156.006-.006.042-2.849.124c-.134 0-.268.007-.395.007a9.29 9.29 0 0 1-.533-.015c-1.845-.106-3.174-.805-3.908-2.018l-.037.013-.14.049-.14.048-.14.049-.14.048-.141.048-.139.05-.141.048-.139.049-.141.048-.14.049-.14.048-.14.049-.139.048c-.048.017-.094.034-.141.049l-.14.05-.14.048-.14.048-.141.049-.139.048-.141.048-.14.049-.139.048-.141.05-.139.048-.141.049-.14.048-.14.049-.14.048-.141.049-.139.048-.14.049-.14.049-.14.048-.141.049-.139.048-.141.049-.14.048-.065.024-.735 5.324-.126.005v.033l-.126.005-.004.033-.127.005v.033l-.127.005-.005.033-.125.005v.033l-.126.005v.034h-.125l-.005.032h-.127v.034h-.127l-.005.032h-.125v.034h-.126l-.005.033h-.125v.033h-.127v.033l-.127.005-.004.034-.126.005v.032l-.126.005-.005.034h-.125v.033l-.127.005v.034h-.126l-.005.033h-.126v.034h-.126l-.005.034h-.125v.033h-.127v.034h-.126v.034h-.126v.033h-.126l-.005.034h-.125v.034l-.127.004v.034h-.126v.034l-.126.005-.005.033h-.125v.034h-.127v.034h-.127v.033h-.126v.034h-.126l-.005.033h-.125v.033h-.126l-.005.034h-.127v.032h-.126v.034l-.126.005-.005.033-.125.004v.034l-.126.005-.005.033-.127.005v.033h-.126v.033h-.126v.034h-.125v.032h-.126l-.005.034h-.126v.032h-.127l-.005.034h-.126l-.005.033h-.125l-.005.033-6.61.247 1.146-8.308-3.863 6.849h-.089l-.019.033h-.089l-.019.034h-.088l-.02.035h-.088l-.02.033h-.088l-.02.034h-.089l-.019.035h-.089l-.019.033h-.089l-.018.034h-.09l-.018.034h-.09l-.018.034h-.09l-.018.07h-.089l-.018.035h-.09l-.018.033h-.09l-.018.034h-.09l-.018.035h-.09l-.019.033h-.089l-.019.034h-.089l-.018.035h-.09l-.018.033h-.09l-.018.034h-.089l-.02.034h-.089l-.019.034h-.089l-.018.034h-.09l-.018.034h-.09l-.018.034h-.089l-.019.034h-.09l-.019.034h-.089l-.018.034h-.09l-.018.034h-.09l-.018.034h-.089l-.019.034h-.09l-.019.033h-.089l-.018.035h-.09l-.018.034h-.09l-.018.033h-.09l-.018.035h-.089l-.02.034h-.089l-.018.033h-.09l-.018.035h-.09l-.018.033h-.09l-.018.034h-.089l-.019.035h-.09l-.019.033h-.089l-.018.034h-.09l-.018.034h-.09l-.018.034h-.089l-.019.034h-.09l-.019.034h-.088l-.02.034h-.088l-.02.034h-.088l-.019.034-7.352.406 4.831-8.263-2.093-7.181h-.048l-.008.056h-.092l-.008.057h-.092l-.008.057h-.092l-.007.056h-.093l-.007.057h-.093l-.007.056h-.073l-.89 6.44h-.085l-.006.044h-.085l-.006.044h-.086l-.006.043h-.085l-.006.044h-.085l-.006.042h-.085l-.007.043h-.085l-.006.042h-.085l-.006.044h-.085l-.006.043h-.086l-.006.044h-.085l-.006.043h-.085l-.006.044h-.085l-.007.043h-.085l-.006.044h-.085l-.006.043h-.085l-.006.044h-.086l-.006.043h-.085l-.006.044h-.085l-.006.044h-.085l-.006.043h-.086l-.006.044h-.085l-.006.043h-.085l-.006.043H85.7l-.006.042h-.085l-.006.044h-.085l-.006.043h-.085l-.006.044h-.086l-.006.043h-.085l-.006.044h-.085l-.006.043h-.085l-.007.044h-.085l-.006.043h-.085l-.006.044h-.085l-.006.043h-.086l-.006.044h-.085l-.006.043h-.085l-.006.044h-.085l-.007.043h-.085l-.006.044h-.085l-.006.043h-.085l-.006.042h-.086l-.006.044h-.085l-.006.043h-.085l-.006.044h-.085l-.005.043h-.087l-.005.044H83.6l-.005.043h-.086l-.005.044h-.087l-.005.043h-.086l-.005.044h-.085l-.007.043-6.644.434.552-3.944c-.173.122-.35.24-.528.352l-.075.049-.076.047-.074.049-.075.047-.075.049-.075.047-.075.048-.076.048-.075.048-.075.048-.073.046-.075.048-.075.048-.076.048-.075.048-.075.048-.075.048-.075.048-.075.048-.076.047c-.024.016-.049.033-.075.048l-.075.048-.075.049-.075.047-.074.048-.077.048-.074.048-.075.048-.075.048-.075.048-.075.048-.076.048-.075.048-.075.048-.075.048-.075.048-.075.047-.076.049-.075.047-.075.049-.075.047-.075.049-.075.047-.076.049-.075.047-.075.049-.075.047-.074.049-.076.047-.075.049c-1.608 1.023-3.444 1.582-5.468 1.655a11.223 11.223 0 0 1-1.067-.009 8.408 8.408 0 0 1-3.176-.78 6.703 6.703 0 0 1-2.92-2.646c-.678-1.132-1.05-2.464-1.104-3.958-.026-.675.01-1.352.107-2.02a11.68 11.68 0 0 1 1.798-4.888c.245-.373.512-.731.8-1.072l.059-.069.057-.069.059-.07.058-.069.057-.069.059-.069.058-.068.058-.07.058-.07.058-.069.058-.07.058-.068.058-.07.059-.068.058-.07.057-.068.059-.07.057-.069.058-.069.059-.07a1.94 1.94 0 0 1 .058-.068l.057-.07.059-.069.058-.07.058-.07.058-.068.058-.069.059-.07c.02-.022.038-.046.057-.068l.058-.07.059-.069.057-.069.058-.07.059-.069a1.94 1.94 0 0 1 .058-.069l.058-.072.059-.07.058-.068.057-.07.059-.069.058-.07.059-.068.057-.07.058-.069.059-.069.057-.07.058-.069.059-.069.058-.069.057-.07a11.496 11.496 0 0 1 3.195-2.663 11.692 11.692 0 0 1 5.376-1.49 12.857 12.857 0 0 1 1.154.01 9.253 9.253 0 0 1 3.255.761 7.21 7.21 0 0 1 3.859 4.032h.033l.01-.068h.074l.01-.067h.075l.009-.067h.075l.01-.067h.074l.01-.068h.075l.009-.067h.075l.009-.067h.075l.01-.067h.074l.01-.068h.075l.009-.067h.075l.01-.067h.074l.01-.067h.074l.01-.068h.075l.01-.067h.075l.008-.067h.075l.01-.067h.075l.01-.068h.075l.009-.067 7.13-.266-.136.989a2.1 2.1 0 0 1 .385-.299 6.594 6.594 0 0 1 3.2-.999l1.212-.045-.018.13 5.514-.205.537 2.325h.007l.033-.068h.083l.033-.069h.083l.032-.068h.083l.033-.068h.082l.034-.068h.082l.033-.069h.082l.031-.085h.082l.034-.068h.082l.034-.068h.082l.033-.068h.082l.034-.069h.082l.034-.068h.082l.032-.068h.084l.032-.068h.083l.033-.069h.083l.033-.068h.082l.033-.068h.082l.034-.068h.082l.034-.069h.082l.033-.068h.083l.033-.068h.082l.034-.068h.082l.034-.068h.082l.032-.069h.083l.033-.068h.083l.033-.068h.083l.033-.068h.083l.032-.069h.082l.034-.068h.082l.034-.068h.082l.033-.068h.082l.034-.069h.082l.034-.068h.082l.034-.068h.082l.033-.068 7.972-.297 5.811-.217-.075.533.017-.008a6.876 6.876 0 0 1 3.089-.818c.099 0 .198-.006.289-.006a6.52 6.52 0 0 1 1.075.084v-.01l.142-.006.01-.072h.143l.01-.072.142-.006.01-.073.142-.005.01-.072.143-.006.01-.072.142-.005.01-.072.142-.006.01-.072.143-.005.01-.072.141-.006.011-.073.141-.004.01-.073.143-.006.009-.072.143-.005.01-.072.142-.006.01-.072.143-.005.009-.072.143-.006.01-.072h.142l.01-.072.142-.007.01-.072h.143l.01-.072.142-.006.01-.072.142-.005.01-.072.143-.006.01-.072.142-.005.01-.072.141-.006.011-.073.142-.005.011-.072.141-.005.01-.073.142-.005.01-.072h.143l.01-.073.142-.005.01-.072.142-.005.01-.074.143-.004.009-.073.143-.005.01-.073.142-.005.01-.072.142-.005.01-.073h.143l.01-.072.142-.005.01-.073.142-.005.01-.073.142-.005.011-.072.141-.006.01-.072.142-.005.01-.072.143-.006.01-.072.142-.005.01-.072.142-.006.01-.072h.143l.01-.073.142-.005.01-.073h.142l.01-.072.143-.006.009-.072.143-.005.01-.072.142-.006.01-.072 7.159-.267.004-.124ZM69.237 69.758h-.006c-.035.168-.067.339-.091.519a5.313 5.313 0 0 0-.052.99c.03.81.24 1.4.64 1.805.318.322.73.495 1.266.524.06 0 .119.005.179.005h.133c.139-.005.277-.018.414-.04l.007-.011h.038l.034-.057h.038l.033-.056h.039l.033-.056h.04l.033-.057h.038l.033-.056h.038l.034-.058h.039l.033-.057h.039l.033-.057h.038l.034-.058h.048l.034-.057h.038l.027-.202h.038l.033-.057h.039l.034-.057h.038l.034-.058h.038l.034-.056h.038l.033-.056h.039l.033-.057h.039l.034-.056h.037l.034-.057h.038l.034-.056h.038l.034-.056h.039l.032-.057h.039l.034-.056h.038l.034-.057h.038l.034-.058h.037l.034-.057h.039l.033-.058h.039l.034-.057h.037l.034-.057h.038l.034-.058h.038l.034-.057h.046l.032-.058h.039l.034-.056h.038l.034-.056h.038l.034-.057h.037l-3.035.08-.23-.661a1.698 1.698 0 0 0-.678-.914 1.893 1.893 0 0 0-.947-.283h-.158l-.006.122Zm8.823 1.373h.053v-.011h-.056v.01h.003Zm59.419-14.423h-.032l-7.159.266a1.86 1.86 0 0 0-.572.211.768.768 0 0 0-.152.078l-.457.233-.305.155-.305.155a.853.853 0 0 0-.152.078.808.808 0 0 0-.151.077.82.82 0 0 0-.154.078.882.882 0 0 0-.152.078.834.834 0 0 0-.152.078.855.855 0 0 0-.152.077.81.81 0 0 0-.152.078.822.822 0 0 0-.152.077 27.23 27.23 0 0 1-.305.156.803.803 0 0 0-.152.078.848.848 0 0 0-.152.077 27.23 27.23 0 0 0-.305.155.747.747 0 0 0-.152.078.85.85 0 0 0-.153.077c-.102.052-.203.103-.304.156a.848.848 0 0 0-.152.077l-.304.155a.835.835 0 0 0-.153.078.78.78 0 0 0-.152.078.805.805 0 0 0-.152.078l-.457.232a.853.853 0 0 0-.152.078.85.85 0 0 0-.153.077.853.853 0 0 0-.152.078l-.305.156a.84.84 0 0 0-.151.077 27.23 27.23 0 0 1-.305.155.833.833 0 0 0-.152.078.855.855 0 0 0-.152.077h-.007a7.686 7.686 0 0 0-1.242-.048c-.845.028-1.68.19-2.474.478a.828.828 0 0 0-.519-.181h-.031l-5.811.217-7.972.297a.831.831 0 0 0-.462.161h-.001l-.231.143-.23.142h-.001a.8.8 0 0 0-.115.071.87.87 0 0 0-.117.071.837.837 0 0 0-.114.071.767.767 0 0 0-.116.072l-.232.143.001-.001-.232.142-.001.002c-.116.07-.116.07-.231.142v-.001l-.231.142h.002l-.232.142h-.001a.975.975 0 0 0-.116.072.963.963 0 0 0-.115.071l-.231.143.001-.002-.232.142-.001.002a.847.847 0 0 0-.115.071l-.046.025-.266-1.151a.832.832 0 0 0-.811-.646h-.032l-5.044.189a.828.828 0 0 0-.419-.114h-.032l-1.211.046a7.182 7.182 0 0 0-2.713.648.834.834 0 0 0-.706-.392h-.031l-7.131.267a.831.831 0 0 0-.542.227.97.97 0 0 0-.085.07.956.956 0 0 0-.084.07.806.806 0 0 0-.084.071.714.714 0 0 0-.084.07.817.817 0 0 0-.085.07l-.169.14-.03.023a8.035 8.035 0 0 0-3.802-3.44 10.09 10.09 0 0 0-3.55-.828c-.236-.014-.48-.02-.726-.02-.167 0-.337 0-.505.009-2.02.062-3.994.611-5.755 1.601a12.324 12.324 0 0 0-3.422 2.853l-.059.07c-.02.024-.04.046-.058.07l-.058.068-.058.07-.057.068-.059.07-.06.07-.056.069-.058.068-.058.069-.058.07-.059.07-.058.069-.059.069-.057.07-.057.067-.059.07-.059.07-.056.068-.059.07c-.019.024-.04.046-.058.07l-.057.068-.059.07-.058.068-.056.069-.06.07-.06.07-.057.068-.057.07-.06.07-.056.067-.059.071-.058.07-.058.068-.058.069-.058.07-.059.07-.057.068c-.019.022-.039.045-.057.069l-.058.068-.06.071-.058.069-.058.069-.058.07-.058.068-.057.069-.058.07-.059.069-.058.07-.057.067c-.31.366-.596.75-.859 1.15a12.488 12.488 0 0 0-1.926 5.226 12.002 12.002 0 0 0-.116 2.168c.061 1.636.471 3.1 1.22 4.352a7.525 7.525 0 0 0 3.275 2.967c1.095.515 2.28.81 3.488.87.218.012.443.018.67.018.157 0 .317 0 .477-.009 2.169-.081 4.147-.68 5.88-1.78l.052-.033.025-.016.054-.034.02-.014.054-.034.022-.014.052-.033.022-.014.055-.036.021-.013.053-.033.022-.015.052-.033.023-.014.053-.034.023-.015.05-.032.024-.016c.019-.01.037-.022.054-.034l.021-.013.055-.035.021-.013.05-.032.023-.016.055-.034.022-.014.051-.033.025-.016.05-.032.025-.015.051-.034.023-.014.055-.034.021-.014.05-.033.024-.016.053-.032.024-.015.052-.034.023-.015.053-.033.022-.014.051-.034.023-.014.052-.032.024-.016.05-.032.025-.017.052-.032.023-.015.051-.033.024-.014.05-.032.025-.017.05-.033.024-.014.053-.034.023-.015.05-.032.025-.015.051-.033.024-.015.052-.033.024-.016.05-.032.024-.016.052-.032.023-.015.056-.035.02-.014.053-.033.022-.014.053-.034-.297 2.137a.834.834 0 0 0 .825.948h.03l6.636-.247a.845.845 0 0 0 .396-.115c.03-.014.061-.03.09-.046a.786.786 0 0 0 .092-.048.6.6 0 0 0 .09-.046.667.667 0 0 0 .093-.047.66.66 0 0 0 .09-.046.722.722 0 0 0 .092-.047.714.714 0 0 0 .09-.046.785.785 0 0 0 .093-.047.866.866 0 0 0 .09-.046.709.709 0 0 0 .092-.047c.031-.014.062-.03.092-.046.03-.014.061-.03.09-.047a.885.885 0 0 0 .092-.046.866.866 0 0 0 .09-.047c.032-.014.063-.03.093-.046a.972.972 0 0 0 .09-.047.856.856 0 0 0 .092-.046c.031-.014.062-.03.092-.047a.914.914 0 0 0 .09-.047.61.61 0 0 0 .092-.047.715.715 0 0 0 .09-.045.8.8 0 0 0 .093-.048.78.78 0 0 0 .09-.046.721.721 0 0 0 .092-.047.808.808 0 0 0 .092-.046.875.875 0 0 0 .09-.046.722.722 0 0 0 .092-.047.709.709 0 0 0 .09-.046.978.978 0 0 0 .093-.047.974.974 0 0 0 .09-.046.884.884 0 0 0 .092-.047 1.03 1.03 0 0 0 .092-.046c.03-.014.06-.03.09-.047v.001l.181-.092.002-.002a.978.978 0 0 0 .091-.046.892.892 0 0 0 .091-.048l.182-.093a.672.672 0 0 0 .093-.046.78.78 0 0 0 .09-.047.709.709 0 0 0 .091-.046.8.8 0 0 0 .093-.047.883.883 0 0 0 .09-.046l.183-.094a.978.978 0 0 0 .091-.046l.007.022.165-.085.01-.03c.032-.014.063-.03.092-.046a.833.833 0 0 0 .495-.65l.593-4.287 1.295 4.44-4.648 7.953a.833.833 0 0 0 .72 1.243h.032l7.35-.274a.821.821 0 0 0 .297-.066.837.837 0 0 0 .11-.037 14.063 14.063 0 0 0 .323-.112 13.697 13.697 0 0 0 .324-.112.871.871 0 0 0 .108-.036.819.819 0 0 0 .108-.038.874.874 0 0 0 .108-.038.791.791 0 0 0 .107-.036 13.697 13.697 0 0 1 .432-.15.695.695 0 0 0 .108-.037.828.828 0 0 0 .11-.037 14.82 14.82 0 0 1 .431-.15.843.843 0 0 0 .108-.037l.216-.074a.824.824 0 0 0 .108-.036.978.978 0 0 0 .104-.041.772.772 0 0 0 .108-.037.833.833 0 0 0 .109-.037 14.063 14.063 0 0 1 .432-.15.786.786 0 0 0 .107-.037 13.358 13.358 0 0 1 1.512-.521.76.76 0 0 0 .108-.038.818.818 0 0 0 .109-.037.982.982 0 0 0 .108-.037.83.83 0 0 0 .511-.396l1.545-2.798-.537 3.901a.838.838 0 0 0 .197.661.822.822 0 0 0 .628.286h.03l6.61-.248a5.12 5.12 0 0 0 .528-.13.955.955 0 0 0 .132-.038.84.84 0 0 0 .13-.037.984.984 0 0 0 .131-.039.83.83 0 0 0 .131-.037.984.984 0 0 0 .131-.04.852.852 0 0 0 .131-.037.97.97 0 0 0 .13-.038.84.84 0 0 0 .131-.038.903.903 0 0 0 .13-.038.772.772 0 0 0 .131-.038.916.916 0 0 0 .131-.038.842.842 0 0 0 .131-.038.984.984 0 0 0 .131-.039.818.818 0 0 0 .13-.037 49.337 49.337 0 0 1 .527-.152.707.707 0 0 0 .131-.04.778.778 0 0 0 .13-.037.758.758 0 0 0 .132-.038 17.336 17.336 0 0 1 .523-.152.875.875 0 0 0 .131-.038.772.772 0 0 0 .13-.039.863.863 0 0 0 .131-.037.713.713 0 0 0 .13-.039.772.772 0 0 0 .131-.037.723.723 0 0 0 .131-.04.831.831 0 0 0 .131-.037.765.765 0 0 0 .131-.038.818.818 0 0 0 .13-.038.758.758 0 0 0 .132-.038l.26-.075h.001a.956.956 0 0 0 .13-.04.7.7 0 0 0 .131-.038.798.798 0 0 0 .13-.037.842.842 0 0 0 .132-.038 1.03 1.03 0 0 0 .131-.038.818.818 0 0 0 .13-.038.999.999 0 0 0 .131-.039.873.873 0 0 0 .131-.037 1 1 0 0 0 .131-.039.84.84 0 0 0 .13-.037.97.97 0 0 0 .131-.039.832.832 0 0 0 .659-.702l.664-4.819.141-.048.14-.049.141-.048.139-.049.139-.048.141-.049.14-.05.14-.048.14-.048.14-.049.14-.048.141-.048.14-.049.139-.048.141-.05.14-.048.139-.049c.047-.014.094-.031.14-.048l.141-.049.14-.048.141-.049.138-.048.142-.05.14-.048.138-.048.141-.049.14-.048.141-.049.14-.048.14-.049h.008c.925 1.115 2.354 1.755 4.175 1.859.187.01.383.016.581.016.141 0 .287 0 .431-.008l2.849-.106a.815.815 0 0 0 .29-.065l.811-.245a.853.853 0 0 0 .164-.05.834.834 0 0 0 .162-.049l.324-.099a.794.794 0 0 0 .162-.049c.108-.034.217-.067.325-.099a.82.82 0 0 0 .162-.05.83.83 0 0 0 .162-.05.814.814 0 0 0 .162-.05c.163-.048.325-.097.487-.147a.767.767 0 0 0 .157-.046c.093.05.183.099.274.136a8.168 8.168 0 0 0 3.002.736c.18.01.366.015.554.015.127 0 .258 0 .388-.007.929-.032 1.85-.178 2.743-.435l.178-.05.178-.05.178-.05.178-.05.178-.05.177-.05.179-.05.185-.05.178-.05.178-.05.178-.05.179-.05.177-.05c.06-.016.119-.032.179-.05l.178-.05.178-.05.177-.05c.06-.016.12-.032.178-.05l.178-.05c.06-.016.119-.032.178-.05l.178-.05c.059-.016.118-.032.178-.05l.178-.05c.059-.016.119-.032.178-.05l.178-.05.178-.05.178-.05c.059-.016.119-.032.177-.05l.178-.049.178-.05.178-.05.178-.05.178-.05.178-.05.178-.05.178-.05.178-.05.178-.05.178-.05.177-.05.178-.05.178-.05c.06-.017.119-.032.178-.05l.178-.05c.06-.017.119-.032.178-.05l.179-.05c.059-.016.118-.032.178-.05l.178-.05.178-.05.178-.05c.944-.256 1.85-.639 2.693-1.137a10.229 10.229 0 0 0 3.819-3.956c.899-1.654 1.317-3.506 1.243-5.504-.063-1.546-.475-2.93-1.23-4.117a7.338 7.338 0 0 0-3.128-2.725 8.735 8.735 0 0 0-3.217-.791c-.198-.011-.396-.017-.594-.017-.135 0-.275 0-.411.008-1.463.047-2.904.37-4.247.953l-.167.07-.171.073-.172.073a8.04 8.04 0 0 0-.172.073l-.17.072a8.86 8.86 0 0 0-.172.072l-.171.072c-.055.024-.112.047-.166.072l-.171.072-.171.072-.168.07-.168.071a5.976 5.976 0 0 0-.167.072l-.171.072c-.056.024-.112.046-.167.071-.057.024-.115.047-.172.073-.056.024-.112.047-.167.072l-.031.012.107-.765a.837.837 0 0 0-.48-.873.828.828 0 0 0-.345-.075h-.056l-1.617.062.353-2.55a.838.838 0 0 0-.48-.873.835.835 0 0 0-.345-.075l-.011.01Zm-66.3 15.938h-.132c-.42-.025-.606-.161-.72-.278-.247-.25-.378-.66-.396-1.252-.006-.165 0-.32 0-.47.15.118.257.281.308.465l.23.66a.833.833 0 0 0 .792.558h.032l.501-.018-.04.034a.841.841 0 0 0-.073.058c-.024.02-.05.038-.072.059-.023.02-.048.037-.072.058-.024.02-.049.038-.071.059a.811.811 0 0 0-.072.058l-.008.006h-.198l-.01.003Z" fill="#FFDA00"/><path d="M64.717 65.537a10.477 10.477 0 0 1 3.65-3.419 10.647 10.647 0 0 1 4.912-1.359c1.497-.055 2.816.171 3.956.68a6.182 6.182 0 0 1 2.694 2.25c.66.994 1.04 2.177 1.14 3.551l-5.445.204a2.84 2.84 0 0 0-1.142-1.508c-.528-.342-1.171-.5-1.93-.471a4.17 4.17 0 0 0-2.974 1.351c-.816.858-1.318 1.988-1.508 3.391a6.08 6.08 0 0 0-.06 1.166c.04 1.066.35 1.894.933 2.484.582.59 1.363.867 2.344.83a4.24 4.24 0 0 0 2.084-.622 4.55 4.55 0 0 0 1.556-1.61l5.471-.203c-.748 2.11-1.985 3.806-3.713 5.089-1.728 1.282-3.727 1.964-5.998 2.045-1.566.058-2.933-.193-4.1-.752a6.203 6.203 0 0 1-2.714-2.457c-.644-1.078-.992-2.34-1.044-3.785a10.99 10.99 0 0 1 .106-1.994 11.55 11.55 0 0 1 1.782-4.86ZM90.891 64.625a5.563 5.563 0 0 1 2.708-.85l-.728 5.429-1.42.053c-1.067.04-1.894.27-2.48.692-.588.422-.966 1.126-1.137 2.11l-.917 6.6-5.085.189 2.04-14.576 5.06-.197-.366 2.65a8.554 8.554 0 0 1 2.325-2.1ZM99.464 63.685l1.879 8.15 4.084-8.373 5.548-.206-12.133 21.858-5.498.205 4.497-7.693-4.004-13.731 5.627-.21ZM118.992 63.37a5.857 5.857 0 0 1 2.637-.692c1.517-.057 2.753.397 3.708 1.36.956.965 1.467 2.316 1.534 4.056.018.605-.011 1.21-.087 1.812-.221 1.507-.68 2.838-1.377 3.992-.697 1.155-1.554 2.053-2.571 2.695a6.478 6.478 0 0 1-3.257 1.025c-.981.037-1.802-.13-2.462-.502a3.476 3.476 0 0 1-1.474-1.551l-1.241 8.99-5.055.191 2.967-21.537 5.059-.19-.286 2.027a5.6 5.6 0 0 1 1.905-1.676Zm2.679 5.974c-.027-.706-.25-1.25-.668-1.63-.418-.379-.945-.558-1.582-.535-.738.028-1.404.32-1.997.876-.594.557-.95 1.302-1.068 2.236-.041.24-.057.483-.051.726.027.726.25 1.282.67 1.669.42.387.947.57 1.582.548a2.978 2.978 0 0 0 2.009-.89c.582-.565.933-1.315 1.053-2.25.042-.248.06-.5.052-.75ZM134.467 71.452a1.614 1.614 0 0 0-.014.31c.01.275.099.473.268.594.169.12.442.175.82.163l1.471-.055-.614 4.34-2.219.082c-3.149.118-4.773-1.148-4.872-3.798a8.507 8.507 0 0 1 .099-1.53l.673-4.806-1.78.066.593-4.235 1.781-.066.487-3.534 5.086-.189-.489 3.533 2.606-.099-.593 4.235-2.606.1-.697 4.889ZM142.068 76.027a5.42 5.42 0 0 1-2.337-2.032c-.568-.892-.874-1.95-.92-3.171-.061-1.652.275-3.163 1.007-4.535a8.33 8.33 0 0 1 3.124-3.27c1.347-.808 2.873-1.244 4.578-1.308 1.256-.046 2.38.162 3.371.624.964.44 1.78 1.15 2.351 2.044.576.902.887 1.963.932 3.184.062 1.67-.278 3.186-1.02 4.55a8.346 8.346 0 0 1-3.135 3.244c-1.349.8-2.875 1.231-4.578 1.294-1.258.047-2.382-.16-3.373-.624Zm5.575-4.395a3.625 3.625 0 0 0 1.029-1.511 4.825 4.825 0 0 0 .303-1.874c-.027-.722-.232-1.265-.617-1.63-.385-.366-.87-.537-1.453-.515a2.448 2.448 0 0 0-1.593.628 3.73 3.73 0 0 0-1.003 1.51 4.897 4.897 0 0 0-.304 1.9c.027.725.229 1.264.603 1.617.375.354.855.521 1.44.503a2.518 2.518 0 0 0 1.595-.628Z" fill="#fff"/><path d="M60.539 60.194a.416.416 0 0 1-.396-.552l.806-2.35-1.841.072a.417.417 0 0 1-.413-.473l.402-2.95a.419.419 0 0 1 .253-.329l.053-.026a.38.38 0 0 1 .052-.025.539.539 0 0 1 .052-.027.506.506 0 0 1 .053-.027.519.519 0 0 1 .052-.025.443.443 0 0 1 .054-.027.425.425 0 0 1 .051-.026.358.358 0 0 1 .052-.026.518.518 0 0 1 .053-.026.506.506 0 0 1 .052-.027.332.332 0 0 1 .054-.026.46.46 0 0 1 .052-.026.446.446 0 0 1 .053-.026.425.425 0 0 1 .051-.027.386.386 0 0 1 .053-.026.423.423 0 0 1 .053-.026.38.38 0 0 1 .052-.026.527.527 0 0 1 .053-.027.311.311 0 0 1 .052-.025.423.423 0 0 1 .053-.027.31.31 0 0 1 .052-.026.55.55 0 0 1 .052-.026.38.38 0 0 1 .053-.026.539.539 0 0 1 .052-.027.369.369 0 0 1 .053-.026.506.506 0 0 1 .052-.026.38.38 0 0 1 .052-.026.527.527 0 0 1 .053-.027.354.354 0 0 1 .052-.025.506.506 0 0 1 .053-.027.353.353 0 0 1 .052-.026.527.527 0 0 1 .053-.027.459.459 0 0 1 .053-.026.425.425 0 0 1 .051-.026.539.539 0 0 1 .053-.027.452.452 0 0 1 .053-.025.316.316 0 0 1 .052-.026.337.337 0 0 1 .053-.027.438.438 0 0 1 .052-.026.311.311 0 0 1 .053-.026.423.423 0 0 1 .052-.027h.007l-.719.028a.418.418 0 0 1-.413-.473l.405-2.951a.42.42 0 0 1 .254-.33.37.37 0 0 1 .052-.025.443.443 0 0 1 .053-.027.41.41 0 0 1 .052-.026.443.443 0 0 1 .053-.026.314.314 0 0 1 .053-.026.518.518 0 0 1 .052-.027.493.493 0 0 1 .051-.026.459.459 0 0 1 .054-.026.38.38 0 0 1 .052-.026.438.438 0 0 1 .053-.027.38.38 0 0 1 .052-.026.518.518 0 0 1 .052-.026.363.363 0 0 1 .053-.026.43.43 0 0 1 .052-.027.358.358 0 0 1 .053-.025.527.527 0 0 1 .052-.027.365.365 0 0 1 .053-.026.437.437 0 0 1 .052-.026.526.526 0 0 1 .052-.027.54.54 0 0 1 .053-.026.527.527 0 0 1 .052-.027.461.461 0 0 1 .054-.025.41.41 0 0 1 .051-.027l.053-.026a.443.443 0 0 1 .053-.026.342.342 0 0 1 .051-.026.533.533 0 0 1 .054-.027.319.319 0 0 1 .052-.026.316.316 0 0 1 .052-.025.275.275 0 0 1 .053-.027.438.438 0 0 1 .052-.027.33.33 0 0 1 .053-.025.431.431 0 0 1 .052-.027.326.326 0 0 1 .053-.026.5.5 0 0 1 .051-.026.37.37 0 0 1 .053-.026.438.438 0 0 1 .053-.027.365.365 0 0 1 .052-.026.526.526 0 0 1 .053-.026.374.374 0 0 1 .052-.026.527.527 0 0 1 .053-.027.38.38 0 0 1 .052-.025.518.518 0 0 1 .053-.027.506.506 0 0 1 .052-.027l.052-.026a.358.358 0 0 1 .053-.025.527.527 0 0 1 .052-.027.365.365 0 0 1 .053-.026.526.526 0 0 1 .052-.026.459.459 0 0 1 .053-.027.418.418 0 0 1 .198-.057l.522-.02.465-1.339a.415.415 0 0 1 .235-.248.319.319 0 0 1 .052-.026.445.445 0 0 1 .053-.026.33.33 0 0 1 .052-.026.37.37 0 0 1 .052-.027.369.369 0 0 1 .053-.025.364.364 0 0 1 .052-.027.358.358 0 0 1 .053-.026.374.374 0 0 1 .052-.026.311.311 0 0 1 .052-.026.364.364 0 0 1 .053-.027.506.506 0 0 1 .052-.026.369.369 0 0 1 .053-.026.549.549 0 0 1 .052-.027.375.375 0 0 1 .053-.026.369.369 0 0 1 .052-.025.294.294 0 0 1 .052-.027.443.443 0 0 1 .054-.027.316.316 0 0 1 .051-.026.527.527 0 0 1 .053-.026.354.354 0 0 1 .052-.026.506.506 0 0 1 .052-.027.332.332 0 0 1 .054-.025.445.445 0 0 1 .052-.027.32.32 0 0 1 .052-.026.45.45 0 0 1 .053-.023.31.31 0 0 1 .053-.025.423.423 0 0 1 .052-.027.369.369 0 0 1 .052-.026.331.331 0 0 1 .053-.026.539.539 0 0 1 .052-.027.519.519 0 0 1 .053-.026.363.363 0 0 1 .051-.026l.053-.026a.527.527 0 0 1 .053-.027.49.49 0 0 1 .052-.026.348.348 0 0 1 .053-.025.364.364 0 0 1 .052-.027.538.538 0 0 1 .053-.027.38.38 0 0 1 .052-.026.539.539 0 0 1 .052-.026.519.519 0 0 1 .053-.026.506.506 0 0 1 .052-.027.38.38 0 0 1 .053-.025.443.443 0 0 1 .053-.027.32.32 0 0 1 .052-.026.518.518 0 0 1 .052-.026.353.353 0 0 1 .052-.026.506.506 0 0 1 .053-.027.369.369 0 0 1 .052-.026.566.566 0 0 1 .054-.026.414.414 0 0 1 .197-.058l3.14-.126a.416.416 0 0 1 .395.553l-.094.269.025-.011a.443.443 0 0 1 .053-.027.308.308 0 0 1 .052-.026.443.443 0 0 1 .053-.026.413.413 0 0 1 .052-.026.467.467 0 0 1 .053-.027.326.326 0 0 1 .053-.026.437.437 0 0 1 .052-.026.33.33 0 0 1 .052-.026.438.438 0 0 1 .053-.027.327.327 0 0 1 .052-.025.417.417 0 0 1 .052-.027.443.443 0 0 1 .053-.027.498.498 0 0 1 .052-.025.314.314 0 0 1 .053-.026l.105-.053a.364.364 0 0 1 .052-.026.549.549 0 0 1 .053-.027.54.54 0 0 1 .052-.026.375.375 0 0 1 .052-.025.364.364 0 0 1 .053-.027.506.506 0 0 1 .052-.027.358.358 0 0 1 .053-.026.527.527 0 0 1 .052-.026.365.365 0 0 1 .053-.026.549.549 0 0 1 .052-.027.519.519 0 0 1 .052-.025.443.443 0 0 1 .054-.027.363.363 0 0 1 .051-.026.518.518 0 0 1 .053-.027.369.369 0 0 1 .052-.025.443.443 0 0 1 .053-.027.41.41 0 0 1 .198-.057l3.138-.122a.416.416 0 0 1 .395.553l-.791 2.28 1.449-.056h.016a.418.418 0 0 1 .061 0l.008-.008.043-.046.016-.018.045-.047.016-.018.044-.048.017-.017.044-.048.016-.018.044-.047.017-.017a4.373 4.373 0 0 1 1.462-1.093 6.207 6.207 0 0 1 2.427-.556c.093 0 .184-.005.275-.005.131 0 .262 0 .386.011.54.027 1.073.133 1.583.314a4.002 4.002 0 0 1 1.798 1.255c.345.432.58.94.687 1.483.32-.286.672-.534 1.05-.738a5.794 5.794 0 0 1 2.583-.693c.08 0 .16-.005.24-.005.115 0 .23 0 .343.01.805.031 1.588.28 2.263.721l.012-.008a.41.41 0 0 1 .084-.065.379.379 0 0 1 .084-.065 19.22 19.22 0 0 0 .25-.196.455.455 0 0 1 .084-.065.41.41 0 0 1 .083-.065.377.377 0 0 1 .083-.065.4.4 0 0 1 .083-.065.44.44 0 0 1 .084-.066.413.413 0 0 1 .28-.122l4.391-.164h.016c.043 0 .085.006.126.02.302-.073.61-.114.92-.124h.184c.088 0 .176 0 .26.008a3.72 3.72 0 0 1 1.649.47c.107.06.211.126.31.197h.006a4.64 4.64 0 0 1 .389-.249 4.426 4.426 0 0 1 2.075-.61h.209c.099 0 .198 0 .297.009a3.776 3.776 0 0 1 1.89.593.607.607 0 0 1 .059-.032.431.431 0 0 1 .104-.066.427.427 0 0 1 .099-.066.402.402 0 0 1 .099-.065.42.42 0 0 1 .099-.066.423.423 0 0 1 .099-.067.423.423 0 0 1 .104-.065.381.381 0 0 1 .104-.066.363.363 0 0 1 .099-.066.403.403 0 0 1 .257-.099l4.395-.165h.016c.1 0 .197.035.273.1a.335.335 0 0 1 .054-.028.426.426 0 0 1 .251-.1l4.411-.164h.014a.416.416 0 0 1 .413.475l-.036.257.119-.066.118-.065.118-.067.119-.066.119-.065a4.564 4.564 0 0 1 2.108-.607h.188a3.925 3.925 0 0 1 .972.115.41.41 0 0 1 .216-.072l2.956-.11a.387.387 0 0 1 .122-.06.404.404 0 0 1 .134-.071c.089-.046.177-.092.266-.14a.42.42 0 0 1 .133-.069.425.425 0 0 1 .134-.07.4.4 0 0 1 .132-.07.447.447 0 0 1 .134-.07.405.405 0 0 1 .132-.069.415.415 0 0 1 .134-.069.398.398 0 0 1 .133-.07.422.422 0 0 1 .133-.07.409.409 0 0 1 .133-.07.407.407 0 0 1 .134-.069l.266-.14a.43.43 0 0 1 .133-.07.414.414 0 0 1 .133-.069.434.434 0 0 1 .134-.07.402.402 0 0 1 .133-.07.428.428 0 0 1 .147-.083.425.425 0 0 1 .134-.07.412.412 0 0 1 .133-.069.403.403 0 0 1 .133-.07.415.415 0 0 1 .134-.07.383.383 0 0 1 .133-.07.402.402 0 0 1 .133-.069.44.44 0 0 1 .133-.07.42.42 0 0 1 .24-.088l5.172-.193c.091 0 .181-.005.27-.005.125 0 .248 0 .367.011.3.016.598.059.89.129a2.05 2.05 0 0 1 .14-.069c.046-.02.099-.049.147-.072.049-.023.099-.05.147-.07.049-.023.099-.05.148-.073.048-.023.099-.05.147-.072l.148-.072.147-.072c.048-.023.099-.05.147-.072.049-.023.099-.05.148-.072.048-.023.099-.05.146-.071.048-.022.099-.05.147-.073.049-.022.099-.049.148-.072.048-.023.099-.05.147-.072l.147-.071c.049-.023.099-.05.148-.072l.147-.073c.049-.022.099-.049.148-.07.048-.022.099-.05.147-.073.048-.023.099-.05.147-.072.049-.023.099-.05.147-.071a3.17 3.17 0 0 1 1.372-.357h.131c.066 0 .132.003.198.007.555.02 1.089.218 1.521.567a2.323 2.323 0 0 1 .856 1.752c.018.424-.065.846-.242 1.231l.013-.005.029-.015a5.54 5.54 0 0 1 2.126-.475c.087 0 .175-.005.261-.005.125 0 .248 0 .367.01.569.027 1.129.15 1.657.364.457.185.875.455 1.232.796h.009c.057-.024.111-.047.165-.068.055-.02.11-.047.166-.068.055-.02.111-.047.164-.068.052-.02.11-.047.165-.068l.165-.068.164-.068c.056-.021.11-.046.165-.068.056-.022.113-.047.166-.067.052-.02.109-.048.165-.069.055-.02.111-.047.165-.068.054-.02.112-.047.164-.068.053-.02.111-.046.164-.067.054-.021.11-.048.166-.069.057-.02.111-.047.165-.068.053-.02.109-.046.165-.068a4.58 4.58 0 0 1 .162-.066 4.515 4.515 0 0 1 1.618-.364h.187a3.91 3.91 0 0 1 .971.114.422.422 0 0 1 .218-.07l4.392-.165h.016a.415.415 0 0 1 .399.298.403.403 0 0 1 .013.176l-1.27 9.185a.417.417 0 0 1-.376.358.429.429 0 0 1-.173.056.432.432 0 0 1-.173.055.421.421 0 0 1-.174.054.402.402 0 0 1-.174.056.394.394 0 0 1-.173.055.398.398 0 0 1-.173.056.4.4 0 0 1-.173.055.407.407 0 0 1-.173.055l-.347.111a.414.414 0 0 1-.173.055.415.415 0 0 1-.173.056l-.347.11a.412.412 0 0 1-.173.056.412.412 0 0 1-.174.055.41.41 0 0 1-.173.056.42.42 0 0 1-.173.055l-.347.111a.417.417 0 0 1-.173.055.429.429 0 0 1-.173.056.428.428 0 0 1-.173.055.438.438 0 0 1-.174.055.422.422 0 0 1-.173.056.408.408 0 0 1-.173.054.403.403 0 0 1-.173.056.402.402 0 0 1-.174.055l-.347.11a.398.398 0 0 1-.173.056.397.397 0 0 1-.173.056.414.414 0 0 1-.173.055.414.414 0 0 1-.173.055.407.407 0 0 1-.174.056.412.412 0 0 1-.172.055.42.42 0 0 1-.174.056.417.417 0 0 1-.173.055.415.415 0 0 1-.173.055.413.413 0 0 1-.174.056.413.413 0 0 1-.174.055.406.406 0 0 1-.173.056.425.425 0 0 1-.173.055.429.429 0 0 1-.173.055.435.435 0 0 1-.173.056l-.347.11a.429.429 0 0 1-.173.056.414.414 0 0 1-.173.054.401.401 0 0 1-.173.056.414.414 0 0 1-.198.057l-4.076.151h-.016a.423.423 0 0 1-.079-.008c-.298.077-.603.12-.91.13h-.164c-.079 0-.158 0-.234-.006a3.366 3.366 0 0 1-2.07-.82l-.075.025-.113.04-.045.015-.116.04-.042.015a2.808 2.808 0 0 1-.116.04l-.043.015c-.038.015-.078.028-.116.04l-.043.015-.114.04-.044.015a2.234 2.234 0 0 1-.115.04l-.042.015-.117.042-.042.014-.118.041-.041.014-.115.04-.043.014a1.976 1.976 0 0 1-.116.04l-.042.016a2.235 2.235 0 0 1-.115.04l-.043.015a3.951 3.951 0 0 1-.116.04l-.042.014a6.059 6.059 0 0 1-1.957.38h-.251c-.12 0-.239 0-.354-.01a5.166 5.166 0 0 1-1.368-.259 4.29 4.29 0 0 1-.347-.135.286.286 0 0 1-.041.009.433.433 0 0 1-.149.054.443.443 0 0 1-.151.054.428.428 0 0 1-.149.055.43.43 0 0 1-.15.054.433.433 0 0 1-.15.055.43.43 0 0 1-.15.054.41.41 0 0 1-.149.054.418.418 0 0 1-.198.06l-4.087.152h-.021a.413.413 0 0 1-.399-.298.42.42 0 0 1-.013-.177v-.018l-.07.026-.099.04-.038.015-.106.041-.035.013c-.035.015-.07.028-.105.04l-.037.014a5.614 5.614 0 0 1-1.978.412l-5.223.198h-.016a.416.416 0 0 1-.412-.474l.018-.124a.478.478 0 0 1-.064.021v.001l-.384.16h.002a.422.422 0 0 1-.129.054.421.421 0 0 1-.128.053.406.406 0 0 1-.127.054.419.419 0 0 1-.128.053.393.393 0 0 1-.122.06.432.432 0 0 1-.128.055.416.416 0 0 1-.128.053.42.42 0 0 1-.127.053.42.42 0 0 1-.208.065l-4.076.152h-.016a.422.422 0 0 1-.079-.007 4.37 4.37 0 0 1-.91.13h-.164c-.079 0-.158 0-.235-.007a3.449 3.449 0 0 1-1.583-.469l-.034.01a.427.427 0 0 1-.115.054.446.446 0 0 1-.116.054.415.415 0 0 1-.114.052.407.407 0 0 1-.115.054.402.402 0 0 1-.115.053.437.437 0 0 1-.115.053.422.422 0 0 1-.115.053.407.407 0 0 1-.115.053.413.413 0 0 1-.215.07l-4.07.15h-.016a.423.423 0 0 1-.152-.028 4.23 4.23 0 0 1-.903.13h-.173c-.083 0-.166 0-.248-.007a3.34 3.34 0 0 1-1.571-.468.382.382 0 0 1-.065.03.443.443 0 0 1-.099.052.452.452 0 0 1-.099.052.37.37 0 0 1-.099.054.423.423 0 0 1-.099.052.407.407 0 0 1-.099.053.405.405 0 0 1-.098.052.424.424 0 0 1-.099.053.452.452 0 0 1-.099.053.422.422 0 0 1-.225.076l-4.055.151H97.9a.416.416 0 0 1-.252-.085.375.375 0 0 1-.053.025.412.412 0 0 1-.232.081l-4.07.151h-.017a.42.42 0 0 1-.254-.087c-.014.007-.026.014-.041.02a.405.405 0 0 1-.239.087l-4.086.153h-.016a.417.417 0 0 1-.413-.475l.054-.379-.015.009-.08.053-.08.053-.08.053a5.41 5.41 0 0 1-.721.406 5.252 5.252 0 0 1-2.053.494c-.073 0-.148.005-.221.005-.107 0-.213 0-.316-.009-.972-.056-1.804-.373-2.472-.943a3.66 3.66 0 0 1-.364-.358l-.048.035-.056.043-.01.007-.061.046-.012.01-.063.047-.07.053-.062.047h-.006l-.061.047-.012.009-.067.05-.067.05c-.022.019-.046.036-.071.055l-.07.053a4.42 4.42 0 0 1-.75.471 5.62 5.62 0 0 1-2.332.55c-.099 0-.198.005-.302.005-.14 0-.28 0-.413-.01-.926-.054-1.733-.291-2.398-.707a3.219 3.219 0 0 1-1.536-2.427.406.406 0 0 1-.046.024.324.324 0 0 1-.053.025.423.423 0 0 1-.053.027.369.369 0 0 1-.052.026.549.549 0 0 1-.053.027.375.375 0 0 1-.052.025.506.506 0 0 1-.053.027.363.363 0 0 1-.051.026l-.053.026a.358.358 0 0 1-.053.026.413.413 0 0 1-.198.059l-.143.004-.484 1.406a.415.415 0 0 1-.234.25.527.527 0 0 1-.052.026.364.364 0 0 1-.053.026.506.506 0 0 1-.052.026.353.353 0 0 1-.053.026.527.527 0 0 1-.052.027.369.369 0 0 1-.053.025.539.539 0 0 1-.052.027.369.369 0 0 1-.052.026.374.374 0 0 1-.053.026.38.38 0 0 1-.052.026.443.443 0 0 1-.054.027.412.412 0 0 1-.051.027.498.498 0 0 1-.053.025.443.443 0 0 1-.053.027.474.474 0 0 1-.051.026.369.369 0 0 1-.053.025.275.275 0 0 1-.053.027.545.545 0 0 1-.052.027.386.386 0 0 1-.053.026.363.363 0 0 1-.052.025.275.275 0 0 1-.053.027.527.527 0 0 1-.052.027.354.354 0 0 1-.053.025.506.506 0 0 1-.052.027.353.353 0 0 1-.053.026.527.527 0 0 1-.052.026.493.493 0 0 1-.051.026l-.054.027a.369.369 0 0 1-.052.026.506.506 0 0 1-.053.026.38.38 0 0 1-.052.026.438.438 0 0 1-.052.027.518.518 0 0 1-.053.026l-.052.026a.506.506 0 0 1-.053.027.498.498 0 0 1-.052.026.369.369 0 0 1-.053.025l-.105.054a.519.519 0 0 1-.052.026.443.443 0 0 1-.053.026.513.513 0 0 1-.052.026.38.38 0 0 1-.052.026.334.334 0 0 1-.054.026.423.423 0 0 1-.052.027.31.31 0 0 1-.052.026.43.43 0 0 1-.053.026.322.322 0 0 1-.052.026.446.446 0 0 1-.053.027.326.326 0 0 1-.052.026.402.402 0 0 1-.198.057l-3.117.122h-.016a.416.416 0 0 1-.396-.552l.093-.271-.025.01a.443.443 0 0 1-.053.027.423.423 0 0 1-.052.027.33.33 0 0 1-.053.026.438.438 0 0 1-.052.026.311.311 0 0 1-.053.026.342.342 0 0 1-.051.026.267.267 0 0 1-.053.026.55.55 0 0 1-.053.027.33.33 0 0 1-.052.026.539.539 0 0 1-.053.027.513.513 0 0 1-.051.025.443.443 0 0 1-.054.027.38.38 0 0 1-.052.026.527.527 0 0 1-.052.026.354.354 0 0 1-.053.026.506.506 0 0 1-.052.027.353.353 0 0 1-.053.026.527.527 0 0 1-.052.026.38.38 0 0 1-.052.026.549.549 0 0 1-.053.027.445.445 0 0 1-.053.026.425.425 0 0 1-.052.026.38.38 0 0 1-.052.026.443.443 0 0 1-.054.027.5.5 0 0 1-.051.026.32.32 0 0 1-.053.026.49.49 0 0 1-.052.027l-.052.025a.444.444 0 0 1-.054.027.33.33 0 0 1-.052.026.446.446 0 0 1-.053.027.326.326 0 0 1-.052.025.404.404 0 0 1-.198.058l-3.12.122-.015.001Z" fill="#243B7F"/><path d="M139.83 41.893h.168a2.16 2.16 0 0 1 1.28.474 1.913 1.913 0 0 1 .705 1.442 2.284 2.284 0 0 1-.384 1.367l-.081.586.061-.025.028-.015.124-.052.029-.015c.04-.019.083-.035.124-.053l.029-.014c.04-.019.082-.036.123-.052.01-.005.019-.011.029-.015.041-.019.083-.036.125-.054l.028-.014.124-.053.029-.014a5.11 5.11 0 0 1 1.966-.437h.246c.117 0 .232 0 .343.01a4.651 4.651 0 0 1 1.522.332c.493.197.933.507 1.285.905l.107-.043c.055-.023.109-.047.164-.067.056-.021.11-.048.166-.069.055-.02.109-.046.165-.068l.164-.067c.054-.021.11-.048.165-.069.055-.02.11-.047.165-.068.056-.02.11-.046.165-.068.056-.022.109-.046.165-.067.055-.021.109-.048.165-.069.055-.02.11-.047.165-.068.055-.02.11-.046.165-.068.056-.022.109-.046.164-.067.056-.021.11-.048.165-.068.056-.021.11-.047.166-.069.055-.021.108-.046.164-.067.055-.02.11-.047.165-.068.055-.021.11-.048.165-.068a4.104 4.104 0 0 1 1.477-.335h.171a3.383 3.383 0 0 1 1.028.146v-.034l.159-.006.009-.062 4.393-.164-1.271 9.198-.167.006-.007.05-.166.005-.007.05-.166.006-.007.049-.166.006-.007.05-.166.005-.007.05-.167.006-.007.05-.167.005-.006.05-.167.005-.007.05-.166.006-.007.05-.166.005-.007.05-.167.006-.006.049-.167.006-.007.05-.166.005-.007.05-.166.006-.007.05-.166.005-.007.05-.167.005-.006.049-.167.007-.007.048-.166.007-.007.049-.167.007.003.034-.166.007-.007.049-.166.007-.007.048-.167.007-.006.048-.167.006-.007.05-.166.006-.007.05-.166.005-.007.05-.166.006-.007.049-.167.006-.006.05-.167.005-.007.05-.166.006-.007.05-.167.005-.006.05-.167.006-.007.049-.167.006-.006.05-.167.005-.007.05-.166.006-.007.05-.166.005-.007.05-.166.005-.007.05-.166.006-.007.05-.167.005-.006.05-.167.006-.007.048-.166.007-.007.048-.166.007-.007.049-.166.007-.007.048-.17.013-.005.048-.168.007-.007.049-.166.007-.007.048-.166.006-.007.05-.166.006-.007.05-.166.005-.007.05-.167.005-.007.05-.166.006-.007.05-.166.005-.007.05-4.076.152.007-.05c-.328.103-.668.16-1.012.172h-.148c-.071 0-.142-.002-.211-.006a2.95 2.95 0 0 1-1.992-.882c-.051.02-.106.037-.158.055a7.332 7.332 0 0 0-.158.055l-.159.056-.158.054c-.052.018-.106.038-.158.055a7.332 7.332 0 0 0-.158.056l-.159.054-.158.056a9.902 9.902 0 0 0-.158.055l-.158.055c-.053.02-.106.037-.159.055l-.159.055-.157.055c-.052.02-.106.037-.158.055a5.617 5.617 0 0 1-1.833.352h-.235c-.112 0-.223 0-.331-.009a4.759 4.759 0 0 1-1.258-.237 3.84 3.84 0 0 1-.474-.198h-.105l-.007.05-.144.004-.007.05h-.142l-.007.05-.143.004-.007.05-.143.005-.007.049-.143.005-.007.05-.142.004-.007.05h-.144l-.007.05-.142.004-.007.05-4.091.174.099-.721-.026.01c-.046.02-.098.036-.141.054-.043.018-.099.037-.142.055l-.142.055c-.046.02-.099.036-.142.054a5.055 5.055 0 0 1-.142.054c-.047.018-.099.037-.142.055-.044.018-.099.036-.142.055-.042.02-.098.037-.142.055a5.166 5.166 0 0 1-1.837.381l-5.223.198.124-.884h-.032l-.006.049-.121.005-.007.049h-.121l-.007.05h-.121l-.007.049-.12.005-.007.048h-.121l-.007.05h-.12l-.007.05h-.122l-.006.049-.122.005-.006.048-.121.005-.007.05h-.121l-.007.049h-.12l-.007.05-.121.004-.007.049-.12.005-.007.05h-.122l-.006.049h-.122l-.007.05-.12.004-.007.049-.121.004-.007.049-4.076.152.007-.048a3.79 3.79 0 0 1-1.012.17h-.148c-.071 0-.141-.001-.211-.005a2.985 2.985 0 0 1-1.599-.546h-.034l-.007.05h-.108l-.007.048h-.109l-.007.05h-.108l-.007.049h-.107l-.007.05h-.108l-.007.048h-.109l-.007.05h-.108l-.006.049h-.108l-.007.049h-.108l-.007.049h-.109l-.007.049-4.07.151.013-.099a3.786 3.786 0 0 1-1.083.198h-.158c-.076 0-.151 0-.224-.006a2.841 2.841 0 0 1-1.589-.553l-.005.032h-.099l-.007.05h-.099l-.006.048h-.099l-.007.05h-.099l-.007.049h-.099l-.006.05h-.099l-.007.048h-.099l-.007.05h-.099l-.006.049h-.099l-.007.048h-.099l-.007.05h-.099l-.006.049-4.06.151.048-.344h-.023l-.007.05h-.088l-.007.05h-.088l-.007.049h-.088l-.007.049h-.088l-.007.05h-.088l-.007.049h-.088l-.007.05-4.072.15.048-.343h-.064l-.007.05h-.08l-.008.05h-.08l-.008.048h-.08l-.008.05h-.08l-.007.049h-.08l-.008.048h-.08l-.008.049-4.087.153.181-1.292-.058.038-.08.053-.08.053-.08.052-.08.053-.08.053-.08.053-.08.053-.08.053-.08.053-.081.052-.081.053a4.997 4.997 0 0 1-.752.432 4.874 4.874 0 0 1-1.89.453h-.207c-.1 0-.196-.003-.291-.01-.882-.05-1.63-.334-2.224-.843-.213-.181-.4-.39-.558-.621l-.026.019-.07.052-.07.053a1.793 1.793 0 0 1-.069.052l-.07.053-.07.053-.069.052-.069.053-.07.052-.07.053-.069.053-.069.052-.069.053-.07.052-.07.053-.069.052c-.212.166-.441.31-.683.43a5.212 5.212 0 0 1-2.133.5c-.1 0-.191.005-.286.005-.133 0-.263 0-.39-.011-.855-.049-1.595-.265-2.2-.643-.851-.532-1.322-1.373-1.362-2.431 0-.078 0-.18.006-.318h-.021v.025h-.05v.025h-.05v.024h-.048v.025h-.048v.025h-.049v.025h-.048v.023H73.4v.025h-.048v.024h-.049v.025h-.048v.023h-.049v.025h-.049v.024h-.05v.024h-.049v.024h-.05v.025h-.049v.024h-.05v.024h-.049v.024h-.05v.025h-.049v.024h-.049v.024l-.428.017-.577 1.675h-.044l-.008.024h-.045l-.008.025h-.044l-.008.025h-.045l-.008.024h-.044l-.008.024h-.044l-.008.024h-.045l-.008.025h-.044l-.008.023h-.045l-.008.025h-.044l-.008.024h-.045l-.008.025h-.044l-.009.023h-.043l-.01.025h-.043l-.009.024h-.043l-.01.025h-.043l-.009.024h-.043l-.009.025h-.044l-.008.025h-.044l-.009.025h-.043l-.01.024h-.043l-.009.025h-.043l-.01.025h-.043l-.009.024h-.043l-.009.025h-.043l-.01.025h-.044l-.008.025H70.3l-.008.024h-.045l-.008.025h-.044l-.008.025h-.044l-.008.025h-.045l-.008.023h-.044l-.008.025h-.045l-.008.024h-.044l-.008.024h-.045l-.008.024h-.044l-.008.025h-.044l-.008.024h-.045l-.009.024h-.043l-.01.024h-.043l-.009.025h-.043l-.01.024h-.043l-.009.024h-.043l-.009.025h-.043l-.01.025h-.043l-.009.025h-.043l-.01.024h-.043l-.009.025H69.2l-.009.025h-.043l-.01.024h-.078v.322h-.043l-.009.025-3.123.121.43-1.251h-.024l-.008.025h-.041l-.008.024h-.045l-.008.025h-.044l-.008.025h-.045l-.007.025h-.045l-.008.023h-.044l-.008.025h-.045l-.008.024h-.044l-.008.025h-.045l-.008.023h-.044l-.008.025h-.044l-.008.024h-.045l-.009.024h-.043l-.01.024h-.043l-.009.025h-.043l-.008.046h-.044l-.009.025h-.043l-.009.025h-.044l-.008.025h-.044l-.009.024h-.043l-.01.025h-.043l-.009.025h-.043l-.01.025h-.043l-.008.024h-.044l-.009.025h-.043l-.01.025h-.044l-.008.025h-.044l-.008.024h-.045l-.008.025h-.044l-.008.025h-.044l-.013.05h-.045l-.008.024h-.044l-.008.024h-.045l-.008.024h-.044l-.008.024h-.045l-.008.025h-.044l-.008.023h-.044l-.008.025h-.045l-.009.024h-.043l-.01.025h-.043l-.009.023h-.043l-.009.025h-.043l-.01.025h-.043l-.009.025h-.043l-.01.024h-.043l-.009.025h-.043l-.01.025h-.043l-.008.024h-.044l-.009.025h-.043l-.01.025h-.043l-.009.025-3.123.12 1.008-2.885-2.434.094.401-2.948h.05v-.025h.05v-.024h.048v-.024h.05v-.024h.05v-.025h.049v-.023h.048v-.025h.049v-.024h.048v-.025h.049v-.023h.048v-.025h.049v-.025h.048v-.025h.049v-.024h.049v-.025h.05v-.025h.049v-.023h.05v-.025h.049v-.024h.05v-.025h.049v-.023h.05v-.025h.049v-.024h.05v-.025h.049v-.023h.049v-.025h.05v-.024h.049v-.025h.05v-.023h.049v-.025h.05v-.024h.049v-.025h.048V53.2h.049v-.025h.048v-.024h.049v-.024h.048v-.024h.049v-.025h.048v-.025h.048v-.024h.05v-.025h.05v-.025h.049v-.025h.05v-.023h.049v-.025h.05v-.024h.049v-.024h.05v-.024h.048v-.025h.05v-.024h.05v-.024l.82-.032.198-.578-2.415.094.401-2.948h.049v-.025h.048v-.025h.227v-.024h.048v-.025h.049v-.024h.05v-.024h.049v-.024h.05V49.1h.049v-.024h.05v-.024h.049v-.024h.049v-.025h.05v-.023h.049v-.025h.05v-.024h.049v-.025h.05v-.023h.049v-.025h.05v-.024h.049v-.025h.049v-.023h.05v-.025h.049v-.024h.048v-.025h.049v-.023h.048v-.025h.049v-.025h.048v-.025h.049v-.024h.048v-.025h.049v-.025h.05v-.024h.048v-.025h.05v-.024h.05v-.025h.049v-.023h.05v-.025h.049v-.024h.05v-.024h.049v-.024h.05v-.025h.049v-.024h.05v-.024h.048v-.024h.05V48.2h.05v-.024h.049v-.024h.05v-.024h.049v-.025h.05v-.024h.048v-.024l.806-.032.558-1.606h.043l.009-.024h.044l.008-.025h.044l.009-.023h.043l.01-.025h.043l.009-.024h.044l.008-.024h.045l.008-.024h.044l.008-.025h.044l.008-.025h.045l.008-.025h.044l.008-.024h.045l.008-.025h.044l.008-.025h.045l.007-.024h.045l.008-.025h.044l.01-.025h.043l.009-.024h.043l.01-.025h.043l.009-.025h.043l.009-.025h.044l.008-.024h.044l.009-.025h.043l.01-.025h.209l.009-.025h.043l.01-.024h.043l.009-.024h.043l.01-.025h.043l.009-.023h.043l.009-.025h.043l.01-.024h.043l.009-.025h.043l.01-.023h.044l.008-.025h.044l.008-.024h.044l.008-.025h.045l.008-.024h.044l.008-.025h.045l.008-.025h.044l.008-.025h.045l.007-.024h.043l.008-.025h.044l.008-.025h.039l.009-.025h.043l.01-.024h.043l.009-.025h.043l.01-.025h.043l.008-.024h.044l.009-.025h.043l.01-.025h.043l.009-.025h.043l.01-.023 3.131-.405-.434 1.25h.018l.01-.024h.043l.008-.025h.044l.009-.024h.043l.01-.025h.043l.009-.023h.043l.01-.025h.044l.008-.024h.044l.008-.025h.044l.008-.023h.045l.008-.025h.044l.008-.024h.045l.008-.024h.044l.008-.025h.045l.007-.025h.045l.008-.025h.044l.008-.024h.045l.009-.025h.043l.01-.025h.043l.009-.024h.043l.009-.025h.044l.008-.025h.044l.009-.025h.043l.01-.024h.044v-.066h.043l.01-.024h.043l.009-.024h.043l.009-.025h.044l.008-.024h.044l.009-.024h.043l.01-.024h.043l.009-.025h.043l.01-.024h.043l.009-.024h.044l.008-.024h.044l.008-.025h.045l.008-.023h.044l.008-.025h.045l.008-.025h.044l.013-.055h.044l.008-.025h.047l.008-.025h.044l.008-.024h.039l.009-.025h.043l.01-.025h.043l.009-.025h.043l.009-.024h.044l.008-.025h.044l.009-.025h.043l.01-.025h.043l.009-.024h.043l.01-.025 3.131-.136-.989 2.856 2.059-.08-.043.313.057-.062.062-.065.06-.066.06-.065.06-.065.061-.065.061-.066.06-.065.061-.065.06-.066.06-.065.062-.065c.368-.42.822-.757 1.33-.99a5.777 5.777 0 0 1 2.264-.515h.26c.123 0 .244 0 .362.01.501.024.996.122 1.468.29.632.216 1.19.605 1.613 1.123.419.533.652 1.188.665 1.865v.191l.07-.06.071-.063.073-.063.074-.063.072-.063.073-.063c.025-.02.049-.042.073-.063.025-.02.049-.043.073-.063.305-.279.643-.52 1.006-.718a5.41 5.41 0 0 1 2.4-.64h.226c.108 0 .214.003.318.008.916.053 1.696.34 2.322.848h.015l.009-.062h.074l.009-.063h.075l.008-.062h.075l.009-.062h.074l.01-.062h.074l.008-.063h.075l.01-.062h.073l.01-.062h.074l.008-.063h.075l.01-.062h.074l.008-.062h.075l.009-.063h.075l.009-.062h.074l.009-.062 4.395-.165-.01.07a4.15 4.15 0 0 1 1.07-.174h.169c.08 0 .16 0 .238.007a3.311 3.311 0 0 1 1.466.416c.176.1.342.22.494.354l.07-.046.099-.065.099-.065c.117-.081.238-.16.362-.232a4.04 4.04 0 0 1 1.879-.547h.193c.093 0 .184 0 .273.008.77.043 1.417.282 1.93.703l.007-.05h.099l.008-.062h.098l.009-.062h.099l.008-.063h.099l.009-.062h.099l.009-.062h.099l.009-.063h.094l.008-.063h.099l.009-.062h.099l.009-.062h.099l.008-.063h.099l.009-.062 4.395-.164-.051.375h.085l.008-.063h.099l.008-.062h.099l.009-.062h.099l.008-.063h.099l.009-.062h.099l.009-.062 4.409-.165-.151 1.088.019-.01c.04-.023.079-.046.119-.067l.119-.065.118-.066.119-.066.119-.067.118-.065.091-.176.119-.065c.04-.023.079-.046.119-.067.039-.02.079-.045.118-.066.04-.02.079-.044.119-.065a4.154 4.154 0 0 1 1.923-.557h.171c.081 0 .159 0 .236.007.285.015.566.067.838.153l.008-.05h.114l.009-.062 3.051-.125v-.007h.124l.009-.065.124-.005.01-.065h.124l.008-.066.125-.005.009-.064.124-.005.009-.065h.124l.009-.064.125-.005.009-.066h.123l.009-.065.125-.005.009-.065h.124l.009-.065.124-.005.009-.066h.124l.009-.065.125-.005.009-.065h.123l.009-.065.125-.005.009-.066h.124l.009-.065h.124l.009-.064.124-.005.009-.065.124-.005.01-.065.123-.005.009-.065.125-.005.009-.064h.123l.01-.065h.124l.009-.066h.125l.008-.065h.124l.009-.065.125-.005.008-.066h.125l.009-.065.124-.005.009-.064h.124l.009-.065 5.172-.198h.254c.117 0 .231 0 .343.01.324.017.646.069.959.154.042-.023.086-.043.13-.063.045-.02.099-.05.148-.071.048-.022.098-.05.147-.073.048-.022.099-.049.147-.072.049-.023.099-.05.148-.072.048-.023.099-.05.146-.071.047-.022.099-.05.147-.072.049-.023.099-.05.148-.073.048-.022.099-.05.147-.07.049-.023.099-.051.147-.073.049-.022.099-.05.148-.072.048-.023.099-.05.147-.072.049-.023.099-.05.148-.072.048-.021.098-.05.147-.072.048-.023.099-.05.147-.072.049-.023.099-.05.148-.072.048-.023.099-.05.147-.071.049-.022.099-.05.147-.073.049-.022.099-.05.148-.072.048-.023.099-.05.147-.071.049-.022.099-.05.148-.072a2.751 2.751 0 0 1 1.202-.314h.118l.001-.066ZM73.716 52.212l.52-.02c.01-.193.037-.384.08-.573l-.396.015-.198.578h-.006Zm66.12-11.153h-.151a3.606 3.606 0 0 0-1.536.396c-.05.023-.098.046-.147.072-.048.026-.099.047-.147.071-.049.025-.099.048-.148.072-.048.025-.099.048-.147.073-.048.024-.099.046-.147.07-.049.026-.099.048-.148.073-.048.025-.099.047-.147.072-.049.025-.099.047-.147.072-.049.026-.099.047-.147.072-.047.024-.099.047-.148.072-.05.025-.099.046-.147.072-.047.026-.098.046-.147.071-.048.025-.099.048-.147.072l-.148.073c-.048.024-.099.046-.147.072-.049.026-.099.046-.147.071-.049.025-.099.048-.148.072-.048.025-.099.047-.147.072-.049.026-.099.047-.148.072h-.007a5.583 5.583 0 0 0-.815-.106 7.295 7.295 0 0 0-.681-.005l-5.173.2a.832.832 0 0 0-.42.132.768.768 0 0 0-.132.07.763.763 0 0 0-.134.07.914.914 0 0 0-.134.069.827.827 0 0 0-.132.07.795.795 0 0 0-.134.07.853.853 0 0 0-.133.07.823.823 0 0 0-.133.069.798.798 0 0 0-.133.07.867.867 0 0 0-.134.07.814.814 0 0 0-.132.069c-.046.02-.091.043-.134.07a.848.848 0 0 0-.133.069l-.266.14a.88.88 0 0 0-.134.07.814.814 0 0 0-.132.069l-.267.14a.789.789 0 0 0-.133.07.848.848 0 0 0-.133.069.781.781 0 0 0-.133.07.802.802 0 0 0-.134.07.857.857 0 0 0-.133.069.94.94 0 0 0-.133.07.793.793 0 0 0-.133.069.872.872 0 0 0-.134.07.806.806 0 0 0-.132.07l-.048.021-2.851.106a.876.876 0 0 0-.251.048 4.367 4.367 0 0 0-.923-.091h-.204a4.977 4.977 0 0 0-2.292.658l-.024.013a.83.83 0 0 0-.41-.394.83.83 0 0 0-.338-.072h-.031l-4.413.17a.834.834 0 0 0-.296.066.843.843 0 0 0-.268-.045h-.029l-4.396.164a.827.827 0 0 0-.467.164.794.794 0 0 0-.099.067.847.847 0 0 0-.104.066.717.717 0 0 0-.099.065.976.976 0 0 0-.099.066.827.827 0 0 0-.104.066.96.96 0 0 0-.099.066l-.047.027a4.263 4.263 0 0 0-1.86-.516 5.602 5.602 0 0 0-.321-.008h-.223a4.845 4.845 0 0 0-2.452.771l-.099-.061a4.137 4.137 0 0 0-1.83-.525 5.505 5.505 0 0 0-.287-.007h-.198c-.304.01-.608.048-.906.112a.868.868 0 0 0-.123-.009h-.032l-4.395.165a.828.828 0 0 0-.521.21.758.758 0 0 0-.084.065.843.843 0 0 0-.084.065.876.876 0 0 0-.083.064.914.914 0 0 0-.084.065.887.887 0 0 0-.083.066.757.757 0 0 0-.083.065.769.769 0 0 0-.084.065l-.035.025a4.956 4.956 0 0 0-2.21-.628 6.366 6.366 0 0 0-.365-.01c-.086 0-.172 0-.258.004a6.212 6.212 0 0 0-2.77.743c-.215.119-.424.25-.624.395a3.872 3.872 0 0 0-.602-1.018 4.405 4.405 0 0 0-1.978-1.385 6.016 6.016 0 0 0-1.704-.338 6.945 6.945 0 0 0-.41-.012c-.1 0-.198 0-.29.006a6.627 6.627 0 0 0-2.59.593 4.803 4.803 0 0 0-1.595 1.192l-.008.008-.051.055-.01.01a1.347 1.347 0 0 0-.05.056l-.01.01a1.395 1.395 0 0 0-.051.054l-.752.03.594-1.704a.832.832 0 0 0-.791-1.106h-.033l-3.129.12a.83.83 0 0 0-.365.1l-.053.025-.052.027a.518.518 0 0 0-.053.026l-.052.026a.527.527 0 0 0-.053.027l-.052.026-.053.026-.052.026-.053.027-.052.025a.506.506 0 0 0-.052.027l-.052.026-.054.026a.823.823 0 0 0-.051.026l-.054.027c-.018.008-.034.017-.051.026a.506.506 0 0 0-.053.026.459.459 0 0 0-.053.027.668.668 0 0 0-.053.026l-.042.02a.833.833 0 0 0-.777-.534h-.033l-3.125.124a.83.83 0 0 0-.366.099.527.527 0 0 0-.053.027l-.052.025-.053.026-.053.027a.649.649 0 0 0-.052.027l-.052.025-.053.027-.052.026a.549.549 0 0 0-.052.026l-.053.026c-.017.009-.035.017-.052.027l-.052.026a.664.664 0 0 0-.054.026l-.051.026-.054.027-.051.025a.527.527 0 0 0-.053.027.532.532 0 0 0-.053.027.666.666 0 0 0-.052.025l-.052.026-.053.027-.053.026-.052.026-.052.026-.053.027a.518.518 0 0 0-.052.026l-.053.026-.052.026-.052.026a.549.549 0 0 0-.053.027l-.052.026a.527.527 0 0 0-.053.027l-.052.025-.054.027-.051.026a.518.518 0 0 0-.053.026l-.053.026-.051.027-.053.026-.053.026-.052.026a.527.527 0 0 0-.052.027c-.019.008-.036.017-.053.026l-.053.026a.506.506 0 0 0-.052.027.504.504 0 0 0-.052.026l-.053.025-.052.027-.053.026-.052.026a.833.833 0 0 0-.441.485l-.371 1.07-.239.008a.85.85 0 0 0-.366.099.54.54 0 0 0-.052.027l-.053.026c-.017.008-.035.016-.052.026l-.052.026-.054.027-.051.025a.527.527 0 0 0-.053.027l-.052.026-.053.026a.647.647 0 0 0-.053.027l-.051.026-.053.026-.053.026a.647.647 0 0 0-.052.027c-.018.01-.035.016-.052.026l-.053.025-.053.027-.052.026-.053.026a.526.526 0 0 0-.052.027l-.052.026a.54.54 0 0 0-.053.027l-.052.025a.527.527 0 0 0-.053.027l-.052.026a.506.506 0 0 0-.053.026l-.052.026c-.018.01-.036.017-.052.027l-.053.026c-.018.008-.035.016-.052.026l-.053.026-.053.027-.051.025a.527.527 0 0 0-.053.027l-.052.026-.054.027-.051.025-.054.027-.051.026c-.018.009-.036.016-.052.026l-.054.027-.051.026a.567.567 0 0 0-.054.027l-.052.025-.053.026-.052.027a.506.506 0 0 0-.052.026l-.053.026a.527.527 0 0 0-.052.027l-.053.026a.834.834 0 0 0-.48.645l-.4 2.95a.834.834 0 0 0 .212.672l.02.021-.032.017-.053.026-.05.025-.054.027-.052.026-.053.026a.527.527 0 0 0-.053.027l-.052.026a.647.647 0 0 0-.052.027l-.053.025c-.018.01-.035.017-.052.027l-.053.026-.052.026-.052.026a.506.506 0 0 0-.053.027l-.052.026c-.018.008-.036.016-.053.026l-.052.026c-.018.009-.036.017-.053.027l-.052.025a.831.831 0 0 0-.48.652l-.401 2.947a.832.832 0 0 0 .825.945h.032l1.218-.047-.61 1.773a.832.832 0 0 0 .79 1.105h.033l3.124-.122a.828.828 0 0 0 .366-.099l.052-.026a.527.527 0 0 0 .053-.026l.052-.026c.018-.009.036-.017.052-.027l.053-.025a.518.518 0 0 0 .052-.027l.053-.026a.549.549 0 0 0 .052-.026l.053-.026c.017-.01.035-.017.052-.027l.052-.026c.018-.009.036-.016.053-.026a.532.532 0 0 0 .053-.027l.052-.026.052-.026c.018-.008.036-.016.052-.026l.054-.027c.017-.008.035-.016.051-.026l.054-.026a.429.429 0 0 0 .042-.021.834.834 0 0 0 .778.534h.033l3.124-.122a.83.83 0 0 0 .366-.099l.052-.025.053-.026.052-.027a.527.527 0 0 0 .052-.026l.053-.026a.526.526 0 0 0 .052-.027l.053-.026a.527.527 0 0 0 .052-.026l.052-.026c.018-.009.036-.017.053-.027.017-.01.035-.016.053-.026.018-.01.035-.016.052-.026l.052-.026a.527.527 0 0 0 .052-.026.664.664 0 0 0 .054-.027c.017-.008.035-.016.051-.026l.054-.027.052-.025.052-.026c.017-.009.035-.017.052-.027l.052-.025.054-.027.051-.026.053-.027.053-.025.053-.027a.526.526 0 0 0 .052-.027l.052-.026a.647.647 0 0 0 .053-.026l.052-.026c.018-.009.036-.017.053-.027l.052-.025a.649.649 0 0 0 .052-.027l.053-.026.052-.026.053-.026a.526.526 0 0 0 .052-.027.664.664 0 0 0 .053-.026c.017-.009.035-.016.052-.026l.052-.026.054-.027.051-.025c.018-.01.036-.017.053-.027.017-.01.035-.017.053-.027l.052-.026.052-.025.053-.027.052-.026.053-.026.052-.026a.83.83 0 0 0 .442-.488l.395-1.148a.87.87 0 0 0 .22-.082l.031-.015c.24.9.817 1.675 1.612 2.162.725.453 1.597.711 2.594.769.141.008.289.012.437.012.105 0 .212 0 .318-.006a6.004 6.004 0 0 0 2.472-.586c.29-.143.563-.315.818-.513l.07-.052.068-.051.069-.052.065-.05.07-.053.069-.052.028-.02c.044.041.088.08.135.12.737.631 1.65.981 2.717 1.043.11.006.224.01.339.01.078 0 .158 0 .238-.006a5.704 5.704 0 0 0 2.6-.727.843.843 0 0 0 .433.446.835.835 0 0 0 .338.072h.038l4.086-.152a.84.84 0 0 0 .274-.058.82.82 0 0 0 .246.038h.031l4.066-.165a.847.847 0 0 0 .275-.058.86.86 0 0 0 .247.037h.03l4.06-.153a.823.823 0 0 0 .401-.12.795.795 0 0 0 .099-.052.823.823 0 0 0 .099-.052.888.888 0 0 0 .098-.053.675.675 0 0 0 .099-.053.685.685 0 0 0 .099-.052.995.995 0 0 0 .099-.053.673.673 0 0 0 .069-.034 3.827 3.827 0 0 0 1.556.411c.089.005.181.007.272.007h.19a4.78 4.78 0 0 0 .88-.116c.053.01.105.015.159.015h.03l4.096-.154a.84.84 0 0 0 .375-.105l.229-.106a.76.76 0 0 0 .115-.054.972.972 0 0 0 .116-.053l.229-.107a.66.66 0 0 0 .072-.03c.49.249 1.027.392 1.576.418.085 0 .171.007.258.007h.18c.31-.01.618-.051.92-.122H114.358l4.076-.153a.83.83 0 0 0 .354-.094.814.814 0 0 0 .12-.052.804.804 0 0 0 .127-.054.898.898 0 0 0 .128-.053.798.798 0 0 0 .127-.054.729.729 0 0 0 .128-.054.766.766 0 0 0 .127-.053.896.896 0 0 0 .129-.054.736.736 0 0 0 .081-.031.835.835 0 0 0 .725.423h.032l5.222-.198a6.016 6.016 0 0 0 2.116-.44l.025-.01.041-.015a.838.838 0 0 0 .684.358h.031l4.087-.152a.844.844 0 0 0 .327-.08.869.869 0 0 0 .149-.054.864.864 0 0 0 .151-.055.91.91 0 0 0 .15-.055.765.765 0 0 0 .149-.061.8.8 0 0 0 .151-.055.8.8 0 0 0 .149-.054l.038-.01a5.556 5.556 0 0 0 1.7.362c.123.007.251.01.379.01.088 0 .178 0 .266-.004a6.487 6.487 0 0 0 2.087-.402l.03-.01a2.24 2.24 0 0 0 .127-.045l.031-.01.127-.045.031-.01c.038-.013.081-.027.128-.045l.032-.01.127-.045.031-.011c.038-.012.08-.027.127-.045l.031-.01c.038-.012.081-.026.127-.044l.033-.011.125-.044.032-.011c.038-.013.08-.027.127-.045l.03-.01c.039-.013.081-.026.128-.044l.032-.011c.038-.013.08-.027.126-.045l.033-.01c.037-.013.079-.027.125-.045h.008a3.781 3.781 0 0 0 2.129.766c.084 0 .171.007.258.007h.181a4.78 4.78 0 0 0 .92-.123H143.734l4.075-.152a.85.85 0 0 0 .307-.07.878.878 0 0 0 .174-.057.837.837 0 0 0 .173-.055l-.001.001.347-.11v-.001a.964.964 0 0 0 .175-.056.952.952 0 0 0 .173-.055.88.88 0 0 0 .173-.055.818.818 0 0 0 .173-.056.812.812 0 0 0 .173-.055.773.773 0 0 0 .173-.056.809.809 0 0 0 .174-.055.783.783 0 0 0 .173-.056.777.777 0 0 0 .173-.055.783.783 0 0 0 .173-.055.783.783 0 0 0 .173-.056.797.797 0 0 0 .174-.055.814.814 0 0 0 .174-.055.818.818 0 0 0 .173-.056.818.818 0 0 0 .173-.055.812.812 0 0 0 .173-.055.818.818 0 0 0 .173-.056.82.82 0 0 0 .174-.055.794.794 0 0 0 .173-.056.877.877 0 0 0 .173-.054.899.899 0 0 0 .173-.056.877.877 0 0 0 .173-.055.877.877 0 0 0 .173-.055.93.93 0 0 0 .174-.056.875.875 0 0 0 .174-.055.818.818 0 0 0 .173-.055.867.867 0 0 0 .173-.056.814.814 0 0 0 .174-.055.824.824 0 0 0 .173-.056.818.818 0 0 0 .173-.055.773.773 0 0 0 .173-.055.777.777 0 0 0 .173-.056.783.783 0 0 0 .173-.055.82.82 0 0 0 .174-.056.794.794 0 0 0 .173-.055.788.788 0 0 0 .173-.055.773.773 0 0 0 .173-.056.798.798 0 0 0 .174-.055.807.807 0 0 0 .173-.056.814.814 0 0 0 .174-.055.83.83 0 0 0 .173-.055.877.877 0 0 0 .173-.055.922.922 0 0 0 .173-.055.93.93 0 0 0 .174-.055.968.968 0 0 0 .173-.056.937.937 0 0 0 .173-.055.835.835 0 0 0 .66-.703l1.268-9.169a.834.834 0 0 0-.822-.971h-.037l-4.387.164a.807.807 0 0 0-.251.048 4.247 4.247 0 0 0-.923-.092h-.198a4.936 4.936 0 0 0-1.757.396c-.06.023-.116.047-.167.068l-.164.069-.165.068c-.05.022-.115.046-.165.068-.051.022-.115.047-.164.067-.05.021-.116.047-.165.069-.05.021-.115.046-.166.068-.05.022-.116.047-.165.067l-.164.068c-.049.022-.115.047-.165.069-.051.021-.116.046-.165.068-.05.022-.115.046-.165.067l-.165.068c-.049.022-.115.047-.165.069l-.099.04a4.375 4.375 0 0 0-1.156-.693 5.5 5.5 0 0 0-1.792-.396 7.22 7.22 0 0 0-.391-.01h-.278a6.506 6.506 0 0 0-1.519.23c.027-.188.036-.378.029-.568a2.768 2.768 0 0 0-1.008-2.054 2.974 2.974 0 0 0-1.763-.662 3.068 3.068 0 0 0-.215-.007l.005.005Z" fill="#FFDA00"/><path d="M78.74 55.163c-.665-.415-1.013-1.045-1.044-1.89 0-.07 0-.19.011-.366l2.704-.099c-.015.297.055.525.208.685.154.16.385.235.692.223.216.002.427-.065.602-.192a.568.568 0 0 0 .21-.494.71.71 0 0 0-.356-.589 6.053 6.053 0 0 0-1.097-.507c-.428-.157-.845-.34-1.25-.55a2.686 2.686 0 0 1-.864-.739 2.038 2.038 0 0 1-.398-1.208c-.037-.58.106-1.159.41-1.655.309-.48.75-.86 1.272-1.094a4.873 4.873 0 0 1 1.913-.431 4.612 4.612 0 0 1 1.746.242c.476.16.896.45 1.215.838.301.383.468.854.475 1.342.005.104.005.209 0 .313l-2.756.1a.99.99 0 0 0 .006-.184.627.627 0 0 0-.214-.482.77.77 0 0 0-.542-.157.868.868 0 0 0-.561.198.595.595 0 0 0-.198.495c.008.226.126.415.354.568.337.208.691.385 1.06.53.436.177.86.382 1.271.613.342.199.639.466.873.784.26.363.4.798.402 1.244a2.593 2.593 0 0 1-.396 1.502 2.95 2.95 0 0 1-1.228 1.08 4.703 4.703 0 0 1-1.933.444c-1.057.04-1.92-.149-2.587-.564ZM92.42 48.565c.581.494.888 1.185.921 2.072.013.262 0 .525-.036.786-.025.206-.07.409-.134.606l-4.846.181a1.681 1.681 0 0 0 0 .236c.013.33.099.571.269.721a.891.891 0 0 0 .654.212c.428-.016.759-.22.998-.612l2.716-.099c-.183.515-.47.986-.844 1.385a4.386 4.386 0 0 1-3.054 1.39c-.958.035-1.73-.198-2.315-.699-.585-.501-.895-1.209-.929-2.123a4.6 4.6 0 0 1 .048-.826 4.74 4.74 0 0 1 .754-2.023 4.226 4.226 0 0 1 1.493-1.356 4.461 4.461 0 0 1 2-.532c.956-.038 1.724.189 2.305.681Zm-1.639 2.167a.773.773 0 0 0-.284-.624 1.04 1.04 0 0 0-.687-.19 1.321 1.321 0 0 0-.826.306 1.604 1.604 0 0 0-.494.829l2.275-.084a2.03 2.03 0 0 0 .016-.237ZM106.271 47.931c.447.402.684.973.712 1.713.012.254 0 .508-.037.76l-.6 4.298-2.546.1.545-3.957c.011-.095.016-.191.016-.288a.91.91 0 0 0-.297-.692c-.183-.158-.437-.231-.759-.22a1.446 1.446 0 0 0-.884.314 1.385 1.385 0 0 0-.473.809l-.579 4.128-2.56.1.547-3.957c.016-.104.021-.21.014-.315a.88.88 0 0 0-.297-.675 1.063 1.063 0 0 0-.738-.225c-.336.001-.66.122-.916.34a1.509 1.509 0 0 0-.477.89l-.558 4.021-2.572.1 1.032-7.38 2.56-.098-.135.96c.263-.328.595-.594.971-.782.406-.2.85-.307 1.303-.316.482-.035.964.068 1.39.296.384.217.684.555.854.962.316-.414.713-.76 1.165-1.018.445-.26.947-.407 1.462-.427.792-.03 1.411.157 1.857.56ZM116.273 46.995l-1.032 7.375-2.56.099.143-1.052c-.28.346-.627.633-1.02.843a3.051 3.051 0 0 1-1.354.357c-.722.027-1.291-.156-1.708-.55-.416-.395-.637-.958-.664-1.69a4.502 4.502 0 0 1 .048-.811l.586-4.286 2.559-.099-.545 3.957a1.503 1.503 0 0 0-.027.34.986.986 0 0 0 .297.728 1.012 1.012 0 0 0 .754.24c.342-.004.669-.137.915-.374a1.72 1.72 0 0 0 .474-.96l.556-4.022 2.578-.095ZM117.498 48.624a4.058 4.058 0 0 1 1.302-1.356 3.276 3.276 0 0 1 1.648-.52c.504-.019.926.066 1.265.254.323.171.578.448.722.784l.145-1.026 2.558-.092-1.02 7.375-2.559.099.144-1.026a2.678 2.678 0 0 1-.962.846 3.04 3.04 0 0 1-1.347.352c-.766.028-1.389-.203-1.87-.693-.48-.49-.737-1.175-.769-2.057-.01-.306.005-.613.043-.917a5.289 5.289 0 0 1 .7-2.023Zm4.604 1.45c-.013-.366-.127-.645-.339-.838a1.072 1.072 0 0 0-.801-.27 1.524 1.524 0 0 0-1.016.436c-.295.277-.473.656-.534 1.138a1.858 1.858 0 0 0-.024.38c.014.366.126.645.338.837a1.072 1.072 0 0 0 .801.27 1.513 1.513 0 0 0 1.017-.442c.295-.281.472-.663.533-1.145.02-.12.029-.244.025-.366ZM135.976 48.124c-.331.37-.758.641-1.233.784.414.07.79.282 1.062.602.263.32.41.72.416 1.135.004.145-.004.29-.024.432a2.718 2.718 0 0 1-1.054 1.88c-.602.466-1.393.718-2.374.755l-4.565.176 1.286-9.267 4.414-.164c.836-.032 1.49.111 1.964.429.475.318.723.786.746 1.404.005.154-.002.307-.022.46-.06.51-.275.99-.616 1.374Zm-2.332 2.5a.608.608 0 0 0-.234-.494c-.148-.113-.361-.163-.64-.153l-1.475.055-.222 1.694 1.483-.055c.635-.024.995-.312 1.079-.865a.922.922 0 0 0 .009-.181Zm.275-3.5c-.016-.419-.298-.617-.846-.594l-1.293.048-.227 1.643 1.294-.048c.635-.024.99-.308 1.066-.851.008-.066.009-.133.005-.2l.001.001ZM140.561 46.089l-1.019 7.374-2.572.099 1.033-7.375 2.558-.098Zm-2.132-.904a.978.978 0 0 1-.375-.758 1.43 1.43 0 0 1 .198-.784 1.67 1.67 0 0 1 .605-.599c.271-.157.577-.243.89-.249.401-.015.72.076.959.272a1.01 1.01 0 0 1 .376.777c.012.274-.057.544-.198.779-.149.245-.36.448-.612.585-.27.15-.572.234-.881.242-.402.02-.723-.068-.962-.265ZM142.553 53.168a2.592 2.592 0 0 1-1.153-.735 1.788 1.788 0 0 1-.448-1.141 3.468 3.468 0 0 1 .013-.353l2.473-.092a.656.656 0 0 0 .243.553.989.989 0 0 0 .661.17c.189.001.375-.05.537-.15a.392.392 0 0 0 .203-.347c-.007-.165-.099-.29-.289-.374a7.355 7.355 0 0 0-.927-.313 10.69 10.69 0 0 1-1.245-.412 2.394 2.394 0 0 1-.867-.62c-.25-.279-.384-.645-.4-1.097a1.937 1.937 0 0 1 .341-1.187 2.533 2.533 0 0 1 1.06-.857 4.213 4.213 0 0 1 1.621-.354 4.074 4.074 0 0 1 1.73.265c.454.174.844.48 1.119.88.252.384.38.836.365 1.294l-2.299.086a.684.684 0 0 0-.229-.547c-.153-.132-.369-.191-.647-.179a.884.884 0 0 0-.495.15.394.394 0 0 0-.183.347c.006.165.104.296.297.38.313.132.633.243.961.332.421.113.834.252 1.238.417.328.139.622.346.862.608.255.286.396.656.396 1.039.028.725-.264 1.305-.876 1.739-.612.433-1.419.67-2.42.712a4.536 4.536 0 0 1-1.642-.214ZM149.204 47.44a4.066 4.066 0 0 1 1.303-1.355 3.276 3.276 0 0 1 1.648-.52c.505-.018.927.066 1.265.254.323.171.577.448.722.784l.145-1.023 2.56-.099-1.02 7.375-2.56.099.145-1.026a2.676 2.676 0 0 1-.963.847c-.415.219-.876.339-1.346.35-.766.03-1.389-.201-1.87-.692-.481-.49-.737-1.176-.77-2.057a5.62 5.62 0 0 1 .045-.917c.092-.713.329-1.4.696-2.02Zm4.605 1.45c-.014-.365-.127-.645-.339-.837a1.096 1.096 0 0 0-.801-.271c-.382.014-.744.17-1.017.437-.295.277-.472.656-.533 1.137a1.943 1.943 0 0 0-.025.381c.014.366.127.645.339.837a1.077 1.077 0 0 0 .801.27 1.507 1.507 0 0 0 1.016-.442 1.84 1.84 0 0 0 .534-1.145 1.96 1.96 0 0 0 .025-.366ZM74.055 49.99l-.916 2.65 2.154-.084-.291 2.134-2.61.099-1.007 2.925-2.255.087 1.007-2.924-3.085.122-1.007 2.926-2.255.087 1.007-2.925-2.543.1.29-2.135 3.002-.117.914-2.65-2.525.1.29-2.134 2.984-.116.99-2.857 2.254-.087-.989 2.856 3.086-.12.989-2.857 2.255-.087-.99 2.857 2.168-.084-.29 2.134-2.627.1Zm-2.255.088-3.085.12-.916 2.65 3.086-.12.915-2.65Z" fill="#fff"/></g><defs><filter id="b" x="66.991" y="18.48" width="32.086" height="31.876" filterUnits="userSpaceOnUse" color-interpolation-filters="sRGB"><feFlood flood-opacity="0" result="BackgroundImageFix"/><feColorMatrix in="SourceAlpha" values="0 0 0 0 0 0 0 0 0 0 0 0 0 0 0 0 0 0 127 0" result="hardAlpha"/><feOffset dx=".198" dy=".198"/><feGaussianBlur stdDeviation=".396"/><feColorMatrix values="0 0 0 0 0 0 0 0 0 0 0 0 0 0 0 0 0 0 0.25 0"/><feBlend in2="BackgroundImageFix" result="effect1_dropShadow_1083_5518"/><feBlend in="SourceGraphic" in2="effect1_dropShadow_1083_5518" result="shape"/></filter><filter id="c" x="68.988" y="20.463" width="28.092" height="27.909" filterUnits="userSpaceOnUse" color-interpolation-filters="sRGB"><feFlood flood-opacity="0" result="BackgroundImageFix"/><feColorMatrix in="SourceAlpha" values="0 0 0 0 0 0 0 0 0 0 0 0 0 0 0 0 0 0 127 0" result="hardAlpha"/><feOffset dx=".198" dy=".198"/><feGaussianBlur stdDeviation=".396"/><feColorMatrix values="0 0 0 0 0 0 0 0 0 0 0 0 0 0 0 0 0 0 0.25 0"/><feBlend in2="BackgroundImageFix" result="effect1_dropShadow_1083_5518"/><feBlend in="SourceGraphic" in2="effect1_dropShadow_1083_5518" result="shape"/></filter><clipPath id="a"><path fill="#fff" transform="translate(58.278 19.074)" d="M0 0h100.444v69.853H0z"/></clipPath></defs></svg>