<svg xmlns="http://www.w3.org/2000/svg" width="217" height="108" fill="none"><g fill="#1C1C1C" clip-path="url(#a)"><path d="M157.323 24.237v59.526H59.677V24.237h97.646Zm-1.695 58.018V25.932h-94.12v56.323h94.12Z"/><path d="M71.236 39.067v9.95h-2.763v-17.12h2.881l6.509 13.205L84.1 31.846h2.916v17.17h-2.678v-9.73l-.39-.1-4.678 9.88h-2.78L71.54 39.05l-.304.017ZM116.779 41.695 121.322 49h-3.39l-3.78-6.017c-.644-1.017-.661-1.017-2.271-.966v7.05H109v-10h2.362L109 34.61V32s4.787-.153 7.135 0a4.438 4.438 0 0 1 4.322 4.101 4.76 4.76 0 0 1-2.949 5.204c-.203.152-.356.22-.729.39Zm-3.916-6.78L115.118 39l.712-.22s.474-.178.738-.32c.263-.143.492-.296.651-.5.159-.203.205-.334.27-.584.064-.25.077-.511.036-.766-.054-.472-.126-.982-.555-1.306-.39-.294-.6-.39-1.377-.39h-2.73ZM103.745 76.187H92.389V59h11.356v2.797H95.27v4.271h6.984v2.898H95.27v4.289h8.475v2.932ZM101.593 31.83h2.762c.085.42.142.844.17 1.271V43.17a5.489 5.489 0 0 1-4 5.83 7.22 7.22 0 0 1-7.899-2.033 5.085 5.085 0 0 1-1.05-2.543c-.102-4.152 0-8.305 0-12.56h2.915v10.763c0 2.577 1.237 3.814 3.644 3.764a3.39 3.39 0 0 0 3.542-3.712c-.203-3.526-.084-7.085-.084-10.848ZM115.712 71.475h2.661a2.577 2.577 0 0 0 2.763 2.051 2.392 2.392 0 0 0 2.322-1.83 2.135 2.135 0 0 0-1.492-2.356 9.369 9.369 0 0 0-1.966-.373 4.845 4.845 0 0 1-4.39-4.73 5.407 5.407 0 0 1 10.78-.66h-2.78a2.644 2.644 0 0 0-2.915-1.966 2.238 2.238 0 0 0-2.17 2.22 2.035 2.035 0 0 0 1.848 2.237c.661.136 1.339.136 1.983.288a4.911 4.911 0 0 1 3.967 3.906c.126.647.12 1.314-.018 1.959a5.29 5.29 0 0 1-5.525 4.322 4.904 4.904 0 0 1-3.637-1.432 4.9 4.9 0 0 1-1.431-3.636ZM126.474 47.17l-.695 1.864h-3.22l6.898-17.814 6.95 17.83h-3.068l-.983-1.88h-5.882Zm5.085-2.611-2.136-5.78-1.949 5.797 4.085-.017ZM68.473 58.915h11.44v2.848h-8.372V66h6.966v2.933H71.32v7.203h-2.847v-17.22ZM137.847 58.95h9.967v2.677h-3.492v14.526h-2.881V61.678h-3.594v-2.729ZM138.78 49.05V31.88h2.881v14.391h6.356v2.848l-9.237-.068Z"/></g><defs><clipPath id="a"><path fill="#fff" d="M59.677 24.237h97.646v59.527H59.677z"/></clipPath></defs></svg>