<svg width="217" height="108" fill="none" xmlns="http://www.w3.org/2000/svg"><g clip-path="url(#a)"><path d="M86.928 53.778c-.024.59-.035 1.18-.073 1.767-.1 1.56-.324 3.1-.849 4.582-.342.967-.81 1.863-1.476 2.65-.825.977-1.858 1.651-3.048 2.097a11.79 11.79 0 0 1-2.542.618c-1.185.163-2.376.204-3.57.179a18.947 18.947 0 0 1-2.914-.265c-1.005-.179-1.978-.46-2.89-.927-1.549-.792-2.63-2.019-3.337-3.593-.44-.983-.715-2.016-.895-3.075-.294-1.724-.359-3.464-.314-5.21.03-1.193.127-2.381.351-3.557.198-1.035.489-2.041.954-2.991.882-1.804 2.288-3.014 4.173-3.68a12.33 12.33 0 0 1 2.51-.579 21.835 21.835 0 0 1 2.738-.17c.868-.005 1.735.012 2.6.098 1.081.109 2.144.303 3.174.673 1.99.717 3.401 2.047 4.248 3.983.383.874.635 1.786.807 2.722.234 1.283.33 2.58.34 3.884v.793h.013Zm-4.627.047c-.024-1.509-.038-2.736-.206-3.955a8.866 8.866 0 0 0-.403-1.739c-.421-1.19-1.231-1.95-2.456-2.27a9.382 9.382 0 0 0-1.827-.269 24.257 24.257 0 0 0-2.846 0c-.637.037-1.269.112-1.887.282-1.146.315-1.937 1.02-2.36 2.134a7.631 7.631 0 0 0-.349 1.252c-.18.92-.249 1.854-.271 2.79-.04 1.681-.055 3.363.151 5.037.084.68.216 1.351.448 1.999.44 1.218 1.275 2.002 2.533 2.338a9.075 9.075 0 0 0 1.744.272c.94.063 1.885.063 2.826 0a8.82 8.82 0 0 0 1.606-.238c.737-.19 1.4-.507 1.916-1.087.38-.428.628-.93.806-1.469.302-.908.421-1.85.48-2.797.056-.851.072-1.706.094-2.28ZM29.501 67.227a4.918 4.918 0 0 1-2.708-.819 7.113 7.113 0 0 1-1.164-.95l-5.47-5.465c-.834-.835-1.66-1.677-2.498-2.509-.782-.779-1.196-1.732-1.336-2.81-.14-1.07.02-2.096.536-3.053.26-.481.6-.903.985-1.289l4.92-4.922c.895-.898 1.78-1.806 2.682-2.698.336-.335.693-.649 1.067-.94 1.013-.782 2.17-1.068 3.44-.966 1.311.104 2.373.707 3.286 1.612.913.905 1.81 1.814 2.715 2.723.034.033.065.069.094.106a.153.153 0 0 1 0 .204 1.908 1.908 0 0 1-.15.163 9472.395 9472.395 0 0 1-6.744 6.753c-.076.077-.153.154-.236.224-.122.101-.178.092-.253-.051a2.538 2.538 0 0 1-.291-.883c-.101-.85.152-1.578.76-2.183l2.395-2.381c.054-.051.106-.106.154-.163.087-.111.085-.18-.005-.291-.041-.052-.096-.097-.143-.144-.422-.422-.85-.839-1.265-1.267-.422-.43-.972-.47-1.438-.082-.12.1-.226.215-.336.326l-6.629 6.637c-.402.403-.809.803-1.213 1.203-.305.3-.384.713-.187 1.101.076.144.174.274.29.388 1.69 1.695 3.385 3.387 5.082 5.078l2.954 2.945c.052.053.108.103.167.148.326.244.682.257 1.022.033.106-.073.205-.157.294-.25 2.746-2.74 5.492-5.481 8.236-8.224l7.213-7.203c.057-.057.118-.112.18-.163.064-.052.127-.04.179.022.03.036.057.075.081.116.355.618.618 1.272.674 1.987.108 1.369-.186 2.633-1.078 3.71-.315.381-.667.733-1.017 1.084-.588.593-1.188 1.172-1.778 1.761a4222.817 4222.817 0 0 0-4.965 4.961c-1.69 1.687-3.38 3.373-5.072 5.058-.743.741-1.646 1.153-2.678 1.294-.252.032-.502.046-.752.069Z" fill="#A2195C"/><path d="M28.352 58.212a5.252 5.252 0 0 1 .351-1.95c.269-.68.683-1.262 1.197-1.775l9.157-9.146c1.032-1.03 2.06-2.065 3.1-3.087.768-.756 1.687-1.25 2.757-1.42 1.395-.223 2.664.106 3.8.946.211.158.412.33.6.517 1.928 1.918 3.855 3.839 5.779 5.761a407.93 407.93 0 0 1 2.407 2.427c.668.675 1.142 1.462 1.343 2.398.177.826.117 1.644-.081 2.458-.185.764-.57 1.42-1.095 1.992-.33.359-.68.702-1.024 1.047l-5.776 5.795c-.541.543-1.087 1.08-1.636 1.615-.694.678-1.498 1.18-2.46 1.35-1.722.301-3.264-.107-4.539-1.33-1.023-.98-2.012-1.996-3.015-2.998-.145-.145-.146-.193-.005-.335.297-.298.597-.593.895-.89l5.511-5.51c.177-.178.352-.359.53-.538.032-.034.065-.068.1-.099.156-.133.241-.12.333.062.142.279.233.58.269.892a2.463 2.463 0 0 1-.42 1.7c-.232.347-.538.625-.831.916-.666.658-1.33 1.317-1.995 1.977-.183.182-.179.273.008.46l1.372 1.361c.048.048.097.095.15.138.346.28.722.297 1.084.04.098-.072.19-.153.275-.24a936.1 936.1 0 0 0 1.945-1.94l4.004-3.996c.651-.652 1.31-1.299 1.958-1.954.137-.14.256-.297.355-.467a.861.861 0 0 0-.015-.928 2.937 2.937 0 0 0-.382-.471c-.238-.25-.488-.491-.735-.733-.492-.476-.991-.945-1.481-1.424a1142.149 1142.149 0 0 1-3.366-3.31c-.757-.748-1.509-1.503-2.262-2.256-.207-.207-.442-.357-.744-.374-.326-.019-.594.116-.821.337-.244.238-.48.48-.72.72l-5.957 5.956c-.849.848-1.7 1.694-2.553 2.538-.236.232-.502.435-.744.663-.215.194-.419.403-.608.624-.452.553-.962 1.05-1.469 1.55-.676.666-1.343 1.34-2.015 2.012l-1.422 1.425-.043.043c-.176.163-.262.155-.375-.054-.304-.563-.556-1.148-.644-1.787-.033-.233-.032-.471-.047-.708ZM137.386 46.312c-.727-.244-1.457-.391-2.194-.503a18.181 18.181 0 0 0-3.669-.204c-.582.03-1.163.082-1.742.145a5.447 5.447 0 0 0-1.261.308c-.968.35-1.664.995-2.103 1.923-.289.61-.458 1.258-.57 1.922-.184 1.079-.246 2.168-.244 3.261 0 .739.01 1.479.05 2.216.057 1.059.187 2.106.522 3.118.168.505.392.982.711 1.41.554.746 1.313 1.178 2.192 1.425.562.157 1.14.25 1.722.278.733.035 1.465.068 2.196.044 1.46-.047 2.903-.234 4.303-.678a.7.7 0 0 1 .095-.014l.19.768.723 2.94c.044.181.045.19-.132.227-.696.145-1.39.3-2.09.42-.977.161-1.962.267-2.951.318a23.79 23.79 0 0 1-3.028-.014 15.303 15.303 0 0 1-2.571-.378c-1.124-.273-2.177-.705-3.107-1.406-1.086-.817-1.838-1.887-2.361-3.128-.397-.94-.651-1.923-.816-2.93-.33-1.994-.373-4.007-.274-6.023.061-1.254.208-2.499.516-3.72.244-.963.585-1.888 1.103-2.741.864-1.42 2.107-2.366 3.659-2.923.807-.29 1.64-.466 2.488-.58.963-.131 1.932-.173 2.901-.177 1.092.001 2.182.072 3.265.212 1.077.127 2.145.32 3.197.581.25.064.25.064.187.316l-.85 3.39c-.017.06-.035.117-.057.197ZM196.62 58.207v-9.923c0-.294-.041-.253.263-.253 1.193-.002 2.387-.002 3.581 0h.061c.213 0 .199-.014.199.197V64.77c.003.061-.03.085-.086.086h-.142c-1.221 0-2.442-.002-3.663.004-.155 0-.238-.04-.316-.183-1.338-2.39-2.742-4.74-4.264-7.018a50.048 50.048 0 0 0-2.292-3.185.6.6 0 0 0-.175-.16v10.283c0 .29.045.258-.259.259h-3.622c-.271 0-.226.006-.226-.233V48.184c.003-.151.003-.154.16-.154 1.248 0 2.496 0 3.744-.004.113 0 .171.047.232.126 1.305 1.7 2.566 3.431 3.762 5.21a69.078 69.078 0 0 1 2.943 4.752c.02.035.041.067.064.101l.036-.007ZM140.905 56.44V48.3c0-.054.003-.108 0-.162-.005-.076.023-.115.104-.11.041.004.081 0 .122 0h3.682c.212 0 .196-.011.196.201v5.698c0 .285 0 .285.292.285h6.064c.273 0 .24.03.24-.236V48.26c0-.26-.025-.23.227-.23h3.642c.034 0 .068.004.102 0 .092-.008.143.021.132.123a1.69 1.69 0 0 0 0 .142v16.298c0 .285.043.263-.257.263h-3.56c-.334 0-.285.041-.285-.273v-6.593c0-.047-.004-.095 0-.142.008-.093-.021-.144-.122-.132a1.034 1.034 0 0 1-.122 0h-6.125c-.25 0-.226-.036-.226.228v6.756c-.003.152-.003.155-.159.155h-3.785c-.158 0-.16-.003-.16-.175v-2.523l-.002-5.716ZM176.482 64.859h-.211c-1.295 0-2.59-.003-3.885.003-.151 0-.223-.044-.285-.186-.515-1.21-.965-2.442-1.404-3.682-.076-.215-.017-.197-.28-.197h-6.61a.357.357 0 0 1-.062 0c-.116-.02-.164.033-.197.144-.218.74-.448 1.477-.664 2.218-.152.52-.298 1.04-.437 1.565-.028.108-.076.137-.181.137-1.309-.003-2.618 0-3.926-.002-.166 0-.17-.005-.116-.177.348-1.119.682-2.241 1.05-3.353 1.249-3.782 2.645-7.51 4.11-11.212.255-.643.517-1.282.77-1.925.045-.116.102-.163.234-.163 2.014.005 4.028.006 6.042.004.17 0 .17 0 .224.183a202.24 202.24 0 0 0 3.212 9.911c.79 2.228 1.62 4.44 2.564 6.608.017.028.028.058.052.124Zm-6.883-7.077-.072-.228c-.438-1.373-.881-2.744-1.314-4.118-.201-.64-.382-1.284-.572-1.926-.049-.165-.049-.165-.219-.167h-.305c-.253 0-.203-.02-.29.192-.802 1.984-1.515 3.999-2.196 6.026-.081.245-.068.221.152.221h4.816Z" fill="#383837"/><path d="M89.459 56.398v-8.261c.003-.15.004-.151.16-.154h12.737c.294 0 .254-.04.255.262v2.828c0 .048-.003.095 0 .142.004.077-.027.114-.106.109-.054-.004-.109 0-.163 0h-8.525c-.287 0-.256-.041-.256.262v3.52c.002.174.002.176.18.176h6.552c.204 0 .206-.024.206.192V58.404c0 .059-.027.086-.086.085-.059-.002-.108 0-.163 0h-6.511c-.175.002-.177.002-.177.18v5.962c0 .166-.002.169-.166.17H89.63c-.17 0-.17-.003-.17-.184v-8.22l-.002.001ZM105.128 56.394v-8.16c0-.285-.035-.249.248-.249h12.657c.285 0 .247-.034.248.249V51.184c-.005.138-.005.139-.153.142h-8.648c-.277 0-.249-.039-.249.248v3.46c0 .047.003.095 0 .142-.005.076.025.113.105.108.054-.002.108 0 .163 0h6.49c.176.003.178.003.178.18v2.848c0 .201.003.18-.194.18h-6.491c-.276 0-.251-.04-.251.247v5.82c0 .266.033.244-.235.244h-3.784c-.06 0-.084-.03-.082-.087.003-.058 0-.109 0-.163l-.002-8.16Z" fill="#A2195C"/><path d="M178.964 56.429v-8.157c0-.272-.032-.242.235-.242h3.641c.041 0 .081.003.122 0 .079-.005.111.03.106.108-.003.047 0 .095 0 .142v16.334c0 .254.047.244-.235.244h-3.643c-.04 0-.081-.002-.122 0-.078.004-.111-.03-.106-.109.004-.053 0-.108 0-.162l.002-8.158Z" fill="#383837"/></g><defs><clipPath id="a"><path fill="#fff" transform="translate(16.276 40.765)" d="M0 0h184.448v26.47H0z"/></clipPath></defs></svg>