<svg width="217" height="108" fill="none" xmlns="http://www.w3.org/2000/svg"><g clip-path="url(#a)"><path d="m43.574 36.633 2.196-4.628h29.985l7.002 7.003v.18l-4.573 1.311-5.403-1.312H48.744l-2.794 2.794-2.377-5.348Z" fill="url(#b)"/><path d="M45.95 66.019V32.005h-.18l-7.002 7.003v29.985l7.002 7.002h.18v-9.976Z" fill="url(#c)"/><path d="m75.575 63.725.593-3.697-.593-6.279-2.794 2.794H62.622v7.182h12.953Z" fill="url(#d)"/><path d="M82.757 56.723V39.187H72.78l2.794 2.794v21.744h.18l7.002-7.002Z" fill="url(#e)"/><path d="m63.667 75.995 7.002-7.002v-.18H58.93L57.77 67.65l-7.183 1.162v1.812l5.37 5.37h7.71Z" fill="url(#f)"/><path d="M57.77 67.651V52.618l1.161-1.16-2.898-1.72-5.446 1.72v19.167l5.37 5.37h1.813V67.65Z" fill="url(#g)"/><path d="M71.067 51.457v-7.182h-15.11l-5.37 5.369v1.813H71.067Z" fill="url(#h)"/><path d="M100.14 42.605c0 2.84-2.127 4.575-5.594 4.575h-2.162v3.413H89.31v-12.51h5.254c3.467 0 5.575 1.716 5.575 4.522h.001Zm-5.665 2.073c1.626 0 2.573-.68 2.573-2.038 0-1.358-.947-2.001-2.573-2.001h-2.091v4.038h2.09ZM105.035 48.055h7.345v2.538h-10.365v-12.51h10.186v2.538h-7.166v2.36h6.344v2.412h-6.344v2.662ZM113.221 49.7l.911-2.503c.965.643 1.93.947 2.77.947 1.251 0 2.144-.733 2.144-2.287v-5.254h-2.162v-2.52h5.182v7.988c0 3.074-2.234 4.754-4.932 4.754-1.269 0-2.663-.375-3.914-1.126h.001ZM124.175 45.267v-7.183h3.091v7.183c0 1.912 1.001 2.949 2.681 2.949 1.679 0 2.734-1.037 2.734-2.949v-7.183h3.055v7.183c0 3.414-2.215 5.54-5.789 5.54s-5.772-2.126-5.772-5.54ZM146.923 50.593l-.822-2.055h-6.004l-.822 2.055h-3.181l5.182-12.51h3.682l5.2 12.51h-3.235Zm-5.861-4.414h4.092l-2.037-5.111-2.055 5.11ZM151.676 50.593v-12.51h2.841l6.237 7.631v-7.63h3.073v12.509h-2.752l-6.326-7.756v7.756h-3.073ZM174.067 43.784h4.164l-.018 5.379c-1.447.947-3.377 1.644-5.343 1.644-3.949 0-6.808-2.716-6.808-6.451 0-4.092 3.27-6.487 6.969-6.487 1.573 0 3.199.411 4.7 1.323l-1.198 2.394c-1.143-.715-2.358-1.054-3.466-1.054-2.145 0-3.86 1.34-3.86 3.824 0 2.34 1.501 3.806 3.788 3.806 1.215 0 1.733-.232 2.305-.536v-1.573h-1.233v-2.27.001ZM88.828 61.91c0-4.02 2.912-6.468 6.701-6.468 1.626 0 3.252.483 4.825 1.555l-1.305 2.323c-1.143-.822-2.251-1.215-3.377-1.215-2.09 0-3.7 1.394-3.7 3.788 0 2.395 1.627 3.806 3.736 3.806 1.126 0 2.234-.375 3.395-1.197l1.287 2.323c-1.537 1.072-3.11 1.573-4.736 1.573-3.806 0-6.826-2.538-6.826-6.487ZM109.932 68.165l-2.931-3.86h-1.679v3.86h-3.074V55.656h5.432c3.467 0 5.558 1.608 5.558 4.343 0 1.947-1.054 3.305-2.913 3.931l3.181 4.235h-3.574Zm-4.61-9.953v3.627h2.269c1.626 0 2.573-.5 2.573-1.787s-.947-1.84-2.573-1.84h-2.269ZM126.355 55.657l-5.022 8.238v4.27h-3.091v-4.324l-5.022-8.185h3.342l3.235 5.683 3.216-5.683h3.342ZM138.614 60.178c0 2.84-2.127 4.574-5.593 4.574h-2.163v3.413h-3.074V55.656h5.254c3.467 0 5.576 1.716 5.576 4.521Zm-5.665 2.072c1.626 0 2.573-.679 2.573-2.037 0-1.358-.947-2.001-2.573-2.001h-2.091v4.038h2.091ZM150.462 55.656v2.627h-4.021v9.883h-3.092v-9.883h-3.985v-2.627h11.098ZM151.087 61.91c0-3.752 2.841-6.468 6.773-6.468 3.931 0 6.755 2.698 6.755 6.469 0 3.77-2.842 6.469-6.773 6.469-3.932 0-6.755-2.698-6.755-6.47Zm10.329 0c0-2.269-1.465-3.788-3.556-3.788s-3.574 1.52-3.574 3.789c0 2.27 1.465 3.788 3.574 3.788s3.556-1.519 3.556-3.788Z" fill="#000"/></g><defs><linearGradient id="b" x1="44.136" y1="33.867" x2="82.038" y2="40.956" gradientUnits="userSpaceOnUse"><stop stop-color="#031169"/><stop offset=".43" stop-color="#266BE3"/><stop offset="1" stop-color="#266BE3"/></linearGradient><linearGradient id="c" x1="39.039" y1="75.389" x2="46.938" y2="32.832" gradientUnits="userSpaceOnUse"><stop stop-color="#031169"/><stop offset=".43" stop-color="#266BE3"/><stop offset="1" stop-color="#266BE3"/></linearGradient><linearGradient id="d" x1="76.165" y1="58.906" x2="62.625" y2="58.583" gradientUnits="userSpaceOnUse"><stop stop-color="#031169"/><stop offset=".43" stop-color="#266BE3"/><stop offset="1" stop-color="#266BE3"/></linearGradient><linearGradient id="e" x1="77.769" y1="39.186" x2="78.71" y2="63.691" gradientUnits="userSpaceOnUse"><stop stop-color="#031169"/><stop offset=".43" stop-color="#266BE3"/><stop offset="1" stop-color="#266BE3"/></linearGradient><linearGradient id="f" x1="50.616" y1="71.367" x2="70.604" y2="72.825" gradientUnits="userSpaceOnUse"><stop stop-color="#FC6C00"/><stop offset="1" stop-color="#FCB100"/></linearGradient><linearGradient id="g" x1="50.584" y1="51.459" x2="60.291" y2="73.736" gradientUnits="userSpaceOnUse"><stop stop-color="#FC6900"/><stop offset="1" stop-color="#FCB100"/></linearGradient><linearGradient id="h" x1="70.84" y1="49.423" x2="50.814" y2="46.309" gradientUnits="userSpaceOnUse"><stop stop-color="#FC6C00"/><stop offset=".53" stop-color="#FCB100"/><stop offset="1" stop-color="#FCB100"/></linearGradient><clipPath id="a"><path fill="#fff" transform="translate(38.768 32.005)" d="M0 0h139.464v43.989H0z"/></clipPath></defs></svg>