<svg width="217" height="107" viewBox="0 0 217 107" fill="none" xmlns="http://www.w3.org/2000/svg">
<g clip-path="url(#clip0_1628_2701)">
<path d="M85.4729 70.4305V69.0931L91.2075 64.2312C91.9855 63.5665 92.622 62.9618 93.117 62.4179C93.6119 61.8738 93.9766 61.3224 94.2107 60.7631C94.4448 60.204 94.562 59.5809 94.562 58.8931C94.562 58.1453 94.4317 57.5163 94.1712 57.0062C93.9104 56.4961 93.5345 56.1128 93.0434 55.8558C92.5523 55.5991 91.9515 55.4706 91.2414 55.4706C90.4254 55.4706 89.7663 55.6312 89.2639 55.9522C88.7613 56.2735 88.3872 56.7059 88.1418 57.2498C87.8961 57.794 87.7509 58.4059 87.7055 59.086L85.5296 58.4172C85.5748 57.6919 85.8374 56.978 86.3172 56.2753C86.7969 55.5727 87.4563 54.9908 88.2948 54.53C89.1334 54.0692 90.1118 53.8386 91.2301 53.8386C91.8648 53.8386 92.5031 53.9292 93.1455 54.1107C93.7876 54.292 94.3787 54.581 94.919 54.9775C95.4591 55.3742 95.8938 55.892 96.2225 56.5302C96.551 57.1688 96.7154 57.9412 96.7154 58.848C96.7154 60.1399 96.3641 61.2942 95.6614 62.3102C94.9587 63.3265 93.9766 64.3446 92.7149 65.3645L88.2836 68.9572L86.8441 68.6851H97.0329V70.4305H85.4729Z" fill="#231F20"/>
<path d="M102.099 70.4306V57.4313C101.502 57.9452 100.943 58.3778 100.421 58.7291C99.9 59.0804 99.3182 59.3769 98.676 59.6187V57.6921C99.0084 57.5333 99.3597 57.3351 99.73 57.0971C100.1 56.8591 100.521 56.5078 100.994 56.0431C101.466 55.5785 102.012 54.9343 102.631 54.1108H104.093V70.4306L102.099 70.4306Z" fill="#231F20"/>
<path d="M92.0913 51.1098C90.837 51.1098 89.7433 50.9003 88.8103 50.481C87.8772 50.0617 87.1235 49.4534 86.5493 48.6564C85.9751 47.8593 85.5933 46.8979 85.4045 45.7721L87.83 45.2731C87.8828 46.6107 88.272 47.6383 88.9973 48.3561C89.7225 49.0739 90.7349 49.4326 92.0346 49.4326C92.8203 49.4326 93.4871 49.3044 94.0348 49.0474C94.5826 48.7905 95.0019 48.4279 95.2929 47.9591C95.5838 47.4908 95.7292 46.9393 95.7292 46.3046C95.7292 45.4585 95.4855 44.8297 94.9983 44.4177C94.5108 44.006 93.8441 43.7057 92.9978 43.5165L90.8673 43.0406C90.4744 42.95 90.019 42.8254 89.5017 42.6667C88.984 42.5082 88.4834 42.2738 88 41.964C87.5164 41.6542 87.114 41.2349 86.7929 40.7059C86.4719 40.1771 86.3113 39.5011 86.3113 38.6774C86.3113 37.6273 86.5814 36.7772 87.1217 36.1274C87.6618 35.4776 88.3644 35.0016 89.2297 34.6995C90.0947 34.3974 91.0145 34.2461 91.9892 34.2461C93.115 34.2461 94.0803 34.4256 94.885 34.7844C95.6897 35.1434 96.3393 35.6514 96.8342 36.3087C97.3289 36.966 97.6633 37.7519 97.8372 38.6661L95.4458 39.1647C95.3853 38.4697 95.2153 37.8822 94.936 37.4024C94.6562 36.9226 94.2634 36.5563 93.7572 36.303C93.2509 36.0501 92.6201 35.9232 91.8646 35.9232C91.2527 35.9232 90.6804 36.014 90.1477 36.1955C89.6151 36.3766 89.1825 36.66 88.8499 37.0454C88.5175 37.4306 88.3514 37.9332 88.3514 38.5528C88.3514 39.2026 88.576 39.7219 89.0256 40.1111C89.4751 40.5002 90.2249 40.8156 91.2753 41.0572L93.4287 41.556C94.1916 41.7298 94.9132 41.9906 95.5933 42.3379C96.2734 42.6856 96.8248 43.171 97.2479 43.7942C97.671 44.4176 97.8826 45.2392 97.8826 46.2593C97.8826 47.2795 97.6502 48.1519 97.1856 48.8771C96.7209 49.6026 96.056 50.156 95.1909 50.5376C94.3257 50.9189 93.2925 51.1098 92.0913 51.1098Z" fill="#231F20"/>
<path d="M99.1633 50.8379L106.054 34.5179H108.094L114.962 50.8379H112.786L107.074 36.6487L101.339 50.8379H99.1633ZM102.699 45.4886V43.8114H111.426V45.4886H102.699Z" fill="#231F20"/>
<path d="M119.019 50.8378V36.1954H113.183V34.5178H126.918V36.1954H121.059V50.8378H119.019Z" fill="#231F20"/>
<path d="M135.294 51.1098C133.669 51.1098 132.266 50.7682 131.083 50.0843C129.901 49.4006 128.99 48.4279 128.352 47.1659C127.714 45.9042 127.395 44.4084 127.395 42.6779C127.395 40.9403 127.714 39.4424 128.352 38.1843C128.99 36.9264 129.901 35.9558 131.083 35.2716C132.266 34.5879 133.669 34.2461 135.294 34.2461C136.918 34.2461 138.322 34.5879 139.504 35.2716C140.687 35.9558 141.597 36.9264 142.235 38.1843C142.874 39.4424 143.193 40.9403 143.193 42.6779C143.193 44.4084 142.874 45.9042 142.235 47.1659C141.597 48.4279 140.687 49.4005 139.504 50.0843C138.322 50.7682 136.918 51.1098 135.294 51.1098ZM135.294 49.4326C136.465 49.4326 137.475 49.159 138.325 48.611C139.175 48.0632 139.831 47.2831 140.292 46.2707C140.752 45.2582 140.983 44.0606 140.983 42.6779C140.983 41.288 140.752 40.0883 140.292 39.0797C139.831 38.0709 139.175 37.2929 138.325 36.7451C137.475 36.1973 136.465 35.9232 135.294 35.9232C134.13 35.9232 133.121 36.1973 132.268 36.7451C131.414 37.2928 130.757 38.0709 130.296 39.0797C129.835 40.0883 129.605 41.288 129.605 42.6779C129.605 44.0606 129.835 45.2582 130.296 46.2707C130.757 47.2831 131.414 48.0632 132.268 48.611C133.121 49.159 134.13 49.4326 135.294 49.4326Z" fill="#231F20"/>
<path d="M151.738 51.1098C150.484 51.1098 149.39 50.9003 148.457 50.481C147.524 50.0617 146.77 49.4534 146.196 48.6564C145.622 47.8593 145.24 46.8979 145.051 45.7721L147.477 45.2731C147.53 46.6107 147.919 47.6383 148.644 48.3561C149.369 49.0739 150.382 49.4326 151.681 49.4326C152.467 49.4326 153.134 49.3044 153.682 49.0474C154.229 48.7905 154.649 48.4279 154.94 47.9591C155.23 47.4908 155.376 46.9393 155.376 46.3046C155.376 45.4585 155.132 44.8297 154.645 44.4177C154.158 44.006 153.491 43.7057 152.645 43.5165L150.514 43.0406C150.121 42.95 149.666 42.8254 149.148 42.6667C148.631 42.5082 148.13 42.2738 147.647 41.964C147.163 41.6542 146.761 41.2349 146.44 40.7059C146.119 40.1771 145.958 39.5011 145.958 38.6774C145.958 37.6273 146.228 36.7772 146.768 36.1274C147.309 35.4776 148.011 35.0016 148.876 34.6995C149.741 34.3974 150.661 34.2461 151.636 34.2461C152.762 34.2461 153.727 34.4256 154.532 34.7844C155.336 35.1434 155.986 35.6514 156.481 36.3087C156.976 36.966 157.31 37.7519 157.484 38.6661L155.093 39.1647C155.032 38.4697 154.862 37.8822 154.583 37.4024C154.303 36.9226 153.91 36.5563 153.404 36.303C152.898 36.0501 152.267 35.9232 151.511 35.9232C150.899 35.9232 150.327 36.014 149.794 36.1955C149.262 36.3766 148.829 36.66 148.497 37.0454C148.164 37.4306 147.998 37.9332 147.998 38.5528C147.998 39.2026 148.223 39.7219 148.672 40.1111C149.122 40.5002 149.872 40.8156 150.922 41.0572L153.075 41.556C153.838 41.7298 154.56 41.9906 155.24 42.3379C155.92 42.6856 156.471 43.171 156.895 43.7942C157.318 44.4176 157.529 45.2392 157.529 46.2593C157.529 47.2795 157.297 48.1519 156.832 48.8771C156.368 49.6026 155.703 50.156 154.838 50.5376C153.972 50.9189 152.939 51.1098 151.738 51.1098Z" fill="#231F20"/>
<path d="M160.533 50.8379V34.5179H162.573V41.5673H171.481V34.5179H173.521V50.8379H171.481V43.2447H162.573V50.8379H160.533Z" fill="#231F20"/>
<path d="M176.354 50.8379V49.2513H178.519V36.1048H176.354V34.5179H182.723V36.1048H180.559V49.2513H182.723V50.838L176.354 50.8379Z" fill="#231F20"/>
<path d="M43.2753 52.2032C37.7985 52.2032 33.3586 47.7634 33.3586 42.2865C33.3586 36.8097 37.7985 32.3699 43.2753 32.3699" fill="#FF4C0D"/>
<path d="M64.6625 52.2032C70.1393 52.2032 74.5792 47.7633 74.5792 42.2865C74.5792 36.8097 70.1393 32.3699 64.6625 32.3699C59.1857 32.3699 54.7458 36.8097 54.7458 42.2865C54.7458 47.7633 59.1857 52.2032 64.6625 52.2032Z" fill="#FF4C0D"/>
<path d="M43.2754 52.2032C48.7522 52.2032 53.192 56.6431 53.192 62.1199C53.192 67.5967 48.7522 72.0366 43.2754 72.0366" fill="#FF4C0D"/>
<path d="M64.6625 72.0364C70.1393 72.0364 74.5792 67.5966 74.5792 62.1198C74.5792 56.643 70.1393 52.2031 64.6625 52.2031C59.1857 52.2031 54.7458 56.643 54.7458 62.1198C54.7458 67.5966 59.1857 72.0364 64.6625 72.0364Z" fill="#FF4C0D"/>
<path d="M80.7649 32.3093H76.1033V72.0365H80.7649V32.3093Z" fill="#FF4C0D"/>
</g>
<defs>
<clipPath id="clip0_1628_2701">
<rect width="150.283" height="44.8543" fill="white" transform="translate(33.3586 31.0729)"/>
</clipPath>
</defs>
</svg>
