<svg width="217" height="108" fill="none" xmlns="http://www.w3.org/2000/svg"><g clip-path="url(#a)" fill="#0B0A0A"><path d="M92.354 25.784c1.124.073 2.227.112 3.324.385a1.226 1.226 0 0 1 .982 1.124c.066.497.082 1 .048 1.502a20.32 20.32 0 0 0 .144 3.92c.11.752.345 1.48.697 2.153.202.39.461.74.933.753.471.012.791-.33 1.012-.727a4.987 4.987 0 0 0 .557-2.291c.032-1.067 0-2.136.012-3.203a16.839 16.839 0 0 1 .091-2.52c.02-.128.034-.258.065-.383.113-.472.297-.648.775-.638a9.019 9.019 0 0 1 1.976.203c.678.168.951.522.971 1.259a55.432 55.432 0 0 1-.028 4.077 334.92 334.92 0 0 1-.259 4.703 20.63 20.63 0 0 1-.269 2.311 7.482 7.482 0 0 1-.494 1.567 1.993 1.993 0 0 1-1.735 1.288 25.181 25.181 0 0 1-3.537.182c-.749-.022-.733-.02-.783.715-.081 1.176-.111 2.36-.358 3.52a2.988 2.988 0 0 1-1.144 1.856.5.5 0 0 0-.261.474c.067.838.095 1.68.22 2.512.03.176.068.35.118.52a.903.903 0 0 0 .828.705c.257.028.518.043.773.083.255.04.38-.055.425-.316.12-.684.261-1.364.387-2.048.405-2.18.931-4.33 1.474-6.478.032-.126.078-.247.119-.37a.919.919 0 0 1 .885-.701c1.081-.07 2.16-.18 3.239-.17a1.462 1.462 0 0 1 1.451 1.012c.371.92.563 1.889.782 2.848.585 2.571 1.147 5.144 1.609 7.74.046.287.073.577.079.868a.77.77 0 0 1-.482.773c-.16.077-.327.137-.5.178a8.91 8.91 0 0 1-1.587.203c-.375.016-.466-.049-.607-.42a9.197 9.197 0 0 1-.34-1.416c-.179-.81-.337-1.62-.517-2.418-.127-.568-.178-.597-.747-.607-.569-.01-1.101.01-1.652 0-.245 0-.404.053-.439.32-.048.298-.18.583-.174.927.312.02.607.03.917.065.364.042.454.125.486.484.08.806.041 1.62-.117 2.415-.116.548-.422.88-1.013.951a24.7 24.7 0 0 1-2.564.172c-1.013.015-2.037.1-3.055 0a6.325 6.325 0 0 1-1.751-.364 1.74 1.74 0 0 1-1.142-1.336 17.003 17.003 0 0 1-.267-2.164c-.087-.984-.148-1.97-.221-2.954-.03-.405-.037-.42-.423-.405-1.778.104-3.56.115-5.338.033-1.316-.049-1.713-.33-2.063-1.602a7.227 7.227 0 0 1-.233-2.47c.059-.775.458-1.214 1.215-1.348.686-.127 1.386-.109 2.079-.171.434-.041.87-.078 1.305-.11a1.432 1.432 0 0 0 1.197-.795 2.79 2.79 0 0 0 .314-1.644.72.72 0 0 0-.592-.68 4.05 4.05 0 0 0-1.352-.051c-1.502.126-3.002.217-4.508.053a9.227 9.227 0 0 1-1.944-.405 2.07 2.07 0 0 1-1.323-1.26 7.466 7.466 0 0 1-.45-1.882c-.218-1.854-.166-3.713-.07-5.573.045-.905.158-1.805.337-2.693a3.66 3.66 0 0 1 2.156-2.749 12.286 12.286 0 0 1 3.442-.965 31.51 31.51 0 0 1 5.421-.308c.5.014.526.028.528.522.008 1.393.008 2.785 0 4.177 0 .506-.079.595-.573.645-1.27.13-2.544.25-3.816.379a20.73 20.73 0 0 0-1.058.131c-.632.098-.86.312-1.002.946a4.698 4.698 0 0 0-.093.672c-.051.646-.122 1.291-.134 1.937-.024 1.15.524 1.806 1.646 2.059.704.16 1.417.087 2.127.105 1.037.025 2.071-.069 3.104-.137.463-.03.467-.035.474-.52.022-2.041.026-4.08.066-6.118.018-.938.103-1.875.16-2.81.017-.07.038-.14.065-.207Zm4.393 13.799c0-.37.022-.743 0-1.114-.05-.69-.037-1.389-.257-2.06-.235-.72-.575-.997-1.326-1.062-.91-.078-1.804.096-2.707.14-.212.01-.255.144-.253.33a19.471 19.471 0 0 0 .223 2.992 2.369 2.369 0 0 0 1.555 1.946 9.975 9.975 0 0 0 2.453.524c.229.026.33-.055.328-.29-.022-.47-.016-.937-.016-1.406Zm-1.859 7.735c-.097-1.393-.19-2.764-.291-4.132-.028-.37-.06-.741-.123-1.107-.071-.405-.138-.474-.55-.405-.576.075-1.157.107-1.738.095-.13 0-.26 0-.387.016-.324.032-.34.053-.326.405l.255 5.713c.006.129.02.257.039.384a.163.163 0 0 0 .13.157.163.163 0 0 0 .072 0c.907-.15 1.822-.264 2.677-.636a.377.377 0 0 0 .242-.49ZM100.152 52h-2.43a.262.262 0 0 0-.299.243c-.107.587-.235 1.17-.356 1.755-.03.148 0 .257.172.284l2.01.303a.245.245 0 0 0 .312-.214c.194-.778.437-1.547.587-2.37h.004Zm-2.593-.14h1.787a4.62 4.62 0 0 0 .58-.052c.121-.017.281.02.321-.15.091-.367.249-.72.241-1.18-.54 0-1.057-.012-1.573 0-.367.01-.81-.203-1.075.03-.265.233-.202.725-.281 1.101a1.67 1.67 0 0 0-.004.251h.004Z"/><path d="M89.422 53.135c-.735.03-1.35.382-1.936.797a3.13 3.13 0 0 0-.975 1.065c-.53.984-.545 1.935.168 2.858a3.644 3.644 0 0 0 2.253 1.4c1.093.216 2.186.445 3.277.667a4.67 4.67 0 0 1 1.476.608 2.976 2.976 0 0 1 1.526 2.74v.656c.445.029.892.015 1.335-.04.856-.06 1.71-.134 2.568-.126.146 0 .29.019.436.027a.7.7 0 0 1 .686.637c.075.401.113.808.113 1.215a.433.433 0 0 1-.227.423.43.43 0 0 1-.161.049 7.393 7.393 0 0 1-1.3.148c-1.441.04-2.879-.067-4.318-.098a1.34 1.34 0 0 0-.895.278c-.978.729-2.111 1.12-3.29 1.356-.483.097-.463.217-.404.575.058.358.066.676.097 1.012.042.462.026.486-.448.535-.202.02-.386.02-.58.022a7.099 7.099 0 0 0-1.778.223c-.67.178-1.265.625-1.15 1.651.034.405.174.794.405 1.128a1.138 1.138 0 0 0 .885.524c.824.059 1.644.136 2.468.203.388.028.388.018.404-.377a6.207 6.207 0 0 1 4.575-5.593c2.114-.549 3.97-.083 5.511 1.504.32.328.32.33.722.154.843-.375 1.75-.458 2.648-.555 1.253-.136 2.513-.237 3.768-.354.431-.04.482 0 .52.415.038.306.029.616-.026.919-.156.73-.5 1.067-1.237 1.156-.417.049-.838.063-1.259.089a5.21 5.21 0 0 0-1.195.19 1.322 1.322 0 0 0-1.012 1.178 9.09 9.09 0 0 0 .178 3.23.97.97 0 0 0 .78.764c.264.068.536.1.809.096.608 0 1.229 0 1.843-.059.37-.049.745-.042 1.113.02.437.093.607.229.636.668a4.175 4.175 0 0 1-.543 2.43.854.854 0 0 1-.573.42c-1.684.365-3.374.57-5.099.24a3.273 3.273 0 0 1-2.6-2.148c-.028-.075-.068-.144-.103-.215-.202 0-.332.146-.47.247a6.098 6.098 0 0 1-3.143 1.164c-.472.042-.936-.059-1.403-.077-.312-.014-.328-.014-.344.304-.019.405-.03.81-.02 1.214a9.716 9.716 0 0 1-.203 2.227c-.213 1.059-.81 1.778-1.844 2.114-.886.257-1.797.42-2.717.486-1.5.15-3.006.109-4.512.113h-3.01c-.539 0-.717-.162-.81-.697a3.674 3.674 0 0 1-.035-.579v-2.38c0-.5.07-.58.575-.636.29-.032.581-.063.87-.075 2.086-.101 4.171-.199 6.256-.293.458-.023.464-.023.447-.464a9.696 9.696 0 0 0-.376-2.583 5.39 5.39 0 0 0-.203-.547 1.418 1.418 0 0 0-1.417-.975h-1.992c-.856 0-1.716.012-2.57-.029-1.486-.072-2.136-.708-2.256-2.188a32.466 32.466 0 0 1-.113-3.686c.017-.437.072-.87.162-1.298a2.186 2.186 0 0 1 .921-1.377 6.236 6.236 0 0 1 1.682-.85c.405-.131.798-.265 1.2-.382a.237.237 0 0 0 .193-.322c-.059-.27-.124-.537-.166-.81-.069-.43.024-.565.441-.646.207-.04.417-.061.628-.065a97.36 97.36 0 0 1 2.087-.026c.437 0 .872-.064 1.292-.188.44-.124.824-.397 1.087-.772.33-.475.267-.92-.203-1.273a4.564 4.564 0 0 0-1.968-.771 17.884 17.884 0 0 1-1.562-.346 3.315 3.315 0 0 1-1.822-1.294c-1.073-1.5-1.456-3.186-1.304-5.006a6.98 6.98 0 0 1 .265-1.43c.626-2.086 2.114-3.263 4.13-3.858a4.656 4.656 0 0 1 1.678-.202c.203.014.324.097.334.322.045 1.034.095 2.069.142 3.103a.64.64 0 0 1-.018.126Zm10.172 24.199c2.095-1.34 2.571-5.796.81-7.565a1.93 1.93 0 0 0-.682.733 4.597 4.597 0 0 0-.525 1.753c-.202 1.526-.04 3.036.225 4.538a.955.955 0 0 0 .172.54Zm-5.559 1.463c0-1.012.059-2.042-.154-3.06a1.953 1.953 0 0 0-1.305-1.5 7.272 7.272 0 0 0-2.091-.377c-.264-.018-.312.043-.28.314.261 2.172 1.367 3.719 3.41 4.559a.581.581 0 0 0 .42.064Zm-9.3-12.206c.01.81.326 1.172 1.057 1.214.66.035 1.322.06 1.982.083.483-.003.966-.036 1.445-.099.146-.012.304-.034.294-.24-.018-.355-.039-.71-.055-1.064 0-.202-.135-.269-.32-.271-.37 0-.74-.032-1.111-.022-1.11 0-2.214.133-3.292.397v.002Zm10.203-2.454-1.686.11c-.156.011-.219.099-.219.256 0 .322-.026.644-.012.966a.525.525 0 0 0 .838.405 3.283 3.283 0 0 0 1.08-1.737ZM126.315 33.81c3.342 1.449 5.619 3.78 6.68 7.22a.574.574 0 0 1-.419.168l-2.921.462c-.095.016-.202.014-.289.032-.268.053-.391-.083-.442-.322-.016-.079-.028-.16-.046-.239-.567-2.33-2.047-3.787-4.308-4.494a11.83 11.83 0 0 0-.796-.212c-.356-.083-.469-.025-.561.33-.06.267-.106.537-.137.81a15.09 15.09 0 0 1-.373 2.099c-.133.461-.309.607-.779.648-.508.038-.994-.104-1.488-.19-.202-.037-.174-.203-.174-.343 0-.794-.02-1.587 0-2.379.097-3.364.202-6.727.314-10.09.03-.904.121-1.807.166-2.712a.886.886 0 0 1 .469-.783 5.353 5.353 0 0 1 2.14-.73 7.939 7.939 0 0 1 3.037.13 4.465 4.465 0 0 1 3.397 4.126c.172 2.553-.911 4.5-2.877 6.029-.178.14-.36.27-.593.44ZM136.602 67.772c-.016 1.346 0 2.82-.13 4.287-.19 2.156-.313 4.325-.949 6.416a11.759 11.759 0 0 1-.583 1.54 5.179 5.179 0 0 1-3.176 2.873 12.293 12.293 0 0 1-3.476.607c-1.761.063-3.525.09-5.288.1-.824 0-1.65-.057-2.472-.108-.54-.032-.571-.053-.607-.597-.065-.903-.097-1.81-.14-2.715a1.354 1.354 0 0 1 .027-.336c.068-.318.17-.405.498-.405.202 0 .421.012.631.02 2.248.095 4.5-.003 6.731-.295.496-.072.987-.17 1.472-.292a4.053 4.053 0 0 0 2.537-1.892c.42-.694.692-1.468.799-2.272.165-1.057.247-2.125.245-3.194v-.292c.01-.237-.069-.36-.336-.334-.267.027-.484.01-.727.017a3.426 3.426 0 0 1-.771-.071 2.355 2.355 0 0 1-1.982-2.094c-.103-.706-.113-1.417-.16-2.127-.04-.608 0-1.231-.087-1.842-.026-.178.027-.278.221-.284a11.567 11.567 0 0 1 1.696 0 .428.428 0 0 1 .427.431c.037.336.085.675.132 1.013.083.609.262 1.201.53 1.755.239.504.565.927 1.187.935.621.008 1-.405 1.263-.911.32-.62.364-1.304.423-1.978.073-.84 0-1.682 0-2.524v-.338c0-.193.079-.306.281-.318.421-.026.841-.069 1.26-.075.368 0 .425.053.431.419.016 1.585.156 3.168.093 4.88ZM108.093 22.75c1.822 0 3.49.423 4.893 1.652.836.733 1.391 1.603 1.468 2.745.045.632.065.636.717.63 1.261-.012 2.522-.03 3.785-.04.468 0 .462.011.541.473.137.81 0 1.62-.134 2.411a.755.755 0 0 1-.706.676c-.901.142-1.806.101-2.711.13-.84.028-1.682.03-2.522.03a.608.608 0 0 0-.502.229 7.279 7.279 0 0 1-3.359 2.125c-.293.093-.583.193-.874.292a.84.84 0 0 0-.579.658 8.349 8.349 0 0 0-.164 1.346c-.047.824-.081 1.648-.112 2.472a4.636 4.636 0 0 1-.101.77 1.622 1.622 0 0 1-1.298 1.343c-.379.085-.765.13-1.153.138a.321.321 0 0 1-.389-.316c-.079-.496-.039-.996-.071-1.494-.19-2.94-.275-5.87-.332-8.824-.038-1.99-.134-3.978-.202-5.964-.025-.644.091-.82.704-1.032a10.505 10.505 0 0 1 3.101-.45Zm6.242 5.211a.347.347 0 0 0-.255-.06c-.871.032-1.743.054-2.614.107-.353.03-.704.089-1.049.174a1.248 1.248 0 0 0-.959.864 5.102 5.102 0 0 0-.275 1.468c-.025.55.052.646.587.747.062.012.127.018.19.024.903.075 1.808.067 2.713.067a.66.66 0 0 0 .607-.316 6.641 6.641 0 0 0 .935-2.008c.087-.352.197-.713.116-1.067h.004ZM111.424 41.481h4.235a.51.51 0 0 0 .551-.33 1.884 1.884 0 0 1 2.18-1.02 1.955 1.955 0 0 1 1.381 1.899c-.027.97-.632 1.767-1.559 1.895-.782.107-1.494.473-2.288.528-.595.04-1.186.152-1.777.233-.112.016-.221.05-.332.073a.38.38 0 0 0-.328.404v.535c.135 2.729.274 5.458.417 8.188.042.452.034.907-.024 1.357-.039.202-.114.382-.34.415a6.374 6.374 0 0 1-1.932.048.872.872 0 0 1-.793-.783 49.165 49.165 0 0 1-.452-3.168 125.93 125.93 0 0 1-.587-6.478c-.03-.46-.048-.466-.534-.452-.857.025-1.714.046-2.571.065-.646.014-.638.01-.713-.607a12.165 12.165 0 0 1-.067-1.454c.005-.194.03-.386.077-.575a.583.583 0 0 1 .527-.494 4.65 4.65 0 0 1 .528-.066c1.48-.025 2.943-.136 4.401-.213Zm5.942 2.227c.032-.049.06-.073.062-.1.045-.562-.069-1.119-.087-1.68a.252.252 0 0 0-.085-.195.254.254 0 0 0-.202-.064h-.626c-.206 0-.259.071-.277.245-.048.403.053.81.283 1.144.227.326.5.607.932.646v.004ZM120.408 41.383c.498 0 .948-.015 1.395 0 .777.028 1.059.244 1.32.973a33.096 33.096 0 0 1 1.609 6.381c.041.288.101.573.156.858.012.061.037.122.065.213a.725.725 0 0 0 .142-.435c.249-1.942.562-3.87.905-5.796.089-.575.219-1.142.39-1.698.162-.494.28-.561.786-.476.306.031.604.117.88.253a.873.873 0 0 1 .498.81 16.53 16.53 0 0 1-.166 2.024c-.27 2.263-.521 4.529-.755 6.796a27.22 27.22 0 0 1-.486 3.162c-.158.718-.346.88-1.079.933a9.225 9.225 0 0 1-2.024-.103c-.666-.1-1.024-.462-1.152-1.118-.241-1.253-.516-2.498-.765-3.75-.508-2.568-1.059-5.127-1.508-7.705-.083-.432-.144-.88-.211-1.322Z"/><path d="M108.412 65.01c.008.395-.012.79-.059 1.184a.463.463 0 0 1-.445.427 10.061 10.061 0 0 1-4.225-.322c-1.577-.468-2.429-1.601-2.546-3.292a9.019 9.019 0 0 1 .658-4.032c.657-1.656 1.896-2.561 3.591-2.923a3.813 3.813 0 0 1 1.061-.096c.159 0 .232.08.226.241-.024.608-.022 1.23-.079 1.843a.424.424 0 0 1-.392.417c-.223.04-.448.075-.67.113a2.438 2.438 0 0 0-2.014 1.868 2.453 2.453 0 0 0-.025.966c.267 1.792 1.366 2.304 2.935 2.296.371 0 .741-.07 1.112-.1a2.04 2.04 0 0 1 .386 0c.31.037.387.104.421.426.035.322.049.7.065.984ZM109.485 68.293a19.3 19.3 0 0 1 2.595-.192c.545.012.68.136.747.676.03.29.043.581.041.873 0 2.603-.025 5.204-.073 7.808a10.379 10.379 0 0 1-.13 1.544c-.091.539-.253.69-.789.75a3.238 3.238 0 0 1-1.575-.16 1.109 1.109 0 0 1-.76-.915 8.01 8.01 0 0 1-.078-1.258v-8.83c0-.079.012-.158.022-.296ZM121.412 57.698v-.386c0-.571 0-.565.583-.585 2.62-.084 5.239-.169 7.859-.255.202 0 .421 0 .629.02.168 0 .276.075.27.265.022.5-.005 1.003-.079 1.498a.515.515 0 0 1-.49.452c-.468.052-.938.056-1.405.064-.292 0-.583.029-.873.045a.406.406 0 0 0-.415.437c-.01.356-.042.71-.036 1.067.018 1.15-.057 2.298-.116 3.441-.014.26-.062.515-.099.77a.453.453 0 0 1-.447.429c-.484.054-.973.03-1.45-.071a.557.557 0 0 1-.473-.536c-.041-.468-.095-.934-.118-1.403-.05-1.132-.087-2.264-.129-3.395v-.203c-.016-.433-.018-.43-.44-.419-.534.014-1.068.023-1.601.029a3.171 3.171 0 0 1-.767-.106.432.432 0 0 1-.377-.439v-.729l-.026.01Z"/><path d="M107.248 58.887v-1.874c0-.486.081-.608.55-.715a4.638 4.638 0 0 1 3.956.785c.528.381.747.96.834 1.588a3.14 3.14 0 0 1-.486 2.227c-.186.28-.405.552-.607.82-.263.34-.274.341.016.633.364.366.727.735 1.109 1.083.81.73 1.62 1.447 2.429 2.17.086.075.171.148.252.227.139.138.125.253-.055.34a.634.634 0 0 1-.134.057c-.758.156-1.518.31-2.279.463-.223.045-.365-.103-.496-.245-.718-.769-1.434-1.54-2.148-2.312-.34-.366-.668-.745-1.034-1.09a.871.871 0 0 0-.693-.276c-.241.014-.484-.01-.727 0-.202 0-.281-.057-.293-.275-.057-1.118-.154-2.23-.194-3.606Zm1.164-.445c.39-.298.896-.203 1.293-.488a.734.734 0 0 0-.421-.15c-.482-.04-.966-.089-1.447-.117-.482-.029-.472 0-.462.443.022.873.055 1.743.083 2.616 0 .064 0 .127.014.192.018.17.093.265.286.237a11.735 11.735 0 0 0 1.714-.3c.108-.032.272-.02.298-.216-.395-.203-.871-.164-1.314-.405.472-.324 1.041-.28 1.508-.585-.488-.223-1.012-.118-1.54-.38.477-.244.943-.264 1.364-.485-.443-.227-.955-.077-1.376-.362ZM123.199 74.699c.051-1.39.114-2.782.231-4.168.032-.395 0-.44-.405-.482-.579-.06-1.146-.203-1.714-.314-.361-.07-.405-.134-.369-.496a5.21 5.21 0 0 1 .126-.765.726.726 0 0 1 .67-.608c.202-.022.417-.052.627-.06l5.089-.203h.292a.248.248 0 0 1 .285.26c.037.662.071 1.324.104 1.985a.272.272 0 0 1-.162.297.275.275 0 0 1-.118.023c-.37.043-.737.1-1.105.15-.113.014-.229.012-.338.035-.447.089-.534.188-.524.653a58.864 58.864 0 0 1-.083 5.094c-.021.34-.065.676-.1 1.012a.433.433 0 0 1-.394.42c-.457.11-.924.17-1.393.177-.577-.012-.707-.132-.713-.723-.012-.767-.006-1.526-.006-2.287ZM116.64 46.866v-1.648c0-.202.04-.332.283-.35a16.622 16.622 0 0 1 2.128-.095c.562.024.629.089.666.656.089 1.4.162 2.805.253 4.208.075 1.16.164 2.32.253 3.48.046.529.052 1.06.018 1.59-.045.607-.202.75-.81.797-.387.03-.776.016-1.16-.043-.607-.089-.87-.362-.943-.975-.294-2.527-.484-5.071-.688-7.62ZM129.429 43.21c.536-.081 1.078-.12 1.62-.117 1.565-.088 3.117-.318 4.684-.371h.727a.747.747 0 0 1 .769.549c.244.754.371 1.541.377 2.334 0 .312-.13.435-.516.54a9.155 9.155 0 0 1-1.719.271 44.356 44.356 0 0 1-4.215.096c-.97-.02-1.176-.19-1.385-1.128a61.606 61.606 0 0 1-.334-1.66.936.936 0 0 1-.008-.514ZM132.26 52.743c1.457-.014 2.735-.065 4.01 0 .895.045 1.069.219 1.095 1.108 0 .322.021.645.014.97 0 .518-.08.607-.607.696a4.54 4.54 0 0 1-.725.056c-2.358 0-4.718 0-7.085.07-.917.028-1.097-.165-1.138-1.092a7.917 7.917 0 0 1 .067-1.306.324.324 0 0 1 .026-.14.332.332 0 0 1 .347-.206c.129 0 .257-.02.386-.024l3.61-.132ZM114.527 37.095l3.342.137c.113 0 .227.017.34.014.597 0 .595 0 .597.608.025.388-.014.777-.115 1.152a.7.7 0 0 1-.646.558c-.289.027-.577.057-.868.06-1.822 0-3.622-.052-5.43-.12-.597-.023-1.192-.106-1.783-.186-.648-.09-.763-.254-.699-.9.116-1.153.363-1.384 1.529-1.39h3.733v.067ZM93.278 56.612c.112-.012.19-.029.268-.029 1.86.01 3.72-.036 5.579.035 1.17.044 1.366.332 1.417 1.441.04 1.012-.081 1.152-1.1 1.215-1.76.08-3.526.036-5.28-.132-.659-.054-.851-.265-.873-.923-.025-.522-.01-1.038-.01-1.607ZM132.336 51.4c-.727-.033-1.451-.066-2.176-.108-.508-.029-.607-.128-.67-.634a14.115 14.115 0 0 1-.087-2.024c0-.43.012-.444.433-.43 1.065.037 2.13.073 3.192.134.581.015 1.161.06 1.737.136.64.103.885.318 1.055.953.09.426.119.863.087 1.298a.486.486 0 0 1-.391.488 4.137 4.137 0 0 1-1.099.164c-.692.012-1.387 0-2.081 0v.024ZM116.299 74.675c.982-.09 1.808-.077 2.632-.087.113 0 .226.006.338.02.476.065.587.184.591.654v1.601c0 .535-.087.608-.587.618-.565.01-1.131-.012-1.696-.033-1.067-.04-2.134-.09-3.201-.14a2.209 2.209 0 0 1-.384-.044c-.328-.069-.405-.152-.425-.49-.029-.549-.031-1.1-.059-1.65-.012-.25.083-.328.336-.336.87-.026 1.741-.079 2.455-.113ZM103.158 22.568a8.12 8.12 0 0 1-.057 1.62c-.057.362-.087.392-.474.404-.888.03-1.777.039-2.664.063-1.243.032-2.484.132-3.729.103a4.398 4.398 0 0 1-.81-.087c-.287-.065-.37-.188-.36-.484 0-.03.01-.062.015-.095.147-1.075.332-1.443 1.544-1.488 2.1-.075 4.197-.154 6.296-.063l.239.027ZM115.617 33.718h2.429c.26 0 .345.097.353.334.03.469.008.94-.067 1.403-.073.385-.203.522-.607.585a5.839 5.839 0 0 1-.675.077c-1.437.049-2.872.186-4.314.115a8.94 8.94 0 0 1-.866-.097.365.365 0 0 1-.36-.382 5.96 5.96 0 0 1 .054-1.26c.098-.46.243-.607.709-.655a16.129 16.129 0 0 1 1.741-.108h1.601l.002-.012ZM117.057 56.731h2.518c.374 0 .376.013.384.383.009.37.019.68 0 1.012-.018.332-.143.484-.502.53-.222.029-.449.035-.676.047-1.465.087-2.932.172-4.399.255a5.058 5.058 0 0 1-.822 0c-.372-.042-.504-.202-.518-.57-.01-.211.011-.422.063-.626.158-.607.376-.81 1.002-.858a38.88 38.88 0 0 1 2.95-.173ZM117.307 70.038h-2.036a3.597 3.597 0 0 1-.529-.056.464.464 0 0 1-.404-.37c-.1-.443-.14-.896-.118-1.349 0-.162.097-.229.243-.24.081 0 .162-.013.243-.015 1.619-.02 3.239-.115 4.846-.079.608.014.782.19.766.788 0 .307-.039.607-.059.919a.303.303 0 0 1-.294.322c-.224.022-.449.062-.674.064h-1.988l.004.016Z"/><path d="M116.362 60.375c.533-.022 1.065-.04 1.597-.069.221-.014.334.059.338.291 0 .387.033.776.027 1.163 0 .321-.077.404-.405.43-1.352.116-2.703.262-4.061.272-.065 0-.13 0-.192-.012-.494-.05-.608-.176-.626-.672a2.725 2.725 0 0 1 .014-.338c.067-.69.253-.857.93-.925.795-.08 1.589-.094 2.378-.14ZM117.119 65.284c-.454 0-.905.01-1.357 0-.451-.01-.672-.28-.698-.81-.02-.425.164-.682.597-.735.962-.115 1.925-.202 2.891-.298a47.94 47.94 0 0 1 1.785-.137c.367-.023.385 0 .405.364a6.63 6.63 0 0 1 0 .822c-.018.389-.099.47-.498.506-1.044.093-2.089.18-3.135.27l.01.018ZM115.891 71.672h1.453c.421.01.581.15.681.547.075.332.083.676.024 1.012a.333.333 0 0 1-.31.312 4.793 4.793 0 0 1-.48.069c-.87.036-1.742.024-2.611-.035-.379-.022-.508-.121-.569-.476a10.527 10.527 0 0 1-.097-1.107c-.014-.217.127-.267.314-.265h1.595v-.057ZM95.786 60.761c.435.052.875.058 1.311.018.822-.026 1.644-.064 2.466-.095.559-.018.694.116.686.67a2.8 2.8 0 0 1-.018.29c-.063.468-.123.55-.585.63a14.6 14.6 0 0 1-3.281.153c-.504-.03-.618-.155-.654-.654a2.77 2.77 0 0 1 .075-1.012Z"/></g><defs><clipPath id="a"><path fill="#fff" transform="translate(79.35 22.319)" d="M0 0h58.302v63.363H0z"/></clipPath></defs></svg>