<svg width="217" height="108" fill="none" xmlns="http://www.w3.org/2000/svg"><g clip-path="url(#a)"><path d="M87.161 53.917c-.15-1.802-.376-2.768-1.084-4.538-.59-1.48-1.887-3.69-2.756-4.698-.44-.515-.397-.847.193-1.416.6-.59.804-.965.815-1.48 0-.558-.16-.912-.686-1.491-.698-.751-1.31-1.105-1.931-1.105-.655 0-.966.16-1.642.847-.29.3-.6.547-.697.547-.096 0-.654-.31-1.233-.697-2.392-1.577-5.096-2.66-7.36-2.95-1.651-.204-2.316-.129-2.627.3-.107.15-.14.14-.236-.053-.075-.129-.279-.28-.461-.343-.376-.13-1.867-.14-3.047-.011-.826.086-2.435.504-3.636.933-.89.322-2.875 1.298-3.69 1.813-.311.204-.676.365-.805.365-.15 0-.461-.226-.826-.601-.74-.751-1.233-1.008-1.93-1.008-.698 0-1.03.182-1.856.9-1.363 1.191-1.373 2.071-.033 3.39.344.333.601.676.601.805s-.247.515-.547.858c-1.234 1.459-2.51 3.626-3.24 5.535-.547 1.395-.665 1.931-.826 3.519-.171 1.78-.214 1.651.601 2.102.622.333.794.386 1.32.354l.6-.032 1.02-1.502c1.233-1.834 2.542-3.54 3.7-4.827 1.47-1.63 1.373-1.555 1.834-1.48.236.032.515.15.633.257.183.172.194.236.075.418-.193.312-.16.977.076 1.341.107.172 1.437 1.717 2.95 3.422 1.512 1.695 2.746 3.143 2.746 3.218 0 .065-.73.805-1.61 1.652l-1.598 1.523-.397-.268c-.493-.332-1.287-.354-1.952-.053-.493.225-3.862 2.767-4.613 3.475-.793.762-.815 1.556-.053 2.382.987 1.072 3.25 3.486 3.872 4.14.376.386.762.815.848.944.279.397 1.105.858 1.534.858.568 0 1.008-.343 1.93-1.512.44-.569 1.234-1.577 1.76-2.253.536-.676 1.03-1.416 1.115-1.652.204-.6.129-1.791-.129-2.08-.203-.226-.193-.237.43-.891 1.78-1.888 2.23-2.339 2.327-2.339.065 0 .376.29.687.644.772.847.922.847 1.663-.043.31-.386.611-.697.665-.697.053 0 2.076 1.948 4.483 4.333 2.49 2.457 4.58 4.441 4.817 4.56.75.386 1.695.203 2.274-.462 1.126-1.276 1.32-1.684 1.201-2.478-.043-.268-.182-.622-.31-.794-.119-.171-1.599-1.651-3.283-3.303-1.684-1.642-3.69-3.615-4.473-4.377-.901-.88-1.395-1.438-1.341-1.523.043-.065 1.223-1.491 2.639-3.154 1.405-1.663 2.628-3.164 2.714-3.325.118-.236.118-.408.032-.805-.097-.44-.086-.536.064-.708.386-.429.687-.268 1.61.783 1.168 1.363 2.606 3.304 3.69 4.999l.911 1.416h.697c.622 0 .762-.043 1.277-.386l.579-.386-.075-.912Zm-5.835-12.98c.193-.193.396-.354.45-.354.064 0 .343.215.633.483.279.257.504.515.504.569 0 .042-.171.246-.375.45l-.376.365-1.18-1.159.344-.354Zm-9.644-2.392c.01 0 .268.064.558.15 1.684.462 3.218 1.159 4.816 2.178l.73.472-.515.472c-.29.268-.59.461-.655.429-.075-.022-.708-.504-1.394-1.051a40.524 40.524 0 0 0-2.414-1.781c-.997-.665-1.265-.869-1.126-.869Zm6.082 8.303c0 .14-.654.815-.783.815-.086 0-1.008-.622-1.309-.88-.096-.085.784-1.083.923-1.03.043.022.322.247.622.505.3.257.547.525.547.59Zm-9.858-7.552c.043 0 .633.333 1.32.75 3.121 1.878 5.964 4.056 5.964 4.56 0 .129-.226.45-.526.74l-.526.526-1.115-.601-1.105-.59-3.915-.075-3.916-.065-1.126.537-1.126.547-.73-.73-.73-.718.301-.247c.751-.622 2.317-1.76 3.197-2.328.987-.633 3.904-2.306 4.033-2.306Zm4.023 8.485-1.899.107c-1.502.075-2.274.065-3.7-.064l-1.792-.161-1.277-.665c-.697-.365-1.265-.697-1.265-.73 0-.042.493-.3 1.104-.579l1.095-.504 3.808.043 3.808.032 1.158.58c.633.321 1.148.61 1.148.643 0 .043-.493.343-1.094.687l-1.094.611Zm.214 2.188c.258.762.462 1.46.472 1.545 0 .129-.675.14-4.408.096-2.414-.032-4.42-.085-4.452-.107-.022-.032 0-.193.053-.364.118-.365.483-1.728.655-2.382.064-.247.129-.45.15-.45.021 0 .708.075 1.534.171.987.108 2.156.15 3.508.129l2.038-.032.45 1.394Zm-11.735-3.518-.73.493-.729.483-.407-.333c-.226-.182-.408-.386-.408-.46 0-.13 1.062-1.213 1.18-1.224.032 0 .29.236.58.526l.514.515Zm-2.199-5.739c.418-.322 2.971-1.513 3.7-1.738 1.792-.558 2.725-.761 2.5-.558-.064.054-.665.44-1.34.859a43.256 43.256 0 0 0-2.575 1.727l-1.341.976-.569-.569c-.515-.515-.547-.568-.375-.697Zm-4.688-.88c.097 0 .354.183.569.408l.397.408-.655.568-.654.58-.418-.419c-.225-.225-.419-.461-.419-.526 0-.16.987-1.008 1.18-1.019Zm-.665 8.088a44.714 44.714 0 0 0-2.23 2.607c-.505.654-.934 1.148-.956 1.084-.043-.14.472-1.567.955-2.629.322-.697 1.427-2.467 2.2-3.529.17-.236.278-.182.825.354.279.28.515.547.515.601 0 .054-.59.73-1.309 1.512Zm3.433-2.08c-.15 0-2.306-2.017-2.392-2.232-.086-.225 1.93-2.156 2.252-2.167.13 0 .644.43 1.31 1.095.61.611 1.104 1.158 1.104 1.222 0 .15-2.113 2.081-2.274 2.081Zm1.76 3.121c.031-.16 3.045-2.263 3.239-2.263.064 0 .654.3 1.298.654.654.354 1.223.697 1.276.74.054.054 0 .408-.118.826-.118.397-.322 1.116-.461 1.588-.129.472-.28.9-.322.944-.118.14-4.945-2.307-4.913-2.489Zm2.745 18.45-1.534 1.942-1.072-1.116c-.59-.611-1.717-1.791-2.5-2.628l-1.427-1.512 1.48-1.159c.816-.633 1.653-1.287 1.857-1.459.203-.16.418-.29.471-.3.043 0 1.02.922 2.167 2.06 1.148 1.126 2.081 2.091 2.081 2.145 0 .053-.686.965-1.523 2.027Zm1.373-4.838c-.14 0-1.244-1.083-1.244-1.233 0-.15 3.24-3.38 3.4-3.38.065 0 .354.258.633.58.268.322.483.622.483.676-.032.15-3.143 3.357-3.272 3.357Zm2.993-4.848c-.89-1.008-2.703-3.079-4.044-4.602-1.352-1.523-2.446-2.789-2.446-2.821 0-.065 1.588.676 3.165 1.47l1.18.59.386.74c.214.397 1.072 2.006 1.91 3.56.836 1.556 1.512 2.843 1.49 2.865-.03 0-.767-.8-1.641-1.802Zm3.004 2.531c-.108.011-.547-.761-3.004-5.33l-1.427-2.65h4.441c2.446 0 4.441.021 4.441.032 0 .14-4.366 7.938-4.451 7.948Zm4.988-1.297c.675.654 2.692 2.638 4.473 4.397 1.791 1.749 3.25 3.24 3.25 3.304 0 .226-.901 1.18-1.083 1.148-.204-.032-1.438-1.212-6.072-5.803-2.51-2.5-2.896-2.918-2.789-3.079.075-.096.322-.397.558-.675l.418-.505 1.245 1.212Zm3.894-8.378c-.086.15-6.308 7.52-7.08 8.399-.44.504-.462.515-.29.16.15-.321.837-1.576 2.328-4.29.171-.322.504-.922.73-1.32.235-.407.418-.772.418-.815 0-.193.536-.536 2.123-1.362 1.76-.922 1.91-.987 1.77-.772Zm-3.626.944c-.097 0-1.03-2.693-1.062-3.068 0-.097.472-.44 1.169-.848.654-.375 1.19-.686 1.212-.686.01-.01.397.247.858.568.45.322 1.137.794 1.524 1.062.386.258.697.537.697.612 0 .118-4.162 2.349-4.398 2.36Zm5.996-5.364c-.193 0-2.08-1.823-2.08-2.016 0-.226 1.92-2.167 2.145-2.167.085 0 .59.418 1.104.944.515.515.934 1.008.934 1.094 0 .182-1.92 2.145-2.103 2.145Zm5.932 5.653c-.021.011-.45-.536-.955-1.233a58.454 58.454 0 0 0-2.005-2.5c-.601-.686-1.084-1.287-1.084-1.34 0-.108.869-1.009.976-1.009.043 0 .247.225.44.515.665.923 1.566 2.542 1.952 3.497.397.987.73 2.006.676 2.07Z" fill="#000"/><path d="M60.236 63.239c-1.148-1.137-2.124-2.06-2.167-2.06-.053.01-.268.14-.472.3-.203.172-1.04.826-1.855 1.46l-1.48 1.158 1.426 1.512c.783.837 1.91 2.017 2.5 2.628l1.072 1.116 1.534-1.942c.837-1.062 1.523-1.973 1.523-2.027 0-.054-.933-1.02-2.08-2.145Zm-1.233 3.518c-.15 0-2.285-2.242-2.253-2.35.021-.063.311-.332.633-.6.322-.257.611-.472.643-.483.086 0 2.038 1.974 2.038 2.07 0 .119-.976 1.363-1.062 1.363Z" fill="#EAEAEA"/><path d="M77.045 50.58c-.085.15-6.307 7.52-7.08 8.4-.44.504-.46.515-.289.16.15-.321.837-1.576 2.328-4.29.171-.322.504-.922.73-1.32.235-.407.418-.772.418-.815 0-.193.536-.536 2.123-1.362 1.76-.922 1.91-.987 1.77-.772ZM66.801 59.527c-.03 0-.767-.8-1.641-1.802-.89-1.008-2.703-3.079-4.044-4.602-1.352-1.523-2.446-2.789-2.446-2.821 0-.065 1.588.676 3.165 1.47l1.18.59.386.74c.214.396 1.072 2.006 1.91 3.56.836 1.556 1.512 2.843 1.49 2.865ZM63.744 48.918c-.118.397-.322 1.116-.461 1.588-.129.472-.279.9-.322.944-.118.14-4.945-2.307-4.913-2.489.032-.16 3.047-2.263 3.24-2.263.064 0 .654.3 1.298.654.654.354 1.223.697 1.276.74.054.054 0 .408-.118.826ZM77.818 49.165c0 .118-4.162 2.349-4.398 2.36-.097 0-1.03-2.693-1.062-3.068 0-.097.472-.44 1.169-.848.654-.375 1.19-.686 1.212-.686.01-.01.397.247.858.568.45.322 1.137.794 1.523 1.062.387.258.698.537.698.612ZM74.117 46.483c0 .043-.493.343-1.094.687l-1.094.611-1.899.107c-1.502.075-2.274.065-3.7-.064l-1.792-.161-1.277-.665c-.697-.365-1.265-.697-1.265-.73 0-.042.493-.3 1.104-.579l1.095-.504 3.808.043 3.808.032 1.158.58c.633.321 1.148.61 1.148.643ZM72.615 51.514c0 .129-.676.14-4.409.096-2.413-.032-4.42-.085-4.451-.107-.022-.032 0-.193.053-.365.118-.364.483-1.727.655-2.381.064-.247.128-.45.15-.45.021 0 .708.075 1.534.171.986.107 2.156.15 3.507.129l2.038-.032.451 1.394c.257.762.461 1.46.472 1.545ZM72.615 52.308c0 .14-4.365 7.938-4.451 7.948-.107.011-.547-.761-3.004-5.33l-1.426-2.65h4.44c2.446 0 4.441.021 4.441.032Z" fill="#A2FFFF"/><path d="M60.064 65.395c0 .118-.976 1.362-1.062 1.362-.15 0-2.285-2.242-2.252-2.35.021-.064.31-.332.633-.6.321-.257.61-.472.643-.483.086 0 2.038 1.974 2.038 2.07ZM90.958 51.568c0 11.66 0 11.778.58 13.247.15.376.429.912.61 1.202.452.708 1.653 1.802 2.425 2.22 1.46.773 3.808 1.309 5.761 1.309h.922v-6.114h-.3c-.408 0-1.202-.419-1.46-.784-.224-.3-.224-.396-.257-11.08l-.021-10.77h-8.26v10.77ZM113.57 51.492l-.032 10.706-.236.375a2.21 2.21 0 0 1-.59.59c-.332.204-.579.215-4.881.247l-4.537.032v6.104h4.967c5.095 0 6.178-.064 7.583-.44 2.961-.783 4.763-2.328 5.514-4.709.461-1.437.494-2.435.494-13.312V40.798h-8.26l-.022 10.694ZM133.651 40.959c-3.969.547-6.318 2.295-7.208 5.363l-.247.858v16.09l.247.805c.804 2.532 2.338 4.023 5.02 4.86 1.759.557 2.607.61 9.15.61h6.018v-6.113h-5.396c-5.385 0-5.395 0-5.867-.247-.644-.322-.934-.783-1.019-1.61-.033-.364-.054-3.518-.033-6.993.033-6.833.022-6.64.601-7.166.547-.504.429-.493 11.531-.504h10.481v-6.114l-11.124.01c-8.496.011-11.381.043-12.154.15ZM161.219 55.172v14.374h8.26V40.798h-8.26v14.374Z" fill="#000"/><path d="M138.661 53.445a462.87 462.87 0 0 0 2.017 3.046l1.823 2.746 3.111.033 3.111.032.032 5.116.021 5.128h8.153V53.134h-18.472l.204.31Z" fill="#000"/></g><defs><clipPath id="a"><path fill="#fff" transform="translate(47.52 36.738)" d="M0 0h121.96v34.525H0z"/></clipPath></defs></svg>