<svg width="24" height="24" viewBox="0 0 24 24" fill="none" xmlns="http://www.w3.org/2000/svg">
<path fill-rule="evenodd" clip-rule="evenodd" d="M12 6.25C9.92893 6.25 8.25 7.92893 8.25 10C8.25 12.0711 9.92893 13.75 12 13.75C14.0711 13.75 15.75 12.0711 15.75 10C15.75 7.92893 14.0711 6.25 12 6.25ZM9.75 10C9.75 8.75736 10.7574 7.75 12 7.75C13.2426 7.75 14.25 8.75736 14.25 10C14.25 11.2426 13.2426 12.25 12 12.25C10.7574 12.25 9.75 11.2426 9.75 10Z" fill="#2458F1"/>
<path fill-rule="evenodd" clip-rule="evenodd" d="M12 1.25C7.16751 1.25 3.25 5.16751 3.25 10C3.25 14.2357 5.10712 17.4108 7.07785 19.513C8.06209 20.5628 9.08151 21.3532 9.92951 21.8853C10.3531 22.1511 10.7419 22.3574 11.0698 22.5002C11.361 22.6269 11.7055 22.75 12 22.75C12.2945 22.75 12.639 22.6269 12.9302 22.5002C13.2581 22.3574 13.6469 22.1511 14.0705 21.8853C14.9185 21.3532 15.9379 20.5628 16.9222 19.513C18.8929 17.4108 20.75 14.2357 20.75 10C20.75 5.16751 16.8325 1.25 12 1.25ZM4.75 10C4.75 5.99594 7.99594 2.75 12 2.75C16.0041 2.75 19.25 5.99594 19.25 10C19.25 13.7643 17.6071 16.5892 15.8278 18.487C14.9371 19.4372 14.019 20.1468 13.2733 20.6147C12.9 20.8489 12.5778 21.0176 12.3315 21.1248C12.1451 21.206 12.0411 21.2345 12.0046 21.2446L12 21.2458L11.9954 21.2446C11.9589 21.2346 11.8549 21.206 11.6685 21.1248C11.4222 21.0176 11.1 20.8489 10.7267 20.6147C9.98099 20.1468 9.06291 19.4372 8.17215 18.487C6.39288 16.5892 4.75 13.7643 4.75 10Z" fill="#2458F1"/>
</svg>
