<svg width="24" height="24" viewBox="0 0 24 24" fill="none" xmlns="http://www.w3.org/2000/svg">
<path fill-rule="evenodd" clip-rule="evenodd" d="M8 1.25C8.41421 1.25 8.75 1.58579 8.75 2V3.25H15.25V2C15.25 1.58579 15.5858 1.25 16 1.25C16.4142 1.25 16.75 1.58579 16.75 2V3.25047C17.3296 3.25212 17.8183 3.2596 18.2315 3.29336C18.7781 3.33803 19.2582 3.43238 19.7025 3.65873C20.4081 4.01825 20.9817 4.59193 21.3413 5.29754C21.5676 5.74175 21.662 6.22189 21.7066 6.76853C21.75 7.29944 21.75 7.95505 21.75 8.76788V17.2321C21.75 18.045 21.75 18.7006 21.7066 19.2315C21.662 19.7781 21.5676 20.2582 21.3413 20.7025C20.9817 21.4081 20.4081 21.9817 19.7025 22.3413C19.2582 22.5676 18.7781 22.662 18.2315 22.7066C17.7006 22.75 17.045 22.75 16.2321 22.75H7.76788C6.95505 22.75 6.29944 22.75 5.76853 22.7066C5.2219 22.662 4.74175 22.5676 4.29754 22.3413C3.59193 21.9817 3.01825 21.4081 2.65873 20.7025C2.43239 20.2582 2.33803 19.7781 2.29336 19.2315C2.24999 18.7006 2.24999 18.0449 2.25 17.2321V8.7679C2.24999 7.95506 2.24999 7.29944 2.29336 6.76853C2.33803 6.22189 2.43239 5.74175 2.65873 5.29754C3.01825 4.59193 3.59193 4.01825 4.29754 3.65873C4.74175 3.43238 5.2219 3.33803 5.76853 3.29336C6.18171 3.2596 6.67043 3.25212 7.25 3.25047V2C7.25 1.58579 7.58579 1.25 8 1.25ZM7.25 4.75054C6.68053 4.75225 6.24665 4.7593 5.89068 4.78838C5.4368 4.82546 5.17604 4.8946 4.97852 4.99524C4.55516 5.21095 4.21095 5.55516 3.99524 5.97852C3.8946 6.17604 3.82547 6.4368 3.78838 6.89068C3.75058 7.35331 3.75 7.94755 3.75 8.8V9.25H20.25V8.8C20.25 7.94755 20.2494 7.35331 20.2116 6.89068C20.1745 6.4368 20.1054 6.17604 20.0048 5.97852C19.789 5.55516 19.4448 5.21095 19.0215 4.99524C18.824 4.8946 18.5632 4.82546 18.1093 4.78838C17.7534 4.7593 17.3195 4.75225 16.75 4.75054V6C16.75 6.41421 16.4142 6.75 16 6.75C15.5858 6.75 15.25 6.41421 15.25 6V4.75H8.75V6C8.75 6.41421 8.41421 6.75 8 6.75C7.58579 6.75 7.25 6.41421 7.25 6V4.75054ZM20.25 10.75H3.75V17.2C3.75 18.0525 3.75058 18.6467 3.78838 19.1093C3.82547 19.5632 3.8946 19.824 3.99524 20.0215C4.21095 20.4448 4.55516 20.789 4.97852 21.0048C5.17604 21.1054 5.4368 21.1745 5.89068 21.2116C6.35331 21.2494 6.94755 21.25 7.8 21.25H16.2C17.0525 21.25 17.6467 21.2494 18.1093 21.2116C18.5632 21.1745 18.824 21.1054 19.0215 21.0048C19.4448 20.789 19.789 20.4448 20.0048 20.0215C20.1054 19.824 20.1745 19.5632 20.2116 19.1093C20.2494 18.6467 20.25 18.0525 20.25 17.2V10.75Z" fill="#2458F1"/>
<path d="M15 13.8C15 13.52 15 13.38 15.0545 13.273C15.1024 13.1789 15.1789 13.1024 15.273 13.0545C15.38 13 15.52 13 15.8 13H16.2C16.48 13 16.62 13 16.727 13.0545C16.8211 13.1024 16.8976 13.1789 16.9455 13.273C17 13.38 17 13.52 17 13.8V14.2C17 14.48 17 14.62 16.9455 14.727C16.8976 14.8211 16.8211 14.8976 16.727 14.9455C16.62 15 16.48 15 16.2 15H15.8C15.52 15 15.38 15 15.273 14.9455C15.1789 14.8976 15.1024 14.8211 15.0545 14.727C15 14.62 15 14.48 15 14.2V13.8Z" fill="#2458F1"/>
<path d="M11 17.8C11 17.52 11 17.38 11.0545 17.273C11.1024 17.1789 11.1789 17.1024 11.273 17.0545C11.38 17 11.52 17 11.8 17H12.2C12.48 17 12.62 17 12.727 17.0545C12.8211 17.1024 12.8976 17.1789 12.9455 17.273C13 17.38 13 17.52 13 17.8V18.2C13 18.48 13 18.62 12.9455 18.727C12.8976 18.8211 12.8211 18.8976 12.727 18.9455C12.62 19 12.48 19 12.2 19H11.8C11.52 19 11.38 19 11.273 18.9455C11.1789 18.8976 11.1024 18.8211 11.0545 18.727C11 18.62 11 18.48 11 18.2V17.8Z" fill="#2458F1"/>
<path d="M11 13.8C11 13.52 11 13.38 11.0545 13.273C11.1024 13.1789 11.1789 13.1024 11.273 13.0545C11.38 13 11.52 13 11.8 13H12.2C12.48 13 12.62 13 12.727 13.0545C12.8211 13.1024 12.8976 13.1789 12.9455 13.273C13 13.38 13 13.52 13 13.8V14.2C13 14.48 13 14.62 12.9455 14.727C12.8976 14.8211 12.8211 14.8976 12.727 14.9455C12.62 15 12.48 15 12.2 15H11.8C11.52 15 11.38 15 11.273 14.9455C11.1789 14.8976 11.1024 14.8211 11.0545 14.727C11 14.62 11 14.48 11 14.2V13.8Z" fill="#2458F1"/>
<path d="M7 17.8C7 17.52 7 17.38 7.0545 17.273C7.10243 17.1789 7.17892 17.1024 7.27301 17.0545C7.37996 17 7.51997 17 7.8 17H8.2C8.48003 17 8.62004 17 8.727 17.0545C8.82108 17.1024 8.89757 17.1789 8.9455 17.273C9 17.38 9 17.52 9 17.8V18.2C9 18.48 9 18.62 8.9455 18.727C8.89757 18.8211 8.82108 18.8976 8.727 18.9455C8.62004 19 8.48003 19 8.2 19H7.8C7.51997 19 7.37996 19 7.27301 18.9455C7.17892 18.8976 7.10243 18.8211 7.0545 18.727C7 18.62 7 18.48 7 18.2V17.8Z" fill="#2458F1"/>
<path d="M7 13.8C7 13.52 7 13.38 7.0545 13.273C7.10243 13.1789 7.17892 13.1024 7.27301 13.0545C7.37996 13 7.51997 13 7.8 13H8.2C8.48003 13 8.62004 13 8.727 13.0545C8.82108 13.1024 8.89757 13.1789 8.9455 13.273C9 13.38 9 13.52 9 13.8V14.2C9 14.48 9 14.62 8.9455 14.727C8.89757 14.8211 8.82108 14.8976 8.727 14.9455C8.62004 15 8.48003 15 8.2 15H7.8C7.51997 15 7.37996 15 7.27301 14.9455C7.17892 14.8976 7.10243 14.8211 7.0545 14.727C7 14.62 7 14.48 7 14.2V13.8Z" fill="#2458F1"/>
</svg>
