<svg width="53" height="16" viewBox="0 0 53 16" fill="none" xmlns="http://www.w3.org/2000/svg">
<g clip-path="url(#clip0_4925_26751)">
<path fill-rule="evenodd" clip-rule="evenodd" d="M8.1304 1.46544C4.6324 1.62254 1.78608 4.39067 1.5993 7.81505C1.44704 10.6269 3.05698 13.0868 5.44652 14.2283C6.33775 14.6538 7.39546 14.1189 7.56806 13.1624C7.68378 12.5181 7.34877 11.8797 6.74988 11.5934C5.3917 10.9411 4.48013 9.53119 4.58774 7.92638C4.71361 6.04914 6.26466 4.5239 8.18116 4.39464C10.4468 4.24152 12.3349 5.99548 12.3349 8.18292C12.3349 9.6843 11.4457 10.9809 10.1545 11.5973C9.56574 11.8797 9.24293 12.5141 9.35664 13.1464L9.36272 13.1783C9.53125 14.1189 10.5707 14.6538 11.4477 14.2382C13.7418 13.1505 15.3254 10.8476 15.3254 8.18292C15.3233 4.36283 12.071 1.28647 8.1304 1.46544Z" fill="#4A4A4A"/>
<path fill-rule="evenodd" clip-rule="evenodd" d="M8.46433 10.5539C7.1305 10.5539 6.04639 9.49203 6.04639 8.18554C6.04639 6.87905 7.1305 5.81714 8.46433 5.81714C9.79816 5.81714 10.8823 6.87905 10.8823 8.18554C10.8823 9.49203 9.79816 10.5539 8.46433 10.5539Z" fill="#4A4A4A"/>
<path fill-rule="evenodd" clip-rule="evenodd" d="M42.5264 8.84834C42.4676 8.81441 42.3922 8.83137 42.3555 8.88989C42.0081 9.43512 41.4071 9.79738 40.7233 9.79738C39.8208 9.79738 39.0635 9.1691 38.8393 8.31629H44.109C44.1733 8.31629 44.2285 8.26726 44.2358 8.20122C44.2505 8.06727 44.2579 7.93141 44.2579 7.79367C44.2579 5.73336 42.5834 4.07304 40.556 4.16927C38.7455 4.25417 37.2751 5.76355 37.1924 7.62196C37.0986 9.70307 38.7161 11.4219 40.7233 11.4219C41.9879 11.4219 43.0962 10.7408 43.7193 9.71625C43.7579 9.65212 43.7396 9.56907 43.6752 9.53136L42.5246 8.84834H42.5264ZM40.7233 5.79183C41.5283 5.79183 42.2195 6.29374 42.5172 7.00882H38.9275C39.2253 6.29374 39.9164 5.79183 40.7215 5.79183H40.7233Z" fill="#4A4A4A"/>
<path fill-rule="evenodd" clip-rule="evenodd" d="M30.1437 4.18945C28.1935 4.18945 26.6128 5.81204 26.6128 7.81388C26.6128 9.81568 28.1935 11.4383 30.1437 11.4383C32.0939 11.4383 33.6746 9.81568 33.6746 7.81388C33.6746 5.81204 32.0939 4.18945 30.1437 4.18945ZM30.1437 9.81002C29.0703 9.81002 28.199 8.91571 28.199 7.81388C28.199 6.71201 29.0703 5.8177 30.1437 5.8177C31.2171 5.8177 32.0884 6.71201 32.0884 7.81388C32.0884 8.91571 31.2171 9.81002 30.1437 9.81002Z" fill="#4A4A4A"/>
<path fill-rule="evenodd" clip-rule="evenodd" d="M36.1404 4.28753H34.7269C34.6608 4.28753 34.6075 4.33847 34.6001 4.40262V11.0835C34.6001 11.6986 34.3924 12.2005 33.9972 12.5363C33.7399 12.7552 33.4054 12.9004 33.0323 12.959C32.9698 12.9684 32.9238 13.0231 32.9238 13.0891V14.4099C32.9238 14.4834 32.9808 14.5419 33.0525 14.5419H33.0672C34.8317 14.5419 36.2617 13.074 36.2617 11.2628L36.2691 4.41771C36.2691 4.34413 36.2121 4.28564 36.1404 4.28564V4.28753Z" fill="#4A4A4A"/>
<path fill-rule="evenodd" clip-rule="evenodd" d="M25.5457 4.28596H24.1322C24.0605 4.28596 24.0035 4.34445 24.0035 4.41803V4.5935V4.87839C23.7517 4.5784 23.3529 4.41237 23.1948 4.35577C22.8382 4.23313 22.4577 4.1671 22.0625 4.16898C20.1399 4.17464 18.5592 5.77837 18.5316 7.75188C18.504 9.78392 20.0995 11.4405 22.0736 11.4405C22.4669 11.4405 22.8474 11.3744 23.2003 11.2518C23.362 11.1933 23.7554 11.0273 24.0054 10.731V11.014V11.0819C24.0054 11.6971 23.7977 12.1989 23.4025 12.5348C23.0606 12.8272 22.5809 12.9876 22.0515 12.9876C21.2832 12.9876 20.5461 12.6649 20.1142 12.1498C20.0664 12.0932 19.9819 12.0895 19.9285 12.1423L18.9911 13.08C18.9397 13.1309 18.9397 13.214 18.9893 13.2668C19.787 14.1045 20.8237 14.5328 22.0717 14.5403H22.4706C24.2351 14.5403 25.6651 13.0725 25.6651 11.2612V10.6216C25.6651 10.6216 25.6651 10.6122 25.6651 10.6065L25.6725 4.41614C25.6725 4.34256 25.6155 4.28407 25.5438 4.28407L25.5457 4.28596ZM24.0035 7.82545C23.9925 8.91036 23.1323 9.78579 22.0736 9.78579C21.0148 9.78579 20.1436 8.899 20.1436 7.8047C20.1436 6.7104 21.0075 5.82365 22.0736 5.82365C23.1396 5.82365 23.9925 6.69909 24.0035 7.78395V7.82545Z" fill="#4A4A4A"/>
<path fill-rule="evenodd" clip-rule="evenodd" d="M50.2195 11.3124C50.1971 11.3124 50.1751 11.3011 50.1625 11.2822L47.9878 8.28422L46.8427 9.4276V11.2275C46.8427 11.2672 46.8115 11.3011 46.7711 11.3011H45.2528C45.2142 11.3011 45.1812 11.269 45.1812 11.2275V2.22593C45.1812 2.1863 45.2124 2.15234 45.2528 2.15234H46.7711C46.8097 2.15234 46.8427 2.18441 46.8427 2.22593V7.2088L49.7652 4.31076C49.7783 4.29756 49.7965 4.29001 49.8148 4.29001H51.8277C51.8717 4.29001 51.8885 4.32397 51.8936 4.33529C51.8974 4.34661 51.9086 4.38246 51.8773 4.41453L49.124 7.15594L52.0535 11.1954C52.0703 11.2181 52.0722 11.2464 52.0591 11.2709C52.0465 11.2954 52.0226 11.3105 51.9969 11.3105H50.2209L50.2195 11.3124Z" fill="#4A4A4A"/>
</g>
<defs>
<clipPath id="clip0_4925_26751">
<rect width="52.3455" height="14.9559" fill="white" transform="translate(0.654297 0.521973)"/>
</clipPath>
</defs>
</svg>
