<svg width="24" height="24" viewBox="0 0 24 24" fill="none" xmlns="http://www.w3.org/2000/svg">
<path fill-rule="evenodd" clip-rule="evenodd" d="M1 2C1 1.44772 1.4477 1 2 1H22C22.5523 1 23 1.44772 23 2V6C23 6.55228 22.5523 7 22 7H20V22C20 22.5523 19.5523 23 19 23H5C4.4477 23 4 22.5523 4 22V7H2C1.4477 7 1 6.55228 1 6V2ZM6 13V15H18V13H6ZM18 11H6V6C6 5.44772 5.5523 5 5 5H3V3H8.126C8.5701 4.72523 10.1362 6 12 6C13.8638 6 15.4299 4.72523 15.874 3H21V5H19C18.4477 5 18 5.44772 18 6V11ZM13.7324 3H10.2676C10.6134 3.5978 11.2597 4 12 4C12.7403 4 13.3866 3.5978 13.7324 3ZM18 17H6V21H18V17Z" fill="#2458F1"/>
</svg>
