<svg width="24" height="25" viewBox="0 0 24 25" fill="none" xmlns="http://www.w3.org/2000/svg">
<g clip-path="url(#clip0_2602_2902)">
<path d="M13.7052 2.92908H6.45859C5.7551 2.92908 5.17969 3.50455 5.17969 4.20798V20.4068C5.17969 21.1104 5.75516 21.6857 6.45859 21.6857H17.5418C18.2455 21.6857 18.8207 21.1104 18.8207 20.4068V8.04463L15.8369 5.91313L13.7052 2.92908Z" fill="#0F9C57"/>
<path d="M8.59375 12.0943V18.2757H15.4146V12.0943H8.59375ZM11.5779 17.4229H9.4463V16.3573H11.5779V17.4229ZM11.5779 15.7179H9.4463V14.6518H11.5779V15.7179ZM11.5779 14.0124H9.4463V12.9468H11.5779V14.0124ZM14.5618 17.4229H12.4301V16.3573H14.5618V17.4229ZM14.5618 15.7179H12.4301V14.6518H14.5618V15.7179ZM14.5618 14.0124H12.4301V12.9468H14.5618V14.0124Z" fill="#F0F0F0"/>
<mask id="mask0_2602_2902" style="mask-type:luminance" maskUnits="userSpaceOnUse" x="14" y="7" width="5" height="7">
<path d="M14.0703 7.66205H18.8284V13.2364H14.0703V7.66205Z" fill="url(#paint0_linear_2602_2902)"/>
</mask>
<g mask="url(#mask0_2602_2902)">
<path d="M14.0781 7.67017L18.8193 12.4106V8.04436L14.0781 7.67017Z" fill="url(#paint1_linear_2602_2902)"/>
</g>
<path d="M13.707 2.92908V6.76578C13.707 7.47236 14.2795 8.04463 14.9859 8.04463H18.8225L13.707 2.92908Z" fill="#87CDAC"/>
<path d="M6.45859 2.92908C5.7551 2.92908 5.17969 3.50455 5.17969 4.20804V4.31455C5.17969 3.61124 5.75516 3.03565 6.45859 3.03565H13.7052V2.92913H6.45859V2.92908Z" fill="white" fill-opacity="0.2"/>
<path d="M17.5418 21.5797H6.45859C5.7551 21.5797 5.17969 21.0041 5.17969 20.3008V20.4072C5.17969 21.1108 5.75516 21.6861 6.45859 21.6861H17.5418C18.2455 21.6861 18.8207 21.1108 18.8207 20.4072V20.3008C18.8207 21.0042 18.2454 21.5797 17.5418 21.5797Z" fill="#263138" fill-opacity="0.2"/>
<path d="M14.9859 8.04459C14.2795 8.04459 13.707 7.47233 13.707 6.76575V6.87227C13.707 7.57885 14.2795 8.15111 14.9859 8.15111H18.8225V8.04459H14.9859Z" fill="#263138" fill-opacity="0.102"/>
<mask id="mask1_2602_2902" style="mask-type:luminance" maskUnits="userSpaceOnUse" x="5" y="2" width="14" height="20">
<path d="M5.17188 2.92163H18.8299V21.6951H5.17188V2.92163Z" fill="url(#paint2_radial_2602_2902)"/>
</mask>
<g mask="url(#mask1_2602_2902)">
<path d="M13.7052 2.92932H6.45859C5.7551 2.92932 5.17969 3.50479 5.17969 4.20828V20.407C5.17969 21.1107 5.75516 21.6859 6.45859 21.6859H17.5418C18.2455 21.6859 18.8207 21.1106 18.8207 20.407V8.04487L13.7052 2.92932Z" fill="url(#paint3_radial_2602_2902)"/>
</g>
</g>
<defs>
<linearGradient id="paint0_linear_2602_2902" x1="16.4493" y1="8.05953" x2="16.4493" y2="12.839" gradientUnits="userSpaceOnUse">
<stop stop-color="white" stop-opacity="0.02"/>
<stop offset="1" stop-color="white" stop-opacity="0.2"/>
</linearGradient>
<linearGradient id="paint1_linear_2602_2902" x1="16.4487" y1="8.28149" x2="16.4487" y2="12.6163" gradientUnits="userSpaceOnUse">
<stop stop-color="#263138"/>
<stop offset="1" stop-color="#263138"/>
</linearGradient>
<radialGradient id="paint2_radial_2602_2902" cx="0" cy="0" r="1" gradientUnits="userSpaceOnUse" gradientTransform="translate(5.18032 2.93007) scale(0)">
<stop stop-color="white" stop-opacity="0"/>
<stop offset="1" stop-color="white" stop-opacity="0.098"/>
</radialGradient>
<radialGradient id="paint3_radial_2602_2902" cx="0" cy="0" r="1" gradientUnits="userSpaceOnUse" gradientTransform="translate(5.72527 3.49204) scale(9.37833)">
<stop stop-color="white"/>
<stop offset="1" stop-color="white"/>
</radialGradient>
<clipPath id="clip0_2602_2902">
<rect width="13.6411" height="18.7566" fill="white" transform="translate(5.17969 2.92902)"/>
</clipPath>
</defs>
</svg>
