<svg width="59" height="17" viewBox="0 0 59 17" fill="none" xmlns="http://www.w3.org/2000/svg">
<g clip-path="url(#clip0_4925_26779)">
<mask id="mask0_4925_26779" style="mask-type:luminance" maskUnits="userSpaceOnUse" x="0" y="0" width="59" height="17">
<path d="M58.247 0.0178223H0V16.8152H58.247V0.0178223Z" fill="white"/>
</mask>
<g mask="url(#mask0_4925_26779)">
<mask id="mask1_4925_26779" style="mask-type:luminance" maskUnits="userSpaceOnUse" x="0" y="0" width="16" height="17">
<path d="M15.0827 0.0219727H0V16.8193H15.0827V0.0219727Z" fill="white"/>
</mask>
<g mask="url(#mask1_4925_26779)">
<path fill-rule="evenodd" clip-rule="evenodd" d="M9.52444 4.1872V2.00481C9.52444 0.909768 8.63637 0.0219727 7.54107 0.0219727C6.4458 0.0219727 5.558 0.909768 5.558 2.00481V6.90611C5.558 7.61654 5.9319 8.24006 6.49388 8.59006V2.00481C6.49388 1.4264 6.96291 0.957844 7.54133 0.957844C8.11975 0.957844 8.58856 1.42665 8.58856 2.00481V5.0563C8.93504 4.8057 9.2494 4.51374 9.52444 4.1872ZM12.2 8.0211L14.0904 6.92979C15.039 6.38226 15.3638 5.16965 14.8163 4.22132C14.2688 3.27298 13.0559 2.94816 12.1073 3.49568L7.86191 5.94633C7.24616 6.30156 6.89315 6.937 6.87098 7.59863L12.5752 4.30575C13.0761 4.0168 13.7166 4.18844 14.0058 4.68911C14.2949 5.19005 14.1233 5.83027 13.6224 6.11944L10.9792 7.6452C11.3695 7.82009 11.7798 7.94636 12.2 8.0211ZM12.1073 13.3459L10.2169 12.2546C10.0714 11.8533 9.97579 11.435 9.9322 11.0098L12.5754 12.5355C13.0763 12.8247 13.7168 12.6531 14.006 12.1522C14.2952 11.6515 14.1236 11.011 13.6226 10.7218L7.91847 7.42948C8.50262 7.11784 9.2295 7.10588 9.84525 7.46112L14.0907 9.91175C15.0393 10.4593 15.3643 11.6719 14.8166 12.6203C14.2688 13.5686 13.0559 13.8934 12.1073 13.3459ZM5.558 12.6544V14.8367C5.558 15.9318 6.4458 16.8193 7.54107 16.8193C8.63637 16.8193 9.52417 15.9315 9.52417 14.8365V9.93543C9.52417 9.225 9.15027 8.60148 8.58829 8.25152V14.8367C8.58829 15.4149 8.11949 15.8837 7.54107 15.8837C6.96268 15.8837 6.49388 15.4149 6.49388 14.8367V11.7852C6.14735 12.0358 5.83299 12.3278 5.558 12.6544ZM0.991975 9.91152L2.8824 8.82022C3.30264 8.89495 3.7129 9.02123 4.10324 9.19611L1.46004 10.7218C0.959095 11.011 0.787466 11.6512 1.07667 12.1522C1.36588 12.6529 2.00631 12.8245 2.50726 12.5355L8.21142 9.24295C8.18924 9.90455 7.83627 10.54 7.22048 10.8952L2.97507 13.3459C2.02649 13.8934 0.813619 13.5686 0.266097 12.6203C-0.281426 11.6719 0.0434011 10.459 0.991975 9.91152ZM4.86548 4.587L2.97507 3.49568C2.02674 2.94816 0.813868 3.27298 0.266097 4.22132C-0.281675 5.16965 0.0434011 6.38226 0.991975 6.92979L5.23742 9.38042C5.85317 9.73566 6.58004 9.72371 7.16419 9.41206L1.45979 6.1197C0.958846 5.83049 0.787217 5.19031 1.07642 4.68938C1.36563 4.18844 2.00607 4.0168 2.50701 4.30601L5.1502 5.83174C5.10661 5.40652 5.01095 4.98828 4.86548 4.587Z" fill="#4A4A4A"/>
</g>
<path fill-rule="evenodd" clip-rule="evenodd" d="M29.5769 8.41949C29.5769 8.68664 29.5333 8.95817 29.4467 9.23282C29.3601 9.50744 29.235 9.75653 29.0724 9.98074C28.9099 10.2049 28.7125 10.3911 28.4815 10.5393C28.2504 10.6875 27.9864 10.7685 27.6899 10.7835H21.2594C21.1149 10.7835 20.9916 10.733 20.8907 10.6315C20.7892 10.5306 20.7388 10.4073 20.7388 10.2628V6.57677C20.7388 6.43228 20.7892 6.30962 20.8907 6.20811C20.9922 6.10721 21.1149 6.05615 21.2594 6.05615H27.5815C27.8923 6.05615 28.1707 6.1284 28.4167 6.27285C28.6627 6.41734 28.8719 6.60354 29.0457 6.83148C29.2194 7.05941 29.3508 7.31224 29.4417 7.59062C29.532 7.86837 29.5769 8.14487 29.5769 8.41949ZM48.0173 6.20811C47.9155 6.30962 47.8653 6.43228 47.8653 6.57677V8.71217C47.8653 8.97186 47.8502 9.17053 47.8216 9.30816C47.7922 9.44579 47.7239 9.5143 47.6153 9.5143C47.5576 9.5143 47.4833 9.49062 47.3932 9.44391C47.3024 9.39658 47.1889 9.33369 47.0512 9.25398L42.0841 6.21871C42.0046 6.16825 41.916 6.1284 41.8183 6.09974C41.7206 6.07048 41.6215 6.05615 41.52 6.05615C41.2237 6.05615 40.9756 6.15702 40.7772 6.35943C40.5785 6.56184 40.4786 6.81093 40.4786 7.10734V10.2622C40.4786 10.4067 40.5291 10.53 40.6305 10.6309C40.7316 10.7324 40.8549 10.7828 40.9993 10.7828C41.1437 10.7828 41.2666 10.7318 41.3681 10.6309C41.4695 10.5294 41.52 10.4067 41.52 10.2622V8.12681C41.52 7.86713 41.5351 7.66845 41.5634 7.53082C41.5928 7.39319 41.6614 7.32468 41.7697 7.32468C41.8277 7.32468 41.9016 7.34836 41.9921 7.39508C42.083 7.4424 42.1961 7.50529 42.3337 7.58501L47.3008 10.6203C47.3808 10.6707 47.469 10.7106 47.5671 10.7392C47.6647 10.7685 47.7639 10.7828 47.8653 10.7828C48.1617 10.7828 48.4094 10.682 48.6081 10.4796C48.8068 10.2771 48.9064 10.0281 48.9064 9.73165V6.57677C48.9064 6.43228 48.8559 6.30898 48.7544 6.20811C48.6538 6.1066 48.5305 6.05615 48.3857 6.05615C48.2412 6.05615 48.1187 6.10721 48.0173 6.20811ZM58.0951 6.20811C57.9944 6.1066 57.8708 6.05615 57.7264 6.05615H50.2661C50.1213 6.05615 49.9988 6.10721 49.8973 6.20811C49.7959 6.30962 49.7454 6.43228 49.7454 6.57677C49.7454 6.7144 49.7921 6.83148 49.886 6.92925C49.9799 7.02702 50.0923 7.08306 50.2224 7.09738H53.4757V10.2628C53.4757 10.4073 53.5258 10.5306 53.6276 10.6315C53.7283 10.733 53.8516 10.7835 53.996 10.7835C54.1408 10.7835 54.2634 10.7324 54.3648 10.6315C54.4662 10.53 54.5168 10.4073 54.5168 10.2628V7.09738H57.7264C57.8708 7.09738 57.9937 7.04633 58.0951 6.94543C58.1966 6.84392 58.2471 6.72126 58.2471 6.57677C58.2471 6.43228 58.1966 6.30898 58.0951 6.20811ZM31.9863 10.7828C31.8275 10.7828 31.668 10.7486 31.5093 10.6801C31.3504 10.6116 31.2091 10.5157 31.0864 10.393C30.9637 10.2703 30.8622 10.1221 30.7825 9.94835C30.7028 9.77459 30.6629 9.57969 30.6629 9.36295V8.3871C30.6629 8.1922 30.719 8.06203 30.8311 7.99665C30.9432 7.93187 31.1182 7.89888 31.3573 7.89888H38.6343C38.7788 7.89888 38.9021 7.94933 39.0027 8.05083C39.1042 8.1517 39.1547 8.275 39.1547 8.41949C39.1547 8.56398 39.1042 8.68664 39.0027 8.78815C38.9013 8.88905 38.7788 8.94011 38.6343 8.94011H31.7048V9.47132C31.7048 9.54357 31.7353 9.60706 31.797 9.66125C31.8586 9.71543 31.9396 9.74284 32.0411 9.74284H38.8734C39.0178 9.74284 39.1411 9.7933 39.2418 9.8948C39.3436 9.99567 39.3938 10.119 39.3938 10.2635C39.3938 10.408 39.3436 10.5306 39.2418 10.6321C39.1404 10.733 39.0178 10.7841 38.8734 10.7841H31.9863V10.7828ZM30.8155 6.20811C30.714 6.30962 30.6636 6.43228 30.6636 6.57677C30.6636 6.72126 30.714 6.84392 30.8155 6.94543C30.9164 7.04693 31.0397 7.09738 31.1842 7.09738H38.8727C39.0171 7.09738 39.14 7.04633 39.2414 6.94543C39.3429 6.84392 39.3934 6.72126 39.3934 6.57677C39.3934 6.43228 39.3429 6.30898 39.2414 6.20811C39.1404 6.1066 39.0171 6.05615 38.8727 6.05615H31.1842C31.0397 6.05615 30.917 6.10721 30.8155 6.20811ZM21.78 9.7422V7.09678V7.09554H27.3543C27.6002 7.09554 27.8027 7.14097 27.9614 7.23128C28.1209 7.32159 28.2454 7.4318 28.3357 7.56197C28.426 7.69213 28.4877 7.83474 28.5201 7.99043C28.5524 8.14612 28.5686 8.28873 28.5686 8.41885C28.5686 8.54901 28.5524 8.69162 28.5201 8.84731C28.4877 9.003 28.426 9.14561 28.3357 9.27577C28.2454 9.40594 28.1203 9.51615 27.9614 9.60646C27.8027 9.69677 27.6002 9.7422 27.3543 9.7422H21.78Z" fill="#4A4A4A"/>
</g>
</g>
<defs>
<clipPath id="clip0_4925_26779">
<rect width="58.4453" height="16.968" fill="white" transform="translate(0 0.0161133)"/>
</clipPath>
</defs>
</svg>
