<svg width="171" height="38" viewBox="0 0 171 38" fill="none" xmlns="http://www.w3.org/2000/svg">
<g clip-path="url(#clip0_122_705)">
<path d="M90.7425 14.6895L87.4506 24.4192L84.1489 14.6895H81.2271L86.2819 28.0521H88.6096L93.6645 14.6895H90.7425Z" fill="white"/>
<path d="M113.21 14.4019C112.517 14.4135 111.833 14.5653 111.201 14.8481C110.568 15.1311 109.999 15.5392 109.528 16.0478V14.694H106.821V28.0568H109.528V18.6386C109.909 18.0939 110.403 17.638 110.976 17.3018C111.549 16.9657 112.188 16.7572 112.85 16.6907C113.164 16.6586 113.481 16.6979 113.778 16.8058C114.075 16.9138 114.344 17.0875 114.564 17.314C114.972 17.9574 115.157 18.7172 115.09 19.4762V28.0568H117.827V19.369C117.827 16.0673 116.249 14.4019 113.21 14.4019Z" fill="white"/>
<path d="M122.979 11.4565H120.281V14.6803H118.684V17.3782H120.281V24.0498C120.267 24.7871 120.323 25.524 120.447 26.2509C120.557 26.8203 120.877 27.3276 121.343 27.6729C121.998 28.0894 122.771 28.2809 123.544 28.2183C124.109 28.223 124.673 28.174 125.229 28.0722H125.384V25.9296H125.151C124.785 25.9943 124.413 26.0269 124.041 26.0269C123.897 26.0376 123.753 26.016 123.618 25.9638C123.483 25.9115 123.361 25.83 123.262 25.725C123.135 25.5886 122.979 25.2088 122.979 24.1666V17.349H125.384V14.69H122.979V11.4565Z" fill="white"/>
<path d="M51.8915 18.957V18.9083C52.8173 18.6982 53.6389 18.1675 54.2111 17.4099C54.7832 16.6524 55.069 15.7169 55.0179 14.769C55.0179 11.7107 52.5537 10.2693 49.2521 10.2693H41.0903V28.0147H48.5606C51.7356 28.0147 55.4757 27.1284 55.4757 22.882C55.4952 20.7101 54.268 19.4439 51.8915 18.957ZM45.814 13.6197H47.1872C48.765 13.6197 50.2845 13.7755 50.2845 15.3923C50.2845 17.0091 48.6774 17.2817 47.1386 17.2817H45.8237L45.814 13.6197ZM47.2165 24.6838H45.8237V20.4861H47.2749C48.9015 20.4861 50.7616 20.6614 50.7616 22.5995C50.7616 24.5378 48.9502 24.6838 47.2165 24.6838Z" fill="white"/>
<path d="M67.29 19.2684V19.2197C68.3156 19.0384 69.2354 18.478 69.8669 17.6497C70.4985 16.8216 70.7955 15.7862 70.6989 14.7493C70.6989 11.7008 68.1276 10.269 64.9818 10.269H56.5278V28.0144H61.2515V20.9923H62.2254C63.9786 20.9923 64.5921 21.7617 65.5564 24.8102L66.5304 28.0144H71.4586L69.7347 23.1447C68.9068 21.0215 68.8094 19.6677 67.29 19.2684ZM62.5079 17.6321H61.2612V13.6194H62.5079C64.3097 13.6194 65.9655 13.9214 65.9655 15.5673C65.9655 17.5834 64.0272 17.6321 62.5079 17.6321Z" fill="white"/>
<path d="M77.0485 10.2598H72.3149V28.0052H77.0485V10.2598Z" fill="white"/>
<path d="M31.1466 1.30908H6.39836C4.93799 1.32706 3.54445 1.92382 2.52369 2.96832C1.50292 4.01283 0.938355 5.41972 0.953947 6.8801V31.3945C0.938048 32.8401 1.49059 34.234 2.49255 35.276C3.49449 36.318 4.86567 36.9248 6.3107 36.9655H31.1466C32.6069 36.9476 34.0004 36.3508 35.0212 35.3063C36.042 34.2618 36.6066 32.8549 36.591 31.3945V6.8801C36.6066 5.41972 36.042 4.01283 35.0212 2.96832C34.0004 1.92382 32.6069 1.32706 31.1466 1.30908ZM9.3397 34.1119H7.98589C7.20227 34.0965 6.45621 33.7731 5.90934 33.2116C5.36245 32.6502 5.05876 31.8958 5.06403 31.1121V7.03593C5.06403 6.26101 5.37187 5.51782 5.91983 4.96987C6.46778 4.4219 7.21097 4.11407 7.98589 4.11407H10.6935C11.9137 4.14977 13.0709 4.6643 13.9147 5.54643C14.7586 6.42857 15.2213 7.6074 15.2029 8.82801C15.2073 10.036 14.7429 11.1987 13.9076 12.0713L6.85612 19.2006L13.4205 25.8819C14.2817 26.7542 14.7676 27.9287 14.7743 29.1545C14.7087 30.5317 14.0998 31.8267 13.0812 32.756C12.0626 33.6851 10.7171 34.1727 9.3397 34.1119ZM29.5201 34.1119H17.2775C18.0134 32.5501 18.4904 30.8792 18.6896 29.1642C18.7482 27.0834 18.0569 25.0508 16.7417 23.4374L12.5537 19.1714L16.8294 14.7593C17.5425 13.9898 18.0963 13.0867 18.459 12.1022C18.8218 11.1177 18.9862 10.0711 18.9429 9.02281C18.9834 7.29724 18.5012 5.59975 17.5599 4.15303H20.4817C21.7019 4.18872 22.8591 4.70326 23.7029 5.58539C24.5469 6.46753 25.0096 7.64636 24.9912 8.86698C24.9956 10.075 24.5312 11.2376 23.6958 12.1102L16.8392 19.1324L31.1466 33.6736C30.6553 33.9652 30.091 34.1105 29.5201 34.0924V34.1119ZM32.5004 29.5538L22.2738 19.1324L27.1436 14.1847C28.2408 12.6803 28.8093 10.855 28.7604 8.99358C28.7895 7.2667 28.3011 5.57062 27.3579 4.12381L29.5396 4.19199C30.3249 4.19454 31.0775 4.50699 31.6337 5.06142C32.1901 5.61586 32.5049 6.36745 32.5101 7.15281L32.5004 29.5538Z" fill="white"/>
<path d="M138.437 28.0521V14.6895H135.711V22.6856C135.714 23.0686 135.646 23.4489 135.506 23.8056C135.281 24.3986 134.88 24.9094 134.359 25.2709C133.838 25.6324 133.218 25.8278 132.583 25.8315C130.782 25.8315 129.916 24.5459 129.916 21.9357V14.6895H127.188V22.3447C127.188 27.6041 130.422 28.1884 131.815 28.1884C132.619 28.2062 133.416 28.0284 134.137 27.6705C134.858 27.3126 135.482 26.7852 135.954 26.1334V28.0813L138.437 28.0521Z" fill="white"/>
<path d="M163.604 18.2493C163.604 17.1001 164.675 16.6325 165.766 16.6325C166.957 16.6113 168.114 17.027 169.019 17.8013L169.992 15.8534C168.824 14.8286 167.299 14.304 165.747 14.3924C163.117 14.3924 160.974 15.7462 160.974 18.1421C160.974 22.4374 167.791 21.9503 167.791 24.3658C167.791 25.4371 166.7 26.0117 165.599 26.0117C164.193 25.9866 162.846 25.4379 161.821 24.4728L160.682 26.3331C162.031 27.6138 163.828 28.3135 165.688 28.281C168.609 28.281 170.46 26.6448 170.46 24.4534C170.421 20.0998 163.604 20.6258 163.604 18.2493Z" fill="white"/>
<path d="M147.768 14.4837C147.552 14.4516 147.334 14.4353 147.116 14.4351C146.137 14.4764 145.198 14.8324 144.438 15.45C143.679 16.0677 143.139 16.9141 142.898 17.8633H142.849C142.882 17.5397 142.898 17.2147 142.898 16.8894V14.6882H140.424V28.0509H142.977V22.4507C142.96 21.641 143.065 20.8333 143.288 20.0547C143.478 19.1866 143.95 18.4056 144.629 17.8332C145.31 17.2606 146.159 16.9289 147.047 16.8894C147.296 16.8904 147.543 16.9164 147.787 16.9673L147.768 14.4837Z" fill="white"/>
<path d="M99.9448 14.4883C96.2048 14.4883 93.3706 17.1861 93.3706 21.3742C93.3434 22.2891 93.5041 23.1999 93.8431 24.0502C94.182 24.9005 94.6917 25.6724 95.3407 26.3177C95.9899 26.9632 96.7644 27.4685 97.6167 27.8026C98.4689 28.1368 99.3806 28.2924 100.295 28.26C102.163 28.2671 103.97 27.6035 105.389 26.3901L104.347 24.5493C103.262 25.49 101.887 26.0298 100.451 26.0783C99.8702 26.1034 99.2901 26.0103 98.7461 25.8044C98.2021 25.5986 97.7056 25.2844 97.2867 24.8809C96.8678 24.4776 96.5352 23.9932 96.309 23.4573C96.0828 22.9215 95.9679 22.3454 95.9711 21.7637H105.555C105.555 21.7637 105.633 21.0138 105.633 20.673C105.633 17.2446 103.665 14.4883 99.9448 14.4883ZM96.049 19.8353C96.1537 18.8963 96.6072 18.0309 97.3196 17.4103C98.0321 16.7899 98.9517 16.4596 99.8961 16.4849C101.581 16.4849 102.984 17.5757 103.061 19.8353H96.049Z" fill="white"/>
<path d="M154.332 14.4883C150.592 14.4883 147.757 17.1861 147.757 21.3742C147.73 22.2926 147.892 23.2068 148.233 24.0598C148.574 24.9128 149.087 25.6865 149.741 26.3325C150.394 26.9785 151.174 27.483 152.03 27.8146C152.887 28.1463 153.804 28.2979 154.721 28.26C156.588 28.2671 158.396 27.6035 159.815 26.3901L158.733 24.5395C157.648 25.4802 156.274 26.02 154.838 26.0686C154.257 26.0936 153.679 26.0007 153.136 25.7955C152.592 25.5903 152.096 25.277 151.677 24.8746C151.259 24.4722 150.925 23.989 150.698 23.4544C150.472 22.9196 150.356 22.3446 150.358 21.7637H159.942C159.942 21.7637 160.019 21.0138 160.019 20.673C160.029 17.2446 158.052 14.4883 154.332 14.4883ZM150.436 19.8353C150.54 18.8963 150.994 18.0309 151.706 17.4103C152.418 16.7899 153.338 16.4596 154.283 16.4849C155.967 16.4849 157.37 17.5757 157.448 19.8353H150.436Z" fill="white"/>
</g>
<defs>
<clipPath id="clip0_122_705">
<rect width="170.407" height="36.7786" fill="white" transform="translate(0.416504 0.292969)"/>
</clipPath>
</defs>
</svg>
