<svg width="209" height="269" viewBox="0 0 209 269" fill="none" xmlns="http://www.w3.org/2000/svg">
<path d="M154.322 268.141L79.013 268.141C52.058 268.141 32.099 260.982 19.136 246.664C6.37865 232.347 0 213.818 0 191.078L0 102.329C0 90.7489 1.6461 80.7476 4.93831 72.3254C8.23052 63.6927 13.0659 56.5338 19.4446 50.8489L59.5684 16.4232C65.947 10.9488 74.0747 6.84301 83.9513 4.10581C93.8279 1.3686 105.454 0 118.828 0L194.137 0C199.076 0 202.676 1.15805 204.94 3.47414C207.203 5.79025 208.335 9.47495 208.335 14.5282V52.7439C208.335 55.4811 207.923 57.7972 207.1 59.6922C206.483 61.5871 205.454 63.1663 204.014 64.4296L163.89 98.5394C163.067 99.3816 161.73 100.119 159.878 100.75C158.232 101.382 156.38 101.698 154.322 101.698H116.359V155.073C116.359 159.495 117.696 162.653 120.371 164.548C123.046 166.233 126.956 167.075 132.1 167.075L194.137 167.075C199.076 167.075 202.676 168.233 204.94 170.549C207.203 172.865 208.335 176.55 208.335 181.603L208.335 219.187C208.335 221.924 207.923 224.24 207.1 226.135C206.483 228.03 205.454 229.609 204.014 230.873L163.89 264.983C163.067 265.825 161.73 266.562 159.878 267.193C158.232 267.825 156.38 268.141 154.322 268.141ZM194.137 230.557C198.047 230.557 200.825 229.715 202.471 228.03C204.323 226.135 205.249 223.188 205.249 219.187L205.249 181.603C205.249 177.603 204.323 174.76 202.471 173.076C200.825 171.181 198.047 170.233 194.137 170.233L132.1 170.233C125.721 170.233 120.989 169.075 117.902 166.759C114.816 164.232 113.273 160.337 113.273 155.073L113.273 79.9054C113.273 74.6415 114.816 70.7463 117.902 68.2196C120.989 65.4824 125.721 64.1138 132.1 64.1138L194.137 64.1138C198.047 64.1138 200.825 63.2716 202.471 61.5871C204.323 59.6921 205.249 56.7444 205.249 52.7439V14.5282C205.249 10.5277 204.323 7.68524 202.471 6.0008C200.825 4.10581 198.047 3.15832 194.137 3.15832L118.828 3.15832C93.1077 3.15832 73.9718 8.52745 61.4202 19.2657C49.0745 29.7934 42.9016 46.0061 42.9016 67.9038L42.9016 166.127C42.9016 188.025 49.0745 204.238 61.4202 214.765C73.9718 225.293 93.1077 230.557 118.828 230.557L194.137 230.557ZM177.162 198.974V202.132H125.618C105.659 202.132 92.3876 198.974 85.8031 192.657C79.4245 186.341 76.2352 175.918 76.2352 161.39L76.2352 72.9571C76.2352 58.0077 79.5274 47.3747 86.1118 41.0581C92.6962 34.7415 105.865 31.5831 125.618 31.5831L177.162 31.5831V34.7415L125.618 34.7415C107.511 34.7415 95.2682 37.6892 88.8896 43.5847C82.5109 49.2697 79.3216 59.0605 79.3216 72.9571L79.3216 161.39C79.3216 175.076 82.4081 184.761 88.5809 190.446C94.7538 196.131 107.1 198.974 125.618 198.974H177.162Z" fill="#EDEDED"/>
</svg>
