<svg width="209" height="269" viewBox="0 0 209 269" fill="none" xmlns="http://www.w3.org/2000/svg">
<path d="M54.0127 268.141L129.322 268.141C156.277 268.141 176.236 260.982 189.199 246.664C201.956 232.347 208.335 213.818 208.335 191.078V102.329C208.335 90.7489 206.689 80.7476 203.397 72.3254C200.104 63.6927 195.269 56.5338 188.89 50.8489L148.767 16.4232C142.388 10.9488 134.26 6.84301 124.384 4.10581C114.507 1.3686 102.881 0 89.5069 0L14.1976 0C9.25931 0 5.65847 1.15805 3.39508 3.47414C1.13168 5.79025 -1.99276e-05 9.47495 -1.99276e-05 14.5282V52.7439C-1.99276e-05 55.4811 0.411508 57.7972 1.23456 59.6922C1.85185 61.5871 2.88066 63.1663 4.321 64.4296L44.4448 98.5394C45.2678 99.3816 46.6053 100.119 48.4571 100.75C50.1033 101.382 51.9551 101.698 54.0127 101.698H91.976V155.073C91.976 159.495 90.6386 162.653 87.9636 164.548C85.2887 166.233 81.3792 167.075 76.2352 167.075L14.1976 167.075C9.25931 167.075 5.65847 168.233 3.39508 170.549C1.13168 172.865 -1.99276e-05 176.55 -1.99276e-05 181.603L-1.99276e-05 219.187C-1.99276e-05 221.924 0.411508 224.24 1.23456 226.135C1.85185 228.03 2.88066 229.609 4.321 230.873L44.4448 264.983C45.2678 265.825 46.6053 266.562 48.4571 267.193C50.1033 267.825 51.9551 268.141 54.0127 268.141ZM14.1976 230.557C10.2881 230.557 7.51033 229.715 5.86422 228.03C4.01236 226.135 3.08642 223.188 3.08642 219.187L3.08642 181.603C3.08642 177.603 4.01236 174.76 5.86422 173.076C7.51033 171.181 10.2881 170.233 14.1976 170.233L76.2352 170.233C82.6138 170.233 87.3463 169.075 90.4328 166.759C93.5192 164.232 95.0625 160.337 95.0625 155.073L95.0625 79.9054C95.0625 74.6415 93.5192 70.7463 90.4328 68.2196C87.3463 65.4824 82.6138 64.1138 76.2352 64.1138L14.1976 64.1138C10.2881 64.1138 7.51033 63.2716 5.86422 61.5871C4.01236 59.6921 3.08642 56.7444 3.08642 52.7439V14.5282C3.08642 10.5277 4.01236 7.68524 5.86422 6.0008C7.51033 4.10581 10.2881 3.15832 14.1976 3.15832L89.5069 3.15832C115.227 3.15832 134.363 8.52745 146.915 19.2657C159.261 29.7934 165.433 46.0061 165.433 67.9038L165.433 166.127C165.433 188.025 159.261 204.238 146.915 214.765C134.363 225.293 115.227 230.557 89.5069 230.557L14.1976 230.557ZM31.1731 198.974V202.132H82.7167C102.676 202.132 115.947 198.974 122.532 192.657C128.91 186.341 132.1 175.918 132.1 161.39L132.1 72.9571C132.1 58.0077 128.808 47.3747 122.223 41.0581C115.639 34.7415 102.47 31.5831 82.7167 31.5831L31.1731 31.5831V34.7415L82.7167 34.7415C100.824 34.7415 113.067 37.6892 119.445 43.5847C125.824 49.2697 129.013 59.0605 129.013 72.9571L129.013 161.39C129.013 175.076 125.927 184.761 119.754 190.446C113.581 196.131 101.235 198.974 82.7167 198.974H31.1731Z" fill="#EDEDED"/>
</svg>
