<svg width="153" height="24" viewBox="0 0 153 24" fill="none" xmlns="http://www.w3.org/2000/svg">
<path d="M111.098 10.6974L114.905 4.104H107.292L111.098 10.6974Z" fill="black"/>
<path d="M119.079 14.3979L122.886 20.9913H115.273L119.079 14.3979Z" fill="black"/>
<path d="M112.467 20.9921H106.568L117.47 4.104H123.369L112.467 20.9921Z" fill="black"/>
<path d="M125.723 14.2407C125.684 14.2414 125.644 14.2341 125.607 14.2193C125.57 14.2045 125.536 14.1825 125.508 14.1545C125.479 14.1273 125.456 14.0943 125.44 14.0576C125.425 14.021 125.417 13.9814 125.418 13.9416V13.265C125.42 13.2064 125.435 13.1489 125.461 13.0961L131.426 6.16096H125.83C125.629 6.16096 125.528 6.06285 125.528 5.86663V5.22022C125.528 5.03664 125.629 4.94485 125.83 4.94485H132.784C132.86 4.94386 132.934 4.97188 132.99 5.02328C133.019 5.04977 133.042 5.08225 133.057 5.11843C133.072 5.15462 133.078 5.19363 133.077 5.23272V5.92222C133.075 5.99069 133.056 6.05755 133.02 6.11615L127.126 13.0271H132.803C132.877 13.0241 132.951 13.0486 133.009 13.0961C133.063 13.1418 133.09 13.2172 133.09 13.321V13.939C133.09 14.0157 133.061 14.0894 133.009 14.1459C132.984 14.176 132.952 14.2002 132.917 14.2164C132.881 14.2327 132.842 14.2407 132.803 14.2398L125.723 14.2407Z" fill="black"/>
<path d="M140.827 4.94721C141.019 4.94721 141.115 5.04776 141.115 5.24887V5.86856C141.116 5.94374 141.09 6.01695 141.043 6.07498C140.994 6.13359 140.918 6.16117 140.814 6.16117H135.769V8.73388H139.738C139.809 8.73225 139.877 8.7556 139.932 8.79981C139.987 8.84319 140.014 8.91717 140.014 9.02175V9.6604C140.015 9.73312 139.99 9.80386 139.945 9.86079C139.92 9.89037 139.888 9.91358 139.852 9.92855C139.816 9.94353 139.777 9.94984 139.738 9.94698H135.769V13.0265H140.839C141.031 13.0265 141.127 13.1244 141.127 13.3204V13.9668C141.127 14.1507 141.035 14.2426 140.852 14.2426H134.831C134.647 14.2426 134.555 14.1564 134.555 13.9797V5.23465C134.555 5.04288 134.647 4.94678 134.831 4.94678L140.827 4.94721Z" fill="black"/>
<path d="M149.414 13.9651C149.468 14.0487 149.489 14.1155 149.477 14.1655C149.464 14.2155 149.406 14.2409 149.301 14.2409H148.381C148.31 14.242 148.24 14.2212 148.181 14.1814C148.114 14.1333 148.055 14.0752 148.006 14.009L145.722 10.6356L143.45 14.009C143.404 14.0757 143.347 14.1341 143.281 14.1814C143.222 14.2213 143.152 14.2421 143.081 14.2409H142.154C142.05 14.2409 141.991 14.2155 141.978 14.1655C141.966 14.1155 141.989 14.0487 142.047 13.9651L145.021 9.60267L144.228 8.43526L143.453 7.29326C143.2 6.92179 142.956 6.56397 142.72 6.21979C142.484 5.87562 142.264 5.55744 142.06 5.26526C141.976 5.13986 141.95 5.05539 141.981 5.01187C142.012 4.96834 142.093 4.94593 142.222 4.94593H142.998C143.084 4.94137 143.17 4.96203 143.245 5.0054C143.327 5.06629 143.4 5.13889 143.461 5.22087L145.721 8.55161L147.993 5.22174C148.055 5.13891 148.129 5.0662 148.212 5.00627C148.289 4.96317 148.375 4.94255 148.463 4.9468H149.233C149.366 4.9468 149.448 4.96877 149.48 5.01273C149.511 5.05669 149.485 5.14201 149.402 5.26612C149.197 5.5583 148.977 5.87648 148.741 6.22066L148.006 7.29413C147.751 7.6656 147.492 8.04626 147.226 8.43612C146.961 8.82598 146.7 9.21511 146.441 9.60353L149.414 13.9651Z" fill="black"/>
<path d="M125.46 15.9855C125.46 15.893 125.504 15.8467 125.593 15.8467H127.033C127.216 15.8451 127.397 15.8815 127.565 15.9536C127.806 16.0585 128.01 16.2316 128.154 16.4515C128.297 16.6713 128.373 16.9284 128.372 17.1908C128.373 17.3649 128.339 17.5373 128.272 17.6981C128.14 18.0183 127.89 18.2753 127.574 18.4151C127.408 18.4884 127.229 18.5254 127.048 18.5237H126.019V20.0217C126.022 20.0393 126.021 20.0573 126.015 20.0743C126.01 20.0913 126 20.1067 125.988 20.1193C125.975 20.1319 125.96 20.1414 125.943 20.1469C125.926 20.1524 125.908 20.1538 125.89 20.151H125.586C125.568 20.1538 125.55 20.1524 125.533 20.1469C125.516 20.1414 125.501 20.1319 125.488 20.1193C125.476 20.1067 125.466 20.0913 125.461 20.0743C125.455 20.0573 125.454 20.0393 125.456 20.0217L125.46 15.9855ZM127.812 17.1852C127.813 17.0836 127.792 16.983 127.752 16.8896C127.672 16.7012 127.524 16.5497 127.338 16.4651C127.242 16.4215 127.138 16.3993 127.033 16.4001H126.019V17.9704H127.033C127.136 17.9708 127.238 17.949 127.332 17.9066C127.425 17.8653 127.509 17.8068 127.581 17.7343C127.652 17.6618 127.71 17.5768 127.75 17.4834C127.792 17.3895 127.813 17.2879 127.812 17.1852Z" fill="black"/>
<path d="M129.163 15.9855C129.163 15.893 129.206 15.8467 129.292 15.8467H130.964C131.149 15.8451 131.332 15.8821 131.503 15.9553C131.665 16.0252 131.813 16.1256 131.937 16.251C132.193 16.5099 132.335 16.8591 132.334 17.2227C132.334 17.3541 132.315 17.4847 132.278 17.6106C132.241 17.7322 132.188 17.8481 132.12 17.9553C132.052 18.0614 131.97 18.1574 131.876 18.2406C131.781 18.3249 131.675 18.3957 131.561 18.4509L132.326 20.0217V20.0587C132.326 20.1186 132.29 20.1488 132.219 20.1488H131.868C131.808 20.1488 131.762 20.113 131.729 20.0415L131.033 18.5819C131.016 18.5837 130.999 18.5846 130.982 18.5845C130.964 18.5845 130.939 18.5845 130.904 18.5845C130.869 18.5845 130.826 18.5845 130.77 18.5845H129.727V20.0187C129.727 20.1049 129.682 20.1479 129.593 20.1479H129.292C129.274 20.1508 129.256 20.1494 129.239 20.1438C129.222 20.1383 129.207 20.1289 129.194 20.1163C129.182 20.1037 129.172 20.0882 129.167 20.0713C129.161 20.0543 129.16 20.0363 129.163 20.0187V15.9855ZM131.776 17.2171C131.776 17.1115 131.755 17.007 131.714 16.9099C131.673 16.8138 131.614 16.7261 131.541 16.6513C131.468 16.575 131.38 16.5135 131.283 16.4703C131.181 16.4246 131.071 16.4013 130.96 16.4022H129.725V18.0333H130.975C131.084 18.0341 131.193 18.0114 131.294 17.9665C131.39 17.924 131.476 17.8629 131.549 17.7868C131.62 17.7118 131.677 17.6241 131.717 17.5283C131.757 17.4295 131.777 17.3237 131.776 17.2171Z" fill="black"/>
<path d="M137.953 15.9095C137.958 15.8915 137.969 15.8756 137.983 15.8641C137.998 15.8527 138.016 15.8462 138.034 15.8457H138.411C138.428 15.8436 138.446 15.8449 138.462 15.8497C138.479 15.8544 138.494 15.8624 138.508 15.8733C138.525 15.892 138.533 15.9164 138.532 15.9414V15.9789L137.869 17.5781L138.575 19.2993L139.928 15.9526C139.938 15.9202 139.958 15.8922 139.986 15.8728C140.014 15.8534 140.047 15.8439 140.081 15.8457H140.38C140.416 15.8418 140.451 15.8516 140.48 15.8733C140.489 15.8822 140.496 15.8928 140.501 15.9045C140.505 15.9162 140.508 15.9287 140.507 15.9414V15.9672L138.818 20.0263C138.816 20.0338 138.814 20.0412 138.811 20.0482C138.805 20.0629 138.797 20.0766 138.786 20.0887C138.773 20.1047 138.757 20.1184 138.74 20.1293C138.719 20.1423 138.695 20.1489 138.67 20.1482H138.473C138.454 20.1497 138.434 20.1472 138.415 20.1407C138.397 20.1343 138.379 20.1241 138.365 20.1107C138.344 20.0928 138.331 20.0679 138.329 20.0409L137.584 18.2564L136.845 20.0263C136.836 20.0588 136.818 20.0885 136.794 20.1124C136.784 20.1238 136.771 20.1328 136.757 20.139C136.743 20.1452 136.727 20.1485 136.712 20.1486H136.506C136.488 20.1496 136.471 20.1465 136.454 20.1398C136.437 20.133 136.423 20.1226 136.411 20.1094C136.391 20.0884 136.374 20.0644 136.361 20.0383L134.678 15.9793C134.675 15.9737 134.673 15.9679 134.671 15.9621C134.668 15.9536 134.666 15.9447 134.667 15.9358C134.667 15.8759 134.704 15.8461 134.779 15.8461H135.104C135.133 15.8462 135.162 15.8564 135.185 15.875C135.213 15.8997 135.235 15.9318 135.246 15.9677L136.602 19.2997L137.953 15.9095Z" fill="black"/>
<path d="M141.135 15.9744C141.134 15.9413 141.146 15.9092 141.168 15.8844C141.18 15.8716 141.194 15.8617 141.211 15.8552C141.227 15.8487 141.245 15.8459 141.262 15.8469H141.564C141.598 15.8467 141.631 15.8589 141.656 15.8814C141.67 15.8928 141.68 15.9071 141.687 15.9232C141.694 15.9394 141.698 15.9569 141.697 15.9744V20.0218C141.697 20.108 141.653 20.1511 141.564 20.1511H141.262C141.244 20.154 141.226 20.1527 141.209 20.1472C141.192 20.1417 141.177 20.1323 141.164 20.1197C141.152 20.107 141.142 20.0916 141.137 20.0746C141.131 20.0575 141.13 20.0395 141.133 20.0218L141.135 15.9744Z" fill="black"/>
<path d="M142.636 15.9855C142.636 15.8928 142.679 15.8467 142.765 15.8467H144.436C144.621 15.8451 144.804 15.8821 144.974 15.9553C145.137 16.0252 145.285 16.1256 145.409 16.251C145.665 16.5095 145.808 16.859 145.806 17.2227C145.806 17.3541 145.787 17.4847 145.75 17.6106C145.713 17.7322 145.66 17.8481 145.592 17.9553C145.524 18.0614 145.443 18.1574 145.348 18.2406C145.253 18.3249 145.147 18.3957 145.033 18.4509L145.798 20.0182V20.0587C145.798 20.1186 145.762 20.1488 145.69 20.1488H145.341C145.28 20.1488 145.234 20.113 145.202 20.0415L144.506 18.5815C144.489 18.5833 144.472 18.5841 144.455 18.5841C144.437 18.5841 144.412 18.5841 144.377 18.5841C144.342 18.5841 144.298 18.5841 144.242 18.5841H143.199V20.0182C143.199 20.1044 143.155 20.1475 143.066 20.1475H142.765C142.747 20.1504 142.729 20.1491 142.712 20.1436C142.695 20.1382 142.679 20.1287 142.667 20.1161C142.654 20.1034 142.645 20.088 142.639 20.071C142.634 20.0539 142.632 20.0359 142.635 20.0182L142.636 15.9855ZM145.249 17.2171C145.249 17.1116 145.228 17.0071 145.187 16.9099C145.146 16.8139 145.087 16.7263 145.015 16.6513C144.941 16.575 144.853 16.5136 144.756 16.4703C144.654 16.4245 144.544 16.4013 144.433 16.4022H143.198V18.0333H144.447C144.557 18.0341 144.666 18.0114 144.766 17.9665C144.862 17.924 144.949 17.8629 145.021 17.7868C145.093 17.7119 145.15 17.6242 145.189 17.5283C145.229 17.4295 145.25 17.3238 145.249 17.2171Z" fill="black"/>
<path d="M149.52 15.8467C149.609 15.8467 149.654 15.8929 149.654 15.9854V16.2724C149.654 16.3073 149.642 16.3411 149.62 16.3681C149.607 16.3825 149.59 16.3936 149.572 16.4006C149.554 16.4076 149.534 16.4104 149.514 16.4086H147.179V17.5993H149.016C149.049 17.5986 149.081 17.6094 149.106 17.6299C149.12 17.643 149.13 17.6592 149.137 17.677C149.143 17.6949 149.146 17.714 149.144 17.7329V18.0281C149.144 18.0619 149.133 18.0947 149.112 18.1212C149.1 18.1349 149.085 18.1458 149.069 18.1528C149.052 18.1598 149.034 18.1629 149.016 18.1617H147.179V19.5872H149.526C149.615 19.5872 149.66 19.6325 149.66 19.7234V20.0216C149.662 20.0392 149.661 20.0573 149.656 20.0742C149.65 20.0912 149.641 20.1066 149.628 20.1193C149.615 20.1319 149.6 20.1413 149.583 20.1468C149.566 20.1523 149.548 20.1537 149.53 20.1509H146.746C146.66 20.1509 146.617 20.1104 146.617 20.029V15.9798C146.617 15.8911 146.66 15.8467 146.746 15.8467H149.52Z" fill="black"/>
<path d="M150.489 3.14571H149.959V3.00781H151.179V3.14571H150.649V4.5161H150.489V3.14571Z" fill="black"/>
<path d="M153 3.00781V4.5161H152.847V3.30947L152.254 4.32434H152.179L151.586 3.31593V4.5161H151.433V3.00781H151.562L152.217 4.12826L152.864 3.00781H153Z" fill="black"/>
</svg>
