<svg width="153" height="24" viewBox="0 0 153 24" fill="none" xmlns="http://www.w3.org/2000/svg">
<g clip-path="url(#clip0_2143_4449)">
<g clip-path="url(#clip1_2143_4449)">
<path d="M110.056 7.74624V10.7759C110.564 10.1149 111.299 9.78441 112.259 9.78441C112.711 9.78441 113.106 9.83949 113.445 10.0047C113.841 10.1149 114.18 10.3353 114.462 10.6107C114.801 10.8861 115.027 11.2166 115.196 11.6022C115.366 11.9878 115.422 12.4836 115.422 13.0345C115.422 13.6404 115.309 14.1913 115.083 14.7421C114.857 15.2379 114.519 15.6786 114.01 16.0091C113.502 16.3396 112.937 16.5048 112.203 16.5048C111.186 16.5048 110.451 16.1743 110 15.5684V16.3396H108.023V7.74624H110.056ZM102.543 9.61915C106.384 9.61915 106.045 13.6404 106.045 13.6404H100.849C101.075 14.4116 101.752 14.9625 102.713 14.9625C103.899 14.9625 104.52 14.3014 104.52 14.3014L105.65 15.4031C105.085 15.954 104.294 16.4498 102.713 16.4498C100.284 16.4498 98.9846 14.8523 98.9846 13.1997C98.9846 11.5471 99.8884 9.61915 102.543 9.61915ZM150.049 9.56407C151.687 9.56407 152.76 10.17 152.76 10.17L152.026 11.6022C149.823 10.5005 148.863 11.2717 148.863 11.6573C148.863 12.0429 149.258 12.098 150.783 12.3734C152.309 12.6489 152.986 13.2548 152.986 14.2463C152.986 15.2379 152.083 16.3396 149.936 16.3396C147.79 16.3396 146.829 15.6786 146.829 15.6786L147.507 14.3014C149.202 15.348 151.122 15.0175 151.122 14.4116C151.122 13.9709 150.501 13.8607 149.823 13.7506L149.541 13.6955C149.428 13.6955 149.258 13.6404 149.145 13.6404C148.298 13.5302 146.999 13.0345 146.999 11.7675C146.942 10.4454 148.411 9.56407 150.049 9.56407ZM140.446 7.25047V12.4285L143.327 9.78441H145.643L142.819 12.4285L145.925 16.3947H143.61L141.463 13.6955L140.446 14.6319V16.3947H138.526V7.25047H140.446ZM133.611 9.56407C134.967 9.56407 136.153 10.2251 136.831 11.2166L135.193 12.1531C134.91 11.6022 134.289 11.2166 133.611 11.2166C132.594 11.2166 131.804 11.9878 131.804 12.9794C131.804 13.9709 132.594 14.7421 133.611 14.7421C134.289 14.7421 134.854 14.4116 135.136 13.8607L136.775 14.7421C136.097 15.6786 134.967 16.3396 133.611 16.3396C131.521 16.3396 129.883 14.7972 129.883 12.9243C129.827 11.0514 131.521 9.56407 133.611 9.56407ZM124.743 9.56407C126.833 9.56407 128.471 11.1065 128.471 12.9794C128.471 14.8523 126.776 16.3947 124.743 16.3947C122.653 16.3947 121.015 14.8523 121.015 12.9794C120.958 11.0514 122.653 9.56407 124.743 9.56407ZM90.7939 9.72932V16.2845H88.7039V9.72932H90.7939ZM86.8963 7.74624V9.39881H82.2643V11.6022H86.3314V13.1997H82.2643V16.2845H80.1743V7.74624H86.8963ZM95.2564 10.5556C95.2564 10.5556 95.9908 9.45389 97.5159 9.61915V11.437C97.5159 11.437 95.8778 11.0514 95.2564 12.7039V16.3396H93.2794V9.72932H95.1434L95.2564 10.5556ZM118.981 7.25047V16.2845H116.891V7.25047H118.981ZM111.694 11.2166C110.564 11.2166 110 11.8777 110 13.2548C110 13.7506 110.169 14.1913 110.451 14.5769C110.734 14.9074 111.186 15.0726 111.807 15.0726C112.203 15.0726 112.542 14.9625 112.767 14.7972C112.993 14.5769 113.163 14.3565 113.276 14.0811C113.389 13.8057 113.445 13.4751 113.445 13.1997C113.445 12.6489 113.332 12.1531 113.05 11.8226C112.711 11.3819 112.259 11.2166 111.694 11.2166ZM124.743 11.1615C123.726 11.1615 122.935 11.9327 122.935 12.9243C122.935 13.9158 123.726 14.687 124.743 14.687C125.76 14.687 126.55 13.9158 126.55 12.9243C126.494 11.9878 125.703 11.1615 124.743 11.1615ZM102.543 10.9963C101.527 10.9963 100.962 11.6022 100.792 12.3734H104.181C104.181 12.2082 103.842 10.9963 102.543 10.9963ZM89.7772 6.64453C90.455 6.64453 91.0199 7.1403 91.0199 7.74624C91.0199 8.35218 90.455 8.84795 89.7772 8.84795C89.0993 8.84795 88.5344 8.35218 88.5344 7.74624C88.5344 7.1403 89.0993 6.64453 89.7772 6.64453Z" fill="black"/>
<path d="M73.2386 5.11426C73.5775 5.11426 73.8035 5.3346 73.8035 5.66511V18.3348C73.8035 18.6653 73.5775 18.8856 73.2386 18.8856H60.0771C59.7382 18.8856 59.5122 18.6653 59.5122 18.3348V5.66511C59.5122 5.3346 59.7382 5.11426 60.0771 5.11426H73.2386ZM66.6861 8.91516L62.732 15.0297H70.6967L66.6861 8.91516Z" fill="black"/>
</g>
</g>
<defs>
<clipPath id="clip0_2143_4449">
<rect width="153" height="24" fill="white"/>
</clipPath>
<clipPath id="clip1_2143_4449">
<rect width="93.4864" height="13.7714" fill="white" transform="translate(59.5137 5.11426)"/>
</clipPath>
</defs>
</svg>
