<svg xmlns="http://www.w3.org/2000/svg" width="217" height="108" fill="none"><g clip-path="url(#a)"><path fill="#2C2C2C" d="M113.375 29.908a2.74 2.74 0 0 0-2.012 1.217c-.321.485-.47.967-.521 1.681a3.89 3.89 0 0 0 .647 2.493c.372.55.721.92 2.049 2.176.485.457.938.903 1.01.995.262.325.447.695.513 1.022.042.21.044.608.002.82-.089.442-.432.844-.84.986-.111.038-.185.047-.372.05-.228 0-.238-.003-.402-.082a.97.97 0 0 1-.329-.244 1.846 1.846 0 0 1-.232-.285c-.172-.291-.296-.66-.37-1.107l-.047-.27-.128.01c-.142.014-1.641.118-1.686.118-.036 0-.036.095.005.425.104.835.376 1.547.812 2.125.206.274.591.603.901.773.677.37 1.776.46 2.63.213.515-.149.981-.44 1.266-.79.367-.453.606-.955.729-1.544.074-.357.096-.969.04-1.287-.121-.73-.51-1.543-1.069-2.247-.391-.49-.695-.788-1.486-1.457-.455-.385-.681-.602-.874-.833-.415-.496-.681-1.035-.751-1.518a2.653 2.653 0 0 1 .043-.837c.087-.332.289-.633.512-.765.268-.155.674-.157.976-.006.115.06.268.202.366.346.149.215.295.629.329.92a.628.628 0 0 0 .03.149c.013.021.223-.01.946-.14l.929-.168-.015-.117a3.991 3.991 0 0 0-.389-1.307c-.455-.89-1.246-1.407-2.321-1.52a4.985 4.985 0 0 0-.891.005Z"/><path fill="#2C2C2C" fill-rule="evenodd" d="M123.079 29.906a2.996 2.996 0 0 0-1.28.48c-.744.501-1.233 1.26-1.357 2.108-.03.198-.032.703-.027 4.135v.018c.008 3.87.008 3.895.053 4.084a3.15 3.15 0 0 0 1.696 2.146c.43.206.762.274 1.329.274.451 0 .659-.032 1.012-.149.989-.329 1.81-1.251 2.016-2.263.074-.365.079-.61.07-4.396l-.001-.55c-.006-2.968-.007-3.262-.078-3.538a2.946 2.946 0 0 0-.026-.094l-.016-.056c-.223-.797-.838-1.528-1.607-1.91-.411-.207-.77-.29-1.285-.302-.193-.004-.416 0-.499.013Zm.625 1.963c.295.07.595.306.723.568l.017.034a.71.71 0 0 1 .024.048c.089.19.089.422.088 3.469v.896c.001 3.169.001 3.395-.084 3.585a.582.582 0 0 1-.021.044l-.003.006-.003.007-.008.016a1.388 1.388 0 0 1-.472.493 1.134 1.134 0 0 1-1.054-.002c-.264-.139-.5-.44-.564-.717-.015-.063-.023-1.343-.023-3.827 0-3.666 0-3.736.042-3.87.17-.552.764-.884 1.338-.75Z" clip-rule="evenodd"/><path fill="#2C2C2C" d="M130.669 31.125a2.74 2.74 0 0 1 2.012-1.217c.244-.028.648-.03.891-.005 1.075.113 1.866.63 2.321 1.52.196.383.336.856.389 1.307l.015.117-.929.168c-.723.13-.933.161-.946.14a.58.58 0 0 1-.03-.149c-.034-.291-.18-.705-.329-.92a1.161 1.161 0 0 0-.366-.346c-.302-.151-.708-.15-.976.006-.223.132-.425.433-.512.765a2.653 2.653 0 0 0-.043.837c.07.483.336 1.022.751 1.518.193.231.419.448.874.833.79.669 1.095.967 1.486 1.457.559.704.948 1.518 1.069 2.247.055.318.034.93-.04 1.287a3.545 3.545 0 0 1-.729 1.543c-.285.35-.751.642-1.266.79-.854.247-1.954.158-2.63-.212a3.23 3.23 0 0 1-.901-.773c-.436-.578-.708-1.29-.812-2.125-.041-.33-.041-.425-.005-.425.045 0 1.544-.105 1.686-.117l.128-.01.047.269c.074.446.198.816.37 1.107.038.066.142.194.231.285.126.13.196.18.33.244.164.079.174.081.402.081.187-.002.261-.01.372-.049.408-.142.751-.544.84-.986.042-.212.04-.61-.002-.82-.066-.327-.251-.697-.513-1.022-.072-.092-.525-.538-1.01-.995-1.329-1.256-1.677-1.626-2.049-2.176a3.89 3.89 0 0 1-.647-2.493c.051-.714.2-1.196.521-1.68ZM157.685 29.908a2.742 2.742 0 0 0-2.012 1.217c-.321.485-.469.967-.52 1.681a3.89 3.89 0 0 0 .646 2.493c.372.55.721.92 2.05 2.176.484.457.937.903 1.009.995.262.325.447.695.513 1.022.042.21.045.608.002.82-.089.442-.432.844-.84.986-.11.038-.185.047-.372.05-.227 0-.238-.003-.402-.082a.97.97 0 0 1-.329-.244 1.846 1.846 0 0 1-.232-.285c-.172-.291-.296-.66-.37-1.107l-.047-.27-.127.01c-.143.014-1.642.118-1.686.118-.037 0-.037.095.004.425.104.835.376 1.547.812 2.125.206.274.591.603.901.773.677.37 1.776.46 2.631.213.514-.149.98-.44 1.265-.79.368-.453.606-.955.729-1.544.074-.357.096-.969.04-1.287-.121-.73-.51-1.543-1.069-2.247-.391-.49-.695-.788-1.486-1.457-.455-.385-.681-.602-.874-.833-.415-.496-.681-1.035-.751-1.518a2.683 2.683 0 0 1 .043-.837c.087-.332.289-.633.512-.765.268-.155.674-.157.976-.006.115.06.268.202.366.346.149.215.295.629.329.92a.628.628 0 0 0 .03.149c.013.021.223-.01.946-.14l.929-.168-.014-.117a4.04 4.04 0 0 0-.389-1.307c-.455-.89-1.246-1.407-2.322-1.52a4.985 4.985 0 0 0-.891.005Z"/><path fill="#2C2C2C" fill-rule="evenodd" d="M100.764 42.975c0-.023 2.165-12.806 2.18-12.876l.01-.047h2.692l1.078 6.454.211 1.262v.001c.493 2.953.869 5.2.867 5.208 0 .01-.457.017-1.019.017h-1.016l-.013-.06-.08-.524-.001-.004-.148-.96-.221-1.427-1.021.004-1.018.006-.472 2.954-1.015.007c-.612.002-1.014-.002-1.014-.015Zm4.242-4.918c-.006-.025-.164-1.132-.351-2.458a313.32 313.32 0 0 0-.357-2.484c-.011-.052-.113.622-.372 2.443a582.395 582.395 0 0 0-.355 2.531c0 .01.325.017.723.017h.723l-.011-.049Z" clip-rule="evenodd"/><path fill="#2C2C2C" d="M139.759 42.994h1.935V30.052h-1.935v12.942Z"/><path fill="#2C2C2C" fill-rule="evenodd" d="M145.096 42.975c0-.023 2.164-12.806 2.179-12.876l.011-.047h2.691l1.29 7.724c.493 2.95.868 5.193.866 5.201 0 .01-.457.017-1.018.017h-1.016l-.013-.06-.082-.528-.148-.96-.221-1.427-1.021.004-1.018.006-.472 2.954-1.014.007c-.613.002-1.014-.002-1.014-.015Zm4.241-4.918a422.46 422.46 0 0 1-.35-2.458 287.51 287.51 0 0 0-.358-2.484c-.01-.052-.112.622-.372 2.443a853.58 853.58 0 0 0-.355 2.531c0 .01.325.017.723.017h.723l-.011-.049Z" clip-rule="evenodd"/><path fill="#2C2C2C" d="M164.763 42.994h1.935V30.052h-1.935v12.942Z"/><path fill="#2C2C2C" fill-rule="evenodd" d="M120.587 47.833a2.997 2.997 0 0 1 1.28-.48c.083-.013.306-.017.499-.013.515.012.874.095 1.285.301.769.383 1.384 1.114 1.607 1.911l.016.056.026.094c.071.276.072.57.078 3.538v.065l.001.267v.217c.009 3.787.004 4.032-.07 4.397-.206 1.012-1.027 1.934-2.016 2.263-.353.117-.561.15-1.012.15-.567 0-.899-.069-1.329-.275a3.151 3.151 0 0 1-1.696-2.146c-.045-.19-.045-.215-.053-4.085v-.017c-.005-3.432-.003-3.938.027-4.135.124-.848.613-1.607 1.357-2.108Zm2.628 2.05a1.158 1.158 0 0 0-.723-.567c-.574-.134-1.167.198-1.338.75-.042.134-.042.204-.042 3.87 0 2.484.008 3.764.023 3.827.088.38.438.725.83.818.265.062.552.026.788-.1a1.39 1.39 0 0 0 .481-.51l.001-.003.007-.014.009-.018.009-.02c.085-.19.085-.416.084-3.585v-.895c.001-3.048.001-3.28-.088-3.47a.714.714 0 0 0-.024-.048l-.001-.002-.008-.016-.008-.017Z" clip-rule="evenodd"/><path fill="#2C2C2C" d="M131.488 47.35a3.08 3.08 0 0 0-1.952 1.074 2.907 2.907 0 0 0-.685 1.449c-.042.246-.042.325-.036 4.193l.001.872c.004 2.857.004 3.148.087 3.414.009.03.02.06.032.093l.033.098c.134.402.349.757.662 1.088a2.983 2.983 0 0 0 1.677.931c.262.051.897.051 1.172 0 .61-.113 1.137-.397 1.603-.865.478-.478.742-.982.867-1.647.03-.161.034-.355.036-1.264v-1.073h-2.019l-.022 2.06-.057.137c-.266.62-.991.882-1.576.57-.27-.143-.514-.468-.567-.757-.032-.17-.03-7.423.002-7.572.064-.295.304-.616.57-.758.321-.17.727-.17 1.05.004.251.132.487.43.559.703.024.083.03.306.03.952v.846H135l-.01-.93c-.009-.717-.019-.968-.045-1.1a2.983 2.983 0 0 0-.872-1.638c-.457-.457-.918-.71-1.518-.837a4.62 4.62 0 0 0-1.067-.043ZM148.48 48.424a3.08 3.08 0 0 1 1.952-1.074c.23-.032.832-.008 1.068.043.599.127 1.061.38 1.518.837.478.478.744.98.872 1.639.025.131.036.382.044 1.098l.011.931h-2.046v-.846c0-.646-.006-.869-.029-.952a1.225 1.225 0 0 0-.56-.703 1.132 1.132 0 0 0-1.05-.004 1.232 1.232 0 0 0-.57.758c-.032.149-.034 7.402-.002 7.572.053.289.298.614.568.756.585.313 1.31.051 1.575-.57l.058-.135.021-2.061h2.02v1.073c-.002.91-.006 1.103-.036 1.264a2.967 2.967 0 0 1-.868 1.647c-.465.468-.993.752-1.603.865-.274.051-.91.051-1.171 0a2.983 2.983 0 0 1-1.678-.93 2.887 2.887 0 0 1-.661-1.089l-.034-.098a1.692 1.692 0 0 1-.031-.093c-.083-.266-.084-.557-.087-3.41v-.004l-.001-.369v-.503c-.007-3.868-.007-3.947.036-4.193.093-.548.304-.997.684-1.45Z"/><path fill="#2C2C2C" fill-rule="evenodd" d="M100.764 60.44h1.899c2.101 0 2.105 0 2.515-.137.585-.196 1.125-.574 1.465-1.029.177-.231.368-.608.466-.91.404-1.249.255-2.88-.347-3.788a2.357 2.357 0 0 0-.878-.82l-.149-.075.141-.083c.591-.344.975-.93 1.141-1.734.056-.272.079-.971.043-1.337-.075-.763-.319-1.4-.734-1.916-.402-.496-1.133-.897-1.926-1.052-.237-.047-.284-.047-1.912-.055h-.027l-1.697-.007v12.944Zm3.219-10.933c.457.098.808.442.949.935.099.347.102.929.008 1.307-.1.402-.359.759-.655.904-.234.116-.378.138-.931.138h-.485v-3.316h.485c.34 0 .525.011.629.032Zm.151 5.207c.721.206 1.082.914 1.046 2.04a2.311 2.311 0 0 1-.053.501c-.14.53-.421.916-.793 1.101-.257.128-.417.151-.989.151h-.476v-3.85l.57.01c.451.006.593.017.695.047Z" clip-rule="evenodd"/><path fill="#2C2C2C" d="M110.8 60.44V47.5h1.935v10.986h3.38v1.955H110.8ZM138.334 60.44h1.956v-4.075l.287-.578c.258-.525.287-.576.309-.53l.012.032.07.181c.158.403.522 1.335.936 2.4l.997 2.56 1.153.007c.92.004 1.15 0 1.141-.022l-1.562-3.825-1.552-3.795.942-1.868.686-1.364.647-1.284.391-.78h-2.09l-2.356 4.582-.011-4.582h-1.956v12.942ZM157.279 60.44V47.5h1.956v5.503h2.339V47.5h1.956v12.942h-1.956v-5.483h-2.339v5.483h-1.956Z"/><path fill="#2C2C2C" fill-rule="evenodd" d="M169.09 47.546c-.015.07-2.18 12.852-2.18 12.876 0 .013.402.017 1.015.015l1.014-.007.472-2.954 1.018-.006 1.021-.004.221 1.428.148.96.082.527.012.06h1.017c.561 0 1.018-.007 1.018-.017.002-.008-.373-2.251-.866-5.2l-1.29-7.725H169.1l-.01.047Zm1.711 5.5c.187 1.326.345 2.433.351 2.458l.011.05h-.723c-.398 0-.723-.007-.723-.018 0-.008.159-1.147.355-2.53.259-1.822.362-2.496.372-2.445.009.04.17 1.159.357 2.485Z" clip-rule="evenodd"/><path fill="#2C2C2C" d="M177.35 60.44V47.5h1.935v12.94h-1.935ZM182.793 60.44h1.935l.002-4.128c.002-3.12.009-4.112.028-4.065.013.034.616 1.889 1.341 4.122l1.321 4.061 1.046.007 1.046.004V47.499h-1.956l-.011 8.617-1.241-4.175c-.683-2.298-1.259-4.236-1.283-4.31l-.04-.132h-2.188v12.942Z"/><path fill="#2C2C2C" fill-rule="evenodd" d="M127.391 65.28a2.996 2.996 0 0 1 1.28-.48c.083-.013.306-.018.499-.013.515.012.874.095 1.284.301.77.383 1.385 1.114 1.608 1.91l.005.02.011.037.026.094c.071.276.072.57.078 3.537v.015l.001.535c.009 3.787.004 4.031-.07 4.397-.206 1.012-1.027 1.934-2.016 2.263-.353.117-.561.149-1.012.149-.567 0-.899-.068-1.329-.274a3.148 3.148 0 0 1-1.696-2.147c-.045-.188-.045-.214-.054-4.086v-.015c-.004-3.432-.002-3.938.028-4.135.123-.848.612-1.607 1.357-2.108Zm2.628 2.05a1.158 1.158 0 0 0-.723-.567c-.574-.134-1.168.198-1.338.75-.042.134-.042.204-.042 3.87 0 2.484.008 3.763.023 3.827.087.38.438.725.829.818.266.062.553.026.789-.1.16-.085.396-.331.472-.493l.014-.028a.563.563 0 0 0 .021-.044c.084-.19.084-.416.084-3.585v-.895c.001-3.048.001-3.28-.088-3.47a.712.712 0 0 0-.024-.048l-.004-.009a.582.582 0 0 1-.006-.011l-.005-.01-.002-.005Z" clip-rule="evenodd"/><path fill="#2C2C2C" d="M157.26 64.802a2.74 2.74 0 0 0-2.012 1.217c-.321.485-.47.967-.521 1.681a3.89 3.89 0 0 0 .647 2.493c.372.55.72.92 2.049 2.176.485.457.938.903 1.01.994.262.326.447.695.513 1.023.042.21.044.607.002.82-.09.442-.432.843-.84.986-.111.038-.185.047-.372.049-.228 0-.238-.002-.402-.081a.98.98 0 0 1-.33-.244 1.887 1.887 0 0 1-.231-.285c-.173-.291-.296-.661-.37-1.107l-.047-.27-.128.01c-.142.013-1.641.117-1.686.117-.036 0-.036.096.005.425.104.835.376 1.547.812 2.125.206.275.591.604.901.774.676.37 1.776.459 2.63.213.515-.15.981-.44 1.265-.791.368-.453.606-.954.73-1.543.074-.357.095-.969.04-1.288-.121-.729-.51-1.543-1.069-2.246-.392-.49-.696-.788-1.487-1.458-.455-.384-.68-.601-.873-.833-.415-.495-.681-1.035-.751-1.517a2.653 2.653 0 0 1 .043-.837c.087-.332.289-.633.512-.765.268-.155.674-.158.976-.007.115.06.268.202.366.347.148.214.295.629.329.92a.578.578 0 0 0 .03.149c.013.02.223-.011.946-.14l.929-.169-.015-.116a3.99 3.99 0 0 0-.389-1.307c-.455-.89-1.246-1.407-2.322-1.52a4.983 4.983 0 0 0-.89.005ZM100.764 77.888V64.946h1.935v12.942h-1.935ZM106.229 77.888h1.934l.002-4.13c.003-3.119.009-4.111.028-4.065.013.034.617 1.89 1.342 4.123l1.32 4.061 1.046.007 1.046.004V64.946h-1.956l-.01 8.617-1.242-4.176-1.282-4.31-.041-.131h-2.187v12.942Z"/><path fill="#2C2C2C" fill-rule="evenodd" d="M116.434 77.888V64.944l1.75.008c1.71.007 1.752.009 1.954.053a2.99 2.99 0 0 1 1.457.778c.476.455.776.989.914 1.63.036.168.038.395.038 4.014v3.836l-.057.238a3.003 3.003 0 0 1-.836 1.484c-.508.51-1.086.796-1.765.88-.123.014-.767.023-1.822.023h-1.633Zm4.102-10.33c-.141-.28-.46-.53-.759-.591-.068-.015-.37-.023-.759-.023h-.649v9.01h.655c.878 0 .997-.03 1.293-.327.176-.177.291-.391.325-.608.015-.092.023-1.282.023-3.592v-.339c.001-3.03.001-3.261-.088-3.45l-.012-.024a1.289 1.289 0 0 1-.012-.023l-.017-.033Z" clip-rule="evenodd"/><path fill="#2C2C2C" d="M135.655 77.888h1.935l.002-4.13c.002-3.119.009-4.111.028-4.065.013.034.616 1.89 1.341 4.123l1.321 4.061 1.046.007 1.046.004V64.946h-1.956l-.011 8.617-1.241-4.176c-.683-2.297-1.259-4.235-1.283-4.31l-.04-.131h-2.188v12.942ZM145.861 77.888V64.946h5.549v1.955h-3.614v3.528h2.636v1.955h-2.636v3.549h3.614v1.955h-5.549ZM164.338 77.888h1.935V64.946h-1.935v12.942Z"/><path fill="#2C2C2C" fill-rule="evenodd" d="M169.674 77.869c0-.024 2.165-12.806 2.18-12.876l.01-.047h2.692l1.29 7.724c.493 2.95.868 5.193.866 5.2 0 .011-.457.018-1.018.018h-1.017l-.012-.06-.082-.528-.148-.96-.221-1.427-1.021.004-1.018.006-.472 2.954-1.014.007c-.613.002-1.015-.003-1.015-.015Zm4.242-4.918c-.006-.025-.163-1.132-.351-2.458a265.777 265.777 0 0 0-.357-2.485c-.01-.05-.112.623-.372 2.444a850.642 850.642 0 0 0-.355 2.531c0 .01.325.017.723.017h.723l-.011-.049Z" clip-rule="evenodd"/><path fill="#C4D0D2" d="M62.082 33.128c2.833 1.585 5.34 3.562 7.386 6.1.103.085.22.151.347.195 0 .33.206.551.387.79a18.67 18.67 0 0 1 1.614 2.556 23.377 23.377 0 0 1 2.608 14.437 22.921 22.921 0 0 1-2.894 8.526c-.415.72-1.065 1.316-1.214 2.184-3.762.097-7.076-1.048-9.888-3.566a.78.78 0 0 0 .494-.26c2.557-2.527 4.131-5.552 4.43-9.142.34-4.08-.89-7.698-3.58-10.791-.388-.448-.697-1.078-1.431-1.115-.033-.527-.507-.658-.838-.903-1.645-1.191-3.439-2.07-5.47-2.393a8.777 8.777 0 0 0-2.73-.314 10.79 10.79 0 0 0-3.24.268c-3.094.722-5.717 2.226-7.792 4.662-2.985 3.508-4.03 7.53-3.202 12.025.56 3.041 2.029 5.602 4.304 7.717 2.676 2.488 5.842 3.727 9.475 3.833 1.389 1.72 2.885 3.329 4.642 4.69 1.445 1.12 3.054 1.963 4.635 2.857.013.239-.153.34-.337.407-2.289.83-4.629 1.429-7.076 1.555-.065-.046-.128-.121-.199-.131-3.057-.413-5.946-1.301-8.63-2.862-3.966-2.302-7.076-5.427-9.231-9.47-1.975-3.718-2.832-7.688-2.668-11.923.102-3.16.853-6.264 2.205-9.122a23.38 23.38 0 0 1 5.595-7.457c2.684-2.416 5.777-4.057 9.216-5.111 1.221-.373 2.496-.462 3.72-.806 2.45.121 4.862.66 7.13 1.594.254.1.494.233.78.218.431.362.963.51 1.452.752Z"/><path fill="#B4BDBE" d="M52.718 30.561c-1.224.344-2.5.433-3.72.806-3.44 1.054-6.528 2.695-9.215 5.111a23.38 23.38 0 0 0-5.594 7.457 23.065 23.065 0 0 0-2.205 9.123c-.165 4.234.684 8.204 2.667 11.923 2.152 4.036 5.265 7.164 9.231 9.47 2.684 1.56 5.573 2.448 8.63 2.861.071.01.134.085.2.132-4.321.274-8.468-.453-12.295-2.475-6.81-3.599-11.096-9.176-12.494-16.775-1.236-6.722.214-12.942 4.359-18.377 3.92-5.141 9.143-8.262 15.632-9.111 1.596-.206 3.192-.413 4.804-.145Z"/><path fill="#2C2C2C" d="M70.732 30.517c4.882.117 9.32 1.622 13.163 4.589 7.3 5.644 10.523 13.123 9.263 22.279-1.335 9.669-8.326 17.181-17.837 19.498-1.588.387-3.206.7-4.864.566-.494-.26-1.056-.21-1.585-.301-6.004-1.023-10.894-3.947-14.644-8.69a22.541 22.541 0 0 1-4.836-12.038 24.325 24.325 0 0 1 .329-7.14c.697-3.51 2.198-6.66 4.308-9.538 2.032.329 3.824 1.202 5.47 2.393.33.238.805.376.838.903-6.39 5.61-6.348 15.891.086 21.309 2.813 2.517 6.126 3.662 9.887 3.565 7.328 0 13.574-6.218 13.852-13.801.294-8.04-6.396-14.887-14.352-14.692a1.122 1.122 0 0 1-.347-.195c-2.045-2.538-4.553-4.515-7.386-6.1 2.675-1.556 5.639-2.161 8.655-2.607Z"/><path fill="#2C2C2C" d="M51.3 39.43c.92-.04 1.84.066 2.728.314-2.11 2.876-3.61 6.025-4.308 9.538a24.328 24.328 0 0 0-.33 7.14 22.54 22.54 0 0 0 4.837 12.038c3.753 4.745 8.644 7.667 14.645 8.69.528.09 1.087.041 1.584.3-3.362.22-6.559-.493-9.659-1.721-.227-.09-.459-.165-.688-.245-1.58-.895-3.19-1.737-4.635-2.857-1.757-1.361-3.253-2.97-4.642-4.69-.222-.33-.45-.658-.668-.998-3.3-5.117-4.51-10.675-3.58-16.696.623-4.02 2.282-7.584 4.716-10.814ZM62.075 33.124c-.494-.241-1.026-.39-1.452-.751a21.707 21.707 0 0 1 10.11-1.857c-3.016.446-5.98 1.05-8.659 2.608Z"/></g><defs><clipPath id="a"><path fill="#fff" d="M27.513 29.923h161.974v48.154H27.513z"/></clipPath></defs></svg>