<svg width="418" height="432" viewBox="0 0 418 432" fill="none" xmlns="http://www.w3.org/2000/svg">
<g clip-path="url(#clip0_923_2547)">
<g clip-path="url(#clip1_923_2547)">
<g opacity="0.42">
<path d="M121.811 467.941C104.863 452.923 89.4689 436.237 75.8628 418.138V417.981H75.7448C75.24 417.325 74.7353 416.67 74.2436 415.956C68.4485 408.14 63.003 400.058 57.9072 391.709L49.1752 376.637C44.6212 368.245 40.4169 359.641 36.5623 350.825C36.2345 350.069 35.9067 349.309 35.5789 348.544C26.6491 327.663 19.8748 305.925 15.3616 283.669C13.5697 274.809 12.1297 265.827 11.0415 256.723C7.85987 230.004 7.85987 203.003 11.0415 176.284C12.1166 167.184 13.5566 158.202 15.3616 149.338C19.8754 127.081 26.6519 105.342 35.5855 84.4622C35.9067 83.7021 36.2411 82.9419 36.5623 82.1883C40.4038 73.381 44.6081 64.7788 49.1752 56.3823C49.1752 56.3364 49.221 56.2906 49.2473 56.2513L57.8547 41.3496C62.9593 32.9964 68.4223 24.8948 74.2436 17.0443C74.7418 16.389 75.2466 15.6943 75.7514 15.0194H75.8628V14.8686C89.4643 -3.23487 104.858 -19.9209 121.811 -34.9347C128.602 -40.9504 135.634 -46.6889 142.906 -52.1496H143.057V-52.2675C163.86 -67.883 186.407 -81.0291 210.245 -91.4418C211.078 -91.8153 211.923 -92.1692 212.769 -92.523C221.073 -96.0748 229.54 -99.2858 238.172 -102.156C251.035 -106.448 264.149 -109.949 277.44 -112.641C286.324 -114.441 295.334 -115.885 304.468 -116.973C305.32 -117.077 306.179 -117.176 307.038 -117.267C319.522 -118.652 332.073 -119.346 344.634 -119.345V-52.1823V14.9866C332.272 14.98 319.935 16.1059 307.779 18.3483C306.31 18.6104 304.855 18.8988 303.406 19.2002C261.255 28.0049 223.03 50.0665 194.328 82.1555C193.338 83.2564 192.362 84.377 191.385 85.5042C184.446 93.6208 178.157 102.271 172.577 111.376C170.768 114.338 169.019 117.346 167.332 120.399C167.336 120.414 167.336 120.43 167.332 120.445C162.3 129.719 158.009 139.376 154.497 149.324C154.005 150.714 153.533 152.103 153.074 153.505C139.709 194.433 139.709 238.548 153.074 279.475C153.533 280.877 154.005 282.267 154.497 283.656C158.009 293.603 162.3 303.257 167.332 312.529C167.336 312.546 167.336 312.564 167.332 312.581C168.998 315.639 170.746 318.647 172.577 321.605C178.155 330.707 184.444 339.356 191.385 347.47C192.355 348.605 193.336 349.724 194.328 350.825C199.33 356.424 204.644 361.736 210.245 366.736C236.6 390.367 268.742 406.604 303.406 413.8C304.855 414.101 306.31 414.389 307.779 414.652C319.935 416.894 332.272 418.02 344.634 418.013V485.15V552.312C332.073 552.312 319.522 551.617 307.038 550.235C306.179 550.143 305.32 550.045 304.468 549.94C295.334 548.858 286.324 547.41 277.44 545.608C264.149 542.915 251.035 539.415 238.172 535.123C229.545 532.253 221.077 529.042 212.769 525.49C211.923 525.136 211.078 524.782 210.245 524.409C186.408 514.005 163.861 500.868 143.057 485.261V485.136H142.92C135.638 479.697 128.602 473.965 121.811 467.941Z" stroke="white" stroke-width="1.38" stroke-miterlimit="10"/>
<path d="M411.829 100.105C431.281 111.35 447.614 127.276 459.344 146.435L461.009 149.325L462.766 152.366C462.782 152.385 462.796 152.407 462.805 152.432C473.445 172.108 479.017 194.123 479.017 216.491C479.017 238.858 473.445 260.874 462.805 280.551C462.797 280.575 462.783 280.597 462.766 280.616L461.009 283.657L459.298 286.625C447.573 305.742 431.265 321.634 411.849 332.864C391.425 344.662 368.244 350.854 344.654 350.813V283.657C333.118 283.668 321.772 280.707 311.713 275.06C301.654 269.413 293.221 261.269 287.227 251.416C287.21 251.391 287.195 251.365 287.182 251.337L285.634 248.657L285.562 248.525C280.211 238.627 277.426 227.547 277.46 216.295C277.494 205.044 280.347 193.981 285.759 184.116L287.175 181.671C293.161 171.793 301.597 163.627 311.665 157.964C321.734 152.301 333.095 149.332 344.648 149.345V82.1564C368.232 82.1165 391.409 88.3085 411.829 100.105Z" stroke="white" stroke-width="1.38" stroke-miterlimit="10"/>
</g>
</g>
</g>
<defs>
<clipPath id="clip0_923_2547">
<rect width="417.039" height="432" fill="white"/>
</clipPath>
<clipPath id="clip1_923_2547">
<rect width="472" height="673" fill="white" transform="translate(8 -120)"/>
</clipPath>
</defs>
</svg>
