<svg width="675" height="965" viewBox="0 0 675 965" fill="none" xmlns="http://www.w3.org/2000/svg">
<g clip-path="url(#clip0_925_2572)">
<g opacity="0.42">
<path d="M162.759 843.036C138.522 821.501 116.508 797.577 97.05 771.624V771.398H96.8812C96.1594 770.459 95.4375 769.519 94.7344 768.495C86.4469 757.288 78.6593 745.7 71.3719 733.729L58.8844 712.117C52.3718 700.083 46.3594 687.746 40.8469 675.105C40.3781 674.022 39.9094 672.932 39.4406 671.835C26.6702 641.894 16.9824 610.725 10.5281 578.812C7.96559 566.108 5.90625 553.229 4.35 540.174C-0.2 501.863 -0.2 463.146 4.35 424.835C5.8875 411.786 7.94684 398.908 10.5281 386.197C16.9833 354.284 26.6742 323.113 39.45 293.174C39.9094 292.084 40.3875 290.994 40.8469 289.913C46.3406 277.285 52.3531 264.95 58.8844 252.911C58.8844 252.845 58.95 252.779 58.9875 252.723L71.2969 231.356C78.5968 219.378 86.4094 207.761 94.7344 196.505C95.4469 195.565 96.1687 194.569 96.8906 193.601H97.05V193.385C116.501 167.427 138.516 143.501 162.759 121.973C172.472 113.347 182.528 105.119 192.928 97.2891H193.144V97.12C222.893 74.7293 255.138 55.8793 289.228 40.9489C290.419 40.4133 291.628 39.9059 292.837 39.3985C304.713 34.3057 316.822 29.7015 329.166 25.5859C347.561 19.4318 366.315 14.4111 385.322 10.5519C398.028 7.97102 410.913 5.9007 423.975 4.34092C425.194 4.19057 426.422 4.04963 427.65 3.91808C445.504 1.93225 463.452 0.937851 481.416 0.939455V97.2421V193.554C463.737 193.545 446.094 195.159 428.709 198.374C426.609 198.75 424.528 199.164 422.456 199.596C362.177 212.221 307.512 243.854 266.466 289.866C265.05 291.445 263.653 293.052 262.256 294.668C252.333 306.306 243.339 318.71 235.359 331.764C232.772 336.011 230.272 340.324 227.859 344.703C227.864 344.725 227.864 344.747 227.859 344.769C220.663 358.067 214.525 371.913 209.503 386.178C208.8 388.17 208.125 390.162 207.469 392.173C188.356 450.858 188.356 514.114 207.469 572.798C208.125 574.809 208.8 576.801 209.503 578.793C214.525 593.056 220.663 606.899 227.859 620.193C227.864 620.218 227.864 620.244 227.859 620.268C230.241 624.654 232.741 628.967 235.359 633.207C243.337 646.259 252.331 658.661 262.256 670.294C263.644 671.923 265.047 673.527 266.466 675.105C273.618 683.133 281.218 690.751 289.228 697.919C326.918 731.803 372.883 755.086 422.456 765.404C424.528 765.836 426.609 766.249 428.709 766.625C446.094 769.841 463.737 771.455 481.416 771.445V867.711V964.013C463.452 964.013 445.504 963.017 427.65 961.035C426.422 960.903 425.194 960.762 423.975 960.612C410.913 959.061 398.028 956.985 385.322 954.401C366.315 950.539 347.561 945.521 329.166 939.367C316.828 935.251 304.718 930.647 292.837 925.554C291.628 925.047 290.419 924.539 289.228 924.004C255.139 909.086 222.894 890.248 193.144 867.87V867.692H192.947C182.534 859.893 172.472 851.674 162.759 843.036Z" stroke="white" stroke-width="1.38" stroke-miterlimit="10"/>
<path d="M577.51 315.604C605.328 331.728 628.685 354.564 645.459 382.036L647.841 386.18L650.353 390.539C650.377 390.567 650.396 390.599 650.41 390.633C665.626 418.847 673.594 450.415 673.594 482.487C673.594 514.558 665.626 546.126 650.41 574.34C650.398 574.375 650.379 574.407 650.353 574.434L647.841 578.794L645.394 583.051C628.627 610.462 605.304 633.249 577.538 649.351C548.33 666.269 515.179 675.148 481.444 675.088V578.794C464.946 578.81 448.72 574.565 434.335 566.468C419.95 558.37 407.89 546.694 399.319 532.565C399.294 532.529 399.272 532.491 399.253 532.452L397.041 528.609L396.938 528.42C389.285 514.228 385.301 498.339 385.351 482.206C385.4 466.073 389.48 450.21 397.219 436.064L399.244 432.56C407.804 418.396 419.868 406.687 434.267 398.567C448.666 390.446 464.913 386.189 481.435 386.208V289.867C515.163 289.81 548.307 298.689 577.51 315.604Z" stroke="white" stroke-width="1.38" stroke-miterlimit="10"/>
</g>
</g>
<defs>
<clipPath id="clip0_925_2572">
<rect width="675" height="965" fill="white"/>
</clipPath>
</defs>
</svg>
