<svg width="349" height="443" fill="none" xmlns="http://www.w3.org/2000/svg"><path d="M143.053 0a92.982 92.982 0 0 1 35.649 7.106 93.143 93.143 0 0 1 30.222 20.238 93.385 93.385 0 0 1 20.194 30.287 93.541 93.541 0 0 1 7.091 35.726v281.908H49.898V93.357a93.459 93.459 0 0 1 27.284-66.013A93.055 93.055 0 0 1 143.053 0Z" fill="#FFC600"/><path d="M255.337 249.301V121.696c0-1.66 0-1.66 1.577-1.245a255.574 255.574 0 0 1 43.384 15.573 148.626 148.626 0 0 1 23.387 13.458 78.074 78.074 0 0 1 15.382 14.031 43.38 43.38 0 0 1 8.104 14.644 25.605 25.605 0 0 1 1.322 7.312c-.031.301.031.605.177.869v.811c-.355.593-.177 1.245-.316 1.976a34.862 34.862 0 0 1-5.225 11.719 63.864 63.864 0 0 1-12.621 13.675 123.46 123.46 0 0 1-20.449 13.597 242.318 242.318 0 0 1-36.008 15.375c-5.916 1.976-11.832 3.952-17.846 5.652l-.868.158Z" fill="#04FDE7"/><path d="M101.385 159.6h92.682L147.726 40.869 101.385 159.6ZM147.726 180.331l-46.341-20.73h92.702l-46.361 20.73Z" fill="#fff"/><path d="m101.385 169.975 46.341 20.552 46.361-20.552-46.361 47.35-46.341-47.35Z" fill="#6AF0E4" stroke="#6AF0E4" stroke-width="1.138" stroke-linecap="round" stroke-linejoin="round"/><path d="M348.651 187.148V344.1c-.178 1.66-.119 3.34-.316 5a27.26 27.26 0 0 1-2.11 7.134 49.79 49.79 0 0 1-10.609 15.434 95.524 95.524 0 0 1-21.278 15.988 202.54 202.54 0 0 1-31.768 14.446c-10.175 3.715-20.489 6.917-30.94 9.743-14.711 3.952-29.58 7.272-44.547 10.197a738.105 738.105 0 0 1-25.162 4.427 1089.075 1089.075 0 0 1-20.883 3.122c-5.916.83-11.832 1.601-17.748 2.352a876.266 876.266 0 0 1-14.474 1.7c-4.831.533-9.328 1.047-14.001 1.521-3.767.395-7.533.751-11.299 1.107-3.767.356-8.066.771-12.108 1.126l-8.52.692-11.614.909c-2.288.198-4.555.316-6.823.474-3.648.277-7.296.455-10.944.751-1.262.119-2.544.178-3.806.238-4.26.158-8.5.513-12.759.671-2.603 0-5.226.238-7.888.396-4.95.276-9.86.375-14.888.454-3.412 0-6.843.158-10.254.178a1.047 1.047 0 0 0-.69 0H.065a1.524 1.524 0 0 1 0-.889V281.197a.788.788 0 0 1 .67-.573c.928 0 1.854-.257 2.8-.237 4.536 0 9.052-.336 13.588-.455 3.017 0 5.916-.237 9.031-.375l12.66-.633c3.51-.178 7.04-.336 10.55-.593 3.806-.257 7.632-.434 11.438-.711 2.465-.198 4.95-.297 7.434-.474 3.293-.238 6.606-.435 9.86-.732 2.07-.177 4.141-.296 6.212-.454l9.327-.751 7.888-.692c3.313-.296 6.626-.573 9.86-.929 2.938-.296 5.916-.553 8.814-.869 3.57-.376 7.139-.731 10.688-1.127 3.55-.395 7.277-.83 10.905-1.284 5.147-.633 10.314-1.285 15.461-1.976a983.396 983.396 0 0 0 16.051-2.273 874.02 874.02 0 0 0 31.355-5.375 664.281 664.281 0 0 0 31.551-6.818c5.916-1.443 11.832-2.984 17.61-4.664l1.084-.257c1.814-.455 3.609-1.028 5.403-1.561 9.308-2.826 18.517-5.929 27.608-9.605a215.151 215.151 0 0 0 20.232-9.288 133.385 133.385 0 0 0 19.207-12.154 76.204 76.204 0 0 0 9.249-8.221 47.729 47.729 0 0 0 9.86-14.466 22.526 22.526 0 0 0 1.656-5.691c-.039-.336-.039-.791.533-.811Z" fill="#FF52C3"/><path d="M193.989 354.14s-33.642 29.999-75.132 29.999-75.112-29.999-75.112-29.999 33.641-30.038 75.112-30.038c41.47 0 75.132 30.038 75.132 30.038Z" fill="#fff"/><path d="M118.856 383.07c15.944 0 28.87-12.953 28.87-28.932 0-15.978-12.926-28.931-28.87-28.931s-28.87 12.953-28.87 28.931c0 15.979 12.926 28.932 28.87 28.932Z" fill="#fff"/><path d="M113.849 376.51a22.771 22.771 0 0 1-13.435-8.78 22.862 22.862 0 0 1 2.595-29.977 22.74 22.74 0 0 1 29.994-1.352 22.862 22.862 0 0 1 5.271 29.621 22.782 22.782 0 0 1-12.593 9.955" stroke="#0043DE" stroke-width="8.755" stroke-miterlimit="10"/></svg>