<svg width="349" height="442" fill="none" xmlns="http://www.w3.org/2000/svg"><path d="M298.761 374.841H112.43V93.57A93.143 93.143 0 0 1 205.576.424a93.147 93.147 0 0 1 93.185 93.146V374.84Z" fill="#04FDE7"/><path d="M93.303 249.161V121.845c0-1.656 0-1.656-1.577-1.242a255.883 255.883 0 0 0-43.379 15.537 148.657 148.657 0 0 0-23.385 13.428 77.992 77.992 0 0 0-15.38 13.999A43.262 43.262 0 0 0 1.5 178.178a25.47 25.47 0 0 0-1.322 7.295c.031.301-.03.604-.177.868v.808c.355.592.177 1.243.315 1.972a34.741 34.741 0 0 0 5.226 11.693 64.249 64.249 0 0 0 12.6 13.546 124.467 124.467 0 0 0 20.466 13.565 242.488 242.488 0 0 0 36.063 15.439c5.916 1.972 11.831 3.944 17.845 5.639l.788.158Z" fill="#FF52C3"/><path d="M0 187.149v156.597c.177 1.656.118 3.332.315 4.988a27.142 27.142 0 0 0 2.11 7.118 49.663 49.663 0 0 0 10.608 15.4 95.504 95.504 0 0 0 21.276 15.951 201.886 201.886 0 0 0 31.765 14.414c10.174 3.707 20.486 6.901 30.936 9.721 14.71 3.943 29.577 7.256 44.542 10.174a740.803 740.803 0 0 0 25.16 4.417 1097.96 1097.96 0 0 0 20.881 3.115 1361.5 1361.5 0 0 0 17.746 2.346c4.811.612 9.642 1.164 14.472 1.696 4.831.532 9.327 1.045 14 1.518 3.766.395 7.532.75 11.298 1.105 3.766.354 8.065.769 12.107 1.123l8.518.691 11.613.907c2.288.197 4.555.315 6.823.473 3.647.276 7.295.453 10.943.749 1.262.118 2.543.178 3.805.237 4.259.157 8.499.512 12.758.67 2.602 0 5.225.237 7.887.394 4.949.276 9.858.375 14.886.454 3.411 0 6.842.158 10.253.177a1.05 1.05 0 0 1 .691 0h3.214a1.523 1.523 0 0 0 0-.887V280.985a.789.789 0 0 0-.769-.552c-.927 0-1.854-.257-2.8-.237-4.535 0-9.051-.335-13.586-.453-3.016 0-6.033-.237-9.03-.375l-12.659-.631c-3.51-.177-7.039-.335-10.549-.591-3.805-.257-7.631-.434-11.436-.71-2.465-.198-4.949-.296-7.434-.474-3.292-.236-6.605-.433-9.858-.729-1.972-.178-4.141-.296-6.211-.454l-9.327-.749-7.887-.69c-3.312-.296-6.625-.572-9.859-.927-2.938-.295-5.915-.552-8.813-.867-3.569-.375-7.138-.73-10.707-1.124a774.468 774.468 0 0 1-10.884-1.282 1449.181 1449.181 0 0 1-15.459-1.972c-5.363-.729-10.706-1.459-16.05-2.267a878.616 878.616 0 0 1-31.351-5.363 665.062 665.062 0 0 1-31.548-6.803c-5.915-1.439-11.83-2.977-17.608-4.653l-1.124-.217c-1.814-.454-3.608-1.025-5.402-1.558-9.307-2.819-18.515-5.915-27.605-9.583a215.158 215.158 0 0 1-20.23-9.267 132.303 132.303 0 0 1-19.205-12.126 76.098 76.098 0 0 1-9.247-8.203 47.592 47.592 0 0 1-9.701-14.472 22.407 22.407 0 0 1-1.657-5.679c-.04-.355-.04-.808-.611-.828Z" fill="#FFC600"/><path d="M260.132 395.919c21.311 0 38.587-17.276 38.587-38.587 0-21.311-17.276-38.587-38.587-38.587-21.311 0-38.587 17.276-38.587 38.587 0 21.311 17.276 38.587 38.587 38.587Z" stroke="#fff" stroke-width="7.163" stroke-miterlimit="10"/><path d="M206.087 395.919c21.311 0 38.587-17.276 38.587-38.587 0-21.311-17.276-38.587-38.587-38.587-21.311 0-38.587 17.276-38.587 38.587 0 21.311 17.276 38.587 38.587 38.587Z" stroke="#0043DE" stroke-width="7.163" stroke-miterlimit="10"/><path d="M204.116 58.984h3.943a41.762 41.762 0 0 1 41.762 41.762v26.382h-87.467v-26.382a41.762 41.762 0 0 1 41.762-41.762Z" fill="#0043DE"/><path d="M198.675 97.671c0-3.79-3.068-6.861-6.852-6.861-3.784 0-6.852 3.072-6.852 6.861v3.865c0 3.79 3.068 6.862 6.852 6.862 3.784 0 6.852-3.072 6.852-6.862v-3.865ZM227.483 97.671c0-3.79-3.068-6.861-6.852-6.861-3.784 0-6.852 3.072-6.852 6.861v3.865c0 3.79 3.068 6.862 6.852 6.862 3.784 0 6.852-3.072 6.852-6.862v-3.865Z" fill="#fff"/><path d="M206.088 127.128a45.67 45.67 0 0 0-44.838 36.951h89.675a45.665 45.665 0 0 0-44.837-36.951Z" fill="#0043DE"/></svg>