<svg width="500" height="572" viewBox="0 0 500 572" fill="none" xmlns="http://www.w3.org/2000/svg">
<path d="M115.199 572.612H391.814V142.848C391.814 64.257 329.861 0.518066 253.473 0.518066C177.085 0.518066 115.133 64.257 115.133 142.848V572.612H115.199Z" fill="#FFC600"/>
<path d="M350.294 572.612H499.014V349.334C499.014 307.681 466.131 273.932 425.728 273.932H423.536C383.09 273.932 350.25 307.714 350.25 349.334V572.612H350.294Z" fill="#0043DD"/>
<path d="M82.9739 373.317V257.83C82.9739 256.307 82.9739 256.307 81.56 256.734C68.4158 260.246 55.6217 264.957 43.3385 270.808C36.1039 274.221 29.1954 278.286 22.6987 282.953C17.6604 286.566 13.1231 290.83 9.20557 295.635C5.99215 299.551 3.56547 304.051 2.05892 308.887C1.36597 311.012 0.996468 313.229 0.962812 315.464C0.991112 315.724 0.941521 315.988 0.820312 316.22V316.987C1.16011 317.546 0.962807 318.083 1.09434 318.653C1.95443 322.442 3.5078 326.04 5.67609 329.264C8.7565 333.903 12.5055 338.062 16.8016 341.606C22.374 346.292 28.4038 350.404 34.7998 353.882C44.9846 359.437 55.6177 364.126 66.5871 367.902C71.7826 369.776 77.044 371.431 82.2943 373.032C82.492 373.184 82.7263 373.283 82.9739 373.317Z" fill="#E4B100"/>
<path d="M0.720703 317.13V459.12C0.863198 460.655 0.863198 462.178 0.994731 463.636C1.32419 465.853 1.93565 468.019 2.81427 470.081C5.01611 475.286 8.19773 480.02 12.186 484.024C17.7456 489.687 24.0516 494.566 30.9296 498.526C39.8512 503.686 49.2119 508.048 58.9023 511.558C67.8685 514.847 76.9772 517.806 86.1407 520.327C99.0858 523.933 112.239 526.904 125.382 529.556C132.726 531.014 140.146 532.33 147.556 533.579C153.694 534.675 159.832 535.519 165.971 536.418C171.155 537.185 176.417 537.876 181.612 538.61C185.854 539.169 190.107 539.707 194.349 540.145C198.591 540.583 202.57 541.109 206.691 541.526C209.98 541.877 213.356 542.217 216.666 542.502L227.32 543.543L234.795 544.168L245.044 544.99L251.051 545.406C254.284 545.615 257.452 545.823 260.686 546.108L264.062 546.316C267.832 546.448 271.548 546.798 275.319 546.941C277.61 547.007 279.901 547.149 282.191 547.281C286.576 547.566 290.96 547.631 295.345 547.697C298.37 547.774 301.34 547.84 304.377 547.84C304.574 547.84 304.782 547.774 304.98 547.905H307.818C307.906 547.637 307.928 547.351 307.884 547.072V402.112C307.855 401.958 307.768 401.822 307.642 401.73C307.516 401.639 307.359 401.599 307.205 401.618C306.394 401.552 305.593 401.41 304.716 401.41C300.738 401.41 296.759 401.136 292.659 400.993C290.029 400.928 287.332 400.785 284.701 400.654C280.997 400.445 277.281 400.303 273.576 400.095C270.474 399.952 267.372 399.821 264.27 399.536C260.905 399.262 257.529 399.119 254.164 398.911L247.587 398.505L238.818 397.88L233.338 397.464C230.575 397.256 227.857 397.047 225.117 396.762L218.178 396.138L209.41 395.305C206.845 395.031 204.214 394.822 201.66 394.548L192.222 393.452C189.044 393.101 185.81 392.685 182.642 392.268C178.126 391.72 173.545 391.096 169.029 390.471C164.301 389.842 159.58 389.148 154.867 388.388C145.627 386.93 136.397 385.33 127.223 383.532C118.049 381.735 108.688 379.652 99.4475 377.361C94.2629 376.035 89.0674 374.654 83.9485 373.13L82.9949 372.922C81.3836 372.506 79.8271 372.012 78.2159 371.53C69.984 368.965 61.8947 366.126 53.937 362.86C47.8664 360.369 41.9285 357.567 36.1471 354.463C30.1876 351.301 24.5236 347.611 19.2231 343.437C16.3111 341.185 13.584 338.703 11.068 336.016C7.45407 332.202 4.53136 327.788 2.43064 322.972C1.73655 321.327 1.23984 319.605 0.950886 317.842C1.19203 317.557 1.19203 317.13 0.720703 317.13Z" fill="white"/>
<path d="M179.683 506.166C199.037 506.166 214.726 490.025 214.726 470.115C214.726 450.204 199.037 434.063 179.683 434.063C160.33 434.063 144.641 450.204 144.641 470.115C144.641 490.025 160.33 506.166 179.683 506.166Z" stroke="white" stroke-width="8.27565" stroke-miterlimit="10"/>
<path d="M228.758 506.166C248.111 506.166 263.8 490.025 263.8 470.115C263.8 450.204 248.111 434.063 228.758 434.063C209.404 434.063 193.715 450.204 193.715 470.115C193.715 490.025 209.404 506.166 228.758 506.166Z" stroke="#0043DD" stroke-width="8.27565" stroke-miterlimit="10"/>
<path d="M200.531 203.135H306.416L253.474 63.9282L200.531 203.135Z" fill="#FF52C2"/>
<path d="M253.474 227.424L200.543 203.102H306.427L253.474 227.424Z" fill="#FF52C2"/>
<path d="M200.543 215.269L253.474 239.372L306.427 215.269L253.474 270.809L200.543 215.269Z" fill="white"/>
<path d="M427.634 443.918C457.182 443.918 481.135 416.637 481.135 382.985C481.135 349.332 457.182 322.052 427.634 322.052C398.086 322.052 374.133 349.332 374.133 382.985C374.133 416.637 398.086 443.918 427.634 443.918Z" fill="#04FDE7"/>
</svg>
