<svg width="1440" height="202" fill="none" xmlns="http://www.w3.org/2000/svg"><g clip-path="url(#a)"><path d="M1440 9.477s-76.63-31.872-166.33 21.269c-40.09 23.762-69.61 28.65-131.16 16.338-37.12-7.429-70.41 5.207-106.92 24.254-22.77 11.88-70.898 21.884-134.15-3.466-45.359-18.185-86.57-8.815-144.048 25.248-26.732 15.837-31.738 22.143-91.083 6.928-19.3-4.951-62.866-6.369-90.591 8.697-27.724 15.065-59.404 36.846-59.404 36.846l194.046 44.055 729.64-5.427V9.477Z" fill="url(#b)"/><path d="M-.002 36.331s121.92-13.128 230.183 62.657c16.831 11.781 98.173 60.606 189.591 21.419 26.236-11.245 85.865-38.32 173.749 17.138 23.763 14.994 41.704 7.483 85.144 3.214 16.334-1.607 69.798-8.567 130.187 22.49 60.388 31.057 165.82 26.783 165.82 26.783L-.002 201.269V36.331Z" fill="#fff"/></g><defs><linearGradient id="b" x1="673.572" y1="339.405" x2="1418.06" y2="-90.425" gradientUnits="userSpaceOnUse"><stop stop-color="#DAEBFF"/><stop offset=".27" stop-color="#fff"/></linearGradient><clipPath id="a"><path fill="#fff" d="M0 0h1440v201.273H0z"/></clipPath></defs></svg>