<svg width="102" height="102" fill="none" xmlns="http://www.w3.org/2000/svg"><g clip-path="url(#a)" fill="#000"><path d="m33.09 13.527-4.964-6.719 1.025-.404 3.94 5.433-.755-6.691.974-.385 4.014 5.381-.838-6.635 1.024-.405.967 8.297-1.137.449-3.832-5.16.718 6.39-1.137.449ZM40.478 10.774l1.443-8.437 1.322-.226 4.18 7.473-1.118.192-.993-1.79-3.376.58-.34 2.016-1.118.192Zm1.619-3.21 2.73-.468-2.033-3.669-.697 4.137ZM49.943 9.594l-.116-7.133-2.52.041-.015-.938 6.108-.099.015.938-2.52.041.116 7.133-1.068.017ZM57.62 10.218c-.625-.098-1.156-.299-1.594-.603a3.602 3.602 0 0 1-1.04-1.123 4.345 4.345 0 0 1-.494-1.424 4.897 4.897 0 0 1 .469-2.996c.234-.464.536-.866.906-1.205a3.428 3.428 0 0 1 1.332-.753c.51-.155 1.078-.184 1.703-.086.517.08.948.218 1.293.412.353.187.636.405.848.651.219.248.385.502.499.763.12.261.2.502.24.722.047.22.07.4.07.54l.013.201-1.056-.165-.017-.179a2.141 2.141 0 0 0-.103-.469 2.136 2.136 0 0 0-.303-.6 1.976 1.976 0 0 0-.61-.547c-.261-.166-.6-.282-1.017-.347-.453-.07-.862-.043-1.228.084-.364.12-.685.312-.962.578-.269.26-.49.567-.663.923-.166.35-.279.718-.34 1.106-.06.388-.066.777-.016 1.168.057.384.174.745.35 1.081.183.33.43.612.74.845.31.225.692.373 1.145.444.416.065.774.058 1.074-.02.299-.078.548-.19.748-.335.2-.153.357-.309.47-.468a2.353 2.353 0 0 0 .315-.602l1.056.165-.075.198c-.041.126-.119.29-.231.494a3.253 3.253 0 0 1-1.157 1.188c-.278.17-.614.294-1.009.372-.386.072-.838.068-1.355-.013ZM62.438 11.07l2.745-7.588 1.004.364-1.19 3.29 3.62 1.31 1.19-3.291 1.005.363-2.745 7.588-1.005-.364 1.228-3.394-3.62-1.309-1.227 3.394-1.005-.364ZM73.767 16.354l2.158-8.294.941.636-1.853 7.023 5.819-4.348.941.635-6.892 5.1-1.114-.752ZM78.036 19.63l5.327-6.054.802.705-5.327 6.054-.802-.705ZM80.174 21.454l6.053-5.328 1.728 1.964c.427.485.712.985.854 1.498.148.509.183 1.01.105 1.505-.078.494-.244.96-.498 1.396a4.626 4.626 0 0 1-2.21 1.944 3.985 3.985 0 0 1-1.448.317c-.5.014-.996-.082-1.487-.288-.486-.211-.942-.56-1.37-1.045l-1.727-1.963Zm7.049-2.778-.994-1.129-4.646 4.09.993 1.128c.312.355.649.605 1.01.752.366.152.735.22 1.107.202.382-.017.75-.104 1.105-.262A3.766 3.766 0 0 0 87.5 21.96c.201-.332.332-.684.391-1.056.07-.372.053-.748-.051-1.13-.1-.378-.305-.744-.617-1.098ZM85.23 27.557l6.941-4.117 2.615 4.409-.807.478-2.07-3.49-2.194 1.303 1.813 3.058-.806.478-1.814-3.058-2.326 1.38 2.097 3.536-.807.479-2.642-4.456ZM89.792 36.837c-.218-.601-.3-1.17-.247-1.708.06-.54.22-1.03.477-1.47a4.25 4.25 0 0 1 1.009-1.154 4.7 4.7 0 0 1 1.34-.751 4.603 4.603 0 0 1 1.5-.276c.522-.011 1.023.07 1.503.244.48.175.913.451 1.297.83.392.376.696.865.914 1.467.217.601.296 1.172.236 1.712a3.565 3.565 0 0 1-.466 1.467c-.258.44-.591.824-1 1.15a4.6 4.6 0 0 1-1.329.747 4.699 4.699 0 0 1-1.51.28 4.249 4.249 0 0 1-1.514-.241 3.684 3.684 0 0 1-1.307-.826c-.384-.379-.685-.869-.903-1.47Zm.933-.337c.156.43.375.78.658 1.05.283.268.604.46.963.578.362.124.742.18 1.139.168a3.762 3.762 0 0 0 2.194-.794c.314-.244.57-.53.768-.857.201-.32.325-.674.37-1.062a2.672 2.672 0 0 0-.165-1.227 2.672 2.672 0 0 0-.658-1.049 2.627 2.627 0 0 0-.967-.59 3.297 3.297 0 0 0-1.135-.157c-.391.01-.774.083-1.15.22-.383.137-.731.33-1.045.574-.313.245-.57.527-.771.847-.2.327-.321.684-.367 1.072-.045.387.01.796.166 1.227ZM94.744 46.227c-.037-.33.01-.635.14-.911a1.78 1.78 0 0 1 .557-.686c.244-.172.52-.276.83-.31.316-.036.609.005.877.12.276.123.504.306.684.548.187.242.299.528.336.859.035.324-.011.624-.14.901a1.61 1.61 0 0 1-.55.673c-.234.18-.51.287-.827.322a1.693 1.693 0 0 1-.89-.131 1.691 1.691 0 0 1-.693-.535 1.714 1.714 0 0 1-.324-.85ZM92.361 54.607l8.307-.873-.17 1.089-6.681.642 6.15 2.741-.162 1.035-6.673.731 6.144 2.642-.17 1.088-7.642-3.373.19-1.207 6.39-.687-5.872-2.621.19-1.207ZM91.02 62.383l6.59 5.501-.469 1.261-8.588-.138.397-1.067 2.052.04 1.199-3.22-1.578-1.31.397-1.067Zm1.969 3.021-.97 2.605 4.207.083-3.237-2.688ZM87.235 71.15l6.206 3.568 1.26-2.193.816.47-3.054 5.314-.816-.47 1.26-2.191L86.7 72.08l.535-.93ZM82.76 77.412c.402-.488.845-.843 1.33-1.066.49-.217.99-.325 1.496-.322.507.014 1 .114 1.478.3a4.895 4.895 0 0 1 2.34 1.93c.279.437.47.902.575 1.393a3.429 3.429 0 0 1-.031 1.53c-.126.518-.39 1.02-.793 1.509-.333.404-.67.705-1.013.903-.342.209-.673.341-.993.398a2.925 2.925 0 0 1-.91.04 3.008 3.008 0 0 1-.744-.16 2.763 2.763 0 0 1-.501-.215l-.18-.092.68-.824.163.077c.114.056.266.106.456.15.196.048.42.063.67.044.252-.02.513-.101.783-.246.276-.14.548-.373.816-.698.292-.353.476-.72.553-1.1.083-.374.08-.748-.007-1.122a3.253 3.253 0 0 0-.456-1.041 4.151 4.151 0 0 0-1.776-1.464c-.36-.147-.73-.23-1.109-.25a2.67 2.67 0 0 0-1.103.207c-.353.152-.674.405-.966.759-.268.325-.445.637-.53.934-.085.297-.116.57-.092.815.03.25.083.464.162.643.085.183.166.325.243.426l.115.151-.68.825-.132-.165c-.087-.1-.19-.25-.307-.451a3.253 3.253 0 0 1-.433-1.601 3.038 3.038 0 0 1 .193-1.057c.135-.37.37-.756.702-1.16ZM79.542 81.081l5.085 6.215-.823.674-2.206-2.696-2.965 2.426 2.206 2.696-.823.673-5.085-6.215.823-.674 2.275 2.78 2.965-2.425-2.275-2.78.823-.674ZM69.276 88.168l6.033 6.04-1.02.488-5.096-5.138.795 7.193-1.02.487-.9-8.493 1.208-.577ZM64.298 90.24l2.492 7.677-1.017.33-2.492-7.678 1.017-.33ZM61.633 91.159l1.471 7.936-2.574.477c-.636.118-1.211.107-1.726-.035a3.428 3.428 0 0 1-1.346-.682c-.385-.32-.7-.702-.945-1.145a4.628 4.628 0 0 1-.536-2.896c.07-.501.227-.97.47-1.407a3.544 3.544 0 0 1 1.012-1.13c.43-.31.964-.523 1.6-.641l2.575-.477Zm-1.23 7.483 1.48-.274-1.13-6.092-1.48.274c-.465.086-.853.247-1.164.482a2.547 2.547 0 0 0-.742.848 3.034 3.034 0 0 0-.342 1.084 3.77 3.77 0 0 0 .413 2.23c.182.344.418.637.707.88.283.25.616.429.998.535.375.108.795.12 1.26.033ZM53.804 92.376l.131 8.071-5.126.083-.015-.938 4.057-.066-.041-2.552-3.556.058-.015-.938 3.556-.058-.044-2.705-4.112.067-.015-.938 5.18-.084ZM43.496 91.627c.63.116 1.163.332 1.6.649.436.324.78.709 1.03 1.154.25.452.413.937.488 1.453a4.7 4.7 0 0 1-.027 1.537 4.604 4.604 0 0 1-.519 1.435 4.122 4.122 0 0 1-.97 1.175c-.392.327-.849.561-1.37.702-.523.148-1.099.165-1.728.05-.63-.116-1.162-.336-1.598-.66a3.567 3.567 0 0 1-1.032-1.143 4.125 4.125 0 0 1-.49-1.443 4.606 4.606 0 0 1 .025-1.526 4.7 4.7 0 0 1 .52-1.446 4.25 4.25 0 0 1 .973-1.186c.392-.327.85-.564 1.372-.713.522-.14 1.097-.153 1.726-.038Zm-.179.977a2.674 2.674 0 0 0-1.238.039 2.521 2.521 0 0 0-.986.54c-.29.25-.53.55-.72.899a3.767 3.767 0 0 0-.421 2.296c.053.394.17.76.353 1.096.175.335.419.62.73.855.312.234.693.393 1.144.476.45.082.863.07 1.238-.04.375-.108.707-.287.997-.537.283-.251.52-.552.709-.901a3.768 3.768 0 0 0 .421-2.296 3.299 3.299 0 0 0-.342-1.094 2.628 2.628 0 0 0-.741-.857 2.674 2.674 0 0 0-1.144-.476ZM32.853 91.15c.305.138.544.334.717.587.172.254.274.532.305.833.025.298-.027.59-.156.875a1.705 1.705 0 0 1-.554.695 1.7 1.7 0 0 1-.823.31 1.682 1.682 0 0 1-.914-.15 1.662 1.662 0 0 1-.706-.582 1.618 1.618 0 0 1-.3-.819 1.642 1.642 0 0 1 .146-.88 1.7 1.7 0 0 1 .569-.7c.24-.178.513-.287.817-.324.302-.032.601.02.9.155ZM26.88 84.806l-3.51 7.59-.85-.705 2.877-6.073-5.513 3.881-.807-.67 2.795-6.113-5.424 3.928-.848-.705 6.82-4.84.941.782-2.687 5.847 5.266-3.704.94.782ZM20.903 79.675l-8.075 2.838-.84-1.046 4.5-7.284.712.884-1.082 1.737 2.146 2.67 1.928-.683.711.884Zm-3.592.145-1.736-2.16-2.218 3.56 3.954-1.4ZM15.266 71.972l-6.195 3.537 1.25 2.188-.815.466-3.029-5.305.815-.465 1.25 2.188 6.194-3.538.53.929ZM12.117 64.955c.215.594.294 1.157.239 1.687a3.601 3.601 0 0 1-.484 1.45c-.27.43-.607.803-1.01 1.12a4.893 4.893 0 0 1-2.85 1.03 4.179 4.179 0 0 1-1.492-.214 3.426 3.426 0 0 1-1.3-.805c-.382-.372-.68-.855-.896-1.45-.178-.492-.265-.936-.261-1.331a2.88 2.88 0 0 1 .163-1.057c.111-.31.254-.579.428-.804.17-.232.343-.418.517-.558.17-.147.317-.254.44-.321l.17-.108.363 1.005-.15.1c-.105.07-.226.175-.36.316a2.13 2.13 0 0 0-.38.555 1.975 1.975 0 0 0-.186.798c-.02.308.042.66.185 1.057.156.431.378.776.665 1.035.28.263.603.45.97.566.356.11.732.156 1.127.137a4.15 4.15 0 0 0 2.163-.782c.31-.236.57-.512.78-.828.201-.32.329-.671.384-1.054.047-.38-.007-.787-.162-1.217-.144-.397-.322-.707-.534-.932a2.203 2.203 0 0 0-.654-.494 2.219 2.219 0 0 0-.636-.187c-.2-.02-.364-.023-.49-.008l-.19.022-.363-1.005.21-.03c.13-.024.312-.035.544-.034a3.254 3.254 0 0 1 1.598.442c.282.161.552.396.81.704.25.304.463.702.642 1.195ZM10.51 60.324l-7.99 1.21-.16-1.057 3.466-.525-.578-3.813-3.466.526-.16-1.059 7.99-1.21.16 1.058-3.574.541.578 3.813 3.574-.542.16 1.058ZM9.688 47.863l-8.297 2.102.103-1.13 7.039-1.756-6.605-3.001.103-1.13 7.779 3.58-.122 1.335ZM10.44 42.527l-7.88-1.744.23-1.044 7.882 1.744-.231 1.044ZM10.996 39.774 3.41 37.018l.893-2.46c.221-.609.523-1.099.905-1.47a3.43 3.43 0 0 1 1.271-.815 3.99 3.99 0 0 1 1.466-.234 4.628 4.628 0 0 1 2.768 1.005c.397.315.722.688.975 1.12.253.432.407.914.461 1.444.049.529-.038 1.097-.259 1.705l-.894 2.46ZM5.17 34.919l-.514 1.415 5.824 2.115.513-1.415c.162-.444.22-.86.175-1.248a2.548 2.548 0 0 0-.354-1.069 3.035 3.035 0 0 0-.761-.845 3.769 3.769 0 0 0-2.133-.774 2.916 2.916 0 0 0-1.115.163c-.36.117-.682.313-.968.589-.283.268-.506.625-.667 1.069ZM13.899 32.388l-6.98-4.055L9.495 23.9l.811.472-2.038 3.508 2.207 1.282 1.786-3.074.811.471-1.786 3.075 2.338 1.359 2.067-3.556.81.471-2.603 4.48ZM19.812 23.909c-.42.483-.878.832-1.373 1.047-.501.21-1.007.31-1.518.299a4.254 4.254 0 0 1-1.5-.32 4.702 4.702 0 0 1-1.308-.806 4.605 4.605 0 0 1-.971-1.178 4.12 4.12 0 0 1-.518-1.433 3.567 3.567 0 0 1 .094-1.537c.139-.525.418-1.03.838-1.512.42-.483.88-.83 1.381-1.04a3.568 3.568 0 0 1 1.51-.306c.51.01 1.008.115 1.49.314.478.193.911.46 1.301.798.39.339.716.734.98 1.184.263.451.438.931.525 1.44.082.505.053 1.02-.085 1.545-.145.52-.427 1.022-.846 1.505Zm-.75-.651c.301-.346.5-.708.598-1.086a2.52 2.52 0 0 0 .037-1.124 3.175 3.175 0 0 0-.407-1.077 3.766 3.766 0 0 0-1.762-1.532 3.178 3.178 0 0 0-1.123-.254 2.522 2.522 0 0 0-1.108.194c-.36.148-.691.396-.992.741-.3.346-.5.708-.597 1.086a2.63 2.63 0 0 0-.045 1.132 3.3 3.3 0 0 0 .415 1.069 3.769 3.769 0 0 0 1.762 1.532 3.3 3.3 0 0 0 1.116.262c.382.014.754-.053 1.114-.202.361-.148.692-.396.993-.741ZM25.598 14.933a1.689 1.689 0 0 1-.873.322c-.307.02-.6-.032-.876-.158a1.753 1.753 0 0 1-.68-.58 1.713 1.713 0 0 1-.32-.833 1.707 1.707 0 0 1 .15-.871c.121-.283.32-.522.594-.716.268-.19.556-.294.863-.315.303-.027.59.025.862.155.272.12.502.312.687.574.186.263.292.545.319.849.032.299-.013.59-.134.873a1.73 1.73 0 0 1-.592.7Z"/></g><defs><clipPath id="a"><path fill="#fff" d="M0 0h101.997v101.997H0z"/></clipPath></defs></svg>