<svg width="85" height="32" viewBox="0 0 85 32" fill="none" xmlns="http://www.w3.org/2000/svg">
<path d="M17.0012 20.2209V13.5882C17.0012 13.2128 16.9469 12.9124 16.8385 12.6872C16.7384 12.4536 16.5006 12.3368 16.1251 12.3368H16V11.9613H17.5017C17.7938 11.9613 18.019 12.0114 18.1775 12.1115C18.3444 12.2116 18.4612 12.3785 18.5279 12.6121C18.5947 12.8457 18.6281 13.1711 18.6281 13.5882V15.6531H22.007V11.9613H23.6339V18.5941C23.6339 18.9695 23.6839 19.274 23.7841 19.5076C23.8925 19.7329 24.1345 19.8455 24.5099 19.8455H24.635V20.2209H23.1333C22.8413 20.2209 22.6119 20.1751 22.445 20.0833C22.2864 19.9832 22.1739 19.8163 22.1071 19.5827C22.0403 19.3408 22.007 19.0112 22.007 18.5941V16.2163H18.6281V20.2209H17.0012ZM25.0714 20.2209L28.6103 11.9158H28.687L32.226 20.2209H30.725L28.2597 13.9428L29.191 13.3183L26.3532 20.2209H25.0714ZM27.3065 17.2626H30.0128L30.462 18.3693H26.9121L27.3065 17.2626ZM38.5719 18.9609H41.1905V20.2209H36.8626L38.5719 18.9609ZM32.6443 16.2327C32.6443 15.6849 32.7502 15.1663 32.9621 14.6769C33.1739 14.1802 33.4661 13.7456 33.8386 13.3731C34.2111 12.9932 34.642 12.6938 35.1315 12.4746C35.6281 12.2555 36.1541 12.1459 36.7093 12.1459C37.2717 12.1459 37.7976 12.2555 38.287 12.4746C38.7837 12.6938 39.2219 12.9932 39.6018 13.3731C39.9816 13.7456 40.2774 14.1802 40.4892 14.6769C40.7011 15.1663 40.807 15.6849 40.807 16.2327C40.807 16.8025 40.7011 17.332 40.4892 17.8215C40.2774 18.3108 39.9816 18.7455 39.6018 19.1253C39.2219 19.4978 38.7837 19.79 38.287 20.0018C37.7976 20.2063 37.2717 20.3086 36.7093 20.3086C36.1541 20.3086 35.6281 20.2063 35.1315 20.0018C34.642 19.79 34.2111 19.5015 33.8386 19.1362C33.4661 18.7637 33.1739 18.3291 32.9621 17.8324C32.7502 17.3357 32.6443 16.8025 32.6443 16.2327ZM33.9811 16.2437C33.9811 16.755 34.1016 17.2261 34.3426 17.6571C34.5909 18.0807 34.9233 18.4204 35.3396 18.6761C35.7633 18.9244 36.2344 19.0486 36.7531 19.0486C37.2644 19.0486 37.7245 18.9244 38.1336 18.6761C38.5426 18.4204 38.8677 18.0807 39.1087 17.6571C39.3498 17.2261 39.4703 16.7513 39.4703 16.2327C39.4703 15.8529 39.3972 15.495 39.2512 15.159C39.1123 14.8157 38.9188 14.5162 38.6705 14.2605C38.4221 14.0049 38.1299 13.804 37.7939 13.6579C37.4653 13.5118 37.1073 13.4388 36.7202 13.4388C36.2088 13.4388 35.745 13.5666 35.3287 13.8223C34.9124 14.0706 34.5836 14.4103 34.3426 14.8412C34.1016 15.2649 33.9811 15.7324 33.9811 16.2437ZM48.3194 18.9609H50.938V20.2209H46.6102L48.3194 18.9609ZM42.3918 16.2327C42.3918 15.6849 42.4978 15.1663 42.7096 14.6769C42.9214 14.1802 43.2136 13.7456 43.5861 13.3731C43.9586 12.9932 44.3896 12.6938 44.879 12.4746C45.3757 12.2555 45.9016 12.1459 46.4567 12.1459C47.0192 12.1459 47.5451 12.2555 48.0345 12.4746C48.5312 12.6938 48.9695 12.9932 49.3493 13.3731C49.7292 13.7456 50.025 14.1802 50.2368 14.6769C50.4486 15.1663 50.5545 15.6849 50.5545 16.2327C50.5545 16.8025 50.4486 17.332 50.2368 17.8215C50.025 18.3108 49.7292 18.7455 49.3493 19.1253C48.9695 19.4978 48.5312 19.79 48.0345 20.0018C47.5451 20.2063 47.0192 20.3086 46.4567 20.3086C45.9016 20.3086 45.3757 20.2063 44.879 20.0018C44.3896 19.79 43.9586 19.5015 43.5861 19.1362C43.2136 18.7637 42.9214 18.3291 42.7096 17.8324C42.4978 17.3357 42.3918 16.8025 42.3918 16.2327ZM43.7285 16.2437C43.7285 16.755 43.8491 17.2261 44.0901 17.6571C44.3385 18.0807 44.6708 18.4204 45.0872 18.6761C45.5109 18.9244 45.982 19.0486 46.5005 19.0486C47.0119 19.0486 47.4721 18.9244 47.8811 18.6761C48.2902 18.4204 48.6152 18.0807 48.8563 17.6571C49.0973 17.2261 49.2178 16.7513 49.2178 16.2327C49.2178 15.8529 49.1448 15.495 48.9987 15.159C48.8599 14.8157 48.6664 14.5162 48.418 14.2605C48.1697 14.0049 47.8775 13.804 47.5414 13.6579C47.2127 13.5118 46.8548 13.4388 46.4677 13.4388C45.9564 13.4388 45.4926 13.5666 45.0762 13.8223C44.6598 14.0706 44.3312 14.4103 44.0901 14.8412C43.8491 15.2649 43.7285 15.7324 43.7285 16.2437Z" fill="black"/>
<path fill-rule="evenodd" clip-rule="evenodd" d="M56.586 14.0724L54.6133 16.1089L56.6498 18.0817L56.695 20.9167L59.5299 20.8716L61.5665 22.8443L63.5391 20.8078L66.3744 20.7627L66.3293 17.9277L68.3017 15.8911L66.2652 13.9184L66.2201 11.0833L63.3853 11.1285L61.3487 9.1557L59.376 11.1923L56.5409 11.2374L56.586 14.0724Z" fill="#5BABCD"/>
</svg>
