<svg width="129" height="32" fill="none" xmlns="http://www.w3.org/2000/svg"><path d="m16.507 21 3.272-9.383h1.902L24.965 21h-1.56l-.723-2.105H18.79L18.067 21h-1.56Zm2.726-3.424h3.006l-1.497-4.374-1.509 4.374ZM26.31 21v-6.72h1.445v.976h.076c.06-.118.16-.262.305-.431.143-.178.342-.334.596-.47.262-.135.591-.202.989-.202.498 0 .917.114 1.255.342.338.228.592.533.76.913.178.38.267.799.267 1.255V21h-1.445v-4.184c0-.406-.115-.748-.343-1.027-.22-.28-.55-.419-.989-.419-.346 0-.63.089-.85.266a1.49 1.49 0 0 0-.469.672c-.101.27-.152.563-.152.875V21H26.31Zm10.247.127c-.508 0-.952-.097-1.332-.292a2.954 2.954 0 0 1-.938-.799 3.641 3.641 0 0 1-.57-1.128 4.595 4.595 0 0 1 0-2.536c.126-.414.316-.786.57-1.116.253-.338.566-.604.938-.799.38-.203.824-.304 1.331-.304.423 0 .774.067 1.053.203.287.135.516.291.685.469.169.177.291.33.367.456h.076v-3.918h1.446V21h-1.446v-1.002h-.076a2.782 2.782 0 0 1-.367.457 2.265 2.265 0 0 1-.685.469c-.28.135-.63.203-1.053.203Zm.316-1.205c.415 0 .757-.11 1.028-.33.278-.228.486-.515.62-.862a2.82 2.82 0 0 0 .216-1.09c0-.38-.071-.744-.215-1.09a1.97 1.97 0 0 0-.621-.85c-.271-.228-.613-.343-1.028-.343-.414 0-.76.115-1.04.343-.278.22-.49.503-.633.85-.136.346-.203.71-.203 1.09 0 .38.067.744.203 1.09.143.347.355.634.634.863.279.22.625.33 1.04.33ZM44.91 21v-6.72h1.445v.95h.051c.076-.135.186-.287.33-.456.152-.169.35-.313.596-.431.245-.127.553-.19.925-.19.499 0 .913.118 1.243.355.33.237.575.55.735.938h.026c.177-.338.435-.638.773-.9s.786-.393 1.344-.393c.474 0 .875.114 1.205.342.33.22.575.52.735.9.17.372.254.795.254 1.268V21h-1.446v-4.134c0-.44-.105-.799-.317-1.077-.211-.28-.524-.419-.938-.419-.338 0-.613.093-.824.279-.203.186-.351.418-.444.697-.093.27-.14.546-.14.825V21h-1.445v-4.134c0-.44-.106-.799-.317-1.077-.211-.28-.524-.419-.938-.419-.338 0-.613.093-.825.279-.202.186-.35.418-.443.697a2.52 2.52 0 0 0-.14.825V21H44.91Zm14.209-6.847c.423 0 .773.067 1.052.203.288.135.516.291.685.469.17.177.292.33.368.456h.076V14.28h1.445V21H61.3v-1.002h-.076a2.787 2.787 0 0 1-.368.457c-.169.177-.397.334-.685.469-.279.135-.63.203-1.052.203-.507 0-.951-.097-1.332-.292a2.955 2.955 0 0 1-.938-.799 3.641 3.641 0 0 1-.57-1.128 4.595 4.595 0 0 1 0-2.536c.126-.414.317-.786.57-1.116.254-.338.567-.604.938-.799.38-.203.825-.304 1.332-.304Zm.317 1.204c-.414 0-.76.115-1.04.343-.279.22-.49.503-.634.85-.135.346-.203.71-.203 1.09 0 .38.068.744.203 1.09.144.347.355.634.634.863.28.22.626.33 1.04.33.414 0 .756-.11 1.027-.33a2.06 2.06 0 0 0 .621-.863c.144-.346.216-.71.216-1.09 0-.38-.072-.744-.216-1.09a1.969 1.969 0 0 0-.621-.85c-.27-.228-.613-.343-1.027-.343ZM64.436 21v-6.72h1.446v.976h.076c.06-.118.16-.262.304-.431.144-.178.343-.334.596-.47.262-.135.592-.202.99-.202.498 0 .916.114 1.255.342.338.228.591.533.76.913.178.38.267.799.267 1.255V21h-1.446v-4.184c0-.406-.114-.748-.342-1.027-.22-.28-.55-.419-.99-.419-.346 0-.629.089-.849.266a1.49 1.49 0 0 0-.469.672c-.101.27-.152.563-.152.875V21h-1.446Zm7.376 2.473a4.34 4.34 0 0 1-.52-.026l-.202-.025v-1.205l.203.013c.135.017.283.025.443.025.465 0 .846-.088 1.142-.266.304-.169.562-.47.773-.9l-2.561-6.81h1.47l1.814 5.035 1.813-5.034h1.496l-2.536 6.644c-.338.87-.769 1.513-1.293 1.927-.524.415-1.205.622-2.041.622ZM81.835 21v-6.72h1.446v.95h.05c.077-.135.186-.287.33-.456a1.9 1.9 0 0 1 .596-.431c.245-.127.554-.19.926-.19.498 0 .913.118 1.242.355.33.237.575.55.736.938h.025c.178-.338.436-.638.774-.9s.786-.393 1.344-.393c.473 0 .875.114 1.204.342.33.22.575.52.736.9.169.372.253.795.253 1.268V21h-1.445v-4.134c0-.44-.106-.799-.317-1.077-.211-.28-.524-.419-.938-.419-.339 0-.613.093-.825.279-.203.186-.35.418-.443.697a2.52 2.52 0 0 0-.14.825V21h-1.445v-4.134c0-.44-.106-.799-.317-1.077-.212-.28-.525-.419-.939-.419-.338 0-.613.093-.824.279-.203.186-.35.418-.444.697a2.52 2.52 0 0 0-.14.825V21h-1.445Zm14.577.127c-.735 0-1.356-.165-1.864-.495a3.24 3.24 0 0 1-1.14-1.293 3.902 3.902 0 0 1-.381-1.7c0-.6.127-1.166.38-1.698a3.24 3.24 0 0 1 1.141-1.294c.508-.33 1.129-.494 1.864-.494.727 0 1.34.165 1.839.494.507.33.887.761 1.141 1.294.262.532.393 1.099.393 1.699 0 .6-.13 1.166-.393 1.699a3.118 3.118 0 0 1-1.141 1.293c-.499.33-1.112.495-1.839.495Zm0-1.23c.414 0 .761-.106 1.04-.317.287-.211.503-.49.647-.837.152-.347.228-.714.228-1.103 0-.398-.076-.765-.228-1.103a1.936 1.936 0 0 0-.647-.837c-.279-.212-.626-.317-1.04-.317-.414 0-.765.105-1.052.317-.288.211-.503.49-.647.837a2.792 2.792 0 0 0-.216 1.103c0 .389.072.756.216 1.103.144.347.36.626.647.837.287.211.638.317 1.052.317ZM101.35 21v-6.72h1.445v.887h.051c.127-.262.325-.494.596-.697.279-.212.68-.317 1.204-.317.161 0 .296.008.406.025l.178.025v1.395l-.191-.025a3.275 3.275 0 0 0-.431-.025c-.591 0-1.044.169-1.356.507-.305.33-.457.866-.457 1.61V21h-1.445Zm7.85.127c-.566 0-1.057-.097-1.471-.292a3.056 3.056 0 0 1-1.014-.799 3.7 3.7 0 0 1-.596-1.128 4.302 4.302 0 0 1 0-2.524c.127-.414.321-.79.583-1.128a2.745 2.745 0 0 1 1.002-.799c.406-.203.883-.304 1.433-.304.591 0 1.111.135 1.559.406.457.262.812.655 1.065 1.179.262.515.393 1.158.393 1.927v.393h-4.767c.034.516.207.96.52 1.332.312.372.744.558 1.293.558.313 0 .571-.051.773-.153a1.544 1.544 0 0 0 .698-.722l.076-.152h1.344l-.063.228a3.09 3.09 0 0 1-.241.545c-.11.22-.271.44-.482.66-.211.22-.49.405-.837.557-.347.144-.769.216-1.268.216Zm-1.801-4.083h3.361c-.034-.592-.212-1.027-.533-1.306a1.603 1.603 0 0 0-1.103-.419c-.473 0-.867.157-1.179.47-.313.304-.495.722-.546 1.255Z" fill="#000"/></svg>