<svg width="75" height="32" viewBox="0 0 75 32" fill="none" xmlns="http://www.w3.org/2000/svg">
<path d="M49.1492 14.3619H48.2768C48.1753 14.3619 48.0785 14.3182 48.011 14.2422L47.6574 13.8427C47.6047 13.7832 47.5288 13.7488 47.4494 13.7488C47.37 13.7488 47.294 13.7828 47.2413 13.8427L46.9378 14.1857C46.8384 14.2978 46.6958 14.3623 46.5459 14.3623H41.7715C41.6357 14.7499 41.547 15.1592 41.5117 15.5841H46.0191C46.0985 15.5841 46.174 15.5519 46.2288 15.4946L46.6487 15.0569C46.7009 15.0021 46.7735 14.9711 46.8491 14.9711H46.8665C46.9459 14.9711 47.0219 15.0051 47.0745 15.0649L47.4281 15.4644C47.4956 15.5404 47.592 15.5841 47.6939 15.5841H51.373C51.3377 15.1592 51.249 14.7499 51.1132 14.3623H49.1492V14.3619Z" fill="#161616"/>
<path d="M44.2379 18.1522C44.3173 18.1522 44.3928 18.1199 44.4476 18.0626L44.8675 17.6249C44.9197 17.5701 44.9923 17.5391 45.0679 17.5391H45.0853C45.1647 17.5391 45.2406 17.5731 45.2933 17.633L45.6469 18.0325C45.7144 18.1084 45.8108 18.1522 45.9127 18.1522H50.8985C51.0853 17.7663 51.222 17.3519 51.3035 16.9185H46.5181C46.4166 16.9185 46.3198 16.8747 46.2523 16.7987L45.8987 16.3992C45.846 16.3398 45.7701 16.3054 45.6907 16.3054C45.6113 16.3054 45.5353 16.3394 45.4826 16.3992L45.1791 16.7423C45.0797 16.8544 44.9371 16.9189 44.7872 16.9189H41.5781C41.6596 17.3528 41.7963 17.7667 41.9831 18.1526H44.2379V18.1522Z" fill="#161616"/>
<path d="M47.775 13.0272C47.8544 13.0272 47.93 12.9949 47.9847 12.9376L48.4046 12.4999C48.4568 12.4452 48.5294 12.4142 48.605 12.4142H48.6224C48.7018 12.4142 48.7778 12.4481 48.8304 12.508L49.1841 12.9075C49.2516 12.9835 49.3479 13.0272 49.4498 13.0272H50.3978C49.4948 11.827 48.0586 11.0505 46.4411 11.0505C44.8236 11.0505 43.3874 11.827 42.4844 13.0272H47.7754H47.775Z" fill="#161616"/>
<path d="M45.8681 19.3752H44.5715C44.4701 19.3752 44.3733 19.3315 44.3058 19.2555L43.9521 18.856C43.8995 18.7966 43.8235 18.7622 43.7441 18.7622C43.6647 18.7622 43.5887 18.7962 43.5361 18.856L43.2325 19.1991C43.1332 19.3111 42.9906 19.3757 42.8407 19.3757H42.8203C43.7237 20.3436 45.0097 20.9494 46.4383 20.9494C47.8668 20.9494 49.1528 20.3436 50.0562 19.3757H45.8681V19.3752Z" fill="#161616"/>
<path d="M24.5598 20.6293L23.5528 18.1835H19.0539L18.0469 20.6293H16.8828L21.2968 11.3701L25.7239 20.6293H24.5598ZM19.433 17.2551H23.1605L21.2908 13.3102L19.4335 17.2551H19.433Z" fill="#161616"/>
<path d="M27.332 20.6293V11.3701H29.9086C31.9226 11.3701 32.9818 12.2985 32.9818 14.0379C32.9818 15.7772 31.8572 16.6798 29.8954 16.6798H28.4176V20.6293H27.332ZM28.4176 15.7118H29.6471C31.2034 15.7118 31.8835 15.202 31.8835 14.0379C31.8835 12.8738 31.1903 12.3376 29.6471 12.3376H28.4176V15.7118Z" fill="#161616"/>
<path d="M36.9252 12.3639H33.7344V11.3701H41.2021V12.3639H38.0108V20.6293H36.9252V12.3639Z" fill="#161616"/>
<path d="M52.895 18.9423L53.8298 18.308L53.902 18.4583C54.4772 19.5043 55.1051 19.9229 56.0599 19.9229C57.1191 19.9229 57.8646 19.1906 57.8646 18.3012C57.8646 17.464 57.446 16.9019 55.7721 16.2086C53.8497 15.4109 53.1955 14.5869 53.1955 13.41C53.1955 12.1284 54.2025 11.1213 55.9419 11.1213C57.2236 11.1213 58.0998 11.6707 58.597 12.5601L57.8383 13.0831L57.6159 13.0309C57.2236 12.4162 56.7396 12.063 55.9156 12.063C54.9086 12.063 54.3201 12.6255 54.3201 13.3837C54.3201 14.0897 54.6993 14.4952 56.3342 15.2407C58.4658 16.2086 58.9893 17.0063 58.9893 18.288C58.9893 19.6873 57.7861 20.8773 56.0727 20.8773C54.6339 20.8773 53.64 20.328 52.8945 18.9418L52.895 18.9423Z" fill="#161616"/>
</svg>
