<svg xmlns="http://www.w3.org/2000/svg" width="125" height="58" fill="none"><path fill="#0B0B0B" d="M28.13 57.287c-.225-.134-.444-.286-.673-.404a5.102 5.102 0 0 1-2.922-4.855V30.72a5.69 5.69 0 0 0-2.994-5.215 3992.07 3992.07 0 0 0-18.134-10.48l-.415-.258.886-.527c.87-.504 1.738-1.015 2.613-1.514a3.924 3.924 0 0 1 4.138 0 2418.695 2418.695 0 0 1 16.715 9.695 5.382 5.382 0 0 1 2.77 4.828v21.84a4.868 4.868 0 0 0 2.456 4.335l1.122.684-2.422 1.38-2.731 1.547c-.108.07-.21.147-.309.23l-.1.022ZM124.723 30.515c-.387 0-.78-.045-1.167 0a.668.668 0 0 1-.678-.359c-.561-.964-1.2-1.906-1.806-2.86-.067-.112-.145-.218-.291-.426v3.303c0 .269-.079.353-.337.336h-1.211c-.196 0-.297-.039-.291-.263v-6.892a.312.312 0 0 1 .224-.219 8.103 8.103 0 0 1 1.166 0 .56.56 0 0 1 .353.242c.64.976 1.268 1.962 1.896 2.95a.878.878 0 0 0 .28.302v-2.804c0-.712 0-.712.718-.712h1.121l.023 7.402Z"/><path fill="#0B0B0B" d="M19.191 5.394c1.509-.863 2.961-1.716 4.402-2.506a2.5 2.5 0 0 1 2.512.067c5.87 3.364 11.775 6.729 17.596 10.093a5.154 5.154 0 0 1 2.674 4.71c.023 7.334.036 14.67.04 22.009.004.335.04.669.106.998a4.783 4.783 0 0 0 2.204 3.179c.37.241.757.46 1.194.723l-1.183.69c-1.462.849-2.923 1.699-4.385 2.551a.41.41 0 0 1-.56 0 17.236 17.236 0 0 1-1.812-1.396 4.928 4.928 0 0 1-1.323-3.583V23.018a8.001 8.001 0 0 0-4.211-7.413c-2.613-1.53-5.226-3.078-7.85-4.62l-8.977-5.327c-.13-.073-.27-.152-.427-.264Z"/><path fill="#0B0B0B" d="M17.766 14.055c1.58-.92 3.123-1.817 4.665-2.686a2.057 2.057 0 0 1 2.181.045c3.65 2.159 7.29 4.295 10.951 6.476a5.276 5.276 0 0 1 2.691 4.75V43.6a4.273 4.273 0 0 1-2.293 3.925c-1.121.633-2.243 1.244-3.364 1.895v-3.577c0-6.236 0-12.466-.04-18.7a7.565 7.565 0 0 0-3.925-6.786c-3.52-2.063-7.042-4.07-10.552-6.106l-.314-.196Z"/><path fill="#B1B1B1" d="M.285 28.385V16.778c0-.628.118-.69.679-.37 1.485.858 2.971 1.721 4.485 2.568a.472.472 0 0 1 .28.47c0 3.825.027 7.653.08 11.485 0 1.57 0 3.14.06 4.71a4.43 4.43 0 0 0 2.362 3.83c3.3 1.895 6.592 3.779 9.874 5.652a8.41 8.41 0 0 1 2.512 1.85 5.938 5.938 0 0 1 1.396 3.774v2.579c0 .387-.078.381-.381.207a8358.254 8358.254 0 0 0-15.403-8.887c-1.537-.886-3.062-1.789-4.61-2.647a2.4 2.4 0 0 1-1.334-2.288V28.386Z"/><path fill="#B1B1B1" d="M8.186 20.563c1.952 1.12 3.847 2.209 5.731 3.319a.561.561 0 0 1 .18.426v6.41a4.541 4.541 0 0 0 2.45 4.227c1.76 1.006 3.514 2.02 5.26 3.045a.606.606 0 0 1 .297.398v6.224c-.146-.067-.264-.112-.37-.174l-12.336-7.06a2.186 2.186 0 0 1-1.161-2.018c0-4.121-.05-8.248-.073-12.37.022-.785.022-1.575.022-2.427Z"/><path fill="#0B0B0B" d="m4.82 3.973 3.314-1.9A88.28 88.28 0 0 1 10.304.81c.095-.056.252-.124.325-.084.87.493 1.812.824 2.496 1.586A3.51 3.51 0 0 1 14.1 4.68v7.25c-.678-.393-1.323-.746-1.945-1.122a6.342 6.342 0 0 0-3.578-1.037c-.33 0-.297-.174-.291-.381a5.332 5.332 0 0 0-1.049-3.55 5.927 5.927 0 0 0-1.85-1.525l-.567-.342Z"/><path fill="#86C171" d="M16.547 25.336c1.385.936 2.916 1.463 4.054 2.607a5.293 5.293 0 0 1 1.553 3.645c.04 1.155 0 2.31 0 3.465 0 .292-.067.314-.308.18a569.835 569.835 0 0 0-4.317-2.507 1.863 1.863 0 0 1-.982-1.609c-.045-1.895 0-3.785 0-5.781Z"/><path fill="#0B0B0B" d="M62.314 26.687a1.98 1.98 0 0 1 .734 2.427 2.03 2.03 0 0 1-2.035 1.363H57.95c-.224 0-.303-.056-.303-.291v-6.808c0-.235.073-.291.298-.291h2.983a2.03 2.03 0 0 1 2.158 2.215 1.813 1.813 0 0 1-.773 1.385Zm-2.109 2.141h.561a.56.56 0 0 0 .56-.644.56.56 0 0 0-.56-.6h-.718c-.639 0-.56-.079-.56.56 0 .64 0 .69.717.684Zm-.033-2.882c.172.012.344.012.516 0a.561.561 0 0 0 .56-.56.515.515 0 0 0-.521-.561h-.723c-.387-.045-.561.067-.516.493.022.628-.012.628.684.628ZM99.984 26.802v-3.365c0-.263.051-.387.348-.364h1.211c.236 0 .292.078.286.297v2.243c0 .275.09.348.348.33.414-.022.83-.022 1.245 0 .286 0 .336-.1.33-.347V23.46c0-.27.045-.387.342-.365.404.028.808 0 1.212 0 .196 0 .291.028.291.258v6.852c0 .247-.106.286-.319.28h-1.206c-.252 0-.325-.067-.32-.313v-2.243c0-.27-.078-.348-.342-.337-.39.02-.781.02-1.172 0-.302 0-.42.062-.409.393.028.723 0 1.452 0 2.175 0 .258-.062.36-.331.348-.39-.02-.781-.02-1.172 0-.263 0-.342-.073-.342-.336.012-1.139 0-2.254 0-3.37ZM87.451 25.588c.606-.734 1.217-1.463 1.806-2.242a.678.678 0 0 1 .61-.28h1.88c-.786.924-1.504 1.805-2.244 2.657a.504.504 0 0 0-.05.718c.796 1.3 1.559 2.624 2.377 4.003h-2.013c-.1 0-.224-.168-.291-.286-.432-.751-.858-1.514-1.284-2.276l-.23-.382a1.378 1.378 0 0 0-.64 1.34c.05.438 0 .887 0 1.33 0 .196-.033.302-.263.291h-1.29a.337.337 0 0 1-.24-.241v-6.891c0-.208.083-.241.263-.241h1.21c.259 0 .348.056.343.33v2.126l.056.044ZM76.826 26.818c-.04.521-.04 1.043-.118 1.559a2.557 2.557 0 0 1-2.405 2.153c-1.896.095-2.983-.824-3.112-2.714-.053-.83-.038-1.662.044-2.49a2.665 2.665 0 0 1 3.113-2.276 2.613 2.613 0 0 1 2.427 2.596c.028.387 0 .78 0 1.166l.051.006Zm-1.85 0h-.05v-1.166a.884.884 0 0 0-.051-.236.852.852 0 0 0-.937-.746.814.814 0 0 0-.858.83c-.039.852-.039 1.71 0 2.563a.903.903 0 0 0 1.795.073c.056-.434.09-.87.1-1.307v-.011ZM112.716 30.485h-.085c-.857 0-.869 0-1.121-.813a.325.325 0 0 0-.134-.229.334.334 0 0 0-.258-.057h-1.655a.342.342 0 0 0-.392.286c-.275.819-.28.819-1.122.819h-.689c-.23 0-.37-.034-.253-.348a380.087 380.087 0 0 0 1.868-5.091c.202-.56.398-1.122.622-1.682a.47.47 0 0 1 .331-.236c1.155-.061 1.155-.056 1.553 1.032l2.17 5.904c.151.41.151.41-.297.415h-.538Zm-2.383-4.536-.634 1.895h1.233l-.599-1.895ZM57.508 20.586c.47-1.284.914-2.5 1.357-3.723.41-1.121.824-2.243 1.216-3.364a.398.398 0 0 1 .45-.331c1.081 0 1.087 0 1.457 1.015.729 2.002 1.452 4.003 2.192 6 .135.353.056.448-.297.398a3.237 3.237 0 0 0-.404 0c-.336 0-.745.112-.986-.045-.242-.157-.253-.56-.393-.864a.384.384 0 0 0-.28-.196h-1.772a.444.444 0 0 0-.32.247c-.336.852-.33.858-1.267.858l-.953.005Zm4.048-2.663-.6-1.89-.628 1.89h1.228ZM75.574 20.589c.353-.976.695-1.9 1.032-2.804.516-1.418 1.043-2.837 1.542-4.261a.398.398 0 0 1 .454-.32c1.077 0 1.077 0 1.447 1.02.729 2.003 1.447 4.004 2.192 6 .14.37.045.438-.297.393a3.897 3.897 0 0 0-.443 0c-.33 0-.74.1-.981-.05-.241-.152-.224-.561-.353-.858a.399.399 0 0 0-.28-.197h-1.812a.427.427 0 0 0-.286.236c-.135.275-.146.678-.353.819-.208.14-.595.044-.903.05l-.959-.028Zm3.443-4.553-.628 1.884h1.228l-.6-1.884ZM67.813 13.102c1.06.05 1.828.179 2.479.706.202.163.213.27 0 .426-.128.1-.243.215-.342.342-.314.393-.6.634-1.167.292a2.131 2.131 0 0 0-1.21-.062.558.558 0 0 0-.489.634c0 .325.27.443.561.493.454.073.909.13 1.351.219a1.8 1.8 0 0 1 1.565 1.52 2.242 2.242 0 0 1-.864 2.427 4.227 4.227 0 0 1-4.52-.218c-.212-.174-.229-.297 0-.46a.929.929 0 0 0 .197-.196c.387-.494.746-.802 1.458-.398.48.155.991.186 1.486.09a.522.522 0 0 0 .499-.618.56.56 0 0 0-.56-.56c-.427-.067-.853-.124-1.274-.213a1.85 1.85 0 0 1-1.682-1.649c-.129-1.16.303-2.063 1.25-2.461.411-.141.834-.246 1.262-.314ZM78.348 26.783c.038-.64.117-1.276.235-1.906a2.804 2.804 0 0 1 5.389.275c.045.224 0 .32-.247.302-.247-.017-.594 0-.886 0-.291 0-.718.079-.897-.426-.135-.359-.56-.381-.914-.325a.757.757 0 0 0-.662.622 4.545 4.545 0 0 0-.1.954c0 .616 0 1.233.078 1.844a.802.802 0 0 0 .734.785.84.84 0 0 0 .982-.527.41.41 0 0 1 .46-.269h1.205c.224 0 .303.04.258.292a2.63 2.63 0 0 1-2.288 2.12 3.219 3.219 0 0 1-1.845-.281 2.692 2.692 0 0 1-1.43-2.484v-.965l-.072-.01ZM97.469 25.449a2.608 2.608 0 0 0-.365 0 .56.56 0 0 1-.717-.382c-.152-.364-.522-.42-.897-.38a.718.718 0 0 0-.696.56 12.644 12.644 0 0 0-.151 1.598c-.005.349.016.697.061 1.043.045.56.287.903.718.992.432.09.802-.09 1.122-.605a.376.376 0 0 1 .258-.174h1.413c.213 0 .24.073.207.264a2.624 2.624 0 0 1-2.473 2.158c-1.486.073-2.573-.594-2.932-1.805a2.92 2.92 0 0 1-.135-.79c0-.763-.034-1.532 0-2.294a2.675 2.675 0 0 1 3.034-2.602 2.646 2.646 0 0 1 2.49 2.108c.055.225.033.326-.225.309-.258-.017-.488 0-.712 0ZM65.02 26.81v-3.365c0-.314.09-.392.38-.37.363.028.727.028 1.089 0 .342-.033.386.107.386.404v4.957c0 .325.102.398.404.387h2.3c.33 0 .414.1.392.409a6.377 6.377 0 0 0 0 .925c0 .241-.062.325-.314.325h-4.318c-.263 0-.303-.106-.303-.336-.01-1.11-.017-2.226-.017-3.336ZM102.192 36.204v-2.759c0-.252.073-.314.32-.314.74 0 .74 0 .74.735v4.272c0 .28-.084.337-.359.365a.863.863 0 0 1-.919-.505c-.543-.9-1.133-1.77-1.767-2.607v2.63c0 .151-.033.431-.073.437a5.039 5.039 0 0 1-.92 0 .56.56 0 0 1-.05-.252V33.41c0-.218.079-.258.28-.28a.92.92 0 0 1 1.01.505c.432.751.931 1.469 1.407 2.203l.258.387.073-.022ZM72.418 16.893V13.53c0-.264.073-.348.336-.337h1.25c.186 0 .259.05.259.247v6.886c0 .207-.062.286-.275.28h-1.25c-.247 0-.32-.073-.314-.32.005-1.138-.006-2.265-.006-3.392ZM116.856 26.802v3.337c0 .258-.061.364-.336.353h-1.25c-.185 0-.258-.056-.258-.252v-6.88c0-.23.095-.258.286-.258h1.25c.264 0 .309.09.303.325 0 1.121.005 2.248.005 3.375ZM98.132 35.836c-.007.4-.038.799-.096 1.195a1.833 1.833 0 0 1-2.074 1.485 1.766 1.766 0 0 1-1.75-1.626 12.755 12.755 0 0 1 0-2.12 1.804 1.804 0 0 1 2.03-1.681 1.862 1.862 0 0 1 1.845 1.766v.964l.045.017Zm-1.06 0h-.045v-.886a.963.963 0 0 0-.056-.275.807.807 0 0 0-.864-.627.768.768 0 0 0-.813.683 17.938 17.938 0 0 0 0 2.126.774.774 0 0 0 .797.706.796.796 0 0 0 .886-.65c.056-.342.061-.707.095-1.071v-.006ZM75.541 35.84c-.039.426-.044.863-.123 1.278a1.817 1.817 0 0 1-1.985 1.396 1.755 1.755 0 0 1-1.794-1.475 11.495 11.495 0 0 1 0-2.282 1.8 1.8 0 0 1 2.04-1.682 1.85 1.85 0 0 1 1.812 1.845v.925l.05-.005Zm-1.065 0a9.788 9.788 0 0 0-.1-1.088.783.783 0 0 0-.892-.684.762.762 0 0 0-.802.734 20.73 20.73 0 0 0 0 2.047.78.78 0 0 0 .818.729.79.79 0 0 0 .87-.667c.067-.365.072-.73.106-1.083v.012Z"/><path fill="#B1B1B1" d="M16.547 11.986v-4.71c0-.375.185-.521.465-.359 1.357.791 2.703 1.593 4.11 2.428l-4.575 2.641Z"/><path fill="#0B0B0B" d="M87.606 38.486h-.308c-.78 0-.768 0-1.054-.706a.443.443 0 0 0-.32-.236 12.34 12.34 0 0 0-1.368 0c-.112 0-.219.124-.32.202-.1.079 0 .079-.033.118-.213.617-.494.774-1.155.617a.247.247 0 0 1-.09-.213c.594-1.682 1.2-3.297 1.794-4.946.113-.314.365-.174.561-.174.196 0 .376.073.41.174.633 1.705 1.244 3.415 1.883 5.164Zm-1.682-1.85-.639-1.861c-.241.695-.437 1.267-.64 1.861h1.28ZM62.264 38.476h-.252c-.78 0-.785 0-1.043-.712-.062-.18-.14-.263-.337-.247a2.75 2.75 0 0 1-.645 0c-.633-.073-1.166 0-1.25.791 0 .062-.163.157-.252.163h-.903l.56-1.52c.438-1.194.881-2.389 1.296-3.589.095-.274.275-.252.471-.24.196.01.437-.096.56.23.562 1.637 1.19 3.268 1.784 4.9.011.074.015.15.011.224Zm-2.95-1.828h1.06c.062 0 .169-.14.157-.185-.173-.56-.358-1.07-.56-1.682l-.656 1.867ZM64.344 38.52c-.625.03-1.239-.17-1.727-.562-.14-.117-.151-.196 0-.313.062-.05.118-.107.168-.169.208-.274.382-.314.74-.145.422.151.872.21 1.318.173a.561.561 0 0 0 .527-.605.56.56 0 0 0-.56-.56c-.303-.051-.612-.085-.914-.147a1.335 1.335 0 0 1-1.228-1.317 1.486 1.486 0 0 1 1.009-1.61 2.55 2.55 0 0 1 2.377.286c.202.14.208.253 0 .398a.683.683 0 0 0-.173.163c-.174.241-.326.235-.617.106a2.427 2.427 0 0 0-1.06-.14.561.561 0 0 0-.493.561.51.51 0 0 0 .448.56c.247.063.5.102.752.141 1.054.146 1.486.589 1.486 1.536a1.587 1.587 0 0 1-1.526 1.61c-.18.028-.353.028-.527.033ZM68.73 38.5a2.44 2.44 0 0 1-1.728-.56c-.134-.113-.162-.191 0-.31a.985.985 0 0 0 .174-.167c.202-.253.353-.348.735-.152.433.16.897.218 1.357.169a.56.56 0 0 0 .493-.59.56.56 0 0 0-.56-.6c-.331-.05-.662-.083-.987-.162a1.317 1.317 0 0 1-1.161-1.211 1.491 1.491 0 0 1 .818-1.57 2.535 2.535 0 0 1 2.535.18c.19.123.28.24.045.409a.794.794 0 0 0-.168.168c-.174.236-.32.258-.612.118a2.327 2.327 0 0 0-1.048-.14.56.56 0 0 0-.56.594.56.56 0 0 0 .481.56c.236.057.477.096.712.13 1.071.145 1.531.622 1.509 1.57a1.632 1.632 0 0 1-1.61 1.58 3.912 3.912 0 0 1-.426-.016ZM80.282 34.788h-.886a.375.375 0 0 1-.235-.196.864.864 0 0 0-.981-.521.768.768 0 0 0-.69.768c-.04.682-.04 1.365 0 2.047a.729.729 0 0 0 .734.667.841.841 0 0 0 .92-.426c.062-.107.135-.28.219-.292a5.18 5.18 0 0 1 .886 0c.034.076.045.16.033.241a1.794 1.794 0 0 1-.908 1.206c-1.194.633-2.977.073-2.989-1.682a13.812 13.812 0 0 1 .073-2.047 1.95 1.95 0 0 1 3.824.235ZM89.85 36.29v1.895c0 .252-.079.309-.32.309-.74 0-.74 0-.74-.724v-3.302c0-.326-.101-.427-.41-.387h-.521c-.381.056-.488-.068-.499-.466-.011-.398.135-.504.522-.493.992.028 1.99 0 2.983 0 .269 0 .398.05.358.347v.399c0 .123-.117.145-.196.196-.078.05-.106 0-.157 0-.33 0-.796-.095-.953.078-.157.174-.062.634-.067.965-.006.33 0 .796 0 1.183ZM81.19 35.841v-2.41c0-.23.067-.298.296-.298.785 0 .785-.028.785.762v4.223c0 .303-.078.387-.38.381-.707 0-.707 0-.707-.729l.005-1.929ZM93.101 35.845v2.288c0 .274-.056.37-.348.364-.706 0-.706 0-.706-.729v-4.256c0-.297.062-.392.37-.387.684 0 .684 0 .684.667v2.053Z"/></svg>