<svg width="123" height="38" fill="none" xmlns="http://www.w3.org/2000/svg"><g clip-path="url(#a)"><path d="M65.178.825c-.63.07-1.172.398-1.517.919-.242.366-.355.73-.393 1.268-.05.688.119 1.336.488 1.88.28.416.543.695 1.546 1.643.366.344.707.681.762.75.197.245.337.524.387.771a2 2 0 0 1 .001.62 1.027 1.027 0 0 1-.633.743.764.764 0 0 1-.281.037c-.172 0-.18-.002-.303-.06a.736.736 0 0 1-.249-.185 1.432 1.432 0 0 1-.175-.215 2.421 2.421 0 0 1-.279-.835l-.035-.204-.097.008c-.107.01-1.238.088-1.272.088-.027 0-.027.072.004.32.078.63.284 1.168.612 1.604.156.207.446.455.68.584.51.279 1.34.346 1.985.16.388-.112.74-.332.954-.596.278-.342.458-.72.55-1.164.057-.27.073-.732.031-.972-.091-.55-.385-1.164-.807-1.695-.295-.37-.524-.595-1.121-1.1-.343-.29-.514-.453-.66-.628-.312-.374-.513-.781-.566-1.145a2.02 2.02 0 0 1 .032-.632c.066-.25.218-.477.387-.577.202-.117.508-.118.736-.005a.876.876 0 0 1 .276.262c.112.162.223.474.249.694a.434.434 0 0 0 .022.112c.01.016.169-.008.714-.106l.701-.126-.011-.089a3.02 3.02 0 0 0-.294-.986c-.343-.671-.94-1.06-1.751-1.146a3.765 3.765 0 0 0-.672.003Z" fill="#2C2C2C"/><path fill-rule="evenodd" clip-rule="evenodd" d="M72.5.824c-.35.046-.683.171-.966.362-.561.378-.93.95-1.023 1.59-.023.15-.024.531-.021 3.12v.014c.006 2.92.006 2.939.04 3.081a2.377 2.377 0 0 0 1.28 1.62c.324.155.575.206 1.003.206.34 0 .497-.024.763-.112.746-.248 1.366-.944 1.521-1.708.056-.275.06-.46.053-3.317v-.414c-.005-2.24-.006-2.461-.06-2.67a83.171 83.171 0 0 1-.032-.113c-.168-.601-.631-1.153-1.212-1.441-.31-.156-.58-.218-.97-.228-.145-.003-.314 0-.376.01Zm.472 1.481a.871.871 0 0 1 .558.454.95.95 0 0 1 .018.036c.067.144.067.32.067 2.617v.677c0 2.39 0 2.562-.064 2.704l-.016.034-.002.005-.002.004-.006.012a1.054 1.054 0 0 1-.356.372.857.857 0 0 1-.796-.001.895.895 0 0 1-.425-.54c-.011-.049-.017-1.014-.017-2.888 0-2.766 0-2.819.032-2.92a.855.855 0 0 1 1.009-.566Z" fill="#2C2C2C"/><path d="M78.227 1.744a2.067 2.067 0 0 1 1.517-.919c.185-.02.49-.022.673-.003.811.085 1.408.475 1.751 1.146.148.29.254.647.294.986l.011.089-.7.126c-.546.098-.705.122-.715.106a.434.434 0 0 1-.022-.112 1.813 1.813 0 0 0-.249-.694.875.875 0 0 0-.276-.262c-.227-.113-.534-.112-.736.005-.169.1-.32.327-.387.577a2.022 2.022 0 0 0-.032.632c.053.364.254.771.567 1.145.145.175.316.338.659.628.597.505.826.73 1.121 1.1.422.53.716 1.145.807 1.695.042.24.026.702-.03.972a2.663 2.663 0 0 1-.55 1.164c-.216.264-.567.484-.955.596-.645.186-1.474.119-1.984-.16a2.438 2.438 0 0 1-.68-.584c-.33-.436-.535-.973-.614-1.603-.03-.249-.03-.32-.003-.32.034 0 1.165-.08 1.272-.09l.097-.007.035.204c.056.336.15.615.28.835.028.05.107.146.174.215a.736.736 0 0 0 .249.184c.123.06.131.061.303.061a.764.764 0 0 0 .28-.037c.308-.107.567-.41.634-.744a2 2 0 0 0-.001-.619 1.89 1.89 0 0 0-.387-.77 16.024 16.024 0 0 0-.762-.751c-1.003-.948-1.266-1.227-1.546-1.642a2.935 2.935 0 0 1-.488-1.88c.038-.54.15-.903.393-1.269ZM98.61.825c-.63.07-1.173.398-1.518.919-.242.366-.354.73-.393 1.268-.05.688.119 1.336.488 1.88.28.416.544.695 1.546 1.643.366.344.708.681.762.75.197.245.337.524.387.771.032.159.033.459.001.62a1.027 1.027 0 0 1-.633.743.765.765 0 0 1-.281.037c-.172 0-.18-.002-.303-.06a.736.736 0 0 1-.249-.185 1.437 1.437 0 0 1-.175-.215 2.42 2.42 0 0 1-.279-.835l-.035-.204-.096.008c-.108.01-1.239.088-1.272.088-.028 0-.028.072.003.32.078.63.284 1.168.612 1.604.156.207.447.455.68.584.51.279 1.34.346 1.985.16.388-.112.74-.332.955-.596.277-.342.457-.72.55-1.164.056-.27.072-.732.03-.972-.091-.55-.385-1.164-.807-1.695-.295-.37-.524-.595-1.121-1.1-.343-.29-.513-.453-.66-.628-.312-.374-.513-.781-.566-1.145-.024-.176-.01-.47.032-.632.066-.25.219-.477.387-.577.202-.117.509-.118.736-.005a.875.875 0 0 1 .276.262c.113.162.223.474.249.694a.43.43 0 0 0 .023.112c.01.016.168-.008.713-.106l.701-.126-.011-.089a3.031 3.031 0 0 0-.293-.986c-.344-.671-.94-1.06-1.752-1.146a3.766 3.766 0 0 0-.672.003Z" fill="#2C2C2C"/><path fill-rule="evenodd" clip-rule="evenodd" d="M55.664 10.684c0-.018 1.633-9.661 1.644-9.714l.008-.036h2.031l.814 4.87.159.951v.002c.372 2.228.655 3.923.654 3.929 0 .008-.345.013-.768.013h-.767l-.01-.045a92.103 92.103 0 0 0-.06-.396l-.001-.003-.112-.724-.167-1.077-.77.003-.768.005-.357 2.229-.765.004c-.462.002-.765-.001-.765-.01Zm3.2-3.71c-.004-.02-.123-.855-.264-1.855-.142-1-.263-1.844-.27-1.874-.008-.039-.085.47-.28 1.844a505.004 505.004 0 0 0-.268 1.91c0 .007.245.012.545.012h.545l-.008-.037Z" fill="#2C2C2C"/><path d="M85.085 10.699h1.46V.934h-1.46V10.7Z" fill="#2C2C2C"/><path fill-rule="evenodd" clip-rule="evenodd" d="M89.111 10.684c0-.018 1.633-9.661 1.645-9.714l.008-.036h2.03l.974 5.828c.372 2.225.654 3.918.653 3.924 0 .008-.345.013-.768.013h-.767l-.01-.045-.061-.399-.112-.724-.167-1.077-.77.003-.768.005-.356 2.229-.766.004c-.462.002-.765-.001-.765-.01Zm3.2-3.71c-.004-.02-.123-.855-.264-1.855-.141-1-.263-1.844-.27-1.874-.008-.039-.085.47-.28 1.844a505.004 505.004 0 0 0-.268 1.91c0 .007.245.012.545.012h.546l-.008-.037Z" fill="#2C2C2C"/><path d="M103.95 10.699h1.46V.934h-1.46V10.7Z" fill="#2C2C2C"/><path fill-rule="evenodd" clip-rule="evenodd" d="M70.62 14.35c.282-.191.616-.316.966-.363.062-.01.23-.013.377-.01.388.01.659.073.969.228.58.289 1.044.84 1.212 1.441l.012.043.02.07c.054.209.054.43.059 2.67V18.844c.007 2.857.004 3.041-.052 3.317-.156.763-.775 1.459-1.521 1.707-.266.088-.424.113-.764.113-.428 0-.678-.052-1.002-.207a2.377 2.377 0 0 1-1.28-1.62c-.034-.142-.034-.162-.04-3.081v-.013c-.004-2.59-.002-2.971.02-3.12a2.327 2.327 0 0 1 1.024-1.59Zm1.983 1.547a.871.871 0 0 0-.546-.428.855.855 0 0 0-1.009.566c-.032.1-.032.153-.032 2.92 0 1.873.006 2.839.018 2.887.066.287.33.547.625.617.2.047.417.02.595-.075.12-.064.299-.25.357-.372l.006-.014.001-.002.005-.01.007-.014a.537.537 0 0 0 .007-.015c.064-.143.064-.314.064-2.705v-.675c0-2.3 0-2.475-.067-2.618a.925.925 0 0 0-.018-.036l-.001-.002a1.202 1.202 0 0 1-.012-.024Z" fill="#2C2C2C"/><path d="M78.844 13.985a2.323 2.323 0 0 0-1.472.81c-.287.342-.446.68-.517 1.094-.032.186-.032.245-.027 3.163v.658c.004 2.156.004 2.375.066 2.576l.024.07.026.074c.1.303.263.57.498.821.36.382.756.601 1.266.702.198.039.677.039.884 0 .46-.085.858-.3 1.21-.652.36-.361.56-.741.654-1.243.023-.122.026-.268.027-.954v-.81H79.96l-.016 1.556-.043.102a.856.856 0 0 1-1.189.43.898.898 0 0 1-.428-.57c-.024-.129-.022-5.601.002-5.713a.929.929 0 0 1 .43-.573.855.855 0 0 1 .792.003c.19.1.367.324.422.531.018.063.022.231.022.718v.639h1.544l-.008-.703c-.007-.54-.015-.73-.034-.829a2.25 2.25 0 0 0-.658-1.236 2.166 2.166 0 0 0-1.145-.631 3.49 3.49 0 0 0-.806-.033ZM91.665 14.795a2.324 2.324 0 0 1 1.473-.81 3.49 3.49 0 0 1 .805.033c.453.096.8.287 1.145.631.361.36.562.74.658 1.236.02.1.027.289.034.83l.008.701h-1.543v-.638c0-.487-.005-.655-.023-.718a.921.921 0 0 0-.422-.53.855.855 0 0 0-.792-.004.93.93 0 0 0-.43.573c-.024.112-.026 5.584-.002 5.712.04.218.225.464.429.571a.856.856 0 0 0 1.188-.43l.044-.102.016-1.556h1.524v.81c-.002.686-.005.832-.028.954a2.24 2.24 0 0 1-.654 1.243c-.351.353-.75.567-1.21.652a3.396 3.396 0 0 1-.884 0 2.253 2.253 0 0 1-1.265-.702 2.184 2.184 0 0 1-.5-.82c-.008-.029-.017-.053-.025-.075a2.028 2.028 0 0 1-.023-.07c-.063-.2-.063-.42-.066-2.573v-.661c-.005-2.918-.005-2.977.027-3.163.07-.414.229-.752.516-1.094Z" fill="#2C2C2C"/><path fill-rule="evenodd" clip-rule="evenodd" d="M55.664 23.862h1.433c1.584 0 1.588 0 1.897-.104a2.333 2.333 0 0 0 1.106-.776c.133-.175.277-.459.35-.686.306-.943.193-2.175-.26-2.86a1.778 1.778 0 0 0-.663-.618l-.112-.056.105-.063c.447-.26.737-.702.862-1.308.042-.205.06-.733.032-1.009-.056-.575-.24-1.056-.553-1.446-.304-.373-.855-.676-1.454-.793-.178-.036-.214-.036-1.443-.042h-.02l-1.28-.005v9.766Zm2.429-8.25c.345.075.61.334.715.706.076.262.077.7.007.986-.076.303-.271.573-.494.682-.177.088-.286.104-.703.104h-.366v-2.501h.366c.257 0 .396.008.475.024Zm.114 3.929c.544.155.816.69.789 1.54a1.778 1.778 0 0 1-.04.378c-.106.399-.318.69-.599.83-.194.096-.314.114-.745.114h-.36v-2.905l.43.008c.34.005.448.012.525.035Z" fill="#2C2C2C"/><path d="M63.236 23.862v-9.764h1.46v8.289h2.55v1.475h-4.01ZM84.01 23.862h1.476v-3.075l.216-.436c.195-.396.217-.435.233-.4l.009.024.053.137c.12.304.394 1.007.706 1.81l.753 1.932.87.005c.694.003.867 0 .86-.016l-1.178-2.886-1.171-2.864.71-1.41.518-1.028.488-.969.295-.588h-1.577l-1.777 3.456-.008-3.456H84.01v9.764ZM98.303 23.862v-9.764h1.476v4.152h1.765v-4.152h1.476v9.764h-1.476v-4.137h-1.765v4.137h-1.476Z" fill="#2C2C2C"/><path fill-rule="evenodd" clip-rule="evenodd" d="M107.214 14.133c-.011.053-1.644 9.697-1.644 9.715 0 .01.303.012.765.01l.766-.004.356-2.229.768-.005.77-.003.167 1.078.112.724.061.398.01.045h.767c.423 0 .768-.005.768-.013.001-.006-.281-1.698-.653-3.924l-.974-5.827h-2.031l-.008.035Zm1.292 4.15c.141 1 .26 1.835.265 1.854l.008.037h-.546c-.3 0-.545-.005-.545-.013 0-.006.12-.865.268-1.91.195-1.373.272-1.881.28-1.843.007.03.129.874.27 1.874Z" fill="#2C2C2C"/><path d="M113.447 23.862v-9.764h1.46v9.764h-1.46ZM117.553 23.862h1.46l.002-3.115c.001-2.354.006-3.103.021-3.067.009.025.465 1.425 1.012 3.11l.996 3.064.789.005.79.003v-9.764h-1.476l-.008 6.501-.937-3.15-.967-3.252-.031-.1h-1.651v9.765Z" fill="#2C2C2C"/><path fill-rule="evenodd" clip-rule="evenodd" d="M75.753 27.513c.283-.191.616-.316.966-.363.063-.01.231-.012.377-.01.388.01.66.073.969.228.58.289 1.044.84 1.213 1.442l.004.014.008.028.02.071c.053.208.054.43.058 2.669v.01l.001.405c.007 2.857.003 3.041-.053 3.317-.156.763-.775 1.46-1.52 1.708-.267.088-.424.112-.764.112-.428 0-.679-.051-1.003-.207a2.377 2.377 0 0 1-1.28-1.62c-.034-.142-.034-.161-.04-3.083v-.01c-.003-2.59-.002-2.972.02-3.12a2.327 2.327 0 0 1 1.024-1.591Zm1.983 1.547a.871.871 0 0 0-.545-.428.855.855 0 0 0-1.01.566c-.031.1-.031.154-.031 2.92 0 1.874.006 2.839.017 2.887.066.287.33.547.626.617.2.047.417.02.595-.075.12-.064.298-.25.356-.372l.01-.021.016-.034c.064-.143.064-.314.064-2.705v-.675c0-2.3 0-2.474-.067-2.618l-.018-.036-.003-.007-.005-.008a.428.428 0 0 0-.003-.007l-.002-.004Z" fill="#2C2C2C"/><path d="M98.289 27.152c-.63.07-1.173.398-1.518.919-.242.365-.354.73-.393 1.268-.05.688.119 1.335.488 1.88.28.416.544.695 1.546 1.642.366.345.708.682.762.75.198.246.337.525.387.772a2 2 0 0 1 .001.619 1.027 1.027 0 0 1-.633.744.764.764 0 0 1-.28.037c-.172 0-.18-.002-.304-.061a.736.736 0 0 1-.249-.185 1.435 1.435 0 0 1-.175-.215 2.423 2.423 0 0 1-.279-.835l-.035-.203-.096.008c-.108.01-1.239.088-1.272.088-.028 0-.028.072.003.32.078.63.284 1.168.613 1.604.155.207.446.455.68.583.51.28 1.34.347 1.984.16.388-.111.74-.331.955-.596.277-.341.457-.72.55-1.164.056-.27.072-.73.03-.971-.091-.55-.385-1.164-.806-1.695-.296-.37-.525-.595-1.122-1.1-.343-.29-.513-.454-.66-.629-.312-.373-.512-.78-.565-1.144a2.02 2.02 0 0 1 .032-.632c.065-.25.218-.478.386-.577.202-.117.509-.119.737-.005a.875.875 0 0 1 .276.261c.112.162.223.475.248.695a.435.435 0 0 0 .023.112c.01.016.168-.008.713-.106l.702-.127-.012-.088a3.032 3.032 0 0 0-.293-.986c-.344-.672-.94-1.061-1.752-1.146a3.764 3.764 0 0 0-.672.003ZM55.664 37.025v-9.764h1.46v9.764h-1.46ZM59.787 37.025h1.46l.001-3.115c.002-2.354.007-3.102.021-3.067.01.026.465 1.425 1.012 3.11l.997 3.064.789.005.789.003v-9.764H63.38l-.008 6.502-.937-3.151-.967-3.252-.03-.099h-1.651v9.764Z" fill="#2C2C2C"/><path fill-rule="evenodd" clip-rule="evenodd" d="M67.487 37.025V27.26l1.32.007c1.29.005 1.322.006 1.474.04.435.1.783.285 1.1.587.359.343.585.745.689 1.23.027.126.029.298.029 3.028v2.894l-.043.18c-.106.439-.305.795-.63 1.119-.384.385-.82.601-1.332.664-.093.01-.58.017-1.375.017h-1.232Zm3.094-7.793a.897.897 0 0 0-.572-.446 5.25 5.25 0 0 0-.573-.018h-.49v6.798h.495c.662 0 .752-.022.975-.247a.846.846 0 0 0 .246-.458c.01-.07.017-.967.017-2.71v-.256c0-2.287 0-2.46-.067-2.603a.493.493 0 0 0-.009-.018l-.009-.018-.013-.024Z" fill="#2C2C2C"/><path d="M81.989 37.025h1.46l.001-3.115c.002-2.354.007-3.102.021-3.067.01.026.465 1.425 1.012 3.11l.996 3.064.79.005.789.003v-9.764h-1.476l-.008 6.502-.937-3.151-.967-3.252-.03-.099h-1.651v9.764ZM89.689 37.025v-9.764h4.187v1.475h-2.727v2.662h1.989v1.475h-1.99v2.677h2.728v1.475h-4.187ZM103.629 37.025h1.46v-9.764h-1.46v9.764Z" fill="#2C2C2C"/><path fill-rule="evenodd" clip-rule="evenodd" d="M107.656 37.01c0-.017 1.633-9.66 1.644-9.714l.008-.035h2.031l.973 5.828c.372 2.225.655 3.918.653 3.923 0 .008-.344.013-.768.013h-.767l-.009-.045-.062-.398-.112-.724-.166-1.077-.77.003-.769.005-.356 2.228-.765.005c-.462.002-.765-.002-.765-.011Zm3.2-3.71c-.005-.018-.124-.854-.265-1.854-.141-1-.263-1.844-.269-1.875-.008-.038-.085.47-.281 1.844a433.499 433.499 0 0 0-.268 1.91c0 .008.246.013.546.013h.545l-.008-.037Z" fill="#2C2C2C"/><path d="M26.48 3.255c2.138 1.196 4.03 2.687 5.574 4.602a.848.848 0 0 0 .261.148c0 .248.156.415.292.595.458.609.865 1.254 1.218 1.928a17.637 17.637 0 0 1 1.968 10.894 17.294 17.294 0 0 1-2.184 6.432c-.313.543-.803.992-.916 1.648-2.838.073-5.338-.79-7.46-2.69a.589.589 0 0 0 .372-.197c1.93-1.907 3.118-4.188 3.344-6.897.255-3.079-.672-5.808-2.702-8.142-.293-.338-.526-.813-1.08-.842-.025-.397-.382-.496-.632-.68-1.241-.9-2.595-1.562-4.128-1.806a6.625 6.625 0 0 0-2.058-.237 8.141 8.141 0 0 0-2.446.202c-2.334.545-4.313 1.68-5.878 3.518-2.252 2.646-3.04 5.68-2.416 9.073.422 2.294 1.53 4.226 3.248 5.822 2.018 1.877 4.407 2.811 7.148 2.892 1.048 1.298 2.176 2.511 3.502 3.539 1.09.845 2.304 1.48 3.497 2.155.01.18-.115.255-.254.306-1.727.627-3.492 1.079-5.338 1.174-.05-.035-.097-.092-.15-.1-2.307-.31-4.487-.98-6.512-2.158-2.992-1.737-5.338-4.095-6.965-7.145-1.49-2.805-2.136-5.8-2.012-8.996a17.403 17.403 0 0 1 1.663-6.882 17.641 17.641 0 0 1 4.221-5.626c2.025-1.823 4.36-3.061 6.954-3.857.921-.281 1.883-.348 2.807-.608 1.848.092 3.668.498 5.38 1.203.19.075.372.176.588.165.325.273.726.384 1.095.567Z" fill="#C4D0D2"/><path d="M19.416 1.319c-.924.26-1.886.326-2.807.608-2.595.795-4.925 2.033-6.952 3.856a17.642 17.642 0 0 0-4.221 5.626 17.403 17.403 0 0 0-1.664 6.883c-.124 3.195.517 6.19 2.013 8.996 1.624 3.045 3.973 5.405 6.964 7.144 2.025 1.178 4.205 1.848 6.512 2.16.053.007.1.064.15.099-3.26.207-6.388-.342-9.276-1.868-5.137-2.715-8.371-6.922-9.427-12.656-.932-5.071.162-9.764 3.29-13.865 2.956-3.879 6.898-6.234 11.793-6.874 1.204-.155 2.409-.312 3.625-.11Z" fill="#B4BDBE"/><path d="M33.007 1.285c3.684.088 7.032 1.224 9.932 3.462 5.507 4.258 7.94 9.902 6.988 16.81-1.006 7.294-6.281 12.962-13.457 14.71-1.198.292-2.419.529-3.67.427-.372-.196-.797-.159-1.195-.227-4.53-.772-8.22-2.978-11.05-6.556a17.006 17.006 0 0 1-3.648-9.083c-.183-1.798-.1-3.613.248-5.386.526-2.65 1.659-5.026 3.25-7.197 1.533.248 2.885.907 4.128 1.805.248.18.607.284.632.681-4.822 4.234-4.79 11.99.065 16.078 2.122 1.9 4.622 2.763 7.46 2.69 5.528 0 10.24-4.692 10.45-10.413.222-6.065-4.825-11.232-10.828-11.084a.847.847 0 0 1-.262-.148c-1.543-1.915-3.435-3.406-5.573-4.602 2.019-1.174 4.255-1.63 6.53-1.967Z" fill="#2C2C2C"/><path d="M18.346 8.01c.694-.03 1.389.05 2.058.237-1.591 2.17-2.724 4.546-3.25 7.197a18.352 18.352 0 0 0-.248 5.386c.3 3.32 1.568 6.478 3.648 9.083 2.832 3.58 6.522 5.784 11.05 6.556.398.068.82.031 1.195.227-2.536.165-4.949-.372-7.287-1.299-.172-.068-.347-.124-.52-.185-1.193-.675-2.407-1.31-3.497-2.155-1.326-1.028-2.454-2.241-3.502-3.539-.167-.248-.34-.496-.504-.753-2.49-3.86-3.403-8.054-2.701-12.597.47-3.032 1.721-5.721 3.558-8.158ZM26.474 3.253c-.373-.183-.774-.294-1.095-.567a16.378 16.378 0 0 1 7.628-1.401c-2.276.336-4.512.793-6.533 1.968Z" fill="#2C2C2C"/></g><defs><clipPath id="a"><path fill="#fff" transform="translate(.398 .836)" d="M0 0h122.207v36.332H0z"/></clipPath></defs></svg>