<svg width="145" height="32" fill="none" xmlns="http://www.w3.org/2000/svg"><g clip-path="url(#a)" fill="#2C2C2C"><path d="M139.15 1.593c1.646 0 3.291.01 4.937-.007.339 0 .403.07.29.39a111.604 111.604 0 0 0-1.052 3.125c-.084.265-.207.339-.476.338-2.566-.01-5.134-.013-7.702-.005-1.187 0-1.919.453-2.097 1.45a4.376 4.376 0 0 0 .064 1.78c.213.858.929 1.19 1.76 1.213 1.131.034 2.265.013 3.396.027.982.01 1.953.09 2.894.426 1.486.526 2.473 1.54 2.937 3.027a8.817 8.817 0 0 1 .127 4.824c-.55 2.224-2.04 3.408-4.246 3.746-.672.097-1.351.145-2.03.144-2.809.015-5.618 0-8.427.015-.363 0-.453-.102-.446-.453.023-.98.026-1.962 0-2.943-.01-.372.08-.477.464-.474 2.959.017 5.918.012 8.88.008 1.165 0 1.933-.484 2.114-1.45a4.302 4.302 0 0 0-.03-1.65c-.205-.942-.907-1.368-2.058-1.384-1.419-.02-2.84.015-4.259-.062-1.701-.09-3.178-.7-4.159-2.189-.587-.89-.801-1.902-.895-2.952-.108-1.2-.044-2.385.339-3.534.667-2.002 2.369-3.252 4.69-3.353 1.657-.07 3.32-.013 4.984-.013l.001-.044ZM116.727 22.08h-4.755c-.518 0-.608-.091-.611-.607-.006-.89.006-1.781 0-2.672-.006-.423.167-.583.599-.581 2.732.013 5.465.013 8.198 0 1.16 0 2.039-.51 2.528-1.579.648-1.414-.17-2.8-1.721-2.87-1.296-.057-2.597-.009-3.897-.036-1.3-.027-2.545-.282-3.637-1.05-1.149-.808-1.653-1.986-1.929-3.31-.842-4.044 2.42-7.84 6.67-7.793 2.596.031 5.193 0 7.793.006.65 0 .742.134.533.762-.286.856-.586 1.709-.849 2.573-.118.384-.328.513-.725.512a559.69 559.69 0 0 0-6.978 0c-1.354.006-2.387.797-2.665 2.003-.295 1.269.535 2.395 1.845 2.447.98.036 1.962.017 2.943.018 3.165 0 5.905 2.188 6.513 5.287.37 1.883.091 3.682-1.211 5.185-1.001 1.154-2.379 1.58-3.846 1.642-1.596.066-3.198.015-4.802.015l.004.047ZM106.991 9.904c-.414 1.244-.803 2.446-1.225 3.633-.037.106-.277.196-.424.197-2.174.013-4.349.008-6.524.01-.536 0-.567.028-.337.515 1.167 2.458 3.067 3.87 5.83 3.955 1.6.05 3.202.024 4.803 0 .408-.005.43.103.308.449a104.381 104.381 0 0 0-1.014 3.043c-.084.262-.196.386-.501.378-1.388-.03-2.778-.007-4.169-.05-4.203-.128-8.344-3.541-9.254-7.646-.112-.502-.26-.7-.8-.662-.805.055-.808.014-.556-.738.297-.884.533-1.796.906-2.647.59-1.347.876-2.81 1.741-4.055 2.14-3.067 5.023-4.696 8.79-4.694 1.525 0 3.05.008 4.575-.006.331 0 .417.052.294.397a86.972 86.972 0 0 0-1.028 3.08c-.09.305-.251.377-.551.373a140.553 140.553 0 0 0-3.76 0c-2.437.046-4.809 1.767-5.662 4.06-.124.333-.07.405.277.403 2.583-.01 5.165-.005 7.747-.005l.534.01Z"/><path d="M83.379 22.064c-3.651-.018-7.799-3.374-8.806-8.117-1.05-4.939 1.721-10.058 6.486-11.735C85.358.701 90.03 1.86 92.988 5.858c.181.244.142.346-.104.502a75.88 75.88 0 0 0-2.598 1.726c-.242.168-.35.137-.523-.09-1.835-2.413-4.945-3.27-7.688-2.04-4.646 2.085-5.065 8.056-1.418 10.88 2.864 2.217 6.91 1.73 9.096-1.15.197-.26.313-.257.56-.09.843.582 1.697 1.15 2.562 1.7.272.17.296.285.1.536-2.129 2.726-4.863 4.233-9.596 4.232ZM65.942 22.066c-6.343.04-10.257-3.91-11.129-7.939-1.087-5.019 1.55-10.095 6.373-11.87 4.273-1.584 9.06-.427 12.038 3.635.165.225.106.315-.09.446-.885.575-1.77 1.152-2.637 1.752-.248.173-.355.125-.526-.097-1.908-2.46-5.024-3.294-7.811-1.979-4.588 2.167-4.888 8.11-1.222 10.88 2.83 2.136 6.84 1.65 8.995-1.17.215-.28.351-.294.629-.1.828.577 1.67 1.135 2.523 1.677.272.172.295.286.091.543-2.121 2.725-4.86 4.22-7.234 4.222ZM52.85 22.076c-.377 0-.757-.028-1.131.007-.55.053-.851-.197-1.097-.668-1.473-2.832-2.968-5.65-4.456-8.474-.363-.694-.708-1.399-1.11-2.07-.128-.217-.413-.473-.624-.471-.21.002-.5.26-.618.48a1207.141 1207.141 0 0 0-5.568 10.542c-.25.479-.558.688-1.1.664-.798-.037-1.599 0-2.399-.012-.737-.008-.989-.418-.649-1.062a8930.025 8930.025 0 0 1 9.747-18.395c.106-.199.421-.426.612-.405.224.027.497.268.614.487 2.305 4.313 4.6 8.634 6.884 12.963.923 1.743 1.844 3.487 2.764 5.231.42.796.181 1.178-.732 1.183-.382.002-.763 0-1.136 0ZM5.043 23.588v-2.039c.005-.102.017-.203.034-.303.109.027.214.067.314.118l6.351 4.169c.58.38 1.178.739 1.736 1.147.362.264.642.245 1.014 0 3.857-2.53 7.72-5.05 11.59-7.561.099-.07.2-.135.305-.194.377-.196.741-.026.748.389.02 1.268.017 2.537-.007 3.805 0 .155-.16.363-.304.454-4.143 2.726-8.29 5.447-12.442 8.16-.272.182-.507.188-.787 0-2.73-1.803-5.47-3.591-8.19-5.408-.182-.124-.332-.43-.347-.662-.04-.684-.015-1.38-.015-2.075ZM18.251 10.297c0 .544.027 1.087-.012 1.631-.016.21-.129.501-.288.584-.158.084-.467.014-.64-.098a481.57 481.57 0 0 1-6.949-4.583c-.508-.342-.878-.326-1.379.008a574.802 574.802 0 0 1-7.495 4.9c-.2.129-.553.235-.72.143-.166-.091-.254-.444-.26-.685a48.386 48.386 0 0 1 0-2.99c.009-.23.16-.544.345-.662C3.69 6.66 6.545 4.8 9.394 2.927a.698.698 0 0 1 .84.005c2.544 1.675 5.095 3.34 7.626 5.033.197.132.345.453.37.697.06.544.021 1.091.021 1.635Z"/><path d="M.496 18.586c0-1.345.007-2.689-.006-4.033a.751.751 0 0 1 .378-.71 3685.18 3685.18 0 0 0 8.387-5.437c.308-.2.574-.196.875.005.803.534 1.619 1.05 2.426 1.58.56.362.557.725-.018 1.094-2.476 1.613-4.95 3.23-7.438 4.826-.4.255-.573.534-.568 1.022.023 2.552.017 5.104 0 7.656 0 .244-.09.554-.25.712-.256.249-.527.006-.766-.151-.856-.564-1.709-1.137-2.578-1.677-.339-.211-.453-.466-.448-.856.018-1.344.006-2.688.006-4.031ZM27.146 13.187c0 1.344-.01 2.688.006 4.032 0 .362-.122.581-.425.773-2.733 1.744-5.46 3.496-8.18 5.256-.352.23-.623.259-.98.011-.78-.544-1.59-1.038-2.385-1.558-.569-.373-.571-.719-.005-1.092 2.506-1.651 5.008-3.308 7.521-4.943.398-.257.567-.535.562-1.02-.024-2.448-.019-4.894 0-7.341 0-.236.113-.583.283-.673.17-.09.515.014.72.138.838.516 1.645 1.074 2.471 1.603a.82.82 0 0 1 .418.783c-.017 1.342-.006 2.687-.006 4.031Z"/><path d="M18.77 12.319c0-1.375-.008-2.749.007-4.122 0-.279-.09-.433-.32-.58a1956.72 1956.72 0 0 1-7.24-4.712c-.624-.408-.628-.737-.01-1.14.757-.494 1.523-.975 2.273-1.481.287-.194.524-.214.822-.014 2.675 1.805 5.355 3.602 8.04 5.391a.765.765 0 0 1 .37.715c-.009 2.719-.009 5.437 0 8.156a.787.787 0 0 1-.413.738c-.881.554-1.746 1.134-2.633 1.676-.167.102-.471.17-.603.09-.159-.101-.278-.383-.281-.589-.023-1.38-.012-2.754-.012-4.128ZM5.043 18.574c0-.497-.036-.997.017-1.492.025-.236.162-.534.347-.665.86-.61 1.75-1.178 2.639-1.748.517-.331.883-.126.889.487.007.861.015 1.722 0 2.582-.01.393.142.634.47.848 2.462 1.576 4.92 3.16 7.373 4.75.66.426.657.72 0 1.155-.793.523-1.592 1.036-2.377 1.57-.29.196-.544.196-.832.01-2.708-1.753-5.418-3.502-8.13-5.247a.793.793 0 0 1-.4-.757c.015-.496.004-.997.004-1.493ZM37.453 28.05c.48.217.77.553.824 1.063.08.75-.425 1.348-1.308 1.417-.93.072-1.867.054-2.801.057a.324.324 0 0 1-.224-.224 235.826 235.826 0 0 1 0-4.435c0-.079.175-.22.272-.222.784-.008 1.568 0 2.35.026.602.023 1.149.206 1.382.829.222.593.008 1.088-.495 1.488Zm-1.639 1.848c.358-.034.739-.007 1.066-.127.203-.074.439-.362.453-.572.015-.209-.206-.462-.391-.617-.129-.108-.37-.105-.563-.113-.376-.015-.755.023-1.128-.013-.351-.032-.42.091-.414.424.015.987 0 .988.977 1.018Zm-.127-2.131c.27.002.541-.013.81-.045.327-.058.602-.207.608-.608.005-.4-.243-.605-.607-.65-.365-.046-.752-.022-1.124-.07-.43-.055-.566.082-.544.528.041.828.012.83.858.845ZM95.035 30.58c-.11 0-.22.006-.33.017-.453.078-.757-.066-.855-.544-.101-.496-.392-.688-.899-.602-.24.04-.484.04-.725 0-.759-.117-1.302.071-1.476.907-.02.09-.2.2-.318.22-.203.038-.416.012-.698.012l.363-.816c.56-1.25 1.13-2.495 1.673-3.753.127-.295.301-.351.587-.345.285.007.49.013.634.344.653 1.514 1.34 3.002 2.044 4.56ZM93.29 28.73l-.915-2.112-.893 2.084c.052.014.105.025.158.03l1.65-.002ZM58.854 30.55c-.673.154-1.165.05-1.515-.545-.212-.362-.52-.661-.784-.986-.496.293-.79.678-.68 1.287.064.353-.207.3-.406.285-.2-.015-.479.13-.477-.272.01-1.553 0-3.107 0-4.66 0-.44.336-.219.529-.259.215-.044.362 0 .362.292-.017.906-.006 1.806-.006 2.834.453-.42.871-.75 1.223-1.14.421-.469.906-.67 1.606-.486l-.976.979c-.544.549-.544.543-.076 1.142.393.498.782.995 1.2 1.528ZM66.843 27.083c.484-.091.928-.238 1.374-.243.79-.011 1.349.514 1.4 1.302.047.736.018 1.476.02 2.215 0 .425-.328.186-.504.229-.206.05-.375.013-.369-.288.014-.617-.005-1.234-.016-1.853-.005-.356-.121-.715-.485-.777-.327-.056-.76-.04-1.007.136-.231.165-.357.574-.395.893a9.38 9.38 0 0 0-.01 1.58c.016.327-.16.344-.39.314-.203-.026-.508.142-.504-.293.012-1.538.012-3.076 0-4.613 0-.436.302-.263.503-.29.227-.03.409-.02.39.31-.027.48-.007.963-.007 1.378ZM141.155 27.276c.439-.396.914-.486 1.428-.448.787.058 1.325.597 1.359 1.415.026.692 0 1.387.012 2.084.01.416-.287.246-.473.272-.212.026-.42.043-.405-.3a22.75 22.75 0 0 0 0-1.631c-.014-.75-.312-1.102-.906-1.088-.634.012-1.004.425-1.016 1.135-.009.527-.022 1.056.006 1.582.018.343-.181.325-.396.302-.215-.023-.508.14-.5-.296.016-1.009 0-2.02.008-3.03 0-.19-.091-.427.272-.43.542-.013.543-.035.611.433ZM123.553 30.197c-.552.475-1.142.544-1.767.344-.523-.165-.805-.572-.781-1.08.025-.509.345-.894.896-.98a7.838 7.838 0 0 1 1.305-.06c.31.005.362-.188.239-.357-.157-.207-.403-.445-.635-.475a1.904 1.904 0 0 0-1.042.163c-.362.182-.414-.036-.543-.245-.195-.306.063-.395.241-.426.569-.099 1.155-.251 1.721-.2.791.074 1.178.628 1.19 1.444.008.618.007 1.236 0 1.853 0 .188.101.462-.272.42-.253-.027-.63.16-.552-.4Zm-.617-1.28-.03.078a.69.69 0 0 0-.225 0c-.264.097-.544.18-.769.333-.054.035.009.427.09.453.279.102.59.117.889.16a.277.277 0 0 0 .128-.041c.313-.145.564-.375.465-.725-.037-.123-.356-.172-.548-.257ZM74.34 30.232c-.603.47-1.196.506-1.812.28a1.04 1.04 0 0 1-.712-.996c.007-.48.265-.873.775-.98.464-.1.954-.105 1.432-.108.332 0 .349-.139.25-.386a.696.696 0 0 0-.747-.47c-.351.032-.724.08-1.038.226-.329.155-.308-.105-.406-.234-.124-.164-.164-.318.077-.43.741-.344 1.5-.444 2.27-.124.534.221.745.678.755 1.231.01.648.01 1.296 0 1.944 0 .165.116.44-.23.414-.251-.021-.614.165-.614-.367Zm-.634-1.236v-.008c-.197.01-.418-.034-.581.043-.181.084-.408.277-.416.431-.008.155.215.448.362.465.308.036.674 0 .935-.144.181-.1.22-.443.322-.677l-.53-.11a.51.51 0 0 0-.092 0ZM134.156 28.741c0-1.12.799-1.912 1.95-1.92 1.151-.01 2.034.815 2.024 1.914-.01 1.1-.857 1.903-1.994 1.903s-1.977-.794-1.98-1.897Zm.886-.036c-.005.699.44 1.187 1.082 1.19.643.003 1.115-.504 1.112-1.178-.002-.674-.477-1.166-1.119-1.16-.641.007-1.071.475-1.075 1.148ZM43.54 28.719c0-1.116.81-1.897 1.968-1.899 1.142 0 1.994.804 2.003 1.89.006 1.103-.864 1.936-2.016 1.93-1.151-.006-1.958-.811-1.956-1.921Zm.88.007c0 .69.465 1.178 1.107 1.166.623-.012 1.083-.496 1.092-1.148.01-.672-.46-1.178-1.098-1.184-.639-.007-1.102.473-1.101 1.166ZM81.865 27.127c.415-.108.782-.266 1.159-.289.96-.056 1.523.421 1.605 1.377.06.704.031 1.416.035 2.125 0 .444-.344.21-.535.251-.191.042-.377.027-.363-.282.024-.588.011-1.178.006-1.767-.006-.613-.296-.944-.837-.966-.563-.023-1.014.336-1.052.901-.039.588-.044 1.177-.015 1.765.018.381-.188.362-.446.362s-.464.038-.453-.353c.028-.98 0-1.962.018-2.943 0-.154.12-.435.188-.436.264-.004.683-.229.69.255ZM108.41 26.82c1.147.01 1.973.816 1.963 1.919-.01 1.103-.875 1.92-2.036 1.898-1.147-.02-1.934-.815-1.927-1.949.007-1.104.835-1.877 2-1.868Zm-1.117 1.878c-.007.699.436 1.188 1.08 1.195.644.008 1.114-.497 1.118-1.172.005-.674-.477-1.168-1.118-1.164-.641.004-1.074.468-1.08 1.141ZM98.084 26.77c.439.073.759.096 1.057.189.147.045.504 0 .347.355-.106.244-.152.535-.595.35-.327-.135-.738-.104-1.107-.08-.129.007-.326.207-.34.335-.011.108.18.305.314.348.385.125.791.182 1.185.28.415.104.71.355.755.796a.974.974 0 0 1-.572 1.038c-.834.412-1.665.287-2.488-.047-.285-.115-.117-.287-.04-.43.079-.145.078-.369.394-.258.412.134.837.218 1.269.25.244.023.579-.034.55-.373-.012-.134-.286-.294-.47-.355-.354-.117-.734-.152-1.095-.255-.394-.114-.646-.384-.69-.805-.043-.421.114-.801.491-.991.35-.174.752-.257 1.035-.348ZM103.056 26.781c.392.066.712.09 1.011.181.151.047.498.007.35.363-.107.255-.165.52-.598.345-.329-.132-.738-.105-1.107-.083-.129.008-.327.203-.344.332-.014.105.174.306.309.35.37.12.762.173 1.142.271.444.11.768.347.799.851.029.485-.197.86-.684 1.059-.786.32-1.563.219-2.332-.091-.244-.097-.229-.246-.1-.418.102-.138.055-.421.417-.289.424.146.867.226 1.314.236.176.005.363-.236.544-.363-.153-.117-.29-.284-.463-.34-.342-.11-.707-.146-1.056-.236-.453-.116-.746-.405-.78-.884a.973.973 0 0 1 .61-1.017c.32-.143.684-.193.968-.267ZM114.256 26.82c.535 0 1.019.145 1.372.569.069.085.09.34.072.348-.208.085-.352.424-.648.192-.035-.028-.062-.066-.096-.095a1.12 1.12 0 0 0-1.55.076c-.409.44-.397 1.227.025 1.65.422.424 1.099.466 1.54.02.353-.355.509.06.753.123-.065.156-.09.349-.2.46-.554.56-1.647.634-2.403.18-.725-.43-1.059-1.309-.816-2.16.244-.852.986-1.37 1.951-1.363ZM62.379 30.642c-.956-.014-1.671-.492-1.942-1.247-.271-.756-.058-1.613.527-2.102.64-.534 1.68-.634 2.378-.224.122.06.23.146.315.251.083.124.11.284.162.428-.239.05-.38.463-.725.133a1.11 1.11 0 0 0-1.587.018c-.403.425-.399 1.236.008 1.659a1.103 1.103 0 0 0 1.583.008c.346-.342.479.1.717.134-.05.143-.062.32-.155.422-.362.394-.844.507-1.281.52ZM51.562 26.82a1.58 1.58 0 0 1 1.204.58c.06.097.093.207.096.321a3.474 3.474 0 0 1-.658.22c-.05.011-.124-.12-.196-.172a1.123 1.123 0 0 0-1.51.181c-.363.435-.35 1.17.033 1.582.383.414 1.095.512 1.504.097.369-.376.569-.055.815.09.026.016-.033.264-.112.348-.502.532-1.137.648-1.828.513-.74-.144-1.262-.565-1.478-1.301-.376-1.294.53-2.454 2.13-2.459ZM126.938 28.606c0-.196-.014-.394 0-.588.026-.299-.016-.5-.398-.46-.057.006-.192-.215-.192-.33 0-.116.136-.343.19-.337.439.053.43-.223.393-.504-.05-.378.181-.367.441-.362.241.007.517-.05.441.343-.091.482.163.565.555.502.342-.054.487.062.453.434-.02.222-.086.293-.293.271-.091-.01-.181.01-.272 0-.345-.052-.481.067-.453.436.035.434 0 .874.012 1.312.012.482.25.703.688.551.373-.127.399.091.483.317.128.342-.153.332-.336.383-.997.278-1.67-.211-1.715-1.242-.01-.24 0-.483 0-.724l.003-.002ZM41.364 28.038c0 .725-.018 1.45.01 2.168.012.335-.108.416-.41.384-.244-.024-.498.073-.491-.362.025-1.491.025-2.982 0-4.473-.007-.429.242-.34.488-.363.303-.029.423.05.412.385-.027.752-.008 1.505-.008 2.261ZM78.515 28.735c0 .528-.016 1.057.005 1.585.016.372-.238.278-.424.272-.186-.007-.476.128-.47-.278.013-1.056.014-2.113 0-3.171-.007-.437.296-.272.5-.295.204-.022.416-.045.397.302-.03.526-.008 1.056-.008 1.585ZM131.983 28.731c0 .529-.017 1.057.006 1.584.017.37-.231.283-.42.272-.189-.01-.476.125-.471-.278.013-1.056.015-2.112 0-3.172-.007-.434.292-.277.498-.298.206-.02.415-.042.396.303-.03.532-.008 1.061-.009 1.59ZM118.787 28.692c0 .528-.023 1.057.009 1.584.023.387-.216.319-.435.317-.22-.002-.454.079-.443-.307a69.246 69.246 0 0 0 0-3.125c-.009-.384.217-.317.435-.315.219.002.462-.08.443.306-.029.512-.009 1.026-.009 1.54ZM132.104 25.71c-.037.337-.219.537-.56.522-.322-.014-.557-.181-.543-.535.009-.326.235-.487.543-.49.309-.003.541.142.56.503ZM118.404 26.241c-.346-.03-.596-.16-.599-.516-.004-.356.229-.518.554-.518.301 0 .544.148.55.477.007.329-.199.519-.505.557ZM78.103 25.195c.31.064.555.188.518.56-.032.318-.23.493-.543.479-.313-.015-.56-.174-.55-.53.01-.355.26-.472.575-.509Z"/></g><defs><clipPath id="a"><path fill="#fff" transform="translate(.488 .125)" d="M0 0h144.021v31.749H0z"/></clipPath></defs></svg>