<svg width="141" height="66" fill="none" xmlns="http://www.w3.org/2000/svg"><g clip-path="url(#a)"><path d="M45.68 14.833c-.031.147-.102.45-.163.756-.53 2.647-.37 5.248.88 7.658 1.414 2.728 3.807 4.29 6.687 5.174.533.163 1.09.266 1.606.47 1.77.703 2.938 2.559 2.819 4.383a4.377 4.377 0 0 1-3.332 3.978c-2.065.512-3.988 1.295-5.594 2.728-2.034 1.797-3.184 4.069-3.358 6.755-.082 1.346.109 2.717.264 4.064.248 2.145-.915 4.1-2.938 4.76-1.732.57-3.204.066-4.553-1.074-.93-.787-1.856-1.622-2.91-2.208-3.637-2.017-7.231-1.76-10.678.514a18.02 18.02 0 0 0-2.099 1.726c-1.362 1.234-2.9 1.641-4.635.982-1.773-.674-2.716-2.049-2.86-3.9-.062-.785.132-1.595.243-2.389.76-5.346-2.284-10.042-7.498-11.545-.603-.174-1.222-.294-1.814-.495a4.408 4.408 0 0 1 .09-8.348c1.187-.397 2.419-.7 3.55-1.22 4.408-2.026 6.207-6.257 5.707-10.667-.065-.588-.21-1.17-.264-1.76-.168-1.792.495-3.243 2.007-4.198 1.511-.955 3.098-.999 4.651-.075.438.288.844.623 1.212.997 2.008 1.858 4.317 3.069 7.099 3.193 2.997.123 5.501-1.084 7.672-3.059.753-.686 1.49-1.36 2.519-1.629 2.993-.789 5.587 1.528 5.69 4.43ZM17.322 33.02c3.306 2.802 5.275 6.222 6.268 10.241 2.27-.762 4.43-1.244 6.694-1.26 2.262-.014 4.37.666 6.572 1.172.98-4.12 3.058-7.439 6.16-10.183a18.705 18.705 0 0 1-6.162-10.189c-2.209.65-4.373 1.155-6.61 1.17-2.28.017-4.478-.52-6.717-1.174-.951 4.123-3.006 7.456-6.205 10.223Zm19.141-17.754c-1.337.474-2.674 1.064-4.074 1.412a8.715 8.715 0 0 1-4.46-.031c-1.38-.384-2.73-.915-3.989-1.35v5.611c4.102 1.92 10.032 1.516 12.517-.157l.006-5.485Zm-.075 29.828c-4.226-1.64-8.306-1.648-12.385 0v5.646c.44-.184.82-.33 1.19-.5 3.376-1.548 6.742-1.553 10.103.05.325.154.672.268 1.09.431l.002-5.627Zm6.927 2.065c.053-.203.096-.409.128-.617.38-4.015 2.212-7.124 5.718-9.198.221-.155.428-.33.619-.523-1.612-.812-3.149-1.549-4.64-2.353-.486-.26-.79-.229-1.194.132-1.926 1.726-3.465 3.728-4.44 6.13-.419 1.05-.851 2.124-.96 3.188l4.769 3.241Zm-21.47-3.26c-.84-3.94-2.775-7.195-5.923-9.68l-5.433 2.625c1.875 1.115 3.518 2.419 4.677 4.243 1.159 1.824 1.65 3.854 1.83 6.114l4.85-3.301Zm28.128-14.765a12.751 12.751 0 0 1-4.786-4.231c-1.222-1.803-1.562-3.898-1.912-6.023l-4.618 3.168c.283 3.258 3.148 7.962 5.877 9.731l5.439-2.645Zm-39.423.02 5.269 2.56c2.372-1.19 6.06-6.927 5.827-9.697l-4.69-3.258c-.201 4.674-2.323 8.081-6.4 10.394h-.006Zm3.602 3.887a14.128 14.128 0 0 0-4.079-1.954 16.519 16.519 0 0 0-2.837-.63c-1.142-.137-1.974.506-2.412 1.497-.395.89-.37 1.84.302 2.661.703.859 1.61 1.29 2.687.978 1.503-.436 2.983-.961 4.45-1.511.6-.235 1.14-.626 1.889-1.041Zm32.116.017c.68.373 1.173.722 1.717.93a119.46 119.46 0 0 0 4.33 1.54c1.05.36 1.94 0 2.675-.73a2.519 2.519 0 0 0 .493-2.813c-.489-.98-1.26-1.658-2.389-1.537-.966.125-1.917.344-2.84.655-1.345.43-2.666.964-3.98 1.955h-.006ZM22.19 46.034a2.28 2.28 0 0 0-.51.12 19.354 19.354 0 0 0-4.137 3.148c-.353.392-.623.851-.793 1.35-.599 1.55.921 3.392 2.33 3.34 1.408-.053 2.395-.716 2.752-2.223.427-1.88.548-3.816.358-5.735Zm-.21-26.028c.093-.208.163-.425.21-.647a14.973 14.973 0 0 0-.585-5.693c-.31-.988-1.203-1.557-2.259-1.61a2.446 2.446 0 0 0-2.403 1.354c-.506.951-.508 1.934.18 2.752 1.333 1.587 2.968 2.81 4.858 3.844Zm16.292 26.011c0 1.5-.07 2.826.025 4.14.059.835.257 1.653.587 2.422.618 1.396 2.31 1.795 3.65.966 1.26-.792 1.68-2.504.744-3.638-1.33-1.637-3.002-2.878-4.998-3.9l-.008.01Zm-.013-25.94c2.005-1.14 3.711-2.368 5.052-4.039.674-.84.53-1.996-.109-2.938a2.309 2.309 0 0 0-2.363-1.05c-1.125.183-1.89.823-2.194 1.96-.502 1.915-.502 3.857-.378 6.056l-.008.01Z" fill="#0D40D8"/><path d="M11.428 46.942c.21 2.603-2.128 5.447-5.319 5.426a5.475 5.475 0 1 1-.052-10.949c2.838-.014 5.552 2.452 5.371 5.523ZM5.996 43.22a3.715 3.715 0 0 0-3.638 3.699c.032 1.977 1.721 3.684 3.667 3.703a3.699 3.699 0 0 0 3.682-3.653 3.751 3.751 0 0 0-3.711-3.749ZM54.222 13.643c2.939-.15 5.5 2.52 5.516 5.491.026 3.015-2.703 5.487-5.453 5.487-2.924 0-5.393-2.661-5.39-5.54.002-2.785 2.405-5.597 5.327-5.438Zm.057 1.82c-2.246-.031-3.609 1.488-3.592 3.613.015 2.172 1.356 3.65 3.543 3.747a3.607 3.607 0 0 0 3.722-3.701c-.067-2.23-1.864-3.758-3.673-3.659ZM11.424 19.124c.143 2.94-2.483 5.458-5.44 5.458-3.003.006-5.477-2.588-5.416-5.493.067-3.149 2.751-5.542 5.587-5.458 2.786.076 5.403 2.412 5.269 5.493Zm-5.399-3.721a3.709 3.709 0 0 0-3.673 3.778 3.602 3.602 0 0 0 3.623 3.569c2.086 0 3.717-1.57 3.728-3.588a3.684 3.684 0 0 0-3.678-3.76ZM30.168 11.419c-3.12.178-5.485-2.78-5.445-5.437.03-2.406 1.824-5.474 5.445-5.497 3.621-.024 5.519 3.087 5.53 5.56.014 2.576-2.356 5.544-5.53 5.374Zm3.697-5.385c0-2.197-1.602-3.851-3.863-3.778-1.566.055-3.511 1.239-3.503 3.711a3.686 3.686 0 0 0 5.082 3.522 3.684 3.684 0 0 0 2.284-3.459v.004ZM35.623 60.06c.185 2.489-2.128 5.48-5.434 5.457-3.009-.02-5.567-2.557-5.504-5.554a5.457 5.457 0 0 1 5.457-5.385c3.699-.035 5.668 3.12 5.481 5.481Zm-1.748-.072a3.72 3.72 0 0 0-3.766-3.688c-2.072.023-3.613 1.679-3.61 3.822 0 1.994 1.599 3.648 3.797 3.644 1.95-.002 3.589-1.778 3.576-3.778h.002ZM54.143 52.365c-3.134.042-5.3-2.822-5.248-5.517.063-2.953 2.52-5.512 5.4-5.432 3.276.09 5.484 2.668 5.415 5.613a5.443 5.443 0 0 1-5.567 5.336Zm.061-1.747a3.74 3.74 0 0 0 3.751-3.805c-.015-1.93-1.68-3.689-3.596-3.638-2.151.057-3.68 1.419-3.681 3.835-.002 1.965 1.286 3.592 3.526 3.608Z" fill="#0D40D8"/><path d="M72.488 12.548 70.494 18.8h-1.846l2.859-7.721h1.166l-.185 1.469Zm1.654 6.252-1.999-6.252-.207-1.47h1.183l2.869 7.722h-1.846Zm-.084-2.874v1.336h-4.026v-1.336h4.026ZM81.068 16.764c0-.131-.02-.248-.058-.35a.71.71 0 0 0-.213-.292 1.944 1.944 0 0 0-.434-.265 5.377 5.377 0 0 0-.738-.281 9.963 9.963 0 0 1-.991-.382 4.268 4.268 0 0 1-.833-.504 2.204 2.204 0 0 1-.578-.668 1.842 1.842 0 0 1-.207-.891c0-.329.073-.626.218-.89.145-.266.348-.492.61-.68.261-.19.569-.336.922-.435a4.18 4.18 0 0 1 1.167-.153c.566 0 1.062.1 1.49.302.431.198.767.477 1.008.838.24.357.36.772.36 1.246h-1.718c0-.209-.044-.392-.132-.552a.892.892 0 0 0-.393-.381 1.382 1.382 0 0 0-.652-.138c-.255 0-.469.039-.642.117a.875.875 0 0 0-.387.307.773.773 0 0 0-.127.43.63.63 0 0 0 .095.339c.067.099.163.193.287.281.127.085.282.166.466.244.184.078.395.152.631.223.414.13.78.276 1.098.435.322.159.592.339.812.54a2 2 0 0 1 .493.685c.113.254.17.542.17.864 0 .343-.068.647-.202.912a1.88 1.88 0 0 1-.573.679 2.666 2.666 0 0 1-.89.419 4.37 4.37 0 0 1-1.162.143c-.39 0-.773-.05-1.151-.148a3.405 3.405 0 0 1-1.029-.467 2.391 2.391 0 0 1-.732-.796c-.18-.325-.27-.71-.27-1.156h1.729c0 .234.033.432.1.594.068.16.163.288.287.387.127.1.281.17.461.213.18.042.382.063.605.063.258 0 .466-.035.626-.106a.792.792 0 0 0 .36-.302.798.798 0 0 0 .117-.424ZM90.682 14.77v.344c0 .587-.081 1.114-.244 1.58-.16.467-.387.865-.684 1.194a2.985 2.985 0 0 1-1.05.758c-.403.174-.85.26-1.342.26-.491 0-.94-.086-1.347-.26a3.091 3.091 0 0 1-1.06-.758 3.447 3.447 0 0 1-.69-1.193 4.785 4.785 0 0 1-.244-1.58v-.345c0-.587.082-1.114.244-1.58.163-.47.39-.87.684-1.2a2.98 2.98 0 0 1 1.056-.752 3.342 3.342 0 0 1 1.347-.265c.491 0 .94.088 1.347.265.406.173.756.424 1.05.753.297.329.526.728.689 1.198.163.467.244.994.244 1.58Zm-1.745.344v-.355c0-.392-.035-.739-.106-1.04a2.363 2.363 0 0 0-.307-.763 1.32 1.32 0 0 0-.499-.461 1.404 1.404 0 0 0-.673-.16c-.262 0-.49.054-.684.16a1.334 1.334 0 0 0-.494.461c-.13.205-.231.46-.302.764a4.8 4.8 0 0 0-.1 1.04v.354c0 .39.033.736.1 1.04.07.3.173.555.308.763.134.209.298.366.493.472.198.107.428.16.69.16.25 0 .473-.053.667-.16a1.35 1.35 0 0 0 .499-.472c.134-.208.235-.463.302-.763.07-.304.106-.65.106-1.04ZM96.18 16.764c0-.131-.019-.248-.058-.35a.71.71 0 0 0-.212-.292 1.943 1.943 0 0 0-.434-.265 5.375 5.375 0 0 0-.738-.281 9.954 9.954 0 0 1-.991-.382 4.272 4.272 0 0 1-.833-.504 2.205 2.205 0 0 1-.578-.668 1.842 1.842 0 0 1-.207-.891c0-.329.073-.626.218-.89.145-.266.348-.492.61-.68.261-.19.569-.336.922-.435a4.179 4.179 0 0 1 1.167-.153c.566 0 1.062.1 1.49.302.431.198.767.477 1.008.838.24.357.36.772.36 1.246h-1.718c0-.209-.044-.392-.132-.552a.892.892 0 0 0-.393-.381 1.382 1.382 0 0 0-.652-.138c-.255 0-.469.039-.642.117a.874.874 0 0 0-.387.307.773.773 0 0 0-.127.43c0 .123.032.237.095.339.067.099.163.193.287.281.127.085.282.166.466.244.184.078.395.152.631.223.414.13.78.276 1.098.435.322.159.592.339.811.54.22.202.384.43.494.685.113.254.17.542.17.864 0 .343-.068.647-.202.912-.131.265-.322.492-.573.679a2.667 2.667 0 0 1-.89.419 4.37 4.37 0 0 1-1.162.143c-.39 0-.773-.05-1.151-.148a3.404 3.404 0 0 1-1.029-.467 2.39 2.39 0 0 1-.732-.796c-.18-.325-.27-.71-.27-1.156h1.729c0 .234.033.432.1.594.068.16.163.288.287.387.127.1.28.17.461.213.18.042.382.063.605.063.258 0 .466-.035.626-.106a.792.792 0 0 0 .36-.302.798.798 0 0 0 .117-.424ZM101.197 11.079V18.8h-1.723v-7.721h1.723ZM106.33 12.548l-1.994 6.252h-1.845l2.858-7.721h1.167l-.186 1.469Zm1.655 6.252-2-6.252-.206-1.47h1.182l2.869 7.722h-1.845Zm-.085-2.874v1.336h-4.025v-1.336h4.025ZM114.91 16.764a.98.98 0 0 0-.058-.35.716.716 0 0 0-.212-.292 1.965 1.965 0 0 0-.435-.265 5.41 5.41 0 0 0-.737-.281 9.94 9.94 0 0 1-.992-.382 4.278 4.278 0 0 1-.833-.504 2.212 2.212 0 0 1-.578-.668 1.84 1.84 0 0 1-.206-.891c0-.329.072-.626.217-.89.145-.266.348-.492.61-.68.261-.19.569-.336.923-.435a4.173 4.173 0 0 1 1.166-.153c.566 0 1.063.1 1.49.302.432.198.768.477 1.008.838.24.357.361.772.361 1.246h-1.719a1.12 1.12 0 0 0-.132-.552.893.893 0 0 0-.393-.381 1.38 1.38 0 0 0-.652-.138 1.57 1.57 0 0 0-.642.117.882.882 0 0 0-.387.307.772.772 0 0 0-.127.43c0 .123.032.237.095.339.068.099.163.193.287.281.127.085.283.166.467.244.183.078.394.152.631.223.413.13.779.276 1.097.435.322.159.593.339.812.54a2.006 2.006 0 0 1 .663 1.549c0 .343-.068.647-.202.912a1.88 1.88 0 0 1-.573.679 2.657 2.657 0 0 1-.891.419 4.363 4.363 0 0 1-1.161.143c-.389 0-.772-.05-1.151-.148a3.413 3.413 0 0 1-1.029-.467 2.38 2.38 0 0 1-.731-.796c-.181-.325-.271-.71-.271-1.156h1.729c0 .234.034.432.101.594.067.16.162.288.286.387.127.1.281.17.462.213.18.042.381.063.604.063.258 0 .467-.035.626-.106a.79.79 0 0 0 .36-.302.796.796 0 0 0 .117-.424ZM119.926 11.079V18.8h-1.723v-7.721h1.723ZM72.323 28.158h-1.94v-1.341h1.94c.287 0 .517-.048.69-.143a.883.883 0 0 0 .387-.393c.085-.17.127-.36.127-.573 0-.219-.042-.422-.127-.61a1.023 1.023 0 0 0-.387-.46c-.173-.118-.403-.176-.69-.176h-1.315v6.38H69.28V23.12h3.043c.616 0 1.142.11 1.58.334.443.222.78.528 1.014.917.237.385.355.827.355 1.326 0 .498-.118.931-.355 1.3-.234.367-.571.653-1.013.858-.439.202-.965.302-1.58.302ZM82.007 29.505v1.337h-4.11v-1.337h4.11Zm-3.522-6.384v7.72h-1.729v-7.72h1.73Zm2.991 3.107v1.294h-3.58v-1.294h3.58Zm.536-3.108v1.342h-4.115v-1.341h4.115ZM85.734 30.842h-1.697l.01-1.337h1.687c.386 0 .71-.088.976-.265.265-.18.467-.445.605-.795.137-.354.206-.783.206-1.289v-.355c0-.382-.039-.718-.116-1.008a2.062 2.062 0 0 0-.345-.737 1.426 1.426 0 0 0-.567-.445 1.876 1.876 0 0 0-.77-.149h-1.718v-1.341h1.719c.523 0 1 .088 1.431.265.435.176.81.43 1.125.758.318.329.564.718.737 1.167.173.449.26.949.26 1.5v.345c0 .548-.087 1.048-.26 1.5a3.435 3.435 0 0 1-.737 1.168 3.254 3.254 0 0 1-1.12.753 3.728 3.728 0 0 1-1.426.265Zm-.716-7.721v7.72H83.29v-7.72h1.73ZM93.858 24.59l-1.994 6.252H90.02l2.858-7.721h1.167l-.186 1.469Zm1.655 6.252-2-6.252-.206-1.47h1.182l2.87 7.722h-1.846Zm-.085-2.874v1.336h-4.025v-1.336h4.025ZM104.549 26.764v3.113c-.128.145-.322.3-.584.466-.258.166-.588.31-.991.43-.403.117-.884.175-1.443.175-.505 0-.965-.081-1.379-.244a2.936 2.936 0 0 1-1.066-.727 3.342 3.342 0 0 1-.689-1.177c-.159-.463-.239-.993-.239-1.59v-.457c0-.597.08-1.128.24-1.59.158-.464.383-.855.673-1.173.29-.321.634-.566 1.034-.732.399-.166.841-.249 1.325-.249.69 0 1.254.111 1.692.334.439.22.771.523.997.912.23.39.371.837.424 1.342h-1.665a1.851 1.851 0 0 0-.212-.668 1.028 1.028 0 0 0-.44-.43c-.191-.102-.438-.153-.742-.153a1.42 1.42 0 0 0-.663.153c-.195.1-.359.25-.494.451a2.312 2.312 0 0 0-.307.753c-.07.297-.106.644-.106 1.04v.466c0 .396.035.744.106 1.045.074.3.182.551.323.753.142.198.32.348.536.45.219.103.474.154.764.154.226 0 .417-.017.572-.053a1.23 1.23 0 0 0 .605-.308v-1.282h-1.374v-1.204h3.103ZM109.374 24.59l-1.994 6.252h-1.845l2.858-7.721h1.167l-.186 1.469Zm1.655 6.252-2-6.252-.206-1.47h1.182l2.869 7.722h-1.845Zm-.085-2.874v1.336h-4.025v-1.336h4.025ZM120.319 23.12v7.722h-1.723l-2.917-4.99v4.99h-1.729V23.12h1.729l2.922 4.99v-4.99h1.718ZM128.252 26.764v3.113c-.127.145-.321.3-.583.466-.258.166-.589.31-.992.43-.403.117-.884.175-1.442.175-.506 0-.965-.081-1.379-.244a2.931 2.931 0 0 1-1.066-.727 3.332 3.332 0 0 1-.689-1.177c-.159-.463-.239-.993-.239-1.59v-.457c0-.597.08-1.128.239-1.59.159-.464.383-.855.673-1.173.29-.321.635-.566 1.034-.732.4-.166.842-.249 1.326-.249.689 0 1.253.111 1.692.334.438.22.77.523.997.912.23.39.371.837.424 1.342h-1.665a1.87 1.87 0 0 0-.212-.668 1.04 1.04 0 0 0-.44-.43c-.191-.102-.439-.153-.743-.153a1.42 1.42 0 0 0-.663.153c-.194.1-.359.25-.493.451a2.312 2.312 0 0 0-.308.753c-.07.297-.106.644-.106 1.04v.466c0 .396.036.744.106 1.045.075.3.182.551.324.753.141.198.32.348.536.45.219.103.473.154.763.154.226 0 .417-.017.573-.053a1.53 1.53 0 0 0 .382-.143c.099-.06.173-.115.222-.164v-1.284h-1.373v-1.203h3.102ZM72.488 36.631l-1.994 6.253h-1.846l2.859-7.722h1.166l-.185 1.47Zm1.654 6.253-1.999-6.253-.207-1.469h1.183l2.869 7.722h-1.846Zm-.084-2.875v1.337h-4.026v-1.337h4.026ZM81.068 40.847c0-.13-.02-.247-.058-.35a.711.711 0 0 0-.213-.291 1.944 1.944 0 0 0-.434-.266 5.377 5.377 0 0 0-.738-.28 9.963 9.963 0 0 1-.991-.382 4.273 4.273 0 0 1-.833-.504 2.204 2.204 0 0 1-.578-.669 1.842 1.842 0 0 1-.207-.89c0-.33.073-.626.218-.891.145-.265.348-.492.61-.68.261-.19.569-.335.922-.434a4.18 4.18 0 0 1 1.167-.154c.566 0 1.062.101 1.49.303.431.197.767.477 1.008.837.24.358.36.773.36 1.247h-1.718c0-.209-.044-.393-.132-.552a.892.892 0 0 0-.393-.382 1.382 1.382 0 0 0-.652-.138c-.255 0-.469.04-.642.117a.875.875 0 0 0-.387.308.773.773 0 0 0-.127.43.63.63 0 0 0 .095.339c.067.099.163.192.287.28.127.086.282.167.466.245.184.077.395.152.631.222.414.131.78.276 1.098.435.322.16.592.34.812.541.219.202.383.43.493.684.113.255.17.543.17.865 0 .342-.068.647-.202.912-.131.265-.322.491-.573.678a2.664 2.664 0 0 1-.89.42 4.374 4.374 0 0 1-1.162.143c-.39 0-.773-.05-1.151-.149a3.407 3.407 0 0 1-1.029-.467 2.39 2.39 0 0 1-.732-.795c-.18-.325-.27-.71-.27-1.156h1.729c0 .233.033.431.1.594.068.159.163.288.287.387.127.099.281.17.461.212.18.043.382.064.605.064.258 0 .466-.036.626-.106a.792.792 0 0 0 .36-.302.798.798 0 0 0 .117-.425ZM89.494 41.547v1.337h-4.11v-1.337h4.11Zm-3.521-6.385v7.722h-1.729v-7.722h1.729Zm2.99 3.108v1.294h-3.579V38.27h3.58Zm.536-3.108v1.342h-4.115v-1.342H89.5ZM94.478 35.162v7.722h-1.723v-7.722h1.724Zm2.35 0v1.342h-6.374v-1.342h6.374ZM102.687 35.162v7.722h-1.729v-7.722h1.729Zm4.614 0-3.023 3.86-1.761 1.91-.313-1.607 1.162-1.665 1.813-2.498h2.122Zm-2.005 7.722-2.132-3.527 1.315-1.023 2.864 4.55h-2.047ZM108.318 35.162h2.965c.59 0 1.101.089 1.532.265.435.177.769.439 1.003.785.233.347.35.775.35 1.284 0 .424-.069.785-.207 1.081a1.962 1.962 0 0 1-.583.738 3.117 3.117 0 0 1-.87.472l-.562.307h-2.525l-.01-1.342h1.877c.258 0 .472-.046.642-.137a.902.902 0 0 0 .382-.388c.088-.17.132-.367.132-.593 0-.234-.044-.435-.132-.605a.89.89 0 0 0-.393-.387 1.324 1.324 0 0 0-.636-.138h-1.236v6.38h-1.729v-7.722Zm4.275 7.722-1.734-3.431 1.824-.006 1.76 3.357v.08h-1.85ZM117.614 35.162v7.722h-1.723v-7.722h1.723ZM122.487 40.2h-1.941v-1.342h1.941c.287 0 .517-.047.69-.143a.88.88 0 0 0 .387-.392c.085-.17.127-.36.127-.573 0-.219-.042-.422-.127-.61a1.019 1.019 0 0 0-.387-.461c-.173-.117-.403-.175-.69-.175h-1.315v6.38h-1.729v-7.722h3.044c.616 0 1.142.112 1.581.334.442.223.779.529 1.013.918.236.385.355.827.355 1.326 0 .498-.119.931-.355 1.299a2.322 2.322 0 0 1-1.013.859c-.439.201-.965.302-1.581.302ZM130.516 35.162v7.722h-1.724v-7.722h1.724Zm2.349 0v1.342h-6.374v-1.342h6.374ZM140.443 38.853v.345c0 .587-.082 1.114-.244 1.58a3.382 3.382 0 0 1-.684 1.194 2.997 2.997 0 0 1-1.05.758c-.403.173-.851.26-1.342.26-.491 0-.94-.087-1.347-.26a3.104 3.104 0 0 1-1.061-.758 3.453 3.453 0 0 1-.689-1.194 4.775 4.775 0 0 1-.244-1.58v-.345c0-.587.081-1.113.244-1.58a3.5 3.5 0 0 1 .684-1.199c.297-.328.649-.58 1.055-.753a3.345 3.345 0 0 1 1.347-.265c.492 0 .941.089 1.347.265.407.174.757.425 1.05.753.297.33.527.729.69 1.199.162.467.244.993.244 1.58Zm-1.745.345v-.355a4.55 4.55 0 0 0-.106-1.04 2.354 2.354 0 0 0-.308-.763 1.315 1.315 0 0 0-.498-.462 1.406 1.406 0 0 0-.674-.159 1.41 1.41 0 0 0-.684.16 1.34 1.34 0 0 0-.493.46c-.131.206-.231.46-.302.764-.067.3-.101.647-.101 1.04v.355c0 .389.034.735.101 1.04.071.3.173.554.307.763.135.209.299.366.494.472.198.106.427.16.689.16.251 0 .474-.054.668-.16.198-.106.364-.263.499-.472a2.35 2.35 0 0 0 .302-.764c.071-.304.106-.65.106-1.04ZM71.12 47.204v7.721h-1.724v-7.72h1.724ZM79.318 47.204v7.721h-1.724l-2.916-4.99v4.99h-1.73v-7.72h1.73l2.922 4.99v-4.99h1.718ZM83.475 54.925h-1.697l.01-1.336h1.687c.385 0 .71-.088.976-.265.265-.18.467-.446.604-.796.138-.353.207-.783.207-1.288v-.356c0-.381-.039-.717-.117-1.007a2.066 2.066 0 0 0-.344-.737 1.425 1.425 0 0 0-.568-.446 1.878 1.878 0 0 0-.769-.148h-1.718v-1.342h1.718c.524 0 1.001.088 1.432.265.435.177.81.43 1.124.759.319.328.564.717.738 1.166.173.45.26.95.26 1.501v.345c0 .548-.087 1.048-.26 1.5a3.435 3.435 0 0 1-.737 1.167 3.254 3.254 0 0 1-1.12.753 3.727 3.727 0 0 1-1.426.265Zm-.716-7.72v7.72H81.03v-7.72h1.73ZM94.945 50.895v.345c0 .587-.081 1.113-.244 1.58-.159.467-.387.864-.684 1.193a2.988 2.988 0 0 1-1.05.759c-.403.173-.85.26-1.341.26-.492 0-.94-.087-1.348-.26a3.092 3.092 0 0 1-1.06-.759 3.447 3.447 0 0 1-.69-1.193 4.783 4.783 0 0 1-.244-1.58v-.345c0-.587.082-1.114.244-1.58.163-.47.391-.87.685-1.199.297-.329.648-.58 1.055-.753a3.342 3.342 0 0 1 1.347-.265c.491 0 .94.088 1.347.265a2.93 2.93 0 0 1 1.05.753c.297.329.527.728.69 1.199.162.466.243.993.243 1.58Zm-1.744.345v-.356c0-.392-.036-.739-.107-1.039a2.363 2.363 0 0 0-.307-.764 1.32 1.32 0 0 0-.499-.461 1.403 1.403 0 0 0-.673-.16c-.262 0-.49.054-.684.16a1.33 1.33 0 0 0-.493.461c-.131.205-.232.46-.303.764-.067.3-.1.647-.1 1.04v.355c0 .389.033.735.1 1.04.071.3.173.554.308.763.134.208.299.366.493.472.198.106.428.159.69.159.25 0 .473-.053.668-.16.198-.105.364-.263.498-.471.135-.209.235-.463.302-.764.071-.304.107-.65.107-1.04ZM102.809 47.204v7.721h-1.723l-2.917-4.99v4.99H96.44v-7.72h1.73l2.921 4.99v-4.99h1.718ZM109.772 53.589v1.336h-4.11V53.59h4.11Zm-3.521-6.385v7.721h-1.729v-7.72h1.729Zm2.991 3.108v1.294h-3.58v-1.294h3.58Zm.535-3.108v1.342h-4.115v-1.342h4.115ZM115.059 52.889a.98.98 0 0 0-.059-.35.707.707 0 0 0-.212-.292 1.915 1.915 0 0 0-.435-.265 5.345 5.345 0 0 0-.737-.28c-.346-.114-.677-.241-.992-.383a4.274 4.274 0 0 1-.832-.504 2.199 2.199 0 0 1-.578-.668 1.841 1.841 0 0 1-.207-.89c0-.33.072-.626.217-.892.145-.265.349-.491.61-.678.262-.191.57-.336.923-.435a4.18 4.18 0 0 1 1.167-.154c.565 0 1.062.1 1.49.302a2.36 2.36 0 0 1 1.007.838c.241.357.361.773.361 1.246h-1.718a1.11 1.11 0 0 0-.133-.551.89.89 0 0 0-.392-.382 1.38 1.38 0 0 0-.652-.138c-.255 0-.469.04-.642.117a.87.87 0 0 0-.387.307.772.772 0 0 0-.127.43c0 .124.031.237.095.34.067.098.163.192.286.28.128.085.283.167.467.244.184.078.394.152.631.223.414.13.78.276 1.098.435.322.16.592.34.811.54.219.202.384.43.493.685.114.255.17.543.17.864 0 .343-.067.647-.201.913a1.88 1.88 0 0 1-.573.678 2.674 2.674 0 0 1-.891.42 4.378 4.378 0 0 1-1.161.142 4.53 4.53 0 0 1-1.151-.148 3.404 3.404 0 0 1-1.029-.467 2.393 2.393 0 0 1-.732-.795c-.18-.325-.27-.71-.27-1.156h1.728c0 .233.034.431.101.594.067.159.163.288.287.387.127.099.281.17.461.212.18.042.382.064.605.064.258 0 .466-.036.625-.107a.792.792 0 0 0 .361-.302.796.796 0 0 0 .117-.424ZM120.075 47.204v7.721h-1.724v-7.72h1.724ZM125.208 48.673l-1.994 6.252h-1.846l2.859-7.72h1.166l-.185 1.468Zm1.654 6.252-1.999-6.252-.207-1.469h1.183l2.869 7.721h-1.846Zm-.084-2.874v1.337h-4.025V52.05h4.025Z" fill="#000"/></g><defs><clipPath id="a"><path fill="#fff" transform="translate(.563 .484)" d="M0 0h139.877v65.032H0z"/></clipPath></defs></svg>