<svg width="24" height="25" viewBox="0 0 24 25" fill="none" xmlns="http://www.w3.org/2000/svg">
<g clip-path="url(#clip0_2570_200646)">
<path d="M12 0.594727C5.373 0.594727 0 5.96773 0 12.5947C0 19.2217 5.373 24.5947 12 24.5947C18.627 24.5947 24 19.2217 24 12.5947C24 5.96773 18.627 0.594727 12 0.594727ZM18.066 10.2397C18.249 14.2797 15.236 18.7837 9.902 18.7837C8.28 18.7837 6.771 18.3077 5.5 17.4927C7.024 17.6727 8.545 17.2487 9.752 16.3037C8.496 16.2807 7.435 15.4497 7.068 14.3087C7.519 14.3947 7.963 14.3697 8.366 14.2597C6.985 13.9817 6.031 12.7377 6.062 11.4067C6.45 11.6217 6.892 11.7507 7.363 11.7657C6.084 10.9107 5.722 9.22173 6.474 7.93073C7.89 9.66873 10.007 10.8117 12.394 10.9317C11.975 9.13573 13.338 7.40473 15.193 7.40473C16.018 7.40473 16.765 7.75373 17.289 8.31173C17.943 8.18373 18.559 7.94373 19.113 7.61473C18.898 8.28573 18.443 8.84773 17.85 9.20373C18.431 9.13373 18.985 8.97973 19.499 8.75073C19.115 9.32873 18.629 9.83473 18.066 10.2397Z" fill="white"/>
</g>
<defs>
<clipPath id="clip0_2570_200646">
<rect y="0.594727" width="24" height="24" rx="12" fill="white"/>
</clipPath>
</defs>
</svg>
