<svg width="24" height="25" viewBox="0 0 24 25" fill="none" xmlns="http://www.w3.org/2000/svg">
<g clip-path="url(#clip0_2570_200648)">
<path fill-rule="evenodd" clip-rule="evenodd" d="M12 0.594727C5.374 0.594727 0 5.96673 0 12.5947C0 19.2217 5.374 24.5947 12 24.5947C18.627 24.5947 24 19.2217 24 12.5947C24 5.96673 18.627 0.594727 12 0.594727ZM15.224 18.4657C15.412 18.5987 15.654 18.6317 15.87 18.5507C16.085 18.4687 16.244 18.2837 16.292 18.0597C16.799 15.6777 18.029 9.64773 18.49 7.48173C18.525 7.31773 18.467 7.14773 18.339 7.03873C18.21 6.92973 18.032 6.89873 17.874 6.95673C15.428 7.86273 7.895 10.6887 4.816 11.8277C4.621 11.9007 4.494 12.0877 4.5 12.2947C4.507 12.5007 4.646 12.6797 4.846 12.7397C6.227 13.1527 8.039 13.7277 8.039 13.7277C8.039 13.7277 8.886 16.2857 9.327 17.5857C9.383 17.7497 9.511 17.8777 9.679 17.9217C9.848 17.9657 10.027 17.9197 10.153 17.8007C10.862 17.1317 11.958 16.0967 11.958 16.0967C11.958 16.0967 14.042 17.6237 15.224 18.4657ZM8.801 13.4037L9.781 16.6347L9.999 14.5887C9.999 14.5887 13.782 11.1757 15.94 9.23073C16.003 9.17373 16.011 9.07773 15.959 9.01073C15.907 8.94373 15.811 8.92773 15.74 8.97373C13.24 10.5697 8.801 13.4037 8.801 13.4037Z" fill="white"/>
</g>
<defs>
<clipPath id="clip0_2570_200648">
<rect width="24" height="24" fill="white" transform="translate(0 0.594727)"/>
</clipPath>
</defs>
</svg>
