<svg width="24" height="25" viewBox="0 0 24 25" fill="none" xmlns="http://www.w3.org/2000/svg">
<g clip-path="url(#clip0_2570_200652)">
<path d="M12 0.594727C5.373 0.594727 0 5.96773 0 12.5947C0 19.2217 5.373 24.5947 12 24.5947C18.627 24.5947 24 19.2217 24 12.5947C24 5.96773 18.627 0.594727 12 0.594727ZM10 16.5947H8V10.5947H10V16.5947ZM9 9.70373C8.393 9.70373 7.9 9.20773 7.9 8.59473C7.9 7.98273 8.392 7.48573 9 7.48573C9.608 7.48573 10.1 7.98273 10.1 8.59473C10.1 9.20773 9.607 9.70373 9 9.70373ZM17 16.5947H15.002V13.7337C15.002 11.8527 13 12.0117 13 13.7337V16.5947H11V10.5947H13V11.6877C13.872 10.0717 17 9.95173 17 13.2357V16.5947Z" fill="white"/>
</g>
<defs>
<clipPath id="clip0_2570_200652">
<rect width="24" height="24" fill="white" transform="translate(0 0.594727)"/>
</clipPath>
</defs>
</svg>
