<svg width="24" height="25" viewBox="0 0 24 25" fill="none" xmlns="http://www.w3.org/2000/svg">
<g clip-path="url(#clip0_2570_200650)">
<path d="M14.829 6.89673C14.091 6.86273 13.869 6.85673 12 6.85673C10.131 6.85673 9.91 6.86373 9.172 6.89673C7.273 6.98373 6.389 7.88273 6.302 9.76673C6.269 10.5047 6.261 10.7257 6.261 12.5947C6.261 14.4637 6.269 14.6847 6.302 15.4237C6.389 17.3027 7.269 18.2067 9.172 18.2937C9.909 18.3267 10.131 18.3347 12 18.3347C13.87 18.3347 14.091 18.3277 14.829 18.2937C16.728 18.2077 17.611 17.3057 17.699 15.4237C17.732 14.6857 17.739 14.4637 17.739 12.5947C17.739 10.7257 17.732 10.5047 17.699 9.76673C17.611 7.88373 16.726 6.98373 14.829 6.89673ZM12 16.1897C10.015 16.1897 8.405 14.5807 8.405 12.5947C8.405 10.6097 10.015 9.00073 12 9.00073C13.985 9.00073 15.595 10.6097 15.595 12.5947C15.595 14.5797 13.985 16.1897 12 16.1897ZM15.737 9.69873C15.273 9.69873 14.897 9.32273 14.897 8.85873C14.897 8.39473 15.273 8.01873 15.737 8.01873C16.201 8.01873 16.577 8.39473 16.577 8.85873C16.577 9.32173 16.201 9.69873 15.737 9.69873ZM14.333 12.5947C14.333 13.8837 13.288 14.9277 12 14.9277C10.712 14.9277 9.667 13.8837 9.667 12.5947C9.667 11.3057 10.712 10.2617 12 10.2617C13.288 10.2617 14.333 11.3057 14.333 12.5947ZM12 0.594727C5.373 0.594727 0 5.96773 0 12.5947C0 19.2217 5.373 24.5947 12 24.5947C18.627 24.5947 24 19.2217 24 12.5947C24 5.96773 18.627 0.594727 12 0.594727ZM18.958 15.4807C18.843 18.0257 17.426 19.4357 14.887 19.5527C14.14 19.5867 13.901 19.5947 12 19.5947C10.099 19.5947 9.861 19.5867 9.114 19.5527C6.57 19.4357 5.159 18.0237 5.042 15.4807C5.008 14.7347 5 14.4957 5 12.5947C5 10.6937 5.008 10.4557 5.042 9.70873C5.159 7.16473 6.571 5.75373 9.114 5.63773C9.861 5.60273 10.099 5.59473 12 5.59473C13.901 5.59473 14.14 5.60273 14.887 5.63773C17.432 5.75473 18.844 7.16973 18.958 9.70873C18.992 10.4557 19 10.6937 19 12.5947C19 14.4957 18.992 14.7347 18.958 15.4807Z" fill="white"/>
</g>
<defs>
<clipPath id="clip0_2570_200650">
<rect width="24" height="24" fill="white" transform="translate(0 0.594727)"/>
</clipPath>
</defs>
</svg>
