<svg width="123" height="52" fill="none" xmlns="http://www.w3.org/2000/svg"><path d="M37.934 38.626c-.4-.17-.753-.43-1.034-.76-.733-.816-1.123-1.793-1.314-2.859a8.936 8.936 0 0 1-.13-1.586c0-1.51-.008-3.022-.008-4.533 0-1.574-.007-3.148.015-4.72.014-1.053.014-2.105.01-3.157 0-1.128-.076-2.25-.407-3.339-.286-.943-.772-1.751-1.613-2.308-.594-.393-1.256-.6-1.953-.707-1.123-.178-2.245-.116-3.365.033-1.757.234-3.486.63-5.232.933-1.697.294-3.384.603-5.075.912-1.394.255-2.786.52-4.18.774-.157.029-.237.081-.236.257.007.875 0 1.751.005 2.627.004.04.012.08.024.12.125.034.235-.01.344-.03 2.538-.442 5.083-.828 7.628-1.215 2.205-.334 4.409-.673 6.609-1.035.547-.09 1.087-.186 1.644-.134 1.258.119 2.137.75 2.61 1.93.211.545.316 1.127.307 1.712.004 1.053 0 2.105 0 3.157 0 .209.056.273-.263.308-.974.106-1.946.227-2.92.34-1.148.134-2.298.263-3.447.399-1.314.155-2.628.314-3.942.476-1.447.18-2.895.368-4.342.552-.816.104-1.636.186-2.437.39-1.24.317-2.378.833-3.339 1.697-1.143 1.026-1.78 2.314-1.985 3.828-.067.487-.057.976-.058 1.466 0 .707.007 1.414 0 2.126-.017 1.468.533 2.696 1.55 3.733l.24.245c.004.004 0 .02 0 .04-.078.057-.173.03-.26.03H4.934a9.066 9.066 0 0 1-2.05-.212c-1.097-.255-1.833-.897-2.179-1.98-.225-.7-.313-1.422-.35-2.153C.34 35.6.34 35.213.34 34.828V14.91a9.392 9.392 0 0 1 .127-1.586c.196-1.14.803-1.993 1.78-2.596.784-.489 1.64-.814 2.52-1.076 1.15-.342 2.32-.605 3.48-.903 2.838-.725 5.675-1.45 8.509-2.172 4.644-1.18 9.29-2.36 13.936-3.535 1.12-.283 2.236-.588 3.375-.798.659-.123 1.321-.192 1.99-.104.942.125 1.584.637 1.927 1.525.22.587.328 1.21.32 1.838.005 10.391.005 20.782 0 31.172.01.5-.049 1-.173 1.485-.032.167-.1.325-.197.465Z" fill="#B7026F"/><path d="M55.54 26.08v-6.69c0-1.12.112-2.228.45-3.3.43-1.375 1.198-2.492 2.508-3.175.82-.424 1.704-.598 2.616-.66.794-.054 1.582.032 2.37.108 1.421.137 2.842.283 4.263.419 2.21.215 4.42.424 6.628.649a8.823 8.823 0 0 1 2.942.8c1.653.795 2.724 2.09 3.277 3.826.3.967.45 1.974.443 2.987.008 4.2.008 8.4 0 12.6a9.063 9.063 0 0 1-.452 2.921c-.59 1.738-1.773 2.857-3.523 3.388-.8.241-1.63.363-2.466.362-2.242.005-4.484 0-6.725 0-1.074 0-2.148.02-3.221.019-.876 0-1.752 0-2.626-.037a8.035 8.035 0 0 1-2.8-.594c-1.418-.593-2.412-1.606-3.004-3.02a8.835 8.835 0 0 1-.66-3.35c-.024-2.417-.008-4.835-.008-7.253h-.013Zm2.914.123v6.284c-.003.5.046 1 .146 1.49.323 1.555 1.228 2.561 2.777 2.973.711.189 1.438.241 2.172.241 3.471.004 6.944.004 10.416 0a6.35 6.35 0 0 0 1.639-.207c1.187-.318 1.997-1.04 2.357-2.234.152-.51.228-1.04.225-1.572.004-3.98.004-7.961 0-11.943a6.45 6.45 0 0 0-.207-1.639c-.364-1.396-1.22-2.34-2.592-2.812a6.333 6.333 0 0 0-1.493-.323c-1.453-.13-2.906-.252-4.36-.38-2.066-.18-4.131-.362-6.197-.543a9.19 9.19 0 0 0-1.436-.018c-1.665.114-2.757.969-3.202 2.515a6.626 6.626 0 0 0-.24 1.822l-.005 6.346ZM86.309 40.321V14.636c0-.815.07-1.623.3-2.41.39-1.354 1.255-2.302 2.5-2.931.756-.382 1.555-.658 2.36-.908 1.551-.481 3.092-.996 4.66-1.429a125 125 0 0 1 9.463-2.205c1.291-.25 2.589-.242 3.889-.047.711.107 1.421.22 2.131.33.27.041.274.04.275.31v2.063c0 .236-.019.251-.253.218-.691-.097-1.383-.19-2.073-.299-1.126-.18-2.24-.12-3.354.113-2.693.563-5.367 1.2-8.024 1.914-1.79.484-3.55 1.073-5.314 1.642-.615.198-1.224.41-1.827.642-1.254.484-1.874 1.399-1.898 2.732-.009.458 0 .919-.015 1.375-.004.162.058.217.212.23.654.059 1.307.125 1.96.19 1.39.141 2.779.282 4.172.418 1.359.133 2.718.264 4.076.393.218.02.436.047.654.06.13.009.184.064.184.195-.003.771-.003 1.543 0 2.313 0 .163-.08.19-.217.178-.343-.033-.686-.058-1.029-.087l-6.945-.593-2.77-.237c-.082-.007-.166-.034-.255.008-.07.109-.036.237-.037.359V39.933c0 .424.056.387-.38.387H86.66l-.35.001Z" fill="#0B0B0B"/><path d="M22.788 38.938h-5.943a4.301 4.301 0 0 1-1.649-.31c-1.258-.515-2.04-1.431-2.21-2.795a8.768 8.768 0 0 1 .005-2.399c.303-1.99 1.748-3.388 3.758-3.613 1.667-.187 3.337-.348 5.007-.515 1.628-.164 3.257-.323 4.888-.478 1.608-.156 3.215-.31 4.824-.463.248-.024.494-.053.747-.07.218-.017.222-.009.231.217.007.156.016.312.016.469.006 1.823.015 3.647.013 5.47a5.98 5.98 0 0 1-.46 2.377c-.554 1.292-1.544 1.98-2.936 2.096-.166.014-.333.013-.5.013l-5.791.001Z" fill="#B7026F"/><path d="M45.441.633c.193-.037.364.023.537.044.672.081 1.343.169 2.016.258.27.036.268.04.271.307v38.709c0 .394.047.372-.367.373h-2.127a.785.785 0 0 1-.33-.03V.632ZM114.718 37.818v2.475a4.127 4.127 0 0 1-.817-.111c-1.131-.227-2.21-.603-3.187-1.232-1.349-.87-2.207-2.07-2.455-3.677a6.641 6.641 0 0 1-.071-.996V20.741c0-.461-.006-.373-.358-.405-.758-.07-1.517-.123-2.274-.184l-.218-.018a.13.13 0 0 1-.125-.088.139.139 0 0 1-.005-.054V17.71c0-.06.01-.121.019-.212.291.022.565.04.843.065.623.053 1.246.11 1.869.164.24.021.247.018.247-.229v-3.157c0-.4 0-.404.403-.353.714.086 1.428.175 2.141.266.283.036.283.041.283.325v3.127c0 .323 0 .316.326.346a1422.122 1422.122 0 0 1 5.321.497c.226.023.232.024.232.233.003.699.003 1.397 0 2.095 0 .198-.019.212-.219.198-.965-.08-1.931-.166-2.899-.247-.848-.071-1.703-.138-2.554-.212-.141-.013-.223.017-.212.177.005.062 0 .125 0 .188V34.3c0 .843.223 1.606.8 2.24.38.405.849.715 1.369.907a6.293 6.293 0 0 0 1.541.372ZM63.712 51.219v-3.404c-.148.038-.147.146-.177.225-.356.967-.71 1.935-1.06 2.904-.114.31-.309.405-.624.31-.126-.037-.129-.153-.163-.246-.31-.84-.618-1.68-.924-2.523-.078-.212-.161-.424-.247-.651-.142.082-.093.195-.093.282v2.751c0 .063-.004.126 0 .188.012.145-.045.212-.196.204a2.766 2.766 0 0 0-.375 0c-.171.014-.212-.07-.212-.223.007-.396 0-.792 0-1.188v-2.783c0-.293 0-.293.292-.295h.688c.261 0 .263 0 .354.248.293.769.584 1.54.88 2.307.054.142.091.297.197.445.11-.07.123-.19.16-.287.317-.816.633-1.632.947-2.448.102-.264.102-.264.375-.265h.688c.268 0 .27.004.272.282v3.908c0 .292 0 .296-.293.294-.15.003-.308.033-.489-.035ZM71.3 51.231c-.024.01-.043.026-.061.026-.227 0-.505.095-.666-.04-.16-.134-.054-.41-.055-.625-.006-1.145 0-2.29 0-3.437v-.218c0-.117.05-.17.169-.167.25.004.5.01.75 0 .175-.008.23.119.303.23l1.74 2.668c.062.095.125.188.19.283.128-.076.082-.18.082-.261v-2.625c0-.29 0-.296.293-.293.625.006.525-.087.528.525.005 1.197 0 2.395 0 3.593v.218c0 .103-.043.155-.148.154h-.778c-.141 0-.187-.114-.248-.208-.475-.735-.949-1.47-1.422-2.206-.184-.286-.372-.572-.566-.873-.115.099-.07.209-.074.302v2.656c-.01.1.022.206-.038.298ZM25.36 51.228c-.047-.094-.028-.189-.028-.283v-3.902c.004-.27.004-.272.283-.273h1.562c.187.001.373.035.55.1.418.15.676.434.733.883.057.435-.1.773-.473 1.009-.043.027-.084.057-.123.083.008.113.103.102.16.13a1.04 1.04 0 0 1 .627.931c.03.48-.141.855-.565 1.103a1.697 1.697 0 0 1-.74.23c-.636.048-1.269.02-1.904.017a.254.254 0 0 1-.082-.028Zm.793-1.313v.469c0 .077.014.164.104.163.414 0 .837.08 1.235-.097a.532.532 0 0 0 .344-.512c0-.325-.124-.504-.443-.589-.37-.098-.747-.043-1.12-.05-.093 0-.121.065-.121.147v.469Zm0-1.905c0 .124.005.25 0 .374-.009.152.063.201.205.196.218-.006.437 0 .655-.004.126 0 .25-.032.359-.094.183-.107.29-.26.277-.484a.484.484 0 0 0-.331-.447c-.198-.08-.407-.08-.615-.077-.653.005-.543-.085-.555.537l.005-.001ZM57.09 47.463c-.11.063-.227.034-.339.035-.52 0-1.042.005-1.563 0-.156 0-.23.044-.224.212a7.5 7.5 0 0 1 0 .655c-.008.164.057.218.217.217.53-.007 1.06 0 1.594 0 .062 0 .123.007.194.01.07.207.032.415.033.62 0 .14-.114.121-.206.122H55.36c-.42 0-.393-.03-.393.384v.562c0 .232.006.236.249.237h1.876c.103 0 .153.048.148.152v.03c-.01.692.09.556-.518.562-.772.01-1.542 0-2.314 0-.282 0-.282 0-.286-.265v-3.967c0-.255.005-.259.264-.26h2.47c.256 0 .261.006.26.262.002.145.03.292-.025.432ZM89.341 46.808v1.725c.08.047.115.03.146 0 .524-.536 1.052-1.068 1.569-1.611a.424.424 0 0 1 .353-.156c.27.008.54 0 .843 0-.102.257-.324.367-.476.535-.151.17-.336.341-.506.51-.17.17-.344.334-.506.51-.162.176-.37.303-.517.537l2.16 2.34c-.1.088-.195.057-.283.06-.187.004-.376-.01-.566.004a.477.477 0 0 1-.428-.193c-.495-.575-1.003-1.142-1.506-1.712-.07-.076-.141-.15-.234-.253-.086.257-.037.495-.046.72-.009.224 0 .458 0 .686v.73h-.76c-.074-.056-.054-.133-.054-.203v-3.998c0-.27.004-.27.282-.272.146 0 .292 0 .437.004.032.009.063.02.092.037ZM30.531 51.238c-.038-.113.026-.181.058-.254.57-1.318 1.15-2.632 1.713-3.954.09-.212.205-.273.425-.263.461.02.38-.06.565.371.557 1.29 1.113 2.58 1.667 3.871a.379.379 0 0 1 .061.226c-.258.061-.527.018-.792.024-.1 0-.135-.077-.167-.16-.087-.223-.189-.44-.268-.666-.054-.153-.142-.202-.303-.2-.5.008-1 .008-1.5 0a.246.246 0 0 0-.272.192c-.071.208-.174.403-.237.612-.056.185-.162.246-.345.228-.203-.02-.412.026-.605-.027Zm2.263-3.368h-.077c-.212.536-.434 1.069-.615 1.62.295.076 1.038.07 1.304-.006l-.612-1.614ZM86.35 51.264h-.757c-.102 0-.141-.067-.174-.15-.088-.222-.192-.44-.269-.665-.056-.17-.153-.217-.324-.212-.48.01-.96.013-1.438 0-.193-.006-.283.07-.336.238-.071.218-.169.425-.25.641a.197.197 0 0 1-.205.154c-.237-.005-.476 0-.7 0-.064-.1-.009-.164.018-.226.581-1.337 1.168-2.672 1.741-4.012.083-.193.185-.29.397-.255.062.009.125.009.187 0 .189-.03.274.064.345.231.572 1.344 1.153 2.678 1.73 4.017.028.056.082.117.036.239Zm-2.214-3.422h-.06l-.657 1.703c.478 0 .896.012 1.355-.01l-.638-1.693ZM51.688 47.144a6.588 6.588 0 0 1-.554.592 1.107 1.107 0 0 0-.729-.335.896.896 0 0 0-.565.137.474.474 0 0 0 .006.808c.202.137.433.201.66.283.137.048.279.084.413.142.461.197.777.507.813 1.044.034.555-.146 1.002-.625 1.306-.616.393-1.83.364-2.413-.26a1.042 1.042 0 0 1-.061-.093l.576-.566c.107.008.15.118.227.182a1.032 1.032 0 0 0 1.114.136c.424-.216.45-.688.055-.948a2.133 2.133 0 0 0-.485-.212 5.968 5.968 0 0 1-.702-.26c-.896-.439-.797-1.596-.204-2.072.636-.512 1.828-.502 2.445.04.01.015.014.04.029.076ZM80.756 46.772c.007.146-.07.212-.121.282-.456.698-.91 1.397-1.373 2.091a.772.772 0 0 0-.141.465c.008.438.004.876 0 1.313 0 .103.023.209-.03.305a.102.102 0 0 1-.03.015c-.755.1-.755.1-.755-.651 0-.334-.007-.667 0-1a.764.764 0 0 0-.142-.467c-.456-.684-.907-1.373-1.36-2.06-.05-.077-.121-.142-.132-.269.295-.056.592-.019.888-.022.112 0 .149.1.198.179l.79 1.272c.048.08.1.157.147.23.123.006.142-.092.182-.157.278-.44.557-.88.824-1.327.092-.153.198-.22.379-.208.225.02.443.009.676.009ZM37.191 51.233v-4.44c.232-.04.459-.015.683-.018a.11.11 0 0 1 .11.072.11.11 0 0 1 .007.046c.004.083 0 .167 0 .25v3.096c0 .274 0 .277.272.278.469 0 .938.004 1.407 0 .155 0 .226.041.222.212-.016.644.08.53-.52.536-.615.007-1.23 0-1.845 0a.851.851 0 0 1-.336-.032ZM120.582 22.241c-1.034.057-2.084-.813-2.086-2.065-.001-1.251 1.046-2.083 2.079-2.086 1.006 0 2.085.795 2.086 2.078.001 1.284-1.085 2.128-2.079 2.073Zm1.692-2.085c-.007-.082-.01-.176-.027-.267-.118-.668-.48-1.153-1.124-1.38-.62-.217-1.194-.085-1.681.358-.519.472-.725 1.299-.404 2.038a1.673 1.673 0 0 0 2.008.96c.717-.202 1.232-.913 1.228-1.71ZM42.038 49v-1.965c0-.259.004-.266.257-.264.672.007.566-.088.566.55.006 1.185 0 2.37 0 3.554v.219c.006.12-.052.158-.168.17-.658.065-.658.07-.658-.581L42.038 49ZM67.094 49.03v-1.995c0-.26.004-.26.257-.266.566-.014.566-.014.566.55v3.648c0 .29 0 .29-.288.294-.535.007-.535.007-.535-.516v-1.714Z" fill="#0B0B0B"/><path d="M120.966 20.33c.172.372.44.665.616 1.016-.349.083-.358.081-.522-.177-.142-.219-.277-.44-.418-.659-.038-.06-.07-.126-.147-.151-.212-.07-.326.008-.328.242v.499c0 .27-.019.297-.196.293-.176-.005-.181-.024-.182-.309V19.122c0-.116.05-.174.168-.171.343.009.687-.032 1.027.026a.675.675 0 0 1 .531.388.686.686 0 0 1-.047.657c-.11.182-.297.248-.502.307Zm-.406-1.053v.006c-.07 0-.145.004-.217 0-.137-.01-.174.054-.18.184-.03.6 0 .63.602.546a.984.984 0 0 0 .123-.017.36.36 0 0 0 .283-.36.333.333 0 0 0-.302-.339 2.643 2.643 0 0 0-.309-.02Z" fill="#0B0B0B"/></svg>