<svg width="143" height="62" fill="none" xmlns="http://www.w3.org/2000/svg"><path d="M74.625 12.852V5.224c0-1.336-.923-1.634-2.062-1.87.166-.263.237-.505.398-.6 1.568-.742 3.066-1.67 4.961-2.098v25.44c0 1.815 0 1.81 1.805 1.85.156 0 .313 0 .504.036.05.111.087.228.111.347 0 .156-.014.311-.04.464-1.775.383-3.434 1.346-5.47 1.316v-2.475c-.65.504-1.125.922-1.644 1.27-2.581 1.724-5.949 2.017-8.434.136a7.784 7.784 0 0 1-2.733-4.537 9.876 9.876 0 0 1 5.546-11.46c1.946-.892 3.952-.867 5.994-.433.323.045.63.146 1.064.242Zm.156 8.475c0-1.372.036-2.738 0-4.104-.035-1.24-.322-2.44-1.553-3.025-1.709-.847-4.134-.817-5.757.565a6.705 6.705 0 0 0-2.198 4.265c-.434 2.576 0 4.95 1.593 7.023 1.593 2.072 5.042 2.58 7.013 1.008a2.072 2.072 0 0 0 .932-1.83c-.08-1.306-.03-2.597-.03-3.902ZM98.698 15.075c.762-.504 1.367-.872 1.952-1.28a8.2 8.2 0 0 1 3.997-1.513c2.183-.186 4.205.504 4.805 2.99.217.809.346 1.639.383 2.475.046 3.066 0 6.13 0 9.196v1.376l2.571.505.096.76h-8.359v-.881c.399 0 .752-.04 1.104-.05 1.084-.046 1.457-.359 1.468-1.453.03-2.944 0-5.888 0-8.833a8.182 8.182 0 0 0-.273-1.905c-.443-1.75-2.067-2.28-3.836-1.987a5.88 5.88 0 0 0-1.483.454c-.791.378-1.547.827-2.39 1.286.152 4.033-.226 8.122.253 12.306l2.369.207v.842h-8.112l-.04-.852 1.23-.066c.852-.055 1.15-.323 1.155-1.19V16.936c0-.923-.69-1.276-1.346-1.68-.338-.206-.943-.186-.762-1.073l5.218-1.992v2.884ZM54.065 20.065a26.784 26.784 0 0 0-.343-3.418 2.718 2.718 0 0 0-1.054-1.513 3.766 3.766 0 0 0-3.973-.287 2.052 2.052 0 0 0-1.29 1.855 2.128 2.128 0 0 1-1.785 1.987c-.857.156-1.366-.308-1.124-1.14a4.256 4.256 0 0 1 .852-1.674 10.033 10.033 0 0 1 6.836-3.377c2.254-.157 4.563 1.078 4.704 3.725.096 1.765.146 3.53.186 5.299.036 1.487 0 2.98.04 4.472.03 2.163.666 2.581 2.632 1.719.454.333.363.68 0 .963-.626.507-1.302.952-2.016 1.326-1.71.806-3.08.166-3.686-1.618a4.559 4.559 0 0 1-.12-.59c-1.044.65-2.017 1.36-3.116 1.93a5.4 5.4 0 0 1-4.75.132 3.468 3.468 0 0 1-1.174-5.743 9.956 9.956 0 0 1 2.707-1.739 28.079 28.079 0 0 1 3.12-1.2c1.055-.353 2.108-.7 3.354-1.11Zm-.147 1.306c-.892.287-1.729.504-2.52.822-.72.248-1.424.54-2.108.877a4.96 4.96 0 0 0-1.391.922c-1.573 1.644-.968 3.64.958 4.296a3.06 3.06 0 0 0 2.666-.262c.842-.505 1.644-1.125 2.405-1.654l-.01-5.001ZM127.8 19.215h-10.95c.166 2.591.272 5.041 2.062 7.058 1.164 1.3 3.443 2.264 5.576 1.19 1.129-.57 2.167-1.326 3.387-2.087 0 .302.167.75 0 .953-1.764 2.273-3.967 4.003-6.952 3.937-2.984-.065-5.349-1.376-6.483-4.905-1.135-3.53-.787-6.882 1.27-9.983a7.2 7.2 0 0 1 8.833-2.57 5.801 5.801 0 0 1 3.474 5.444 7.05 7.05 0 0 1-.217.963Zm-3.554-1.477a2.853 2.853 0 0 0-1.699-4.033 3.767 3.767 0 0 0-4.034 1.104 5.993 5.993 0 0 0-1.371 2.944l7.104-.015ZM16.607 12.846c.11 1.084.247 2.153.328 3.232.03.438.201 1.008-.636 1.164a2.635 2.635 0 0 1-.504-.72c-.847-3.056-4.396-3.999-7.21-2.94-2.313.877-3.584 2.611-4.163 4.915a10.225 10.225 0 0 0 .66 6.797 6.514 6.514 0 0 0 5.677 4.033 5.43 5.43 0 0 0 5.455-3.212c.368-.74.393-.73 1.185-.791.186 1.462-.394 2.732-.979 3.993a1.104 1.104 0 0 1-.645.504c-3.095.892-6.201 1.154-9.312.055-3.206-1.139-5.384-3.297-5.918-6.67-.797-5.031 1.431-8.938 6.448-10.632 2.863-.958 7.189-.736 9.614.272ZM141.577 13.332c0 .71-.025 1.275 0 1.84.025.564.121 1.109.202 1.774l-1.009.101c-.227-.58-.403-1.104-.63-1.603-.832-1.825-3.055-2.702-5.213-1.477-1.27.72-1.512 2.334-.504 3.529.422.485.925.893 1.487 1.205.832.469 1.73.817 2.592 1.24.579.282 1.144.59 1.704.898 3.352 1.85 3.025 6.19.151 8.066-2.949 1.936-5.904 1.432-8.939.035-.171-1.512-.333-2.98-.504-4.537l.771-.106a28.955 28.955 0 0 0 1.473 2.934 3.849 3.849 0 0 0 4.119 1.608c1.008-.277 1.855-.872 2.072-1.966a2.779 2.779 0 0 0-.978-2.919 18.366 18.366 0 0 0-2.264-1.361c-.807-.444-1.664-.807-2.46-1.26a4.72 4.72 0 0 1-2.43-4.976c.403-2.138 1.84-3.398 3.922-3.928a8.812 8.812 0 0 1 6.438.903ZM41.005 27.098l.504.605c-1.764 1.855-3.66 3.025-6.312 2.425a2.782 2.782 0 0 1-2.238-2.224 10.353 10.353 0 0 1-.267-2.52v-10.25l-2.27-.116c-.407-.897.379-1.099.787-1.421a13.56 13.56 0 0 0 3.731-4.034c.06-.106.09-.257.182-.307.277-.129.561-.242.852-.338v3.958h5.58v2.198h-5.409c-.072.13-.125.268-.156.413 0 3.302.055 6.605.035 9.907 0 2.717 2.33 3.494 4.225 2.163.227-.182.474-.288.756-.46ZM20.256 14.066c1.926-.706 3.5-1.442 5.405-1.699v14.606c0 1.573.066 1.643 1.608 1.699.504 0 1.125-.066.973.882h-8.066v-.807l1.981-.151c.18-.488.301-.996.363-1.512.035-3.388 0-6.776 0-10.16a2.067 2.067 0 0 0-1.16-1.945 10.568 10.568 0 0 1-1.104-.913ZM82.933 14.071c1.92-.71 3.499-1.437 5.405-1.704v1.397c0 4.431.03 8.868 0 13.3 0 1.325.423 1.698 1.608 1.608.564-.046 1.2-.071.963.907h-8.062l-.05-.837 2.017-.161c.18-.448.301-.918.363-1.397.03-3.468 0-6.932 0-10.395a2.017 2.017 0 0 0-1.145-1.825 11.53 11.53 0 0 1-1.099-.893ZM66.066 56.83c.062.06.127.116.197.166.892.504 1.422 1.2 1.205 2.264a2.491 2.491 0 0 1-2.314 1.805c-1.008.05-2.017 0-3.025 0V53.83c.827 0 1.75-.03 2.672 0 .791.035 1.512.282 1.875 1.079.363.796-.02 1.411-.61 1.92Zm-2.43 3.262c.862.09 1.73.373 2.249-.44a1.832 1.832 0 0 0 .025-1.451c-.232-.61-1.26-.782-2.274-.504v2.395Zm0-3.393c.767.035 1.432 0 1.72-.686a1.205 1.205 0 0 0-.217-1.064.977.977 0 0 0-1.513-.04l.01 1.79ZM78.531 47.932a32.413 32.413 0 0 0-.086-7.4h2.672c.201.009.4.046.59.11 1.68.504 1.941 1.618.68 2.92l.298.206c1.054.741 1.346 1.32 1.064 2.304a2.248 2.248 0 0 1-2.017 1.669c-1.109.14-2.233.136-3.201.191Zm1.386-3.463v2.248c1.125.389 1.916.288 2.35-.297a1.135 1.135 0 0 0 .04-1.447c-.494-.676-1.306-.857-2.405-.504h.015Zm0-1.084c.787.08 1.468.05 1.79-.615a1.17 1.17 0 0 0-.181-1.074 1.185 1.185 0 0 0-1.609-.106v1.795ZM33.19 40.531h2.652c.32.02.635.097.928.227 1.306.504 1.437 1.583.418 2.662.434.545 1.044 1.008 1.246 1.628a2.133 2.133 0 0 1-1.785 2.657c-1.17.177-2.37.157-3.489.222.36-2.451.37-4.941.03-7.396Zm1.513 3.902v2.33c1.205.343 1.956.201 2.354-.424a1.154 1.154 0 0 0-.065-1.447c-.494-.595-1.311-.761-2.32-.459h.03Zm-.04-1.068c.821.126 1.512.04 1.835-.67a1.085 1.085 0 0 0-.217-.964 1.16 1.16 0 0 0-1.618-.136v1.77ZM60.438 46.032l1.13-3.287h1.008c.403 1.06.806 2.123 1.31 3.459.505-1.296 1.271-2.193 1.009-3.449H66.3l-2.233 5.294c-1.477-.751-1.286-2.334-2.112-3.479-.505 1.165-.953 2.284-1.427 3.419a1.795 1.795 0 0 1-1.256-1.266c-.504-1.306-1.048-2.596-1.613-3.978l1.19-.1 1.31 3.337.278.05ZM106.323 47.836h-1.331V40.56l1.235-.06v2.284c.739-.07 1.481-.101 2.224-.09a1.244 1.244 0 0 1 1.174 1.179c.081.595.096 1.2.131 1.8.046.71.086 1.421.132 2.173h-1.316c0-1.044.111-2.062.06-3.076-.045-.867-.504-1.306-1.109-1.35a1.008 1.008 0 0 0-1.215.901c-.076 1.135 0 2.284.015 3.515ZM21.564 6.604a2.163 2.163 0 0 1 2.364-2.153 2.314 2.314 0 0 1 2.173 2.253 2.49 2.49 0 0 1-2.45 2.325 2.279 2.279 0 0 1-2.087-2.425ZM84.22 6.708a2.184 2.184 0 0 1 2.259-2.254 2.304 2.304 0 0 1 2.33 2.254 2.475 2.475 0 0 1-2.39 2.354 2.273 2.273 0 0 1-2.199-2.354ZM45.47 45.105h-3.785c-.111 1.795.766 2.223 3.73 1.77-.297.378-.453.74-.72.872-1.513.741-4.477 0-4.538-2.4-.03-1.568.918-2.611 2.52-2.773 1.523-.146 2.547.736 2.794 2.531Zm-3.795-.832h2.44c-.908-1.21-1.705-1.18-2.44 0ZM90.496 46.786c-.212.343-.338.837-.645 1.009a3.252 3.252 0 0 1-4.29-1.765 2.486 2.486 0 0 1 .735-2.752 2.731 2.731 0 0 1 3.025-.464 2.193 2.193 0 0 1 1.382 2.288h-3.731c-.121 1.175.287 1.856 1.28 1.931a12.132 12.132 0 0 0 2.244-.227v-.02Zm-1.12-2.43a1.145 1.145 0 0 0-1.356-.932c-.504.065-1.008.232-1.089.932h2.446ZM72.446 47.543c-.504.7-1.648.439-1.77-.62a16.229 16.229 0 0 1 0-1.654c-.469.065-.929.184-1.37.353a1.06 1.06 0 0 0-.555.752c0 .247.373.56.65.68.333.061.675.061 1.008 0-.156.908-.766 1.008-1.442.908a1.73 1.73 0 0 1-1.567-1.427 1.265 1.265 0 0 1 .856-1.432c.505-.181 1.009-.272 1.513-.428.318-.106.62-.253 1.008-.409-.625-1.275-1.542-.696-2.39-.504a1.25 1.25 0 0 1 1.458-1.154c1.053 0 1.699.388 1.86 1.194.161.807.06 1.513.176 2.28.14.504.329.994.565 1.461ZM54.836 44.169c-.792-1.16-1.603-.605-2.375-.504a1.1 1.1 0 0 1 1.346-1.11c1.08.102 1.71.227 1.901 1.135.118.71.17 1.428.156 2.148 0 .615 0 1.205.767 1.366-.131.585-.383.923-.933.741-.55-.181-1.008-.403-1.008-1.059v-1.618c-.474.064-.94.183-1.387.353a1.065 1.065 0 0 0-.54.771c0 .242.384.545.666.66.334.063.675.063 1.009 0-.162.903-.762 1.009-1.447.908a1.734 1.734 0 0 1-1.563-1.427 1.27 1.27 0 0 1 .842-1.436c.504-.182 1.008-.268 1.512-.434.36-.147.711-.312 1.054-.494ZM95.17 47.078c-.378 1.049-1.053 1.008-1.749.847a1.598 1.598 0 0 1-1.26-1.568 1.376 1.376 0 0 1 1.109-1.386c.459-.152.943-.207 1.396-.353.282-.123.552-.272.807-.444-.65-1.245-1.578-.55-2.385-.504.504-1.049.752-1.2 1.725-1.059 1.144.162 1.608.53 1.719 1.513.048.6.048 1.204 0 1.804 0 .605.055 1.12 1.069 1.352-.505.343-.807.7-1.08.685a1.164 1.164 0 0 1-1.144-1.038c-.03-.551-.03-1.103 0-1.654-.477.067-.944.19-1.391.368a1.064 1.064 0 0 0-.505.772c0 .247.389.539.671.655.337.06.68.063 1.018.01ZM74.252 60.609l-.55.676c-1.885-.131-1.21-1.614-1.512-2.708a7.925 7.925 0 0 0-1.478.373c-.237.106-.539.505-.504.701a1.184 1.184 0 0 0 .686.68 3.24 3.24 0 0 0 1.089.031 1.113 1.113 0 0 1-1.482.913 1.83 1.83 0 0 1-1.543-1.513 1.386 1.386 0 0 1 1.094-1.513c.413-.14.862-.186 1.275-.322.313-.124.616-.269.908-.434-.615-.912-.615-.912-2.218-.61.317-.922.63-1.144 1.477-1.069 1.074.091 1.73.595 1.795 1.437.045.605 0 1.21 0 1.815.065.958.08.973.963 1.543ZM102.925 42.793v1.114c-1.008-.585-1.956-.781-2.768.136a1.71 1.71 0 0 0-.096 2.118c.585.957 1.573 1.16 3.348.685-.368 1.13-1.276 1.477-2.743 1.059-1.568-.449-2.404-1.76-2.082-3.161.409-1.74 2.536-2.607 4.341-1.951ZM48.635 47.844h-1.276v-5.102h2.859l.126.807-.55.065c-.937.101-1.134.268-1.164 1.165-.02.983.005 1.971.005 3.065ZM75.867 53.879h1.18v7.154h-1.18v-7.154ZM80.819 55.969v5.077h-1.276v-5.012l1.275-.065ZM80.734 54.19c.187.655.161 1.154-.54 1.27a.802.802 0 0 1-.76-.877c.216-.676.705-.62 1.3-.394Z" fill="#0B0B0B"/><path d="m90.511 46.802.066-.091-.08.076.014.015Z" fill="#0B0B0B"/></svg>