<svg xmlns="http://www.w3.org/2000/svg" width="143" height="48" fill="none"><path fill="#0B0B0B" d="M97.865 47.731H53.287c-.12 0-.287.029-.348-.035-.062-.064-.035-.228-.035-.349V.647c0-.383 0-.383.383-.383h89.254c.345 0 .305-.046.305.305v46.884c0 .318.037.281-.282.281l-44.698-.003Zm.02-46.515H54.2c-.342 0-.343 0-.343.337V20.294c0 .079.036.11.111.108h87.733c.178 0 .179 0 .182-.176V1.321c0-.078-.034-.11-.11-.11h-.367l-43.522.005Zm-.009 33.032H54.149c-.332 0-.287-.035-.293.295V46.675c0 .078.037.109.112.108H141.606c.319 0 .279.028.279-.287v-11.9c0-.349 0-.349-.352-.349l-43.657.001Zm9.524-7.086.046.015.201 1.449c.096.67.183 1.333.278 1.998.029.204.116.288.319.288.168.007.337.005.505 0 .304 0 .399-.106.369-.414-.021-.22-.06-.439-.096-.658-.113-.795-.224-1.589-.339-2.384-.096-.702-.205-1.405-.307-2.106l-.144-1c-.032-.207-.111-.3-.266-.329-.206-.039-.331.021-.435.211-.026.047-.049.096-.073.144l-2.072 4.199c-.035.072-.077.14-.131.24-.056-.103-.096-.174-.132-.247-.691-1.383-1.381-2.766-2.069-4.15a3.002 3.002 0 0 0-.118-.222.362.362 0 0 0-.411-.175c-.157.03-.23.115-.258.307l-.109.772-.349 2.404-.309 2.156c-.041.295-.085.59-.118.886-.023.21.074.35.26.36.221.012.443.012.665 0a.243.243 0 0 0 .241-.209c.015-.067.03-.134.04-.202l.106-.795.306-2.225c.016-.114.037-.226.055-.34.206.337.375.671.543 1.005l1.239 2.464c.08.16.156.308.383.315a.434.434 0 0 0 .453-.272c.5-1.024 1.01-2.044 1.516-3.064.064-.144.138-.284.211-.424v.003Zm-36.063.3c.01-1.955-1.51-3.613-3.672-3.606-2.107.006-3.608 1.61-3.626 3.639-.017 1.957 1.554 3.596 3.662 3.596a3.598 3.598 0 0 0 3.636-3.633v.003Zm43.287-.741.048-.009c.022.02.045.039.066.062l.908 1.034 1.544 1.76c.349.396.697.793 1.047 1.188a.466.466 0 0 0 .519.141c.183-.071.208-.228.202-.398V24.367c-.011-.242-.113-.343-.359-.35-.153-.006-.307 0-.46 0-.282 0-.389.102-.407.383v3.869l-.047.02c-.071-.076-.143-.15-.211-.227-.268-.305-.533-.611-.799-.917l-2.165-2.475c-.151-.173-.305-.343-.456-.516a.426.426 0 0 0-.479-.115c-.175.053-.205.21-.215.368v6.04a.875.875 0 0 0 .02.203c.04.178.121.254.298.26.206.01.414.01.62 0 .192-.006.273-.085.305-.276.015-.098.022-.198.02-.297v-3.375l.001-.241Zm-52.02.756v-2.963c.004-.061.004-.122 0-.183a.32.32 0 0 0-.332-.313 6.755 6.755 0 0 0-.575 0 .302.302 0 0 0-.324.314v2.113c0 .2 0 .203-.203.203h-2.274c-.174 0-.174-.006-.179-.185v-2.09c0-.251-.096-.346-.346-.355a7.547 7.547 0 0 0-.551 0c-.21.01-.303.105-.316.316a6.5 6.5 0 0 0-.018.434v5.582c0 .107.009.214.027.32a.256.256 0 0 0 .24.236c.237.013.475.013.712 0 .158-.01.237-.116.25-.278.005-.06 0-.122 0-.183V28.08c0-.201 0-.204.203-.204h2.252c.198 0 .201 0 .201.205v2.182c0 .114-.006.23 0 .344.014.192.113.3.303.309.206.01.413.008.62 0a.287.287 0 0 0 .287-.245c.014-.075.02-.151.018-.228.004-.99.005-1.978.005-2.965Zm33.553-.013v3.008c0 .357.087.443.45.444h3.4c.227 0 .338-.088.357-.303a3.434 3.434 0 0 0-.01-.617.289.289 0 0 0-.085-.2.281.281 0 0 0-.203-.078 1.857 1.857 0 0 0-.206 0h-2.298c-.192 0-.197-.017-.192-.191.007-.344.01-.689.014-1.032v-.529c0-.096.04-.14.137-.134H99.84c.069 0 .139-.005.208-.015.192-.023.271-.095.305-.287.016-.106.022-.213.02-.32 0-.547-.065-.613-.6-.613H97.59c-.2 0-.203 0-.204-.205v-.987c0-.186 0-.191.186-.191h2.481c.219 0 .327-.108.337-.321a6.881 6.881 0 0 0 0-.575.29.29 0 0 0-.264-.299 1.17 1.17 0 0 0-.183-.006H96.6a1.309 1.309 0 0 0-.16 0 .297.297 0 0 0-.288.298c-.006.062 0 .123 0 .184l.004 2.97Zm-18.798 0v3.032c0 .329.096.42.426.42h3.467c.176-.013.282-.08.298-.257a4.71 4.71 0 0 0-.006-.707.252.252 0 0 0-.249-.229 1.642 1.642 0 0 0-.207-.006h-2.32c-.192 0-.198-.018-.192-.192.007-.374.01-.75.014-1.124v-.437c0-.096.04-.14.137-.135H81.23c.21-.02.307-.1.332-.311a3.11 3.11 0 0 0 .012-.527c-.015-.266-.12-.363-.392-.383H78.72c-.145 0-.152-.015-.147-.163.004-.147.01-.275.012-.413v-.642c0-.114.03-.177.155-.165H81.287a.287.287 0 0 0 .293-.293 5.337 5.337 0 0 0 0-.62.287.287 0 0 0-.28-.282 1.269 1.269 0 0 0-.16 0h-3.329c-.061-.002-.123 0-.184.006a.287.287 0 0 0-.267.27 1.49 1.49 0 0 0-.006.208l.005 2.95Zm57.908.958c.331.347.626.654.919.963.444.466.883.935 1.331 1.397a.388.388 0 0 0 .233.121c.283.015.566.009.85.005a.295.295 0 0 0 .201-.503 5.607 5.607 0 0 0-.246-.272l-2.134-2.25c-.192-.205-.383-.415-.583-.617-.085-.086-.083-.148.005-.227.183-.163.36-.333.54-.5l2.125-1.964c.131-.122.168-.262.108-.39a.315.315 0 0 0-.323-.173c-.229 0-.459.005-.688 0a.522.522 0 0 0-.391.158c-.529.498-1.06.995-1.595 1.489-.102.096-.211.185-.352.307v-1.471c.002-.06 0-.122-.009-.183-.034-.2-.136-.287-.343-.297-.138-.005-.276 0-.414 0-.412 0-.479.063-.479.479v6.109c.012.192.096.288.281.3.221.014.444.008.67 0a.258.258 0 0 0 .26-.218c.021-.09.031-.18.031-.272v-1.724l.003-.267Zm-3.05 2.49c.096 0 .199.005.299 0 .264-.017.383-.2.287-.445-.057-.141-.126-.278-.192-.417l-1.688-3.593-1.033-2.203a.387.387 0 0 0-.378-.243.366.366 0 0 0-.383.236c-.027.063-.06.124-.09.186l-2.49 5.221c-.128.27-.261.537-.377.811-.104.247.016.434.279.445.222.01.444 0 .67 0a.302.302 0 0 0 .28-.169c.033-.06.06-.123.09-.186.247-.518.494-1.035.738-1.555.045-.096.096-.16.218-.159.695.006 1.392.006 2.09 0a.22.22 0 0 1 .225.152c.084.191.179.371.269.558.173.358.353.713.514 1.076.095.213.234.31.464.288.068-.004.135-.003.203 0l.005-.003Zm-39.638.18c.188-.024.374-.058.558-.105 1.16-.34 1.866-1.619 1.245-2.816a3.009 3.009 0 0 0-.797-.939c-.404-.326-.826-.633-1.23-.957a1.465 1.465 0 0 1-.316-.36.514.514 0 0 1-.021-.565.564.564 0 0 1 .527-.267.727.727 0 0 1 .515.219c.13.13.247.27.367.41.16.186.296.206.495.059.142-.104.287-.21.42-.32.2-.162.223-.287.07-.49a4.847 4.847 0 0 0-.456-.515c-.555-.542-1.217-.71-1.964-.51a1.737 1.737 0 0 0-1.26 1.993c.097.5.376.948.783 1.256.383.314.785.612 1.162.935.192.163.365.348.515.55a.707.707 0 0 1-.134.987.887.887 0 0 1-1.21-.052 3.881 3.881 0 0 1-.418-.543c-.162-.236-.287-.274-.536-.134-.128.071-.245.16-.376.222-.232.11-.3.287-.134.546.122.194.253.382.395.563.442.546 1.034.794 1.8.833Zm30.249-4.755c-.047-.065-.075-.096-.096-.137-.407-.647-.818-1.293-1.217-1.945a.436.436 0 0 0-.43-.241c-.153.007-.306 0-.46 0-.153 0-.317-.01-.403.152-.086.162-.007.306.082.448.606.965 1.207 1.934 1.813 2.898a.645.645 0 0 1 .108.364c-.006.636 0 1.27 0 1.906v.78c.005.243.111.344.356.352.152 0 .306-.008.459 0 .249.015.396-.087.41-.402v-.137c0-.789.008-1.577 0-2.364a1.137 1.137 0 0 1 .183-.644 242.84 242.84 0 0 0 1.724-2.816c.192-.315.065-.532-.307-.538h-.551a.366.366 0 0 0-.357.2c-.109.186-.226.365-.338.548l-.976 1.576Zm-49.24 1.637V30.52c0 .287.101.383.383.394h.344c.446 0 .511-.067.511-.522v-4.957c0-.216 0-.218.21-.218h.872c.219-.006.325-.109.337-.325.01-.184.01-.367 0-.55-.012-.21-.129-.312-.342-.325H72.487c-.204.017-.308.114-.32.317-.009.154 0 .307 0 .46 0 .33.095.422.422.424h.78c.22 0 .22 0 .222.231v.046l-.003 2.478Zm9.279-.532v3.101c0 .268.095.369.354.37.988.005 1.978.005 2.969 0 .218 0 .332-.095.35-.314a3.361 3.361 0 0 0 0-.574c-.018-.205-.128-.297-.331-.312-.054-.005-.107 0-.161 0h-1.724c-.235 0-.235 0-.237-.245v-4.944c.002-.076 0-.153-.006-.229-.017-.163-.096-.264-.258-.274a5.123 5.123 0 0 0-.687 0c-.173.013-.251.116-.263.292-.005.07 0 .138 0 .207l-.006 2.922Zm27.622.025v3.08c0 .268.096.362.356.37.183.005.367.005.55 0 .2-.01.288-.102.304-.302v-6.296c-.015-.185-.102-.287-.287-.298a5.306 5.306 0 0 0-.643 0c-.186.013-.269.114-.282.3v.183l.002 2.963ZM25.08 47.505H.447c-.167 0-.249-.067-.269-.241a1.286 1.286 0 0 1 0-.161V26.727c0-8.574-.002-17.15-.004-25.725C.174.879.164.758.155.636A.25.25 0 0 1 .426.349C6.353.437 12.28.372 18.207.384c5.927.013 11.841 0 17.763 0h13.397c.121 0 .244-.01.365-.018.16-.012.239.056.246.222v46.608c0 .245-.109.318-.313.318a7909.14 7909.14 0 0 0-15.557-.008h-9.03l.002-.001ZM7.417 8.397l-.011-.06.658-.306.022-.006c.269-.087.535-.18.805-.26.423-.122.804-.37 1.253-.42a.616.616 0 0 0 .128-.047c.191-.07.389-.14.584-.207.23-.079.464-.15.693-.23.215-.074.425-.162.64-.234.376-.127.755-.245 1.131-.371.377-.127.766-.262 1.144-.394.13-.045.257-.096.388-.14.239-.077.48-.15.72-.223.145-.045.288-.089.434-.138.238-.08.473-.17.71-.247.335-.106.679-.186 1.005-.312.393-.151.803-.243 1.204-.366.288-.087.566-.186.852-.271.335-.1.67-.192 1.01-.287.273-.075.547-.145.82-.22l.876-.242c.022-.006.047 0 .069-.006.328-.07.657-.135.983-.214.28-.068.554-.162.835-.23.37-.09.746-.163 1.118-.246.522-.117 1.043-.239 1.565-.355.268-.06.538-.114.806-.172.5-.106.998-.229 1.501-.315.503-.086 1.03-.139 1.546-.206.113-.015.223-.047.336-.06.348-.044.697-.084 1.046-.124.136-.015.272-.031.409-.039.136-.008.275 0 .412-.008.862-.036 1.724-.08 2.586-.106.287-.009.58.025.87.034.436.014.872.02 1.308.036.435.015.871.035 1.307.056.06 0 .12.017.18.023.297.036.594.07.89.107.143.017.287.038.43.058.196.028.392.057.589.083.075.01.154.005.227.022.252.053.492.18.762.121.277.138.587.157.88.233.045.011.086.032.13.046.044.013.09.023.133.034.265.07.533.132.796.207.263.076.508.161.76.243.334.11.67.218.998.333.158.055.312.119.462.191.274.128.544.264.816.395.272.131.53.229.776.383.323.197.629.428.938.65a.257.257 0 0 0 .276.053c.101-.048.096-.146.096-.24-.006-.282-.012-.565-.012-.847 0-.69.003-1.379.009-2.068 0-.287-.132-.414-.422-.413l-5.974.02c-.467 0-.934-.01-1.4-.015-.13 0-.261.018-.39.01a27.738 27.738 0 0 0-2.525-.037c-.842.03-1.667.031-2.501.038-.352 0-.703-.024-1.054-.026a303.13 303.13 0 0 0-2.639 0c-.862 0-1.716.014-2.573.014H1.27c-.329 0-.436.11-.431.445 0 .16.01.322.01.479v21.984c0 .447-.002.89-.007 1.332 0 .206-.022.412-.018.617a.326.326 0 0 0 .082.202c.063.066.144.019.208-.026.061-.044.12-.092.176-.144.153-.138.297-.287.458-.416a160.463 160.463 0 0 1 3.029-2.356c.274-.205.555-.4.836-.599.137-.096.277-.191.415-.282.278-.192.552-.384.834-.565.452-.293.908-.583 1.365-.87.425-.268.845-.544 1.28-.794.414-.238.856-.43 1.266-.67.44-.264.9-.48 1.358-.705.368-.181.754-.329 1.123-.51.57-.284 1.155-.533 1.755-.747.338-.118.67-.244 1.013-.36a71.604 71.604 0 0 1 1.853-.602c.224-.07.447-.146.67-.209.287-.078.575-.143.862-.22.323-.085.643-.186.966-.27.48-.125.964-.241 1.444-.363.67-.17 1.332-.347 2-.51.517-.127 1.044-.223 1.558-.364.234-.068.472-.12.713-.157.023 0 .045-.011.067-.016.383-.085.758-.179 1.14-.253.336-.067.658-.21 1.009-.206.028 0 .057-.021.086-.03.134-.032.267-.065.401-.095.396-.083.793-.164 1.19-.245.336-.07.67-.139 1.009-.204.405-.079.812-.148 1.216-.23.329-.068.67-.09.98-.226.029-.01.06-.014.09-.01.429.025.832-.122 1.246-.199a7.103 7.103 0 0 1 1.286-.162c-.101.056-.205.107-.311.152-.309.113-.619.22-.93.324-.202.068-.407.126-.61.192-.253.083-.503.173-.756.256-.368.12-.74.233-1.109.357-.235.08-.467.172-.7.256-.13.047-.26.096-.39.135-.247.077-.497.142-.74.226-.37.126-.733.265-1.1.394-.274.096-.55.185-.823.282-.287.102-.567.235-.862.312a8.921 8.921 0 0 0-1.168.402 1.94 1.94 0 0 1-.192.07c-.238.073-.479.138-.715.217-.237.08-.44.17-.663.25-.524.187-1.053.368-1.576.554-.366.13-.73.263-1.094.397-.299.11-.6.214-.894.335-.294.122-.582.26-.873.392-.146.066-.294.128-.435.2-.252.13-.5.266-.75.398-.544.287-1.1.559-1.627.872-.445.262-.914.486-1.324.805a.402.402 0 0 1-.04.02c-.206.115-.414.224-.615.346-.2.123-.407.264-.61.396-.3.191-.605.383-.9.587-.295.204-.604.438-.907.655-.402.287-.811.566-1.208.862-.367.272-.732.55-1.084.844a71.924 71.924 0 0 0-1.861 1.592c-.526.47-.973 1.016-1.418 1.561a7.191 7.191 0 0 0-.562.862c-.347.575-.587 1.207-.817 1.839-.202.556-.287 1.14-.4 1.716-.107.55-.08 1.114-.055 1.67.014.304.115.602.134.906.035.614.287 1.157.55 1.687a5.373 5.373 0 0 0 1.384 1.776c.36.308.744.586 1.15.831.212.132.437.244.67.335.242.09.479.206.711.308.127.053.255.101.383.15l1.513.581c.121.046.239.101.361.14.239.078.48.148.722.22.444.136.887.275 1.334.406.22.064.444.114.67.167.393.096.784.201 1.18.28.427.086.857.15 1.287.217.204.033.409.055.615.075.341.033.685.062 1.028.096.32.028.639.072.958.078.65.016 1.301.017 1.953.012.963-.009 1.927-.028 2.892-.043.046.003.092 0 .137-.01.309-.107.633-.054.95-.084.456-.044.916-.05 1.374-.08.473-.033.945-.078 1.417-.116.214-.017.428-.025.64-.047.655-.07 1.309-.141 1.962-.216.67-.076 1.34-.151 2.005-.235.545-.069 1.09-.147 1.634-.224.318-.045.635-.096.952-.145.383-.058.771-.117 1.157-.168.349-.045.687-.139 1.04-.178.352-.04.701-.136 1.053-.191.351-.056.692-.183 1.044-.235.46-.077.915-.182 1.362-.315.214-.058.434-.087.639-.128a.99.99 0 0 1-.513.346 17.6 17.6 0 0 0-.637.235c-.328.125-.654.252-.98.383-.105.042-.202.103-.307.145-.213.086-.43.16-.642.245-.453.18-.903.365-1.357.544-.184.072-.376.123-.561.191-.205.08-.403.173-.606.26a6.141 6.141 0 0 1-.32.126c-.383.131-.766.259-1.15.39-.383.133-.766.272-1.149.405-.339.118-.68.23-1.02.347-.231.078-.46.167-.693.237-.174.054-.356.08-.532.127a8.41 8.41 0 0 0-.662.192c-.398.13-.818.167-1.22.294-.435.139-.889.218-1.34.32-.395.092-.79.177-1.185.268-.492.114-.981.238-1.474.346-.305.066-.614.106-.922.16-.574.104-1.155.213-1.734.312-.352.06-.693.157-1.06.17-.55.028-1.097.088-1.64.18-.68.106-1.368.151-2.057.133-.479-.014-.957.02-1.443.015a27.442 27.442 0 0 1-2.927-.192c-.198-.023-.394-.055-.591-.08-.22-.026-.44-.048-.66-.074a4.037 4.037 0 0 1-.293-.046c-.157-.03-.313-.067-.47-.096-.142-.028-.288-.047-.428-.081-.527-.124-1.053-.245-1.58-.383-.422-.107-.84-.226-1.257-.354a22.66 22.66 0 0 1-1.13-.383c-.375-.136-.743-.27-1.111-.416-.287-.113-.56-.243-.837-.368-.118-.053-.23-.115-.348-.17-.262-.121-.533-.23-.788-.366-.422-.226-.833-.479-1.253-.707a12.314 12.314 0 0 1-1.264-.78c-.347-.252-.693-.504-1.038-.757a2.634 2.634 0 0 0-.294-.216c-.13-.068-.223-.01-.243.136a.904.904 0 0 0 0 .113c.006.543.015 1.085.016 1.629 0 1.532-.001 3.064-.004 4.596 0 .207.114.321.325.332h.096c3.921 0 7.843-.003 11.765-.009 2.586 0 5.178.008 7.767.008h27.8c.092 0 .183.007.274.019.301.036.449-.096.447-.397 0-.636-.01-1.27-.01-1.906V23.228c0-.23.014-.46.008-.688a.275.275 0 0 0-.086-.192.18.18 0 0 0-.23.038c-.051.046-.096.096-.148.145-.1.105-.206.204-.317.297-.405.311-.816.617-1.227.922-.41.306-.827.623-1.245.922-.328.235-.67.455-1.004.677-.26.172-.521.346-.79.504-.419.245-.844.479-1.268.715-.226.126-.456.246-.686.364-.23.12-.479.239-.712.36-.263.135-.522.277-.788.404-.267.126-.544.235-.815.356-.236.105-.465.233-.708.32-.228.083-.422.233-.67.281-.204.04-.388.17-.588.245a93.843 93.843 0 0 1-2.8 1.007c-.34.116-.683.224-1.024.333-.204.064-.409.125-.613.183-.316.09-.633.175-.948.266-.205.06-.407.13-.612.185-.39.107-.782.204-1.173.309-.183.05-.364.113-.55.16-.34.084-.683.158-1.024.243-.474.12-.946.245-1.42.367-.037.01-.075.014-.112.022-.321.066-.643.128-.963.199-.357.08-.71.174-1.069.25-.326.072-.646.166-.98.21-.315.044-.622.153-.934.22-.56.122-1.12.235-1.68.35-.323.065-.647.123-.969.192-.373.077-.742.191-1.12.236-.659.083-1.296.288-1.959.348a1.565 1.565 0 0 0-.155.042c-.134.028-.268.055-.403.078a3.496 3.496 0 0 0-.496.08c-.331.106-.67.124-1.049.14a.924.924 0 0 1 .192-.15c.292-.109.588-.21.884-.31.253-.084.508-.159.761-.241.383-.126.766-.256 1.15-.383.232-.076.472-.131.699-.218.39-.148.766-.33 1.184-.407a188.544 188.544 0 0 1 1.167-.406c.164-.058.322-.156.49-.178.295-.038.55-.178.822-.27a131.307 131.307 0 0 0 1.559-.534c.242-.088.478-.183.726-.266.247-.084.496-.148.738-.238s.456-.214.713-.237a.47.47 0 0 0 .13-.045c.197-.08.391-.17.592-.242.388-.136.782-.255 1.169-.394.308-.112.609-.245.915-.365.347-.136.698-.259 1.042-.402.239-.096.468-.223.7-.337.514-.252 1.029-.504 1.541-.76.219-.108.432-.225.647-.339.348-.186.697-.37 1.041-.562.22-.12.434-.251.649-.383.214-.132.414-.253.62-.383.116-.073.226-.156.343-.226.292-.177.591-.345.881-.525.29-.18.575-.37.862-.562.354-.238.71-.473 1.054-.723.47-.34.935-.687 1.397-1.038.388-.296.773-.598 1.149-.908.265-.219.517-.453.773-.683.279-.249.574-.486.83-.755.523-.546 1.013-1.118 1.389-1.785.282-.488.526-.998.73-1.524.143-.383.302-.766.37-1.178.062-.377.151-.75.208-1.126a20.6 20.6 0 0 0 .131-1.16 2.12 2.12 0 0 0-.013-.366c-.007-.083-.029-.166-.038-.249-.032-.319-.04-.642-.095-.958a6.305 6.305 0 0 0-.88-2.298 6.219 6.219 0 0 0-2.218-2.107 7.026 7.026 0 0 0-1.053-.5c-.314-.113-.615-.266-.928-.383-.344-.13-.693-.24-1.043-.352-.191-.063-.402-.096-.59-.172-.5-.204-1.03-.287-1.546-.428a6.77 6.77 0 0 0-.602-.14c-.405-.072-.814-.133-1.22-.199-.43-.07-.858-.163-1.29-.21a40 40 0 0 0-1.946-.155c-.649-.037-1.3-.068-1.949-.069-1.346 0-2.692.014-4.039.026-.819.008-1.637.02-2.456.039-.337.006-.67.025-1.009.045-.206.011-.412.033-.617.048-.51.039-1.021.071-1.533.113-.312.026-.624.06-.935.101-.523.068-1.045.14-1.567.215-.537.074-1.077.143-1.612.23-.415.059-.835.154-1.254.238l-.068.011c-.407.064-.814.124-1.219.192-.127.022-.248.075-.375.096-.383.073-.766.14-1.15.21a1.566 1.566 0 0 0-.111.024c-.296.073-.59.17-.889.213-.437.078-.868.18-1.294.306-.22.057-.443.113-.67.167-.14.034-.287.063-.424.096-.304.073-.607.15-.91.225l-.999.25c-.087.03-.18.042-.272.063Z"/><path fill="#0B0B0B" d="M109.299 12.265h1.838a1.66 1.66 0 0 1 .184 0c.184.02.259.096.26.282a5.314 5.314 0 0 1-.031.55 5.214 5.214 0 0 1-.634 2.116c-.575 1.007-1.418 1.71-2.525 2.045-1.651.502-3.282.416-4.811-.412-1.502-.815-2.425-2.096-2.675-3.797-.236-1.605.217-3.03 1.296-4.245.786-.885 1.786-1.409 2.938-1.628a6.282 6.282 0 0 1 4.129.575 7.33 7.33 0 0 1 1.601 1.14c.171.154.17.255 0 .421-.192.192-.398.384-.599.575-.184.174-.253.173-.442 0-.663-.625-1.421-1.095-2.309-1.314-1.691-.42-3.16 0-4.342 1.282-1.111 1.216-1.225 3.015-.315 4.432.719 1.121 1.775 1.724 3.085 1.886.623.094 1.26.043 1.861-.147 1.073-.362 1.834-1.054 2.177-2.156a.593.593 0 0 0 .036-.155.086.086 0 0 0-.019-.043.095.095 0 0 0-.038-.028.974.974 0 0 0-.183-.006h-2.36c-.069.004-.138 0-.206-.008a.227.227 0 0 1-.21-.234 14.93 14.93 0 0 1 0-.873.235.235 0 0 1 .229-.243c.061-.006.122-.008.184-.005l1.881-.01ZM119.072 17.548c-1.47 0-2.675-.42-3.689-1.33-1.014-.91-1.61-2.028-1.724-3.392a5.25 5.25 0 0 1 1.256-3.96 4.972 4.972 0 0 1 3.098-1.735c1.341-.214 2.617-.01 3.772.723 1.374.871 2.217 2.107 2.413 3.746.208 1.734-.287 3.24-1.545 4.47a5.055 5.055 0 0 1-3.581 1.478Zm3.758-5.239c.052-2.36-1.945-3.893-3.875-3.906a3.905 3.905 0 0 0-3.621 2.43 3.916 3.916 0 0 0-.29 1.504c-.016 2.146 1.785 3.865 3.84 3.868 2.197.003 3.98-1.673 3.946-3.896ZM133.469 14.224v-6.54a1.88 1.88 0 0 1 0-.183c.014-.13.07-.201.202-.205.314-.01.628-.008.942 0a.213.213 0 0 1 .146.063c.038.038.06.09.061.146.008.068.01.137.008.206v9.255c0 .142 0 .296-.171.336-.172.04-.328.043-.462-.111-.823-.946-1.65-1.889-2.48-2.83l-2.573-2.93c-.252-.287-.505-.574-.755-.862a1.139 1.139 0 0 1-.096-.15l-.067.037V16.9c0 .383-.039.423-.418.423h-.69c-.23 0-.299-.076-.307-.304V7.645c0-.141-.009-.296.162-.339.172-.042.325-.046.461.11 1.174 1.351 2.35 2.7 3.529 4.044.785.898 1.572 1.796 2.359 2.693a.678.678 0 0 1 .066.12l.083-.05ZM84.403 12.83c.065.095.096.15.143.204l2.947 3.787c.05.058.096.12.136.185a.205.205 0 0 1-.058.262.204.204 0 0 1-.09.038.896.896 0 0 1-.182.011c-.276 0-.553-.014-.826 0-.227.016-.364-.074-.498-.249-.8-1.045-1.611-2.082-2.418-3.12l-.746-.959a.651.651 0 0 1-.057-.071c-.062-.102-.16-.08-.248-.066-.102.02-.058.114-.058.173v4.021c-.015.19-.088.263-.273.268a18.41 18.41 0 0 1-.828 0c-.197 0-.26-.07-.273-.262V7.726c0-.421.02-.441.442-.44.896 0 1.792-.005 2.688.018.42.007.84.051 1.253.133 1.245.26 2.065 1.292 2.076 2.567.006.788-.233 1.476-.814 2.025a2.564 2.564 0 0 1-1.207.633c-.298.068-.603.1-.905.148-.057.008-.11.01-.204.02Zm-1.957-2.778v1.194c0 .235-.045.246.253.246.215 0 .43.006.644 0 .405 0 .811 0 1.215-.025.244-.015.485-.064.716-.147a1.23 1.23 0 0 0 .812-1.003c.088-.536-.052-1.001-.49-1.354a1.465 1.465 0 0 0-.902-.293c-.688-.023-1.378-.028-2.067-.037-.18 0-.181 0-.182.197l.002 1.22v.002ZM98.391 17.32c-.138 0-.276-.006-.414 0a.3.3 0 0 1-.317-.206c-.367-.783-.744-1.56-1.118-2.34-.08-.165-.163-.33-.24-.497a.148.148 0 0 0-.16-.095h-3.631a.288.288 0 0 0-.307.196c-.426.915-.868 1.82-1.298 2.738a.306.306 0 0 1-.314.21c-.299-.008-.598 0-.896 0a.43.43 0 0 1-.157-.024c-.118-.048-.158-.167-.096-.308.112-.25.231-.499.35-.748A38342.305 38342.305 0 0 1 93.93 7.54c.11-.23.27-.3.52-.233.105.027.141.11.18.191l.632 1.325 3.617 7.708c.068.145.14.287.2.437.09.215.008.338-.223.353h-.465Zm-2.777-4.515c-.438-.932-.87-1.841-1.31-2.77-.192.298-1.28 2.615-1.302 2.77h2.612ZM78.137 17.32c-.138 0-.276-.005-.414 0a.287.287 0 0 1-.302-.191c-.192-.417-.395-.83-.594-1.245-.248-.518-.502-1.032-.742-1.553a.224.224 0 0 0-.242-.153c-1.203.003-2.405.003-3.607 0a.241.241 0 0 0-.26.16c-.428.915-.871 1.82-1.297 2.74-.085.18-.192.253-.383.244-.269-.012-.537 0-.805 0-.305 0-.383-.13-.258-.406a15537.875 15537.875 0 0 0 4.463-9.396.355.355 0 0 1 .37-.233.329.329 0 0 1 .335.217c.838 1.796 1.68 3.591 2.523 5.385l1.832 3.907c.032.069.069.137.095.209.068.179-.007.302-.202.314-.168.01-.337 0-.505 0l-.007.002Zm-2.763-4.51-1.327-2.803-1.334 2.803h2.661ZM60.958 12.307v-4.73c.014-.215.083-.288.3-.288 1.171.015 2.342.021 3.513.06a2.816 2.816 0 0 1 1.588.534c.5.352.851.877.986 1.473.104.432.111.883.019 1.318-.23 1.094-.94 1.724-1.992 1.984a5.7 5.7 0 0 1-1.068.14c-.588.032-1.178.034-1.767.047-.191 0-.198 0-.198.204v3.836c0 .407-.024.432-.426.432h-.67c-.204-.006-.27-.074-.288-.279-.005-.061 0-.122 0-.184l.003-4.547Zm1.381-2.256v1.262c0 .165 0 .166.163.17l.642.019a8.294 8.294 0 0 0 1.717-.078c.551-.095.938-.412 1.092-.957a1.355 1.355 0 0 0-.383-1.43c-.282-.271-.64-.354-1.013-.366-.68-.022-1.36-.028-2.04-.036-.178 0-.18 0-.182.175.003.415.004.827.004 1.241ZM120.95 40.726h-11.995c-.314 0-.28.037-.287-.282V39.02c0-.184 0-.184.192-.191h24.05c.325 0 .279-.029.281.281v1.424c0 .185 0 .185-.192.192H120.95ZM75.477 38.83h11.97c.308 0 .288-.046.288.28v1.447c0 .16-.005.162-.168.167H63.579c-.376 0-.376 0-.376-.373v-1.355c0-.162 0-.163.167-.166h12.107ZM92.563 39.36c.066.045.12.084.177.12.895.58.918 1.832.293 2.516a1.843 1.843 0 0 1-1.31.63c-.564.027-1.132.02-1.698.019-.232 0-.298-.085-.3-.34v-5.189a1.312 1.312 0 0 1 0-.184.223.223 0 0 1 .224-.222c.642 0 1.288-.068 1.921.089a1.496 1.496 0 0 1 .817 2.388 5.377 5.377 0 0 1-.124.173Zm-1.866 1.453v.733c0 .074 0 .146.102.14.35-.018.707-.005 1.047-.072.448-.088.689-.524.59-.963-.069-.308-.39-.588-.766-.636-.271-.036-.548-.033-.822-.054-.128-.01-.153.053-.151.164.004.229 0 .458 0 .688Zm0-2.49v.526c0 .107.032.157.144.146.196-.018.395-.023.59-.053a.749.749 0 0 0 .272-.114.682.682 0 0 0 .304-.691c-.058-.277-.253-.411-.517-.44-.226-.025-.455-.023-.683-.033-.078 0-.11.034-.108.11l-.001.551-.001-.002ZM97.117 40.832c-.287 0-.582.008-.872 0a.25.25 0 0 0-.274.177c-.21.46-.438.91-.643 1.371-.087.192-.209.288-.423.271-.13-.01-.26 0-.39 0-.241-.014-.328-.151-.228-.371.208-.452.424-.9.637-1.349l1.837-3.877c.023-.048.05-.096.07-.145a.287.287 0 0 1 .298-.2.307.307 0 0 1 .295.21c.367.79.74 1.579 1.108 2.369.438.935.874 1.87 1.31 2.806.043.081.08.165.113.25.049.15-.013.279-.165.288a5.11 5.11 0 0 1-.64 0c-.127-.006-.17-.117-.217-.213-.218-.456-.443-.908-.649-1.369-.071-.163-.156-.234-.34-.221-.274.017-.551.003-.827.003Zm.007-2.245-.603 1.277h1.205l-.602-1.277ZM101.021 39.66V36.95c.013-.154.075-.233.221-.243.175-.012.352-.012.527 0 .148.01.209.085.224.242.007.083.006.168.006.251v4.203c.003.045.003.091 0 .137-.014.126.051.155.163.154h1.539c.069-.003.137 0 .206.005.129.018.197.077.205.206.01.176.01.352 0 .528-.009.128-.077.185-.208.203a1.306 1.306 0 0 1-.161.005H101.4a1.304 1.304 0 0 1-.183-.009.206.206 0 0 1-.133-.059.206.206 0 0 1-.059-.132c-.006-.068-.005-.138-.005-.207l.001-2.575ZM105.097 39.642v-2.478a2.356 2.356 0 0 1 0-.206c.017-.162.088-.241.244-.252.159-.01.319-.01.479 0a.235.235 0 0 1 .179.068.243.243 0 0 1 .071.178c.006.06 0 .123 0 .183v5.095c.002.069 0 .138-.009.206a.216.216 0 0 1-.216.2c-.176.006-.352.01-.527 0a.22.22 0 0 1-.208-.132.223.223 0 0 1-.017-.084 1.572 1.572 0 0 1-.006-.206l.01-2.572ZM65.3 27.49c-.052-1.51 1.292-2.454 2.394-2.427 1.34.034 2.394 1.069 2.394 2.415 0 1.437-1.186 2.394-2.431 2.4-1.188.006-2.43-1.062-2.357-2.387ZM129.505 26.328l.617 1.303h-1.239l.622-1.303Z"/></svg>