<svg xmlns="http://www.w3.org/2000/svg" width="47" height="74" fill="none"><g fill="#0B0B0B" clip-path="url(#a)"><path d="M9.071 55.507h2.902c.876 0 1.505-.413 1.505-1.33 0-1.423-.96-1.489-1.894-1.489h-2.48l-.033 2.82Zm0-3.761h2.48c.885 0 1.654-.224 1.654-1.298 0-1.232-.877-1.232-1.654-1.232h-2.48v2.53Zm-1.083-3.473h3.828c1.984 0 2.596 1.15 2.596 2.125a1.778 1.778 0 0 1-1.19 1.728 1.935 1.935 0 0 1 1.43 2.083c0 .62-.298 2.224-2.48 2.224H7.987v-8.16ZM3.905 69.38c0-.744-.603-1.066-1.298-1.066-.471 0-1.124.165-1.124.76 0 1.323 3.19.331 3.19 2.423 0 1.066-.983 1.562-1.934 1.562-1.19 0-2.14-.47-2.223-1.76l.719-.083c0 .91.603 1.281 1.471 1.281.637 0 1.249-.29 1.249-1 0-1.389-3.191-.447-3.191-2.307 0-.975.934-1.438 1.802-1.438a1.819 1.819 0 0 1 2.025 1.57l-.686.058ZM.043 2.169h6.283l7.787 18.534L23.39.945l9.35 19.758 7.945-18.518 6.266-.016-14.285 32.398-9.251-20.42-9.4 20.354L.043 2.17ZM21.535 49.59l-1.24 3.38h2.43l-1.19-3.38Zm-.57-1.348h1.148l2.96 8.176h-1.157l-.877-2.48h-3.091l-.943 2.48h-1.157l3.116-8.176ZM28.71 48.242h1.076v7.234h4.075v.942h-5.15v-8.176ZM38.997 48.242h-1.075v8.176h1.075v-8.176ZM7.113 67.91h3.522v.579h-2.86v1.554h2.488v.579H7.775v1.736h2.934v.578H7.113V67.91ZM13.105 67.91h.877l1.537 4.076 1.538-4.076h.876v5.026h-.66v-4.05h-.017l-1.472 4.05h-.537l-1.464-4.05h-.016v4.05h-.662V67.91ZM21.357 67.91h-.662v5.026h.662V67.91ZM24.09 67.91h.67l2.662 3.96h.016v-3.96h.62v5.026h-.661l-2.67-3.968h-.017v3.968h-.62V67.91ZM32.111 70.622l-1.81-2.712h.793l1.348 2.083 1.34-2.083h.793l-1.802 2.712v2.314h-.662v-2.314ZM38.129 68.737l-.76 2.075h1.496l-.736-2.075Zm-.356-.827h.711l1.82 5.026h-.712l-.537-1.537h-1.91l-.579 1.537h-.71l1.917-5.026ZM42.527 67.91h.662v2.43l2.397-2.43h.819l-2.018 2.075 2.092 2.951h-.802l-1.752-2.471-.736.719v1.752h-.662V67.91Z"/></g><defs><clipPath id="a"><path fill="#fff" d="M.047.945h46.907v72.113H.047z"/></clipPath></defs></svg>