<svg xmlns="http://www.w3.org/2000/svg" width="67" height="66" fill="none"><g fill="#0B0B0B" clip-path="url(#a)"><path d="M33.489 65.993c-10.901 0-21.802 0-32.702.005-.245 0-.33-.049-.33-.315C.463 43.937.463 22.193.463.447c0-.074.01-.15 0-.224C.44.043.53 0 .691.005c.29.008.579.003.87.003 21.547 0 43.096 0 64.645-.008.302 0 .343.1.343.365-.006 17.323-.006 34.646-.006 51.97 0 4.44-.002 8.881.006 13.321 0 .26-.05.345-.331.344-10.91-.008-21.82-.007-32.73-.007Zm29.629-3.3c.038-.118.11-.236.11-.353.005-19.556.005-39.112.004-58.668 0-.432.058-.378-.395-.378-19.556-.002-39.112-.002-58.668 0-.459 0-.394-.058-.394.407l-.001 58.61c0 .085-.013.172.005.252.011.05.072.087.11.13.098.016.196.045.294.045 19.547.003 39.093.003 58.64 0 .098 0 .196-.03.294-.045h.001Z"/><path d="M3.887 62.694c.111-.004.224-.01.335-.01H62.78c.111 0 .224.006.335.01-.098.015-.196.045-.294.045-19.547.002-39.093.002-58.64 0-.098 0-.196-.03-.294-.045ZM17.947 27.174l.484-1.619c.824-2.74 1.65-5.48 2.473-8.222.843-2.812 1.683-5.626 2.525-8.439.112-.375.226-.75.344-1.123.021-.068.061-.181.099-.184.288-.02.577-.02.865-.012.013 0 .048.141.03.205-.209.725-.424 1.45-.641 2.172-.918 3.063-1.835 6.126-2.756 9.189-.845 2.812-1.696 5.622-2.544 8.433-.078.258-.121.535-.24.774-.292.594-.009 1.124.14 1.672.043.16.099.319.171.55.122-.398.226-.731.326-1.066 1.106-3.688 2.21-7.377 3.317-11.065 1.03-3.427 2.063-6.854 3.094-10.282.03-.098.073-.195.082-.295.026-.27.18-.316.422-.308.598.021.475-.08.647.492 1.052 3.5 2.1 7.001 3.15 10.501.515 1.715 1.031 3.429 1.548 5.142.021.071.052.14.104.277.164-.537.312-1.014.456-1.492l2.315-7.713 1.627-5.438c.155-.518.319-1.034.468-1.553.042-.15.104-.224.269-.212.177.012.355.008.533 0 .194-.01.267.026.195.253-.263.836-.5 1.68-.752 2.519l-1.74 5.784-1.758 5.838c-.344 1.142-.696 2.281-1.025 3.428-.055.192-.04.422.007.62.097.405.239.8.386 1.279.211-.697.402-1.32.59-1.944.669-2.223 1.339-4.445 2.005-6.668.575-1.92 1.145-3.842 1.72-5.76.514-1.715 1.035-3.428 1.545-5.144.047-.155.118-.213.275-.204.176.01.355.013.532-.001.21-.017.261.051.198.253-.208.668-.404 1.339-.605 2.009l-2.083 6.936c-.765 2.545-1.533 5.09-2.298 7.634-.449 1.49-.898 2.98-1.337 4.474-.03.102.007.234.039.344.12.425.25.847.436 1.27l.587-1.938c.779-2.588 1.56-5.176 2.335-7.765.688-2.295 1.37-4.592 2.059-6.888.607-2.027 1.22-4.052 1.827-6.079.052-.172.122-.274.327-.25.185.02.374.009.56.002.162-.007.187.051.141.2-.306.999-.605 1.999-.905 2.999-.695 2.312-1.388 4.625-2.082 6.937-.583 1.938-1.166 3.876-1.747 5.814-.617 2.053-1.231 4.107-1.847 6.162-.268.892-.542 1.783-.804 2.678-.05.168-.136.21-.3.21-.601 0-.596.005-.767-.567-.671-2.241-1.347-4.481-2.018-6.723-.875-2.92-1.746-5.841-2.622-8.761-.682-2.277-1.37-4.553-2.056-6.83-.007-.023-.02-.043-.054-.112-.16.528-.313 1.016-.455 1.507-.02.065 0 .15.021.219.762 2.535 1.527 5.07 2.287 7.606.806 2.688 1.606 5.377 2.412 8.065.535 1.786 1.072 3.57 1.618 5.354.058.19.036.237-.167.239-.744.009-.756.02-.971-.69-.731-2.418-1.453-4.84-2.18-7.26-.614-2.044-1.232-4.087-1.847-6.131l-1.624-5.413c-.016-.051-.036-.101-.078-.218-.17.553-.34 1.04-.46 1.54-.036.152.061.342.111.51.703 2.348 1.409 4.697 2.115 7.045.727 2.419 1.456 4.838 2.184 7.256.31 1.027.616 2.054.934 3.077.075.243.01.292-.232.286-.698-.016-.696-.006-.889-.652-.821-2.741-1.641-5.483-2.466-8.224-.75-2.49-1.503-4.979-2.279-7.546-.106.331-.197.598-.279.868-.707 2.347-1.413 4.694-2.117 7.042-.725 2.42-1.446 4.84-2.17 7.26-.107.358-.208.718-.334 1.068-.027.077-.146.164-.228.17-.625.049-.63.044-.81-.555-1-3.33-1.997-6.661-2.995-9.992-.88-2.938-1.763-5.876-2.644-8.814-.528-1.758-1.057-3.517-1.584-5.276-.12-.398-.116-.4.281-.4.6-.001.607-.003.78.574.762 2.536 1.518 5.073 2.278 7.61l2.09 6.965c.125.418.253.835.432 1.252.166-.55.334-1.1.5-1.652.704-2.338 1.408-4.677 2.11-7.017.727-2.428 1.456-4.857 2.169-7.29.091-.312.229-.413.553-.397.585.03.59.009.423.564-.844 2.803-1.693 5.605-2.536 8.408-.897 2.982-1.79 5.964-2.683 8.947-.022.07-.053.152-.036.218.134.498.277.993.418 1.489l.076-.005ZM54.825 47.21c2.047.295 3.586 1.229 4.325 3.105 1.047 2.66.252 5.674-2.854 7.02a9.693 9.693 0 0 1-3.642.79c-2.391.058-4.784.048-7.175.075-.214.002-.264-.064-.264-.269.005-6.776.006-13.553 0-20.33 0-.218.072-.265.271-.264 2.123.007 4.245-.015 6.365.016 1.447.021 2.866.238 4.161.946 1.163.635 2.043 1.54 2.339 2.86.564 2.514-.328 4.833-3.051 5.874-.135.052-.27.101-.474.178Zm-7.129 4.982c0 1.14.006 2.28-.005 3.42-.002.22.054.284.28.282 1.289-.01 2.579-.006 3.869-.005.817 0 1.623-.095 2.4-.345 1.547-.497 2.804-1.552 2.652-3.613-.09-1.235-.66-2.153-1.725-2.77-.823-.477-1.736-.636-2.661-.66-1.513-.039-3.028-.007-4.542-.02-.235-.001-.274.084-.272.29.008 1.14.004 2.281.004 3.421Zm0-9.272h-.001c0 1 .006 1.999-.005 2.998-.002.214.064.27.27.265.58-.013 1.16.013 1.738-.008 1.127-.042 2.259-.05 3.378-.176.911-.103 1.706-.528 2.258-1.309.463-.654.526-1.397.496-2.166-.043-1.097-.59-1.857-1.55-2.34-.697-.352-1.452-.485-2.219-.504-1.372-.033-2.745-.023-4.117-.04-.197-.002-.254.056-.252.253.01 1.009.004 2.018.004 3.026ZM23.52 47.793c0 3.365-.002 6.73.006 10.095 0 .24-.049.325-.305.317-.625-.019-1.252-.02-1.878 0-.259.009-.302-.083-.302-.319.008-3.01.006-6.02.006-9.029 0-.245-.118-.368-.353-.368-3.477 0-6.955.003-10.431-.007-.28-.001-.333.079-.332.343.01 3.019.002 6.038.012 9.057.002.267-.082.328-.33.322a33.277 33.277 0 0 0-1.85.001c-.251.008-.31-.069-.31-.313.008-4.43.006-8.86.006-13.291 0-2.31.005-4.617-.006-6.926-.001-.274.078-.347.345-.338a32.8 32.8 0 0 0 1.85.002c.24-.006.295.076.294.304-.006 2.738 0 5.477-.009 8.215 0 .25.054.33.32.33 3.495-.01 6.99-.01 10.486.002.28 0 .313-.1.313-.336-.007-2.729-.002-5.458-.01-8.187 0-.248.049-.34.319-.33.615.023 1.233.024 1.85 0 .278-.01.316.094.315.334-.008 2.3-.004 4.599-.004 6.898v3.225h-.001ZM42.04 44.249c0 2.056.026 4.113-.01 6.169-.028 1.663-.38 3.258-1.285 4.69-.917 1.45-2.235 2.373-3.878 2.788-1.866.47-3.742.457-5.571-.195-2.07-.736-3.386-2.221-4.062-4.285-.375-1.144-.519-2.326-.518-3.53.003-4.075.004-8.15-.005-12.226 0-.265.078-.33.33-.322.579.018 1.16.02 1.738-.001.276-.01.36.054.359.348-.012 3.945-.01 7.89-.006 11.834.002 1.259.143 2.5.674 3.66.765 1.673 2.072 2.581 3.915 2.733.81.066 1.606.037 2.385-.188 1.516-.439 2.476-1.47 3.015-2.92.388-1.045.509-2.138.51-3.246.001-3.954.003-7.908-.006-11.862 0-.282.067-.371.356-.359.56.024 1.122.008 1.683.008.255 0 .383.123.383.37v6.534h-.008ZM43.051 16.131c0 2.487-.012 4.973.005 7.46.012 1.757.512 3.37 1.58 4.78 1.318 1.738 3.056 2.793 5.218 3.118 3.897.586 7.72-1.877 8.754-5.673.194-.712.294-1.47.298-2.208.025-5.198.016-10.396.006-15.594 0-.284.069-.366.355-.356.607.022.607.007.607.621 0 5.142.002 10.284-.001 15.425-.003 4.071-2.84 7.644-6.807 8.58-4.535 1.07-9.057-1.457-10.53-5.89a8.736 8.736 0 0 1-.436-2.754c-.007-5.208-.002-10.415-.01-15.622 0-.273.051-.373.348-.36.612.025.613.007.613.62v7.853Z"/><path d="M56.625 16.078c0-2.7.003-5.402-.006-8.104 0-.24.05-.322.306-.317.679.015.679.003.679.668l-.001 15.31a6.608 6.608 0 0 1-5.43 6.512c-3.178.583-6.357-1.253-7.416-4.293a6.536 6.536 0 0 1-.374-2.168c.004-5.225.004-10.45-.004-15.675 0-.277.057-.366.35-.354.615.026.616.007.616.618v15.31c0 1.679.617 3.098 1.847 4.232.903.833 1.978 1.305 3.21 1.442 2.67.296 5.087-1.374 5.918-3.74a5.372 5.372 0 0 0 .307-1.84c-.01-1.272-.003-2.543-.003-3.814v-3.786ZM7.556 7.503c.487.003.484.004.627.48.982 3.286 1.966 6.572 2.949 9.857.918 3.071 1.835 6.143 2.754 9.213.521 1.741 1.043 3.482 1.575 5.22.068.223.046.317-.204.277h-.028c-.716.001-.704-.002-.902-.676-.54-1.832-1.093-3.66-1.64-5.49-.616-2.063-1.23-4.125-1.849-6.187-.578-1.927-1.161-3.853-1.74-5.78-.544-1.812-1.084-3.623-1.626-5.434-.123-.41-.228-.827-.373-1.23-.086-.242.003-.272.204-.252.083.009.168.002.252.002ZM16.994 32.55c-.477 0-.48.001-.614-.445-.953-3.187-1.904-6.376-2.86-9.562-.727-2.428-1.464-4.853-2.193-7.281-.725-2.418-1.447-4.838-2.166-7.259-.148-.495-.14-.497.39-.499.074 0 .149.005.223-.001.173-.017.252.038.307.226.425 1.45.87 2.892 1.304 4.338.55 1.83 1.094 3.66 1.642 5.491.764 2.554 1.53 5.106 2.296 7.66l2.103 7.016c.096.317.1.316-.236.316h-.196Z"/></g><defs><clipPath id="a"><path fill="#fff" d="M.453 0h66.093v66H.453z"/></clipPath></defs></svg>