<svg width="49" height="48" viewBox="0 0 49 48" fill="none" xmlns="http://www.w3.org/2000/svg">
<g clip-path="url(#clip0_4866_14172)">
<path d="M31.6834 21.1517C30.3088 21.2524 28.6215 21.7266 27.2843 22.3845C26.6336 22.6834 25.9279 23.121 25.3022 23.5486C26.4386 22.3282 27.8729 20.7207 28.4739 19.7633C30.0035 17.5959 30.8934 14.3462 30.9302 14.2086L31.0586 13.7339L30.6454 13.9999C30.6098 14.0233 27.0125 16.3569 25.1025 19.5052C24.7249 20.1176 24.1323 21.4177 23.6777 22.457C23.9132 20.9837 24.1947 18.8734 24.0855 17.7587C24.1165 15.8112 22.7163 11.3777 22.6569 11.1903L22.4898 10.6647L22.2984 11.1817C22.2847 11.2189 20.921 14.9329 20.7299 18.4206C20.7019 19.8647 20.9925 21.7336 21.2442 23.0599C20.6155 21.7494 19.6748 19.9295 18.8701 18.9453C17.5456 17.3229 14.1009 15.1715 13.9551 15.0805L13.5081 14.8027L13.6754 15.3015C13.6852 15.3316 14.7114 18.3515 16.9555 21.4228C17.5907 22.2439 18.966 23.4993 19.9767 24.3828C18.2097 23.5434 15.1496 22.2695 12.8559 22.2683H12.4636L12.7077 22.5757C14.912 25.3545 18.7128 25.9982 20.4049 26.147C19.5905 26.5223 18.4282 27.1863 18.2514 27.9779L18.2003 28.2086H18.4373C19.4514 28.2086 20.8541 28.0034 22.006 27.078V30.1478H23.0109V26.9401C24.3974 27.9057 26.1872 27.9855 26.7344 27.9855C26.9188 27.9855 27.0932 27.9776 27.2402 27.963L27.6127 27.9249L27.3616 27.6471C27.2804 27.557 27.2073 27.4724 27.137 27.3933C26.7386 26.9377 26.4507 26.6087 25.5709 26.1701C25.2918 26.0621 24.9674 25.9741 24.6634 25.9045C25.574 25.7158 26.8677 25.3822 27.6455 24.8895C29.1858 24.0553 31.2391 22.065 31.8317 21.4758L32.1935 21.1149L31.6834 21.1517Z" fill="black"/>
<path d="M32.1967 31.7343V32.9194H29.3433V30.5057H28.3691V37.3359H29.3433V34.7758H32.1967V35.9624H33.1724V31.7343H32.1967Z" fill="black"/>
<path d="M23.8396 31.9086V34.3825H23.1826V31.9086H21.9147V34.3825H21.2573V31.9086H19.9907V34.3825H19.333V31.9086H16.7094V33.4588H9.84882V34.3825H16.7094V35.7867H27.6983V31.9086H23.8396Z" fill="black"/>
<path d="M38.0847 30.3619L36.4794 28.342C36.2779 28.0888 35.9897 27.9294 35.6683 27.8929C35.3469 27.8566 35.0304 27.9476 34.7775 28.1491C34.5974 28.2924 34.4692 28.4769 34.3956 28.6786C34.2553 29.0624 34.3119 29.5086 34.5846 29.8506L36.1872 31.8671C36.4593 32.2098 36.8811 32.3659 37.2868 32.3157C37.5001 32.2896 37.7089 32.2062 37.889 32.0631C38.1425 31.8623 38.3026 31.5744 38.3395 31.2533C38.3763 30.9319 38.2859 30.6154 38.0847 30.3619Z" fill="black"/>
<path d="M39.6509 24.2326C39.6506 23.909 39.5243 23.605 39.2951 23.3765C39.0663 23.1482 38.7619 23.0225 38.4384 23.0228C38.2083 23.0228 37.9932 23.088 37.81 23.1999C37.4612 23.4133 37.2284 23.7977 37.2287 24.2353L37.2293 26.8109C37.229 27.2485 37.4624 27.6329 37.8112 27.8459C37.9944 27.9579 38.2096 28.0227 38.4396 28.0227C38.7631 28.023 39.0675 27.8973 39.2963 27.6688C39.5252 27.4402 39.6515 27.1362 39.6515 26.8127L39.6509 24.2326Z" fill="black"/>
<path d="M35.4078 24.6339C35.2094 24.3786 34.9233 24.2154 34.6025 24.175C34.2815 24.1345 33.9641 24.2218 33.7084 24.4203L31.6721 26.0049C31.4171 26.2036 31.2546 26.49 31.215 26.8111C31.1752 27.1322 31.2631 27.4493 31.4618 27.7046C31.6033 27.886 31.7866 28.0163 31.9874 28.092C32.3697 28.2363 32.8164 28.1842 33.1615 27.9152L35.1942 26.3333C35.5396 26.0649 35.7 25.6449 35.654 25.2389C35.63 25.025 35.549 24.8153 35.4078 24.6339Z" fill="black"/>
<rect x="-1.83008" y="48.457" width="72.1777" height="3" transform="rotate(-45 -1.83008 48.457)" fill="#FF0A19"/>
</g>
<path d="M2.25 24C2.25 11.5736 12.3236 1.5 24.75 1.5C37.1764 1.5 47.25 11.5736 47.25 24C47.25 36.4264 37.1764 46.5 24.75 46.5C12.3236 46.5 2.25 36.4264 2.25 24Z" stroke="#FF0A19" stroke-width="3"/>
<defs>
<clipPath id="clip0_4866_14172">
<path d="M0.75 24C0.75 10.7452 11.4952 0 24.75 0C38.0048 0 48.75 10.7452 48.75 24C48.75 37.2548 38.0048 48 24.75 48C11.4952 48 0.75 37.2548 0.75 24Z" fill="white"/>
</clipPath>
</defs>
</svg>
