<svg width="49" height="48" viewBox="0 0 49 48" fill="none" xmlns="http://www.w3.org/2000/svg">
<g clip-path="url(#clip0_4866_14195)">
<path fill-rule="evenodd" clip-rule="evenodd" d="M31.6862 25.9236C30.7128 24.9501 29.0414 25.6429 29.0414 27.0197C29.0414 27.447 29.2146 27.8351 29.4953 28.1158L29.494 28.1171C31.1008 29.5621 33.0642 27.3016 31.6862 25.9236ZM30.269 24.6935C30.7153 22.3622 28.7987 19.7805 27.207 19.7238L13.481 19.2308C13.3141 19.5848 12.7452 20.9375 12.8008 21.289L13.0815 21.7188V21.7201C13.1257 21.7492 13.1725 21.7656 13.2205 21.7656L23.5709 21.7896C25.3509 21.7934 26.8352 24.0147 26.1689 25.6077L24.4482 29.7178C24.1195 30.5016 23.5759 31.154 22.6606 31.1792L13.7324 31.3891L9.91816 31.2918L9.6868 33.9733C9.69944 34.6168 9.87264 35.2236 10.5263 35.211C13.2621 35.1541 16.519 35.4524 19.7681 35.7521C26.1576 36.3387 32.5219 36.9241 34.5029 34.7988C34.5105 34.79 34.5194 34.7811 34.5282 34.7736C40.072 29.6686 40.2756 20.9501 34.9201 15.5934C30.2324 10.9043 22.9551 10.3923 17.5327 14.3898C16.0307 15.4973 14.7715 16.888 13.8864 18.4493L27.2357 18.9298C29.3533 19.0056 31.5089 22.0133 31.0726 24.7225C32.9917 25.1232 33.5202 27.5215 32.2268 28.7024C31.2331 29.6089 29.8361 29.5836 28.9321 28.6796L28.9308 28.6809C27.5553 27.3041 28.3632 24.955 30.2684 24.6935L30.269 24.6935ZM10.0104 30.4991L13.7237 30.5939L22.6419 30.3841C23.1931 30.3777 23.5129 29.8885 23.7127 29.4118L25.4333 25.3018C25.8834 24.2272 24.7759 22.5875 23.5711 22.5849L13.2195 22.5596L12.6455 22.3852V22.3864C12.6341 22.3789 12.6227 22.3713 12.6114 22.3637C11.3067 24.451 10.4103 27.6673 10.0108 30.4993L10.0104 30.4991Z" fill="black"/>
<rect x="-2.33008" y="48.457" width="72.1777" height="3" transform="rotate(-45 -2.33008 48.457)" fill="#FF0A19"/>
</g>
<path d="M1.75 24C1.75 11.5736 11.8236 1.5 24.25 1.5C36.6764 1.5 46.75 11.5736 46.75 24C46.75 36.4264 36.6764 46.5 24.25 46.5C11.8236 46.5 1.75 36.4264 1.75 24Z" stroke="#FF0A19" stroke-width="3"/>
<defs>
<clipPath id="clip0_4866_14195">
<path d="M0.25 24C0.25 10.7452 10.9952 0 24.25 0C37.5048 0 48.25 10.7452 48.25 24C48.25 37.2548 37.5048 48 24.25 48C10.9952 48 0.25 37.2548 0.25 24Z" fill="white"/>
</clipPath>
</defs>
</svg>
