<svg width="49" height="48" viewBox="0 0 49 48" fill="none" xmlns="http://www.w3.org/2000/svg">
<g clip-path="url(#clip0_4866_14200)">
<path d="M16.7373 33.792C16.6332 34.066 16.5572 34.3206 16.392 34.9476C16.177 35.7658 16.1582 35.8071 15.828 36.1518C15.3995 36.6005 15.0746 36.8104 14.3234 37.1217C13.9377 37.2813 13.7706 37.3744 13.6482 37.493C13.4833 37.6525 13.4199 37.8064 13.3958 38.0962C13.368 38.4466 13.5647 38.7322 13.9821 38.9472C14.0693 38.9916 14.1935 39.0434 14.2604 39.0606C14.3175 39.0757 14.3717 39.0823 14.4182 39.0823C14.5119 39.0823 14.5756 39.0536 14.5756 39.003C14.5756 38.9881 14.4885 38.8842 14.3829 38.7708C14.1136 38.487 14.0491 38.3371 14.1193 38.151C14.177 38.0045 14.4311 37.8042 14.7334 37.6685C14.8782 37.6033 15.7296 37.2641 15.9207 37.1936C16.1466 37.1109 16.3125 37.0687 16.4502 37.0687C16.6061 37.0687 16.7268 37.1224 16.8576 37.233L16.9466 37.307L18.7609 37.303L20.5773 37.2976L20.5716 37.158C20.5547 36.7968 20.4603 36.7243 19.9688 36.6964C19.8295 36.6891 19.7091 36.678 19.7052 36.6725C19.6886 36.6574 19.7609 36.4871 19.8813 36.2494C20.0963 35.828 20.3913 35.4276 20.5602 35.3289C20.6172 35.296 20.6428 35.2848 20.7109 35.2848C20.7335 35.2848 20.761 35.2866 20.7957 35.2885C20.9703 35.2975 21.0683 35.3385 21.1575 35.4407C21.2317 35.5255 21.252 35.5963 21.2818 35.8804C21.3005 36.0523 21.3207 36.151 21.3636 36.2589C21.5735 36.8018 22.1966 37.4016 22.5503 37.4016H22.5581C22.6788 37.3999 22.7325 37.3622 22.7994 37.2328C22.8588 37.1158 22.8664 36.9843 22.82 36.8929C22.8031 36.86 22.7069 36.7485 22.6086 36.6444C22.1689 36.1881 22.0335 35.8263 22.0335 35.1064C22.0335 34.3757 22.1764 33.8391 22.4901 33.3976C22.5345 33.3343 22.685 33.16 22.824 33.0083C23.2673 32.5239 23.3545 32.3367 23.3545 31.871C23.3527 31.6017 23.3343 31.4593 23.2562 31.1699C23.1245 30.671 23.1687 30.4298 23.4471 30.118C23.6365 29.9047 23.6531 29.8305 23.5862 29.4759C23.5119 29.088 23.4843 28.9177 23.445 28.5784C23.3949 28.1514 23.3578 28.0567 23.2261 28.0012C23.1887 27.9846 23.1507 27.9767 23.1118 27.9767C23.0657 27.9767 23.0186 27.9882 22.9703 28.0102C22.9257 28.0307 22.8086 28.1345 22.679 28.2677C22.4322 28.524 22.3135 28.6112 22.1539 28.652C22.0852 28.6691 22.0194 28.6788 21.9516 28.6788C21.7664 28.6788 21.5631 28.6094 21.2281 28.4424C20.963 28.3106 20.8961 28.2828 20.8198 28.2828H20.7962C20.7335 28.2828 20.7196 28.2925 20.6862 28.3419C20.6322 28.4201 20.6138 28.5648 20.6304 28.7799C20.6452 29.0151 20.6931 29.212 20.8454 29.6744C20.9937 30.1274 21.033 30.2863 21.0366 30.4607C21.0403 30.6353 21.0014 30.7505 20.9124 30.841C20.8105 30.9414 20.7211 30.9695 20.2609 31.0455C19.5522 31.164 19.0937 31.2997 18.658 31.5169C17.7946 31.9499 17.1435 32.7196 16.7372 33.792L16.7373 33.792Z" fill="black"/>
<path d="M27.0761 26.3809L26.6367 24.8561C26.6113 24.7695 26.6282 24.6764 26.6807 24.604C26.7333 24.5314 26.8161 24.4867 26.9063 24.4834L29.6899 24.3796L31.8697 19.0323H33.9965C34.5228 19.0323 34.9528 18.6083 34.9528 18.0754C34.9528 17.7347 34.767 17.4331 34.4977 17.2657L31.2341 15.5184C31.1373 15.4671 31.0227 15.4412 30.9195 15.4348L29.5317 15.4412C29.3972 15.2741 29.2742 15.0751 29.1848 14.8824C29.0823 14.6641 29.1269 14.4005 29.3069 14.2145C29.4234 14.0986 29.5765 14.0474 29.7304 14.0474H32.14C32.4612 14.0474 32.7248 13.7841 32.7248 13.4566C32.7248 13.1354 32.4609 12.8718 32.14 12.8718L29.7046 12.8716C29.4094 12.8716 29.1398 12.9425 28.9018 13.0775C29.0948 11.4071 30.521 10.1097 32.2426 10.1097C32.5704 10.1097 32.8334 9.83348 32.8334 9.51227C32.8334 9.18478 32.5704 8.92117 32.2426 8.92117C29.7246 8.92117 27.6817 10.9641 27.6812 13.4763C27.6812 14.1892 27.8485 14.8639 28.1369 15.4679L26.9749 15.4615C26.8398 15.4615 26.7307 15.5707 26.7307 15.7122C26.7307 15.783 26.7627 15.8472 26.8139 15.8922L28.4069 17.4785L26.486 20.4333L14.3901 20.4336C13.4332 20.4336 12.6367 21.2238 12.5918 22.1744V27.0122C12.5918 27.0891 12.656 27.1467 12.7266 27.1467C12.7842 27.1467 12.8355 27.1141 12.8551 27.0623L13.748 25.669V27.84L12.5985 29.6646L12.6049 34.4638C12.6049 35.1445 13.1571 35.6901 13.832 35.6901C14.5127 35.6901 15.0651 35.1442 15.0651 34.4638L15.065 29.9338L16.4589 28.0646V30.1971L17.5111 32.0021C17.8106 31.6975 18.1487 31.4468 18.529 31.2563C18.8789 31.0826 19.2431 30.9577 19.7166 30.8537L18.6752 29.0405L19.7868 27.3514H24.727V34.5522C24.727 35.2265 25.2731 35.779 25.9535 35.779C26.6351 35.779 27.1869 35.2271 27.1869 34.5522L27.187 27.8588L27.9736 27.072C27.5604 26.7577 27.2166 26.5565 27.2109 26.5523C27.1454 26.5146 27.0975 26.4532 27.0761 26.3811L27.0761 26.3809Z" fill="black"/>
<path d="M29.1908 27.8182L27.2586 37.129C26.7586 37.3138 26.628 37.8214 26.628 37.8214H27.315C27.315 37.1034 28.4067 36.7999 28.4214 36.7999H28.4263L29.5636 33.3478L30.0229 34.9024C30.8348 33.7999 32.3602 33.4727 32.3602 33.4727L32.5677 33.846C31.2356 34.248 30.5764 34.8895 30.2504 35.431C30.171 35.5632 30.102 35.7118 30.0456 35.8654C30.0396 35.8811 30.0335 35.9073 30.029 35.9224C30.0254 35.9308 30.023 35.9607 30.0205 35.9697C29.9252 36.2659 29.9303 36.5077 29.9303 36.5077H29.9062C29.8908 36.5077 29.8817 36.7088 29.8817 36.8385C29.8817 36.8385 27.7526 36.9999 27.7526 37.8211H35.7465C35.7465 37.8211 36.2332 37.5856 36.4802 37.2804C37.0985 36.5189 36.8657 35.1786 36.8657 35.1786C36.2803 36.001 35.6949 36.3659 35.3792 36.5158L33.6487 31.1668L30.4366 23.4817L30.2234 24.6512L26.9176 24.7742L27.3573 26.2993C27.3573 26.2994 28.5099 26.9672 29.1909 27.8182L29.1908 27.8182Z" fill="black"/>
<path d="M16.4865 12.4184C16.4548 12.413 16.4201 12.4103 16.3836 12.4103C16.2027 12.4103 15.9653 12.4797 15.7301 12.5725C15.5694 11.815 14.2689 10.1551 14.2689 9.98071C16.6034 9.78466 18.0246 12.9455 18.1201 13.1068C18.1192 13.1367 18.1074 13.1642 18.0902 13.1898C17.9271 13.2706 17.7498 13.2942 17.6502 13.3001C17.4476 13.0677 16.8996 12.4796 16.4865 12.4184L16.4865 12.4184Z" fill="black"/>
<path d="M16.4572 12.6022C16.8747 12.6619 17.5659 13.4879 17.5659 13.4879C17.5659 13.4879 17.5728 13.4882 17.5858 13.4882C17.6986 13.4882 18.2517 13.4671 18.5114 13.0626C18.5285 12.8494 17.9917 12.3729 19.0473 12.2366C19.5027 12.1344 21.7236 11.052 22.0812 10.4983C23.5466 13.872 20.3603 14.3576 20.3603 14.3576C20.3603 14.3576 20.3006 14.5789 20.1812 14.707C20.1413 14.7498 20.0494 14.7638 19.9444 14.7638C19.7441 14.7638 19.4971 14.7122 19.4757 14.7074C19.5119 14.7213 20.0958 14.9378 20.3684 14.9626C20.3889 14.9643 20.4188 14.9653 20.4565 14.9653C20.942 14.9653 22.7454 14.8263 22.7454 14.8263C22.3114 16.2652 21.3394 16.6442 20.4368 16.6442C19.4325 16.6442 18.5143 16.1759 18.5143 16.1759L19.3037 15.968C19.3037 15.968 18.2732 15.9279 17.9402 15.8232C16.3268 15.3138 16.1428 14.0511 16.1428 14.0511C16.1428 14.0511 16.1133 13.4618 14.916 13.1905C15.0369 13.0991 15.9495 12.5963 16.3832 12.5963C16.4099 12.5964 16.4346 12.5982 16.4573 12.6021L16.4572 12.6022Z" fill="black"/>
<rect x="-1.33008" y="48.457" width="72.1777" height="3" transform="rotate(-45 -1.33008 48.457)" fill="#FF0A19"/>
</g>
<path d="M2.25 24C2.25 11.5736 12.3236 1.5 24.75 1.5C37.1764 1.5 47.25 11.5736 47.25 24C47.25 36.4264 37.1764 46.5 24.75 46.5C12.3236 46.5 2.25 36.4264 2.25 24Z" stroke="#FF0A19" stroke-width="3"/>
<defs>
<clipPath id="clip0_4866_14200">
<path d="M0.75 24C0.75 10.7452 11.4952 0 24.75 0C38.0048 0 48.75 10.7452 48.75 24C48.75 37.2548 38.0048 48 24.75 48C11.4952 48 0.75 37.2548 0.75 24Z" fill="white"/>
</clipPath>
</defs>
</svg>
