<svg width="49" height="48" viewBox="0 0 49 48" fill="none" xmlns="http://www.w3.org/2000/svg">
<g clip-path="url(#clip0_4866_14188)">
<path d="M12.5092 22.8365C11.8969 23.0526 11.2485 22.6204 11.2485 22.0081C11.2485 21.828 11.2485 21.6839 11.2845 21.5038C10.8163 22.2242 10.6002 23.0526 10.6362 23.8811C10.6002 23.9171 10.5281 23.9531 10.4921 23.9891C9.59161 24.7095 8.25889 23.9891 8.36695 22.8365V22.8005C7.75462 23.737 7.57452 24.8896 7.82665 25.9702C8.00675 26.7626 7.97074 27.6271 7.79064 28.4195C7.50248 29.8243 7.61054 31.3731 8.22287 32.8139C9.73569 36.4879 13.8779 38.3609 17.66 37.1363C21.7662 35.7675 23.8914 31.2651 22.3785 27.2669C20.8297 23.3408 16.4353 21.3597 12.5092 22.8365ZM10.0238 32.0215C9.66365 31.0129 9.95181 29.8243 10.8883 29.1399C11.8248 28.4556 13.0135 28.4916 13.914 29.1399C13.2656 29.284 12.4732 29.6442 11.7168 30.2205C10.9243 30.7608 10.348 31.4452 10.0238 32.0215ZM17.0116 34.759C15.2107 35.4433 13.2656 35.0831 11.8608 33.9665C13.1575 33.9665 14.7424 33.6424 16.3633 33.0661C17.9842 32.4897 19.3529 31.6613 20.3615 30.7968C20.0013 32.5258 18.8126 34.0746 17.0116 34.759ZM17.9842 27.8432C17.0477 27.9153 16.1832 28.1674 15.6069 28.4556C15.823 27.411 16.7235 26.5465 17.8761 26.4745C19.0287 26.4024 20.0373 27.0868 20.4335 28.0954C19.8212 27.8792 18.9207 27.7712 17.9842 27.8432Z" fill="black"/>
<path d="M40.028 15.0559C39.8479 14.9479 39.6679 14.8758 39.4878 14.8038C39.4517 14.8038 39.4517 14.7678 39.4157 14.7678C37.8309 14.2275 36.1379 14.9119 35.3095 16.2806C35.3095 16.2806 35.2735 16.2806 35.2735 16.2446C34.5171 15.5602 33.6166 15.0199 32.608 14.6957C31.5995 14.3355 30.5549 14.2275 29.5464 14.3355H29.5103C29.6544 12.7507 28.7179 11.2018 27.1331 10.6615C27.097 10.6615 27.097 10.6615 27.061 10.6615C26.8809 10.5895 26.7008 10.5535 26.4847 10.5175C24.8638 10.3014 23.2429 11.2739 22.7027 12.8948C22.5586 13.291 22.5226 13.6872 22.5226 14.0834V14.0474C22.5226 14.0474 22.4505 20.3148 19.8211 21.5394C19.641 21.8276 21.1178 21.9717 22.7027 20.9271C22.2704 24.2769 24.1074 27.5907 27.3132 28.9234C27.3492 28.9234 27.3852 28.9595 27.3852 28.9595C27.4933 28.9955 27.5653 29.0315 27.6733 29.0675C27.7094 29.0675 27.7454 29.1035 27.7814 29.1035C27.7814 29.1035 27.7814 29.1035 27.8174 29.1035H27.8534H27.8895C27.8895 29.1035 27.8895 29.1035 27.9255 29.1035C27.9615 29.1035 27.9975 29.1396 28.0335 29.1396C28.1416 29.1756 28.2497 29.2116 28.3217 29.2116C28.3577 29.2116 28.3937 29.2116 28.3937 29.2476C31.7436 30.1121 35.2374 28.5632 36.8943 25.6096C37.5067 27.4106 38.8034 28.131 38.8394 27.8068C37.4346 25.2495 41.1807 20.2067 41.1807 20.2067H41.1446C41.3968 19.8825 41.5769 19.5584 41.721 19.1622C42.1892 17.6133 41.4688 15.8844 40.028 15.0559ZM24.7918 20.6029C25.152 19.5584 26.1245 18.838 27.2771 18.91C28.4298 18.946 29.3663 19.7385 29.6184 20.8191C29.0421 20.5309 28.1776 20.3148 27.2051 20.2788C26.2686 20.2067 25.4041 20.3508 24.7918 20.6029ZM28.5378 26.9064C26.7008 26.294 25.4401 24.7812 25.0439 23.0523C26.0525 23.8447 27.4572 24.6371 29.1141 25.1774C30.771 25.7177 32.3559 25.9699 33.6526 25.9338C32.2838 27.0504 30.3388 27.5187 28.5378 26.9064ZM35.3095 24.1329C34.9493 23.5565 34.373 22.9442 33.5805 22.4039C32.7881 21.8636 31.9957 21.5034 31.3473 21.3954C32.2118 20.711 33.4365 20.639 34.373 21.2873C35.2735 21.9357 35.6337 23.0883 35.3095 24.1329Z" fill="black"/>
<rect x="-1.83008" y="48.457" width="72.1777" height="3" transform="rotate(-45 -1.83008 48.457)" fill="#FF0A19"/>
</g>
<path d="M2.25 24C2.25 11.5736 12.3236 1.5 24.75 1.5C37.1764 1.5 47.25 11.5736 47.25 24C47.25 36.4264 37.1764 46.5 24.75 46.5C12.3236 46.5 2.25 36.4264 2.25 24Z" stroke="#FF0A19" stroke-width="3"/>
<defs>
<clipPath id="clip0_4866_14188">
<path d="M0.75 24C0.75 10.7452 11.4952 0 24.75 0C38.0048 0 48.75 10.7452 48.75 24C48.75 37.2548 38.0048 48 24.75 48C11.4952 48 0.75 37.2548 0.75 24Z" fill="white"/>
</clipPath>
</defs>
</svg>
