<svg width="48" height="48" viewBox="0 0 48 48" fill="none" xmlns="http://www.w3.org/2000/svg">
<g clip-path="url(#clip0_4935_27349)">
<path d="M36.8506 32.494L29.8857 27.9195C29.2035 27.4678 28.3252 27.4975 27.7012 27.9836C26.7052 28.7598 25.3598 28.9214 25.3503 28.9262C22.1936 29.1936 21.0121 23.3055 21.0264 23.2368C18.9786 14.5191 15.8278 13.3802 15.6949 13.3364C11.308 14.5237 10.1208 18.7812 11.1453 22.0529C11.9749 24.6938 11.8477 29.4942 11.7585 31.3745H14.8854C14.126 26.5931 14.9175 24.3516 15.8327 23.2855C15.3062 22.6472 14.719 22.072 14.1248 21.675C13.9203 21.5383 13.8574 21.2685 13.9703 21.051C14.1058 20.7884 14.4397 20.7016 14.6846 20.868C15.0827 21.1378 15.4702 21.4622 15.8469 21.8438C18.4926 24.4454 20.1757 29.555 20.8387 32.1269C21.1869 33.4723 22.3992 34.4088 23.7791 34.4088H36.2763C37.2841 34.4255 37.7075 33.0408 36.8506 32.494Z" fill="black"/>
<path d="M15.6854 32.872C15.607 32.5678 15.3324 32.3562 15.0175 32.3562H11.6256C11.3356 32.3562 11.0705 32.5428 10.9778 32.8221C10.9683 32.8363 10.9636 32.8518 10.9576 32.8708L10.7128 33.7931C10.5915 34.215 10.941 34.6738 11.3807 34.6619H15.2637C15.7058 34.6738 16.0529 34.2198 15.9316 33.7931L15.6868 32.8708L15.6854 32.872Z" fill="black"/>
<rect x="-2.08008" y="48.457" width="72.1777" height="3" transform="rotate(-45 -2.08008 48.457)" fill="#DD8C00"/>
</g>
<path d="M1.5 24C1.5 11.5736 11.5736 1.5 24 1.5C36.4264 1.5 46.5 11.5736 46.5 24C46.5 36.4264 36.4264 46.5 24 46.5C11.5736 46.5 1.5 36.4264 1.5 24Z" stroke="#DD8C00" stroke-width="3"/>
<defs>
<clipPath id="clip0_4935_27349">
<path d="M0 24C0 10.7452 10.7452 0 24 0C37.2548 0 48 10.7452 48 24C48 37.2548 37.2548 48 24 48C10.7452 48 0 37.2548 0 24Z" fill="white"/>
</clipPath>
</defs>
</svg>
