<svg width="49" height="48" viewBox="0 0 49 48" fill="none" xmlns="http://www.w3.org/2000/svg">
<g clip-path="url(#clip0_4866_14162)">
<path d="M29.266 30.0702C28.9877 30.0702 28.7522 29.8562 28.7361 29.5725C28.7147 29.2782 28.9395 29.0213 29.2339 29.0052C31.0696 28.8821 32.2685 28.1542 32.5254 27.0196C32.7448 26.0562 32.2203 25.034 31.2248 24.472C29.8761 23.712 29.3944 22.5506 29.2285 21.7104C29.1696 21.4214 29.357 21.1377 29.646 21.0842C29.9403 21.0253 30.2187 21.2126 30.2775 21.5016C30.4488 22.374 30.9251 23.0377 31.6744 23.4873L31.6851 23.407C31.9634 21.2608 31.3265 19.0772 29.9511 17.4127C28.6184 15.8071 26.7666 14.8598 24.7275 14.7421C24.0691 14.6992 23.4323 14.7421 22.8435 14.8491C18.974 15.5449 16.2659 19.3769 16.8065 23.4016L16.8172 23.4926C17.5772 23.043 18.0535 22.3794 18.2247 21.5016C18.2836 21.2126 18.5619 21.0253 18.8563 21.0842C19.1453 21.1377 19.3326 21.4214 19.2737 21.7104C19.1078 22.5507 18.6261 23.712 17.2774 24.472C16.282 25.034 15.7575 26.0562 15.9769 27.0196C16.2338 28.1542 17.4326 28.8821 19.2684 29.0052C19.5627 29.0213 19.7875 29.2782 19.7661 29.5725C19.7501 29.8562 19.5146 30.0702 19.2363 30.0702H19.1988C19.0704 30.0596 18.958 30.0435 18.8349 30.0274C19.0436 31.2798 19.9267 32.3395 21.1416 32.8801V31.6759C21.1416 31.3815 21.3771 31.1406 21.6768 31.1406C21.9712 31.1406 22.212 31.3815 22.212 31.6759V33.2066C22.4635 33.2547 22.7311 33.2761 22.9987 33.2761H23.7159V31.5207C23.7159 31.2209 23.9568 30.9855 24.2511 30.9855C24.5455 30.9855 24.7863 31.2209 24.7863 31.5207V33.2761H25.5035C25.7711 33.2761 26.0334 33.2547 26.2903 33.2119V31.6759C26.2903 31.3815 26.5311 31.1406 26.8255 31.1406C27.1252 31.1406 27.3607 31.3815 27.3607 31.6759V32.8854C28.5756 32.3449 29.464 31.2852 29.6674 30.0274C29.5443 30.0435 29.4319 30.0596 29.3034 30.0702H29.266ZM21.452 26.4148C20.5154 26.4148 19.7554 25.505 19.7554 24.3864C19.7554 23.2678 20.5154 22.358 21.452 22.358C22.3886 22.358 23.1486 23.2678 23.1486 24.3864C23.1486 25.505 22.3886 26.4148 21.452 26.4148ZM24.2458 29.4066C23.7106 29.4066 23.2771 28.9731 23.2771 28.4432C23.2771 27.908 23.6999 27.0464 24.2351 27.0464C24.7649 27.0464 25.2091 27.908 25.2091 28.4432C25.2091 28.9731 24.7756 29.4066 24.2458 29.4066ZM27.0502 26.4148C26.1136 26.4148 25.3536 25.505 25.3536 24.3864C25.3536 23.2678 26.1136 22.358 27.0502 22.358C27.9868 22.358 28.7468 23.2678 28.7468 24.3864C28.7468 25.505 27.9868 26.4148 27.0502 26.4148Z" fill="black"/>
<path d="M30.7748 16.7275C31.2083 17.2467 31.5776 17.814 31.872 18.4134L33.8148 16.4706C34.5266 16.9898 35.5274 16.9363 36.1697 16.2887C36.8815 15.5822 36.8815 14.4262 36.1697 13.7143C35.8593 13.4039 35.4579 13.238 35.0511 13.2006C35.0136 12.7938 34.8477 12.3924 34.5373 12.082C33.8255 11.3701 32.6694 11.3701 31.963 12.082C31.3154 12.7242 31.2618 13.725 31.781 14.4369L30.1593 16.0585C30.3734 16.2726 30.5768 16.492 30.7748 16.7275Z" fill="black"/>
<path d="M17.7803 30.199L17.7214 29.8298C17.3682 29.7334 17.0471 29.6103 16.7581 29.4658L14.6868 31.5317C13.975 31.0126 12.9742 31.0661 12.3319 31.7137C11.6201 32.4201 11.6201 33.5762 12.3319 34.288C12.6424 34.5984 13.0438 34.7643 13.4505 34.8018C13.488 35.2086 13.6539 35.61 13.9643 35.9204C14.6761 36.6322 15.8322 36.6322 16.5387 35.9204C17.1862 35.2781 17.2398 34.2773 16.7206 33.5655L18.4119 31.8742C18.1014 31.3658 17.882 30.8038 17.7803 30.199Z" fill="black"/>
<path d="M14.6868 16.4706L16.6189 18.3974C17.0578 17.5196 17.6412 16.7222 18.3316 16.0478L16.7206 14.4369C17.2398 13.725 17.1862 12.7242 16.5387 12.082C15.8322 11.3701 14.6761 11.3701 13.9643 12.082C13.6539 12.3924 13.488 12.7938 13.4505 13.2006C13.0438 13.238 12.6424 13.4039 12.3319 13.7143C11.6201 14.4262 11.6201 15.5822 12.3319 16.2887C12.9742 16.9363 13.975 16.9898 14.6868 16.4706Z" fill="black"/>
<path d="M33.8147 31.5317L31.7434 29.4658C31.4544 29.6103 31.1333 29.7334 30.7801 29.8298L30.7212 30.199C30.6248 30.8038 30.4108 31.3658 30.0896 31.8742L31.7809 33.5655C31.2617 34.2773 31.3153 35.2781 31.9628 35.9204C32.6693 36.6322 33.8254 36.6322 34.5372 35.9204C34.8476 35.61 35.0135 35.2086 35.051 34.8018C35.4577 34.7643 35.8591 34.5984 36.1696 34.288C36.8814 33.5762 36.8814 32.4201 36.1696 31.7137C35.5273 31.0661 34.5265 31.0126 33.8147 31.5317Z" fill="black"/>
<rect x="-1.83008" y="48.457" width="72.1777" height="3" transform="rotate(-45 -1.83008 48.457)" fill="#FF0A19"/>
</g>
<path d="M1.75 24C1.75 11.5736 11.8236 1.5 24.25 1.5C36.6764 1.5 46.75 11.5736 46.75 24C46.75 36.4264 36.6764 46.5 24.25 46.5C11.8236 46.5 1.75 36.4264 1.75 24Z" stroke="#FF0A19" stroke-width="3"/>
<defs>
<clipPath id="clip0_4866_14162">
<path d="M0.25 24C0.25 10.7452 10.9952 0 24.25 0C37.5048 0 48.25 10.7452 48.25 24C48.25 37.2548 37.5048 48 24.25 48C10.9952 48 0.25 37.2548 0.25 24Z" fill="white"/>
</clipPath>
</defs>
</svg>
