<svg width="49" height="48" viewBox="0 0 49 48" fill="none" xmlns="http://www.w3.org/2000/svg">
<g clip-path="url(#clip0_4866_14130)">
<path d="M27.8746 30.6098L28.3642 29.6307H12.3242L12.8138 30.6098H27.8746Z" fill="black"/>
<path d="M33.0722 21.7979H36.0096V19.3501H34.9815C34.8846 19.8201 34.6522 20.2514 34.3129 20.5907C33.9735 20.93 33.5422 21.1625 33.0722 21.2594V21.7979Z" fill="black"/>
<path d="M20.3444 15.9231C20.6215 15.9231 20.8942 15.9407 21.1649 15.9647C21.2611 15.8169 21.3157 15.6459 21.3227 15.4698C21.3298 15.2936 21.2892 15.1188 21.2052 14.9637C21.1211 14.8087 20.9968 14.6793 20.8453 14.5891C20.6938 14.4989 20.5207 14.4513 20.3444 14.4513C20.1681 14.4513 19.995 14.4989 19.8435 14.5891C19.692 14.6793 19.5677 14.8087 19.4837 14.9637C19.3996 15.1188 19.359 15.2936 19.3661 15.4698C19.3732 15.6459 19.4277 15.8169 19.5239 15.9647C19.7946 15.9407 20.0673 15.9231 20.3444 15.9231Z" fill="black"/>
<path d="M11.0423 28.6515H29.6456C29.7754 28.6515 29.9 28.5999 29.9918 28.5081C30.0836 28.4163 30.1352 28.2918 30.1352 28.1619C30.1352 28.0321 30.0836 27.9076 29.9918 27.8158C29.9 27.7239 29.7754 27.6724 29.6456 27.6724H11.0423C10.9125 27.6724 10.7879 27.7239 10.6961 27.8158C10.6043 27.9076 10.5527 28.0321 10.5527 28.1619C10.5527 28.2918 10.6043 28.4163 10.6961 28.5081C10.7879 28.5999 10.9125 28.6515 11.0423 28.6515Z" fill="black"/>
<path d="M32.0934 20.2394V18.8608C32.0934 18.731 32.1449 18.6065 32.2368 18.5147C32.3286 18.4228 32.4531 18.3713 32.5829 18.3713H33.9615C33.8794 18.1375 33.7393 17.9284 33.5544 17.7635C33.3695 17.5986 33.1458 17.4833 32.9043 17.4283C32.6627 17.3733 32.4111 17.3805 32.173 17.4492C31.935 17.5179 31.7182 17.6458 31.5431 17.8209C31.3679 17.9961 31.24 18.2129 31.1713 18.4509C31.1026 18.689 31.0954 18.9406 31.1504 19.1821C31.2054 19.4237 31.3207 19.6474 31.4856 19.8323C31.6505 20.0172 31.8596 20.1573 32.0934 20.2394Z" fill="black"/>
<path d="M33.0722 19.3501V20.2391C33.277 20.166 33.463 20.0483 33.6167 19.8946C33.7704 19.7408 33.8881 19.5549 33.9613 19.3501H33.0722Z" fill="black"/>
<path d="M28.6658 25.224C28.6658 23.0167 27.789 20.8998 26.2282 19.339C24.6674 17.7783 22.5506 16.9014 20.3433 16.9014C18.136 16.9014 16.0191 17.7783 14.4584 19.339C12.8976 20.8998 12.0208 23.0167 12.0208 25.224V26.6926H28.6658V25.224ZM22.7705 18.7941C22.7404 18.8951 22.6785 18.9836 22.594 19.0466C22.5095 19.1096 22.4069 19.1436 22.3015 19.1436C22.2541 19.1434 22.207 19.1365 22.1615 19.1231C21.864 19.0344 21.5603 18.9679 21.2529 18.9243C21.1243 18.9059 21.0083 18.8371 20.9304 18.7331C20.8525 18.6291 20.8191 18.4985 20.8375 18.3699C20.8559 18.2413 20.9247 18.1252 21.0287 18.0473C21.1327 17.9694 21.2633 17.936 21.3919 17.9545C21.747 18.0056 22.0978 18.0827 22.4415 18.1851C22.5659 18.2222 22.6704 18.3072 22.7321 18.4215C22.7938 18.5357 22.8076 18.6697 22.7705 18.7941ZM27.1971 25.7135C27.0673 25.7135 26.9428 25.6619 26.851 25.5701C26.7592 25.4783 26.7076 25.3538 26.7076 25.224C26.7069 24.198 26.4586 23.1874 25.9837 22.2779C25.5088 21.3685 24.8213 20.5872 23.9797 20.0003C23.8732 19.9261 23.8005 19.8125 23.7777 19.6847C23.7549 19.5568 23.7838 19.4252 23.8581 19.3186C23.9324 19.2121 24.0459 19.1394 24.1738 19.1166C24.3016 19.0938 24.4333 19.1227 24.5398 19.197C25.5107 19.8741 26.3038 20.7757 26.8516 21.8249C27.3995 22.8742 27.686 24.0403 27.6867 25.224C27.6867 25.3538 27.6351 25.4783 27.5433 25.5701C27.4515 25.6619 27.327 25.7135 27.1971 25.7135Z" fill="black"/>
<path d="M33.0722 30.6095H37.9678V22.7765H33.0722V30.6095ZM34.1547 26.3425C34.0306 26.3045 33.9266 26.2188 33.8657 26.1042C33.8047 25.9897 33.7917 25.8556 33.8296 25.7315L34.4019 23.8589C34.4398 23.7348 34.5255 23.6309 34.6401 23.5699C34.7546 23.509 34.8887 23.496 35.0129 23.5338L36.8854 24.1061C37.0095 24.1441 37.1135 24.2298 37.1744 24.3443C37.2354 24.4589 37.2484 24.593 37.2105 24.7171L36.6382 26.5897C36.6348 26.6005 36.6274 26.6088 36.6235 26.6195L37.2766 27.8464C37.3068 27.9031 37.3256 27.9653 37.3318 28.0293C37.338 28.0933 37.3315 28.158 37.3127 28.2195C37.294 28.281 37.2632 28.3382 37.2223 28.3878C37.1815 28.4375 37.1312 28.4786 37.0744 28.5088L35.3458 29.4286C35.289 29.4589 35.2268 29.4776 35.1628 29.4838C35.0988 29.49 35.0342 29.4836 34.9727 29.4648C34.9112 29.446 34.854 29.4153 34.8043 29.3744C34.7547 29.3335 34.7136 29.2832 34.6834 29.2265L33.7635 27.4978C33.7333 27.4411 33.7145 27.3789 33.7083 27.3149C33.7021 27.2509 33.7086 27.1862 33.7274 27.1247C33.7461 27.0632 33.7768 27.006 33.8177 26.9564C33.8586 26.9067 33.9089 26.8656 33.9657 26.8354L34.6232 26.4859L34.1547 26.3425Z" fill="black"/>
<path d="M37.968 19.3501H36.9889V21.7979H37.968V19.3501Z" fill="black"/>
<path d="M35.723 27.0091L34.8587 27.4691L35.3186 28.3334L36.183 27.8735L35.723 27.0091Z" fill="black"/>
<path d="M35.1953 24.6136L34.9095 25.5496L35.8454 25.8354L36.1313 24.8995L35.1953 24.6136Z" fill="black"/>
<path d="M28.1769 31.5891H12.511H10.5527V35.5055H37.9681V31.5891H32.583H28.1769Z" fill="black"/>
<path d="M36.0098 18.3706V14.4542C36.0098 14.3782 36.0275 14.3032 36.0614 14.2352C36.0954 14.1672 36.1448 14.1081 36.2056 14.0625L38.1638 12.5938C38.2677 12.5159 38.3983 12.4825 38.5268 12.5008C38.6553 12.5192 38.7713 12.5879 38.8492 12.6917C38.9271 12.7956 38.9606 12.9262 38.9422 13.0547C38.9238 13.1832 38.8552 13.2992 38.7513 13.3771L36.9889 14.6989V18.3706H36.0098Z" fill="black"/>
<rect x="-1.82959" y="48.457" width="72.1777" height="3" transform="rotate(-45 -1.82959 48.457)" fill="#FF0A19"/>
</g>
<rect x="2.25" y="1.5" width="45" height="45" rx="22.5" stroke="#FF0A19" stroke-width="3"/>
<defs>
<clipPath id="clip0_4866_14130">
<rect x="0.75" width="48" height="48" rx="24" fill="white"/>
</clipPath>
</defs>
</svg>
