<svg width="49" height="48" viewBox="0 0 49 48" fill="none" xmlns="http://www.w3.org/2000/svg">
<g clip-path="url(#clip0_4866_14183)">
<path d="M38.7539 13.0767C38.7539 13.2386 38.6203 13.3722 38.4585 13.3722H34.2827V14.2936H35.0796C35.332 14.2936 35.5369 14.4996 35.5369 14.7509V15.3531L32.433 15.3553V14.7532C32.433 14.5007 32.6391 14.2958 32.8904 14.2958H33.6873V13.3744L29.5127 13.3722C29.3508 13.3722 29.2172 13.2386 29.2172 13.0767C29.2172 12.9149 29.3508 12.7813 29.5127 12.7813H33.6884V12.7722C33.6884 12.6104 33.822 12.4768 33.9838 12.4768C34.1457 12.4768 34.2793 12.6104 34.2793 12.7722V12.7813H38.455C38.6237 12.7813 38.7539 12.9149 38.7539 13.0767ZM14.2175 14.2947H13.4206C13.1681 14.2947 12.9633 14.5007 12.9633 14.752V15.3542H16.0671V14.752C16.0671 14.4996 15.8611 14.2947 15.6098 14.2947H14.8129V13.3733H18.9887C19.1505 13.3733 19.2841 13.2397 19.2841 13.0779C19.2841 12.916 19.1505 12.7824 18.9887 12.7824L14.8094 12.7813V12.7722C14.8094 12.6104 14.6759 12.4768 14.514 12.4768C14.3521 12.4768 14.2186 12.6104 14.2186 12.7722V12.7813H10.0416C9.87978 12.7813 9.74622 12.9149 9.74622 13.0767C9.74622 13.2386 9.87979 13.3722 10.0416 13.3722H14.2174L14.2175 14.2947ZM24.25 26.0886C24.5104 26.0886 24.7254 25.8746 24.7254 25.6131C24.7254 25.3494 24.5115 25.1377 24.25 25.1377C23.9897 25.1377 23.7746 25.3517 23.7746 25.6131C23.7746 25.8735 23.9897 26.0886 24.25 26.0886ZM20.3064 26.8243C20.3064 27.2964 20.6912 27.6824 21.1644 27.6824H22.2545C21.7122 27.1583 21.3738 26.4248 21.3738 25.6131C21.3738 24.8128 21.7009 24.0884 22.2284 23.5677H21.1644C20.6923 23.5677 20.3063 23.9525 20.3063 24.4257L20.3064 26.8243ZM28.1939 26.813V24.411C28.1939 23.939 27.8091 23.553 27.3359 23.553H26.2606C26.7971 24.0771 27.1299 24.8049 27.1299 25.6109C27.1299 26.4169 26.7971 27.147 26.2606 27.6688H27.3359C27.8113 27.6711 28.1939 27.285 28.1939 26.813ZM24.2503 23.3243C25.5136 23.3243 26.5369 24.3476 26.5369 25.6109C26.5369 26.8742 25.5136 27.8974 24.2503 27.8974C22.987 27.8974 21.9637 26.8742 21.9637 25.6109C21.9637 24.3465 22.987 23.3243 24.2503 23.3243ZM23.1806 25.6131C23.1806 26.2018 23.6583 26.6828 24.2503 26.6828C24.8412 26.6828 25.32 26.2052 25.32 25.6131C25.32 25.0245 24.8423 24.5434 24.2503 24.5434C23.6594 24.5434 23.1806 25.0223 23.1806 25.6131ZM37.3425 16.8157C37.3425 17.2933 36.9543 17.6816 36.4766 17.6816H33.5028C33.1814 17.6816 32.8678 17.7914 32.6165 17.9918L31.5932 18.8C31.0895 19.1996 30.4635 19.4169 29.8194 19.4169H18.9526C18.3844 19.4169 17.8308 19.2494 17.3588 18.9302L15.8601 17.925C15.6258 17.7654 15.3473 17.6816 15.0632 17.6816H12.024C11.5463 17.6816 11.158 17.2933 11.158 16.8156C11.158 16.338 11.5463 15.9497 12.024 15.9497H36.4755C36.9543 15.9486 37.3425 16.3368 37.3425 16.8157ZM29.8082 17.6703C29.8082 17.5084 29.6746 17.3748 29.5128 17.3748H18.9911C18.8292 17.3748 18.6956 17.5084 18.6956 17.6703C18.6956 17.8321 18.8292 17.9657 18.9911 17.9657H29.5128C29.6746 17.9657 29.8082 17.8355 29.8082 17.6703ZM25.2499 22.9124V21.9389H23.2475V22.9124C23.5599 22.797 23.8961 22.7325 24.247 22.7325C24.5979 22.7325 24.9398 22.797 25.2499 22.9124ZM20.9814 20.8896C21.149 21.1624 21.5757 21.3447 22.0511 21.3447H26.45C26.9255 21.3447 27.3488 21.1647 27.5197 20.8896L28.0642 20.0089H20.4403L20.9814 20.8896ZM28.2034 15.3554H20.2978L20.9816 13.5612C21.1491 13.1175 21.5758 12.8254 22.0513 12.8254H26.4502C26.9256 12.8254 27.3489 13.1186 27.5199 13.5612L28.2034 15.3554ZM25.0622 14.4509C25.0622 14.289 24.9286 14.1555 24.7667 14.1555H22.3092C22.1474 14.1555 22.0138 14.2891 22.0138 14.4509C22.0138 14.6128 22.1474 14.7463 22.3092 14.7463H24.7667C24.9286 14.7463 25.0622 14.6162 25.0622 14.4509ZM26.4907 14.4509C26.4907 14.289 26.3571 14.1555 26.1953 14.1555H26.0243C25.8625 14.1555 25.7289 14.2891 25.7289 14.4509C25.7289 14.6128 25.8625 14.7463 26.0243 14.7463H26.1953C26.3571 14.7463 26.4907 14.6162 26.4907 14.4509ZM18.9506 20.0113C18.4434 20.0113 17.9477 19.9015 17.4926 19.6864L13.473 27.7313C13.027 28.6233 13.7775 29.058 14.3277 28.2237L19.7553 20.0078L18.9505 20.0089L18.9506 20.0113ZM31.0603 19.7803C30.6663 19.9309 30.2464 20.0124 29.8196 20.0124H28.7499L34.1776 28.2283C34.7277 29.0603 35.4782 28.6279 35.0322 27.7359L31.0603 19.7803ZM21.1726 31.513C21.0572 31.6285 21.0594 31.8175 21.176 31.933C22.025 32.7706 23.1377 33.1872 24.2503 33.1872C25.3629 33.1872 26.4791 32.7695 27.3246 31.933C27.4401 31.8175 27.4435 31.6319 27.328 31.513C27.2125 31.3976 27.0269 31.3942 26.908 31.5096C25.4422 32.9585 23.0571 32.9585 21.59 31.5096C21.4745 31.3942 21.2889 31.3942 21.1723 31.513H21.1726ZM25.1922 29.7913C24.6647 30.3098 23.8383 30.3098 23.312 29.7913C23.1965 29.6759 23.0075 29.6781 22.892 29.7947C22.7766 29.9102 22.7788 30.0992 22.8954 30.2147C23.269 30.5825 23.7614 30.7682 24.2515 30.7682C24.7417 30.7682 25.2341 30.5826 25.6076 30.2147C25.7231 30.0992 25.7265 29.9136 25.611 29.7947C25.4967 29.6793 25.3076 29.6759 25.1922 29.7913ZM28.5621 33.1647C26.1804 35.5203 22.3091 35.5203 19.9376 33.1647C19.8221 33.0492 19.6331 33.0492 19.5176 33.1681C19.4021 33.2869 19.4021 33.4726 19.521 33.588C20.8216 34.8807 22.5342 35.5237 24.2471 35.5237C25.9597 35.5237 27.6746 34.8773 28.9786 33.588C29.0941 33.4726 29.0975 33.2869 28.982 33.1681C28.8666 33.0492 28.6786 33.0492 28.5621 33.1647Z" fill="black"/>
<rect x="-1.83008" y="48.457" width="72.1777" height="3" transform="rotate(-45 -1.83008 48.457)" fill="#FF0A19"/>
</g>
<path d="M1.75 24C1.75 11.5736 11.8236 1.5 24.25 1.5C36.6764 1.5 46.75 11.5736 46.75 24C46.75 36.4264 36.6764 46.5 24.25 46.5C11.8236 46.5 1.75 36.4264 1.75 24Z" stroke="#FF0A19" stroke-width="3"/>
<defs>
<clipPath id="clip0_4866_14183">
<path d="M0.25 24C0.25 10.7452 10.9952 0 24.25 0C37.5048 0 48.25 10.7452 48.25 24C48.25 37.2548 37.5048 48 24.25 48C10.9952 48 0.25 37.2548 0.25 24Z" fill="white"/>
</clipPath>
</defs>
</svg>
