<svg width="49" height="48" viewBox="0 0 49 48" fill="none" xmlns="http://www.w3.org/2000/svg">
<g clip-path="url(#clip0_4866_14157)">
<path d="M12.1579 24.8292C12.148 27.704 13.4248 30.4335 15.6385 32.269C17.8521 34.1044 20.7696 34.8532 23.5932 34.3121C26.4179 33.771 28.8511 31.9957 30.2285 29.4717C31.6069 26.9477 31.784 23.9404 30.7116 21.2721L32.1917 18.8148V18.8159C32.7197 17.9425 32.5787 16.8209 31.8507 16.106L31.7162 15.9716L32.0573 15.6305C32.4781 15.225 33.0422 15.002 33.627 15.0096C34.2162 15.0009 34.7846 15.2293 35.2022 15.6447C35.6209 16.059 35.8537 16.6252 35.8493 17.2144V18.113C35.8559 20.4293 35.13 22.6889 33.7757 24.5689C33.6139 24.8651 32.1469 26.3769 32.1469 29.0102C32.1458 29.8781 32.4923 30.71 33.1099 31.321C33.2455 31.4752 33.4401 31.5648 33.6445 31.5714C33.85 31.5768 34.0479 31.4981 34.1932 31.3527C34.3375 31.2074 34.4162 31.0084 34.4097 30.8029C34.4031 30.5985 34.3124 30.405 34.1593 30.2695C33.8292 29.9394 33.6434 29.4934 33.6412 29.0266C33.6412 26.9245 34.8415 25.7419 35.0043 25.4444C36.5369 23.3084 37.3556 20.7417 37.3436 18.1129V17.2143C37.3524 16.2327 36.9643 15.2883 36.268 14.5974C35.5705 13.9054 34.6228 13.5262 33.6412 13.5436L33.6128 13.5152H33.6139C32.6355 13.5065 31.6932 13.8836 30.9915 14.5646L30.6504 14.9057L30.5192 14.7712H30.5181C29.8 14.0498 28.6828 13.911 27.8094 14.4335L25.3498 15.9136C22.3886 14.7199 19.0283 15.0751 16.383 16.8635C13.7376 18.6507 12.1548 21.6362 12.1579 24.8292ZM26.8908 16.7139L28.5699 15.7093C28.8606 15.5279 29.2388 15.577 29.4739 15.8263L30.8064 17.1588C31.0349 17.4047 31.0753 17.7698 30.907 18.0595H30.8906L29.886 19.7386C29.1219 18.523 28.0998 17.4901 26.8908 16.7139ZM21.0142 30.7671C21.012 30.5704 21.0896 30.3802 21.2296 30.2402C21.3684 30.1014 21.5586 30.0238 21.7564 30.026C23.1349 30.0271 24.4575 29.4805 25.4316 28.5054C26.4055 27.5304 26.9521 26.2077 26.9499 24.8292C26.974 24.4379 27.2986 24.1329 27.6899 24.1329C28.0824 24.1329 28.4059 24.4378 28.43 24.8292C28.43 26.5979 27.7293 28.2933 26.4798 29.545C25.2304 30.7956 23.5359 31.5006 21.7673 31.5039C21.5706 31.5061 21.3815 31.4285 21.2416 31.2897C21.1016 31.1508 21.024 30.9617 21.0262 30.765L21.0142 30.7671ZM35.1047 30.7474C35.1025 30.5518 35.179 30.3616 35.3189 30.2227C35.4577 30.0839 35.6469 30.0063 35.8436 30.0096H36.5847C36.9761 30.0336 37.2811 30.3572 37.2811 30.7496C37.2811 31.1409 36.9761 31.4656 36.5847 31.4896H35.8327C35.637 31.4875 35.4512 31.4088 35.3145 31.2699C35.1779 31.1311 35.1025 30.9431 35.1047 30.7474ZM35.7124 31.8001L36.224 32.3183C36.4995 32.6112 36.4918 33.0692 36.2076 33.3534C35.9234 33.6387 35.4643 33.6453 35.1713 33.3698L34.6532 32.8517L34.6543 32.8528C34.5078 32.714 34.4225 32.5227 34.4193 32.3215C34.416 32.1204 34.4947 31.9258 34.6379 31.7837C34.78 31.6416 34.9746 31.5629 35.1757 31.5651C35.3769 31.5684 35.5681 31.6536 35.7059 31.8001L35.7124 31.8001ZM33.6246 32.2286C33.8214 32.2264 34.0105 32.304 34.1493 32.4439C34.2881 32.5839 34.3657 32.773 34.3635 32.9697V33.7109C34.3395 34.1022 34.0148 34.4072 33.6224 34.4072C33.2311 34.4072 32.9064 34.1022 32.8824 33.7109V32.9697C32.8813 32.7741 32.9578 32.5871 33.0944 32.4472C33.2311 32.3084 33.418 32.2297 33.6137 32.2286L33.6246 32.2286ZM31.5367 31.8001C31.6734 31.6471 31.8669 31.5563 32.0713 31.5509C32.2768 31.5443 32.4757 31.6241 32.62 31.7684C32.7654 31.9138 32.8441 32.1128 32.8376 32.3182C32.831 32.5226 32.7403 32.7161 32.5861 32.8528L32.068 33.3709V33.3698C31.9303 33.5163 31.739 33.6016 31.5378 33.6049C31.3367 33.6081 31.1421 33.5294 31 33.3862C30.8568 33.2441 30.7781 33.0496 30.7814 32.8484C30.7847 32.6473 30.8699 32.456 31.0164 32.3183L31.5367 31.8001ZM35.1746 28.1283C35.4698 27.8769 35.9092 27.8944 36.1836 28.1688C36.4591 28.4432 36.4755 28.8826 36.2241 29.1777L35.7004 29.6981C35.5671 29.8413 35.3791 29.9222 35.1834 29.92H35.1659C34.9713 29.9167 34.7855 29.8369 34.6488 29.6981C34.5067 29.5603 34.4258 29.3701 34.4258 29.1723C34.4258 28.9744 34.5067 28.7842 34.6488 28.6465L35.1746 28.1283Z" fill="black"/>
<rect x="-1.83008" y="48.457" width="72.1777" height="3" transform="rotate(-45 -1.83008 48.457)" fill="#FF0A19"/>
</g>
<path d="M2.25 24C2.25 11.5736 12.3236 1.5 24.75 1.5C37.1764 1.5 47.25 11.5736 47.25 24C47.25 36.4264 37.1764 46.5 24.75 46.5C12.3236 46.5 2.25 36.4264 2.25 24Z" stroke="#FF0A19" stroke-width="3"/>
<defs>
<clipPath id="clip0_4866_14157">
<path d="M0.75 24C0.75 10.7452 11.4952 0 24.75 0C38.0048 0 48.75 10.7452 48.75 24C48.75 37.2548 38.0048 48 24.75 48C11.4952 48 0.75 37.2548 0.75 24Z" fill="white"/>
</clipPath>
</defs>
</svg>
