<svg width="49" height="48" viewBox="0 0 49 48" fill="none" xmlns="http://www.w3.org/2000/svg">
<g clip-path="url(#clip0_4866_14227)">
<path fill-rule="evenodd" clip-rule="evenodd" d="M16.0112 25.8793L17.5097 26.7467L12.3314 29.7371L10.6873 28.7856L15.7167 25.8728C15.7622 25.8473 15.8134 25.8339 15.8656 25.8339C15.9177 25.8339 15.969 25.8473 16.0144 25.8728L16.0112 25.8793ZM33.1642 9.71988C34.3409 9.71924 35.4913 10.0676 36.4699 10.7208C37.4486 11.3741 38.2115 12.3029 38.6622 13.3898C39.113 14.4767 39.2312 15.6728 39.0021 16.8269C38.7729 17.981 38.2066 19.0413 37.3748 19.8735C36.5431 20.7058 35.4831 21.2726 34.3291 21.5024C33.1751 21.7322 31.9789 21.6146 30.8918 21.1645C29.8046 20.7143 28.8754 19.9519 28.2216 18.9736C27.5679 17.9953 27.2189 16.8451 27.2189 15.6684C27.2185 14.8874 27.372 14.1139 27.6705 13.3923C27.9691 12.6706 28.407 12.0148 28.9591 11.4624C29.5112 10.9099 30.1668 10.4717 30.8883 10.1727C31.6098 9.87377 32.3832 9.71988 33.1642 9.71988ZM34.8213 14.3091C34.8186 13.9238 34.6818 13.5514 34.4343 13.2561C34.1868 12.9607 33.8441 12.7609 33.4652 12.6909V12.2022C33.4575 12.1282 33.4226 12.0596 33.3673 12.0098C33.312 11.96 33.2403 11.9324 33.1658 11.9324C33.0914 11.9324 33.0196 11.96 32.9643 12.0098C32.909 12.0596 32.8742 12.1282 32.8665 12.2022V12.6683C32.4424 12.7241 32.0563 12.9418 31.789 13.2757C31.5217 13.6097 31.394 14.0341 31.4324 14.4601C31.4709 14.8861 31.6726 15.2808 31.9954 15.5615C32.3182 15.8422 32.737 15.9872 33.1642 15.9662C33.3744 15.9655 33.5801 16.0273 33.7552 16.1437C33.9303 16.2601 34.0668 16.4259 34.1476 16.62C34.2283 16.8141 34.2496 17.0278 34.2087 17.234C34.1679 17.4402 34.0667 17.6297 33.9181 17.7783C33.7694 17.927 33.58 18.0282 33.3737 18.069C33.1675 18.1099 32.9538 18.0886 32.7597 18.0078C32.5656 17.9271 32.3999 17.7905 32.2835 17.6154C32.1671 17.4404 32.1053 17.2347 32.1059 17.0245C32.0982 16.9504 32.0633 16.8819 32.008 16.8321C31.9528 16.7822 31.881 16.7547 31.8065 16.7547C31.7321 16.7547 31.6603 16.7822 31.605 16.8321C31.5497 16.8819 31.5149 16.9504 31.5072 17.0245C31.5099 17.4103 31.6472 17.783 31.8954 18.0784C32.1435 18.3738 32.4869 18.5734 32.8665 18.6427V19.1411C32.8621 19.183 32.8666 19.2254 32.8796 19.2655C32.8927 19.3056 32.914 19.3425 32.9422 19.3738C32.9705 19.4051 33.005 19.4301 33.0435 19.4473C33.082 19.4644 33.1237 19.4732 33.1658 19.4732C33.208 19.4732 33.2497 19.4644 33.2882 19.4473C33.3267 19.4301 33.3612 19.4051 33.3894 19.3738C33.4176 19.3425 33.439 19.3056 33.452 19.2655C33.4651 19.2254 33.4696 19.183 33.4652 19.1411V18.6556C33.8737 18.5826 34.2399 18.359 34.4914 18.029C34.743 17.699 34.8615 17.2866 34.8237 16.8734C34.7859 16.4602 34.5944 16.0762 34.2871 15.7974C33.9799 15.5185 33.5791 15.3651 33.1642 15.3674C32.954 15.3681 32.7483 15.3063 32.5732 15.1899C32.3982 15.0735 32.2616 14.9077 32.1809 14.7136C32.1001 14.5195 32.0788 14.3058 32.1197 14.0996C32.1605 13.8934 32.2617 13.7039 32.4104 13.5553C32.559 13.4066 32.7485 13.3054 32.9547 13.2646C33.1609 13.2237 33.3746 13.245 33.5687 13.3258C33.7628 13.4065 33.9286 13.5431 34.045 13.7181C34.1614 13.8932 34.2232 14.0989 34.2225 14.3091C34.2302 14.3831 34.2651 14.4517 34.3204 14.5015C34.3757 14.5514 34.4475 14.5789 34.5219 14.5789C34.5963 14.5789 34.6681 14.5514 34.7234 14.5015C34.7787 14.4517 34.8135 14.3831 34.8213 14.3091ZM33.1642 10.872C32.2154 10.8714 31.2878 11.1522 30.4986 11.6788C29.7094 12.2054 29.0942 12.9543 28.7306 13.8307C28.3671 14.707 28.2717 15.6715 28.4564 16.6022C28.6411 17.5328 29.0976 18.3877 29.7683 19.0588C30.4389 19.7299 31.2936 20.1871 32.2241 20.3724C33.1546 20.5577 34.1191 20.4629 34.9957 20.1C35.8723 19.7371 36.6216 19.1223 37.1488 18.3335C37.676 17.5446 37.9573 16.6172 37.9573 15.6684C37.9573 14.3969 37.4525 13.1774 36.5537 12.278C35.6549 11.3786 34.4357 10.8729 33.1642 10.872ZM33.1642 11.4708C32.3321 11.4708 31.5186 11.7175 30.8267 12.1798C30.1348 12.6422 29.5956 13.2993 29.2771 14.068C28.9587 14.8368 28.8754 15.6828 29.0377 16.4989C29.2001 17.3151 29.6008 18.0648 30.1892 18.6532C30.7776 19.2416 31.5273 19.6423 32.3434 19.8046C33.1595 19.967 34.0055 19.8836 34.7743 19.5652C35.5431 19.2468 36.2002 18.7075 36.6625 18.0156C37.1248 17.3237 37.3715 16.5103 37.3715 15.6781C37.3715 14.5623 36.9283 13.4921 36.1392 12.7031C35.3502 11.9141 34.2801 11.4708 33.1642 11.4708ZM23.4873 16.0438C23.4341 16.1026 23.3597 16.1379 23.2805 16.1418C23.2013 16.1458 23.1238 16.1181 23.065 16.0649C23.0062 16.0117 22.9709 15.9373 22.967 15.8581C22.963 15.7788 22.9907 15.7013 23.0439 15.6425L24.3385 14.2379C21.8528 14.342 19.4985 15.3824 17.7481 17.1503C15.9977 18.9181 14.9806 21.2826 14.9011 23.7692C14.8985 23.8481 14.8647 23.9228 14.807 23.9769C14.7494 24.0309 14.6726 24.0598 14.5936 24.0572C14.5147 24.0546 14.44 24.0208 14.386 23.9631C14.3319 23.9055 14.303 23.8287 14.3056 23.7497C14.388 21.1236 15.4565 18.6249 17.2984 16.7512C19.1403 14.8776 21.6203 13.7665 24.2446 13.6392L22.8983 12.4093C22.8692 12.3832 22.8455 12.3516 22.8286 12.3163C22.8116 12.281 22.8019 12.2427 22.7998 12.2037C22.7976 12.1646 22.8033 12.1255 22.8163 12.0886C22.8293 12.0517 22.8495 12.0177 22.8756 11.9886C22.929 11.9296 23.0035 11.894 23.0829 11.8898C23.1624 11.8855 23.2403 11.9129 23.2996 11.966L25.2091 13.7104C25.238 13.7367 25.2614 13.7685 25.2781 13.8039C25.2947 13.8393 25.3042 13.8777 25.306 13.9167C25.3078 13.9558 25.3019 13.9948 25.2886 14.0316C25.2753 14.0684 25.2549 14.1022 25.2285 14.1311L23.4873 16.0406V16.0438ZM25.7755 35.786L24.5068 34.5173H24.7495C27.5183 34.5173 30.174 33.4185 32.1334 31.4622C34.0927 29.5058 35.1956 26.8519 35.1999 24.0831V23.9504C35.1999 23.9019 35.1999 23.8565 35.1999 23.8177C35.1991 23.7786 35.1905 23.7401 35.1748 23.7042C35.159 23.6684 35.1364 23.6361 35.1082 23.609C35.0799 23.582 35.0466 23.5608 35.0101 23.5466C34.9737 23.5324 34.9348 23.5256 34.8957 23.5264C34.8565 23.5268 34.8177 23.5351 34.7817 23.5507C34.7457 23.5663 34.7132 23.5889 34.686 23.6173C34.6589 23.6456 34.6377 23.6791 34.6237 23.7157C34.6097 23.7524 34.6031 23.7914 34.6044 23.8307V24.0831C34.6044 25.3771 34.3495 26.6584 33.8542 27.8539C33.3589 29.0494 32.6329 30.1356 31.7178 31.0504C30.8026 31.9653 29.7162 32.6909 28.5206 33.1858C27.325 33.6807 26.0435 33.9352 24.7495 33.9347H24.4259L25.7884 32.5722C25.8441 32.5164 25.8754 32.4407 25.8754 32.3618C25.8754 32.283 25.8441 32.2073 25.7884 32.1515C25.732 32.0956 25.6558 32.0642 25.5764 32.0642C25.497 32.0642 25.4208 32.0956 25.3644 32.1515L23.5359 33.9768C23.4799 34.0332 23.4486 34.1094 23.4486 34.1888C23.4486 34.2682 23.4799 34.3444 23.5359 34.4008L25.3644 36.2294C25.4221 36.2776 25.4958 36.3025 25.5709 36.2991C25.646 36.2958 25.7172 36.2644 25.7703 36.2113C25.8235 36.1581 25.8548 36.087 25.8582 36.0118C25.8615 35.9367 25.8366 35.8631 25.7884 35.8054L25.7755 35.786ZM18.8334 27.5072L18.1084 27.0897L12.9301 30.0802L13.6551 30.4977L18.8334 27.5072ZM19.4289 27.8535L14.2506 30.844L15.8688 31.7728L21.0471 28.7856L19.4289 27.8535ZM21.3416 29.3002L16.1633 32.2906V38.2715L21.1927 35.3588C21.2383 35.3328 21.2762 35.2951 21.3024 35.2496C21.3286 35.2041 21.3421 35.1524 21.3416 35.0999V29.2743V29.3002ZM15.5646 38.2715V32.2906L13.9464 31.3618V33.1256C13.9459 33.1797 13.9309 33.2327 13.9029 33.2789C13.8749 33.3252 13.835 33.3631 13.7873 33.3886C13.7396 33.4141 13.686 33.4263 13.6319 33.4238C13.5779 33.4214 13.5255 33.4045 13.4803 33.3748L12.1858 32.6208C12.1414 32.5931 12.1043 32.5551 12.0779 32.51C12.0514 32.4649 12.0362 32.4141 12.0336 32.3618V30.2549L10.3863 29.284V35.1096C10.3851 35.1622 10.3983 35.2142 10.4246 35.2598C10.4508 35.3055 10.4891 35.3431 10.5352 35.3685L15.5613 38.2813L15.5646 38.2715ZM12.6518 30.6012L13.3735 31.0155V32.6078L12.6518 32.1903V30.6012Z" fill="black"/>
<rect x="-1.33008" y="48.457" width="72.1777" height="3" transform="rotate(-45 -1.33008 48.457)" fill="#FF0A19"/>
</g>
<path d="M2.25 24C2.25 11.5736 12.3236 1.5 24.75 1.5C37.1764 1.5 47.25 11.5736 47.25 24C47.25 36.4264 37.1764 46.5 24.75 46.5C12.3236 46.5 2.25 36.4264 2.25 24Z" stroke="#FF0A19" stroke-width="3"/>
<defs>
<clipPath id="clip0_4866_14227">
<path d="M0.75 24C0.75 10.7452 11.4952 0 24.75 0C38.0048 0 48.75 10.7452 48.75 24C48.75 37.2548 38.0048 48 24.75 48C11.4952 48 0.75 37.2548 0.75 24Z" fill="white"/>
</clipPath>
</defs>
</svg>
