<svg width="49" height="48" viewBox="0 0 49 48" fill="none" xmlns="http://www.w3.org/2000/svg">
<g clip-path="url(#clip0_4866_14148)">
<path d="M38.4618 32.6758C37.0782 31.7283 35.8654 30.8632 35.0623 29.9639C35.7486 29.49 35.7694 28.8779 35.6484 28.4253C35.6262 28.3414 35.5613 28.2755 35.4779 28.2515C35.3945 28.2281 35.3046 28.2496 35.2412 28.309C34.9241 28.6069 34.5975 28.6713 34.1952 28.5178C34.1819 28.469 34.1669 28.4194 34.1567 28.372C34.0854 28.0104 33.8687 27.6836 33.5627 27.4756L32.554 26.785L32.5535 26.7845L30.528 25.396L30.9468 24.7827C30.9836 24.7286 30.9976 24.6622 30.9853 24.5978C30.9732 24.5334 30.9362 24.4766 30.8819 24.4396L30.7138 24.3246L31.201 23.6146L31.4436 24.006C31.4441 24.0067 31.4448 24.0072 31.4451 24.008C31.4463 24.0099 31.4481 24.0114 31.4493 24.0131C31.4648 24.0363 31.4843 24.0553 31.5061 24.0719C31.509 24.0741 31.5105 24.0776 31.5137 24.0798L32.3676 24.6647C32.4103 24.6938 32.459 24.7079 32.5068 24.7079C32.5853 24.7079 32.6628 24.6704 32.7107 24.6005L34.1841 22.4509C34.2209 22.3968 34.235 22.3304 34.2231 22.266C34.211 22.2016 34.174 22.1448 34.12 22.1076L33.266 21.5226C33.2628 21.5204 33.2589 21.5202 33.2554 21.5182C33.2329 21.5044 33.2088 21.4933 33.1824 21.4871C33.1794 21.4864 33.1767 21.4849 33.1737 21.4844C33.1732 21.4844 33.1727 21.4839 33.1722 21.4839L31.5845 21.1848L28.3188 18.9482L27.4673 17.5755C27.4668 17.575 27.4663 17.5745 27.4661 17.5738C27.4649 17.5718 27.4629 17.5703 27.4617 17.5683C27.4461 17.5451 27.4266 17.5261 27.4049 17.5096C27.4019 17.5074 27.4004 17.5039 27.3975 17.5019L26.5435 16.917C26.4308 16.84 26.2775 16.8691 26.2002 16.9812L24.7268 19.1308C24.69 19.1849 24.676 19.2513 24.6878 19.3157C24.6999 19.3801 24.7369 19.4369 24.791 19.4742L25.6449 20.0591C25.6496 20.0623 25.655 20.0633 25.6597 20.0662C25.6723 20.0736 25.6852 20.0798 25.699 20.085C25.7076 20.0882 25.7163 20.0912 25.7251 20.0934C25.7298 20.0946 25.734 20.0968 25.739 20.0978L26.1941 20.1835L25.7064 20.896L25.5371 20.78C25.483 20.7427 25.4166 20.7296 25.3517 20.7405C25.2873 20.7526 25.2303 20.7899 25.193 20.8442L24.7747 21.4567L13.7884 13.9356C13.6764 13.8583 13.5226 13.8872 13.4456 13.9998L12.9273 14.7552C12.8505 14.8668 12.8784 15.0193 12.9893 15.0971L21.272 20.897L20.9766 22.3178C20.9564 22.4153 20.9968 22.5153 21.0788 22.5716L26.5709 26.3326L26.0741 27.4023C25.9557 27.6565 25.9473 27.9401 26.0512 28.1999C26.1551 28.4598 26.3557 28.6597 26.6166 28.7624L28.5098 29.5127C28.6113 29.5529 28.7169 29.5722 28.8216 29.5722C29.0434 29.5722 29.2609 29.4848 29.4233 29.3204L29.6767 29.0625C29.6864 29.1151 29.6967 29.1674 29.7059 29.2195C29.7851 29.6734 29.867 30.1428 30.2412 30.3721C30.5526 30.5629 30.8214 30.5211 31.0581 30.4839C31.359 30.4362 31.6191 30.396 32.0888 30.8146C32.5286 31.209 33.4667 33.509 34.6622 37.1244C34.7932 37.5235 35.1331 37.8081 35.5497 37.8671C35.6025 37.8745 35.6551 37.8784 35.7072 37.8784C36.067 37.8784 36.4037 37.7029 36.611 37.3996L38.7606 34.26C38.9327 34.0085 38.9963 33.7052 38.9396 33.4058C38.8826 33.1072 38.713 32.8478 38.4618 32.6758ZM27.3437 27.6202L27.6263 27.055L28.21 27.4548C28.1537 27.639 28.0562 27.7782 27.9136 27.8808L27.3437 27.6202ZM28.6325 27.7441L28.921 27.9415L28.6895 28.2352L28.4059 28.1057C28.5002 28.0013 28.5752 27.8801 28.6325 27.7441ZM35.2069 28.9384C35.1805 29.1484 35.0633 29.376 34.7451 29.5835C34.6173 29.4132 34.5094 29.2464 34.4221 29.0823C34.6987 29.1153 34.9608 29.068 35.2069 28.9384ZM26.4589 22.6101L26.8792 21.9992C26.9162 21.9452 26.9303 21.8788 26.9184 21.8144C26.9063 21.7497 26.8693 21.6927 26.815 21.6557L26.7373 21.6026L27.4876 20.507L30.4317 22.5232L29.6819 23.618L29.6066 23.5664C29.5526 23.5292 29.4862 23.5156 29.4218 23.5269C29.3571 23.539 29.3001 23.5761 29.2628 23.6301L28.8423 24.2434L26.4589 22.6101ZM30.3068 24.0457L30.0896 23.8969L30.7649 22.9107L30.9172 23.156L30.3068 24.0457ZM32.4434 24.1178L31.9967 23.8118L33.191 22.0693L33.6377 22.3753L32.4434 24.1178ZM26.468 17.4637L26.9147 17.7697L25.7204 19.5122L25.2737 19.2061L26.468 17.4637ZM26.7237 20.2832L27.0058 20.3362L26.3298 21.3235L26.1131 21.1749L26.7237 20.2832ZM13.7134 14.4823L24.6994 22.0034L24.6999 22.0039L25.9759 22.8776L28.7675 24.7903L28.7682 24.7908L30.0452 25.6635L30.0457 25.664L32.053 27.04C31.6714 27.4191 31.2459 27.2727 30.9414 27.0649L13.4727 14.8327L13.7134 14.4823Z" fill="black"/>
<path d="M18.1236 27.7487C18.2892 27.8326 18.4684 27.8748 18.6488 27.8748C18.7715 27.8748 18.8946 27.8553 19.0146 27.8158C19.3105 27.7181 19.5509 27.5112 19.6915 27.2328C19.9813 26.6595 19.751 25.9559 19.1779 25.6646C18.6021 25.3737 17.8975 25.6044 17.6073 26.1785C17.4666 26.4569 17.4429 26.7738 17.5404 27.0704C17.6381 27.3671 17.8452 27.608 18.1236 27.7487Z" fill="black"/>
<path d="M25.5471 28.1107L20.0268 25.3199C19.8829 25.1767 19.7188 25.0533 19.5325 24.959C19.065 24.7228 18.5339 24.6826 18.0363 24.8462C17.54 25.0096 17.1375 25.3566 16.904 25.8214C16.8285 25.968 16.7776 26.1272 16.7423 26.291C16.5755 26.4088 16.4111 26.5386 16.2482 26.6775L15.7929 25.5997L16.7722 25.1871C16.8324 25.1614 16.8803 25.113 16.905 25.0526C16.9297 24.9919 16.9292 24.924 16.9035 24.8633L16.5185 23.9528C16.4654 23.8274 16.32 23.7692 16.1954 23.8215L15.2158 24.2347L11.2667 14.8805C11.2655 14.8775 11.2628 14.8756 11.2613 14.8726C11.2546 14.858 11.2438 14.8459 11.2341 14.8329C11.224 14.8193 11.2151 14.805 11.2028 14.7939C11.2003 14.7916 11.1996 14.7887 11.1971 14.7867C11.188 14.7791 11.1769 14.7766 11.167 14.7704C11.1519 14.761 11.1376 14.7514 11.1211 14.7455C11.106 14.7401 11.0907 14.7388 11.0749 14.7364C11.0594 14.7344 11.0446 14.7312 11.0285 14.7319C11.0108 14.7327 10.9945 14.7378 10.9772 14.7423C10.9659 14.7452 10.9545 14.7445 10.9434 14.7492C10.9387 14.7512 10.9345 14.7541 10.9298 14.7561C10.9276 14.7571 10.9256 14.7581 10.9234 14.7593C9.10692 15.5444 8.84555 18.0781 9.64964 19.9862L12.014 25.5852L11.035 25.9981C10.9093 26.0511 10.8503 26.1955 10.9032 26.3211L11.2857 27.2319C11.3111 27.2923 11.3595 27.3402 11.42 27.3649C11.4498 27.3772 11.4817 27.3832 11.5133 27.3832C11.5458 27.3832 11.5784 27.3767 11.609 27.3639L12.5891 26.9512L13.8263 29.8806C12.9672 31.6102 12.7182 32.5819 12.6476 33.0083C12.6007 33.2833 12.6881 33.557 12.8769 33.7354C12.8843 33.7428 12.8941 33.7512 12.9038 33.7589C13.0526 33.8924 13.2399 33.9627 13.4344 33.9627C13.5154 33.9627 13.5973 33.9504 13.6785 33.9257C13.9677 33.8373 14.1894 33.6004 14.2563 33.3094C14.3787 32.7934 14.5391 32.2674 14.7321 31.7407C14.8437 31.8496 14.9722 31.9394 15.1137 32.0065C14.6825 32.7776 14.4532 33.8112 14.7758 34.5287C14.5134 34.7434 14.1805 35.2414 14.3698 36.3592C14.5719 37.55 15.7998 38.31 16.072 38.4652C16.3509 38.8907 16.9277 39.197 17.464 39.197C17.4813 39.197 17.4983 39.1947 17.5156 39.194C17.7118 39.2811 18.3878 39.5551 19.1388 39.5551C19.4972 39.5551 19.8726 39.4924 20.2206 39.3174C21.2325 38.8078 21.4356 38.2436 21.4526 37.9047C21.8825 37.8121 22.326 37.5118 22.7187 37.0421C23.2602 36.3947 23.581 35.5862 23.5662 34.9393C24.1605 34.3514 24.4404 33.1702 23.9745 32.4377C24.0771 31.8533 23.99 31.2943 23.7143 30.772L24.0364 30.1363C24.0586 30.0926 24.0673 30.0435 24.0616 29.9951L24.0236 29.6794C24.1023 29.6927 24.181 29.7019 24.259 29.7019C24.7077 29.7019 25.128 29.4847 25.3228 29.1019L25.6559 28.4429C25.7174 28.3205 25.6688 28.1722 25.5471 28.1107ZM21.9203 28.6892C21.9203 28.6892 21.9205 28.6892 21.9208 28.6892L23.5036 29.4884L23.5625 29.9788L23.3278 30.4425L19.6759 28.5967L19.8526 28.2462C19.9375 28.1796 20.0155 28.1085 20.0846 28.0335L20.3405 27.8896L21.9203 28.6892ZM15.6895 32.0105C15.7956 31.8525 15.9106 31.7193 16.0291 31.6087C16.2867 32.031 16.8926 32.4081 17.5131 32.5962C16.7843 33.3753 16.4467 34.2396 16.5017 35.1728C16.0259 35.1491 15.6258 34.9159 15.319 34.4845C15.3094 34.4689 15.2988 34.4544 15.28 34.4287C14.9555 33.902 15.1388 32.8178 15.6895 32.0105ZM13.044 26.7595L14.2281 26.2599C14.1879 26.3145 14.1479 26.3698 14.1077 26.4253C13.8772 26.7439 13.6385 27.0709 13.3019 27.3701L13.044 26.7595ZM13.5033 27.8469C13.9512 27.4816 14.2459 27.0769 14.5075 26.7146C14.7713 26.3498 15.0065 26.0282 15.3476 25.8132L15.7793 26.8352C14.9012 26.9076 14.1129 27.5507 13.6343 28.1576L13.5033 27.8469ZM23.2592 30.9616C23.4638 31.3308 23.5502 31.7119 23.5211 32.1176L22.3014 31.5013L22.4744 30.565L23.2592 30.9616ZM21.7739 31.7876C21.754 32.5764 21.5259 33.2581 21.0945 33.8183C19.9478 33.7354 19.0245 33.268 18.2799 32.3938C18.4764 31.7156 18.8908 31.1289 19.5137 30.6457L21.7739 31.7876ZM19.4318 30.0511L18.2133 29.4348C18.5215 29.17 18.8797 29.0135 19.2992 28.9597L20.0833 29.3561L19.4318 30.0511ZM17.6864 29.2603C17.5795 29.2685 17.4714 29.2897 17.3638 29.3233L16.919 28.2726C17.0121 28.1902 17.1086 28.109 17.2088 28.0288C17.3663 28.2003 17.5543 28.3449 17.7643 28.4523C18.0114 28.5777 18.2757 28.6441 18.5408 28.6589C18.2222 28.7949 17.9369 28.996 17.6864 29.2603ZM15.5152 27.3817C15.0001 27.9404 14.5285 28.5925 14.1235 29.3149L13.8587 28.688C14.181 28.1991 14.8079 27.5749 15.5152 27.3817ZM16.5377 28.6384L16.919 29.539C16.8697 29.5718 16.8228 29.6093 16.7756 29.6473C16.4378 29.5637 16.0974 29.5444 15.7576 29.5901C15.9785 29.2576 16.2413 28.9405 16.5377 28.6384ZM17.344 26.0455C17.5195 25.6967 17.8204 25.4373 18.1911 25.3152C18.3414 25.2656 18.4959 25.2409 18.6499 25.2409C18.8765 25.2409 19.1013 25.2942 19.3096 25.3996C19.4624 25.4771 19.5974 25.5773 19.7109 25.6972C19.7158 25.7024 19.7208 25.7071 19.726 25.7118C19.7262 25.712 19.7264 25.7123 19.7267 25.7125C20.1403 26.1592 20.2329 26.8231 19.956 27.3666C19.9009 27.4764 19.8316 27.5791 19.7487 27.6729C19.6798 27.7519 19.6016 27.823 19.5105 27.8898C19.063 28.2154 18.4801 28.2625 17.9884 28.0127C17.772 27.9024 17.5859 27.7403 17.4492 27.5431C17.2303 27.2299 17.1434 26.8515 17.2046 26.4766C17.2288 26.3216 17.2739 26.181 17.344 26.0455ZM12.5415 23.6159C12.5089 23.5295 12.5491 23.4382 12.6483 23.2546L12.9257 23.9121C12.7498 23.8245 12.5837 23.727 12.5415 23.6159ZM13.8416 24.8144L12.7873 22.314C12.7873 22.314 12.7873 22.314 12.7873 22.3138C12.7868 22.3125 12.7865 22.3113 12.786 22.3101C12.7858 22.3093 12.7853 22.3086 12.7851 22.3078C12.7836 22.3034 12.7818 22.2992 12.7799 22.295C12.7799 22.2948 12.7799 22.2945 12.7796 22.2943L12.2046 20.9341C12.1515 20.8085 12.0061 20.75 11.881 20.8031C11.7554 20.8561 11.6969 21.001 11.75 21.1266L11.9486 21.5966C11.7263 21.4645 11.5315 21.3095 11.4373 21.0119C11.3205 20.6486 11.4491 20.3968 11.5851 20.1303C11.708 19.8892 11.8474 19.6164 11.7295 19.3042C11.6093 18.9871 11.3045 18.8128 11.0357 18.6591C10.8906 18.5759 10.6712 18.4505 10.6662 18.375C10.662 18.3054 10.662 18.3054 10.7576 18.2324C10.8871 18.1334 11.0828 17.9836 11.1628 17.5998C11.2489 17.1765 11.0759 16.9685 10.937 16.8014C10.8365 16.6804 10.7497 16.5758 10.7186 16.3561C10.6805 16.0869 10.8304 15.748 10.9863 15.4854L14.7617 24.4264L13.8416 24.8144ZM11.4538 26.3574L12.4314 25.945C12.4321 25.9448 12.4329 25.9448 12.4339 25.9445C12.4348 25.9443 12.4351 25.9435 12.4358 25.9433L16.1604 24.3721L16.3531 24.828L15.3738 25.2406C15.3726 25.2411 15.3718 25.2421 15.3708 25.2426C15.3703 25.2429 15.3696 25.2426 15.3691 25.2429L12.6246 26.4004C12.6244 26.4004 12.6244 26.4006 12.6241 26.4006L11.6453 26.8128L11.4538 26.3574ZM14.9394 31.2076C15.0905 30.8448 15.244 30.5057 15.4096 30.1804C15.4111 30.1777 15.413 30.1743 15.4143 30.1713C15.7314 30.0701 16.0429 30.0366 16.3556 30.0714C16.1248 30.3722 15.9696 30.7209 15.9175 31.0657C15.7317 31.196 15.5537 31.3713 15.3916 31.584C15.2037 31.5112 15.0475 31.3807 14.9394 31.2076ZM16.4654 38.1715C16.0895 37.377 16.1932 36.6028 16.7722 35.8128C17.4201 36.5811 18.2466 36.9987 19.236 37.0596C18.9436 37.9935 18.3838 38.5353 17.5405 38.7006C17.1488 38.7456 16.6448 38.4896 16.4654 38.1715ZM22.3404 36.725C21.9847 37.1507 21.5827 37.4106 21.2337 37.4395C21.2211 37.4407 21.2088 37.4407 21.1949 37.4407C21.1902 37.4405 21.1853 37.4405 21.1806 37.4407C20.647 37.4563 20.2156 37.2699 19.9118 36.8975C20.6991 36.3883 21.1947 35.604 21.3872 34.5558C21.8675 34.9174 22.4608 35.1701 22.9426 35.1701C22.9838 35.1701 23.0235 35.1669 23.063 35.1632C23.0053 35.6531 22.7355 36.2528 22.3404 36.725ZM24.8825 28.878C24.7201 29.1984 24.2353 29.3063 23.8446 29.1081C23.8444 29.1081 23.8444 29.1078 23.8441 29.1078L22.1439 28.2492L21.7019 28.0256L21.9588 27.5167C22.0064 27.4221 21.9887 27.3076 21.9144 27.2324L21.1214 26.4265L25.1036 28.4397L24.8825 28.878Z" fill="black"/>
<path d="M21.3174 15.6839C21.3433 15.7439 21.3924 15.7915 21.4534 15.8154C21.4825 15.8268 21.5133 15.8325 21.5439 15.8325C21.5775 15.8325 21.6108 15.8258 21.6422 15.812L22.1933 15.5723L22.3071 15.8344C22.333 15.8944 22.3821 15.9418 22.4431 15.9657C22.4722 15.9771 22.5028 15.9828 22.5334 15.9828C22.5672 15.9828 22.6005 15.9759 22.6319 15.9623L22.9438 15.8268L23.6741 16.4014C23.7454 16.4571 23.8422 16.4697 23.9249 16.4337L29.1828 14.1532C29.342 14.0831 29.5325 14.1473 29.6147 14.2966C29.8366 14.7048 30.2211 15.2263 30.7935 15.3912C31.6003 15.6202 32.6781 14.9304 33.0505 14.6656C33.6223 14.9778 34.2497 16.0578 34.7157 16.8599C35.1167 17.5502 35.3549 17.9491 35.5852 18.1154C35.8436 18.303 36.119 18.397 36.4135 18.397C36.9794 18.397 37.6156 18.0503 38.3375 17.3528C39.5898 16.1427 39.3719 15.2848 38.9686 14.7781C38.8499 14.6288 38.5111 14.3526 37.9224 13.8775C37.1447 13.2497 35.6972 12.0813 35.5847 11.6876C35.4921 11.3643 35.6042 11.0578 35.7143 10.8576C35.8707 10.5731 35.8505 10.2332 35.6666 9.97825L35.6471 9.94913C35.442 9.66185 35.0713 9.53771 34.7228 9.63816C34.3487 9.74798 34.0473 9.76674 33.8388 9.74453C34.0752 9.59102 34.2273 9.34446 34.2273 9.09272C34.2273 9.01127 34.2095 8.92588 34.1747 8.84369C34.0192 8.48755 33.5542 8.34391 33.1393 8.52334L32.8382 8.65414L29.5681 10.0733L23.4947 12.7084H23.4944L23.3821 12.757C23.2578 12.7092 23.1526 12.6238 23.0655 12.493C22.9201 12.2733 22.6536 12.1827 22.431 12.279L22.2027 12.3772C21.9729 12.4747 21.8347 12.7193 21.85 12.9994L21.8712 13.413L21.582 13.5379C21.4566 13.592 21.3991 13.7371 21.4531 13.862L21.4793 13.9224L20.9274 14.1623C20.8025 14.2166 20.7453 14.3618 20.7991 14.4866L21.3174 15.6839ZM22.5558 15.1681C22.5536 15.1617 22.5529 15.1552 22.5502 15.1488L22.0297 13.9528L22.0294 13.9523L22.0042 13.8931L22.2241 13.7981C22.2273 13.7966 22.2293 13.7936 22.2325 13.7921L23.5579 13.2188L24.3388 13.8126C24.3827 13.8459 24.4353 13.863 24.4881 13.863C24.5214 13.863 24.5547 13.8563 24.5858 13.8427L29.6478 11.6536C29.73 11.618 29.7865 11.541 29.7956 11.4524L29.8971 10.4682L32.8081 9.20477L32.9913 9.62828C32.9039 9.70356 32.838 9.79661 32.7946 9.90619C32.6694 10.2223 32.7662 10.618 32.8999 10.9689L22.8816 15.3152L22.6612 15.4114L22.5558 15.1681ZM31.0506 13.3422C31.3295 13.4841 31.4899 13.7001 31.5423 14.0103C31.1247 14.0878 30.7981 13.7638 30.6222 13.5276L31.0506 13.3422ZM31.5832 13.1117L32.0759 12.8985C32.1353 13.1329 32.1783 13.4928 31.9875 13.748C31.9127 13.4935 31.7755 13.281 31.5832 13.1117ZM34.3075 12.4461L37.6761 15.6074C37.7561 15.6832 37.7721 15.8036 37.7126 15.8966C37.3054 16.5452 36.8782 16.9312 36.5677 16.931C36.5655 16.931 36.5633 16.931 36.561 16.931C36.2757 16.9261 36.1247 16.6092 35.8831 16.0499C35.7301 15.696 35.5568 15.2949 35.2865 14.9163C34.77 14.1959 34.1169 13.606 33.7739 13.3188C33.7063 13.262 33.668 13.1798 33.6692 13.0942C33.6692 13.0929 33.6692 13.0917 33.6692 13.0905V12.9059C33.6705 12.7955 33.7373 12.6931 33.8368 12.6504L34.3075 12.4461ZM34.8418 10.117L33.356 10.77C33.2388 10.4526 33.2013 10.2204 33.2539 10.0878C33.2571 10.0797 33.2615 10.0708 33.2662 10.0622C33.6218 10.329 34.2924 10.2744 34.8418 10.117Z" fill="black"/>
<rect x="-1.83008" y="48.457" width="72.1777" height="3" transform="rotate(-45 -1.83008 48.457)" fill="#FF0A19"/>
</g>
<path d="M1.75 24C1.75 11.5736 11.8236 1.5 24.25 1.5C36.6764 1.5 46.75 11.5736 46.75 24C46.75 36.4264 36.6764 46.5 24.25 46.5C11.8236 46.5 1.75 36.4264 1.75 24Z" stroke="#FF0A19" stroke-width="3"/>
<defs>
<clipPath id="clip0_4866_14148">
<path d="M0.25 24C0.25 10.7452 10.9952 0 24.25 0C37.5048 0 48.25 10.7452 48.25 24C48.25 37.2548 37.5048 48 24.25 48C10.9952 48 0.25 37.2548 0.25 24Z" fill="white"/>
</clipPath>
</defs>
</svg>
