<svg width="49" height="48" viewBox="0 0 49 48" fill="none" xmlns="http://www.w3.org/2000/svg">
<g clip-path="url(#clip0_4866_14233)">
<path d="M16.6291 25.5058H14.9217V24.1701H16.6291V25.5058ZM17.3304 28.816H19.0378V27.4803H17.3304V28.816ZM28.1845 12.6931C29.6813 12.6931 30.8937 11.4808 30.8937 9.98386C30.8937 8.48701 29.6799 7.27467 28.1845 7.27467C26.6876 7.27467 25.4753 8.48697 25.4753 9.98386C25.4738 11.4807 26.6876 12.6931 28.1845 12.6931ZM31.4221 12.9965H25.1151C24.3631 12.9965 23.6821 13.4422 23.3801 14.1304L22.1707 16.8861H18.1912C17.6656 16.8861 17.1792 17.2447 17.095 17.763C16.9876 18.4236 17.4943 18.9942 18.1346 18.9942H22.859C23.2771 18.9942 23.656 18.7474 23.8245 18.3641L25.1094 15.4357C25.1239 15.4023 25.1747 15.4124 25.1747 15.4502V28.4749L25.1732 39.4598C25.1732 40.1596 25.7743 40.7258 26.5162 40.7258C27.2581 40.7258 27.8592 40.1596 27.8592 39.4598V28.4734H28.5082V39.4598C28.5082 40.1596 29.1093 40.7258 29.8512 40.7258C30.5931 40.7258 31.1941 40.1596 31.1941 39.4598V15.4487H31.47V25.6118C31.47 26.136 31.8286 26.6224 32.3469 26.7065C33.0075 26.814 33.5767 26.3073 33.5767 25.667L33.5781 15.1511C33.5781 13.9635 32.6097 12.9965 31.4221 12.9965ZM19.0378 20.8582H17.3304V22.1939H19.0378V20.8582Z" fill="black"/>
<rect x="-1.83008" y="48.457" width="72.1777" height="3" transform="rotate(-45 -1.83008 48.457)" fill="#FF0A19"/>
</g>
<path d="M1.75 24C1.75 11.5736 11.8236 1.5 24.25 1.5C36.6764 1.5 46.75 11.5736 46.75 24C46.75 36.4264 36.6764 46.5 24.25 46.5C11.8236 46.5 1.75 36.4264 1.75 24Z" stroke="#FF0A19" stroke-width="3"/>
<defs>
<clipPath id="clip0_4866_14233">
<path d="M0.25 24C0.25 10.7452 10.9952 0 24.25 0C37.5048 0 48.25 10.7452 48.25 24C48.25 37.2548 37.5048 48 24.25 48C10.9952 48 0.25 37.2548 0.25 24Z" fill="white"/>
</clipPath>
</defs>
</svg>
