<svg width="49" height="48" viewBox="0 0 49 48" fill="none" xmlns="http://www.w3.org/2000/svg">
<g clip-path="url(#clip0_4866_14238)">
<path d="M37.1318 14.0664C37.2154 13.5348 37.6084 13.2541 37.6311 13.2374C37.8485 13.0917 37.907 12.7966 37.7625 12.5781C37.6167 12.3583 37.3205 12.2974 37.1007 12.4419C37.0708 12.4622 36.3506 12.946 36.1917 13.8932C36.0627 14.66 36.3291 15.4842 36.9848 16.3383C37.4686 16.969 37.6729 17.5376 37.5964 18.0297C37.5128 18.566 37.1139 18.8467 37.1019 18.8562C36.8821 19.002 36.8212 19.2982 36.9657 19.518C37.0577 19.6577 37.2094 19.733 37.3647 19.733C37.4555 19.733 37.5462 19.7079 37.6275 19.6542C37.6573 19.6339 38.3776 19.1501 38.5365 18.2029C38.6655 17.436 38.3991 16.613 37.7433 15.7578C37.2596 15.1271 37.0541 14.5585 37.1318 14.0664Z" fill="black"/>
<path d="M34.2435 12.185C34.4609 12.0393 34.5206 11.7442 34.3761 11.5257C34.2304 11.3059 33.9341 11.2438 33.7143 11.3895C33.6845 11.4098 32.9642 11.8936 32.8053 12.8408C32.6763 13.6076 32.9427 14.4318 33.5985 15.2859C34.0822 15.9166 34.2877 16.4852 34.2101 16.9773C34.1253 17.5136 33.7275 17.7943 33.7143 17.8026C33.4946 17.9484 33.4336 18.2446 33.5782 18.4644C33.6702 18.6042 33.8219 18.6794 33.9771 18.6794C34.0667 18.6794 34.1587 18.6543 34.2399 18.6006C34.2698 18.5803 34.9901 18.0965 35.1489 17.1493C35.2779 16.3824 35.0116 15.5582 34.3558 14.7042C33.872 14.0735 33.6678 13.5049 33.7442 13.0128C33.8278 12.4824 34.2184 12.2018 34.2423 12.185L34.2435 12.185Z" fill="black"/>
<path d="M21.4733 28.6916C22.1314 28.6916 22.8661 27.2737 22.8661 25.3756C22.8661 23.4775 22.1303 22.0597 21.4733 22.0597H13.8323C14.3471 22.8313 14.6648 24.0091 14.6648 25.3756C14.6648 26.7422 14.3471 27.9211 13.8323 28.6916H21.4745H21.4733Z" fill="black"/>
<path d="M12.32 22.0597C12.32 22.0597 12.3165 22.0585 12.3153 22.0585C11.6607 22.0645 10.9297 23.4799 10.9297 25.3757C10.9297 27.2701 11.6607 28.6892 12.3165 28.6928C12.3177 28.6928 12.3189 28.6916 12.3213 28.6916H12.3284C12.9818 28.6797 13.7092 27.2654 13.7092 25.3757C13.7092 23.486 12.9854 22.0778 12.332 22.0597L12.32 22.0597Z" fill="black"/>
<path d="M34.9614 28.6914C34.8563 28.5982 34.7608 28.4979 34.6903 28.3808C34.547 28.1467 34.4968 27.9018 34.4514 27.6856C34.4263 27.5674 34.4036 27.4563 34.3678 27.3679C34.3045 27.2042 34.1743 27.0406 34.0357 26.8662C33.9808 26.7981 33.927 26.73 33.8757 26.6608C33.5412 26.214 33.4026 25.8019 33.4528 25.3982C33.4815 25.1844 33.5579 25.01 33.6248 24.8571C33.675 24.7424 33.7228 24.6349 33.724 24.5633C33.724 24.4832 33.6547 24.353 33.5806 24.2145C33.497 24.058 33.4027 23.8812 33.3537 23.6698C33.2701 23.2947 33.3417 22.8827 33.5627 22.4395C33.6177 22.3248 33.6834 22.2078 33.7502 22.0907C33.7562 22.08 33.7622 22.0692 33.7682 22.0585H22.9892C23.5052 22.8289 23.8229 24.0079 23.8229 25.3744C23.8229 26.741 23.5052 27.9199 22.9892 28.6904H34.9638L34.9614 28.6914Z" fill="black"/>
<path d="M35.8205 25.6635C35.8826 25.5667 35.9865 25.4055 35.9841 25.3529C35.9722 25.3171 35.873 25.2323 35.8133 25.1821C35.7201 25.1033 35.6282 25.022 35.5529 24.9324C35.4741 24.8441 35.4072 24.7294 35.3666 24.6111C35.3283 24.5227 35.3045 24.3997 35.3045 24.2671C35.3021 24.1739 35.314 24.0629 35.3307 23.9506C35.3391 23.8873 35.351 23.8239 35.3475 23.763C35.3451 23.7176 35.3475 23.6651 35.351 23.5958C35.3642 23.3629 35.394 22.817 35.1384 22.5351C35.0775 22.4682 34.964 22.4228 34.7992 22.3619C34.7669 22.3511 34.7418 22.3368 34.712 22.3237C34.669 22.4049 34.626 22.4837 34.5818 22.5614C34.5256 22.6605 34.4695 22.7596 34.4193 22.8612C34.2951 23.1084 34.2521 23.3079 34.2856 23.4584C34.3047 23.542 34.3632 23.6495 34.4241 23.7642C34.5388 23.978 34.6797 24.2444 34.6797 24.5717C34.675 24.844 34.5782 25.0638 34.5006 25.2418C34.4552 25.3469 34.411 25.4448 34.4014 25.5213C34.3835 25.6622 34.4623 25.8497 34.6415 26.0887C34.6881 26.1508 34.7359 26.2117 34.7848 26.2714C34.9533 26.4828 35.1432 26.7229 35.2591 27.0203C35.3236 27.1828 35.357 27.3464 35.3869 27.4898C35.4203 27.6499 35.449 27.7884 35.5063 27.8828C35.5708 27.9903 35.7046 28.0751 35.8671 28.1253C35.8479 28.0679 35.8288 28.0094 35.8121 27.9509L35.6222 27.3501C35.5338 27.0646 35.4132 26.6728 35.5242 26.2607C35.5875 26.0266 35.7118 25.8331 35.8205 25.6635Z" fill="black"/>
<rect x="-1.33008" y="48.457" width="72.1777" height="3" transform="rotate(-45 -1.33008 48.457)" fill="#FF0A19"/>
</g>
<path d="M2.25 24C2.25 11.5736 12.3236 1.5 24.75 1.5C37.1764 1.5 47.25 11.5736 47.25 24C47.25 36.4264 37.1764 46.5 24.75 46.5C12.3236 46.5 2.25 36.4264 2.25 24Z" stroke="#FF0A19" stroke-width="3"/>
<defs>
<clipPath id="clip0_4866_14238">
<path d="M0.75 24C0.75 10.7452 11.4952 0 24.75 0C38.0048 0 48.75 10.7452 48.75 24C48.75 37.2548 38.0048 48 24.75 48C11.4952 48 0.75 37.2548 0.75 24Z" fill="white"/>
</clipPath>
</defs>
</svg>
