<svg width="48" height="48" viewBox="0 0 48 48" fill="none" xmlns="http://www.w3.org/2000/svg">
<g clip-path="url(#clip0_4935_27362)">
<path d="M27.2786 10.4375H21.4624C21.5592 12.3155 22.1119 20.3601 24.3697 24.6707C26.6259 20.3636 27.1782 12.3272 27.2786 10.4375Z" fill="black"/>
<path d="M28.8848 19.7277L30.24 19.351L29.1861 18.7339L28.8848 19.7277Z" fill="black"/>
<path d="M34.8597 14.6765C34.0374 16.2615 33.4742 17.968 33.1914 19.7311L36.9622 36.6069L39.2496 36.1147C37.8342 26.8577 35.9238 16.8703 34.8597 14.6765Z" fill="black"/>
<path d="M31.3054 25.4464L32.4109 19.6739C32.7118 17.7133 33.351 15.8198 34.3002 14.0779C32.9699 13.2609 30.4443 12.5786 30.4166 12.5712C30.3677 12.5582 30.3219 12.5358 30.2816 12.5052L28.0414 10.8057C27.8981 13.325 27.2478 21.5234 24.7109 25.6576C24.7062 25.665 24.693 25.6658 24.684 25.6697C24.6539 25.7167 24.614 25.7567 24.5669 25.7868C24.5232 25.8136 24.4746 25.8316 24.4239 25.8396C24.3733 25.8477 24.3215 25.8456 24.2716 25.8337C24.2217 25.8217 24.1747 25.8 24.1332 25.7699C24.0917 25.7397 24.0566 25.7017 24.0298 25.6579C21.4949 21.5269 20.843 13.3324 20.6989 10.8064L18.4591 12.506C18.4188 12.5365 18.373 12.5589 18.3241 12.572C18.2964 12.5794 15.7708 13.2617 14.4409 14.0787C15.3934 15.8282 16.0338 17.7303 16.3333 19.6997L17.4341 25.4464C17.4427 25.4935 17.4427 25.5417 17.4341 25.5889L16.0011 33.5488L22.1417 35.2933L23.9923 28.2459C23.9923 28.2405 24.0005 28.2381 24.0028 28.2334C24.0208 28.1698 24.0549 28.112 24.1018 28.0654C24.1487 28.0188 24.2069 27.9851 24.2706 27.9676C24.3707 27.9413 24.4772 27.9559 24.5665 28.0081C24.6559 28.0603 24.7209 28.1458 24.7472 28.2459L26.5979 35.2933L32.7384 33.5488L31.3047 25.5885C31.2964 25.5414 31.2967 25.4933 31.3054 25.4464ZM24.7601 26.9664C24.7601 27.0699 24.719 27.1692 24.6458 27.2424C24.5726 27.3156 24.4733 27.3567 24.3698 27.3567C24.2662 27.3567 24.167 27.3156 24.0937 27.2424C24.0205 27.1692 23.9794 27.0699 23.9794 26.9664V26.9055C23.9794 26.802 24.0205 26.7027 24.0937 26.6295C24.167 26.5563 24.2662 26.5151 24.3698 26.5151C24.4733 26.5151 24.5726 26.5563 24.6458 26.6295C24.719 26.7027 24.7601 26.802 24.7601 26.9055V26.9664ZM28.3056 20.6842C28.2447 20.6842 28.1846 20.6699 28.1301 20.6425C28.0757 20.6151 28.0284 20.5753 27.9921 20.5264C27.9558 20.4774 27.9315 20.4207 27.921 20.3606C27.9106 20.3006 27.9144 20.2389 27.9321 20.1806L28.5828 18.0337C28.5999 17.9772 28.6296 17.9253 28.6696 17.8819C28.7097 17.8385 28.7591 17.8048 28.814 17.7833C28.869 17.7618 28.9282 17.753 28.987 17.7576C29.0459 17.7622 29.1029 17.7802 29.1538 17.81L31.4307 19.1438C31.4969 19.1826 31.5501 19.24 31.5838 19.3089C31.6175 19.3777 31.6302 19.455 31.6203 19.531C31.6104 19.607 31.5783 19.6784 31.5281 19.7363C31.4779 19.7942 31.4117 19.8361 31.3378 19.8566L28.4102 20.6697C28.3762 20.6793 28.341 20.6842 28.3056 20.6842Z" fill="black"/>
<path d="M9.48975 36.1151L11.7772 36.6073L15.5479 19.7315C15.2637 17.9686 14.7004 16.2622 13.8792 14.6765C12.8155 16.8703 10.9051 26.8577 9.48975 36.1151Z" fill="black"/>
<rect x="-2.08008" y="48.457" width="72.1777" height="3" transform="rotate(-45 -2.08008 48.457)" fill="#DD8C00"/>
</g>
<path d="M1.5 24C1.5 11.5736 11.5736 1.5 24 1.5C36.4264 1.5 46.5 11.5736 46.5 24C46.5 36.4264 36.4264 46.5 24 46.5C11.5736 46.5 1.5 36.4264 1.5 24Z" stroke="#DD8C00" stroke-width="3"/>
<defs>
<clipPath id="clip0_4935_27362">
<path d="M0 24C0 10.7452 10.7452 0 24 0C37.2548 0 48 10.7452 48 24C48 37.2548 37.2548 48 24 48C10.7452 48 0 37.2548 0 24Z" fill="white"/>
</clipPath>
</defs>
</svg>
