<svg width="49" height="48" viewBox="0 0 49 48" fill="none" xmlns="http://www.w3.org/2000/svg">
<g clip-path="url(#clip0_4866_14210)">
<path d="M22.7755 23.948H15.0785C13.9298 23.9595 13.213 25.0356 13.3293 26.2407H24.5254C24.6408 25.0347 23.9266 23.9604 22.7762 23.948H22.7755Z" fill="black"/>
<path d="M13.3285 35.795C13.3285 36.7203 13.9299 37.4919 14.728 37.6676V36.177C14.8005 33.6503 18.1546 33.6522 18.2264 36.177V37.7058H19.6259V36.177C19.6976 33.6513 23.0534 33.6513 23.1244 36.177V37.6676C23.9225 37.4919 24.5239 36.7194 24.5239 35.795V33.1194H13.3277V35.795H13.3285Z" fill="black"/>
<path d="M13.3283 27.0051H24.5244V29.2978H13.3283V27.0051Z" fill="black"/>
<path d="M13.3283 30.0628H24.5244V32.3556H13.3283V30.0628Z" fill="black"/>
<path d="M16.4775 35.0313C15.9005 35.0313 15.4276 35.547 15.4276 36.1781V38.4709C15.4661 39.9815 17.4889 39.9825 17.5265 38.4709V36.1781C17.5265 35.5479 17.0544 35.0313 16.4766 35.0313H16.4775Z" fill="black"/>
<path d="M21.3759 35.0313C20.799 35.0313 20.326 35.547 20.326 36.1781V38.4709C20.3645 39.9815 22.3873 39.9825 22.4249 38.4709V36.1781C22.4249 35.5479 21.9529 35.0313 21.375 35.0313H21.3759Z" fill="black"/>
<path d="M17.1774 18.2145H20.6758C21.0622 18.2145 21.3752 18.6366 21.3752 18.9785V19.7424C21.3752 20.1645 21.0622 20.5063 20.6758 20.5063H17.1774C16.791 20.5063 16.4781 20.0842 16.4781 19.7424V18.9785C16.4781 18.5564 16.791 18.2145 17.1774 18.2145Z" fill="black"/>
<path d="M17.5269 21.2722H20.326V23.183H17.5269V21.2722Z" fill="black"/>
<path d="M26.0227 23.9563C26.0254 23.8843 26.0254 23.8136 26.0288 23.7412C26.0819 22.5688 26.2108 21.372 26.4099 20.1677L33.6818 15.5891C33.7176 15.7055 33.7531 15.8215 33.788 15.9378C33.8363 16.0998 33.8853 16.2621 33.9313 16.4241C33.9925 16.6405 34.05 16.8566 34.1069 17.0727C34.1393 17.1958 34.1741 17.3192 34.2049 17.442C34.2888 17.7751 34.3679 18.1075 34.4413 18.4393C34.4724 18.5806 34.4995 18.721 34.5286 18.8617C34.5631 19.0277 34.5975 19.1938 34.6297 19.3591L26.0041 24.7889C26.0062 24.5129 26.0122 24.2353 26.0227 23.9563ZM30.5912 8.39374C31.1414 9.35078 32.417 11.7366 33.4799 14.9483L26.5672 19.301C27.6095 13.9239 29.8174 9.74171 30.5912 8.39374ZM28.3474 39.6041C26.9449 36.6406 26.0582 31.3553 26.0028 25.5579L34.7504 20.0521C35.0321 21.7284 35.1816 23.3865 35.1816 24.9854C35.1816 28.3354 34.9097 31.5426 34.3929 34.3157C34.3852 34.3062 34.376 34.2981 34.3679 34.289C34.2655 34.1689 34.1579 34.0533 34.0446 33.943C34.025 33.9237 34.0051 33.9051 33.9851 33.8862C33.8776 33.7844 33.766 33.687 33.65 33.5947C33.6249 33.5747 33.5999 33.5551 33.5749 33.5355C33.4609 33.4479 33.3432 33.3654 33.2218 33.2873C33.1934 33.269 33.1654 33.2501 33.1366 33.2322C33.0159 33.1574 32.8914 33.0888 32.7643 33.0238C32.7332 33.0079 32.7027 32.991 32.6716 32.9758C32.5451 32.9143 32.415 32.8595 32.2831 32.8081C32.2489 32.7949 32.2158 32.7797 32.1816 32.7672C32.0514 32.7198 31.9178 32.6792 31.7826 32.642C31.745 32.6316 31.7082 32.6184 31.6703 32.6089C31.5347 32.5747 31.396 32.5487 31.2564 32.525C31.2185 32.5186 31.1813 32.5088 31.1431 32.5034C31.0683 32.4926 30.9916 32.4882 30.9158 32.4804V31.2352C30.9158 31.0557 30.7704 30.9102 30.5908 30.9102C30.4113 30.9102 30.2658 31.0557 30.2658 31.2352V32.7763V36.2856V38.0809C29.8746 38.2808 28.975 38.7989 28.3474 39.6041ZM32.8319 39.6041C32.206 38.7989 31.3067 38.2811 30.9158 38.0806V36.64C30.9293 36.6417 30.9429 36.642 30.9564 36.6434C30.998 36.6488 31.0389 36.6562 31.0802 36.6626C31.1627 36.6755 31.2452 36.6893 31.3267 36.7066C31.3757 36.7171 31.4248 36.7286 31.4735 36.7404C31.5479 36.7587 31.6219 36.7786 31.695 36.8006C31.7423 36.8148 31.7897 36.8287 31.8363 36.8442C31.9188 36.872 32.0003 36.9027 32.0815 36.9349C32.115 36.9481 32.1491 36.9602 32.1819 36.9741C32.2986 37.0238 32.4133 37.0779 32.5252 37.1371C32.5289 37.1391 32.5323 37.1415 32.536 37.1432C32.6473 37.2027 32.7562 37.267 32.8624 37.3356C32.8749 37.3437 32.8867 37.3522 32.8989 37.36C33.0027 37.4283 33.1045 37.5006 33.2029 37.5777C33.2056 37.5798 33.208 37.5818 33.2107 37.5838C33.3165 37.6674 33.4193 37.7553 33.5184 37.8486C33.305 38.5027 33.0754 39.0904 32.8319 39.6041ZM34.8948 38.5338C34.6354 38.0924 34.3091 37.7029 33.9408 37.361C33.8837 37.3079 33.8282 37.2527 33.7694 37.2024C33.7034 37.1462 33.6341 37.0945 33.5654 37.0421C33.4849 36.9802 33.4034 36.9203 33.3199 36.8632C33.2587 36.8216 33.1972 36.7807 33.1343 36.7418C33.0142 36.6674 32.8914 36.5984 32.766 36.5341C32.7335 36.5176 32.7024 36.4983 32.6696 36.4824C32.5059 36.4026 32.3375 36.3336 32.1661 36.2714C32.1231 36.2558 32.0795 36.243 32.0362 36.2284C31.8986 36.1828 31.7592 36.1425 31.6179 36.1084C31.5692 36.0965 31.5205 36.0843 31.4711 36.0739C31.2881 36.035 31.1032 36.0025 30.9155 35.9832V33.1277C31.0778 33.1466 31.2378 33.176 31.3953 33.2115C31.4346 33.2203 31.4728 33.2322 31.512 33.242C31.6331 33.2727 31.7528 33.3072 31.8705 33.3475C31.9084 33.3603 31.9459 33.3745 31.9834 33.3884C32.1072 33.4347 32.229 33.4855 32.3483 33.5423C32.373 33.5541 32.398 33.5649 32.4224 33.5771C32.8668 33.7979 33.2743 34.0898 33.628 34.4439C33.6398 34.456 33.6517 34.4682 33.6635 34.4804C33.7731 34.5926 33.8779 34.7103 33.9763 34.8344C33.9824 34.8422 33.9888 34.8497 33.9953 34.8574C34.1008 34.992 34.1999 35.1327 34.2912 35.2802C34.2939 35.2842 34.2979 35.2873 34.3006 35.2913C34.7277 35.9893 34.9729 36.8097 34.9729 37.6873C34.9733 37.9734 34.9469 38.2561 34.8948 38.5338Z" fill="black"/>
<rect x="-2.33008" y="48.457" width="72.1777" height="3" transform="rotate(-45 -2.33008 48.457)" fill="#FF0A19"/>
</g>
<path d="M1.75 24C1.75 11.5736 11.8236 1.5 24.25 1.5C36.6764 1.5 46.75 11.5736 46.75 24C46.75 36.4264 36.6764 46.5 24.25 46.5C11.8236 46.5 1.75 36.4264 1.75 24Z" stroke="#FF0A19" stroke-width="3"/>
<defs>
<clipPath id="clip0_4866_14210">
<path d="M0.25 24C0.25 10.7452 10.9952 0 24.25 0C37.5048 0 48.25 10.7452 48.25 24C48.25 37.2548 37.5048 48 24.25 48C10.9952 48 0.25 37.2548 0.25 24Z" fill="white"/>
</clipPath>
</defs>
</svg>
