<svg width="48" height="48" viewBox="0 0 48 48" fill="none" xmlns="http://www.w3.org/2000/svg">
<g clip-path="url(#clip0_4935_27356)">
<path fill-rule="evenodd" clip-rule="evenodd" d="M18.0287 34.2717C15.2094 32.3024 13.3629 29.0345 13.3629 25.3381C13.3629 19.3293 18.2412 14.451 24.25 14.451C30.2588 14.451 35.1371 19.3293 35.1371 25.3381C35.1371 28.2933 33.9569 30.975 32.0426 32.9373C31.5618 33.4312 31.034 33.8788 30.467 34.2743C29.8756 34.6871 29.7301 35.5023 30.1421 36.0937C30.5549 36.6851 31.3702 36.8305 31.9616 36.4177C32.6636 35.9282 33.3176 35.3726 33.9134 34.762C36.2868 32.3285 37.75 29.0023 37.75 25.3381C37.75 17.887 31.7011 11.8381 24.25 11.8381C16.7989 11.8381 10.75 17.887 10.75 25.3381C10.75 29.9203 13.038 33.9729 16.5332 36.4134C17.1246 36.8262 17.939 36.6816 18.3518 36.0902C18.7646 35.4997 18.6201 34.6845 18.0287 34.2717ZM21.4507 30.2591C19.7427 29.2836 18.5887 27.445 18.5887 25.3381C18.5887 22.214 21.1258 19.6768 24.25 19.6768C27.3742 19.6768 29.9113 22.214 29.9113 25.3381C29.9113 27.445 28.7573 29.2836 27.0493 30.2591C26.4231 30.6171 26.2045 31.4158 26.5616 32.042C26.9195 32.6682 27.7182 32.8859 28.3444 32.5288C30.8406 31.1039 32.5242 28.4161 32.5242 25.3381C32.5242 20.7717 28.8165 17.0639 24.25 17.0639C19.6835 17.0639 15.9758 20.7717 15.9758 25.3381C15.9758 28.4161 17.6594 31.1039 20.1556 32.5288C20.7818 32.8859 21.5805 32.6682 21.9385 32.042C22.2955 31.4158 22.0769 30.6171 21.4507 30.2591ZM24.25 22.7252C25.6923 22.7252 26.8629 23.8958 26.8629 25.3381C26.8629 26.7805 25.6923 27.951 24.25 27.951C22.8077 27.951 21.6371 26.7805 21.6371 25.3381C21.6371 23.8958 22.8077 22.7252 24.25 22.7252Z" fill="black"/>
<rect x="-2.08008" y="48.457" width="72.1777" height="3" transform="rotate(-45 -2.08008 48.457)" fill="#DD8C00"/>
</g>
<path d="M1.5 24C1.5 11.5736 11.5736 1.5 24 1.5C36.4264 1.5 46.5 11.5736 46.5 24C46.5 36.4264 36.4264 46.5 24 46.5C11.5736 46.5 1.5 36.4264 1.5 24Z" stroke="#DD8C00" stroke-width="3"/>
<defs>
<clipPath id="clip0_4935_27356">
<path d="M0 24C0 10.7452 10.7452 0 24 0C37.2548 0 48 10.7452 48 24C48 37.2548 37.2548 48 24 48C10.7452 48 0 37.2548 0 24Z" fill="white"/>
</clipPath>
</defs>
</svg>
