<svg xmlns="http://www.w3.org/2000/svg" version="1.1" xmlns:xlink="http://www.w3.org/1999/xlink" xmlns:svgjs="http://svgjs.com/svgjs" width="1000" height="1000"><rect width="1000" height="1000" rx="500" ry="500" fill="#0043de"></rect><g transform="matrix(2.6923076923076925,0,0,2.6923076923076925,149.99999354435846,150)"><svg xmlns="http://www.w3.org/2000/svg" version="1.1" xmlns:xlink="http://www.w3.org/1999/xlink" xmlns:svgjs="http://svgjs.com/svgjs" width="260" height="260"><svg width="260" height="260" viewBox="0 0 260 260" fill="none" xmlns="http://www.w3.org/2000/svg">
<path d="M174.859 222.475C181.084 216.959 186.745 210.824 191.748 204.164V204.104H191.793C191.978 203.858 192.164 203.609 192.344 203.36C194.474 200.484 196.477 197.511 198.35 194.451L201.557 188.895C203.231 185.808 204.78 182.643 206.193 179.403C206.315 179.126 206.435 178.847 206.555 178.565C209.8 170.975 212.307 162.989 213.987 154.701C214.646 151.443 215.181 148.138 215.575 144.792C216.157 139.943 216.453 135.008 216.453 130.002C216.453 124.995 216.157 120.06 215.575 115.212C215.181 111.865 214.646 108.56 213.987 105.302C212.307 97.0155 209.8 89.0288 206.553 81.4383C206.436 81.1569 206.317 80.8771 206.195 80.6007C204.782 77.3624 203.233 74.1956 201.558 71.1105C201.548 71.0938 201.541 71.0755 201.532 71.0606L198.368 65.5811C196.49 62.5076 194.482 59.5273 192.349 56.6419C192.166 56.3922 191.981 56.1458 191.796 55.8977H191.755V55.8411C186.75 49.1796 181.089 43.0442 174.866 37.5282C172.368 35.3172 169.779 33.2027 167.11 31.1981H167.055V31.1565C163.121 28.2029 159.005 25.4806 154.725 23.0081C150.739 20.7005 146.608 18.611 142.354 16.7562C142.048 16.6197 141.74 16.4897 141.428 16.3582C138.378 15.0546 135.261 13.8708 132.089 12.8169C127.396 11.2502 122.579 9.96158 117.654 8.96427C114.389 8.30162 111.076 7.76878 107.719 7.37085C107.406 7.33422 107.09 7.29753 106.774 7.26256C102.238 6.75808 97.6265 6.5 92.9546 6.5V31.1998V55.8993C97.5832 55.8993 102.112 56.3222 106.502 57.1347C107.04 57.2313 107.576 57.3378 108.111 57.4477C111.376 58.1237 114.562 59.0162 117.654 60.1084C121.971 61.6318 126.107 63.5449 130.017 65.8042C134.439 68.3599 138.573 71.3618 142.354 74.7483C144.413 76.5865 146.368 78.5395 148.206 80.6007C148.573 81.0053 148.932 81.4181 149.288 81.8327C151.832 84.8063 154.147 87.9882 156.201 91.3448C156.869 92.4336 157.505 93.5407 158.118 94.6646C158.119 94.6713 158.123 94.6762 158.128 94.6812C159.966 98.0694 161.546 101.619 162.846 105.3C163.026 105.811 163.203 106.323 163.369 106.839C165.76 114.125 167.054 121.912 167.054 130C167.054 138.088 165.76 145.875 163.369 153.161C163.201 153.677 163.026 154.189 162.846 154.7C161.548 158.379 159.966 161.929 158.128 165.319C158.123 165.324 158.121 165.329 158.118 165.335C157.505 166.459 156.867 167.567 156.201 168.655C154.147 172.012 151.832 175.194 149.288 178.167C148.932 178.582 148.573 178.995 148.206 179.399C146.368 181.459 144.415 183.414 142.354 185.252C138.573 188.638 134.437 191.638 130.017 194.196C126.107 196.455 121.971 198.368 117.654 199.892C114.562 200.984 111.376 201.875 108.111 202.552C107.578 202.664 107.042 202.77 106.502 202.865C102.11 203.678 97.5832 204.101 92.9546 204.101V228.8V253.5C97.6281 253.5 102.24 253.24 106.774 252.737C107.09 252.702 107.406 252.666 107.719 252.629C111.076 252.231 114.389 251.699 117.654 251.036C122.579 250.039 127.396 248.748 132.089 247.183C135.261 246.129 138.378 244.945 141.428 243.642C141.74 243.51 142.048 243.38 142.354 243.244C146.61 241.389 150.74 239.3 154.726 236.992C159.003 234.519 163.119 231.797 167.054 228.845V228.8H167.113C169.784 226.794 172.37 224.683 174.864 222.47L174.859 222.475Z" fill="white" stroke="#1D1D1B" stroke-width="0.117963" stroke-miterlimit="10"></path>
<path d="M68.2466 87.2037V87.2237L68.24 87.2086C61.094 91.3393 55.0818 97.2101 50.7796 104.243L50.1669 105.305L49.5225 106.424C49.5159 106.434 49.5109 106.441 49.5076 106.449C45.7065 113.448 43.547 121.474 43.547 130.006C43.547 138.539 45.7065 146.563 49.5076 153.564C49.5092 153.57 49.5142 153.581 49.5225 153.589L50.1669 154.708L50.7962 155.8C55.0968 162.819 61.104 168.678 68.24 172.804L68.2466 172.792V172.809C75.5108 177.008 83.9455 179.409 92.9463 179.409V154.709C97.45 154.709 101.667 153.509 105.302 151.406C108.888 149.333 111.905 146.385 114.056 142.852C114.063 142.842 114.068 142.832 114.073 142.822L114.641 141.836C114.651 141.819 114.657 141.804 114.667 141.786C116.567 138.286 117.646 134.272 117.646 130.006C117.646 125.741 116.539 121.63 114.596 118.1L114.075 117.201C114.075 117.201 114.075 117.196 114.073 117.195C111.922 113.648 108.898 110.688 105.302 108.608C101.669 106.505 97.45 105.305 92.9463 105.305V80.6055C83.9455 80.6055 75.5108 83.0063 68.2466 87.2053V87.2037Z" fill="white" stroke="#1D1D1B" stroke-width="0.117963" stroke-miterlimit="10"></path>
</svg></svg></g></svg>