<svg xmlns="http://www.w3.org/2000/svg" width="187" height="187" fill="none"><circle cx="93.298" cy="93.298" r="93.298" fill="url(#a)"/><g clip-path="url(#b)"><path fill="#E82164" d="M30.922 48.343a67 67 0 0 0-1.946 4.577q-.051.022-.103.05c-1.4.836-3.024 1.23-4.584 1.67-2.116.53-4.28.83-6.443 1.097-3.56.383-7.466.618-10.379 2.79a4.34 4.34 0 0 0-1.583 1.507c-.113.123-.244.264-.371.412a7 7 0 0 1 .664-2.278c.8-1.61 1.99-3.349 3.83-3.805 6.58-.978 13.108-2.525 19.226-5.191a26 26 0 0 0 1.687-.83zM184.289 83.029c-.105-.168-.212-.325-.305-.465a4.35 4.35 0 0 0-1.341-1.729c-2.553-2.583-6.379-3.403-9.839-4.316-2.099-.59-4.192-1.211-6.205-2.055-1.476-.668-3.021-1.303-4.279-2.34a1.4 1.4 0 0 0-.549-.25 71 71 0 0 0-1.135-4.908c.606.484 1.248.926 1.897 1.35 5.65 3.557 11.869 6.067 18.228 8.023 1.751.727 2.666 2.626 3.215 4.338.232.746.346 1.554.314 2.351z"/><path fill="#FEA1A3" d="M112.759 138.543c.343 5.676 1.937 11.895-1.168 17.062-1.014 1.619-2.523 2.722-4.215 3.484a7 7 0 0 0-.329-1.059c-1.443-3.347-3.603-3.887-6.031-1.022-.57.65-1.958 2.831-1.857 3.984-9.321 1.014-18.88-1.013-27.775-3.748-3.172-1.147-7.415-2.841-11.089-5.119.462-2.118.508-4.411-.132-6.491-1.065-3-4.435-2.244-5.838.062-.127.2-.286.416-.422.644a10 10 0 0 1-1.099-2.266c-1.106-4.151 3.03-8.219 4.386-12.011q.626-1.404 1.117-2.859c.394-.322.766-.682.995-.829 1.664-1.38 3.396-2.685 5.28-3.755 12.128-6.711 25.164-3.727 36.265 3.518 2.917 1.85 5.572 4.074 8.074 6.445.895.842 1.778 1.684 2.644 2.558.455.33.748 1.065 1.194 1.403z"/><path fill="#FEB5B7" d="M112.759 138.543c.343 5.676 1.937 11.895-1.168 17.062-1.014 1.619-2.523 2.722-4.215 3.484a7 7 0 0 0-.329-1.059c-1.443-3.347-3.603-3.887-6.031-1.022-.57.65-1.958 2.831-1.857 3.984-9.321 1.014-18.88-1.013-27.775-3.748-3.172-1.147-7.415-2.841-11.089-5.119.462-2.118.508-4.411-.132-6.491-1.065-3-4.435-2.244-5.838.062-.127.2-.286.416-.422.644a10 10 0 0 1-1.099-2.266c-1.106-4.151 3.03-8.219 4.386-12.011q.626-1.404 1.117-2.859c.394-.322.766-.682.995-.829 1.664-1.38 3.396-2.685 5.28-3.755 12.128-6.711 25.164-3.727 36.265 3.518 2.917 1.85 5.572 4.074 8.074 6.445.895.842 1.778 1.684 2.644 2.558.455.33.748 1.065 1.194 1.403zM92.363 113.333q-.004-.025-.01-.053l-.003-.012-.004-.035c.415 1.51-3.957 3.727-5.103 4.443-1.467-.866-4.161-4.947-2.33-6.307.113-.012.253-.041.375-.01l-.004.008c1.19.513.96 2.472 1.794 3.312 1.431.979 2.05-.905 2.84-1.69.705-.556 2.124-.693 2.445.344"/><path fill="#FEA1A3" d="M93.877 114.624c.385-1.154-.16-2.506-1.335-2.922-1.446-.595-3.008.146-4.154 1.038-1.963-4.638-6.924-2.649-5.811 1.949.656 2.036 2.098 4.106 4.192 4.814.684.707 1.546.02 2.199-.365 1.804-1.159 4.05-2.416 4.909-4.515zm20.726 7.544c-.543 1.088-.634 2.857-.944 3.89-.615 3.074-.979 6.152-.999 9.27-1.351-1.5-2.847-2.867-4.4-4.154-9.49-7.644-25.768-14.289-37.95-11.126a27.2 27.2 0 0 0-10.113 5.355c-.362.317-.715.626-1.058.94.71-2.892 1.055-5.876 1.078-8.852-.048-2.074.052-4.321-.398-6.395 6.678.125 13.422-1.014 19.944-2.33 5.72-1.407 11.003-.831 16.144 2.121 6.383 3.497 12.119 8.15 18.699 11.283zM73.446 84.288c-.967-.034-1.947-.04-2.883-.316-1.209-.303-2.68-1.26-2.453-2.678.43-.94 1.671-.24 2.315.1 1.205.736 2.079 1.868 3.02 2.895M121.561 90.37c.727-.018 2.151-.095 2.118.938-.427 1.371-2.171 1.573-3.388 1.309-.962-.17-1.842-.6-2.723-1 1.3-.501 2.586-1.124 3.995-1.248z"/><path fill="#fff" d="M58.147 145.206c.862.954.631 3.847.26 5.653-1.3-.946-2.476-1.978-3.437-3.097q.121-.09.212-.205c.585-.481 2.23-2.892 2.965-2.35zM105.307 159.839q-.6.173-1.204.309a40 40 0 0 1-3.122.603c.751-1.203 1.36-3.199 1.815-3.7.681-.915 1.169-.818 1.657.18.433.811.76 1.69.854 2.608M151.583 68.294c2.074 5.278.444 11.605-3.403 15.746q.05-.054.101-.107c-2.604 2.937-6.685 4.473-10.574 3.803-5.436-.993-7.581-6.208-6.168-11.21q.05-.171.104-.34c.731 2.164 2.594 3.903 4.827 4.426 3.742.79 8.083-.335 10.942-2.895 2.444-2.272 4.262-5.974 4.169-9.424zM56.128 62.216c-.96 5.11-5.202 8.824-10.511 7.295-3.78-1.131-6.753-4.32-7.777-8.11l.042.141c-1.601-5.42-.246-11.812 3.958-15.616-1.617 3.047-1.635 7.172-.458 10.293 1.423 3.565 4.809 6.505 8.511 7.461 2.234.527 4.678-.204 6.294-1.818q-.027.177-.06.353z"/><path fill="#000" d="M48.16 83.518c-.66-.168-.327-1.18.296-1.052.766.124.396 1.255-.296 1.052M41.327 89.312c-.264-.752 1.073-1.155 1.158-.313.06.615-.93.936-1.158.313M47.177 97.71c-.53-.572.53-1.433.988-.814.397.563-.513 1.299-.988.813M61.842 95.032a.725.725 0 0 1 .837-.482c.357.07.525.475.42.798a.725.725 0 0 1-.836.483c-.357-.07-.526-.475-.42-.799M56.552 90.423c.02-.724 1.337-.802 1.305-.021-.021.721-1.335.805-1.305.02M138.041 103.823c-.755-.19-.306-1.326.381-1.08.732.198.288 1.304-.381 1.08M123.881 106.449c-.151-.679 1.037-.965 1.108-.225.061.614-.964.871-1.108.225M128.037 115.846a.683.683 0 0 1 .787-.454c.335.067.495.448.396.751a.68.68 0 0 1-.786.453c-.336-.066-.495-.448-.397-.75M142.196 115.107l.024.023.058.039c-.665-.382.026-1.422.649-1.012.699.42-.139 1.489-.729.948zM135.549 110.584c-.911-.157-.254-1.515.451-.999.552.294.122 1.16-.451.999M133.296 103.025c-.568-.434.178-1.339.73-.907.566.443-.178 1.333-.73.907M144.91 106.884c.019-.723 1.21-.797 1.175-.016-.021.721-1.213.796-1.175.016M52.659 91.285c-.671-.115-.296-1.13.296-.889.571.171.241 1.04-.296.889M57.845 100.398c-.634-.155-.282-1.102.301-.927.609.163.265 1.083-.301.927"/><path fill="#000" d="M48.666 109.496c-7.446-2.14-14.72-7.296-17.207-14.896-1.639-5.569-.298-11.824 2.566-16.77.788-1.336 3.968-5.773 5.687-4.763.58.66-1.552 1.972-1.931 2.667a22.4 22.4 0 0 0-2.891 4.662c-1.79 4.386-2.772 9.538-1.072 14.1 2.338 6.085 8.107 10.279 14.088 12.409 5.416 1.81 11.207 2.265 16.882 1.882 8.77-.363 17.604-3.888 26.346-1.715 8.441 2.293 15.09 8.363 22.781 12.251 8.909 4.571 20.182 7.148 29.436 2.211 7.308-3.68 10.5-12.287 9.637-20.113-.419-2.737-1.327-5.438-2.919-7.722a25 25 0 0 0-1.09-1.484c-.789-.96.836-2.236 1.593-1.275 9.823 12.696 3.535 31.669-12.54 34.839-7.11 1.485-14.569.089-21.213-2.63-7.535-3.069-13.826-8.379-20.913-12.263-5.142-2.952-10.424-3.527-16.145-2.119-10.189 2.055-20.917 3.679-31.095.731z"/><path fill="#000" d="M74.543 160.495c-8.472-2.44-21.493-7.595-23.638-17.115-.927-4.504 2.637-8.067 4.224-11.967 2.176-4.785 3.023-10.067 3.033-15.299.013-1.669-.077-3.338-.062-5.009-.052-.774.19-2.324 1.266-1.531.96 2.46.79 5.323.849 7.917-.036 4.989-.988 10.003-3.026 14.569-1.356 3.791-5.492 7.86-4.386 12.011 2.192 6.645 12.414 10.94 18.58 13.171 10.476 3.22 21.876 5.46 32.719 2.905 2.923-.659 5.875-1.934 7.51-4.577q-.023.036-.041.067 0 .003-.004.006c3.219-5.309 1.45-11.737 1.167-17.545-.245-4.072.127-8.061.925-12.04.384-1.283.432-3.694 1.422-4.536.49-.317 1.224-.2 1.515.33.171.299.146.628.044.943-.711 2.613-1.247 5.274-1.673 7.947-.468 3.178-.655 6.408-.5 9.613.189 4.067.828 8.162.158 12.219-.631 5.6-5.123 8.768-10.35 9.754-9.822 2.36-20.106.668-29.732-1.833"/><path fill="#000" d="M74.632 165.92c-9.47-2.703-25.354-9.973-28.797-19.796-.1-.533-.313-1.347.276-1.647.317-.154.615.09.712.387.725 1.727 1.902 3.17 3.124 4.565 11.363 11.405 28.022 17.052 43.963 16.398 6.062-.377 12.137-1.584 17.629-4.213 1.896-.934 3.705-2.055 5.27-3.482.992-.887 2.37.634 1.374 1.549-11.51 9.671-29.608 9.911-43.548 6.24zM169.718 118.535v.012zM169.718 118.551v.002l.001.012.004.036zM169.726 118.602v.008l.004.033v.008l-.006-.049zM169.732 118.654s0 .008.002.012v.004l.008.06zM169.736 118.671v-.004q0-.007-.002-.013v-.011l.02.158-.016-.13zM12.923 70.983c-3.808-1.297-7.52-3.932-9.084-7.748-.648-1.401-.83-2.987-.315-4.462.698-2.133 2.115-4.1 4.136-5.143 3.452-1.737 7.33-2.21 11.043-3.118 3.111-.805 6.177-1.783 9.209-2.846 1.317-.45 2.583-1.04 3.915-1.441.481-.195 1.412-.172 1.221.57-.142.321-.473.5-.742.703-.962.665-2.01 1.191-3.073 1.674-6.119 2.667-12.646 4.213-19.227 5.192-1.84.456-3.03 2.194-3.83 3.804-.952 1.954-1.072 4.544.5 6.21 2.31 2.572 5.776 4.871 9.32 4.955 2.693-.021 5.096-.936 7.656-1.448.776-.151 1.556-.36 2.348-.371 1.192.058 1.372 1.73.15 1.957-4.431.357-8.758 3.013-13.23 1.512z"/><path fill="#000" d="M5.162 61.888c-.708-.55.593-1.65.947-2.112 2.966-3.346 7.59-3.59 11.737-4.037 2.163-.267 4.328-.566 6.444-1.098 1.56-.439 3.183-.834 4.583-1.671 1.499-.786 2.955 1.453.198 2.239-2.162.823-4.366 1.576-6.659 1.937-3.835.728-7.784.505-11.617 1.19-1.352.35-2.65.964-3.672 1.93-.436.424-.87.856-1.223 1.355-.058.308-.485.446-.74.267z"/><path fill="#000" d="M5.204 64.276c-.603-.737-.258-1.876.013-2.696.338-1.3 1.136-2.491 2.356-3.11.59-.294 1.2-.544 1.785-.847.205-.1.458-.03.55.187a.465.465 0 0 1-.222.581c-.927.525-2.069.818-2.74 1.692-.578.82-.786 1.88-.875 2.863-.055.4.123.85-.088 1.214-.164.253-.557.34-.78.116M175.379 92.331c3.959-.71 8.025-2.757 10.145-6.293.851-1.287 1.271-2.83.981-4.364-.368-2.213-1.474-4.37-3.315-5.706-3.151-2.237-6.913-3.286-10.449-4.744-2.954-1.264-5.839-2.693-8.677-4.198-1.234-.642-2.397-1.417-3.653-2.015-.446-.265-1.371-.383-1.293.38.091.339.392.567.629.807.85.802 1.807 1.48 2.786 2.117 5.648 3.556 11.869 6.067 18.226 8.024 1.751.727 2.667 2.626 3.215 4.337.648 2.074.376 4.652-1.428 6.063-2.671 2.196-6.443 3.948-9.961 3.498-2.658-.426-4.896-1.692-7.351-2.583-.744-.266-1.484-.59-2.265-.72-1.187-.122-1.618 1.504-.444 1.912 4.328 1.018 8.206 4.295 12.853 3.485z"/><path fill="#000" d="M184.42 84.508c.783-.438-.338-1.72-.619-2.23-2.429-3.755-6.963-4.692-10.998-5.758-2.099-.588-4.192-1.21-6.205-2.054-1.474-.668-3.021-1.303-4.279-2.34-1.363-1.004-3.139.991-.532 2.182 2.013 1.14 4.079 2.215 6.291 2.916 3.682 1.297 7.62 1.671 11.306 2.923 1.285.55 2.474 1.352 3.34 2.46.368.486.732.979 1.005 1.524.011.314.413.515.693.377z"/><path fill="#000" d="M184.018 86.863c.706-.638.538-1.817.393-2.667-.139-1.336-.749-2.635-1.862-3.428-.538-.38-1.103-.719-1.638-1.106-.187-.129-.448-.098-.573.102a.464.464 0 0 0 .133.607c.838.66 1.922 1.12 2.455 2.085.448.898.494 1.976.435 2.963-.007.403-.25.822-.096 1.212.124.274.499.419.753.232M58.152 151.868c.471-1.437 1.05-5.497-.004-6.662-.733-.543-2.379 1.868-2.964 2.349-.343.442-1.128.658-1.466.096-.361-.695.248-1.396.607-1.959 1.403-2.306 4.773-3.062 5.838-.062.652 2.123.591 4.465.105 6.617-.355 1.227-2.356.991-2.116-.38zM99.32 161.441c-.709-.893 1.037-3.683 1.696-4.433 2.428-2.865 4.59-2.326 6.031 1.022.183.455.31.923.403 1.404.333 1.388-1.913 2.023-2.132.515-.077-.956-.414-1.873-.864-2.715-.489-.998-.977-1.095-1.657-.18-.756.83-1.931 5.769-3.475 4.388zM56.718 129.294c.052-.45.41-.793.668-1.142.873-1.049 1.805-1.869 2.812-2.749a27.1 27.1 0 0 1 10.113-5.355c12.182-3.163 28.46 3.483 37.95 11.126 1.787 1.481 3.5 3.07 5.001 4.843.573.711 1.584 1.961.413 2.602-1.09.504-1.409-.968-2.11-1.479a106 106 0 0 0-2.645-2.558c-2.502-2.371-5.158-4.595-8.073-6.445-11.101-7.245-24.136-10.228-36.265-3.518-1.884 1.069-3.615 2.374-5.28 3.754-.616.395-2.263 2.329-2.585.922z"/><path fill="#000" d="M86.769 119.503c-2.094-.707-3.536-2.778-4.192-4.814-1.113-4.599 3.848-6.587 5.81-1.95 1.147-.891 2.709-1.633 4.154-1.037 1.175.415 1.719 1.768 1.334 2.922-.859 2.098-3.104 3.356-4.909 4.514-.652.385-1.514 1.072-2.199.365zm.474-1.824c1.146-.717 5.519-2.934 5.105-4.445.002.016.005.031.004.036q0 .006.004.012l.009.053c-.322-1.037-1.74-.901-2.445-.344-.79.785-1.409 2.669-2.84 1.69-.834-.84-.605-2.8-1.794-3.313l.004-.008c-.122-.03-.263 0-.375.012-1.83 1.36.864 5.441 2.33 6.307zM117.698 93.847c-.914-.362-3.615-1.12-3.801-2.124-.211-1.043 1.122-1.806 1.918-1.093 2.521-1.322 5.755-3.486 8.547-1.688 1.735 1.284.682 3.775-.954 4.623-1.708 1.067-3.867.884-5.71.281zm2.593-1.229c1.217.265 2.961.064 3.388-1.309.033-1.033-1.391-.957-2.118-.939-1.407.123-2.693.748-3.994 1.248.882.4 1.762.83 2.722 1zM72.338 86.229c.979.082 3.736.604 4.348-.213.654-.84-.2-2.116-1.232-1.831-1.67-2.305-3.604-5.683-6.902-5.314-2.125.38-2.29 3.078-1.203 4.565 1.056 1.717 3.07 2.513 4.989 2.791zm-1.776-2.256c-1.208-.304-2.68-1.261-2.452-2.68.43-.94 1.671-.24 2.314.1 1.206.736 2.08 1.868 3.021 2.895-.966-.034-1.948-.04-2.883-.315M134.596 88.42c-3.108-1.616-4.954-4.89-5.153-8.316-.367-5.802 2.951-11.226 7.005-15.122 3.845-3.599 10.39-7.144 14.464-1.948 2.087 2.443 3.298 5.603 3.539 8.796.517 6.939-3.275 14.516-9.986 17.027-3.164 1.119-6.872 1.21-9.869-.437m3.113-.684c3.888.668 7.969-.866 10.572-3.803q-.051.052-.101.108c4.346-4.678 5.861-12.146 2.407-17.738-1.349-2.252-3.817-4.932-6.683-3.717-1.852.648-3.515 1.734-5.02 2.98-3.355 2.9-6.099 6.678-7.344 10.96-1.413 5.004.732 10.217 6.167 11.21z"/><path fill="#000" d="m139.32 70.936-.002-.014-.029.036.033-.022zm9.978-8.004c4.257 4.094 1.96 11.212-1.884 14.785-2.859 2.56-7.2 3.687-10.942 2.895-2.339-.547-4.274-2.429-4.923-4.738-.264-1.037-.553-2.762.332-3.555.906-3.196 3.555-5.506 6.066-7.508 3.085-2.397 7.917-4.898 11.353-1.879zM137.318 58.45c-2.336-1.63.629-4.175 2.358-4.838 1.082-.367 2.93-1.41 3.859-.364 3.519 2.526-3.887 6.588-6.215 5.202zM48.099 71.51c3.504-.066 6.613-2.177 8.315-5.157 2.91-5.03 2.351-11.366.453-16.658-1.843-4.935-6.126-11.02-12.086-8.18-2.956 1.26-5.446 3.551-7.083 6.303-3.55 5.983-3.525 14.458 1.369 19.69 2.335 2.41 5.616 4.142 9.032 4zm-2.483-1.998c-3.78-1.13-6.752-4.32-7.776-8.11l.042.142c-1.81-6.123.154-13.486 5.736-16.958 2.21-1.416 5.612-2.718 7.637-.357 1.371 1.405 2.377 3.118 3.171 4.903 1.715 4.09 2.49 8.694 1.701 13.084-.96 5.11-5.2 8.824-10.51 7.296"/><path fill="#000" d="m51.648 53.749.01-.011q.004.022.01.045l-.019-.035zM46.272 42.14c-5.634 1.773-6.742 9.169-4.89 14.08 1.423 3.564 4.807 6.504 8.511 7.46 2.34.55 4.908-.274 6.517-2.053.699-.811 1.724-2.227 1.285-3.33.61-3.266-.736-6.514-2.093-9.423-1.697-3.52-4.912-7.91-9.332-6.733zM58.992 43.458c2.817-.42 1.295-4.018.041-5.382-.805-.81-1.995-2.567-3.292-2.043-4.276.697.55 7.63 3.253 7.424zM76.212 66.64c.024-1.9 4.351-1.091 5.708-1.371 10.128-.216 20.372 1.721 29.894 5.11 1.032.319.75 1.654-.356 1.28-8.619-2.318-17.485-4.062-26.427-4.295q-2.824 0-5.643.15c-1.063-.053-2.989.704-3.177-.873z"/></g><defs><linearGradient id="a" x1="48.959" x2="131.999" y1="0" y2="177.381" gradientUnits="userSpaceOnUse"><stop stop-color="#B4098A"/><stop offset=".415" stop-color="#FA2956"/><stop offset="1" stop-color="#E5E5E5"/></linearGradient><clipPath id="b"><path fill="#fff" d="M3.226 35.937h183.37v132.171H3.227z"/></clipPath></defs></svg>