<svg xmlns="http://www.w3.org/2000/svg" width="267" height="256" fill="none"><ellipse cx="128.492" cy="128" fill="url(#a)" rx="128.492" ry="128"/><g clip-path="url(#b)"><path fill="#fff" d="M46.214 161.937s2.208-8.248 20.286-1.925c18.078 6.324 62.873 24.236 103.017 21.336s60.458-4.633 74.009-14.325 19.058-11.052 19.058-.385c0 5.128-7.59 6.063-6.058 14.229.566 2.996-6.61 10.997-11.896 13.101-5.285 2.103-17.084 11.423-57.573 14.104-12.544.825-18.009 2.585-46.686.921-28.676-1.663-62.5-13.761-72.395-16.826s-27.668-10.751-23.722-27.192c.36-1.485 1.932-3.024 1.932-3.024z"/><path fill="#00AEEF" d="M155.828 212.745c-63.604 0-104.576-25.996-106.425-27.192-14.16-9.169-10.681-18.696-9.274-21.404 4.071-7.836 15.235-11.383 24.385-7.753 75.624 30.037 136.827 20.813 159.638 15.465 14.532-3.409 21.266-8.482 25.71-11.836 2.829-2.131 5.064-3.822 7.907-3.822 5.603 0 7.024 3.451 7.369 4.935.952 4.014-1.863 9.568-5.782 13.789-.193 19.136-34.348 33.708-87.837 37.282-5.368.357-10.612.522-15.704.522zm-98.946-52.308c-5.271 0-10.018 2.722-11.84 6.241-2.346 4.509.345 9.706 7.383 14.256 1.932 1.251 48.079 30.519 118.763 25.79 42.352-2.832 74.092-13.514 81.185-26.491-36.087 17.734-80.785 18.627-99.926 19.012-1.255.028-2.401.042-3.408.069-16.56.357-85.105-20.744-88.017-21.638a2.764 2.764 0 0 1-1.821-3.437 2.766 2.766 0 0 1 3.45-1.814c.69.22 69.317 21.404 85.808 21.404h.428c1.021-.028 2.18-.055 3.436-.069 18.879-.371 63.094-1.265 98.16-18.737 1.407-.701 2.746-1.705 3.946-2.86.125-.164.276-.316.442-.439 3.215-3.272 5.341-7.506 4.899-9.321-.11-.467-.787-.701-2.001-.701-.994 0-2.567 1.196-4.582 2.708-4.526 3.409-12.116 9.128-27.779 12.799-23.322 5.485-85.877 14.915-162.95-15.7a15 15 0 0 0-5.59-1.072zM231.125 133.205c-9.467 0-21.335-1.402-33.12-5.073-1.449-.453-2.264-1.993-1.808-3.436a2.753 2.753 0 0 1 3.45-1.801c21.266 6.612 40.806 5.196 46.078 3.024 4.402-1.828 7.066-4.014 7.7-6.351.58-2.145-.731-3.973-.745-3.987a2.746 2.746 0 0 1 .511-3.849 2.76 2.76 0 0 1 3.864.509c.303.398 2.953 4.028 1.683 8.757-1.104 4.11-4.774 7.478-10.915 10.008-3.23 1.333-9.219 2.213-16.726 2.227z"/><path fill="#fff" d="M172.414 83.77s10.695-10.242 24.577-12.992 31.533-4.715 43.815-2.708 26.331 10.668 23.212 29.172c0 0-.524 14.53-19.099 22.476-17.333 2.447-25.489 3.808-46.078 0-9.481-1.388-22.674-8.647-24.758-10.379s-6.444-25.39-1.656-25.583z"/><path fill="#00AEEF" d="M228.857 60.922c-.8 0-1.601-.343-2.153-1.017-.635-.784-15.608-18.201-55.89-4.276a2.76 2.76 0 0 1-3.505-1.69 2.743 2.743 0 0 1 1.697-3.492c44.271-15.3 61.314 5.155 62.018 6.035a2.733 2.733 0 0 1-.442 3.863 2.8 2.8 0 0 1-1.725.605zM198.817 144.876a2.765 2.765 0 0 1-2.76-2.612c-.082-1.513 1.091-2.805 2.622-2.887 35.646-1.787 39.165-9.472 39.372-10.022.152-1.388 1.338-2.433 2.787-2.433 1.518.027 2.747 1.278 2.719 2.791-.041 3.038-3.395 13.101-44.588 15.163h-.15200000000000002"/><path fill="#00AEEF" d="M253.779 74.807a2.76 2.76 0 0 1-2.594-1.815c-.235-.618-5.437-13.843-25.944-11.863-15.842 1.512-37.219 6.09-43.801 10.475a2.78 2.78 0 0 1-3.837-.756 2.745 2.745 0 0 1 .759-3.822c8.377-5.595 32.141-10.021 46.341-11.382 12.917-1.238 20.796 2.941 25.143 6.653 4.817 4.124 6.459 8.633 6.528 8.826a2.76 2.76 0 0 1-1.67 3.52c-.304.11-.621.164-.925.164M52.399 65.212a2.75 2.75 0 0 1-2.401-1.403 2.74 2.74 0 0 1 1.049-3.739c1.49-.839 37.122-20.538 79.75-14.764 9.687 1.306 18.133 8.083 20.796 12.248a2.745 2.745 0 0 1-.842 3.794 2.756 2.756 0 0 1-3.808-.838c-1.767-2.763-8.75-8.647-16.892-9.76-40.82-5.527-75.955 13.912-76.3 14.104a2.7 2.7 0 0 1-1.352.358M114.925 152.877c-11.027 0-26.966-3.19-49.543-13.706a2.744 2.744 0 0 1-1.324-3.657 2.763 2.763 0 0 1 3.67-1.32c51.323 23.907 64.916 8.042 65.054 7.878.938-1.169 2.663-1.389 3.85-.468s1.435 2.598.538 3.794c-.372.495-5.92 7.479-22.245 7.479"/><path fill="#00AEEF" d="M76.132 79.88a2.765 2.765 0 0 1-2.553-1.705 2.75 2.75 0 0 1 1.504-3.588c2.056-.839 50.536-20.607 76.01-18.092 10.157 1.004 16.478 4.042 18.796 9.019 2.677 5.746-1.201 11.465-1.366 11.698a2.76 2.76 0 0 1-3.837.701 2.73 2.73 0 0 1-.717-3.807c.055-.07 2.263-3.437.911-6.31-1.408-2.984-6.5-5.06-14.325-5.83-24.108-2.377-72.864 17.5-73.36 17.693a2.9 2.9 0 0 1-1.05.207z"/><mask id="c" width="95" height="56" x="170" y="67" maskUnits="userSpaceOnUse" style="mask-type:luminance"><path fill="#fff" d="M172.774 84.43s10.695-10.242 24.578-12.991c13.883-2.75 31.533-4.716 43.815-2.708s26.331 10.667 23.212 29.17c0 0-.525 14.532-19.099 22.477-17.333 2.447-25.489 3.808-46.079 0-9.48-1.388-22.673-8.647-24.757-10.379s-6.444-25.39-1.656-25.583z"/></mask><g mask="url(#c)"><path fill="#2D2E30" d="M220.868 130.454c19.473 0 35.259-15.725 35.259-35.124 0-19.398-15.786-35.123-35.259-35.123s-35.259 15.725-35.259 35.124c0 19.398 15.786 35.123 35.259 35.123"/><path fill="#fff" d="M205.384 91.234c4.39 0 7.949-3.545 7.949-7.918s-3.559-7.919-7.949-7.919-7.949 3.546-7.949 7.919 3.559 7.918 7.949 7.918M198.595 96.664c1.585 0 2.87-1.28 2.87-2.86s-1.285-2.859-2.87-2.859a2.865 2.865 0 0 0-2.87 2.86c0 1.579 1.285 2.86 2.87 2.86"/></g><path fill="#00AEEF" d="M132.88 144.876c-5.106 0-10.875-.247-17.374-.756-31.727-2.433-44.009-27.109-44.52-28.168a2.746 2.746 0 0 1 1.284-3.67 2.766 2.766 0 0 1 3.685 1.278c.455.935 11.495 22.889 39.978 25.075 15.098 1.155 36.074 1.869 43.746-5.21 2.208-2.035 3.285-4.688 3.285-8.111a2.763 2.763 0 0 1 2.76-2.75 2.763 2.763 0 0 1 2.76 2.75c0 4.963-1.698 9.045-5.051 12.139-5.465 5.031-14.945 7.409-30.553 7.409zM226.223 124.612a108 108 0 0 1-9.867-.467c-33.424-3.066-43.843-14.517-44.271-15.012a2 2 0 0 1-.276-.399c-.331-.632-7.962-15.507-1.117-26.064.069-.097.138-.193.22-.29.566-.604 14.214-14.942 39.855-16.386 19.761-1.113 38.35-1.306 48.714 8.455 4.982 4.688 7.507 11.355 7.521 19.81 0 4.7-1.159 13.65-8.929 20.716-7.052 6.407-17.733 9.637-31.836 9.637zm-50.881-18.05c1.366 1.334 11.979 10.764 41.386 13.459 17.858 1.649 30.816-1.086 38.53-8.098 6.596-5.993 7.576-13.65 7.576-17.678 0-7.383-2.042-12.881-6.224-16.813-9.163-8.633-26.813-8.4-45.636-7.327-22.77 1.278-35.577 13.582-36.943 14.943-4.954 7.918.387 19.658 1.297 21.514z"/><path fill="#fff" d="M60.331 93.902s2.042-1.732 17.926-8.029 26.041-12.812 43.194-15.231 33.01.37 37.122 1.677 15.705 5.815 16.629 22.724-7.728 29.171-9.467 30.285c-1.738 1.113-21.155 11.08-52.909 4.344-19.03-6.131-41.193-25.35-46.271-30.093s-6.224-5.663-6.224-5.663z"/><mask id="d" width="116" height="64" x="60" y="69" maskUnits="userSpaceOnUse" style="mask-type:luminance"><path fill="#fff" d="M60.378 94.012s2.042-1.733 17.926-8.029 26.041-12.812 43.194-15.232 33.01.372 37.122 1.678 15.705 5.815 16.629 22.724-7.728 29.171-9.467 30.285c-1.738 1.113-21.155 11.08-52.909 4.344-19.03-6.132-41.193-25.35-46.271-30.093s-6.224-5.664-6.224-5.664z"/></mask><g mask="url(#d)"><path fill="#2D2E30" d="M130.476 133.837c19.473 0 35.259-15.726 35.259-35.124s-15.786-35.124-35.259-35.124-35.259 15.725-35.259 35.124c0 19.398 15.786 35.124 35.259 35.124"/><path fill="#fff" d="M113.381 93.82c4.39 0 7.949-3.546 7.949-7.92 0-4.372-3.559-7.918-7.949-7.918s-7.948 3.546-7.948 7.919 3.558 7.918 7.948 7.918M106.577 99.249c1.585 0 2.87-1.28 2.87-2.86s-1.285-2.86-2.87-2.86a2.865 2.865 0 0 0-2.87 2.86c0 1.58 1.285 2.86 2.87 2.86"/></g><path fill="#00AEEF" d="M137.195 134.635c-5.81 0-11.896-.536-17.72-1.664-19.65-3.807-43.47-18.613-60.678-37.694-.47-.523-.635-1.224-.47-1.897.18-.674.677-1.21 1.326-1.43.165-.055 16.09-5.554 27.682-12.482 13.096-7.823 55.021-20.305 81.075-4.77.152.096.29.192.414.316.207.206 19.983 20.813-1.407 51.469-.028.041-.069.082-.097.124-4.154 5.045-16.422 8-30.139 8zm-73.223-39.84c16.45 17.363 38.253 30.643 56.304 34.135 19.265 3.739 39.316.467 43.815-4.853 8.17-11.74 10.93-23.095 8.211-33.777-1.794-7.01-5.423-11.313-6.238-12.207-24.233-14.215-64.556-2.268-76.576 4.908-9.025 5.388-20.245 9.829-25.516 11.78z"/></g><defs><linearGradient id="a" x1="67.428" x2="188.794" y1="0" y2="256.361" gradientUnits="userSpaceOnUse"><stop stop-color="#C3DFFF"/><stop offset=".145" stop-color="#fff"/><stop offset=".305" stop-color="#C3DFFF"/><stop offset=".75" stop-color="#0063FD"/><stop offset="1" stop-color="#001C3F"/></linearGradient><clipPath id="b"><path fill="#fff" d="M38.707 44.247h228.266v168.5H38.707z"/></clipPath></defs></svg>