<svg width="144" height="48" viewBox="0 0 144 48" fill="none" xmlns="http://www.w3.org/2000/svg">
<rect x="0.5" y="0.366211" width="143.5" height="47.2676" rx="8" fill="#090909"/>
<path d="M40.6244 24.7499C40.6478 22.9293 41.6218 21.2065 43.1668 20.2529C42.1921 18.8554 40.5595 17.9693 38.8609 17.916C37.0493 17.7251 35.2929 19.0043 34.3697 19.0043C33.4287 19.0043 32.0073 17.9349 30.4766 17.9666C28.4816 18.0313 26.6216 19.17 25.651 20.921C23.5645 24.5476 25.1208 29.8775 27.1195 32.809C28.1195 34.2444 29.2882 35.8479 30.8175 35.791C32.3139 35.7287 32.8728 34.833 34.6792 34.833C36.4687 34.833 36.9931 35.791 38.5534 35.7548C40.1591 35.7287 41.1708 34.313 42.1357 32.864C42.8542 31.8411 43.4071 30.7107 43.7739 29.5145C41.8868 28.7133 40.6266 26.8068 40.6244 24.7499Z" fill="white"/>
<path d="M37.6773 15.9881C38.5529 14.933 38.9842 13.5768 38.8798 12.2075C37.5422 12.3486 36.3066 12.9903 35.4192 14.005C34.5515 14.9964 34.0999 16.3287 34.1853 17.6456C35.5234 17.6595 36.8389 17.0351 37.6773 15.9881Z" fill="white"/>
<path d="M92.9774 21.9918V24.198H91.5999V25.6449H92.9774V30.5609C92.9774 32.2396 93.7338 32.911 95.6368 32.911C95.9713 32.911 96.2898 32.871 96.5685 32.8231V31.3922C96.3296 31.4162 96.1783 31.4322 95.9155 31.4322C95.0635 31.4322 94.6893 31.0325 94.6893 30.1213V25.6449H96.5685V24.198H94.6893V21.9918H92.9774Z" fill="white"/>
<path d="M101.416 33.0309C103.948 33.0309 105.501 31.3283 105.501 28.5066C105.501 25.7008 103.94 23.9902 101.416 23.9902C98.8843 23.9902 97.3236 25.7008 97.3236 28.5066C97.3236 31.3283 98.8763 33.0309 101.416 33.0309ZM101.416 31.5041C99.9274 31.5041 99.0913 30.409 99.0913 28.5066C99.0913 26.6201 99.9274 25.517 101.416 25.517C102.897 25.517 103.741 26.6201 103.741 28.5066C103.741 30.401 102.897 31.5041 101.416 31.5041Z" fill="white"/>
<path d="M106.83 32.8631H108.541V27.7232C108.541 26.5002 109.457 25.6768 110.755 25.6768C111.058 25.6768 111.567 25.7328 111.711 25.7808V24.0861C111.527 24.0382 111.201 24.0142 110.946 24.0142C109.815 24.0142 108.852 24.6377 108.605 25.493H108.478V24.1581H106.83V32.8631Z" fill="white"/>
<path d="M115.961 25.453C117.227 25.453 118.055 26.3403 118.095 27.7072H113.716C113.811 26.3483 114.695 25.453 115.961 25.453ZM118.087 30.5129C117.769 31.1924 117.06 31.5681 116.025 31.5681C114.655 31.5681 113.772 30.6009 113.716 29.0741V28.9782H119.839V28.3787C119.839 25.6449 118.382 23.9902 115.969 23.9902C113.525 23.9902 111.972 25.7568 111.972 28.5385C111.972 31.3203 113.493 33.0309 115.977 33.0309C117.96 33.0309 119.345 32.0717 119.735 30.5129H118.087Z" fill="white"/>
<path d="M81.7508 29.6484C81.8828 31.786 83.6572 33.153 86.2981 33.153C89.1206 33.153 90.8867 31.7197 90.8867 29.433C90.8867 27.6352 89.8799 26.6409 87.437 26.0693L86.1248 25.7462C84.5732 25.3816 83.946 24.8928 83.946 24.0394C83.946 22.9624 84.9199 22.2581 86.3806 22.2581C87.7671 22.2581 88.7244 22.9458 88.8978 24.0477H90.6969C90.5896 22.0344 88.8235 20.6177 86.4054 20.6177C83.8057 20.6177 82.0726 22.0344 82.0726 24.1637C82.0726 25.9201 83.0547 26.9641 85.2087 27.4695L86.7438 27.8423C88.3201 28.2151 89.0133 28.7619 89.0133 29.6733C89.0133 30.7338 87.9239 31.5043 86.4384 31.5043C84.8456 31.5043 83.7397 30.7835 83.5829 29.6484H81.7508Z" fill="white"/>
<path d="M64.0169 24.0142C62.8384 24.0142 61.8192 24.6057 61.2937 25.5969H61.1663V24.1581H59.518V35.7567H61.23V31.5441H61.3653C61.8192 32.4634 62.7986 33.0069 64.0328 33.0069C66.2225 33.0069 67.6159 31.2723 67.6159 28.5066C67.6159 25.7408 66.2225 24.0142 64.0169 24.0142ZM63.5311 31.4642C62.0979 31.4642 61.1981 30.3291 61.1981 28.5146C61.1981 26.692 62.0979 25.5569 63.5391 25.5569C64.9883 25.5569 65.8562 26.668 65.8562 28.5066C65.8562 30.3531 64.9883 31.4642 63.5311 31.4642Z" fill="white"/>
<path d="M73.6062 24.0142C72.4278 24.0142 71.4086 24.6057 70.8831 25.5969H70.7557V24.1581H69.1074V35.7567H70.8194V31.5441H70.9547C71.4086 32.4634 72.388 33.0069 73.6222 33.0069C75.8118 33.0069 77.2053 31.2723 77.2053 28.5066C77.2053 25.7408 75.8118 24.0142 73.6062 24.0142ZM73.1205 31.4642C71.6873 31.4642 70.7875 30.3291 70.7875 28.5146C70.7875 26.692 71.6873 25.5569 73.1285 25.5569C74.5777 25.5569 75.4456 26.668 75.4456 28.5066C75.4456 30.3531 74.5777 31.4642 73.1205 31.4642Z" fill="white"/>
<path d="M56.4465 32.8631H58.4107L54.111 20.9077H52.122L47.8223 32.8631H49.7204L50.8181 29.6899H55.3572L56.4465 32.8631ZM53.0216 23.0784H53.1619L54.8867 28.1323H51.2885L53.0216 23.0784Z" fill="white"/>
<path d="M47.7754 12.4752V17.2009H49.475C50.8777 17.2009 51.69 16.333 51.69 14.8233C51.69 13.3365 50.8712 12.4752 49.475 12.4752H47.7754ZM48.5061 13.1433H49.3934C50.3688 13.1433 50.9462 13.7655 50.9462 14.8331C50.9462 15.9171 50.3786 16.5328 49.3934 16.5328H48.5061V13.1433Z" fill="white"/>
<path d="M54.1777 17.2696C55.2151 17.2696 55.8512 16.5721 55.8512 15.416C55.8512 14.2666 55.2118 13.5657 54.1777 13.5657C53.1403 13.5657 52.5009 14.2666 52.5009 15.416C52.5009 16.5721 53.1371 17.2696 54.1777 17.2696ZM54.1777 16.6441C53.5677 16.6441 53.2251 16.1955 53.2251 15.416C53.2251 14.6432 53.5677 14.1912 54.1777 14.1912C54.7845 14.1912 55.1302 14.6432 55.1302 15.416C55.1302 16.1922 54.7845 16.6441 54.1777 16.6441Z" fill="white"/>
<path d="M61.2683 13.6345H60.567L59.9341 16.3559H59.8786L59.1479 13.6345H58.4759L57.7452 16.3559H57.693L57.0569 13.6345H56.3457L57.3244 17.2009H58.0453L58.776 14.5744H58.8315L59.5655 17.2009H60.2929L61.2683 13.6345Z" fill="white"/>
<path d="M62.076 17.2009H62.7774V15.1148C62.7774 14.558 63.1069 14.2109 63.6255 14.2109C64.1442 14.2109 64.3922 14.4958 64.3922 15.0689V17.2009H65.0935V14.8921C65.0935 14.0439 64.6564 13.5657 63.8637 13.5657C63.3287 13.5657 62.9764 13.8048 62.8035 14.2011H62.7513V13.6345H62.076V17.2009Z" fill="white"/>
<path d="M66.1981 17.2009H66.8994V12.2427H66.1981V17.2009Z" fill="white"/>
<path d="M69.5372 17.2696C70.5746 17.2696 71.2107 16.5721 71.2107 15.416C71.2107 14.2666 70.5713 13.5657 69.5372 13.5657C68.4999 13.5657 67.8605 14.2666 67.8605 15.416C67.8605 16.5721 68.4966 17.2696 69.5372 17.2696ZM69.5372 16.6441C68.9272 16.6441 68.5847 16.1955 68.5847 15.416C68.5847 14.6432 68.9272 14.1912 69.5372 14.1912C70.144 14.1912 70.4898 14.6432 70.4898 15.416C70.4898 16.1922 70.144 16.6441 69.5372 16.6441Z" fill="white"/>
<path d="M73.3004 16.667C72.9188 16.667 72.6415 16.4804 72.6415 16.1594C72.6415 15.8451 72.8633 15.678 73.3526 15.6453L74.2204 15.5896V15.8876C74.2204 16.3297 73.8289 16.667 73.3004 16.667ZM73.121 17.2598C73.5875 17.2598 73.9757 17.0568 74.1878 16.6998H74.2432V17.2009H74.9185V14.7643C74.9185 14.0111 74.4161 13.5657 73.5255 13.5657C72.7198 13.5657 72.1456 13.9587 72.0739 14.5711H72.7524C72.8307 14.319 73.1015 14.1749 73.4929 14.1749C73.9725 14.1749 74.2204 14.3877 74.2204 14.7643V15.0722L73.258 15.1279C72.4131 15.1803 71.9369 15.5503 71.9369 16.1922C71.9369 16.8439 72.436 17.2598 73.121 17.2598Z" fill="white"/>
<path d="M77.2985 17.2598C77.7879 17.2598 78.2022 17.0273 78.4142 16.6376H78.4697V17.2009H79.1417V12.2427H78.4403V14.2011H78.3881C78.1956 13.8081 77.7846 13.5756 77.2985 13.5756C76.4015 13.5756 75.8241 14.2895 75.8241 15.416C75.8241 16.5459 76.3949 17.2598 77.2985 17.2598ZM77.4975 14.2076C78.0847 14.2076 78.4533 14.6759 78.4533 15.4193C78.4533 16.166 78.088 16.6278 77.4975 16.6278C76.9038 16.6278 76.5483 16.1725 76.5483 15.416C76.5483 14.6661 76.9071 14.2076 77.4975 14.2076Z" fill="white"/>
<path d="M83.6898 17.2696C84.7271 17.2696 85.3632 16.5721 85.3632 15.416C85.3632 14.2666 84.7239 13.5657 83.6898 13.5657C82.6524 13.5657 82.013 14.2666 82.013 15.416C82.013 16.5721 82.6491 17.2696 83.6898 17.2696ZM83.6898 16.6441C83.0797 16.6441 82.7372 16.1955 82.7372 15.416C82.7372 14.6432 83.0797 14.1912 83.6898 14.1912C84.2965 14.1912 84.6423 14.6432 84.6423 15.416C84.6423 16.1922 84.2965 16.6441 83.6898 16.6441Z" fill="white"/>
<path d="M86.2917 17.2009H86.993V15.1148C86.993 14.558 87.3225 14.2109 87.8412 14.2109C88.3599 14.2109 88.6078 14.4958 88.6078 15.0689V17.2009H89.3092V14.8921C89.3092 14.0439 88.872 13.5657 88.0793 13.5657C87.5443 13.5657 87.192 13.8048 87.0191 14.2011H86.9669V13.6345H86.2917V17.2009Z" fill="white"/>
<path d="M92.5393 12.747V13.6509H91.975V14.2436H92.5393V16.2577C92.5393 16.9454 92.8492 17.2205 93.6289 17.2205C93.7659 17.2205 93.8964 17.2041 94.0106 17.1845V16.5983C93.9127 16.6081 93.8507 16.6147 93.7431 16.6147C93.394 16.6147 93.2407 16.4509 93.2407 16.0776V14.2436H94.0106V13.6509H93.2407V12.747H92.5393Z" fill="white"/>
<path d="M94.952 17.2009H95.6534V15.118C95.6534 14.5777 95.9731 14.2142 96.5472 14.2142C97.0431 14.2142 97.3073 14.5023 97.3073 15.0722V17.2009H98.0087V14.8986C98.0087 14.0504 97.5422 13.569 96.7854 13.569C96.2504 13.569 95.8752 13.8081 95.7023 14.2076H95.6469V12.2427H94.952V17.2009Z" fill="white"/>
<path d="M100.539 14.165C101.057 14.165 101.397 14.5285 101.413 15.0886H99.6189C99.658 14.5318 100.02 14.165 100.539 14.165ZM101.41 16.238C101.279 16.5164 100.989 16.6703 100.565 16.6703C100.004 16.6703 99.6417 16.2741 99.6189 15.6486V15.6093H102.127V15.3636C102.127 14.2436 101.53 13.5657 100.542 13.5657C99.5406 13.5657 98.9044 14.2895 98.9044 15.4291C98.9044 16.5688 99.5275 17.2696 100.545 17.2696C101.358 17.2696 101.925 16.8766 102.085 16.238H101.41Z" fill="white"/>
</svg>
