<svg width="144" height="48" viewBox="0 0 144 48" fill="none" xmlns="http://www.w3.org/2000/svg">
<rect y="0.366211" width="143.5" height="47.2676" rx="8" fill="#090909"/>
<g filter="url(#filter0_ii_4067_3408)">
<path d="M19.9704 11.815C19.687 12.1161 19.5195 12.5835 19.5195 13.1886V34.8105C19.5195 35.4166 19.687 35.883 19.9704 36.1841L20.0425 36.2545L32.1076 24.1423V23.9996V23.8568L20.0425 11.7437L19.9704 11.815Z" fill="url(#paint0_linear_4067_3408)"/>
<path d="M36.1304 28.1807L32.1094 24.142V23.9993V23.8566L36.1314 19.8188L36.222 19.8707L40.987 22.5885C42.3475 23.3648 42.3475 24.6348 40.987 25.412L36.222 28.1299L36.1304 28.1807Z" fill="url(#paint1_linear_4067_3408)"/>
<g filter="url(#filter1_i_4067_3408)">
<path d="M36.2205 28.1291L32.1069 23.9995L19.9707 36.184C20.4187 36.6611 21.1598 36.7198 21.9944 36.2447L36.2205 28.1291Z" fill="url(#paint2_linear_4067_3408)"/>
</g>
<path d="M36.2205 19.8704L21.9944 11.7558C21.1598 11.2797 20.4187 11.3393 19.9707 11.8164L32.1079 24.001L36.2205 19.8704Z" fill="url(#paint3_linear_4067_3408)"/>
</g>
<path d="M70.9262 25.2121C68.7629 25.2121 66.9997 26.8568 66.9997 29.1219C66.9997 31.3733 68.7629 33.0318 70.9262 33.0318C73.0905 33.0318 74.8537 31.3733 74.8537 29.1219C74.8527 26.8568 73.0895 25.2121 70.9262 25.2121ZM70.9262 31.4928C69.7406 31.4928 68.7188 30.5156 68.7188 29.1229C68.7188 27.7154 69.7416 26.7529 70.9262 26.7529C72.1118 26.7529 73.1337 27.7154 73.1337 29.1229C73.1337 30.5147 72.1118 31.4928 70.9262 31.4928ZM62.3594 25.2121C60.1961 25.2121 58.4329 26.8568 58.4329 29.1219C58.4329 31.3733 60.1961 33.0318 62.3594 33.0318C64.5237 33.0318 66.2869 31.3733 66.2869 29.1219C66.2869 26.8568 64.5237 25.2121 62.3594 25.2121ZM62.3594 31.4928C61.1739 31.4928 60.152 30.5156 60.152 29.1229C60.152 27.7154 61.1748 26.7529 62.3594 26.7529C63.545 26.7529 64.5669 27.7154 64.5669 29.1229C64.5678 30.5147 63.545 31.4928 62.3594 31.4928ZM52.1702 26.4127V28.0712H56.1418C56.0231 29.0043 55.7122 29.6855 55.2376 30.1589C54.66 30.7362 53.7559 31.3733 52.1702 31.3733C49.7254 31.3733 47.8141 29.4033 47.8141 26.9597C47.8141 24.5162 49.7254 22.5461 52.1702 22.5461C53.4891 22.5461 54.4521 23.0646 55.1631 23.7311L56.334 22.5608C55.3406 21.613 54.0226 20.8877 52.1702 20.8877C48.8213 20.8877 46.0059 23.6125 46.0059 26.9597C46.0059 30.3069 48.8213 33.0318 52.1702 33.0318C53.9775 33.0318 55.3416 32.4388 56.4076 31.3283C57.504 30.2325 57.8452 28.6917 57.8452 27.4479C57.8452 27.0636 57.8158 26.7078 57.756 26.4118L52.1702 26.4127ZM93.8433 27.7007C93.5177 26.8273 92.5244 25.2121 90.4944 25.2121C88.4792 25.2121 86.8043 26.797 86.8043 29.1219C86.8043 31.3136 88.4645 33.0318 90.6867 33.0318C92.4793 33.0318 93.5168 31.9359 93.9473 31.2989L92.6136 30.4099C92.1693 31.0617 91.5614 31.491 90.6867 31.491C89.8129 31.491 89.1902 31.0911 88.7901 30.306L94.0208 28.1438L93.8433 27.7007ZM88.5086 29.0043C88.4645 27.4929 89.6795 26.7235 90.5542 26.7235C91.2358 26.7235 91.8134 27.0645 92.0065 27.5527L88.5086 29.0043ZM84.2565 32.7955H85.9746V21.3032H84.2565V32.7955ZM81.4402 26.0864H81.3813C80.9959 25.6267 80.2546 25.2121 79.3219 25.2121C77.3656 25.2121 75.5729 26.9303 75.5729 29.1376C75.5729 31.3292 77.3656 33.0327 79.3219 33.0327C80.2555 33.0327 80.9959 32.6181 81.3813 32.1446H81.4402V32.7072C81.4402 34.203 80.64 35.0028 79.3513 35.0028C78.2991 35.0028 77.647 34.248 77.3803 33.6109L75.8838 34.2333C76.3133 35.2694 77.4539 36.5435 79.3513 36.5435C81.3666 36.5435 83.0709 35.3585 83.0709 32.4701V25.4502H81.4411L81.4402 26.0864ZM79.47 31.4928C78.2844 31.4928 77.292 30.5 77.292 29.1376C77.292 27.7595 78.2844 26.7529 79.47 26.7529C80.64 26.7529 81.5588 27.7595 81.5588 29.1376C81.5588 30.5 80.64 31.4928 79.47 31.4928ZM101.895 21.3032H97.7827V32.7955H99.4981V28.4417H101.894C103.796 28.4417 105.667 27.0654 105.667 24.8729C105.667 22.6803 103.797 21.3032 101.895 21.3032ZM101.939 26.8421H99.4981V22.9028H101.939C103.222 22.9028 103.951 23.9646 103.951 24.8729C103.951 25.7628 103.222 26.8421 101.939 26.8421ZM112.546 25.1919C111.303 25.1919 110.017 25.7389 109.484 26.9515L111.007 27.5867C111.333 26.9515 111.94 26.7437 112.575 26.7437C113.463 26.7437 114.365 27.276 114.38 28.2219V28.3405C114.069 28.1631 113.403 27.8974 112.59 27.8974C110.948 27.8974 109.276 28.7993 109.276 30.4844C109.276 32.0224 110.623 33.0125 112.131 33.0125C113.285 33.0125 113.921 32.4949 114.32 31.8881H114.379V32.7753H116.037V28.369C116.037 26.33 114.512 25.1919 112.546 25.1919ZM112.338 31.4901C111.777 31.4901 110.993 31.2088 110.993 30.5138C110.993 29.6266 111.969 29.2865 112.813 29.2865C113.566 29.2865 113.922 29.4492 114.38 29.6708C114.247 30.7362 113.33 31.4901 112.338 31.4901ZM122.072 25.4429L120.105 30.4255H120.046L118.004 25.4429H116.155L119.217 32.4066L117.471 36.2806H119.261L123.981 25.4429H122.072ZM106.614 32.7955H108.33V21.3032H106.614V32.7955Z" fill="white"/>
<path d="M51.9552 14.5057C51.9552 15.2621 51.7273 15.8642 51.2706 16.3137C50.7523 16.848 50.076 17.1152 49.2452 17.1152C48.4494 17.1152 47.7722 16.8444 47.2162 16.3028C46.6593 15.7603 46.3809 15.0888 46.3809 14.2872C46.3809 13.4848 46.6593 12.8132 47.2162 12.2716C47.7722 11.7291 48.4494 11.4583 49.2452 11.4583C49.6404 11.4583 50.0181 11.5341 50.3765 11.6849C50.7358 11.8365 51.0234 12.0378 51.2384 12.2896L50.7541 12.7663C50.3893 12.3375 49.8867 12.1236 49.2443 12.1236C48.6635 12.1236 48.1618 12.324 47.7381 12.7247C47.3145 13.1255 47.1032 13.6463 47.1032 14.2863C47.1032 14.9263 47.3145 15.4471 47.7381 15.8479C48.1618 16.2487 48.6635 16.4491 49.2443 16.4491C49.86 16.4491 50.3737 16.2478 50.7845 15.8443C51.051 15.5816 51.2053 15.2161 51.2467 14.7476H49.2443V14.0968H51.9157C51.9433 14.2385 51.9552 14.3748 51.9552 14.5057Z" fill="white"/>
<path d="M56.1917 12.2437H53.6811V13.9605H55.9454V14.6113H53.6811V16.3282H56.1917V16.9943H52.9726V11.5784H56.1917V12.2437Z" fill="white"/>
<path d="M59.1791 16.9943H58.4706V12.2437H56.9304V11.5784H60.7192V12.2437H59.1791V16.9943Z" fill="white"/>
<path d="M63.4604 16.9943V11.5784H64.1689V16.9943H63.4604Z" fill="white"/>
<path d="M67.311 16.9943H66.6025V12.2437H65.0623V11.5784H68.8511V12.2437H67.311V16.9943Z" fill="white"/>
<path d="M76.0233 16.2948C75.4812 16.8418 74.8076 17.1153 74.0016 17.1153C73.1957 17.1153 72.5221 16.8418 71.9809 16.2948C71.4387 15.7478 71.1685 15.078 71.1685 14.2864C71.1685 13.4947 71.4387 12.825 71.9809 12.278C72.5221 11.7309 73.1957 11.4565 74.0016 11.4565C74.803 11.4565 75.4756 11.7319 76.0197 12.2816C76.5637 12.8313 76.8357 13.4992 76.8357 14.2864C76.8357 15.078 76.5646 15.7478 76.0233 16.2948ZM72.5038 15.8407C72.9118 16.2469 73.4108 16.4491 74.0016 16.4491C74.5925 16.4491 75.0924 16.246 75.4995 15.8407C75.9075 15.4345 76.1125 14.9164 76.1125 14.2864C76.1125 13.6563 75.9075 13.1382 75.4995 12.732C75.0924 12.3258 74.5925 12.1236 74.0016 12.1236C73.4108 12.1236 72.9118 12.3267 72.5038 12.732C72.0967 13.1382 71.8917 13.6563 71.8917 14.2864C71.8917 14.9164 72.0967 15.4345 72.5038 15.8407Z" fill="white"/>
<path d="M77.83 16.9943V11.5784H78.692L81.3717 15.7911H81.402L81.3717 14.7476V11.5784H82.0802V16.9943H81.3404L78.5367 12.5767H78.5064L78.5367 13.6202V16.9943H77.83Z" fill="white"/>
<path d="M51.9552 14.5057C51.9552 15.2621 51.7273 15.8642 51.2706 16.3137C50.7523 16.848 50.076 17.1152 49.2452 17.1152C48.4494 17.1152 47.7722 16.8444 47.2162 16.3028C46.6593 15.7603 46.3809 15.0888 46.3809 14.2872C46.3809 13.4848 46.6593 12.8132 47.2162 12.2716C47.7722 11.7291 48.4494 11.4583 49.2452 11.4583C49.6404 11.4583 50.0181 11.5341 50.3765 11.6849C50.7358 11.8365 51.0234 12.0378 51.2384 12.2896L50.7541 12.7663C50.3893 12.3375 49.8867 12.1236 49.2443 12.1236C48.6635 12.1236 48.1618 12.324 47.7381 12.7247C47.3145 13.1255 47.1032 13.6463 47.1032 14.2863C47.1032 14.9263 47.3145 15.4471 47.7381 15.8479C48.1618 16.2487 48.6635 16.4491 49.2443 16.4491C49.86 16.4491 50.3737 16.2478 50.7845 15.8443C51.051 15.5816 51.2053 15.2161 51.2467 14.7476H49.2443V14.0968H51.9157C51.9433 14.2385 51.9552 14.3748 51.9552 14.5057Z" stroke="white" stroke-width="0.0377249" stroke-miterlimit="10"/>
<path d="M56.1917 12.2437H53.6811V13.9605H55.9454V14.6113H53.6811V16.3282H56.1917V16.9943H52.9726V11.5784H56.1917V12.2437Z" stroke="white" stroke-width="0.0377249" stroke-miterlimit="10"/>
<path d="M59.1791 16.9943H58.4706V12.2437H56.9304V11.5784H60.7192V12.2437H59.1791V16.9943Z" stroke="white" stroke-width="0.0377249" stroke-miterlimit="10"/>
<path d="M63.4604 16.9943V11.5784H64.1689V16.9943H63.4604Z" stroke="white" stroke-width="0.0377249" stroke-miterlimit="10"/>
<path d="M67.311 16.9943H66.6025V12.2437H65.0623V11.5784H68.8511V12.2437H67.311V16.9943Z" stroke="white" stroke-width="0.0377249" stroke-miterlimit="10"/>
<path d="M76.0233 16.2948C75.4812 16.8418 74.8076 17.1153 74.0016 17.1153C73.1957 17.1153 72.5221 16.8418 71.9809 16.2948C71.4387 15.7478 71.1685 15.078 71.1685 14.2864C71.1685 13.4947 71.4387 12.825 71.9809 12.278C72.5221 11.7309 73.1957 11.4565 74.0016 11.4565C74.803 11.4565 75.4756 11.7319 76.0197 12.2816C76.5637 12.8313 76.8357 13.4992 76.8357 14.2864C76.8357 15.078 76.5646 15.7478 76.0233 16.2948ZM72.5038 15.8407C72.9118 16.2469 73.4108 16.4491 74.0016 16.4491C74.5925 16.4491 75.0924 16.246 75.4995 15.8407C75.9075 15.4345 76.1125 14.9164 76.1125 14.2864C76.1125 13.6563 75.9075 13.1382 75.4995 12.732C75.0924 12.3258 74.5925 12.1236 74.0016 12.1236C73.4108 12.1236 72.9118 12.3267 72.5038 12.732C72.0967 13.1382 71.8917 13.6563 71.8917 14.2864C71.8917 14.9164 72.0967 15.4345 72.5038 15.8407Z" stroke="white" stroke-width="0.0377249" stroke-miterlimit="10"/>
<path d="M77.83 16.9943V11.5784H78.692L81.3717 15.7911H81.402L81.3717 14.7476V11.5784H82.0802V16.9943H81.3404L78.5367 12.5767H78.5064L78.5367 13.6202V16.9943H77.83Z" stroke="white" stroke-width="0.0377249" stroke-miterlimit="10"/>
<defs>
<filter id="filter0_ii_4067_3408" x="19.5195" y="11.4272" width="22.4883" height="25.1455" filterUnits="userSpaceOnUse" color-interpolation-filters="sRGB">
<feFlood flood-opacity="0" result="BackgroundImageFix"/>
<feBlend mode="normal" in="SourceGraphic" in2="BackgroundImageFix" result="shape"/>
<feColorMatrix in="SourceAlpha" type="matrix" values="0 0 0 0 0 0 0 0 0 0 0 0 0 0 0 0 0 0 127 0" result="hardAlpha"/>
<feOffset dy="-0.146648"/>
<feComposite in2="hardAlpha" operator="arithmetic" k2="-1" k3="1"/>
<feColorMatrix type="matrix" values="0 0 0 0 0 0 0 0 0 0 0 0 0 0 0 0 0 0 0.12 0"/>
<feBlend mode="normal" in2="shape" result="effect1_innerShadow_4067_3408"/>
<feColorMatrix in="SourceAlpha" type="matrix" values="0 0 0 0 0 0 0 0 0 0 0 0 0 0 0 0 0 0 127 0" result="hardAlpha"/>
<feOffset dy="0.146648"/>
<feComposite in2="hardAlpha" operator="arithmetic" k2="-1" k3="1"/>
<feColorMatrix type="matrix" values="0 0 0 0 1 0 0 0 0 1 0 0 0 0 1 0 0 0 0.25 0"/>
<feBlend mode="normal" in2="effect1_innerShadow_4067_3408" result="effect2_innerShadow_4067_3408"/>
</filter>
<filter id="filter1_i_4067_3408" x="19.9707" y="23.9995" width="16.25" height="12.5732" filterUnits="userSpaceOnUse" color-interpolation-filters="sRGB">
<feFlood flood-opacity="0" result="BackgroundImageFix"/>
<feBlend mode="normal" in="SourceGraphic" in2="BackgroundImageFix" result="shape"/>
<feColorMatrix in="SourceAlpha" type="matrix" values="0 0 0 0 0 0 0 0 0 0 0 0 0 0 0 0 0 0 127 0" result="hardAlpha"/>
<feOffset dy="-0.146648"/>
<feComposite in2="hardAlpha" operator="arithmetic" k2="-1" k3="1"/>
<feColorMatrix type="matrix" values="0 0 0 0 0 0 0 0 0 0 0 0 0 0 0 0 0 0 0.08 0"/>
<feBlend mode="normal" in2="shape" result="effect1_innerShadow_4067_3408"/>
</filter>
<linearGradient id="paint0_linear_4067_3408" x1="31.0381" y1="12.9599" x2="14.6312" y2="29.303" gradientUnits="userSpaceOnUse">
<stop stop-color="#00A0FF"/>
<stop offset="0.0066" stop-color="#00A1FF"/>
<stop offset="0.2601" stop-color="#00BEFF"/>
<stop offset="0.5122" stop-color="#00D2FF"/>
<stop offset="0.7604" stop-color="#00DFFF"/>
<stop offset="1" stop-color="#00E3FF"/>
</linearGradient>
<linearGradient id="paint1_linear_4067_3408" x1="42.758" y1="23.9993" x2="19.1947" y2="23.9993" gradientUnits="userSpaceOnUse">
<stop stop-color="#FFE000"/>
<stop offset="0.4087" stop-color="#FFBD00"/>
<stop offset="0.7754" stop-color="#FFA500"/>
<stop offset="1" stop-color="#FF9C00"/>
</linearGradient>
<linearGradient id="paint2_linear_4067_3408" x1="33.9865" y1="26.2422" x2="11.7367" y2="48.4055" gradientUnits="userSpaceOnUse">
<stop stop-color="#FF3A44"/>
<stop offset="1" stop-color="#C31162"/>
</linearGradient>
<linearGradient id="paint3_linear_4067_3408" x1="16.9142" y1="4.61873" x2="26.8493" y2="14.5153" gradientUnits="userSpaceOnUse">
<stop stop-color="#32A071"/>
<stop offset="0.0685" stop-color="#2DA771"/>
<stop offset="0.4762" stop-color="#15CF74"/>
<stop offset="0.8009" stop-color="#06E775"/>
<stop offset="1" stop-color="#00F076"/>
</linearGradient>
</defs>
</svg>
