<svg width="217" height="108" viewBox="0 0 217 108" fill="none" xmlns="http://www.w3.org/2000/svg">
<g clip-path="url(#clip0_1704_12131)">
<path d="M104.952 58.9435C104.952 67.1749 110.771 72.9922 118.622 72.9922C120.372 72.9922 122.408 72.472 123.683 71.4783V68.6877C122.832 69.3973 120.751 70.2017 118.622 70.2017C112.189 70.2017 107.837 65.661 107.837 58.9435C107.837 52.558 112.474 47.78 118.622 47.78C124.725 47.78 129.171 52.2739 129.171 58.5647V72.1879H132.009V58.5179C132.009 50.6653 126.475 44.8947 118.622 44.8947C110.912 44.8947 104.952 50.9973 104.952 58.9435ZM123.683 64.5726L123.636 64.5246C122.454 65.4704 120.515 66.0386 118.669 66.0386C114.886 66.0386 112.047 63.2013 112.047 58.9914C112.047 54.9698 114.838 51.8951 118.575 51.8951C122.596 51.8951 125.056 54.8283 125.056 58.7541V72.1879H127.846V58.6126C127.846 53.125 124.015 49.1046 118.622 49.1046C113.277 49.1046 109.162 53.125 109.162 58.9914C109.162 64.8087 113.23 68.9718 118.622 68.8303C120.658 68.7824 122.738 68.026 123.683 67.3632V64.5726ZM135.036 51.0908C135.888 50.0036 136.834 48.8205 137.828 47.8279V35.0079H135.036V51.0908ZM139.199 35.0079V46.7874C140.05 46.1246 140.997 45.3203 141.991 44.9415V35.0079H139.199ZM141.991 57.903H141.896L139.719 60.883C140.097 64.2885 143.552 68.8303 148.754 68.8303C154.052 68.8303 157.883 64.5246 157.883 58.8956C157.883 53.2676 153.957 49.1046 148.566 49.1046C143.314 49.1046 140.287 52.9356 138.159 55.7741C137.118 57.1454 135.321 59.369 133.333 62.1596V66.7015C135.177 63.9576 137.685 60.7415 139.53 58.5179C142.653 54.7804 144.544 51.9431 148.518 51.9431C152.397 51.9431 155.046 54.923 155.046 58.8956C155.046 63.0107 152.538 66.0386 148.754 66.0386C144.78 66.0386 141.991 62.3969 141.991 58.3286V57.903ZM133.333 55.8221V59.9372C134.989 57.7136 136.408 55.7741 137.733 54.1666C141.091 50.0503 144.024 47.78 148.566 47.78C154.714 47.78 159.208 52.4165 159.208 58.9435C159.208 65.329 154.809 70.2017 148.754 70.2017C143.836 70.2017 139.578 66.8429 138.585 62.2555L136.597 64.9514C138.159 69.4441 142.747 72.9922 148.707 72.9922C156.369 72.9922 162 66.8429 162 58.9435C162 50.9494 156.322 44.9415 148.566 44.9415C140.524 44.9415 136.834 50.9494 133.333 55.8221ZM89.5789 72.1879H92.3695V57.5722C92.3695 51.8004 96.2484 47.8747 101.878 47.8747C103.769 47.8747 105.709 48.4896 106.561 49.0099C107.08 48.3949 107.649 47.7332 108.406 47.1183C106.656 45.8884 104.291 45.1788 101.736 45.1788C94.309 45.1788 89.5789 50.193 89.5789 57.6189V72.1879ZM93.694 57.5722V72.1879H96.4858V57.6189C96.4858 54.3549 98.6135 52.0378 101.783 52.0378C102.73 52.0378 103.58 52.2739 104.48 52.6527C104.858 51.7537 105.236 50.9973 105.709 50.2877C104.716 49.6248 103.249 49.1993 101.83 49.1993C97.0528 49.1993 93.694 52.6527 93.694 57.5722ZM55 55.1592C55 65.3769 62.5686 72.9922 72.7384 72.9922C82.0103 72.9922 87.6861 67.1749 87.6861 57.7604V52.9356H73.0704V55.6794H85.0382V58.2339C85.0382 65.6131 80.4496 70.2017 72.7384 70.2017C64.2719 70.2017 57.98 63.7203 57.98 55.1592C57.98 46.8342 64.6028 40.2593 73.1651 40.2593C77.2323 40.2593 80.9219 41.2531 83.7136 43.1914V40.4008C81.0166 38.4613 77.4696 37.4676 73.1651 37.4676C62.8994 37.4676 55 45.2735 55 55.1592ZM59.3992 55.1592C59.3992 62.8692 65.2189 68.7824 72.7384 68.7824C79.9773 68.7824 83.6189 64.0991 83.6189 58.9435V57.0987H73.0704V59.9372H80.7337C80.7804 62.7278 78.2272 65.9918 72.7384 65.9918C66.6849 65.9918 62.4751 61.4979 62.4751 55.1592C62.4751 49.0566 67.0157 44.4692 73.2598 44.4692C77.327 44.4692 80.5443 45.4617 83.5242 47.5438L83.7136 47.4012V44.7533C81.4901 43.1914 77.7058 41.6774 73.1651 41.6774C65.455 41.6774 59.3992 47.6385 59.3992 55.1592Z" fill="#00B14F"/>
</g>
<defs>
<clipPath id="clip0_1704_12131">
<rect width="107" height="37.9844" fill="white" transform="translate(55 35.0078)"/>
</clipPath>
</defs>
</svg>
