<svg xmlns="http://www.w3.org/2000/svg" width="258" height="281" fill="none"><g clip-path="url(#a)"><path fill="#015AFE" d="m257.288 95.935 17.29 19.989-17.421 9.754-146.892 82.257-19.95-21.003 166.973-90.315v-.682Z"/><path fill="#EBEBEB" d="M257.287 125.889v70.486l-25.719 14.29V174.86c-29.052-3.482-46.743 23.101-46.743 23.101v39.387l-36.749 21.003v-43.05l-50.415 26.583-3.262 1.726-4.064 2.137v-58.805l19.95 21.003 146.902-82.257.12.221-.02-.02Z"/><path fill="#C0D1FF" d="M257.288 95.934v.683l-44.927-25.95 44.806-24.516.121.07v49.713Z"/><path fill="#EBEBEB" d="M257.288 96.617 90.315 186.932v-49.483l18.013-9.854v7.165l1.606-.913v-7.125l4.295-2.348-1.114 6.021 1.515-.863 1.014-5.931 5.158-2.82v7.165l1.043-.642v-7.095l1.054-.572 1.736 3.844 1.606-.251-2.228-4.205 18.224-9.965v8.62l1.465-.742v-8.68l1.475-.803 19.277 10.717v12.534l1.606-.923v-12.474l5.398-2.91-2.217 11.922 1.505-.863 2.017-11.772 4.155-2.247v12.433l1.033-.642v-10.005l2.79 6.171 1.616-.251-4.396-8.278 2.047-1.104-1.244-.723s-.482-9.774 1.244-10.888l-9.011-4.084-.331-.592L178.844 89v3.763l1.606-.913v-3.723l3.602-1.966-.411 2.227 1.505-.863.372-2.167 5.81-3.181v3.763l1.033-.643v-3.692l2.288-1.245.502 1.114 1.606-.25-.823-1.566 16.437-9.002 44.927 25.96h-.01Z"/><path fill="#C0D1FF" d="m257.167 46.151-44.806 24.515-18.003-10.396s.04-.03.05-.04l-.551-.25-18.365-10.618-.09.05-.03-.05V0l81.795 46.14v.011Z"/><path fill="#EBEBEB" d="m212.361 70.666-16.437 9.002-3.562-6.724 2.047-1.104-1.245-.722s-.471-9.573 1.195-10.848l18.002 10.396Z"/><path fill="#000A8F" d="m195.924 79.668.833 1.555-1.606.251-.502-1.114 1.275-.692Z"/><path fill="#000A8F" d="m192.362 72.945 3.562 6.723-1.274.693-2.288-5.068v-2.348Z"/><path fill="#EBEBEB" d="m192.362 75.292 2.288 5.068-2.288 1.244v-6.312Z"/><path fill="#C0D1FF" d="m180.45 79.377-1.606.863-20.672-11.5-1.545-.853-1.987-1.114 9.935-6.101c.331 2.057.812 4.375.812 4.375l10.377 5.309 5.238-3.141-6.282-3.181-.201-1.215s-4.235-2.258-7.225-3.823l2.418-1.485 14.049 8.148 9.403 5.46 1.245.722-2.048 1.104-1.033.562-4.155 2.247-1.314.713-5.399 2.91h-.01ZM193.856 59.98l.502.29c-1.666 1.275-1.194 10.848-1.194 10.848l-9.403-5.46c-.652-5.559 1.635-9.502 1.635-9.502l8.46 3.823Z"/><path fill="#EBEBEB" d="m193.857 59.98-8.46-3.824s-2.298 3.944-1.636 9.503l-14.049-8.148-2.418 1.485c-1.495-.793-2.689-1.405-2.9-1.485h-.06l-.713-1.225 11.771-6.874.09-.05 18.365 10.617h.01Z"/><path fill="#000A8F" d="M192.361 81.604v3.703l-1.033.632v-3.763l1.033-.572Z"/><path fill="#000A8F" d="M192.361 75.293v6.312l-1.033.572v-8.67l1.033-.562v2.348Z"/><path fill="#EBEBEB" d="M191.328 73.506v8.67l-5.81 3.182 1.646-9.604 4.164-2.248Z"/><path fill="#000A8F" d="m187.163 75.754-1.645 9.603-1.466.803 1.797-9.694 1.314-.712Z"/><path fill="#EBEBEB" d="m185.849 76.466-1.797 9.694-3.602 1.967v-8.75l5.399-2.91Z"/><path fill="#000A8F" d="m185.518 85.357-.372 2.168-1.505.863.412-2.228 1.465-.803ZM177.961 110.857l4.396 8.289-1.606.241-2.79-6.162v-2.368ZM181.002 67.214l-5.239 3.141-1.043-6.322 6.282 3.181ZM180.45 88.127v3.723l-1.606.913V89.01l1.606-.883Z"/><path fill="#000A8F" d="M180.45 79.377v8.75l-1.606.884v-8.77l1.606-.864Z"/><path fill="#C0D1FF" d="m170.996 94.068 9.012 4.084c-1.726 1.114-1.245 10.888-1.245 10.888l-9.413-5.469c-.652-5.56 1.636-9.503 1.636-9.503h.01Z"/><path fill="#C0D1FF" d="m166.049 117.289-1.606.863-19.277-10.717 7.035-3.844 9.162 4.686 5.238-3.14-6.282-3.181-.201-1.215-1.385-.742 2.298-1.245 8.319 4.817 9.413 5.469 1.245.723-2.048 1.103-1.033.562-4.155 2.248-1.314.713-5.399 2.91-.01-.01Z"/><path fill="#EBEBEB" d="M178.844 80.24v8.77l-8.179 4.476-9.633 5.278-5.73-3.321-2.419 1.485c-1.495-.793-2.689-1.405-2.9-1.485-.281-.11-.1 1.435.171 3.16l-9.935 6.102 1.987 1.114v3.241l-18.224 9.965-2.167-4.084 2.047-1.104-1.244-.723s-.482-9.773 1.244-10.887l-9.011-4.075s-2.298 3.944-1.646 9.503l-14.04-8.148-2.418 1.485c-1.505-.792-2.689-1.405-2.9-1.485h-.06l-1.084-1.846 70.888-41.365.712 1.225c-.201.12-.02 1.565.231 3.16l-9.935 6.102 1.987 1.114v11.861l1.465-.742V68.89l.081-.14 20.672 11.5.04-.01Z"/><path fill="#000A8F" d="M177.961 113.225v9.995l-1.034.642v-12.433l1.034-.572v2.368Z"/><path fill="#C0D1FF" d="m175.402 49.423-11.781 6.864L92.734 97.65 57.57 118.162l-43.813-25.8L175.372.01v49.352l.03.06Z"/><path fill="#000A8F" d="m172.763 113.667-2.017 11.781-1.505.863 2.208-11.932 1.314-.712ZM166.602 105.137l-5.239 3.141-1.043-6.322 6.282 3.181ZM166.049 117.29v12.483l-1.605.923v-12.544l1.605-.862Z"/><path fill="#C0D1FF" d="m155.312 95.433 5.73 3.321-2.298 1.245a977.867 977.867 0 0 0-5.85-3.081l2.418-1.485Z"/><path fill="#000A8F" d="m158.172 68.74-.08.14v10.126l-1.465.742V67.887l1.545.853Z"/><path fill="#C0D1FF" d="m152.201 103.592-7.034 3.843-1.395-.773-1.545-.853-1.987-1.113 9.934-6.102c.332 2.057.813 4.376.813 4.376l1.225.622h-.011Z"/><path fill="#000A8F" d="m143.772 106.662 1.395.773-1.475.803v-1.445l.08-.131Z"/><path fill="#000A8F" d="m143.772 106.662-.081.131v1.445l-1.465.812v-3.251l1.546.863ZM143.691 108.238v8.68l-1.465.742v-8.61l1.465-.812ZM124.013 119.015l2.228 4.205-1.606.241-1.736-3.834 1.114-.612Z"/><path fill="#000A8F" d="m121.845 114.931 2.168 4.084-1.114.612-1.054-2.338v-2.358Z"/><path fill="#C0D1FF" d="m114.881 98.142 9.012 4.075c-1.726 1.113-1.245 10.887-1.245 10.887l-9.413-5.459c-.652-5.559 1.646-9.503 1.646-9.503ZM120.802 115.503l-4.155 2.238-1.324.722-5.389 2.91-1.606.863-20.672-11.5-1.545-.853-1.987-1.114 9.934-6.101c.332 2.057.813 4.375.813 4.375l10.376 5.309 5.249-3.141-6.282-3.191-.201-1.205s-4.225-2.247-7.225-3.823l2.418-1.485 14.039 8.148 9.413 5.459 1.245.723-2.048 1.104-1.043.562h-.01Z"/><path fill="#000A8F" d="m121.845 117.29 1.054 2.338-1.054.572v-2.91ZM121.845 120.199v7.095l-1.043.642v-7.165l1.043-.572Z"/><path fill="#000A8F" d="M121.845 117.289v2.91l-1.043.572v-5.268l1.043-.572v2.358Z"/><path fill="#EBEBEB" d="M120.802 115.503v5.269l-5.158 2.809 1.003-5.84v-.01l4.155-2.228Z"/><path fill="#000A8F" d="m116.647 117.74-1.003 5.841-1.415.782 1.094-5.91 1.324-.713ZM114.229 124.364l1.415-.783-1.014 5.931-1.515.863 1.114-6.011Z"/><path fill="#EBEBEB" d="m115.323 118.453-1.094 5.911-4.295 2.348v-5.349l5.389-2.91Z"/><path fill="#C0D1FF" d="M97.65 241.874c13.658 2.077 23.322 7.195 23.322 13.185 0 6.453-11.239 11.902-26.593 13.608V243.61l3.262-1.726.01-.01Z"/><path fill="#000A8F" d="m110.486 109.211-5.248 3.141-1.034-6.332 6.282 3.191ZM109.934 126.712v7.135l-1.606.913v-7.165l1.606-.883ZM109.934 121.364v5.348l-1.606.883v-5.368l1.606-.863Z"/><path fill="#EBEBEB" d="M108.328 122.227v5.368l-18.013 9.855-32.744-19.288 35.172-20.511 1.084 1.846c-.2.12-.02 1.566.23 3.161l-9.934 6.102 1.987 1.113v11.862l1.465-.743v-10.125l.08-.14 20.673 11.5Z"/><path fill="#C0D1FF" d="M94.38 268.657v9.503l-4.065 2.98v-35.403l4.065-2.137v25.057Z"/><path fill="#015AFE" d="M90.316 245.737v35.403l-4.767-2.268v-35.995l4.767 2.86Z"/><path fill="#EBEBEB" d="M90.316 191.929v53.808l-4.767-2.86-3.261-1.967-58.735-35.413-4.687-2.82-5.218-3.141-.602-27.325 63.612 35.724 13.658-21.003v4.997Z"/><path fill="#EBEBEB" d="M90.316 137.58v49.352l-76.667-43.14 32.202-18.786v22.92l30.336 16.397v-22.538l-30.145-16.889 11.53-6.734 32.744 19.288v.13Z"/><path fill="#015AFE" d="m90.315 186.932-13.657 21.003-63.612-35.724L0 164.875l13.648-21.083 76.667 43.14Z"/><path fill="#000A8F" d="m87.656 110.726-.08.141v10.125l-1.465.743v-11.862l1.545.853Z"/><path fill="#C0D1FF" d="M55.433 255.581c-1.535 1.425-2.89 3.673-3.712 6.001-2.83-1.956-4.466-4.174-4.466-6.532 0-1.205.341-2.379 1.003-3.483 1.044-.2 2.098-.471 3.161-.802 2.309-.723 3.703-1.847 4.506-3.121.612-.953.893-1.997.984-2.98 6.201-2.489 15.323-3.764 25.368-3.764l3.261 1.967v26.342c-2.99 0-6.352-.301-9.192-.562.171-2.348-.722-4.375-.722-4.375-1.907-1.365-4.787 1.365-7.245-2.318-2.449-3.683-3.854-4.797-8.059-7.516-1.545-1.004-3.311-.362-4.897 1.143h.01Z"/><path fill="#fff" d="M75.634 264.282s.893 2.027.723 4.375c-.07 1.034-.342 2.138-.994 3.161-14.039 5.48-13.678-9.854-14.5-13.677-.793-3.703-5.128-2.63-5.42-2.549 1.586-1.506 3.342-2.138 4.898-1.144 4.204 2.719 5.6 3.823 8.058 7.516 2.458 3.683 5.338.953 7.245 2.318h-.01Z"/><path fill="#EBEBEB" d="M75.353 271.818c-.803 1.275-2.198 2.398-4.506 3.121-8.33 2.599-16.417 1.485-19.538-6.693-.693-1.797-.412-4.275.421-6.654.823-2.328 2.178-4.576 3.713-6.001.281-.08 4.626-1.153 5.419 2.549.823 3.824.462 19.167 14.5 13.678h-.01Z"/><path fill="#C0D1FF" d="m57.572 118.162-11.53 6.734-.191-.111v.221l-32.202 18.786v-51.38l.11-.05 43.813 25.8Z"/><path fill="#fff" d="M56.92 244.663c-.091.984-.362 2.027-.984 2.981-14.04 5.469-13.688-9.855-14.511-13.678-.823-3.823-5.419-2.549-5.419-2.549 1.586-1.505 3.352-2.137 4.897-1.144 4.215 2.72 5.6 3.823 8.068 7.516 2.459 3.683 5.329.954 7.246 2.318 0 0 .933 2.128.712 4.556h-.01Z"/><path fill="#EBEBEB" d="M48.269 251.567c-7.155 1.405-13.658-.351-16.388-7.486-1.354-3.563 1.024-9.744 4.115-12.654 0 0 4.606-1.275 5.419 2.549.822 3.823.471 19.157 14.51 13.677-.803 1.275-2.197 2.399-4.506 3.121a28.721 28.721 0 0 1-3.16.803l.01-.01Z"/><path fill="#015AFE" d="m23.552 205.497.2 40.502-4.977 2.889v-46.07l.09-.141 4.687 2.82Z"/><path fill="#C0D1FF" d="m18.867 202.677-.09.141v46.07l-5.128-3.15v-46.202l5.218 3.141Z"/><path stroke="#2458F1" stroke-miterlimit="10" stroke-width="3.01" d="M13.649 143.792v-51.38l.11-.05L175.373.01l81.795 46.141.121.07v50.396L90.316 186.932l-76.667-43.14Z"/><path stroke="#2458F1" stroke-miterlimit="10" stroke-width="3.01" d="m257.288 96.617-44.927-25.95-18.003-10.397-.501-.29-18.364-10.618-.091.06-11.781 6.864-70.887 41.365-35.163 20.511-11.53 6.734-.19.11-32.203 18.786L0 164.875l13.046 7.336 63.612 35.724 13.657-21.003 19.95 21.003 146.893-82.257 17.42-9.754-17.29-19.99M97.65 241.874l50.417-26.583v43.05l36.748-21.003v-39.387s17.692-26.583 46.743-23.101v35.805l25.72-14.29v-70.486M13.046 172.211l.603 27.325 5.218 3.141 4.686 2.82 58.735 35.414 3.261 1.966 4.767 2.86 4.064-2.137 3.261-1.726"/><path stroke="#2458F1" stroke-miterlimit="10" stroke-width=".502" d="m13.649 92.293.11.07 43.813 25.8 32.744 19.287 18.013-9.854 1.606-.883 4.295-2.348 1.415-.783 5.158-2.81 1.043-.572 1.054-.572 1.114-.612 18.213-9.965 1.466-.812 1.475-.803 7.034-3.844 6.543-3.592 2.288-1.245 9.634-5.278 8.178-4.466 1.606-.883 3.602-1.966 1.465-.803 5.811-3.181 1.033-.572 2.288-1.245 1.275-.692 16.437-9.002 44.806-24.515.121-.07M13.649 199.536v46.202l5.128 3.15v-46.07"/><path stroke="#2458F1" stroke-miterlimit="10" stroke-width=".502" d="m18.776 248.889 4.977-2.89-.2-40.502M85.55 242.877V278.873l4.766 2.268V137.58M94.38 243.6v34.561l-4.064 2.98M55.926 247.654c-.803 1.274-2.198 2.398-4.506 3.121a28.493 28.493 0 0 1-3.161.802c-7.155 1.405-13.658-.351-16.387-7.486-1.355-3.562 1.023-9.744 4.114-12.654 1.586-1.505 3.352-2.137 4.897-1.144 4.215 2.72 5.6 3.823 8.068 7.516 2.459 3.683 5.329.954 7.246 2.319 0 0 .933 2.127.712 4.555-.09.984-.361 2.027-.983 2.981"/><path stroke="#2458F1" stroke-miterlimit="10" stroke-width=".502" d="M35.996 231.417s4.606-1.275 5.419 2.549c.823 3.823.472 19.157 14.51 13.678M75.353 271.818c-.803 1.275-2.198 2.399-4.506 3.121-8.329 2.599-16.417 1.485-19.538-6.693-.692-1.796-.411-4.275.421-6.653.823-2.329 2.178-4.576 3.713-6.001 1.586-1.506 3.342-2.138 4.897-1.144 4.205 2.719 5.6 3.823 8.059 7.516 2.458 3.683 5.338.953 7.245 2.318 0 0 .893 2.027.722 4.375-.07 1.034-.34 2.138-.993 3.161"/><path stroke="#2458F1" stroke-miterlimit="10" stroke-width=".502" d="M55.423 255.582h.01c.281-.08 4.627-1.154 5.42 2.549.822 3.823.46 19.167 14.5 13.678M116.647 117.741l-1.324.712-5.389 2.91-1.606.863-20.672-11.5-1.545-.853-1.987-1.113 9.925-6.102M96.778 100.993l2.408-1.496 14.039 8.149 9.423 5.459 1.244.722-2.047 1.104-1.043.572-4.155 2.228M86.111 109.874v11.861l1.465-.743v-10.125"/><path stroke="#2458F1" stroke-miterlimit="10" stroke-width=".502" d="M108.328 122.227V134.76l1.606-.913v-12.744M122.649 113.104s-.482-9.774 1.244-10.887l-9.012-4.075s-2.298 3.944-1.645 9.503M121.846 117.29l1.053 2.338 1.736 3.833 1.606-.241-2.228-4.204-2.167-4.085v2.359Zm0 0V127.295l-1.044.642v-12.444M116.648 117.731v.01l-1.004 5.84-1.013 5.931-1.516.863 1.114-6.011 1.094-5.911v-.01M105.238 112.352l-10.377-5.308s-.481-2.318-.812-4.376c-.251-1.595-.432-3.04-.231-3.16h.06c.2.08 1.395.692 2.9 1.485 3 1.575 7.225 3.823 7.225 3.823l.201 1.204 1.034 6.332Z"/><path stroke="#2458F1" stroke-miterlimit="10" stroke-width=".502" d="m105.238 112.352 5.248-3.141-6.282-3.191-.2-.1M167.294 58.996l2.419-1.485 14.039 8.148 9.413 5.46 1.244.722-2.047 1.104-1.034.562-4.164 2.247-1.315.713-5.399 2.91-1.605.863-20.673-11.5-1.545-.853-1.987-1.114 9.935-6.101M156.627 67.887v11.861l1.465-.742V68.88"/><path stroke="#2458F1" stroke-miterlimit="10" stroke-width=".502" d="M178.844 80.24v12.524l1.606-.913V79.116M193.164 71.119s-.471-9.574 1.194-10.848c.01-.02.041-.03.051-.04l-.552-.251-8.46-3.824s-2.298 3.944-1.636 9.503M192.362 75.293l2.288 5.068.501 1.113 1.606-.25-.833-1.556-3.562-6.723v2.348Zm0 0v10.015l-1.034.632V73.507M187.164 75.754l-1.646 9.604-.371 2.167-1.505.863.411-2.227 1.796-9.694M175.763 70.356l-10.376-5.309s-.481-2.318-.813-4.375c-.25-1.596-.431-3.04-.23-3.161h.06c.211.08 1.405.692 2.9 1.485 3 1.565 7.225 3.823 7.225 3.823l.201 1.215 1.044 6.322h-.011Z"/><path stroke="#2458F1" stroke-miterlimit="10" stroke-width=".502" d="m175.764 70.356 5.238-3.14-6.282-3.182-.201-.1M152.894 96.918l2.419-1.485 5.72 3.321 8.319 4.817 9.412 5.469 1.245.723-2.047 1.094-1.034.572-4.165 2.237-1.314.713-5.399 2.91-1.606.863-19.277-10.717-1.395-.773-1.545-.863-1.987-1.104 9.925-6.111h.01"/><path stroke="#2458F1" stroke-miterlimit="10" stroke-width=".502" d="M142.227 105.799v11.862l1.465-.743v-10.125M164.444 118.153v12.543l1.606-.923v-12.744M178.764 109.041s-.482-9.774 1.244-10.888l-9.011-4.084s-2.298 3.943-1.636 9.503M177.961 113.225l2.79 6.162 1.606-.241-4.396-8.289v2.368Zm0 0v9.995l-1.033.642v-12.433M172.763 113.667l-2.017 11.781-1.505.863 2.208-11.932M152.202 103.592l-1.224-.622s-.482-2.319-.813-4.376c-.271-1.716-.462-3.261-.171-3.16.211.08 1.405.692 2.9 1.484 1.927 1.014 4.355 2.298 5.851 3.081l1.385.743.2 1.214 1.034 6.322-9.162-4.686Z"/><path stroke="#2458F1" stroke-miterlimit="10" stroke-width=".502" d="m161.364 108.278 5.238-3.141-6.282-3.181-.19-.1M45.85 125.006v22.92l30.336 16.397v-22.538l-30.145-16.889-.19-.111v.221ZM76.367 268.657c2.84.261 6.201.562 9.191.562M48.319 251.477s-.04.07-.06.09c-.663 1.114-1.004 2.278-1.004 3.483 0 2.358 1.636 4.576 4.466 6.532M82.287 240.911c-10.045 0-19.167 1.274-25.368 3.763-.08.04-.171.07-.251.1"/><path stroke="#2458F1" stroke-miterlimit="10" stroke-width="3.01" d="M97.652 241.874h-.01"/><path stroke="#2458F1" stroke-miterlimit="10" stroke-width=".502" d="M94.38 268.657c15.363-1.706 26.592-7.145 26.592-13.607 0-5.991-9.663-11.109-23.32-13.186M47.908 146.491s0-9.834 4.917-10.035c2.87 1.124-.412 10.246 2.458 9.222 2.87-1.023 2.459-8.6 5.74-6.352 3.282 2.258.201 8.199 2.66 11.691 2.458 3.482 1.846-6.764 9.834-4.516M175.372 49.362V.01"/><path fill="#000" d="M161.594 116.566c0 .351-.03 1.114 0 1.395.03.321-.1.512-.402.602-.351.1-.702.191-1.053.281-.05.01-.131.03-.151 0-.371-.351-.682-.01-.943.141-1.224.702-2.479.692-3.773.281-.452-.141-.542-.402-.402-.883.121-.422.372-.693.793-.843.753-.261 1.526-.502 2.148-1.044.281-.241.572-.452.863-.672.03-.021.08-.06.11-.05.532.09.522-.001.642-.332m10.437-11.279c-.753.03-1.305-.261-1.867-.592-.491-.291-1.043-.492-1.585-.672-.622-.211-1.114-.613-1.606-1.034-.221-.191-.441-.371-.642-.572-.09-.09-.131-.231-.201-.341-.05-.07-.1-.151-.17-.201-.221-.141-.452-.271-.693-.421.161-.372.402-.723.251-1.164.06-.03.13-.09.191-.08.321.09.672.13.943.3.923.552 1.816 1.154 2.76 1.756.21-.572.692-.411 1.113-.471.482-.07.833.09 1.114.451.291.382.733.502 1.144.663.061.03.231-.061.271-.141.291-.532.582-1.064.833-1.616.141-.32.211-.672.321-1.003.151-.492.472-.843.873-1.154.301-.23.542-.522.803-.793.03-.03.04-.1.06-.17-.812-.11-1.063-.733-1.334-1.415-.091 0-.362.08-.271-.201.12-.401-.06-.752-.07-1.124-.021-.411-.051-.823-.081-1.244-.12 0-.261.02-.451.04.652-1.134 1.505-1.907 2.799-2.027 1.456-.13 2.539 1.365 2.038 2.75a11.3 11.3 0 0 0-.332 1.133c-.08.332-.15.673.151.944.01.01.02.04.02.06 0 .632.472.963.883 1.294 1.264 1.024 1.465 2.349 1.114 3.814-.13.542-.452 1.023-.612 1.565-.141.462-.412.793-.713 1.144-.15.181-.21.442-.321.652-.251.512-.522 1.024-.762 1.546-.191.401-.592.642-.462 1.174M139.307 85.488c-.02 1.897-.05 3.794-.06 5.7 0 .271.08.552.18.813.693 1.706.562 3.462.271 5.208-.02.13-.18.251-.311.341-.201.13-.451.201-.642.342-.371.29-.753.491-1.234.39-.392-.08-.532-.3-.392-.671.111-.281.331-.522.442-.813.09-.241.17-.532.13-.783-.221-1.555-.522-3.1-.712-4.666-.161-1.305-.191-2.62-.331-3.924-.111-.943-.302-1.876-.492-2.8-.06-.31-.331-.602-.351-.903-.051-.672-.02-1.355.02-2.027.05-.763-.131-1.124-.823-1.435-.422-.18-.873-.311-1.305-.482-.532-.21-.652-.451-.542-1.013.111-.522.362-1.034.071-1.576-.051-.09.06-.29.13-.421.261-.492.602-.953.783-1.465.441-1.245 1.334-1.967 2.529-2.409.13-.05.24-.17.451-.32-.221-.04-.291-.061-.361-.061-.422.02-.763-.02-.843-.552-.04-.22-.231-.421-.351-.642-.03-.05-.071-.15-.05-.17.521-.472-.211-1.115.21-1.606.03-.04-.1-.211-.17-.342.09-.17.19-.4.331-.591.12-.161.281-.362.451-.412a9.683 9.683 0 0 1 1.596-.281c.612-.04 1.565.974 1.555 1.676 0 .532.111 1.084-.371 1.545-.261.251.07 1.024.422 1.154.481.17 1.003.281 1.425.542.521.311 1.093.662 1.404 1.154.532.843.894 1.786 1.295 2.71.1.22.1.522-.231.672-.07.03-.12.17-.12.261-.05 1.124-.231 2.208-.753 3.221-.09.18-.08.421-.11.632-.03.301.09.633-.311.853-.111.06-.071.462-.03.703.17.913.351 1.826.572 2.72.2.772.341 1.535.17 2.337-.02.07-.03.161-.01.231.311 1.024-.191 1.977-.261 2.96-.05.753-.08 1.506-.16 2.258a3.23 3.23 0 0 1-.301 1.004c-.191.401-.211.733.05 1.124.451.662.381 1.535-.131 2.047-.1.1-.381.17-.451.11-.271-.24-.582-.511-.723-.843-.19-.451-.221-.963-.351-1.435-.08-.29-.271-.561-.341-.852-.08-.301-.07-.633-.101-.944 0-.06.031-.12.021-.18-.141-1.165.16-2.278.461-3.382.09-.321.09-.602-.251-.803-.381-.21-.351-.592-.231-.903.422-1.154-.13-2.058-.632-3-.06 0-.11.01-.17.02l.04-.02Zm-4.576-7.546c.191.351.331.622.482.893l.14-.07c-.261-.22.181-.763-.622-.823ZM128.91 81.745c.171 1.084.341 2.087.472 3.1.04.282-.05.583-.06.874 0 .15-.02.31.03.451.311.954.281 1.847-.301 2.7a2.09 2.09 0 0 0-.271.592c-.693 2.368-1.515 4.716-1.666 7.215-.05.853.151 1.545.823 2.097.211.17.391.402.542.623.07.1.09.29.03.38-.05.081-.241.111-.361.111-.181 0-.352-.05-.592-.09.271.612-.101.753-.522.853-.201.04-.392.08-.592.13-.341.08-.522-.05-.673-.381-.11-.251-.381-.431-.562-.662-.13-.16-.311-.352-.321-.532-.03-.522.221-1.074-.16-1.566-.04-.06.03-.2.05-.31.331-1.797.692-3.583.983-5.39.081-.481-.03-1.023-.16-1.505-.372-1.385-.813-2.76-1.174-4.144-.171-.663-.492-1.134-1.154-1.315-.422-.12-.552-.401-.532-.793.09-2.027.2-4.054.672-6.03.121-.522.422-1.034.723-1.486.17-.26.491-.481.792-.602.833-.321 1.074-1.154.502-1.846-.853-1.034-.431-2.49.813-2.96.642-.242 1.204-.292 1.786.12.201.14.452.19.723.3-.271.573-.331 1.165-.07 1.777.09.21.01.512-.021.763-.04.33-.11.662-.18 1.053-.321.03-.753.07-.693.662 1.415.532 2.148 1.646 2.539 3.061.181.652.462 1.275.683 1.927.13.371.24.773-.081 1.094-.321.32-.722.21-1.093.09-.281-.08-.542-.22-.914-.371l-.01.01ZM181.152 64.325c.04-.873.081-1.746.141-2.62.03-.43.1-.862.15-1.304.03-.26.061-.522.081-.783.02-.3.22-.401.471-.481.663-.231 1.325-.472 1.977-.713.04-.01.07-.04.131-.07-.422-.622-.883-1.204-1.235-1.846-.18-.332-.19-.763-.23-1.165a1.464 1.464 0 0 1 .04-.632c.22-.742.873-.993 1.515-1.234.241-.09.482-.16.733-.23.351-.111.973.21 1.164.591.02.04 0 .1.03.12.652.472.582 1.245.772 1.897.081.281-.11.653-.18.974-.02.08-.04.18-.091.24-.271.322-.06.482.181.683.512.431 1.124.592 1.746.762.261.07.522.13.773.201.441.13.652.392.662.863.01.633.05 1.244.201 1.867.11.451 0 .953-.03 1.435-.06.762-.131 1.525-.201 2.298 0 .07 0 .15.03.21.753 1.335 1.024 2.82 1.345 4.285-.121.673-.121.362-.01.181M185.819 76.487c-.041.411-.141.813-.161 1.224-.02.361.05.713.07 1.074 0 .17.131.391-.16.481-.02 0-.03.231.02.302.311.411.281.843.2 1.314-.08.462-.14.923-.16 1.395-.03.552-.181.753-.733.813a5.19 5.19 0 0 1-.883.02c-.271-.02-.421-.21-.411-.482.01-.25.06-.511.12-.752.081-.311.181-.613.291-.914.141-.391.161-.782.081-1.184-.121-.602-.362-1.505-.452-2.107M85.499 163.018c-.331 1.365-.683 2.72-.964 4.095-.07.341.06.732.14 1.094.141.652.161 1.284-.08 1.926-.35.964-.34 1.867.512 2.61.281.24.301.572-.02.752-.702.392-1.415.763-2.157 1.074-.412.17-.723-.03-.753-.522-.04-.853-.09-1.716-.11-2.569-.01-.492.09-.994.02-1.475-.231-1.566-.02-3.091.25-4.626.242-1.385.252-2.76.03-4.155-.11-.702-.02-1.435-.02-2.197-.651 0-.702-.412-.672-.833.07-1.004.14-2.007.291-3.001.1-.662.11-1.294-.24-1.916-.05.01-.11.03-.171.04-.883.14-1.465-.402-1.325-1.285.181-1.094.562-2.167.623-3.271.1-1.807 1.374-2.499 2.709-3.181.482-.251.652-.833.281-1.235-.06-.06-.18-.12-.18-.18.02-.833-.01-1.686.12-2.499.09-.562.692-.692 1.204-.803.532-.11 1.074-.231 1.606-.301.14-.02.35.091.451.211.291.351.542.732.843 1.134-.642.451-.311 1.264-.462 1.967-.04.17-.01.351-.03.531-.046.643-.418.947-1.114.914.13.271.221.491.352.682.06.09.21.141.32.171 1.466.321 2.108 1.324 2.339 2.719.18 1.114.462 2.208.662 3.322.05.281.02.602-.02.893-.12.712-.31.853-1.154.843.08.401.06.843.251 1.144.733 1.164.682 2.358.321 3.612-.15.512-.18 1.084-.18 1.616.01 2.037-.07 4.054-.572 6.041-.02.07-.04.151-.02.211.34.823.03 1.636 0 2.458a77.942 77.942 0 0 0-.02 3.753c0 .522.36.823.832.984.382.13.803.191 1.154.371.191.101.372.382.402.603.02.13-.241.411-.412.441-1.224.231-2.448.471-3.693.592-.792.08-1.033-.261-1.003-1.064.09-2.007.15-4.014-.02-6.021-.13-1.485-.03-3-.04-4.495 0-.382-.06-.763-.09-1.154-.06 0-.111 0-.171-.01l-.02-.011ZM117.671 110.044c-2.238 1.385-10.156.411-10.156.411-.441 0-.843.02-1.234 0a7.112 7.112 0 0 1-1.124-.18c-.612-.141-1.204-.322-1.816-.492-.402-.111-.683-.361-.813-.733-.1-.291-.301-.421-.532-.551a19.497 19.497 0 0 0-.933-.462c.12-.07.17-.111.241-.131.592-.14 1.184-.28 1.786-.391.16-.03.351.02.512.09 1.304.552 2.599 1.114 3.893 1.686.08.04.131.161.231.291.151-.02.391-.04.702-.07-.09-.12-.13-.211-.2-.261-.331-.231-.442-.572-.462-.943-.03-.532-.02-1.064-.06-1.596-.01-.22-.1-.431-.151-.652-.13-.522-.271-1.044-.371-1.565a.849.849 0 0 1 .09-.542c.131-.211.081-.382.02-.582-.11-.332-.22-.663-.321-1.004-.05-.191.041-.321.221-.391.111-.05.211-.111.301-.181.251-.171.371-.391.331-.722-.1-.944.101-1.857.311-2.77.231-.974.994-1.355 1.867-1.535.783-.161 1.445.16 1.866.802.452.693.843 1.445 1.195 2.198.391.833.702 1.706 1.043 2.559.06.16.121.301.331.321.071 0 .181.09.191.161.12.421.422.722.713 1.013.03.03.05.06.06.101.09.351.17.712.281 1.053.04.111.15.211.251.281.291.221.331.362.11.743.02-.161.03-.271.04-.392-.261.101-.502.201-.763.301.131.261.312.562.452.873.1.221.171.472.241.703.271.833.853 1.776 1.455 2.358m-9.252 14.812c-.141.14-.311.311-.492.321-.783.07-1.565.11-2.348.12-.111 0-.221-.15-.331-.231.08-.1.16-.2.251-.3.03-.03.09-.041.13-.061.622-.19 1.003-.612 1.254-1.194.081-.2.201-.381.332-.552.26-.341.27-.542-.031-.993-.08.11-.14.201-.21.291-.482.672-1.174.672-1.887.562a1.638 1.638 0 0 1-.602-.231c-.291-.191-.261-.512.06-.672a.736.736 0 0 1 .251-.091c.432-.01.642-.281.813-.632.04-.08.08-.16.13-.231l2.911 1.265m.963-14.782c-.02.683.451 1.305.18 2.047.191-.05.342-.09.492-.14.08-.03.171-.061.241-.101.201-.11.231-.25.07-.371-.501-.361-.883-.803-.993-1.435h.01Zm2.147 2.991c-.21.1-.401.19-.642.311Zm3.342-6.593s-.06.07-.09.1c.17.151.331.301.501.452.031-.031.051-.061.081-.091-.161-.15-.321-.311-.482-.461h-.01ZM46.643 253.264c-.532.17-1.084.03-1.595-.342-.241-.17-.321-.341-.16-.632.31-.542.551-1.134.902-1.656.462-.682 1.024-1.304 1.495-1.987.161-.23.251-.542.261-.822.03-1.305-.02-2.599.05-3.904.04-.702.272-1.395.432-2.087.06-.281.17-.542.261-.823-.311-.111-.572-.131-.863.05-.22.15-.502.221-.763.301-.431.13-.782 0-1.093-.341a.481.481 0 0 0-.382-.131c-.532.111-1.053.211-1.585.01-.13-.05-.301.031-.452.061-.502.08-1.003.13-1.596-.03.211-.181.352-.291.553-.462-.352.03-.623.09-.884.07-.411-.02-.813-.09-1.264-.14.823-.442 1.636-.733 2.62-.522.13-.542.44-1.104.35-1.616-.11-.722-.04-1.425-.08-2.127 0-.05-.01-.101 0-.141.281-.913.08-1.836.08-2.759 0-.673.12-1.355.16-2.028.021-.311 0-.622-.02-.923-.02-.261.051-.451.272-.612.672-.491 1.324-.993 1.987-1.485-.04-.02-.07-.03-.11-.05-.04-.191-.06-.391-.131-.582-.09-.271-.2-.542-.311-.803-.02-.05-.08-.09-.08-.14-.02-.894-.231-1.787.18-2.67.351-.752.863-1.264 1.676-1.405.24-.04.562-.02.753.101.612.381 1.144.873 1.264 1.666.12.03.25.07.341.1-.09.642-.15 1.254-.28 1.866-.051.251-.262.462-.382.703-.05.1-.05.221-.09.391.19-.07.29-.1.38-.15.382-.231.753-.041 1.115.02.23.03.451.11.682.15.291.061.592.091.873.181.462.14.703.471.803.953.341 1.646.722 3.282 1.084 4.928.11.511.2 1.033.26 1.555.03.261 0 .532-.02.803 0 .06-.03.12-.06.16-.24.321-.23.713.06.994.272.261.573.502.874.742.16.131.23.261.21.482-.02.261.07.532.08.803 0 .301.07.662-.07.883-.14.231-.501.341-.772.471-.281.141-.582.151-.873-.12-.18.632-.382 1.234-.522 1.846-.311 1.345-.773 2.589-1.646 3.693-.632.803-1.144 1.706-1.696 2.569-.07.111-.07.271-.07.412 0 .702.02 1.405.05 2.107.02.411.11.813.12 1.224.02.562 0 1.134-.02 1.696 0 .081-.17.221-.24.211a21.508 21.508 0 0 1-1.787-.311c-.12-.03-.21-.221-.36-.382l.03-.019ZM80.913 276.916c.24.07.3-.031.29-.241-.01-.321 0-.632.05-.964.382.281.643.613.723 1.064.08.472.171.562.663.582.662.03 1.324.07 1.987.09.16 0 .33-.04.521-.07-.22-.532-.662-.742-1.033-1.033-.19-.151-.401-.301-.502-.512a41.766 41.766 0 0 1-1.084-2.649c.191.17.372.361.572.511.13.101.311.221.452.201 1.124-.151 2.127-.622 3.09-1.204.05-.03.07-.111.171-.251-.401-.06-.752-.181-1.094-.14-.772.08-1.294-.261-1.766-.823-.391-.472-.843-.904-1.264-1.345-1.154-1.224-1.857-2.7-2.499-4.235-.602-1.435-1.254-2.84-1.856-4.275-.281-.672-.783-.943-1.486-.913-1.294.06-2.588.161-3.853.512-.13.04-.27.06-.341.08-.622-.853-1.214-1.666-1.867-2.559.352-.06.643-.12.934-.15.481-.041.772-.251.832-.733.08-.602-.06-1.124-.551-1.565-.502-.442-.954-.934-1.405-1.425-.532-.572-1.034-1.164-1.546-1.746-.12-.141-.22-.301-.34-.442-.412-.502-.994-.622-1.596-.712a6.898 6.898 0 0 1-1.265-.322c-.28-.1-.31-.531-.08-.722.672-.552 1.114-1.234 1.144-2.138 0-.23.08-.451.11-.682.16-1.415-.532-2.238-1.947-2.368-.642-.06-1.204.19-1.675.542-.251.19-.422.592-.472.923-.09.582-.07 1.174-.09 1.766 0 .101.03.251.1.281.391.171.462.562.572.873.11.291.01.662.01.994 0 .311-.01.592-.472.491-.07-.02-.25.111-.27.201-.121.532-.532.803-.964 1.034-.381.2-.492.471-.431.913.17 1.284.802 2.318 1.635 3.261.02.02.04.03.04.05.1.452.532.633.803.944.12.13.301.2.422.331.15.14.28.301.401.471.251.362.472.743.743 1.084.26.331.401.703.441 1.114 0 .07.02.171-.01.201-.26.261-.13.552-.12.853.02.461.05.923-.02 1.385-.13.953.29 1.615 1.013 2.137.974.712 2.108.984 3.282.984 1.154 0 2.318-.111 3.472-.231.863-.091 1.645.1 2.368.521.19.111.301.392.401.613.231.501.432 1.023.653 1.535.34.753.973 1.264 1.505 1.856.662.733 1.305 1.486 1.957 2.218.15.171.15.311.03.492-.1.141-.16.311-.23.462-.181.401-.172.762.15 1.123.381.432.421.643.562 1.777l.03-.02ZM108.519 235.954c.221.15.502.21.803.331-.301.642-.371 1.294-.08 1.976.1.241.02.573-.021.854-.04.371-.12.732-.2 1.174-.362.03-.833.07-.763.742 1.566.592 2.388 1.827 2.82 3.402.201.723.512 1.425.763 2.137.14.412.26.853-.091 1.215-.351.351-.803.231-1.214.11-.311-.09-.602-.241-1.013-.411.19 1.204.381 2.318.521 3.442.04.311-.05.642-.07.973 0 .171-.02.351.03.502.351 1.054.311 2.057-.331 3-.13.191-.231.422-.301.653-.773 2.639-1.676 5.238-1.846 8.017-.061.954.17 1.717.913 2.339.231.19.431.441.602.692.07.11.1.321.04.422-.06.09-.261.13-.401.13-.201 0-.392-.06-.663-.1.301.682-.11.833-.582.943-.221.05-.431.09-.652.14-.381.091-.582-.05-.743-.421-.12-.281-.431-.482-.632-.743-.14-.18-.341-.391-.351-.592-.03-.582.241-1.194-.181-1.746-.05-.06.04-.22.06-.341.372-1.997.773-3.984 1.084-5.981.081-.532-.03-1.134-.17-1.666-.412-1.545-.903-3.06-1.305-4.606-.191-.732-.542-1.254-1.284-1.455-.472-.13-.612-.441-.592-.883.1-2.248.22-4.506.742-6.703.141-.582.462-1.144.803-1.656.191-.291.542-.542.873-.672.923-.361.452-2.338-.191-3.111M121.334 251.818c-.03 2.108-.061 4.215-.071 6.333 0 .301.091.612.201.893.763 1.896.622 3.843.301 5.79-.02.14-.201.281-.351.371-.231.151-.502.221-.713.381-.411.322-.832.543-1.374.432-.432-.09-.592-.331-.432-.752.131-.312.371-.583.492-.904.1-.271.191-.592.15-.873-.251-1.726-.582-3.452-.792-5.178-.181-1.445-.211-2.91-.372-4.365-.12-1.044-.331-2.087-.542-3.111-.07-.351-.361-.662-.391-1.003-.05-.743-.03-1.506.02-2.248.05-.843-.14-1.254-.913-1.586-.472-.2-.973-.351-1.445-.542-.592-.23-.723-.501-.602-1.124.12-.582.401-1.144.08-1.756-.05-.1.07-.321.151-.471.291-.542.672-1.054.873-1.626.491-1.385 1.485-2.178 2.809-2.669.151-.051.261-.181.502-.361-.241-.041-.321-.071-.401-.061-.462.02-.843-.03-.944-.622-.04-.251-.26-.472-.391-.712-.03-.061-.07-.171-.05-.181.582-.522-.231-1.234.241-1.776.03-.04-.111-.231-.191-.382.1-.19.211-.441.371-.652.131-.181.312-.401.502-.451a9.715 9.715 0 0 1 1.776-.312c.683-.05 1.736 1.084 1.726 1.857 0 .592.121 1.204-.411 1.716-.291.281.08 1.134.472 1.274.531.191 1.113.311 1.585.602.572.342 1.214.743 1.556 1.275.592.933.993 1.987 1.435 3.01.11.251.11.582-.251.743-.071.03-.131.191-.131.291-.05 1.244-.261 2.459-.843 3.583-.1.2-.09.461-.12.702-.03.341.1.702-.341.943-.121.06-.081.522-.03.773.19 1.013.381 2.027.642 3.02.221.863.381 1.706.19 2.59-.02.08-.04.18-.01.25.352 1.134-.21 2.188-.291 3.292-.06.833-.09 1.676-.18 2.509-.04.381-.171.762-.331 1.113-.211.442-.231.813.06 1.245.502.742.421 1.706-.151 2.278-.11.11-.431.191-.501.12-.311-.271-.653-.572-.803-.933-.211-.502-.241-1.064-.392-1.596-.09-.331-.301-.622-.381-.953-.08-.341-.08-.702-.11-1.054 0-.07.03-.13.02-.2-.151-1.295.18-2.529.512-3.753.1-.362.1-.673-.281-.884-.422-.24-.382-.652-.261-1.003.471-1.274-.151-2.288-.703-3.332-.06 0-.12.01-.19.02l.02.02Zm-5.088-8.389c.211.392.371.693.532.994l.16-.081c-.291-.24.201-.852-.692-.913Z"/><path fill="#fff" d="m260.6 175.773 16.397 21.094H248.307l12.293-21.094Z"/><path fill="#015AFE" d="m260.6 175.773-12.293 21.094-19.679-3.483 31.972-17.611Z"/><path stroke="#2458F1" stroke-miterlimit="10" stroke-width=".502" d="m260.6 175.773-31.972 17.611 19.679 3.483H276.997l18.856-6.573-35.253-14.521Z"/><path stroke="#2458F1" stroke-miterlimit="10" stroke-width=".502" d="m248.307 196.867 12.293-21.094 16.397 21.094"/><path fill="#015AFE" d="m215.031 226.51-18.856 6.583-16.397-21.094 35.253 14.511Z"/><path fill="#fff" d="m179.777 211.999 16.397 21.094H167.484l12.293-21.094Z"/><path fill="#000A8F" d="M181.824 233.093h-2.448v31.379h2.448v-31.379Z"/><path fill="#015AFE" d="m179.777 212-12.292 21.093-19.679-3.492L179.777 212Z"/><path stroke="#2458F1" stroke-miterlimit="10" stroke-width=".502" d="m179.777 212-31.971 17.601 19.679 3.492H196.175l18.855-6.583L179.777 212Z"/><path stroke="#2458F1" stroke-miterlimit="10" stroke-width=".502" d="m167.484 233.093 12.293-21.094 16.397 21.094M179.376 233.093v31.379h2.448v-31.379"/></g><defs><clipPath id="a"><path fill="#fff" d="M0 0h258v281H0z"/></clipPath></defs></svg>