<svg xmlns="http://www.w3.org/2000/svg" width="288" height="248" fill="none"><g clip-path="url(#a)"><path fill="#EBEBEB" d="M329.363 31.513c23.236 12.86 30.12 35.663 29.821 55.296-.188 14.732-4.412 27.647-8.769 33.257-9.855 12.648-23.768 16.451-24.643 16.662 44.398-31.351 12.028-76.06 12.028-76.06-16.019-19.322-52.192-46.138-117.863-16.151-5.843 2.682-12.605 2.915-18.469.232-12.826-5.864-26.861-19.621-44.676-24.699-25.818-7.35-68.288 3.648-74.363 30.786.754-8.426 2.583-16.041 5.222-21.496 8.79-18.225 48.622-39.93 87.821-15.254 16.695 9.423 31.949 16.695 50.806 10.898 18.878-5.798 62.423-15.964 103.074 6.54l.011-.01Z"/><path fill="#C0D1FF" d="M126.772 115.72c.022.055.033.133.077.21.832 2.372 1.364 4.8 1.364 7.073.022 7.693-1.985 12.15-13.303 13.879-5.842.887-11.818.654-17.638-.41-11.55-2.106-36.727-5.765-53.333-1.408-22.15 5.798-33.512 58.267-33.512 58.267l-6.241-10.876c3.447-41.161 20.398-61.037 32.48-65.361 18.725-6.684 40.93-3.071 51.328-.698 3.026.698 5.897-1.619 5.897-4.723v-7.46c.255-.521.255-1.176 0-1.985v-.022c-.266-.964-.909-2.162-1.873-3.603-8.48-12.516-11.03-31.594-9.578-47.757v-.033c6.075-27.15 48.544-38.135 74.363-30.785 17.814 5.066 31.849 18.834 44.675 24.699 5.864 2.682 12.627 2.45 18.469-.233 65.672-29.976 101.833-3.16 117.863 16.152 0 0 32.37 44.708-12.028 76.059-.022 0-.022.022-.033.022 0 .022.022.055.022.077l.055.411c.023.055.034.1.023.133.388 2.949 1.33 15.93-9.39 29.033l-.022-.022c0-13.901-10.044-30.619-10.044-30.619s-4.179-3.802-4.179-8.458c0-3.026 1.751-6.396 7.538-9.345 0 0 20.531-3.204 23.081-16.751.576-3.68.343-7.194-.422-10.454a17.1 17.1 0 0 0-.41-1.518c-4.168-14.345-18.413-23.812-18.413-23.812-27.548-17.239-51.515-10.82-66.769-6.541-20.509 4.667-32.792 16.695-57.336 1.441-24.543-15.232-42.103-25.386-63.144-18.857-21.052 6.519-18.125 28.302-18.125 28.302-1.253 11.94 11.219 32.47 11.219 32.47s4.844 6.463 7.35 13.491l-.011.012Z"/><path fill="#fff" d="M335.061 155.108c2.106 7.438 2.971 16.772.099 27.359-7.25 26.861-23.945 37.015-55.872 41.372-31.949 4.357-47.912-7.25-85.659-7.982-37.736-.731-76.214 30.486-82.012 31.927v-28.146s49.553-33.756 90.903-30.131c27.592 8.136 52.269 13.801 83.486 5.088 31.007-8.658 45.175-27.603 39.831-57.247.023-.033 0-.077-.022-.133-.022-.188-.055-.332-.055-.41 0-.022-.022-.055-.022-.077 0 0 6.13 6.917 9.334 18.368l-.011.012Z"/><path fill="#EBEBEB" d="M302.192 127.293v20.864s10.144 13.413 6.208 26.106v.023c-4.589 3.658-10.332 7.172-17.548 10.298 0 0-27.648 14.079-81.203-2.838C180.826 172.667 100 214.427 100 214.427v28.823c-22.56-11.031-70.627-38.845-85.26-47.392 11.452-37.214 19.034-46.981 28.091-51.337 11.186-5.355 22.87-6.519 47.913.365 11.706 3.215 20.652 2.894 26.86 1.597 8.004-1.641 13.591-9.201 12.682-17.316-.388-3.57-1.408-7.96-3.447-13.225-.034-.078-.056-.156-.078-.211-2.505-7.039-7.35-13.491-7.35-13.491s-12.471-20.531-11.219-32.47c11.995-21.052 27.67-21.994 27.67-21.994 14.944-.078 24.367 1.463 45.23 17.848 31.406 24.676 55.351-2.916 88.741-2.916 0 0 54.198.366 62.135 26.506.156.499.289.998.411 1.519.776 3.259.997 6.762.421 10.454-2.55 13.557-23.081 16.75-23.081 16.75-5.786 2.949-7.538 6.319-7.538 9.345l.011.011Z"/><path fill="#EBEBEB" d="M325.827 137.359c5.343 29.632-8.835 48.589-39.831 57.247-31.217 8.713-55.894 3.048-83.486-5.089-41.361-3.625-90.903 30.131-90.903 30.131L100 214.427s80.826-41.76 109.649-32.681c53.555 16.906 81.202 2.838 81.202 2.838 7.206-3.126 12.96-6.629 17.549-10.298 3.215-2.583 5.864-5.244 8.037-7.882 10.72-13.115 9.778-26.085 9.39-29.034v-.011Z"/><path fill="#2458F1" d="M313.565 65.402s14.246 9.467 18.414 23.812c-7.949-26.14-62.136-26.506-62.136-26.506-33.39 0-57.335 27.592-88.741 2.916-20.863-16.385-30.286-17.926-45.229-17.848 0 0-15.676.942-27.67 21.993 0 0-2.927-21.783 18.125-28.301 21.029-6.54 38.6 3.625 63.144 18.856 24.544 15.254 36.827 3.215 57.335-1.44 15.254-4.28 39.21-10.698 66.769 6.54l-.011-.022ZM130.297 129.167c.909 8.115-4.689 15.675-12.682 17.316-6.208 1.297-15.154 1.618-26.86-1.596-25.043-6.885-36.728-5.732-47.913-.366-9.057 4.356-16.64 14.134-28.091 51.338a530.69 530.69 0 0 1-4.324-2.506s11.352-52.457 33.512-58.266c16.596-4.357 41.782-.699 53.334 1.408 5.82 1.064 11.795 1.297 17.637.41 11.319-1.741 13.325-6.186 13.303-13.879 0-2.273-.543-4.701-1.364-7.073 2.04 5.266 3.071 9.656 3.448 13.225v-.011Z"/><path fill="#EBEBEB" d="M111.617 219.638v28.146c-1.097.266-5.376-1.485-11.606-4.545v-28.823l11.606 5.222ZM93.891 104.235v7.461c0 3.104-2.87 5.421-5.897 4.723-10.387-2.373-32.603-5.998-51.327.698-12.083 4.323-29.033 24.2-32.481 65.361 0 0-14.522-95.093 58.067-82.744 18.546 4.911 30.13 7.905 31.638 4.512v-.011Z"/><path stroke="#2458F1" stroke-miterlimit="10" stroke-width="3.326" d="M325.739 136.738s6.13 6.918 9.334 18.369c2.106 7.439 2.971 16.773.1 27.36-7.251 26.861-23.946 37.015-55.872 41.372-31.949 4.356-47.913-7.25-85.66-7.982-37.735-.732-76.214 30.486-82.012 31.927-1.097.266-5.376-1.486-11.606-4.545-22.56-11.031-70.627-38.845-85.26-47.392a517.928 517.928 0 0 1-4.324-2.505l-6.241-10.875s-14.523-95.093 58.067-82.744c18.546 4.911 30.13 7.904 31.638 4.512.255-.521.255-1.175 0-1.984M82.44 50.824c.754-8.425 2.583-16.04 5.222-21.495 8.79-18.225 48.621-39.93 87.82-15.254 16.696 9.423 31.949 16.695 50.806 10.898 18.879-5.798 62.424-15.964 103.075 6.54 23.236 12.86 30.12 35.663 29.821 55.295-.189 14.733-4.412 27.648-8.769 33.258-9.855 12.648-23.768 16.451-24.644 16.661M93.892 102.229c-.266-.965-.91-2.162-1.874-3.603-8.48-12.516-11.03-31.594-9.578-47.757"/><path stroke="#2458F1" stroke-miterlimit="10" stroke-width=".554" d="M108.204 69.759c11.995-21.052 27.67-21.994 27.67-21.994 14.944-.078 24.366 1.463 45.23 17.847 31.405 24.677 55.351-2.915 88.741-2.915 0 0 54.198.366 62.135 26.506M126.839 115.942c2.039 5.266 3.07 9.656 3.447 13.225.909 8.115-4.689 15.675-12.682 17.316-6.208 1.297-15.154 1.619-26.86-1.596-25.043-6.885-36.727-5.732-47.913-.366-9.057 4.357-16.64 14.134-28.091 51.338M126.384 114.744c.133.333.266.654.388.987M325.827 137.359c.388 2.949 1.33 15.93-9.39 29.034-2.184 2.638-4.822 5.299-8.037 7.882-4.589 3.658-10.332 7.172-17.549 10.298 0 0-27.647 14.079-81.202-2.838C180.826 172.656 100 214.416 100 214.416v29.577"/><path stroke="#2458F1" stroke-miterlimit="10" stroke-width=".554" d="M82.44 50.825c6.075-27.15 48.544-38.135 74.363-30.786 17.815 5.067 31.849 18.835 44.675 24.7 5.865 2.682 12.627 2.45 18.469-.233 65.672-29.976 101.834-3.16 117.863 16.151 0 0 32.371 44.709-12.028 76.059"/><path stroke="#2458F1" stroke-miterlimit="10" stroke-width="3.326" d="M82.44 50.869v-.034"/><path stroke="#2458F1" stroke-miterlimit="10" stroke-width=".554" d="M82.418 50.925s0-.034.022-.056M309.73 117.937s20.531-3.204 23.081-16.75c.576-3.68.344-7.195-.421-10.454a17.099 17.099 0 0 0-.41-1.519c-4.169-14.345-18.414-23.812-18.414-23.812-27.548-17.238-51.515-10.82-66.769-6.54-20.509 4.666-32.792 16.694-57.335 1.44-24.544-15.231-42.104-25.386-63.144-18.856-21.052 6.518-18.126 28.301-18.126 28.301-1.252 11.94 11.219 32.47 11.219 32.47s4.845 6.463 7.35 13.492c.022.055.033.133.078.21.831 2.373 1.363 4.801 1.363 7.073.022 7.694-1.984 12.15-13.303 13.879-5.842.887-11.817.654-17.637-.41-11.551-2.106-36.727-5.764-53.333-1.408-22.15 5.798-33.513 58.267-33.513 58.267"/><path stroke="#2458F1" stroke-miterlimit="10" stroke-width=".554" d="M93.892 102.251v9.446c0 3.104-2.87 5.42-5.897 4.722-10.388-2.372-32.603-5.997-51.327.698-12.084 4.324-29.034 24.2-32.481 65.362"/><path stroke="#2458F1" stroke-miterlimit="10" stroke-width="3.326" d="M93.892 102.229v.023"/><path stroke="#2458F1" stroke-miterlimit="10" stroke-width=".554" d="m100.012 214.416 11.606 5.222v28.157M111.618 219.638s49.553-33.756 90.903-30.131c27.592 8.136 52.269 13.801 83.486 5.088 31.007-8.658 45.175-27.603 39.831-57.247.022-.033 0-.077-.022-.133l-.055-.41s-.022-.055-.022-.077"/><path fill="#000" d="M232.64 36.29c.222-.132.433-.287.666-.398.731-.333.875-.998.687-1.863-.111-.51-.133-.964.089-1.43.077-.155.144-.332.144-.499.022-1.108.62-1.895 1.43-2.56.111-.089.266-.133.41-.167.499-.088.998-.2 1.496-.244.699-.066 1.32.122 1.807.666a.977.977 0 0 0 .3.21c.255.122.565.178.499.577 0 .033.022.088.055.11.499.344.377.82.288 1.309-.122.687-.221 1.352-.643 1.962-.232.332-.266.82-.354 1.252-.023.09.099.244.199.31.377.245.588.6.721 1.01.199.587.41 1.164.654 1.73.077.176.255.365.432.453.532.255.809.754.632 1.33-.089.278-.044.489.1.733.543.93 1.153 1.829 1.585 2.815.355.81.532 1.719.743 2.583.133.543.177 1.098.288 1.652.011.078.188.21.266.2 1.208-.178 1.807.71 2.417 1.463.199.244.166.732.111 1.086-.089.521-.267 1.031-.455 1.53-.51 1.33-.587 2.75-.809 4.135-.011.089 0 .189 0 .31.488.078.975.145 1.452.244.211.045.432.111.61.222.565.344.72.998.388 1.563-.433.732-1.175 1.053-1.874 1.408-.632.322-.632.31-.587 1.009.122 2.117.598 4.168 1.053 6.23.166.743.355 1.485.532 2.24.144.609.399 1.252-.488 1.607.111.077.144.11.189.122a.64.64 0 0 0 .111.01c.022.123 0 .267.066.311.599.51 1.186 1.064 1.84 1.486.322.21.81.255 1.22.255.831-.011 1.053.066 1.441.886-.41.178-.809.422-1.231.522-.953.21-1.929.443-2.904.487-.721.034-1.452-.21-2.173-.321a14.353 14.353 0 0 0-.721-.078c-.709-.055-1.407-.1-2.117-.177-.31-.033-.321-.277-.31-.532a4.44 4.44 0 0 0 0-.765c-.067-.71.199-1.342.499-1.996-.444-.133-.477-.487-.544-.864a406.164 406.164 0 0 0-1.241-6.364c-.144-.71-.388-1.396-.532-2.095-.1-.487-.122-.997-.189-1.563-.355.045-.698.089-1.042.144a7.293 7.293 0 0 1-2.405-.01c-.699-.123-1.419-.067-2.129-.178-1.363-.2-2.716-.488-4.091-.688a49.212 49.212 0 0 0-3.359-.365c-.232-.022-.532.144-.709.321-.854.854-1.663.998-2.694.366-1.53-.931-3.048-1.885-4.578-2.816-.311-.188-.189-.377-.078-.587.776-1.464 1.552-2.927 2.339-4.38.178-.332.366-.675.543-1.008.034-.055.089-.133.078-.188-.111-.5.288-.754.499-1.109a8.01 8.01 0 0 0 .587-1.153c.632-1.596.743-3.303 1.12-4.955.2-.865.388-1.707.421-2.616.045-1.076.666-2.007 1.297-2.883.156-.221.344-.42.521-.632.821-1.03 1.841-1.54 3.193-1.33.543.089 1.087.044 1.608-.2.166-.077.432.056.654.09v.1l-.023-.034Zm4.922 1.176c-.243.21-.277.432-.155.71.133.31.222.642.355.964.067.166.122.366.255.454.698.51 1.408.987 2.195 1.52-.122-.322-.188-.577-.288-.81a89.228 89.228 0 0 0-1.131-2.306.878.878 0 0 0-.244-.322c-.155-.133-.332-.277-.477.056-.099.222-.243.166-.365 0-.056-.078-.089-.155-.145-.244v-.022Zm4.135 11.795v-.133c-.332-.11-.654-.222-.986-.321-.022.033-.045.066-.056.11.133.244.266.488.411.776.243-.155.443-.288.643-.42l-.012-.012ZM119.677 100.455c0-.632.177-1.263.288-1.962-.676-.033-1.253-.355-1.729-.898-.056-.066-.189-.11-.278-.122-.598-.055-1.219-.222-1.784-.11-2.406.476-4.789.665-7.162-.156-.687-.233-1.153-.632-1.363-1.319-.122-.41-.211-.831-.322-1.242-.21-.809-.355-1.64-1.009-2.261-.144-.133-.243-.388-.266-.588a32.406 32.406 0 0 1-.166-1.807c-.066-.798-.011-1.607-.188-2.372-.532-2.284-1.087-4.578-1.774-6.829-.632-2.04-.965-4.135-1.397-6.208-.388-1.829.82-3.292 2.672-3.37.199 0 .41-.055.609-.089.233-.033.333-.155.344-.41.022-.731.045-.731.754-.853-.133-.3-.255-.599-.399-.887-.599-1.242-.832-2.55-.743-3.913.089-1.264.687-2.206 1.918-2.672.399-.155.809-.3 1.23-.366 1.164-.177 2.362-.221 3.504-.477.886-.199 1.795.788 1.43 1.752-.078.2-.034.488.044.687.2.488.632.954.643 1.441.022.776.388 1.253.887 1.719.044.044.066.1.1.144.177.266.144.454-.167.598-.454.222-.665.71-.521 1.231.067.233.167.466.255.698 1.364-.42 2.738-1.352 3.559-2.416.111-.144.166-.344.244-.51.21-.433.377-.887.632-1.286.321-.51.687-.998 1.075-1.464.244-.288.576-.498.909-.787.033.222 0 .466.089.51.399.211.243.466.11.721-.498 1.009-.875 2.05-.964 3.193-.067.886.277 1.374 1.12 1.63.365.11.709.343 1.019.576.111.088.089.343.122.52-.155 0-.31.056-.454.023-.31-.078-.621-.244-.931-.266-.477-.033-.998-.078-1.419.077a4.626 4.626 0 0 1-1.486.31c-.776.034-1.563.156-1.873 1.076-.033.1-.144.177-.233.255-.421.388-.843.776-1.275 1.164.067.055.122.111.177.155.81.543 1.708.854 2.672.965.765.088 1.519.2 2.284.233.454.022.953 0 1.363-.156.643-.244 1.209-.676 1.829-.953 1.597-.71 2.927-1.818 4.357-2.772a8.617 8.617 0 0 0 1.641-1.396c.499-.555.898-1.209 1.297-1.84.211-.344.355-.743.499-1.12.244-.643.465-1.308.709-1.951.045-.133.189-.222.311-.366.11.177.166.277.232.377l.577-.643c.044.022.089.044.122.055.011.255.033.51.044.721.1.033.266.033.288.089.045.1.045.266 0 .365-.177.322-.41.61-.587.932-.111.2-.178.432-.266.654.366-.244.621-.532.898-.81.066-.066.21-.066.31-.088.022.122.089.266.044.355-.088.199-.243.365-.343.565a9.328 9.328 0 0 0-.521 1.064 12.79 12.79 0 0 0-.433 1.297c-.033.111.034.255.078.377.055.177.122.344.177.51-.188.055-.365.133-.554.177-.188.045-.432-.01-.587.078-.444.288-.854.632-1.275.964-.089.067-.189.2-.178.278.089.498-.188.875-.465 1.186-.776.876-1.53 1.762-2.406 2.527-.909.81-1.94 1.475-2.926 2.195-.909.665-1.852 1.109-3.071 1.131-1.696.022-3.392.355-5.1.543-1.031.122-1.042.111-.909 1.186.167 1.342.344 2.694.532 4.035.089.655.1 1.364.366 1.94.388.854.477 1.719.543 2.617.056.831.145.93.987.997.133.011.266 0 .399 0 .41.011.721.167.987.5.133.165.377.32.587.354 1.541.222 3.115.144 4.667.322 2.118.232 4.28.232 6.408.21 1.463-.01 2.705.444 3.869 1.264.454.321.842.743.809 1.297a8.137 8.137 0 0 1-.388 2.062c-.587 1.674-1.053 3.381-1.308 5.133a645.694 645.694 0 0 0-.953 6.795c-.089.621-.156.687-.765.743-.366.033-.721.077-1.12.111.044.21.089.377.122.543.067.421.277.576.732.521 1.042-.111 2.095-.111 3.137-.255.798-.111 1.264.244 1.63.865.255.432.232.765-.122 1.119-.433.41-.854.821-1.32 1.175-1.485 1.12-3.104 1.597-4.933.887-.244-.1-.51-.133-.776-.177-.377-.067-.731-.056-.975.332-.056.078-.2.167-.288.156m-3.57-5s-.022.078-.033.111c.465.222.931.432 1.485.698.255-.643.699-1.23.676-1.785-.044-.864.3-1.596.455-2.383.244-1.197.488-2.395.643-3.603a15.636 15.636 0 0 1 1.12-4.08c.099-.232.177-.487.266-.753a532.89 532.89 0 0 1-3.204.388c-.322 1.153-.787 2.428-.987 3.736-.155.964-.011 1.995.056 2.993.088 1.485.232 2.96.354 4.534l-.831.155v-.011ZM136.838 38.763c-.421-.1-.466-.321-.399-.676.188-1.208.333-2.417.488-3.548-.621-.365-1.22-.676-1.785-1.053-.599-.399-.854-.986-.832-1.707.1-2.261.211-4.512.267-6.773.011-.543.199-.976.609-1.253a32.179 32.179 0 0 1 2.716-1.64c.255-.145.388-.267.399-.544.023-.71 0-1.385-.554-1.929-.122-.122-.166-.365-.188-.565-.067-.587-.056-1.197-.156-1.774-.077-.52-.243-1.03-.388-1.54-.232-.777.011-1.43.544-1.985 1.463-1.552 3.048-1.463 4.633-.321.488.354.621.92.732 1.474.155.82.31 1.652.455 2.483.033.2.11.433.055.61-.255.898.122 1.607.71 2.206.21.21.532.355.831.421.92.21 1.851.344 2.771.554 1.065.233 1.818.81 2.206 1.885.544 1.508 1.342 2.927 1.541 4.556.167 1.453.466 2.894.167 4.357-.2.942-.388 1.873-1.641 1.873.1.677.211 1.297.288 1.918.089.743.166 1.486.233 2.228 0 .067-.011.145-.022.222-.033.178-.144.422-.067.51.2.255.444.566.732.643.854.233 1.375.754 1.785 1.519.399.743.964 1.408 1.452 2.117.543.776 1.086 1.552 1.607 2.34.133.199.189.454.255.687.1.365.167.742.233 1.12.022.143.044.299 0 .432-.255.698-.477 1.43-.942 2.017-.632.798-1.308 1.552-1.951 2.35-.976 1.22-1.896 2.484-2.905 3.67-.598.698-.842 1.474-1.075 2.35-.222.81.122 1.308.388 1.918.022.055.067.122.111.133.831.166.931.953 1.297 1.508.222.343.1.543-.299.642a6.072 6.072 0 0 1-3.149-.1c-.377-.11-.621-.387-.698-.786-.233-1.198-.854-2.184-1.696-3.049-.821-.843-.854-1.142-.322-2.195.233-.443.433-.909.71-1.33.199-.31.521-.554.731-.854.222-.31.366-.665.566-.998.155-.266.321-.52.499-.776.332-.476.698-.942 1.019-1.43.289-.443.533-.92.81-1.363.288-.455.609-.887.953-1.386-.355-.288-.665-.543-.964-.787-.577-.454-1.131-.942-1.741-1.363-.521-.377-1.064-.743-1.652-1.01-.82-.376-1.662-.675-2.516-.964-.233-.077-.554-.055-.798.045-1.209.465-2.162 1.319-3.082 2.195-.576.554-1.086 1.186-1.63 1.784.932.976 1.619 1.996 2.018 3.182.055.177.177.344.299.488.566.698 1.175 1.352 1.696 2.084.599.842 1.12 1.751 1.652 2.638.477.787.311 1.486-.299 2.129-.322.343-.61.72-.92 1.075-.444.499-.732 1.064-.821 1.73-.055.443-.288.709-.72.842-.976.288-1.951.321-2.927.055-.598-.155-.709-.399-.355-.92.289-.432.688-.798.976-1.23.322-.488.588-1.02.854-1.541.044-.089-.023-.255-.089-.366a39.772 39.772 0 0 0-.953-1.64c-.089-.145-.266-.233-.388-.355-.3-.31-.677-.588-.876-.954-.832-1.519-1.73-2.97-2.827-4.323-.665-.82-1.219-1.73-1.796-2.616-.089-.145-.066-.355-.089-.533 0-.044.034-.1.023-.133-.366-.61 0-1.197.088-1.785.045-.354.178-.72.366-1.03a553.344 553.344 0 0 1 3.437-5.366c.099-.144.199-.288.332-.499h-.022Z"/></g><defs><clipPath id="a"><path fill="#fff" d="M0 0h288v248H0z"/></clipPath></defs></svg>