<svg xmlns="http://www.w3.org/2000/svg" width="275" height="277" fill="none"><g clip-path="url(#a)"><path fill="#2458F1" d="M317.938 183.187v7.6l-51.337 30.019v-2.41l7.556-4.61v-2.054l7.678-3.969v-2.686l33.72-20.443 2.383-1.447Z"/><path fill="#C0D1FF" d="m166.883 7.726-.511-.304L51.929 74.636l41.068 23.372 7.063 4.021 10.754-5.997s3.189-1.508 8.684 1.482c-5.399-1.447-19.438 7.591-19.438 7.591l-54.024-30.73L166.372 4.399 267.08 64.306l22.185 56.494 28.676 16.56v45.826l-2.384 1.447v-45.488l-28.597-17.019-21.891-56.58-98.186-57.82Z"/><path fill="#fff" d="M315.555 139.146v45.488l-88.506-51.883-8.709 5.329V87.436l-16.405-10.529v-1.421s-5.373-7.297-6.655-7.297c-.416 0-2.08.754-4.16 1.777L166.881 54.4V7.718l98.186 57.82 21.89 56.58 28.598 17.02v.008Z"/><path fill="#EBEBEB" d="m315.556 184.634-33.719 20.443-87.821-52.1 24.325-14.897 8.71-5.33 88.505 51.884Z"/><path fill="#2458F1" d="M281.837 205.077v2.686l-87.821-52.472v-2.314l87.821 52.1Z"/><path fill="#EBEBEB" d="m281.837 207.763-7.678 3.969-88.081-52.368 7.938-4.073 87.821 52.472Z"/><path fill="#2458F1" d="M274.159 211.732v2.054l-88.081-52.048v-2.375l88.081 52.369Z"/><path fill="#EBEBEB" d="m274.158 213.786-7.557 4.61-87.007-52.784 6.482-3.874 88.082 52.048Z"/><path fill="#2458F1" d="M266.601 218.396v2.409l-87.007-52.724v-2.47l87.007 52.785Z"/><path fill="#fff" d="m153.181 175.751 1.621.147 7.149-3.466v-52.568l2.878-1.707 39.04-22.42 14.472-8.31v50.644l-24.325 14.897v2.314l-7.938 4.073v2.374l-6.482 3.865v2.479l87.006 52.724-67.465 39.448s-40.791 21.162-85.005 5.979c-11.907-5.728-35.547-18.944-58.036-31.813l9.22-5.13v-51.988l34.734-20.642 44.769-26.605v44.942l8.362.763Zm67.621 49.561-2.773-7.028c.616-.295 1.092-.598 1.361-.91v-11.387s-5.373-7.297-6.656-7.297c-1.282 0-14.723 7.297-14.723 7.297v4.463c-3.761-2.28-9.074-5.079-13.97-6.5-4.905-1.421-9.922-2.322-15.599-2.669 0 0-10.668-.182-14.212 2.011l-8.328-9.186-12.826 9.437-14.827 7.678-5.633 7.054s-4.35 4.463-5.893 8.302c-.728 1.811 4.428 4.316 10.07 6.439 1.698 5.789 6.69 11.066 13.233 15.07l1.17.676-3.857 7.132s-.06 1.092 2.436 0l3.189-6.109 7.686 4.445.009.018v9.073s.754 1.023 1.907 0v-8.831c.424-.086.936-.242 1.568-.476a71.88 71.88 0 0 0 8.32 1.638c.034.086.069.173.104.242.511 1.153 1.663.486 1.663.486l-.13-.451.182-.052a79.73 79.73 0 0 0 8.97.503c26.006 0 47.082-12.375 47.082-27.636 0 0 .642-5.278-1.638-7.947 2.124-.399 4.533-.919 6.543-1.517 0 0 3.25 6.786 5.546 6.015l.026.017Zm-108.385-33.477c.858-.477.823-1.724-.061-2.149l-10.694-5.156a1.223 1.223 0 0 0-1.109.034L70.031 201.42c-.832.459-.832 1.655-.009 2.114v10.105l7.618 4.047s1.282 3.293 6.655 2.565l28.122-17.124v-11.292Z"/><path fill="#000A8F" d="m218.029 218.284 2.773 7.028c-2.306.763-5.547-6.014-5.547-6.014 1.066-.321 2.028-.659 2.774-1.014Z"/><path fill="#015AFE" d="M205.618 221.351c-1.421.234-2.348.355-2.348.355l-.191-5.225c13.762-3.458 16.318-10.495 16.318-10.495v11.387c-.277.312-.753.615-1.36.91-.745.355-1.707.693-2.773 1.014-2.011.598-4.42 1.118-6.543 1.517-1.144.216-2.21.398-3.094.537h-.009Z"/><path fill="#EBEBEB" d="m218.342 87.427-14.472 8.31-.529-.927-2.773-7.028c.615-.286 1.092-.598 1.369-.91v-9.974l16.405 10.529Z"/><path fill="#C0D1FF" d="M212.743 198.69c1.282 0 6.655 7.297 6.655 7.297s-2.556 7.045-16.318 10.494l-.069-1.794s5.52-2.669 8.986-4.489a50.985 50.985 0 0 0 1.638-.892c2.947-1.664 2.565-2.652 2.565-2.652l-3.839-5.546s-6.785 3.327-10.373 4.861c-3.588 1.534-3.969 0-3.969 0s13.441-7.296 14.724-7.296v.017Z"/><path fill="#000A8F" d="M216.199 206.671s.382.987-2.565 2.651c-.45.251-1.014.555-1.638.893l.356-9.082 3.839 5.546.008-.008Z"/><path fill="#015AFE" d="M198.019 210.45v-4.463s.381 1.534 3.969 0c3.579-1.534 10.373-4.862 10.373-4.862l-.355 9.073-13.987 4.489v-4.237Z"/><path fill="#000A8F" d="M211.997 210.198c-3.475 1.829-8.986 4.49-8.986 4.49l.069 1.793.191 5.226-2.886-3.865-1.023-1.361-1.343-1.793 13.987-4.49h-.009Z"/><path fill="#EBEBEB" d="M208.703 220.814c2.28 2.669 1.638 7.947 1.638 7.947 0 15.269-21.075 27.635-47.082 27.635-3.068 0-6.066-.173-8.969-.502l-.182.052-1.534-5.408V242.6s-3.077-.26-6.664 1.283l-5.373-2.427.138-6.915 13.554-6.803c-.104.208-3.865 7.323-3.241 7.487.234.061 3.692.104 8.259-.242l-1.474 7.609s1.361-.209 2.219-2.427c.858-2.219.702-5.304.702-5.304 4.133-.364 8.934-1.057 12.999-2.305 0 0 .806 4.221 3.709 6.179l-1.855-6.803c2.791-1.048 5.061-2.418 6.292-4.203 0 0 .338-4.515-12.375-9.437.251-4.22-4.351-8.085-4.351-8.085-2.816-2.826-10.884-6.899-10.884-6.899 3.544-2.201 14.212-2.01 14.212-2.01 5.685.338 10.703 1.248 15.599 2.669 4.896 1.421 10.209 4.22 13.97 6.5v4.237l1.343 1.794-2.617 4.35s.641 1.023 1.794 0c1.152-1.022 1.845-2.989 1.845-2.989l2.886 3.865-1.924 5.78s2.176 1.534 3.328-3.328l.945-2.808c.875-.138 1.941-.32 3.093-.537v-.017Z"/><path fill="#000A8F" d="m205.619 221.352-.945 2.807c-1.153 4.862-3.328 3.328-3.328 3.328l1.924-5.78s.927-.13 2.349-.355Z"/><path fill="#EBEBEB" d="m203.341 94.819.528.927-39.04 22.419v-6.404l-4.732-2.565c-8.432 5.035-18.216 1.906-18.554 1.802h-.008s-12.8-7.175-19.716-12.037a24.538 24.538 0 0 0-2.322-1.447c-5.494-2.981-8.683-1.482-8.683-1.482l-10.755 5.997-7.063-4.021 32.845-19.386v10.226c.277.312.753.615 1.369.91l-2.773 7.028c2.305.763 5.546-6.014 5.546-6.014 3.102.919 7.132 1.646 9.636 2.054l.936 2.808c1.153 4.861 3.337 3.327 3.337 3.327l-1.924-5.78 2.886-3.865s.702 1.967 1.846 2.99c1.152 1.022 1.793 0 1.793 0l-2.617-4.35 1.344-1.794v-8.71s-5.928-3.215-10.287-5.381l29.95-17.67 24.239 15.564c-4.377 2.158-10.573 5.52-10.573 5.52v8.71l1.343 1.793-2.617 4.35s.641 1.023 1.794 0c1.153-1.022 1.846-2.99 1.846-2.99l2.886 3.866-1.916 5.789s2.176 1.534 3.328-3.337l.945-2.807c2.504-.408 6.525-1.136 9.628-2.046.104.208 3.284 6.769 5.546 6.015l.009-.01Zm-31.493-16.413c1.942-1.664 1.491-8.65 1.491-8.65 0-2.001-4.229-3.63-9.446-3.63s-9.455 1.629-9.455 3.63c0 0-.45 5.582 1.43 7.792 1.881 2.218 11.552 2.73 15.989.858h-.009Z"/><path fill="#015AFE" d="M188.157 90.85c-1.422.234-2.357.356-2.357.356l-.191-5.226c13.762-3.458 16.318-10.503 16.318-10.503v11.396c-.277.312-.754.615-1.369.91-.746.355-1.707.702-2.773 1.014-3.103.918-7.124 1.646-9.628 2.053Z"/><path fill="#000A8F" d="m199.361 216.481 1.023 1.36s-.702 1.967-1.846 2.99c-1.153 1.023-1.794 0-1.794 0l2.617-4.35Z"/><path fill="#C0D1FF" d="M195.281 68.188c1.282 0 6.655 7.297 6.655 7.297s-2.556 7.046-16.318 10.503l-.06-1.794s5.52-2.669 8.986-4.489a43.11 43.11 0 0 0 1.63-.892c2.946-1.664 2.565-2.643 2.565-2.643l-3.839-5.547s-6.786 3.328-10.374 4.862c-3.587 1.534-3.969 0-3.969 0s6.197-3.362 10.573-5.52c2.08-1.023 3.744-1.777 4.16-1.777h-.009Z"/><path fill="#000A8F" d="M198.729 76.17s.382.98-2.565 2.643c-.45.252-1.005.555-1.629.893l.355-9.082 3.839 5.546Z"/><path fill="#015AFE" d="m194.89 70.614-.355 9.074-13.987 4.489v-8.71s.381 1.534 3.969 0c3.579-1.534 10.373-4.861 10.373-4.861v.008Z"/><path fill="#000A8F" d="M194.535 79.696c-3.475 1.829-8.987 4.49-8.987 4.49l.061 1.793.191 5.226-2.886-3.865-1.023-1.36-1.343-1.795 13.987-4.489Z"/><path fill="#fff" d="M169.472 218.284c12.713 4.922 12.375 9.437 12.375 9.437-1.23 1.785-3.501 3.155-6.291 4.195-.598.225-1.222.433-1.855.632-4.073 1.248-8.865 1.942-12.999 2.306-.494.043-.97.078-1.438.121-4.559.346-8.025.303-8.259.243-.624-.165 3.137-7.289 3.241-7.488 0 0 7.297-8.553 8.068-9.437.763-.884 7.167 0 7.167 0l-.009-.009Z"/><path fill="#000A8F" d="m175.549 231.924 1.854 6.803c-2.903-1.95-3.709-6.179-3.709-6.179a35.666 35.666 0 0 0 1.855-.624Z"/><path fill="#2458F1" d="M173.337 69.748s.451 6.985-1.491 8.648c-4.437 1.881-14.108 1.361-15.988-.858-1.881-2.218-1.43-7.79-1.43-7.79 0 2.01 4.229 3.63 9.454 3.63 5.226 0 9.446-1.62 9.446-3.63h.009Z"/><path fill="#015AFE" d="M165.122 210.198s4.611 3.874 4.351 8.086c0 0-6.405-.884-7.167 0-.771.884-8.068 9.437-8.068 9.437l-13.554 6.812s-8.458 0-10.633 2.816c0 0-6.924-1.924-13.233-4.315-5.642-2.132-10.798-4.628-10.07-6.439 1.534-3.839 5.893-8.302 5.893-8.302s3.276 2.738 6.915 5.589c4.099 3.215 8.658 6.578 9.472 6.309 1.534-.511 32.775-16.405 36.103-19.984l-.009-.009Z"/><path fill="#fff" d="M166.883 7.726V54.41l-29.949 17.67c-2.201-1.093-4.004-1.916-4.437-1.916-1.283 0-6.664 7.297-6.664 7.297v1.161L92.988 98.008 51.92 74.636 166.364 7.422l.511.304h.008ZM164.827 111.752v6.404l-2.877 1.707-8.77 5.217-8.363 4.966-44.768 26.613v-51.554s14.038-9.047 19.437-7.591c.737.398 1.508.875 2.323 1.447 6.915 4.862 19.715 12.037 19.715 12.037h.009c.32.191 7.764 4.515 23.294.763v-.009Z"/><path fill="#C0D1FF" d="m160.098 109.196 4.731 2.565c-15.521 3.753-22.965-.563-23.294-.762.347.112 10.131 3.232 18.554-1.803h.009ZM161.95 119.864v52.568l-7.149 3.466-1.621-.147V125.08l8.77-5.216Z"/><path fill="#000A8F" d="M160.693 234.862s.156 3.085-.702 5.304c-.849 2.218-2.218 2.426-2.218 2.426l1.473-7.609c.468-.034.953-.069 1.438-.121h.009Z"/><path fill="#EBEBEB" d="M154.238 203.3s8.068 4.073 10.884 6.898c-3.327 3.57-34.568 19.472-36.102 19.984-.815.268-5.364-3.086-9.472-6.309 0 0 29.187-13.155 34.69-20.573Z"/><path fill="#C0D1FF" d="m145.91 194.114 8.328 9.186c-5.503 7.418-34.69 20.573-34.69 20.573-3.64-2.851-6.916-5.589-6.916-5.589l5.633-7.054 14.828-7.679 12.825-9.437h-.008Z"/><path fill="#000A8F" d="M152.471 255.668c-.537-1.343-1.473-4.524-1.473-4.524.979-.381 1.577-.606 1.577-.606l1.534 5.407.13.451s-1.153.667-1.664-.485c-.035-.07-.069-.156-.104-.243Z"/><path fill="#C0D1FF" d="M153.181 125.08v50.67l-8.363-.753v-44.951l8.363-4.966Z"/><path fill="#015AFE" d="M152.575 242.6v7.938s-.598.226-1.577.607a133.25 133.25 0 0 0-5.85 2.47c-.355.164-.693.303-.996.416a9.972 9.972 0 0 1-1.569.476c-1.49.312-1.854-.147-1.906-.242v-9.689s2.556-.633 5.234-.693c3.588-1.534 6.664-1.283 6.664-1.283Z"/><path fill="#EBEBEB" d="M150.996 251.137s.936 3.18 1.473 4.523a71.986 71.986 0 0 1-8.319-1.637c.303-.122.633-.252.997-.416a133.298 133.298 0 0 1 5.849-2.47Z"/><path fill="#015AFE" d="M147.211 77.452v8.71l-13.987-4.49-.355-9.073s6.785 3.328 10.373 4.862c3.588 1.534 3.969 0 3.969 0v-.009Z"/><path fill="#000A8F" d="m147.21 86.161-1.343 1.794-1.023 1.36-2.885 3.866.19-5.226.07-1.794s-5.512-2.669-8.987-4.489l13.987 4.49h-.009Z"/><path fill="#C0D1FF" d="M147.211 77.452s-.382 1.534-3.969 0c-3.579-1.534-10.374-4.862-10.374-4.862l-3.839 5.546s-.381.989 2.565 2.652c.451.252 1.014.555 1.638.884 3.475 1.829 8.987 4.49 8.987 4.49l-.069 1.793c-13.762-3.458-16.318-10.495-16.318-10.495s5.372-7.296 6.664-7.296c.433 0 2.236.823 4.437 1.915 4.359 2.167 10.286 5.382 10.286 5.382l-.008-.01Z"/><path fill="#000A8F" d="m140.536 241.448 5.373 2.426c-2.686.061-5.234.693-5.234.693-1.352-.493-2.686-1.204-3.891-1.984l3.752-1.144v.009ZM142.583 254.508v8.831c-1.152 1.022-1.906 0-1.906 0v-9.074c.052.096.416.555 1.906.243Z"/><path fill="#015AFE" d="M139.62 92.818c-2.504-.407-6.534-1.135-9.636-2.054-1.066-.32-2.028-.659-2.773-1.014-.616-.294-1.092-.598-1.37-.91V77.453s2.565 7.046 16.318 10.495l-.19 5.225s-.927-.13-2.349-.355ZM140.676 254.248v.017l-.009-.017-7.687-4.446-1.768-1.023-1.17-.676v-10.754c2.176-2.817 10.634-2.817 10.634-2.817s-7.496.763-9.23 3.779c0 0 2.28 2.322 5.339 4.281 1.204.771 2.53 1.49 3.891 1.984v9.672Z"/><path fill="#000A8F" d="m140.677 234.532-.139 6.916-3.752 1.144c-3.059-1.95-5.338-4.281-5.338-4.281 1.724-3.007 9.229-3.779 9.229-3.779ZM132.877 72.59l.355 9.074a84.964 84.964 0 0 1-1.638-.884c-2.946-1.664-2.565-2.652-2.565-2.652l3.839-5.546.009.009ZM132.982 249.802l-3.189 6.109c-2.496 1.092-2.435 0-2.435 0l3.856-7.132 1.768 1.023Z"/><path fill="#EBEBEB" d="M130.043 237.349v10.754c-6.534-3.995-11.534-9.281-13.233-15.07 6.309 2.383 13.233 4.316 13.233 4.316Z"/><path fill="#000A8F" d="M112.415 191.844v11.283L84.294 220.26v-12.454l-.139-.259 28.26-15.703Z"/><path fill="#fff" d="M100.051 105.097v51.554l-54.015-31.752V74.376l54.015 30.721Z"/><path fill="#EBEBEB" d="m100.049 156.651-34.733 20.643-6.994-4.602-9.02 5.98-47.057-26.978 43.789-26.795 54.015 31.752Z"/><path fill="#000A8F" d="M84.294 207.807v12.445c-5.373.727-6.655-2.566-6.655-2.566v-9.896a6.2 6.2 0 0 0 6.032.008l.476-.259.147.259v.009Z"/><path fill="#000A8F" d="M77.64 207.797v9.897l-7.618-4.048v-10.104l7.618 4.255Z"/><path fill="#C0D1FF" d="M65.317 177.293v51.997l-9.22 5.121v-51.736l.042-.078.13.078 9.048-5.382Z"/><path fill="#C0D1FF" d="m65.317 177.294-9.047 5.381-.13-.077-6.837-3.926 9.021-5.98 6.993 4.602Z"/><path fill="#C0D1FF" d="m56.14 182.596-.043.078v51.745c-2.28-1.309-4.55-2.609-6.794-3.891v-51.84l6.837 3.917v-.009Z"/><path fill="#fff" d="M49.301 178.672v51.849a5441.512 5441.512 0 0 1-47.056-27.359v-51.467L49.3 178.672Z"/><path stroke="#2458F4" stroke-miterlimit="10" stroke-width="2.6" d="M49.301 230.52C24.196 216.1 2.245 203.161 2.245 203.161v-51.467l43.78-26.795V74.376L166.363 4.398 267.07 64.306l22.184 56.494 28.676 16.56v53.426l-51.337 30.019-67.465 39.448s-40.791 21.162-85.005 5.98c-11.907-5.729-35.548-18.944-58.036-31.813a3846.88 3846.88 0 0 0-6.794-3.892l.008-.008Z"/><path stroke="#2458F4" stroke-miterlimit="10" stroke-width=".867" d="M141.527 110.989s-12.8-7.175-19.715-12.037a24.652 24.652 0 0 0-2.323-1.447c-5.494-2.981-8.683-1.482-8.683-1.482l-10.755 5.997-7.063-4.021L51.92 74.627 166.363 7.413l.512.303 98.186 57.82 21.89 56.58 28.598 17.02v45.488l-88.506-51.883-8.709 5.329-24.326 14.897 87.821 52.1"/><path stroke="#2458F4" stroke-miterlimit="10" stroke-width=".867" d="m144.818 130.047 8.363-4.966 8.77-5.217 2.877-1.707v-6.404l-4.732-2.565c-8.432 5.035-18.216 1.906-18.554 1.802M2.245 151.694 49.3 178.671l6.838 3.926.13.078 9.047-5.382 34.733-20.642 44.769-26.605M46.036 74.376l54.024 30.73s14.039-9.047 19.438-7.592"/><path stroke="#2458F4" stroke-miterlimit="10" stroke-width=".867" d="M141.525 110.99h.009c.32.191 7.765 4.515 23.294.763M125.832 78.622 92.988 98M191.12 69.965 166.882 54.4l-29.95 17.67M164.828 118.156l39.04-22.418 14.472-8.311-16.404-10.53M194.016 152.977v2.314l87.821 52.472M194.016 155.291l-7.938 4.073 88.081 52.368"/><path stroke="#2458F4" stroke-miterlimit="10" stroke-width=".867" d="M186.078 159.363v2.375l88.081 52.048M186.076 161.738l-6.482 3.874 87.007 52.784"/><path stroke="#2458F4" stroke-miterlimit="10" stroke-width=".867" d="M179.594 165.611v2.47l87.007 52.724v-2.409l7.557-4.61v-2.054l7.678-3.969v-2.687l33.719-20.443 2.383-1.447M140.676 234.532s-8.458 0-10.634 2.817v10.754l1.17.676 1.768 1.023 7.687 4.446.009.017c.052.095.416.555 1.906.243.425-.087.936-.243 1.569-.477.303-.121.632-.251.996-.416a133.25 133.25 0 0 1 5.85-2.47 166.3 166.3 0 0 1 1.577-.606v-7.938s-3.076-.26-6.664 1.282l-5.373-2.426.139-6.916v-.009ZM140.536 241.447l-3.752 1.144"/><path stroke="#2458F4" stroke-miterlimit="10" stroke-width=".867" d="M140.677 244.567v18.762s.754 1.023 1.906 0v-8.831M131.214 248.779l-3.856 7.132s-.061 1.092 2.435 0l3.189-6.109M152.575 250.53l1.534 5.408.13.451s-1.153.667-1.664-.486c-.035-.069-.069-.156-.104-.243-.537-1.343-1.473-4.523-1.473-4.523M198.018 214.696l1.343 1.794 1.023 1.361 2.886 3.865s.927-.13 2.348-.356c.876-.138 1.941-.32 3.094-.537 2.123-.399 4.532-.919 6.543-1.516 1.066-.321 2.028-.659 2.773-1.014.615-.295 1.092-.598 1.361-.91v-11.387s-5.373-7.297-6.656-7.297c-1.283 0-14.723 7.297-14.723 7.297v8.709l.008-.009Z"/><path stroke="#2458F4" stroke-miterlimit="10" stroke-width=".867" d="M198.019 205.987s.381 1.534 3.969 0c3.579-1.534 10.373-4.862 10.373-4.862l3.839 5.546s.382.988-2.565 2.652c-.45.251-1.014.555-1.638.893-3.475 1.819-8.986 4.489-8.986 4.489l.069 1.793.191 5.226-1.924 5.78s2.175 1.534 3.328-3.327l.944-2.808.026-.061"/><path stroke="#2458F4" stroke-miterlimit="10" stroke-width=".867" d="m212.361 201.125-.364 9.073-13.978 4.498M219.397 205.986s-2.556 7.045-16.318 10.495M199.361 216.481l-2.617 4.35s.641 1.023 1.794 0 1.846-2.99 1.846-2.99M215.255 219.298s3.25 6.785 5.547 6.014l-2.773-7.028M147.211 86.161l-1.344 1.794-1.022 1.36-2.886 3.866s-.927-.13-2.348-.356c-2.505-.407-6.535-1.135-9.637-2.053-1.066-.321-2.028-.66-2.773-1.015-.615-.294-1.092-.597-1.369-.91V77.462s5.372-7.297 6.664-7.297c.433 0 2.236.823 4.437 1.915 4.359 2.167 10.286 5.382 10.286 5.382v8.709l-.008-.009Z"/><path stroke="#2458F4" stroke-miterlimit="10" stroke-width=".867" d="M147.211 77.452s-.382 1.534-3.969 0c-3.579-1.534-10.374-4.862-10.374-4.862l-3.839 5.546s-.381.988 2.565 2.652c.451.251 1.014.555 1.638.884 3.475 1.829 8.987 4.489 8.987 4.489l-.069 1.794-.191 5.225 1.924 5.78s-2.175 1.534-3.337-3.327l-.935-2.808-.027-.06"/><path stroke="#2458F4" stroke-miterlimit="10" stroke-width=".867" d="m132.877 72.59.355 9.073 13.979 4.498M125.832 77.453s2.565 7.046 16.318 10.495M145.875 87.947l2.618 4.35s-.642 1.023-1.794 0c-1.153-1.022-1.846-2.99-1.846-2.99M129.974 90.764s-3.25 6.785-5.546 6.014l2.773-7.029M197.793 88.795c1.066-.312 2.028-.65 2.774-1.014.615-.286 1.091-.598 1.369-.91V75.475s-5.373-7.296-6.656-7.296c-.416 0-2.08.754-4.159 1.776-4.377 2.158-10.573 5.52-10.573 5.52v8.71l1.343 1.794 1.023 1.36 2.886 3.865s.936-.13 2.357-.355c2.504-.407 6.525-1.135 9.628-2.045"/><path stroke="#2458F4" stroke-miterlimit="10" stroke-width=".867" d="M180.548 75.486s.381 1.533 3.969 0c3.579-1.534 10.373-4.862 10.373-4.862l3.839 5.546s.382.98-2.565 2.643c-.45.252-1.005.555-1.629.893-3.475 1.82-8.987 4.489-8.987 4.489l.061 1.794.191 5.225-1.916 5.79s2.176 1.533 3.328-3.337l.945-2.808.017-.06"/><path stroke="#2458F4" stroke-miterlimit="10" stroke-width=".867" d="m194.89 70.616-.355 9.082-13.987 4.489M201.937 75.484s-2.556 7.046-16.318 10.504M181.892 85.98l-2.617 4.35s.641 1.023 1.794 0c1.153-1.022 1.846-2.99 1.846-2.99M197.795 88.797c.104.208 3.284 6.776 5.546 6.023l-2.773-7.029M154.239 227.721s7.296-8.553 8.068-9.437c.762-.884 7.166 0 7.166 0 .252-4.221-4.35-8.086-4.35-8.086-2.816-2.825-10.884-6.898-10.884-6.898l-8.328-9.186-12.826 9.437-14.828 7.679-5.633 7.054s-4.35 4.463-5.893 8.302c-.727 1.811 4.429 4.315 10.07 6.439 6.309 2.383 13.233 4.315 13.233 4.315"/><path stroke="#2458F4" stroke-miterlimit="10" stroke-width=".867" d="M145.911 243.874c-2.686.061-5.234.694-5.234.694-1.352-.494-2.686-1.205-3.891-1.985-3.059-1.95-5.338-4.281-5.338-4.281 1.724-3.007 9.229-3.778 9.229-3.778l13.554-6.803M112.632 218.284s3.276 2.738 6.916 5.589c4.099 3.216 8.657 6.578 9.472 6.309 1.534-.511 32.775-16.404 36.102-19.984"/><path stroke="#2458F4" stroke-miterlimit="10" stroke-width=".867" d="M119.539 223.873s29.187-13.155 34.69-20.573M175.548 231.924c2.79-1.049 5.061-2.418 6.291-4.195 0 0 .338-4.514-12.375-9.437M154.237 227.721c-.104.208-3.865 7.323-3.241 7.496.234.061 3.692.104 8.259-.243.468-.034.953-.069 1.438-.121 4.134-.364 8.935-1.057 12.999-2.305a36.636 36.636 0 0 0 1.855-.624"/><path stroke="#2458F4" stroke-miterlimit="10" stroke-width=".867" d="m159.255 234.975-1.473 7.608s1.361-.208 2.218-2.426c.858-2.219.702-5.304.702-5.304M173.694 232.548s.806 4.22 3.709 6.179l-1.854-6.803M154.29 255.893c2.903.33 5.902.503 8.97.503 26.006 0 47.082-12.375 47.082-27.636 0 0 .641-5.277-1.638-7.947M144.15 254.022a71.443 71.443 0 0 0 8.319 1.638c.044 0 .087.018.139.018M116.81 233.033c1.699 5.789 6.69 11.066 13.233 15.07M198.036 210.458l-.018-.009c-3.761-2.279-9.073-5.078-13.969-6.499-4.905-1.421-9.923-2.323-15.599-2.669 0 0-10.668-.182-14.212 2.01M144.818 130.046v44.951l8.363.754 1.62.147 7.15-3.466v-52.568M153.18 125.08V175.898M56.097 182.675v51.737l9.22-5.122v-51.996l-6.993-4.602-9.021 5.98V231.014M166.881 54.4V7.423M46.036 124.898l54.015 31.752v-51.554M218.341 87.427v50.653M173.339 69.749c0 2.01-4.229 3.63-9.446 3.63s-9.455-1.62-9.455-3.63 4.229-3.631 9.455-3.631c5.225 0 9.446 1.629 9.446 3.63Z"/><path stroke="#2458F4" stroke-miterlimit="10" stroke-width=".867" d="M154.428 69.748s-.451 5.58 1.43 7.79c1.88 2.219 11.551 2.73 15.988.859 1.942-1.664 1.491-8.65 1.491-8.65M112.416 191.844c.858-.477.824-1.725-.06-2.15l-10.694-5.156a1.225 1.225 0 0 0-1.11.035l-30.521 16.855c-.832.46-.832 1.655-.009 2.115l7.618 4.263a6.197 6.197 0 0 0 6.031.009l.477-.26 28.268-15.703v-.008Z"/><path stroke="#2458F4" stroke-miterlimit="10" stroke-width=".867" d="M112.416 191.844v11.283L84.295 220.26v-12.454M70.022 203.542v10.104l7.618 4.048"/><path stroke="#2458F4" stroke-miterlimit="10" stroke-width=".867" d="M77.639 207.797v9.897s1.282 3.293 6.655 2.565"/><path fill="#000" d="M204.51 213.769a4.12 4.12 0 0 0-2.253.997c-.356.312-.685.641-.953.901.277.321.589.685.892 1.057.615.754.901 1.638 1.109 2.583.26 1.161.59 2.296.928 3.44.078.277.277.537.442.78.078.104.234.243.338.234.632-.087.918.407 1.256.763.121.13.165.502.07.658-.269.425-.13.798-.009 1.196.034.113.06.234.095.399-.113-.035-.147-.035-.156-.052-.58-.754-.719-.754-1.178.06a4.439 4.439 0 0 0-.408 1.032c-.138.502-.372.91-.84 1.144-.598.303-1.214.58-1.829.849-.13.052-.294.009-.442.017 0-.164-.069-.372 0-.485.295-.468.65-.901.962-1.369.121-.191.234-.425.26-.642.043-.424-.017-.866.035-1.291.138-1.17-.2-2.201-.789-3.189a166.329 166.329 0 0 1-2.513-4.359c-.39-.693-.693-1.438-1.092-2.27-.711 1.135-1.404 2.192-2.045 3.267-.251.424-.269.866 0 1.343.39.719.277 1.022-.303 1.577-.217.208-.33.52-.486.78-.052.095-.121.182-.173.269-.035-.018-.069-.035-.095-.052v-.59c0-.355-.217-.502-.538-.346a9.637 9.637 0 0 0-1.022.554c-.676.425-1.387.538-2.141.304-.485-.156-.979-.33-1.421-.572-.355-.191-.303-.538.078-.659.407-.13.841-.164 1.248-.294.234-.07.477-.191.65-.356 1.534-1.516 2.825-3.215 3.579-5.26.572-1.543 1.101-3.111 1.655-4.662.13-.382.277-.754.416-1.127.312-.875.979-1.36 1.863-1.326 2.331.078 4.68-.165 6.994.312.138.026.277 0 .459 0-.338-.901.451-1.352.763-1.984-1.023-.772-1.222-1.751-.858-3.016.234-.797.216-1.664.26-2.505.043-.78 0-1.568.06-2.348.018-.182.269-.425.468-.511.538-.243.598-.633.503-1.144-.104-.555-.113-1.092.095-1.673.2-.572.208-1.239-.112-1.872-.798-1.568-.234-3.241 1.308-4.012a1.958 1.958 0 0 1 1.543-.13c.13.043.312.095.372.191.477.745 1.326 1.239 1.422 2.279.026.329.329.676.251 1.074-.147.685-.26 1.387-.494 2.037-.191.528-.095.979.407 1.256.52.295 1.066.39 1.656.382.528-.009.875.234 1.117.71.13.252.373.477.616.624 1.135.693 2.262 1.404 3.44 2.019.702.364 1.101.936 1.491 1.552.121.199.138.494.13.745-.009.312-.217.459-.546.477-.382.017-.763.086-1.144.138-.555.078-1.066.035-1.569-.268-.589-.347-1.204-.668-1.924-.607a.536.536 0 0 1-.164-.035c-.477-.173-.546-.156-.642.347a20.245 20.245 0 0 0-.234 1.612c-.026.26-.034.485-.459.303l.26.797c-.043-.017-.078-.026-.121-.043-.104.199-.277.39-.303.598l-1.058 2.955m-3.934-13.164c.043.702-.511 1.292-.052 1.942.199-.052.425-.104.659-.165-.096-1.04-.607-1.88-1.014-2.747-.009-.026-.13 0-.226 0 .122.433.234.832.356 1.239.052-.052.13-.113.286-.26l-.009-.009ZM242.682 148.141a743.951 743.951 0 0 0-.078 7.617c0 .364.104.745.243 1.083.918 2.288.745 4.628.364 6.968-.026.173-.252.338-.416.45-.269.173-.607.26-.858.459-.494.382-1.005.659-1.655.521-.529-.104-.72-.408-.52-.902.156-.381.442-.702.589-1.083.121-.329.225-.711.173-1.049-.303-2.079-.693-4.151-.962-6.239-.216-1.742-.251-3.51-.45-5.252-.139-1.256-.399-2.504-.65-3.752-.087-.416-.434-.797-.468-1.213a20.134 20.134 0 0 1 .026-2.713c.06-1.014-.174-1.508-1.101-1.915-.572-.243-1.17-.425-1.742-.65-.71-.286-.875-.607-.719-1.352.147-.693.485-1.378.095-2.114-.069-.122.087-.39.174-.564.346-.658.806-1.274 1.048-1.958.59-1.673 1.786-2.626 3.38-3.215.173-.061.312-.226.607-.433-.295-.052-.39-.079-.486-.079-.554.026-1.014-.034-1.126-.745-.052-.303-.312-.572-.468-.858-.035-.069-.087-.199-.061-.225.702-.633-.277-1.482.286-2.141.043-.052-.13-.277-.225-.459.121-.225.251-.529.442-.789.164-.216.372-.485.606-.545.702-.182 1.413-.33 2.132-.373.823-.052 2.089 1.3 2.08 2.236 0 .71.147 1.456-.494 2.071-.347.338.095 1.369.572 1.542.641.234 1.335.373 1.915.72.694.416 1.456.884 1.872 1.542.711 1.118 1.196 2.392 1.725 3.623.13.294.138.693-.304.892-.086.044-.156.226-.164.356-.07 1.499-.312 2.955-1.014 4.315-.122.243-.113.555-.139.841-.043.407.121.849-.407 1.135-.139.078-.095.624-.035.936.234 1.222.468 2.435.771 3.64.269 1.031.46 2.054.226 3.12a.633.633 0 0 0-.018.311c.416 1.37-.26 2.635-.355 3.961-.069 1.005-.104 2.019-.217 3.024-.052.46-.199.919-.398 1.335-.251.537-.286.979.069 1.499.607.893.511 2.054-.182 2.738-.13.13-.511.226-.606.139-.373-.329-.78-.684-.962-1.118-.252-.598-.286-1.282-.468-1.924-.113-.389-.356-.745-.46-1.143-.104-.408-.095-.841-.13-1.266 0-.078.035-.164.026-.242-.182-1.56.226-3.042.624-4.515.122-.434.122-.806-.338-1.066-.511-.286-.468-.789-.312-1.214.564-1.533-.182-2.755-.84-4.003-.078 0-.148.017-.226.026l.009.009Zm-6.118-10.097c.251.468.442.833.641 1.197l.191-.096c-.347-.295.234-1.023-.832-1.101ZM229.079 139.354c.225 1.456.45 2.799.632 4.143.052.381-.06.78-.086 1.17-.009.199-.026.424.034.606.416 1.265.382 2.47-.398 3.614a2.601 2.601 0 0 0-.364.789c-.928 3.171-2.02 6.3-2.219 9.645-.069 1.144.199 2.071 1.101 2.808.286.233.52.537.728.84.086.13.121.39.043.503-.069.112-.321.156-.485.147-.234 0-.477-.069-.798-.121.356.823-.13 1.005-.702 1.135-.26.061-.528.113-.788.173-.459.104-.702-.069-.901-.511-.148-.338-.52-.581-.754-.893-.174-.216-.416-.467-.425-.71-.035-.702.295-1.43-.217-2.097-.06-.078.044-.269.07-.408.442-2.4.927-4.792 1.308-7.201.104-.641-.034-1.361-.208-2.011-.494-1.854-1.083-3.683-1.577-5.537-.234-.884-.659-1.508-1.543-1.759-.563-.156-.736-.538-.719-1.066.122-2.713.269-5.425.893-8.068.164-.702.563-1.378.962-1.993.234-.356.65-.651 1.057-.807 1.109-.433 1.439-1.551.667-2.469-1.144-1.378-.58-3.328 1.084-3.952.857-.321 1.611-.39 2.391.156.26.182.607.26.971.399-.364.771-.451 1.551-.095 2.383.121.286.017.684-.018 1.022-.052.442-.147.884-.234 1.413-.433.043-1.005.087-.918.893 1.889.71 2.877 2.192 3.388 4.099.234.875.624 1.707.91 2.573.165.494.321 1.032-.113 1.456-.424.425-.97.278-1.464.13-.373-.112-.728-.286-1.222-.494h.009ZM165.652 217.53c.061-.182.355-1.629.381-1.819.174-1.5-.06-1.942-1.482-2.401-1.031-.329-2.097-.546-3.163-.823.061-.173.156-.416.217-.659.156-.624.052-.814-.555-1.066-.26-.112-.502-.26-.771-.346-.251-.078-.511-.148-.771-.139-.459 0-.737-.199-.823-.65-.026-.156-.07-.355-.182-.433-.338-.234-.321-.529-.26-.867.294-1.568.32-3.146.173-4.723-.121-1.274-.563-2.374-1.855-2.938-.268-.121-.52-.286-.771-.45-.182-.122-.329-.278-.139-.512.278-.346.512-.736.824-1.039.736-.711 1.031-1.621 1.256-2.566.269-1.152-.398-2.4-1.43-2.651-1.317-.312-2.435-.07-2.894 1.386-.061.191-.113.459-.251.546-.442.277-.408.693-.425 1.101 0 .19.043.381.052.58.026.52-.451 1.456-.806 1.456-.867 0-1.543.503-2.314.772-.641.225-1.057.675-1.378 1.265-.866 1.594-.84 3.284-.546 5 .139.771.122 1.517-.251 2.219-1.109 2.053-1.837 4.228-1.993 6.568-.052.711-.069 1.43-.026 2.132.017.373.217.711.693.745 1.179.078 2.349.2 3.519.252 1.681.078 1.785 0 2.469-1.508 0-.009.026-.017.018-.009.554.52 1.083 1.058 1.664 1.543 1.178.988 2.365 1.95 3.57 2.903.277.216.355.451.277.771-.173.771-.823 2.843-.953 3.623 0 0 2.738-5.98 8.935-7.289l-.009.026ZM180.634 217.555c-1.326 0-1.291-.901-1.386-1.698-.104-.806.13-1.525.546-2.201.589-.962 1.906-1.309 2.937-.823.373.173.806.234 1.292.355-.312.78.208 1.36.424 2.054.26.832.165 1.794.122 2.695-.018.295-.33.572-.512.849-.086-.017-.164-.043-.251-.061.373.165.728.39 1.118.477 1.048.234 1.716.867 2.14 1.803.113.26.234.52.304.797.563 2.366 1.118 4.732 1.664 7.097.069.295.034.616.104.902.086.372.19.754.364 1.092.207.398.303.702-.07 1.083-.182.19-.234.563-.26.858-.069.676-.017 1.369-.147 2.036-.537 2.739-1.144 5.46-1.681 8.198a6.676 6.676 0 0 0-.104 1.82c.164 2.236-.373 4.394-.659 6.578-.026.182-.043.364-.061.546-.095 1.152.312 1.707 1.439 1.941l.416.078c.295.06.685-.078.728.424.043.46-.078.85-.52.98-.849.251-1.707.511-2.583.632-.71.096-1.455 0-2.183-.034-.399-.018-.572-.243-.555-.642 0-.164-.017-.338.026-.485.338-1.127.529-2.27.503-3.458-.018-.962.147-1.932.138-2.894-.008-1.439-.173-2.877.356-4.272a.862.862 0 0 0 .008-.59c-.424-1.014-.346-2.071-.303-3.12.052-1.126-.104-2.209-.667-3.249-.026.138-.061.277-.07.416-.069 1.317-.095 2.634-.208 3.951-.13 1.552-.398 3.094-.485 4.645-.087 1.621-.043 3.241-.017 4.862 0 .234.234.459.32.702.122.355.33.737.286 1.083-.147 1.161-.849 2.002-1.828 2.574-.607.347-1.248-.035-1.326-.754a7.415 7.415 0 0 1 .017-1.638c.139-1.308-.104-2.513-.641-3.718-.243-.546-.191-1.256-.191-1.889 0-.849.096-1.69.113-2.539.026-1.074 0-2.149.043-3.224.096-2.816.208-5.633-.355-8.423-.069-.347-.312-.719-.589-.945-.988-.779-1.396-1.75-1.396-3.007 0-1.083-.303-2.166-.338-3.258-.069-2.019 0-4.038 1.404-5.694.338-.398.815-.702 1.266-.988.32-.208.598-.346.563-.814-.017-.217.234-.451.381-.668.078-.121.182-.216.373-.442h-.009ZM132.877 80.953c.745-1.655 2.66-4.836 3.44-6.474.217-.459.269-.996.468-1.464.468-1.092.789-2.28 1.725-3.111.061-.052.104-.122.199-.243h-.745c-.009-.052-.026-.104-.035-.156.347-.104.685-.26 1.04-.312.338-.043.52-.208.745-.433.763-.763.754-1.785.971-2.73.225-.997.529-1.95 1.17-2.764.442-.555.884-.884 1.75-.815.867.06 1.526.32 2.115.85.624.571.945 1.325 1.083 2.157.122.737-.199 1.387-.398 2.071-.139.468-.234.945-.312 1.43-.018.104.095.312.19.347.338.121.33.381.304.641-.113 1.049-.208 2.097-.373 3.128-.078.52-.026.867.511 1.11.226.104.347.407.538.606.078.087.208.13.355.217-.173.234-.373.485-.546.754-.321.494-.624.996-.936 1.49-.052.078-.078.2-.147.243-.373.225-.451.59-.512.98a4.388 4.388 0 0 1-.121.528c.39.139.763.251 1.118.407.407.182.693.512.771.954.104.572.304 1.135.104 1.733-.043.121.052.303.113.442.173.407.459.788.537 1.213.286 1.49.503 2.99.737 4.48.242 1.569.468 3.129.728 4.697.086.512.242 1.005.381 1.577-.581.165-1.127.33-1.681.486.26.806.866 1.282 1.56 1.646.641.347 1.326.616 1.967.962.251.139.589.373.624.607.052.364-.399.381-.667.468-1.205.424-2.418.303-3.632.008-.606-.147-1.195-.372-1.845-.26-.122.018-.278-.164-.416-.26-.191-.13-.373-.303-.581-.39-.338-.147-.693-.233-1.04-.372-.529-.208-.91-.494-.962-1.17-.026-.338-.424-.659-.65-.98-.13-.19-.277-.372-.372-.58-.078-.173-.104-.364-.13-.555-.087-.572-.026-1.074.494-1.455.199-.148.312-.434.433-.668.035-.06.009-.234-.035-.251-.364-.182-.26-.503-.251-.789.043-1.585.104-3.171.156-4.749v.321l-9.94-5.546v-.026Zm12.54 14.68c-.07-1.057-.087-2.132-.52-3.146.13 1.049.017 2.14.52 3.146ZM173.417 90.555c.45 1.864.936 3.727 1.317 5.599.095.468-.087 1.005-.191 1.499-.19.892-.216 1.76.104 2.634.486 1.318.477 2.557-.693 3.571-.381.329-.407.788.035 1.04a27.048 27.048 0 0 0 2.963 1.473c.572.234.997-.035 1.023-.711.061-1.17.121-2.348.147-3.518.018-.676-.121-1.361-.026-2.019.312-2.14.035-4.238-.338-6.344a17.189 17.189 0 0 1-.034-5.693c.156-.962.026-1.976.026-3.007.892 0 .97-.564.927-1.136-.095-1.369-.199-2.747-.399-4.108-.138-.91-.147-1.767.338-2.625.061.017.148.043.243.06 1.205.182 2.011-.546 1.811-1.759-.251-1.499-.771-2.972-.858-4.471-.138-2.479-1.889-3.424-3.717-4.35-.668-.339-.902-1.136-.382-1.69.078-.087.252-.165.252-.252-.035-1.144.017-2.305-.174-3.432-.13-.78-.953-.953-1.655-1.092-.728-.156-1.465-.312-2.21-.407-.19-.026-.476.13-.615.295-.399.485-.745 1.005-1.153 1.56.884.615.425 1.741.633 2.695.052.234.017.485.035.719.063.884.574 1.303 1.533 1.257-.181.372-.294.667-.476.927-.087.121-.286.2-.442.234-2.011.442-2.886 1.811-3.207 3.726-.251 1.525-.623 3.025-.909 4.55-.07.39-.035.823.034 1.222.165.979.425 1.17 1.577 1.152-.112.555-.078 1.153-.338 1.569-1.005 1.594-.935 3.224-.433 4.948.199.702.251 1.482.243 2.219-.018 2.79.086 5.555.78 8.276.026.095.06.208.026.286-.468 1.126-.044 2.244 0 3.362.06 1.707.052 3.423.026 5.139-.009.719-.494 1.127-1.136 1.343-.528.182-1.091.26-1.585.503-.269.139-.512.52-.555.823-.026.182.338.564.572.607 1.681.312 3.362.641 5.052.806 1.084.104 1.421-.355 1.369-1.456-.112-2.756-.208-5.494.035-8.25.182-2.037.035-4.108.061-6.162 0-.528.078-1.048.121-1.577.078 0 .156-.009.234-.017l.009-.017Z"/></g><defs><clipPath id="a"><path fill="#fff" d="M0 0h275v277H0z"/></clipPath></defs></svg>