<svg width="32" height="33" viewBox="0 0 32 33" fill="none" xmlns="http://www.w3.org/2000/svg">
<rect y="0.674164" width="32" height="32" rx="4" fill="#015AFD"/>
<path d="M9 7.67416C8.44772 7.67416 8 8.12188 8 8.67416C8 9.22644 8.44772 9.67416 9 9.67416H10.2192L10.5248 10.8964C10.528 10.9105 10.5315 10.9246 10.5353 10.9385L11.8925 16.3674L10.9999 17.26C9.74002 18.5199 10.6323 20.6742 12.4142 20.6742H21C21.5522 20.6742 22 20.2265 22 19.6742C22 19.1219 21.5522 18.6742 21 18.6742H12.4142L13.4142 17.6742H20C20.3788 17.6742 20.725 17.4602 20.8944 17.1214L23.8944 11.1214C24.0494 10.8114 24.0329 10.4433 23.8507 10.1484C23.6684 9.85361 23.3466 9.67416 23 9.67416H12.2808L11.9701 8.43162C11.8589 7.98646 11.4589 7.67416 11 7.67416H9Z" fill="white"/>
<path d="M22 23.1742C22 24.0026 21.3284 24.6742 20.5 24.6742C19.6716 24.6742 19 24.0026 19 23.1742C19 22.3458 19.6716 21.6742 20.5 21.6742C21.3284 21.6742 22 22.3458 22 23.1742Z" fill="white"/>
<path d="M12.5 24.6742C13.3284 24.6742 14 24.0026 14 23.1742C14 22.3458 13.3284 21.6742 12.5 21.6742C11.6716 21.6742 11 22.3458 11 23.1742C11 24.0026 11.6716 24.6742 12.5 24.6742Z" fill="white"/>
</svg>
