<svg width="263" height="56" viewBox="0 0 263 56" fill="none" xmlns="http://www.w3.org/2000/svg">
<path fill-rule="evenodd" clip-rule="evenodd" d="M27.598 0.157391C26.6874 0.442204 25.8221 1.17852 25.3736 2.05024C25.1959 2.39564 23.0782 9.9447 23.0782 10.2327C23.0782 10.2594 18.504 10.2813 12.9134 10.2813C5.97902 10.2813 2.65084 10.3183 2.44073 10.398C2.00291 10.5638 1.6435 10.9235 1.40987 11.4297C1.21595 11.8498 1.20786 12.6397 1.20556 31.2574C1.20294 52.3362 1.16684 51.0565 1.78262 51.7159C2.39687 52.3738 1.60522 52.3308 14.2188 52.3906L25.7579 52.4453L32.3662 54.2357C38.748 55.9646 39.0031 56.0242 39.8037 55.9752C40.3635 55.9408 40.8105 55.8403 41.1797 55.6656C41.9446 55.3037 42.7768 54.4391 43.0685 53.7031C43.425 52.8038 54.6851 10.6661 54.7577 9.96002C54.8315 9.24066 54.5305 8.21778 54.0314 7.4923C53.6734 6.972 52.7843 6.33675 52.0625 6.08563C51.7918 5.99145 46.5929 4.58358 40.5094 2.95717C28.7254 -0.193265 28.7221 -0.194031 27.598 0.157391ZM28.0547 2.12374C27.531 2.35747 27.1589 2.84484 26.9205 3.60938C26.6949 4.33267 25.1563 10.0848 25.1563 10.205C25.1563 10.2412 26.8913 10.2855 29.0118 10.3033L32.8672 10.3359L33.4825 10.638C34.0415 10.9126 35.0105 11.7893 35.1209 12.1205C35.1632 12.2475 37.7139 13.0183 38.0625 13.0095C38.1528 13.0072 39.4794 11.8323 41.0105 10.3986L43.7943 7.79188L44.5636 8.00505C44.9866 8.1223 45.3512 8.23649 45.3735 8.25891C45.4062 8.2915 42.6268 12.947 42.0381 13.8459C41.8924 14.0684 41.9234 14.0838 43.188 14.4201C43.9028 14.6101 44.5334 14.7656 44.5893 14.7656C44.6452 14.7656 45.1534 14.4923 45.7187 14.1584L46.7464 13.551L47.2717 13.677C47.5606 13.7464 47.7969 13.8491 47.7969 13.9052C47.7969 13.9614 47.4457 14.5308 47.0164 15.1706L46.2358 16.3341L46.3115 17.8913L46.3872 19.4486L45.9163 19.3332C45.6573 19.2699 45.3862 19.1719 45.3139 19.1156C45.2416 19.0593 44.9266 18.5585 44.614 18.0029L44.0455 16.9926L42.9408 16.6959C42.3331 16.5328 41.7192 16.3688 41.5764 16.3318L41.317 16.2644L41.3984 19.6828C41.4771 22.9919 41.4732 23.0993 41.2751 23.0413C41.1624 23.0081 40.7877 22.9012 40.4423 22.8034L39.8143 22.6256L39.4873 21.5667C39.3073 20.9844 38.7983 19.3271 38.356 17.884L37.5517 15.2603L36.6861 15.0163C36.2099 14.882 35.7835 14.7708 35.7383 14.7689C35.6931 14.7672 35.6563 18.0518 35.6563 22.0682V29.3707L36.5258 29.5778C37.0041 29.6918 37.451 29.8195 37.5189 29.8615C37.6062 29.9154 37.5071 30.4491 37.1821 31.676C36.9289 32.6319 36.6819 33.4577 36.6333 33.5112C36.582 33.5675 36.3596 33.5612 36.1033 33.4961L35.6618 33.384L35.6317 41.4381C35.6017 49.4511 35.6004 49.4948 35.3633 50.0081C34.9062 50.9975 33.5002 52.1719 32.7728 52.1719C32.6543 52.1719 32.5778 52.1922 32.6029 52.217C32.7091 52.322 39.2622 54.031 39.5506 54.0288C40.002 54.0255 40.7186 53.673 40.9988 53.3168C41.2999 52.9341 40.6494 55.2901 47.1444 31.0625C50.8882 17.0979 52.7304 10.051 52.7307 9.69435C52.7312 9.06631 52.358 8.41433 51.8467 8.14997C51.3764 7.90672 29.1557 1.96788 28.7351 1.97302C28.5413 1.97542 28.2352 2.04324 28.0547 2.12374ZM3.17191 31.2813V50.3125L17.7461 50.3108L32.3204 50.3089L32.7496 50.0647C33.0178 49.912 33.2748 49.6388 33.4342 49.3364L33.6895 48.8526L33.6612 31.1721L33.6329 13.4917L33.3594 13.088C33.209 12.8659 32.8858 12.5865 32.6413 12.4671C32.2045 12.2538 31.9382 12.25 17.6842 12.25H3.17191V31.2813ZM16.5346 16.1363C12.4804 16.8491 9.06624 19.6911 7.66984 23.5156C7.13938 24.9687 7.06216 25.466 7.05833 27.4531C7.05516 29.1215 7.0872 29.4862 7.30803 30.2945C7.87853 32.3828 8.8873 34.1376 10.3562 35.597C12.4318 37.6592 15.0064 38.7904 17.8984 38.9108C19.483 38.9768 20.6536 38.8254 22.0271 38.377C27.8399 36.4786 31.1438 30.3077 29.5231 24.3761C29.4019 23.9329 29.0635 23.0781 28.7709 22.4766C27.2759 19.4027 24.5784 17.1959 21.2735 16.3429C19.8911 15.986 17.8865 15.8988 16.5346 16.1363ZM18.0527 18.2574C17.4962 19.039 16.4354 21.6274 16.236 22.6901L16.1631 23.0781H18.484C20.5235 23.0781 20.7969 23.0578 20.7404 22.9106C20.7051 22.8184 20.6005 22.4513 20.5082 22.095C20.0786 20.437 18.9106 18.0193 18.5102 17.9588C18.3654 17.9368 18.2077 18.0399 18.0527 18.2574ZM14.873 18.7379C13.0174 19.5015 11.5394 20.743 10.4554 22.4492L10.0559 23.0781H12.0738H14.0919L14.2615 22.3322C14.4608 21.4558 15.132 19.4903 15.4338 18.8984C15.5501 18.6706 15.6072 18.4856 15.5608 18.487C15.5146 18.4884 15.2049 18.6013 14.873 18.7379ZM21.3282 18.5163C21.3282 18.5338 21.5172 19.0138 21.7482 19.5827C21.9792 20.1517 22.3028 21.1094 22.4673 21.7109C22.6318 22.3125 22.7858 22.8663 22.8094 22.9414C22.8418 23.0441 23.3434 23.0781 24.8275 23.0781H26.8025L26.6188 22.7227C26.098 21.715 24.8638 20.4142 23.6492 19.5927C22.9082 19.0914 21.3282 18.3587 21.3282 18.5163ZM37.1446 24.9187C37.1189 24.9603 37.0169 25.3136 36.9181 25.7041C36.8194 26.0946 36.7155 26.4929 36.6874 26.5893C36.6468 26.7282 36.8299 26.8167 37.5702 27.0156C38.084 27.1537 38.5205 27.2471 38.5404 27.2231C38.5602 27.1993 38.6776 26.7703 38.801 26.2698C38.9622 25.6173 38.9899 25.3477 38.8996 25.3163C38.3218 25.1162 37.182 24.858 37.1446 24.9187ZM9.24375 25.293C8.97425 26.0896 8.89791 27.7806 9.08428 28.8275C9.28783 29.9715 9.02325 29.8594 11.5191 29.8594H13.7266V27.5079V25.1564L11.5084 25.1563C9.8312 25.1563 9.27875 25.1896 9.24375 25.293ZM15.7109 25.8286C15.6216 26.6831 15.6221 28.1695 15.712 29.1211L15.7816 29.8594H18.4319H21.0821L21.1504 29.5176C21.2377 29.0812 21.2373 25.7284 21.1499 25.4023L21.0839 25.1563H18.4326H15.7812L15.7109 25.8286ZM23.228 27.5078L23.2253 29.8594H25.431H27.6369L27.7733 29.0962C27.9443 28.1396 27.9446 26.6866 27.774 25.8197L27.6435 25.1563H25.4371H23.2306L23.228 27.5078ZM40.7452 25.9417C40.6333 26.2606 40.2547 27.7126 40.2789 27.7305C40.3514 27.7843 42.1333 28.2298 42.1548 28.1995C42.2065 28.1267 42.6594 26.3263 42.631 26.3061C42.6148 26.2945 42.2817 26.2 41.8907 26.0961C41.4996 25.9922 41.0933 25.8824 40.9878 25.8523C40.8822 25.8221 40.7731 25.8624 40.7452 25.9417ZM44.3549 26.9336C44.0448 27.8844 43.8886 28.6738 44.0028 28.7135C44.3199 28.8235 45.7601 29.1975 45.7774 29.1742C45.833 29.0993 46.2765 27.3185 46.2464 27.2908C46.201 27.249 44.5823 26.7969 44.4779 26.7969C44.4347 26.7969 44.3794 26.8585 44.3549 26.9336ZM40.8075 32.5664C40.5551 33.5139 40.3262 34.3653 40.2989 34.4584C40.2603 34.5902 40.4586 34.6827 41.1913 34.8749C41.7094 35.0107 42.1481 35.1068 42.1661 35.0883C42.2057 35.0477 43.0636 31.8593 43.1134 31.5679C43.1428 31.3955 42.9984 31.3208 42.2188 31.1047C41.7075 30.9631 41.2841 30.8464 41.2778 30.8455C41.2716 30.8445 41.06 31.6189 40.8075 32.5664ZM10.291 32.2383C11.3802 34.0515 13.0813 35.512 14.963 36.2494C15.3357 36.3955 15.6407 36.5008 15.6407 36.4836C15.6407 36.4663 15.4917 36.1235 15.3096 35.7219C14.9185 34.8592 14.3958 33.2824 14.2193 32.4325L14.0939 31.8281H12.0693H10.0447L10.291 32.2383ZM16.2386 32.2304C16.3745 32.954 16.9669 34.5903 17.4382 35.5429C18.1107 36.9024 18.1696 36.9814 18.4826 36.9453C18.9558 36.8908 20.0711 34.4719 20.7286 32.0742L20.7961 31.8281H18.4796H16.1631L16.2386 32.2304ZM22.8091 31.9648C22.7853 32.0401 22.6164 32.6502 22.4338 33.3208C22.2513 33.9913 21.9109 34.983 21.6774 35.5248L21.2529 36.5095L21.6983 36.3524C22.9212 35.9209 24.2819 35.0185 25.3026 33.9621C25.7808 33.4672 26.7969 32.062 26.7969 31.8955C26.7969 31.8584 25.9094 31.8281 24.8248 31.8281C23.3431 31.8281 22.8417 31.8621 22.8091 31.9648ZM39.226 38.4625C38.98 39.276 35.875 50.9853 35.875 51.0992C35.875 51.2338 37.6145 51.7814 37.7168 51.679C37.7401 51.6557 38.5355 48.7424 39.4843 45.205L41.2095 38.7734L40.593 38.5835C39.5273 38.255 39.2949 38.2344 39.226 38.4625ZM8.85941 45.6094V46.5938H18.4297H28V45.6094V44.625H18.4297H8.85941V45.6094Z" fill="#040404"/>
<path d="M83.688 27.36C84.664 27.568 85.448 28.056 86.04 28.824C86.632 29.576 86.928 30.44 86.928 31.416C86.928 32.824 86.432 33.944 85.44 34.776C84.464 35.592 83.096 36 81.336 36H73.488V19.152H81.072C82.784 19.152 84.12 19.544 85.08 20.328C86.056 21.112 86.544 22.176 86.544 23.52C86.544 24.512 86.28 25.336 85.752 25.992C85.24 26.648 84.552 27.104 83.688 27.36ZM77.592 25.968H80.28C80.952 25.968 81.464 25.824 81.816 25.536C82.184 25.232 82.368 24.792 82.368 24.216C82.368 23.64 82.184 23.2 81.816 22.896C81.464 22.592 80.952 22.44 80.28 22.44H77.592V25.968ZM80.616 32.688C81.304 32.688 81.832 32.536 82.2 32.232C82.584 31.912 82.776 31.456 82.776 30.864C82.776 30.272 82.576 29.808 82.176 29.472C81.792 29.136 81.256 28.968 80.568 28.968H77.592V32.688H80.616ZM91.3723 21.216C90.6523 21.216 90.0603 21.008 89.5963 20.592C89.1483 20.16 88.9243 19.632 88.9243 19.008C88.9243 18.368 89.1483 17.84 89.5963 17.424C90.0603 16.992 90.6523 16.776 91.3723 16.776C92.0763 16.776 92.6523 16.992 93.1003 17.424C93.5643 17.84 93.7963 18.368 93.7963 19.008C93.7963 19.632 93.5643 20.16 93.1003 20.592C92.6523 21.008 92.0763 21.216 91.3723 21.216ZM93.4123 22.608V36H89.3083V22.608H93.4123ZM100.49 24.84C100.97 24.104 101.57 23.528 102.29 23.112C103.01 22.68 103.81 22.464 104.69 22.464V26.808H103.562C102.538 26.808 101.77 27.032 101.258 27.48C100.746 27.912 100.49 28.68 100.49 29.784V36H96.3864V22.608H100.49V24.84ZM112.748 36.192C111.436 36.192 110.252 35.912 109.196 35.352C108.156 34.792 107.332 33.992 106.724 32.952C106.132 31.912 105.836 30.696 105.836 29.304C105.836 27.928 106.14 26.72 106.748 25.68C107.356 24.624 108.188 23.816 109.244 23.256C110.3 22.696 111.484 22.416 112.796 22.416C114.108 22.416 115.292 22.696 116.348 23.256C117.404 23.816 118.236 24.624 118.844 25.68C119.452 26.72 119.756 27.928 119.756 29.304C119.756 30.68 119.444 31.896 118.82 32.952C118.212 33.992 117.372 34.792 116.3 35.352C115.244 35.912 114.06 36.192 112.748 36.192ZM112.748 32.64C113.532 32.64 114.196 32.352 114.74 31.776C115.3 31.2 115.58 30.376 115.58 29.304C115.58 28.232 115.308 27.408 114.764 26.832C114.236 26.256 113.58 25.968 112.796 25.968C111.996 25.968 111.332 26.256 110.804 26.832C110.276 27.392 110.012 28.216 110.012 29.304C110.012 30.376 110.268 31.2 110.78 31.776C111.308 32.352 111.964 32.64 112.748 32.64ZM123.853 36.192C123.133 36.192 122.541 35.984 122.077 35.568C121.629 35.136 121.405 34.608 121.405 33.984C121.405 33.344 121.629 32.808 122.077 32.376C122.541 31.944 123.133 31.728 123.853 31.728C124.557 31.728 125.133 31.944 125.581 32.376C126.045 32.808 126.277 33.344 126.277 33.984C126.277 34.608 126.045 35.136 125.581 35.568C125.133 35.984 124.557 36.192 123.853 36.192ZM141.547 24.576C141.547 25.552 141.323 26.448 140.875 27.264C140.427 28.064 139.739 28.712 138.811 29.208C137.883 29.704 136.731 29.952 135.355 29.952H132.811V36H128.707V19.152H135.355C136.699 19.152 137.835 19.384 138.763 19.848C139.691 20.312 140.387 20.952 140.851 21.768C141.315 22.584 141.547 23.52 141.547 24.576ZM135.043 26.688C135.827 26.688 136.411 26.504 136.795 26.136C137.179 25.768 137.371 25.248 137.371 24.576C137.371 23.904 137.179 23.384 136.795 23.016C136.411 22.648 135.827 22.464 135.043 22.464H132.811V26.688H135.043ZM156.307 29.088C156.307 29.472 156.283 29.872 156.235 30.288H146.947C147.011 31.12 147.275 31.76 147.739 32.208C148.219 32.64 148.803 32.856 149.491 32.856C150.515 32.856 151.227 32.424 151.627 31.56H155.995C155.771 32.44 155.363 33.232 154.771 33.936C154.195 34.64 153.467 35.192 152.587 35.592C151.707 35.992 150.723 36.192 149.635 36.192C148.323 36.192 147.155 35.912 146.131 35.352C145.107 34.792 144.307 33.992 143.731 32.952C143.155 31.912 142.867 30.696 142.867 29.304C142.867 27.912 143.147 26.696 143.707 25.656C144.283 24.616 145.083 23.816 146.107 23.256C147.131 22.696 148.307 22.416 149.635 22.416C150.931 22.416 152.083 22.688 153.091 23.232C154.099 23.776 154.883 24.552 155.443 25.56C156.019 26.568 156.307 27.744 156.307 29.088ZM152.107 28.008C152.107 27.304 151.867 26.744 151.387 26.328C150.907 25.912 150.307 25.704 149.587 25.704C148.899 25.704 148.315 25.904 147.835 26.304C147.371 26.704 147.083 27.272 146.971 28.008H152.107ZM162.576 24.84C163.056 24.104 163.656 23.528 164.376 23.112C165.096 22.68 165.896 22.464 166.776 22.464V26.808H165.648C164.624 26.808 163.856 27.032 163.344 27.48C162.832 27.912 162.576 28.68 162.576 29.784V36H158.472V22.608H162.576V24.84ZM170.778 21.216C170.058 21.216 169.466 21.008 169.002 20.592C168.554 20.16 168.33 19.632 168.33 19.008C168.33 18.368 168.554 17.84 169.002 17.424C169.466 16.992 170.058 16.776 170.778 16.776C171.482 16.776 172.058 16.992 172.506 17.424C172.97 17.84 173.202 18.368 173.202 19.008C173.202 19.632 172.97 20.16 172.506 20.592C172.058 21.008 171.482 21.216 170.778 21.216ZM172.842 37.728C172.842 39.376 172.426 40.56 171.594 41.28C170.762 42.016 169.602 42.384 168.114 42.384H166.506V38.904H167.49C167.938 38.904 168.258 38.816 168.45 38.64C168.642 38.464 168.738 38.176 168.738 37.776V22.608H172.842V37.728ZM174.977 29.28C174.977 27.904 175.233 26.696 175.745 25.656C176.273 24.616 176.985 23.816 177.881 23.256C178.777 22.696 179.777 22.416 180.881 22.416C181.825 22.416 182.649 22.608 183.353 22.992C184.073 23.376 184.625 23.88 185.009 24.504V22.608H189.113V36H185.009V34.104C184.609 34.728 184.049 35.232 183.329 35.616C182.625 36 181.801 36.192 180.857 36.192C179.769 36.192 178.777 35.912 177.881 35.352C176.985 34.776 176.273 33.968 175.745 32.928C175.233 31.872 174.977 30.656 174.977 29.28ZM185.009 29.304C185.009 28.28 184.721 27.472 184.145 26.88C183.585 26.288 182.897 25.992 182.081 25.992C181.265 25.992 180.569 26.288 179.993 26.88C179.433 27.456 179.153 28.256 179.153 29.28C179.153 30.304 179.433 31.12 179.993 31.728C180.569 32.32 181.265 32.616 182.081 32.616C182.897 32.616 183.585 32.32 184.145 31.728C184.721 31.136 185.009 30.328 185.009 29.304ZM196.186 18.24V36H192.082V18.24H196.186ZM198.344 29.28C198.344 27.904 198.6 26.696 199.112 25.656C199.64 24.616 200.352 23.816 201.248 23.256C202.144 22.696 203.144 22.416 204.248 22.416C205.192 22.416 206.016 22.608 206.72 22.992C207.44 23.376 207.992 23.88 208.376 24.504V22.608H212.48V36H208.376V34.104C207.976 34.728 207.416 35.232 206.696 35.616C205.992 36 205.168 36.192 204.224 36.192C203.136 36.192 202.144 35.912 201.248 35.352C200.352 34.776 199.64 33.968 199.112 32.928C198.6 31.872 198.344 30.656 198.344 29.28ZM208.376 29.304C208.376 28.28 208.088 27.472 207.512 26.88C206.952 26.288 206.264 25.992 205.448 25.992C204.632 25.992 203.936 26.288 203.36 26.88C202.8 27.456 202.52 28.256 202.52 29.28C202.52 30.304 202.8 31.12 203.36 31.728C203.936 32.32 204.632 32.616 205.448 32.616C206.264 32.616 206.952 32.32 207.512 31.728C208.088 31.136 208.376 30.328 208.376 29.304ZM223.609 22.464C225.177 22.464 226.425 22.976 227.353 24C228.297 25.008 228.769 26.4 228.769 28.176V36H224.689V28.728C224.689 27.832 224.457 27.136 223.993 26.64C223.529 26.144 222.905 25.896 222.121 25.896C221.337 25.896 220.713 26.144 220.249 26.64C219.785 27.136 219.553 27.832 219.553 28.728V36H215.449V22.608H219.553V24.384C219.969 23.792 220.529 23.328 221.233 22.992C221.937 22.64 222.729 22.464 223.609 22.464ZM230.805 29.28C230.805 27.904 231.061 26.696 231.573 25.656C232.101 24.616 232.813 23.816 233.709 23.256C234.605 22.696 235.605 22.416 236.709 22.416C237.653 22.416 238.477 22.608 239.181 22.992C239.901 23.376 240.453 23.88 240.837 24.504V22.608H244.941V36H240.837V34.104C240.437 34.728 239.877 35.232 239.157 35.616C238.453 36 237.629 36.192 236.685 36.192C235.597 36.192 234.605 35.912 233.709 35.352C232.813 34.776 232.101 33.968 231.573 32.928C231.061 31.872 230.805 30.656 230.805 29.28ZM240.837 29.304C240.837 28.28 240.549 27.472 239.973 26.88C239.413 26.288 238.725 25.992 237.909 25.992C237.093 25.992 236.397 26.288 235.821 26.88C235.261 27.456 234.981 28.256 234.981 29.28C234.981 30.304 235.261 31.12 235.821 31.728C236.397 32.32 237.093 32.616 237.909 32.616C238.725 32.616 239.413 32.32 239.973 31.728C240.549 31.136 240.837 30.328 240.837 29.304ZM256.07 22.464C257.638 22.464 258.886 22.976 259.814 24C260.758 25.008 261.23 26.4 261.23 28.176V36H257.15V28.728C257.15 27.832 256.918 27.136 256.454 26.64C255.99 26.144 255.366 25.896 254.582 25.896C253.798 25.896 253.174 26.144 252.71 26.64C252.246 27.136 252.014 27.832 252.014 28.728V36H247.91V22.608H252.014V24.384C252.43 23.792 252.99 23.328 253.694 22.992C254.398 22.64 255.19 22.464 256.07 22.464Z" fill="black"/>
</svg>
