<svg width="178" height="49" viewBox="0 0 178 49" fill="none" xmlns="http://www.w3.org/2000/svg">
<g clip-path="url(#clip0_4522_4372)">
<mask id="mask0_4522_4372" style="mask-type:luminance" maskUnits="userSpaceOnUse" x="0" y="-1" width="178" height="50">
<path d="M177.089 -0.00390625H0.613281V48.8664H177.089V-0.00390625Z" fill="white"/>
</mask>
<g mask="url(#mask0_4522_4372)">
<path d="M169.542 48.3135H7.11054C3.53867 48.3135 0.613281 45.5941 0.613281 42.2738V6.03575C0.613281 2.71545 3.53867 -0.00390625 7.11054 -0.00390625H169.542C173.114 -0.00390625 176.04 2.71545 176.04 6.03575V42.2738C176.04 45.5941 173.114 48.3135 169.542 48.3135Z" fill="black"/>
<path d="M169.542 0.963948C172.55 0.963948 174.999 3.2394 174.999 6.03575V42.2738C174.999 45.0701 172.55 47.3456 169.542 47.3456H7.11054C4.10231 47.3456 1.65447 45.0701 1.65447 42.2738V6.03575C1.65447 3.2394 4.10231 0.963948 7.11054 0.963948H169.542ZM169.542 -0.00390625H7.11054C3.53867 -0.00390625 0.613281 2.71545 0.613281 6.03575V42.2738C0.613281 45.5941 3.53867 48.3135 7.11054 48.3135H169.542C173.114 48.3135 176.04 45.5941 176.04 42.2738V6.03575C176.04 2.71545 173.114 -0.00390625 169.542 -0.00390625Z" fill="#A6A6A6"/>
<path d="M62.2327 12.3723C62.2327 13.3809 61.9079 14.1888 61.2679 14.7912C60.532 15.5054 59.5738 15.8647 58.3994 15.8647C57.277 15.8647 56.3186 15.4993 55.5325 14.7791C54.7446 14.0484 54.3516 13.1514 54.3516 12.0779C54.3516 11.0043 54.7446 10.1075 55.5325 9.3827C56.3186 8.65642 57.277 8.29102 58.3994 8.29102C58.9581 8.29102 59.4908 8.39822 59.9993 8.59753C60.5061 8.79836 60.9186 9.07014 61.2176 9.40534L60.5385 10.0425C60.0171 9.47027 59.3073 9.18791 58.3994 9.18791C57.5807 9.18791 56.8708 9.45365 56.2682 9.98968C55.6721 10.5272 55.3732 11.2233 55.3732 12.0779C55.3732 12.9325 55.6721 13.6346 56.2682 14.1722C56.8708 14.7022 57.5807 14.9739 58.3994 14.9739C59.2683 14.9739 59.9993 14.7022 60.5759 14.1661C60.956 13.8112 61.1721 13.3221 61.2288 12.697H58.3994V11.8242H62.1742C62.2197 12.013 62.2327 12.1957 62.2327 12.3723Z" fill="white" stroke="white" stroke-width="0.217201" stroke-miterlimit="10"/>
<path d="M68.2128 9.34638H64.6668V11.6414H67.8635V12.5142H64.6668V14.8093H68.2128V15.6986H63.6631V8.45703H68.2128V9.34638Z" fill="white" stroke="white" stroke-width="0.217201" stroke-miterlimit="10"/>
<path d="M72.4414 15.6986H71.4377V9.34637H69.2627V8.45703H74.6181V9.34637H72.4414V15.6986Z" fill="white" stroke="white" stroke-width="0.217201" stroke-miterlimit="10"/>
<path d="M78.5 15.6986V8.45703H79.5022V15.6986H78.5Z" fill="white" stroke="white" stroke-width="0.217201" stroke-miterlimit="10"/>
<path d="M83.9375 15.6986H82.9418V9.34637H80.7588V8.45703H86.1205V9.34637H83.9375V15.6986Z" fill="white" stroke="white" stroke-width="0.217201" stroke-miterlimit="10"/>
<path d="M96.2695 14.7671C95.5013 15.4993 94.5492 15.8647 93.4138 15.8647C92.2719 15.8647 91.3203 15.4993 90.5519 14.7671C89.7852 14.0363 89.4033 13.1394 89.4033 12.0779C89.4033 11.0164 89.7852 10.1195 90.5519 9.38872C91.3203 8.65642 92.2719 8.29102 93.4138 8.29102C94.5427 8.29102 95.4947 8.65642 96.2631 9.39476C97.0362 10.1316 97.4179 11.0225 97.4179 12.0779C97.4179 13.1394 97.0362 14.0363 96.2695 14.7671ZM91.2942 14.1601C91.8725 14.7022 92.5757 14.9739 93.4138 14.9739C94.2454 14.9739 94.9554 14.7022 95.5272 14.1601C96.1038 13.6181 96.3963 12.9219 96.3963 12.0779C96.3963 11.2338 96.1038 10.5378 95.5272 9.99572C94.9554 9.45365 94.2454 9.18187 93.4138 9.18187C92.5757 9.18187 91.8725 9.45365 91.2942 9.99572C90.7177 10.5378 90.4253 11.2338 90.4253 12.0779C90.4253 12.9219 90.7177 13.6181 91.2942 14.1601Z" fill="white" stroke="white" stroke-width="0.217201" stroke-miterlimit="10"/>
<path d="M98.8154 15.6986V8.45703H100.034L103.822 14.089H103.865L103.822 12.6969V8.45703H104.824V15.6986H103.778L99.8112 9.78879H99.7673L99.8112 11.187V15.6986H98.8154Z" fill="white" stroke="white" stroke-width="0.217201" stroke-miterlimit="10"/>
<path d="M89.151 26.2747C86.0989 26.2747 83.6056 28.4339 83.6056 31.413C83.6056 34.3679 86.0989 36.5497 89.151 36.5497C92.2096 36.5497 94.7029 34.3679 94.7029 31.413C94.7029 28.4339 92.2096 26.2747 89.151 26.2747ZM89.151 34.5264C87.4763 34.5264 86.0355 33.2414 86.0355 31.413C86.0355 29.5603 87.4763 28.298 89.151 28.298C90.8256 28.298 92.273 29.5603 92.273 31.413C92.273 33.2414 90.8256 34.5264 89.151 34.5264ZM77.0515 26.2747C73.9929 26.2747 71.5061 28.4339 71.5061 31.413C71.5061 34.3679 73.9929 36.5497 77.0515 36.5497C80.1083 36.5497 82.5968 34.3679 82.5968 31.413C82.5968 28.4339 80.1083 26.2747 77.0515 26.2747ZM77.0515 34.5264C75.3751 34.5264 73.9295 33.2414 73.9295 31.413C73.9295 29.5603 75.3751 28.298 77.0515 28.298C78.7261 28.298 80.1668 29.5603 80.1668 31.413C80.1668 33.2414 78.7261 34.5264 77.0515 34.5264ZM62.6535 27.8495V30.0329H68.2623C68.0982 31.2529 67.6597 32.1498 66.9872 32.775C66.1685 33.5299 64.8934 34.3679 62.6535 34.3679C59.2019 34.3679 56.499 31.7784 56.499 28.5698C56.499 25.3612 59.2019 22.7718 62.6535 22.7718C64.5198 22.7718 65.8777 23.4497 66.88 24.3284L68.5352 22.7898C67.1334 21.5457 65.2686 20.5898 62.6535 20.5898C57.9203 20.5898 53.9424 24.1699 53.9424 28.5698C53.9424 32.9696 57.9203 36.5497 62.6535 36.5497C65.2119 36.5497 67.1334 35.7706 68.6441 34.309C70.192 32.87 70.6743 30.8468 70.6743 29.213C70.6743 28.7057 70.6289 28.2391 70.5477 27.8495H62.6535ZM121.528 29.5422C121.072 28.3931 119.664 26.2747 116.795 26.2747C113.953 26.2747 111.586 28.357 111.586 31.413C111.586 34.2909 113.928 36.5497 117.068 36.5497C119.607 36.5497 121.072 35.1107 121.675 34.2727L119.79 33.1055C119.162 33.9602 118.306 34.5264 117.068 34.5264C115.838 34.5264 114.957 34.0024 114.391 32.9696L121.783 30.1265L121.528 29.5422ZM113.992 31.2529C113.928 29.2719 115.647 28.2572 116.878 28.2572C117.843 28.2572 118.662 28.7057 118.934 29.3474L113.992 31.2529ZM107.983 36.2372H110.413V21.138H107.983V36.2372ZM104.004 27.4192H103.922C103.377 26.8182 102.335 26.2747 101.017 26.2747C98.2487 26.2747 95.718 28.5336 95.718 31.4295C95.718 34.3089 98.2487 36.5497 101.017 36.5497C102.335 36.5497 103.377 36.0016 103.922 35.3825H104.004V36.1193C104.004 38.0838 102.875 39.1392 101.054 39.1392C99.5693 39.1392 98.6484 38.1427 98.2683 37.3047L96.155 38.1245C96.7641 39.4865 98.3771 41.1625 101.054 41.1625C103.903 41.1625 106.307 39.6043 106.307 35.8128V26.5873H104.004V27.4192ZM101.225 34.5264C99.5499 34.5264 98.148 33.2234 98.148 31.4295C98.148 29.6192 99.5499 28.298 101.225 28.298C102.875 28.298 104.176 29.6192 104.176 31.4295C104.176 33.2234 102.875 34.5264 101.225 34.5264ZM132.905 21.138H127.093V36.2372H129.517V30.5161H132.905C135.597 30.5161 138.237 28.7057 138.237 25.8263C138.237 22.9484 135.59 21.138 132.905 21.138ZM132.968 28.4157H129.517V23.2383H132.968C134.778 23.2383 135.811 24.6349 135.811 25.8263C135.811 26.995 134.778 28.4157 132.968 28.4157ZM147.95 26.246C146.198 26.246 144.378 26.9647 143.629 28.5577L145.779 29.3957C146.242 28.5577 147.093 28.286 147.993 28.286C149.25 28.286 150.526 28.9881 150.545 30.2277V30.3862C150.107 30.1506 149.167 29.8019 148.013 29.8019C145.696 29.8019 143.337 30.9871 143.337 33.1992C143.337 35.2224 145.233 36.5255 147.366 36.5255C148.998 36.5255 149.898 35.8416 150.462 35.0458H150.545V36.213H152.885V30.4209C152.885 27.7439 150.735 26.246 147.95 26.246ZM147.658 34.5203C146.865 34.5203 145.76 34.155 145.76 33.2414C145.76 32.0729 147.138 31.6243 148.33 31.6243C149.397 31.6243 149.898 31.8433 150.545 32.1316C150.355 33.5299 149.06 34.5203 147.658 34.5203ZM161.413 26.5767L158.628 33.1222H158.545L155.666 26.5767H153.051L157.379 35.7237L154.909 40.8137H157.443L164.109 26.5767H161.413ZM139.568 36.2372H141.998V21.138H139.568V36.2372Z" fill="white"/>
<path d="M14.1651 9.10125C13.7834 9.47269 13.5625 10.051 13.5625 10.7999V37.5134C13.5625 38.2623 13.7834 38.8406 14.1651 39.212L14.2594 39.2935L30.3628 24.3302V23.977L14.2594 9.01367L14.1651 9.10125Z" fill="url(#paint0_linear_4522_4372)"/>
<path d="M35.734 29.3202L30.3721 24.3299V23.9765L35.7405 18.9863L35.8606 19.0512L42.2182 22.4138C44.0325 23.3681 44.0325 24.9385 42.2182 25.8988L35.8606 29.2552L35.734 29.3202Z" fill="url(#paint1_linear_4522_4372)"/>
<path d="M35.8591 29.2544L30.3705 24.1523L14.1729 39.2108C14.7755 39.7997 15.7582 39.8705 16.8757 39.2818L35.8591 29.2544Z" fill="url(#paint2_linear_4522_4372)"/>
<path d="M35.8591 19.051L16.8757 9.02372C15.7582 8.4409 14.7755 8.51186 14.1729 9.10073L30.3705 24.1531L35.8591 19.051Z" fill="url(#paint3_linear_4522_4372)"/>
</g>
</g>
<defs>
<linearGradient id="paint0_linear_4522_4372" x1="28.9329" y1="37.7915" x2="8.71492" y2="16.0417" gradientUnits="userSpaceOnUse">
<stop stop-color="#00A0FF"/>
<stop offset="0.0066" stop-color="#00A1FF"/>
<stop offset="0.2601" stop-color="#00BEFF"/>
<stop offset="0.5122" stop-color="#00D2FF"/>
<stop offset="0.7604" stop-color="#00DFFF"/>
<stop offset="1" stop-color="#00E3FF"/>
</linearGradient>
<linearGradient id="paint1_linear_4522_4372" x1="44.5808" y1="24.1515" x2="13.1381" y2="24.1515" gradientUnits="userSpaceOnUse">
<stop stop-color="#FFE000"/>
<stop offset="0.4087" stop-color="#FFBD00"/>
<stop offset="0.7754" stop-color="#FFA500"/>
<stop offset="1" stop-color="#FF9C00"/>
</linearGradient>
<linearGradient id="paint2_linear_4522_4372" x1="32.8746" y1="21.3788" x2="5.45721" y2="-8.11583" gradientUnits="userSpaceOnUse">
<stop stop-color="#FF3A44"/>
<stop offset="1" stop-color="#C31162"/>
</linearGradient>
<linearGradient id="paint3_linear_4522_4372" x1="10.0956" y1="48.099" x2="22.3387" y2="34.9283" gradientUnits="userSpaceOnUse">
<stop stop-color="#32A071"/>
<stop offset="0.0685" stop-color="#2DA771"/>
<stop offset="0.4762" stop-color="#15CF74"/>
<stop offset="0.8009" stop-color="#06E775"/>
<stop offset="1" stop-color="#00F076"/>
</linearGradient>
<clipPath id="clip0_4522_4372">
<rect width="176.476" height="48.8703" fill="white" transform="translate(0.613281)"/>
</clipPath>
</defs>
</svg>
