<svg width="356" height="110" viewBox="0 0 356 110" fill="none" xmlns="http://www.w3.org/2000/svg">
<g clip-path="url(#clip0_2602_2857)">
<path d="M91.2369 1.6277C88.2664 1.58243 85.3089 2.0292 82.4844 2.94989V16.5691C83.1398 15.7625 83.8925 15.0401 84.7253 14.4182C86.4634 13.1333 88.6329 12.4815 91.2431 12.4815C93.8534 12.4815 96.0726 13.1333 97.8107 14.4182C98.8422 15.1744 99.7402 16.0975 100.467 17.1495V3.10508C97.7589 2.11602 94.6821 1.62356 91.2369 1.6277Z" fill="url(#paint0_linear_2602_2857)"/>
<path d="M115.801 25.8118C115.803 28.839 115.284 31.8441 114.265 34.6947C113.259 37.583 111.692 40.2435 109.652 42.5223C107.505 44.8969 104.878 46.7894 101.946 48.0749C98.8876 49.4509 95.3183 50.1389 91.2379 50.1389C87.1575 50.1389 83.582 49.4509 80.5114 48.0749C77.5928 46.7936 74.9836 44.9 72.8606 42.5223C70.8304 40.2393 69.2582 37.5871 68.2299 34.7102C67.1901 31.864 66.6575 28.8575 66.6563 25.8273C66.6543 22.815 67.1871 19.8263 68.2299 17.0002C69.259 14.1395 70.8314 11.5047 72.8606 9.24086C74.9864 6.87561 77.5955 4.9947 80.5114 3.72551C81.1526 3.43048 81.8119 3.1765 82.4854 2.96509V16.5688C81.8019 17.4445 81.2353 18.4054 80.8 19.4274C79.9336 21.4445 79.4849 23.6164 79.4809 25.8118C79.4845 28.0192 79.9331 30.2033 80.8 32.2334C81.6254 34.2415 82.9828 35.9863 84.7263 37.2801C86.4644 38.5651 88.637 39.2096 91.2441 39.2137C93.8844 39.2137 96.0736 38.5692 97.8117 37.2801C99.5542 35.9861 100.911 34.2412 101.735 32.2334C102.598 30.2028 103.042 28.0184 103.038 25.8118C103.041 23.6172 102.598 21.4451 101.735 19.4274C101.401 18.6222 100.976 17.8579 100.468 17.1492V3.10476C100.974 3.28788 101.483 3.48652 101.952 3.70378C104.882 4.97704 107.508 6.8568 109.659 9.21914C111.695 11.4743 113.263 14.1119 114.271 16.9785C115.291 19.8114 115.809 22.8007 115.801 25.8118Z" fill="white"/>
<path d="M133.8 49.4897V31.6587H121.547V49.4773L133.8 49.4897Z" fill="url(#paint1_linear_2602_2857)"/>
<path d="M133.798 2.25964H121.551V31.6707H133.798V2.25964Z" fill="white"/>
<path d="M170.409 2.25964V28.4894L170.375 28.4335V48.4186L171.117 49.4862H182.529V2.25964H170.409Z" fill="url(#paint2_linear_2602_2857)"/>
<path d="M170.372 28.4346V48.4228L153.819 24.6015V49.4905H141.684V2.26385H152.987L170.372 28.4346Z" fill="white"/>
<path d="M189.961 2.25964V23.0547H202.208V12.8589H224.167V2.25964H189.961Z" fill="url(#paint3_linear_2602_2857)"/>
<path d="M221.29 23.0621V33.2113H202.208V49.4905H189.961V23.0466H202.208V23.0621H221.29Z" fill="white"/>
<path d="M231.508 2.25964V49.4893H243.752V2.25964H231.508Z" fill="url(#paint4_linear_2602_2857)"/>
<path d="M266.039 38.8909H243.754V49.4902H266.039V38.8909Z" fill="white"/>
<path d="M262.836 20.5133H243.754V30.6067H262.836V20.5133Z" fill="white"/>
<path d="M265.713 2.25964H243.754V12.8589H265.713V2.25964Z" fill="white"/>
<path d="M309.356 12.5184C308.875 11.2615 308.237 10.0706 307.457 8.97395C305.34 5.96849 302.282 3.7538 298.766 2.67955C296.634 1.9719 294.064 1.62738 291.044 1.62738C287.174 1.62738 283.825 2.24813 281.022 3.5455C278.22 4.84286 276.056 6.58406 274.548 8.84669C273.078 11.0617 272.292 13.6593 272.285 16.3174H284.297C284.282 16.2146 284.276 16.1108 284.278 16.007C284.29 15.2842 284.496 14.5778 284.874 13.9617C285.371 13.1994 286.083 12.6011 286.919 12.2422C287.879 11.7725 289.163 11.5376 290.771 11.5376C292.491 11.5376 293.828 11.7735 294.84 12.2608C295.703 12.6507 296.474 13.2187 297.103 13.9275C297.655 14.6388 298.067 15.4488 298.316 16.3143H310.381C310.159 15.0196 309.817 13.7486 309.356 12.5184Z" fill="url(#paint5_linear_2602_2857)"/>
<path d="M311.731 34.9466C311.767 37.7347 310.967 40.4695 309.434 42.7991C307.899 45.0979 305.689 46.8939 302.805 48.1872C299.909 49.4907 296.383 50.1239 292.206 50.1239C288.93 50.1239 286.137 49.7442 283.825 48.9848C281.756 48.3529 279.815 47.361 278.09 46.0549C276.68 44.9758 275.453 43.6787 274.452 42.2125C273.643 41.0177 272.981 39.7297 272.481 38.3762C272.023 37.0477 271.681 35.6821 271.457 34.2948H283.847C284.129 35.3621 284.595 36.3724 285.222 37.2806C285.929 38.1647 286.834 38.8706 287.863 39.3415C289.058 39.9405 290.657 40.2478 292.711 40.2478C295.226 40.2478 296.982 39.7574 297.988 38.7983C298.993 37.8393 299.49 36.8119 299.49 35.6946C299.507 35.2271 299.416 34.7619 299.225 34.335C299.033 33.9082 298.746 33.5313 298.385 33.2333C297.625 32.6126 296.343 32.1687 294.515 31.8615L288.202 30.8465C285.542 30.4084 282.943 29.6594 280.458 28.6149C278.143 27.6846 276.11 26.1666 274.561 24.2107C273.04 22.2957 272.28 19.7817 272.28 16.6873C272.276 16.5607 272.283 16.4342 272.298 16.3086H284.31C284.401 17.3742 284.98 18.1698 286.048 18.6954C287.411 19.3364 288.86 19.7755 290.35 19.9989L296.988 21.107C299.522 21.5036 301.984 22.2657 304.298 23.3696C306.438 24.3859 308.29 25.9212 309.686 27.8359C311.042 29.7199 311.731 32.088 311.731 34.9466Z" fill="white"/>
<path d="M328.605 2.25964V12.8589H328.643V49.4831H340.887V2.25964H328.605Z" fill="url(#paint6_linear_2602_2857)"/>
<path d="M355.195 2.25964H340.887V12.8589H355.195V2.25964Z" fill="white"/>
<path d="M328.603 2.25964H314.332V12.8589H328.603V2.25964Z" fill="white"/>
<path d="M48.2785 32.0526C47.9151 33.3089 47.3535 34.4992 46.6149 35.5784C45.9631 36.5096 44.9326 37.3165 43.5763 38.0211C42.22 38.7256 40.3919 39.0888 38.1323 39.0888C35.4735 39.0888 33.2481 38.4008 31.4562 37.0248C29.6739 35.674 28.2878 33.8687 27.443 31.7981C27.3234 31.5155 27.2198 31.2264 27.1327 30.9321H13.5352C13.7912 32.1012 14.1177 33.2538 14.5128 34.3835C15.5475 37.3703 17.1424 40.1323 19.2119 42.5215C21.3693 44.9937 24.0423 46.9632 27.0427 48.2914C30.1899 49.7377 33.8461 50.4454 37.9865 50.4454C41.5309 50.4454 44.5726 50.0109 47.0835 49.1232C49.3747 48.3707 51.5127 47.2145 53.3966 45.7091C54.962 44.4469 56.3175 42.9447 57.4128 41.2583C58.321 39.8687 59.0735 38.3834 59.6568 36.8292C60.169 35.4058 60.5563 33.9405 60.8145 32.4499C60.8331 32.3226 60.8673 32.1985 60.8859 32.0712L48.2785 32.0526Z" fill="url(#paint7_linear_2602_2857)"/>
<path d="M60.8833 18.3783H48.2759C47.9091 17.1174 47.3479 15.9215 46.6122 14.8338C45.8134 13.7742 44.7712 12.9225 43.5737 12.3508C42.1987 11.6276 40.3892 11.2831 38.1297 11.2831C35.4698 11.2831 33.2444 11.9535 31.4535 13.3098C29.664 14.6481 28.2759 16.4516 27.4404 18.5241C25.8013 22.4809 25.6907 26.9054 27.13 30.9391H13.5325C12.4585 25.9587 12.7971 20.7773 14.5102 15.9791C15.5437 13.0116 17.1403 10.2716 19.2124 7.90932C21.3795 5.45216 24.0489 3.48879 27.04 2.15187C30.1872 0.724149 33.8434 0.000976562 37.9838 0.000976562C41.5283 0.000976562 44.57 0.454123 47.0809 1.33869C49.5918 2.22326 51.7117 3.34681 53.3939 4.75281C54.9558 6.01154 56.3109 7.50703 57.4102 9.18496C58.3164 10.5823 59.0688 12.0735 59.6542 13.6326C60.2005 15.1759 60.6118 16.7638 60.8833 18.3783Z" fill="white"/>
<path d="M5.74355 109.309C2.51565 109.309 0.808594 106.652 0.808594 103.616C0.808594 94.2212 36.1044 34.3531 44.5497 34.3531C46.4461 34.3531 48.06 35.8708 48.8173 37.5779C50.3351 40.992 47.2034 42.609 44.2641 42.8915C36.8617 52.2027 17.8823 82.0763 14.3751 93.3677C21.1133 88.1472 51.5704 55.2258 55.5556 55.2258C56.012 55.2129 56.4663 55.2917 56.8917 55.4575C57.3171 55.6233 57.7049 55.8727 58.0322 56.1911C58.3595 56.5094 58.6196 56.8901 58.7971 57.3107C58.9747 57.7314 59.0661 58.1833 59.0659 58.6399C59.0659 63.8573 52.3277 81.2196 52.3277 92.6073C52.3277 101.146 55.6487 96.0214 59.4446 91.0895C73.3928 73.2492 99.008 34.0675 108.509 29.7037C110.597 28.6608 113.347 30.5572 113.347 32.646C113.347 35.3959 95.0352 56.1755 91.9998 59.959C86.4968 66.7872 61.8282 101.611 57.1788 104.932C55.7573 105.879 54.3327 106.639 52.5232 106.639C46.0736 106.639 45.217 98.0047 45.217 93.3553C45.217 88.9914 45.6919 84.7206 46.1667 80.5461C46.8309 74.2859 46.1667 74.0003 41.2349 79.2177C31.1694 89.4787 11.3396 109.309 5.74355 109.309Z" fill="#FFC600"/>
<path d="M95.8801 80.466C89.713 89.0044 97.6803 89.1006 103.754 87.676C113.066 85.3978 123.308 78.7589 131.269 75.531C133.165 74.8668 133.358 75.531 133.737 76.2914C134.115 77.3343 134.304 78.5665 133.072 79.4231C127.948 83.1228 115.803 89.4792 106.69 92.8934C99.3905 95.6464 86.4727 98.0176 86.4727 86.6331C86.4727 74.5812 106.588 59.3201 117.783 59.3201C121.294 59.3201 124.996 60.8379 124.996 64.9069C124.996 71.7351 107.156 81.1333 101.098 81.1333C99.4459 81.0848 97.8378 80.5927 96.4419 79.7086C96.2588 79.9911 96.0694 80.1804 95.8801 80.466ZM111.818 69.8356C116.185 66.9895 113.621 65.7573 110.207 67.843C108.118 69.0845 105.651 71.164 103.09 73.6315C106.697 72.4955 109.825 71.1671 111.818 69.8356Z" fill="#FFC600"/>
<path d="M136.297 80.466C130.129 89.0044 138.1 89.1006 144.174 87.676C153.47 85.3978 163.727 78.7589 171.689 75.531C173.585 74.8668 173.774 75.531 174.153 76.2914C174.535 77.3343 174.724 78.5665 173.489 79.4231C168.368 83.1228 156.223 89.4792 147.107 92.8934C139.801 95.6464 126.898 98.0176 126.898 86.6331C126.898 74.5812 147.014 59.3201 158.209 59.3201C161.719 59.3201 165.419 60.8379 165.419 64.9069C165.419 71.7351 147.582 81.1333 141.52 81.1333C139.869 81.0853 138.26 80.5931 136.865 79.7086C136.678 79.9911 136.486 80.1804 136.297 80.466ZM152.237 69.8356C156.601 66.9895 154.041 65.7573 150.623 67.843C148.538 69.0845 146.07 71.164 143.507 73.6315C147.113 72.4955 150.245 71.1671 152.237 69.8356Z" fill="#FFC600"/>
<path d="M187.173 94.2561C185.311 93.7037 183.911 92.605 181.487 89.5509C179.712 87.31 177.943 84.56 175.86 81.7915C171.4 86.9158 167.701 94.79 163.337 99.0576C160.962 100.482 159.066 98.7752 158.97 97.8161C157.927 90.631 197.019 40.0399 205.746 40.0399C208.971 40.0399 209.731 44.3107 208.118 46.2071C202.531 52.8491 188.477 63.1908 181.931 73.6287C187.341 72.204 195.026 69.6434 200.718 69.6434C202.891 69.6434 206.789 70.1183 207.171 72.7751C207.453 74.5753 206.317 75.7144 204.607 75.7144C198.536 75.7144 189.709 77.4245 183.449 79.6996C185.098 82.3839 187.207 84.7571 189.678 86.7109C191.792 88.3621 193.84 89.4112 193.825 91.1245C193.825 92.7043 192.059 93.8185 191.845 93.9489C190.007 95.088 187.928 94.4765 187.173 94.2561Z" fill="#FFC600"/>
<path d="M243.57 77.5414C243.57 75.586 244.191 73.9752 245.346 72.7554C246.5 71.5357 248.049 70.9273 249.902 70.9273C251.376 70.8978 252.815 71.3743 253.98 72.2774C255.093 73.1709 255.813 74.4641 255.985 75.8809H253.192C252.844 74.27 251.531 73.3979 249.834 73.3979C247.531 73.3979 246.233 75.0056 246.233 77.4762C246.233 79.9468 247.583 81.5545 249.834 81.5545C251.535 81.5545 252.795 80.6793 253.192 79.0715H256.1C256.019 79.7742 255.799 80.4539 255.455 81.0717C255.11 81.6895 254.647 82.2333 254.092 82.6719C252.926 83.5725 251.487 84.0488 250.014 84.022C249.17 84.0488 248.33 83.9005 247.546 83.5864C246.762 83.2723 246.052 82.7992 245.461 82.197C244.2 81.0921 243.57 79.4968 243.57 77.5414Z" fill="white"/>
<path d="M262.089 84.0342C261.433 84.0613 260.779 83.9489 260.171 83.7044C259.562 83.4599 259.012 83.0888 258.557 82.6158C258.113 82.1561 257.765 81.6124 257.535 81.0165C257.304 80.4206 257.194 79.7846 257.213 79.1458C257.185 77.8607 257.669 76.6172 258.557 75.6882C259.423 74.7571 260.624 74.2698 262.089 74.2698C262.745 74.2436 263.399 74.3565 264.008 74.6009C264.617 74.8454 265.168 75.2159 265.624 75.6882C266.485 76.634 266.962 77.8669 266.962 79.1458C266.962 80.4247 266.485 81.6576 265.624 82.6034C265.16 83.0649 264.608 83.4291 264.001 83.6748C263.394 83.9205 262.744 84.0427 262.089 84.0342ZM259.73 79.2606C259.698 79.9658 259.931 80.6575 260.382 81.2005C260.598 81.4291 260.86 81.6097 261.15 81.7306C261.44 81.8514 261.753 81.9098 262.067 81.9019C262.382 81.913 262.696 81.8561 262.986 81.7351C263.277 81.614 263.539 81.4317 263.753 81.2005C264.215 80.6639 264.449 79.9676 264.404 79.2606C264.437 78.5554 264.204 77.8635 263.753 77.3208C263.532 77.0984 263.269 76.9219 262.98 76.8014C262.691 76.681 262.381 76.6189 262.067 76.6189C261.754 76.6189 261.444 76.681 261.154 76.8014C260.865 76.9219 260.603 77.0984 260.382 77.3208C259.907 77.7677 259.73 78.4444 259.73 79.2606Z" fill="white"/>
<path d="M268.617 83.8023V74.6152H271.168V83.8023H268.617ZM269.877 73.3862C269.671 73.3973 269.465 73.3656 269.272 73.2929C269.079 73.2202 268.904 73.1082 268.756 72.964C268.488 72.6507 268.339 72.253 268.334 71.8405C268.323 71.6342 268.355 71.4279 268.428 71.2345C268.5 71.0412 268.612 70.8649 268.756 70.7169C268.903 70.5721 269.079 70.4597 269.272 70.387C269.465 70.3143 269.671 70.2829 269.877 70.2948C270.083 70.2837 270.29 70.3155 270.484 70.3882C270.678 70.4608 270.855 70.5727 271.003 70.7169C271.279 71.0254 271.429 71.4266 271.422 71.8405C271.44 72.0355 271.411 72.232 271.338 72.4137C271.266 72.5955 271.151 72.7575 271.003 72.8865C270.868 73.0526 270.696 73.1845 270.5 73.2713C270.304 73.3582 270.091 73.3975 269.877 73.3862Z" fill="white"/>
<path d="M275.762 74.5812V75.6675C276.233 74.7984 277.174 74.3267 278.502 74.3267C280.647 74.3267 281.892 75.742 281.892 78.0263V83.8024H279.467V78.3305C279.44 77.089 278.915 76.5179 277.844 76.5179C276.603 76.5179 275.982 77.2845 276.019 78.5074V83.9234H273.465V74.6122H275.762V74.5812Z" fill="white"/>
<path d="M287.502 80.8378L289.768 74.6055H292.344L288.619 83.7988H286.298L282.629 74.6086H285.27L287.502 80.8378Z" fill="white"/>
<path d="M301.685 79.969H294.776C294.959 81.2912 295.794 82.0113 297.067 82.0113C297.905 82.0113 298.619 81.6606 298.873 80.9902H301.452C301.172 81.927 300.597 82.7486 299.813 83.3335C298.976 83.9362 297.965 84.249 296.933 84.2243C296.3 84.2429 295.67 84.1303 295.082 83.8937C294.495 83.6571 293.963 83.3015 293.519 82.8493C292.631 81.9585 292.2 80.7295 292.2 79.2241C292.177 77.9177 292.648 76.6507 293.519 75.6766C293.947 75.1984 294.474 74.8201 295.064 74.5686C295.654 74.317 296.292 74.1983 296.933 74.2209C297.566 74.2077 298.194 74.3227 298.781 74.559C299.368 74.7953 299.901 75.148 300.347 75.5959C301.216 76.573 301.689 77.8392 301.673 79.1466V79.9722L301.685 79.969ZM295.043 78.0509H299.267C299.201 77.5441 298.946 77.081 298.553 76.7546C298.16 76.4281 297.658 76.2626 297.147 76.2911C296.039 76.2911 295.307 77.0298 295.043 78.0509Z" fill="white"/>
<path d="M302.676 80.8631H305.239C305.295 81.577 305.773 82.1232 306.791 82.1232C307.753 82.1232 308.287 81.7725 308.287 81.2914C308.287 80.6707 307.452 80.4565 306.425 80.3262C305.894 80.1958 305.41 80.143 304.873 79.9754C304.324 79.83 303.84 79.5018 303.501 79.0449C303.163 78.588 302.99 78.0296 303.011 77.4614C303.003 77.0369 303.096 76.6164 303.281 76.2345C303.467 75.8526 303.74 75.52 304.079 75.2639C304.86 74.6614 305.827 74.3487 306.813 74.3794C308.076 74.3794 309.011 74.6898 309.678 75.3446C310.288 75.9183 310.651 76.7059 310.693 77.5421H308.231C308.179 76.8779 307.695 76.3968 306.785 76.3968C305.953 76.3968 305.472 76.8251 305.472 77.2814C305.472 77.9021 306.307 78.0635 307.319 78.2466C307.803 78.377 308.334 78.4298 308.871 78.5974C309.428 78.7478 309.917 79.0846 310.256 79.5517C310.594 80.0188 310.763 80.5879 310.733 81.1642C310.745 81.5839 310.653 82 310.466 82.3761C310.28 82.7522 310.004 83.0767 309.662 83.3213C308.948 83.942 307.983 84.1562 306.72 84.1562C304.2 84.1531 302.803 83.0854 302.676 80.8631Z" fill="white"/>
<path d="M316.607 81.6285V83.8011C316.193 83.888 315.77 83.9307 315.347 83.9284C314.591 83.9137 313.871 83.6025 313.343 83.0619C312.815 82.5213 312.52 81.7947 312.523 81.0388V76.5197H311.371V74.6078H312.523V72.3173H315.077V74.4899H316.607V76.5321H315.22V80.7657C315.22 81.3647 315.499 81.6378 316.12 81.6378H316.623L316.607 81.6285Z" fill="white"/>
<path d="M317.875 81.2156C317.875 79.5706 318.992 78.6239 321.429 78.2825L323.881 77.938V77.7611C323.881 76.8921 323.359 76.4172 322.242 76.4172C321.202 76.4172 320.656 76.7617 320.566 77.5438H318.114C318.222 76.6783 318.615 75.8733 319.231 75.2564C319.88 74.6046 320.907 74.3253 322.279 74.3253C324.945 74.3253 326.314 75.5668 326.314 77.7828V82.1622C326.303 82.7244 326.402 83.2833 326.606 83.8072H324.207C324.123 83.4649 324.08 83.1137 324.079 82.7612C323.483 83.5775 322.493 84.0027 321.162 84.0027C319.005 83.9996 317.875 82.8699 317.875 81.2156ZM323.753 79.6327L321.519 79.9772C320.588 80.1572 320.1 80.5017 320.1 81.1038C320.1 81.706 320.572 82.097 321.519 82.097C322.934 82.097 323.75 81.2808 323.75 80.0299L323.753 79.6327Z" fill="white"/>
<path d="M327.633 80.8621H330.197C330.249 81.576 330.73 82.1223 331.748 82.1223C332.711 82.1223 333.244 81.7715 333.244 81.2905C333.244 80.6697 332.413 80.4555 331.382 80.3252C330.851 80.1948 330.367 80.1421 329.83 79.9745C329.281 79.829 328.797 79.5009 328.458 79.044C328.12 78.5871 327.947 78.0286 327.968 77.4604C327.961 77.036 328.054 76.6158 328.239 76.234C328.425 75.8522 328.698 75.5196 329.036 75.263C329.808 74.6425 330.781 74.3277 331.77 74.3784C333.033 74.3784 333.968 74.6888 334.635 75.3437C335.245 75.9174 335.608 76.705 335.65 77.5411H333.216C333.161 76.8769 332.679 76.3958 331.767 76.3958C330.932 76.3958 330.454 76.8242 330.454 77.2804C330.454 77.9012 331.286 78.0626 332.316 78.2457C332.797 78.376 333.331 78.4288 333.868 78.5964C334.425 78.7468 334.914 79.0836 335.253 79.5507C335.592 80.0178 335.76 80.5869 335.73 81.1632C335.742 81.5826 335.651 81.9983 335.464 82.3743C335.278 82.7503 335.003 83.075 334.663 83.3203C333.946 83.9411 332.981 84.1552 331.72 84.1552C329.163 84.1521 327.81 83.0844 327.633 80.8621Z" fill="white"/>
<path d="M337.283 83.8021V74.615H339.834V83.8021H337.283ZM338.524 73.3859C338.318 73.3969 338.112 73.3651 337.918 73.2925C337.725 73.2198 337.549 73.1079 337.401 72.9638C337.263 72.8276 337.154 72.6645 337.081 72.4846C337.009 72.3047 336.974 72.1118 336.979 71.9178C336.968 71.7116 337 71.5053 337.072 71.312C337.145 71.1186 337.257 70.9424 337.401 70.7943C337.548 70.6499 337.725 70.5381 337.918 70.4659C338.112 70.3938 338.318 70.3629 338.524 70.3753C338.73 70.3643 338.935 70.3958 339.128 70.4679C339.321 70.54 339.497 70.6511 339.645 70.7943C339.79 70.9416 339.902 71.1177 339.975 71.3113C340.048 71.5048 340.079 71.7115 340.067 71.9178C340.087 72.1134 340.059 72.3108 339.985 72.493C339.912 72.6752 339.795 72.8368 339.645 72.9638C339.499 73.1073 339.324 73.2185 339.132 73.2902C338.94 73.3618 338.735 73.3923 338.531 73.3797L338.524 73.3859Z" fill="white"/>
<path d="M223.376 78.8027V70.512H227.095C228.051 70.512 228.785 70.7055 229.298 71.0924C229.812 71.4714 230.068 71.9925 230.068 72.6558C230.068 73.1058 229.966 73.4848 229.76 73.7928C229.563 74.1007 229.294 74.3376 228.955 74.5034C228.615 74.6692 228.248 74.7521 227.853 74.7521L228.067 74.3968C228.54 74.3968 228.959 74.4797 229.322 74.6455C229.685 74.8113 229.973 75.0561 230.187 75.3798C230.4 75.6957 230.506 76.0905 230.506 76.5642C230.506 77.2749 230.238 77.8276 229.701 78.2224C229.172 78.6093 228.382 78.8027 227.332 78.8027H223.376ZM224.561 77.8434H227.285C227.94 77.8434 228.442 77.7328 228.789 77.5117C229.137 77.2907 229.31 76.9432 229.31 76.4695C229.31 75.9878 229.137 75.6365 228.789 75.4154C228.442 75.1943 227.94 75.0838 227.285 75.0838H224.454V74.1244H226.989C227.589 74.1244 228.055 74.0139 228.386 73.7928C228.718 73.5717 228.884 73.2401 228.884 72.7979C228.884 72.3557 228.718 72.0241 228.386 71.803C228.055 71.5819 227.589 71.4714 226.989 71.4714H224.561V77.8434ZM232.447 81.1715C232.147 81.1715 231.855 81.1202 231.57 81.0175C231.286 80.9228 231.041 80.7807 230.836 80.5912L231.322 79.7384C231.48 79.8884 231.653 80.0029 231.843 80.0819C232.032 80.1608 232.234 80.2003 232.447 80.2003C232.723 80.2003 232.952 80.1293 233.134 79.9871C233.315 79.845 233.485 79.5923 233.643 79.2291L234.034 78.3645L234.152 78.2224L236.616 72.5255H237.729L234.685 79.4305C234.504 79.8726 234.298 80.2201 234.07 80.4727C233.848 80.7254 233.604 80.9031 233.335 81.0057C233.067 81.1162 232.771 81.1715 232.447 81.1715ZM233.939 79.0041L231.073 72.5255H232.257L234.697 78.1158L233.939 79.0041Z" fill="white"/>
</g>
<defs>
<linearGradient id="paint0_linear_2602_2857" x1="91.4759" y1="1.62457" x2="91.4759" y2="17.0719" gradientUnits="userSpaceOnUse">
<stop stop-color="white" stop-opacity="0"/>
<stop offset="1" stop-color="white"/>
</linearGradient>
<linearGradient id="paint1_linear_2602_2857" x1="133.651" y1="40.6596" x2="121.547" y2="40.6596" gradientUnits="userSpaceOnUse">
<stop stop-color="white"/>
<stop offset="1" stop-color="white" stop-opacity="0"/>
</linearGradient>
<linearGradient id="paint2_linear_2602_2857" x1="176.452" y1="2.25964" x2="176.452" y2="49.4862" gradientUnits="userSpaceOnUse">
<stop stop-color="white"/>
<stop offset="0.875822" stop-color="white" stop-opacity="0"/>
</linearGradient>
<linearGradient id="paint3_linear_2602_2857" x1="224.279" y1="23.0547" x2="189.827" y2="23.0547" gradientUnits="userSpaceOnUse">
<stop stop-color="white"/>
<stop offset="1" stop-color="white" stop-opacity="0"/>
</linearGradient>
<linearGradient id="paint4_linear_2602_2857" x1="237.63" y1="2.25964" x2="237.63" y2="49.4893" gradientUnits="userSpaceOnUse">
<stop stop-color="white" stop-opacity="0"/>
<stop offset="1" stop-color="white"/>
</linearGradient>
<linearGradient id="paint5_linear_2602_2857" x1="310.25" y1="9.00188" x2="272.384" y2="9.00188" gradientUnits="userSpaceOnUse">
<stop stop-color="white"/>
<stop offset="1" stop-color="white" stop-opacity="0"/>
</linearGradient>
<linearGradient id="paint6_linear_2602_2857" x1="334.746" y1="2.25964" x2="334.746" y2="49.4831" gradientUnits="userSpaceOnUse">
<stop stop-color="white" stop-opacity="0"/>
<stop offset="1" stop-color="white"/>
</linearGradient>
<linearGradient id="paint7_linear_2602_2857" x1="61.0225" y1="50.4454" x2="13.5352" y2="50.4454" gradientUnits="userSpaceOnUse">
<stop stop-color="white"/>
<stop offset="1" stop-color="white" stop-opacity="0"/>
</linearGradient>
<clipPath id="clip0_2602_2857">
<rect width="354.386" height="109.308" fill="white" transform="translate(0.808594)"/>
</clipPath>
</defs>
</svg>
