<svg width="182" height="62" viewBox="0 0 182 62" fill="none" xmlns="http://www.w3.org/2000/svg">
<g clip-path="url(#clip0_315_8859)">
<path d="M60.1992 60.2872V50.6914H53.6914V60.2872H60.1992Z" fill="url(#paint0_linear_315_8859)"/>
<path d="M60.1992 34.8525H53.6914V50.6905H60.1992V34.8525Z" fill="url(#paint1_linear_315_8859)"/>
<path d="M47.7759 40.3573C47.508 39.6788 47.1826 39.0391 46.7615 38.4382C46.2638 37.7209 45.6513 37.0812 44.9623 36.5384C44.12 35.8793 43.163 35.3752 42.1486 35.0651C41.0193 34.6773 39.6411 34.5029 38.0525 34.5029C35.9852 34.5029 34.2243 34.8519 32.7313 35.5303C31.334 36.1312 30.1473 37.1199 29.2859 38.3799C28.5012 39.5818 28.0801 40.9776 28.0801 42.4121H34.4731C34.4731 42.354 34.4731 42.2959 34.4731 42.2376C34.4731 41.85 34.588 41.4622 34.7985 41.1327C35.0665 40.7256 35.4493 40.3961 35.8895 40.2022C36.4063 39.9502 37.0762 39.8145 37.9376 39.8145C38.8564 39.8145 39.5646 39.9308 40.1005 40.2022C40.5598 40.4154 40.9618 40.7256 41.3063 41.094C41.5935 41.4816 41.8232 41.9275 41.9381 42.3927H48.3502C48.197 41.7143 48.0056 41.0164 47.7759 40.3573Z" fill="url(#paint2_linear_315_8859)"/>
<path d="M49.0186 52.4363C49.0377 53.929 48.6166 55.4023 47.7935 56.6623C46.9705 57.9031 45.8029 58.8723 44.2716 59.5702C42.7404 60.2681 40.8646 60.617 38.6442 60.617C36.9025 60.617 35.4094 60.4037 34.1845 59.9967C33.0743 59.6671 32.0598 59.1243 31.141 58.4264C30.3945 57.8448 29.7438 57.147 29.227 56.3715C28.8059 55.7319 28.4422 55.0339 28.1742 54.2973C27.9254 53.5801 27.7531 52.8435 27.6191 52.0874H34.2036C34.3567 52.669 34.6055 53.2117 34.9309 53.6964C35.3137 54.1811 35.7923 54.5493 36.3282 54.8014C36.9599 55.1309 37.8211 55.286 38.9122 55.286C40.2521 55.286 41.19 55.0146 41.7067 54.5106C42.2235 54.0066 42.5107 53.4444 42.5107 52.8435C42.5298 52.3394 42.3193 51.8354 41.9173 51.5252C41.5153 51.1957 40.8263 50.9437 39.8501 50.7886L36.5004 50.2458C35.0841 50.0132 33.7059 49.6061 32.3852 49.0439C31.1603 48.5399 30.0692 47.7257 29.2461 46.6789C28.4422 45.6514 28.0403 44.2945 28.0403 42.6273C28.0403 42.5498 28.0403 42.4916 28.0403 42.4141H34.4332C34.4715 42.9762 34.8352 43.4803 35.352 43.6935C36.0794 44.0425 36.845 44.2751 37.649 44.3914L41.1709 44.973C42.5107 45.1862 43.8314 45.5933 45.0564 46.1942C46.2049 46.7371 47.181 47.5706 47.9275 48.598C48.6549 49.6255 49.0186 50.9049 49.0186 52.4363Z" fill="url(#paint3_linear_315_8859)"/>
<path d="M8.3454 34.873L0 60.3066H6.77584L8.09656 56.0419L9.83837 50.4201L11.7716 44.178L12.7478 41.0182L14.6427 34.873H8.3454Z" fill="url(#paint4_linear_315_8859)"/>
<path d="M25.4779 60.3066H18.7021L17.3813 56.0419H8.11719L9.85899 50.4201H15.6395L12.7492 41.0182L14.6634 34.873H17.1325L25.4779 60.3066Z" fill="url(#paint5_linear_315_8859)"/>
<path d="M72.6364 34.873L64.291 60.3066H71.0669L72.3876 56.0419L74.1293 50.4201L76.0626 44.178L77.0388 41.0182L78.9337 34.873H72.6364Z" fill="url(#paint6_linear_315_8859)"/>
<path d="M89.7689 60.3066H82.993L81.6532 56.0419H72.4082L74.15 50.4201H79.9306L77.0403 41.0182L78.9352 34.873H81.4235L89.7689 60.3066Z" fill="url(#paint7_linear_315_8859)"/>
<path d="M41.62 0.872212C40.0313 0.852827 38.4618 1.08545 36.9688 1.57009V8.91715C37.3133 8.49067 37.7153 8.08358 38.1555 7.75402C39.0743 7.05616 40.2418 6.70721 41.62 6.70721C43.0173 6.70721 44.1848 7.05616 45.1036 7.75402C45.6587 8.16112 46.1372 8.66514 46.52 9.22731V1.66701C44.9505 1.10484 43.2853 0.852827 41.62 0.872212Z" fill="url(#paint8_linear_315_8859)"/>
<path d="M54.6732 13.8976C54.6732 15.5259 54.4052 17.1543 53.8502 18.6858C53.3142 20.2366 52.4912 21.6712 51.4002 22.8924C50.2517 24.1719 48.8544 25.1993 47.304 25.8778C45.6771 26.6144 43.7821 26.9827 41.6001 26.9827C39.418 26.9827 37.5231 26.6144 35.8961 25.8778C34.3457 25.1799 32.9484 24.1719 31.8191 22.8924C30.7472 21.6712 29.9051 20.2366 29.35 18.6858C28.7949 17.1543 28.5078 15.5259 28.5078 13.8976C28.5078 12.2692 28.7949 10.6603 29.35 9.14819C29.9051 7.59736 30.7281 6.18223 31.8191 4.96095C32.9484 3.68151 34.3457 2.67347 35.877 1.99498C36.2215 1.8399 36.5661 1.7042 36.9298 1.58789V8.91557C36.5661 9.38082 36.2598 9.90422 36.0301 10.447C35.0922 12.6569 35.0922 15.1383 36.0301 17.3483C36.4703 18.4338 37.1977 19.3643 38.1164 20.0622C39.0352 20.7601 40.2028 21.109 41.5809 21.109C42.959 21.109 44.1458 20.7601 45.0646 20.0622C45.9834 19.3643 46.7106 18.4338 47.1509 17.3483C48.0697 15.1383 48.0697 12.6569 47.1509 10.447C46.9786 10.0205 46.749 9.59406 46.4809 9.22573V1.66543C46.749 1.76236 47.0169 1.85928 47.2657 1.99498C48.8162 2.67347 50.2134 3.7009 51.3619 4.96095C52.4528 6.18223 53.2759 7.59736 53.8119 9.14819C54.4052 10.6797 54.6732 12.2692 54.6732 13.8976Z" fill="url(#paint9_linear_315_8859)"/>
<path d="M64.2402 26.6553V17.0596H57.7324V26.6553H64.2402Z" fill="url(#paint10_linear_315_8859)"/>
<path d="M64.2402 1.2207H57.7324V17.0586H64.2402V1.2207Z" fill="url(#paint11_linear_315_8859)"/>
<path d="M83.7086 1.2207V15.3527L83.6895 15.3332V26.0922L84.0914 26.6738H90.1591V1.2207H83.7086Z" fill="url(#paint12_linear_315_8859)"/>
<path d="M83.6888 15.3138V26.0728L74.884 13.2396V26.6544H68.4336V1.2207H74.4437L83.6888 15.3138Z" fill="url(#paint13_linear_315_8859)"/>
<path d="M94.1016 1.2207V12.4061H100.609V6.92H112.285V1.2207H94.1016Z" fill="url(#paint14_linear_315_8859)"/>
<path d="M110.754 12.4276V17.8943H100.609V26.6565H94.1016V12.4082H100.609V12.4276H110.754Z" fill="url(#paint15_linear_315_8859)"/>
<path d="M116.191 1.2207V26.6544H122.699V1.2207H116.191Z" fill="url(#paint16_linear_315_8859)"/>
<path d="M134.563 20.9346H122.715V26.6339H134.563V20.9346Z" fill="url(#paint17_linear_315_8859)"/>
<path d="M132.859 11.0479H122.715V16.4758H132.859V11.0479Z" fill="url(#paint18_linear_315_8859)"/>
<path d="M134.39 1.2207H122.715V6.92H134.39V1.2207Z" fill="url(#paint19_linear_315_8859)"/>
<path d="M157.592 6.74599C157.343 6.0675 156.999 5.42778 156.578 4.84622C155.448 3.23723 153.841 2.03534 151.984 1.45378C150.855 1.06607 149.477 0.891602 147.869 0.891602C145.801 0.891602 144.041 1.24054 142.547 1.91902C141.054 2.59752 139.906 3.56679 139.103 4.76868C138.317 5.95119 137.896 7.34694 137.896 8.78145H144.29C144.29 8.72331 144.29 8.66515 144.29 8.60699C144.29 8.21928 144.404 7.83157 144.615 7.50201C144.883 7.09492 145.265 6.76537 145.706 6.57152C146.223 6.31951 146.892 6.18381 147.754 6.18381C148.673 6.18381 149.381 6.31951 149.916 6.57152C150.377 6.78476 150.778 7.09493 151.123 7.46325C151.41 7.85096 151.639 8.27744 151.773 8.74269H158.185C158.033 8.06419 157.841 7.38571 157.592 6.74599Z" fill="url(#paint20_linear_315_8859)"/>
<path d="M158.852 18.8232C158.871 20.3159 158.45 21.7892 157.627 23.0492C156.803 24.2898 155.636 25.2398 154.105 25.957C152.574 26.6548 150.697 27.0038 148.459 27.0038C146.717 27.0038 145.223 26.7905 143.999 26.3834C142.889 26.0539 141.873 25.5112 140.955 24.8133C140.208 24.2317 139.558 23.5338 139.041 22.7584C138.62 22.1187 138.257 21.4208 137.989 20.6841C137.739 19.9669 137.567 19.2302 137.434 18.4742H144.018C144.171 19.0558 144.419 19.5986 144.745 20.0832C145.128 20.5678 145.606 20.9362 146.142 21.1882C146.774 21.5178 147.636 21.6728 148.727 21.6728C150.066 21.6728 151.004 21.4208 151.52 20.8974C152.056 20.374 152.324 19.8312 152.324 19.2302C152.343 18.7262 152.133 18.2223 151.732 17.9121C151.329 17.5825 150.641 17.3305 149.664 17.1755L146.314 16.6326C144.898 16.4 143.519 15.9929 142.199 15.4307C140.975 14.9267 139.884 14.1125 139.06 13.0657C138.257 12.0383 137.854 10.6813 137.854 9.01416C137.854 8.956 137.854 8.87846 137.854 8.82031H144.286C144.324 9.38249 144.687 9.88651 145.204 10.0997C145.932 10.4486 146.697 10.6813 147.501 10.7976L151.023 11.3792C152.363 11.5924 153.684 11.9995 154.909 12.6005C156.057 13.1432 157.033 13.9768 157.78 15.0042C158.488 16.0123 158.852 17.2917 158.852 18.8232Z" fill="url(#paint21_linear_315_8859)"/>
<path d="M167.832 1.2207V6.92H167.851V26.6349H174.359V1.2207H167.832Z" fill="url(#paint22_linear_315_8859)"/>
<path d="M181.961 1.2207H174.361V6.92H181.961V1.2207Z" fill="url(#paint23_linear_315_8859)"/>
<path d="M167.809 1.2207H160.229V6.92H167.809V1.2207Z" fill="url(#paint24_linear_315_8859)"/>
<path d="M18.7822 17.2534C18.5908 17.9319 18.2845 18.5717 17.9017 19.1531C17.4806 19.7153 16.9255 20.1612 16.2939 20.4713C15.5666 20.8591 14.5903 21.0529 13.4036 21.0529C11.9872 21.0529 10.8005 20.6846 9.86258 19.948C8.90554 19.2113 8.17819 18.242 7.73795 17.1371C7.68053 16.982 7.60397 16.8269 7.56568 16.6719H0.349609C0.483595 17.2922 0.655862 17.9125 0.86641 18.5328C1.42149 20.1418 2.26369 21.6151 3.37386 22.914C4.52231 24.2516 5.93872 25.2984 7.5274 26.0156C9.19265 26.791 11.145 27.1787 13.3462 27.1787C15.2411 27.1787 16.849 26.9461 18.1888 26.4615C19.4138 26.0544 20.5432 25.4341 21.5385 24.6198C22.3807 23.9414 23.0888 23.1272 23.663 22.2161C24.1416 21.46 24.5435 20.6653 24.8498 19.8317C25.1178 19.0563 25.3283 18.2809 25.4814 17.4666C25.4814 17.3891 25.5006 17.3309 25.5197 17.2728L18.7822 17.2534Z" fill="url(#paint25_linear_315_8859)"/>
<path d="M25.4822 9.90594H18.783C18.5916 9.22745 18.2853 8.58773 17.9025 8.00617C17.4814 7.44399 16.9263 6.97874 16.2947 6.66857C15.5674 6.28086 14.5911 6.08701 13.4044 6.08701C11.988 6.08701 10.8013 6.45534 9.86339 7.17259C8.90635 7.88985 8.179 8.85912 7.73876 9.98348C6.85828 12.1158 6.80086 14.5002 7.5665 16.6714H0.331283C-0.242941 13.9962 -0.0706742 11.1854 0.848083 8.60711C1.40317 7.01751 2.24536 5.54423 3.35552 4.26479C4.50397 2.94658 5.92039 1.88038 7.50908 1.16312C9.17433 0.387707 11.1267 0 13.3279 0C15.2228 0 16.8307 0.252009 18.1705 0.717259C19.3955 1.12436 20.5248 1.74468 21.5201 2.55887C22.3432 3.23736 23.0705 4.05154 23.6447 4.94327C24.1233 5.69931 24.5252 6.4941 24.8315 7.34706C25.1186 8.16124 25.3291 9.01421 25.4822 9.90594Z" fill="url(#paint26_linear_315_8859)"/>
<path d="M100.293 44.9851V35.217H104.557C105.182 35.217 105.715 35.3271 106.154 35.5471C106.594 35.767 106.929 36.0618 107.157 36.4315C107.395 36.801 107.513 37.2058 107.513 37.6458C107.513 38.0947 107.43 38.4642 107.263 38.7546C107.105 39.045 106.911 39.2738 106.682 39.4411C106.462 39.5995 106.26 39.7094 106.075 39.7711V39.8635C106.304 39.9251 106.559 40.0439 106.841 40.2198C107.131 40.3959 107.382 40.6467 107.593 40.9723C107.805 41.2891 107.91 41.7027 107.91 42.213C107.91 42.6707 107.799 43.115 107.58 43.5463C107.36 43.9687 107.012 44.3162 106.537 44.5891C106.061 44.8531 105.432 44.9851 104.649 44.9851H100.293ZM104.319 36.735H102.089V39.2826H104.319C104.83 39.2826 105.199 39.155 105.428 38.8998C105.657 38.6446 105.771 38.3454 105.771 38.0022C105.771 37.6679 105.657 37.373 105.428 37.1178C105.199 36.8626 104.83 36.735 104.319 36.735ZM104.452 40.6555H102.089V43.4671H104.452C105.032 43.4671 105.455 43.3263 105.719 43.0447C105.983 42.7631 106.115 42.433 106.115 42.0547C106.115 41.685 105.983 41.3594 105.719 41.0778C105.455 40.7963 105.032 40.6555 104.452 40.6555ZM109.673 47.5591C109.445 47.5591 109.254 47.5503 109.105 47.5327C108.964 47.5151 108.895 47.5063 108.895 47.5063V46.0675C108.895 46.0675 108.96 46.0719 109.092 46.0807C109.224 46.0983 109.378 46.1071 109.554 46.1071C110.003 46.1071 110.373 46.0323 110.663 45.8826C110.962 45.7419 111.213 45.4734 111.415 45.0775L108.788 37.989H110.571L112.326 42.9786L114.055 37.989H115.838L113.277 44.8135C112.925 45.7462 112.472 46.4371 111.917 46.8859C111.363 47.3347 110.614 47.5591 109.673 47.5591ZM99.8049 56.5428C99.8049 55.6364 100.007 54.8268 100.412 54.114C100.826 53.3924 101.385 52.8336 102.089 52.4376C102.802 52.0328 103.597 51.8304 104.478 51.8304C105.507 51.8304 106.409 52.0944 107.184 52.6224C107.958 53.1504 108.499 53.8808 108.808 54.8136H106.682C106.471 54.3737 106.172 54.0436 105.784 53.8236C105.406 53.6036 104.966 53.4936 104.465 53.4936C103.928 53.4936 103.448 53.6212 103.026 53.8764C102.612 54.1228 102.287 54.4749 102.049 54.9324C101.82 55.39 101.706 55.9268 101.706 56.5428C101.706 57.1501 101.82 57.6869 102.049 58.1533C102.287 58.6108 102.612 58.9672 103.026 59.2224C103.448 59.4688 103.928 59.5921 104.465 59.5921C104.966 59.5921 105.406 59.4821 105.784 59.2621C106.172 59.0333 106.471 58.6989 106.682 58.2588H108.808C108.499 59.2005 107.958 59.9353 107.184 60.4633C106.418 60.9825 105.516 61.242 104.478 61.242C103.597 61.242 102.802 61.0441 102.089 60.6481C101.385 60.2433 100.826 59.6844 100.412 58.9717C100.007 58.2588 99.8049 57.4492 99.8049 56.5428ZM113.633 61.2817C112.929 61.2817 112.296 61.1277 111.733 60.8197C111.17 60.5028 110.725 60.0584 110.399 59.4864C110.083 58.9145 109.924 58.2544 109.924 57.5065C109.924 56.7585 110.087 56.0984 110.412 55.5264C110.747 54.9544 111.2 54.5144 111.772 54.2064C112.343 53.8896 112.981 53.7312 113.686 53.7312C114.39 53.7312 115.028 53.8896 115.6 54.2064C116.171 54.5144 116.62 54.9544 116.946 55.5264C117.281 56.0984 117.448 56.7585 117.448 57.5065C117.448 58.2544 117.277 58.9145 116.933 59.4864C116.598 60.0584 116.141 60.5028 115.56 60.8197C114.988 61.1277 114.345 61.2817 113.633 61.2817ZM113.633 59.6713C113.967 59.6713 114.28 59.5921 114.57 59.4337C114.869 59.2664 115.107 59.02 115.283 58.6944C115.459 58.3689 115.547 57.9728 115.547 57.5065C115.547 56.8112 115.363 56.2788 114.993 55.9092C114.632 55.5309 114.188 55.3416 113.66 55.3416C113.131 55.3416 112.687 55.5309 112.326 55.9092C111.974 56.2788 111.798 56.8112 111.798 57.5065C111.798 58.2016 111.97 58.7384 112.313 59.1169C112.665 59.4864 113.105 59.6713 113.633 59.6713ZM119.741 52.9788C119.415 52.9788 119.142 52.8776 118.923 52.6752C118.711 52.464 118.605 52.2044 118.605 51.8964C118.605 51.5884 118.711 51.3332 118.923 51.1308C119.142 50.9196 119.415 50.814 119.741 50.814C120.066 50.814 120.334 50.9196 120.546 51.1308C120.766 51.3332 120.876 51.5884 120.876 51.8964C120.876 52.2044 120.766 52.464 120.546 52.6752C120.334 52.8776 120.066 52.9788 119.741 52.9788ZM120.652 53.85V61.1629H118.803V53.85H120.652ZM126.529 53.7444C127.401 53.7444 128.105 54.0216 128.642 54.576C129.178 55.1217 129.447 55.8872 129.447 56.8728V61.1629H127.599V57.1237C127.599 56.5428 127.453 56.0984 127.163 55.7904C126.873 55.4736 126.477 55.3152 125.975 55.3152C125.465 55.3152 125.06 55.4736 124.761 55.7904C124.471 56.0984 124.325 56.5428 124.325 57.1237V61.1629H122.478V53.85H124.325V54.7608C124.572 54.444 124.884 54.1976 125.262 54.0216C125.65 53.8369 126.072 53.7444 126.529 53.7444ZM134.253 59.46L136.102 53.85H138.068L135.362 61.1629H133.119L130.425 53.85H132.406L134.253 59.46ZM145.904 57.348C145.904 57.612 145.887 57.8496 145.852 58.0609H140.506C140.549 58.5889 140.734 59.0024 141.06 59.3016C141.386 59.6009 141.786 59.7504 142.261 59.7504C142.948 59.7504 143.436 59.4557 143.726 58.866H145.719C145.508 59.5701 145.103 60.1508 144.505 60.6085C143.906 61.0573 143.172 61.2817 142.301 61.2817C141.597 61.2817 140.963 61.1277 140.4 60.8197C139.846 60.5028 139.41 60.0584 139.093 59.4864C138.785 58.9145 138.631 58.2544 138.631 57.5065C138.631 56.7497 138.785 56.0853 139.093 55.5133C139.401 54.9412 139.832 54.5013 140.387 54.1933C140.941 53.8852 141.579 53.7312 142.301 53.7312C142.996 53.7312 143.616 53.8808 144.162 54.18C144.716 54.4792 145.143 54.906 145.442 55.4604C145.751 56.006 145.904 56.6352 145.904 57.348ZM143.99 56.82C143.981 56.3448 143.81 55.9665 143.476 55.6849C143.141 55.3945 142.732 55.2493 142.248 55.2493C141.79 55.2493 141.403 55.39 141.086 55.6716C140.778 55.9444 140.589 56.3272 140.519 56.82H143.99ZM150.052 61.2817C149.453 61.2817 148.916 61.1761 148.441 60.9649C147.966 60.7449 147.588 60.45 147.306 60.0805C147.034 59.7108 146.884 59.3016 146.858 58.8529H148.718C148.754 59.1345 148.89 59.3676 149.128 59.5525C149.374 59.7373 149.678 59.8296 150.039 59.8296C150.391 59.8296 150.664 59.7592 150.857 59.6185C151.059 59.4776 151.16 59.2973 151.16 59.0772C151.16 58.8396 151.038 58.6637 150.791 58.5492C150.553 58.4261 150.17 58.294 149.642 58.1533C149.097 58.0212 148.648 57.8848 148.297 57.7441C147.953 57.6032 147.653 57.3877 147.399 57.0973C147.152 56.8068 147.029 56.4152 147.029 55.9225C147.029 55.5176 147.143 55.1481 147.372 54.8136C147.61 54.4792 147.944 54.2152 148.375 54.0216C148.815 53.8281 149.33 53.7312 149.919 53.7312C150.791 53.7312 151.486 53.9512 152.005 54.3912C152.524 54.8224 152.81 55.4076 152.864 56.1468H151.094C151.068 55.8564 150.945 55.6276 150.725 55.4604C150.514 55.2845 150.228 55.1964 149.867 55.1964C149.532 55.1964 149.273 55.2581 149.088 55.3812C148.912 55.5045 148.824 55.6761 148.824 55.896C148.824 56.1424 148.948 56.3317 149.193 56.4636C149.44 56.5869 149.823 56.7145 150.342 56.8464C150.87 56.9785 151.306 57.1149 151.648 57.2556C151.992 57.3965 152.286 57.6165 152.533 57.9157C152.789 58.2061 152.92 58.5932 152.929 59.0772C152.929 59.4997 152.81 59.878 152.572 60.2124C152.344 60.5469 152.009 60.8109 151.569 61.0044C151.139 61.1892 150.632 61.2817 150.052 61.2817ZM156.598 55.368V58.9057C156.598 59.1521 156.655 59.3324 156.77 59.4468C156.893 59.5525 157.095 59.6052 157.376 59.6052H158.235V61.1629H157.073C155.516 61.1629 154.736 60.406 154.736 58.8924V55.368H153.866V53.85H154.736V52.0416H156.598V53.85H158.235V55.368H156.598ZM163.986 60.1201C163.784 60.4545 163.453 60.7361 162.996 60.9649C162.538 61.1849 162.046 61.2949 161.518 61.2949C161.06 61.2949 160.646 61.2025 160.276 61.0177C159.907 60.8328 159.617 60.5776 159.406 60.2521C159.194 59.9265 159.089 59.5525 159.089 59.13C159.089 58.4525 159.34 57.8981 159.841 57.4668C160.351 57.0356 161.112 56.82 162.124 56.82H163.986C163.969 56.3536 163.832 55.984 163.576 55.7113C163.331 55.4297 162.987 55.2888 162.547 55.2888C162.16 55.2888 161.838 55.3945 161.584 55.6056C161.329 55.808 161.166 56.0941 161.095 56.4636H159.247C159.335 55.9356 159.524 55.4648 159.815 55.0512C160.113 54.6289 160.501 54.3032 160.976 54.0745C161.46 53.8369 162.001 53.7181 162.6 53.7181C163.215 53.7181 163.771 53.8456 164.263 54.1009C164.764 54.3561 165.156 54.7213 165.438 55.1964C165.719 55.6716 165.861 56.2305 165.861 56.8728V61.1629H163.986V60.1201ZM162.059 59.8032C162.367 59.8032 162.665 59.7373 162.957 59.6052C163.256 59.4733 163.502 59.2752 163.696 59.0112C163.889 58.7472 163.986 58.4349 163.986 58.074V58.0212H162.231C161.808 58.0212 161.492 58.1049 161.28 58.2721C161.077 58.4392 160.976 58.6592 160.976 58.932C160.976 59.196 161.069 59.4073 161.254 59.5656C161.447 59.724 161.715 59.8032 162.059 59.8032ZM170.483 61.2817C169.885 61.2817 169.348 61.1761 168.873 60.9649C168.397 60.7449 168.019 60.45 167.738 60.0805C167.465 59.7108 167.316 59.3016 167.289 58.8529H169.151C169.185 59.1345 169.322 59.3676 169.559 59.5525C169.806 59.7373 170.109 59.8296 170.47 59.8296C170.822 59.8296 171.095 59.7592 171.288 59.6185C171.491 59.4776 171.593 59.2973 171.593 59.0772C171.593 58.8396 171.469 58.6637 171.222 58.5492C170.985 58.4261 170.603 58.294 170.074 58.1533C169.529 58.0212 169.08 57.8848 168.728 57.7441C168.384 57.6032 168.085 57.3877 167.83 57.0973C167.583 56.8068 167.46 56.4152 167.46 55.9225C167.46 55.5176 167.575 55.1481 167.804 54.8136C168.041 54.4792 168.376 54.2152 168.807 54.0216C169.247 53.8281 169.761 53.7312 170.352 53.7312C171.222 53.7312 171.918 53.9512 172.437 54.3912C172.957 54.8224 173.243 55.4076 173.295 56.1468H171.526C171.499 55.8564 171.376 55.6276 171.157 55.4604C170.945 55.2845 170.659 55.1964 170.298 55.1964C169.965 55.1964 169.705 55.2581 169.52 55.3812C169.344 55.5045 169.256 55.6761 169.256 55.896C169.256 56.1424 169.379 56.3317 169.625 56.4636C169.872 56.5869 170.255 56.7145 170.774 56.8464C171.301 56.9785 171.737 57.1149 172.081 57.2556C172.424 57.3965 172.719 57.6165 172.965 57.9157C173.22 58.2061 173.352 58.5932 173.361 59.0772C173.361 59.4997 173.243 59.878 173.005 60.2124C172.776 60.5469 172.442 60.8109 172.001 61.0044C171.57 61.1892 171.064 61.2817 170.483 61.2817ZM175.815 52.9788C175.489 52.9788 175.216 52.8776 174.997 52.6752C174.786 52.464 174.68 52.2044 174.68 51.8964C174.68 51.5884 174.786 51.3332 174.997 51.1308C175.216 50.9196 175.489 50.814 175.815 50.814C176.14 50.814 176.409 50.9196 176.621 51.1308C176.84 51.3332 176.95 51.5884 176.95 51.8964C176.95 52.2044 176.84 52.464 176.621 52.6752C176.409 52.8776 176.14 52.9788 175.815 52.9788ZM176.726 53.85V61.1629H174.878V53.85H176.726Z" fill="white"/>
</g>
<defs>
<linearGradient id="paint0_linear_315_8859" x1="60.1916" y1="55.4932" x2="53.6913" y2="55.4932" gradientUnits="userSpaceOnUse">
<stop stop-color="white"/>
<stop offset="0.84" stop-color="white" stop-opacity="0"/>
</linearGradient>
<linearGradient id="paint1_linear_315_8859" x1="53.6914" y1="42.7715" x2="60.3906" y2="42.7715" gradientUnits="userSpaceOnUse">
<stop stop-color="white"/>
<stop offset="1" stop-color="white"/>
</linearGradient>
<linearGradient id="paint2_linear_315_8859" x1="28.0917" y1="38.4526" x2="48.3753" y2="38.4526" gradientUnits="userSpaceOnUse">
<stop offset="0.02" stop-color="white" stop-opacity="0"/>
<stop offset="1" stop-color="white"/>
</linearGradient>
<linearGradient id="paint3_linear_315_8859" x1="27.6191" y1="51.5156" x2="49.6486" y2="51.5156" gradientUnits="userSpaceOnUse">
<stop stop-color="white"/>
<stop offset="1" stop-color="white"/>
</linearGradient>
<linearGradient id="paint4_linear_315_8859" x1="2.01447" y1="61.1495" x2="13.2876" y2="34.305" gradientUnits="userSpaceOnUse">
<stop stop-color="white"/>
<stop offset="0.84" stop-color="white" stop-opacity="0"/>
</linearGradient>
<linearGradient id="paint5_linear_315_8859" x1="8.11719" y1="47.5899" x2="25.9885" y2="47.5899" gradientUnits="userSpaceOnUse">
<stop stop-color="white"/>
<stop offset="1" stop-color="white"/>
</linearGradient>
<linearGradient id="paint6_linear_315_8859" x1="66.3134" y1="61.1489" x2="77.5864" y2="34.305" gradientUnits="userSpaceOnUse">
<stop stop-color="white"/>
<stop offset="0.84" stop-color="white" stop-opacity="0"/>
</linearGradient>
<linearGradient id="paint7_linear_315_8859" x1="72.4082" y1="47.5899" x2="90.2795" y2="47.5899" gradientUnits="userSpaceOnUse">
<stop stop-color="white"/>
<stop offset="1" stop-color="white"/>
</linearGradient>
<linearGradient id="paint8_linear_315_8859" x1="41.7377" y1="9.21371" x2="41.7377" y2="0.872058" gradientUnits="userSpaceOnUse">
<stop stop-color="white"/>
<stop offset="0.84" stop-color="white" stop-opacity="0"/>
</linearGradient>
<linearGradient id="paint9_linear_315_8859" x1="28.5078" y1="14.2853" x2="55.4428" y2="14.2853" gradientUnits="userSpaceOnUse">
<stop stop-color="white"/>
<stop offset="1" stop-color="white"/>
</linearGradient>
<linearGradient id="paint10_linear_315_8859" x1="64.2346" y1="21.8622" x2="57.7304" y2="21.8622" gradientUnits="userSpaceOnUse">
<stop stop-color="white"/>
<stop offset="0.84" stop-color="white" stop-opacity="0"/>
</linearGradient>
<linearGradient id="paint11_linear_315_8859" x1="57.7324" y1="9.13963" x2="64.4316" y2="9.13963" gradientUnits="userSpaceOnUse">
<stop stop-color="white"/>
<stop offset="1" stop-color="white"/>
</linearGradient>
<linearGradient id="paint12_linear_315_8859" x1="86.9252" y1="1.21485" x2="86.9252" y2="26.6776" gradientUnits="userSpaceOnUse">
<stop stop-color="white"/>
<stop offset="0.84" stop-color="white" stop-opacity="0"/>
</linearGradient>
<linearGradient id="paint13_linear_315_8859" x1="68.4336" y1="13.9375" x2="84.1375" y2="13.9375" gradientUnits="userSpaceOnUse">
<stop stop-color="white"/>
<stop offset="1" stop-color="white"/>
</linearGradient>
<linearGradient id="paint14_linear_315_8859" x1="94.1092" y1="6.80658" x2="112.278" y2="6.80658" gradientUnits="userSpaceOnUse">
<stop offset="0.02" stop-color="white" stop-opacity="0"/>
<stop offset="1" stop-color="white"/>
</linearGradient>
<linearGradient id="paint15_linear_315_8859" x1="94.1016" y1="19.5324" x2="111.244" y2="19.5324" gradientUnits="userSpaceOnUse">
<stop stop-color="white"/>
<stop offset="1" stop-color="white"/>
</linearGradient>
<linearGradient id="paint16_linear_315_8859" x1="119.438" y1="26.6582" x2="119.438" y2="1.21486" gradientUnits="userSpaceOnUse">
<stop stop-color="white"/>
<stop offset="0.84" stop-color="white" stop-opacity="0"/>
</linearGradient>
<linearGradient id="paint17_linear_315_8859" x1="122.715" y1="23.7842" x2="134.911" y2="23.7842" gradientUnits="userSpaceOnUse">
<stop stop-color="white"/>
<stop offset="1" stop-color="white"/>
</linearGradient>
<linearGradient id="paint18_linear_315_8859" x1="122.715" y1="13.7618" x2="133.158" y2="13.7618" gradientUnits="userSpaceOnUse">
<stop stop-color="white"/>
<stop offset="1" stop-color="white"/>
</linearGradient>
<linearGradient id="paint19_linear_315_8859" x1="122.715" y1="4.07035" x2="134.734" y2="4.07035" gradientUnits="userSpaceOnUse">
<stop stop-color="white"/>
<stop offset="1" stop-color="white"/>
</linearGradient>
<linearGradient id="paint20_linear_315_8859" x1="137.881" y1="4.83653" x2="158.185" y2="4.83653" gradientUnits="userSpaceOnUse">
<stop offset="0.02" stop-color="white" stop-opacity="0"/>
<stop offset="1" stop-color="white"/>
</linearGradient>
<linearGradient id="paint21_linear_315_8859" x1="137.434" y1="17.9121" x2="159.482" y2="17.9121" gradientUnits="userSpaceOnUse">
<stop stop-color="white"/>
<stop offset="1" stop-color="white"/>
</linearGradient>
<linearGradient id="paint22_linear_315_8859" x1="171.091" y1="26.6389" x2="171.091" y2="1.21486" gradientUnits="userSpaceOnUse">
<stop stop-color="white"/>
<stop offset="0.84" stop-color="white" stop-opacity="0"/>
</linearGradient>
<linearGradient id="paint23_linear_315_8859" x1="174.361" y1="4.07035" x2="182.184" y2="4.07035" gradientUnits="userSpaceOnUse">
<stop stop-color="white"/>
<stop offset="1" stop-color="white"/>
</linearGradient>
<linearGradient id="paint24_linear_315_8859" x1="160.229" y1="4.07035" x2="168.031" y2="4.07035" gradientUnits="userSpaceOnUse">
<stop stop-color="white"/>
<stop offset="1" stop-color="white"/>
</linearGradient>
<linearGradient id="paint25_linear_315_8859" x1="25.5044" y1="21.9019" x2="0.340002" y2="21.9019" gradientUnits="userSpaceOnUse">
<stop stop-color="white"/>
<stop offset="0.84" stop-color="white" stop-opacity="0"/>
</linearGradient>
<linearGradient id="paint26_linear_315_8859" x1="-7.32367e-08" y1="8.33572" x2="26.2318" y2="8.33572" gradientUnits="userSpaceOnUse">
<stop stop-color="white"/>
<stop offset="1" stop-color="white"/>
</linearGradient>
<clipPath id="clip0_315_8859">
<rect width="182" height="61.6778" fill="white"/>
</clipPath>
</defs>
</svg>
