<svg width="167" height="49" viewBox="0 0 167 49" fill="none" xmlns="http://www.w3.org/2000/svg">
<g clip-path="url(#clip0_4522_4391)">
<mask id="mask0_4522_4391" style="mask-type:luminance" maskUnits="userSpaceOnUse" x="-1" y="-1" width="168" height="50">
<path d="M166.972 -0.00390625H-0.000976562V48.8664H166.972V-0.00390625Z" fill="white"/>
</mask>
<g mask="url(#mask0_4522_4391)">
<path d="M166.051 42.668C166.051 45.2386 163.925 47.3207 161.296 47.3207H5.69361C3.0657 47.3207 0.932617 45.2386 0.932617 42.668V5.5632C0.932617 2.99382 3.0657 0.904297 5.69361 0.904297H161.294C163.925 0.904297 166.05 2.99382 166.05 5.5632L166.051 42.668Z" fill="black"/>
<path d="M160.788 0.962335C163.652 0.962335 165.981 3.23399 165.981 6.02569V42.2032C165.981 44.9949 163.652 47.2666 160.788 47.2666H6.18323C3.31993 47.2666 0.990041 44.9949 0.990041 42.2032V6.02569C0.990041 3.23399 3.31993 0.962335 6.18323 0.962335H160.788ZM160.788 -0.00390625H6.18323C2.78346 -0.00390625 -0.000976562 2.71091 -0.000976562 6.02569V42.2032C-0.000976562 45.518 2.78346 48.2329 6.18323 48.2329H160.788C164.188 48.2329 166.972 45.518 166.972 42.2032V6.02569C166.972 2.71091 164.188 -0.00390625 160.788 -0.00390625Z" fill="#A6A6A6"/>
<path d="M37.2584 23.8537C37.2225 19.967 40.5224 18.0762 40.6733 17.9881C38.8044 15.3314 35.9077 14.9684 34.8899 14.9395C32.4569 14.6899 30.097 16.3589 28.8578 16.3589C27.5937 16.3589 25.6853 14.9637 23.6284 15.0047C20.9815 15.0444 18.5054 16.5385 17.1474 18.8588C14.3447 23.5896 16.435 30.5418 19.1201 34.3657C20.4634 36.2385 22.0329 38.3295 24.0872 38.2559C26.0972 38.1752 26.8479 37.0066 29.2733 37.0066C31.6765 37.0066 32.3815 38.2559 34.4768 38.209C36.6337 38.1752 37.9918 36.3277 39.2881 34.4381C40.8402 32.2914 41.4636 30.1775 41.4884 30.0689C41.4377 30.0521 37.2992 28.5121 37.2584 23.8537Z" fill="white"/>
<path d="M33.3019 12.4212C34.3828 11.1032 35.1226 9.30997 34.9172 7.49023C33.3526 7.55777 31.3959 8.54541 30.2692 9.83454C29.2722 10.9705 28.3817 12.8325 28.6118 14.5834C30.3694 14.7113 32.1739 13.7188 33.3019 12.4212Z" fill="white"/>
<path d="M66.349 37.9879H63.5402L62.0014 33.274H56.6534L55.1877 37.9879H52.4531L57.7518 21.9395H61.0244L66.349 37.9879ZM61.5377 31.2962L60.1463 27.1057C59.9991 26.6776 59.7233 25.6695 59.3163 24.0824H59.2669C59.1048 24.765 58.8439 25.7732 58.4852 27.1057L57.1185 31.2962H61.5377Z" fill="white"/>
<path d="M79.9717 32.061C79.9717 34.0289 79.4262 35.5846 78.3353 36.7266C77.3582 37.7432 76.1449 38.2509 74.6965 38.2509C73.1331 38.2509 72.01 37.7034 71.3261 36.6085H71.2767V42.7044H68.6397V30.2267C68.6397 28.9895 68.6063 27.7196 68.542 26.4173H70.861L71.0082 28.2514H71.0577C71.9371 26.8694 73.2717 26.1797 75.0626 26.1797C76.4626 26.1797 77.6315 26.7188 78.5665 27.798C79.5041 28.8785 79.9717 30.299 79.9717 32.061ZM77.2852 32.155C77.2852 31.0287 77.0255 30.1002 76.5035 29.3693C75.9333 28.6072 75.1677 28.2261 74.208 28.2261C73.5573 28.2261 72.9661 28.4383 72.438 28.8568C71.9086 29.2789 71.5623 29.83 71.4004 30.5126C71.3186 30.8309 71.2779 31.0914 71.2779 31.2964V33.2258C71.2779 34.0676 71.5425 34.7779 72.0719 35.3579C72.6013 35.938 73.2889 36.2274 74.1349 36.2274C75.1282 36.2274 75.9012 35.8536 76.4541 35.1083C77.0081 34.3618 77.2852 33.3777 77.2852 32.155Z" fill="white"/>
<path d="M93.6256 32.061C93.6256 34.0289 93.0803 35.5846 91.988 36.7266C91.0122 37.7432 89.7989 38.2509 88.3506 38.2509C86.7871 38.2509 85.6641 37.7034 84.9814 36.6085H84.9318V42.7044H82.295V30.2267C82.295 28.9895 82.2616 27.7196 82.1973 26.4173H84.5163L84.6634 28.2514H84.713C85.5912 26.8694 86.9257 26.1797 88.7179 26.1797C90.1167 26.1797 91.2855 26.7188 92.2231 27.798C93.1568 28.8785 93.6256 30.299 93.6256 32.061ZM90.9392 32.155C90.9392 31.0287 90.6783 30.1002 90.1563 29.3693C89.5862 28.6072 88.823 28.2261 87.862 28.2261C87.2101 28.2261 86.6202 28.4383 86.0909 28.8568C85.5614 29.2789 85.2164 29.83 85.0543 30.5126C84.9739 30.8309 84.9318 31.0914 84.9318 31.2964V33.2258C84.9318 34.0676 85.1965 34.7779 85.7235 35.3579C86.2528 35.9368 86.9405 36.2274 87.789 36.2274C88.7821 36.2274 89.5552 35.8536 90.1081 35.1083C90.6621 34.3618 90.9392 33.3777 90.9392 32.155Z" fill="white"/>
<path d="M108.889 33.4901C108.889 34.8552 108.403 35.9657 107.427 36.8231C106.355 37.7602 104.862 38.2282 102.944 38.2282C101.172 38.2282 99.7525 37.8953 98.6777 37.2284L99.2886 35.0855C100.446 35.7681 101.717 36.1105 103.101 36.1105C104.094 36.1105 104.867 35.8911 105.422 35.4545C105.975 35.0179 106.251 34.4319 106.251 33.7012C106.251 33.05 106.023 32.5013 105.567 32.0563C105.113 31.6113 104.355 31.1976 103.296 30.8154C100.414 29.7674 98.9745 28.2323 98.9745 26.2135C98.9745 24.8943 99.4792 23.8125 100.49 22.9709C101.496 22.1279 102.84 21.707 104.519 21.707C106.017 21.707 107.261 21.9614 108.255 22.4691L107.595 24.565C106.668 24.073 105.619 23.8271 104.445 23.8271C103.517 23.8271 102.793 24.0501 102.273 24.4939C101.834 24.8907 101.614 25.3742 101.614 25.9471C101.614 26.5813 101.865 27.106 102.37 27.5184C102.809 27.8994 103.606 28.3118 104.764 28.7568C106.18 29.3127 107.221 29.9627 107.89 30.708C108.556 31.4508 108.889 32.3806 108.889 33.4901Z" fill="white"/>
<path d="M117.605 28.346H114.699V33.9644C114.699 35.3933 115.211 36.1073 116.237 36.1073C116.708 36.1073 117.099 36.0675 117.408 35.9879L117.481 37.9403C116.962 38.1297 116.278 38.2248 115.431 38.2248C114.389 38.2248 113.576 37.9149 112.988 37.2963C112.403 36.6765 112.109 35.637 112.109 34.1766V28.3435H110.377V26.4141H112.109V24.2953L114.699 23.5332V26.4141H117.605V28.346Z" fill="white"/>
<path d="M130.714 32.1087C130.714 33.8874 130.192 35.3478 129.151 36.4897C128.058 37.6656 126.609 38.2516 124.802 38.2516C123.06 38.2516 121.674 37.6884 120.64 36.5621C119.606 35.4358 119.089 34.014 119.089 32.3005C119.089 30.5072 119.621 29.0384 120.688 27.8964C121.753 26.7531 123.19 26.1816 124.997 26.1816C126.739 26.1816 128.14 26.7447 129.198 27.8723C130.209 28.966 130.714 30.3782 130.714 32.1087ZM127.978 32.1919C127.978 31.1246 127.744 30.2094 127.271 29.446C126.718 28.5223 125.927 28.0617 124.903 28.0617C123.843 28.0617 123.038 28.5235 122.485 29.446C122.012 30.2106 121.778 31.1403 121.778 32.2401C121.778 33.3073 122.012 34.2227 122.485 34.9848C123.055 35.9086 123.852 36.3692 124.88 36.3692C125.887 36.3692 126.677 35.8989 127.247 34.9606C127.733 34.1829 127.978 33.2579 127.978 32.1919Z" fill="white"/>
<path d="M139.294 28.6783C139.033 28.6313 138.755 28.6072 138.463 28.6072C137.536 28.6072 136.818 28.9485 136.313 29.6322C135.874 30.2351 135.654 30.9973 135.654 31.9175V37.9892H133.019L133.043 30.0615C133.043 28.7277 133.01 27.5134 132.944 26.4185H135.241L135.338 28.6326H135.411C135.689 27.8715 136.128 27.2589 136.73 26.7995C137.316 26.3859 137.951 26.1797 138.636 26.1797C138.879 26.1797 139.098 26.1965 139.294 26.2267V28.6783Z" fill="white"/>
<path d="M151.08 31.656C151.08 32.1166 151.05 32.505 150.984 32.8221H143.073C143.105 33.9652 143.486 34.8396 144.221 35.4425C144.887 35.9815 145.749 36.2517 146.808 36.2517C147.98 36.2517 149.048 36.0696 150.009 35.7042L150.423 37.489C149.299 37.9665 147.974 38.204 146.444 38.204C144.603 38.204 143.159 37.6758 142.107 36.6208C141.059 35.5656 140.532 34.1486 140.532 32.3711C140.532 30.626 141.021 29.173 142 28.0141C143.023 26.7768 144.408 26.1582 146.15 26.1582C147.86 26.1582 149.155 26.7768 150.035 28.0141C150.73 28.9969 151.08 30.2124 151.08 31.656ZM148.566 30.989C148.584 30.2269 148.411 29.5685 148.054 29.0126C147.598 28.2975 146.896 27.9405 145.953 27.9405C145.091 27.9405 144.389 28.2891 143.854 28.9885C143.414 29.5444 143.154 30.2113 143.073 30.9878L148.566 30.989Z" fill="white"/>
<path d="M60.6702 12.0663C60.6702 13.4856 60.2336 14.554 59.3616 15.2716C58.554 15.9337 57.4062 16.2653 55.9195 16.2653C55.1823 16.2653 54.5515 16.2339 54.0234 16.1712V8.41595C54.7124 8.30742 55.4544 8.25195 56.2559 8.25195C57.6721 8.25195 58.7394 8.55222 59.4593 9.15277C60.2658 9.83171 60.6702 10.8025 60.6702 12.0663ZM59.3035 12.1012C59.3035 11.1811 59.0537 10.4757 58.554 9.98366C58.0543 9.49284 57.3245 9.24683 56.3635 9.24683C55.9553 9.24683 55.6078 9.27337 55.3196 9.32884V15.2246C55.4792 15.2487 55.7711 15.2595 56.1953 15.2595C57.1872 15.2595 57.9529 14.9906 58.4921 14.4527C59.0314 13.9149 59.3035 13.1311 59.3035 12.1012Z" fill="white"/>
<path d="M67.9214 13.3056C67.9214 14.1799 67.6654 14.8963 67.1534 15.4581C66.6166 16.0359 65.9054 16.3241 65.0173 16.3241C64.1614 16.3241 63.4799 16.0478 62.9716 15.4932C62.4645 14.9397 62.2109 14.2414 62.2109 13.3997C62.2109 12.5194 62.4719 11.797 62.9963 11.2363C63.5207 10.6755 64.2258 10.3945 65.1138 10.3945C65.9696 10.3945 66.6573 10.6707 67.1781 11.2242C67.6727 11.762 67.9214 12.4567 67.9214 13.3056ZM66.577 13.3466C66.577 12.8221 66.4608 12.3722 66.2294 11.9972C65.9573 11.5438 65.5702 11.3171 65.0667 11.3171C64.5461 11.3171 64.1503 11.5438 63.8782 11.9972C63.6457 12.3722 63.5306 12.8293 63.5306 13.3695C63.5306 13.8941 63.6469 14.3439 63.8782 14.719C64.159 15.1724 64.5498 15.3991 65.0544 15.3991C65.5492 15.3991 65.9376 15.1687 66.2171 14.7069C66.457 14.3246 66.577 13.8712 66.577 13.3466Z" fill="white"/>
<path d="M77.637 10.5098L75.8125 16.1944H74.6252L73.8696 13.7259C73.6779 13.1097 73.5219 12.4971 73.4007 11.8893H73.3772C73.2647 12.514 73.109 13.1254 72.9086 13.7259L72.1058 16.1944H70.9048L69.1895 10.5098H70.5214L71.1806 13.2122C71.3403 13.8514 71.4712 14.4604 71.5764 15.0368H71.5998C71.6964 14.5616 71.856 13.9563 72.0811 13.2243L72.9086 10.511H73.9648L74.7575 13.1664C74.9492 13.814 75.1052 14.4374 75.2252 15.038H75.2609C75.3487 14.4532 75.4811 13.8297 75.6566 13.1664L76.3643 10.511L77.637 10.5098Z" fill="white"/>
<path d="M84.3548 16.1948H83.0586V12.9387C83.0586 11.9354 82.6676 11.4337 81.8835 11.4337C81.4988 11.4337 81.1885 11.5712 80.9473 11.8474C80.7086 12.1235 80.5874 12.4491 80.5874 12.8218V16.1936H79.2911V12.1344C79.2911 11.6351 79.2751 11.0937 79.2441 10.5076H80.3832L80.4439 11.3964H80.4797C80.6307 11.1202 80.8558 10.8923 81.1513 10.7102C81.5026 10.498 81.8959 10.3906 82.3264 10.3906C82.8706 10.3906 83.3232 10.5619 83.6832 10.9056C84.1309 11.3264 84.3548 11.9547 84.3548 12.7892V16.1948Z" fill="white"/>
<path d="M87.9297 16.1955H86.6348V7.90234H87.9297V16.1955Z" fill="white"/>
<path d="M95.5591 13.3056C95.5591 14.1799 95.3031 14.8963 94.791 15.4581C94.2543 16.0359 93.5419 16.3241 92.655 16.3241C91.7979 16.3241 91.1164 16.0478 90.6092 15.4932C90.1022 14.9397 89.8486 14.2414 89.8486 13.3997C89.8486 12.5194 90.1095 11.797 90.6341 11.2363C91.1585 10.6755 91.8634 10.3945 92.7503 10.3945C93.6074 10.3945 94.2938 10.6707 94.8157 11.2242C95.3106 11.762 95.5591 12.4567 95.5591 13.3056ZM94.2134 13.3466C94.2134 12.8221 94.0972 12.3722 93.8659 11.9972C93.5951 11.5438 93.2067 11.3171 92.7046 11.3171C92.1826 11.3171 91.7868 11.5438 91.5159 11.9972C91.2834 12.3722 91.1684 12.8293 91.1684 13.3695C91.1684 13.8941 91.2846 14.3439 91.5159 14.719C91.7967 15.1724 92.1875 15.3991 92.6921 15.3991C93.1869 15.3991 93.574 15.1687 93.8536 14.7069C94.0946 14.3246 94.2134 13.8712 94.2134 13.3466Z" fill="white"/>
<path d="M101.831 16.195H100.668L100.571 15.5401H100.535C100.137 16.0624 99.5693 16.3241 98.8322 16.3241C98.2818 16.3241 97.8365 16.1515 97.5013 15.809C97.1971 15.498 97.0449 15.1109 97.0449 14.6514C97.0449 13.9569 97.3418 13.4274 97.9393 13.0608C98.5353 12.6942 99.374 12.5145 100.454 12.523V12.4169C100.454 11.668 100.05 11.2942 99.2429 11.2942C98.6677 11.2942 98.1607 11.4352 97.7227 11.715L97.4594 10.8853C98.001 10.5585 98.6701 10.3945 99.4593 10.3945C100.983 10.3945 101.747 11.1784 101.747 12.7461V14.8395C101.747 15.4075 101.776 15.8598 101.831 16.195ZM100.486 14.2414V13.3647C99.0561 13.3406 98.3412 13.7228 98.3412 14.5103C98.3412 14.8069 98.4228 15.0289 98.5898 15.1773C98.7567 15.3255 98.9695 15.3991 99.223 15.3991C99.5076 15.3991 99.7734 15.3111 100.016 15.1363C100.26 14.9602 100.409 14.737 100.465 14.4633C100.478 14.4019 100.486 14.3271 100.486 14.2414Z" fill="white"/>
<path d="M109.202 16.1955H108.052L107.992 15.2826H107.956C107.588 15.9772 106.963 16.3244 106.083 16.3244C105.381 16.3244 104.796 16.0555 104.332 15.5177C103.868 14.9798 103.637 14.2817 103.637 13.4242C103.637 12.5041 103.888 11.7589 104.392 11.1897C104.881 10.6591 105.48 10.3938 106.192 10.3938C106.975 10.3938 107.523 10.6506 107.835 11.1656H107.859V7.90234H109.157V14.6639C109.157 15.2174 109.172 15.7275 109.202 16.1955ZM107.859 13.7981V12.8502C107.859 12.6862 107.847 12.5536 107.823 12.4523C107.75 12.1484 107.593 11.8927 107.355 11.6865C107.113 11.4803 106.823 11.3766 106.488 11.3766C106.004 11.3766 105.626 11.5635 105.347 11.9386C105.071 12.3136 104.932 12.7923 104.932 13.3772C104.932 13.9392 105.064 14.395 105.33 14.7459C105.611 15.1198 105.989 15.3067 106.463 15.3067C106.888 15.3067 107.229 15.1511 107.487 14.8388C107.737 14.5506 107.859 14.2032 107.859 13.7981Z" fill="white"/>
<path d="M120.276 13.3056C120.276 14.1799 120.02 14.8963 119.508 15.4581C118.971 16.0359 118.261 16.3241 117.372 16.3241C116.517 16.3241 115.836 16.0478 115.326 15.4932C114.819 14.9397 114.565 14.2414 114.565 13.3997C114.565 12.5194 114.826 11.797 115.351 11.2363C115.875 10.6755 116.58 10.3945 117.47 10.3945C118.324 10.3945 119.013 10.6707 119.533 11.2242C120.027 11.762 120.276 12.4567 120.276 13.3056ZM118.933 13.3466C118.933 12.8221 118.816 12.3722 118.585 11.9972C118.312 11.5438 117.926 11.3171 117.421 11.3171C116.902 11.3171 116.506 11.5438 116.233 11.9972C116 12.3722 115.885 12.8293 115.885 13.3695C115.885 13.8941 116.001 14.3439 116.233 14.719C116.513 15.1724 116.904 15.3991 117.409 15.3991C117.904 15.3991 118.293 15.1687 118.573 14.7069C118.812 14.3246 118.933 13.8712 118.933 13.3466Z" fill="white"/>
<path d="M127.252 16.1948H125.957V12.9387C125.957 11.9354 125.566 11.4337 124.781 11.4337C124.396 11.4337 124.086 11.5712 123.846 11.8474C123.606 12.1235 123.486 12.4491 123.486 12.8218V16.1936H122.188V12.1344C122.188 11.6351 122.173 11.0937 122.143 10.5076H123.28L123.341 11.3964H123.377C123.529 11.1202 123.754 10.8923 124.049 10.7102C124.401 10.498 124.793 10.3906 125.225 10.3906C125.768 10.3906 126.22 10.5619 126.58 10.9056C127.029 11.3264 127.252 11.9547 127.252 12.7892V16.1948Z" fill="white"/>
<path d="M135.971 11.4581H134.544V14.2196C134.544 14.9216 134.797 15.2725 135.299 15.2725C135.532 15.2725 135.725 15.2531 135.876 15.2133L135.91 16.1721C135.654 16.266 135.318 16.3131 134.903 16.3131C134.391 16.3131 133.993 16.1612 133.705 15.8573C133.416 15.5534 133.272 15.0421 133.272 14.3245V11.4581H132.42V10.5115H133.272V9.46955L134.542 9.0957V10.5103H135.97L135.971 11.4581Z" fill="white"/>
<path d="M142.839 16.1955H141.541V12.9636C141.541 11.9446 141.152 11.4345 140.368 11.4345C139.767 11.4345 139.357 11.7299 139.132 12.3208C139.092 12.445 139.07 12.597 139.07 12.7755V16.1943H137.775V7.90234H139.07V11.3284H139.095C139.503 10.7049 140.089 10.3938 140.846 10.3938C141.384 10.3938 141.828 10.565 142.181 10.9087C142.619 11.3368 142.839 11.9735 142.839 12.8153V16.1955Z" fill="white"/>
<path d="M149.916 13.0848C149.916 13.3115 149.898 13.5021 149.867 13.6577H145.979C145.997 14.2196 146.183 14.6477 146.542 14.9443C146.871 15.2096 147.296 15.3424 147.816 15.3424C148.39 15.3424 148.915 15.253 149.388 15.0734L149.59 15.9513C149.037 16.1852 148.386 16.3022 147.634 16.3022C146.73 16.3022 146.02 16.043 145.505 15.5244C144.988 15.0058 144.731 14.31 144.731 13.4369C144.731 12.5795 144.97 11.8656 145.451 11.2964C145.953 10.6887 146.633 10.3848 147.49 10.3848C148.329 10.3848 148.966 10.6887 149.396 11.2964C149.743 11.7788 149.916 12.3757 149.916 13.0848ZM148.678 12.758C148.689 12.383 148.603 12.0598 148.428 11.7872C148.203 11.4363 147.859 11.2603 147.396 11.2603C146.973 11.2603 146.628 11.4315 146.365 11.7752C146.149 12.0489 146.021 12.3757 145.979 12.758H148.678Z" fill="white"/>
</g>
</g>
<defs>
<clipPath id="clip0_4522_4391">
<rect width="166.973" height="48.8703" fill="white"/>
</clipPath>
</defs>
</svg>
