<svg xmlns="http://www.w3.org/2000/svg" width="172" height="53" fill="none"><path fill="url(#a)" d="M35.85.74c-1.477 0-2.811.196-3.99.6v6.211a5.8 5.8 0 0 1 1.022-.982c.79-.585 1.782-.883 2.968-.883 1.187 0 2.202.296 2.995.883q.718.53 1.211 1.246v-6.4C38.826.96 37.426.739 35.85.739"/><path fill="#000" d="M47.05 11.766c0 1.378-.23 2.73-.7 4.049a10.6 10.6 0 0 1-2.104 3.563c-.94 1.055-2.111 1.896-3.514 2.532q-2.09.94-4.883.94c-1.864 0-3.498-.312-4.89-.94-1.394-.636-2.565-1.477-3.49-2.532a10.85 10.85 0 0 1-2.11-3.563 11.8 11.8 0 0 1-.717-4.049c0-1.376.238-2.721.717-4.025.47-1.311 1.179-2.49 2.11-3.538.925-1.047 2.096-1.889 3.49-2.516a8 8 0 0 1 .899-.346v6.21a5.9 5.9 0 0 0-.768 1.302 7.4 7.4 0 0 0-.601 2.912c0 1.005.206 1.986.601 2.927q.592 1.41 1.79 2.3c.791.586 1.782.884 2.969.884s2.202-.297 2.994-.883a5.43 5.43 0 0 0 1.79-2.301q.593-1.408.594-2.927a7.3 7.3 0 0 0-.594-2.912 5.2 5.2 0 0 0-.578-1.038v-6.4c.231.083.462.173.675.272 1.404.627 2.574 1.469 3.515 2.516a10.5 10.5 0 0 1 2.103 3.538c.47 1.304.701 2.647.701 4.025z"/><path fill="url(#b)" d="M55.258 22.562v-8.125h-5.584v8.124z"/><path fill="#000" d="M55.258 1.028h-5.584v13.41h5.584z"/><path fill="url(#c)" d="M71.95 1.028v11.959l-.017-.025v9.114l.338.486h5.205V1.027H71.95z"/><path fill="#000" d="M71.933 12.962v9.114l-7.546-10.862v11.348h-5.534V1.028h5.154z"/><path fill="url(#d)" d="M80.867 1.028v9.477h5.583V5.862h10.014V1.03H80.867z"/><path fill="#000" d="M95.151 10.513v4.627h-8.7v7.422h-5.584V10.504h5.583v.009z"/><path fill="url(#e)" d="M99.81 1.028v21.535h5.584V1.028z"/><path fill="#000" d="M115.556 17.729h-10.162v4.833h10.162zM114.095 9.35h-8.701v4.603h8.701zM115.407 1.028h-10.013v4.833h10.013z"/><path fill="url(#f)" d="M135.308 5.704c-.189-.52-.486-1.057-.874-1.617a7.6 7.6 0 0 0-1.542-1.616c-.636-.511-1.443-.932-2.409-1.253q-1.458-.481-3.521-.479c-1.765 0-3.291.29-4.569.874-1.288.578-2.269 1.386-2.953 2.417q-.992 1.475-1.031 3.406h5.477c-.009-.05-.009-.1-.009-.149 0-.312.09-.619.273-.931.182-.313.494-.57.932-.784q.655-.322 1.757-.322c.783 0 1.394.107 1.856.33.453.223.8.48 1.031.76s.412.642.553 1.088h5.5a9.4 9.4 0 0 0-.471-1.723z"/><path fill="#000" d="M136.388 15.93c0 1.337-.354 2.532-1.047 3.58-.701 1.047-1.707 1.863-3.027 2.457-1.32.595-2.927.883-4.833.883q-2.24 0-3.826-.52c-1.055-.346-1.931-.79-2.615-1.336a7.6 7.6 0 0 1-1.649-1.748c-.404-.62-.71-1.204-.899-1.748-.199-.544-.347-1.163-.471-1.864h5.65c.157.545.363.999.627 1.362.263.354.659.668 1.204.94q.814.41 2.211.412 1.719-.002 2.4-.66c.462-.438.684-.907.684-1.411 0-.462-.164-.841-.504-1.121-.346-.28-.932-.486-1.764-.627l-2.879-.462a15.8 15.8 0 0 1-3.521-1.023c-1.105-.462-2.005-1.13-2.689-2.004q-1.04-1.313-1.04-3.431c0-.058 0-.116.009-.173h5.477q.062.728.791 1.088c.527.264 1.188.463 1.963.595l3.027.494c1.204.197 2.309.537 3.332 1.032 1.014.494 1.838 1.179 2.457 2.037q.931 1.296.932 3.248"/><path fill="url(#g)" d="M144.084 1.028v4.833h.017v16.7h5.583V1.028h-5.6z"/><path fill="#000" d="M156.209 1.028h-6.524v4.833h6.524zM144.084 1.028h-6.508v4.833h6.508z"/><path fill="url(#h)" d="M16.262 14.612q-.299.964-.758 1.609c-.296.42-.768.79-1.385 1.114-.627.33-1.452.486-2.483.486q-1.819 0-3.043-.941a5.7 5.7 0 0 1-1.831-2.384 4 4 0 0 1-.149-.395H.42q.174.792.446 1.574A11.3 11.3 0 0 0 3.01 19.38c.949 1.096 2.137 1.98 3.57 2.631 1.436.66 3.102.981 4.99.981 1.617 0 3.003-.198 4.149-.601 1.155-.405 2.11-.925 2.878-1.559q1.151-.953 1.831-2.028a10.4 10.4 0 0 0 1.022-2.02c.215-.588.396-1.254.528-1.997.007-.057.025-.115.032-.173h-5.748z"/><path fill="#000" d="M22.012 8.376h-5.748q-.3-.963-.759-1.616c-.296-.43-.767-.809-1.385-1.129-.627-.33-1.452-.487-2.483-.487-1.212 0-2.227.305-3.043.924a5.6 5.6 0 0 0-1.831 2.375 7.7 7.7 0 0 0-.602 3.027c0 .906.149 1.78.454 2.63H.42c-.19-.866-.28-1.747-.28-2.63 0-1.436.238-2.83.726-4.19a11.1 11.1 0 0 1 2.145-3.678q1.42-1.634 3.57-2.623Q8.737 0 11.572 0c1.616 0 3.003.205 4.148.61 1.156.404 2.111.915 2.879 1.558q1.15.956 1.83 2.021a10.7 10.7 0 0 1 1.023 2.028 13 13 0 0 1 .561 2.162z"/><path fill="url(#i)" d="M52.566 52.03v-8.14h-5.594v8.14z"/><path fill="#000" d="M52.566 30.455h-5.594V43.89h5.594z"/><path fill="url(#j)" d="M41.209 35.422c-.18-.496-.465-1.009-.836-1.545a7.3 7.3 0 0 0-1.474-1.545c-.607-.49-1.379-.89-2.3-1.199q-1.393-.46-3.366-.458c-1.686 0-3.145.276-4.366.836-1.23.551-2.168 1.324-2.821 2.31-.631.937-.962 2.025-.985 3.254h5.232q-.009-.071-.007-.142c0-.3.086-.591.26-.89s.473-.544.891-.748q.627-.307 1.679-.307c.748 0 1.331.102 1.773.315q.652.323.985.725.328.402.529 1.04h5.256a9 9 0 0 0-.449-1.648z"/><path fill="#000" d="M42.242 45.196c0 1.277-.34 2.419-1.002 3.42-.67 1-1.631 1.781-2.892 2.349-1.26.567-2.797.842-4.618.842q-2.14 0-3.656-.496-1.515-.496-2.498-1.277A7.3 7.3 0 0 1 26 48.364c-.387-.592-.677-1.152-.86-1.672-.189-.52-.33-1.111-.448-1.78h5.398q.223.78.599 1.3c.252.34.63.638 1.151.9.52.26 1.22.393 2.113.393 1.096 0 1.86-.213 2.293-.63.441-.419.655-.867.655-1.349 0-.441-.157-.804-.482-1.071q-.494-.4-1.686-.599l-2.75-.441a15 15 0 0 1-3.367-.978c-1.056-.441-1.915-1.08-2.568-1.915q-.994-1.255-.993-3.279-.002-.083.007-.166h5.233q.058.698.757 1.04c.504.252 1.135.442 1.875.568l2.892.472c1.151.19 2.206.513 3.184.985.969.473 1.757 1.128 2.348 1.947q.888 1.239.89 3.105zM14.864 30.455h-2.077l-1.669 5.274 2.461 7.905H8.62l-1.512 4.782h7.96l1.137 3.615h5.832q-3.587-10.788-7.172-21.575z"/><path fill="url(#k)" d="m8.594 43.632 2.508-7.96.018.055 1.668-5.274H7.313L.14 52.028h5.83l1.137-3.615 1.513-4.782h-.025z"/><path fill="#000" d="M71.222 30.455h-2.077l-1.668 5.274 2.46 7.905h-4.96l-1.512 4.782h7.96l1.138 3.615h5.831q-3.585-10.788-7.172-21.575z"/><path fill="url(#l)" d="m64.954 43.632 2.508-7.96.018.055 1.668-5.274h-5.475L56.5 52.028h5.83l1.137-3.615 1.513-4.782h-.025z"/><path fill="#000" d="M91.729 52.03v-3.75l3.006-2.347a1284 1284 0 0 1 4.25-3.321q1.731-1.345 2.62-2.433.887-1.087.887-2.318c0-.821-.292-1.502-.873-1.932q-.873-.645-1.875-.645-1.089.001-1.962.744-.873.745-.872 2.319h-5.267q0-1.975.688-3.45.686-1.472 1.86-2.432a8 8 0 0 1 2.662-1.43 10.1 10.1 0 0 1 3.092-.474q2.26 0 4.08.86 1.819.86 2.892 2.404 1.074 1.547 1.074 3.636 0 1.947-.958 3.55-.959 1.602-2.72 3.106-1.76 1.504-4.223 3.191h8.101v4.723h-16.46zM135.064 51.997V48.24l3.01-2.351q2.523-1.979 4.259-3.326 1.735-1.347 2.624-2.437.89-1.089.889-2.323c0-.822-.292-1.505-.874-1.936q-.875-.645-1.879-.646-1.09 0-1.964.745-.875.745-.874 2.323h-5.277q0-1.978.689-3.456t1.863-2.438a8 8 0 0 1 2.667-1.434 10.2 10.2 0 0 1 3.096-.472q2.266 0 4.086.86t2.897 2.41q1.075 1.548 1.075 3.64 0 1.953-.96 3.556-.96 1.608-2.724 3.111-1.765 1.507-4.23 3.198h8.116v4.731h-16.489zM162.976 52.015q-2.366 0-4.234-.842-1.866-.84-2.951-2.394t-1.141-3.692h5.074q.2.769.513 1.283t.926.898q.613.385 1.668.385 1.596 0 2.381-.94.784-.941.784-2.082 0-1.14-.771-2.082-.77-.94-2.338-.94-1.025 0-1.61.385-.584.385-1.04 1.184h-5.416l1.995-12.544h13.143v4.732h-9.552l-.656 3.99h.142q.428-.512.926-.869.499-.355 1.34-.613.84-.256 2.066-.257 2.28 0 3.877.984 1.595.985 2.424 2.551a7.1 7.1 0 0 1 .827 3.365 7.5 7.5 0 0 1-.513 2.708 7.1 7.1 0 0 1-1.567 2.424q-1.056 1.084-2.623 1.724-1.569.642-3.677.642z"/><path fill="url(#m)" d="M121.837 51.997c6.077 0 11.003-4.926 11.003-11.003s-4.926-11.003-11.003-11.003-11.003 4.926-11.003 11.003 4.926 11.003 11.003 11.003"/><defs><linearGradient id="a" x1="35.959" x2="35.959" y1="7.815" y2=".739" gradientUnits="userSpaceOnUse"><stop/><stop offset=".84" stop-opacity="0"/></linearGradient><linearGradient id="b" x1="55.256" x2="49.673" y1="18.501" y2="18.501" gradientUnits="userSpaceOnUse"><stop/><stop offset=".84" stop-opacity="0"/></linearGradient><linearGradient id="c" x1="74.705" x2="74.705" y1="1.028" y2="22.562" gradientUnits="userSpaceOnUse"><stop/><stop offset=".84" stop-opacity="0"/></linearGradient><linearGradient id="d" x1="80.867" x2="96.462" y1="5.766" y2="5.766" gradientUnits="userSpaceOnUse"><stop stop-opacity="0"/><stop offset=".12" stop-opacity=".09"/><stop offset="1"/></linearGradient><linearGradient id="e" x1="102.603" x2="102.603" y1="1.028" y2="22.562" gradientUnits="userSpaceOnUse"><stop stop-opacity="0"/><stop offset=".9" stop-opacity=".97"/><stop offset="1"/></linearGradient><linearGradient id="f" x1="118.409" x2="135.779" y1="4.087" y2="4.087" gradientUnits="userSpaceOnUse"><stop stop-opacity="0"/><stop offset=".9" stop-opacity=".97"/><stop offset="1"/></linearGradient><linearGradient id="g" x1="146.884" x2="146.884" y1="1.028" y2="22.562" gradientUnits="userSpaceOnUse"><stop stop-opacity="0"/><stop offset=".9" stop-opacity=".97"/><stop offset="1"/></linearGradient><linearGradient id="h" x1="22.012" x2=".419" y1="18.545" y2="18.545" gradientUnits="userSpaceOnUse"><stop/><stop offset=".84" stop-opacity="0"/></linearGradient><linearGradient id="i" x1="52.565" x2="46.97" y1="47.961" y2="47.961" gradientUnits="userSpaceOnUse"><stop/><stop offset=".84" stop-opacity="0"/></linearGradient><linearGradient id="j" x1="25.061" x2="41.658" y1="33.878" y2="33.878" gradientUnits="userSpaceOnUse"><stop stop-opacity="0"/><stop offset=".9" stop-opacity=".97"/><stop offset="1"/></linearGradient><linearGradient id="k" x1="6.464" x2="6.464" y1="52.029" y2="30.455" gradientUnits="userSpaceOnUse"><stop/><stop offset=".84" stop-opacity="0"/></linearGradient><linearGradient id="l" x1="62.822" x2="62.822" y1="52.029" y2="30.455" gradientUnits="userSpaceOnUse"><stop/><stop offset=".84" stop-opacity="0"/></linearGradient><linearGradient id="m" x1="115.384" x2="128.355" y1="32.15" y2="49.931" gradientUnits="userSpaceOnUse"><stop/><stop offset=".31" stop-opacity=".97"/><stop offset="1" stop-opacity="0"/></linearGradient></defs></svg>