<svg width="182" height="62" viewBox="0 0 182 62" fill="none" xmlns="http://www.w3.org/2000/svg">
<g clip-path="url(#clip0_3360_61282)">
<path d="M60.1992 60.2832V50.6875H53.6914V60.2832H60.1992Z" fill="url(#paint0_linear_3360_61282)"/>
<path d="M60.1992 34.8516H53.6914V50.6895H60.1992V34.8516Z" fill="url(#paint1_linear_3360_61282)"/>
<path d="M47.774 40.3543C47.506 39.6759 47.1806 39.0361 46.7595 38.4352C46.2618 37.718 45.6493 37.0782 44.9603 36.5355C44.1181 35.8763 43.1611 35.3723 42.1466 35.0622C41.0173 34.6744 39.6392 34.5 38.0505 34.5C35.9833 34.5 34.2223 34.8489 32.7293 35.5274C31.3321 36.1283 30.1453 37.117 29.284 38.377C28.4993 39.5789 28.0781 40.9747 28.0781 42.4092H34.4712C34.4712 42.3511 34.4712 42.2929 34.4712 42.2347C34.4712 41.847 34.586 41.4593 34.7966 41.1298C35.0645 40.7227 35.4473 40.3932 35.8875 40.1992C36.4043 39.9473 37.0743 39.8116 37.9356 39.8116C38.8544 39.8116 39.5626 39.9278 40.0985 40.1992C40.5579 40.4125 40.9599 40.7227 41.3044 41.091C41.5915 41.4787 41.8212 41.9246 41.9361 42.3898H48.3483C48.1951 41.7113 48.0037 41.0135 47.774 40.3543Z" fill="url(#paint2_linear_3360_61282)"/>
<path d="M49.0166 52.4363C49.0358 53.929 48.6146 55.4023 47.7916 56.6623C46.9685 57.9031 45.8009 58.8723 44.2697 59.5702C42.7385 60.2681 40.8626 60.617 38.6422 60.617C36.9005 60.617 35.4075 60.4037 34.1825 59.9967C33.0723 59.6671 32.0579 59.1243 31.1391 58.4264C30.3926 57.8448 29.7418 57.147 29.2251 56.3715C28.8039 55.7319 28.4402 55.0339 28.1723 54.2973C27.9235 53.5801 27.7512 52.8435 27.6172 52.0874H34.2016C34.3547 52.669 34.6036 53.2117 34.9289 53.6964C35.3117 54.1811 35.7903 54.5493 36.3263 54.8014C36.9579 55.1309 37.8192 55.286 38.9103 55.286C40.2501 55.286 41.188 55.0146 41.7048 54.5106C42.2216 54.0066 42.5087 53.4444 42.5087 52.8435C42.5278 52.3394 42.3173 51.8354 41.9153 51.5252C41.5134 51.1957 40.8243 50.9437 39.8482 50.7886L36.4985 50.2458C35.0821 50.0132 33.704 49.6061 32.3833 49.0439C31.1583 48.5399 30.0672 47.7257 29.2442 46.6789C28.4402 45.6514 28.0383 44.2945 28.0383 42.6273C28.0383 42.5498 28.0383 42.4916 28.0383 42.4141H34.4313C34.4696 42.9762 34.8333 43.4803 35.3501 43.6935C36.0775 44.0425 36.8431 44.2751 37.647 44.3914L41.1689 44.973C42.5087 45.1862 43.8294 45.5933 45.0544 46.1942C46.2029 46.7371 47.179 47.5706 47.9256 48.598C48.6529 49.6255 49.0166 50.9049 49.0166 52.4363Z" fill="url(#paint3_linear_3360_61282)"/>
<path d="M8.3454 34.875L0 60.3086H6.77584L8.09656 56.0438L9.83837 50.422L11.7716 44.1799L12.7478 41.0201L14.6427 34.875H8.3454Z" fill="url(#paint4_linear_3360_61282)"/>
<path d="M25.4779 60.3086H18.7021L17.3813 56.0438H8.11719L9.85899 50.422H15.6395L12.7492 41.0201L14.6634 34.875H17.1325L25.4779 60.3086Z" fill="url(#paint5_linear_3360_61282)"/>
<path d="M72.6345 34.875L64.2891 60.3086H71.0649L72.3856 56.0438L74.1274 50.422L76.0606 44.1799L77.0368 41.0201L78.9318 34.875H72.6345Z" fill="url(#paint6_linear_3360_61282)"/>
<path d="M89.7669 60.3086H82.9911L81.6512 56.0438H72.4062L74.1481 50.422H79.9286L77.0384 41.0201L78.9333 34.875H81.4215L89.7669 60.3086Z" fill="url(#paint7_linear_3360_61282)"/>
<path d="M41.62 0.876118C40.0313 0.856733 38.4618 1.08936 36.9688 1.574V8.92105C37.3133 8.49458 37.7153 8.08748 38.1555 7.75793C39.0743 7.06006 40.2418 6.71112 41.62 6.71112C43.0173 6.71112 44.1848 7.06006 45.1036 7.75793C45.6587 8.16502 46.1372 8.66904 46.52 9.23122V1.67092C44.9505 1.10874 43.2853 0.856733 41.62 0.876118Z" fill="url(#paint8_linear_3360_61282)"/>
<path d="M54.6732 13.8957C54.6732 15.524 54.4052 17.1524 53.8502 18.6838C53.3142 20.2347 52.4912 21.6692 51.4002 22.8904C50.2517 24.1699 48.8544 25.1974 47.304 25.8758C45.6771 26.6124 43.7821 26.9808 41.6001 26.9808C39.418 26.9808 37.5231 26.6124 35.8961 25.8758C34.3457 25.178 32.9484 24.1699 31.8191 22.8904C30.7472 21.6692 29.9051 20.2347 29.35 18.6838C28.7949 17.1524 28.5078 15.524 28.5078 13.8957C28.5078 12.2673 28.7949 10.6583 29.35 9.14624C29.9051 7.59541 30.7281 6.18028 31.8191 4.95899C32.9484 3.67955 34.3457 2.67152 35.877 1.99303C36.2215 1.83795 36.5661 1.70225 36.9298 1.58594V8.91361C36.5661 9.37887 36.2598 9.90227 36.0301 10.4451C35.0922 12.655 35.0922 15.1363 36.0301 17.3463C36.4703 18.4318 37.1977 19.3624 38.1164 20.0602C39.0352 20.7581 40.2028 21.107 41.5809 21.107C42.959 21.107 44.1458 20.7581 45.0646 20.0602C45.9834 19.3624 46.7106 18.4318 47.1509 17.3463C48.0697 15.1363 48.0697 12.655 47.1509 10.4451C46.9786 10.0186 46.749 9.59211 46.4809 9.22378V1.66348C46.749 1.7604 47.0169 1.85733 47.2657 1.99303C48.8162 2.67152 50.2134 3.69895 51.3619 4.95899C52.4528 6.18028 53.2759 7.59541 53.8119 9.14624C54.4052 10.6777 54.6732 12.2673 54.6732 13.8957Z" fill="url(#paint9_linear_3360_61282)"/>
<path d="M64.2422 26.6582V17.0625H57.7344V26.6582H64.2422Z" fill="url(#paint10_linear_3360_61282)"/>
<path d="M64.2422 1.21875H57.7344V17.0567H64.2422V1.21875Z" fill="url(#paint11_linear_3360_61282)"/>
<path d="M83.7066 1.21875V15.3507L83.6875 15.3313V26.0902L84.0894 26.6718H90.1571V1.21875H83.7066Z" fill="url(#paint12_linear_3360_61282)"/>
<path d="M83.6888 15.3119V26.0708L74.884 13.2377V26.6524H68.4336V1.21875H74.4437L83.6888 15.3119Z" fill="url(#paint13_linear_3360_61282)"/>
<path d="M94.1016 1.21875V12.4041H100.609V6.91805H112.285V1.21875H94.1016Z" fill="url(#paint14_linear_3360_61282)"/>
<path d="M110.754 12.4257V17.8923H100.609V26.6545H94.1016V12.4062H100.609V12.4257H110.754Z" fill="url(#paint15_linear_3360_61282)"/>
<path d="M116.191 1.21875V26.6524H122.699V1.21875H116.191Z" fill="url(#paint16_linear_3360_61282)"/>
<path d="M134.563 20.9375H122.715V26.6368H134.563V20.9375Z" fill="url(#paint17_linear_3360_61282)"/>
<path d="M132.859 11.0469H122.715V16.4748H132.859V11.0469Z" fill="url(#paint18_linear_3360_61282)"/>
<path d="M134.39 1.21875H122.715V6.91805H134.39V1.21875Z" fill="url(#paint19_linear_3360_61282)"/>
<path d="M157.59 6.74501C157.341 6.06652 156.997 5.4268 156.576 4.84524C155.446 3.23625 153.839 2.03436 151.982 1.4528C150.853 1.06509 149.475 0.890625 147.867 0.890625C145.799 0.890625 144.039 1.23956 142.546 1.91805C141.052 2.59654 139.905 3.56581 139.101 4.7677C138.315 5.95022 137.895 7.34596 137.895 8.78048H144.288C144.288 8.72233 144.288 8.66417 144.288 8.60601C144.288 8.2183 144.402 7.83059 144.613 7.50104C144.881 7.09394 145.264 6.76439 145.704 6.57054C146.221 6.31853 146.89 6.18283 147.752 6.18283C148.671 6.18283 149.379 6.31853 149.915 6.57054C150.375 6.78379 150.776 7.09395 151.121 7.46227C151.408 7.84998 151.638 8.27646 151.771 8.74171H158.183C158.031 8.06322 157.839 7.38473 157.59 6.74501Z" fill="url(#paint20_linear_3360_61282)"/>
<path d="M158.852 18.8232C158.871 20.3159 158.45 21.7892 157.627 23.0492C156.803 24.2898 155.636 25.2398 154.105 25.957C152.574 26.6548 150.697 27.0038 148.459 27.0038C146.717 27.0038 145.223 26.7905 143.999 26.3834C142.889 26.0539 141.873 25.5112 140.955 24.8133C140.208 24.2317 139.558 23.5338 139.041 22.7584C138.62 22.1187 138.257 21.4208 137.989 20.6841C137.739 19.9669 137.567 19.2302 137.434 18.4742H144.018C144.171 19.0558 144.419 19.5986 144.745 20.0832C145.128 20.5678 145.606 20.9362 146.142 21.1882C146.774 21.5178 147.636 21.6728 148.727 21.6728C150.066 21.6728 151.004 21.4208 151.52 20.8974C152.056 20.374 152.324 19.8312 152.324 19.2302C152.343 18.7262 152.133 18.2223 151.732 17.9121C151.329 17.5825 150.641 17.3305 149.664 17.1755L146.314 16.6326C144.898 16.4 143.519 15.9929 142.199 15.4307C140.975 14.9267 139.884 14.1125 139.06 13.0657C138.257 12.0383 137.854 10.6813 137.854 9.01416C137.854 8.956 137.854 8.87846 137.854 8.82031H144.286C144.324 9.38249 144.687 9.88651 145.204 10.0997C145.932 10.4486 146.697 10.6813 147.501 10.7976L151.023 11.3792C152.363 11.5924 153.684 11.9995 154.909 12.6005C156.057 13.1432 157.033 13.9768 157.78 15.0042C158.488 16.0123 158.852 17.2917 158.852 18.8232Z" fill="url(#paint21_linear_3360_61282)"/>
<path d="M167.832 1.21875V6.91805H167.851V26.633H174.359V1.21875H167.832Z" fill="url(#paint22_linear_3360_61282)"/>
<path d="M181.959 1.21875H174.359V6.91805H181.959V1.21875Z" fill="url(#paint23_linear_3360_61282)"/>
<path d="M167.807 1.21875H160.227V6.91805H167.807V1.21875Z" fill="url(#paint24_linear_3360_61282)"/>
<path d="M18.7842 17.2534C18.5928 17.9319 18.2865 18.5717 17.9037 19.1531C17.4826 19.7153 16.9275 20.1612 16.2958 20.4713C15.5685 20.8591 14.5923 21.0529 13.4056 21.0529C11.9892 21.0529 10.8024 20.6846 9.86453 19.948C8.9075 19.2113 8.18014 18.242 7.7399 17.1371C7.68248 16.982 7.60592 16.8269 7.56763 16.6719H0.351562C0.485548 17.2922 0.657815 17.9125 0.868364 18.5328C1.42344 20.1418 2.26564 21.6151 3.37581 22.914C4.52426 24.2516 5.94067 25.2984 7.52935 26.0156C9.1946 26.791 11.1469 27.1787 13.3481 27.1787C15.243 27.1787 16.8509 26.9461 18.1907 26.4615C19.4158 26.0544 20.5451 25.4341 21.5404 24.6198C22.3826 23.9414 23.0908 23.1272 23.665 22.2161C24.1436 21.46 24.5455 20.6653 24.8517 19.8317C25.1198 19.0563 25.3303 18.2809 25.4834 17.4666C25.4834 17.3891 25.5026 17.3309 25.5217 17.2728L18.7842 17.2534Z" fill="url(#paint25_linear_3360_61282)"/>
<path d="M25.4822 9.90594H18.783C18.5916 9.22745 18.2853 8.58773 17.9025 8.00617C17.4814 7.44399 16.9263 6.97874 16.2947 6.66857C15.5674 6.28086 14.5911 6.08701 13.4044 6.08701C11.988 6.08701 10.8013 6.45534 9.86339 7.17259C8.90635 7.88985 8.179 8.85912 7.73876 9.98348C6.85828 12.1158 6.80086 14.5002 7.5665 16.6714H0.331283C-0.242941 13.9962 -0.0706742 11.1854 0.848083 8.60711C1.40317 7.01751 2.24536 5.54423 3.35552 4.26479C4.50397 2.94658 5.92039 1.88038 7.50908 1.16312C9.17433 0.387707 11.1267 0 13.3279 0C15.2228 0 16.8307 0.252009 18.1705 0.717259C19.3955 1.12436 20.5248 1.74468 21.5201 2.55887C22.3432 3.23736 23.0705 4.05154 23.6447 4.94327C24.1233 5.69931 24.5252 6.4941 24.8315 7.34706C25.1186 8.16124 25.3291 9.01421 25.4822 9.90594Z" fill="url(#paint26_linear_3360_61282)"/>
<path d="M100.293 44.9868V35.2188H104.557C105.181 35.2188 105.714 35.3288 106.154 35.5488C106.594 35.7687 106.929 36.0635 107.157 36.4332C107.395 36.8028 107.513 37.2075 107.513 37.6475C107.513 38.0964 107.43 38.4659 107.262 38.7563C107.105 39.0467 106.91 39.2755 106.682 39.4428C106.462 39.6012 106.259 39.7111 106.074 39.7728V39.8652C106.304 39.9268 106.559 40.0456 106.841 40.2215C107.131 40.3976 107.382 40.6484 107.593 40.974C107.804 41.2908 107.909 41.7044 107.909 42.2147C107.909 42.6724 107.799 43.1167 107.58 43.548C107.359 43.9704 107.012 44.3179 106.536 44.5908C106.061 44.8548 105.432 44.9868 104.649 44.9868H100.293ZM104.319 36.7367H102.088V39.2843H104.319C104.83 39.2843 105.199 39.1567 105.428 38.9015C105.657 38.6463 105.771 38.3471 105.771 38.004C105.771 37.6696 105.657 37.3747 105.428 37.1195C105.199 36.8643 104.83 36.7367 104.319 36.7367ZM104.451 40.6572H102.088V43.4688H104.451C105.032 43.4688 105.454 43.328 105.718 43.0464C105.982 42.7648 106.115 42.4347 106.115 42.0564C106.115 41.6867 105.982 41.3612 105.718 41.0796C105.454 40.798 105.032 40.6572 104.451 40.6572ZM109.673 47.5608C109.444 47.5608 109.254 47.552 109.105 47.5344C108.964 47.5168 108.894 47.508 108.894 47.508V46.0692C108.894 46.0692 108.96 46.0736 109.091 46.0824C109.224 46.1 109.378 46.1088 109.554 46.1088C110.002 46.1088 110.373 46.034 110.663 45.8844C110.962 45.7436 111.213 45.4752 111.415 45.0792L108.788 37.9907H110.571L112.326 42.9803L114.055 37.9907H115.838L113.276 44.8152C112.925 45.748 112.472 46.4388 111.916 46.8876C111.362 47.3364 110.614 47.5608 109.673 47.5608ZM99.8047 56.5445C99.8047 55.6381 100.007 54.8285 100.412 54.1157C100.826 53.3941 101.385 52.8353 102.088 52.4393C102.801 52.0345 103.597 51.8321 104.478 51.8321C105.507 51.8321 106.409 52.0961 107.183 52.6241C107.958 53.1521 108.499 53.8825 108.807 54.8153H106.682C106.471 54.3754 106.171 54.0453 105.784 53.8253C105.406 53.6053 104.966 53.4953 104.465 53.4953C103.928 53.4953 103.447 53.6229 103.026 53.8781C102.612 54.1245 102.287 54.4766 102.049 54.9341C101.82 55.3917 101.705 55.9285 101.705 56.5445C101.705 57.1518 101.82 57.6886 102.049 58.155C102.287 58.6125 102.612 58.9689 103.026 59.2241C103.447 59.4706 103.928 59.5938 104.465 59.5938C104.966 59.5938 105.406 59.4838 105.784 59.2638C106.171 59.035 106.471 58.7006 106.682 58.2606H108.807C108.499 59.2022 107.958 59.937 107.183 60.465C106.418 60.9842 105.516 61.2437 104.478 61.2437C103.597 61.2437 102.801 61.0458 102.088 60.6498C101.385 60.245 100.826 59.6861 100.412 58.9734C100.007 58.2606 99.8047 57.451 99.8047 56.5445ZM113.632 61.2834C112.929 61.2834 112.296 61.1294 111.732 60.8214C111.169 60.5045 110.724 60.0601 110.399 59.4881C110.082 58.9162 109.924 58.2561 109.924 57.5082C109.924 56.7602 110.086 56.1001 110.412 55.5281C110.747 54.9561 111.2 54.5161 111.772 54.2081C112.343 53.8913 112.981 53.7329 113.686 53.7329C114.39 53.7329 115.028 53.8913 115.6 54.2081C116.171 54.5161 116.62 54.9561 116.946 55.5281C117.28 56.1001 117.447 56.7602 117.447 57.5082C117.447 58.2561 117.276 58.9162 116.933 59.4881C116.598 60.0601 116.141 60.5045 115.56 60.8214C114.988 61.1294 114.345 61.2834 113.632 61.2834ZM113.632 59.673C113.967 59.673 114.279 59.5938 114.57 59.4354C114.869 59.2681 115.107 59.0217 115.282 58.6961C115.458 58.3706 115.546 57.9745 115.546 57.5082C115.546 56.813 115.362 56.2805 114.992 55.9109C114.631 55.5326 114.187 55.3433 113.66 55.3433C113.131 55.3433 112.687 55.5326 112.326 55.9109C111.974 56.2805 111.798 56.813 111.798 57.5082C111.798 58.2033 111.97 58.7401 112.313 59.1186C112.665 59.4881 113.105 59.673 113.632 59.673ZM119.74 52.9805C119.415 52.9805 119.142 52.8793 118.922 52.6769C118.711 52.4657 118.605 52.2061 118.605 51.8981C118.605 51.5902 118.711 51.335 118.922 51.1325C119.142 50.9213 119.415 50.8157 119.74 50.8157C120.066 50.8157 120.334 50.9213 120.545 51.1325C120.766 51.335 120.876 51.5902 120.876 51.8981C120.876 52.2061 120.766 52.4657 120.545 52.6769C120.334 52.8793 120.066 52.9805 119.74 52.9805ZM120.651 53.8517V61.1646H118.803V53.8517H120.651ZM126.529 53.7461C127.401 53.7461 128.104 54.0233 128.641 54.5777C129.178 55.1234 129.447 55.8889 129.447 56.8745V61.1646H127.599V57.1254C127.599 56.5445 127.453 56.1001 127.163 55.7921C126.873 55.4753 126.476 55.3169 125.975 55.3169C125.464 55.3169 125.06 55.4753 124.761 55.7921C124.47 56.1001 124.325 56.5445 124.325 57.1254V61.1646H122.478V53.8517H124.325V54.7625C124.572 54.4457 124.884 54.1993 125.262 54.0233C125.649 53.8386 126.072 53.7461 126.529 53.7461ZM134.253 59.4618L136.101 53.8517H138.068L135.362 61.1646H133.118L130.425 53.8517H132.406L134.253 59.4618ZM145.904 57.3497C145.904 57.6137 145.887 57.8514 145.851 58.0626H140.506C140.549 58.5906 140.734 59.0041 141.06 59.3033C141.385 59.6026 141.786 59.7521 142.261 59.7521C142.947 59.7521 143.436 59.4574 143.726 58.8677H145.719C145.508 59.5718 145.103 60.1525 144.505 60.6102C143.906 61.059 143.172 61.2834 142.3 61.2834C141.597 61.2834 140.963 61.1294 140.399 60.8214C139.845 60.5045 139.41 60.0601 139.093 59.4881C138.785 58.9162 138.631 58.2561 138.631 57.5082C138.631 56.7514 138.785 56.087 139.093 55.515C139.401 54.9429 139.832 54.503 140.386 54.195C140.94 53.8869 141.578 53.7329 142.3 53.7329C142.996 53.7329 143.616 53.8825 144.162 54.1817C144.716 54.4809 145.143 54.9077 145.442 55.4621C145.75 56.0077 145.904 56.6369 145.904 57.3497ZM143.99 56.8217C143.981 56.3465 143.81 55.9682 143.475 55.6866C143.141 55.3962 142.732 55.251 142.248 55.251C141.79 55.251 141.403 55.3917 141.086 55.6733C140.778 55.9461 140.589 56.3289 140.519 56.8217H143.99ZM150.052 61.2834C149.453 61.2834 148.916 61.1778 148.441 60.9666C147.966 60.7466 147.587 60.4517 147.305 60.0822C147.033 59.7125 146.884 59.3033 146.857 58.8546H148.718C148.753 59.1362 148.89 59.3693 149.127 59.5542C149.374 59.739 149.677 59.8313 150.038 59.8313C150.39 59.8313 150.663 59.7609 150.856 59.6202C151.059 59.4793 151.16 59.299 151.16 59.0789C151.16 58.8413 151.037 58.6654 150.791 58.5509C150.553 58.4278 150.17 58.2957 149.642 58.155C149.097 58.0229 148.648 57.8865 148.296 57.7458C147.952 57.605 147.653 57.3894 147.398 57.099C147.152 56.8085 147.028 56.4169 147.028 55.9242C147.028 55.5193 147.143 55.1498 147.372 54.8153C147.61 54.4809 147.943 54.2169 148.375 54.0233C148.815 53.8298 149.33 53.7329 149.919 53.7329C150.791 53.7329 151.485 53.9529 152.005 54.393C152.524 54.8241 152.81 55.4093 152.863 56.1485H151.094C151.068 55.8582 150.944 55.6293 150.725 55.4621C150.514 55.2862 150.227 55.1981 149.867 55.1981C149.532 55.1981 149.273 55.2598 149.088 55.3829C148.912 55.5062 148.824 55.6778 148.824 55.8977C148.824 56.1441 148.947 56.3334 149.193 56.4653C149.44 56.5886 149.823 56.7162 150.342 56.8481C150.87 56.9802 151.305 57.1166 151.648 57.2573C151.992 57.3982 152.286 57.6182 152.533 57.9174C152.789 58.2078 152.92 58.5949 152.929 59.0789C152.929 59.5014 152.81 59.8797 152.572 60.2141C152.344 60.5486 152.009 60.8126 151.569 61.0061C151.139 61.191 150.632 61.2834 150.052 61.2834ZM156.597 55.3697V58.9074C156.597 59.1538 156.655 59.3342 156.769 59.4485C156.893 59.5542 157.095 59.607 157.376 59.607H158.234V61.1646H157.073C155.516 61.1646 154.736 60.4077 154.736 58.8941V55.3697H153.865V53.8517H154.736V52.0433H156.597V53.8517H158.234V55.3697H156.597ZM163.986 60.1218C163.783 60.4562 163.453 60.7378 162.996 60.9666C162.538 61.1866 162.045 61.2966 161.518 61.2966C161.06 61.2966 160.646 61.2042 160.276 61.0194C159.907 60.8345 159.617 60.5793 159.405 60.2538C159.194 59.9282 159.089 59.5542 159.089 59.1317C159.089 58.4542 159.34 57.8998 159.841 57.4686C160.351 57.0373 161.112 56.8217 162.124 56.8217H163.986C163.968 56.3553 163.832 55.9858 163.576 55.713C163.33 55.4314 162.987 55.2905 162.547 55.2905C162.16 55.2905 161.838 55.3962 161.583 55.6073C161.328 55.8097 161.166 56.0958 161.095 56.4653H159.247C159.335 55.9373 159.524 55.4666 159.815 55.0529C160.113 54.6306 160.5 54.3049 160.976 54.0762C161.46 53.8386 162.001 53.7198 162.599 53.7198C163.215 53.7198 163.77 53.8474 164.263 54.1026C164.764 54.3578 165.156 54.723 165.438 55.1981C165.719 55.6733 165.86 56.2322 165.86 56.8745V61.1646H163.986V60.1218ZM162.058 59.8049C162.367 59.8049 162.665 59.739 162.956 59.607C163.256 59.475 163.501 59.2769 163.695 59.0129C163.889 58.7489 163.986 58.4366 163.986 58.0757V58.0229H162.23C161.808 58.0229 161.491 58.1066 161.28 58.2738C161.077 58.4409 160.976 58.661 160.976 58.9338C160.976 59.1978 161.069 59.409 161.254 59.5673C161.447 59.7258 161.715 59.8049 162.058 59.8049ZM170.483 61.2834C169.884 61.2834 169.348 61.1778 168.872 60.9666C168.397 60.7466 168.019 60.4517 167.738 60.0822C167.465 59.7125 167.315 59.3033 167.289 58.8546H169.15C169.185 59.1362 169.321 59.3693 169.559 59.5542C169.806 59.739 170.109 59.8313 170.47 59.8313C170.822 59.8313 171.095 59.7609 171.288 59.6202C171.491 59.4793 171.592 59.299 171.592 59.0789C171.592 58.8413 171.469 58.6654 171.222 58.5509C170.985 58.4278 170.602 58.2957 170.074 58.155C169.529 58.0229 169.08 57.8865 168.728 57.7458C168.384 57.605 168.085 57.3894 167.83 57.099C167.583 56.8085 167.46 56.4169 167.46 55.9242C167.46 55.5193 167.575 55.1498 167.804 54.8153C168.041 54.4809 168.376 54.2169 168.807 54.0233C169.246 53.8298 169.761 53.7329 170.352 53.7329C171.222 53.7329 171.918 53.9529 172.437 54.393C172.956 54.8241 173.242 55.4093 173.295 56.1485H171.526C171.499 55.8582 171.376 55.6293 171.156 55.4621C170.945 55.2862 170.659 55.1981 170.298 55.1981C169.964 55.1981 169.705 55.2598 169.519 55.3829C169.344 55.5062 169.256 55.6778 169.256 55.8977C169.256 56.1441 169.379 56.3334 169.625 56.4653C169.871 56.5886 170.255 56.7162 170.773 56.8481C171.301 56.9802 171.737 57.1166 172.081 57.2573C172.423 57.3982 172.719 57.6182 172.964 57.9174C173.22 58.2078 173.352 58.5949 173.361 59.0789C173.361 59.5014 173.242 59.8797 173.005 60.2141C172.775 60.5486 172.442 60.8126 172.001 61.0061C171.57 61.191 171.063 61.2834 170.483 61.2834ZM175.815 52.9805C175.489 52.9805 175.216 52.8793 174.997 52.6769C174.785 52.4657 174.68 52.2061 174.68 51.8981C174.68 51.5902 174.785 51.335 174.997 51.1325C175.216 50.9213 175.489 50.8157 175.815 50.8157C176.14 50.8157 176.409 50.9213 176.621 51.1325C176.84 51.335 176.95 51.5902 176.95 51.8981C176.95 52.2061 176.84 52.4657 176.621 52.6769C176.409 52.8793 176.14 52.9805 175.815 52.9805ZM176.726 53.8517V61.1646H174.877V53.8517H176.726Z" fill="black"/>
</g>
<defs>
<linearGradient id="paint0_linear_3360_61282" x1="60.1916" y1="55.4893" x2="53.6913" y2="55.4893" gradientUnits="userSpaceOnUse">
<stop/>
<stop offset="0.84" stop-opacity="0"/>
</linearGradient>
<linearGradient id="paint1_linear_3360_61282" x1="53.6914" y1="42.7705" x2="60.3906" y2="42.7705" gradientUnits="userSpaceOnUse">
<stop/>
<stop offset="1"/>
</linearGradient>
<linearGradient id="paint2_linear_3360_61282" x1="28.0898" y1="38.4497" x2="48.3733" y2="38.4497" gradientUnits="userSpaceOnUse">
<stop offset="0.02" stop-opacity="0"/>
<stop offset="1"/>
</linearGradient>
<linearGradient id="paint3_linear_3360_61282" x1="27.6172" y1="51.5156" x2="49.6467" y2="51.5156" gradientUnits="userSpaceOnUse">
<stop/>
<stop offset="1"/>
</linearGradient>
<linearGradient id="paint4_linear_3360_61282" x1="2.01447" y1="61.1514" x2="13.2876" y2="34.307" gradientUnits="userSpaceOnUse">
<stop/>
<stop offset="0.84" stop-opacity="0"/>
</linearGradient>
<linearGradient id="paint5_linear_3360_61282" x1="8.11719" y1="47.5918" x2="25.9885" y2="47.5918" gradientUnits="userSpaceOnUse">
<stop/>
<stop offset="1"/>
</linearGradient>
<linearGradient id="paint6_linear_3360_61282" x1="66.3115" y1="61.1508" x2="77.5845" y2="34.307" gradientUnits="userSpaceOnUse">
<stop/>
<stop offset="0.84" stop-opacity="0"/>
</linearGradient>
<linearGradient id="paint7_linear_3360_61282" x1="72.4062" y1="47.5918" x2="90.2775" y2="47.5918" gradientUnits="userSpaceOnUse">
<stop/>
<stop offset="1"/>
</linearGradient>
<linearGradient id="paint8_linear_3360_61282" x1="41.7377" y1="9.21762" x2="41.7377" y2="0.875965" gradientUnits="userSpaceOnUse">
<stop/>
<stop offset="0.84" stop-opacity="0"/>
</linearGradient>
<linearGradient id="paint9_linear_3360_61282" x1="28.5078" y1="14.2834" x2="55.4428" y2="14.2834" gradientUnits="userSpaceOnUse">
<stop/>
<stop offset="1"/>
</linearGradient>
<linearGradient id="paint10_linear_3360_61282" x1="64.2365" y1="21.8652" x2="57.7324" y2="21.8652" gradientUnits="userSpaceOnUse">
<stop/>
<stop offset="0.84" stop-color="white" stop-opacity="0"/>
</linearGradient>
<linearGradient id="paint11_linear_3360_61282" x1="57.7344" y1="9.13768" x2="64.4336" y2="9.13768" gradientUnits="userSpaceOnUse">
<stop/>
<stop offset="1"/>
</linearGradient>
<linearGradient id="paint12_linear_3360_61282" x1="86.9233" y1="1.2129" x2="86.9233" y2="26.6757" gradientUnits="userSpaceOnUse">
<stop/>
<stop offset="0.84" stop-opacity="0"/>
</linearGradient>
<linearGradient id="paint13_linear_3360_61282" x1="68.4336" y1="13.9356" x2="84.1375" y2="13.9356" gradientUnits="userSpaceOnUse">
<stop/>
<stop offset="1"/>
</linearGradient>
<linearGradient id="paint14_linear_3360_61282" x1="94.1092" y1="6.80462" x2="112.278" y2="6.80462" gradientUnits="userSpaceOnUse">
<stop offset="0.02" stop-opacity="0"/>
<stop offset="1"/>
</linearGradient>
<linearGradient id="paint15_linear_3360_61282" x1="94.1016" y1="19.5304" x2="111.244" y2="19.5304" gradientUnits="userSpaceOnUse">
<stop/>
<stop offset="1"/>
</linearGradient>
<linearGradient id="paint16_linear_3360_61282" x1="119.438" y1="26.6562" x2="119.438" y2="1.21291" gradientUnits="userSpaceOnUse">
<stop/>
<stop offset="0.84" stop-opacity="0"/>
</linearGradient>
<linearGradient id="paint17_linear_3360_61282" x1="122.715" y1="23.7871" x2="134.911" y2="23.7871" gradientUnits="userSpaceOnUse">
<stop/>
<stop offset="1"/>
</linearGradient>
<linearGradient id="paint18_linear_3360_61282" x1="122.715" y1="13.7608" x2="133.158" y2="13.7608" gradientUnits="userSpaceOnUse">
<stop/>
<stop offset="1"/>
</linearGradient>
<linearGradient id="paint19_linear_3360_61282" x1="122.715" y1="4.06839" x2="134.734" y2="4.06839" gradientUnits="userSpaceOnUse">
<stop/>
<stop offset="1"/>
</linearGradient>
<linearGradient id="paint20_linear_3360_61282" x1="137.879" y1="4.83556" x2="158.183" y2="4.83556" gradientUnits="userSpaceOnUse">
<stop offset="0.02" stop-opacity="0"/>
<stop offset="1"/>
</linearGradient>
<linearGradient id="paint21_linear_3360_61282" x1="137.434" y1="17.9121" x2="159.482" y2="17.9121" gradientUnits="userSpaceOnUse">
<stop/>
<stop offset="1"/>
</linearGradient>
<linearGradient id="paint22_linear_3360_61282" x1="171.091" y1="26.6369" x2="171.091" y2="1.21291" gradientUnits="userSpaceOnUse">
<stop/>
<stop offset="0.84" stop-opacity="0"/>
</linearGradient>
<linearGradient id="paint23_linear_3360_61282" x1="174.359" y1="4.06839" x2="182.182" y2="4.06839" gradientUnits="userSpaceOnUse">
<stop/>
<stop offset="1"/>
</linearGradient>
<linearGradient id="paint24_linear_3360_61282" x1="160.227" y1="4.06839" x2="168.029" y2="4.06839" gradientUnits="userSpaceOnUse">
<stop/>
<stop offset="1"/>
</linearGradient>
<linearGradient id="paint25_linear_3360_61282" x1="25.5063" y1="21.9019" x2="0.341956" y2="21.9019" gradientUnits="userSpaceOnUse">
<stop/>
<stop offset="0.84" stop-opacity="0"/>
</linearGradient>
<linearGradient id="paint26_linear_3360_61282" x1="-7.32367e-08" y1="8.33572" x2="26.2318" y2="8.33572" gradientUnits="userSpaceOnUse">
<stop/>
<stop offset="1"/>
</linearGradient>
<clipPath id="clip0_3360_61282">
<rect width="182" height="61.6778" fill="white"/>
</clipPath>
</defs>
</svg>
