<svg xmlns="http://www.w3.org/2000/svg" width="755" height="606" fill="none"><path fill="url(#a)" d="M248.464 552.529c137.224 71.023 306.041 17.358 377.064-119.865C696.551 295.44 642.886 126.623 505.663 55.6 368.439-15.423 199.622 38.242 128.599 175.465c-71.023 137.224-17.358 306.041 119.865 377.064"/><g opacity=".25"><path fill="url(#b)" d="M151.982 345.713c9.886-10.838 35.651 2.404 48.968 29.365 13.33 26.951-5.425 46.132-21.945 42.398-16.512-3.731-52.916-43.437-27.023-71.763" opacity=".4" style="mix-blend-mode:multiply"/><path fill="url(#c)" d="M362.3 520.625c3.735-12.421 23.011-20.725 44.18-15.115 21.179 5.607 35.624 21.116 29.619 39.924-5.992 18.832-35.347 24.494-49.316 11.387-13.966-13.113-28.933-21.399-24.483-36.196" opacity=".4" style="mix-blend-mode:multiply"/><path fill="url(#d)" d="M165.405 443.252c7.565-8.103 25.133 9.338 18.669 22.306-6.45 12.958-27.061-13.33-18.669-22.306" opacity=".4" style="mix-blend-mode:multiply"/><path fill="url(#e)" d="M225.76 479.365c1.702 6.578 11.369 17.535 20.639 5.806 9.27-11.712-26.009-26.67-20.639-5.806" opacity=".4" style="mix-blend-mode:multiply"/><path fill="url(#f)" d="M307.169 543.426c8.479 5.749 20.881 12.86 29.086 1.684 8.199-11.18-19.388-24.552-28.578-21.259-9.186 3.287-8.017 14.482-.501 19.579z" opacity=".4" style="mix-blend-mode:multiply"/><path fill="url(#g)" d="M585.295 328.493c3.467 7.663 20.579 18.136 31.814 3.635 11.242-14.515-4.868-31.947-16.313-33.585-11.448-1.648-26.213 6.219-15.501 29.95" opacity=".4" style="mix-blend-mode:multiply"/><path fill="url(#h)" d="M598.394 232.578c3.548 9.193 26.522 24.95 37.799 17.425 11.277-7.542 3.414-30.115-15.864-41.906-19.278-11.809-34.58-8.274-21.932 24.474z" opacity=".4" style="mix-blend-mode:multiply"/><path fill="url(#i)" d="M464.911 120.256c5.145 9.926 30.831 18.541 39.921 6.137 9.099-12.408-12.61-27.485-27.856-29.448-15.253-1.966-21.475 5.147-12.065 23.311" opacity=".4" style="mix-blend-mode:multiply"/><path fill="url(#j)" d="M425.491 57.518c6.819 8.773 20.536 14.367 24.385 8.335 3.843-6.035-2.628-14.192-12.349-18.154-9.717-3.968-20.378-.923-12.03 9.822z" opacity=".4" style="mix-blend-mode:multiply"/><path fill="url(#k)" d="M281.724 53.16c4.523-5.846 8.668 2.887 7.348 6.48-1.321 3.594-13.84 1.93-7.348-6.48" opacity=".4" style="mix-blend-mode:multiply"/><path fill="url(#l)" d="M253.551 146.629c.786-6.625 9.034-.679 7.273 3.764-1.764 4.434-7.857 1.28-7.273-3.764" opacity=".4" style="mix-blend-mode:multiply"/><path fill="url(#m)" d="M161.897 267.129c.322 6.599 10.241 8.525 13.244.987 2.991-7.546-13.574-7.574-13.244-.987" opacity=".4" style="mix-blend-mode:multiply"/><path fill="url(#n)" d="M119.347 317.282c.132 2.72 5.409 8.36 9.425 1.525s-9.743-8.148-9.425-1.525" opacity=".4" style="mix-blend-mode:multiply"/><path fill="url(#o)" d="M266.462 545.359c3.296 4.657 9.844 2.699 10.874-3.192 1.043-5.867-17.598-6.294-10.874 3.192" opacity=".4" style="mix-blend-mode:multiply"/><path fill="url(#p)" d="M246.569 532.658c4.692-1.712-2.72-7.173-7.145-6.376-4.415.795 1.213 8.515 7.145 6.376" opacity=".4" style="mix-blend-mode:multiply"/><path fill="url(#q)" d="M228.249 509.131c2.354 4.161 5.829 4.223 7.787 1.233 1.949-3.003-11.986-8.624-7.787-1.233" opacity=".4" style="mix-blend-mode:multiply"/><path fill="url(#r)" d="M297.121 460.552c.209-2.519 9.933 1.12 7.462 3.862-2.457 2.731-7.842.74-7.462-3.862" opacity=".4" style="mix-blend-mode:multiply"/><path fill="url(#s)" d="M501.123 420.508c2.482-4.729 9.925-.483 7.941 4.111-1.994 4.596-10.446.615-7.941-4.111" opacity=".4" style="mix-blend-mode:multiply"/><path fill="url(#t)" d="M581.113 366.039c2.138-4.907 11.475-.485 9.176 4.75-2.308 5.221-11.324.161-9.176-4.75" opacity=".4" style="mix-blend-mode:multiply"/><path fill="url(#u)" d="M599.687 165.053c2.154-5.848 8.481-2.437 6.639 3.436-1.822 5.867-7.691-.593-6.639-3.436" opacity=".4" style="mix-blend-mode:multiply"/><path fill="url(#v)" d="M556.376 140.232c-3.156-6.082 5.943-5.316 7.647-.841s-4.235 7.423-7.647.841" opacity=".4" style="mix-blend-mode:multiply"/><path fill="url(#w)" d="M524.611 98.521c-2.354-3.22 4.933-7.233 7.47-2.036 2.526 5.2-5.123 5.253-7.47 2.036" opacity=".4" style="mix-blend-mode:multiply"/><path fill="url(#x)" d="M510.999 69.01c-1.333-5.77 5.583-.72 7.463 1.861 1.874 2.578-5.361 7.251-7.463-1.86" opacity=".4" style="mix-blend-mode:multiply"/><path fill="url(#y)" d="M560.036 109.892c.223-8.165 5.947.923 4.44 2.298-1.518 1.362-4.44-2.298-4.44-2.298" opacity=".4" style="mix-blend-mode:multiply"/><path fill="url(#z)" d="M504.87 82.402c-1.66-3.785 3.741-1.212 2.697 1.284-1.054 2.5-2.697-1.284-2.697-1.284" opacity=".4" style="mix-blend-mode:multiply"/><path fill="url(#A)" d="M455.021 59.8c-.932-1.869 3.923-2.787 4.683.207.757 3.001-2.99 3.166-4.683-.208" opacity=".4" style="mix-blend-mode:multiply"/><path fill="url(#B)" d="M376.578 68.303c-1.666-3.805 8.432-2.325 9.952 2.473 1.523 4.81-7.377 3.41-9.952-2.473" opacity=".4" style="mix-blend-mode:multiply"/></g><defs><linearGradient id="b" x1="141.259" x2="206.665" y1="363.619" y2="397.471" gradientUnits="userSpaceOnUse"><stop stop-color="#00BCFE"/><stop offset=".02" stop-color="#00B3FD"/><stop offset=".1" stop-color="#0097FD"/><stop offset=".19" stop-color="#0080FD"/><stop offset=".29" stop-color="#006FFD"/><stop offset=".42" stop-color="#0063FD"/><stop offset=".58" stop-color="#005BFD"/><stop offset="1" stop-color="#015AFD"/></linearGradient><linearGradient id="c" x1="365.13" x2="433.99" y1="514.562" y2="550.202" gradientUnits="userSpaceOnUse"><stop stop-color="#00BCFE"/><stop offset=".02" stop-color="#00B3FD"/><stop offset=".1" stop-color="#0097FD"/><stop offset=".19" stop-color="#0080FD"/><stop offset=".29" stop-color="#006FFD"/><stop offset=".42" stop-color="#0063FD"/><stop offset=".58" stop-color="#005BFD"/><stop offset="1" stop-color="#015AFD"/></linearGradient><linearGradient id="d" x1="162.333" x2="186.4" y1="448.626" y2="461.082" gradientUnits="userSpaceOnUse"><stop stop-color="#00BCFE"/><stop offset=".02" stop-color="#00B3FD"/><stop offset=".1" stop-color="#0097FD"/><stop offset=".19" stop-color="#0080FD"/><stop offset=".29" stop-color="#006FFD"/><stop offset=".42" stop-color="#0063FD"/><stop offset=".58" stop-color="#005BFD"/><stop offset="1" stop-color="#015AFD"/></linearGradient><linearGradient id="e" x1="224.859" x2="246.524" y1="474.048" y2="485.261" gradientUnits="userSpaceOnUse"><stop stop-color="#00BCFE"/><stop offset=".02" stop-color="#00B3FD"/><stop offset=".1" stop-color="#0097FD"/><stop offset=".19" stop-color="#0080FD"/><stop offset=".29" stop-color="#006FFD"/><stop offset=".42" stop-color="#0063FD"/><stop offset=".58" stop-color="#005BFD"/><stop offset="1" stop-color="#015AFD"/></linearGradient><linearGradient id="f" x1="302.174" x2="335.969" y1="528.402" y2="545.894" gradientUnits="userSpaceOnUse"><stop stop-color="#00BCFE"/><stop offset=".02" stop-color="#00B3FD"/><stop offset=".1" stop-color="#0097FD"/><stop offset=".19" stop-color="#0080FD"/><stop offset=".29" stop-color="#006FFD"/><stop offset=".42" stop-color="#0063FD"/><stop offset=".58" stop-color="#005BFD"/><stop offset="1" stop-color="#015AFD"/></linearGradient><linearGradient id="g" x1="581.794" x2="619.34" y1="309.11" y2="328.544" gradientUnits="userSpaceOnUse"><stop stop-color="#00BCFE"/><stop offset=".02" stop-color="#00B3FD"/><stop offset=".1" stop-color="#0097FD"/><stop offset=".19" stop-color="#0080FD"/><stop offset=".29" stop-color="#006FFD"/><stop offset=".42" stop-color="#0063FD"/><stop offset=".58" stop-color="#005BFD"/><stop offset="1" stop-color="#015AFD"/></linearGradient><linearGradient id="h" x1="591.094" x2="642.54" y1="214.155" y2="240.782" gradientUnits="userSpaceOnUse"><stop stop-color="#00BCFE"/><stop offset=".02" stop-color="#00B3FD"/><stop offset=".1" stop-color="#0097FD"/><stop offset=".19" stop-color="#0080FD"/><stop offset=".29" stop-color="#006FFD"/><stop offset=".42" stop-color="#0063FD"/><stop offset=".58" stop-color="#005BFD"/><stop offset="1" stop-color="#015AFD"/></linearGradient><linearGradient id="i" x1="460.412" x2="504.928" y1="103.496" y2="126.537" gradientUnits="userSpaceOnUse"><stop stop-color="#00BCFE"/><stop offset=".02" stop-color="#00B3FD"/><stop offset=".1" stop-color="#0097FD"/><stop offset=".19" stop-color="#0080FD"/><stop offset=".29" stop-color="#006FFD"/><stop offset=".42" stop-color="#0063FD"/><stop offset=".58" stop-color="#005BFD"/><stop offset="1" stop-color="#015AFD"/></linearGradient><linearGradient id="j" x1="422.623" x2="450.826" y1="49.472" y2="64.069" gradientUnits="userSpaceOnUse"><stop stop-color="#00BCFE"/><stop offset=".02" stop-color="#00B3FD"/><stop offset=".1" stop-color="#0097FD"/><stop offset=".19" stop-color="#0080FD"/><stop offset=".29" stop-color="#006FFD"/><stop offset=".42" stop-color="#0063FD"/><stop offset=".58" stop-color="#005BFD"/><stop offset="1" stop-color="#015AFD"/></linearGradient><linearGradient id="k" x1="280.829" x2="289.466" y1="54.442" y2="58.912" gradientUnits="userSpaceOnUse"><stop stop-color="#00BCFE"/><stop offset=".02" stop-color="#00B3FD"/><stop offset=".1" stop-color="#0097FD"/><stop offset=".19" stop-color="#0080FD"/><stop offset=".29" stop-color="#006FFD"/><stop offset=".42" stop-color="#0063FD"/><stop offset=".58" stop-color="#005BFD"/><stop offset="1" stop-color="#015AFD"/></linearGradient><linearGradient id="l" x1="253.373" x2="260.977" y1="146.212" y2="150.147" gradientUnits="userSpaceOnUse"><stop stop-color="#00BCFE"/><stop offset=".02" stop-color="#00B3FD"/><stop offset=".1" stop-color="#0097FD"/><stop offset=".19" stop-color="#0080FD"/><stop offset=".29" stop-color="#006FFD"/><stop offset=".42" stop-color="#0063FD"/><stop offset=".58" stop-color="#005BFD"/><stop offset="1" stop-color="#015AFD"/></linearGradient><linearGradient id="m" x1="162.785" x2="174.106" y1="264.355" y2="270.215" gradientUnits="userSpaceOnUse"><stop stop-color="#00BCFE"/><stop offset=".02" stop-color="#00B3FD"/><stop offset=".1" stop-color="#0097FD"/><stop offset=".19" stop-color="#0080FD"/><stop offset=".29" stop-color="#006FFD"/><stop offset=".42" stop-color="#0063FD"/><stop offset=".58" stop-color="#005BFD"/><stop offset="1" stop-color="#015AFD"/></linearGradient><linearGradient id="n" x1="119.934" x2="128.489" y1="314.96" y2="319.388" gradientUnits="userSpaceOnUse"><stop stop-color="#00BCFE"/><stop offset=".02" stop-color="#00B3FD"/><stop offset=".1" stop-color="#0097FD"/><stop offset=".19" stop-color="#0080FD"/><stop offset=".29" stop-color="#006FFD"/><stop offset=".42" stop-color="#0063FD"/><stop offset=".58" stop-color="#005BFD"/><stop offset="1" stop-color="#015AFD"/></linearGradient><linearGradient id="o" x1="265.568" x2="276.141" y1="539.814" y2="545.286" gradientUnits="userSpaceOnUse"><stop stop-color="#00BCFE"/><stop offset=".02" stop-color="#00B3FD"/><stop offset=".1" stop-color="#0097FD"/><stop offset=".19" stop-color="#0080FD"/><stop offset=".29" stop-color="#006FFD"/><stop offset=".42" stop-color="#0063FD"/><stop offset=".58" stop-color="#005BFD"/><stop offset="1" stop-color="#015AFD"/></linearGradient><linearGradient id="p" x1="237.983" x2="247.625" y1="527.231" y2="532.221" gradientUnits="userSpaceOnUse"><stop stop-color="#00BCFE"/><stop offset=".02" stop-color="#00B3FD"/><stop offset=".1" stop-color="#0097FD"/><stop offset=".19" stop-color="#0080FD"/><stop offset=".29" stop-color="#006FFD"/><stop offset=".42" stop-color="#0063FD"/><stop offset=".58" stop-color="#005BFD"/><stop offset="1" stop-color="#015AFD"/></linearGradient><linearGradient id="q" x1="227.272" x2="235.631" y1="506.837" y2="511.164" gradientUnits="userSpaceOnUse"><stop stop-color="#00BCFE"/><stop offset=".02" stop-color="#00B3FD"/><stop offset=".1" stop-color="#0097FD"/><stop offset=".19" stop-color="#0080FD"/><stop offset=".29" stop-color="#006FFD"/><stop offset=".42" stop-color="#0063FD"/><stop offset=".58" stop-color="#005BFD"/><stop offset="1" stop-color="#015AFD"/></linearGradient><linearGradient id="r" x1="296.9" x2="304.477" y1="460.83" y2="464.752" gradientUnits="userSpaceOnUse"><stop stop-color="#00BCFE"/><stop offset=".02" stop-color="#00B3FD"/><stop offset=".1" stop-color="#0097FD"/><stop offset=".19" stop-color="#0080FD"/><stop offset=".29" stop-color="#006FFD"/><stop offset=".42" stop-color="#0063FD"/><stop offset=".58" stop-color="#005BFD"/><stop offset="1" stop-color="#015AFD"/></linearGradient><linearGradient id="s" x1="501.12" x2="509.074" y1="420.515" y2="424.632" gradientUnits="userSpaceOnUse"><stop stop-color="#00BCFE"/><stop offset=".02" stop-color="#00B3FD"/><stop offset=".1" stop-color="#0097FD"/><stop offset=".19" stop-color="#0080FD"/><stop offset=".29" stop-color="#006FFD"/><stop offset=".42" stop-color="#0063FD"/><stop offset=".58" stop-color="#005BFD"/><stop offset="1" stop-color="#015AFD"/></linearGradient><linearGradient id="t" x1="581.1" x2="590.296" y1="366.032" y2="370.792" gradientUnits="userSpaceOnUse"><stop stop-color="#00BCFE"/><stop offset=".02" stop-color="#00B3FD"/><stop offset=".1" stop-color="#0097FD"/><stop offset=".19" stop-color="#0080FD"/><stop offset=".29" stop-color="#006FFD"/><stop offset=".42" stop-color="#0063FD"/><stop offset=".58" stop-color="#005BFD"/><stop offset="1" stop-color="#015AFD"/></linearGradient><linearGradient id="u" x1="599.885" x2="606.659" y1="164.539" y2="168.046" gradientUnits="userSpaceOnUse"><stop stop-color="#00BCFE"/><stop offset=".02" stop-color="#00B3FD"/><stop offset=".1" stop-color="#0097FD"/><stop offset=".19" stop-color="#0080FD"/><stop offset=".29" stop-color="#006FFD"/><stop offset=".42" stop-color="#0063FD"/><stop offset=".58" stop-color="#005BFD"/><stop offset="1" stop-color="#015AFD"/></linearGradient><linearGradient id="v" x1="555.614" x2="564.169" y1="137.639" y2="142.067" gradientUnits="userSpaceOnUse"><stop stop-color="#00BCFE"/><stop offset=".02" stop-color="#00B3FD"/><stop offset=".1" stop-color="#0097FD"/><stop offset=".19" stop-color="#0080FD"/><stop offset=".29" stop-color="#006FFD"/><stop offset=".42" stop-color="#0063FD"/><stop offset=".58" stop-color="#005BFD"/><stop offset="1" stop-color="#015AFD"/></linearGradient><linearGradient id="w" x1="524.801" x2="532.377" y1="95.394" y2="99.316" gradientUnits="userSpaceOnUse"><stop stop-color="#00BCFE"/><stop offset=".02" stop-color="#00B3FD"/><stop offset=".1" stop-color="#0097FD"/><stop offset=".19" stop-color="#0080FD"/><stop offset=".29" stop-color="#006FFD"/><stop offset=".42" stop-color="#0063FD"/><stop offset=".58" stop-color="#005BFD"/><stop offset="1" stop-color="#015AFD"/></linearGradient><linearGradient id="x" x1="510.15" x2="518.469" y1="68.519" y2="72.825" gradientUnits="userSpaceOnUse"><stop stop-color="#00BCFE"/><stop offset=".02" stop-color="#00B3FD"/><stop offset=".1" stop-color="#0097FD"/><stop offset=".19" stop-color="#0080FD"/><stop offset=".29" stop-color="#006FFD"/><stop offset=".42" stop-color="#0063FD"/><stop offset=".58" stop-color="#005BFD"/><stop offset="1" stop-color="#015AFD"/></linearGradient><linearGradient id="y" x1="559.978" x2="565.173" y1="108.237" y2="110.926" gradientUnits="userSpaceOnUse"><stop stop-color="#00BCFE"/><stop offset=".02" stop-color="#00B3FD"/><stop offset=".1" stop-color="#0097FD"/><stop offset=".19" stop-color="#0080FD"/><stop offset=".29" stop-color="#006FFD"/><stop offset=".42" stop-color="#0063FD"/><stop offset=".58" stop-color="#005BFD"/><stop offset="1" stop-color="#015AFD"/></linearGradient><linearGradient id="z" x1="504.243" x2="507.744" y1="81.564" y2="83.376" gradientUnits="userSpaceOnUse"><stop stop-color="#00BCFE"/><stop offset=".02" stop-color="#00B3FD"/><stop offset=".1" stop-color="#0097FD"/><stop offset=".19" stop-color="#0080FD"/><stop offset=".29" stop-color="#006FFD"/><stop offset=".42" stop-color="#0063FD"/><stop offset=".58" stop-color="#005BFD"/><stop offset="1" stop-color="#015AFD"/></linearGradient><linearGradient id="A" x1="455.073" x2="459.782" y1="58.808" y2="61.245" gradientUnits="userSpaceOnUse"><stop stop-color="#00BCFE"/><stop offset=".02" stop-color="#00B3FD"/><stop offset=".1" stop-color="#0097FD"/><stop offset=".19" stop-color="#0080FD"/><stop offset=".29" stop-color="#006FFD"/><stop offset=".42" stop-color="#0063FD"/><stop offset=".58" stop-color="#005BFD"/><stop offset="1" stop-color="#015AFD"/></linearGradient><linearGradient id="B" x1="376.455" x2="386.636" y1="67.136" y2="72.405" gradientUnits="userSpaceOnUse"><stop stop-color="#00BCFE"/><stop offset=".02" stop-color="#00B3FD"/><stop offset=".1" stop-color="#0097FD"/><stop offset=".19" stop-color="#0080FD"/><stop offset=".29" stop-color="#006FFD"/><stop offset=".42" stop-color="#0063FD"/><stop offset=".58" stop-color="#005BFD"/><stop offset="1" stop-color="#015AFD"/></linearGradient><radialGradient id="a" cx="0" cy="0" r="1" gradientTransform="rotate(27.365 -179.996 834.607)scale(425.88)" gradientUnits="userSpaceOnUse"><stop stop-color="#BEF5EB"/><stop offset=".27" stop-color="#00BCFE"/><stop offset=".54" stop-color="#00BCFE"/><stop offset=".63" stop-color="#0092FD"/><stop offset=".77" stop-color="#005DFD"/><stop offset=".78" stop-color="#0660FD"/><stop offset=".81" stop-color="#176CFD"/><stop offset=".84" stop-color="#347EFD"/><stop offset=".87" stop-color="#5C97FD"/><stop offset=".9" stop-color="#90B8FE"/><stop offset=".93" stop-color="#CEDFFE"/><stop offset=".96" stop-color="#fff"/></radialGradient></defs></svg>