<svg width="136" height="46" viewBox="0 0 136 46" fill="none" xmlns="http://www.w3.org/2000/svg">
<g clip-path="url(#clip0_2424_53)">
<mask id="mask0_2424_53" style="mask-type:luminance" maskUnits="userSpaceOnUse" x="0" y="0" width="136" height="46">
<path d="M135.032 0H0V45.7609H135.032V0Z" fill="white"/>
</mask>
<g mask="url(#mask0_2424_53)">
<path d="M44.6639 44.7292V37.6097H39.8356V44.7292H44.6639Z" fill="url(#paint0_linear_2424_53)"/>
<path d="M44.6639 25.8583H39.8356V37.6091H44.6639V25.8583Z" fill="url(#paint1_linear_2424_53)"/>
<path d="M35.4466 29.9425C35.2479 29.4391 35.0064 28.9645 34.694 28.5187C34.3248 27.9865 33.8703 27.5119 33.3591 27.1091C32.7342 26.6201 32.0242 26.2461 31.2715 26.0161C30.4337 25.7283 29.4111 25.5989 28.2325 25.5989C26.6987 25.5989 25.3922 25.8579 24.2845 26.3612C23.2478 26.807 22.3673 27.5406 21.7282 28.4754C21.146 29.3672 20.8336 30.4027 20.8336 31.4671H25.5768C25.5768 31.4239 25.5768 31.3808 25.5768 31.3376C25.5768 31.05 25.6621 30.7623 25.8182 30.5178C26.0171 30.2158 26.3011 29.9713 26.6277 29.8275C27.0111 29.6405 27.5081 29.5398 28.1472 29.5398C28.8289 29.5398 29.3544 29.6261 29.752 29.8275C30.0927 29.9856 30.391 30.2158 30.6466 30.4891C30.8597 30.7767 31.0301 31.1075 31.1154 31.4527H35.8727C35.7591 30.9493 35.6171 30.4315 35.4466 29.9425Z" fill="url(#paint2_linear_2424_53)"/>
<path d="M36.3686 38.9044C36.3828 40.0118 36.0704 41.1049 35.4597 42.0398C34.8491 42.9604 33.9828 43.6795 32.8467 44.1973C31.7106 44.7151 30.3189 44.9739 28.6715 44.9739C27.3793 44.9739 26.2715 44.8157 25.3627 44.5137C24.539 44.2691 23.7863 43.8664 23.1046 43.3486C22.5507 42.9171 22.068 42.3994 21.6845 41.824C21.3721 41.3495 21.1023 40.8316 20.9034 40.2851C20.7188 39.753 20.591 39.2065 20.4916 38.6455H25.3769C25.4904 39.077 25.675 39.4797 25.9165 39.8393C26.2005 40.1989 26.5556 40.4721 26.9532 40.6591C27.4218 40.9036 28.0608 41.0187 28.8703 41.0187C29.8644 41.0187 30.5603 40.8173 30.9437 40.4434C31.3271 40.0694 31.5402 39.6523 31.5402 39.2065C31.5544 38.8325 31.3982 38.4585 31.0999 38.2284C30.8017 37.9839 30.2905 37.7969 29.5662 37.6819L27.0809 37.2792C26.0301 37.1066 25.0076 36.8045 24.0277 36.3874C23.1189 36.0135 22.3094 35.4094 21.6987 34.6327C21.1023 33.8704 20.8041 32.8637 20.8041 31.6267C20.8041 31.5692 20.8041 31.526 20.8041 31.4685H25.5472C25.5756 31.8856 25.8455 32.2596 26.2289 32.4178C26.7686 32.6767 27.3366 32.8493 27.9331 32.9356L30.5461 33.3671C31.5402 33.5253 32.5201 33.8273 33.4289 34.2731C34.281 34.6759 35.0052 35.2943 35.5591 36.0566C36.0988 36.8189 36.3686 37.7682 36.3686 38.9044Z" fill="url(#paint3_linear_2424_53)"/>
<path d="M6.19175 25.8735L0 44.7436H5.02724L6.00712 41.5795L7.29944 37.4084L8.73377 32.7772L9.45804 30.4328L10.8639 25.8735H6.19175Z" fill="url(#paint4_linear_2424_53)"/>
<path d="M18.903 44.7436H13.8758L12.8958 41.5795H6.02246L7.31476 37.4084H11.6035L9.45911 30.4328L10.8793 25.8735H12.7112L18.903 44.7436Z" fill="url(#paint5_linear_2424_53)"/>
<path d="M53.8915 25.8735L47.6998 44.7436H52.727L53.7069 41.5795L54.9992 37.4084L56.4335 32.7772L57.1578 30.4328L58.5637 25.8735H53.8915Z" fill="url(#paint6_linear_2424_53)"/>
<path d="M66.6027 44.7436H61.5755L60.5814 41.5795H53.7222L55.0145 37.4084H59.3034L57.1589 30.4328L58.5648 25.8735H60.411L66.6027 44.7436Z" fill="url(#paint7_linear_2424_53)"/>
<path d="M30.8794 0.647131C29.7006 0.632749 28.5362 0.80534 27.4285 1.16491V6.61596C27.6841 6.29953 27.9823 5.9975 28.3089 5.75299C28.9906 5.23522 29.8568 4.97632 30.8794 4.97632C31.9161 4.97632 32.7823 5.23522 33.464 5.75299C33.8758 6.05503 34.2308 6.42898 34.5148 6.84607V1.23682C33.3504 0.819726 32.1149 0.632749 30.8794 0.647131Z" fill="url(#paint8_linear_2424_53)"/>
<path d="M40.564 10.3111C40.564 11.5192 40.3651 12.7274 39.9534 13.8636C39.5557 15.0142 38.9451 16.0786 38.1356 16.9847C37.2835 17.934 36.2468 18.6962 35.0965 19.1996C33.8895 19.7462 32.4835 20.0194 30.8646 20.0194C29.2456 20.0194 27.8397 19.7462 26.6326 19.1996C25.4823 18.6818 24.4456 17.934 23.6077 16.9847C22.8124 16.0786 22.1876 15.0142 21.7758 13.8636C21.364 12.7274 21.1509 11.5192 21.1509 10.3111C21.1509 9.10294 21.364 7.90924 21.7758 6.78736C22.1876 5.63674 22.7983 4.5868 23.6077 3.68069C24.4456 2.73143 25.4823 1.98353 26.6184 1.48014C26.874 1.36508 27.1297 1.2644 27.3995 1.1781V6.61477C27.1297 6.95995 26.9024 7.34828 26.732 7.75099C26.0361 9.39059 26.0361 11.2316 26.732 12.8713C27.0586 13.6767 27.5983 14.3671 28.2799 14.8848C28.9616 15.4026 29.8279 15.6615 30.8503 15.6615C31.8728 15.6615 32.7533 15.4026 33.435 14.8848C34.1167 14.3671 34.6562 13.6767 34.9829 12.8713C35.6646 11.2316 35.6646 9.39059 34.9829 7.75099C34.8551 7.43455 34.6847 7.11816 34.4858 6.84489V1.23563C34.6847 1.30755 34.8835 1.37945 35.0681 1.48014C36.2185 1.98353 37.2551 2.74582 38.1072 3.68069C38.9166 4.5868 39.5273 5.63674 39.925 6.78736C40.3651 7.92364 40.564 9.10294 40.564 10.3111Z" fill="url(#paint9_linear_2424_53)"/>
<path d="M47.6621 19.7765V12.6571H42.8337V19.7765H47.6621Z" fill="url(#paint10_linear_2424_53)"/>
<path d="M47.6621 0.90567H42.8337V12.6564H47.6621V0.90567Z" fill="url(#paint11_linear_2424_53)"/>
<path d="M62.1064 0.90567V11.3907L62.0922 11.3762V19.3587L62.3904 19.7902H66.8923V0.90567H62.1064Z" fill="url(#paint12_linear_2424_53)"/>
<path d="M62.0917 11.3618V19.3443L55.5591 9.82292V19.7758H50.7733V0.90567H55.2324L62.0917 11.3618Z" fill="url(#paint13_linear_2424_53)"/>
<path d="M69.8173 0.90567V9.20452H74.6454V5.13418H83.3082V0.90567H69.8173Z" fill="url(#paint14_linear_2424_53)"/>
<path d="M82.1723 9.22048V13.2764H74.6454V19.7774H69.8173V9.20609H74.6454V9.22048H82.1723Z" fill="url(#paint15_linear_2424_53)"/>
<path d="M86.2062 0.90567V19.7758H91.0348V0.90567H86.2062Z" fill="url(#paint16_linear_2424_53)"/>
<path d="M99.8371 15.5321H91.0466V19.7606H99.8371V15.5321Z" fill="url(#paint17_linear_2424_53)"/>
<path d="M98.5728 8.19684H91.0466V12.224H98.5728V8.19684Z" fill="url(#paint18_linear_2424_53)"/>
<path d="M99.7087 0.90567H91.0466V5.13418H99.7087V0.90567Z" fill="url(#paint19_linear_2424_53)"/>
<path d="M116.923 5.00508C116.738 4.50168 116.483 4.02705 116.171 3.59557C115.332 2.4018 114.14 1.51008 112.762 1.0786C111.925 0.790943 110.902 0.661499 109.709 0.661499C108.175 0.661499 106.869 0.920389 105.761 1.42378C104.653 1.92718 103.801 2.64632 103.205 3.53804C102.622 4.41539 102.31 5.45094 102.31 6.51526H107.054C107.054 6.47212 107.054 6.42897 107.054 6.38582C107.054 6.09816 107.138 5.81051 107.295 5.566C107.494 5.26396 107.777 5.01946 108.104 4.87563C108.488 4.68866 108.984 4.58798 109.624 4.58798C110.306 4.58798 110.831 4.68866 111.228 4.87563C111.57 5.03384 111.868 5.26397 112.124 5.53724C112.336 5.82489 112.506 6.14131 112.606 6.4865H117.363C117.25 5.9831 117.108 5.47971 116.923 5.00508Z" fill="url(#paint20_linear_2424_53)"/>
<path d="M117.858 13.9656C117.872 15.0731 117.56 16.1662 116.949 17.101C116.338 18.0215 115.472 18.7263 114.336 19.2584C113.2 19.7761 111.807 20.0351 110.147 20.0351C108.855 20.0351 107.746 19.8768 106.838 19.5748C106.014 19.3303 105.261 18.9277 104.58 18.4099C104.025 17.9784 103.543 17.4606 103.159 16.8853C102.847 16.4106 102.578 15.8928 102.379 15.3463C102.193 14.8141 102.066 14.2676 101.967 13.7067H106.852C106.966 14.1382 107.15 14.5409 107.391 14.9004C107.676 15.26 108.03 15.5333 108.428 15.7203C108.897 15.9648 109.536 16.0798 110.346 16.0798C111.339 16.0798 112.035 15.8928 112.418 15.5045C112.816 15.1162 113.015 14.7135 113.015 14.2676C113.029 13.8936 112.873 13.5198 112.575 13.2896C112.276 13.0451 111.766 12.8581 111.041 12.7431L108.556 12.3403C107.505 12.1677 106.482 11.8657 105.502 11.4486C104.594 11.0746 103.785 10.4706 103.174 9.6939C102.578 8.93164 102.279 7.92483 102.279 6.68792C102.279 6.64477 102.279 6.58724 102.279 6.5441H107.051C107.079 6.9612 107.348 7.33515 107.732 7.49332C108.272 7.75218 108.84 7.92483 109.436 8.01112L112.049 8.44263C113.044 8.60081 114.024 8.90285 114.932 9.34876C115.784 9.7514 116.508 10.3699 117.063 11.1321C117.588 11.8801 117.858 12.8293 117.858 13.9656Z" fill="url(#paint21_linear_2424_53)"/>
<path d="M124.521 0.90567V5.13418H124.535V19.7614H129.363V0.90567H124.521Z" fill="url(#paint22_linear_2424_53)"/>
<path d="M135.003 0.90567H129.365V5.13418H135.003V0.90567Z" fill="url(#paint23_linear_2424_53)"/>
<path d="M124.503 0.90567H118.88V5.13418H124.503V0.90567Z" fill="url(#paint24_linear_2424_53)"/>
<path d="M13.9352 12.8009C13.7932 13.3043 13.5659 13.779 13.2819 14.2104C12.9695 14.6275 12.5576 14.9583 12.089 15.1884C11.5494 15.4761 10.8251 15.6199 9.94462 15.6199C8.89374 15.6199 8.01329 15.3466 7.31741 14.8001C6.60735 14.2535 6.0677 13.5344 5.74107 12.7146C5.69847 12.5996 5.64167 12.4845 5.61326 12.3695H0.259399C0.358808 12.8297 0.486619 13.2899 0.642832 13.7501C1.05467 14.9439 1.67952 16.037 2.5032 17.0007C3.35527 17.9931 4.40616 18.7698 5.58486 19.3019C6.82037 19.8772 8.26888 20.1648 9.90203 20.1648C11.3079 20.1648 12.5009 19.9923 13.4949 19.6327C14.4038 19.3307 15.2417 18.8705 15.9802 18.2663C16.605 17.763 17.1304 17.1589 17.5564 16.4829C17.9115 15.9219 18.2097 15.3323 18.437 14.7138C18.6358 14.1385 18.792 13.5633 18.9056 12.9591C18.9056 12.9016 18.9198 12.8584 18.934 12.8153L13.9352 12.8009Z" fill="url(#paint25_linear_2424_53)"/>
<path d="M18.9061 7.34957H13.9358C13.7938 6.84617 13.5665 6.37154 13.2825 5.94006C12.9701 5.52296 12.5582 5.17777 12.0896 4.94765C11.55 4.65999 10.8257 4.51617 9.9452 4.51617C8.89432 4.51617 8.01387 4.78945 7.318 5.3216C6.60794 5.85376 6.06829 6.5729 5.74166 7.4071C5.0884 8.98914 5.0458 10.7582 5.61386 12.3691H0.245791C-0.180246 10.3843 -0.0524355 8.29885 0.629223 6.38592C1.04106 5.20654 1.66591 4.11346 2.48958 3.1642C3.34166 2.18617 4.39255 1.39512 5.57125 0.86296C6.80676 0.287654 8.25529 0 9.88844 0C11.2943 0 12.4873 0.186974 13.4813 0.53216C14.3902 0.834203 15.2281 1.29444 15.9665 1.89852C16.5772 2.40191 17.1168 3.00598 17.5428 3.66759C17.8979 4.22852 18.1961 4.8182 18.4234 5.45104C18.6364 6.05511 18.7926 6.68796 18.9061 7.34957Z" fill="url(#paint26_linear_2424_53)"/>
<path d="M74.411 33.3761V26.1288H77.5746C78.0383 26.1288 78.4337 26.2104 78.7594 26.3737C79.0859 26.5368 79.3344 26.7555 79.5036 27.0298C79.6802 27.304 79.7677 27.6043 79.7677 27.9308C79.7677 28.2638 79.7062 28.538 79.5823 28.7534C79.465 28.9689 79.3211 29.1386 79.1512 29.2628C78.988 29.3803 78.8381 29.4618 78.7008 29.5076V29.5762C78.8707 29.6219 79.0599 29.71 79.2692 29.8405C79.4843 29.9712 79.6705 30.1572 79.8271 30.3988C79.9844 30.6339 80.0623 30.9407 80.0623 31.3193C80.0623 31.6589 79.9799 31.9886 79.8175 32.3086C79.6542 32.622 79.396 32.8798 79.0436 33.0822C78.6905 33.2781 78.2238 33.3761 77.6428 33.3761H74.411ZM77.398 27.255H75.7435V29.1452H77.398C77.7771 29.1452 78.0509 29.0505 78.2208 28.8612C78.3907 28.6718 78.4753 28.4498 78.4753 28.1952C78.4753 27.9472 78.3907 27.7284 78.2208 27.539C78.0509 27.3497 77.7771 27.255 77.398 27.255ZM77.4967 30.1638H75.7435V32.2498H77.4967C77.927 32.2498 78.2408 32.1453 78.4367 31.9364C78.6326 31.7275 78.7305 31.4826 78.7305 31.2019C78.7305 30.9276 78.6326 30.686 78.4367 30.4771C78.2408 30.2682 77.927 30.1638 77.4967 30.1638ZM81.3703 35.2858C81.2012 35.2858 81.0595 35.2793 80.9489 35.2662C80.8443 35.2532 80.7931 35.2466 80.7931 35.2466V34.1791C80.7931 34.1791 80.8413 34.1824 80.9393 34.1889C81.0372 34.202 81.1515 34.2085 81.282 34.2085C81.6152 34.2085 81.8897 34.153 82.1048 34.0419C82.3267 33.9376 82.5129 33.7383 82.6628 33.4446L80.7137 28.1854H82.0366L83.3387 31.8874L84.6215 28.1854H85.9444L84.0443 33.2487C83.7831 33.9407 83.447 34.4533 83.0352 34.7863C82.6242 35.1193 82.0685 35.2858 81.3703 35.2858ZM74.0488 41.9511C74.0488 41.2786 74.1988 40.678 74.4993 40.1491C74.8064 39.6137 75.2212 39.1991 75.7435 38.9053C76.2725 38.605 76.8623 38.4548 77.516 38.4548C78.2794 38.4548 78.9486 38.6507 79.5236 39.0424C80.0979 39.4342 80.4993 39.9761 80.7285 40.6682H79.1512C78.9946 40.3418 78.7728 40.0969 78.4849 39.9337C78.2045 39.7704 77.878 39.6888 77.5063 39.6888C77.1079 39.6888 76.7518 39.7835 76.4387 39.9728C76.1315 40.1556 75.8904 40.4169 75.7138 40.7563C75.5439 41.0958 75.4593 41.4941 75.4593 41.9511C75.4593 42.4017 75.5439 42.8 75.7138 43.146C75.8904 43.4854 76.1315 43.7499 76.4387 43.9392C76.7518 44.122 77.1079 44.2135 77.5063 44.2135C77.878 44.2135 78.2045 44.1319 78.4849 43.9687C78.7728 43.7989 78.9946 43.5508 79.1512 43.2243H80.7285C80.4993 43.923 80.0979 44.4681 79.5236 44.8599C78.9553 45.2451 78.2861 45.4376 77.516 45.4376C76.8623 45.4376 76.2725 45.2908 75.7435 44.997C75.2212 44.6967 74.8064 44.282 74.4993 43.7532C74.1988 43.2243 74.0488 42.6236 74.0488 41.9511ZM84.3084 45.4671C83.7861 45.4671 83.3164 45.3528 82.8987 45.1243C82.481 44.8892 82.1508 44.5595 81.909 44.1351C81.6745 43.7108 81.5565 43.221 81.5565 42.6661C81.5565 42.1112 81.6775 41.6214 81.9186 41.197C82.1672 40.7726 82.5033 40.4462 82.9276 40.2177C83.3513 39.9826 83.8246 39.8651 84.3477 39.8651C84.87 39.8651 85.3434 39.9826 85.7678 40.2177C86.1914 40.4462 86.5245 40.7726 86.7664 41.197C87.015 41.6214 87.1389 42.1112 87.1389 42.6661C87.1389 43.221 87.012 43.7108 86.7568 44.1351C86.5082 44.5595 86.1692 44.8892 85.7381 45.1243C85.3137 45.3528 84.8366 45.4671 84.3084 45.4671ZM84.3084 44.2723C84.5562 44.2723 84.7884 44.2135 85.0036 44.096C85.2254 43.9719 85.402 43.789 85.5326 43.5475C85.6632 43.306 85.7284 43.0121 85.7284 42.6661C85.7284 42.1503 85.5919 41.7553 85.3174 41.481C85.0496 41.2004 84.7202 41.0599 84.3284 41.0599C83.9359 41.0599 83.6065 41.2004 83.3387 41.481C83.0775 41.7553 82.9469 42.1503 82.9469 42.6661C82.9469 43.1818 83.0745 43.5801 83.329 43.8609C83.5902 44.1351 83.9166 44.2723 84.3084 44.2723ZM88.8401 39.3069C88.5983 39.3069 88.3957 39.2318 88.2332 39.0816C88.0759 38.9249 87.9973 38.7323 87.9973 38.5038C87.9973 38.2753 88.0759 38.0859 88.2332 37.9358C88.3957 37.7791 88.5983 37.7007 88.8401 37.7007C89.0813 37.7007 89.2801 37.7791 89.4374 37.9358C89.6006 38.0859 89.6822 38.2753 89.6822 38.5038C89.6822 38.7323 89.6006 38.9249 89.4374 39.0816C89.2801 39.2318 89.0813 39.3069 88.8401 39.3069ZM89.516 39.9532V45.3789H88.1442V39.9532H89.516ZM93.8764 39.8749C94.5234 39.8749 95.0457 40.0806 95.4441 40.4919C95.8418 40.8968 96.0414 41.4647 96.0414 42.196V45.3789H94.6703V42.3821C94.6703 41.9511 94.5619 41.6214 94.3468 41.3929C94.1316 41.1578 93.8378 41.0403 93.4654 41.0403C93.087 41.0403 92.7865 41.1578 92.5646 41.3929C92.3495 41.6214 92.2412 41.9511 92.2412 42.3821V45.3789H90.8708V39.9532H92.2412V40.629C92.4244 40.3939 92.6559 40.2111 92.9364 40.0806C93.2242 39.9435 93.5373 39.8749 93.8764 39.8749ZM99.6071 44.1155L100.979 39.9532H102.438L100.43 45.3789H98.7657L96.767 39.9532H98.2367L99.6071 44.1155ZM108.251 42.5485C108.251 42.7444 108.239 42.9207 108.213 43.0775H104.246C104.278 43.4692 104.416 43.776 104.657 43.998C104.899 44.22 105.196 44.331 105.549 44.331C106.058 44.331 106.42 44.1123 106.635 43.6748H108.114C107.958 44.1972 107.657 44.628 107.213 44.9676C106.769 45.3006 106.224 45.4671 105.578 45.4671C105.056 45.4671 104.585 45.3528 104.168 45.1243C103.757 44.8892 103.433 44.5595 103.198 44.1351C102.97 43.7108 102.855 43.221 102.855 42.6661C102.855 42.1046 102.97 41.6117 103.198 41.1873C103.427 40.7628 103.746 40.4365 104.158 40.2079C104.569 39.9794 105.043 39.8651 105.578 39.8651C106.094 39.8651 106.554 39.9761 106.959 40.1981C107.37 40.4201 107.687 40.7367 107.909 41.1481C108.138 41.5529 108.251 42.0197 108.251 42.5485ZM106.831 42.1568C106.825 41.8042 106.698 41.5235 106.45 41.3146C106.201 41.0992 105.898 40.9914 105.539 40.9914C105.199 40.9914 104.912 41.0958 104.677 41.3047C104.448 41.5071 104.308 41.7912 104.256 42.1568H106.831ZM111.329 45.4671C110.885 45.4671 110.486 45.3887 110.134 45.232C109.781 45.0688 109.501 44.85 109.292 44.5759C109.09 44.3016 108.978 43.998 108.959 43.6651H110.339C110.366 43.874 110.467 44.0469 110.643 44.1841C110.826 44.3212 111.051 44.3897 111.319 44.3897C111.58 44.3897 111.783 44.3375 111.926 44.2331C112.076 44.1286 112.151 43.9948 112.151 43.8315C112.151 43.6552 112.06 43.5247 111.877 43.4397C111.701 43.3484 111.416 43.2504 111.025 43.146C110.62 43.048 110.287 42.9468 110.027 42.8424C109.772 42.7379 109.549 42.578 109.361 42.3625C109.177 42.147 109.086 41.8565 109.086 41.4909C109.086 41.1905 109.171 40.9163 109.341 40.6682C109.517 40.4201 109.765 40.2242 110.085 40.0806C110.411 39.937 110.793 39.8651 111.23 39.8651C111.877 39.8651 112.393 40.0283 112.778 40.3548C113.163 40.6747 113.375 41.1089 113.415 41.6573H112.102C112.083 41.4419 111.991 41.2721 111.828 41.1481C111.672 41.0175 111.46 40.9522 111.192 40.9522C110.943 40.9522 110.751 40.998 110.614 41.0893C110.483 41.1808 110.418 41.3081 110.418 41.4712C110.418 41.6541 110.51 41.7945 110.692 41.8924C110.875 41.9838 111.159 42.0785 111.544 42.1764C111.936 42.2744 112.259 42.3756 112.513 42.48C112.768 42.5845 112.986 42.7477 113.17 42.9697C113.36 43.1852 113.457 43.4724 113.463 43.8315C113.463 44.145 113.375 44.4256 113.199 44.6737C113.029 44.9219 112.781 45.1178 112.454 45.2613C112.135 45.3985 111.759 45.4671 111.329 45.4671ZM116.186 41.0795V43.7042C116.186 43.8871 116.228 44.0208 116.313 44.1057C116.405 44.1841 116.554 44.2232 116.763 44.2232H117.4V45.3789H116.538C115.383 45.3789 114.804 44.8174 114.804 43.6944V41.0795H114.159V39.9532H114.804V38.6115H116.186V39.9532H117.4V41.0795H116.186ZM121.667 44.6052C121.517 44.8533 121.272 45.0623 120.933 45.232C120.593 45.3953 120.228 45.4769 119.836 45.4769C119.496 45.4769 119.189 45.4083 118.914 45.2712C118.641 45.134 118.426 44.9447 118.269 44.7032C118.112 44.4616 118.034 44.1841 118.034 43.8707C118.034 43.368 118.22 42.9567 118.592 42.6367C118.97 42.3167 119.535 42.1568 120.286 42.1568H121.667C121.654 41.8107 121.553 41.5365 121.363 41.3342C121.181 41.1253 120.926 41.0207 120.599 41.0207C120.312 41.0207 120.073 41.0992 119.885 41.2558C119.696 41.4059 119.575 41.6182 119.522 41.8924H118.151C118.216 41.5006 118.357 41.1513 118.572 40.8445C118.794 40.5311 119.081 40.2895 119.434 40.1198C119.793 39.9435 120.194 39.8554 120.639 39.8554C121.095 39.8554 121.508 39.95 121.873 40.1394C122.244 40.3287 122.535 40.5997 122.744 40.9522C122.953 41.3047 123.058 41.7194 123.058 42.196V45.3789H121.667V44.6052ZM120.237 44.3701C120.466 44.3701 120.687 44.3212 120.904 44.2232C121.125 44.1254 121.308 43.9784 121.452 43.7825C121.595 43.5866 121.667 43.3549 121.667 43.0872V43.048H120.365C120.051 43.048 119.817 43.1101 119.659 43.2342C119.509 43.3581 119.434 43.5214 119.434 43.7238C119.434 43.9196 119.503 44.0764 119.64 44.1938C119.783 44.3114 119.982 44.3701 120.237 44.3701ZM126.487 45.4671C126.044 45.4671 125.645 45.3887 125.293 45.232C124.94 45.0688 124.659 44.85 124.451 44.5759C124.248 44.3016 124.138 43.998 124.118 43.6651H125.499C125.524 43.874 125.626 44.0469 125.802 44.1841C125.985 44.3212 126.21 44.3897 126.478 44.3897C126.739 44.3897 126.941 44.3375 127.085 44.2331C127.235 44.1286 127.311 43.9948 127.311 43.8315C127.311 43.6552 127.219 43.5247 127.036 43.4397C126.86 43.3484 126.576 43.2504 126.184 43.146C125.78 43.048 125.446 42.9468 125.185 42.8424C124.93 42.7379 124.708 42.578 124.519 42.3625C124.336 42.147 124.245 41.8565 124.245 41.4909C124.245 41.1905 124.33 40.9163 124.5 40.6682C124.676 40.4201 124.924 40.2242 125.244 40.0806C125.57 39.937 125.952 39.8651 126.39 39.8651C127.036 39.8651 127.552 40.0283 127.937 40.3548C128.323 40.6747 128.535 41.1089 128.574 41.6573H127.261C127.241 41.4419 127.15 41.2721 126.987 41.1481C126.83 41.0175 126.618 40.9522 126.35 40.9522C126.103 40.9522 125.91 40.998 125.773 41.0893C125.642 41.1808 125.577 41.3081 125.577 41.4712C125.577 41.6541 125.668 41.7945 125.851 41.8924C126.034 41.9838 126.318 42.0785 126.703 42.1764C127.094 42.2744 127.418 42.3756 127.673 42.48C127.928 42.5845 128.146 42.7477 128.329 42.9697C128.518 43.1852 128.616 43.4724 128.623 43.8315C128.623 44.145 128.535 44.4256 128.359 44.6737C128.189 44.9219 127.941 45.1178 127.614 45.2613C127.294 45.3985 126.918 45.4671 126.487 45.4671ZM130.443 39.3069C130.202 39.3069 129.999 39.2318 129.837 39.0816C129.68 38.9249 129.601 38.7323 129.601 38.5038C129.601 38.2753 129.68 38.0859 129.837 37.9358C129.999 37.7791 130.202 37.7007 130.443 37.7007C130.685 37.7007 130.884 37.7791 131.041 37.9358C131.204 38.0859 131.286 38.2753 131.286 38.5038C131.286 38.7323 131.204 38.9249 131.041 39.0816C130.884 39.2318 130.685 39.3069 130.443 39.3069ZM131.119 39.9532V45.3789H129.748V39.9532H131.119Z" fill="white"/>
</g>
</g>
<defs>
<linearGradient id="paint0_linear_2424_53" x1="44.6583" y1="41.1724" x2="39.8355" y2="41.1724" gradientUnits="userSpaceOnUse">
<stop stop-color="white"/>
<stop offset="0.84" stop-color="white" stop-opacity="0"/>
</linearGradient>
<linearGradient id="paint1_linear_2424_53" x1="39.8356" y1="31.7337" x2="44.8059" y2="31.7337" gradientUnits="userSpaceOnUse">
<stop stop-color="white"/>
<stop offset="1" stop-color="white"/>
</linearGradient>
<linearGradient id="paint2_linear_2424_53" x1="20.8422" y1="28.5294" x2="35.8913" y2="28.5294" gradientUnits="userSpaceOnUse">
<stop offset="0.02" stop-color="white" stop-opacity="0"/>
<stop offset="1" stop-color="white"/>
</linearGradient>
<linearGradient id="paint3_linear_2424_53" x1="20.4916" y1="38.2213" x2="36.836" y2="38.2213" gradientUnits="userSpaceOnUse">
<stop stop-color="white"/>
<stop offset="1" stop-color="white"/>
</linearGradient>
<linearGradient id="paint4_linear_2424_53" x1="1.49461" y1="45.369" x2="9.85854" y2="25.4521" gradientUnits="userSpaceOnUse">
<stop stop-color="white"/>
<stop offset="0.84" stop-color="white" stop-opacity="0"/>
</linearGradient>
<linearGradient id="paint5_linear_2424_53" x1="6.02246" y1="35.3086" x2="19.2818" y2="35.3086" gradientUnits="userSpaceOnUse">
<stop stop-color="white"/>
<stop offset="1" stop-color="white"/>
</linearGradient>
<linearGradient id="paint6_linear_2424_53" x1="49.2003" y1="45.3685" x2="57.5641" y2="25.4521" gradientUnits="userSpaceOnUse">
<stop stop-color="white"/>
<stop offset="0.84" stop-color="white" stop-opacity="0"/>
</linearGradient>
<linearGradient id="paint7_linear_2424_53" x1="53.7222" y1="35.3086" x2="66.9816" y2="35.3086" gradientUnits="userSpaceOnUse">
<stop stop-color="white"/>
<stop offset="1" stop-color="white"/>
</linearGradient>
<linearGradient id="paint8_linear_2424_53" x1="30.9667" y1="6.83598" x2="30.9667" y2="0.647017" gradientUnits="userSpaceOnUse">
<stop stop-color="white"/>
<stop offset="0.84" stop-color="white" stop-opacity="0"/>
</linearGradient>
<linearGradient id="paint9_linear_2424_53" x1="21.1509" y1="10.5988" x2="41.135" y2="10.5988" gradientUnits="userSpaceOnUse">
<stop stop-color="white"/>
<stop offset="1" stop-color="white"/>
</linearGradient>
<linearGradient id="paint10_linear_2424_53" x1="47.658" y1="16.2204" x2="42.8323" y2="16.2204" gradientUnits="userSpaceOnUse">
<stop stop-color="white"/>
<stop offset="0.84" stop-color="white" stop-opacity="0"/>
</linearGradient>
<linearGradient id="paint11_linear_2424_53" x1="42.8337" y1="6.781" x2="47.8041" y2="6.781" gradientUnits="userSpaceOnUse">
<stop stop-color="white"/>
<stop offset="1" stop-color="white"/>
</linearGradient>
<linearGradient id="paint12_linear_2424_53" x1="64.4929" y1="0.90133" x2="64.4929" y2="19.793" gradientUnits="userSpaceOnUse">
<stop stop-color="white"/>
<stop offset="0.84" stop-color="white" stop-opacity="0"/>
</linearGradient>
<linearGradient id="paint13_linear_2424_53" x1="50.7733" y1="10.3407" x2="62.4246" y2="10.3407" gradientUnits="userSpaceOnUse">
<stop stop-color="white"/>
<stop offset="1" stop-color="white"/>
</linearGradient>
<linearGradient id="paint14_linear_2424_53" x1="69.823" y1="5.05003" x2="83.303" y2="5.05003" gradientUnits="userSpaceOnUse">
<stop offset="0.02" stop-color="white" stop-opacity="0"/>
<stop offset="1" stop-color="white"/>
</linearGradient>
<linearGradient id="paint15_linear_2424_53" x1="69.8173" y1="14.4918" x2="82.5359" y2="14.4918" gradientUnits="userSpaceOnUse">
<stop stop-color="white"/>
<stop offset="1" stop-color="white"/>
</linearGradient>
<linearGradient id="paint16_linear_2424_53" x1="88.6153" y1="19.7787" x2="88.6153" y2="0.901337" gradientUnits="userSpaceOnUse">
<stop stop-color="white"/>
<stop offset="0.84" stop-color="white" stop-opacity="0"/>
</linearGradient>
<linearGradient id="paint17_linear_2424_53" x1="91.0466" y1="17.6464" x2="100.095" y2="17.6464" gradientUnits="userSpaceOnUse">
<stop stop-color="white"/>
<stop offset="1" stop-color="white"/>
</linearGradient>
<linearGradient id="paint18_linear_2424_53" x1="91.0466" y1="10.2104" x2="98.7947" y2="10.2104" gradientUnits="userSpaceOnUse">
<stop stop-color="white"/>
<stop offset="1" stop-color="white"/>
</linearGradient>
<linearGradient id="paint19_linear_2424_53" x1="91.0466" y1="3.01993" x2="99.964" y2="3.01993" gradientUnits="userSpaceOnUse">
<stop stop-color="white"/>
<stop offset="1" stop-color="white"/>
</linearGradient>
<linearGradient id="paint20_linear_2424_53" x1="102.299" y1="3.58838" x2="117.363" y2="3.58838" gradientUnits="userSpaceOnUse">
<stop offset="0.02" stop-color="white" stop-opacity="0"/>
<stop offset="1" stop-color="white"/>
</linearGradient>
<linearGradient id="paint21_linear_2424_53" x1="101.967" y1="13.2896" x2="118.325" y2="13.2896" gradientUnits="userSpaceOnUse">
<stop stop-color="white"/>
<stop offset="1" stop-color="white"/>
</linearGradient>
<linearGradient id="paint22_linear_2424_53" x1="126.938" y1="19.7643" x2="126.938" y2="0.901337" gradientUnits="userSpaceOnUse">
<stop stop-color="white"/>
<stop offset="0.84" stop-color="white" stop-opacity="0"/>
</linearGradient>
<linearGradient id="paint23_linear_2424_53" x1="129.365" y1="3.01993" x2="135.169" y2="3.01993" gradientUnits="userSpaceOnUse">
<stop stop-color="white"/>
<stop offset="1" stop-color="white"/>
</linearGradient>
<linearGradient id="paint24_linear_2424_53" x1="118.88" y1="3.01993" x2="124.668" y2="3.01993" gradientUnits="userSpaceOnUse">
<stop stop-color="white"/>
<stop offset="1" stop-color="white"/>
</linearGradient>
<linearGradient id="paint25_linear_2424_53" x1="18.9226" y1="16.2498" x2="0.252272" y2="16.2498" gradientUnits="userSpaceOnUse">
<stop stop-color="white"/>
<stop offset="0.84" stop-color="white" stop-opacity="0"/>
</linearGradient>
<linearGradient id="paint26_linear_2424_53" x1="1.51325e-07" y1="6.18457" x2="19.4623" y2="6.18457" gradientUnits="userSpaceOnUse">
<stop stop-color="white"/>
<stop offset="1" stop-color="white"/>
</linearGradient>
<clipPath id="clip0_2424_53">
<rect width="135.032" height="46" fill="white"/>
</clipPath>
</defs>
</svg>
