<svg width="137" height="37" viewBox="0 0 137 37" fill="none" xmlns="http://www.w3.org/2000/svg">
<g clip-path="url(#clip0_3353_4193)">
<path d="M65.4237 7.19438H65.108C62.6943 7.19438 60.2703 7.19438 57.8566 7.18419C57.2862 7.18419 56.8483 6.73607 56.8381 6.15554C56.8279 4.62785 56.8381 3.10015 56.8381 1.58264C56.8381 1.0123 57.2658 0.564176 57.8362 0.523438H71.7993C72.1965 0.523438 72.5428 0.635469 72.7669 0.971562C72.8687 1.13452 72.9095 1.33821 72.9706 1.53172C72.9909 1.58264 72.9706 1.65393 72.9706 1.70486V35.2429C72.9706 35.854 72.665 36.2817 72.1354 36.3937C72.0336 36.4141 71.9215 36.4141 71.8095 36.4141H57.989C57.2557 36.4141 56.8279 35.9864 56.8279 35.2633V30.894C56.8279 30.1811 57.2455 29.7534 57.9584 29.7534H65.4136C65.4237 22.2371 65.4237 14.731 65.4237 7.19438ZM34.1874 7.19438V29.7534H34.5032C36.8558 29.7534 39.1983 29.7737 41.5509 29.7432C42.4065 29.733 42.824 30.3135 42.8037 30.9959C42.7833 32.4116 42.8037 33.8272 42.7935 35.2429C42.7935 35.854 42.4777 36.2817 41.9583 36.3937C41.8565 36.4141 41.7445 36.4243 41.6324 36.4243H27.8119C27.0684 36.4243 26.6406 36.0067 26.6406 35.2633V1.70486C26.6406 0.951192 27.0684 0.523438 27.8119 0.523438H41.6324C42.3555 0.523438 42.7935 0.951192 42.8037 1.6743C42.8138 3.14089 42.8037 4.60748 42.8037 6.07407C42.8037 6.76662 42.2435 7.20456 41.7139 7.19438C39.3103 7.17401 36.9169 7.19438 34.5134 7.19438H34.1874Z" fill="#0B0B0B"/>
<path d="M54.7688 19.2334V23.5517C54.7688 24.0304 54.6262 24.1628 54.1476 24.1628H51.2959C50.9088 24.1628 50.7357 23.9896 50.7357 23.6026V13.0513C50.7357 12.6439 50.8987 12.481 51.306 12.481H53.8013C54.1476 12.481 54.4124 12.6032 54.6262 12.8986C55.7465 14.4466 56.8669 15.9845 57.9872 17.5224C58.0381 17.5937 58.089 17.6548 58.1807 17.777C58.1909 17.6344 58.1909 17.5428 58.1909 17.4613V13.143C58.1909 12.6338 58.3334 12.4912 58.8427 12.4912H61.5925C62.0814 12.4912 62.2443 12.6541 62.2443 13.1532V23.5211C62.2443 24.0202 62.0916 24.173 61.5925 24.173C60.7981 24.173 59.9935 24.1628 59.1991 24.173C58.8325 24.1831 58.5677 24.0406 58.3538 23.7554C57.203 22.2888 56.0521 20.8222 54.9012 19.3658C54.8707 19.3251 54.8401 19.3047 54.7688 19.2334ZM40.5918 15.9234H37.7197C37.2512 15.9234 37.0985 15.7706 37.0985 15.2919V13.0513C37.0985 12.6439 37.2716 12.4708 37.6688 12.4708H48.0775C48.4645 12.4708 48.6275 12.6439 48.6377 13.031V15.3429C48.6377 15.7503 48.4645 15.9132 48.0571 15.9132H45.1647V20.7102H47.8229C47.9451 20.7102 48.0571 20.7204 48.1794 20.7305C48.4849 20.7611 48.6275 20.8935 48.6377 21.1889C48.6479 22.0138 48.6479 22.8286 48.6377 23.6535C48.6377 23.9896 48.4442 24.1424 48.0673 24.1424H37.6892C37.292 24.1424 37.1188 23.9693 37.1188 23.5721V21.2805C37.1188 20.8629 37.292 20.7 37.7095 20.7H40.6122C40.5918 19.1112 40.5918 17.5326 40.5918 15.9234ZM1.81886 7.53125V14.1411C1.91052 14.0902 1.98182 14.0494 2.04292 14.0087C4.39558 12.369 9.27402 12.9597 10.2008 17.4816C10.5165 18.9992 10.4045 20.4963 9.64067 21.8712C8.81571 23.3582 7.49171 24.1933 5.85198 24.5192C3.87616 24.9062 2.03274 24.4887 0.28098 23.5619C0.107841 23.4702 0.107841 23.348 0.107841 23.1952V16.8604C0.107841 14.0494 0.107841 11.2283 0.0976562 8.41731C0.0976562 8.19325 0.148579 8.0914 0.372642 8.02011C0.861504 7.88771 1.31981 7.70439 1.81886 7.53125ZM1.81886 19.1723C1.81886 20.2213 1.82905 21.2703 1.81886 22.3194C1.81886 22.5129 1.86978 22.6045 2.05311 22.6656C3.14286 23.0425 4.25299 23.2156 5.40386 23.0425C7.00284 22.7878 8.0926 21.8407 8.46943 20.3232C8.63239 19.6612 8.66294 18.9788 8.59165 18.3066C8.45925 17.115 8.00094 16.0863 6.98248 15.3836C6.1066 14.7827 5.12887 14.6809 4.11041 14.8336C3.33637 14.9457 2.61326 15.1799 1.992 15.6891C1.86978 15.791 1.81886 15.8928 1.81886 16.0558V19.1723ZM105.875 13.2958H107.535V14.467C107.698 14.3244 107.831 14.2022 107.963 14.0902C109.603 12.6949 111.905 12.4912 113.646 13.6013C114.4 14.08 114.991 14.7216 115.347 15.5364C116.172 17.4002 116.203 19.2945 115.347 21.1481C114.339 23.3073 112.139 24.4378 109.786 24.0915C109.002 23.9794 108.269 23.7656 107.556 23.3073V27.7783C107.556 28.0024 107.505 28.0737 107.271 28.0635C106.812 28.0431 106.354 28.0635 105.886 28.0635C105.875 23.1341 105.875 18.2251 105.875 13.2958ZM107.535 18.9279C107.535 19.7936 107.546 20.6593 107.525 21.5148C107.525 21.7083 107.586 21.8203 107.749 21.9222C108.666 22.5027 109.684 22.7471 110.754 22.686C112.18 22.6045 113.229 21.9018 113.789 20.5778C114.329 19.3047 114.359 17.9705 113.942 16.6567C113.656 15.7604 113.056 15.1086 112.169 14.7522C110.632 14.1309 108.87 14.5892 107.698 15.903C107.607 16.0049 107.546 16.1678 107.546 16.3002C107.535 17.1863 107.535 18.0622 107.535 18.9279ZM22.677 18.9788H13.6025C13.6127 19.8445 13.7553 20.6593 14.2034 21.4027C14.845 22.4416 15.8126 22.961 16.9838 23.0934C18.5726 23.2767 20.0799 22.9406 21.5058 22.2175C21.5669 22.187 21.628 22.1564 21.6993 22.1258V23.7961C20.6706 24.2544 19.5911 24.5294 18.4606 24.6211C17.4319 24.7026 16.4135 24.6618 15.4255 24.3155C13.4599 23.6434 12.309 22.2481 11.9424 20.2213C11.7489 19.1723 11.7693 18.1233 12.0544 17.0946C12.635 15.0068 14.0404 13.7846 16.1385 13.3263C17.3097 13.0717 18.4708 13.0921 19.5809 13.6013C21.1391 14.3244 22.0252 15.5975 22.4122 17.227C22.5548 17.7872 22.5955 18.3677 22.677 18.9788ZM20.8336 17.6853C20.8438 17.6548 20.854 17.6446 20.854 17.6242V17.5529C20.7317 16.5243 20.2836 15.679 19.3772 15.129C18.1245 14.3753 16.2811 14.5077 15.0283 15.4243C14.2645 15.9845 13.8367 16.7484 13.6738 17.6853H20.8336ZM131.103 12.8782C132.793 12.9189 134.26 13.4078 135.401 14.6299C136.164 15.4447 136.582 16.4326 136.735 17.5428C136.918 18.9075 136.776 20.2315 136.083 21.4537C135.289 22.8693 134.036 23.6739 132.467 24.01C131.164 24.285 129.881 24.1831 128.658 23.6535C126.764 22.8184 125.756 21.3314 125.522 19.3047C125.379 18.0825 125.522 16.8808 126.092 15.7706C126.927 14.1513 128.312 13.2856 130.074 12.9698C130.206 12.9495 130.339 12.9291 130.481 12.9189C130.706 12.9087 130.93 12.8986 131.103 12.8782ZM130.818 14.3346C130.156 14.3346 129.269 14.6299 128.506 15.2716C126.876 16.6465 126.815 19.4778 127.844 20.9852C128.781 22.3703 130.145 22.8591 131.755 22.6554C133.16 22.4721 134.189 21.7286 134.769 20.4148C135.105 19.6408 135.177 18.8158 135.105 17.9807C134.912 15.8215 133.313 14.3346 130.818 14.3346ZM99.0007 21.5657C100.192 18.7649 101.353 16.0252 102.514 13.2958H104.195C104.073 13.6013 103.95 13.8967 103.828 14.1818C101.924 18.6223 100.009 23.0526 98.1248 27.5033C97.9313 27.9616 97.7175 28.145 97.2286 28.0839C96.8925 28.0431 96.5564 28.0737 96.1796 28.0737C96.3629 27.6357 96.536 27.2385 96.7092 26.8413C97.1471 25.8229 97.5952 24.8146 98.023 23.7859C98.0637 23.6841 98.0637 23.5313 98.023 23.4295L93.776 13.4995C93.7455 13.4383 93.7251 13.3772 93.6945 13.2856C94.2954 13.2856 94.8658 13.2754 95.4361 13.2958C95.4972 13.2958 95.5685 13.4078 95.5991 13.4791C96.4444 15.4753 97.2795 17.4715 98.1147 19.4677C98.3998 20.1398 98.685 20.812 99.0007 21.5657ZM85.2005 14.9457C84.4672 14.7827 83.7645 14.5892 83.0516 14.4874C81.6461 14.2735 80.3221 14.5179 79.2833 15.5567C78.0407 16.7891 77.7963 18.3168 78.3157 19.926C78.8148 21.4842 79.9656 22.3499 81.5646 22.5943C82.7257 22.7675 83.8358 22.523 84.9357 22.1462C84.9968 22.1258 85.0579 22.1055 85.1292 22.0749H85.2005V23.5924C85.2005 23.6332 85.1496 23.6943 85.0987 23.7146C82.8581 24.3665 80.6582 24.4581 78.6111 23.1239C77.1547 22.1768 76.4723 20.7611 76.3501 19.0603C76.2584 17.8279 76.4417 16.6363 77.0834 15.5567C77.9185 14.1615 79.1916 13.3772 80.7498 13.0513C82.1961 12.7458 83.6321 12.8884 85.0376 13.3467C85.1089 13.3671 85.1904 13.4791 85.1904 13.5504C85.2107 14.0189 85.2005 14.4975 85.2005 14.9457ZM118.902 14.7012H117.028C117.089 14.5587 117.109 14.4364 117.18 14.3448C118.219 13.143 119.258 11.9514 120.307 10.77C120.368 10.6987 120.47 10.6681 120.551 10.6172C120.572 10.7089 120.623 10.8005 120.623 10.8922C120.633 11.5847 120.623 12.2773 120.623 12.98V13.2754H124.136V14.7012H120.623V20.7611C120.623 21.0361 120.643 21.3213 120.684 21.5962C120.786 22.1564 121.061 22.3703 121.641 22.3601C122.415 22.3397 123.149 22.1768 123.872 21.912C123.963 21.8814 124.065 21.8407 124.187 21.7999C124.187 22.2786 124.187 22.7267 124.177 23.185C124.177 23.236 124.116 23.3073 124.065 23.3276C122.986 23.8165 121.865 24.0711 120.684 23.8878C119.879 23.7656 119.339 23.2767 119.126 22.5027C118.993 22.0138 118.922 21.4842 118.922 20.975C118.902 18.989 118.912 17.0132 118.912 15.0271C118.902 14.9253 118.902 14.8336 118.902 14.7012ZM87.431 13.2958H89.1012V15.7299C89.1216 15.7401 89.142 15.7604 89.1624 15.7706C89.8855 13.9068 91.3113 13.0819 93.226 12.9495V14.7725C92.8594 14.8235 92.4724 14.8438 92.1057 14.9253C90.4253 15.3021 89.5494 16.4224 89.2337 18.0418C89.142 18.5205 89.1114 19.0195 89.1012 19.5084C89.0809 20.812 89.0911 22.1157 89.0911 23.4193V23.735H87.4208C87.431 20.2722 87.431 16.7891 87.431 13.2958Z" fill="#0B0B0B"/>
</g>
<defs>
<clipPath id="clip0_3353_4193">
<rect width="136.78" height="35.9518" fill="white" transform="translate(0.109375 0.523438)"/>
</clipPath>
</defs>
</svg>
