<svg width="149" height="39" viewBox="0 0 149 39" fill="none" xmlns="http://www.w3.org/2000/svg">
<g clip-path="url(#clip0_3269_2915)">
<path fill-rule="evenodd" clip-rule="evenodd" d="M83.6931 19.8672C83.6967 20.445 83.5829 21.0175 83.3587 21.5501C83.1426 22.0551 82.8276 22.5117 82.4323 22.8931C81.6089 23.6839 80.5096 24.1225 79.368 24.1155C78.2307 24.1202 77.1367 23.6794 76.3202 22.8876C75.9285 22.5013 75.6174 22.0411 75.4047 21.5336C75.1845 21.0133 75.0708 20.4541 75.0703 19.8891C75.0684 19.3227 75.1861 18.7624 75.4157 18.2446C75.636 17.7371 75.9503 17.2758 76.3421 16.8851C76.7323 16.4861 77.1958 16.166 77.7071 15.9423C78.2278 15.7242 78.787 15.6123 79.3516 15.6134C80.4932 15.6064 81.5925 16.045 82.4159 16.8358C82.8125 17.2182 83.1276 17.6769 83.3423 18.1843C83.5705 18.7162 83.6898 19.2884 83.6931 19.8672ZM79.368 23.1841C78.9249 23.1889 78.4851 23.1062 78.0741 22.9406C77.663 22.7751 77.2886 22.5299 76.9725 22.2193C76.664 21.9199 76.418 21.5621 76.2489 21.1668C76.0758 20.7557 75.9882 20.3137 75.9913 19.8677H76.4572C76.4535 20.2449 76.5301 20.6187 76.682 20.964C76.8208 21.3053 77.03 21.6135 77.2959 21.8685C77.8504 22.4077 78.5947 22.707 79.368 22.7017V23.1841ZM82.2954 19.8675H82.7614C82.7684 19.4163 82.6826 18.9685 82.5092 18.5519C82.3459 18.1578 82.1033 17.8014 81.7966 17.5049C81.4792 17.2032 81.1071 16.965 80.7002 16.8032C80.2781 16.6285 79.825 16.5409 79.3682 16.5456V17.0115C79.7626 17.0075 80.154 17.082 80.5193 17.2308C80.8704 17.3724 81.1907 17.581 81.4622 17.8448C81.7257 18.0964 81.933 18.4009 82.0707 18.7383C82.2247 19.0945 82.3013 19.4794 82.2954 19.8675Z" fill="#0B0B0B"/>
<path d="M87.3964 14.4081H85.2969V12.3086H87.3964V14.4081ZM87.3964 23.908H85.3572V15.8059H87.3964V23.908Z" fill="#0B0B0B"/>
<path d="M96.9268 23.9072H94.915V19.0832C94.9213 18.8208 94.8747 18.5598 94.778 18.3158C94.6986 18.1103 94.5772 17.9236 94.4217 17.7676C94.2749 17.6244 94.0992 17.5141 93.9064 17.4442C93.7169 17.3742 93.5163 17.3389 93.3143 17.34C93.0024 17.3412 92.6929 17.3949 92.3989 17.499C92.0934 17.6114 91.8151 17.787 91.5821 18.0143V23.9072H89.5703V15.8216H91.5821V16.4246C91.7163 16.292 91.8675 16.1777 92.0316 16.0847C92.2078 15.9856 92.391 15.8995 92.5798 15.8271C92.7723 15.7575 92.9703 15.7043 93.1718 15.6681C93.3633 15.6311 93.5579 15.6128 93.7529 15.6133C94.1535 15.6132 94.5515 15.678 94.9315 15.8052C95.3207 15.9364 95.6762 16.1518 95.9728 16.436C96.2693 16.7202 96.4996 17.0663 96.6472 17.4497C96.8329 17.9358 96.9223 18.4534 96.9104 18.9736L96.9268 23.9072Z" fill="#0B0B0B"/>
<path d="M110.948 23.908H108.569L107.538 21.6714H102.106L101.059 23.908H98.6797L103.97 12.7142H105.663L110.948 23.908ZM106.683 19.8679L104.819 15.8334L102.934 19.8679H106.683ZM119.192 23.908H117.131V23.4913C116.881 23.6999 116.592 23.8581 116.282 23.9573C115.964 24.0574 115.633 24.1073 115.3 24.1053C114.758 24.1113 114.222 23.9932 113.733 23.7599C113.265 23.54 112.847 23.2266 112.505 22.839C112.155 22.443 111.882 21.9858 111.699 21.4905C111.503 20.9645 111.404 20.4073 111.408 19.846C111.402 19.2667 111.514 18.6923 111.737 18.1576C111.946 17.6589 112.243 17.202 112.614 16.8091C112.972 16.4455 113.394 16.1517 113.859 15.943C114.309 15.7275 114.801 15.6151 115.3 15.6141C115.642 15.6145 115.981 15.6625 116.309 15.7566C116.609 15.837 116.893 15.9687 117.148 16.1458V12.3086H119.192V23.908ZM117.164 21.7153V17.8232C117.06 17.7544 116.952 17.6921 116.841 17.6368C116.717 17.5736 116.589 17.5204 116.457 17.4779C116.329 17.4385 116.199 17.4073 116.068 17.3847C115.952 17.3601 115.835 17.3472 115.717 17.3463C115.401 17.3425 115.088 17.4022 114.796 17.5217C114.521 17.6347 114.274 17.8069 114.072 18.026C113.859 18.2524 113.697 18.5215 113.595 18.8154C113.478 19.1442 113.42 19.4914 113.426 19.8405C113.421 20.1806 113.478 20.5188 113.595 20.8382C113.697 21.1268 113.853 21.393 114.056 21.6221C114.253 21.842 114.497 22.016 114.769 22.1319C115.165 22.3023 115.603 22.3536 116.028 22.2796C116.454 22.2056 116.848 22.0096 117.164 21.7153ZM128.72 23.908H126.664V23.4913C126.411 23.6988 126.121 23.8569 125.809 23.9573C125.491 24.0574 125.16 24.1073 124.828 24.1053C124.285 24.1113 123.749 23.9932 123.26 23.7599C122.794 23.5371 122.376 23.2241 122.032 22.839C121.683 22.443 121.409 21.9858 121.226 21.4905C121.032 20.9642 120.935 20.4069 120.941 19.846C120.935 19.2667 121.047 18.6923 121.27 18.1576C121.477 17.6591 121.772 17.2022 122.142 16.8091C122.499 16.4455 122.921 16.1517 123.386 15.943C123.836 15.7275 124.329 15.6151 124.828 15.6141C125.169 15.6145 125.508 15.6625 125.836 15.7566C126.136 15.837 126.42 15.9687 126.675 16.1458V12.3086H128.72V23.908ZM126.691 21.7153V17.8232C126.588 17.7532 126.48 17.6909 126.368 17.6368C126.245 17.5736 126.116 17.5204 125.984 17.4779C125.857 17.4385 125.727 17.4073 125.595 17.3847C125.48 17.3601 125.362 17.3472 125.244 17.3463C124.929 17.3425 124.615 17.4022 124.323 17.5217C124.049 17.6361 123.802 17.8081 123.6 18.026C123.387 18.2524 123.224 18.5215 123.123 18.8154C123.005 19.1442 122.948 19.4914 122.953 19.8405C122.948 20.1806 123.006 20.5188 123.123 20.8382C123.224 21.1268 123.381 21.393 123.583 21.6221C123.781 21.842 124.024 22.016 124.296 22.1319C124.693 22.3023 125.13 22.3536 125.556 22.2796C125.981 22.2056 126.376 22.0096 126.691 21.7153ZM132.847 14.4081H130.77V12.3086H132.869L132.847 14.4081ZM132.847 23.908H130.77V15.8059H132.814L132.847 23.908ZM142.281 22.691C141.875 23.1553 141.366 23.5193 140.796 23.7545C140.221 23.9951 139.604 24.1182 138.981 24.1163C138.418 24.1182 137.859 24.0102 137.337 23.7983C136.831 23.5921 136.37 23.2906 135.977 22.9103C135.586 22.5246 135.277 22.0642 135.067 21.5563C134.841 21.0224 134.727 20.4477 134.733 19.8679C134.731 19.3027 134.845 18.743 135.067 18.2234C135.278 17.7173 135.585 17.2573 135.972 16.8694C136.363 16.47 136.831 16.1547 137.348 15.943C137.881 15.7221 138.453 15.6103 139.031 15.6141C139.632 15.6104 140.228 15.724 140.785 15.9485C141.339 16.1734 141.834 16.5221 142.232 16.9681L140.873 18.355C140.656 18.0825 140.39 17.8537 140.089 17.6807C139.755 17.4928 139.375 17.4017 138.992 17.4176C138.689 17.4164 138.389 17.4838 138.115 17.6149C137.84 17.7501 137.593 17.9361 137.386 18.1631C137.06 18.5184 136.841 18.9583 136.754 19.4324C136.667 19.9065 136.715 20.3956 136.893 20.8437C137.007 21.1304 137.173 21.3941 137.381 21.6221C137.587 21.8417 137.835 22.0187 138.11 22.1428C138.386 22.2733 138.687 22.3407 138.992 22.3402C139.377 22.3466 139.756 22.248 140.089 22.0551C140.402 21.8726 140.67 21.6215 140.873 21.3206L142.281 22.691ZM148.13 23.7271C147.911 23.8643 147.67 23.9626 147.418 24.0176C147.152 24.0825 146.88 24.1156 146.607 24.1163C146.197 24.1283 145.789 24.0689 145.401 23.9408C145.093 23.8358 144.821 23.6458 144.617 23.3927C144.406 23.1224 144.259 22.8074 144.189 22.4717C144.095 22.0396 144.051 21.5982 144.058 21.1561V17.6259H142.994V16.7159C143.622 16.4662 144.172 16.0514 144.584 15.5154C145.022 14.9005 145.307 14.1903 145.417 13.4433H146.119V15.8059H148.158V17.6259H146.119V21.3041C146.111 21.4756 146.137 21.6469 146.195 21.8084C146.235 21.927 146.305 22.033 146.398 22.1154C146.478 22.1905 146.577 22.2434 146.683 22.2689C146.794 22.3007 146.908 22.3154 147.023 22.3128C147.218 22.3079 147.411 22.2803 147.599 22.2305C147.8 22.1787 147.987 22.0833 148.147 21.951L148.13 23.7271Z" fill="#0B0B0B"/>
<path d="M54.7869 20.7073C54.7887 21.1543 54.6914 21.5962 54.5018 22.001C54.3151 22.3863 54.0565 22.7324 53.7398 23.0206C53.4184 23.3073 53.0467 23.5322 52.6435 23.6839C52.2272 23.8439 51.7849 23.9257 51.3388 23.9251H46.8164V12.7149H50.8455C51.3041 12.7119 51.76 12.786 52.194 12.9342C52.5984 13.0678 52.9714 13.2823 53.2903 13.5646C53.6046 13.8422 53.8551 14.1844 54.0249 14.5678C54.2006 14.9915 54.2883 15.4466 54.2825 15.9053C54.2827 16.3269 54.1871 16.743 54.003 17.1223C53.8205 17.51 53.5591 17.8554 53.2355 18.1364C53.4745 18.2541 53.6929 18.4096 53.8824 18.5968C54.2681 18.9641 54.5451 19.4308 54.6827 19.9453C54.7512 20.1936 54.7862 20.4498 54.7869 20.7073ZM52.1172 15.9437C52.1223 15.7003 52.0677 15.4594 51.9583 15.242C51.8603 15.0501 51.7197 14.8832 51.5471 14.7541C51.3702 14.619 51.1694 14.5186 50.9551 14.4581C50.7269 14.3938 50.4906 14.3624 50.2535 14.3649H48.9817V17.4402H49.6121H50.2535C50.49 17.439 50.7256 17.4096 50.9551 17.3525C51.1674 17.3033 51.3684 17.214 51.5471 17.0894C51.7215 16.9691 51.8628 16.807 51.9583 16.6179C52.0657 16.4096 52.1203 16.1781 52.1172 15.9437ZM52.5339 20.5757C52.5287 20.3535 52.4764 20.1349 52.3804 19.9344C52.295 19.7453 52.1697 19.577 52.0131 19.441C51.8518 19.3018 51.6659 19.194 51.4649 19.1231C51.2552 19.0499 51.0347 19.0128 50.8126 19.0135C50.4947 19.0135 50.1822 19.0135 49.8752 19.0135H48.9817V22.1052H50.6262C50.8478 22.102 51.0684 22.0744 51.284 22.0229C51.5071 21.97 51.7189 21.8771 51.9089 21.7488C52.0889 21.6246 52.2388 21.4617 52.3475 21.2719C52.4722 21.0633 52.5367 20.8243 52.5339 20.5812V20.5757Z" fill="#0B0B0B"/>
<path d="M58.494 14.4081H56.3945V12.3086H58.494V14.4081ZM58.4666 23.908H56.4274V15.8059H58.4666V23.908Z" fill="#0B0B0B"/>
<path d="M65.1692 23.7291C64.9502 23.8663 64.7091 23.9646 64.4565 24.0196C64.1909 24.0845 63.9186 24.1176 63.6452 24.1183C63.2361 24.1302 62.828 24.0709 62.4392 23.9428C62.1314 23.8378 61.8596 23.6478 61.6554 23.3947C61.4443 23.1244 61.298 22.8094 61.2278 22.4737C61.1339 22.0416 61.0898 21.6002 61.0962 21.1581V17.6279H60.0547V16.7179C60.683 16.4682 61.2322 16.0534 61.6444 15.5174C62.0824 14.9025 62.368 14.1923 62.4776 13.4453H63.1354V15.8079H65.1746V17.6279H63.1354V21.3061C63.128 21.4776 63.1541 21.6489 63.2122 21.8104C63.2513 21.929 63.3213 22.035 63.415 22.1174C63.495 22.1925 63.5933 22.2454 63.7 22.2709C63.8105 22.3027 63.9251 22.3174 64.0399 22.3148C64.2251 22.3078 64.409 22.2802 64.5881 22.2325C64.7891 22.1807 64.9763 22.0853 65.1363 21.953L65.1692 23.7291Z" fill="#0B0B0B"/>
<path d="M73.9937 22.6903C73.5881 23.1532 73.0818 23.517 72.5137 23.7538C71.9372 23.9945 71.3184 24.1175 70.6937 24.1156C70.1302 24.1162 69.5719 24.0083 69.0492 23.7976C68.5434 23.5914 68.0818 23.2899 67.6897 22.9096C67.3004 22.5225 66.9911 22.0624 66.7798 21.5556C66.556 21.021 66.4423 20.4468 66.4454 19.8672C66.4461 19.3023 66.5598 18.7431 66.7798 18.2227C66.9941 17.7189 67.3009 17.2596 67.6842 16.8687C68.0624 16.4746 68.5152 16.1597 69.0163 15.9423C69.5476 15.7209 70.1181 15.609 70.6937 15.6134C71.2946 15.6098 71.8905 15.7233 72.4479 15.9478C73.0026 16.1713 73.4979 16.5203 73.8951 16.9674L72.5411 18.3543C72.3346 18.085 72.08 17.8563 71.7901 17.68C71.4927 17.5199 71.1623 17.4307 70.8248 17.4193C70.4872 17.4079 70.1516 17.4746 69.844 17.6142C69.5695 17.7481 69.3237 17.9343 69.1205 18.1624C68.9053 18.3871 68.7359 18.6515 68.6216 18.9408C68.3806 19.552 68.3806 20.2318 68.6216 20.843C68.7361 21.1297 68.9014 21.3934 69.1095 21.6214C69.3161 21.841 69.5638 22.018 69.8386 22.1422C70.1145 22.2726 70.4159 22.34 70.7211 22.3395C71.1057 22.3459 71.4847 22.2473 71.8175 22.0544C72.1321 21.8735 72.4004 21.6221 72.6014 21.3199L73.9937 22.6903Z" fill="#0B0B0B"/>
<path d="M50.4414 27.366H49.0929V31.3677H48.1555V27.366H46.8125V26.5273H50.4414V27.366Z" fill="#0B0B0B"/>
<path d="M64.1004 31.3677H63.163V29.2244H61.2554V31.3677H60.3125V26.5273H61.2554V28.446H63.163V26.5273H64.1004V31.3677Z" fill="#0B0B0B"/>
<path d="M79.1712 31.3693H78.1461L77.6966 30.399H75.3449L74.8899 31.3693H73.8594L76.1507 26.5234H76.8853L79.1712 31.3693ZM77.3238 29.648L76.5016 27.8719L75.7012 29.648H77.3238Z" fill="#0B0B0B"/>
<path d="M89.8592 31.3677H88.9219V26.5273H89.8592V31.3677Z" fill="#0B0B0B"/>
<path d="M105.18 31.3677H101.891V26.5273H102.85V30.4577H105.169L105.18 31.3677Z" fill="#0B0B0B"/>
<path d="M119.882 31.3693H118.852L118.402 30.399H116.05L115.601 31.3693H114.57L116.856 26.5234H117.613L119.882 31.3693ZM118.035 29.648L117.229 27.8994L116.412 29.648H118.035Z" fill="#0B0B0B"/>
<path d="M133.663 31.3693H132.743L130.55 27.9706V31.3693H129.629V26.5234H130.681L132.737 29.6864V26.5234H133.658L133.663 31.3693Z" fill="#0B0B0B"/>
<path d="M148.152 28.9464C148.153 29.2684 148.096 29.5879 147.982 29.8893C147.872 30.1725 147.711 30.4327 147.506 30.6567C147.306 30.8816 147.059 31.0594 146.782 31.1775C146.495 31.3086 146.182 31.3741 145.867 31.3694H143.844V26.5235H145.867C146.182 26.5209 146.494 26.5863 146.782 26.7154C147.059 26.8456 147.305 27.0324 147.506 27.2635C147.709 27.4789 147.87 27.7297 147.982 28.0036C148.096 28.305 148.153 28.6245 148.152 28.9464ZM147.199 28.9464C147.206 28.7261 147.171 28.5063 147.094 28.2996C147.031 28.0967 146.924 27.9098 146.782 27.7514C146.642 27.5962 146.47 27.4728 146.278 27.3896C146.061 27.3038 145.831 27.2609 145.598 27.2635H144.781V30.5526H145.598C145.825 30.5575 146.05 30.5165 146.261 30.432C146.452 30.3547 146.624 30.2369 146.766 30.0866C146.903 29.9344 147.011 29.7578 147.083 29.5659C147.16 29.3602 147.205 29.1438 147.215 28.9245L147.199 28.9464Z" fill="#0B0B0B"/>
<path fill-rule="evenodd" clip-rule="evenodd" d="M39.6679 17.5877C40.7257 28.28 32.9154 37.8054 22.223 38.8632C11.5307 39.921 2.00532 32.1107 0.947506 21.4183C-0.110307 10.726 7.70001 1.20063 18.3923 0.142819C29.0847 -0.914994 38.61 6.89533 39.6679 17.5877ZM36.8069 19.4023C36.8048 22.6861 35.829 25.8955 34.0029 28.6247C32.1769 31.3539 29.5826 33.4804 26.548 34.7353C23.5135 35.9902 20.175 36.3171 16.9547 35.6748C13.7344 35.0324 10.7768 33.4496 8.45602 31.1265C6.1352 28.8033 4.55532 25.8442 3.91616 22.6233C3.27699 19.4023 3.60723 16.0642 4.86512 13.0309C6.12301 9.99759 8.25207 7.4054 10.9831 5.58205C13.7141 3.7587 16.9245 2.78608 20.2082 2.78716C22.3894 2.78716 24.5492 3.21705 26.5641 4.05224C28.579 4.88743 30.4096 6.11155 31.9511 7.65463C33.4927 9.1977 34.715 11.0295 35.5482 13.0452C36.3814 15.061 36.8091 17.2212 36.8069 19.4023ZM29.9055 17.0399C29.9055 15.7866 29.4076 14.5848 28.5215 13.6986C27.6353 12.8124 26.4334 12.3146 25.1802 12.3146H22.4942V8.72955H17.9717V12.3146H10.5878V27.0934H17.9717V30.6784H22.4942V27.0934H25.1528C25.7756 27.097 26.393 26.9774 26.9695 26.7416C27.546 26.5057 28.0701 26.1582 28.5118 25.7191C28.9535 25.28 29.304 24.7578 29.5432 24.1827C29.7824 23.6077 29.9055 22.991 29.9055 22.3681C29.9063 21.4175 29.6196 20.4888 29.0832 19.704C29.6181 18.9184 29.9046 17.9902 29.9055 17.0399ZM15.1048 17.6374H24.4786C24.637 17.6374 24.789 17.5744 24.9011 17.4624C25.0131 17.3503 25.0761 17.1983 25.0761 17.0399C25.0761 16.8814 25.0131 16.7294 24.9011 16.6174C24.789 16.5053 24.637 16.4424 24.4786 16.4424H15.1048V17.6374ZM15.1048 22.9656H24.4786C24.5622 22.9736 24.6466 22.9641 24.7263 22.9375C24.8061 22.911 24.8794 22.8681 24.9415 22.8116C25.0037 22.7551 25.0534 22.6862 25.0874 22.6093C25.1214 22.5325 25.139 22.4494 25.139 22.3654C25.139 22.2813 25.1214 22.1982 25.0874 22.1214C25.0534 22.0446 25.0037 21.9757 24.9415 21.9191C24.8794 21.8626 24.8061 21.8197 24.7263 21.7932C24.6466 21.7667 24.5622 21.7571 24.4786 21.7651H15.1048V22.9656Z" fill="#0B0B0B"/>
</g>
<defs>
<clipPath id="clip0_3269_2915">
<rect width="147.3" height="38.9039" fill="white" transform="translate(0.851562 0.046875)"/>
</clipPath>
</defs>
</svg>
