<svg width="159" height="17" viewBox="0 0 159 17" fill="none" xmlns="http://www.w3.org/2000/svg">
<g clip-path="url(#clip0_3357_4445)">
<path d="M31.9922 0.679688V16.1727H50.7002V0.679688H31.9922ZM47.3961 12.7456H35.2994V4.10355H47.3961V12.7456Z" fill="#0B0B0B"/>
<path d="M39.8001 6.14453H37.7617V7.4647H39.8001V6.14453Z" fill="#0B0B0B"/>
<path d="M44.929 6.14453H42.8906V7.4647H44.929V6.14453Z" fill="#0B0B0B"/>
<path d="M44.9326 9.37891H37.7617V10.6991H44.9326V9.37891Z" fill="#0B0B0B"/>
<path d="M0 0.679688H7.73373C12.5737 0.679688 15.1718 2.81631 15.1718 4.91014C15.1718 6.12167 14.5803 7.33322 12.7804 8.08382C14.9333 8.81135 15.8491 10.3554 15.8491 11.8962C15.8491 14.0328 13.5468 16.1727 8.2044 16.1727H0V0.679688ZM8.79587 5.39409C8.79587 4.73236 7.96907 4.07063 6.84657 4.07063V6.76035C7.94043 6.76035 8.79587 6.07887 8.79587 5.39409ZM8.79587 11.2147C8.79587 10.553 7.96907 9.89122 6.84657 9.89122V12.581C7.94043 12.581 8.79587 11.8962 8.79587 11.2147Z" fill="#0B0B0B"/>
<path d="M16.4133 0.679688C18.8937 0.679688 21.549 0.679688 24.0867 0.679688V11.3694H30.5484V16.1727C27.9822 16.1727 18.9796 16.1727 16.4102 16.1727V0.679688H16.4133Z" fill="#0B0B0B"/>
<path d="M51.8516 8.6778C51.8516 4.33539 55.9856 0.5 62.6826 0.5C63.8942 0.5 64.8071 0.611934 65.8406 0.83251V7.4432C65.074 6.42922 63.8624 5.98807 62.6826 5.98807C60.8828 5.98807 59.1401 7.0251 59.1401 8.65473C59.1401 10.2843 60.8223 11.2786 62.5936 11.2786C63.802 11.2786 65.0424 10.8144 65.8406 9.8004L65.7514 16.2366C64.8355 16.3913 63.7734 16.5 62.7399 16.5C56.0142 16.5 51.8516 13.0201 51.8516 8.6778Z" fill="#0B0B0B"/>
<path d="M77.1497 16.1727L74.8765 8.54802V16.1727H67.2031V0.679688H74.8765V8.14962L77.0896 0.679688H85.2367L82.2254 8.45909H82.2538L85.2942 16.1727H77.1497Z" fill="#0B0B0B"/>
<path d="M86.2422 0.679688H93.9156V6.07887H96.5423V0.679688H104.216V16.1727H96.4815V10.8822H93.9724V16.1727H86.2422V0.679688Z" fill="#0B0B0B"/>
<path d="M105.633 0.679688H119.771V5.48298H113.309V6.34224H119.742V10.5068H113.309V11.3661H119.831V16.1727H105.636V0.679688H105.633Z" fill="#0B0B0B"/>
<path d="M131.399 13.8188H128.804L128.479 16.1727H120.727L125.325 0.679688H134.874L139.473 16.1727H131.72L131.399 13.8188ZM130.836 9.65749L130.159 4.81467H130.098L129.424 9.65749H130.836Z" fill="#0B0B0B"/>
<path d="M140.434 0.679688C142.914 0.679688 145.569 0.679688 148.107 0.679688C154.864 0.679688 158.998 4.31425 158.998 8.65662C158.998 12.999 154.836 16.1727 148.107 16.1727H140.434V0.679688ZM148.107 5.85829V11.06C152.887 10.9052 152.355 5.92413 148.107 5.85829Z" fill="#0B0B0B"/>
</g>
<defs>
<clipPath id="clip0_3357_4445">
<rect width="159" height="16" fill="white" transform="translate(0 0.5)"/>
</clipPath>
</defs>
</svg>
