<svg width="157" height="25" viewBox="0 0 157 25" fill="none" xmlns="http://www.w3.org/2000/svg">
<path d="M11.7086 0.0195312H8.79941C6.42613 0.0195312 4.20597 1.32101 2.59827 3.77084C0.990568 6.06756 0.148438 9.2064 0.148438 12.4984C0.148438 15.9434 1.06712 19.0823 2.75138 21.4556C4.35909 23.7523 6.50269 24.9772 8.72285 24.9772H11.632C13.7756 24.8241 15.7661 23.5226 17.2207 21.2259C18.8284 18.8526 19.6705 15.7903 19.6705 12.4984C19.6705 9.35952 18.8284 6.22067 17.2973 3.92395C15.9192 1.62723 13.8522 0.32576 11.7086 0.0195312Z" fill="#875F27"/>
<path d="M16.7637 12.5742C16.7637 9.28222 15.845 6.52616 14.467 4.30599C13.4718 2.85141 12.3234 1.70305 10.9454 1.16715V0.554688H8.57211C4.13178 0.554688 0.457031 5.9137 0.457031 12.4976C0.457031 15.9427 1.45228 19.005 2.98342 21.2252C4.43801 23.2156 6.4285 24.5171 8.57211 24.5171H10.9454V23.9812C14.3905 22.3735 16.7637 17.9332 16.7637 12.5742Z" fill="#F8B828"/>
<path d="M11.0969 24.5929H8.57054C6.42693 24.5929 4.43644 23.368 2.9053 21.1478C1.29759 18.8511 0.378906 15.7888 0.378906 12.4203C0.378906 5.75979 4.13021 0.324219 8.64709 0.324219H11.1735V0.86012C12.475 1.54914 13.6999 2.54438 14.6186 3.99897C16.0732 6.29569 16.9153 9.20487 16.9153 12.3437C16.9153 17.6262 14.6186 22.2196 11.25 23.8273L11.0969 24.5929ZM8.64709 0.630448C4.28333 0.630448 0.685136 5.9129 0.685136 12.4968C0.685136 15.7888 1.60382 18.8511 3.13497 21.0712C4.58956 23.2149 6.58005 24.3632 8.64709 24.3632H10.9438V23.8273H11.0204C12.6281 23.0617 14.0061 21.6071 15.0779 19.6167C16.1497 17.6262 16.6856 15.0232 16.6856 12.4968C16.6856 9.43454 15.8435 6.52536 14.4654 4.3052C13.3936 2.85061 12.1687 1.77881 10.9438 1.24291H10.8673V0.630448H8.64709Z" fill="#B28445"/>
<path d="M16.9865 4.22787C15.532 1.93115 13.4649 0.476562 11.1682 0.476562C6.65131 0.55312 2.97656 5.91213 2.97656 12.4195C2.97656 15.8646 3.97181 18.9269 5.50295 21.147C6.95754 23.1375 8.94803 24.439 11.0916 24.439C15.532 24.439 19.2067 19.08 19.2067 12.4961C19.1301 9.35721 18.3646 6.44803 16.9865 4.22787ZM11.551 21.5298C11.3979 21.5298 11.3213 21.5298 11.1682 21.5298C9.56049 21.5298 8.1059 20.5346 6.95754 19.08C5.80918 17.5488 5.04361 15.3287 5.04361 12.8788C5.04361 12.7257 5.04361 12.6492 5.04361 12.4961C5.04361 7.59639 7.79967 3.4623 11.0916 3.4623C11.2447 3.4623 11.3213 3.4623 11.4744 3.4623C14.6133 3.76853 17.1397 7.67295 17.1397 12.4961C17.1397 12.6492 17.1397 12.7257 17.1397 12.8788C17.0631 17.5488 14.6133 21.2236 11.551 21.5298Z" fill="#F6E245"/>
<path d="M11.094 24.5929C8.95037 24.5929 6.95988 23.368 5.42873 21.1478C3.82103 18.8511 2.90234 15.7888 2.90234 12.4203C2.90234 5.75979 6.57709 0.324219 11.094 0.324219C13.3907 0.324219 15.4577 1.62569 16.9889 4.07553C18.4435 6.37225 19.2856 9.28142 19.2856 12.4203C19.209 19.1573 15.5343 24.5929 11.094 24.5929ZM11.094 0.630448C6.73021 0.630448 3.13202 5.9129 3.13202 12.4968C3.13202 15.7888 4.0507 18.8511 5.58185 21.0712C7.03644 23.2149 9.02693 24.3632 11.094 24.3632C15.4577 24.3632 19.0559 19.0808 19.0559 12.4968C19.0559 9.43454 18.2138 6.52536 16.8358 4.3052C15.3046 1.93192 13.3141 0.630448 11.094 0.630448ZM11.094 21.6837C9.48627 21.6837 7.95513 20.765 6.80677 19.1573C5.58185 17.5496 4.89283 15.2529 4.89283 12.8796C4.89283 12.7265 4.89283 12.6499 4.89283 12.4968C4.89283 7.44405 7.6489 3.30995 11.1705 3.30995C11.3236 3.30995 11.4002 3.30995 11.5533 3.30995C14.8453 3.61618 17.3717 7.59716 17.3717 12.4968C17.3717 12.6499 17.3717 12.7265 17.3717 12.8796C17.2186 17.5496 14.7687 21.3775 11.5533 21.6071C11.3236 21.6837 11.2471 21.6837 11.094 21.6837ZM11.094 3.61618C7.80201 3.61618 5.12251 7.59716 5.12251 12.5734C5.12251 12.7265 5.12251 12.8031 5.12251 12.9562C5.19906 15.3294 5.88808 17.5496 7.03644 19.0042C8.1848 20.5353 9.63939 21.454 11.094 21.454C11.2471 21.454 11.3236 21.454 11.4768 21.454C14.5391 21.1478 16.9123 17.4731 17.0654 12.9562C17.0654 12.8031 17.0654 12.7265 17.0654 12.5734C17.0654 7.90339 14.6156 3.99897 11.4768 3.61618C11.3236 3.61618 11.094 3.61618 11.094 3.61618Z" fill="#B28445"/>
<path d="M11.5523 3.54297C11.3992 3.54297 11.3226 3.54297 11.1695 3.54297C11.093 3.54297 10.9398 3.54297 10.8633 3.54297H10.9398C14.0787 3.8492 16.6051 7.75362 16.6051 12.5767C16.6051 12.7298 16.6051 12.8064 16.6051 12.9595C16.452 17.6295 14.0021 21.3043 10.9398 21.5339H10.8633C10.9398 21.5339 11.093 21.5339 11.1695 21.5339C11.3226 21.5339 11.3992 21.5339 11.5523 21.5339C14.6146 21.2277 17.141 17.4764 17.2175 12.9595C17.2175 12.8064 17.2175 12.7298 17.2175 12.5767C17.2175 7.75362 14.6911 3.8492 11.5523 3.54297Z" fill="#F8B218"/>
<path d="M11.0914 21.6878C11.0148 21.6878 10.8617 21.6878 10.7852 21.6878V21.4581H10.8617C13.924 21.1519 16.2973 17.4772 16.4504 12.9603C16.4504 12.8072 16.4504 12.7306 16.4504 12.5775C16.4504 7.9075 14.0006 4.00308 10.8617 3.6203H10.7852V3.39062C11.0148 3.39062 11.2445 3.39062 11.6273 3.39062C14.9192 3.69685 17.4456 7.67783 17.4456 12.5775C17.4456 12.7306 17.4456 12.8072 17.4456 12.9603C17.2925 17.6303 14.8427 21.4581 11.6273 21.6878C11.3211 21.6878 11.2445 21.6878 11.0914 21.6878ZM12.3163 3.84997C14.8427 5.07489 16.6035 8.51996 16.6035 12.5775C16.6035 12.7306 16.6035 12.8072 16.6035 12.9603C16.527 16.8647 14.6896 20.0801 12.3163 21.305C14.9193 20.4629 16.9863 17.0944 16.9863 12.9603C16.9863 12.8072 16.9863 12.7306 16.9863 12.5775C17.0629 8.36685 15.0724 4.6921 12.3163 3.84997Z" fill="#B28445"/>
<path d="M14.5445 0.0195312H11.6353C9.26207 0.0195312 7.04191 1.32101 5.43421 3.77084C3.8265 6.06756 2.98438 9.2064 2.98438 12.4984C2.98438 15.9434 3.90306 19.0823 5.58732 21.4556C7.19502 23.7523 9.33863 24.9772 11.5588 24.9772H14.468C16.6116 24.8241 18.6021 23.5226 20.0566 21.2259C21.6643 18.8526 22.5065 15.7903 22.5065 12.4984C22.5065 9.35952 21.6643 6.22067 20.1332 3.92395C18.7552 1.62723 16.7647 0.32576 14.5445 0.0195312Z" fill="#875F27"/>
<path d="M19.5997 12.5742C19.5997 9.28222 18.681 6.52616 17.303 4.30599C16.3077 2.85141 15.1594 1.70305 13.7813 1.16715V0.554688H11.408C6.96772 0.554688 3.29297 5.9137 3.29297 12.4976C3.29297 15.9427 4.28821 19.005 5.81936 21.2252C7.27395 23.2156 9.26444 24.5171 11.408 24.5171H13.7813V23.9812C17.2264 22.3735 19.5997 17.9332 19.5997 12.5742Z" fill="#F8B828"/>
<path d="M14.0891 24.5929H11.5627C9.41912 24.5929 7.42863 23.368 5.89748 21.1478C4.28978 18.8511 3.37109 15.7122 3.37109 12.4203C3.37109 5.75979 7.04584 0.324219 11.5627 0.324219H14.0891V0.86012C15.3906 1.54914 16.6155 2.54438 17.5342 3.99897C18.9888 6.29569 19.8309 9.20487 19.8309 12.3437C19.8309 14.9467 19.295 17.4731 18.2232 19.5401C17.1514 21.5306 15.7734 23.0617 14.1657 23.8273L14.0891 24.5929ZM11.5627 0.630448C7.19896 0.630448 3.60077 5.9129 3.60077 12.4968C3.60077 15.7888 4.51945 18.8511 6.0506 21.0712C7.50519 23.2149 9.49568 24.3632 11.5627 24.3632H13.8594V23.8273H13.936C15.5437 23.0617 16.9217 21.6071 17.9935 19.6167C19.0653 17.6262 19.6012 15.0232 19.6012 12.4968C19.6012 9.43454 18.7591 6.52536 17.3811 4.3052C16.3093 2.85061 15.0844 1.77881 13.8594 1.24291H13.7829V0.630448H11.5627Z" fill="#B28445"/>
<path d="M19.7576 4.22787C18.3031 1.93115 16.236 0.476562 13.9393 0.476562C9.49897 0.476562 5.82422 5.83557 5.82422 12.4195C5.82422 15.8646 6.81946 18.9269 8.35061 21.147C9.8052 23.1375 11.7957 24.439 13.9393 24.439C18.3796 24.439 22.0544 19.08 22.0544 12.4961C22.1309 9.35721 21.1357 6.44803 19.7576 4.22787ZM14.3986 21.5298C14.2455 21.5298 14.169 21.5298 14.0159 21.5298C12.4081 21.5298 10.9536 20.5346 9.8052 19.08C8.65684 17.5488 7.89127 15.3287 7.89127 12.8788C7.89127 12.7257 7.89127 12.6492 7.89127 12.4961C7.89127 7.59639 10.6473 3.4623 13.9393 3.4623C14.0924 3.4623 14.169 3.4623 14.3221 3.4623C17.4609 3.76853 19.9873 7.67295 19.9873 12.4961C19.9873 12.6492 19.9873 12.7257 19.9873 12.8788C19.9873 17.5488 17.4609 21.2236 14.3986 21.5298Z" fill="#F6E245"/>
<path d="M13.9377 24.5929C11.7941 24.5929 9.80363 23.368 8.27248 21.1478C6.66478 18.8511 5.74609 15.7122 5.74609 12.4203C5.74609 5.75979 9.42084 0.324219 13.9377 0.324219C16.2344 0.324219 18.3015 1.62569 19.8326 4.07553C21.2872 6.37225 22.1294 9.28142 22.1294 12.4203C22.1294 19.1573 18.4546 24.5929 13.9377 24.5929ZM13.9377 0.630448C9.57396 0.630448 5.97577 5.9129 5.97577 12.4968C5.97577 15.7888 6.89445 18.8511 8.4256 21.0712C9.88019 23.2149 11.8707 24.3632 13.9377 24.3632C18.3015 24.3632 21.8997 19.0808 21.8997 12.4968C21.8997 9.43454 21.0576 6.52536 19.6795 4.3052C18.1484 1.93192 16.1579 0.630448 13.9377 0.630448ZM13.9377 21.6837C12.33 21.6837 10.7989 20.765 9.65052 19.1573C8.4256 17.5496 7.73658 15.2529 7.73658 12.8796C7.73658 12.7265 7.73658 12.6499 7.73658 12.4968C7.73658 7.44405 10.4926 3.30995 14.0143 3.30995C14.1674 3.30995 14.244 3.30995 14.3971 3.30995C17.689 3.61618 20.2154 7.59716 20.2154 12.4968C20.2154 12.6499 20.2154 12.7265 20.2154 12.8796C20.0623 17.5496 17.6125 21.3775 14.3971 21.6071C14.3205 21.6837 14.0908 21.6837 13.9377 21.6837ZM13.9377 3.61618C10.6458 3.61618 7.96625 7.59716 7.96625 12.5734C7.96625 12.7265 7.96625 12.8031 7.96625 12.9562C8.04281 15.3294 8.73183 17.5496 9.88019 19.0042C11.0285 20.5353 12.4831 21.454 13.9377 21.454C14.0908 21.454 14.1674 21.454 14.3205 21.454C17.3828 21.1478 19.7561 17.4731 19.9092 12.9562C19.9092 12.8031 19.9092 12.7265 19.9092 12.5734C19.9092 7.90339 17.4594 3.99897 14.3205 3.61618C14.244 3.61618 14.0908 3.61618 13.9377 3.61618Z" fill="#B28445"/>
<path d="M14.396 3.53906C14.2429 3.53906 14.1664 3.53906 14.0133 3.53906C13.9367 3.53906 13.7836 3.53906 13.707 3.53906H13.7836C16.9224 3.84529 19.4488 7.74971 19.4488 12.5728C19.4488 12.7259 19.4488 12.8025 19.4488 12.9556C19.2957 17.6256 16.8459 21.3003 13.7836 21.53H13.707C13.7836 21.53 13.9367 21.53 14.0133 21.53C14.1664 21.53 14.2429 21.53 14.396 21.53C17.4583 21.2238 19.9847 17.4725 20.0613 12.9556C20.0613 12.8025 20.0613 12.7259 20.0613 12.5728C20.0613 7.74971 17.5349 3.84529 14.396 3.53906Z" fill="#F8B218"/>
<path d="M13.9375 21.6839C13.8609 21.6839 13.7078 21.6839 13.6312 21.6839V21.4542H13.7078C16.6935 21.148 19.1434 17.4733 19.2199 12.9564C19.2199 12.8033 19.2199 12.7267 19.2199 12.5736C19.2199 7.9036 16.7701 3.99918 13.6312 3.61639H13.5547V3.38672C13.7844 3.38672 14.014 3.38672 14.3968 3.38672C17.6888 3.69295 20.2152 7.67393 20.2152 12.5736C20.2152 12.7267 20.2152 12.8033 20.2152 12.9564C20.0621 17.6264 17.6122 21.4542 14.3968 21.6839C14.3203 21.6839 14.0906 21.6839 13.9375 21.6839ZM15.1624 3.84606C17.6888 5.07098 19.4496 8.51606 19.4496 12.5736C19.4496 12.7267 19.4496 12.8033 19.4496 12.9564C19.373 16.8608 17.5357 20.0762 15.1624 21.3011C17.7653 20.459 19.8324 17.0905 19.8324 12.9564C19.8324 12.8033 19.8324 12.7267 19.8324 12.5736C19.9855 8.36294 17.9185 4.68819 15.1624 3.84606Z" fill="#B28445"/>
<path d="M17.2203 0.0195312H14.3111C11.9379 0.0195312 9.71769 1.32101 8.10999 3.77084C6.50229 6.14411 5.66016 9.2064 5.66016 12.4984C5.66016 15.9434 6.57884 19.0823 8.2631 21.4556C9.87081 23.7523 12.0144 24.9772 14.2346 24.9772H17.1437C19.2874 24.8241 21.2778 23.5226 22.7324 21.2259C24.3401 18.8526 25.1823 15.7903 25.1823 12.4984C25.1823 9.35952 24.3401 6.22067 22.809 3.92395C21.5075 1.62723 19.4405 0.32576 17.2203 0.0195312Z" fill="#875F27"/>
<path d="M22.3536 12.5742C22.3536 9.28222 21.4349 6.52616 20.0569 4.30599C19.0616 2.85141 17.9133 1.70305 16.5352 1.16715V0.554688H14.1619C9.72163 0.554688 6.04688 5.9137 6.04688 12.4976C6.04688 15.9427 7.04212 19.005 8.57327 21.2252C10.0279 23.2156 12.0183 24.5171 14.1619 24.5171H16.6118V23.9812C19.9803 22.3735 22.3536 17.9332 22.3536 12.5742Z" fill="#F8B828"/>
<path d="M16.7649 24.5929H14.2385C12.0949 24.5929 10.1044 23.368 8.57327 21.1478C6.96556 18.8511 6.04688 15.7122 6.04688 12.4203C6.04688 5.75979 9.79818 0.324219 14.2385 0.324219H16.7649V0.86012C18.0664 1.54914 19.2913 2.54438 20.21 3.99897C21.6646 6.29569 22.5067 9.20487 22.5067 12.3437C22.5067 17.6262 20.21 22.2196 16.8415 23.8273L16.7649 24.5929ZM14.3151 0.630448C9.9513 0.630448 6.3531 5.9129 6.3531 12.4968C6.3531 15.7888 7.27179 18.8511 8.80294 21.0712C10.2575 23.2149 12.248 24.3632 14.3151 24.3632H16.6118V23.8273H16.6883C18.296 23.0617 19.6741 21.6071 20.7459 19.6167C21.8177 17.6262 22.3536 15.0232 22.3536 12.4968C22.3536 9.43454 21.5114 6.52536 20.1334 4.3052C19.1382 2.85061 17.9133 1.77881 16.6118 1.24291H16.5352V0.630448H14.3151Z" fill="#B28445"/>
<path d="M22.5076 4.23178C21.0531 1.93506 18.986 0.480469 16.6893 0.480469C12.249 0.480469 8.57422 5.83948 8.57422 12.4234C8.57422 15.8685 9.56946 18.9308 11.1006 21.1509C12.5552 23.1414 14.5457 24.4429 16.6893 24.4429C21.1296 24.4429 24.8044 19.0839 24.8044 12.5C24.8044 9.36112 23.9622 6.45194 22.5076 4.23178ZM17.0721 21.5337C16.919 21.5337 16.8424 21.5337 16.6893 21.5337C15.0816 21.5337 13.627 20.5385 12.4786 19.0839C11.3303 17.5527 10.5647 15.3326 10.5647 12.8828C10.5647 12.7296 10.5647 12.6531 10.5647 12.5C10.5647 7.6003 13.3208 3.4662 16.6127 3.4662C16.7658 3.4662 16.8424 3.4662 16.9955 3.4662C20.1344 3.77243 22.6608 7.67685 22.6608 12.5C22.6608 12.6531 22.6608 12.7296 22.6608 12.8828C22.6608 17.5527 20.2109 21.2275 17.0721 21.5337Z" fill="#F6E245"/>
<path d="M16.7658 24.5944C14.6222 24.5944 12.6318 23.3695 11.1006 21.1494C9.49291 18.8526 8.57422 15.7138 8.57422 12.4218C8.57422 5.83791 12.1724 0.402344 16.7658 0.402344C19.0626 0.402344 21.1296 1.70382 22.6608 4.15365C24.1153 6.45037 24.9575 9.35955 24.9575 12.4984C24.8809 19.1589 21.2827 24.5944 16.7658 24.5944ZM16.7658 0.632016C12.4021 0.632016 8.80389 5.91447 8.80389 12.4984C8.80389 15.7904 9.72258 18.8526 11.2537 21.0728C12.7083 23.2164 14.6988 24.3648 16.7658 24.3648C21.1296 24.3648 24.7278 19.0823 24.7278 12.4984C24.7278 9.4361 23.8857 6.52693 22.5076 4.30677C20.8999 1.93349 18.8329 0.632016 16.7658 0.632016ZM16.7658 21.6853C15.1581 21.6853 13.627 20.7666 12.4786 19.1589C11.2537 17.5512 10.5647 15.2545 10.5647 12.8812C10.5647 12.7281 10.5647 12.6515 10.5647 12.4984C10.5647 7.44561 13.3208 3.31152 16.8424 3.31152C16.9955 3.31152 17.0721 3.31152 17.2252 3.31152C20.5172 3.61775 23.0435 7.59873 23.0435 12.4984C23.0435 12.6515 23.0435 12.7281 23.0435 12.8812C22.8904 17.5512 20.4406 21.379 17.2252 21.6087C16.9955 21.6853 16.7658 21.6853 16.7658 21.6853ZM16.7658 3.61775C13.4739 3.61775 10.7944 7.59873 10.7944 12.575C10.7944 12.7281 10.7944 12.8046 10.7944 12.9577C10.8709 15.331 11.56 17.5512 12.7083 19.0058C13.8567 20.5369 15.3113 21.4556 16.7658 21.4556C16.919 21.4556 16.9955 21.4556 17.1486 21.4556C20.2109 21.1494 22.5842 17.4746 22.7373 12.9577C22.7373 12.8046 22.7373 12.7281 22.7373 12.575C22.7373 7.90496 20.2875 4.00054 17.1486 3.61775C16.9955 3.61775 16.7658 3.61775 16.7658 3.61775Z" fill="#B28445"/>
<path d="M17.0757 3.53906C16.9226 3.53906 16.8461 3.53906 16.6929 3.53906C16.6164 3.53906 16.4633 3.53906 16.3867 3.53906H16.4633C19.6021 3.84529 22.1285 7.74971 22.1285 12.5728C22.1285 12.7259 22.1285 12.8025 22.1285 12.9556C21.9754 17.6256 19.5256 21.3003 16.4633 21.53H16.3867C16.4633 21.53 16.6164 21.53 16.6929 21.53C16.8461 21.53 16.9226 21.53 17.0757 21.53C20.138 21.2238 22.6644 17.4725 22.741 12.9556C22.741 12.8025 22.741 12.7259 22.741 12.5728C22.8175 7.74971 20.2911 3.84529 17.0757 3.53906Z" fill="#F8B218"/>
<path d="M16.7711 21.6839C16.6945 21.6839 16.5414 21.6839 16.4648 21.6839V21.4542H16.5414C19.6037 21.148 21.977 17.4733 22.1301 12.9564C22.1301 12.8033 22.1301 12.7267 22.1301 12.5736C22.1301 7.9036 19.6803 3.99918 16.5414 3.61639H16.4648V3.38672C16.6945 3.38672 16.9242 3.38672 17.307 3.38672C20.5989 3.69295 23.1253 7.67393 23.1253 12.5736C23.1253 12.7267 23.1253 12.8033 23.1253 12.9564C22.8957 17.6264 20.4458 21.3777 17.2304 21.6839C17.0007 21.6839 16.7711 21.6839 16.7711 21.6839ZM17.9194 3.84606C20.4458 5.07098 22.2066 8.51606 22.2066 12.5736C22.2066 12.7267 22.2066 12.8033 22.2066 12.9564C22.1301 16.8608 20.2927 20.0762 17.9194 21.3011C20.5224 20.459 22.5894 17.0905 22.5894 12.9564C22.5894 12.8033 22.5894 12.7267 22.5894 12.5736C22.666 8.36294 20.6755 4.68819 17.9194 3.84606Z" fill="#B28445"/>
<path d="M14.9242 15.1016V18.0107H14.082V16.7858L14.9242 15.1016Z" fill="#F6E245"/>
<path d="M15.9242 13.1836L16.307 13.8726V13.9492V18.0067H15.4648V14.0257L15.9242 13.1836Z" fill="#F6E245"/>
<path d="M17.6038 13.4922V18.0091H16.7617V15.253L16.9914 15.0999L17.5273 13.875L17.6038 13.4922Z" fill="#F6E245"/>
<path d="M19.0609 10.7383V18.0112H18.2188V12.4225L19.0609 10.7383Z" fill="#F6E245"/>
<path d="M16.764 13.7952H16.5343L15.9219 12.5703H16.3047L16.764 13.7952Z" fill="#875F27"/>
<path d="M14.082 16.7812H13.6992V18.0827H14.082V16.7812Z" fill="#875F27"/>
<path d="M14.082 16.7858H13.6992L14.5413 15.1016H14.9241L14.082 16.7858Z" fill="#875F27"/>
<path d="M15.539 14.0273H15.1562V18.0083H15.539V14.0273Z" fill="#875F27"/>
<path d="M15.4625 14.0257H15.1562L15.539 13.1836H15.9218L15.4625 14.0257Z" fill="#875F27"/>
<path d="M17.5297 13.875H17.0703L17.3 13.4922H17.6062L17.5297 13.875Z" fill="#875F27"/>
<path d="M16.9945 15.0999H16.5352L17.0711 13.875H17.5304L16.9945 15.0999Z" fill="#875F27"/>
<path d="M16.7648 15.2547H16.5352V15.1016H16.9945L16.7648 15.2547Z" fill="#875F27"/>
<path d="M16.9179 15.2539H16.5352V18.1631H16.9179V15.2539Z" fill="#875F27"/>
<path d="M18.2968 12.418H17.9141V18.0067H18.2968V12.418Z" fill="#875F27"/>
<path d="M18.2203 12.4186H17.9141L18.7562 10.7344H19.0624L18.2203 12.4186Z" fill="#875F27"/>
<path d="M19.5984 9.04605H19.2156L19.0625 8.43359H19.4453L19.5984 9.04605Z" fill="#875F27"/>
<path d="M18.8312 7.21325H18.4484L18.2188 6.75391H18.6015L18.8312 7.21325Z" fill="#875F27"/>
<path d="M16.7648 11.2724H16.5352L18.4491 7.21484H18.8319L16.7648 11.2724Z" fill="#875F27"/>
<path d="M16.3085 12.5703H15.9258L15.543 11.8047H16.0023L16.3085 12.5703Z" fill="#875F27"/>
<path d="M15.3867 10.582H15.0039L15.5398 9.43359H15.9992L15.3867 10.582Z" fill="#875F27"/>
<path d="M13.3968 14.8692H12.9375L15.0045 10.582H15.3873L13.3968 14.8692Z" fill="#875F27"/>
<path d="M13.9327 15.9429H13.55L12.9375 14.8711H13.3968L13.9327 15.9429Z" fill="#875F27"/>
<path d="M18.6004 6.75391H19.5957V9.05062L19.4426 8.43817L17.4521 12.5723L16.7631 13.7972L16.3037 12.5723L15.9975 11.8067L13.9304 15.9408L13.3945 14.869L15.385 10.5818L15.9975 9.43341L16.5334 10.5818L16.7631 11.2708L18.8301 7.21325L18.6004 6.75391Z" fill="#F6E245"/>
<path d="M29.8014 12.2355C29.8014 10.8011 30.1218 9.51991 30.7624 8.39188C31.4169 7.24992 32.3012 6.3656 33.4153 5.73892C34.5434 5.0983 35.8037 4.778 37.1963 4.778C38.8257 4.778 40.2532 5.19579 41.4787 6.03137C42.7042 6.86695 43.5607 8.02283 44.0481 9.49902H40.6849C40.3506 8.80271 39.8771 8.28047 39.2644 7.93231C38.6656 7.58415 37.9692 7.41008 37.1754 7.41008C36.3259 7.41008 35.5669 7.61201 34.8985 8.01587C34.2439 8.40581 33.7287 8.96286 33.3527 9.68703C32.9906 10.4112 32.8095 11.2607 32.8095 12.2355C32.8095 13.1965 32.9906 14.046 33.3527 14.7841C33.7287 15.5082 34.2439 16.0723 34.8985 16.4761C35.5669 16.8661 36.3259 17.061 37.1754 17.061C37.9692 17.061 38.6656 16.8869 39.2644 16.5388C39.8771 16.1767 40.3506 15.6475 40.6849 14.9512H44.0481C43.5607 16.4413 42.7042 17.6042 41.4787 18.4397C40.2671 19.2614 38.8396 19.6722 37.1963 19.6722C35.8037 19.6722 34.5434 19.3589 33.4153 18.7322C32.3012 18.0916 31.4169 17.2073 30.7624 16.0792C30.1218 14.9512 29.8014 13.67 29.8014 12.2355ZM51.6848 19.7349C50.5707 19.7349 49.568 19.4912 48.6767 19.0037C47.7855 18.5024 47.0822 17.7991 46.5669 16.8939C46.0656 15.9887 45.8149 14.9442 45.8149 13.7605C45.8149 12.5767 46.0725 11.5323 46.5878 10.6271C47.117 9.72185 47.8342 9.02553 48.7394 8.53811C49.6446 8.03676 50.6543 7.78609 51.7684 7.78609C52.8825 7.78609 53.8922 8.03676 54.7974 8.53811C55.7026 9.02553 56.4128 9.72185 56.9281 10.6271C57.4573 11.5323 57.7219 12.5767 57.7219 13.7605C57.7219 14.9442 57.4503 15.9887 56.9072 16.8939C56.378 17.7991 55.6538 18.5024 54.7347 19.0037C53.8295 19.4912 52.8129 19.7349 51.6848 19.7349ZM51.6848 17.1864C52.214 17.1864 52.7084 17.061 53.168 16.8104C53.6415 16.5458 54.0175 16.1558 54.296 15.6405C54.5745 15.1253 54.7138 14.4986 54.7138 13.7605C54.7138 12.6603 54.4214 11.8178 53.8364 11.2329C53.2655 10.634 52.5622 10.3346 51.7266 10.3346C50.891 10.3346 50.1877 10.634 49.6168 11.2329C49.0597 11.8178 48.7812 12.6603 48.7812 13.7605C48.7812 14.8607 49.0528 15.7102 49.5959 16.309C50.1529 16.8939 50.8492 17.1864 51.6848 17.1864ZM61.3503 6.59539C60.835 6.59539 60.4033 6.43523 60.0552 6.11493C59.7209 5.78069 59.5538 5.36987 59.5538 4.88245C59.5538 4.39502 59.7209 3.99116 60.0552 3.67085C60.4033 3.33662 60.835 3.16951 61.3503 3.16951C61.8656 3.16951 62.2903 3.33662 62.6246 3.67085C62.9727 3.99116 63.1468 4.39502 63.1468 4.88245C63.1468 5.36987 62.9727 5.78069 62.6246 6.11493C62.2903 6.43523 61.8656 6.59539 61.3503 6.59539ZM62.7917 7.97409V19.5469H59.8671V7.97409H62.7917ZM72.0942 7.80698C73.4729 7.80698 74.587 8.24566 75.4365 9.12301C76.286 9.98645 76.7108 11.198 76.7108 12.7578V19.5469H73.7862V13.1547C73.7862 12.2355 73.5565 11.5323 73.0969 11.0448C72.6373 10.5435 72.0106 10.2928 71.2168 10.2928C70.4091 10.2928 69.7685 10.5435 69.295 11.0448C68.8354 11.5323 68.6056 12.2355 68.6056 13.1547V19.5469H65.6811V7.97409H68.6056V9.41547C68.9956 8.91412 69.49 8.52418 70.0888 8.24566C70.7016 7.9532 71.37 7.80698 72.0942 7.80698ZM84.3173 16.8521L87.2419 7.97409H90.3544L86.072 19.5469H82.5208L78.2594 7.97409H81.3928L84.3173 16.8521ZM102.755 13.5098C102.755 13.9276 102.727 14.3036 102.672 14.6378H94.2113C94.2809 15.4734 94.5734 16.128 95.0886 16.6015C95.6039 17.075 96.2376 17.3117 96.9896 17.3117C98.0758 17.3117 98.8487 16.8452 99.3083 15.9121H102.463C102.128 17.0262 101.488 17.9453 100.541 18.6695C99.5938 19.3798 98.431 19.7349 97.0523 19.7349C95.9381 19.7349 94.9355 19.4912 94.0442 19.0037C93.1668 18.5024 92.4775 17.7991 91.9761 16.8939C91.4887 15.9887 91.245 14.9442 91.245 13.7605C91.245 12.5628 91.4887 11.5114 91.9761 10.6062C92.4635 9.70096 93.1459 9.00464 94.0233 8.51722C94.9006 8.0298 95.9103 7.78609 97.0523 7.78609C98.1524 7.78609 99.1342 8.02283 99.9977 8.49633C100.875 8.96982 101.55 9.64525 102.024 10.5226C102.511 11.386 102.755 12.3818 102.755 13.5098ZM99.7261 12.6742C99.7122 11.9222 99.4406 11.3234 98.9114 10.8777C98.3822 10.4182 97.7346 10.1884 96.9687 10.1884C96.2445 10.1884 95.6318 10.4112 95.1304 10.8568C94.643 11.2886 94.3436 11.8944 94.2322 12.6742H99.7261ZM109.318 19.7349C108.371 19.7349 107.522 19.5678 106.77 19.2335C106.018 18.8854 105.419 18.4188 104.973 17.8339C104.542 17.249 104.305 16.6015 104.263 15.8912H107.208C107.264 16.3369 107.48 16.7059 107.856 16.9984C108.246 17.2908 108.726 17.437 109.297 17.437C109.854 17.437 110.286 17.3256 110.593 17.1028C110.913 16.88 111.073 16.5945 111.073 16.2463C111.073 15.8703 110.878 15.5918 110.488 15.4108C110.112 15.2158 109.506 15.0069 108.671 14.7841C107.807 14.5752 107.097 14.3593 106.54 14.1365C105.997 13.9137 105.523 13.5725 105.12 13.1129C104.73 12.6533 104.535 12.0336 104.535 11.2537C104.535 10.6131 104.716 10.0282 105.078 9.49902C105.454 8.96982 105.983 8.55203 106.665 8.24566C107.362 7.93928 108.176 7.78609 109.109 7.78609C110.488 7.78609 111.588 8.13424 112.41 8.83056C113.232 9.51295 113.684 10.4391 113.768 11.6089H110.969C110.927 11.1493 110.732 10.7872 110.384 10.5226C110.049 10.2441 109.597 10.1048 109.026 10.1048C108.497 10.1048 108.086 10.2023 107.793 10.3973C107.515 10.5922 107.376 10.8638 107.376 11.212C107.376 11.6019 107.571 11.9013 107.96 12.1102C108.35 12.3052 108.956 12.5071 109.778 12.716C110.613 12.9249 111.303 13.1408 111.846 13.3636C112.389 13.5864 112.856 13.9346 113.246 14.4081C113.649 14.8676 113.858 15.4804 113.872 16.2463C113.872 16.9148 113.684 17.5136 113.308 18.0428C112.946 18.572 112.417 18.9898 111.721 19.2962C111.038 19.5887 110.237 19.7349 109.318 19.7349ZM119.678 10.3764V15.9748C119.678 16.3647 119.768 16.6502 119.949 16.8312C120.144 16.9984 120.465 17.0819 120.91 17.0819H122.268V19.5469H120.43C117.965 19.5469 116.732 18.3492 116.732 15.9539V10.3764H115.354V7.97409H116.732V5.11223H119.678V7.97409H122.268V10.3764H119.678ZM123.62 13.7187C123.62 12.5489 123.849 11.5114 124.309 10.6062C124.782 9.70096 125.416 9.00464 126.21 8.51722C127.018 8.0298 127.916 7.78609 128.905 7.78609C129.768 7.78609 130.52 7.96017 131.161 8.30832C131.815 8.65648 132.337 9.09516 132.727 9.62436V7.97409H135.673V19.5469H132.727V17.8548C132.351 18.398 131.829 18.8506 131.161 19.2126C130.506 19.5608 129.747 19.7349 128.884 19.7349C127.909 19.7349 127.018 19.4842 126.21 18.9829C125.416 18.4815 124.782 17.7782 124.309 16.873C123.849 15.9539 123.62 14.9024 123.62 13.7187ZM132.727 13.7605C132.727 13.0502 132.588 12.4444 132.31 11.9431C132.031 11.4278 131.655 11.0379 131.182 10.7733C130.708 10.4948 130.2 10.3555 129.657 10.3555C129.114 10.3555 128.612 10.4878 128.153 10.7524C127.693 11.017 127.317 11.4069 127.025 11.9222C126.746 12.4236 126.607 13.0224 126.607 13.7187C126.607 14.415 126.746 15.0278 127.025 15.557C127.317 16.0723 127.693 16.4692 128.153 16.7477C128.626 17.0262 129.127 17.1655 129.657 17.1655C130.2 17.1655 130.708 17.0332 131.182 16.7686C131.655 16.49 132.031 16.1001 132.31 15.5988C132.588 15.0835 132.727 14.4707 132.727 13.7605ZM142.958 19.7349C142.011 19.7349 141.161 19.5678 140.409 19.2335C139.657 18.8854 139.058 18.4188 138.613 17.8339C138.181 17.249 137.944 16.6015 137.902 15.8912H140.848C140.904 16.3369 141.119 16.7059 141.495 16.9984C141.885 17.2908 142.366 17.437 142.937 17.437C143.494 17.437 143.926 17.3256 144.232 17.1028C144.552 16.88 144.712 16.5945 144.712 16.2463C144.712 15.8703 144.517 15.5918 144.128 15.4108C143.752 15.2158 143.146 15.0069 142.31 14.7841C141.447 14.5752 140.736 14.3593 140.179 14.1365C139.636 13.9137 139.163 13.5725 138.759 13.1129C138.369 12.6533 138.174 12.0336 138.174 11.2537C138.174 10.6131 138.355 10.0282 138.717 9.49902C139.093 8.96982 139.622 8.55203 140.305 8.24566C141.001 7.93928 141.816 7.78609 142.749 7.78609C144.128 7.78609 145.228 8.13424 146.049 8.83056C146.871 9.51295 147.324 10.4391 147.407 11.6089H144.608C144.566 11.1493 144.371 10.7872 144.023 10.5226C143.689 10.2441 143.236 10.1048 142.665 10.1048C142.136 10.1048 141.725 10.2023 141.433 10.3973C141.154 10.5922 141.015 10.8638 141.015 11.212C141.015 11.6019 141.21 11.9013 141.6 12.1102C141.99 12.3052 142.596 12.5071 143.417 12.716C144.253 12.9249 144.942 13.1408 145.485 13.3636C146.028 13.5864 146.495 13.9346 146.885 14.4081C147.289 14.8676 147.498 15.4804 147.512 16.2463C147.512 16.9148 147.324 17.5136 146.948 18.0428C146.586 18.572 146.056 18.9898 145.36 19.2962C144.678 19.5887 143.877 19.7349 142.958 19.7349ZM151.395 6.59539C150.88 6.59539 150.448 6.43523 150.1 6.11493C149.766 5.78069 149.599 5.36987 149.599 4.88245C149.599 4.39502 149.766 3.99116 150.1 3.67085C150.448 3.33662 150.88 3.16951 151.395 3.16951C151.911 3.16951 152.335 3.33662 152.67 3.67085C153.018 3.99116 153.192 4.39502 153.192 4.88245C153.192 5.36987 153.018 5.78069 152.67 6.11493C152.335 6.43523 151.911 6.59539 151.395 6.59539ZM152.837 7.97409V19.5469H149.912V7.97409H152.837Z" fill="#0B0B0B"/>
</svg>
