<svg width="157" height="25" viewBox="0 0 157 25" fill="none" xmlns="http://www.w3.org/2000/svg">
<g clip-path="url(#clip0_3357_4388)">
<path d="M131.968 3.57192H135.465V0.714844H131.968V3.57192Z" fill="#0B0B0B"/>
<path d="M8.95272 4.77724C6.78428 5.17009 4.79072 6.25935 3.29555 7.87538C2.19385 9.06285 1.48561 10.3307 1.03093 11.9199C1.00601 12.009 0.98153 12.0988 0.957748 12.186C0.916891 12.3359 0.878105 12.4782 0.842733 12.596C0.633654 12.6739 0.484375 12.8787 0.484375 13.1191C0.484375 13.4265 0.728437 13.6758 1.0295 13.6758C1.33057 13.6758 1.57463 13.4265 1.57463 13.1191C1.57463 12.9197 1.47189 12.7447 1.31751 12.6464C1.35589 12.2994 1.53463 11.6535 1.78289 11.036C2.35998 9.58069 3.52289 8.05395 4.8257 7.04504C6.12851 6.03614 8.18328 5.23259 9.80086 5.11652L10.5178 5.06295V7.40218L10.1069 7.45575C8.25323 7.69681 6.84549 8.36644 5.63886 9.57177C4.25736 10.9557 3.61032 12.5271 3.61032 14.4645C3.61032 17.2144 5.13173 19.5626 7.67614 20.7679C8.40187 21.1072 9.59101 21.4286 10.1506 21.4286H10.5178V23.8661L9.84458 23.8036C7.47504 23.5893 5.08801 22.4018 3.52289 20.6519C2.22008 19.1965 1.32822 17.1787 1.18832 15.3306L1.13586 14.6431H2.45616L2.51736 13.902C2.77093 10.9378 4.43223 8.54501 7.13403 7.23254C7.79431 6.90978 8.65772 6.62735 9.00804 6.59355C9.10801 6.71863 9.26017 6.79849 9.4306 6.79849C9.73167 6.79849 9.97573 6.54927 9.97573 6.24185C9.97573 5.93443 9.73167 5.68521 9.4306 5.68521C9.16401 5.68521 8.94212 5.88062 8.89479 6.13881C8.7705 6.18111 8.62049 6.2256 8.46832 6.27073C8.41108 6.28771 8.35354 6.30477 8.29694 6.32185C4.85193 7.32182 2.53485 10.0896 2.08018 13.7681L2.02772 14.1877L0.681187 14.2413L0.707418 14.9109C0.891035 19.143 3.93384 22.8393 8.13081 23.9375C11.4797 24.8125 15.2919 23.875 17.6265 21.625C17.8975 21.3572 18.1249 21.1072 18.1249 21.0715C18.1249 21.0358 17.6352 20.5269 17.0232 19.9554L15.9302 18.9019L15.6067 19.2144C14.7585 20.0447 13.8317 20.5894 12.73 20.9108C11.8294 21.1697 10.0807 21.1876 9.16257 20.9465C6.71434 20.3036 4.69454 18.2323 4.17866 15.8395C3.96007 14.8574 4.03877 13.3217 4.3448 12.4199C4.92188 10.7325 6.18971 9.2682 7.75484 8.49144C8.69041 8.02716 9.38991 7.85752 10.5703 7.79502C12.5114 7.69681 14.129 8.28608 15.458 9.56284L15.9127 10.0003L16.9969 8.96464C17.5915 8.40215 18.0899 7.87538 18.1074 7.81288C18.1423 7.65217 16.9445 6.63434 16.1226 6.12542C15.2657 5.59865 14.1377 5.13438 13.1672 4.90224C12.1267 4.66117 9.97573 4.59868 8.95272 4.77724Z" fill="#0B0B0B"/>
<path fill-rule="evenodd" clip-rule="evenodd" d="M23.7645 6.45577C24.9187 5.66115 26.4314 5.04509 27.7866 4.7951C28.7484 4.61653 30.8469 4.6076 31.8175 4.77724C35.6997 5.47365 38.6551 8.16109 39.6081 11.8574C39.9141 13.027 39.9841 15.1073 39.7742 16.2859C39.477 17.893 38.8387 19.3572 37.8944 20.5536C36.4954 22.3482 34.563 23.5268 32.1148 24.0714C31.0743 24.3035 28.6173 24.3035 27.5855 24.0803C24.7438 23.4464 22.6191 21.9732 21.1677 19.6429C19.6463 17.1698 19.3402 13.6252 20.407 10.8039C21.0103 9.18785 22.418 7.37539 23.7645 6.45577ZM36.1544 12.5538C35.5248 10.3217 34.0034 8.74143 31.8087 8.03609C31.1267 7.82181 29.3343 7.71467 28.5998 7.85752C26.6062 8.22359 24.875 9.50927 24.0443 11.2503C23.4585 12.4646 23.3361 13.027 23.3361 14.4645C23.3361 15.4466 23.3711 15.8038 23.5285 16.3662C24.1755 18.6787 25.863 20.3572 28.1364 20.9465C28.9758 21.1608 30.707 21.1608 31.5464 20.9465C33.8373 20.3572 35.551 18.6251 36.1893 16.2502C36.4342 15.3573 36.4167 13.4824 36.1544 12.5538Z" fill="#0B0B0B"/>
<path fill-rule="evenodd" clip-rule="evenodd" d="M99.3188 4.78617C95.6202 5.46473 92.796 7.88431 91.703 11.2949C90.7937 14.1609 91.2134 17.4823 92.8048 19.9108C93.3556 20.759 94.571 22 95.3579 22.5268C97.1941 23.7678 99.4937 24.375 101.881 24.2589C103.079 24.1964 103.831 24.0536 104.906 23.6964C107.284 22.8929 109.295 21.1518 110.362 18.9644C111.918 15.768 111.709 11.8753 109.82 8.99142C108.351 6.75041 106.051 5.27723 103.227 4.77724C102.292 4.6076 100.254 4.61653 99.3188 4.78617ZM103.157 7.99145C103.446 8.0718 104.014 8.30394 104.425 8.50929C105.028 8.80393 105.317 9.02714 105.955 9.68784C106.812 10.5628 107.232 11.2414 107.573 12.3663C107.818 13.1699 107.905 14.8306 107.748 15.7502C107.319 18.2591 105.544 20.2501 103.14 20.9108C102.134 21.1786 100.438 21.1786 99.4937 20.9108C97.3427 20.2858 95.629 18.6073 95.0344 16.518C94.6497 15.2056 94.6846 13.4735 95.1218 12.1521C95.8301 9.97354 97.6138 8.37537 99.8696 7.89324C100.604 7.74145 102.432 7.79502 103.157 7.99145Z" fill="#0B0B0B"/>
<path d="M43.569 24.0178V4.91117H47.0665V24.0178H43.569Z" fill="#0B0B0B"/>
<path d="M52.1378 24.0178H55.5479L55.5654 17.5716L55.5916 11.1253L65.8742 24.0178H68.7508V4.91117H65.2534L65.2359 11.3039L65.2097 17.7055L55.0145 4.91117H52.1378V24.0178Z" fill="#0B0B0B"/>
<path d="M73.7348 24.0178V4.91117H77.2322L77.2497 9.77712L77.276 14.6341L86.4481 4.91117H90.3828L90.0767 5.24152C89.8719 5.46537 89.0286 6.38595 87.9831 7.5272C85.8594 9.84532 82.9018 13.0739 82.767 13.2235L82.5571 13.4556L86.4306 18.3573C88.5641 21.0626 90.4352 23.4375 90.5926 23.6428L90.8899 24.0178H86.7978L83.6064 20.1608C82.7499 19.1244 81.9563 18.1629 81.3623 17.4433L81.342 17.4187C80.7347 16.683 80.3409 16.2059 80.31 16.1698C80.2138 16.0448 80.004 16.2323 78.7187 17.5894L77.241 19.1519L77.2322 21.5804V24.0178H73.7348Z" fill="#0B0B0B"/>
<path d="M115.005 24.0178H128.383V20.9822H118.59V4.91117H115.005V24.0178Z" fill="#0B0B0B"/>
<path d="M131.968 24.0178V4.91117H135.465V24.0178H131.968Z" fill="#0B0B0B"/>
<path d="M139.575 24.0178H143.072V19.1519L144.559 17.5894C145.477 16.6162 146.063 16.0627 146.106 16.1252C146.141 16.1787 147.628 17.9733 149.403 20.1161L152.62 24.0178H154.684C156.634 24.0178 156.73 24.0089 156.607 23.8571C156.538 23.7768 154.658 21.4018 152.437 18.5805C148.432 13.5181 148.397 13.4645 148.555 13.277C148.703 13.0985 155.139 6.08078 155.873 5.28616L156.223 4.91117H152.279L143.116 14.6252L143.09 9.76819L143.072 4.91117H139.575V24.0178Z" fill="#0B0B0B"/>
<path d="M1.87762 15.9371C1.87762 16.1932 2.04694 16.4089 2.27748 16.4738C2.28485 16.4966 2.29266 16.5212 2.30108 16.5477C2.31973 16.6064 2.34135 16.6745 2.36739 16.7525C2.76085 17.9935 3.45294 19.2144 4.48469 20.2679C5.63886 21.3392 6.21067 21.7573 7.95594 22.4643C8.3341 22.5949 8.69103 22.7291 8.91426 22.8233C8.99233 23.0332 9.19113 23.1824 9.42405 23.1824C9.72511 23.1824 9.96918 22.9331 9.96918 22.6257C9.96918 22.6178 9.96901 22.6099 9.96869 22.602C9.97012 22.5833 9.96841 22.5649 9.96355 22.5455C9.92547 22.2761 9.69844 22.0691 9.42405 22.0691C9.21791 22.0691 9.0385 22.1859 8.94585 22.3583C8.8514 22.336 8.73059 22.2915 8.55963 22.2285C8.42907 22.1804 8.26926 22.1216 8.06961 22.0536C5.7263 21.2768 3.75897 19.3662 2.9458 17.0716C2.90774 16.9679 2.87084 16.8735 2.83739 16.7879C2.77804 16.636 2.72957 16.512 2.70474 16.4136C2.86247 16.3161 2.96788 16.1392 2.96788 15.9371C2.96788 15.6297 2.72382 15.3805 2.42275 15.3805C2.12169 15.3805 1.87762 15.6297 1.87762 15.9371Z" fill="#0B0B0B"/>
</g>
<defs>
<clipPath id="clip0_3357_4388">
<rect width="156.425" height="23.5708" fill="white" transform="translate(0.289062 0.714844)"/>
</clipPath>
</defs>
</svg>
