<svg width="143" height="39" viewBox="0 0 143 39" fill="none" xmlns="http://www.w3.org/2000/svg">
<g clip-path="url(#clip0_3269_2828)">
<path d="M59.2631 15.4309C58.879 13.9105 57.9107 12.798 56.0173 12.798C53.2233 12.798 52.0548 15.3005 52.0548 17.84C52.0548 20.3796 53.2233 22.8835 56.0173 22.8835C58.0459 22.8835 59.1576 21.3452 59.3388 19.4168H61.5662C61.3837 22.5868 59.1752 24.7734 56.0214 24.7734C52.1143 24.7734 49.7773 21.6212 49.7773 17.8387C49.7773 14.0561 52.1062 10.8984 56.0133 10.8984C58.952 10.9163 61.2701 12.5672 61.5446 15.4227L59.2631 15.4309Z" fill="#0B0B0B"/>
<path d="M62.9141 19.6514C62.9141 16.7218 64.6478 14.6094 67.6786 14.6094C70.7093 14.6094 72.4431 16.7218 72.4431 19.6514C72.4431 22.5811 70.7093 24.7141 67.6786 24.7141C64.6478 24.7141 62.9141 22.6003 62.9141 19.6514ZM70.3617 19.6514C70.3617 18.0033 69.5408 16.2782 67.6786 16.2782C65.8163 16.2782 64.9954 18.0019 64.9954 19.6514C64.9954 21.301 65.8163 23.0453 67.6786 23.0453C69.5408 23.0453 70.3617 21.3202 70.3617 19.6514Z" fill="#0B0B0B"/>
<path d="M74.2344 11.2148H76.3157V13.2174H74.2344V11.2148ZM74.2344 14.8683H76.3157V24.4539H74.2344V14.8683Z" fill="#0B0B0B"/>
<path d="M78.5781 14.8665H80.5499V16.2757L80.5864 16.3128C80.8854 15.7907 81.3146 15.358 81.8308 15.0583C82.347 14.7586 82.932 14.6024 83.5266 14.6055C85.5714 14.6055 86.867 15.718 86.867 17.8675V24.4507H84.7856V18.4252C84.7491 16.924 84.1649 16.2757 82.9423 16.2757C81.5548 16.2757 80.6595 17.3868 80.6595 18.796V24.452H78.5781V14.8665Z" fill="#0B0B0B"/>
<path d="M100.722 24.4534H99.261L98.9148 22.8958C97.6976 24.305 96.5778 24.7679 94.9928 24.7679C91.0885 24.7706 88.7461 21.6116 88.7461 17.8332C88.7461 14.0547 91.0885 10.8984 94.9901 10.8984C97.8302 10.8984 100.229 12.4367 100.576 15.4227H98.3481C98.1291 13.6797 96.6333 12.7897 94.9901 12.7897C92.1961 12.7897 91.0276 15.2922 91.0276 17.8318C91.0276 20.3714 92.1961 22.8752 94.9901 22.8752C97.3257 22.9123 98.6037 21.4853 98.6416 19.241H95.1727V17.4816H100.718L100.722 24.4534Z" fill="#0B0B0B"/>
<path d="M104.538 20.2077C104.538 21.7103 105.342 23.0453 107.075 23.0453C108.28 23.0453 109.011 22.5069 109.375 21.4507H111.348C110.892 23.5453 109.139 24.7141 107.075 24.7141C104.119 24.7141 102.457 22.6182 102.457 19.6707C102.457 16.9443 104.215 14.6094 107.021 14.6094C109.997 14.6094 111.822 17.3344 111.476 20.2077H104.538ZM109.395 18.8177C109.322 17.4827 108.427 16.2782 107.021 16.2782C105.578 16.2782 104.594 17.3893 104.538 18.8177H109.395Z" fill="#0B0B0B"/>
<path d="M119.438 18.0761C119.273 16.9072 118.433 16.2782 117.283 16.2782C116.201 16.2782 114.691 16.8523 114.691 19.7627C114.691 21.3573 115.385 23.0453 117.191 23.0453C118.396 23.0453 119.236 22.2295 119.438 20.8574H121.519C121.135 23.342 119.626 24.7141 117.191 24.7141C114.234 24.7141 112.609 22.5811 112.609 19.7627C112.609 16.8701 114.162 14.6094 117.264 14.6094C119.455 14.6094 121.322 15.7219 121.519 18.0761H119.438Z" fill="#0B0B0B"/>
<path d="M123.277 11.2148H125.359V18.7429L129.12 14.8683H131.676L128.061 18.3899L132.022 24.4539H129.479L126.595 19.7991L125.353 21.0229V24.4566H123.277V11.2148Z" fill="#0B0B0B"/>
<path d="M132.582 19.6514C132.582 16.7218 134.316 14.6094 137.347 14.6094C140.377 14.6094 142.112 16.7218 142.112 19.6514C142.112 22.5811 140.377 24.7141 137.347 24.7141C134.316 24.7141 132.582 22.6003 132.582 19.6514ZM140.031 19.6514C140.031 18.0033 139.209 16.2782 137.347 16.2782C135.484 16.2782 134.663 18.0019 134.663 19.6514C134.663 21.301 135.484 23.0453 137.347 23.0453C139.209 23.0453 140.031 21.3202 140.031 19.6514Z" fill="#0B0B0B"/>
<path d="M38.2128 19.4135C38.2291 23.1622 37.1504 26.8317 35.1132 29.9579C33.076 33.0841 30.1717 35.5265 26.7677 36.9763C23.3637 38.4261 19.6127 38.8182 15.9893 38.103C12.3658 37.3878 9.03255 35.5974 6.41102 32.9583C3.78948 30.3191 1.99742 26.9497 1.26145 23.2762C0.525477 19.6026 0.878655 15.7899 2.27632 12.3203C3.67399 8.85057 6.05336 5.87973 9.11355 3.78342C12.1737 1.68711 15.7773 0.559485 19.4685 0.543149C24.4181 0.521245 29.1735 2.49702 32.6887 6.03587C36.2039 9.57471 38.191 14.3868 38.2128 19.4135Z" fill="#8DC63F"/>
<path d="M36.8142 19.4191C36.8297 22.8861 35.8325 26.28 33.9487 29.1715C32.0649 32.063 29.3791 34.3222 26.2311 35.6635C23.083 37.0047 19.614 37.3678 16.2627 36.7068C12.9114 36.0457 9.82846 34.3902 7.40363 31.9497C4.9788 29.5092 3.32102 26.3932 2.63995 22.9957C1.95888 19.5983 2.28511 16.0721 3.57737 12.863C4.86963 9.65386 7.06988 6.90599 9.89989 4.96686C12.7299 3.02773 16.0626 1.98444 19.4764 1.96892C24.0539 1.94847 28.452 3.77536 31.7033 7.04779C34.9547 10.3202 36.7931 14.7702 36.8142 19.4191Z" fill="#F9E988"/>
<path d="M19.8685 3.10538C20.9658 2.90758 22.0887 2.90758 23.186 3.10538C24.2938 3.28353 25.3647 3.64792 26.3547 4.18356C27.3392 4.73296 28.1899 5.47876 29.0365 6.17786C29.8831 6.87697 30.7256 7.59255 31.5276 8.37544C32.3462 9.14613 33.0607 10.0236 33.6522 10.9851C34.2613 11.9389 34.7604 12.9606 35.1399 14.0301C35.8607 16.181 36.1109 18.498 35.7511 20.708H35.6443C35.2832 18.5173 34.7936 16.4296 34.0214 14.4435C33.659 13.4434 33.2325 12.4684 32.7448 11.5248C32.2359 10.5811 31.6751 9.66722 31.0651 8.78749C30.4447 7.89812 29.6844 7.11855 28.8147 6.48003C27.9383 5.84548 26.9308 5.43481 25.9557 5.04474C24.9806 4.65467 24.0136 4.25086 22.9966 3.95419C21.9796 3.65752 20.9464 3.43501 19.8672 3.21938L19.8685 3.10538Z" fill="white"/>
<path d="M28.3051 13.2341C27.0528 12.866 25.7545 12.3441 24.4399 11.8166C24.3642 11.4815 24.0721 11.064 23.4811 10.5544C22.6223 9.79762 21.0089 9.81685 19.6146 10.152C18.0755 9.78389 16.5554 9.65341 15.0962 10.0146C3.16124 13.3536 9.92865 21.4997 5.54688 29.6884C6.17033 31.0317 12.8904 38.8688 22.6142 36.766C22.6142 36.766 19.2886 28.6501 26.7931 24.7549C32.8803 21.5835 37.2783 15.716 28.3051 13.2341Z" fill="#8BC53F"/>
<path d="M29.7791 18.5627C29.7799 18.7081 29.7382 18.8504 29.6594 18.9717C29.5806 19.0929 29.4681 19.1878 29.3362 19.2441C29.2043 19.3005 29.0589 19.3159 28.9184 19.2883C28.7779 19.2608 28.6486 19.1915 28.5468 19.0893C28.4451 18.9871 28.3754 18.8566 28.3467 18.7142C28.318 18.5719 28.3315 18.424 28.3856 18.2895C28.4396 18.1549 28.5317 18.0396 28.6502 17.9582C28.7688 17.8767 28.9084 17.8329 29.0515 17.832C29.2433 17.8313 29.4275 17.9078 29.5639 18.0447C29.7003 18.1817 29.7777 18.368 29.7791 18.5627Z" fill="white"/>
<path d="M19.6133 10.1451C20.4829 10.2083 23.6272 11.2439 24.4387 11.8097C23.7624 9.81819 21.4864 9.55311 19.6133 10.1451Z" fill="#009345"/>
<path d="M20.4411 15.1814C20.4413 15.8518 20.2458 16.5074 19.8792 17.065C19.5126 17.6226 18.9914 18.0573 18.3816 18.3141C17.7717 18.5708 17.1006 18.6382 16.453 18.5075C15.8055 18.3769 15.2106 18.0542 14.7437 17.5801C14.2768 17.1061 13.9588 16.5021 13.8299 15.8445C13.701 15.187 13.767 14.5053 14.0196 13.8858C14.2722 13.2664 14.7 12.7369 15.2489 12.3643C15.7978 11.9918 16.4432 11.793 17.1034 11.793C17.5416 11.7928 17.9756 11.8803 18.3805 12.0505C18.7855 12.2207 19.1534 12.4703 19.4634 12.7849C19.7734 13.0996 20.0192 13.4732 20.187 13.8844C20.3547 14.2955 20.4411 14.7363 20.4411 15.1814Z" fill="white"/>
<path d="M19.4533 15.2125C19.4533 15.6841 19.3157 16.1451 19.0577 16.5372C18.7997 16.9293 18.433 17.2349 18.004 17.4154C17.575 17.5958 17.103 17.6431 16.6476 17.5511C16.1921 17.4591 15.7738 17.232 15.4455 16.8985C15.1171 16.565 14.8935 16.1402 14.8029 15.6777C14.7123 15.2151 14.7588 14.7357 14.9365 14.3C15.1142 13.8643 15.4151 13.492 15.8012 13.23C16.1873 12.968 16.6412 12.8281 17.1056 12.8281C17.7282 12.8281 18.3254 13.0793 18.7657 13.5265C19.206 13.9736 19.4533 14.5801 19.4533 15.2125Z" fill="#58595B"/>
<path d="M32.4833 20.0566C29.7785 21.9919 26.7031 23.4601 22.3403 23.4601C20.2982 23.4601 19.8843 21.2626 18.5346 22.3366C17.8381 22.8943 15.3822 24.1414 13.4334 24.0466C11.4846 23.9518 8.32534 22.7912 7.44493 18.5664C7.09601 22.7912 6.91749 25.9036 5.35547 29.4705C8.46599 34.5291 15.8826 38.4311 22.6148 36.75C21.8913 31.62 26.3055 26.5958 28.7926 24.0246C29.7393 23.0508 31.538 21.4617 32.4833 20.0539V20.0566Z" fill="#8BC53F"/>
<path d="M32.3768 20.1832C31.5369 20.9606 30.5375 21.5361 29.5205 22.0443C28.4911 22.5407 27.418 22.9375 26.3153 23.2296C25.2117 23.5194 24.0609 23.7378 22.8951 23.6307C21.7293 23.5235 20.5378 23.1211 19.7656 22.2338L19.8021 22.1912C20.7488 22.8148 21.8416 23.0346 22.9289 23.0662C24.031 23.1002 25.1334 23.008 26.2152 22.7915C27.308 22.5591 28.377 22.2234 29.4082 21.7888C30.4401 21.3562 31.4612 20.8548 32.3402 20.1406L32.3768 20.1832Z" fill="#58595B"/>
</g>
<defs>
<clipPath id="clip0_3269_2828">
<rect width="141.229" height="37.9137" fill="white" transform="translate(0.886719 0.542969)"/>
</clipPath>
</defs>
</svg>
