<svg width="155" height="27" viewBox="0 0 155 27" fill="none" xmlns="http://www.w3.org/2000/svg">
<g clip-path="url(#clip0_3269_2896)">
<path d="M31.1066 0.882812H26.1094V3.8642H31.1066V0.882812Z" fill="#FFA904"/>
<path d="M25.6562 5.85156V8.83295H29.9561V23.1376H25.6562V26.119H32.9545V23.5231V23.1376V8.83295V8.61254V5.85156H25.6562Z" fill="#FFA904"/>
<path d="M7.57501 5.85156V8.83295H3.2758V23.1376H7.57501V26.119H0.277344V23.5231V23.1376V8.83295V8.61254V5.85156H7.57501Z" fill="#FFA904"/>
<path d="M16.6358 7.07031C14.8776 7.07031 13.1589 7.58872 11.697 8.55997C10.235 9.53123 9.09563 10.9117 8.42279 12.5269C7.74995 14.142 7.5739 15.9192 7.91691 17.6339C8.25992 19.3485 9.10659 20.9235 10.3498 22.1596C11.5931 23.3958 13.1771 24.2377 14.9015 24.5787C16.6259 24.9198 18.4134 24.7447 20.0378 24.0757C21.6621 23.4067 23.0505 22.2738 24.0273 20.8202C25.0042 19.3666 25.5255 17.6577 25.5255 15.9094C25.5255 13.5652 24.5889 11.3169 22.9218 9.65923C21.2546 8.00158 18.9935 7.07031 16.6358 7.07031ZM16.6358 22.3313C15.3584 22.3314 14.1096 21.9549 13.0474 21.2493C11.9853 20.5437 11.1574 19.5408 10.6684 18.3674C10.1795 17.194 10.0515 15.9027 10.3006 14.657C10.5498 13.4112 11.1649 12.2669 12.0681 11.3687C12.9713 10.4706 14.1221 9.85888 15.375 9.61105C16.6278 9.36321 17.9265 9.49035 19.1067 9.97638C20.2868 10.4624 21.2956 11.2855 22.0053 12.3416C22.715 13.3977 23.0938 14.6393 23.0938 15.9094C23.0938 17.6125 22.4134 19.2458 21.2023 20.4501C19.9912 21.6545 18.3486 22.3311 16.6358 22.3313Z" fill="#FFA904"/>
<path d="M84.7755 19.2829V8.35311H87.8955V23.4708H84.9093C83.8711 23.4708 83.8845 23.4629 83.3899 22.5697C82.4494 20.8695 81.4852 19.1851 80.5392 17.4898C79.8546 16.2626 79.1866 15.0263 78.505 13.7973C78.3127 13.45 78.1014 13.1142 77.8431 12.6795V23.4526H74.629V23.0973C74.629 18.3206 74.6264 13.5451 74.6211 8.77086C74.6211 8.40654 74.731 8.3106 75.0858 8.31667C76.218 8.33732 77.3502 8.32821 78.4824 8.32153C78.7121 8.32153 78.8721 8.36343 78.9875 8.59295C79.236 9.08965 79.5224 9.56752 79.785 10.0581C80.4837 11.363 81.1737 12.6722 81.8742 13.9759C82.8057 15.7088 83.7404 17.44 84.6784 19.1693C84.7075 19.2098 84.74 19.2478 84.7755 19.2829Z" fill="#0B0B0B"/>
<path d="M106.288 15.95C106.247 14.7789 106.402 13.6093 106.747 12.4889C107.28 10.7759 108.396 9.53724 110.072 8.87234C110.953 8.5232 111.897 8.39508 112.854 8.30825C114.309 8.17084 115.776 8.3386 117.161 8.80069C119.1 9.44494 120.3 10.8142 120.831 12.7439C121.042 13.5096 121.102 14.3172 121.215 15.1084C121.265 15.4349 121.29 15.7648 121.29 16.0951C121.274 17.4036 121.131 18.7061 120.604 19.9096C119.976 21.3408 118.934 22.3924 117.437 22.982C116.04 23.5316 114.589 23.6117 113.126 23.5334C111.941 23.48 110.78 23.1894 109.711 22.679C108.175 21.9328 107.223 20.6995 106.725 19.085C106.41 18.0702 106.263 17.0116 106.288 15.95ZM109.874 15.8565C109.912 16.6228 110.014 17.3846 110.179 18.1341C110.432 19.3552 111.044 20.3443 112.327 20.708C113.243 20.9749 114.216 20.9825 115.136 20.7299C116.077 20.4724 116.727 19.8986 117.099 19.0261C117.45 18.2045 117.58 17.321 117.623 16.4388C117.678 15.2899 117.571 14.1502 117.185 13.0524C116.843 12.076 116.192 11.3825 115.19 11.0953C114.407 10.8732 113.581 10.841 112.782 11.0012C111.654 11.221 110.816 11.8088 110.388 12.9078C110.015 13.8452 109.84 14.8489 109.874 15.8565Z" fill="#0B0B0B"/>
<path d="M66.2967 16.0654C66.2711 17.6174 66.0696 19.1245 65.2952 20.5041C64.5306 21.8661 63.3612 22.7192 61.8754 23.1758C60.6699 23.5456 59.429 23.6106 58.1881 23.5359C56.6003 23.44 55.0736 23.0562 53.7637 22.1083C52.8587 21.452 52.2431 20.543 51.8596 19.4925C51.5414 18.6212 51.3869 17.7243 51.3191 16.7935C51.2084 15.4078 51.3409 14.0135 51.7106 12.6729C52.2254 10.8349 53.3484 9.52457 55.1658 8.85239C56.0275 8.53421 56.9258 8.40427 57.8424 8.31197C59.1249 8.18264 60.3652 8.30833 61.5926 8.62711C63.9285 9.23432 65.3911 10.7001 65.8973 13.0688C66.0036 13.5649 66.1196 14.061 66.1862 14.5632C66.2528 15.0653 66.2619 15.5639 66.2967 16.0654ZM62.6082 15.8584C62.6495 14.8821 62.4983 13.9072 62.163 12.9887C61.873 12.1902 61.3911 11.5611 60.5691 11.2442C59.592 10.8671 58.6021 10.8349 57.5768 11.062C56.4818 11.3049 55.713 11.9328 55.3844 12.9717C55.139 13.7573 54.9883 14.5692 54.9356 15.3902C54.8556 16.5973 54.9851 17.7972 55.4333 18.9454C55.7948 19.8714 56.458 20.4531 57.407 20.7221C58.0887 20.9151 58.8034 20.9643 59.5053 20.8666C60.5911 20.7197 61.4742 20.2594 61.9823 19.2271C62.5062 18.1724 62.6314 17.0479 62.6082 15.8584Z" fill="#0B0B0B"/>
<path d="M154.725 8.40131V11.1483H154.327C152.896 11.1483 151.465 11.118 150.035 11.1617C149.352 11.1766 148.674 11.2768 148.016 11.4598C147.083 11.7318 146.643 12.4878 146.458 13.3956C146.383 13.7599 146.349 14.1388 146.29 14.5493H154.718V17.3795H146.306C146.453 18.2678 146.59 19.1131 147.245 19.7634C147.69 20.2048 148.251 20.3955 148.845 20.4963C150.643 20.7999 152.457 20.5862 154.263 20.6481C154.409 20.653 154.556 20.6481 154.723 20.6481V23.4686H154.342C152.737 23.4686 151.131 23.5147 149.528 23.454C148.277 23.4066 147.012 23.3295 145.858 22.7254C144.906 22.2287 144.201 21.4951 143.66 20.5807C142.938 19.3572 142.675 18.025 142.56 16.6272C142.431 15.0411 142.637 13.5201 143.256 12.0652C143.672 11.0995 144.313 10.2461 145.126 9.57565C146.153 8.71099 147.337 8.38795 148.653 8.39463C150.661 8.40678 152.671 8.40131 154.725 8.40131Z" fill="#0B0B0B"/>
<path d="M97.4821 19.5119C98.3035 17.4267 99.098 15.4041 99.8973 13.3833C100.508 11.8325 101.132 10.2865 101.746 8.73513C101.859 8.45156 102.009 8.30158 102.369 8.31312C103.437 8.34712 104.507 8.32526 105.663 8.32526C105.535 8.65437 105.435 8.94037 105.314 9.21786C104.538 10.9921 103.759 12.7654 102.977 14.5376C102.373 15.899 101.747 17.2512 101.145 18.6144C100.506 20.0648 99.878 21.5201 99.2604 22.9802C99.1138 23.3263 98.9416 23.5055 98.5099 23.4836C97.5938 23.4369 96.6705 23.469 95.7325 23.469C93.6 18.4322 91.4681 13.3979 89.3203 8.32526C90.5527 8.32526 91.7087 8.32041 92.8623 8.33437C92.9569 8.33437 93.0998 8.44549 93.1365 8.53779C94.0665 10.8859 94.9826 13.24 95.9077 15.5899C96.4213 16.8784 96.9422 18.1626 97.4821 19.5119Z" fill="#0B0B0B"/>
<path d="M49.9639 11.1475C48.2967 11.1475 46.6552 11.1293 45.0173 11.156C44.3248 11.167 43.6384 11.2775 42.996 11.5859C42.014 12.0523 41.5761 12.8951 41.4204 13.8933C41.3034 14.6071 41.2532 15.3302 41.2702 16.0532C41.3013 17.0453 41.3886 18.0466 41.796 18.9744C42.1624 19.8106 42.8176 20.3741 43.7245 20.4864C44.7248 20.6078 45.7398 20.623 46.751 20.6467C47.8173 20.6716 48.8848 20.6528 49.9712 20.6528V23.4733H49.5852C47.631 23.4733 45.6769 23.5115 43.7263 23.4617C42.0689 23.4192 40.5343 22.9687 39.3654 21.7008C38.5276 20.79 38.0677 19.6922 37.8216 18.4954C37.606 17.4117 37.5331 16.3048 37.6048 15.2025C37.705 13.4707 38.0812 11.807 39.2073 10.4207C39.818 9.67141 40.607 9.14557 41.545 8.83771C42.3789 8.55244 43.2542 8.40536 44.1361 8.40234C46.0707 8.40538 48.0054 8.40234 49.9669 8.40234L49.9639 11.1475Z" fill="#0B0B0B"/>
<path d="M141.209 8.40087V11.1479H140.807C139.301 11.1479 137.795 11.1169 136.291 11.1631C135.684 11.1924 135.084 11.3041 134.507 11.4952C133.498 11.8128 132.945 12.5833 132.722 13.581C132.631 14.022 132.58 14.4703 132.57 14.9205C132.545 15.5532 132.539 16.1883 132.57 16.8198C132.613 17.699 132.794 18.5534 133.242 19.3264C133.72 20.1497 134.506 20.522 135.406 20.562C137.055 20.6349 138.704 20.6258 140.352 20.6495C140.625 20.6531 140.898 20.6495 141.198 20.6495V23.47H140.8C138.846 23.47 136.892 23.4979 134.937 23.4596C133.769 23.4366 132.655 23.1609 131.634 22.5336C130.549 21.8657 129.863 20.9045 129.435 19.7526C129.096 18.8418 129.021 18.316 128.894 16.903C128.847 16.4766 128.827 16.0477 128.833 15.6187C128.89 14.0151 129.138 12.4522 130.002 11.0538C130.658 9.99297 131.568 9.24124 132.768 8.83927C133.6 8.55078 134.474 8.40181 135.355 8.39844C137.295 8.40087 139.231 8.40087 141.209 8.40087Z" fill="#0B0B0B"/>
<path d="M126.717 23.4527H123.384V23.0756C123.384 18.3139 123.381 13.5522 123.375 8.79044C123.375 8.40911 123.485 8.30467 123.859 8.31742C124.802 8.34293 125.747 8.32592 126.717 8.32592V23.4527Z" fill="#0B0B0B"/>
<path d="M68.457 8.33984H71.6973V23.4393H68.457V8.33984Z" fill="#0B0B0B"/>
</g>
<defs>
<clipPath id="clip0_3269_2896">
<rect width="154.445" height="25.2362" fill="white" transform="translate(0.277344 0.882812)"/>
</clipPath>
</defs>
</svg>
