<svg width="157" height="27" viewBox="0 0 157 27" fill="none" xmlns="http://www.w3.org/2000/svg">
<g clip-path="url(#clip0_3357_4357)">
<path d="M37.533 20.593C35.9504 20.593 34.5561 20.2875 33.3502 19.6765C32.1795 19.0956 31.2099 18.1778 30.5664 17.0416C29.9127 15.896 29.5859 14.5529 29.5859 13.0123C29.5859 11.4716 29.9127 10.1285 30.5664 8.98293C31.2115 7.84519 32.1807 6.92451 33.351 6.33778C34.5537 5.71994 35.948 5.41103 37.5338 5.41103C38.4749 5.4002 39.4138 5.50636 40.3287 5.72706C41.1346 5.92846 41.9026 6.25876 42.6029 6.70516V10.2044C41.9881 9.71695 41.2826 9.35604 40.5273 9.14252C39.6604 8.90804 38.765 8.79555 37.8669 8.80833C36.4341 8.80833 35.3284 9.17992 34.5498 9.92311C33.7711 10.6663 33.3818 11.6971 33.3818 13.0154C33.3818 14.3349 33.7748 15.3693 34.5609 16.1188C35.3469 16.8683 36.4489 17.2434 37.8669 17.2439C38.7762 17.2557 39.6824 17.1363 40.5574 16.8892C41.3563 16.6502 42.1055 16.2693 42.769 15.7649V19.2412C41.4481 20.1429 39.7027 20.5935 37.533 20.593ZM51.1339 20.593C49.7428 20.6129 48.3689 20.2833 47.1386 19.6346C45.9722 19.0172 44.9982 18.0915 44.3232 16.9587C43.6347 15.8131 43.2918 14.4963 43.2945 13.0083C43.2681 11.62 43.6239 10.2511 44.3232 9.05088C44.9959 7.91361 45.9702 6.98401 47.1386 6.36464C48.3721 5.73472 49.7378 5.40625 51.1232 5.40625C52.5087 5.40625 53.8744 5.73472 55.1078 6.36464C56.275 6.98231 57.2467 7.91252 57.9138 9.05088C58.608 10.2529 58.9612 11.621 58.9354 13.0083C58.9354 14.4947 58.5946 15.8115 57.913 16.9587C57.2429 18.0926 56.2711 19.0189 55.1055 19.6346C53.8822 20.2816 52.5157 20.6112 51.1315 20.593H51.1339ZM51.1339 17.1357C51.8399 17.1431 52.5362 16.971 53.1573 16.6355C53.7689 16.3022 54.2747 15.8043 54.6172 15.1984C54.99 14.5307 55.1774 13.7757 55.1601 13.0115C55.1792 12.252 54.9966 11.501 54.6307 10.8349C54.2902 10.2309 53.7883 9.73331 53.181 9.39772C52.5554 9.05408 51.8511 8.87849 51.1371 8.88812C50.4161 8.87692 49.7045 9.0525 49.0718 9.39772C48.4644 9.7335 47.9623 10.231 47.6213 10.8349C47.2552 11.501 47.072 12.2519 47.0904 13.0115C47.073 13.7744 47.2564 14.5284 47.6221 15.1984C47.9606 15.8074 48.4674 16.3063 49.0821 16.6355C49.7149 16.9722 50.4225 17.1442 51.1395 17.1357H51.1339ZM60.3922 5.72231H64.0852V20.2801H60.3953L60.3922 5.72231ZM65.9621 5.72231H69.6124L74.9735 14.3862V5.72231H78.6657V20.2801H75.0392L69.6583 11.5957V20.2801H65.9645L65.9621 5.72231Z" fill="#0B0B0B"/>
<path d="M88.8506 20.2801C87.1957 20.2801 85.7426 19.9852 84.4913 19.3953C83.2951 18.8538 82.2835 17.975 81.5809 16.867C80.8951 15.7704 80.5522 14.48 80.5522 12.9957C80.5254 11.6073 80.8812 10.2383 81.5809 9.03824C82.2523 7.90226 83.2275 6.9756 84.3971 6.36227C85.6326 5.73894 86.9975 5.41418 88.3817 5.41418C89.766 5.41418 91.1309 5.73894 92.3664 6.36227C93.5344 6.97397 94.5067 7.90124 95.1723 9.03824C95.8662 10.2404 96.2194 11.6084 96.1939 12.9957C96.1876 13.8531 95.984 14.6976 95.5988 15.4639C95.2528 16.2099 94.7513 16.8736 94.1278 17.4106H96.5713V20.2849L88.8506 20.2801ZM88.3916 17.1357C89.0979 17.1431 89.7945 16.971 90.4158 16.6355C91.0274 16.3022 91.5332 15.8043 91.8757 15.1984C92.2483 14.5306 92.4354 13.7757 92.4178 13.0115C92.4359 12.2518 92.2524 11.5009 91.886 10.8349C91.5454 10.231 91.0435 9.73351 90.4364 9.39772C89.8104 9.05409 89.1059 8.8785 88.3916 8.88812C87.6707 8.87703 86.9591 9.0526 86.3263 9.39772C85.7192 9.73351 85.2173 10.231 84.8767 10.8349C84.5103 11.5009 84.3268 12.2518 84.3449 13.0115C84.3276 13.7744 84.5109 14.5284 84.8767 15.1984C85.2156 15.8073 85.7226 16.3062 86.3374 16.6355C86.9694 16.9713 87.6758 17.1428 88.3916 17.1341V17.1357ZM104.247 20.593C102.05 20.593 100.395 20.0062 99.2823 18.8327C98.1698 17.6592 97.6135 16.1075 97.6135 14.1776V5.72389H101.306V14.2195C101.306 15.1913 101.567 15.9271 102.088 16.427C102.61 16.9268 103.33 17.1767 104.247 17.1767C105.165 17.1767 105.881 16.9268 106.396 16.427C106.911 15.9271 107.168 15.1913 107.168 14.2195V5.72231H110.861V14.1761C110.861 16.1202 110.307 17.6755 109.199 18.8422C108.091 20.0089 106.44 20.5925 104.247 20.593ZM120.059 20.593C118.668 20.6128 117.294 20.2832 116.064 19.6346C114.897 19.0173 113.923 18.0916 113.247 16.9587C112.561 15.8131 112.219 14.4963 112.219 13.0083C112.192 11.62 112.548 10.251 113.247 9.05088C113.92 7.91356 114.895 6.98396 116.064 6.36464C117.297 5.73472 118.663 5.40625 120.048 5.40625C121.434 5.40625 122.799 5.73472 124.033 6.36464C125.2 6.98212 126.171 7.91239 126.838 9.05088C127.532 10.2528 127.886 11.621 127.859 13.0083C127.859 14.4947 127.519 15.8115 126.837 16.9587C126.167 18.0928 125.195 19.0192 124.03 19.6346C122.807 20.2814 121.441 20.6109 120.057 20.593H120.059ZM120.059 17.1357C120.765 17.1431 121.461 16.971 122.082 16.6355C122.694 16.3025 123.2 15.8046 123.542 15.1984C123.915 14.5307 124.102 13.7757 124.085 13.0115C124.103 12.2518 123.92 11.5009 123.553 10.8349C123.212 10.2312 122.711 9.73375 122.104 9.39772C121.478 9.05409 120.773 8.8785 120.059 8.88812C119.338 8.87703 118.626 9.0526 117.993 9.39772C117.387 9.73375 116.885 10.2312 116.544 10.8349C116.177 11.5009 115.994 12.2518 116.012 13.0115C115.995 13.7744 116.178 14.5284 116.544 15.1984C116.883 15.8073 117.39 16.3062 118.005 16.6355C118.637 16.9724 119.345 17.1444 120.062 17.1357H120.059ZM129.317 5.72231H135.867C137.578 5.72231 138.917 6.15264 139.883 7.01329C140.85 7.87394 141.333 9.10961 141.333 10.7203C141.333 11.8037 141.096 12.7273 140.621 13.4911C140.148 14.2546 139.448 14.8516 138.619 15.1984L141.205 20.2801H137.407L135.091 15.7191H133.011V20.2801H129.319L129.317 5.72231ZM135.221 12.6157C135.96 12.6157 136.53 12.4735 136.931 12.189C137.332 11.9046 137.534 11.415 137.536 10.7203C137.536 9.99817 137.338 9.50174 136.941 9.23101C136.545 8.96028 135.971 8.82518 135.221 8.82571H133.01V12.618L135.221 12.6157ZM147.277 5.72231H150.907L156.727 20.2801H152.952L151.783 17.2779H146.402L145.234 20.2801H141.436L147.277 5.72231ZM150.867 14.4478L149.094 9.54941L147.3 14.4478H150.867Z" fill="#FF9D00"/>
<path d="M13.1065 26.4629C11.3888 26.4658 9.68857 26.1193 8.10944 25.4445C6.5817 24.7918 5.1959 23.8483 4.02948 22.6666C2.22218 20.8306 0.997231 18.5032 0.507854 15.9757C0.018477 13.4482 0.286404 10.8327 1.27812 8.45641C1.92081 6.91909 2.85507 5.52029 4.02948 4.33699C5.21437 3.13423 6.62719 2.17898 8.1856 1.52693C9.744 0.874876 11.4168 0.539062 13.1065 0.539062C14.7962 0.539062 16.469 0.874876 18.0274 1.52693C19.5858 2.17898 20.9987 3.13423 22.1836 4.33699C24.467 6.6473 25.8062 9.72437 25.9397 12.9675C26.0731 16.2106 24.9912 19.387 22.9052 21.8765L19.0073 21.8813C20.2121 21.0015 21.2132 19.8731 21.9425 18.5727C22.6718 17.2724 23.1122 15.8305 23.2338 14.3451C23.3554 12.8597 23.1553 11.3656 22.6473 9.96424C22.1392 8.56288 21.3349 7.28714 20.2892 6.22368C19.3534 5.26943 18.2363 4.51131 17.0032 3.99374C15.7702 3.47617 14.4461 3.20957 13.1085 3.20957C11.7709 3.20957 10.4468 3.47617 9.21378 3.99374C7.98074 4.51131 6.86359 5.26943 5.92782 6.22368C4.49781 7.68496 3.52918 9.53343 3.14218 11.5396C2.75518 13.5457 2.96686 15.6212 3.75094 17.5082C4.25915 18.7282 4.99797 19.839 5.92703 20.7799C6.8493 21.7178 7.94595 22.4671 9.15554 22.9858C10.4038 23.5214 11.7486 23.7965 13.1073 23.794C13.1809 23.794 13.2418 23.794 13.2988 23.794H20.908C18.6777 25.5261 15.9321 26.4654 13.1065 26.4629ZM13.1065 21.8884C12.0038 21.89 10.9126 21.6657 9.90016 21.2295C8.91841 20.8059 8.02875 20.1954 7.28095 19.4321C6.52667 18.6648 5.92731 17.7598 5.51555 16.7664C4.65224 14.6753 4.65224 12.3283 5.51555 10.2372C5.9274 9.24411 6.52675 8.33936 7.28095 7.57232C8.02851 6.80868 8.91823 6.19812 9.90016 5.77492C10.9132 5.3402 12.0043 5.11601 13.1069 5.11601C14.2096 5.11601 15.3006 5.3402 16.3137 5.77492C17.2955 6.19794 18.185 6.80853 18.9321 7.57232C19.6868 8.33925 20.2862 9.24435 20.6975 10.238C21.5608 12.329 21.5608 14.6761 20.6975 16.7672C20.286 17.7607 19.6866 18.6658 18.9321 19.4328C18.1847 20.1964 17.2953 20.8069 16.3137 21.2303C15.3009 21.6661 14.2094 21.8901 13.1065 21.8884ZM13.0092 7.01928C12.1653 7.01825 11.3302 7.19092 10.5561 7.5265C9.80191 7.85384 9.11932 8.32573 8.54703 8.91544C7.96841 9.50718 7.50927 10.2046 7.19469 10.9696C6.53396 12.5802 6.53396 14.3855 7.19469 15.996C7.50947 16.761 7.96858 17.4583 8.54703 18.0502C9.11871 18.6373 9.79953 19.1075 10.5514 19.4344C11.3268 19.769 12.1625 19.9417 13.0072 19.9417C13.8519 19.9417 14.6877 19.769 15.463 19.4344C16.2152 19.1077 16.8964 18.6375 17.4682 18.0502L16.1364 16.7071V16.7111C15.343 17.5397 14.2524 18.0196 13.1046 18.0454C11.9567 18.0712 10.8456 17.6407 10.0157 16.8485C9.96821 16.8038 9.92232 16.7579 9.878 16.7111C9.04611 15.8434 8.58175 14.6887 8.58175 13.4876C8.58175 12.2865 9.04611 11.1317 9.878 10.2641C10.271 9.8538 10.7411 9.52482 11.2614 9.29594C11.7817 9.06706 12.3421 8.94276 12.9106 8.93014C13.479 8.91752 14.0444 9.01683 14.5744 9.22239C15.1044 9.42796 15.5887 9.73575 15.9995 10.1282C16.0462 10.1724 16.0913 10.2183 16.1364 10.2641L17.4682 8.92097C16.8969 8.33106 16.2155 7.85865 15.4622 7.53045C14.6886 7.19304 13.8534 7.019 13.0092 7.01928Z" fill="#FF9D00"/>
</g>
<defs>
<clipPath id="clip0_3357_4357">
<rect width="156.459" height="25.9222" fill="white" transform="translate(0.269531 0.539062)"/>
</clipPath>
</defs>
</svg>
