<svg width="155" height="25" viewBox="0 0 155 25" fill="none" xmlns="http://www.w3.org/2000/svg">
<g clip-path="url(#clip0_3269_3125)">
<path d="M39.407 17.4747L41.4457 21.5704C37.1438 23.9436 32.8648 24.2918 28.5767 21.9415C24.1145 19.4813 21.8742 14.9366 22.8317 10.172C23.6838 6.02135 26.7625 2.41125 32.1272 1.24759C34.7798 0.670337 38.9993 0.98645 41.3495 3.08012C41.0517 3.68486 40.7402 4.33541 40.4332 4.9768C40.1263 5.61819 39.7827 6.26874 39.4024 6.99718C37.5057 6.08091 35.6137 5.58612 33.4787 5.92056C31.8577 6.15578 30.3852 6.99429 29.3557 8.26839C28.3262 9.5425 27.8157 11.1583 27.9262 12.7926C28.1415 15.7567 30.8032 18.391 34.0239 18.6521C35.8953 18.8019 37.769 18.3921 39.407 17.4747Z" fill="black"/>
<path d="M131.165 17.8262V22.9711C129.686 23.2551 128.224 23.0627 126.676 23.0902V0.582031H131.106V14.1337L135.229 9.75847H141.684L135.426 16.0532C137.767 18.376 140.007 20.6346 142.445 23.0306H136.265L131.165 17.8262Z" fill="black"/>
<path d="M91.2638 10.0255H98.1358C98.3603 11.4686 98.2183 12.8017 98.255 14.2907H91.2592C91.1268 15.7497 91.0886 17.2157 91.1447 18.6796C91.1218 20.1044 91.1447 21.5246 91.1447 23.0319H86.3984V1.58203H98.791V5.56322H91.2638V10.0255Z" fill="black"/>
<path d="M50.4765 9.3022C52.2206 9.24194 53.944 9.69429 55.4336 10.6033C59.7813 13.2605 59.7125 20.105 54.7876 22.5148C53.4914 23.1751 52.0591 23.5239 50.6045 23.5335C49.1498 23.543 47.713 23.213 46.4083 22.5698C45.2426 22.075 44.2506 21.2443 43.5587 20.1836C42.8668 19.123 42.5064 17.8803 42.5233 16.614C42.4515 15.4128 42.714 14.2151 43.2817 13.1541C43.8495 12.093 44.7002 11.2101 45.7394 10.6033C47.1513 9.70215 48.8025 9.24863 50.4765 9.3022ZM53.6835 16.3391C53.6835 14.3967 52.4099 13.1322 50.4765 13.1734C50.0637 13.1584 49.6522 13.2292 49.268 13.3813C48.8839 13.5335 48.5355 13.7636 48.2449 14.0573C47.9543 14.3509 47.7277 14.7017 47.5796 15.0873C47.4314 15.473 47.3649 15.8852 47.3841 16.2979C47.3567 18.19 48.6898 19.6423 50.5224 19.6102C52.1854 19.5873 53.8255 18.3916 53.6972 16.3391H53.6835Z" fill="black"/>
<path d="M116.457 16.1018C116.457 19.1758 115.16 21.1412 112.847 22.4057C111.499 23.1627 109.981 23.5633 108.435 23.5698C106.89 23.5762 105.368 23.1881 104.014 22.4423C99.5426 20.1517 99.0615 14.1959 102.974 11.0256C105.723 8.78536 110.959 8.73496 113.676 10.8882C115.486 12.3038 116.535 14.0768 116.457 16.1018ZM111.614 16.4408C111.641 16.0162 111.579 15.5906 111.432 15.1913C111.285 14.7921 111.057 14.4279 110.761 14.1221C110.465 13.8163 110.109 13.5757 109.714 13.4157C109.32 13.2556 108.897 13.1796 108.472 13.1926C108.047 13.1722 107.622 13.238 107.224 13.3862C106.825 13.5343 106.461 13.7617 106.153 14.0545C105.844 14.3474 105.599 14.6996 105.43 15.0901C105.262 15.4805 105.174 15.9011 105.173 16.3263C105.166 17.1897 105.497 18.0216 106.097 18.6429C106.697 19.2641 107.517 19.6249 108.38 19.6477C108.805 19.6514 109.226 19.5705 109.62 19.4098C110.013 19.2492 110.371 19.0119 110.672 18.7118C110.973 18.4117 111.211 18.0547 111.373 17.6617C111.535 17.2687 111.617 16.8475 111.614 16.4225V16.4408Z" fill="black"/>
<path d="M17.7936 17.526C17.8302 21.2461 14.7195 24.4759 11.0636 24.4805C7.623 24.4805 4.28778 21.3789 4.24655 17.778C4.2099 14.4611 6.39978 10.8327 11.0682 10.8556C15.3105 10.8785 17.7065 13.9297 17.7936 17.526Z" fill="black"/>
<path d="M73.5556 23.0717H69.043V9.78579C70.5136 9.55672 71.9659 9.71707 73.4365 9.67584L73.6381 10.7158C73.7525 10.7391 73.8712 10.7305 73.9811 10.6909C74.091 10.6513 74.1878 10.5823 74.2611 10.4913C75.7684 9.11691 77.6147 8.99321 79.4014 9.488C81.9899 10.2073 83.2635 11.3205 83.3597 14.3213C83.4559 17.1663 83.3597 20.0159 83.3597 22.9846H78.8333C78.6042 21.3949 78.7783 19.7548 78.7325 18.1238C78.7325 17.2076 78.7554 16.2913 78.7325 15.375C78.6455 13.7028 77.7017 12.7637 76.2082 12.8049C75.8535 12.8102 75.5033 12.8857 75.1778 13.027C74.8524 13.1683 74.5581 13.3726 74.312 13.6281C74.0659 13.8836 73.8727 14.1853 73.7437 14.5158C73.6146 14.8463 73.5523 15.199 73.5602 15.5537C73.5327 17.4916 73.5602 19.4341 73.5602 21.3766L73.5556 23.0717Z" fill="black"/>
<path d="M142.711 21.5685L144.434 18.6914C145.066 19.035 145.652 19.3465 146.234 19.6718C146.791 19.956 147.415 20.0843 148.039 20.0429C148.593 20.0429 149.097 19.9421 149.276 19.3603C149.5 18.641 148.955 18.3157 148.438 18.0684C147.728 17.7248 146.953 17.514 146.252 17.1521C144.273 16.1488 143.32 14.6415 143.572 13.0289C143.717 12.0899 144.172 11.2263 144.865 10.5755C145.557 9.92473 146.447 9.52402 147.393 9.4371C149.542 9.14847 151.704 9.14389 153.807 10.2434C153.441 11.2697 152.966 12.2542 152.391 13.1801C151.132 12.4967 149.669 12.2871 148.268 12.5891C147.668 13.3679 147.984 13.8535 148.754 14.1605C149.697 14.5361 150.692 14.8019 151.603 15.2417C153.541 16.1579 154.315 17.5048 154.118 19.4473C154.088 20.0174 153.928 20.5729 153.651 21.0721C153.374 21.5713 152.987 22.0011 152.52 22.329C150.316 23.8592 145.153 24.0562 142.711 21.5685Z" fill="black"/>
<path d="M118.88 0.523438H123.163V23.0408H118.875L118.88 0.523438Z" fill="black"/>
<path d="M65.4124 23.053H61.0234V9.73047H65.4124V23.053Z" fill="black"/>
<path d="M7.41118 3.97941C7.58069 6.05018 5.54657 7.40168 4.10803 7.3467C3.6677 7.34023 3.23306 7.24615 2.82947 7.06993C2.42589 6.89371 2.06143 6.63888 1.75737 6.32032C1.45331 6.00176 1.21573 5.62584 1.05849 5.21449C0.901245 4.80314 0.827492 4.36459 0.841529 3.92444C0.841529 2.0919 2.39002 0.3968 4.15842 0.575473C6.26584 0.790796 7.53946 2.05525 7.41118 3.97941Z" fill="#F7E53B"/>
<path d="M63.2891 1.24609C64.0032 1.27009 64.6815 1.5645 65.1867 2.06974C65.692 2.57498 65.9864 3.2533 66.0104 3.96741C66.014 4.32124 65.9473 4.67227 65.8142 5.0001C65.681 5.32794 65.484 5.62604 65.2347 5.8771C64.9853 6.12816 64.6886 6.32717 64.3616 6.46257C64.0347 6.59797 63.6841 6.66706 63.3303 6.66583C62.6122 6.67217 61.92 6.3972 61.402 5.89975C60.884 5.4023 60.5813 4.72188 60.5586 4.00406C60.5984 3.29023 60.8981 2.61566 61.4011 2.10759C61.9041 1.59953 62.5757 1.29309 63.2891 1.24609Z" fill="black"/>
</g>
<defs>
<clipPath id="clip0_3269_3125">
<rect width="153.324" height="23.9559" fill="white" transform="translate(0.839844 0.523438)"/>
</clipPath>
</defs>
</svg>
