<svg width="147" height="29" viewBox="0 0 147 29" fill="none" xmlns="http://www.w3.org/2000/svg">
<g clip-path="url(#clip0_3269_2811)">
<path d="M41.4984 20.2714C38.8191 20.2714 37.1588 17.8385 37.1588 14.4723C37.1588 11.1396 38.5561 8.65663 41.4819 8.65663C43.4051 8.65663 44.6708 9.90643 44.9012 11.5561H49.3723C49.1419 9.50648 48.2379 7.70681 46.66 6.50701C45.3778 5.50716 43.6024 4.89062 41.4984 4.89062C36.1067 4.89062 32.6055 9.02324 32.6055 14.4723C32.6055 19.9548 36.2218 23.9707 41.5314 23.9707C44.079 23.9707 45.9365 23.2542 47.3174 21.8877C48.5501 20.688 49.3723 19.0216 49.4871 17.2052H45.016C44.819 18.9883 43.5038 20.2714 41.4984 20.2714Z" fill="#0B0B0B"/>
<path d="M57.7407 10.1055C53.5983 10.1055 50.8203 13.105 50.8203 17.0543C50.8203 21.0036 53.5983 24.0032 57.7407 24.0032C61.9157 24.0032 64.6445 21.0036 64.6445 17.0543C64.6445 13.105 61.9157 10.1055 57.7407 10.1055ZM57.7242 21.0203C55.9324 21.0203 54.9954 19.4373 54.9954 17.0543C54.9954 14.6714 55.9324 13.055 57.7242 13.055C59.516 13.055 60.4856 14.6714 60.4856 17.0543C60.4695 19.4373 59.516 21.0203 57.7242 21.0203Z" fill="#0B0B0B"/>
<path d="M70.4928 8.71359C71.3722 7.82205 71.3722 6.3766 70.4928 5.48506C69.6131 4.59352 68.1874 4.59352 67.308 5.48506C66.4286 6.3766 66.4286 7.82205 67.308 8.71359C68.1874 9.60513 69.6131 9.60513 70.4928 8.71359Z" fill="#0B0B0B"/>
<path d="M65.3164 13.4065H67.0422V23.5882H71.1519V10.457H65.3164V13.4065Z" fill="#0B0B0B"/>
<path d="M81.2605 10.0742C79.4691 10.0742 78.2195 10.8407 77.2664 12.2572H77.1842V10.4575H73.2227V23.572H77.3485V16.3232C77.3485 14.7068 78.2525 13.557 79.6169 13.557C80.9648 13.557 81.6388 14.5068 81.6388 15.8899V23.572H85.7647V15.0401C85.7647 12.1239 84.088 10.0742 81.2605 10.0742Z" fill="#0B0B0B"/>
<path d="M95.4318 5.25781H87.7227V23.5714H95.1526C97.421 23.5714 99.2455 22.9882 100.659 21.905C102.681 20.3386 103.799 17.7557 103.799 14.5229C103.799 8.92386 100.429 5.25781 95.4318 5.25781ZM94.8239 19.7721H92.1938V9.05719H94.8731C97.6841 9.05719 99.2785 11.2068 99.2785 14.5396C99.262 17.889 97.7497 19.7721 94.8239 19.7721Z" fill="#0B0B0B"/>
<path d="M116.012 11.8049C114.894 10.7884 113.431 10.1719 111.59 10.1719C107.645 10.1719 104.949 13.1714 104.949 17.0874C104.949 21.0534 107.579 24.0529 111.853 24.0529C113.497 24.0529 114.812 23.6196 115.897 22.8531C117.031 22.0532 117.787 20.9367 118.067 19.7536H114.056C113.694 20.5701 112.987 21.0534 111.903 21.0534C110.209 21.0534 109.256 19.9536 108.993 18.1872H118.297C118.313 15.5043 117.557 13.238 116.012 11.8049ZM109.009 15.6876C109.289 14.1212 110.094 13.1214 111.656 13.1214C112.987 13.1214 113.957 14.1212 114.105 15.6876H109.009Z" fill="#0B0B0B"/>
<path d="M126.416 15.372C124.772 15.0721 123.309 14.9388 123.309 14.0222C123.309 13.2057 124.098 12.8224 125.101 12.8224C126.235 12.8224 127.024 13.1891 127.172 14.3555H130.969C130.772 11.7726 128.8 10.1562 125.134 10.1562C122.076 10.1562 119.545 11.5893 119.545 14.3555C119.545 17.4383 121.945 18.0382 124.197 18.4215C125.923 18.7215 127.485 18.8548 127.485 20.0379C127.485 20.8878 126.696 21.3377 125.463 21.3377C124.098 21.3377 123.243 20.7045 123.079 19.388H119.184C119.315 22.2876 121.682 24.0539 125.479 24.0539C128.865 24.0539 131.364 22.5708 131.364 19.7047C131.38 16.3552 128.701 15.7553 126.416 15.372Z" fill="#0B0B0B"/>
<path d="M141.061 15.3895L145.614 10.4569H140.864L137.017 14.8896V5.25781H132.957V23.5881H137.017V19.5554L138.266 18.2223L141.373 23.5881H146.14L141.061 15.3895Z" fill="#0B0B0B"/>
<path d="M14.4915 15.6892C15.1815 15.6892 15.7408 15.1221 15.7408 14.4227C15.7408 13.7232 15.1815 13.1562 14.4915 13.1562C13.8015 13.1562 13.2422 13.7232 13.2422 14.4227C13.2422 15.1221 13.8015 15.6892 14.4915 15.6892Z" fill="#F8BF1E"/>
<path d="M24.4524 15.6892C25.1424 15.6892 25.7017 15.1221 25.7017 14.4227C25.7017 13.7232 25.1424 13.1562 24.4524 13.1562C23.7624 13.1562 23.2031 13.7232 23.2031 14.4227C23.2031 15.1221 23.7624 15.6892 24.4524 15.6892Z" fill="#F8BF1E"/>
<path d="M24.4524 25.8024C25.1424 25.8024 25.7017 25.2354 25.7017 24.536C25.7017 23.8365 25.1424 23.2695 24.4524 23.2695C23.7624 23.2695 23.2031 23.8365 23.2031 24.536C23.2031 25.2354 23.7624 25.8024 24.4524 25.8024Z" fill="#F8BF1E"/>
<path d="M28.1174 4.07465C27.9859 2.22496 26.5229 0.725212 24.6983 0.591901C23.5312 0.508582 22.4791 0.958505 21.7395 1.72505C21.1806 2.30828 20.4244 2.65822 19.619 2.65822H19.3231C18.5012 2.65822 17.7286 2.30828 17.1533 1.70838C16.4793 1.0085 15.5423 0.591901 14.5068 0.591901C13.4712 0.591901 12.5342 1.02516 11.8602 1.70838C11.2849 2.30828 10.5123 2.65822 9.69043 2.65822H9.41098C8.60554 2.65822 7.83294 2.34161 7.27404 1.75837C7.15899 1.64173 7.0439 1.52508 6.92885 1.42509C5.53164 0.275287 3.47688 0.308615 2.12897 1.52508C0.50161 2.97484 0.435858 5.50775 1.94815 7.0408C1.96459 7.05747 1.98103 7.07414 1.99747 7.0908C2.58923 7.65737 2.90155 8.45727 2.90155 9.27379V9.55708C2.90155 10.3903 2.55636 11.1735 1.96459 11.7567C1.27419 12.4399 0.863245 13.3897 0.863245 14.4396C0.863245 15.4894 1.29063 16.4393 1.96459 17.1225C2.55636 17.7057 2.90155 18.4889 2.90155 19.3221V19.7054C2.90155 20.5219 2.55636 21.2884 1.98103 21.855C1.25776 22.5716 0.813932 23.5881 0.863245 24.7045C0.945435 26.6709 2.52348 28.254 4.44672 28.3206C5.56451 28.3539 6.56722 27.904 7.27404 27.1541C7.83294 26.5709 8.58907 26.2043 9.39454 26.2043H9.70687C10.5123 26.2043 11.2685 26.5542 11.8274 27.1541C12.5671 27.9373 13.6355 28.3872 14.8027 28.3039C16.6272 28.1706 18.1067 26.6709 18.2382 24.8045C18.3861 22.5882 16.6766 20.7552 14.5232 20.7552C13.504 20.7552 12.5671 21.1718 11.8931 21.855C11.3178 22.4382 10.5452 22.7882 9.73974 22.7882H9.39454C8.58907 22.7882 7.80007 22.4716 7.22473 21.8717C7.2083 21.855 7.2083 21.855 7.19186 21.8383C6.60009 21.2551 6.2549 20.4719 6.2549 19.6387V19.3054C6.2549 18.4723 6.60009 17.6891 7.19186 17.1058C7.88225 16.4226 8.29322 15.4727 8.29322 14.4229C8.29322 13.3731 7.86581 12.4233 7.19186 11.74C6.60009 11.1568 6.2549 10.3736 6.2549 9.54041V9.24046C6.2549 8.40727 6.60009 7.62404 7.17543 7.0408C7.19186 7.02418 7.19186 7.02418 7.2083 7.00751C7.22473 6.99084 7.22473 6.99084 7.24117 6.97418C7.8165 6.39094 8.58907 6.04099 9.41098 6.04099H9.70687C10.5288 6.04099 11.3013 6.39094 11.8767 6.99084C12.5506 7.69071 13.4876 8.10732 14.5232 8.10732C15.5588 8.10732 16.4957 7.67404 17.1697 6.99084C17.745 6.39094 18.5176 6.04099 19.3395 6.04099H19.6025C20.4244 6.04099 21.197 6.39094 21.7723 6.99084C22.4463 7.69071 23.3832 8.10732 24.4189 8.10732C26.5558 8.12398 28.2653 6.29094 28.1174 4.07465Z" fill="#F8BF1E"/>
</g>
<defs>
<clipPath id="clip0_3269_2811">
<rect width="145.283" height="27.8386" fill="white" transform="translate(0.859375 0.582031)"/>
</clipPath>
</defs>
</svg>
