<svg width="153" height="35" viewBox="0 0 153 35" fill="none" xmlns="http://www.w3.org/2000/svg">
<g clip-path="url(#clip0_3353_4200)">
<path d="M22.7801 25.4676L16.4768 28.1767V27.9057C15.2614 28.2134 13.915 28.3906 12.6397 28.4477C6.71176 28.3906 2.00652 25.3236 1.95176 21.674V20.3192C3.89878 23.1181 7.86224 24.9934 12.6397 24.9256C14.256 24.9934 15.9094 24.7405 17.2987 24.3837L17.8468 23.0289C16.199 23.5149 14.4005 23.8531 12.6397 23.8418C6.71176 23.8531 2.00652 20.786 1.95176 17.0687V15.9848C3.89878 18.572 7.85378 20.4479 12.6397 20.3198C14.7928 20.4479 16.8985 20.0002 18.6688 19.2359L18.9431 17.881C17.2135 18.7831 14.9718 19.307 12.6397 19.2359C6.71176 19.307 2.00652 16.24 1.95176 12.4628V11.379C3.89878 14.0265 7.86224 15.9019 12.6397 15.9848C15.3551 15.9019 17.9293 15.1923 20.0394 14.0881L20.3138 12.4623C18.3984 13.8656 15.6023 14.77 12.6397 14.901C6.71176 14.77 2.00708 11.7024 1.95176 7.85694C2.00652 4.19944 6.71176 1.13242 12.6397 1.08387C16.1736 1.13242 19.4557 2.35742 21.4101 4.33492L21.6003 4.64823L22.9822 4.65387L22.7801 4.33492C20.8365 1.72347 16.9493 0 12.6397 0C6.08063 0 0.855469 3.57395 0.855469 7.85694V21.945C1.08579 26.1258 6.19184 29.531 12.6397 29.531C16.8985 29.531 20.7259 27.8752 22.7801 25.4676Z" fill="black"/>
<path d="M20.2173 34.9996L22.4302 25.7026L16.0686 28.4371L19.9412 12.3044H12.4727L14.4089 4.3746H38.1954L36.2591 12.3044H28.5151L26.8554 16.6794L35.4293 13.1246L20.2173 34.9996ZM24.0898 23.7883L22.9834 29.2573L32.1105 15.5859L24.6425 18.8674L27.9618 11.2109H35.4293L36.8123 5.46863H15.2388L13.8557 11.2109H21.3237L17.7277 26.5234L24.0898 23.7894V23.7883ZM54.5822 9.61161C54.5167 10.5182 54.1819 11.2318 53.5779 11.7534C52.9739 12.2744 52.1779 12.5347 51.19 12.5347C50.1101 12.5347 49.2593 12.1711 48.6406 11.4435C48.0214 10.7164 47.7114 9.71774 47.7114 8.44814V7.93274C47.7114 7.12266 47.8543 6.40855 48.1399 5.79097C48.4256 5.17395 48.8337 4.69976 49.3638 4.37008C49.8944 4.03984 50.5109 3.875 51.2137 3.875C52.1858 3.875 52.9693 4.13581 53.5638 4.65685C54.1577 5.17734 54.5009 5.90895 54.594 6.85056H52.8576C52.8152 6.30637 52.6634 5.91177 52.4031 5.66677C52.1423 5.42177 51.746 5.29927 51.2137 5.29927C50.6345 5.29927 50.2015 5.50645 49.9142 5.92137C49.6263 6.33629 49.4789 6.97984 49.471 7.85202V8.48879C49.471 9.39935 49.6093 10.0649 49.8848 10.4855C50.1614 10.906 50.5961 11.1166 51.1906 11.1166C51.7268 11.1166 52.1271 10.9941 52.3913 10.7491C52.656 10.5041 52.8073 10.1248 52.8457 9.61161H54.5822ZM63.5489 8.39621C63.5489 9.22605 63.4022 9.95315 63.1086 10.5781C62.8156 11.2035 62.3962 11.6856 61.8498 12.0255C61.3039 12.3648 60.6778 12.5347 59.9716 12.5347C59.2733 12.5347 58.6501 12.367 58.1019 12.0311C57.5543 11.6952 57.1293 11.216 56.8284 10.5927C56.5275 9.96952 56.3751 9.25258 56.3711 8.44194V8.02532C56.3711 7.19548 56.5207 6.46556 56.8199 5.835C57.1191 5.20387 57.5414 4.71952 58.0878 4.38137C58.6337 4.04379 59.2581 3.875 59.9603 3.875C60.6626 3.875 61.2869 4.04436 61.8328 4.38137C62.3787 4.71952 62.8015 5.20387 63.1002 5.83444C63.3993 6.46556 63.5489 7.19379 63.5489 8.01968V8.39621ZM61.7894 8.01403C61.7894 7.13 61.6313 6.45879 61.3152 5.99927C60.9985 5.54032 60.5469 5.31056 59.9603 5.31056C59.3772 5.31056 58.9278 5.5375 58.6111 5.99081C58.295 6.44411 58.1347 7.10855 58.1313 7.98524V8.39621C58.1313 9.25653 58.2893 9.92435 58.6055 10.3985C58.9216 10.8733 59.3772 11.111 59.9716 11.111C60.5542 11.111 61.0018 10.8823 61.3152 10.4251C61.6273 9.96782 61.7854 9.30113 61.7894 8.425V8.01403ZM67.5598 12.419H65.8234V3.99073H67.5598V12.419ZM76.9263 12.419H75.1893L71.8089 6.87371V12.419H70.0725V3.99073H71.8089L75.1955 9.54782V3.99073H76.9263V12.419ZM85.5227 5.3975H82.9412V12.419H81.2048V5.3975H78.6577V3.99073H85.5227V5.3975ZM92.4866 8.76653H89.1526V11.024H93.0652V12.419H87.4156V3.99073H93.0539V5.3975H89.1526V7.40605H92.4866V8.76653ZM96.7239 11.024H100.411V12.419H94.9874V3.99073H96.7239V11.0246V11.024ZM107.381 8.76597H104.047V11.024H107.959V12.419H102.31V3.99073H107.948V5.3975H104.047V7.40605H107.381V8.76653V8.76597ZM116.55 11.3537C116.237 11.728 115.795 12.0187 115.224 12.2248C114.653 12.4314 114.021 12.5352 113.326 12.5352C112.596 12.5352 111.957 12.3755 111.407 12.0571C110.857 11.7387 110.433 11.2769 110.133 10.6706C109.834 10.0649 109.681 9.35306 109.673 8.53508V7.96153C109.673 7.1204 109.815 6.39218 110.099 5.77686C110.382 5.16153 110.792 4.69016 111.326 4.36444C111.86 4.03815 112.486 3.875 113.204 3.875C114.204 3.875 114.985 4.11323 115.549 4.59024C116.112 5.06669 116.446 5.76048 116.55 6.67105H114.86C114.783 6.18839 114.612 5.83556 114.347 5.61145C114.083 5.3879 113.719 5.27613 113.256 5.27613C112.666 5.27613 112.216 5.49798 111.907 5.94169C111.599 6.3854 111.442 7.04532 111.439 7.92145V8.45944C111.439 9.34347 111.607 10.0107 111.942 10.4623C112.278 10.914 112.77 11.1398 113.418 11.1398C114.07 11.1398 114.536 11.0009 114.813 10.7231V9.27008H113.233V7.99089H116.55V11.3537ZM121.98 9.33387H120.597V12.419H118.86V3.99073H121.992C122.987 3.99073 123.755 4.21258 124.295 4.65685C124.836 5.10056 125.105 5.72718 125.105 6.53782C125.105 7.11306 124.981 7.59234 124.732 7.97621C124.483 8.36008 124.106 8.66605 123.6 8.89355L125.424 12.3377V12.419H123.56L121.98 9.33387ZM120.597 7.9271H121.997C122.433 7.9271 122.771 7.81589 123.01 7.59403C123.249 7.37218 123.369 7.06677 123.369 6.67669C123.369 6.27927 123.256 5.96653 123.03 5.73903C122.805 5.51153 122.458 5.3975 121.992 5.3975H120.596V7.9271H120.597ZM132.087 10.6819H129.042L128.463 12.419H126.617L129.754 3.99073H131.363L134.518 12.419H132.672L132.087 10.6825V10.6819ZM129.511 9.27629H131.618L130.559 6.12065L129.511 9.27629ZM137.945 9.4496V12.419H136.208V3.99073H139.496C140.129 3.99073 140.686 4.10645 141.166 4.33847C141.647 4.56992 142.016 4.89847 142.275 5.32524C142.533 5.75145 142.663 6.23694 142.663 6.78113C142.663 7.60702 142.38 8.2579 141.815 8.73435C141.249 9.21137 140.467 9.4496 139.467 9.4496H137.945ZM137.945 8.04282H139.496C139.956 8.04282 140.306 7.935 140.547 7.71879C140.788 7.50258 140.909 7.19379 140.909 6.79298C140.909 6.37976 140.787 6.04556 140.544 5.79097C140.301 5.53694 139.965 5.4054 139.537 5.3975H137.945V8.04282ZM151.617 12.419H149.881V8.80718H146.495V12.419H144.758V3.99073H146.495V7.40605H149.881V3.99073H151.617V12.419Z" fill="#FABF2C"/>
<path d="M52.4867 20.226H50.6092V25.4026H49.5716V20.226H47.7109V19.3826H52.4867V20.226ZM54.5077 21.4171C54.8357 21.0366 55.2506 20.8464 55.7525 20.8464C56.7065 20.8464 57.1897 21.3906 57.2033 22.4795V25.4026H56.199V22.5168C56.199 22.208 56.1324 21.9895 55.9986 21.8614C55.8648 21.7332 55.6684 21.6694 55.4092 21.6694C55.0067 21.6694 54.7064 21.8484 54.5077 22.2063V25.4026H53.5029V19.0518H54.5077V21.4171ZM60.5277 25.485C59.8909 25.485 59.375 25.2846 58.9792 24.8838C58.5841 24.483 58.3859 23.9484 58.3859 23.2817V23.1575C58.3859 22.711 58.4723 22.3119 58.6445 21.9607C58.8037 21.624 59.0552 21.3393 59.3699 21.1399C59.6819 20.944 60.0436 20.8421 60.412 20.8464C61.0211 20.8464 61.4919 21.0406 61.8238 21.429C62.1558 21.8179 62.3223 22.3677 62.3223 23.079V23.4844H59.3987C59.4292 23.8536 59.5528 24.1454 59.769 24.3605C59.9852 24.5756 60.2573 24.6834 60.5853 24.6834C61.0459 24.6834 61.4208 24.4971 61.7104 24.1245L62.2523 24.6416C62.0727 24.9095 61.8248 25.1244 61.5342 25.2643C61.2351 25.4111 60.8997 25.485 60.5277 25.485ZM60.408 21.6519C60.132 21.6519 59.9096 21.749 59.7402 21.9421C59.5709 22.1346 59.4625 22.4033 59.4156 22.7482H61.3293V22.6737C61.3079 22.3373 61.2181 22.0832 61.0612 21.9111C60.9037 21.7389 60.6863 21.6525 60.408 21.6525V21.6519ZM66.2412 25.4026V21.6734H65.5587V20.9288H66.2412V20.5195C66.2412 20.0233 66.3789 19.64 66.6544 19.3702C66.9305 19.0998 67.316 18.9648 67.8122 18.9648C67.9889 18.9648 68.1763 18.9897 68.3745 19.0394L68.3496 19.8252C68.2229 19.8016 68.0941 19.7904 67.9652 19.7919C67.4854 19.7919 67.246 20.0386 67.246 20.5319V20.9288H68.1549V21.6734H67.246V25.4026H66.2412ZM71.9383 24.9645C71.6436 25.3117 71.2242 25.485 70.6811 25.485C70.1962 25.485 69.8287 25.3433 69.5797 25.0594C69.3302 24.7754 69.2055 24.365 69.2055 23.827V20.9288H70.2103V23.8146C70.2103 24.3825 70.4457 24.667 70.9171 24.667C71.4048 24.667 71.7345 24.492 71.905 24.142V20.9288H72.9098V25.4026H71.9631L71.9383 24.9645ZM75.5309 19.8415V20.9288H76.3212V21.6734H75.5309V24.1702C75.5309 24.3413 75.5647 24.4649 75.6325 24.5406C75.7002 24.6162 75.8205 24.654 75.9938 24.654C76.11 24.654 76.2269 24.6405 76.3455 24.6128V25.3902C76.1302 25.4516 75.9077 25.4835 75.6838 25.485C74.9121 25.485 74.5266 25.0594 74.5266 24.2075V21.6728H73.7905V20.9288H74.526V19.8421H75.5309V19.8415ZM80.1367 24.9645C79.8415 25.3117 79.4226 25.485 78.8796 25.485C78.3941 25.485 78.0271 25.3433 77.7776 25.0594C77.5281 24.7754 77.4034 24.365 77.4034 23.827V20.9288H78.4082V23.8146C78.4082 24.3825 78.6442 24.667 79.1155 24.667C79.6033 24.667 79.9324 24.492 80.1034 24.142V20.9288H81.1083V25.4026H80.1616L80.1367 24.9645ZM84.8126 21.8467C84.6773 21.8245 84.5405 21.8136 84.4034 21.814C83.9427 21.814 83.6328 21.9901 83.473 22.3429V25.4026H82.4682V20.9288H83.4279L83.4521 21.429C83.6949 21.0406 84.0313 20.8464 84.4609 20.8464C84.6043 20.8464 84.7229 20.8656 84.8166 20.904L84.8126 21.8467ZM87.6776 25.485C87.0408 25.485 86.5248 25.2846 86.1291 24.8838C85.7339 24.483 85.5358 23.9484 85.5358 23.2817V23.1575C85.5358 22.711 85.6222 22.3119 85.7943 21.9607C85.9535 21.624 86.2051 21.3393 86.5197 21.1399C86.8317 20.944 87.1935 20.8421 87.5618 20.8464C88.1709 20.8464 88.6417 21.0406 88.9737 21.429C89.3056 21.8179 89.4721 22.3677 89.4721 23.079V23.4844H86.5485C86.579 23.8536 86.7026 24.1454 86.9188 24.3605C87.135 24.5756 87.4071 24.6834 87.7351 24.6834C88.1958 24.6834 88.5706 24.4971 88.8602 24.1245L89.4021 24.6416C89.2226 24.9095 88.9747 25.1244 88.6841 25.2643C88.3849 25.4111 88.0496 25.485 87.6776 25.485ZM87.5579 21.6519C87.2818 21.6519 87.0594 21.749 86.89 21.9421C86.7207 22.1346 86.6123 22.4033 86.5655 22.7482H88.4792V22.6737C88.4577 22.3373 88.368 22.0832 88.211 21.9111C88.0535 21.7389 87.8362 21.6525 87.5579 21.6525V21.6519ZM92.8491 23.1242C92.8491 22.6861 92.936 22.2915 93.1099 21.9398C93.2693 21.6039 93.5237 21.3221 93.8415 21.1292C94.1559 20.9406 94.5167 20.8464 94.9254 20.8464C95.5283 20.8464 96.0183 21.0406 96.3948 21.429C96.7708 21.8179 96.9746 22.3333 97.0045 22.9757L97.009 23.2111C97.009 23.652 96.9243 24.0466 96.755 24.3938C96.5969 24.7283 96.3435 25.0087 96.0267 25.1999C95.7112 25.3902 95.3465 25.485 94.9333 25.485C94.3021 25.485 93.7969 25.275 93.4176 24.855C93.0393 24.4344 92.8491 23.8739 92.8491 23.1739V23.1242ZM93.8539 23.2111C93.8539 23.6718 93.9493 24.0319 94.1396 24.2922C94.3292 24.553 94.594 24.6834 94.9333 24.6834C95.272 24.6834 95.5362 24.5507 95.7247 24.286C95.9138 24.0218 96.0081 23.6345 96.0081 23.1242C96.0081 22.6726 95.911 22.3141 95.7168 22.0494C95.5221 21.7846 95.2584 21.6525 94.9248 21.6525C94.5974 21.6525 94.3366 21.7823 94.1435 22.0431C93.9505 22.304 93.8539 22.6929 93.8539 23.2117V23.2111ZM98.5513 25.4026V21.6734H97.8688V20.9288H98.5513V20.5195C98.5513 20.0233 98.689 19.64 98.9645 19.3702C99.2405 19.0998 99.6261 18.9648 100.122 18.9648C100.299 18.9648 100.486 18.9897 100.685 19.0394L100.66 19.8252C100.533 19.8016 100.405 19.7904 100.276 19.7919C99.796 19.7919 99.5561 20.0386 99.5561 20.5319V20.9288H100.466V21.6734H99.5561V25.4026H98.5513ZM104.93 20.9288L104.959 21.3962C105.274 21.0293 105.704 20.8464 106.249 20.8464C106.847 20.8464 107.257 21.075 107.477 21.5328C107.803 21.075 108.26 20.8464 108.85 20.8464C109.343 20.8464 109.711 20.9824 109.952 21.2556C110.193 21.5283 110.316 21.9308 110.322 22.4626V25.4026H109.317V22.4919C109.317 22.208 109.255 21.9997 109.131 21.8676C109.007 21.7349 108.802 21.6689 108.516 21.6689C108.286 21.6689 108.099 21.7304 107.955 21.8529C107.808 21.9794 107.702 22.1471 107.651 22.3344L107.655 25.4026H106.65V22.4586C106.636 21.9325 106.368 21.6689 105.844 21.6689C105.442 21.6689 105.156 21.8326 104.988 22.1611V25.4026H103.984V20.9288H104.93ZM111.504 23.1248C111.504 22.6861 111.591 22.2915 111.764 21.9398C111.924 21.6039 112.178 21.322 112.497 21.1292C112.81 20.9406 113.172 20.8464 113.58 20.8464C114.183 20.8464 114.673 21.0406 115.049 21.429C115.426 21.8179 115.629 22.3333 115.659 22.9757L115.663 23.2111C115.663 23.652 115.579 24.0466 115.409 24.3938C115.251 24.7283 114.998 25.0087 114.681 25.1999C114.366 25.3902 114.002 25.485 113.588 25.485C112.957 25.485 112.451 25.275 112.073 24.855C111.694 24.4344 111.504 23.8739 111.504 23.1739V23.1242V23.1248ZM112.509 23.2111C112.509 23.6718 112.604 24.0319 112.794 24.2922C112.984 24.553 113.249 24.6834 113.588 24.6834C113.926 24.6834 114.191 24.5507 114.38 24.286C114.568 24.0218 114.663 23.6345 114.663 23.1242C114.663 22.6726 114.565 22.3141 114.371 22.0494C114.177 21.7846 113.913 21.6525 113.58 21.6525C113.252 21.6525 112.991 21.7823 112.798 22.0431C112.605 22.304 112.509 22.6929 112.509 23.2117V23.2111ZM117.784 20.9288L117.813 21.4459C118.144 21.0462 118.578 20.8464 119.115 20.8464C120.047 20.8464 120.521 21.3798 120.538 22.4462V25.4026H119.533V22.5044C119.533 22.2204 119.472 22.0098 119.349 21.8738C119.227 21.7372 119.026 21.6689 118.747 21.6689C118.343 21.6689 118.041 21.8523 117.842 22.2187V25.4026H116.837V20.9288H117.784ZM123.87 25.485C123.234 25.485 122.717 25.2846 122.322 24.8838C121.926 24.483 121.729 23.9484 121.729 23.2817V23.1575C121.729 22.711 121.814 22.3119 121.987 21.9607C122.146 21.6239 122.398 21.3392 122.713 21.1399C123.024 20.9441 123.386 20.8422 123.754 20.8464C124.364 20.8464 124.834 21.0406 125.167 21.429C125.498 21.8179 125.664 22.3677 125.664 23.079V23.4844H122.741C122.772 23.8536 122.895 24.1454 123.111 24.3605C123.328 24.5756 123.6 24.6834 123.928 24.6834C124.388 24.6834 124.763 24.4971 125.052 24.1245L125.594 24.6416C125.415 24.9094 125.167 25.1244 124.877 25.2643C124.578 25.4111 124.242 25.485 123.87 25.485ZM123.75 21.6519C123.475 21.6519 123.252 21.749 123.082 21.9421C122.913 22.1346 122.805 22.4033 122.758 22.7482H124.672V22.6737C124.65 22.3373 124.561 22.0832 124.403 21.9111C124.246 21.7389 124.028 21.6525 123.75 21.6525V21.6519ZM128.294 23.9636L129.203 20.9288H130.274L128.496 26.0806C128.223 26.8331 127.76 27.2096 127.107 27.2096C126.943 27.207 126.781 27.1819 126.624 27.1351V26.3577L126.814 26.3702C127.067 26.3702 127.258 26.3239 127.386 26.2319C127.514 26.1393 127.616 25.984 127.69 25.7667L127.835 25.3817L126.264 20.9288H127.347L128.294 23.9636Z" fill="black"/>
</g>
<defs>
<clipPath id="clip0_3353_4200">
<rect width="151.29" height="35" fill="white" transform="translate(0.855469)"/>
</clipPath>
</defs>
</svg>
