<svg width="93" height="69" viewBox="0 0 93 69" fill="none" xmlns="http://www.w3.org/2000/svg">
<g clip-path="url(#clip0_3269_3646)">
<path d="M46.538 24.9244C45.2322 24.0348 44.0815 22.9368 43.1318 21.6741C42.7447 21.8405 42.5591 22.1224 42.3315 22.3501C38.1541 26.5204 33.9797 30.6925 29.8082 34.8663C29.5843 35.1079 29.3406 35.3305 29.0797 35.5318C28.7826 35.7382 28.4216 35.8321 28.0615 35.7965C27.7014 35.7608 27.3658 35.5981 27.1148 35.3374C26.8763 35.0851 26.7322 34.7582 26.707 34.412C26.6818 34.0657 26.777 33.7214 26.9765 33.4373C27.1785 33.177 27.4023 32.9345 27.6454 32.7122C32.0493 28.3049 36.4566 23.8999 40.8674 19.4973C41.0926 19.3044 41.332 19.1287 41.5837 18.9719C40.837 17.0009 40.4951 14.8996 40.5784 12.7935C40.2124 13.1437 39.9848 13.3732 39.7589 13.5973C36.1583 17.1979 32.5565 20.7985 28.9536 24.399C28.7115 24.6646 28.4427 24.9046 28.1516 25.1153C27.8511 25.3239 27.4824 25.4101 27.1207 25.3564C26.7589 25.3027 26.4311 25.1132 26.2042 24.8263C25.9612 24.5765 25.8193 24.2456 25.8058 23.8974C25.7922 23.5492 25.9079 23.2083 26.1306 22.9403C26.3203 22.7087 26.5257 22.4905 26.7453 22.287C31.7854 17.2458 36.8255 12.2027 41.8656 7.15797C42.7745 6.24732 43.6046 5.25436 44.538 4.36997C48.4293 0.695846 52.9983 -0.426706 58.0507 1.23348C63.1031 2.89367 66.152 6.53977 66.9821 11.811C67.7246 16.4886 66.2308 20.4885 62.7528 23.7196C60.7739 25.5531 58.9001 27.4935 56.9929 29.3954C53.2791 33.087 49.5729 36.7903 45.8742 40.5053C45.65 40.7464 45.4082 40.9705 45.151 41.176C44.8619 41.3983 44.502 41.5083 44.138 41.4857C43.7741 41.463 43.4306 41.3091 43.1714 41.0527C42.9121 40.7962 42.7546 40.4545 42.728 40.0907C42.7014 39.727 42.8075 39.366 43.0267 39.0745C43.1931 38.8622 43.3764 38.6637 43.5748 38.4809L54.1226 27.9313C54.3485 27.7054 54.5692 27.4777 54.916 27.1222C52.8845 27.1695 51.0632 26.9296 49.3627 26.3359C48.9967 26.5111 48.8041 26.7895 48.5729 27.0207C43.9508 31.6346 39.3321 36.2521 34.717 40.8731C34.3668 41.2233 34.048 41.5491 33.5086 41.5631C33.2239 41.5875 32.9383 41.5289 32.6862 41.3943C32.4341 41.2597 32.2265 41.0549 32.0884 40.8048C31.9393 40.5438 31.8718 40.2442 31.8946 39.9446C31.9174 39.6449 32.0294 39.359 32.2162 39.1236C32.3722 38.9422 32.5389 38.7702 32.7153 38.6087C37.0573 34.2656 41.4004 29.9231 45.7446 25.5811C45.9565 25.378 46.2035 25.2029 46.538 24.9244ZM53.8389 24.1258C58.6671 24.3237 64.2379 20.3782 64.2186 13.7935C64.2063 7.81994 59.5077 3.52062 53.874 3.46107C48.2402 3.40153 43.5258 8.1124 43.5416 13.7935C43.5349 15.1493 43.7964 16.493 44.3111 17.7473C44.8258 19.0016 45.5834 20.1418 46.5405 21.1021C47.4976 22.0624 48.6352 22.824 49.8877 23.3429C51.1403 23.8619 52.4831 24.1279 53.8389 24.1258Z" fill="#0B0B0B"/>
<path d="M89.8375 63.0736C89.0792 63.6463 88.3087 64.0088 87.4033 63.9492C85.6923 63.8354 84.519 62.7829 84.2703 61.0422C84.0505 59.557 84.0505 58.0476 84.2703 56.5625C84.6643 53.9513 87.321 52.8235 89.5065 54.3016C89.6291 54.3839 89.743 54.4767 89.8726 54.5783C90.025 54.3941 90.1938 54.2241 90.3769 54.0704C91.2245 53.4908 92.3173 54.0091 92.3261 55.0354C92.3523 58.2717 92.3716 61.515 92.3261 64.7426C92.2998 66.3817 91.0862 67.8353 89.5241 68.3379C87.9619 68.8405 85.9935 68.2923 85.0093 67.112C84.7938 66.8617 84.6322 66.5695 84.5347 66.2539C84.3596 65.6392 84.5242 65.1348 85.0163 64.8529C85.2397 64.7256 85.4994 64.6773 85.7536 64.7157C86.0078 64.7542 86.2416 64.8771 86.4173 65.0648C86.5679 65.2101 86.68 65.3905 86.8184 65.5481C87.3437 66.1611 88.0355 66.2889 88.778 66.1138C89.4347 65.9597 89.8568 65.3625 89.9093 64.5517C89.9551 64.0581 89.9309 63.5605 89.8375 63.0736ZM89.9268 58.7918H89.8673C89.8907 58.3443 89.8878 57.8958 89.8585 57.4486C89.7535 56.5887 89.2018 56.0774 88.3945 56.0126C87.5486 55.9443 86.8411 56.3961 86.6818 57.2577C86.483 58.2888 86.4866 59.3487 86.6923 60.3784C86.7758 60.7457 86.986 61.0719 87.2861 61.2996C87.5861 61.5274 87.9568 61.6421 88.3331 61.6237C88.7093 61.6053 89.067 61.455 89.3434 61.199C89.6198 60.9431 89.7973 60.598 89.8445 60.2243C89.9163 59.7515 89.9023 59.2681 89.9268 58.7918Z" fill="#0B0B0B"/>
<path d="M42.078 63.4941C41.3408 64.1351 40.5247 64.5151 39.537 64.4293C37.7857 64.277 36.6124 63.1456 36.4443 61.2911C36.305 59.7999 36.305 58.299 36.4443 56.8079C36.7157 54.0164 39.3899 52.78 41.7173 54.3071C41.7734 54.3609 41.841 54.4013 41.9151 54.4253C41.9891 54.4493 42.0675 54.4561 42.1446 54.4454C42.1446 53.5873 42.1446 52.7117 42.1446 51.8378C42.1282 51.4787 42.1364 51.1188 42.1691 50.7608C42.2567 50.1338 42.719 49.7731 43.3565 49.7748C43.6435 49.7604 43.9251 49.8572 44.1426 50.0451C44.3602 50.233 44.497 50.4974 44.5245 50.7836C44.5418 50.9323 44.5477 51.0822 44.5421 51.2319C44.5421 55.0916 44.5421 58.952 44.5421 62.8129C44.5421 63.8882 43.9274 64.389 42.9572 64.1982C42.5369 64.1123 42.332 63.7866 42.078 63.4941ZM38.7927 59.0232C38.7927 59.4733 38.7682 59.9233 38.7927 60.3717C38.861 61.4119 39.4704 62.0564 40.3863 62.0966C41.3022 62.1369 41.9905 61.5503 42.0991 60.5065C42.2068 59.5227 42.2032 58.5299 42.0885 57.5469C41.9625 56.5399 41.318 55.9795 40.4319 55.9935C39.509 56.0075 38.8785 56.638 38.7962 57.6747C38.7629 58.1213 38.7927 58.5731 38.7927 59.0232Z" fill="#0B0B0B"/>
<path d="M0.636719 57.1606C0.689256 56.003 0.542151 54.8279 0.83461 53.6738C1.71024 50.2274 5.49819 48.6723 8.49109 50.5426C9.0318 50.8688 9.47792 51.3306 9.78526 51.8823C9.97131 52.2259 10.046 52.6188 9.99891 53.0066C9.97989 53.2479 9.88646 53.4774 9.73151 53.6634C9.57656 53.8494 9.36773 53.9828 9.13379 54.0451C8.92162 54.1277 8.68815 54.1382 8.46944 54.0749C8.25072 54.0116 8.05893 53.878 7.92368 53.6948C7.73454 53.4637 7.54366 53.2343 7.36153 52.9943C6.41935 51.7685 4.55952 52.0084 3.73819 53.3814C3.51744 53.7399 3.38203 54.1443 3.3424 54.5635C3.17923 56.2924 3.18334 58.033 3.35466 59.7612C3.52979 61.3951 4.8082 62.3355 6.2775 62.0378C7.0428 61.8784 7.51739 61.3671 7.8869 60.7209C8.14784 60.2655 8.46657 59.8803 9.069 59.9048C9.95863 59.9416 10.5068 60.6999 10.2774 61.6088C10.1216 62.1916 9.79385 62.7139 9.33694 63.1078C7.83962 64.4405 6.10063 64.9029 4.1725 64.3197C2.31442 63.7593 1.30395 62.3811 0.822351 60.5563C0.528141 59.4355 0.692759 58.2919 0.636719 57.1606Z" fill="#0B0B0B"/>
<path d="M52.8614 64.1868C52.4113 64.0292 52.28 63.6614 52.0085 63.4267C50.879 64.7559 49.5743 64.6193 48.4517 64.0799C47.2014 63.481 46.4851 61.8909 46.732 60.4251C46.9789 58.9593 48.0157 57.9471 49.5498 57.7054C50.3501 57.5793 51.1557 57.6511 52.0261 57.6091C52.1049 56.9891 51.9035 56.5268 51.4044 56.2291C51.1509 56.0666 50.8555 55.9815 50.5544 55.9843C50.2533 55.9871 49.9596 56.0776 49.7091 56.2448C49.4307 56.42 49.1838 56.6494 48.9193 56.835C48.4027 57.1853 47.8581 57.1572 47.4465 56.765C47.2609 56.5865 47.1436 56.3486 47.1152 56.0927C47.0867 55.8367 47.1488 55.5789 47.2907 55.364C47.7127 54.6249 48.3992 54.2081 49.1715 53.9192C51.5707 53.0225 54.0663 54.434 54.4253 56.9576C54.709 58.9488 54.5724 60.9645 54.5093 62.9661C54.4796 63.9854 54.0295 64.2463 52.8614 64.1868ZM52.012 59.8349C51.3671 59.7317 50.7086 59.7489 50.0699 59.8857C49.8233 59.9533 49.6067 60.1021 49.4551 60.308C49.3036 60.5139 49.2258 60.765 49.2346 61.0205C49.2558 61.2748 49.3606 61.5149 49.5326 61.7034C49.7046 61.8919 49.9342 62.0181 50.1855 62.0625C50.5096 62.1309 50.8473 62.0883 51.1443 61.9416C51.4413 61.7948 51.6803 61.5524 51.8229 61.2534C52.0572 60.8196 52.1244 60.315 52.012 59.8349Z" fill="#0B0B0B"/>
<path d="M67.0549 58.9992C67.0549 58.402 66.9796 57.7943 67.0689 57.2111C67.3946 55.0834 68.9777 53.6946 71.0302 53.6684C73.1685 53.6421 74.7691 54.9538 75.1246 57.1393C75.3406 58.4384 75.3359 59.7646 75.1106 61.0621C74.7306 63.1794 72.9636 64.5804 70.9269 64.4333C68.7081 64.2844 67.1109 62.654 67.0093 60.4334C66.9883 59.9554 67.0093 59.4773 67.0093 58.9992H67.0549ZM69.4856 59.057C69.4856 59.535 69.4593 60.0166 69.4856 60.493C69.5522 61.4702 70.1721 62.0884 71.0722 62.1129C71.2828 62.1237 71.4935 62.0922 71.6917 62.0201C71.8898 61.9481 72.0716 61.837 72.226 61.6935C72.3805 61.5499 72.5046 61.3769 72.591 61.1845C72.6774 60.9921 72.7243 60.7844 72.7289 60.5735C72.7902 59.557 72.7902 58.5377 72.7289 57.5211C72.6729 56.5579 71.9829 55.9818 71.0635 56.001C70.1879 56.0203 69.5697 56.607 69.4961 57.5299C69.4611 58.036 69.4856 58.5473 69.4856 59.057Z" fill="#0B0B0B"/>
<path d="M19.3428 59.0545C19.3428 59.8303 19.4374 60.6078 19.2237 61.3766C18.6598 63.3976 16.9856 64.5937 14.9402 64.4116C12.8947 64.2294 11.4272 62.7899 11.224 60.7059C11.1076 59.5741 11.1076 58.4333 11.224 57.3015C11.3116 56.2917 11.7814 55.3534 12.5375 54.6783C13.2936 54.0033 14.2789 53.6424 15.2922 53.6694C16.3048 53.6573 17.2841 54.0305 18.0319 54.7133C18.7797 55.3961 19.2402 56.3375 19.3201 57.347C19.3866 57.9127 19.3428 58.4853 19.3428 59.0545ZM13.625 58.9862C13.625 59.4643 13.625 59.9406 13.625 60.417C13.6308 60.5354 13.6496 60.6529 13.681 60.7672C13.8789 61.5973 14.4568 62.0912 15.2432 62.1069C16.0785 62.1227 16.7054 61.6358 16.8701 60.7549C17.0603 59.6674 17.0668 58.5557 16.8893 57.4661C16.7405 56.4871 16.1608 55.9985 15.2817 56.0003C14.4026 56.002 13.7633 56.5642 13.6425 57.5572C13.6077 58.0327 13.6018 58.5099 13.625 58.9862Z" fill="#0B0B0B"/>
<path d="M28.8697 54.6038C29.3618 54.2203 29.7891 53.8945 30.3215 53.7544C31.8644 53.3447 33.2654 54.0241 33.9413 55.4899C34.2523 56.1729 34.4129 56.9146 34.4124 57.665C34.4317 59.3707 34.4264 61.0782 34.4124 62.7856C34.4124 63.6613 34.0499 64.1394 33.3774 64.2112C32.4878 64.3075 31.9764 63.8171 31.9607 62.7944C31.9397 61.2673 31.9607 59.7385 31.9607 58.2114C31.9689 57.9424 31.9578 57.6732 31.9274 57.4058C31.7996 56.5634 31.2059 56.0223 30.4283 56.0136C29.684 56.0031 29.0939 56.4829 28.9188 57.2885C28.8631 57.6128 28.8408 57.942 28.8522 58.2709C28.8522 59.798 28.861 61.3269 28.8522 62.8539C28.8434 63.7506 28.4196 64.2077 27.6614 64.2182C26.9031 64.2287 26.4565 63.8066 26.4092 62.9923C26.3672 62.276 26.397 61.5545 26.397 60.8365C26.397 58.9802 26.3777 57.1221 26.397 55.2658C26.4127 54.1642 27.1447 53.6161 28.1009 53.9085C28.4372 54.0171 28.6298 54.2746 28.8697 54.6038Z" fill="#0B0B0B"/>
<path d="M59.442 54.6018C60.2827 53.8646 61.1408 53.5161 62.1617 53.7157C62.8973 53.8593 63.3368 54.3129 63.4419 55.0239C63.5803 55.9608 62.8465 56.5877 61.9446 56.2918C61.6924 56.2095 61.4665 56.0536 61.1916 56.0221C60.2056 55.9065 59.4578 56.5702 59.4228 57.6963C59.379 59.071 59.4053 60.4475 59.4018 61.824C59.4018 62.2128 59.4228 62.6033 59.4018 62.9903C59.3422 63.8012 58.8992 64.2285 58.1619 64.2162C57.4246 64.2039 56.9763 63.7731 56.9588 62.95C56.9273 61.5753 56.9483 60.1988 56.9483 58.8223C56.9483 57.7156 56.957 56.6088 56.9483 55.495C56.9483 54.8365 57.0008 54.2008 57.7153 53.9328C58.4298 53.6649 58.9832 53.9346 59.442 54.6018Z" fill="#0B0B0B"/>
<path d="M79.7369 54.5992C80.5442 53.8987 81.3953 53.5239 82.4163 53.699C83.2464 53.8409 83.7787 54.4503 83.7682 55.2349C83.7577 56.1245 83.0099 56.6131 82.1326 56.2419C81.6983 56.0562 81.2867 55.9546 80.8366 56.0772C80.1361 56.2664 79.7333 56.8758 79.7246 57.8285C79.7088 59.3556 79.7246 60.8827 79.7246 62.4098C79.7452 62.7085 79.7228 63.0087 79.658 63.3012C79.4672 63.9614 79.0924 64.2486 78.4199 64.2258C77.7877 64.203 77.3867 63.8423 77.2781 63.1751C77.2617 63.0262 77.2576 62.8763 77.2658 62.7267C77.2658 60.275 77.2658 57.8203 77.2658 55.3627C77.2658 54.5221 77.5093 54.1106 78.0732 53.9214C78.6633 53.7236 79.1449 53.9092 79.7369 54.5992Z" fill="#0B0B0B"/>
<path d="M23.8358 59.0849C23.8358 60.3406 23.8358 61.598 23.8358 62.8536C23.8358 63.78 23.4541 64.2091 22.673 64.2248C21.8919 64.2406 21.4594 63.822 21.4261 62.9131C21.3788 61.6592 21.4069 60.4018 21.4051 59.1444C21.4051 58.0377 21.4051 56.9309 21.4051 55.8171C21.4036 55.5188 21.4241 55.2209 21.4664 54.9257C21.582 54.1779 22.0531 53.7891 22.7413 53.8452C23.3823 53.8977 23.8166 54.3373 23.8288 55.0395C23.8516 56.3915 23.8358 57.7382 23.8358 59.0849Z" fill="#0B0B0B"/>
<path d="M62.6328 62.8139C62.6433 61.8787 63.2265 61.3061 64.1582 61.3131C64.3608 61.3074 64.5625 61.3434 64.7507 61.4188C64.9389 61.4941 65.1097 61.6072 65.2524 61.7512C65.3952 61.8951 65.507 62.0668 65.5808 62.2556C65.6547 62.4444 65.689 62.6463 65.6817 62.8489C65.6677 63.7333 65.0233 64.3515 64.1214 64.3427C63.1985 64.3322 62.6328 63.7473 62.6328 62.8139Z" fill="#0B0B0B"/>
<path d="M23.9762 51.2885C23.9818 51.4688 23.9514 51.6485 23.8869 51.817C23.8223 51.9855 23.7248 52.1394 23.6001 52.2699C23.4754 52.4003 23.3259 52.5045 23.1605 52.5766C22.9951 52.6486 22.8169 52.687 22.6365 52.6895C22.4571 52.6869 22.28 52.6482 22.1158 52.5758C21.9516 52.5035 21.8036 52.3988 21.6806 52.2681C21.5576 52.1375 21.4621 51.9834 21.3998 51.8151C21.3375 51.6468 21.3096 51.4677 21.3178 51.2885C21.3178 50.5197 21.9448 49.8507 22.6435 49.8595C23.3423 49.8682 23.9832 50.546 23.9762 51.2885Z" fill="#0B0B0B"/>
<path d="M60.6156 14.6205C60.5771 16.3998 59.8819 17.7833 58.719 18.9443C58.0816 19.5783 57.227 19.5818 56.6368 19.0074C56.0466 18.433 56.0344 17.6554 56.5913 16.9917C56.9573 16.5556 57.3425 16.1336 57.5352 15.5907C57.8854 14.6188 57.6805 13.7116 57.1306 12.8693C56.9555 12.5943 56.7401 12.3439 56.5492 12.0742C56.0396 11.3737 56.0869 10.5874 56.6701 10.0567C56.8138 9.92431 56.9829 9.82252 57.1672 9.75758C57.3516 9.69264 57.5472 9.66592 57.7422 9.67902C57.9371 9.69213 58.1274 9.7448 58.3014 9.83383C58.4753 9.92285 58.6294 10.0464 58.754 10.1968C59.9134 11.4735 60.5999 12.9656 60.6156 14.6205Z" fill="#0B0B0B"/>
</g>
<defs>
<clipPath id="clip0_3269_3646">
<rect width="91.7113" height="68.0361" fill="white" transform="translate(0.644531 0.480469)"/>
</clipPath>
</defs>
</svg>
