<svg width="155" height="23" viewBox="0 0 155 23" fill="none" xmlns="http://www.w3.org/2000/svg">
<g clip-path="url(#clip0_3269_3611)">
<path d="M11.9682 16.6001C10.9729 18.7153 8.4844 19.6277 6.36921 18.6323C4.25402 17.6369 3.34159 15.107 4.33697 12.9918C5.33236 10.8766 7.82081 9.96418 9.936 10.9596C10.8484 11.4158 11.595 12.1623 12.0097 13.0748H15.2862C14.3323 9.13469 10.3507 6.68771 6.41069 7.68309C2.47063 8.67847 0.0236433 12.6185 1.01903 16.5586C2.01441 20.4987 5.95447 22.9456 9.89453 21.9503C12.5489 21.2867 14.6641 19.2129 15.2862 16.5586H11.9682V16.6001Z" fill="#0B0B0B"/>
<path d="M26.9028 8.09926C25.9904 7.68452 24.995 7.43567 23.9582 7.47715C22.9213 7.47715 21.8845 7.80894 21.0135 8.38958V7.97484H18.0273V21.6199H21.055V15.0669C21.0135 14.196 21.055 13.2835 21.2623 12.4126V12.3296C21.4282 11.749 21.843 11.2513 22.3821 10.961C23.3775 10.3389 24.6632 10.3389 25.6586 10.961L26.9028 8.09926Z" fill="#0B0B0B"/>
<path d="M38.3477 7.97266V14.5256C38.3892 15.3966 38.3477 16.309 38.1403 17.18V17.2629C37.9744 17.8435 37.5597 18.3412 37.0205 18.6316C36.0251 19.2122 34.7809 19.2122 33.7441 18.5901C33.2049 18.2998 32.7901 17.8021 32.6242 17.2214V17.1385C32.4583 16.2675 32.3754 15.3551 32.4169 14.4841V7.97266H29.3892V15.3966C29.3063 16.5993 29.5137 17.8435 29.8869 18.9634C30.3432 20.0832 31.2141 20.9541 32.3339 21.4103C33.2464 21.8251 34.2417 22.0739 35.2786 22.0324C36.3155 22.0324 37.3523 21.7007 38.2233 21.12V21.5762H41.2094V7.97266H38.3477Z" fill="#0B0B0B"/>
<path d="M48.0526 21.6214V15.0684C48.0111 14.156 48.094 13.285 48.2599 12.4141V12.3311C48.4258 11.7505 48.8406 11.2528 49.3797 10.9625C50.3751 10.3404 51.6608 10.3404 52.6562 10.9625C53.1954 11.2528 53.6101 11.7505 53.776 12.3311V12.4141C53.9419 13.285 53.9834 14.1975 53.9419 15.0684V21.6214H56.9281V14.156C57.011 12.9532 56.8451 11.709 56.4304 10.5892C55.9741 9.46941 55.1032 8.59845 53.9834 8.14223C53.0709 7.72749 52.0756 7.47864 51.0387 7.52012C50.0018 7.52012 48.965 7.85191 48.094 8.43255V8.01781H45.0664V21.6214H48.0526Z" fill="#0B0B0B"/>
<path d="M70.8237 16.6016C69.8283 18.7168 67.3399 19.6292 65.2247 18.6338C63.1095 17.6384 62.1971 15.15 63.1924 13.0348C64.1878 10.9196 66.6763 10.0071 68.7915 11.0025C69.7039 11.4587 70.4504 12.2053 70.8652 13.1177H74.1417C73.1877 9.17766 69.2062 6.73067 65.2662 7.72606C61.3261 8.72144 58.8791 12.6615 59.8745 16.6016C60.8699 20.5416 64.8099 22.9886 68.75 21.9932C71.4044 21.3296 73.5195 19.2559 74.1417 16.6016H70.8237Z" fill="#0B0B0B"/>
<path d="M79.9056 21.6197V15.0668C79.8641 14.1958 79.9056 13.2834 80.113 12.4124V12.3295C80.2789 11.7488 80.6936 11.2512 81.2328 10.9608C82.2282 10.3387 83.5139 10.3387 84.5093 10.9608C85.0484 11.2512 85.4632 11.7488 85.6291 12.3295V12.4124C85.795 13.2834 85.8779 14.1958 85.8364 15.0668V21.6197H88.8226V14.1544C88.9055 12.9516 88.6982 11.7074 88.3249 10.5876C87.8687 9.46776 86.9977 8.5968 85.8779 8.14058C84.9655 7.72584 83.9701 7.47699 82.9332 7.51847C81.8964 7.51847 80.8595 7.85026 79.9886 8.4309V0.550781H76.9609V21.6197H79.9056Z" fill="#0B0B0B"/>
<path d="M99.6062 7.47699H99.0671C97.7814 7.55994 96.5371 8.01616 95.4588 8.7627V0.550781H92.4727V21.6197H95.4588V20.8317C98.7768 23.1543 103.38 22.3663 105.703 19.0483C108.026 15.7304 107.238 11.1267 103.92 8.80417C102.675 7.93321 101.141 7.43552 99.6062 7.47699ZM103.795 15.3571V15.4815L103.671 15.9792C103.629 16.1451 103.546 16.3525 103.463 16.5184V16.6013C102.883 17.8041 101.804 18.6336 100.519 18.9239L100.104 19.0069H99.5648C99.3574 19.0069 99.1915 19.0069 98.9841 18.9654H98.8597C98.4864 18.9239 98.1132 18.7995 97.7814 18.6336H97.6984C97.3666 18.4677 97.0348 18.2603 96.7445 18.0115C96.4542 17.7626 96.2053 17.4308 95.998 17.1405C95.915 16.9746 95.7906 16.8087 95.7076 16.6013C95.21 15.4815 95.2514 14.2373 95.7491 13.1175C96.3712 11.7903 97.6569 10.8779 99.15 10.712H99.5648C101.846 10.7535 103.671 12.5369 103.712 14.8179C103.837 14.9838 103.837 15.1497 103.795 15.3571Z" fill="#0B0B0B"/>
<path d="M109.352 14.7775C109.393 18.842 112.711 22.1185 116.775 22.077C118.227 22.077 119.596 21.6208 120.798 20.8328V21.6208H123.785V7.97575H120.798V8.80524C119.72 8.0587 118.476 7.64395 117.19 7.51953H116.651C112.67 7.51953 109.393 10.7545 109.352 14.7775ZM112.462 14.7775C112.462 12.455 114.37 10.5472 116.693 10.5472H117.107C118.559 10.7131 119.845 11.6255 120.508 12.9527C121.006 14.031 121.047 15.3167 120.55 16.4365C120.467 16.6024 120.384 16.8098 120.259 16.9757C120.052 17.3075 119.803 17.5978 119.513 17.8466C119.222 18.0955 118.891 18.3029 118.559 18.4688H118.476C118.144 18.6346 117.771 18.7176 117.398 18.8005H117.315C117.107 18.842 116.941 18.842 116.734 18.842H116.236L115.822 18.7591C114.577 18.4688 113.499 17.6393 112.918 16.478V16.395C112.835 16.2291 112.752 16.0632 112.711 15.8559L112.587 15.3582V15.2338C112.545 15.1093 112.504 14.9434 112.462 14.7775Z" fill="#0B0B0B"/>
<path d="M137.595 12.0378V11.9549C137.595 9.71524 135.894 7.47563 132.079 7.43415C128.263 7.39268 126.604 9.67376 126.562 11.8719V12.0378C126.645 13.3235 127.392 14.941 130.212 15.6046L132.742 16.1852C133.406 16.3511 134.526 16.6829 134.609 17.5539C134.609 18.7152 133.115 19.2958 132.079 19.2958C130.834 19.2958 129.549 18.6322 129.549 17.5124V17.4295H126.562V17.4709C126.562 19.7105 128.263 21.9502 132.079 21.9916C135.894 22.0331 137.595 19.7105 137.595 17.4709V17.4295C137.512 16.1438 136.807 14.4848 133.945 13.8212L131.415 13.2406C130.876 13.1161 129.549 12.7429 129.549 11.9134C129.549 10.6277 130.876 10.1715 132.079 10.1715C133.323 10.1715 134.609 10.835 134.609 11.9549V12.0378H137.595Z" fill="#0B0B0B"/>
<path d="M154.271 14.4841C154.271 10.0463 151.244 7.43344 147.262 7.43344C143.405 7.30902 140.17 10.2952 140.046 14.1523V14.6914C139.88 18.59 142.907 21.8665 146.806 22.0324H147.262C148.714 22.0324 150.165 21.7006 151.451 20.9541C152.778 20.2075 153.774 18.9218 154.147 17.4287H151.202C150.497 18.7145 149.211 19.3366 147.387 19.3366C144.94 19.3366 143.115 17.4287 143.115 15.6039H154.23C154.271 15.1477 154.271 14.8573 154.271 14.4841ZM143.073 13.1154C143.488 11.2491 145.188 9.96337 147.096 10.0878C149.211 10.0878 150.912 11.332 151.202 13.1154H143.073Z" fill="#0B0B0B"/>
</g>
<defs>
<clipPath id="clip0_3269_3611">
<rect width="153.455" height="21.8984" fill="white" transform="translate(0.773438 0.550781)"/>
</clipPath>
</defs>
</svg>
