<svg width="157" height="37" viewBox="0 0 157 37" fill="none" xmlns="http://www.w3.org/2000/svg">
<g clip-path="url(#clip0_3269_2943)">
<path d="M31.7529 30.9092C30.9269 31.7983 30.0128 32.6014 29.0249 33.3061C25.9397 35.5189 22.238 36.7084 18.4412 36.7068C15.1999 36.7065 12.0174 35.8409 9.22249 34.1992C6.42762 32.5576 4.12178 30.1995 2.54315 27.3685C0.964535 24.5376 0.17041 21.3365 0.242826 18.0959C0.315242 14.8554 1.25157 11.693 2.95508 8.93538C3.03852 8.79886 3.12195 8.68255 3.20791 8.53591L3.46074 8.14401C3.77426 7.68891 4.11138 7.25067 4.47208 6.82927L4.687 6.57643C4.71966 6.53368 4.75514 6.49313 4.79318 6.45508C4.87156 6.36152 4.95247 6.27304 5.04602 6.18454L5.13957 6.08594L7.76906 9.78491L7.79939 9.83043C7.73871 9.90374 7.67802 9.98212 7.6224 10.058C7.56052 10.1303 7.5031 10.2062 7.45048 10.2855C5.48607 12.9065 4.52443 16.144 4.73949 19.4123C4.95454 22.6807 6.33208 25.7641 8.62298 28.1052C10.9139 30.4462 13.9668 31.89 17.2299 32.1758C20.4928 32.4614 23.7503 31.5701 26.413 29.6628L24.8961 27.5365L22.2995 23.8931C23.3395 23.1466 24.1433 22.1173 24.6155 20.9274C25.0113 19.9212 25.1553 18.8336 25.0349 17.7589C24.9146 16.6844 24.5336 15.6556 23.925 14.7619C23.3164 13.8682 22.4987 13.1367 21.5429 12.6311C20.5872 12.1255 19.5224 11.861 18.4412 11.8607H18.1529C16.8736 11.9153 15.6381 12.3424 14.5982 13.0895L11.9863 9.4537C12.9856 8.73995 14.0963 8.19658 15.2732 7.84567H15.2858C16.3095 7.53812 17.3723 7.38057 18.4412 7.37792C18.7724 7.37792 19.0986 7.39309 19.4222 7.4209C21.3727 7.59115 23.2435 8.2742 24.8449 9.4008C26.4462 10.5274 27.7211 12.0574 28.5403 13.8358C29.3595 15.6141 29.6939 17.5774 29.5095 19.5267C29.3251 21.4758 28.6284 23.3416 27.4902 24.9347L29.078 27.1571L31.7529 30.9092Z" fill="#0059FF"/>
<path fill-rule="evenodd" clip-rule="evenodd" d="M22.286 23.879C21.5803 24.4043 20.7769 24.7836 19.9229 24.9947C19.0687 25.2058 18.1811 25.2444 17.3119 25.1082C16.4427 24.9722 15.6095 24.6641 14.8608 24.2022C14.1121 23.7401 13.463 23.1335 12.9516 22.4176C12.4401 21.7018 12.0766 20.8911 11.8822 20.033C11.6879 19.175 11.6666 18.2868 11.8196 17.4204C11.9726 16.554 12.2969 15.7269 12.7734 14.9873C13.2499 14.2478 13.8692 13.6107 14.5949 13.1133L22.286 23.879Z" fill="#0B0B0B"/>
<path d="M53.4142 20.2258L55.8591 22.0259C54.2687 24.1498 52.3977 25.0752 50.3295 25.0752C49.4513 25.0924 48.5784 24.9342 47.7619 24.6099C46.9455 24.2857 46.2019 23.8019 45.5747 23.1869C44.9475 22.5718 44.4492 21.8378 44.1091 21.0279C43.769 20.218 43.5938 19.3483 43.5938 18.4698C43.5938 17.5914 43.769 16.7217 44.1091 15.9118C44.4492 15.1019 44.9475 14.3679 45.5747 13.7528C46.2019 13.1377 46.9455 12.6539 47.7619 12.3297C48.5784 12.0055 49.4513 11.8474 50.3295 11.8645C52.4332 11.8645 54.3396 12.8455 55.9274 14.9669L53.4495 16.7847C52.4509 15.4473 51.4269 14.9137 50.3295 14.9137C49.3888 14.9137 48.4866 15.2874 47.8212 15.9527C47.156 16.618 46.7823 17.5202 46.7823 18.461C46.7823 19.4019 47.156 20.304 47.8212 20.9693C48.4866 21.6346 49.3888 22.0083 50.3295 22.0083C51.4345 22.0083 52.4154 21.5354 53.4142 20.2258Z" fill="#0B0B0B"/>
<path d="M60.2775 17.1943C61.0914 16.7886 61.99 16.5815 62.8993 16.5901L62.204 19.4066C61.1523 19.4066 60.2775 19.9402 60.2775 20.6V24.8981H57.4609V16.7316H60.2775V17.1943Z" fill="#0B0B0B"/>
<path d="M65.199 28.6593L67.0371 24.131L64.0234 16.7305H66.8577L68.4454 20.5812L69.9954 16.7305H72.8321L67.9954 28.6593H65.199Z" fill="#0B0B0B"/>
<path d="M82.6361 20.8167C82.6358 21.9462 82.1886 23.0297 81.3921 23.8306C80.9973 24.2201 80.5293 24.5277 80.0152 24.7355C79.5009 24.9434 78.9506 25.0474 78.396 25.0416C77.8794 25.0266 77.3805 24.8498 76.97 24.5359V28.6723H74.1484V16.7334H76.9649V17.1076C77.3725 16.7883 77.8732 16.6107 78.391 16.602C78.9458 16.5941 79.4965 16.6962 80.0117 16.9023C80.5268 17.1085 80.9959 17.4145 81.3921 17.8029C82.1886 18.6038 82.6358 19.6873 82.6361 20.8167ZM79.8194 20.8167C79.8165 20.5349 79.7301 20.2601 79.5714 20.0273C79.4126 19.7943 79.1885 19.6136 78.9272 19.5078C78.6659 19.402 78.3792 19.3759 78.103 19.4327C77.827 19.4895 77.5739 19.6267 77.3756 19.8272C77.1773 20.0275 77.0427 20.2821 76.9889 20.5588C76.935 20.8354 76.9641 21.1219 77.0727 21.382C77.1813 21.6421 77.3643 21.8644 77.599 22.0207C77.8335 22.177 78.1091 22.2604 78.391 22.2604C78.5795 22.2594 78.7661 22.2213 78.9399 22.1482C79.1138 22.0751 79.2716 21.9685 79.4042 21.8345C79.5368 21.7004 79.6418 21.5415 79.713 21.3669C79.7844 21.1923 79.8205 21.0053 79.8194 20.8167Z" fill="#0B0B0B"/>
<path d="M84.4928 21.9204V19.3542H83.5117V16.7322H84.4928V14.1836H87.3093V16.7322H89.3446V19.3542H87.3093V21.8825C87.3021 21.9421 87.3189 22.0021 87.3558 22.0496C87.3928 22.0969 87.4469 22.1277 87.5065 22.1353H89.2182L89.9489 24.8987H87.4635C87.0724 24.9002 86.6849 24.824 86.3233 24.6746C85.9618 24.5254 85.6334 24.3059 85.3571 24.0289C85.0809 23.752 84.8623 23.4231 84.714 23.0612C84.5656 22.6993 84.4904 22.3116 84.4928 21.9204Z" fill="#0B0B0B"/>
<path d="M99.312 20.8159C99.3104 21.9461 98.8613 23.0297 98.063 23.8298C97.2724 24.6181 96.2011 25.0601 95.0846 25.0586C94.5199 25.0723 93.9582 24.9731 93.4324 24.7665C92.9067 24.5599 92.4276 24.2503 92.0234 23.8557C91.619 23.4612 91.2978 22.9899 91.0785 22.4694C90.8592 21.9488 90.7461 21.3897 90.7461 20.8248C90.7461 20.2599 90.8592 19.7008 91.0785 19.1803C91.2978 18.6598 91.619 18.1884 92.0234 17.7939C92.4276 17.3994 92.9067 17.0897 93.4324 16.8832C93.9582 16.6767 94.5199 16.5773 95.0846 16.5911C95.6364 16.587 96.1834 16.6919 96.6945 16.8998C97.2056 17.1076 97.6707 17.4143 98.063 17.8022C98.8613 18.6023 99.3104 19.6857 99.312 20.8159ZM96.4929 20.8159C96.4774 20.4505 96.3214 20.1051 96.0573 19.852C95.7933 19.5987 95.4416 19.4575 95.0758 19.4575C94.7099 19.4575 94.3583 19.5987 94.0942 19.852C93.83 20.1051 93.674 20.4505 93.6586 20.8159C93.6506 21.0072 93.6812 21.1979 93.7487 21.3769C93.8163 21.5559 93.9195 21.7193 94.0519 21.8574C94.1843 21.9955 94.3432 22.1055 94.5192 22.1805C94.6951 22.2556 94.8844 22.2943 95.0758 22.2943C95.267 22.2943 95.4564 22.2556 95.6324 22.1805C95.8083 22.1055 95.9673 21.9955 96.0997 21.8574C96.2321 21.7193 96.3352 21.5559 96.4027 21.3769C96.4703 21.1979 96.5009 21.0072 96.4929 20.8159Z" fill="#0B0B0B"/>
<path d="M109.242 20.8165C109.241 21.947 108.792 23.0309 107.993 23.8303C107.598 24.2196 107.131 24.5271 106.617 24.735C106.103 24.9427 105.553 25.0469 104.999 25.0414C104.482 25.027 103.982 24.8501 103.57 24.5357V28.6721H100.754V16.7333H103.57V17.1074C103.979 16.788 104.481 16.6105 104.999 16.6018C105.553 16.5963 106.103 16.7004 106.617 16.9083C107.131 17.1161 107.598 17.4235 107.993 17.8129C108.789 18.6098 109.238 19.6896 109.242 20.8165ZM106.425 20.8165C106.422 20.5345 106.336 20.2598 106.177 20.0268C106.018 19.7938 105.794 19.6132 105.532 19.5073C105.271 19.4017 104.984 19.3757 104.708 19.4327C104.431 19.4897 104.178 19.6272 103.98 19.8278C103.782 20.0285 103.648 20.2832 103.594 20.5601C103.54 20.8369 103.57 21.1235 103.679 21.3836C103.788 21.6437 103.971 21.8657 104.206 22.0217C104.441 22.1778 104.717 22.2608 104.999 22.2603C105.187 22.2592 105.374 22.2211 105.548 22.1479C105.721 22.0749 105.879 21.9682 106.011 21.8341C106.144 21.7 106.248 21.5411 106.319 21.3665C106.39 21.1918 106.426 21.005 106.425 20.8165Z" fill="#0B0B0B"/>
<path d="M118.868 20.8159C118.867 21.9459 118.419 23.0295 117.622 23.8298C116.831 24.6174 115.759 25.0593 114.643 25.0586C114.078 25.0723 113.517 24.9731 112.991 24.7665C112.465 24.5599 111.986 24.2503 111.582 23.8557C111.178 23.4612 110.856 22.9899 110.637 22.4694C110.418 21.9488 110.305 21.3897 110.305 20.8248C110.305 20.2599 110.418 19.7008 110.637 19.1803C110.856 18.6598 111.178 18.1884 111.582 17.7939C111.986 17.3994 112.465 17.0897 112.991 16.8832C113.517 16.6767 114.078 16.5773 114.643 16.5911C115.195 16.5875 115.742 16.6926 116.253 16.9003C116.764 17.1082 117.229 17.4146 117.622 17.8022C118.419 18.6025 118.867 19.6861 118.868 20.8159ZM116.052 20.8159C116.036 20.4505 115.88 20.1051 115.616 19.852C115.352 19.5987 115 19.4575 114.634 19.4575C114.269 19.4575 113.917 19.5987 113.653 19.852C113.389 20.1051 113.233 20.4505 113.217 20.8159C113.209 21.0072 113.24 21.1979 113.307 21.3769C113.375 21.5559 113.478 21.7193 113.61 21.8574C113.743 21.9955 113.902 22.1055 114.078 22.1805C114.254 22.2556 114.443 22.2943 114.634 22.2943C114.826 22.2943 115.015 22.2556 115.191 22.1805C115.367 22.1055 115.526 21.9955 115.658 21.8574C115.791 21.7193 115.894 21.5559 115.961 21.3769C116.029 21.1979 116.06 21.0072 116.052 20.8159Z" fill="#0B0B0B"/>
<path d="M120.477 24.8971V11.8281H123.314V24.8971H120.477Z" fill="#0B0B0B"/>
<path d="M125.805 14.0235C125.805 13.8127 125.846 13.6038 125.926 13.4089C126.006 13.214 126.124 13.0368 126.273 12.8876C126.422 12.7385 126.599 12.6201 126.794 12.5396C126.989 12.459 127.198 12.4176 127.408 12.418C127.834 12.418 128.242 12.5871 128.543 12.8882C128.844 13.1894 129.014 13.5977 129.014 14.0235C129.014 14.4493 128.844 14.8576 128.543 15.1588C128.242 15.4598 127.834 15.629 127.408 15.629C127.198 15.6296 126.988 15.5886 126.794 15.5081C126.598 15.4276 126.421 15.3094 126.272 15.1601C126.124 15.0109 126.005 14.8336 125.925 14.6385C125.845 14.4435 125.805 14.2344 125.805 14.0235ZM126.002 16.7338H128.819V24.9004H126.002V16.7338Z" fill="#0B0B0B"/>
<path d="M131.779 21.9204V19.3542H130.801V16.7322H131.779V14.1836H134.598V16.7322H136.62V19.3542H134.598V21.8825C134.59 21.9417 134.607 22.0014 134.644 22.0487C134.68 22.0961 134.734 22.1271 134.793 22.1353H136.512L137.243 24.8987H134.765C134.372 24.9021 133.984 24.8275 133.62 24.6791C133.257 24.5307 132.927 24.3116 132.649 24.0344C132.371 23.7573 132.151 23.4277 132.001 23.0647C131.852 22.7018 131.776 22.3128 131.779 21.9204Z" fill="#0B0B0B"/>
<path d="M143.764 17.108V16.7338H146.599V24.9003H143.764V24.5261C143.371 24.8614 142.87 25.0412 142.353 25.0317C141.798 25.0317 141.249 24.9225 140.737 24.7102C140.225 24.4978 139.759 24.1867 139.365 23.7944C138.973 23.4021 138.663 22.9363 138.45 22.4237C138.238 21.9111 138.129 21.3617 138.129 20.8069C138.129 20.2521 138.238 19.7027 138.45 19.1901C138.663 18.6776 138.973 18.2119 139.365 17.8196C139.759 17.4271 140.225 17.116 140.737 16.9037C141.249 16.6913 141.798 16.5821 142.353 16.5821C142.872 16.5782 143.375 16.7654 143.764 17.108ZM143.764 20.817C143.759 20.5373 143.672 20.2654 143.513 20.0353C143.353 19.8052 143.129 19.6273 142.87 19.5241C142.609 19.4208 142.325 19.3968 142.051 19.4549C141.778 19.5131 141.527 19.6509 141.331 19.851C141.136 20.0511 141.004 20.3046 140.953 20.5795C140.9 20.8544 140.931 21.1386 141.04 21.396C141.149 21.6537 141.332 21.8732 141.567 22.027C141.8 22.1809 142.074 22.2622 142.353 22.2607C142.731 22.2554 143.092 22.1006 143.356 21.83C143.621 21.5595 143.768 21.1953 143.764 20.817Z" fill="#0B0B0B"/>
<path d="M155.298 17.7673C156.035 18.5123 156.446 19.5188 156.441 20.5662V24.8998H153.625V20.5662C153.625 20.2611 153.503 19.9685 153.287 19.7527C153.071 19.537 152.779 19.4158 152.474 19.4158C152.168 19.4158 151.876 19.537 151.66 19.7527C151.445 19.9685 151.324 20.2611 151.324 20.5662V24.8998H148.504V16.7332H151.324V17.1075C151.465 16.7687 152.082 16.6017 152.482 16.6017C153.003 16.5974 153.52 16.6962 154.003 16.8923C154.487 17.0884 154.927 17.3781 155.298 17.7445V17.7673Z" fill="#0B0B0B"/>
<path fill-rule="evenodd" clip-rule="evenodd" d="M36.6358 18.4993C36.6358 21.811 35.751 25.0468 34.0319 27.8782L31.0994 23.7575C32.1612 21.2295 32.4393 18.4235 31.8832 15.7185C31.8578 15.6426 31.8578 15.5415 31.8326 15.4657V15.4405C31.8073 15.3393 31.782 15.2634 31.7567 15.1623C31.7315 15.0613 31.7315 15.0107 31.7061 14.9348C31.6556 14.7579 31.605 14.6062 31.5544 14.4292C31.5544 14.3787 31.5292 14.3281 31.504 14.2775C31.504 14.2523 31.4786 14.227 31.4786 14.2017C31.4281 14.05 31.3775 13.8983 31.3269 13.7466C31.3017 13.6455 31.2511 13.5445 31.2006 13.4433C31.15 13.3422 31.1248 13.2411 31.0742 13.1399C31.0236 13.0388 30.9983 12.9377 30.9477 12.8365C30.8466 12.6344 30.7708 12.4321 30.6697 12.2299C30.6191 12.154 30.5939 12.0529 30.5433 11.9771L30.5181 11.9518C30.5181 11.9518 30.5181 11.9518 30.5181 11.9265C30.4675 11.8254 30.4168 11.7496 30.3664 11.6484C30.3158 11.5473 30.2652 11.4462 30.1893 11.3704C30.063 11.1681 29.9366 10.9659 29.8101 10.7636C29.0771 9.67661 28.1923 8.71596 27.2063 7.907L26.9788 7.70477L26.6755 7.47725C26.5996 7.40141 26.4985 7.35085 26.3975 7.27501C26.2963 7.19917 26.2204 7.1486 26.1446 7.09805C26.0435 7.02221 25.9424 6.97165 25.8412 6.89581C25.7401 6.81997 25.6895 6.79469 25.6391 6.7694C25.5885 6.74413 25.5126 6.69356 25.4368 6.64301C21.8723 4.54477 17.5747 4.16557 13.7068 5.58125C12.6957 5.96045 10.5721 7.22444 10.4963 7.27501L7.86719 3.68526L8.2211 3.45774C9.1059 2.85102 10.0413 2.32014 11.0019 1.89037C16.0579 -0.384823 21.8471 -0.207863 26.7767 2.32014C26.9536 2.39598 27.1305 2.49709 27.2822 2.59821C27.358 2.64877 27.4591 2.69934 27.5349 2.74989L27.7625 2.90157C27.8383 2.95213 27.9143 3.0027 27.9901 3.05325C28.167 3.15438 28.3187 3.25549 28.4956 3.35661L28.6979 3.48301C28.799 3.53358 28.8748 3.60942 28.9759 3.68526C29.0771 3.7611 29.1782 3.81165 29.254 3.88749L29.4057 4.01389L29.6585 4.21613C29.886 4.39309 30.1135 4.59533 30.341 4.77229C30.5685 4.94925 30.7708 5.15149 30.9983 5.35373L31.3017 5.65709C31.4028 5.75821 31.504 5.85932 31.605 5.96045C31.8073 6.16268 31.9842 6.36493 32.1613 6.56717L32.3887 6.84524C32.4645 6.94637 32.5405 7.02221 32.6163 7.12333C32.6922 7.22444 32.7426 7.27501 32.7932 7.35085C32.8438 7.42669 32.9197 7.50253 32.9702 7.57837L33.1471 7.80589C33.2229 7.907 33.2989 8.00813 33.3494 8.10924C33.4 8.21036 33.501 8.31149 33.5516 8.4126C33.5769 8.46317 33.6275 8.51372 33.6527 8.56428C33.678 8.61485 33.7286 8.6654 33.7539 8.71596L33.9055 8.96876C33.9813 9.09516 34.0573 9.22157 34.1331 9.34796L34.2847 9.62604L34.4365 9.90413C34.4365 9.90413 34.4364 9.9294 34.4617 9.9294L34.487 9.95468C34.487 9.95468 34.487 9.97997 34.5123 9.97997C34.5123 9.97997 34.5122 10.0052 34.5376 10.0052L34.6892 10.2833L34.7145 10.3086C34.7651 10.4097 34.8157 10.5108 34.8662 10.6372C34.9168 10.7636 34.9674 10.8648 35.0178 10.9912L35.1443 11.2945L35.2707 11.5726L35.3718 11.8254C35.4224 11.9518 35.4729 12.0529 35.4982 12.154C35.5235 12.1793 35.5235 12.2046 35.5235 12.2552C35.5741 12.3816 35.6246 12.5079 35.6499 12.6344C35.751 12.9124 35.8268 13.1905 35.9027 13.4939C35.9279 13.6203 35.9785 13.772 36.0038 13.8983V13.9489C36.0796 14.2523 36.1554 14.5304 36.206 14.8337C36.2313 14.9854 36.2566 15.1371 36.2819 15.2634C36.2819 15.2888 36.2819 15.314 36.2819 15.314C36.3071 15.4405 36.3324 15.5668 36.3577 15.6932L36.4083 16.123V16.1483C36.4336 16.2999 36.4336 16.4516 36.4588 16.6033C36.4842 16.8814 36.5094 17.1594 36.5346 17.4628C36.6358 17.8167 36.6358 18.1453 36.6358 18.4993Z" fill="#0B0B0B"/>
<path d="M31.7332 30.9108C30.8989 31.7957 29.9888 32.6047 29.0029 33.3125C25.9441 35.5118 22.2279 36.7 18.4359 36.7C8.37452 36.7 0.234375 28.5598 0.234375 18.4985C0.234375 15.1109 1.16973 11.7992 2.93934 8.94258C3.01517 8.81617 3.11629 8.68978 3.19213 8.5381L3.44493 8.1589C3.74829 7.70386 4.10221 7.2741 4.45613 6.84434L4.68365 6.59154C4.70893 6.54098 4.75949 6.5157 4.78477 6.46514C4.86061 6.36402 4.93645 6.28818 5.03756 6.18707L5.13869 6.08594L7.7678 9.77682L7.79309 9.82738C7.74252 9.90322 7.66668 9.97906 7.61612 10.0549C7.56557 10.1307 7.48973 10.2066 7.43916 10.2824C2.88877 16.3496 4.12749 24.9449 10.1947 29.4699C14.9726 33.0597 21.5454 33.1356 26.3991 29.6469L24.8823 27.5234L22.3038 23.8831C23.3403 23.1247 24.1492 22.1134 24.6296 20.9253C25.9693 17.5125 24.3009 13.67 20.8881 12.3301C20.1044 12.0267 19.2954 11.8751 18.4612 11.8751H18.1832C16.8939 11.9256 15.6805 12.3554 14.6187 13.1138L11.9896 9.44818C13.0007 8.74033 14.0878 8.18418 15.2759 7.83025C16.2872 7.5269 17.3742 7.37522 18.4359 7.37522C18.7645 7.37522 19.0933 7.4005 19.4219 7.42578C25.5397 7.95666 30.0394 13.3414 29.5086 19.459C29.3317 21.4309 28.6237 23.3269 27.4861 24.9449L29.0788 27.1694L31.7332 30.9108Z" fill="#0059FF"/>
<path fill-rule="evenodd" clip-rule="evenodd" d="M22.2785 23.8825C19.346 26.0567 15.2001 25.4499 13.026 22.5174C10.852 19.5849 11.4587 15.4391 14.3911 13.265C14.467 13.2144 14.5428 13.1639 14.5934 13.1133L22.2785 23.8825Z" fill="#0B0B0B"/>
<path d="M53.3991 20.2174L55.8512 22.0122C54.2586 24.1357 52.3879 25.0712 50.3149 25.0712C46.6746 25.147 43.641 22.2397 43.5905 18.5994C43.5399 14.9591 46.4218 11.9256 50.0621 11.875C50.138 11.875 50.239 11.875 50.3149 11.875C52.4132 11.875 54.3344 12.8609 55.9018 14.9845L53.4243 16.8046C52.4384 15.4647 51.402 14.9339 50.3149 14.9339C48.3684 14.9339 46.7758 16.5265 46.7758 18.4731C46.7758 20.4196 48.3684 22.0122 50.3149 22.0122C51.4272 22.0122 52.4132 21.5319 53.3991 20.2174Z" fill="#0B0B0B"/>
<path d="M60.273 17.1848C61.0819 16.7803 61.992 16.5781 62.9021 16.5781L62.2195 19.3842C61.1577 19.3842 60.2983 19.9151 60.2983 20.5723V24.8699H57.4922V16.7298H60.2983V17.1848H60.273Z" fill="#0B0B0B"/>
<path d="M65.1785 28.6626L67.024 24.1374L64.0156 16.7305H66.8469L68.4396 20.5729L69.9817 16.7305H72.8131L67.9845 28.6626H65.1785Z" fill="#0B0B0B"/>
<path d="M82.623 20.7991C82.623 21.9367 82.1679 23.0237 81.3843 23.8074C80.5753 24.5911 79.5135 25.0209 78.3759 25.0209C77.8703 24.9955 77.3648 24.8186 76.9602 24.5152V28.6612H74.1289V16.7289H76.935V17.1081C77.3394 16.7795 77.8451 16.6026 78.3507 16.6026C79.4629 16.5773 80.5501 17.0071 81.3589 17.8161C82.1679 18.5997 82.623 19.6867 82.623 20.7991ZM79.8169 20.7991C79.8169 20.0154 79.1596 19.3833 78.3759 19.3833C77.5923 19.3833 76.9602 20.0407 76.9602 20.8243C76.9602 21.6081 77.6175 22.24 78.3759 22.24C79.1849 22.24 79.8169 21.6081 79.8169 20.7991Z" fill="#0B0B0B"/>
<path d="M84.4664 21.9114V19.3581H83.4805V16.729H84.4664V14.1758H87.2725V16.729H89.2949V19.3581H87.2725V21.8861C87.2472 22.0125 87.3483 22.1136 87.4747 22.139H89.1938L89.9269 24.8944H87.4495C85.8063 24.8944 84.4917 23.5799 84.4664 21.9367C84.4664 21.9367 84.4664 21.9367 84.4664 21.9114Z" fill="#0B0B0B"/>
<path d="M99.3053 20.7998C99.3053 21.9374 98.8503 23.0245 98.0665 23.8082C97.2829 24.5918 96.1959 25.0468 95.0835 25.0468C92.7577 25.0974 90.8112 23.252 90.7354 20.9262C90.6848 18.6004 92.5302 16.654 94.856 16.5781C94.9318 16.5781 94.9824 16.5781 95.0583 16.5781C96.1705 16.5781 97.2323 17.0078 98.0413 17.7916C98.8503 18.6004 99.2799 19.6876 99.3053 20.7998ZM96.4739 20.7998C96.4486 20.0162 95.7913 19.4094 95.0077 19.4347C94.2745 19.46 93.6931 20.0668 93.6425 20.7998C93.6173 21.5836 94.224 22.2408 95.0077 22.2661C95.7913 22.2914 96.4486 21.6846 96.4739 20.901C96.4739 20.901 96.4739 20.8504 96.4739 20.7998Z" fill="#0B0B0B"/>
<path d="M109.217 20.798C109.217 21.9356 108.762 23.0227 107.978 23.8064C107.169 24.59 106.107 25.0198 104.995 25.0198C104.49 24.9946 103.984 24.8175 103.58 24.5142V28.6601H100.773V16.728H103.58V17.1072C103.984 16.7785 104.49 16.6016 104.995 16.6016C106.107 16.6016 107.195 17.0314 107.978 17.815C108.762 18.5986 109.217 19.6858 109.217 20.798ZM106.411 20.798C106.411 20.0144 105.754 19.3824 104.97 19.3824C104.186 19.3824 103.554 20.0396 103.554 20.8234C103.554 21.607 104.211 22.239 104.995 22.239C105.779 22.239 106.411 21.607 106.411 20.798C106.411 20.8234 106.411 20.798 106.411 20.798Z" fill="#0B0B0B"/>
<path d="M118.848 20.7998C118.848 21.9374 118.393 23.0245 117.61 23.8082C116.826 24.5918 115.739 25.0468 114.627 25.0468C112.301 25.0974 110.354 23.252 110.278 20.9262C110.228 18.6004 112.073 16.654 114.399 16.5781C114.475 16.5781 114.525 16.5781 114.601 16.5781C115.714 16.5781 116.775 17.0078 117.584 17.7916C118.393 18.6004 118.848 19.6876 118.848 20.7998ZM116.042 20.7998C116.017 20.0162 115.36 19.4094 114.576 19.4347C113.843 19.46 113.261 20.0668 113.211 20.7998C113.186 21.5836 113.792 22.2408 114.576 22.2661C115.36 22.2914 116.017 21.6846 116.042 20.901C116.042 20.901 116.042 20.8504 116.042 20.7998Z" fill="#0B0B0B"/>
<path d="M120.465 24.8939V11.8242H123.296V24.8939H120.465Z" fill="#0B0B0B"/>
<path d="M125.801 14.0262C125.801 13.1414 126.508 12.4336 127.393 12.4336C128.277 12.4336 129.01 13.1414 129.01 14.0262C129.01 14.9111 128.303 15.6441 127.393 15.6441C126.508 15.6189 125.801 14.9111 125.801 14.0262ZM125.977 16.7312H128.783V24.8966H125.977V16.7312Z" fill="#0B0B0B"/>
<path d="M131.767 21.9114V19.3581H130.781V16.729H131.767V14.1758H134.599V16.729H136.62V19.3581H134.599V21.8861C134.573 22.0125 134.674 22.1136 134.8 22.139H136.52L137.253 24.8944H134.776C133.132 24.9197 131.792 23.6052 131.792 21.9619C131.767 21.9367 131.767 21.9367 131.767 21.9114Z" fill="#0B0B0B"/>
<path d="M143.747 17.109V16.7298H146.578V24.8952H143.747V24.516C143.343 24.8447 142.862 25.0216 142.331 25.0216C140.005 25.0216 138.109 23.1256 138.109 20.7998C138.109 18.4741 140.005 16.5781 142.331 16.5781C142.837 16.5781 143.343 16.755 143.747 17.109ZM143.747 20.7998C143.722 20.0162 143.089 19.3842 142.305 19.4094C141.522 19.4347 140.891 20.0668 140.915 20.8504C140.94 21.634 141.573 22.2408 142.331 22.2408C143.115 22.2408 143.747 21.6088 143.747 20.7998Z" fill="#0B0B0B"/>
<path d="M155.277 17.7655C156.01 18.4986 156.415 19.5098 156.415 20.5715V24.8944H153.608V20.5715C153.608 19.9396 153.103 19.4087 152.471 19.4087C151.839 19.4087 151.308 19.9142 151.308 20.5463V24.8692H148.477V16.7289H151.308V17.1081C151.459 16.7795 152.066 16.6026 152.471 16.6026C153.507 16.5773 154.518 17.0071 155.277 17.7655Z" fill="#0B0B0B"/>
</g>
<defs>
<clipPath id="clip0_3269_2943">
<rect width="156.534" height="36.4031" fill="white" transform="translate(0.234375 0.296875)"/>
</clipPath>
</defs>
</svg>
