<svg width="133" height="37" viewBox="0 0 133 37" fill="none" xmlns="http://www.w3.org/2000/svg">
<g clip-path="url(#clip0_3357_4364)">
<g clip-path="url(#clip1_3357_4364)">
<path fill-rule="evenodd" clip-rule="evenodd" d="M1 3.83495C1 1.71696 2.72681 0 4.85694 0H14.3665C25.3863 0 33 7.73295 33 17.8216C33 28.0127 25.3863 35.8481 14.3665 35.8481H4.85694C2.72681 35.8481 1 34.1311 1 32.0132L1 3.83495Z" fill="url(#paint0_linear_3357_4364)"/>
</g>
<path fill-rule="evenodd" clip-rule="evenodd" d="M44.5859 6.22761V16.6156C44.5859 16.8653 44.8134 17.0854 45.1145 17.0854H48.717C52.3234 17.0854 54.8433 14.6691 54.8433 11.3838C54.8433 8.14141 52.3275 5.75781 48.717 5.75781H45.1145C44.8134 5.75781 44.5859 5.97792 44.5859 6.22761Z" stroke="#0B0B0B" stroke-width="2.10369"/>
<path fill-rule="evenodd" clip-rule="evenodd" d="M50.5347 32.3203C50.7958 32.3203 51.0103 32.4022 51.1781 32.5658C51.346 32.7294 51.4299 32.9434 51.4299 33.2077C51.4299 33.4594 51.346 33.6671 51.1781 33.8307C51.0103 33.9943 50.7958 34.0761 50.5347 34.0761H44.2311C43.97 34.0761 43.7556 33.988 43.5877 33.8118C43.4199 33.6356 43.3359 33.4216 43.3359 33.1699V21.7668C43.3359 21.5151 43.423 21.3012 43.597 21.1249C43.7711 20.9487 43.9949 20.8606 44.2684 20.8606C44.5171 20.8606 44.7316 20.9487 44.9118 21.1249C45.0921 21.3012 45.1823 21.5151 45.1823 21.7668V32.3203H50.5347ZM60.9226 24.0512C61.1837 24.0512 61.3982 24.1362 61.566 24.3061C61.7339 24.476 61.8178 24.6994 61.8178 24.9763V33.1699C61.8178 33.4216 61.7339 33.6356 61.566 33.8118C61.3982 33.988 61.1837 34.0761 60.9226 34.0761C60.6615 34.0761 60.4502 33.9912 60.2885 33.8212C60.1269 33.6513 60.0461 33.4342 60.0461 33.1699V32.6791C59.7228 33.1196 59.2814 33.494 58.722 33.8024C58.1625 34.1107 57.5595 34.2649 56.9129 34.2649C56.0675 34.2649 55.2997 34.0447 54.6097 33.6041C53.9196 33.1636 53.3788 32.55 52.9872 31.7634C52.5955 30.9768 52.3997 30.0926 52.3997 29.1109C52.3997 28.1291 52.5955 27.245 52.9872 26.4583C53.3788 25.6717 53.9165 25.0581 54.6004 24.6176C55.2842 24.1771 56.0364 23.9568 56.857 23.9568C57.5159 23.9568 58.1283 24.0953 58.694 24.3722C59.2597 24.6491 59.7104 25.0015 60.0461 25.4294V24.9763C60.0461 24.712 60.1269 24.4917 60.2885 24.3155C60.4502 24.1393 60.6615 24.0512 60.9226 24.0512ZM57.1181 32.6035C57.7024 32.6035 58.2215 32.4525 58.6753 32.1504C59.1291 31.8484 59.4835 31.433 59.7384 30.9044C59.9932 30.3758 60.1207 29.7779 60.1207 29.1109C60.1207 28.4564 59.9932 27.8648 59.7384 27.3362C59.4835 26.8076 59.1291 26.3891 58.6753 26.0808C58.2215 25.7724 57.7024 25.6182 57.1181 25.6182C56.5337 25.6182 56.0146 25.7692 55.5608 26.0713C55.107 26.3734 54.7527 26.7887 54.4978 27.3173C54.2429 27.846 54.1155 28.4438 54.1155 29.1109C54.1155 29.7779 54.2429 30.3758 54.4978 30.9044C54.7527 31.433 55.107 31.8484 55.5608 32.1504C56.0146 32.4525 56.5337 32.6035 57.1181 32.6035ZM68.9793 23.9568C69.8248 23.9568 70.5894 24.1771 71.2732 24.6176C71.957 25.0581 72.4948 25.6686 72.8864 26.4489C73.2781 27.2292 73.4739 28.1103 73.4739 29.092C73.4739 30.0737 73.2781 30.961 72.8864 31.754C72.4948 32.5469 71.957 33.1636 71.2732 33.6041C70.5894 34.0447 69.8372 34.2649 69.0166 34.2649C68.3701 34.2649 67.7671 34.1202 67.2076 33.8307C66.6481 33.5412 66.1943 33.1825 65.8461 32.7546V33.3021C65.8461 33.5538 65.7622 33.7678 65.5944 33.944C65.4265 34.1202 65.2121 34.2083 64.951 34.2083C64.7023 34.2083 64.494 34.1233 64.3262 33.9534C64.1583 33.7835 64.0744 33.5664 64.0744 33.3021V21.0117C64.0744 20.7474 64.1552 20.5303 64.3169 20.3603C64.4785 20.1904 64.6899 20.1055 64.951 20.1055C65.2121 20.1055 65.4265 20.1936 65.5944 20.3698C65.7622 20.546 65.8461 20.7599 65.8461 21.0117V25.6182C66.1445 25.1651 66.5797 24.7749 67.1516 24.4477C67.7236 24.1205 68.3328 23.9568 68.9793 23.9568ZM68.7742 32.6035C69.3461 32.6035 69.862 32.4494 70.3221 32.141C70.7821 31.8326 71.1396 31.411 71.3944 30.8761C71.6493 30.3412 71.7768 29.7465 71.7768 29.092C71.7768 28.4375 71.6493 27.846 71.3944 27.3173C71.1396 26.7887 70.7821 26.3734 70.3221 26.0713C69.862 25.7692 69.3461 25.6182 68.7742 25.6182C68.1898 25.6182 67.6676 25.7692 67.2076 26.0713C66.7475 26.3734 66.3901 26.7856 66.1352 27.3079C65.8803 27.8302 65.7529 28.4249 65.7529 29.092C65.7529 29.7591 65.8803 30.3569 66.1352 30.8855C66.3901 31.4141 66.7475 31.8326 67.2076 32.141C67.6676 32.4494 68.1898 32.6035 68.7742 32.6035ZM74.5929 32.528C74.481 32.3518 74.425 32.1819 74.425 32.0183C74.425 31.7666 74.5556 31.5526 74.8167 31.3764C74.941 31.2883 75.084 31.2442 75.2456 31.2442C75.4694 31.2442 75.6745 31.3386 75.861 31.5274C76.234 31.9553 76.635 32.2763 77.0639 32.4903C77.4929 32.7042 78.0058 32.8112 78.6026 32.8112C79.075 32.7986 79.4915 32.6885 79.8521 32.4808C80.2126 32.2731 80.3929 31.9365 80.3929 31.4708C80.3929 31.0428 80.2095 30.7156 79.8428 30.4891C79.476 30.2625 78.9383 30.0548 78.2296 29.866C77.5333 29.6772 76.9552 29.479 76.4951 29.2713C76.0351 29.0637 75.6466 28.7616 75.3295 28.3651C75.0125 27.9687 74.854 27.4495 74.854 26.8076C74.854 26.2412 75.0125 25.7441 75.3295 25.3161C75.6466 24.8882 76.0693 24.5547 76.5977 24.3155C77.1261 24.0764 77.7011 23.9568 78.3228 23.9568C78.9196 23.9568 79.5133 24.0701 80.1039 24.2967C80.6944 24.5232 81.1762 24.8693 81.5492 25.335C81.6984 25.5112 81.773 25.6937 81.773 25.8825C81.773 26.0839 81.6735 26.279 81.4746 26.4678C81.3503 26.5811 81.1949 26.6377 81.0084 26.6377C80.7846 26.6377 80.6043 26.5622 80.4675 26.4111C80.2064 26.1091 79.8863 25.8762 79.5071 25.7126C79.1278 25.549 78.7082 25.4672 78.2482 25.4672C77.7757 25.4672 77.3748 25.5647 77.0453 25.7598C76.7158 25.9549 76.5511 26.2853 76.5511 26.751C76.5635 27.1915 76.7531 27.5187 77.1199 27.7327C77.4867 27.9467 78.0493 28.1543 78.8077 28.3557C79.4667 28.5319 80.0137 28.7207 80.4489 28.9221C80.884 29.1235 81.2508 29.4224 81.5492 29.8188C81.8476 30.2153 81.9968 30.7345 81.9968 31.3764C81.9968 31.9679 81.829 32.4808 81.4933 32.915C81.1576 33.3493 80.7193 33.6828 80.1785 33.9156C79.6376 34.1485 79.0626 34.2649 78.4534 34.2649C77.6701 34.2649 76.9458 34.1265 76.2807 33.8496C75.6155 33.5727 75.0529 33.1322 74.5929 32.528Z" fill="#0B0B0B"/>
<path fill-rule="evenodd" clip-rule="evenodd" d="M66.8163 12.5178C66.8038 12.7443 66.7106 12.9363 66.5365 13.0936C66.3625 13.2509 66.1573 13.3296 65.9211 13.3296H59.3564C59.4434 14.2484 59.7884 14.9847 60.3915 15.5385C60.9945 16.0923 61.7311 16.3692 62.6014 16.3692C63.1982 16.3692 63.6831 16.2811 64.0561 16.1048C64.4291 15.9286 64.7586 15.7021 65.0446 15.4252C65.2311 15.3119 65.4113 15.2553 65.5854 15.2553C65.7968 15.2553 65.9739 15.3308 66.1169 15.4818C66.2599 15.6329 66.3314 15.8091 66.3314 16.0105C66.3314 16.2748 66.2071 16.5139 65.9584 16.7279C65.5978 17.0929 65.1192 17.4012 64.5224 17.6529C63.9256 17.9047 63.3164 18.0305 62.6947 18.0305C61.6876 18.0305 60.8018 17.8166 60.0371 17.3886C59.2725 16.9607 58.6819 16.3629 58.2654 15.5951C57.8489 14.8273 57.6406 13.9589 57.6406 12.9898C57.6406 11.9325 57.8551 11.0043 58.284 10.2051C58.713 9.40586 59.2787 8.79229 59.9812 8.36436C60.6836 7.93642 61.4389 7.72246 62.2471 7.72246C63.0428 7.72246 63.7888 7.93013 64.4851 8.34548C65.1813 8.76082 65.7408 9.33349 66.1635 10.0635C66.5863 10.7935 66.8038 11.6116 66.8163 12.5178ZM62.2471 9.38384C61.5508 9.38384 60.9478 9.58207 60.4381 9.97853C59.9283 10.375 59.5926 10.9886 59.431 11.8193H64.9327V11.6682C64.8705 11.0012 64.5752 10.4537 64.0468 10.0257C63.5184 9.5978 62.9185 9.38384 62.2471 9.38384ZM72.7469 7.72246C73.7291 7.72246 74.5466 7.87979 75.1993 8.19444C75.8521 8.5091 76.1784 8.91185 76.1784 9.40271C76.1784 9.61668 76.1101 9.80862 75.9733 9.97853C75.8365 10.1484 75.6625 10.2334 75.4511 10.2334C75.2895 10.2334 75.162 10.2082 75.0688 10.1579C74.9755 10.1075 74.8481 10.0257 74.6865 9.91245C74.6119 9.83694 74.4938 9.74883 74.3321 9.64814C74.1829 9.57263 73.9716 9.5097 73.698 9.45935C73.4245 9.40901 73.1758 9.38384 72.952 9.38384C72.3055 9.38384 71.7336 9.53487 71.2363 9.83694C70.7389 10.139 70.3535 10.5575 70.08 11.0924C69.8065 11.6273 69.6697 12.222 69.6697 12.8765C69.6697 13.5436 69.8033 14.1414 70.0707 14.67C70.338 15.1986 70.7141 15.614 71.199 15.9161C71.6839 16.2181 72.2371 16.3692 72.8588 16.3692C73.5053 16.3692 74.0275 16.2685 74.4254 16.0671C74.5124 16.0167 74.6305 15.9349 74.7797 15.8217C74.904 15.721 75.0128 15.6455 75.1061 15.5951C75.1993 15.5448 75.3143 15.5196 75.4511 15.5196C75.6998 15.5196 75.8956 15.5983 76.0386 15.7556C76.1816 15.9129 76.253 16.1174 76.253 16.3692C76.253 16.6335 76.0883 16.8946 75.7588 17.1526C75.4293 17.4107 74.988 17.6215 74.4347 17.7851C73.8814 17.9487 73.2877 18.0305 72.6536 18.0305C71.7087 18.0305 70.8757 17.8071 70.1546 17.3603C69.4335 16.9135 68.8771 16.2968 68.4854 15.5102C68.0938 14.7235 67.898 13.8456 67.898 12.8765C67.898 11.9074 68.1031 11.0295 68.5134 10.2428C68.9237 9.4562 69.4956 8.83949 70.2292 8.39267C70.9627 7.94586 71.802 7.72246 72.7469 7.72246ZM86.2866 12.5178C86.2742 12.7443 86.1809 12.9363 86.0068 13.0936C85.8328 13.2509 85.6276 13.3296 85.3914 13.3296H78.8267C78.9137 14.2484 79.2588 14.9847 79.8618 15.5385C80.4648 16.0923 81.2014 16.3692 82.0718 16.3692C82.6685 16.3692 83.1534 16.2811 83.5264 16.1048C83.8994 15.9286 84.2289 15.7021 84.5149 15.4252C84.7014 15.3119 84.8816 15.2553 85.0557 15.2553C85.2671 15.2553 85.4442 15.3308 85.5872 15.4818C85.7302 15.6329 85.8017 15.8091 85.8017 16.0105C85.8017 16.2748 85.6774 16.5139 85.4287 16.7279C85.0681 17.0929 84.5895 17.4012 83.9927 17.6529C83.3959 17.9047 82.7867 18.0305 82.165 18.0305C81.1579 18.0305 80.2721 17.8166 79.5074 17.3886C78.7428 16.9607 78.1522 16.3629 77.7357 15.5951C77.3192 14.8273 77.1109 13.9589 77.1109 12.9898C77.1109 11.9325 77.3254 11.0043 77.7543 10.2051C78.1833 9.40586 78.749 8.79229 79.4515 8.36436C80.1539 7.93642 80.9093 7.72246 81.7174 7.72246C82.5131 7.72246 83.2591 7.93013 83.9554 8.34548C84.6516 8.76082 85.2111 9.33349 85.6338 10.0635C86.0566 10.7935 86.2742 11.6116 86.2866 12.5178ZM81.7174 9.38384C81.0212 9.38384 80.4181 9.58207 79.9084 9.97853C79.3986 10.375 79.0629 10.9886 78.9013 11.8193H84.403V11.6682C84.3408 11.0012 84.0455 10.4537 83.5171 10.0257C82.9887 9.5978 82.3888 9.38384 81.7174 9.38384ZM99.1735 7.7791C101.349 7.7791 102.437 9.15098 102.437 11.8948V16.9355C102.437 17.1998 102.356 17.417 102.195 17.5869C102.033 17.7568 101.822 17.8417 101.561 17.8417C101.3 17.8417 101.085 17.7536 100.917 17.5774C100.749 17.4012 100.666 17.1873 100.666 16.9355V11.9137C100.666 10.2649 99.9817 9.44047 98.6141 9.44047C98.1292 9.44047 97.6909 9.5506 97.2992 9.77086C96.9076 9.99112 96.603 10.29 96.3854 10.6676C96.1678 11.0452 96.059 11.4606 96.059 11.9137V16.9355C96.059 17.1873 95.9751 17.4012 95.8073 17.5774C95.6394 17.7536 95.425 17.8417 95.1639 17.8417C94.9028 17.8417 94.6914 17.7568 94.5298 17.5869C94.3681 17.417 94.2873 17.1998 94.2873 16.9355V11.8948C94.2873 11.1522 94.1319 10.5575 93.8211 10.1107C93.5103 9.66388 92.9943 9.44047 92.2732 9.44047C91.5396 9.44047 90.9335 9.67646 90.4548 10.1484C89.9761 10.6204 89.7368 11.2025 89.7368 11.8948V16.9355C89.7368 17.1873 89.6529 17.4012 89.485 17.5774C89.3172 17.7536 89.1027 17.8417 88.8416 17.8417C88.5805 17.8417 88.3691 17.7568 88.2075 17.5869C88.0459 17.417 87.9651 17.1998 87.9651 16.9355V8.85522C87.9651 8.60349 88.049 8.38953 88.2168 8.21332C88.3847 8.03712 88.5929 7.94901 88.8416 7.94901C89.1027 7.94901 89.3172 8.03712 89.485 8.21332C89.6529 8.38953 89.7368 8.60349 89.7368 8.85522V9.51599C90.0601 9.02513 90.4921 8.61293 91.0329 8.2794C91.5738 7.94586 92.1612 7.7791 92.7953 7.7791C94.3371 7.7791 95.3379 8.47133 95.7979 9.85582C96.0715 9.3272 96.5253 8.84893 97.1594 8.42099C97.7935 7.99306 98.4649 7.7791 99.1735 7.7791ZM109.617 7.72246C110.463 7.72246 111.227 7.94272 111.911 8.38323C112.595 8.82375 113.133 9.43418 113.525 10.2145C113.916 10.9949 114.112 11.8759 114.112 12.8576C114.112 13.8393 113.916 14.7267 113.525 15.5196C113.133 16.3125 112.595 16.9292 111.911 17.3698C111.227 17.8103 110.475 18.0305 109.655 18.0305C109.008 18.0305 108.405 17.8858 107.846 17.5963C107.286 17.3068 106.832 16.9481 106.484 16.5202V17.0677C106.484 17.3194 106.4 17.5334 106.232 17.7096C106.065 17.8858 105.85 17.9739 105.589 17.9739C105.34 17.9739 105.132 17.8889 104.964 17.719C104.796 17.5491 104.713 17.332 104.713 17.0677V4.7773C104.713 4.51299 104.793 4.29588 104.955 4.12596C105.117 3.95605 105.328 3.87109 105.589 3.87109C105.85 3.87109 106.065 3.9592 106.232 4.1354C106.4 4.31161 106.484 4.52557 106.484 4.7773V9.38384C106.783 8.93073 107.218 8.54056 107.79 8.21332C108.362 7.88608 108.971 7.72246 109.617 7.72246ZM109.412 16.3692C109.984 16.3692 110.5 16.215 110.96 15.9066C111.42 15.5983 111.778 15.1766 112.033 14.6417C112.287 14.1068 112.415 13.5121 112.415 12.8576C112.415 12.2031 112.287 11.6116 112.033 11.083C111.778 10.5543 111.42 10.139 110.96 9.83694C110.5 9.53487 109.984 9.38384 109.412 9.38384C108.828 9.38384 108.306 9.53487 107.846 9.83694C107.386 10.139 107.028 10.5512 106.773 11.0735C106.518 11.5959 106.391 12.1905 106.391 12.8576C106.391 13.5247 106.518 14.1225 106.773 14.6511C107.028 15.1798 107.386 15.5983 107.846 15.9066C108.306 16.215 108.828 16.3692 109.412 16.3692ZM124.369 12.5178C124.357 12.7443 124.264 12.9363 124.09 13.0936C123.915 13.2509 123.71 13.3296 123.474 13.3296H116.909C116.996 14.2484 117.341 14.9847 117.944 15.5385C118.547 16.0923 119.284 16.3692 120.154 16.3692C120.751 16.3692 121.236 16.2811 121.609 16.1048C121.982 15.9286 122.312 15.7021 122.598 15.4252C122.784 15.3119 122.964 15.2553 123.138 15.2553C123.35 15.2553 123.527 15.3308 123.67 15.4818C123.813 15.6329 123.884 15.8091 123.884 16.0105C123.884 16.2748 123.76 16.5139 123.511 16.7279C123.151 17.0929 122.672 17.4012 122.075 17.6529C121.479 17.9047 120.869 18.0305 120.248 18.0305C119.241 18.0305 118.355 17.8166 117.59 17.3886C116.826 16.9607 116.235 16.3629 115.818 15.5951C115.402 14.8273 115.194 13.9589 115.194 12.9898C115.194 11.9325 115.408 11.0043 115.837 10.2051C116.266 9.40586 116.832 8.79229 117.534 8.36436C118.237 7.93642 118.992 7.72246 119.8 7.72246C120.596 7.72246 121.342 7.93013 122.038 8.34548C122.734 8.76082 123.294 9.33349 123.717 10.0635C124.139 10.7935 124.357 11.6116 124.369 12.5178ZM119.8 9.38384C119.104 9.38384 118.501 9.58207 117.991 9.97853C117.481 10.375 117.146 10.9886 116.984 11.8193H122.486V11.6682C122.424 11.0012 122.128 10.4537 121.6 10.0257C121.071 9.5978 120.472 9.38384 119.8 9.38384ZM130.915 7.72246C131.239 7.72246 131.518 7.80742 131.755 7.97733C131.991 8.14725 132.109 8.35806 132.109 8.60979C132.109 8.91186 132.031 9.14155 131.876 9.29888C131.72 9.45621 131.531 9.53487 131.307 9.53487C131.195 9.53487 131.027 9.49711 130.803 9.42159C130.542 9.33349 130.337 9.28944 130.188 9.28944C129.803 9.28944 129.426 9.42474 129.06 9.69534C128.693 9.96595 128.395 10.3372 128.165 10.8092C127.935 11.2812 127.82 11.8067 127.82 12.3856V16.9355C127.82 17.1873 127.736 17.4012 127.568 17.5774C127.4 17.7536 127.185 17.8417 126.924 17.8417C126.663 17.8417 126.452 17.7568 126.29 17.5869C126.129 17.417 126.048 17.1998 126.048 16.9355V8.85522C126.048 8.60349 126.132 8.38953 126.3 8.21332C126.467 8.03712 126.676 7.94901 126.924 7.94901C127.185 7.94901 127.4 8.03712 127.568 8.21332C127.736 8.38953 127.82 8.60349 127.82 8.85522V9.81806C128.093 9.20133 128.503 8.70104 129.05 8.31716C129.597 7.93328 130.219 7.73505 130.915 7.72246Z" fill="#0B0B0B"/>
</g>
<defs>
<linearGradient id="paint0_linear_3357_4364" x1="17" y1="0" x2="17" y2="35.8481" gradientUnits="userSpaceOnUse">
<stop stop-color="#3E63FE"/>
<stop offset="1" stop-color="#3EE2FE"/>
</linearGradient>
<clipPath id="clip0_3357_4364">
<rect width="131.48" height="36.8145" fill="white" transform="translate(0.757812 0.09375)"/>
</clipPath>
<clipPath id="clip1_3357_4364">
<rect width="32" height="36" fill="white" transform="translate(1)"/>
</clipPath>
</defs>
</svg>
