<svg width="151" height="29" viewBox="0 0 151 29" fill="none" xmlns="http://www.w3.org/2000/svg">
<path d="M79.3753 5.64436C79.1368 5.70398 78.8685 5.7636 78.63 5.82322C77.9742 6.03189 77.3482 5.97227 76.6924 5.73379C76.1856 5.55492 75.649 5.37606 75.1124 5.25682C74.3075 5.07796 73.6219 5.34625 73.0555 5.94246L72.7872 6.21075C72.7872 6.0617 72.7574 5.94246 72.7872 5.88284C73.4728 3.82593 75.0826 2.60371 77.4376 3.11048C78.1232 3.25954 78.8089 3.40859 79.4647 3.61726C80.6869 3.97498 81.8495 3.70669 83.0121 3.40859C83.1612 3.37878 83.3102 3.34897 83.5189 3.40859C83.3997 3.49802 83.3102 3.55764 83.191 3.64707C82.1476 4.36252 81.1639 5.13758 80.5975 6.32999C80.0311 7.46278 79.9417 8.65519 79.9118 9.87741C79.882 11.5766 79.882 13.2758 79.9118 14.975C79.9417 17.3002 79.2858 19.3869 77.7953 21.2053C77.7357 21.2947 77.6761 21.3842 77.6165 21.4438C77.6165 21.4736 77.6165 21.5034 77.5867 21.6226C77.8549 21.4736 78.0934 21.3245 78.3021 21.1755C79.6436 20.1619 80.8062 18.9695 81.2533 17.3002C81.462 16.4953 81.5812 15.6308 81.611 14.7961C81.6707 12.8882 81.5812 10.9804 81.6707 9.07253C81.7601 7.28392 82.3265 5.73379 83.966 4.72024C84.9796 4.09422 86.0826 3.61726 87.2154 3.34897C87.8712 3.19992 88.527 3.05086 89.2127 3.08067C90.9715 3.1403 92.1341 4.601 92.0446 6.38961C91.985 7.55221 91.4186 8.47633 90.733 9.34083C90.2262 9.96684 89.6598 10.5034 89.1232 11.0996C89.004 11.2189 88.9146 11.3381 88.7357 11.517C88.9742 11.5766 89.1232 11.6064 89.2425 11.6362C90.3156 11.8151 91.359 12.0834 92.0446 13.0075C92.3725 13.4546 92.6408 14.0807 92.6706 14.647C92.7601 16.4953 92.7005 18.3733 92.7005 20.2216C92.7005 20.4899 92.5812 20.5793 92.3427 20.6687C91.1801 20.9966 90.0175 21.2649 88.9146 21.7419C87.6327 22.2785 86.4403 23.0237 85.2479 23.6796C84.9498 23.8286 84.7113 23.8882 84.3834 23.769C83.2208 23.4113 82.0284 23.0237 80.836 22.7852C79.1368 22.4275 77.4674 22.5468 75.8279 23.143C74.9634 23.4709 74.2777 24.1863 74.6653 25.2595C74.7547 25.4682 74.7845 25.7066 74.8441 25.9451C74.9335 26.5115 74.7845 26.7798 74.2479 26.8692C73.8008 26.9289 73.3834 26.601 73.3536 26.124C73.3238 25.7961 73.3238 25.4085 73.4728 25.1403C73.7709 24.544 74.1287 23.9478 74.5162 23.3815C75.172 22.517 75.9471 21.7121 76.5433 20.8178C76.8414 20.3706 76.9606 19.7446 77.0203 19.1782C77.0799 18.5522 76.5731 18.1945 75.9173 18.3733C75.6788 18.4329 75.4403 18.5522 75.2018 18.7012C74.9932 18.8205 74.8143 18.9993 74.546 19.1782C74.3671 18.5522 74.4566 17.9858 74.7845 17.479C75.1422 16.9424 75.649 16.6145 76.2452 16.4059C77.0501 16.1376 77.1693 15.7798 76.9606 14.9452C76.6924 13.9018 75.4403 13.4248 74.4864 13.5739C73.9498 13.6633 73.4132 13.7826 72.817 13.9316C72.8766 13.3652 73.1449 12.9181 73.5325 12.5305C74.1585 11.9045 74.9335 11.4872 75.8577 11.4574C76.3048 11.4574 76.4539 11.3083 76.4837 10.8611C76.6029 8.95329 77.5568 7.43297 78.9579 6.18094C79.107 6.0617 79.2262 5.94246 79.3753 5.82322C79.4051 5.73379 79.4051 5.70398 79.3753 5.64436ZM86.1124 12.4411C86.5595 12.143 86.9173 11.9343 87.2452 11.666C89.8089 9.69855 89.6896 6.38961 86.9769 4.72024C86.8576 4.63081 86.6788 4.57119 86.5297 4.57119C85.6354 4.66062 84.6815 5.4953 84.4728 6.38961C84.3536 6.83676 84.3238 7.28392 84.3238 7.73107C84.294 9.93703 84.3238 12.143 84.294 14.3489C84.2642 15.7202 84.0555 17.0915 82.9823 18.105C82.2669 18.7609 81.4322 19.2676 80.6571 19.8638C80.5081 19.9533 80.3888 20.0725 80.2398 20.1619C82.0284 19.9831 83.7872 19.834 85.546 20.2812V19.7446V9.81779C85.546 9.69855 85.5162 9.51969 85.5758 9.43026C85.6354 9.34083 85.7845 9.25139 85.9037 9.22158C85.9931 9.22158 86.1124 9.34083 86.1422 9.46007C86.172 9.57931 86.1422 9.72836 86.1422 9.8476C86.1124 10.7121 86.1124 11.4872 86.1124 12.4411ZM86.1124 19.4167C86.1124 20.5793 86.1124 20.5793 87.2154 20.937C87.275 20.9668 87.3644 20.9966 87.424 20.9966C87.6029 21.0264 87.7818 21.0563 87.9308 20.9966C88.3482 20.8178 88.7357 20.6091 89.153 20.3706C89.2425 20.311 89.3319 20.1619 89.3319 20.0427C89.3617 19.5359 89.3617 19.059 89.3319 18.5522C89.3319 18.4329 89.1828 18.2243 89.0934 18.2243C88.4972 18.1348 87.901 17.9858 87.3346 18.0454C86.0826 18.1945 86.1124 18.2541 86.1124 19.4167ZM86.1124 13.9912C86.1124 14.2595 86.0826 14.4384 86.1124 14.5874C86.1422 14.7067 86.2316 14.8557 86.3211 14.8557C86.9769 14.9452 87.6029 15.124 88.2587 15.0942C89.2425 15.0346 89.4809 14.7067 89.3617 13.7527C89.2723 13.0075 88.8251 12.5305 88.1395 12.2622C87.6029 12.0536 87.3942 12.5007 87.0365 12.6796C86.9471 12.7392 86.8577 12.8286 86.7384 12.8882C86.2316 13.1565 85.9633 13.5143 86.1124 13.9912ZM89.2723 15.5115H86.1422V17.6579H89.2723V15.5115ZM3.32934 23.5603C3.44858 23.4411 3.56782 23.292 3.68706 23.1728C4.52175 22.3679 5.29682 21.5034 5.86321 20.4899C6.31037 19.6552 6.51904 18.7609 6.22093 17.8367C5.77378 16.4059 4.22365 15.8991 2.97162 16.7636C2.82257 16.8828 2.67352 16.9722 2.46484 17.1511C2.49465 16.376 2.85238 15.8693 3.32934 15.4519C4.04479 14.8259 4.87947 14.5874 5.80359 14.6172C6.1315 14.6172 6.54885 14.7067 6.78733 14.5278C6.96619 14.3788 6.93638 13.9316 6.996 13.6335C7.44315 11.2189 8.725 9.37064 10.7223 8.02917C10.931 7.88012 11.1396 7.73107 11.3483 7.49259H10.8415C9.47025 7.5224 8.09898 7.64164 6.72771 7.58202C3.86592 7.46278 2.88219 5.10777 3.03124 3.17011C3.03124 3.1403 3.06105 3.08067 3.09086 3.02105C3.32934 3.28935 3.5082 3.58745 3.77649 3.82593C4.40251 4.42214 5.14777 4.80967 6.01226 4.75005C8.12879 4.63081 10.2453 4.48176 12.3618 4.36251C14.2995 4.27308 16.2372 4.09422 18.1748 4.54138C20.0827 4.95872 21.454 6.09151 22.4079 7.76088C23.4811 9.66874 23.9878 11.7555 24.0773 13.9316C24.1667 16.0481 24.1071 18.1945 24.0773 20.3408C24.0773 20.4899 23.9282 20.6985 23.809 20.7581C22.2588 21.5034 20.8578 22.4871 19.5461 23.5901C19.2778 23.7988 19.0691 23.8584 18.7412 23.7392C16.5949 23.0237 14.4188 22.5766 12.1532 22.6064C9.26158 22.6362 6.57866 23.4411 4.04479 24.7527C3.95536 24.7825 3.86593 24.872 3.74668 24.9018C3.62744 24.9316 3.5082 24.9018 3.35915 24.9018C3.41877 24.7825 3.47839 24.6335 3.56782 24.5739C5.02852 23.6497 6.51904 22.7852 7.94993 21.8015C8.90386 21.1457 9.79816 20.4302 10.6329 19.6254C11.7656 18.4926 12.2426 17.0319 12.2426 15.4221C12.2426 13.9316 12.3022 12.4709 12.2128 10.9804C12.1532 9.72836 12.332 8.56576 12.9282 7.49259C12.8686 7.46278 12.8686 7.43297 12.8388 7.43297C11.2589 8.02917 10.3646 8.83405 10.2751 10.3246C10.2155 11.6362 10.1559 12.9479 10.2155 14.2595C10.3347 16.7934 9.35101 18.8205 7.5624 20.5197C6.31037 21.7419 4.84966 22.666 3.38896 23.6497C3.38896 23.6199 3.35915 23.5901 3.32934 23.5603ZM14.9851 9.75817C14.9851 10.4438 14.9553 11.0996 14.9851 11.7853C14.9851 11.9641 15.0746 12.2026 15.1938 12.3218C16.5949 13.7229 18.8903 13.6931 20.2616 12.2622C20.351 12.1728 20.4106 11.9641 20.3808 11.8449C20.2616 11.2189 20.1423 10.5929 19.9336 10.0265C19.5163 8.9831 18.8605 8.14842 17.7277 7.8205C16.9526 7.61183 16.1477 7.5224 15.3727 7.34354C15.015 7.28392 14.9553 7.43297 14.9553 7.73107C14.9851 8.41671 14.9851 9.10234 14.9851 9.75817ZM11.5868 19.5061C12.3917 19.5061 13.0773 19.4763 13.7927 19.5061C14.2101 19.5359 14.3591 19.4167 14.3293 18.9695C14.2995 15.2433 14.3293 11.5468 14.2995 7.8205C14.2995 7.64164 14.4188 7.34354 14.0908 7.28392C13.7927 7.25411 13.4946 7.25411 13.3754 7.61183C13.1667 8.35709 12.8686 9.13215 12.8388 9.90722C12.7494 11.6958 12.809 13.4844 12.7792 15.2731C12.7792 16.376 12.6599 17.479 12.1532 18.4628C12.0339 18.7907 11.8551 19.059 11.5868 19.5061ZM20.7683 20.5793V17.9262C20.7683 17.8069 20.6491 17.6877 20.5597 17.6281C19.248 16.376 16.893 16.3164 15.4025 17.4194C15.0746 17.6579 14.8957 17.9262 14.9553 18.3733C14.9851 18.6118 14.9851 18.8503 14.9553 19.059C14.8957 19.4465 15.0448 19.5955 15.4323 19.6254C16.3564 19.7148 17.2507 19.8937 18.145 20.0427C18.9797 20.1918 19.8144 20.3706 20.7683 20.5793ZM14.9851 16.9424C16.9228 16.1674 18.8009 15.7798 20.7385 16.9126C20.7683 15.5414 20.7087 14.3191 20.5 12.9777C19.6057 13.6037 18.6816 13.7826 17.6979 13.8422C16.7141 13.9018 15.8496 13.5143 14.9553 13.0671C14.9851 14.3788 14.9851 15.6308 14.9851 16.9424ZM140.456 12.3218C141.798 11.2487 143.08 10.2351 144.391 9.19177C144.988 9.75817 145.614 10.2948 146.21 10.891C146.419 11.0698 146.538 11.0996 146.746 10.9208C147.074 10.6227 147.432 10.3842 147.79 10.0861C147.909 10.2053 147.998 10.2948 148.088 10.414C147.7 10.9804 147.313 11.517 146.955 12.0536C146.836 12.2324 146.746 12.4709 146.746 12.7094V20.1321C146.746 20.6985 147.074 21.0563 147.492 21.3245C147.581 21.3842 147.849 21.2947 147.998 21.2053C148.237 21.0562 148.416 21.0861 148.535 21.414C147.641 22.1592 146.746 22.8747 145.822 23.6199C144.63 22.9641 143.974 21.9804 143.974 20.6389C143.944 18.1647 143.944 15.6904 143.944 13.2162C143.944 12.7988 143.855 12.4709 143.497 12.2026C143.169 11.9641 142.871 11.666 142.543 11.3977C141.858 11.9045 141.202 12.3815 140.546 12.8882C140.456 12.9479 140.397 13.1267 140.397 13.246V20.4004C140.397 20.5495 140.486 20.6985 140.546 20.8476C140.725 21.1159 140.963 21.3842 141.202 21.6823C140.516 22.3083 139.83 22.9045 139.115 23.5007C139.055 23.5603 138.877 23.5305 138.817 23.5007C138.101 22.9343 137.386 22.3381 136.671 21.7121C136.73 21.6226 136.76 21.5332 136.82 21.4736C137.416 20.9966 137.505 20.3706 137.505 19.6552C137.475 17.4194 137.475 15.1836 137.505 12.9479C137.505 12.3218 137.267 11.8151 136.76 11.4275C136.611 11.517 136.462 11.6064 136.253 11.7555C136.164 11.666 136.074 11.5766 135.955 11.4275C136.79 10.6525 137.565 9.93703 138.37 9.22158C138.429 9.16196 138.638 9.22158 138.757 9.2812C139.711 9.93703 140.337 10.8015 140.397 11.9939C140.367 12.0536 140.397 12.1132 140.456 12.3218ZM127.757 11.1294V20.6687C127.757 21.0264 127.668 21.2053 127.31 21.2947C125.909 21.7121 124.597 22.3977 123.435 23.292C123.256 23.4113 123.137 23.4709 122.928 23.3218C121.408 22.2487 119.709 21.5332 117.89 21.1159C117.83 21.1159 117.801 21.0861 117.681 21.0264C118.427 20.1918 118.457 19.208 118.457 18.1945V11.8151C118.457 11.4872 118.516 11.3083 118.874 11.2189C120.245 10.8015 121.438 10.1159 122.511 9.16196C122.749 8.95329 122.928 8.92348 123.196 9.10234C124.597 10.0861 126.058 10.8313 127.757 11.1294ZM124.836 21.1159V12.8286C124.836 12.7392 124.746 12.5901 124.687 12.5603C123.584 12.143 122.481 11.7256 121.408 11.3083C121.378 11.3679 121.348 11.3977 121.348 11.4275V19.5359C121.348 19.6254 121.438 19.7744 121.497 19.8042C122.57 20.2514 123.643 20.6687 124.836 21.1159ZM42.977 21.6823C42.1721 22.3679 41.3672 23.0535 40.5325 23.7094C40.4431 23.769 40.2344 23.7392 40.1152 23.6796C39.1016 23.0535 38.5352 22.1294 38.4458 20.937C38.4458 20.8178 38.416 20.7283 38.416 20.5495C38.0285 20.8476 37.7006 21.1159 37.3428 21.3842C36.4187 22.1294 35.4648 22.8747 34.5407 23.6497C34.2426 23.8882 34.0637 23.8584 33.7954 23.6199C33.0203 22.8151 32.3049 21.9506 32.0366 20.8476C31.7087 19.4465 32.0366 18.1647 32.8117 17.0021C33.3483 16.1674 34.0339 15.4519 34.6897 14.7067C34.8984 14.4682 34.958 14.3191 34.8388 14.021C34.3916 12.9181 33.9743 11.7853 33.5569 10.7121C34.1829 10.6227 34.809 10.5929 35.3754 10.414C35.8523 10.2649 36.3293 9.96684 36.7466 9.66874C37.0149 9.48988 37.1938 9.43026 37.4919 9.5495C38.5949 9.93703 39.7575 10.2649 40.8604 10.6823C41.3076 10.8313 41.6355 10.8313 41.9634 10.4736C42.0528 10.3842 42.1721 10.3246 42.351 10.2948C42.1721 10.6227 42.023 10.9208 41.8442 11.2487C41.4865 11.9641 41.3076 12.7094 41.3076 13.5143C41.3374 15.8096 41.3076 18.105 41.3374 20.4004C41.3374 20.7283 41.5163 21.0861 41.6951 21.3842C41.8442 21.6525 42.1423 21.7419 42.4702 21.5332C42.6491 21.3245 42.8279 21.3842 42.977 21.6823ZM35.2859 14.8259C33.7656 17.2703 34.2128 19.9831 36.1802 21.6525C36.8957 21.0562 37.6111 20.46 38.2968 19.834C38.3862 19.7744 38.416 19.6254 38.416 19.5359V16.6443C38.416 16.5251 38.3564 16.376 38.2669 16.3462C37.2832 15.8096 36.2995 15.3327 35.2859 14.8259ZM38.416 15.8395V12.8882C38.416 12.5603 38.3266 12.4113 37.9987 12.292C36.7764 11.8747 35.584 11.3977 34.3916 10.9506C34.2724 10.9208 34.1531 10.891 33.9743 10.8313C34.3916 11.9939 34.809 13.0969 35.1965 14.1701C35.2263 14.2297 35.2859 14.3191 35.3754 14.3489C36.3591 14.8557 37.3428 15.3327 38.416 15.8395ZM106.652 21.0562C107.009 21.2947 107.009 21.5034 106.681 21.7419C105.936 22.3381 105.251 22.9939 104.505 23.5901C104.386 23.6796 104.118 23.7094 104.028 23.6497C102.925 22.8151 101.793 22.0698 100.511 21.5332C100.481 21.5332 100.481 21.5034 100.421 21.414C101.226 20.5793 101.196 19.5359 101.196 18.4628V11.3381H100.093C100.153 11.0996 100.183 10.891 100.272 10.7717C101.524 9.16196 102.776 7.58202 104.118 5.91265C104.148 6.12132 104.148 6.24056 104.148 6.3598C104.148 7.34354 104.177 8.35709 104.148 9.34083C104.148 9.66874 104.267 9.75817 104.565 9.75817C105.34 9.72836 106.115 9.75817 106.89 9.75817C107.218 9.75817 107.307 9.87741 107.307 10.1755C107.307 11.3381 107.307 11.3381 106.175 11.3381H104.505C104.237 11.3381 104.148 11.4275 104.148 11.6958V20.0427C104.148 20.1918 104.267 20.4004 104.386 20.5197C104.714 20.8476 105.102 21.1159 105.459 21.4438C105.698 21.6823 105.877 21.6823 106.115 21.4438C106.294 21.2947 106.473 21.1755 106.652 21.0562ZM48.6409 11.8151C49.6843 11.0102 50.6978 10.2351 51.7412 9.46007C52.397 10.1755 53.0528 10.891 53.7385 11.6064C53.0528 12.2026 52.397 12.769 51.7114 13.3652C51.0854 12.769 50.4891 12.1728 49.8631 11.5766C49.5054 11.8449 49.1477 12.1132 48.8198 12.3815C48.7303 12.4411 48.7005 12.62 48.7005 12.7392V20.1918C48.7005 20.3408 48.8198 20.5197 48.939 20.6091C49.2967 20.9072 49.6843 21.1755 50.042 21.4736C50.2805 21.6823 50.4593 21.7121 50.668 21.4736C50.8171 21.3245 51.0257 21.2053 51.2642 21.0562C51.3536 21.1755 51.4431 21.2947 51.5921 21.4736C50.668 22.2785 49.7439 23.0535 48.9092 23.769C47.5677 22.9641 46.2859 22.2188 44.9743 21.414C45.8089 20.6091 45.6897 19.4465 45.6897 18.3435V13.246C45.6897 12.5603 45.481 12.143 44.9444 11.7256C44.6761 11.7853 44.4079 12.2026 44.1396 11.666C44.4973 11.3381 44.8848 11.0102 45.2724 10.6823C45.5705 10.414 45.8984 10.1457 46.1965 9.87741C46.7629 9.37064 46.7629 9.37064 47.3889 9.78798C48.1043 10.2649 48.5217 10.891 48.6409 11.8151ZM116.28 11.3083C115.863 11.9045 115.505 12.4411 115.088 12.9479C115.028 13.0373 114.76 13.0373 114.671 12.9777C113.985 12.62 113.329 12.2324 112.644 11.8449L112.226 11.6362C112.226 11.8151 112.196 11.9343 112.196 12.0834V19.9533C112.196 20.2514 112.286 20.4004 112.554 20.5197C113.21 20.8178 113.866 21.1457 114.522 21.5034C114.79 21.6525 114.999 21.6525 115.267 21.4438C115.565 21.1755 115.893 20.9668 116.221 20.7283C116.34 20.8476 116.4 20.937 116.519 21.0562C115.267 21.9804 114.045 22.8747 112.822 23.769C111.541 22.8747 110.199 22.1592 108.589 21.8015C109.484 20.9072 109.424 19.8042 109.424 18.7311V12.1728C109.424 11.8747 109.513 11.6958 109.782 11.5766C110.915 11.0996 111.928 10.414 112.882 9.60912C113.12 9.40045 113.27 9.37064 113.568 9.5495C114.402 10.1457 115.326 10.7121 116.28 11.3083ZM59.7303 21.3245C58.8658 22.0102 58.0013 22.7256 57.1368 23.4113C57.0474 23.4709 56.8089 23.4411 56.6599 23.3815C55.5867 22.7554 55.0203 21.8611 55.0203 20.5793C55.0501 17.956 55.0501 15.3029 55.0799 12.6796C55.0799 12.1132 54.9607 11.666 54.5135 11.3083C54.3943 11.2189 54.3049 11.0996 54.1856 10.9506C54.9309 10.3246 55.6761 9.72836 56.4512 9.07253C57.1965 9.69855 57.9417 10.2948 58.6572 10.891C58.7168 10.9506 58.687 11.1891 58.6273 11.2487C58.0609 11.666 58.0609 12.2622 58.0609 12.8882C58.0908 15.2731 58.061 17.6579 58.0908 20.0427C58.0908 20.3706 58.2696 20.7283 58.4783 21.0264C58.6572 21.3245 58.9553 21.4736 59.313 21.1755C59.3726 21.1159 59.5813 21.2053 59.7303 21.2053V21.3245ZM55.9742 7.67145C56.2127 6.62809 56.4214 5.67417 56.6599 4.72024C56.6897 4.63081 56.8387 4.51157 56.9282 4.51157C57.5542 4.48176 58.21 4.51157 58.9851 4.51157C58.061 5.61455 57.2263 6.62809 56.3916 7.61183C56.332 7.64164 56.1829 7.64164 55.9742 7.67145ZM30.7548 21.3245C29.8903 22.0102 29.0556 22.6958 28.2209 23.3815C28.1017 23.4709 27.8632 23.4709 27.7141 23.3815C26.5515 22.7256 26.0149 21.7419 26.0447 20.3706C26.1044 17.6281 26.1044 14.8557 26.1044 12.1132C26.1044 11.9343 25.9851 11.7555 25.8659 11.6362C25.687 11.3977 25.4485 11.1891 25.2101 10.9208C25.9851 10.2649 26.7304 9.66874 27.4756 9.04272C28.2507 9.69855 29.0258 10.3246 29.8008 10.9804C29.771 11.04 29.771 11.1294 29.7114 11.1592C29.1152 11.6064 29.0556 12.2324 29.0556 12.9479C29.0854 15.3327 29.0854 17.6877 29.0556 20.0725C29.0556 20.5197 29.2046 20.8178 29.5027 21.1159C29.7412 21.3245 29.9499 21.4438 30.2182 21.1755C30.4567 20.9668 30.6355 21.0264 30.7548 21.3245ZM30.0095 4.51157C29.622 4.98853 29.2941 5.37606 28.996 5.7636C28.519 6.32999 28.0718 6.89639 27.5949 7.43297C27.4756 7.55221 27.3266 7.61183 27.0881 7.76088C27.0881 7.5224 27.0881 7.43297 27.1179 7.34354C27.3266 6.47904 27.5054 5.64436 27.7141 4.77986C27.7439 4.66062 27.893 4.51157 27.9824 4.51157C28.5786 4.48176 29.2046 4.51157 30.0095 4.51157ZM93.6246 11.04C94.34 10.4438 95.0257 9.87741 95.7113 9.31102C95.7709 9.25139 95.9796 9.22158 96.0392 9.2812C96.7546 9.87741 97.4701 10.4736 98.2153 11.0698C98.1557 11.1593 98.1259 11.2487 98.0663 11.3083C97.5297 11.7256 97.4701 12.2622 97.4701 12.8882C97.4999 15.3029 97.4999 17.7175 97.4701 20.1321C97.4701 20.5495 97.6191 20.8774 97.8874 21.1457C98.1259 21.3842 98.3644 21.5034 98.6923 21.2351C98.7817 21.1755 98.9904 21.2351 99.1395 21.2351C99.1395 21.2947 99.1693 21.3245 99.1693 21.3842C98.7519 21.7121 98.3644 22.04 97.9471 22.3679C97.5893 22.666 97.2018 22.9343 96.8739 23.2622C96.5162 23.6199 96.2181 23.5901 95.8603 23.292C94.8766 22.5766 94.4593 21.6226 94.4593 20.4004C94.5189 17.6579 94.4891 14.9153 94.4891 12.2026C94.4891 12.0536 94.3996 11.8747 94.2804 11.7555C94.1015 11.5468 93.8929 11.3083 93.6246 11.04ZM98.424 4.63081C97.9769 5.16739 97.6191 5.58473 97.2912 6.00208C96.8739 6.50885 96.4267 7.04544 96.0094 7.55221C95.8901 7.67145 95.7411 7.73107 95.592 7.8205C95.5622 7.79069 95.5026 7.76088 95.4728 7.73107C95.5324 7.40316 95.6219 7.07525 95.6815 6.71752C95.8305 6.12132 95.9498 5.52511 96.1286 4.92891C96.1584 4.80967 96.3075 4.63081 96.3969 4.63081H98.424Z" fill="#0B0B0B"/>
<path d="M129.516 11.0108C130.291 10.3847 131.006 9.78854 131.781 9.16253C132.556 9.81835 133.331 10.4444 134.106 11.1002C134.047 11.1896 134.047 11.2791 133.987 11.3387C133.48 11.756 133.391 12.2926 133.391 12.9186C133.421 15.3333 133.391 17.7777 133.421 20.2221C133.421 20.55 133.629 20.9078 133.838 21.1761C134.017 21.4443 134.285 21.5636 134.613 21.2953C134.703 21.2357 134.911 21.2953 135.06 21.2953C135.06 21.3549 135.09 21.4145 135.09 21.4742L133.659 22.6368C133.302 22.9349 132.944 23.233 132.556 23.5013C132.437 23.5907 132.169 23.6205 132.02 23.5609C130.947 22.9349 130.35 22.0406 130.35 20.7885C130.38 18.1056 130.38 15.4227 130.41 12.7398C130.41 12.233 130.32 11.8753 129.933 11.5473C129.784 11.3387 129.665 11.1598 129.516 11.0108ZM134.285 4.60156L133.928 5.07853C133.242 5.8834 132.586 6.68828 131.9 7.49316C131.781 7.64221 131.602 7.70183 131.423 7.82107C131.394 7.79126 131.334 7.76145 131.304 7.70183C131.453 7.046 131.602 6.39018 131.751 5.70454C132.02 4.60156 132.02 4.60156 133.152 4.60156H134.285Z" fill="#0B0B0B"/>
<path d="M70.8781 11.5759C70.8781 11.4567 70.729 11.248 70.6098 11.2182C69.0597 10.8903 67.6884 10.145 66.3469 9.31032C66.0786 9.13146 65.8998 9.13146 65.6613 9.34013C64.5881 10.2941 63.3659 11.0095 61.9946 11.4268C61.6965 11.5163 61.6369 11.6653 61.6369 11.9634V18.4919C61.6369 19.4458 61.6071 20.3997 60.832 21.2046C62.7995 21.6518 64.5285 22.3672 66.1084 23.4702C66.1979 23.5298 66.4364 23.5298 66.5258 23.4404C67.748 22.4865 69.1193 21.8008 70.6098 21.3239C70.729 21.294 70.8781 21.0854 70.8781 20.9661C70.9079 17.8659 70.9079 14.706 70.8781 11.5759ZM67.9865 21.0257C67.9865 21.0556 67.9567 21.1152 67.9269 21.2344C66.8239 20.8171 65.7507 20.3997 64.6776 19.9824C64.5881 19.9526 64.4689 19.7737 64.4689 19.6545V11.8144C64.4689 11.725 64.4689 11.6057 64.4987 11.4567C64.7074 11.5163 64.8862 11.5759 65.0949 11.6653C65.9594 11.9932 66.8537 12.3212 67.7182 12.6789C67.8672 12.7385 68.0163 12.9174 68.0163 13.0664C68.0163 15.6897 67.9865 18.3726 67.9865 21.0257Z" fill="#0B0B0B"/>
</svg>
