<svg width="115" height="69" viewBox="0 0 115 69" fill="none" xmlns="http://www.w3.org/2000/svg">
<g clip-path="url(#clip0_3269_3515)">
<path d="M60.0603 16.5232V18.2391C59.8391 18.295 59.7235 18.1539 59.59 18.0764C58.469 17.4193 57.3581 16.7456 56.2294 16.1025C56.1109 16.051 56.0123 15.9625 55.9484 15.8502C55.8844 15.7379 55.8586 15.6079 55.8748 15.4797C55.8964 15.0539 55.8748 14.6256 55.885 14.1998C55.8958 14.1 55.8764 13.9993 55.8292 13.9106C55.7821 13.822 55.7094 13.7496 55.6206 13.7028C54.0369 12.7178 52.4583 11.7226 50.8581 10.7184C50.7234 10.8786 50.7729 11.0451 50.7717 11.1925C50.7717 12.0263 50.7946 12.8614 50.759 13.6926C50.7399 14.1311 50.8784 14.3777 51.2585 14.6129C53.7802 16.1699 56.2854 17.7574 58.7956 19.3334C58.9164 19.4097 59.0371 19.4834 59.1566 19.561C59.7642 19.9512 60.0705 20.5231 60.1404 21.2298C60.1556 21.3912 60.1506 21.5552 60.1506 21.7179V45.8673C60.1605 46.1515 60.1379 46.436 60.0832 46.7151C60.0158 47.0343 59.8746 47.3332 59.6709 47.588C59.4671 47.8428 59.2066 48.0463 58.91 48.1822C58.6134 48.3182 58.2892 48.3827 57.9632 48.3707C57.6372 48.3587 57.3185 48.2705 57.0327 48.1132C56.8713 48.028 56.7201 47.9238 56.565 47.8272C50.5488 44.048 44.528 40.2718 38.5025 36.4986C37.6217 35.9495 37.2162 35.2492 37.2188 34.198C37.2391 26.0881 37.2433 17.9777 37.2315 9.86686C37.2097 9.56322 37.2372 9.25805 37.3128 8.96317C37.4047 8.66606 37.5618 8.39321 37.7725 8.16448C37.9832 7.93575 38.2423 7.75691 38.5309 7.64099C38.8195 7.52506 39.1303 7.47498 39.4407 7.49439C39.7511 7.51379 40.0532 7.60219 40.3251 7.75315C40.6467 7.92474 40.9492 8.13446 41.2581 8.32638C42.824 9.30931 44.3894 10.2914 45.9545 11.2726C46.1197 11.3768 46.2939 11.4671 46.4756 11.5713C46.5862 11.3362 46.543 11.1341 46.543 10.9358C46.5481 9.67494 46.5481 8.41451 46.543 7.1545C46.5297 6.78823 46.5867 6.42282 46.7108 6.07795C46.8216 5.79287 46.994 5.5358 47.2158 5.32514C47.4375 5.11448 47.7031 4.95543 47.9934 4.85936C48.2838 4.7633 48.5918 4.7326 48.8955 4.76945C49.1991 4.80631 49.4908 4.90982 49.7498 5.07257C51.0907 5.87712 52.4049 6.7249 53.7293 7.55487L55.8812 8.90343V8.28444C55.8812 6.23174 55.8723 4.17904 55.8812 2.12507C55.8875 0.988771 56.6438 0.147354 57.7559 0.0126261C58.305 -0.0521961 58.7893 0.139728 59.2494 0.424437C60.9653 1.50989 62.6888 2.58518 64.4085 3.66427C68.7592 6.39697 73.101 9.14238 77.4657 11.8522C78.3923 12.428 78.8054 13.1677 78.8028 14.2557C78.7833 22.3055 78.7799 30.3553 78.7926 38.4051C78.8025 38.6689 78.7851 38.933 78.7405 39.1932C78.6802 39.5139 78.5456 39.816 78.3474 40.0752C78.1492 40.3344 77.893 40.5436 77.5993 40.6858C77.3056 40.8281 76.9827 40.8995 76.6564 40.8944C76.3301 40.8892 76.0096 40.8076 75.7206 40.6561C75.4499 40.5176 75.1982 40.3422 74.9402 40.1808C73.309 39.1529 71.6762 38.1264 70.0417 37.1011C69.8764 36.9968 69.7023 36.9091 69.4608 36.7731V37.4404C69.4608 39.4321 69.4481 41.4251 69.4608 43.4142C69.4684 44.29 69.138 44.9623 68.3715 45.3767C67.6318 45.7771 66.887 45.7161 66.1752 45.2687C64.6957 44.3395 63.2213 43.4053 61.7342 42.4877C61.6188 42.4295 61.5239 42.3374 61.4621 42.2239C61.4004 42.1104 61.3747 41.9807 61.3885 41.8521C61.4025 40.454 61.3949 39.047 61.3962 37.6451C61.3962 37.5688 61.4101 37.4925 61.4254 37.326L65.1482 39.6558C65.3465 39.5224 65.2753 39.366 65.2753 39.2364C65.2753 37.6921 65.2664 36.1465 65.2893 34.6022C65.2893 34.2209 65.152 34.0226 64.8432 33.8396C63.8187 33.2194 62.8095 32.5686 61.7927 31.9331C61.5881 31.806 61.461 31.6789 61.4635 31.412C61.4775 29.949 61.4711 28.4886 61.4737 27.0219C61.4863 26.9477 61.5072 26.8752 61.536 26.8058L65.1851 29.0936C65.3249 28.9182 65.2753 28.7733 65.2753 28.6399C65.2753 25.8551 65.2753 23.0702 65.2868 20.2854C65.3019 20.1284 65.2693 19.9704 65.1934 19.8321C65.1174 19.6939 65.0016 19.5816 64.861 19.5101C63.4056 18.6204 61.9656 17.7065 60.5191 16.8016C60.4048 16.7139 60.2827 16.6503 60.0603 16.5232ZM60.0603 6.00041C60.0603 7.68198 60.073 9.32668 60.0514 10.9714C60.0451 11.3832 60.1671 11.6171 60.528 11.8408C63.1019 13.4308 65.6503 15.0615 68.2254 16.6503C69.0884 17.1829 69.4811 17.8794 69.4735 18.9064C69.4443 22.9914 69.4735 27.0765 69.4481 31.1616C69.4481 31.6331 69.5968 31.8835 69.9895 32.1199C71.38 32.9601 72.7451 33.8409 74.1242 34.7001C74.2513 34.7802 74.3644 34.9302 74.583 34.8679V34.3175C74.583 28.0777 74.5868 21.8386 74.5945 15.6004C74.5945 15.1543 74.4521 14.9204 74.086 14.6891C69.59 11.8844 65.0991 9.06909 60.6132 6.24318C60.462 6.15421 60.3272 6.02075 60.059 5.99406L60.0603 6.00041ZM54.6991 38.0531C54.0204 37.6285 53.4357 37.2714 52.8612 36.899C52.6412 36.7562 52.3883 36.6722 52.1266 36.6549C49.4892 36.4211 47.3679 35.2339 45.7944 33.1113C44.5536 31.4293 43.9186 29.377 43.9927 27.2882C44.0668 25.1994 44.8456 23.1972 46.2023 21.6073C46.319 21.4845 46.4101 21.3399 46.4705 21.1818C46.531 21.0236 46.5595 20.855 46.5544 20.6858C46.5299 19.508 46.5299 18.3293 46.5544 17.1498C46.562 16.7685 46.4604 16.527 46.1134 16.3173C44.6898 15.4556 43.2892 14.5557 41.8771 13.6761C41.75 13.5948 41.6343 13.4461 41.4258 13.5083C41.4258 13.5821 41.4093 13.6596 41.4093 13.7359C41.4093 20.1367 41.4055 26.5372 41.3979 32.9372C41.3979 33.288 41.5504 33.4456 41.8046 33.5994C46.3803 36.466 50.956 39.3342 55.5317 42.2042C55.641 42.2729 55.7376 42.4101 55.9041 42.3313V36.097C55.5901 36.191 55.3041 36.2851 55.0143 36.3613C54.7919 36.4211 54.675 36.5215 54.6902 36.7795C54.7106 37.1608 54.6991 37.5472 54.6991 38.0531Z" fill="#0B0B0B"/>
<path d="M79.8021 61.2182C79.8898 59.0574 80.7935 57.3441 82.6975 56.251C85.0057 54.9253 87.9214 55.5329 89.6068 57.6428C91.5387 60.0577 91.1955 63.6725 88.8124 65.6502C85.5611 68.3448 80.8113 66.5628 79.9305 62.4358C79.8357 62.0371 79.7925 61.6279 79.8021 61.2182Z" fill="#0B0B0B"/>
<path d="M55.8801 68.5899H53.5109C53.2707 68.5899 53.1664 68.3954 53.0381 68.2455C52.1115 67.1676 51.176 66.0962 50.2698 65.0005C50.1688 64.8651 50.0349 64.7576 49.8807 64.6884C49.7266 64.6193 49.5573 64.5906 49.3889 64.6053C48.2107 64.6294 47.0325 64.6167 45.8542 64.6129C45.4234 64.6129 45.4195 64.604 45.4145 64.1858C45.4094 63.7677 45.4081 63.333 45.4145 62.9059C45.4145 62.4496 45.4234 62.442 45.8898 62.4407C47.9006 62.4407 49.9118 62.4407 51.9234 62.4407C52.1265 62.4473 52.3298 62.4418 52.5322 62.4242C52.7452 62.401 52.9428 62.3018 53.0885 62.1446C53.2342 61.9874 53.3183 61.783 53.3253 61.5688C53.3275 61.3431 53.2421 61.1253 53.0871 60.9613C52.9321 60.7973 52.7195 60.6998 52.4941 60.6892C51.8446 60.6664 51.1938 60.6816 50.543 60.6816C49.2237 60.6816 47.9031 60.6816 46.5825 60.6816C46.1466 60.6816 46.1415 60.6714 46.1351 60.2507C46.1288 59.7843 46.144 59.3165 46.1351 58.8526C46.1275 58.5984 46.2025 58.4866 46.4758 58.4967C46.9626 58.5133 47.4506 58.4967 47.9387 58.4967C49.4423 58.4967 50.9459 58.5183 52.4483 58.4967C53.8718 58.4713 55.0717 59.5352 55.3983 60.7134C55.5867 61.3743 55.5491 62.0791 55.2914 62.7162C55.0338 63.3533 54.5709 63.8861 53.9761 64.2303C53.5265 64.4842 53.0227 64.6267 52.5068 64.6459L55.8801 68.5899Z" fill="#0B0B0B"/>
<path d="M13.6687 58.4944C13.7882 58.7257 13.7424 58.9329 13.7424 59.1299C13.7475 60.5518 13.7475 61.9736 13.7424 63.3955C13.7424 64.3411 14.0614 65.1469 14.8075 65.7494C15.6896 66.4637 16.6886 66.6112 17.722 66.1777C18.7273 65.7545 19.3743 64.9792 19.4506 63.8645C19.5167 62.9557 19.4849 62.0393 19.4912 61.1254C19.4912 60.3743 19.5027 59.6218 19.4912 58.8706C19.4912 58.5783 19.584 58.4766 19.8725 58.4893C20.3593 58.5084 20.8474 58.5046 21.3342 58.4893C21.5681 58.483 21.6685 58.5567 21.6571 58.7969C21.6456 59.0371 21.6571 59.2837 21.6571 59.5278C21.6571 60.889 21.6215 62.2503 21.6647 63.6103C21.746 66.1879 19.3235 68.8761 16.0951 68.5673C13.8352 68.3512 11.6261 66.2934 11.5969 63.8276C11.5766 62.1626 11.5791 60.4975 11.5664 58.8325C11.5664 58.619 11.6096 58.4868 11.8664 58.4919C12.4726 58.502 13.0802 58.4944 13.6687 58.4944Z" fill="#0B0B0B"/>
<path d="M43.9732 61.4338C43.9732 62.1659 43.9605 62.8968 43.9732 63.6289C44.0253 66.1277 41.8645 68.38 39.3581 68.5757C36.8961 68.7676 34.5384 67.0988 34.0045 64.6444C33.928 64.2679 33.8896 63.8847 33.8902 63.5005C33.8774 61.9969 33.8838 60.4933 33.8902 58.9896C33.8902 58.5041 33.8978 58.5028 34.3986 58.4978C34.7239 58.4978 35.0481 58.4978 35.3734 58.4978C36.136 58.5079 36.0649 58.3846 36.0661 59.1625C36.0661 60.5441 36.0661 61.9257 36.0661 63.3073C36.0652 63.5507 36.0835 63.7938 36.1208 64.0343C36.2405 64.7317 36.6142 65.36 37.1697 65.7982C37.7252 66.2363 38.4233 66.4533 39.1293 66.4073C39.8361 66.364 40.501 66.0571 40.9925 65.5474C41.4841 65.0377 41.7667 64.3622 41.7845 63.6543C41.8073 62.1113 41.7845 60.567 41.7908 59.0227C41.7908 58.5028 41.7972 58.5016 42.3285 58.4978C42.7555 58.4978 43.1839 58.5156 43.6084 58.4978C43.916 58.48 43.9833 58.6058 43.9783 58.8867C43.9643 59.7281 43.9732 60.581 43.9732 61.4338Z" fill="#0B0B0B"/>
<path d="M98.1117 60.7375C98.0463 60.97 98.0251 61.2128 98.0494 61.4531C98.0494 63.7485 98.0494 66.0444 98.0494 68.3408C98.0494 68.928 98.1257 68.8911 97.4902 68.8949C97.3898 68.8949 97.2868 68.8949 97.1864 68.8949C96.9983 68.9051 96.9322 68.8047 96.9436 68.6407C96.9436 68.5136 96.9436 68.3967 96.9436 68.2747V59.2504C96.9395 59.2081 96.9395 59.1656 96.9436 59.1233C96.9805 58.939 96.8343 58.7013 97.0809 58.578C97.2868 58.4751 97.8435 58.5691 97.9871 58.7369C98.324 59.1449 98.6468 59.5631 98.9747 59.9762L103.939 66.2283C104.074 66.3974 104.218 66.5588 104.393 66.766C104.529 66.5118 104.478 66.283 104.478 66.0733C104.478 63.7562 104.478 61.4404 104.487 59.1233C104.487 58.9403 104.36 58.6708 104.623 58.5882C104.9 58.5202 105.19 58.5202 105.467 58.5882C105.557 58.6047 105.564 58.7051 105.566 58.7865C105.566 58.9072 105.566 59.0292 105.566 59.1513C105.566 62.2195 105.564 65.2878 105.559 68.356C105.559 68.5327 105.706 68.8352 105.432 68.8708C105.135 68.9089 104.779 69.0436 104.521 68.7284C104.445 68.6344 104.37 68.5378 104.294 68.4424C102.403 66.0538 100.51 63.6659 98.6163 61.279C98.4778 61.1048 98.3685 60.9065 98.1117 60.7375Z" fill="#0B0B0B"/>
<path d="M28.8677 63.5709V68.0194C28.8677 68.5711 28.9199 68.5672 28.3593 68.5647C27.9323 68.5647 27.5052 68.5507 27.0781 68.5647C26.7909 68.5761 26.6765 68.4808 26.6892 68.1834C26.7083 67.7169 26.6892 67.2492 26.6892 66.7853C26.6892 64.9762 26.6892 63.1675 26.6892 61.3593C26.6892 60.5801 26.7731 60.664 26.0207 60.6628C25.2072 60.6628 24.395 60.6729 23.5816 60.6767C23.1062 60.6767 23.1024 60.6767 23.096 60.2204C23.096 59.8391 23.096 59.4489 23.096 59.0625C23.096 58.4804 23.0274 58.4906 23.6426 58.4906H27.3006C27.6819 58.4906 28.0746 58.5147 28.4585 58.4817C28.7813 58.4524 28.8817 58.544 28.8754 58.8744C28.8563 60.012 28.869 61.1508 28.869 62.2884L28.8677 63.5709Z" fill="#0B0B0B"/>
<path d="M4.39886 62.4408C5.69784 62.4408 6.9981 62.4497 8.29835 62.4408C8.60975 62.4408 8.73686 62.5247 8.72033 62.8501C8.69873 63.2962 8.72033 63.7398 8.72033 64.1898C8.72033 64.6105 8.71144 64.6181 8.28437 64.6194C6.53799 64.6194 4.79118 64.6194 3.04395 64.6194C2.24701 64.6194 2.24701 64.6194 2.24701 65.4252C2.24701 66.3149 2.24701 67.2123 2.24701 68.1071C2.24701 68.5837 2.23939 68.5888 1.79326 68.5951C1.34713 68.6015 0.903544 68.585 0.452331 68.5951C0.173977 68.6053 0.046875 68.5303 0.046875 68.2227C0.0587379 66.4153 0.0587379 64.6075 0.046875 62.7993C0.046875 62.5006 0.15237 62.418 0.437079 62.418C1.75767 62.4294 3.07826 62.418 4.39886 62.418V62.4408Z" fill="#0B0B0B"/>
<path d="M77.978 60.7311C75.8388 58.7661 72.9333 59.3774 71.6114 60.8238C70.1523 62.4228 70.1269 65.0081 71.5847 66.6121C73.19 68.3788 75.7511 68.4627 77.917 66.8015L78.522 67.4776C77.9297 68.511 75.4931 69.4668 73.0972 68.7563C72.075 68.4596 71.1706 67.8516 70.5099 67.0169C69.8493 66.1822 69.4653 65.1624 69.4113 64.0993C69.2651 61.303 70.9365 59.5236 72.6981 58.8563C74.6695 58.1077 77.4149 58.5055 78.5639 60.0104L78.4203 60.1871L77.978 60.7311Z" fill="#0B0B0B"/>
<path d="M5.07334 60.6787C3.57184 60.6787 2.07034 60.6787 0.568838 60.6787C0.0604294 60.6787 0.0604294 60.6787 0.0515323 60.1932C0.0515323 59.8119 0.0515323 59.4217 0.0515323 59.0353C0.0515323 58.4595 0.00577546 58.4925 0.628577 58.4925H9.57785C10.2312 58.4925 10.1523 58.4633 10.1562 59.095C10.1562 59.4598 10.1562 59.8258 10.1562 60.1906C10.1562 60.6723 10.1485 60.6774 9.6414 60.6787C8.11956 60.6804 6.59688 60.6804 5.07334 60.6787Z" fill="#0B0B0B"/>
<path d="M61.9727 58.492C63.498 58.492 65.0194 58.492 66.537 58.492C67.0047 58.492 67.0085 58.4996 67.0136 58.9458C67.0136 59.3512 67.0136 59.7579 67.0136 60.1634C67.0136 60.6718 67.0136 60.6718 66.4658 60.6718H60.989C59.7917 60.6718 58.5944 60.6718 57.3983 60.6718C56.9255 60.6718 56.9204 60.6629 56.9141 60.2104C56.9141 59.805 56.9141 59.3995 56.9141 58.9928C56.9141 58.4945 56.9141 58.4844 57.4085 58.4844C58.727 58.4844 60.0454 58.4844 61.3639 58.4844L61.9727 58.492Z" fill="#0B0B0B"/>
<path d="M61.251 64.6119C59.9533 64.6119 58.6543 64.6119 57.3566 64.6119C56.9231 64.6119 56.9193 64.6018 56.913 64.1823C56.9066 63.7629 56.913 63.3307 56.913 62.905C56.913 62.4347 56.9219 62.4271 57.3744 62.4258C59.3233 62.4258 61.2722 62.4258 63.2211 62.4258C63.8909 62.4258 64.5607 62.4423 65.2293 62.4321C65.4835 62.4321 65.5928 62.5109 65.5864 62.7766C65.5725 63.2634 65.5674 63.7515 65.5864 64.237C65.5992 64.5293 65.5051 64.6183 65.2051 64.6183C63.8884 64.603 62.569 64.6119 61.251 64.6119Z" fill="#0B0B0B"/>
<path d="M65.5773 66.4502C65.5773 67.0857 65.5773 67.7149 65.5773 68.3415C65.5773 68.5233 65.4858 68.5957 65.3117 68.5881C65.1846 68.5881 65.0676 68.5881 64.9456 68.5881H57.5737C57.4466 68.5881 57.3296 68.5881 57.2076 68.5881C57.0106 68.5881 56.9077 68.5144 56.9102 68.3034C56.9153 67.7746 56.9153 67.2467 56.9102 66.7197C56.9102 66.5214 56.9738 66.4096 57.1873 66.4185C57.2686 66.4185 57.35 66.4185 57.43 66.4185C60.0085 66.4185 62.587 66.4185 65.1655 66.4185C65.2888 66.421 65.4083 66.4375 65.5773 66.4502Z" fill="#0B0B0B"/>
<path d="M93.5943 63.784C93.5943 65.3261 93.5943 66.8687 93.5943 68.4118C93.5943 68.882 93.5879 68.882 93.1418 68.8909H92.9587C92.5025 68.882 92.4961 68.882 92.4961 68.4232C92.4961 65.2965 92.4961 62.1698 92.4961 59.043C92.4961 58.5588 92.5037 58.5575 93.0045 58.5537C93.0858 58.5537 93.1672 58.5601 93.2473 58.5537C93.5155 58.5296 93.5968 58.6554 93.5943 58.9121C93.5828 59.7853 93.5943 60.6585 93.5943 61.5317V63.784Z" fill="#0B0B0B"/>
<path d="M114.066 60.3219C114.066 60.0245 114.075 59.7055 114.066 59.3877C114.057 59.1564 114.138 59.0445 114.38 59.07C114.481 59.0788 114.583 59.0788 114.685 59.07C114.897 59.0534 114.963 59.1538 114.961 59.3585C114.952 59.9673 114.961 60.5748 114.961 61.1837C114.961 61.7315 114.961 62.2793 114.961 62.8258C114.961 63.2643 114.951 63.2389 114.54 63.2732C114.302 63.2936 114.143 63.0864 113.976 63.1004C113.774 63.1169 113.58 63.2745 113.349 63.291C112.714 63.3355 112.189 63.141 111.858 62.5627C111.704 62.2756 111.634 61.9506 111.656 61.6254C111.679 61.3002 111.793 60.988 111.985 60.7248C112.349 60.2596 113.011 60.0664 113.638 60.2368C113.756 60.2723 113.859 60.4109 114.066 60.3219ZM113.327 62.5538C113.78 62.5538 114.09 62.2068 114.075 61.7175C114.06 61.2281 113.744 60.9079 113.283 60.9269C112.853 60.946 112.566 61.2676 112.562 61.734C112.557 62.2234 112.871 62.5589 113.327 62.5538Z" fill="#0B0B0B"/>
<path d="M29.5703 58.5039H32.4771C32.4771 59.147 32.4771 59.7851 32.4771 60.4219C32.4771 60.6087 32.3627 60.6608 32.2013 60.6596H29.8309C29.6618 60.6596 29.569 60.5871 29.5767 60.4054C29.5729 59.7813 29.5703 59.1559 29.5703 58.5039Z" fill="#0B0B0B"/>
<path d="M46.1365 66.4062H48.0507C48.2223 66.4062 48.3049 66.4723 48.3049 66.6605C48.3049 67.2057 48.3049 67.7523 48.3049 68.2975C48.3049 68.4971 48.2274 68.595 48.0202 68.5937C47.4749 68.5937 46.9284 68.5937 46.3831 68.5937C46.2039 68.5937 46.1289 68.5047 46.1289 68.3319C46.1378 67.7027 46.1365 67.0773 46.1365 66.4062Z" fill="#0B0B0B"/>
<path d="M111.054 61.784C111.054 62.1653 111.034 62.5542 111.054 62.9368C111.077 63.2876 110.868 63.2724 110.632 63.2673C110.397 63.2622 110.149 63.3194 110.165 62.9165C110.193 62.1284 110.186 61.3379 110.165 60.5486C110.153 60.138 110.427 60.241 110.652 60.2206C110.913 60.1952 111.074 60.2435 111.053 60.5702C111.034 60.9731 111.054 61.3785 111.054 61.784Z" fill="#0B0B0B"/>
<path d="M109.046 63.2988C108.971 63.3013 108.896 63.2883 108.827 63.2606C108.757 63.2329 108.693 63.1911 108.64 63.1378C108.587 63.0845 108.545 63.0208 108.518 62.9508C108.491 62.8807 108.478 62.8058 108.481 62.7306C108.492 62.5899 108.554 62.458 108.655 62.3595C108.757 62.2611 108.89 62.2028 109.031 62.1955C109.107 62.1934 109.182 62.2071 109.252 62.2358C109.322 62.2645 109.385 62.3076 109.437 62.3622C109.489 62.4168 109.529 62.4818 109.555 62.5529C109.581 62.624 109.591 62.6997 109.585 62.7751C109.586 62.8455 109.573 62.9154 109.546 62.9804C109.519 63.0454 109.479 63.1043 109.429 63.1533C109.379 63.2024 109.319 63.2406 109.253 63.2656C109.187 63.2906 109.117 63.3019 109.046 63.2988Z" fill="#0B0B0B"/>
<path d="M110.626 58.8321C110.971 58.8321 111.176 59.0278 111.16 59.3405C111.151 59.472 111.092 59.5951 110.995 59.6847C110.899 59.7743 110.771 59.8234 110.64 59.8222C110.57 59.8274 110.499 59.8187 110.432 59.7967C110.366 59.7746 110.304 59.7397 110.251 59.6937C110.197 59.6478 110.154 59.5919 110.122 59.5291C110.091 59.4663 110.072 59.3979 110.066 59.3278C110.063 59.0354 110.294 58.8295 110.626 58.8321Z" fill="#0B0B0B"/>
</g>
<defs>
<clipPath id="clip0_3269_3515">
<rect width="114.913" height="69" fill="white" transform="translate(0.0429688)"/>
</clipPath>
</defs>
</svg>
