<svg width="115" height="39" viewBox="0 0 115 39" fill="none" xmlns="http://www.w3.org/2000/svg">
<path d="M17.5936 0.18832C11.2745 0.719631 5.69417 4.50965 2.64828 10.3344C1.60646 12.3298 0.860145 14.7462 0.587378 17.0289C0.397957 18.5992 0.397957 20.3703 0.587378 21.9484C1.22383 27.2576 4.00453 32.0906 8.25514 35.2588C10.0509 36.6008 12.1686 37.632 14.3166 38.2184C16.6238 38.8481 19.109 39.0134 21.5146 38.6906C27.5155 37.8956 32.8761 33.9718 35.6492 28.3439C36.7971 26.0179 37.426 23.7313 37.6571 21.0433C37.7253 20.264 37.7139 18.5638 37.6381 17.7373C37.2063 13.0775 35.312 8.9333 32.1336 5.69034C28.9664 2.45525 25.0038 0.581886 20.5107 0.184387C19.9879 0.141094 18.1505 0.141094 17.5936 0.18832ZM16.6844 5.97764C15.7183 8.99627 12.1951 20.2443 12.1951 20.3073C12.1951 20.3506 12.2216 20.4214 12.2595 20.4608C12.3163 20.5277 12.4527 20.5316 15.0326 20.5316C17.9611 20.5316 17.8474 20.5237 17.9573 20.7323C17.9876 20.7953 17.6542 21.9366 16.1692 26.8601C15.1652 30.1857 14.3318 32.9249 14.3166 32.9407C14.2787 32.984 13.5665 32.6809 12.9414 32.3543C11.5283 31.6222 10.4524 30.8154 9.31211 29.6269C8.18316 28.4541 7.39896 27.3324 6.71704 25.9195C6.00482 24.4397 5.56157 22.9166 5.34942 21.2204C5.26608 20.5277 5.25471 18.5795 5.33048 17.9144C5.65629 15.1398 6.65643 12.6446 8.29303 10.5154C8.7931 9.86605 9.80082 8.81523 10.4145 8.30754C11.6988 7.24492 13.0778 6.45385 14.5818 5.91074C15.2372 5.6746 16.4874 5.35188 16.7677 5.344L16.8852 5.34007L16.6844 5.97764ZM24.1779 6.15081C25.1932 6.56799 26.3562 7.23311 27.2162 7.89429C28.114 8.58303 29.1634 9.61417 29.815 10.4564C31.516 12.6485 32.5351 15.2185 32.8268 18.064C32.9102 18.8905 32.8799 20.6733 32.77 21.4368C32.5616 22.8851 32.2699 23.9635 31.7547 25.1953C30.3719 28.521 27.7655 31.2287 24.5719 32.6652C23.3785 33.2004 22.3405 33.5035 20.9464 33.7199C20.3743 33.8105 18.4839 33.8656 18.0179 33.8065L17.7641 33.775L20.0977 29.3081C21.382 26.8522 23.4694 22.8536 24.7386 20.4254C26.0077 17.9971 27.0457 15.9702 27.0457 15.9269C27.0457 15.8836 27.0116 15.8128 26.9699 15.7695C26.8942 15.6908 26.8449 15.6908 23.7308 15.6908C21.4957 15.6908 20.5448 15.679 20.4804 15.6475C20.4273 15.6239 20.3629 15.5609 20.3364 15.5097C20.2947 15.4232 20.4387 14.9824 21.9503 10.6729C22.8633 8.06353 23.6172 5.93041 23.6248 5.93041C23.6323 5.93041 23.8824 6.0288 24.1779 6.15081Z" fill="#0B0B0B"/>
<path d="M54.342 4.51457C53.0198 4.66412 52.0576 5.52996 51.7848 6.81691C51.728 7.07667 51.728 7.73785 51.7848 8.05664C52.0311 9.48134 53.0729 10.4141 54.5314 10.5164C55.7172 10.603 56.812 9.88277 57.2515 8.72176C57.4258 8.26523 57.4788 7.96218 57.4788 7.40726C57.475 6.96647 57.4637 6.84446 57.3765 6.54142C56.9825 5.17182 55.7589 4.35321 54.342 4.51457Z" fill="#0B0B0B"/>
<path d="M62.7305 18.336C62.7305 24.1961 62.7456 27.809 62.7684 28.1082C63.0676 31.8116 64.405 33.7951 66.9811 34.3422C68.3904 34.6452 70.2505 34.5036 71.728 33.988C72.4099 33.7479 73.5502 33.1064 74.02 32.701L74.1488 32.5869L73.4365 30.7017C73.0463 29.6667 72.713 28.8008 72.694 28.7851C72.6789 28.7654 72.5235 28.8481 72.3493 28.9661C71.6711 29.4266 71.0536 29.6863 70.3755 29.8044C69.2125 30.0051 68.3942 29.6273 67.9433 28.671C67.5342 27.8169 67.4963 27.262 67.5115 22.5196L67.5228 19.1743L70.5649 19.1625L73.6032 19.1546V16.8129V14.4712L70.5649 14.4633L67.5228 14.4515L67.5115 11.7438L67.5039 9.04H65.1172H62.7305V18.336Z" fill="#0B0B0B"/>
<path d="M85.1589 14.0399C84.5338 14.099 83.9845 14.1974 83.4352 14.339C81.1242 14.9412 79.2755 16.299 77.9533 18.3652C77.082 19.7269 76.5781 21.1949 76.3849 22.9305C76.3016 23.7177 76.3281 25.3943 76.438 26.1381C76.7259 28.0469 77.3244 29.5385 78.3284 30.849C79.5407 32.4351 81.3781 33.6433 83.367 34.1589C84.3292 34.4108 84.9581 34.4934 86.106 34.5289C88.3336 34.5918 90.2771 34.1825 91.9553 33.2931C92.5653 32.9664 93.645 32.2029 93.645 32.0927C93.645 32.0533 92.3228 28.6687 92.2963 28.6372C92.2849 28.6293 92.2546 28.6372 92.2243 28.6569C91.1749 29.4243 90.4286 29.7943 89.4019 30.0698C88.5306 30.2981 88.1404 30.3453 87.0531 30.3492C85.9658 30.3492 85.6211 30.3059 84.8634 30.0698C82.9919 29.4834 81.7266 28.0784 81.3515 26.1814C81.3174 26.0082 81.2985 25.8468 81.3099 25.8154C81.325 25.7721 82.4994 25.7642 88.129 25.7642H94.9254L94.9671 25.6343C95.0353 25.4139 95.1149 24.9338 95.1603 24.4851C95.2247 23.8436 95.2172 22.4189 95.1452 21.8089C94.9406 20.1441 94.3686 18.6997 93.4177 17.46C93.0843 17.0271 92.319 16.2518 91.872 15.8936C90.6976 14.9569 89.2959 14.3469 87.735 14.095C87.2653 14.0163 85.7044 13.9848 85.1589 14.0399ZM87.1857 18.2668C88.0949 18.4793 88.8147 18.8847 89.3678 19.4987C89.7921 19.9631 90.0687 20.4747 90.2505 21.1359C90.349 21.4822 90.4513 22.289 90.4096 22.3992C90.3907 22.4504 89.8755 22.4583 85.7613 22.4583H81.1318L81.1583 22.289C81.2303 21.7971 81.5258 20.9785 81.8289 20.4314C82.507 19.1956 83.6776 18.4203 85.1665 18.2117C85.5756 18.1566 86.8637 18.1881 87.1857 18.2668Z" fill="#0B0B0B"/>
<path d="M52.2383 24.2706V34.0703H54.6439H57.0496V24.2706V14.4708H54.6439H52.2383V24.2706Z" fill="#0B0B0B"/>
<path d="M98.23 16.8126V19.1543L103.03 19.1621L107.826 19.1739L102.708 24.8216L97.5859 30.4653V32.2678V34.0703H105.977H114.369V31.7483V29.4263L109.349 29.4184L104.333 29.4066L106.557 26.9429C110.512 22.5665 112.702 20.1421 113.641 19.1031L114.558 18.0877V16.2773V14.4708H106.394H98.23V16.8126Z" fill="#0B0B0B"/>
</svg>
