<svg width="143" height="43" viewBox="0 0 143 43" fill="none" xmlns="http://www.w3.org/2000/svg">
<g clip-path="url(#clip0_3357_4423)">
<path d="M34.4716 0.5H14.9015C6.72547 0.5 0.0976562 7.15974 0.0976562 15.3744V27.627C0.0976562 35.8425 6.72547 42.5014 14.9006 42.5014H34.4724C42.6476 42.5014 49.2754 35.8416 49.2754 27.627V15.3744C49.2754 7.1589 42.6476 0.5 34.4724 0.5H34.4716Z" fill="#0B0B0B"/>
<path d="M24.8576 25.9167C24.8888 25.9706 24.9349 26.0143 24.9903 26.0425C25.0458 26.0707 25.1083 26.0822 25.1701 26.0756C25.232 26.069 25.2907 26.0446 25.339 26.0054C25.3873 25.9662 25.4231 25.9138 25.4423 25.8546L26.3302 23.0842C26.8208 21.5545 27.313 20.0223 27.6994 18.4581C28.1556 16.532 28.4571 14.5461 29.2266 12.725C29.4283 12.159 29.7668 11.6517 30.212 11.2482C30.8764 10.7114 31.7845 10.6198 32.6363 10.5904C33.3923 10.5627 34.145 10.5904 34.9001 10.5904C35.9863 10.6156 37.0548 10.5056 38.1342 10.7072C38.3539 10.7447 38.5597 10.8398 38.7307 10.9827C39.3943 11.5489 38.9382 12.3125 38.3527 12.5738C37.8965 12.7737 37.3765 12.7208 36.8927 12.8148C36.3357 12.9249 36.1232 13.3441 36.0863 13.8876C35.9687 15.5735 36.1392 17.2779 36.2946 18.9563C36.4198 20.3423 36.5483 21.7284 36.681 23.1144C36.833 24.7189 36.9977 26.3107 37.2808 27.8883C37.3471 28.2554 37.4589 28.6754 37.7966 28.8291C37.9982 28.893 38.209 28.9173 38.4199 28.8997C38.7939 28.9089 39.1577 29.0244 39.4686 29.2326C39.7794 29.4409 40.0246 29.7333 40.1755 30.0757C40.3119 30.4252 40.3249 30.8109 40.2123 31.1687C40.0997 31.5266 39.8683 31.8354 39.5564 32.0439C39.0994 32.3127 38.5517 32.3169 38.0276 32.3127L32.3372 32.2758C32.1754 32.2865 32.0134 32.2589 31.8643 32.1951C31.5636 32.0389 31.4947 31.6424 31.4611 31.3005C31.412 30.9832 31.412 30.6602 31.4611 30.3428C31.7232 29.1727 33.2159 28.6662 33.6174 27.5372C33.798 27.0289 33.7266 26.4686 33.6594 25.9327C33.1747 22.1576 33.3461 18.3069 32.68 14.5554C32.63 14.1335 32.4587 13.7352 32.1869 13.4087C31.7139 12.9182 30.9881 13.0971 30.6597 13.6523C30.2027 14.4319 30.1809 15.4038 29.9885 16.2682C29.7785 17.2132 29.5609 18.1574 29.3358 19.1008C28.8799 20.9837 28.3991 22.8605 27.8935 24.7306C27.6877 25.4783 27.4785 26.2242 27.266 26.9693C27.0688 27.555 26.9482 28.1637 26.9073 28.7804C26.9073 29.2256 26.9686 29.6977 26.8065 30.1076C26.1227 31.844 23.7572 30.7041 23.0826 29.5742C22.8051 29.0456 22.5941 28.4847 22.4543 27.9043C21.6899 25.3548 20.4508 22.9808 19.3235 20.5658C19.0773 20.0575 18.8547 19.5381 18.6565 19.0092C18.3986 18.2885 18.2206 17.5408 17.9879 16.8142C17.8417 16.3556 17.7023 15.8969 17.5502 15.4517C17.4519 15.0336 17.2982 14.6304 17.0932 14.253C16.7623 13.7573 16.8648 14.8653 16.8648 14.9838V16.1304L16.8816 18.401C16.8624 19.552 16.9385 20.7025 17.1092 21.8409C17.273 22.5314 17.3923 23.2312 17.4654 23.9368C17.4839 24.2997 17.4654 24.6643 17.4654 25.0288C17.4755 25.5371 17.5208 26.0428 17.6023 26.5442C17.7073 27.0147 17.924 27.7144 17.751 28.189C17.5586 28.7258 16.9286 28.7602 16.4153 28.8216C15.7307 28.9047 15.0024 28.7233 14.3296 28.9207C14.212 28.9692 14.0843 28.9881 13.9577 28.9756C13.8312 28.9632 13.7096 28.9198 13.6038 28.8493C13.2636 28.5578 13.3753 27.6548 13.3938 27.2599C13.403 26.7585 13.461 26.2603 13.5668 25.7697C13.7063 25.2052 13.9389 24.2443 14.012 23.6688C14.0481 23.3211 14.054 22.9716 14.0288 22.623L13.7382 16.0254C13.7088 15.3257 13.6768 14.6108 13.4114 13.9615C13.2359 13.4999 12.9159 13.1075 12.4991 12.8426C11.7523 12.4024 10.8443 12.7434 10.0379 12.7552C9.83036 12.7552 9.43135 12.8224 9.26671 12.6611C9.1029 12.5007 9.1239 11.932 9.11214 11.6867C9.09366 11.3221 9.16002 11.1541 9.54979 11.1197C11.098 10.9752 12.5974 10.7669 14.1607 10.7895L17.8123 10.845C18.0489 10.8291 18.2854 10.8772 18.4969 10.9844C18.6985 11.1407 18.8464 11.3549 18.9211 11.5993C19.0942 12.0235 19.2387 12.4587 19.3554 12.9014C20.0401 15.4466 21.1329 17.8575 22.2199 20.2541L23.4203 22.9052C23.8655 23.8847 24.3166 24.9574 24.8576 25.9159V25.9167ZM10.8241 29.7691C10.6865 29.7464 10.5455 29.7564 10.4125 29.7985C10.2754 29.8481 10.1547 29.9347 10.0639 30.0488C9.63044 30.5554 9.66656 31.2669 9.7262 31.9087C9.72124 32.0327 9.76358 32.154 9.84464 32.248C9.99081 32.3883 10.8174 32.6605 10.8443 32.3463C10.8611 32.1817 10.8443 32.0103 10.8443 31.844V29.8565C10.8492 29.8305 10.8444 29.8036 10.8308 29.7809C10.8298 29.7764 10.8275 29.7723 10.8241 29.7691ZM15.1083 29.8859C15.1035 29.888 15.0993 29.8912 15.0961 29.8953C15.0929 29.8994 15.0907 29.9043 15.0898 29.9094C15.0671 30.3328 15.0671 30.7578 15.0898 31.182C15.0898 31.3878 15.0898 31.5945 15.073 31.8011V32.122C15.073 32.2296 15.0461 32.3766 15.0898 32.4429C15.1335 32.5101 15.5669 32.4984 15.7131 32.4933C15.9206 32.4933 16.1348 32.4933 16.3431 32.4748C16.4817 32.4614 16.4573 32.4496 16.4573 32.3262V31.1417C16.4573 30.8779 16.475 30.6125 16.48 30.3462C16.4884 30.2187 16.4884 30.0907 16.48 29.9632C16.4657 29.8506 16.4548 29.8531 16.3246 29.8456H15.8928C15.6719 29.8321 15.2796 29.7775 15.1083 29.885V29.8859ZM11.3878 29.8195C11.3651 29.8405 11.3542 29.8766 11.3466 29.9506C11.3265 30.216 11.3609 30.4823 11.3609 30.7503V32.2296C11.3609 32.427 11.4583 32.4589 11.6616 32.4841C11.8649 32.5093 12.132 32.5303 12.3672 32.5303C12.4353 32.5303 12.6361 32.5504 12.6823 32.5026C12.7276 32.4547 12.6823 32.2573 12.6823 32.1792V30.2983C12.6823 30.1933 12.7646 29.9119 12.6268 29.8405C12.5265 29.8267 12.4247 29.8267 12.3244 29.8405L11.9951 29.8262C11.8582 29.8262 11.7238 29.8103 11.5869 29.8078C11.4499 29.8052 11.4222 29.7918 11.3878 29.8195ZM17.0437 29.8901C16.9958 29.948 17.0319 30.1043 17.0437 30.1681C17.0437 30.4453 17.0302 30.7225 17.0302 31.0006V32.1313C17.0302 32.2203 16.9588 32.4068 17.0554 32.4757C17.1512 32.5437 17.3377 32.4757 17.4293 32.4757H17.9517C18.0089 32.4757 18.1618 32.4916 18.208 32.4572C18.3004 32.3883 18.2533 32.0666 18.2508 31.9683C18.2508 31.7692 18.2374 31.5693 18.2374 31.3702V30.2446C18.2374 30.1681 18.2894 30.001 18.2374 29.9363C18.1844 29.8724 18.0937 29.9094 18.0316 29.9044H17.6762L17.2604 29.8859C17.2058 29.8859 17.105 29.854 17.0588 29.8976L17.0437 29.8909V29.8901ZM13.4719 29.8817C13.3795 29.8817 13.2594 29.8397 13.2064 29.9346C13.1544 30.0278 13.2064 30.2454 13.2064 30.368V32.2027C13.2064 32.3119 13.1451 32.4866 13.3156 32.5076C13.5382 32.5185 13.7609 32.5143 13.9826 32.4933H14.3506C14.3984 32.4933 14.4514 32.5051 14.4757 32.4748C14.537 32.4018 14.4757 32.2111 14.4757 32.1245V30.1824C14.4757 30.0833 14.5328 29.9363 14.4304 29.8884C14.3615 29.854 14.2287 29.8884 14.1531 29.8884C13.9322 29.8926 13.7021 29.8926 13.471 29.8817H13.4719Z" fill="white"/>
<path d="M20.0392 31.1997C20.0415 30.907 20.0255 30.6143 19.9913 30.3236C19.9865 30.2681 19.969 30.2145 19.9402 30.1668C19.9114 30.1192 19.8719 30.0788 19.825 30.0489C19.745 30.0123 19.6575 29.9951 19.5696 29.9985C19.4184 29.9985 19.2706 29.975 19.1127 29.9682C19.0715 29.9682 18.9329 29.943 18.9026 29.9682C18.8732 29.9934 18.9026 30.2202 18.9026 30.2799C18.9026 30.4176 18.8892 30.5554 18.8892 30.6932V32.2271C18.8892 32.3699 18.8388 32.4564 19.0211 32.4564H19.7066C19.7525 32.4564 19.7979 32.4473 19.8403 32.4297C19.8828 32.4121 19.9213 32.3862 19.9537 32.3537C19.986 32.3211 20.0117 32.2825 20.0291 32.24C20.0465 32.1975 20.0554 32.152 20.0552 32.1061V31.2132L20.0392 31.1997Z" fill="#020203"/>
<path d="M86.0604 25.1685H81.8653L81.8056 17.279C81.8241 14.1516 80.9614 13.0368 79.1948 13.2821C78.1969 13.4224 77.0082 14.4288 76.7663 15.6602C76.6453 16.2936 76.6655 16.9489 76.6655 18.9053V25.1862L72.7585 25.1635L72.6972 17.2773C72.7174 14.149 71.6052 13.209 70.083 13.3989C69.4998 13.4499 68.9454 13.6753 68.492 14.0457C68.0374 14.4172 67.7044 14.9163 67.5361 15.4788C67.3084 16.2012 67.3445 16.9287 67.3445 18.8851V25.1635L63.2116 25.1526V10.7343L67.2211 10.7226V12.7638C67.2211 12.7638 68.2644 10.4706 71.6102 10.4706C73.5507 10.4706 75.2282 11.1291 76.1749 12.7806H76.1959C76.1959 12.7806 77.2384 10.4874 80.5842 10.4874C83.0472 10.4874 85.1128 11.5416 85.7521 14.3557C85.9663 15.3024 86.0301 17.1328 86.0301 18.8431L86.0604 25.1685ZM98.2836 19.2791H92.0397C92.1422 21.0087 93.5324 22.3116 95.0453 22.3116C97.4167 22.3116 98.2156 20.6525 98.2156 20.6525L101.696 22.2578C101.696 22.2578 100.215 25.581 95.2183 25.544C92.1531 25.5213 90.0606 24.242 88.7644 22.0629C87.6094 20.1074 87.354 16.0089 88.9265 13.6769C90.4529 11.4089 92.5823 10.4916 95.0226 10.4916C97.8888 10.4916 99.6604 11.4845 100.957 13.6417C102.202 15.7266 102.097 19.3026 102.097 19.3026L98.2836 19.2791ZM98.0282 16.4129C97.914 14.9193 97.0378 13.493 95.0612 13.5047C93.3039 13.5165 92.2497 14.8622 92.064 16.4129H98.0282ZM110.579 10.4916C112.909 10.6747 114.361 12.7202 114.361 12.7202V5.29011H118.344V25.255H114.361V23.3398C113.995 23.8573 113.539 24.3048 113.014 24.6611C111.216 25.8876 108.637 25.5373 107.904 25.2744C105.816 24.5234 103.636 22.4527 103.636 17.935C103.639 11.1333 107.971 10.2942 110.579 10.4916ZM111.666 22.1453C113.736 21.6866 114.256 20.1225 114.256 17.788C114.256 15.6762 113.457 13.9424 111.759 13.64C109.319 13.2065 107.879 15.0159 107.879 17.7402C107.875 20.0906 108.913 22.7509 111.666 22.1528V22.1453ZM121.329 10.7343H125.437L125.364 25.1828H121.334L121.329 10.7343ZM121.361 9.35836V5.23047H125.469V9.35836H121.361ZM142.177 25.203H137.657L137.495 23.4003C137.495 23.4003 136.381 25.4919 132.946 25.4919C131.306 25.4919 130.397 25.2231 129.464 24.6267C128.976 24.2972 128.568 23.862 128.272 23.3535C127.975 22.8449 127.797 22.276 127.75 21.6891C127.677 21.0538 127.747 20.4103 127.954 19.8053C128.161 19.2003 128.501 18.6492 128.948 18.1921C129.581 17.5663 130.573 16.9791 132.864 16.7951C135.604 16.5658 136.667 16.5893 137.158 15.7476C137.264 15.5297 137.311 15.2873 137.292 15.0453C137.274 14.8034 137.191 14.5708 137.053 14.3716C136.436 13.4812 133.216 12.8831 132.602 15.2495L128.677 14.3322C129.361 11.3904 131.94 10.4848 134.992 10.4848C137.094 10.4848 138.565 10.8813 139.752 11.9473C141.35 13.3855 141.448 14.7639 141.448 18.2307L141.485 23.2188L142.177 25.203ZM137.304 18.4071C135.996 19.3707 133.029 18.6029 132.207 20.0133C131.577 21.091 132.294 22.2099 133.629 22.4074C134.623 22.5227 135.622 22.247 136.416 21.6387C137.183 21.0087 137.388 20.1233 137.304 18.408V18.4071ZM63.1016 34.5063C63.1016 32.4961 64.286 31.2234 66.1341 31.2234C66.7317 31.1898 67.3241 31.3507 67.8225 31.6821C68.3223 32.0141 68.7018 32.4984 68.9045 33.0631L67.8712 33.4907C67.7541 33.1286 67.5193 32.8161 67.2043 32.6028C66.8896 32.3903 66.5127 32.2897 66.1341 32.3172C64.9194 32.3172 64.223 33.1101 64.223 34.5189C64.223 35.9276 64.932 36.734 66.1341 36.734C66.5163 36.7601 66.8951 36.6559 67.2101 36.4383C67.526 36.2199 67.7587 35.9024 67.8721 35.5353L68.9213 35.9318C68.7239 36.5059 68.3446 36.9998 67.841 37.3388C67.3385 37.6771 66.7388 37.8412 66.1341 37.8059C64.286 37.7841 63.1016 36.5165 63.1016 34.5063ZM69.2002 35.4236C69.2177 34.9875 69.3625 34.5661 69.6168 34.2114C69.8056 33.9462 70.0507 33.7259 70.3345 33.5665C70.6184 33.4071 70.934 33.3124 71.2587 33.2893C71.5835 33.2662 71.9093 33.3152 72.2129 33.4328C72.5165 33.5504 72.7903 33.7336 73.0147 33.9695C73.3166 34.2849 73.5193 34.6818 73.5978 35.1112C73.6764 35.5406 73.6273 35.9836 73.4566 36.3854C73.2869 36.787 73.0029 37.1299 72.6401 37.3716C72.2779 37.6124 71.8527 37.741 71.4178 37.7412C71.1169 37.7484 70.8177 37.6926 70.5395 37.5775C70.2613 37.4624 70.0103 37.2904 69.8025 37.0725C69.5935 36.8543 69.432 36.5951 69.3283 36.3112C69.2247 36.0274 69.181 35.7251 69.2002 35.4236ZM72.5569 35.4236C72.5569 34.6936 72.2335 34.0627 71.4178 34.0627C70.603 34.0627 70.2754 34.6936 70.2754 35.4236C70.2754 36.1544 70.598 36.7937 71.4178 36.7937C72.2377 36.7937 72.5569 36.1452 72.5569 35.4244V35.4236ZM74.4688 31.3688H75.5987V32.3684H74.4688V31.3688ZM74.494 33.2084H75.5693V37.6522H74.494V33.2084ZM80.8026 34.7843V37.6522H79.7232V35.0565C79.7232 34.7499 79.7232 34.0627 78.9084 34.0627C77.9054 34.0627 77.9054 35.0825 77.9054 35.8772V37.6522H76.8259V33.2084H77.9054V33.7208C78.0631 33.5208 78.2666 33.3618 78.4988 33.2571C78.731 33.1524 78.985 33.1052 79.2393 33.1194C80.2373 33.1194 80.8018 33.7301 80.8018 34.7843H80.8026ZM81.4906 36.4946L82.3399 36.1116C82.3921 36.3216 82.5136 36.5078 82.6848 36.6401C82.856 36.7724 83.0669 36.8431 83.2832 36.8407C83.7847 36.8407 84.0014 36.5509 84.0014 36.3157C84.0014 35.5689 81.7199 36.0637 81.7199 34.4172C81.7199 33.5629 82.4928 33.1362 83.3471 33.1362C83.6886 33.1235 84.0268 33.2067 84.3235 33.3764C84.6201 33.5461 84.8633 33.7955 85.0254 34.0963L84.1753 34.5575C84.0997 34.3877 83.9762 34.2436 83.82 34.1428C83.6639 34.0419 83.4817 33.9887 83.2958 33.9896C82.9481 33.9896 82.7313 34.1602 82.7313 34.3693C82.7313 35.0439 85.0464 34.6466 85.0464 36.2686C85.0464 37.3061 84.1585 37.7589 83.3261 37.7589C82.9269 37.7675 82.5351 37.6502 82.2063 37.4237C81.8766 37.1967 81.6263 36.8721 81.4906 36.4955V36.4946ZM86.1393 31.3688H88.1873C89.5851 31.3688 90.3109 31.9795 90.3109 33.179C90.3109 34.3786 89.5675 35.0439 88.1873 35.0439H87.2524V37.6522H86.1393V31.3688ZM88.068 34.0107C88.8585 34.0107 89.1895 33.767 89.1895 33.1958C89.1895 32.6238 88.8669 32.4062 88.068 32.4062H87.2524V34.0107H88.068ZM94.5841 34.8482V37.6522H93.5946L93.5047 37.0759C93.3552 37.2911 93.1538 37.465 92.9191 37.5815C92.6844 37.6979 92.4241 37.7532 92.1623 37.7421C91.8584 37.7688 91.5536 37.6999 91.2907 37.5451C91.0278 37.3903 90.8197 37.1573 90.6956 36.8785C90.6124 36.6935 90.5681 36.4933 90.5654 36.2905C90.5499 36.059 90.6049 35.8282 90.7232 35.6286C90.8416 35.4289 91.0176 35.2699 91.2282 35.1724C91.6015 35.0215 92.0029 34.9528 92.4051 34.9708H93.5047V34.8482C93.5108 34.7376 93.4923 34.627 93.4504 34.5244C93.4086 34.4218 93.3445 34.3299 93.2628 34.2551C93.182 34.1801 93.0857 34.1239 92.9807 34.0905C92.8757 34.057 92.7646 34.0473 92.6554 34.0619C92.4178 34.0702 92.1857 34.1349 91.9781 34.2507C91.7705 34.3666 91.5935 34.5302 91.4617 34.728L90.7141 34.0711C90.9496 33.7688 91.2523 33.5254 91.5981 33.3602C91.9439 33.195 92.3235 33.1125 92.7067 33.1194C93.8575 33.1194 94.5841 33.7763 94.5841 34.8482ZM93.5047 35.7865H92.5445C92.2929 35.7594 92.0392 35.8117 91.8187 35.936C91.7598 35.9775 91.7124 36.0334 91.6811 36.0984C91.6497 36.1634 91.6355 36.2353 91.6398 36.3073C91.6398 36.6231 91.8994 36.8197 92.3328 36.8197C92.625 36.837 92.9121 36.7381 93.1316 36.5445C93.3511 36.351 93.4852 36.0785 93.5047 35.7865ZM95.6879 31.3688H96.8177V32.3684H95.6879V31.3688ZM95.7131 33.2084H96.7875V37.6522H95.7131V33.2084ZM101.921 31.3688V37.6522H100.846V37.2254C100.686 37.4033 100.489 37.5435 100.269 37.6357C100.048 37.728 99.81 37.7701 99.5714 37.7589C98.3693 37.7589 97.7065 36.7769 97.7065 35.4404C97.7065 33.9896 98.4877 33.1362 99.5714 33.1362C99.8097 33.1309 100.046 33.176 100.266 33.2687C100.486 33.3613 100.683 33.4994 100.846 33.6738V31.3856L101.921 31.3688ZM100.943 35.4328C100.943 34.6936 100.612 34.1005 99.8393 34.1005C99.0657 34.1005 98.7851 34.6087 98.7851 35.4328C98.7851 36.256 99.1169 36.7382 99.8343 36.7382C100.553 36.7382 100.943 36.1712 100.943 35.4328Z" fill="#0B0B0B"/>
</g>
<defs>
<clipPath id="clip0_3357_4423">
<rect width="142.805" height="42.0014" fill="white" transform="translate(0.0976562 0.5)"/>
</clipPath>
</defs>
</svg>
