<svg width="103" height="37" viewBox="0 0 103 37" fill="none" xmlns="http://www.w3.org/2000/svg">
<g clip-path="url(#clip0_3357_4413)">
<path d="M77.5859 33.3249V30.6046L78.6785 30.4708C81.4434 30.1364 82.536 28.9769 85.0111 23.6254C88.5118 16.0888 91.8119 8.57451 91.6112 8.50761C91.522 8.46302 90.1172 8.95357 88.5118 9.5779C86.9064 10.2245 85.5462 10.6928 85.5239 10.6705C85.4793 10.6259 85.9922 9.33263 86.6611 7.79409L87.8652 5.00688L92.8821 3.02238C95.6471 1.95209 97.966 1.10478 98.0106 1.17167C98.2113 1.35006 101.89 10.9381 101.89 11.2279C101.89 11.6962 99.5046 16.9807 99.3708 16.7801C99.3039 16.6909 98.791 15.353 98.2113 13.8145C97.6316 12.2759 97.0741 10.9381 96.9626 10.8266C96.8511 10.6928 96.6282 10.9827 96.4052 11.4955C95.0673 14.7064 89.0024 28.2188 88.378 29.3336C86.1482 33.3695 82.8928 35.6216 78.7677 35.9561L77.5859 36.0452V33.3249Z" fill="#0B0B0B"/>
<path d="M43.8057 29.1095C39.2569 27.9724 36.3359 24.2041 36.3359 19.41C36.3359 15.9093 37.7184 13.1667 40.4387 11.3606C43.9617 8.97473 49.0902 8.93014 52.5241 11.2714C54.3302 12.4978 55.891 14.8167 56.3147 16.8904L56.4707 17.6039H53.3491C50.272 17.6039 50.2274 17.6039 49.9821 17.0688C49.8483 16.7789 49.3801 16.2438 48.9118 15.9093C48.176 15.3519 47.8861 15.2627 46.5929 15.2627C45.2996 15.2627 45.0097 15.3519 44.2739 15.9093C43.0698 16.8235 42.4901 18.2283 42.6462 19.8783C42.8692 22.331 44.2739 23.7135 46.6152 23.7135C48.1314 23.7358 49.447 22.9777 50.0267 21.7513L50.4058 20.9486H53.4829H56.5822L56.3816 21.9074C55.6457 25.252 52.7693 28.1953 49.3801 29.0872C47.8192 29.4886 45.3665 29.4886 43.8057 29.1095Z" fill="#0B0B0B"/>
<path d="M10.6935 23.6018C9.28872 20.6585 8.06235 18.1835 7.97316 18.1166C7.86167 18.072 7.79477 20.4355 7.79477 23.3788V28.7526H4.45012H1.10547V16.6003V4.42578L4.49472 4.49267L7.88396 4.55957L11.0056 11.2043C12.7226 14.8611 14.1942 17.7598 14.2834 17.6706C14.3726 17.5591 15.8219 14.5489 17.4943 10.9813L20.5713 4.44808H23.8937H27.1938V16.6003V28.7526H23.8491H20.5045L20.4822 23.3565L20.4599 17.9382L17.7618 23.468L15.0638 28.9755H14.1496H13.2354L10.6935 23.6018Z" fill="#0B0B0B"/>
<path d="M28.7578 19.3885V10.0234H31.8795H35.0012V19.3885V28.7535H31.8795H28.7578V19.3885Z" fill="#0B0B0B"/>
<path d="M58.1875 16.6015V4.44922H61.3092H64.4309V10.9155C64.4309 14.4832 64.4977 17.3819 64.6092 17.3819C64.6984 17.3819 65.7687 15.7318 66.9951 13.7028L69.2249 10.0236L75.6689 10.0682L82.1352 10.1351L83.54 13.7028C84.2981 15.665 85.1008 17.7163 85.3015 18.2738L85.6582 19.2772L84.142 22.711C82.7595 25.855 82.6258 26.078 82.3805 25.6097C82.2467 25.3199 80.8419 21.7299 79.2588 17.6717C77.6757 13.5913 76.3155 10.2466 76.2263 10.2466C76.0925 10.2466 70.4512 18.8089 70.4512 19.0319C70.4512 19.0988 71.856 21.284 73.5729 23.8928L76.6946 28.6422L73.0601 28.7091C70.1391 28.7537 69.4032 28.7091 69.2249 28.4415C69.0911 28.2631 68.0431 26.5016 66.8836 24.5394C65.7241 22.5549 64.6984 20.9495 64.6092 20.9495C64.4977 20.9495 64.4309 22.711 64.4309 24.8516V28.7537H61.3092H58.1875V16.6015Z" fill="#0B0B0B"/>
<path d="M28.7578 6.67899V4.44922H31.8795H35.0012V6.67899V8.90876H31.8795H28.7578V6.67899Z" fill="#0B0B0B"/>
</g>
<defs>
<clipPath id="clip0_3357_4413">
<rect width="101.54" height="35.6761" fill="white" transform="translate(0.730469 0.660156)"/>
</clipPath>
</defs>
</svg>
