<svg width="89" height="49" viewBox="0 0 89 49" fill="none" xmlns="http://www.w3.org/2000/svg">
<g clip-path="url(#clip0_3269_2986)">
<path d="M49.6877 27.1479C49.7942 26.7113 50.0071 26.3212 50.2245 25.9329C50.314 25.7683 50.4035 25.7772 50.4688 25.9499C50.6343 26.3829 50.512 26.9312 50.6631 27.3696C50.6963 27.4653 50.9298 27.8391 50.9298 27.8391L51.2999 27.316C51.2999 27.316 53.1867 24.811 53.7951 23.3411C53.9078 23.0727 53.7226 23.1282 53.5965 23.1282C52.4334 23.1282 51.2704 23.1353 50.1073 23.1479C43.6793 23.215 37.2512 23.1944 30.824 23.1684C27.6623 23.1559 24.5005 23.1058 21.3406 23.0638C19.325 23.036 17.3084 22.9823 15.299 22.8311C12.3807 22.612 9.48378 22.2219 6.67814 21.3415C5.2118 20.8817 3.77857 20.3037 2.57347 19.3232C1.24312 18.2416 0.172214 16.9506 0.045173 15.147C-0.104556 13.2692 0.404781 11.3979 1.48557 9.85508C2.63341 8.18566 4.15879 6.96445 5.90874 5.98481C8.10601 4.75555 10.4858 4.05772 12.9309 3.5424C14.4232 3.22838 15.9396 3.07808 17.4489 2.87141C19.0798 2.64864 20.709 2.41872 22.3498 2.27557C23.7159 2.15569 25.0848 2.05728 26.4536 1.95886C29.3227 1.7513 32.1928 1.5509 35.0655 1.4006C37.5705 1.26909 40.0756 1.15815 42.5806 1.03111C45.4068 0.887963 48.2348 0.795813 51.0628 0.695612C53.7871 0.598989 56.5122 0.51668 59.2373 0.463001C60.7045 0.436162 62.1709 0.380696 63.6372 0.378906C65.6824 0.378906 67.727 0.399481 69.7709 0.440635C71.5871 0.480894 73.4041 0.555152 75.2149 0.704559C77.4784 0.891542 79.7365 1.13936 81.9481 1.68242C82.7926 1.88998 83.6721 2.07964 84.3869 2.58333C85.4489 3.33305 86.5341 4.08098 87.3223 5.14652C88.1418 6.25678 88.6151 7.52003 88.8333 8.87365C89.1098 10.5914 88.972 12.293 88.5104 13.9633C87.8027 16.5229 86.5421 18.7515 84.4907 20.4836C83.0247 21.7339 81.2098 22.5031 79.2919 22.6871C77.0033 22.926 74.7085 23.0333 72.4093 23.0888C68.548 23.1783 64.6857 23.1595 60.8235 23.1246C60.3216 23.1246 60.0022 23.2561 59.7499 23.7178C59.4084 24.3413 59.0107 24.9325 58.5618 25.4838C58.5216 25.5339 58.4652 25.5733 58.4679 25.652V25.6395C58.4469 25.6457 58.4289 25.6595 58.4173 25.6781C58.4058 25.6967 58.4015 25.719 58.4053 25.7406C58.1763 25.9319 57.9807 26.1598 57.8264 26.4151C57.7772 26.4214 57.779 26.4599 57.7772 26.4957H57.7817C57.7146 26.4903 57.6824 26.5395 57.6466 26.5851C56.6312 27.7983 55.41 28.7752 54.068 29.5885C53.3576 30.0161 52.6321 30.4482 51.7419 30.1342C51.7328 30.1321 51.7233 30.1321 51.7141 30.1342C50.9841 29.1725 50.3355 28.1615 49.6877 27.1479ZM21.8747 14.6048C21.8747 13.924 21.8855 13.2422 21.8747 12.5614C21.8282 10.0993 19.2892 8.12035 16.8879 8.66877C14.5207 9.20556 13.0713 11.5505 13.7173 13.9025C14.5788 17.0427 18.085 18.0465 20.3753 16.1051C20.5095 15.9915 20.6661 15.7392 20.7824 15.8036C20.9506 15.8976 20.8468 16.1615 20.8459 16.3556C20.836 18.3006 18.798 19.6122 17.0445 19.0709C16.1498 18.7963 15.4681 18.2604 15.0718 17.4006C14.9823 17.1993 14.8669 17.1036 14.6415 17.1322C14.4717 17.1483 14.3012 17.1555 14.1306 17.1537C13.9839 17.1537 13.9213 17.2038 13.9857 17.363C14.178 17.839 14.3981 18.297 14.7426 18.6853C16.2223 20.3539 18.9027 20.5373 20.6473 19.0969C21.4748 18.4142 21.8998 17.5554 21.8783 16.4764C21.864 15.8537 21.8747 15.2293 21.8747 14.6048ZM71.2409 14.7113C71.2409 14.0394 71.2489 13.3693 71.2409 12.6965C71.2378 11.8076 70.9209 10.9483 70.3462 10.2702C69.261 8.97117 67.8868 8.3789 66.2102 8.74929C63.69 9.31113 62.2979 11.9522 63.2113 14.3811C63.8725 16.14 65.7047 17.6198 68.1633 16.998C68.8531 16.8152 69.4806 16.4492 69.9794 15.9387C70.0295 15.8895 70.0689 15.8001 70.1583 15.8332C70.1861 15.8439 70.2057 15.9128 70.2057 15.9557C70.2004 16.4567 70.2308 16.9694 70.0044 17.4328C69.4677 18.5305 68.5998 19.1836 67.3607 19.2436C66.1709 19.3008 65.2136 18.79 64.6329 17.7781C64.3404 17.2637 64.0121 17.1823 63.5254 17.1957C63.3196 17.202 63.3008 17.2762 63.3607 17.4364C63.5449 17.9753 63.8423 18.4686 64.233 18.883C65.6081 20.2814 67.9011 20.5373 69.5643 19.4789C70.6889 18.7632 71.3089 17.779 71.2489 16.4102C71.2203 15.8475 71.2409 15.2785 71.2409 14.7113ZM38.8007 14.2031C38.8007 13.3612 38.7855 12.5185 38.8007 11.6766C38.8195 10.8616 39.274 10.3069 39.9807 9.97676C40.667 9.65468 41.3782 9.60905 42.0304 10.0743C42.6629 10.5261 42.934 11.1836 42.9394 11.9405C42.9492 13.5312 42.9394 15.121 42.9295 16.7108C42.9295 16.9175 42.9841 17.0087 43.1979 16.9989C43.4065 16.9872 43.6156 16.9872 43.8242 16.9989C44.0335 17.0123 44.0765 16.9139 44.0756 16.7305C44.0675 15.5281 44.0693 14.3266 44.0657 13.125C44.0657 12.5882 44.0836 12.0461 44.021 11.5084C43.9536 10.8922 43.7031 10.3103 43.3017 9.83793C42.9003 9.36555 42.3664 9.02437 41.7692 8.85844C40.4755 8.47732 39.3411 8.81997 38.5099 9.84256C38.2326 10.1834 38.2147 10.2004 37.9436 9.82735C36.5667 7.95752 33.4757 8.56052 32.6857 10.6495C32.5019 11.1679 32.4149 11.7155 32.429 12.2653C32.429 13.5816 32.429 14.8974 32.429 16.2125C32.429 16.9783 32.429 16.9685 33.2073 16.9935C33.4569 17.0016 33.5339 16.9336 33.533 16.6795C33.5267 15.1649 33.533 13.6511 33.541 12.1364C33.5401 11.9472 33.5509 11.7581 33.5732 11.5701C33.6904 10.6701 34.2934 9.95976 35.053 9.78709C36.2304 9.52316 37.7155 10.3901 37.6743 11.8859C37.635 13.3049 37.6609 14.7247 37.6681 16.1445C37.6681 16.4129 37.5374 16.7627 37.72 16.9336C37.9025 17.1045 38.246 16.9676 38.5162 16.9971C38.7578 17.0231 38.7989 16.9148 38.7971 16.7055C38.7962 15.8689 38.8007 15.036 38.8007 14.2031ZM49.4193 8.70187C47.1729 8.5963 45.2538 10.7193 45.2512 12.9425C45.2512 15.1228 47.0601 17.2369 49.5133 17.1725C51.698 17.117 53.5786 15.2042 53.5723 12.9551C53.5688 10.5923 51.7168 8.69651 49.4193 8.70187ZM27.1854 17.1349C29.473 17.1277 31.3294 15.2302 31.3303 12.8996C31.332 11.7901 30.8988 10.7241 30.1236 9.93027C29.3483 9.13648 28.2929 8.67814 27.1836 8.65356C25.0454 8.61062 22.9939 10.5323 23.0163 12.9372C23.0378 15.2847 24.8709 17.1411 27.1854 17.1349ZM74.6191 14.6048C74.6191 15.0199 74.6244 15.6641 74.6191 16.3046C74.6119 17.0257 74.6074 17.0257 75.3214 17.0427C75.7195 17.0517 75.7177 17.0517 75.7177 16.6446C75.7177 15.1872 75.7079 13.7289 75.732 12.2715C75.737 11.8865 75.8313 11.5079 76.0075 11.1655C76.1836 10.823 76.4369 10.5262 76.7473 10.2983C77.0577 10.0704 77.4167 9.91761 77.7962 9.85204C78.1756 9.78646 78.5651 9.80986 78.934 9.92039C79.9745 10.2308 80.7099 11.2445 80.7233 12.4254C80.7323 13.7128 80.7179 15.0002 80.7135 16.2876C80.7135 17.0383 80.7135 17.0248 81.4605 17.0597C81.7289 17.0714 81.8049 16.9953 81.8023 16.7341C81.7906 15.2481 81.8023 13.7611 81.7862 12.2751C81.7656 10.391 80.4209 8.94612 78.5466 8.76897C78.0766 8.71838 77.6013 8.76311 77.149 8.9005C76.6967 9.03788 76.2768 9.2651 75.9144 9.56855C75.552 9.872 75.2545 10.2454 75.0398 10.6665C74.8251 11.0876 74.6975 11.5477 74.6647 12.0193C74.5949 12.8048 74.6567 13.5912 74.6191 14.6048ZM61.8032 14.3999C61.8032 13.6332 61.8345 12.8647 61.796 12.1007C61.7343 10.8982 61.1912 9.92934 60.1704 9.29056C58.9859 8.54889 57.7244 8.51042 56.4961 9.1662C55.2677 9.82198 54.6772 10.9009 54.6531 12.2787C54.628 13.745 54.6406 15.2123 54.6218 16.6786C54.6218 16.947 54.7112 17.0365 54.9653 17.0034C55.1064 16.985 55.2492 16.985 55.3903 17.0034C55.6703 17.0436 55.7329 16.9336 55.7311 16.6616C55.7186 15.1953 55.7141 13.728 55.7311 12.2617C55.7317 11.9347 55.7972 11.6111 55.9237 11.3095C56.0503 11.008 56.2354 10.7346 56.4685 10.5052C56.7015 10.2758 56.9777 10.0949 57.2811 9.97297C57.5846 9.85108 57.9092 9.79064 58.2362 9.79514C58.8965 9.8022 59.5274 10.069 59.9924 10.5379C60.4574 11.0067 60.719 11.6398 60.7206 12.3002C60.7206 12.6401 60.7206 12.981 60.7206 13.3219C60.7206 14.467 60.7144 15.6122 60.7054 16.7564C60.7054 16.9354 60.7502 17.0248 60.9452 17.0069C61.1432 16.9904 61.3422 16.9904 61.5401 17.0069C61.745 17.0257 61.8014 16.9524 61.7987 16.7538C61.7978 15.97 61.8032 15.1845 61.8032 14.3999ZM5.29321 14.2863H5.28516C5.28516 14.9126 5.28516 15.5388 5.28516 16.1597C5.28516 16.9112 5.28516 16.8969 6.03578 16.9255C6.30417 16.9363 6.36948 16.8522 6.36859 16.5963C6.36024 15.1201 6.36024 13.6442 6.36859 12.1687C6.37664 10.9305 7.38313 9.81572 8.57033 9.71194C10.1235 9.57595 11.3581 10.7059 11.3599 12.2715C11.3599 13.5491 11.3599 14.8267 11.3536 16.1033C11.3536 16.9327 11.3536 16.9264 12.1865 16.9309C12.3789 16.9309 12.4352 16.8638 12.4352 16.6867C12.4352 15.1353 12.4782 13.5813 12.4218 12.0345C12.3672 10.5341 11.5943 9.43996 10.1977 8.88975C7.97092 8.01478 5.42473 9.42028 5.29411 12.0461C5.2619 12.7904 5.29321 13.5393 5.29321 14.2863ZM72.4218 12.9443C72.4218 14.0609 72.4218 15.181 72.4218 16.2939C72.4218 17.0096 72.4173 16.9917 73.1375 17.0186C73.4059 17.0284 73.4721 16.9542 73.4712 16.6938C73.4614 14.3382 73.465 11.9826 73.4632 9.62605C73.4632 8.91927 73.4632 8.93001 72.7555 8.91748C72.4934 8.91212 72.4182 8.99264 72.4209 9.25387C72.429 10.4804 72.4218 11.7106 72.4218 12.9399V12.9443ZM73.4855 6.97787H73.473V6.80699C73.465 6.00896 73.465 6.01344 72.6678 6.04117C72.4978 6.04743 72.4299 6.09664 72.4325 6.2702C72.4325 6.55381 72.4146 6.83741 72.42 7.12102C72.4388 8.12572 72.2822 7.92084 73.2592 7.94857C73.4381 7.95394 73.4927 7.8779 73.4891 7.71507C73.4802 7.46904 73.4855 7.22301 73.4855 6.97787Z" fill="#FCD203"/>
<path d="M50.3773 25.3711C50.3773 25.3711 49.751 26.8208 49.6445 27.2574C50.2923 28.2711 50.5722 28.832 51.3022 29.7938C51.3113 29.7916 51.736 30.1302 51.7451 30.1323C51.2251 29.4201 50.7817 27.1395 50.3773 25.3711Z" fill="#F69C08"/>
<path d="M78.0546 34.6165C79.1434 34.6165 80.2322 34.595 81.321 34.6236C82.102 34.6433 82.8419 34.8231 83.3992 35.444C83.8233 35.9173 84.004 36.5006 84.0595 37.1063C84.301 39.7366 83.9289 42.2523 82.4894 44.5212C81.176 46.5905 79.2829 47.8609 76.8897 48.3682C75.0674 48.7701 73.1718 48.6893 71.3903 48.1338C69.1214 47.4261 67.4118 45.9991 66.1861 43.9763C65.1707 42.3051 64.6285 40.4729 64.4496 38.5341C64.2143 36.0551 64.5015 33.635 65.4015 31.308C66.3203 28.9345 67.7464 26.9242 70.059 25.7522C73.7218 23.894 77.3308 24.1418 80.7949 26.3284C81.584 26.8267 82.1995 27.5174 82.4947 28.4317C82.747 29.2181 82.7023 29.9992 82.2469 30.6988C81.5392 31.7849 80.1114 31.9388 79.0038 31.0736C78.6236 30.7775 78.2764 30.442 77.8542 30.1969C75.6837 28.9354 72.004 28.9139 70.3659 32.3664C69.1268 34.9761 68.9658 37.6976 70.0224 40.4183C70.6764 42.1002 71.8466 43.3027 73.6842 43.6596C75.1013 43.9343 76.463 43.7616 77.6359 42.8222C78.5225 42.1128 78.9618 41.1421 79.1908 40.0586C79.3357 39.3715 79.3348 39.3715 78.6495 39.3715C77.4668 39.3715 76.2832 39.3769 75.0995 39.3715C74.501 39.3662 73.907 39.3188 73.3827 38.9725C73.0451 38.757 72.7874 38.4368 72.6491 38.0609C72.4248 37.4317 72.4029 36.7483 72.5864 36.1061C72.8038 35.2651 73.4185 34.8535 74.2308 34.6916C74.5664 34.6314 74.9072 34.6051 75.248 34.6129H78.0599L78.0546 34.6165Z" fill="#165CB1"/>
<path d="M49.6883 27.1495C50.3324 28.1631 50.9811 29.1741 51.7084 30.1314C51.7496 30.2047 51.7871 30.2817 51.8337 30.3515C53.5914 32.9758 55.3509 35.5983 57.1121 38.219C57.2454 38.4186 57.3555 38.6377 57.5738 38.8507V38.5554C57.5738 35.1599 57.5738 31.7647 57.5738 28.3698C57.5738 27.7346 57.5836 27.1039 57.776 26.491H57.7715L57.8207 26.4105C57.975 26.1552 58.1706 25.9272 58.3995 25.7359C58.4371 25.7127 58.5042 25.7073 58.4622 25.6348V25.6474C58.8272 25.5767 59.1609 25.3986 59.5438 25.3709C60.1316 25.328 60.6997 25.3754 61.2365 25.6205C61.8878 25.9175 62.1598 26.4848 62.2555 27.1557C62.2868 27.381 62.3021 27.6082 62.3011 27.8357C62.3011 33.7893 62.3011 39.7435 62.3011 45.6983C62.3011 46.2128 62.2537 46.7254 62.0113 47.1888C61.5219 48.1211 60.6693 48.3206 59.7192 48.2624C58.7261 48.1998 58.0005 47.6702 57.4557 46.873C55.8644 44.5469 54.2761 42.2164 52.6907 39.8813C51.647 38.3491 50.6008 36.8174 49.5523 35.2864C49.4897 35.1969 49.4449 35.0869 49.3376 35.018C49.2481 35.094 49.2911 35.1969 49.2911 35.2801C49.2875 38.783 49.2875 42.2855 49.2911 45.7878C49.2984 46.1097 49.266 46.4312 49.1944 46.7451C48.9976 47.5243 48.5181 48.0164 47.7227 48.1864C47.2586 48.2861 46.78 48.2994 46.311 48.2257C45.3116 48.0701 44.7006 47.4009 44.6111 46.3863C44.587 46.1179 44.5914 45.8379 44.5914 45.5642C44.5914 39.6666 44.5914 33.769 44.5914 27.8715C44.5851 27.635 44.5977 27.3983 44.629 27.1638C44.8912 25.5534 46.1732 25.1589 47.4024 25.3745C48.2971 25.5284 48.9323 26.0813 49.4423 26.8006C49.5246 26.9169 49.6087 27.035 49.6883 27.1495Z" fill="#165CB1"/>
<path d="M23.5667 33.9759C23.5667 35.7464 23.582 37.516 23.5623 39.2865C23.5444 40.9461 23.3153 42.5735 22.6005 44.0935C21.4795 46.4787 19.531 47.8036 17.0098 48.3395C15.2074 48.7275 13.3417 48.7138 11.5453 48.2993C9.97695 47.9414 8.59918 47.2257 7.51933 46.0018C6.49138 44.8388 5.94564 43.4538 5.64056 41.9553C5.47068 41.0815 5.38916 40.1928 5.39722 39.3026C5.39364 35.5165 5.39364 31.7291 5.39722 27.9405C5.39007 27.6281 5.41676 27.3159 5.47684 27.0092C5.63967 26.2711 6.04047 25.7316 6.78751 25.5062C7.46102 25.2975 8.18077 25.2897 8.85863 25.4838C9.71571 25.728 10.2257 26.4169 10.2829 27.3626C10.2981 27.6086 10.2972 27.8546 10.2972 28.1007C10.2972 31.6793 10.2972 35.2579 10.2972 38.8365C10.2875 39.557 10.3864 40.2748 10.5907 40.9658C11.0067 42.3176 11.8969 43.1747 13.2836 43.4968C14.1355 43.7012 15.0229 43.7085 15.8781 43.5182C17.3185 43.1944 18.0843 42.2147 18.4135 40.8343C18.5561 40.1867 18.621 39.5245 18.6068 38.8616C18.6026 35.2555 18.6026 31.6492 18.6068 28.0425C18.5931 27.6257 18.6404 27.2092 18.7472 26.8061C18.9468 26.1101 19.3959 25.6627 20.0919 25.4838C20.7445 25.3069 21.4329 25.3109 22.0834 25.4954C22.9977 25.7513 23.4039 26.4205 23.5149 27.308C23.5469 27.5806 23.5616 27.8549 23.5587 28.1293C23.5623 30.0796 23.5623 32.0297 23.5587 33.9794L23.5667 33.9759Z" fill="#165CB1"/>
<path d="M33.8104 25.4078C35.2069 25.4078 36.1946 26.1065 36.6733 27.4332C38.2765 31.8433 39.8797 36.2533 41.4829 40.6634C42.0609 42.2648 42.6522 43.8618 43.147 45.4945C43.5693 46.8821 42.5986 48.2268 41.1492 48.2787C39.8654 48.3252 39.1166 47.8528 38.6344 46.6683C38.3355 45.9329 38.0546 45.1886 37.7782 44.4433C37.6994 44.2304 37.5992 44.1355 37.3496 44.1373C35.0396 44.1481 32.7299 44.1481 30.4205 44.1373C30.196 44.1373 30.1065 44.2268 30.0385 44.4192C29.7701 45.1877 29.5304 45.9651 29.2047 46.7122C28.6411 48.0058 27.4011 48.5856 26.0484 48.1713C25.3532 47.9575 24.922 47.4637 24.7225 46.7685C24.4997 45.992 24.6769 45.2565 24.9372 44.5211C26.4414 40.2864 27.9408 36.05 29.4355 31.8117C29.9625 30.3221 30.4832 28.8298 31.028 27.3474C31.3671 26.4241 31.9942 25.7799 32.9631 25.499C33.24 25.4296 33.5251 25.3989 33.8104 25.4078ZM33.8533 33.5903C33.8195 33.6347 33.7896 33.682 33.7639 33.7316C33.1078 35.5263 32.4532 37.3216 31.8001 39.1174C31.7231 39.3277 31.8099 39.3599 31.9933 39.3581C32.6849 39.3536 33.3756 39.3581 34.0662 39.3581C34.5681 39.3581 35.0701 39.3456 35.5711 39.3581C35.8395 39.3653 35.8779 39.2686 35.7786 39.0432C35.6891 38.8446 35.631 38.6343 35.5594 38.4294C35.0056 36.8334 34.3964 35.2543 33.8533 33.5903Z" fill="#165CB1"/>
<path d="M21.8774 14.6044C21.8774 15.2306 21.8675 15.8569 21.8774 16.4778C21.8989 17.5567 21.4739 18.4156 20.6463 19.0982C18.9009 20.5386 16.2205 20.3552 14.7416 18.6867C14.3972 18.2984 14.1771 17.8404 13.9847 17.3644C13.9203 17.2051 13.9847 17.1586 14.1297 17.155C14.3002 17.1569 14.4707 17.1497 14.6405 17.1336C14.866 17.1032 14.9787 17.1989 15.0709 17.402C15.4672 18.2617 16.1507 18.7976 17.0436 19.0723C18.7971 19.6136 20.8351 18.302 20.845 16.357C20.845 16.1656 20.9496 15.899 20.7814 15.805C20.6651 15.7406 20.5086 15.9929 20.3744 16.1065C18.0841 18.0479 14.5779 17.0441 13.7164 13.9039C13.0704 11.5518 14.5215 9.21052 16.887 8.67015C19.2883 8.12172 21.8273 10.1016 21.8738 12.5628C21.8881 13.2418 21.8774 13.9236 21.8774 14.6044ZM17.8013 16.0108C19.4305 16.0153 20.7582 14.5999 20.8172 12.9028C20.8745 11.2539 19.4573 9.6158 17.7325 9.64263C16.0943 9.66679 14.6683 11.1099 14.6629 12.8142C14.6566 14.6133 16.0246 16.0063 17.8013 16.0108Z" fill="#165CB1"/>
<path d="M71.2408 14.7122C71.2408 15.2794 71.2202 15.8484 71.2408 16.412C71.3007 17.7817 70.6808 18.7677 69.5562 19.4807C67.8894 20.5391 65.6 20.2859 64.2249 18.8849C63.8342 18.4704 63.5368 17.9772 63.3526 17.4382C63.2927 17.2781 63.3115 17.2038 63.5173 17.1975C64.0039 17.1841 64.3323 17.2655 64.6248 17.78C65.201 18.7918 66.1627 19.3009 67.3526 19.2454C68.5917 19.1855 69.4595 18.5297 69.9963 17.4346C70.2227 16.9712 70.1923 16.4586 70.1976 15.9575C70.1976 15.9146 70.178 15.8457 70.1502 15.835C70.0608 15.8019 70.0214 15.8913 69.9713 15.9406C69.4725 16.451 68.845 16.817 68.1551 16.9998C65.6966 17.6216 63.8608 16.1418 63.2032 14.383C62.2898 11.954 63.6819 9.31295 66.2021 8.75111C67.8787 8.37714 69.2529 8.9694 70.3381 10.272C70.9128 10.9501 71.2297 11.8094 71.2328 12.6983C71.2426 13.3693 71.2328 14.0403 71.2328 14.7131L71.2408 14.7122ZM70.1672 12.9229C70.1672 11.181 68.7894 9.71286 67.1531 9.71555C65.4443 9.71555 64.0621 11.138 64.0165 12.8468C63.9673 14.6666 65.5231 16.1079 67.1173 16.0935C68.7859 16.0756 70.1663 14.6594 70.1672 12.9202V12.9229Z" fill="#165CB1"/>
<path d="M38.8032 14.2033C38.8032 15.0363 38.7987 15.8692 38.8032 16.7021C38.8032 16.9115 38.7638 17.0197 38.5223 16.9938C38.2539 16.9642 37.905 17.0966 37.726 16.9302C37.5471 16.7638 37.6751 16.4113 37.6742 16.1412C37.667 14.7213 37.6411 13.3015 37.6804 11.8826C37.7216 10.3867 36.2364 9.51982 35.0591 9.78374C34.2995 9.95373 33.6965 10.6668 33.5793 11.5668C33.557 11.7547 33.5462 11.9439 33.5471 12.1331C33.5409 13.6478 33.5328 15.1615 33.5391 16.6762C33.5391 16.9302 33.463 16.9982 33.2134 16.9902C32.4342 16.9651 32.4351 16.975 32.4351 16.2091C32.4351 14.8934 32.4351 13.5777 32.4351 12.2619C32.421 11.7122 32.508 11.1645 32.6918 10.6462C33.4818 8.55717 36.5728 7.95417 37.9497 9.824C38.2181 10.1935 38.2387 10.1819 38.516 9.83921C39.3472 8.81752 40.4843 8.47486 41.7753 8.85509C42.3725 9.02102 42.9063 9.3622 43.3077 9.83458C43.7092 10.307 43.9597 10.8888 44.0271 11.5051C44.0897 12.0419 44.0709 12.5786 44.0718 13.1217C44.0718 14.3232 44.0718 15.5247 44.0817 16.7272C44.0817 16.9141 44.0396 17.0125 43.8303 16.9956C43.6217 16.9839 43.4126 16.9839 43.204 16.9956C42.9911 17.0054 42.9356 16.9141 42.9356 16.7075C42.9464 15.1177 42.9553 13.5279 42.9455 11.9372C42.9401 11.1803 42.669 10.5227 42.0365 10.0709C41.3843 9.60571 40.673 9.65133 39.9868 9.97341C39.2801 10.3044 38.8238 10.8591 38.8068 11.6733C38.7871 12.5151 38.8068 13.3579 38.8068 14.1998L38.8032 14.2033Z" fill="#165CB1"/>
<path d="M49.4221 8.70299C51.7169 8.69763 53.5688 10.5934 53.5751 12.9562C53.5814 15.208 51.6963 17.1181 49.516 17.1736C47.0629 17.2362 45.2512 15.1239 45.2539 12.9437C45.2593 10.7231 47.1783 8.59742 49.4221 8.70299ZM49.4114 16.1054C51.105 16.1134 52.4863 14.6999 52.5006 12.9445C52.5149 11.1892 51.1398 9.76047 49.4498 9.74884C47.7598 9.73721 46.3883 11.1517 46.3508 12.9007C46.3159 14.6793 47.8538 16.1975 49.4141 16.1054H49.4114Z" fill="#165CB1"/>
<path d="M27.1849 17.1344C24.8704 17.1406 23.0373 15.286 23.0158 12.9367C22.9934 10.5354 25.0449 8.61011 27.1831 8.65305C28.2924 8.67763 29.3478 9.13597 30.123 9.92976C30.8983 10.7235 31.3315 11.7895 31.3298 12.8991C31.3289 15.2297 29.4725 17.1272 27.1849 17.1344ZM27.1965 9.7159C25.4707 9.72663 24.0903 11.1581 24.0992 12.9277C24.0981 13.3426 24.1788 13.7536 24.3367 14.1372C24.4947 14.5208 24.7268 14.8694 25.0198 15.1631C25.3128 15.4569 25.6608 15.6899 26.044 15.8488C26.4272 16.0078 26.838 16.0895 27.2529 16.0894C28.857 16.0832 30.2858 14.5685 30.2688 12.8973C30.2518 11.1339 28.8704 9.70606 27.1965 9.7159Z" fill="#165CB1"/>
<path d="M74.62 14.6051C74.6576 13.5915 74.5959 12.8051 74.6603 12.0205C74.6931 11.5489 74.8207 11.0888 75.0354 10.6678C75.2501 10.2467 75.5476 9.87322 75.91 9.56977C76.2724 9.26632 76.6924 9.0391 77.1446 8.90172C77.5969 8.76433 78.0722 8.71959 78.5422 8.77019C80.421 8.94912 81.763 10.3922 81.7818 12.2763C81.7988 13.7624 81.7818 15.2493 81.7979 16.7353C81.7979 16.9965 81.7236 17.0726 81.4561 17.061C80.7073 17.0261 80.7064 17.0395 80.7091 16.2889C80.7091 15.0015 80.7279 13.714 80.7189 12.4266C80.71 11.2475 79.9746 10.2338 78.9296 9.92161C78.5607 9.81108 78.1712 9.78768 77.7918 9.85326C77.4123 9.91883 77.0533 10.0716 76.7429 10.2995C76.4325 10.5274 76.1793 10.8243 76.0031 11.1667C75.8269 11.5091 75.7326 11.8877 75.7276 12.2728C75.7035 13.7302 75.716 15.1884 75.7133 16.6458C75.7133 17.0529 75.7133 17.0529 75.317 17.044C74.6013 17.027 74.6075 17.027 74.6147 16.3059C74.6254 15.6644 74.62 15.0167 74.62 14.6051Z" fill="#165CB1"/>
<path d="M61.8059 14.4012C61.8059 15.1858 61.8006 15.9713 61.8059 16.7568C61.8059 16.9554 61.7522 17.0252 61.5474 17.01C61.3494 16.9935 61.1504 16.9935 60.9524 17.01C60.7574 17.0243 60.7109 16.9366 60.7127 16.7595C60.7216 15.6152 60.7243 14.4701 60.7279 13.3249C60.7279 12.9841 60.7279 12.6432 60.7279 12.3032C60.7263 11.6429 60.4646 11.0098 59.9996 10.5409C59.5346 10.0721 58.9037 9.80526 58.2434 9.7982C57.9164 9.7937 57.5918 9.85415 57.2884 9.97603C56.9849 10.0979 56.7087 10.2788 56.4757 10.5083C56.2427 10.7377 56.0575 11.0111 55.931 11.3126C55.8044 11.6141 55.7389 11.9378 55.7384 12.2648C55.7196 13.7311 55.7241 15.1983 55.7384 16.6647C55.7384 16.9331 55.6775 17.0467 55.3975 17.0064C55.2565 16.9881 55.1136 16.9881 54.9726 17.0064C54.7176 17.036 54.6254 16.9501 54.629 16.6817C54.6478 15.2153 54.6353 13.7481 54.6603 12.2818C54.6845 10.9049 55.2776 9.82146 56.5006 9.16926C57.7236 8.51706 58.9904 8.55195 60.175 9.29362C61.1958 9.9324 61.7388 10.904 61.8006 12.1037C61.839 12.8678 61.8077 13.6363 61.8077 14.403L61.8059 14.4012Z" fill="#165CB1"/>
<path d="M5.2937 14.2871C5.2937 13.54 5.26239 12.7912 5.29907 12.0451C5.42969 9.41925 7.97588 8.01375 10.2027 8.88872C11.5992 9.43715 12.3722 10.5331 12.4268 12.0334C12.4831 13.5821 12.4375 15.1361 12.4402 16.6856C12.4402 16.8646 12.3838 16.9308 12.1915 16.9299C11.3568 16.9299 11.3568 16.9299 11.3586 16.1023C11.3586 14.8256 11.3666 13.5481 11.3648 12.2705C11.3648 10.7049 10.1284 9.57492 8.5753 9.71091C7.38809 9.81469 6.3816 10.9294 6.37355 12.1676C6.36281 13.6438 6.36281 15.1197 6.37355 16.5953C6.37355 16.8511 6.31361 16.9352 6.04074 16.9245C5.29281 16.8959 5.29191 16.9102 5.29012 16.1587C5.29012 15.5324 5.29012 14.9062 5.29012 14.2853L5.2937 14.2871Z" fill="#165CB1"/>
<path d="M72.4233 12.9403C72.4233 11.711 72.4305 10.4808 72.418 9.2507C72.418 8.98946 72.4904 8.90894 72.7526 8.91431C73.4567 8.92684 73.4602 8.91431 73.4602 9.62288C73.4602 11.9785 73.4602 14.3341 73.4683 16.6906C73.4683 16.951 73.4003 17.0252 73.1346 17.0154C72.4189 16.9886 72.4189 17.0029 72.4189 16.2907C72.4189 15.1742 72.4189 14.0541 72.4189 12.9411L72.4233 12.9403Z" fill="#165CB1"/>
<path d="M73.4879 6.97629C73.4879 7.22142 73.4879 7.46745 73.4879 7.71348C73.4879 7.87631 73.4378 7.95236 73.258 7.94699C72.281 7.91925 72.4376 8.12592 72.4188 7.11943C72.4134 6.83583 72.4358 6.55222 72.4313 6.26862C72.4313 6.09505 72.4966 6.04585 72.6666 6.03958C73.4656 6.01185 73.4656 6.00738 73.4718 6.80541V6.97629H73.4879Z" fill="#165CB1"/>
<path d="M17.7986 16.0091C16.0218 16.0046 14.6539 14.6117 14.6602 12.8125C14.6655 11.1082 16.0916 9.66511 17.7297 9.64095C19.4546 9.61411 20.8718 11.2513 20.8145 12.9011C20.7555 14.5982 19.4278 16.0136 17.7986 16.0091Z" fill="#FCD203"/>
<path d="M70.1675 12.9183C70.1675 14.6557 68.7862 16.0737 67.1176 16.0889C65.5234 16.1032 63.9676 14.662 64.0168 12.8422C64.0624 11.1334 65.4482 9.71094 67.1534 9.71094C68.7897 9.70826 70.1693 11.1764 70.1675 12.9183Z" fill="#FCD203"/>
<path d="M49.4128 16.1027C47.8526 16.1922 46.3147 14.6766 46.3522 12.898C46.3898 11.149 47.7533 9.73453 49.4513 9.74616C51.1494 9.7578 52.5155 11.1973 52.5021 12.9419C52.4887 14.6864 51.1064 16.1107 49.4128 16.1027Z" fill="#FCD203"/>
<path d="M27.198 9.71489C28.8719 9.70505 30.2533 11.1329 30.2703 12.8918C30.2873 14.5657 28.8585 16.0777 27.2544 16.0839C26.84 16.0839 26.4296 16.0022 26.0468 15.8435C25.664 15.6848 25.3163 15.4522 25.0235 15.1589C24.7306 14.8657 24.4985 14.5176 24.3403 14.1346C24.1821 13.7516 24.101 13.3411 24.1016 12.9267C24.0918 11.1571 25.4722 9.72563 27.198 9.71489Z" fill="#FCD203"/>
</g>
<defs>
<clipPath id="clip0_3269_2986">
<rect width="88.9528" height="48.2415" fill="white" transform="translate(0.0234375 0.378906)"/>
</clipPath>
</defs>
</svg>
