<svg width="165" height="33" viewBox="0 0 165 33" fill="none" xmlns="http://www.w3.org/2000/svg">
<g clip-path="url(#clip0_3269_3182)">
<path d="M0 21.896C0.47483 20.4273 1.38247 19.7695 2.93816 19.7695H22.5169C23.2639 19.7695 23.6593 20.1599 23.6696 20.9249C23.678 21.5624 23.6696 22.2008 23.6696 22.8378C23.6696 23.6487 23.6696 24.4596 23.6696 25.2705C23.6712 25.6433 23.5536 26.0067 23.3344 26.3063C23.1888 26.5132 22.9725 26.658 22.7274 26.7127C16.8296 28.1521 10.9312 29.5924 5.03217 31.0337C4.16375 31.2454 3.30467 31.4963 2.42224 31.648C1.88895 31.7474 1.33808 31.6559 0.864219 31.389C0.387521 31.1192 0.132131 30.6873 0 30.1656V21.896Z" fill="#0B0B0B"/>
<path d="M165 12.7766C164.899 13.0558 164.916 13.354 164.862 13.6418C164.509 15.5429 163.614 17.0668 161.884 17.9978C160.725 18.6211 159.474 18.7969 158.178 18.7099C157.269 18.6494 156.4 18.4306 155.59 18.0011C154.321 17.3277 153.442 16.2947 152.959 14.9418C152.277 13.0379 152.27 11.1141 152.994 9.22395C153.741 7.26949 155.201 6.12875 157.201 5.70157C158.581 5.4067 159.958 5.47333 161.282 5.99975C163.257 6.78418 164.37 8.2987 164.813 10.3604C164.883 10.6911 164.93 11.0263 164.953 11.3637C164.956 11.3996 164.945 11.4449 165 11.4582V12.7766ZM161.833 12.0337C161.843 11.4371 161.776 10.8417 161.636 10.2621C161.29 8.85442 160.538 8.09172 159.219 7.93672C157.655 7.75243 156.396 8.29397 155.887 10.0367C155.483 11.418 155.489 12.821 155.873 14.2046C156.231 15.4956 157.069 16.2503 158.426 16.3438C159.981 16.4511 161.083 15.8354 161.56 14.2769C161.774 13.5775 161.838 12.8607 161.833 12.0337Z" fill="#0B0B0B"/>
<path d="M111.449 33.0005C111.596 31.9183 111.744 30.8362 111.891 29.7541C111.961 29.2404 112.045 28.7281 112.098 28.2126C112.121 27.9929 112.192 27.9064 112.411 27.9409C112.516 27.9497 112.621 27.9507 112.726 27.9437C112.718 28.0737 112.711 28.1876 112.704 28.3043C112.795 28.3128 112.826 28.2362 112.877 28.197C113.308 27.8662 113.789 27.7608 114.307 27.9102C114.842 28.0642 115.123 28.4545 115.207 28.9999C115.347 29.9138 114.724 31.2005 113.39 31.2048C112.976 31.2048 112.718 31.0848 112.353 30.6992C112.251 31.4888 112.154 32.2449 112.056 33.0005H111.449ZM112.513 29.6926C112.502 30.3514 112.977 30.7474 113.616 30.6113C114.202 30.4856 114.585 29.9691 114.58 29.3099C114.576 28.7603 114.225 28.412 113.683 28.4163C113.023 28.4257 112.527 28.9677 112.513 29.695V29.6926Z" fill="#BC8005"/>
<path d="M95.5742 33.0005C95.7214 31.9183 95.8687 30.8362 96.0159 29.7541C96.0864 29.2404 96.17 28.7281 96.2232 28.2126C96.2456 27.9929 96.3166 27.9064 96.5365 27.9409C96.641 27.9497 96.746 27.9507 96.8507 27.9437C96.8428 28.0737 96.8362 28.1876 96.8292 28.3043C96.9198 28.3128 96.9506 28.2362 97.0015 28.197C97.4334 27.8662 97.9138 27.7608 98.4321 27.9102C98.9671 28.0642 99.2482 28.4545 99.3322 28.9999C99.4723 29.9138 98.8495 31.2005 97.5146 31.2048C97.1014 31.2048 96.8428 31.0848 96.4781 30.6992C96.3763 31.4888 96.2788 32.2449 96.1812 33.0005H95.5742ZM96.6383 29.7002C96.6285 30.3476 97.0954 30.7426 97.7229 30.6183C98.3266 30.4988 98.7197 29.9643 98.7033 29.2834C98.6921 28.7716 98.3532 28.4286 97.848 28.4191C97.1659 28.4059 96.6481 28.9512 96.6383 29.7002Z" fill="#BC8005"/>
<path d="M16.2255 18.5388H4.62601C3.81922 18.5388 3.38595 18.1135 3.3654 17.2842C3.35373 16.8589 3.3626 16.4336 3.3626 16.0083C3.3626 14.8981 3.3626 13.7879 3.3626 12.6778C3.36 12.3626 3.42985 12.0512 3.56663 11.7681C3.75059 11.3901 4.02792 11.1396 4.44673 11.0267C9.66348 9.61597 14.8785 8.20037 20.0918 6.77989C22.6797 6.07673 25.268 5.37358 27.8567 4.67043C28.6308 4.46156 29.4073 4.4195 30.173 4.71768C31.0232 5.04847 31.4658 5.70106 31.4663 6.62111C31.4663 9.59817 31.4607 12.5752 31.4705 15.5523C31.4705 16.3471 31.1778 16.9921 30.6077 17.5134C29.8196 18.2345 28.8694 18.5393 27.8245 18.5412C23.958 18.5443 20.0917 18.5435 16.2255 18.5388Z" fill="#0B0B0B"/>
<path d="M39.3973 17.5482C39.3544 17.6281 39.3772 17.716 39.3772 17.7992C39.3772 19.3586 39.3726 20.918 39.3805 22.4774C39.3805 22.6711 39.3338 22.7302 39.1377 22.7278C38.2744 22.7165 37.4102 22.7189 36.5474 22.7278C36.3793 22.7278 36.3238 22.6929 36.3242 22.5091C36.3292 16.9894 36.3292 11.4694 36.3242 5.94904C36.3242 5.76002 36.3831 5.7312 36.5488 5.73403C37.0857 5.74443 37.6227 5.73639 38.1596 5.73876C38.6372 5.73876 38.8912 5.94951 38.9948 6.42206C39.0653 6.74434 39.1349 7.06709 39.2036 7.38937C39.2094 7.40493 39.2174 7.41957 39.2274 7.43285C39.3119 7.41772 39.3446 7.33834 39.3968 7.28588C40.219 6.45325 41.1356 5.78601 42.3173 5.58849C44.6424 5.20005 46.4549 6.22501 47.3508 8.43229C47.8822 9.7403 48.0092 11.1107 47.9541 12.5066C47.8966 13.9654 47.5446 15.3395 46.6972 16.5422C45.5337 18.1928 43.9271 18.8742 41.9447 18.6989C41.0193 18.6171 40.2256 18.2448 39.5327 17.6309C39.4944 17.5955 39.4678 17.5369 39.3973 17.5482ZM39.3763 12.3563C39.3763 13.2463 39.3763 14.1361 39.3763 15.0258C39.3694 15.1347 39.4027 15.2423 39.4697 15.3277C40.5968 16.7657 43.6199 16.9779 44.4654 14.4563C44.8212 13.3969 44.8637 12.3148 44.7965 11.217C44.7572 10.5781 44.6517 9.95153 44.3987 9.3599C44.0718 8.60004 43.5345 8.09772 42.7062 7.9725C42.2816 7.90925 41.8491 7.9272 41.4311 8.02542C40.6248 8.21019 40.0412 8.72952 39.508 9.32824C39.463 9.37596 39.428 9.43236 39.4051 9.49406C39.3822 9.55576 39.3717 9.62151 39.3744 9.68738C39.3791 10.5772 39.3763 11.467 39.3763 12.3563Z" fill="#0B0B0B"/>
<path d="M133.115 7.47302C133.522 7.01653 133.986 6.61531 134.495 6.27936C137.057 4.61598 140.089 5.58235 141.245 8.4304C141.806 9.81592 141.925 11.2657 141.837 12.7405C141.755 14.1133 141.393 15.4085 140.592 16.5408C139.424 18.189 137.821 18.8718 135.838 18.6965C134.913 18.6148 134.119 18.2419 133.426 17.6286C133.389 17.595 133.362 17.5364 133.292 17.5487C133.249 17.6286 133.272 17.7165 133.272 17.7996C133.272 19.359 133.267 20.9185 133.275 22.4779C133.275 22.6721 133.228 22.7302 133.032 22.7278C132.168 22.7165 131.304 22.7184 130.441 22.7278C130.273 22.7278 130.218 22.6919 130.219 22.5086C130.224 16.9889 130.224 11.469 130.219 5.94905C130.219 5.76003 130.279 5.7312 130.444 5.73404C130.981 5.74443 131.518 5.7364 132.054 5.73876C132.532 5.73876 132.786 5.94952 132.889 6.42254C132.963 6.75616 133.034 7.0945 133.115 7.47302ZM138.718 12.0142C138.718 10.8929 138.581 10.0465 138.297 9.37692C137.971 8.60572 137.431 8.09773 136.593 7.97156C136.169 7.90885 135.736 7.9276 135.319 8.02684C134.47 8.22437 133.871 8.78292 133.322 9.42275C133.264 9.48938 133.269 9.56452 133.269 9.64533C133.269 11.4486 133.269 13.2517 133.269 15.0546C133.265 15.1481 133.294 15.24 133.351 15.3136C134.472 16.7558 137.442 16.9632 138.319 14.5617C138.622 13.7357 138.719 12.8847 138.715 12.0142H138.718Z" fill="#0B0B0B"/>
<path d="M113.016 5.73888C112.206 6.71848 111.432 7.65365 110.658 8.5893C110.104 9.25937 109.549 9.9285 109 10.6024C108.765 10.8937 108.489 11.1485 108.18 11.3584C108.684 11.7492 108.981 12.279 109.319 12.7761C110.566 14.6089 111.812 16.4437 113.054 18.2803C113.106 18.3564 113.156 18.4334 113.23 18.545H112.605C111.905 18.545 111.204 18.5402 110.504 18.545C110.015 18.5492 109.661 18.363 109.38 17.9307C108.326 16.3074 107.241 14.7046 106.174 13.0899C105.998 12.8229 105.766 12.6901 105.456 12.6844C105.246 12.6802 105.036 12.6943 104.826 12.6764C104.64 12.6603 104.596 12.7236 104.597 12.9098C104.603 14.6975 104.597 16.4847 104.607 18.2723C104.607 18.5086 104.543 18.5516 104.327 18.5483C103.471 18.5346 102.615 18.5384 101.759 18.5483C101.6 18.5483 101.551 18.5128 101.551 18.3432C101.555 12.3037 101.555 6.26404 101.551 0.224235C101.551 0.0451389 101.597 0.00213693 101.771 0.00402713C102.627 0.0134781 103.482 0.0148958 104.339 0.00402713C104.545 0.00119183 104.609 0.0470291 104.608 0.2696C104.601 3.6247 104.605 6.9798 104.598 10.3349C104.598 10.5551 104.64 10.6614 104.873 10.6184C104.92 10.6115 104.967 10.6115 105.013 10.6184C105.492 10.6737 105.829 10.4767 106.128 10.0906C107.118 8.81471 108.142 7.56812 109.142 6.30169C109.448 5.91467 109.819 5.73132 110.31 5.73936C111.193 5.74928 112.078 5.73888 113.016 5.73888Z" fill="#0B0B0B"/>
<path d="M62.2251 12.0498C62.2139 13.3256 62.0169 14.5018 61.458 15.5967C60.7432 16.9964 59.6371 17.9297 58.1589 18.3984C56.7182 18.8659 55.1683 18.8596 53.7314 18.3805C52.0506 17.83 50.8609 16.7039 50.2344 15.0296C49.4724 12.9948 49.4817 10.9412 50.3478 8.94274C51.1765 7.03081 52.7084 5.99025 54.7077 5.64671C56.1228 5.40335 57.5165 5.51676 58.8369 6.12918C60.6344 6.96323 61.6382 8.43144 62.05 10.3505C62.1747 10.9298 62.2134 11.5181 62.2251 12.0498ZM59.0708 12.097C59.083 11.4787 59.0164 10.8613 58.8728 10.2602C58.5278 8.85248 57.7761 8.08932 56.4576 7.93338C54.8921 7.74861 53.6319 8.29062 53.1249 10.032C52.7237 11.3988 52.7211 12.8538 53.1174 14.2221C53.4802 15.5055 54.3169 16.246 55.6615 16.34C57.2186 16.4492 58.32 15.8311 58.7967 14.275C59.0087 13.5851 59.0745 12.8758 59.0708 12.097Z" fill="#0B0B0B"/>
<path d="M89.8962 16.9767C89.5913 17.221 89.314 17.4602 89.0194 17.6756C87.6005 18.7152 86.0261 18.9884 84.3505 18.5456C82.9432 18.1742 82.1173 17.0561 82.0337 15.5851C81.9688 14.4358 82.3998 13.5366 83.2817 12.8348C84.1282 12.161 85.1171 11.8283 86.1475 11.5939C87.2118 11.3589 88.2967 11.2322 89.3859 11.2159C89.5512 11.2126 89.6151 11.1809 89.61 10.9957C89.5941 10.4286 89.6333 9.86157 89.4643 9.30916C89.2122 8.48267 88.609 8.00918 87.756 7.94774C86.8791 7.8849 86.0817 8.10605 85.3281 8.5545C85.0036 8.74824 84.6983 8.98594 84.3075 9.05351C83.849 9.13195 83.4881 8.98026 83.2392 8.59703C83.0352 8.28231 82.8709 7.9416 82.679 7.61791C82.6197 7.51678 82.679 7.47898 82.7369 7.42605C83.7113 6.5542 84.8281 5.96115 86.1032 5.6899C87.1406 5.47064 88.186 5.39787 89.2262 5.65872C90.9962 6.10197 92.2101 7.48465 92.4907 9.3446C92.5524 9.74927 92.5836 10.1581 92.5841 10.5676C92.5819 13.143 92.5833 15.7183 92.5883 18.2937C92.5883 18.504 92.5374 18.5569 92.3339 18.548C91.9225 18.5295 91.5093 18.548 91.0971 18.5385C90.5415 18.5281 90.3103 18.3495 90.1465 17.8155C90.0629 17.5438 89.9844 17.2726 89.8962 16.9767ZM89.603 13.0858C88.7626 13.1113 87.9577 13.186 87.1644 13.3528C86.5701 13.4785 85.9832 13.6363 85.4887 14.0214C84.9943 14.4065 84.8612 14.9353 84.9789 15.5388C85.0863 16.0902 85.4523 16.3827 85.9594 16.5264C86.1092 16.5682 86.2628 16.5948 86.4179 16.6058C87.6547 16.7003 88.6622 16.2254 89.505 15.3379C89.5516 15.2869 89.6025 15.2434 89.6025 15.1603C89.6025 14.4765 89.603 13.7927 89.603 13.0858Z" fill="#0B0B0B"/>
<path d="M74.53 11.8473C74.53 10.6584 74.5267 9.46943 74.5337 8.28097C74.5337 8.10565 74.5034 8.03383 74.3101 8.0447C73.9688 8.06265 73.6256 8.05226 73.2829 8.04942C72.8688 8.04611 72.6535 7.82874 72.6479 7.40581C72.6433 7.0514 72.6512 6.69699 72.6447 6.34305C72.6423 6.2216 72.6666 6.1682 72.8016 6.14836C73.3618 6.06566 73.9221 5.96312 74.4824 5.87617C74.6224 5.85443 74.6897 5.81001 74.7158 5.65076C74.9026 4.57524 75.108 3.50208 75.3069 2.42845C75.3825 2.02253 75.6043 1.825 76.0119 1.81933C76.4709 1.81224 76.9298 1.82595 77.3883 1.81272C77.5662 1.80799 77.5877 1.88029 77.5867 2.03245C77.5816 3.22139 77.5895 4.41032 77.5788 5.59878C77.5788 5.80954 77.6316 5.85868 77.8356 5.85632C78.8077 5.84498 79.7802 5.85632 80.7523 5.84781C80.911 5.84781 80.9647 5.88373 80.9619 6.05385C80.9512 6.65965 80.9526 7.26593 80.9619 7.87222C80.9619 8.02201 80.9199 8.05415 80.7794 8.0532C79.7914 8.04706 78.8035 8.0532 77.816 8.04659C77.6465 8.04659 77.5788 8.07069 77.5793 8.2701C77.5877 10.4911 77.5839 12.7121 77.5858 14.9302C77.5815 15.0725 77.5907 15.215 77.6134 15.3555C77.7534 16.0804 78.3725 16.4268 79.1074 16.1962C79.3059 16.128 79.4969 16.0393 79.6775 15.9315C79.9628 15.7723 80.1402 15.795 80.3176 16.0667C80.6257 16.5392 80.9077 17.0283 81.2089 17.5051C81.2925 17.637 81.1898 17.6724 81.1225 17.7244C80.4334 18.2565 79.6481 18.5575 78.7965 18.6794C77.9953 18.7938 77.1941 18.7905 76.4293 18.4824C75.3732 18.0571 74.8204 17.2197 74.6131 16.1196C74.5356 15.708 74.5305 15.2908 74.5314 14.873C74.5319 13.8627 74.53 12.8529 74.53 11.8473Z" fill="#0B0B0B"/>
<path d="M144.843 11.8612C144.843 10.6647 144.84 9.46771 144.847 8.2698C144.847 8.10157 144.82 8.03353 144.635 8.04487C144.293 8.06282 143.951 8.05196 143.608 8.04959C143.179 8.04676 142.965 7.8308 142.961 7.39369C142.957 7.04732 142.965 6.70094 142.957 6.35409C142.954 6.22366 142.979 6.16507 143.126 6.14522C143.68 6.0663 144.23 5.96187 144.783 5.87728C144.934 5.8546 145.002 5.80546 145.031 5.63865C145.218 4.57069 145.421 3.50556 145.619 2.43996C145.697 2.01467 145.915 1.82565 146.337 1.81856C146.78 1.81289 147.224 1.82565 147.667 1.81289C147.847 1.80769 147.903 1.85306 147.9 2.04444C147.891 3.23337 147.9 4.42231 147.891 5.61077C147.891 5.81018 147.943 5.85744 148.136 5.85555C149.108 5.84515 150.08 5.85555 151.053 5.84704C151.222 5.84704 151.278 5.88201 151.274 6.06583C151.261 6.66361 151.264 7.26233 151.274 7.86152C151.277 8.01982 151.228 8.05479 151.08 8.05385C150.099 8.04723 149.119 8.05385 148.138 8.04629C147.955 8.04629 147.889 8.07464 147.89 8.28256C147.899 10.495 147.895 12.707 147.896 14.9195C147.893 15.0618 147.901 15.2041 147.922 15.3448C148.053 16.0702 148.673 16.426 149.405 16.2011C149.612 16.1311 149.81 16.0389 149.997 15.926C150.261 15.7767 150.442 15.7947 150.604 16.0404C150.922 16.5238 151.215 17.0252 151.522 17.5166C151.607 17.6523 151.483 17.683 151.42 17.7312C150.847 18.1675 150.185 18.4679 149.482 18.6101C148.759 18.7651 148.035 18.8015 147.306 18.6479C145.994 18.3705 145.133 17.4481 144.918 16.1084C144.865 15.7742 144.839 15.4362 144.84 15.0977C144.843 14.0174 144.844 12.9386 144.843 11.8612Z" fill="#0B0B0B"/>
<path d="M95.4783 9.27859C95.4783 6.27035 95.4764 3.26178 95.4727 0.252906C95.4727 0.0397861 95.5292 -0.00227074 95.7285 9.20021e-05C96.5923 0.0119057 97.456 0.0100155 98.3193 9.20021e-05C98.4841 9.20021e-05 98.5247 0.0440391 98.5247 0.208959C98.5201 6.24908 98.5201 12.2894 98.5247 18.3298C98.5247 18.5146 98.4696 18.5462 98.303 18.5443C97.4314 18.5361 96.5599 18.5361 95.6884 18.5443C95.5128 18.5443 95.4722 18.5009 95.4727 18.3251C95.4792 15.3105 95.4811 12.295 95.4783 9.27859Z" fill="#0B0B0B"/>
<path d="M67.3997 7.86166C67.7158 7.38438 68.0225 6.92317 68.4096 6.52056C69.2682 5.62792 70.3005 5.32879 71.4976 5.592C71.5504 5.60472 71.6025 5.6205 71.6535 5.63926C72.141 5.80418 72.147 5.81835 72.1008 6.33249C72.0481 6.91278 72.0004 7.49307 71.9528 8.07336C71.9201 8.46841 71.7329 8.64042 71.3421 8.60687C71.0559 8.5823 70.772 8.52795 70.4863 8.50007C69.4965 8.40556 68.7028 8.75194 68.1327 9.58693C67.9249 9.8922 67.7676 10.2258 67.6191 10.5632C67.5724 10.6686 67.5785 10.7782 67.5785 10.8879C67.5785 13.3369 67.5785 15.7861 67.5785 18.2355C67.5785 18.5403 67.5785 18.5403 67.2661 18.5403C66.4183 18.5403 65.5699 18.5365 64.722 18.5436C64.5708 18.5436 64.5269 18.5058 64.5273 18.3489C64.5317 14.2066 64.5317 10.0639 64.5273 5.9209C64.5273 5.78244 64.554 5.72857 64.7052 5.73188C65.273 5.74133 65.8412 5.72904 66.4089 5.73849C66.9174 5.74653 67.1125 5.90861 67.2026 6.41755C67.2769 6.83528 67.317 7.25868 67.3731 7.67973C67.381 7.74068 67.3908 7.80117 67.3997 7.86166Z" fill="#0B0B0B"/>
<path d="M117.595 7.92343C117.761 7.65927 117.887 7.43717 118.032 7.22878C118.544 6.49444 119.145 5.86689 120.04 5.62495C120.758 5.42979 121.468 5.43876 122.154 5.7738C122.295 5.84138 122.341 5.92738 122.324 6.08616C122.256 6.76757 122.204 7.45041 122.141 8.13229C122.111 8.45835 121.923 8.63083 121.595 8.61004C121.308 8.59208 121.024 8.54058 120.738 8.50844C119.618 8.3818 118.775 8.81796 118.193 9.79519C117.902 10.2833 117.751 10.7833 117.758 11.3726C117.787 13.6795 117.767 15.9875 117.776 18.2949C117.776 18.5104 117.716 18.5501 117.518 18.5478C116.655 18.5359 115.791 18.5388 114.927 18.5478C114.769 18.5478 114.718 18.5133 114.719 18.3431C114.723 14.2083 114.723 10.0737 114.719 5.93919C114.719 5.76624 114.775 5.73316 114.931 5.736C115.46 5.74498 115.989 5.736 116.518 5.74025C117.135 5.74309 117.352 5.94581 117.425 6.57005C117.474 7.0029 117.533 7.4367 117.595 7.92343Z" fill="#0B0B0B"/>
<path d="M127.128 12.1606C127.128 14.2072 127.126 16.2533 127.133 18.3C127.133 18.4947 127.089 18.548 126.893 18.5457C126.014 18.5339 125.136 18.5372 124.257 18.5457C124.109 18.5457 124.059 18.514 124.059 18.3534C124.063 14.2132 124.063 10.0732 124.059 5.93335C124.059 5.78166 124.095 5.73299 124.251 5.7344C125.146 5.74197 126.04 5.74197 126.935 5.7344C127.112 5.7344 127.131 5.80245 127.13 5.95367C127.127 8.02154 127.126 10.0905 127.128 12.1606Z" fill="#0B0B0B"/>
<path d="M125.585 3.94177C124.524 3.94177 123.641 3.06378 123.645 2.00432C123.647 0.920295 124.528 0.0271767 125.585 0.03521C126.653 0.0432434 127.542 0.928801 127.55 1.99251C127.556 3.04488 126.656 3.93941 125.585 3.94177Z" fill="#0B0B0B"/>
<path d="M52.863 29.1257H51.8471C51.898 28.5113 51.898 28.5113 52.4685 28.5113H53.5821C53.4765 29.2646 53.3724 29.9937 53.2744 30.7243C53.2613 30.8188 53.2062 30.8571 53.1343 30.8887C52.3807 31.2143 51.5992 31.3641 50.7905 31.1812C49.7293 30.9412 49.1204 29.9852 49.268 28.8426C49.5014 27.0379 51.1659 25.9128 52.8995 26.3853C53.1635 26.4566 53.4066 26.5913 53.6082 26.778C53.6955 26.8584 53.7189 26.9241 53.6082 26.9987C53.596 27.0085 53.5845 27.0191 53.5737 27.0304C53.4579 27.1353 53.357 27.2874 53.2216 27.3314C53.0862 27.3753 52.9914 27.1863 52.8677 27.1154C52.1912 26.7284 51.2032 26.8744 50.6023 27.4765C50.0967 27.9835 49.8754 28.6044 49.959 29.3222C50.0608 30.1988 50.8325 30.7399 51.8074 30.6255C52.6417 30.531 52.6431 30.531 52.7827 29.7078C52.8136 29.5235 52.8336 29.3374 52.863 29.1257Z" fill="#BC8005"/>
<path d="M64.894 30.2469C65.2077 29.5561 65.5196 28.8642 65.8371 28.1757C65.874 28.0949 65.8777 27.9631 65.9819 27.9527C66.1674 27.9343 66.3544 27.937 66.5393 27.9607C66.6131 27.9706 66.5996 28.094 66.614 28.1663C66.7452 28.8212 66.8704 29.4771 66.9978 30.1326C67.0034 30.1609 67.0128 30.1888 67.0263 30.2394C67.1197 30.1784 67.1304 30.0905 67.1612 30.0182C67.4218 29.4039 67.6865 28.7934 67.9339 28.1753C68.0063 27.9952 68.0992 27.9154 68.2911 27.9428C68.398 27.9513 68.5053 27.9522 68.6123 27.9456C68.6679 28.0316 68.6039 28.0874 68.5782 28.1464C68.158 29.075 67.7276 29.9988 67.3176 30.9345C67.1799 31.2487 66.9353 31.08 66.7378 31.1103C66.551 31.1391 66.5977 30.9581 66.5762 30.8608C66.4263 30.1878 66.2849 29.513 66.1397 28.8359C66.036 28.8453 66.037 28.9304 66.0113 28.9876C65.7255 29.6151 65.4342 30.2408 65.1634 30.8754C65.0831 31.0644 64.9883 31.1315 64.7847 31.1216C64.401 31.1027 64.4042 31.1155 64.3328 30.7303C64.1633 29.8117 63.9892 28.8935 63.8164 27.973C63.8404 27.9626 63.8655 27.9548 63.8911 27.9499C64.4887 27.9276 64.4841 27.9286 64.5732 28.5231C64.6596 29.0977 64.7567 29.6709 64.8492 30.245L64.894 30.2469Z" fill="#BC8005"/>
<path d="M110.87 27.2794C110.512 26.7785 109.75 26.8541 109.417 27.0961C108.923 27.4547 108.969 28.0317 109.522 28.2831C109.736 28.3746 109.956 28.4524 110.179 28.5161C111.197 28.8318 111.31 29.5755 110.872 30.3803C110.298 31.4322 108.837 31.4303 108.164 30.953C108.113 30.9171 108.07 30.8708 108.024 30.8302C107.864 30.6917 107.85 30.575 108.054 30.4573C108.188 30.3803 108.304 30.2721 108.427 30.1776C108.779 30.6709 109.517 30.8037 110.05 30.3987C110.17 30.311 110.267 30.1938 110.33 30.058C110.48 29.7244 110.401 29.4621 110.089 29.2788C109.9 29.1677 109.691 29.1039 109.485 29.0331C109.405 29.0052 109.323 28.9787 109.244 28.948C108.339 28.6002 108.103 27.6636 108.73 26.916C109.244 26.3017 110.34 26.0877 111.043 26.4638C111.098 26.4934 111.15 26.527 111.2 26.5645C111.481 26.7752 111.481 26.8007 111.213 27.0106C111.102 27.0966 110.992 27.1835 110.87 27.2794Z" fill="#BC8005"/>
<path d="M89.3968 27.4115C88.6876 26.7499 87.8318 26.7353 87.0908 27.3732C86.5544 27.8349 86.2971 28.4402 86.305 29.1429C86.3172 30.3385 87.4811 31.0095 88.5564 30.4585C88.767 30.3507 88.9397 30.1948 89.1106 30.0285C89.1634 30.0705 89.2129 30.1083 89.2609 30.148C89.6307 30.4585 89.6373 30.4684 89.2423 30.7415C88.4579 31.2845 87.6142 31.4504 86.7318 31.0284C85.8858 30.6234 85.4889 29.6887 85.6733 28.6538C85.9297 27.2159 87.1128 26.2386 88.5522 26.2911C89.0378 26.3095 89.486 26.4522 89.8296 26.8303C89.9398 26.9512 89.9734 27.0401 89.8021 27.136C89.6601 27.2182 89.5303 27.3198 89.3968 27.4115Z" fill="#BC8005"/>
<path d="M41.2373 26.0541C41.1313 26.8244 41.03 27.5635 40.9282 28.3072C41.03 28.3134 41.0529 28.2316 41.1024 28.1901C41.4983 27.8593 41.9465 27.7648 42.4349 27.9155C42.7827 28.0223 42.9952 28.3299 43.0017 28.725C43.0115 29.2155 42.8915 29.6928 42.8397 30.1776C42.8121 30.4351 42.7608 30.6908 42.7356 30.9488C42.723 31.0773 42.6805 31.1255 42.5488 31.1151C42.4087 31.1043 42.2719 31.1151 42.1165 31.1151C42.1996 30.4937 42.2776 29.8955 42.3602 29.2982C42.4176 28.88 42.3294 28.6087 42.0885 28.4892C41.8004 28.3474 41.3676 28.4315 41.1159 28.6815C40.9058 28.8899 40.8129 29.1541 40.7695 29.4376C40.6957 29.9196 40.6294 30.4025 40.5753 30.8874C40.5561 31.0665 40.4996 31.1236 40.3194 31.118C39.9403 31.1047 39.9459 31.1156 39.9982 30.7234C40.2041 29.2438 40.4132 27.7638 40.6051 26.2814C40.6313 26.0792 40.7018 26.0305 40.8797 26.0513C40.9988 26.0586 41.1181 26.0595 41.2373 26.0541Z" fill="#BC8005"/>
<path d="M46.0738 30.2139L46.4665 30.5627C45.916 31.1425 45.2638 31.3282 44.5191 31.1425C43.9341 30.9946 43.5956 30.4705 43.6016 29.7962C43.6124 28.6522 44.5079 27.7902 45.6177 27.855C46.2102 27.8895 46.6364 28.2718 46.742 28.8634C46.7527 28.9253 46.7658 28.9872 46.7714 29.0496C46.8297 29.7036 46.7924 29.7452 46.1546 29.7452C45.5715 29.7452 44.9874 29.7527 44.4042 29.7405C44.2217 29.7367 44.1974 29.8099 44.2175 29.9621C44.295 30.5518 45.0485 30.8793 45.6182 30.5688C45.7848 30.4762 45.9226 30.3491 46.0738 30.2139ZM44.3085 29.2688C44.8931 29.2688 45.4603 29.2688 46.0276 29.2688C46.107 29.2688 46.1677 29.258 46.1635 29.1573C46.1555 28.897 46.1065 28.656 45.8693 28.501C45.3156 28.1376 44.4005 28.5733 44.3071 29.2679L44.3085 29.2688Z" fill="#BC8005"/>
<path d="M62.9461 30.5618C62.4021 31.135 61.7564 31.3179 61.0187 31.1454C60.5149 31.0282 60.1601 30.5864 60.0919 30.0481C60.0538 29.7664 60.0774 29.4796 60.1611 29.2081C60.2448 28.9366 60.3865 28.6871 60.5761 28.4773C60.7658 28.2675 60.9987 28.1025 61.2585 27.9941C61.5182 27.8856 61.7984 27.8364 62.079 27.8498C62.6832 27.8777 63.1169 28.2614 63.2234 28.8625C63.2327 28.9168 63.2449 28.9707 63.2509 29.0255C63.3191 29.6828 63.2687 29.741 62.6323 29.741C62.0566 29.741 61.4805 29.7514 60.9048 29.7353C60.6947 29.7296 60.6714 29.8161 60.7022 29.9848C60.8021 30.5519 61.5276 30.8671 62.0823 30.5722C62.2069 30.5075 62.321 30.424 62.4208 30.3246C62.5203 30.2234 62.588 30.2159 62.6832 30.3198C62.7612 30.4054 62.8531 30.4791 62.9461 30.5618ZM60.7881 29.2661C61.3712 29.2661 61.9385 29.2661 62.5053 29.2661C62.5824 29.2661 62.6346 29.258 62.6454 29.1574C62.6729 28.915 62.5375 28.6111 62.3326 28.4854C61.7751 28.1442 60.8875 28.5766 60.7881 29.2661Z" fill="#BC8005"/>
<path d="M124.787 30.208L125.175 30.5511C124.699 31.1181 123.873 31.3544 123.195 31.1266C122.632 30.9376 122.315 30.4537 122.32 29.7945C122.331 28.6495 123.224 27.7876 124.335 27.8509C124.928 27.8845 125.355 28.2663 125.46 28.857C125.471 28.9189 125.484 28.9813 125.49 29.046C125.549 29.6995 125.51 29.7435 124.876 29.7435C124.3 29.7435 123.724 29.7548 123.148 29.7378C122.918 29.7307 122.91 29.8375 122.944 30.0048C123.058 30.5719 123.784 30.8677 124.336 30.5676C124.503 30.4714 124.655 30.3501 124.787 30.208ZM123.006 29.2662H124.683C124.714 29.2662 124.745 29.2662 124.776 29.2662C124.86 29.2709 124.885 29.2223 124.883 29.1486C124.876 28.9057 124.836 28.6694 124.621 28.5224C124.318 28.3136 123.988 28.3225 123.666 28.47C123.334 28.6212 123.095 28.8631 123.006 29.2662Z" fill="#BC8005"/>
<path d="M83.1221 29.2903C83.1221 30.3918 82.1249 31.3086 81.0449 31.1994C80.1779 31.1125 79.6382 30.3455 79.803 29.4368C79.9743 28.4917 80.8881 27.7796 81.8326 27.8528C82.5833 27.911 83.1217 28.5116 83.1221 29.2903ZM81.3013 30.6352C82.0277 30.6352 82.6025 29.9202 82.4797 29.167C82.4027 28.6944 82.088 28.4227 81.6127 28.4185C80.8801 28.4123 80.3054 29.1127 80.423 29.8753C80.4963 30.363 80.8105 30.6347 81.3008 30.6352H81.3013Z" fill="#BC8005"/>
<path d="M105.673 29.2824C105.678 30.3834 104.688 31.3016 103.604 31.2014C102.738 31.1216 102.193 30.3589 102.352 29.4468C102.516 28.4966 103.451 27.7698 104.397 27.8544C105.14 27.921 105.669 28.514 105.673 29.2824ZM103.842 30.6363C104.589 30.6424 105.166 29.9071 105.021 29.1317C104.941 28.7026 104.648 28.4436 104.219 28.4228C103.465 28.3822 102.859 29.0844 102.972 29.8688C103.044 30.357 103.353 30.6325 103.842 30.6363Z" fill="#BC8005"/>
<path d="M92.5852 27.9453C92.7902 27.9453 92.9825 27.9495 93.1744 27.9453C93.3103 27.9406 93.2916 28.0511 93.3093 28.1239C93.476 28.8186 93.6362 29.5142 93.8024 30.2093C93.815 30.2622 93.8332 30.3142 93.8621 30.4139C93.9359 30.266 93.9919 30.153 94.0489 30.0401C94.3585 29.4149 94.6722 28.7916 94.9734 28.1627C95.0499 28.002 95.1344 27.9141 95.3221 27.9429C95.4435 27.9614 95.5701 27.9462 95.6956 27.9462C95.7101 28.0407 95.649 28.1017 95.6153 28.1683C94.9813 29.3844 94.3455 30.5994 93.7081 31.8136C93.6301 31.9674 93.5418 32.1157 93.4438 32.2573C93.2979 32.4534 93.096 32.5993 92.8654 32.6754C92.6349 32.7515 92.3868 32.754 92.1547 32.6826C92.0501 32.6509 92.0077 32.6089 92.0441 32.5007C92.0601 32.4565 92.0713 32.4107 92.0777 32.3641C92.1006 32.1609 92.1636 32.0697 92.4045 32.1349C92.6641 32.2063 92.8994 32.0957 93.0446 31.8556C93.1739 31.6416 93.2781 31.4138 93.4032 31.1941C93.4499 31.1114 93.4107 31.0424 93.3911 30.9687C93.1343 30.0056 92.8772 29.0427 92.6197 28.08C92.6043 28.0441 92.5973 28.0062 92.5852 27.9453Z" fill="#BC8005"/>
<path d="M72.2342 27.9637C72.2442 27.9587 72.2547 27.9547 72.2655 27.9519C72.8953 27.9046 72.8972 27.9046 73.0452 28.5189C73.1932 29.1333 73.3384 29.7547 73.4967 30.4228C73.7376 29.9394 73.9566 29.5009 74.1741 29.0619C74.324 28.7599 74.4832 28.4622 74.6158 28.1527C74.6905 27.9793 74.7918 27.9193 74.9702 27.941C75.1003 27.9494 75.2308 27.9503 75.361 27.9439C75.3278 28.0152 75.3077 28.0639 75.2835 28.1107C74.623 29.3755 73.9626 30.6394 73.3024 31.9024C73.1129 32.2634 72.8934 32.5942 72.4588 32.6878C72.2451 32.7316 72.0248 32.7304 71.8116 32.6845C71.6977 32.6618 71.6426 32.6159 71.6875 32.4926C71.7067 32.441 71.7195 32.3872 71.7257 32.3324C71.7463 32.1368 71.8191 32.0758 72.0292 32.133C72.2883 32.2034 72.5279 32.107 72.6754 31.8674C72.8103 31.6482 72.921 31.4128 73.0489 31.1874C73.0956 31.1043 73.0489 31.0343 73.0312 30.9611C72.7772 30.0056 72.5224 29.0504 72.2669 28.0955C72.2505 28.0516 72.2431 28.0067 72.2342 27.9637Z" fill="#BC8005"/>
<path d="M56.3038 31.0922V30.6669C55.9769 31.0605 55.5805 31.224 55.1146 31.2065C54.7453 31.1928 54.4049 31.0936 54.2578 30.7141C54.1075 30.3248 54.1887 29.9496 54.4721 29.6419C54.8256 29.2582 55.3032 29.1746 55.7897 29.1344C55.9761 29.1194 56.1634 29.1181 56.35 29.1306C56.49 29.1401 56.5227 29.0687 56.5321 28.9534C56.5407 28.8343 56.5081 28.7159 56.44 28.6184C56.3719 28.5209 56.2724 28.4504 56.1586 28.419C55.7743 28.3037 55.4241 28.4086 55.0894 28.6056C55.0352 28.6378 54.9754 28.7308 54.911 28.6666C54.8136 28.5668 54.7282 28.4558 54.6566 28.3358C54.6346 28.2994 54.7032 28.2626 54.742 28.2375C55.2738 27.8774 55.8504 27.7475 56.4695 27.9294C56.9481 28.0712 57.1586 28.4294 57.09 28.9463C57.0116 29.5383 56.9297 30.1299 56.8444 30.7212C56.7856 31.1323 56.7828 31.1323 56.3649 31.113C56.344 31.1079 56.3235 31.1009 56.3038 31.0922ZM56.4359 29.5677C56.208 29.5677 55.9909 29.555 55.7757 29.571C55.504 29.5909 55.2364 29.6424 55.01 29.8158C54.8204 29.9609 54.7681 30.1594 54.8148 30.3829C54.8578 30.5865 55.0329 30.6352 55.2024 30.6692C55.3402 30.6958 55.4819 30.6936 55.6188 30.6626C56.0946 30.5558 56.3346 30.2406 56.4359 29.5677Z" fill="#BC8005"/>
<path d="M70.8272 30.6574C70.45 31.1119 69.9966 31.2532 69.4826 31.1932C69.1488 31.154 68.8565 31.0094 68.7547 30.6564C68.6478 30.2869 68.7192 29.9344 68.984 29.6466C69.3439 29.2558 69.8272 29.1698 70.3216 29.131C70.4999 29.1157 70.6791 29.1147 70.8576 29.1282C71.0107 29.1405 71.0444 29.0616 71.0514 28.9392C71.0571 28.8201 71.0219 28.7026 70.9516 28.6069C70.8814 28.5111 70.7805 28.443 70.6662 28.4142C70.2987 28.3078 69.9626 28.4042 69.639 28.5862C69.5741 28.6226 69.5092 28.7388 69.4219 28.6566C69.3277 28.5628 69.2453 28.4576 69.1768 28.3433C69.1506 28.3012 69.2165 28.2653 69.2534 28.2407C69.8071 27.866 70.4047 27.7313 71.0472 27.9463C71.486 28.0933 71.6765 28.4416 71.613 28.9326C71.5351 29.5322 71.4477 30.1314 71.3651 30.7282C71.3519 30.7903 71.3457 30.8537 71.3464 30.9173C71.3604 31.0661 71.3114 31.12 71.1545 31.1162C70.8212 31.1077 70.8207 31.1176 70.8272 30.6574ZM70.9547 29.5662C70.7264 29.5662 70.5093 29.5535 70.2941 29.5695C70.0223 29.5899 69.7548 29.6414 69.5284 29.8153C69.3393 29.9608 69.2874 30.1593 69.3351 30.3823C69.3785 30.5855 69.5536 30.6337 69.7235 30.6659C69.8613 30.6926 70.0031 30.6902 70.14 30.6588C70.6148 30.5534 70.8557 30.2358 70.9538 29.5662H70.9547Z" fill="#BC8005"/>
<path d="M116.43 28.6913C116.073 28.2708 115.984 28.344 116.543 28.0525C116.949 27.8414 117.416 27.7852 117.86 27.8942C118.382 28.0142 118.646 28.3719 118.583 28.9054C118.5 29.6076 118.4 30.3079 118.312 31.0097C118.302 31.0957 118.266 31.1146 118.194 31.1113C118.14 31.1056 118.086 31.1056 118.031 31.1113C117.825 31.1462 117.744 31.0687 117.793 30.858C117.798 30.8109 117.798 30.7633 117.793 30.7162C117.714 30.6978 117.693 30.7743 117.653 30.8107C117.3 31.1581 116.871 31.2516 116.404 31.1845C116.088 31.1373 115.816 30.9894 115.72 30.6567C115.666 30.487 115.657 30.3058 115.695 30.1316C115.732 29.9573 115.814 29.7961 115.933 29.6643C116.197 29.3576 116.556 29.239 116.938 29.1696C117.23 29.1223 117.527 29.1082 117.822 29.1275C117.973 29.1351 118.008 29.0632 118.017 28.9385C118.031 28.7022 117.88 28.4867 117.633 28.4116C117.31 28.3133 117.003 28.3847 116.708 28.5283C116.614 28.5765 116.523 28.6361 116.43 28.6913ZM117.921 29.5561C117.461 29.5476 117.003 29.5249 116.582 29.7579C116.343 29.8911 116.237 30.1303 116.302 30.3722C116.37 30.6279 116.588 30.6619 116.799 30.677C117.439 30.7233 117.834 30.3292 117.921 29.5561Z" fill="#BC8005"/>
<path d="M37.2896 31.1107C37.4792 29.7275 37.6631 28.3751 37.8527 26.9995C37.4035 26.9995 36.9768 26.9919 36.551 27.0033C36.389 27.0075 36.3563 26.956 36.3764 26.8029C36.4319 26.3833 36.4268 26.3828 36.8363 26.3828H40.0518C40.0844 26.5766 40.0167 26.7415 40.0051 26.9116C39.9976 27.0335 39.894 26.9976 39.8235 26.9981C39.4429 27.0009 39.062 27.0047 38.6814 26.9981C38.5414 26.9952 38.4839 27.0245 38.4634 27.1838C38.3009 28.4299 38.124 29.6741 37.9568 30.9198C37.9377 31.0615 37.898 31.1319 37.7416 31.1149C37.6057 31.0989 37.4661 31.1107 37.2896 31.1107Z" fill="#BC8005"/>
<path d="M122.179 28.3921C122.125 28.4394 122.086 28.4743 122.042 28.5084C121.938 28.5915 121.845 28.7026 121.727 28.7494C121.582 28.8075 121.526 28.6194 121.411 28.5674C121.28 28.5049 121.138 28.47 120.994 28.4647C120.849 28.4594 120.705 28.4839 120.57 28.5367C120.005 28.7503 119.659 29.5362 119.876 30.107C120.076 30.6329 120.743 30.8016 121.28 30.4675C121.355 30.4203 121.426 30.287 121.507 30.3456C121.63 30.4345 121.724 30.5696 121.815 30.6958C121.857 30.7534 121.779 30.7903 121.742 30.8229C121.229 31.2955 120.196 31.3427 119.653 30.9094C119.224 30.5658 119.14 30.0933 119.195 29.5711C119.316 28.3898 120.519 27.6034 121.622 27.99C121.846 28.0604 122.041 28.2014 122.179 28.3921Z" fill="#BC8005"/>
<path d="M58.2247 28.4699H57.5977C57.58 28.4392 57.566 28.4269 57.5664 28.4151C57.5828 27.9449 57.5837 27.9288 58.0361 27.952C58.2607 27.9633 58.3447 27.8892 58.3429 27.6765C58.3456 27.6373 58.3509 27.5983 58.3587 27.5598C58.4227 27.0159 58.4227 27.0159 59.0063 27.0608C59.0138 27.2933 58.9596 27.5201 58.9232 27.7474C58.9003 27.8953 58.9293 27.96 59.095 27.9482C59.3033 27.9336 59.5152 27.9449 59.7146 27.9449C59.7281 27.9718 59.7412 27.9851 59.7398 27.9964C59.6791 28.469 59.6791 28.469 59.2122 28.469C59.1736 28.4728 59.1346 28.4728 59.096 28.469C58.8751 28.4217 58.8037 28.5266 58.7831 28.7393C58.743 29.1532 58.6823 29.5658 58.6225 29.9783C58.5376 30.5614 58.7005 30.7197 59.2715 30.5992C59.3019 30.5931 59.3327 30.5898 59.3728 30.5836C59.4242 30.7424 59.3551 30.8913 59.3406 31.0425C59.3322 31.1341 59.2505 31.1412 59.1856 31.1582C59.0346 31.1967 58.8791 31.214 58.7234 31.2098C58.1631 31.1994 57.9213 30.9442 57.981 30.3818C58.0408 29.8195 58.1253 29.2595 58.1986 28.6986C58.2075 28.6273 58.2145 28.5583 58.2247 28.4699Z" fill="#BC8005"/>
<path d="M77.8847 28.4619H77.239C77.2278 28.4368 77.2227 28.4302 77.2227 28.4236C77.2259 27.9449 77.2264 27.9369 77.7064 27.9487C77.8903 27.9529 77.9972 27.9255 77.9949 27.7077C77.9949 27.5659 78.0537 27.4275 78.0495 27.2885C78.0425 27.0683 78.1429 27.0215 78.3334 27.0442C78.4477 27.0515 78.5622 27.0523 78.6766 27.0466C78.6373 27.3533 78.6014 27.6373 78.5617 27.9444H79.3918C79.3503 28.4642 79.3503 28.4642 78.8535 28.4642C78.4777 28.4642 78.48 28.4642 78.4333 28.8423C78.3866 29.2203 78.3325 29.6059 78.276 29.9868C78.1924 30.5501 78.3591 30.7093 78.9189 30.5954C78.9548 30.5883 78.9917 30.5846 79.0333 30.5784C79.0739 30.7396 79.0113 30.8818 78.9997 31.0278C78.9922 31.1223 78.9161 31.1337 78.8507 31.1512C78.6321 31.2108 78.4035 31.2232 78.1798 31.1875C77.7769 31.1195 77.5826 30.8709 77.6289 30.456C77.6942 29.8701 77.7773 29.2865 77.853 28.7024C77.8614 28.6348 77.8707 28.5654 77.8847 28.4619Z" fill="#BC8005"/>
<path d="M100.438 28.4652C100.248 28.4652 100.085 28.4586 99.9245 28.4652C99.8036 28.4718 99.7644 28.4378 99.7751 28.3079C99.805 27.9416 99.7989 27.9412 100.162 27.9412C100.193 27.9383 100.224 27.9383 100.255 27.9412C100.456 27.9771 100.548 27.8986 100.553 27.686C100.556 27.53 100.607 27.3755 100.612 27.2191C100.617 27.0721 100.675 27.0391 100.812 27.0391C101.226 27.0391 101.223 27.032 101.18 27.4488C101.164 27.6047 101.111 27.7569 101.133 27.9379H101.934C101.942 27.9579 101.947 27.9789 101.949 28.0002C101.885 28.4624 101.885 28.4624 101.413 28.4624C101.035 28.4624 101.037 28.4624 100.985 28.8584C100.939 29.2322 100.886 29.606 100.83 29.9793C100.746 30.5463 100.912 30.7103 101.466 30.5936C101.503 30.586 101.541 30.5813 101.584 30.5747C101.631 30.7311 101.562 30.8733 101.554 31.0189C101.549 31.1006 101.49 31.1252 101.431 31.1394C101.326 31.1666 101.219 31.1853 101.11 31.1951C100.393 31.2452 100.138 30.991 100.197 30.2699C100.221 29.9727 100.271 29.6778 100.311 29.382C100.351 29.0862 100.392 28.7955 100.438 28.4652Z" fill="#BC8005"/>
<path d="M91.1093 27.9433C91.0985 28.0851 91.0901 28.1947 91.0822 28.3053C91.1686 28.3157 91.1891 28.242 91.2302 28.2037C91.3887 28.0518 91.5825 27.9429 91.7937 27.8871C91.9614 27.8446 92.1822 27.7751 92.2816 27.8951C92.3965 28.0336 92.2513 28.2467 92.235 28.4296C92.2284 28.5014 92.178 28.4971 92.1145 28.4915C91.4067 28.4291 91.0257 28.7216 90.9155 29.4262C90.8399 29.9072 90.7722 30.3902 90.725 30.8745C90.7063 31.0683 90.6438 31.1382 90.4561 31.1141C90.3423 31.1072 90.2281 31.1072 90.1143 31.1141C90.1036 30.7942 90.1788 30.4998 90.2156 30.1993C90.3001 29.5136 90.4024 28.8289 90.4916 28.1442C90.5112 27.9896 90.5644 27.923 90.725 27.9428C90.853 27.9504 90.9813 27.9505 91.1093 27.9433Z" fill="#BC8005"/>
</g>
<defs>
<clipPath id="clip0_3269_3182">
<rect width="165" height="33" fill="white"/>
</clipPath>
</defs>
</svg>
