<svg width="131" height="53" viewBox="0 0 131 53" fill="none" xmlns="http://www.w3.org/2000/svg">
<g clip-path="url(#clip0_3269_3664)">
<path d="M2.19531 18.1193C5.25239 8.68086 14.6422 0.944744 26.0651 0.819546C31.6757 0.731652 37.1594 2.49145 41.6712 5.82771C46.1829 9.16396 49.4721 13.8915 51.0319 19.2816C54.3767 30.9754 49.3389 43.0935 38.8522 48.903L25.6952 31.5248C26.3791 31.493 26.8967 31.4949 27.4068 31.4407C29.0587 31.2632 30.6321 30.9082 31.97 29.8038C33.0209 28.9642 33.7384 27.7778 33.9937 26.4571C34.6515 23.0487 33.577 20.1729 30.2191 18.749C29.2512 18.3379 28.0945 18.237 27.0219 18.2258C20.2033 18.1529 13.3809 18.1454 6.56416 18.1193C5.13279 18.1156 3.70329 18.1193 2.19531 18.1193ZM45.6969 21.7369C43.8732 14.0756 36.9817 7.46625 28.2888 6.64219C19.8183 5.83868 12.5681 10.5663 9.51846 16.0881C9.5729 16.1073 9.6293 16.1205 9.68663 16.1273C10.4023 16.1273 11.1217 16.0844 11.8337 16.1442C12.5456 16.2039 12.9549 15.9031 13.3865 15.3967C16.1278 12.1808 19.5997 10.2131 23.7686 9.56659C27.3875 8.97501 31.1005 9.59997 34.3263 11.3436C37.2789 12.8965 39.7127 15.279 41.3281 18.1978C41.9597 19.3189 42.4306 20.5354 42.9912 21.7482L45.6969 21.7369ZM42.7408 32.8291C42.0913 34.6408 41.168 36.3423 40.0032 37.8744C38.7944 39.397 37.375 40.7397 35.7876 41.8621C36.2585 42.5964 36.6902 43.2747 37.1312 43.9493C37.196 44.0244 37.2701 44.091 37.3516 44.1474C41.3972 41.3444 44.174 37.6334 45.5736 32.8254L42.7408 32.8291Z" fill="url(#paint0_linear_3269_3664)"/>
<path d="M1.47286 20.582H2.44267C10.474 20.582 18.5091 20.582 26.548 20.582C27.1669 20.6098 27.7831 20.6804 28.3923 20.7932C30.0311 21.0249 31.0214 22.062 31.4606 23.5531C31.9539 25.2349 31.5222 26.7803 30.2161 27.9668C29.3845 28.7143 28.2951 28.9703 27.187 28.9946C25.2567 29.0357 23.3283 29.0338 21.3943 29.0506H20.7403C26.0864 36.0898 31.3372 42.9981 36.6647 50.0092C33.7131 51.3058 30.5432 52.0336 27.3216 52.1543C21.9194 52.3412 16.8928 50.9603 12.3987 47.9985C2.37727 41.4079 -0.872269 29.8841 1.47286 20.582ZM31.6605 46.797L30.0105 44.3155C23.7674 45.3638 18.2868 43.8931 13.8974 39.1879C9.50795 34.4827 8.29148 28.9273 9.57335 22.6898H6.73865C5.3951 30.0149 7.16843 36.4691 12.4025 41.6807C17.7037 46.9577 24.2234 48.518 31.6605 46.797Z" fill="#444444"/>
<path d="M95.3459 29.7297C93.3633 29.8511 93.3614 29.853 92.2533 28.3543C91.1097 26.8109 89.9698 25.2636 88.7216 23.5725V29.7072H86.625V20.0558C87.1856 20.0558 87.7462 19.996 88.2937 20.0801C88.6046 20.1654 88.8762 20.3564 89.0617 20.6201C90.2651 22.2066 91.4367 23.8154 92.6214 25.415C92.7989 25.6523 92.9951 25.8765 93.3072 26.2577V20.0913H95.3459V29.7297Z" fill="#F15C22"/>
<path d="M100.062 43.042V33.3251H101.989C103.078 33.3251 104.173 33.2709 105.255 33.3588C107.402 33.5344 108.456 35.4628 107.361 37.1334C107.149 37.4107 106.918 37.673 106.67 37.9182C106.999 38.1564 107.312 38.4174 107.604 38.6993C107.897 39.0037 108.107 39.3777 108.215 39.7859C108.323 40.1942 108.326 40.6232 108.222 41.0325C108.118 41.4419 107.912 41.818 107.622 42.1255C107.333 42.4329 106.97 42.6615 106.567 42.7897C106.157 42.9375 105.726 43.0188 105.291 43.0308C103.579 43.0532 101.869 43.042 100.062 43.042ZM102.157 41.3079C103.155 41.3079 104.056 41.3546 104.951 41.293C105.719 41.2406 106.236 40.6576 106.201 40.0372C106.165 39.4169 105.665 38.9516 104.925 38.9161C104.007 38.8768 103.088 38.9067 102.157 38.9067V41.3079ZM102.168 37.2474C102.957 37.2474 103.695 37.2679 104.429 37.2474C105.164 37.2268 105.627 36.8157 105.674 36.2439C105.723 35.6348 105.269 35.1227 104.497 35.0742C103.725 35.0256 102.97 35.0611 102.168 35.0611V37.2474Z" fill="#0B0B0B"/>
<path d="M67.2698 39.6876L69.5439 42.9745H67.2007L65.0406 39.8913H63.5008V42.9951H61.4453V33.3231C62.5179 33.3231 63.6241 33.3081 64.7285 33.3231C65.4101 33.3038 66.0921 33.3488 66.7653 33.4576C68.3013 33.7809 69.2375 34.8067 69.4094 36.2138C69.5757 37.5742 68.9292 38.7234 67.5725 39.4802C67.4959 39.5288 67.4268 39.5848 67.2698 39.6876ZM63.5027 37.9871C64.323 37.9871 65.0648 38.0245 65.8011 37.9778C66.6775 37.9217 67.2773 37.3275 67.281 36.6006C67.281 35.9018 66.7429 35.2926 65.9057 35.2272C65.1172 35.158 64.3193 35.2122 63.5027 35.2122V37.9871Z" fill="#0B0B0B"/>
<path d="M75.6855 29.9581C72.8919 29.9468 70.5337 27.6204 70.543 24.8829C70.5523 22.1453 72.9554 19.8376 75.7415 19.8675C78.5276 19.8974 80.8092 22.1678 80.8204 24.8922C80.8317 27.6484 78.4791 29.9693 75.6855 29.9581ZM78.7294 24.9128C78.7294 23.2179 77.3205 21.7361 75.7079 21.7361C74.0953 21.7361 72.6788 23.2161 72.6807 24.9128C72.6826 26.6095 74.0878 28.0894 75.7023 28.0894C77.3168 28.0894 78.7294 26.6057 78.7294 24.924V24.9128Z" fill="#F15C22"/>
<path d="M88.2763 7.02344V8.8304H82.9657V10.8691H87.7493V12.7209H82.9769V14.7951H88.2557V16.6506H80.8672V7.02344H88.2763Z" fill="#0B0B0B"/>
<path d="M78.324 35.1806H73.0601V37.2249H77.8157V39.1066H73.0601V41.1116H78.3427V42.9802H70.9766V33.3867H78.324V35.1806Z" fill="#0B0B0B"/>
<path d="M72.4334 10.8686H76.8452V7.01919H78.9007V16.637H76.8826V12.8362H72.4745V16.6333H70.3984V7.01172H72.4334V10.8686Z" fill="#0B0B0B"/>
<path d="M81.9962 39.8627V42.9815H79.9258V33.3636C81.6075 33.3636 83.2893 33.2197 84.9281 33.3973C87.3835 33.6589 88.6429 36.0694 87.5255 38.1249C86.864 39.3395 85.7391 39.7936 84.4292 39.8571C83.6556 39.8926 82.8782 39.8627 81.9962 39.8627ZM82.0392 35.1911V37.9941C82.8109 37.9941 83.5248 38.0221 84.233 37.9941C85.1673 37.9455 85.7933 37.3457 85.7839 36.5889C85.7839 35.8639 85.1822 35.2808 84.289 35.2192C83.5603 35.1594 82.8184 35.2024 82.0392 35.2024V35.1911Z" fill="#0B0B0B"/>
<path d="M89.2305 33.3594H91.3196C91.3196 35.0636 91.3084 36.7341 91.3289 38.4047C91.3213 38.8694 91.3785 39.3329 91.499 39.7818C91.6365 40.2381 91.9173 40.6379 92.2998 40.9221C92.6823 41.2063 93.1461 41.3598 93.6227 41.3598C94.0992 41.3598 94.5631 41.2063 94.9456 40.9221C95.3281 40.6379 95.6089 40.2381 95.7464 39.7818C95.862 39.3632 95.9192 38.9306 95.9164 38.4962C95.9332 36.8145 95.9164 35.1327 95.9164 33.3911H97.97C97.97 35.4261 98.1027 37.4797 97.9345 39.509C97.7365 41.8728 95.7912 43.3472 93.3863 43.2276C90.9814 43.108 89.3445 41.4487 89.2323 39.0437C89.2323 38.8886 89.2323 38.7317 89.2323 38.5766L89.2305 33.3594Z" fill="#0B0B0B"/>
<path d="M69.8862 21.4941L68.4342 22.8022C67.6868 22.1388 66.8982 21.6137 65.8555 21.7445C65.1059 21.8432 64.4218 22.2233 63.9421 22.8078C63.4085 23.4271 63.1309 24.2264 63.1656 25.0432C63.2003 25.8599 63.5448 26.6328 64.1289 27.2046C65.3566 28.4211 66.816 28.3725 68.4155 27.0178L69.8301 28.2828C68.1689 30.3664 64.9063 30.5252 62.7499 28.6435C62.2395 28.2082 61.8239 27.6729 61.5286 27.0707C61.2332 26.4684 61.0645 25.812 61.0328 25.142C61.0011 24.472 61.1071 23.8026 61.3443 23.1752C61.5814 22.5478 61.9447 21.9756 62.4116 21.4941C64.4148 19.3545 67.7129 19.3265 69.8862 21.4941Z" fill="#F15C22"/>
<path d="M128.783 36.0848C127.151 34.6926 125.668 34.6665 124.425 35.9484C123.844 36.5462 123.519 37.3469 123.519 38.1804C123.519 39.014 123.844 39.8147 124.425 40.4125C125.653 41.6963 127.151 41.6701 128.777 40.2854L130.192 41.5505C128.532 43.634 125.268 43.7929 123.111 41.9111C122.601 41.4763 122.185 40.9414 121.889 40.3395C121.594 39.7377 121.425 39.0816 121.392 38.4118C121.36 37.742 121.466 37.0728 121.702 36.4453C121.939 35.8178 122.301 35.2455 122.767 34.7636C124.778 32.6241 128.073 32.596 130.242 34.7636L128.783 36.0848Z" fill="#0B0B0B"/>
<path d="M61.0078 7.00391H69.0037V8.82208H66.0849V16.6385H63.9845V8.8688H61.0078V7.00391Z" fill="#0B0B0B"/>
<path d="M116.469 41.159V42.9679H109.605V33.3594H111.633V41.159H116.469Z" fill="#0B0B0B"/>
<path d="M82.3672 20.0938H84.3704V29.7303H82.3672V20.0938Z" fill="#F15C22"/>
<path d="M119.856 43.0166H117.887V33.3633H119.856V43.0166Z" fill="#0B0B0B"/>
</g>
<defs>
<linearGradient id="paint0_linear_3269_3664" x1="27.1264" y1="0.816406" x2="27.1264" y2="70.4813" gradientUnits="userSpaceOnUse">
<stop stop-color="#E65425"/>
<stop offset="1" stop-color="#1E1E1E"/>
</linearGradient>
<clipPath id="clip0_3269_3664">
<rect width="129.488" height="51.3611" fill="white" transform="translate(0.753906 0.820312)"/>
</clipPath>
</defs>
</svg>
