<svg width="167" height="31" viewBox="0 0 167 31" fill="none" xmlns="http://www.w3.org/2000/svg">
<g clip-path="url(#clip0_3357_4351)">
<path d="M158.611 11.9367L160.273 17.0401H156.712L158.73 11.9367H158.611ZM151.016 22.6182H155.051L156 20.0072H161.104L162.053 22.6182H166.088L160.51 7.78275H156.594L151.016 22.6182ZM146.268 22.6182H150.303V7.78275H146.268V22.6182ZM133.213 17.5148C133.213 21.0753 136.061 22.6182 139.385 22.6182C142.47 22.6182 145.556 21.4314 145.556 17.8709C145.556 15.2598 143.42 14.3103 141.402 13.7169C139.147 13.1235 137.13 13.1235 137.13 11.9367C137.13 10.9872 138.316 10.7498 138.91 10.7498C140.097 10.7498 141.283 11.1059 141.283 12.4114H144.844C144.844 9.20695 141.996 7.66406 139.147 7.66406C136.417 7.66406 133.213 8.8509 133.213 12.174C133.213 14.7851 135.587 15.7345 137.486 16.2093C139.622 16.8027 141.64 17.0401 141.64 18.3456C141.64 19.5324 140.453 19.7698 139.266 19.7698C137.723 19.7698 136.655 19.1764 136.655 17.3961H133.094L133.213 17.5148ZM126.448 11.9367L128.11 17.0401H124.549L126.567 11.9367H126.448ZM118.971 22.6182H122.888L123.837 20.0072H129.059L130.009 22.6182H134.044L128.466 7.78275H124.43L118.971 22.6182ZM105.916 22.6182H107.459V10.0377L116.123 22.6182H117.784V7.78275H116.36V20.2445L107.577 7.90143H105.916V22.6182ZM102.83 22.6182H104.254V7.78275H102.83V22.6182ZM88.1132 22.6182H92.0298V16.684H97.1332V22.6182H100.931V7.78275H97.1332V13.1235H92.0298V7.90143H88.1132V22.6182ZM86.9264 13.1235C86.9264 9.80037 83.7219 7.78275 80.6362 7.78275C76.3636 7.78275 73.5151 11.1059 73.5151 15.2598C73.5151 19.2951 76.3636 22.6182 80.6362 22.6182C84.1967 22.6182 86.9264 20.4819 87.1638 16.684H83.6032C83.3659 18.4643 82.4164 19.4137 80.6362 19.4137C78.2625 19.4137 77.313 17.2774 77.313 15.2598C77.313 13.1235 78.2625 10.9872 80.6362 10.9872C82.179 10.9872 83.3659 11.6993 83.4846 13.1235H87.0451H86.9264ZM61.1721 22.6182H73.2778V19.2951H64.9699V16.4466H72.3283V13.4796H65.2073V10.7498H73.0404V7.90143H61.1721V22.6182ZM59.9852 7.78275H47.5234V11.1059H51.9147V22.6182H55.8313V11.1059H60.2226V7.78275H59.9852Z" fill="#0B0B0B"/>
</g>
<g clip-path="url(#clip1_3357_4351)">
<path d="M30.5982 12.7721C30.9542 13.0095 31.3103 12.7721 31.1916 12.2974L29.2927 8.97424H28.5806L16.7122 29.9812C16.2375 30.456 15.5254 30.456 15.288 29.9812L11.2528 23.2163L11.0154 22.2668V16.3326C11.0154 15.7392 10.778 15.3832 10.422 15.1458L0.927295 6.83794C0.333877 6.48189 0.571244 5.6511 1.40203 5.6511H18.3738L22.5277 8.02477C22.7651 8.26214 22.7651 8.49951 22.5277 8.61819L20.8661 11.704C20.8661 11.9413 20.6288 12.06 20.5101 11.9413L17.1869 10.1611L16.4748 9.92371H12.0836C11.7275 9.92371 11.6088 10.3984 11.8462 10.6358L14.8133 13.0095C15.1693 13.3655 15.288 13.8403 15.288 14.1963V22.0294C15.288 22.5042 15.8814 22.6229 16.1188 22.2668L28.4619 0.903757C28.6993 0.547706 29.6487 0.547706 29.6487 0.903757L42.3479 22.8602C42.9413 23.5723 42.1105 24.2844 41.3984 24.0471L26.6816 15.3832C26.4443 15.3832 26.3256 15.0271 26.4443 14.9084L28.2245 11.9413C28.2245 11.704 28.5806 11.704 28.8179 11.704L30.5982 12.8908V12.7721Z" fill="#B22F27"/>
</g>
<defs>
<clipPath id="clip0_3357_4351">
<rect width="119.87" height="16.6157" fill="white" transform="translate(46.5742 7.19531)"/>
</clipPath>
<clipPath id="clip1_3357_4351">
<rect width="42.7261" height="29.6709" fill="white" transform="translate(0.566406 0.664062)"/>
</clipPath>
</defs>
</svg>
