<svg width="115" height="39" viewBox="0 0 115 39" fill="none" xmlns="http://www.w3.org/2000/svg">
<g clip-path="url(#clip0_3269_3010)">
<path d="M25.3499 38.7409L20.2232 38.7269C19.4781 38.7249 18.7669 38.2506 18.7012 37.5084C18.6962 37.4525 18.7003 37.4789 18.7001 37.4228C18.6978 36.3028 18.6705 22.9674 18.6767 16.1542C18.6769 15.9725 18.6767 15.6138 18.6767 15.6138L20.9625 15.3531L23.6929 14.3502L26.1483 13.3923C26.1483 13.3923 26.8331 12.1069 29.9368 8.90142L26.9704 6.33646L33.0534 5.44141C32.2849 7.37318 31.5509 9.16973 30.7932 11.08C30.5528 10.6336 30.3639 10.2773 30.1192 9.83082C28.8078 12.0008 26.1483 15.1914 26.1483 15.1914C26.1483 15.1914 26.1483 16.9719 26.1483 17.3561C26.1398 23.97 26.1483 37.1976 26.1483 37.1976C26.1483 37.1976 26.172 38.5112 25.3499 38.7409Z" fill="#0B0B0B"/>
<path d="M16.914 37.3011C16.914 38.0788 16.2836 38.7092 15.506 38.7092H10.8565C10.1466 38.7092 9.57113 38.1337 9.57113 37.4238C9.57113 37.4221 9.57114 37.4228 9.57113 37.4211C9.57093 37.3679 9.52544 25.4753 9.57113 19.5245C9.57113 19.0633 9.57113 18.5846 9.57113 18.5846L13.6643 15.9443L16.914 15.8633C16.914 15.8633 16.914 16.3478 16.914 16.6161C16.914 23.5118 16.914 37.3011 16.914 37.3011Z" fill="#0B0B0B"/>
<path d="M6.87511 38.7407C5.18388 38.7407 2.85831 38.7407 1.50401 38.7407C0.894293 38.7407 0.401566 38.2464 0.401566 37.6367C0.401566 37.6358 0.401568 37.6362 0.401566 37.6353C0.401488 37.6049 0.367188 24.1223 0.367188 17.2852L7.7208 19.0023C7.7208 25.2269 7.7208 31.3764 7.7208 37.5237C7.7208 37.536 7.7208 37.6953 7.7208 37.8948C7.7208 38.3618 7.34217 38.7407 6.87511 38.7407Z" fill="#0B0B0B"/>
<path d="M101.285 36.9645V23.7383H104.554L109.549 30.5531V23.7447H113.12V36.9516H110.036L104.921 29.9908V36.9645H101.285Z" fill="#0B0B0B"/>
<path d="M78.3789 17.2868V3.97906C79.7118 3.97906 81.0512 3.93828 82.3906 3.97906C83.5947 4.02414 84.8439 3.99194 85.9901 4.30532C87.4583 4.68676 88.7407 5.58299 89.6035 6.83072C90.4663 8.07845 90.8522 9.59463 90.6907 11.103C90.3301 14.6124 88.1537 16.9928 84.8117 17.2503C82.6911 17.4199 80.5468 17.2868 78.3789 17.2868ZM82.1759 13.9642C83.893 14.0393 85.4986 14.0243 86.4172 12.3994C87.1169 11.1588 87.0826 9.83877 86.2391 8.66253C85.2217 7.24805 83.7149 7.3103 82.1759 7.41976V13.9642Z" fill="#0B0B0B"/>
<path d="M55.1099 17.2943H51.3516V4.04451C53.6031 4.04451 55.8462 3.92217 58.0698 4.08315C60.0617 4.22696 61.4333 5.43324 61.9613 7.38862C62.5236 9.45991 61.8904 11.1813 60.0703 12.5271L62.646 17.2771H58.4777L56.3613 13.3363H55.1099V17.2943ZM55.14 10.1167C57.4645 10.2434 58.3746 9.80119 58.3081 8.6271C58.2437 7.49594 57.3723 7.15896 55.14 7.4294V10.1167Z" fill="#0B0B0B"/>
<path d="M43.4738 28.4177H47.3374V23.7621H51.0743V36.9926H47.4146V31.985H43.5318V36.9776H39.7305V23.7578H43.4738V28.4177Z" fill="#0B0B0B"/>
<path d="M76.5912 32.225L79.1669 36.9793H75.0157L72.8693 32.9912H71.6566V36.9406H67.8789V23.6844C69.0916 23.6844 70.3237 23.6844 71.5557 23.6844C72.6289 23.6844 73.7214 23.5835 74.7646 23.7638C76.662 24.0943 78.0357 25.1804 78.5122 27.1229C79.0124 29.2028 78.4049 30.9264 76.5912 32.225ZM71.6544 29.7995C72.7577 29.6922 73.9554 30.246 74.6358 29.0611C74.8505 28.6941 74.7968 27.9171 74.5349 27.593C73.7901 26.6658 72.6933 26.977 71.6544 26.9491V29.7995Z" fill="#0B0B0B"/>
<path d="M107.106 17.3145H103.457V4.17846C105.891 4.17846 108.355 3.98528 110.77 4.245C112.457 4.42744 113.56 5.74749 113.989 7.46462C114.419 9.18175 114.086 10.7186 112.753 11.9721L112.109 12.5902L114.653 17.293H110.497L108.37 13.3501H107.106V17.3145ZM107.142 7.37232V10.139C109.549 10.2163 110.399 9.83425 110.298 8.6709C110.21 7.6256 109.883 7.15768 107.142 7.37232Z" fill="#0B0B0B"/>
<path d="M77.1131 17.2994H73.035C72.7967 16.6683 72.537 15.9836 72.2623 15.2603H67.6367L66.8554 17.2994H62.8867L68.0939 4.01953H71.7707L77.1131 17.2994ZM71.3307 12.2253C70.8886 10.9761 70.4721 9.7848 70.0429 8.59354L69.8132 8.61285C69.4011 9.78694 68.989 10.961 68.5468 12.2253H71.3307Z" fill="#0B0B0B"/>
<path d="M52.4102 36.9809C54.153 32.5314 55.8637 28.1677 57.598 23.7461H61.3156L66.6216 36.9938H62.5219C62.2815 36.3198 62.0475 35.6587 61.7964 34.9525H57.1451L56.381 36.9916L52.4102 36.9809ZM58.0724 31.8574H60.8456C60.3841 30.5695 59.9677 29.4148 59.4504 27.981L58.0724 31.8574Z" fill="#0B0B0B"/>
<path d="M90.5073 34.9215L89.7753 36.9906H85.7852C87.5302 32.5454 89.2538 28.1538 90.9902 23.7344H94.682L99.9923 36.9713H95.9141C95.6758 36.3274 95.4183 35.647 95.1521 34.9322L90.5073 34.9215ZM94.2549 31.9165C93.7698 30.5771 93.3384 29.3859 92.8297 27.9757C92.3253 29.4159 91.9024 30.6265 91.4495 31.9165H94.2549Z" fill="#0B0B0B"/>
<path d="M96.3443 12.1644V14.1112H101.212V17.3051H92.5859V4.02734H101.021V7.18472H96.3486V9.05639H100.562V12.1644H96.3443Z" fill="#0B0B0B"/>
<path d="M18.8317 1.42013C19.1579 0.838098 19.8889 0.289062 20.5561 0.289062H24.2898C24.9309 0.289062 25.6422 0.812373 25.9658 1.36586C26.1321 1.65029 26.1049 1.7783 26.1049 2.10778V11.895L20.7754 13.6612C20.7754 13.6612 19.4467 13.8243 18.6719 13.893V5.27303C18.6719 4.39488 18.6921 2.88196 18.7033 2.11403C18.7079 1.80046 18.6783 1.69368 18.8317 1.42013Z" fill="#0B9344"/>
<path d="M46.138 17.3197H42.4612V7.37321H38.8359V4.03125H49.6989V7.31312H46.138V17.3197Z" fill="#0B0B0B"/>
<path d="M9.54688 16.4799C9.54688 13.6466 9.54688 11.0774 9.54688 8.50813C9.54688 7.59591 10.0577 7.15589 10.9742 7.16019C12.5089 7.16019 14.0436 7.16019 15.5804 7.16019C16.4519 7.16019 16.9112 7.56586 16.9134 8.44804C16.9134 10.1652 16.9134 13.9729 16.9134 13.9729H12.9768C12.9768 13.9729 10.809 15.5269 9.54688 16.4799Z" fill="#0B9344"/>
<path d="M84.4666 36.9928H80.7812V23.7344H84.4666V36.9928Z" fill="#0B0B0B"/>
<path d="M7.71168 16.7582L0.355921 15.1119C0.355921 14.3156 0.366653 13.5708 0.355921 12.8238C0.336603 11.7807 0.937599 11.3213 1.87773 11.2849C3.38022 11.2398 4.88271 11.2591 6.38519 11.2849C7.10639 11.2849 7.67304 11.6197 7.70095 12.3988C7.74602 13.8112 7.71168 15.2364 7.71168 16.7582Z" fill="#0B9444"/>
</g>
<defs>
<clipPath id="clip0_3269_3010">
<rect width="114.29" height="38.8501" fill="white" transform="translate(0.355469 0.0742188)"/>
</clipPath>
</defs>
</svg>
