<svg width="123" height="60" viewBox="0 0 123 60" fill="none" xmlns="http://www.w3.org/2000/svg">
<path d="M7.51123 0H56.5435C60.6328 0 64.5548 1.62454 67.4466 4.51623C70.3382 7.40794 71.9629 11.3299 71.9629 15.4194V43.7059H7.51123V0Z" fill="#FF52C3"/>
<mask id="mask0_2530_4030" style="mask-type:luminance" maskUnits="userSpaceOnUse" x="0" y="2" width="123" height="58">
<path d="M0.916992 2.39551H98.819C105.232 2.39551 111.382 4.94301 115.917 9.47757C120.451 14.0121 122.999 20.1623 122.999 26.5752V59.1361H0.916992V2.39551Z" fill="white"/>
</mask>
<g mask="url(#mask0_2530_4030)">
<path d="M46.0951 39.0915C45.778 37.9726 44.5895 36.9517 42.7282 37.3564H42.7127L35.0249 39.1611C34.9037 38.5635 34.5668 38.0314 34.0785 37.6663C33.5902 37.3013 32.9846 37.1285 32.3772 37.1811C31.9312 37.2224 30.4231 37.3848 28.8247 37.5575C27.3113 37.7199 25.7464 37.8901 25.3159 37.9288C24.4161 38.0087 23.2379 37.8385 21.8741 37.6375C19.6287 37.3075 17.0841 36.9362 14.5318 37.4957C11.5 38.1608 9.17976 39.9938 7.44215 43.0978L7.4215 43.1365L4.79195 48.4963C4.69752 48.6894 4.6836 48.9124 4.75318 49.1158C4.82279 49.3192 4.9702 49.4867 5.16317 49.5816C5.27431 49.6347 5.39573 49.6631 5.51891 49.6641C5.67074 49.6641 5.81952 49.6213 5.94842 49.5411C6.07735 49.4612 6.18127 49.3465 6.24853 49.2104L8.87555 43.8764C12.2477 37.8695 17.4579 38.6326 21.6473 39.2359C23.0498 39.4421 24.3775 39.6355 25.4706 39.5375C25.914 39.4988 27.417 39.3338 29.0077 39.1637C30.5262 38.9987 32.1014 38.8311 32.5293 38.7898C32.641 38.7803 32.7531 38.7927 32.8598 38.8267C32.9666 38.861 33.0653 38.9159 33.1506 38.9884C33.328 39.1363 33.4391 39.3488 33.46 39.5787C33.4729 39.7308 33.509 40.133 32.4288 40.5842C30.3189 41.4857 28.1381 42.2117 25.9088 42.7549C25.805 42.7786 25.7069 42.8225 25.6201 42.8841C25.5333 42.9457 25.4596 43.0238 25.403 43.114C25.3464 43.204 25.308 43.3045 25.2902 43.4095C25.2724 43.5144 25.2754 43.6219 25.2991 43.7255C25.3228 43.8294 25.3667 43.9274 25.4283 44.0143C25.4899 44.1009 25.568 44.1749 25.6582 44.2314C25.7483 44.2881 25.8487 44.3265 25.9536 44.3443C26.0585 44.3621 26.1661 44.359 26.2698 44.3353C28.5916 43.7709 30.8629 43.0156 33.0604 42.0769C33.6954 41.8436 34.2525 41.4373 34.6691 40.9039L43.0736 38.9291C43.9708 38.7357 44.4168 39.1095 44.5328 39.522C44.6488 39.9345 44.4761 40.4398 43.829 40.6693C43.1819 40.8987 41.5938 41.5226 39.5958 42.3192C36.9481 43.3736 33.6663 44.6859 31.0341 45.6449C27.8115 46.8205 26.9092 46.9623 23.5447 46.805L18.2391 46.5472C18.0977 46.5403 17.957 46.5707 17.8312 46.6354C17.7053 46.7001 17.5989 46.7968 17.5224 46.9159L16.5659 48.3957C16.4494 48.5762 16.4092 48.7956 16.4544 49.0057C16.4996 49.2158 16.6265 49.3994 16.807 49.5159C16.9875 49.6324 17.207 49.6726 17.417 49.6272C17.6271 49.5821 17.8105 49.4553 17.9271 49.2748L18.6309 48.1869L23.4699 48.4112C27.0355 48.5762 28.1724 48.4112 31.5883 47.1531C34.2334 46.1863 37.5385 44.8689 40.1965 43.8016C42.0965 43.0436 43.7388 42.3888 44.3549 42.1774C45.9146 41.6283 46.4174 40.1949 46.0848 39.0605L46.0951 39.0915Z" fill="white"/>
<path d="M26.2414 27.1137C25.7773 25.2755 24.9704 23.6358 23.9676 22.4886C22.9063 21.2817 22.3521 19.7116 22.4207 18.1059C22.4898 16.5402 23.1397 15.0563 24.2436 13.9438C25.3476 12.8313 26.8264 12.1699 28.3916 12.0887C29.6112 12.0303 30.8216 12.3294 31.8737 12.9492C32.9258 13.569 33.7743 14.4826 34.3144 15.5778C34.8548 16.673 35.0633 17.9021 34.9146 19.1142C34.7661 20.3263 34.2667 21.4687 33.4781 22.401L33.4471 22.4396C32.2999 23.7983 31.5419 24.6955 31.1475 26.2629L31.132 26.317C31.1052 26.4245 31.0573 26.5256 30.9913 26.6148C30.9253 26.7037 30.8423 26.7788 30.7474 26.8357C30.6523 26.8927 30.5471 26.9304 30.4375 26.9469C30.3277 26.9631 30.216 26.9574 30.1085 26.9306C30.001 26.9038 29.9 26.8558 29.8108 26.7898C29.7218 26.7238 29.6466 26.6411 29.5896 26.546C29.5326 26.4508 29.495 26.3456 29.4787 26.2361C29.4625 26.1263 29.4679 26.0146 29.495 25.9071L29.5079 25.8504C30.0003 23.904 30.9516 22.7748 32.1581 21.3491L32.189 21.313C32.7539 20.6426 33.1143 19.8243 33.2283 18.9551C33.3419 18.0859 33.204 17.2023 32.831 16.409C32.4579 15.6158 31.8652 14.9461 31.1233 14.4795C30.381 14.0129 29.5207 13.7688 28.6442 13.7763C27.7677 13.7838 26.9115 14.0425 26.1775 14.5217C25.4435 15.0009 24.8622 15.6805 24.5027 16.48C24.1432 17.2794 24.0204 18.1653 24.149 19.0324C24.2776 19.8995 24.6522 20.7116 25.2283 21.3723C26.4039 22.7181 27.3423 24.6078 27.8682 26.6934L27.051 26.9074L26.2414 27.1137Z" fill="white"/>
<path d="M27.3116 30.2384C27.1069 30.2405 26.9086 30.168 26.7537 30.0348C26.5985 29.9015 26.497 29.7164 26.4683 29.5137C26.4396 29.3113 26.4856 29.1051 26.5977 28.9339C26.7096 28.7627 26.88 28.6382 27.077 28.5833L29.8329 27.7893C30.0479 27.7274 30.2786 27.7534 30.4746 27.8617C30.6703 27.97 30.8151 28.1517 30.877 28.3667C30.9389 28.5818 30.9129 28.8125 30.8043 29.0084C30.696 29.2041 30.5145 29.349 30.2995 29.4109L27.5462 30.2075C27.4696 30.2278 27.3907 30.2382 27.3116 30.2384Z" fill="white"/>
<path d="M27.2806 32.7259C27.077 32.7257 26.8805 32.6519 26.7269 32.5184C26.5733 32.3849 26.4729 32.2003 26.4444 31.9989C26.4159 31.7973 26.461 31.5921 26.5715 31.4212C26.682 31.2502 26.8506 31.125 27.046 31.0682L29.802 30.2742C30.018 30.2115 30.25 30.2376 30.447 30.3461C30.644 30.4547 30.7899 30.6369 30.8525 30.853C30.9152 31.069 30.8891 31.301 30.7806 31.498C30.6721 31.6952 30.4898 31.8409 30.2737 31.9035L27.5178 32.6976C27.4405 32.7187 27.3605 32.7285 27.2806 32.7259Z" fill="white"/>
<path d="M28.7008 10.5472C28.5899 10.5475 28.4801 10.526 28.3778 10.4837C28.2752 10.4415 28.1823 10.3794 28.104 10.3011C28.0256 10.2227 27.9635 10.1296 27.9212 10.0272C27.8789 9.92476 27.8572 9.81498 27.8578 9.70418V6.12325C27.8513 6.00845 27.8686 5.89354 27.908 5.7856C27.9477 5.67763 28.0088 5.57889 28.0877 5.49536C28.1669 5.41186 28.262 5.34535 28.3677 5.29987C28.4731 5.25442 28.5871 5.23096 28.7021 5.23096C28.8171 5.23096 28.9308 5.25442 29.0365 5.29987C29.1422 5.34535 29.2373 5.41186 29.3162 5.49536C29.3953 5.57889 29.4564 5.67763 29.4961 5.7856C29.5356 5.89354 29.5528 6.00845 29.5464 6.12325V9.69902C29.5472 9.81037 29.5258 9.92076 29.4835 10.0238C29.4412 10.1269 29.3788 10.2205 29.3002 10.2994C29.2216 10.3782 29.1282 10.4407 29.0254 10.4833C28.9225 10.5258 28.8122 10.5475 28.7008 10.5472Z" fill="white"/>
<path d="M19.2625 19.9854H15.6867C15.5719 19.9917 15.457 19.9746 15.3491 19.935C15.2411 19.8954 15.1423 19.8343 15.0588 19.7552C14.9753 19.6762 14.9087 19.581 14.8633 19.4754C14.8178 19.3698 14.7944 19.256 14.7944 19.141C14.7944 19.0261 14.8178 18.9123 14.8633 18.8067C14.9087 18.7011 14.9753 18.6058 15.0588 18.5268C15.1423 18.4478 15.2411 18.3866 15.3491 18.347C15.457 18.3075 15.5719 18.2904 15.6867 18.2967H19.2625C19.3773 18.2904 19.4922 18.3075 19.6001 18.347C19.7081 18.3866 19.8069 18.4478 19.8904 18.5268C19.9739 18.6058 20.0404 18.7011 20.0859 18.8067C20.1314 18.9123 20.1547 19.0261 20.1547 19.141C20.1547 19.256 20.1314 19.3698 20.0859 19.4754C20.0404 19.581 19.9739 19.6762 19.8904 19.7552C19.8069 19.8343 19.7081 19.8954 19.6001 19.935C19.4922 19.9746 19.3773 19.9917 19.2625 19.9854Z" fill="white"/>
<path d="M41.7151 19.9854H38.1391C38.0244 19.9917 37.9096 19.9746 37.8016 19.935C37.6936 19.8954 37.5948 19.8343 37.5113 19.7552C37.4278 19.6762 37.3613 19.581 37.3159 19.4754C37.2705 19.3698 37.2471 19.256 37.2471 19.141C37.2471 19.0261 37.2705 18.9123 37.3159 18.8067C37.3613 18.7011 37.4278 18.6058 37.5113 18.5268C37.5948 18.4478 37.6936 18.3866 37.8016 18.347C37.9096 18.3075 38.0244 18.2904 38.1391 18.2967H41.7151C41.8298 18.2904 41.9446 18.3075 42.0526 18.347C42.1606 18.3866 42.2593 18.4478 42.3429 18.5268C42.4264 18.6058 42.4929 18.7011 42.5383 18.8067C42.5839 18.9123 42.6074 19.0261 42.6074 19.141C42.6074 19.256 42.5839 19.3698 42.5383 19.4754C42.4929 19.581 42.4264 19.6762 42.3429 19.7552C42.2593 19.8343 42.1606 19.8954 42.0526 19.935C41.9446 19.9746 41.8298 19.9917 41.7151 19.9854Z" fill="white"/>
<path d="M35.3752 13.3132C35.2084 13.3127 35.0455 13.263 34.9068 13.1702C34.7683 13.0774 34.6603 12.9457 34.5964 12.7917C34.5324 12.6377 34.5154 12.4682 34.5476 12.3045C34.5799 12.1409 34.6595 11.9904 34.7771 11.872L37.3062 9.34294C37.4645 9.18465 37.6792 9.0957 37.903 9.0957C38.1268 9.0957 38.3415 9.18465 38.4998 9.34294C38.6581 9.50121 38.747 9.71591 38.747 9.93976C38.747 10.1636 38.6581 10.3783 38.4998 10.5366L35.9707 13.0657C35.8129 13.2238 35.5987 13.3128 35.3752 13.3132Z" fill="white"/>
<path d="M22.0237 13.3132C21.9124 13.3117 21.8024 13.2882 21.7002 13.2439C21.598 13.1997 21.5055 13.1356 21.4282 13.0554L18.8991 10.5263C18.8207 10.448 18.7586 10.3549 18.7162 10.2525C18.6738 10.1501 18.6519 10.0403 18.6519 9.92951C18.6519 9.81865 18.6738 9.7089 18.7162 9.6065C18.7586 9.5041 18.8207 9.41106 18.8991 9.33269C18.9775 9.25431 19.0705 9.19213 19.1729 9.14972C19.2753 9.10728 19.3851 9.08545 19.4959 9.08545C19.6067 9.08545 19.7165 9.10728 19.8189 9.14972C19.9213 9.19213 20.0143 9.25431 20.0927 9.33269L22.6218 11.8618C22.7392 11.9802 22.8191 12.1306 22.8513 12.2943C22.8834 12.4579 22.8665 12.6274 22.8026 12.7814C22.7387 12.9355 22.6306 13.0671 22.492 13.1599C22.3534 13.2527 22.1905 13.3024 22.0237 13.3029V13.3132Z" fill="white"/>
</g>
</svg>
