<svg width="123" height="52" viewBox="0 0 123 52" fill="none" xmlns="http://www.w3.org/2000/svg">
<g clip-path="url(#clip0_2530_3978)">
<path d="M5.91699 0.245605H56.7437C60.9679 0.245605 65.0193 1.92368 68.0062 4.91068C70.9933 7.89767 72.6712 11.9489 72.6712 16.1732V45.2781H5.91699V0.245605Z" fill="#FF52C3"/>
<mask id="mask0_2530_3978" style="mask-type:luminance" maskUnits="userSpaceOnUse" x="0" y="0" width="123" height="52">
<path d="M122.027 50.2606H38.5439C38.4916 50.4198 38.4059 50.5658 38.2927 50.6892C38.1792 50.8126 38.0412 50.9103 37.8871 50.9763C37.3851 51.1525 36.7336 50.8775 36.4131 50.2606H1.16691V14.7714C0.349835 14.3388 0.0774795 13.5324 0.325807 13.0838C0.53408 12.7073 1.07078 12.6459 1.16691 12.6353V0H99.3865C105.389 -6.67962e-07 111.146 2.38385 115.392 6.62745C119.638 10.871 122.024 16.6269 122.027 22.6297V50.2606Z" fill="white"/>
</mask>
<g mask="url(#mask0_2530_3978)">
<path d="M44.9794 47.6441C45.1733 47.6462 45.362 47.7055 45.5223 47.815C45.6825 47.9242 45.8066 48.0782 45.8795 48.2579C45.9522 48.4376 45.97 48.635 45.9311 48.8248C45.8918 49.0147 45.7976 49.1888 45.6598 49.3252C45.5217 49.4616 45.3468 49.554 45.1564 49.5912C44.9661 49.6283 44.769 49.6082 44.5901 49.5335C44.4112 49.4587 44.2585 49.3329 44.1509 49.1714C44.0433 49.0101 43.9861 48.8205 43.9858 48.6267C43.9866 48.4969 44.0128 48.3685 44.0633 48.2491C44.1135 48.1295 44.1869 48.0208 44.279 47.9298C44.3714 47.8385 44.4806 47.7661 44.6008 47.7172C44.7209 47.6681 44.8496 47.6433 44.9794 47.6441Z" fill="white" stroke="white" stroke-width="0.267017" stroke-miterlimit="10"/>
<path d="M44.2052 15.6582C44.3991 15.6603 44.5881 15.7198 44.7483 15.8292C44.9085 15.9385 45.033 16.0929 45.1056 16.2728C45.1782 16.4526 45.1959 16.65 45.1566 16.84C45.1174 17.03 45.0226 17.204 44.8845 17.3403C44.7465 17.4765 44.571 17.5688 44.3807 17.6056C44.19 17.6423 43.9929 17.6219 43.814 17.5468C43.6351 17.4717 43.4827 17.3454 43.3753 17.1837C43.2683 17.022 43.2114 16.8322 43.2119 16.6382C43.2141 16.3766 43.3198 16.1266 43.5059 15.9429C43.692 15.7592 43.9435 15.6568 44.2052 15.6582Z" fill="white" stroke="white" stroke-width="0.267017" stroke-miterlimit="10"/>
<path d="M30.4 3.32179C30.5942 3.3239 30.7832 3.38339 30.9434 3.49276C31.1036 3.60211 31.2278 3.75647 31.3007 3.93636C31.3733 4.11622 31.3909 4.3136 31.3517 4.50356C31.3124 4.69354 31.2177 4.86761 31.0796 5.00387C30.9416 5.14013 30.7661 5.23243 30.5757 5.26918C30.3851 5.30594 30.188 5.28549 30.0091 5.2104C29.8302 5.13532 29.6775 5.00897 29.5704 4.84726C29.4633 4.68556 29.4062 4.49573 29.4067 4.30175C29.4089 4.04018 29.5146 3.79014 29.701 3.60643C29.8871 3.42272 30.1386 3.32038 30.4 3.32179Z" fill="white" stroke="white" stroke-width="0.267017" stroke-miterlimit="10"/>
<path d="M16.1548 32.9073V31.5963C15.7142 31.5963 15.3805 31.8152 15.3805 32.2504C15.3825 32.3354 15.4035 32.4187 15.4419 32.4945C15.4802 32.5701 15.5349 32.6363 15.6021 32.6884C15.6708 32.7655 15.7565 32.8253 15.8525 32.8633C15.9485 32.9014 16.052 32.9164 16.1548 32.9073ZM16.5954 36.1809C17.1481 36.1809 17.3697 35.962 17.3697 35.6469C17.3682 35.562 17.3475 35.4784 17.3091 35.4026C17.2707 35.3268 17.2157 35.2605 17.1481 35.209C16.9795 35.0752 16.7936 34.9647 16.5954 34.8806V36.1916V36.1809ZM16.7075 30.1757C17.1722 30.1789 17.6296 30.2913 18.0426 30.5042C18.391 30.6072 18.7248 30.7543 19.0359 30.9421L18.2642 32.3599C18.2041 32.3006 18.1264 32.2622 18.0426 32.2504L17.1588 31.8152C16.9857 31.7356 16.7964 31.6983 16.6061 31.7057V33.1236C17.0727 33.193 17.5241 33.3412 17.9412 33.5615C18.2086 33.6488 18.4548 33.7911 18.664 33.9791C18.8733 34.1671 19.0408 34.397 19.1561 34.6536C19.2534 34.9337 19.2907 35.2312 19.2656 35.5267C19.2711 35.8672 19.1951 36.2042 19.0439 36.5094C18.9536 36.7911 18.756 37.0263 18.4939 37.1636C18.261 37.3502 17.9995 37.4981 17.7195 37.6015C17.3962 37.6896 17.0609 37.7256 16.7262 37.7083V38.9179H15.9519V37.7163C14.9791 37.6292 14.0369 37.3312 13.1909 36.8431L13.9653 35.3158L14.1842 35.5348C14.518 35.751 14.9586 35.8632 15.2897 36.0688C15.5435 36.1561 15.802 36.2293 16.064 36.2877V34.8672C15.7329 34.7604 14.6275 34.5415 14.0747 33.9941C13.915 33.8181 13.7934 33.6112 13.7176 33.3861C13.6418 33.1607 13.6134 32.9223 13.6342 32.6857C13.6542 32.3482 13.729 32.0163 13.8558 31.7031C13.9736 31.4152 14.1548 31.1578 14.386 30.9495C14.6171 30.7415 14.8923 30.5885 15.1909 30.5015C15.5049 30.3656 15.8421 30.2911 16.1842 30.2825V29.1904H16.9559L16.7369 30.1731L16.7075 30.1757Z" fill="white"/>
<path d="M-0.632673 3.97609C-0.438797 3.9782 -0.24988 4.03761 -0.0896998 4.14685C0.0704807 4.25611 0.194762 4.41028 0.267499 4.59001C0.340237 4.76974 0.358178 4.96696 0.319065 5.15686C0.279952 5.34677 0.185534 5.52086 0.0476959 5.65723C-0.0901421 5.79357 -0.26524 5.88612 -0.455552 5.92315C-0.645866 5.96021 -0.842885 5.94013 -1.02182 5.86548C-1.20074 5.79079 -1.35358 5.66487 -1.46109 5.50351C-1.56859 5.34215 -1.62597 5.15259 -1.62598 4.95871C-1.62528 4.82897 -1.59903 4.70064 -1.54874 4.58104C-1.49844 4.46145 -1.42507 4.3529 -1.33283 4.26166C-1.2406 4.17042 -1.1313 4.09825 -1.01116 4.04925C-0.89103 4.00025 -0.762416 3.97539 -0.632673 3.97609Z" fill="white" stroke="white" stroke-width="0.267017" stroke-miterlimit="10"/>
<path d="M12.299 61.7265C10.1125 61.4016 7.96506 60.8531 5.89058 60.0897C5.76241 60.0336 5.65272 59.9426 5.57427 59.8267C5.49582 59.7111 5.45179 59.5754 5.44733 59.4355L5.22571 53.1019L-0.515158 56.0391C-0.640024 56.1018 -0.781078 56.125 -0.919457 56.1056C-1.05784 56.0858 -1.18695 56.0246 -1.28952 55.9296C-2.99474 54.5713 -4.54963 53.0343 -5.9276 51.3449C-6.02335 51.245 -6.08541 51.1177 -6.10504 50.9807C-6.12466 50.8437 -6.1009 50.7041 -6.03708 50.5812L-3.05717 44.9044L-9.46558 44.6855C-9.60133 44.6687 -9.73156 44.6214 -9.84661 44.5474C-9.9617 44.4735 -10.0587 44.3747 -10.1305 44.2583C-10.9004 42.2487 -11.4553 40.1633 -11.786 38.0368C-11.7894 37.9089 -11.7609 37.782 -11.7031 37.6677C-11.6453 37.5537 -11.56 37.4557 -11.4549 37.3826L-6.04242 33.9968L-11.4655 30.6137C-11.5705 30.5405 -11.6557 30.4425 -11.7134 30.3282C-11.7712 30.2142 -11.7998 30.0874 -11.7966 29.9595C-11.4795 27.8292 -10.9242 25.7416 -10.1411 23.7353C-10.0827 23.6074 -9.98923 23.4987 -9.87158 23.4217C-9.75391 23.3446 -9.61687 23.3025 -9.47626 23.3001L-3.06785 23.0811L-6.04776 17.4043C-6.11179 17.2812 -6.13569 17.141 -6.11606 17.0036C-6.09641 16.8662 -6.03425 16.7383 -5.93828 16.638C-4.56034 14.9486 -3.00545 13.4116 -1.30019 12.0533C-1.1956 11.9589 -1.06485 11.8984 -0.925179 11.8798C-0.785508 11.8612 -0.643479 11.8854 -0.517831 11.9492L5.22304 14.8864L5.44466 8.5554C5.46351 8.41967 5.51328 8.29014 5.59013 8.17671C5.66698 8.06328 5.76887 7.96903 5.88791 7.9012C7.92349 7.13871 10.0326 6.5893 12.1815 6.26172C12.31 6.26308 12.4362 6.29534 12.5496 6.35576C12.663 6.41616 12.7602 6.50297 12.833 6.60884L16.2562 11.9492L19.682 6.60884C19.7579 6.50494 19.8577 6.42083 19.973 6.36367C20.0882 6.3065 20.2156 6.27795 20.3442 6.28041C22.493 6.60836 24.6021 7.15777 26.6378 7.9199C26.7659 7.97573 26.8754 8.06694 26.9534 8.18283C27.0313 8.29869 27.0749 8.43444 27.0783 8.57409L27.3 14.9051L33.0435 11.9679C33.1682 11.9064 33.3087 11.884 33.4462 11.9036C33.5839 11.9231 33.7127 11.9837 33.8152 12.0774C35.574 13.3694 37.1401 14.905 38.4666 16.638C38.5612 16.7391 38.6226 16.8669 38.6421 17.0039C38.6615 17.141 38.6386 17.2808 38.5761 17.4043L35.5935 23.0811L42.0019 23.3001C42.1381 23.3175 42.2687 23.3657 42.3835 23.4412C42.4981 23.5166 42.5942 23.6172 42.6641 23.7353C43.4494 25.7411 44.0056 27.829 44.3223 29.9595C44.3247 30.0874 44.2959 30.2137 44.2382 30.3277C44.1805 30.4417 44.0956 30.54 43.9912 30.6137L38.5734 33.9968L43.9859 37.3826C44.0908 37.456 44.1757 37.554 44.2334 37.6683C44.2913 37.7823 44.3199 37.9089 44.317 38.0368C44.0006 40.1665 43.4444 42.2535 42.6588 44.2583C42.6011 44.3862 42.5082 44.4954 42.391 44.5728C42.2738 44.6502 42.137 44.693 41.9966 44.6962L35.5882 44.9151L38.5708 50.5919C38.6335 50.715 38.6565 50.8544 38.637 50.9911C38.6175 51.1278 38.5561 51.2552 38.4613 51.3556C37.0824 53.045 35.5268 54.582 33.8205 55.9403C33.7185 56.0353 33.5901 56.0967 33.452 56.1162C33.314 56.136 33.1733 56.1128 33.0488 56.0497L27.3053 53.1126L27.0837 59.4462C27.0653 59.5818 27.0161 59.7111 26.9398 59.8246C26.8634 59.938 26.7619 60.0323 26.6432 60.1004C24.6121 60.8763 22.5014 61.4253 20.3496 61.7372C20.2212 61.7399 20.094 61.7118 19.9787 61.6552C19.8635 61.5984 19.7635 61.5148 19.6874 61.4115L16.2615 56.0711L12.8384 61.4115C12.7853 61.5078 12.7072 61.5879 12.6122 61.6435C12.5172 61.699 12.409 61.7276 12.299 61.7265ZM6.77708 58.8881C8.40962 59.5266 10.1129 59.9669 11.8504 60.1992L15.6047 54.3035C15.657 54.2025 15.7365 54.1184 15.8341 54.0602C15.9318 54.0023 16.0438 53.9726 16.1574 53.975C16.271 53.9726 16.383 54.0023 16.4806 54.0602C16.5783 54.1184 16.6578 54.2025 16.7101 54.3035L20.4644 60.1992C22.1864 59.8919 23.8824 59.4537 25.5377 58.8881L25.8661 51.9003C25.8669 51.7892 25.8985 51.6803 25.9575 51.586C26.0164 51.4918 26.1003 51.4157 26.1999 51.3663C26.3019 51.3123 26.4156 51.284 26.531 51.284C26.6464 51.284 26.7601 51.3123 26.8621 51.3663L33.1557 54.6426C34.5161 53.519 35.7751 52.2779 36.9179 50.9337L33.6042 44.7095C33.5492 44.6094 33.5201 44.4967 33.5201 44.3824C33.5201 44.2681 33.5492 44.1555 33.6042 44.0553C33.656 43.9547 33.7351 43.8706 33.8323 43.8126C33.9297 43.7544 34.0411 43.7248 34.1543 43.7269L41.2249 43.3985C41.8877 41.7908 42.3365 40.1029 42.56 38.3785L36.5975 34.6456C36.1569 34.4267 36.1569 33.7725 36.5975 33.4441L42.5627 29.7325C42.2342 28.0295 41.7881 26.3513 41.2276 24.7099L34.157 24.3842C34.044 24.3857 33.9327 24.3557 33.8355 24.2978C33.7386 24.2398 33.6592 24.156 33.6069 24.0557C33.5519 23.9551 33.5228 23.8421 33.5228 23.7273C33.5228 23.6125 33.5519 23.4996 33.6069 23.3989L36.9206 17.1774C35.8087 15.8058 34.5487 14.5611 33.1637 13.4658L26.8674 16.7555C26.7651 16.8082 26.6515 16.8357 26.5364 16.8357C26.4212 16.8357 26.3077 16.8082 26.2052 16.7555C26.104 16.7046 26.0191 16.6263 25.9601 16.5295C25.9011 16.4328 25.8704 16.3214 25.8715 16.2081L25.543 9.22027C23.9109 8.5813 22.2074 8.14197 20.4697 7.91188L16.7155 13.8076C16.6626 13.9078 16.5829 13.9913 16.4853 14.0488C16.3877 14.1063 16.276 14.1356 16.1627 14.1334C16.0495 14.1356 15.9378 14.1063 15.8402 14.0488C15.7426 13.9913 15.6629 13.9078 15.61 13.8076L11.8557 7.91188C10.1368 8.23196 8.44177 8.66912 6.78242 9.22027L6.42461 16.2028C6.42827 16.3157 6.40021 16.4273 6.34355 16.525C6.28691 16.6227 6.20398 16.7026 6.10419 16.7555C6.00179 16.8082 5.88828 16.8357 5.77309 16.8357C5.65793 16.8357 5.54442 16.8082 5.44199 16.7555L-0.851603 13.4792C-2.21092 14.6031 -3.46813 15.8452 -4.60854 17.1907L-1.29485 23.4122C-1.24632 23.5121 -1.22285 23.6223 -1.22648 23.7333C-1.2301 23.8443 -1.26072 23.9528 -1.31568 24.0493C-1.37064 24.1458 -1.44827 24.2274 -1.54188 24.2872C-1.63549 24.3469 -1.74225 24.3829 -1.85292 24.3922L-8.92087 24.6085C-9.58355 26.2171 -10.0324 27.9056 -10.256 29.6311L-4.29346 33.3426C-4.19314 33.3941 -4.10897 33.4726 -4.05023 33.5688C-3.99146 33.6652 -3.96038 33.7757 -3.96038 33.8887C-3.96038 34.0016 -3.99146 34.1121 -4.05023 34.2085C-4.10897 34.3047 -4.19314 34.3832 -4.29346 34.4347L-10.256 38.1462C-9.92704 39.8493 -9.48096 41.5275 -8.92087 43.1688L-1.85292 43.4973C-1.73948 43.4941 -1.62744 43.5229 -1.52967 43.5806C-1.43191 43.6383 -1.35237 43.7224 -1.30019 43.823C-1.24503 43.9232 -1.2161 44.0358 -1.2161 44.1501C-1.2161 44.2644 -1.24503 44.3771 -1.30019 44.4772L-4.61388 50.7014C-3.47142 52.0445 -2.21242 53.2837 -0.851603 54.4049L5.44199 51.1313C5.54364 51.076 5.65745 51.0472 5.77309 51.0472C5.88874 51.0472 6.00254 51.076 6.10419 51.1313C6.20387 51.1804 6.28779 51.2565 6.34632 51.3508C6.40485 51.4453 6.43569 51.5542 6.43529 51.6653L6.77708 58.8881Z" fill="white" stroke="white" stroke-width="0.267017" stroke-miterlimit="10"/>
<path d="M16.2644 48.2979C8.31259 48.2979 1.79736 41.8575 1.79736 33.9965C1.79736 26.1355 8.31259 19.6924 16.2644 19.6924C24.2161 19.6924 30.7232 26.1382 30.7232 33.9965C30.7232 41.8548 24.2161 48.2979 16.2644 48.2979ZM16.2644 21.0061C9.08694 21.0061 3.2339 26.7924 3.2339 33.887C3.23531 35.5959 3.5736 37.288 4.22939 38.8661C4.88518 40.4444 5.84562 41.8778 7.05582 43.0847C8.26602 44.2913 9.70223 45.2475 11.2823 45.8991C12.8624 46.5503 14.5553 46.8835 16.2644 46.8801C23.4445 46.8801 29.4068 41.0938 29.4068 33.887C29.4068 26.9018 23.4445 21.0061 16.2644 21.0061Z" fill="white" stroke="white" stroke-width="0.267017" stroke-miterlimit="10"/>
<path d="M16.2643 43.4973C14.3902 43.4752 12.5646 42.8992 11.017 41.8421C9.46952 40.7847 8.26928 39.2934 7.56737 37.5554C6.86549 35.8177 6.69326 33.9112 7.0724 32.0757C7.45156 30.2402 8.36511 28.5577 9.69814 27.2403C11.0312 25.9229 12.7241 25.0292 14.5639 24.6716C16.4037 24.314 18.3081 24.5086 20.0376 25.2308C21.767 25.9531 23.2442 27.1708 24.2833 28.7305C25.3223 30.2904 25.8768 32.1227 25.8769 33.9969C25.8607 36.5311 24.8391 38.9551 23.0367 40.7364C21.2343 42.5179 18.7985 43.511 16.2643 43.4973ZM16.2643 25.8101C11.725 25.8101 7.98677 29.5217 7.98677 33.9969C7.98677 38.4721 11.7437 42.1863 16.2643 42.1863C20.7849 42.1863 24.5418 38.4748 24.5418 33.9969C24.5418 29.519 20.7929 25.8101 16.2643 25.8101Z" fill="white" stroke="white" stroke-width="0.267017" stroke-miterlimit="10"/>
<path d="M41.7748 12.8172C41.1078 12.8088 40.4579 12.6032 39.9073 12.2264C39.3564 11.8496 38.9295 11.3183 38.6801 10.6995C38.4304 10.0806 38.3695 9.40172 38.5049 8.7483C38.64 8.09488 38.9658 7.49607 39.4405 7.02719C39.9153 6.55833 40.5182 6.24034 41.1732 6.11322C41.8282 5.98612 42.5062 6.05554 43.1219 6.31281C43.7377 6.57008 44.2637 7.00369 44.6335 7.55909C45.0033 8.11446 45.2006 8.76683 45.2006 9.43411C45.2052 9.88323 45.1192 10.3286 44.948 10.7439C44.7769 11.1592 44.524 11.5358 44.2044 11.8514C43.885 12.167 43.5051 12.4151 43.0877 12.581C42.6704 12.7469 42.2239 12.8273 41.7748 12.8172ZM41.7748 7.35939C41.5009 7.35762 41.229 7.40993 40.9754 7.51327C40.7214 7.61663 40.4905 7.76899 40.2955 7.96167C40.1006 8.15438 39.9455 8.38358 39.8392 8.63624C39.7329 8.88889 39.6777 9.16004 39.6761 9.43411C39.6715 9.8502 39.7903 10.2583 40.0181 10.6066C40.2459 10.9549 40.5719 11.2276 40.9551 11.3901C41.338 11.5527 41.7607 11.5977 42.1695 11.5195C42.5783 11.4412 42.9542 11.2433 43.2503 10.9507C43.5462 10.6582 43.7486 10.2843 43.8314 9.8765C43.9144 9.46874 43.8744 9.04555 43.716 8.66064C43.558 8.27574 43.2891 7.94653 42.9433 7.71484C42.5978 7.48315 42.1911 7.35941 41.7748 7.35939Z" fill="white" stroke="white" stroke-width="0.267017" stroke-miterlimit="10"/>
</g>
</g>
<defs>
<clipPath id="clip0_2530_3978">
<rect width="122.027" height="51.2673" fill="white"/>
</clipPath>
</defs>
</svg>
