<svg width="123" height="61" viewBox="0 0 123 61" fill="none" xmlns="http://www.w3.org/2000/svg">
<g clip-path="url(#clip0_2530_4001)">
<path d="M4.92139 0H57.2023C61.5629 0 65.7447 1.73218 68.8279 4.81546C71.9113 7.89877 73.6434 12.0806 73.6434 16.4411V46.6018H4.92139V0Z" fill="#FF52C3"/>
<mask id="mask0_2530_4001" style="mask-type:luminance" maskUnits="userSpaceOnUse" x="0" y="0" width="123" height="61">
<path d="M0.399902 0H97.8972C104.532 0 110.894 2.63548 115.585 7.32668C120.276 12.0179 122.912 18.3805 122.912 25.0148V60.5056H0.399902V0Z" fill="white"/>
</mask>
<g mask="url(#mask0_2530_4001)">
<path d="M28.1636 40.2518C27.5624 40.2526 26.9769 40.0602 26.4936 39.7025C26.0103 39.3449 25.6549 38.8416 25.4798 38.2662C25.3047 37.6912 25.3194 37.0751 25.5215 36.5089C25.7236 35.9426 26.1025 35.4566 26.6022 35.1223L30.8548 32.2773C31.4722 31.8638 32.2287 31.7126 32.9577 31.8572C33.6864 32.0015 34.3283 32.4295 34.7417 33.0469C35.1549 33.6643 35.3061 34.4208 35.1618 35.1498C35.0174 35.8788 34.5894 36.5204 33.972 36.9339L29.7195 39.7899C29.258 40.0942 28.7164 40.2551 28.1636 40.2518ZM32.4107 33.4153C32.1759 33.415 31.9469 33.4859 31.7537 33.6187L27.4984 36.4638C27.3605 36.5471 27.241 36.6573 27.147 36.7879C27.053 36.9187 26.9865 37.0669 26.9515 37.2241C26.9165 37.3814 26.9137 37.5438 26.9434 37.7022C26.973 37.8602 27.0344 38.0109 27.1239 38.1447C27.2135 38.2786 27.3292 38.3927 27.4641 38.4807C27.5991 38.5683 27.7504 38.628 27.9091 38.6555C28.0677 38.6832 28.2302 38.6783 28.3869 38.6412C28.5435 38.6044 28.6912 38.5359 28.8206 38.4402L33.0759 35.5924C33.2062 35.5072 33.3186 35.397 33.4063 35.2683C33.494 35.1394 33.5556 34.9945 33.5872 34.842C33.6174 34.6888 33.6174 34.5313 33.5869 34.3782C33.5564 34.2251 33.4959 34.0797 33.4093 33.9499C33.3225 33.8202 33.2109 33.7091 33.0811 33.6226C32.9514 33.536 32.8057 33.4758 32.6526 33.4455C32.5731 33.4268 32.492 33.4167 32.4107 33.4153Z" fill="white"/>
<path d="M27.0502 36.6014C26.8772 36.6008 26.7091 36.5447 26.5703 36.4414C26.4316 36.338 26.3297 36.1931 26.2795 36.0277C26.2294 35.8619 26.2336 35.6849 26.2917 35.5219C26.3498 35.3589 26.4586 35.2189 26.6021 35.1225L40.4428 25.8587C40.5723 25.7719 40.6836 25.6604 40.7702 25.5306C40.8565 25.4008 40.9167 25.2552 40.9469 25.1022C40.9772 24.9492 40.9769 24.7917 40.9464 24.6387C40.9156 24.4858 40.8554 24.3404 40.7685 24.2108C40.6817 24.0812 40.5701 23.9699 40.4403 23.8834C40.3106 23.7969 40.1649 23.7369 40.012 23.7066C39.8589 23.6764 39.7014 23.6766 39.5486 23.7072C39.3955 23.7378 39.2501 23.7982 39.1206 23.885L23.2732 34.4902C23.1852 34.549 23.0863 34.59 22.9824 34.6106C22.8785 34.6312 22.7716 34.6312 22.6678 34.6106C22.5639 34.59 22.465 34.549 22.377 34.4902C22.2889 34.4314 22.2133 34.3555 22.1544 34.2676C22.0956 34.1796 22.0547 34.0806 22.034 33.9767C22.0134 33.8728 22.0134 33.7659 22.0341 33.662C22.0548 33.5581 22.0957 33.4594 22.1545 33.3714C22.2134 33.2832 22.289 33.2076 22.3771 33.1488L38.2244 22.5436C38.8421 22.1353 39.5959 21.9881 40.3218 22.1342C41.0475 22.2802 41.6858 22.7076 42.0976 23.3229C42.5091 23.9383 42.6603 24.6916 42.5182 25.4181C42.3761 26.1446 41.9519 26.7853 41.3389 27.2002L27.4983 36.4639C27.3662 36.5538 27.21 36.6016 27.0502 36.6014Z" fill="white"/>
<path d="M30.3846 43.5696C29.7831 43.571 29.1973 43.3789 28.7135 43.0215C28.2297 42.6644 27.8739 42.1608 27.6985 41.5855C27.523 41.0102 27.5374 40.3939 27.7395 39.8273C27.9416 39.261 28.3204 38.7745 28.8205 38.4402L33.0757 35.5924C33.6931 35.1842 34.4474 35.0368 35.1731 35.1831C35.8988 35.329 36.5374 35.7565 36.9489 36.3717C37.3604 36.9872 37.5116 37.7404 37.3695 38.4669C37.2274 39.1934 36.8032 39.8342 36.1902 40.249L31.9377 43.0886C31.4792 43.3995 30.9385 43.5672 30.3846 43.5696ZM34.6316 36.7332C34.3968 36.7335 34.167 36.8033 33.9719 36.9338L29.7194 39.7899C29.5896 39.8768 29.4785 39.9881 29.392 40.1181C29.3056 40.2479 29.2454 40.3933 29.2152 40.5464C29.185 40.6995 29.1852 40.857 29.2158 41.0099C29.2463 41.163 29.3067 41.3084 29.3936 41.4379C29.4805 41.5674 29.5921 41.6787 29.7218 41.7653C29.8516 41.8519 29.997 41.9118 30.1501 41.942C30.3032 41.9723 30.4607 41.972 30.6136 41.9415C30.7667 41.911 30.9121 41.8505 31.0416 41.7636L35.2941 38.9185C35.5052 38.7761 35.6652 38.5697 35.7504 38.3297C35.8356 38.0897 35.8414 37.8289 35.7674 37.5853C35.6932 37.3415 35.5429 37.1282 35.3383 36.9762C35.1341 36.8244 34.8861 36.742 34.6316 36.7414V36.7332Z" fill="white"/>
<path d="M32.6035 46.8849C32.0023 46.8857 31.4168 46.6933 30.9336 46.3356C30.4503 45.978 30.0949 45.4747 29.9198 44.8994C29.7447 44.3243 29.7593 43.7083 29.9613 43.142C30.1636 42.5757 30.5424 42.0897 31.0422 41.7555L35.2947 38.9104C35.6004 38.7056 35.9434 38.5632 36.3043 38.4909C36.665 38.4189 37.0366 38.4183 37.3976 38.4898C37.7585 38.5613 38.1018 38.7034 38.4081 38.9076C38.714 39.1116 38.9771 39.3741 39.1816 39.6801C39.5945 40.2977 39.7454 41.0539 39.6011 41.7827C39.4568 42.5117 39.029 43.1533 38.4119 43.567L34.1594 46.4121C33.699 46.7202 33.1574 46.8849 32.6035 46.8849ZM36.8506 40.0484C36.6155 40.0484 36.386 40.1182 36.1908 40.2491L31.9383 43.0887C31.8088 43.1755 31.6975 43.2869 31.6109 43.4169C31.5246 43.5466 31.4644 43.692 31.4342 43.8452C31.4039 43.9983 31.4042 44.1558 31.4347 44.3086C31.4652 44.4617 31.5257 44.6071 31.6126 44.7366C31.6994 44.8661 31.8108 44.9774 31.9408 45.064C32.0705 45.1503 32.2162 45.2105 32.369 45.2408C32.5222 45.271 32.6797 45.2707 32.8325 45.2402C32.9856 45.2097 33.131 45.1492 33.2605 45.0624L37.513 42.2173C37.7082 42.0864 37.8599 41.9006 37.9498 41.6834C38.0394 41.466 38.0628 41.2271 38.0169 40.9968C37.9713 40.7664 37.858 40.5545 37.692 40.3882C37.5262 40.2219 37.3146 40.1086 37.0842 40.0621C37.007 40.0509 36.9286 40.0462 36.8506 40.0484Z" fill="white"/>
<path d="M19.2515 56.1104C19.0747 56.1112 18.9025 56.054 18.7614 55.9474C18.6204 55.8407 18.5184 55.6903 18.4712 55.5199C18.4239 55.3495 18.4341 55.1683 18.5001 55.0042C18.5661 54.8401 18.6843 54.7024 18.8365 54.6122L20.0377 53.892C20.9102 53.3139 21.9204 52.9772 22.9653 52.9162L24.1115 52.8502C24.8755 52.8076 25.6141 52.5607 26.2502 52.1355L31.4346 48.6939C32.2218 48.1677 32.9332 47.5361 33.5484 46.8164L37.3501 42.3715C37.489 42.209 37.6869 42.1081 37.8999 42.0913C38.1132 42.0746 38.3243 42.1433 38.4868 42.2821C38.6493 42.4209 38.7501 42.6189 38.7669 42.8319C38.7837 43.0452 38.715 43.2563 38.5761 43.4188L34.7744 47.8637C34.0628 48.6964 33.2406 49.4278 32.3307 50.0381L27.1463 53.4769C26.2705 54.0619 25.2539 54.4019 24.2023 54.461L23.0559 54.527C22.2917 54.5707 21.5532 54.8184 20.9173 55.2445L20.8843 55.2665L19.6666 55.9949C19.5415 56.0708 19.3979 56.1106 19.2515 56.1104Z" fill="white"/>
<path d="M1.3973 54.6042C1.22204 54.6045 1.05145 54.5475 0.911413 54.4423C0.771377 54.337 0.669548 54.1888 0.621359 54.0203C0.573169 53.8518 0.581303 53.672 0.644445 53.5085C0.707587 53.3452 0.822333 53.2066 0.971276 53.1143L11.8156 46.3878C12.2531 46.0934 12.5701 45.6513 12.709 45.1425L14.3446 39.2407C14.4734 38.7739 14.4464 38.2777 14.2676 37.8278L11.2796 30.3233C11.2796 30.3041 11.2658 30.2848 11.2603 30.2656C10.9925 29.4772 11.0344 28.6165 11.3774 27.8578C11.7204 27.0991 12.3388 26.4992 13.1076 26.1794C13.8764 25.8597 14.738 25.844 15.5179 26.1357C16.2977 26.4274 16.9376 27.0046 17.3079 27.7504L20.2903 33.3828C20.7274 34.2075 21.1453 34.9469 21.5686 35.6424C22.7754 37.6216 25.2961 42.8225 22.6407 48.3587C22.5948 48.4541 22.5306 48.5396 22.4517 48.6102C22.3728 48.6812 22.2808 48.7356 22.1809 48.7705C22.0809 48.8057 21.9751 48.8208 21.8693 48.815C21.7635 48.809 21.6599 48.7826 21.5645 48.7367C21.469 48.6908 21.3835 48.6267 21.3128 48.5478C21.2421 48.4689 21.1877 48.3769 21.1526 48.2768C21.1175 48.177 21.1024 48.0712 21.1082 47.9654C21.114 47.8595 21.1407 47.7559 21.1865 47.6605C23.501 42.8362 21.2635 38.2346 20.1914 36.4808C19.7516 35.7579 19.3173 34.9909 18.8665 34.136L15.862 28.52C15.7523 28.3136 15.6005 28.1325 15.4165 27.9884C15.2324 27.8444 15.0203 27.7405 14.7936 27.6836C14.5669 27.6264 14.3308 27.6176 14.1006 27.6577C13.8702 27.6976 13.6509 27.7853 13.4567 27.9153C13.1627 28.1143 12.9392 28.4013 12.8183 28.735C12.6973 29.069 12.685 29.4324 12.7832 29.7735L15.7602 37.2477C16.0683 38.0254 16.1146 38.8822 15.8921 39.6888L14.2648 45.5631C14.019 46.4474 13.4653 47.2146 12.7035 47.7265H12.6787L1.82339 54.4695C1.69685 54.5536 1.54916 54.6003 1.3973 54.6042Z" fill="white"/>
<path d="M21.7311 23.0551C21.3606 21.4313 20.6202 19.9148 19.5677 18.6239C18.5569 17.4727 18.0282 15.9764 18.0915 14.4456C18.1578 12.95 18.7788 11.5327 19.8333 10.47C20.8879 9.40736 22.3004 8.77552 23.7954 8.69773C24.9605 8.64416 26.1158 8.93185 27.1197 9.52553C28.1236 10.1192 28.9323 10.993 29.4466 12.0397C29.961 13.0865 30.1583 14.2606 30.0151 15.418C29.8716 16.5754 29.3933 17.6657 28.639 18.5552L28.6088 18.591C27.5092 19.8884 26.789 20.7461 26.4097 22.2442V22.2964C26.3838 22.3991 26.3381 22.4957 26.275 22.5808C26.2118 22.6658 26.1325 22.7375 26.0416 22.7919C25.9507 22.8463 25.8501 22.8822 25.7453 22.8977C25.6405 22.9131 25.5338 22.9078 25.4311 22.882C25.3284 22.8561 25.2318 22.8104 25.1467 22.7472C25.0617 22.6841 24.99 22.6048 24.9356 22.5139C24.8813 22.423 24.8453 22.3224 24.8298 22.2176C24.8144 22.1128 24.8197 22.0061 24.8455 21.9034V21.8511C25.3156 19.9901 26.22 18.9126 27.3773 17.5491L27.4075 17.5161C27.9477 16.8758 28.2929 16.0939 28.4023 15.2633C28.5115 14.4326 28.3801 13.5881 28.0238 12.8298C27.6675 12.0716 27.1011 11.4314 26.3919 10.9854C25.6827 10.5394 24.8605 10.3062 24.0227 10.3135C23.1849 10.3208 22.3668 10.5682 21.6654 11.0265C20.964 11.4848 20.4089 12.1346 20.0658 12.899C19.7227 13.6633 19.606 14.51 19.7297 15.3386C19.8534 16.1673 20.2122 16.943 20.7635 17.5739C21.9847 19.0513 22.8483 20.7906 23.287 22.6566L22.5062 22.86L21.7311 23.0551Z" fill="white"/>
<path d="M22.7514 26.046C22.5566 26.047 22.368 25.9773 22.2206 25.8498C22.0732 25.7224 21.977 25.5459 21.9498 25.3529C21.9226 25.16 21.9663 24.9637 22.0727 24.8005C22.1792 24.6373 22.3412 24.5182 22.5287 24.4654L25.1622 23.7067C25.2646 23.6746 25.3724 23.6634 25.4793 23.6736C25.5861 23.6838 25.6899 23.7152 25.7844 23.7661C25.8789 23.817 25.9623 23.8862 26.0297 23.9697C26.097 24.0533 26.147 24.1495 26.1767 24.2526C26.2064 24.3558 26.2152 24.4638 26.2025 24.5704C26.1898 24.677 26.156 24.78 26.103 24.8733C26.0499 24.9666 25.9788 25.0484 25.8937 25.1138C25.8086 25.1792 25.7113 25.227 25.6075 25.2543L22.9768 26.0157C22.9032 26.0352 22.8275 26.0454 22.7514 26.046Z" fill="white"/>
<path d="M22.7235 28.4152C22.5284 28.4169 22.3393 28.3476 22.1914 28.2206C22.0435 28.0933 21.9467 27.9166 21.9192 27.7236C21.8917 27.5304 21.9352 27.3338 22.0416 27.1703C22.1481 27.0069 22.3103 26.8876 22.4981 26.8346L25.1315 26.0732C25.3328 26.027 25.5441 26.0597 25.7221 26.1644C25.9001 26.2692 26.0312 26.4381 26.0886 26.6366C26.1459 26.8349 26.1251 27.0478 26.0305 27.2313C25.9358 27.4149 25.7745 27.5551 25.5796 27.6236L22.9462 28.385C22.8735 28.4045 22.7987 28.4147 22.7235 28.4152Z" fill="white"/>
<path d="M24.0811 7.22974C23.8668 7.22974 23.6612 7.14461 23.5096 6.99304C23.3581 6.84146 23.2729 6.6359 23.2729 6.42157V3.00471C23.285 2.79888 23.3752 2.60542 23.5252 2.46395C23.6752 2.32246 23.8736 2.24365 24.0797 2.24365C24.2859 2.24365 24.4843 2.32246 24.6343 2.46395C24.7843 2.60542 24.8746 2.79888 24.8866 3.00471V6.42157C24.8866 6.63544 24.8018 6.84058 24.6508 6.99208C24.4998 7.14354 24.295 7.229 24.0811 7.22974Z" fill="white"/>
<path d="M15.0656 16.2458H11.6487C11.5388 16.2522 11.4288 16.2361 11.3253 16.1985C11.2218 16.1608 11.1272 16.1025 11.0471 16.0269C10.967 15.9514 10.9032 15.8602 10.8596 15.7592C10.8159 15.6581 10.7935 15.5491 10.7935 15.439C10.7935 15.3289 10.8159 15.22 10.8596 15.1189C10.9032 15.0178 10.967 14.9267 11.0471 14.8512C11.1272 14.7756 11.2218 14.7172 11.3253 14.6796C11.4288 14.6419 11.5388 14.6258 11.6487 14.6322H15.0656C15.2715 14.6443 15.4649 14.7345 15.6063 14.8845C15.7478 15.0345 15.8267 15.2328 15.8267 15.439C15.8267 15.6452 15.7478 15.8436 15.6063 15.9936C15.4649 16.1436 15.2715 16.2338 15.0656 16.2458Z" fill="white"/>
<path d="M36.5147 16.2458H33.0979C32.9879 16.2522 32.8779 16.2361 32.7746 16.1985C32.671 16.1608 32.5764 16.1025 32.4961 16.0269C32.4161 15.9514 32.3524 15.8602 32.3087 15.7592C32.2652 15.6581 32.2427 15.5491 32.2427 15.439C32.2427 15.3289 32.2652 15.22 32.3087 15.1189C32.3524 15.0178 32.4161 14.9267 32.4961 14.8512C32.5764 14.7756 32.671 14.7172 32.7746 14.6796C32.8779 14.6419 32.9879 14.6258 33.0979 14.6322H36.5147C36.7206 14.6443 36.9141 14.7345 37.0554 14.8845C37.197 15.0345 37.2759 15.2328 37.2759 15.439C37.2759 15.6452 37.197 15.8436 37.0554 15.9936C36.9141 16.1436 36.7206 16.2338 36.5147 16.2458Z" fill="white"/>
<path d="M30.4562 9.87121C30.2973 9.87025 30.1423 9.82256 30.0106 9.73401C29.8787 9.6455 29.7759 9.5201 29.7149 9.37347C29.6538 9.22685 29.6373 9.06549 29.6676 8.90957C29.6978 8.75365 29.7731 8.61008 29.8845 8.49677L32.3007 6.0805C32.4519 5.92923 32.6573 5.84424 32.8711 5.84424C33.085 5.84424 33.2903 5.92923 33.4415 6.0805C33.5927 6.23178 33.6779 6.43695 33.6779 6.6509C33.6779 6.86484 33.5927 7.07002 33.4415 7.22129L31.0253 9.63756C30.9505 9.712 30.8617 9.77096 30.7641 9.81107C30.6665 9.85114 30.5618 9.8716 30.4562 9.87121Z" fill="white"/>
<path d="M17.704 9.87152C17.5982 9.87152 17.4935 9.85066 17.3959 9.81008C17.2982 9.76951 17.2095 9.71005 17.1349 9.63512L14.7187 7.21885C14.6438 7.14394 14.5844 7.05502 14.5438 6.95716C14.5033 6.8593 14.4824 6.7544 14.4824 6.64846C14.4824 6.54251 14.5033 6.43762 14.5438 6.33976C14.5844 6.2419 14.6438 6.15297 14.7187 6.07806C14.7936 6.00316 14.8825 5.94373 14.9804 5.90321C15.0782 5.86266 15.1832 5.8418 15.2891 5.8418C15.395 5.8418 15.4999 5.86266 15.5977 5.90321C15.6956 5.94373 15.7846 6.00316 15.8595 6.07806L18.2757 8.49433C18.387 8.60764 18.4624 8.75121 18.4926 8.90713C18.5228 9.06305 18.5063 9.2244 18.4453 9.37103C18.3843 9.51766 18.2815 9.64306 18.1496 9.73157C18.0178 9.82012 17.8628 9.86784 17.704 9.86877V9.87152Z" fill="white"/>
</g>
</g>
<defs>
<clipPath id="clip0_2530_4001">
<rect width="122.6" height="60.7503" fill="white" transform="translate(0.399902)"/>
</clipPath>
</defs>
</svg>
