<svg xmlns="http://www.w3.org/2000/svg" width="246" height="180" fill="none"><g style="mix-blend-mode:luminosity"><rect width="244.8" height="180" x=".4" fill="#000" fill-opacity=".04" rx="8"/><g fill="#fff" clip-path="url(#a)"><path fill-rule="evenodd" d="m114.425 91.481 3.571-.294-1.802-4.78zm-12.457-1.147 2.169-.179q.872-.072 1.467-.272t.909-.588.314-1.023q0-.498-.253-.856a1.36 1.36 0 0 0-.701-.508q-.423-.144-1.671-.041l-2.234.184zm4.32-19.928 2.116-.192c.4-.036.67-.32.67-.707v-.97c0-.31-.208-.606-.67-.564l-2.116.191c-.463.042-.67.375-.67.686v.97c0 .386.269.622.67.586m1.701 1.655-1.287.117c-.462.042-.67.376-.67.687v9.75c0 .386.27.622.67.586l1.287-.117c.401-.036.67-.32.67-.707v-9.75c0-.31-.207-.607-.67-.566m34.079 9.923.032.001zm-16.071 1.455a2.6 2.6 0 0 1 .359.435q.183.27.379.563l4.655 6.654v-7.103q0-.692.298-1.063l.016-.018-5.737.507q.016.012.03.025m19.83-4.741c.742.57 1.656.811 2.715.715 1.468-.132 2.579-.376 3.405-.742.286-.13.45-.37.45-.66v-.833c.001-.545-.454-.672-.775-.563-.779.258-1.785.44-3.08.557a1.13 1.13 0 0 1-.901-.29 1.11 1.11 0 0 1-.37-.85V72c0-.338.125-.647.37-.916q.37-.404.901-.452c1.293-.117 2.328-.118 3.075-.002.367.06.78-.161.78-.702v-.834c0-.274-.147-.481-.431-.58-.82-.217-1.94-.258-3.424-.124a4.46 4.46 0 0 0-2.737 1.231c-.745.706-1.139 1.611-1.139 2.615v4.032c0 1.02.39 1.837 1.161 2.43m-34.128 4.05 1.266-.114c.4-.036.67-.32.67-.707v-6.9c0-.324.127-.636.37-.918q.368-.402.902-.451l1.701-.154c.341-.03.633.07.879.308.246.226.369.506.369.832v6.9c0 .387.271.623.672.586l1.286-.116a.5.5 0 0 0 .184-.057c.384-.204.464-.465.464-.648v-6.9c0-.325.128-.638.371-.918.244-.268.547-.42.901-.451l1.701-.154c.344-.031.639.069.901.306.246.226.371.506.371.832v6.9c0 .387.269.623.67.586l1.265-.114c.4-.036.67-.32.67-.707v-6.9c0-1.028-.393-1.84-1.161-2.409-.743-.572-1.658-.812-2.716-.717l-1.701.154c-1.003.091-1.866.452-2.575 1.074-.704-.495-1.561-.7-2.551-.61l-1.702.154a4.54 4.54 0 0 0-2.737 1.211c-.746.706-1.14 1.611-1.14 2.616v6.9c0 .387.27.623.67.587m29.784 9.213q.343-.06.709-.221.368-.16.636-.42 1.215-1.125 1.215-3.635 0-1.767-.534-2.603t-1.317-1.012-1.891-.084l-1.598.132v8.105l1.834-.151q.603-.05.946-.11M91.84 83.9V77c0-1.004-.394-1.838-1.14-2.41-.743-.573-1.658-.813-2.716-.718-1.325.12-2.324.294-2.984.522-.47.18-.521.532-.521.674v.872q0 .256.131.414a.53.53 0 0 0 .471.18c.032-.002.11-.016.14-.025.512-.156 1.441-.294 2.763-.414.34-.03.634.07.88.308.245.226.37.506.37.832v.577l-2.95.267a4.46 4.46 0 0 0-2.739 1.229c-.756.718-1.14 1.591-1.14 2.596 0 1.019.392 1.837 1.162 2.43.743.57 1.657.811 2.716.715l4.908-.444a.69.69 0 0 0 .649-.705m-2.606-1.36-2.95.268q-.534.049-.902-.29a1.1 1.1 0 0 1-.37-.85c0-.326.124-.629.37-.897a1.35 1.35 0 0 1 .901-.451l2.95-.267zm66.279 9.934q-1.076.578-2.552.699-1.769.146-2.918-.427a3.45 3.45 0 0 1-1.325-1.174q-.51-.76-.509-1.518 0-.44.305-.779t.779-.378a.86.86 0 0 1 .648.191q.264.223.452.688.228.552.494.913.264.36.745.57.481.207 1.264.143 1.076-.088 1.749-.645.672-.555.672-1.306 0-.594-.362-.935-.363-.34-.938-.489a15 15 0 0 0-1.537-.289q-1.288-.195-2.156-.526-.868-.332-1.378-.986-.51-.655-.509-1.69 0-.985.538-1.795.537-.81 1.557-1.306.286-.138.6-.246l-9.013.797q.495.016.913.088a3.5 3.5 0 0 1 1.597.724q1.867 1.443 1.867 4.701 0 1.076-.187 1.979a6.3 6.3 0 0 1-.579 1.648q-.391.746-1.003 1.358-.48.471-1.051.779t-1.227.468a9.6 9.6 0 0 1-1.48.228l-3.155.26q-.66.055-.994-.117a.83.83 0 0 1-.437-.526q-.102-.354-.102-.933v-8.757q0-.782.351-1.161.17-.184.442-.293l-3.786.334.026.025q.302.321.302 1.014v9.392q0 1.572-1.305 1.68a1.7 1.7 0 0 1-.587-.045 1.3 1.3 0 0 1-.489-.257 2.6 2.6 0 0 1-.424-.442q-.195-.256-.391-.526l-4.541-6.582v6.998q0 .684-.318 1.06t-.815.418q-.514.043-.823-.287-.31-.328-.31-1.004v-9.213q0-.587.13-.932.111-.272.328-.484l-6.707.593q.134.111.236.251.209.284.351.62.142.333.363.894l3.122 7.448q.367.85.367 1.25 0 .414-.347.79-.346.375-.835.414a1.04 1.04 0 0 1-.489-.061.9.9 0 0 1-.343-.249 2.3 2.3 0 0 1-.297-.513 28 28 0 0 1-.273-.617l-.571-1.451-4.859.4-.57 1.579q-.335.924-.571 1.257-.237.333-.775.377a1.05 1.05 0 0 1-.807-.267q-.35-.305-.35-.729 0-.244.081-.512.082-.267.269-.747l3.058-8.007.313-.829q.184-.483.392-.81.097-.153.225-.283l-7.843.693q.1.029.195.064.562.19.995.594.431.405.656.968.224.564.224 1.216 0 1.336-.754 2.197-.754.86-2.287 1.32.644.29 1.231.91.587.618 1.048 1.334a9.5 9.5 0 0 1 .717 1.301q.257.586.257.814a.9.9 0 0 1-.151.481 1.2 1.2 0 0 1-.412.4 1.4 1.4 0 0 1-.603.185q-.408.033-.685-.135a1.6 1.6 0 0 1-.477-.446 18 18 0 0 1-.542-.818l-.97-1.533q-.522-.845-.933-1.275t-.836-.567q-.425-.135-1.068-.083l-.848.07v3.837q0 .757-.334 1.144a1.24 1.24 0 0 1-.872.43q-.579.048-.897-.3-.318-.349-.318-1.074v-9.189q0-.782.35-1.161.022-.02.043-.041l-4.784.423a2.65 2.65 0 0 1 1.081.722q.326.36.498.814.17.455.17.976 0 1.793-1.793 2.771 2.355.555 2.356 2.722 0 1.002-.513 1.847a3.47 3.47 0 0 1-1.386 1.3 5.3 5.3 0 0 1-1.256.425q-.709.152-1.655.23l-3.652.302q-.791.065-1.129-.262a1 1 0 0 1-.062-.067v.472s.045.088.133.11l55.548 14.553 13.922-21.925v-.672a4 4 0 0 1-.27.53q-.56.91-1.635 1.488m1.79-9.196c-.116 0-.12.083-.12.083l.001.03q0 .432-.306.803a1.07 1.07 0 0 1-.762.41q-.416.033-.632-.156-.216-.19-.468-.642-.327-.649-.783-.99-.457-.34-1.467-.258-.937.078-1.513.536-.575.459-.575 1.038 0 .358.196.603.196.244.538.403.344.16.693.236.351.078 1.158.214 1.011.154 1.83.37a5 5 0 0 1 1.394.578q.575.36.897.957.017.034.034.069V83.36s-.015-.083-.115-.083m4.776-15.15c-.744-.572-1.658-.813-2.716-.717-1.326.12-2.324.294-2.984.522-.471.18-.522.531-.522.674v.872q0 .254.132.414a.53.53 0 0 0 .471.18c.032-.003.109-.016.14-.025.511-.156 1.441-.295 2.763-.414q.51-.049.879.308c.247.226.37.506.37.832v.576l-2.95.268a4.46 4.46 0 0 0-2.739 1.229c-.755.717-1.138 1.59-1.138 2.596 0 1.018.39 1.836 1.161 2.43.743.57 1.656.81 2.716.715l4.907-.444a.69.69 0 0 0 .649-.706v-6.9c0-1.004-.394-1.838-1.139-2.41m-1.467 7.951-2.95.268q-.533.048-.901-.29a1.11 1.11 0 0 1-.371-.85c0-.326.125-.629.371-.898q.368-.402.901-.45l2.95-.268zm-3.175 14.33-.016.04zm-15.318-8.423h-.013zM94.9 84.269l1.266-.114c.4-.037.67-.32.67-.707v-6.901c0-.323.127-.635.37-.917.244-.268.547-.42.9-.451l1.703-.154q.51-.048.878.308c.246.226.371.506.371.832v6.9c0 .387.269.623.67.586l1.287-.116a.69.69 0 0 0 .649-.705v-6.901c0-1.028-.393-1.839-1.162-2.408-.743-.572-1.649-.813-2.693-.719l-1.702.154a4.55 4.55 0 0 0-2.738 1.211c-.745.706-1.139 1.61-1.139 2.616v6.9c0 .387.27.623.67.586m42.314-1.887a2 2 0 0 0-.14.05l.14-.013zM89.96 91.13l2.217-.183q.906-.075 1.398-.286.494-.212.755-.714.203-.36.204-.782 0-.904-.645-1.149-.644-.244-1.964-.135l-1.965.162zm4.419 1.778q-.637-.355-1.9-.25l-2.519.208v3.486l2.6-.214q2.454-.204 2.454-1.97 0-.904-.635-1.26m.777-6.769-.012-.004z" clip-rule="evenodd"/><path d="m144.724 67.19-4.794 2.057c-.512-.262-1.013-.29-1.006-.291.247-.034.562-.02.717-.01a.11.11 0 0 0 .114-.076c.156-.584.461-1 .657-1.22.061-.069-.002-.16-.096-.139-.549.13-1.13.481-1.444.691-.082.056-.187-.01-.151-.094.13-.307.38-.782.519-1.04.039-.074-.035-.145-.119-.117-1.066.356-2.017 1.071-2.613 1.593-.094.082-.228-.023-.144-.114l.012-.013c.062-.067.005-.158-.088-.142-.893.16-3.756.816-5.464 2.92-.066.08.03.175.126.125.459-.242 1.263-.636 1.991-.85.119-.035.179.108.068.162-1.018.499-2.842 1.59-3.318 3.183-.528 1.767-.235 3.489 1.219 4.614 1.601 1.24 3.646 1.457 5.147 2.075.076.031.166-.034.148-.107-.08-.334-.34-1.08-1.156-1.929-.051-.053-.008-.14.074-.15.289-.034.941.18 1.775 2.248.022.056.101.072.156.031.644-.471 3.728-2.956.828-5.296-.36-.29-1.92-.971-1.839-2.468.005-.093.147-.129.193-.048.2.355.667.936 1.712 1.411.612.279.917.524 1.285 1.386.301.706 2.757.719 2.67-.592-.077-1.163-.97-2.455-.895-3.76a2.5 2.5 0 0 0-.04-.64l3.951-3.146c.182-.145.026-.348-.195-.253m-5.168 4.634c-.092.458-.519.758-.955.67s-.713-.53-.621-.987.52-.757.955-.67c.435.088.713.53.621.987"/></g></g><defs><clipPath id="a"><path fill="#fff" d="M81.8 66h82v48h-82z"/></clipPath></defs></svg>