<svg xmlns="http://www.w3.org/2000/svg" width="246" height="180" fill="none"><g style="mix-blend-mode:luminosity"><rect width="244.8" height="180" x=".6" fill="#000" fill-opacity=".04" rx="8"/><g fill="#fff" clip-path="url(#a)"><path d="M95.505 80.629V99.19h-3.834V80.63zM111.119 86.666v12.546c0 3.888-3.072 6.273-6.825 6.273-3.622 0-6.325-2.229-6.586-5.366l3.807.027c.158 1.321 1.338 1.918 2.915 1.918 1.468 0 2.861-.779 2.861-2.825v-1.58c-.974.624-2.23.983-3.622.983-3.492 0-6.298-2.798-6.298-6.015 0-3.733 2.806-6.246 6.298-6.246 1.392 0 2.648.365 3.622.983v-.672zm-3.828 7.39v-3.061c-.789-1.118-1.866-1.504-2.943-1.504-1.892 0-3.176 1.246-3.176 3.136 0 1.402 1.311 2.906 3.176 2.906 1.077.027 2.181-.365 2.943-1.477M126.396 92.781c0 3.862-2.888 6.612-6.771 6.612-3.91 0-6.798-2.75-6.798-6.612 0-3.834 2.888-6.638 6.798-6.638 3.889.006 6.771 2.804 6.771 6.638m-3.698 0c0-1.815-1.207-3.292-3.073-3.292-1.892 0-3.1 1.477-3.1 3.292 0 1.864 1.208 3.266 3.1 3.266 1.866-.022 3.073-1.397 3.073-3.266M150.179 86.692v12.465l-3.753.027v-.698c-.973.623-2.229 1.01-3.622 1.01-3.491 0-6.298-2.927-6.298-6.531 0-3.63 2.807-6.558 6.298-6.558 1.393 0 2.649.387 3.622 1.01v-.698zm-3.78 8.163v-3.808c-.788-1.117-1.892-1.423-2.991-1.423-1.914 0-3.252 1.531-3.252 3.346 0 1.789 1.338 3.32 3.252 3.32 1.104-.006 2.203-.318 2.991-1.435M165.614 92.423v6.767h-3.704v-6.327c0-2.046-1.022-3.11-2.86-3.11-.947 0-2.024.543-2.916 1.58v7.851h-3.779V86.72h3.779v.934c1.023-.805 2.23-1.246 3.65-1.246 3.361 0 5.83 2.331 5.83 6.016M89.914 99.163h-3.883l-2.55-9.308-5.461 9.307h-4.356l8.424-14.41-1.365-5.026-11.367 19.442H65l14.412-24.652h3.834L84.9 80.66h3.937l-2.675 4.614zM180.864 80.629V99.19h-3.834v-.698c-.974.623-2.23 1.01-3.622 1.01-3.492 0-6.298-2.927-6.298-6.558 0-3.604 2.806-6.53 6.298-6.53 1.392 0 2.648.386 3.622 1.01v-6.795zm-3.829 14.227v-3.835c-.789-1.117-1.914-1.423-3.018-1.423-1.942 0-3.28 1.53-3.28 3.346 0 1.842 1.338 3.368 3.28 3.368 1.098 0 2.202-.312 3.018-1.456M135.794 89.855c-.837.102-2.784.209-3.937 1.761v7.567h-3.78V86.746h3.78v.934c.864-.725 2.153-1.165 3.937-.982z"/></g></g><defs><clipPath id="a"><path fill="#fff" d="M65 74h116v32H65z"/></clipPath></defs></svg>