<svg xmlns="http://www.w3.org/2000/svg" width="245" height="180" fill="none"><g style="mix-blend-mode:luminosity"><rect width="244.8" height="180" fill="#000" fill-opacity=".04" rx="8"/><g fill="#fff" clip-path="url(#a)"><path d="M121.81 76.851h-8.788v23.153h-2.158V76.851h-8.767v-1.776h19.713zM129.931 100.372c-3.143.046-6.036-1.672-7.431-4.416a9.8 9.8 0 0 1-1.09-4.657v-.736a10.6 10.6 0 0 1 1.068-4.808 8.17 8.17 0 0 1 2.959-3.357 7.6 7.6 0 0 1 4.116-1.235c2.314 0 4.139.758 5.496 2.296s2.025 3.639 2.025 6.303v1.148h-13.595v.39c0 2.1.623 3.855 1.847 5.24a5.98 5.98 0 0 0 4.672 2.102 6.85 6.85 0 0 0 2.982-.607 6.45 6.45 0 0 0 2.358-1.927l1.313.974c-1.513 2.186-3.76 3.29-6.72 3.29m-.378-17.478a5.36 5.36 0 0 0-4.005 1.69c-1.09 1.125-1.735 2.641-1.98 4.547h11.414v-.216c-.067-1.776-.578-3.227-1.557-4.354-.979-1.126-2.27-1.667-3.872-1.667M143.303 98.293h12.371v1.733H140.7V98.51l11.548-15.248h-11.192v-1.776h13.839v1.538zM158.7 90.474a10.64 10.64 0 0 1 1.068-4.808 8.07 8.07 0 0 1 3.004-3.335 8.17 8.17 0 0 1 4.405-1.192c2.537 0 4.584.867 6.163 2.6 1.58 1.732 2.359 4.028 2.359 6.887v.433a10.7 10.7 0 0 1-1.068 4.83 7.87 7.87 0 0 1-3.004 3.316 8.34 8.34 0 0 1-4.405 1.169c-2.515 0-4.584-.866-6.163-2.599-1.58-1.732-2.359-4.028-2.359-6.887zm2.114.563c0 2.21.601 4.029 1.758 5.458 1.156 1.43 2.714 2.123 4.627 2.123 1.8.041 3.516-.745 4.628-2.123 1.18-1.43 1.758-3.292 1.758-5.63v-.39a9.4 9.4 0 0 0-.801-3.9 6.36 6.36 0 0 0-2.269-2.728 5.9 5.9 0 0 0-3.338-.975 5.75 5.75 0 0 0-4.605 2.144c-1.18 1.43-1.78 3.314-1.78 5.632zM191.451 95.306a2.87 2.87 0 0 0-1.268-2.447c-.845-.606-2.091-1.105-3.804-1.451a18 18 0 0 1-3.939-1.191c-.934-.455-1.624-.997-2.069-1.647a4.07 4.07 0 0 1-.69-2.36c0-1.473.623-2.664 1.892-3.617s2.87-1.43 4.828-1.43c2.113 0 3.827.52 5.117 1.538a4.87 4.87 0 0 1 1.936 4.007h-2.114A3.29 3.29 0 0 0 189.938 84c-.934-.715-2.113-1.083-3.537-1.083-1.38 0-2.492.303-3.338.888a2.76 2.76 0 0 0-1.268 2.339 2.5 2.5 0 0 0 1.046 2.144c.69.498 1.98.975 3.827 1.408s3.226.866 4.16 1.343a5.4 5.4 0 0 1 2.047 1.732c1.246 2.08.701 4.74-1.268 6.195-1.29.931-2.981 1.408-5.073 1.408-2.225 0-4.027-.52-5.384-1.56s-2.069-2.36-2.069-3.963h2.113a3.56 3.56 0 0 0 1.558 2.793c.957.672 2.225.997 3.804.997 1.469 0 2.648-.325 3.56-.931q1.335-.978 1.335-2.405M86.545 101.412C86.033 92.597 74.64 88.59 73.55 88.178c-.044-.021-.044-.064-.022-.108l11.748-11.479v-1.234a.385.385 0 0 0-.379-.369H63.25V66l-7.988 1.624v1.17h.445s1.958 0 1.958 1.906v4.267H51.48a.236.236 0 0 0-.223.216v2.708h6.43v14.706c0 4.613 3.048 7.819 8.388 7.386a6.75 6.75 0 0 0 3.07-1.083c.404-.252.646-.683.646-1.148V96.3c-1.736 1.126-3.204 1.06-3.204 1.06-3.382 0-3.315-4.18-3.315-4.18v-15.29h15.575L67.633 88.893c-.022 1.451-.045 2.578-.045 2.6-.004.032.02.06.054.064h.013c10.28 1.69 13.06 8.166 13.06 10.05 0 0 1.113 9.162-8.299 9.79 0 0-6.163.26-7.253-2.145a.155.155 0 0 1 .076-.21l.013-.006c1.048-.427 1.727-1.427 1.713-2.534 0-1.776-1.112-3.227-3.448-3.227-1.892 0-3.449 1.451-3.449 3.227 0 0-.89 7.71 12.326 7.494 15.085-.26 14.15-12.584 14.15-12.584"/></g></g><defs><clipPath id="a"><path fill="#fff" d="M51.257 66h142.286v48H51.257z"/></clipPath></defs></svg>