<svg xmlns="http://www.w3.org/2000/svg" width="245" height="180" fill="none"><g style="mix-blend-mode:luminosity"><rect width="244.8" height="180" fill="#000" fill-opacity=".04" rx="8"/><g fill="#fff" clip-path="url(#a)"><path d="M130.08 81.35v6.16q1.542-2.015 4.454-2.015c.913 0 1.713.112 2.398.448.799.224 1.484.672 2.055 1.232.686.56 1.142 1.232 1.485 2.016s.457 1.792.457 2.912a9 9 0 0 1-.685 3.472c-.457 1.008-1.142 1.904-2.17 2.576s-2.17 1.008-3.655 1.008c-2.055 0-3.54-.672-4.453-1.904v1.568h-3.997V81.35zm-15.189 3.809c7.766 0 7.081 8.176 7.081 8.176h-10.507c.457 1.568 1.828 2.688 3.769 2.688 2.398 0 3.654-1.344 3.654-1.344l2.284 2.24c-1.142 1.12-2.74 2.128-5.938 2.128-4.911 0-7.537-3.248-7.537-6.608s1.827-7.28 7.194-7.28m96.042-.112c3.312 0 5.482 1.232 5.482 1.232l-1.485 2.912c-4.454-2.24-6.395-.672-6.395.112s.799.896 3.883 1.456 4.453 1.792 4.453 3.808-1.827 4.256-6.166 4.256-6.281-1.344-6.281-1.344l1.37-2.8c3.426 2.128 7.309 1.456 7.309.224 0-.896-1.256-1.12-2.627-1.344l-.571-.112c-.228 0-.571-.112-.799-.112-1.713-.224-4.34-1.232-4.34-3.808-.114-2.688 2.855-4.48 6.167-4.48m-19.414-4.704V90.87l5.824-5.376h4.682l-5.709 5.376 6.28 8.064h-4.682l-4.339-5.488-2.056 1.904v3.584h-3.883V80.343zm-13.818 4.704c2.741 0 5.139 1.344 6.509 3.36l-3.311 1.904c-.571-1.12-1.828-1.904-3.198-1.904-2.056 0-3.654 1.568-3.654 3.584s1.598 3.584 3.654 3.584c1.37 0 2.512-.672 3.083-1.792l3.312 1.792a7.82 7.82 0 0 1-6.395 3.248c-4.225 0-7.537-3.136-7.537-6.944-.114-3.808 3.312-6.832 7.537-6.832m-17.929 0c4.225 0 7.537 3.136 7.537 6.944s-3.426 6.944-7.537 6.944c-4.226 0-7.537-3.136-7.537-6.944-.115-3.92 3.311-6.944 7.537-6.944m-68.634.336V98.71h-4.226V85.383zm-7.88-4.032v3.36h-9.364v4.48h8.222v3.248h-8.222v6.272h-4.226V81.35zm16.902 5.712s1.484-2.24 4.568-1.904v3.696s-3.312-.784-4.568 2.576v7.392h-3.997v-13.44h3.768zm47.963-6.72V98.71h-4.225V80.343zm-14.731 8.064c-2.284 0-3.426 1.344-3.426 4.144 0 1.008.342 1.904.913 2.688q.857 1.008 2.741 1.008c.799 0 1.485-.224 1.941-.56.457-.448.8-.896 1.028-1.456.229-.56.343-1.232.343-1.792 0-1.12-.229-2.128-.8-2.8-.685-.896-1.598-1.232-2.74-1.232m26.38-.112c-2.056 0-3.655 1.568-3.655 3.584s1.599 3.584 3.655 3.584 3.654-1.568 3.654-3.584c-.114-1.904-1.713-3.584-3.654-3.584m-44.881-.336c-2.055 0-3.197 1.232-3.54 2.8h6.852c0-.336-.685-2.8-3.312-2.8M89.082 79.11c1.37 0 2.513 1.008 2.513 2.24s-1.142 2.24-2.513 2.24-2.512-1.008-2.512-2.24 1.142-2.24 2.512-2.24M55.65 76c.686 0 1.142.448 1.142 1.12v25.76c0 .672-.456 1.12-1.142 1.12H29.042c-.685 0-1.142-.448-1.142-1.12V77.12c0-.672.457-1.12 1.142-1.12zm-13.247 7.728L34.41 96.16h16.102z"/></g></g><defs><clipPath id="a"><path fill="#fff" d="M27.9 76h189v28h-189z"/></clipPath></defs></svg>