<svg xmlns="http://www.w3.org/2000/svg" width="246" height="120" fill="none"><g fill="#fff" clip-path="url(#a)" style="mix-blend-mode:luminosity"><path d="M153.325 55.43h-2.343a.96.96 0 0 1-.714-.321l-.95-1.073a.746.746 0 0 0-1.117 0l-.815.921c-.267.301-.65.475-1.053.475h-12.822a13.2 13.2 0 0 0-.698 3.281h12.106a.78.78 0 0 0 .563-.24l1.127-1.176a.75.75 0 0 1 .539-.23h.046c.213 0 .418.09.559.252l.95 1.073c.181.204.44.321.713.321h9.881a13.2 13.2 0 0 0-.698-3.281h-5.274zM140.14 65.61a.78.78 0 0 0 .563-.24l1.128-1.176a.74.74 0 0 1 .538-.23h.047c.213 0 .417.09.559.252l.949 1.073c.182.204.44.321.714.321h13.39c.502-1.036.869-2.15 1.088-3.313h-12.852a.96.96 0 0 1-.714-.322l-.95-1.073a.746.746 0 0 0-1.117 0l-.815.922c-.267.3-.65.474-1.052.474h-8.619a13.2 13.2 0 0 0 1.088 3.313h6.055M149.638 51.846a.78.78 0 0 0 .564-.24l1.127-1.176a.74.74 0 0 1 .538-.23h.047c.213 0 .417.09.559.251l.95 1.073c.181.204.44.322.713.322h2.546a13.27 13.27 0 0 0-10.626-5.309 13.27 13.27 0 0 0-10.626 5.309h14.209zM144.524 68.894h-3.482a.96.96 0 0 1-.714-.321l-.949-1.073a.746.746 0 0 0-1.118 0l-.815.921c-.267.301-.65.475-1.052.475h-.055a13.25 13.25 0 0 0 9.716 4.226c3.837 0 7.29-1.627 9.717-4.226h-11.248zM87.297 72.263l-2.704-6.568H72.51l-2.704 6.568H66.68l11.854-24.867 11.89 24.867zM73.53 63.201h10.01l-5.021-10.594zM94.741 72.263V47.396h6.92c5.409 0 8.253 2.494 8.253 7.165 0 4.672-3.02 7.095-8.289 7.095h-3.968v10.607zm2.916-13.206h3.301c4.18 0 6.007-1.37 6.007-4.496s-1.862-4.566-6.007-4.566h-3.301zM120.503 50.066h-8.569v-2.67h20.055v2.67h-8.571v22.197h-2.915zM163.402 67.733l2.51-1.704.194.404c1.545 2.81 3.231 3.933 5.795 3.933 2.845 0 4.847-1.966 4.847-4.355 0-2.248-1.124-3.758-5.62-5.62-5.162-2.142-6.919-4.355-6.919-7.516 0-3.442 2.704-6.147 7.375-6.147 3.443 0 5.796 1.476 7.131 3.864l-2.037 1.405-.598-.14c-1.053-1.651-2.353-2.6-4.566-2.6-2.705 0-4.285 1.511-4.285 3.547 0 1.896 1.018 2.985 5.409 4.987 5.725 2.6 7.13 4.742 7.13 8.185 0 3.758-3.231 6.953-7.832 6.953-3.864 0-6.533-1.475-8.536-5.198z"/></g><defs><clipPath id="a"><path fill="#fff" d="M66.192 46h114.016v28H66.192z"/></clipPath></defs></svg>