<svg xmlns="http://www.w3.org/2000/svg" width="246" height="120" fill="none"><g clip-path="url(#a)" style="mix-blend-mode:luminosity"><mask id="b" width="154" height="28" x="46" y="46" maskUnits="userSpaceOnUse" style="mask-type:luminance"><path fill="#fff" d="M199.217 46H46.15v28h153.067z"/></mask><g fill="#fff" mask="url(#b)"><path d="M94.843 69.264c-4.048 0-8.321-2.647-10.42-4.566-2.294-2.1-8.596-8.937-8.624-8.968C71.666 51.12 66.109 46 60.565 46c-6.677 0-12.502 4.625-14.016 10.75.115-.403 2.238-6.015 10.207-6.015 4.048 0 8.322 2.646 10.42 4.566 2.294 2.1 8.596 8.937 8.624 8.968 4.133 4.61 9.69 9.73 15.236 9.73 6.677 0 12.5-4.625 14.016-10.75-.116.403-2.239 6.015-10.207 6.015z"/><path d="M75.798 64.27c-.014-.017-1.829-1.984-3.864-4.131-1.1 1.306-2.685 3.084-4.507 4.68-3.395 2.976-5.602 3.6-6.864 3.6-4.762 0-8.646-3.777-8.646-8.418 0-4.642 3.88-8.39 8.646-8.42.172 0 .383.018.635.063-1.432-.55-2.953-.909-4.444-.909-7.966 0-10.089 5.61-10.206 6.016a13.5 13.5 0 0 0-.396 3.25c0 7.72 6.368 14 14.309 14 3.31 0 7.018-1.697 10.836-5.045 1.806-1.582 3.37-3.275 4.547-4.635zM75.8 55.73c.014.017 1.828 1.985 3.864 4.132 1.1-1.306 2.685-3.085 4.506-4.68 3.396-2.977 5.602-3.6 6.865-3.6 4.761 0 8.646 3.776 8.646 8.418 0 4.615-3.88 8.39-8.646 8.419-.173 0-.383-.017-.635-.063 1.432.55 2.953.91 4.444.91 7.967 0 10.09-5.61 10.207-6.017.257-1.044.395-2.13.395-3.249 0-7.72-6.47-14-14.411-14-3.311 0-6.915 1.697-10.735 5.044-1.805 1.583-3.37 3.275-4.546 4.636zM111.889 58.318V46.361h3.221v11.957zM124.03 58.318l-4.149-7.1v7.1h-3.119V46.361h3.643l3.726 6.493V46.36h3.137v11.957zM134.554 49.347v8.971h-3.17v-8.971h-3.441V46.36h10.068v2.986zM138.686 58.318V46.361h7.656v2.732h-4.52v1.889h4.115v2.63h-4.115v1.923h4.553v2.782h-7.689zM147.606 58.318V46.361h5.042c2.429 0 4.013 1.62 4.013 3.845 0 1.62-.894 2.817-2.209 3.339l2.26 4.772h-3.423l-1.89-4.334h-.658v4.334h-3.136zm4.452-6.762c.945 0 1.434-.54 1.434-1.298 0-.759-.489-1.282-1.434-1.282h-1.315v2.58zM164.842 58.318l-4.149-7.1v7.1h-3.119V46.361h3.643l3.726 6.493V46.36h3.137v11.957zM169.461 58.318V46.361h7.657v2.732h-4.52v1.889h4.114v2.63h-4.114v1.923h4.552v2.782h-7.689zM184.286 49.347v8.971h-3.17v-8.971h-3.44V46.36h10.067v2.986zM113.97 67.489c0 1.99 1.416 3.136 2.867 3.136 1.653 0 2.361-1.028 2.614-1.871l2.968.86c-.471 1.77-2.058 4.098-5.598 4.098-3.323 0-6.122-2.412-6.122-6.206s2.85-6.256 6.089-6.256c3.44 0 5.008 2.091 5.497 3.88l-2.917.994c-.22-.793-.86-1.838-2.547-1.838-1.35 0-2.85 1.028-2.85 3.204zM128.559 61.25c3.289 0 6.139 2.36 6.139 6.24s-2.85 6.24-6.139 6.24-6.139-2.36-6.139-6.24 2.85-6.24 6.139-6.24m0 9.427c1.401 0 2.885-.995 2.885-3.204s-1.484-3.17-2.885-3.17-2.884.995-2.884 3.17 1.484 3.204 2.884 3.204M146.265 73.46v-7.404l-2.614 7.404h-2.497l-2.597-7.32v7.32h-3.002V61.503h4.199l2.681 7.286 2.563-7.286h4.317V73.46h-3.052zM153.835 69.379v4.08h-3.136V61.504h4.772c2.496 0 4.199 1.635 4.199 3.946s-1.703 3.93-4.199 3.93zm1.232-2.615c.826 0 1.434-.489 1.434-1.298 0-.81-.608-1.315-1.434-1.315h-1.214v2.614h1.214zM160.295 69.076v-7.573h3.154v7.47c0 1.181.607 1.804 1.653 1.804s1.635-.624 1.635-1.804v-7.47h3.154v7.573c0 3-2.007 4.655-4.789 4.655s-4.807-1.653-4.807-4.655M177.058 64.488v8.972h-3.17v-8.972h-3.441v-2.985h10.068v2.985zM181.189 73.46V61.503h7.657v2.731h-4.52v1.89h4.115v2.63h-4.115v1.922h4.553v2.782h-7.69zM190.111 73.46V61.503h5.042c2.428 0 4.013 1.62 4.013 3.845 0 1.62-.894 2.816-2.209 3.338l2.259 4.772h-3.423l-1.889-4.333h-.658v4.333h-3.137zm4.452-6.762c.944 0 1.433-.54 1.433-1.298 0-.759-.489-1.282-1.433-1.282h-1.316v2.58z"/></g></g><defs><clipPath id="a"><path fill="#fff" d="M46.15 46h153.3v28H46.15z"/></clipPath></defs></svg>