<svg xmlns="http://www.w3.org/2000/svg" width="245" height="120" fill="none"><g fill="#fff" clip-path="url(#a)" style="mix-blend-mode:luminosity"><path d="M97.6 50.178c-1.532 0-3.01.192-3.611.355-.876.246-1.094.63-1.259 1.424l-3.474 16.032c-.056.327-.11.601-.11.875 0 .794.52 1.313 1.368 1.313.932 0 1.315-.602 1.505-1.533l.985-4.568c.683.08 1.586.164 2.873.164 5.664 0 9.192-3.063 9.192-7.687 0-4.05-2.819-6.375-7.469-6.375m-1.86 11.436c-.876 0-1.56-.028-2.188-.11l1.833-8.509c.573-.081 1.423-.193 2.299-.193 3.01 0 4.542 1.424 4.542 3.777-.002 3.01-2.192 5.035-6.486 5.035M186.735 64.896c-.465 0-.766.274-1.34.903-1.013 1.04-1.642 1.614-2.434 1.614-.711 0-1.094-.574-1.094-1.505 0-.52.109-1.15.246-1.832l1.013-4.761h3.037c.957 0 1.533-.548 1.533-1.533 0-.548-.355-.957-1.175-.957h-2.849l.492-2.216c.055-.327.109-.63.109-.903 0-.766-.52-1.314-1.368-1.314-.903 0-1.312.601-1.505 1.532l-.629 2.901h-1.287c-.984 0-1.558.548-1.558 1.533 0 .548.383.957 1.203.957h1.122l-1.013 4.705c-.109.52-.246 1.368-.246 2.243 0 2.216 1.149 3.83 3.611 3.83 1.424 0 2.681-.71 3.64-1.56.931-.82 1.614-1.833 1.614-2.49 0-.627-.493-1.147-1.122-1.147M123.81 51.792c0-.794-.548-1.315-1.396-1.315-.903 0-1.312.602-1.505 1.533l-3.418 15.895c-.082.328-.137.602-.137.876 0 .794.547 1.312 1.367 1.312.932 0 1.341-.601 1.533-1.532l3.419-15.894c.056-.33.137-.601.137-.875M172.644 56.55c-4.378 0-7.36 4.35-7.36 8.483q0 .116.004.23c-.687 1.042-1.565 2.122-2.166 2.122-.437 0-.602-.41-.602-1.04 0-.766.218-2.053.465-3.175l2.271-10.507c.055-.327.109-.601.109-.875 0-.794-.52-1.314-1.368-1.314-.931 0-1.312.601-1.505 1.532l-1.231 5.69c-.657-.682-1.616-1.149-3.065-1.149-2.907 0-5.831 2.238-6.971 5.67-1.255 3.244-2.376 5.164-3.262 5.164-.328 0-.52-.274-.52-.738 0-1.368.766-4.706 1.094-6.32.109-.601.165-.848.165-1.203 0-1.203-1.998-2.627-4.597-2.627-3.005 0-5.727 1.904-7.091 4.731-2.027 3.582-3.888 6.157-4.809 6.157-.411 0-.548-.52-.657-1.012l-.681-3.77 4.185-3.42c.383-.327.876-.794.876-1.395 0-.739-.493-1.231-1.231-1.231-.548 0-1.013.328-1.477.71l-6.292 5.198 2.106-9.794c.056-.327.137-.601.137-.875 0-.794-.548-1.314-1.395-1.314-.904 0-1.313.601-1.505 1.532l-3.419 15.895c-.082.328-.137.602-.137.876 0 .794.548 1.312 1.368 1.312.931 0 1.34-.601 1.533-1.532l.438-2.051 2.571-2.08.63 3.174c.246 1.258.903 2.49 2.599 2.49 1.687 0 3.015-1.541 4.346-3.624.403 2.182 1.955 3.623 4.109 3.623 2.162 0 3.64-1.286 4.597-3.01v.056c0 1.779.903 2.954 2.489 2.954 1.436 0 2.627-.865 3.691-2.704.604 1.602 1.954 2.704 3.832 2.704 2.216 0 3.802-1.34 4.814-3.2v.165c0 1.97.985 3.037 2.599 3.037 1.426 0 2.637-.828 3.671-2.174.787 1.346 2.196 2.174 4.1 2.174 4.378 0 7.36-4.35 7.36-8.51-.002-2.928-1.781-5.034-4.818-5.034m-27.276 5.556c-.794 3.419-2.49 5.363-4.405 5.363-1.287 0-1.998-.985-1.998-2.462 0-2.9 2.107-6.02 4.924-6.02.848 0 1.505.246 2.079.602zm15.238-1.45c-.875 4.023-2.873 6.813-5.061 6.813-1.203 0-1.916-.932-1.916-2.462 0-2.927 2.025-5.964 4.734-5.964 1.04 0 1.832.355 2.408.82zm9.822 6.813c-1.587 0-2.244-1.15-2.244-2.6 0-2.654 1.833-5.69 4.132-5.69 1.586 0 2.243 1.15 2.243 2.6 0 2.68-1.832 5.69-4.131 5.69M111.881 56.55c-4.377 0-7.36 4.35-7.36 8.482 0 2.955 1.779 5.061 4.815 5.061 4.378 0 7.36-4.35 7.36-8.51 0-2.926-1.779-5.032-4.815-5.032m-2.215 10.919c-1.587 0-2.244-1.15-2.244-2.6 0-2.654 1.833-5.69 4.132-5.69 1.586 0 2.243 1.15 2.243 2.6-.002 2.68-1.834 5.69-4.131 5.69M70.107 51.874c2.789 0 5.05-1.315 5.05-2.937s-2.261-2.936-5.05-2.936-5.048 1.315-5.048 2.936c0 1.622 2.26 2.937 5.048 2.937M70.107 73.999c2.789 0 5.05-1.315 5.05-2.937s-2.261-2.936-5.05-2.936-5.048 1.315-5.048 2.936c0 1.622 2.26 2.937 5.048 2.937M63.07 55.938c1.395-2.415 1.386-5.03-.02-5.841-1.405-.812-3.674.488-5.068 2.903-1.395 2.414-1.386 5.03.02 5.841 1.405.812 3.674-.488 5.069-2.903M82.23 67c1.394-2.415 1.385-5.03-.02-5.84-1.403-.812-3.672.489-5.066 2.903-1.395 2.415-1.386 5.03.018 5.84 1.404.812 3.673-.489 5.067-2.903M63.05 69.903c1.406-.811 1.415-3.426.02-5.841-1.394-2.415-3.663-3.715-5.068-2.903-1.406.811-1.415 3.426-.02 5.841 1.394 2.415 3.663 3.715 5.069 2.903M82.213 58.842c1.404-.811 1.413-3.426.018-5.84-1.394-2.415-3.663-3.716-5.067-2.905s-1.413 3.426-.019 5.84c1.395 2.416 3.663 3.716 5.068 2.905"/></g><defs><clipPath id="a"><path fill="#fff" d="M56.943 46h130.913v28H56.943z"/></clipPath></defs></svg>