<svg xmlns="http://www.w3.org/2000/svg" width="245" height="120" fill="none"><g fill="#fff" clip-path="url(#a)" style="mix-blend-mode:luminosity"><path fill-rule="evenodd" d="m114.225 61.481 3.57-.294-1.801-4.78zm-12.457-1.147 2.168-.178q.873-.073 1.468-.273.594-.2.909-.588.314-.389.314-1.023 0-.498-.253-.855a1.36 1.36 0 0 0-.701-.509q-.424-.145-1.672-.04l-2.233.183zm4.319-19.928 2.116-.192c.401-.036.67-.32.67-.707v-.97c0-.31-.207-.606-.67-.564l-2.116.191c-.463.042-.67.375-.67.686v.97c0 .386.269.622.67.586m19.68 13.008-.014-.012zm-17.978-11.352-1.287.116c-.463.042-.671.376-.671.687v9.75c0 .386.27.622.671.586l1.287-.117c.4-.036.67-.32.67-.707v-9.75c0-.31-.207-.607-.67-.566m34.078 9.922.032.001zm-16.07 1.455q.175.165.358.435.184.27.38.563l4.655 6.655v-7.104q0-.692.297-1.063l.017-.018-5.737.507zm19.829-4.741c.743.57 1.656.811 2.716.715 1.467-.132 2.579-.375 3.405-.742.285-.13.449-.37.449-.66v-.833c.001-.545-.453-.672-.775-.563-.778.258-1.785.44-3.079.557a1.13 1.13 0 0 1-.902-.29 1.11 1.11 0 0 1-.37-.85V42c0-.338.125-.647.37-.916q.37-.404.902-.452c1.292-.117 2.328-.117 3.074-.002.367.06.78-.161.78-.702v-.834c0-.274-.146-.481-.431-.58-.82-.217-1.94-.258-3.423-.123a4.46 4.46 0 0 0-2.738 1.23c-.745.706-1.139 1.611-1.139 2.615v4.032c0 1.02.39 1.837 1.161 2.43m-34.127 4.05 1.265-.114c.401-.036.67-.32.67-.707v-6.9c0-.324.128-.636.371-.918q.368-.402.901-.451l1.701-.154q.511-.047.879.308c.246.226.37.507.37.832v6.9c0 .387.27.623.671.586l1.287-.116a.5.5 0 0 0 .183-.057c.384-.204.465-.465.465-.648v-6.9c0-.325.127-.637.37-.918q.369-.402.901-.451l1.701-.154c.344-.031.639.069.901.306q.37.341.371.832v6.9c0 .387.27.623.67.586l1.265-.114c.401-.036.67-.32.67-.707v-6.9c0-1.028-.392-1.84-1.161-2.409-.743-.572-1.658-.812-2.716-.717l-1.701.154c-1.003.091-1.866.452-2.574 1.074-.705-.494-1.562-.7-2.552-.61l-1.701.154a4.55 4.55 0 0 0-2.738 1.211c-.745.706-1.139 1.611-1.139 2.616v6.9c0 .387.269.623.67.587m29.783 9.214a3 3 0 0 0 .709-.222q.368-.16.636-.42 1.215-1.125 1.215-3.635 0-1.767-.534-2.603t-1.317-1.012-1.891-.084l-1.598.132v8.105l1.835-.151q.603-.05.945-.11M91.639 53.9V47c0-1.004-.394-1.838-1.14-2.41-.743-.573-1.658-.813-2.715-.718-1.326.12-2.324.294-2.985.523-.47.18-.521.53-.521.673v.872q0 .256.132.414a.53.53 0 0 0 .47.18c.032-.002.11-.016.14-.025.512-.156 1.442-.294 2.764-.414q.51-.047.88.308c.245.226.369.507.369.832v.577l-2.95.267c-1.06.096-1.981.509-2.738 1.23-.757.717-1.14 1.59-1.14 2.595 0 1.019.391 1.837 1.162 2.43.742.57 1.656.811 2.716.715l4.907-.444a.69.69 0 0 0 .65-.705m-2.606-1.36-2.95.268c-.354.032-.658-.064-.901-.29a1.1 1.1 0 0 1-.371-.85c0-.325.124-.629.37-.897a1.35 1.35 0 0 1 .901-.451l2.95-.267zm66.279 9.934q-1.076.577-2.551.7-1.77.145-2.919-.428a3.45 3.45 0 0 1-1.325-1.174q-.509-.76-.509-1.518 0-.44.305-.779.306-.338.779-.377a.86.86 0 0 1 .648.19q.266.223.453.688.228.552.493.912.264.361.746.57.48.21 1.263.145 1.077-.09 1.749-.646.673-.555.673-1.306 0-.594-.363-.935-.363-.34-.938-.489a15 15 0 0 0-1.536-.289q-1.289-.195-2.157-.526-.868-.332-1.377-.986-.51-.655-.51-1.69 0-.984.538-1.795t1.557-1.306a6 6 0 0 1 .6-.246l-9.012.797q.495.015.912.088.88.156 1.598.724 1.867 1.443 1.867 4.701 0 1.076-.188 1.979a6.3 6.3 0 0 1-.579 1.648q-.392.746-1.002 1.358a4.7 4.7 0 0 1-1.052.78q-.57.306-1.227.467a9.6 9.6 0 0 1-1.48.228l-3.155.26q-.66.055-.994-.117a.83.83 0 0 1-.436-.526q-.102-.354-.102-.933v-8.757q0-.782.35-1.161.17-.184.442-.293l-3.785.334.025.025q.302.321.302 1.014v9.392q0 1.572-1.304 1.68a1.7 1.7 0 0 1-.587-.045 1.3 1.3 0 0 1-.489-.257 2.5 2.5 0 0 1-.424-.442 29 29 0 0 1-.392-.526l-4.54-6.582v6.998q0 .684-.318 1.06t-.816.418q-.514.043-.823-.287-.31-.328-.31-1.004v-9.213q0-.588.131-.932.112-.271.328-.484l-6.708.594q.133.11.237.25.207.285.35.62.142.333.363.894l3.122 7.448q.367.85.367 1.25 0 .414-.346.79-.347.375-.836.415a1.04 1.04 0 0 1-.489-.062.9.9 0 0 1-.342-.249 2.3 2.3 0 0 1-.298-.513 28 28 0 0 1-.273-.617l-.571-1.451-4.858.4-.571 1.579q-.334.924-.571 1.257t-.774.377a1.05 1.05 0 0 1-.807-.267q-.351-.305-.351-.729 0-.244.082-.512.081-.267.269-.747l3.057-8.007.314-.829q.183-.483.391-.81.098-.153.225-.283l-7.843.693q.1.029.195.064.563.19.995.594.432.405.656.969.225.563.224 1.215 0 1.335-.754 2.197-.754.861-2.287 1.32.645.29 1.232.91.587.618 1.047 1.334a9.5 9.5 0 0 1 .717 1.302q.257.585.257.813a.9.9 0 0 1-.151.481q-.15.245-.411.4a1.4 1.4 0 0 1-.603.185q-.409.033-.685-.135a1.6 1.6 0 0 1-.477-.445 17 17 0 0 1-.542-.82l-.971-1.532q-.521-.845-.933-1.275-.411-.43-.836-.567-.423-.135-1.068-.083l-.847.07v3.837q0 .757-.335 1.144a1.24 1.24 0 0 1-.872.43q-.579.048-.897-.3-.317-.349-.317-1.074v-9.189q0-.782.35-1.161.02-.02.043-.04l-4.785.422a2.66 2.66 0 0 1 1.082.722q.326.36.497.815t.171.975q0 1.793-1.793 2.771 2.355.555 2.355 2.722 0 1.002-.513 1.847a3.47 3.47 0 0 1-1.386 1.3 5.3 5.3 0 0 1-1.255.425 13 13 0 0 1-1.655.23l-3.653.302q-.79.065-1.129-.262a1 1 0 0 1-.061-.067v.472s.045.088.133.11c2.995.786 55.547 14.553 55.547 14.553l13.922-21.925v-.672a4 4 0 0 1-.27.53q-.558.91-1.635 1.488m1.791-9.196c-.116 0-.12.083-.12.083l.001.03q0 .432-.306.803a1.07 1.07 0 0 1-.762.41q-.416.034-.632-.156t-.469-.642q-.326-.648-.783-.99-.456-.34-1.467-.258-.937.077-1.512.537-.575.459-.575 1.037 0 .358.196.603.195.244.538.403.342.16.693.236.35.077 1.157.215 1.011.153 1.83.37a5 5 0 0 1 1.394.577q.575.36.897.957.018.034.034.069V53.36s-.015-.083-.114-.083m4.775-15.15c-.744-.572-1.658-.813-2.716-.717-1.325.12-2.324.294-2.984.522-.471.18-.521.532-.521.674v.872q0 .254.132.414a.53.53 0 0 0 .47.18c.032-.002.109-.016.14-.026.511-.155 1.441-.294 2.763-.413q.511-.048.879.308c.247.226.371.506.371.832v.576l-2.951.267a4.46 4.46 0 0 0-2.738 1.23c-.756.717-1.139 1.59-1.139 2.596 0 1.018.39 1.836 1.161 2.43.743.57 1.657.81 2.716.715l4.908-.444a.69.69 0 0 0 .648-.705v-6.901c0-1.004-.394-1.838-1.139-2.41m-1.466 7.952-2.951.267q-.533.048-.901-.29a1.11 1.11 0 0 1-.371-.85c0-.326.125-.629.371-.898a1.35 1.35 0 0 1 .901-.45l2.951-.268zm-3.176 14.33-.016.039zm-15.317-8.424h-.014zm-47.22 2.283 1.266-.114c.4-.036.67-.32.67-.707v-6.901c0-.323.127-.635.37-.917.244-.268.547-.419.901-.451l1.702-.154q.51-.048.879.308c.246.226.37.506.37.832v6.9c0 .387.269.623.67.587l1.288-.117a.69.69 0 0 0 .648-.705v-6.901c0-1.027-.393-1.839-1.161-2.408-.744-.572-1.65-.813-2.694-.719l-1.702.154a4.55 4.55 0 0 0-2.737 1.211c-.745.706-1.14 1.61-1.14 2.616v6.9c0 .387.27.623.67.586m42.314-1.886a2 2 0 0 0-.14.049l.14-.013zm-47.254 8.746 2.218-.182q.904-.075 1.398-.287a1.5 1.5 0 0 0 .754-.714q.204-.36.204-.782 0-.904-.644-1.149-.644-.244-1.965-.135l-1.965.162zm4.419 1.778q-.636-.354-1.9-.25l-2.519.208v3.486l2.6-.214q2.455-.204 2.455-1.97 0-.905-.636-1.26m.777-6.769-.012-.004z" clip-rule="evenodd"/><path d="m144.523 37.19-4.793 2.057c-.513-.262-1.013-.29-1.006-.292a4 4 0 0 1 .716-.01c.052.004.102-.029.114-.075.156-.584.461-1 .658-1.22.06-.07-.002-.16-.096-.139-.549.13-1.13.481-1.444.691-.082.055-.187-.01-.151-.094.129-.307.38-.782.519-1.041.039-.073-.035-.145-.12-.116-1.065.356-2.016 1.071-2.612 1.593-.094.082-.228-.024-.145-.114l.013-.014c.061-.066.004-.157-.088-.141-.894.16-3.756.816-5.465 2.92-.066.08.03.175.127.124.458-.241 1.263-.636 1.991-.85.119-.035.178.108.068.163-1.019.498-2.842 1.59-3.318 3.183-.529 1.767-.235 3.489 1.218 4.613 1.602 1.24 3.646 1.458 5.147 2.076.076.031.166-.034.149-.107-.081-.334-.341-1.08-1.157-1.93-.05-.052-.008-.14.074-.149.29-.034.941.18 1.775 2.248.023.056.102.071.157.031.643-.472 3.727-2.956.828-5.296-.361-.291-1.92-.971-1.839-2.468.005-.093.147-.13.192-.049.201.355.668.936 1.713 1.412.611.278.917.524 1.285 1.386.301.705 2.756.718 2.669-.592-.077-1.164-.97-2.455-.894-3.76a2.6 2.6 0 0 0-.04-.641l3.95-3.145c.183-.145.026-.348-.195-.254m-5.167 4.634c-.092.458-.52.757-.955.67-.435-.088-.713-.53-.621-.987s.519-.758.954-.67c.436.087.714.53.622.987"/></g><defs><clipPath id="a"><path fill="#fff" d="M81.6 36h82v48h-82z"/></clipPath></defs></svg>