<svg xmlns="http://www.w3.org/2000/svg" width="246" height="120" fill="none"><g fill="#fff" clip-path="url(#a)" style="mix-blend-mode:luminosity"><path d="m54.794 66.374-4.93 2.168v-.217c-.984.245-1.99.39-3.002.433-4.637-.046-8.317-2.5-8.36-5.419v-1.083c1.523 2.239 4.623 3.739 8.36 3.684 1.265.055 2.558-.148 3.645-.433l.429-1.084c-1.29.389-2.696.659-4.073.65-4.637.009-8.318-2.444-8.361-5.418v-.867c1.523 2.07 4.616 3.57 8.36 3.468 1.685.102 3.332-.256 4.717-.867l.214-1.085c-1.353.722-3.106 1.142-4.93 1.085-4.638.056-8.318-2.397-8.361-5.418v-.867c1.523 2.117 4.623 3.618 8.36 3.683 2.125-.065 4.138-.633 5.789-1.517l.214-1.3c-1.497 1.122-3.685 1.846-6.003 1.951-4.637-.105-8.317-2.56-8.36-5.635.043-2.927 3.723-5.38 8.36-5.419 2.765.039 5.332 1.019 6.861 2.6l.149.252 1.08.004-.158-.255c-1.52-2.089-4.56-3.468-7.93-3.468-5.133 0-9.22 2.86-9.22 6.285v11.271c.18 3.345 4.175 6.069 9.218 6.069 3.332 0 6.325-1.325 7.932-3.25"/><path d="m52.788 74 1.731-7.437-4.975 2.187 3.028-12.906H46.73l1.515-6.344H66.85l-1.514 6.344H59.28l-1.299 3.5 6.708-2.844zm3.03-8.969-.866 4.375 7.14-10.937-5.842 2.625 2.597-6.125h5.84l1.082-4.594H48.895l-1.081 4.594h5.84l-2.812 12.25zm24.998-10.395q-.129 1.84-1.31 2.897-1.178 1.059-3.11 1.057-2.11 0-3.319-1.476t-1.21-4.052v-.697q0-1.646.557-2.898.56-1.253 1.594-1.923 1.038-.669 2.41-.669 1.9 0 3.06 1.058 1.161 1.057 1.343 2.968H78.57q-.083-1.105-.592-1.601-.51-.5-1.549-.498-1.13 0-1.693.842-.562.842-.576 2.611v.862q0 1.847.539 2.701.54.855 1.7.854 1.047 0 1.564-.497.517-.498.592-1.539zm11.678-1.645q0 1.684-.573 2.953t-1.64 1.958q-1.065.688-2.446.688-1.365 0-2.435-.68-1.07-.682-1.66-1.946-.587-1.266-.594-2.91v-.564q0-1.684.584-2.964.585-1.28 1.651-1.966t2.438-.685q1.374 0 2.44.685 1.066.687 1.65 1.966.585 1.28.585 2.956zm-2.292-.516q0-1.794-.618-2.727-.619-.93-1.764-.93-1.14 0-1.757.92-.618.919-.625 2.698v.555q0 1.747.617 2.71.62.963 1.78.963 1.137 0 1.75-.927.61-.928.617-2.706zm7.516 5.959h-2.262V47.033h2.262zm12.2 0h-2.263l-4.402-7.502v7.502h-2.263V47.033h2.262l4.411 7.516v-7.517h2.255zm11.194-9.5h-3.362v9.5h-2.261v-9.5h-3.317v-1.902h8.94zm9.071 4.559h-4.343v3.053h5.097v1.888h-7.359V47.033h7.343v1.903h-5.081v2.717h4.343zm5.518 3.053h4.803v1.888h-7.064V47.033h2.261zm13.881-3.053h-4.343v3.053h5.097v1.888h-7.358V47.033h7.342v1.903h-5.081v2.717h4.343zm11.943 3.5q-.611.76-1.728 1.178-1.114.42-2.472.42-1.425 0-2.499-.647-1.074-.646-1.659-1.875-.584-1.23-.599-2.89v-.776q0-1.706.554-2.955t1.598-1.91 2.446-.663q1.953 0 3.054.968 1.101.967 1.305 2.815h-2.203q-.149-.979-.667-1.434-.516-.453-1.421-.454-1.154 0-1.757.901-.603.9-.61 2.678v.728q0 1.794.656 2.71t1.922.916q1.275 0 1.817-.564v-1.965h-2.058v-1.73h4.321zm7.071-2.733h-1.801v4.174h-2.263V47.033h4.079q1.945 0 3.001.9 1.055.902 1.055 2.545 0 1.167-.486 1.946-.486.78-1.475 1.241l2.375 4.66v.11h-2.427zm-1.801-1.903h1.823q.852 0 1.32-.45t.467-1.241q0-.807-.44-1.27-.442-.46-1.354-.461h-1.817zm14.965 3.727h-3.966l-.754 2.35h-2.405l4.087-11.402h2.095l4.109 11.402h-2.404zm-3.355-1.902h2.744l-1.38-4.269zm10.984.235v4.017h-2.261V47.033h4.282q1.236 0 2.175.47a3.36 3.36 0 0 1 1.444 1.335q.505.866.505 1.97 0 1.676-1.105 2.642-1.104.968-3.057.967zm0-1.904h2.021q.897 0 1.368-.437.472-.44.471-1.253 0-.84-.474-1.356-.475-.516-1.312-.532h-2.074zm17.809 5.92h-2.262v-4.885h-4.41v4.886h-2.263V47.033h2.263v4.62h4.41v-4.62h2.262zM75.682 71.55v-6.977h2.48v-1.11H71.87v1.11h2.46v6.977zm5.12-5.32v-3.211h-1.304v8.53h1.304v-4.29a2 2 0 0 1 .13-.214q.18-.249.445-.393c.194-.1.408-.15.624-.146q.337 0 .571.118a.73.73 0 0 1 .353.365q.126.257.125.69v3.87h1.315v-3.86q0-.615-.137-1.044a1.7 1.7 0 0 0-.385-.7 1.5 1.5 0 0 0-.608-.393 2.4 2.4 0 0 0-.783-.123 2 2 0 0 0-.916.204 2.1 2.1 0 0 0-.734.597"/><path fill-rule="evenodd" d="M87.535 71.444q.527.216 1.178.216c.343.006.685-.048 1.01-.16q.441-.162.744-.417.304-.262.495-.544l-.69-.684q-.272.355-.64.55c-.262.134-.55.2-.843.195q-.375 0-.667-.14a1.5 1.5 0 0 1-.5-.394 1.8 1.8 0 0 1-.315-.582 2.4 2.4 0 0 1-.097-.54h3.855v-.572a4.2 4.2 0 0 0-.157-1.188 2.6 2.6 0 0 0-.468-.927 2.06 2.06 0 0 0-.781-.612 2.6 2.6 0 0 0-1.103-.216 2.6 2.6 0 0 0-1.06.216 2.4 2.4 0 0 0-.846.628q-.36.405-.56.978c-.139.41-.207.843-.201 1.277v.221q0 .616.196 1.15.195.534.56.928.368.394.89.616m-.298-3.461q.019-.154.053-.295.092-.377.26-.644.169-.267.419-.405c.178-.098.378-.147.58-.144q.435 0 .695.194.263.194.386.51.132.317.142.678v.105z" clip-rule="evenodd"/><path d="M96.185 71.55h1.309v-5.032h1.21v-.978h-1.21v-.577q0-.318.109-.534a.8.8 0 0 1 .325-.327 1.06 1.06 0 0 1 .517-.117q.145 0 .27.011.132.011.24.04l.032-1.034a2.5 2.5 0 0 0-.369-.073 2.5 2.5 0 0 0-.385-.027q-.63 0-1.092.24a1.62 1.62 0 0 0-.711.693q-.245.455-.245 1.128v.578h-.902v.977h.902zm7.483-.612c-.176.219-.396.396-.646.517q-.424.207-1.016.206-.429 0-.787-.128a1.6 1.6 0 0 1-.619-.393 1.8 1.8 0 0 1-.396-.695 3.3 3.3 0 0 1-.143-1.022V65.54h1.309v3.894q0 .328.077.55.076.216.206.35a.76.76 0 0 0 .304.189q.175.055.369.055.56 0 .88-.222.279-.195.419-.503V65.54h1.314v6.009H103.7zm5.74-4.42v-.978h-1.048V64.07h-1.309v1.471h-.956v.978h.956v3.454q0 .617.195.99.197.372.543.538.347.16.798.161.278 0 .489-.04a3 3 0 0 0 .38-.088l-.005-1.022a2.6 2.6 0 0 1-.462.051 1 1 0 0 1-.331-.05.4.4 0 0 1-.222-.195q-.078-.15-.077-.428v-3.371zm5.022 4.42c-.176.219-.396.396-.646.517q-.423.207-1.016.206-.427 0-.787-.128a1.6 1.6 0 0 1-.619-.393 1.8 1.8 0 0 1-.396-.695 3.3 3.3 0 0 1-.142-1.022V65.54h1.309v3.894q0 .328.077.55.076.216.205.35a.76.76 0 0 0 .304.189q.175.055.37.055.56 0 .88-.222.277-.195.418-.503V65.54h1.314v6.009h-1.238zm4.36-3.495v4.107h-1.309v-6.01h1.25l.036.707.023-.04a1.7 1.7 0 0 1 .555-.572 1.46 1.46 0 0 1 .776-.206 1.6 1.6 0 0 1 .467.072l-.011 1.244a3.4 3.4 0 0 0-.532-.043q-.337 0-.592.1a1.11 1.11 0 0 0-.663.64"/><path fill-rule="evenodd" d="M123.144 71.445q.526.216 1.179.216.575 0 1.009-.16a2.5 2.5 0 0 0 .744-.417 2.8 2.8 0 0 0 .494-.545l-.689-.683q-.272.355-.641.55c-.261.133-.55.2-.842.195q-.375 0-.667-.14a1.45 1.45 0 0 1-.5-.394 1.8 1.8 0 0 1-.316-.583 2.5 2.5 0 0 1-.097-.539h3.856v-.572a4.2 4.2 0 0 0-.158-1.188 2.55 2.55 0 0 0-.467-.928 2.06 2.06 0 0 0-.782-.612 2.6 2.6 0 0 0-1.103-.216q-.57 0-1.058.216a2.4 2.4 0 0 0-.847.629q-.36.405-.56.977c-.138.41-.206.843-.201 1.278v.221q0 .615.195 1.15.197.533.56.927a2.6 2.6 0 0 0 .891.616m-.298-3.46q.02-.154.053-.295.092-.377.261-.644c.103-.17.247-.309.418-.405q.255-.145.581-.145.435 0 .696.194.26.195.385.511.13.316.141.678v.105zm8.236.5v.129q0 .649.185 1.205.185.555.537.972.352.411.859.645.509.227 1.156.227.64 0 1.146-.227c.328-.15.621-.37.858-.645.239-.285.422-.615.538-.972a3.9 3.9 0 0 0 .184-1.205v-.128a3.8 3.8 0 0 0-.184-1.205 2.8 2.8 0 0 0-.538-.972 2.4 2.4 0 0 0-.863-.645 2.7 2.7 0 0 0-1.152-.233 2.8 2.8 0 0 0-1.151.233 2.4 2.4 0 0 0-.858.645 2.9 2.9 0 0 0-.532.971 3.9 3.9 0 0 0-.185 1.206m1.309.129v-.128q0-.4.082-.755c.048-.227.134-.443.255-.639a1.26 1.26 0 0 1 .439-.433q.273-.16.641-.161.37 0 .636.161.271.155.445.433c.124.195.212.411.261.639q.087.354.087.755v.128q0 .405-.087.766c-.048.225-.134.44-.255.634q-.174.27-.446.427c-.193.107-.41.161-.63.156a1.26 1.26 0 0 1-.646-.156 1.3 1.3 0 0 1-.445-.427 1.9 1.9 0 0 1-.255-.634 3.6 3.6 0 0 1-.082-.766" clip-rule="evenodd"/><path d="M138.538 71.55h1.309v-5.032h1.211v-.978h-1.211v-.577q0-.318.108-.534a.8.8 0 0 1 .326-.327c.161-.08.337-.121.516-.117q.147 0 .271.011.131.011.24.04l.032-1.034a2.5 2.5 0 0 0-.369-.073 2.5 2.5 0 0 0-.386-.027q-.63 0-1.092.24c-.301.15-.549.392-.711.693q-.244.455-.244 1.128v.578h-.901v.977h.901zm8.416-4.32v4.32h-1.308v-6.01h1.232l.042.677q.287-.37.702-.572c.318-.15.665-.223 1.015-.216q.403 0 .734.123.336.115.581.372.182.185.3.448a2.073 2.073 0 0 1 .83-.731q.428-.21.983-.212.45 0 .803.128.358.123.608.389.252.267.38.694.132.422.131 1.022v3.888h-1.314v-3.894q0-.454-.131-.705a.7.7 0 0 0-.358-.344 1.4 1.4 0 0 0-.56-.1q-.303 0-.537.117a1.1 1.1 0 0 0-.386.316 1.4 1.4 0 0 0-.236.452q.003.075.002.153v4.005h-1.308v-3.888q0-.438-.131-.69a.72.72 0 0 0-.363-.354 1.3 1.3 0 0 0-.56-.111q-.37 0-.629.144-.255.144-.419.395-.057.089-.103.183"/><path fill-rule="evenodd" d="M155.52 68.484v.128q0 .649.184 1.205.186.555.538.972.353.411.858.645.51.227 1.157.227.64 0 1.146-.227c.328-.15.62-.37.857-.645a2.9 2.9 0 0 0 .538-.972c.126-.388.188-.796.185-1.205v-.128a3.8 3.8 0 0 0-.185-1.205 2.8 2.8 0 0 0-.538-.972 2.4 2.4 0 0 0-.863-.645 2.7 2.7 0 0 0-1.152-.233q-.64 0-1.15.233c-.33.146-.623.367-.858.645a2.9 2.9 0 0 0-.533.971 3.9 3.9 0 0 0-.184 1.206m1.309.128v-.128q0-.4.081-.755c.048-.227.135-.443.255-.639q.174-.278.44-.433.272-.16.64-.161.37 0 .636.161.272.155.446.433.179.278.26.639.087.354.087.755v.128q0 .405-.087.766c-.047.225-.134.44-.255.634a1.226 1.226 0 0 1-1.075.583 1.26 1.26 0 0 1-.646-.156 1.3 1.3 0 0 1-.446-.427 2 2 0 0 1-.255-.634 3.5 3.5 0 0 1-.081-.766" clip-rule="evenodd"/><path d="M163.811 67.28v4.27h-1.309v-6.01h1.233l.043.725.028-.036q.309-.382.738-.588.43-.21.956-.211.424 0 .766.122.348.116.592.383.25.267.379.694.131.422.131 1.039v3.882h-1.314v-3.887q0-.434-.125-.684a.7.7 0 0 0-.353-.361 1.3 1.3 0 0 0-.571-.111 1.24 1.24 0 0 0-.602.144c-.177.096-.331.231-.451.395q-.08.111-.141.233"/><path fill-rule="evenodd" d="M170.551 71.445q.525.216 1.178.216.575 0 1.01-.16.44-.163.744-.417.284-.237.494-.544l-.689-.684q-.272.355-.641.55c-.261.134-.55.2-.842.195a1.5 1.5 0 0 1-.668-.14 1.5 1.5 0 0 1-.5-.394 1.8 1.8 0 0 1-.315-.583 2.4 2.4 0 0 1-.096-.539h3.855v-.572q0-.65-.158-1.188a2.6 2.6 0 0 0-.467-.928 2.06 2.06 0 0 0-.782-.611 2.6 2.6 0 0 0-1.103-.216q-.57 0-1.059.216a2.4 2.4 0 0 0-.847.628 2.9 2.9 0 0 0-.559.977c-.139.411-.207.843-.201 1.278v.221q0 .616.196 1.15.195.534.559.928.368.393.891.616m-.298-3.461q.02-.154.053-.295.093-.377.261-.644t.417-.405q.256-.144.582-.144.434 0 .695.194t.386.51q.13.317.141.678v.105z" clip-rule="evenodd"/><path d="m176.93 71.535-2.08-5.995h1.412l1.273 4.105 1.225-4.105h1.401l-2.357 6.926q-.081.222-.211.484-.138.271-.343.493a1.5 1.5 0 0 1-.516.383 1.7 1.7 0 0 1-.749.15q-.175 0-.337-.032-.15-.027-.299-.062l-.005-1.022a4 4 0 0 0 .26.017q.327 0 .543-.083a.77.77 0 0 0 .354-.256q.141-.177.239-.477z"/></g><defs><clipPath id="a"><path fill="#fff" d="M37.645 46h171.11v28H37.645z"/></clipPath></defs></svg>