<svg xmlns="http://www.w3.org/2000/svg" width="246" height="120" fill="none"><g clip-path="url(#a)" style="mix-blend-mode:luminosity"><path fill="#fff" d="M138.203 44c-7.021 0-13.324 3.652-13.324 10.353 0 7.718 11.134 8.245 11.134 12.085 0 1.618-1.887 3.087-5.057 3.087-4.529 0-7.926-2.033-7.926-2.033l-1.434 6.776S125.483 76 130.692 76c7.699 0 13.738-3.802 13.738-10.654 0-8.132-11.172-8.659-11.172-12.235 0-1.28 1.548-2.673 4.718-2.673 3.586 0 6.53 1.468 6.53 1.468l1.434-6.55c-.038 0-3.246-1.356-7.737-1.356m-64.315.49-.188.978s2.944.527 5.623 1.62c3.435 1.241 3.662 1.957 4.265 4.178l6.304 24.207h8.454l12.946-30.984h-8.417l-8.341 21.083-3.397-17.883c-.302-2.032-1.887-3.2-3.85-3.2zm40.801 0-6.605 30.983h8.039l6.567-30.984zm44.763 0c-1.925 0-2.944 1.016-3.699 2.823l-11.776 28.16h8.417l1.623-4.706h10.266l.981 4.706h7.436l-6.454-30.984zm1.094 8.395 2.491 11.633h-6.68z"/></g><defs><clipPath id="a"><path fill="#fff" d="M73.7 44h99v32h-99z"/></clipPath></defs></svg>