<svg xmlns="http://www.w3.org/2000/svg" width="246" height="120" fill="none"><g fill="#fff" clip-path="url(#a)" style="mix-blend-mode:luminosity"><path d="M122.41 46.851h-8.788v23.153h-2.158V46.851h-8.767v-1.776h19.713zM130.533 70.372c-3.144.046-6.037-1.672-7.432-4.416a9.8 9.8 0 0 1-1.09-4.657v-.736a10.64 10.64 0 0 1 1.068-4.808 8.2 8.2 0 0 1 2.959-3.357 7.6 7.6 0 0 1 4.116-1.235c2.314 0 4.139.758 5.496 2.296s2.025 3.639 2.025 6.303v1.148H124.08v.39c0 2.1.623 3.855 1.847 5.24a5.98 5.98 0 0 0 4.672 2.102 6.85 6.85 0 0 0 2.982-.607 6.45 6.45 0 0 0 2.358-1.927l1.313.974c-1.513 2.186-3.76 3.29-6.719 3.29m-.379-17.478a5.36 5.36 0 0 0-4.004 1.689c-1.091 1.126-1.736 2.642-1.981 4.548h11.414v-.216c-.066-1.776-.578-3.227-1.557-4.354-.979-1.126-2.27-1.667-3.872-1.667M143.904 68.294h12.371v1.732h-14.974V68.51l11.547-15.248h-11.191v-1.776h13.839v1.538zM159.3 60.474a10.64 10.64 0 0 1 1.068-4.808 8.07 8.07 0 0 1 3.004-3.336 8.17 8.17 0 0 1 4.405-1.191c2.537 0 4.584.866 6.163 2.6 1.58 1.732 2.359 4.028 2.359 6.887v.433a10.7 10.7 0 0 1-1.068 4.83 7.87 7.87 0 0 1-3.004 3.316 8.35 8.35 0 0 1-4.405 1.17c-2.514 0-4.584-.867-6.163-2.6s-2.359-4.028-2.359-6.887zm2.114.563c0 2.21.601 4.029 1.758 5.458s2.714 2.123 4.628 2.123a5.78 5.78 0 0 0 4.627-2.123c1.18-1.43 1.758-3.292 1.758-5.631v-.39a9.4 9.4 0 0 0-.801-3.899 6.36 6.36 0 0 0-2.269-2.729 5.9 5.9 0 0 0-3.338-.974 5.75 5.75 0 0 0-4.605 2.144c-1.18 1.43-1.78 3.314-1.78 5.631zM192.052 65.306a2.87 2.87 0 0 0-1.268-2.447c-.845-.607-2.091-1.105-3.805-1.451a18 18 0 0 1-3.938-1.192c-.934-.454-1.624-.996-2.069-1.646a4.07 4.07 0 0 1-.69-2.36c0-1.473.623-2.665 1.892-3.617 1.268-.953 2.87-1.43 4.828-1.43 2.113 0 3.827.52 5.117 1.538a4.87 4.87 0 0 1 1.936 4.007h-2.114A3.29 3.29 0 0 0 190.539 54c-.934-.714-2.113-1.083-3.537-1.083-1.38 0-2.492.304-3.338.888a2.76 2.76 0 0 0-1.268 2.34 2.5 2.5 0 0 0 1.046 2.144c.69.498 1.98.974 3.827 1.408s3.226.866 4.16 1.342a5.4 5.4 0 0 1 2.047 1.733c1.246 2.08.701 4.74-1.268 6.194-1.29.932-2.981 1.408-5.073 1.408-2.225 0-4.027-.52-5.384-1.56-1.357-1.039-2.069-2.36-2.069-3.963h2.113a3.56 3.56 0 0 0 1.558 2.794c.957.672 2.225.997 3.804.997 1.469 0 2.648-.325 3.56-.932q1.335-.978 1.335-2.404M87.145 71.412c-.512-8.815-11.903-12.822-12.994-13.234-.044-.021-.044-.064-.022-.108l11.748-11.479v-1.234a.385.385 0 0 0-.378-.369h-21.65V36l-7.987 1.624v1.17h.445s1.958 0 1.958 1.906v4.267H52.08a.236.236 0 0 0-.223.216v2.708h6.43v14.706c0 4.613 3.049 7.819 8.389 7.386a6.75 6.75 0 0 0 3.07-1.083c.403-.252.645-.683.645-1.148V66.3c-1.735 1.126-3.204 1.06-3.204 1.06-3.382 0-3.315-4.18-3.315-4.18v-15.29h15.575L68.233 58.893c-.022 1.451-.044 2.578-.044 2.6-.005.032.02.06.053.064h.013c10.28 1.69 13.06 8.166 13.06 10.05 0 0 1.113 9.162-8.298 9.79 0 0-6.163.26-7.254-2.145a.155.155 0 0 1 .076-.21l.013-.006c1.048-.427 1.727-1.427 1.714-2.534 0-1.776-1.113-3.227-3.45-3.227-1.89 0-3.448 1.45-3.448 3.227 0 0-.89 7.71 12.327 7.494 15.085-.26 14.15-12.584 14.15-12.584"/></g><defs><clipPath id="a"><path fill="#fff" d="M51.857 36h142.286v48H51.857z"/></clipPath></defs></svg>