<svg xmlns="http://www.w3.org/2000/svg" width="245" height="120" fill="none"><g fill="#fff" style="mix-blend-mode:luminosity"><path d="m91.646 52.065-.655-1.212a.7.7 0 0 0-.21-.237.65.65 0 0 0-.592-.083.7.7 0 0 0-.261.171l-1.507 1.586a.743.743 0 0 0-.084.899c.55.884.99 1.839 1.31 2.84.6 1.873.767 3.869.489 5.823a12.8 12.8 0 0 1-2.088 5.415 12 12 0 0 1-4.204 3.815 11.34 11.34 0 0 1-5.393 1.373 11.24 11.24 0 0 1-5.537-1.448l2.549-2.686c1.579.63 3.3.745 4.943.333a8.36 8.36 0 0 0 4.27-2.647 9.1 9.1 0 0 0 2.123-4.715 9.3 9.3 0 0 0-.753-5.158.7.7 0 0 0-.203-.26.641.641 0 0 0-.612-.11.7.7 0 0 0-.271.176l-1.526 1.596a.744.744 0 0 0-.18.665l.132.577a5.6 5.6 0 0 1-.171 3.044 5.3 5.3 0 0 1-1.727 2.448 4.9 4.9 0 0 1-2.718 1.05 4.86 4.86 0 0 1-2.82-.691l-.672-.406a.64.64 0 0 0-.812.115l-6.225 6.556a.746.746 0 0 0-.118.838q.069.136.184.23l.918.74C71.87 74.85 75.118 76.01 78.457 76a14.6 14.6 0 0 0 7.573-2.141c2.302-1.399 4.217-3.41 5.552-5.832a16.7 16.7 0 0 0 2.054-7.971c.011-2.801-.675-5.556-1.99-7.99M87.685 47.298C85.04 45.15 81.792 43.989 78.453 44a14.6 14.6 0 0 0-7.577 2.139c-2.305 1.399-4.22 3.41-5.556 5.834a16.7 16.7 0 0 0-2.054 7.975 16.7 16.7 0 0 0 1.994 7.992l.655 1.21a.7.7 0 0 0 .21.238.66.66 0 0 0 .593.084.7.7 0 0 0 .26-.17l1.505-1.585a.747.747 0 0 0 .084-.897c-.55-.885-.99-1.84-1.31-2.841a13.1 13.1 0 0 1-.488-5.822 12.8 12.8 0 0 1 2.088-5.415 12 12 0 0 1 4.203-3.815 11.34 11.34 0 0 1 5.393-1.374c1.93-.005 3.832.494 5.536 1.452l-2.55 2.685a8.04 8.04 0 0 0-4.01-.512 8.2 8.2 0 0 0-3.774 1.51 8.76 8.76 0 0 0-2.678 3.185 9.3 9.3 0 0 0-.965 4.13c0 .148.038.822.05.938a9.3 9.3 0 0 0 .795 2.936.7.7 0 0 0 .203.26.66.66 0 0 0 .612.11.7.7 0 0 0 .273-.176l1.525-1.608a.747.747 0 0 0 .18-.664l-.13-.578a5.6 5.6 0 0 1 .17-3.045 5.3 5.3 0 0 1 1.728-2.447 4.9 4.9 0 0 1 2.718-1.05 4.86 4.86 0 0 1 2.82.692l.672.406a.65.65 0 0 0 .812-.115l6.224-6.556a.72.72 0 0 0 .197-.55.7.7 0 0 0-.078-.289.7.7 0 0 0-.185-.23zM113.27 64.415a.594.594 0 0 0-.798.02c-.976.797-2.108 1.535-3.763 1.535-3.029 0-5.494-2.687-5.494-5.993s2.456-6.017 5.472-6.017c1.31 0 2.725.581 3.766 1.544a.6.6 0 0 0 .474.223.543.543 0 0 0 .393-.235l.986-1.068a.68.68 0 0 0 .192-.494.685.685 0 0 0-.225-.489c-1.721-1.579-3.449-2.283-5.609-2.283-4.613 0-8.365 3.978-8.365 8.867.002 2.338.883 4.578 2.451 6.232s3.695 2.584 5.914 2.587a7.55 7.55 0 0 0 3.043-.6 7.9 7.9 0 0 0 2.591-1.788.758.758 0 0 0 .199-.531.597.597 0 0 0-.178-.414zM120.442 51.398h-1.493a.64.64 0 0 0-.442.203.7.7 0 0 0-.191.467v15.874a.7.7 0 0 0 .191.467.64.64 0 0 0 .442.203h1.493a.64.64 0 0 0 .442-.203.7.7 0 0 0 .191-.467V52.068a.7.7 0 0 0-.191-.467.64.64 0 0 0-.442-.203M138.103 56.742c0-2.946-2.302-5.344-5.132-5.344h-6.155a.62.62 0 0 0-.447.197.69.69 0 0 0-.185.473v15.874a.7.7 0 0 0 .184.473.62.62 0 0 0 .448.197h1.471a.64.64 0 0 0 .442-.203.7.7 0 0 0 .19-.467v-5.904h3.085l2.954 6.232a.64.64 0 0 0 .229.246.6.6 0 0 0 .315.09h1.764a.6.6 0 0 0 .32-.08.64.64 0 0 0 .239-.237.74.74 0 0 0 0-.69l-2.998-5.885c2.026-.949 3.276-2.834 3.276-4.972m-2.758.048c0 1.495-1.17 2.76-2.555 2.76h-3.825v-5.398h3.82c1.387 0 2.555 1.208 2.555 2.638zM154.167 64.416a.596.596 0 0 0-.798.02c-.976.797-2.108 1.535-3.763 1.535-3.029 0-5.494-2.687-5.494-5.993s2.454-6.017 5.47-6.017c1.311 0 2.726.581 3.767 1.543q.09.11.215.17a.6.6 0 0 0 .263.054.52.52 0 0 0 .394-.235l.985-1.068a.68.68 0 0 0 .128-.763.7.7 0 0 0-.161-.22c-1.716-1.579-3.445-2.283-5.605-2.283-4.612 0-8.365 3.978-8.365 8.867.002 2.337.883 4.578 2.452 6.232s3.694 2.584 5.913 2.587a7.55 7.55 0 0 0 3.043-.601 7.9 7.9 0 0 0 2.591-1.787.74.74 0 0 0 .199-.532.6.6 0 0 0-.178-.415zM167.893 65.947h-5.922v-13.88a.7.7 0 0 0-.191-.466.64.64 0 0 0-.442-.203h-1.492a.62.62 0 0 0-.448.197.69.69 0 0 0-.185.473v15.874a.68.68 0 0 0 .185.473.62.62 0 0 0 .448.197h8.047a.635.635 0 0 0 .449-.197.68.68 0 0 0 .186-.473v-1.319a.7.7 0 0 0-.184-.477.61.61 0 0 0-.451-.2M181.297 54.084a.62.62 0 0 0 .448-.197.7.7 0 0 0 .185-.472v-1.343a.7.7 0 0 0-.185-.473.62.62 0 0 0-.448-.197h-9.041a.62.62 0 0 0-.448.197.7.7 0 0 0-.185.473v15.873c0 .178.066.348.185.474.118.126.28.197.448.197h9.041a.62.62 0 0 0 .448-.197.7.7 0 0 0 .185-.474v-1.318a.7.7 0 0 0-.185-.472.62.62 0 0 0-.448-.197h-6.945v-4.736h5.832a.62.62 0 0 0 .449-.197.7.7 0 0 0 .185-.472V59.21a.7.7 0 0 0-.19-.468.64.64 0 0 0-.444-.203h-5.828v-4.456z"/></g></svg>