<svg xmlns="http://www.w3.org/2000/svg" width="246" height="120" fill="none"><g clip-path="url(#a)" style="mix-blend-mode:luminosity"><mask id="b" width="152" height="38" x="47" y="41" maskUnits="userSpaceOnUse" style="mask-type:luminance"><path fill="#fff" d="M198.542 41H47.2v38h151.342z"/></mask><g fill="#fff" mask="url(#b)"><path d="M75.51 64.193c-1.223-.694-2.602-.894-3.969-.937-1.146-.038-2.854-.757-2.854-2.814a2.8 2.8 0 0 1 .842-1.976 2.93 2.93 0 0 1 2.013-.838c1.366-.047 2.745-.247 3.968-.938a7.16 7.16 0 0 0 2.643-2.593 6.97 6.97 0 0 0 .965-3.54 6.97 6.97 0 0 0-.97-3.538 7.16 7.16 0 0 0-2.647-2.59 7.35 7.35 0 0 0-3.614-.948 7.35 7.35 0 0 0-3.615.948 7.16 7.16 0 0 0-2.646 2.59 6.97 6.97 0 0 0-.971 3.538c0 1.372.498 2.635 1.136 3.807.534.985.805 2.814-1.031 3.849a2.96 2.96 0 0 1-2.178.257 2.9 2.9 0 0 1-1.74-1.308c-.718-1.125-1.596-2.188-2.8-2.866a7.35 7.35 0 0 0-3.615-.948 7.35 7.35 0 0 0-3.615.95 7.16 7.16 0 0 0-2.646 2.591 6.97 6.97 0 0 0-.969 3.54c0 1.243.334 2.464.969 3.54a7.16 7.16 0 0 0 2.646 2.592 7.35 7.35 0 0 0 3.615.95c1.269 0 2.516-.327 3.615-.948 1.214-.688 2.082-1.741 2.8-2.867.591-.938 2.063-2.1 3.918-1.05.651.382 1.124 1 1.316 1.719a2.8 2.8 0 0 1-.288 2.13c-.638 1.172-1.133 2.435-1.133 3.807 0 1.244.334 2.465.969 3.542a7.16 7.16 0 0 0 2.648 2.593c1.1.621 2.347.949 3.616.949s2.518-.327 3.618-.948a7.16 7.16 0 0 0 2.648-2.593 6.97 6.97 0 0 0 .97-3.54 6.97 6.97 0 0 0-.967-3.543 7.16 7.16 0 0 0-2.647-2.594zM89.077 49.698h5.035v2.326a7.2 7.2 0 0 1 2.47-1.889c.955-.443 1.999-.675 3.056-.678a7.2 7.2 0 0 1 2.127.24v5.628s-.696-.24-2.372-.24c-2.874 0-4.79 1.875-4.79 4.689v11.489h-5.526zm27.059 0h5.035v2.085a9.6 9.6 0 0 1 6.222-2.326c5.527 0 10.316 4.69 10.316 11.023 0 6.334-4.789 11.024-10.316 11.024a8.7 8.7 0 0 1-5.731-2.123V79h-5.526zm16.047 10.782c0-3.526-2.376-5.852-5.486-5.852s-5.526 2.316-5.526 5.852 2.413 5.843 5.53 5.843c3.116 0 5.482-2.313 5.482-5.843m9.578-10.782h5.035v2.085a9.62 9.62 0 0 1 6.223-2.326c5.527 0 10.316 4.69 10.316 11.023 0 6.334-4.789 11.024-10.316 11.024a8.73 8.73 0 0 1-5.731-2.123V79h-5.527zm16.05 10.782c0-3.526-2.375-5.852-5.488-5.852s-5.527 2.316-5.527 5.852 2.417 5.843 5.527 5.843 5.488-2.313 5.488-5.843m9.579-18.757h5.526v29.54h-5.526zm9.578 18.757c0-6.09 5.035-11.023 11.012-11.023 5.769 0 10.559 4.452 10.559 11.023a13 13 0 0 1-.246 2.126h-15.348c.492 2.085 2.184 3.717 5.035 3.717 2.58 0 3.605-1.16 3.605-1.16h5.977c-1.108 2.814-4.547 6.331-9.579 6.331-5.98.01-11.015-4.92-11.015-11.014m16.283-1.641a5.26 5.26 0 0 0-1.875-3.025 5.47 5.47 0 0 0-3.406-1.186c-1.24 0-2.443.419-3.405 1.186a5.26 5.26 0 0 0-1.875 3.025zm-88.262-14.794c0-.813.33-1.593.918-2.168a3.17 3.17 0 0 1 2.215-.899c.83 0 1.627.324 2.214.899.588.575.918 1.355.918 2.168s-.33 1.594-.918 2.169a3.17 3.17 0 0 1-2.214.898 3.17 3.17 0 0 1-2.215-.898 3.03 3.03 0 0 1-.918-2.169m.371 5.653h5.536v21.571h-5.527z"/></g></g><defs><clipPath id="a"><path fill="#fff" d="M47.2 41h152v38h-152z"/></clipPath></defs></svg>