<svg xmlns="http://www.w3.org/2000/svg" width="246" height="120" fill="none"><path fill="#fff" d="M58.538 67.615c-1.616-1.538-2.462-3.769-2.462-6.615V50.385h6.462v10.384c0 1.385.23 2.462.769 3.077.538.616 1.23.923 2.154.923s1.692-.308 2.154-.923c.538-.615.769-1.692.769-3.077V50.385h6.385v10.538c0 2.846-.847 5.077-2.462 6.692C70.615 69.231 68.384 70 65.384 70c-2.923 0-5.23-.77-6.846-2.385m21.615-15.307c.692 0 1.077.23 1.23.461.232.231.462.462.462 1.154s-.23 1-.461 1.154c-.23.23-.539.462-1.23.462-.693 0-1-.231-1.232-.462-.23-.23-.461-.538-.461-1.154s.23-.923.461-1.154c.231-.154.539-.461 1.231-.461m0-1.923c-1 0-1.846.384-2.538 1-.693.615-1 1.461-1 2.538s.307 1.923 1 2.538c.692.693 1.538 1 2.615 1s1.923-.307 2.615-1c.693-.692 1-1.538 1-2.538s-.307-1.923-1-2.538c-.769-.616-1.615-1-2.692-1m11.23 5.077H85.77v-5.077h17.692v5h-5.616v14.154h-6.461zm18.001 13.307a10.04 10.04 0 0 1-3.846-3.538c-.923-1.539-1.385-3.231-1.385-5.154s.462-3.615 1.385-5.154 2.23-2.692 3.846-3.538c1.615-1 3.461-1.385 5.538-1.385s3.923.462 5.539 1.308c1.571.82 2.898 2.04 3.846 3.538.923 1.462 1.385 3.23 1.385 5.154s-.462 3.615-1.385 5.154-2.231 2.692-3.846 3.538c-1.616.847-3.462 1.308-5.539 1.308s-3.923-.385-5.538-1.23m7.692-4.538a4.14 4.14 0 0 0 1.539-1.692c.384-.693.538-1.539.538-2.539s-.154-1.846-.538-2.538c-.385-.693-.923-1.308-1.539-1.693a4.13 4.13 0 0 0-2.154-.615 4.13 4.13 0 0 0-3.692 2.307c-.385.693-.538 1.539-.538 2.539s.23 1.846.538 2.538c.385.693.923 1.308 1.539 1.693a4.13 4.13 0 0 0 2.153.615c.77-.077 1.539-.23 2.154-.615m11-13.846h9.462c2.154 0 4 .384 5.692 1.154a9.5 9.5 0 0 1 3.846 3.307q1.385 2.193 1.385 5.077T147.076 65c-.923 1.462-2.154 2.538-3.846 3.308-1.615.769-3.538 1.153-5.692 1.153h-9.462zm9.231 14.154c1.385 0 2.462-.385 3.308-1.154.846-.77 1.23-1.923 1.23-3.385s-.384-2.538-1.23-3.385c-.846-.769-1.923-1.154-3.308-1.154h-2.769v9.078zm26.231 1.692h-7.308l-1.308 3.308h-6.538l8.385-19.154h6.384l8.308 19.23h-6.692zm-1.769-4.616-1.847-4.846-1.846 4.846zm20.923 1v6.923h-6.462v-7.076l-7.231-12.154h6.846l3.924 6.615 3.923-6.615h6.23z" style="mix-blend-mode:luminosity"/></svg>