<svg xmlns="http://www.w3.org/2000/svg" width="246" height="180" fill="none"><g style="mix-blend-mode:luminosity"><rect width="244.8" height="180" x=".4" fill="#000" fill-opacity=".04" rx="8"/><g clip-path="url(#a)"><mask id="b" width="154" height="28" x="46" y="76" maskUnits="userSpaceOnUse" style="mask-type:luminance"><path fill="#fff" d="M199.216 76H46.15v28h153.066z"/></mask><g fill="#fff" mask="url(#b)"><path d="M94.842 99.264c-4.048 0-8.322-2.646-10.42-4.566-2.294-2.1-8.596-8.937-8.624-8.968C71.665 81.12 66.108 76 60.564 76c-6.678 0-12.502 4.625-14.016 10.75.115-.403 2.238-6.015 10.207-6.015 4.048 0 8.322 2.646 10.42 4.566 2.294 2.1 8.596 8.937 8.624 8.968 4.133 4.611 9.69 9.73 15.236 9.73 6.677 0 12.5-4.625 14.016-10.75-.116.403-2.239 6.015-10.207 6.015z"/><path d="M75.797 94.27a433 433 0 0 0-3.864-4.132c-1.1 1.306-2.685 3.085-4.507 4.68-3.395 2.977-5.602 3.601-6.864 3.601-4.762 0-8.646-3.777-8.646-8.419s3.88-8.39 8.646-8.419c.172 0 .382.017.635.063-1.432-.55-2.954-.909-4.444-.909-7.966 0-10.089 5.609-10.206 6.016a13.5 13.5 0 0 0-.396 3.25C46.151 97.72 52.52 104 60.46 104c3.311 0 7.02-1.696 10.837-5.044 1.806-1.583 3.37-3.275 4.546-4.636zM75.797 85.73c.015.017 1.83 1.985 3.865 4.132 1.1-1.306 2.685-3.085 4.506-4.68 3.396-2.976 5.603-3.6 6.865-3.6 4.761 0 8.646 3.776 8.646 8.418 0 4.615-3.88 8.39-8.646 8.419-.173 0-.383-.017-.635-.062 1.432.55 2.953.908 4.444.908 7.967 0 10.09-5.609 10.207-6.015.258-1.044.396-2.131.396-3.25 0-7.72-6.471-14-14.412-14-3.31 0-6.915 1.697-10.734 5.044-1.806 1.583-3.371 3.275-4.547 4.636zM111.887 88.318V76.361h3.222v11.957zM124.029 88.318l-4.149-7.1v7.1h-3.119V76.361h3.643l3.727 6.493V76.36h3.136v11.957zM134.553 79.347v8.971h-3.17v-8.971h-3.441V76.36h10.068v2.986zM138.685 88.318V76.361h7.657v2.732h-4.52v1.889h4.114v2.63h-4.114v1.923h4.552v2.782h-7.689zM147.606 88.318V76.361h5.042c2.428 0 4.013 1.62 4.013 3.845 0 1.62-.894 2.817-2.209 3.339l2.26 4.772h-3.424l-1.889-4.334h-.658v4.334h-3.136zm4.452-6.762c.945 0 1.433-.54 1.433-1.298 0-.759-.488-1.282-1.433-1.282h-1.316v2.58zM164.841 88.318l-4.149-7.1v7.1h-3.119V76.361h3.643l3.726 6.493V76.36h3.137v11.957zM169.459 88.318V76.361h7.657v2.732h-4.52v1.889h4.114v2.63h-4.114v1.923h4.553v2.782h-7.69zM184.285 79.347v8.971h-3.17v-8.971h-3.44V76.36h10.067v2.986zM113.97 97.49c0 1.99 1.416 3.136 2.867 3.136 1.652 0 2.361-1.029 2.614-1.872l2.968.86c-.472 1.77-2.058 4.098-5.599 4.098-3.322 0-6.121-2.411-6.121-6.206 0-3.794 2.85-6.256 6.089-6.256 3.44 0 5.008 2.091 5.497 3.88l-2.917.995c-.22-.793-.86-1.84-2.548-1.84-1.349 0-2.849 1.03-2.849 3.205zM128.557 91.25c3.289 0 6.139 2.361 6.139 6.24s-2.849 6.24-6.139 6.24-6.139-2.36-6.139-6.24c0-3.879 2.85-6.24 6.139-6.24m0 9.427c1.401 0 2.885-.995 2.885-3.204s-1.484-3.17-2.885-3.17-2.884.995-2.884 3.17 1.484 3.204 2.884 3.204M146.264 103.459v-7.404l-2.615 7.404h-2.497l-2.597-7.318v7.318h-3.002V91.503h4.199l2.681 7.285 2.563-7.285h4.318v11.956h-3.053zM153.834 99.378v4.081h-3.136V91.503h4.772c2.496 0 4.199 1.635 4.199 3.945s-1.703 3.93-4.199 3.93zm1.232-2.614c.826 0 1.433-.49 1.433-1.298 0-.81-.607-1.316-1.433-1.316h-1.215v2.615zM160.293 99.075v-7.572h3.154v7.47c0 1.181.607 1.804 1.653 1.804s1.635-.624 1.635-1.804v-7.47h3.155v7.572c0 3.001-2.008 4.655-4.79 4.655s-4.807-1.652-4.807-4.655M177.057 94.488v8.971h-3.17v-8.971h-3.441v-2.985h10.068v2.985zM181.188 103.459V91.503h7.657v2.731h-4.52v1.89h4.115v2.63h-4.115v1.922h4.553v2.782h-7.69zM190.111 103.459V91.503h5.042c2.428 0 4.013 1.62 4.013 3.844 0 1.62-.894 2.817-2.209 3.339l2.259 4.772h-3.424l-1.888-4.334h-.658v4.334h-3.137zm4.452-6.762c.944 0 1.433-.54 1.433-1.298s-.489-1.282-1.433-1.282h-1.316v2.58z"/></g></g></g><defs><clipPath id="a"><path fill="#fff" d="M46.15 76h153.3v28H46.15z"/></clipPath></defs></svg>