<svg xmlns="http://www.w3.org/2000/svg" width="246" height="180" fill="none"><g style="mix-blend-mode:luminosity"><rect width="244.8" height="180" x=".4" fill="#000" fill-opacity=".04" rx="8"/><g fill="#fff" clip-path="url(#a)"><path d="M77.559 89.798c0 3.408 2.496 5.682 5.521 5.682a8.7 8.7 0 0 0 4.651-1.336v3.31c-.629.397-2.518 1.12-4.626 1.12-4.92-.009-8.816-3.814-8.816-8.776s3.896-8.758 8.816-8.758c2.108 0 3.997.717 4.626 1.12v3.29a8.74 8.74 0 0 0-4.65-1.33c-3.026 0-5.522 2.27-5.522 5.678m24.649.202v8.319h-3.02v-7.336c0-1.456-.631-2.543-2.254-2.543-1.573 0-2.493 1.011-2.493 2.84v7.039h-3.02v-18.03h3.02v7.731c.217-.56 1.066-2.298 3.608-2.298 2.611 0 4.159 1.582 4.159 4.278m16.421 5.726v2.593h-3.898a.45.45 0 0 1-.452-.29.5.5 0 0 1-.034-.189v-2.212c-.412 1.456-1.524 2.937-3.844 2.937-3.149 0-5.425-2.394-5.425-6.42 0-4.077 2.493-6.423 5.593-6.423 2.858 0 3.44 2.396 3.44 2.396v-2.147h3.02v9.755zm-4.53-3.556c0-2.321-1.098-3.78-2.904-3.78-1.744 0-3.076 1.31-3.076 3.755s1.099 3.755 2.93 3.755c1.864 0 3.05-1.235 3.05-3.73m11.463-5.706v11.855h-3.02v-9.755h-2.197V85.97h4.745a.45.45 0 0 1 .342.14.47.47 0 0 1 .13.353m-.096-3.064h-3.27v-3.11h3.27zm3.624 2.57h2.979v2.199c.099-.322.824-2.447 3.657-2.447 2.616 0 4.168 1.582 4.168 4.272v8.325h-3.02v-7.336c0-1.456-.629-2.543-2.252-2.543-1.576 0-2.495 1.011-2.495 2.84v7.039h-3.021zm27.222 9.756v2.593h-3.899a.45.45 0 0 1-.346-.13.46.46 0 0 1-.14-.349v-2.212c-.411 1.456-1.523 2.937-3.843 2.937-3.15 0-5.426-2.394-5.426-6.42 0-4.077 2.493-6.423 5.596-6.423 2.858 0 3.437 2.396 3.437 2.396v-2.147h3.02v9.755zm-4.53-3.556c0-2.321-1.098-3.78-2.905-3.78-1.743 0-3.075 1.31-3.075 3.755s1.112 3.755 2.943 3.755c1.851 0 3.037-1.235 3.037-3.73m10.707-11.13v17.279h-3.036V82.882h-1.889V80.29h4.19a.72.72 0 0 1 .522.217.75.75 0 0 1 .213.533m5.439 22.96h-3.02v-2.593h2.232c.799 0 1.165-.246 1.453-.988l.898-2.321-4.662-12.127h3.366l2.833 8.716 2.932-8.716h3.366l-5.957 15.632c-.629 1.655-1.672 2.397-3.441 2.397m11.076-6.47v-2.988c.412.28 2.081 1.4 3.948 1.4 1.428 0 2.056-.42 2.056-1.235 0-2.445-6.174-.641-6.174-5.284 0-2.1 1.743-3.707 4.942-3.707 1.765 0 3.02.47 3.511.767v2.957c-.607-.398-1.817-1.187-3.465-1.187-1.427 0-1.96.445-1.96 1.137 0 1.999 6.15.616 6.15 5.163 0 2.47-2.01 4.023-4.942 4.023-1.927-.01-3.509-.677-4.066-1.047m16.251-11.066v11.855h-3.02v-9.755h-2.197V85.97h4.747a.45.45 0 0 1 .442.303q.034.091.028.19m-.096-3.064h-3.27v-3.11h3.27zm3.333 14.13v-2.988c.409.28 2.081 1.4 3.945 1.4 1.431 0 2.059-.42 2.059-1.235 0-2.445-6.174-.641-6.174-5.284 0-2.1 1.743-3.707 4.942-3.707 1.768 0 3.02.47 3.511.767v2.957a6.2 6.2 0 0 0-3.462-1.187c-1.43 0-1.963.445-1.963 1.137 0 1.999 6.153.616 6.153 5.163 0 2.47-2.01 4.023-4.942 4.023-1.925-.01-3.515-.677-4.069-1.047M51.828 76c.307 0 .656.04.656.04a8 8 0 0 0-1.78 4.457 9.2 9.2 0 0 0-5.108 2.726 9.53 9.53 0 0 0-2.54 5.279c-1.776.196-3.786 1.025-4.942 2.21C37.839 82.585 43.945 76 51.828 76m1.977 24.41q-.547.082-1.099.082a13 13 0 0 1-1.894-.16 14.6 14.6 0 0 1-1.922 3.36 13.65 13.65 0 0 1-6.55-3.572 14.07 14.07 0 0 1-3.768-6.53c1.239-1.498 4.1-2.366 5.876-2.366 3.789 0 5.798 2.05 6.496 5.244-2.282-.63-3.635-1.932-4.525-3.864a4.5 4.5 0 0 0-1.622-.28 4.5 4.5 0 0 0-1.47.238c1.006 3.906 4.718 6.824 9.24 6.824 4.175 0 5.952-2.168 5.952-2.168v-3.315s-2.048 2.17-4.599 2.604a9.5 9.5 0 0 0-2.633-5.344 9.2 9.2 0 0 0-5.252-2.661c.656-3.312 3.13-5.166 6.493-5.166s6.07 2.484 6.07 2.484v-3.274s-1.74-1.657-4.832-2.01c.077-1.456 1.005-3.273 2.01-3.945 4.212 1.341 8.272 4.97 9.43 10.253 0 0-1.855 1.893-5.334 1.893-2.86 0-4.667-1.459-5.683-4.02a4.7 4.7 0 0 0-1.661-.28 4.2 4.2 0 0 0-1.546.28c1.12 4.101 4.668 6.86 8.621 6.86 3.866 0 5.953-1.812 5.953-1.812 0 8.201-6.148 14.078-13.454 14.235.852-.84 1.508-2.682 1.703-3.59"/></g></g><defs><clipPath id="a"><path fill="#fff" d="M38.1 76h169.4v28H38.1z"/></clipPath></defs></svg>