<svg xmlns="http://www.w3.org/2000/svg" width="246" height="120" fill="none"><g fill="#fff" clip-path="url(#a)" style="mix-blend-mode:luminosity"><path d="M75.38 47.442h10.483c2.54-.07 5.062.454 7.366 1.528a10.84 10.84 0 0 1 4.732 4.434 13.75 13.75 0 0 1 1.644 6.884 13.95 13.95 0 0 1-1.628 6.927 10.74 10.74 0 0 1-4.717 4.434 16.5 16.5 0 0 1-7.394 1.529H75.381zm9.823 20.155a7.63 7.63 0 0 0 5.607-1.86 7.57 7.57 0 0 0 1.86-5.607 7.5 7.5 0 0 0-1.86-5.606 7.67 7.67 0 0 0-5.607-1.811h-3.31v14.884zM119.418 65.427h-11.164c.119.975.599 1.87 1.346 2.508a4.48 4.48 0 0 0 2.819.76 8.96 8.96 0 0 0 5.042-1.634l1.647 4.226a10.6 10.6 0 0 1-3.241 1.55c-1.224.37-2.495.56-3.774.565a11.8 11.8 0 0 1-5.34-1.126 8.07 8.07 0 0 1-3.468-3.24 9.7 9.7 0 0 1-1.234-4.949 10 10 0 0 1 1.141-4.819 8.24 8.24 0 0 1 3.201-3.308 9.1 9.1 0 0 1 4.652-1.182 7.9 7.9 0 0 1 6.057 2.481 9.94 9.94 0 0 1 2.316 6.617zm-11.164-3.101h5.644q-.211-3.197-2.819-3.197t-2.825 3.197M134.175 55.194h6.373l-8.036 17.985h-5.377l-7.908-17.985h6.822l3.961 10.137zM151.981 55.504h4.031v4.652h-4.341v13.023h-6.513V60.156h-3.101v-4.652h3.321a7.24 7.24 0 0 1 2.481-5.538 11.8 11.8 0 0 1 6.913-2.117l2.239-.14.372 4.61-1.724.07a6 6 0 0 0-2.853.62 2.1 2.1 0 0 0-.659.83 2.1 2.1 0 0 0-.166 1.045zM161.728 72.248a8.2 8.2 0 0 1-3.452-3.252 9.7 9.7 0 0 1-1.212-4.946 9.6 9.6 0 0 1 1.212-4.93 8.16 8.16 0 0 1 3.437-3.213 12.55 12.55 0 0 1 10.398 0 8.16 8.16 0 0 1 3.44 3.213 9.6 9.6 0 0 1 1.212 4.93 9.7 9.7 0 0 1-1.212 4.946 8.25 8.25 0 0 1-3.511 3.252 12.33 12.33 0 0 1-10.368 0zm8.637-8.142q0-4.509-3.452-4.509t-3.457 4.509q0 4.508 3.451 4.508t3.455-4.508zM179.582 73.179V47.442h6.513V73.18zM189.816 46.202h6.823v5.892h-6.823zm0 26.933v-17.94h6.513v17.984zM203.964 72.248a8.2 8.2 0 0 1-3.451-3.252 9.7 9.7 0 0 1-1.213-4.946 9.6 9.6 0 0 1 1.213-4.93 8.16 8.16 0 0 1 3.436-3.213 12.56 12.56 0 0 1 10.399 0 8.16 8.16 0 0 1 3.436 3.213 9.6 9.6 0 0 1 1.212 4.93 9.7 9.7 0 0 1-1.212 4.946 8.24 8.24 0 0 1-3.467 3.252 12.33 12.33 0 0 1-10.368 0zm8.638-8.062q0-4.508-3.452-4.508t-3.452 4.508 3.452 4.509q3.451 0 3.436-4.509zM63.596 61.923c.08 9.156-6.733 17.014-15.801 18.046a5 5 0 0 1-.577.031c-1.805 0-11.562 0-15.165-.145a4 4 0 0 1-3.213-2.422c.54.238 1.117.376 1.706.41 1.24.11 3.43 0 6.416 0 3.179 0 6.615.027 8.262.043.879.012 1.757-.055 2.624-.202A18.8 18.8 0 0 0 58.634 71.7a19.7 19.7 0 0 0 4.962-10.875z"/><path d="M62.15 57.985a17.983 17.983 0 0 1-16.232 17.984H30.722A4.34 4.34 0 0 1 27 71.628V44.34C27 42.171 28.55 40 30.722 40h15.506A17.68 17.68 0 0 1 62.15 57.984"/></g><defs><clipPath id="a"><path fill="#fff" d="M27 40h192v40H27z"/></clipPath></defs></svg>