<svg xmlns="http://www.w3.org/2000/svg" width="245" height="120" fill="none"><g fill="#fff" style="mix-blend-mode:luminosity"><path d="M174.797 79a5.62 5.62 0 0 1-3.973-1.627l-27.12-26.887a5.506 5.506 0 0 1 0-7.859A5.62 5.62 0 0 1 147.676 41a5.62 5.62 0 0 1 3.973 1.627L178.752 69.5a5.51 5.51 0 0 1 0 7.86 5.62 5.62 0 0 1-3.973 1.622z"/><path d="M174.797 41a5.62 5.62 0 0 0-3.973 1.627l-27.12 26.887a5.506 5.506 0 0 0 0 7.859A5.62 5.62 0 0 0 147.676 79a5.62 5.62 0 0 0 3.973-1.627L178.752 50.5a5.51 5.51 0 0 0 0-7.86 5.62 5.62 0 0 0-3.973-1.622zM94.263 44.923c3.11 2.463 5.103 5.794 6.016 10.015h-9.52c-.707-1.708-1.774-3.046-3.229-4.018-1.455-.971-3.179-1.46-5.19-1.46-2.637 0-4.753.959-6.373 2.866-1.623 1.911-2.421 4.474-2.421 7.674s.811 5.749 2.421 7.638c1.606 1.893 3.736 2.852 6.373 2.852 1.997 0 3.721-.489 5.19-1.46 1.473-.972 2.536-2.296 3.23-3.968h9.519c-.913 4.171-2.924 7.502-6.016 9.983-3.098 2.481-7.038 3.738-11.768 3.738-3.622 0-6.801-.791-9.524-2.382-2.719-1.59-4.849-3.8-6.34-6.653Q64.4 65.478 64.4 60t2.23-9.749c1.491-2.851 3.603-5.062 6.34-6.652 2.741-1.591 5.92-2.382 9.524-2.382 4.73 0 8.657 1.243 11.767 3.706M133.296 41.572v7.087h-15.248v8.076h11.782v6.784h-11.782v14.91h-9.013V41.572z"/></g></svg>