<svg xmlns="http://www.w3.org/2000/svg" width="246" height="180" fill="none"><g style="mix-blend-mode:luminosity"><rect width="244.8" height="180" x=".6" fill="#000" fill-opacity=".04" rx="8"/><g clip-path="url(#a)"><path fill="#fff" d="m59.988 90-3.13 3.145L53.7 90l3.157-3.172zm7.648-7.683 5.39 5.414 3.157-3.172L67.636 76l-8.547 8.586 3.158 3.172zm10.779 4.511L75.285 90l3.157 3.172L81.6 90zM67.636 97.684l-5.39-5.442-3.157 3.172L67.636 104l8.547-8.586-3.157-3.172zm0-4.54 3.158-3.171-3.158-3.145L64.48 90zm33.208.329v-.055c0-2.05-1.09-3.09-2.858-3.773 1.088-.602 2.014-1.586 2.014-3.309v-.055c0-2.406-1.933-3.964-5.036-3.964H87.86v15.34h7.267c3.457.027 5.717-1.395 5.717-4.184m-4.192-6.563c0 1.149-.926 1.614-2.423 1.614h-3.103V85.27h3.321c1.415 0 2.205.574 2.205 1.586zm.844 6.125c0 1.149-.899 1.668-2.368 1.668h-4.002V91.34h3.893c1.715 0 2.477.63 2.477 1.668zm10.397 4.621v-15.34h-3.375v15.34zm18.074.028V82.317h-3.321v9.46l-7.158-9.46h-3.103v15.34h3.32v-9.735l7.404 9.762zm18.618 0-6.56-15.45h-3.103l-6.56 15.45h3.457l1.388-3.445h6.451l1.388 3.445zm-6.125-6.426h-4.055l2.041-4.977zm22.157 6.426V82.317h-3.321v9.46l-7.158-9.46h-3.103v15.34h3.32v-9.735l7.404 9.762zm17.339-2.488-2.151-2.16c-1.198 1.093-2.259 1.804-4.028 1.804-2.613 0-4.437-2.187-4.437-4.812v-.082c0-2.625 1.851-4.786 4.437-4.786 1.524 0 2.722.657 3.92 1.723l2.149-2.488c-1.415-1.395-3.129-2.38-6.015-2.38-4.682 0-7.975 3.583-7.975 7.93V90c0 4.403 3.348 7.903 7.839 7.903 2.94.027 4.682-1.012 6.261-2.707m14.344 2.46v-2.98h-8.302v-3.227h7.213v-3.007h-7.213v-3.117h8.194v-3.008h-11.515v15.34z"/></g></g><defs><clipPath id="a"><path fill="#fff" d="M53.7 76h138.6v28H53.7z"/></clipPath></defs></svg>