<svg width="246" height="120" viewBox="0 0 246 120" fill="none" xmlns="http://www.w3.org/2000/svg">
<g style="mix-blend-mode:luminosity">
<path d="M43.6209 53.0875C41.6596 51.5776 39.2261 50.8126 36.7536 50.9286C34.7924 50.9286 32.4449 51.2258 32.4449 53.4797C32.4449 55.1453 34.4076 55.9313 37.348 57.0099C40.7801 58.2847 44.8021 59.9518 44.8021 64.7583C44.8021 72.407 36.6615 73.3876 32.8371 73.3876C30.7241 73.4242 28.6149 73.1935 26.5597 72.7012C24.7902 72.2094 24.3994 71.4249 24.3994 69.0715V66.2277C26.7058 67.6159 29.3551 68.3298 32.0467 68.2885C35.1861 68.2885 36.7536 67.4044 36.7536 65.4447C36.7536 63.5815 35.0896 62.8951 30.6738 61.228C27.6339 60.0424 24.3994 58.4808 24.3994 54.0681C24.3994 47.5931 31.7525 45.9275 36.1682 45.9275C38.278 45.8825 40.3764 46.2489 42.3461 47.0062C43.5243 47.6005 43.6209 48.281 43.6209 49.85V53.0875ZM66.9595 47.0062H75.1981C74.9009 49.6524 74.8058 53.8705 74.8058 57.9891V61.6173C74.7571 65.288 74.9557 68.9577 75.4002 72.6017H70.6888C68.9237 72.6017 68.0396 72.0074 67.7454 70.8366C65.6802 72.3828 63.1653 73.2099 60.5855 73.1915C51.7615 73.1915 50.6798 67.8947 50.6798 63.9723V56.8138C50.7137 53.5382 50.55 50.2636 50.1895 47.0077H55.0926C57.348 47.0077 58.4281 48.3791 58.4281 50.636V61.0364C58.4281 65.1564 58.8234 68.2944 63.9255 68.2944C65.0642 68.3055 66.1949 68.104 67.2596 67.7001V58.4883C67.2596 55.2508 67.1615 49.6613 66.9624 47.0151M91.2846 72.6121H83.0445C83.3416 69.9644 83.4367 65.7478 83.4367 61.6277V57.9905C83.5347 54.3196 83.336 50.6467 82.8424 47.0077H87.5493C89.3144 47.0077 90.197 47.602 90.4897 48.7713C92.557 47.225 95.074 46.3983 97.6556 46.4178C106.484 46.4178 107.56 51.7131 107.56 55.6296V62.7911C107.527 66.0667 107.691 69.3413 108.05 72.5972H103.146C100.89 72.5972 99.8115 71.2229 99.8115 68.9675V58.567C99.8115 54.447 99.4192 51.309 94.3141 51.309C93.175 51.2984 92.0439 51.5 90.9785 51.9033V61.1151C90.9785 64.3526 90.9785 69.9421 91.2757 72.5913" fill="white"/>
<path d="M131.294 47.0057C132.834 47.0137 134.373 46.9144 135.9 46.7085C135.582 47.9725 135.189 49.2163 134.723 50.4334C134.035 51.9043 133.152 52.3946 129.722 52.3946H126.78V61.1221C126.78 64.3596 126.877 69.9491 127.171 72.5982H118.836C119.133 69.9491 119.228 64.3581 119.228 61.1221V52.4006H116.683C114.904 52.2887 113.124 52.5908 111.482 53.2831V50.6355C111.482 48.3786 111.876 47.0057 115.111 47.0057H131.294ZM163.559 59.559C163.559 68.0918 158.656 73.3871 149.829 73.3871C141.002 73.3871 136.492 68.5821 136.492 59.8547C136.492 51.2223 141.296 46.2197 150.124 46.2197C158.953 46.2197 163.559 50.9282 163.559 59.559ZM144.046 59.6571C144.046 65.5408 146.104 68.1884 150.126 68.1884C154.05 68.1884 156.01 65.5408 156.01 59.6571C156.01 53.7734 154.048 51.0262 150.126 51.0262C146.105 51.0262 144.046 53.7734 144.046 59.6571Z" fill="white"/>
<path d="M190.821 74.0751C187.685 74.0751 186.997 72.8969 185.036 70.0531C183.957 68.4841 180.523 62.6985 179.936 61.5203C179.639 60.926 179.544 60.4431 180.131 60.146C182.682 58.675 183.27 57.1061 183.27 55.341C183.27 53.2832 182.486 51.5166 179.544 51.5166C178.781 51.4985 178.021 51.5987 177.289 51.8137V61.1295C177.289 64.367 177.387 69.9565 177.681 72.6057H169.646C169.943 70.0546 170.038 65.7399 170.038 61.6213V57.9916C170.137 54.3196 169.939 50.6456 169.444 47.0058C173.27 47.0058 178.369 46.8111 180.82 46.8111C185.129 46.8111 190.824 47.6937 190.824 54.1657C190.859 55.3971 190.569 56.6159 189.983 57.6999C189.398 58.7839 188.538 59.6951 187.49 60.3421C187.098 60.6392 187.098 60.8339 187.49 61.4237C190.22 65.6388 193.27 69.6383 196.611 73.3872C194.71 73.8078 192.771 74.0377 190.824 74.0736M211.713 65.1486V65.7429C211.688 68.0377 211.819 70.3315 212.103 72.6086H203.768C204.051 70.3313 204.182 68.0376 204.16 65.7429V65.1486C204.093 63.7651 203.689 62.419 202.982 61.2276C201.121 57.4998 197.002 50.3413 193.473 47.1023C195.299 46.9011 197.134 46.8019 198.971 46.8052C202.205 46.8052 203.186 47.8853 203.972 49.1586C205.562 51.9905 206.999 54.9058 208.276 57.892C209.525 54.9419 210.932 52.0613 212.491 49.2626C212.949 48.4608 213.625 47.805 214.44 47.3712C215.255 46.9373 216.176 46.7432 217.097 46.8111C218.736 46.822 220.372 46.9212 222 47.1083C219.451 49.3652 214.644 57.3081 212.686 60.9379C211.966 62.222 211.625 63.6843 211.704 65.1545" fill="white"/>
</g>
</svg>
