<svg width="246" height="120" viewBox="0 0 246 120" fill="none" xmlns="http://www.w3.org/2000/svg">
<g style="mix-blend-mode:luminosity">
<path d="M51.4776 69.8982C46.0091 69.8982 41.5789 65.4659 41.5789 59.9995C41.5789 54.5332 46.0112 50.1009 51.4776 50.1009V42C41.536 42 33.478 50.058 33.478 59.9995C33.478 69.9411 41.536 77.9991 51.4776 77.9991C61.4192 77.9991 69.4771 69.9411 69.4771 59.9995H61.3784C61.3784 65.4659 56.9461 69.8982 51.4797 69.8982H51.4776Z" fill="white"/>
<path d="M61.3762 50.0986H51.4775V59.9973H61.3762V50.0986Z" fill="#17E6A1"/>
<path d="M88.8324 57.2437V62.7573H97.5254C97.1328 64.332 96.3562 65.7436 95.2428 66.8721C93.5629 68.5733 91.2352 69.5109 88.6865 69.5109C83.3961 69.5109 79.0925 65.2459 79.0925 60.0026C79.0925 54.7594 83.3961 50.4923 88.6865 50.4923C91.5206 50.4923 94.125 51.6937 95.9293 53.7661L100.235 50.2777C97.3795 46.961 93.1446 44.9766 88.6865 44.9766C80.3304 44.9766 73.5317 51.7151 73.5317 59.9984C73.5317 68.2816 80.3304 75.0202 88.6865 75.0202C92.7434 75.0202 96.4828 73.572 99.2181 70.8024C101.514 68.479 103.033 65.2352 103.326 61.9871C103.47 60.4017 103.481 58.8291 103.397 57.2437H88.8324Z" fill="white"/>
<path d="M186.208 54.0176H181.229V73.4545H186.208V54.0176Z" fill="white"/>
<path d="M186.208 46.5469H181.229V51.5263H186.208V46.5469Z" fill="white"/>
<path d="M200.277 50.3799C193.738 50.3799 188.435 55.6811 188.435 62.2223C188.435 68.7634 193.738 74.0646 200.277 74.0646C206.816 74.0646 212.121 68.7634 212.121 62.2223C212.121 55.6811 206.818 50.3799 200.277 50.3799ZM200.279 69.214C196.417 69.214 193.287 66.0839 193.287 62.2223C193.287 58.3606 196.417 55.2305 200.279 55.2305C204.141 55.2305 207.271 58.3606 207.271 62.2223C207.271 66.0839 204.141 69.214 200.279 69.214Z" fill="white"/>
<path d="M141.385 66.917V55.8213H147.053V50.9685H141.385V46.5469H136.361V50.9663H133.333V55.8191H136.361V67.6379C136.361 71.2056 139.253 74.0954 142.818 74.0954H147.053V69.2126H143.683C142.413 69.2126 141.385 68.1828 141.385 66.9149V66.917Z" fill="white"/>
<path d="M175.374 67.3389C173.599 67.3389 172.162 68.7763 172.162 70.5505C172.162 72.3247 173.599 73.7621 175.374 73.7621C177.148 73.7621 178.585 72.3247 178.585 70.5505C178.585 68.7763 177.148 67.3389 175.374 67.3389Z" fill="white"/>
<path d="M125.064 51.0693V52.9679C122.716 51.0929 119.642 50.0889 116.33 50.4557C110.898 51.0564 106.508 55.448 105.91 60.8779C105.122 68.0219 110.696 74.0654 117.679 74.0654C120.472 74.0654 123.038 73.0957 125.064 71.4781V73.4518H129.916V51.0693H125.064ZM124.574 63.4051C124.1 66.3013 121.766 68.6398 118.87 69.1161C114.081 69.9055 109.999 65.8229 110.788 61.0345C111.265 58.1383 113.603 55.802 116.501 55.33C121.283 54.5491 125.357 58.6231 124.577 63.4051H124.574Z" fill="white"/>
<path d="M160.378 50.3977C153.905 50.3977 148.587 55.6902 148.52 62.1971C148.488 65.3701 149.694 68.3543 151.912 70.594C154.115 72.8188 157.054 74.0438 160.189 74.0438C164.475 74.0438 168.427 71.7354 170.57 68.0132L166.449 65.634C165.164 67.8802 162.774 69.2725 160.189 69.2725C158.337 69.2725 156.602 68.5495 155.302 67.2366C154.45 66.3763 153.922 65.3079 153.613 64.1451L153.583 64.0314H171.969C172.166 62.2164 171.926 60.4487 171.812 59.7664C170.718 54.3387 165.908 50.3955 160.378 50.3955V50.3977ZM153.972 59.2644L154.036 59.1335C155.252 56.6878 157.681 55.1689 160.378 55.1689C163.074 55.1689 165.477 56.7265 166.612 59.1357L166.672 59.2644H153.969H153.972Z" fill="white"/>
</g>
</svg>
