<svg xmlns="http://www.w3.org/2000/svg" width="246" height="120" fill="none"><g fill="#fff" clip-path="url(#a)" style="mix-blend-mode:luminosity"><path fill-rule="evenodd" d="M50.48 77.928C44.998 73.852 41.442 67.337 41.442 60c0-12.35 10.069-22.37 22.48-22.37 10.246 0 21.435 6.093 24.138 15.427C85.036 42.629 75.376 35 63.92 35 50.05 35 38.8 46.196 38.8 60S50.05 85 63.92 85c13.872 0 25.122-11.196 25.122-25v-1.318H87.48q-.246 0-.697-.02a44 44 0 0 1-2.335-.143c-1.884-.163-4.034-.482-5.495-1.066-2.355-.938-3.686-2.174-5.202-3.628l-.088-.082c-1.523-1.454-3.23-3.09-6.199-4.477-2.921-1.365-6.15-1.148-8.52-.659-1.2.245-2.238.571-2.969.836-.368.129-.662.251-.867.333-1.194.502-2.355 1.093-3.522 1.644 0 0 2.3.625 3.434.978q.059.02.19.061c.171.055.417.143.71.265.601.245 1.386.605 2.165 1.108 1.228.78 2.246 1.773 2.662 2.982-2.601.34-5.045 1.48-6.874 2.547a29 29 0 0 0-2.676 1.78c-.321.245-.58.449-.758.591-.15.123-2.498 2.181-2.498 2.181s3.03.32 4.525.618c.997.197 2.335.523 3.741 1.006 1.407.489 2.827 1.127 4.008 1.95 1.18.821 2.047 1.766 2.47 2.853 1.243 3.165.021 6.243-2.43 7.975-2.423 1.712-6.102 2.12-9.782-.394zm8.574 3.913c.99-.32 1.911-.788 2.744-1.372 3.332-2.358 5.086-6.678 3.359-11.08-.683-1.733-1.98-3.05-3.42-4.056-1.447-1.005-3.106-1.74-4.65-2.276a29 29 0 0 0-2.846-.829c.307-.197.628-.4.977-.604 2.034-1.19 4.6-2.283 7.058-2.283 3.707 0 6.465 1.134 9.1 2.344.239.108.478.224.723.333 2.356 1.1 4.827 2.255 7.7 2.255 2.875 0 4.957-.781 6.452-1.596-1.331 11.087-10.813 19.687-22.316 19.687-1.672 0-3.304-.183-4.867-.523zm24.33-20.774c-.99.333-2.192.577-3.591.577-2.253 0-4.192-.897-6.65-2.038q-.325-.153-.661-.306c-2.465-1.134-5.311-2.337-9.018-2.554-.498-2.439-2.355-4.11-3.953-5.13a11 11 0 0 0-.532-.325c.157-.034.32-.075.491-.109 2.144-.442 4.697-.55 6.861.469 2.567 1.202 4.02 2.588 5.53 4.028l.054.048c1.55 1.48 3.195 3.037 6.055 4.178 1.59.632 3.652.971 5.414 1.162" clip-rule="evenodd"/><path d="M105.303 54.613v-14.77h2.84l2.458 5.932 2.457-5.931h2.84v14.769h-2.226V43.26l-3.092 7.316-3.092-7.316v11.352zM119.27 54.613l4.663-14.77h3.01l4.663 14.77h-2.588l-1.078-3.567h-5.106l-1.059 3.567h-2.5050000000000003m4.13-5.53h3.987l-1.994-6.563zM135.251 54.613v-14.77h2.567l5.365 10.334-.041-10.333h2.164v14.769h-2.355l-5.577-10.673.041 10.673zM153.84 54.613V41.997h-4.601v-2.153h11.741v2.153h-4.601v12.616h-2.546zM163.786 54.613l4.662-14.77h3.011l4.662 14.77h-2.587l-1.079-3.567h-5.106l-1.058 3.567h-2.5050000000000003m4.13-5.53h3.986l-1.993-6.563zM105.576 79.925V65.156h2.567l5.366 10.333-.041-10.333h2.164v14.77h-2.356l-5.577-10.673.041 10.672zM120.922 79.925V65.156h9.708v2.154h-7.168v4.117h4.642v2.106h-4.642v4.239h7.25v2.153h-9.796zM139.006 79.925V67.31h-4.601v-2.154h11.741v2.154h-4.601v12.615h-2.546zM150.856 79.925l-1.74-14.769h2.246l.935 9.749 1.905-9.749h1.904l1.905 9.66.935-9.66h2.164l-1.72 14.77h-2.287l-1.973-10.422-1.993 10.421h-2.287zM169.95 80.156a5.1 5.1 0 0 1-2.881-.883c-.873-.591-1.577-1.454-2.095-2.582q-.788-1.7-.786-4.144c0-1.63.26-3.016.786-4.144.525-1.134 1.222-1.99 2.095-2.581a5.04 5.04 0 0 1 2.881-.883c1.045 0 2 .298 2.874.883.867.59 1.57 1.453 2.096 2.581.532 1.135.792 2.514.792 4.144s-.267 3.017-.792 4.144c-.533 1.135-1.229 1.99-2.096 2.582a5 5 0 0 1-2.874.883m0-2.276c.594 0 1.133-.197 1.625-.605.485-.4.874-.998 1.153-1.793.28-.795.424-1.773.424-2.942q-.002-1.752-.424-2.934c-.279-.788-.668-1.386-1.153-1.794-.485-.407-1.031-.611-1.625-.611q-.889 0-1.625.611c-.484.408-.873 1.005-1.153 1.794-.28.788-.424 1.766-.424 2.935 0 1.168.144 2.146.424 2.941s.669 1.393 1.153 1.793c.485.401 1.031.605 1.625.605M180.17 79.925V65.156h5.044q1.487-.001 2.594.557c.744.374 1.318.89 1.741 1.563.416.666.628 1.447.628 2.33 0 .972-.252 1.807-.765 2.507-.512.706-1.201 1.216-2.075 1.542l3.243 6.263h-2.738l-2.949-5.903h-2.184v5.903h-2.546zm2.546-7.928h2.287c.792 0 1.42-.217 1.897-.645q.708-.64.71-1.698c0-.707-.239-1.291-.71-1.72-.471-.427-1.105-.645-1.897-.645h-2.287v4.707999999999999M194.771 79.925V65.156h2.547v6.603l5.318-6.603h2.901l-5.98 7.154 6.253 7.615h-3.203l-5.297-6.752v6.752h-2.546z"/></g><defs><clipPath id="a"><path fill="#fff" d="M38.8 35h168v50h-168z"/></clipPath></defs></svg>