<svg width="245" height="180" viewBox="0 0 245 180" fill="none" xmlns="http://www.w3.org/2000/svg">
<g style="mix-blend-mode:luminosity">
<rect width="244.8" height="180" rx="8" fill="black" fill-opacity="0.04"/>
<g clip-path="url(#clip0_2272_3352)">
<path d="M97.6003 80.1779C96.0676 80.1779 94.5904 80.3704 93.9889 80.5332C93.1133 80.7794 92.8949 81.1626 92.7301 81.9568L89.2557 97.9888C89.2001 98.3164 89.1465 98.5904 89.1465 98.8644C89.1465 99.6585 89.6667 100.177 90.5144 100.177C91.4456 100.177 91.8287 99.5751 92.0193 98.644L93.0041 94.0756C93.6871 94.157 94.5904 94.2404 95.877 94.2404C101.541 94.2404 105.069 91.1769 105.069 86.553C105.069 82.5028 102.25 80.1779 97.6003 80.1779ZM95.74 91.6137C94.8644 91.6137 94.1795 91.5859 93.5521 91.5045L95.3846 82.9951C95.9584 82.9137 96.8081 82.8025 97.6837 82.8025C100.694 82.8025 102.226 84.2261 102.226 86.5788C102.224 89.5886 100.034 91.6137 95.74 91.6137Z" fill="white"/>
<path d="M186.734 94.8956C186.27 94.8956 185.968 95.1696 185.394 95.799C184.382 96.8393 183.752 97.4131 182.96 97.4131C182.249 97.4131 181.866 96.8393 181.866 95.9082C181.866 95.388 181.975 94.7586 182.112 94.0756L183.125 89.3147H186.163C187.12 89.3147 187.695 88.7667 187.695 87.7819C187.695 87.234 187.34 86.825 186.52 86.825H183.671L184.163 84.6093C184.219 84.2817 184.273 83.9799 184.273 83.7059C184.273 82.9396 183.752 82.3916 182.905 82.3916C182.001 82.3916 181.592 82.9932 181.4 83.9243L180.77 86.825H179.484C178.499 86.825 177.925 87.373 177.925 88.3577C177.925 88.9057 178.308 89.3147 179.128 89.3147H180.25L179.238 94.0201C179.128 94.5402 178.991 95.388 178.991 96.2635C178.991 98.4792 180.141 100.093 182.603 100.093C184.026 100.093 185.283 99.3826 186.242 98.5329C187.173 97.7129 187.856 96.7003 187.856 96.0432C187.856 95.4158 187.364 94.8956 186.734 94.8956Z" fill="white"/>
<path d="M123.81 81.792C123.81 80.9978 123.262 80.4777 122.414 80.4777C121.51 80.4777 121.101 81.0792 120.909 82.0104L117.49 97.9054C117.409 98.233 117.353 98.507 117.353 98.781C117.353 99.5752 117.901 100.093 118.721 100.093C119.652 100.093 120.061 99.4918 120.254 98.5606L123.673 82.6675C123.728 82.338 123.81 82.066 123.81 81.792Z" fill="white"/>
<path d="M172.644 86.5513C168.267 86.5513 165.285 90.9013 165.285 95.0329C165.285 95.1103 165.287 95.1877 165.289 95.2632C164.602 96.3055 163.724 97.3856 163.123 97.3856C162.686 97.3856 162.521 96.9746 162.521 96.3452C162.521 95.5789 162.739 94.2923 162.986 93.1706L165.257 82.6639C165.312 82.3363 165.366 82.0623 165.366 81.7883C165.366 80.9942 164.846 80.474 163.998 80.474C163.067 80.474 162.686 81.0756 162.493 82.0067L161.262 87.6969C160.605 87.0139 159.646 86.5473 158.197 86.5473C155.29 86.5473 152.366 88.7849 151.226 92.2176C149.971 95.4617 148.85 97.3816 147.964 97.3816C147.636 97.3816 147.444 97.1076 147.444 96.643C147.444 95.2751 148.21 91.9377 148.538 90.3235C148.647 89.722 148.703 89.4758 148.703 89.1204C148.703 87.9172 146.705 86.4937 144.106 86.4937C141.101 86.4937 138.379 88.3977 137.015 91.2249C134.988 94.8066 133.127 97.3816 132.206 97.3816C131.795 97.3816 131.658 96.8614 131.549 96.3691L130.868 92.5988L135.053 89.1799C135.436 88.8524 135.929 88.3858 135.929 87.7842C135.929 87.0457 135.436 86.5533 134.698 86.5533C134.15 86.5533 133.685 86.8809 133.221 87.264L126.929 92.4618L129.035 82.6679C129.091 82.3403 129.172 82.0663 129.172 81.7923C129.172 80.9981 128.624 80.478 127.777 80.478C126.873 80.478 126.464 81.0795 126.272 82.0107L122.853 97.9058C122.771 98.2333 122.716 98.5073 122.716 98.7813C122.716 99.5755 123.264 100.094 124.084 100.094C125.015 100.094 125.424 99.4921 125.616 98.5609L126.055 96.51L128.626 94.4313L129.256 97.604C129.502 98.8627 130.159 100.094 131.855 100.094C133.542 100.094 134.87 98.553 136.201 96.4703C136.604 98.6523 138.156 100.094 140.31 100.094C142.472 100.094 143.95 98.8071 144.907 97.0838V97.1394C144.907 98.9183 145.81 100.094 147.396 100.094C148.832 100.094 150.023 99.228 151.087 97.3895C151.691 98.9918 153.041 100.094 154.919 100.094C157.135 100.094 158.721 98.7535 159.733 96.8932V97.058C159.733 99.0275 160.718 100.096 162.332 100.096C163.758 100.096 164.969 99.2677 166.003 97.9216C166.79 99.2677 168.199 100.096 170.103 100.096C174.481 100.096 177.463 95.7456 177.463 91.5862C177.461 88.6578 175.682 86.5513 172.644 86.5513ZM145.369 92.1064C144.575 95.5253 142.879 97.469 140.964 97.469C139.677 97.469 138.966 96.4842 138.966 95.0071C138.966 92.1064 141.073 88.9874 143.89 88.9874C144.738 88.9874 145.395 89.2336 145.969 89.5889L145.369 92.1064ZM160.607 90.6571C159.731 94.6795 157.734 97.469 155.546 97.469C154.343 97.469 153.63 96.5378 153.63 95.0071C153.63 92.0806 155.655 89.043 158.364 89.043C159.404 89.043 160.196 89.3983 160.772 89.8629L160.607 90.6571ZM170.429 97.469C168.842 97.469 168.185 96.3194 168.185 94.8701C168.185 92.2156 170.018 89.1799 172.317 89.1799C173.903 89.1799 174.56 90.3295 174.56 91.7788C174.56 94.4591 172.728 97.469 170.429 97.469Z" fill="white"/>
<path d="M111.881 86.5511C107.504 86.5511 104.521 90.9011 104.521 95.0327C104.521 97.987 106.3 100.094 109.336 100.094C113.714 100.094 116.696 95.7435 116.696 91.5841C116.696 88.6576 114.917 86.5511 111.881 86.5511ZM109.666 97.4688C108.079 97.4688 107.422 96.3193 107.422 94.8699C107.422 92.2155 109.255 89.1798 111.554 89.1798C113.14 89.1798 113.797 90.3294 113.797 91.7787C113.795 94.459 111.963 97.4688 109.666 97.4688Z" fill="white"/>
<path d="M70.1065 81.8735C72.8949 81.8735 75.1553 80.5589 75.1553 78.9371C75.1553 77.3154 72.8949 76.0007 70.1065 76.0007C67.3181 76.0007 65.0576 77.3154 65.0576 78.9371C65.0576 80.5589 67.3181 81.8735 70.1065 81.8735Z" fill="white"/>
<path d="M70.1065 103.999C72.8949 103.999 75.1553 102.684 75.1553 101.062C75.1553 99.4404 72.8949 98.1257 70.1065 98.1257C67.3181 98.1257 65.0576 99.4404 65.0576 101.062C65.0576 102.684 67.3181 103.999 70.1065 103.999Z" fill="white"/>
<path d="M63.0707 85.9384C64.4649 83.5236 64.4559 80.9083 63.0505 80.0969C61.6452 79.2855 59.3757 80.5852 57.9815 83C56.5873 85.4148 56.5963 88.0301 58.0017 88.8415C59.407 89.6529 61.6765 88.3531 63.0707 85.9384Z" fill="white"/>
<path d="M82.2299 96.9994C83.6241 94.5846 83.6158 91.9697 82.2114 91.1589C80.807 90.348 78.5383 91.6482 77.1441 94.063C75.7499 96.4778 75.7581 99.0926 77.1625 99.9035C78.567 100.714 80.8357 99.4142 82.2299 96.9994Z" fill="white"/>
<path d="M63.0515 99.9029C64.4569 99.0915 64.4659 96.4761 63.0717 94.0614C61.6775 91.6466 59.408 90.3468 58.0026 91.1583C56.5973 91.9697 56.5882 94.585 57.9824 96.9997C59.3766 99.4145 61.6461 100.714 63.0515 99.9029Z" fill="white"/>
<path d="M82.2124 88.8418C83.6168 88.031 83.6251 85.4161 82.2309 83.0013C80.8367 80.5866 78.5679 79.2864 77.1635 80.0972C75.7591 80.9081 75.7508 83.523 77.145 85.9377C78.5392 88.3525 80.808 89.6527 82.2124 88.8418Z" fill="white"/>
</g>
</g>
<defs>
<clipPath id="clip0_2272_3352">
<rect width="130.913" height="28" fill="white" transform="translate(56.9434 76)"/>
</clipPath>
</defs>
</svg>
