<svg xmlns="http://www.w3.org/2000/svg" width="246" height="180" fill="none"><g style="mix-blend-mode:luminosity"><rect width="244.8" height="180" x=".6" fill="#000" fill-opacity=".04" rx="8"/><g fill="#fff" clip-path="url(#a)"><path d="M147.004 97.723a9.75 9.75 0 0 1-9.302-6.178 9.8 9.8 0 0 1-.673-3.878 9.73 9.73 0 0 1 2.835-7.117 9.63 9.63 0 0 1 7.14-2.893 8.89 8.89 0 0 1 7 3.138l-1.715 1.715a6.58 6.58 0 0 0-5.285-2.497 7.26 7.26 0 0 0-5.331 2.147 7.44 7.44 0 0 0-2.124 5.507 7.46 7.46 0 0 0 2.124 5.53 7.2 7.2 0 0 0 5.331 2.146 7.51 7.51 0 0 0 5.834-2.823l1.796 1.75a9.3 9.3 0 0 1-3.348 2.532c-1.343.616-2.804.93-4.282.921m12.099-19.635v19.215h-2.474V78.088zm2.123 12.635a7 7 0 0 1 1.913-5.016 6.5 6.5 0 0 1 4.854-1.984 6.43 6.43 0 0 1 4.83 1.984 6.92 6.92 0 0 1 1.925 5.016 6.86 6.86 0 0 1-1.925 5.017 6.39 6.39 0 0 1-4.83 1.983 6.46 6.46 0 0 1-4.854-1.983 7.005 7.005 0 0 1-1.913-5.017m2.473 0a4.78 4.78 0 0 0 1.237 3.43 4.2 4.2 0 0 0 6.113 0 4.78 4.78 0 0 0 1.237-3.43 4.75 4.75 0 0 0-1.237-3.406 4.153 4.153 0 0 0-6.113 0 4.75 4.75 0 0 0-1.237 3.406m24.699 6.58h-2.334v-1.831h-.116a4.4 4.4 0 0 1-1.727 1.61c-.74.42-1.576.64-2.427.641a4.88 4.88 0 0 1-3.721-1.376 5.53 5.53 0 0 1-1.295-3.932v-8.248h2.461v8.096a2.91 2.91 0 0 0 .842 2.404 2.9 2.9 0 0 0 2.413.816 3.07 3.07 0 0 0 2.462-1.166 4.3 4.3 0 0 0 .992-2.859v-7.291h2.473zm8.353.42a5.83 5.83 0 0 1-4.422-2.03 7.28 7.28 0 0 1-1.866-4.97 7.23 7.23 0 0 1 1.82-4.958 5.76 5.76 0 0 1 4.421-2.042c.92-.015 1.83.197 2.649.619a4.67 4.67 0 0 1 1.843 1.633h.105l-.058-1.808v-6.079h2.461v19.215h-2.333v-1.831h-.105a4.67 4.67 0 0 1-1.843 1.633 5.6 5.6 0 0 1-2.672.618m.408-2.251a3.75 3.75 0 0 0 2.975-1.319 4.87 4.87 0 0 0 1.167-3.43 4.92 4.92 0 0 0-1.167-3.406 3.77 3.77 0 0 0-2.975-1.342 3.84 3.84 0 0 0-2.975 1.342 4.9 4.9 0 0 0-1.166 3.406 4.83 4.83 0 0 0 1.166 3.407 3.84 3.84 0 0 0 2.975 1.342M53.368 97.723a11.036 11.036 0 0 1-11.072-10.861A11.037 11.037 0 0 1 53.368 76a10.4 10.4 0 0 1 7.478 2.998l-2.112 2.088a7.6 7.6 0 0 0-5.367-2.123 7.805 7.805 0 0 0-7.828 7.899 7.804 7.804 0 0 0 7.828 7.898 7.3 7.3 0 0 0 5.507-2.182 6.14 6.14 0 0 0 1.622-3.745h-7.129v-2.951h10.034c.11.612.16 1.233.151 1.855a9.77 9.77 0 0 1-2.59 6.93 10 10 0 0 1-7.595 3.056M79.07 90.723a6.93 6.93 0 1 1-13.85 0 6.928 6.928 0 0 1 11.925-5.083 6.93 6.93 0 0 1 1.924 5.083m-3.034 0a3.91 3.91 0 0 0-5.472-3.943 3.91 3.91 0 0 0-2.31 3.943 3.908 3.908 0 1 0 7.782 0M94.598 90.723a6.93 6.93 0 1 1-13.849 0 6.93 6.93 0 1 1 13.849 0m-3.034 0a3.907 3.907 0 1 0-7.793 0 3.909 3.909 0 1 0 7.793 0M109.729 84.167V96.72c0 5.157-3.068 7.28-6.685 7.28a6.71 6.71 0 0 1-6.23-4.13l2.695-1.167a3.87 3.87 0 0 0 3.5 2.497c2.334 0 3.757-1.435 3.757-4.107V96.09h-.07a4.85 4.85 0 0 1-3.733 1.633 7 7 0 1 1 0-14 4.92 4.92 0 0 1 3.733 1.61h.105v-1.166zm-2.718 6.603a3.954 3.954 0 0 0-3.757-4.27 4.07 4.07 0 0 0-2.849 1.316 4.07 4.07 0 0 0-1.06 2.954 4.023 4.023 0 0 0 3.909 4.212 3.91 3.91 0 0 0 3.757-4.224zM115.131 76.747v20.556h-3.08V76.747zM127.264 93.033l2.403 1.634a6.99 6.99 0 0 1-5.833 3.103 6.777 6.777 0 0 1-6.872-7 6.444 6.444 0 0 1 5.137-6.868 6.44 6.44 0 0 1 7.405 4.325l.315.805-9.333 3.861a3.58 3.58 0 0 0 3.406 2.124 4.01 4.01 0 0 0 3.372-1.984m-7.362-2.52 6.277-2.59a2.73 2.73 0 0 0-2.613-1.423 3.84 3.84 0 0 0-3.664 4.013"/></g></g><defs><clipPath id="a"><path fill="#fff" d="M42.296 76h161.408v28H42.296z"/></clipPath></defs></svg>