<svg xmlns="http://www.w3.org/2000/svg" width="245" height="120" fill="none"><g fill="#fff" clip-path="url(#a)" style="mix-blend-mode:luminosity"><path d="M109.711 55.133c0 .732.077 1.326.213 1.76.154.436.348.91.619 1.425a.9.9 0 0 1 .135.455c0 .198-.116.395-.367.593l-1.219.831a.9.9 0 0 1-.503.178c-.193 0-.387-.099-.58-.277a6 6 0 0 1-.697-.93 16 16 0 0 1-.599-1.167q-2.263 2.73-5.687 2.73c-1.624 0-2.92-.475-3.868-1.424-.948-.95-1.431-2.215-1.431-3.798 0-1.681.58-3.046 1.76-4.075 1.18-1.028 2.746-1.542 4.739-1.542.657 0 1.334.059 2.05.158s1.45.257 2.224.435V49.04c0-1.503-.309-2.552-.909-3.165-.619-.613-1.663-.91-3.153-.91-.677 0-1.373.08-2.089.257-.715.178-1.412.396-2.089.673-.31.138-.541.218-.677.257-.135.04-.232.06-.31.06-.27 0-.405-.198-.405-.614v-.969c0-.317.038-.554.135-.692.097-.139.27-.277.542-.416q1.016-.534 2.437-.89c.948-.257 1.953-.376 3.017-.376 2.302 0 3.985.534 5.068 1.603 1.064 1.068 1.605 2.69 1.605 4.865v6.41zm-7.853 3.007c.638 0 1.296-.119 1.992-.356.697-.237 1.316-.673 1.838-1.266.309-.376.541-.791.657-1.266a7.3 7.3 0 0 0 .194-1.72V52.7a16 16 0 0 0-1.78-.336 14 14 0 0 0-1.818-.119c-1.296 0-2.244.258-2.882.792s-.948 1.285-.948 2.274c0 .93.233 1.622.716 2.097.464.495 1.141.732 2.031.732m15.532 2.136c-.348 0-.581-.06-.735-.198-.155-.118-.29-.395-.406-.771l-4.546-15.29c-.116-.396-.174-.653-.174-.791 0-.317.155-.495.464-.495h1.896c.367 0 .619.06.754.198.155.119.271.395.387.771l3.249 13.095 3.018-13.095c.097-.395.213-.652.367-.771.155-.119.426-.198.774-.198h1.547c.368 0 .619.06.774.198.155.119.29.395.368.771l3.056 13.253 3.346-13.253c.116-.395.251-.652.387-.771.154-.119.406-.198.754-.198h1.799c.309 0 .483.158.483.495 0 .099-.019.197-.038.316a3 3 0 0 1-.136.495l-4.661 15.29q-.175.593-.406.771c-.155.119-.407.198-.735.198h-1.664c-.367 0-.619-.06-.773-.198s-.291-.395-.368-.791l-2.998-12.758-2.979 12.738c-.096.396-.212.653-.367.791-.155.139-.426.198-.774.198zm24.854.534c-1.005 0-2.011-.119-2.978-.356s-1.722-.494-2.225-.791c-.309-.178-.522-.376-.599-.554a1.4 1.4 0 0 1-.116-.554v-1.008c0-.416.154-.614.445-.614q.174 0 .348.06c.116.04.29.118.483.197a10.4 10.4 0 0 0 2.128.693c.774.158 1.528.237 2.302.237 1.218 0 2.166-.217 2.824-.653.657-.435 1.005-1.068 1.005-1.879 0-.554-.174-1.009-.522-1.384-.348-.376-1.006-.712-1.953-1.029l-2.805-.89c-1.412-.455-2.457-1.127-3.095-2.018-.638-.87-.967-1.84-.967-2.868q0-1.245.522-2.195a5.06 5.06 0 0 1 1.393-1.622 6.1 6.1 0 0 1 2.012-1.029c.773-.237 1.586-.336 2.437-.336.425 0 .87.02 1.296.079.444.06.851.138 1.257.218.387.098.754.197 1.102.316q.522.178.813.356c.27.158.464.316.58.495q.174.237.174.652v.93c0 .415-.155.633-.445.633-.155 0-.406-.08-.735-.237q-1.653-.772-3.714-.772c-1.102 0-1.972.178-2.572.554s-.909.95-.909 1.76c0 .554.193 1.029.58 1.405s1.103.752 2.128 1.088l2.746.89c1.393.455 2.399 1.088 2.998 1.899s.89 1.74.89 2.769c0 .85-.174 1.622-.503 2.294a5.3 5.3 0 0 1-1.412 1.741c-.599.495-1.315.85-2.147 1.108a9 9 0 0 1-2.766.415"/><path fill-rule="evenodd" d="M145.9 70.424c-6.363 4.806-15.609 7.358-23.558 7.358-11.141 0-21.18-4.213-28.762-11.215-.6-.554-.058-1.306.657-.87 8.202 4.865 18.318 7.813 28.782 7.813 7.059 0 14.816-1.504 21.953-4.59 1.064-.494 1.973.713.928 1.504" clip-rule="evenodd"/><path fill-rule="evenodd" d="M148.55 67.338c-.813-1.069-5.377-.515-7.447-.258-.619.08-.716-.474-.155-.89 3.637-2.61 9.613-1.86 10.31-.989.696.89-.194 7.002-3.598 9.93-.522.455-1.025.217-.793-.376.774-1.958 2.495-6.37 1.683-7.417" clip-rule="evenodd"/></g><defs><clipPath id="a"><path fill="#fff" d="M93 42h58.8v36H93z"/></clipPath></defs></svg>