<svg xmlns="http://www.w3.org/2000/svg" width="245" height="120" fill="none"><g fill="#fff" clip-path="url(#a)" style="mix-blend-mode:luminosity"><path d="m99.147 35.025-20.675-3.914a6.3 6.3 0 0 0-2.345-.002l-20.984 3.924C52.216 35.58 50.1 38.086 50.1 41v31.48c0 2.287 1.31 4.379 3.394 5.418l20.974 10.44a6.33 6.33 0 0 0 5.66-.014l20.685-10.422c2.069-1.04 3.368-3.127 3.368-5.402v-31.51c0-2.91-2.11-5.412-5.032-5.966zm.325 36.38a3.24 3.24 0 0 1-1.805 2.898L78.795 83.81a3.4 3.4 0 0 1-3.034.008L56.628 74.29c-1.121-.559-1.82-1.671-1.82-2.905V42.668c0-1.563 1.139-2.908 2.706-3.202l19.142-3.58q.31-.058.627-.057.32 0 .632.06l18.864 3.57c1.564.296 2.699 1.641 2.699 3.199v28.75z"/><path d="M75.827 44.078v13.23H62.713v-13.23h2.621v10.584h2.624V44.079h2.624v10.584h2.624V44.079zm2.624 0v2.645h10.49v2.646h-10.49v2.645h10.49v2.646h-10.49v2.646h13.114v-13.23H78.451zm13.112 18.524v-2.646H78.448v13.23h13.115v-7.939h-7.87v2.646h5.246v2.645h-7.87V62.6H91.56zm-15.736 0v-2.646H62.713v13.23h13.114v-7.939h-7.869v2.646h5.245v2.645h-7.869V62.6h10.49zM127.506 36.625v13.678h-14.082V36.625h2.815v10.94h2.816v-10.94h2.817v10.94h2.816v-10.94h2.818m2.815 0v2.735h11.266v2.734h-11.266v2.735h11.266v2.734h-11.266v2.735h14.082V36.625zM116.237 72.434h11.267v-2.735h-14.082v13.676h14.082v-8.207h-5.634v2.735h2.818v2.737h-8.451zM161.3 69.7h-14.081v13.674h2.815v-10.94h2.818v10.94h2.815v-10.94h2.818v10.94h2.815zM178.199 72.434v-2.737h-14.082v13.677999999999999h14.081999999999999v-2.734h-11.264v-2.738h11.264V75.17h-11.264v-2.735zM195.099 72.434v-2.737h-14.081v8.206h11.266v2.738h-11.266v2.734h14.081V75.17h-11.264v-2.735zM141.585 69.7h-11.267v13.677h2.816v-5.471h8.448v5.471h2.816V69.7h-2.816zm0 5.468h-8.449v-2.734h8.449zM116.239 64.102h8.451v-2.735h-2.818v-2.734h5.634v8.206h-14.082V53.161h14.082v2.735h-11.267zM150.034 53.161h-2.815V66.84h2.815zM141.587 53.161v10.941h-8.449v-10.94h-2.818v13.677h14.081999999999999V53.162zM155.669 64.102v-10.94h-2.815v13.677h14.081v-2.737zM181.016 53.161H169.75V66.84h11.266l2.818-2.735v-8.206l-2.818-2.734zm0 10.941h-8.448v-8.206h8.448z"/></g><defs><clipPath id="a"><path fill="#fff" d="M50.1 31h145v58h-145z"/></clipPath></defs></svg>