<svg xmlns="http://www.w3.org/2000/svg" width="246" height="120" fill="none"><g fill="#fff" clip-path="url(#a)" style="mix-blend-mode:luminosity"><path d="M77.559 59.799c0 3.407 2.496 5.681 5.521 5.681a8.7 8.7 0 0 0 4.651-1.336v3.31c-.628.398-2.517 1.12-4.626 1.12-4.92-.008-8.816-3.814-8.816-8.775s3.896-8.758 8.816-8.758c2.109 0 3.998.716 4.626 1.12v3.29a8.74 8.74 0 0 0-4.65-1.33c-3.026 0-5.522 2.27-5.522 5.678m24.649.202v8.318h-3.02v-7.336c0-1.456-.631-2.542-2.254-2.542-1.573 0-2.493 1.01-2.493 2.84v7.038h-3.02V50.29h3.02v7.73c.217-.56 1.066-2.298 3.608-2.298 2.611 0 4.159 1.582 4.159 4.279m16.422 5.726v2.592h-3.899a.45.45 0 0 1-.346-.13.46.46 0 0 1-.14-.348v-2.212c-.412 1.456-1.524 2.937-3.844 2.937-3.149 0-5.425-2.394-5.425-6.42 0-4.078 2.493-6.424 5.593-6.424 2.858 0 3.44 2.397 3.44 2.397V55.97h3.02v9.756zm-4.531-3.557c0-2.32-1.098-3.78-2.904-3.78-1.744 0-3.075 1.31-3.075 3.755s1.098 3.755 2.929 3.755c1.864 0 3.05-1.235 3.05-3.73m11.463-5.706V68.32h-3.02v-9.755h-2.196v-2.593h4.744a.45.45 0 0 1 .342.14.5.5 0 0 1 .101.163q.035.091.029.19m-.096-3.063h-3.27v-3.11h3.27zm3.624 2.57h2.979v2.198c.099-.322.824-2.447 3.657-2.447 2.617 0 4.168 1.582 4.168 4.273v8.324h-3.02v-7.336c0-1.456-.629-2.542-2.252-2.542-1.576 0-2.495 1.01-2.495 2.84v7.038h-3.02zm27.222 9.756v2.592h-3.899a.45.45 0 0 1-.346-.13.48.48 0 0 1-.139-.348v-2.212c-.412 1.456-1.524 2.937-3.844 2.937-3.149 0-5.425-2.394-5.425-6.42 0-4.078 2.493-6.424 5.595-6.424 2.858 0 3.437 2.397 3.437 2.397V55.97h3.021v9.756zm-4.53-3.557c0-2.32-1.098-3.78-2.905-3.78-1.743 0-3.075 1.31-3.075 3.755s1.112 3.755 2.943 3.755c1.851 0 3.037-1.235 3.037-3.73m10.708-11.13v17.28h-3.037V52.882h-1.889V50.29h4.19a.72.72 0 0 1 .523.217.76.76 0 0 1 .213.534M167.929 74h-3.021v-2.592h2.233c.799 0 1.164-.247 1.452-.989l.898-2.32-4.662-12.128h3.366l2.833 8.717 2.933-8.717h3.366l-5.958 15.633c-.629 1.654-1.672 2.397-3.44 2.397m11.075-6.47v-2.988c.412.28 2.081 1.4 3.948 1.4 1.428 0 2.057-.42 2.057-1.235 0-2.444-6.175-.64-6.175-5.283 0-2.1 1.743-3.707 4.942-3.707 1.765 0 3.02.47 3.511.767v2.956c-.606-.397-1.817-1.187-3.465-1.187-1.427 0-1.96.446-1.96 1.137 0 2 6.15.616 6.15 5.163 0 2.47-2.01 4.024-4.942 4.024-1.927-.011-3.509-.678-4.066-1.047m16.251-11.066V68.32h-3.02v-9.755h-2.197v-2.593h4.747a.45.45 0 0 1 .442.303c.022.06.032.126.028.19m-.096-3.063h-3.27v-3.11h3.27zm3.333 14.129v-2.988c.409.28 2.081 1.4 3.945 1.4 1.431 0 2.059-.42 2.059-1.235 0-2.444-6.174-.64-6.174-5.283 0-2.1 1.743-3.707 4.942-3.707 1.768 0 3.02.47 3.511.767v2.956a6.2 6.2 0 0 0-3.462-1.187c-1.43 0-1.963.446-1.963 1.137 0 2 6.153.616 6.153 5.163 0 2.47-2.01 4.024-4.942 4.024-1.925-.011-3.514-.678-4.069-1.047M51.828 46c.308 0 .656.04.656.04a8 8 0 0 0-1.779 4.457 9.2 9.2 0 0 0-5.109 2.726 9.53 9.53 0 0 0-2.54 5.279c-1.776.196-3.786 1.025-4.942 2.21C37.84 52.585 43.946 46 51.828 46m1.977 24.41q-.545.082-1.098.082a13 13 0 0 1-1.895-.16 14.6 14.6 0 0 1-1.921 3.36 13.65 13.65 0 0 1-6.551-3.572 14.06 14.06 0 0 1-3.767-6.53c1.238-1.498 4.099-2.366 5.875-2.366 3.79 0 5.799 2.05 6.496 5.244-2.281-.63-3.635-1.932-4.524-3.864a4.5 4.5 0 0 0-1.623-.28 4.5 4.5 0 0 0-1.469.238c1.005 3.906 4.717 6.824 9.239 6.824 4.176 0 5.952-2.168 5.952-2.168v-3.315s-2.048 2.17-4.599 2.604a9.5 9.5 0 0 0-2.632-5.344 9.2 9.2 0 0 0-5.253-2.661c.657-3.312 3.13-5.166 6.494-5.166s6.07 2.484 6.07 2.484v-3.274s-1.74-1.657-4.832-2.01c.077-1.456 1.005-3.273 2.01-3.945 4.211 1.341 8.272 4.97 9.43 10.253 0 0-1.856 1.893-5.334 1.893-2.861 0-4.668-1.459-5.683-4.02a4.7 4.7 0 0 0-1.661-.28 4.2 4.2 0 0 0-1.546.28c1.12 4.101 4.667 6.86 8.62 6.86 3.866 0 5.953-1.812 5.953-1.812 0 8.201-6.147 14.078-13.453 14.235.851-.84 1.507-2.682 1.702-3.59"/></g><defs><clipPath id="a"><path fill="#fff" d="M38.1 46h169.4v28H38.1z"/></clipPath></defs></svg>