<svg xmlns="http://www.w3.org/2000/svg" width="246" height="120" fill="none"><g clip-path="url(#a)" style="mix-blend-mode:luminosity"><path fill="#fff" d="M50.684 59.928v-.073c-.036-10.341-8.366-18.78-18.562-18.78-10.195 0-18.562 8.439-18.562 18.853 0 10.416 8.33 18.839 18.562 18.839a18.25 18.25 0 0 0 12.609-5.046 1.709 1.709 0 0 0-2.305-2.523l-.037.036a15.01 15.01 0 0 1-21.63-.985l7.93-12.716v5.884c0 2.812 1.096 3.727 2.017 3.983.922.255 2.304.07 3.801-2.304l4.35-7.064q.175-.31.4-.586v3.583c0 2.63 1.06 4.75 2.886 5.771a5.31 5.31 0 0 0 5.446-.218c2.11-1.369 3.242-3.766 3.095-6.654m-4.824 3.7a2 2 0 0 1-2.018.146c-.73-.438-1.17-1.423-1.17-2.775v-4.142c0-1.97-.768-3.397-2.083-3.76-2.23-.674-3.909 2.082-4.531 3.105l-3.936 6.32V54.74c-.036-1.79-.622-2.85-1.719-3.18-.73-.218-1.827-.107-2.886 1.502l-8.806 14.103a15.6 15.6 0 0 1-1.79-7.237c0-8.514 6.832-15.42 15.201-15.42s15.201 6.906 15.201 15.42v.075c.087 1.642-.44 2.96-1.462 3.615zm30.695-10.13a1.84 1.84 0 0 1 .842 1.425 1.62 1.62 0 0 1-1.572 1.608 2.7 2.7 0 0 1-.586-.111 6 6 0 0 0-3.545-1.204c-3.105 0-5.223 2.52-5.223 5.661 0 3.142 2.156 5.628 5.223 5.628a5.67 5.67 0 0 0 3.946-1.608c.269-.189.588-.29.915-.292a1.48 1.48 0 0 1 1.292 2.23 1.56 1.56 0 0 1-.524.549 8.677 8.677 0 1 1-5.59-15.347 8.27 8.27 0 0 1 4.822 1.46m8.696 3.642a6.193 6.193 0 0 0-6.22 6.148 6.29 6.29 0 0 0 6.213 6.252c3.216 0 5.957-2.887 5.957-6.252 0-3.362-2.698-6.148-5.95-6.148m-.037 9.355c-1.534 0-2.813-1.389-2.813-3.18 0-1.862 1.28-2.996 2.813-2.996 1.427 0 2.63 1.17 2.63 2.996 0 1.828-1.203 3.19-2.63 3.19zm8.039 1.143v-8.625a1.684 1.684 0 0 1 1.682-1.715 1.705 1.705 0 0 1 1.683 1.715v8.625a1.704 1.704 0 0 1-1.683 1.717 1.734 1.734 0 0 1-1.682-1.717m-.256-13.592a1.963 1.963 0 0 1 1.938-2.02 1.996 1.996 0 0 1 1.971 2.02 1.954 1.954 0 1 1-3.909 0m10.049 8.917v4.675a1.68 1.68 0 0 1-1.682 1.683 1.684 1.684 0 0 1-1.683-1.683v-9.025a1.298 1.298 0 0 1 2.595 0 4.89 4.89 0 0 1 3.7-1.462c3.364 0 4.861 2.521 4.861 5.409v5.078a1.68 1.68 0 0 1-1.682 1.683 1.68 1.68 0 0 1-1.683-1.683v-4.675c0-1.463-.181-2.691-2.301-2.691-1.496 0-2.118 1.24-2.118 2.691zm18.673 1.79a1.1 1.1 0 0 1-.879-.442l-3.909-4.238v7.565c.007.225-.032.449-.114.658s-.205.401-.361.562a1.69 1.69 0 0 1-1.861.377 1.7 1.7 0 0 1-.913-.939 1.7 1.7 0 0 1-.114-.658V52.656a.72.72 0 0 1 .622-.438c.29.05.551.205.731.438l6.25 7.017a.8.8 0 0 0 .548.336.92.92 0 0 0 .548-.337l6.247-7.016a1.1 1.1 0 0 1 .73-.438.64.64 0 0 1 .622.438V67.64a1.68 1.68 0 0 1-1.031 1.583 1.7 1.7 0 0 1-.651.132 1.706 1.706 0 0 1-1.681-1.717v-7.565l-3.914 4.238c-.225.252-.537.41-.874.441zm31.606-4.494h-.367c-2.118.107-2.519 1.315-2.519 2.691v4.675a1.68 1.68 0 0 1-1.682 1.683 1.684 1.684 0 0 1-1.681-1.684v-9.01a1.3 1.3 0 0 1 1.298-1.299 1.3 1.3 0 0 1 1.298 1.299c1.241-1.17 2.264-1.427 3.286-1.464h.337a1.577 1.577 0 0 1 1.534 1.571 1.54 1.54 0 0 1-1.497 1.538zm12.972 6.575c.154.242.242.519.255.804a1.754 1.754 0 0 1-1.682 1.683c-.582 0-1.096-.441-1.497-.953l-3.871-4.5V67.6a1.684 1.684 0 0 1-2.871 1.19 1.68 1.68 0 0 1-.493-1.19V53.902a1.675 1.675 0 0 1 1.037-1.556 1.68 1.68 0 0 1 1.833.367c.316.315.494.744.494 1.188v8.55l3.871-4.274c.401-.44.878-.914 1.46-.914a1.68 1.68 0 0 1 1.608 1.645c.002.27-.074.536-.219.766l-3.067 3.363 3.142 3.803zm20.317 2.668h-.915c-2.557 0-4.057-1.134-4.057-5.116v-4.127h-.874a1.556 1.556 0 0 1-1.1-2.654 1.56 1.56 0 0 1 1.1-.455h.861V53.97a1.67 1.67 0 0 1 1.03-1.584c.206-.087.428-.13.651-.13a1.71 1.71 0 0 1 1.683 1.714v3.17h1.386a1.55 1.55 0 0 1 1.5 1.57 1.595 1.595 0 0 1-1.5 1.537h-1.386v3.472c0 2.301.107 2.775 1.13 2.775h.478a1.504 1.504 0 0 1 1.497 1.501 1.536 1.536 0 0 1-1.497 1.497zm16.258-16.005a1.84 1.84 0 0 1 .84 1.426 1.617 1.617 0 0 1-1.571 1.608 2.8 2.8 0 0 1-.585-.111 6 6 0 0 0-3.542-1.204c-3.108 0-5.228 2.52-5.228 5.661 0 3.142 2.157 5.628 5.228 5.628a5.67 5.67 0 0 0 3.946-1.608c.267-.188.586-.29.912-.292a1.5 1.5 0 0 1 1.065.433 1.48 1.48 0 0 1 .23 1.799c-.128.223-.31.41-.529.545a8.66 8.66 0 0 1-7.803 1.697 8.673 8.673 0 0 1 2.213-17.042 8.2 8.2 0 0 1 4.824 1.46m-60.106 3.765a1.28 1.28 0 0 0-1.194.814c-.062.159-.092.33-.088.5l-.07.405a5.26 5.26 0 0 0-3.912-1.864c-3.287 0-5.661 2.775-5.661 6.135s2.336 6.25 5.479 6.25c1.316 0 3.398-.586 4.057-1.864l.074.401a1.27 1.27 0 0 0 .38.926 1.26 1.26 0 0 0 .935.356 1.313 1.313 0 0 0 1.315-1.316v-9.418a1.34 1.34 0 0 0-1.315-1.325m-4.897 9.243c-1.498 0-2.668-1.422-2.668-3.18 0-1.755 1.204-3.027 2.668-3.027 1.461 0 2.778 1.204 2.778 3.028 0 1.823-1.28 3.18-2.778 3.18m40.706-3.471c-.074-3.765-2.523-5.884-5.773-5.884-4.036 0-5.739 2.923-5.739 6.287 0 4.276 2.816 6.102 6.214 6.102 1.278 0 2.63-.184 3.652-.952a1.49 1.49 0 0 0 .731-1.205 1.38 1.38 0 0 0-1.346-1.388 1.67 1.67 0 0 0-.874.256 5.45 5.45 0 0 1-2.194.437c-.841 0-2.778-.337-2.778-2.338h6.787a1.346 1.346 0 0 0 1.32-1.316m-8.115-.849c0-1.423 1.501-1.896 2.412-1.896.913 0 2.412.473 2.449 1.896zm45.817-4.923a1.28 1.28 0 0 0-1.193.813 1.3 1.3 0 0 0-.086.501l-.074.405a5.24 5.24 0 0 0-3.909-1.864c-3.289 0-5.664 2.775-5.664 6.135s2.354 6.25 5.479 6.25c1.316 0 3.401-.586 4.057-1.864l.074.401a1.267 1.267 0 0 0 1.316 1.282 1.32 1.32 0 0 0 1.216-.812q.098-.241.099-.504v-9.418a1.345 1.345 0 0 0-1.315-1.325m-4.899 9.243c-1.459 0-2.666-1.422-2.666-3.18 0-1.755 1.17-3.027 2.666-3.027 1.497 0 2.779 1.204 2.779 3.028 0 1.823-1.271 3.18-2.771 3.18zm15.793-9.365a5.4 5.4 0 0 0-3.945 1.608c0-.837-.548-1.46-1.278-1.46a1.315 1.315 0 0 0-1.318 1.316v14.178a1.684 1.684 0 0 0 1.681 1.681 1.685 1.685 0 0 0 1.682-1.68v-4.266c.911.692 2.374.985 3.364 1.009 3.179 0 5.483-2.886 5.483-6.25 0-3.365-2.415-6.136-5.669-6.136m-.403 9.355c-1.497 0-2.775-1.344-2.775-3.178s1.278-3.028 2.775-3.028 2.668 1.204 2.668 3.028c0 1.764-1.167 3.188-2.668 3.188z"/></g><defs><clipPath id="a"><path fill="#fff" d="M13.56 41.074h219.28v37.852H13.56z"/></clipPath></defs></svg>