<svg width="246" height="120" viewBox="0 0 246 120" fill="none" xmlns="http://www.w3.org/2000/svg">
<g style="mix-blend-mode:luminosity">
<g clip-path="url(#clip0_3110_27024)">
<path d="M50.6836 59.9283V59.8553C50.647 49.5139 42.317 41.0742 32.1218 41.0742C21.9266 41.0742 13.5601 49.5139 13.5601 59.9283C13.5601 70.3441 21.8888 78.7668 32.1218 78.7668C36.8174 78.77 41.3335 76.9626 44.7304 73.7208C45.065 73.4151 45.2644 72.989 45.2848 72.5363C45.3053 72.0836 45.145 71.6413 44.8394 71.3067C44.5337 70.9722 44.1076 70.7727 43.6549 70.7523C43.2022 70.7318 42.7599 70.8921 42.4253 71.1978L42.3888 71.2343C40.9231 72.6277 39.191 73.7105 37.2964 74.4177C35.4018 75.125 33.3839 75.4421 31.3637 75.3501C29.3435 75.2581 27.3627 74.7588 25.5403 73.8821C23.7178 73.0055 22.0913 71.7697 20.7584 70.2488L28.6877 57.5332V63.4172C28.6877 66.2287 29.7841 67.1437 30.7056 67.3995C31.6271 67.6553 33.0094 67.47 34.5065 65.0958L38.8568 58.0318C38.973 57.8256 39.1074 57.6298 39.2562 57.4458V61.0287C39.2562 63.6587 40.3161 65.7784 42.1421 66.8004C42.985 67.2594 43.9365 67.4815 44.8956 67.4431C45.8546 67.4047 46.7853 67.1073 47.5888 66.5824C49.6981 65.2132 50.8311 62.8155 50.6836 59.9283ZM45.8594 63.6287C45.5665 63.8305 45.225 63.9503 44.8702 63.9758C44.5154 64.0012 44.1603 63.9314 43.8415 63.7736C43.1106 63.3363 42.6707 62.3509 42.6707 60.9986V56.8571C42.6707 54.8862 41.9032 53.4596 40.5889 53.0967C38.3582 52.4232 36.6797 55.1786 36.0571 56.2019L32.1218 62.5218V54.74C32.0853 52.9506 31.4992 51.8907 30.4028 51.5605C29.6719 51.3425 28.5755 51.4535 27.5169 53.0615L18.7105 67.1646C17.539 64.9322 16.925 62.4495 16.921 59.9283C16.921 51.4143 23.7526 44.5083 32.1218 44.5083C40.491 44.5083 47.3226 51.4143 47.3226 59.9283V60.0027C47.41 61.6447 46.8827 62.963 45.8607 63.6182L45.8594 63.6287ZM76.5546 53.4974C76.7967 53.6525 76.9991 53.8623 77.1453 54.1099C77.2915 54.3574 77.3776 54.6359 77.3965 54.9228C77.394 55.3422 77.2287 55.7443 76.9356 56.0442C76.6424 56.3442 76.2443 56.5186 75.825 56.5308C75.6261 56.5157 75.4296 56.4785 75.239 56.4199C74.2153 55.652 72.9735 55.2304 71.6939 55.2164C68.5888 55.2164 66.4704 57.7355 66.4704 60.8773C66.4704 64.019 68.6266 66.5054 71.6939 66.5054C73.1683 66.5033 74.5838 65.9265 75.6397 64.8974C75.9085 64.7081 76.227 64.6063 76.5546 64.605C76.8169 64.6021 77.0752 64.6689 77.3031 64.7986C77.531 64.9283 77.7204 65.1162 77.8519 65.3431C77.9833 65.57 78.0521 65.8278 78.0513 66.0901C78.0504 66.3523 77.9798 66.6096 77.8468 66.8357C77.7202 67.0575 77.5401 67.2468 77.3221 67.3839C76.2523 68.2733 74.9843 68.8925 73.6251 69.1891C72.2658 69.4857 70.8551 69.4511 69.5121 69.0882C68.169 68.7252 66.9329 68.0446 65.908 67.1038C64.8832 66.1629 64.0996 64.9893 63.6234 63.6821C63.1472 62.3749 62.9924 60.9723 63.172 59.5927C63.3516 58.2131 63.8604 56.8969 64.6553 55.7552C65.4503 54.6134 66.5082 53.6796 67.7398 53.0325C68.9714 52.3853 70.3406 52.0439 71.7318 52.0369C73.4521 52.0108 75.1385 52.5198 76.5546 53.4974ZM85.2501 57.1404C83.6109 57.1334 82.0358 57.7766 80.87 58.9289C79.7042 60.0813 79.0427 61.6488 79.0307 63.288C79.0408 64.9363 79.6974 66.5147 80.8593 67.6839C82.0211 68.8531 83.5954 69.5196 85.2436 69.5401C88.4597 69.5401 91.2007 66.6529 91.2007 63.288C91.2007 59.9257 88.5028 57.1404 85.2501 57.1404ZM85.2136 66.495C83.6799 66.495 82.4008 65.1062 82.4008 63.3154C82.4008 61.4529 83.6799 60.3186 85.2136 60.3186C86.6402 60.3186 87.8436 61.4894 87.8436 63.3154C87.8436 65.1428 86.6402 66.5054 85.2136 66.5054V66.495ZM93.2525 67.6384V59.0134C93.2484 58.7898 93.2888 58.5675 93.3715 58.3597C93.4541 58.1519 93.5774 57.9626 93.734 57.8029C93.8906 57.6433 94.0775 57.5164 94.2837 57.4298C94.4899 57.3431 94.7113 57.2984 94.935 57.2983C95.385 57.3041 95.8145 57.4878 96.1297 57.8091C96.4449 58.1304 96.6202 58.5633 96.6174 59.0134V67.6384C96.6205 68.0887 96.4454 68.5219 96.1301 68.8435C95.8149 69.1651 95.3852 69.3489 94.935 69.3548C94.487 69.3416 94.0616 69.1555 93.7479 68.8355C93.4343 68.5155 93.2567 68.0865 93.2525 67.6384ZM92.9967 54.0456C92.9894 53.7853 93.034 53.5261 93.1278 53.2831C93.2216 53.0401 93.3628 52.8182 93.5432 52.6303C93.7235 52.4424 93.9395 52.2923 94.1784 52.1886C94.4174 52.0849 94.6745 52.0298 94.935 52.0264C95.197 52.0295 95.4558 52.0842 95.6967 52.1873C95.9376 52.2905 96.1558 52.4401 96.3388 52.6276C96.5219 52.8152 96.6662 53.0369 96.7635 53.2802C96.8607 53.5235 96.9091 53.7836 96.9059 54.0456C96.9059 54.5639 96.7 55.0609 96.3336 55.4273C95.9671 55.7937 95.4701 55.9996 94.9519 55.9996C94.4337 55.9996 93.9367 55.7937 93.5703 55.4273C93.2038 55.0609 92.9967 54.5639 92.9967 54.0456ZM103.046 62.963V67.6384C103.046 68.0846 102.868 68.5125 102.553 68.828C102.237 69.1436 101.809 69.3208 101.363 69.3208C100.917 69.3208 100.489 69.1436 100.174 68.828C99.858 68.5125 99.6808 68.0846 99.6808 67.6384V58.6127C99.6808 58.2686 99.8175 57.9386 100.061 57.6953C100.304 57.452 100.634 57.3153 100.978 57.3153C101.322 57.3153 101.652 57.452 101.896 57.6953C102.139 57.9386 102.276 58.2686 102.276 58.6127C102.755 58.1227 103.332 57.7393 103.97 57.4874C104.608 57.2355 105.291 57.1208 105.976 57.1508C109.34 57.1508 110.837 59.6725 110.837 62.5597V67.6384C110.837 68.0846 110.659 68.5125 110.344 68.828C110.028 69.1436 109.6 69.3208 109.154 69.3208C108.708 69.3208 108.28 69.1436 107.965 68.828C107.649 68.5125 107.472 68.0846 107.472 67.6384V62.963C107.472 61.4998 107.29 60.2716 105.171 60.2716C103.675 60.2716 103.052 61.5129 103.052 62.963H103.046ZM121.718 64.7525C121.548 64.7529 121.379 64.7132 121.227 64.6366C121.074 64.5599 120.942 64.4485 120.84 64.3113L116.931 60.0732V67.6384C116.937 67.8632 116.898 68.0869 116.816 68.2965C116.735 68.506 116.612 68.697 116.455 68.8582C116.298 69.0194 116.111 69.1476 115.904 69.2351C115.696 69.3226 115.474 69.3677 115.249 69.3677C115.024 69.3677 114.801 69.3226 114.594 69.2351C114.387 69.1476 114.2 69.0194 114.043 68.8582C113.886 68.697 113.763 68.506 113.681 68.2965C113.6 68.0869 113.561 67.8632 113.567 67.6384V52.6556C113.619 52.5313 113.705 52.4243 113.815 52.3469C113.925 52.2695 114.055 52.2249 114.19 52.2183C114.48 52.2675 114.74 52.4235 114.921 52.6556L121.17 59.6725C121.234 59.7629 121.315 59.8394 121.41 59.8973C121.504 59.9552 121.609 59.9933 121.718 60.0093C121.936 59.9671 122.131 59.8474 122.267 59.6725L128.513 52.6556C128.6 52.5379 128.709 52.4387 128.834 52.3636C128.96 52.2885 129.099 52.2391 129.243 52.2183C129.38 52.2149 129.514 52.2556 129.626 52.3343C129.739 52.413 129.822 52.5256 129.866 52.6556V67.6397C129.87 67.8633 129.829 68.0855 129.747 68.2933C129.664 68.5012 129.541 68.6904 129.384 68.8501C129.228 69.0098 129.041 69.1366 128.834 69.2233C128.628 69.3099 128.407 69.3546 128.183 69.3548C127.733 69.3482 127.304 69.1642 126.989 68.8427C126.674 68.5212 126.499 68.0884 126.502 67.6384V60.0732L122.589 64.3113C122.363 64.563 122.051 64.7205 121.714 64.7525H121.718ZM153.325 60.2586H152.958C150.839 60.3656 150.439 61.5742 150.439 62.95V67.6253C150.438 68.0714 150.261 68.4992 149.946 68.8146C149.63 69.1301 149.202 69.3074 148.756 69.3078C148.31 69.3071 147.883 69.1294 147.567 68.8137C147.252 68.498 147.075 68.0701 147.075 67.624V58.614C147.076 58.2697 147.213 57.9398 147.456 57.6964C147.7 57.453 148.03 57.316 148.374 57.3153C148.718 57.316 149.048 57.453 149.291 57.6965C149.534 57.9399 149.671 58.2699 149.671 58.614C150.913 57.4432 151.936 57.1874 152.958 57.1495H153.295C153.705 57.1604 154.094 57.3306 154.38 57.624C154.667 57.9175 154.827 58.311 154.828 58.721C154.828 59.1217 154.671 59.5064 154.392 59.7934C154.112 60.0805 153.732 60.2474 153.331 60.2586H153.325ZM166.296 66.8343C166.45 67.0758 166.539 67.3525 166.552 67.6384C166.534 68.0787 166.351 68.4961 166.039 68.8078C165.727 69.1194 165.31 69.3025 164.869 69.3208C164.287 69.3208 163.773 68.8797 163.372 68.368L159.501 63.8675V67.6005C159.501 68.0466 159.324 68.4743 159.008 68.7897C158.693 69.1051 158.265 69.2823 157.819 69.2823C157.373 69.2823 156.945 69.1051 156.63 68.7897C156.315 68.4743 156.137 68.0466 156.137 67.6005V53.9021C156.137 53.5692 156.235 53.2436 156.419 52.9666C156.604 52.6896 156.867 52.4737 157.174 52.3463C157.482 52.2189 157.82 52.1858 158.147 52.2511C158.473 52.3163 158.773 52.4771 159.008 52.713C159.324 53.0276 159.501 53.457 159.501 53.9008V62.4501L163.372 58.1767C163.773 57.7369 164.251 57.2631 164.833 57.2631C165.26 57.2818 165.663 57.4622 165.962 57.7676C166.26 58.0731 166.432 58.4806 166.441 58.9077C166.442 59.1787 166.366 59.4445 166.222 59.6738L163.154 63.0374L166.296 66.8396V66.8343ZM186.613 69.5022H185.698C183.141 69.5022 181.642 68.368 181.642 64.3857V60.2586H180.767C180.355 60.2586 179.96 60.0948 179.668 59.8033C179.376 59.5117 179.213 59.1163 179.213 58.704C179.213 58.2917 179.376 57.8963 179.668 57.6048C179.96 57.3133 180.355 57.1495 180.767 57.1495H181.629V53.9713C181.621 53.6341 181.715 53.3024 181.898 53.0197C182.082 52.7369 182.347 52.5163 182.659 52.3867C182.865 52.3005 183.087 52.2562 183.31 52.2562C183.759 52.2637 184.188 52.4479 184.503 52.7688C184.818 53.0897 184.993 53.5217 184.992 53.9713V57.1404H186.378C186.785 57.1527 187.17 57.3243 187.45 57.6181C187.731 57.9119 187.885 58.3043 187.878 58.7106C187.865 59.1076 187.703 59.4852 187.426 59.7696C187.149 60.054 186.775 60.2246 186.378 60.2481H184.992V63.7201C184.992 66.0212 185.099 66.495 186.123 66.495H186.6C186.998 66.4967 187.378 66.6555 187.658 66.9368C187.939 67.218 188.097 67.5988 188.097 67.996C188.088 68.3902 187.928 68.7659 187.649 69.0447C187.37 69.3235 186.995 69.4841 186.6 69.4931L186.613 69.5022ZM202.871 53.4974C203.113 53.6529 203.315 53.8628 203.461 54.1103C203.607 54.3578 203.693 54.6361 203.712 54.9228C203.71 55.3423 203.545 55.7445 203.251 56.0446C202.958 56.3446 202.56 56.519 202.14 56.5308C201.942 56.5148 201.746 56.4776 201.556 56.4199C200.533 55.6514 199.292 55.2298 198.013 55.2164C194.906 55.2164 192.786 57.7355 192.786 60.8773C192.786 64.019 194.942 66.5054 198.013 66.5054C199.488 66.5033 200.903 65.9265 201.959 64.8974C202.227 64.7094 202.545 64.6076 202.871 64.605C203.069 64.6032 203.265 64.6406 203.447 64.7149C203.63 64.7893 203.796 64.8993 203.936 65.0383C204.169 65.2702 204.317 65.5728 204.359 65.8984C204.401 66.2239 204.333 66.5541 204.166 66.837C204.038 67.06 203.856 67.2475 203.638 67.3825C202.568 68.2703 201.301 68.8879 199.943 69.1833C198.585 69.4786 197.176 69.4429 195.835 69.0794C193.81 68.5319 192.052 67.269 190.888 65.5246C189.723 63.7803 189.23 61.6729 189.501 59.5929C189.77 57.5126 190.784 55.6005 192.356 54.2111C193.928 52.8217 195.95 52.0492 198.047 52.0369C199.769 52.0041 201.457 52.5152 202.871 53.4974ZM142.765 57.2617C142.594 57.2617 142.425 57.2959 142.267 57.3623C142.109 57.4288 141.967 57.5261 141.847 57.6486C141.728 57.7711 141.634 57.9163 141.572 58.0756C141.509 58.2349 141.479 58.4051 141.484 58.5761L141.413 58.9807C140.931 58.4098 140.333 57.9482 139.658 57.6268C138.984 57.3054 138.248 57.1316 137.501 57.1169C134.215 57.1169 131.84 59.8918 131.84 63.2515C131.84 66.6125 134.177 69.5022 137.32 69.5022C138.636 69.5022 140.717 68.9162 141.377 67.6384L141.451 68.0391C141.448 68.2111 141.479 68.382 141.545 68.5412C141.61 68.7004 141.707 68.8445 141.83 68.9647C141.954 69.0848 142.1 69.1784 142.261 69.2396C142.422 69.3009 142.593 69.3285 142.765 69.3208C142.938 69.3212 143.109 69.2874 143.269 69.2214C143.429 69.1554 143.574 69.0585 143.696 68.9362C143.819 68.814 143.916 68.6688 143.982 68.509C144.048 68.3493 144.081 68.178 144.081 68.0051V58.5866C144.076 58.2383 143.936 57.9056 143.691 57.6585C143.445 57.4114 143.113 57.2692 142.765 57.2617ZM137.868 66.5054C136.371 66.5054 135.2 65.0827 135.2 63.3259C135.2 61.5703 136.405 60.2977 137.868 60.2977C139.33 60.2977 140.647 61.5025 140.647 63.3259C140.647 65.1493 139.366 66.5054 137.868 66.5054ZM178.574 63.0335C178.5 59.2692 176.051 57.1495 172.801 57.1495C168.766 57.1495 167.062 60.0732 167.062 63.4368C167.062 67.7128 169.879 69.5388 173.276 69.5388C174.554 69.5388 175.907 69.3548 176.929 68.5873C177.141 68.4629 177.319 68.2877 177.446 68.0774C177.574 67.8671 177.647 67.6283 177.659 67.3825C177.662 67.0209 177.522 66.6727 177.271 66.4129C177.019 66.1532 176.675 66.0027 176.314 65.9938C176.004 65.9964 175.702 66.0851 175.439 66.2496C174.746 66.5456 173.999 66.6945 173.245 66.6869C172.405 66.6869 170.468 66.3501 170.468 64.3492H177.255C177.602 64.3425 177.933 64.2019 178.179 63.9567C178.425 63.7115 178.567 63.3807 178.574 63.0335ZM170.46 62.1851C170.46 60.7624 171.961 60.2886 172.872 60.2886C173.784 60.2886 175.284 60.7624 175.32 62.1851H170.46ZM216.276 57.2617C216.105 57.2618 215.936 57.2961 215.778 57.3624C215.621 57.4287 215.478 57.5259 215.359 57.6481C215.239 57.7706 215.145 57.9159 215.083 58.0753C215.021 58.2348 214.992 58.4051 214.997 58.5761L214.924 58.9807C214.443 58.4097 213.845 57.9481 213.171 57.6267C212.496 57.3052 211.761 57.1314 211.015 57.1169C207.726 57.1169 205.35 59.8918 205.35 63.2515C205.35 66.6125 207.705 69.5022 210.829 69.5022C212.145 69.5022 214.231 68.9162 214.886 67.6384L214.96 68.0391C214.958 68.2109 214.991 68.3813 215.056 68.5402C215.122 68.699 215.219 68.8429 215.342 68.9632C215.465 69.0835 215.611 69.1773 215.772 69.2388C215.933 69.3003 216.104 69.3282 216.276 69.3208C216.536 69.3207 216.791 69.2435 217.007 69.0991C217.224 68.9546 217.393 68.7493 217.493 68.509C217.558 68.3497 217.592 68.1787 217.592 68.0051V58.5866C217.586 58.2385 217.446 57.9062 217.201 57.6592C216.956 57.4122 216.624 57.2698 216.276 57.2617ZM211.378 66.5054C209.918 66.5054 208.711 65.0827 208.711 63.3259C208.711 61.5703 209.882 60.2977 211.378 60.2977C212.875 60.2977 214.156 61.5025 214.156 63.3259C214.156 65.1493 212.885 66.5054 211.385 66.5054H211.378ZM227.171 57.1404C226.439 57.127 225.711 57.2626 225.033 57.5391C224.355 57.8155 223.74 58.227 223.225 58.7484C223.225 57.9105 222.677 57.2879 221.947 57.2879C221.774 57.2873 221.603 57.321 221.443 57.3869C221.283 57.4528 221.137 57.5497 221.015 57.6719C220.893 57.7941 220.795 57.9394 220.729 58.0992C220.663 58.2591 220.629 58.4305 220.629 58.6035V72.7823C220.63 73.2279 220.808 73.6549 221.123 73.9699C221.438 74.285 221.865 74.4624 222.31 74.4634C222.756 74.4631 223.184 74.2859 223.499 73.9707C223.814 73.6556 223.992 73.2282 223.993 72.7823V68.5168C224.904 69.2086 226.367 69.5022 227.356 69.5257C230.536 69.5257 232.84 66.6399 232.84 63.2763C232.84 59.9114 230.425 57.1404 227.171 57.1404ZM226.768 66.495C225.271 66.495 223.993 65.1506 223.993 63.3167C223.993 61.4829 225.271 60.2886 226.768 60.2886C228.265 60.2886 229.436 61.4933 229.436 63.3167C229.436 65.0814 228.269 66.5054 226.768 66.5054V66.495Z" fill="white"/>
</g>
</g>
<defs>
<clipPath id="clip0_3110_27024">
<rect width="219.28" height="37.8518" fill="white" transform="translate(13.5601 41.0742)"/>
</clipPath>
</defs>
</svg>
