<svg xmlns="http://www.w3.org/2000/svg" width="246" height="120" fill="none"><g clip-path="url(#a)" style="mix-blend-mode:luminosity"><mask id="b" width="112" height="28" x="67" y="46" maskUnits="userSpaceOnUse" style="mask-type:luminance"><path fill="#fff" d="M178.716 46H67.201v28h111.515z"/></mask><g fill="#fff" mask="url(#b)"><path d="M88.061 63.09c-.9-.51-1.917-.658-2.924-.69-.844-.028-2.103-.558-2.103-2.074a2.07 2.07 0 0 1 .62-1.456 2.16 2.16 0 0 1 1.483-.617c1.007-.035 2.023-.182 2.924-.691a5.3 5.3 0 0 0 1.948-1.911 5.13 5.13 0 0 0 .71-2.608c0-.916-.247-1.815-.715-2.607a5.3 5.3 0 0 0-1.95-1.908 5.418 5.418 0 0 0-5.326 0 5.3 5.3 0 0 0-1.95 1.907 5.14 5.14 0 0 0-.716 2.607c0 1.012.368 1.942.838 2.806.393.726.593 2.073-.76 2.836a2.18 2.18 0 0 1-1.605.19c-.54-.145-1-.491-1.281-.964-.53-.83-1.177-1.613-2.064-2.113a5.42 5.42 0 0 0-5.327.002 5.3 5.3 0 0 0-1.95 1.91 5.13 5.13 0 0 0-.714 2.608c0 .916.246 1.815.714 2.608a5.3 5.3 0 0 0 1.95 1.91 5.42 5.42 0 0 0 5.327.002c.894-.507 1.534-1.283 2.064-2.113.435-.69 1.52-1.548 2.886-.774a2.1 2.1 0 0 1 .97 1.267c.142.53.066 1.093-.212 1.569-.47.864-.835 1.794-.835 2.806 0 .916.246 1.816.714 2.61a5.3 5.3 0 0 0 1.95 1.91c.81.458 1.73.7 2.666.7a5.4 5.4 0 0 0 2.665-.7 5.3 5.3 0 0 0 1.951-1.91 5.14 5.14 0 0 0 .715-2.609c0-.916-.245-1.816-.713-2.61a5.3 5.3 0 0 0-1.95-1.91zM98.057 52.41h3.71v1.713a5.3 5.3 0 0 1 1.82-1.392 5.4 5.4 0 0 1 2.252-.5c.528-.019 1.057.041 1.567.178v4.147s-.513-.178-1.748-.178c-2.118 0-3.529 1.382-3.529 3.456v8.465h-4.072zm19.938 0h3.71v1.536a7.08 7.08 0 0 1 4.585-1.714c4.072 0 7.601 3.455 7.601 8.122s-3.529 8.123-7.601 8.123a6.42 6.42 0 0 1-4.223-1.565V74h-4.072zm11.824 7.944c0-2.598-1.75-4.312-4.042-4.312s-4.072 1.707-4.072 4.312 1.778 4.305 4.075 4.305c2.296 0 4.039-1.704 4.039-4.305m7.058-7.945h3.71v1.537a7.08 7.08 0 0 1 4.585-1.714c4.072 0 7.601 3.455 7.601 8.122s-3.529 8.123-7.601 8.123a6.43 6.43 0 0 1-4.223-1.565V74h-4.072zm11.826 7.945c0-2.598-1.75-4.312-4.044-4.312s-4.072 1.707-4.072 4.312 1.781 4.305 4.072 4.305 4.044-1.704 4.044-4.305m7.058-13.821h4.072v21.766h-4.072zm7.058 13.821c0-4.487 3.71-8.122 8.114-8.122 4.251 0 7.78 3.28 7.78 8.122a9.6 9.6 0 0 1-.181 1.566h-11.309c.362 1.537 1.609 2.74 3.71 2.74 1.901 0 2.656-.855 2.656-.855h4.404c-.816 2.073-3.35 4.665-7.058 4.665-4.406.007-8.116-3.626-8.116-8.116m11.998-1.21a3.88 3.88 0 0 0-1.382-2.228 4.03 4.03 0 0 0-2.509-.874c-.914 0-1.801.308-2.509.874a3.88 3.88 0 0 0-1.382 2.229zm-65.035-10.9c0-.6.243-1.174.676-1.598a2.33 2.33 0 0 1 1.632-.662c.612 0 1.199.238 1.632.662s.676.999.676 1.598-.244 1.174-.676 1.598a2.33 2.33 0 0 1-1.632.662 2.33 2.33 0 0 1-1.632-.662 2.24 2.24 0 0 1-.676-1.598m.273 4.165h4.079v15.895h-4.072z"/></g></g><defs><clipPath id="a"><path fill="#fff" d="M67.201 46h112v28h-112z"/></clipPath></defs></svg>