<svg xmlns="http://www.w3.org/2000/svg" width="246" height="120" fill="none"><g fill="#fff" clip-path="url(#a)" style="mix-blend-mode:luminosity"><path d="M123.691 48h-6.604c-3.256 0-5.898 2.714-5.898 6.059v16.946h3.471V54.059c0-1.389 1.075-2.493 2.427-2.493h6.604c1.351 0 2.426 1.104 2.426 2.493v16.946h3.471V54.059c0-3.345-2.641-6.059-5.897-6.059"/><path fill-rule="evenodd" d="M74.147 48.567h8.324c3.256 0 5.897 2.714 5.897 6.06v3.565c0 3.345-2.641 6.06-5.897 6.06h-8.324c-1.351 0-2.426 1.104-2.426 2.492v4.26H68.25V54.626c0-3.345 2.642-6.059 5.897-6.059m8.324 12.118c1.352 0 2.427-1.104 2.427-2.493v-3.566c0-1.388-1.075-2.493-2.427-2.493h-8.324c-1.351 0-2.426 1.105-2.426 2.493v3.566c0 1.389 1.075 2.493 2.426 2.493zm14.651-12.118h3.471v22.437h-3.47zm77.156 16.378V48.567h3.471v16.378c0 3.345-2.641 6.06-5.898 6.06h-4.853c-3.255 0-5.897-2.715-5.897-6.06V48.567h3.471v16.378c0 1.389 1.075 2.493 2.426 2.493h4.853c1.352 0 2.427-1.104 2.427-2.493m-36.826-16.378v3.566h3.87c1.321.032 2.365 1.136 2.365 2.493v16.378h3.471V54.626c0-1.357 1.044-2.461 2.365-2.493h3.87v-3.566z" clip-rule="evenodd"/></g><defs><clipPath id="a"><path fill="#fff" d="M68.25 48h109.5v24H68.25z"/></clipPath></defs></svg>