<svg xmlns="http://www.w3.org/2000/svg" width="246" height="180" fill="none"><g style="mix-blend-mode:luminosity"><rect width="244.8" height="180" x=".8" fill="#000" fill-opacity=".04" rx="8"/><g clip-path="url(#a)"><mask id="b" width="199" height="28" x="24" y="76" maskUnits="userSpaceOnUse" style="mask-type:luminance"><path fill="#fff" d="M222.075 76H24.325v28h197.75z"/></mask><g mask="url(#b)"><path fill="#FFFEFF" d="m57.548 98.076-5.425 5.542a1.3 1.3 0 0 1-.918.382H25.491a.65.65 0 0 1-.345-.098.6.6 0 0 1-.232-.263.57.57 0 0 1 .115-.648l5.418-5.542c.118-.12.26-.216.418-.282s.328-.1.5-.1H57.08a.65.65 0 0 1 .35.094.6.6 0 0 1 .237.262.57.57 0 0 1-.118.653m-5.425-11.162a1.3 1.3 0 0 0-.417-.281 1.3 1.3 0 0 0-.501-.1H25.491a.65.65 0 0 0-.345.097.6.6 0 0 0-.232.263.57.57 0 0 0 .115.648l5.418 5.545c.118.12.26.215.418.281s.328.1.5.1H57.08a.65.65 0 0 0 .344-.099.6.6 0 0 0 .231-.262.57.57 0 0 0-.116-.647zm-26.632-3.981h25.714c.172 0 .343-.034.5-.1.159-.066.301-.162.418-.282l5.425-5.542a.571.571 0 0 0 .119-.653.6.6 0 0 0-.238-.263.65.65 0 0 0-.35-.093H31.366a1.3 1.3 0 0 0-.501.1q-.239.1-.418.282l-5.418 5.542a.574.574 0 0 0-.115.649c.049.107.13.198.232.262a.65.65 0 0 0 .345.098"/><path fill="#fff" d="M88.897 87.842H75.14v-4.317h17.332v-4.317H75.094a4.7 4.7 0 0 0-1.732.32c-.55.213-1.05.528-1.472.926a4.3 4.3 0 0 0-.988 1.392 4.1 4.1 0 0 0-.354 1.647v4.375c.003.566.122 1.127.352 1.649s.566.996.988 1.394c.422.399.923.714 1.473.928s1.139.323 1.733.32H88.87v4.316H70.876v4.317h18.02a4.7 4.7 0 0 0 1.733-.319 4.6 4.6 0 0 0 1.472-.927c.422-.397.758-.87.988-1.392s.35-1.081.354-1.647v-4.375a4.1 4.1 0 0 0-.352-1.648 4.3 4.3 0 0 0-.987-1.395 4.6 4.6 0 0 0-1.474-.928 4.7 4.7 0 0 0-1.733-.32M115.547 79.208h-13.809a4.7 4.7 0 0 0-1.736.316 4.6 4.6 0 0 0-1.476.925 4.3 4.3 0 0 0-.99 1.395 4.1 4.1 0 0 0-.356 1.649v13.014c.003.567.124 1.127.355 1.65a4.3 4.3 0 0 0 .991 1.394c.424.398.925.712 1.476.925.552.213 1.142.32 1.736.316h13.809a4.7 4.7 0 0 0 1.732-.319 4.5 4.5 0 0 0 1.472-.927c.422-.397.758-.87.988-1.392a4.1 4.1 0 0 0 .354-1.647V83.493a4.1 4.1 0 0 0-.354-1.647 4.3 4.3 0 0 0-.988-1.392 4.5 4.5 0 0 0-1.472-.927 4.7 4.7 0 0 0-1.732-.319m-.033 17.267h-13.742v-12.95h13.735zM163.913 79.208h-13.469a4.7 4.7 0 0 0-1.732.32 4.6 4.6 0 0 0-1.472.926 4.3 4.3 0 0 0-.988 1.392 4.15 4.15 0 0 0-.354 1.647v17.299h4.592v-7.09h13.408v7.09h4.592v-17.3a4.1 4.1 0 0 0-.357-1.653 4.3 4.3 0 0 0-.996-1.396 4.5 4.5 0 0 0-1.482-.924 4.7 4.7 0 0 0-1.742-.31m-.033 10.177h-13.408v-5.86h13.408zM217.529 79.208H204.06a4.7 4.7 0 0 0-1.732.32c-.55.213-1.05.528-1.472.926a4.3 4.3 0 0 0-.988 1.392 4.1 4.1 0 0 0-.354 1.647v17.299h4.592v-7.09h13.377v7.09h4.592V83.493a4.1 4.1 0 0 0-.354-1.647 4.3 4.3 0 0 0-.988-1.392 4.5 4.5 0 0 0-1.472-.927 4.7 4.7 0 0 0-1.732-.319m-.046 10.177h-13.407v-5.86h13.407zM190.851 96.475h-1.836l-6.566-15.458a2.9 2.9 0 0 0-1.112-1.313 3.14 3.14 0 0 0-1.692-.496h-4.075a3.2 3.2 0 0 0-1.155.213c-.367.143-.7.353-.982.618a2.9 2.9 0 0 0-.658.93 2.8 2.8 0 0 0-.235 1.098v18.725h4.591V83.525h1.837l6.563 15.458c.229.533.619.988 1.121 1.308.501.32 1.092.49 1.695.489h4.075c.396.002.788-.07 1.155-.213.366-.143.7-.353.981-.618.282-.266.506-.581.659-.929s.233-.721.235-1.098V79.208h-4.601zM128.741 79.208h-4.592v17.3c.003.566.124 1.127.355 1.65s.568.996.992 1.394.926.712 1.477.925c.552.213 1.142.32 1.737.315h13.775v-4.317h-13.744z"/></g></g></g><defs><clipPath id="a"><path fill="#fff" d="M24.325 76h197.75v28H24.325z"/></clipPath></defs></svg>