<svg xmlns="http://www.w3.org/2000/svg" width="246" height="120" fill="none"><g fill="#fff" clip-path="url(#a)" style="mix-blend-mode:luminosity"><path d="M130.882 51.35v6.16q1.542-2.016 4.454-2.016c.914 0 1.713.112 2.398.448.8.224 1.485.672 2.056 1.232.685.56 1.142 1.232 1.484 2.016s.457 1.792.457 2.912a9 9 0 0 1-.685 3.472c-.457 1.008-1.142 1.904-2.17 2.576s-2.17 1.008-3.654 1.008c-2.056 0-3.54-.672-4.454-1.904v1.568h-3.997V51.35zm-15.188 3.808c7.765 0 7.08 8.176 7.08 8.176h-10.506c.456 1.568 1.827 2.688 3.768 2.688 2.398 0 3.655-1.344 3.655-1.344l2.284 2.24c-1.142 1.12-2.741 2.128-5.939 2.128-4.91 0-7.537-3.248-7.537-6.608s1.827-7.28 7.195-7.28m96.041-.112c3.312 0 5.482 1.232 5.482 1.232l-1.485 2.912c-4.453-2.24-6.395-.672-6.395.112s.8.896 3.883 1.456 4.454 1.792 4.454 3.808-1.827 4.256-6.167 4.256-6.281-1.344-6.281-1.344l1.37-2.8c3.426 2.128 7.309 1.456 7.309.224 0-.896-1.256-1.12-2.626-1.344l-.571-.112c-.229 0-.571-.112-.8-.112-1.713-.224-4.339-1.232-4.339-3.808-.115-2.688 2.855-4.48 6.166-4.48m-19.414-4.704V60.87l5.825-5.376h4.682l-5.71 5.376 6.281 8.064h-4.682l-4.34-5.488-2.056 1.904v3.584h-3.882V50.342zm-13.818 4.704c2.741 0 5.139 1.344 6.51 3.36l-3.312 1.904c-.571-1.12-1.827-1.904-3.198-1.904-2.055 0-3.654 1.568-3.654 3.584s1.599 3.584 3.654 3.584c1.371 0 2.513-.672 3.084-1.792l3.311 1.792a7.82 7.82 0 0 1-6.395 3.248c-4.225 0-7.537-3.136-7.537-6.944-.114-3.808 3.312-6.832 7.537-6.832m-17.929 0c4.225 0 7.537 3.136 7.537 6.944s-3.426 6.944-7.537 6.944c-4.225 0-7.537-3.136-7.537-6.944-.114-3.92 3.312-6.944 7.537-6.944m-68.634.336V68.71h-4.225V55.382zm-7.88-4.032v3.36h-9.364v4.48h8.222v3.248h-8.222v6.272h-4.225V51.35zm16.902 5.712s1.485-2.24 4.568-1.904v3.696s-3.312-.784-4.568 2.576v7.392h-3.997v-13.44h3.769zm47.964-6.72V68.71H144.7V50.342zm-14.732 8.064c-2.284 0-3.426 1.344-3.426 4.144 0 1.008.343 1.904.914 2.688q.856 1.008 2.74 1.008c.8 0 1.485-.224 1.942-.56.457-.448.799-.896 1.028-1.456s.342-1.232.342-1.792c0-1.12-.228-2.128-.799-2.8-.685-.896-1.599-1.232-2.741-1.232m26.38-.112c-2.056 0-3.654 1.568-3.654 3.584s1.598 3.584 3.654 3.584 3.654-1.568 3.654-3.584c-.114-1.904-1.713-3.584-3.654-3.584m-44.88-.336c-2.056 0-3.198 1.232-3.541 2.8h6.852c0-.336-.685-2.8-3.311-2.8m-25.81-8.848c1.371 0 2.513 1.008 2.513 2.24s-1.142 2.24-2.512 2.24-2.513-1.008-2.513-2.24 1.142-2.24 2.513-2.24M56.452 46c.685 0 1.142.448 1.142 1.12v25.76c0 .672-.457 1.12-1.142 1.12H29.843c-.685 0-1.142-.448-1.142-1.12V47.12c0-.672.457-1.12 1.142-1.12zm-13.247 7.728L35.21 66.16h16.102z"/></g><defs><clipPath id="a"><path fill="#fff" d="M28.701 46h189v28h-189z"/></clipPath></defs></svg>