<svg width="246" height="120" viewBox="0 0 246 120" fill="none" xmlns="http://www.w3.org/2000/svg">
<g style="mix-blend-mode:luminosity">
<path d="M35.2418 70.3674C33.0426 68.273 31.8906 65.236 31.8906 61.3612V46.9094H40.6874V61.047C40.6874 62.9321 41.0016 64.3982 41.7346 65.236C42.4677 66.0738 43.4102 66.4927 44.6669 66.4927C45.9236 66.4927 46.9708 66.0738 47.5992 65.236C48.3322 64.3982 48.6464 62.9321 48.6464 61.047V46.9094H57.3385V61.2565C57.3385 65.1313 56.1865 68.1682 53.9873 70.3674C51.6834 72.5666 48.6464 73.6139 44.5622 73.6139C40.5827 73.6139 37.441 72.5666 35.2418 70.3674ZM64.6691 49.5274C65.6116 49.5274 66.1352 49.8416 66.3447 50.1558C66.6589 50.47 66.973 50.7841 66.973 51.7266C66.973 52.6692 66.6589 53.088 66.3447 53.2975C66.0305 53.6117 65.6116 53.9258 64.6691 53.9258C63.7266 53.9258 63.3077 53.6117 62.9935 53.2975C62.6794 52.9833 62.3652 52.5644 62.3652 51.7266C62.3652 50.8889 62.6794 50.47 62.9935 50.1558C63.3077 49.9463 63.7266 49.5274 64.6691 49.5274ZM64.6691 46.9094C63.3077 46.9094 62.1557 47.433 61.2132 48.2708C60.2707 49.1086 59.8518 50.2605 59.8518 51.7266C59.8518 53.1928 60.2707 54.3447 61.2132 55.1825C62.1557 56.125 63.3077 56.5439 64.7738 56.5439C66.24 56.5439 67.3919 56.125 68.3344 55.1825C69.277 54.24 69.6958 53.088 69.6958 51.7266C69.6958 50.3652 69.277 49.1086 68.3344 48.2708C67.2872 47.433 66.1352 46.9094 64.6691 46.9094ZM79.9588 53.8211H72.3139V46.9094H96.4004V53.7164H88.7555V72.9855H79.9588V53.8211ZM104.464 71.9383C102.324 70.8224 100.518 69.1604 99.2279 67.121C97.9712 65.0265 97.3429 62.7226 97.3429 60.1045C97.3429 57.4864 97.9712 55.1825 99.2279 53.0881C100.485 50.9936 102.265 49.4227 104.464 48.2708C106.663 46.9094 109.177 46.3857 112.004 46.3857C114.832 46.3857 117.345 47.0141 119.544 48.166C121.684 49.282 123.49 50.9439 124.78 52.9833C126.037 54.9731 126.665 57.3817 126.665 59.9998C126.665 62.6179 126.037 64.9218 124.78 67.0163C123.524 69.1108 121.743 70.6816 119.544 71.8336C117.345 72.9855 114.832 73.6139 112.004 73.6139C109.177 73.6139 106.663 73.0902 104.464 71.9383ZM114.936 65.7596C115.837 65.2039 116.563 64.4054 117.031 63.4557C117.555 62.5132 117.764 61.3612 117.764 59.9998C117.764 58.6384 117.555 57.4864 117.031 56.5439C116.507 55.6014 115.774 54.7636 114.936 54.24C114.099 53.7164 113.051 53.4022 112.004 53.4022C110.957 53.4066 109.932 53.7029 109.044 54.2579C108.156 54.8129 107.44 55.6046 106.977 56.5439C106.454 57.4864 106.244 58.6384 106.244 59.9998C106.244 61.3612 106.559 62.5132 106.977 63.4557C107.501 64.3982 108.234 65.236 109.072 65.7596C109.91 66.2832 110.957 66.5974 112.004 66.5974C113.051 66.4927 114.099 66.2832 114.936 65.7596ZM129.912 46.9094H142.793C145.725 46.9094 148.239 47.433 150.542 48.4802C152.663 49.4797 154.473 51.036 155.779 52.9833C157.035 54.9731 157.664 57.277 157.664 59.8951C157.664 62.5132 157.035 64.8171 155.779 66.8068C154.522 68.7966 152.846 70.2627 150.542 71.3099C148.343 72.3572 145.725 72.8808 142.793 72.8808H129.912V46.9094ZM142.479 66.1785C144.364 66.1785 145.83 65.6549 146.982 64.6076C148.134 63.5604 148.657 61.9896 148.657 59.9998C148.657 58.0101 148.134 56.5439 146.982 55.392C145.83 54.3447 144.364 53.8211 142.479 53.8211H138.709V66.1785H142.479ZM178.189 68.4824H168.241L166.46 72.9855H157.559L168.974 46.9094H177.666L188.976 73.0903H179.865L178.189 68.4824ZM175.781 62.199L173.267 55.6014L170.754 62.199H175.781ZM204.266 63.5604V72.9855H195.469V63.351L185.625 46.8046H194.945L200.286 55.8109L205.627 46.8046H214.11L204.266 63.5604Z" fill="white"/>
</g>
</svg>
