<svg width="245" height="180" viewBox="0 0 245 180" fill="none" xmlns="http://www.w3.org/2000/svg">
<g style="mix-blend-mode:luminosity">
<rect width="244.8" height="180" rx="8" fill="black" fill-opacity="0.04"/>
<g clip-path="url(#clip0_2272_3365)">
<mask id="mask0_2272_3365" style="mask-type:luminance" maskUnits="userSpaceOnUse" x="23" y="76" width="199" height="28">
<path d="M221.275 76H23.5249V104H221.275V76Z" fill="white"/>
</mask>
<g mask="url(#mask0_2272_3365)">
<path d="M56.7476 98.0762L51.3232 103.618C51.2059 103.738 51.0638 103.834 50.9058 103.9C50.7478 103.966 50.5773 104 50.4049 104H24.6913C24.5686 104 24.4487 103.966 24.3461 103.902C24.2435 103.838 24.1627 103.747 24.1137 103.639C24.0646 103.532 24.0494 103.414 24.0699 103.299C24.0904 103.184 24.1457 103.077 24.229 102.991L29.6473 97.4492C29.7646 97.3288 29.9067 97.2327 30.0647 97.167C30.2227 97.1013 30.3932 97.0672 30.5656 97.0671H56.2792C56.4029 97.0647 56.5247 97.0971 56.6291 97.1605C56.7335 97.2238 56.8162 97.3152 56.8661 97.4231C56.9163 97.5309 56.9316 97.6505 56.9104 97.7668C56.8893 97.883 56.8327 97.9907 56.7476 98.0762ZM51.3232 86.9142C51.2055 86.7943 51.0633 86.6987 50.9054 86.633C50.7475 86.5673 50.5772 86.533 50.4049 86.5321H24.6913C24.5686 86.5322 24.4487 86.5663 24.3461 86.6303C24.2435 86.6944 24.1627 86.7855 24.1137 86.8926C24.0646 86.9997 24.0494 87.1181 24.0699 87.2333C24.0904 87.3485 24.1457 87.4556 24.229 87.5413L29.6473 93.0859C29.765 93.2057 29.9072 93.3013 30.0651 93.3671C30.223 93.4327 30.3933 93.4671 30.5656 93.4679H56.2792C56.4017 93.4673 56.5211 93.4327 56.6233 93.3685C56.7255 93.3043 56.8058 93.2131 56.8544 93.1061C56.9031 92.9991 56.9181 92.8809 56.8973 92.766C56.8768 92.651 56.8217 92.5443 56.7384 92.4588L51.3232 86.9142ZM24.6913 82.9329H50.4049C50.5773 82.9328 50.7478 82.8987 50.9058 82.833C51.0638 82.7673 51.2059 82.6712 51.3232 82.5508L56.7476 77.0092C56.8327 76.9236 56.8893 76.8159 56.9104 76.6997C56.9316 76.5834 56.9163 76.4639 56.8661 76.356C56.8162 76.2481 56.7335 76.1568 56.6291 76.0934C56.5247 76.0301 56.4029 75.9976 56.2792 76H30.5656C30.3932 76.0002 30.2227 76.0342 30.0647 76.0999C29.9067 76.1657 29.7646 76.2617 29.6473 76.3821L24.229 81.9237C24.1457 82.0095 24.0904 82.1165 24.0699 82.2317C24.0494 82.3469 24.0646 82.4653 24.1137 82.5724C24.1627 82.6795 24.2435 82.7707 24.3461 82.8347C24.4487 82.8987 24.5686 82.9328 24.6913 82.9329Z" fill="#FFFEFF"/>
<path d="M88.0966 87.8418H74.3398V83.5251H91.672V79.2084H74.2938C73.7 79.2054 73.1116 79.3138 72.5619 79.5274C72.0121 79.7411 71.5116 80.0558 71.0897 80.4537C70.6676 80.8515 70.3318 81.3247 70.1016 81.8462C69.8714 82.3677 69.7511 82.9273 69.748 83.493V87.868C69.7505 88.4342 69.8699 88.9945 70.0998 89.5166C70.3297 90.0388 70.6652 90.5126 71.0873 90.9111C71.5097 91.3096 72.0102 91.6249 72.5603 91.8389C73.1104 92.0529 73.6997 92.1615 74.2938 92.1584H88.069V96.4751H70.0756V100.792H88.0966C88.6904 100.795 89.2788 100.686 89.8285 100.473C90.3783 100.259 90.8788 99.9444 91.3007 99.5465C91.7228 99.1487 92.0586 98.6755 92.2888 98.154C92.519 97.6325 92.6393 97.0729 92.6424 96.5072V92.1322C92.6399 91.566 92.5205 91.0058 92.2906 90.4836C92.0607 89.9614 91.7252 89.4876 91.3031 89.0891C90.8807 88.6906 90.3802 88.3753 89.8301 88.1613C89.28 87.9473 88.6907 87.8387 88.0966 87.8418Z" fill="white"/>
<path d="M114.747 79.2084H100.938C100.344 79.2038 99.7538 79.311 99.2024 79.524C98.6514 79.737 98.1497 80.0515 97.7264 80.4495C97.3027 80.8475 96.966 81.3212 96.7352 81.8435C96.504 82.3657 96.3834 82.9263 96.3804 83.493V96.5071C96.3834 97.0739 96.504 97.6344 96.7352 98.1567C96.966 98.6789 97.3027 99.1526 97.7264 99.5506C98.1497 99.9487 98.6514 100.263 99.2024 100.476C99.7538 100.689 100.344 100.796 100.938 100.792H114.747C115.341 100.795 115.929 100.686 116.479 100.473C117.029 100.259 117.53 99.9443 117.951 99.5465C118.373 99.1486 118.709 98.6754 118.939 98.154C119.17 97.6325 119.29 97.0729 119.293 96.5071V83.493C119.29 82.9273 119.17 82.3677 118.939 81.8462C118.709 81.3247 118.373 80.8515 117.951 80.4536C117.53 80.0558 117.029 79.741 116.479 79.5274C115.929 79.3137 115.341 79.2053 114.747 79.2084ZM114.714 96.4751H100.972V83.5251H114.707L114.714 96.4751Z" fill="white"/>
<path d="M163.113 79.2083H149.644C149.05 79.2053 148.462 79.3136 147.912 79.5273C147.362 79.741 146.862 80.0557 146.44 80.4536C146.018 80.8514 145.682 81.3246 145.452 81.8461C145.222 82.3676 145.101 82.9272 145.098 83.4929V100.792H149.69V93.7012H163.098V100.792H167.689V83.4929C167.686 82.9247 167.565 82.3627 167.333 81.8393C167.101 81.3159 166.762 80.8414 166.337 80.4432C165.912 80.0449 165.408 79.7308 164.854 79.5189C164.301 79.3069 163.709 79.2014 163.113 79.2083ZM163.079 89.3846H149.671V83.525H163.079V89.3846Z" fill="white"/>
<path d="M216.729 79.2084H203.26C202.666 79.2054 202.078 79.3138 201.528 79.5274C200.978 79.7411 200.478 80.0558 200.056 80.4537C199.634 80.8515 199.298 81.3247 199.068 81.8462C198.838 82.3677 198.717 82.9273 198.714 83.493V100.792H203.306V93.7014H216.683V100.792H221.275V83.493C221.272 82.9273 221.152 82.3677 220.921 81.8462C220.691 81.3247 220.355 80.8515 219.933 80.4537C219.511 80.0558 219.011 79.7411 218.461 79.5274C217.911 79.3138 217.323 79.2054 216.729 79.2084ZM216.683 89.3847H203.275V83.5251H216.683V89.3847Z" fill="white"/>
<path d="M190.052 96.4751H188.215L181.649 81.0167C181.424 80.4834 181.036 80.0264 180.537 79.7042C180.037 79.382 179.448 79.2093 178.845 79.2084H174.77C174.374 79.2065 173.982 79.2789 173.615 79.4215C173.249 79.5641 172.915 79.7741 172.634 80.0395C172.352 80.305 172.129 80.6206 171.975 80.9684C171.822 81.3163 171.742 81.6895 171.74 82.0667V100.792H176.331V83.5251H178.168L184.731 98.9834C184.96 99.5157 185.35 99.9709 185.852 100.291C186.353 100.611 186.944 100.781 187.548 100.78H191.622C192.018 100.782 192.41 100.71 192.777 100.567C193.144 100.424 193.477 100.214 193.759 99.9489C194.04 99.6835 194.264 99.3679 194.417 99.0201C194.57 98.6722 194.65 98.299 194.652 97.9217V79.2084H190.052V96.4751Z" fill="white"/>
<path d="M127.941 79.2084H123.349V96.5071C123.352 97.0741 123.473 97.6349 123.704 98.1573C123.935 98.6798 124.272 99.1536 124.696 99.5517C125.12 99.9497 125.622 100.264 126.173 100.477C126.725 100.69 127.315 100.797 127.91 100.792H141.685V96.475H127.941V79.2084Z" fill="white"/>
</g>
</g>
</g>
<defs>
<clipPath id="clip0_2272_3365">
<rect width="197.75" height="28" fill="white" transform="translate(23.5249 76)"/>
</clipPath>
</defs>
</svg>
