<svg xmlns="http://www.w3.org/2000/svg" width="246" height="120" fill="none"><g clip-path="url(#a)" style="mix-blend-mode:luminosity"><path fill="#fff" d="M61.896 59.94v-.062C61.866 51.134 54.823 44 46.204 44s-15.692 7.135-15.692 15.94 7.04 15.925 15.692 15.925a15.43 15.43 0 0 0 10.66-4.265 1.445 1.445 0 0 0-1.95-2.133l-.03.03a12.69 12.69 0 0 1-18.287-.833l6.704-10.75v4.975c0 2.377.927 3.15 1.706 3.366s1.947.06 3.213-1.947l3.678-5.972q.147-.262.337-.495v3.029c0 2.223.896 4.015 2.44 4.879a4.49 4.49 0 0 0 4.605-.184c1.783-1.158 2.74-3.185 2.616-5.626m-4.078 3.128a1.69 1.69 0 0 1-1.706.122c-.618-.37-.99-1.203-.99-2.346v-3.501c0-1.666-.649-2.872-1.76-3.18-1.886-.569-3.305 1.76-3.831 2.626l-3.327 5.343v-6.579c-.031-1.513-.526-2.409-1.453-2.688-.618-.184-1.545-.09-2.44 1.27l-7.445 11.922a13.2 13.2 0 0 1-1.513-6.118c0-7.197 5.776-13.036 12.85-13.036 7.076 0 12.852 5.839 12.852 13.036v.063c.074 1.388-.372 2.503-1.236 3.057zm25.95-8.565a1.55 1.55 0 0 1 .711 1.205 1.37 1.37 0 0 1-1.328 1.359 2.3 2.3 0 0 1-.496-.094 5.1 5.1 0 0 0-2.997-1.017c-2.625 0-4.416 2.13-4.416 4.785 0 2.657 1.823 4.759 4.416 4.759a4.8 4.8 0 0 0 3.336-1.36c.227-.16.496-.246.773-.247a1.252 1.252 0 0 1 1.093 1.886c-.107.187-.26.347-.444.463a7.335 7.335 0 1 1-4.726-12.974 7 7 0 0 1 4.077 1.235m7.35 3.08a5.236 5.236 0 0 0-5.257 5.197 5.32 5.32 0 0 0 5.252 5.285c2.719 0 5.036-2.44 5.036-5.285 0-2.843-2.28-5.198-5.03-5.198m-.03 7.908c-1.297 0-2.378-1.174-2.378-2.688 0-1.575 1.081-2.534 2.378-2.534 1.206 0 2.223.99 2.223 2.534 0 1.545-1.017 2.697-2.223 2.697zm6.796.966v-7.291a1.42 1.42 0 0 1 1.422-1.45 1.44 1.44 0 0 1 1.423 1.45v7.291a1.443 1.443 0 0 1-1.423 1.451 1.465 1.465 0 0 1-1.422-1.45m-.216-11.49a1.66 1.66 0 0 1 1.638-1.708 1.684 1.684 0 0 1 1.666 1.707 1.654 1.654 0 0 1-1.651 1.652 1.65 1.65 0 0 1-1.653-1.652m8.495 7.538v3.952a1.422 1.422 0 0 1-2.845 0v-7.63a1.096 1.096 0 0 1 2.194 0 4.12 4.12 0 0 1 3.128-1.236c2.844 0 4.11 2.132 4.11 4.573v4.293a1.422 1.422 0 0 1-2.845 0v-3.952c0-1.237-.154-2.276-1.946-2.276-1.264 0-1.79 1.05-1.79 2.276zm15.786 1.513a.93.93 0 0 1-.743-.373l-3.304-3.583v6.395a1.43 1.43 0 0 1-.869 1.35 1.42 1.42 0 0 1-1.878-.793 1.4 1.4 0 0 1-.097-.557V53.791a.6.6 0 0 1 .526-.37 1 1 0 0 1 .618.37l5.284 5.932a.67.67 0 0 0 .463.285.77.77 0 0 0 .463-.285l5.282-5.932a.93.93 0 0 1 .616-.37.54.54 0 0 1 .527.37v12.668a1.43 1.43 0 0 1-.407 1.023 1.44 1.44 0 0 1-1.016.426 1.44 1.44 0 0 1-1.421-1.45v-6.396l-3.308 3.583a1.14 1.14 0 0 1-.739.373zm26.72-3.8h-.31c-1.791.091-2.13 1.113-2.13 2.276v3.952a1.421 1.421 0 1 1-2.843 0v-7.618a1.097 1.097 0 0 1 2.194 0c1.05-.99 1.915-1.206 2.779-1.238h.285a1.33 1.33 0 0 1 1.296 1.329 1.3 1.3 0 0 1-1.266 1.3zm10.966 5.56c.13.204.205.438.216.68a1.484 1.484 0 0 1-1.422 1.422c-.492 0-.927-.373-1.266-.806l-3.273-3.804v3.155a1.42 1.42 0 0 1-1.421 1.422 1.424 1.424 0 0 1-1.422-1.422v-11.58a1.417 1.417 0 0 1 1.699-1.396 1.42 1.42 0 0 1 1.144 1.395v7.227l3.273-3.612c.339-.372.743-.773 1.235-.773a1.42 1.42 0 0 1 1.36 1.39c.001.23-.064.454-.186.648l-2.593 2.844 2.656 3.214zm17.176 2.255h-.773c-2.162 0-3.43-.959-3.43-4.325v-3.49h-.739a1.31 1.31 0 0 1-1.314-1.314 1.31 1.31 0 0 1 1.314-1.314h.728v-2.687a1.416 1.416 0 0 1 1.421-1.45 1.45 1.45 0 0 1 1.423 1.45v2.68h1.172a1.31 1.31 0 0 1 1.268 1.327 1.35 1.35 0 0 1-1.268 1.3h-1.172v2.935c0 1.945.09 2.346.955 2.346h.404a1.27 1.27 0 0 1 1.266 1.269 1.296 1.296 0 0 1-1.266 1.265zm13.745-13.53a1.56 1.56 0 0 1 .71 1.205 1.363 1.363 0 0 1-1.328 1.359 2.3 2.3 0 0 1-.494-.094 5.08 5.08 0 0 0-2.995-1.017c-2.627 0-4.419 2.13-4.419 4.785 0 2.657 1.822 4.759 4.419 4.759a4.8 4.8 0 0 0 3.336-1.36 1.36 1.36 0 0 1 .771-.247 1.26 1.26 0 0 1 .9.366 1.25 1.25 0 0 1 .194 1.52 1.3 1.3 0 0 1-.446.462 7.32 7.32 0 0 1-6.597 1.435 7.33 7.33 0 0 1-5.355-8.02 7.33 7.33 0 0 1 7.226-6.388 6.9 6.9 0 0 1 4.078 1.235m-50.814 3.182a1.08 1.08 0 0 0-1.009.688 1.1 1.1 0 0 0-.075.423l-.059.342a4.44 4.44 0 0 0-3.307-1.575c-2.779 0-4.786 2.345-4.786 5.186s1.975 5.284 4.632 5.284c1.113 0 2.873-.495 3.43-1.576l.063.34a1.064 1.064 0 0 0 1.111 1.083 1.11 1.11 0 0 0 1.112-1.112v-7.963a1.133 1.133 0 0 0-1.112-1.12m-4.14 7.815c-1.266 0-2.256-1.203-2.256-2.688 0-1.484 1.019-2.56 2.256-2.56s2.349 1.018 2.349 2.56c0 1.541-1.082 2.688-2.349 2.688m34.413-2.936c-.063-3.182-2.133-4.974-4.88-4.974-3.412 0-4.852 2.472-4.852 5.315 0 3.615 2.381 5.159 5.253 5.159 1.081 0 2.224-.156 3.088-.804a1.26 1.26 0 0 0 .618-1.019 1.166 1.166 0 0 0-1.138-1.174 1.4 1.4 0 0 0-.739.216 4.6 4.6 0 0 1-1.855.37c-.711 0-2.348-.285-2.348-1.976h5.738a1.14 1.14 0 0 0 1.115-1.113m-6.86-.717c0-1.203 1.269-1.603 2.039-1.603.772 0 2.039.4 2.07 1.603zm38.733-4.162a1.1 1.1 0 0 0-.775.327 1.07 1.07 0 0 0-.306.784l-.062.342a4.43 4.43 0 0 0-3.305-1.575c-2.78 0-4.789 2.345-4.789 5.186s1.991 5.284 4.633 5.284c1.112 0 2.875-.495 3.429-1.576l.063.34a1.08 1.08 0 0 0 .322.78 1.06 1.06 0 0 0 .79.303 1.114 1.114 0 0 0 1.113-1.112v-7.963a1.14 1.14 0 0 0-1.113-1.12m-4.141 7.815c-1.234 0-2.254-1.203-2.254-2.688 0-1.484.989-2.56 2.254-2.56s2.349 1.018 2.349 2.56c0 1.541-1.074 2.688-2.342 2.688zm13.352-7.918a4.57 4.57 0 0 0-3.336 1.36c0-.709-.463-1.235-1.08-1.235a1.115 1.115 0 0 0-1.03.686c-.056.135-.085.28-.085.426v11.987a1.423 1.423 0 0 0 2.427 1.005c.266-.267.416-.628.417-1.005V67.2c.77.585 2.007.833 2.843.853 2.688 0 4.636-2.44 4.636-5.283 0-2.845-2.041-5.188-4.792-5.188m-.341 7.909c-1.266 0-2.346-1.137-2.346-2.687s1.08-2.56 2.346-2.56c1.265 0 2.255 1.018 2.255 2.56 0 1.492-.986 2.696-2.255 2.696z"/></g><defs><clipPath id="a"><path fill="#fff" d="M30.512 44H215.89v32H30.51z"/></clipPath></defs></svg>