<svg width="246" height="120" viewBox="0 0 246 120" fill="none" xmlns="http://www.w3.org/2000/svg">
<g style="mix-blend-mode:luminosity">
<g clip-path="url(#clip0_3110_26949)">
<path d="M35.2492 68.1956L28.9099 70.9822V70.7032C27.6447 71.0182 26.3521 71.2047 25.0511 71.2601C19.0891 71.2016 14.3569 68.0471 14.3019 64.293V62.9002C16.2599 65.7791 20.2463 67.7074 25.0511 67.6376C26.6769 67.7074 28.3401 67.4464 29.7371 67.0807L30.2882 65.6869C28.6305 66.1864 26.8221 66.534 25.0522 66.5227C19.0902 66.534 14.3569 63.3795 14.3019 59.5567V58.4419C16.2599 61.1025 20.2375 63.0319 25.0511 62.9002C27.217 63.0319 29.3345 62.5717 31.1154 61.7865L31.3904 60.3915C29.6513 61.3196 27.3974 61.8585 25.0511 61.7865C19.0891 61.8585 14.3569 58.704 14.3019 54.8194V53.7045C16.2599 56.427 20.2463 58.3564 25.0511 58.4407C27.7824 58.3564 30.3707 57.6262 32.4937 56.49L32.7687 54.8182C30.8437 56.2616 28.031 57.192 25.0511 57.327C19.0891 57.192 14.358 54.0364 14.3019 50.082C14.3569 46.3189 19.0891 43.1644 25.0511 43.1149C28.6052 43.1644 31.9063 44.4244 33.872 46.4584L34.0634 46.7812L35.4527 46.7869L35.2492 46.4584C33.2945 43.773 29.3862 42 25.0522 42C18.4533 42 13.1997 45.6765 13.1997 50.0809V64.572C13.4307 68.8729 18.5666 72.375 25.0511 72.375C29.3345 72.375 33.1834 70.6717 35.2492 68.1956Z" fill="white"/>
<path d="M32.6698 78L34.8962 68.4375L28.4986 71.25L32.3926 54.6563H24.8818L26.8288 46.5H50.7516L48.8046 54.6563H41.0166L39.3468 59.1563L47.9708 55.5L32.6698 78ZM36.5649 66.4688L35.4528 72.0938L44.6323 58.0313L37.1215 61.4063L40.46 53.5313H47.9697L49.3601 47.625H27.6648L26.2744 53.5313H33.7841L30.1684 69.2813L36.5649 66.4688ZM68.7058 53.1038C68.5958 54.6803 68.0348 55.9219 67.0228 56.8286C66.0123 57.7354 64.6795 58.1884 63.0243 58.1876C61.2152 58.1876 59.7925 57.555 58.7563 56.2898C57.7187 55.0253 57.1998 53.2886 57.1998 51.0799V50.1833C57.1998 48.7733 57.4389 47.5313 57.917 46.4573C58.3959 45.384 59.079 44.5601 59.9663 43.9856C60.8551 43.4119 61.888 43.125 63.065 43.125C64.693 43.125 66.0046 43.5784 66.9997 44.4851C67.9941 45.3911 68.5694 46.6631 68.7256 48.3011H65.8172C65.7461 47.3539 65.4924 46.6676 65.056 46.2424C64.6197 45.8149 63.956 45.6015 63.065 45.6023C62.0956 45.6023 61.3699 45.963 60.8881 46.6845C60.4063 47.4068 60.1592 48.5261 60.1467 50.0426V51.1508C60.1467 52.7333 60.3777 53.8909 60.8397 54.6236C61.3017 55.3556 62.0303 55.7216 63.0254 55.7216C63.9238 55.7216 64.594 55.5083 65.0362 55.0815C65.4799 54.6555 65.7336 53.9963 65.7974 53.1038H68.7058ZM83.7208 50.9888C83.7208 52.4325 83.4752 53.6978 82.9838 54.7845C82.4932 55.872 81.7903 56.7113 80.8751 57.3023C79.9614 57.8925 78.9131 58.1876 77.7302 58.1876C76.5606 58.1876 75.517 57.8959 74.5996 57.3124C73.683 56.7281 72.972 55.8941 72.4667 54.8104C71.9629 53.7259 71.7077 52.4786 71.7011 51.0686V50.3441C71.7011 48.9004 71.9516 47.6303 72.4524 46.5338C72.9533 45.4365 73.661 44.5939 74.5754 44.0059C75.4899 43.4179 76.5349 43.1243 77.7104 43.125C78.8874 43.125 79.9328 43.4186 80.8465 44.0059C81.761 44.5946 82.4687 45.4373 82.9695 46.5338C83.4704 47.631 83.7208 48.8978 83.7208 50.334V50.9888ZM80.7739 50.325C80.7739 48.7875 80.5092 47.619 79.9797 46.8195C79.4488 46.0215 78.6927 45.6225 77.7115 45.6225C76.7347 45.6225 75.9816 46.0166 75.4521 46.8049C74.9227 47.5931 74.655 48.7496 74.6491 50.2744V50.9888C74.6491 52.4858 74.9135 53.6468 75.4422 54.4718C75.9724 55.2975 76.7351 55.7108 77.7302 55.7115C78.7056 55.7115 79.4554 55.314 79.9797 54.519C80.5026 53.7233 80.7673 52.5634 80.7739 51.0394V50.325ZM90.4374 57.9863H87.529V43.3275H90.4374V57.9863ZM106.122 57.9863H103.213L97.5533 48.3405V57.9863H94.6438V43.3275H97.5522L103.224 52.9913V43.3264H106.122V57.9863ZM120.516 45.7733H116.193V57.9863H113.286V45.7733H109.021V43.3264H120.516V45.7733ZM132.178 51.6334H126.594V55.5596H133.147V57.9863H123.686V43.3275H133.127V45.7744H126.594V49.2675H132.178V51.6334ZM139.273 55.5596H145.448V57.9863H136.366V43.3275H139.273V55.5596ZM157.119 51.6334H151.536V55.5596H158.089V57.9863H148.629V43.3275H158.069V45.7744H151.536V49.2675H157.119V51.6334ZM172.474 56.1334C171.951 56.7844 171.21 57.2895 170.253 57.6488C169.298 58.0088 168.238 58.1888 167.074 58.1888C165.853 58.1888 164.782 57.9113 163.861 57.3563C162.941 56.8028 162.23 55.9991 161.728 54.9454C161.228 53.8916 160.972 52.6534 160.958 51.2306V50.2328C160.958 48.7703 161.196 47.5039 161.671 46.4336C162.146 45.3626 162.83 44.5436 163.725 43.9766C164.62 43.4096 165.668 43.1258 166.871 43.125C168.544 43.125 169.853 43.5398 170.797 44.3693C171.741 45.1988 172.3 46.4051 172.474 47.9884H169.643C169.515 47.1491 169.229 46.5349 168.785 46.1456C168.343 45.7564 167.734 45.5618 166.958 45.5618C165.969 45.5618 165.216 45.948 164.698 46.7205C164.182 47.4915 163.921 48.639 163.914 50.163V51.099C163.914 52.6365 164.195 53.7979 164.758 54.5831C165.32 55.3684 166.143 55.761 167.23 55.761C168.321 55.761 169.1 55.5195 169.565 55.0365V52.5098H166.919V50.2845H172.474V56.1334ZM181.566 52.62H179.25V57.9863H176.341V43.3275H181.586C183.253 43.3275 184.538 43.7138 185.443 44.4863C186.348 45.258 186.801 46.3485 186.801 47.7578C186.801 48.7583 186.592 49.5923 186.176 50.2598C185.759 50.928 185.127 51.4598 184.28 51.855L187.333 57.8468V57.9874H184.212L181.566 52.62ZM179.25 50.1731H181.594C182.325 50.1731 182.891 49.98 183.292 49.5938C183.692 49.2083 183.892 48.6765 183.892 47.9985C183.892 47.307 183.703 46.7633 183.326 46.3673C182.947 45.9713 182.367 45.7733 181.586 45.7733H179.249L179.25 50.1731ZM198.492 54.9656H193.392L192.423 57.9863H189.331L194.585 43.3264H197.279L202.562 57.9863H199.471L198.492 54.9656ZM194.177 52.5199H197.705L195.932 47.031L194.177 52.5199ZM208.3 52.8214V57.9863H205.393V43.3275H210.898C211.958 43.3275 212.89 43.5293 213.695 43.9328C214.5 44.334 215.119 44.9059 215.551 45.6484C215.984 46.3909 216.2 47.235 216.2 48.1808C216.201 49.6178 215.728 50.7503 214.78 51.5783C213.834 52.4085 212.523 52.8233 210.85 52.8225L208.3 52.8214ZM208.3 50.3745H210.898C211.667 50.3745 212.253 50.187 212.657 49.812C213.062 49.4348 213.264 48.8978 213.263 48.201C213.263 47.481 213.06 46.8998 212.653 46.4573C212.246 46.0155 211.684 45.7875 210.967 45.7733H208.3V50.3745ZM231.197 57.9863H228.288V51.7043H222.619V57.9863H219.709V43.3275H222.619V49.2675H228.288V43.3275H231.197V57.9863Z" fill="white"/>
<path d="M62.1037 74.8496V65.88H65.2938V64.4512H57.2021V65.88H60.3646V74.8496H62.1037ZM68.6873 68.0096V63.8809H67.0108V74.8496H68.6873V69.3337C68.7371 69.2362 68.7929 69.1444 68.8545 69.0581C69.0085 68.8444 69.1991 68.6756 69.4265 68.5519C69.6753 68.4239 69.9509 68.3598 70.2295 68.3651C70.5184 68.3651 70.763 68.4154 70.9632 68.5159C71.1634 68.6111 71.3148 68.7679 71.4174 68.9861C71.5245 69.2059 71.578 69.5014 71.578 69.8726V74.8496H73.2676V69.8861C73.2676 69.3581 73.209 68.9107 73.0916 68.544C73.001 68.2071 72.8311 67.8981 72.5967 67.644C72.3804 67.4128 72.1123 67.2391 71.8156 67.1377C71.491 67.0285 71.1509 66.9753 70.8092 66.9802C70.4019 66.9743 69.9987 67.064 69.6306 67.2424C69.2625 67.4209 68.9405 67.6833 68.6873 68.0096Z" fill="white"/>
<path fill-rule="evenodd" clip-rule="evenodd" d="M77.3439 74.715C77.7956 74.8995 78.3005 74.9921 78.8586 74.9928C79.2996 75.0004 79.7387 74.9304 80.1566 74.7858C80.535 74.6471 80.854 74.4686 81.1136 74.2503C81.3746 74.0253 81.5866 73.7921 81.7494 73.5506L80.8628 72.672C80.6296 72.9765 80.3549 73.212 80.0389 73.3785C79.7034 73.5508 79.3318 73.6369 78.9565 73.6293C78.6353 73.6293 78.3493 73.5693 78.0985 73.4493C77.8512 73.3293 77.6318 73.1567 77.455 72.9431C77.2744 72.7221 77.137 72.4678 77.0502 72.1938C76.9826 71.9685 76.9409 71.736 76.9259 71.5008H81.8825V70.7651C81.8883 70.2485 81.8202 69.7337 81.6801 69.2373C81.5495 68.7753 81.3493 68.3778 81.0795 68.0448C80.8116 67.7032 80.4666 67.4333 80.0741 67.2585C79.6693 67.0732 79.1966 66.9806 78.6562 66.9806C78.1884 66.9767 77.7249 67.0713 77.2944 67.2585C76.8764 67.4437 76.5134 67.713 76.2054 68.0662C75.8974 68.4135 75.6576 68.8323 75.486 69.3228C75.3077 69.851 75.2202 70.4067 75.2275 70.9653V71.25C75.2275 71.778 75.3114 72.2707 75.4794 72.7282C75.6466 73.1857 75.8864 73.5832 76.1988 73.9207C76.5156 74.2582 76.8969 74.5222 77.3428 74.7127M76.96 70.2633C76.9776 70.1313 77.0003 70.005 77.0282 69.8842C77.1074 69.561 77.2192 69.285 77.3637 69.0562C77.5081 68.8275 77.6874 68.6538 77.9016 68.5353C78.1312 68.4099 78.3882 68.346 78.6485 68.3497C79.021 68.3497 79.3187 68.433 79.5417 68.5995C79.7661 68.7652 79.9314 68.9842 80.0378 69.2565C80.15 69.5272 80.2105 69.8175 80.2193 70.1272V70.2622L76.96 70.2633Z" fill="white"/>
<path d="M88.4651 74.8499H90.1481V68.38H91.7046V67.1234H90.1481V66.3809C90.1481 66.1086 90.1946 65.8799 90.2878 65.6946C90.3823 65.5144 90.5281 65.3677 90.7058 65.2739C90.892 65.1726 91.1135 65.1224 91.3702 65.1231C91.4956 65.1231 91.6118 65.128 91.7189 65.1378C91.8311 65.1475 91.9337 65.1644 92.0269 65.1884L92.0676 63.8598C91.912 63.8168 91.7535 63.7856 91.5935 63.7664C91.4295 63.7421 91.2641 63.7304 91.0985 63.7315C90.558 63.7315 90.0898 63.8339 89.6938 64.0386C89.2978 64.2381 88.9931 64.5355 88.7797 64.9308C88.5707 65.3208 88.4658 65.8041 88.4651 66.3809V67.1234H87.3057V68.38H88.4651V74.8499ZM98.0857 74.0624C97.8601 74.3442 97.5765 74.5716 97.2552 74.7284C96.8922 74.9046 96.4569 74.9928 95.9495 74.9928C95.5821 74.9928 95.2447 74.938 94.9375 74.8285C94.6379 74.7236 94.3656 74.5505 94.1411 74.3223C93.9074 74.0678 93.7332 73.7624 93.6318 73.429C93.51 73.0623 93.4492 72.6243 93.4492 72.115V67.1234H95.1322V72.1296C95.1322 72.4109 95.1652 72.6464 95.2312 72.8361C95.2957 73.0214 95.3837 73.1714 95.4952 73.2861C95.6074 73.3994 95.7379 73.4804 95.8868 73.5291C96.0364 73.5764 96.1944 73.6 96.3609 73.6C96.8412 73.6 97.2185 73.5048 97.4928 73.3143C97.7311 73.1478 97.9104 72.9321 98.0307 72.6674V67.1234H99.7203V74.8499H98.1275L98.0857 74.0624ZM105.466 68.38V67.1234H104.118V65.2311H102.435V67.1234H101.206V68.38H102.435V72.8215C102.435 73.3503 102.519 73.774 102.687 74.0928C102.855 74.4123 103.087 74.6433 103.384 74.7858C103.682 74.923 104.024 74.992 104.411 74.9928C104.648 74.9928 104.858 74.9759 105.04 74.9421C105.225 74.9091 105.388 74.8713 105.528 74.8285L105.522 73.5145C105.456 73.5288 105.369 73.543 105.263 73.5573C105.156 73.5723 105.044 73.5798 104.928 73.5798C104.765 73.5798 104.623 73.558 104.502 73.5145C104.38 73.47 104.278 73.3811 104.216 73.2648C104.15 73.1365 104.117 72.9531 104.117 72.7146V68.38H105.466ZM111.923 74.0624C111.697 74.3442 111.413 74.5716 111.092 74.7284C110.73 74.9046 110.295 74.9928 109.786 74.9928C109.42 74.9928 109.082 74.938 108.774 74.8285C108.475 74.7236 108.203 74.5505 107.978 74.3223C107.744 74.0678 107.57 73.7624 107.469 73.429C107.348 73.0623 107.287 72.6243 107.287 72.115V67.1234H108.97V72.1296C108.97 72.4109 109.003 72.6464 109.068 72.8361C109.134 73.0214 109.222 73.1714 109.332 73.2861C109.444 73.3994 109.575 73.4804 109.724 73.5291C109.873 73.5764 110.032 73.6 110.199 73.6C110.678 73.6 111.055 73.5048 111.33 73.3143C111.568 73.1478 111.747 72.9321 111.868 72.6674V67.1234H113.557V74.8499H111.965L111.923 74.0624ZM117.529 69.5691V74.8499H115.846V67.1234H117.452L117.5 68.0313L117.529 67.9795C117.721 67.6653 117.958 67.4204 118.242 67.2449C118.531 67.0686 118.864 66.9805 119.24 66.9805C119.342 66.9805 119.452 66.9899 119.569 67.0086C119.69 67.0281 119.78 67.0495 119.84 67.0728L119.826 68.6725C119.6 68.6356 119.371 68.6168 119.142 68.6163C118.854 68.6163 118.6 68.659 118.381 68.7445C118.173 68.8184 117.984 68.9404 117.83 69.1011C117.703 69.2376 117.601 69.3961 117.529 69.5691Z" fill="white"/>
<path fill-rule="evenodd" clip-rule="evenodd" d="M123.128 74.7147C123.58 74.8992 124.085 74.9918 124.644 74.9925C125.138 74.9925 125.57 74.9235 125.942 74.7855C126.289 74.6646 126.613 74.4834 126.899 74.25C127.16 74.025 127.371 73.7918 127.534 73.5503L126.647 72.6717C126.415 72.9762 126.14 73.2117 125.823 73.3782C125.488 73.5505 125.116 73.6366 124.741 73.629C124.42 73.629 124.134 73.569 123.883 73.449C123.635 73.3304 123.416 73.1576 123.241 72.9428C123.06 72.7219 122.922 72.4676 122.835 72.1935C122.767 71.9682 122.725 71.7357 122.71 71.5005H127.667V70.7648C127.673 70.2482 127.605 69.7334 127.465 69.237C127.334 68.775 127.134 68.3775 126.864 68.0445C126.596 67.7029 126.251 67.433 125.859 67.2582C125.454 67.0729 124.981 66.9803 124.441 66.9803C123.952 66.9803 123.499 67.0729 123.08 67.2582C122.661 67.4434 122.298 67.7127 121.991 68.0659C121.683 68.4132 121.443 68.832 121.272 69.3225C121.093 69.8507 121.006 70.4064 121.013 70.965V71.2497C121.013 71.7777 121.097 72.2704 121.264 72.7279C121.432 73.1854 121.672 73.5829 121.983 73.9204C122.3 74.2579 122.682 74.5219 123.128 74.7124M122.746 70.263C122.763 70.131 122.786 70.0047 122.814 69.8839C122.893 69.5607 123.005 69.2847 123.149 69.0559C123.282 68.8383 123.467 68.659 123.687 68.535C123.906 68.4113 124.155 68.3494 124.434 68.3494C124.807 68.3494 125.105 68.4327 125.328 68.5992C125.551 68.7649 125.716 68.9839 125.823 69.2562C125.936 69.5269 125.996 69.8172 126.005 70.1269V70.2619L122.746 70.263ZM133.335 70.9077V71.0719C133.335 71.6284 133.415 72.1452 133.573 72.6222C133.731 73.0977 133.961 73.5139 134.264 73.8709C134.566 74.2234 134.934 74.4998 135.367 74.7C135.804 74.895 136.3 74.9925 136.854 74.9925C137.403 74.9925 137.894 74.895 138.327 74.7C138.749 74.5086 139.126 74.2257 139.43 73.8709C139.738 73.5047 139.973 73.0805 140.122 72.6222C140.283 72.122 140.363 71.5984 140.359 71.0719V70.9077C140.363 70.3816 140.283 69.8583 140.122 69.3585C139.976 68.8986 139.741 68.4735 139.43 68.1087C139.126 67.7503 138.747 67.4669 138.321 67.2795C137.854 67.0715 137.349 66.9694 136.84 66.9803C136.332 66.973 135.828 67.075 135.36 67.2795C134.936 67.4678 134.559 67.7511 134.257 68.1087C133.952 68.4756 133.72 68.8997 133.573 69.3574C133.412 69.8575 133.331 70.3811 133.335 70.9077ZM135.018 71.0719V70.9077C135.018 70.5649 135.053 70.2413 135.123 69.9368C135.185 69.6458 135.296 69.3679 135.451 69.1155C135.599 68.877 135.788 68.6914 136.016 68.5587C136.249 68.4207 136.524 68.3517 136.84 68.3517C137.157 68.3509 137.429 68.4199 137.657 68.5587C137.89 68.6914 138.081 68.877 138.229 69.1155C138.389 69.3663 138.502 69.6445 138.565 69.9368C138.64 70.2405 138.677 70.5642 138.677 70.9077V71.0719C138.677 71.4192 138.64 71.7477 138.565 72.0574C138.504 72.3468 138.393 72.6226 138.237 72.8719C138.088 73.1044 137.897 73.2874 137.664 73.4209C137.416 73.5593 137.137 73.6284 136.854 73.6212C136.565 73.63 136.279 73.561 136.024 73.4209C135.792 73.2877 135.596 73.0994 135.451 72.8719C135.295 72.6226 135.184 72.3468 135.123 72.0574C135.053 71.7338 135.018 71.4033 135.018 71.0719Z" fill="white"/>
<path d="M142.921 74.8499H144.604V68.38H146.161V67.1234H144.604V66.3809C144.604 66.1086 144.65 65.8799 144.743 65.6946C144.838 65.5143 144.984 65.3676 145.162 65.2739C145.368 65.1699 145.596 65.1182 145.826 65.1231C145.951 65.1231 146.067 65.128 146.174 65.1378C146.287 65.1475 146.389 65.1644 146.482 65.1884L146.524 63.8598C146.368 63.8168 146.209 63.7856 146.049 63.7664C145.885 63.742 145.719 63.7304 145.553 63.7315C145.013 63.7315 144.545 63.8339 144.149 64.0386C143.762 64.2324 143.443 64.5441 143.235 64.9308C143.025 65.3208 142.921 65.8041 142.921 66.3809V67.1234H141.762V68.38H142.921V74.8499ZM153.741 69.2946V74.8499H152.059V67.1234H153.644L153.698 67.993C153.943 67.6765 154.244 67.4316 154.6 67.2584C155.009 67.0657 155.456 66.9707 155.906 66.9805C156.251 66.9805 156.565 67.033 156.849 67.138C157.138 67.237 157.387 67.3964 157.596 67.6161C157.752 67.7751 157.881 67.9671 157.982 68.1921C158.026 68.1261 158.072 68.0624 158.119 68.0009C158.371 67.6829 158.681 67.4331 159.049 67.2516C159.416 67.0716 159.837 66.9813 160.313 66.9805C160.698 66.9805 161.043 67.0353 161.345 67.1448C161.652 67.2498 161.913 67.4163 162.128 67.6443C162.342 67.873 162.505 68.1708 162.616 68.5375C162.728 68.8983 162.784 69.3363 162.784 69.8515V74.8499H161.095V69.8436C161.095 69.4536 161.039 69.1514 160.926 68.9369C160.832 68.7362 160.667 68.5787 160.466 68.4948C160.236 68.4037 159.992 68.3597 159.746 68.3654C159.486 68.3654 159.255 68.4156 159.055 68.5161C158.861 68.61 158.691 68.7491 158.559 68.9223C158.427 69.091 158.326 69.2849 158.256 69.5039C158.258 69.5684 158.259 69.634 158.259 69.7008V74.8499H156.577V69.8515C156.577 69.475 156.521 69.1795 156.409 68.965C156.312 68.7602 156.146 68.598 155.941 68.5083C155.714 68.4075 155.469 68.3588 155.222 68.3654C154.905 68.3654 154.635 68.4273 154.412 68.551C154.194 68.6748 154.014 68.8439 153.874 69.0584C153.825 69.1343 153.781 69.2132 153.741 69.2946Z" fill="white"/>
<path fill-rule="evenodd" clip-rule="evenodd" d="M164.752 70.9077V71.0719C164.752 71.6284 164.831 72.1452 164.99 72.6222C165.148 73.0977 165.378 73.5139 165.68 73.8709C165.983 74.2234 166.351 74.4998 166.784 74.7C167.222 74.895 167.717 74.9925 168.271 74.9925C168.82 74.9925 169.312 74.895 169.745 74.7C170.167 74.5084 170.543 74.2256 170.847 73.8709C171.155 73.5047 171.39 73.0805 171.539 72.6222C171.7 72.1221 171.781 71.5984 171.777 71.0719V70.9077C171.78 70.3815 171.7 69.8583 171.539 69.3585C171.393 68.8986 171.158 68.4735 170.847 68.1087C170.543 67.7503 170.164 67.4669 169.737 67.2795C169.271 67.0715 168.766 66.9694 168.257 66.9803C167.708 66.9803 167.215 67.08 166.777 67.2795C166.353 67.4678 165.976 67.7511 165.674 68.1087C165.369 68.4756 165.136 68.8997 164.99 69.3574C164.829 69.8575 164.748 70.3811 164.752 70.9077ZM166.435 71.0719V70.9077C166.435 70.5649 166.47 70.2413 166.54 69.9368C166.602 69.6458 166.713 69.3679 166.867 69.1155C167.017 68.877 167.205 68.6914 167.433 68.5587C167.666 68.4207 167.941 68.3517 168.257 68.3517C168.573 68.3509 168.846 68.4199 169.074 68.5587C169.306 68.6914 169.497 68.877 169.647 69.1155C169.8 69.3533 169.912 69.627 169.981 69.9368C170.056 70.2405 170.094 70.5642 170.094 70.9077V71.0719C170.094 71.4192 170.056 71.7477 169.981 72.0574C169.921 72.3468 169.81 72.6226 169.654 72.8719C169.509 73.0994 169.312 73.2877 169.081 73.4209C168.833 73.5593 168.553 73.6284 168.271 73.6212C167.982 73.63 167.695 73.561 167.44 73.4209C167.209 73.2877 167.012 73.0994 166.867 72.8719C166.711 72.6226 166.6 72.3468 166.54 72.0574C166.469 71.7338 166.434 71.4033 166.435 71.0719Z" fill="white"/>
<path d="M175.413 69.3587V74.8498H173.73V67.1233H175.316L175.371 68.0548L175.407 68.0087C175.672 67.6802 175.989 67.4278 176.356 67.2516C176.724 67.0716 177.134 66.9812 177.585 66.9805C177.949 66.9805 178.277 67.033 178.569 67.138C178.868 67.237 179.122 67.4012 179.331 67.6307C179.545 67.8587 179.708 68.1561 179.819 68.5228C179.931 68.8843 179.987 69.3295 179.987 69.8582V74.8498H178.298V69.8515C178.298 69.4802 178.244 69.1873 178.137 68.9728C178.047 68.7662 177.885 68.6008 177.683 68.5082C177.452 68.4057 177.201 68.3569 176.949 68.3653C176.661 68.3653 176.403 68.4272 176.175 68.551C175.947 68.6747 175.75 68.8479 175.595 69.0583C175.527 69.1535 175.466 69.2539 175.413 69.3587Z" fill="white"/>
<path fill-rule="evenodd" clip-rule="evenodd" d="M184.078 74.7148C184.529 74.8993 185.034 74.992 185.593 74.9927C186.086 74.9927 186.519 74.9237 186.892 74.7857C187.268 74.647 187.587 74.4685 187.848 74.2502C188.09 74.0479 188.304 73.8124 188.484 73.5505L187.597 72.6718C187.365 72.9763 187.09 73.2118 186.773 73.3783C186.438 73.5507 186.066 73.6368 185.691 73.6292C185.395 73.6356 185.101 73.5741 184.832 73.4492C184.585 73.329 184.366 73.1565 184.189 72.943C184.009 72.722 183.871 72.4677 183.785 72.1937C183.717 71.9684 183.675 71.7359 183.66 71.5007H188.617V70.765C188.617 70.2077 188.549 69.6985 188.414 69.2372C188.297 68.8015 188.093 68.3954 187.814 68.0447C187.546 67.7031 187.201 67.4332 186.808 67.2583C186.403 67.0731 185.93 66.9805 185.391 66.9805C184.902 66.9805 184.448 67.0731 184.029 67.2583C183.612 67.4422 183.24 67.7181 182.94 68.0661C182.621 68.4323 182.377 68.8594 182.22 69.3227C182.042 69.8508 181.955 70.4066 181.962 70.9652V71.2498C181.962 71.7778 182.046 72.2706 182.214 72.7281C182.381 73.1856 182.621 73.5831 182.933 73.9206C183.248 74.2581 183.63 74.5221 184.078 74.7126M183.695 70.2632C183.712 70.1312 183.735 70.0048 183.764 69.8841C183.843 69.5608 183.955 69.2848 184.099 69.0561C184.244 68.8273 184.423 68.6537 184.636 68.5352C184.855 68.4115 185.105 68.3496 185.384 68.3496C185.756 68.3496 186.053 68.4328 186.277 68.5993C186.5 68.7651 186.665 68.9841 186.773 69.2563C186.885 69.5271 186.945 69.8173 186.955 70.1271V70.2621L183.695 70.2632Z" fill="white"/>
<path d="M192.282 74.8304L189.607 67.123H191.423L193.06 72.4015L194.634 67.123H196.436L193.405 76.0274C193.336 76.2187 193.245 76.426 193.134 76.6495C193.016 76.8809 192.868 77.0944 192.694 77.284C192.508 77.4938 192.283 77.6617 192.03 77.7768C191.765 77.9058 191.444 77.9703 191.067 77.9703C190.917 77.9703 190.773 77.956 190.633 77.9275C190.505 77.9046 190.377 77.8784 190.249 77.8488L190.243 76.5348C190.354 76.5454 190.465 76.5525 190.577 76.5562C190.857 76.5562 191.089 76.5205 191.276 76.4493C191.455 76.3865 191.612 76.2725 191.73 76.1208C191.851 75.9685 191.953 75.7638 192.037 75.5065L192.282 74.8304Z" fill="white"/>
</g>
</g>
<defs>
<clipPath id="clip0_3110_26949">
<rect width="220" height="36" fill="white" transform="translate(13.1997 42)"/>
</clipPath>
</defs>
</svg>
