<svg xmlns="http://www.w3.org/2000/svg" width="246" height="120" fill="none"><path fill="#fff" d="M35.242 70.367c-2.2-2.094-3.351-5.131-3.351-9.006V46.91h8.796v14.138c0 1.885.315 3.351 1.048 4.189s1.675 1.257 2.932 1.257 2.304-.42 2.932-1.257c.733-.838 1.047-2.304 1.047-4.189V46.909h8.693v14.348c0 3.874-1.152 6.911-3.352 9.11-2.304 2.2-5.34 3.247-9.425 3.247-3.98 0-7.121-1.047-9.32-3.247m29.427-20.84c.943 0 1.466.315 1.676.629.314.314.628.628.628 1.57s-.314 1.362-.628 1.572c-.314.314-.733.628-1.676.628-.942 0-1.361-.314-1.675-.629-.315-.314-.629-.733-.629-1.57s.314-1.257.628-1.571c.315-.21.734-.629 1.676-.629m0-2.618c-1.361 0-2.513.524-3.456 1.362-.942.838-1.361 1.99-1.361 3.456s.419 2.618 1.361 3.456c.943.942 2.095 1.36 3.56 1.36 1.467 0 2.619-.418 3.561-1.36.943-.943 1.362-2.095 1.362-3.456 0-1.362-.419-2.618-1.362-3.456-1.047-.838-2.199-1.362-3.665-1.362m15.29 6.912h-7.645V46.91H96.4v6.807h-7.645v19.27H79.96zm24.505 18.117a13.7 13.7 0 0 1-5.236-4.817c-1.257-2.094-1.885-4.398-1.885-7.016s.628-4.922 1.885-7.017c1.257-2.094 3.037-3.665 5.236-4.817 2.199-1.362 4.713-1.885 7.54-1.885s5.341.628 7.54 1.78a13.7 13.7 0 0 1 5.236 4.817c1.257 1.99 1.885 4.399 1.885 7.017s-.628 4.922-1.885 7.016c-1.256 2.095-3.037 3.666-5.236 4.818s-4.712 1.78-7.54 1.78c-2.827 0-5.341-.524-7.54-1.676m10.472-6.178a5.63 5.63 0 0 0 2.095-2.304c.524-.943.733-2.095.733-3.456 0-1.362-.209-2.514-.733-3.456s-1.257-1.78-2.095-2.304a5.63 5.63 0 0 0-2.932-.838 5.63 5.63 0 0 0-5.027 3.142c-.523.942-.733 2.094-.733 3.456 0 1.361.315 2.513.733 3.456.524.942 1.257 1.78 2.095 2.304a5.63 5.63 0 0 0 2.932.837c1.047-.104 2.095-.314 2.932-.837m14.976-18.85h12.881c2.932 0 5.446.523 7.749 1.57 2.121 1 3.931 2.556 5.237 4.503q1.885 2.985 1.885 6.912t-1.885 6.912c-1.257 1.99-2.933 3.456-5.237 4.503-2.199 1.047-4.817 1.57-7.749 1.57h-12.881zm12.567 19.269c1.885 0 3.351-.524 4.503-1.571 1.152-1.048 1.675-2.618 1.675-4.608s-.523-3.456-1.675-4.608c-1.152-1.047-2.618-1.57-4.503-1.57h-3.77v12.356zm35.711 2.303h-9.949l-1.781 4.504h-8.901l11.415-26.077h8.692l11.31 26.181h-9.111zm-2.409-6.283-2.514-6.598-2.513 6.598zm28.485 1.361v9.426h-8.797V63.35l-9.844-16.546h9.32l5.341 9.006 5.341-9.006h8.483z" style="mix-blend-mode:luminosity"/></svg>