<svg xmlns="http://www.w3.org/2000/svg" width="246" height="120" fill="none"><g clip-path="url(#a)" style="mix-blend-mode:luminosity"><mask id="b" width="199" height="28" x="24" y="46" maskUnits="userSpaceOnUse" style="mask-type:luminance"><path fill="#fff" d="M222.075 46H24.325v28h197.75z"/></mask><g mask="url(#b)"><path fill="#FFFEFF" d="m57.548 68.076-5.425 5.542c-.117.12-.259.217-.417.282-.158.066-.328.1-.5.1H25.491a.65.65 0 0 1-.346-.098.6.6 0 0 1-.232-.262.57.57 0 0 1 .115-.65l5.419-5.54c.117-.121.259-.217.417-.283s.329-.1.5-.1H57.08a.65.65 0 0 1 .35.094.6.6 0 0 1 .236.262.57.57 0 0 1 .045.344.6.6 0 0 1-.163.31m-5.425-11.162a1.3 1.3 0 0 0-.417-.28 1.3 1.3 0 0 0-.5-.102H25.491a.65.65 0 0 0-.346.099.6.6 0 0 0-.232.262.57.57 0 0 0 .115.648l5.419 5.545c.117.12.26.215.417.281.158.066.329.1.5.101H57.08a.65.65 0 0 0 .344-.1.6.6 0 0 0 .23-.262.57.57 0 0 0-.115-.647zm-26.631-3.981h25.713c.173 0 .343-.034.501-.1s.3-.162.417-.282l5.425-5.542a.6.6 0 0 0 .163-.31.57.57 0 0 0-.045-.343.6.6 0 0 0-.237-.263.65.65 0 0 0-.35-.093H31.367c-.172 0-.343.034-.501.1s-.3.162-.417.282l-5.419 5.542a.574.574 0 0 0-.115.649c.049.107.13.198.232.262a.65.65 0 0 0 .346.098"/><path fill="#fff" d="M88.897 57.841H75.14v-4.316h17.333v-4.317H75.095a4.7 4.7 0 0 0-1.732.319c-.55.214-1.05.528-1.472.926a4.3 4.3 0 0 0-.989 1.393 4.1 4.1 0 0 0-.353 1.647v4.375c.002.566.122 1.126.352 1.648s.565.996.987 1.395c.422.398.923.713 1.473.928.55.214 1.14.322 1.734.32H88.87v4.316H70.876v4.316h18.021a4.7 4.7 0 0 0 1.732-.319 4.5 4.5 0 0 0 1.472-.926c.423-.398.758-.87.989-1.392a4.1 4.1 0 0 0 .353-1.647v-4.375a4.1 4.1 0 0 0-.352-1.649 4.3 4.3 0 0 0-.987-1.394 4.6 4.6 0 0 0-1.473-.928 4.7 4.7 0 0 0-1.734-.32M115.548 49.208h-13.809a4.7 4.7 0 0 0-1.736.316 4.5 4.5 0 0 0-1.476.925 4.3 4.3 0 0 0-.992 1.394 4.1 4.1 0 0 0-.354 1.65v13.014c.003.567.123 1.127.354 1.65s.568.995.992 1.393c.423.398.925.713 1.476.926a4.7 4.7 0 0 0 1.736.316h13.809a4.7 4.7 0 0 0 1.732-.32 4.6 4.6 0 0 0 1.472-.926c.422-.398.758-.87.988-1.392s.35-1.081.353-1.647V53.493a4.1 4.1 0 0 0-.353-1.647 4.3 4.3 0 0 0-.988-1.393 4.6 4.6 0 0 0-1.472-.926 4.7 4.7 0 0 0-1.732-.319m-.034 17.267h-13.742v-12.95h13.736zM163.913 49.208h-13.469a4.7 4.7 0 0 0-1.732.32c-.55.213-1.05.528-1.472.926a4.3 4.3 0 0 0-.988 1.392 4.1 4.1 0 0 0-.354 1.647v17.299h4.592v-7.09h13.408v7.09h4.592v-17.3a4.1 4.1 0 0 0-.357-1.653 4.3 4.3 0 0 0-.996-1.396 4.5 4.5 0 0 0-1.482-.924 4.7 4.7 0 0 0-1.742-.31m-.033 10.177h-13.408v-5.86h13.408zM217.529 49.208H204.06a4.7 4.7 0 0 0-1.732.319 4.6 4.6 0 0 0-1.472.926 4.3 4.3 0 0 0-.988 1.393 4.1 4.1 0 0 0-.353 1.647V70.79h4.591v-7.09h13.378v7.09h4.591V53.493a4.1 4.1 0 0 0-.353-1.647 4.3 4.3 0 0 0-.988-1.393 4.6 4.6 0 0 0-1.473-.926 4.7 4.7 0 0 0-1.732-.319m-.045 10.176h-13.408v-5.86h13.408zM190.852 66.475h-1.837l-6.566-15.459a2.9 2.9 0 0 0-1.112-1.312 3.13 3.13 0 0 0-1.692-.496h-4.074a3.1 3.1 0 0 0-1.155.213c-.367.143-.7.353-.982.618a2.9 2.9 0 0 0-.659.93 2.8 2.8 0 0 0-.235 1.097v18.725h4.592V53.525h1.836l6.564 15.458c.228.532.619.987 1.12 1.308.502.32 1.092.49 1.696.489h4.074c.396.002.789-.07 1.155-.213.367-.143.7-.353.982-.618.281-.266.505-.581.658-.93.154-.347.234-.72.236-1.098V49.208h-4.601zM128.741 49.208h-4.592v17.299c.003.567.124 1.127.356 1.65s.568.996.991 1.394.926.713 1.478.926c.551.212 1.141.32 1.737.314h13.775v-4.316h-13.745z"/></g></g><defs><clipPath id="a"><path fill="#fff" d="M24.325 46h197.75v28H24.325z"/></clipPath></defs></svg>