<svg xmlns="http://www.w3.org/2000/svg" width="246" height="120" fill="none"><g fill="#fff" clip-path="url(#a)" style="mix-blend-mode:luminosity"><path d="M123.92 44h-8.805c-4.341 0-7.863 3.619-7.863 8.079v22.594h4.628V52.08c0-1.852 1.433-3.324 3.235-3.324h8.805c1.802 0 3.235 1.472 3.235 3.324v22.594h4.628V52.08c0-4.46-3.522-8.079-7.863-8.079"/><path fill-rule="evenodd" d="M57.863 44.757h11.098c4.342 0 7.864 3.618 7.864 8.078v4.755c0 4.46-3.522 8.079-7.864 8.079H57.863c-1.802 0-3.235 1.472-3.235 3.323v5.68H50V52.836c0-4.46 3.522-8.078 7.863-8.078m11.098 16.157c1.802 0 3.236-1.473 3.236-3.324v-4.755c0-1.851-1.434-3.324-3.236-3.324H57.863c-1.802 0-3.235 1.473-3.235 3.324v4.755c0 1.851 1.433 3.324 3.235 3.324zm19.535-16.157h4.628v29.916h-4.628zm102.875 21.837V44.757h4.627v21.837c0 4.46-3.521 8.079-7.863 8.079h-6.47c-4.342 0-7.863-3.619-7.863-8.079V44.757h4.627v21.837c0 1.852 1.434 3.324 3.236 3.324h6.47c1.802 0 3.236-1.472 3.236-3.324m-49.102-21.837v4.754h5.16c1.761.043 3.154 1.515 3.154 3.324v21.838h4.627V52.835c0-1.809 1.393-3.281 3.154-3.324h5.16v-4.754z" clip-rule="evenodd"/></g><defs><clipPath id="a"><path fill="#fff" d="M50 44h146v32H50z"/></clipPath></defs></svg>