<svg xmlns="http://www.w3.org/2000/svg" width="246" height="120" fill="none"><g style="mix-blend-mode:luminosity"><path fill="#fff" d="M51.478 69.898c-5.468 0-9.899-4.432-9.899-9.898 0-5.467 4.433-9.9 9.9-9.9V42c-9.943 0-18 8.058-18 18s8.057 18 18 18c9.94 0 17.999-8.059 17.999-18h-8.1c0 5.466-4.431 9.898-9.898 9.898z"/><path fill="#17E6A1" d="M61.377 50.099h-9.899v9.898h9.9z"/><path fill="#fff" d="M88.834 57.244v5.513h8.693c-.393 1.575-1.17 2.987-2.283 4.115-1.68 1.701-4.007 2.639-6.556 2.639-5.29 0-9.594-4.265-9.594-9.508 0-5.244 4.304-9.51 9.594-9.51 2.834 0 5.438 1.2 7.243 3.273l4.305-3.488a15.3 15.3 0 0 0-11.548-5.301c-8.356 0-15.155 6.738-15.155 15.021S80.332 75.02 88.688 75.02c4.057 0 7.796-1.448 10.532-4.218 2.295-2.323 3.814-5.567 4.108-8.815.144-1.585.154-3.158.071-4.743zM186.21 54.018h-4.98v19.436h4.98zM186.21 46.547h-4.98v4.98h4.98zM200.278 50.38c-6.539 0-11.842 5.301-11.842 11.842s5.303 11.843 11.842 11.843 11.844-5.302 11.844-11.843c0-6.54-5.303-11.842-11.844-11.842m.002 18.834a6.991 6.991 0 1 1 0-13.983 6.991 6.991 0 1 1 0 13.983M141.386 66.917V55.821h5.668V50.97h-5.668v-4.422h-5.025v4.42h-3.027v4.852h3.027v11.819a6.457 6.457 0 0 0 6.458 6.457h4.235v-4.882h-3.371a2.297 2.297 0 0 1-2.297-2.298zM175.376 67.339a3.21 3.21 0 1 0 0 6.423 3.21 3.21 0 0 0 3.211-3.212 3.21 3.21 0 0 0-3.211-3.211M125.064 51.07v1.898a11.82 11.82 0 0 0-8.734-2.512c-5.432.6-9.821 4.992-10.42 10.422-.787 7.144 4.787 13.187 11.77 13.187 2.793 0 5.359-.97 7.384-2.587v1.974h4.853V51.069zm-.489 12.335c-.474 2.896-2.808 5.235-5.705 5.711a6.998 6.998 0 0 1-8.081-8.081c.476-2.897 2.814-5.233 5.713-5.705a7 7 0 0 1 8.075 8.075zM160.38 50.398c-6.473 0-11.791 5.292-11.858 11.8a11.68 11.68 0 0 0 3.392 8.396 11.56 11.56 0 0 0 8.277 3.45c4.286 0 8.238-2.309 10.381-6.03l-4.121-2.38a7.22 7.22 0 0 1-6.26 3.638 6.83 6.83 0 0 1-4.887-2.035c-.852-.86-1.38-1.93-1.689-3.092l-.03-.114h18.386c.197-1.815-.043-3.582-.157-4.265-1.094-5.427-5.904-9.37-11.434-9.37zm-6.407 8.866.065-.13c1.216-2.446 3.645-3.965 6.342-3.965a6.88 6.88 0 0 1 6.234 3.967l.06.128h-12.703z"/></g></svg>