<svg xmlns="http://www.w3.org/2000/svg" width="246" height="120" fill="none"><g clip-path="url(#a)" style="mix-blend-mode:luminosity"><path fill="#fff" d="m59.987 60-3.13 3.145L53.699 60l3.158-3.172zm7.648-7.684 5.39 5.414 3.157-3.171L67.635 46l-8.546 8.586 3.157 3.172zm10.78 4.512L75.283 60l3.157 3.172L81.6 60zm-10.78 10.856-5.389-5.442-3.157 3.172L67.635 74l8.547-8.586-3.157-3.172zm0-4.54 3.158-3.171-3.158-3.145L64.478 60zm33.208.329v-.055c0-2.05-1.089-3.09-2.858-3.773 1.089-.602 2.014-1.586 2.014-3.31v-.054c0-2.406-1.932-3.965-5.035-3.965h-7.105v15.34h7.268c3.457.028 5.716-1.394 5.716-4.183m-4.192-6.563c0 1.149-.925 1.614-2.422 1.614h-3.103V55.27h3.32c1.416 0 2.205.574 2.205 1.585zm.844 6.125c0 1.149-.898 1.668-2.368 1.668h-4.001V61.34h3.892c1.715 0 2.477.629 2.477 1.668zm10.398 4.621v-15.34h-3.376v15.34zm18.073.028V52.316h-3.321v9.461l-7.158-9.46h-3.103v15.34h3.32v-9.735l7.404 9.762zm18.618 0-6.56-15.45h-3.103l-6.56 15.45h3.457l1.388-3.446h6.451l1.389 3.446zm-6.124-6.426h-4.056l2.041-4.977zm22.156 6.426V52.316h-3.321v9.461l-7.158-9.46h-3.103v15.34h3.32v-9.735l7.404 9.762zm17.339-2.489-2.15-2.16c-1.199 1.094-2.26 1.805-4.029 1.805-2.613 0-4.437-2.188-4.437-4.813v-.082c0-2.625 1.851-4.785 4.437-4.785 1.524 0 2.722.656 3.92 1.723l2.15-2.489c-1.415-1.394-3.13-2.378-6.016-2.378-4.681 0-7.975 3.582-7.975 7.93V60c0 4.402 3.348 7.902 7.839 7.902 2.94.028 4.682-1.011 6.261-2.707m14.344 2.461v-2.98h-8.301v-3.227h7.213v-3.008h-7.213v-3.117h8.193v-3.008h-11.514v15.34z"/></g><defs><clipPath id="a"><path fill="#fff" d="M53.7 46h138.6v28H53.7z"/></clipPath></defs></svg>