<svg xmlns="http://www.w3.org/2000/svg" width="246" height="120" fill="none"><g fill="#fff" clip-path="url(#a)" style="mix-blend-mode:luminosity"><path d="M51.4 58.493H38.207v2.89H51.4z"/><path d="M58.01 48h-8.729l2.106 2.897 6.365 1.931a2.75 2.75 0 0 1 1.398.98 2.62 2.62 0 0 1 .523 1.595v9.232c.004.572-.18 1.13-.526 1.594a2.76 2.76 0 0 1-1.395.981l-6.365 1.893L49.281 72h8.73c.868 0 1.728-.165 2.53-.489a6.6 6.6 0 0 0 2.143-1.397 6.4 6.4 0 0 0 1.426-2.09 6.2 6.2 0 0 0 .49-2.462V54.438a6.35 6.35 0 0 0-1.927-4.541A6.72 6.72 0 0 0 58.01 48M31.623 48h8.703l-2.08 2.897-6.365 1.931a2.75 2.75 0 0 0-1.4.98 2.63 2.63 0 0 0-.527 1.595v9.232a2.64 2.64 0 0 0 .53 1.595c.346.463.836.806 1.397.98l6.365 1.893L40.352 72h-8.729a6.72 6.72 0 0 1-4.683-1.886A6.35 6.35 0 0 1 25 65.562V54.438c0-1.708.698-3.345 1.94-4.552A6.72 6.72 0 0 1 31.623 48M171.499 64.738a3.76 3.76 0 0 1-1.2 2.589c-.729.68-1.7 1.06-2.711 1.06s-1.981-.38-2.71-1.06a3.76 3.76 0 0 1-1.201-2.589v-9.154a3.76 3.76 0 0 1 1.201-2.589c.729-.68 1.7-1.06 2.71-1.06s1.982.38 2.711 1.06a3.76 3.76 0 0 1 1.2 2.589v.141h2.994v-.109a6.63 6.63 0 0 0-2.096-4.613 7.02 7.02 0 0 0-4.809-1.894c-1.795 0-3.519.68-4.808 1.894a6.63 6.63 0 0 0-2.096 4.613v9.122c0 1.78.727 3.486 2.021 4.744a7 7 0 0 0 4.88 1.965c1.83 0 3.586-.707 4.88-1.965a6.62 6.62 0 0 0 2.021-4.744v-.122h-2.993zM187.051 54.882a6 6 0 0 0-4.105 1.556 5.68 5.68 0 0 0-1.856 3.884v5.62a5.74 5.74 0 0 0 1.932 3.718 6.06 6.06 0 0 0 3.999 1.498 6.06 6.06 0 0 0 3.999-1.498 5.74 5.74 0 0 0 1.932-3.718v-5.626a5.66 5.66 0 0 0-1.833-3.864 6 6 0 0 0-4.068-1.57m2.934 10.732a2.8 2.8 0 0 1-.86 2.016 2.98 2.98 0 0 1-2.074.836c-.778 0-1.525-.3-2.075-.835a2.81 2.81 0 0 1-.859-2.017V60.65c0-.756.309-1.481.859-2.016a2.98 2.98 0 0 1 2.075-.836c.778 0 1.524.3 2.074.836.551.535.86 1.26.86 2.016zM178.957 48.953h-2.98v22.069h2.98zM96.736 54.882h-2.98v16.14h2.98zM90.775 48.953h-2.98v22.069h2.98zM80.27 48.953h-3.676L70.566 70.99h2.974l1.603-5.859h6.623l1.596 5.794h2.974L80.27 48.966zm.662 13.34h-5.007l2.503-9.142zM204.005 65.916a2.82 2.82 0 0 1-.861 2.021c-.552.536-1.3.838-2.08.838a2.99 2.99 0 0 1-2.079-.838 2.82 2.82 0 0 1-.861-2.02V54.881h-2.987v11.51a4.9 4.9 0 0 0 .548 2.258c.362.7.889 1.307 1.538 1.773a5.2 5.2 0 0 0 2.196.907c.795.131 1.611.078 2.381-.154q.428-.12.821-.329a5.1 5.1 0 0 0 1.238-.869l.133-.122v1.185h3.007V54.88h-2.994zM96.736 48.953h-2.98v2.904h2.98zM106.419 54.863a5.2 5.2 0 0 0-3.589 1.43l-.126.121v-7.46h-2.987v22.068h2.987v-1.185l.126.123a5.2 5.2 0 0 0 2.631 1.332 5.28 5.28 0 0 0 2.95-.302 5.1 5.1 0 0 0 2.287-1.837c.56-.818.859-1.778.861-2.76v-6.534a4.93 4.93 0 0 0-1.507-3.53 5.22 5.22 0 0 0-3.633-1.466m2.193 5.524v5.478c0 .76-.311 1.489-.864 2.026a3 3 0 0 1-2.084.839 3 3 0 0 1-2.084-.84 2.83 2.83 0 0 1-.863-2.025v-5.478c0-.76.311-1.489.863-2.026a3 3 0 0 1 2.084-.84c.782 0 1.532.303 2.084.84.553.537.864 1.266.864 2.026M134.21 54.863a5.2 5.2 0 0 0-3.596 1.43l-.126.121v-7.46h-2.98v22.068h2.98v-1.185l.126.123a5.2 5.2 0 0 0 2.631 1.332 5.28 5.28 0 0 0 2.95-.302 5.1 5.1 0 0 0 2.287-1.837 4.9 4.9 0 0 0 .861-2.76v-6.534a4.93 4.93 0 0 0-1.504-3.529 5.23 5.23 0 0 0-3.629-1.467m2.186 5.524v5.472c0 .76-.31 1.488-.863 2.025a3 3 0 0 1-2.084.84 3 3 0 0 1-2.084-.84 2.82 2.82 0 0 1-.864-2.025v-5.472c0-.76.311-1.489.864-2.026a3 3 0 0 1 2.084-.84c.781 0 1.531.303 2.084.84s.863 1.266.863 2.026M218.013 48.953v7.461l-.125-.122a5.2 5.2 0 0 0-2.631-1.34 5.27 5.27 0 0 0-2.955.3 5.1 5.1 0 0 0-2.288 1.842 4.9 4.9 0 0 0-.856 2.765v6.553c.006.98.308 1.938.87 2.753a5.1 5.1 0 0 0 2.287 1.829 5.3 5.3 0 0 0 2.947.297 5.2 5.2 0 0 0 2.626-1.331l.125-.123v1.185H221V48.953zm0 11.434v5.472c0 .376-.076.748-.224 1.096a2.9 2.9 0 0 1-.639.93 3 3 0 0 1-.956.62 3.02 3.02 0 0 1-2.256 0 3 3 0 0 1-.956-.62 2.9 2.9 0 0 1-.639-.93 2.8 2.8 0 0 1-.224-1.096v-5.472c0-.377.076-.75.224-1.097s.365-.663.639-.93c.274-.265.599-.476.956-.62a3.02 3.02 0 0 1 2.256 0c.358.144.682.355.956.62.274.267.491.583.639.93s.224.72.224 1.097M125.362 60.34a5 5 0 0 0-.059-.566v-.077a5.85 5.85 0 0 0-1.02-2.42 5.8 5.8 0 0 0-1.933-1.695 5.94 5.94 0 0 0-2.498-.707h-.345a6.06 6.06 0 0 0-3.808 1.327 5.77 5.77 0 0 0-2.06 3.386h2.928c.131-.65.49-1.235 1.015-1.656a3 3 0 0 1 1.866-.656c.756.01 1.48.3 2.022.813s.861 1.208.892 1.943v1.352h-4.232a5.22 5.22 0 0 0-3.406 1.228 4.95 4.95 0 0 0-1.716 3.112 4.89 4.89 0 0 0 .833 3.437 5.13 5.13 0 0 0 2.964 2.04h.079l.285.065.358.051h.073q.386.04.775.039a5.8 5.8 0 0 0 1.795-.251 5.1 5.1 0 0 0 2.033-1.191l.132-.123v1.185h2.981v-1.931zm-6.663 3.22h3.663v2.04c0 .753-.27 1.482-.765 2.06a3.33 3.33 0 0 1-1.944 1.108 3 3 0 0 1-.662.077 3.06 3.06 0 0 1-1.51-.412 3 3 0 0 1-.385-.238 3 3 0 0 1-.457-.444l-.033-.04a2.513 2.513 0 0 1-.28-2.719c.22-.432.561-.796.985-1.05a2.7 2.7 0 0 1 1.408-.382zM153.185 60.354a5 5 0 0 0-.059-.566v-.077a5.8 5.8 0 0 0-1.02-2.415 5.8 5.8 0 0 0-1.934-1.694 6 6 0 0 0-2.497-.713h-.345a6.07 6.07 0 0 0-3.805 1.322 5.77 5.77 0 0 0-2.063 3.377h2.921a2.84 2.84 0 0 1 1.1-1.733 3 3 0 0 1 2.009-.579 2.97 2.97 0 0 1 1.894.872 2.8 2.8 0 0 1 .812 1.878v1.352h-4.239a5.22 5.22 0 0 0-3.39 1.245 4.95 4.95 0 0 0-1.699 3.111 4.88 4.88 0 0 0 .839 3.428 5.13 5.13 0 0 0 2.959 2.034h.079l.285.064.358.051h.073q.386.044.775.045a5.8 5.8 0 0 0 1.794-.25 5.2 5.2 0 0 0 2.034-1.192l.132-.122v1.185h2.981v-1.932zm-6.663 3.22h3.656v2.066a3.16 3.16 0 0 1-.765 2.06 3.33 3.33 0 0 1-1.943 1.107 3 3 0 0 1-.663.077 3.06 3.06 0 0 1-1.51-.412 2.5 2.5 0 0 1-.384-.238 3 3 0 0 1-.464-.444v-.039a2.533 2.533 0 0 1 .21-3.382 2.7 2.7 0 0 1 1.863-.77z"/></g><defs><clipPath id="a"><path fill="#fff" d="M25 48h196v24H25z"/></clipPath></defs></svg>