<svg xmlns="http://www.w3.org/2000/svg" width="246" height="180" fill="none"><g style="mix-blend-mode:luminosity"><rect width="244.8" height="180" x=".8" fill="#000" fill-opacity=".04" rx="8"/><g fill="#fff" clip-path="url(#a)"><path d="M153.324 85.43h-2.343a.95.95 0 0 1-.713-.32l-.95-1.074a.742.742 0 0 0-1.117 0l-.816.922c-.266.3-.65.474-1.052.474h-12.822a13.2 13.2 0 0 0-.698 3.281h12.105a.78.78 0 0 0 .563-.24l1.128-1.176a.74.74 0 0 1 .538-.23h.047c.213 0 .417.091.558.252l.95 1.073c.182.204.44.321.714.321h9.881a13.2 13.2 0 0 0-.698-3.281h-5.275zM140.14 95.61a.78.78 0 0 0 .563-.24l1.128-1.176a.74.74 0 0 1 .538-.23h.046c.214 0 .418.09.559.251l.95 1.073c.181.204.44.322.714.322h13.39c.501-1.037.868-2.15 1.087-3.314h-12.852a.95.95 0 0 1-.713-.321l-.95-1.073a.747.747 0 0 0-1.117 0l-.816.921a1.4 1.4 0 0 1-1.052.475h-8.618a13.2 13.2 0 0 0 1.087 3.313h6.056zM149.638 81.846a.78.78 0 0 0 .564-.24l1.127-1.176a.75.75 0 0 1 .538-.23h.047c.213 0 .418.09.559.252l.95 1.073c.181.204.44.321.713.321h2.546a13.27 13.27 0 0 0-10.626-5.309 13.27 13.27 0 0 0-10.626 5.31h14.21zM144.524 98.895h-3.483a.95.95 0 0 1-.713-.322l-.95-1.073a.747.747 0 0 0-1.117 0l-.816.922a1.4 1.4 0 0 1-1.052.474h-.055a13.25 13.25 0 0 0 9.717 4.227c3.836 0 7.29-1.627 9.716-4.227zM87.297 102.263l-2.705-6.568H72.51l-2.704 6.568h-3.127l11.855-24.867 11.89 24.867zm-13.769-9.062h10.01l-5.02-10.594L73.529 93.2M94.74 102.263V77.396h6.92c5.409 0 8.254 2.494 8.254 7.165s-3.02 7.095-8.289 7.095h-3.969v10.607zm2.916-13.206h3.302c4.18 0 6.007-1.37 6.007-4.496s-1.862-4.566-6.007-4.566h-3.302zM120.503 80.065h-8.57v-2.669h20.056v2.67h-8.571v22.197h-2.915zM163.401 97.732l2.511-1.703.194.403c1.544 2.81 3.231 3.934 5.795 3.934 2.845 0 4.847-1.967 4.847-4.356 0-2.248-1.124-3.758-5.62-5.62-5.163-2.142-6.92-4.355-6.92-7.515 0-3.442 2.705-6.147 7.376-6.147 3.442 0 5.795 1.475 7.131 3.864l-2.038 1.405-.597-.14c-1.054-1.651-2.354-2.6-4.567-2.6-2.704 0-4.284 1.51-4.284 3.547 0 1.896 1.018 2.985 5.409 4.987 5.724 2.6 7.13 4.742 7.13 8.184 0 3.758-3.231 6.954-7.833 6.954-3.864 0-6.533-1.476-8.535-5.198z"/></g></g><defs><clipPath id="a"><path fill="#fff" d="M66.192 76h114.016v28H66.192z"/></clipPath></defs></svg>