<svg xmlns="http://www.w3.org/2000/svg" width="246" height="120" fill="none"><g fill="#fff" clip-path="url(#a)" style="mix-blend-mode:luminosity"><path d="M89.664 51.21h7.338a11.5 11.5 0 0 1 5.156 1.07 7.6 7.6 0 0 1 3.312 3.103 9.6 9.6 0 0 1 1.151 4.819 9.76 9.76 0 0 1-1.14 4.849 7.5 7.5 0 0 1-3.302 3.104 11.5 11.5 0 0 1-5.175 1.07h-7.34zm6.875 14.108a5.34 5.34 0 0 0 3.925-1.302 5.3 5.3 0 0 0 1.303-3.925 5.25 5.25 0 0 0-1.303-3.924 5.36 5.36 0 0 0-3.925-1.268h-2.316v10.419zM120.491 63.799h-7.816c.084.682.42 1.309.943 1.756.58.392 1.274.58 1.973.531a6.28 6.28 0 0 0 3.53-1.144l1.153 2.959a7.4 7.4 0 0 1-2.269 1.085 9.2 9.2 0 0 1-2.642.395 8.26 8.26 0 0 1-3.738-.788 5.64 5.64 0 0 1-2.427-2.268 6.8 6.8 0 0 1-.864-3.464 7 7 0 0 1 .798-3.373 5.77 5.77 0 0 1 2.241-2.316 6.4 6.4 0 0 1 3.256-.827 5.53 5.53 0 0 1 4.24 1.736 6.97 6.97 0 0 1 1.622 4.632zm-7.816-2.17h3.951q-.147-2.24-1.973-2.239-1.825 0-1.978 2.238M130.821 56.636h4.461l-5.624 12.589h-3.765l-5.536-12.59h4.776l2.773 7.096zM143.287 56.853h2.822v3.256h-3.039v9.116h-4.559V60.11h-2.171v-3.256h2.325a5.07 5.07 0 0 1 1.737-3.877 8.26 8.26 0 0 1 4.839-1.482l1.567-.097.26 3.227-1.207.048a4.2 4.2 0 0 0-1.997.434 1.46 1.46 0 0 0-.577 1.313zM150.109 68.573a5.75 5.75 0 0 1-2.416-2.276 6.8 6.8 0 0 1-.849-3.462 6.74 6.74 0 0 1 .849-3.452 5.7 5.7 0 0 1 2.405-2.248 8.8 8.8 0 0 1 7.279 0 5.7 5.7 0 0 1 2.408 2.248 6.74 6.74 0 0 1 .849 3.451 6.8 6.8 0 0 1-.849 3.462 5.77 5.77 0 0 1-2.458 2.277 8.63 8.63 0 0 1-7.257 0zm6.046-5.7q0-3.155-2.416-3.155t-2.421 3.156q0 3.156 2.417 3.155 2.415 0 2.418-3.155zM162.607 69.225V51.209h4.559v18.016zM169.771 50.34h4.776v4.125h-4.776zm0 18.854V56.635h4.559v12.59zM179.674 68.573a5.75 5.75 0 0 1-2.417-2.276 6.8 6.8 0 0 1-.848-3.462 6.7 6.7 0 0 1 .848-3.452 5.7 5.7 0 0 1 2.406-2.248 8.79 8.79 0 0 1 7.279 0 5.7 5.7 0 0 1 2.405 2.248 6.74 6.74 0 0 1 .849 3.451 6.8 6.8 0 0 1-.849 3.462 5.77 5.77 0 0 1-2.427 2.277 8.63 8.63 0 0 1-7.257 0zm6.045-5.643q0-3.156-2.416-3.156t-2.416 3.156 2.416 3.156 2.406-3.156zM81.415 61.346c.057 6.41-4.713 11.91-11.06 12.632a4 4 0 0 1-.404.022c-1.264 0-8.093 0-10.616-.102a2.8 2.8 0 0 1-2.25-1.695c.379.166.783.263 1.195.286.868.078 2.4 0 4.492 0 2.225 0 4.63.02 5.783.03a10 10 0 0 0 1.836-.14 13.17 13.17 0 0 0 7.55-4.19 13.8 13.8 0 0 0 3.474-7.612z"/><path d="M80.404 58.59A12.59 12.59 0 0 1 69.04 71.177H58.404A3.04 3.04 0 0 1 55.8 68.14V49.039c0-1.52 1.085-3.039 2.605-3.039h10.854a12.375 12.375 0 0 1 11.146 12.59"/></g><defs><clipPath id="a"><path fill="#fff" d="M55.799 46h134.4v28h-134.4z"/></clipPath></defs></svg>