<svg xmlns="http://www.w3.org/2000/svg" width="246" height="120" fill="none"><g fill="#fff" clip-path="url(#a)" style="mix-blend-mode:luminosity"><path d="M74.405 55.59h-7.89a.61.61 0 0 0-.607.61v7.924c0 .336.272.61.607.61h7.89a.61.61 0 0 0 .607-.61v-7.925a.61.61 0 0 0-.607-.61M65.296 46.444h-7.89a.61.61 0 0 0-.607.61v7.924c0 .337.272.61.607.61h7.89a.61.61 0 0 0 .607-.61v-7.924a.61.61 0 0 0-.607-.61M83.505 46.444h-7.89a.61.61 0 0 0-.607.61v7.924c0 .337.272.61.607.61h7.89a.61.61 0 0 0 .607-.61v-7.924a.61.61 0 0 0-.607-.61M65.296 64.73h-7.89a.61.61 0 0 0-.607.609v7.924c0 .337.272.61.607.61h7.89a.61.61 0 0 0 .607-.61V65.34a.61.61 0 0 0-.607-.61M83.505 64.73h-7.89a.61.61 0 0 0-.607.609v7.924c0 .337.272.61.607.61h7.89a.61.61 0 0 0 .607-.61V65.34a.61.61 0 0 0-.607-.61M108.653 47.778h2.901l5.187 19.707 5.221-19.707h3.242l-6.723 24.609h-3.208l-5.221-19.16-5.187 19.16h-3.208L94.9 47.777h3.379l5.221 19.707zm22.691 24.917c-3.242 0-5.87-1.92-5.87-5.141 0-3.565 2.764-5.038 6.757-5.86l4.334-.892v-.754c0-2.056-1.126-3.222-3.515-3.222-2.252 0-3.583 1.063-4.129 3.05l-2.901-.753c.853-2.913 3.481-5.004 7.132-5.004 3.993 0 6.45 1.953 6.45 5.792v8.74c0 1.165.717 1.542 1.911 1.268v2.468c-2.729.342-4.299-.309-4.675-2.023-1.092 1.405-3.071 2.33-5.494 2.33m5.221-6.41v-3.084l-3.481.754c-2.73.549-4.573 1.303-4.573 3.462 0 1.748 1.263 2.776 3.208 2.776 2.628 0 4.846-1.61 4.846-3.907m11.342-18.507v24.609h-3.071V47.777zm8.199 0v24.609h-3.072V47.777zm12.259 24.985c-4.949 0-8.361-3.804-8.361-9.322 0-5.347 3.378-9.322 8.224-9.322 4.982 0 7.61 3.804 7.61 8.774v1.028h-12.9c.171 3.77 2.321 6.17 5.427 6.17 2.388 0 4.094-1.303 4.641-3.428l2.695.96c-1.091 3.187-3.788 5.14-7.336 5.14m-.171-16.005c-2.594 0-4.539 1.748-5.085 4.798h9.624c-.069-2.536-1.434-4.798-4.539-4.798m11.945 11.344V57.101h-2.764v-2.64h2.764v-5.243h3.037v5.244h4.061V57.1h-4.061v10.522c0 1.884.922 2.227 2.491 2.227.717 0 1.229-.034 1.946-.205v2.639c-.785.171-1.672.274-2.697.274-3.037 0-4.777-1.028-4.777-4.456"/></g><defs><clipPath id="a"><path fill="#fff" d="M56.8 46h132v28h-132z"/></clipPath></defs></svg>