<svg width="245" height="120" viewBox="0 0 245 120" fill="none" xmlns="http://www.w3.org/2000/svg">
<g style="mix-blend-mode:luminosity">
<g clip-path="url(#clip0_3110_27041)">
<path d="M99.1472 35.0252L78.4724 31.1113C78.0819 31.0371 77.6889 31 77.2935 31C76.8981 31 76.5126 31.0371 76.1271 31.1088L55.1438 35.0327C52.2166 35.5816 50.1001 38.0862 50.1001 41.0013V72.4812C50.1001 74.7683 51.4108 76.86 53.4949 77.8985L74.4682 88.3398C75.3536 88.7799 76.3186 89 77.286 89C78.2535 89 79.2384 88.775 80.1287 88.325L100.814 77.9034C102.883 76.8625 104.181 74.7757 104.181 72.501V40.9914C104.181 38.0813 102.072 35.5791 99.1497 35.0252H99.1472ZM99.473 71.4057C99.473 72.632 98.7816 73.7422 97.6674 74.3034L78.7957 83.8102C78.3256 84.0476 77.7984 84.1712 77.2711 84.1712C76.7439 84.1712 76.2266 84.0476 75.7615 83.8176L56.6286 74.2911C55.5069 73.7323 54.8081 72.6197 54.8081 71.3859V42.6677C54.8081 41.1051 55.9472 39.7601 57.514 39.4659L76.6568 35.8857C76.8632 35.8461 77.0722 35.8288 77.2836 35.8288C77.495 35.8288 77.7088 35.8486 77.9153 35.8881L96.7795 39.4584C98.3439 39.7551 99.478 41.1002 99.478 42.6579V71.4081L99.473 71.4057Z" fill="white"/>
<path d="M75.8281 44.0777V57.308H62.7139V44.0777H65.3352V54.6625H67.9591V44.0777H70.5829V54.6625H73.2067V44.0777H75.8281ZM78.4519 44.0777V46.7232H88.9423V49.3688H78.4519V52.0144H88.9423V54.66H78.4519V57.3056H91.5661V44.0752H78.4519V44.0777ZM91.5636 62.6017V59.9561H78.4494V73.1865H91.5636V65.2472H83.6946V67.8928H88.9398V70.5384H81.0708V62.5992H91.5612L91.5636 62.6017ZM75.8281 62.6017V59.9561H62.7139V73.1865H75.8281V65.2472H67.9591V67.8928H73.2042V70.5384H65.3352V62.5992H75.8256L75.8281 62.6017Z" fill="white"/>
<path d="M127.505 36.625V50.3029H113.423V36.625H116.239V47.5658H119.054V36.625H121.872V47.5658H124.687V36.625H127.503H127.505ZM130.32 36.625V39.3596H141.587V42.0942H130.32V44.8288H141.587V47.5634H130.32V50.2979H144.402V36.625H130.32Z" fill="white"/>
<path d="M116.238 72.4338H127.505V69.6992H113.423V83.3746H127.505V75.1684H121.871V77.903H124.689V80.64H116.238V72.4338Z" fill="white"/>
<path d="M161.301 69.6992H158.486H155.668H152.852H150.035H147.219V72.4338V83.3746H150.035V72.4338H152.852V83.3746H155.668V72.4338H158.486V83.3746H161.301V69.6992Z" fill="white"/>
<path d="M178.2 72.4343V69.6973H164.118V69.6997V72.4343V75.1689V77.9035V80.6406V83.3752H166.936H178.2V80.6406H166.936V77.9035H178.2V75.1689H166.936V72.4343H178.2Z" fill="white"/>
<path d="M195.1 72.4343V69.6973H181.018V69.6997V72.4343V75.1689V77.9035H192.284V80.6406H181.018V83.3752H195.1V80.6406V77.9035V75.1689H183.836V72.4343H195.1Z" fill="white"/>
<path d="M141.586 69.6992H130.319V83.3771H133.135V77.9055H141.583V83.3771H144.399V69.6992H141.583H141.586ZM141.586 75.1684H133.137V72.4338H141.586V75.1684Z" fill="white"/>
<path d="M116.239 64.102H124.69V61.3674H121.872V58.6328H127.505V66.839H113.423V53.1611H127.505V55.8957H116.239V64.102Z" fill="white"/>
<path d="M150.035 53.1611H147.219V66.839H150.035V53.1611Z" fill="white"/>
<path d="M141.586 53.1611V64.102H133.137V53.1611H130.319V64.102V66.839H133.137H141.586H144.401V64.102V53.1611H141.586Z" fill="white"/>
<path d="M155.667 64.102V53.1611H152.852V64.102V66.839H155.667H166.934V64.102H155.667Z" fill="white"/>
<path d="M181.015 53.1611H169.749V66.839H181.015L183.833 64.1044V55.8982L181.015 53.1636V53.1611ZM181.015 64.102H172.566V55.8957H181.015V64.102Z" fill="white"/>
</g>
</g>
<defs>
<clipPath id="clip0_3110_27041">
<rect width="145" height="58" fill="white" transform="translate(50.1001 31)"/>
</clipPath>
</defs>
</svg>
