<svg xmlns="http://www.w3.org/2000/svg" width="245" height="120" fill="none"><g fill="#fff" style="mix-blend-mode:luminosity"><path d="M108.302 54.593c0 .813.086 1.472.236 1.956.172.483.387 1.01.688 1.582.107.176.15.352.15.506 0 .22-.129.44-.408.66l-1.354.922a1 1 0 0 1-.559.198c-.215 0-.429-.11-.644-.308a7 7 0 0 1-.774-1.033c-.215-.373-.43-.79-.666-1.296q-2.515 3.033-6.319 3.033c-1.805 0-3.245-.528-4.298-1.583s-1.59-2.461-1.59-4.22c0-1.868.644-3.384 1.955-4.527s3.052-1.714 5.266-1.714c.73 0 1.483.066 2.278.175.795.11 1.612.286 2.471.484v-1.604c0-1.67-.344-2.835-1.01-3.517-.688-.681-1.848-1.01-3.503-1.01-.752 0-1.526.087-2.32.285-.796.198-1.57.44-2.322.747a6 6 0 0 1-.752.286 1.3 1.3 0 0 1-.344.066c-.3 0-.451-.22-.451-.681v-1.078c0-.351.043-.615.15-.769.108-.154.301-.307.602-.461q1.128-.593 2.708-.99c1.053-.285 2.17-.417 3.352-.417 2.558 0 4.428.594 5.631 1.78 1.182 1.187 1.784 2.99 1.784 5.407v7.12zm-8.726 3.34c.71 0 1.44-.131 2.214-.395s1.461-.747 2.042-1.407c.344-.417.601-.879.73-1.406a8 8 0 0 0 .215-1.912v-.923a18 18 0 0 0-1.977-.374 16 16 0 0 0-2.02-.132c-1.44 0-2.493.286-3.202.88-.71.593-1.053 1.428-1.053 2.527 0 1.033.257 1.802.795 2.33.516.549 1.268.813 2.256.813m17.258 2.374c-.387 0-.645-.066-.817-.22-.172-.132-.322-.44-.451-.857l-5.051-16.989c-.129-.44-.193-.725-.193-.879 0-.352.172-.55.516-.55h2.106c.408 0 .688.067.838.22.172.132.301.44.43.858l3.61 14.549 3.353-14.55c.108-.439.236-.725.408-.857.172-.131.473-.22.86-.22h1.719c.409 0 .688.067.86.22.172.132.322.44.408.858l3.396 14.725 3.718-14.725c.129-.44.279-.726.43-.858.172-.131.451-.22.838-.22h1.999c.343 0 .537.177.537.55 0 .11-.022.22-.043.352a3.2 3.2 0 0 1-.151.55l-5.179 16.988q-.193.66-.451.857c-.172.132-.452.22-.817.22h-1.848c-.408 0-.688-.066-.86-.22s-.322-.44-.408-.879l-3.331-14.176-3.31 14.154c-.107.44-.236.726-.408.88-.172.153-.473.22-.86.22zm27.616.594c-1.117 0-2.235-.132-3.31-.396-1.074-.264-1.912-.55-2.471-.88-.344-.197-.58-.417-.666-.615a1.6 1.6 0 0 1-.129-.615v-1.12c0-.462.172-.682.494-.682q.194 0 .387.066c.129.044.322.132.537.22.731.33 1.526.593 2.364.769.86.176 1.698.263 2.558.263 1.354 0 2.407-.241 3.137-.725.731-.483 1.118-1.187 1.118-2.088 0-.615-.193-1.12-.58-1.538s-1.118-.791-2.171-1.143l-3.116-.989c-1.569-.505-2.73-1.253-3.439-2.242-.709-.967-1.074-2.044-1.074-3.187q0-1.384.58-2.44a5.6 5.6 0 0 1 1.547-1.801c.645-.506 1.376-.88 2.235-1.143.86-.264 1.763-.374 2.708-.374.473 0 .967.022 1.44.088.494.066.946.154 1.397.242.43.11.838.22 1.225.352q.58.197.903.395c.301.176.516.352.644.55q.194.263.194.725v1.033c0 .461-.172.703-.494.703-.172 0-.452-.088-.817-.264q-1.837-.857-4.126-.857c-1.225 0-2.192.198-2.859.616-.666.417-1.01 1.055-1.01 1.956 0 .615.215 1.142.645 1.56s1.225.835 2.364 1.209l3.052.989c1.547.505 2.665 1.209 3.331 2.11s.988 1.934.988 3.077c0 .945-.193 1.802-.558 2.55a5.9 5.9 0 0 1-1.569 1.933c-.666.55-1.462.945-2.386 1.231-.967.308-1.977.462-3.073.462"/><path fill-rule="evenodd" d="M148.512 71.583c-7.071 5.34-17.344 8.176-26.176 8.176-12.379 0-23.533-4.682-31.958-12.462-.666-.615-.064-1.45.73-.967 9.113 5.407 20.353 8.681 31.98 8.681 7.844 0 16.462-1.67 24.392-5.099 1.182-.55 2.192.792 1.032 1.67" clip-rule="evenodd"/><path fill-rule="evenodd" d="M151.457 68.153c-.903-1.186-5.975-.571-8.274-.285-.688.088-.795-.528-.172-.99 4.04-2.9 10.681-2.065 11.455-1.098.773.989-.215 7.78-3.998 11.033-.58.505-1.139.242-.881-.418.86-2.176 2.773-7.077 1.87-8.242" clip-rule="evenodd"/></g></svg>