<svg xmlns="http://www.w3.org/2000/svg" width="245" height="120" fill="none"><g fill="#fff" style="mix-blend-mode:luminosity"><path d="m67.429 62.177-12.666-7.73 5.338-2.958 12.312 7.44v15.016L59.45 81l-12.457-7.591v-6.14l12.785 7.753 7.65-4.167z"/><path d="M72.44 46.613V52.8L59.539 45l-7.645 4.156v8.66l12.628 7.71-5.376 2.92-12.204-7.404V46.048L59.844 39zM99.837 49.48v3.5a26.3 26.3 0 0 0-6.58-2.15c-4.979-.877-8.963 3.489-9.678 7.317a8.51 8.51 0 0 0 6.839 9.79c3.01.494 5.876-.27 8.601-1.533.377-.177.689-.537 1.216-.446v3.258c-3.656 1.516-7.323 2.796-11.409 1.688-5.79-1.559-9.252-6.64-8.601-12.747.634-5.913 5.07-10.214 10.93-10.548 3.009-.168 6.009.478 8.682 1.871M116.541 63.244c0 4.301-3.456 7.58-7.903 7.565a7.57 7.57 0 0 1-7.245-4.599 7.55 7.55 0 0 1 0-5.92 7.57 7.57 0 0 1 4.264-4.108 7.6 7.6 0 0 1 2.981-.491c4.463-.032 7.909 3.28 7.903 7.553m-2.822 0a4.92 4.92 0 0 0-3.103-4.493 4.9 4.9 0 0 0-1.886-.345 4.99 4.99 0 0 0-4.668 3.003 5 5 0 0 0-.413 1.905 4.952 4.952 0 0 0 5.119 4.742 4.875 4.875 0 0 0 4.951-4.822zM165.312 70.806c-4.42 0-7.85-3.344-7.833-7.634 0-4.178 3.499-7.495 7.859-7.479 4.361.017 7.871 3.355 7.893 7.527s-3.522 7.586-7.919 7.586m0-2.742a4.84 4.84 0 0 0 4.353-3.108 4.85 4.85 0 0 0-1.171-5.22 4.837 4.837 0 0 0-8.188 3.527 4.89 4.89 0 0 0 1.499 3.45 4.865 4.865 0 0 0 3.512 1.35zM198.249 63.47h-10.151a4.3 4.3 0 0 0 3.931 4.839c2.15.145 4.032-.581 5.913-1.78v2.764a9.05 9.05 0 0 1-8.473 1.311 6.08 6.08 0 0 1-3.865-4.026 10.36 10.36 0 0 1-.296-5.941c.984-4.022 4.403-5.715 8.269-5.07a4.5 4.5 0 0 1 3.107 2.097 9.97 9.97 0 0 1 1.565 5.806m-10.215-1.752h7.183c-.146-2.221-1.275-3.613-2.995-3.764-2.043-.14-3.494 1.118-4.199 3.764zM126.277 70.712h-2.898V55.82c.865-.269 1.785-.102 2.688-.097.457.5 0 1.124.414 1.704a5.75 5.75 0 0 1 3.252-1.919c2.775-.57 5.651 1.22 5.828 4.027.226 3.704.054 7.43.054 11.166-.904.114-1.818.132-2.726.054-.333-.36-.209-.764-.209-1.135v-7.833a12 12 0 0 0-.172-2.043 2.32 2.32 0 0 0-1.861-1.908c-1.903-.468-4.343 1.42-4.343 3.355zM137.211 69.481v-2.73c.941.402 1.822.784 2.715 1.155a4.03 4.03 0 0 0 3.226 0c1.075-.468 1.252-1.414.403-2.236a8.5 8.5 0 0 0-1.995-1.36 13 13 0 0 1-2.505-1.56 4.255 4.255 0 0 1-1.425-4.51 4.4 4.4 0 0 1 3.93-2.833 7.84 7.84 0 0 1 4.731 1.397v2.688c-.844-.107-1.478-.645-2.215-.919s-1.489-.64-2.349-.376a1.546 1.546 0 0 0-1.226 1.172 1.33 1.33 0 0 0 .677 1.414c.705.489 1.425.951 2.151 1.403.813.471 1.585 1.01 2.306 1.613 1.183 1.048 1.785 2.274 1.312 3.887a3.96 3.96 0 0 1-3.005 2.865c-2.382.64-4.532-.107-6.731-1.07"/><path d="M149.75 58.485h-2.994l5.844-5.42v2.549h4.763v2.855h-4.726c.086 2.8-.188 5.526.162 8.236.166 1.306 1.075 1.838 2.419 1.693a6.45 6.45 0 0 0 2.774-1.258v2.42c-1.693 1.575-5.016 1.71-6.833.236a3.66 3.66 0 0 1-1.409-3.027c.006-2.699 0-5.392 0-8.284M184.071 59.876c-.296-.328-.446-.538-.634-.699-1.576-1.376-2.86-1.28-4.156.344-.986 1.08-1.43 2.529-1.462 3.962.032 4.238.032 4.77.032 7.22-.968.133-1.949.142-2.919.027V55.77h2.774c.355.822 0 1.736.231 2.688 1.145-1.032 2.016-2.446 3.613-2.688a4.76 4.76 0 0 1 4.166 1.451zM117.656 55.749h2.834v14.94c-.938.15-1.891.17-2.834.06zM120.883 51.338a1.75 1.75 0 0 1-.531 1.27 1.74 1.74 0 0 1-1.286.488 1.717 1.717 0 0 1-1.785-1.785 1.8 1.8 0 0 1 .537-1.27 1.8 1.8 0 0 1 1.965-.375 1.8 1.8 0 0 1 1.1 1.672"/></g></svg>