<svg xmlns="http://www.w3.org/2000/svg" width="245" height="120" fill="none"><g fill="#fff" style="mix-blend-mode:luminosity"><path d="m80.566 61.659-9.65-5.89 4.067-2.253 9.38 5.669v11.44L74.487 76l-9.49-5.784v-4.678l9.74 5.907 5.829-3.175z"/><path d="M84.383 49.8v4.715l-9.83-5.944-5.825 3.167v6.599l9.622 5.874-4.097 2.224-9.298-5.64V49.37l9.83-5.37zM105.256 51.985v2.666a20 20 0 0 0-5.013-1.638c-3.793-.668-6.829 2.658-7.374 5.575a6.485 6.485 0 0 0 5.21 7.459c2.295.377 4.478-.205 6.555-1.168.286-.135.524-.41.925-.34v2.483c-2.785 1.155-5.579 2.13-8.692 1.286-4.411-1.188-7.05-5.059-6.554-9.712.484-4.506 3.863-7.783 8.328-8.037 2.293-.128 4.579.364 6.615 1.425M117.984 62.472c0 3.277-2.633 5.776-6.021 5.763a5.76 5.76 0 0 1-5.521-3.503 5.77 5.77 0 0 1 0-4.511 5.764 5.764 0 0 1 5.521-3.504c3.4-.025 6.025 2.499 6.021 5.755m-2.15 0a3.76 3.76 0 0 0-1.137-2.63 3.74 3.74 0 0 0-2.664-1.056 3.81 3.81 0 0 0-3.557 2.288 3.8 3.8 0 0 0-.314 1.451 3.77 3.77 0 0 0 3.899 3.613 3.71 3.71 0 0 0 3.473-2.252c.193-.45.295-.933.3-1.422zM155.144 68.233c-3.367 0-5.98-2.548-5.968-5.816 0-3.183 2.666-5.71 5.988-5.698s5.997 2.556 6.014 5.734c.016 3.18-2.683 5.78-6.034 5.78m0-2.089a3.687 3.687 0 1 0-3.814-3.658 3.72 3.72 0 0 0 1.142 2.63 3.72 3.72 0 0 0 2.676 1.028zM180.237 62.645h-7.734a3.28 3.28 0 0 0 1.727 3.32c.394.207.825.332 1.268.366 1.638.11 3.072-.442 4.505-1.356v2.106a6.9 6.9 0 0 1-6.455 1 4.64 4.64 0 0 1-2.945-3.069 7.9 7.9 0 0 1-.226-4.526c.75-3.064 3.355-4.354 6.3-3.863a3.43 3.43 0 0 1 2.368 1.598 7.6 7.6 0 0 1 1.192 4.424m-7.783-1.336h5.473c-.111-1.691-.971-2.752-2.282-2.867-1.557-.107-2.662.852-3.199 2.867zM125.403 68.163h-2.208V56.816c.66-.205 1.36-.078 2.048-.074.349.381 0 .857.316 1.299a4.38 4.38 0 0 1 2.478-1.462c2.114-.435 4.305.93 4.44 3.068.172 2.822.041 5.66.041 8.507-.689.087-1.385.1-2.077.041-.254-.274-.159-.581-.159-.864v-5.968a9 9 0 0 0-.131-1.557 1.765 1.765 0 0 0-1.418-1.454c-1.45-.356-3.309 1.082-3.309 2.556zM133.732 67.225v-2.08c.717.306 1.389.597 2.069.88a3.07 3.07 0 0 0 2.458 0c.819-.357.954-1.077.307-1.704a6.5 6.5 0 0 0-1.52-1.036 10 10 0 0 1-1.909-1.188 3.247 3.247 0 0 1-1.085-3.437 3.35 3.35 0 0 1 2.994-2.159 5.97 5.97 0 0 1 3.605 1.065v2.048c-.643-.081-1.127-.491-1.688-.7s-1.134-.488-1.79-.287a1.17 1.17 0 0 0-.934.893 1.01 1.01 0 0 0 .516 1.077c.537.373 1.086.725 1.639 1.07.619.358 1.207.77 1.757 1.228.901.8 1.36 1.733 1 2.962a3.03 3.03 0 0 1-2.29 2.183c-1.815.488-3.453-.082-5.129-.815"/><path d="M143.287 58.846h-2.281l4.452-4.13v1.942h3.63v2.175h-3.601c.066 2.135-.143 4.211.123 6.276.127.995.819 1.4 1.843 1.29a4.9 4.9 0 0 0 2.114-.958v1.843c-1.29 1.2-3.822 1.302-5.206.18a2.78 2.78 0 0 1-1.074-2.306c.004-2.056 0-4.108 0-6.312M169.436 59.906c-.225-.25-.34-.41-.483-.533-1.2-1.048-2.179-.975-3.167.262-.751.822-1.089 1.927-1.114 3.019.025 3.23.025 3.633.025 5.501-.738.101-1.485.108-2.224.02V56.777h2.113c.271.627 0 1.323.176 2.048.873-.786 1.536-1.864 2.753-2.048a3.63 3.63 0 0 1 3.175 1.106zM118.834 56.76h2.159v11.384a7.9 7.9 0 0 1-2.159.045zM121.292 53.4a1.33 1.33 0 0 1-.404.968 1.32 1.32 0 0 1-.98.371 1.3 1.3 0 0 1-.978-.381 1.31 1.31 0 0 1-.382-.978 1.37 1.37 0 0 1 1.382-1.362 1.374 1.374 0 0 1 1.362 1.382"/></g></svg>