<svg xmlns="http://www.w3.org/2000/svg" width="246" height="120" fill="none"><g fill="#fff" clip-path="url(#a)" style="mix-blend-mode:luminosity"><path d="M122.51 49.043h-7.324v19.294h-1.799V49.042h-7.305v-1.48h16.428zM129.276 68.643c-2.62.038-5.03-1.393-6.193-3.68a8.2 8.2 0 0 1-.908-3.88v-.614a8.9 8.9 0 0 1 .89-4.007 6.8 6.8 0 0 1 2.466-2.798 6.33 6.33 0 0 1 3.43-1.028c1.928 0 3.449.631 4.58 1.913 1.131 1.281 1.687 3.032 1.687 5.252v.957h-11.329v.325c0 1.75.519 3.212 1.539 4.368a4.98 4.98 0 0 0 3.894 1.75 5.7 5.7 0 0 0 2.484-.505 5.4 5.4 0 0 0 1.966-1.606l1.094.812c-1.261 1.82-3.134 2.741-5.6 2.741m-.315-14.565a4.47 4.47 0 0 0-3.337 1.408c-.909.938-1.447 2.202-1.651 3.79h9.512v-.18c-.055-1.48-.482-2.69-1.298-3.628s-1.891-1.39-3.226-1.39M140.419 66.911h10.309v1.444H138.25v-1.263l9.623-12.707h-9.326v-1.48h11.532v1.282zM153.251 60.395a8.9 8.9 0 0 1 .89-4.006 6.73 6.73 0 0 1 2.503-2.78 6.8 6.8 0 0 1 3.671-.993c2.114 0 3.82.722 5.136 2.166s1.966 3.357 1.966 5.74v.36a8.9 8.9 0 0 1-.89 4.026 6.56 6.56 0 0 1-2.503 2.763 6.96 6.96 0 0 1-3.672.975c-2.095 0-3.819-.722-5.135-2.166-1.317-1.444-1.966-3.357-1.966-5.74zm1.762.47c0 1.84.5 3.357 1.464 4.548s2.262 1.769 3.857 1.769c1.5.034 2.929-.621 3.856-1.769.983-1.191 1.465-2.743 1.465-4.693v-.325a7.9 7.9 0 0 0-.667-3.248 5.3 5.3 0 0 0-1.891-2.274 4.9 4.9 0 0 0-2.782-.813 4.8 4.8 0 0 0-3.838 1.787c-.982 1.191-1.483 2.762-1.483 4.693zM180.543 64.422a2.39 2.39 0 0 0-1.057-2.04c-.704-.505-1.742-.92-3.17-1.21a15 15 0 0 1-3.282-.992c-.779-.379-1.353-.83-1.724-1.371a3.4 3.4 0 0 1-.575-1.968c0-1.227.519-2.22 1.576-3.014s2.392-1.191 4.023-1.191c1.762 0 3.19.433 4.265 1.281a4.06 4.06 0 0 1 1.613 3.34h-1.761A2.75 2.75 0 0 0 179.283 55c-.779-.596-1.762-.902-2.949-.902-1.149 0-2.076.252-2.781.74a2.3 2.3 0 0 0-1.057 1.949c-.035.7.293 1.37.872 1.787.575.415 1.65.812 3.189 1.173s2.688.722 3.467 1.119c.684.332 1.272.83 1.706 1.444 1.038 1.733.584 3.95-1.057 5.162-1.075.776-2.484 1.173-4.227 1.173-1.854 0-3.356-.433-4.487-1.3-1.131-.866-1.725-1.967-1.725-3.302h1.762a2.97 2.97 0 0 0 1.298 2.328c.797.56 1.854.83 3.17.83 1.224 0 2.207-.27 2.967-.776q1.112-.815 1.112-2.003M93.121 69.51c-.426-7.346-9.92-10.685-10.828-11.028-.037-.018-.037-.054-.018-.09l9.79-9.566v-1.029a.32.32 0 0 0-.316-.307H73.71V40l-6.657 1.354v.974h.371s1.632 0 1.632 1.589v3.555H63.9a.2.2 0 0 0-.185.18v2.257h5.358v12.255c0 3.844 2.54 6.516 6.99 6.155a5.6 5.6 0 0 0 2.559-.903c.336-.21.538-.568.538-.956v-1.21c-1.447.939-2.67.885-2.67.885-2.818 0-2.763-3.484-2.763-3.484V49.91h12.979l-9.345 9.169c-.018 1.209-.037 2.147-.037 2.166-.004.027.017.05.045.054h.01c8.567 1.407 10.884 6.804 10.884 8.374 0 0 .927 7.635-6.915 8.159 0 0-5.136.216-6.045-1.787a.13.13 0 0 1 .063-.175l.011-.006a2.26 2.26 0 0 0 1.428-2.112c0-1.48-.927-2.689-2.874-2.689-1.576 0-2.874 1.21-2.874 2.69 0 0-.742 6.425 10.272 6.244C93.9 79.78 93.121 69.51 93.121 69.51"/></g><defs><clipPath id="a"><path fill="#fff" d="M63.715 40h118.57v40H63.716z"/></clipPath></defs></svg>