<svg xmlns="http://www.w3.org/2000/svg" width="245" height="120" fill="none"><g fill="#fff" style="mix-blend-mode:luminosity"><path d="M68.86 62.822h-1.75c-1.05 0 2.528 5.016 5.114 5.58.584.117.875.409.875.972v3.675c-.02.7-.427 1.031-1.108.934-4.939-.817-8.536-3.461-10.772-7.953a10.4 10.4 0 0 1-.778-2.003c-.37-1.147-.409-1.206-1.634-1.244-1.516-.04-2.508-.817-2.839-2.198-.369-1.555.856-3.189 2.49-3.286.233-.02.447-.02.68 0 .7.059 1.07-.33 1.245-.953a14.4 14.4 0 0 1 2.022-4.355c.758-1.109 1.147-1.148 2.1-.234.72.7 1.42 1.44 2.139 2.14.466.447.583.933.175 1.477a5.6 5.6 0 0 0-.545.933c-.33.681-.155.973.603.973 1.322.02 2.625 0 3.967 0 1.4.02 2.43.875 2.761 2.275.253 1.128-.37 2.508-1.575 2.955-.7.273-1.536.234-2.314.292-.272.039-.564.02-.856.02M74.694 46.002c4.57.195 8.595 2.45 11.356 6.864.953 1.537.68 2.956-.68 3.792-1.459.934-3.092.545-4.006-.933-1.38-2.236-3.325-3.656-5.911-4.142a8.52 8.52 0 0 0-5.99 1.128c-.816.505-1.069.447-1.75-.233L65.537 50.3c-.622-.661-.603-1.109.136-1.653 2.314-1.692 5.483-2.703 9.022-2.645m.195 25.2v-1.866a.78.78 0 0 1 .68-.855c2.606-.545 4.531-2.003 5.892-4.259.603-1.011 1.556-1.4 2.683-1.225 1.031.156 1.828.68 2.276 1.653.291.642.252 1.38-.078 2.003a13.92 13.92 0 0 1-10.325 7.292c-.759.097-1.109-.175-1.128-.934-.02-.583 0-1.186 0-1.808M96.355 54.384v12.58h-2.392v-12.58h-3.889V52.38h10.131v2.003zM100.205 62.258a4.2 4.2 0 0 1 .408-1.945 4.7 4.7 0 0 1 1.128-1.633 4.9 4.9 0 0 1 1.672-1.07 5.43 5.43 0 0 1 3.987 0 4.7 4.7 0 0 1 1.672 1.128c.486.467.875 1.031 1.128 1.653a5 5 0 0 1 .019 3.89 4.7 4.7 0 0 1-1.128 1.632 5.23 5.23 0 0 1-3.733 1.498 5.4 5.4 0 0 1-1.984-.37 4.8 4.8 0 0 1-1.672-1.108 5.1 5.1 0 0 1-1.128-1.653 6.4 6.4 0 0 1-.369-2.022m8.147.039a3.08 3.08 0 0 0-.855-2.236 2.71 2.71 0 0 0-2.081-.895c-.797 0-1.536.33-2.08.895a3.31 3.31 0 0 0 0 4.452 2.853 2.853 0 0 0 4.025.137c.039-.04.097-.078.136-.137.583-.602.875-1.4.855-2.216M112.941 67.003v-15.46h2.159v9.918l3.966-3.928h2.664l-4.277 4.161 4.705 5.29h-2.819l-4.259-4.881v4.88h-2.158v.02zM122.373 62.258c-.02-.68.117-1.342.408-1.945a4.7 4.7 0 0 1 1.128-1.633 4.9 4.9 0 0 1 1.672-1.07 5.43 5.43 0 0 1 3.986 0 4.7 4.7 0 0 1 1.673 1.128c.486.467.875 1.031 1.128 1.653a5 5 0 0 1 .019 3.89 4.7 4.7 0 0 1-1.128 1.632 5.23 5.23 0 0 1-3.733 1.498 5.4 5.4 0 0 1-1.984-.37 4.8 4.8 0 0 1-1.672-1.108 5.1 5.1 0 0 1-1.128-1.653 5.9 5.9 0 0 1-.369-2.022m8.128.039a3.08 3.08 0 0 0-.856-2.236 2.7 2.7 0 0 0-2.08-.895c-.798 0-1.536.33-2.081.895a3.353 3.353 0 0 0 0 4.452 2.853 2.853 0 0 0 4.025.137c.039-.04.097-.078.136-.137.584-.602.895-1.4.856-2.216M142.147 60.236A2.8 2.8 0 0 0 141 59.42a3.3 3.3 0 0 0-1.42-.292c-.875 0-1.613.272-2.138.855-.526.584-.798 1.323-.798 2.275 0 .953.272 1.75.798 2.334.525.583 1.283.855 2.236.855.486.02.972-.097 1.4-.291a3 3 0 0 0 1.069-.895v2.509a5.2 5.2 0 0 1-1.283.505 6 6 0 0 1-1.459.175c-1.477 0-2.683-.486-3.636-1.42s-1.38-2.177-1.38-3.694.486-2.76 1.458-3.675c.972-.914 2.236-1.4 3.792-1.4.466 0 .914.039 1.361.156.408.097.797.252 1.147.447zm4.375-1.205a2.9 2.9 0 0 1 .934-1.381 2.2 2.2 0 0 1 1.419-.447c.311 0 .603.039.895.097.311.078.602.195.875.33l-.778 1.828a1.7 1.7 0 0 0-.603-.291 1.8 1.8 0 0 0-.72-.098c-.719 0-1.225.273-1.555.856-.331.583-.486 1.556-.486 2.917v4.161h-2.159v-9.47h2.159v1.498z"/><path d="M153.523 71.436h-2.236l2.606-5.27-3.481-8.652h2.411l1.731 4.88.272.895c.078.31.136.622.175.952.175-.544.37-1.07.622-1.575l.059-.116 2.333-5.036h2.353zm7.992 0V57.533h2.158v1.556a2.8 2.8 0 0 1 1.206-1.381c.603-.35 1.283-.506 1.983-.506a3.77 3.77 0 0 1 3.053 1.4c.778.934 1.167 2.159 1.167 3.656 0 1.575-.37 2.839-1.147 3.753-.778.914-1.828 1.361-3.15 1.361a3.54 3.54 0 0 1-3.131-1.614v5.678zm2.1-9.197c0 .972.253 1.75.72 2.352a2.44 2.44 0 0 0 1.925.875c.816 0 1.458-.272 1.905-.816.447-.545.681-1.323.681-2.334 0-1.01-.234-1.77-.7-2.333a2.45 2.45 0 0 0-1.925-.856c-.817 0-1.459.273-1.906.837-.447.563-.7 1.302-.7 2.275m10.306 4.764v-7.565h-1.653v-1.905h1.653v-3.578h2.158v3.578h1.653v1.905h-1.653v7.564zm4.997-4.745a4.4 4.4 0 0 1 .409-1.945 5 5 0 0 1 2.78-2.702 5.43 5.43 0 0 1 3.986 0 4.7 4.7 0 0 1 1.673 1.128 4.8 4.8 0 0 1 1.127 1.652 5 5 0 0 1 .02 3.89 4.7 4.7 0 0 1-1.128 1.633c-.992.972-2.333 1.497-3.733 1.497a5.4 5.4 0 0 1-1.984-.37 4.8 4.8 0 0 1-1.672-1.108 5.1 5.1 0 0 1-1.128-1.653c-.233-.66-.369-1.341-.35-2.022m8.148.039a3.1 3.1 0 0 0-.875-2.236 2.71 2.71 0 0 0-2.081-.895c-.797 0-1.536.33-2.081.895a3.355 3.355 0 0 0 0 4.453 2.853 2.853 0 0 0 4.025.136c.039-.04.098-.078.137-.136.563-.603.875-1.4.875-2.217"/></g></svg>