<svg xmlns="http://www.w3.org/2000/svg" width="246" height="120" fill="none"><g fill="#fff" style="mix-blend-mode:luminosity"><path d="M43.622 53.088a10.46 10.46 0 0 0-6.867-2.16c-1.962 0-4.31.298-4.31 2.552 0 1.665 1.964 2.451 4.904 3.53 3.432 1.275 7.454 2.942 7.454 7.748 0 7.649-8.14 8.63-11.965 8.63a25 25 0 0 1-6.277-.687c-1.77-.492-2.16-1.276-2.16-3.63v-2.843a14.4 14.4 0 0 0 7.647 2.06c3.14 0 4.707-.884 4.707-2.843 0-1.863-1.665-2.55-6.08-4.217-3.04-1.186-6.275-2.747-6.275-7.16 0-6.475 7.354-8.14 11.77-8.14a16.3 16.3 0 0 1 6.177 1.078c1.178.594 1.275 1.275 1.275 2.844zm23.338-6.082h8.24c-.298 2.646-.393 6.865-.393 10.983v3.628c-.049 3.671.15 7.34.594 10.985H70.69c-1.765 0-2.65-.595-2.944-1.765a11.8 11.8 0 0 1-7.16 2.355c-8.824 0-9.905-5.297-9.905-9.22v-7.158c.034-3.276-.13-6.55-.49-9.806h4.903c2.255 0 3.335 1.371 3.335 3.628v10.4c0 4.12.395 7.258 5.497 7.258a9.2 9.2 0 0 0 3.335-.594v-9.212c0-3.237-.099-8.827-.298-11.473m24.323 25.597h-8.24c.297-2.648.392-6.864.392-10.984V57.99c.098-3.67-.101-7.343-.595-10.982h4.707c1.765 0 2.648.594 2.94 1.763a11.8 11.8 0 0 1 7.167-2.353c8.828 0 9.904 5.295 9.904 9.212v7.161c-.033 3.276.131 6.55.49 9.806h-4.904c-2.256 0-3.335-1.374-3.335-3.63v-10.4c0-4.12-.392-7.258-5.497-7.258a9.2 9.2 0 0 0-3.335.594v9.212c0 3.238 0 8.827.297 11.476M131.294 47.006c1.54.008 3.079-.092 4.606-.297a33 33 0 0 1-1.177 3.724c-.688 1.471-1.571 1.962-5.001 1.962h-2.942v8.727c0 3.238.097 8.827.391 11.476h-8.335c.297-2.649.392-8.24.392-11.476v-8.721h-2.545a11.5 11.5 0 0 0-5.201.882v-2.648c0-2.256.394-3.63 3.629-3.63zm32.265 12.553c0 8.533-4.903 13.828-13.73 13.828s-13.337-4.805-13.337-13.532c0-8.633 4.804-13.635 13.632-13.635 8.829 0 13.435 4.708 13.435 13.339m-19.513.098c0 5.884 2.058 8.531 6.08 8.531 3.924 0 5.884-2.647 5.884-8.53 0-5.885-1.962-8.632-5.884-8.632-4.021 0-6.08 2.747-6.08 8.631M190.823 74.075c-3.137 0-3.825-1.178-5.786-4.022-1.079-1.569-4.512-7.354-5.099-8.533-.297-.594-.392-1.077.194-1.374 2.552-1.471 3.14-3.04 3.14-4.805 0-2.058-.785-3.824-3.726-3.824a7.4 7.4 0 0 0-2.256.297v9.316c0 3.237.098 8.827.392 11.476h-8.035c.298-2.551.393-6.866.393-10.985v-3.63c.099-3.671-.1-7.345-.595-10.985 3.826 0 8.925-.195 11.377-.195 4.309 0 10.004.883 10.004 7.355a7.03 7.03 0 0 1-3.334 6.176c-.393.297-.393.492 0 1.082a98 98 0 0 0 9.121 11.963 29.3 29.3 0 0 1-5.787.687m20.888-8.925v.594a51 51 0 0 0 .391 6.866h-8.335c.283-2.278.414-4.571.392-6.866v-.594a8.5 8.5 0 0 0-1.178-3.921c-1.862-3.728-5.981-10.887-9.509-14.126 1.825-.2 3.661-.3 5.497-.297 3.235 0 4.215 1.08 5.001 2.354a91 91 0 0 1 4.305 8.733 89 89 0 0 1 4.215-8.63 4.89 4.89 0 0 1 4.606-2.45q2.459.016 4.903.296c-2.55 2.257-7.356 10.2-9.315 13.83a7.8 7.8 0 0 0-.982 4.216"/></g></svg>