<svg xmlns="http://www.w3.org/2000/svg" width="245" height="120" fill="none"><g clip-path="url(#a)" style="mix-blend-mode:luminosity"><path fill="#fff" d="M106.57 54.848c-.503-1.925-1.771-3.334-4.252-3.334-3.66 0-5.19 3.168-5.19 6.384 0 3.215 1.53 6.385 5.19 6.385 2.658 0 4.114-1.948 4.351-4.39h2.918c-.239 4.014-3.132 6.782-7.263 6.782-5.118 0-8.18-3.99-8.18-8.78 0-4.788 3.051-8.786 8.169-8.786 3.85.023 6.886 2.113 7.246 5.728zM111.354 60.19c0-3.71 2.271-6.384 6.241-6.384s6.241 2.674 6.241 6.383-2.271 6.41-6.241 6.41-6.241-2.677-6.241-6.41m9.755 0c0-2.088-1.075-4.272-3.514-4.272s-3.515 2.183-3.515 4.271 1.075 4.297 3.515 4.297c2.439 0 3.514-2.184 3.514-4.297M126.18 49.509h2.726v2.535h-2.726zm0 4.625h2.726V66.27h-2.726zM131.871 54.135h2.583v1.784l.048.047a4.4 4.4 0 0 1 1.63-1.588 4.5 4.5 0 0 1 2.221-.573c2.679 0 4.376 1.408 4.376 4.13v8.334h-2.726v-7.628c-.048-1.901-.814-2.722-2.415-2.722-1.818 0-2.99 1.407-2.99 3.191v7.16h-2.727zM160.88 66.27h-1.913l-.453-1.971c-1.595 1.784-3.062 2.37-5.138 2.37-5.114.003-8.183-3.996-8.183-8.78s3.069-8.78 8.18-8.78c3.72 0 6.863 1.948 7.316 5.728h-2.918c-.287-2.206-2.246-3.333-4.398-3.333-3.66 0-5.191 3.168-5.191 6.383s1.531 6.385 5.191 6.385c3.059.047 4.733-1.76 4.783-4.6h-4.544v-2.228h7.263zM165.881 60.893c0 1.903 1.052 3.593 3.323 3.593 1.579 0 2.535-.682 3.012-2.019h2.585c-.598 2.652-2.893 4.132-5.597 4.132-3.872 0-6.05-2.654-6.05-6.386 0-3.451 2.303-6.407 5.979-6.407 3.898 0 6.289 3.45 5.836 7.087zm6.361-1.76c-.095-1.69-1.268-3.215-3.109-3.215-1.89 0-3.18 1.407-3.252 3.216zM185.396 58.195c-.216-1.48-1.317-2.277-2.822-2.277-1.418 0-3.396.727-3.396 4.412 0 2.019.908 4.156 3.275 4.156 1.579 0 2.679-1.033 2.943-2.77h2.726c-.503 3.146-2.48 4.883-5.669 4.883-3.874 0-6.002-2.7-6.002-6.27 0-3.661 2.034-6.523 6.098-6.523 2.87 0 5.315 1.408 5.573 4.389zM190.426 49.509h2.726v9.53l4.927-4.905h3.348l-4.735 4.459 5.189 7.677h-3.331l-3.779-5.893-1.626 1.55v4.346h-2.719zM202.615 60.19c0-3.71 2.271-6.384 6.241-6.384s6.243 2.674 6.243 6.383-2.273 6.41-6.243 6.41-6.241-2.677-6.241-6.41m9.758 0c0-2.088-1.077-4.272-3.517-4.272s-3.514 2.183-3.514 4.271 1.075 4.297 3.514 4.297 3.517-2.184 3.517-4.297"/><path fill="#8DC63F" d="M78.994 59.89a23.7 23.7 0 0 1-4.06 13.35 24.35 24.35 0 0 1-10.932 8.886 24.87 24.87 0 0 1-14.12 1.426 24.6 24.6 0 0 1-12.546-6.513 23.87 23.87 0 0 1-6.745-12.258 23.6 23.6 0 0 1 1.329-13.87 24.1 24.1 0 0 1 8.956-10.809A24.77 24.77 0 0 1 54.441 36c6.483-.028 12.712 2.474 17.317 6.954s7.208 10.573 7.236 16.937"/><path fill="#F9E988" d="M77.16 59.9a21.9 21.9 0 0 1-3.754 12.346 22.5 22.5 0 0 1-10.11 8.22 23 23 0 0 1-13.057 1.32 22.75 22.75 0 0 1-11.605-6.023 22.07 22.07 0 0 1-6.24-11.336A21.8 21.8 0 0 1 33.622 51.6a22.3 22.3 0 0 1 8.282-9.997 22.9 22.9 0 0 1 12.545-3.795c5.996-.026 11.757 2.287 16.016 6.43 4.26 4.143 6.667 9.777 6.695 15.662"/><path fill="#fff" d="M54.963 39.245c1.437-.25 2.908-.25 4.345 0a13.4 13.4 0 0 1 4.151 1.365c1.29.696 2.404 1.64 3.513 2.525 1.11.885 2.213 1.791 3.263 2.782a16.3 16.3 0 0 1 2.783 3.304 18.7 18.7 0 0 1 1.95 3.856c.943 2.723 1.271 5.656.8 8.454h-.14c-.473-2.774-1.114-5.417-2.126-7.931a31 31 0 0 0-1.672-3.695 36 36 0 0 0-2.2-3.466 12.7 12.7 0 0 0-2.948-2.921c-1.148-.803-2.468-1.323-3.745-1.817s-2.544-1.005-3.877-1.38c-1.332-.377-2.685-.658-4.1-.931z"/><path fill="#8BC53F" d="M66.015 52.065c-1.64-.466-3.341-1.126-5.063-1.794-.1-.424-.482-.953-1.256-1.598-1.125-.958-3.239-.934-5.065-.51-2.016-.466-4.007-.63-5.919-.173-15.634 4.227-6.769 14.54-12.509 24.907.817 1.7 9.62 11.623 22.357 8.96 0 0-4.356-10.274 5.474-15.206 7.974-4.015 13.735-11.443 1.98-14.586"/><path fill="#fff" d="M67.946 58.815a.9.9 0 0 1-.156.517.94.94 0 0 1-.424.345.97.97 0 0 1-1.034-.196.914.914 0 0 1-.211-1.013.93.93 0 0 1 .347-.419.96.96 0 0 1 1.197.11c.178.173.28.41.281.656"/><path fill="#009345" d="M54.63 48.157c1.14.08 5.259 1.39 6.322 2.107-.886-2.521-3.867-2.857-6.321-2.108"/><path fill="#fff" d="M55.715 54.533c0 .849-.256 1.679-.736 2.385a4.36 4.36 0 0 1-1.962 1.581 4.45 4.45 0 0 1-2.526.245 4.4 4.4 0 0 1-2.24-1.174 4.27 4.27 0 0 1-1.196-2.197 4.2 4.2 0 0 1 .248-2.48 4.3 4.3 0 0 1 1.61-1.926 4.44 4.44 0 0 1 4.102-.397c.531.215 1.013.53 1.42.929.405.398.727.871.947 1.392s.333 1.078.333 1.642"/><path fill="#58595B" d="M54.418 54.571c0 .598-.18 1.181-.518 1.678a3.06 3.06 0 0 1-1.38 1.111 3.13 3.13 0 0 1-1.777.172 3.1 3.1 0 0 1-1.575-.826 3 3 0 0 1-.841-1.546 2.97 2.97 0 0 1 .175-1.744 3.03 3.03 0 0 1 1.132-1.354 3.116 3.116 0 0 1 3.884.375c.576.566.9 1.334.9 2.134"/><path fill="#8BC53F" d="M71.489 60.706c-3.543 2.45-7.572 4.309-13.287 4.309-2.675 0-3.217-2.782-4.985-1.422-.912.706-4.13 2.284-6.682 2.164s-6.691-1.589-7.845-6.938c-.457 5.35-.69 9.29-2.737 13.805 4.075 6.405 13.79 11.345 22.609 9.216-.948-6.494 4.834-12.855 8.092-16.11 1.24-1.233 3.596-3.245 4.835-5.028z"/><path fill="#58595B" d="M71.35 60.866c-1.1.985-2.41 1.713-3.742 2.357a24 24 0 0 1-4.198 1.5c-1.446.367-2.953.644-4.48.508s-3.088-.645-4.1-1.768l.048-.054c1.24.79 2.671 1.067 4.096 1.107a19.6 19.6 0 0 0 4.305-.348A24 24 0 0 0 67.46 62.9c1.352-.548 2.69-1.182 3.841-2.087z"/></g><defs><clipPath id="a"><path fill="#fff" d="M30.1 36h185v48h-185z"/></clipPath></defs></svg>