<svg xmlns="http://www.w3.org/2000/svg" width="245" height="120" fill="none"><g fill="#fff" clip-path="url(#a)" style="mix-blend-mode:luminosity"><path d="M95.104 50.629V69.19h-3.835V50.63zM110.72 56.666v12.546c0 3.888-3.073 6.273-6.826 6.273-3.622 0-6.325-2.23-6.586-5.366l3.807.027c.158 1.321 1.338 1.917 2.915 1.917 1.468 0 2.861-.778 2.861-2.825V67.66c-.974.623-2.23.983-3.622.983-3.492 0-6.298-2.798-6.298-6.015 0-3.733 2.806-6.246 6.298-6.246 1.392 0 2.648.365 3.622.983v-.672zm-3.829 7.39v-3.062c-.789-1.117-1.866-1.504-2.943-1.504-1.892 0-3.176 1.247-3.176 3.137 0 1.402 1.311 2.906 3.176 2.906 1.077.026 2.181-.366 2.943-1.477M125.995 62.782c0 3.861-2.888 6.611-6.771 6.611-3.91 0-6.798-2.75-6.798-6.611 0-3.835 2.888-6.638 6.798-6.638 3.889.005 6.771 2.803 6.771 6.638m-3.698 0c0-1.815-1.208-3.292-3.073-3.292-1.893 0-3.1 1.477-3.1 3.292 0 1.863 1.207 3.265 3.1 3.265 1.865-.021 3.073-1.396 3.073-3.265M149.778 56.692v12.465l-3.753.027v-.698c-.973.623-2.229 1.01-3.622 1.01-3.491 0-6.298-2.927-6.298-6.531 0-3.63 2.807-6.558 6.298-6.558 1.393 0 2.649.387 3.622 1.01v-.698zm-3.78 8.163v-3.808c-.788-1.117-1.892-1.423-2.991-1.423-1.914 0-3.252 1.531-3.252 3.346 0 1.789 1.338 3.32 3.252 3.32 1.104-.006 2.203-.318 2.991-1.435M165.214 62.423v6.767h-3.703v-6.327c0-2.046-1.023-3.11-2.861-3.11-.946 0-2.023.543-2.915 1.58v7.851h-3.78V56.72h3.78v.934c1.022-.805 2.23-1.246 3.649-1.246 3.361 0 5.83 2.331 5.83 6.016M89.514 69.163H85.63l-2.551-9.308-5.46 9.308h-4.357l8.425-14.41-1.365-5.027-11.367 19.442H64.6l14.412-24.651h3.834L84.5 50.66h3.938l-2.676 4.613zM180.464 50.629V69.19h-3.835v-.698c-.974.623-2.23 1.01-3.622 1.01-3.491 0-6.298-2.927-6.298-6.558 0-3.604 2.807-6.53 6.298-6.53 1.392 0 2.648.386 3.622 1.009v-6.794zm-3.829 14.227v-3.835c-.789-1.117-1.915-1.423-3.019-1.423-1.941 0-3.28 1.53-3.28 3.346 0 1.842 1.339 3.367 3.28 3.367 1.099 0 2.202-.311 3.019-1.455M135.393 59.855c-.837.102-2.784.209-3.937 1.761v7.567h-3.78V56.745h3.78v.934c.864-.725 2.153-1.165 3.937-.982z"/></g><defs><clipPath id="a"><path fill="#fff" d="M64.6 44h116v32h-116z"/></clipPath></defs></svg>