<svg xmlns="http://www.w3.org/2000/svg" width="246" height="120" fill="none"><g fill="#fff" clip-path="url(#a)" style="mix-blend-mode:luminosity"><path d="M63.332 58.744H52.338v2.409h10.994z"/><path d="M68.84 50h-7.274l1.756 2.414 5.304 1.61c.468.143.876.43 1.164.816s.441.852.436 1.33v7.693c.004.477-.15.942-.438 1.328a2.3 2.3 0 0 1-1.162.818l-5.304 1.577L61.566 70h7.275c.724 0 1.44-.138 2.109-.407a5.5 5.5 0 0 0 1.785-1.164c.511-.499.915-1.09 1.189-1.742a5.2 5.2 0 0 0 .409-2.052v-9.27a5.3 5.3 0 0 0-1.607-3.784A5.6 5.6 0 0 0 68.84 50M46.851 50h7.253l-1.733 2.414-5.304 1.61c-.47.143-.878.429-1.167.815a2.2 2.2 0 0 0-.44 1.33v7.694a2.2 2.2 0 0 0 .442 1.328c.289.386.697.673 1.165.818l5.304 1.577L54.126 70H46.85a5.6 5.6 0 0 1-3.902-1.571 5.3 5.3 0 0 1-1.617-3.794v-9.27a5.3 5.3 0 0 1 1.617-3.794A5.6 5.6 0 0 1 46.85 50M163.413 63.949a3.13 3.13 0 0 1-1 2.157 3.31 3.31 0 0 1-2.259.883 3.3 3.3 0 0 1-2.258-.883 3.13 3.13 0 0 1-1.001-2.157V56.32a3.13 3.13 0 0 1 1.001-2.157 3.3 3.3 0 0 1 2.258-.883c.842 0 1.651.316 2.259.883a3.13 3.13 0 0 1 1 2.157v.118h2.495v-.09a5.52 5.52 0 0 0-1.747-3.845 5.84 5.84 0 0 0-4.007-1.578 5.84 5.84 0 0 0-4.007 1.578 5.53 5.53 0 0 0-1.747 3.844v7.602a5.5 5.5 0 0 0 1.685 3.953 5.84 5.84 0 0 0 4.067 1.637 5.83 5.83 0 0 0 4.066-1.637 5.5 5.5 0 0 0 1.685-3.953v-.102h-2.495zM176.374 55.735a5 5 0 0 0-3.421 1.296 4.73 4.73 0 0 0-1.547 3.237v4.683a4.78 4.78 0 0 0 1.61 3.099 5.05 5.05 0 0 0 3.333 1.248 5.05 5.05 0 0 0 3.332-1.248 4.78 4.78 0 0 0 1.61-3.099v-4.688a4.72 4.72 0 0 0-1.527-3.22 5 5 0 0 0-3.39-1.308m2.445 8.943c0 .63-.258 1.235-.716 1.68a2.48 2.48 0 0 1-1.729.696 2.48 2.48 0 0 1-1.729-.696 2.34 2.34 0 0 1-.716-1.68v-4.136c0-.63.257-1.235.716-1.681a2.48 2.48 0 0 1 1.729-.696c.648 0 1.27.25 1.729.696.458.446.716 1.05.716 1.68zM169.628 50.794h-2.483v18.39h2.483zM101.113 55.735h-2.484v13.45h2.484zM96.144 50.794H93.66v18.39h2.484zM87.39 50.794h-3.063l-5.022 18.364h2.478l1.335-4.882h5.52l1.33 4.828h2.478l-5.055-18.3zm.552 11.116H83.77l2.086-7.618zM190.504 64.93c0 .632-.259 1.238-.718 1.685a2.5 2.5 0 0 1-1.733.698c-.65 0-1.273-.251-1.733-.698a2.35 2.35 0 0 1-.717-1.684v-9.196h-2.49v9.593a4.1 4.1 0 0 0 .457 1.88c.302.584.741 1.09 1.282 1.478.54.388 1.167.647 1.83.756a4.4 4.4 0 0 0 1.984-.128q.357-.101.684-.274c.38-.19.728-.434 1.032-.724l.111-.102v.987h2.505V55.735h-2.494zM101.113 50.794h-2.484v2.42h2.484zM109.181 55.719a4.32 4.32 0 0 0-2.991 1.19l-.105.103v-6.218h-2.489v18.39h2.489v-.987l.105.102a4.3 4.3 0 0 0 2.192 1.111 4.4 4.4 0 0 0 2.459-.252 4.26 4.26 0 0 0 1.906-1.531 4.1 4.1 0 0 0 .717-2.3v-5.445a4.1 4.1 0 0 0-1.256-2.942 4.35 4.35 0 0 0-3.027-1.221m1.827 4.603v4.565c0 .633-.259 1.24-.719 1.688-.461.448-1.086.7-1.737.7a2.5 2.5 0 0 1-1.737-.7 2.36 2.36 0 0 1-.719-1.688v-4.565c0-.633.259-1.24.719-1.688a2.5 2.5 0 0 1 1.737-.7c.651 0 1.276.252 1.737.7.46.447.719 1.055.719 1.688M132.339 55.719a4.33 4.33 0 0 0-2.997 1.19l-.104.103v-6.218h-2.484v18.39h2.484v-.987l.104.102a4.33 4.33 0 0 0 2.193 1.111 4.4 4.4 0 0 0 2.459-.252 4.25 4.25 0 0 0 1.905-1.531 4.1 4.1 0 0 0 .718-2.3v-5.445a4.1 4.1 0 0 0-1.254-2.94 4.35 4.35 0 0 0-3.024-1.223m1.822 4.603v4.56c0 .633-.259 1.24-.72 1.688a2.5 2.5 0 0 1-1.736.7 2.5 2.5 0 0 1-1.737-.7 2.35 2.35 0 0 1-.719-1.688v-4.56c0-.633.258-1.24.719-1.688a2.5 2.5 0 0 1 1.737-.7 2.5 2.5 0 0 1 1.736.7c.461.447.72 1.055.72 1.688M202.176 50.794v6.218l-.105-.102a4.3 4.3 0 0 0-2.192-1.117 4.4 4.4 0 0 0-2.462.25 4.25 4.25 0 0 0-1.907 1.535 4.08 4.08 0 0 0-.713 2.304v5.461a4.1 4.1 0 0 0 .724 2.294 4.26 4.26 0 0 0 1.907 1.524 4.4 4.4 0 0 0 2.455.248 4.3 4.3 0 0 0 2.188-1.11l.105-.102v.987h2.489v-18.39zm0 9.528v4.56c0 .313-.063.624-.187.913-.123.29-.304.553-.532.775a2.5 2.5 0 0 1-.797.518 2.52 2.52 0 0 1-2.677-.518 2.4 2.4 0 0 1-.532-.774c-.123-.29-.187-.6-.187-.914v-4.56c0-.314.064-.624.187-.914s.304-.553.532-.774c.228-.222.499-.398.797-.518a2.52 2.52 0 0 1 1.88 0c.298.12.569.296.797.518.228.221.409.485.532.774s.187.6.187.914M124.966 60.284a4 4 0 0 0-.05-.472v-.064a4.85 4.85 0 0 0-.85-2.017 4.8 4.8 0 0 0-1.61-1.413 4.95 4.95 0 0 0-2.082-.588h-.287a5.06 5.06 0 0 0-3.174 1.106 4.8 4.8 0 0 0-1.716 2.82h2.439c.11-.54.409-1.028.847-1.38a2.5 2.5 0 0 1 1.554-.545c.63.007 1.234.25 1.685.677s.718 1.006.744 1.619v1.126h-3.527a4.35 4.35 0 0 0-2.838 1.024 4.13 4.13 0 0 0-1.43 2.593 4.07 4.07 0 0 0 .694 2.864 4.28 4.28 0 0 0 2.47 1.7h.066l.237.054.298.043h.061q.322.033.646.032a4.8 4.8 0 0 0 1.496-.209 4.2 4.2 0 0 0 1.694-.992l.111-.102v.987h2.483v-1.61zm-5.553 2.683h3.053v1.7c0 .627-.226 1.235-.638 1.717a2.77 2.77 0 0 1-1.62.923 2.5 2.5 0 0 1-.552.064 2.55 2.55 0 0 1-1.258-.343 2.6 2.6 0 0 1-.32-.199 2.4 2.4 0 0 1-.381-.37l-.028-.032a2.093 2.093 0 0 1-.234-2.266c.184-.36.469-.664.821-.876.353-.21.76-.321 1.174-.318zM148.153 60.295a4 4 0 0 0-.05-.472v-.065a4.83 4.83 0 0 0-2.461-3.423 5 5 0 0 0-2.081-.595h-.287a5.06 5.06 0 0 0-3.171 1.102 4.8 4.8 0 0 0-1.719 2.815h2.434c.112-.575.438-1.09.917-1.445a2.494 2.494 0 0 1 3.252.245c.416.422.657.98.677 1.564v1.127h-3.532a4.35 4.35 0 0 0-2.826 1.037 4.12 4.12 0 0 0-1.416 2.593 4.07 4.07 0 0 0 .699 2.856 4.28 4.28 0 0 0 2.466 1.695h.067l.237.054.298.043h.061q.322.036.645.037a4.8 4.8 0 0 0 1.496-.209 4.36 4.36 0 0 0 1.695-.992l.11-.102v.987h2.484v-1.61zm-5.552 2.682h3.046V64.7a2.64 2.64 0 0 1-.637 1.716 2.78 2.78 0 0 1-1.62.923 2.5 2.5 0 0 1-.552.064 2.55 2.55 0 0 1-1.258-.343 2.1 2.1 0 0 1-.707-.569v-.032a2.08 2.08 0 0 1-.458-1.298 2.12 2.12 0 0 1 .633-1.52 2.24 2.24 0 0 1 1.553-.642z"/></g><defs><clipPath id="a"><path fill="#fff" d="M41.332 50h163.333v20H41.332z"/></clipPath></defs></svg>