<svg xmlns="http://www.w3.org/2000/svg" width="246" height="120" fill="none"><g fill="#fff" clip-path="url(#a)" style="mix-blend-mode:luminosity"><path d="M63.266 54.873c-3.24-3.284-8.387-3.284-11.592 0-3.204 3.319-3.17 8.721.035 12.04 3.204 3.32 8.42 3.355 11.625.036a40 40 0 0 0 .675-.77l-3.864-4.007q-.596.717-.63.751a2.73 2.73 0 0 1-3.954 0c-1.091-1.13-1.091-2.966-.034-4.06 1.057-1.095 2.83-1.095 3.92.035l10.334 10.695c-2.83 4.237-7.572 6.925-12.686 6.925-8.455 0-15.341-7.168-15.341-15.996s6.886-15.995 15.34-15.995c4.944 0 9.479 2.471 12.308 6.462q-.684.822-3.494 4.126l3.813 3.938 6.33-7.394c-3.274-7.697-10.672-12.782-18.956-12.782-11.489 0-20.796 9.71-20.796 21.645s9.307 21.645 20.796 21.645c5.216 0 9.546-1.695 13.773-5.437 3.853-3.39 5.663-8.09 5.663-8.09zM164.513 63.272v11.824h-4.741V63.013c-.481-2.776-2.885-4.887-5.778-4.887-2.936 0-5.369 2.176-5.798 5.015v11.955h-4.741V53.637l3.637 2.349a10.47 10.47 0 0 1 6.902-2.59c5.575 0 10.141 4.356 10.53 9.876zm-49.768-12.36a14.7 14.7 0 0 0-4.155 3.288c-1.752-2.468-4.605-4.074-7.827-4.074-5.328 0-9.648 4.392-9.648 9.81s4.32 9.81 9.648 9.81a9.5 9.5 0 0 0 4.756-1.273 14.9 14.9 0 0 0 2.435 4.746 14.65 14.65 0 0 1-7.191 1.877c-8.234 0-14.91-6.787-14.91-15.16s6.676-15.16 14.91-15.16c4.91 0 9.266 2.413 11.982 6.137m7.054 24.184c-5.818 0-10.534-4.79-10.534-10.701 0-5.91 4.716-10.702 10.534-10.702s10.536 4.791 10.536 10.702-4.717 10.701-10.536 10.701m0-4.756c3.233 0 5.854-2.662 5.854-5.945s-2.621-5.945-5.854-5.945-5.852 2.661-5.852 5.945c0 3.283 2.62 5.945 5.852 5.945m13.462-16.647h4.682v21.403h-4.682zm50.919-3.79h-13.394v7.78h13.005v4.83h-13.005v7.753h13.394v4.83h-18.436V45.073h18.436zm9.845 14.446-7.208-10.656h5.962q.263.448.77 1.23l1.229 1.902 1.229 1.903q.59.911.839 1.35l.239.422 4.284-6.807h5.673L201.96 64.17l7.338 10.926h-5.889l-4.519-6.995-.244.368q-.3.451-.895 1.394-.593.939-1.27 1.99-.679 1.053-1.274 1.994-.505.8-.768 1.25h-5.626zM134.293 48.264q0-1.413 1.012-2.444t2.425-1.03q1.435 0 2.448 1.03 1.012 1.007 1.012 2.468t-1.012 2.492q-.989 1.03-2.424 1.03-1.437 0-2.449-1.03t-1.012-2.516"/></g><defs><clipPath id="a"><path fill="#fff" d="M36.299 35h173v50h-173z"/></clipPath></defs></svg>