<svg xmlns="http://www.w3.org/2000/svg" width="245" height="180" fill="none"><g style="mix-blend-mode:luminosity"><rect width="244.8" height="180" fill="#000" fill-opacity=".04" rx="8"/><g fill="#fff" clip-path="url(#a)"><path d="M97.6 80.178c-1.532 0-3.01.192-3.61.355-.876.246-1.095.63-1.26 1.424l-3.474 16.032c-.056.327-.11.601-.11.875 0 .794.521 1.313 1.369 1.313.93 0 1.314-.602 1.505-1.533l.984-4.568c.683.081 1.587.164 2.873.164 5.665 0 9.193-3.063 9.193-7.687 0-4.05-2.82-6.375-7.47-6.375m-1.86 11.436c-.875 0-1.56-.028-2.188-.11l1.833-8.509c.574-.081 1.423-.193 2.299-.193 3.01 0 4.543 1.424 4.543 3.777-.002 3.01-2.192 5.035-6.487 5.035M186.735 94.896c-.465 0-.767.274-1.34.903-1.013 1.04-1.642 1.614-2.434 1.614-.711 0-1.094-.574-1.094-1.505 0-.52.109-1.15.246-1.832l1.012-4.761h3.038c.957 0 1.533-.548 1.533-1.533 0-.548-.356-.957-1.176-.957h-2.849l.493-2.216c.055-.327.109-.63.109-.903 0-.766-.52-1.314-1.368-1.314-.903 0-1.312.601-1.505 1.532l-.629 2.901h-1.287c-.985 0-1.558.548-1.558 1.533 0 .548.383.957 1.203.957h1.122l-1.013 4.705c-.109.52-.246 1.368-.246 2.243 0 2.216 1.149 3.83 3.611 3.83 1.424 0 2.681-.71 3.639-1.56.932-.82 1.615-1.833 1.615-2.49 0-.627-.493-1.147-1.122-1.147M123.81 81.792c0-.794-.548-1.314-1.396-1.314-.903 0-1.312.601-1.505 1.532l-3.419 15.895c-.081.328-.137.602-.137.876 0 .794.548 1.312 1.368 1.312.931 0 1.34-.601 1.533-1.532l3.419-15.894c.055-.329.137-.601.137-.875M172.645 86.551c-4.378 0-7.36 4.35-7.36 8.482q0 .117.004.23c-.687 1.042-1.565 2.123-2.166 2.123-.437 0-.602-.411-.602-1.04 0-.767.218-2.054.465-3.175l2.271-10.507c.055-.328.109-.602.109-.876 0-.794-.52-1.314-1.368-1.314-.931 0-1.312.602-1.505 1.533l-1.231 5.69c-.657-.683-1.616-1.15-3.065-1.15-2.907 0-5.831 2.238-6.971 5.67-1.255 3.245-2.376 5.165-3.262 5.165-.327 0-.52-.274-.52-.739 0-1.368.766-4.705 1.094-6.32.109-.601.165-.847.165-1.203 0-1.203-1.998-2.626-4.596-2.626-3.006 0-5.728 1.904-7.092 4.73-2.027 3.583-3.888 6.158-4.809 6.158-.411 0-.548-.52-.657-1.013l-.681-3.77 4.185-3.42c.383-.327.876-.793.876-1.395 0-.738-.493-1.23-1.231-1.23-.548 0-1.013.327-1.477.71l-6.292 5.198 2.106-9.794c.056-.328.137-.602.137-.876 0-.794-.548-1.314-1.395-1.314-.904 0-1.313.602-1.505 1.533l-3.419 15.895c-.082.327-.137.601-.137.875 0 .794.548 1.313 1.368 1.313.931 0 1.34-.602 1.533-1.533l.438-2.051 2.571-2.079.63 3.173c.246 1.259.903 2.49 2.599 2.49 1.687 0 3.015-1.541 4.346-3.624.403 2.182 1.955 3.624 4.109 3.624 2.163 0 3.64-1.287 4.597-3.01v.055c0 1.78.903 2.955 2.489 2.955 1.436 0 2.627-.866 3.691-2.704.604 1.602 1.954 2.704 3.832 2.704 2.216 0 3.802-1.34 4.815-3.2v.164c0 1.97.984 3.038 2.598 3.038 1.426 0 2.637-.828 3.671-2.174.787 1.346 2.196 2.174 4.1 2.174 4.378 0 7.36-4.35 7.36-8.51-.002-2.928-1.781-5.035-4.818-5.035m-27.276 5.555c-.794 3.42-2.489 5.363-4.405 5.363-1.287 0-1.998-.985-1.998-2.462 0-2.9 2.107-6.02 4.924-6.02.848 0 1.505.247 2.079.602zm15.238-1.449c-.875 4.023-2.873 6.812-5.061 6.812-1.203 0-1.916-.931-1.916-2.462 0-2.926 2.026-5.964 4.734-5.964 1.04 0 1.832.355 2.408.82zm9.822 6.812c-1.586 0-2.244-1.15-2.244-2.599 0-2.654 1.833-5.69 4.132-5.69 1.586 0 2.243 1.15 2.243 2.599 0 2.68-1.832 5.69-4.131 5.69M111.882 86.551c-4.378 0-7.36 4.35-7.36 8.482 0 2.954 1.779 5.061 4.814 5.061 4.378 0 7.36-4.35 7.36-8.51 0-2.926-1.779-5.033-4.814-5.033m-2.216 10.918c-1.586 0-2.244-1.15-2.244-2.6 0-2.653 1.833-5.69 4.132-5.69 1.586 0 2.244 1.15 2.244 2.6-.002 2.68-1.835 5.69-4.132 5.69M70.107 81.874c2.788 0 5.049-1.315 5.049-2.937s-2.26-2.936-5.049-2.936c-2.788 0-5.049 1.314-5.049 2.936s2.26 2.937 5.049 2.937M70.107 103.999c2.788 0 5.049-1.315 5.049-2.937s-2.26-2.936-5.049-2.936c-2.788 0-5.049 1.314-5.049 2.936s2.26 2.937 5.049 2.937M63.071 85.938c1.394-2.414 1.385-5.03-.02-5.841s-3.675.488-5.07 2.903c-1.393 2.415-1.384 5.03.021 5.841 1.405.812 3.675-.488 5.069-2.903M82.23 97c1.394-2.415 1.386-5.03-.019-5.841s-3.673.49-5.067 2.904c-1.394 2.415-1.386 5.03.019 5.84 1.404.811 3.673-.489 5.067-2.904M63.052 99.903c1.405-.812 1.414-3.427.02-5.842-1.395-2.414-3.664-3.714-5.07-2.903-1.405.812-1.414 3.427-.02 5.842 1.395 2.415 3.664 3.714 5.07 2.903M82.213 88.842c1.404-.811 1.412-3.426.018-5.84-1.394-2.415-3.663-3.716-5.067-2.905s-1.413 3.426-.019 5.84c1.395 2.416 3.663 3.716 5.068 2.905"/></g></g><defs><clipPath id="a"><path fill="#fff" d="M56.944 76h130.913v28H56.944z"/></clipPath></defs></svg>