<svg xmlns="http://www.w3.org/2000/svg" width="246" height="120" fill="none"><g fill="#fff" style="mix-blend-mode:luminosity"><path d="M156.293 72c-.908 0-1.815-.34-2.509-1.028l-17.129-16.98a3.477 3.477 0 0 1 0-4.964A3.55 3.55 0 0 1 139.164 48c.907 0 1.815.34 2.509 1.028L158.79 66a3.477 3.477 0 0 1 0 4.964 3.55 3.55 0 0 1-2.509 1.025z"/><path d="M156.293 48c-.908 0-1.815.34-2.509 1.028l-17.129 16.98a3.477 3.477 0 0 0 0 4.964A3.55 3.55 0 0 0 139.164 72a3.55 3.55 0 0 0 2.509-1.028L158.79 54a3.477 3.477 0 0 0 0-4.964 3.55 3.55 0 0 0-2.509-1.025zM105.429 50.477c1.964 1.556 3.223 3.66 3.799 6.326h-6.012c-.446-1.08-1.12-1.924-2.039-2.538s-2.008-.922-3.279-.922c-1.665 0-3.001.605-4.024 1.81-1.026 1.207-1.53 2.826-1.53 4.847 0 2.02.513 3.63 1.53 4.824 1.014 1.196 2.36 1.8 4.024 1.8 1.262 0 2.351-.307 3.279-.921.93-.614 1.601-1.45 2.039-2.506h6.012c-.576 2.634-1.846 4.738-3.799 6.305-1.956 1.567-4.445 2.36-7.433 2.36-2.287 0-4.295-.499-6.015-1.504a10.3 10.3 0 0 1-4.004-4.201q-1.41-2.698-1.409-6.157t1.409-6.157c.942-1.801 2.276-3.197 4.004-4.202 1.732-1.005 3.74-1.504 6.015-1.504 2.988 0 5.468.785 7.433 2.34M130.082 48.361v4.476h-9.63v5.1h7.441v4.285h-7.441v9.417h-5.692V48.361z"/></g></svg>