<svg width="211" height="27" viewBox="0 0 211 27" fill="none" xmlns="http://www.w3.org/2000/svg">
<g clip-path="url(#clip0_3269_2451)">
<path d="M0.558594 25.9269C0.652983 25.8809 0.657587 25.7796 0.689817 25.6967C4.13233 17.5271 7.56487 9.35435 10.9874 1.17858C11.0127 1.0745 11.0756 0.983473 11.164 0.923092C11.2525 0.86271 11.3602 0.837264 11.4663 0.851671C12.5621 0.874692 13.6579 0.870088 14.7538 0.851671C14.8326 0.839292 14.9132 0.855759 14.9809 0.898048C15.0486 0.940336 15.0987 1.00561 15.1221 1.08189C18.5754 9.31752 22.0332 17.5508 25.4957 25.7819C25.5256 25.8555 25.551 25.9315 25.5832 26.0121C25.5003 26.0121 25.4382 26.0259 25.376 26.0259C24.2249 26.0259 23.0738 26.0259 21.9227 26.0259C21.8522 26.0351 21.7808 26.0185 21.7215 25.9792C21.6623 25.9398 21.6193 25.8804 21.6004 25.8118C19.2169 20.1362 16.8288 14.4544 14.4361 8.76653C14.0217 7.7766 13.6065 6.78743 13.1906 5.79904C13.174 5.70919 13.1268 5.62785 13.0571 5.56882C12.6864 6.45055 12.3158 7.32537 11.9474 8.2025C9.49178 14.0592 7.03613 19.9167 4.58049 25.775C4.55965 25.8611 4.50768 25.9366 4.43458 25.9867C4.36147 26.0369 4.27241 26.0582 4.18451 26.0466C2.98048 26.0282 1.77414 26.0466 0.567802 26.0305L0.558594 25.9269Z" fill="#0B0B0B"/>
<path d="M170.687 26.144C170.227 25.0696 169.772 23.9899 169.324 22.9048C168.995 22.1221 168.661 21.3394 168.332 20.5589C168.403 20.4853 168.479 20.5129 168.546 20.5129C170.266 20.5129 171.986 20.5129 173.705 20.5129C173.959 20.5129 173.97 20.5727 173.878 20.7845C173.149 22.4835 172.425 24.1856 171.705 25.8908C171.67 25.9736 171.608 26.0496 171.624 26.1486L170.687 26.144Z" fill="#0B0B0B"/>
<path d="M99.603 13.4537C99.603 9.35582 99.603 5.25796 99.603 1.1601C99.603 0.929879 99.6605 0.851606 99.9045 0.858512C100.789 0.88844 101.675 0.805562 102.554 0.893045C104.322 1.08182 105.625 1.97737 106.335 3.61421C108.556 8.73424 110.745 13.8704 112.949 19.0019L114.289 22.1352C114.312 22.1858 114.335 22.2365 114.353 22.2871C114.401 22.4183 114.512 22.3907 114.609 22.3838C114.705 22.3769 114.698 22.2848 114.701 22.2157C114.703 22.1467 114.701 22.0868 114.701 22.0224C114.701 15.8203 114.695 9.61904 114.684 3.41853C114.684 2.6473 114.684 1.87377 114.671 1.10254C114.671 0.904555 114.728 0.858512 114.919 0.872325C115.902 0.872325 116.888 0.872325 117.873 0.872325C118.103 0.872325 118.161 0.929879 118.161 1.1601C118.161 5.83811 118.161 10.5192 118.161 15.2033C118.161 18.7211 118.161 22.2411 118.161 25.7588C118.161 26.0212 118.085 26.0673 117.843 26.0673C116.084 26.055 114.326 26.055 112.569 26.0673C112.485 26.0768 112.401 26.056 112.331 26.0087C112.261 25.9614 112.211 25.8907 112.189 25.8094C109.317 19.1009 106.443 12.3924 103.565 5.68386C103.526 5.59408 103.526 5.46516 103.379 5.43983C103.123 5.39609 103.068 5.43983 103.068 5.71839C103.068 12.3793 103.068 19.0403 103.068 25.7012C103.068 26.1225 103.125 26.0673 102.706 26.0696C101.758 26.0696 100.809 26.0696 99.8608 26.0696C99.6306 26.0696 99.5938 26.0051 99.5938 25.7933C99.6014 21.674 99.6045 17.5608 99.603 13.4537Z" fill="#0B0B0B"/>
<path d="M84.0669 5.5437L77.9915 20.0059C78.1112 20.0059 78.2079 20.0197 78.3022 20.0197C80.7149 20.0197 83.1253 20.0336 85.538 20.0197C87.6514 20.0059 88.6919 21.4632 89.0027 23.0425C89.0534 23.2934 88.9175 23.2727 88.7725 23.2727H80.7564C79.4671 23.2727 78.1779 23.2727 76.8887 23.2727C76.8135 23.262 76.7369 23.2796 76.674 23.3221C76.611 23.3647 76.5661 23.4291 76.548 23.5029C76.2349 24.2742 75.8965 25.0385 75.5857 25.8051C75.5664 25.8872 75.5174 25.9593 75.4481 26.0073C75.3788 26.0554 75.2941 26.076 75.2104 26.0652C74.0962 26.0652 72.9819 26.0652 71.8677 26.0652C71.5454 26.0652 71.5454 26.0652 71.6743 25.7591L76.6608 13.8614C78.4381 9.62545 80.2123 5.38869 81.9834 1.15116C81.9987 1.06032 82.0484 0.978837 82.1221 0.923562C82.1958 0.868288 82.2879 0.843449 82.3794 0.854179C83.5121 0.867992 84.6447 0.86569 85.7774 0.854179C85.8528 0.844373 85.9291 0.862325 85.9923 0.904686C86.0554 0.947046 86.1009 1.01092 86.1204 1.0844C89.5568 9.27705 92.997 17.4682 96.441 25.6578C96.4572 25.6923 96.4664 25.7268 96.4848 25.7591C96.5976 25.9617 96.5861 26.0491 96.3075 26.0468C95.1864 26.033 94.0629 26.0468 92.9394 26.0468C92.8641 26.0561 92.788 26.038 92.725 25.9957C92.662 25.9534 92.6163 25.8898 92.5964 25.8166C91.344 22.8238 90.0878 19.831 88.8278 16.8381C87.2807 13.1547 85.7329 9.4712 84.1843 5.78773C84.1567 5.72557 84.1267 5.66341 84.0669 5.5437Z" fill="#0B0B0B"/>
<path d="M28.4162 16.5852C28.4162 13.5356 28.4162 10.4852 28.4162 7.43408C28.4162 7.20387 28.46 7.10487 28.727 7.10948C29.611 7.12789 30.4943 7.12789 31.3768 7.10948C31.6208 7.10948 31.6784 7.16473 31.6784 7.40876C31.6784 12.4252 31.6784 17.4416 31.6646 22.458C31.6646 22.7458 31.7451 22.7965 32.0122 22.7965C34.6643 22.7827 37.3072 22.8218 39.9662 22.7711C42.4111 22.7228 44.5314 20.6854 44.7616 18.2497C44.7869 17.9826 44.7985 17.7179 44.7985 17.4508V9.26431C44.8067 8.19982 44.4824 7.15931 43.8707 6.28805C43.2591 5.4168 42.3906 4.75828 41.3866 4.40443C40.8323 4.20419 40.2471 4.10289 39.6577 4.10514C37.0056 4.10514 34.3543 4.10514 31.7037 4.10514C30.8755 4.12373 30.072 3.82273 29.4599 3.2646C28.8477 2.70647 28.474 1.93408 28.4162 1.10772C28.3909 0.861386 28.5083 0.863688 28.6856 0.863688C31.4919 0.863688 34.3006 0.863688 37.1092 0.863688C38.1935 0.863688 39.2802 0.836062 40.3645 0.882105C42.174 0.971212 43.9012 1.66586 45.2685 2.8545C46.6358 4.04315 47.5641 5.65682 47.9041 7.43639C47.998 7.95136 48.045 8.47379 48.0445 8.99726C48.0445 11.9187 48.033 14.8402 48.0445 17.7616C48.0749 18.8494 47.8834 19.9319 47.4816 20.9432C47.0799 21.9545 46.4763 22.8733 45.7078 23.6437C44.4524 24.9352 42.7942 25.7603 41.0068 25.9827C40.6051 26.0317 40.2005 26.0533 39.7958 26.0471C36.1032 26.0471 32.4112 26.0471 28.7201 26.0471C28.4715 26.0471 28.4001 25.9896 28.4024 25.7317C28.4116 22.6852 28.4162 19.6364 28.4162 16.5852Z" fill="#0B0B0B"/>
<path d="M146.653 13.4675C146.653 9.36959 146.653 5.27173 146.653 1.17387C146.648 0.920628 146.715 0.851562 146.977 0.851562C152.085 0.860771 157.193 0.860771 162.303 0.851562C162.671 0.851562 162.671 0.851562 162.63 1.21761C162.542 2.01236 162.162 2.74606 161.563 3.27617C160.964 3.80628 160.19 4.09496 159.39 4.08611C157.109 4.08611 154.825 4.08611 152.544 4.08611C151.743 4.08611 150.932 4.08611 150.14 4.08611C149.961 4.08611 149.91 4.13446 149.91 4.31633C149.91 7.24776 149.91 10.1784 149.91 13.1083C149.91 13.3639 150.051 13.3385 150.207 13.3385C153.384 13.3385 156.559 13.3385 159.736 13.3385C160.003 13.3385 160.07 13.4007 160.065 13.6677C160.047 14.5495 160.049 15.4312 160.065 16.3129C160.065 16.5432 160.005 16.5869 159.789 16.5869C156.614 16.5869 153.437 16.5869 150.262 16.5869C149.991 16.5869 149.908 16.6445 149.91 16.9299C149.927 18.7717 149.927 20.618 149.91 22.4689C149.91 22.7636 150 22.8074 150.262 22.8074C154.148 22.8074 158.032 22.8074 161.916 22.8074C162.008 22.7919 162.103 22.8117 162.181 22.8629C162.259 22.9141 162.315 22.993 162.337 23.0836C162.685 24.0045 163.051 24.9092 163.426 25.8163C163.516 26.0465 163.463 26.0695 163.244 26.0695C157.803 26.0695 152.363 26.0695 146.924 26.0695C146.676 26.0695 146.671 25.9636 146.671 25.7795C146.662 21.6693 146.656 17.5653 146.653 13.4675Z" fill="#0B0B0B"/>
<path d="M190.654 5.5845C190.221 6.61587 189.789 7.64724 189.358 8.67861C186.954 14.4003 184.552 20.1227 182.15 25.8459C182.129 25.9142 182.085 25.973 182.025 26.0115C181.965 26.0499 181.893 26.0655 181.823 26.0554C180.711 26.0554 179.597 26.0554 178.482 26.0554C178.151 26.0554 178.151 26.0554 178.277 25.7538C180.58 20.267 182.882 14.7817 185.184 9.2979C186.326 6.57366 187.468 3.85096 188.61 1.1298C188.626 1.04211 188.676 0.964131 188.748 0.912205C188.821 0.860279 188.91 0.83843 188.999 0.851234C190.122 0.860443 191.245 0.860443 192.367 0.851234C192.446 0.840109 192.527 0.858558 192.594 0.903097C192.661 0.947635 192.71 1.01518 192.73 1.09296C195.973 8.82825 199.222 16.5628 202.476 24.2965C202.683 24.7869 202.876 25.2819 203.099 25.7653C203.217 26.0163 203.136 26.0416 202.901 26.0393C201.79 26.0301 200.677 26.0301 199.561 26.0393C199.483 26.0515 199.403 26.0348 199.336 25.9925C199.269 25.9502 199.22 25.885 199.197 25.8091C198.224 23.4747 197.246 21.141 196.262 18.8082C194.439 14.4739 192.616 10.1382 190.794 5.8009C190.762 5.72723 190.758 5.63745 190.654 5.5845Z" fill="#0B0B0B"/>
<path d="M62.2843 21.3779C63.4078 18.6821 64.5244 16.0461 65.6363 13.3917C66.947 10.273 68.2577 7.15436 69.5684 4.03568C69.9887 3.05675 70.696 2.22833 71.597 1.65987C72.498 1.0914 73.5503 0.809632 74.6148 0.85178C74.891 0.85178 74.746 0.996816 74.7069 1.082C74.1528 2.40958 73.5964 3.73717 73.0378 5.06475C70.1463 11.9713 67.257 18.8709 64.3701 25.7636C64.3483 25.8499 64.2953 25.9252 64.2214 25.9749C64.1475 26.0246 64.0578 26.0453 63.9695 26.0329C62.8553 26.0191 61.741 26.0329 60.6268 26.0329C60.5349 26.0468 60.4411 26.0263 60.3633 25.9753C60.2856 25.9244 60.2294 25.8465 60.2055 25.7567C57.1221 18.425 54.0326 11.088 50.937 3.74561C50.5663 2.86618 50.2003 1.98675 49.8227 1.11192C49.7398 0.920845 49.7582 0.860988 49.9815 0.860988C51.1326 0.870197 52.2837 0.870197 53.4348 0.860988C53.5064 0.854259 53.578 0.873953 53.6361 0.916358C53.6942 0.958763 53.7348 1.02095 53.7502 1.09121C55.8129 6.01018 57.8811 10.9291 59.9546 15.8481C60.6943 17.6039 61.4325 19.362 62.1692 21.1224C62.19 21.1961 62.2291 21.2674 62.2843 21.3779Z" fill="#0B0B0B"/>
<path d="M136.055 26.0391C134.232 26.0391 132.409 26.0829 130.588 26.0391C127.068 25.9378 123.911 23.3019 123.129 19.8693C122.978 19.2255 122.901 18.5667 122.898 17.9056C122.898 14.8913 122.898 11.8777 122.898 8.86495C122.923 6.98986 123.597 5.18132 124.806 3.74797C126.015 2.31461 127.684 1.34526 129.529 1.00534C130.073 0.912229 130.625 0.866016 131.177 0.86721C134.656 0.86721 138.136 0.86721 141.615 0.86721C141.889 0.86721 141.928 0.956995 141.907 1.19642C141.829 1.98628 141.463 2.71973 140.879 3.25716C140.295 3.79458 139.533 4.09847 138.74 4.11097C136.283 4.11097 133.825 4.09255 131.373 4.11097C129.315 4.12939 127.765 5.05486 126.768 6.85746C126.38 7.56236 126.18 8.35504 126.186 9.15963C126.186 12.0251 126.186 14.8913 126.186 17.7582C126.204 18.9734 126.654 20.1424 127.456 21.0561C128.257 21.9697 129.358 22.5683 130.56 22.7447C130.833 22.7808 131.109 22.7985 131.384 22.7977C134.801 22.7977 138.215 22.7977 141.629 22.7977C141.878 22.7977 141.933 22.8598 141.93 23.0993C141.915 23.9894 141.915 24.8804 141.93 25.7721C141.93 26.0023 141.884 26.0622 141.65 26.0622C139.789 26.0622 137.929 26.0622 136.071 26.0622L136.055 26.0391Z" fill="#0B0B0B"/>
<path d="M208.761 26.0465C208.209 26.0465 207.656 26.0281 207.106 26.0465C207.004 26.0637 206.899 26.041 206.814 25.9831C206.728 25.9253 206.668 25.8367 206.646 25.7357C204.468 20.4683 202.278 15.1987 200.075 9.92669C198.855 6.98912 197.633 4.05232 196.408 1.11628C196.323 0.909087 196.334 0.860741 196.571 0.863044C197.685 0.863044 198.8 0.863044 199.912 0.863044C200.004 0.850191 200.098 0.871361 200.176 0.92261C200.254 0.973859 200.31 1.05169 200.335 1.14161C203.614 8.96899 206.896 16.7872 210.182 24.5961C210.357 25.0105 210.52 25.4272 210.704 25.837C210.785 26.0189 210.734 26.0534 210.557 26.0511C209.958 26.0419 209.364 26.0465 208.761 26.0465Z" fill="#0B0B0B"/>
<path d="M187.863 26.0464L188.747 23.9744C189.208 22.8717 189.687 21.7667 190.149 20.6616C190.164 20.5907 190.205 20.5279 190.264 20.4853C190.323 20.4428 190.395 20.4236 190.467 20.4314C191.105 20.4314 191.107 20.4314 191.36 21.0277C192.035 22.6116 192.707 24.1955 193.388 25.777C193.481 25.9934 193.46 26.051 193.211 26.0487C191.445 26.0441 189.682 26.0464 187.863 26.0464Z" fill="#0B0B0B"/>
<path d="M15.881 26.0366H10.2891C10.355 25.7981 10.4445 25.5668 10.5561 25.346C11.2191 23.7782 11.8891 22.2104 12.5475 20.6403C12.5683 20.572 12.613 20.5134 12.6735 20.4753C12.7339 20.4373 12.8061 20.4223 12.8767 20.4331C13.5098 20.4331 13.5075 20.4331 13.7561 21.0133C14.4238 22.5926 15.0891 24.1695 15.7521 25.7442L15.881 26.0366Z" fill="#0B0B0B"/>
</g>
<defs>
<clipPath id="clip0_3269_2451">
<rect width="210.184" height="25.2939" fill="white" transform="translate(0.558594 0.851562)"/>
</clipPath>
</defs>
</svg>
