<svg width="187" height="55" fill="none" xmlns="http://www.w3.org/2000/svg"><g clip-path="url(#a)"><path fill-rule="evenodd" clip-rule="evenodd" d="m14.162 49.087 9.93 5.796A6534.66 6534.66 0 0 0 47.516 41.17V13.706L24.075.027l-1.887 1.106c-1.326.778-2.62 1.536-3.88 2.27v3.375l.26-.152c1.895-1.11 3.685-2.158 5.507-3.206l5.535 3.233.004.003c5.008 2.925 10 5.84 14.982 8.747v24.123l-5.545 3.238-.018.01-.047.028-.033.02c-4.973 2.904-9.93 5.8-14.878 8.686-4.514-2.63-8.991-5.245-13.485-7.869l-.007-.004-.022-.013-.129-.075-6.947-4.057V12.062c-.572.328-1.096.634-1.6.928-.42.246-.826.483-1.232.716v27.499c4.494 2.618 8.988 5.242 13.492 7.872l.006.003.011.007Zm4.698-4.114.018.01 5.215 3.043 6.45-3.764c3.71-2.163 7.406-4.32 11.081-6.468V17.152c-2.928-1.705-5.846-3.41-8.765-5.116-2.92-1.705-5.839-3.41-8.766-5.116a4196.537 4196.537 0 0 0-8.827 5.143V5.188c-.702.419-1.344.792-1.95 1.144l-.917.535v10.25c3.986-2.315 7.848-4.56 11.694-6.804l3.966 2.316.024.014.004.003c3.602 2.104 7.172 4.19 10.723 6.256V36.08c-2.647 1.548-5.294 3.091-7.946 4.638l-.01.005c-2.248 1.311-4.501 2.625-6.761 3.945-4.912-2.88-9.806-5.743-14.752-8.624V8.652c-1.05.6-1.958 1.13-2.832 1.643v27.463c4.108 2.406 8.217 4.803 12.331 7.203l.01.006.005.003.005.003Zm14.06-20.946v-1.715h-.001a5403.133 5403.133 0 0 1-8.826-5.16c-1.469.857-2.93 1.71-4.39 2.564l-.005.003c-1.457.851-2.914 1.703-4.38 2.558V32.67c2.884 1.678 5.786 3.375 8.775 5.125 1.343-.79 2.69-1.574 4.043-2.363h.001l.001-.001c1.586-.924 3.179-1.853 4.782-2.797V30.92a355.08 355.08 0 0 0 2.866-1.679v5.09a5350.282 5350.282 0 0 1-7.396 4.32l-.005.004-.022.012-4.288 2.503-3.174-1.855H20.9l-.002-.002c-2.858-1.67-5.7-3.33-8.534-4.982V20.616a6866.96 6866.96 0 0 1 9.74-5.69l1.971-1.15c3.898 2.28 7.814 4.56 11.729 6.84v5.09a567.335 567.335 0 0 0-2.884-1.68ZM-8.96 67.73h8.407c.44-.591.84-1.122 1.239-1.651v-.001c.317-.419.632-.836.964-1.281-.803 0-1.583-.004-2.348-.008H-.716c-1.496-.008-2.933-.016-4.364.008-.315.007-.632.011-.948.016h-.004c-1.19.016-2.385.032-3.557.213-1.748.283-2.71 1.573-2.657 3.2.052 1.607 1.031 2.739 2.867 2.897 1.502.107 3.013.118 4.52.13h.001c.755.006 1.508.012 2.26.03.285 0 .57.052.875.108.162.03.33.061.506.086-.019.255-.032.47-.046.691l-.041.616h-9.09c-.75.99-1.398 1.839-2.184 2.864 1.149 0 2.268.001 3.367.004H-9.2c2.14.003 4.206.007 6.271-.005.665 0 1.346-.035 1.993-.158 2.027-.39 3.076-1.697 2.936-3.606-.122-1.661-1.223-2.598-3.303-2.668-1.279-.053-2.55-.068-3.82-.083h-.002c-.848-.01-1.694-.02-2.54-.041-.28 0-.552-.04-.842-.081a11.952 11.952 0 0 0-.452-.06v-1.22Zm37.313-44.605 1.543.9v2.74c-2.045-.901-3.933-1.732-5.995-2.633-.167.095-.366.211-.6.348h-.002v.001h-.001l-.001.001c-.33.192-.728.424-1.197.692 2.727.796 5.226 1.538 7.778 2.298v3.446c-.874.512-1.767 1.032-2.67 1.558h-.001c-1.03.6-2.072 1.206-3.114 1.818-1.259-.732-2.495-1.457-3.72-2.174-.698-.41-1.392-.816-2.083-1.22V28.34c.317.1.63.19.937.28.726.21 1.424.412 2.087.71.636.285 1.24.652 1.861 1.028.3.182.604.366.918.544.392-.221.783-.45 1.24-.717l.77-.449c-2.727-.813-5.244-1.555-7.796-2.297v-3.429a988.817 988.817 0 0 0 4.931-2.875l.855-.5c1.431.84 2.854 1.67 4.26 2.491Zm32.393 49.783h-9.054c0-.619 0-1.06.018-1.573h6.59c.278-.364.548-.724.831-1.101l.002-.002c.32-.426.656-.874 1.037-1.37h-8.478V67.59h6.922l.551-.725.005-.005.001-.002c.503-.659.999-1.31 1.523-2.008H48.406v10.71H58.72c.375-.498.763-1.004 1.184-1.552.267-.346.546-.709.843-1.099Zm-26.97 2.633H21.523c.487-.669.93-1.292 1.372-1.916l.534-.752h4.614a976.404 976.404 0 0 0-3.024-4.489c-1.094 1.57-2.167 3.096-3.233 4.611l-.002.003-.002.003-.002.003-1.795 2.555h-3.793c.075-.12.136-.23.193-.332.077-.14.146-.263.227-.374l1.797-2.567c1.447-2.067 2.897-4.138 4.355-6.2 1.434-2.049 3.217-2.032 4.632.019 1.988 2.89 3.958 5.781 5.928 8.672l.001.002h.001l.001.003h.001l.001.003.001.001.001.002.001.001.001.002.002.001v.002l.002.001.002.004.093.164c.095.168.2.353.344.579Zm-27.04.036v-2.846c.82 0 1.627.015 2.423.028 1.561.028 3.081.054 4.586-.028 2.377-.159 3.863-1.696 3.95-3.71.088-2.015-1.293-3.783-3.653-3.977-1.943-.16-3.894-.123-5.878-.086-.871.016-1.748.033-2.634.033-.298.392-.62.809-.966 1.258l-.001.001c-.325.42-.672.87-1.043 1.356H4.64c.637 0 1.274-.003 1.912-.005 2.124-.01 4.248-.019 6.373.076.507.018 1.468.194 1.468 1.149 0 .954-.961 1.202-1.486 1.237-1.35.102-2.72.084-4.088.067-.525-.008-1.05-.014-1.575-.014H3.52v5.46h3.216Zm40.36-10.78c-.388.518-.747.994-1.1 1.462-.332.442-.659.875-.998 1.33h-5.349c-1.888.017-3.199 1.078-3.233 2.616-.035 1.52 1.258 2.65 3.163 2.686 1.812.026 3.624.023 5.523.02h.012c.643-.002 1.297-.003 1.964-.003-.752.99-1.381 1.82-1.975 2.616-.736 0-1.469.02-2.197.04-1.624.045-3.226.09-4.795-.093-2.971-.353-4.964-2.704-4.981-5.337 0-2.634 1.905-4.613 5.086-5.196.542-.106 1.101-.106 1.643-.106 2.342-.035 4.684-.035 7.236-.035Zm-41.69-1.599h.001v.001c.209.03.413.06.612.095.26-.04.516-.072.764-.103.503-.062.983-.12 1.439-.25 1.328-.353 1.958-1.308 1.958-2.669-.018-1.325-.612-2.403-1.923-2.562a16.884 16.884 0 0 0-4.527.07c-1.276.195-1.748 1.273-1.73 2.58.017 1.273.559 2.157 1.765 2.51.542.166 1.103.249 1.642.328Zm.893-1.402c-.087-.002-.175-.004-.262-.004-1.905 0-2.587-.495-2.307-1.803.087-.389.524-.883.891-.99.717-.194 1.486-.194 2.237-.158.91.035 1.661.318 1.644 1.484-.018 1.167-.787 1.379-1.678 1.467-.175.012-.35.008-.525.004Zm36.81 1.322h-2.044c.335-.461.66-.916.982-1.365 1.02-1.425 1.992-2.784 3.056-4.06.192-.248 1.398-.09 1.678.264.879 1.123 1.68 2.308 2.508 3.527v.002h.001c.356.526.718 1.06 1.091 1.596h-6.38c.151-.213.289-.413.423-.608.178-.259.35-.509.539-.77h2.412l-.247-.37c-.469-.705-.879-1.32-1.326-1.998-.333.466-.654.92-.97 1.366l-.002.002-.002.004c-.58.818-1.142 1.61-1.718 2.41ZM55.52 63.1v-3.305c.632.568 1.215 1.1 1.776 1.612l.003.003h.001c.556.508 1.09.995 1.628 1.478.734.636 1.626.353 1.661-.566.049-1.11.038-2.214.027-3.325v-.004c-.005-.478-.01-.959-.01-1.442h-1.59v3.251c-.424-.38-.828-.745-1.219-1.1-.755-.685-1.464-1.329-2.19-1.957-.611-.53-1.433-.619-1.538.3-.124 1.178-.098 2.382-.073 3.581.01.493.021.985.021 1.474h1.503Zm-16.832-5.567h1.66v5.584h-1.625v-2.12h-3.391V63.1h-1.66v-5.55h1.59v1.892h3.408c.018-.654.018-1.255.018-1.909Zm-15.353 1.754c.726-.552 1.442-1.096 2.174-1.648-1.758-.664-2.794.253-3.877 1.211-.328.29-.66.584-1.018.84v-2.175h-1.608v5.55h1.678v-2.28c.35.268.677.57 1 .866 1.143 1.055 2.229 2.056 4.07 1.325a407.406 407.406 0 0 1-3.532-2.845l1.113-.844Zm9.162-1.248-.002.001-.001.002c-.25.326-.46.6-.675.887-.281 0-.567-.016-.852-.032-.657-.038-1.313-.075-1.91.085-.647.177-1.52.795-1.626 1.343-.192.973.717 1.344 1.626 1.36.79.013 1.586.01 2.444.005h.003c.452-.002.921-.004 1.416-.004-.201.28-.378.523-.549.756l-.003.004c-.183.253-.36.495-.55.76a49.03 49.03 0 0 0-1.235-.051h-.002c-.825-.027-1.654-.055-2.468-.16-1.45-.213-2.465-1.432-2.465-2.758 0-1.343 1.032-2.421 2.552-2.669.367-.053.752-.088 1.119-.106h3.618l-.44.577Zm-15.413 5.167c.384-.495.699-.901 1.153-1.52-.444 0-.868.012-1.278.024-.977.029-1.873.055-2.76-.094-.378-.06-.717-.42-1.059-.783-.163-.173-.327-.348-.496-.49.164-.149.32-.323.477-.498.345-.384.687-.765 1.096-.863.647-.16 1.336-.122 2.02-.085.296.016.591.032.882.032.35-.495.646-.901.996-1.378-.499 0-.983-.008-1.458-.016-1.104-.018-2.152-.035-3.191.051-1.486.124-2.5 1.255-2.535 2.562-.035 1.379.962 2.634 2.465 2.846.813.118 1.641.141 2.46.165.413.012.823.023 1.228.047Zm-21.36-5.69h1.608v4.153H1.72l-.541.712-.002.003c-.205.271-.382.505-.559.733h-4.894v-5.602Zm55.444.017v5.567h1.59v-5.567h-1.59ZM32.902 26.289l.3.169h.002c.178.1.36.202.572.326-.152.089-.285.17-.412.248-.151.092-.293.178-.444.264l-.206-.117c-.204-.116-.407-.232-.668-.377.209-.134.39-.24.561-.339.1-.059.198-.115.295-.174Zm.798 1.971.268-.15c-.02-.194-.034-.363-.049-.543a40.683 40.683 0 0 0-.038-.43c-.18.096-.325.182-.462.263-.114.068-.223.132-.342.197l.013.234c.013.232.026.464.04.755.221-.13.396-.228.57-.326Zm-1.794-.098v-.99c.297.16.542.283.804.407v.99l-.804-.407ZM-9.994 57.5c.968-.019 1.923-.038 2.87.035 1.73.142 2.202 1.273 1.433 2.35.611 0 .471 1.839.28 2.369-.158.441-.927.76-1.434.795-1.294.075-2.587.062-3.912.047-.537-.006-1.08-.012-1.629-.012V59.46h5.366l-.026-.22-.026-.221h-5.401c.386-.502.663-.872.926-1.223l.21-.28c.45 0 .898-.008 1.342-.017Zm-.679 4.1h2.78c.279 0 .786 0 .786-.477 0-.283-3.618-.212-3.618-.212s.035.53.052.689Z" fill="#0B0B0B"/></g><g clip-path="url(#b)"><path fill-rule="evenodd" clip-rule="evenodd" d="M101.595-3.363c5.996 3.518 12.003 7.041 18.026 10.57 14.278-8.347 28.428-16.693 42.516-25.008v-50.08l-42.548-24.943-3.426 2.016c-2.407 1.418-4.755 2.8-7.044 4.139v6.155l.472-.277c3.441-2.024 6.691-3.935 9.998-5.846l10.048 5.896.007.004c9.09 5.334 18.15 10.65 27.194 15.95v43.99l-10.065 5.905-.032.019-.086.05-.059.035a50061.658 50061.658 0 0 1-27.007 15.84c-8.195-4.796-16.321-9.564-24.478-14.349l-.014-.008-.04-.024-.233-.136c-4.19-2.46-8.39-4.923-12.611-7.397v-50.016c-1.038.597-1.99 1.156-2.904 1.692-.764.448-1.5.88-2.236 1.305v50.145c8.157 4.774 16.315 9.56 24.491 14.355l.011.006.02.012Zm8.528-7.502.031.019c3.154 1.848 6.309 3.697 9.467 5.55 3.909-2.293 7.813-4.581 11.71-6.865 6.732-3.944 13.442-7.876 20.113-11.795v-37.64c-5.314-3.11-10.613-6.22-15.911-9.33-5.299-3.11-10.598-6.22-15.912-9.33a7521.736 7521.736 0 0 0-16.023 9.378v-12.536a350.35 350.35 0 0 1-3.539 2.087h-.001c-.57.333-1.122.656-1.663.975v18.691a11726.26 11726.26 0 0 0 21.226-12.407c2.409 1.412 4.808 2.82 7.2 4.224l.042.025.009.005c6.538 3.837 13.018 7.64 19.464 11.408v31.324c-4.805 2.823-9.609 5.638-14.424 8.458l-.018.01c-4.082 2.39-8.171 4.786-12.273 7.194-8.916-5.253-17.8-10.474-26.779-15.726v-49.951a571.277 571.277 0 0 0-5.14 2.996v50.08c7.458 4.387 14.916 8.758 22.385 13.135l.018.011.008.005.01.005Zm25.521-38.196v-3.126h-.002c-5.33-3.126-10.66-6.252-16.021-9.41l-7.967 4.675-.011.006c-2.645 1.552-5.289 3.105-7.95 4.665v18.95a7830.218 7830.218 0 0 1 15.928 9.345c2.438-1.439 4.884-2.87 7.339-4.308l.002-.001.002-.002c2.878-1.685 5.77-3.378 8.68-5.1v-3.125a641.255 641.255 0 0 0 5.203-3.062v9.281c-4.442 2.614-8.923 5.24-13.426 7.88l-.01.005-.038.023c-2.588 1.517-5.184 3.038-7.784 4.564l-5.762-3.382-.002-.001-.004-.003c-5.188-3.045-10.347-6.074-15.49-9.086V-55.28c5.847-3.439 11.715-6.878 17.679-10.374l3.579-2.097c7.076 4.157 14.183 8.314 21.29 12.471v9.282c-1.809-1.064-3.458-2.03-5.235-3.062ZM59.622 30.636h15.262a454.573 454.573 0 0 1 2.248-3.011l.001-.003c.574-.763 1.146-1.524 1.749-2.335-1.457 0-2.874-.008-4.263-.015H74.587c-2.715-.015-5.325-.029-7.92.015-.574.013-1.148.02-1.723.029h-.006c-2.161.03-4.33.059-6.458.389-3.173.516-4.918 2.869-4.822 5.833.095 2.932 1.871 4.995 5.203 5.286 2.728.193 5.47.215 8.207.235 1.37.011 2.739.022 4.104.054.517 0 1.035.096 1.587.2.295.053.6.11.92.154-.035.466-.06.86-.085 1.261-.022.35-.045.706-.075 1.124H57.021a1215.019 1215.019 0 0 1-3.966 5.221c2.086 0 4.117.004 6.112.008H59.186c3.886.006 7.635.014 11.384-.008 1.206 0 2.443-.064 3.617-.29 3.68-.709 5.584-3.093 5.33-6.574-.222-3.03-2.22-4.738-5.997-4.866-2.32-.097-4.63-.124-6.934-.15h-.004c-1.538-.02-3.075-.037-4.61-.076-.508 0-1.002-.071-1.528-.147h-.001c-.263-.04-.534-.079-.82-.11v-2.224Zm67.732-81.34h.001l2.8 1.644v4.995a3625.632 3625.632 0 0 0-10.883-4.802c-.302.173-.664.386-1.089.634l-.003.002h-.001l-.001.001h-.001v.001h-.001c-.598.351-1.321.774-2.172 1.263 4.95 1.45 9.487 2.804 14.119 4.19v6.284c-1.586.933-3.207 1.881-4.847 2.84l-.003.001c-1.868 1.093-3.76 2.199-5.652 3.314-2.284-1.335-4.53-2.656-6.753-3.964-1.267-.746-2.526-1.487-3.781-2.224v-4.672c.576.182 1.143.347 1.701.51 1.318.383 2.584.751 3.788 1.294 1.155.522 2.252 1.19 3.379 1.875.545.332 1.097.668 1.666.993.711-.403 1.422-.82 2.252-1.308.428-.252.889-.522 1.397-.818-4.95-1.483-9.519-2.836-14.151-4.19v-6.252c2.854-1.656 5.87-3.43 8.95-5.242l1.552-.913c2.599 1.532 5.181 3.047 7.733 4.544Zm58.802 90.782H169.72c0-1.128 0-1.934.032-2.868h11.961c.506-.665.997-1.322 1.511-2.009l.001-.001.002-.002c.581-.778 1.191-1.593 1.882-2.5H169.72v-2.32h12.564l1.002-1.321.007-.01.003-.004a544.508 544.508 0 0 0 2.764-3.66h-22.305v19.53h18.72c.681-.91 1.385-1.831 2.151-2.83.483-.631.989-1.294 1.53-2.005Zm-48.958 4.802h-22.241c.884-1.22 1.687-2.358 2.49-3.496l.968-1.37h8.377a1868.76 1868.76 0 0 0-5.489-8.186 2565.124 2565.124 0 0 1-5.869 8.409l-.004.005-.004.005-.003.006c-1.089 1.556-2.174 3.105-3.258 4.66h-6.885c.134-.22.246-.422.35-.607.14-.254.265-.48.411-.682l3.263-4.68c2.627-3.769 5.258-7.546 7.906-11.305 2.601-3.738 5.838-3.706 8.408.032 3.607 5.271 7.183 10.544 10.76 15.815l.001.003.002.002.002.003.002.002.002.004.002.003.002.002.002.003.002.003.002.003.002.003.001.002.005.007.169.298c.172.307.363.645.624 1.056Zm-49.083.064v-5.189c1.489 0 2.953.026 4.398.051 2.834.05 5.593.1 8.325-.05 4.315-.29 7.012-3.094 7.17-6.768.159-3.674-2.348-6.897-6.631-7.25-3.527-.292-7.07-.225-10.67-.157-1.582.03-3.174.06-4.782.06-.54.715-1.124 1.474-1.754 2.294l-.002.002c-.589.767-1.218 1.586-1.892 2.473h2.03c1.157 0 2.314-.005 3.47-.01h.001c3.856-.017 7.712-.034 11.569.14.92.03 2.665.353 2.665 2.094 0 1.74-1.745 2.191-2.697 2.255-2.453.186-4.938.155-7.42.122-.955-.013-1.909-.025-2.86-.025h-6.758v9.958h5.838Zm73.261-19.657a741.88 741.88 0 0 1-1.995 2.667c-.603.804-1.197 1.595-1.813 2.425h-9.709c-3.426.031-5.806 1.965-5.87 4.769-.063 2.771 2.285 4.833 5.743 4.898 3.289.048 6.578.043 10.026.036H157.779c1.168-.002 2.354-.004 3.565-.004a778.85 778.85 0 0 0-3.586 4.77c-1.335 0-2.665.037-3.986.074-2.948.082-5.857.163-8.705-.171-5.394-.644-9.011-4.93-9.042-9.732 0-4.802 3.458-8.412 9.232-9.475.984-.193 1.999-.193 2.983-.193 4.252-.064 8.503-.064 13.136-.064Zm-75.674-2.915h.001v.001c.377.056.749.11 1.11.174.473-.075.936-.133 1.387-.188.913-.113 1.784-.22 2.611-.457 2.412-.644 3.554-2.385 3.554-4.866-.032-2.417-1.11-4.383-3.49-4.673a30.52 30.52 0 0 0-8.218.13c-2.316.354-3.173 2.32-3.14 4.705.03 2.32 1.014 3.93 3.204 4.576.984.302 2.002.453 2.98.598Zm1.62-2.557c-.16-.004-.318-.008-.477-.008-3.458 0-4.695-.902-4.188-3.287.159-.709.952-1.61 1.618-1.804 1.301-.355 2.697-.355 4.062-.29 1.65.064 3.014.58 2.982 2.707-.032 2.127-1.428 2.513-3.046 2.674-.317.022-.634.014-.952.008Zm66.819 2.41h-3.712c.608-.841 1.199-1.67 1.782-2.49h.001c1.851-2.598 3.616-5.075 5.546-7.404.349-.451 2.539-.161 3.046.484 1.596 2.048 3.052 4.207 4.553 6.43v.002h.001l.001.002v.001h.001c.646.959 1.302 1.93 1.98 2.91h-11.58c.273-.388.523-.753.767-1.11.323-.47.635-.927.978-1.404h4.378l-.447-.674c-.852-1.285-1.596-2.405-2.408-3.644-.604.851-1.188 1.679-1.762 2.492l-.003.004-.003.006c-1.053 1.492-2.072 2.936-3.119 4.394Zm22.528-.033v-6.026a516.23 516.23 0 0 1 3.224 2.94l.006.005.001.001h.001a446.21 446.21 0 0 0 2.954 2.693c1.333 1.161 2.951.645 3.015-1.03.088-2.027.068-4.038.049-6.065v-.006c-.009-.873-.017-1.75-.017-2.631h-2.888v5.93a512.77 512.77 0 0 1-2.212-2.007c-1.37-1.249-2.658-2.423-3.974-3.568-1.111-.967-2.602-1.128-2.793.547-.225 2.148-.178 4.343-.133 6.53.019.898.038 1.795.038 2.687h2.729ZM146.114 12.04h3.014v10.183h-2.95v-3.866h-6.156v3.834h-3.014V12.073h2.887v3.448h6.187c.032-1.192.032-2.288.032-3.48Zm-27.869 3.198c1.318-1.006 2.618-1.998 3.946-3.005-3.19-1.211-5.072.462-7.036 2.208-.596.53-1.199 1.066-1.848 1.53V12.01h-2.919v10.119h3.046V17.97c.635.488 1.228 1.038 1.813 1.58 2.076 1.923 4.046 3.747 7.388 2.415a726.885 726.885 0 0 1-6.409-5.188c.682-.518 1.352-1.031 2.019-1.54Zm16.631-2.276-.003.003-.002.003c-.454.595-.833 1.093-1.226 1.618-.51 0-1.028-.03-1.547-.06-1.191-.067-2.383-.135-3.466.157-1.174.322-2.761 1.45-2.951 2.449-.349 1.773 1.301 2.45 2.951 2.48 1.433.023 2.879.016 4.437.009h.005c.821-.004 1.673-.008 2.57-.008-.365.51-.686.953-.995 1.379l-.006.008c-.334.46-.653.9-.998 1.385a89.639 89.639 0 0 0-2.244-.093h-.004c-1.496-.05-3.001-.101-4.479-.293-2.633-.388-4.473-2.61-4.473-5.028 0-2.45 1.872-4.415 4.632-4.866a21.622 21.622 0 0 1 2.031-.194h6.567l-.799 1.05Zm-27.978 9.422c.698-.901 1.269-1.643 2.094-2.771-.806 0-1.576.023-2.32.044-1.775.052-3.4.1-5.009-.172-.688-.11-1.302-.766-1.923-1.428-.296-.315-.594-.633-.901-.893.297-.271.581-.59.865-.908.626-.7 1.248-1.396 1.99-1.573 1.174-.293 2.425-.224 3.667-.156.537.03 1.073.059 1.6.059.635-.902 1.174-1.644 1.809-2.514-.906 0-1.785-.014-2.646-.029-2.005-.033-3.907-.064-5.794.094-2.697.225-4.537 2.288-4.6 4.672-.064 2.514 1.745 4.802 4.473 5.189 1.476.215 2.98.258 4.466.3.75.022 1.495.044 2.229.086ZM68.126 12.01h2.919v7.573h7.963c-.373.492-.693.917-.981 1.3l-.003.005h-.002c-.37.495-.692.921-1.012 1.337h-8.884V12.01Zm100.642.032v10.15h2.887v-10.15h-2.887Zm-33.156-56.976.545.308h.002l.001.001c.322.18.655.367 1.038.593-.275.162-.518.31-.749.452-.273.168-.53.325-.805.483l-.373-.214h-.002c-.368-.212-.737-.423-1.212-.689.38-.243.709-.436 1.019-.617.183-.107.36-.21.536-.317Zm1.449 3.594.487-.275c-.037-.352-.063-.661-.09-.989-.021-.243-.042-.496-.069-.784-.329.176-.591.332-.839.48-.207.123-.404.24-.621.358l.024.427c.024.423.048.846.072 1.378.402-.237.719-.416 1.036-.595Zm-3.257-.178v-1.805c.539.29.983.516 1.459.741v1.805l-1.459-.741Zm-76.06 53.496c1.759-.034 3.492-.069 5.21.064 3.14.258 3.998 2.32 2.602 4.286 1.11 0 .856 3.352.507 4.318-.285.806-1.681 1.386-2.602 1.45-2.347.138-4.695.113-7.1.086-.975-.01-1.96-.02-2.957-.02v-6.607h9.74a64.453 64.453 0 0 1-.095-.806h-9.804c.7-.915 1.204-1.59 1.681-2.23l.381-.51c.819 0 1.63-.015 2.438-.031Zm-1.231 7.476h5.045c.508 0 1.428 0 1.428-.87 0-.515-6.568-.386-6.568-.386s.063.966.095 1.256Z" fill="#0B0B0B"/></g><defs><clipPath id="a"><path fill="#fff" transform="translate(.57 .027)" d="M0 0h47.458v54.947H0z"/></clipPath><clipPath id="b"><path fill="#fff" transform="translate(53.426 10.258)" d="M0 0h132.667v34.477H0z"/></clipPath></defs></svg>