<svg xmlns="http://www.w3.org/2000/svg" width="177" height="49" fill="none"><g fill="#0B0B0B" clip-path="url(#a)"><path d="M24.23 27.027 9.515 18.045l6.203-3.436 14.304 8.645V40.7l-15.06 8.196-14.473-8.82v-7.134l14.854 9.008 8.889-4.841V27.027Z"/><path d="M30.052 8.946v7.19L15.061 7.072l-8.882 4.829v10.063L20.85 30.92l-6.246 3.392-14.18-8.601V8.29L15.418.1l14.635 8.845ZM61.89 12.278v4.067a30.505 30.505 0 0 0-7.646-2.499C48.459 12.828 43.83 17.9 43 22.348a9.888 9.888 0 0 0 7.946 11.374c3.498.575 6.827-.312 9.994-1.78.437-.206.8-.625 1.411-.518v3.785c-4.247 1.761-8.507 3.248-13.254 1.961-6.728-1.811-10.75-7.714-9.995-14.81.738-6.87 5.89-11.868 12.7-12.255a19.47 19.47 0 0 1 10.087 2.173ZM81.29 28.282c0 4.997-4.016 8.808-9.182 8.789a8.79 8.79 0 1 1 0-17.565c5.185-.037 9.189 3.81 9.182 8.776Zm-3.279 0a5.71 5.71 0 0 0-5.797-5.621 5.8 5.8 0 0 0-5.902 5.703 5.753 5.753 0 0 0 5.946 5.509 5.667 5.667 0 0 0 5.753-5.603v.012ZM137.953 37.059c-5.135 0-9.12-3.886-9.101-8.87 0-4.854 4.066-8.708 9.132-8.689 5.066.019 9.144 3.898 9.169 8.745.025 4.847-4.091 8.814-9.2 8.814Zm0-3.186a5.625 5.625 0 0 0 5.057-3.611 5.617 5.617 0 0 0-1.36-6.064 5.617 5.617 0 0 0-6.115-1.107 5.62 5.62 0 0 0-3.398 5.204 5.66 5.66 0 0 0 3.624 5.204c.701.27 1.448.396 2.198.374h-.006ZM176.224 28.533h-11.793a4.995 4.995 0 0 0 4.566 5.621c2.498.169 4.685-.674 6.871-2.067v3.21a10.517 10.517 0 0 1-9.844 1.525 7.06 7.06 0 0 1-4.491-4.679 12.031 12.031 0 0 1-.344-6.902c1.143-4.672 5.116-6.64 9.607-5.89a5.219 5.219 0 0 1 3.61 2.436 11.581 11.581 0 0 1 1.818 6.746Zm-11.868-2.037h8.345c-.169-2.58-1.48-4.197-3.479-4.372-2.374-.163-4.06 1.299-4.879 4.372h.013ZM92.605 36.956h-3.367V19.652c1.006-.312 2.074-.119 3.124-.112.53.58 0 1.305.48 1.98a6.678 6.678 0 0 1 3.78-2.23c3.223-.662 6.564 1.418 6.771 4.678.262 4.304.062 8.633.062 12.974a15.058 15.058 0 0 1-3.167.062c-.387-.418-.244-.887-.244-1.318v-9.1c.003-.796-.064-1.59-.2-2.374a2.692 2.692 0 0 0-2.16-2.218c-2.212-.543-5.048 1.65-5.048 3.898l-.03 11.063ZM105.309 35.526v-3.173c1.093.468 2.117.912 3.154 1.343a4.686 4.686 0 0 0 3.748 0c1.249-.544 1.455-1.643.468-2.599a9.894 9.894 0 0 0-2.317-1.58 15.233 15.233 0 0 1-2.911-1.812 4.943 4.943 0 0 1-1.655-5.24 5.107 5.107 0 0 1 4.566-3.292 9.109 9.109 0 0 1 5.497 1.624v3.123c-.981-.125-1.718-.75-2.574-1.068-.856-.319-1.73-.743-2.729-.437a1.79 1.79 0 0 0-1.425 1.361 1.542 1.542 0 0 0 .787 1.643 59.604 59.604 0 0 0 2.499 1.63 19.254 19.254 0 0 1 2.68 1.874c1.374 1.219 2.073 2.643 1.524 4.517a4.608 4.608 0 0 1-3.492 3.329c-2.767.743-5.266-.125-7.82-1.243Z"/><path d="M119.874 22.745h-3.479l6.789-6.296v2.961h5.535v3.317h-5.491c.1 3.254-.219 6.421.187 9.57.194 1.517 1.25 2.136 2.811 1.967a7.49 7.49 0 0 0 3.223-1.462v2.811c-1.967 1.83-5.827 1.986-7.939.275a4.256 4.256 0 0 1-1.636-3.517c.006-3.136 0-6.265 0-9.626ZM159.748 24.35c-.344-.38-.519-.624-.737-.811-1.831-1.6-3.323-1.487-4.829.4-1.146 1.253-1.661 2.938-1.699 4.603.038 4.924.038 5.54.038 8.389a13.418 13.418 0 0 1-3.392.031V19.58h3.223c.412.955 0 2.017.269 3.123 1.33-1.2 2.342-2.842 4.197-3.123a5.535 5.535 0 0 1 4.841 1.686l-1.911 3.086ZM82.59 19.559h3.292v17.358a12.024 12.024 0 0 1-3.292.069V19.559ZM86.335 14.432a2.024 2.024 0 0 1-2.111 2.043 1.993 1.993 0 0 1-2.074-2.074 2.093 2.093 0 1 1 4.185.031Z"/></g><defs><clipPath id="a"><path fill="#fff" d="M.43.102h175.804v48.797H.43z"/></clipPath></defs></svg>