<svg width="183" height="55" viewBox="0 0 183 55" fill="none" xmlns="http://www.w3.org/2000/svg">
<g clip-path="url(#clip0_3269_2207)">
<path d="M33.2267 37.0053V52.8529H17.6165V37.0053H33.2267ZM113.073 18.8279C118.238 18.8279 120.741 22.8165 120.741 27.6737C120.741 32.1448 118.523 36.3586 113.675 36.3586C111.647 36.3586 109.47 35.6327 108.3 33.9169L108.194 33.7531H108.13V42.052H104.518V19.2782H107.94V21.5299H108.003C109.017 19.6321 110.982 18.8279 113.073 18.8279ZM76.3189 18.8279C81.4205 18.8279 84.5744 23.4417 84.0703 28.3599L84.0499 28.5421H72.0098C72.0098 31.1476 73.404 33.4636 76.414 33.4636C78.4418 33.4636 79.695 32.5865 80.3469 30.8615L80.4062 30.6973H83.8281C83.036 34.3321 79.9944 36.3586 76.414 36.3586C71.2811 36.3586 68.3978 32.7238 68.3978 27.6093C68.3978 22.8809 71.4395 18.8279 76.3189 18.8279ZM93.9355 18.8279C99.0371 18.8279 102.191 23.4417 101.687 28.3599L101.667 28.5421H89.6264C89.6264 31.1476 91.0205 33.4636 94.0305 33.4636C96.0584 33.4636 97.3115 32.5865 97.9634 30.8615L98.0229 30.6973H101.445C100.653 34.3321 97.6109 36.3586 94.0305 36.3586C88.8976 36.3586 86.0144 32.7238 86.0144 27.6093C86.0144 22.8809 89.0561 18.8279 93.9355 18.8279ZM131.07 18.8279C134.809 18.8279 137.996 20.6941 138.433 24.6406L138.452 24.843H134.84C134.555 22.8165 133.098 21.7229 131.101 21.7229L130.927 21.7258C130.897 21.7268 130.868 21.728 130.838 21.7296L130.658 21.742C130.628 21.7446 130.598 21.7475 130.567 21.7508L130.383 21.7739C130.321 21.7829 130.259 21.7931 130.197 21.8048L130.01 21.8441C128.351 22.2292 126.602 23.6524 126.602 27.7702C126.602 30.5365 127.806 33.4636 130.943 33.4636C132.983 33.4636 134.42 32.1165 134.813 29.8404L134.84 29.668H138.452C137.787 33.9783 135.157 36.3586 130.943 36.3586C125.81 36.3586 122.99 32.6594 122.99 27.7702C122.99 22.7522 125.683 18.8279 131.07 18.8279ZM148.908 18.8279C154.168 18.8279 157.178 22.4949 157.178 27.5772C157.178 32.6916 154.168 36.3586 148.908 36.3586C143.649 36.3586 140.639 32.6916 140.639 27.5772C140.639 22.4949 143.649 18.8279 148.908 18.8279ZM56.1992 12.9415C63.0924 12.9415 66.1125 17.9744 66.1788 24.2141L66.1798 24.4249C66.1798 30.6912 63.2363 35.7937 56.4301 35.9063L56.1992 35.9082H46.8206V12.9415H56.1992ZM163.895 19.2782V35.9082H160.283V19.2782H163.895ZM176.41 18.8279C179.897 18.8279 182.129 20.6908 182.207 24.2945L182.209 24.4892V35.9082H178.597V25.4542C178.533 22.8487 177.519 21.7229 175.397 21.7229C173.04 21.7229 171.502 23.5716 171.438 25.9422L171.436 26.0975V35.9082H167.824V19.2782H171.246V21.7229L171.309 21.7872C172.386 19.9537 174.256 18.8279 176.41 18.8279ZM16.0555 19.573V35.4205H0.445312V19.573H16.0555ZM33.2267 19.573C33.2267 28.2378 26.3769 35.2785 17.8747 35.4184L17.6165 35.4205V19.573H33.2267ZM112.598 21.7229C109.556 21.7229 108.003 24.071 108.003 27.6093C108.003 30.9546 109.683 33.4636 112.598 33.4636C115.893 33.4636 117.129 30.5043 117.129 27.6093C117.129 24.5857 115.576 21.7229 112.598 21.7229ZM148.908 21.7229C145.676 21.7229 144.251 24.7144 144.251 27.5772C144.251 30.4721 145.676 33.4636 148.908 33.4636C152.14 33.4636 153.566 30.4721 153.566 27.5772C153.566 24.7144 152.14 21.7229 148.908 21.7229ZM54.6784 16.2224H50.7812V32.6273H54.6784C59.467 32.6273 61.3543 30.4853 61.9675 27.3957L62.0214 27.1033C62.0297 27.0542 62.0378 27.0048 62.0455 26.9551L62.0887 26.6548C62.0953 26.6044 62.1016 26.5537 62.1077 26.5028L62.141 26.1951C62.146 26.1434 62.1507 26.0915 62.1552 26.0394L62.179 25.7248C62.1825 25.672 62.1858 25.619 62.1888 25.5658L62.2041 25.2447L62.2139 24.9196L62.2187 24.5907V24.259L62.2139 23.9301L62.2041 23.605L62.1888 23.2839C62.1858 23.2307 62.1825 23.1777 62.179 23.1249L62.1552 22.8103L62.1252 22.5002C62.1196 22.4489 62.1138 22.3978 62.1077 22.3469L62.068 22.0441C62.0536 21.944 62.0381 21.8447 62.0214 21.7464L61.9675 21.454C61.3639 18.4127 59.5256 16.2896 54.9007 16.224L54.6784 16.2224ZM76.3189 21.7229C73.868 21.7229 72.1765 23.5733 72.0179 25.9756L72.0098 26.1297H80.4379C80.3112 23.8137 78.7587 21.7229 76.3189 21.7229ZM93.9355 21.7229C91.4846 21.7229 89.7932 23.5733 89.6345 25.9756L89.6264 26.1297H98.0545C97.9278 23.8137 96.3752 21.7229 93.9355 21.7229ZM16.0555 2.14062V17.9882H0.445312V2.14062H16.0555ZM17.6165 2.14062C26.1516 2.14062 33.0868 9.09463 33.2247 17.7261L33.2267 17.9882H17.6165V2.14062ZM163.895 12.9415V16.4154H160.283V12.9415H163.895Z" fill="#141414"/>
</g>
<defs>
<clipPath id="clip0_3269_2207">
<rect width="181.763" height="53.1689" fill="white" transform="translate(0.449219 0.914062)"/>
</clipPath>
</defs>
</svg>
