<svg xmlns="http://www.w3.org/2000/svg" width="228" height="33" fill="none"><path stroke="#0B0B0B" stroke-miterlimit="10" stroke-width=".954" d="M44.228.754H35.64l-2.825 2.863-.038 28.627H55.68l2.863-2.863v-5.725H44.228V.754ZM75.717.754h-8.589l-2.862 2.863v28.627H87.13l2.863-2.863v-5.725H75.717V.754ZM107.17 29.381l-2.863 2.863h-8.588l.037-28.627L98.582.754h8.588V29.38ZM138.659 20.793h-14.313v8.588l-2.863 2.863h-8.588V3.617l2.862-2.863h25.765V17.93l-2.863 2.863ZM147.211 9.342V3.617l2.863-2.863h28.627v5.725l-2.863 2.863h-8.588v20.04l-2.863 2.862h-8.588V9.342h-8.588ZM213.019 9.342h11.451l2.863-2.863V.754h-22.902l-2.826 2.863v28.627h22.865l2.863-2.863v-5.725h-14.314V9.342ZM12.775 9.342v2.863h11.451v5.725l-2.863 2.863h-8.588v2.863H27.09v5.725l-2.863 2.863H1.324V3.617L4.187.754h22.902v5.725l-2.863 2.863h-11.45Z"/><path fill="#0B0B0B" d="M1.324 3.617h22.902V9.72H9.912v5.35h11.451v6.14H9.913v5.31h14.313v5.726H1.324V3.617Z"/><path stroke="#0B0B0B" stroke-miterlimit="10" stroke-width=".954" d="m195.877 29.381-2.863 2.863h-8.588V3.617l2.863-2.863h8.55l.038 28.627ZM124.348 9.344v2.863h8.588"/><path fill="#0B0B0B" d="M32.777 3.617h8.589V26.52h14.313v5.726H32.777V3.617ZM64.266 3.617h8.588V26.52h14.314v5.726H64.266V3.617ZM95.719 3.617h8.588v28.628h-8.588V3.617ZM184.426 3.617h8.588v28.628h-8.588V3.617ZM138.659 3.617h-25.764v28.59h8.588V21.133h17.176V3.617Zm-5.725 11.451h-11.451V9.343h11.451v5.725ZM152.936 3.617h-5.725v5.726h8.588v22.902h8.588V9.832h11.451V3.617h-22.902ZM224.47 3.617h-22.865v28.628h22.865v-5.726h-14.314V9.757h14.314v-6.14Z"/></svg>