<svg width="192" height="49" viewBox="0 0 192 49" fill="none" xmlns="http://www.w3.org/2000/svg">
<path d="M179.93 30.7307C178.966 30.7307 178.076 30.4945 177.294 30.0402C176.513 29.5858 175.877 28.9316 175.423 28.0956C174.968 27.2597 174.732 26.2965 174.732 25.2243C174.732 24.1521 174.968 23.1889 175.423 22.353C175.877 21.517 176.495 20.8809 177.294 20.4084C178.076 19.9541 178.966 19.7179 179.93 19.7179C180.893 19.7179 181.783 19.9541 182.565 20.4084C183.346 20.8628 183.982 21.517 184.436 22.353C184.891 23.1889 185.127 24.1521 185.127 25.2243C185.127 26.3147 184.891 27.2597 184.436 28.0956C183.982 28.9316 183.346 29.5677 182.565 30.0402C181.783 30.5127 180.893 30.7307 179.93 30.7307ZM179.93 35.2377C181.965 35.2377 183.8 34.8015 185.418 33.9474C187.035 33.0932 188.307 31.8938 189.234 30.3673C190.161 28.8407 190.615 27.1325 190.615 25.2243C190.615 23.3161 190.161 21.6079 189.234 20.0813C188.307 18.5548 187.035 17.3735 185.418 16.5012C183.8 15.6471 181.965 15.2109 179.93 15.2109C177.894 15.2109 176.059 15.6471 174.441 16.5012C172.824 17.3554 171.552 18.5548 170.625 20.0813C169.698 21.6079 169.244 23.3161 169.244 25.2243C169.244 27.1325 169.698 28.8407 170.625 30.3673C171.552 31.8938 172.824 33.0751 174.441 33.9474C176.059 34.8197 177.894 35.2377 179.93 35.2377ZM160.412 30.0947C159.503 30.5127 158.522 30.7307 157.468 30.7307C156.414 30.7307 155.469 30.4945 154.633 30.022C153.815 29.5495 153.161 28.9134 152.706 28.0775C152.252 27.2415 152.016 26.2965 152.016 25.2243C152.016 23.5524 152.525 22.2257 153.524 21.2262C154.524 20.2267 155.868 19.736 157.504 19.736C159.321 19.736 160.884 20.4448 162.174 21.8805L165.646 18.7547C164.701 17.6098 163.501 16.7556 162.065 16.1378C160.63 15.5381 159.031 15.2291 157.231 15.2291C155.178 15.2291 153.342 15.6471 151.707 16.5012C150.071 17.3554 148.799 18.5366 147.89 20.0631C146.982 21.5897 146.509 23.3161 146.509 25.2243C146.509 27.1506 146.964 28.8771 147.89 30.3855C148.799 31.912 150.071 33.0932 151.689 33.9474C153.306 34.8015 155.123 35.2195 157.141 35.2195C158.576 35.2195 159.994 35.0014 161.429 34.5834C162.865 34.1655 164.119 33.5657 165.228 32.7661V24.7881H160.412V30.0947ZM137.314 22.7346C137.314 23.6251 137.023 24.3338 136.46 24.8063C135.896 25.297 135.042 25.5332 133.934 25.5332H130.917V19.8996H133.934C135.042 19.8996 135.896 20.154 136.46 20.6447C137.023 21.1354 137.314 21.8441 137.314 22.7346ZM137.368 34.856H143.202L139.058 28.8044C140.276 28.2229 141.203 27.4051 141.857 26.3692C142.511 25.3333 142.838 24.1157 142.838 22.7346C142.838 21.2807 142.493 20.0268 141.802 18.9546C141.112 17.8824 140.112 17.0646 138.84 16.4831C137.55 15.9015 136.042 15.6107 134.297 15.6107H125.465V34.856H130.917V29.7494H133.879L137.368 34.856ZM111.09 35.2377C113.943 35.2377 116.178 34.4562 117.759 32.8933C119.341 31.3305 120.14 29.1315 120.14 26.2602V15.6107H114.779V26.1148C114.779 29.186 113.561 30.7307 111.144 30.7307C108.709 30.7307 107.492 29.186 107.492 26.1148V15.6107H102.04V26.2783C102.04 29.1315 102.839 31.3486 104.42 32.9115C106.001 34.4562 108.237 35.2377 111.09 35.2377ZM96.715 34.856V15.6107H92.2263L85.6295 26.7145L78.8691 15.6107H74.3985V34.856H79.4325V24.9335L84.3574 32.966H86.7562L91.6993 24.6609V34.856H96.715ZM59.5511 30.6581V27.1325H68.0924V23.0617H59.5511V19.8269H69.2555V15.6107H54.1719V34.856H69.619V30.6581H59.5511Z" fill="#0B0B0B"/>
<path d="M33.8199 13.8625C36.2187 13.8625 38.1633 11.9179 38.1633 9.51915C38.1633 7.12037 36.2187 5.17578 33.8199 5.17578C31.4212 5.17578 29.4766 7.12037 29.4766 9.51915C29.4766 11.9179 31.4212 13.8625 33.8199 13.8625Z" fill="url(#paint0_linear_3353_3827)"/>
<path d="M40.8705 23.1668C43.0686 23.1668 44.8504 21.385 44.8504 19.1869C44.8504 16.9889 43.0686 15.207 40.8705 15.207C38.6725 15.207 36.8906 16.9889 36.8906 19.1869C36.8906 21.385 38.6725 23.1668 40.8705 23.1668Z" fill="url(#paint1_linear_3353_3827)"/>
<path d="M40.8703 35.2368C42.8677 35.2368 44.4868 33.6177 44.4868 31.6203C44.4868 29.623 42.8677 28.0039 40.8703 28.0039C38.873 28.0039 37.2539 29.623 37.2539 31.6203C37.2539 33.6177 38.873 35.2368 40.8703 35.2368Z" fill="url(#paint2_linear_3353_3827)"/>
<path d="M33.8233 44.5411C35.6199 44.5411 37.0763 43.0847 37.0763 41.2881C37.0763 39.4916 35.6199 38.0352 33.8233 38.0352C32.0267 38.0352 30.5703 39.4916 30.5703 41.2881C30.5703 43.0847 32.0267 44.5411 33.8233 44.5411Z" fill="url(#paint3_linear_3353_3827)"/>
<path d="M22.1864 47.9704C23.7822 47.9704 25.0759 46.6768 25.0759 45.0809C25.0759 43.4851 23.7822 42.1914 22.1864 42.1914C20.5906 42.1914 19.2969 43.4851 19.2969 45.0809C19.2969 46.6768 20.5906 47.9704 22.1864 47.9704Z" fill="url(#paint4_linear_3353_3827)"/>
<path d="M10.5768 43.8099C11.9719 43.8099 13.1029 42.679 13.1029 41.2839C13.1029 39.8888 11.9719 38.7578 10.5768 38.7578C9.18174 38.7578 8.05078 39.8888 8.05078 41.2839C8.05078 42.679 9.18174 43.8099 10.5768 43.8099Z" fill="url(#paint5_linear_3353_3827)"/>
<path d="M3.52588 33.7822C4.72025 33.7822 5.68847 32.814 5.68847 31.6196C5.68847 30.4253 4.72025 29.457 3.52588 29.457C2.33151 29.457 1.36328 30.4253 1.36328 31.6196C1.36328 32.814 2.33151 33.7822 3.52588 33.7822Z" fill="url(#paint6_linear_3353_3827)"/>
<path d="M3.5257 20.985C4.51933 20.985 5.32483 20.1795 5.32483 19.1859C5.32483 18.1922 4.51933 17.3867 3.5257 17.3867C2.53206 17.3867 1.72656 18.1922 1.72656 19.1859C1.72656 20.1795 2.53206 20.985 3.5257 20.985Z" fill="url(#paint7_linear_3353_3827)"/>
<path d="M10.5763 10.9573C11.3692 10.9573 12.012 10.3145 12.012 9.52161C12.012 8.72871 11.3692 8.08594 10.5763 8.08594C9.7834 8.08594 9.14062 8.72871 9.14062 9.52161C9.14062 10.3145 9.7834 10.9573 10.5763 10.9573Z" fill="url(#paint8_linear_3353_3827)"/>
<path d="M22.1873 10.4293C24.7868 10.4293 26.8941 8.32196 26.8941 5.72245C26.8941 3.12294 24.7868 1.01562 22.1873 1.01562C19.5878 1.01562 17.4805 3.12294 17.4805 5.72245C17.4805 8.32196 19.5878 10.4293 22.1873 10.4293Z" fill="url(#paint9_linear_3353_3827)"/>
<path d="M28.2582 20.1375C29.5831 20.1375 30.6571 19.0635 30.6571 17.7387C30.6571 16.4138 29.5831 15.3398 28.2582 15.3398C26.9334 15.3398 25.8594 16.4138 25.8594 17.7387C25.8594 19.0635 26.9334 20.1375 28.2582 20.1375Z" fill="url(#paint10_linear_3353_3827)"/>
<path d="M32.1638 25.2807C33.3782 25.2807 34.3627 24.2962 34.3627 23.0818C34.3627 21.8673 33.3782 20.8828 32.1638 20.8828C30.9493 20.8828 29.9648 21.8673 29.9648 23.0818C29.9648 24.2962 30.9493 25.2807 32.1638 25.2807Z" fill="url(#paint11_linear_3353_3827)"/>
<path d="M32.1631 31.9864C33.2671 31.9864 34.1621 31.0914 34.1621 29.9873C34.1621 28.8833 33.2671 27.9883 32.1631 27.9883C31.0591 27.9883 30.1641 28.8833 30.1641 29.9873C30.1641 31.0914 31.0591 31.9864 32.1631 31.9864Z" fill="url(#paint12_linear_3353_3827)"/>
<path d="M28.2562 37.1295C29.2498 37.1295 30.0553 36.324 30.0553 35.3304C30.0553 34.3368 29.2498 33.5312 28.2562 33.5312C27.2625 33.5312 26.457 34.3368 26.457 35.3304C26.457 36.324 27.2625 37.1295 28.2562 37.1295Z" fill="url(#paint13_linear_3353_3827)"/>
<path d="M21.8219 39.0383C22.7051 39.0383 23.4211 38.3223 23.4211 37.4391C23.4211 36.5558 22.7051 35.8398 21.8219 35.8398C20.9387 35.8398 20.2227 36.5558 20.2227 37.4391C20.2227 38.3223 20.9387 39.0383 21.8219 39.0383Z" fill="url(#paint14_linear_3353_3827)"/>
<path d="M15.372 36.7283C16.1448 36.7283 16.7713 36.1018 16.7713 35.329C16.7713 34.5562 16.1448 33.9297 15.372 33.9297C14.5992 33.9297 13.9727 34.5562 13.9727 35.329C13.9727 36.1018 14.5992 36.7283 15.372 36.7283Z" fill="url(#paint15_linear_3353_3827)"/>
<path d="M11.465 31.184C12.1275 31.184 12.6645 30.647 12.6645 29.9846C12.6645 29.3222 12.1275 28.7852 11.465 28.7852C10.8026 28.7852 10.2656 29.3222 10.2656 29.9846C10.2656 30.647 10.8026 31.184 11.465 31.184Z" fill="url(#paint16_linear_3353_3827)"/>
<path d="M11.4683 24.0811C12.0203 24.0811 12.4678 23.6336 12.4678 23.0816C12.4678 22.5295 12.0203 22.082 11.4683 22.082C10.9163 22.082 10.4688 22.5295 10.4688 23.0816C10.4688 23.6336 10.9163 24.0811 11.4683 24.0811Z" fill="url(#paint17_linear_3353_3827)"/>
<path d="M15.3699 18.5367C15.8115 18.5367 16.1695 18.1787 16.1695 17.7371C16.1695 17.2955 15.8115 16.9375 15.3699 16.9375C14.9283 16.9375 14.5703 17.2955 14.5703 17.7371C14.5703 18.1787 14.9283 18.5367 15.3699 18.5367Z" fill="url(#paint18_linear_3353_3827)"/>
<path d="M21.8279 18.2456C23.2731 18.2456 24.4448 17.0739 24.4448 15.6286C24.4448 14.1834 23.2731 13.0117 21.8279 13.0117C20.3826 13.0117 19.2109 14.1834 19.2109 15.6286C19.2109 17.0739 20.3826 18.2456 21.8279 18.2456Z" fill="url(#paint19_linear_3353_3827)"/>
<path d="M24.5982 23.7511C25.2004 23.7511 25.6886 23.2629 25.6886 22.6607C25.6886 22.0585 25.2004 21.5703 24.5982 21.5703C23.996 21.5703 23.5078 22.0585 23.5078 22.6607C23.5078 23.2629 23.996 23.7511 24.5982 23.7511Z" fill="url(#paint20_linear_3353_3827)"/>
<path d="M26.3667 26.0811C26.9187 26.0811 27.3662 25.6336 27.3662 25.0816C27.3662 24.5295 26.9187 24.082 26.3667 24.082C25.8147 24.082 25.3672 24.5295 25.3672 25.0816C25.3672 25.6336 25.8147 26.0811 26.3667 26.0811Z" fill="url(#paint21_linear_3353_3827)"/>
<path d="M26.3618 29.0907C26.8636 29.0907 27.2704 28.6839 27.2704 28.1821C27.2704 27.6803 26.8636 27.2734 26.3618 27.2734C25.8599 27.2734 25.4531 27.6803 25.4531 28.1821C25.4531 28.6839 25.8599 29.0907 26.3618 29.0907Z" fill="url(#paint22_linear_3353_3827)"/>
<path d="M24.6029 31.4207C25.0546 31.4207 25.4207 31.0546 25.4207 30.6029C25.4207 30.1513 25.0546 29.7852 24.6029 29.7852C24.1513 29.7852 23.7852 30.1513 23.7852 30.6029C23.7852 31.0546 24.1513 31.4207 24.6029 31.4207Z" fill="url(#paint23_linear_3353_3827)"/>
<path d="M21.7113 32.2742C22.1128 32.2742 22.4382 31.9487 22.4382 31.5472C22.4382 31.1458 22.1128 30.8203 21.7113 30.8203C21.3098 30.8203 20.9844 31.1458 20.9844 31.5472C20.9844 31.9487 21.3098 32.2742 21.7113 32.2742Z" fill="url(#paint24_linear_3353_3827)"/>
<path d="M18.804 31.2409C19.1553 31.2409 19.4401 30.9561 19.4401 30.6048C19.4401 30.2535 19.1553 29.9688 18.804 29.9688C18.4527 29.9688 18.168 30.2535 18.168 30.6048C18.168 30.9561 18.4527 31.2409 18.804 31.2409Z" fill="url(#paint25_linear_3353_3827)"/>
<path d="M17.0413 28.731C17.3424 28.731 17.5865 28.4869 17.5865 28.1858C17.5865 27.8847 17.3424 27.6406 17.0413 27.6406C16.7402 27.6406 16.4961 27.8847 16.4961 28.1858C16.4961 28.4869 16.7402 28.731 17.0413 28.731Z" fill="url(#paint26_linear_3353_3827)"/>
<path d="M17.0403 25.5297C17.2912 25.5297 17.4946 25.3263 17.4946 25.0754C17.4946 24.8245 17.2912 24.6211 17.0403 24.6211C16.7893 24.6211 16.5859 24.8245 16.5859 25.0754C16.5859 25.3263 16.7893 25.5297 17.0403 25.5297Z" fill="url(#paint27_linear_3353_3827)"/>
<path d="M18.8049 23.0238C19.0056 23.0238 19.1683 22.8611 19.1683 22.6603C19.1683 22.4596 19.0056 22.2969 18.8049 22.2969C18.6041 22.2969 18.4414 22.4596 18.4414 22.6603C18.4414 22.8611 18.6041 23.0238 18.8049 23.0238Z" fill="url(#paint28_linear_3353_3827)"/>
<path d="M21.7164 22.8937C22.3688 22.8937 22.8977 22.3649 22.8977 21.7125C22.8977 21.0601 22.3688 20.5312 21.7164 20.5312C21.064 20.5312 20.5352 21.0601 20.5352 21.7125C20.5352 22.3649 21.064 22.8937 21.7164 22.8937Z" fill="url(#paint29_linear_3353_3827)"/>
<defs>
<linearGradient id="paint0_linear_3353_3827" x1="3.77214" y1="39.5658" x2="37.439" y2="5.89867" gradientUnits="userSpaceOnUse">
<stop stop-color="#FFD363"/>
<stop offset="1" stop-color="#FF1055"/>
</linearGradient>
<linearGradient id="paint1_linear_3353_3827" x1="12.0561" y1="47.9948" x2="45.723" y2="14.3277" gradientUnits="userSpaceOnUse">
<stop stop-color="#FFD363"/>
<stop offset="1" stop-color="#FF1055"/>
</linearGradient>
<linearGradient id="paint2_linear_3353_3827" x1="18.2212" y1="54.2713" x2="51.8881" y2="20.6042" gradientUnits="userSpaceOnUse">
<stop stop-color="#FFD363"/>
<stop offset="1" stop-color="#FF1055"/>
</linearGradient>
<linearGradient id="paint3_linear_3353_3827" x1="19.5178" y1="55.5867" x2="53.1847" y2="21.9196" gradientUnits="userSpaceOnUse">
<stop stop-color="#FFD363"/>
<stop offset="1" stop-color="#FF1055"/>
</linearGradient>
<linearGradient id="paint4_linear_3353_3827" x1="15.6332" y1="51.6357" x2="49.3002" y2="17.9686" gradientUnits="userSpaceOnUse">
<stop stop-color="#FFD363"/>
<stop offset="1" stop-color="#FF1055"/>
</linearGradient>
<linearGradient id="paint5_linear_3353_3827" x1="7.99444" y1="43.8618" x2="41.6614" y2="10.1947" gradientUnits="userSpaceOnUse">
<stop stop-color="#FFD363"/>
<stop offset="1" stop-color="#FF1055"/>
</linearGradient>
<linearGradient id="paint6_linear_3353_3827" x1="-0.289959" y1="35.4363" x2="33.377" y2="1.76918" gradientUnits="userSpaceOnUse">
<stop stop-color="#FFD363"/>
<stop offset="1" stop-color="#FF1055"/>
</linearGradient>
<linearGradient id="paint7_linear_3353_3827" x1="-6.45603" y1="29.1588" x2="27.2109" y2="-4.50828" gradientUnits="userSpaceOnUse">
<stop stop-color="#FFD363"/>
<stop offset="1" stop-color="#FF1055"/>
</linearGradient>
<linearGradient id="paint8_linear_3353_3827" x1="-7.74999" y1="27.846" x2="25.9169" y2="-5.82106" gradientUnits="userSpaceOnUse">
<stop stop-color="#FFD363"/>
<stop offset="1" stop-color="#FF1055"/>
</linearGradient>
<linearGradient id="paint9_linear_3353_3827" x1="-3.87191" y1="31.7919" x2="29.795" y2="-1.8752" gradientUnits="userSpaceOnUse">
<stop stop-color="#FFD363"/>
<stop offset="1" stop-color="#FF1055"/>
</linearGradient>
<linearGradient id="paint10_linear_3353_3827" x1="5.08616" y1="40.9094" x2="38.7531" y2="7.24226" gradientUnits="userSpaceOnUse">
<stop stop-color="#FFD363"/>
<stop offset="1" stop-color="#FF1055"/>
</linearGradient>
<linearGradient id="paint11_linear_3353_3827" x1="9.67565" y1="45.5809" x2="43.3426" y2="11.9138" gradientUnits="userSpaceOnUse">
<stop stop-color="#FFD363"/>
<stop offset="1" stop-color="#FF1055"/>
</linearGradient>
<linearGradient id="paint12_linear_3353_3827" x1="13.0916" y1="49.0573" x2="46.7585" y2="15.3902" gradientUnits="userSpaceOnUse">
<stop stop-color="#FFD363"/>
<stop offset="1" stop-color="#FF1055"/>
</linearGradient>
<linearGradient id="paint13_linear_3353_3827" x1="13.8082" y1="49.7866" x2="47.4751" y2="16.1195" gradientUnits="userSpaceOnUse">
<stop stop-color="#FFD363"/>
<stop offset="1" stop-color="#FF1055"/>
</linearGradient>
<linearGradient id="paint14_linear_3353_3827" x1="11.6578" y1="47.6007" x2="45.3247" y2="13.9335" gradientUnits="userSpaceOnUse">
<stop stop-color="#FFD363"/>
<stop offset="1" stop-color="#FF1055"/>
</linearGradient>
<linearGradient id="paint15_linear_3353_3827" x1="7.42441" y1="43.2899" x2="41.0914" y2="9.62284" gradientUnits="userSpaceOnUse">
<stop stop-color="#FFD363"/>
<stop offset="1" stop-color="#FF1055"/>
</linearGradient>
<linearGradient id="paint16_linear_3353_3827" x1="2.83354" y1="38.617" x2="36.5005" y2="4.9499" gradientUnits="userSpaceOnUse">
<stop stop-color="#FFD363"/>
<stop offset="1" stop-color="#FF1055"/>
</linearGradient>
<linearGradient id="paint17_linear_3353_3827" x1="-0.580236" y1="35.1428" x2="33.0867" y2="1.47571" gradientUnits="userSpaceOnUse">
<stop stop-color="#FFD363"/>
<stop offset="1" stop-color="#FF1055"/>
</linearGradient>
<linearGradient id="paint18_linear_3353_3827" x1="-1.30256" y1="34.4116" x2="32.3643" y2="0.744519" gradientUnits="userSpaceOnUse">
<stop stop-color="#FFD363"/>
<stop offset="1" stop-color="#FF1055"/>
</linearGradient>
<linearGradient id="paint19_linear_3353_3827" x1="0.853956" y1="36.5985" x2="34.5209" y2="2.93135" gradientUnits="userSpaceOnUse">
<stop stop-color="#FFD363"/>
<stop offset="1" stop-color="#FF1055"/>
</linearGradient>
<linearGradient id="paint20_linear_3353_3827" x1="5.71756" y1="41.5566" x2="39.3845" y2="7.88945" gradientUnits="userSpaceOnUse">
<stop stop-color="#FFD363"/>
<stop offset="1" stop-color="#FF1055"/>
</linearGradient>
<linearGradient id="paint21_linear_3353_3827" x1="7.79315" y1="43.6664" x2="41.4601" y2="9.99933" gradientUnits="userSpaceOnUse">
<stop stop-color="#FFD363"/>
<stop offset="1" stop-color="#FF1055"/>
</linearGradient>
<linearGradient id="paint22_linear_3353_3827" x1="9.32857" y1="45.2268" x2="42.9955" y2="11.5597" gradientUnits="userSpaceOnUse">
<stop stop-color="#FFD363"/>
<stop offset="1" stop-color="#FF1055"/>
</linearGradient>
<linearGradient id="paint23_linear_3353_3827" x1="9.65547" y1="45.5593" x2="43.3224" y2="11.8922" gradientUnits="userSpaceOnUse">
<stop stop-color="#FFD363"/>
<stop offset="1" stop-color="#FF1055"/>
</linearGradient>
<linearGradient id="paint24_linear_3353_3827" x1="8.68431" y1="44.5728" x2="42.3512" y2="10.9057" gradientUnits="userSpaceOnUse">
<stop stop-color="#FFD363"/>
<stop offset="1" stop-color="#FF1055"/>
</linearGradient>
<linearGradient id="paint25_linear_3353_3827" x1="6.77546" y1="42.6328" x2="40.4424" y2="8.96574" gradientUnits="userSpaceOnUse">
<stop stop-color="#FFD363"/>
<stop offset="1" stop-color="#FF1055"/>
</linearGradient>
<linearGradient id="paint26_linear_3353_3827" x1="4.70562" y1="40.5248" x2="38.3725" y2="6.85771" gradientUnits="userSpaceOnUse">
<stop stop-color="#FFD363"/>
<stop offset="1" stop-color="#FF1055"/>
</linearGradient>
<linearGradient id="paint27_linear_3353_3827" x1="3.16408" y1="38.9545" x2="36.831" y2="5.28738" gradientUnits="userSpaceOnUse">
<stop stop-color="#FFD363"/>
<stop offset="1" stop-color="#FF1055"/>
</linearGradient>
<linearGradient id="paint28_linear_3353_3827" x1="2.84274" y1="38.6274" x2="36.5097" y2="4.96035" gradientUnits="userSpaceOnUse">
<stop stop-color="#FFD363"/>
<stop offset="1" stop-color="#FF1055"/>
</linearGradient>
<linearGradient id="paint29_linear_3353_3827" x1="3.81591" y1="39.6107" x2="37.4828" y2="5.94362" gradientUnits="userSpaceOnUse">
<stop stop-color="#FFD363"/>
<stop offset="1" stop-color="#FF1055"/>
</linearGradient>
</defs>
</svg>
