<svg width="183" height="39" fill="none" xmlns="http://www.w3.org/2000/svg"><g clip-path="url(#a)"><path d="M46.615 13.488c-1.844-2.17-4.41-3.254-7.699-3.254-3.613 0-6.64 1.365-9.078 4.093-2.439 2.729-3.658 6.135-3.658 10.218s1.22 7.489 3.658 10.217c2.439 2.729 5.465 4.093 9.078 4.093 3.289 0 5.855-1.084 7.699-3.253v2.493h8.996V11.004h-8.996v2.484ZM45.04 28.825c-1.047 1.086-2.417 1.628-4.11 1.626-1.694-.002-3.064-.544-4.111-1.627-1.05-1.082-1.573-2.509-1.57-4.28.001-1.772.525-3.2 1.57-4.284 1.047-1.082 2.417-1.625 4.11-1.627 1.694-.002 3.064.54 4.11 1.627 1.048 1.086 1.573 2.514 1.575 4.284.002 1.77-.523 3.196-1.574 4.28ZM97.5 3.402l-8.996 2.713v4.889h-4.067v8.608h4.067v8.077c0 4.307 1.093 7.279 3.28 8.917 2.186 1.639 5.971 2.135 11.356 1.489v-8.13c-2.026.11-3.471.02-4.336-.27-.865-.29-1.3-1.03-1.304-2.223v-7.86h5.64v-8.608H97.5V3.402ZM121.295 10.29c-4.193 0-7.626 1.363-10.3 4.092-2.674 2.728-4.011 6.117-4.011 10.165 0 4.11 1.356 7.516 4.067 10.217 2.711 2.701 6.27 4.047 10.678 4.037 5.238 0 9.195-1.969 11.871-5.907l-4.824-2.804c-1.554 2.24-3.886 3.36-6.994 3.362-2.239 0-4.136-.551-5.69-1.653-1.554-1.102-2.55-2.689-2.989-4.76h21.577c.127-.807.198-1.622.215-2.44 0-3.973-1.273-7.352-3.817-10.135-2.545-2.783-5.806-4.175-9.783-4.175Zm-8.239 11.978c.392-2.057 1.314-3.683 2.766-4.877s3.259-1.79 5.42-1.788a7.902 7.902 0 0 1 5.015 1.68c1.427 1.117 2.339 2.781 2.736 4.991l-15.937-.006ZM152.792 24.22l9.648-13.228h-6.83l-6.233 8.565-6.233-8.565h-6.777l9.648 13.174-10.191 13.929h6.829l6.777-9.27 6.723 9.27h6.774l-10.135-13.876ZM23.997 9.53V.152H10.38V.141H.652l.036 37.954h9.703v-13.01h13.333v-9.377H10.39V9.53h13.606ZM70.34 38.624c-3.54 0-6.388-.837-8.467-2.49-2.079-1.653-3.15-3.79-3.15-6.715h8.514a1.859 1.859 0 0 0 .858 1.697c.639.459 1.412.692 2.199.664.74.02 1.469-.177 2.099-.564a1.615 1.615 0 0 0 .837-1.43c.003-.175-.02-.35-.07-.517a.962.962 0 0 0-.247-.381 6.267 6.267 0 0 0-.406-.38 2.136 2.136 0 0 0-.557-.293 15.242 15.242 0 0 0-.693-.261 12.953 12.953 0 0 0-.846-.238l-.88-.226c-.2-.05-.526-.126-.981-.226l-1.82-.452a38.578 38.578 0 0 1-1.792-.535 10.788 10.788 0 0 1-1.861-.754 13.298 13.298 0 0 1-1.521-1.016 5.391 5.391 0 0 1-1.348-1.424 7.745 7.745 0 0 1-.79-1.826 8.114 8.114 0 0 1-.337-2.376c0-2.642.986-4.712 2.936-6.2 1.95-1.489 4.636-2.22 8.039-2.22 3.403 0 6.098.793 8.007 2.349 1.908 1.556 2.886 3.23 2.886 5.963h-8.28c-.103-1.113-1.647-1.647-2.695-1.668a3.65 3.65 0 0 0-1.791.429 1.236 1.236 0 0 0-.684 1.174c-.002.187.045.371.135.535.107.19.26.349.446.464.216.147.441.28.675.396.314.146.64.268.972.364.438.138.796.244 1.078.317.281.074.71.176 1.297.294.816.205 1.436.36 1.868.475a28.97 28.97 0 0 1 1.85.57c.655.207 1.29.472 1.899.793.543.317 1.068.663 1.574 1.036.564.39 1.045.89 1.415 1.468.348.586.626 1.21.828 1.862.242.766.361 1.566.355 2.369 0 2.854-1.078 5.094-3.2 6.656-2.123 1.562-4.93 2.317-8.35 2.317Z" fill="#0B0B0B"/><path d="M177.765 1.041a22.752 22.752 0 0 0-7.492 0 5.556 5.556 0 0 0-4.584 4.589 22.775 22.775 0 0 0 0 7.496 5.56 5.56 0 0 0 4.584 4.586c1.238.202 2.491.3 3.746.294a22.895 22.895 0 0 0 3.746-.294 5.576 5.576 0 0 0 4.584-4.59 23.089 23.089 0 0 0 0-7.483 5.58 5.58 0 0 0-4.584-4.598Zm-5.449 14.04a.847.847 0 0 1-.69-1.345l2.117-2.953-3.523-.338a.964.964 0 0 1-.838-1.204.963.963 0 0 1 .283-.47l5.464-4.897a.858.858 0 0 1 .587-.223.85.85 0 0 1 .675 1.345l-2.117 2.936 3.524.338a.968.968 0 0 1 .558 1.676l-5.467 4.912a.851.851 0 0 1-.573.223Z" fill="#FF008C"/></g><defs><clipPath id="a"><path fill="#fff" transform="translate(.652 .14)" d="M0 0h181.994v38.715H0z"/></clipPath></defs></svg>