<svg xmlns="http://www.w3.org/2000/svg" width="231" height="27" fill="none"><g fill="#0B0B0B" clip-path="url(#a)"><path d="M34.467 5.305c-5.027 0-9.25 3.495-10.37 8.164H.887v4.985h23.21c1.12 4.67 5.343 8.164 10.37 8.164 5.889 0 10.686-4.784 10.686-10.657 0-5.872-4.797-10.656-10.686-10.656Zm0 16.53c-3.246 0-5.889-2.636-5.889-5.874 0-3.237 2.643-5.872 5.89-5.872 3.245 0 5.888 2.635 5.888 5.872 0 3.238-2.643 5.873-5.889 5.873ZM64.66 15.358l-3.696 3.744v5.874h-4.335V2.023h4.335V13.8L72.496 2.024h4.863l-9.81 10.247L77.943 24.95h-5.057l-8.225-9.591ZM97.617 8.578v17.785H93.49v-1.279c-1.846 1.39-1.933 1.529-5.28 1.529-4.732 0-8.628-2.501-8.628-7.864V8.579h4.328v9.586c0 3.224 1.587 4.752 4.329 4.752 3 0 5.05-1.806 5.05-5.363V8.578h4.328ZM120.57 16.4v10.213h-4.287v-9.685c0-3.172-1.601-4.702-4.345-4.702-3.058 0-5.116 1.808-5.116 5.37v9.017h-4.287V8.803h4.087v1.335c2.087-1.335 3.373-1.586 6.317-1.558 4.372.084 7.631 2.449 7.631 7.82ZM230.413 16.4v10.213h-4.287v-9.685c0-3.172-1.6-4.702-4.345-4.702-3.057 0-5.115 1.808-5.115 5.37v9.017h-4.287V8.803h4.087v1.335c2.086-1.335 3.373-1.586 6.316-1.558 4.374.084 7.631 2.449 7.631 7.82ZM125.488 17.582c0-5.287 4.189-9.004 10.094-9.004 3.636 0 6.515 1.432 7.941 4.103l-3.345 1.844c-1.106-1.68-2.793-2.45-4.654-2.45-3.2 0-5.644 2.12-5.644 5.507 0 3.441 2.444 5.506 5.644 5.506 1.861 0 3.519-.77 4.654-2.45l3.345 1.845c-1.426 2.643-4.334 4.13-7.941 4.13-5.905 0-10.094-3.745-10.094-9.031ZM146.801 2.935c0-1.418 1.05-2.552 2.459-2.552s2.459 1.05 2.459 2.439c0 1.503-1.024 2.665-2.459 2.665-1.409 0-2.459-1.134-2.459-2.552Zm.512 5.53h3.843v18.15h-3.843V8.465ZM154.996 14.334c0-7.153 5.636-12.31 13.208-12.31 4.022 0 7.456 1.396 9.745 3.989l-2.964 2.707c-1.79-1.88-4.022-2.793-6.575-2.793-5.107 0-8.806 3.477-8.806 8.407s3.699 8.406 8.806 8.406c2.583 0 4.785-.912 6.575-2.85l2.964 2.736c-2.289 2.593-5.753 3.99-9.775 3.99-7.542.028-13.178-5.13-13.178-12.282ZM179.594 17.568c0-5.279 4.148-8.99 9.822-8.99 5.733 0 9.852 3.739 9.852 8.99 0 5.25-4.119 9.045-9.852 9.045-5.674-.028-9.822-3.767-9.822-9.045Zm15.295 0c0-3.354-2.361-5.499-5.501-5.499-3.112 0-5.474 2.145-5.474 5.499 0 3.354 2.362 5.498 5.474 5.498 3.14 0 5.501-2.144 5.501-5.498ZM202.543 2.935c0-1.418 1.051-2.552 2.459-2.552 1.409 0 2.459 1.05 2.459 2.439 0 1.503-1.024 2.665-2.459 2.665-1.408 0-2.459-1.134-2.459-2.552Zm.511 5.53h3.843v18.15h-3.843V8.465Z"/><path d="M33.676 13.5v4.919c1.825 0 3.279-1.09 3.279-2.46 0-1.37-1.49-2.459-3.28-2.459ZM17.947 5.454c0 1.617-1.292 2.935-2.907 2.905-1.585 0-2.877-1.317-2.848-2.964v-.06h-2.76v.03c0 1.617-1.292 2.934-2.907 2.904-1.586 0-2.878-1.317-2.849-2.964H.916l-.03 6.558h19.645l.03-6.439-2.614-.03v.06Z"/></g><defs><clipPath id="a"><path fill="#fff" d="M.887.383h229.53v26.232H.887z"/></clipPath></defs></svg>