<svg xmlns="http://www.w3.org/2000/svg" width="172" height="53" fill="none"><path fill="#042E7A" d="M28.322 47.355c-.855.536-1.706 1.078-2.563 1.61-1.475.918-2.953 1.831-4.446 2.756l-2.771-1.716-11.667-7.23-5.29-3.279c-.179-.11-.37-.203-.554-.3V6.66a.57.57 0 0 1 .318-.176c2.317-.63 4.646-1.25 6.959-1.872 2.916-.782 5.83-1.568 8.744-2.359 1.17-.317 2.344-.62 3.512-.944.205-.058.423-.034.625-.105h.27c.586.172 1.169.357 1.76.516 3.56.962 7.12 1.921 10.68 2.877L41.335 6.6c.085.024.167.057.263.09v3.23c-.03.174-.182.177-.307.207-2.374.574-4.74 1.178-7.12 1.738-.187.044-.39.15-.56-.055a8.3 8.3 0 0 1-.013-1.995c.076-.165.236-.195.388-.232 1.918-.473 3.84-.927 5.752-1.42a.637.637 0 0 1 .355-.027c-.7-.357-1.387-.168-2.098 0-3.029.75-6.056 1.499-9.089 2.233-1.232.3-2.462.6-3.693.912-.22.04-.364-.11-.497-.234-.435-.403-.871-.805-1.303-1.213-.094-.088-.211-.181-.15-.343.393-.204.828-.274 1.25-.375 2.12-.505 4.233-1.041 6.35-1.557 1.167-.283 2.333-.577 3.477-.847a2.62 2.62 0 0 0-1.637-.061c-1.819.458-3.64.908-5.463 1.349-1.42.343-2.837.692-4.254 1.049a.647.647 0 0 1-.366.015 8.546 8.546 0 0 1-.996-.85c-.284-.26-.335-.283-.616-.022-.75.686-1.487 1.368-2.225 2.056-.944.881-1.918 1.728-2.848 2.63a.535.535 0 0 1-.705.072c-.873-.487-1.73-1-2.6-1.498-1.007-.57-2.008-1.162-3.027-1.74a.63.63 0 0 0-.378-.138c-.115.133-.067.3-.067.45v7.273c-.018.355-.089.436-.45.45-.775.013-1.551 0-2.326 0-.435 0-.459.025-.46.45v8.243c0 .428.024.45.465.45h9.468c.697 0 .716.019.716.718v11.308c-.015.186.06.424-.123.532-.183.108-.384-.057-.544-.17a68.23 68.23 0 0 0-2.182-1.464.922.922 0 0 1-.462-.864c.012-2.043 0-4.086 0-6.13 0-.483-.013-.497-.482-.497h-1.889c-.345 0-.388.045-.388.393v7.88a.676.676 0 0 0 .33.614c2.019 1.349 4.028 2.698 6.043 4.047.68.457 1.36.917 2.04 1.373.108.071.205.18.358.157.09-.108.06-.237.06-.355V24.598c0-.469-.012-.48-.5-.48H9.091c-.282 0-.408-.139-.408-.415 0-.908-.01-1.818 0-2.726 0-.333.093-.405.432-.424h11.796c.19-.02.383-.004.568.048.127.058.103.217.221.32.5-.067.99-.184 1.465-.352.145-.02.291-.028.438-.024h7.306c.146-.005.292.003.436.024a.434.434 0 0 1 .287.168c-.048.16-.2.164-.321.194-2.326.55-4.646 1.143-6.968 1.7-.806.194-1.608.413-2.418.6-.236.053-.36.176-.275.429.118.105.24.039.353.01 2.848-.723 5.712-1.398 8.565-2.114.957-.242 1.917-.48 2.88-.7.173-.04.369-.15.53.046a8.38 8.38 0 0 1 0 2.067c-.067.127-.198.132-.315.16-1.327.332-2.653.663-3.986.978-.402.032-.806.04-1.21.024h-4.611c-.45 0-.468.025-.478.475-.01.324.04.65-.044.97-.06.136-.192.136-.31.164-.38.093-.76.193-1.138.3-.254.07-.271.117-.226.427.181.08.346-.024.516-.06.251-.054.5-.124.756-.159.143-.02.3-.04.393.113.08.66.08 1.327 0 1.987-.067.141-.21.15-.337.188-.366.095-.736.176-1.1.28-.271.076-.3.138-.215.466.377 0 .729-.15 1.093-.234.19-.043.391-.129.552.075.078.682.078 1.37 0 2.052-.063.135-.194.135-.312.16-.373.077-.74.174-1.114.254-.265.057-.347.213-.232.512.39-.078.77-.196 1.16-.28.166-.036.35-.127.492.066.078.682.078 1.37 0 2.052-.062.132-.192.14-.31.166-.372.08-.733.203-1.107.28-.238.049-.355.176-.244.476.37-.057.736-.132 1.097-.227.192-.04.397-.124.558.078.08.66.084 1.326.009 1.986-.081.164-.246.182-.394.219-.3.076-.61.13-.912.214a1.184 1.184 0 0 0-.282.104.247.247 0 0 0-.108.319c.047.124.162.103.26.082.327-.067.641-.185.971-.248.16-.032.333-.09.45.088.078.681.078 1.37 0 2.05-.06.134-.19.14-.3.17-.369.093-.74.168-1.108.26-.3.074-.322.13-.242.498l1.199-.271c.15-.036.325-.127.458.057.078.681.078 1.37 0 2.05-.085.164-.255.17-.404.198-.353.068-.696.177-1.04.273-.258.072-.273.117-.221.466.382-.057.76-.135 1.133-.232.179-.04.373-.128.525.07.08.66.083 1.328.009 1.99-.093.185-.282.208-.45.245-.329.072-.656.15-.982.234-.24.063-.335.2-.242.439.15.085.274.012.4-.018 2.534-.63 5.07-1.253 7.61-1.87l5.707-1.385c.15-.038.32-.134.48 0-.763.48-1.523.968-2.29 1.444-1.048.65-2.09 1.29-3.135 1.935-.046.227-.246.236-.41.276a755.81 755.81 0 0 0-7.944 1.949c-.417.103-.438.134-.378.469.121.07.238.009.354-.02 1.93-.473 3.862-.935 5.788-1.424.165-.043.34-.135.504.026Z"/><path fill="#0B0B0B" d="M161.269 35.022h-3.792v-13.79h3.783v1.105a1.22 1.22 0 0 0 .182-.114c2.067-2.086 6.37-1.617 7.607 1.949.328.909.505 1.866.519 2.833.018 2.615.01 5.23.012 7.846 0 .054-.01.108-.015.17h-3.809v-.378c0-2.503 0-5.006-.015-7.51a4.244 4.244 0 0 0-.23-1.315c-.258-.762-.838-1.167-1.648-1.24-1.57-.14-2.379.766-2.564 2.257a7.79 7.79 0 0 0-.039.942v6.87l.009.375ZM109.842 35.117h-3.812V21.4h-6.401V17.75h16.578v3.627h-6.365v13.74ZM78.289 35.029h-3.816v-13.79h3.798v1.085l.06.042a4.584 4.584 0 0 1 1.948-1.187c.751-.205 1.54-.23 2.302-.074l-.718 3.815a2.382 2.382 0 0 0-1.798-.3c-.941.188-1.571.934-1.712 2.008a8.533 8.533 0 0 0-.073 1.071v6.932l.009.398Z"/><path fill="#042E7A" d="M41.602 38.5c.113.485-.099.749-.527.999-1.078.613-2.121 1.286-3.18 1.935-.068.217-.263.268-.45.31-1.705.396-3.401.829-5.095 1.246l-4.807 1.18c-1.221.3-2.438.614-3.667.885a.383.383 0 0 1-.324-.008c-.065-.139.034-.206.127-.268.98-.664 1.965-1.322 2.945-1.986.426-.288.85-.578 1.279-.861.195-.128.372-.291.614-.333 3.148-.786 6.288-1.55 9.433-2.323 1.067-.261 2.135-.518 3.198-.792a.584.584 0 0 1 .454.015ZM41.594 24.582c0 .693.003 1.388.008 2.083-.095.168-.27.192-.43.23-1.77.41-3.532.86-5.299 1.288-1.515.37-3.027.75-4.541 1.119-1.568.388-3.137.774-4.706 1.158-.15.036-.308.11-.434-.057a8.439 8.439 0 0 1 0-2.067c.083-.15.239-.15.377-.19 1.64-.423 3.297-.81 4.935-1.219.718-.054 1.436-.018 2.155-.023h2.794c.369 0 .399-.043.41-.41a3.147 3.147 0 0 1 .037-.703c.09-.218.3-.266.489-.31 1.01-.222 2.002-.517 3.014-.727.264-.054.518-.15.782-.205.133-.035.28-.086.41.033ZM41.596 35.756v2.034c-.092.195-.29.195-.458.238-1.36.35-2.723.675-4.085 1.012-1.853.459-3.709.9-5.56 1.368-.36.09-.723.15-1.08.261-.134.04-.282.093-.414-.022-.024-.158.1-.215.2-.277.578-.363 1.122-.778 1.707-1.13a.617.617 0 0 0 .322-.578c0-.26-.086-.538.093-.78a62.743 62.743 0 0 1 2.085-.53c2.098-.503 4.183-1.03 6.275-1.54a7.79 7.79 0 0 1 .526-.111.415.415 0 0 1 .389.055ZM41.6 27.332v2.087c-.056.15-.205.164-.33.197-1.258.337-2.526.637-3.79.947-1.57.385-3.138.78-4.71 1.15-.17.04-.345.14-.502-.032-.114-.326-.053-.667-.054-1 0-.257-.1-.353-.359-.355-.526 0-1.049.042-1.58-.028-.083-.033-.166-.068-.185-.178.076-.132.222-.132.346-.162 3.052-.733 6.093-1.513 9.143-2.237.544-.13 1.08-.3 1.63-.406.138-.022.266-.09.39.017ZM41.594 32.925v2.083c-.081.15-.236.163-.374.2-1.118.299-2.248.563-3.366.837-1.593.387-3.184.778-4.775 1.174-.164.042-.325.091-.49.121-.122.022-.25.052-.335-.08a8.506 8.506 0 0 1 0-2.065c.089-.157.26-.17.407-.205 1-.245 2.002-.489 2.997-.74 1.685-.425 3.379-.813 5.062-1.245.284-.073.568-.236.874-.08ZM41.596 30.146v2.075c-.042.18-.204.19-.339.222-2.248.521-4.465 1.109-6.704 1.63-.6.141-1.19.332-1.799.45-.17.032-.353.108-.496-.073a8.172 8.172 0 0 1-.01-2 .43.43 0 0 1 .33-.216c1.967-.499 3.941-.972 5.912-1.455.871-.213 1.736-.45 2.616-.634.161-.028.325-.091.49.002ZM41.596 13.462v2.034c-.065.162-.22.18-.357.214-2.017.513-4.04 1.013-6.066 1.5-.36.085-.713.188-1.073.275-.17.042-.352.107-.493-.073a8.38 8.38 0 0 1 0-2.069c.067-.127.2-.133.316-.162 2.358-.557 4.705-1.157 7.06-1.725.202-.057.412-.144.613.006ZM41.59 10.637v2.082c-.079.15-.235.164-.372.201-.966.26-1.938.487-2.91.723-1.397.338-2.788.701-4.187 1.028-.19.045-.4.15-.534-.111a8.946 8.946 0 0 1 .008-1.992c.075-.136.215-.15.343-.181 2-.49 3.996-1 5.995-1.47.403-.094.797-.223 1.2-.313.164-.032.32-.098.458.034Z"/><path fill="#027DB0" d="M23.533 44.985c.388-.07.781-.116 1.163-.209 2.278-.551 4.554-1.11 6.829-1.674 1.562-.385 3.12-.776 4.68-1.163.37-.09.75-.15 1.108-.258.2-.068.394-.15.582-.246.098.022.2.03.3.021 1.675-.4 3.35-.807 5.026-1.223.119-.028.239-.05.386-.08v.599c-.573.15-1.154.3-1.739.44l-5.546 1.35c-.161.04-.317.103-.476.157-.77.181-1.544.357-2.314.545l-6.418 1.582-5.435 1.335a.945.945 0 0 1-.124.018v-.632l1.737-.421c.058-.093.097-.212.241-.141ZM28.33 47.356c-.436.093-.874.175-1.306.279-1.768.428-3.537.86-5.306 1.294-.04.011-.083.012-.185.026v-.37c-.014-.19.063-.269.258-.313.899-.207 1.779-.434 2.667-.654 1.67-.414 3.341-.824 5.01-1.242.322-.081.635-.197.953-.3.128.007.256 0 .383-.018 3.064-.75 6.126-1.502 9.187-2.258a.594.594 0 0 1 .099-.007 9.676 9.676 0 0 1-3.41 1.463c-2.658.6-5.299 1.284-7.944 1.938a3.304 3.304 0 0 0-.406.162ZM41.6 27.342c-1.314.316-2.627.628-3.938.947-1.832.445-3.663.894-5.493 1.35-.678.166-1.35.336-2.027.506l.075.063c-.07.15-.217.12-.34.127a1.223 1.223 0 0 0-.513.088c-.916.228-1.824.483-2.747.678-.142.03-.29.062-.41-.066a.555.555 0 0 1 .04-.59 3555.704 3555.704 0 0 0 9.08-2.221l5.306-1.3c.325-.081.647-.172.97-.26l2.002-.45v.591l-2.006.537Z"/><path fill="#042E7A" d="M41.597 16.19v2.076c-.03.172-.183.183-.3.214-1.338.34-2.686.645-4.024.99-.114.03-.243.075-.345-.044-.121-.393-.045-.796-.059-1.199-.016-.474-.025-.49-.488-.499-.2 0-.403.033-.6-.06.029-.18.026-.19.248-.235.427-.09.843-.22 1.266-.321a311.78 311.78 0 0 0 3.876-.947.542.542 0 0 1 .426.025ZM41.597 18.977v2.085c-.052.157-.2.168-.327.2-1.319.323-2.635.665-3.958.97-.136.033-.288.092-.402-.061a8.62 8.62 0 0 1-.016-1.995c.073-.18.238-.223.403-.264 1.281-.32 2.567-.63 3.85-.95.15-.038.305-.111.45.015ZM41.599 21.805l.01 2.076c-.084.15-.238.16-.376.192-1.25.3-2.505.6-3.747.92-.187.048-.391.15-.562-.052a8.08 8.08 0 0 1-.012-2.004c.08-.16.24-.19.391-.23 1.281-.323 2.565-.638 3.852-.944.147-.03.304-.08.444.042Z"/><path fill="#027DB0" d="M30.013 40.622c.41-.084.826-.15 1.232-.255 2.005-.49 4.008-.983 6.01-1.48 1.331-.327 2.665-.65 3.998-.976.117-.035.232-.077.344-.123.45-.096.909-.19 1.362-.286.205-.044.41-.098.64-.15v.614c-.543.135-1.102.273-1.66.415a3.52 3.52 0 0 0-.343.117c-.793.188-1.587.369-2.379.562-1.366.332-2.73.67-4.096 1.006l-5.396 1.326c-.422.104-.846.19-1.27.285a.198.198 0 0 1 .101-.196c.441-.273.844-.6 1.303-.848a.142.142 0 0 1 .154-.011ZM41.596 30.15c-1.021.242-2.043.475-3.06.726-1.93.472-3.856.953-5.783 1.43-.141.036-.284.062-.424.092a.5.5 0 0 1 0-.671c.521-.118 1.049-.23 1.566-.36 1.931-.474 3.862-.953 5.793-1.436.638-.159 1.274-.33 1.91-.494l1.594-.346.41-.095v.62c-.561.137-1.132.276-1.702.42-.104.032-.205.07-.304.114ZM32.333 34.468c.642-.15 1.286-.281 1.926-.437 2.227-.543 4.451-1.093 6.675-1.649.224-.055.45-.126.67-.189l1.498-.32c.162-.035.324-.076.511-.12v.617c-.518.13-1.049.26-1.573.397-.15.038-.288.098-.434.15-.599.14-1.217.268-1.822.418-1.851.45-3.7.922-5.546 1.378-.628.15-1.26.287-1.89.431a.504.504 0 0 1-.015-.676ZM32.335 37.299c1.247-.308 2.496-.615 3.747-.922l5.34-1.304c.065-.016.128-.043.19-.064l1.724-.387.275-.056v.612c-.544.132-1.088.26-1.628.4-.133.046-.261.104-.384.172-.545.113-1.095.212-1.636.342-2.031.489-4.06.99-6.092 1.483-.51.124-1.022.232-1.533.347a.45.45 0 0 1-.003-.623ZM41.595 10.625c-.522.117-1.05.228-1.565.355-2.051.5-4.103 1.004-6.154 1.513-.066.012-.132.02-.2.022a.512.512 0 0 1 0-.673c.675-.15 1.35-.289 2.023-.45 1.898-.455 3.797-.916 5.695-1.381.073-.026.144-.06.21-.1l1.499-.321.51-.117v.6c-.52.13-1.05.26-1.574.398-.158.042-.299.103-.444.154ZM33.678 14.62c.357-.062.72-.102 1.07-.188 1.799-.44 3.597-.899 5.396-1.34.487-.123.973-.25 1.46-.374l1.731-.393.274-.055v.611c-.547.133-1.09.26-1.63.402a2.43 2.43 0 0 0-.383.172c-.545.11-1.094.205-1.635.333-1.227.288-2.452.6-3.677.9-.758.185-1.515.377-2.275.563-.108.025-.22.033-.33.048a.513.513 0 0 1-.001-.68ZM41.594 16.188l-2.921.697c-.93.225-1.858.45-2.787.679a.754.754 0 0 0-.15.069.32.32 0 0 1-.244.096c-.526.016-1.049.024-1.581 0-.159-.008-.369-.023-.244-.3.292-.065.587-.126.878-.198a8934.46 8934.46 0 0 0 6.665-1.626c.13-.032.254-.086.38-.13.345-.068.692-.133 1.035-.207.315-.07.627-.15.967-.233v.616c-.546.137-1.103.273-1.661.415-.11.04-.223.087-.337.122ZM36.953 24.99c.327-.067.657-.125.98-.203l3.67-.9 2.002-.473v.61c-.544.136-1.096.27-1.649.412-.125.04-.248.086-.367.14-.5.11-1.001.217-1.499.335-.911.218-1.82.45-2.73.667-.139.035-.273.09-.41.137a.476.476 0 0 1 .003-.724ZM41.595 21.808c-.577.117-1.155.22-1.726.355-.973.231-1.941.483-2.911.724a.42.42 0 0 1 0-.667c.878-.212 1.756-.424 2.635-.64.67-.166 1.338-.34 2.008-.51l1.499-.334.502-.115v.61l-.877.228c-.3.078-.634.15-.947.232a.72.72 0 0 0-.183.117ZM41.6 18.993c-.663.15-1.325.3-1.985.467-.887.22-1.771.45-2.657.669a.42.42 0 0 1 0-.667l4.364-1.076c.094-.03.186-.066.275-.108.424-.087.85-.17 1.272-.26.239-.05.475-.109.736-.17v.598l-2.005.547Z"/><path fill="#FEFEFE" d="M36.956 19.45v7.561h-5.529c-.884.14-1.776.087-2.665.093-.69-.023-1.383 0-2.074 0-.318 0-.325.028-.348.499 0 .23.056.468-.094.676v2.767a.509.509 0 0 1 .099.38c0 .582.013 1.165 0 1.747.009.235.009.47 0 .704.013.686.015 1.371 0 2.058.009.232.01.464 0 .695.01.676.01 1.351 0 2.027-.026.24-.022.483.012.722.487-.288.917-.611 1.349-.925a.75.75 0 0 1 .078-.058c.055-.036.11-.072.165-.111.352-.222.682-.472 1.032-.695a.554.554 0 0 0 .272-.507c0-.415 0-.829-.01-1.244v-.6a51.32 51.32 0 0 1 0-2.098 6.969 6.969 0 0 1 0-.642c-.019-.589 0-1.178 0-1.765a.549.549 0 0 1 .104-.378.768.768 0 0 1 .25-.138c.206-.025.415-.018.624-.024h2.112V37.921c-.02.266-.023.533-.01.8.03.264-.09.399-.3.532-.677.45-1.348.908-2.015 1.364l-1.553 1.05c-.866.573-1.734 1.143-2.597 1.721-.78.524-1.553 1.05-2.328 1.583l-.241.134-.032-2.09a.7.7 0 0 1 0-.674v-2.148a.618.618 0 0 1 0-.619v-2.146a.696.696 0 0 1 0-.675v-2.09a.703.703 0 0 1 0-.677V31.84a.618.618 0 0 1 0-.619v-2.15a.69.69 0 0 1 0-.67v-2.1a.714.714 0 0 1 0-.678v-1.605h6.5c.879-.134 1.765-.089 2.648-.092.368.03.737 0 1.107 0 .225 0 .333-.096.322-.322-.01-.226-.046-.417.104-.6v-2.16a.395.395 0 0 0-.312-.085h-1.278a2.962 2.962 0 0 1-.9-.093c-.92 0-1.839-.01-2.759-.012h-5.451c-.056 0-.111.01-.166.014a4.637 4.637 0 0 1-1.17.096.62.62 0 0 1-.385-.092c-.08 0-.15-.015-.235-.015H8.786v3.349h10.642v21.073c-.096-.055-.171-.093-.242-.14l-8.543-5.735a.431.431 0 0 1-.256-.385c.01-2.806 0-5.614 0-8.42 0-.053 0-.107.01-.176h2.953v6.886a.532.532 0 0 0 .267.521c.9.587 1.798 1.199 2.687 1.799.035.022.072.042.15.085V27.011H5.812v-9.359H9.02V9.26l6.572 3.78L21.3 7.793l1.367 1.234c.245.123.452.31.6.54l1.871 1.718c.233.068.34.3.537.414.405.388.815.769 1.24 1.136a.283.283 0 0 0 .367.03c1.509-.887 3.036-1.743 4.538-2.64a.741.741 0 0 1 .081-.053l.174-.095c.406-.214.785-.475 1.199-.685.123-.063.249-.225.388-.102.14.123.107.3.017.463v7.692c-.05.16.007.225.173.222.633-.01 1.266-.015 1.897-.022h1.213l-.006 1.806Z"/><path fill="#027DB0" d="m25.61 11.723-.465-.433a5.93 5.93 0 0 1 .635-.238c1.04-.264 2.08-.518 3.122-.77 1.769-.428 3.54-.848 5.307-1.28a317.01 317.01 0 0 0 4.384-1.106c.367-.109.758-.1 1.119.024.198.054.39.124.577.212l-6.61 1.626c-.01-.142-.023-.285-.036-.45l-1.587.86c-.042.032-.11.017-.141.071-1.295.438-2.641.685-3.963 1.018-.64.16-1.271.36-1.922.476-.14.02-.282.072-.42-.01ZM31.46 20.69l2.32-.026c.149 0 .206.06.167.205-.88.209-1.761.413-2.64.627-1.931.474-3.86.95-5.79 1.431-1.28.317-2.56.63-3.841.942a.9.9 0 0 1-.121.012v-.643l10.042-2.465-.137-.083ZM23.271 9.561l-.6-.541 3.388-.827c2.14-.525 4.277-1.051 6.414-1.579.26-.063.52-.133.782-.187a.8.8 0 0 1 .327-.007c.356.073.707.173 1.049.3-.417.107-.833.223-1.252.325l-5.31 1.292c-1.575.383-3.148.77-4.721 1.16-.027.01-.051.043-.077.064ZM28.916 5.355l-7.322 1.799c-.12-.6-.107-.625.402-.75 1.823-.45 3.648-.88 5.468-1.333.423-.105.793.082 1.187.127.087.017.173.04.256.07l.01.087ZM33.937 23.027v.609c-.324.214-.699.273-1.069.334-.14.024-.285.026-.424.063h-2.698l3.914-.982c.091-.017.184-.025.277-.024ZM23.258 42.348v.674l-1.463.307c-.072.015-.15.021-.22.032-.13-.538-.104-.6.385-.712.433-.107.866-.2 1.298-.301ZM23.255 28.406v.672l-1.374.3c-.104.022-.21.032-.314.047-.112-.577-.105-.6.38-.713.436-.11.873-.205 1.308-.306ZM23.254 36.762v.674c-.435.098-.87.198-1.306.292-.126.027-.256.036-.409.056v-.61l1.715-.412ZM23.26 33.988v.676l-1.5.3-.205.034c-.01-.082-.026-.15-.027-.21-.015-.402-.015-.406.364-.492.456-.107.913-.206 1.367-.308ZM23.257 25.629v.679l-1.713.32c0-.092-.014-.18-.023-.265-.027-.23.034-.365.3-.412.493-.078.96-.205 1.436-.322ZM23.256 31.227v.619l-1.71.388v-.658l1.71-.35ZM23.256 39.59v.619l-1.71.394v-.646l1.71-.367ZM21.523 20.688h1.555l-1.535.44-.02-.44Z"/><path fill="#0B0B0B" fill-rule="evenodd" d="M129.922 26.333h-1.911l-.022-.057a1.498 1.498 0 0 1-.048-.133c-.901-2.942-2.859-4.702-5.922-5.087-2.338-.294-4.392.432-5.979 2.203-1.686 1.881-2.167 4.113-1.634 6.558.663 3.035 3.07 5.155 6.208 5.433a6.845 6.845 0 0 0 6.989-4.19c.107-.256.198-.514.288-.77l.126-.354h1.917v5.07h3.822v-5.047c.147 0 .291.002.432.003.276.004.542.007.808-.003a.492.492 0 0 1 .491.253c.623.943 1.253 1.882 1.882 2.82.39.58.779 1.16 1.167 1.741a.515.515 0 0 0 .485.268c1.236-.007 2.472-.007 3.707-.007.062 0 .121-.005.197-.011l.137-.012-4.707-6.894 4.527-6.922h-.431c-.389 0-.779.002-1.168.004-.779.003-1.558.006-2.337-.004a.584.584 0 0 0-.569.3 1004.17 1004.17 0 0 1-2.989 4.6c-.06.091-.172.208-.265.208-.33.017-.659.015-1.004.012l-.372-.001v-8.65h-3.825v8.67Zm-5.526.874c-.285-1.639-1.512-2.703-3.148-2.728-1.402-.023-2.504.692-3.018 1.995a4.505 4.505 0 0 0-.054 3.13 3.048 3.048 0 0 0 2.867 2.167c1.502.037 2.598-.667 3.139-2.016a4.652 4.652 0 0 0 .214-2.548ZM49.71 17.656v17.387l.394.001c4.428-.006 8.855-.006 13.28 0 .325.005.648.04.966.104a6.802 6.802 0 0 0 2.713.008c2.89-.623 4.732-2.386 5.454-5.233 1.052-4.154-1.565-8.379-5.941-8.87-1.791-.201-3.446.188-4.912 1.238-2.365 1.708-3.43 4.734-2.698 7.62.085.335.2.664.313.993.054.156.108.312.16.47h-5.95V17.655h-3.778Zm13.675 7.84c-.67.746-.9 1.66-.89 2.725a3.941 3.941 0 0 0 .418 1.837c.575 1.126 1.51 1.687 2.759 1.714 1.29.028 2.294-.5 2.894-1.66.558-1.067.586-2.204.258-3.335-.328-1.13-1.055-1.93-2.24-2.192-1.216-.27-2.33-.054-3.2.91ZM93.271 35.026h3.79V17.665h-3.814v4.663c-.143-.088-.282-.178-.42-.267-.284-.183-.561-.363-.855-.508-2.534-1.25-6.489-.44-8.154 2.947-.827 1.681-1.01 3.453-.664 5.279.34 1.785 1.178 3.285 2.677 4.36 1.968 1.41 5.12 1.7 7.271-.126a1.12 1.12 0 0 1 .17-.095v1.11Zm-1.135-4.03c.819-.778 1.102-1.766 1.119-2.857v-.09c.001-.072.002-.143-.002-.213-.115-2.007-1.428-3.569-3.695-3.326a2.9 2.9 0 0 0-2.37 1.614c-.53 1.01-.594 2.09-.32 3.175.738 2.908 3.91 2.977 5.269 1.697Z" clip-rule="evenodd"/><path fill="#0B0B0B" fill-rule="evenodd" d="M146.262 29.5h9.197l.029-.161a3.64 3.64 0 0 0 .047-.29 9.03 9.03 0 0 0-.172-2.909c-.586-2.647-2.454-4.785-5.382-5.096-2.244-.238-4.215.399-5.762 2.075-2.597 2.814-2.519 7.338.135 10.094 2.407 2.5 6.503 2.766 9.201.59a6.013 6.013 0 0 0 1.469-1.724l-3.114-1.53c-1.3 1.224-2.514 1.53-3.884.97-.91-.37-1.446-1.074-1.764-2.018Zm.029-2.68h5.64c-.227-1.34-1.23-2.47-3.051-2.342-1.409.1-2.512 1.274-2.589 2.341Z" clip-rule="evenodd"/><path fill="#027DB0" d="M26.25 28.288v-.667a.433.433 0 0 1 .268-.123c.742-.15 1.468-.387 2.223-.479h2.698l-2.53.636-2.43.6a1.504 1.504 0 0 1-.229.033Z"/><path fill="#042E7A" d="M29.343 30.355v2.15c-.266.183-.592.183-.887.273-.607.187-1.236.3-1.854.45a.38.38 0 0 1-.352-.032v-2.157l1.856-.414c.412-.088.825-.178 1.237-.27ZM22.005 12.638l1.76 1.628c-.03.205-.212.207-.353.247-.484.138-.98.225-1.466.36-.309.085-.334.15-.268.45.133.072.26.007.388-.023.631-.15 1.257-.32 1.891-.45a.565.565 0 0 1 .45.02l1.775 1.619c-.021.166-.168.162-.278.191-1.115.3-2.248.534-3.357.84-.247.069-.511.02-.75.115-.19 0-.38.012-.57.012H12.329v-3.01l3.746 2.151c.874-.801 1.74-1.596 2.605-2.398l2.616-2.398.23.213c.1.099.057.25.135.361.11.04.239.008.343.072ZM26.25 35.971v-2.098a.542.542 0 0 1 .26-.15 90.324 90.324 0 0 1 2.577-.625.276.276 0 0 1 .257.027v2.152a.502.502 0 0 1-.293.15c-.767.164-1.518.392-2.284.56-.174.04-.35.101-.517-.016ZM29.342 35.897c0 .457.018.914 0 1.371a.424.424 0 0 1-.159.3c-.409.288-.833.556-1.253.832-.04.027-.11 0-.127.075-.383.138-.774.254-1.17.347a.382.382 0 0 1-.383-.03v-2.149a.53.53 0 0 1 .3-.15c.79-.2 1.587-.364 2.37-.589a.56.56 0 0 1 .422-.007ZM25.61 11.724l4.346-1.06c.541-.131 1.08-.272 1.623-.401.11-.018.22-.027.331-.029-.32.198-.637.404-.962.6A685.154 685.154 0 0 1 27.201 13c-.046.027-.094.05-.172.093l-1.42-1.369ZM30.361 16.152v1.483a2.05 2.05 0 0 1-.202.02h-5.612c-.043 0-.088-.008-.133-.013.025-.183.186-.174.3-.204 1.752-.436 3.507-.851 5.256-1.3.134-.032.265-.079.391.014Z"/><path fill="#027DB0" d="m30.365 16.15-3.696.899-2.108.515a.713.713 0 0 0-.15.07h-2.618l2.06-.543 2.328-.6c.404.32.404.318.87.061.289-.16.581-.316.873-.473.041-.035.108-.021.141-.072.643-.216 1.304-.361 1.96-.525a.342.342 0 0 1 .347.053l-.007.614ZM29.344 33.13l-3.094.75v-.665c.78-.184 1.56-.37 2.341-.55.249-.056.5-.097.75-.15l.003.615ZM29.34 35.907l-3.09.75v-.67l2.019-.45 1.075-.24-.003.61ZM24.416 14.86l-2.022.45-.84.191v-.625c.45-.112.93-.22 1.399-.346.277-.075.546-.178.817-.268l.646.598Z"/><path fill="#042E7A" d="M30.361 15.538c-.42.092-.842.186-1.265.275-.346.07-.695.131-1.041.197l2.306-1.389v.917ZM28.741 27.02l-2.491.6v-.6h2.491Z"/><path fill="#027DB0" d="M26.25 38.789c.412-.096.823-.195 1.236-.287.11-.018.219-.03.329-.037L26.25 39.57v-.782Z"/><path fill="#042E7A" d="m32.45 24.03 1.498-.397.023.397h-1.522Z"/><path fill="#027DB0" d="m22.01 12.638-.479.075V12.2l.478.44Z"/><path fill="#042E7A" d="m28.067 16.016-.141.072.14-.072Z"/><path fill="#027DB0" d="m27.809 38.477.127-.075-.127.075Z"/><path fill="#042E7A" d="m31.91 10.244.141-.072-.14.072Z"/></svg>