<svg xmlns="http://www.w3.org/2000/svg" width="215" height="39" fill="none"><g clip-path="url(#a)"><path fill="url(#b)" d="M10.283 1.844C16.279-.636 21.846-.237 27.007 3.51c4.33 3.152 6.613 7.572 6.797 12.878.188 5.49.043 10.99 0 16.48-.047 3.088-2.201 5.525-4.968 5.727-3.418.26-5.863-1.915-5.915-5.435-.068-5.208-.047-10.416-.055-15.624 0-2.12-.664-3.953-2.467-5.17-1.713-1.139-3.534-1.494-5.44-.47a5.602 5.602 0 0 0-3.156 5.199c-.034 5.354 0 10.707-.021 16.052a5.444 5.444 0 0 1-6.322 5.529C2.702 38.316.75 35.952.75 32.71c-.052-4.848 0-9.7 0-14.562 0-3.64.038-7.28 0-10.916-.04-2.57.53-4.853 2.933-6.21 2.283-1.307 4.484-.78 6.6.822Z"/><path fill="#1B1B1B" d="M181.22 26.143c0 .287.025.368 0 .428-2.621 3.525-7.709 4.801-12.575 3.143-4.231-1.447-6.852-5.199-6.852-9.79 0-4.835 2.707-8.664 7.092-10.056 7.919-2.518 14.669 3.593 13.298 12.377h-13.786c1.285 3.097 4.591 3.624 8.467 1.38l4.356 2.518Zm-12.947-8.566h8.137c-1.045-2.287-2.163-2.998-4.338-2.917-2.073.099-2.994.784-3.799 2.926v-.009ZM183.77 25.581l4.886-2.77c2.3 2.65 4.253 2.963 5.889.749a22.948 22.948 0 0 0-2.167-1.1c-1.259-.476-2.57-.806-3.829-1.286-2.407-.929-3.936-2.65-3.927-5.297 0-2.737 1.392-4.711 3.927-5.83a9.118 9.118 0 0 1 11.525 3.573l-4.681 2.6c-2.214-1.894-2.771-1.988-4.814-.613.668.48 1.169 1.01 1.782 1.242 1.392.527 2.874.814 4.257 1.362 2.462.98 3.902 2.784 3.961 5.529.06 2.63-1.323 4.68-3.905 5.82-4.84 2.142-10.493.454-12.904-3.979ZM139.988 9.84h6.596l3.906 11.769.428.064 3.94-11.825h6.591c-2.458 6.652-4.878 13.196-7.31 19.783h-6.853c-2.381-6.463-4.784-12.973-7.298-19.791ZM90.735 29.635h-3.311V26.83c-6.026 4.51-11.31 4.386-15.217-.188-3.52-4.133-3.195-10.78.724-14.562 4.073-3.953 9.422-3.786 14.296.634.103-1.015.184-1.867.278-2.81h3.23v19.731Zm-17.44-9.885c0 4.138 3.04 7.174 7.114 7.114a7.071 7.071 0 0 0 6.972-7.14 7.148 7.148 0 0 0-7.216-7.139c-3.906.048-6.878 3.148-6.87 7.165ZM210.584 4.285v5.636h4.008v5.696h-4.034c0 2.544-.077 4.878.06 7.204.03.501.737 1.17 1.285 1.392.758.313 1.657.274 2.638.428v5.071c-2.164.483-4.419.36-6.518-.355-2.442-.857-3.285-2.866-3.392-5.195-.124-2.767-.03-5.568-.03-8.476l-3.101-.214v-5.435l3.054-.223V6.092l6.03-1.807ZM127.862 30.202A10.417 10.417 0 0 1 117.395 19.8a10.49 10.49 0 1 1 20.985.09 10.32 10.32 0 0 1-3.093 7.367 10.308 10.308 0 0 1-7.425 2.946Zm.077-3.426a6.852 6.852 0 0 0 6.981-7.062 7.027 7.027 0 0 0-2.016-5.061 7.02 7.02 0 0 0-7.752-1.53 7.026 7.026 0 0 0-3.787 3.917 7.019 7.019 0 0 0-.471 2.738 6.843 6.843 0 0 0 4.332 6.508c.863.341 1.786.504 2.713.477v.013ZM113.617 29.595h-3.426V17.711c-.034-3.041-1.396-4.746-4.043-5.105-2.998-.403-5.567 1.182-6.227 3.953a15.458 15.458 0 0 0-.368 3.387c-.047 3.2 0 6.424 0 9.65h-3.354V9.92h3.195c.09.536.197 1.144.343 1.992l1.357-1.032c2.57-1.94 5.367-2.142 8.266-.964 2.716 1.105 4.133 3.323 4.236 6.15.137 4.467.021 8.947.021 13.53ZM65.979 29.53h-3.392v-7.1c0-1.645.034-3.286 0-4.926-.069-2.792-1.435-4.54-3.795-4.93-2.998-.496-5.524.784-6.364 3.393a12.663 12.663 0 0 0-.492 3.584c-.065 3.268 0 6.54 0 9.95h-3.268V9.738h3.096l.223 1.923c1.405-.745 2.762-1.781 4.283-2.222 4.758-1.367 9.212 1.43 9.62 6.347.389 4.518.089 9.088.089 13.743Z"/></g><defs><linearGradient id="b" x1="4.771" x2="60.447" y1="3.488" y2="41.176" gradientUnits="userSpaceOnUse"><stop offset=".248" stop-color="#8C5DDD"/><stop offset=".396" stop-color="#7977E6"/><stop offset=".699" stop-color="#D2B8FF"/></linearGradient><clipPath id="a"><path fill="#fff" d="M.703.273h213.891v38.455H.704z"/></clipPath></defs></svg>