<svg xmlns="http://www.w3.org/2000/svg" width="202" height="49" fill="none"><g clip-path="url(#a)"><path fill="#1E69AA" d="M10.012 17.683h17.64V.043l-17.64 17.64Z"/><path fill="#4187CD" d="M27.652.043h-17.64v17.64L27.652.043Z"/><path fill="#64AAEB" d="m37.358 31.416-9.706-13.733V.043l9.706 13.72v17.653Z"/><path fill="#AAC3E1" d="m37.358 31.417-9.706-4.9v-8.833l9.706 13.733Z"/><path fill="#0B0B0B" d="M69.41 8.797c1.45 0 2.699.215 3.72.63 1.02.43 1.852.98 2.496 1.679.644.698 1.1 1.49 1.396 2.376.296.886.443 1.812.443 2.766 0 .94-.147 1.852-.443 2.752a6.487 6.487 0 0 1-1.396 2.39c-.644.697-1.477 1.248-2.497 1.677-1.02.43-2.255.631-3.719.631h-5.37v8.337h-5.114V8.797H69.41Zm-1.396 10.941c.591 0 1.155-.04 1.692-.134a3.814 3.814 0 0 0 1.436-.51c.416-.256.739-.605.994-1.061.255-.456.376-1.047.376-1.785 0-.739-.121-1.33-.376-1.786a2.804 2.804 0 0 0-.994-1.06c-.416-.255-.886-.417-1.436-.51a11.503 11.503 0 0 0-1.692-.135h-3.973v6.981h3.973ZM78.997 20.396c.067-1.087.335-1.987.819-2.698a5.769 5.769 0 0 1 1.825-1.732 8.15 8.15 0 0 1 2.497-.926 13.946 13.946 0 0 1 2.78-.282c.845 0 1.704.054 2.577.174.872.121 1.664.35 2.376.698.712.35 1.302.833 1.759 1.45.456.618.684 1.437.684 2.457v8.766c0 .765.04 1.49.135 2.188.08.699.241 1.222.456 1.558H90.22a7.65 7.65 0 0 1-.215-.792 5.653 5.653 0 0 1-.108-.833 6.053 6.053 0 0 1-2.604 1.598c-.993.309-2.014.456-3.06.456-.806 0-1.558-.094-2.243-.295-.698-.201-1.302-.497-1.825-.913a4.354 4.354 0 0 1-1.222-1.557c-.295-.631-.443-1.383-.443-2.242 0-.953.174-1.745.51-2.363.336-.617.765-1.114 1.302-1.477a6.135 6.135 0 0 1 1.826-.832c.685-.188 1.37-.335 2.067-.443a28.572 28.572 0 0 1 2.055-.255 11.776 11.776 0 0 0 1.785-.295c.523-.134.94-.322 1.235-.564.309-.255.443-.618.43-1.088 0-.496-.081-.899-.242-1.194a1.7 1.7 0 0 0-.658-.685 2.597 2.597 0 0 0-.94-.322 7.793 7.793 0 0 0-1.154-.08c-.913 0-1.624.2-2.148.59-.524.39-.819 1.047-.913 1.96h-4.658v-.027Zm10.686 3.424a2.057 2.057 0 0 1-.739.402 8.703 8.703 0 0 1-.94.242c-.335.067-.684.12-1.06.16-.376.041-.738.095-1.1.162a8.73 8.73 0 0 0-1.021.255c-.336.107-.63.255-.886.443a2.017 2.017 0 0 0-.604.698c-.148.282-.228.645-.228 1.074 0 .416.08.765.228 1.047.148.282.362.51.617.671.255.162.564.282.913.336a5.7 5.7 0 0 0 1.074.094c.913 0 1.611-.148 2.121-.456.497-.31.873-.672 1.101-1.088.242-.43.39-.845.443-1.288.054-.43.08-.78.08-1.048V23.82ZM101.306 15.214v3.128h.067c.215-.523.51-1.007.886-1.45a5.749 5.749 0 0 1 1.275-1.14 6.7 6.7 0 0 1 1.531-.74 5.43 5.43 0 0 1 1.691-.254c.309 0 .644.054 1.007.16v4.297a8.427 8.427 0 0 0-.779-.108c-.309-.026-.604-.053-.886-.053-.846 0-1.557.147-2.148.43-.59.281-1.06.67-1.423 1.154a4.503 4.503 0 0 0-.765 1.705 9.584 9.584 0 0 0-.228 2.12v7.586h-4.632V15.214h4.404ZM108.411 20.396c.067-1.087.335-1.987.819-2.698a5.767 5.767 0 0 1 1.825-1.732 8.159 8.159 0 0 1 2.497-.926 13.954 13.954 0 0 1 2.779-.282c.846 0 1.705.054 2.578.174.872.121 1.665.35 2.376.698.712.35 1.302.833 1.759 1.45.456.618.684 1.437.684 2.457v8.766c0 .765.041 1.49.135 2.188.08.699.241 1.222.456 1.558h-4.685a7.6 7.6 0 0 1-.215-.792 5.547 5.547 0 0 1-.107-.833 6.056 6.056 0 0 1-2.605 1.598c-.993.309-2.013.456-3.061.456-.805 0-1.557-.094-2.242-.295-.698-.201-1.302-.497-1.825-.913a4.346 4.346 0 0 1-1.222-1.557c-.295-.631-.443-1.383-.443-2.242 0-.953.175-1.745.51-2.363.336-.617.765-1.114 1.302-1.477a6.132 6.132 0 0 1 1.826-.832 18.255 18.255 0 0 1 2.068-.443 28.516 28.516 0 0 1 2.054-.255 11.772 11.772 0 0 0 1.785-.295c.524-.134.94-.322 1.235-.564.309-.255.443-.618.43-1.088 0-.496-.081-.899-.242-1.194a1.701 1.701 0 0 0-.658-.685 2.59 2.59 0 0 0-.94-.322 7.783 7.783 0 0 0-1.154-.08c-.913 0-1.624.2-2.148.59-.524.39-.819 1.047-.913 1.96h-4.658v-.027Zm10.686 3.424a2.06 2.06 0 0 1-.739.402 8.701 8.701 0 0 1-.939.242c-.336.067-.685.12-1.061.16-.376.041-.738.095-1.101.162a8.75 8.75 0 0 0-1.02.255 3.04 3.04 0 0 0-.886.443 2.022 2.022 0 0 0-.604.698c-.148.282-.228.645-.228 1.074 0 .416.08.765.228 1.047.148.282.362.51.617.671.256.162.564.282.913.336.349.067.712.094 1.074.094.913 0 1.611-.148 2.121-.456.497-.31.873-.672 1.101-1.088.242-.43.39-.845.443-1.288.054-.43.081-.78.081-1.048V23.82ZM131.043 26.329c.282.537.658.98 1.128 1.315.47.336 1.02.59 1.651.752a7.838 7.838 0 0 0 1.96.242c.456 0 .94-.04 1.463-.108a5.302 5.302 0 0 0 1.464-.443c.456-.215.832-.51 1.141-.9.308-.375.456-.858.456-1.45 0-.63-.201-1.14-.604-1.53-.403-.389-.926-.711-1.584-.98a18.09 18.09 0 0 0-2.215-.684 70.084 70.084 0 0 1-2.511-.658 22.332 22.332 0 0 1-2.537-.792 8.846 8.846 0 0 1-2.215-1.222 5.672 5.672 0 0 1-1.584-1.88c-.403-.75-.604-1.65-.604-2.724 0-1.195.255-2.229.765-3.115a6.98 6.98 0 0 1 2-2.201c.819-.591 1.759-1.02 2.806-1.303a11.949 11.949 0 0 1 3.128-.43c1.222 0 2.39.135 3.504.403a8.811 8.811 0 0 1 2.98 1.316 6.551 6.551 0 0 1 2.068 2.336c.51.94.765 2.094.765 3.437h-4.954c-.04-.698-.188-1.276-.443-1.732-.255-.457-.577-.819-.993-1.074a4.317 4.317 0 0 0-1.423-.55 8.877 8.877 0 0 0-1.746-.162c-.416 0-.832.04-1.235.135a3.21 3.21 0 0 0-1.127.456 2.692 2.692 0 0 0-.833.819c-.214.322-.322.738-.322 1.235 0 .457.081.832.255 1.1.175.283.51.538 1.02.78.511.241 1.222.483 2.122.711.899.242 2.08.537 3.53.913.43.08 1.034.242 1.813.47.765.228 1.53.59 2.295 1.087.765.497 1.423 1.168 1.974 2 .55.833.832 1.907.832 3.209 0 1.06-.201 2.054-.618 2.967a6.383 6.383 0 0 1-1.839 2.363c-.819.657-1.826 1.18-3.034 1.543-1.208.363-2.604.55-4.188.55-1.276 0-2.524-.16-3.732-.47a9.3 9.3 0 0 1-3.195-1.476c-.927-.671-1.652-1.53-2.202-2.577-.537-1.047-.805-2.283-.779-3.719h4.954c.027.832.161 1.49.443 2.04ZM155.906 15.212v3.1h-3.383v8.337c0 .78.134 1.303.39 1.558.255.255.778.39 1.557.39.255 0 .51-.014.752-.028.241-.027.469-.053.684-.094v3.585c-.389.067-.819.107-1.302.134-.483.027-.94.027-1.396.027a14.17 14.17 0 0 1-2.041-.148c-.644-.094-1.208-.282-1.691-.564a3.04 3.04 0 0 1-1.155-1.208c-.282-.523-.429-1.208-.429-2.054v-9.934h-2.806v-3.101h2.806v-5.048h4.631v5.048h3.383ZM157.113 20.396c.068-1.087.336-1.987.819-2.698a5.781 5.781 0 0 1 1.826-1.732 8.15 8.15 0 0 1 2.497-.926 13.947 13.947 0 0 1 2.779-.282c.846 0 1.705.054 2.578.174.872.121 1.664.35 2.376.698.711.35 1.302.833 1.758 1.45.457.618.685 1.437.685 2.457v8.766c0 .765.04 1.49.134 2.188.081.699.242 1.222.457 1.558h-4.712a7.36 7.36 0 0 1-.215-.792 5.68 5.68 0 0 1-.108-.833 6.052 6.052 0 0 1-2.604 1.598c-.993.309-2.014.456-3.061.456-.805 0-1.557-.094-2.242-.295-.698-.201-1.302-.497-1.825-.913a4.346 4.346 0 0 1-1.222-1.557c-.295-.631-.443-1.383-.443-2.242 0-.953.174-1.745.51-2.363.336-.617.765-1.114 1.302-1.477a6.132 6.132 0 0 1 1.826-.832 18.285 18.285 0 0 1 2.067-.443 28.586 28.586 0 0 1 2.054-.255 11.765 11.765 0 0 0 1.786-.295c.523-.134.94-.322 1.235-.564.309-.255.443-.618.429-1.088 0-.496-.08-.899-.241-1.194a1.701 1.701 0 0 0-.658-.685 2.602 2.602 0 0 0-.94-.322 7.783 7.783 0 0 0-1.154-.08c-.913 0-1.625.2-2.148.59-.524.39-.833 1.047-.913 1.96h-4.632v-.027Zm10.673 3.424a2.055 2.055 0 0 1-.738.402 8.72 8.72 0 0 1-.94.242c-.336.067-.685.12-1.061.16-.376.041-.738.095-1.1.162a8.766 8.766 0 0 0-1.021.255 3.053 3.053 0 0 0-.886.443 2.022 2.022 0 0 0-.604.698c-.148.282-.228.645-.228 1.074 0 .416.08.765.228 1.047.148.282.363.51.618.671.255.162.564.282.913.336.349.067.711.094 1.074.094.912 0 1.61-.148 2.121-.456.496-.31.872-.672 1.1-1.088.242-.43.39-.845.443-1.288.054-.43.081-.78.081-1.048V23.82ZM184.609 15.212v3.1h-3.383v8.337c0 .78.135 1.303.39 1.558.255.255.778.39 1.557.39.255 0 .51-.014.752-.028a9.37 9.37 0 0 0 .684-.094v3.585c-.389.067-.819.107-1.302.134-.483.027-.94.027-1.396.027a14.17 14.17 0 0 1-2.041-.148c-.644-.094-1.208-.282-1.691-.564a3.04 3.04 0 0 1-1.155-1.208c-.282-.523-.429-1.208-.429-2.054v-9.934h-2.806v-3.101h2.806v-5.048h4.631v5.048h3.383ZM190.622 28.021c.699.672 1.692 1.007 2.994 1.007.94 0 1.732-.228 2.417-.698.671-.47 1.087-.966 1.235-1.477h4.067c-.657 2.014-1.651 3.464-2.993 4.337-1.343.872-2.981 1.302-4.887 1.302-1.329 0-2.524-.215-3.584-.631-1.061-.43-1.96-1.02-2.699-1.813-.738-.778-1.302-1.718-1.705-2.805-.402-1.088-.604-2.282-.604-3.585 0-1.262.202-2.43.618-3.517.416-1.087.993-2.027 1.758-2.82a8.317 8.317 0 0 1 2.726-1.879c1.047-.456 2.215-.684 3.503-.684 1.437 0 2.685.282 3.746.832a7.534 7.534 0 0 1 2.618 2.229c.684.94 1.181 2 1.476 3.195.309 1.195.417 2.443.323 3.745h-12.15c.067 1.504.457 2.591 1.141 3.262Zm5.236-8.86c-.55-.604-1.396-.913-2.524-.913-.738 0-1.356.121-1.839.376-.483.255-.886.564-1.168.926a3.504 3.504 0 0 0-.617 1.168 5.63 5.63 0 0 0-.215 1.101h7.531c-.228-1.168-.618-2.054-1.168-2.658Z"/><path fill="#1E69AA" d="M27.648 35.337h-17.64V17.684l17.64 17.653Z"/><path fill="#4187CD" d="M10.008 17.684h17.64v17.653l-17.64-17.653Z"/><path fill="#64AAEB" d="m.3 49.07 9.707-13.733V17.684L.3 31.417V49.07Z"/><path fill="#4187CD" d="m.3 49.07 27.347-13.734h-17.64L.3 49.069Z"/></g><defs><clipPath id="a"><path fill="#fff" d="M.371 0h201.236v49H.371z"/></clipPath></defs></svg>