<svg width="165" height="39" fill="none" xmlns="http://www.w3.org/2000/svg"><g clip-path="url(#a)" fill="#0B0B0B"><path d="m57.457 37.316-.65-2.327c-.201.166-.418.325-.651.475-2.136 1.452-5.106 2.178-8.91 2.178-3.604 0-6.473-.651-8.609-1.953-2.136-1.301-3.203-3.695-3.203-7.182 0-3.27 1.084-5.59 3.253-6.958 2.186-1.368 5.573-2.052 10.16-2.052h7.384v-.9c0-1.953-.518-3.346-1.552-4.18-1.034-.851-2.42-1.277-4.154-1.277-1.569 0-2.904.376-4.005 1.127-1.1.75-1.785 1.943-2.052 3.579l-8.409-2.353c.5-2.72 1.986-4.755 4.455-6.106 2.486-1.352 5.69-2.028 9.61-2.028 5.673 0 9.552 1.177 11.637 3.53 2.086 2.352 3.129 5.697 3.129 10.035v16.392h-7.433Zm-1.226-8.834v-3.904H50.65c-2.47 0-4.163.308-5.08.926-.901.617-1.352 1.576-1.352 2.878 0 1.284.409 2.252 1.226 2.903.818.634 2.127.95 3.93.95 1.985 0 3.62-.375 4.904-1.125 1.302-.751 1.953-1.627 1.953-2.628ZM88.615 22.32c0-3.72-.425-6.148-1.276-7.283-.834-1.151-2.002-1.727-3.504-1.727-1.735 0-3.12.61-4.154 1.827-.868 1.035-1.368 2.186-1.501 3.454v18.72h-8.61V7.629h8.234l.175 2.853c.084-.083.167-.158.25-.225 2.253-1.919 5.206-2.878 8.86-2.878 3.954 0 6.632 1.218 8.033 3.654 1.402 2.419 2.103 6.181 2.103 11.287h-8.61ZM123.008 37.316l-.651-2.327c-.2.166-.417.325-.651.475-2.135 1.452-5.105 2.178-8.909 2.178-3.604 0-6.474-.651-8.609-1.953-2.136-1.301-3.204-3.695-3.204-7.182 0-3.27 1.085-5.59 3.254-6.958 2.185-1.368 5.572-2.052 10.161-2.052h7.382v-.9c0-1.953-.517-3.346-1.551-4.18-1.035-.851-2.42-1.277-4.155-1.277-1.568 0-2.903.376-4.004 1.127-1.101.75-1.785 1.943-2.052 3.579l-8.409-2.353c.501-2.72 1.985-4.755 4.455-6.106 2.486-1.352 5.689-2.028 9.61-2.028 5.673 0 9.552 1.177 11.637 3.53 2.086 2.352 3.128 5.697 3.128 10.035v16.392h-7.432Zm-1.227-8.834v-3.904H116.2c-2.469 0-4.162.308-5.08.926-.901.617-1.351 1.576-1.351 2.878 0 1.284.408 2.252 1.226 2.903.818.634 2.127.95 3.929.95 1.986 0 3.621-.375 4.905-1.125 1.302-.751 1.952-1.627 1.952-2.628ZM149.7 37.563c-4.037 0-7.349-.6-9.935-1.802-2.586-1.218-4.263-3.228-5.031-6.031l7.558-2.753c.334 1.768 1.168 3.028 2.503 3.779 1.351.734 2.937 1.101 4.755 1.101 1.902 0 3.37-.258 4.405-.776 1.034-.517 1.551-1.26 1.551-2.227 0-1.218-.625-2.01-1.877-2.378-1.234-.383-3.261-.784-6.081-1.2-4.555-.601-7.792-1.51-9.71-2.729-1.919-1.218-2.878-3.328-2.878-6.331 0-3.07 1.318-5.306 3.954-6.708 2.653-1.401 6.156-2.102 10.511-2.102 4.221 0 7.458.6 9.71 1.802 2.269 1.185 3.746 3.112 4.43 5.781l-7.283 2.703c-.35-1.602-1.126-2.77-2.327-3.504-1.185-.75-2.745-1.126-4.68-1.126-1.835 0-3.27.284-4.305.851-1.017.567-1.526 1.301-1.526 2.203 0 1.167.659 1.91 1.977 2.227 1.334.317 3.345.667 6.031 1.05 4.371.568 7.558 1.477 9.56 2.729 2.002 1.234 3.003 3.32 3.003 6.256 0 3.32-1.293 5.681-3.879 7.083-2.569 1.401-6.048 2.102-10.436 2.102Z"/><path fill-rule="evenodd" clip-rule="evenodd" d="M5.65 37.637.645.097l21.147 3.755c.899.236 1.731.426 2.498.602 2.882.658 4.831 1.104 5.886 3.001 1.335 2.386 2.002 5.323 2.002 8.81 0 3.503-.667 6.448-2.002 8.834-1.335 2.386-4.13 3.579-8.384 3.579h-9.16l1.752 8.96H5.65ZM8.403 7.856 19.816 9.86c.485.126.934.228 1.348.321 1.555.352 2.607.59 3.176 1.604.72 1.274 1.08 2.843 1.08 4.705 0 1.872-.36 3.445-1.08 4.72-.72 1.274-2.228 1.911-4.524 1.911h-5.214l-3.142-.25L8.403 7.856Z"/></g><defs><clipPath id="a"><path fill="#fff" transform="translate(.645 .098)" d="M0 0h163.373v38.801H0z"/></clipPath></defs></svg>