<svg xmlns="http://www.w3.org/2000/svg" width="155" height="49" fill="none"><g fill="#0B0B0B" clip-path="url(#a)"><path d="M18.484 5.111 14.005.633h2.978l1.489 1.489 1.5-1.49h2.978l-4.466 4.48ZM5.06.633.582 5.11V8.09L8.038.633H5.06ZM.582 14.056v2.978l1.489 1.488-1.489 1.501v2.978l4.478-4.479-4.478-4.466Zm35.803 8.957v-2.978l-1.488-1.488 1.489-1.49V14.08l-4.479 4.479 4.479 4.454Zm-25.357 16.4L.582 28.98v2.978l10.446 10.446 7.456-7.457 1.488 1.49h2.978l-4.478-4.48-7.444 7.457ZM.582 34.949v2.977l10.446 10.446 7.456-7.456v-2.978l-7.456 7.456L.582 34.947ZM16.995 48.37l1.489-1.489v-2.978l-4.479 4.479h2.99v-.012ZM.582 43.892l4.478 4.479h2.978L.582 40.915v2.977Zm17.902-26.846 5.967-5.967-1.489-1.49-4.478 4.48L11.028 6.6 6.549 11.08l7.456 7.456L6.55 25.99l4.479 4.478 7.456-7.456 7.456 7.456 4.478-4.478-7.456-7.456 7.456-7.457L25.94 6.6 24.45 8.09l2.978 2.977-7.456 7.456 7.456 7.457-1.49 1.488-7.455-7.456-7.456 7.456-1.49-1.488 7.457-7.457-7.468-7.443 1.489-1.49 7.468 7.457Zm17.901-5.967L25.94.633l-7.456 7.456L11.028.633.582 11.079l7.456 7.456L.582 25.99l7.456 7.456 1.489-1.49-5.967-5.966 7.456-7.456-7.456-7.457 7.456-7.456 7.456 7.457 7.456-7.457 7.456 7.457-7.456 7.456 7.456 7.456-7.456 7.456-7.456-7.456-6.1 6.112-2.833 2.832 1.489 1.49 7.456-7.457 7.456 7.456L36.385 25.98l-7.455-7.457 7.456-7.443ZM45.332 36.435v-22.38h12.31c1.525 0 2.82.314 3.897.932a6.286 6.286 0 0 1 2.481 2.578c.582 1.101.86 2.384.86 3.861 0 1.525-.303 2.832-.896 3.946a6.386 6.386 0 0 1-2.542 2.59c-1.101.617-2.408.932-3.921.932h-6.355v7.553h-5.834v-.012Zm5.834-12.056h4.987c.908 0 1.61-.254 2.082-.762.472-.509.714-1.223.714-2.13 0-.654-.109-1.187-.315-1.598a2.157 2.157 0 0 0-.932-.956c-.411-.23-.932-.34-1.561-.34h-4.987v5.786h.012ZM67.133 36.435v-22.38h5.834v17.587h11.365v4.793h-17.2ZM97.065 36.819c-2.457 0-4.551-.424-6.306-1.283a8.983 8.983 0 0 1-4.019-3.861c-.932-1.719-1.404-3.861-1.404-6.452 0-2.578.472-4.732 1.404-6.427a9.02 9.02 0 0 1 4.019-3.849c1.742-.86 3.849-1.283 6.306-1.283s4.551.424 6.306 1.283a9.02 9.02 0 0 1 4.018 3.85c.932 1.706 1.404 3.848 1.404 6.426 0 2.579-.472 4.733-1.404 6.452a8.982 8.982 0 0 1-4.018 3.86c-1.755.86-3.861 1.284-6.306 1.284Zm0-4.563c.932 0 1.755-.145 2.481-.424a4.617 4.617 0 0 0 1.803-1.235c.485-.544.848-1.21 1.09-1.985.242-.786.363-1.658.363-2.638v-1.428c0-.993-.121-1.889-.363-2.675-.242-.787-.605-1.44-1.09-1.985a4.617 4.617 0 0 0-1.803-1.235c-.714-.279-1.537-.424-2.481-.424-.957 0-1.792.145-2.506.424-.714.278-1.32.69-1.791 1.235-.472.544-.835 1.21-1.078 1.985-.242.786-.363 1.67-.363 2.675v1.428c0 .98.121 1.852.364 2.638.242.787.593 1.44 1.077 1.986.472.544 1.077.956 1.791 1.234.714.29 1.55.424 2.506.424ZM117.145 36.435V18.848h-7.262v-4.793h20.359v4.793h-7.263v17.587h-5.834ZM131.125 36.435l8.049-11.79-7.262-10.59h7.068l4.104 6.512h.157l4.103-6.512h6.609l-7.299 10.59 8.049 11.79h-7.105l-4.853-7.722h-.158l-4.853 7.722h-6.609Z"/></g><defs><clipPath id="a"><path fill="#fff" d="M.586.633h154.132V48.37H.586z"/></clipPath></defs></svg>