<svg xmlns="http://www.w3.org/2000/svg" width="217" height="33" fill="none"><path fill="url(#a)" d="m36.397 25.61-5.945 6.25a1.376 1.376 0 0 1-1.007.43H1.26a.702.702 0 0 1-.378-.11.665.665 0 0 1-.128-1.027L6.692 24.9A1.376 1.376 0 0 1 7.7 24.47h28.184a.698.698 0 0 1 .383.105.677.677 0 0 1 .26.296.66.66 0 0 1-.13.737Zm-5.945-12.59a1.39 1.39 0 0 0-1.007-.43H1.26a.702.702 0 0 0-.378.11.665.665 0 0 0-.128 1.027l5.938 6.254a1.39 1.39 0 0 0 1.007.43h28.184c.134 0 .265-.039.377-.111a.68.68 0 0 0 .253-.296.663.663 0 0 0-.127-.73L30.45 13.02ZM1.261 8.53h28.183a1.399 1.399 0 0 0 1.006-.43l5.946-6.25a.67.67 0 0 0 .13-.737.678.678 0 0 0-.26-.297.698.698 0 0 0-.383-.105H7.7a1.4 1.4 0 0 0-1.007.431L.754 7.392a.673.673 0 0 0-.126.732.7.7 0 0 0 .633.407Z"/><path fill="#0B0B0B" d="M70.76 14.065H55.68V9.197H74.68V4.328H55.63a5.041 5.041 0 0 0-1.898.36 4.963 4.963 0 0 0-1.614 1.045c-.463.448-.83.982-1.083 1.57a4.775 4.775 0 0 0-.388 1.857v4.935c.003.638.134 1.27.386 1.859s.62 1.123 1.082 1.573c.463.45 1.012.805 1.615 1.046a5.043 5.043 0 0 0 1.9.36h15.098v4.869H51.007v4.868H70.76a5.042 5.042 0 0 0 1.898-.36 4.964 4.964 0 0 0 1.614-1.044c.462-.449.83-.982 1.083-1.57.252-.589.384-1.22.387-1.858v-4.934a4.776 4.776 0 0 0-.385-1.86 4.857 4.857 0 0 0-1.083-1.572 4.968 4.968 0 0 0-1.614-1.046 5.042 5.042 0 0 0-1.9-.36ZM99.967 4.328H84.832a5.044 5.044 0 0 0-1.903.356 4.967 4.967 0 0 0-1.618 1.044A4.85 4.85 0 0 0 80.225 7.3a4.772 4.772 0 0 0-.39 1.86v14.678c.004.64.137 1.272.39 1.86a4.85 4.85 0 0 0 1.086 1.573 4.967 4.967 0 0 0 1.618 1.043c.604.24 1.25.362 1.903.357h15.135a5.046 5.046 0 0 0 1.899-.36 4.961 4.961 0 0 0 1.613-1.045 4.845 4.845 0 0 0 1.083-1.57c.253-.589.384-1.22.388-1.858V9.161a4.773 4.773 0 0 0-.388-1.858 4.845 4.845 0 0 0-1.083-1.57 4.962 4.962 0 0 0-1.613-1.045 5.046 5.046 0 0 0-1.899-.36Zm-.037 19.474H84.87V9.197h15.055l.006 14.605ZM152.98 4.328h-14.763a5.046 5.046 0 0 0-1.899.36 4.962 4.962 0 0 0-1.613 1.045 4.845 4.845 0 0 0-1.083 1.57 4.791 4.791 0 0 0-.388 1.858v19.51h5.033v-7.997h14.696v7.997h5.033V9.16a4.758 4.758 0 0 0-.391-1.865 4.852 4.852 0 0 0-1.091-1.575 4.969 4.969 0 0 0-1.625-1.042 5.048 5.048 0 0 0-1.909-.35Zm-.037 11.477h-14.696V9.197h14.696v6.609ZM211.745 4.328h-14.762a5.046 5.046 0 0 0-1.899.36 4.962 4.962 0 0 0-1.613 1.045 4.845 4.845 0 0 0-1.083 1.57A4.755 4.755 0 0 0 192 9.16v19.51h5.033v-7.996h14.662v7.996h5.033V9.16a4.755 4.755 0 0 0-.388-1.857 4.845 4.845 0 0 0-1.083-1.57 4.962 4.962 0 0 0-1.613-1.045 5.046 5.046 0 0 0-1.899-.36Zm-.05 11.477h-14.696V9.197h14.696v6.608ZM182.508 23.802h-2.013l-7.197-17.434a3.264 3.264 0 0 0-1.218-1.48 3.368 3.368 0 0 0-1.855-.56h-4.466a3.363 3.363 0 0 0-1.266.24c-.402.161-.767.398-1.076.698a3.24 3.24 0 0 0-.721 1.047 3.166 3.166 0 0 0-.258 1.239V28.67h5.032V9.197h2.013l7.194 17.434c.251.6.678 1.114 1.228 1.474.55.361 1.197.553 1.859.552h4.466c.434.002.864-.08 1.266-.24.402-.161.767-.398 1.076-.697.308-.3.553-.655.721-1.048.168-.392.256-.813.258-1.239V4.328h-5.043v19.474ZM114.431 4.328h-5.033v19.51c.004.64.136 1.272.39 1.861a4.84 4.84 0 0 0 1.087 1.573 4.964 4.964 0 0 0 1.619 1.043c.605.24 1.251.36 1.904.355h15.098v-4.868h-15.065V4.328Z"/><defs><linearGradient id="a" x1="3.61" x2="32.51" y1="33.043" y2="-.189" gradientUnits="userSpaceOnUse"><stop offset=".08" stop-color="#9945FF"/><stop offset=".3" stop-color="#8752F3"/><stop offset=".5" stop-color="#5497D5"/><stop offset=".6" stop-color="#43B4CA"/><stop offset=".72" stop-color="#28E0B9"/><stop offset=".97" stop-color="#19FB9B"/></linearGradient></defs></svg>