<svg width="188" height="57" fill="none" xmlns="http://www.w3.org/2000/svg"><g clip-path="url(#a)"><path d="M113.855 55.24v-5.707h.562l.056.462h.027c.182-.156.383-.289.597-.396.21-.11.444-.166.681-.165.237-.004.472.045.687.145.196.095.367.237.495.413.139.194.241.413.301.644.072.276.106.56.102.846.005.31-.042.617-.139.911a2.144 2.144 0 0 1-.379.68 1.607 1.607 0 0 1-.555.427 1.568 1.568 0 0 1-.661.145 1.356 1.356 0 0 1-.558-.126 2.869 2.869 0 0 1-.555-.33l.017.7v1.351h-.678Zm1.652-2.163a.991.991 0 0 0 .459-.11c.144-.081.268-.194.363-.33.11-.15.191-.32.238-.501.062-.215.092-.438.089-.661a2.853 2.853 0 0 0-.059-.604 1.352 1.352 0 0 0-.185-.466.875.875 0 0 0-.33-.3 1.014 1.014 0 0 0-.483-.11c-.182.004-.36.053-.518.142-.2.113-.386.248-.555.403v2.108c.156.14.335.25.528.33.147.059.302.091.46.096l-.007.003ZM120.204 53.646a1.78 1.78 0 0 1-1.295-.548 2.01 2.01 0 0 1-.409-.66 2.688 2.688 0 0 1 0-1.784c.093-.245.232-.469.409-.661.165-.177.365-.318.588-.413a1.87 1.87 0 0 1 1.414 0c.223.096.424.236.591.413.176.192.314.416.406.66a2.639 2.639 0 0 1 0 1.784 2.004 2.004 0 0 1-.406.66 1.78 1.78 0 0 1-1.298.548Zm0-.562a.988.988 0 0 0 .472-.112 1.07 1.07 0 0 0 .367-.314c.107-.145.186-.308.234-.482.058-.204.086-.415.083-.627a2.205 2.205 0 0 0-.083-.631 1.504 1.504 0 0 0-.234-.492.989.989 0 0 0-.839-.443.993.993 0 0 0-.839.443c-.106.149-.185.316-.234.492a2.205 2.205 0 0 0-.083.63c-.003.213.025.424.083.628.049.173.129.336.234.482a1.05 1.05 0 0 0 .839.426ZM123.96 53.548l-1.116-4.013h.693l.595 2.312c.043.195.086.38.125.562.04.181.076.366.116.555h.033a29.8 29.8 0 0 1 .132-.559c.046-.185.089-.37.139-.558l.621-2.312h.66l.628 2.312.142.562c.049.181.092.366.139.555h.033c.043-.189.082-.374.122-.555.04-.182.079-.367.125-.562l.585-2.312h.644l-1.073 4.013h-.826l-.578-2.157c-.05-.191-.096-.383-.135-.568-.04-.185-.086-.383-.136-.588h-.033l-.132.592c-.043.188-.096.383-.149.574l-.561 2.147h-.793ZM131.084 53.645a1.98 1.98 0 0 1-.756-.145 1.8 1.8 0 0 1-.611-.413 1.917 1.917 0 0 1-.407-.66c-.2-.574-.2-1.198 0-1.771a2.09 2.09 0 0 1 .403-.66c.162-.177.357-.319.575-.417.208-.093.433-.143.661-.145.233-.005.465.04.68.132.203.084.381.218.519.39.14.176.246.378.31.594.076.252.113.514.109.777v.21a1.145 1.145 0 0 1-.02.176h-2.711c.006.377.148.74.399 1.02a1.235 1.235 0 0 0 .938.377c.181.001.361-.028.532-.086a2.54 2.54 0 0 0 .469-.228l.238.446c-.185.114-.381.21-.585.288-.238.084-.49.123-.743.115Zm-1.248-2.428h2.146a1.435 1.435 0 0 0-.26-.928.893.893 0 0 0-.73-.33c-.141 0-.28.028-.41.083a1.11 1.11 0 0 0-.35.244 1.33 1.33 0 0 0-.261.393c-.075.17-.121.353-.135.538ZM133.762 53.546v-4.013h.561l.06.727h.023a1.85 1.85 0 0 1 .499-.605c.182-.144.408-.221.64-.221.148-.003.294.025.43.082l-.132.595a1.065 1.065 0 0 0-.387-.066.915.915 0 0 0-.535.205 1.653 1.653 0 0 0-.482.72v2.576h-.677ZM138.455 53.645a1.983 1.983 0 0 1-.753-.145 1.78 1.78 0 0 1-.611-.413 1.86 1.86 0 0 1-.409-.66 2.674 2.674 0 0 1 0-1.771c.092-.244.23-.468.406-.66a1.74 1.74 0 0 1 .571-.417c.208-.093.433-.143.661-.145.233-.005.465.04.68.132.197.084.37.214.505.38.141.176.246.378.308.594.075.252.112.514.109.776v.212a.937.937 0 0 1-.023.175h-2.709c.008.377.151.74.403 1.02a1.238 1.238 0 0 0 .935.377c.182.002.363-.027.535-.086a2.52 2.52 0 0 0 .466-.228l.237.446a3.44 3.44 0 0 1-.584.288 2.042 2.042 0 0 1-.727.125Zm-1.262-2.428h2.147a1.418 1.418 0 0 0-.257-.93.883.883 0 0 0-.73-.331c-.141 0-.28.028-.41.082-.131.059-.25.142-.35.245a1.35 1.35 0 0 0-.261.393 1.812 1.812 0 0 0-.139.541ZM142.506 53.646a1.49 1.49 0 0 1-1.212-.545 2.38 2.38 0 0 1-.449-1.553c-.004-.299.045-.596.145-.878a2.09 2.09 0 0 1 .383-.66c.154-.178.343-.321.555-.42.207-.099.432-.15.661-.149.207-.005.412.036.601.122.185.09.359.2.519.33l-.03-.687v-1.542h.69v5.88h-.561l-.057-.473h-.042a2.5 2.5 0 0 1-.549.403c-.2.11-.425.17-.654.172Zm.149-.572c.185.002.367-.045.528-.135a1.9 1.9 0 0 0 .496-.416v-2.098a1.717 1.717 0 0 0-.492-.33 1.325 1.325 0 0 0-.486-.096.992.992 0 0 0-.449.112 1.185 1.185 0 0 0-.367.33 1.54 1.54 0 0 0-.247.483 2.086 2.086 0 0 0-.093.627c-.022.4.079.795.291 1.133a.937.937 0 0 0 .819.39ZM149.836 53.646a1.44 1.44 0 0 1-.581-.135 2.217 2.217 0 0 1-.565-.377h-.026l-.057.413h-.545v-5.879h.678v1.602l-.017.726c.18-.158.38-.292.595-.4a1.553 1.553 0 0 1 1.344-.017c.198.097.37.239.502.414.141.194.245.412.304.644.071.273.106.554.102.836.005.312-.042.622-.139.918-.082.25-.211.482-.379.684a1.59 1.59 0 0 1-1.216.571Zm-.115-.571a.993.993 0 0 0 .459-.11c.144-.08.268-.193.363-.33.109-.151.191-.321.241-.502.059-.215.088-.437.086-.66a2.79 2.79 0 0 0-.06-.605 1.286 1.286 0 0 0-.184-.465.885.885 0 0 0-.331-.3.991.991 0 0 0-.482-.11 1.666 1.666 0 0 0-1.073.545v2.107c.153.142.331.254.525.33.145.06.299.094.456.1ZM152.899 55.272c-.086 0-.172-.006-.257-.02a.947.947 0 0 1-.215-.062l.132-.535.149.036c.052.013.105.02.158.02a.725.725 0 0 0 .565-.241c.151-.182.263-.392.331-.618l.089-.297-1.609-4.02h.714l.819 2.22c.059.178.125.363.195.558.069.195.132.386.191.575h.033c.063-.182.119-.374.175-.572.056-.198.109-.383.165-.561l.717-2.22h.661l-1.51 4.343c-.068.19-.148.374-.241.552-.08.163-.186.313-.314.443a1.236 1.236 0 0 1-.948.4Z" fill="#0B0B0B"/><path d="M168.114 21.055c5.166-2.973 5.658-7.267 6.328-11.078.403-2.312.572-3.207.572-3.207h9.155s-.436 2.454-.839 4.762c-.66 3.825-.561 6.606-5.565 9.523l-7.171 4.131c-5.165 2.973-5.657 7.267-6.325 11.078-.403 2.312-.571 3.204-.571 3.204h-9.159s.436-2.454.839-4.763c.661-3.824.561-6.605 5.565-9.519l7.171-4.131Z" fill="#00D37E"/><path d="M99.894 13.182h8.059V39.48h-8.06V13.182Zm-.753-7.068c0-2.45 1.932-4.38 4.805-4.38 2.874 0 4.753 1.93 4.753 4.38 0 2.401-1.932 4.333-4.759 4.333-2.828 0-4.8-1.932-4.8-4.333ZM42.996 32.648h-2.771c-1.79 0-2.451-.66-2.451-2.216v-10.57h4.043l1.179-6.69h-5.222V6.772h-8.06V30.34c0 6.833 3.819 9.142 9.285 9.142h2.791l1.206-6.834ZM127.074 32.648h-2.771c-1.79 0-2.451-.66-2.451-2.216v-10.57h4.043l1.179-6.69h-5.222V6.772h-8.059V30.34c0 6.833 3.818 9.142 9.284 9.142h2.795l1.202-6.834ZM65.548 13.182h-1.44a9.473 9.473 0 0 0-8.201 4.383v-4.383h-8.06v26.297h8.06V27.26c0-4.522 2.216-5.843 6.034-5.843h2.167l1.44-8.234ZM77.884 12.805c3.914 0 6.691 1.79 8.108 4.099V13.18h8.06V39.48h-8.06v-3.726c-1.463 2.312-4.244 4.142-8.155 4.142-6.41 0-11.56-5.321-11.56-13.615 0-8.293 5.15-13.475 11.607-13.475Zm2.358 7.022c-3.016 0-5.75 2.262-5.75 6.457 0 4.194 2.734 6.55 5.75 6.55 3.015 0 5.75-2.313 5.75-6.504 0-4.191-2.688-6.503-5.75-6.503ZM5.556 31.593c4.786 2.183 12.395 3.144 12.55.168.209-4.24-14.34-1.179-14.34-10.85 0-4.482 3.821-8.161 10.71-8.161 3.57-.005 7.11.64 10.448 1.902l-1.11 6.316c-4.185-1.728-7.699-2.227-9.578-2.227-1.88 0-2.927.753-2.927 2.028 0 3.723 14.249 1.226 14.391 11.042 0 4.574-4.056 8.02-10.662 8.02A25.319 25.319 0 0 1 4.47 37.907l1.087-6.315ZM132.025 31.593c4.782 2.183 12.392 3.144 12.55.168.209-4.24-14.341-1.179-14.341-10.85 0-4.482 3.822-8.161 10.708-8.161 3.57-.005 7.111.64 10.451 1.902l-1.117 6.316c-4.165-1.731-7.682-2.227-9.578-2.227-1.896 0-2.936.753-2.936 2.028 0 3.723 14.248 1.226 14.39 11.042 0 4.574-4.059 8.02-10.661 8.02a25.319 25.319 0 0 1-10.586-1.923l1.12-6.315Z" fill="#0B0B0B"/><path d="M166.012 19.902h-3.749a6.444 6.444 0 0 1-6.335-5.324l-1.377-7.805h9.159l2.302 13.13ZM172.699 26.352h3.746a6.445 6.445 0 0 1 6.351 5.327l1.374 7.802h-9.155l-2.316-13.13Z" fill="#00D37E"/><path d="m160.882 50.503-1.572-2.827h1.833l.829 1.754 1.384-1.754h1.879l-2.51 3.105 1.526 2.76h-1.79l-.829-1.687-1.321 1.688h-1.913l2.484-3.039ZM172.739 49.465c.1-.542-.198-.66-.815-.66-1.051 0-1.15.683-1.295 1.413 0 .01 1.922.327 2.11-.753Zm-.706-1.903c1.261 0 2.388.33 2.312 1.692-.179 2.672-3.416 2.156-3.825 1.981-.152.895.066 1.127.852 1.14.803 0 1.605-.063 2.398-.188l-.188 1.103a8.32 8.32 0 0 1-3.062.33c-1.401-.066-1.853-1.248-1.457-3.392.327-1.803.816-2.656 2.97-2.666Z" fill="#0B0B0B"/><path d="M164.943 48.857h.711l-.763 4.683h1.545l.763-4.683h1.711c.132-.362.338-.693.605-.971a1.88 1.88 0 0 1 .244-.212h-2.361l.066-.42c.145-.94.198-1.228.852-1.215h.991l.145-.931a3.55 3.55 0 0 0-1.348-.264c-1.304 0-1.892.518-2.137 2.034l-.132.8-.892 1.179ZM179.119 52.334h2.761a.418.418 0 0 0 .456-.373l.056-.297c.033-.245-.023-.377-.331-.377h-1.321c-1.04 0-1.625-.575-1.45-1.701l.086-.532c.146-.928.644-1.456 1.78-1.456 1.137 0 2.663.033 3.072.297l-.152.99h-2.642c-.396 0-.486.199-.519.41l-.043.288c-.079.432.185.376.397.376h1.347c1.127 0 1.503.783 1.358 1.635l-.099.66c-.189 1.206-.991 1.371-1.681 1.371-1.117 0-2.851-.042-3.217-.33l.142-.961ZM178.896 48.968c.055-.515.289-.995.661-1.355h-1.15a2.896 2.896 0 0 0-1.813.793l-.122-.74h-1.321l-.928 5.866h1.545l.592-3.742a1.872 1.872 0 0 1 1.602-.66h.888l.046-.163Z" fill="#0B0B0B"/></g><defs><clipPath id="a"><path fill="#fff" transform="translate(.363 .414)" d="M0 0h187.25v56.175H0z"/></clipPath></defs></svg>