<svg width="141" height="16" viewBox="0 0 141 16" fill="none" xmlns="http://www.w3.org/2000/svg">
<g clip-path="url(#clip0_2124_3315)">
<path d="M20.9823 3.00146C17.9161 3.00146 15.3405 5.13319 14.6571 7.98132H0.5V11.0217H14.6571C15.3405 13.8698 17.9161 16.0015 20.9823 16.0015C24.5741 16.0015 27.5001 13.0835 27.5001 9.50149C27.5001 5.91949 24.5741 3.00146 20.9823 3.00146ZM20.9823 13.0835C19.0024 13.0835 17.3904 11.476 17.3904 9.50149C17.3904 7.52702 19.0024 5.91949 20.9823 5.91949C22.9621 5.91949 24.5741 7.52702 24.5741 9.50149C24.5741 11.476 22.9621 13.0835 20.9823 13.0835Z" fill="black"/>
<path d="M39.3964 9.13385L37.1422 11.4172V15.0005H34.498V1.00049H37.1422V8.18385L44.1761 1.00049H47.1422L41.1591 7.25051L47.4981 14.9838H44.4134L39.3964 9.13385Z" fill="black"/>
<path d="M59.4981 4.99902V15.8466H56.9813V15.0669C55.8549 15.9144 55.8021 15.9991 53.7605 15.9991C50.8741 15.9991 48.498 14.4737 48.498 11.2024V4.99902H51.1381V10.8465C51.1381 12.8127 52.1061 13.7449 53.7781 13.7449C55.6085 13.7449 56.8581 12.6432 56.8581 10.4736V4.99902H59.4981Z" fill="black"/>
<path d="M73.4981 9.76979V15.9991H70.8832V10.0922C70.8832 8.15731 69.907 7.22377 68.2334 7.22377C66.3681 7.22377 65.113 8.32704 65.113 10.4996V15.9991H62.498V5.13602H64.991V5.95075C66.2636 5.13602 67.048 4.98326 68.8436 5.00024C71.5108 5.05116 73.4981 6.49391 73.4981 9.76979Z" fill="black"/>
<path d="M140.496 9.76979V15.9991H137.881V10.0922C137.881 8.1573 136.905 7.22377 135.231 7.22377C133.366 7.22377 132.111 8.32704 132.111 10.4996V15.9991H129.496V5.13602H131.989V5.95075C133.261 5.13602 134.046 4.98326 135.841 5.00024C138.509 5.05116 140.496 6.49391 140.496 9.76979Z" fill="black"/>
<path d="M76.502 10.4906C76.502 7.26621 79.0568 4.99902 82.6585 4.99902C84.8762 4.99902 86.6326 5.87231 87.502 7.50132L85.4617 8.62652C84.7875 7.60208 83.7585 7.13185 82.623 7.13185C80.6714 7.13185 79.181 8.42499 79.181 10.4906C79.181 12.5899 80.6714 13.8495 82.623 13.8495C83.7585 13.8495 84.7697 13.3793 85.4617 12.3548L87.502 13.48C86.6326 15.0922 84.8585 15.9991 82.6585 15.9991C79.0568 15.9991 76.502 13.7151 76.502 10.4906Z" fill="black"/>
<path d="M89.5 1.55677C89.5 0.691895 90.1406 0 91 0C91.8594 0 92.5 0.640002 92.5 1.48758C92.5 2.40433 91.875 3.11352 91 3.11352C90.1406 3.11352 89.5 2.42163 89.5 1.55677ZM89.8125 4.92975H92.1562V16.0001H89.8125V4.92975Z" fill="black"/>
<path d="M94.5 8.50917C94.5 4.14649 97.9373 1.00049 102.556 1.00049C105.009 1.00049 107.104 1.85217 108.5 3.43386L106.692 5.08507C105.6 3.93791 104.239 3.38172 102.682 3.38172C99.5665 3.38172 97.3107 5.50223 97.3107 8.50917C97.3107 11.5161 99.5665 13.6366 102.682 13.6366C104.257 13.6366 105.6 13.0804 106.692 11.8985L108.5 13.5671C107.104 15.1488 104.991 16.0004 102.538 16.0004C97.9373 16.0178 94.5 12.8718 94.5 8.50917Z" fill="black"/>
<path d="M109.502 10.4822C109.502 7.26275 112.032 4.99902 115.493 4.99902C118.99 4.99902 121.502 7.27952 121.502 10.4822C121.502 13.6851 118.99 15.9991 115.493 15.9991C112.032 15.9823 109.502 13.7018 109.502 10.4822ZM118.831 10.4822C118.831 8.43654 117.391 7.1286 115.476 7.1286C113.578 7.1286 112.137 8.43654 112.137 10.4822C112.137 12.5281 113.578 13.836 115.476 13.836C117.391 13.836 118.831 12.5281 118.831 10.4822Z" fill="black"/>
<path d="M123.5 1.55677C123.5 0.691895 124.141 0 125 0C125.859 0 126.5 0.640002 126.5 1.48758C126.5 2.40433 125.875 3.11352 125 3.11352C124.141 3.11352 123.5 2.42163 123.5 1.55677ZM123.812 4.92975H126.156V16.0001H123.812V4.92975Z" fill="black"/>
<path d="M20.5 8.00073V11.0007C21.6136 11.0007 22.5 10.3359 22.5 9.50074C22.5 8.66551 21.5909 8.00073 20.5 8.00073Z" fill="black"/>
<path d="M10.906 3.09279C10.906 4.0791 10.1179 4.88275 9.13287 4.86448C8.1657 4.86448 7.37764 4.06083 7.39555 3.05626C7.39555 3.038 7.39555 3.03799 7.39555 3.01972H6.48211H6.4642H5.71196C5.71196 3.03799 5.71196 3.03799 5.71196 3.03799C5.71196 4.0243 4.9239 4.82795 3.93882 4.80969C2.97165 4.80969 2.18359 4.00604 2.2015 3.00146H0.51791L0.5 7.00148H12.4821L12.5 3.07453L10.906 3.05626C10.906 3.07453 10.906 3.07453 10.906 3.09279Z" fill="black"/>
</g>
<defs>
<clipPath id="clip0_2124_3315">
<rect width="140.001" height="16.0001" fill="white" transform="translate(0.5)"/>
</clipPath>
</defs>
</svg>
