<svg xmlns="http://www.w3.org/2000/svg" width="151" height="40" fill="none"><g fill="#fff" clip-path="url(#a)"><path d="M28.97 24.054c-1.202-.697-2.556-.898-3.899-.942-1.126-.037-2.803-.76-2.803-2.826a2.847 2.847 0 0 1 2.804-2.826c1.342-.047 2.696-.247 3.898-.941a7.108 7.108 0 0 0 3.543-6.16 7.118 7.118 0 0 0-3.553-6.155 7.096 7.096 0 0 0-9.7 2.6 7.118 7.118 0 0 0-.953 3.554c0 1.379.49 2.647 1.116 3.825.524.989.79 2.825-1.013 3.865a2.848 2.848 0 0 1-3.848-1.055c-.705-1.13-1.568-2.198-2.75-2.88a7.096 7.096 0 0 0-9.701 2.606 7.119 7.119 0 0 0 2.6 9.713 7.095 7.095 0 0 0 7.101.002c1.192-.69 2.045-1.749 2.75-2.879.58-.942 2.026-2.11 3.848-1.055a2.855 2.855 0 0 1 1.01 3.865c-.627 1.178-1.113 2.446-1.113 3.825a7.12 7.12 0 0 0 3.553 6.16 7.1 7.1 0 0 0 9.707-2.602 7.122 7.122 0 0 0-2.598-9.719v.025ZM42.297 9.492h4.945v2.336a7.056 7.056 0 0 1 5.43-2.578 6.91 6.91 0 0 1 2.088.242v5.652s-.684-.242-2.33-.242c-2.823 0-4.704 1.884-4.704 4.71V31.15h-5.43V9.492Zm26.578 0h4.946v2.094a9.314 9.314 0 0 1 6.112-2.336c5.429 0 10.133 4.71 10.133 11.072 0 6.36-4.704 11.07-10.133 11.07a8.443 8.443 0 0 1-5.63-2.131v9.661h-5.428V9.492Zm15.762 10.83c0-3.542-2.333-5.878-5.388-5.878-3.054 0-5.428 2.326-5.428 5.877 0 3.552 2.37 5.869 5.431 5.869s5.385-2.324 5.385-5.869Zm9.408-10.83h4.946v2.094a9.324 9.324 0 0 1 6.112-2.336c5.429 0 10.133 4.71 10.133 11.072 0 6.36-4.704 11.07-10.133 11.07a8.461 8.461 0 0 1-5.63-2.131v9.661h-5.428V9.492Zm15.765 10.83c0-3.542-2.333-5.878-5.391-5.878-3.057 0-5.428 2.326-5.428 5.877 0 3.552 2.374 5.869 5.428 5.869 3.055 0 5.391-2.324 5.391-5.869Zm9.409-18.84h5.428v29.669h-5.428V1.482Zm9.408 18.84c0-6.117 4.946-11.072 10.816-11.072 5.667 0 10.371 4.472 10.371 11.072a13.202 13.202 0 0 1-.241 2.134h-15.075c.483 2.095 2.145 3.734 4.945 3.734 2.534 0 3.541-1.165 3.541-1.165h5.871c-1.089 2.826-4.466 6.358-9.409 6.358-5.873.01-10.819-4.942-10.819-11.061Zm15.994-1.649a5.295 5.295 0 0 0-10.374 0h10.374ZM57.927 3.815a3.082 3.082 0 0 1 3.077-3.08 3.075 3.075 0 0 1 3.076 3.08 3.082 3.082 0 0 1-3.076 3.08 3.075 3.075 0 0 1-3.077-3.08Zm.364 5.677h5.438v21.665H58.3l-.01-21.665Z"/></g><defs><clipPath id="a"><path fill="#fff" d="M0 .053h151v39.548H0z"/></clipPath></defs></svg>