<svg xmlns="http://www.w3.org/2000/svg" width="236" height="47" fill="none"><g fill="#fff" clip-path="url(#a)"><path d="M28.236 37.796h-2.781l-3.329-3.09v-1.585l3.447-3.328v-5.269l4.504-2.971 5.13 3.922-6.971 12.321Zm-11.515-8.32.51-4.952-1.685-4.437h9.948l-1.645 4.437.47 4.952h-7.598Zm2.272 5.23-3.33 3.13h-2.82l-7.01-12.361 5.17-3.883 4.543 2.932v5.27l3.447 3.327v1.585Zm-6.188-23.77h15.392l1.84 7.923H11.003l1.802-7.924ZM20.52 1.07.977 12.48V35.3L20.52 46.71 40.064 35.3V12.48L20.52 1.07Zm41.476 33.396c-5.17 0-8.97-4.08-8.97-9.112 0-5.031 3.84-9.231 9.009-9.231 3.29 0 5.327 1.228 6.932 3.011L66.5 21.828c-1.214-1.307-2.507-2.179-4.504-2.179-2.899 0-5.013 2.536-5.013 5.626 0 3.17 2.154 5.705 5.209 5.705 1.88 0 3.25-.911 4.503-2.18l2.39 2.417c-1.723 1.863-3.721 3.25-7.09 3.25Zm14.649.003h-3.994V16.165h3.995v4.279c1.096-2.615 3.094-4.437 6.148-4.279v4.279h-.234c-3.486 0-5.915 2.298-5.915 6.973v7.052Zm27.024-18.379-8.812 23.296h-4.034l1.92-4.913-7.56-18.382h4.27l5.13 13.589 4.935-13.59h4.151Zm11.748 3.526c-2.703 0-5.053 2.22-5.053 5.666 0 3.447 2.389 5.665 5.053 5.665 2.741 0 4.973-2.179 4.973-5.665s-2.271-5.666-4.973-5.666Zm.9 14.818c-2.859 0-4.66-1.466-5.875-3.09v8.042h-3.994V16.09h3.994v3.288c1.293-1.823 3.094-3.288 5.875-3.288 4.113 0 8.108 3.288 8.108 9.151 0 5.864-3.956 9.192-8.108 9.192Zm16.842-14.498v8.637c0 1.545.783 2.179 2.154 2.179h1.567v3.605h-2.742c-2.898 0-4.974-1.308-4.974-5.15v-9.271h-2.193v-3.447h2.193v-4.833h3.995v4.833h3.721v3.447h-3.721Zm16.296-.326c-3.212 0-5.249 2.535-5.249 5.625 0 3.13 2.194 5.705 5.288 5.705 3.211 0 5.248-2.535 5.248-5.626.078-3.13-2.154-5.705-5.287-5.705Zm0 14.856c-5.288 0-9.204-4.08-9.204-9.112 0-5.071 3.955-9.231 9.282-9.231s9.243 4.08 9.243 9.152c0 4.992-3.916 9.191-9.321 9.191Zm47.428-14.856c-3.212 0-5.248 2.535-5.248 5.625 0 3.13 2.193 5.705 5.286 5.705 3.211 0 5.248-2.535 5.248-5.626.039-3.13-2.154-5.705-5.286-5.705Zm0 14.856c-5.288 0-9.204-4.08-9.204-9.112 0-5.071 3.956-9.231 9.281-9.231 5.328 0 9.244 4.08 9.244 9.152 0 4.992-3.956 9.191-9.321 9.191Zm32.978-18.376c3.799 0 6.11 2.417 6.11 6.736v11.608h-3.996v-10.38c0-2.813-1.292-4.279-3.523-4.279-2.155 0-3.722 1.545-3.722 4.358v10.34h-3.995v-10.42c0-2.733-1.33-4.278-3.524-4.278-2.193 0-3.721 1.664-3.721 4.398v10.3h-3.996V16.13h3.996v3.011c1.135-1.545 2.624-3.01 5.288-3.01 2.506 0 4.229 1.227 5.168 3.09 1.451-1.902 3.291-3.13 5.915-3.13Zm-63.762 14.65v2.06l-.117.199-1.763.99h-.235l-1.723-.99-.117-.198v-2.06l.117-.199 1.723-.99h.235l1.763.99.117.198Zm12.102 3.684c-5.169-.12-8.891-4.279-8.813-9.31.079-5.032 3.995-9.152 9.204-9.033 3.29.079 5.327 1.347 6.893 3.17l-2.507 2.653c-1.175-1.307-2.467-2.258-4.464-2.297-2.898-.04-5.052 2.416-5.091 5.546-.079 3.17 2.036 5.745 5.091 5.784 1.88.04 3.289-.832 4.544-2.1l2.35 2.457c-1.763 1.862-3.8 3.209-7.207 3.13Z"/></g><defs><clipPath id="a"><path fill="#fff" d="M0 .722h236v46.21H0z"/></clipPath></defs></svg>