<svg width="206" height="40" viewBox="0 0 206 40" fill="none" xmlns="http://www.w3.org/2000/svg">
<g clip-path="url(#clip0_465_163)">
<path d="M19.8288 0.459717C27.3421 3.26628 32.4066 8.90325 36.8431 15.2637C37.0736 15.5977 37.2486 15.9793 37.4632 16.3291C38.8705 18.6666 38.8148 20.9643 37.4712 23.3336C35.1894 27.3725 32.1443 30.7515 28.6619 33.733C26.7458 35.3708 24.5992 36.7383 22.4843 38.1217C21.6972 38.6385 20.7193 38.8452 19.8288 39.195H18.6839C17.7139 38.7816 16.6883 38.4556 15.774 37.9468C11.0354 35.2833 7.25095 31.5307 3.84809 27.3486C2.21027 25.3371 0.93022 23.111 0 20.686C0 20.1136 0 19.5412 0 18.9687C0.349826 18.1736 0.612196 17.3309 1.05743 16.5994C5.43026 9.49955 10.8287 3.51275 18.8747 0.459717H19.8288ZM21.9755 8.78399C21.5302 8.8476 21.2679 8.8476 21.0293 8.9271C16.569 10.3741 12.5699 12.6241 9.08753 15.7726C8.34813 16.4404 8.14936 17.2752 8.45149 18.1895C9.90645 22.6101 12.1406 26.5933 15.2572 30.0598C15.9489 30.831 16.7996 31.0298 17.7616 30.6799C18.9781 30.2268 20.2104 29.8292 21.3792 29.2647C24.2414 27.8813 26.9684 26.2753 29.3457 24.1286C30.2043 23.3574 30.5303 22.4908 30.1725 21.33C29.0356 17.6807 27.1433 14.4369 24.9172 11.3759C24.3606 10.6126 23.6848 9.92093 23.0011 9.27693C22.7069 8.99866 22.2378 8.90325 21.9914 8.79194L21.9755 8.78399Z" fill="white"/>
<path d="M66.6021 24.82C70.1083 18.3403 73.5668 11.9639 77.0174 5.58755C77.081 5.47625 77.1207 5.34109 77.2002 5.25363C77.4705 4.99126 77.7568 4.74479 78.035 4.49037C78.202 4.8084 78.4485 5.11052 78.5121 5.45239C80.2692 15.0647 81.9944 24.6769 83.7674 34.2813C83.9264 35.124 83.8072 35.4659 82.8849 35.4182C81.7798 35.3625 80.6587 35.3705 79.5536 35.4182C78.9096 35.442 78.6631 35.1956 78.5518 34.5834C77.5978 29.2088 76.6278 23.8421 75.6578 18.4755C75.626 18.2926 75.5624 18.1177 75.459 17.7281C74.5924 19.3739 73.8053 20.8527 73.0262 22.3395C71.118 25.9888 69.2178 29.6381 67.2858 33.2795C67.1268 33.5816 66.8088 33.7963 66.5623 34.0586C66.3238 33.7963 66.0137 33.5657 65.8547 33.2636C63.2151 28.2786 60.5994 23.2856 57.9757 18.3006C57.9041 18.1654 57.8246 18.0382 57.6418 17.7043C57.2124 20.0815 56.8149 22.2679 56.4094 24.4543C55.7972 27.8254 55.1532 31.1885 54.5808 34.5675C54.4615 35.2592 54.1912 35.4659 53.5233 35.4341C52.5057 35.3864 51.488 35.4261 50.4783 35.4182C49.2459 35.4182 49.1823 35.3307 49.4049 34.1063C50.033 30.7035 50.6532 27.3086 51.2733 23.9057C52.3944 17.7599 53.5074 11.6141 54.6523 5.4683C54.7159 5.11847 55.0022 4.8084 55.193 4.48242C55.4474 4.73684 55.7734 4.95151 55.9403 5.25363C59.4147 11.6221 62.8653 18.0064 66.3238 24.3828C66.3795 24.4941 66.451 24.5895 66.5941 24.828L66.6021 24.82Z" fill="white"/>
<path d="M101.522 36.0465C92.7762 36.0386 86.0659 29.2885 86.0659 20.5031C86.0659 12.0198 92.9988 5.20616 101.554 5.26181C110.339 5.31747 116.97 12.0834 116.954 20.9722C116.938 29.3442 110.061 36.0545 101.522 36.0465ZM101.466 30.8309C107.143 30.8389 111.556 26.3866 111.548 20.6542C111.54 14.9695 107.111 10.4695 101.53 10.4854C95.9962 10.4933 91.52 14.9536 91.5041 20.4554C91.4962 26.3548 95.7816 30.823 101.466 30.8389V30.8309Z" fill="white"/>
<path d="M127.154 17.3704V18.2768C127.154 23.6514 127.138 29.026 127.17 34.3926C127.17 35.1718 126.971 35.4739 126.16 35.4262C125.055 35.3626 123.934 35.3546 122.829 35.4262C121.954 35.4818 121.764 35.1241 121.771 34.3211C121.803 28.692 121.787 23.071 121.787 17.4419C121.787 13.4984 121.779 9.55494 121.803 5.6194C121.803 5.25367 122.01 4.88794 122.129 4.52222C122.463 4.72098 122.861 4.85614 123.115 5.13441C128.832 11.2643 134.524 17.4101 140.225 23.5639C140.344 23.6911 140.384 23.8899 140.463 24.0568C140.551 23.9932 140.646 23.9296 140.734 23.866C140.734 23.5003 140.734 23.1346 140.734 22.7609C140.734 17.5135 140.75 12.2661 140.718 7.02666C140.718 6.13619 140.98 5.83407 141.863 5.88972C142.904 5.95332 143.962 5.94537 145.003 5.88972C145.822 5.84202 146.1 6.09644 146.092 6.9551C146.053 12.5205 146.076 18.078 146.076 23.6434C146.076 27.6505 146.084 31.6576 146.061 35.6568C146.061 36.0463 145.838 36.4359 145.719 36.8255C145.393 36.6108 145.011 36.4518 144.749 36.1735C139.008 29.98 133.284 23.7786 127.56 17.5691C127.48 17.4817 127.464 17.3386 127.416 17.2193C127.329 17.267 127.249 17.3147 127.162 17.3704H127.154Z" fill="white"/>
<path d="M183.746 20.5905C183.746 16.011 183.746 11.4314 183.746 6.8519C183.746 6.35101 183.715 5.87398 184.438 5.89783C187.801 5.98529 191.196 5.79447 194.512 6.2079C200.944 7.00296 205.293 11.7972 205.881 18.269C206.167 21.4412 206.008 24.5579 204.72 27.5235C202.78 31.9758 199.29 34.5677 194.559 35.1242C191.204 35.5218 187.777 35.3309 184.383 35.4104C183.595 35.4263 183.746 34.8698 183.746 34.4166C183.746 29.8053 183.746 25.1939 183.746 20.5826V20.5905ZM189.145 20.5985C189.145 23.5879 189.161 26.5694 189.137 29.5588C189.137 30.1153 189.248 30.3777 189.86 30.33C190.52 30.2823 191.196 30.33 191.856 30.3141C196.332 30.2108 199.33 27.8494 200.268 23.6515C200.753 21.481 200.737 19.2866 200.141 17.14C199.194 13.7133 196.937 11.67 193.414 11.1373C192.262 10.9624 191.077 11.0339 189.908 10.9385C189.264 10.8829 189.121 11.1134 189.129 11.7256C189.161 14.6832 189.145 17.6329 189.145 20.5905V20.5985Z" fill="white"/>
<path d="M176.646 35.4106C174.619 36.142 173.633 34.7745 172.925 32.763C172.369 31.1888 171.566 29.7021 170.906 28.1596C170.707 27.6906 170.46 27.4998 169.92 27.5077C166.652 27.5395 163.376 27.5395 160.109 27.5077C159.536 27.5077 159.282 27.6985 159.059 28.1994C158.081 30.3938 157.04 32.5722 156.054 34.7666C155.839 35.2436 155.585 35.4344 155.052 35.4185C153.748 35.3867 152.444 35.4185 151.148 35.4026C150.155 35.4026 150.011 35.188 150.449 34.2737C152.619 29.7657 154.798 25.2577 156.968 20.7497C159.393 15.7329 161.818 10.7081 164.243 5.69126C164.323 5.51635 164.378 5.32554 164.497 5.18242C164.704 4.93596 164.951 4.72129 165.181 4.49072C165.388 4.71334 165.658 4.8962 165.785 5.15062C166.636 6.85205 167.455 8.56143 168.282 10.2788C172.098 18.1817 175.907 26.0766 179.723 33.9795C179.802 34.1544 179.882 34.3214 179.961 34.4963C180.232 35.0767 180.104 35.4106 179.405 35.4026C178.61 35.3947 177.815 35.4026 176.638 35.4026L176.646 35.4106ZM165.07 15.232C163.869 17.8557 162.764 20.2647 161.627 22.7532C163.79 22.7532 165.778 22.7532 167.773 22.7532C168.147 22.7532 168.513 22.8089 168.234 22.2206C167.201 19.9626 166.183 17.6967 165.07 15.232Z" fill="white"/>
</g>
<defs>
<clipPath id="clip0_465_163">
<rect width="206" height="38.7353" fill="white" transform="translate(0 0.459717)"/>
</clipPath>
</defs>
</svg>
