<svg width="112" height="37" viewBox="0 0 112 37" fill="none" xmlns="http://www.w3.org/2000/svg">
<g clip-path="url(#clip0_465_172)">
<path d="M72.9729 0.720703C65.0309 0.720703 57.9001 4.85328 57.9001 12.4368C57.9001 21.1706 70.4964 21.767 70.4964 26.1126C70.4964 27.9446 68.3614 29.6062 64.7747 29.6062C59.6508 29.6062 55.8079 27.3056 55.8079 27.3056L54.1853 34.9743C54.1853 34.9743 58.5833 36.934 64.4758 36.934C73.1864 36.934 80.0183 32.631 80.0183 24.8771C80.0183 15.6747 67.3793 15.0782 67.3793 11.0309C67.3793 9.58232 69.13 8.00597 72.7167 8.00597C76.7732 8.00597 80.1037 9.66753 80.1037 9.66753L81.7263 2.25444C81.6836 2.25444 78.0541 0.720703 72.9729 0.720703ZM0.213496 1.27455L0 2.38226C0 2.38226 3.33054 2.97871 6.36218 4.21422C10.2478 5.62015 10.504 6.42963 11.1872 8.94326L18.318 36.3376H27.8826L42.5284 1.27455H33.0065L23.57 25.1328L19.727 4.89589C19.3854 2.59528 17.5921 1.27455 15.3717 1.27455H0.213496ZM46.3713 1.27455L38.899 36.3376H47.9939L55.4236 1.27455H46.3713ZM97.0126 1.27455C94.8349 1.27455 93.682 2.42486 92.8281 4.46985L79.5059 36.3376H89.0278L90.8639 31.0121H102.478L103.588 36.3376H112L104.698 1.27455H97.0126ZM98.2509 10.7752L101.069 23.9398H93.5112L98.2509 10.7752Z" fill="white"/>
</g>
<defs>
<clipPath id="clip0_465_172">
<rect width="112" height="36.2133" fill="white" transform="translate(0 0.720703)"/>
</clipPath>
</defs>
</svg>
