<svg xmlns="http://www.w3.org/2000/svg" width="81" height="80" fill="none"><path fill="url(#a)" d="M0 0h81v60c0 11.046-8.954 20-20 20H20C8.954 80 0 71.046 0 60z"/><path fill="#fff" d="M18.144 66.038q-.203 0-.297.083a.36.36 0 0 0-.12.196 2 2 0 0 0-.02.29v.222h.76v.6h-.76v2.738h-.765v-2.738h-.436v-.6h.436v-.367q0-.967 1-.967.145 0 .303.019.165.018.221.044v.506a2 2 0 0 0-.322-.026m2.19 4.18q-.518 0-.878-.24a1.5 1.5 0 0 1-.531-.633 2.1 2.1 0 0 1-.177-.86q0-.462.177-.853.177-.399.531-.639.36-.24.879-.24.518 0 .872.24.36.24.531.632.178.393.178.854t-.178.86q-.17.398-.53.638-.355.24-.873.24m0-.633q.4 0 .614-.316.215-.316.215-.79t-.215-.784a.7.7 0 0 0-.613-.316.7.7 0 0 0-.62.316q-.208.31-.208.784t.215.79q.214.316.613.316m2.27-2.756h.758v.53h.045a.8.8 0 0 1 .297-.372.95.95 0 0 1 .563-.158q.12 0 .246.031l-.032.715a1.024 1.024 0 0 0-.341-.05q-.385 0-.582.208-.195.208-.196.695v1.739h-.758zm4.827 3.363q-.437 0-.645-.132a.6.6 0 0 1-.266-.342 2.3 2.3 0 0 1-.05-.531v-3.762h.765v3.617q0 .234.019.347a.3.3 0 0 0 .126.184q.102.063.323.063.082 0 .196-.013v.531q-.203.038-.468.038m1.182-3.363h.765v3.338h-.765zm.373-.588a.43.43 0 0 1-.442-.443.43.43 0 0 1 .442-.442q.19 0 .316.132a.42.42 0 0 1 .127.31.429.429 0 0 1-.443.443m1.31.588h.766v.562h.044q.032-.081.133-.227t.316-.278a.96.96 0 0 1 .531-.14q.342 0 .57.159.226.158.328.328.108.17.133.253h.044a1.8 1.8 0 0 1 .335-.48q.24-.26.752-.26.424 0 .683.222.266.215.38.537.114.316.114.626v2.036h-.765v-1.96q0-.391-.203-.588a.66.66 0 0 0-.493-.202.7.7 0 0 0-.512.208q-.21.203-.209.582v1.96h-.765v-1.96q0-.391-.202-.588a.66.66 0 0 0-.493-.202.7.7 0 0 0-.512.208q-.21.203-.21.582v1.96h-.764zm5.98 0h.765v3.338h-.765zm.373-.588a.43.43 0 0 1-.443-.443q0-.19.127-.316a.43.43 0 0 1 .316-.126q.189 0 .316.132a.42.42 0 0 1 .126.31.429.429 0 0 1-.443.443m2.405 1.188v1.638q0 .227.019.335a.27.27 0 0 0 .126.17q.102.064.323.064.114 0 .29-.032v.538a3.248 3.248 0 0 1-.563.05q-.435 0-.644-.126a.56.56 0 0 1-.265-.323 2 2 0 0 1-.051-.512V67.43h-.582v-.6h.582V65.74h.765v1.088h.759v.6zm2.934 2.789q-.517 0-.879-.247a1.54 1.54 0 0 1-.53-.639 2.1 2.1 0 0 1-.171-.847q0-.455.17-.847.177-.398.531-.645.36-.246.886-.246.695 0 1.1.448.41.45.41 1.297v.208h-2.351v.05q0 .222.101.418.108.196.29.316a.8.8 0 0 0 .43.114.8.8 0 0 0 .462-.126.8.8 0 0 0 .285-.355h.752q-.132.48-.512.79-.379.31-.974.31m.778-2.024q-.012-.454-.228-.663a.73.73 0 0 0-.55-.216.76.76 0 0 0-.588.24q-.215.235-.227.64zm2.631 2.024a1.2 1.2 0 0 1-.727-.222 1.37 1.37 0 0 1-.462-.613 2.4 2.4 0 0 1-.158-.898q0-.783.354-1.258.36-.48 1.006-.48.435 0 .689.202.253.195.36.436h.05V65.42h.772v4.748h-.771v-.613h-.05q-.12.252-.38.461-.253.203-.683.203m.272-.62q.41 0 .62-.323.215-.328.215-.79t-.215-.778q-.21-.321-.62-.322-.417 0-.626.322-.21.316-.209.778 0 .468.209.79.21.323.626.323m4.993-2.169v1.638q0 .227.019.335a.27.27 0 0 0 .126.17q.101.064.323.064.114 0 .29-.032v.538a3.248 3.248 0 0 1-.563.05q-.435 0-.644-.126a.56.56 0 0 1-.266-.323 2 2 0 0 1-.05-.512V67.43h-.582v-.6h.582V65.74h.765v1.088h.759v.6zm1.556-.6h.765v3.338h-.765zm.373-.588a.43.43 0 0 1-.443-.443.43.43 0 0 1 .443-.442q.19 0 .316.132a.42.42 0 0 1 .127.31.429.429 0 0 1-.443.443m1.31.588h.766v.562h.044q.031-.081.133-.227.1-.146.316-.278a.96.96 0 0 1 .53-.14q.343 0 .57.159.228.158.329.328.107.17.133.253h.044a1.8 1.8 0 0 1 .335-.48q.24-.26.752-.26.424 0 .683.222.265.215.38.537.113.316.113.626v2.036h-.765v-1.96q0-.391-.202-.588a.66.66 0 0 0-.493-.202.7.7 0 0 0-.512.208q-.21.203-.21.582v1.96h-.764v-1.96q0-.391-.202-.588a.66.66 0 0 0-.494-.202.7.7 0 0 0-.512.208q-.208.203-.208.582v1.96h-.765zm7.37 3.389q-.519 0-.879-.247a1.53 1.53 0 0 1-.53-.639 2.1 2.1 0 0 1-.172-.847q0-.455.171-.847.177-.398.531-.645.36-.246.885-.246.695 0 1.1.448.411.45.411 1.297v.208h-2.352v.05q0 .222.102.418.107.196.29.316a.8.8 0 0 0 .43.114.8.8 0 0 0 .462-.126.8.8 0 0 0 .284-.355h.753q-.134.48-.512.79-.38.31-.974.31m.778-2.024q-.013-.454-.228-.663a.73.73 0 0 0-.55-.216.76.76 0 0 0-.588.24q-.215.235-.228.64zM63.51 66v-.505h.797V66l-.127 2.808h-.544zm.398 4.224a.4.4 0 0 1-.303-.127.43.43 0 0 1-.12-.303q0-.178.12-.303a.4.4 0 0 1 .303-.127q.184 0 .31.126a.41.41 0 0 1 .127.304q0 .178-.127.303a.42.42 0 0 1-.31.127M10.005 63.644q-1.328 0-2.288-.528-.945-.544-1.44-1.392a3.64 3.64 0 0 1-.48-1.792v-.096h2.128v.096q0 .449.224.912.223.449.688.768.48.304 1.2.304.863 0 1.423-.448t.56-1.2q0-.64-.447-1.024-.433-.384-1.088-.512l-1.456-.288a5.6 5.6 0 0 1-2-.88q-.944-.672-.944-2.24 0-.992.48-1.728.495-.736 1.344-1.12.864-.4 1.984-.4 1.263 0 2.16.496.911.495 1.375 1.28.465.784.464 1.648v.064h-2.127v-.048q0-.384-.193-.8-.176-.416-.623-.704-.432-.288-1.136-.288-.816 0-1.296.448t-.48 1.136q0 .624.432.992.431.368 1.12.512l1.391.288q1.233.256 2.144.976.929.705.928 2.144 0 1.008-.527 1.792-.513.768-1.44 1.2-.913.432-2.08.432m11.887-3.072h-4.08L16.82 63.5h-1.968l4.096-11.2h1.824l4.096 11.2H22.9zm-.512-1.504-1.504-4.352h-.08l-1.472 4.352zm2.935-6.768h1.936l3.024 9.168h.096l3.008-9.168h1.952l-3.744 11.216h-2.544zm13.424 1.712v3.024h4.56v1.536h-4.56v3.216h5.296V63.5h-7.232V52.3h7.232v1.712zm14.622 9.632a4.7 4.7 0 0 1-2-.432 3.56 3.56 0 0 1-1.488-1.328q-.56-.896-.56-2.224 0-1.312.495-2.416.497-1.104 1.392-2.416l1.664-2.528h1.92l-3.328 4.96.064.032.24-.256q.816-.816 2.096-.816 1.008 0 1.776.464.785.464 1.2 1.296.432.816.432 1.872 0 1.215-.528 2.08a3.37 3.37 0 0 1-1.423 1.28 4.4 4.4 0 0 1-1.953.432m-.096-1.568q1.023 0 1.568-.656.56-.672.56-1.552 0-.56-.24-1.072a2 2 0 0 0-.72-.832q-.48-.336-1.169-.336-.99 0-1.552.656-.544.656-.544 1.568 0 .896.56 1.568.561.656 1.536.656m9.66 1.632q-2.127 0-3.167-1.408-1.04-1.425-1.04-3.712v-1.424q0-2.288 1.04-3.68 1.04-1.408 3.168-1.408 2.127 0 3.168 1.408 1.04 1.392 1.04 3.68v1.424q0 2.288-1.04 3.712-1.041 1.408-3.168 1.408m0-1.696q2.065 0 2.065-3.392v-1.504q0-3.36-2.064-3.36t-2.064 3.36v1.504q0 3.392 2.064 3.392m6.668-2.722q-.68 0-1.02-.43a1.63 1.63 0 0 1-.33-1.02q0-.59.33-1.01.33-.43 1.02-.43t1 .42q.32.42.32 1.02t-.32 1.03q-.31.42-1 .42m3.61-2.79h1.02l-3.61 7h-1.02zm-3.59 2.09q.52 0 .52-.75t-.52-.75-.52.75.52.75m4.64 5.01q-.68 0-1.02-.43a1.65 1.65 0 0 1-.33-1.02q0-.58.33-1.01.34-.43 1.02-.43.69 0 1 .43.32.42.32 1.01t-.32 1.02q-.31.43-1 .43m.02-.7q.31 0 .41-.21.11-.22.11-.54 0-.75-.52-.75t-.52.75.52.75M28.872 11.15q1.72-.155 2.68.641.957.796 1.127 2.097a4.37 4.37 0 0 1-.285 2.274 4 4 0 0 1-1.43 1.766q-.976.682-2.362.808l-2.12.191-.132 3.688-1.897.172.403-11.274zm-.495 5.985q1.26-.114 1.917-.88.672-.783.52-1.957-.113-.856-.75-1.169-.636-.311-1.513-.232l-1.864.168-.142 4.235zm13.85-4.286q.178 1.365-.513 2.502-.675 1.137-2.057 1.663l2.478 4.175-2.04.184-2.373-3.991-1.657.15-.144 4.218-1.928.174.403-11.273 4.015-.363q1.753-.159 2.705.59.95.734 1.111 1.97m-4.297 2.909q1.26-.114 1.913-.783.654-.67.523-1.685-.102-.777-.75-1.056-.633-.28-1.526-.2l-1.832.166-.129 3.72zm8.257-4.455-.104 3.043 4.526-.409-.057 1.547-4.541.41-.111 3.237 5.258-.476-.05 1.723-7.202.65.403-11.273 7.202-.65-.05 1.721zm-20.724 24.58q-1.306.118-2.22-.33-.914-.462-1.388-1.254a4.04 4.04 0 0 1-.52-1.767l.003-.097 2.12-.192.012.096q.1.777.578 1.344.474.55 1.495.459.972-.088 1.555-.687.581-.614.475-1.423-.068-.524-.473-.792a2.06 2.06 0 0 0-.98-.345l-1.424-.16q-2.546-.365-2.798-2.3-.141-1.078.306-1.986a3.7 3.7 0 0 1 1.384-1.505q.94-.583 2.182-.695 1.244-.113 2.104.307.874.403 1.327 1.149.466.727.58 1.617l.01.063-2.216.2-.006-.047a2.37 2.37 0 0 0-.494-1.192q-.407-.525-1.427-.433-.876.08-1.395.672-.522.576-.423 1.339.067.507.472.776.406.268.996.343l1.376.165q1.099.141 1.924.66.84.502.988 1.645a3.4 3.4 0 0 1-.362 2.055q-.487.96-1.487 1.58-.984.618-2.274.735m11.968-4.164-4.063.367-1.104 3.038-1.96.177 4.482-11.642 1.817-.165L40.279 34.4l-1.96.177zm-.465-1.467-1.326-4.246-.08.007-1.637 4.514zm11.645 1.677-.05 1.722-6.883.622L42.065 23l1.96-.177-.37 9.552zm3.829-8.148-.104 3.043 4.526-.409-.057 1.546-4.542.41-.11 3.237 5.258-.475-.05 1.722-7.202.651.403-11.273 7.202-.651-.05 1.722z"/><path fill="#D9D9D9" fill-opacity=".44" d="M9 45h60v-.833H9z"/><defs><linearGradient id="a" x1="40.5" x2="40.5" y1="0" y2="80" gradientUnits="userSpaceOnUse"><stop stop-color="#FF846F"/><stop offset=".62" stop-color="#ED4F35"/><stop offset="1" stop-color="#A6311E"/></linearGradient></defs></svg>