<svg xmlns="http://www.w3.org/2000/svg" width="279" height="46" fill="none"><path fill="url(#a)" stroke="#fff" d="m18.546 20.604-5.214 7.343-4.185-9.128 3.554-9.735h11.756l3.554 9.735-4.218 9.128z"/><path fill="url(#b)" stroke="#fff" d="m15.631 33-1.43-2.875 4.463-5.883 4.294 5.883L21.663 33z"/><path fill="url(#c)" stroke="#fff" d="m29.526 17.168-3.132-8.151 3.408-1.624L31.213 1h4.613v10.148z"/><path fill="url(#d)" stroke="#fff" d="m7.632 17.168 3.133-8.151-3.408-1.624L5.946 1H1.333v10.148z"/><rect width="185" height="45" x="47.5" y=".5" fill="url(#e)" rx="22.5"/><rect width="185" height="45" x="47.5" y=".5" stroke="#fff" rx="22.5"/><path fill="#fff" d="M65.796 32V14.546h3.162v14.803h7.687V32zm13.457 0V18.91h3.085V32zm1.551-14.949a1.8 1.8 0 0 1-1.261-.486q-.528-.495-.528-1.184 0-.699.528-1.185.529-.494 1.261-.494.742 0 1.262.494.528.486.528 1.185 0 .69-.528 1.184a1.78 1.78 0 0 1-1.262.486M85.511 32V18.91h2.949v2.224h.153q.41-1.125 1.355-1.756.947-.64 2.259-.64 1.329 0 2.241.648a3.4 3.4 0 0 1 1.296 1.748h.136a3.58 3.58 0 0 1 1.466-1.74q1.04-.655 2.463-.655 1.807 0 2.949 1.142t1.142 3.332V32h-3.094v-8.31q0-1.218-.647-1.78-.648-.572-1.586-.572-1.116 0-1.747.699-.622.69-.622 1.798V32h-3.026v-8.437q0-1.015-.613-1.62-.605-.605-1.585-.605-.666 0-1.21.341a2.4 2.4 0 0 0-.87.946q-.324.605-.324 1.415V32zm21.539 0V18.91h3.085V32zm1.551-14.949a1.8 1.8 0 0 1-1.261-.486q-.529-.495-.529-1.184 0-.699.529-1.185.529-.494 1.261-.494.742 0 1.262.494.528.486.528 1.185 0 .69-.528 1.184a1.78 1.78 0 0 1-1.262.486m11.244 1.858v2.387h-7.526v-2.387zm-5.668-3.136h3.085v12.29q0 .622.188.954.196.324.511.443.316.12.699.12.29 0 .529-.043.246-.042.375-.077l.519 2.412q-.246.086-.707.188-.451.102-1.108.119-1.16.034-2.088-.35a3.25 3.25 0 0 1-1.474-1.21q-.537-.818-.529-2.045zm13.903 16.483q-1.969 0-3.401-.819a5.54 5.54 0 0 1-2.19-2.335q-.767-1.517-.767-3.57 0-2.021.767-3.546.776-1.534 2.165-2.387 1.389-.86 3.264-.86 1.21 0 2.284.392a5.16 5.16 0 0 1 1.909 1.193q.835.81 1.313 2.062.477 1.245.477 2.966v.946h-10.73v-2.08h7.773q-.009-.886-.384-1.576a2.8 2.8 0 0 0-1.048-1.1q-.665-.4-1.551-.4-.947 0-1.662.46-.717.452-1.117 1.194a3.4 3.4 0 0 0-.4 1.61v1.816q0 1.141.417 1.96.418.81 1.168 1.244.75.426 1.756.426a3.7 3.7 0 0 0 1.218-.187 2.7 2.7 0 0 0 .946-.571q.4-.375.605-.93l2.881.325a4.5 4.5 0 0 1-1.04 1.994q-.758.844-1.943 1.313-1.185.46-2.71.46m13.289-.026q-1.542 0-2.761-.792-1.22-.793-1.927-2.302t-.707-3.664q0-2.182.716-3.682.725-1.509 1.952-2.276a5 5 0 0 1 2.735-.775q1.151 0 1.893.392.741.383 1.176.929.434.537.673 1.014h.128v-6.529h3.094V32h-3.035v-2.062h-.187a5.3 5.3 0 0 1-.69 1.014q-.452.528-1.194.903-.741.375-1.866.375m.861-2.531q.98 0 1.67-.529.69-.537 1.049-1.491.357-.955.357-2.224t-.357-2.208q-.35-.937-1.04-1.457-.682-.52-1.679-.52-1.032 0-1.722.537t-1.04 1.483q-.35.945-.349 2.165 0 1.227.349 2.19.358.955 1.049 1.508.699.546 1.713.546m31.084-6.426q0 2.82-1.057 4.832-1.048 2.003-2.863 3.068-1.807 1.065-4.1 1.066-2.292 0-4.108-1.066-1.806-1.074-2.863-3.076-1.048-2.012-1.048-4.824 0-2.822 1.048-4.824 1.056-2.012 2.863-3.077 1.816-1.065 4.108-1.065 2.293 0 4.1 1.065 1.815 1.065 2.863 3.077 1.057 2.003 1.057 4.824m-3.179 0q0-1.986-.622-3.35-.614-1.372-1.704-2.07-1.092-.708-2.515-.708t-2.514.707q-1.09.7-1.713 2.071-.614 1.364-.614 3.35t.614 3.358q.623 1.364 1.713 2.07 1.091.7 2.514.7t2.515-.7q1.09-.706 1.704-2.07.622-1.372.622-3.358m12.663-4.364v2.387h-7.739v-2.387zM176.994 32V17.673q0-1.32.545-2.199a3.46 3.46 0 0 1 1.483-1.312q.93-.435 2.063-.435.8 0 1.423.128t.921.23l-.614 2.387a5 5 0 0 0-.494-.12 3 3 0 0 0-.665-.068q-.86 0-1.219.418-.35.408-.349 1.176V32zm14.851-13.09v2.386h-7.739v-2.387zM186.041 32V17.673q0-1.32.545-2.199a3.46 3.46 0 0 1 1.483-1.312q.93-.435 2.063-.435.8 0 1.423.128t.92.23l-.613 2.387a5 5 0 0 0-.494-.12 3 3 0 0 0-.665-.068q-.86 0-1.219.418-.35.408-.349 1.176V32zm13.523.256q-1.968 0-3.4-.819a5.55 5.55 0 0 1-2.191-2.335q-.767-1.517-.767-3.57 0-2.021.767-3.546.776-1.534 2.165-2.387 1.389-.86 3.264-.86 1.211 0 2.284.392a5.2 5.2 0 0 1 1.91 1.193q.834.81 1.312 2.062.477 1.245.477 2.966v.946h-10.73v-2.08h7.773q-.009-.886-.384-1.576a2.8 2.8 0 0 0-1.048-1.1q-.665-.4-1.551-.4-.947 0-1.662.46a3.17 3.17 0 0 0-1.116 1.194 3.4 3.4 0 0 0-.401 1.61v1.816q0 1.141.418 1.96.417.81 1.167 1.244.75.426 1.756.426.673 0 1.219-.187a2.7 2.7 0 0 0 .946-.571q.4-.375.605-.93l2.88.325a4.5 4.5 0 0 1-1.039 1.994q-.76.844-1.943 1.313-1.185.46-2.711.46m8.431-.256V18.91h2.992v2.18h.136q.358-1.132 1.227-1.746a3.38 3.38 0 0 1 2.003-.622q.256 0 .571.025.324.017.537.06v2.838a3.2 3.2 0 0 0-.622-.12 6 6 0 0 0-.81-.06q-.843 0-1.517.367a2.7 2.7 0 0 0-1.048.997q-.384.64-.383 1.475V32z"/><path fill="url(#f)" stroke="#fff" d="m261.213 20.604-5.214 7.343-4.185-9.128 3.554-9.735h11.756l3.554 9.735-4.218 9.128z"/><path fill="url(#g)" stroke="#fff" d="m258.298 33-1.431-2.875 4.464-5.883 4.294 5.883L264.33 33z"/><path fill="url(#h)" stroke="#fff" d="m272.193 17.168-3.132-8.151 3.408-1.624L273.88 1h4.613v10.148z"/><path fill="url(#i)" stroke="#fff" d="m250.299 17.168 3.133-8.151-3.408-1.624L248.613 1H244v10.148z"/><defs><linearGradient id="a" x1="22.303" x2="22.396" y1="12.336" y2="28.547" gradientUnits="userSpaceOnUse"><stop stop-color="#FF8335"/><stop offset=".971" stop-color="#ED4F35"/></linearGradient><linearGradient id="b" x1="20.308" x2="20.351" y1="25.752" y2="33.278" gradientUnits="userSpaceOnUse"><stop stop-color="#FF8335"/><stop offset=".971" stop-color="#ED4F35"/></linearGradient><linearGradient id="c" x1="32.972" x2="33.109" y1="3.787" y2="17.681" gradientUnits="userSpaceOnUse"><stop stop-color="#FF8335"/><stop offset=".971" stop-color="#ED4F35"/></linearGradient><linearGradient id="d" x1="4.187" x2="4.05" y1="3.787" y2="17.681" gradientUnits="userSpaceOnUse"><stop stop-color="#FF8335"/><stop offset=".971" stop-color="#ED4F35"/></linearGradient><linearGradient id="e" x1="176.325" x2="176.377" y1="8.585" y2="46.399" gradientUnits="userSpaceOnUse"><stop stop-color="#FF8335"/><stop offset=".971" stop-color="#ED4F35"/></linearGradient><linearGradient id="f" x1="264.97" x2="265.063" y1="12.336" y2="28.547" gradientUnits="userSpaceOnUse"><stop stop-color="#FF8335"/><stop offset=".971" stop-color="#ED4F35"/></linearGradient><linearGradient id="g" x1="262.975" x2="263.018" y1="25.752" y2="33.278" gradientUnits="userSpaceOnUse"><stop stop-color="#FF8335"/><stop offset=".971" stop-color="#ED4F35"/></linearGradient><linearGradient id="h" x1="275.639" x2="275.776" y1="3.787" y2="17.681" gradientUnits="userSpaceOnUse"><stop stop-color="#FF8335"/><stop offset=".971" stop-color="#ED4F35"/></linearGradient><linearGradient id="i" x1="246.854" x2="246.717" y1="3.787" y2="17.681" gradientUnits="userSpaceOnUse"><stop stop-color="#FF8335"/><stop offset=".971" stop-color="#ED4F35"/></linearGradient></defs></svg>