<svg xmlns="http://www.w3.org/2000/svg" width="81" height="96" fill="none"><path fill="url(#a)" d="M0 0h81v76c0 11.046-8.954 20-20 20H20C8.954 96 0 87.046 0 76z"/><path fill="#fff" d="M18.144 77.871q-.203 0-.297.083a.36.36 0 0 0-.12.196 2 2 0 0 0-.02.29v.222h.76v.6h-.76V82h-.765v-2.738h-.436v-.6h.436v-.367q0-.967 1-.967.145 0 .303.019.165.018.221.044v.506a2 2 0 0 0-.322-.026m2.19 4.18q-.518 0-.878-.24a1.5 1.5 0 0 1-.531-.633 2.1 2.1 0 0 1-.177-.86q0-.462.177-.853.177-.399.531-.639.36-.24.879-.24.518 0 .872.24.36.24.531.632.178.392.178.854t-.178.86q-.17.398-.53.638-.355.24-.873.24m0-.633q.4 0 .614-.316.215-.316.215-.79t-.215-.784a.7.7 0 0 0-.613-.316.7.7 0 0 0-.62.316q-.208.31-.208.784t.215.79q.214.315.613.316m2.27-2.756h.758v.53h.045a.8.8 0 0 1 .297-.372.95.95 0 0 1 .563-.158q.12 0 .246.031l-.032.715a1 1 0 0 0-.341-.05q-.385 0-.582.208-.195.208-.196.695V82h-.758zm4.827 3.363q-.437 0-.645-.133a.6.6 0 0 1-.266-.34 2.3 2.3 0 0 1-.05-.532v-3.762h.765v3.617q0 .234.019.347a.3.3 0 0 0 .126.184q.102.063.323.063.082 0 .196-.013v.531a2.6 2.6 0 0 1-.468.038m1.182-3.363h.765V82h-.765zm.373-.588a.43.43 0 0 1-.442-.443.43.43 0 0 1 .442-.442q.19 0 .316.132a.42.42 0 0 1 .127.31.43.43 0 0 1-.443.443m1.31.588h.766v.562h.044q.032-.081.133-.227t.316-.278a.96.96 0 0 1 .531-.14q.342 0 .57.159.226.158.328.328.108.17.133.253h.044a1.8 1.8 0 0 1 .335-.48q.24-.26.752-.26.424 0 .683.222.266.215.38.537.114.316.114.626V82h-.765v-1.96q0-.391-.203-.588a.66.66 0 0 0-.493-.202.7.7 0 0 0-.512.208q-.21.203-.209.582V82h-.765v-1.96q0-.391-.202-.588a.66.66 0 0 0-.493-.202.7.7 0 0 0-.512.208q-.21.203-.21.582V82h-.764zm5.98 0h.765V82h-.765zm.373-.588a.43.43 0 0 1-.443-.443q0-.19.127-.316a.43.43 0 0 1 .316-.126q.189 0 .316.132a.42.42 0 0 1 .126.31.43.43 0 0 1-.443.443m2.405 1.188V80.9q0 .228.019.335a.27.27 0 0 0 .126.17q.102.064.323.064.114 0 .29-.032v.538a3.3 3.3 0 0 1-.563.05q-.435 0-.644-.126a.56.56 0 0 1-.265-.323 2 2 0 0 1-.051-.512v-1.802h-.582v-.6h.582v-1.088h.765v1.088h.759v.6zm2.934 2.789q-.517 0-.879-.247a1.54 1.54 0 0 1-.53-.639 2.1 2.1 0 0 1-.171-.847q0-.455.17-.847.177-.398.531-.645.36-.246.886-.246.695 0 1.1.448.41.45.41 1.296v.21h-2.351v.05q0 .22.101.417.108.195.29.316a.8.8 0 0 0 .43.114.8.8 0 0 0 .462-.126.8.8 0 0 0 .285-.355h.752q-.132.48-.512.79-.379.31-.974.31m.778-2.024q-.012-.454-.228-.663a.73.73 0 0 0-.55-.216.76.76 0 0 0-.588.24q-.215.235-.227.64zm2.631 2.024a1.2 1.2 0 0 1-.727-.222 1.37 1.37 0 0 1-.462-.613 2.4 2.4 0 0 1-.158-.898q0-.783.354-1.258.36-.48 1.006-.48.435 0 .689.202.253.195.36.436h.05V77.25h.772V82h-.771v-.613h-.05q-.12.252-.38.461-.253.203-.683.203m.272-.62q.41 0 .62-.322.215-.33.215-.79 0-.463-.215-.779-.21-.322-.62-.322-.417 0-.626.322-.21.316-.209.778 0 .468.209.79.21.323.626.323m4.993-2.169V80.9q0 .228.019.335a.27.27 0 0 0 .126.17q.101.064.323.064.114 0 .29-.032v.538a3.3 3.3 0 0 1-.563.05q-.435 0-.644-.126a.56.56 0 0 1-.266-.323 2 2 0 0 1-.05-.512v-1.802h-.582v-.6h.582v-1.088h.765v1.088h.759v.6zm1.556-.6h.765V82h-.765zm.373-.588a.43.43 0 0 1-.443-.443.43.43 0 0 1 .443-.442q.19 0 .316.132a.42.42 0 0 1 .127.31.43.43 0 0 1-.443.443m1.31.588h.766v.562h.044q.031-.081.133-.227.1-.146.316-.278a.96.96 0 0 1 .53-.14q.343 0 .57.159.228.158.329.328.107.17.133.253h.044a1.8 1.8 0 0 1 .335-.48q.24-.26.752-.26.424 0 .683.222.265.215.38.537.113.316.113.626V82h-.765v-1.96q0-.391-.202-.588a.66.66 0 0 0-.493-.202.7.7 0 0 0-.512.208q-.21.203-.21.582V82h-.764v-1.96q0-.391-.202-.588a.66.66 0 0 0-.494-.202.7.7 0 0 0-.512.208q-.208.203-.208.582V82h-.765zm7.37 3.389q-.519 0-.879-.247a1.53 1.53 0 0 1-.53-.639 2.1 2.1 0 0 1-.172-.847q0-.455.171-.847.177-.398.531-.645.36-.246.885-.246.695 0 1.1.448.411.45.411 1.296v.21h-2.352v.05q0 .22.102.417.107.195.29.316a.8.8 0 0 0 .43.114.8.8 0 0 0 .462-.126.8.8 0 0 0 .284-.355h.753q-.134.48-.512.79-.38.31-.974.31m.778-2.024q-.013-.454-.228-.663a.73.73 0 0 0-.55-.216.76.76 0 0 0-.588.24q-.215.235-.228.64zm1.461-2.194v-.505h.797v.505l-.127 2.808h-.544zm.398 4.224a.4.4 0 0 1-.303-.127.43.43 0 0 1-.12-.303q0-.178.12-.303a.4.4 0 0 1 .303-.127q.184 0 .31.126a.4.4 0 0 1 .127.304q0 .178-.127.303a.42.42 0 0 1-.31.127m-53.475-8.912q-1.328 0-2.288-.528-.945-.544-1.44-1.392a3.64 3.64 0 0 1-.48-1.792v-.096h2.128v.096q0 .448.224.912.225.449.688.768.48.304 1.2.304.864 0 1.424-.448.56-.449.56-1.2 0-.64-.448-1.024-.431-.384-1.088-.512l-1.456-.288a5.6 5.6 0 0 1-2-.88q-.945-.672-.944-2.24 0-.992.48-1.728.496-.736 1.344-1.12.864-.4 1.984-.4 1.265 0 2.16.496.912.495 1.376 1.28.465.784.464 1.648v.064h-2.128v-.048q0-.384-.192-.8-.175-.416-.624-.704-.431-.288-1.136-.288-.816 0-1.296.448t-.48 1.136q0 .624.432.992.433.368 1.12.512l1.392.288q1.232.255 2.144.976.928.704.928 2.144 0 1.008-.528 1.792-.511.768-1.44 1.2-.912.432-2.08.432m11.888-3.072h-4.08L17.25 73h-1.968l4.096-11.2h1.824L25.298 73H23.33zm-.512-1.504-1.504-4.352h-.08l-1.472 4.352zm2.935-6.768h1.936l3.024 9.168h.096l3.008-9.168h1.952l-3.744 11.216h-2.544zm13.424 1.712v3.024h4.56v1.536h-4.56v3.216h5.296V73h-7.232V61.8h7.232v1.712zm14.733 9.584q-1.152 0-2.016-.448a3.8 3.8 0 0 1-1.344-1.184 4 4 0 0 1-.608-1.6h1.952q.193.752.736 1.136.545.368 1.248.368.96 0 1.488-.624.544-.64.544-1.632 0-1.04-.576-1.632-.56-.592-1.488-.592-1.311 0-1.824 1.2l-1.936-.064.304-6.224h6.752v1.776h-5.168l-.16 3.024h.08q.256-.367.8-.736.561-.368 1.632-.368 1.616 0 2.56.976.96.975.96 2.64 0 1.088-.464 2a3.5 3.5 0 0 1-1.344 1.44q-.88.544-2.128.544m9.594.112q-2.129 0-3.168-1.408-1.04-1.425-1.04-3.712v-1.424q0-2.288 1.04-3.68 1.04-1.408 3.168-1.408t3.168 1.408q1.04 1.392 1.04 3.68v1.424q0 2.288-1.04 3.712-1.04 1.408-3.168 1.408m0-1.696q2.064 0 2.064-3.392v-1.504q0-3.36-2.064-3.36t-2.064 3.36v1.504q0 3.392 2.064 3.392m6.667-2.722q-.68 0-1.02-.43a1.63 1.63 0 0 1-.33-1.02q0-.59.33-1.01.33-.43 1.02-.43t1 .42q.32.42.32 1.02t-.32 1.03q-.31.42-1 .42m3.61-2.79h1.02l-3.61 7h-1.02zm-3.59 2.09q.52 0 .52-.75t-.52-.75-.52.75.52.75m4.64 5.01q-.68 0-1.02-.43a1.65 1.65 0 0 1-.33-1.02q0-.58.33-1.01.34-.43 1.02-.43.69 0 1 .43.32.42.32 1.01t-.32 1.02q-.31.43-1 .43m.02-.7q.31 0 .41-.21a1.2 1.2 0 0 0 .11-.54q0-.75-.52-.75t-.52.75.52.75M17.898 22.87q-1.305.142-2.205-.292-.9-.45-1.357-1.236a4 4 0 0 1-.481-1.767l.005-.097 2.116-.23.01.096q.086.78.548 1.34.462.547 1.48.436.97-.106 1.564-.717.591-.627.503-1.439-.057-.525-.455-.787a2 2 0 0 0-.97-.33l-1.414-.136q-2.53-.321-2.74-2.262a3.5 3.5 0 0 1 .346-2 3.94 3.94 0 0 1 1.41-1.538q.95-.6 2.19-.736 1.24-.135 2.09.272.862.39 1.297 1.13.448.725.545 1.616l.007.063-2.21.24-.006-.048a2.3 2.3 0 0 0-.467-1.188q-.395-.52-1.412-.41-.876.094-1.405.7-.532.588-.449 1.351.055.51.454.772t.985.328l1.367.141q1.092.123 1.903.63.825.49.95 1.636a3.5 3.5 0 0 1-.403 2.071q-.506.972-1.515 1.613-.993.639-2.281.778m10.111-1.08q-1.781.193-2.901-.635-1.104-.83-1.306-2.69a8 8 0 0 1-.03-1.317l.372-6.365 1.909-.207-.368 6.252q-.026.517.027.994.252 2.323 2.4 2.09 1.495-.162 2.103-1.226.61-1.065.671-2.422l.368-6.253 1.909-.207-.372 6.365q-.141 2.56-1.434 3.986-1.281 1.41-3.348 1.635M39.152 9.155q1.717-.186 2.656.597.938.783 1.08 2.088a4.5 4.5 0 0 1-.332 2.289 4.25 4.25 0 0 1-1.462 1.8q-.987.702-2.37.852l-2.116.23-.21 3.708-1.892.205.637-11.334zm-.619 6.022q1.257-.136 1.929-.918.686-.798.558-1.975-.093-.86-.721-1.161-.629-.302-1.504-.208l-1.86.202-.23 4.258zm7.987-5.1-.167 3.06 4.518-.49-.09 1.555-4.532.492-.179 3.254 5.25-.57-.086 1.732-7.19.78.638-11.335 7.19-.78-.087 1.732zm14.943-.43a3.9 3.9 0 0 1-.563 2.524q-.696 1.154-2.084 1.707l2.381 4.151-2.036.221-2.281-3.969-1.655.18-.232 4.241-1.924.209.637-11.335 4.009-.435q1.749-.189 2.682.546.931.72 1.066 1.96m-4.342 2.999q1.256-.137 1.923-.82.666-.684.555-1.702-.084-.78-.725-1.048-.625-.27-1.515-.174l-1.83.199-.206 3.74zM18.889 26.15l-.167 3.06 4.518-.49-.09 1.554-4.533.492-.178 3.254 5.25-.57-.086 1.732-7.19.78.637-11.335 7.19-.78-.086 1.732zm13.152 5.172-4.056.44-1.163 3.071-1.957.212 4.71-11.776 1.813-.197 3.435 10.893-1.957.212zm-.432-1.466-1.233-4.244-.08.009-1.725 4.564zm12.988-5.304a3.9 3.9 0 0 1-.563 2.524q-.696 1.154-2.085 1.706l2.382 4.152-2.036.22-2.281-3.968-1.655.179-.232 4.242-1.924.209.637-11.335 4.009-.435q1.749-.19 2.682.546.93.72 1.066 1.96m-4.342 2.998q1.256-.136 1.922-.82.667-.684.556-1.702-.084-.78-.725-1.048-.625-.27-1.516-.173l-1.829.198-.206 3.74zm12.8 2.716-.085 1.731-6.872.745.622-11.333 1.956-.212-.567 9.605zm3.088 1.387.228-3.984-3.233-6.956 2.036-.22 2.218 5.021.096-.01 2.808-5.567 2.052-.223-4.053 7.746-.227 3.984zm-31.788 5.258 4.628-.502q1.384-.15 2.123.43.739.579.848 1.581.082.764-.2 1.422a3 3 0 0 1-.735 1.094q-.45.435-.915.614l-.005.097q.387.007.858.197.47.174.84.617.367.427.442 1.11a3.5 3.5 0 0 1-.313 1.87q-.416.913-1.265 1.537-.85.623-2.011.749l-4.931.535zm3.787 4.353q.97-.105 1.516-.712.546-.606.454-1.449-.07-.652-.578-.887-.494-.236-1.209-.158l-2.147.233-.2 3.208zm.13 4.91q1.065-.114 1.64-.757.59-.643.488-1.581-.078-.733-.638-.993-.544-.264-1.276-.184l-2.576.28-.215 3.515zm6.104-10.35 1.94-.21-.637 11.334-1.94.211zm11.918 1.62a3.9 3.9 0 0 1-.564 2.524q-.695 1.154-2.084 1.707l2.382 4.151-2.036.221-2.281-3.97-1.655.18-.232 4.242-1.924.209.637-11.335 4.008-.435q1.75-.189 2.683.546.93.72 1.066 1.96m-4.342 2.998q1.256-.136 1.922-.82.667-.684.556-1.702-.084-.78-.725-1.048-.625-.27-1.516-.173l-1.829.198-.206 3.74zm6.463-6.157 4.247-.46q1.941-.21 3.177.798t1.451 2.997q.21 1.94-.414 3.602-.609 1.659-1.894 2.716-1.287 1.04-2.99 1.225l-4.215.457zm3.342 9.15q1.16-.126 2.002-.83.858-.703 1.245-1.872.404-1.171.242-2.666-.155-1.431-.973-2.003-.82-.587-2.061-.452l-2.004.217-.455 7.823z"/><path fill="#D9D9D9" fill-opacity=".44" d="M9 54h60v-1H9z"/><defs><linearGradient id="a" x1="40.5" x2="40.5" y1="0" y2="96" gradientUnits="userSpaceOnUse"><stop stop-color="#FF846F"/><stop offset=".62" stop-color="#ED4F35"/><stop offset="1" stop-color="#A6311E"/></linearGradient></defs></svg>