<svg xmlns="http://www.w3.org/2000/svg" width="320" height="50" fill="none"><path fill="#FFCE00" stroke="#1F1F1F" stroke-linecap="round" stroke-linejoin="round" stroke-width="2" d="m16.5 10 2.89 7.515c.47 1.222.705 1.833 1.07 2.347a5 5 0 0 0 1.178 1.177c.514.366 1.125.6 2.347 1.07L31.5 25l-7.515 2.89c-1.222.47-1.833.705-2.347 1.07a5 5 0 0 0-1.177 1.178c-.366.514-.6 1.125-1.07 2.347L16.5 40l-2.89-7.515c-.47-1.222-.705-1.833-1.07-2.347a5 5 0 0 0-1.178-1.177c-.514-.366-1.125-.6-2.347-1.07L1.5 25l7.515-2.89c1.222-.47 1.833-.705 2.347-1.07a5 5 0 0 0 1.177-1.178c.366-.514.6-1.125 1.07-2.347z"/><rect width="240" height="47" x="40" y="1.5" fill="#FFCE00" rx="23.5"/><rect width="240" height="47" x="40" y="1.5" stroke="#1F1F1F" stroke-width="3" rx="23.5"/><path fill="#111928" d="M82.139 20.4q1.512 0 2.52.612t1.476 1.584q.486.972.486 2.07a4.7 4.7 0 0 1-.468 2.07q-.468.954-1.476 1.548t-2.538.594h-2.394V33h-2.142V20.4zm-.324 6.66q1.134 0 1.908-.54.774-.558.774-1.854 0-1.278-.774-1.8-.756-.54-1.908-.54h-2.07v4.734zm10.595 1.224h-1.854V33h-2.178V20.4h4.536q1.512 0 2.52.576 1.008.558 1.476 1.476.486.9.486 1.926 0 1.26-.702 2.286-.702 1.008-2.106 1.404L97.576 33h-2.304zm-1.854-1.8h2.034q1.134 0 1.908-.486t.774-1.62-.774-1.584q-.756-.468-1.908-.468h-2.034zm11.198-4.158v3.402h5.13v1.728h-5.13v3.618h5.958V33h-8.136V20.4h8.136v1.926zm16.611 10.836q-1.494 0-2.574-.594-1.062-.612-1.62-1.566a4.1 4.1 0 0 1-.54-2.016v-.108h2.394v.108q0 .504.252 1.026.252.504.774.864.54.342 1.35.342.972 0 1.602-.504t.63-1.35q0-.72-.504-1.152-.486-.432-1.224-.576l-1.638-.324a6.3 6.3 0 0 1-2.25-.99q-1.062-.756-1.062-2.52 0-1.116.54-1.944a3.54 3.54 0 0 1 1.512-1.26q.972-.45 2.232-.45 1.422 0 2.43.558 1.026.558 1.548 1.44t.522 1.854v.072h-2.394v-.054q0-.432-.216-.9-.198-.468-.702-.792-.486-.324-1.278-.324-.918 0-1.458.504t-.54 1.278q0 .702.486 1.116t1.26.576l1.566.324q1.386.288 2.412 1.098 1.044.792 1.044 2.412 0 1.134-.594 2.016-.576.864-1.62 1.35-1.026.486-2.34.486m13.373-3.456h-4.59L126.032 33h-2.214l4.608-12.6h2.052l4.608 12.6h-2.214zm-.576-1.692-1.692-4.896h-.09l-1.656 4.896zm13.28 3.06V33h-7.776l-.018-12.6h2.196l-.018 10.674zm3.982-8.748v3.402h5.13v1.728h-5.13v3.618h5.958V33h-8.136V20.4h8.136v1.926zm16.611 10.836q-1.494 0-2.574-.594-1.062-.612-1.62-1.566a4.1 4.1 0 0 1-.54-2.016v-.108h2.394v.108q0 .504.252 1.026.252.504.774.864.54.342 1.35.342.972 0 1.602-.504t.63-1.35q0-.72-.504-1.152-.486-.432-1.224-.576l-1.638-.324a6.3 6.3 0 0 1-2.25-.99q-1.062-.756-1.062-2.52 0-1.116.54-1.944a3.54 3.54 0 0 1 1.512-1.26q.972-.45 2.232-.45 1.422 0 2.43.558 1.026.558 1.548 1.44t.522 1.854v.072h-2.394v-.054q0-.432-.216-.9-.198-.468-.702-.792-.486-.324-1.278-.324-.918 0-1.458.504t-.54 1.278q0 .702.486 1.116t1.26.576l1.566.324q1.386.288 2.412 1.098 1.044.792 1.044 2.412 0 1.134-.594 2.016-.576.864-1.62 1.35-1.026.486-2.34.486m13.373-3.456h-4.59L172.702 33h-2.214l4.608-12.6h2.052l4.608 12.6h-2.214zm-.576-1.692-1.692-4.896h-.09l-1.656 4.896zm3.302-7.614h2.178l3.402 10.314h.108l3.384-10.314h2.196l-4.212 12.618h-2.862zm15.102 1.926v3.402h5.13v1.728h-5.13v3.618h5.958V33h-8.136V20.4h8.136v1.926zm16.449 10.836a5.3 5.3 0 0 1-2.25-.486 4 4 0 0 1-1.674-1.494q-.63-1.008-.63-2.502 0-1.476.558-2.718t1.566-2.718l1.872-2.844h2.16l-3.744 5.58.072.036.27-.288q.918-.918 2.358-.918 1.134 0 1.998.522a3.45 3.45 0 0 1 1.35 1.458q.486.918.486 2.106 0 1.368-.594 2.34a3.8 3.8 0 0 1-1.602 1.44q-.99.486-2.196.486m-.108-1.764q1.152 0 1.764-.738.63-.756.63-1.746 0-.63-.27-1.206a2.26 2.26 0 0 0-.81-.936q-.54-.378-1.314-.378-1.116 0-1.746.738-.612.738-.612 1.764 0 1.008.63 1.764.63.738 1.728.738m10.869 1.836q-2.394 0-3.564-1.584-1.17-1.602-1.17-4.176v-1.602q0-2.574 1.17-4.14 1.17-1.584 3.564-1.584t3.564 1.584q1.17 1.566 1.17 4.14v1.602q0 2.574-1.17 4.176-1.17 1.584-3.564 1.584m0-1.908q2.322 0 2.322-3.816v-1.692q0-3.78-2.322-3.78t-2.322 3.78v1.692q0 3.816 2.322 3.816m8.662-5.904q-1.224 0-1.836-.774-.594-.774-.594-1.836t.594-1.818q.594-.774 1.836-.774t1.8.756q.576.756.576 1.836t-.576 1.854q-.558.756-1.8.756m6.498-5.022h1.836L233.944 33h-1.836zm-6.462 3.762q.936 0 .936-1.35t-.936-1.35-.936 1.35.936 1.35m8.352 9.018q-1.224 0-1.836-.774-.594-.792-.594-1.836t.594-1.818q.612-.774 1.836-.774 1.242 0 1.8.774.576.756.576 1.818t-.576 1.836q-.558.774-1.8.774m.036-1.26q.558 0 .738-.378.198-.396.198-.972 0-1.35-.936-1.35t-.936 1.35.936 1.35"/><path fill="#FFCE00" stroke="#1F1F1F" stroke-linecap="round" stroke-linejoin="round" stroke-width="2" d="m303.5 10 2.89 7.515c.47 1.222.705 1.833 1.071 2.347a5 5 0 0 0 1.177 1.177c.514.366 1.125.6 2.347 1.07L318.5 25l-7.515 2.89c-1.222.47-1.833.705-2.347 1.07a5 5 0 0 0-1.177 1.178c-.366.514-.601 1.125-1.071 2.347L303.5 40l-2.89-7.515c-.47-1.222-.705-1.833-1.071-2.347a5 5 0 0 0-1.177-1.177c-.514-.366-1.125-.6-2.347-1.07L288.5 25l7.515-2.89c1.222-.47 1.833-.705 2.347-1.07a5 5 0 0 0 1.177-1.178c.366-.514.601-1.125 1.071-2.347z"/></svg>