<svg width="100" height="32" viewBox="0 0 100 32" fill="none" xmlns="http://www.w3.org/2000/svg">
<path d="M16.0077 10.0554V14.6568C16.0074 14.8087 16.0385 14.9591 16.099 15.0985C16.1595 15.2378 16.2482 15.3632 16.3594 15.4667C16.5884 15.6826 16.8918 15.8021 17.2065 15.8004H22.3405C22.7967 15.8012 23.2482 15.8924 23.669 16.0687C24.0836 16.2421 24.4584 16.4985 24.7702 16.8221C25.0748 17.1404 25.3084 17.5197 25.4556 17.9349C25.6011 18.3461 25.6538 18.7844 25.6096 19.2184C25.4505 20.8331 23.9526 22.0421 22.2443 22.0421H18.0587L17.9984 18.6549H22.3418C23.3382 18.6532 24.3141 18.3712 25.1578 17.8412C24.8612 17.1583 24.3175 16.6128 23.6356 16.3138C23.2036 16.5042 22.7369 16.6029 22.2648 16.6039H17.1795C17.0262 16.6036 16.8742 16.6323 16.7316 16.6886C16.5888 16.7428 16.458 16.8243 16.3465 16.9286C16.2378 17.0305 16.1505 17.1531 16.0898 17.2893C16.0318 17.4239 16.0017 17.5688 16.0013 17.7154C16.0013 19.4905 16.0116 22.7763 16.0013 22.8405C16.0022 22.9915 16.0339 23.1407 16.0944 23.279C16.1548 23.4174 16.2428 23.542 16.353 23.6452C16.583 23.8603 16.8865 23.9792 17.2014 23.9777H22.3354C23.0541 23.9728 23.765 23.8285 24.4288 23.5528C25.0834 23.2893 25.6796 22.8994 26.1834 22.4054C26.6766 21.92 27.065 21.3385 27.3244 20.697C27.5801 20.0634 27.6982 19.3826 27.671 18.6999C27.5619 15.9609 25.1039 13.8328 22.2096 13.8328H18.0587V10.0554H22.3418C22.7826 10.0557 23.2188 10.1447 23.6245 10.3172C24.0301 10.4897 24.3968 10.7421 24.7028 11.0594C25.0087 11.3768 25.2476 11.7525 25.4051 12.1641C25.5627 12.5758 25.6358 13.0149 25.6199 13.4554C25.6055 13.8242 25.526 14.1875 25.385 14.5285C25.723 14.7383 26.0379 14.983 26.3246 15.2588C26.5596 15.4847 26.7743 15.7308 26.9663 15.9942C27.421 15.2139 27.6684 14.3302 27.6851 13.4272C27.7313 10.4508 25.2246 8.02235 22.2404 8.02235H17.1783C17.025 8.02146 16.873 8.04977 16.7303 8.10578C16.5876 8.15994 16.4568 8.24147 16.3453 8.3458C16.2362 8.44745 16.1489 8.57014 16.0886 8.70646C16.0305 8.8406 16.0004 8.98515 16 9.1313L16.0077 10.0554Z" fill="#0052FF"/>
<path d="M44.4783 13.5055H42.9278V20.9306H44.4783V13.5055Z" fill="black"/>
<path d="M40.575 15.8108C40.4185 15.664 40.2463 15.5348 40.0616 15.4257C40.2738 15.2645 40.4555 15.0668 40.5981 14.8417C40.8529 14.4344 40.9865 13.9629 40.9831 13.4825C40.9969 12.9682 40.8686 12.4601 40.6122 12.0141C40.363 11.591 39.9891 11.2552 39.5418 11.0528C39.0222 10.8128 38.4543 10.6956 37.8822 10.7101H33.5773V20.9345H37.9001C38.9903 20.9345 39.8459 20.6603 40.4672 20.1118C41.0884 19.5633 41.4041 18.8082 41.4144 17.8464C41.4157 17.4708 41.3456 17.0984 41.2077 16.749C41.0739 16.3907 40.857 16.0691 40.575 15.8108ZM35.1958 12.1053H37.9271C38.3093 12.0864 38.6851 12.2083 38.9834 12.448C39.1176 12.5681 39.2231 12.7169 39.292 12.8833C39.3608 13.0497 39.3914 13.2295 39.3813 13.4093C39.3887 13.5947 39.3571 13.7796 39.2885 13.9521C39.22 14.1245 39.1161 14.2807 38.9834 14.4104C38.6931 14.667 38.3141 14.8001 37.9271 14.7814H35.1958V12.1053ZM39.3133 19.0491C38.9924 19.3425 38.562 19.4893 38.0221 19.4893H35.1984V16.2086H38.0221C38.562 16.2086 38.9924 16.3597 39.3133 16.6617C39.4746 16.8143 39.6011 17 39.6839 17.206C39.7668 17.4121 39.8041 17.6336 39.7933 17.8554C39.8024 18.077 39.7643 18.298 39.6816 18.5038C39.5988 18.7096 39.4733 18.8954 39.3133 19.0491Z" fill="black"/>
<path d="M44.4783 10.7048H42.9278V12.4889H44.4783V10.7048Z" fill="black"/>
<path d="M49.8333 19.6394C49.588 19.6495 49.3437 19.6025 49.1196 19.5021C48.9456 19.4118 48.8059 19.2671 48.7218 19.0901C48.6321 18.8824 48.5884 18.6578 48.5934 18.4316V14.9045H50.2825V13.5055H48.5947V11.8036H47.0468V12.3863C47.0634 12.688 46.9595 12.9839 46.758 13.209C46.6519 13.3132 46.5251 13.394 46.3858 13.4462C46.2465 13.4984 46.0979 13.5208 45.9494 13.5119H45.7427V14.9109H47.0468V18.5048C47.0468 19.3006 47.2607 19.9179 47.6885 20.3569C48.1164 20.7958 48.72 21.0153 49.4996 21.0153C49.6373 21.0142 49.7749 21.0052 49.9116 20.9884C50.0669 20.9704 50.2081 20.9524 50.3364 20.9332V19.5983L50.0797 19.6266C49.9886 19.6355 49.9064 19.6394 49.8333 19.6394Z" fill="black"/>
<path d="M73.5502 13.7379C73.2642 13.9063 73.035 14.1561 72.8917 14.4554V13.5056H71.4093V20.9294H72.9597V16.6476C72.9597 16.0623 73.1155 15.614 73.4269 15.3025C73.5917 15.1421 73.7874 15.017 74.0021 14.9349C74.2169 14.8528 74.4461 14.8154 74.6758 14.825H75.3176V13.4132H74.8645C74.4049 13.3991 73.9503 13.5115 73.5502 13.7379Z" fill="black"/>
<path d="M83.0375 15.563C82.8867 15.1416 82.6532 14.7545 82.3508 14.4246C82.043 14.0812 81.6636 13.8095 81.2393 13.6288C80.7664 13.4296 80.2571 13.3313 79.744 13.34C79.0855 13.3312 78.438 13.5092 77.8765 13.8534C77.3268 14.1831 76.8728 14.6508 76.5596 15.2101C76.2307 15.8212 76.0654 16.5069 76.0796 17.2008C76.0697 17.8938 76.2348 18.578 76.5596 19.1902C76.8707 19.7672 77.3302 20.2506 77.8906 20.5905C78.4908 20.9377 79.174 21.1151 79.8672 21.1039C80.3395 21.109 80.8089 21.0299 81.2534 20.8703C81.6578 20.7186 82.0301 20.4922 82.3508 20.2029C82.6465 19.9415 82.881 19.618 83.0375 19.2557L81.7745 18.6383C81.5915 18.9573 81.3322 19.2259 81.0198 19.42C80.6776 19.6298 80.2813 19.7346 79.8801 19.7216C79.4652 19.728 79.0567 19.6187 78.7005 19.4059C78.359 19.1927 78.0834 18.8887 77.9047 18.5279C77.7769 18.2567 77.7048 17.9625 77.693 17.6629H83.2121C83.24 17.5456 83.2585 17.4263 83.2673 17.306C83.2762 17.1777 83.2801 17.0493 83.2801 16.9364C83.2843 16.4676 83.202 16.002 83.0375 15.563ZM77.9035 15.8377C78.0573 15.4789 78.3142 15.1739 78.6417 14.9614C78.9692 14.7488 79.3524 14.6384 79.7427 14.644C80.1237 14.6352 80.498 14.7456 80.8132 14.9598C81.1233 15.1604 81.363 15.453 81.4986 15.7966C81.5852 15.9963 81.6331 16.2106 81.6398 16.4281H77.7302C77.7614 16.2243 77.8201 16.0257 77.9047 15.8377H77.9035Z" fill="black"/>
<path d="M66.5935 18.9591L64.5001 13.5055H62.8418L65.7939 20.9242L65.5859 21.3965C65.4657 21.7234 65.2736 22.019 65.0238 22.2616C64.8218 22.4533 64.5061 22.5491 64.0765 22.5491C63.9246 22.5484 63.773 22.5347 63.6234 22.508C63.4895 22.4935 63.3567 22.4708 63.2256 22.44V23.771C63.3792 23.8368 63.5404 23.8829 63.7056 23.9083C63.8865 23.9441 64.0705 23.9621 64.2549 23.9623C64.6843 23.9737 65.1095 23.8747 65.4897 23.6747C65.8517 23.4868 66.1664 23.2191 66.4099 22.8918C66.687 22.5426 66.9091 22.153 67.0684 21.7367L70.349 13.5029H68.6728L66.5935 18.9591Z" fill="black"/>
<path d="M59.2096 18.5549L57.5231 13.5055H56.1087L54.4106 18.5549L52.7472 13.5055H51.0992L53.652 20.9294H55.0665L56.8159 15.6439L58.5653 20.9294H59.9656L62.5314 13.5055H60.8846L59.2096 18.5549Z" fill="black"/>
</svg>
