<svg width="128" height="32" viewBox="0 0 128 32" fill="none" xmlns="http://www.w3.org/2000/svg">
<path d="M22.4942 18.873C22.5119 17.9361 23.2349 17.2343 24.1665 17.252C25.1087 17.2679 25.7946 17.9927 25.7787 18.9526C25.7628 19.8524 25.0327 20.5542 24.1205 20.5435C23.1942 20.5329 22.4765 19.7958 22.4942 18.8748V18.873Z" fill="url(#paint0_linear_0_3)"/>
<path d="M31.142 17.2522C30.2104 17.254 29.4945 17.9699 29.4945 18.8997H29.4927C29.4927 19.8137 30.2122 20.5384 31.1261 20.5437C32.0665 20.5491 32.7931 19.8225 32.7843 18.8821C32.7772 17.9611 32.0612 17.2504 31.142 17.2522Z" fill="url(#paint1_linear_0_3)"/>
<path fill-rule="evenodd" clip-rule="evenodd" d="M19.2279 20.8641C19.2927 20.5711 19.357 20.2802 19.4223 19.9864C19.4333 20.1914 19.4436 20.3965 19.4538 20.6017C19.4812 21.152 19.5087 21.7026 19.5511 22.2512C19.5847 22.6932 19.719 23.121 20.0867 23.3985C20.6506 23.8245 21.2481 24.2046 21.9287 24.422C23.0265 24.7738 24.1543 24.9718 25.3016 25.0584C26.509 25.1486 27.7146 25.1327 28.9202 25.0248C30.048 24.9258 31.1758 24.8215 32.2842 24.5741C33.0302 24.4061 33.7568 24.1745 34.4533 23.8528C34.9341 23.6318 35.2629 23.2712 35.3919 22.7515C35.4483 22.5246 35.4834 22.293 35.5185 22.0614C35.5263 22.0098 35.5341 21.9581 35.5422 21.9065C35.5676 21.7478 35.5857 21.5872 35.6037 21.4275C35.6107 21.3651 35.6178 21.302 35.6253 21.2401C36.5392 21.3019 36.8362 21.0686 37.1526 20.0663C37.1876 20.0618 37.2232 20.0577 37.259 20.0536C37.3372 20.0446 37.4168 20.0354 37.4956 20.0221L37.585 20.006C37.7712 19.9727 37.9582 19.9392 38.1426 19.8966C38.3989 19.8365 38.5209 19.6562 38.5421 19.4034C38.5544 19.2708 38.5562 19.1382 38.5544 19.0056C38.5509 18.6698 38.4537 18.5319 38.132 18.4152C38.0011 18.3675 37.8668 18.3304 37.7307 18.2985C37.6114 18.2698 37.4908 18.2446 37.3722 18.2197C37.301 18.2048 37.2305 18.1901 37.1615 18.1748C36.9281 17.2609 36.6311 17.0169 35.8798 17.123C35.8477 17.3586 35.8161 17.5958 35.7839 17.8379L35.7837 17.8394C35.7574 18.0364 35.7308 18.2366 35.7031 18.4417C35.6899 18.3121 35.6785 18.185 35.6674 18.0598C35.6441 17.7995 35.6216 17.5468 35.5846 17.2962C35.376 15.9068 34.7167 14.8001 33.511 14.0418C32.91 13.6617 32.2595 13.3912 31.5736 13.2162C31.1181 13.0989 30.6582 12.9993 30.1964 12.8992C30.004 12.8575 29.8113 12.8157 29.6185 12.7725C29.5212 11.8003 29.2366 11.4909 28.0399 11.4308C28.0399 11.3585 28.0402 11.2859 28.0406 11.2132V11.212C28.0414 11.0667 28.0422 10.9208 28.0399 10.775C28.0328 10.3136 28.1601 9.92822 28.5348 9.60649C29.0068 9.20167 29.2048 8.66604 29.0439 8.03672C28.8442 7.25891 28.0399 6.75687 27.2391 6.91067C26.4188 7.068 25.8708 7.82636 25.9875 8.6413C26.0529 9.09914 26.3145 9.43148 26.6451 9.73023L26.6552 9.73951C26.7846 9.8583 26.9478 10.0082 26.9633 10.158C26.9951 10.4645 26.9894 10.7746 26.9837 11.0845C26.9814 11.2053 26.9792 11.3262 26.9792 11.4467C25.9185 11.5174 25.6092 11.795 25.4961 12.7867C25.4715 12.7908 25.4462 12.796 25.4205 12.8013C25.3907 12.8075 25.3603 12.8138 25.3299 12.8185C24.423 12.9723 23.5232 13.1508 22.6623 13.4849C21.2764 14.0223 20.2564 14.9345 19.7456 16.3593C19.7005 16.4851 19.6601 16.6116 19.6192 16.7394C19.5975 16.8072 19.5755 16.8758 19.5529 16.9444L19.3955 16.9727C19.3229 16.9854 19.2501 16.9975 19.1773 17.0096C18.9969 17.0397 18.816 17.0698 18.6372 17.1088C18.3048 17.1813 18.0909 17.3828 18.0167 17.7205C17.9955 17.8149 17.9762 17.9093 17.9569 18.0037C17.944 18.0666 17.9311 18.1295 17.9177 18.1925C17.7422 18.2205 17.5729 18.2485 17.4035 18.2765L17.3025 18.2932C16.6078 18.4099 16.4752 18.5743 16.5035 19.2779C16.5176 19.6456 16.6255 19.7941 16.9879 19.8895C17.1967 19.9442 17.4089 19.9863 17.6216 20.0285C17.7183 20.0477 17.8158 20.0671 17.9124 20.0875C17.9388 20.153 17.9646 20.2193 17.9905 20.2859C18.0513 20.4422 18.1127 20.6003 18.1846 20.7539C18.3154 21.0332 18.5452 21.1694 18.8546 21.1694H19.1604L19.2279 20.8641ZM27.4777 15.357C27.2682 15.3626 27.0533 15.3665 26.8347 15.3706C26.2914 15.3807 25.7248 15.3912 25.1602 15.4277C24.4319 15.4737 23.7177 15.6239 23.0389 15.9068C22.2911 16.2179 21.6282 16.6492 21.1916 17.351C20.5605 18.3657 20.5817 19.4423 20.9565 20.533C21.2093 21.2684 21.6901 21.8022 22.4308 22.0709C22.9452 22.2583 23.4844 22.3449 24.0324 22.3414C24.8738 22.3361 25.5738 22.0143 26.1271 21.378L26.1853 21.3114C26.2433 21.2448 26.3013 21.1782 26.3623 21.1146C26.9757 20.4729 27.6509 20.3986 28.374 20.913C28.5557 21.0421 28.7227 21.1937 28.8896 21.3452C28.9467 21.397 29.004 21.449 29.0616 21.4999C29.3869 21.7881 29.7175 22.0656 30.1382 22.2123C31.8016 22.7904 33.4916 22.0515 34.1245 20.464C34.7732 18.8359 34.227 17.2343 32.7244 16.3027C31.837 15.753 30.8541 15.5232 29.8394 15.4295C29.316 15.382 28.7883 15.3764 28.2392 15.3706C27.9909 15.368 27.7382 15.3654 27.4795 15.3588L27.4777 15.357Z" fill="url(#paint2_linear_0_3)"/>
<path fill-rule="evenodd" clip-rule="evenodd" d="M58.0439 13.4329L58.0492 13.5064C58.0618 13.6791 58.0745 13.8518 58.0871 14.0632C58.1387 14.0664 58.1894 14.0716 58.2392 14.0767C58.3562 14.0886 58.4683 14.1 58.5769 14.0848C58.9262 14.0416 59.1639 14.1821 59.3872 14.4414C60.6586 15.9144 60.8675 17.9817 59.8951 19.6745C58.9695 21.2844 57.0426 22.174 55.2202 21.8282C53.3222 21.4681 51.8923 20.0058 51.6114 18.0718C51.3593 16.3394 51.9536 14.8988 53.3438 13.8471C54.7196 12.8062 56.2503 12.6766 57.8458 13.3249C57.8937 13.3451 57.9382 13.3724 57.984 13.4005C58.0036 13.4125 58.0234 13.4247 58.0439 13.4365V13.4329ZM52.7473 19.0477C52.753 19.0823 52.7587 19.117 52.7652 19.1514C51.6985 17.2449 52.4538 15.3044 53.7724 14.3441C54.9825 13.4617 56.7689 13.4149 57.7125 14.146C57.5735 14.1191 57.4221 14.0812 57.2621 14.0411C56.8876 13.9472 56.4652 13.8413 56.0414 13.8363C53.4734 13.8039 51.7519 16.3502 52.6775 18.7489C52.7137 18.8429 52.7305 18.945 52.7473 19.0477ZM52.7976 19.1907C52.8169 19.1832 52.8249 19.1784 52.7976 19.1907V19.1907ZM55.7424 15.2229C55.689 15.245 55.6451 15.2624 55.6057 15.278C55.568 15.2929 55.5346 15.3061 55.5011 15.3202C54.9969 15.5363 54.6584 15.8856 54.6115 16.4583C54.5647 17.0597 54.8889 17.4487 55.3823 17.7152C55.5924 17.8271 55.8107 17.9203 56.0295 18.0138C56.0995 18.0437 56.1696 18.0736 56.2395 18.1042C56.5132 18.2266 56.7761 18.3779 56.6753 18.7345C56.5744 19.0874 56.2611 19.0802 55.9693 19.0586C55.8397 19.0478 55.6956 19.019 55.584 18.9542C55.4246 18.8645 55.2739 18.7594 55.1163 18.6495C55.0459 18.6005 54.9742 18.5504 54.8997 18.5004C54.7268 18.6985 54.5503 18.9001 54.3594 19.1162C54.3877 19.1467 54.4137 19.1775 54.4389 19.2073C54.497 19.2762 54.5509 19.34 54.6187 19.3828C54.819 19.5107 55.0258 19.6321 55.2455 19.7611C55.3537 19.8247 55.4651 19.8901 55.5804 19.959V20.5605H56.3619C56.3776 20.3928 56.3933 20.2404 56.4091 20.088L56.4267 19.9158C56.4988 19.8978 56.5564 19.8834 56.6104 19.8654C57.2875 19.6457 57.6405 19.2351 57.6837 18.63C57.7269 17.9817 57.4892 17.6324 56.7725 17.2974L55.9189 16.8977C55.6956 16.7896 55.5443 16.6311 55.62 16.3646C55.6992 16.0981 55.9369 16.0189 56.1602 16.0765C56.3765 16.1318 56.5847 16.2207 56.8117 16.3176C56.9249 16.366 57.0428 16.4163 57.1687 16.4655C57.2983 16.3142 57.482 16.1017 57.7161 15.8316L57.2561 15.5707C57.0309 15.4431 56.8136 15.3199 56.5924 15.1941C56.5855 15.0739 56.58 14.9478 56.5742 14.812C56.5709 14.7362 56.5675 14.6571 56.5636 14.5746H55.7893C55.782 14.6864 55.7748 14.79 55.7676 14.8937C55.7604 14.9971 55.7532 15.1006 55.746 15.2121L55.7424 15.2229ZM58.5841 16.4294H59.6394V15.3922H58.5841V16.4294ZM58.8038 17.6828V17.1462H58.2383C58.2491 17.3479 58.26 17.5171 58.2708 17.6828H58.8038ZM57.9826 14.3045C57.9915 14.3075 58.0052 14.3274 58.0098 14.3345C58.0063 14.3371 58.0028 14.3408 57.9993 14.3444C57.9926 14.3515 57.9858 14.3585 57.979 14.3585C57.9713 14.3585 57.9636 14.3493 57.9559 14.3402C57.9528 14.3365 57.9497 14.3328 57.9466 14.3297C57.953 14.3266 57.9586 14.3213 57.9639 14.3164C57.9705 14.3102 57.9766 14.3045 57.9826 14.3045ZM52.944 19.4008C52.944 19.4008 52.9692 19.3791 52.9692 19.3683C52.9692 19.3597 52.96 19.3511 52.9508 19.3424L52.944 19.3359L52.9372 19.3424C52.928 19.3511 52.9188 19.3597 52.9188 19.3683C52.9188 19.377 52.928 19.3856 52.9372 19.3943L52.944 19.4008Z" fill="url(#paint3_linear_0_3)"/>
<path d="M69.1222 13.1123H67.804V21.6697H69.4355V16.0693C69.468 16.062 69.4968 16.0548 69.5256 16.0476C70.7216 17.5808 71.9152 19.1139 73.0967 20.6314L73.9051 21.6697H74.9352V13.0943H73.3144V18.2914L73.2388 18.313C72.3687 17.214 71.4999 16.1164 70.638 15.0274L69.1222 13.1123Z" fill="url(#paint4_linear_0_3)"/>
<path d="M50.1239 14.2433C50.1035 14.2652 50.0837 14.2877 50.0639 14.31C50.035 14.3429 50.0062 14.3754 49.9762 14.4054C49.7484 14.6248 49.5206 14.842 49.2825 15.069L49.0794 15.2626C48.3231 14.6035 47.4407 14.3586 46.4611 14.5027C45.7552 14.6035 45.1465 14.9024 44.6891 15.4715C43.7707 16.6096 43.8391 18.5004 44.8008 19.5377C45.6471 20.4525 47.6964 20.8054 49.1191 19.5485C49.3026 19.7302 49.4853 19.9129 49.6688 20.0964C49.8525 20.2801 50.0375 20.4651 50.2248 20.6506C49.2811 21.5618 48.1214 21.9255 46.8285 21.8895C46.3819 21.8751 45.9281 21.8175 45.4995 21.6986C43.7959 21.2376 42.6794 19.923 42.4741 18.1331C42.3013 16.5988 42.6362 15.205 43.7779 14.0957C45.4166 12.5038 48.4132 12.5254 50.0411 14.1245C50.0623 14.1457 50.0773 14.17 50.0943 14.1974C50.1032 14.2118 50.1127 14.2272 50.1239 14.2433Z" fill="url(#paint5_linear_0_3)"/>
<path d="M105.268 20.5966H101.904C101.81 19.7862 102.037 19.5557 102.851 19.4369C102.938 19.4233 103.028 19.4243 103.117 19.4254C103.193 19.4263 103.27 19.4272 103.345 19.4188L103.457 19.4085C103.688 19.3877 103.921 19.3665 104.144 19.3108C104.746 19.1595 105.142 18.7886 105.253 18.1547C105.365 17.5208 105.239 16.9554 104.728 16.5304C103.917 15.8569 102.297 15.8281 101.472 16.4691C101.086 16.7681 100.859 17.1462 100.899 17.6721H101.85C102.221 16.8941 103.204 16.6528 103.91 17.1426C104.173 17.3263 104.27 17.5748 104.238 17.881C104.202 18.2015 103.975 18.3492 103.701 18.414C103.551 18.4493 103.394 18.4615 103.238 18.4738C103.154 18.4803 103.071 18.4868 102.988 18.4968C102.895 18.5091 102.801 18.519 102.708 18.5289C102.472 18.554 102.236 18.5791 102.012 18.6409C101.497 18.7814 101.029 19.0731 100.932 19.6169C100.853 20.0627 100.842 20.5227 100.831 20.9806C100.827 21.1739 100.822 21.3668 100.813 21.5582H105.268V20.5966Z" fill="url(#paint6_linear_0_3)"/>
<path d="M110.645 16.1089H111.617C111.617 16.4968 111.625 16.8836 111.632 17.2693C111.648 18.1474 111.663 19.0202 111.596 19.8834C111.513 20.9386 110.674 21.5977 109.608 21.6734C108.261 21.7706 107.303 21.1872 106.975 20.0671L106.967 20.0415L106.962 20.0239C106.943 19.9662 106.925 19.9086 106.925 19.851V16.1125H107.879C107.881 16.1557 107.885 16.1989 107.888 16.2421C107.894 16.3286 107.901 16.415 107.901 16.5015C107.902 16.8221 107.901 17.1424 107.899 17.4625V17.4637C107.897 18.1029 107.895 18.7425 107.911 19.3828C107.933 20.1823 108.387 20.6649 109.132 20.7478C109.968 20.8378 110.591 20.3552 110.627 19.516C110.654 18.8649 110.653 18.2121 110.651 17.5588C110.651 17.2511 110.65 16.9425 110.652 16.6347V16.1161L110.645 16.1089Z" fill="url(#paint7_linear_0_3)"/>
<path d="M64.8833 13.1125H63.3202V21.6662H64.8833V13.1125Z" fill="url(#paint8_linear_0_3)"/>
<path d="M83.2441 18.9867V21.1368H86.6512V21.569H82.8263V16.1054H86.5612V16.48H83.2441V18.5977H86.3919C86.3962 18.6842 86.4005 18.759 86.4049 18.8338L86.4087 18.9008L86.4135 18.9867H83.2441Z" fill="url(#paint9_linear_0_3)"/>
<path d="M98.6301 16.1198V18.6769H95.1366V16.091C95.0826 16.0935 95.0339 16.096 94.9882 16.0983C94.9027 16.1028 94.8274 16.1066 94.7476 16.109V21.5618H95.1582V19.1019H98.6409V21.5582H99.0515V16.0838C98.9003 16.0946 98.7742 16.1054 98.6301 16.1198Z" fill="url(#paint10_linear_0_3)"/>
<path d="M92.9073 16.8617L92.9055 16.8633C91.9756 15.7956 90.0182 15.7386 88.96 16.7392C87.8182 17.8197 87.8182 19.8762 88.96 20.9423C90.026 21.9363 91.9853 21.8715 92.9109 20.7946C92.8707 20.7611 92.8304 20.7268 92.7905 20.6928C92.7448 20.6537 92.6995 20.6151 92.6552 20.5785C91.391 21.6446 89.8171 21.2664 89.1616 20.5533C88.3729 19.6997 88.3045 18.1475 89.0428 17.2327C89.3849 16.8077 89.8351 16.5592 90.3682 16.4583C91.2326 16.2962 91.9961 16.5015 92.6552 17.0886C92.717 17.0313 92.7716 16.9828 92.8226 16.9375L92.8248 16.9355L92.8588 16.9052L92.9055 16.8633L92.9073 16.8653V16.8617Z" fill="url(#paint11_linear_0_3)"/>
<path d="M78.7997 21.5618H79.2607V16.4512H81.1948V16.1198H76.8404V16.4836H78.7997V21.5618Z" fill="url(#paint12_linear_0_3)"/>
<path d="M62.1639 11.1532V12.882H60.4172V11.1532H62.1639Z" fill="url(#paint13_linear_0_3)"/>
<path d="M58.6631 13.2025H59.8048V12.0608H58.6631V13.2025Z" fill="url(#paint14_linear_0_3)"/>
<path d="M60.4822 13.8147H61.4583V14.8015H60.4822V13.8147Z" fill="url(#paint15_linear_0_3)"/>
<path d="M59.1387 10.919H59.949V10.0979H59.1387V10.919Z" fill="url(#paint16_linear_0_3)"/>
<path d="M61.3247 15.5543V16.2494H60.6152V15.5543H61.3247Z" fill="url(#paint17_linear_0_3)"/>
<path d="M57.051 11.6751C57.0496 11.7093 57.048 11.7462 57.0463 11.7871L57.0499 11.7835C57.2228 11.7726 57.3452 11.7654 57.4713 11.7582V11.3873H57.0643C57.0588 11.4856 57.0554 11.5674 57.051 11.6751Z" fill="url(#paint18_linear_0_3)"/>
<defs>
<linearGradient id="paint0_linear_0_3" x1="111.553" y1="15.9849" x2="16.4944" y2="15.9849" gradientUnits="userSpaceOnUse">
<stop stop-color="#6F15C9"/>
<stop offset="0.5" stop-color="#B831C0"/>
<stop offset="1" stop-color="#FF7951"/>
</linearGradient>
<linearGradient id="paint1_linear_0_3" x1="111.553" y1="15.9849" x2="16.4944" y2="15.9849" gradientUnits="userSpaceOnUse">
<stop stop-color="#6F15C9"/>
<stop offset="0.5" stop-color="#B831C0"/>
<stop offset="1" stop-color="#FF7951"/>
</linearGradient>
<linearGradient id="paint2_linear_0_3" x1="111.553" y1="15.9849" x2="16.4944" y2="15.9849" gradientUnits="userSpaceOnUse">
<stop stop-color="#6F15C9"/>
<stop offset="0.5" stop-color="#B831C0"/>
<stop offset="1" stop-color="#FF7951"/>
</linearGradient>
<linearGradient id="paint3_linear_0_3" x1="111.553" y1="15.9849" x2="16.4944" y2="15.9849" gradientUnits="userSpaceOnUse">
<stop stop-color="#6F15C9"/>
<stop offset="0.5" stop-color="#B831C0"/>
<stop offset="1" stop-color="#FF7951"/>
</linearGradient>
<linearGradient id="paint4_linear_0_3" x1="111.553" y1="15.9849" x2="16.4944" y2="15.9849" gradientUnits="userSpaceOnUse">
<stop stop-color="#6F15C9"/>
<stop offset="0.5" stop-color="#B831C0"/>
<stop offset="1" stop-color="#FF7951"/>
</linearGradient>
<linearGradient id="paint5_linear_0_3" x1="111.553" y1="15.9849" x2="16.4944" y2="15.9849" gradientUnits="userSpaceOnUse">
<stop stop-color="#6F15C9"/>
<stop offset="0.5" stop-color="#B831C0"/>
<stop offset="1" stop-color="#FF7951"/>
</linearGradient>
<linearGradient id="paint6_linear_0_3" x1="111.553" y1="15.9849" x2="16.4944" y2="15.9849" gradientUnits="userSpaceOnUse">
<stop stop-color="#6F15C9"/>
<stop offset="0.5" stop-color="#B831C0"/>
<stop offset="1" stop-color="#FF7951"/>
</linearGradient>
<linearGradient id="paint7_linear_0_3" x1="111.553" y1="15.9849" x2="16.4944" y2="15.9849" gradientUnits="userSpaceOnUse">
<stop stop-color="#6F15C9"/>
<stop offset="0.5" stop-color="#B831C0"/>
<stop offset="1" stop-color="#FF7951"/>
</linearGradient>
<linearGradient id="paint8_linear_0_3" x1="111.553" y1="15.9849" x2="16.4944" y2="15.9849" gradientUnits="userSpaceOnUse">
<stop stop-color="#6F15C9"/>
<stop offset="0.5" stop-color="#B831C0"/>
<stop offset="1" stop-color="#FF7951"/>
</linearGradient>
<linearGradient id="paint9_linear_0_3" x1="111.553" y1="15.9849" x2="16.4944" y2="15.9849" gradientUnits="userSpaceOnUse">
<stop stop-color="#6F15C9"/>
<stop offset="0.5" stop-color="#B831C0"/>
<stop offset="1" stop-color="#FF7951"/>
</linearGradient>
<linearGradient id="paint10_linear_0_3" x1="111.553" y1="15.9849" x2="16.4944" y2="15.9849" gradientUnits="userSpaceOnUse">
<stop stop-color="#6F15C9"/>
<stop offset="0.5" stop-color="#B831C0"/>
<stop offset="1" stop-color="#FF7951"/>
</linearGradient>
<linearGradient id="paint11_linear_0_3" x1="111.553" y1="15.9849" x2="16.4944" y2="15.9849" gradientUnits="userSpaceOnUse">
<stop stop-color="#6F15C9"/>
<stop offset="0.5" stop-color="#B831C0"/>
<stop offset="1" stop-color="#FF7951"/>
</linearGradient>
<linearGradient id="paint12_linear_0_3" x1="111.553" y1="15.9849" x2="16.4944" y2="15.9849" gradientUnits="userSpaceOnUse">
<stop stop-color="#6F15C9"/>
<stop offset="0.5" stop-color="#B831C0"/>
<stop offset="1" stop-color="#FF7951"/>
</linearGradient>
<linearGradient id="paint13_linear_0_3" x1="111.553" y1="15.9849" x2="16.4944" y2="15.9849" gradientUnits="userSpaceOnUse">
<stop stop-color="#6F15C9"/>
<stop offset="0.5" stop-color="#B831C0"/>
<stop offset="1" stop-color="#FF7951"/>
</linearGradient>
<linearGradient id="paint14_linear_0_3" x1="111.553" y1="15.9849" x2="16.4944" y2="15.9849" gradientUnits="userSpaceOnUse">
<stop stop-color="#6F15C9"/>
<stop offset="0.5" stop-color="#B831C0"/>
<stop offset="1" stop-color="#FF7951"/>
</linearGradient>
<linearGradient id="paint15_linear_0_3" x1="111.553" y1="15.9849" x2="16.4944" y2="15.9849" gradientUnits="userSpaceOnUse">
<stop stop-color="#6F15C9"/>
<stop offset="0.5" stop-color="#B831C0"/>
<stop offset="1" stop-color="#FF7951"/>
</linearGradient>
<linearGradient id="paint16_linear_0_3" x1="111.553" y1="15.9849" x2="16.4944" y2="15.9849" gradientUnits="userSpaceOnUse">
<stop stop-color="#6F15C9"/>
<stop offset="0.5" stop-color="#B831C0"/>
<stop offset="1" stop-color="#FF7951"/>
</linearGradient>
<linearGradient id="paint17_linear_0_3" x1="111.553" y1="15.9849" x2="16.4944" y2="15.9849" gradientUnits="userSpaceOnUse">
<stop stop-color="#6F15C9"/>
<stop offset="0.5" stop-color="#B831C0"/>
<stop offset="1" stop-color="#FF7951"/>
</linearGradient>
<linearGradient id="paint18_linear_0_3" x1="111.553" y1="15.9849" x2="16.4944" y2="15.9849" gradientUnits="userSpaceOnUse">
<stop stop-color="#6F15C9"/>
<stop offset="0.5" stop-color="#B831C0"/>
<stop offset="1" stop-color="#FF7951"/>
</linearGradient>
</defs>
</svg>
