<svg width="875" height="175" viewBox="0 0 875 175" fill="none" xmlns="http://www.w3.org/2000/svg">
<g style="mix-blend-mode:overlay" opacity="0.4">
<path d="M206.525 28.7424C199.082 28.6011 191.668 29.6975 184.585 31.9867L184.46 66.0898C186.109 64.072 187.999 62.2648 190.09 60.7089C194.866 57.3818 200.595 55.7006 206.412 55.9197C212.275 55.7312 218.041 57.4556 222.838 60.8323C225.424 62.7343 227.674 65.0556 229.495 67.6999L229.623 32.5609C222.21 29.9318 214.389 28.6389 206.525 28.7424V28.7424Z" stroke="white" stroke-miterlimit="10"/>
</g>
<g style="mix-blend-mode:overlay" opacity="0.4">
<path d="M267.818 89.5286C267.798 97.1057 266.465 104.622 263.88 111.744C261.341 118.956 257.393 125.591 252.264 131.262C246.853 137.185 240.251 141.898 232.891 145.092C224.407 148.659 215.262 150.385 206.061 150.156C196.85 150.313 187.71 148.52 179.242 144.895C171.944 141.665 165.425 136.905 160.127 130.938C155.061 125.201 151.149 118.543 148.603 111.327C146.017 104.186 144.7 96.6494 144.71 89.056C144.738 81.5148 146.098 74.0381 148.727 66.9705C151.342 59.8126 155.325 53.2321 160.454 47.596C165.796 41.6896 172.345 37.0009 179.658 33.8475C181.26 33.124 182.906 32.5023 184.585 31.986L184.46 66.0892C182.736 68.2667 181.308 70.6629 180.214 73.2153C178.016 78.2723 176.872 83.7241 176.852 89.2381C176.832 94.7521 177.935 100.213 180.095 105.286C182.144 110.295 185.509 114.657 189.834 117.911C194.582 121.283 200.304 123.008 206.125 122.823C211.986 123.064 217.766 121.382 222.582 118.034C226.965 114.815 230.382 110.456 232.461 105.432C234.633 100.359 235.759 94.899 235.772 89.3799C235.808 83.8833 234.719 78.4373 232.572 73.377C231.742 71.3543 230.685 69.4324 229.421 67.6482L229.549 32.5093C230.782 33.038 232.072 33.4763 233.231 34.0883C240.556 37.2841 247.124 41.9914 252.503 47.9018C257.587 53.568 261.491 60.1898 263.988 67.3805C266.545 74.484 267.841 81.9794 267.818 89.5286V89.5286Z" stroke="white" stroke-miterlimit="10"/>
</g>
<g style="mix-blend-mode:overlay" opacity="0.4">
<path d="M312.671 148.97L312.796 104.345L282.12 104.227L281.963 148.838L312.671 148.97Z" stroke="white" stroke-miterlimit="10"/>
</g>
<g style="mix-blend-mode:overlay" opacity="0.4">
<path d="M313.08 30.7298L282.406 30.6143L282.141 104.253L312.815 104.368L313.08 30.7298Z" stroke="white" stroke-miterlimit="10"/>
</g>
<g style="mix-blend-mode:overlay" opacity="0.4">
<path d="M404.774 31.064L404.539 96.7239L404.426 96.6752L404.24 146.727L406.075 149.434L434.664 149.54L435.077 31.291L404.774 31.064Z" stroke="white" stroke-miterlimit="10"/>
</g>
<g style="mix-blend-mode:overlay" opacity="0.4">
<path d="M404.46 96.5932L404.275 146.645L363.051 86.842L362.826 149.165L332.435 149.054L332.855 30.789L361.168 30.911L404.46 96.5932Z" stroke="white" stroke-miterlimit="10"/>
</g>
<g style="mix-blend-mode:overlay" opacity="0.4">
<path d="M453.741 31.2503L453.552 83.2786L484.229 83.3967L484.313 57.8969L539.3 58.1104L539.394 31.5587L453.741 31.2503Z" stroke="white" stroke-miterlimit="10"/>
</g>
<g style="mix-blend-mode:overlay" opacity="0.4">
<path d="M532.028 83.6192L531.923 109.033L484.141 108.857L483.987 149.61L453.327 149.499L453.568 83.2851L484.228 83.3963L484.224 83.4519L532.028 83.6192Z" stroke="white" stroke-miterlimit="10"/>
</g>
<g style="mix-blend-mode:overlay" opacity="0.4">
<path d="M557.782 31.628L557.369 149.877L588.038 150.011L588.474 31.7531L557.782 31.628Z" stroke="white" stroke-miterlimit="10"/>
</g>
<g style="mix-blend-mode:overlay" opacity="0.4">
<path d="M643.92 123.692L588.113 123.481L588.018 150.022L643.824 150.232L643.92 123.692Z" stroke="white" stroke-miterlimit="10"/>
</g>
<g style="mix-blend-mode:overlay" opacity="0.4">
<path d="M636.083 77.639L588.289 77.459L588.198 102.729L635.992 102.909L636.083 77.639Z" stroke="white" stroke-miterlimit="10"/>
</g>
<g style="mix-blend-mode:overlay" opacity="0.4">
<path d="M643.44 31.9835L588.445 31.7764L588.35 58.3166L643.344 58.5238L643.44 31.9835Z" stroke="white" stroke-miterlimit="10"/>
</g>
<g style="mix-blend-mode:overlay" opacity="0.4">
<path d="M752.652 58.0371C751.444 54.8817 749.842 51.8916 747.884 49.1379C745.522 45.7752 742.68 42.7773 739.447 40.24C735.49 37.1711 731.022 34.8259 726.248 33.3125C719.989 31.389 713.463 30.4766 706.916 30.6096C698.317 30.3692 689.767 31.9803 681.845 35.3336C675.271 38.0872 669.626 42.6705 665.582 48.5385C661.89 54.0674 659.902 60.5576 659.862 67.2057L689.945 67.3191C689.899 67.0513 689.88 66.7796 689.89 66.508C689.927 64.6995 690.452 62.9346 691.408 61.3993C692.655 59.4895 694.446 57.997 696.549 57.1142C699.596 55.8181 702.896 55.2251 706.204 55.3793C709.689 55.242 713.162 55.8727 716.377 57.2267C718.532 58.2159 720.458 59.6432 722.031 61.4178C723.411 63.2056 724.435 65.2416 725.048 67.4153L755.249 67.5217C754.684 64.2855 753.815 61.1098 752.652 58.0371Z" stroke="white" stroke-miterlimit="10"/>
</g>
<g style="mix-blend-mode:overlay" opacity="0.4">
<path d="M758.384 114.217C758.453 121.199 756.422 128.041 752.556 133.855C748.395 139.832 742.611 144.493 735.887 147.289C727.47 150.732 718.418 152.348 709.33 152.029C702.219 152.166 695.13 151.18 688.325 149.108C683.145 147.508 678.29 145.003 673.983 141.71C670.488 138.994 667.442 135.744 664.958 132.079C662.947 129.077 661.303 125.845 660.061 122.453C658.92 119.122 658.068 115.699 657.515 112.222L688.539 112.335C689.233 115.008 690.391 117.538 691.958 119.811C693.717 122.034 695.975 123.812 698.549 124.999C702.365 126.689 706.517 127.484 710.687 127.324C716.981 127.336 721.371 126.146 723.879 123.746C725.02 122.795 725.947 121.614 726.602 120.28C727.257 118.947 727.623 117.49 727.678 116.006C727.722 114.836 727.497 113.671 727.02 112.601C726.543 111.531 725.828 110.585 724.928 109.835C722.028 107.911 718.705 106.716 715.244 106.354L699.453 103.768C692.808 102.631 686.319 100.718 680.119 98.0687C674.339 95.7225 669.268 91.9137 665.405 87.0163C661.607 82.2003 659.725 75.9149 659.76 68.1603C659.756 67.8399 659.771 67.5196 659.806 67.2011L689.889 67.3144C689.985 68.6162 690.439 69.8661 691.202 70.9254C691.964 71.9846 693.006 72.8117 694.211 73.3147C697.613 74.9159 701.231 76.0144 704.949 76.5758L721.574 79.3659C727.908 80.3795 734.062 82.3069 739.842 85.0878C745.201 87.6479 749.83 91.5147 753.303 96.3321C756.848 101.606 758.627 107.868 758.384 114.217V114.217Z" stroke="white" stroke-miterlimit="10"/>
</g>
<g style="mix-blend-mode:overlay" opacity="0.4">
<path d="M800.937 32.547L800.801 59.0616L800.475 150.775L831.151 150.893L831.564 32.6442L800.937 32.547Z" stroke="white" stroke-miterlimit="10"/>
</g>
<g style="mix-blend-mode:overlay" opacity="0.4">
<path d="M867.507 32.8019L831.68 32.667L831.584 59.2073L867.412 59.3422L867.507 32.8019Z" stroke="white" stroke-miterlimit="10"/>
</g>
<g style="mix-blend-mode:overlay" opacity="0.4">
<path d="M800.932 32.5692L765.192 32.4346L765.097 58.9748L800.836 59.1094L800.932 32.5692Z" stroke="white" stroke-miterlimit="10"/>
</g>
<g style="mix-blend-mode:overlay" opacity="0.4">
<path d="M98.6466 104.574C97.7175 107.715 96.2992 110.69 94.4438 113.39C92.4165 115.994 89.8032 118.084 86.8162 119.488C82.5417 121.434 77.8643 122.331 73.1729 122.105C67.18 122.281 61.3017 120.436 56.4834 116.868C52.0274 113.468 48.5664 108.933 46.4622 103.739C46.1638 103.005 45.9086 102.254 45.6978 101.491L11.6683 101.355C12.2855 104.308 13.0901 107.218 14.0772 110.068C16.639 117.544 20.6091 124.461 25.7728 130.444C31.153 136.658 37.8294 141.618 45.3324 144.976C53.9596 148.764 63.3058 150.637 72.7263 150.464C80.4518 150.674 88.1574 149.584 95.5213 147.241C101.274 145.349 106.646 142.452 111.385 138.684C115.3 135.555 118.694 131.827 121.442 127.637C123.722 124.181 125.616 120.486 127.089 116.618C128.385 113.06 129.366 109.394 130.02 105.664C130.145 105.372 130.157 105.031 130.201 104.704L98.6466 104.574Z" stroke="white" stroke-miterlimit="10"/>
</g>
<g style="mix-blend-mode:overlay" opacity="0.4">
<path d="M130.362 70.3854L98.7935 70.2879C97.8785 67.1322 96.4812 64.1367 94.6511 61.4075C92.6625 58.7407 90.0569 56.5956 87.0577 55.156C82.7966 53.1814 78.126 52.2514 73.4338 52.4432C67.453 52.198 61.563 53.9649 56.7056 57.4617C52.2268 60.7814 48.739 65.2603 46.6182 70.4159C44.4146 75.6837 43.2946 81.3415 43.3251 87.0518C43.2786 91.9845 44.1016 96.887 45.7563 101.534L11.7268 101.399C10.7214 96.6508 10.2226 91.8094 10.2387 86.9561C10.2654 79.1187 11.6497 71.3454 14.33 63.9809C16.9381 56.5551 20.9641 49.7067 26.1843 43.8163C31.6123 37.6845 38.2953 32.7911 45.7805 29.4677C54.4353 25.7536 63.7899 23.9497 73.206 24.1791C80.9565 24.037 88.6754 25.2051 96.0371 27.6338C101.771 29.5457 107.109 32.4854 111.79 36.3091C115.689 39.4735 119.068 43.2289 121.804 47.4389C124.057 50.9523 125.928 54.6961 127.386 58.6067C128.719 62.4387 129.715 66.3799 130.362 70.3854V70.3854Z" stroke="white" stroke-miterlimit="10"/>
</g>
</svg>
