<svg width="351" height="961" viewBox="0 0 351 961" fill="none" xmlns="http://www.w3.org/2000/svg">
<path d="M323.36 7.95596H339.272V0H323.36C322.349 0.0645666 321.4 0.511763 320.707 1.25068C320.013 1.9896 319.628 2.96478 319.628 3.97798C319.628 4.99118 320.013 5.96636 320.707 6.70528C321.4 7.4442 322.349 7.89139 323.36 7.95596Z" fill="white"/>
<path d="M308.147 44.1555C309.453 44.3097 310.776 44.2048 312.041 43.847C313.682 43.3887 315.217 42.6112 316.558 41.559C317.898 40.5069 319.018 39.2007 319.853 37.7153C320.689 36.2298 321.223 34.5943 321.425 32.9022C321.628 31.2101 321.495 29.4947 321.034 27.854C319.808 23.6277 316.965 20.0556 313.121 17.9137C309.277 15.7717 304.743 15.2329 300.504 16.4143C295.099 18.0237 290.536 21.6803 287.788 26.6048C285.039 31.5293 284.323 37.3325 285.791 42.7776C286.678 46.9492 288.889 50.7228 292.094 53.5367C293.712 54.8705 295.038 56.5223 295.992 58.3898C296.945 60.2572 297.505 62.3006 297.636 64.3931C297.9 66.1626 297.735 67.9697 297.154 69.6619C296.573 71.354 295.593 72.8815 294.298 74.1153C291.926 76.0983 288.914 77.1521 285.823 77.0805C285.139 77.0632 284.457 76.9983 283.782 76.8861C282.055 78.1216 280.013 78.8415 277.893 78.962C275.773 79.0824 273.663 78.5986 271.807 77.5666C269.654 76.3545 268.071 74.337 267.406 71.9577C266.74 69.5785 267.047 67.0323 268.259 64.8792C268.756 63.9798 269.428 63.1886 270.235 62.5515C271.042 61.9144 271.967 61.4443 272.958 61.1686C274.956 60.6102 277.095 60.8666 278.904 61.8816C280.394 62.7395 281.497 64.1378 281.983 65.7866C282.218 66.6257 282.284 67.5029 282.178 68.3678C282.073 69.2326 281.797 70.068 281.367 70.8259C281.127 71.2557 280.725 71.5722 280.251 71.7059C279.777 71.8397 279.269 71.7796 278.84 71.5389C278.41 71.2983 278.093 70.8967 277.96 70.4227C277.826 69.9486 277.886 69.4409 278.127 69.0112C278.319 68.6753 278.442 68.3047 278.489 67.9208C278.536 67.5369 278.507 67.1474 278.402 66.7751C278.3 66.4023 278.124 66.0539 277.885 65.7505C277.645 65.4471 277.347 65.1949 277.009 65.0089C276.536 64.7396 276.015 64.5667 275.476 64.4999C274.936 64.4332 274.389 64.474 273.865 64.62C272.806 64.9169 271.909 65.6222 271.37 66.5806C271.003 67.2232 270.768 67.9326 270.679 68.6672C270.59 69.4018 270.649 70.1467 270.851 70.8584C271.05 71.574 271.389 72.2432 271.848 72.8272C272.306 73.4113 272.876 73.8986 273.525 74.2611C275.259 75.2333 277.308 75.4773 279.222 74.9395C281.137 74.4018 282.759 73.1262 283.733 71.3931C286.309 66.8723 284.689 61.3144 279.828 57.8793C279.089 57.3602 278.48 56.6781 278.047 55.8857C277.615 55.0933 277.37 54.212 277.333 53.3099C277.288 52.3564 277.454 51.4047 277.819 50.5229C275.373 49.8219 272.759 49.9996 270.43 51.0252C268.133 51.8901 266.084 53.3058 264.462 55.1478C262.841 56.9899 261.696 59.202 261.129 61.5899C258.391 74.65 265.245 81.5689 272.974 88.5203C276.749 91.3883 283.02 93.0897 289.502 92.8142C297.49 92.4253 304.263 89.3953 308.087 84.3235C316.918 72.5921 314.39 58.3168 301.152 45.1757C298.739 43.3918 296.979 40.8638 296.145 37.9813C295.332 35.0892 295.699 31.9925 297.166 29.3708C298.633 26.7492 301.081 24.8167 303.971 23.9976C306.376 23.3131 308.954 23.6113 311.138 24.8267C313.323 26.042 314.935 28.0751 315.622 30.479C315.747 30.9494 315.683 31.4502 315.444 31.8741C315.205 32.298 314.809 32.6115 314.342 32.7475C313.869 32.869 313.368 32.8038 312.943 32.5654C312.517 32.327 312.2 31.9337 312.057 31.4674C311.858 30.7413 311.516 30.0622 311.051 29.4696C310.586 28.877 310.009 28.3829 309.351 28.0161C308.018 27.2746 306.446 27.0884 304.976 27.4976C303.028 28.0525 301.379 29.356 300.389 31.123C299.399 32.8901 299.149 34.9771 299.694 36.9281C300.049 38.1938 300.65 39.3771 301.463 40.4102C302.276 41.4433 303.285 42.3058 304.432 42.9485C305.579 43.5912 306.841 44.0013 308.147 44.1555Z" fill="white"/>
<path d="M238.235 154.042H267.305C268.426 152.929 269.767 152.063 271.242 151.498H226.731V173.519C228.428 172.486 229.831 171.034 230.807 169.304C231.783 167.573 232.298 165.622 232.305 163.635L232.143 160.297L235.06 161.917C236.703 162.621 238.515 162.835 240.277 162.533C240.114 160.48 239.718 158.452 239.094 156.489L238.235 154.042Z" fill="white"/>
<path d="M279.469 151.498H331.888V173.519C330.178 172.491 328.761 171.04 327.773 169.306C326.786 167.573 326.261 165.614 326.249 163.619L326.427 160.281L323.51 161.901C321.865 162.596 320.055 162.81 318.293 162.517C318.437 160.461 318.835 158.431 319.476 156.473L320.334 154.026H283.406C282.29 152.911 280.948 152.049 279.469 151.498Z" fill="white"/>
<path d="M275.409 161.274L274.356 162.019C274.356 162.019 272.169 163.64 268.944 165.957C268.205 164.765 267.812 163.39 267.81 161.987C267.81 159.972 268.611 158.039 270.036 156.613C271.461 155.188 273.394 154.388 275.409 154.388C277.425 154.388 279.358 155.188 280.783 156.613C282.208 158.039 283.009 159.972 283.009 161.987C283.007 163.39 282.614 164.765 281.875 165.957C279.909 164.512 278.36 163.389 277.435 162.718L277.419 162.706C276.835 162.283 276.498 162.038 276.479 162.019L275.409 161.274Z" fill="white"/>
<path d="M244.368 186.65C246.644 184.972 249.492 184.266 252.288 184.689C255.084 185.111 257.597 186.627 259.275 188.902L260.361 190.376L275.365 179.504L290.386 190.376L291.456 188.902C293.137 186.626 295.653 185.11 298.451 184.687C301.249 184.265 304.101 184.971 306.379 186.65C308.119 187.939 309.276 189.865 309.598 192.006C309.92 194.148 309.38 196.329 308.097 198.073C307.121 199.382 305.668 200.253 304.053 200.496C302.439 200.739 300.794 200.334 299.476 199.369C298.504 198.649 297.857 197.572 297.678 196.375C297.499 195.178 297.802 193.959 298.52 192.985C298.773 192.638 299.093 192.345 299.46 192.122C299.827 191.9 300.235 191.752 300.659 191.689C301.086 191.62 301.523 191.638 301.943 191.741C302.363 191.844 302.759 192.03 303.106 192.288C303.501 192.538 303.975 192.628 304.434 192.542C304.893 192.456 305.302 192.199 305.579 191.823C305.856 191.448 305.981 190.981 305.928 190.517C305.875 190.053 305.648 189.627 305.294 189.323C303.807 188.233 301.95 187.776 300.128 188.053C298.306 188.329 296.667 189.316 295.571 190.798C294.925 191.667 294.458 192.656 294.197 193.708C293.935 194.759 293.885 195.852 294.048 196.923C294.211 197.931 294.551 198.902 295.053 199.791C293.264 200.327 291.431 200.707 289.576 200.925V195.367L275.382 184.624L261.106 195.367V200.925C259.252 200.703 257.42 200.324 255.629 199.791C256.145 198.908 256.486 197.934 256.634 196.923C256.803 195.852 256.755 194.758 256.493 193.706C256.232 192.654 255.762 191.665 255.111 190.798C254.571 190.061 253.891 189.437 253.109 188.964C252.327 188.491 251.46 188.176 250.556 188.039C249.653 187.902 248.731 187.945 247.844 188.166C246.958 188.386 246.123 188.779 245.389 189.323C245.174 189.459 244.99 189.637 244.847 189.847C244.705 190.057 244.607 190.294 244.56 190.543C244.513 190.793 244.518 191.049 244.575 191.297C244.631 191.544 244.738 191.777 244.889 191.981C245.04 192.186 245.231 192.357 245.45 192.484C245.67 192.611 245.914 192.691 246.166 192.72C246.418 192.749 246.673 192.725 246.916 192.651C247.159 192.577 247.384 192.453 247.576 192.288C247.921 192.032 248.314 191.847 248.731 191.744C249.149 191.642 249.582 191.623 250.007 191.689C250.432 191.752 250.839 191.9 251.206 192.122C251.574 192.345 251.893 192.638 252.146 192.985C252.864 193.959 253.167 195.178 252.988 196.375C252.809 197.572 252.162 198.649 251.19 199.369C249.872 200.336 248.224 200.741 246.608 200.495C244.992 200.249 243.54 199.372 242.569 198.057C241.93 197.193 241.469 196.21 241.214 195.166C240.958 194.123 240.912 193.038 241.08 191.977C241.247 190.915 241.624 189.897 242.189 188.983C242.753 188.068 243.494 187.275 244.368 186.65Z" fill="white"/>
<path d="M243.276 226.56C244.41 227.58 245.486 228.662 246.5 229.801V213.598C245.769 212.985 244.884 212.586 243.94 212.443C242.997 212.3 242.033 212.419 241.153 212.787C240.191 213.211 239.372 213.905 238.797 214.786C238.222 215.666 237.914 216.694 237.913 217.746C237.913 221.5 240.413 223.859 243.276 226.56Z" fill="white"/>
<path d="M275.339 189.245L285.839 197.201V204.93L287.816 204.784C289.284 204.688 290.745 204.504 292.191 204.233V233.4H258.503V204.233C259.944 204.503 261.4 204.687 262.862 204.784L264.839 204.93V197.201L275.339 189.245Z" fill="white"/>
<path d="M275.326 174.971L289.634 185.325C291.326 183.548 293.455 182.246 295.807 181.549C290.784 177.385 285.68 173.431 281.694 170.45C281.343 170.384 281.017 170.221 280.754 169.98C280.631 169.843 280.528 169.691 280.446 169.526C278.242 167.873 276.428 166.561 275.374 165.799C272.377 167.954 263.513 174.436 254.958 181.549C257.288 182.255 259.394 183.556 261.067 185.325L275.326 174.971Z" fill="white"/>
<path d="M300.56 239.816H250.151V203.893C251.095 203.631 251.996 203.232 252.825 202.71C253.327 202.905 253.975 203.131 254.818 203.391V237.046H295.878V203.391C296.736 203.131 297.401 202.888 297.887 202.694C298.717 203.218 299.617 203.622 300.56 203.893V239.816Z" fill="white"/>
<path d="M235.897 166.07C238.134 166.463 240.427 166.396 242.637 165.875L243.982 165.535V164.142C244.031 161.959 243.791 159.78 243.269 157.66H264.885C264.191 159.35 263.92 161.184 264.095 163.002C264.27 164.821 264.886 166.569 265.89 168.095C261.304 171.563 255.422 176.197 249.929 180.831C247.113 180.96 244.4 181.924 242.135 183.602C241.155 184.346 240.297 185.237 239.591 186.243C234.921 184.115 230.732 181.061 227.276 177.267C229.494 176.211 231.43 174.647 232.928 172.701C234.426 170.755 235.443 168.483 235.897 166.07Z" fill="white"/>
<path d="M284.335 110.548C283.509 102.981 277.854 97.8282 271.843 92.4486L270.87 91.5088C264.94 87.863 257.988 87.6848 253.921 91.1037C253.172 91.7321 252.555 92.5024 252.105 93.3702C251.654 94.2379 251.38 95.1862 251.297 96.1604C251.214 97.1346 251.325 98.1155 251.622 99.0469C251.919 99.9782 252.398 100.842 253.03 101.587C253.984 102.717 255.346 103.423 256.819 103.55C258.292 103.678 259.755 103.217 260.889 102.268C261.72 101.566 262.24 100.563 262.334 99.4793C262.428 98.3953 262.089 97.3181 261.391 96.4833C260.894 95.894 260.183 95.5257 259.415 95.4589C258.647 95.3921 257.883 95.6322 257.292 96.1268C257.108 96.2959 256.893 96.4262 256.658 96.5097C256.423 96.5932 256.173 96.6283 255.925 96.6128C255.676 96.5973 255.432 96.5316 255.21 96.4196C254.987 96.3077 254.789 96.1517 254.628 95.9613C254.467 95.7708 254.346 95.5497 254.273 95.3113C254.2 95.0729 254.176 94.8222 254.202 94.5742C254.229 94.3262 254.305 94.0861 254.426 93.8684C254.548 93.6507 254.712 93.4599 254.91 93.3074C256.252 92.1839 257.984 91.6383 259.728 91.7901C261.471 91.942 263.083 92.779 264.211 94.1176C265.537 95.6999 266.181 97.7436 266.001 99.8002C265.822 101.857 264.834 103.758 263.255 105.087C261.592 106.492 259.485 107.261 257.308 107.259H256.498C255.287 107.162 254.108 106.825 253.029 106.269C251.95 105.713 250.992 104.947 250.211 104.018C249.265 102.906 248.549 101.617 248.107 100.226C247.665 98.8353 247.504 97.3701 247.634 95.9162C247.687 95.2855 247.801 94.6614 247.975 94.0528C246.662 93.5545 245.237 93.4311 243.859 93.6963C246.289 100.421 244.475 105.59 238.56 109.106V110.499H276.914C275.694 106.662 273.4 103.254 270.303 100.68C269.971 100.356 269.772 99.9188 269.747 99.4552C269.723 98.9916 269.873 98.5357 270.17 98.1782C270.466 97.8206 270.886 97.5878 271.346 97.526C271.806 97.4641 272.273 97.5778 272.653 97.8444C276.611 101.132 279.443 105.573 280.755 110.548H284.335Z" fill="white"/>
<path d="M315.025 46.639C317.554 45.5791 319.781 43.909 321.507 41.778V54.9191C319.776 51.8481 317.591 49.0566 315.025 46.639Z" fill="white"/>
<path d="M234.895 107.374V114.228H321.535V117.258H228.689C227.154 114.851 226.475 111.997 226.761 109.156C226.955 105.673 228.154 102.967 230.001 101.751C231.849 100.536 234.182 100.504 235.446 102.075C236.022 102.74 236.328 103.596 236.304 104.474C236.28 105.353 235.927 106.191 235.316 106.823L234.895 107.374Z" fill="white"/>
<path d="M325.218 11.6334H339.283V117.248H325.218V11.6334Z" fill="white"/>
<path d="M321.542 110.495H288.049C288.049 110.025 288.049 109.523 287.92 109.069C291.711 108.94 299.538 108.389 305.387 105.942C305.814 105.737 306.145 105.375 306.313 104.933C306.481 104.49 306.472 104 306.289 103.564C306.107 103.127 305.763 102.777 305.33 102.587C304.897 102.396 304.407 102.379 303.961 102.539C298.306 104.905 290.172 105.326 287.012 105.407C286.694 104.534 286.315 103.684 285.878 102.863H286.721C294.927 102.948 303.006 100.833 310.119 96.7383C310.534 96.4834 310.832 96.0747 310.947 95.6012C311.062 95.1278 310.986 94.6279 310.734 94.2105C310.61 94.0033 310.445 93.8228 310.25 93.6795C310.055 93.5362 309.834 93.4329 309.599 93.3756C309.364 93.3184 309.12 93.3083 308.881 93.3459C308.642 93.3835 308.413 93.4681 308.207 93.5948C298.112 99.7198 286.51 99.2823 283.529 99.0392C282.625 97.8528 281.656 96.7168 280.628 95.6365C283.123 96.1922 285.671 96.4747 288.228 96.479H289.718C298.808 96.1226 306.602 92.493 311.091 86.5138C319.808 74.9283 318.739 60.815 308.498 47.8035C309.243 47.8601 309.99 47.8601 310.734 47.8035C312.938 49.5697 321.542 57.1529 321.542 68.6413V110.495Z" fill="white"/>
<path d="M335.46 175.383H338.847V168.157H345.393V159.099H340.321V157.268C340.321 150.219 347.645 147.708 350.999 146.979V140.497H344.518V127.68C340.942 128.364 337.624 130.02 334.928 132.467C332.233 134.914 330.264 138.057 329.238 141.55L328.849 142.879H285.942L285.618 141.437C283.56 132.25 277.095 130.5 275.766 130.24C274.47 130.5 267.972 132.266 265.914 141.437L265.59 142.879H228.517C226.848 142.988 225.196 142.491 223.865 141.479C222.534 140.466 221.614 139.007 221.274 137.37C219.933 136.978 218.735 136.207 217.822 135.15C216.75 133.911 216.213 132.298 216.329 130.664C216.444 129.03 217.203 127.508 218.438 126.432C218.811 126.116 219.294 125.959 219.782 125.995C220.27 126.031 220.725 126.258 221.047 126.627C221.205 126.809 221.326 127.022 221.402 127.251C221.478 127.48 221.508 127.723 221.489 127.964C221.471 128.205 221.406 128.44 221.296 128.655C221.187 128.871 221.036 129.063 220.852 129.219C220.602 129.432 220.397 129.693 220.249 129.986C220.101 130.279 220.013 130.599 219.99 130.926C219.968 131.254 220.011 131.583 220.117 131.894C220.223 132.204 220.391 132.491 220.609 132.736C220.904 133.085 221.264 133.372 221.67 133.58C222.076 133.789 222.52 133.915 222.975 133.951H223.169C224.078 133.994 224.968 133.68 225.649 133.076C226.146 132.658 226.554 132.144 226.849 131.565C227.145 130.986 227.321 130.354 227.368 129.706C227.415 129.058 227.331 128.407 227.122 127.792C226.913 127.177 226.583 126.61 226.151 126.125C225.581 125.467 224.886 124.928 224.108 124.539C223.329 124.15 222.482 123.918 221.614 123.856C220.745 123.794 219.874 123.904 219.048 124.179C218.222 124.455 217.459 124.89 216.801 125.46L216.04 126.125L215.084 125.833C213.837 125.502 212.722 124.797 211.89 123.811C211.059 122.826 210.55 121.608 210.433 120.324C210.352 119.367 210.472 118.403 210.788 117.496C211.103 116.588 211.606 115.757 212.264 115.058C210.445 114.66 208.545 114.865 206.852 115.641C205.584 116.076 204.468 116.869 203.64 117.924C202.812 118.98 202.307 120.252 202.186 121.588C202.186 125.671 202.186 130.111 212.459 132.152L213.933 132.444V140.546H207.452V147.027C210.806 147.756 218.13 150.187 218.13 157.316V159.099H213.058V168.14H219.669V175.302H223.056V147.756H335.46V175.383Z" fill="white"/>
<path d="M221.009 241.742C219.13 241.403 217.462 240.332 216.371 238.765C215.281 237.197 214.856 235.261 215.191 233.381C215.451 231.977 216.258 230.733 217.433 229.922C218.608 229.111 220.057 228.799 221.462 229.055C221.976 229.141 222.467 229.328 222.908 229.605C223.349 229.881 223.73 230.242 224.032 230.667C224.333 231.091 224.547 231.571 224.662 232.079C224.777 232.586 224.791 233.111 224.703 233.624C224.659 233.863 224.662 234.108 224.713 234.345C224.765 234.582 224.862 234.806 225.001 235.005C225.14 235.204 225.317 235.374 225.521 235.504C225.726 235.634 225.955 235.722 226.194 235.763C226.672 235.843 227.164 235.732 227.561 235.453C227.958 235.174 228.229 234.75 228.316 234.272C228.671 232.285 228.223 230.239 227.072 228.581C225.922 226.923 224.161 225.788 222.175 225.425C219.81 225 217.372 225.531 215.398 226.901C213.423 228.271 212.073 230.369 211.643 232.733C211.231 235.066 211.592 237.47 212.671 239.578C213.75 241.687 215.489 243.386 217.622 244.416L204.497 249.52C204.296 248.567 203.94 247.653 203.444 246.814C202.181 244.723 200.269 243.101 198 242.196C199.035 240.646 199.504 238.786 199.328 236.93C199.122 235.611 198.644 234.349 197.925 233.225C197.205 232.101 196.259 231.139 195.148 230.4C196.249 229.689 197.481 229.202 198.771 228.969C200.061 228.735 201.385 228.759 202.666 229.039C203.877 230.384 204.759 231.993 205.243 233.738C205.352 234.126 205.586 234.467 205.907 234.71C206.229 234.953 206.622 235.084 207.025 235.083C207.186 235.107 207.35 235.107 207.511 235.083C207.744 235.021 207.963 234.913 208.154 234.766C208.345 234.619 208.505 234.435 208.624 234.225C208.743 234.015 208.819 233.784 208.848 233.545C208.877 233.305 208.857 233.062 208.791 232.83C208.414 231.559 207.869 230.344 207.171 229.217V217.275C207.195 217.019 207.165 216.761 207.084 216.517C207.002 216.273 206.871 216.049 206.698 215.858C206.524 215.668 206.314 215.516 206.078 215.412C205.843 215.309 205.589 215.255 205.332 215.255C205.075 215.255 204.82 215.309 204.585 215.412C204.35 215.516 204.139 215.668 203.966 215.858C203.793 216.049 203.661 216.273 203.58 216.517C203.498 216.761 203.468 217.019 203.493 217.275V224.664C202.646 223.956 201.741 223.322 200.787 222.768V206.094C200.811 205.838 200.781 205.58 200.699 205.336C200.618 205.092 200.486 204.868 200.313 204.678C200.14 204.488 199.929 204.336 199.694 204.232C199.459 204.128 199.205 204.074 198.947 204.074C198.69 204.074 198.436 204.128 198.201 204.232C197.966 204.336 197.755 204.488 197.582 204.678C197.408 204.868 197.277 205.092 197.195 205.336C197.114 205.58 197.084 205.838 197.108 206.094V220.985C196.051 220.585 194.968 220.255 193.868 219.997V195.627C193.987 194.301 194.387 193.017 195.041 191.857C195.695 190.698 196.587 189.691 197.659 188.902C199.522 187.318 201.7 186.146 204.049 185.465C206.398 184.783 208.865 184.607 211.286 184.949C213.453 185.293 215.397 186.474 216.7 188.238C218.004 190.002 218.562 192.208 218.254 194.379C217.998 196.018 217.105 197.489 215.77 198.472C214.435 199.455 212.765 199.871 211.124 199.629C210.522 199.538 209.943 199.329 209.422 199.014C208.9 198.7 208.446 198.285 208.085 197.794C207.723 197.304 207.463 196.747 207.317 196.155C207.171 195.564 207.144 194.949 207.236 194.347C207.296 193.895 207.447 193.46 207.682 193.069C207.916 192.678 208.229 192.339 208.599 192.074C208.97 191.808 209.39 191.621 209.836 191.524C210.281 191.428 210.742 191.423 211.189 191.511C211.433 191.543 211.681 191.526 211.918 191.462C212.155 191.397 212.377 191.287 212.572 191.136C212.766 190.985 212.929 190.798 213.05 190.584C213.172 190.37 213.249 190.135 213.279 189.891C213.318 189.646 213.306 189.396 213.245 189.156C213.183 188.916 213.073 188.691 212.921 188.495C212.769 188.299 212.579 188.137 212.362 188.017C212.145 187.898 211.906 187.824 211.659 187.801C209.816 187.526 207.94 187.992 206.44 189.098C204.94 190.203 203.938 191.857 203.655 193.699C203.429 195.22 203.631 196.774 204.237 198.188C204.844 199.602 205.831 200.819 207.09 201.703C206.83 207.828 210.476 215.395 221.673 219.624C227.474 221.828 233.21 226.738 231.914 233.965C231.661 235.322 231.111 236.606 230.304 237.727C229.498 238.847 228.454 239.776 227.247 240.446L224.492 241.515C223.357 241.817 222.174 241.895 221.009 241.742Z" fill="white"/>
<path d="M321.25 307.417C323.567 317.349 333.872 322.599 337.453 324.139V368.131C333.905 369.752 323.567 374.953 321.25 384.918C317.28 385.421 306.666 387.932 303.426 399.842L295.162 393.522V346.224C296.848 346.101 298.488 345.617 299.97 344.803C301.452 343.989 302.741 342.866 303.75 341.509C306 338.447 306.945 334.618 306.377 330.861C305.809 327.104 303.775 323.725 300.72 321.465C297.924 319.383 294.562 318.202 291.079 318.079C284.046 312.067 276.495 306.201 270.678 301.875C272.614 299.194 273.492 295.892 273.146 292.604C272.799 289.315 271.251 286.27 268.799 284.051H300.72C300.93 291.148 303.069 296.836 307.201 300.919C311.021 304.601 315.97 306.89 321.25 307.417Z" fill="white"/>
<path d="M212.478 402.159L223.821 393.441L223.886 389.406C223.879 388.4 223.748 387.399 223.497 386.425L201.654 394.932C200.365 395.662 198.98 396.207 197.539 396.552L170.673 407.02C170.544 407.327 170.544 407.635 170.544 407.943C170.183 409.398 169.538 410.768 168.645 411.972C167.753 413.176 166.63 414.192 165.342 414.959C164.574 415.411 163.744 415.749 162.879 415.964V422.251H172.601L212.478 408.64V402.159Z" fill="white"/>
<path d="M160.981 464.932C162.034 473.228 170.33 476.907 174.851 477.701L177.006 478.073V466.066H195.251V474.038H190.39V486.629H195.251V494.617H182.823C180.428 494.652 178.123 495.536 176.319 497.111C174.514 498.687 173.328 500.852 172.972 503.221H171.351V534.77L173.425 534.51C174.846 534.291 176.238 533.911 177.573 533.376V538.982H164.724C166.084 537.255 167.177 535.332 167.965 533.279L168.775 530.848H161.856C165.364 528.23 167.749 524.38 168.532 520.073C170.395 509.67 163.768 499.98 151.631 495.395C136.805 489.788 134.407 480.731 134.277 475.951C134.409 475.951 134.535 475.994 134.669 476.04C134.765 476.074 134.865 476.108 134.974 476.129C138.391 476.636 141.87 475.77 144.651 473.721C147.432 471.672 149.289 468.605 149.817 465.191C150.134 462.944 149.96 460.662 149.314 458.5C151.091 462.601 154.91 464.613 160.981 464.932Z" fill="white"/>
<path d="M148.78 456.992C148.931 457.523 149.109 458.025 149.314 458.5C149.162 457.99 148.984 457.487 148.78 456.992Z" fill="white"/>
<path d="M198.947 466.052H304.254V474.04H198.947V466.052Z" fill="white"/>
<path d="M304.254 486.634H198.947V494.622H304.254V486.634Z" fill="white"/>
<path d="M185.442 389.318C186.87 391.373 189.053 392.78 191.515 393.23C193.003 393.544 194.536 393.577 196.036 393.327L199.488 391.982C201.067 391.111 202.434 389.9 203.49 388.438C204.547 386.976 205.266 385.297 205.596 383.524C207.265 374.223 199.941 367.904 192.536 365.1C178.617 359.851 174.161 350.42 174.583 342.885C173.03 341.83 171.807 340.358 171.056 338.637C170.305 336.917 170.056 335.019 170.337 333.163C170.673 330.987 171.857 329.032 173.631 327.726C175.404 326.42 177.622 325.87 179.8 326.196C180.047 326.223 180.285 326.301 180.501 326.422C180.717 326.544 180.906 326.708 181.058 326.905C181.209 327.102 181.319 327.327 181.381 327.567C181.444 327.807 181.457 328.057 181.421 328.302C181.333 328.776 181.069 329.2 180.68 329.486C180.292 329.772 179.809 329.899 179.33 329.841C178.729 329.747 178.115 329.772 177.523 329.916C176.932 330.06 176.375 330.319 175.884 330.679C175.393 331.039 174.978 331.493 174.663 332.013C174.348 332.534 174.139 333.112 174.048 333.714C173.801 335.353 174.213 337.023 175.194 338.359C176.175 339.695 177.644 340.588 179.282 340.844C181.452 341.174 183.664 340.629 185.433 339.328C187.201 338.028 188.381 336.078 188.712 333.909C189.117 331.075 188.391 328.196 186.69 325.895C184.988 323.593 182.449 322.054 179.622 321.61C176.535 321.179 173.392 321.405 170.398 322.273C167.405 323.142 164.629 324.633 162.252 326.649C160.87 327.682 159.722 328.996 158.884 330.504C158.046 332.012 157.537 333.68 157.391 335.399V366.186C159.049 366.564 160.675 367.073 162.252 367.709V348.443C162.252 347.953 162.446 347.483 162.793 347.137C163.139 346.791 163.609 346.596 164.099 346.596C164.589 346.596 165.059 346.791 165.405 347.137C165.752 347.483 165.946 347.953 165.946 348.443V369.508C167.485 370.386 168.92 371.435 170.224 372.635V362.394C170.224 361.905 170.419 361.435 170.765 361.088C171.111 360.742 171.581 360.547 172.071 360.547C172.561 360.547 173.031 360.742 173.377 361.088C173.724 361.435 173.918 361.905 173.918 362.394V377.237C174.753 378.651 175.406 380.164 175.863 381.742C175.927 381.976 175.944 382.22 175.913 382.461C175.883 382.701 175.805 382.934 175.685 383.144C175.564 383.355 175.404 383.54 175.212 383.688C175.02 383.837 174.801 383.946 174.566 384.01C174.405 384.034 174.242 384.034 174.08 384.01C173.679 384.01 173.289 383.879 172.97 383.636C172.651 383.393 172.421 383.052 172.314 382.665C171.673 380.368 170.502 378.254 168.895 376.492C167.275 376.151 162.236 375.39 158.476 378.63C159.927 379.526 161.167 380.726 162.11 382.147C163.052 383.568 163.676 385.177 163.937 386.862C164.183 389.265 163.512 391.673 162.057 393.603C165.015 394.663 167.52 396.704 169.155 399.387C169.839 400.548 170.31 401.821 170.548 403.146L188.372 396.195C185.542 395.078 183.188 393.013 181.71 390.354C180.233 387.694 179.724 384.605 180.27 381.612C180.522 380.207 181.049 378.865 181.82 377.664C182.591 376.463 183.591 375.425 184.763 374.611C185.936 373.797 187.257 373.222 188.652 372.919C190.047 372.616 191.488 372.591 192.893 372.846C195.254 373.276 197.349 374.624 198.718 376.595C200.088 378.566 200.621 380.999 200.201 383.362C200.089 383.818 199.808 384.215 199.414 384.471C199.02 384.727 198.544 384.824 198.082 384.741C197.619 384.659 197.206 384.403 196.925 384.026C196.644 383.65 196.518 383.18 196.571 382.714C196.821 381.313 196.507 379.87 195.696 378.701C194.885 377.532 193.644 376.732 192.245 376.475C191.315 376.303 190.361 376.317 189.437 376.517C188.514 376.718 187.639 377.1 186.865 377.642C186.085 378.172 185.421 378.855 184.911 379.648C184.401 380.442 184.057 381.33 183.9 382.26C183.46 384.724 184.015 387.262 185.442 389.318Z" fill="white"/>
<path d="M269.369 293.993C269.363 296 268.754 297.959 267.619 299.615C263.876 296.83 261.242 294.951 260.626 294.512L260.489 294.414L259.42 293.669L258.351 294.414C258.351 294.414 255.483 296.456 251.237 299.599C250.359 298.315 249.795 296.843 249.59 295.301C249.385 293.759 249.545 292.19 250.057 290.721C250.57 289.253 251.42 287.925 252.539 286.845C253.658 285.764 255.016 284.962 256.502 284.503C257.988 284.043 259.561 283.939 261.095 284.199C262.629 284.459 264.08 285.075 265.332 285.998C266.584 286.922 267.601 288.126 268.303 289.515C269.004 290.903 269.369 292.437 269.369 293.993Z" fill="white"/>
<path d="M337.427 308.642C335.126 307.394 329.714 303.992 328.093 298.612C323.83 298.723 319.676 297.258 316.427 294.496C315.032 293.117 313.93 291.47 313.187 289.655C312.443 287.84 312.074 285.893 312.1 283.932H304.355C304.566 289.976 306.283 294.82 309.605 298.191C313.186 301.549 317.857 303.505 322.762 303.7H324.383L324.61 305.32C325.744 313.147 333.408 317.959 337.427 319.985V308.642Z" fill="white"/>
<path d="M219.046 374.209C215.384 370.757 212.208 367.727 212.208 362.866C212.21 361.467 212.618 360.099 213.383 358.928C214.148 357.757 215.238 356.834 216.518 356.271C217.727 355.759 219.055 355.598 220.351 355.807C221.647 356.016 222.857 356.587 223.842 357.454V379.264C222.378 377.457 220.774 375.766 219.046 374.209Z" fill="white"/>
<path d="M230.692 321.849C227.081 321.306 223.402 322.215 220.46 324.377C219.323 325.21 218.363 326.26 217.634 327.466C216.906 328.672 216.423 330.009 216.213 331.403C216.004 332.796 216.072 334.217 216.414 335.584C216.757 336.95 217.366 338.236 218.207 339.366C218.838 340.224 219.633 340.95 220.545 341.501C221.457 342.052 222.469 342.418 223.522 342.578C224.576 342.737 225.651 342.688 226.685 342.431C227.719 342.175 228.693 341.717 229.55 341.083C230.204 340.608 230.757 340.006 231.174 339.313C231.592 338.619 231.866 337.85 231.98 337.049C232.102 336.25 232.065 335.435 231.87 334.651C231.675 333.866 231.327 333.128 230.846 332.479C230.491 331.998 230.044 331.592 229.532 331.284C229.019 330.976 228.451 330.771 227.86 330.682C227.269 330.594 226.666 330.622 226.086 330.766C225.505 330.911 224.959 331.168 224.478 331.523C224.285 331.688 224.061 331.812 223.818 331.886C223.575 331.96 223.32 331.984 223.068 331.955C222.815 331.926 222.572 331.846 222.352 331.719C222.133 331.592 221.941 331.421 221.791 331.216C221.64 331.012 221.533 330.779 221.477 330.532C221.42 330.284 221.415 330.028 221.462 329.778C221.509 329.529 221.607 329.292 221.749 329.082C221.892 328.872 222.076 328.694 222.291 328.558C223.161 327.915 224.149 327.449 225.199 327.188C226.249 326.927 227.34 326.875 228.411 327.036C229.481 327.197 230.508 327.568 231.435 328.126C232.362 328.685 233.169 329.421 233.811 330.292C234.581 331.33 235.137 332.51 235.448 333.765C235.76 335.019 235.82 336.322 235.626 337.6C235.415 338.998 234.894 340.332 234.103 341.505C236.74 342.323 239.456 342.866 242.205 343.125V335.898L259.462 322.838L276.767 335.801V343.028C279.484 342.764 282.166 342.221 284.772 341.407C283.994 340.228 283.475 338.897 283.249 337.502C283.052 336.224 283.113 334.919 283.427 333.664C283.742 332.409 284.303 331.23 285.08 330.195C285.72 329.324 286.526 328.589 287.452 328.03C288.377 327.472 289.403 327.101 290.472 326.94C291.541 326.779 292.631 326.831 293.68 327.092C294.728 327.352 295.715 327.818 296.584 328.461C296.78 328.603 296.946 328.784 297.072 328.991C297.197 329.198 297.281 329.428 297.317 329.668C297.353 329.907 297.341 330.152 297.282 330.387C297.223 330.622 297.118 330.843 296.973 331.037C296.682 331.429 296.248 331.69 295.765 331.763C295.282 331.836 294.79 331.715 294.397 331.426C293.921 331.065 293.377 330.805 292.798 330.66C292.218 330.515 291.616 330.489 291.026 330.583C290.432 330.668 289.86 330.87 289.345 331.179C288.83 331.488 288.383 331.897 288.029 332.382C287.067 333.699 286.665 335.343 286.911 336.955C287.157 338.567 288.03 340.016 289.341 340.986C290.198 341.619 291.172 342.077 292.206 342.334C293.24 342.59 294.315 342.64 295.369 342.481C296.422 342.321 297.434 341.955 298.346 341.404C299.258 340.853 300.052 340.127 300.684 339.269C302.356 336.994 303.059 334.149 302.636 331.357C302.214 328.566 300.702 326.056 298.431 324.377C295.487 322.226 291.81 321.328 288.206 321.881C284.601 322.434 281.362 324.392 279.198 327.327L278.112 328.801L259.462 315.303L240.811 328.752L239.726 327.278C237.551 324.345 234.302 322.393 230.692 321.849Z" fill="white"/>
<path d="M209.686 284.051H250.195C248.82 285.319 247.722 286.857 246.97 288.569C246.217 290.281 245.825 292.13 245.82 294C245.822 296.802 246.7 299.532 248.331 301.81C242.498 306.201 234.963 312.067 227.915 318.014C224.433 318.143 221.072 319.324 218.274 321.4C217.537 321.951 216.854 322.57 216.232 323.247C213.318 321.8 211.018 319.357 209.751 316.361L209.686 284.051Z" fill="white"/>
<path d="M227.439 395.314L216.129 403.967V408.131H302.769V403.967L291.443 395.314H227.439Z" fill="white"/>
<path d="M291.424 391.646H227.549V345.968C228.885 345.646 230.157 345.098 231.308 344.348C232.289 344.739 233.29 345.08 234.306 345.369V387.287H284.667V345.352C285.979 344.964 287.016 344.607 287.681 344.332C288.823 345.087 290.09 345.636 291.424 345.952V391.646Z" fill="white"/>
<path d="M329.291 397.309C328.804 397.267 322.763 396.746 318.92 400.293C317.906 401.329 317.107 402.555 316.568 403.901C316.028 405.247 315.759 406.685 315.776 408.135H337.408V387.848C335.058 389.42 331.866 392.174 331.348 395.755L331.089 397.522L329.322 397.311L329.291 397.309Z" fill="white"/>
<path d="M277.4 323.727L259.462 310.764L241.541 323.727C239.244 321.231 236.263 319.467 232.969 318.655C244.15 309.306 255.93 300.734 259.462 298.19C263.011 300.734 274.791 309.306 285.971 318.655C282.678 319.467 279.697 321.231 277.4 323.727Z" fill="white"/>
<path d="M273.062 337.73L259.483 327.457L245.888 337.73V347.112L243.928 346.982C241.932 346.844 239.946 346.59 237.981 346.221V383.537H280.985V346.172C279.019 346.539 277.034 346.794 275.038 346.933L273.062 347.063V337.73Z" fill="white"/>
<path d="M322.852 388.37H324.473L324.699 386.75C325.85 378.891 333.498 374.095 337.516 372.167V383.509C335.216 384.757 329.836 388.159 328.183 393.555C323.96 393.432 319.837 394.848 316.581 397.541C315.191 398.924 314.092 400.571 313.349 402.386C312.606 404.2 312.234 406.145 312.255 408.106H306.503V402.483C309.182 388.766 322.202 388.389 322.852 388.37Z" fill="white"/>
<path d="M91.0598 627.547C89.9117 628.303 88.6391 628.852 87.3006 629.167V674.796H151.191V629.151C149.862 628.837 148.6 628.288 147.464 627.53C146.784 627.806 145.763 628.162 144.434 628.551V670.486H94.0574V628.567C93.0397 628.284 92.0389 627.943 91.0598 627.547Z" fill="white"/>
<path d="M135.388 472.448C133.525 472.16 131.852 471.146 130.734 469.628C129.617 468.11 129.146 466.211 129.426 464.346C129.53 463.656 129.77 462.992 130.132 462.394C130.493 461.796 130.969 461.276 131.532 460.862C132.095 460.448 132.733 460.149 133.412 459.982C134.09 459.816 134.795 459.784 135.486 459.89C135.954 459.931 136.42 459.792 136.789 459.502C137.159 459.211 137.403 458.791 137.473 458.326C137.544 457.862 137.434 457.388 137.167 457.001C136.9 456.614 136.496 456.344 136.037 456.244C133.675 455.886 131.268 456.481 129.345 457.897C127.422 459.313 126.139 461.434 125.78 463.795C125.48 465.821 125.763 467.889 126.595 469.76C127.427 471.631 128.774 473.226 130.479 474.36C129.976 482.624 134.854 493.043 150.199 498.844C158.462 501.955 166.629 509.02 164.782 519.422C164.131 523.007 162.085 526.188 159.094 528.269C156.103 530.349 152.409 531.159 148.821 530.522C146.05 530.013 143.593 528.429 141.985 526.117C140.376 523.804 139.747 520.949 140.233 518.175C140.419 517.12 140.811 516.112 141.388 515.21C141.966 514.308 142.716 513.53 143.596 512.919C144.476 512.309 145.468 511.879 146.515 511.655C147.562 511.431 148.643 511.416 149.696 511.612C151.281 511.922 152.68 512.845 153.59 514.179C154.5 515.514 154.847 517.153 154.557 518.742C154.472 519.223 154.582 519.718 154.861 520.119C155.14 520.52 155.567 520.794 156.048 520.881C156.529 520.961 157.022 520.85 157.422 520.572C157.821 520.293 158.096 519.869 158.187 519.39C158.492 517.691 158.339 515.941 157.744 514.321C157.148 512.7 156.132 511.268 154.8 510.17C151.561 507.178 147.924 504.648 143.993 502.652L143.966 502.636C135.743 497.926 127.252 493.062 125.31 480.663C125.226 480.184 124.96 479.756 124.567 479.469C124.174 479.182 123.685 479.058 123.203 479.124C122.957 479.152 122.719 479.229 122.503 479.351C122.287 479.473 122.097 479.637 121.946 479.833C121.795 480.03 121.685 480.255 121.622 480.495C121.56 480.735 121.547 480.985 121.583 481.23C123.819 495.392 133.509 500.95 142.081 505.844L142.779 506.249L142.794 506.258C143.825 506.856 144.832 507.441 145.807 508.047C144.087 508.386 142.465 509.106 141.06 510.154C138.062 508.955 128.372 504.645 125.067 497.807C124.805 497.469 124.434 497.233 124.017 497.138C123.6 497.044 123.164 497.096 122.782 497.287C122.4 497.479 122.095 497.796 121.921 498.186C121.747 498.576 121.713 499.015 121.826 499.427C125.294 506.605 134.06 511.142 138.386 513.022C137.45 514.379 136.815 515.92 136.523 517.543C136.109 519.994 136.34 522.51 137.192 524.845C138.044 527.18 139.489 529.254 141.384 530.862H99.6919C99.4599 527.221 98.193 523.722 96.04 520.777C93.8871 517.832 90.9379 515.563 87.5392 514.237C87.8309 508.371 89.6133 484.325 98.5901 468.867C102.22 462.417 107.736 457.232 114.398 454.008C121.059 450.785 128.548 449.676 135.858 450.832C139.031 451.34 141.878 453.073 143.787 455.657C145.696 458.242 146.514 461.472 146.067 464.654C145.672 467.098 144.329 469.287 142.33 470.746C140.33 472.205 137.836 472.817 135.388 472.448Z" fill="white"/>
<path d="M154.837 629.436V676.669L166.163 685.468V691.447H167.978V579.156H132.622C132.336 581.302 131.536 583.348 130.289 585.119C136.106 589.445 143.657 595.311 150.689 601.322C154.199 601.436 157.59 602.617 160.411 604.709C163.458 606.968 165.485 610.342 166.05 614.092C166.615 617.843 165.671 621.664 163.425 624.72C162.416 626.077 161.127 627.201 159.645 628.014C158.163 628.828 156.523 629.313 154.837 629.436Z" fill="white"/>
<path d="M119.218 610.664L132.797 620.937V630.335L134.774 630.189C136.769 630.05 138.754 629.795 140.72 629.428V666.793H97.7323V629.428C99.6981 629.796 101.684 630.051 103.679 630.189L105.656 630.335V620.905L119.218 610.664Z" fill="white"/>
<path d="M151.194 678.521H87.2065L75.8802 687.174V691.338H162.521V687.174L151.194 678.521Z" fill="white"/>
<path d="M145.723 601.862C142.43 602.675 139.448 604.439 137.151 606.934L119.214 593.971L101.293 606.934C98.9996 604.433 96.0168 602.668 92.721 601.862C103.901 592.513 115.681 583.941 119.214 581.397C122.762 583.941 134.542 592.513 145.723 601.862Z" fill="white"/>
<path d="M32.2379 691.345H43.4669C42.6568 682.79 36.2077 682.676 35.8675 682.709H23.0342C25.0119 683.947 26.587 685.734 27.568 687.851C28.5489 689.968 28.8934 692.325 28.5596 694.634C28.1552 697.216 26.7542 699.537 24.6577 701.097C22.5611 702.657 19.9362 703.333 17.3468 702.979C17.6384 706.414 19.7286 712.231 29.548 715.942C30.4645 716.302 31.3622 716.707 32.2379 717.157V691.345Z" fill="white"/>
<path d="M67.987 691.358H47.0681C46.2741 681.636 39.5983 679.011 35.9039 679.011H25.6308V669.791C25.6308 664.93 31.6261 661.689 35.6121 661.689H65.605C66.9578 665.888 67.7586 670.246 67.987 674.652V691.358Z" fill="white"/>
<path d="M75.0348 624.718C74.4861 623.979 74.0138 623.186 73.6251 622.352C72.2834 620.606 70.5298 619.22 68.521 618.317V625.139L65.7664 623.519C65.7016 623.421 59.1229 619.873 54.2618 623.421C50.1338 626.368 56.0816 635.023 60.4231 641.341L61.4562 642.833C64.5989 647.885 67.0512 653.335 68.7478 659.037V659.15C70.4543 664.117 71.4579 669.299 71.7293 674.544V691.347H72.2641V685.368L83.6066 676.666V629.417C81.924 629.296 80.2872 628.813 78.8079 628.003C77.3287 627.192 76.0417 626.071 75.0348 624.718Z" fill="white"/>
<path d="M80.2208 607.633C83.1608 605.469 86.8398 604.56 90.4494 605.107C94.0589 605.654 97.3037 607.612 99.4706 610.55L100.556 612.008L119.19 598.511L137.922 612.008L139.007 610.55C141.174 607.612 144.419 605.654 148.029 605.107C151.638 604.56 155.317 605.469 158.257 607.633C160.528 609.311 162.04 611.822 162.462 614.613C162.884 617.405 162.182 620.25 160.509 622.524C159.878 623.383 159.084 624.109 158.172 624.66C157.26 625.211 156.248 625.577 155.195 625.736C154.141 625.896 153.066 625.846 152.032 625.59C150.998 625.333 150.024 624.875 149.167 624.242C147.856 623.272 146.982 621.823 146.737 620.211C146.491 618.599 146.893 616.955 147.854 615.638C148.577 614.666 149.655 614.02 150.852 613.839C151.442 613.745 152.044 613.771 152.624 613.916C153.203 614.061 153.747 614.321 154.223 614.682C154.618 614.967 155.108 615.085 155.59 615.013C156.071 614.94 156.505 614.682 156.799 614.293C156.944 614.099 157.049 613.878 157.108 613.643C157.167 613.408 157.179 613.163 157.143 612.924C157.107 612.684 157.023 612.454 156.897 612.247C156.772 612.039 156.606 611.859 156.41 611.717C155.541 611.074 154.554 610.608 153.505 610.347C152.457 610.086 151.367 610.035 150.298 610.196C149.229 610.357 148.203 610.728 147.277 611.286C146.352 611.844 145.546 612.58 144.905 613.45C143.702 615.059 143.027 617 142.971 619.008C142.916 621.016 143.484 622.991 144.598 624.663C141.992 625.476 139.31 626.019 136.593 626.284V619.057L119.32 605.997L102.063 619.057V626.284C99.3462 626.021 96.6637 625.478 94.0586 624.663C95.1718 622.991 95.74 621.016 95.6849 619.008C95.6297 617 94.954 615.059 93.7507 613.45C93.1087 612.579 92.3012 611.844 91.3745 611.285C90.4477 610.726 89.4199 610.356 88.3498 610.195C87.2798 610.034 86.1885 610.085 85.1384 610.346C84.0883 610.608 83.1 611.073 82.23 611.717C82.0154 611.852 81.8311 612.03 81.6885 612.24C81.5459 612.45 81.4481 612.688 81.4012 612.937C81.3543 613.186 81.3593 613.443 81.4159 613.69C81.4724 613.938 81.5794 614.171 81.73 614.375C81.8807 614.579 82.0719 614.75 82.2916 614.877C82.5113 615.004 82.7548 615.085 83.0069 615.114C83.2591 615.142 83.5145 615.119 83.7572 615.045C83.9999 614.97 84.2246 614.847 84.4174 614.682C84.8983 614.327 85.4445 614.069 86.0248 613.925C86.6051 613.781 87.2081 613.752 87.7995 613.841C88.3908 613.93 88.9588 614.134 89.4712 614.442C89.9835 614.751 90.4301 615.157 90.7854 615.638C91.7533 616.951 92.1605 618.595 91.9174 620.208C91.6744 621.821 90.801 623.272 89.4892 624.242C88.6321 624.875 87.6586 625.333 86.6243 625.59C85.5899 625.846 84.5152 625.896 83.4616 625.736C82.408 625.577 81.3961 625.211 80.4841 624.66C79.5721 624.109 78.7778 623.383 78.1466 622.524C76.4591 620.27 75.7303 617.441 76.1187 614.652C76.5072 611.863 77.9815 609.341 80.2208 607.633Z" fill="white"/>
<path d="M188.006 528.168C187.196 528.036 186.4 527.835 185.624 527.568C184.37 529.123 182.857 530.45 181.152 531.49V547.434H194.779C194.293 545.473 193.029 542.751 189.788 542.751H188.006V528.168Z" fill="white"/>
<path d="M192.867 514.848L191.895 515.772L192.494 516.987C193.067 518.243 193.36 519.609 193.353 520.989C193.358 522.182 193.233 523.372 192.98 524.538C192.275 524.667 191.559 524.732 190.841 524.732C189.149 524.779 187.473 524.382 185.98 523.582L184.36 522.626L183.372 524.149C181.351 527.113 178.36 529.279 174.913 530.274V506.892H198.911C197.32 509.841 195.281 512.525 192.867 514.848Z" fill="white"/>
<path d="M267.361 780.823C265.709 782.355 263.539 783.206 261.285 783.205C259.826 783.206 258.389 782.851 257.098 782.17C255.807 781.489 254.702 780.504 253.879 779.299C253.056 778.095 252.539 776.707 252.374 775.257C252.209 773.808 252.401 772.34 252.932 770.981C253.464 769.622 254.319 768.413 255.424 767.46C256.528 766.507 257.849 765.838 259.271 765.511C260.693 765.184 262.173 765.21 263.583 765.585C264.993 765.961 266.29 766.675 267.361 767.665L279.595 758.964L267.361 750.263C266.081 751.451 264.482 752.241 262.759 752.534C261.037 752.827 259.267 752.611 257.665 751.912C256.064 751.214 254.701 750.063 253.744 748.602C252.787 747.14 252.277 745.431 252.277 743.684C252.277 741.937 252.787 740.228 253.744 738.766C254.701 737.305 256.064 736.154 257.665 735.456C259.267 734.757 261.037 734.541 262.759 734.834C264.482 735.127 266.081 735.917 267.361 737.105L279.595 728.404L267.361 719.719C266.08 720.905 264.481 721.692 262.759 721.983C261.038 722.274 259.268 722.057 257.668 721.358C256.068 720.659 254.707 719.508 253.751 718.047C252.795 716.586 252.286 714.878 252.286 713.132C252.286 711.386 252.795 709.678 253.751 708.217C254.707 706.756 256.068 705.605 257.668 704.906C259.268 704.207 261.038 703.99 262.759 704.281C264.481 704.572 266.08 705.359 267.361 706.545L279.595 697.844L267.361 689.159C266.082 690.342 264.486 691.126 262.768 691.416C261.049 691.706 259.284 691.488 257.688 690.79C256.091 690.092 254.733 688.944 253.779 687.486C252.825 686.027 252.317 684.323 252.317 682.58C252.317 680.838 252.825 679.133 253.779 677.675C254.733 676.217 256.091 675.068 257.688 674.37C259.284 673.672 261.049 673.455 262.768 673.744C264.486 674.034 266.082 674.819 267.361 676.002L279.676 667.365L267.442 658.664C266.162 659.852 264.563 660.642 262.84 660.935C261.118 661.228 259.348 661.012 257.746 660.313C256.145 659.615 254.782 658.464 253.825 657.003C252.868 655.541 252.358 653.832 252.358 652.085C252.358 650.338 252.868 648.629 253.825 647.167C254.782 645.706 256.145 644.555 257.746 643.857C259.348 643.158 261.118 642.942 262.84 643.236C264.563 643.528 266.162 644.318 267.442 645.506L279.676 636.805L267.442 628.104C266.162 629.292 264.563 630.082 262.84 630.375C261.118 630.668 259.348 630.452 257.746 629.753C256.145 629.055 254.782 627.904 253.825 626.443C252.868 624.981 252.358 623.272 252.358 621.525C252.358 619.778 252.868 618.069 253.825 616.607C254.782 615.146 256.145 613.995 257.746 613.297C259.348 612.598 261.118 612.383 262.84 612.676C264.563 612.969 266.162 613.758 267.442 614.946L279.676 606.245L267.442 597.56C266.161 598.746 264.562 599.533 262.84 599.824C261.119 600.116 259.349 599.898 257.749 599.199C256.149 598.5 254.788 597.35 253.832 595.889C252.876 594.428 252.367 592.719 252.367 590.973C252.367 589.227 252.876 587.519 253.832 586.058C254.788 584.597 256.149 583.446 257.749 582.747C259.349 582.048 261.119 581.831 262.84 582.122C264.562 582.413 266.161 583.2 267.442 584.387L279.676 575.701L267.442 567C266.163 568.183 264.567 568.968 262.849 569.257C261.13 569.547 259.365 569.329 257.769 568.631C256.172 567.933 254.814 566.785 253.86 565.327C252.906 563.868 252.398 562.164 252.398 560.421C252.398 558.679 252.906 556.974 253.86 555.516C254.814 554.058 256.172 552.91 257.769 552.211C259.365 551.513 261.13 551.296 262.849 551.586C264.567 551.875 266.163 552.66 267.442 553.843L279.676 545.141L267.442 536.44C266.162 537.629 264.563 538.418 262.84 538.711C261.118 539.004 259.348 538.788 257.746 538.09C256.145 537.391 254.782 536.241 253.825 534.779C252.868 533.318 252.358 531.609 252.358 529.861C252.358 528.114 252.868 526.405 253.825 524.944C254.782 523.482 256.145 522.332 257.746 521.633C259.348 520.935 261.118 520.719 262.84 521.012C264.563 521.305 266.162 522.094 267.442 523.283L280.535 513.966V513.301H219.48V530.04L217.552 529.942C214.408 529.813 208.704 528.095 207.619 522.813H197.086C196.978 524.143 196.728 525.457 196.341 526.734L196.033 527.674L195.061 527.933C194.002 528.206 192.914 528.353 191.82 528.371V539.195C197.103 540.28 198.804 545.984 198.95 549.144V551.072H188.174V795.746H285.185V793.526L267.361 780.823Z" fill="white"/>
<path d="M157.78 540.356H103.45C102.57 540.346 101.706 540.124 100.931 539.71C100.155 539.295 99.4905 538.7 98.9936 537.974C99.4561 536.885 99.6613 535.704 99.5932 534.523H163.208C161.932 536.902 160.062 538.912 157.78 540.356Z" fill="white"/>
<path d="M124.334 568.7C122.784 567.766 121.007 567.273 119.197 567.275C117.386 567.271 115.608 567.762 114.056 568.696C112.504 569.631 111.238 570.972 110.395 572.575C109.552 574.178 109.164 575.981 109.273 577.789C109.382 579.597 109.984 581.341 111.014 582.831C115.26 579.671 118.128 577.629 118.128 577.629L119.197 576.884L120.266 577.629L120.424 577.743C121.078 578.212 123.695 580.091 127.396 582.831C128.421 581.338 129.018 579.594 129.124 577.787C129.229 575.98 128.839 574.178 127.995 572.577C127.151 570.975 125.885 569.635 124.334 568.7Z" fill="white"/>
<path d="M63.898 578.03C64.0114 585.128 67.1387 588.417 68.8887 589.713C68.8517 592.276 69.6112 594.788 71.0624 596.9C72.5136 599.013 74.585 600.624 76.9905 601.509L79.4373 602.368V599.84C79.4373 591.431 84.59 588.028 85.9187 587.283H94.7497V579.57H105.849C106.188 581.554 106.969 583.437 108.134 585.079C102.301 589.47 94.7659 595.336 87.7335 601.282C84.2237 601.396 80.832 602.577 78.0113 604.669C76.2036 606.015 74.739 607.769 73.7366 609.788C72.7343 611.806 72.2225 614.033 72.2429 616.287C66.8309 612.868 59.831 612.252 56.4606 612.187V601.623H61.8402V590.41L57.0601 590.588C56.1724 591.099 55.1508 591.329 54.1299 591.248C53.1089 591.167 52.1363 590.779 51.3402 590.134C50.3032 589.065 50.3032 587.396 51.3402 585.435L51.7615 584.625L51.3727 583.783C48.3588 577.431 50.8055 573.185 54.0949 571.322C56.8333 569.702 60.7221 569.702 62.8772 572.294C62.8723 574.252 63.2181 576.195 63.898 578.03Z" fill="white"/>
<path d="M78.6611 589.045C80.1996 586.768 82.2796 584.909 84.714 583.635L91.0982 583.489V579.454H67.7326C68.3159 585.352 71.4271 586.973 71.5567 586.973L72.7882 587.491L72.6585 588.836C72.4634 590.313 72.6601 591.815 73.2289 593.191C73.7977 594.568 74.7187 595.77 75.8993 596.678C76.1736 593.944 77.1226 591.321 78.6611 589.045Z" fill="white"/>
<path d="M95.6311 536.65C95.4103 537.144 95.0931 537.59 94.698 537.96C94.3029 538.33 93.8379 538.617 93.3302 538.805C92.6118 539.084 91.8128 539.071 91.1041 538.768C90.3955 538.465 89.8335 537.897 89.5385 537.185C89.3645 536.729 89.0167 536.362 88.5715 536.163C88.1263 535.964 87.6203 535.949 87.1648 536.124C86.7092 536.298 86.3415 536.645 86.1425 537.091C85.9434 537.536 85.9294 538.042 86.1034 538.497C86.7311 540.135 87.9824 541.457 89.583 542.174C91.1835 542.89 93.003 542.944 94.6427 542.321C95.3783 542.024 96.0662 541.62 96.6844 541.122C97.5649 542.06 98.6227 542.813 99.7964 543.339C100.97 543.864 102.237 544.152 103.522 544.185H158.76L159.182 543.958C159.797 543.616 160.387 543.232 160.948 542.807H177.573V551.25H184.475V553.534H95.939C90.8187 553.534 83.0733 548.382 83.0733 540.571C83.0733 537.493 83.7863 532.048 88.4692 530.266C89.8616 529.733 91.4084 529.776 92.7697 530.383C94.1309 530.991 95.1952 532.114 95.7283 533.507C96.1133 534.526 96.0784 535.657 95.6311 536.65Z" fill="white"/>
<path d="M241.049 253.619H309.687V250.232L300.873 243.492H249.864L241.049 250.232V253.619Z" fill="white"/>
<path d="M323.219 247.992C325.997 245.408 330.454 245.646 331.211 245.687L331.321 245.691L333.103 245.902L333.362 244.135C333.951 241.789 335.426 239.762 337.478 238.48V253.631H320.821C320.871 251.514 321.729 249.497 323.219 247.992Z" fill="white"/>
<path d="M313.389 249.534C313.93 246.52 315.491 243.783 317.81 241.783C320.129 239.783 323.064 238.641 326.125 238.548H327.745L327.989 236.927C328.831 231.159 334.259 227.464 337.516 225.731V234.059C335.572 235.145 331.537 237.818 330.143 241.95C326.75 241.881 323.444 243.03 320.826 245.191C318.584 247.4 317.303 250.405 317.262 253.552H313.454L313.389 249.534Z" fill="white"/>
<path d="M288.927 139.198H326.195C327.28 136.128 329.009 133.326 331.268 130.981C333.526 128.636 336.261 126.802 339.288 125.603V120.936H236.881C236.525 126.364 234.499 128.714 231.016 130.432C230.773 132.545 229.75 134.493 228.148 135.892C227.306 136.622 226.308 137.149 225.231 137.431C225.556 138.025 226.05 138.51 226.649 138.824C227.249 139.138 227.928 139.268 228.601 139.198H262.775C265.999 127.888 275.219 126.559 275.624 126.559H276.078C276.483 126.607 285.686 127.855 288.927 139.198Z" fill="white"/>
<path d="M205.979 280.374V314.32C203.468 313.364 199.692 311.177 199.692 306.559V304.712H197.877C190.651 304.712 189.289 301.908 189.289 296.723V282.14L177.461 275.659V265.564H185.676V255.372L184.056 255.145C182.143 254.979 180.331 254.216 178.876 252.962C177.422 251.709 176.399 250.029 175.954 248.161C175.289 245.228 175.241 241.534 179.843 237.969C180.278 240.037 181.318 241.929 182.829 243.406C184.34 244.883 186.256 245.878 188.333 246.265L188.998 246.379L189.597 246.022C191.357 244.973 193.46 244.661 195.448 245.156C197.436 245.651 199.148 246.912 200.211 248.663C201.001 249.989 201.234 251.574 200.859 253.071C200.678 253.811 200.351 254.508 199.898 255.12C199.444 255.732 198.873 256.247 198.218 256.636C197.246 257.225 196.081 257.406 194.977 257.138C194.428 257.005 193.911 256.763 193.457 256.426C193.003 256.089 192.622 255.665 192.336 255.177C192.128 254.833 191.99 254.451 191.93 254.053C191.87 253.655 191.89 253.25 191.988 252.859C192.086 252.469 192.26 252.102 192.5 251.78C192.741 251.457 193.043 251.186 193.389 250.981C193.804 250.726 194.102 250.317 194.217 249.843C194.333 249.37 194.256 248.87 194.005 248.453C193.88 248.246 193.715 248.065 193.52 247.922C193.326 247.778 193.104 247.675 192.869 247.618C192.634 247.561 192.39 247.551 192.151 247.588C191.912 247.626 191.683 247.71 191.477 247.837C189.948 248.762 188.848 250.254 188.416 251.988C187.985 253.722 188.258 255.556 189.176 257.089C189.708 257.982 190.412 258.761 191.246 259.381C192.08 260.001 193.029 260.45 194.037 260.703C194.215 260.703 194.41 260.703 194.588 260.784V268.642L206.546 268.529L239.423 257.316H337.358V280.374H205.979Z" fill="white"/>
<path d="M315.883 238.609C318.37 236.601 321.376 235.34 324.551 234.973C326.511 227.163 334.37 223.031 337.384 221.654V179.201H331.794V177.742C329.428 176.727 327.351 175.14 325.75 173.123C324.149 171.107 323.074 168.724 322.622 166.189C320.39 166.573 318.104 166.507 315.898 165.995L314.553 165.655V164.261C314.496 162.078 314.736 159.898 315.266 157.78H285.792C286.497 159.467 286.774 161.303 286.599 163.123C286.424 164.944 285.801 166.693 284.787 168.215C289.405 171.682 295.255 176.252 300.748 180.935C303.568 181.077 306.284 182.046 308.558 183.722C311.081 185.593 312.761 188.388 313.229 191.494C313.696 194.601 312.914 197.767 311.053 200.298C310.251 201.383 309.231 202.289 308.06 202.958C306.888 203.628 305.59 204.046 304.248 204.187V241.455L310.502 246.316C311.53 243.289 313.396 240.617 315.883 238.609Z" fill="white"/>
<path d="M62.1984 746.978C62.2293 740.93 60.1232 735.065 56.2517 730.418C54.0871 727.958 51.422 725.989 48.4348 724.642C45.4475 723.295 42.207 722.601 38.9301 722.608C38.0305 721.468 37.003 720.435 35.8676 719.529V695.03H92.3533V775.254H23.5853V766.957H44.65C56.6893 766.957 62.1984 756.603 62.1984 746.978Z" fill="white"/>
<path d="M10.6869 685.127C8.33674 685.808 6.15577 686.975 4.2849 688.552C3.21909 689.362 2.33725 690.388 1.69761 691.564C1.05797 692.74 0.675027 694.039 0.574219 695.373V719.679C1.64566 719.94 2.70075 720.265 3.73394 720.651V705.76C3.73394 705.27 3.92859 704.8 4.27501 704.454C4.62143 704.107 5.09126 703.913 5.58117 703.913C6.07108 703.913 6.54091 704.107 6.88733 704.454C7.23375 704.8 7.4284 705.27 7.4284 705.76V722.417C8.3711 722.981 9.27017 723.615 10.1182 724.313V716.94C10.1182 716.45 10.3128 715.981 10.6592 715.634C11.0056 715.288 11.4755 715.093 11.9654 715.093C12.4553 715.093 12.9251 715.288 13.2715 715.634C13.618 715.981 13.8126 716.45 13.8126 716.94V728.72C14.4734 729.856 14.9904 731.07 15.3519 732.334V763.266H44.648C54.1919 763.266 58.5345 754.824 58.5345 746.966C58.6189 741.821 56.886 736.812 53.641 732.82C50.5086 729.229 46.131 726.959 41.391 726.468C42.4132 728.972 42.6999 731.715 42.2174 734.375C41.6725 737.414 40.0743 740.163 37.7035 742.139C35.3328 744.116 32.3412 745.194 29.2546 745.183C28.4666 745.186 27.6801 745.115 26.905 744.973C24.0706 744.456 21.556 742.838 19.9104 740.473C18.2649 738.108 17.6222 735.187 18.1227 732.35C18.5527 729.981 19.9049 727.88 21.8825 726.507C23.8601 725.134 26.3015 724.601 28.6713 725.026C30.6567 725.389 32.4176 726.523 33.5685 728.182C34.7195 729.84 35.1667 731.886 34.8124 733.873C34.7216 734.352 34.4469 734.776 34.0471 735.055C33.6473 735.333 33.1542 735.444 32.6735 735.364C32.1927 735.277 31.7658 735.003 31.4864 734.602C31.207 734.201 31.0979 733.706 31.1828 733.225C31.2733 732.712 31.261 732.186 31.1467 731.677C31.0324 731.169 30.8184 730.688 30.5169 730.263C30.2155 729.838 29.8326 729.477 29.3907 729.201C28.9487 728.925 28.4563 728.74 27.9421 728.656C26.5372 728.405 25.0904 728.722 23.9182 729.535C22.746 730.349 21.9439 731.594 21.6875 732.998C21.3568 734.873 21.7811 736.803 22.8679 738.366C23.9547 739.93 25.6157 741 27.4884 741.343C29.9524 741.782 32.49 741.228 34.5459 739.8C36.6018 738.373 38.0085 736.189 38.4582 733.727C39.7545 726.484 34.0346 721.575 28.2337 719.387C17.0371 715.158 13.4075 707.575 13.6505 701.45C12.3965 700.562 11.4132 699.344 10.8097 697.931C10.2061 696.518 10.006 694.965 10.2316 693.445C10.3682 692.533 10.6832 691.657 11.1588 690.867C11.6343 690.076 12.261 689.388 13.0029 688.84C13.7449 688.292 14.5875 687.896 15.4827 687.674C16.3779 687.452 17.3081 687.409 18.2199 687.547C18.4731 687.566 18.7197 687.636 18.9443 687.754C19.1689 687.873 19.3667 688.036 19.5255 688.234C19.6843 688.432 19.8005 688.66 19.867 688.905C19.9335 689.15 19.9488 689.406 19.912 689.657C19.8752 689.908 19.7869 690.149 19.6529 690.365C19.5189 690.58 19.3419 690.766 19.133 690.91C18.924 691.054 18.6877 691.154 18.4386 691.202C18.1895 691.251 17.933 691.248 17.6852 691.193C16.8089 691.063 15.9167 691.284 15.2033 691.809C14.4899 692.335 14.0133 693.121 13.8774 693.996C13.6957 695.214 14.0024 696.454 14.7308 697.446C15.4592 698.439 16.5503 699.103 17.7663 699.295C19.4079 699.528 21.0754 699.106 22.4091 698.121C23.7428 697.136 24.6359 695.666 24.8958 694.029C25.2035 691.857 24.6456 689.651 23.3422 687.887C22.0389 686.123 20.0945 684.942 17.9283 684.598C15.5041 684.266 13.0371 684.446 10.6869 685.127Z" fill="white"/>
<path d="M246.51 241.449L237.404 248.417V254.153L205.758 264.944H198.402V260.569C199.023 260.378 199.621 260.117 200.184 259.792C201.339 259.089 202.33 258.147 203.09 257.029C203.851 255.911 204.362 254.643 204.591 253.31L225.77 245.079C226.903 244.793 227.993 244.357 229.01 243.782L246.235 237.074C246.373 237.697 246.444 238.332 246.445 238.97L246.51 241.449Z" fill="white"/>
<path d="M331.104 294.664L331.364 296.431C331.882 300.076 335.074 302.766 337.424 304.338V284.051H315.776C315.752 286.977 316.882 289.794 318.919 291.893C322.857 295.539 329.338 294.875 329.338 294.875L331.104 294.664Z" fill="white"/>
<path d="M158.863 915.52V893.272C158.853 887.422 156.565 881.806 152.485 877.614C148.405 873.421 142.852 870.983 137.005 870.814C150.489 831.684 184.219 825.404 186.413 824.996L186.523 824.974H253.265V870.847H247.205C241.242 870.851 235.524 873.222 231.307 877.439C227.09 881.656 224.719 887.374 224.715 893.337V915.585H216.435V893.272C216.426 887.307 214.051 881.589 209.832 877.373C205.613 873.156 199.893 870.786 193.928 870.782H189.634C186.675 870.775 183.745 871.352 181.01 872.479C178.274 873.607 175.788 875.262 173.693 877.351C171.598 879.44 169.936 881.921 168.801 884.653C167.666 887.385 167.081 890.314 167.078 893.272V915.52H158.863Z" fill="white"/>
<path d="M173.364 473.45V441.528H337.441V411.876H214.618L173.461 425.86L159.137 425.957V416.235L158.864 416.198C158.609 416.165 158.35 416.132 158.1 416.073C156.889 415.775 155.749 415.241 154.745 414.501C153.741 413.762 152.893 412.831 152.25 411.762C151.17 409.949 150.85 407.782 151.36 405.733C151.87 403.685 153.168 401.921 154.973 400.825C155.18 400.692 155.412 400.602 155.655 400.56C155.898 400.518 156.147 400.525 156.388 400.581C156.628 400.637 156.854 400.74 157.054 400.885C157.254 401.029 157.422 401.213 157.55 401.424C157.678 401.635 157.762 401.869 157.797 402.113C157.833 402.357 157.82 402.606 157.758 402.845C157.696 403.083 157.586 403.307 157.436 403.503C157.286 403.699 157.099 403.863 156.885 403.985C155.91 404.57 155.208 405.518 154.932 406.621C154.655 407.724 154.827 408.891 155.41 409.867C156.213 411.177 157.499 412.12 158.991 412.49C160.483 412.86 162.06 412.627 163.382 411.843C164.252 411.322 165.011 410.634 165.615 409.819C166.219 409.004 166.656 408.077 166.902 407.093C167.147 406.109 167.196 405.085 167.045 404.082C166.894 403.079 166.547 402.115 166.023 401.246C164.635 398.952 162.395 397.302 159.792 396.655C157.19 396.008 154.438 396.418 152.137 397.795L151.554 398.151L150.889 398.038C148.266 397.536 145.862 396.236 144.006 394.316C142.15 392.396 140.932 389.95 140.519 387.311C133.973 392.059 134.021 397.033 134.896 400.955C135.474 403.383 136.803 405.567 138.694 407.196C140.585 408.826 142.942 409.817 145.429 410.029L147.049 410.256V422.117H136.776V435.468L150.598 442.987L149.771 444.51H151.554V450.862C151.554 457.473 153.385 461.297 162.734 461.297H164.581V463.095C164.581 469.561 170.123 472.364 173.364 473.45Z" fill="white"/>
<path d="M171.683 695.016H96.0605L96.093 778.918H31.3921V873.239C35.1063 875.104 38.2291 877.964 40.4122 881.501C42.5954 885.037 43.7528 889.111 43.7554 893.267V915.514H52.0354V893.267C52.0397 887.309 54.4062 881.596 58.6161 877.38C62.8259 873.164 68.5356 870.789 74.4936 870.776H78.8038C84.7673 870.781 90.4854 873.152 94.7023 877.368C98.9191 881.585 101.29 887.303 101.294 893.267V915.466H109.574V893.218C109.579 887.255 111.95 881.537 116.166 877.32C120.383 873.103 126.101 870.732 132.065 870.728H133.134C147.475 827.302 185.618 821.323 186.266 821.242H256.978V871.473C261.839 872.692 266.155 875.497 269.242 879.444C272.33 883.391 274.013 888.256 274.025 893.267V915.514H282.321V893.267C282.325 887.303 284.696 881.585 288.913 877.368C293.13 873.152 298.848 870.781 304.811 870.776H309.089C315.053 870.781 320.771 873.152 324.988 877.368C329.204 881.585 331.575 887.303 331.58 893.267V915.514H337.413V445.206H176.997V462.43H307.922V477.791H193.979V483.008H307.971V498.353H182.863C181.457 498.379 180.1 498.87 179.003 499.749C177.907 500.629 177.133 501.848 176.803 503.214H203.458L203.247 505.24C202.826 509.372 198.257 514.492 196.215 516.582C196.499 517.413 196.695 518.271 196.798 519.142H211.009V520.99C211.009 524.198 213.731 525.462 215.692 525.964V509.582H284.119V515.756L266.619 528.2L265.566 526.71C264.918 525.79 263.993 525.101 262.927 524.742C261.86 524.383 260.707 524.373 259.634 524.713C258.562 525.054 257.626 525.727 256.961 526.635C256.296 527.543 255.938 528.639 255.938 529.764C255.938 530.889 256.296 531.985 256.961 532.893C257.626 533.801 258.562 534.474 259.634 534.814C260.707 535.155 261.86 535.145 262.927 534.786C263.993 534.427 264.918 533.738 265.566 532.818L266.619 531.311L285.918 545.036L266.619 558.76L265.566 557.253C264.918 556.339 263.996 555.654 262.933 555.298C261.87 554.943 260.722 554.934 259.654 555.274C258.586 555.614 257.654 556.285 256.992 557.19C256.331 558.095 255.974 559.187 255.974 560.308C255.974 561.429 256.331 562.52 256.992 563.425C257.654 564.33 258.586 565.001 259.654 565.341C260.722 565.681 261.87 565.673 262.933 565.317C263.996 564.961 264.918 564.276 265.566 563.362L266.619 561.871L285.918 575.596L266.619 589.32L265.566 587.813C264.918 586.894 263.993 586.205 262.927 585.846C261.86 585.487 260.707 585.477 259.634 585.817C258.562 586.157 257.626 586.83 256.961 587.738C256.296 588.646 255.938 589.742 255.938 590.868C255.938 591.993 256.296 593.089 256.961 593.997C257.626 594.905 258.562 595.578 259.634 595.918C260.707 596.258 261.86 596.248 262.927 595.889C263.993 595.531 264.918 594.841 265.566 593.922L266.619 592.415L285.918 606.14L266.619 619.864L265.566 618.373C264.918 617.454 263.993 616.765 262.927 616.406C261.86 616.047 260.707 616.037 259.634 616.377C258.562 616.717 257.626 617.39 256.961 618.298C256.296 619.206 255.938 620.302 255.938 621.428C255.938 622.553 256.296 623.649 256.961 624.557C257.626 625.465 258.562 626.138 259.634 626.478C260.707 626.818 261.86 626.808 262.927 626.449C263.993 626.091 264.918 625.401 265.566 624.482L266.619 622.975L285.918 636.699L266.619 650.424L265.566 648.917C264.917 648.004 263.994 647.322 262.932 646.968C261.869 646.614 260.722 646.607 259.655 646.948C258.588 647.288 257.657 647.959 256.996 648.864C256.336 649.768 255.98 650.859 255.98 651.979C255.98 653.099 256.336 654.19 256.996 655.095C257.657 655.999 258.588 656.67 259.655 657.011C260.722 657.352 261.869 657.345 262.932 656.991C263.994 656.637 264.917 655.954 265.566 655.042L266.619 653.535L285.918 667.259L266.619 680.984L265.566 679.477C264.918 678.557 263.993 677.868 262.927 677.509C261.86 677.151 260.707 677.141 259.634 677.481C258.562 677.821 257.626 678.494 256.961 679.402C256.296 680.31 255.938 681.406 255.938 682.531C255.938 683.657 256.296 684.753 256.961 685.661C257.626 686.569 258.562 687.242 259.634 687.582C260.707 687.922 261.86 687.912 262.927 687.553C263.993 687.194 264.918 686.505 265.566 685.586L266.619 684.095L285.918 697.836L266.619 711.56L265.566 710.069C264.918 709.15 263.993 708.461 262.927 708.102C261.86 707.743 260.707 707.733 259.634 708.073C258.562 708.413 257.626 709.086 256.961 709.994C256.296 710.902 255.938 711.998 255.938 713.124C255.938 714.249 256.296 715.345 256.961 716.253C257.626 717.161 258.562 717.834 259.634 718.174C260.707 718.514 261.86 718.504 262.927 718.146C263.993 717.787 264.918 717.097 265.566 716.178L266.619 714.671L285.918 728.396L266.619 742.12L265.566 740.629C264.918 739.71 263.993 739.021 262.927 738.662C261.86 738.303 260.707 738.293 259.634 738.633C258.562 738.973 257.626 739.646 256.961 740.554C256.296 741.462 255.938 742.558 255.938 743.684C255.938 744.809 256.296 745.905 256.961 746.813C257.626 747.721 258.562 748.394 259.634 748.734C260.707 749.074 261.86 749.064 262.927 748.705C263.993 748.347 264.918 747.657 265.566 746.738L266.619 745.231L285.918 758.955L266.619 772.68L265.566 771.173C264.918 770.259 263.996 769.574 262.933 769.218C261.87 768.862 260.722 768.854 259.654 769.194C258.586 769.534 257.654 770.205 256.992 771.11C256.331 772.015 255.974 773.107 255.974 774.227C255.974 775.348 256.331 776.44 256.992 777.345C257.654 778.25 258.586 778.921 259.654 779.261C260.722 779.601 261.87 779.592 262.933 779.237C263.996 778.881 264.918 778.196 265.566 777.282L266.619 775.791L288.883 791.622V799.416H184.419V557.107H95.7851C93.4322 556.965 91.1308 556.358 89.0142 555.321C86.8976 554.283 85.0078 552.836 83.4542 551.064C83.0167 550.577 79.5329 546.883 73.489 549.767C74.3168 550.382 75.0109 551.159 75.529 552.05C76.0472 552.941 76.3785 553.929 76.5028 554.952C76.6673 556.433 76.4325 557.931 75.8228 559.29C75.213 560.649 74.2505 561.82 73.0353 562.681C68.9358 565.323 66.7645 568.401 66.5539 572.031C66.5038 573.311 66.6569 574.591 67.0075 575.823H105.702C106.006 572.497 107.528 569.401 109.976 567.129C112.424 564.857 115.624 563.569 118.963 563.513C122.302 563.457 125.545 564.636 128.067 566.824C130.59 569.012 132.216 572.055 132.632 575.369H171.683V695.016Z" fill="white"/>
<path d="M31.3822 877.438V934.07L30.1346 934.507C29.4864 934.718 14.6277 939.935 13.8014 961H337.468V919.195H327.956V893.269C327.948 888.282 325.963 883.502 322.437 879.976C318.911 876.45 314.131 874.465 309.144 874.457H304.85C299.855 874.452 295.063 876.431 291.526 879.959C287.989 883.487 285.998 888.274 285.989 893.269V919.195H270.337V893.269C270.328 888.282 268.343 883.502 264.817 879.976C261.291 876.45 256.511 874.465 251.524 874.457H247.23C242.245 874.465 237.467 876.451 233.943 879.977C230.419 883.504 228.438 888.284 228.434 893.269V919.195H212.765V893.269C212.757 888.282 210.772 883.502 207.246 879.976C203.72 876.45 198.94 874.465 193.953 874.457H189.659C184.674 874.465 179.895 876.451 176.372 879.977C172.848 883.504 170.867 888.284 170.863 893.269V919.195H155.194V893.269C155.19 888.284 153.208 883.504 149.685 879.977C146.161 876.451 141.383 874.465 136.398 874.457H132.088C127.102 874.465 122.324 876.451 118.8 879.977C115.277 883.504 113.296 888.284 113.291 893.269V919.195H97.6225V893.269C97.6182 888.284 95.6371 883.504 92.1135 879.977C88.5899 876.451 83.8116 874.465 78.8263 874.457H74.5161C69.5309 874.465 64.7526 876.451 61.2291 879.977C57.7055 883.504 55.7243 888.284 55.72 893.269V919.195H40.0512V893.269C40.0565 890.114 39.2647 887.008 37.7492 884.241C36.2337 881.473 34.0436 879.133 31.3822 877.438Z" fill="white"/>
</svg>
