<svg width="282" height="40" viewBox="0 0 282 40" fill="none" xmlns="http://www.w3.org/2000/svg">
<g style="mix-blend-mode:luminosity">
<g clip-path="url(#clip0_3828_50404)">
<path d="M140.25 25.2207H140.141L132.441 12.8932H129.75V28.9759H132.153V16.7911H132.264L139.85 28.9759L142.653 29V12.8932H140.25L140.25 25.2207ZM119.546 12.8932L113.451 28.976H116.01L117.612 24.7259H124.176L125.755 28.976H128.357L122.282 12.8932H119.546ZM118.211 22.661L120.838 15.5456H120.949L123.528 22.661H118.211ZM164.957 12.8932H158.527V28.9759H160.906V22.4497H165.222C166.422 22.4497 167.246 22.941 167.246 24.4218V28.9777H169.65V24.1882C169.65 22.1457 168.559 21.3228 167.203 21.2524V21.1373C168.38 20.7611 169.918 19.799 169.918 17.4026L169.921 17.4009C169.921 14.8413 168.207 12.8932 164.957 12.8932ZM164.671 20.3367H160.909L160.931 14.9598H164.604C166.628 14.9598 167.474 16.1348 167.474 17.5882C167.474 19.0432 166.584 20.3367 164.671 20.3367ZM179.928 12.8932H177.189L171.092 28.976H173.653L175.254 24.7259H181.818L183.398 28.976H186L179.928 12.8932ZM175.854 22.661L178.48 15.5456H178.591L181.171 22.661H175.854ZM144.231 14.9821L144.228 14.9839H149.413V28.9777H151.751L151.773 14.9839H156.957V12.8932H144.231L144.231 14.9821ZM105.833 12.9146L104.043 11L102.252 12.9146L104.043 14.8292L105.833 12.9146ZM105.532 17.6931C104.711 18.571 103.375 18.571 102.553 17.6931L97.7873 12.596L96 14.5073V28.9776H98.4123V17.0871L100.766 19.6044C101.67 20.5706 102.856 21.0537 104.043 21.0537C105.23 21.0537 106.416 20.5706 107.32 19.6044L109.673 17.0871V28.9776H112.086V14.5073L110.298 12.596L105.532 17.6931Z" fill="white"/>
</g>
</g>
<defs>
<clipPath id="clip0_3828_50404">
<rect width="90" height="18" fill="white" transform="translate(96 11)"/>
</clipPath>
</defs>
</svg>
