<svg xmlns="http://www.w3.org/2000/svg" width="282" height="40" fill="none"><g fill="#fff" clip-path="url(#a)" style="mix-blend-mode:luminosity"><path d="M147.665 12.586v5.28q1.337-1.728 3.864-1.728c.793 0 1.487.096 2.081.384.694.192 1.288.576 1.784 1.056.594.48.991 1.056 1.288 1.728s.396 1.536.396 2.496a7.6 7.6 0 0 1-.594 2.976c-.397.864-.991 1.632-1.883 2.208s-1.883.864-3.171.864c-1.784 0-3.072-.576-3.865-1.632v1.344h-3.468V12.586zm-13.18 3.264c6.738 0 6.144 7.008 6.144 7.008h-9.117c.397 1.344 1.586 2.304 3.27 2.304 2.081 0 3.171-1.152 3.171-1.152l1.982 1.92c-.991.96-2.378 1.824-5.153 1.824-4.261 0-6.54-2.784-6.54-5.664s1.586-6.24 6.243-6.24m83.338-.096c2.874 0 4.756 1.056 4.756 1.056l-1.288 2.496c-3.865-1.92-5.549-.576-5.549.096s.694.768 3.369 1.248 3.865 1.536 3.865 3.264-1.586 3.648-5.351 3.648c-3.766 0-5.451-1.152-5.451-1.152l1.19-2.4c2.972 1.824 6.342 1.248 6.342.192 0-.768-1.09-.96-2.28-1.152l-.495-.096c-.198 0-.495-.096-.694-.096-1.486-.192-3.765-1.056-3.765-3.264-.099-2.304 2.477-3.84 5.351-3.84m-16.846-4.032v9.024l5.054-4.608h4.063l-4.955 4.608 5.45 6.912h-4.063l-3.765-4.704-1.784 1.632v3.072h-3.369V11.722zm-11.99 4.032c2.378 0 4.459 1.152 5.648 2.88l-2.874 1.632c-.495-.96-1.585-1.632-2.774-1.632-1.784 0-3.171 1.344-3.171 3.072s1.387 3.072 3.171 3.072c1.189 0 2.18-.576 2.675-1.536l2.874 1.536c-1.189 1.632-3.171 2.784-5.549 2.784-3.667 0-6.541-2.688-6.541-5.952-.099-3.264 2.874-5.856 6.541-5.856m-15.558 0c3.666 0 6.54 2.688 6.54 5.952s-2.973 5.952-6.54 5.952c-3.667 0-6.54-2.688-6.54-5.952-.099-3.36 2.873-5.952 6.54-5.952m-59.555.288v11.424h-3.667V16.042zm-6.838-3.456v2.88H98.91v3.84h7.135v2.784H98.91v5.376h-3.666v-14.88zm14.666 4.896s1.288-1.92 3.964-1.632v3.168s-2.874-.672-3.964 2.208v6.336h-3.468v-11.52h3.27zm41.619-5.76v15.744h-3.666V11.722zm-12.783 6.912c-1.982 0-2.973 1.152-2.973 3.552 0 .864.298 1.632.793 2.304q.744.864 2.378.864c.694 0 1.289-.192 1.685-.48.396-.384.694-.768.892-1.248s.297-1.056.297-1.536c0-.96-.198-1.824-.694-2.4-.594-.768-1.387-1.056-2.378-1.056m22.891-.096c-1.784 0-3.171 1.344-3.171 3.072s1.387 3.072 3.171 3.072 3.171-1.344 3.171-3.072c-.099-1.632-1.487-3.072-3.171-3.072m-38.944-.288c-1.784 0-2.775 1.056-3.072 2.4h5.946c0-.288-.595-2.4-2.874-2.4m-22.395-7.584c1.189 0 2.18.864 2.18 1.92s-.991 1.92-2.18 1.92-2.18-.864-2.18-1.92.991-1.92 2.18-1.92M83.08 8c.594 0 .99.384.99.96v22.08c0 .576-.396.96-.99.96H59.99c-.594 0-.99-.384-.99-.96V8.96c0-.576.396-.96.99-.96zm-11.495 6.624L64.648 25.28H78.62z"/></g><defs><clipPath id="a"><path fill="#fff" d="M59 8h164v24H59z"/></clipPath></defs></svg>