<svg xmlns="http://www.w3.org/2000/svg" width="282" height="40" fill="none"><g fill="#fff" style="mix-blend-mode:luminosity"><path d="M126.36 10.061h-20.299a.5.5 0 0 0-.334.13.43.43 0 0 0-.138.312v18.993c0 .117.05.23.138.313s.209.13.334.13h20.299a.5.5 0 0 0 .334-.13.43.43 0 0 0 .138-.313V10.503a.43.43 0 0 0-.138-.312.5.5 0 0 0-.334-.13m-6.609 12.81a.43.43 0 0 1-.138.312.5.5 0 0 1-.334.13h-6.137a.5.5 0 0 1-.334-.13.43.43 0 0 1-.138-.312v-5.742c0-.118.05-.23.138-.313a.5.5 0 0 1 .334-.13h6.137c.125 0 .245.047.334.13a.43.43 0 0 1 .138.313zM168.854 16.688h-6.137c-.261 0-.472.197-.472.441v5.743c0 .244.211.441.472.441h6.137c.261 0 .472-.197.472-.441v-5.743c0-.244-.211-.441-.472-.441M161.775 10.062h-6.137c-.261 0-.472.197-.472.441v5.743c0 .243.211.441.472.441h6.137c.26 0 .472-.198.472-.442v-5.742c0-.244-.212-.441-.472-.441M175.939 10.062h-6.137c-.261 0-.472.197-.472.441v5.743c0 .243.211.441.472.441h6.137c.261 0 .472-.198.472-.442v-5.742c0-.244-.211-.441-.472-.441M161.775 23.313h-6.137c-.261 0-.472.198-.472.442v5.742c0 .244.211.442.472.442h6.137c.26 0 .472-.198.472-.442v-5.742c0-.244-.212-.442-.472-.442M175.939 23.313h-6.137c-.261 0-.472.198-.472.442v5.742c0 .244.211.442.472.442h6.137c.261 0 .472-.198.472-.442v-5.742c0-.244-.211-.442-.472-.442M151.145 10.062h-6.137c-.261 0-.472.197-.472.441v5.743c0 .243.211.441.472.441h6.137c.261 0 .472-.198.472-.442v-5.742c0-.244-.211-.441-.472-.441M151.145 23.313h-6.137c-.261 0-.472.198-.472.442v5.742c0 .244.211.442.472.442h6.137c.261 0 .472-.198.472-.442v-5.742c0-.244-.211-.442-.472-.442M144.534 17.124a.43.43 0 0 0-.138-.313.5.5 0 0 0-.334-.13h-6.609v-6.178a.43.43 0 0 0-.138-.312.5.5 0 0 0-.334-.13h-6.137a.5.5 0 0 0-.334.13.43.43 0 0 0-.138.312v18.984c0 .117.05.229.138.312a.5.5 0 0 0 .334.13h6.137a.5.5 0 0 0 .334-.13.43.43 0 0 0 .138-.312v-6.18h6.609a.5.5 0 0 0 .334-.129.43.43 0 0 0 .138-.312z"/></g></svg>