<svg xmlns="http://www.w3.org/2000/svg" width="282" height="40" fill="none"><g fill="#fff" clip-path="url(#a)"><path fill-rule="evenodd" d="m135.749 20.929 2.239-.185-1.13-2.997zm-7.811-.72 1.36-.112q.547-.045.92-.17.374-.125.57-.369.197-.243.197-.642a.85.85 0 0 0-.598-.855q-.266-.09-1.048-.025l-1.401.115zm2.709-12.495 1.326-.12c.252-.023.421-.201.421-.443v-.608c0-.195-.131-.38-.421-.354l-1.326.12c-.291.026-.42.235-.42.43v.608c0 .242.168.39.42.367m12.339 8.156-.008-.007zm-11.272-7.118-.807.073c-.291.027-.421.236-.421.431v6.114c0 .242.169.39.421.367l.807-.073c.251-.023.42-.201.42-.444V9.107c0-.195-.13-.38-.42-.355m21.367 6.222h.02zm-10.076.912q.11.104.225.273l.238.353 2.918 4.172V16.23q0-.433.187-.666l.01-.012-3.597.318zm12.433-2.973c.466.358 1.038.51 1.703.45.92-.084 1.617-.237 2.135-.466a.45.45 0 0 0 .282-.414v-.522c0-.342-.285-.422-.486-.353-.489.161-1.12.275-1.931.349a.7.7 0 0 1-.565-.182.7.7 0 0 1-.232-.533V8.714q0-.32.232-.575a.85.85 0 0 1 .565-.283c.81-.074 1.46-.074 1.927 0 .231.036.49-.102.49-.441v-.523c0-.172-.092-.302-.271-.364-.514-.136-1.216-.162-2.146-.077a2.8 2.8 0 0 0-1.717.771 2.21 2.21 0 0 0-.714 1.64v2.528c0 .64.245 1.151.728 1.523m-21.398 2.54.793-.071c.251-.023.421-.202.421-.444v-4.327c0-.202.079-.398.232-.575a.85.85 0 0 1 .565-.283l1.067-.096a.67.67 0 0 1 .55.193.68.68 0 0 1 .232.522v4.326c0 .243.17.39.421.368l.807-.073a.3.3 0 0 0 .115-.036c.241-.128.291-.291.291-.406v-4.327c0-.204.08-.4.233-.575a.85.85 0 0 1 .565-.283l1.066-.097a.7.7 0 0 1 .565.192.68.68 0 0 1 .232.522v4.327c0 .242.17.39.421.367l.793-.072c.251-.023.42-.201.42-.443V9.835c0-.644-.246-1.153-.728-1.51-.466-.359-1.039-.51-1.703-.45l-1.066.097a2.77 2.77 0 0 0-1.615.673c-.442-.31-.979-.438-1.6-.382l-1.066.097a2.85 2.85 0 0 0-1.717.759 2.22 2.22 0 0 0-.714 1.64v4.327c0 .242.169.39.42.367m18.674 5.777q.215-.038.445-.14.23-.1.399-.262.762-.705.761-2.28 0-1.107-.334-1.632-.336-.524-.826-.634t-1.186-.053l-1.002.083v5.082l1.15-.095q.379-.03.593-.07m-31.126-5.055v-4.327c0-.629-.247-1.152-.715-1.51-.466-.36-1.04-.51-1.703-.45q-1.248.112-1.871.327c-.295.113-.327.333-.327.423v.546q0 .16.083.26c.07.084.175.124.295.113a1 1 0 0 0 .088-.016c.321-.098.903-.184 1.732-.26a.67.67 0 0 1 .552.194.69.69 0 0 1 .232.521v.362l-1.85.167c-.665.06-1.242.32-1.717.771-.474.45-.715.998-.715 1.628 0 .639.245 1.151.729 1.523.465.357 1.038.509 1.703.449l3.077-.279a.433.433 0 0 0 .407-.442m-1.635-.852-1.849.168a.7.7 0 0 1-.565-.182.7.7 0 0 1-.233-.533q0-.308.233-.563a.85.85 0 0 1 .565-.283l1.849-.167zm41.558 6.228q-.674.363-1.599.439-1.11.09-1.83-.268a2.16 2.16 0 0 1-.831-.736q-.32-.477-.319-.952 0-.276.191-.488a.71.71 0 0 1 .488-.237.54.54 0 0 1 .407.12q.166.139.283.43.144.347.31.573.165.226.467.357.301.13.793.09.674-.056 1.096-.404.422-.35.422-.82 0-.372-.228-.586a1.3 1.3 0 0 0-.587-.306 10 10 0 0 0-.964-.181 6.6 6.6 0 0 1-1.352-.33 1.94 1.94 0 0 1-.864-.619q-.32-.41-.319-1.059 0-.618.337-1.126t.976-.818q.18-.087.377-.155l-5.652.5q.31.01.573.056.552.097 1.001.453 1.171.905 1.171 2.948 0 .675-.118 1.24a4 4 0 0 1-.362 1.034 3.5 3.5 0 0 1-.629.851q-.302.296-.66.489a3.2 3.2 0 0 1-.769.293 6 6 0 0 1-.928.143l-1.978.163q-.414.035-.624-.073a.52.52 0 0 1-.273-.33 2.2 2.2 0 0 1-.064-.585v-5.49q0-.491.22-.729a.75.75 0 0 1 .277-.183l-2.374.21.016.015q.19.201.19.635v5.89q0 .985-.818 1.053a1 1 0 0 1-.368-.029.8.8 0 0 1-.307-.16 1.6 1.6 0 0 1-.266-.278 18 18 0 0 1-.245-.33l-2.847-4.126v4.387q0 .43-.2.665a.72.72 0 0 1-.511.262q-.323.027-.516-.18-.194-.206-.194-.63v-5.776q0-.368.081-.584a.9.9 0 0 1 .206-.304l-4.206.372a1 1 0 0 1 .149.158q.13.178.22.388.089.21.227.56l1.958 4.67q.23.534.23.784 0 .261-.217.495a.78.78 0 0 1-.524.26.65.65 0 0 1-.307-.038.56.56 0 0 1-.215-.156 1.4 1.4 0 0 1-.186-.322 13 13 0 0 1-.171-.386l-.358-.91-3.047.25-.358.99q-.21.58-.357.789-.149.209-.486.236a.66.66 0 0 1-.506-.167.59.59 0 0 1-.22-.457q0-.154.051-.321.05-.168.169-.469l1.917-5.02.197-.52q.114-.303.245-.508.061-.096.141-.178l-4.918.435q.063.019.123.04a1.69 1.69 0 0 1 1.035.98q.14.354.14.762 0 .838-.472 1.377-.474.54-1.434.829.403.18.772.57.368.387.657.836.288.45.449.816.161.367.161.51 0 .15-.094.302a.75.75 0 0 1-.258.251.9.9 0 0 1-.379.116.7.7 0 0 1-.429-.085 1 1 0 0 1-.299-.28 10 10 0 0 1-.34-.512l-.608-.962a5 5 0 0 0-.585-.8 1.3 1.3 0 0 0-.524-.354 1.8 1.8 0 0 0-.67-.052l-.532.043v2.406q0 .476-.209.717a.78.78 0 0 1-.547.27q-.364.03-.562-.189-.2-.218-.2-.673v-5.761q0-.49.22-.728.013-.014.027-.026l-3 .265q.108.04.208.091a1.66 1.66 0 0 1 .782.873q.107.285.107.612 0 1.123-1.125 1.737 1.478.348 1.478 1.707 0 .628-.322 1.158a2.2 2.2 0 0 1-.869.815 3.3 3.3 0 0 1-.787.266 8 8 0 0 1-1.038.145l-2.29.189q-.496.04-.708-.164l-.039-.043v.297s.028.055.084.069l34.829 9.125 8.729-13.748v-.421a2.4 2.4 0 0 1-.17.333q-.35.57-1.025.932m1.123-5.766c-.073 0-.075.052-.075.052v.02a.78.78 0 0 1-.191.503.67.67 0 0 1-.478.256q-.261.022-.396-.097a1.5 1.5 0 0 1-.294-.402 1.7 1.7 0 0 0-.491-.621q-.287-.214-.92-.162-.588.049-.948.336-.361.288-.361.65 0 .225.123.379a.9.9 0 0 0 .337.253q.215.1.435.148.219.048.726.134.633.096 1.147.232.514.137.874.362.361.225.562.6l.022.043v-2.634s-.01-.052-.072-.052m2.994-9.499c-.466-.359-1.039-.51-1.703-.45q-1.248.114-1.871.328c-.295.113-.327.333-.327.422v.547q0 .16.083.26c.07.084.175.124.295.113a1 1 0 0 0 .088-.016c.32-.098.903-.185 1.732-.26a.67.67 0 0 1 .552.193.69.69 0 0 1 .232.522v.361l-1.85.168c-.665.06-1.242.32-1.717.77-.474.45-.714.998-.714 1.629 0 .638.245 1.15.728 1.523.466.357 1.038.509 1.703.448l3.077-.278a.434.434 0 0 0 .407-.442V7.797c0-.63-.248-1.152-.715-1.51m-.919 4.986-1.85.167a.7.7 0 0 1-.565-.181.7.7 0 0 1-.233-.533q.001-.31.233-.563a.85.85 0 0 1 .565-.283l1.85-.168zm-1.991 8.985-.01.024zm-9.604-5.282h-.009zm-29.607 1.432.793-.072c.251-.023.42-.201.42-.443v-4.327c0-.203.08-.399.232-.575a.85.85 0 0 1 .565-.283l1.067-.097a.67.67 0 0 1 .551.194.69.69 0 0 1 .232.521v4.327c0 .242.169.39.42.367l.808-.073a.433.433 0 0 0 .406-.442v-4.327c0-.644-.246-1.153-.728-1.51-.466-.358-1.034-.51-1.689-.45l-1.067.096a2.85 2.85 0 0 0-1.716.76 2.22 2.22 0 0 0-.715 1.64v4.327c0 .242.169.39.421.367m26.53-1.183-.087.03.087-.007zm-29.628 5.484 1.39-.114q.568-.048.877-.18a.94.94 0 0 0 .473-.448 1 1 0 0 0 .128-.49q0-.567-.404-.72t-1.232-.085l-1.232.101zm2.77 1.115q-.398-.222-1.191-.157l-1.579.13v2.186l1.631-.134q1.538-.128 1.538-1.236 0-.565-.399-.79m.488-4.245-.008-.002z" clip-rule="evenodd"/><path d="m154.746 5.698-3.005 1.29c-.321-.164-.635-.183-.631-.183.155-.02.353-.012.449-.006.033.002.064-.019.072-.048.098-.366.289-.626.412-.765.038-.043-.001-.1-.06-.087-.344.082-.708.302-.905.434-.052.034-.118-.007-.095-.06a9 9 0 0 1 .325-.652c.025-.046-.022-.09-.075-.073-.668.223-1.264.672-1.638.999-.059.051-.143-.015-.09-.072l.007-.008c.039-.042.003-.099-.055-.089-.56.1-2.355.512-3.426 1.831-.041.05.019.11.079.078.288-.151.792-.399 1.249-.533.074-.022.112.068.042.102-.638.313-1.781.997-2.08 1.996-.331 1.108-.147 2.187.764 2.893 1.004.777 2.286.914 3.227 1.301.048.02.104-.021.093-.067-.05-.21-.213-.677-.725-1.21-.032-.033-.005-.087.046-.093.182-.022.591.112 1.114 1.41.014.034.063.044.098.018.403-.295 2.337-1.853.519-3.32-.226-.183-1.204-.61-1.153-1.548.003-.058.092-.08.121-.03.125.222.418.587 1.073.885.384.174.575.328.806.869.189.442 1.728.45 1.674-.371-.049-.73-.609-1.54-.561-2.358a1.6 1.6 0 0 0-.025-.402l2.477-1.972c.114-.09.016-.218-.123-.159m-3.24 2.906a.516.516 0 0 1-.598.42.52.52 0 0 1-.39-.62.52.52 0 0 1 .599-.42.517.517 0 0 1 .389.62"/></g><defs><clipPath id="a"><path fill="#fff" d="M115.292 4.952h51.415v30.097h-51.415z"/></clipPath></defs></svg>