<svg xmlns="http://www.w3.org/2000/svg" width="282" height="40" fill="none"><path fill="#fff" d="M54.468 24.245a1 1 0 0 0-.011.069 1 1 0 0 0-.009.079q-.002.01-.003.022c0 .015.005.03.005.044a1 1 0 0 0 .008.078 1 1 0 0 0 .036.136.661.661 0 0 0 .15.241l.051.05q.026.023.055.044.03.022.066.042.017.012.037.024l17.655 8.827.02.007.028.014q.012.006.028.01.022.008.043.014l.042.012c.009 0 .016.005.024.007q.012 0 .025.002.023.005.048.006l.049.003h.044l.049-.003.047-.006.026-.002.023-.008q.021-.004.042-.01l.044-.015.028-.01.028-.014.02-.007 17.654-8.827q.019-.012.038-.024a1 1 0 0 0 .066-.042q.029-.022.054-.045a1 1 0 0 0 .051-.049q.024-.026.046-.056l.041-.057q.018-.03.034-.062a.6.6 0 0 0 .05-.133l.016-.069q.005-.04.008-.078.003-.022.004-.044l-.003-.022a1 1 0 0 0-.008-.079q-.004-.035-.011-.069l-.02-.064q-.011-.04-.03-.076l-.006-.02L82.32 6.431q-.007-.011-.015-.021a.7.7 0 0 0-.09-.13q-.011-.014-.024-.027a.8.8 0 0 0-.137-.112q-.02-.012-.038-.021a.8.8 0 0 0-.176-.07.7.7 0 0 0-.172-.024l-.006-.002-.022.003a1 1 0 0 0-.135.015c-.014.003-.028.01-.042.013a1 1 0 0 0-.11.04l-.018.006c-.014.007-.023.017-.037.024a1 1 0 0 0-.066.042q-.029.022-.055.045a1 1 0 0 0-.05.05q-.024.027-.047.055l-.04.058q-.019.03-.034.062a1 1 0 0 0-.03.066q-.011.033-.02.067l-.016.069q-.005.039-.008.078-.004.02-.005.044v15.878l-7.57-7.57a.7.7 0 0 0-.114-.093q-.026-.016-.054-.03-.035-.02-.072-.037-.037-.014-.073-.023c-.021-.005-.042-.014-.063-.018a.7.7 0 0 0-.289 0c-.022.004-.042.013-.064.018-.026.008-.05.013-.073.023q-.037.017-.072.038-.027.014-.055.03a.7.7 0 0 0-.113.092l-7.57 7.57V6.761c0-.016-.005-.03-.005-.044a1 1 0 0 0-.008-.078 1 1 0 0 0-.037-.136.648.648 0 0 0-.15-.241q-.024-.026-.05-.05-.027-.022-.055-.045-.032-.022-.066-.042-.018-.012-.038-.024l-.018-.007a1 1 0 0 0-.108-.039q-.023-.008-.045-.014a.7.7 0 0 0-.133-.015q-.012 0-.023-.002-.005.001-.005.002-.09.002-.173.023l-.046.015a.7.7 0 0 0-.13.056l-.037.02a.7.7 0 0 0-.138.113c-.008.008-.015.02-.023.028a.7.7 0 0 0-.09.129q-.007.011-.016.021l-8.828 17.654-.007.02q-.016.037-.03.076zm9.237.905 5.406 5.406-10.813-5.406zm18.263 0h5.406l-10.812 5.406zm.43-1.471V9.876L89.3 23.679zm-8.827 7.786V17.362l7.051 7.052zm-1.47 0-7.051-7.051 7.051-7.052zm-15.728-7.786 6.9-13.803v13.803zM99.61 13.67c-.253 0-.398.182-.325.435l3.421 12.155a.35.35 0 0 0 .326.253h.289c.181 0 .252-.091.307-.2l3.202-8.192h.09l3.237 8.193c.037.108.145.199.308.199h.288a.35.35 0 0 0 .326-.253l3.418-12.155c.073-.254-.073-.435-.325-.435h-1.664c-.144 0-.289.126-.325.252l-1.845 7.218h-.073l-2.898-7.452c-.036-.108-.126-.198-.307-.198h-.325c-.181 0-.271.09-.307.198l-2.876 7.452h-.071l-1.881-7.218c-.037-.126-.181-.252-.326-.252zM118.423 13.672a.355.355 0 0 0-.343.343V25.99c0 .181.162.344.343.344h1.682a.356.356 0 0 0 .344-.344V14.016a.356.356 0 0 0-.344-.344zM125.273 13.816c0-.181.163-.326.343-.326h.452l7.524 7.994h.018v-7.47c0-.18.145-.343.344-.343h1.664c.181 0 .343.163.343.344v12.173c0 .18-.162.325-.343.325h-.435l-7.561-8.303h-.018v7.778c0 .181-.144.344-.344.344h-1.645a.356.356 0 0 1-.344-.344V13.816zM139.691 15.842h2.767v10.147c0 .18.163.344.344.344h1.682a.356.356 0 0 0 .344-.344V15.842h2.767a.344.344 0 0 0 .344-.344v-1.482a.344.344 0 0 0-.344-.344h-7.904a.344.344 0 0 0-.344.343v1.483c0 .181.145.344.344.344M151.315 14.016c0-.181.145-.344.344-.344h7.361c.199 0 .344.162.344.343v1.483a.344.344 0 0 1-.344.344h-5.354v2.966h4.468c.181 0 .343.163.343.344v1.501c0 .2-.162.344-.343.344h-4.468v3.166h5.354c.199 0 .344.162.344.343v1.484c0 .181-.145.344-.344.344h-7.361a.344.344 0 0 1-.344-.344z"/><path fill="#fff" fill-rule="evenodd" d="M163.939 13.672a.343.343 0 0 0-.343.343h.003V25.99c0 .181.144.344.343.344h1.664a.356.356 0 0 0 .344-.344v-4.612h2.007l2.405 4.793a.31.31 0 0 0 .289.163h1.9c.307 0 .433-.289.307-.525l-2.479-4.594c1.573-.634 2.677-1.99 2.677-3.654 0-2.153-1.773-3.89-3.943-3.89zm6.766 3.925c0 1.012-.834 1.844-1.792 1.844h-2.948v-3.6h2.948c.96 0 1.792.798 1.792 1.756" clip-rule="evenodd"/><path fill="#fff" d="M178.448 13.761c.018-.144.126-.27.325-.27h.289a.33.33 0 0 1 .307.18l3.98 8.538h.054l3.98-8.538c.054-.108.144-.18.307-.18h.289c.199 0 .307.126.325.27l2.135 12.154c.055.253-.091.417-.326.417h-1.645c-.162 0-.307-.145-.343-.27l-1.068-6.856h-.054l-3.166 7.11c-.037.107-.145.198-.307.198h-.324c-.163 0-.253-.09-.308-.199l-3.202-7.109h-.055l-1.049 6.855a.35.35 0 0 1-.325.27h-1.629c-.236 0-.38-.162-.344-.416zM194.511 13.672a.356.356 0 0 0-.344.343v7.525c0 2.749 2.19 4.974 5.029 4.974 2.859 0 5.047-2.225 5.047-4.974v-7.524a.356.356 0 0 0-.343-.344h-1.719a.343.343 0 0 0-.343.343v7.416c0 1.52-1.068 2.732-2.642 2.732s-2.623-1.212-2.623-2.75v-7.398a.343.343 0 0 0-.344-.343zM210.649 15.842h-2.768a.343.343 0 0 1-.343-.344v-1.482c0-.181.145-.344.343-.344h7.905c.199 0 .344.162.344.343v1.483a.344.344 0 0 1-.344.344h-2.768v10.147a.355.355 0 0 1-.344.344h-1.681a.356.356 0 0 1-.344-.344zM219.85 13.672c-.2 0-.344.162-.344.343V25.99c0 .181.144.344.344.344h7.361a.344.344 0 0 0 .344-.344v-1.484a.344.344 0 0 0-.344-.343h-5.354v-3.166h4.468c.18 0 .343-.145.343-.344v-1.5a.356.356 0 0 0-.343-.344h-4.468v-2.967h5.354a.344.344 0 0 0 .344-.344v-1.482a.344.344 0 0 0-.344-.344z"/></svg>