<svg width="217" height="107" fill="none" xmlns="http://www.w3.org/2000/svg"><g clip-path="url(#a)" fill="#0A0A0A"><path fill-rule="evenodd" clip-rule="evenodd" d="M132.712 32.542c0-.952.783-1.723 1.736-1.723h6.679c.953 0 1.735.77 1.735 1.723v5.387c0 .941.772 1.713 1.735 1.713h5.263c.952 0 1.735.77 1.735 1.723v24.27c0 .952-.783 1.723-1.735 1.723h-5.263c-.963 0-1.735.771-1.735 1.713v5.387c0 .952-.782 1.723-1.735 1.723h-6.679a1.733 1.733 0 0 1-1.736-1.723v-6.612c0-.941.783-1.712 1.736-1.712h5.262c.964 0 1.735-.772 1.735-1.724V42.59c0-.952-.771-1.724-1.735-1.724h-5.262c-.953 0-1.736-.77-1.736-1.712v-6.612Zm-48.424 0c0-.952-.783-1.723-1.736-1.723h-6.68c-.94 0-1.734.77-1.734 1.723v5.387c0 .941-.772 1.713-1.735 1.713H67.14c-.94 0-1.735.77-1.735 1.723v24.27c0 .952.783 1.723 1.736 1.723h5.262c.963 0 1.735.771 1.735 1.713v5.387c0 .952.782 1.723 1.735 1.723h6.68c.952 0 1.735-.77 1.735-1.723v-6.612c0-.941-.783-1.712-1.736-1.712H77.29a1.725 1.725 0 0 1-1.735-1.724V42.59c0-.952.771-1.724 1.735-1.724h5.262c.953 0 1.736-.77 1.736-1.712v-6.612Zm18.02 10.184c0-.794.658-1.44 1.452-1.44h14.663c.579 0 1.1.34 1.327.862l2.382 5.444c.226.521.748.861 1.326.861h4.911c.794 0 1.44.647 1.44 1.44v16.048c0 .794-.646 1.44-1.44 1.44h-6.237a1.443 1.443 0 0 1-1.441-1.44V51.039c0-.794-.646-1.44-1.44-1.44h-6.373c-.794 0-1.452.646-1.452 1.44v14.902c0 .794-.646 1.44-1.44 1.44h-6.226a1.452 1.452 0 0 1-1.452-1.44V42.726Z"/><path d="M87.554 42.726c0-.794.646-1.44 1.451-1.44h6.215c.794 0 1.452.646 1.452 1.429V65.94c0 .793-.647 1.44-1.452 1.44h-6.215a1.452 1.452 0 0 1-1.451-1.44V42.726Z"/></g><defs><clipPath id="a"><path fill="#fff" transform="translate(65.405 30.819)" d="M0 0h86.189v45.363H0z"/></clipPath></defs></svg>