<svg width="217" height="108" fill="none" xmlns="http://www.w3.org/2000/svg"><path d="M45.579 29.991v35.274l-8.714-4.767.146-22.296a6.168 6.168 0 0 1 1.995-4.505l6.573-3.706Z" fill="url(#a)"/><path d="M36.865 60.492v6.668a5.948 5.948 0 0 0 3.097 5.22l9.814 5.377 8.882-4.851-21.793-12.414Z" fill="url(#b)"/><path d="m50.536 60.492-.078 10.195 12.99 7.322 8.467-5.098-21.379-12.419Z" fill="url(#c)"/><path d="m59.06 50.554 4.226-2.604 8.875 5.231-13.453 6.909.352-9.536Z" fill="url(#d)"/><path d="m67.835 50.627-.056 19.73 4.136 2.549 4.578-2.66-.095-12.89a3.383 3.383 0 0 0-1.733-2.923l-6.83-3.806Z" fill="url(#e)"/><path d="M59.283 29.991v32.754l-8.713-4.768.145-19.775a6.169 6.169 0 0 1 1.995-4.505l6.573-3.706Z" fill="#F7B0B3"/><path d="m45.601 50.627 4.276-2.795L59.96 53.78c1.7 1 2.739 2.828 2.739 4.796v6.685l-17.103-9.866.005-4.767Z" fill="url(#f)"/><path d="M100.063 62.18c-.57.682-1.593 1.023-3.069 1.023H86.7V37.749h10.295c1.476 0 2.499.341 3.069 1.023.57.682.855 1.56.855 2.633v6.371c0 .224-.061.459-.184.705a4.016 4.016 0 0 1-.436.687 4.382 4.382 0 0 1-.537.57c-.19.168-.352.285-.486.352.134.067.29.185.47.352.178.168.357.37.536.604.179.235.33.498.453.788a2.3 2.3 0 0 1 .184.906v6.807c0 1.08-.285 1.957-.855 2.633Zm-5.181-19.412c-.157-.234-.515-.352-1.074-.352H92.4v5.5h1.408c.917 0 1.375-.425 1.375-1.274v-3.153a1.914 1.914 0 0 0-.301-.72Zm-.906 9.843H92.4v5.936h1.408c.56 0 .917-.117 1.074-.352.156-.235.257-.475.301-.721v-3.588c-.044-.783-.447-1.208-1.207-1.275ZM103.198 47.212c0-.961.101-1.71.302-2.247.202-.537.47-.933.805-1.19a2.225 2.225 0 0 1 1.14-.453 12.5 12.5 0 0 1 1.308-.067h6.842c.491 0 .95.033 1.374.1.425.067.8.235 1.124.503.324.269.581.666.771 1.19.19.526.285 1.247.285 2.164v6.774c0 .38-.139.704-.419.973-.279.268-.62.491-1.023.67h-6.74v2.884h8.149v4.695h-10.463c-.358 0-.738-.089-1.141-.268a5.068 5.068 0 0 1-1.123-.687 3.954 3.954 0 0 1-.855-.94c-.224-.346-.336-.687-.336-1.022V47.212Zm8.183 3.622V47.95h-2.448v2.884h2.448ZM130.357 43.255v4.661h-3.823c-.313.045-.61.134-.889.269-.279.134-.453.402-.52.804v14.22h-5.701V46.91c0-.38.095-.788.285-1.224a4.57 4.57 0 0 1 .755-1.19 3.989 3.989 0 0 1 1.123-.89 2.958 2.958 0 0 1 1.425-.351h7.345ZM138.472 63.208h-5.868V43.255h5.868v19.953ZM168.845 63.208h-10.363c-.492 0-.95-.016-1.375-.05a2.348 2.348 0 0 1-1.123-.369c-.325-.212-.582-.553-.772-1.023-.19-.47-.285-1.129-.285-1.978v-7.311c0-.38.134-.732.403-1.056.268-.325.614-.52 1.039-.587h6.774V47.95h-8.216v-4.695h10.53c.358 0 .738.072 1.141.218.402.145.771.335 1.106.57.336.235.61.514.822.838.212.324.319.654.319.99v17.337Zm-8.15-7.579v2.884h2.448V55.63h-2.448Z" fill="#7580BE"/><path d="M133.229 36.61v3.045l2.633 1.52 2.638-1.52V36.61l-2.638-1.52-2.633 1.52Z" fill="#EAB8B7"/><path d="M112.689 75.544c-.184.218-.514.33-.984.33h-3.309v-8.172h3.309c.475 0 .8.112.984.33.184.218.274.503.274.844v2.046a.49.49 0 0 1-.062.223 1.331 1.331 0 0 1-.313.408.675.675 0 0 1-.156.112.736.736 0 0 1 .151.112c.056.05.112.117.173.195.062.079.106.162.145.252.04.095.062.19.062.29V74.7c.006.346-.09.626-.274.844Zm-1.66-6.232c-.05-.078-.168-.112-.347-.112h-.452v1.766h.452c.297 0 .442-.134.442-.408v-1.011a.62.62 0 0 0-.095-.235Zm-.291 3.158h-.508v1.906h.452c.179 0 .297-.04.347-.112a.544.544 0 0 0 .095-.23v-1.15c-.017-.252-.145-.392-.386-.414ZM115.797 67.702v8.172h-1.834v-8.172h1.834ZM116.892 70.245c.062-.14.14-.268.24-.38.101-.112.218-.212.364-.285a.988.988 0 0 1 .458-.112h2.152a1.32 1.32 0 0 1 .866.324c.118.101.213.23.285.37.073.145.107.301.107.474v4.058c0 .174-.034.33-.107.475a1.148 1.148 0 0 1-.285.37 1.32 1.32 0 0 1-.866.323h-2.152a.973.973 0 0 1-.458-.111 1.214 1.214 0 0 1-.364-.285c-.1-.112-.178-.24-.24-.38a.99.99 0 0 1-.089-.392v-4.052a.902.902 0 0 1 .089-.397Zm2.633 1.062a.46.46 0 0 0-.106-.212c-.056-.062-.168-.106-.336-.134-.1.017-.195.044-.285.084-.089.039-.145.128-.168.257v2.727c.023.129.079.218.168.257.09.045.185.073.285.084.162-.028.274-.073.336-.134a.39.39 0 0 0 .106-.212v-2.717ZM124.208 71.385v2.65a.635.635 0 0 0 .095.229c.051.073.163.112.347.112h1.107v1.498h-2.135c-.475 0-.8-.112-.984-.33-.185-.218-.274-.503-.274-.844v-3.963a2.5 2.5 0 0 1 .078-.693c.056-.168.129-.296.229-.38a.686.686 0 0 1 .358-.162 3.1 3.1 0 0 1 .481-.034h2.252v1.51h-1.106c-.285-.006-.431.134-.448.407ZM128.591 67.702v3.767l.838-2h1.883l-1.347 3.208 1.347 3.197h-1.878l-.838-1.99v1.99h-1.833v-8.172h1.828ZM134.006 71.385v2.65a.635.635 0 0 0 .095.229c.051.073.163.112.347.112h1.112v1.498h-2.135c-.475 0-.799-.112-.984-.33-.184-.218-.273-.503-.273-.844v-3.963a2.5 2.5 0 0 1 .078-.693c.056-.168.128-.296.229-.38a.682.682 0 0 1 .358-.162c.139-.022.302-.034.48-.034h2.253v1.51h-1.107c-.29-.006-.436.134-.453.407ZM139.288 71.385c-.016-.273-.162-.407-.441-.407h-.453v4.901h-1.833v-8.171h1.833v1.766h1.593c.179 0 .341.011.481.033a.725.725 0 0 1 .357.163.865.865 0 0 1 .23.38c.055.167.078.402.078.693v5.136h-1.839l-.006-4.494ZM146.599 75.874h-3.326c-.156 0-.307-.006-.441-.017a.758.758 0 0 1-.358-.117c-.106-.067-.184-.18-.246-.33-.061-.151-.089-.364-.089-.637v-2.348c0-.123.044-.235.128-.34a.513.513 0 0 1 .336-.19h2.174v-.917h-2.638v-1.51h3.381c.118 0 .235.023.369.067.129.045.246.107.358.185a.99.99 0 0 1 .262.268c.068.1.101.213.101.319l-.011 5.567Zm-2.616-2.432v.928h.788v-.928h-.788ZM147.588 68.692v-.99h1.884v.99h-1.884Zm1.884 7.182h-1.884v-6.405h1.884v6.405ZM150.484 75.874v-6.406h3.415a1 1 0 0 1 .452.112c.146.078.269.168.369.285.101.118.179.24.241.38a.99.99 0 0 1 .089.391v5.232h-1.833v-4.566c-.023-.129-.078-.218-.168-.257a.833.833 0 0 0-.285-.084h-.441v4.913h-1.839Z" fill="#4D4D4D"/><path d="M152.608 42.936h-3.438v-5.215h-5.215v5.215h-3.32v4.975h3.32v15.135h5.215V47.911h3.438v-4.975Z" fill="#7580BE"/><path d="M170.957 30.288h1.839v11.698h-1.839V30.288ZM174.585 30.288h2.805c.911 0 1.599.246 2.057.738.459.491.688 1.207.688 2.157v5.919c0 .95-.229 1.666-.688 2.157-.458.492-1.14.738-2.057.738h-2.805v-11.71Zm2.772 10.027c.302 0 .531-.09.693-.268.162-.18.24-.47.24-.867v-6.087c0-.402-.078-.693-.24-.866-.162-.179-.391-.268-.693-.268h-.939v8.356h.939Z" fill="#666"/><defs><linearGradient id="a" x1="41.586" y1="25.399" x2="41.148" y2="64.865" gradientUnits="userSpaceOnUse"><stop stop-color="#7280BE"/><stop offset=".315" stop-color="#6F7DBC"/><stop offset=".543" stop-color="#6675B5"/><stop offset=".745" stop-color="#5666AA"/><stop offset=".929" stop-color="#40529B"/><stop offset="1" stop-color="#354893"/></linearGradient><linearGradient id="b" x1="37.551" y1="64.88" x2="52.789" y2="74.966" gradientUnits="userSpaceOnUse"><stop stop-color="#7280BE"/><stop offset=".315" stop-color="#6F7DBC"/><stop offset=".543" stop-color="#6675B5"/><stop offset=".745" stop-color="#5666AA"/><stop offset=".929" stop-color="#40529B"/><stop offset="1" stop-color="#354893"/></linearGradient><linearGradient id="c" x1="50.457" y1="69.251" x2="71.916" y2="69.251" gradientUnits="userSpaceOnUse"><stop stop-color="#F0A2A8"/><stop offset="1" stop-color="#8E5362"/></linearGradient><linearGradient id="d" x1="73.656" y1="46.561" x2="52.389" y2="60.593" gradientUnits="userSpaceOnUse"><stop offset=".024" stop-color="#945866"/><stop offset=".055" stop-color="#A66673"/><stop offset=".113" stop-color="#C17C86"/><stop offset=".177" stop-color="#D68D95"/><stop offset=".248" stop-color="#E599A0"/><stop offset=".332" stop-color="#EDA0A6"/><stop offset=".46" stop-color="#F0A2A8"/><stop offset=".552" stop-color="#E89BA2"/><stop offset=".697" stop-color="#D18992"/><stop offset=".876" stop-color="#AC6B77"/><stop offset="1" stop-color="#8E5362"/></linearGradient><linearGradient id="e" x1="71.92" y1="75.136" x2="72.359" y2="48.606" gradientUnits="userSpaceOnUse"><stop stop-color="#F0A2A8"/><stop offset=".263" stop-color="#EDA0A6"/><stop offset=".454" stop-color="#E4989F"/><stop offset=".622" stop-color="#D48B94"/><stop offset=".777" stop-color="#BE7984"/><stop offset=".922" stop-color="#A16270"/><stop offset="1" stop-color="#8E5362"/></linearGradient><linearGradient id="f" x1="60.638" y1="60.815" x2="47.154" y2="50.072" gradientUnits="userSpaceOnUse"><stop stop-color="#7280BE"/><stop offset=".315" stop-color="#6F7DBC"/><stop offset=".543" stop-color="#6675B5"/><stop offset=".745" stop-color="#5666AA"/><stop offset=".929" stop-color="#40529B"/><stop offset="1" stop-color="#354893"/></linearGradient></defs></svg>