<svg width="217" height="107" viewBox="0 0 217 107" fill="none" xmlns="http://www.w3.org/2000/svg">
<path d="M65.0464 45.7778V62.2428C65.0464 66.1262 61.8698 69.3003 57.9889 69.3003H41.524C42.121 71.566 44.1852 73.25 46.6321 73.25H63.7145C66.6207 73.25 69.0013 70.872 69.0013 67.9633V50.8809C69.0013 48.4365 67.3147 46.3698 65.0515 45.7727L65.0464 45.7778Z" fill="#231F20"/>
<path d="M33.4408 44.7572C33.4408 40.8738 36.6174 37.6997 40.4983 37.6997H56.9632C56.3662 35.434 54.302 33.75 51.8551 33.75H34.7727C31.8665 33.75 29.486 36.128 29.486 39.0367V56.1191C29.486 58.5635 31.1725 60.6302 33.4357 61.2273V44.7623L33.4408 44.7572Z" fill="#231F20"/>
<path d="M92.2609 54.5296C92.8299 55.2746 93.1157 56.1932 93.1157 57.2827C93.1157 58.8263 92.516 60.0102 91.3168 60.842C90.1176 61.6713 88.3698 62.0872 86.0735 62.0872H76.9697V44.4843H85.5683C87.7141 44.4843 89.3624 44.8951 90.5106 45.7166C91.6588 46.5382 92.2328 47.6532 92.2328 49.0617C92.2328 49.9164 92.0262 50.6793 91.6179 51.3504C91.2071 52.0214 90.633 52.5496 89.8956 52.9349C90.9009 53.2538 91.6894 53.7871 92.2584 54.5321L92.2609 54.5296ZM81.0215 47.5512V51.6999H85.0707C86.076 51.6999 86.8389 51.5239 87.3594 51.1718C87.8799 50.8197 88.1402 50.2992 88.1402 49.6128C88.1402 48.9264 87.8799 48.411 87.3594 48.0666C86.8389 47.7221 86.076 47.5512 85.0707 47.5512H81.0215ZM88.2014 58.4895C88.7449 58.1374 89.0179 57.5939 89.0179 56.854C89.0179 55.3945 87.9361 54.6673 85.7749 54.6673H81.0215V59.0177H85.7749C86.8466 59.0177 87.6554 58.8416 88.2014 58.4895Z" fill="#231F20"/>
<path d="M96.2081 44.4843H100.283V62.0872H96.2081V44.4843Z" fill="#231F20"/>
<path d="M116.35 53.0088H120.072V60.1505C119.116 60.8726 118.011 61.4237 116.753 61.809C115.495 62.1943 114.229 62.3882 112.956 62.3882C111.129 62.3882 109.486 61.9978 108.027 61.2196C106.567 60.4389 105.424 59.3596 104.595 57.9766C103.766 56.5937 103.35 55.0296 103.35 53.2869C103.35 51.5443 103.766 49.9802 104.595 48.5973C105.424 47.2143 106.577 46.1325 108.052 45.3543C109.527 44.5735 111.188 44.1857 113.03 44.1857C114.571 44.1857 115.972 44.446 117.23 44.9665C118.488 45.487 119.544 46.2397 120.399 47.2297L117.784 49.6434C116.526 48.3191 115.01 47.6558 113.232 47.6558C112.109 47.6558 111.112 47.8905 110.239 48.36C109.366 48.8295 108.688 49.4903 108.203 50.3476C107.715 51.2024 107.473 52.1821 107.473 53.2895C107.473 54.3969 107.715 55.3511 108.203 56.2059C108.69 57.0606 109.364 57.7266 110.226 58.2063C111.089 58.6834 112.073 58.9233 113.181 58.9233C114.354 58.9233 115.411 58.6706 116.35 58.168V53.0139V53.0088Z" fill="#231F20"/>
<path d="M127.403 61.2196C125.954 60.4389 124.813 59.3596 123.984 57.9766C123.155 56.5937 122.739 55.0296 122.739 53.2869C122.739 51.5443 123.155 49.9802 123.984 48.5973C124.813 47.2143 125.954 46.1325 127.403 45.3543C128.852 44.5735 130.483 44.1857 132.294 44.1857C133.82 44.1857 135.198 44.4536 136.43 44.9894C137.663 45.5252 138.698 46.2958 139.535 47.3037L136.92 49.7174C135.728 48.3421 134.254 47.6558 132.493 47.6558C131.404 47.6558 130.432 47.8956 129.577 48.3727C128.722 48.8499 128.056 49.5158 127.576 50.3731C127.099 51.2279 126.859 52.2 126.859 53.2895C126.859 54.379 127.099 55.3511 127.576 56.2059C128.054 57.0606 128.719 57.7266 129.577 58.2063C130.432 58.6834 131.404 58.9233 132.493 58.9233C134.254 58.9233 135.728 58.2267 136.92 56.8361L139.535 59.2498C138.696 60.273 137.657 61.0512 136.417 61.5896C135.177 62.1254 133.794 62.3933 132.269 62.3933C130.475 62.3933 128.852 62.0029 127.403 61.2247V61.2196Z" fill="#231F20"/>
<path d="M145.483 61.2069C144.016 60.4184 142.868 59.334 142.038 57.9511C141.209 56.5682 140.793 55.0143 140.793 53.2869C140.793 51.5596 141.209 50.0057 142.038 48.6228C142.868 47.2399 144.016 46.1555 145.483 45.3671C146.95 44.5786 148.596 44.1857 150.425 44.1857C152.255 44.1857 153.895 44.5786 155.355 45.3671C156.814 46.1555 157.962 47.2399 158.799 48.6228C159.639 50.0057 160.057 51.5621 160.057 53.2869C160.057 55.0118 159.639 56.5682 158.799 57.9511C157.96 59.334 156.812 60.4184 155.355 61.2069C153.895 61.9953 152.252 62.3882 150.425 62.3882C148.598 62.3882 146.95 61.9953 145.483 61.2069ZM153.24 58.2012C154.076 57.724 154.735 57.0581 155.214 56.2008C155.692 55.346 155.931 54.3739 155.931 53.2844C155.931 52.1949 155.692 51.2228 155.214 50.368C154.737 49.5133 154.079 48.8473 153.24 48.3676C152.4 47.8905 151.461 47.6507 150.423 47.6507C149.384 47.6507 148.445 47.8905 147.606 48.3676C146.766 48.8448 146.111 49.5107 145.631 50.368C145.154 51.2228 144.914 52.1949 144.914 53.2844C144.914 54.3739 145.154 55.346 145.631 56.2008C146.108 57.0555 146.766 57.7215 147.606 58.2012C148.443 58.6783 149.382 58.9181 150.423 58.9181C151.464 58.9181 152.4 58.6783 153.24 58.2012Z" fill="#231F20"/>
<path d="M163.122 44.4843H167.196V62.0872H163.122V44.4843Z" fill="#231F20"/>
<path d="M187.514 44.4843V62.0872H184.169L175.392 51.3989V62.0872H171.368V44.4843H174.739L183.49 55.1726V44.4843H187.514Z" fill="#231F20"/>
<path d="M57.7823 39.6721H40.7025C37.7827 39.6721 35.4157 42.039 35.4157 44.9588V62.0387C35.4157 64.9585 37.7827 67.3254 40.7025 67.3254H57.7823C60.7021 67.3254 63.069 64.9585 63.069 62.0387V44.9588C63.069 42.039 60.7021 39.6721 57.7823 39.6721Z" fill="#231F20"/>
<path d="M56.7285 52.5955C57.1495 51.8479 57.3944 50.988 57.3944 50.0695C57.3944 47.2271 55.0904 44.9231 52.248 44.9231H39.3782C39.3782 46.8189 40.9142 48.3549 42.8099 48.3549H52.248C53.1946 48.3549 53.9626 49.1229 53.9626 50.0695C53.9626 51.0161 53.1946 51.7841 52.248 51.7841H42.8099C42.8099 53.6799 44.346 55.2159 46.2417 55.2159H53.9626C54.9092 55.2159 55.6773 55.9839 55.6773 56.9305C55.6773 57.8771 54.9092 58.6451 53.9626 58.6451H46.2417C46.2417 60.5409 47.7778 62.0769 49.6735 62.0769H53.9626C56.805 62.0769 59.109 59.7729 59.109 56.9305C59.109 55.1062 58.1573 53.509 56.7285 52.593V52.5955Z" fill="white"/>
<path d="M76.9722 70.377V66.1899H77.9699C78.0515 66.1899 78.1357 66.1899 78.2199 66.1925C78.3016 66.1976 78.3705 66.2002 78.4215 66.2027C78.4853 66.2027 78.5465 66.2053 78.6027 66.2155C78.6613 66.2231 78.7251 66.2384 78.8017 66.2588C78.9318 66.2869 79.0492 66.3328 79.1614 66.3941C79.3706 66.5114 79.5339 66.6747 79.6462 66.8789C79.7585 67.083 79.8146 67.3101 79.8146 67.5576C79.8146 67.8995 79.6921 68.198 79.4497 68.4455C79.2073 68.693 78.9165 68.818 78.5771 68.818L79.7559 70.3821H79.238L77.8142 68.4838H78.2888C78.3654 68.4838 78.424 68.4787 78.4598 68.471C78.6077 68.4557 78.7379 68.4225 78.8527 68.3715C79.0236 68.2949 79.1563 68.1801 79.2507 68.027C79.3477 67.8765 79.3936 67.7055 79.3936 67.5218C79.3936 67.3764 79.3604 67.2335 79.289 67.0983C79.2176 66.963 79.1232 66.8533 79.0007 66.7717C78.8808 66.69 78.7302 66.6314 78.5491 66.6007C78.4419 66.5854 78.2761 66.5752 78.0566 66.5752H77.3932V70.3821H76.9748L76.9722 70.377Z" fill="#231F20"/>
<path d="M83.4428 68.9762H80.6387C80.6387 69.2645 80.7612 69.5146 81.0062 69.7315C81.2435 69.9407 81.5088 70.0479 81.8022 70.0479C82.0344 70.0479 82.2564 69.9866 82.4631 69.8667C82.6697 69.7442 82.8203 69.5784 82.9147 69.3692H83.3535C83.2464 69.6779 83.0499 69.9381 82.7667 70.1448C82.4835 70.3515 82.1747 70.4536 81.8456 70.4536C81.3889 70.4536 81.0036 70.2979 80.6898 69.9841C80.3759 69.6702 80.2203 69.2875 80.2203 68.8333C80.2203 68.3792 80.3759 67.999 80.6898 67.6826C81.0011 67.3688 81.3838 67.2106 81.838 67.2106C82.0778 67.2106 82.3074 67.2616 82.5243 67.3688C82.7386 67.4759 82.9275 67.6214 83.0831 67.8127C83.2209 67.9837 83.3178 68.1648 83.3739 68.3613C83.4224 68.5323 83.4454 68.7364 83.4454 68.9813L83.4428 68.9762ZM80.6387 68.5986H83.0244C82.9683 68.323 82.8305 68.0883 82.6059 67.8995C82.3814 67.7107 82.1263 67.6137 81.8405 67.6137C81.5547 67.6137 81.2868 67.7056 81.0572 67.8893C80.8275 68.073 80.6898 68.3103 80.6387 68.5986Z" fill="#231F20"/>
<path d="M84.022 70.377V66.1899H84.443V70.377H84.022Z" fill="#231F20"/>
<path d="M85.1574 66.9044V66.1899H85.5784V66.9044H85.1574ZM85.1574 70.377V67.2769H85.5784V70.377H85.1574Z" fill="#231F20"/>
<path d="M89.4491 67.2769V70.377H89.046V69.7927C88.9337 70.0019 88.7653 70.1652 88.5407 70.2851C88.3315 70.3974 88.0993 70.451 87.8467 70.451C87.5941 70.451 87.3696 70.4 87.14 70.2928C86.895 70.1805 86.6756 70.0147 86.4842 69.7927C86.4153 69.7161 86.349 69.5962 86.2878 69.4304C86.2138 69.2237 86.178 69.017 86.178 68.8078C86.178 68.619 86.2163 68.4251 86.2954 68.221C86.3618 68.0475 86.4306 67.9301 86.4995 67.8663C86.7164 67.629 86.9461 67.4555 87.1834 67.3483C87.3875 67.2539 87.6044 67.208 87.834 67.208C87.9641 67.208 88.0866 67.2208 88.2014 67.2463C88.3162 67.2718 88.4285 67.3126 88.5357 67.3713C88.7653 67.4861 88.9362 67.652 89.0485 67.8663V67.2769H89.4517H89.4491ZM87.834 67.6111C87.4946 67.6111 87.2038 67.7311 86.9588 67.9684C86.7164 68.2082 86.5939 68.4965 86.5939 68.8384C86.5939 69.1803 86.719 69.4559 86.969 69.6932C87.2191 69.9279 87.5099 70.0453 87.8442 70.0453C88.1784 70.0453 88.4464 69.9279 88.6862 69.6881C88.926 69.4482 89.046 69.1676 89.046 68.8435C89.046 68.5016 88.9311 68.2108 88.6989 67.9709C88.4667 67.7311 88.1785 67.6111 87.834 67.6111Z" fill="#231F20"/>
<path d="M90.1636 70.377V66.1899H90.5845V67.8561C90.679 67.652 90.8423 67.4912 91.0745 67.3713C91.2862 67.2616 91.5133 67.208 91.7583 67.208C92.2099 67.208 92.6028 67.3611 92.9371 67.6698C93.2688 67.9786 93.4346 68.3587 93.4346 68.8129C93.4346 69.0247 93.3963 69.2313 93.3172 69.4278C93.2509 69.5937 93.1692 69.7314 93.0697 69.8437C92.8707 70.0708 92.6615 70.2341 92.4421 70.3311C92.2584 70.4127 92.044 70.4535 91.7965 70.4535C91.549 70.4535 91.327 70.4025 91.1025 70.303C90.8627 70.1907 90.6815 70.0402 90.559 69.8463V70.3795H90.1636V70.377ZM91.7685 67.6137C91.5975 67.6137 91.4393 67.6443 91.2913 67.7081C91.1433 67.7719 91.0056 67.8637 90.8831 67.9837C90.7683 68.0985 90.6841 68.2286 90.6305 68.374C90.605 68.448 90.5846 68.522 90.5718 68.6011C90.5591 68.6777 90.5514 68.7619 90.5514 68.8537C90.5514 69.1956 90.6713 69.4814 90.9112 69.7085C91.151 69.9356 91.447 70.0478 91.794 70.0478C92.141 70.0478 92.4165 69.9305 92.6538 69.6906C92.8937 69.4508 93.011 69.1625 93.011 68.8231C93.011 68.4838 92.8911 68.1852 92.6513 67.9556C92.4115 67.726 92.1155 67.6111 91.7685 67.6111V67.6137Z" fill="#231F20"/>
<path d="M94.0291 70.377V66.1899H94.4501V70.377H94.0291Z" fill="#231F20"/>
<path d="M98.2697 68.9762H95.4656C95.4656 69.2645 95.5881 69.5146 95.833 69.7315C96.0703 69.9407 96.3357 70.0479 96.6291 70.0479C96.8613 70.0479 97.0832 69.9866 97.2899 69.8667C97.4966 69.7442 97.6471 69.5784 97.7415 69.3692H98.1804C98.0732 69.6779 97.8768 69.9381 97.5936 70.1448C97.3103 70.3515 97.0016 70.4536 96.6724 70.4536C96.2157 70.4536 95.8305 70.2979 95.5166 69.9841C95.2028 69.6702 95.0471 69.2875 95.0471 68.8333C95.0471 68.3792 95.2028 67.999 95.5166 67.6826C95.8279 67.3688 96.2106 67.2106 96.6648 67.2106C96.9046 67.2106 97.1343 67.2616 97.3511 67.3688C97.5655 67.4759 97.7543 67.6214 97.9099 67.8127C98.0477 67.9837 98.1447 68.1648 98.2008 68.3613C98.2493 68.5323 98.2722 68.7364 98.2722 68.9813L98.2697 68.9762ZM95.4656 68.5986H97.8512C97.7951 68.323 97.6573 68.0883 97.4328 67.8995C97.2083 67.7107 96.9531 67.6137 96.6674 67.6137C96.3816 67.6137 96.1137 67.7056 95.884 67.8893C95.6544 68.073 95.5166 68.3103 95.4656 68.5986Z" fill="#231F20"/>
<path d="M103.516 67.2769V69.933C103.516 70.2137 103.5 70.4204 103.465 70.548C103.416 70.7317 103.311 70.9103 103.153 71.0838C103.005 71.2445 102.824 71.3695 102.605 71.4563C102.385 71.543 102.161 71.5864 101.931 71.5864C101.582 71.5864 101.263 71.4818 100.974 71.27C100.683 71.0583 100.497 70.7852 100.413 70.4484H100.819C100.944 70.6857 101.099 70.8643 101.283 70.9868C101.48 71.1169 101.704 71.1833 101.964 71.1833C102.168 71.1833 102.362 71.1374 102.543 71.0481C102.735 70.9511 102.88 70.8184 102.982 70.6449C103.044 70.5352 103.082 70.4204 103.1 70.3005C103.11 70.229 103.115 70.1065 103.115 69.933V69.7646C103.021 69.9841 102.857 70.155 102.617 70.2826C102.398 70.3949 102.161 70.451 101.903 70.451C101.699 70.451 101.5 70.4127 101.306 70.3336C101.115 70.2545 100.939 70.1423 100.785 69.9994C100.625 69.8463 100.505 69.6702 100.421 69.4712C100.339 69.2722 100.298 69.0604 100.298 68.8359C100.298 68.7338 100.306 68.6369 100.321 68.5399C100.339 68.443 100.367 68.3434 100.403 68.2414C100.461 68.0806 100.523 67.9582 100.594 67.8791C100.785 67.6367 100.995 67.4606 101.222 67.3509C101.418 67.2565 101.638 67.2106 101.88 67.2106C102.135 67.2106 102.375 67.2642 102.592 67.3764C102.827 67.4963 103 67.6647 103.115 67.8791V67.2795H103.518L103.516 67.2769ZM101.865 67.6112C101.546 67.6112 101.273 67.7285 101.051 67.9607C100.829 68.1929 100.717 68.471 100.717 68.7951C100.717 69.1446 100.826 69.4406 101.048 69.683C101.27 69.9254 101.553 70.0479 101.906 70.0479C102.069 70.0479 102.222 70.0198 102.362 69.9662C102.505 69.9101 102.635 69.8208 102.753 69.6983C102.855 69.5886 102.939 69.4559 103.005 69.2977C103.069 69.1395 103.102 68.9864 103.102 68.8308C103.102 68.4863 102.985 68.198 102.745 67.9633C102.505 67.7285 102.212 67.6137 101.86 67.6137L101.865 67.6112Z" fill="#231F20"/>
<path d="M107.386 67.2769V70.377H106.983V69.7927C106.871 70.0019 106.702 70.1652 106.478 70.2851C106.269 70.3974 106.036 70.451 105.784 70.451C105.531 70.451 105.307 70.4 105.077 70.2928C104.832 70.1805 104.613 70.0147 104.421 69.7927C104.352 69.7161 104.286 69.5962 104.225 69.4304C104.151 69.2237 104.115 69.017 104.115 68.8078C104.115 68.619 104.153 68.4251 104.233 68.221C104.299 68.0475 104.368 67.9301 104.437 67.8663C104.654 67.629 104.883 67.4555 105.12 67.3483C105.325 67.2539 105.541 67.208 105.771 67.208C105.901 67.208 106.024 67.2208 106.139 67.2463C106.253 67.2718 106.366 67.3126 106.473 67.3713C106.702 67.4861 106.873 67.652 106.986 67.8663V67.2769H107.389H107.386ZM105.771 67.6111C105.432 67.6111 105.141 67.7311 104.896 67.9684C104.654 68.2082 104.531 68.4965 104.531 68.8384C104.531 69.1803 104.656 69.4559 104.906 69.6932C105.156 69.9279 105.447 70.0453 105.781 70.0453C106.116 70.0453 106.383 69.9279 106.623 69.6881C106.863 69.4482 106.983 69.1676 106.983 68.8435C106.983 68.5016 106.868 68.2108 106.636 67.9709C106.404 67.7311 106.116 67.6111 105.771 67.6111Z" fill="#231F20"/>
<path d="M108.458 70.377V67.6571H107.812V67.2795H108.458V66.1925H108.879V67.2795H109.598V67.6571H108.879V70.377H108.458Z" fill="#231F20"/>
<path d="M113.127 68.9762H110.323C110.323 69.2645 110.446 69.5146 110.691 69.7315C110.928 69.9407 111.193 70.0479 111.487 70.0479C111.719 70.0479 111.941 69.9866 112.147 69.8667C112.354 69.7442 112.505 69.5784 112.599 69.3692H113.038C112.931 69.6779 112.734 69.9381 112.451 70.1448C112.168 70.3515 111.859 70.4536 111.53 70.4536C111.073 70.4536 110.688 70.2979 110.374 69.9841C110.06 69.6702 109.905 69.2875 109.905 68.8333C109.905 68.3792 110.06 67.999 110.374 67.6826C110.685 67.3688 111.068 67.2106 111.522 67.2106C111.762 67.2106 111.992 67.2616 112.209 67.3688C112.423 67.4759 112.612 67.6214 112.767 67.8127C112.905 67.9837 113.002 68.1648 113.058 68.3613C113.107 68.5323 113.13 68.7364 113.13 68.9813L113.127 68.9762ZM110.323 68.5986H112.709C112.653 68.323 112.515 68.0883 112.29 67.8995C112.066 67.7107 111.811 67.6137 111.525 67.6137C111.239 67.6137 110.971 67.7056 110.742 67.8893C110.512 68.073 110.374 68.3103 110.323 68.5986Z" fill="#231F20"/>
<path d="M114.561 70.377L113.387 67.2769H113.829L114.804 69.8718L115.523 67.6545H115.87L116.585 69.8718L117.577 67.2769H118.021L116.842 70.377H116.357L115.697 68.3205L115.043 70.377H114.561Z" fill="#231F20"/>
<path d="M121.573 67.2769V70.377H121.17V69.7927C121.057 70.0019 120.889 70.1652 120.664 70.2851C120.455 70.3974 120.223 70.451 119.97 70.451C119.718 70.451 119.493 70.4 119.264 70.2928C119.019 70.1805 118.799 70.0147 118.608 69.7927C118.539 69.7161 118.473 69.5962 118.411 69.4304C118.337 69.2237 118.302 69.017 118.302 68.8078C118.302 68.619 118.34 68.4251 118.419 68.221C118.485 68.0475 118.554 67.9301 118.623 67.8663C118.84 67.629 119.07 67.4555 119.307 67.3483C119.511 67.2539 119.728 67.208 119.958 67.208C120.088 67.208 120.21 67.2208 120.325 67.2463C120.44 67.2718 120.552 67.3126 120.659 67.3713C120.889 67.4861 121.06 67.652 121.172 67.8663V67.2769H121.575H121.573ZM119.958 67.6111C119.618 67.6111 119.327 67.7311 119.082 67.9684C118.84 68.2082 118.718 68.4965 118.718 68.8384C118.718 69.1803 118.843 69.4559 119.093 69.6932C119.343 69.9279 119.634 70.0453 119.968 70.0453C120.302 70.0453 120.57 69.9279 120.81 69.6881C121.05 69.4482 121.17 69.1676 121.17 68.8435C121.17 68.5016 121.055 68.2108 120.823 67.9709C120.59 67.7311 120.302 67.6111 119.958 67.6111Z" fill="#231F20"/>
<path d="M124.471 67.2769H124.918L123.127 71.464H122.683L123.172 70.28L121.981 67.2769H122.427L123.423 69.7468L124.471 67.2769Z" fill="#231F20"/>
<path d="M127.252 70.377V67.6571H126.607V67.2795H127.252V66.1925H127.673V67.2795H128.393V67.6571H127.673V70.377H127.252Z" fill="#231F20"/>
<path d="M130.324 67.208C130.75 67.208 131.128 67.3662 131.45 67.6826C131.774 67.999 131.932 68.374 131.932 68.8078C131.932 69.2416 131.776 69.6396 131.462 69.9662C131.149 70.2902 130.768 70.4535 130.327 70.4535C129.885 70.4535 129.5 70.2979 129.179 69.984C128.86 69.6702 128.699 69.2926 128.699 68.8486C128.699 68.4047 128.855 68.0143 129.171 67.6928C129.487 67.3713 129.87 67.2106 130.327 67.2106L130.324 67.208ZM130.324 67.6111C129.985 67.6111 129.697 67.7311 129.467 67.9709C129.235 68.2108 129.117 68.5016 129.117 68.8435C129.117 69.1854 129.235 69.4584 129.472 69.6932C129.709 69.9279 129.993 70.0453 130.324 70.0453C130.656 70.0453 130.949 69.9228 131.177 69.6804C131.404 69.438 131.513 69.1446 131.513 68.8053C131.513 68.4659 131.393 68.1776 131.154 67.9479C131.044 67.8459 130.916 67.7617 130.768 67.7004C130.62 67.6392 130.475 67.6086 130.324 67.6086V67.6111Z" fill="#231F20"/>
<path d="M135.524 70.377L133.794 66.1899H134.254L135.723 69.8565L137.201 66.1899H137.66L135.917 70.377H135.522H135.524Z" fill="#231F20"/>
<path d="M138.076 66.9044V66.1899H138.497V66.9044H138.076ZM138.076 70.377V67.2769H138.497V70.377H138.076Z" fill="#231F20"/>
<path d="M142.314 68.9762H139.51C139.51 69.2645 139.632 69.5146 139.877 69.7315C140.115 69.9407 140.38 70.0479 140.673 70.0479C140.906 70.0479 141.128 69.9866 141.334 69.8667C141.541 69.7442 141.691 69.5784 141.786 69.3692H142.225C142.118 69.6779 141.921 69.9381 141.638 70.1448C141.355 70.3515 141.046 70.4536 140.717 70.4536C140.26 70.4536 139.875 70.2979 139.561 69.9841C139.247 69.6702 139.091 69.2875 139.091 68.8333C139.091 68.3792 139.247 67.999 139.561 67.6826C139.872 67.3688 140.255 67.2106 140.709 67.2106C140.949 67.2106 141.179 67.2616 141.395 67.3688C141.61 67.4759 141.799 67.6214 141.954 67.8127C142.092 67.9837 142.189 68.1648 142.245 68.3613C142.294 68.5323 142.317 68.7364 142.317 68.9813L142.314 68.9762ZM139.51 68.5986H141.896C141.839 68.323 141.702 68.0883 141.477 67.8995C141.253 67.7107 140.997 67.6137 140.712 67.6137C140.426 67.6137 140.158 67.7056 139.928 67.8893C139.699 68.073 139.561 68.3103 139.51 68.5986Z" fill="#231F20"/>
<path d="M143.25 70.377V67.6571H142.605V67.2795H143.25V66.1925H143.671V67.2795H144.391V67.6571H143.671V70.377H143.25Z" fill="#231F20"/>
<path d="M144.814 70.377V67.2769H145.21V67.726C145.332 67.555 145.473 67.4275 145.631 67.3407C145.792 67.2539 145.973 67.2106 146.174 67.2106C146.376 67.2106 146.585 67.254 146.777 67.3433C146.968 67.43 147.134 67.5601 147.274 67.7285C147.384 67.8638 147.458 68.022 147.504 68.2006C147.519 68.272 147.532 68.3537 147.542 68.443C147.552 68.5348 147.557 68.6343 147.557 68.744V70.377H147.139V68.744C147.139 68.5807 147.129 68.4532 147.108 68.3588C147.08 68.2286 147.032 68.1113 146.958 68.0066C146.866 67.8791 146.751 67.7821 146.608 67.7132C146.468 67.6443 146.317 67.6112 146.157 67.6112C146.011 67.6112 145.868 67.6443 145.73 67.7107C145.593 67.777 145.48 67.8714 145.401 67.9888C145.33 68.0832 145.284 68.2031 145.258 68.3486C145.251 68.3945 145.246 68.4481 145.243 68.5093C145.241 68.5705 145.238 68.6496 145.238 68.7415V70.3744H144.817L144.814 70.377Z" fill="#231F20"/>
<path d="M151.428 67.2769V70.377H151.025V69.7927C150.913 70.0019 150.744 70.1652 150.52 70.2851C150.31 70.3974 150.078 70.451 149.826 70.451C149.573 70.451 149.349 70.4 149.119 70.2928C148.874 70.1805 148.655 70.0147 148.463 69.7927C148.394 69.7161 148.328 69.5962 148.267 69.4304C148.193 69.2237 148.157 69.017 148.157 68.8078C148.157 68.619 148.195 68.4251 148.274 68.221C148.341 68.0475 148.41 67.9301 148.478 67.8663C148.695 67.629 148.925 67.4555 149.162 67.3483C149.366 67.2539 149.583 67.208 149.813 67.208C149.943 67.208 150.066 67.2208 150.18 67.2463C150.295 67.2718 150.407 67.3126 150.515 67.3713C150.744 67.4861 150.915 67.652 151.027 67.8663V67.2769H151.431H151.428ZM149.813 67.6111C149.474 67.6111 149.183 67.7311 148.938 67.9684C148.695 68.2082 148.573 68.4965 148.573 68.8384C148.573 69.1803 148.698 69.4559 148.948 69.6932C149.198 69.9279 149.489 70.0453 149.823 70.0453C150.157 70.0453 150.425 69.9279 150.665 69.6881C150.905 69.4482 151.025 69.1676 151.025 68.8435C151.025 68.5016 150.91 68.2108 150.678 67.9709C150.446 67.7311 150.157 67.6111 149.813 67.6111Z" fill="#231F20"/>
<path d="M152.142 70.377V67.2769H152.538V67.6775C152.612 67.5244 152.722 67.4071 152.872 67.328C153.02 67.2463 153.183 67.2081 153.367 67.2081C153.571 67.2081 153.758 67.2463 153.926 67.3254C154.092 67.4045 154.24 67.5219 154.372 67.6775L154.454 67.7949L154.515 67.6775C154.622 67.5321 154.763 67.4198 154.944 67.3331C155.031 67.2923 155.123 67.2616 155.22 67.2387C155.314 67.2157 155.403 67.2055 155.495 67.2055C155.824 67.2055 156.146 67.3611 156.462 67.675C156.574 67.7872 156.653 67.9276 156.699 68.096C156.733 68.221 156.75 68.392 156.75 68.6063V70.3745H156.329V68.6446C156.329 68.5476 156.327 68.4685 156.319 68.4022C156.312 68.3358 156.304 68.2771 156.289 68.2261C156.263 68.1292 156.225 68.045 156.176 67.9786C156.003 67.7337 155.768 67.6112 155.472 67.6112C155.339 67.6112 155.212 67.6418 155.087 67.703C154.962 67.7643 154.862 67.851 154.786 67.9608C154.727 68.045 154.689 68.1521 154.668 68.2873C154.658 68.3639 154.656 68.4838 154.656 68.6446V70.3745H154.237V68.6012C154.237 68.4557 154.23 68.3486 154.217 68.2822C154.196 68.1751 154.153 68.0756 154.089 67.9837C154.013 67.8714 153.911 67.7796 153.783 67.7133C153.655 67.6469 153.528 67.6112 153.393 67.6112C153.257 67.6112 153.13 67.6393 153.012 67.6928C152.895 67.749 152.793 67.8281 152.711 67.9352C152.653 68.0194 152.612 68.1164 152.594 68.2236C152.576 68.3307 152.566 68.4557 152.566 68.5986V70.3719H152.145L152.142 70.377Z" fill="#231F20"/>
<path d="M160.565 68.9762H157.761C157.761 69.2645 157.883 69.5146 158.128 69.7315C158.366 69.9407 158.631 70.0479 158.924 70.0479C159.157 70.0479 159.379 69.9866 159.585 69.8667C159.792 69.7442 159.942 69.5784 160.037 69.3692H160.476C160.369 69.6779 160.172 69.9381 159.889 70.1448C159.606 70.3515 159.297 70.4536 158.968 70.4536C158.511 70.4536 158.126 70.2979 157.812 69.9841C157.498 69.6702 157.342 69.2875 157.342 68.8333C157.342 68.3792 157.498 67.999 157.812 67.6826C158.123 67.3688 158.506 67.2106 158.96 67.2106C159.2 67.2106 159.43 67.2616 159.646 67.3688C159.861 67.4759 160.05 67.6214 160.205 67.8127C160.343 67.9837 160.44 68.1648 160.496 68.3613C160.545 68.5323 160.568 68.7364 160.568 68.9813L160.565 68.9762ZM157.761 68.5986H160.147C160.09 68.323 159.953 68.0883 159.728 67.8995C159.504 67.7107 159.248 67.6137 158.963 67.6137C158.677 67.6137 158.409 67.7056 158.179 67.8893C157.95 68.073 157.812 68.3103 157.761 68.5986Z" fill="#231F20"/>
<path d="M160.889 69.4636H161.307C161.307 69.6269 161.361 69.7647 161.468 69.8769C161.575 69.9892 161.708 70.0479 161.869 70.0479C162.019 70.0479 162.149 69.9994 162.254 69.905C162.361 69.8106 162.412 69.6856 162.412 69.5325C162.412 69.3692 162.351 69.234 162.229 69.1293C162.142 69.0579 162.007 68.9941 161.833 68.9405C161.756 68.9201 161.69 68.8972 161.629 68.8767C161.57 68.8563 161.532 68.8436 161.514 68.8359C161.412 68.7925 161.323 68.7364 161.249 68.665C161.175 68.5961 161.113 68.5068 161.068 68.3996C161.024 68.2924 161.004 68.1853 161.004 68.0756C161.004 67.8255 161.091 67.6189 161.264 67.453C161.438 67.2872 161.649 67.2055 161.897 67.2055C162.126 67.2055 162.328 67.2872 162.499 67.453C162.67 67.6189 162.757 67.8153 162.757 68.0424H162.336C162.336 67.9097 162.29 67.8026 162.2 67.726C162.111 67.6469 161.994 67.6086 161.853 67.6086C161.741 67.6086 161.639 67.6495 161.552 67.7337C161.466 67.8179 161.422 67.9174 161.422 68.0373C161.422 68.1878 161.478 68.3078 161.591 68.392C161.654 68.4404 161.779 68.494 161.968 68.5553C162.249 68.642 162.45 68.739 162.573 68.8512C162.657 68.9252 162.721 69.012 162.767 69.114C162.813 69.2161 162.833 69.3309 162.833 69.4585C162.833 69.7468 162.739 69.9867 162.553 70.1704C162.364 70.3541 162.124 70.4459 161.83 70.4459C161.57 70.4459 161.348 70.349 161.165 70.1551C160.981 69.9611 160.889 69.729 160.889 69.4585V69.4636Z" fill="#231F20"/>
<path d="M166.446 68.9762H163.642C163.642 69.2645 163.765 69.5146 164.009 69.7315C164.247 69.9407 164.512 70.0479 164.806 70.0479C165.038 70.0479 165.26 69.9866 165.466 69.8667C165.673 69.7442 165.824 69.5784 165.918 69.3692H166.357C166.25 69.6779 166.053 69.9381 165.77 70.1448C165.487 70.3515 165.178 70.4536 164.849 70.4536C164.392 70.4536 164.007 70.2979 163.693 69.9841C163.379 69.6702 163.224 69.2875 163.224 68.8333C163.224 68.3792 163.379 67.999 163.693 67.6826C164.004 67.3688 164.387 67.2106 164.841 67.2106C165.081 67.2106 165.311 67.2616 165.528 67.3688C165.742 67.4759 165.931 67.6214 166.086 67.8127C166.224 67.9837 166.321 68.1648 166.377 68.3613C166.426 68.5323 166.449 68.7364 166.449 68.9813L166.446 68.9762ZM163.642 68.5986H166.028C165.972 68.323 165.834 68.0883 165.609 67.8995C165.385 67.7107 165.13 67.6137 164.844 67.6137C164.558 67.6137 164.29 67.7056 164.061 67.8893C163.831 68.073 163.693 68.3103 163.642 68.5986Z" fill="#231F20"/>
<path d="M168.595 70.377V67.2769H168.99V67.6775C169.064 67.5244 169.174 67.4071 169.324 67.328C169.472 67.2463 169.636 67.2081 169.819 67.2081C170.023 67.2081 170.21 67.2463 170.378 67.3254C170.544 67.4045 170.692 67.5219 170.825 67.6775L170.906 67.7949L170.967 67.6775C171.075 67.5321 171.215 67.4198 171.396 67.3331C171.483 67.2923 171.575 67.2616 171.672 67.2387C171.766 67.2157 171.855 67.2055 171.947 67.2055C172.276 67.2055 172.598 67.3611 172.914 67.675C173.027 67.7872 173.106 67.9276 173.152 68.096C173.185 68.221 173.203 68.392 173.203 68.6063V70.3745H172.782V68.6446C172.782 68.5476 172.779 68.4685 172.771 68.4022C172.764 68.3358 172.756 68.2771 172.741 68.2261C172.715 68.1292 172.677 68.045 172.629 67.9786C172.455 67.7337 172.22 67.6112 171.924 67.6112C171.792 67.6112 171.664 67.6418 171.539 67.703C171.414 67.7643 171.314 67.851 171.238 67.9608C171.179 68.045 171.141 68.1521 171.121 68.2873C171.11 68.3639 171.108 68.4838 171.108 68.6446V70.3745H170.689V68.6012C170.689 68.4557 170.682 68.3486 170.669 68.2822C170.649 68.1751 170.605 68.0756 170.541 67.9837C170.465 67.8714 170.363 67.7796 170.235 67.7133C170.11 67.6444 169.98 67.6112 169.845 67.6112C169.71 67.6112 169.582 67.6393 169.465 67.6928C169.347 67.749 169.245 67.8281 169.164 67.9352C169.105 68.0194 169.064 68.1164 169.046 68.2236C169.028 68.3307 169.018 68.4557 169.018 68.5986V70.3719H168.597L168.595 70.377Z" fill="#231F20"/>
<path d="M177.068 67.2769V70.377H176.665V69.7927C176.553 70.0019 176.384 70.1652 176.16 70.2851C175.951 70.3974 175.718 70.451 175.466 70.451C175.213 70.451 174.989 70.4 174.759 70.2928C174.514 70.1805 174.295 70.0147 174.103 69.7927C174.034 69.7161 173.968 69.5962 173.907 69.4304C173.833 69.2237 173.797 69.017 173.797 68.8078C173.797 68.619 173.835 68.4251 173.914 68.221C173.981 68.0475 174.05 67.9301 174.119 67.8663C174.335 67.629 174.565 67.4555 174.802 67.3483C175.006 67.2539 175.223 67.208 175.453 67.208C175.583 67.208 175.706 67.2208 175.82 67.2463C175.935 67.2718 176.047 67.3126 176.155 67.3713C176.384 67.4861 176.555 67.652 176.668 67.8663V67.2769H177.071H177.068ZM175.453 67.6111C175.114 67.6111 174.823 67.7311 174.578 67.9684C174.335 68.2082 174.213 68.4965 174.213 68.8384C174.213 69.1803 174.338 69.4559 174.588 69.6932C174.838 69.9279 175.129 70.0453 175.463 70.0453C175.797 70.0453 176.065 69.9279 176.305 69.6881C176.545 69.4482 176.665 69.1676 176.665 68.8435C176.665 68.5016 176.55 68.2108 176.318 67.9709C176.086 67.7311 175.797 67.6111 175.453 67.6111Z" fill="#231F20"/>
<path d="M177.783 70.377V67.2769H178.178V67.726C178.255 67.5474 178.38 67.4147 178.551 67.3279C178.704 67.2488 178.88 67.2106 179.081 67.2106V67.6265C178.877 67.6265 178.691 67.6979 178.52 67.8382C178.387 67.9531 178.298 68.073 178.255 68.2006C178.221 68.2975 178.204 68.4455 178.204 68.642V70.377H177.783Z" fill="#231F20"/>
<path d="M179.487 70.377V66.1899H179.908V69.1293L181.329 67.2769H181.865L180.663 68.8282L181.944 70.3744H181.403L180.395 69.1523L179.903 69.785V70.3744H179.482L179.487 70.377Z" fill="#231F20"/>
<path d="M185.44 68.9762H182.636C182.636 69.2645 182.758 69.5146 183.003 69.7315C183.24 69.9407 183.506 70.0479 183.799 70.0479C184.031 70.0479 184.253 69.9866 184.46 69.8667C184.667 69.7442 184.817 69.5784 184.912 69.3692H185.35C185.243 69.6779 185.047 69.9381 184.764 70.1448C184.48 70.3515 184.172 70.4536 183.842 70.4536C183.386 70.4536 183.001 70.2979 182.687 69.9841C182.373 69.6702 182.217 69.2875 182.217 68.8333C182.217 68.3792 182.373 67.999 182.687 67.6826C182.998 67.3688 183.381 67.2106 183.835 67.2106C184.075 67.2106 184.304 67.2616 184.521 67.3688C184.736 67.4759 184.924 67.6214 185.08 67.8127C185.218 67.9837 185.315 68.1648 185.371 68.3613C185.419 68.5323 185.442 68.7364 185.442 68.9813L185.44 68.9762ZM182.636 68.5986H185.021C184.965 68.323 184.827 68.0883 184.603 67.8995C184.378 67.7107 184.123 67.6137 183.837 67.6137C183.552 67.6137 183.284 67.7056 183.054 67.8893C182.824 68.073 182.687 68.3103 182.636 68.5986Z" fill="#231F20"/>
<path d="M186.374 70.377V67.6571H185.728V67.2795H186.374V66.1925H186.795V67.2795H187.514V67.6571H186.795V70.377H186.374Z" fill="#231F20"/>
</svg>
