<svg width="217" height="107" viewBox="0 0 217 107" fill="none" xmlns="http://www.w3.org/2000/svg">
<g clip-path="url(#clip0_1198_2801)">
<path d="M119.181 53.93C119.185 54.6015 119.053 55.2669 118.792 55.8859C118.541 56.4728 118.175 57.0036 117.716 57.4468C116.759 58.3659 115.481 58.8756 114.154 58.8676C112.832 58.873 111.561 58.3607 110.612 57.4404C110.157 56.9914 109.795 56.4565 109.548 55.8668C109.292 55.2621 109.16 54.6122 109.159 53.9555C109.157 53.2972 109.294 52.6459 109.561 52.0442C109.817 51.4543 110.182 50.9182 110.638 50.4641C111.091 50.0004 111.63 49.6284 112.224 49.3683C112.829 49.1148 113.479 48.9849 114.135 48.9861C115.462 48.978 116.74 49.4877 117.697 50.4068C118.158 50.8513 118.524 51.3844 118.773 51.9741C119.039 52.5923 119.177 53.2573 119.181 53.93Z" fill="black"/>
<path d="M114.154 57.7844C113.639 57.79 113.128 57.6938 112.65 57.5014C112.173 57.309 111.738 57.0241 111.37 56.6631C111.012 56.3151 110.726 55.8993 110.529 55.4399C110.328 54.9621 110.226 54.4483 110.23 53.9299H110.771C110.767 54.3684 110.856 54.8028 111.033 55.2041C111.194 55.6008 111.437 55.959 111.746 56.2554C112.39 56.882 113.256 57.2298 114.154 57.2238V57.7844Z" fill="white"/>
<path d="M118.098 53.93H117.556C117.563 53.479 117.474 53.0316 117.295 52.6176C117.135 52.2255 116.894 51.8716 116.588 51.5791C116.272 51.2725 115.9 51.0302 115.492 50.8656C115.068 50.6926 114.613 50.606 114.154 50.6107V50.0692C114.685 50.0637 115.212 50.1656 115.702 50.3686C116.175 50.5567 116.608 50.8335 116.977 51.1841C117.333 51.5287 117.615 51.9429 117.805 52.401C118.006 52.8852 118.106 53.4056 118.098 53.93Z" fill="white"/>
<path d="M123.488 47.5845H121.048V45.1444H123.488V47.5845ZM123.488 58.6256H121.118V49.2091H123.488V58.6256Z" fill="black"/>
<path d="M134.561 58.6254H132.223V53.0189C132.23 52.7139 132.176 52.4105 132.063 52.1269C131.971 51.8881 131.83 51.6711 131.649 51.4898C131.479 51.3233 131.274 51.1952 131.05 51.1139C130.83 51.0326 130.597 50.9916 130.362 50.9929C130 50.9942 129.64 51.0566 129.298 51.1776C128.943 51.3082 128.62 51.5123 128.349 51.7765V58.6254H126.011V49.2281H128.349V49.9289C128.505 49.7748 128.681 49.642 128.871 49.5339C129.076 49.4187 129.289 49.3186 129.509 49.2344C129.732 49.1535 129.962 49.0917 130.197 49.0497C130.419 49.0067 130.645 48.9854 130.872 48.986C131.338 48.9859 131.8 49.0612 132.242 49.209C132.694 49.3615 133.107 49.6118 133.452 49.9422C133.797 50.2725 134.064 50.6748 134.236 51.1203C134.452 51.6852 134.556 52.2868 134.542 52.8914L134.561 58.6254Z" fill="black"/>
<path d="M150.858 58.6256H148.093L146.895 56.0262H140.582L139.365 58.6256H136.6L142.748 45.6159H144.716L150.858 58.6256ZM145.901 53.9301L143.735 49.241L141.544 53.9301H145.901ZM160.44 58.6256H158.045V58.1414C157.753 58.3837 157.418 58.5676 157.057 58.6829C156.688 58.7993 156.303 58.8573 155.917 58.8549C155.287 58.8619 154.663 58.7246 154.095 58.4535C153.551 58.1979 153.065 57.8336 152.667 57.3832C152.261 56.9229 151.944 56.3916 151.731 55.8159C151.503 55.2046 151.389 54.5569 151.393 53.9046C151.386 53.2314 151.516 52.5638 151.775 51.9423C152.018 51.3627 152.363 50.8317 152.795 50.375C153.21 49.9524 153.701 49.611 154.241 49.3684C154.764 49.118 155.337 48.9874 155.917 48.9862C156.313 48.9866 156.708 49.0424 157.089 49.1518C157.437 49.2452 157.767 49.3983 158.064 49.6041V45.1444H160.44V58.6256ZM158.083 56.0771V51.5537C157.962 51.4736 157.837 51.4013 157.707 51.3371C157.563 51.2636 157.414 51.2018 157.261 51.1523C157.113 51.1065 156.962 51.0703 156.809 51.044C156.675 51.0154 156.538 51.0005 156.401 50.9994C156.034 50.995 155.67 51.0643 155.331 51.2033C155.011 51.3346 154.723 51.5347 154.49 51.7894C154.242 52.0525 154.053 52.3652 153.935 52.7068C153.799 53.089 153.732 53.4925 153.738 53.8982C153.732 54.2936 153.799 54.6866 153.935 55.0578C154.053 55.3932 154.235 55.7026 154.47 55.9688C154.7 56.2245 154.983 56.4267 155.299 56.5613C155.76 56.7594 156.268 56.819 156.763 56.733C157.257 56.6471 157.716 56.4192 158.083 56.0771ZM171.513 58.6256H169.124V58.1414C168.829 58.3825 168.492 58.5662 168.13 58.6829C167.761 58.7993 167.376 58.8573 166.99 58.8549C166.359 58.8619 165.736 58.7246 165.167 58.4535C164.626 58.1946 164.141 57.8308 163.74 57.3832C163.334 56.9229 163.017 56.3916 162.804 55.8159C162.578 55.2042 162.466 54.5566 162.472 53.9046C162.466 53.2314 162.596 52.5638 162.855 51.9423C163.095 51.3629 163.438 50.8319 163.868 50.375C164.283 49.9524 164.773 49.611 165.314 49.3684C165.837 49.118 166.41 48.9874 166.99 48.9862C167.386 48.9866 167.781 49.0424 168.162 49.1518C168.51 49.2452 168.84 49.3983 169.137 49.6041V45.1444H171.513V58.6256ZM169.156 56.0771V51.5537C169.036 51.4723 168.91 51.3999 168.78 51.3371C168.636 51.2636 168.487 51.2018 168.334 51.1523C168.186 51.1065 168.034 51.0703 167.881 51.044C167.747 51.0154 167.611 51.0005 167.474 50.9994C167.107 50.995 166.743 51.0643 166.403 51.2033C166.084 51.3362 165.798 51.5361 165.562 51.7894C165.315 52.0525 165.126 52.3652 165.008 52.7068C164.872 53.089 164.805 53.4925 164.811 53.8982C164.805 54.2936 164.872 54.6866 165.008 55.0578C165.126 55.3932 165.308 55.7026 165.543 55.9688C165.773 56.2245 166.055 56.4267 166.372 56.5613C166.833 56.7594 167.341 56.819 167.836 56.733C168.33 56.6471 168.789 56.4192 169.156 56.0771ZM176.31 47.5845H173.896V45.1444H176.336L176.31 47.5845ZM176.31 58.6256H173.896V49.2091H176.272L176.31 58.6256ZM187.275 57.2112C186.802 57.7508 186.212 58.1738 185.548 58.4472C184.881 58.7269 184.164 58.8699 183.44 58.8677C182.785 58.8699 182.135 58.7444 181.528 58.4981C180.94 58.2585 180.404 57.9081 179.948 57.466C179.494 57.0178 179.134 56.4826 178.891 55.8924C178.628 55.2719 178.495 54.6039 178.502 53.9301C178.5 53.2731 178.632 52.6227 178.891 52.0188C179.135 51.4306 179.492 50.896 179.942 50.4451C180.396 49.9809 180.94 49.6145 181.541 49.3684C182.161 49.1117 182.826 48.9818 183.497 48.9862C184.195 48.9819 184.888 49.1139 185.536 49.3748C186.179 49.6362 186.755 50.0415 187.218 50.5598L185.638 52.1717C185.386 51.855 185.077 51.5891 184.727 51.388C184.338 51.1697 183.897 51.0638 183.452 51.0822C183.1 51.0808 182.751 51.1592 182.433 51.3116C182.113 51.4687 181.825 51.6848 181.586 51.9487C181.207 52.3617 180.952 52.873 180.851 53.424C180.75 53.975 180.805 54.5434 181.012 55.0641C181.145 55.3974 181.337 55.7038 181.579 55.9688C181.819 56.2241 182.107 56.4298 182.427 56.5741C182.747 56.7257 183.098 56.8041 183.452 56.8034C183.899 56.8109 184.34 56.6963 184.727 56.4721C185.091 56.26 185.402 55.9682 185.638 55.6184L187.275 57.2112ZM194.073 58.4153C193.818 58.5749 193.538 58.6891 193.245 58.753C192.936 58.8284 192.619 58.8669 192.302 58.8677C191.826 58.8816 191.352 58.8126 190.9 58.6638C190.542 58.5418 190.226 58.3209 189.989 58.0267C189.744 57.7126 189.574 57.3464 189.492 56.9563C189.383 56.4542 189.332 55.9411 189.339 55.4273V51.3243H188.103V50.2667C188.833 49.9765 189.472 49.4944 189.951 48.8715C190.46 48.1568 190.792 47.3314 190.919 46.4632H191.735V49.2091H194.105V51.3243H191.735V55.5993C191.726 55.7986 191.756 55.9977 191.824 56.1854C191.869 56.3232 191.951 56.4464 192.06 56.5422C192.153 56.6295 192.267 56.691 192.391 56.7206C192.519 56.7575 192.652 56.7747 192.786 56.7716C193.012 56.7659 193.236 56.7338 193.455 56.676C193.689 56.6158 193.906 56.5048 194.092 56.3511L194.073 58.4153Z" fill="#1A6634"/>
<path d="M85.5864 54.9048C85.5886 55.4244 85.4755 55.9379 85.2552 56.4084C85.0382 56.8562 84.7376 57.2584 84.3696 57.5934C83.9959 57.9267 83.564 58.188 83.0954 58.3643C82.6115 58.5503 82.0974 58.6453 81.5791 58.6446H76.3229V45.6158H81.0057C81.5387 45.6123 82.0685 45.6984 82.5729 45.8707C83.043 46.026 83.4765 46.2753 83.8472 46.6033C84.2124 46.926 84.5036 47.3237 84.7009 47.7692C84.9051 48.2618 85.007 48.7907 85.0003 49.3238C85.0005 49.8138 84.8894 50.2974 84.6754 50.7382C84.4633 51.1888 84.1595 51.5902 83.7834 51.9168C84.0612 52.0536 84.315 52.2343 84.5352 52.452C84.9836 52.8788 85.3055 53.4212 85.4654 54.0192C85.545 54.3077 85.5857 54.6056 85.5864 54.9048ZM82.4837 49.3684C82.4896 49.0855 82.4262 48.8056 82.299 48.5529C82.1852 48.3298 82.0217 48.1358 81.8212 47.9859C81.6155 47.8288 81.3821 47.7121 81.1331 47.6418C80.8678 47.5671 80.5932 47.5306 80.3176 47.5335H78.8395V51.1077H79.5722H80.3176C80.5925 51.1063 80.8663 51.0721 81.1331 51.0057C81.3798 50.9486 81.6134 50.8448 81.8212 50.6999C82.0237 50.5601 82.188 50.3717 82.299 50.152C82.4238 49.9099 82.4873 49.6408 82.4837 49.3684ZM82.9679 54.7519C82.962 54.4936 82.9012 54.2395 82.7896 54.0065C82.6903 53.7868 82.5447 53.5912 82.3627 53.4331C82.1752 53.2713 81.9591 53.146 81.7256 53.0636C81.4819 52.9785 81.2255 52.9354 80.9674 52.9362C80.5979 52.9362 80.2348 52.9362 79.878 52.9362H78.8395V56.5294H80.7508C81.0084 56.5257 81.2648 56.4937 81.5153 56.4339C81.7747 56.3723 82.0207 56.2644 82.2416 56.1153C82.4508 55.971 82.625 55.7816 82.7513 55.561C82.8963 55.3186 82.9713 55.0407 82.9679 54.7583V54.7519Z" fill="black"/>
<path d="M89.8934 47.5845H87.4532V45.1444H89.8934V47.5845ZM89.8615 58.6256H87.4915V49.2091H89.8615V58.6256Z" fill="black"/>
<path d="M97.6534 58.4152C97.3989 58.5748 97.1186 58.689 96.8251 58.7529C96.5165 58.8283 96.1999 58.8668 95.8822 58.8676C95.4067 58.8815 94.9324 58.8125 94.4806 58.6637C94.1228 58.5417 93.8069 58.3208 93.5695 58.0266C93.3242 57.7125 93.1542 57.3463 93.0726 56.9563C92.9635 56.4541 92.9122 55.9411 92.9197 55.4272V51.3242H91.7092V50.2667C92.4394 49.9764 93.0778 49.4943 93.5568 48.8714C94.0659 48.1567 94.3978 47.3313 94.5252 46.4631H95.2897V49.2091H97.6597V51.3242H95.2897V55.5992C95.2811 55.7985 95.3114 55.9976 95.3789 56.1854C95.4243 56.3231 95.5057 56.4463 95.6146 56.5421C95.7076 56.6294 95.8218 56.6909 95.9459 56.7205C96.0742 56.7574 96.2074 56.7746 96.3409 56.7715C96.5562 56.7634 96.7699 56.7314 96.978 56.6759C97.2117 56.6157 97.4292 56.5048 97.6151 56.351L97.6534 58.4152Z" fill="black"/>
<path d="M107.911 57.2111C107.439 57.7491 106.851 58.1719 106.191 58.4471C105.521 58.7268 104.801 58.8698 104.075 58.8676C103.42 58.8684 102.771 58.7429 102.164 58.4981C101.576 58.2584 101.04 57.908 100.584 57.466C100.131 57.016 99.7721 56.4813 99.5264 55.8923C99.2664 55.271 99.1342 54.6036 99.1378 53.93C99.1386 53.2734 99.2707 52.6236 99.5264 52.0187C99.7755 51.4332 100.132 50.8994 100.578 50.4451C101.017 49.987 101.543 49.621 102.126 49.3684C102.743 49.111 103.406 48.981 104.075 48.9861C104.774 48.9819 105.466 49.1139 106.114 49.3747C106.759 49.6345 107.334 50.0401 107.796 50.5598L106.222 52.1716C105.982 51.8586 105.686 51.5929 105.35 51.388C105.004 51.2019 104.62 51.0982 104.228 51.0849C103.835 51.0717 103.445 51.1492 103.088 51.3115C102.769 51.4671 102.483 51.6836 102.247 51.9486C101.997 52.2098 101.8 52.5171 101.667 52.8533C101.387 53.5636 101.387 54.3538 101.667 55.0641C101.8 55.3973 101.992 55.7038 102.234 55.9688C102.474 56.2241 102.762 56.4297 103.081 56.574C103.402 56.7257 103.752 56.804 104.107 56.8034C104.554 56.8108 104.995 56.6963 105.381 56.4721C105.747 56.2618 106.059 55.9696 106.292 55.6184L107.911 57.2111Z" fill="black"/>
<path d="M80.5343 62.6457H78.967V67.2965H77.8776V62.6457H76.3167V61.6709H80.5343V62.6457Z" fill="black"/>
<path d="M96.4109 67.2965H95.3215V64.8055H93.1044V67.2965H92.0085V61.6709H93.1044V63.9008H95.3215V61.6709H96.4109V67.2965Z" fill="black"/>
<path d="M113.925 67.2964H112.734L112.211 66.1688H109.478L108.949 67.2964H107.751L110.415 61.6644H111.268L113.925 67.2964ZM111.778 65.2959L110.822 63.2317L109.892 65.2959H111.778Z" fill="black"/>
<path d="M126.349 67.2965H125.259V61.6709H126.349V67.2965Z" fill="black"/>
<path d="M144.156 67.2965H140.333V61.6709H141.448V66.2389H144.143L144.156 67.2965Z" fill="black"/>
<path d="M161.243 67.2964H160.045L159.523 66.1688H156.789L156.267 67.2964H155.069L157.726 61.6644H158.605L161.243 67.2964ZM159.096 65.2959L158.159 63.2636L157.21 65.2959H159.096Z" fill="black"/>
<path d="M177.26 67.2964H176.189L173.641 63.3464V67.2964H172.57V61.6644H173.794L176.183 65.3405V61.6644H177.253L177.26 67.2964Z" fill="black"/>
<path d="M194.098 64.4804C194.099 64.8546 194.032 65.2259 193.901 65.5762C193.773 65.9053 193.585 66.2078 193.346 66.4682C193.114 66.7295 192.827 66.9362 192.506 67.0734C192.172 67.2258 191.808 67.3019 191.442 67.2964H189.091V61.6644H191.442C191.808 61.6613 192.171 61.7374 192.506 61.8874C192.827 62.0388 193.114 62.2558 193.346 62.5245C193.582 62.7748 193.77 63.0663 193.901 63.3846C194.032 63.7349 194.099 64.1062 194.098 64.4804ZM192.99 64.4804C192.999 64.2243 192.958 63.9689 192.869 63.7286C192.794 63.4928 192.671 63.2755 192.506 63.0915C192.342 62.9111 192.143 62.7677 191.919 62.671C191.668 62.5712 191.4 62.5214 191.129 62.5245H190.18V66.3471H191.129C191.393 66.3529 191.655 66.3052 191.9 66.207C192.122 66.1171 192.322 65.9802 192.486 65.8056C192.646 65.6286 192.772 65.4234 192.856 65.2003C192.945 64.9613 192.997 64.7098 193.009 64.4549L192.99 64.4804Z" fill="black"/>
<path d="M47.7397 76.0064C60.1667 74.777 69.2441 63.7063 68.0147 51.2793C66.7852 38.8524 55.7145 29.775 43.2876 31.0044C30.8606 32.2338 21.7832 43.3045 23.0126 55.7315C24.2421 68.1585 35.3128 77.2359 47.7397 76.0064Z" fill="#7DB042"/>
<path d="M64.6895 53.3885C64.687 57.205 63.5528 60.9351 61.4306 64.1071C59.3083 67.2791 56.2931 69.7505 52.7662 71.209C49.2394 72.6675 45.3593 73.0475 41.6166 72.3009C37.8738 71.5543 34.4364 69.7147 31.7391 67.0147C29.0418 64.3147 27.2056 60.8755 26.4627 57.132C25.7199 53.3885 26.1037 49.5088 27.5657 45.9835C29.0276 42.4581 31.5021 39.4453 34.6762 37.3262C37.8503 35.207 41.5814 34.0766 45.3979 34.0779C47.9329 34.0779 50.4431 34.5775 52.7849 35.5482C55.1267 36.5189 57.2542 37.9416 59.0459 39.735C60.8375 41.5284 62.2581 43.6574 63.2265 46.0001C64.1948 48.3429 64.692 50.8535 64.6895 53.3885Z" fill="#1A6634"/>
<path d="M56.6683 50.6425C56.6683 49.186 56.0897 47.7891 55.0598 46.7592C54.0299 45.7293 52.633 45.1507 51.1765 45.1507H48.0547V40.984H42.7985V45.1507H34.2167V51.337V62.327H42.7985V66.4937H48.0547V62.327H51.1446C51.8685 62.3312 52.5861 62.1923 53.256 61.9182C53.926 61.6441 54.5352 61.2402 55.0486 60.7298C55.5619 60.2194 55.9693 59.6126 56.2473 58.9442C56.5252 58.2758 56.6683 57.5591 56.6683 56.8352C56.6692 55.7303 56.3361 54.651 55.7127 53.7389C56.3343 52.8258 56.6673 51.7471 56.6683 50.6425ZM50.3674 57.5296H39.4665V56.1344H50.361C50.4582 56.1251 50.5563 56.1362 50.649 56.167C50.7416 56.1978 50.8268 56.2477 50.8991 56.3134C50.9714 56.3791 51.0291 56.4591 51.0686 56.5484C51.1081 56.6378 51.1285 56.7343 51.1285 56.832C51.1285 56.9297 51.1081 57.0262 51.0686 57.1156C51.0291 57.2049 50.9714 57.2849 50.8991 57.3506C50.8268 57.4163 50.7416 57.4662 50.649 57.497C50.5563 57.5278 50.4582 57.5389 50.361 57.5296H50.3674ZM50.3674 51.337H39.4665V49.9481H50.361C50.5452 49.9481 50.7218 50.0212 50.852 50.1515C50.9823 50.2817 51.0554 50.4583 51.0554 50.6425C51.0554 50.8267 50.9823 51.0033 50.852 51.1336C50.7218 51.2638 50.5452 51.337 50.361 51.337H50.3674Z" fill="white"/>
</g>
<defs>
<clipPath id="clip0_1198_2801">
<rect width="171.197" height="45.2154" fill="white" transform="translate(22.9017 30.8923)"/>
</clipPath>
</defs>
</svg>
