<svg xmlns="http://www.w3.org/2000/svg" width="217" height="107" fill="none"><g clip-path="url(#a)"><path fill="#EEF6FB" d="M147.704 29.938H23.274v40.878h124.43V29.937Z"/><path fill="#55CBF5" d="M147.704 29.938h46.022v40.878h-33.519l-12.503 6.246V29.938Z"/><path fill="#fff" d="M160.508 42.611h3.058v15.501h-3.058v-15.5ZM179.488 56.097c-1.564 1.554-3.469 2.326-5.715 2.326s-4.151-.772-5.715-2.326c-1.554-1.564-2.326-3.48-2.326-5.735 0-2.256.772-4.162 2.326-5.716 1.564-1.564 3.469-2.346 5.715-2.346s4.151.782 5.715 2.346c1.564 1.554 2.346 3.46 2.346 5.716 0 2.255-.782 4.17-2.346 5.735Zm-9.284-2.086c.962.943 2.145 1.414 3.569 1.414s2.607-.471 3.569-1.414c.963-.962 1.444-2.175 1.444-3.65 0-1.473-.481-2.697-1.444-3.65-.962-.962-2.145-1.443-3.569-1.443s-2.607.481-3.569 1.444c-.963.962-1.444 2.176-1.444 3.65 0 1.474.481 2.697 1.444 3.65Z"/><path fill="#05182B" d="M35.777 41.809h7.84c1.114 0 2.177.41 2.989 1.173a4.305 4.305 0 0 1 1.383 3.028 4.292 4.292 0 0 1-1.173 3.108l-.44.462.44.46a4.332 4.332 0 0 1-.2 6.137 4.346 4.346 0 0 1-2.988 1.173h-4.612l-3.229 3.229v-18.77h-.01Zm3.56 12.272h4.28c.272 0 .532-.1.723-.28a1.044 1.044 0 0 0 .04-1.484l-2.557-2.718 2.557-2.717c.25-.26.29-.561.29-.752 0-.2-.07-.491-.33-.732-.2-.18-.452-.28-.732-.28h-4.282V54.1l.01-.02Zm14.448 3.29V45.818h-3.58V57.38h3.58v-.01Zm-.03-12.584v-2.928h-3.52v2.928h3.52ZM64.032 57.37v-3.038h-1.303c-1.073 0-1.745-.662-1.745-1.715v-4.2h2.978v-2.598h-3.078V42.25h-.412l-5.324 5.625v.531h2.246v4.923c0 2.527 1.514 4.041 4.041 4.041h2.597Zm55.948-13.145v-2.928h-3.519v2.928h3.519Zm-13.255 13.566c-3.609 0-6.126-2.546-6.126-6.186s2.517-6.177 6.126-6.177c1.033 0 2.036.281 2.878.803l.491.3v-5.224h3.539V57.37h-2.596l-.492-1.103-.331.28c-.972.813-2.185 1.244-3.499 1.244h.01Zm.562-9.304c-1.745 0-3.068 1.333-3.068 3.108 0 1.775 1.323 3.108 3.068 3.108 1.744 0 3.068-1.334 3.068-3.108 0-1.775-1.324-3.108-3.068-3.108ZM120 57.37V45.82h-3.579v11.56H120v-.01Zm-35.454 0v-7.33c0-2.747-1.634-4.581-4.05-4.581a4.484 4.484 0 0 0-3.52 1.674l-.27.34-.241-.36c-.712-1.053-1.895-1.654-3.249-1.654-1.263 0-2.486.571-3.339 1.564l-.33.38-.722-1.573h-2.447v11.56h3.58v-6.367c0-1.684.762-2.647 2.095-2.647.622 0 1.675.291 1.675 2.206v6.808h3.469v-6.367c0-2.186 1.133-2.647 2.075-2.647.772 0 1.695.381 1.695 2.206v6.808h3.59l-.01-.02Zm43.656.401c-3.539 0-6.116-2.607-6.116-6.186 0-3.58 2.517-6.147 6.116-6.147 1.334 0 2.557.432 3.55 1.234l.32.26.522-1.133h2.627V57.35h-2.738l-.441-1.063-.331.271c-.982.792-2.185 1.203-3.499 1.203l-.01.01Zm.562-9.274c-1.745 0-3.069 1.323-3.069 3.088 0 1.764 1.324 3.098 3.069 3.098 1.744 0 3.068-1.334 3.068-3.098 0-1.765-1.314-3.088-3.068-3.088ZM92.868 57.77c-3.62 0-6.346-2.657-6.346-6.186 0-3.53 2.667-6.167 6.346-6.167 3.68 0 6.357 2.537 6.367 6.026v.03c0 .251-.02.512-.05.793h-9.224l.07.38c.3 1.535 1.303 2.377 2.817 2.377 1.013 0 1.905-.421 2.397-1.143h3.58c-.923 2.396-3.21 3.88-5.977 3.88l.02.01Zm0-9.706c-1.383 0-2.356.752-2.737 2.106l-.11.401h5.815l-.12-.411c-.411-1.354-1.424-2.106-2.838-2.106l-.01.01Z"/></g><defs><clipPath id="a"><path fill="#fff" d="M23.274 29.938h170.452v47.124H23.274z"/></clipPath></defs></svg>