<svg width="217" height="107" viewBox="0 0 217 107" fill="none" xmlns="http://www.w3.org/2000/svg">
<path d="M206.362 58.7237V62.2946H210.117V58.6421L206.362 58.7237Z" fill="#C85855"/>
<path d="M206.689 51.6023C206.689 51.6023 205.097 50.378 203.445 51.4594C202.404 52.5409 202.628 53.8468 202.628 53.8468V62.0088L199.466 61.968L199.506 48.2763L202.669 48.1946L202.71 49.1333C202.71 49.1333 203.669 48.2354 204.342 48.0926C205.016 47.9498 205.75 47.8682 206.322 48.1334C206.893 48.3987 206.73 48.3987 206.73 48.3987L206.689 51.6023Z" fill="black"/>
<path d="M128.374 51.6023C128.374 51.6023 126.783 50.378 125.13 51.4594C124.089 52.5409 124.314 53.8468 124.314 53.8468V62.0088L121.151 61.968L121.192 48.2763L124.355 48.1946L124.395 49.1333C124.395 49.1333 125.355 48.2354 126.028 48.0926C126.701 47.9498 127.436 47.8682 128.007 48.1334C128.578 48.3987 128.415 48.3987 128.415 48.3987L128.374 51.6023Z" fill="black"/>
<path d="M197.874 51.5616C196.65 48.8477 193.12 48.3784 193.12 48.3784C193.12 48.3784 190.467 48.0927 188.59 49.3374C186.712 50.5617 186.019 52.745 185.774 53.6021C185.529 54.4591 185.468 57.377 186.406 58.887C187.345 60.3969 188.61 61.8253 190.528 62.1722C192.446 62.5191 194.466 62.3354 195.221 62.0293C195.976 61.7233 197.037 60.9887 197.548 60.3357C198.058 59.6623 198.058 59.6623 198.058 59.6623L195.936 58.0708C195.936 58.0708 194.793 59.9684 193.038 59.9072C191.283 59.846 190.712 59.6623 189.61 58.6217C189.059 58.1116 188.753 56.4792 188.753 56.4792L198.609 56.4588C198.588 56.4384 199.098 54.2754 197.874 51.5616ZM188.692 54.1938C188.692 54.1938 188.773 53.6429 188.977 53.0307C189.181 52.4186 190.365 50.827 191.712 50.8474C193.058 50.8678 193.915 51.0718 194.752 51.9084C195.589 52.745 195.609 54.1734 195.609 54.1734L188.692 54.1938Z" fill="black"/>
<path d="M140.352 51.5616C139.128 48.8477 135.598 48.3784 135.598 48.3784C135.598 48.3784 132.945 48.0927 131.068 49.3374C129.191 50.5617 128.497 52.745 128.252 53.6021C128.007 54.4591 127.946 57.377 128.885 58.887C129.823 60.3969 131.088 61.8253 133.006 62.1722C134.925 62.5395 136.945 62.3354 137.7 62.0293C138.455 61.7233 139.516 60.9887 140.026 60.3357C140.536 59.6623 140.536 59.6623 140.536 59.6623L138.414 58.0708C138.414 58.0708 137.271 59.9684 135.516 59.9072C133.761 59.846 133.19 59.6623 132.088 58.6217C131.537 58.1116 131.231 56.4792 131.231 56.4792L141.087 56.4588C141.066 56.4384 141.577 54.2754 140.352 51.5616ZM131.17 54.1938C131.17 54.1938 131.252 53.6429 131.456 53.0307C131.66 52.4186 132.843 50.827 134.19 50.8474C135.537 50.8678 136.394 51.0718 137.23 51.9084C138.067 52.745 138.087 54.1734 138.087 54.1734L131.17 54.1938Z" fill="black"/>
<path d="M184.55 59.8459L184.57 62.3353H181.55C181.55 62.3353 180.489 62.2741 179.795 61.5803C179.101 60.8866 178.448 60.0908 178.367 58.9073C178.285 57.7238 178.346 51.1126 178.346 51.1126L175.53 51.0922C175.53 51.0922 174.633 51.0922 173.776 51.7859C172.919 52.4797 172.633 52.8674 172.633 53.0918C172.633 53.3163 172.613 62.3353 172.613 62.3353L169.756 62.3557L169.817 48.868H172.674L172.592 50.48C172.592 50.48 173.51 49.5006 174.408 49.0312C175.306 48.5619 177.489 48.7048 177.489 48.7048H178.346L178.367 44.6646L181.326 44.6442L181.346 48.6435H184.692L184.631 51.1942H181.387V58.3972C181.387 58.3972 181.407 59.0093 181.917 59.4582C182.427 59.9071 183.427 59.9071 183.427 59.9071L184.55 59.8459Z" fill="black"/>
<path d="M167.022 50.0515C164.757 48.1538 162.308 48.3375 162.308 48.3375C161.349 48.3171 159.921 48.4599 158.329 49.5414C156.737 50.6228 155.921 52.6021 155.799 53.8672C155.676 55.1323 155.452 58.0503 157.064 59.9071C158.676 61.764 159.859 61.968 160.553 62.1721C161.247 62.3761 162.818 62.519 164.247 62.2333C165.654 61.9272 166.573 61.0702 167.695 59.9479C168.817 58.8052 169.103 56.0914 169.103 56.0914C169.103 56.0914 169.287 51.9696 167.022 50.0515ZM165.879 56.6015C165.879 56.6015 165.573 58.3971 164.655 59.1113C163.716 59.8459 162.92 59.9479 162.471 59.9479C162.022 59.9479 160.839 59.9071 160.063 58.9685C159.309 58.0095 158.86 57.3565 158.819 55.8669C158.778 54.3774 159.145 52.9286 159.635 52.2552C160.145 51.5819 161.125 50.684 162.451 50.8065C162.451 50.8065 163.655 50.6228 165.022 51.9696C166.369 53.3163 165.879 56.6015 165.879 56.6015Z" fill="black"/>
<path d="M35.6133 50.0515C33.3483 48.1538 30.8997 48.3375 30.8997 48.3375C29.9407 48.3171 28.5123 48.4599 26.9207 49.5414C25.3291 50.6228 24.5129 52.6021 24.3905 53.8672C24.2681 55.1323 24.0436 58.0503 25.6556 59.9071C27.2676 61.764 28.4511 61.968 29.1449 62.1721C29.8387 62.3761 31.4098 62.519 32.8382 62.2333C34.2461 61.9272 35.1644 61.0702 36.2866 59.9479C37.4089 58.8052 37.6946 56.0914 37.6946 56.0914C37.6946 56.0914 37.8782 51.9696 35.6133 50.0515ZM34.4706 56.6015C34.4706 56.6015 34.1645 58.3971 33.2463 59.1113C32.3077 59.8459 31.5119 59.9479 31.063 59.9479C30.614 59.9479 29.4306 59.9071 28.6552 58.9685C27.9002 58.0095 27.4513 57.3565 27.4105 55.8669C27.3697 54.3774 27.7369 52.9286 28.2267 52.2552C28.7368 51.5819 29.7162 50.684 31.0426 50.8065C31.0426 50.8065 32.2465 50.6228 33.6136 51.9696C34.9807 53.3163 34.4706 56.6015 34.4706 56.6015Z" fill="#77AC57"/>
<path d="M153.513 50.3984C151.942 48.7252 150.922 48.5211 149.8 48.3783C148.677 48.2354 147.616 48.3987 146.759 48.8272C145.902 49.2557 145.086 50.0719 145.086 50.0719V48.7252H142.107L142.127 67.4978L145.107 67.4774L145.127 60.8049C145.127 60.8049 145.249 60.907 145.433 61.0906C145.617 61.2743 146.759 61.9272 147.657 62.2333C148.555 62.5394 150.004 62.4373 150.514 62.3353C151.044 62.2333 152.534 61.6415 153.595 60.356C154.656 59.0705 154.942 56.7852 154.962 55.8669C154.983 54.9487 155.085 52.0716 153.513 50.3984ZM151.473 57.887C150.881 59.0093 150.228 59.6214 149.371 59.8255C148.514 60.0295 147.31 59.8867 146.739 59.5806C146.188 59.2746 145.127 58.4176 145.127 58.4176V52.2144C145.127 52.2144 146.127 51.3778 146.984 51.0513C147.841 50.7249 149.126 50.7249 150.065 51.1942C151.004 51.6839 151.616 52.9898 151.759 53.4387C151.901 53.908 152.065 56.7647 151.473 57.887Z" fill="black"/>
<path d="M107.337 48.7455V62.07L110.357 62.0904L110.418 52.4797C110.418 52.4797 112.091 50.9493 112.867 50.8269C113.642 50.7248 114.764 50.6636 115.499 51.1125C116.234 51.5614 116.54 52.092 116.58 52.9286C116.642 53.7652 116.723 62.0904 116.723 62.0904H119.702L119.682 52.1328C119.682 52.1328 119.539 50.3167 118.009 49.2761C116.478 48.2354 114.009 48.4803 114.009 48.4803C114.009 48.4803 112.05 48.7863 111.438 49.3373C110.377 50.1535 110.377 50.1535 110.377 50.1535V48.6435L107.337 48.7455Z" fill="#77AC57"/>
<path d="M102.093 48.7456H105.133V61.9681H102.052L102.093 48.7456Z" fill="#77AC57"/>
<path d="M102.787 43.6648L105.113 45.9909L107.5 43.6036L105.133 41.2366L102.787 43.6648Z" fill="#77AC57"/>
<path d="M100.399 62.1312L100.379 52.8877C100.379 52.8877 100.481 51.0105 99.0932 49.7658C97.7057 48.5006 96.0121 48.2762 95.0734 48.2762C94.1348 48.2762 92.6656 48.215 91.1353 49.0312C89.6049 49.8474 89.0948 50.2963 89.0948 50.2963L90.9312 52.0919C90.9312 52.0919 92.584 50.7248 93.9512 50.7248C95.3183 50.7248 96.2365 51.1941 96.6038 51.541C96.9711 51.8675 97.2364 52.4592 97.3588 53.1938C97.4608 53.9284 97.3588 54.9486 97.3588 54.9486C97.3588 54.9486 96.0937 53.9692 94.9102 53.6835C93.7063 53.3978 91.4413 53.7855 90.4619 54.3569C89.4825 54.9078 88.401 56.0505 88.2786 57.6217C88.1561 59.1929 88.605 60.3764 90.2987 61.4782C91.9719 62.5597 94.4613 62.4577 94.9918 62.3352C95.5223 62.2332 96.665 61.5803 96.9711 61.3354C97.2772 61.0905 97.3996 60.9681 97.3996 60.9681L97.3792 62.1312H100.399ZM97.3588 58.6828C97.1956 58.9276 96.665 59.3765 95.8284 59.7438C94.9918 60.1111 93.339 60.1111 92.5636 59.7438C91.7882 59.3765 91.4822 58.6828 91.4822 58.2542C91.4822 57.8257 91.5842 57.132 92.38 56.4994C93.1554 55.8669 94.3389 55.9485 95.4203 56.0709C96.5018 56.2137 97.3792 57.1116 97.3792 57.1116V58.6828H97.3588Z" fill="#77AC57"/>
<path d="M75.301 43.2771H78.3006V50.3168C78.3006 50.3168 79.382 49.0109 81.4633 48.5212C83.5447 48.0315 84.9322 48.4804 86.1565 49.521C87.3808 50.5617 87.5032 51.8268 87.5032 52.9899C87.5032 54.153 87.5032 62.0293 87.5032 62.0293H84.4425L84.5445 52.643C84.5445 52.643 84.2384 51.1126 82.4224 50.7045C80.6063 50.2964 78.2189 52.7246 78.2189 52.7246V61.9885H75.3827C75.4031 61.9885 75.3826 43.3587 75.301 43.2771Z" fill="#77AC57"/>
<path d="M72.4035 52.949L74.6889 51.3778C74.6889 51.3778 73.0361 49.1128 71.2608 48.5619C69.4652 48.011 66.8534 48.3578 66.2616 48.6639C65.6699 48.97 63.8334 49.6434 62.6295 52.5205C61.4256 55.3976 62.956 59.0297 63.4457 59.6418C63.9354 60.254 65.0985 61.8252 67.2206 62.2945C69.3428 62.7638 71.4445 62.1516 72.0974 61.7435C72.7504 61.3354 73.7911 60.4376 74.24 59.8255C74.6889 59.2133 74.6889 59.2133 74.6889 59.2133L72.2811 57.7646C72.2811 57.7646 71.4649 59.5806 70.0977 59.8255C68.7306 60.0703 67.6696 59.9683 66.7105 59.1521C65.7515 58.3359 65.0169 56.7443 65.1801 55.1527C65.3434 53.5611 65.6903 52.2144 66.8738 51.439C68.0777 50.6636 69.5264 50.8065 70.0569 50.9289C70.5875 51.0513 71.4445 51.6635 71.7506 52.0512C72.0974 52.4593 72.4035 52.949 72.4035 52.949Z" fill="#77AC57"/>
<path d="M48.2031 52.949L50.4885 51.3778C50.4885 51.3778 48.8357 49.1128 47.0605 48.5619C45.2648 48.011 42.653 48.3578 42.0612 48.6639C41.4695 48.97 39.633 49.6434 38.4291 52.5205C37.2252 55.3976 38.7556 59.0297 39.2453 59.6418C39.7351 60.254 40.8981 61.8252 43.0203 62.2945C45.1424 62.7638 47.2441 62.1516 47.8971 61.7435C48.55 61.3354 49.5907 60.4376 50.0396 59.8255C50.4885 59.2133 50.4885 59.2133 50.4885 59.2133L48.0807 57.7646C48.0807 57.7646 47.2645 59.5806 45.8974 59.8255C44.5302 60.0703 43.4692 59.9683 42.5101 59.1521C41.5511 58.3359 40.8165 56.7443 40.9798 55.1527C41.143 53.5611 41.4899 52.2144 42.6734 51.439C43.8773 50.6636 45.326 50.8065 45.8566 50.9289C46.3871 51.0717 47.2441 51.6635 47.5502 52.0512C47.8971 52.4593 48.2031 52.949 48.2031 52.949Z" fill="#77AC57"/>
<path d="M51.019 62.1314H53.9777V58.6013L56.3447 55.8262L60.1196 62.0906H63.5069L58.0995 53.8878L62.7723 48.7253L59.0994 48.7457L54.0389 54.7652L54.0185 43.2567L51.019 43.2363V62.1314Z" fill="#77AC57"/>
<path d="M20.3095 43.2363H23.3499V62.0906H20.3503L20.3095 43.2363Z" fill="#77AC57"/>
<path d="M19.3097 52.6635C18.9016 51.3779 17.6773 49.9904 16.9427 49.5415C16.2081 49.0926 14.8818 48.7661 14.2696 48.7661C13.6575 48.7661 12.1067 48.7661 11.4333 49.0926C10.76 49.4191 10.6783 49.4191 10.6783 49.4191V43.3588L7.78082 43.3792L7.84204 58.1524C7.84204 58.1524 7.92366 59.4175 9.24998 60.5194C10.5967 61.6213 11.6782 61.9069 12.576 61.9681C13.4738 62.0294 15.4939 61.9886 16.5346 61.2336C17.5752 60.499 19.0648 59.091 19.3709 57.6219C19.6565 56.1731 19.7178 53.949 19.3097 52.6635ZM16.4121 57.4178C15.902 58.4789 14.6777 59.1931 13.6779 59.2339C12.678 59.2951 11.8822 59.1523 11.3109 58.6625C10.7396 58.1524 10.6987 57.2342 10.6987 57.2342V52.439L11.066 52.0513C11.066 52.0513 11.9026 51.4187 13.2494 51.4187C14.5961 51.4187 14.841 51.5208 15.5347 51.9697C16.2489 52.439 16.5142 53.3164 16.7182 53.7653C16.9223 54.2142 16.9019 56.3568 16.4121 57.4178Z" fill="#77AC57"/>
</svg>
