<svg width="219" height="107" viewBox="0 0 219 107" fill="none" xmlns="http://www.w3.org/2000/svg">
<g clip-path="url(#clip0_1485_14197)">
<path d="M45.3201 51.6258L39.0975 48.0382L45.3201 44.4507L51.5302 48.0382L45.3201 51.6258Z" fill="#E9C62B"/>
<path d="M37.1182 51.2917L43.1675 54.7803V61.7575L37.1182 58.2689V51.2917Z" fill="#E9C62B"/>
<path d="M47.6335 54.6071L53.7941 51.0566V58.1699L47.6335 61.7203V54.6071Z" fill="#327DBC"/>
<path d="M1.4902 46.5659V51.3411L10.5209 56.5492V51.774" fill="#E9C62B"/>
<path d="M10.5209 51.7742L1.4902 46.5661L6.00556 43.9558L15.0363 49.1639L10.5209 51.7742Z" fill="#E9C62B"/>
<path d="M57.827 45.762C53.7941 43.4363 49.7612 41.1106 45.7283 38.7725C45.4438 38.6117 45.0974 38.6117 44.8129 38.7725C40.9903 40.9745 37.1677 43.1889 33.3451 45.3909C32.8379 45.6878 32.2689 45.9104 32.2689 46.6156V60.508C32.2689 60.8297 32.4421 61.1266 32.7142 61.2874C36.1162 63.2544 39.5182 65.2213 42.9202 67.1759C43.5016 67.5099 44.0706 67.8439 44.6397 68.178C45.2459 68.5243 45.6912 68.2893 46.2232 67.98C47.9303 66.9904 49.6375 66.0131 51.3323 65.0234C52.3467 64.442 51.4313 62.8709 50.4169 63.4647C48.6973 64.4543 46.9778 65.4564 45.2582 66.446C41.5222 64.2935 37.7986 62.141 34.0626 59.9885V47.0609C37.7986 44.9084 41.5222 42.7559 45.2582 40.6034C49.1427 42.8425 53.0148 45.0816 56.8992 47.3207C57.9136 47.9021 58.8167 46.3434 57.8146 45.762H57.827Z" fill="#1E1F25"/>
<path d="M45.6417 52.5165C45.6417 52.5165 45.6541 52.5165 45.6665 52.5165C45.6788 52.5165 45.6788 52.5165 45.6912 52.5165C45.8273 52.5165 45.9757 52.4794 46.1242 52.3928C48.2025 51.1929 50.2684 50.0053 52.3467 48.8053C52.9405 48.4589 52.9405 47.5806 52.3467 47.2342C51.2581 46.6033 50.1694 45.9724 49.0808 45.3538C48.388 44.9456 47.6829 44.5497 46.9901 44.1415C46.619 43.9312 46.1242 43.5229 45.6788 43.5229C45.2582 43.5229 44.8129 43.8817 44.4665 44.0796C43.7366 44.5002 42.9944 44.9332 42.2645 45.3538C41.1758 45.9847 40.0872 46.6157 38.9986 47.2342C38.4048 47.5806 38.4048 48.4589 38.9986 48.8053C41.0645 50.0053 43.1428 51.1929 45.2087 52.3928C45.3572 52.4794 45.5056 52.5165 45.6417 52.5165ZM45.6665 45.4775C47.1262 46.3188 48.5983 47.1723 50.0581 48.0136C48.5983 48.8548 47.1262 49.7084 45.6665 50.5496C44.2067 49.7084 42.7346 48.8548 41.2748 48.0136C42.7346 47.1723 44.2067 46.3188 45.6665 45.4775Z" fill="#1E1F25"/>
<path d="M37.9347 50.4999C37.6007 50.3143 37.279 50.3515 37.044 50.4999C36.7718 50.636 36.5739 50.8834 36.5739 51.2793V57.3534C36.5739 57.7616 36.4873 58.343 36.6976 58.7018C36.9079 59.0605 37.4522 59.2708 37.7986 59.4688C38.4914 59.8646 39.1965 60.2729 39.8893 60.6811C40.9408 61.2873 42.0047 61.9058 43.0686 62.512C43.6624 62.8584 44.4418 62.413 44.4418 61.7326V54.7555C44.4418 54.4338 44.2686 54.1246 43.9964 53.9761C41.98 52.8133 39.9635 51.6504 37.9594 50.4875L37.9347 50.4999ZM38.38 57.7368V52.8627C39.7903 53.6792 41.2006 54.4833 42.5985 55.2998V60.1739C41.1882 59.3574 39.778 58.5533 38.38 57.7368Z" fill="#1E1F25"/>
<path d="M53.6828 50.2526C51.6292 51.4402 49.5756 52.6278 47.5221 53.8154C47.287 53.9515 47.151 54.1494 47.1015 54.3597C47.0767 54.4339 47.0644 54.5205 47.0644 54.6071V61.7204C47.0644 62.4131 47.8314 62.8461 48.4252 62.4997C50.4787 61.3121 52.5323 60.1245 54.5858 58.9369C54.858 58.7761 55.0312 58.4668 55.0312 58.1576V51.0443C55.0312 50.3516 54.2642 49.9186 53.658 50.265L53.6828 50.2526ZM48.8829 55.1267C50.3303 54.2855 51.7777 53.4567 53.225 52.6154V57.638C51.7777 58.4792 50.3303 59.3081 48.8829 60.1493V55.1267Z" fill="#1E1F25"/>
<path d="M24.7103 47.964C23.1268 48.8795 21.531 49.7825 19.9475 50.698V47.1723C19.9475 46.863 19.7867 46.5785 19.5145 46.4177C18.4135 45.7744 17.3002 45.1435 16.1992 44.5002C16.8796 44.1043 17.5599 43.7208 18.2403 43.325C19.5393 44.0672 20.8258 44.8218 22.1248 45.5641C23.1021 46.1208 23.968 44.6239 23.0031 44.0672C19.997 42.3477 16.9785 40.6034 13.9724 38.8715C12.9951 38.3024 12.1291 39.8117 13.0941 40.3683C14.2322 41.024 15.3579 41.6796 16.4961 42.3353C15.8157 42.7312 15.1353 43.1147 14.4549 43.5105C13.1312 42.7435 11.8075 41.9765 10.4838 41.2219C9.50653 40.6652 8.64057 42.1621 9.6055 42.7188C10.6446 43.3126 11.6714 43.9188 12.7106 44.5126C12.1044 44.859 11.4982 45.2053 10.8797 45.5641C9.5189 44.7724 8.14574 43.993 6.78495 43.2013C6.51279 43.0404 6.17878 43.0404 5.90662 43.2013C4.39738 44.0672 2.9005 44.9456 1.39126 45.8115C1.34178 45.8363 1.30467 45.8734 1.25518 45.9105C1.08199 46.0466 0.958282 46.2692 0.958282 46.5661V51.3413C0.958282 51.6505 1.1191 51.9351 1.39126 52.0959C2.75205 52.8876 4.11285 53.667 5.47364 54.4587V56.5494C4.40975 55.9309 3.33348 55.3123 2.26959 54.6938C1.29229 54.1371 0.426336 55.634 1.39126 56.1906C2.75205 56.9824 4.11285 57.7617 5.47364 58.5535V61.0895C4.40975 60.471 3.33348 59.8524 2.26959 59.2339C1.29229 58.6648 0.426336 60.1741 1.39126 60.7307C5.27571 62.9822 9.16015 65.2461 13.0817 67.4357C13.3539 67.5842 13.6879 67.5966 13.96 67.4357C15.7291 66.3471 17.4981 65.2585 19.2671 64.1698C19.8238 63.8234 19.9228 63.4152 19.9228 62.8214V52.7021C21.3702 51.8732 22.8052 51.0444 24.2526 50.2155V58.4421C23.832 58.1947 23.4114 57.9473 22.9784 57.6999C22.0011 57.1308 21.1351 58.6401 22.1 59.1968C22.966 59.6916 23.8196 60.1988 24.6855 60.6936C25.2546 61.0276 25.9969 60.607 25.9969 59.939V48.7063C25.9969 48.0506 25.2546 47.63 24.6855 47.9517L24.7103 47.964ZM9.14778 46.5538C8.21996 47.0857 7.29215 47.6177 6.36434 48.1496C5.43653 47.6177 4.50871 47.0857 3.5809 46.5414C4.50871 46.0094 5.43653 45.4775 6.36434 44.9332C7.29215 45.4651 8.21996 46.0094 9.14778 46.5414V46.5538ZM10.0014 55.0278C9.07355 54.4958 8.14574 53.9639 7.21793 53.4196V50.6485C8.14574 51.1805 9.07355 51.7124 10.0014 52.2567V55.0278ZM10.8673 50.7475C9.93951 50.2155 9.02407 49.6836 8.09626 49.1516C9.02407 48.6197 9.95188 48.0877 10.8797 47.5558C11.7951 48.0877 12.7229 48.6197 13.6384 49.1516C12.7106 49.6836 11.7828 50.2155 10.8673 50.7598V50.7475ZM2.70257 50.8093V48.0383C3.63038 48.5702 4.5582 49.1022 5.47364 49.6465V52.4175C4.54583 51.8856 3.61801 51.3536 2.70257 50.8093ZM18.2032 62.7472C16.6445 63.7121 15.0734 64.677 13.5147 65.6296C11.4116 64.4544 9.3086 63.2544 7.21793 62.042V59.506C8.28182 60.1246 9.35808 60.7431 10.422 61.3617C11.3869 61.9183 12.2652 60.4215 11.3003 59.8648C9.93951 59.0854 8.57872 58.2937 7.21793 57.502V55.4113C8.28182 56.0298 9.35808 56.6484 10.422 57.2669C10.991 57.6009 11.7333 57.1803 11.7333 56.5123C11.7333 55.0896 11.7333 53.667 11.7333 52.232C13.0941 51.4526 14.4549 50.6609 15.8157 49.8815C16.3847 49.5599 16.3847 48.7063 15.8157 48.3846C14.7518 47.7661 13.6879 47.1599 12.624 46.5414C13.2302 46.195 13.8363 45.8486 14.4549 45.4899C15.7043 46.2074 16.9538 46.9373 18.2032 47.6548V51.6753C17.1146 52.2938 16.026 52.9247 14.9373 53.5433C13.96 54.1 14.8384 55.6092 15.8157 55.0402C16.6074 54.5824 17.3991 54.1247 18.2032 53.667V62.7224V62.7472Z" fill="#1E1F25"/>
<path d="M212.648 44.0178H148.839C145.874 44.0178 143.47 46.4216 143.47 49.3868V57.601C143.47 60.5662 145.874 62.9699 148.839 62.9699H212.648C215.613 62.9699 218.017 60.5662 218.017 57.601V49.3868C218.017 46.4216 215.613 44.0178 212.648 44.0178Z" fill="#1E1F25"/>
<path d="M108.597 54.5948C108.597 57.5019 106.246 59.8524 103.339 59.8524C100.432 59.8524 98.0817 57.5019 98.0817 54.5948V52.3062C98.0817 49.399 100.432 47.0486 103.339 47.0486C106.246 47.0486 108.597 49.399 108.597 52.3062V54.5948Z" fill="#E9C62B"/>
<path d="M68.3175 61.1019V45.7002H75.8884C77.6575 45.7002 78.8698 45.9847 79.5131 46.5538C80.1564 47.1228 80.478 48.1867 80.478 49.7578C80.478 51.6629 79.7234 52.7763 78.2141 53.1227V53.1846C79.9708 53.4567 80.8491 54.6814 80.8491 56.8463C80.8491 58.4174 80.5151 59.5184 79.8347 60.1493C79.1543 60.7802 77.9791 61.1019 76.2967 61.1019H68.3175ZM71.237 52.1701H74.8122C75.975 52.1701 76.7049 52.0464 77.0265 51.7866C77.3482 51.5269 77.509 50.9454 77.509 50.0176C77.509 48.7805 76.8039 48.162 75.406 48.162H71.237V52.1701ZM71.237 58.6401H74.441L75.4678 58.6153C76.4575 58.6153 77.1008 58.4793 77.41 58.1947C77.7193 57.9102 77.8801 57.3288 77.8801 56.4381C77.8801 55.5474 77.7193 54.9165 77.3853 54.6814C77.0637 54.4464 76.2472 54.3227 74.9606 54.3227H71.2246V58.6401H71.237Z" fill="#1E1F25"/>
<path d="M87.0469 45.7002V58.4793H94.2715V61.1019H84.1274V45.7002H87.0469Z" fill="#1E1F25"/>
<path d="M103.723 45.5146C106.519 45.5146 108.325 45.9847 109.129 46.9126C109.933 47.8404 110.341 49.9187 110.341 53.1475C110.341 56.6731 109.933 58.8999 109.129 59.8153C108.325 60.7308 106.358 61.1885 103.253 61.1885C100.457 61.1885 98.6508 60.7308 97.8219 59.8277C97.0055 58.9246 96.5972 56.9329 96.5972 53.8402C96.5972 50.1661 97.0055 47.8651 97.8096 46.9249C98.6137 45.9847 100.593 45.5146 103.735 45.5146H103.723ZM103.5 48.0136C101.533 48.0136 100.395 48.261 100.061 48.7682C99.727 49.2754 99.5662 51.0197 99.5662 54.001C99.5662 56.2154 99.7642 57.5391 100.148 57.9968C100.531 58.4422 101.682 58.6772 103.574 58.6772C105.467 58.6772 106.469 58.4174 106.84 57.9102C107.199 57.403 107.385 55.869 107.385 53.2959C107.385 50.7228 107.211 49.1888 106.877 48.7187C106.531 48.2486 105.418 48.0136 103.525 48.0136H103.5Z" fill="#1E1F25"/>
<path d="M122.551 55.6094H125.483V56.1414C125.483 58.2815 125.087 59.667 124.308 60.298C123.529 60.9289 121.797 61.2381 119.125 61.2381C116.081 61.2381 114.213 60.7433 113.521 59.7536C112.815 58.764 112.469 56.1042 112.469 51.7868C112.469 49.2508 112.939 47.5684 113.892 46.7766C114.844 45.9725 116.824 45.5767 119.842 45.5767C122.044 45.5767 123.504 45.9107 124.246 46.5663C124.988 47.222 125.347 48.5333 125.347 50.4879V50.8343H122.428V50.4384C122.428 49.4364 122.242 48.7807 121.858 48.5085C121.475 48.224 120.609 48.0879 119.261 48.0879C117.442 48.0879 116.353 48.3106 115.995 48.756C115.636 49.2013 115.45 50.5126 115.45 52.7023C115.45 55.6465 115.611 57.3908 115.945 57.9351C116.267 58.4794 117.331 58.7516 119.125 58.7516C120.572 58.7516 121.512 58.6032 121.945 58.3063C122.378 58.0094 122.588 57.3413 122.588 56.3269L122.564 55.6342L122.551 55.6094Z" fill="#1E1F25"/>
<path d="M131.396 45.7002V51.9722H132.77L137.891 45.7002H141.528L135.318 53.1722L142.184 61.0895H138.435L132.794 54.4216H131.396V61.0895H128.477V45.7002H131.396Z" fill="#1E1F25"/>
<path d="M155.878 49.9311V59.0856H153.775V49.9311H150.596V48.0508H159.169V49.9311H155.878Z" fill="white" stroke="white" stroke-width="0.865959" stroke-miterlimit="10"/>
<path d="M164.29 49.8198V52.6651H169.461V54.1991H164.29V57.3165H169.795V59.0856H162.2V48.0508H169.746V49.8198H164.29Z" fill="white" stroke="white" stroke-width="0.865959" stroke-miterlimit="10"/>
<path d="M185.531 48.0508V59.0732H183.478V53.061C183.478 52.5785 183.49 52.0342 183.515 51.428L183.552 50.6115L183.589 49.7951H183.527L183.28 50.5621L183.045 51.3291C182.822 52.0218 182.649 52.529 182.537 52.8507L180.162 59.0732H178.294L175.894 52.9002C175.758 52.5661 175.585 52.0466 175.375 51.3785L175.127 50.6115L174.88 49.8569H174.818L174.855 50.661L174.892 51.4651C174.929 52.0837 174.942 52.628 174.942 53.0733V59.0856H172.901V48.0508H176.228L178.158 53.1599C178.294 53.5187 178.467 54.0259 178.678 54.6816L178.913 55.4485L179.16 56.2032H179.234L179.469 55.4485L179.704 54.6939C179.902 54.0506 180.063 53.5434 180.212 53.1723L182.104 48.0508H185.506H185.531Z" fill="white" stroke="white" stroke-width="0.865959" stroke-miterlimit="10"/>
<path d="M189.069 59.0856V48.0508H194.067C195.564 48.0508 196.566 48.3106 197.086 48.8301C197.605 49.3497 197.865 50.3518 197.865 51.8363C197.865 53.3208 197.617 54.2981 197.123 54.7805C196.628 55.263 195.626 55.5104 194.117 55.5104H193.634H191.172V59.0732H189.082L189.069 59.0856ZM191.16 53.7661H193.535C194.488 53.7661 195.094 53.6548 195.341 53.4445C195.601 53.2342 195.725 52.7146 195.725 51.8981C195.725 50.9703 195.626 50.3889 195.403 50.1662C195.193 49.9435 194.636 49.8322 193.745 49.8322H191.148V53.7785L191.16 53.7661Z" fill="white" stroke="white" stroke-width="0.865959" stroke-miterlimit="10"/>
<path d="M210.471 54.5578C210.471 57.0691 208.442 59.0979 205.931 59.0979C203.419 59.0979 201.391 57.0691 201.391 54.5578V52.5909C201.391 50.0796 203.419 48.0508 205.931 48.0508C208.442 48.0508 210.471 50.0796 210.471 52.5909V54.5578Z" fill="#327DBC"/>
<g filter="url(#filter0_d_1485_14197)">
<path d="M206.141 47.9641C208.145 47.9641 209.432 48.2981 210.013 48.9661C210.582 49.6342 210.879 51.1187 210.879 53.432C210.879 55.9557 210.582 57.5515 210.013 58.2072C209.432 58.8628 208.034 59.1968 205.807 59.1968C203.803 59.1968 202.504 58.8752 201.923 58.2195C201.341 57.5763 201.044 56.1412 201.044 53.9392C201.044 51.3042 201.329 49.6589 201.91 48.9909C202.492 48.3229 203.902 47.9765 206.153 47.9765M205.993 49.7703C204.582 49.7703 203.766 49.9558 203.531 50.3146C203.296 50.6733 203.172 51.9228 203.172 54.0629C203.172 55.6464 203.308 56.599 203.593 56.9206C203.877 57.2422 204.694 57.4031 206.042 57.4031C207.39 57.4031 208.12 57.2175 208.368 56.8587C208.628 56.5 208.764 55.399 208.764 53.5557C208.764 51.7125 208.64 50.6115 208.392 50.2775C208.145 49.9434 207.341 49.7703 205.993 49.7703Z" fill="white"/>
<path d="M206.141 47.9641C208.145 47.9641 209.432 48.2981 210.013 48.9661C210.582 49.6342 210.879 51.1187 210.879 53.432C210.879 55.9557 210.582 57.5515 210.013 58.2072C209.432 58.8628 208.034 59.1968 205.807 59.1968C203.803 59.1968 202.504 58.8752 201.923 58.2195C201.341 57.5763 201.044 56.1412 201.044 53.9392C201.044 51.3042 201.329 49.6589 201.91 48.9909C202.492 48.3229 203.902 47.9765 206.153 47.9765M205.993 49.7703C204.582 49.7703 203.766 49.9558 203.531 50.3146C203.296 50.6733 203.172 51.9228 203.172 54.0629C203.172 55.6464 203.308 56.599 203.593 56.9206C203.877 57.2422 204.694 57.4031 206.042 57.4031C207.39 57.4031 208.12 57.2175 208.368 56.8587C208.628 56.5 208.764 55.399 208.764 53.5557C208.764 51.7125 208.64 50.6115 208.392 50.2775C208.145 49.9434 207.341 49.7703 205.993 49.7703Z" stroke="white" stroke-width="0.865959" stroke-miterlimit="10"/>
</g>
</g>
<defs>
<filter id="filter0_d_1485_14197" x="199.028" y="46.5911" width="13.2245" height="14.6223" filterUnits="userSpaceOnUse" color-interpolation-filters="sRGB">
<feFlood flood-opacity="0" result="BackgroundImageFix"/>
<feColorMatrix in="SourceAlpha" type="matrix" values="0 0 0 0 0 0 0 0 0 0 0 0 0 0 0 0 0 0 127 0" result="hardAlpha"/>
<feOffset dx="-0.321642" dy="0.321642"/>
<feGaussianBlur stdDeviation="0.630913"/>
<feColorMatrix type="matrix" values="0 0 0 0 0.0941176 0 0 0 0 0.145098 0 0 0 0 0.305882 0 0 0 0.14 0"/>
<feBlend mode="normal" in2="BackgroundImageFix" result="effect1_dropShadow_1485_14197"/>
<feBlend mode="normal" in="SourceGraphic" in2="effect1_dropShadow_1485_14197" result="shape"/>
</filter>
<clipPath id="clip0_1485_14197">
<rect width="217.059" height="29.7024" fill="white" transform="translate(0.970642 38.6489)"/>
</clipPath>
</defs>
</svg>
