<svg xmlns="http://www.w3.org/2000/svg" width="217" height="108" fill="none"><g clip-path="url(#a)"><path fill="#131212" d="M192.873 41.01v1.749c1.061-1.092 2.153-1.802 3.569-1.906 1.384-.105 2.71.052 3.99.671.083-.163.16-.306.25-.483h2.247v4.494h-2.32c-.028-.282-.056-.56-.083-.87-.985-1.377-2.342-1.868-4.001-1.527-.355.073-.713.25-1.016.452-.473.313-.636.804-.57 1.364.062.529.407.831.89.943.898.212 1.813.368 2.71.574.926.212 1.868.393 2.766.702 1.238.428 2.014 1.42 2.303 2.62.508 2.115-.574 4-2.644 4.72-1.955.679-3.917.679-5.799-.33-.073-.038-.16-.049-.285-.087-.049.202-.091.386-.143.605h-2.282V50.11h2.303c.042 1.127.664 1.886 1.718 2.296 1.19.463 2.38.432 3.535-.114.556-.265.897-.693.869-1.368-.02-.515-.201-.925-.688-1.092-.707-.244-1.434-.428-2.154-.623-1.002-.267-2.028-.47-3.009-.796-1.729-.578-3.002-2.206-2.518-4.439.031-.14.031-.282.055-.494H190.9l-3.659 11.434h-2.547l-3.082-9.639c-.052.007-.108.01-.16.017l-3.124 9.612h-2.557c-1.214-3.792-2.431-7.597-3.677-11.483h-1.641v-2.37h5.701v2.325c-.518.02-1.03.045-1.534.066-.024.72 1.722 6.48 2.352 7.816.027 0 .055.007.08 0 .027-.003.069-.01.076-.027.501-1.5 1.009-2.996 1.496-4.498.344-1.058.668-2.126 1.03-3.284-.533-.028-.954-.053-1.423-.077v-2.31h6.581v2.3c-.441.024-.887.052-1.481.083.845 2.665 1.662 5.25 2.494 7.869.435-.428 2.254-5.785 2.703-7.876h-1.757V41h6.115l-.013.01Z"/><path fill="#E3AA53" d="M13.27 72.55v-2.658h2.542V53.988h-2.529v-2.623c.126-.02.286-.07.446-.07 2.807.01 5.614.014 8.421.053.69.01 1.385.107 2.067.226 2.22.386 3.538 1.795 4.038 3.889.536 2.226-.02 4.167-1.99 5.552-.093.066-.198.111-.375.205.348.188.546.303.748.407 2.915 1.475 3.468 5.086 2.292 7.472-1.071 2.174-2.984 3.068-5.249 3.28-1.639.157-3.294.14-4.94.164-1.791.024-3.586.007-5.468.007h-.004Zm5.826-2.609c1.552-.09 3.023-.108 4.47-.282 1.573-.188 2.595-1.422 2.668-3.016.08-1.833-.765-3.176-2.34-3.558-1.549-.376-3.135-.348-4.714-.286-.039.136-.08.216-.08.293-.004 2.212 0 4.424 0 6.846l-.004.003Zm.031-9.733c1.308-.087 2.55-.08 3.76-.268 1.462-.226 2.206-1.162 2.293-2.602.098-1.607-.494-2.581-1.94-3.061-1.337-.446-2.714-.29-4.113-.275v6.206Z"/><path fill="#131212" d="M154.037 49.987V37.478h-2.751v-2.456h7.976v2.432h-2.814v17.42h-3.082l-9.285-16.443c-.233.644-.313 12.085-.118 13.86h2.682v2.393h-7.98V52.29h2.741V37.485h-2.72V35.13c.605-.205 4.157-.275 6.686-.118l8.53 15.038.139-.063h-.004Z"/><path fill="#E3AA53" d="M80.23 72.505c-2.271-2.293-4.682-4.724-7.1-7.166-.184.598-.226 3.464-.062 4.65h2.442v2.502h-8.057v-2.467h2.581v-16.13H67.44v-2.536h5.493V64.57c1.948-1.412 3.642-2.853 5.343-4.373H76.13v-2.393h8.098v2.313H82.07l-5.503 4.564c1.767 1.757 3.5 3.482 5.385 5.354h2.282v2.473h-3.997l-.007-.003ZM112.411 70.018h2.463v2.487h-5.35c-.014-.261-.042-.511-.042-.762 0-2.943 0-5.886-.003-8.829 0-.49-.004-.984-.073-1.468-.129-.897-.738-1.447-1.653-1.464a4.187 4.187 0 0 0-1.28.177c-1.141.355-2.146.974-3.064 1.687v8.144h2.469v2.501h-8.07v-2.466h2.578V53.922h-2.564v-2.578h5.527v8.05c.39-.254.644-.414.898-.585 1.322-.883 2.724-1.492 4.366-1.436 1.788.059 3.402 1.009 3.638 3.12.077.685.146 1.378.153 2.066.021 2.164.007 4.328.007 6.492v.97-.003ZM144.092 70.032h2.511v2.497c-2.64.042-5.284.01-7.98.021v-2.536h2.498v-9.677h-2.508v-2.53h5.427v1.73c.421-.261.727-.456 1.04-.64 1.36-.804 2.772-1.406 4.407-1.35 1.604.052 3.27 1.151 3.43 2.936.063.688.167 1.374.174 2.063.021 2.163.007 4.327.007 6.49v.95h2.459v2.522h-5.346c-.014-.274-.038-.525-.038-.779 0-2.887 0-5.77-.004-8.658 0-.432 0-.87-.052-1.294-.153-1.173-.863-1.701-2.046-1.587-1.095.108-2.052.568-2.963 1.145-.341.216-.665.456-1.013.7v7.997h-.003ZM36.608 65.14c-.101-4.644 3.719-7.847 7.84-7.781 4.447.073 7.779 3.36 7.762 7.799-.018 4.804-3.542 7.924-7.96 7.872-4.275-.052-7.698-3.19-7.646-7.89h.004Zm8.244 5.013c.992-.031 2.181-.535 3.082-1.62 1.274-1.528 1.479-3.278.908-5.122-.932-3.022-4.616-4.25-7.176-2.4-1.329.96-1.91 2.324-2.007 3.935-.174 2.86 1.986 5.225 5.193 5.207ZM127.338 70.01h2.425v2.491h-4.985c-.028-.49-.052-.96-.087-1.59-.393.282-.685.502-.984.7-1.733 1.148-3.58 1.58-5.594.831-1.931-.72-3.075-2.316-3.089-4.264-.014-1.959 1.179-3.657 3.082-4.387 1.965-.755 3.854-.494 5.694.424.178.087.341.195.634.362.069-1.19.146-2.275-.254-3.301-.293-.752-.985-1.11-1.736-1.315-1.809-.498-3.284.007-4.484 1.551l-2.703-.692c.636-1.3 1.562-2.198 2.814-2.73 2.348-1 4.717-1.023 7.065.01 1.18.518 1.823 1.489 2.053 2.717.111.591.142 1.203.146 1.805.014 2.421.007 4.846.007 7.392l-.004-.003Zm-2.894-2.939c-1.259-1.03-2.654-1.596-4.303-1.433-1.378.136-2.366 1.19-2.341 2.515.024 1.36 1.012 2.324 2.435 2.39 1.701.076 3.054-.63 4.213-1.764v-1.708h-.004Z"/><path fill="#131212" d="M171.639 48.537H160.09c.282 1.958 1.183 3.398 2.999 3.986 2.452.793 4.55.08 6.206-1.948.758.327 1.496.64 2.271.974-.278.713-.782 1.176-1.294 1.632-2.974 2.644-8.178 2.57-11.072-.15-1.743-1.638-2.234-3.701-2.049-5.993.278-3.417 3.099-5.72 5.649-6.245 3.127-.64 6.383.852 7.897 3.597.546.988.852 2.293.946 4.147h-.004Zm-2.897-1.973c-.216-2.035-2.209-3.74-4.335-3.75-2.146-.01-3.892 1.555-4.139 3.75h8.474Z"/><path fill="#E3AA53" d="M65.199 67.471c.79.369 1.517.713 2.292 1.075-.1.605-.462 1.05-.782 1.51-.978 1.42-2.331 2.3-3.997 2.692-.665.157-1.35.345-2.022.324-2.275-.073-4.257-.814-5.774-2.627-2.212-2.643-2.567-6.842-.678-9.691 1.67-2.515 4.456-3.959 7.816-3.173.633.146 1.214.515 1.816.79.177.08.348.18.567.296.038-.31.07-.56.111-.901h2.474v5.555h-2.474c-.038-.111-.097-.236-.125-.369-.365-1.885-2.132-3.009-4.056-2.89-2.199.135-3.823 1.67-4.112 3.854-.18 1.37-.038 2.678.536 3.966 1.538 3.433 6.258 3.047 7.848.473.167-.268.337-.532.556-.88l.004-.004ZM94.962 58.642c.045-.334.077-.574.111-.845h2.498v5.524h-2.48c-.042-.118-.098-.243-.129-.376-.414-1.93-2.122-2.998-4.063-2.89-2.129.118-3.66 1.499-4.053 3.603a6.99 6.99 0 0 0 .522 4.297c1.482 3.263 6.2 3.047 7.862.32.15-.244.303-.484.494-.797.769.355 1.517.703 2.341 1.085-.344.912-.876 1.646-1.503 2.32-.89.96-2.01 1.549-3.266 1.855-.692.17-1.416.368-2.115.33-3.541-.198-5.747-1.645-7.044-4.905-1.01-2.536-.88-5.117.67-7.451 1.66-2.498 4.457-3.886 7.668-3.148.637.146 1.228.48 1.837.737.201.087.393.206.65.341ZM35 70.004h2.275v2.483h-7.712v-2.445h2.522V53.929h-2.511v-2.575h5.43v18.653L35 70.004ZM132.65 60.32h-2.16v-2.495h5.114v12.13h2.247v2.526h-7.354v-2.425h2.153v-9.737Z"/><path fill="#131212" d="M133.461 54.833c-.647-.059-1.19-.264-1.646-.723-.852-.86-.803-2.112.14-2.877.828-.675 2.222-.686 3.068-.025 1.231.96.988 2.738-.477 3.364-.337.143-.72.181-1.082.265l-.003-.004Z"/></g><defs><clipPath id="a"><path fill="#fff" d="M13.27 34.928h190.46v38.144H13.27z"/></clipPath></defs></svg>