<svg width="217" height="107" viewBox="0 0 217 107" fill="none" xmlns="http://www.w3.org/2000/svg">
<path d="M41.0833 40.3312H54.2521C56.6107 40.3312 58.9693 40.9208 61.0658 41.9691L61.7865 42.3622V64.8999L60.6072 65.293C59.1003 65.8172 57.5279 66.0792 55.9555 66.0792H41.0833V40.3312ZM48.9453 50.3552H54.5142C55.4314 50.3552 56.1521 49.6345 56.1521 48.7173C56.1521 47.8001 55.4314 47.0794 54.5142 47.0794H48.9453V50.3552ZM48.9453 59.2655H54.5142C55.4314 59.2655 56.1521 58.5448 56.1521 57.6276C56.1521 56.7103 55.4314 55.9897 54.5142 55.9897H48.9453V59.2655Z" fill="black"/>
<path d="M63.2935 40.3312V66.0792H80.7864V65.3585C80.0657 64.9654 79.345 64.4413 78.5588 63.7861C76.5278 62.0172 75.4796 59.9862 74.9554 58.6758H71.6141V40.3312H63.2935Z" fill="black"/>
<path d="M85.8966 66.3414C83.8001 65.8172 82.3587 64.8345 81.5725 64.3104C80.3932 63.5242 77.445 61.4931 76.0036 57.6277C74.1036 52.3863 76.4622 47.7346 76.8553 47.014C79.2139 42.5588 83.3415 40.9864 84.4552 40.5933C84.7828 40.4623 91.1379 38.3658 96.9689 42.1002C98.9999 43.4105 100.245 44.9174 100.965 45.9002C100.703 46.1622 100.376 46.4898 100.048 47.014C99.9172 47.276 99.262 48.1277 98.8689 49.7001C97.8206 53.6311 98.9344 56.8415 98.9344 56.8415C99.262 57.6932 99.8517 59.2001 101.228 60.6414C100.9 61.0345 100.441 61.6897 99.7206 62.4104C96.3793 65.6862 91.0069 67.6517 85.8966 66.3414ZM89.1069 49.2415C86.8138 49.2415 84.9794 51.076 84.9794 53.3691C84.9794 55.6622 86.8138 57.4966 89.1069 57.4966C91.4 57.4966 93.2345 55.6622 93.2345 53.3691C93.2345 51.076 91.4 49.2415 89.1069 49.2415Z" fill="black"/>
<path d="M104.962 63.6554C104.307 63.1313 103.521 62.3451 102.734 61.2968C102.407 60.8382 100.9 58.8072 100.31 55.7279C100.048 54.4831 99.3276 50.6176 101.49 46.8176C104.176 42.0349 109.352 40.9866 110.793 40.659C115.117 39.7418 118.721 40.9866 120.227 41.5763V50.8141L117.476 52.321C117.345 51.9934 117.148 51.2727 116.493 50.6831C115.183 49.4383 113.545 49.7003 113.348 49.7003C113.217 49.7003 111.317 50.0279 110.531 51.8624C109.941 53.1727 110.203 54.7451 111.186 55.7934C111.317 55.9244 112.365 57.0382 113.938 56.9727C115.445 56.9072 116.755 55.8589 117.279 54.2865L120.227 55.7934V58.3485H119.048V61.1658H116.034V58.152H113.479V66.8002H110.99V66.2761L112.89 64.3761L111.317 63.0002L109.679 64.1795C109.614 64.1795 109.483 64.245 109.286 64.245C108.565 64.3106 107.845 63.8519 107.452 63.2623C106.993 62.4761 107.059 61.3623 107.714 60.7727C108.5 60.1175 110.007 60.314 110.859 61.4933L112.693 60.183C112.562 59.8554 112.234 59.2658 111.71 58.8072C110.662 57.8244 109.352 57.8244 108.893 57.8244C108.434 57.8244 107.452 57.8244 106.534 58.4796C105.421 59.2003 105.093 60.2485 104.962 60.5761C104.7 61.3623 104.765 62.083 104.831 62.4761L104.962 63.6554Z" fill="black"/>
<path d="M115.772 63.1965V66.7344L119.31 65.7517V63.1965H115.772Z" fill="black"/>
<path d="M121.8 66.7344V40.3312H130.252V48.1932L135.82 40.3312H146.5L136.803 52.2552L140.865 57.8897V62.1482L137.786 58.1517H135.362V66.7344H133.92V58.0207H131.496V66.7344L127.827 58.0862H125.01L121.8 66.7344Z" fill="black"/>
<path d="M127.5 63.5897L126.517 60.5104L125.534 63.5897H127.5Z" fill="black"/>
<path d="M128.155 65.1621H124.879V66.3414H128.155V65.1621Z" fill="black"/>
<path d="M137.589 62.6069V66.3414H140.669L137.589 62.6069Z" fill="black"/>
<path d="M143.42 62.6069V66.3414H146.5L143.42 62.6069Z" fill="black"/>
<path d="M147.744 51.9932H141.586V54.4828H147.744V51.9932Z" fill="black"/>
<path d="M175.917 67.062H150.431V40.3312H175.917V67.062ZM158.948 52.6483L160.193 51.469C161.962 49.7656 162.486 48.9139 162.486 47.8656C162.486 46.1622 161.306 45.1139 159.144 45.1139C156.917 45.1139 155.606 46.2277 155.41 48.2587V48.3897H157.834V48.2587C157.9 47.2759 158.293 46.8828 158.948 46.8828C159.603 46.8828 159.996 47.2759 159.996 47.9311C159.996 48.7828 159.537 49.438 158.162 50.7483L155.279 53.4345V54.4828H162.42V52.6483H158.948ZM171.592 52.4518V50.5518H170.479V45.3104H167.858L163.73 51.1414V52.4518H168.055V54.4828H170.479V52.4518H171.592ZM168.055 50.5518H166.22L167.596 48.6518C167.727 48.4552 167.924 48.1932 168.12 47.8656V50.5518H168.055ZM156.851 55.9897C155.475 55.9897 154.296 56.9069 154.296 58.7414C154.296 60.5103 155.41 61.4275 156.786 61.4275C158.096 61.4275 159.013 60.7724 159.144 59.5276V59.4621H157.768V59.5276C157.637 60.1172 157.31 60.4448 156.786 60.4448C156.196 60.4448 155.672 59.9862 155.672 58.6758C155.672 57.5621 156.131 57.0379 156.786 57.0379C157.31 57.0379 157.703 57.3 157.768 57.8897V57.9552H159.144V57.8897C159.079 56.7759 158.293 55.9897 156.851 55.9897ZM162.42 55.9897C160.782 55.9897 159.799 57.0379 159.799 58.6758C159.799 60.3138 160.848 61.362 162.42 61.362C164.058 61.362 165.106 60.3138 165.106 58.6758C165.106 57.0379 164.058 55.9897 162.42 55.9897ZM162.42 60.3793C161.634 60.3793 161.175 59.7896 161.175 58.6758C161.175 57.5621 161.634 56.9724 162.42 56.9724C163.206 56.9724 163.665 57.5621 163.665 58.6758C163.73 59.7896 163.206 60.3793 162.42 60.3793ZM171.855 56.1207H169.824L168.972 59.9862L168.12 56.1207H166.024V61.2965H167.399V59.069C167.399 58.6103 167.399 57.9552 167.399 57.431C167.465 57.9552 167.661 58.6103 167.727 59.069L168.317 61.231H169.693L170.282 59.069C170.413 58.6103 170.544 57.9552 170.675 57.431C170.675 57.9552 170.675 58.6103 170.675 59.069V61.231H172.051V56.1207H171.855Z" fill="black"/>
</svg>
