<svg width="217" height="107" viewBox="0 0 217 107" fill="none" xmlns="http://www.w3.org/2000/svg">
<g clip-path="url(#clip0_2359_5149)">
<path d="M38 53.5001V69.6289H108.5H179V53.5001V37.3714H108.5H38V53.5001ZM144.612 38.8929C146.499 39.2987 148.71 40.3942 150.07 41.6521L151.185 42.6665L151.246 40.6783L151.307 38.6901L155.324 38.6292L159.321 38.5886V44.0663V49.544H164.19H169.059V44.0663V38.5886H173.117H177.174L177.134 48.5702C177.113 54.0682 177.052 60.7023 177.012 63.2788L176.951 68.0059H173.015H169.059V62.2239V56.4419H164.19H159.321V62.2239V68.0059H155.243H151.185L151.246 65.5105L151.307 63.0354L149.887 64.4758C148.447 65.9568 147.108 66.7683 144.917 67.519C143.192 68.1073 138.993 68.0667 137.187 67.4378C131.445 65.4496 127.469 59.5865 127.469 53.1552C127.469 50.7004 127.895 48.9354 129.234 45.9328C129.315 45.7502 128.544 45.6893 125.785 45.6893H122.235L122.113 47.3529C122.052 48.2862 121.93 53.3581 121.87 58.6126L121.728 68.2088H117.609H113.47V56.9491V45.6893L108.784 45.7299L104.077 45.7908L100.689 57.0099C98.8227 63.1774 97.2606 68.2493 97.22 68.2696C97.1794 68.2899 89.5918 68.2899 80.3406 68.2493L63.5626 68.1885L63.5423 65.7134C63.5423 63.3397 63.522 63.2585 63.2177 63.7455C62.4468 64.9019 60.5397 66.5452 59.1399 67.2552C56.117 68.7565 52.0797 69.0406 49.1177 67.945C43.3763 65.8554 39.623 60.2357 39.623 53.7436C39.623 50.599 40.4548 47.8398 42.1793 45.2633C44.5935 41.6115 48.4888 39.461 53.0129 39.2581C56.7865 39.0755 59.7891 40.0899 62.3047 42.3419L63.5626 43.4983V41.1449V38.7915H67.6201H71.698L71.556 49.9498L71.414 61.108L78.7378 61.1486C84.0938 61.1892 86.082 61.1486 86.082 60.9863C86.082 60.6008 80.6652 45.0198 78.8799 40.3131L78.3929 38.9944H82.5114H86.6298L88.1919 43.9243C90.1396 50.1121 92.6958 57.3548 92.8176 57.1316C92.9393 56.9288 96.6519 44.4721 97.5649 41.226C97.8489 40.1711 98.1532 39.2378 98.2344 39.1567C98.2952 39.0958 105.538 38.9741 114.343 38.9132L130.309 38.8118V41.4898V44.1678L131.04 43.2954C132.703 41.3072 135.828 39.4813 138.526 38.9132C140.372 38.5278 142.827 38.5278 144.612 38.8929Z" fill="black"/>
<path d="M149.076 46.3182L147.047 48.2455L146.276 47.3731C145.14 46.1356 143.679 45.6284 141.569 45.7298C139.642 45.8312 138.648 46.2776 137.532 47.5151C136.233 48.9556 135.584 50.964 135.584 53.5C135.604 57.2127 137.775 60.5602 140.494 61.0065C142.401 61.3311 144.653 60.3573 145.911 58.6531L146.6 57.6996L148.852 59.4038L151.104 61.0876L151.165 56.9287C151.185 54.6564 151.185 50.9032 151.165 48.5904L151.104 44.3908L149.076 46.3182Z" fill="black"/>
<path d="M61.2498 46.8863L59.2413 48.9151L58.45 48.0224C57.3342 46.7443 55.8735 46.2371 53.7027 46.3385C51.6334 46.44 50.2132 47.1703 49.2191 48.631C47.17 51.5931 47.2715 56.7056 49.4423 59.5459C50.7204 61.2297 52.8912 62.0413 54.7577 61.5341C55.9344 61.2095 57.3951 60.1748 58.1052 59.1604L58.7138 58.2677L60.8846 59.9313C62.0816 60.8443 63.1771 61.6761 63.3191 61.7775C63.5017 61.9398 63.5626 60.2356 63.5626 53.4189C63.5626 48.7325 63.5017 44.8778 63.4003 44.8778C63.3191 44.8778 62.3453 45.7907 61.2498 46.8863Z" fill="black"/>
</g>
<defs>
<clipPath id="clip0_2359_5149">
<rect width="141" height="32.2576" fill="white" transform="translate(38 37.3711)"/>
</clipPath>
</defs>
</svg>
