<svg width="217" height="107" viewBox="0 0 217 107" fill="none" xmlns="http://www.w3.org/2000/svg">
<g clip-path="url(#clip0_2359_5141)">
<path d="M49.3338 75.5033C61.486 75.5033 71.3372 65.652 71.3372 53.4998C71.3372 41.3476 61.486 31.4963 49.3338 31.4963C37.1816 31.4963 27.3303 41.3476 27.3303 53.4998C27.3303 65.652 37.1816 75.5033 49.3338 75.5033Z" fill="#1074B7" stroke="white" stroke-width="0.222015" stroke-miterlimit="10"/>
<path d="M49.3337 75.9456C44.8944 75.9456 40.5547 74.6292 36.8636 72.1629C33.1724 69.6965 30.2955 66.1909 28.5966 62.0895C26.8977 57.9881 26.4532 53.475 27.3193 49.121C28.1854 44.7669 30.3231 40.7675 33.4622 37.6284C36.6013 34.4893 40.6007 32.3516 44.9548 31.4855C49.3088 30.6194 53.8219 31.0639 57.9233 32.7628C62.0247 34.4617 65.5303 37.3386 67.9967 41.0298C70.463 44.7209 71.7794 49.0606 71.7794 53.4999C71.7705 59.4501 69.4028 65.1541 65.1953 69.3615C60.9879 73.569 55.2839 75.9367 49.3337 75.9456ZM49.3337 32.0517C45.0917 32.0517 40.9449 33.3096 37.4177 35.6664C33.8906 38.0232 31.1415 41.3729 29.5182 45.2921C27.8948 49.2112 27.4701 53.5237 28.2976 57.6843C29.1252 61.8448 31.168 65.6665 34.1676 68.6661C37.1671 71.6657 40.9888 73.7084 45.1494 74.536C49.3099 75.3636 53.6225 74.9388 57.5416 73.3155C61.4607 71.6921 64.8105 68.9431 67.1673 65.4159C69.524 61.8888 70.7819 57.742 70.7819 53.4999C70.7681 47.8158 68.5039 42.3684 64.4846 38.349C60.4653 34.3297 55.0179 32.0656 49.3337 32.0517Z" fill="white"/>
<path d="M49.3338 76.3896C61.9754 76.3896 72.2235 66.1415 72.2235 53.4999C72.2235 40.8582 61.9754 30.6101 49.3338 30.6101C36.6921 30.6101 26.444 40.8582 26.444 53.4999C26.444 66.1415 36.6921 76.3896 49.3338 76.3896Z" stroke="#1174B7" stroke-width="0.88806" stroke-miterlimit="10"/>
<path d="M55.6521 41.6619C54.4166 41.1348 53.1011 40.82 51.7609 40.7308V35.9424H49.467V40.6311C48.9886 40.6301 48.5108 40.6634 48.0372 40.7308V35.9424H45.7427V41.1964C43.832 41.7808 42.1031 42.8455 40.7214 44.2888C38.3272 46.7496 37.1301 49.942 37.1301 53.899C37.1301 57.59 38.1942 60.5827 40.3224 62.8439C41.7723 64.4025 43.6633 65.4814 45.7427 65.9366V71.0243H48.037V66.2359C48.3034 66.2359 48.5359 66.2692 48.8018 66.2692H49.4679V71.0576H51.7609V66.0698C53.1167 65.8769 54.4312 65.4611 55.6514 64.8394V62.0127C53.8225 63.1101 51.6612 63.6754 49.1671 63.6754C46.4736 63.6754 44.312 62.7776 42.6494 60.9819C40.9867 59.1862 40.1555 56.792 40.1555 53.7664C40.1555 50.5741 41.0533 48.0469 42.8156 46.1513C44.578 44.2557 46.9065 43.2911 49.733 43.2911C51.7917 43.2691 53.8205 43.7849 55.6188 44.7875V41.6619H55.6521Z" fill="white"/>
<path d="M50.3315 48.7447C52.0275 48.7447 53.4573 49.0777 54.6211 49.7755V46.5842C53.2505 46.1216 51.811 45.8964 50.3646 45.9182C47.8041 45.9182 45.7758 46.683 44.2461 48.1794C42.7164 49.6758 41.9518 51.6044 41.9518 53.9995C41.9518 56.3604 42.6501 58.2226 44.0467 59.5861C45.4434 60.9495 47.3721 61.6144 49.7996 61.6144C51.9942 61.6144 53.8231 61.1822 55.3195 60.3507V52.6675H48.8684V55.3954H51.8945V58.3548C51.4283 58.5875 50.764 58.6878 49.9659 58.6878C48.6025 58.6878 47.5383 58.2556 46.7404 57.4241C45.9423 56.5596 45.5433 55.3625 45.5433 53.7995C45.5433 52.2698 45.9756 51.0394 46.8734 50.1085C47.7377 49.2102 48.9009 48.7447 50.3315 48.7447Z" fill="white"/>
<path d="M94.8675 57.7112C93.0776 59.4372 90.8401 60.2684 88.3469 60.2684C81.9542 60.2684 79.2692 55.8574 79.2054 51.3827C79.2054 46.9078 82.0821 42.3052 88.3469 42.3052C90.7204 42.3058 92.9967 43.2484 94.6757 44.9261L92.5021 47.0352C91.37 45.9945 89.8846 45.4231 88.3469 45.4367C84.1917 45.4367 82.4018 48.5052 82.4018 51.3818C82.4018 54.2585 84.0638 57.1986 88.3469 57.1986C89.9567 57.1665 91.5006 56.5535 92.694 55.4727L94.8675 57.7112Z" fill="#1174B7"/>
<path d="M108.292 53.8117C108.292 57.3277 105.927 60.1404 101.963 60.1404C97.9999 60.1404 95.6985 57.3277 95.6985 53.8117C95.6985 50.3596 98.1276 47.4829 101.963 47.4829C105.799 47.4829 108.292 50.3596 108.292 53.8117ZM98.6391 53.8117C98.6391 55.6655 99.7269 57.3917 101.963 57.3917C104.137 57.3917 105.288 55.6657 105.288 53.8117C105.288 52.0218 104.009 50.2317 101.963 50.2317C99.7898 50.2317 98.6391 52.0218 98.6391 53.8117Z" fill="#1174B7"/>
<path d="M113.598 44.3503C113.598 46.7157 110.082 46.7157 110.082 44.3503C110.082 41.985 113.598 41.9852 113.598 44.3503ZM110.338 47.6746V59.8215H113.342V47.6746H110.338Z" fill="#1174B7"/>
<path d="M124.977 59.8847V53.492C124.977 51.6382 123.954 50.2317 122.037 50.2317C120.183 50.2317 118.968 51.7661 118.968 53.6199V59.8847H115.963V47.7387H118.648L118.84 49.4007C120.055 48.1861 121.269 47.6108 122.803 47.6108C125.68 47.6108 127.918 49.72 127.918 53.556V59.9487H124.977V59.8847Z" fill="#1174B7"/>
<path d="M143.516 46.8446C142.322 45.7638 140.778 45.1508 139.169 45.1187C135.461 45.1187 133.224 47.9314 133.224 51.4474C133.224 54.2601 134.886 57.2007 139.169 57.2007C140.598 57.2309 141.987 56.7297 143.068 55.7942V52.7249H138.657V49.8482H146.01V57.0719C144.284 58.9897 142.174 60.1404 139.17 60.1404C132.713 60.1404 130.092 55.8573 130.092 51.3824C130.092 46.524 133.097 42.0491 139.17 42.0491C141.56 42.0608 143.852 43.0005 145.562 44.67L143.516 46.8446Z" fill="#1174B7"/>
<path d="M158.091 47.7385H160.968V59.8845H158.155L158.027 58.0946C157.324 59.5011 155.47 60.2038 154.064 60.2038C150.484 60.2042 147.799 58.0302 147.799 53.7476C147.799 49.5923 150.548 47.3549 154.128 47.4188C155.726 47.4188 157.325 48.1859 157.963 49.4005L158.091 47.7385ZM150.804 53.812C150.804 56.1134 152.402 57.5196 154.384 57.5196C159.114 57.5196 159.114 50.168 154.384 50.168C152.402 50.1043 150.804 51.4462 150.804 53.812Z" fill="#1174B7"/>
<path d="M163.461 64.5514V47.7387H166.274L166.465 49.4007C167.424 48.0582 169.023 47.4829 170.429 47.4829C174.137 47.4829 176.63 50.2317 176.63 53.8117C176.63 57.3277 174.392 60.1404 170.493 60.1404C169.214 60.1404 167.296 59.7568 166.466 58.4145V64.5514H163.461ZM173.625 53.8117C173.625 51.8939 172.347 50.3596 170.173 50.3596C168 50.3596 166.721 51.8939 166.721 53.8117C166.721 54.7273 167.085 55.6054 167.732 56.2528C168.38 56.9003 169.258 57.264 170.173 57.264C171.089 57.264 171.967 56.9003 172.615 56.2528C173.262 55.6054 173.626 54.7273 173.626 53.8117H173.625Z" fill="#1174B7"/>
<path d="M181.424 54.8984C181.616 56.3688 182.894 57.4556 185.068 57.4556C186.155 57.4556 187.625 57.0082 188.328 56.3049L190.246 58.2226C188.967 59.5652 186.858 60.2043 185.004 60.2043C180.849 60.2043 178.356 57.6474 178.356 53.7477C178.356 50.0401 180.849 47.4189 184.812 47.4189C188.84 47.4189 191.397 49.9122 190.949 54.8984H181.424ZM188.009 52.4052C187.817 50.8067 186.602 50.0398 184.876 50.0398C183.278 50.0398 181.936 50.8069 181.488 52.4052H188.009Z" fill="#1174B7"/>
</g>
<defs>
<clipPath id="clip0_2359_5141">
<rect width="165" height="46.6678" fill="white" transform="translate(26 30.1663)"/>
</clipPath>
</defs>
</svg>
