<svg width="217" height="108" fill="none" xmlns="http://www.w3.org/2000/svg"><path d="M108.416 92.526c-21.357 0-38.61-17.253-38.61-38.61s17.253-38.61 38.61-38.61 38.61 17.253 38.61 38.61-17.253 38.61-38.61 38.61Z" fill="#fff"/><path fill-rule="evenodd" clip-rule="evenodd" d="M108.417 92.903c-21.525 0-38.987-17.504-38.987-38.987 0-21.482 17.504-38.987 38.987-38.987 21.482 0 38.987 17.505 38.987 38.987 0 21.483-17.463 38.987-38.987 38.987Zm0-77.22c-21.064 0-38.234 17.17-38.234 38.233 0 21.064 17.17 38.234 38.234 38.234s38.233-17.17 38.233-38.234-17.169-38.233-38.233-38.233Z" fill="#D09E59"/><path fill-rule="evenodd" clip-rule="evenodd" d="M108.333 19.117c.46-.168.879-.168.963 0 .042.168-.293.419-.754.586-.461.168-.879.168-.963 0-.042-.125.293-.418.754-.586Zm.167 1.047c.461.21.796.46.712.628-.084.167-.502.126-.963-.084-.461-.21-.796-.46-.712-.628.084-.167.503-.125.963.084ZM105.736 19.242c.461-.209.88-.25.964-.083.083.167-.252.418-.712.628-.461.21-.88.251-.963.084-.042-.168.251-.42.711-.629Zm-.67 1.005c-.041.168.294.42.754.587.503.167.921.167.963 0 .042-.168-.293-.42-.753-.587-.503-.167-.922-.167-.964 0ZM103.182 19.536c.419-.252.837-.294.921-.168.084.126-.209.46-.67.67-.419.251-.837.293-.921.168-.042-.126.251-.461.67-.67Zm-.628 1.047c-.042.167.335.377.795.502.503.126.922.084.964-.084.041-.167-.335-.377-.796-.502-.461-.126-.88-.084-.963.084ZM100.669 19.996c.419-.25.838-.377.922-.209.083.126-.168.46-.587.754-.418.251-.837.377-.921.21-.084-.168.168-.462.586-.755Zm.419.963c.503.084.88.294.838.461-.042.168-.461.21-.922.126-.502-.084-.879-.293-.837-.46 0-.168.419-.21.921-.127ZM98.156 20.666c.42-.293.796-.419.88-.293.084.125-.126.46-.545.796-.418.293-.795.418-.879.293-.084-.126.168-.503.544-.796Zm-.418 1.13c0 .168.377.336.879.378.502.041.921-.042.921-.21 0-.167-.377-.335-.88-.377-.502-.041-.92.042-.92.21ZM95.727 21.504c.377-.335.754-.503.88-.377.125.126-.126.502-.503.796-.377.335-.754.502-.88.376-.083-.083.126-.46.503-.795Zm-.377 1.172c0 .168.377.335.88.335.502 0 .921-.125.921-.293 0-.167-.377-.335-.88-.335-.46 0-.879.126-.92.293ZM93.383 22.55c.335-.334.712-.544.837-.418.126.126-.084.503-.419.838-.335.335-.712.544-.837.418-.126-.125.084-.502.419-.837Zm-.293 1.173c0 .168.418.294.92.252.503 0 .88-.168.88-.335 0-.168-.419-.294-.921-.252-.46 0-.88.168-.88.335ZM91.08 23.765c.334-.377.67-.586.795-.502.126.125-.042.502-.377.88-.335.376-.67.585-.796.502-.083-.126.084-.503.377-.88Zm-.168 1.173c.042.167.419.251.921.21.46-.085.838-.252.838-.42 0-.167-.42-.25-.922-.209-.46.084-.837.251-.837.419ZM88.902 25.105c.293-.419.628-.628.796-.544.125.084 0 .502-.293.88-.294.418-.629.627-.796.544-.126-.084 0-.461.293-.88Zm.754.754c.502-.084.921-.042.921.126 0 .167-.335.377-.837.46-.503.084-.922.042-.922-.125 0-.168.335-.377.838-.461ZM86.85 26.655c.251-.419.586-.67.712-.587.126.084.042.503-.21.922-.25.419-.586.67-.711.586-.168-.126-.084-.503.209-.921Zm-.042 1.214c.042.168.503.168.963.042.503-.168.838-.377.796-.544-.042-.168-.503-.168-.963-.042-.46.125-.838.335-.796.544ZM84.882 28.288c.251-.42.544-.712.67-.67.125.083.084.502-.168.92-.25.42-.544.713-.67.67-.125-.04-.083-.46.168-.92Zm.084 1.214c.083.168.502.168.963 0 .46-.167.795-.419.754-.586-.084-.168-.503-.168-.964 0-.46.167-.795.419-.753.586ZM83.04 30.13c.209-.46.502-.753.627-.712.168.084.126.503-.084.964-.209.46-.502.753-.628.711-.125-.083-.125-.502.084-.963Zm.167 1.173c.083.167.502.125.963-.084.46-.21.795-.46.712-.628-.084-.168-.503-.126-.964.084-.46.21-.753.502-.711.628ZM81.364 32.057c.168-.46.419-.796.587-.754.167.042.167.46 0 .963-.168.461-.42.796-.587.754-.167-.084-.167-.502 0-.963Zm.921.502c.42-.25.838-.293.922-.167.084.126-.21.46-.67.67-.419.251-.838.293-.922.168-.083-.126.21-.461.67-.67ZM79.815 34.109c.125-.461.377-.838.544-.796.168.042.168.46.042.963-.126.46-.377.838-.544.796-.168-.042-.168-.46-.042-.963Zm.335 1.172c.084.168.502.042.921-.21.419-.292.67-.627.586-.753-.084-.167-.502-.042-.921.21-.419.293-.67.586-.586.753ZM78.433 36.286c.084-.502.293-.837.46-.837.168.042.21.46.126.921-.084.503-.293.838-.46.838-.168 0-.21-.42-.126-.922Zm.963.335c.419-.293.796-.418.88-.293.083.126-.126.46-.545.796-.419.293-.796.419-.88.293-.083-.126.168-.503.545-.796ZM77.219 38.548c.041-.503.25-.88.418-.838.168 0 .251.419.21.921-.042.503-.252.88-.42.838-.209 0-.292-.419-.209-.921Zm.963.293c.376-.335.753-.503.88-.377.125.126-.127.502-.504.796-.376.293-.753.502-.879.376-.084-.125.126-.46.503-.795ZM76.172 40.893c.042-.503.167-.88.335-.88.167 0 .293.42.251.922-.042.502-.167.88-.335.88s-.293-.42-.251-.922Zm1.005.21c.335-.336.712-.545.837-.42.126.126-.084.503-.418.838-.336.335-.712.544-.838.419-.126-.084.042-.461.419-.838ZM75.292 43.321c0-.502.126-.92.293-.92.168 0 .294.376.335.879 0 .502-.125.92-.293.92-.167.043-.335-.376-.335-.879Zm1.005.126c.335-.377.67-.586.796-.503.126.084-.042.503-.377.88s-.67.586-.796.503c-.083-.084.042-.503.377-.88ZM74.58 45.792c-.041-.502.042-.921.21-.921.167 0 .335.377.377.88.042.502-.042.92-.21.92-.125 0-.335-.376-.377-.879Zm.754 1.005c.126.084.46-.125.754-.544.293-.419.419-.838.293-.921-.126-.084-.46.125-.754.544-.293.377-.418.796-.293.921ZM74.078 48.347c-.084-.503-.042-.922.125-.922.168-.041.377.336.46.838.085.503.043.921-.125.921-.167 0-.377-.377-.46-.837Zm.837.88c.126.083.46-.168.712-.587.251-.419.335-.838.21-.921-.126-.084-.461.167-.713.586-.293.419-.376.837-.209.921ZM73.784 50.901c-.125-.46-.083-.921.084-.963.168-.042.377.335.503.796.125.46.084.921-.084.963-.168.042-.419-.335-.503-.796Zm1.006-.125c.25-.42.544-.712.67-.67.125.083.083.502-.168.92-.251.42-.544.713-.67.67-.126-.041-.084-.46.168-.92ZM73.617 53.456c-.168-.46-.168-.88 0-.963.167-.084.419.293.586.753.168.461.168.88 0 .963-.167.042-.419-.293-.586-.753Zm1.047-.168c.21-.46.502-.754.628-.712.168.084.126.503-.084.963-.21.461-.502.754-.628.67-.167-.041-.126-.46.084-.92ZM73.7 56.052c-.209-.46-.209-.88-.083-.963.167-.084.418.251.628.712.21.46.21.88.084.963-.168.042-.42-.251-.628-.712Zm1.005.712c.168.042.42-.293.587-.754.167-.502.167-.921 0-.963-.168-.042-.419.293-.587.754-.167.46-.167.921 0 .963ZM73.952 58.606c-.21-.46-.293-.879-.126-.92.168-.085.46.209.67.67.21.46.293.878.126.92-.126.042-.46-.25-.67-.67Zm1.005.628c.167.042.419-.334.544-.795.126-.503.126-.921-.042-.963-.167-.042-.419.335-.544.795-.126.503-.084.922.042.963ZM74.37 61.119c-.25-.419-.334-.837-.209-.921.126-.084.46.167.712.628.251.419.335.837.21.921-.126.084-.42-.167-.712-.628Zm1.09.544c.167 0 .376-.335.46-.837.084-.46.042-.88-.126-.921-.167 0-.376.335-.46.837-.084.503-.042.921.125.921ZM75 63.632c-.294-.42-.42-.796-.294-.922.126-.084.46.168.754.545.293.418.419.795.293.92-.084.127-.46-.125-.754-.543Zm1.13.46c.167.042.377-.335.419-.837.041-.503-.042-.922-.21-.922-.167-.041-.377.335-.419.838-.041.502.042.921.21.921ZM75.836 66.06c-.335-.376-.46-.795-.335-.879.126-.126.503.126.796.503.293.377.46.795.335.879-.126.126-.503-.084-.796-.502Zm.88-.502c.042-.503.167-.88.335-.88.167 0 .293.42.251.922-.042.502-.168.88-.335.88-.168-.043-.293-.42-.251-.922ZM76.8 68.448c-.335-.377-.545-.754-.42-.838.127-.126.503.084.838.419.335.377.545.754.42.837-.085.126-.461-.042-.838-.418Zm.837-.587c0-.502.126-.921.251-.921.168 0 .294.377.335.88 0 .502-.125.92-.25.92-.168 0-.294-.376-.336-.879ZM77.972 70.75c-.377-.334-.587-.711-.461-.837.126-.126.502.042.88.377.376.335.586.712.46.838-.126.125-.502-.042-.88-.377Zm.795-.67c-.042-.502.042-.92.21-.92.167 0 .335.376.377.879.041.502-.042.921-.21.921-.125 0-.335-.377-.377-.88ZM79.313 72.97c-.377-.293-.629-.67-.545-.795.084-.126.503 0 .88.293.376.293.628.67.544.795-.084.126-.503 0-.88-.293Zm1.214.126c.167 0 .21-.419.126-.921-.084-.503-.294-.88-.461-.838-.168 0-.21.419-.126.921.084.461.293.838.46.838ZM80.777 75.064c-.418-.251-.67-.586-.586-.754.084-.126.502-.042.921.251.419.252.67.587.587.754-.084.126-.503 0-.922-.251Zm1.215.042c.167-.042.209-.503.083-.963-.125-.503-.335-.838-.502-.796-.168.042-.21.502-.084.963.126.46.335.838.503.796ZM82.453 77.032c-.42-.251-.712-.544-.629-.712.084-.125.503-.083.922.168.418.251.712.544.628.712-.084.167-.503.083-.921-.168Zm1.214-.042c.167-.083.167-.502 0-.963-.168-.46-.419-.796-.586-.754-.168.084-.168.503 0 .964.125.46.418.795.586.753ZM84.211 78.917c-.46-.21-.753-.503-.712-.628.084-.168.503-.084.922.083.46.21.753.503.712.629-.042.167-.461.125-.922-.084Zm1.215-.168c.125-.084.125-.502-.084-.963-.21-.46-.46-.796-.628-.712-.126.084-.126.503.084.963.167.46.502.796.628.712ZM86.138 80.633c-.46-.167-.796-.418-.754-.586.042-.167.46-.126.963.042.461.168.796.419.754.586-.084.126-.502.126-.963-.042Zm1.172-.25c.168-.043.084-.462-.125-.922-.21-.46-.503-.754-.67-.67-.168.042-.084.46.126.921.209.46.544.754.67.67ZM88.19 82.183c-.46-.126-.837-.377-.795-.544.041-.168.46-.168.963-.042.46.126.837.377.795.544-.083.168-.502.21-.963.042Zm.419-.921c-.251-.419-.335-.838-.21-.921.126-.084.461.167.713.628.25.419.335.837.209.921-.126.084-.46-.21-.712-.628ZM90.325 83.607c-.502-.084-.837-.335-.837-.46.041-.168.46-.21.921-.127.502.084.837.335.837.461-.041.21-.46.251-.92.126Zm.335-.963c-.293-.42-.419-.796-.293-.922.126-.084.46.168.754.545.293.418.419.795.293.92-.084.127-.46-.125-.754-.543ZM92.588 84.863c-.503-.084-.88-.251-.838-.419.042-.167.419-.251.921-.167.503.084.88.251.838.418-.042.168-.46.252-.921.168Zm1.046-.46c.126-.126 0-.503-.335-.88-.293-.377-.67-.628-.795-.502-.126.125 0 .502.335.879s.712.586.795.502ZM94.89 85.952c-.503-.042-.88-.168-.88-.335 0-.168.42-.293.922-.252.502.042.88.168.88.336 0 .209-.42.293-.922.25Zm.21-1.005c-.336-.335-.545-.754-.42-.838.126-.125.503.084.838.419.335.335.544.754.419.837-.084.126-.46-.041-.838-.418ZM97.32 86.873c-.503 0-.88-.126-.922-.293 0-.168.419-.293.88-.293.502 0 .879.125.92.293 0 .168-.376.293-.879.293Zm1.004-.628c.126-.126-.083-.502-.46-.838-.377-.334-.754-.502-.88-.376-.125.125.084.502.461.837.377.335.754.503.88.377ZM99.79 87.627c-.503.042-.922-.042-.922-.21 0-.167.377-.335.88-.377.502-.041.921.042.921.21 0 .167-.377.335-.88.377Zm.041-1.047c-.376-.293-.628-.67-.544-.796.084-.125.503 0 .879.293.377.294.629.67.545.796-.084.167-.461 0-.88-.293ZM102.302 88.171c-.503.084-.921 0-.921-.167-.042-.168.335-.377.837-.46.503-.085.921 0 .921.167s-.376.377-.837.46Zm0-1.047c-.419-.25-.67-.586-.586-.753.083-.126.502-.042.921.25.419.252.67.587.586.755-.125.125-.544.041-.921-.252ZM104.857 88.506c-.502.126-.921.084-.963-.083-.042-.168.335-.377.796-.503.502-.126.921-.084.963.084.042.167-.335.419-.796.502Zm-.084-1.005c-.418-.25-.712-.544-.628-.712.084-.125.503-.083.921.168.419.251.712.544.629.712-.084.126-.503.042-.922-.168ZM107.411 88.674c-.46.167-.879.125-.963 0-.042-.168.293-.419.754-.545.461-.167.879-.125.963 0 .042.168-.293.42-.754.545Zm-.167-1.005c-.461-.21-.754-.503-.712-.628.084-.168.502-.126.921.083.461.21.754.503.712.629-.042.167-.461.125-.921-.084ZM110.008 88.674c-.461.167-.88.21-.963.042-.042-.168.251-.419.711-.628.461-.21.88-.21.964-.042.041.167-.252.418-.712.628Zm-.252-1.005c-.46-.168-.795-.419-.753-.586.042-.168.46-.126.963.041.46.168.795.42.754.587-.084.125-.503.125-.964-.042ZM112.562 88.465c-.46.209-.879.293-.921.125-.084-.167.209-.46.67-.67.461-.21.88-.293.921-.126.084.126-.251.461-.67.67Zm.629-1.047c.041-.168-.335-.42-.796-.545-.503-.125-.921-.125-.963.042-.042.168.335.419.795.544.503.168.922.126.964-.041ZM115.117 88.045c-.419.252-.838.335-.922.21-.083-.126.21-.46.629-.712.418-.251.837-.335.921-.21.042.168-.21.461-.628.712Zm.502-1.088c0-.126-.335-.377-.837-.461-.461-.084-.88-.042-.922.126 0 .125.335.377.838.46.502.126.921.084.921-.125ZM117.587 87.46c-.419.293-.795.418-.921.25-.084-.125.167-.46.586-.753.419-.293.796-.419.921-.251.084.125-.167.46-.586.753Zm-.419-.922c-.502-.084-.879-.251-.837-.419.042-.167.419-.25.921-.167.503.084.88.251.838.419-.042.167-.461.25-.922.167ZM120.058 86.706c-.377.293-.796.46-.879.335-.084-.126.125-.503.502-.796.377-.293.796-.46.88-.335.125.126-.126.46-.503.796Zm.419-1.13c0-.168-.377-.294-.88-.336-.502-.042-.921.084-.921.251 0 .168.377.293.88.335.502 0 .879-.083.921-.25ZM122.445 85.742c-.377.335-.754.503-.88.377-.125-.125.084-.502.461-.837.377-.335.754-.503.879-.377.126.126-.084.502-.46.837Zm-.587-.837c-.502 0-.879-.126-.921-.293 0-.168.377-.293.879-.293.503 0 .922.125.922.293.042.125-.377.293-.88.293ZM124.79 84.612c-.335.377-.712.586-.837.46-.126-.125.042-.502.377-.88.335-.376.712-.585.837-.46.126.126-.042.503-.377.88Zm-.67-.796c-.502.042-.921-.042-.921-.21 0-.167.377-.334.879-.376.503-.042.922.042.922.21 0 .167-.377.334-.88.376ZM127.009 83.314c-.293.377-.67.628-.795.502-.126-.084 0-.502.335-.88.293-.376.67-.627.795-.502.084.084-.042.503-.335.88Zm.126-1.215c0-.167-.419-.251-.921-.167-.503.084-.88.293-.838.46 0 .168.419.252.921.168.503-.084.88-.251.838-.46ZM129.104 81.89c-.293.418-.628.67-.754.586-.126-.084-.042-.503.251-.921.293-.42.628-.67.754-.587.167.084.042.503-.251.921Zm.042-1.215c-.042-.168-.461-.21-.964-.084-.46.126-.837.335-.795.503.042.167.46.21.963.084.502-.126.837-.335.796-.503ZM131.114 80.257c-.252.418-.545.712-.712.628-.126-.084-.042-.503.167-.922.252-.418.545-.711.712-.628.168.084.084.503-.167.922Zm-.796-.629c-.461.168-.879.168-.963 0-.042-.167.293-.418.754-.544.46-.167.879-.167.963 0 .084.126-.293.377-.754.544ZM133.039 78.498c-.209.46-.502.754-.67.67-.167-.084-.083-.503.126-.922.209-.46.503-.753.67-.67.126.084.084.503-.126.922Zm-.167-1.215c-.084-.167-.503-.125-.963.042-.461.21-.754.46-.712.628.084.168.502.126.963-.041.461-.168.796-.461.712-.629ZM134.757 76.613c-.168.46-.461.796-.587.712-.167-.042-.125-.502.042-.963.168-.46.461-.796.587-.712.167.084.167.502-.042.963Zm-.21-1.172c-.042-.168-.46-.084-.921.125-.461.21-.754.503-.67.67.042.168.461.084.921-.125.461-.21.754-.503.67-.67ZM136.39 74.603c-.126.461-.377.838-.545.754-.167-.084-.167-.46-.042-.963.126-.46.377-.838.545-.754.167.084.167.503.042.963Zm-.922-.46c-.418.251-.837.335-.921.21-.084-.126.209-.462.628-.713.419-.251.838-.335.921-.21.042.168-.209.461-.628.713ZM137.814 72.468c-.126.502-.335.837-.503.795-.167-.042-.209-.46-.084-.963.126-.502.335-.837.503-.796.168.084.209.503.084.964Zm-.922-.377c-.418.293-.795.419-.921.251-.084-.126.168-.46.586-.754.419-.293.796-.418.922-.251.042.126-.21.502-.587.754ZM139.112 70.248c-.084.503-.252.88-.419.838-.168-.042-.251-.461-.168-.922.084-.502.252-.88.419-.837.168.042.251.46.168.921Zm-.963-.293c-.377.293-.796.46-.88.335-.084-.126.126-.503.503-.796.377-.293.795-.46.879-.335.084.126-.126.46-.502.796ZM140.243 67.945c-.042.503-.21.88-.377.88-.168 0-.251-.42-.21-.922.042-.502.21-.88.377-.88.168 0 .252.42.21.922Zm-.545-1.089c-.125-.084-.502.084-.879.419-.377.335-.586.712-.461.837.126.084.503-.083.88-.418.377-.335.586-.712.46-.838ZM141.205 65.558c0 .502-.125.88-.293.88-.167 0-.293-.42-.293-.88 0-.503.126-.88.293-.88.168-.041.293.377.293.88Zm-.628-1.047c-.126-.126-.502.084-.837.46-.335.377-.503.754-.377.88.125.126.502-.084.837-.46.335-.378.503-.754.377-.88ZM141.959 63.087c.042.503-.084.921-.251.921-.168 0-.335-.376-.377-.879-.042-.503.084-.921.251-.921.21 0 .335.377.377.88Zm-1.005-.084c-.293.377-.67.629-.795.503-.126-.084 0-.503.335-.88.293-.376.67-.628.795-.502.126.084-.042.502-.335.88ZM142.546 60.575c.084.502 0 .92-.167.92-.168.043-.335-.334-.419-.837-.084-.502 0-.92.167-.92.168-.043.377.334.419.837Zm-1.005 0c-.293.418-.628.67-.754.586-.125-.084-.041-.503.252-.921.293-.42.628-.67.753-.587.126.084 0 .503-.251.922ZM142.965 58.02c.125.503.083.921-.084.921-.168.042-.377-.335-.503-.795-.125-.503-.083-.922.084-.922.168-.041.377.336.503.796Zm-.88-.837c-.167-.084-.46.209-.712.628-.209.419-.293.837-.167.921.167.084.46-.21.712-.628.251-.419.335-.838.167-.921ZM143.173 55.466c.126.46.126.88-.042.963-.167.042-.418-.293-.544-.754-.126-.46-.126-.88.042-.963.167-.042.377.293.544.754Zm-1.005.167c-.209.46-.502.754-.67.67-.167-.084-.083-.502.126-.921.209-.46.502-.754.67-.67.126.042.084.46-.126.921ZM143.174 52.911c.167.46.209.88.042.963-.168.042-.419-.25-.586-.712-.168-.46-.21-.879-.042-.963.167-.084.418.252.586.712Zm-.963-.754c-.126-.083-.419.252-.586.712-.168.46-.21.922-.042.964.125.083.418-.252.586-.712.209-.461.209-.88.042-.964ZM143.006 50.315c.21.46.252.88.126.921-.168.084-.461-.251-.67-.67-.209-.46-.251-.88-.126-.921.126-.042.461.251.67.67Zm-1.005-.67c-.167-.084-.419.293-.544.753-.126.503-.126.922.042.964.167.083.419-.294.544-.754.126-.46.126-.88-.042-.963ZM142.671 47.76c.252.42.335.838.168.922-.126.084-.461-.21-.712-.628-.251-.42-.335-.838-.168-.922.126-.083.461.21.712.629Zm-.963.377c-.126.503-.335.838-.502.796-.168-.042-.21-.46-.084-.963.125-.503.335-.838.502-.796.126.084.168.503.084.963ZM142.127 45.248c.293.419.377.837.251.921-.125.084-.46-.167-.753-.586-.294-.419-.377-.838-.252-.922.126-.083.461.168.754.587Zm-.963.46c-.084.503-.251.88-.419.838-.167-.042-.251-.46-.167-.921.083-.503.251-.88.418-.838.168 0 .252.419.168.921ZM141.373 42.777c.294.377.461.796.335.88-.125.083-.502-.126-.795-.503-.293-.377-.461-.796-.335-.88.125-.125.502.126.795.503Zm-1.13-.419c-.168 0-.335.377-.377.88 0 .502.084.92.251.92.168 0 .335-.376.377-.879.042-.46-.084-.879-.251-.92ZM140.452 40.39c.335.377.502.754.377.88-.126.125-.503-.084-.838-.46-.335-.378-.503-.755-.377-.88.126-.126.503.083.838.46Zm-.838.587c0 .502-.126.879-.293.879-.168 0-.293-.419-.293-.88 0-.502.125-.879.293-.879.167-.042.293.377.293.88ZM139.363 38.045c.377.335.545.712.461.838-.126.125-.503-.042-.838-.42-.376-.334-.544-.711-.46-.837.084-.083.502.084.837.42Zm-1.172-.251c-.168 0-.293.419-.251.921.041.503.209.88.376.88.168 0 .294-.42.252-.922-.042-.502-.21-.88-.377-.88ZM138.106 35.825c.377.294.629.67.503.796-.084.126-.503-.042-.879-.335-.377-.293-.629-.67-.503-.796.126-.125.503 0 .879.335Zm-.753.67c.083.503 0 .922-.168.922-.167.042-.335-.335-.419-.838-.083-.502 0-.921.168-.921.167-.042.335.335.419.838ZM136.683 33.648c.419.293.67.628.544.754-.083.126-.502 0-.921-.251-.419-.294-.67-.629-.544-.754.125-.126.544-.042.921.251Zm-.712.754c.126.502.084.921-.084.963-.167.042-.377-.335-.502-.796-.126-.502-.084-.92.084-.92.167-.085.418.25.502.753ZM135.134 31.638c.418.251.711.586.628.712-.084.125-.503.042-.922-.21-.418-.25-.712-.586-.628-.711.084-.168.461-.042.922.209Zm-1.215.042c-.167.084-.167.502-.042.963.126.46.377.796.545.754.167-.084.167-.503.041-.963-.125-.503-.376-.838-.544-.754ZM133.375 29.712c.46.209.753.502.67.67-.084.167-.503.083-.922-.126-.46-.21-.753-.503-.67-.67.084-.168.503-.084.922.126Zm-.587.837c.168.46.21.88.042.963-.167.042-.419-.251-.586-.712-.168-.46-.209-.88-.042-.963.168-.084.419.252.586.712ZM131.532 27.911c.461.168.796.46.712.628-.042.168-.503.126-.963-.042-.461-.167-.796-.46-.712-.628.084-.167.502-.125.963.042Zm-.544.88c.209.46.251.879.125.92-.167.085-.46-.25-.67-.67-.209-.46-.251-.879-.125-.92.167-.084.46.25.67.67ZM129.564 26.278c.46.167.795.419.754.544-.042.126-.461.168-.964 0-.46-.167-.795-.419-.753-.544.041-.126.46-.126.963 0Zm-1.173.293c-.167.084-.084.502.168.921.251.419.586.712.712.628.167-.083.083-.502-.168-.921-.251-.419-.586-.712-.712-.628ZM127.428 24.812c.503.126.838.335.796.503-.042.167-.461.209-.963.083-.503-.125-.838-.335-.796-.502.084-.168.503-.21.963-.084Zm-.376.921c.293.42.376.838.251.922-.126.083-.461-.168-.754-.587-.293-.418-.377-.837-.251-.92.125-.085.46.209.754.585ZM125.251 23.472c.502.084.879.293.837.46-.042.168-.461.21-.921.168-.503-.084-.88-.293-.838-.46 0-.168.419-.252.922-.168Zm-.335.963c.293.377.46.796.335.88-.126.083-.503-.126-.796-.503-.293-.377-.461-.796-.335-.88.126-.125.502.126.796.503ZM122.947 22.3c.503.041.88.21.88.377s-.419.25-.922.209c-.502-.042-.879-.21-.879-.377 0-.168.419-.251.921-.21Zm-1.088.544c-.126.126.041.503.376.88.335.376.712.586.838.46.126-.126-.042-.502-.377-.88-.335-.376-.712-.586-.837-.46ZM120.561 21.336c.502 0 .879.168.879.335 0 .168-.419.293-.921.293-.503 0-.88-.167-.88-.335.042-.21.419-.335.922-.293Zm-.168 1.005c.377.335.545.712.461.838-.126.125-.503-.042-.88-.42-.376-.334-.544-.711-.46-.837.125-.084.502.084.879.42ZM118.131 20.499c.503-.042.922.084.922.251 0 .168-.377.335-.88.335-.502 0-.921-.084-.921-.251-.042-.126.377-.293.879-.335Zm-1.005.712c-.125.126.126.502.503.796.377.293.796.46.879.335.126-.126-.125-.503-.502-.796-.377-.335-.754-.46-.88-.335ZM115.619 19.87c.503-.083.921 0 .921.168.042.168-.377.335-.837.42-.503.083-.921 0-.921-.168-.042-.168.335-.335.837-.42Zm-.921.796c-.084.126.167.461.586.754.419.252.838.377.921.252.084-.126-.167-.461-.586-.754-.419-.293-.837-.419-.921-.252ZM113.106 19.452c.503-.084.922-.042.922.125.042.168-.335.377-.838.461-.502.084-.921.042-.921-.126-.042-.167.335-.377.837-.46Zm.042 1.005c.419.251.712.586.629.712-.084.125-.503.042-.922-.21-.419-.25-.712-.586-.628-.712.084-.125.503-.041.921.21ZM110.511 19.2c.46-.125.921-.125.963.043.042.167-.293.418-.796.544-.461.126-.921.126-.963-.042 0-.168.335-.419.796-.544Zm.125 1.006c.461.21.754.502.67.67-.084.167-.502.083-.921-.126-.461-.21-.754-.503-.67-.67.084-.126.502-.084.921.126Z" fill="#D09E59"/><path d="M108.333 77.074c-12.982 0-23.493-10.511-23.493-23.493 0-12.981 10.51-23.492 23.493-23.492 12.981 0 23.492 10.51 23.492 23.492 0 12.982-10.511 23.493-23.492 23.493Z" fill="#fff"/><path fill-rule="evenodd" clip-rule="evenodd" d="m86.264 40.516.837-.838c.46.46.754.922.838 1.424.084.503 0 1.005-.293 1.591a2.57 2.57 0 0 1-1.55 1.34c-.67.21-1.424.084-2.261-.335-.838-.418-1.424-1.005-1.633-1.675-.252-.67-.168-1.382.167-2.094.335-.628.754-1.046 1.34-1.256.335-.126.754-.126 1.215-.042l-.294 1.131a1.415 1.415 0 0 0-.837.042c-.251.125-.46.293-.586.586-.21.377-.21.754-.084 1.13.167.378.544.713 1.13 1.048.629.335 1.173.46 1.55.377.377-.084.67-.335.88-.712.125-.293.167-.545.083-.838 0-.293-.21-.586-.502-.88Zm.712-2.68c-.42-.42-.712-.796-.88-1.215a2.449 2.449 0 0 1-.21-.921c0-.335.043-.628.126-.88.126-.376.377-.711.712-1.046.587-.629 1.257-.922 1.968-.922.754 0 1.424.294 2.136.964.67.628 1.005 1.34 1.047 2.051.042.712-.251 1.382-.837 2.01-.587.629-1.257.922-1.969.922-.753-.042-1.423-.335-2.093-.963Zm.795-.922c.46.461.921.67 1.382.712.46 0 .838-.167 1.173-.502.335-.335.46-.712.418-1.173-.041-.46-.293-.88-.795-1.34-.46-.46-.921-.67-1.382-.712-.419 0-.838.168-1.13.503a1.42 1.42 0 0 0-.42 1.172c0 .46.294.88.754 1.34Zm5.863-1.675-3.56-4.522.922-.712 3.56 4.522-.922.712Zm1.8-1.423-2.638-5.11 1.005-.502 3.853 2.345-1.759-3.434.963-.502 2.639 5.109-1.047.544-3.77-2.303 1.718 3.35-.963.502Zm9.758-5.654-.084-.963 2.471-.335.293 2.261c-.209.252-.544.503-.963.754-.419.251-.88.377-1.382.46a3.52 3.52 0 0 1-1.633-.167 2.505 2.505 0 0 1-1.131-.963 3.647 3.647 0 0 1-.544-1.466c-.084-.586 0-1.13.167-1.633.209-.502.503-.88.963-1.214.335-.252.796-.377 1.34-.46.712-.085 1.298 0 1.717.25.419.252.754.629.922 1.131l-1.131.377a1.564 1.564 0 0 0-.545-.628 1.776 1.776 0 0 0-.879-.126c-.502.084-.879.293-1.131.628-.251.377-.335.838-.251 1.466.084.67.293 1.173.628 1.466.335.307.754.432 1.257.377.251-.042.46-.126.711-.252.252-.125.419-.25.587-.418l-.084-.712c-.042 0-1.298.167-1.298.167Zm9.045 2.513-1.256-.168-.335-1.382-2.303-.293-.628 1.256-1.215-.167 2.973-5.444 1.215.168c-.042 0 1.549 6.03 1.549 6.03Zm-1.842-2.555-.503-2.22-1.047 2.01c-.042 0 1.55.21 1.55.21Zm4.564-2.596 2.136.837c.419.168.754.294.921.42.21.125.335.25.461.46.111.167.195.377.251.628.042.21 0 .46-.084.712-.083.251-.251.46-.46.628a1.227 1.227 0 0 1-.754.251c.293.21.46.503.544.796a1.4 1.4 0 0 1-.042.921c-.083.252-.251.46-.46.628-.21.168-.419.294-.67.377a1.92 1.92 0 0 1-.838-.042c-.209-.041-.628-.209-1.34-.46l-1.842-.712 2.177-5.444Zm.712 1.34-.502 1.256.711.293c.419.168.67.252.796.294.195.027.363.027.503 0 .167-.084.251-.168.335-.377a.609.609 0 0 0 .041-.461c-.041-.126-.167-.251-.335-.335-.083-.042-.418-.168-.921-.377 0-.042-.628-.293-.628-.293ZM116.834 29l-.545 1.424 1.005.376c.363.168.614.252.754.252.167.041.335 0 .461-.042a.996.996 0 0 0 .335-.377.596.596 0 0 0 .041-.46 1.098 1.098 0 0 0-.251-.378c-.125-.125-.419-.25-.921-.46l-.879-.335Zm6.7-.503 1.884 1.34c.377.252.628.46.796.628.167.168.293.335.335.545.084.21.084.418.084.628 0 .251-.084.46-.252.67-.167.21-.377.377-.628.46-.251.084-.502.126-.795.084.195.28.321.573.376.88 0 .293-.083.586-.293.88-.167.209-.335.376-.586.502-.251.125-.502.209-.754.209-.251 0-.502-.084-.795-.21-.168-.083-.545-.376-1.173-.795l-1.591-1.13c.042 0 3.392-4.69 3.392-4.69Zm.377 1.466-.754 1.089.628.46c.377.252.586.42.712.46.167.085.335.127.502.127a.865.865 0 0 0 .419-.252c.084-.125.168-.293.126-.419 0-.167-.084-.293-.251-.418-.084-.084-.335-.293-.796-.587-.042-.083-.586-.46-.586-.46Zm-1.34 1.842-.88 1.257.88.628c.335.251.586.377.67.419a.605.605 0 0 0 .46.041.708.708 0 0 0 .419-.293c.084-.125.168-.293.168-.418a.807.807 0 0 0-.126-.42c-.084-.125-.377-.376-.796-.67l-.795-.544Zm5.653 8.836-.838-.963.67-1.256-1.507-1.759-1.298.503-.796-.922 5.821-2.052.796.922c0 .042-2.848 5.527-2.848 5.527Zm.293-3.099 1.089-2.01-2.136.796 1.047 1.214Zm-.084 3.727 5.109-2.638 1.131 2.178c.293.544.419.963.461 1.256.041.293-.042.586-.168.838-.167.251-.377.502-.712.628-.377.21-.754.251-1.131.167-.376-.083-.711-.377-1.005-.753 0 .293-.083.544-.125.795-.084.21-.251.545-.545 1.005l-.67 1.13-.628-1.255.712-1.34c.251-.461.419-.796.461-.922.042-.167.084-.293.042-.418 0-.126-.084-.294-.21-.545l-.125-.21-2.136 1.09c0-.084-.461-1.005-.461-1.005Zm3.476-.46.377.754c.251.502.419.795.544.92.126.085.21.168.377.168.126 0 .293 0 .419-.083.167-.084.293-.21.335-.335a1.014 1.014 0 0 0 0-.503c-.056-.084-.181-.335-.377-.754l-.419-.795c.042-.042-1.256.628-1.256.628Z" fill="#000F50"/><path d="m85.384 68.531.21.335c.111.168.223.266.334.293.112.056.238.028.377-.083.14-.084.224-.182.251-.293 0-.112-.055-.252-.167-.42l-.21-.334-.795.502Zm-.377.587-.167-.21-1.173.754-.502-.796 3.056-2.01.796 1.215c.28.419.405.754.377 1.005 0 .279-.154.516-.46.712-.196.14-.391.195-.587.167-.195 0-.39-.084-.586-.251.056.14.07.28.042.419a4.18 4.18 0 0 1-.251.502l-.587 1.005-.544-.837.502-.88c.112-.167.168-.307.168-.418.028-.112 0-.238-.084-.377ZM88.106 73.054l-.209.167-1.34-1.549a.64.64 0 0 0-.21.46c0 .168.084.336.252.503.111.14.251.265.419.377.167.112.362.21.586.293l-.503.46a3.777 3.777 0 0 1-.544-.376 2.161 2.161 0 0 1-.46-.419c-.336-.363-.49-.74-.461-1.13 0-.364.167-.699.502-1.006.363-.279.726-.404 1.089-.377.363.029.698.224 1.005.587.28.335.405.684.377 1.047 0 .363-.168.684-.503.963Zm-1.13-1.717.754.837a.73.73 0 0 0 .209-.376.612.612 0 0 0-.126-.377c-.111-.14-.237-.21-.377-.21-.14-.028-.293.014-.46.126Z" fill="#373535"/><path d="m90.535 73.64-.46.46a4.202 4.202 0 0 0-.252-.502 4.572 4.572 0 0 0-.335-.377.825.825 0 0 0-.293-.209c-.112-.028-.195-.014-.251.042a.372.372 0 0 0-.042.167c.028.084.084.182.167.293l.126.126c.28.363.433.642.46.838 0 .195-.097.39-.293.586-.195.223-.418.307-.67.251-.25-.028-.53-.195-.837-.502a1.832 1.832 0 0 1-.377-.42 2.623 2.623 0 0 1-.335-.502l.46-.502c.056.195.14.377.252.544.084.14.195.28.335.42.14.11.251.18.335.208.112.028.195.014.251-.041.056-.056.07-.126.042-.21 0-.056-.056-.153-.167-.293l-.126-.126c-.251-.307-.377-.558-.377-.753-.028-.224.056-.433.251-.629.196-.195.42-.279.67-.25.224.055.489.223.796.502a3.92 3.92 0 0 1 .67.88ZM92.252 76.572l-.168.209-1.633-1.256a.554.554 0 0 0-.084.502c.028.168.14.321.335.46.14.113.294.21.461.294.196.056.405.112.628.167l-.419.503a4.938 4.938 0 0 1-.586-.21 9.365 9.365 0 0 1-.544-.334c-.391-.307-.614-.656-.67-1.047-.056-.363.056-.726.335-1.09.279-.334.6-.53.963-.585.39-.028.768.097 1.13.376.336.28.531.6.587.964.028.363-.084.712-.335 1.047Zm-1.466-1.466.921.712c.112-.14.154-.28.126-.419 0-.14-.07-.265-.21-.377a.809.809 0 0 0-.418-.126c-.14 0-.28.07-.419.21Z" fill="#373535"/><path d="m93.592 77.618-.419-.25a.751.751 0 0 0-.377-.126.282.282 0 0 0-.251.125c-.084.112-.112.21-.084.293a.56.56 0 0 0 .21.252c.14.083.293.111.46.083a.5.5 0 0 0 .377-.293l.084-.084Zm.921.21-.837 1.34-.754-.503.21-.335a.806.806 0 0 1-.503.084 1.289 1.289 0 0 1-.503-.21c-.251-.139-.405-.334-.46-.586-.056-.223-.014-.446.125-.67.168-.279.391-.418.67-.418.252 0 .587.125 1.005.376l.419.294.042-.084c.084-.112.098-.224.042-.335-.056-.112-.182-.224-.377-.335a2.115 2.115 0 0 0-.503-.251 2.216 2.216 0 0 0-.46-.126l.377-.544c.167.055.349.125.544.209.168.084.321.181.46.293.42.28.67.558.754.838.084.279 0 .6-.25.963ZM97.026 77.702l-.377.712-.167-.168a.527.527 0 0 0-.21-.125c-.195-.112-.377-.126-.544-.042-.167.084-.321.237-.46.46l-.545 1.131-.796-.377 1.257-2.47.753.419-.167.376a.901.901 0 0 1 .502-.167c.168 0 .35.042.545.126.028.027.056.041.084.041.028.028.07.056.125.084Z" fill="#373535"/><path d="m98.827 78.624-.294.67a2.735 2.735 0 0 0-.25-.294 2.199 2.199 0 0 0-.336-.209c-.223-.112-.419-.126-.586-.042-.196.056-.35.21-.46.46a.985.985 0 0 0-.043.629c.056.195.196.335.42.419.139.055.264.097.376.125.14 0 .28-.014.419-.042l-.293.67a14.27 14.27 0 0 0-.461-.083 2.971 2.971 0 0 1-.377-.126c-.447-.195-.754-.475-.921-.837-.14-.335-.126-.712.042-1.131.195-.419.474-.684.837-.796.363-.111.768-.07 1.215.126.14.056.265.126.377.21l.335.25ZM101.507 80.592l-.545 1.591-.837-.293.083-.251.335-.963c.084-.224.126-.377.126-.461a.688.688 0 0 0 .042-.21.453.453 0 0 0-.084-.167.524.524 0 0 0-.209-.126.463.463 0 0 0-.46.084c-.14.084-.252.251-.336.503l-.46 1.256-.796-.293 1.214-3.602.838.294-.46 1.382a1.29 1.29 0 0 1 .502-.21c.167 0 .335.028.502.084.307.084.503.251.586.502.084.224.07.517-.041.88ZM108.249 79.46v.755a17.063 17.063 0 0 0-.586-.21 23.244 23.244 0 0 1-.545-.084c-.223 0-.391.028-.502.084-.112.084-.168.182-.168.293 0 .112.028.196.084.252.084.056.223.097.419.125l.377.084c.418.112.712.251.879.419.168.167.251.405.251.712-.028.39-.153.684-.377.88-.251.195-.628.292-1.13.292-.224 0-.447-.028-.67-.084a5.243 5.243 0 0 1-.712-.209v-.796c.251.14.474.238.67.294.223.056.433.083.628.083.223.028.391 0 .502-.083.112-.056.168-.154.168-.293a.282.282 0 0 0-.126-.252c-.055-.056-.195-.111-.418-.167l-.377-.084c-.363-.084-.628-.223-.796-.419-.167-.167-.251-.39-.251-.67 0-.363.125-.642.377-.837.251-.196.586-.294 1.005-.294.223 0 .432.014.628.042l.67.168ZM111.682 81.513v.251l-2.052.126a.689.689 0 0 0 .252.46c.139.084.321.112.544.084.196 0 .391-.028.586-.084.168-.083.349-.181.545-.293l.083.67a8.097 8.097 0 0 1-.628.21 2.268 2.268 0 0 1-.628.084c-.474.055-.865-.042-1.172-.294-.28-.223-.447-.558-.503-1.005-.028-.446.084-.81.335-1.088.251-.28.614-.433 1.089-.461.447-.028.81.07 1.089.293.279.251.432.6.46 1.047Zm-2.052-.168 1.131-.083a.682.682 0 0 0-.167-.377.454.454 0 0 0-.419-.126c-.168 0-.293.056-.377.168a.567.567 0 0 0-.168.418Z" fill="#373535"/><path d="m111.85 82.811-.46-3.81.879-.084.461 3.769-.88.125ZM115.661 80.676l.042.25-1.968.462c.055.195.153.334.293.418.167.056.363.07.586.042.168-.056.335-.126.503-.21a3.81 3.81 0 0 0 .544-.376l.167.628a3.11 3.11 0 0 1-.586.335 4.917 4.917 0 0 1-.586.21c-.475.111-.879.07-1.214-.126-.336-.196-.545-.517-.629-.963-.111-.42-.069-.782.126-1.09.223-.306.558-.516 1.005-.627.419-.112.782-.07 1.089.125.335.196.544.503.628.922Zm-2.052.209 1.131-.293a.763.763 0 0 0-.252-.335c-.111-.084-.251-.112-.418-.084a.75.75 0 0 0-.377.251c-.084.112-.112.265-.084.461Z" fill="#373535"/><path d="m117.504 78.833.167.67a1.026 1.026 0 0 0-.377-.084c-.139 0-.265.014-.377.042-.251.084-.418.21-.502.377-.084.167-.098.377-.042.628.084.251.209.433.377.544.167.084.377.098.628.042l.335-.167c.112-.084.209-.182.293-.293l.168.712a2.244 2.244 0 0 1-.335.209l-.419.167c-.475.14-.879.126-1.215-.041-.335-.168-.572-.475-.711-.922-.112-.418-.07-.795.125-1.13.196-.308.531-.53 1.005-.67a1.12 1.12 0 0 1 .419-.084c.14-.028.293-.028.461 0Z" fill="#373535"/><path d="m117.546 77.786.795-.335.294.754.837-.377.251.586-.837.335.419 1.089c.055.112.111.181.167.21.084.027.196.013.335-.043l.419-.167.209.586-.67.293c-.335.112-.6.14-.795.084-.168-.084-.321-.293-.461-.628l-.419-1.089-.419.168-.251-.587.419-.167-.293-.712ZM124.162 78.372l-1.968-3.057.796-.544 1.968 3.099-.796.502ZM126.507 74.603l1.005 1.34-.67.545-.167-.252-.629-.753c-.139-.196-.251-.322-.335-.377-.055-.084-.111-.126-.167-.126a.373.373 0 0 0-.168-.042 1.673 1.673 0 0 0-.209.084.556.556 0 0 0-.209.46c.028.168.111.35.251.545l.837 1.047-.711.544-1.676-2.135.712-.545.21.293c.028-.195.07-.377.125-.544.084-.14.196-.265.335-.377.252-.195.503-.265.754-.21.251.056.489.224.712.503ZM128.349 75.148l-2.68-1.215.628-.586 1.801.88-.837-1.843.67-.628 1.13 2.722-.712.67ZM130.611 70.709l.209.125-1.34 1.55c.168.14.335.195.503.167.139-.028.293-.14.46-.335.112-.14.21-.293.293-.46.084-.196.154-.405.21-.628l.502.46-.251.587a5.875 5.875 0 0 1-.377.502c-.335.39-.684.6-1.047.628-.363.056-.726-.07-1.089-.377-.335-.307-.502-.642-.502-1.005-.028-.363.112-.726.419-1.089.279-.335.6-.516.963-.544.391-.028.74.112 1.047.419Zm-1.55 1.34.754-.88c-.14-.111-.279-.153-.419-.125a.4.4 0 0 0-.335.167.674.674 0 0 0-.167.42c0 .139.056.278.167.418Z" fill="#373535"/><path d="m130.778 68.196.545.377a2.184 2.184 0 0 0-.461.335c-.139.14-.251.265-.335.377-.112.14-.167.251-.167.335-.028.111 0 .181.083.21.056.055.112.069.168.041a.825.825 0 0 0 .293-.21l.084-.125c.307-.335.558-.53.754-.586.195-.056.404 0 .628.167.251.168.377.377.377.629 0 .279-.126.586-.377.92-.112.14-.238.294-.377.461-.14.14-.279.266-.419.377l-.544-.377c.167-.083.321-.195.46-.335a1.83 1.83 0 0 0 .377-.418c.084-.14.14-.252.168-.335a.281.281 0 0 0-.126-.252.177.177 0 0 0-.167 0 .828.828 0 0 0-.294.21l-.125.125c-.251.308-.475.489-.67.545-.196.028-.405-.028-.628-.168-.252-.167-.377-.377-.377-.628s.125-.544.377-.88c.083-.111.181-.237.293-.376.139-.14.293-.28.46-.419ZM130.318 67.275l.46-.754.67.419.461-.796.544.293-.46.796 1.005.586a.638.638 0 0 0 .251.084c.084-.028.154-.112.209-.251l.252-.377.544.293-.377.67c-.195.307-.391.489-.586.544-.196.028-.433-.042-.712-.21l-1.047-.585-.209.377-.545-.294.21-.376-.67-.42Z" fill="#373535"/><path fill-rule="evenodd" clip-rule="evenodd" d="M82.286 64.009c.502-.503.67-.503.879-1.382.167-.88 1.424-1.215 2.052-.419.419.544.586.67 1.382.921 1.047.503.167 2.094-.838 1.633-.586-.293-1.382-.167-1.884.42-.796.837-2.261-.21-1.591-1.173ZM81.196 61.705c-.209-.251-.335-.837-.083-1.005.083.21.083.377.209.586.796-.083 1.8.754 1.34 1.76-.921.376-1.466-.88-1.466-1.34ZM85.845 62.334c-.838-.712-.293-1.927.502-2.136.042-.251-.041-.377-.041-.628.293.084.418.67.335.921.167.419.209 1.843-.796 1.843ZM83.71 61.16l-.252.252c-.21.126-.418.21-.754 0-.795-.586-.25-2.512-.209-2.931.042.628 1.843 1.465 1.215 2.68Z" fill="#D39F4C"/><path fill-rule="evenodd" clip-rule="evenodd" d="M84.212 58.104c.21.377 1.507 1.884 1.047 2.764-.21.335-.46.335-.67.293-.126-.042-.21-.084-.335-.126-1.089-.795.167-2.345-.042-2.931ZM133.166 65.265c-.503-.587-1.298-.712-1.885-.419-1.005.46-1.884-1.13-.837-1.633.795-.252.963-.377 1.382-.922.628-.795 1.884-.46 2.052.42.209.879.376.879.879 1.381.712.963-.796 2.01-1.591 1.173ZM134.421 63.087c-.46-1.005.545-1.843 1.341-1.759.125-.21.125-.377.209-.586.251.168.126.754-.084 1.005 0 .503-.586 1.759-1.466 1.34ZM130.402 60.575c-.084-.251.042-.838.335-.921 0 .25-.084.377-.042.628.796.21 1.34 1.424.502 2.135-.963 0-.963-1.423-.795-1.842ZM134.547 58.565c.042.418.587 2.345-.209 2.93-.335.21-.545.127-.754 0l-.251-.25c-.586-1.215 1.172-2.052 1.214-2.68Z" fill="#D39F4C"/><path fill-rule="evenodd" clip-rule="evenodd" d="M132.831 61.12c-.126.041-.21.083-.335.125-.21.042-.461.042-.67-.293-.461-.88.837-2.387 1.047-2.764-.21.586 1.047 2.094-.042 2.931Z" fill="#D39F4C"/><path d="M103.056 82.1a.75.75 0 0 1-.754-.754.75.75 0 0 1 .754-.754.75.75 0 0 1 .753.754.75.75 0 0 1-.753.753ZM121.23 79a.75.75 0 0 1-.753-.754.75.75 0 0 1 .753-.753.75.75 0 0 1 .754.753.75.75 0 0 1-.754.754Z" fill="#373535"/><path fill-rule="evenodd" clip-rule="evenodd" d="M97.696 41.898c1.843-.67 4.774-2.513 6.701-1.173-4.188.252-3.769 1.717-5.989 2.638-1.675.67-2.973.754-4.313 2.052-.377.377-.67.796-.963 1.047.544-3.475 2.429-3.81 4.564-4.564Zm1.215 4.271c-.168.419-1.089 1.34-1.508 1.675-1.55 1.256-2.89 1.047-3.685 4.481l-.335 1.173c-.042-.042-.042.083-.084.125-.586-4.9 1.424-5.067 5.612-7.454Z" fill="#D39F4C"/><path fill-rule="evenodd" clip-rule="evenodd" d="m111.473 54.67.461-.335c-1.508-.88-1.675.251-3.476.21-1.8 0-1.842-1.006-3.35-.21.377.46-.042.084.503.377.46.21.167-.084.628.293.251.251.377.628.67.963 1.047 1.298 1.507.754 1.089 2.22-1.382.21-3.602.293-4.607-.46l-.042-.378v-.084a2.76 2.76 0 0 0 .503-.209l-1.298-.586c.712-.21.544-.084 1.298-.084-2.806-1.13-1.55-2.01-.461-3.936-1.424.502-1.633 1.717-2.806 1.842-.67-.754-1.59-3.643-1.549-4.941.042-1.13 1.884-3.35 2.387-4.23-.084 0-.293-.084-.335-.084-.377-.209-.042.042-.335-.25 1.508-5.99 5.193-3.141 7.622-3.1 2.093.042 6.323-2.973 7.705 3.1-.251.167.251.25-.67.25.419.754 2.303 3.267 2.387 4.146.167 1.633-.754 4.272-1.592 5.151-1.298-.377-1.005-1.005-2.638-1.8.545 1.046 1.298 1.633 1.047 3.056-.419.294-1.005.503-1.549.796l1.256-.084c-.838.712-1.047.377-1.047.796 0 1.424.419-.963.377.586-1.256.712-3.057.712-4.69.503-.461-1.508.251-1.173 1.047-2.136 1.214-1.424 0-.628 1.465-1.382Zm-10.092-6.826 1.34 1.173c.628.46 1.047.377 1.927.418l.586 1.592.586-3.727c-.544.335-.126.921-2.052.293-1.382-.46-1.298-.084-2.387.251Zm14.196.042c-.921-.335-1.047-.712-2.219-.335-.88.293-1.215.544-1.801.126l.126 3.224.586-1.466c1.884-.083 1.466-.125 2.513-.963l.795-.586ZM97.152 61.998c-.084-.586-.42-.963-.587-1.465.587.335.461.377.922.88-.42-2.806-6.617-7.664-.084-12.145-1.843 1.926-1.466 5.779-.084 8.082 2.638 4.397.21 3.937 1.508 9.045-1.968-2.219-1.34-2.847-1.675-4.396Zm24.623-6.7c-.586 2.513-2.68 4.062-2.931 6.282.251-.545.251-.754.963-1.047-1.173 2.052-.419 4.23-2.303 5.779 1.172-4.942-1.047-4.858 1.382-8.836.711-1.215 1.256-2.429 1.34-4.146.083-1.424-.503-3.518-1.257-4.104 1.382.921 3.518 3.057 2.806 6.072Zm-9.422 7.287.042 1.047-.88.502c.042.084.545-.042.838.168-.67 3.434-1.885 1.005-4.188 1.088.545.335.796.252 1.298.712-.795-.041-1.34-.209-2.135-.125-1.508.167-2.304 1.256-2.89-1.717l.251-.042h.126l.586-.042c-.837-.419-1.089-.503-1.005-1.675 1.55 1.382.042.963 3.979.963.795-.042 1.8.084 2.554.042 1.131-.042.879-.377 1.424-.921Zm-.922 1.591.084-.042c0-.042-.084 0-.084.042Zm2.052 6.952-4.02 2.386c.67-1.549 2.722-3.098 3.853-4.355.544-.67.628-1.088 1.047-1.8l.084 2.805c0-.041.041-.167.041-.125l.503-1.005c.628-1.885.293-2.932.168-4.607 2.01 3.35.837 6.868-2.22 7.999l.544-1.298Zm-12.521-33c1.173-.25 1.969-.627 3.225-.585 2.219.083 4.355.92 4.648 2.89-2.052-1.09-2.596-1.425-5.695-1.215-1.759.125-4.523.293-5.695-.838 1.256-.042 2.345-.042 3.517-.251Zm9.339 2.22c-.419-1.005-.335-3.35-3.392-4.313-2.806-.921-4.188.042-6.24.88 2.303-3.77 12.354-2.89 9.632 3.433Zm13.065 5.947-.083-.084-.084-.084c-2.345-2.052-4.188-.544-6.533-3.099l-1.717-1.716c1.382 0 1.801.376 2.638 1.005 3.225 2.428 5.612.67 6.156 4.313-.293-.21-.042-.042-.377-.335Zm-21.064 19.137c1.215 4.565.88 2.22 3.853 5.319.293.293.461.544.754 1.047.502.837.795 1.8.712 3.015-1.257-1.885.209-1.801-3.35-4.23-1.382-.963-2.848-2.806-1.969-5.15Zm21.86-11.013c0-.042-.042-.126-.042-.168 0-.042-.042-.125-.042-.167-1.256-4.062-4.439-3.895-5.234-6.868.753 1.173 2.596 1.8 3.727 2.722 1.423 1.13 2.052 2.178 1.633 4.606 0-.083-.042-.125-.042-.125Zm-8.208 8.208-.544-1.969c-.084-1.047 0-2.135.335-3.057.628-1.675 2.261-2.512 2.387-4.313.083.88.083 1.675-.21 2.47-.712 1.97-2.47 1.383-1.675 7.287-.167-.167-.167-.083-.293-.418Zm-15.075-1.634c-.21 1.34-.629 1.592-.964 2.471 1.843-6.7-2.554-5.988-1.633-10.218.084 2.597 3.392 3.1 2.597 7.747Zm15.494-22.027c1.842.67 2.178.587 4.188.754-2.932 1.968-3.895-1.256-7.413.335.545-1.34 1.592-1.675 3.225-1.089Zm-5.402 22.53v1.34c-.335.126-4.774.168-5.109 0l-.042-1.34.419.419c.139.167.265.335.377.502.335-.419.209-.419 1.8-.419 1.508 0 1.424 0 1.759.42l.796-.922Zm.377-27.513c.586.545 1.382 1.256 1.549 2.47.21 1.299-.502 2.513-1.214 2.89.628-2.303.67-3.434-.335-5.36Zm5.779 2.806 3.099 1.759c-2.011-.294-4.607-2.639-6.282-.587.251-1.256 1.717-1.842 3.183-1.172Zm-16.123 29.23c-.042 3.768.335 2.847 1.257 4.69-3.016-1.717-1.634-3.77-1.257-4.69Zm19.473-18.803c1.759-.251 2.596.796 2.806 2.345-.922-1.005-1.34-1.55-2.806-2.345Zm-16.29 11.474.921.46.084 1.634c-.461-.251-1.047-1.13-1.005-2.094Zm7.663.335.67-.335c0 .963-.46 1.8-1.005 2.094.084-.88 0-1.591.335-1.759Z" fill="#D39F4C"/><path fill-rule="evenodd" clip-rule="evenodd" d="M103.098 47.76c.628.377 0 .042.544.629.712-.294.084-.42.712-.126-.167.544-.083.586-1.005.46-.335-.418-.502-.376-.251-.963Zm10.762.084c.293.963-1.13 1.466-1.256.293.628.168.084.084.712.252.293-.294 0-.294.544-.545Z" fill="#000F50"/></svg>