<svg width="217" height="107" viewBox="0 0 217 107" fill="none" xmlns="http://www.w3.org/2000/svg">
<g clip-path="url(#clip0_2359_5146)">
<path d="M47.4901 53.4396V53.3781C47.4593 44.6777 40.4511 37.5771 31.8736 37.5771C23.2961 37.5771 16.2571 44.6777 16.2571 53.4396C16.2571 62.2027 23.2642 69.2889 31.8736 69.2889C35.8241 69.2916 39.6236 67.7711 42.4815 65.0436C42.763 64.7864 42.9308 64.428 42.948 64.0471C42.9652 63.6662 42.8304 63.2941 42.5732 63.0126C42.316 62.7311 41.9576 62.5633 41.5767 62.5461C41.1958 62.5289 40.8237 62.6637 40.5422 62.9209L40.5115 62.9516C39.2784 64.1239 37.8211 65.0349 36.2271 65.63C34.6331 66.225 32.9354 66.4918 31.2357 66.4144C29.5361 66.3369 27.8696 65.9169 26.3364 65.1793C24.8031 64.4418 23.4347 63.4021 22.3133 62.1226L28.9844 51.4246V56.3749C28.9844 58.7403 29.9068 59.5101 30.6821 59.7253C31.4574 59.9406 32.6203 59.7846 33.8799 57.7871L37.5399 51.8441C37.6377 51.6705 37.7508 51.5058 37.876 51.351V54.3654C37.876 56.5781 38.7676 58.3615 40.3039 59.2213C41.0131 59.6074 41.8136 59.7943 42.6205 59.762C43.4273 59.7297 44.2104 59.4795 44.8864 59.0379C46.661 57.886 47.6142 55.8687 47.4901 53.4396ZM43.4314 56.5528C43.185 56.7226 42.8976 56.8234 42.5991 56.8448C42.3007 56.8663 42.0019 56.8075 41.7337 56.6747C41.1187 56.3069 40.7487 55.4778 40.7487 54.3401V50.8557C40.7487 49.1976 40.103 47.9973 38.9972 47.692C37.1205 47.1254 35.7083 49.4435 35.1844 50.3045L31.8736 55.6216V49.0746C31.8428 47.569 31.3498 46.6774 30.4274 46.3995C29.8124 46.2161 28.89 46.3095 27.9994 47.6624L20.5903 59.5277C19.6046 57.6495 19.0881 55.5607 19.0848 53.4396C19.0848 46.2765 24.8324 40.4663 31.8736 40.4663C38.9148 40.4663 44.6624 46.2765 44.6624 53.4396V53.5022C44.736 54.8837 44.2923 55.9928 43.4325 56.5441L43.4314 56.5528ZM69.2561 48.0292C69.4598 48.1596 69.63 48.3361 69.7531 48.5444C69.8761 48.7527 69.9485 48.9869 69.9644 49.2283C69.9623 49.5812 69.8233 49.9194 69.5766 50.1718C69.33 50.4242 68.995 50.571 68.6423 50.5812C68.475 50.5685 68.3096 50.5371 68.1492 50.4879C67.288 49.8418 66.2432 49.4872 65.1667 49.4754C62.5542 49.4754 60.772 51.5948 60.772 54.238C60.772 56.8812 62.5861 58.9731 65.1667 58.9731C66.4071 58.9713 67.598 58.486 68.4863 57.6202C68.7126 57.461 68.9805 57.3753 69.2561 57.3742C69.4768 57.3718 69.6941 57.428 69.8858 57.5371C70.0776 57.6462 70.2369 57.8043 70.3475 57.9952C70.4581 58.1862 70.516 58.403 70.5153 58.6237C70.5145 58.8443 70.4552 59.0608 70.3433 59.2509C70.2368 59.4376 70.0852 59.5969 69.9018 59.7122C69.0018 60.4605 67.935 60.9814 66.7914 61.231C65.6478 61.4805 64.461 61.4514 63.331 61.146C62.2011 60.8407 61.1611 60.2681 60.2988 59.4765C59.4366 58.6849 58.7774 57.6976 58.3767 56.5978C57.9761 55.498 57.8459 54.318 57.997 53.1573C58.1481 51.9966 58.5761 50.8892 59.2449 49.9286C59.9138 48.968 60.8038 48.1824 61.84 47.6379C62.8761 47.0935 64.0281 46.8062 65.1985 46.8003C66.6459 46.7784 68.0647 47.2067 69.2561 48.0292ZM76.5719 51.094C75.1928 51.0882 73.8676 51.6293 72.8867 52.5988C71.9059 53.5683 71.3494 54.8871 71.3393 56.2662C71.3478 57.653 71.9002 58.981 72.8777 59.9646C73.8552 60.9483 75.1797 61.509 76.5664 61.5263C79.2722 61.5263 81.5782 59.0972 81.5782 56.2662C81.5782 53.4374 79.3084 51.094 76.5719 51.094ZM76.5411 58.9643C75.2508 58.9643 74.1747 57.7959 74.1747 56.2893C74.1747 54.7223 75.2508 53.768 76.5411 53.768C77.7414 53.768 78.7539 54.753 78.7539 56.2893C78.7539 57.8267 77.7414 58.9731 76.5411 58.9731V58.9643ZM83.3045 59.9263V52.6698C83.301 52.4817 83.335 52.2948 83.4046 52.1199C83.4741 51.9451 83.5778 51.7858 83.7096 51.6515C83.8414 51.5171 83.9986 51.4104 84.1721 51.3375C84.3456 51.2646 84.5318 51.227 84.72 51.2269C85.0986 51.2318 85.46 51.3863 85.7252 51.6566C85.9903 51.9269 86.1378 52.2912 86.1355 52.6698V59.9263C86.1381 60.3051 85.9908 60.6697 85.7255 60.9402C85.4603 61.2108 85.0988 61.3654 84.72 61.3703C84.3432 61.3593 83.9852 61.2027 83.7213 60.9335C83.4574 60.6643 83.308 60.3033 83.3045 59.9263ZM83.0893 48.4904C83.0831 48.2713 83.1206 48.0532 83.1996 47.8488C83.2785 47.6444 83.3973 47.4577 83.549 47.2996C83.7008 47.1415 83.8825 47.0152 84.0835 46.928C84.2845 46.8408 84.5009 46.7944 84.72 46.7916C84.9404 46.7941 85.1582 46.8401 85.3609 46.9269C85.5635 47.0137 85.7471 47.1396 85.9011 47.2973C86.0551 47.4551 86.1765 47.6417 86.2584 47.8464C86.3402 48.0511 86.3809 48.2699 86.3782 48.4904C86.3782 48.9264 86.205 49.3445 85.8967 49.6528C85.5884 49.9611 85.1703 50.1343 84.7343 50.1343C84.2983 50.1343 83.8801 49.9611 83.5719 49.6528C83.2636 49.3445 83.0893 48.9264 83.0893 48.4904ZM91.5438 55.9928V59.9263C91.5438 60.3017 91.3946 60.6617 91.1292 60.9272C90.8637 61.1926 90.5037 61.3418 90.1283 61.3418C89.7529 61.3418 89.3928 61.1926 89.1274 60.9272C88.8619 60.6617 88.7128 60.3017 88.7128 59.9263V52.3327C88.7128 52.0432 88.8278 51.7656 89.0325 51.5609C89.2372 51.3562 89.5148 51.2412 89.8043 51.2412C90.0938 51.2412 90.3715 51.3562 90.5762 51.5609C90.7809 51.7656 90.8959 52.0432 90.8959 52.3327C91.2993 51.9205 91.785 51.5979 92.3214 51.386C92.8578 51.1741 93.4329 51.0776 94.0091 51.1028C96.839 51.1028 98.0985 53.2244 98.0985 55.6535V59.9263C98.0985 60.3017 97.9494 60.6617 97.6839 60.9272C97.4185 61.1926 97.0584 61.3418 96.683 61.3418C96.3076 61.3418 95.9476 61.1926 95.6821 60.9272C95.4167 60.6617 95.2675 60.3017 95.2675 59.9263V55.9928C95.2675 54.7618 95.1149 53.7284 93.3315 53.7284C92.0731 53.7284 91.5493 54.7728 91.5493 55.9928H91.5438ZM107.254 57.4983C107.11 57.4987 106.968 57.4653 106.84 57.4008C106.712 57.3363 106.6 57.2426 106.515 57.1272L103.226 53.5615V59.9263C103.231 60.1154 103.198 60.3037 103.13 60.48C103.061 60.6562 102.957 60.8169 102.825 60.9526C102.694 61.0882 102.536 61.196 102.362 61.2697C102.187 61.3433 102 61.3812 101.811 61.3812C101.622 61.3812 101.434 61.3433 101.26 61.2697C101.086 61.196 100.928 61.0882 100.796 60.9526C100.664 60.8169 100.561 60.6562 100.492 60.48C100.423 60.3037 100.391 60.1154 100.396 59.9263V47.3209C100.439 47.2163 100.512 47.1263 100.605 47.0612C100.697 46.9961 100.806 46.9586 100.92 46.953C101.163 46.9944 101.383 47.1256 101.535 47.3209L106.792 53.2244C106.846 53.3005 106.915 53.3648 106.994 53.4135C107.073 53.4622 107.162 53.4943 107.254 53.5077C107.437 53.4722 107.6 53.3716 107.715 53.2244L112.97 47.3209C113.043 47.2219 113.135 47.1384 113.24 47.0752C113.346 47.012 113.463 46.9705 113.584 46.953C113.7 46.9501 113.813 46.9843 113.907 47.0506C114.001 47.1168 114.072 47.2115 114.108 47.3209V59.9274C114.112 60.1155 114.078 60.3025 114.008 60.4773C113.939 60.6522 113.835 60.8114 113.703 60.9458C113.571 61.0801 113.414 61.1868 113.241 61.2597C113.067 61.3326 112.881 61.3702 112.693 61.3703C112.314 61.3648 111.953 61.21 111.688 60.9395C111.423 60.6691 111.276 60.3049 111.278 59.9263V53.5615L107.986 57.1272C107.796 57.3389 107.533 57.4714 107.25 57.4983H107.254ZM133.845 53.7175H133.536C131.754 53.8075 131.417 54.8244 131.417 55.9818V59.9153C131.417 60.2906 131.267 60.6505 131.002 60.9159C130.737 61.1813 130.377 61.3305 130.001 61.3308C129.626 61.3302 129.266 61.1807 129.001 60.9151C128.736 60.6495 128.587 60.2895 128.587 59.9142V52.3338C128.588 52.0442 128.703 51.7666 128.908 51.5618C129.112 51.3571 129.39 51.2418 129.68 51.2412C129.969 51.2418 130.247 51.3571 130.451 51.5619C130.656 51.7667 130.771 52.0443 130.771 52.3338C131.815 51.3488 132.676 51.1336 133.536 51.1017H133.82C134.164 51.1109 134.492 51.2541 134.733 51.501C134.974 51.7478 135.109 52.0789 135.11 52.4239C135.109 52.761 134.978 53.0846 134.742 53.3261C134.507 53.5677 134.187 53.708 133.85 53.7175H133.845ZM144.758 59.2498C144.888 59.453 144.962 59.6858 144.973 59.9263C144.958 60.2968 144.804 60.6479 144.542 60.9101C144.279 61.1723 143.928 61.3264 143.558 61.3418C143.068 61.3418 142.635 60.9706 142.298 60.5401L139.041 56.7538V59.8944C139.041 60.2697 138.892 60.6296 138.627 60.895C138.361 61.1603 138.002 61.3094 137.626 61.3094C137.251 61.3094 136.891 61.1603 136.626 60.895C136.36 60.6296 136.211 60.2697 136.211 59.8944V48.3696C136.211 48.0895 136.293 47.8156 136.449 47.5826C136.604 47.3495 136.825 47.1679 137.084 47.0607C137.342 46.9535 137.627 46.9256 137.902 46.9805C138.176 47.0354 138.428 47.1707 138.626 47.3692C138.892 47.6338 139.041 47.9951 139.041 48.3685V55.5612L142.298 51.9659C142.635 51.5959 143.037 51.1973 143.527 51.1973C143.886 51.2131 144.226 51.3648 144.477 51.6218C144.728 51.8787 144.872 52.2216 144.88 52.5809C144.881 52.809 144.817 53.0326 144.695 53.2255L142.115 56.0554L144.758 59.2542V59.2498ZM161.852 61.4944H161.082C158.931 61.4944 157.669 60.5401 157.669 57.1898V53.7175H156.933C156.586 53.7175 156.253 53.5797 156.008 53.3344C155.763 53.0891 155.625 52.7565 155.625 52.4096C155.625 52.0627 155.763 51.7301 156.008 51.4848C156.253 51.2395 156.586 51.1017 156.933 51.1017H157.658V48.4278C157.651 48.1441 157.73 47.8651 157.885 47.6272C158.039 47.3893 158.262 47.2037 158.524 47.0946C158.698 47.0222 158.884 46.9848 159.072 46.9848C159.45 46.9912 159.811 47.1461 160.076 47.4161C160.341 47.6861 160.489 48.0495 160.488 48.4278V51.094H161.654C161.996 51.1044 162.319 51.2487 162.556 51.4959C162.792 51.7431 162.921 52.0733 162.916 52.4151C162.904 52.7491 162.768 53.0668 162.535 53.3061C162.302 53.5453 161.988 53.6889 161.654 53.7087H160.488V56.6297C160.488 58.5657 160.578 58.9643 161.439 58.9643H161.841C162.175 58.9658 162.495 59.0994 162.731 59.336C162.967 59.5726 163.1 59.893 163.1 60.2272C163.093 60.5589 162.957 60.8749 162.723 61.1095C162.488 61.3441 162.172 61.4792 161.841 61.4867L161.852 61.4944ZM175.53 48.0292C175.733 48.1599 175.903 48.3365 176.026 48.5448C176.149 48.753 176.221 48.9871 176.237 49.2283C176.235 49.5813 176.096 49.9197 175.85 50.1721C175.603 50.4246 175.268 50.5712 174.915 50.5812C174.748 50.5677 174.583 50.5365 174.423 50.4879C173.563 49.8414 172.519 49.4866 171.443 49.4754C168.828 49.4754 167.045 51.5948 167.045 54.238C167.045 56.8812 168.859 58.9731 171.443 58.9731C172.683 58.9713 173.874 58.486 174.762 57.6202C174.987 57.4621 175.255 57.3764 175.53 57.3742C175.696 57.3727 175.861 57.4041 176.014 57.4667C176.168 57.5293 176.308 57.6218 176.426 57.7388C176.621 57.9339 176.746 58.1884 176.781 58.4624C176.816 58.7363 176.759 59.0141 176.619 59.252C176.511 59.4397 176.359 59.5974 176.174 59.7111C175.275 60.458 174.209 60.9776 173.066 61.226C171.924 61.4745 170.738 61.4445 169.61 61.1386C167.906 60.678 166.428 59.6155 165.448 58.148C164.468 56.6804 164.053 54.9073 164.281 53.1574C164.507 51.4072 165.361 49.7985 166.683 48.6295C168.005 47.4606 169.706 46.8107 171.471 46.8003C172.92 46.7727 174.34 47.2028 175.53 48.0292ZM124.961 51.1962C124.817 51.1961 124.675 51.2249 124.542 51.2808C124.409 51.3367 124.289 51.4186 124.189 51.5216C124.088 51.6247 124.009 51.7468 123.957 51.8809C123.904 52.0149 123.879 52.1581 123.883 52.302L123.823 52.6424C123.418 52.1621 122.914 51.7737 122.347 51.5033C121.779 51.2329 121.161 51.0866 120.532 51.0743C117.767 51.0743 115.77 53.4089 115.77 56.2355C115.77 59.0632 117.735 61.4944 120.38 61.4944C121.486 61.4944 123.238 61.0014 123.793 59.9263L123.855 60.2634C123.852 60.4082 123.879 60.5519 123.934 60.6859C123.989 60.8198 124.071 60.9411 124.174 61.0421C124.278 61.1432 124.401 61.2219 124.537 61.2735C124.672 61.325 124.816 61.3483 124.961 61.3418C125.106 61.3421 125.25 61.3136 125.385 61.2581C125.519 61.2026 125.641 61.1211 125.744 61.0182C125.847 60.9154 125.929 60.7932 125.984 60.6588C126.04 60.5244 126.068 60.3803 126.068 60.2349V52.3108C126.064 52.0178 125.946 51.7379 125.739 51.53C125.533 51.3221 125.254 51.2024 124.961 51.1962ZM120.841 58.9731C119.581 58.9731 118.596 57.7762 118.596 56.2981C118.596 54.8211 119.61 53.7504 120.841 53.7504C122.071 53.7504 123.179 54.764 123.179 56.2981C123.179 57.8322 122.101 58.9731 120.841 58.9731ZM155.088 56.0521C155.026 52.8851 152.965 51.1017 150.231 51.1017C146.836 51.1017 145.403 53.5615 145.403 56.3914C145.403 59.9889 147.772 61.5252 150.631 61.5252C151.706 61.5252 152.844 61.3703 153.703 60.7246C153.882 60.62 154.032 60.4726 154.139 60.2956C154.246 60.1187 154.308 59.9178 154.318 59.7111C154.32 59.4068 154.203 59.1138 153.991 58.8953C153.78 58.6768 153.49 58.5501 153.186 58.5426C152.926 58.5448 152.671 58.6195 152.45 58.7579C151.867 59.0069 151.239 59.1322 150.605 59.1258C149.897 59.1258 148.268 58.8424 148.268 57.159H153.978C154.27 57.1534 154.549 57.0351 154.756 56.8288C154.963 56.6225 155.082 56.3442 155.088 56.0521ZM148.261 55.3383C148.261 54.1413 149.524 53.7427 150.29 53.7427C151.058 53.7427 152.32 54.1413 152.351 55.3383H148.261ZM186.808 51.1962C186.664 51.1962 186.521 51.225 186.389 51.2808C186.256 51.3367 186.136 51.4184 186.036 51.5212C185.935 51.6242 185.856 51.7465 185.804 51.8806C185.752 52.0148 185.727 52.1581 185.731 52.302L185.67 52.6424C185.265 52.162 184.762 51.7736 184.195 51.5032C183.628 51.2328 183.009 51.0865 182.381 51.0743C179.614 51.0743 177.615 53.4089 177.615 56.2355C177.615 59.0632 179.596 61.4944 182.225 61.4944C183.332 61.4944 185.087 61.0014 185.638 59.9263L185.701 60.2634C185.699 60.408 185.726 60.5514 185.781 60.685C185.837 60.8186 185.918 60.9397 186.021 61.0409C186.125 61.1421 186.248 61.221 186.383 61.2728C186.519 61.3245 186.663 61.348 186.808 61.3418C187.027 61.3417 187.241 61.2768 187.423 61.1552C187.605 61.0337 187.747 60.8609 187.831 60.6587C187.886 60.5248 187.915 60.3809 187.915 60.2349V52.3108C187.91 52.018 187.792 51.7383 187.586 51.5306C187.379 51.3228 187.1 51.2029 186.808 51.1962ZM182.686 58.9731C181.459 58.9731 180.443 57.7762 180.443 56.2981C180.443 54.8211 181.428 53.7504 182.686 53.7504C183.946 53.7504 185.024 54.764 185.024 56.2981C185.024 57.8322 183.955 58.9731 182.693 58.9731H182.686ZM195.974 51.094C195.358 51.0828 194.746 51.1969 194.175 51.4295C193.604 51.662 193.087 52.0082 192.654 52.4469C192.654 51.7419 192.193 51.2181 191.579 51.2181C191.433 51.2177 191.289 51.246 191.155 51.3015C191.02 51.3569 190.898 51.4384 190.795 51.5412C190.692 51.6441 190.61 51.7663 190.554 51.9008C190.498 52.0353 190.47 52.1794 190.47 52.325V64.254C190.471 64.6289 190.62 64.9881 190.885 65.2532C191.15 65.5182 191.509 65.6675 191.884 65.6684C192.259 65.6681 192.619 65.5191 192.884 65.2539C193.15 64.9887 193.299 64.6292 193.3 64.254V60.6653C194.066 61.2473 195.297 61.4944 196.13 61.5142C198.805 61.5142 200.743 59.0862 200.743 56.2563C200.743 53.4254 198.711 51.094 195.974 51.094ZM195.634 58.9643C194.375 58.9643 193.3 57.8333 193.3 56.2904C193.3 54.7475 194.375 53.7427 195.634 53.7427C196.894 53.7427 197.879 54.7563 197.879 56.2904C197.879 57.7751 196.897 58.9731 195.634 58.9731V58.9643Z" fill="black"/>
</g>
<defs>
<clipPath id="clip0_2359_5146">
<rect width="184.486" height="31.8458" fill="white" transform="translate(16.2571 37.5771)"/>
</clipPath>
</defs>
</svg>
