<svg width="217" height="107" viewBox="0 0 217 107" fill="none" xmlns="http://www.w3.org/2000/svg">
<g clip-path="url(#clip0_2086_6942)">
<path d="M29.5587 45.311C28.285 45.311 27.2913 45.835 26.5776 46.8829C25.8639 47.9218 25.5071 49.3581 25.5071 51.192C25.5071 55.0042 26.957 56.9103 29.8569 56.9103C30.7331 56.9103 31.5823 56.7884 32.4043 56.5444C33.2264 56.3006 34.053 56.0069 34.8841 55.6637V60.1896C33.2309 60.9213 31.3609 61.2872 29.2742 61.2872C26.284 61.2872 23.9894 60.4199 22.3905 58.6855C20.8005 56.951 20.0056 54.4441 20.0056 51.1648C20.0056 49.1142 20.3895 47.312 21.1574 45.7582C21.9343 44.2044 23.0454 43.0119 24.4908 42.1808C25.9452 41.3407 27.6526 40.9206 29.6129 40.9206C31.7539 40.9206 33.8001 41.3859 35.7514 42.3163L34.1117 46.5306C33.38 46.1873 32.6483 45.8982 31.9165 45.6633C31.1848 45.4285 30.3989 45.311 29.5587 45.311ZM53.1096 53.3059C53.1096 55.8172 52.4321 57.7775 51.0771 59.1868C49.7311 60.587 47.843 61.2872 45.4129 61.2872C43.0822 61.2872 41.2258 60.569 39.8436 59.1326C38.4705 57.6962 37.7839 55.754 37.7839 53.3059C37.7839 50.8035 38.457 48.8613 39.803 47.4791C41.158 46.0879 43.0551 45.3923 45.4942 45.3923C47.0028 45.3923 48.3353 45.713 49.4916 46.3544C50.648 46.9958 51.5378 47.9173 52.1611 49.1187C52.7934 50.3112 53.1096 51.7069 53.1096 53.3059ZM43.1635 53.3059C43.1635 54.6248 43.3397 55.632 43.692 56.3276C44.0443 57.0142 44.636 57.3575 45.4671 57.3575C46.2892 57.3575 46.8673 57.0142 47.2016 56.3276C47.5449 55.632 47.7165 54.6248 47.7165 53.3059C47.7165 51.9959 47.5449 51.0068 47.2016 50.3382C46.8583 49.6698 46.2711 49.3355 45.44 49.3355C44.627 49.3355 44.0443 49.6698 43.692 50.3382C43.3397 50.9978 43.1635 51.9869 43.1635 53.3059ZM61.4703 61.0161H56.1721V45.6633H61.4703V61.0161ZM56.0366 41.8421C56.0366 41.0471 56.2579 40.4554 56.7005 40.0669C57.1432 39.6785 57.8568 39.4843 58.8416 39.4843C59.8262 39.4843 60.5444 39.683 60.9961 40.0805C61.4478 40.478 61.6736 41.0652 61.6736 41.8421C61.6736 43.3959 60.7296 44.1728 58.8416 44.1728C56.9716 44.1728 56.0366 43.3959 56.0366 41.8421ZM74.8583 61.0161V52.6419C74.8583 51.6211 74.7093 50.8532 74.4112 50.3382C74.1221 49.8143 73.6524 49.5524 73.0019 49.5524C72.1076 49.5524 71.4617 49.9092 71.0642 50.6228C70.6667 51.3365 70.468 52.5606 70.468 54.2951V61.0161H65.1697V45.6633H69.1671L69.8311 47.5604H70.1427C70.5944 46.8377 71.2177 46.2957 72.0127 45.9344C72.8167 45.573 73.7382 45.3923 74.7771 45.3923C76.4754 45.3923 77.7945 45.8846 78.734 46.8693C79.6822 47.854 80.1569 49.2407 80.1569 51.0294V61.0161H74.8583ZM95.618 56.3006C95.618 57.9447 95.0578 59.1868 93.9373 60.027C92.8174 60.8671 91.2095 61.2872 89.1137 61.2872C87.9753 61.2872 86.9861 61.2239 86.146 61.0974C85.306 60.98 84.4474 60.7587 83.5715 60.4335V56.1921C84.3936 56.5535 85.2921 56.8516 86.268 57.0865C87.2526 57.3214 88.1291 57.4388 88.8969 57.4388C90.044 57.4388 90.6175 57.1768 90.6175 56.6528C90.6175 56.3819 90.455 56.1424 90.1301 55.9347C89.8139 55.7178 88.883 55.3023 87.3382 54.688C85.9292 54.1099 84.9446 53.4549 84.3844 52.7232C83.8241 51.9824 83.5443 51.0474 83.5443 49.9182C83.5443 48.4909 84.0953 47.3798 85.1973 46.5848C86.2998 45.7898 87.858 45.3923 89.8723 45.3923C90.884 45.3923 91.8328 45.5052 92.718 45.7311C93.6124 45.9479 94.5386 46.2686 95.496 46.6932L94.0593 50.1079C93.3551 49.7917 92.6098 49.5252 91.8235 49.3084C91.0378 49.0826 90.3967 48.9697 89.8994 48.9697C89.0322 48.9697 88.5986 49.1819 88.5986 49.6065C88.5986 49.8686 88.7477 50.0944 89.0461 50.2841C89.3531 50.4647 90.229 50.8396 91.6744 51.4088C92.7498 51.8514 93.5493 52.285 94.0732 52.7096C94.6062 53.1342 94.9947 53.6356 95.2381 54.2138C95.4914 54.7829 95.618 55.4785 95.618 56.3006ZM107.773 61.2872C106.996 61.2872 106.3 61.1607 105.686 60.9077C105.071 60.6458 104.462 60.1805 103.857 59.512H103.613C103.775 60.587 103.857 61.2556 103.857 61.5175V67.683H98.5585V45.6633H102.868L103.613 47.6146H103.857C104.841 46.1331 106.201 45.3923 107.935 45.3923C109.634 45.3923 110.966 46.0969 111.933 47.5062C112.899 48.9155 113.382 50.8487 113.382 53.3059C113.382 55.7811 112.877 57.7324 111.865 59.1597C110.862 60.578 109.498 61.2872 107.773 61.2872ZM105.998 49.5524C105.221 49.5524 104.674 49.8324 104.358 50.3925C104.051 50.9435 103.884 51.7656 103.857 52.8587V53.2788C103.857 54.5977 104.033 55.5508 104.385 56.1379C104.737 56.7251 105.293 57.0187 106.052 57.0187C106.73 57.0187 107.222 56.7296 107.529 56.1515C107.836 55.5643 107.989 54.5977 107.989 53.2516C107.989 51.9328 107.836 50.9887 107.529 50.4196C107.222 49.8414 106.711 49.5524 105.998 49.5524ZM123.83 61.2872C121.274 61.2872 119.286 60.6096 117.868 59.2546C116.459 57.8905 115.754 55.9527 115.754 53.4413C115.754 50.8487 116.409 48.8613 117.719 47.4791C119.029 46.0879 120.899 45.3923 123.329 45.3923C125.641 45.3923 127.425 45.9976 128.681 47.2081C129.946 48.4096 130.579 50.144 130.579 52.4115V54.7693H121.107C121.143 55.6275 121.454 56.3006 122.042 56.7884C122.638 57.2762 123.447 57.5201 124.467 57.5201C125.398 57.5201 126.251 57.4343 127.028 57.2626C127.814 57.0819 128.663 56.7793 129.576 56.3547V60.1624C128.745 60.587 127.886 60.8806 127.001 61.0433C126.116 61.2058 125.059 61.2872 123.83 61.2872ZM123.519 48.9967C122.895 48.9967 122.371 49.1955 121.947 49.593C121.531 49.9815 121.287 50.5958 121.215 51.4359H125.768C125.75 50.6951 125.538 50.1034 125.131 49.6608C124.733 49.2181 124.196 48.9967 123.519 48.9967ZM143.587 61.0161L142.571 58.9836H142.462C141.749 59.8688 141.021 60.4741 140.281 60.7993C139.54 61.1245 138.582 61.2872 137.408 61.2872C135.962 61.2872 134.824 60.8536 133.993 59.9863C133.162 59.1191 132.747 57.8995 132.747 56.3276C132.747 54.6925 133.316 53.4775 134.454 52.6825C135.592 51.8785 137.241 51.4269 139.4 51.3275L141.961 51.2462V51.0294C141.961 49.7647 141.338 49.1323 140.091 49.1323C138.971 49.1323 137.548 49.5117 135.823 50.2705L134.291 46.7745C136.08 45.853 138.338 45.3923 141.066 45.3923C143.036 45.3923 144.558 45.8801 145.633 46.8558C146.717 47.8314 147.259 49.1955 147.259 50.948V61.0161H143.587ZM139.657 57.5472C140.299 57.5472 140.845 57.3439 141.297 56.9374C141.757 56.5309 141.988 56.0024 141.988 55.352V54.1595L140.768 54.2138C139.025 54.277 138.153 54.9184 138.153 56.1379C138.153 57.0774 138.654 57.5472 139.657 57.5472ZM155.999 52.3844C156.641 51.3636 157.187 50.5686 157.639 49.9995L161.081 45.6633H166.989L161.663 52.1947L167.328 61.0161H161.27L157.91 55.5146L156.189 56.829V61.0161H150.863V39.9314H156.189V48.2244C156.189 49.6427 156.089 51.0294 155.891 52.3844H155.999ZM176.569 61.2872C174.012 61.2872 172.025 60.6096 170.607 59.2546C169.197 57.8905 168.493 55.9527 168.493 53.4413C168.493 50.8487 169.148 48.8613 170.458 47.4791C171.768 46.0879 173.638 45.3923 176.068 45.3923C178.38 45.3923 180.164 45.9976 181.42 47.2081C182.685 48.4096 183.317 50.144 183.317 52.4115V54.7693H173.845C173.882 55.6275 174.193 56.3006 174.781 56.7884C175.377 57.2762 176.185 57.5201 177.206 57.5201C178.136 57.5201 178.99 57.4343 179.767 57.2626C180.553 57.0819 181.402 56.7793 182.315 56.3547V60.1624C181.483 60.587 180.625 60.8806 179.74 61.0433C178.855 61.2058 177.797 61.2872 176.569 61.2872ZM176.257 48.9967C175.634 48.9967 175.11 49.1955 174.686 49.593C174.27 49.9815 174.026 50.5958 173.954 51.4359H178.507C178.489 50.6951 178.277 50.1034 177.87 49.6608C177.473 49.2181 176.935 48.9967 176.257 48.9967ZM195.58 45.3923C196.041 45.3923 196.479 45.4285 196.895 45.5007L197.193 45.5549L196.719 50.5551C196.285 50.4467 195.685 50.3925 194.917 50.3925C193.76 50.3925 192.92 50.659 192.396 51.192C191.872 51.7159 191.61 52.4748 191.61 53.4685V61.0161H186.312V45.6633H190.255L191.082 48.116H191.339C191.782 47.3029 192.396 46.648 193.182 46.1512C193.977 45.6453 194.777 45.3923 195.58 45.3923Z" fill="url(#paint0_linear_2086_6942)"/>
</g>
<defs>
<linearGradient id="paint0_linear_2086_6942" x1="18.5963" y1="69.1104" x2="197.825" y2="69.1104" gradientUnits="userSpaceOnUse">
<stop stop-color="#F7102B"/>
<stop offset="0.9998" stop-color="#B7081C"/>
<stop offset="0.9999" stop-color="#B7081C" stop-opacity="0.0520833"/>
<stop offset="1" stop-opacity="0"/>
</linearGradient>
<clipPath id="clip0_2086_6942">
<rect width="177.495" height="28.9079" fill="white" transform="translate(19.7526 39.046)"/>
</clipPath>
</defs>
</svg>
