<svg width="217" height="107" viewBox="0 0 217 107" fill="none" xmlns="http://www.w3.org/2000/svg">
<g clip-path="url(#clip0_2359_5147)">
<path d="M94.0209 48.6843C93.5664 46.8852 92.4206 45.5687 90.1802 45.5687C86.874 45.5687 85.4914 48.5299 85.4914 51.535C85.4914 54.54 86.874 57.5028 90.1802 57.5028C92.5806 57.5028 93.8961 55.6826 94.1105 53.4007H96.7462C96.5301 57.1518 93.9169 59.7391 90.185 59.7391C85.5618 59.7391 82.7965 56.0092 82.7965 51.5333C82.7965 47.0575 85.5522 43.321 90.1754 43.321C93.6528 43.3422 96.3957 45.2957 96.7206 48.6746L94.0209 48.6843Z" fill="#0B0B0B"/>
<path d="M98.3418 53.6769C98.3418 50.2103 100.393 47.7107 103.98 47.7107C107.566 47.7107 109.617 50.2103 109.617 53.6769C109.617 57.1435 107.566 59.6675 103.98 59.6675C100.393 59.6675 98.3418 57.1663 98.3418 53.6769ZM107.155 53.6769C107.155 51.7266 106.183 49.6854 103.98 49.6854C101.776 49.6854 100.805 51.725 100.805 53.6769C100.805 55.6288 101.776 57.6929 103.98 57.6929C106.183 57.6929 107.155 55.6516 107.155 53.6769Z" fill="#0B0B0B"/>
<path d="M111.735 43.6953H114.198V46.0649H111.735V43.6953ZM111.735 48.0184H114.198V59.3609H111.735V48.0184Z" fill="#0B0B0B"/>
<path d="M116.876 48.0178H119.209V49.6853L119.253 49.7292C119.606 49.1115 120.114 48.5995 120.725 48.2448C121.336 47.8901 122.028 47.7053 122.732 47.709C125.151 47.709 126.684 49.0255 126.684 51.569V59.3587H124.222V52.2288C124.178 50.4524 123.487 49.6853 122.04 49.6853C120.398 49.6853 119.339 51.0001 119.339 52.6676V59.3603H116.876V48.0178Z" fill="#0B0B0B"/>
<path d="M143.081 59.3605H141.352L140.943 57.5174C139.502 59.1849 138.177 59.7326 136.302 59.7326C131.682 59.7359 128.91 55.9979 128.91 51.5268C128.91 47.0558 131.682 43.321 136.299 43.321C139.659 43.321 142.498 45.1413 142.908 48.6746H140.272C140.013 46.6121 138.243 45.559 136.299 45.559C132.992 45.559 131.61 48.5202 131.61 51.5252C131.61 54.5303 132.992 57.4931 136.299 57.4931C139.062 57.5369 140.574 55.8483 140.619 53.1927H136.515V51.1108H143.076L143.081 59.3605Z" fill="#0B0B0B"/>
<path d="M147.597 54.3351C147.597 56.1131 148.547 57.6929 150.599 57.6929C152.024 57.6929 152.889 57.0558 153.319 55.806H155.654C155.115 58.2844 153.041 59.6675 150.599 59.6675C147.1 59.6675 145.134 57.1874 145.134 53.6997C145.134 50.4736 147.214 47.7107 150.535 47.7107C154.055 47.7107 156.216 50.9352 155.806 54.3351H147.597ZM153.343 52.6904C153.257 51.1107 152.197 49.6854 150.535 49.6854C148.827 49.6854 147.662 51.0002 147.597 52.6904H153.343Z" fill="#0B0B0B"/>
<path d="M165.225 51.8128C165.03 50.4297 164.036 49.6854 162.676 49.6854C161.396 49.6854 159.608 50.3647 159.608 53.8086C159.608 55.6955 160.429 57.6929 162.567 57.6929C163.993 57.6929 164.987 56.7275 165.225 55.1039H167.688C167.234 58.0439 165.448 59.6675 162.567 59.6675C159.068 59.6675 157.146 57.1435 157.146 53.8086C157.146 50.3858 158.983 47.7107 162.654 47.7107C165.246 47.7107 167.455 49.0271 167.688 51.8128H165.225Z" fill="#0B0B0B"/>
<path d="M169.769 43.6953H172.232V52.6032L176.682 48.0184H179.707L175.429 52.1855L180.116 59.3609H177.108L173.694 53.853L172.225 55.3011V59.3642H169.769V43.6953Z" fill="#0B0B0B"/>
<path d="M180.78 53.6769C180.78 50.2103 182.832 47.7107 186.418 47.7107C190.004 47.7107 192.057 50.2103 192.057 53.6769C192.057 57.1435 190.004 59.6675 186.418 59.6675C182.832 59.6675 180.78 57.1663 180.78 53.6769ZM189.595 53.6769C189.595 51.7266 188.622 49.6854 186.418 49.6854C184.214 49.6854 183.243 51.725 183.243 53.6769C183.243 55.6288 184.214 57.6929 186.418 57.6929C188.622 57.6929 189.595 55.6516 189.595 53.6769Z" fill="#0B0B0B"/>
<path d="M69.1112 53.3974C69.1305 57.8333 67.8541 62.1753 65.4435 65.8745C63.0328 69.5737 59.5962 72.4638 55.5683 74.1793C51.5403 75.8949 47.1019 76.3588 42.8143 75.5126C38.5267 74.6663 34.5825 72.5477 31.4804 69.4248C28.3784 66.3019 26.2579 62.3149 25.387 57.9681C24.5161 53.6212 24.9341 49.1097 26.5879 45.0041C28.2417 40.8984 31.0572 37.383 34.6783 34.9025C38.2994 32.422 42.5635 31.0877 46.9313 31.0683C52.788 31.0424 58.4151 33.3803 62.5746 37.5678C66.7341 41.7553 69.0854 47.4493 69.1112 53.3974Z" fill="#8DC63F"/>
<path d="M67.4549 53.4058C67.4732 57.5084 66.2933 61.5243 64.0642 64.9458C61.8351 68.3673 58.6571 71.0406 54.932 72.6277C51.2069 74.2148 47.1021 74.6444 43.1366 73.8622C39.1711 73.08 35.523 71.1211 32.6537 68.2332C29.7844 65.3454 27.8228 61.6582 27.0169 57.6381C26.211 53.618 26.597 49.4454 28.1261 45.6481C29.6553 41.8508 32.2588 38.5993 35.6075 36.3047C38.9562 34.0102 42.8997 32.7756 46.9393 32.7573C52.3558 32.7331 57.56 34.8948 61.4073 38.7671C65.2546 42.6393 67.4299 47.9049 67.4549 53.4058Z" fill="#F9E988"/>
<path d="M47.4028 34.1011C48.7012 33.867 50.03 33.867 51.3283 34.1011C52.6393 34.3119 53.9064 34.7431 55.0778 35.3769C56.2428 36.027 57.2494 36.9095 58.2512 37.7367C59.2529 38.564 60.2499 39.4107 61.1989 40.3371C62.1676 41.249 63.013 42.2874 63.7129 43.425C64.4336 44.5536 65.0243 45.7626 65.4732 47.0282C66.3262 49.5733 66.6222 52.315 66.1966 54.93H66.0701C65.6429 52.3378 65.0636 49.8674 64.1498 47.5174C63.7209 46.3339 63.2163 45.1803 62.6391 44.0637C62.037 42.947 61.3734 41.8656 60.6516 40.8247C59.9175 39.7723 59.0179 38.8498 57.9887 38.0943C56.9517 37.3434 55.7595 36.8575 54.6057 36.3959C53.4519 35.9343 52.3077 35.4565 51.1043 35.1055C49.9009 34.7544 48.6783 34.4911 47.4012 34.236L47.4028 34.1011Z" fill="white"/>
<path d="M57.3878 46.0841C55.9059 45.6485 54.3697 45.0309 52.8142 44.4068C52.7246 44.0103 52.3789 43.5162 51.6796 42.9133C50.6634 42.0177 48.7543 42.0405 47.1044 42.4371C45.2833 42.0015 43.4846 41.8471 41.7578 42.2745C27.6354 46.2255 35.6432 55.8647 30.4583 65.5543C31.196 67.1438 39.1478 76.4174 50.6538 73.9292C50.6538 73.9292 46.7187 64.3257 55.5987 59.7165C62.8016 55.9639 68.0057 49.0209 57.3878 46.0841Z" fill="#8BC53F"/>
<path d="M59.1322 52.392C59.1332 52.5639 59.0839 52.7323 58.9906 52.8758C58.8973 53.0194 58.7642 53.1316 58.6081 53.1983C58.4521 53.265 58.28 53.2832 58.1138 53.2506C57.9475 53.218 57.7945 53.136 57.6741 53.0151C57.5537 52.8942 57.4713 52.7397 57.4373 52.5712C57.4034 52.4028 57.4193 52.2279 57.4833 52.0686C57.5472 51.9094 57.6562 51.7729 57.7964 51.6766C57.9367 51.5803 58.1019 51.5283 58.2713 51.5273C58.4982 51.5265 58.7162 51.617 58.8776 51.779C59.039 51.9411 59.1305 52.1615 59.1322 52.392Z" fill="white"/>
<path d="M47.104 42.4309C48.133 42.5056 51.8536 43.7311 52.8138 44.4007C52.0137 42.0441 49.3204 41.7304 47.104 42.4309Z" fill="#009345"/>
<path d="M48.0833 48.3901C48.0836 49.1834 47.8523 49.9591 47.4185 50.6189C46.9847 51.2788 46.368 51.7931 45.6463 52.097C44.9247 52.4008 44.1305 52.4805 43.3643 52.3259C42.5981 52.1713 41.8942 51.7894 41.3417 51.2285C40.7892 50.6676 40.4129 49.9529 40.2603 49.1748C40.1078 48.3967 40.1859 47.5901 40.4848 46.8571C40.7837 46.1241 41.2899 45.4975 41.9394 45.0567C42.589 44.6159 43.3526 44.3806 44.1338 44.3806C44.6524 44.3804 45.1659 44.484 45.6451 44.6854C46.1243 44.8867 46.5597 45.182 46.9264 45.5544C47.2932 45.9267 47.5842 46.3688 47.7827 46.8553C47.9812 47.3419 48.0833 47.8634 48.0833 48.3901Z" fill="white"/>
<path d="M46.9116 48.4264C46.9116 48.9844 46.7487 49.5299 46.4435 49.9939C46.1382 50.4578 45.7043 50.8195 45.1967 51.033C44.6891 51.2466 44.1305 51.3024 43.5916 51.1936C43.0527 51.0847 42.5577 50.816 42.1692 50.4214C41.7806 50.0268 41.516 49.5241 41.4089 48.9768C41.3017 48.4295 41.3567 47.8622 41.5669 47.3467C41.7772 46.8311 42.1333 46.3905 42.5901 46.0805C43.047 45.7705 43.5841 45.605 44.1336 45.605C44.8704 45.605 45.577 45.9022 46.098 46.4313C46.619 46.9605 46.9116 47.6781 46.9116 48.4264Z" fill="#58595B"/>
<path d="M62.3308 54.1606C59.1302 56.4505 55.4912 58.1879 50.3287 58.1879C47.9122 58.1879 47.4225 55.5875 45.8255 56.8585C45.0013 57.5183 42.0952 58.994 39.7892 58.8819C37.4832 58.7698 33.7449 57.3964 32.7031 52.3972C32.2903 57.3964 32.079 61.0792 30.2307 65.2999C33.9114 71.2857 42.6873 75.9029 50.6535 73.9137C49.7974 67.8434 55.0207 61.8983 57.9636 58.8559C59.0838 57.7036 61.2122 55.8232 62.3308 54.1573V54.1606Z" fill="#8BC53F"/>
<path d="M62.2056 54.3092C61.2118 55.2291 60.0292 55.91 58.8258 56.5114C57.6077 57.0987 56.3379 57.5683 55.0331 57.9139C53.7273 58.2569 52.3655 58.5153 50.986 58.3885C49.6066 58.2617 48.1967 57.7855 47.283 56.7356L47.3262 56.6853C48.4464 57.4231 49.7394 57.6832 51.026 57.7205C52.3302 57.7608 53.6346 57.6518 54.9147 57.3955C56.2078 57.1206 57.4727 56.7234 58.693 56.2091C59.914 55.6971 61.1222 55.1039 62.1624 54.2588L62.2056 54.3092Z" fill="#58595B"/>
</g>
<defs>
<clipPath id="clip0_2359_5147">
<rect width="167.114" height="44.8629" fill="white" transform="translate(24.9429 31.0686)"/>
</clipPath>
</defs>
</svg>
