<svg width="217" height="108" fill="none" xmlns="http://www.w3.org/2000/svg"><g clip-path="url(#a)" fill="#000"><path d="M39.66 36.656v4.84c0 .286-.003.277-.286.348-3.467.859-6.294 2.64-8.185 5.739-.96 1.573-1.478 3.3-1.662 5.13-.235 2.327.103 4.566 1.076 6.693 1.414 3.096 3.795 5.143 6.963 6.313.515.19 1.04.343 1.58.445.144.027.214.071.194.223-.008.064 0 .13 0 .194v9.712c-.008.227-.015.236-.277.196a23.49 23.49 0 0 1-1.96-.382c-3.208-.78-6.216-2.027-8.957-3.882-4.568-3.091-7.548-7.309-8.936-12.65a25.487 25.487 0 0 1-.795-5.182c-.054-1.097.063-2.19.233-3.275.43-2.743 1.248-5.367 2.506-7.845 1.862-3.668 4.484-6.643 8.053-8.74 2.244-1.318 4.66-2.163 7.214-2.637a26.217 26.217 0 0 1 2.904-.383c.335-.024.335-.095.335.303v4.84ZM150.23 52.776v7.773c0 .075.003.15 0 .226-.013.298-.133.447-.429.452-.73.013-1.462.012-2.193 0-.287-.005-.411-.16-.421-.461-.007-.226-.001-.452-.004-.677 0-.038.015-.09-.043-.108-.056-.016-.074.026-.094.062-.498.923-1.357 1.165-2.308 1.187-.664.015-1.331.048-1.992-.076-1.442-.273-2.372-1.188-2.649-2.623a6.531 6.531 0 0 1-.12-1.248c.002-1.494-.002-2.989.003-4.483a5.06 5.06 0 0 1 .255-1.647c.434-1.25 1.338-1.941 2.626-2.127a8.499 8.499 0 0 1 2.377-.015c.76.104 1.429.395 1.801 1.134.019.038.036.087.085.083.075-.007.06-.074.061-.124.002-.075 0-.15 0-.226v-4.934c0-.51.118-.63.621-.631.623-.001 1.247-.003 1.87 0 .423.002.554.136.554.562.001 2.634 0 5.268 0 7.902v-.001Zm-7.174 2.31h.002c0 .784-.017 1.57.005 2.353.02.726.406 1.104 1.132 1.13.526.017 1.054.017 1.579-.007.687-.031 1.136-.412 1.315-1.076.067-.25.096-.505.096-.764 0-1.074-.003-2.149.002-3.223 0-.227-.026-.452-.067-.673-.118-.647-.548-1.097-1.163-1.17a8.713 8.713 0 0 0-1.992 0c-.445.051-.745.305-.849.761a1.802 1.802 0 0 0-.06.412v2.257ZM76.073 53.492V49.49c0-.465.07-.922.212-1.364.422-1.303 1.358-2.013 2.672-2.278a5.24 5.24 0 0 1 1.025-.092c1.085 0 2.173-.053 3.257.031 1.172.092 2.16.545 2.819 1.568.406.633.553 1.344.578 2.084.016.44.006.882.002 1.323-.003.439-.14.573-.582.574-.646.002-1.291.003-1.936 0-.401-.001-.537-.135-.548-.543-.007-.269-.001-.538-.001-.807 0-.108.002-.215-.003-.322-.034-.842-.392-1.205-1.238-1.24a24.8 24.8 0 0 0-2.032.002c-.72.03-1.073.373-1.145 1.092a4.53 4.53 0 0 0-.02.418c-.002 2.377-.002 4.754 0 7.131 0 .172.01.344.03.515.072.577.403.934.983.971.805.05 1.614.054 2.418-.002.602-.042.94-.413.987-1.037.031-.407.015-.817.019-1.225.004-.5.134-.637.624-.639.602-.002 1.205-.002 1.807 0 .504.003.642.133.635.626-.009.59.022 1.181-.04 1.772-.19 1.765-1.455 3.028-3.24 3.147-1.341.09-2.69.109-4.028-.004-1.78-.15-2.962-1.252-3.202-3.023a6.134 6.134 0 0 1-.054-.835v-3.84l.001-.001ZM128.34 53.495v-7.032c0-.097-.004-.194.005-.29.023-.243.14-.367.383-.4.106-.014.214-.015.321-.015h7.483c.097 0 .195 0 .289.015.232.034.359.148.364.377a50.7 50.7 0 0 1-.001 1.87c-.004.227-.14.352-.362.386-.084.012-.172.005-.257.005h-4.613c-.097 0-.194.003-.29.006-.172.005-.251.1-.257.266-.002.053-.002.108-.002.161v2.774c0 .41.028.437.443.437h3.742c.086 0 .173-.006.258.003.314.033.448.156.456.474.014.57.015 1.14.001 1.709-.008.353-.152.466-.55.467-1.257.003-2.515.002-3.774.002-.566 0-.576.01-.576.575v2.903c0 .347.039.385.392.385 1.57.002 3.14 0 4.71.002.106 0 .213-.008.32.018.249.06.36.164.364.418.009.602.009 1.204-.002 1.806-.005.264-.143.387-.403.41-.064.005-.129 0-.194 0h-7.612c-.097 0-.193 0-.29-.01-.197-.024-.305-.15-.336-.336-.018-.105-.012-.214-.012-.322v-7.064ZM175.425 54.93c.025-.892-.044-1.786.04-2.676.13-1.376.747-2.427 2.069-2.977a4.397 4.397 0 0 1 1.635-.315 58.862 58.862 0 0 1 2.614.002c1.048.03 2.011.309 2.768 1.097.519.54.784 1.197.903 1.921.058.35.072.704.072 1.06-.004 1.43-.002 2.86-.002 4.29 0 .52-.058 1.032-.222 1.525-.427 1.28-1.342 2.005-2.64 2.28a4.755 4.755 0 0 1-1.056.098c-.945-.014-1.892.036-2.837-.029-1.906-.13-3.198-1.435-3.312-3.34-.059-.978-.006-1.957-.031-2.935h-.001Zm3.052.16v.71c.003.579-.01 1.16.015 1.739.026.58.305.932.812 1.01a7.847 7.847 0 0 0 2.342 0c.416-.06.691-.319.791-.744.04-.168.061-.336.061-.509-.003-.676-.002-1.353-.002-2.03 0-.806.004-1.611-.001-2.417-.005-.817-.367-1.209-1.185-1.252a21.892 21.892 0 0 0-1.514-.01c-.954.016-1.315.386-1.319 1.344-.003.72-.001 1.439-.001 2.159h.001ZM89.38 55.096c0-.838-.016-1.677.004-2.515.018-.718.173-1.407.559-2.026.597-.956 1.505-1.414 2.589-1.54 1.102-.129 2.212-.047 3.318-.048.384 0 .77.071 1.141.188 1.308.41 2.09 1.295 2.372 2.63a5.1 5.1 0 0 1 .099 1.057v4.58c0 .465-.055.922-.194 1.366-.418 1.329-1.345 2.077-2.686 2.35-.36.075-.723.1-1.09.096-.923-.014-1.848.036-2.772-.029-1.853-.13-3.079-1.305-3.298-3.145-.091-.772-.036-1.546-.053-2.32-.005-.214 0-.429 0-.644h.01Zm7.078.009c0-.666-.002-1.332 0-1.998 0-.194-.01-.386-.046-.578-.098-.539-.325-.797-.87-.885-.714-.115-1.434-.07-2.152-.026-.042.003-.084.02-.126.027-.461.077-.714.364-.8.808-.042.221-.062.446-.062.673.003 1.31.002 2.621 0 3.932 0 .205.018.407.05.609.088.55.348.808.894.9.556.094 1.115.048 1.672.047 1.052-.002 1.436-.398 1.438-1.447.002-.687 0-1.375 0-2.062h.002ZM112.079 50.213c.095.022.112-.022.13-.059.302-.65.838-1.016 1.517-1.119.961-.145 1.932-.153 2.885.07 1.367.322 2.109 1.24 2.367 2.587.081.423.104.852.104 1.282v7.486c0 .086.004.172-.001.258-.02.37-.147.51-.514.514-.688.01-1.377.009-2.065 0-.334-.003-.459-.138-.482-.474-.007-.107-.006-.215-.006-.322v-7.389c0-.172-.01-.342-.045-.512-.113-.55-.391-.819-.954-.886a7.808 7.808 0 0 0-1.514-.014c-.87.065-1.338.576-1.414 1.5-.01.117-.008.236-.008.354v7.034c0 .085.004.172-.002.258-.021.293-.152.444-.442.449-.731.012-1.462.012-2.193 0-.258-.003-.364-.113-.413-.368a1.805 1.805 0 0 1-.028-.352L109 49.7c0-.064-.003-.128.002-.193.03-.42.165-.546.589-.548.634-.002 1.269-.002 1.904 0 .441.002.579.14.584.575.002.23 0 .46 0 .68ZM191.59 50.22c.111.002.122-.056.144-.102.307-.633.84-.986 1.507-1.084.971-.141 1.951-.152 2.914.082 1.372.334 2.085 1.269 2.338 2.612.075.402.097.811.098 1.219.004 2.527.002 5.054.002 7.581 0 .086.002.172-.008.258-.035.297-.159.437-.452.442-.72.012-1.441.012-2.161.001-.296-.004-.422-.149-.444-.444-.007-.096-.003-.194-.003-.29 0-2.463-.001-4.925.001-7.388 0-.194-.014-.385-.05-.576-.095-.511-.375-.81-.894-.873a6.932 6.932 0 0 0-1.769-.002c-.712.095-1.143.628-1.214 1.45-.011.117-.008.236-.008.354v7.033c0 .096.005.194-.004.29-.028.298-.155.442-.447.447-.72.011-1.441.01-2.161.001-.288-.004-.404-.12-.452-.405-.016-.094-.014-.192-.014-.288V49.667c0-.076-.005-.151.003-.226.035-.344.173-.478.521-.48.677-.006 1.354-.006 2.032 0 .359.002.504.15.521.51.006.129.002.258.002.387v.364l-.002-.001ZM62.964 45.226a39.843 39.843 0 0 0-2.705-4.102c-2.04-2.704-4.386-5.096-7.179-7.031a23.855 23.855 0 0 0-3.598-2.063c-.091-.042-.208-.055-.272-.18h11.651c1.08 0 1.935.66 2.201 1.684.041.159.048.318.047.48-.013 1.548-.013 3.096-.045 4.644-.024 1.172-.023 2.343-.042 3.514-.015 1.018-.04 2.035-.058 3.053ZM49.633 76.266c.352-.203.706-.396 1.05-.605 3.677-2.224 6.896-4.97 9.5-8.406a23.91 23.91 0 0 0 2.72-4.549l.088-.19c.061.066.041.13.041.183.002 3.828.003 7.657 0 11.485 0 1.126-.701 2.012-1.766 2.228-.392.08-.794.035-1.19.031-.935-.007-1.87-.03-2.805-.04-1.44-.018-2.88-.026-4.32-.043-1.064-.013-2.128-.035-3.19-.054-.038 0-.082.016-.128-.04ZM160.554 54.84v-2.805c0-.386-.029-.413-.425-.417-.301-.002-.602.005-.902-.015-.304-.022-.393-.106-.399-.394a43.484 43.484 0 0 1 0-1.806c.006-.292.174-.434.485-.442.3-.01.602.002.902-.004.288-.006.337-.055.338-.344.003-.699 0-1.397.001-2.096.002-.476.135-.61.615-.612.612-.003 1.225-.002 1.838 0 .49 0 .622.133.625.637.004.667 0 1.333.001 2 0 .389.026.414.427.416.548.002 1.097-.001 1.644.001.447.002.585.136.586.57.002.527.003 1.054 0 1.58-.003.379-.091.488-.468.5-.558.019-1.118.008-1.677.01-.086 0-.172-.003-.258.002-.162.01-.263.084-.255.262.003.065 0 .13 0 .194v5.128c0 .971.394 1.364 1.372 1.369.322.002.645-.006.967.002.419.01.561.155.564.57a72.19 72.19 0 0 1-.001 1.613c-.005.326-.113.468-.404.468-.901-.003-1.805.076-2.701-.089-1.58-.29-2.63-1.418-2.82-3.01-.107-.89-.033-1.783-.056-2.674-.005-.204-.001-.408-.001-.612l.002-.002ZM44.343 54.087c4.023-.83 7.31-2.737 9.65-6.173v12.069c-2.642-2.923-5.604-5.267-9.65-5.895ZM156.675 55.15v5.386c0 .653-.046.698-.691.698h-1.741c-.524 0-.646-.12-.646-.644-.002-2.848 0-5.697 0-8.546 0-.817-.002-1.634 0-2.452.001-.504.131-.634.623-.634h1.838c.477 0 .615.132.616.613.002 1.86.001 3.72.001 5.58ZM102.59 55.086v-5.385c0-.107-.003-.215.007-.322.023-.26.15-.413.401-.417a71.134 71.134 0 0 1 2.225 0c.261.004.38.14.413.403.014.106.015.214.015.322v10.866c0 .639-.037.675-.67.675-.602 0-1.204.002-1.806 0-.472 0-.585-.114-.585-.595-.002-1.849-.001-3.697-.001-5.546h.001ZM172.303 55.148v5.416c0 .086.003.172-.002.258-.016.31-.098.395-.417.404-.311.01-.623.002-.935.002-.397 0-.795.006-1.193 0-.373-.007-.498-.136-.498-.512-.002-3.75-.002-7.5 0-11.25 0-.373.13-.504.505-.506.666-.005 1.333-.005 1.999 0 .4.002.539.144.539.547.002 1.88.001 3.761.001 5.641h.001ZM128.013 68.539v3.53c0 .366-.01.374-.385.376l-.677-.002c-.144 0-.221-.067-.218-.216V66.29c0-.368.013-.381.378-.384.162-.002.324.01.484-.003.25-.021.388.091.502.31.596 1.14 1.204 2.274 1.812 3.408.037.07.045.17.17.195v-3.124c0-.183.002-.366.001-.549-.001-.161.08-.236.238-.235h.806c.177 0 .25.097.246.267-.002.118 0 .237 0 .355v5.517c0 .39-.008.396-.399.398-.14 0-.281-.013-.418.002-.275.032-.432-.09-.558-.33-.585-1.11-1.184-2.213-1.777-3.318l-.15-.271-.053.01h-.002ZM139.154 70.888c.076-.35.152-.7.225-1.051.157-.757.31-1.514.466-2.27.056-.268.095-.3.362-.305.226-.004.452-.003.678 0 .314.003.347.024.41.33.142.693.275 1.388.415 2.083.084.418.172.835.282 1.25.128-.449.157-.908.225-1.36.1-.67.178-1.342.269-2.012.032-.239.088-.286.337-.29.269-.005.538-.006.807 0 .269.004.294.04.237.309l-.716 3.336c-.09.42-.191.837-.266 1.26-.038.215-.146.285-.352.28-.322-.01-.645 0-.967-.004-.288-.003-.323-.034-.376-.323l-.575-3.168c-.007-.039-.019-.077-.038-.154-.129.197-.119.396-.151.577-.166.897-.316 1.797-.475 2.694-.064.36-.086.373-.465.374h-.839c-.324-.002-.352-.026-.422-.354-.131-.608-.26-1.217-.39-1.826l-.551-2.58a2.807 2.807 0 0 1-.037-.222c-.017-.131.032-.203.175-.202.323.003.645.005.967.002.19-.002.226.122.246.272.076.585.155 1.17.233 1.756l.212 1.592.076.005-.002.001ZM151.44 69.18v-2.9c0-.351.02-.373.359-.373.838 0 1.676-.01 2.513.013.938.026 1.506.587 1.522 1.518.02 1.159.02 2.32 0 3.48-.016.928-.59 1.499-1.52 1.522-.848.022-1.696.007-2.545.005-.304 0-.328-.025-.329-.333-.002-.977 0-1.955 0-2.932Zm1.301-.033c0 .643.006 1.287-.003 1.93-.002.178.049.257.235.252.333-.01.666.01.998-.007.428-.024.566-.178.576-.609.007-.353.002-.708.002-1.062 0-.665.005-1.33-.002-1.996-.006-.454-.156-.6-.6-.606a37.685 37.685 0 0 0-.933 0c-.267.003-.271.006-.271.264-.002.611-.001 1.223-.001 1.834h-.001ZM98.078 69.178c0-.591-.014-1.183.003-1.775.026-.893.59-1.454 1.49-1.485a20.71 20.71 0 0 1 1.419 0c.869.03 1.386.52 1.493 1.382.022.172.021.343.016.514-.007.242-.052.288-.282.294-.247.007-.495.007-.742 0-.221-.006-.274-.068-.288-.296-.003-.043 0-.086 0-.13-.006-.51-.123-.63-.624-.634-.215-.001-.431-.007-.646.001-.372.013-.518.157-.543.534-.011.16-.005.323-.005.484v2.484c0 .107-.001.216.014.322.039.267.138.383.407.425.34.052.686.058 1.026-.008.253-.05.349-.16.364-.419.015-.235 0-.473.009-.71.004-.145-.065-.185-.197-.18-.161.007-.323-.001-.484.002-.16.003-.242-.072-.243-.23-.002-.226-.002-.452-.002-.678 0-.147.078-.221.218-.222.591-.003 1.183-.003 1.774 0 .175 0 .249.103.246.27-.013.666.041 1.334-.029 1.998-.079.757-.591 1.256-1.354 1.31-.546.039-1.097.037-1.644.001-.822-.055-1.37-.624-1.393-1.447-.016-.601-.003-1.204-.003-1.806v-.001ZM112.588 67.697c.311-.356.687-.463 1.114-.462.258 0 .517-.003.769.054.695.157 1.126.684 1.146 1.444a40.29 40.29 0 0 1 0 2.226c-.026.879-.587 1.446-1.469 1.474-.86.027-1.721.012-2.581.011-.233 0-.273-.048-.292-.285-.006-.075-.002-.15-.002-.226v-6.13c0-.335.165-.502.495-.502.161 0 .323-.002.484 0 .303.004.334.032.335.332.003.581.001 1.162.001 1.743v.321Zm.004 2.352h-.004c0 .354.002.708 0 1.062-.001.123.028.216.173.214.364-.007.73.03 1.092-.02.327-.047.444-.163.449-.48.011-.654.011-1.31 0-1.963-.005-.324-.154-.465-.478-.49-.171-.011-.343-.005-.515-.003-.468.007-.694.216-.714.682-.014.332-.003.666-.003.998ZM119.448 72c-.57.521-1.622.605-2.274.19-.405-.257-.606-.646-.63-1.104a22.507 22.507 0 0 1-.001-2.45c.044-.783.588-1.326 1.373-1.358.869-.035 1.741-.012 2.613-.02.201-.001.261.103.257.284-.005.247-.001.494-.001.742v3.774c0 .371-.014.384-.377.387-.193 0-.387.002-.58 0-.32-.003-.323-.007-.359-.315-.004-.041-.013-.082-.021-.13Zm.022-2.367v-1.03c0-.116-.013-.224-.163-.222-.353.006-.709-.034-1.06.025-.278.046-.405.165-.411.449-.016.665-.016 1.33 0 1.994.007.294.139.412.441.455.159.023.321.028.481.02.49-.026.695-.235.709-.727.01-.32.002-.643.002-.965h.001ZM180.676 71.952c-.595.61-1.814.667-2.441.14-.345-.288-.495-.678-.505-1.11a33.987 33.987 0 0 1 .001-2.257c.037-.888.596-1.43 1.488-1.455.827-.024 1.656-.01 2.484-.007.241.001.273.036.273.289.003 1.538.003 3.076 0 4.614 0 .244-.035.271-.285.277-.226.005-.452.003-.678 0-.311-.002-.325-.017-.337-.325v-.167.001Zm0-2.321c0-.333-.006-.666.003-.999.005-.174-.05-.26-.236-.254-.279.008-.559-.008-.837.005-.426.02-.573.173-.584.601-.008.354-.002.709-.002 1.063 0 .236-.008.473.002.709.018.394.157.534.551.568.117.01.236.007.354.003.513-.019.739-.247.749-.762.006-.31.001-.623.001-.934h-.001ZM135.124 72.446c-.355 0-.709.006-1.064-.002-.992-.021-1.554-.563-1.583-1.559-.022-.719-.019-1.44.005-2.159.028-.863.584-1.413 1.449-1.453.418-.02.838-.02 1.256 0 .846.043 1.355.556 1.433 1.404.042.462.019.924.021 1.385.002.33-.045.371-.37.372-.731.002-1.462 0-2.193 0-.325 0-.325.002-.32.31.007.437.162.59.613.594.634.003 1.269 0 1.902 0 .311.002.331.023.335.328.002.172-.009.345.002.516.014.197-.067.27-.261.266-.408-.007-.816-.002-1.224-.002h-.001Zm-.594-2.905h.193c.691 0 .729-.048.608-.744-.046-.264-.152-.384-.415-.408a4.235 4.235 0 0 0-.706-.004c-.285.022-.422.173-.439.457-.011.182.001.364-.004.547-.004.112.046.153.153.152.203-.003.407 0 .61 0ZM159.478 72.446h-1.032a1.757 1.757 0 0 1-.868-.208 1.314 1.314 0 0 1-.703-1.157 37.038 37.038 0 0 1 0-2.449c.026-.756.567-1.288 1.34-1.353a8.429 8.429 0 0 1 1.45 0c.755.066 1.28.585 1.331 1.333.036.524.019 1.053.014 1.58-.001.21-.052.24-.323.242-.73.002-1.462 0-2.192.001-.371 0-.388.019-.355.374.037.39.177.524.583.528.624.007 1.247.002 1.871.002.4 0 .409.01.41.424 0 .14-.006.28.001.42.011.194-.078.268-.269.265-.419-.006-.838-.002-1.257-.002h-.001Zm-.545-2.905h.128c.493 0 .712-.244.657-.733-.029-.256-.144-.394-.404-.418a4.077 4.077 0 0 0-.737 0c-.272.024-.399.17-.418.44-.013.18-.001.364-.007.545-.004.125.051.17.172.167.203-.005.406-.001.61-.001h-.001ZM85.98 69.95c-.016.342.027.762-.027 1.18-.097.745-.61 1.253-1.366 1.3-.493.03-.99.03-1.482 0-.766-.046-1.284-.532-1.362-1.294a12.51 12.51 0 0 1 0-2.573c.078-.746.59-1.227 1.338-1.285.503-.04 1.01-.04 1.514 0 .838.064 1.353.655 1.383 1.565.011.343.002.688.002 1.107Zm-1.296-.08c0-.321.007-.644-.002-.966-.01-.362-.15-.505-.512-.521a5.893 5.893 0 0 0-.677 0c-.331.023-.47.156-.477.487-.012.655-.012 1.31 0 1.966.006.333.144.466.475.488.236.015.474.015.71 0 .34-.022.472-.167.481-.519.01-.31.002-.622.002-.934ZM193.336 69.87c0 .354.004.709-.001 1.063-.013.845-.572 1.45-1.413 1.497-.472.027-.946.026-1.417.001-.842-.044-1.396-.604-1.423-1.45a36.876 36.876 0 0 1 0-2.256c.027-.846.581-1.405 1.423-1.45.471-.024.945-.025 1.417.001.841.048 1.4.653 1.412 1.498.005.366.001.73.001 1.096h.001Zm-1.281-.006h-.002c0-.322.008-.645-.003-.967-.012-.345-.154-.494-.489-.514a6.071 6.071 0 0 0-.71 0c-.315.018-.473.169-.479.492-.013.655-.013 1.311.001 1.966.007.32.169.466.489.483.214.012.43.01.645.002.39-.014.536-.161.546-.559.008-.3.001-.602.001-.903h.001ZM110.276 69.873c0 .344.004.688-.001 1.031-.014.898-.582 1.492-1.483 1.532-.44.019-.881.019-1.321-.004-.877-.044-1.436-.616-1.452-1.487a59.308 59.308 0 0 1 0-2.192c.017-.857.571-1.433 1.427-1.478.46-.025.924-.024 1.385-.001.862.043 1.424.637 1.443 1.502.007.365.001.73.001 1.096h.001Zm-2.969-.042c0 .333-.009.666.003 1 .012.32.163.473.479.492.236.014.473.014.709 0 .326-.019.478-.157.486-.48a46.01 46.01 0 0 0 0-1.967c-.007-.341-.161-.477-.506-.495a8.058 8.058 0 0 0-.612-.001c-.395.01-.548.157-.558.548-.007.3-.001.602-.001.903ZM173.845 67.75c.256-.395.602-.498.998-.489.183.004.366-.001.548.01.811.048 1.302.532 1.358 1.347.018.246.01.495.01.742v2.74c0 .331-.014.342-.346.346h-.517c-.291 0-.437-.142-.438-.424 0-.947-.012-1.893.005-2.838.011-.612-.07-.82-.837-.804-.581.01-.803.216-.809.797-.009.957-.001 1.914-.003 2.87 0 .388-.011.398-.396.4-.215 0-.43-.007-.645 0-.194.007-.275-.086-.273-.27V67.66c0-.386.014-.398.4-.4h.548c.227.002.349.113.368.333.002.031.011.062.028.156h.001ZM89.872 71.917c-.275.433-.661.54-1.1.529-.247-.007-.494.01-.739-.044-.561-.125-.9-.475-1.037-1.023a2.377 2.377 0 0 1-.073-.574c.002-1.053 0-2.106.001-3.16 0-.367.016-.382.38-.383.205-.002.41-.003.613 0 .285.004.317.03.32.313.005.506.001 1.01.001 1.516 0 .537-.003 1.075.001 1.612.004.45.147.596.594.622.118.007.237.008.354 0 .469-.034.689-.267.692-.753.006-.839.002-1.677.002-2.515 0-.183.003-.366 0-.548-.004-.178.08-.253.255-.249.247.005.495-.002.742.002.278.005.304.032.304.326.002 1 0 1.999 0 2.999 0 .505.002 1.01 0 1.515-.001.323-.02.34-.352.343-.204.002-.409.002-.612 0-.312-.004-.325-.018-.337-.327l-.01-.2h.001ZM195.696 67.75c.22-.398.587-.5 1.006-.488.278.007.555-.013.833.05.596.138.914.524 1.025 1.104.028.146.037.298.038.448.003 1.064.002 2.128.001 3.191 0 .385-.006.389-.403.39-.193 0-.386.004-.58 0-.285-.005-.31-.027-.311-.319-.003-.966 0-1.934-.003-2.9 0-.15-.01-.301-.027-.45-.022-.191-.132-.31-.322-.352a1.823 1.823 0 0 0-.799-.008c-.291.065-.445.229-.486.526-.018.137-.017.278-.017.418l-.001 2.74c0 .326-.02.343-.349.347-.215.002-.43.004-.645 0-.274-.005-.293-.024-.296-.296-.003-.44-.001-.88-.001-1.322v-3.223c0-.331.011-.34.347-.342.204-.002.409-.003.612 0 .305.004.317.018.332.331.003.049-.018.104.047.156l-.001-.001ZM78.648 68.634c.3-.737.566-1.4.837-2.062.324-.79.142-.651.975-.666.162-.003.323-.008.484.002.23.014.266.07.171.284-.116.264-.24.526-.365.787-.455.958-.91 1.915-1.367 2.872a.954.954 0 0 0-.1.432c.006.58.004 1.16.003 1.74 0 .281-.146.422-.437.422h-.451c-.407 0-.425-.018-.427-.442-.001-.526-.01-1.053.004-1.58a1.56 1.56 0 0 0-.17-.739c-.529-1.1-1.05-2.204-1.573-3.307-.032-.068-.071-.133-.095-.204-.059-.176-.018-.256.16-.262.344-.011.687-.004 1.031-.002.188.001.242.141.3.286.296.723.596 1.445.895 2.168.028.067.06.133.124.272h.001ZM163.146 72.445c-.354 0-.709.004-1.063-.001-.249-.003-.282-.036-.293-.276a5.91 5.91 0 0 1 0-.515c.007-.246.039-.282.283-.284.494-.005.989 0 1.483-.002.118 0 .238-.003.352-.025.281-.056.369-.302.196-.531-.086-.115-.209-.182-.332-.25-.346-.192-.693-.383-1.039-.577a4.154 4.154 0 0 1-.358-.217c-.615-.432-.799-1.214-.453-1.885.205-.397.567-.555.973-.593.707-.066 1.417-.018 2.127-.026.153-.002.207.091.21.227.003.183.003.365 0 .548-.004.288-.03.317-.312.32-.409.005-.817 0-1.225.001-.086 0-.172 0-.258.006-.132.012-.262.044-.303.193-.039.14.032.252.136.338.082.068.172.128.264.183.423.254.849.5 1.271.756.643.39.829.812.69 1.647-.092.562-.555.907-1.221.948-.374.023-.751.004-1.127.004v.012h-.001ZM145.842 72.445c-.354 0-.709.004-1.064-.001-.265-.003-.291-.032-.297-.3-.004-.171.008-.344-.003-.515-.014-.203.085-.265.269-.264.494.004.988.004 1.483 0 .128 0 .259-.001.385-.028.254-.053.336-.27.194-.491-.084-.13-.214-.209-.346-.282-.346-.194-.693-.385-1.039-.579a9.706 9.706 0 0 1-.306-.177c-.755-.461-.787-1.2-.54-1.86.169-.453.578-.639 1.024-.663.696-.036 1.396-.018 2.094-.023.147-.002.216.073.215.218-.001.204-.008.409.003.613.01.197-.08.269-.268.267-.429-.004-.859-.002-1.289 0-.097 0-.195-.004-.289.012-.267.049-.338.26-.167.472.083.103.197.165.308.231.433.258.872.504 1.299.772.626.394.838.92.674 1.623-.135.577-.548.917-1.212.96-.374.023-.752.004-1.127.004v.012h-.001ZM168.414 72.445c-.17-.006-.395.003-.618-.052-.643-.16-1.022-.564-1.124-1.213a3.715 3.715 0 0 1-.045-.577c.003-.655-.005-1.311.005-1.967.003-.195-.058-.27-.257-.26-.487.024-.47.037-.467-.47v-.065c0-.536 0-.54.536-.576.14-.01.188-.06.185-.194a15.355 15.355 0 0 1 0-.774c.007-.276.053-.32.32-.326.247-.004.495.004.742-.002.179-.003.253.082.252.254-.002.226 0 .451 0 .677.001.24.117.36.348.361.183 0 .365.002.548 0 .162 0 .234.077.231.238-.003.215-.007.43.001.645.007.188-.082.244-.255.237-.215-.008-.43.003-.645-.003-.165-.004-.23.07-.23.232.004.72-.008 1.44.007 2.16.009.379.154.51.536.549.149.015.301.013.451.006.171-.01.233.076.233.23 0 .227-.001.452.001.678.001.148-.071.214-.217.212-.161-.003-.323-.001-.539-.001h.001ZM183.297 69.718c0-.365-.007-.73.003-1.096.004-.18-.055-.254-.241-.245-.507.027-.495.045-.491-.516v-.032c0-.536 0-.541.519-.564.151-.007.215-.053.211-.207a15.355 15.355 0 0 1 0-.774c.01-.27.054-.308.33-.312.226-.003.452-.004.678 0 .266.005.299.036.304.296.005.258.008.516-.001.774-.006.17.064.228.229.222.215-.01.43.002.644-.003.179-.004.253.076.248.253-.006.215-.007.43 0 .645.005.168-.071.228-.233.222-.226-.008-.452.001-.678-.002-.15-.003-.211.062-.21.212.004.742-.004 1.484.009 2.226.005.32.127.428.447.489.171.033.343.022.514.019.175-.004.261.065.258.245-.004.215-.003.43 0 .645.002.141-.047.233-.201.228-.407-.01-.816.041-1.22-.062-.631-.161-1.03-.623-1.092-1.277-.01-.107-.026-.214-.027-.32-.004-.356-.002-.71-.002-1.065h.002ZM103.658 68.853v-3.162c0-.374.014-.387.374-.39.226-.001.452.003.678 0 .175-.003.255.085.261.253.002.065.002.13.002.194v6.228c0 .085.003.173-.008.257-.017.132-.083.215-.232.213a33.05 33.05 0 0 0-.839 0c-.165.002-.235-.081-.235-.237l-.001-.226v-3.13ZM155.11 47.379c-.333 0-.666.004-.998-.001-.352-.006-.506-.137-.512-.48a66.416 66.416 0 0 1-.001-2.093c.005-.347.153-.489.5-.492.687-.007 1.374-.006 2.062 0 .369.003.508.14.512.508a85.83 85.83 0 0 1 0 2.03c-.005.382-.151.522-.531.527-.344.005-.688.002-1.031.002l-.001-.001ZM104.136 44.311c.333 0 .666-.004.998.001.377.006.512.124.518.5.013.687.013 1.375 0 2.062-.007.37-.152.501-.518.504-.676.005-1.352.004-2.029 0-.37-.002-.512-.137-.515-.5a118.04 118.04 0 0 1 0-2.062c.003-.366.142-.497.515-.504.344-.005.688 0 1.031 0ZM172.302 45.852c0 .344.004.687-.001 1.03-.005.356-.134.492-.484.495-.687.005-1.375.005-2.062 0-.372-.003-.496-.133-.498-.51-.002-.687-.003-1.374 0-2.061.002-.357.128-.49.482-.493.698-.007 1.396-.008 2.094 0 .335.003.463.139.468.474.005.355.001.71.001 1.063v.002ZM121.947 68.858v-3.193c0-.351.008-.357.363-.359.226-.001.452.003.677 0 .174-.003.259.078.26.251v6.45c0 .076 0 .15-.004.226-.009.141-.083.213-.227.212l-.839.001c-.159.001-.237-.068-.231-.234.005-.193.001-.387.001-.58v-2.774ZM93.64 67.74c.343-.486.834-.496 1.337-.48.129.004.204.058.216.187.025.257.022.513.002.771-.01.117-.073.166-.19.163-.194-.006-.387-.003-.58-.001-.598.006-.815.21-.828.813-.011.547-.002 1.095-.002 1.642 0 .43.003.859-.001 1.288-.003.29-.03.317-.31.322-.248.003-.494-.004-.741.002-.18.004-.252-.09-.262-.253-.003-.064-.002-.129-.002-.193v-4.284c0-.075-.002-.15.004-.225.013-.15.085-.235.248-.232.247.005.494-.002.741.001.291.004.3.015.323.31.002.033.002.065.006.096.002.01.01.02.04.073ZM170.048 69.85c0-.752-.002-1.504.001-2.255.001-.305.028-.33.33-.334.237-.003.473.007.709-.002.196-.008.273.088.274.27v4.669c0 .167-.065.256-.249.25-.257-.01-.515.001-.772-.004-.258-.005-.29-.037-.291-.308-.004-.762-.002-1.524-.002-2.286ZM188.033 69.875c0 .74.002 1.48 0 2.221-.001.335-.014.346-.343.349-.236.002-.472-.006-.708.002-.175.005-.262-.069-.263-.244l-.001-.064c0-1.525-.001-3.048.002-4.573 0-.268.036-.3.292-.304.236-.005.472-.005.708 0 .27.004.307.042.312.326.005.3.001.601.001.902v1.384ZM171.362 65.955v.418c-.002.157-.089.237-.241.24-.279.003-.558.005-.837 0-.151-.004-.236-.085-.235-.245.002-.28.002-.558 0-.837-.002-.165.086-.23.24-.23.279 0 .558.002.837 0 .162-.001.235.08.237.236v.418h-.001ZM187.388 65.3c.665.007.65-.095.645.637-.004.68.083.682-.679.681-.737-.001-.636 0-.635-.65 0-.755-.088-.66.668-.667h.001Z"/></g><defs><clipPath id="a"><path fill="#fff" transform="translate(18.402 31.493)" d="M0 0h180.197v45.013H0z"/></clipPath></defs></svg>