<svg width="217" height="108" fill="none" xmlns="http://www.w3.org/2000/svg"><g clip-path="url(#a)"><path d="M63.179 64.625H62.07v-5.64h-1.914v-.907h4.935v.907H63.18v5.64ZM70.43 64.624h-1.108v-3.021c0-.403-.1-.705-.201-.806-.202-.201-.403-.302-.705-.302-.403 0-.806.1-1.007.403-.202.302-.303.705-.303 1.31v2.416H66.1v-6.949h1.007v1.813c0 .302 0 .604-.1.906h.1c.101-.201.303-.402.605-.604.302-.1.503-.201.906-.201 1.209 0 1.813.604 1.813 1.813v3.222ZM73.955 64.725c-.805 0-1.41-.201-1.813-.705-.402-.403-.604-1.107-.604-1.812 0-.806.202-1.41.604-1.914.403-.504 1.008-.705 1.713-.705.604 0 1.208.201 1.51.604.403.403.604.907.604 1.612v.604h-3.323c0 .504.1.806.403 1.108.201.302.604.403 1.007.403.302 0 .604 0 .806-.101.302-.1.503-.1.805-.302v.805c-.302.101-.503.202-.805.303-.202.1-.504.1-.907.1Zm-.1-4.33c-.303 0-.605.1-.806.302-.202.201-.302.503-.403.906h2.216c0-.403-.101-.705-.302-.906-.202-.202-.403-.302-.706-.302ZM82.415 58.884c-.605 0-1.108.201-1.41.604-.302.403-.504 1.007-.504 1.813s.201 1.41.504 1.813c.302.403.805.604 1.51.604.302 0 .504 0 .806-.1.302-.101.504-.101.806-.202v.906c-.504.202-1.108.302-1.712.302-1.008 0-1.713-.302-2.216-.906-.504-.604-.806-1.41-.806-2.518 0-.705.101-1.309.403-1.813.302-.503.604-.906 1.108-1.208.504-.302 1.007-.403 1.712-.403.705 0 1.31.1 1.813.403l-.403.906c-.201-.1-.504-.201-.705-.302-.403.1-.604.1-.906.1ZM87.65 59.589h.504l-.1 1.007c-.101 0-.303-.1-.504-.1-.403 0-.806.1-1.007.402-.302.302-.403.604-.403 1.108v2.619h-1.007V59.69h.805l.101.906h.1a4.38 4.38 0 0 1 .605-.705c.302-.201.604-.302.906-.302ZM88.76 59.69h1.107l1.007 2.82c.202.403.302.805.302 1.108 0-.202.1-.403.1-.605.102-.201.404-1.309 1.109-3.323h1.108l-2.115 5.64c-.403 1.007-1.007 1.51-1.914 1.51-.201 0-.503 0-.705-.1v-.806c.202 0 .302.1.504.1.503 0 .906-.302 1.108-.906l.201-.503-1.813-4.935ZM97.017 64.725c-.604 0-1.108-.201-1.51-.705h-.101c0 .403.1.705.1.806v2.014H94.5v-7.15h.806c0 .1.1.302.1.705h.101c.302-.504.806-.705 1.511-.705.604 0 1.108.201 1.41.705.302.403.504 1.108.504 1.913 0 .806-.202 1.41-.504 1.914-.302.302-.806.503-1.41.503Zm-.302-4.33c-.403 0-.705.1-.907.403-.2.201-.302.604-.302 1.208v.202c0 .604.101 1.007.302 1.309.202.302.504.403.907.403s.604-.101.806-.403c.201-.302.302-.705.302-1.31 0-.604-.101-1.007-.302-1.309-.101-.302-.403-.503-.806-.503ZM102.053 63.82c.302 0 .503 0 .805-.101v.805c-.1.101-.302.101-.402.101-.202 0-.403.1-.605.1-1.007 0-1.51-.503-1.51-1.61v-2.62h-.705v-.503l.705-.403.403-1.007h.604v1.108h1.41v.806h-1.41v2.618c0 .302.1.403.201.605.101.1.202.1.504.1ZM108.096 62.107c0 .806-.201 1.41-.604 1.913-.403.504-1.007.706-1.712.706-.504 0-.906-.101-1.208-.303a2.368 2.368 0 0 1-.806-.906c-.202-.403-.302-.806-.302-1.41 0-.806.201-1.41.604-1.913a2.43 2.43 0 0 1 1.712-.706c.705 0 1.309.202 1.712.706.403.503.604 1.107.604 1.913Zm-3.625 0c0 1.108.403 1.712 1.309 1.712.806 0 1.209-.604 1.209-1.712s-.403-1.712-1.31-1.712c-.403 0-.805.1-1.007.403-.1.403-.201.805-.201 1.309ZM112.829 62.007v2.618h-1.108V58.08h1.813c.806 0 1.511.201 1.914.503.403.303.604.806.604 1.41 0 .806-.403 1.41-1.309 1.713l1.813 2.92h-1.209l-1.611-2.618h-.907Zm0-.907h.705c.504 0 .907-.1 1.108-.302.201-.201.302-.504.302-.806 0-.402-.101-.604-.403-.805-.201-.202-.604-.202-1.107-.202h-.705V61.1h.1ZM119.679 64.726c-.806 0-1.41-.202-1.813-.705-.403-.403-.604-1.108-.604-1.813 0-.806.201-1.41.604-1.914.403-.503 1.007-.705 1.712-.705.604 0 1.208.202 1.511.605.402.402.604.906.604 1.61v.605h-3.324c0 .504.101.806.403 1.108.202.302.604.403 1.007.403.302 0 .605 0 .806-.1.302-.102.504-.102.806-.303v.806c-.302.1-.504.201-.806.302-.302.1-.604.1-.906.1Zm-.202-4.331c-.302 0-.604.1-.806.302-.201.201-.302.504-.402.906h2.215c0-.402-.1-.705-.302-.906-.101-.201-.403-.302-.705-.302ZM126.123 63.215c0 .503-.202.805-.504 1.108-.403.302-.906.403-1.51.403-.705 0-1.209-.101-1.612-.303v-.906c.604.302 1.108.403 1.612.403.604 0 1.007-.202 1.007-.604 0-.101 0-.202-.101-.303-.101-.1-.201-.201-.403-.302a4.896 4.896 0 0 0-.705-.302c-.604-.201-.906-.403-1.108-.705-.201-.201-.302-.503-.302-.906s.202-.705.504-1.007c.302-.202.805-.302 1.41-.302.604 0 1.108.1 1.611.402l-.302.806c-.504-.201-1.007-.302-1.309-.302-.605 0-.806.201-.806.503 0 .202.101.303.201.403.101.101.504.302.907.403.403.202.705.302.906.403.202.1.302.302.403.504 0 .201.101.402.101.604ZM129.447 64.726c-.805 0-1.41-.202-1.812-.705-.403-.403-.605-1.108-.605-1.813 0-.806.202-1.41.605-1.914.402-.503 1.007-.705 1.712-.705.604 0 1.208.202 1.51.605.403.402.605.906.605 1.61v.605h-3.324c0 .504.101.806.403 1.108.201.302.604.403 1.007.403.302 0 .604 0 .806-.1.302-.102.503-.102.805-.303v.806c-.302.1-.503.201-.805.302-.302.1-.605.1-.907.1Zm-.201-4.331c-.302 0-.604.1-.806.302-.201.201-.302.504-.403.906h2.216c0-.402-.101-.705-.302-.906-.101-.201-.403-.302-.705-.302ZM135.591 64.625l-.202-.705a1.88 1.88 0 0 1-.705.604c-.201.1-.503.201-.906.201-.504 0-.907-.1-1.108-.402-.302-.302-.403-.605-.403-1.108 0-.504.201-.907.604-1.108.403-.302 1.007-.403 1.712-.403h.907v-.302c0-.302-.101-.504-.202-.705-.1-.201-.402-.201-.705-.201-.302 0-.503 0-.705.1-.201.101-.503.202-.705.303l-.302-.706c.302-.1.605-.2.907-.302.302-.1.604-.1.906-.1.604 0 1.108.1 1.41.403.302.302.504.704.504 1.309v3.323h-1.007v-.201Zm-1.612-.705c.403 0 .705-.1.907-.302.201-.202.302-.504.302-.907v-.403h-.605c-.503 0-.906.101-1.107.202-.202.1-.303.403-.303.705 0 .201.101.403.202.503.201.101.403.202.604.202ZM140.224 59.59h.503l-.1 1.006c-.101 0-.302-.1-.504-.1-.403 0-.806.1-1.007.402-.302.303-.403.605-.403 1.108v2.619h-1.007V59.69h.806l.201.806h.101c.201-.302.403-.504.604-.705.302-.101.504-.202.806-.202ZM143.647 64.725c-.705 0-1.309-.2-1.712-.704-.403-.403-.604-1.108-.604-1.914 0-.806.201-1.51.604-1.913.403-.403 1.007-.706 1.813-.706.503 0 1.007.101 1.41.303l-.302.805c-.403-.201-.806-.302-1.108-.302-.906 0-1.309.605-1.309 1.712 0 .605.1 1.007.302 1.209.201.302.503.403.906.403.504 0 .907-.101 1.309-.302v.906c-.201.1-.402.201-.604.201-.1.302-.403.302-.705.302ZM150.497 64.625h-1.108v-3.022c0-.402-.101-.705-.202-.805-.1-.101-.402-.302-.705-.302-.402 0-.805.1-1.007.402-.201.303-.302.705-.302 1.31v2.417h-1.007v-6.95h1.007v1.814c0 .302 0 .604-.101.906h.101c.101-.202.302-.403.604-.604.303-.202.504-.202.907-.202 1.208 0 1.813.604 1.813 1.813v3.223ZM158.755 60.093c0 .705-.202 1.209-.705 1.611-.403.403-1.108.504-1.914.504h-.705v2.417h-1.108V58.08h1.914c.806 0 1.41.201 1.813.503.503.303.705.806.705 1.511Zm-3.223 1.209h.604c.504 0 .907-.101 1.209-.303.302-.2.402-.503.402-.906s-.1-.705-.302-.806c-.201-.201-.604-.302-1.107-.302h-.705v2.317h-.101ZM160.969 64.625h-1.007v-6.95h1.007v6.95ZM165.502 64.625l-.202-.705a1.88 1.88 0 0 1-.705.604c-.201.1-.503.201-.906.201-.504 0-.907-.1-1.108-.402-.302-.302-.403-.605-.403-1.108 0-.504.202-.907.604-1.108a3.9 3.9 0 0 1 1.713-.403h.805v-.302c0-.302-.1-.504-.201-.705-.101-.201-.403-.201-.705-.201-.302 0-.504 0-.705.1-.202.101-.504.202-.705.303l-.302-.706c.302-.1.604-.2.906-.302.302-.1.604-.1.907-.1.604 0 1.107.1 1.41.403.302.302.503.704.503 1.309v3.323h-.906v-.201Zm-1.612-.705c.403 0 .705-.1.907-.302.201-.202.302-.504.302-.907v-.403h-.604c-.504 0-.907.101-1.108.202-.202.1-.302.403-.302.705 0 .201.1.403.201.503.201.101.403.202.604.202ZM169.531 63.82c.302 0 .504 0 .806-.101v.805c-.101.101-.302.101-.403.101-.202 0-.403.1-.604.1-1.008 0-1.511-.503-1.511-1.61v-2.62h-.705v-.503l.705-.403.403-1.007h.604v1.108h1.41v.806h-1.41v2.618c0 .302.101.403.201.605.101.1.303.1.504.1ZM173.962 60.496h-1.209v4.129h-1.107v-4.13h-.806v-.503l.806-.302v-.302c0-.605.1-1.007.402-1.31.303-.302.705-.402 1.209-.402.403 0 .705.1 1.108.201l-.302.806c-.303-.1-.504-.1-.705-.1a.77.77 0 0 0-.504.2c-.101.101-.201.403-.201.706v.302h1.208v.705h.101ZM179.198 62.107c0 .806-.201 1.41-.604 1.913-.403.504-1.007.706-1.712.706-.504 0-.906-.101-1.209-.303a2.374 2.374 0 0 1-.805-.906c-.202-.403-.302-.806-.302-1.41 0-.806.201-1.41.604-1.913a2.43 2.43 0 0 1 1.712-.706c.705 0 1.309.202 1.712.706.403.503.604 1.107.604 1.913Zm-3.625 0c0 1.108.403 1.712 1.309 1.712.806 0 1.209-.604 1.209-1.712s-.403-1.712-1.31-1.712c-.403 0-.805.1-1.007.403-.101.403-.201.805-.201 1.309ZM182.925 59.59h.503l-.1 1.006c-.101 0-.303-.1-.504-.1-.403 0-.806.1-1.007.402-.302.303-.403.605-.403 1.108v2.619h-1.007V59.69h.806l.1.906h.101c.202-.302.403-.503.604-.705.303-.201.605-.302.907-.302ZM188.464 64.625h-1.108v-3.021c0-.403-.1-.705-.201-.806-.101-.202-.403-.302-.705-.302-.403 0-.705.1-.906.403-.202.302-.303.705-.303 1.309v2.518h-1.007V59.79h.806l.101.604h.1c.101-.201.303-.403.605-.504.302-.1.503-.2.906-.2.806 0 1.309.301 1.511.805h.1c.101-.202.303-.403.605-.605.302-.1.604-.2.906-.2.604 0 1.007.1 1.309.402.302.302.403.705.403 1.41v3.223h-1.007v-3.022c0-.403-.101-.705-.201-.805-.101-.202-.403-.303-.705-.303-.403 0-.705.101-.907.403-.201.302-.302.605-.302 1.209v2.417Z" fill="#000"/><path fill-rule="evenodd" clip-rule="evenodd" d="M7.789 48.108c0-9.265 7.553-16.818 16.818-16.818 9.266 0 16.82 7.553 16.82 16.92 0 4.229-1.612 8.157-4.331 11.178l-.907-.906-2.618-2.619-9.064 9.064c-9.266-.1-16.718-7.553-16.718-16.819Zm25.378-2.82c-.403-2.115-1.31-3.726-2.82-4.935-1.51-1.208-3.324-1.813-5.64-2.014-1.712 0-3.223.403-4.532 1.108-1.31.705-2.316 1.813-3.021 3.122-.705 1.31-1.108 2.92-1.108 4.733 0 1.813.403 3.425 1.108 4.734.705 1.41 1.712 2.417 3.021 3.122 1.31.705 2.82 1.108 4.532 1.108 2.316 0 4.13-.605 5.64-1.813 1.51-1.209 2.417-2.82 2.82-4.935h-4.633c-.201 1.007-.604 1.712-1.31 2.216-.604.503-1.51.805-2.517.805-1.209 0-2.115-.402-2.92-1.309-.806-.906-1.21-2.115-1.21-3.827 0-1.712.404-2.92 1.21-3.827.805-.906 1.712-1.31 2.92-1.31 1.007 0 1.813.303 2.518.807.705.604 1.108 1.309 1.309 2.215h4.633Z" fill="#1BABA1"/><path d="M49.382 55.964h-7.956v3.726h5.338l-7.252 7.252-4.532-4.532c-.805-.806-2.014-.806-2.82 0L20.58 74.091l2.618 2.618 10.374-10.373 4.532 4.532c.805.806 2.014.806 2.82 0l8.46-8.46v5.238h3.726V55.964h-3.727Z" fill="#1BABA1"/><path d="M68.617 37.735c-1.41 0-2.518.503-3.323 1.611-.806 1.108-1.209 2.619-1.209 4.532 0 4.029 1.51 6.043 4.532 6.043 1.31 0 2.82-.302 4.532-.907v3.223c-1.51.604-3.122.907-4.935.907-2.618 0-4.632-.806-5.942-2.417-1.41-1.612-2.115-3.827-2.115-6.849 0-1.913.303-3.525 1.008-4.935.705-1.41 1.61-2.517 2.92-3.222 1.31-.705 2.72-1.108 4.431-1.108a11.2 11.2 0 0 1 5.237 1.309l-1.208 3.122c-.705-.302-1.31-.604-2.014-.806-.605-.403-1.31-.503-1.914-.503ZM87.752 45.893c0 2.215-.604 4.028-1.813 5.237-1.208 1.208-2.82 1.913-4.935 1.913-1.309 0-2.517-.302-3.525-.906-1.007-.604-1.812-1.41-2.316-2.518-.503-1.108-.806-2.316-.806-3.827 0-2.216.605-4.028 1.713-5.237 1.107-1.209 2.82-1.913 4.934-1.913 1.31 0 2.518.302 3.525.906 1.007.604 1.813 1.41 2.317 2.518.705 1.108.906 2.316.906 3.827Zm-9.467 0c0 1.309.202 2.417.705 3.122.403.705 1.209 1.007 2.216 1.007 1.007 0 1.712-.302 2.115-1.007.403-.705.705-1.712.705-3.122 0-1.31-.202-2.417-.705-3.022-.504-.604-1.209-1.007-2.216-1.007-1.007 0-1.712.302-2.115 1.007-.503.605-.705 1.612-.705 3.022ZM89.464 35.418c0-1.208.704-1.813 2.014-1.813 1.309 0 2.014.605 2.014 1.813 0 .605-.201 1.007-.504 1.31-.302.402-.805.604-1.51.604-1.41 0-2.014-.605-2.014-1.914Zm3.827 17.323h-3.727V39.044h3.727V52.74ZM108.599 52.74h-3.726v-8.056c0-1.007-.201-1.712-.504-2.216-.302-.504-.906-.705-1.712-.705-1.007 0-1.812.302-2.316 1.007-.504.705-.705 1.813-.705 3.525v6.446H95.91V39.044h2.82l.503 1.712h.202a3.556 3.556 0 0 1 1.712-1.51 6.596 6.596 0 0 1 2.517-.504c1.612 0 2.82.403 3.626 1.309.806.906 1.209 2.115 1.209 3.726v8.964h.1ZM119.175 37.735c-1.41 0-2.517.504-3.323 1.611-.806 1.108-1.209 2.619-1.209 4.532 0 4.029 1.511 6.043 4.532 6.043 1.31 0 2.82-.302 4.532-.906v3.222c-1.51.605-3.122.907-4.934.907-2.619 0-4.633-.806-5.942-2.417-1.41-1.612-2.115-3.827-2.115-6.849 0-1.913.302-3.525 1.007-4.934.705-1.41 1.611-2.518 2.92-3.223 1.31-.705 2.72-1.108 4.432-1.108 1.712 0 3.525.403 5.237 1.31l-1.209 3.121c-.705-.302-1.309-.604-2.014-.805-.604-.403-1.209-.504-1.914-.504ZM138.712 52.74h-3.726v-8.056c0-2.014-.705-2.92-2.216-2.92-1.007 0-1.812.402-2.316 1.107-.504.705-.705 1.914-.705 3.424v6.446h-3.726V33.606h3.726v3.927c0 .303 0 1.008-.101 2.115l-.1 1.108h.201c.806-1.309 2.115-2.014 3.928-2.014 1.611 0 2.82.403 3.625 1.31.806.906 1.209 2.114 1.209 3.726v8.963h.201ZM147.474 52.942c-2.216 0-3.928-.604-5.136-1.813-1.209-1.208-1.914-2.92-1.914-5.136 0-2.316.605-4.028 1.712-5.338 1.108-1.208 2.72-1.913 4.734-1.913 1.913 0 3.424.503 4.532 1.611s1.611 2.619 1.611 4.532v1.813h-8.862c0 1.108.402 1.914.906 2.518.604.604 1.41.906 2.518.906.806 0 1.611-.1 2.316-.302.705-.201 1.511-.403 2.317-.806v2.921c-.705.302-1.31.604-2.115.705-.605.302-1.511.302-2.619.302Zm-.503-11.48c-.806 0-1.41.301-1.914.704-.403.504-.705 1.209-.806 2.115h5.237c0-.906-.302-1.611-.705-2.115-.402-.503-1.007-.705-1.812-.705ZM160.668 52.942c-4.23 0-6.446-2.316-6.446-7.05 0-2.316.605-4.129 1.712-5.337 1.209-1.209 2.82-1.813 5.036-1.813 1.611 0 3.021.302 4.23.906l-1.108 2.92a27.706 27.706 0 0 1-1.611-.603c-.504-.101-1.008-.202-1.511-.202-1.914 0-2.921 1.41-2.921 4.13 0 2.719 1.007 4.028 2.921 4.028.705 0 1.41-.1 2.014-.302a7.624 7.624 0 0 0 1.813-.907v3.223c-.604.403-1.209.604-1.813.806-.604.201-1.309.201-2.316.201ZM170.336 45.288l1.612-2.115 3.827-4.129h4.23l-5.439 5.942 5.741 7.755h-4.331l-3.928-5.54-1.611 1.31v4.23h-3.726V33.606h3.726v8.56l-.101 3.122ZM190.982 52.741l-.504-1.712h-.201c-.403.604-1.007 1.108-1.712 1.51a6.6 6.6 0 0 1-2.518.504c-1.611 0-2.82-.403-3.626-1.309-.805-.906-1.208-2.115-1.208-3.726v-8.964h3.726v8.057c0 1.007.202 1.712.504 2.216.302.504.906.705 1.712.705 1.007 0 1.813-.302 2.316-1.007.504-.705.705-1.813.705-3.525v-6.446h3.727v13.697h-2.921ZM203.973 52.942c-1.611 0-2.921-.604-3.827-1.712h-.201c.1 1.108.201 1.813.201 2.014v5.54h-3.726v-19.74h3.021l.504 1.813h.201c.906-1.31 2.216-2.014 3.928-2.014 1.611 0 2.92.604 3.827 1.913.906 1.209 1.41 3.022 1.41 5.237 0 1.51-.202 2.72-.605 3.827-.402 1.108-1.007 1.914-1.812 2.518-1.007.403-1.914.604-2.921.604Zm-1.108-11.179c-.906 0-1.611.303-2.014.806-.403.604-.604 1.51-.705 2.82v.403c0 1.51.201 2.518.705 3.122.403.604 1.108 1.007 2.115 1.007 1.712 0 2.518-1.41 2.518-4.13 0-1.308-.202-2.316-.605-3.02-.503-.706-1.208-1.008-2.014-1.008Z" fill="#000"/></g><defs><clipPath id="a"><path fill="#fff" transform="translate(7.789 31.29)" d="M0 0h201.423v45.421H0z"/></clipPath></defs></svg>