<svg width="217" height="108" fill="none" xmlns="http://www.w3.org/2000/svg"><g clip-path="url(#a)"><path d="M33.78 78.815V56.021c.332-.032.663-.09.994-.09 47.76-.003 95.523-.003 143.283-.003h4.349c.256 0 .511.024.784.035v22.873H34.649c-.29 0-.578-.015-.868-.024v.003Zm127.987-4.306 6.731-13.54c-.886 0-1.612.026-2.332-.011-.404-.02-.604.124-.77.482-.633 1.356-1.289 2.7-1.945 4.044-.514 1.054-1.037 2.103-1.6 3.238-.131-.235-.215-.375-.29-.517-1.162-2.253-2.32-4.51-3.491-6.757-.098-.191-.296-.461-.458-.467-.95-.044-1.902-.023-2.945-.023.125.26.189.412.265.554.76 1.455 1.524 2.907 2.291 4.362.133.255.281.484.101.8-.369.643-.697 1.308-1.095 2.063-1.367-2.649-2.694-5.21-4.01-7.756h-3.167c2.366 4.51 4.698 8.958 7.079 13.493.935-1.855 1.812-3.603 2.735-5.438l2.904 5.467-.003.006Zm-95.13-.05V61.008H63.92v7.648c-3.203-2.68-6.272-5.253-9.396-7.869v13.45h2.738v-7.564c3.177 2.64 6.246 5.189 9.37 7.788h.003Zm71.685-.01V61.003h-2.738v7.62c-3.185-2.672-6.243-5.236-9.358-7.846v13.478h2.712v-7.613c3.182 2.648 6.231 5.183 9.384 7.805Zm-24.928-.198h2.701V61.007h-2.715v4.898h-6.104V61.02h-2.7V74.23h2.741v-5.717h6.077v5.738Zm-11.696-10.262c-1.417-2.634-5.081-4.027-8.226-2.81-3.34 1.291-5.12 4.944-4.106 8.414.964 3.299 4.388 5.427 7.7 4.788 3.108-.6 5.826-3.496 5.564-6.01H100c-.921 2.43-2.367 3.574-4.31 3.452-1.788-.113-3.298-1.44-3.702-3.255-.412-1.855.436-3.824 2.044-4.727.79-.444 1.638-.555 2.524-.421 1.32.197 2.253 1.004 3.054 2.044.723-.511 1.409-.993 2.088-1.472v-.003Zm-14.562 4.48v-2.555h-4.884v-2.477h4.178v-2.43h-6.934v13.206h8.116v-2.497h-5.377v-3.247h4.901Zm61.985 5.77v-2.506h-5.369v-3.299h4.876v-2.537h-4.884V63.42h4.19V61h-6.946V74.24H149.121Zm27.016-11.74c-.026-.093-.026-.148-.052-.183-1.728-2.064-5.209-2.314-6.879.482-.845 1.415-.566 3.25.616 4.394.743.72 1.675.999 2.665 1.187a4.249 4.249 0 0 1 1.458.552c.552.351.723 1.173.517 1.83-.183.574-.761 1.024-1.417 1.074-.651.05-1.243-.11-1.748-.549-.14-.122-.282-.241-.445-.38l-2.317 1.707c.628.45 1.115.897 1.684 1.19 1.638.851 3.319.993 4.98.041 2.84-1.626 2.962-5.787.233-7.41-.723-.43-1.522-.578-2.344-.677a3.545 3.545 0 0 1-1.103-.305c-.462-.217-.639-.679-.546-1.155.093-.47.441-.857.935-.868.392-.01.793.121 1.176.235.197.058.363.215.555.334l2.032-1.504v.005ZM42.39 68.49h4.968v-2.58h-4.88v-2.472h4.175v-2.442H39.68v13.261h2.71V68.49Zm31.97 5.753V63.437h3.42v-2.436h-9.436v2.462h3.22V74.24h2.793l.003.003Zm-25.126-13.27v13.264h2.643V60.972h-2.643Z" fill="#EE3441"/><path d="M46.255 29.162c.868.203 1.757.337 2.596.618 2.358.787 4.274 2.201 5.706 4.251.107.154.2.32.334.529l-3.496 2.491c-.59-.61-1.116-1.24-1.725-1.771-2.587-2.253-6.284-2.3-8.79-.03-2.143 1.94-2.784 4.447-2.122 7.202.627 2.616 2.285 4.373 4.945 5.05 3.409.865 7.024-1.325 8.04-4.84.067-.23.128-.463.192-.698h4.61c-.272 2.195-1.082 4.132-2.459 5.802-2.445 2.965-5.613 4.43-9.457 4.303-5.369-.177-9.963-4.35-10.715-9.658-.023-.16-.087-.316-.133-.473v-2.032c.043-.331.075-.665.136-.993.83-4.57 3.395-7.678 7.8-9.208.673-.232 1.382-.363 2.073-.543h2.465ZM106.568 47.882v3.763h-4.585V29.627c.143-.018.299-.053.459-.053 2.489-.003 4.977-.02 7.466 0 4.091.035 7.607 2.617 8.609 6.473 1.228 4.718-1.051 10.894-7.759 11.707-.668.082-1.347.102-2.021.12-.694.02-1.391.005-2.169.005v.003Zm.035-4.213c1.106 0 2.172.07 3.22-.015 1.716-.139 3.107-.908 3.851-2.529.647-1.41.688-2.895.206-4.379-.503-1.556-1.589-2.514-3.154-2.88-1.347-.316-2.726-.15-4.126-.171v9.974h.003ZM147.971 37.588v-7.99h4.15v22.038h-4.124c-.017-.278-.034-.534-.049-.755-.679.311-1.318.715-2.018.906-3.133.86-6.443-.734-8.043-3.81-2.024-3.89-.593-8.835 3.174-10.795 2.218-1.156 4.442-1.17 6.591.24.075.05.163.085.319.166Zm-6.748 6.635c.032.288.041.581.105.86.374 1.643 1.719 2.75 3.351 2.779 1.55.026 2.903-.99 3.336-2.506.485-1.702-.163-3.514-1.548-4.31-2.207-1.271-5.258.157-5.244 3.174v.003ZM172.737 37.574v-.822h4.161v14.896h-4.129c-.018-.27-.032-.529-.047-.76-.65.304-1.277.722-1.969.894-2.953.74-5.389-.221-7.273-2.524-2.974-3.63-2.094-9.216 1.852-11.748 2.364-1.519 4.797-1.591 7.193 0 .035.023.084.026.209.06l.003.004Zm.162 6.664c0-1.626-.827-2.977-2.175-3.432-1.3-.439-2.532-.28-3.574.682-1.147 1.063-1.394 2.398-.996 3.847.511 1.879 2.265 2.695 3.757 2.48 1.859-.27 2.991-1.646 2.988-3.58v.003ZM127.12 47.638c1.925.427 3.098.079 4.512-1.272l3.281 2.512c-.45.836-1.155 1.376-1.91 1.841-3.046 1.87-7.251 1.797-10.061-.688-2.318-2.05-3.215-4.64-2.506-7.643.714-3.02 2.659-5.02 5.676-5.798 3.938-1.017 7.893 1.13 9.365 5.04l-8.357 6.008Zm-2.486-2.47c1.83-1.308 3.613-2.585 5.41-3.871-1.159-.97-2.883-.886-3.984-.172-1.301.842-1.858 2.657-1.426 4.042ZM58.252 44.278c-.023-4.37 3.418-7.883 7.739-7.9 4.35-.018 7.936 3.516 7.944 7.822.009 4.24-3.574 7.817-7.869 7.857-4.248.04-7.79-3.487-7.814-7.779Zm11.354-.046c.003-2.105-1.501-3.639-3.572-3.641-1.997-.003-3.513 1.55-3.525 3.615-.011 2.047 1.53 3.661 3.496 3.658 2.053 0 3.595-1.559 3.6-3.632ZM87.694 51.64H83.54V36.722h4.098c.032.261.066.531.098.802 2.396-1.487 4.844-1.647 7.268-.239 2.08 1.208 3.113 3.174 3.456 5.509.104.714.119 1.446.124 2.169.015 2.198.006 4.399.006 6.652h-4.158c-.011-.192-.032-.4-.032-.61 0-2.2.003-4.402-.006-6.603 0-.383-.037-.772-.101-1.152-.424-2.495-2.614-3.183-4.542-2.384-1.434.592-2.047 1.762-2.052 3.278-.006 2.25 0 4.498 0 6.748v.743l-.006.003ZM80.45 51.651h-4.121V36.726h4.12v14.925ZM155.227 36.718h4.129V51.63h-4.129V36.718ZM78.405 34.07c-1.28.026-2.497-1.139-2.511-2.402-.012-1.188 1.13-2.308 2.395-2.349 1.347-.044 2.54 1.03 2.561 2.308.02 1.29-1.109 2.416-2.445 2.442ZM159.755 31.682c-.017 1.295-1.182 2.405-2.503 2.387-1.298-.017-2.485-1.21-2.451-2.46.035-1.23 1.24-2.328 2.521-2.29 1.341.037 2.451 1.115 2.433 2.363Z" fill="#000"/><path d="M179.081 47.502h4.135v4.12h-4.135v-4.12Z" fill="#EE3441"/></g><defs><clipPath id="a"><path fill="#fff" transform="translate(33.78 29.162)" d="M0 0h149.438v49.676H0z"/></clipPath></defs></svg>