<svg xmlns="http://www.w3.org/2000/svg" width="217" height="107" fill="none"><g fill="#FE6225" clip-path="url(#a)"><path d="M183.614 52.568c-.875.115-1.743.323-2.617.315-.689-.007-1.42-.193-2.058-.466-.983-.423-1.9-.494-2.897-.064-1.491.638-3.054.738-4.632.43-2.638-.516-4.632-2.467-4.789-5.127-.194-3.176-.043-6.374-.043-9.622h3.455v.803c0 2.43-.014 4.854 0 7.285.015 2.81 2.23 4.395 4.905 3.542 1.441-.459 2.309-1.62 2.33-3.234.029-2.488.007-4.968.007-7.456v-.961h3.585v10.203c0 1.455.423 1.8 1.829 1.484.308-.072.609-.144.917-.215v3.083h.008ZM33.386 54.633V41.691c0-4.28 3.52-7.801 7.809-7.808h25.87c4.28 0 7.786 3.355 7.9 7.65.08 3.026.022 6.059.022 9.085v16.369c0 5.02-3.377 8.382-8.403 8.382h-25.01c-4.76-.007-8.188-3.406-8.188-8.138V54.633Zm24.55-5.693c2.553 0 5.099.022 7.651-.014.703-.015 1.448-.1 2.094-.345 1.735-.666 2.76-2.56 2.423-4.273-.401-2.036-1.986-3.355-4.158-3.363a1874.88 1874.88 0 0 0-15.552 0c-2.41.008-4.044 1.585-4.21 3.958-.178 2.524-1.648 3.95-4.186 4.059-2.116.093-3.772 1.778-3.793 3.886a151.004 151.004 0 0 0 0 3.599c.028 1.993 1.692 3.707 3.692 3.829 2.775.172 4.037 1.398 4.288 4.202.2 2.18 1.785 3.757 3.936 3.771a1717.8 1717.8 0 0 0 16.068 0c1.52 0 2.704-.71 3.442-2.036 1.527-2.732-.445-5.894-3.7-5.901-5.212-.015-10.425 0-15.638 0-2.23 0-3.907-1.377-4.115-3.542a22.457 22.457 0 0 1 0-4.28c.2-2.145 1.864-3.536 4.022-3.543h7.737v-.007ZM145.06 52.869h-3.484v-4.646c0-1.37.035-2.746-.058-4.109-.115-1.649-1.312-2.853-2.861-3.047-1.921-.236-3.499.545-4.051 2.13-.215.602-.272 1.283-.279 1.928-.029 2.567-.015 5.127-.015 7.744h-3.492v-9.558c0-2.172-.329-2.452-2.552-2.1 0-.832-.029-1.657.021-2.474.015-.194.28-.488.481-.545 1.269-.33 2.545-.394 3.75.28.968.544 1.921.552 2.954.114 1.8-.767 3.671-.882 5.528-.265 2.345.774 3.829 2.488 4.001 4.876.222 3.197.057 6.431.057 9.68v-.008ZM110.866 37.97c5.607-.144 8.898 4.531 7.349 10.038-.53 1.878-1.763 3.24-3.52 4.108-2.961 1.463-7.055.975-9.271-1.097-2.215-2.072-2.925-5.592-1.742-8.633 1.039-2.674 3.621-4.359 6.754-4.41h.43v-.006Zm0 11.88c2.51 0 4.173-1.77 4.173-4.43 0-2.64-1.714-4.432-4.202-4.41-2.495.021-4.151 1.828-4.115 4.481.029 2.632 1.67 4.36 4.151 4.36h-.007ZM100.548 43.505c-1.09 0-2.172.014-3.255-.014-.165 0-.373-.215-.466-.388-.982-1.785-2.302-2.401-4.345-2.014-1.549.294-2.897 1.713-3.019 3.427-.071.997.015 2.08.352 3.011.566 1.563 1.871 2.33 3.542 2.367 1.563.028 2.775-.553 3.456-2.044.093-.2.394-.416.61-.423 1.025-.043 2.05-.021 3.082-.021-.079 3.025-3.205 5.427-6.854 5.535-4.252.122-7.672-2.61-7.83-6.97-.165-4.552 2.567-7.736 6.783-7.965 4.345-.237 7.65 2.029 7.944 5.513v-.014ZM163.143 47.398c-.237 3.392-3.506 5.657-7.808 5.507-3.994-.136-6.905-3.227-6.926-7.35-.029-4.316 2.796-7.392 6.94-7.578 4.259-.186 7.522 2.08 7.801 5.528-1.082 0-2.158.014-3.226-.014-.165 0-.38-.208-.474-.373-1.003-1.814-2.373-2.452-4.416-2.022-1.642.344-2.969 1.929-3.012 3.814-.021.89.079 1.85.409 2.668.609 1.505 1.857 2.272 3.499 2.316 1.599.035 2.825-.56 3.506-2.094.079-.18.359-.373.552-.38 1.026-.036 2.051-.014 3.155-.014v-.008ZM104.915 72.938h-2.431v-1.843c0-1.254.029-2.516-.007-3.771-.05-1.463-1.068-2.43-2.466-2.416-1.27.014-2.123.91-2.159 2.38-.043 1.85-.007 3.707-.007 5.614h-2.51v-2.89c0-.91.03-1.828-.02-2.738-.087-1.542-.983-2.417-2.352-2.374-1.37.043-2.223.99-2.238 2.496-.014 1.541 0 3.083 0 4.624v.882h-2.53v-6.338c0-1.6-.122-1.714-1.793-1.606 0-.538-.05-1.076.021-1.6.029-.2.309-.458.524-.515 1.283-.337 2.445-.158 3.262 1.01 2.796-1.641 4.56-1.577 6.69.28 1.305-1.233 2.846-1.678 4.625-1.32 1.792.367 3.24 1.715 3.362 3.529.144 2.15.036 4.323.036 6.575l-.007.021ZM127.78 63.689V58.44h2.524v11.014c0 1.684.093 1.763 1.893 1.477 0 .566.043 1.125-.021 1.67-.029.201-.302.466-.51.524-1.333.365-2.559.243-3.412-1.011-2.861 1.728-5.658 1.52-7.479-.531-1.584-1.785-1.678-5.005-.193-6.912 1.62-2.086 4.273-2.48 7.205-.982h-.007Zm-.028 4.38c.007-1.663-.753-2.846-2.058-3.169-1.728-.437-3.291.596-3.592 2.374-.352 2.072.738 3.778 2.538 3.95 1.792.18 3.097-1.147 3.112-3.147v-.007ZM141.862 66.42h-2.251c-.136-1.67 1.04-3.169 2.954-3.506a8.846 8.846 0 0 1 3.133.022c1.958.373 2.933 1.714 2.94 3.735v2.825c0 1.607.165 1.743 1.886 1.406 0 .602.036 1.183-.022 1.756-.021.172-.287.41-.487.46-1.341.358-2.56.236-3.456-1.055-1.499 1.22-3.198 1.47-5.019 1.054-1.987-.451-2.997-1.993-2.467-3.692.373-1.183 1.327-1.685 2.424-1.929 1.111-.244 2.258-.366 3.384-.552.53-.086 1.169-.115 1.226-.832.057-.731-.488-1.032-1.097-1.226-1.534-.473-2.703.072-3.148 1.527v.008Zm4.238 2.166c-.452.043-.825.057-1.19.115-.925.15-1.879.236-2.775.509-.932.286-1.076 1.29-.28 1.764 1.025.609 2.115.415 3.112-.1.86-.445 1.219-1.227 1.133-2.288ZM117.613 69.016h-7.6c.064 1.692 2.531 3.004 4.144 1.879 1.104-.775 2.137-.466 3.234-.603-.251 2.115-3.134 3.327-5.586 2.954-3.241-.502-4.961-3.061-4.352-6.453.524-2.947 3.277-4.596 6.532-3.922 2.61.545 4.281 3.313 3.628 6.152v-.007Zm-2.509-1.778c0-1.448-.954-2.445-2.367-2.495-1.498-.05-2.76 1.054-2.81 2.495h5.177ZM121.944 38.005h3.434v14.842h-3.434V38.005ZM134.19 63.022h2.051c.107 0 .215.029.373.05v9.845h-2.424v-9.895ZM123.658 31.631c1.211.015 2.201.932 2.201 2.037 0 1.14-1.054 2.065-2.302 2.029-1.233-.036-2.158-.94-2.136-2.087.021-1.125 1.003-1.993 2.237-1.979ZM135.381 61.136c-.868 0-1.599-.681-1.578-1.455.022-.753.746-1.413 1.549-1.427.868-.015 1.592.638 1.599 1.448.014.81-.674 1.434-1.578 1.434h.008Z"/></g><defs><clipPath id="a"><path fill="#fff" d="M33.386 31.631h150.227v43.737H33.386z"/></clipPath></defs></svg>