<svg width="217" height="107" fill="none" xmlns="http://www.w3.org/2000/svg"><g clip-path="url(#a)" fill="#0F66FF"><path d="M27.854 59.778c-1.225 2.603-4.287 3.726-6.89 2.501a5.223 5.223 0 0 1-2.502-6.942c1.225-2.603 4.288-3.726 6.891-2.5 1.123.56 2.042 1.48 2.552 2.603h4.032c-1.174-4.85-6.074-7.86-10.922-6.636-4.85 1.225-7.861 6.074-6.636 10.923 1.225 4.849 6.074 7.86 10.923 6.636 3.267-.817 5.87-3.37 6.635-6.636h-4.083v.051ZM46.23 49.315c-1.124-.51-2.349-.817-3.625-.766-1.276 0-2.552.408-3.624 1.123v-.51h-3.675v16.792h3.726V57.89c-.05-1.072 0-2.195.256-3.267v-.102a2.823 2.823 0 0 1 1.378-1.684 3.827 3.827 0 0 1 4.032 0l1.531-3.522ZM60.317 49.161v8.065c.05 1.072 0 2.195-.256 3.267v.102a2.823 2.823 0 0 1-1.378 1.684c-1.225.715-2.756.715-4.032-.05a2.823 2.823 0 0 1-1.378-1.685v-.102c-.204-1.072-.306-2.195-.255-3.267v-8.014h-3.726v9.137c-.102 1.48.153 3.011.612 4.39a5.451 5.451 0 0 0 3.012 3.011c1.123.51 2.348.817 3.624.766 1.276 0 2.552-.409 3.623-1.123v.561h3.676V49.161h-3.522ZM72.26 65.954V57.89a13.903 13.903 0 0 1 .255-3.267v-.102a2.823 2.823 0 0 1 1.379-1.684 3.826 3.826 0 0 1 4.032 0c.663.357 1.174.97 1.378 1.684v.102c.204 1.072.255 2.195.204 3.267v8.064h3.675v-9.187a10.667 10.667 0 0 0-.612-4.39 5.452 5.452 0 0 0-3.012-3.011c-1.123-.51-2.348-.817-3.624-.766-1.276 0-2.552.408-3.624 1.123v-.51h-3.726v16.741h3.675ZM100.282 59.778c-1.225 2.603-4.287 3.726-6.89 2.501-2.603-1.225-3.726-4.287-2.501-6.89 1.225-2.604 4.287-3.726 6.89-2.501 1.123.561 2.042 1.48 2.552 2.603h4.033c-1.174-4.85-6.074-7.86-10.923-6.636-4.85 1.225-7.86 6.074-6.636 10.923 1.225 4.85 6.074 7.86 10.923 6.636 3.267-.817 5.87-3.37 6.636-6.636h-4.084ZM111.46 65.954V57.89c-.051-1.072 0-2.195.256-3.267v-.102a2.82 2.82 0 0 1 1.378-1.684 3.826 3.826 0 0 1 4.032 0 2.82 2.82 0 0 1 1.378 1.684v.102c.204 1.072.306 2.195.255 3.267v8.064h3.675v-9.187c.102-1.48-.153-3.012-.612-4.39a5.451 5.451 0 0 0-3.012-3.011c-1.123-.51-2.348-.817-3.624-.766-1.276 0-2.552.408-3.624 1.123v-9.698h-3.726v25.93h3.624ZM135.705 48.549h-.663c-1.583.102-3.114.663-4.441 1.582V40.025h-3.675v25.93h3.675v-.97c4.083 2.858 9.749 1.888 12.607-2.195 2.859-4.084 1.889-9.75-2.194-12.608-1.532-1.072-3.42-1.684-5.309-1.633Zm5.155 9.698v.153l-.153.613c-.051.204-.153.459-.255.663v.102c-.714 1.48-2.042 2.501-3.624 2.858l-.51.103h-.664c-.255 0-.459 0-.714-.051h-.153a4.016 4.016 0 0 1-1.328-.409h-.102a5.828 5.828 0 0 1-1.174-.765c-.357-.307-.663-.715-.918-1.072-.102-.205-.256-.409-.358-.664-.612-1.378-.561-2.91.051-4.287.766-1.634 2.348-2.757 4.186-2.96h.51c2.808.05 5.053 2.245 5.104 5.052.154.205.154.409.102.664ZM147.7 57.532c.051 5.002 4.134 9.035 9.137 8.984 1.786 0 3.47-.562 4.951-1.532v.97h3.675V49.161h-3.675v1.021c-1.327-.919-2.859-1.429-4.441-1.582h-.664c-4.9 0-8.932 3.981-8.983 8.932Zm3.828 0c0-2.858 2.348-5.206 5.206-5.206h.511c1.786.204 3.369 1.327 4.185 2.96.613 1.328.664 2.91.051 4.288-.102.204-.204.46-.357.663a4.623 4.623 0 0 1-.919 1.072 5.773 5.773 0 0 1-1.174.766h-.102c-.408.204-.867.306-1.327.408h-.102c-.255.051-.459.051-.714.051h-.613l-.51-.102a5.358 5.358 0 0 1-3.573-2.807v-.102c-.102-.204-.205-.408-.256-.664l-.153-.612v-.153c-.051-.153-.102-.358-.153-.562ZM182.459 54.164v-.102c0-2.757-2.092-5.513-6.788-5.564-4.696-.051-6.738 2.756-6.789 5.462v.204c.102 1.582 1.021 3.573 4.492 4.39l3.114.714c.816.204 2.194.612 2.296 1.684 0 1.43-1.837 2.144-3.113 2.144-1.531 0-3.114-.817-3.114-2.195V60.8h-3.675v.051c0 2.756 2.093 5.513 6.789 5.564 4.696.05 6.788-2.808 6.788-5.564v-.05c-.102-1.583-.969-3.625-4.491-4.442l-3.114-.714c-.663-.153-2.297-.613-2.297-1.633 0-1.583 1.634-2.144 3.114-2.144 1.531 0 3.113.816 3.113 2.195v.102h3.675ZM202.978 57.175c0-5.461-3.726-8.677-8.626-8.677-4.747-.153-8.728 3.522-8.881 8.269v.663c-.204 4.798 3.522 8.83 8.32 9.035h.561c1.787 0 3.573-.409 5.155-1.328a6.947 6.947 0 0 0 3.318-4.338h-3.624c-.868 1.582-2.45 2.348-4.696 2.348-3.011 0-5.257-2.348-5.257-4.594h13.679c.051-.561.051-.919.051-1.378Zm-13.781-1.684a4.753 4.753 0 0 1 4.951-3.726c2.603 0 4.696 1.53 5.053 3.726h-10.004Z"/></g><defs><clipPath id="a"><path fill="#fff" transform="translate(14.073 40.025)" d="M0 0h188.854v26.95H0z"/></clipPath></defs></svg>