<svg width="217" height="107" viewBox="0 0 217 107" fill="none" xmlns="http://www.w3.org/2000/svg">
<g clip-path="url(#clip0_2359_5145)">
<path d="M43.2297 39.4196C46.0712 39.2426 48.8069 39.0738 51.5813 38.9009C51.5813 39.0331 51.6037 39.145 51.5773 39.2426C50.9182 41.7729 50.2552 44.3032 49.5921 46.8335C49.5758 46.8945 49.5453 46.9535 49.4944 47.0756C49.3582 46.9251 49.2381 46.803 49.1303 46.6708C48.7683 46.2315 48.4144 45.786 48.0523 45.3467C47.8265 45.0741 47.8204 45.0741 47.5601 45.2856C44.6555 47.6695 41.753 50.0534 38.8484 52.4372C36.1961 54.6157 33.5457 56.7941 30.8934 58.9725C28.4058 61.0167 25.8917 63.0324 23.4387 65.1152C21.72 66.5757 19.7938 67.5337 17.5747 67.9079C10.3804 69.1202 4.31901 64.3972 3.15149 58.0369C2.14262 52.5389 4.84786 47.1203 9.82712 44.6754C12.0645 43.5771 14.4281 43.2354 16.8953 43.5201C18.9069 43.754 20.7477 44.4212 22.3953 45.605C22.9994 46.0382 23.0014 46.0423 22.5641 46.6078C21.8502 47.5353 21.1342 48.4628 20.4142 49.3862C20.1416 49.7361 20.1375 49.732 19.7856 49.4838C18.4574 48.5482 16.9828 48.0214 15.3596 48.0458C11.7554 48.1028 8.43382 50.4276 7.70361 54.2556C7.14019 57.205 8.13482 59.6397 10.4129 61.5496C11.6903 62.6195 13.1832 63.2561 14.8389 63.4351C16.4092 63.604 17.8838 63.2073 19.2182 62.3815C19.9199 61.9462 20.5606 61.4093 21.2013 60.8845C24.5737 58.1243 27.938 55.352 31.3063 52.5857C34.9004 49.6323 38.4965 46.683 42.0906 43.7296C42.9083 43.0584 43.7239 42.3872 44.5396 41.7139C44.8528 41.4556 44.8569 41.4495 44.6108 41.1424C44.2243 40.6603 43.8256 40.1884 43.4331 39.7104C43.3843 39.6494 43.3436 39.5823 43.2297 39.4216V39.4196Z" fill="#39B5E6"/>
<path d="M198.189 54.4023V54.9352C198.189 57.7015 198.189 60.4677 198.189 63.2319C198.189 63.3296 198.189 63.4272 198.189 63.5248C198.181 63.891 198.181 63.8971 197.806 63.8991C197.058 63.9032 196.309 63.893 195.561 63.9052C195.305 63.9093 195.227 63.8177 195.231 63.5655C195.246 62.8007 195.237 62.0359 195.237 61.2711C195.237 57.2031 195.237 53.1371 195.237 49.0691C195.237 48.4182 195.233 48.5504 195.754 48.5342C196.372 48.5159 196.991 48.5423 197.609 48.5159C197.906 48.5036 198.075 48.6074 198.238 48.8515C200.137 51.6889 202.047 54.5182 203.955 57.3496C204.124 57.5998 204.295 57.8479 204.464 58.0981C204.498 58.0899 204.531 58.0798 204.565 58.0716V57.6099C204.565 54.7623 204.565 51.9167 204.565 49.0691C204.565 48.463 204.521 48.5443 205.078 48.5403C205.778 48.5362 206.477 48.5484 207.177 48.5342C207.433 48.5281 207.515 48.6155 207.509 48.8677C207.494 49.5186 207.505 50.1695 207.505 50.8204C207.505 55.0023 207.505 59.1822 207.505 63.3641C207.505 63.9337 207.608 63.8991 206.949 63.9011C206.38 63.9011 205.81 63.8787 205.241 63.9093C204.891 63.9276 204.683 63.8116 204.488 63.5187C202.523 60.5877 200.544 57.6689 198.567 54.746C198.48 54.6179 198.386 54.4938 198.295 54.3697C198.26 54.3819 198.225 54.3921 198.191 54.4043L198.189 54.4023Z" fill="#0D2740"/>
<path d="M118.897 64.0595C114.532 64.0493 111.052 60.5345 111.066 56.1472C111.078 51.8289 114.619 48.3406 118.974 48.3528C123.301 48.3671 126.791 51.9001 126.775 56.2489C126.758 60.5955 123.254 64.0696 118.897 64.0574V64.0595ZM118.889 61.1162C121.602 61.1223 123.823 58.9337 123.831 56.2468C123.84 53.5375 121.659 51.3286 118.958 51.3042C116.269 51.2818 114.034 53.4826 114.009 56.1756C113.985 58.8585 116.208 61.1081 118.889 61.1162Z" fill="#0D2740"/>
<path d="M75.8612 63.9009C74.7527 63.9009 73.7316 63.8948 72.7126 63.905C72.4482 63.9091 72.3973 63.7138 72.3078 63.5511C71.5512 62.1497 70.7986 60.7482 70.044 59.3468C69.8446 58.9746 69.6311 58.6084 69.45 58.2281C69.33 57.9738 69.1714 57.8721 68.8846 57.8843C68.1645 57.9169 68.2642 57.7908 68.2622 58.5047C68.2561 60.1645 68.2622 61.8222 68.2601 63.4819C68.2601 63.8969 68.2561 63.9009 67.8289 63.9009C67.1129 63.903 66.397 63.905 65.683 63.9009C65.3189 63.8989 65.3149 63.8928 65.3128 63.5185C65.3088 63.0141 65.3128 62.5097 65.3128 62.0052C65.3128 57.6952 65.3128 53.3871 65.3128 49.0771C65.3128 48.4323 65.262 48.5279 65.8519 48.5258C67.2513 48.5218 68.6486 48.536 70.048 48.5218C73.1662 48.4913 74.7263 50.9341 74.7629 53.1797C74.7852 54.5607 74.3825 55.7405 73.3675 56.6843C73.1092 56.9263 72.8 57.1155 72.5031 57.3128C72.3668 57.4043 72.3342 57.4897 72.4197 57.628C72.4949 57.7521 72.5621 57.8843 72.6333 58.0125C73.6218 59.8044 74.6103 61.5964 75.5988 63.3884C75.6761 63.5287 75.7473 63.6752 75.8653 63.9009H75.8612ZM68.2601 53.3586C68.2601 53.8956 68.2642 54.4326 68.2581 54.9676C68.2561 55.175 68.3354 55.2584 68.5449 55.2543C69.0981 55.2442 69.6514 55.2727 70.2026 55.2421C70.941 55.2015 71.4495 54.8089 71.7017 54.1153C71.8868 53.6109 71.8888 53.0922 71.7017 52.5878C71.4434 51.8942 70.9328 51.5077 70.1945 51.4711C69.6433 51.4426 69.088 51.4711 68.5367 51.4609C68.3191 51.4568 68.2561 51.5504 68.2581 51.7518C68.2642 52.2888 68.2601 52.8257 68.2601 53.3607V53.3586Z" fill="#0D2740"/>
<path d="M144.841 63.901C144.489 63.901 144.167 63.901 143.844 63.901C143.34 63.901 142.835 63.901 142.331 63.901C141.906 63.899 141.902 63.8969 141.902 63.48C141.902 62.0317 141.902 60.5835 141.902 59.1353C141.902 58.7448 141.891 58.3542 141.906 57.9637C141.914 57.7298 141.826 57.6484 141.596 57.6484C140.067 57.6545 138.537 57.6484 137.008 57.6545C136.69 57.6545 136.684 57.6688 136.682 58.041C136.68 59.8147 136.682 61.5883 136.682 63.362C136.682 63.964 136.735 63.8969 136.123 63.899C135.505 63.901 134.886 63.899 134.268 63.899C133.637 63.899 133.733 63.9254 133.733 63.3376C133.731 59.8553 133.733 56.3731 133.733 52.8929C133.733 51.5911 133.733 50.2894 133.733 48.9876C133.733 48.4791 133.707 48.5218 134.215 48.5218C134.915 48.5218 135.614 48.5198 136.314 48.5218C136.676 48.5218 136.684 48.5279 136.684 48.9022C136.686 50.5782 136.684 52.2542 136.684 53.9303C136.684 54.0279 136.684 54.1255 136.684 54.2232C136.684 54.7398 136.664 54.7012 137.158 54.7012C138.606 54.7012 140.055 54.7012 141.503 54.7012C141.9 54.7012 141.904 54.6951 141.906 54.3005C141.906 52.5105 141.906 50.7206 141.906 48.9307C141.906 48.53 141.91 48.5259 142.294 48.5239C143.043 48.5218 143.791 48.53 144.54 48.5178C144.77 48.5137 144.877 48.5788 144.845 48.8188C144.837 48.8818 144.845 48.949 144.845 49.0141C144.845 53.8143 144.845 58.6126 144.845 63.4128V63.901H144.841Z" fill="#0D2740"/>
<path d="M169.444 57.4428C170.624 59.5847 171.789 61.7021 172.981 63.8642C172.811 63.8785 172.686 63.8968 172.564 63.8988C171.718 63.9008 170.872 63.8866 170.028 63.9069C169.729 63.913 169.566 63.8174 169.426 63.551C168.492 61.7855 167.54 60.0281 166.59 58.2707C166.517 58.1344 166.416 57.9391 166.3 57.9168C166.035 57.8659 165.752 57.9005 165.478 57.9147C165.441 57.9147 165.384 58.0042 165.378 58.0571C165.362 58.1853 165.366 58.3154 165.366 58.4456C165.366 60.1196 165.366 61.7956 165.366 63.4696C165.366 63.8947 165.362 63.8988 164.945 63.8988C164.213 63.9008 163.48 63.8927 162.75 63.9029C162.5 63.9069 162.415 63.8276 162.419 63.5693C162.433 62.593 162.425 61.6187 162.425 60.6423C162.425 56.8042 162.425 52.968 162.425 49.1298C162.425 49.0322 162.437 48.9325 162.423 48.8369C162.384 48.5623 162.525 48.5156 162.762 48.5176C164.306 48.5257 165.852 48.5054 167.396 48.5257C169.589 48.5542 171.348 50.037 171.777 52.187C171.916 52.8785 171.94 53.5742 171.818 54.2698C171.596 55.5471 170.899 56.5031 169.823 57.1988C169.703 57.2761 169.58 57.3554 169.45 57.4408L169.444 57.4428ZM166.527 51.4608C166.235 51.4608 165.944 51.4669 165.651 51.4567C165.439 51.4486 165.362 51.5442 165.362 51.7456C165.364 52.8175 165.364 53.8894 165.362 54.9593C165.362 55.1586 165.439 55.2542 165.651 55.2522C166.218 55.2441 166.788 55.2705 167.355 55.238C168.071 55.1953 168.566 54.8068 168.822 54.1376C169.015 53.6352 169.017 53.1206 168.842 52.6121C168.604 51.9205 168.037 51.4974 167.306 51.4628C167.048 51.4506 166.788 51.4628 166.527 51.4628V51.4608Z" fill="#0D2740"/>
<path d="M160.867 63.8987C159.837 63.8987 158.879 63.8947 157.923 63.9028C157.706 63.9028 157.659 63.7604 157.594 63.6079C157.277 62.8777 156.943 62.1556 156.644 61.4172C156.522 61.1142 156.357 61.0145 156.028 61.0186C154.384 61.0389 152.741 61.0348 151.099 61.0206C150.792 61.0186 150.636 61.1142 150.526 61.405C150.243 62.1474 149.922 62.8777 149.621 63.614C149.558 63.7686 149.505 63.9048 149.289 63.9028C148.333 63.8947 147.377 63.8987 146.366 63.8987C146.421 63.7177 146.454 63.5814 146.505 63.4533C148.441 58.594 150.381 53.7388 152.31 48.8775C152.415 48.6131 152.537 48.4972 152.834 48.5135C153.337 48.5399 153.843 48.5399 154.346 48.5135C154.624 48.4992 154.744 48.6009 154.842 48.8511C155.418 50.3176 156.009 51.7781 156.595 53.2405C157.956 56.6312 159.317 60.0239 160.678 63.4146C160.73 63.5489 160.783 63.6831 160.867 63.8987ZM153.589 53.7063C152.963 55.2867 152.379 56.7573 151.779 58.2645H155.383C154.787 56.7492 154.207 55.2766 153.587 53.7063H153.589Z" fill="#0D2740"/>
<path d="M179.15 63.901C179.392 63.2867 179.602 62.7457 179.816 62.2067C181.571 57.801 183.328 53.3953 185.084 48.9896C185.12 48.9001 185.163 48.8106 185.194 48.7191C185.24 48.5767 185.328 48.5177 185.482 48.5198C186.084 48.5259 186.686 48.534 187.289 48.5177C187.537 48.5116 187.579 48.6703 187.647 48.8371C188.196 50.21 188.747 51.581 189.298 52.9519C190.708 56.4646 192.119 59.9753 193.529 63.4881C193.576 63.604 193.612 63.724 193.675 63.901C193.218 63.901 192.817 63.901 192.416 63.901C191.912 63.901 191.407 63.8867 190.903 63.9071C190.637 63.9173 190.496 63.8379 190.392 63.5816C190.1 62.8596 189.756 62.1578 189.467 61.4337C189.347 61.1327 189.198 61.0147 188.861 61.0188C187.217 61.0391 185.574 61.0391 183.93 61.0188C183.585 61.0147 183.444 61.1449 183.33 61.4398C183.056 62.1517 182.74 62.8474 182.462 63.5593C182.366 63.8013 182.258 63.9173 181.972 63.9112C181.062 63.8888 180.151 63.903 179.15 63.903V63.901ZM186.406 53.7085C185.775 55.2951 185.194 56.7616 184.593 58.2688H188.202C187.608 56.7575 187.028 55.289 186.406 53.7085Z" fill="#0D2740"/>
<path d="M63.4151 50.0228C62.8273 50.7836 62.2679 51.4995 61.7188 52.2236C61.5825 52.4047 61.4808 52.3091 61.3567 52.2236C60.5817 51.6745 59.7214 51.3572 58.7715 51.3185C56.3144 51.2188 53.9814 52.9335 53.6234 55.5493C53.302 57.9026 54.8011 60.0241 57.0548 60.8296C58.5091 61.3482 59.8658 61.1347 61.1574 60.3373C61.2265 60.2946 61.2916 60.2478 61.3587 60.201C61.4259 60.1563 61.491 60.1095 61.5886 60.0444C62.1622 60.7848 62.7256 61.515 63.2931 62.2412C63.3907 62.3652 63.3399 62.4507 63.2361 62.5219C62.929 62.7334 62.6361 62.9734 62.3066 63.1443C57.5795 65.5912 51.7074 63.0263 50.7392 57.51C49.9845 53.2183 52.9684 49.0994 57.2785 48.4526C59.0481 48.1861 60.7485 48.4445 62.329 49.317C62.6951 49.5204 63.0327 49.7747 63.4131 50.0269L63.4151 50.0228Z" fill="#0D2740"/>
<path d="M89.6763 56.18V49.0549C89.6763 49.0061 89.6763 48.9573 89.6763 48.9085C89.6824 48.5322 89.6824 48.5301 90.0404 48.524C90.2682 48.52 90.496 48.524 90.7238 48.524C91.928 48.524 93.1321 48.522 94.3362 48.524C96.9601 48.5322 98.8395 50.4177 98.866 53.0538C98.8782 54.3799 98.4917 55.5536 97.5744 56.5258C96.712 57.4411 95.6238 57.8439 94.383 57.8662C93.9437 57.8744 93.5043 57.8703 93.065 57.8662C92.5626 57.8622 92.6053 57.8866 92.6053 58.3158C92.6053 59.9755 92.6053 61.6353 92.6053 63.295C92.6053 63.3927 92.5971 63.4903 92.6053 63.5879C92.6277 63.8096 92.5605 63.9113 92.3124 63.9073C91.515 63.8951 90.7177 63.8991 89.9204 63.9052C89.7333 63.9052 89.6539 63.8401 89.6621 63.651C89.6722 63.4394 89.6641 63.2279 89.6641 63.0164C89.6641 60.7383 89.6641 58.4602 89.6641 56.1841C89.6661 56.1841 89.6702 56.1841 89.6722 56.1841L89.6763 56.18ZM92.6073 53.2002C92.6073 53.6701 92.6175 54.142 92.6032 54.6118C92.5951 54.8518 92.6907 54.9251 92.9144 54.919C93.4331 54.9088 93.9518 54.923 94.4705 54.9068C95.1315 54.8864 95.581 54.5345 95.7743 53.9243C95.8841 53.5785 95.9309 53.188 95.8943 52.828C95.8088 51.9737 95.217 51.4754 94.3484 51.4611C93.8623 51.453 93.3762 51.4652 92.89 51.4571C92.6826 51.453 92.5992 51.5303 92.6032 51.7398C92.6114 52.2259 92.6053 52.7121 92.6053 53.1982L92.6073 53.2002Z" fill="#0D2740"/>
<path d="M76.6667 48.524C77.6878 48.524 78.6316 48.5321 79.5733 48.5199C79.8215 48.5159 79.9394 48.5952 80.033 48.8352C80.5618 50.198 81.1131 51.5506 81.6582 52.9073C81.8941 53.4931 82.128 54.0809 82.4047 54.7704C82.5064 54.5508 82.5755 54.4186 82.6304 54.2802C83.3505 52.5046 84.0685 50.7268 84.7865 48.9511C84.9512 48.5443 84.9512 48.5443 85.3743 48.5423C86.2693 48.5423 87.1622 48.5423 88.1406 48.5423C88.0673 48.7355 88.0145 48.8921 87.9494 49.0447C86.6578 52.0245 85.3662 55.0064 84.0664 57.9842C83.9525 58.2445 83.8956 58.4988 83.8976 58.7836C83.9058 60.3619 83.9017 61.9403 83.8997 63.5167C83.8997 63.895 83.8936 63.9011 83.5356 63.9032C82.8033 63.9072 82.0711 63.9072 81.3388 63.9032C80.9686 63.9032 80.9625 63.8971 80.9625 63.5309C80.9605 61.9688 80.9564 60.4067 80.9666 58.8466C80.9686 58.5293 80.9015 58.2425 80.7754 57.9557C79.4818 55.0125 78.1922 52.0652 76.9026 49.1179C76.8254 48.943 76.7582 48.762 76.6647 48.5281L76.6667 48.524Z" fill="#0D2740"/>
<path d="M107.325 57.7052C107.325 59.6253 107.325 61.5454 107.325 63.4655C107.325 63.8947 107.321 63.8988 106.91 63.9008C106.195 63.9049 105.479 63.9049 104.763 63.9008C104.39 63.9008 104.384 63.8947 104.384 63.5266C104.382 62.0946 104.384 60.6627 104.384 59.2307V52.2012C104.384 52.1198 104.384 52.0385 104.384 51.9571C104.38 51.4649 104.38 51.4628 103.906 51.4608C103.093 51.4588 102.279 51.4608 101.465 51.4608C101.368 51.4608 101.27 51.4567 101.173 51.4608C101.022 51.4689 100.977 51.3937 100.979 51.2554C100.983 50.4092 100.983 49.5631 100.979 48.7169C100.979 48.5684 101.051 48.5176 101.189 48.5237C101.286 48.5277 101.384 48.5237 101.482 48.5237C104.411 48.5237 107.34 48.5237 110.269 48.5237C110.366 48.5237 110.464 48.5277 110.562 48.5237C110.706 48.5196 110.761 48.5888 110.761 48.7291C110.759 49.5753 110.757 50.4214 110.761 51.2676C110.761 51.4649 110.635 51.4588 110.501 51.4588C109.752 51.4588 109.003 51.4588 108.255 51.4588C108.125 51.4588 107.995 51.4588 107.864 51.4588C107.33 51.4588 107.327 51.4588 107.327 51.9917C107.327 53.8955 107.327 55.7993 107.327 57.7032L107.325 57.7052Z" fill="#0D2740"/>
<path d="M37.6584 68.0685V67.5722C37.6584 63.5897 37.6625 59.6071 37.6523 55.6245C37.6523 55.3072 37.7317 55.0895 37.99 54.882C39.3101 53.8264 40.6118 52.7484 41.9197 51.6785C42.0275 51.589 42.1414 51.5076 42.3245 51.3652C42.3245 51.589 42.3245 51.7273 42.3245 51.8656C42.3265 55.9458 42.3245 60.0261 42.3407 64.1043C42.3407 64.446 42.2533 64.6595 41.9685 64.869C40.6708 65.8189 39.3935 66.7953 38.1059 67.7614C37.9819 67.855 37.8496 67.9363 37.6584 68.0685Z" fill="#0D2740"/>
<path d="M25.3181 55.7488C25.3099 55.5678 25.2977 55.4254 25.2977 55.285C25.2896 51.5974 25.2835 47.9097 25.2774 44.222C25.2774 44.1244 25.2774 44.0268 25.2774 43.9291C25.2835 43.5264 25.2835 43.5244 25.6679 43.5142C26.7399 43.4878 27.8118 43.4634 28.8817 43.4389C29.0932 43.4349 29.3048 43.4349 29.5143 43.4267C29.9739 43.4084 29.9455 43.3637 29.9455 43.8742C29.9455 44.7672 29.9455 45.6621 29.9455 46.5551C29.9455 48.2453 29.9414 49.9335 29.9495 51.6238C29.9495 51.8679 29.9007 52.0449 29.6973 52.2096C28.2938 53.3426 26.9026 54.4877 25.5072 55.6288C25.4605 55.6674 25.4055 55.6939 25.3181 55.7488Z" fill="#0D2740"/>
<path d="M174.617 56.2387C174.617 53.8467 174.617 51.4547 174.617 49.0627C174.617 48.9488 174.621 48.8349 174.617 48.721C174.613 48.5725 174.688 48.5237 174.826 48.5237C175.672 48.5237 176.518 48.5257 177.365 48.5237C177.519 48.5237 177.56 48.603 177.554 48.7373C177.55 48.8349 177.554 48.9325 177.554 49.0302C177.554 53.8141 177.554 58.5981 177.554 63.3821C177.554 63.4147 177.554 63.4472 177.554 63.4798C177.55 63.8988 177.55 63.9008 177.129 63.9028C176.429 63.9049 175.729 63.9049 175.03 63.9028C174.619 63.9028 174.617 63.8967 174.617 63.4655C174.617 61.0573 174.617 58.649 174.617 56.2407V56.2387Z" fill="#0D2740"/>
<path d="M29.9678 61.5251V61.8201C29.9678 63.7707 29.9678 65.7233 29.9678 67.674C29.9678 68.0909 29.982 68.0808 29.5752 68.0787C28.2572 68.0787 26.9412 68.0726 25.6232 68.0828C25.375 68.0828 25.2855 68.0218 25.2916 67.7594C25.3079 67.0272 25.3038 66.2969 25.2936 65.5647C25.2916 65.3694 25.3486 65.2332 25.5052 65.107C26.9432 63.9395 28.3772 62.7639 29.8112 61.5923C29.8356 61.5719 29.8702 61.5658 29.9678 61.5251Z" fill="#0D2740"/>
<path d="M210.859 62.2433C210.859 61.8385 210.867 61.4317 210.855 61.027C210.849 60.8073 210.903 60.7036 211.15 60.7056C212.026 60.7158 212.903 60.7158 213.78 60.7056C213.991 60.7056 214.058 60.7788 214.056 60.9883C214.048 61.865 214.046 62.7416 214.056 63.6183C214.058 63.8441 213.961 63.8868 213.765 63.8848C212.889 63.8787 212.012 63.8787 211.135 63.8848C210.93 63.8848 210.847 63.8217 210.853 63.6061C210.865 63.1525 210.857 62.6969 210.857 62.2433H210.859Z" fill="#0D2740"/>
<path d="M213.971 49.4108C213.454 49.4108 213.001 49.4108 212.545 49.4108C212.431 49.4108 212.315 49.4026 212.203 49.4169C211.914 49.4535 211.719 49.6691 211.717 49.9356C211.717 50.2081 211.9 50.4298 212.197 50.4502C212.52 50.4746 212.846 50.4583 213.171 50.4583C213.334 50.4583 213.499 50.4766 213.657 50.4542C213.936 50.4176 213.997 50.5519 213.969 50.7878C213.963 50.8366 213.969 50.8854 213.969 50.9343C213.963 51.2821 213.963 51.2841 213.635 51.2882C213.261 51.2922 212.887 51.2882 212.514 51.2882C212.4 51.2882 212.285 51.2821 212.175 51.3024C211.886 51.3553 211.703 51.5811 211.719 51.8455C211.733 52.1079 211.937 52.3154 212.236 52.3255C212.64 52.3418 213.047 52.3296 213.454 52.3316C213.615 52.3316 213.773 52.3316 213.928 52.3316C213.999 52.8984 213.778 53.1818 213.267 53.1818C212.616 53.1818 211.967 53.1839 211.316 53.1818C210.926 53.1798 210.932 53.1757 210.924 52.771C210.918 52.4659 210.855 52.1587 210.889 51.8597C210.928 51.5119 211.15 51.158 211.099 50.8366C211.048 50.5153 210.867 50.204 210.881 49.8562C210.916 49.063 211.329 48.6257 212.126 48.5809C212.661 48.5504 213.198 48.5748 213.735 48.5687C213.891 48.5667 213.981 48.6094 213.973 48.7843C213.965 48.9775 213.973 49.1708 213.973 49.4128L213.971 49.4108Z" fill="#0D2740"/>
<path d="M212.459 56.6357C211.579 56.6418 210.877 55.9421 210.879 55.0613C210.881 54.1969 211.56 53.5114 212.421 53.5033C213.312 53.4931 214.022 54.1725 214.034 55.0491C214.046 55.9177 213.338 56.6316 212.459 56.6357ZM213.173 55.0715C213.177 54.6789 212.872 54.3596 212.48 54.3413C212.075 54.323 211.723 54.6545 211.721 55.0593C211.719 55.4458 212.032 55.7732 212.419 55.7875C212.834 55.8038 213.169 55.4864 213.173 55.0715Z" fill="#0D2740"/>
<path d="M212.443 59.8553C211.8 59.8553 211.245 59.479 211.001 58.8831C210.765 58.3074 210.903 57.6057 211.341 57.1704C211.536 56.9752 211.556 56.9792 211.746 57.205C211.927 57.4226 212.055 57.6016 211.825 57.9067C211.591 58.2139 211.719 58.6308 212.022 58.8526C212.303 59.058 212.71 59.0275 212.958 58.7814C213.23 58.5108 213.245 58.1427 213.009 57.8132C212.942 57.7176 212.832 57.5874 212.856 57.506C212.915 57.3087 213.033 57.1277 213.149 56.9548C213.163 56.9345 213.326 56.9813 213.395 57.0321C214.233 57.6362 214.233 58.9298 213.399 59.5441C213.116 59.7516 212.799 59.8614 212.445 59.8553H212.443Z" fill="#0D2740"/>
<path d="M37.6605 45.6803V43.5527H40.2579C39.3711 44.2789 38.5493 44.9521 37.6605 45.6803Z" fill="#0D2740"/>
</g>
<defs>
<clipPath id="clip0_2359_5145">
<rect width="211.116" height="29.1982" fill="white" transform="translate(2.94189 38.9009)"/>
</clipPath>
</defs>
</svg>
