<svg width="217" height="108" fill="none" xmlns="http://www.w3.org/2000/svg"><g clip-path="url(#a)"><path d="M45.45 66.18 32.65 73.566a5.616 5.616 0 0 1-5.531 0l-12.916-7.384a5.53 5.53 0 0 1-2.825-4.796v-14.77c0-1.97 1.118-3.824 2.825-4.795l12.798-7.385a5.616 5.616 0 0 1 5.531 0l12.799 7.385a5.53 5.53 0 0 1 2.824 4.795v14.888c0 1.853-1 3.707-2.707 4.678Z" fill="url(#b)"/><path d="M14.44 54.383a.382.382 0 1 0 0-.765.382.382 0 0 0 0 .765Z" fill="url(#c)"/><path d="M16.911 54.383a.382.382 0 1 0 0-.765.382.382 0 0 0 0 .765Z" fill="url(#d)"/><path d="M19.618 54.383a.382.382 0 1 0 0-.765.382.382 0 0 0 0 .765Z" fill="url(#e)"/><path d="M22.06 54.383a.382.382 0 1 0 0-.765.382.382 0 0 0 0 .765Z" fill="url(#f)"/><path d="M24.649 54.383a.382.382 0 1 0 0-.765.382.382 0 0 0 0 .765Z" fill="url(#g)"/><path d="M27.238 54.383a.382.382 0 1 0 0-.765.382.382 0 0 0 0 .765Z" fill="url(#h)"/><path d="M29.827 54.383a.382.382 0 1 0 0-.765.382.382 0 0 0 0 .765Z" fill="url(#i)"/><path d="M32.416 54.383a.382.382 0 1 0 0-.765.382.382 0 0 0 0 .765Z" fill="url(#j)"/><path d="M34.857 54.383a.382.382 0 1 0 0-.765.382.382 0 0 0 0 .765Z" fill="url(#k)"/><path d="M37.564 54.383a.382.382 0 1 0 0-.765.382.382 0 0 0 0 .765Z" fill="url(#l)"/><path d="M40.036 54.383a.382.382 0 1 0 0-.765.382.382 0 0 0 0 .765Z" fill="url(#m)"/><path d="M42.596 54.383a.382.382 0 1 0 0-.765.382.382 0 0 0 0 .765Z" fill="url(#n)"/><path d="M45.185 54.383a.382.382 0 1 0 0-.765.382.382 0 0 0 0 .765Z" fill="url(#o)"/><path d="M14.44 56.972a.382.382 0 1 0 0-.765.382.382 0 0 0 0 .765Z" fill="url(#p)"/><path d="M16.911 56.972a.382.382 0 1 0 0-.765.382.382 0 0 0 0 .765Z" fill="url(#q)"/><path d="M19.618 56.972a.383.383 0 1 0 0-.766.383.383 0 0 0 0 .766Z" fill="url(#r)"/><path d="M22.06 56.972a.382.382 0 1 0 0-.765.382.382 0 0 0 0 .765Z" fill="url(#s)"/><path d="M24.649 56.972a.383.383 0 1 0 0-.766.383.383 0 0 0 0 .766Z" fill="url(#t)"/><path d="M27.238 56.972a.383.383 0 1 0 0-.766.383.383 0 0 0 0 .766Z" fill="url(#u)"/><path d="M29.827 56.972a.382.382 0 1 0 0-.765.382.382 0 0 0 0 .765Z" fill="url(#v)"/><path d="M32.416 56.972a.382.382 0 1 0 0-.765.382.382 0 0 0 0 .765Z" fill="url(#w)"/><path d="M34.857 56.972a.383.383 0 1 0 0-.766.383.383 0 0 0 0 .766Z" fill="url(#x)"/><path d="M37.564 56.972a.383.383 0 1 0 0-.766.383.383 0 0 0 0 .766Z" fill="url(#y)"/><path d="M40.036 56.972a.382.382 0 1 0 0-.765.382.382 0 0 0 0 .765Z" fill="url(#z)"/><path d="M42.596 56.972a.382.382 0 1 0 0-.765.382.382 0 0 0 0 .765Z" fill="url(#A)"/><path d="M45.185 56.972a.382.382 0 1 0 0-.765.382.382 0 0 0 0 .765Z" fill="url(#B)"/><path d="M14.44 59.443a.382.382 0 1 0 0-.765.382.382 0 0 0 0 .765Z" fill="url(#C)"/><path d="M16.911 59.443a.382.382 0 1 0 0-.765.382.382 0 0 0 0 .765Z" fill="url(#D)"/><path d="M19.618 59.443a.382.382 0 1 0 0-.765.382.382 0 0 0 0 .765Z" fill="url(#E)"/><path d="M22.06 59.443a.382.382 0 1 0 0-.765.382.382 0 0 0 0 .765Z" fill="url(#F)"/><path d="M24.649 59.443a.382.382 0 1 0 0-.765.382.382 0 0 0 0 .765Z" fill="url(#G)"/><path d="M27.238 59.443a.382.382 0 1 0 0-.765.382.382 0 0 0 0 .765Z" fill="url(#H)"/><path d="M29.827 59.443a.382.382 0 1 0 0-.765.382.382 0 0 0 0 .765Z" fill="url(#I)"/><path d="M32.416 59.443a.382.382 0 1 0 0-.765.382.382 0 0 0 0 .765Z" fill="url(#J)"/><path d="M34.857 59.443a.382.382 0 1 0 0-.765.382.382 0 0 0 0 .765Z" fill="url(#K)"/><path d="M37.564 59.443a.382.382 0 1 0 0-.765.382.382 0 0 0 0 .765Z" fill="url(#L)"/><path d="M40.036 59.443a.382.382 0 1 0 0-.765.382.382 0 0 0 0 .765Z" fill="url(#M)"/><path d="M42.596 59.443a.382.382 0 1 0 0-.765.382.382 0 0 0 0 .765Z" fill="url(#N)"/><path d="M45.185 59.443a.382.382 0 1 0 0-.765.382.382 0 0 0 0 .765Z" fill="url(#O)"/><path d="M14.44 51.676a.382.382 0 1 0 0-.765.382.382 0 0 0 0 .765Z" fill="url(#P)"/><path d="M16.911 51.676a.382.382 0 1 0 0-.765.382.382 0 0 0 0 .765Z" fill="url(#Q)"/><path d="M19.618 51.676a.383.383 0 1 0 0-.765.383.383 0 0 0 0 .765Z" fill="url(#R)"/><path d="M22.06 51.676a.382.382 0 1 0 0-.765.382.382 0 0 0 0 .765Z" fill="url(#S)"/><path d="M24.649 51.676a.383.383 0 1 0 0-.765.383.383 0 0 0 0 .765Z" fill="url(#T)"/><path d="M27.238 51.676a.383.383 0 1 0 0-.765.383.383 0 0 0 0 .765Z" fill="url(#U)"/><path d="M29.827 51.676a.382.382 0 1 0 0-.765.382.382 0 0 0 0 .765Z" fill="url(#V)"/><path d="M32.416 51.676a.382.382 0 1 0 0-.765.382.382 0 0 0 0 .765Z" fill="url(#W)"/><path d="M34.857 51.676a.383.383 0 1 0 0-.765.383.383 0 0 0 0 .765Z" fill="url(#X)"/><path d="M37.564 51.676a.383.383 0 1 0 0-.765.383.383 0 0 0 0 .765Z" fill="url(#Y)"/><path d="M40.036 51.676a.382.382 0 1 0 0-.765.382.382 0 0 0 0 .765Z" fill="url(#Z)"/><path d="M42.596 51.676a.382.382 0 1 0 0-.765.382.382 0 0 0 0 .765Z" fill="url(#aa)"/><path d="M45.185 51.676a.382.382 0 1 0 0-.765.382.382 0 0 0 0 .765Z" fill="url(#ab)"/><path d="M14.44 49.234a.382.382 0 1 0 0-.765.382.382 0 0 0 0 .765Z" fill="url(#ac)"/><path d="M16.911 49.234a.382.382 0 1 0 0-.765.382.382 0 0 0 0 .765Z" fill="url(#ad)"/><path d="M16.911 46.645a.382.382 0 1 0 0-.765.382.382 0 0 0 0 .765Z" fill="url(#ae)"/><path d="M16.911 44.174a.382.382 0 1 0 0-.765.382.382 0 0 0 0 .765Z" fill="url(#af)"/><path d="M19.618 46.645a.382.382 0 1 0 0-.765.382.382 0 0 0 0 .765Z" fill="url(#ag)"/><path d="M19.618 44.174a.383.383 0 1 0 0-.766.383.383 0 0 0 0 .766Z" fill="url(#ah)"/><path d="M22.06 46.645a.382.382 0 1 0 0-.765.382.382 0 0 0 0 .765Z" fill="url(#ai)"/><path d="M22.06 44.174a.382.382 0 1 0 0-.765.382.382 0 0 0 0 .765Z" fill="url(#aj)"/><path d="M24.649 46.645a.382.382 0 1 0 0-.765.382.382 0 0 0 0 .765Z" fill="url(#ak)"/><path d="M24.649 44.174a.383.383 0 1 0 0-.766.383.383 0 0 0 0 .766Z" fill="url(#al)"/><path d="M27.238 46.645a.382.382 0 1 0 0-.765.382.382 0 0 0 0 .765Z" fill="url(#am)"/><path d="M27.238 44.174a.383.383 0 1 0 0-.766.383.383 0 0 0 0 .766Z" fill="url(#an)"/><path d="M29.827 46.645a.382.382 0 1 0 0-.765.382.382 0 0 0 0 .765Z" fill="url(#ao)"/><path d="M29.827 44.174a.382.382 0 1 0 0-.765.382.382 0 0 0 0 .765Z" fill="url(#ap)"/><path d="M32.416 46.645a.382.382 0 1 0 0-.765.382.382 0 0 0 0 .765Z" fill="url(#aq)"/><path d="M32.416 44.174a.382.382 0 1 0 0-.765.382.382 0 0 0 0 .765Z" fill="url(#ar)"/><path d="M34.857 46.645a.382.382 0 1 0 0-.765.382.382 0 0 0 0 .765Z" fill="url(#as)"/><path d="M34.857 44.174a.383.383 0 1 0 0-.766.383.383 0 0 0 0 .766Z" fill="url(#at)"/><path d="M37.564 46.645a.382.382 0 1 0 0-.765.382.382 0 0 0 0 .765Z" fill="url(#au)"/><path d="M37.564 44.174a.383.383 0 1 0 0-.766.383.383 0 0 0 0 .766Z" fill="url(#av)"/><path d="M40.036 46.645a.382.382 0 1 0 0-.765.382.382 0 0 0 0 .765Z" fill="url(#aw)"/><path d="M40.036 44.174a.382.382 0 1 0 0-.765.382.382 0 0 0 0 .765Z" fill="url(#ax)"/><path d="M19.618 41.496a.383.383 0 1 0 0-.765.383.383 0 0 0 0 .765Z" fill="url(#ay)"/><path d="M22.06 41.496a.382.382 0 1 0 0-.765.382.382 0 0 0 0 .765Z" fill="url(#az)"/><path d="M24.649 41.496a.383.383 0 1 0 0-.765.383.383 0 0 0 0 .765Z" fill="url(#aA)"/><path d="M27.238 41.496a.383.383 0 1 0 0-.765.383.383 0 0 0 0 .765Z" fill="url(#aB)"/><path d="M29.827 41.496a.382.382 0 1 0 0-.765.382.382 0 0 0 0 .765Z" fill="url(#aC)"/><path d="M32.416 41.496a.382.382 0 1 0 0-.765.382.382 0 0 0 0 .765Z" fill="url(#aD)"/><path d="M34.857 41.496a.383.383 0 1 0 0-.765.383.383 0 0 0 0 .765Z" fill="url(#aE)"/><path d="M24.649 39.025a.382.382 0 1 0 0-.765.382.382 0 0 0 0 .765Z" fill="url(#aF)"/><path d="M27.238 39.025a.382.382 0 1 0 0-.765.382.382 0 0 0 0 .765Z" fill="url(#aG)"/><path d="M29.827 39.025a.382.382 0 1 0 0-.765.382.382 0 0 0 0 .765Z" fill="url(#aH)"/><path d="M32.416 39.025a.382.382 0 1 0 0-.765.382.382 0 0 0 0 .765Z" fill="url(#aI)"/><path d="M34.857 39.025a.382.382 0 1 0 0-.765.382.382 0 0 0 0 .765Z" fill="url(#aJ)"/><path d="M37.564 41.496a.383.383 0 1 0 0-.765.383.383 0 0 0 0 .765Z" fill="url(#aK)"/><path d="M40.036 41.496a.382.382 0 1 0 0-.765.382.382 0 0 0 0 .765Z" fill="url(#aL)"/><path d="M42.596 46.645a.382.382 0 1 0 0-.765.382.382 0 0 0 0 .765Z" fill="url(#aM)"/><path d="M42.596 44.174a.382.382 0 1 0 0-.765.382.382 0 0 0 0 .765Z" fill="url(#aN)"/><path d="M42.596 62.15a.382.382 0 1 0 0-.765.382.382 0 0 0 0 .765Z" fill="url(#aO)"/><path d="M42.596 64.592a.382.382 0 1 0 0-.765.382.382 0 0 0 0 .765Z" fill="url(#aP)"/><path d="M39.918 62.15a.382.382 0 1 0 0-.765.382.382 0 0 0 0 .765Z" fill="url(#aQ)"/><path d="M39.918 64.592a.382.382 0 1 0 0-.765.382.382 0 0 0 0 .765Z" fill="url(#aR)"/><path d="M37.447 62.15a.382.382 0 1 0 0-.765.382.382 0 0 0 0 .765Z" fill="url(#aS)"/><path d="M37.447 64.592a.382.382 0 1 0 0-.765.382.382 0 0 0 0 .765Z" fill="url(#aT)"/><path d="M34.857 62.15a.382.382 0 1 0 0-.765.382.382 0 0 0 0 .765Z" fill="url(#aU)"/><path d="M34.857 64.592a.383.383 0 1 0 0-.766.383.383 0 0 0 0 .766Z" fill="url(#aV)"/><path d="M32.268 62.15a.382.382 0 1 0 0-.765.382.382 0 0 0 0 .765Z" fill="url(#aW)"/><path d="M32.268 64.592a.383.383 0 1 0 0-.766.383.383 0 0 0 0 .766Z" fill="url(#aX)"/><path d="M29.709 62.15a.382.382 0 1 0 0-.765.382.382 0 0 0 0 .765Z" fill="url(#aY)"/><path d="M29.709 64.592a.383.383 0 1 0 0-.766.383.383 0 0 0 0 .766Z" fill="url(#aZ)"/><path d="M27.238 62.15a.382.382 0 1 0 0-.765.382.382 0 0 0 0 .765Z" fill="url(#ba)"/><path d="M27.238 64.592a.383.383 0 1 0 0-.766.383.383 0 0 0 0 .766Z" fill="url(#bb)"/><path d="M24.649 62.15a.382.382 0 1 0 0-.765.382.382 0 0 0 0 .765Z" fill="url(#bc)"/><path d="M24.649 64.592a.383.383 0 1 0 0-.766.383.383 0 0 0 0 .766Z" fill="url(#bd)"/><path d="M22.06 62.15a.382.382 0 1 0 0-.765.382.382 0 0 0 0 .765Z" fill="url(#be)"/><path d="M22.06 64.592a.382.382 0 1 0 0-.765.382.382 0 0 0 0 .765Z" fill="url(#bf)"/><path d="M19.5 62.15a.382.382 0 1 0 0-.765.382.382 0 0 0 0 .765Z" fill="url(#bg)"/><path d="M19.5 64.592a.382.382 0 1 0 0-.765.382.382 0 0 0 0 .765Z" fill="url(#bh)"/><path d="M39.918 67.299a.382.382 0 1 0 0-.765.382.382 0 0 0 0 .764Z" fill="url(#bi)"/><path d="M37.447 67.299a.382.382 0 1 0 0-.765.382.382 0 0 0 0 .764Z" fill="url(#bj)"/><path d="M34.857 67.299a.383.383 0 1 0 0-.766.383.383 0 0 0 0 .766Z" fill="url(#bk)"/><path d="M32.268 67.299a.383.383 0 1 0 0-.766.383.383 0 0 0 0 .766Z" fill="url(#bl)"/><path d="M29.709 67.299a.383.383 0 1 0 0-.766.383.383 0 0 0 0 .766Z" fill="url(#bm)"/><path d="M27.238 67.299a.383.383 0 1 0 0-.766.383.383 0 0 0 0 .766Z" fill="url(#bn)"/><path d="M24.649 67.299a.383.383 0 1 0 0-.766.383.383 0 0 0 0 .766Z" fill="url(#bo)"/><path d="M34.857 69.77a.382.382 0 1 0 0-.765.382.382 0 0 0 0 .765Z" fill="url(#bp)"/><path d="M32.268 69.77a.382.382 0 1 0 0-.765.382.382 0 0 0 0 .765Z" fill="url(#bq)"/><path d="M29.709 69.77a.382.382 0 1 0 0-.765.382.382 0 0 0 0 .765Z" fill="url(#br)"/><path d="M27.238 69.77a.382.382 0 1 0 0-.765.382.382 0 0 0 0 .765Z" fill="url(#bs)"/><path d="M24.649 69.77a.382.382 0 1 0 0-.765.382.382 0 0 0 0 .765Z" fill="url(#bt)"/><path d="M22.06 67.299a.382.382 0 1 0 0-.765.382.382 0 0 0 0 .764Z" fill="url(#bu)"/><path d="M19.5 67.299a.382.382 0 1 0 0-.765.382.382 0 0 0 0 .764Z" fill="url(#bv)"/><path d="M16.911 62.15a.382.382 0 1 0 0-.765.382.382 0 0 0 0 .765Z" fill="url(#bw)"/><path d="M16.911 64.592a.382.382 0 1 0 0-.765.382.382 0 0 0 0 .765Z" fill="url(#bx)"/><path d="M19.618 49.234a.382.382 0 1 0 0-.765.382.382 0 0 0 0 .765Z" fill="url(#by)"/><path d="M22.06 49.234a.382.382 0 1 0 0-.765.382.382 0 0 0 0 .765Z" fill="url(#bz)"/><path d="M24.649 49.234a.382.382 0 1 0 0-.765.382.382 0 0 0 0 .765Z" fill="url(#bA)"/><path d="M27.238 49.234a.382.382 0 1 0 0-.765.382.382 0 0 0 0 .765Z" fill="url(#bB)"/><path d="M29.827 49.234a.382.382 0 1 0 0-.765.382.382 0 0 0 0 .765Z" fill="url(#bC)"/><path d="M32.416 49.234a.382.382 0 1 0 0-.765.382.382 0 0 0 0 .765Z" fill="url(#bD)"/><path d="M34.857 49.234a.382.382 0 1 0 0-.765.382.382 0 0 0 0 .765Z" fill="url(#bE)"/><path d="M37.564 49.234a.382.382 0 1 0 0-.765.382.382 0 0 0 0 .765Z" fill="url(#bF)"/><path d="M40.036 49.234a.382.382 0 1 0 0-.765.382.382 0 0 0 0 .765Z" fill="url(#bG)"/><path d="M42.596 49.234a.382.382 0 1 0 0-.765.382.382 0 0 0 0 .765Z" fill="url(#bH)"/><path d="M45.185 49.234a.382.382 0 1 0 0-.765.382.382 0 0 0 0 .765Z" fill="url(#bI)"/><path d="M42.36 44.556h-4.795v1.236c2.471.382 2.706 2.942 2.706 2.942v6.649l-6.855-8.738-1.47-2.09h-5.297c.118.118 1.236 1.59 2.707 3.56l6.885 9.092c.735.853 3.942 5.296 4.56 6.267h2.207V46.027c-.03 0 .206-1.471-.648-1.471ZM29.327 54.5v-3.942H26.62v5.531c0 .736 0 1.353.853 1.353h4.56v-1.235c-.97-.118-1.736 0-2.089-.383-.5-.206-.617-.706-.617-1.324Z" fill="#fff"/><path d="M26.002 44.556c-2.471 0-5.031.382-7.267 2.824-2.089 2.325-2.324 5.031-2.324 6.65 0 6.384 4.913 9.355 8.002 9.355h5.65v-2.589h-4.179c-3.677 0-6.149-3.942-6.149-7.002 0-3.06 2.207-5.649 3.678-5.649h5.767l-2.707-3.56c.03-.03-.471-.03-.471-.03Z" fill="#9D9D9D"/><path d="M59.954 63.12c-.383.236-.618.236-.971.236-3.207 0-8.12-3.06-8.12-9.474 0-1.735.235-4.413 2.324-6.766 2.207-2.472 4.796-2.943 7.385-2.943.618 0 1.118 0 1.47.118.972.118 1.737.5 1.737.971 0 .118 0 .235-.118.5l-1.236 4.296h-.735c-.853-3.443-1.589-4.06-3.207-4.06-2.707 0-4.296 3.207-4.296 6.266 0 4.796 2.942 7.62 6.767 7.62 1.471 0 2.207-.235 3.443-.617l.382.617-4.825 3.237Zm14.74-8.384h-.618c-.5-1.471-1.118-1.971-1.971-1.971s-1.353.853-1.471 1.47c0 .236-.118 1.119-.118 1.736v3.207c0 3.325.618 3.443 2.707 3.678v.736h-5.178c-.383 0-1.118-.118-1.118-.971 0-1.236.382-5.532.382-7.267 0-4.178-.235-4.414-2.324-4.678v-.736h4.56c.736 0 .853.383.853 1.236v1.736l1.472-2.59c.235-.382.382-.5.735-.5.5 0 1.471.118 2.59.854.735.382.97.735.97 1.118 0 .382-.382.97-.5 1.353.03 0-.971 1.589-.971 1.589Zm10.945 3.942c.853-1.853 2.471-5.296 2.471-6.767 0-.97-.853-1.118-2.089-1.353v-.736h3.325c.735 0 1.471 0 1.471.854 0 .382-.118.735-.382 1.588-.618 1.736-2.825 6.885-4.796 11.328-.236.618-.618 1.47-.618 2.088 0 .854.618 1.118 2.324 1.472v.617h-4.913c-.618 0-1.118-.117-1.118-.735 0-.236 0-.5.235-.853l2.09-4.296-4.296-9.591c-.618-1.354-1.354-1.854-2.325-1.971v-.736h3.443c1.118 0 1.588 0 1.853.735l3.325 8.356Zm14.151 9.239h-5.03c-.618 0-1.119 0-1.119-1.236 0-.971.383-4.913.383-7.12v-4.296c0-4.178-.236-4.413-2.324-4.678v-.735h4.56c.736 0 .853.382.853.853 0 .383.118.853 0 2.089l1.471-2.471c.236-.383.5-.618 1.471-.618.971 0 2.472.235 3.56 1.118 2.089 1.736 2.089 4.06 2.089 5.03 0 3.825-2.206 7.62-6.649 7.62-.853 0-1.471-.117-2.089-.234 0 3.324.618 3.824 2.707 4.06v.617h.117Zm-.117-15.388c-1.118 0-1.854.618-2.325.971-.117.736-.117 4.413-.117 5.031 0 1.589 0 3.207 2.207 3.207 1.853 0 3.324-1.853 3.324-4.913-.147-3.178-1.853-4.296-3.09-4.296Zm15.005-1.089h-2.589c-.118 3.56 0 6.532.117 7.385.236.971.736 2.09 2.472 2.09.382 0 .735 0 1.118-.118l.117.5-3.442 1.971c-.235.118-.5.235-.735.235-.383 0-2.943-.5-2.943-4.178l.118-7.737c-.853 0-.971.117-1.853.235v-.736c1.118-.617 1.735-.853 1.853-2.589l.118-1.853c.118-.236.382-.5.618-.618l1.736-.853c.117-.118.382-.236.617-.236.501 0 .501.236.501.618 0 .5 0 .618-.118 1.736 0 .853-.118.971-.118 2.59h3.325l-.912 1.559Zm8.238-1.97c3.942 0 6.531 3.206 6.531 7.384 0 3.325-2.089 5.296-3.06 5.767-1.471.853-2.824.853-3.824.853-4.296 0-6.032-4.296-6.032-7.002 0-4.06 2.56-7.003 6.385-7.003Zm.618 12.297c.735 0 1.471-.382 1.971-1.117.235-.383.618-1.119.618-2.59 0-1.235-.618-7.002-3.56-7.002-1.972 0-2.589 1.736-2.589 3.56-.148 2.59.853 7.15 3.56 7.15Zm5.884-17.093h5.413l1.472 2.089 7.002 8.855v-6.767c0-2.47-.236-3.06-2.825-3.442v-.735h4.796c.853 0 .853.735.853 1.353v17.33h-1.353l-4.678-6.032-5.531-6.767-.118 6.767c0 4.56.382 4.913 2.824 5.413v.736h-4.766c-.382 0-1.236 0-1.236-.971 0-.853.383-6.885.383-13.534 0-2.707-.383-2.942-2.324-3.56v-.735h.088Zm27.715 18.182c-.236.383-1.118.5-2.324.5-2.207 0-4.561-1.236-5.649-3.207-.971-1.736-.971-2.942-.971-3.825 0-3.942 2.589-7.002 6.031-7.002 3.943 0 5.531 3.442 5.531 5.914 0 .618 0 1.236-1.118 1.236-.5 0-2.589-.118-3.059-.118l-2.943.118c-.382 0-.971 0-.971.735 0 .736 1.236 3.06 3.825 3.06 1.118 0 2.207 0 3.943-.97l.382.5-2.677 3.06Zm-5.678-6.885c.117 0 .382 0 .97-1.47 1.236 0 1.736.117 2.207.117.383 0 .736 0 2.089-.118-.118-1.118-.118-1.736-.618-2.471-.382-.618-.971-1.118-1.853-1.118-2.59 0-3.06 2.942-3.06 3.942-.089.883 0 1.118.265 1.118Zm23.095 2.354c1.118-2.324 1.589-4.06 1.736-4.295.236-.618.5-1.854.5-2.207 0-.853-.853-1.236-2.324-1.589V49.5h3.207c.736 0 1.471 0 1.471.853 0 1.854-2.089 6.885-4.913 12.916h-1.236l-2.942-7.62-3.236 7.59h-1.236c-2.472-7.12-3.56-9.355-4.56-11.68-.383-.853-.971-1.236-2.089-1.47v-.736h3.677c.736 0 1.236 0 1.589.853l2.707 7.62 3.207-8.473h1.118l3.324 8.973Zm13.652-4.678h-.618c-.5-1.971-1.736-2.707-3.06-2.707a2.017 2.017 0 0 0-2.089 1.854c0 .97.854 1.471 2.089 1.736 2.825.618 3.06.618 3.678.97 1.177.619 1.883 1.854 1.853 3.208 0 .853-.235 3.324-2.824 4.295-.618.236-1.471.5-2.824.5-1.472 0-2.089-.235-2.825-.5-.5-.117-1.853-.735-1.853-1.353 0-.236.117-.5.235-.853l.735-2.207h.618c.5 1.353 1.118 3.207 3.56 3.207.971 0 2.472-.5 2.472-2.207 0-1.353-.971-1.589-2.089-1.853l-2.472-.618c-1.853-.5-2.942-1.589-2.942-3.325 0-2.206 1.589-4.413 5.031-4.413 2.707 0 4.296.736 4.296 1.471 0 .236-.118.5-.236.736l-.735 2.06Zm16.652 8.856c-.117.97-.97.97-1.588.97h-12.799v-1.235c2.825-4.295 8.856-14.151 9.356-15.358-.735 0-1.588-.117-2.324-.117-2.942 0-4.06.235-5.531 3.324h-.853l.853-4.56c.118-.618.382-.853.971-.853h11.562v1.118c-2.089 2.589-8.738 14.622-9.209 15.358.383 0 .854.117 2.207.117 5.296 0 5.914-.735 7.267-4.06h.853l-.765 5.296Z" fill="#08F"/></g><defs><radialGradient id="as" cx="0" cy="0" r="1" gradientUnits="userSpaceOnUse" gradientTransform="matrix(18.9433 0 0 18.9434 30.101 54.378)"><stop stop-color="#fff"/><stop offset="1" stop-color="#fff" stop-opacity=".5"/></radialGradient><radialGradient id="b" cx="0" cy="0" r="1" gradientUnits="userSpaceOnUse" gradientTransform="translate(29.782 54) scale(19.4344)"><stop stop-color="#08F"/><stop offset=".373" stop-color="#0087FD"/><stop offset=".507" stop-color="#0083F6"/><stop offset=".603" stop-color="#007CEB"/><stop offset=".68" stop-color="#0073DA"/><stop offset=".746" stop-color="#0066C4"/><stop offset=".804" stop-color="#0057A9"/><stop offset=".82" stop-color="#0052A0"/><stop offset=".851" stop-color="#004F9A" stop-opacity=".99"/><stop offset=".893" stop-color="#004688" stop-opacity=".98"/><stop offset=".942" stop-color="#00386B" stop-opacity=".966"/><stop offset=".996" stop-color="#002444" stop-opacity=".95"/><stop offset="1" stop-color="#002240" stop-opacity=".95"/></radialGradient><radialGradient id="d" cx="0" cy="0" r="1" gradientUnits="userSpaceOnUse" gradientTransform="matrix(18.9416 0 0 18.9414 30.101 54.378)"><stop stop-color="#fff"/><stop offset="1" stop-color="#fff" stop-opacity=".5"/></radialGradient><radialGradient id="e" cx="0" cy="0" r="1" gradientUnits="userSpaceOnUse" gradientTransform="matrix(18.9416 0 0 18.9414 30.1 54.378)"><stop stop-color="#fff"/><stop offset="1" stop-color="#fff" stop-opacity=".5"/></radialGradient><radialGradient id="f" cx="0" cy="0" r="1" gradientUnits="userSpaceOnUse" gradientTransform="matrix(18.941 0 0 18.9408 30.102 54.378)"><stop stop-color="#fff"/><stop offset="1" stop-color="#fff" stop-opacity=".5"/></radialGradient><radialGradient id="g" cx="0" cy="0" r="1" gradientUnits="userSpaceOnUse" gradientTransform="matrix(18.9439 0 0 18.9437 30.102 54.378)"><stop stop-color="#fff"/><stop offset="1" stop-color="#fff" stop-opacity=".5"/></radialGradient><radialGradient id="h" cx="0" cy="0" r="1" gradientUnits="userSpaceOnUse" gradientTransform="matrix(18.9416 0 0 18.9414 30.101 54.378)"><stop stop-color="#fff"/><stop offset="1" stop-color="#fff" stop-opacity=".5"/></radialGradient><radialGradient id="i" cx="0" cy="0" r="1" gradientUnits="userSpaceOnUse" gradientTransform="matrix(18.941 0 0 18.9408 30.101 54.378)"><stop stop-color="#fff"/><stop offset="1" stop-color="#fff" stop-opacity=".5"/></radialGradient><radialGradient id="j" cx="0" cy="0" r="1" gradientUnits="userSpaceOnUse" gradientTransform="matrix(18.941 0 0 18.9408 30.102 54.378)"><stop stop-color="#fff"/><stop offset="1" stop-color="#fff" stop-opacity=".5"/></radialGradient><radialGradient id="k" cx="0" cy="0" r="1" gradientUnits="userSpaceOnUse" gradientTransform="matrix(18.941 0 0 18.9408 30.101 54.378)"><stop stop-color="#fff"/><stop offset="1" stop-color="#fff" stop-opacity=".5"/></radialGradient><radialGradient id="l" cx="0" cy="0" r="1" gradientUnits="userSpaceOnUse" gradientTransform="matrix(18.941 0 0 18.9408 30.102 54.378)"><stop stop-color="#fff"/><stop offset="1" stop-color="#fff" stop-opacity=".5"/></radialGradient><radialGradient id="m" cx="0" cy="0" r="1" gradientUnits="userSpaceOnUse" gradientTransform="matrix(18.9439 0 0 18.9437 30.1 54.378)"><stop stop-color="#fff"/><stop offset="1" stop-color="#fff" stop-opacity=".5"/></radialGradient><radialGradient id="n" cx="0" cy="0" r="1" gradientUnits="userSpaceOnUse" gradientTransform="matrix(18.941 0 0 18.9408 30.102 54.378)"><stop stop-color="#fff"/><stop offset="1" stop-color="#fff" stop-opacity=".5"/></radialGradient><radialGradient id="o" cx="0" cy="0" r="1" gradientUnits="userSpaceOnUse" gradientTransform="matrix(18.9445 0 0 18.9443 30.1 54.378)"><stop stop-color="#fff"/><stop offset="1" stop-color="#fff" stop-opacity=".5"/></radialGradient><radialGradient id="p" cx="0" cy="0" r="1" gradientUnits="userSpaceOnUse" gradientTransform="matrix(18.941 0 0 18.9411 30.1 54.378)"><stop stop-color="#fff"/><stop offset="1" stop-color="#fff" stop-opacity=".5"/></radialGradient><radialGradient id="q" cx="0" cy="0" r="1" gradientUnits="userSpaceOnUse" gradientTransform="translate(30.101 54.378) scale(18.9416)"><stop stop-color="#fff"/><stop offset="1" stop-color="#fff" stop-opacity=".5"/></radialGradient><radialGradient id="r" cx="0" cy="0" r="1" gradientUnits="userSpaceOnUse" gradientTransform="translate(30.1 54.378) scale(18.9416)"><stop stop-color="#fff"/><stop offset="1" stop-color="#fff" stop-opacity=".5"/></radialGradient><radialGradient id="s" cx="0" cy="0" r="1" gradientUnits="userSpaceOnUse" gradientTransform="matrix(18.941 0 0 18.9411 30.102 54.378)"><stop stop-color="#fff"/><stop offset="1" stop-color="#fff" stop-opacity=".5"/></radialGradient><radialGradient id="t" cx="0" cy="0" r="1" gradientUnits="userSpaceOnUse" gradientTransform="matrix(18.9433 0 0 18.9434 30.102 54.378)"><stop stop-color="#fff"/><stop offset="1" stop-color="#fff" stop-opacity=".5"/></radialGradient><radialGradient id="u" cx="0" cy="0" r="1" gradientUnits="userSpaceOnUse" gradientTransform="translate(30.101 54.378) scale(18.9416)"><stop stop-color="#fff"/><stop offset="1" stop-color="#fff" stop-opacity=".5"/></radialGradient><radialGradient id="v" cx="0" cy="0" r="1" gradientUnits="userSpaceOnUse" gradientTransform="matrix(18.941 0 0 18.9411 30.101 54.378)"><stop stop-color="#fff"/><stop offset="1" stop-color="#fff" stop-opacity=".5"/></radialGradient><radialGradient id="w" cx="0" cy="0" r="1" gradientUnits="userSpaceOnUse" gradientTransform="matrix(18.941 0 0 18.9411 30.102 54.378)"><stop stop-color="#fff"/><stop offset="1" stop-color="#fff" stop-opacity=".5"/></radialGradient><radialGradient id="x" cx="0" cy="0" r="1" gradientUnits="userSpaceOnUse" gradientTransform="matrix(18.941 0 0 18.9411 30.101 54.378)"><stop stop-color="#fff"/><stop offset="1" stop-color="#fff" stop-opacity=".5"/></radialGradient><radialGradient id="y" cx="0" cy="0" r="1" gradientUnits="userSpaceOnUse" gradientTransform="matrix(18.941 0 0 18.9411 30.102 54.378)"><stop stop-color="#fff"/><stop offset="1" stop-color="#fff" stop-opacity=".5"/></radialGradient><radialGradient id="z" cx="0" cy="0" r="1" gradientUnits="userSpaceOnUse" gradientTransform="translate(30.1 54.378) scale(18.9439)"><stop stop-color="#fff"/><stop offset="1" stop-color="#fff" stop-opacity=".5"/></radialGradient><radialGradient id="A" cx="0" cy="0" r="1" gradientUnits="userSpaceOnUse" gradientTransform="translate(30.102 54.378) scale(18.9416)"><stop stop-color="#fff"/><stop offset="1" stop-color="#fff" stop-opacity=".5"/></radialGradient><radialGradient id="B" cx="0" cy="0" r="1" gradientUnits="userSpaceOnUse" gradientTransform="translate(30.1 54.378) scale(18.9439)"><stop stop-color="#fff"/><stop offset="1" stop-color="#fff" stop-opacity=".5"/></radialGradient><radialGradient id="C" cx="0" cy="0" r="1" gradientUnits="userSpaceOnUse" gradientTransform="translate(30.1 54.377) scale(18.9416)"><stop stop-color="#fff"/><stop offset="1" stop-color="#fff" stop-opacity=".5"/></radialGradient><radialGradient id="D" cx="0" cy="0" r="1" gradientUnits="userSpaceOnUse" gradientTransform="translate(30.101 54.377) scale(18.9416)"><stop stop-color="#fff"/><stop offset="1" stop-color="#fff" stop-opacity=".5"/></radialGradient><radialGradient id="E" cx="0" cy="0" r="1" gradientUnits="userSpaceOnUse" gradientTransform="translate(30.1 54.377) scale(18.9422)"><stop stop-color="#fff"/><stop offset="1" stop-color="#fff" stop-opacity=".5"/></radialGradient><radialGradient id="F" cx="0" cy="0" r="1" gradientUnits="userSpaceOnUse" gradientTransform="translate(30.102 54.377) scale(18.9422)"><stop stop-color="#fff"/><stop offset="1" stop-color="#fff" stop-opacity=".5"/></radialGradient><radialGradient id="G" cx="0" cy="0" r="1" gradientUnits="userSpaceOnUse" gradientTransform="translate(30.102 54.377) scale(18.9439)"><stop stop-color="#fff"/><stop offset="1" stop-color="#fff" stop-opacity=".5"/></radialGradient><radialGradient id="H" cx="0" cy="0" r="1" gradientUnits="userSpaceOnUse" gradientTransform="translate(30.101 54.377) scale(18.9439)"><stop stop-color="#fff"/><stop offset="1" stop-color="#fff" stop-opacity=".5"/></radialGradient><radialGradient id="I" cx="0" cy="0" r="1" gradientUnits="userSpaceOnUse" gradientTransform="translate(30.101 54.377) scale(18.9439)"><stop stop-color="#fff"/><stop offset="1" stop-color="#fff" stop-opacity=".5"/></radialGradient><radialGradient id="J" cx="0" cy="0" r="1" gradientUnits="userSpaceOnUse" gradientTransform="matrix(18.9433 0 0 18.9434 30.102 54.377)"><stop stop-color="#fff"/><stop offset="1" stop-color="#fff" stop-opacity=".5"/></radialGradient><radialGradient id="K" cx="0" cy="0" r="1" gradientUnits="userSpaceOnUse" gradientTransform="translate(30.101 54.377) scale(18.9428)"><stop stop-color="#fff"/><stop offset="1" stop-color="#fff" stop-opacity=".5"/></radialGradient><radialGradient id="L" cx="0" cy="0" r="1" gradientUnits="userSpaceOnUse" gradientTransform="translate(30.102 54.377) scale(18.9422)"><stop stop-color="#fff"/><stop offset="1" stop-color="#fff" stop-opacity=".5"/></radialGradient><radialGradient id="M" cx="0" cy="0" r="1" gradientUnits="userSpaceOnUse" gradientTransform="translate(30.1 54.377) scale(18.9445)"><stop stop-color="#fff"/><stop offset="1" stop-color="#fff" stop-opacity=".5"/></radialGradient><radialGradient id="N" cx="0" cy="0" r="1" gradientUnits="userSpaceOnUse" gradientTransform="translate(30.102 54.377) scale(18.9416)"><stop stop-color="#fff"/><stop offset="1" stop-color="#fff" stop-opacity=".5"/></radialGradient><radialGradient id="O" cx="0" cy="0" r="1" gradientUnits="userSpaceOnUse" gradientTransform="translate(30.1 54.377) scale(18.9439)"><stop stop-color="#fff"/><stop offset="1" stop-color="#fff" stop-opacity=".5"/></radialGradient><radialGradient id="P" cx="0" cy="0" r="1" gradientUnits="userSpaceOnUse" gradientTransform="matrix(18.941 0 0 18.9411 30.1 54.378)"><stop stop-color="#fff"/><stop offset="1" stop-color="#fff" stop-opacity=".5"/></radialGradient><radialGradient id="Q" cx="0" cy="0" r="1" gradientUnits="userSpaceOnUse" gradientTransform="translate(30.101 54.378) scale(18.9416)"><stop stop-color="#fff"/><stop offset="1" stop-color="#fff" stop-opacity=".5"/></radialGradient><radialGradient id="R" cx="0" cy="0" r="1" gradientUnits="userSpaceOnUse" gradientTransform="translate(30.1 54.378) scale(18.9416)"><stop stop-color="#fff"/><stop offset="1" stop-color="#fff" stop-opacity=".5"/></radialGradient><radialGradient id="S" cx="0" cy="0" r="1" gradientUnits="userSpaceOnUse" gradientTransform="matrix(18.941 0 0 18.9411 30.102 54.378)"><stop stop-color="#fff"/><stop offset="1" stop-color="#fff" stop-opacity=".5"/></radialGradient><radialGradient id="T" cx="0" cy="0" r="1" gradientUnits="userSpaceOnUse" gradientTransform="matrix(18.9433 0 0 18.9434 30.102 54.378)"><stop stop-color="#fff"/><stop offset="1" stop-color="#fff" stop-opacity=".5"/></radialGradient><radialGradient id="U" cx="0" cy="0" r="1" gradientUnits="userSpaceOnUse" gradientTransform="matrix(18.941 0 0 18.9411 30.101 54.378)"><stop stop-color="#fff"/><stop offset="1" stop-color="#fff" stop-opacity=".5"/></radialGradient><radialGradient id="V" cx="0" cy="0" r="1" gradientUnits="userSpaceOnUse" gradientTransform="matrix(18.941 0 0 18.9411 30.101 54.378)"><stop stop-color="#fff"/><stop offset="1" stop-color="#fff" stop-opacity=".5"/></radialGradient><radialGradient id="W" cx="0" cy="0" r="1" gradientUnits="userSpaceOnUse" gradientTransform="matrix(18.941 0 0 18.9411 30.102 54.378)"><stop stop-color="#fff"/><stop offset="1" stop-color="#fff" stop-opacity=".5"/></radialGradient><radialGradient id="X" cx="0" cy="0" r="1" gradientUnits="userSpaceOnUse" gradientTransform="matrix(18.941 0 0 18.9411 30.101 54.378)"><stop stop-color="#fff"/><stop offset="1" stop-color="#fff" stop-opacity=".5"/></radialGradient><radialGradient id="Y" cx="0" cy="0" r="1" gradientUnits="userSpaceOnUse" gradientTransform="matrix(18.941 0 0 18.9411 30.102 54.378)"><stop stop-color="#fff"/><stop offset="1" stop-color="#fff" stop-opacity=".5"/></radialGradient><radialGradient id="Z" cx="0" cy="0" r="1" gradientUnits="userSpaceOnUse" gradientTransform="translate(30.1 54.378) scale(18.9439)"><stop stop-color="#fff"/><stop offset="1" stop-color="#fff" stop-opacity=".5"/></radialGradient><radialGradient id="aa" cx="0" cy="0" r="1" gradientUnits="userSpaceOnUse" gradientTransform="translate(30.102 54.378) scale(18.9416)"><stop stop-color="#fff"/><stop offset="1" stop-color="#fff" stop-opacity=".5"/></radialGradient><radialGradient id="ab" cx="0" cy="0" r="1" gradientUnits="userSpaceOnUse" gradientTransform="translate(30.1 54.378) scale(18.9439)"><stop stop-color="#fff"/><stop offset="1" stop-color="#fff" stop-opacity=".5"/></radialGradient><radialGradient id="ac" cx="0" cy="0" r="1" gradientUnits="userSpaceOnUse" gradientTransform="matrix(18.941 0 0 18.9408 30.1 54.378)"><stop stop-color="#fff"/><stop offset="1" stop-color="#fff" stop-opacity=".5"/></radialGradient><radialGradient id="ad" cx="0" cy="0" r="1" gradientUnits="userSpaceOnUse" gradientTransform="matrix(18.9416 0 0 18.9414 30.101 54.378)"><stop stop-color="#fff"/><stop offset="1" stop-color="#fff" stop-opacity=".5"/></radialGradient><radialGradient id="ae" cx="0" cy="0" r="1" gradientUnits="userSpaceOnUse" gradientTransform="translate(30.101 54.378) scale(18.9422)"><stop stop-color="#fff"/><stop offset="1" stop-color="#fff" stop-opacity=".5"/></radialGradient><radialGradient id="af" cx="0" cy="0" r="1" gradientUnits="userSpaceOnUse" gradientTransform="translate(30.101 54.38) scale(18.9422)"><stop stop-color="#fff"/><stop offset="1" stop-color="#fff" stop-opacity=".5"/></radialGradient><radialGradient id="ag" cx="0" cy="0" r="1" gradientUnits="userSpaceOnUse" gradientTransform="translate(30.1 54.378) scale(18.9422)"><stop stop-color="#fff"/><stop offset="1" stop-color="#fff" stop-opacity=".5"/></radialGradient><radialGradient id="ah" cx="0" cy="0" r="1" gradientUnits="userSpaceOnUse" gradientTransform="translate(30.1 54.38) scale(18.9428)"><stop stop-color="#fff"/><stop offset="1" stop-color="#fff" stop-opacity=".5"/></radialGradient><radialGradient id="ai" cx="0" cy="0" r="1" gradientUnits="userSpaceOnUse" gradientTransform="translate(30.102 54.378) scale(18.9428)"><stop stop-color="#fff"/><stop offset="1" stop-color="#fff" stop-opacity=".5"/></radialGradient><radialGradient id="aj" cx="0" cy="0" r="1" gradientUnits="userSpaceOnUse" gradientTransform="matrix(18.9433 0 0 18.9434 30.102 54.38)"><stop stop-color="#fff"/><stop offset="1" stop-color="#fff" stop-opacity=".5"/></radialGradient><radialGradient id="ak" cx="0" cy="0" r="1" gradientUnits="userSpaceOnUse" gradientTransform="matrix(18.9433 0 0 18.9434 30.101 54.378)"><stop stop-color="#fff"/><stop offset="1" stop-color="#fff" stop-opacity=".5"/></radialGradient><radialGradient id="al" cx="0" cy="0" r="1" gradientUnits="userSpaceOnUse" gradientTransform="translate(30.101 54.38) scale(18.9439)"><stop stop-color="#fff"/><stop offset="1" stop-color="#fff" stop-opacity=".5"/></radialGradient><radialGradient id="am" cx="0" cy="0" r="1" gradientUnits="userSpaceOnUse" gradientTransform="translate(30.101 54.378) scale(18.9439)"><stop stop-color="#fff"/><stop offset="1" stop-color="#fff" stop-opacity=".5"/></radialGradient><radialGradient id="an" cx="0" cy="0" r="1" gradientUnits="userSpaceOnUse" gradientTransform="translate(30.101 54.38) scale(18.9439)"><stop stop-color="#fff"/><stop offset="1" stop-color="#fff" stop-opacity=".5"/></radialGradient><radialGradient id="ao" cx="0" cy="0" r="1" gradientUnits="userSpaceOnUse" gradientTransform="translate(30.101 54.378) scale(18.9439)"><stop stop-color="#fff"/><stop offset="1" stop-color="#fff" stop-opacity=".5"/></radialGradient><radialGradient id="ap" cx="0" cy="0" r="1" gradientUnits="userSpaceOnUse" gradientTransform="translate(30.101 54.38) scale(18.9445)"><stop stop-color="#fff"/><stop offset="1" stop-color="#fff" stop-opacity=".5"/></radialGradient><radialGradient id="aq" cx="0" cy="0" r="1" gradientUnits="userSpaceOnUse" gradientTransform="translate(30.102 54.378) scale(18.9439)"><stop stop-color="#fff"/><stop offset="1" stop-color="#fff" stop-opacity=".5"/></radialGradient><radialGradient id="ar" cx="0" cy="0" r="1" gradientUnits="userSpaceOnUse" gradientTransform="translate(30.102 54.38) scale(18.9439)"><stop stop-color="#fff"/><stop offset="1" stop-color="#fff" stop-opacity=".5"/></radialGradient><radialGradient id="c" cx="0" cy="0" r="1" gradientUnits="userSpaceOnUse" gradientTransform="matrix(18.941 0 0 18.9408 30.1 54.378)"><stop stop-color="#fff"/><stop offset="1" stop-color="#fff" stop-opacity=".5"/></radialGradient><radialGradient id="at" cx="0" cy="0" r="1" gradientUnits="userSpaceOnUse" gradientTransform="translate(30.101 54.38) scale(18.9439)"><stop stop-color="#fff"/><stop offset="1" stop-color="#fff" stop-opacity=".5"/></radialGradient><radialGradient id="au" cx="0" cy="0" r="1" gradientUnits="userSpaceOnUse" gradientTransform="translate(30.102 54.378) scale(18.9428)"><stop stop-color="#fff"/><stop offset="1" stop-color="#fff" stop-opacity=".5"/></radialGradient><radialGradient id="av" cx="0" cy="0" r="1" gradientUnits="userSpaceOnUse" gradientTransform="matrix(18.9433 0 0 18.9434 30.102 54.38)"><stop stop-color="#fff"/><stop offset="1" stop-color="#fff" stop-opacity=".5"/></radialGradient><radialGradient id="aw" cx="0" cy="0" r="1" gradientUnits="userSpaceOnUse" gradientTransform="translate(30.102 54.378) scale(18.9422)"><stop stop-color="#fff"/><stop offset="1" stop-color="#fff" stop-opacity=".5"/></radialGradient><radialGradient id="ax" cx="0" cy="0" r="1" gradientUnits="userSpaceOnUse" gradientTransform="matrix(18.9427 0 0 18.9428 30.102 54.38)"><stop stop-color="#fff"/><stop offset="1" stop-color="#fff" stop-opacity=".5"/></radialGradient><radialGradient id="ay" cx="0" cy="0" r="1" gradientUnits="userSpaceOnUse" gradientTransform="matrix(18.941 0 0 18.9411 30.1 54.377)"><stop stop-color="#fff"/><stop offset="1" stop-color="#fff" stop-opacity=".5"/></radialGradient><radialGradient id="az" cx="0" cy="0" r="1" gradientUnits="userSpaceOnUse" gradientTransform="matrix(18.941 0 0 18.9411 30.102 54.377)"><stop stop-color="#fff"/><stop offset="1" stop-color="#fff" stop-opacity=".5"/></radialGradient><radialGradient id="aA" cx="0" cy="0" r="1" gradientUnits="userSpaceOnUse" gradientTransform="translate(30.101 54.377) scale(18.9416)"><stop stop-color="#fff"/><stop offset="1" stop-color="#fff" stop-opacity=".5"/></radialGradient><radialGradient id="aB" cx="0" cy="0" r="1" gradientUnits="userSpaceOnUse" gradientTransform="translate(30.101 54.377) scale(18.9416)"><stop stop-color="#fff"/><stop offset="1" stop-color="#fff" stop-opacity=".5"/></radialGradient><radialGradient id="aC" cx="0" cy="0" r="1" gradientUnits="userSpaceOnUse" gradientTransform="matrix(18.941 0 0 18.9411 30.101 54.377)"><stop stop-color="#fff"/><stop offset="1" stop-color="#fff" stop-opacity=".5"/></radialGradient><radialGradient id="aD" cx="0" cy="0" r="1" gradientUnits="userSpaceOnUse" gradientTransform="matrix(18.941 0 0 18.9411 30.102 54.377)"><stop stop-color="#fff"/><stop offset="1" stop-color="#fff" stop-opacity=".5"/></radialGradient><radialGradient id="aE" cx="0" cy="0" r="1" gradientUnits="userSpaceOnUse" gradientTransform="translate(30.101 54.377) scale(18.9416)"><stop stop-color="#fff"/><stop offset="1" stop-color="#fff" stop-opacity=".5"/></radialGradient><radialGradient id="aF" cx="0" cy="0" r="1" gradientUnits="userSpaceOnUse" gradientTransform="matrix(18.941 0 0 18.9411 30.101 54.377)"><stop stop-color="#fff"/><stop offset="1" stop-color="#fff" stop-opacity=".5"/></radialGradient><radialGradient id="aG" cx="0" cy="0" r="1" gradientUnits="userSpaceOnUse" gradientTransform="matrix(18.941 0 0 18.9411 30.101 54.377)"><stop stop-color="#fff"/><stop offset="1" stop-color="#fff" stop-opacity=".5"/></radialGradient><radialGradient id="aH" cx="0" cy="0" r="1" gradientUnits="userSpaceOnUse" gradientTransform="translate(30.101 54.377) scale(18.9416)"><stop stop-color="#fff"/><stop offset="1" stop-color="#fff" stop-opacity=".5"/></radialGradient><radialGradient id="aI" cx="0" cy="0" r="1" gradientUnits="userSpaceOnUse" gradientTransform="matrix(18.941 0 0 18.9411 30.102 54.377)"><stop stop-color="#fff"/><stop offset="1" stop-color="#fff" stop-opacity=".5"/></radialGradient><radialGradient id="aJ" cx="0" cy="0" r="1" gradientUnits="userSpaceOnUse" gradientTransform="matrix(18.941 0 0 18.9411 30.101 54.377)"><stop stop-color="#fff"/><stop offset="1" stop-color="#fff" stop-opacity=".5"/></radialGradient><radialGradient id="aK" cx="0" cy="0" r="1" gradientUnits="userSpaceOnUse" gradientTransform="translate(30.102 54.377) scale(18.9416)"><stop stop-color="#fff"/><stop offset="1" stop-color="#fff" stop-opacity=".5"/></radialGradient><radialGradient id="aL" cx="0" cy="0" r="1" gradientUnits="userSpaceOnUse" gradientTransform="translate(30.102 54.377) scale(18.9416)"><stop stop-color="#fff"/><stop offset="1" stop-color="#fff" stop-opacity=".5"/></radialGradient><radialGradient id="aM" cx="0" cy="0" r="1" gradientUnits="userSpaceOnUse" gradientTransform="translate(30.1 54.378) scale(18.9439)"><stop stop-color="#fff"/><stop offset="1" stop-color="#fff" stop-opacity=".5"/></radialGradient><radialGradient id="aN" cx="0" cy="0" r="1" gradientUnits="userSpaceOnUse" gradientTransform="translate(30.1 54.38) scale(18.9439)"><stop stop-color="#fff"/><stop offset="1" stop-color="#fff" stop-opacity=".5"/></radialGradient><radialGradient id="aO" cx="0" cy="0" r="1" gradientUnits="userSpaceOnUse" gradientTransform="translate(30.102 54.378) scale(18.9416)"><stop stop-color="#fff"/><stop offset="1" stop-color="#fff" stop-opacity=".5"/></radialGradient><radialGradient id="aP" cx="0" cy="0" r="1" gradientUnits="userSpaceOnUse" gradientTransform="matrix(18.941 0 0 18.9411 30.102 54.378)"><stop stop-color="#fff"/><stop offset="1" stop-color="#fff" stop-opacity=".5"/></radialGradient><radialGradient id="aQ" cx="0" cy="0" r="1" gradientUnits="userSpaceOnUse" gradientTransform="matrix(18.9433 0 0 18.9434 30.1 54.378)"><stop stop-color="#fff"/><stop offset="1" stop-color="#fff" stop-opacity=".5"/></radialGradient><radialGradient id="aR" cx="0" cy="0" r="1" gradientUnits="userSpaceOnUse" gradientTransform="translate(30.1 54.378) scale(18.9428)"><stop stop-color="#fff"/><stop offset="1" stop-color="#fff" stop-opacity=".5"/></radialGradient><radialGradient id="aS" cx="0" cy="0" r="1" gradientUnits="userSpaceOnUse" gradientTransform="matrix(18.941 0 0 18.9411 30.102 54.378)"><stop stop-color="#fff"/><stop offset="1" stop-color="#fff" stop-opacity=".5"/></radialGradient><radialGradient id="aT" cx="0" cy="0" r="1" gradientUnits="userSpaceOnUse" gradientTransform="matrix(18.941 0 0 18.9411 30.102 54.378)"><stop stop-color="#fff"/><stop offset="1" stop-color="#fff" stop-opacity=".5"/></radialGradient><radialGradient id="aU" cx="0" cy="0" r="1" gradientUnits="userSpaceOnUse" gradientTransform="translate(30.1 54.378) scale(18.9422)"><stop stop-color="#fff"/><stop offset="1" stop-color="#fff" stop-opacity=".5"/></radialGradient><radialGradient id="aV" cx="0" cy="0" r="1" gradientUnits="userSpaceOnUse" gradientTransform="translate(30.1 54.378) scale(18.9422)"><stop stop-color="#fff"/><stop offset="1" stop-color="#fff" stop-opacity=".5"/></radialGradient><radialGradient id="aW" cx="0" cy="0" r="1" gradientUnits="userSpaceOnUse" gradientTransform="matrix(18.941 0 0 18.9411 30.102 54.378)"><stop stop-color="#fff"/><stop offset="1" stop-color="#fff" stop-opacity=".5"/></radialGradient><radialGradient id="aX" cx="0" cy="0" r="1" gradientUnits="userSpaceOnUse" gradientTransform="translate(30.102 54.378) scale(18.9416)"><stop stop-color="#fff"/><stop offset="1" stop-color="#fff" stop-opacity=".5"/></radialGradient><radialGradient id="aY" cx="0" cy="0" r="1" gradientUnits="userSpaceOnUse" gradientTransform="matrix(18.941 0 0 18.9411 30.101 54.378)"><stop stop-color="#fff"/><stop offset="1" stop-color="#fff" stop-opacity=".5"/></radialGradient><radialGradient id="aZ" cx="0" cy="0" r="1" gradientUnits="userSpaceOnUse" gradientTransform="matrix(18.941 0 0 18.9411 30.101 54.378)"><stop stop-color="#fff"/><stop offset="1" stop-color="#fff" stop-opacity=".5"/></radialGradient><radialGradient id="ba" cx="0" cy="0" r="1" gradientUnits="userSpaceOnUse" gradientTransform="matrix(18.941 0 0 18.9411 30.101 54.378)"><stop stop-color="#fff"/><stop offset="1" stop-color="#fff" stop-opacity=".5"/></radialGradient><radialGradient id="bb" cx="0" cy="0" r="1" gradientUnits="userSpaceOnUse" gradientTransform="translate(30.101 54.378) scale(18.9416)"><stop stop-color="#fff"/><stop offset="1" stop-color="#fff" stop-opacity=".5"/></radialGradient><radialGradient id="bc" cx="0" cy="0" r="1" gradientUnits="userSpaceOnUse" gradientTransform="matrix(18.941 0 0 18.9411 30.101 54.378)"><stop stop-color="#fff"/><stop offset="1" stop-color="#fff" stop-opacity=".5"/></radialGradient><radialGradient id="bd" cx="0" cy="0" r="1" gradientUnits="userSpaceOnUse" gradientTransform="matrix(18.941 0 0 18.9411 30.101 54.378)"><stop stop-color="#fff"/><stop offset="1" stop-color="#fff" stop-opacity=".5"/></radialGradient><radialGradient id="be" cx="0" cy="0" r="1" gradientUnits="userSpaceOnUse" gradientTransform="translate(30.102 54.378) scale(18.9416)"><stop stop-color="#fff"/><stop offset="1" stop-color="#fff" stop-opacity=".5"/></radialGradient><radialGradient id="bf" cx="0" cy="0" r="1" gradientUnits="userSpaceOnUse" gradientTransform="translate(30.102 54.378) scale(18.9416)"><stop stop-color="#fff"/><stop offset="1" stop-color="#fff" stop-opacity=".5"/></radialGradient><radialGradient id="bg" cx="0" cy="0" r="1" gradientUnits="userSpaceOnUse" gradientTransform="matrix(18.941 0 0 18.9411 30.101 54.378)"><stop stop-color="#fff"/><stop offset="1" stop-color="#fff" stop-opacity=".5"/></radialGradient><radialGradient id="bh" cx="0" cy="0" r="1" gradientUnits="userSpaceOnUse" gradientTransform="translate(30.101 54.378) scale(18.9416)"><stop stop-color="#fff"/><stop offset="1" stop-color="#fff" stop-opacity=".5"/></radialGradient><radialGradient id="bi" cx="0" cy="0" r="1" gradientUnits="userSpaceOnUse" gradientTransform="translate(30.1 54.376) scale(18.9439)"><stop stop-color="#fff"/><stop offset="1" stop-color="#fff" stop-opacity=".5"/></radialGradient><radialGradient id="bj" cx="0" cy="0" r="1" gradientUnits="userSpaceOnUse" gradientTransform="matrix(18.9433 0 0 18.9434 30.102 54.376)"><stop stop-color="#fff"/><stop offset="1" stop-color="#fff" stop-opacity=".5"/></radialGradient><radialGradient id="bk" cx="0" cy="0" r="1" gradientUnits="userSpaceOnUse" gradientTransform="translate(30.1 54.376) scale(18.9445)"><stop stop-color="#fff"/><stop offset="1" stop-color="#fff" stop-opacity=".5"/></radialGradient><radialGradient id="bl" cx="0" cy="0" r="1" gradientUnits="userSpaceOnUse" gradientTransform="translate(30.102 54.376) scale(18.9439)"><stop stop-color="#fff"/><stop offset="1" stop-color="#fff" stop-opacity=".5"/></radialGradient><radialGradient id="bm" cx="0" cy="0" r="1" gradientUnits="userSpaceOnUse" gradientTransform="translate(30.101 54.376) scale(18.9445)"><stop stop-color="#fff"/><stop offset="1" stop-color="#fff" stop-opacity=".5"/></radialGradient><radialGradient id="bn" cx="0" cy="0" r="1" gradientUnits="userSpaceOnUse" gradientTransform="translate(30.101 54.376) scale(18.9439)"><stop stop-color="#fff"/><stop offset="1" stop-color="#fff" stop-opacity=".5"/></radialGradient><radialGradient id="bo" cx="0" cy="0" r="1" gradientUnits="userSpaceOnUse" gradientTransform="translate(30.101 54.376) scale(18.9439)"><stop stop-color="#fff"/><stop offset="1" stop-color="#fff" stop-opacity=".5"/></radialGradient><radialGradient id="bp" cx="0" cy="0" r="1" gradientUnits="userSpaceOnUse" gradientTransform="translate(30.1 54.376) scale(18.9445)"><stop stop-color="#fff"/><stop offset="1" stop-color="#fff" stop-opacity=".5"/></radialGradient><radialGradient id="bq" cx="0" cy="0" r="1" gradientUnits="userSpaceOnUse" gradientTransform="translate(30.102 54.376) scale(18.9439)"><stop stop-color="#fff"/><stop offset="1" stop-color="#fff" stop-opacity=".5"/></radialGradient><radialGradient id="br" cx="0" cy="0" r="1" gradientUnits="userSpaceOnUse" gradientTransform="translate(30.101 54.376) scale(18.9439)"><stop stop-color="#fff"/><stop offset="1" stop-color="#fff" stop-opacity=".5"/></radialGradient><radialGradient id="bs" cx="0" cy="0" r="1" gradientUnits="userSpaceOnUse" gradientTransform="translate(30.101 54.376) scale(18.9439)"><stop stop-color="#fff"/><stop offset="1" stop-color="#fff" stop-opacity=".5"/></radialGradient><radialGradient id="bt" cx="0" cy="0" r="1" gradientUnits="userSpaceOnUse" gradientTransform="translate(30.101 54.376) scale(18.9439)"><stop stop-color="#fff"/><stop offset="1" stop-color="#fff" stop-opacity=".5"/></radialGradient><radialGradient id="bu" cx="0" cy="0" r="1" gradientUnits="userSpaceOnUse" gradientTransform="matrix(18.9433 0 0 18.9434 30.102 54.376)"><stop stop-color="#fff"/><stop offset="1" stop-color="#fff" stop-opacity=".5"/></radialGradient><radialGradient id="bv" cx="0" cy="0" r="1" gradientUnits="userSpaceOnUse" gradientTransform="matrix(18.9433 0 0 18.9434 30.101 54.376)"><stop stop-color="#fff"/><stop offset="1" stop-color="#fff" stop-opacity=".5"/></radialGradient><radialGradient id="bw" cx="0" cy="0" r="1" gradientUnits="userSpaceOnUse" gradientTransform="translate(30.101 54.378) scale(18.9416)"><stop stop-color="#fff"/><stop offset="1" stop-color="#fff" stop-opacity=".5"/></radialGradient><radialGradient id="bx" cx="0" cy="0" r="1" gradientUnits="userSpaceOnUse" gradientTransform="translate(30.101 54.378) scale(18.9416)"><stop stop-color="#fff"/><stop offset="1" stop-color="#fff" stop-opacity=".5"/></radialGradient><radialGradient id="by" cx="0" cy="0" r="1" gradientUnits="userSpaceOnUse" gradientTransform="matrix(18.941 0 0 18.9408 30.1 54.378)"><stop stop-color="#fff"/><stop offset="1" stop-color="#fff" stop-opacity=".5"/></radialGradient><radialGradient id="bz" cx="0" cy="0" r="1" gradientUnits="userSpaceOnUse" gradientTransform="matrix(18.941 0 0 18.9408 30.102 54.378)"><stop stop-color="#fff"/><stop offset="1" stop-color="#fff" stop-opacity=".5"/></radialGradient><radialGradient id="bA" cx="0" cy="0" r="1" gradientUnits="userSpaceOnUse" gradientTransform="matrix(18.9428 0 0 18.9426 30.102 54.378)"><stop stop-color="#fff"/><stop offset="1" stop-color="#fff" stop-opacity=".5"/></radialGradient><radialGradient id="bB" cx="0" cy="0" r="1" gradientUnits="userSpaceOnUse" gradientTransform="matrix(18.941 0 0 18.9408 30.101 54.378)"><stop stop-color="#fff"/><stop offset="1" stop-color="#fff" stop-opacity=".5"/></radialGradient><radialGradient id="bC" cx="0" cy="0" r="1" gradientUnits="userSpaceOnUse" gradientTransform="matrix(18.941 0 0 18.9408 30.101 54.378)"><stop stop-color="#fff"/><stop offset="1" stop-color="#fff" stop-opacity=".5"/></radialGradient><radialGradient id="bD" cx="0" cy="0" r="1" gradientUnits="userSpaceOnUse" gradientTransform="matrix(18.941 0 0 18.9408 30.102 54.378)"><stop stop-color="#fff"/><stop offset="1" stop-color="#fff" stop-opacity=".5"/></radialGradient><radialGradient id="bE" cx="0" cy="0" r="1" gradientUnits="userSpaceOnUse" gradientTransform="matrix(18.941 0 0 18.9408 30.101 54.378)"><stop stop-color="#fff"/><stop offset="1" stop-color="#fff" stop-opacity=".5"/></radialGradient><radialGradient id="bF" cx="0" cy="0" r="1" gradientUnits="userSpaceOnUse" gradientTransform="matrix(18.941 0 0 18.9408 30.102 54.378)"><stop stop-color="#fff"/><stop offset="1" stop-color="#fff" stop-opacity=".5"/></radialGradient><radialGradient id="bG" cx="0" cy="0" r="1" gradientUnits="userSpaceOnUse" gradientTransform="matrix(18.9439 0 0 18.9437 30.1 54.378)"><stop stop-color="#fff"/><stop offset="1" stop-color="#fff" stop-opacity=".5"/></radialGradient><radialGradient id="bH" cx="0" cy="0" r="1" gradientUnits="userSpaceOnUse" gradientTransform="matrix(18.9416 0 0 18.9414 30.102 54.378)"><stop stop-color="#fff"/><stop offset="1" stop-color="#fff" stop-opacity=".5"/></radialGradient><radialGradient id="bI" cx="0" cy="0" r="1" gradientUnits="userSpaceOnUse" gradientTransform="matrix(18.9439 0 0 18.9437 30.1 54.378)"><stop stop-color="#fff"/><stop offset="1" stop-color="#fff" stop-opacity=".5"/></radialGradient><clipPath id="a"><path fill="#fff" transform="translate(10.232 33.405)" d="M0 0h196.535v41.19H0z"/></clipPath></defs></svg>