<svg width="217" height="108" fill="none" xmlns="http://www.w3.org/2000/svg"><g clip-path="url(#a)"><path d="M77.182 49.012c.218.335.319.688.319 1.073 0 .47-.134.889-.42 1.207-.284.335-.653.503-1.123.503a1.49 1.49 0 0 1-1.022-.386c-.285-.251-.42-.586-.42-1.022 0-.587.302-1.09.923-1.476-.118-.167-.319-.268-.57-.268-.721 0-1.359.268-1.928.822a5.99 5.99 0 0 0-1.359 2.028c-.335.805-.502 1.56-.502 2.264v5.75c0 .839.234 1.425.72 1.744.47.318 1.19.486 2.163.486v.57c-2.23-.067-3.621-.1-4.174-.1-.487 0-1.543.033-3.203.1v-.57c.503 0 .922-.05 1.207-.168.302-.117.503-.318.654-.586.135-.285.201-.671.201-1.174v-8.517c0-.838-.15-1.442-.452-1.827-.302-.386-.838-.57-1.61-.57v-.57c.57.05 1.124.083 1.677.083 1.14 0 2.096-.117 2.816-.368v3.386c.202-.57.504-1.106.872-1.643a4.85 4.85 0 0 1 1.375-1.307c.537-.352 1.09-.52 1.677-.52.47 0 .905.1 1.274.285.385.184.687.436.905.771Zm9.758-.687v.536c.704.05 1.224.168 1.542.369.319.201.486.52.486.939 0 .302-.1.72-.285 1.24l-3 7.864-3.27-8.115c-.235-.57-.352-1.006-.352-1.341 0-.285.084-.503.251-.637.168-.134.37-.218.62-.252.252-.033.587-.05 1.04-.05v-.553c-1.576.117-2.75.167-3.52.167-.923 0-1.811-.05-2.666-.167v.57c.302 0 .62.1.922.285.302.2.603.603.922 1.224l4.929 11.836-.972 2.481c-.537 1.409-1.308 2.113-2.314 2.113a.495.495 0 0 1-.168-.034c.486-.268.721-.687.721-1.224 0-.402-.134-.72-.385-.938a1.502 1.502 0 0 0-.99-.336c-.452 0-.804.134-1.056.386-.251.268-.385.603-.385 1.04 0 .519.167.904.52 1.206.351.285.787.436 1.324.436.905 0 1.61-.235 2.129-.704.436-.385.822-1.023 1.157-1.911l.922-2.364 4.46-11.619c.251-.67.52-1.14.787-1.425.285-.285.604-.452.973-.486v-.536c-.57.05-1.257.083-2.062.083-.57-.016-1.325-.033-2.28-.083Zm18.425 2.716c.436 1.022.654 2.23.654 3.638 0 1.391-.218 2.682-.671 3.906-.453 1.224-1.123 2.196-2.062 2.95-.939.755-2.096 1.14-3.487 1.14a4.336 4.336 0 0 1-1.878-.401c-.553-.269-.99-.62-1.308-1.074v3.471c0 .738.218 1.24.654 1.526.436.285 1.09.436 1.962.436v.57c-.235-.017-.738-.034-1.543-.068a56.85 56.85 0 0 0-2.364-.05c-.57 0-1.173.017-1.777.05-.603.034-.989.05-1.157.068v-.57c.671 0 1.124-.118 1.392-.37.268-.25.402-.687.402-1.324V51.292c0-.838-.15-1.442-.452-1.827-.302-.386-.839-.57-1.61-.57v-.57c.57.05 1.123.083 1.677.083 1.14 0 2.095-.117 2.816-.368v2.867c.403-.94.99-1.66 1.744-2.163.754-.52 1.626-.771 2.599-.771.955 0 1.827.268 2.581.788.788.486 1.392 1.257 1.828 2.28Zm-1.978 4.007c0-4.192-1.057-6.287-3.152-6.287-.822 0-1.56.301-2.213.888-.654.587-1.124 1.442-1.392 2.548v8.115c.268.537.637.972 1.123 1.274.487.319 1.073.47 1.744.47 2.599 0 3.89-2.33 3.89-7.008Zm12.255 5.968c-.402.453-.872.67-1.442.67s-1.006-.184-1.291-.536c-.285-.352-.436-.955-.436-1.76V48.895h4.007v-.554h-4.007v-4.526c-.603.235-1.425.352-2.431.385v4.141h-2.615v.537h2.615v9.087c0 .989.084 1.76.235 2.33.151.587.436 1.073.822 1.459.301.302.654.536 1.056.687.402.151.905.218 1.509.218 1.911 0 3.085-1.257 3.521-3.755l-.537-.134c-.268 1.056-.604 1.81-1.006 2.246Zm14.603-9.858c.536 1.107.805 2.481.805 4.175 0 1.676-.269 3.068-.805 4.157-.537 1.09-1.258 1.895-2.18 2.415-.922.52-1.978.77-3.168.77-1.191 0-2.247-.25-3.169-.77-.922-.52-1.643-1.325-2.18-2.415-.536-1.09-.804-2.48-.804-4.157s.268-3.068.804-4.175c.537-1.09 1.258-1.911 2.18-2.43.922-.52 1.978-.789 3.169-.789 1.19 0 2.246.268 3.168.788.906.52 1.643 1.341 2.18 2.431Zm-1.844 4.175c0-2.33-.319-4.058-.956-5.164-.637-1.107-1.492-1.66-2.582-1.66-1.09 0-1.945.553-2.582 1.66-.637 1.106-.955 2.833-.955 5.164 0 2.33.318 4.04.955 5.147.637 1.106 1.492 1.66 2.582 1.66 1.09 0 1.945-.554 2.582-1.66.637-1.124.956-2.834.956-5.147ZM5.443 58.35c-.252.285-.553.42-.906.42-.352 0-.62-.118-.804-.336-.185-.218-.269-.587-.269-1.09v-6.521h2.499v-.336H3.464v-2.816c-.385.15-.888.218-1.508.235v2.581H.329v.336h1.627v5.65c0 .603.05 1.09.15 1.458.101.37.269.67.503.906.202.184.403.335.654.419.252.084.554.134.94.134 1.19 0 1.91-.771 2.195-2.33l-.335-.084c-.168.637-.385 1.106-.62 1.374Zm9.288-.033c-.084-.168-.134-.42-.134-.738v-4.493c0-.57-.05-1.023-.134-1.358a1.915 1.915 0 0 0-.453-.855c-.402-.42-1.006-.637-1.794-.637-.62 0-1.19.15-1.693.47-.503.318-.889.82-1.174 1.542v-6.304c-.436.168-1.023.235-1.76.235-.336 0-.688-.017-1.04-.05v.352c.487 0 .805.117 1.006.352.185.234.285.603.285 1.123v9.606c0 .319-.05.554-.134.738a.725.725 0 0 1-.402.369c-.185.067-.436.1-.755.1v.353a47.36 47.36 0 0 1 2.029-.067c.318 0 .939.016 1.878.067v-.352c-.285 0-.503-.034-.654-.101-.151-.05-.268-.184-.335-.352a2.046 2.046 0 0 1-.118-.738v-3.755c0-.587.1-1.107.302-1.576.201-.47.486-.822.838-1.09a2.12 2.12 0 0 1 1.224-.386c.386 0 .67.084.872.252.201.168.335.386.402.67.067.269.1.62.1 1.023v4.862c0 .319-.033.553-.117.738-.083.167-.184.302-.352.369-.167.067-.385.1-.653.1v.352c.938-.05 1.575-.067 1.894-.067.302 0 .973.017 2.029.067v-.352c-.319 0-.57-.033-.755-.1a.725.725 0 0 1-.402-.37Zm8.852-1.325.335.135a3.22 3.22 0 0 1-.637 1.106c-.285.352-.637.62-1.073.838-.436.218-.905.319-1.442.319-.804 0-1.492-.184-2.078-.553-.587-.37-1.023-.872-1.342-1.543-.302-.654-.452-1.425-.452-2.28 0-.972.15-1.827.469-2.548.319-.721.755-1.274 1.325-1.66.57-.386 1.24-.587 2.011-.587 1.006 0 1.794.302 2.33.922.554.62.822 1.543.822 2.783h-5.264c-.034.285-.05.654-.05 1.073 0 .738.117 1.392.369 1.945.25.553.57.972.955 1.274.402.302.805.453 1.258.453 1.123 0 1.944-.553 2.464-1.677Zm-5.013-3.37h3.672a6.448 6.448 0 0 0-.134-1.542c-.118-.47-.302-.838-.554-1.106a1.198 1.198 0 0 0-.905-.403c-.352 0-.67.118-.956.336-.285.218-.536.57-.737 1.022-.201.436-.336 1.006-.386 1.694Zm126.948 7.327c-.134-.285-.201-.67-.201-1.173v-7.243c0-.922-.067-1.643-.218-2.197-.151-.553-.386-1.005-.721-1.374-.654-.67-1.609-1.023-2.884-1.023-1.022 0-1.928.252-2.732.771-.805.52-1.442 1.341-1.895 2.498v-3.185c-.738.251-1.676.369-2.816.369-.554 0-1.124-.034-1.677-.084v.57c.771 0 1.308.184 1.61.57.301.386.452.99.452 1.827v8.484c0 .503-.067.888-.201 1.173a1.078 1.078 0 0 1-.654.587c-.302.117-.704.168-1.207.168v.57c1.66-.067 2.75-.1 3.253-.1.519 0 1.525.033 3.051.1v-.57c-.453 0-.805-.05-1.056-.168a1.143 1.143 0 0 1-.57-.587c-.118-.285-.185-.67-.185-1.173v-6.002c0-.922.168-1.76.47-2.515.318-.755.771-1.341 1.341-1.777a3.223 3.223 0 0 1 1.978-.654c.62 0 1.09.134 1.408.402.319.268.537.637.638 1.073.1.436.15.99.15 1.643v7.846c0 .503-.067.89-.184 1.174-.117.285-.302.486-.553.587-.252.117-.604.167-1.056.167v.57c1.525-.067 2.531-.1 3.034-.1.52 0 1.593.033 3.253.1v-.57c-.52 0-.923-.05-1.208-.167a1.116 1.116 0 0 1-.62-.587Zm15.056-9.791c.536 1.107.804 2.481.804 4.175 0 1.676-.268 3.068-.804 4.157-.537 1.09-1.258 1.895-2.18 2.415-.922.52-1.978.77-3.169.77-1.19 0-2.246-.25-3.168-.77-.922-.52-1.643-1.325-2.18-2.415-.536-1.09-.805-2.48-.805-4.157s.269-3.068.805-4.175c.537-1.09 1.258-1.911 2.18-2.43.922-.52 1.978-.789 3.168-.789 1.191 0 2.247.268 3.169.788.922.52 1.643 1.341 2.18 2.431Zm-1.828 4.175c0-2.33-.318-4.058-.956-5.164-.637-1.107-1.492-1.66-2.581-1.66-1.09 0-1.945.553-2.582 1.66-.637 1.106-.956 2.833-.956 5.164 0 2.33.319 4.04.956 5.147.637 1.106 1.492 1.66 2.582 1.66 1.089 0 1.944-.554 2.581-1.66.638-1.124.956-2.834.956-5.147Zm25.718 5.616c-.134-.285-.201-.67-.201-1.173v-7.243c0-.889-.067-1.61-.201-2.18-.134-.553-.369-1.022-.687-1.391-.654-.67-1.593-1.023-2.817-1.023-.972 0-1.861.252-2.649.755-.788.502-1.425 1.324-1.861 2.464-.101-.956-.386-1.693-.838-2.18-.654-.67-1.593-1.022-2.817-1.022-.939 0-1.811.268-2.599.805-.787.536-1.408 1.358-1.86 2.464V48.04c-.738.251-1.677.368-2.817.368-.553 0-1.123-.033-1.677-.083v.57c.772 0 1.308.184 1.61.57.302.385.453.989.453 1.827v8.483c0 .503-.068.89-.202 1.174a1.08 1.08 0 0 1-.653.587c-.302.117-.705.167-1.208.167v.57c1.66-.067 2.75-.1 3.253-.1.52 0 1.526.033 3.051.1v-.57c-.452 0-.805-.05-1.056-.167-.252-.117-.436-.319-.57-.587-.117-.285-.184-.67-.184-1.173v-6.02c0-.905.167-1.743.486-2.497.318-.755.754-1.358 1.307-1.794a2.98 2.98 0 0 1 1.878-.654c.604 0 1.056.134 1.358.402.302.268.486.62.57 1.04.084.436.118.989.118 1.676v7.846c0 .503-.051.89-.168 1.174-.117.285-.302.486-.553.587-.252.117-.604.167-1.057.167v.57c1.509-.067 2.532-.1 3.052-.1.503 0 1.592.033 3.235.1v-.57c-.503 0-.905-.05-1.207-.167a1.213 1.213 0 0 1-.637-.587c-.134-.285-.201-.67-.201-1.173v-6.053c0-.905.151-1.743.469-2.481.319-.738.755-1.341 1.308-1.777a2.931 2.931 0 0 1 1.861-.654c.62 0 1.073.134 1.375.402.302.268.486.62.57 1.04.084.436.117.989.117 1.676v7.846c0 .503-.067.89-.184 1.174-.117.285-.302.486-.553.587-.252.117-.604.167-1.057.167v.57c1.526-.067 2.532-.1 3.035-.1.503 0 1.593.033 3.252.1v-.57c-.519 0-.922-.05-1.207-.167a1.095 1.095 0 0 1-.637-.587Zm7.763 0c-.134-.285-.202-.67-.202-1.173V48.023c-.737.251-1.676.369-2.816.369-.553 0-1.123-.034-1.677-.084v.57c.772 0 1.308.184 1.61.57.302.386.452.99.452 1.827v8.484c0 .503-.067.888-.201 1.173a1.078 1.078 0 0 1-.654.587c-.301.117-.704.168-1.207.168v.57c1.66-.067 2.75-.1 3.286-.1.537 0 1.627.033 3.286.1v-.57c-.519 0-.922-.05-1.207-.168a.998.998 0 0 1-.67-.57Zm-2.465-16.179c.268.151.553.235.872.235.302 0 .603-.067.855-.235.268-.15.486-.368.637-.637a1.74 1.74 0 0 0 .235-.872c0-.301-.084-.603-.235-.855a1.786 1.786 0 0 0-.637-.637 1.725 1.725 0 0 0-.855-.234c-.302 0-.604.084-.872.234a1.786 1.786 0 0 0-.637.638 1.725 1.725 0 0 0-.235.855c0 .301.084.603.235.871.151.285.369.486.637.637Zm14.05 10.797a20.267 20.267 0 0 0-2.012-1.441c-.252-.168-.688-.436-1.291-.822-.604-.386-1.123-.771-1.543-1.19-.419-.42-.637-.94-.637-1.576 0-.654.201-1.157.621-1.526.419-.369.955-.553 1.609-.553 1.123 0 1.962.385 2.548 1.173.57.772.956 1.76 1.157 2.951h.604c0-2.196.033-3.722.1-4.61h-.62c-.084.788-.285 1.19-.603 1.19-.118 0-.285-.067-.47-.218-.318-.252-.738-.486-1.241-.687-.503-.202-1.073-.302-1.71-.302-.737 0-1.408.134-2.028.385a3.207 3.207 0 0 0-1.442 1.174c-.369.52-.537 1.174-.537 1.945 0 .704.168 1.324.487 1.844.318.52.721.972 1.19 1.325.469.368 1.157.821 2.045 1.391.738.453 1.308.838 1.71 1.157.403.318.738.67.99 1.056.251.402.368.838.368 1.325 0 .603-.117 1.106-.352 1.492a2.163 2.163 0 0 1-.905.838 2.744 2.744 0 0 1-1.14.251c-.872 0-1.559-.2-2.062-.603-.52-.403-.889-.973-1.14-1.694-.252-.72-.436-1.642-.57-2.766h-.621c0 2.582-.033 4.376-.1 5.416h.62c.101-.688.285-1.023.553-1.023.101 0 .185.033.252.1.386.302.754.554 1.106.721.621.252 1.342.386 2.146.386.839 0 1.61-.151 2.314-.436.704-.302 1.274-.72 1.693-1.29.419-.571.637-1.258.637-2.063 0-.704-.15-1.325-.469-1.861a5.792 5.792 0 0 0-1.257-1.459Zm12.322 3.236c-.268 1.04-.603 1.777-1.006 2.23-.402.453-.872.67-1.442.67s-1.005-.184-1.291-.536c-.285-.352-.435-.956-.435-1.76V48.895h4.007v-.554h-4.007v-4.526c-.604.235-1.425.352-2.431.385v4.141h-2.616v.537h2.616v9.087c0 .989.083 1.76.234 2.33.151.587.436 1.073.822 1.459.302.302.67.536 1.056.687.402.151.905.218 1.509.218 1.911 0 3.085-1.257 3.521-3.755l-.537-.1Zm-152.13 3.689c-2.699 4.208-7.343 7.058-12.657 7.276-9.154.352-16.715-7.21-16.347-16.363.218-5.684 3.47-10.596 8.182-13.178.201-.117.385.15.218.302-3.655 3.336-5.65 8.483-4.56 14.032a14.503 14.503 0 0 0 2.9 6.254c.436-.805 1.29-1.81 1.308-3.135.033-3.705.033-7.394.017-11.099 0-.62.167-1.056.653-1.459 2.733-2.246 5.432-4.526 8.165-6.756.201-.168.67-.201.905-.067 1.845 1.04 9.02 3.47 9.808 3.554.134.017.37.218.1.453 0 0-2.128 2.13-3.285 3.303-.201.2-.453.15-.654.084-1.174-.403-2.968-1.14-4.56-1.778v9.506h1.19v1.19h-1.24v11.787a14.81 14.81 0 0 0 9.572-4.124c.168-.185.403.016.285.218Zm-14.2-7.914h-2.18c-.419 1.76-1.324 3.22-2.749 4.544-.47.435-1.66 1.576-2.246 2.146a.383.383 0 0 0-.034.503l.15.15.286.285c.168.168.352.336.536.487l.302.251c.118.1.235.201.352.285a16.093 16.093 0 0 0 3.32 1.945c.67.285 1.375.52 2.096.704a.216.216 0 0 0 .167-.201V54.578Zm.017-12.121c0-.185-.184-.269-.352-.168 0 0-.319.201-.486.285-.839.503-1.157 1.291-1.124 2.297l.034 7.041c.017.52-.017.99-.084 1.476h1.978l.034-10.931Zm3.102 12.121H51.01c0 3.655 0 7.293-.017 10.63 0 .67.151.972.805 1.09.386.033.755.066 1.124.083V54.578Zm0-11.182c-.37-.151-.721-.269-1.023-.386-.067-.017-.235-.084-.302-.1-.47-.151-.603.067-.603.318v10.143h1.91v-9.975h.018Z" fill="#53235D"/></g><defs><clipPath id="a"><path fill="#fff" transform="translate(.33 38.215)" d="M0 0h216.341v31.569H0z"/></clipPath></defs></svg>