<svg xmlns="http://www.w3.org/2000/svg" width="217" height="108" fill="none"><path fill="#000" fill-rule="evenodd" d="M141.51 56.972c-1.159 0-2.1.938-2.102 2.096 0 1.16.941 2.097 2.102 2.097a2.098 2.098 0 1 0 0-4.195v.002Zm67.774-1.597a3.753 3.753 0 0 0-.959-1.292 5.436 5.436 0 0 0-1.492-.912 11.54 11.54 0 0 0-1.965-.607c-1.179-.284-2.047-.553-2.605-.806-.558-.252-.837-.604-.837-1.05 0-.365.168-.673.502-.928.335-.252.929-.38 1.781-.38.852 0 1.593.118 2.224.352.629.233 1.137.492 1.522.775l1.859-2.523a7.658 7.658 0 0 0-2.392-1.185c-.883-.263-1.955-.395-3.214-.395-.712 0-1.415.1-2.117.304-.7.203-1.33.492-1.889.867a4.588 4.588 0 0 0-1.355 1.398c-.345.556-.518 1.19-.518 1.9s.147 1.283.442 1.778c.294.497.67.923 1.128 1.278.457.353.949.632 1.476.835a13.2 13.2 0 0 0 1.523.487c.793.182 1.422.355 1.889.517.466.162.832.325 1.096.487.263.164.436.33.519.502.081.172.12.36.12.563 0 .465-.233.799-.7 1.004-.467.203-1.086.303-1.859.303-.873 0-1.651-.146-2.329-.44-.68-.294-1.243-.664-1.691-1.11l-2.162 2.341c.648.73 1.512 1.281 2.588 1.656 1.077.375 2.285.563 3.624.563.832 0 1.62-.106 2.361-.32a6.628 6.628 0 0 0 1.949-.897 4.416 4.416 0 0 0 1.325-1.413 3.66 3.66 0 0 0 .487-1.87c0-.69-.111-1.281-.336-1.778l.005-.004ZM193.69 46.91l-2.709 9.91-3.046-9.91h-3.015l-3.014 9.91-2.741-9.91h-3.96l4.843 14.255h3.35l2.833-8.603 2.924 8.603h3.472l4.843-14.255H193.69Zm-21.931 5.623a3.093 3.093 0 0 0-.837-2.084 3.248 3.248 0 0 0-1.051-.728c-.426-.191-.913-.289-1.463-.289-.588 0-1.111.096-1.567.289-.422.172-.81.418-1.142.73-.296.28-.533.615-.7.987-.164.365-.245.73-.245 1.094h7.005Zm3.32-.912c.245.973.367 1.966.367 2.978v.517h-10.662c0 .527.116 1.004.35 1.428.233.426.538.791.915 1.095a4.15 4.15 0 0 0 1.279.7c.477.162.949.242 1.415.242.69 0 1.294-.066 1.813-.196a7.47 7.47 0 0 0 1.324-.456c.366-.171.665-.353.9-.548a7.35 7.35 0 0 0 .531-.47l1.95 2.187-.502.502c-.272.272-.67.563-1.189.867-.518.303-1.178.578-1.979.82-.802.243-1.762.365-2.878.365s-2.174-.191-3.107-.576a7.004 7.004 0 0 1-2.392-1.598 6.93 6.93 0 0 1-1.522-2.447c-.355-.952-.533-2.006-.533-3.161 0-1.053.178-2.03.533-2.932a7.165 7.165 0 0 1 1.492-2.356 6.974 6.974 0 0 1 2.285-1.58c.884-.385 1.863-.578 2.939-.578 1.299 0 2.402.238 3.305.713.903.476 1.629 1.1 2.178 1.87.556.79.959 1.677 1.187 2.614h.001Zm-20.986-5.015c-.568 0-1.076.06-1.522.181-.446.12-.849.28-1.204.47-.356.194-.66.402-.914.625a8.001 8.001 0 0 0-.654.637l-.091-1.61h-3.442v14.256h3.594v-7.72c0-.526.086-1.018.259-1.474.172-.455.411-.855.717-1.202.303-.343.67-.612 1.096-.805a3.295 3.295 0 0 1 1.372-.29c.792 0 1.436.25 1.933.745.499.497.748 1.2.748 2.114v8.63h3.594v-8.662c0-1.803-.467-3.237-1.4-4.302-.935-1.063-2.295-1.596-4.083-1.596l-.003.003Zm-19.829 7.417c0-.505-.081-1.028-.243-1.565a4.539 4.539 0 0 0-.746-1.46 3.93 3.93 0 0 0-1.265-1.062c-.508-.273-1.107-.411-1.797-.411-.691 0-1.29.137-1.797.41A3.911 3.911 0 0 0 127.152 51a4.539 4.539 0 0 0-.746 1.46 5.4 5.4 0 0 0-.245 1.564c0 .527.081 1.054.245 1.58.161.527.414 1.02.746 1.46.335.445.756.805 1.264 1.08.507.272 1.106.41 1.797.41.69 0 1.289-.137 1.797-.41a3.832 3.832 0 0 0 1.265-1.08c.333-.446.583-.933.746-1.46a5.349 5.349 0 0 0 .243-1.58Zm3.062-2.932c.375.922.563 1.899.563 2.932a7.696 7.696 0 0 1-.563 2.932 7.62 7.62 0 0 1-1.568 2.432 7.272 7.272 0 0 1-2.422 1.658c-.944.404-1.984.607-3.122.607-1.137 0-2.177-.203-3.122-.607a7.32 7.32 0 0 1-2.422-1.658 7.718 7.718 0 0 1-2.133-5.364c0-1.033.189-2.01.565-2.932.362-.9.893-1.72 1.568-2.417a7.426 7.426 0 0 1 2.422-1.642c.945-.405 1.985-.608 3.122-.608 1.138 0 2.178.202 3.122.608.908.381 1.732.94 2.422 1.642a7.466 7.466 0 0 1 1.567 2.417h.001Zm-17.417 7.25c-.335.161-.787.242-1.355.242-.609 0-1.052-.218-1.324-.654-.276-.434-.411-1.058-.411-1.87v-6.23h3.836v-2.92h-3.836v-4.62h-3.594v4.62h-2.437v2.92h2.437v6.474c0 .79.081 1.516.244 2.173.162.659.433 1.22.807 1.687.377.466.869.826 1.478 1.08.609.252 1.35.38 2.224.38.873 0 1.624-.128 2.314-.38.69-.255 1.39-.675 2.102-1.262l-1.522-2.218a6.12 6.12 0 0 1-.959.577h-.004Zm-13.417-4.227c0-.607-.066-1.175-.198-1.702a3.88 3.88 0 0 0-.639-1.383c-.3-.4-.691-.724-1.142-.943-.467-.233-1.045-.35-1.737-.35a3.18 3.18 0 0 0-1.492.35 3.828 3.828 0 0 0-1.143.896 4.215 4.215 0 0 0-.73 1.2c-.173.438-.259.857-.259 1.262v4.224c.71.588 1.787.882 3.23.882.648 0 1.228-.127 1.736-.38a4.08 4.08 0 0 0 1.295-1.003c.355-.416.629-.897.807-1.414a4.96 4.96 0 0 0 .274-1.64l-.002.001Zm3.23-2.765c.264.891.396 1.813.396 2.765 0 1.114-.164 2.067-.487 2.858a7.945 7.945 0 0 1-1.219 2.067c-.812.972-1.7 1.65-2.666 2.037a7.96 7.96 0 0 1-2.97.578c-.467 0-.868-.02-1.203-.061a6.722 6.722 0 0 1-1.676-.411l-.745-.29v6.353h-3.564V46.91h3.472l.09 1.612c.184-.202.412-.415.686-.637.274-.223.599-.426.974-.608a6.541 6.541 0 0 1 2.879-.637c1.096 0 2.046.213 2.848.637a5.962 5.962 0 0 1 1.994 1.687 7.42 7.42 0 0 1 1.189 2.386h.002Zm-22.66 5.319-4.084-9.758h-4.142l6.427 14.136-.457 1.154c-.345.852-.675 1.48-.99 1.886-.316.404-.717.607-1.204.607-.365 0-.669-.076-.915-.228a6.779 6.779 0 0 1-.668-.47l-1.615 2.522c.405.344.878.613 1.417.806.538.192 1.213.289 2.025.289.935 0 1.706-.203 2.317-.608a5.402 5.402 0 0 0 1.537-1.565 10.86 10.86 0 0 0 1.051-2.083c.282-.75.568-1.478.854-2.188l5.97-14.255h-3.93l-3.594 9.758v-.003Zm-10.54-10.032a5.28 5.28 0 0 0-1.569.212 5.705 5.705 0 0 0-1.203.519 4.676 4.676 0 0 0-.898.668 6.886 6.886 0 0 0-.626.67l-.09-1.794h-3.443v14.256h3.594v-7.69c0-.527.096-1.004.29-1.428.19-.425.451-.79.777-1.095.323-.303.71-.536 1.157-.698a4.09 4.09 0 0 1 1.402-.244c.343 0 .643.02.898.06a3.3 3.3 0 0 1 .746.214l.731-3.373a4.509 4.509 0 0 0-.837-.213 6.46 6.46 0 0 0-.93-.061v-.004ZM57.974 52.35a5.857 5.857 0 0 0-.244 1.67c0 .547.08 1.085.242 1.612.164.528.411 1.004.748 1.428.335.424.756.77 1.265 1.033.508.263 1.106.395 1.796.395s1.36-.137 1.95-.41a4.393 4.393 0 0 0 1.492-1.109l2.133 2.31a7.703 7.703 0 0 1-2.376 1.702c-.914.424-1.98.637-3.198.637s-2.304-.181-3.258-.546c-.955-.367-1.757-.884-2.407-1.552a6.77 6.77 0 0 1-1.493-2.402c-.345-.931-.518-1.965-.518-3.1 0-1.034.188-2.011.563-2.933.361-.9.895-1.72 1.57-2.417a7.417 7.417 0 0 1 2.422-1.642c.944-.405 1.984-.608 3.121-.608 1.138 0 2.214.208 3.169.623a7.333 7.333 0 0 1 2.436 1.687l-2.284 2.311a4.43 4.43 0 0 0-1.432-1.094c-.55-.263-1.179-.395-1.889-.395s-1.289.127-1.796.38c-.506.252-.93.583-1.264.987a3.988 3.988 0 0 0-.747 1.428l-.001.005Z" clip-rule="evenodd"/><path fill="#0080C9" fill-rule="evenodd" d="M47.915 54c0-11.17-9.072-20.224-20.263-20.224C16.46 33.776 7.385 42.83 7.385 54S16.46 74.224 27.65 74.224c11.192 0 20.265-9.054 20.265-20.224Z" clip-rule="evenodd"/><path fill="#fff" fill-rule="evenodd" d="M16.432 58.603a1.278 1.278 0 1 0 0 2.555 1.278 1.278 0 1 0 0-2.555Zm23.27 7.427a16.878 16.878 0 0 0 4.992-12.028c0-4.514-1.849-8.927-5.071-12.105a.638.638 0 0 0-.901.906 15.832 15.832 0 0 1 4.693 11.199 15.613 15.613 0 0 1-4.618 11.124 15.668 15.668 0 0 1-11.147 4.607 15.678 15.678 0 0 1-11.147-4.607 15.613 15.613 0 0 1-4.617-11.124 15.613 15.613 0 0 1 4.617-11.124c3.883-3.875 9.259-5.41 14.748-4.215a.64.64 0 0 0 .317-1.238l-.045-.01c-5.925-1.29-11.73.37-15.926 4.56a16.878 16.878 0 0 0-4.992 12.027c0 4.541 1.773 8.814 4.992 12.027a16.946 16.946 0 0 0 12.051 4.98c4.554 0 8.833-1.77 12.052-4.98m-4.144-27.651a1.28 1.28 0 0 0-1.28 1.277 1.28 1.28 0 0 0 1.279 1.278 1.278 1.278 0 0 0 .1-2.554h-.102m1.504 25.013c5.187-5.177 5.187-13.6 0-18.777-5.187-5.178-13.63-5.178-18.819 0a13.229 13.229 0 0 0-3.605 12.154.642.642 0 0 0 1.251-.264 11.958 11.958 0 0 1 3.257-10.987c4.689-4.68 12.318-4.68 17.008 0 4.689 4.678 4.689 12.292 0 16.971a11.941 11.941 0 0 1-8.5 3.515h-.11a11.95 11.95 0 0 1-8.548-3.668.64.64 0 0 0-.92.888 13.223 13.223 0 0 0 9.459 4.056h.118c3.553 0 6.891-1.379 9.406-3.89m-9.409-.328c-5.005 0-9.078-4.065-9.078-9.06 0-4.996 4.073-9.06 9.078-9.06a9.09 9.09 0 0 1 7.507 3.962c.465.68.289 1.608-.393 2.07a1.495 1.495 0 0 1-2.075-.393 6.098 6.098 0 0 0-5.039-2.661c-3.36 0-6.092 2.729-6.092 6.08 0 3.352 2.734 6.08 6.092 6.08a6.098 6.098 0 0 0 5.039-2.66 1.495 1.495 0 0 1 2.075-.394c.682.464.857 1.39.393 2.07a9.085 9.085 0 0 1-7.507 3.963" clip-rule="evenodd"/></svg>