<svg width="217" height="107" viewBox="0 0 217 107" fill="none" xmlns="http://www.w3.org/2000/svg">
<path fill-rule="evenodd" clip-rule="evenodd" d="M94.4851 47.1083C95.9198 48.6059 96.658 50.4839 96.658 52.6992C96.658 54.9145 95.9192 56.7925 94.4851 58.2901C93.0081 59.8302 91.0877 60.6114 88.81 60.6114C86.5305 60.6114 84.6108 59.8302 83.1343 58.2901C81.6997 56.7925 80.9608 54.9145 80.9608 52.6998C80.9608 50.4839 81.6997 48.6059 83.1343 47.1083C84.6108 45.5682 86.5305 44.7876 88.81 44.7876C91.0883 44.7876 93.0081 45.5682 94.4851 47.1083ZM12.3726 45.6124V47.2579C12.3726 47.5746 12.1407 47.8695 11.824 47.9749C11.655 48.0173 11.5078 48.0597 11.3601 48.1233C10.8134 48.3615 10.324 48.714 9.92479 49.157C9.12358 50.0642 8.72328 51.2239 8.72328 52.701C8.72328 54.1787 9.12358 55.3384 9.92479 56.2456C10.4317 56.8155 11.0433 57.1952 11.824 57.4271C12.1407 57.5119 12.372 57.8068 12.372 58.1236V59.7896C12.372 60.0221 12.2673 60.2329 12.0983 60.3589C11.9505 60.486 11.7816 60.5284 11.6126 60.5284H11.4654C9.99002 60.2258 8.65108 59.4565 7.64651 58.3343C6.31722 56.8367 5.64197 54.9587 5.64197 52.701C5.64197 50.4651 6.31722 48.566 7.64651 47.0683C8.68028 45.9292 9.96718 45.1909 11.4654 44.8954C11.6974 44.8318 11.9087 44.8954 12.0983 45.0426C12.2673 45.1691 12.372 45.3805 12.372 45.6118M13.7231 47.1531V45.6124C13.7231 45.4017 13.8079 45.1903 13.9775 45.0638C14.1452 44.916 14.3566 44.853 14.5673 44.8736C15.7701 45.0638 16.8456 45.4859 17.7952 46.1611C18.9979 47.0259 19.8845 48.208 20.3902 49.6845C20.4744 49.9164 20.4326 50.1696 20.3054 50.3598C20.2367 50.458 20.1451 50.5381 20.0385 50.5931C19.932 50.6482 19.8137 50.6766 19.6938 50.6759H18.0066C17.711 50.6759 17.4367 50.5075 17.3101 50.2332C16.994 49.4943 16.5301 48.9251 15.8966 48.4818C15.4321 48.1862 14.9259 47.9755 14.3566 47.8907C13.9769 47.8277 13.7231 47.5322 13.7231 47.1525M20.306 55.1791C20.432 55.3687 20.4744 55.6218 20.3908 55.8544C19.8845 57.3308 18.9979 58.5124 17.7952 59.3772C16.8456 60.0524 15.7695 60.4745 14.5673 60.6647H14.462C14.2724 60.6647 14.1028 60.6011 13.9769 60.4745C13.8079 60.3474 13.7231 60.1372 13.7231 59.9265V58.3858C13.7231 58.0061 13.9763 57.7106 14.3348 57.6476C14.9259 57.5628 15.4321 57.3732 15.8966 57.0565C16.5301 56.6138 16.994 56.0445 17.3101 55.3051C17.4367 55.0314 17.711 54.8624 18.0066 54.8624H19.6944C19.9263 54.8624 20.1583 54.9678 20.306 55.1791ZM26.2894 52.0875H30.4033C31.6272 52.0875 32.4284 51.7496 32.8717 51.0538C32.9983 50.8212 33.0824 50.4839 33.0824 50.0836C33.0824 49.3872 32.8717 48.9021 32.4284 48.5217C31.9439 48.1208 31.3111 47.9313 30.488 47.9313H26.2894V52.0875ZM36.3109 59.3027C36.4587 59.5352 36.4587 59.8296 36.3321 60.0627C36.2049 60.2947 35.9524 60.4424 35.6993 60.4424H33.8001C33.5469 60.4424 33.3156 60.3153 33.1884 60.1045L30.0235 55.0623H26.2894V59.7042C26.2894 60.1045 25.9515 60.4424 25.5512 60.4424H23.9687C23.5678 60.4424 23.2299 60.1045 23.2299 59.7042V45.6948C23.2299 45.2939 23.5678 44.956 23.9687 44.956H30.6776C32.2812 44.956 33.6105 45.4205 34.6019 46.3276C35.6151 47.256 36.1208 48.5005 36.1208 50.083C36.1208 52.1087 35.2136 53.5852 33.5046 54.3234C33.3992 54.387 33.2732 54.4288 33.1678 54.4718L36.3109 59.3027ZM51.8834 45.3575C52.0094 45.5894 51.9888 45.8843 51.841 46.1169L46.1029 54.387V59.7042C46.1029 60.1051 45.7638 60.4424 45.3641 60.4424H43.7816C43.3807 60.4424 43.0428 60.1051 43.0428 59.7036V54.3864L37.2835 46.1169C37.1357 45.885 37.1139 45.59 37.2411 45.3575C37.3683 45.1037 37.6208 44.9566 37.8952 44.9566H39.8155C40.0687 44.9566 40.2794 45.0831 40.4272 45.2727L44.5623 51.2227L48.6973 45.2727C48.8457 45.0831 49.0558 44.9566 49.309 44.9566H51.2299C51.5037 44.9566 51.7568 45.1037 51.8834 45.3575ZM56.7379 52.4884H60.6198C61.527 52.4884 62.1805 52.2983 62.6032 51.8974C63.0253 51.4971 63.2148 50.9484 63.2148 50.2096C63.2148 49.4707 63.0253 48.9227 62.6032 48.5429C62.1805 48.142 61.5052 47.9313 60.6198 47.9313H56.7379V52.4884ZM64.7549 46.3912C65.7674 47.3402 66.2737 48.6277 66.2737 50.2096C66.2737 51.792 65.7674 53.0789 64.7549 54.0285C63.7423 54.9781 62.3918 55.4414 60.7252 55.4414H56.7379V59.7036C56.7379 60.1051 56.4 60.4424 55.9991 60.4424H54.4166C54.2215 60.4401 54.035 60.3615 53.897 60.2234C53.7591 60.0853 53.6806 59.8988 53.6784 59.7036V45.6948C53.6784 45.2939 54.0163 44.956 54.4166 44.956H60.7252C62.3918 44.956 63.7423 45.4416 64.7549 46.3912ZM79.8417 45.6948V47.2142C79.8417 47.6146 79.5255 47.9525 79.1246 47.9525H74.9678V59.7036C74.9678 60.1051 74.6298 60.4424 74.2295 60.4424H72.6477C72.225 60.4424 71.9089 60.1051 71.9089 59.7036V47.9525H67.7526C67.5575 47.9501 67.371 47.8715 67.233 47.7334C67.095 47.5954 67.0166 47.4088 67.0144 47.2136V45.6948C67.0144 45.2939 67.3517 44.956 67.7526 44.956H79.1246C79.5255 44.956 79.8417 45.2939 79.8417 45.6948Z" fill="#01C3C5"/>
<path fill-rule="evenodd" clip-rule="evenodd" d="M109.861 56.9823C109.46 57.2778 108.849 57.4256 108.048 57.4256H103.469V54.0705H107.878C108.743 54.0705 109.398 54.2607 109.84 54.6404C110.199 54.9571 110.368 55.3368 110.368 55.8431C110.368 56.3494 110.199 56.7079 109.861 56.9823ZM113.153 54.3031C112.815 53.4807 112.288 52.8266 111.549 52.3621C112.33 51.6027 112.731 50.5683 112.731 49.282C112.731 48.0587 112.309 47.0455 111.529 46.2643C110.578 45.2729 109.229 44.7878 107.499 44.7878H101.147C100.748 44.7878 100.41 45.1252 100.41 45.5267V47.0455C100.41 47.467 100.748 47.805 101.147 47.805H107.688C108.385 47.805 108.891 47.9527 109.229 48.3324C109.356 48.459 109.46 48.6068 109.524 48.7969C109.587 48.9865 109.629 49.2184 109.629 49.4928C109.629 49.7459 109.587 49.9779 109.482 50.1892C109.27 50.5901 108.849 51.117 107.499 51.117H101.147C100.789 51.117 100.484 51.3877 100.422 51.7311H100.41V59.7044C100.41 60.1047 100.748 60.4427 101.147 60.4427H107.879C108.765 60.4427 109.545 60.3373 110.22 60.1047C112.33 59.4295 113.448 58.016 113.448 55.9697C113.448 55.358 113.364 54.7882 113.153 54.3031ZM119.083 51.9188H123.197C124.421 51.9188 125.223 51.5815 125.666 50.885C125.792 50.6531 125.877 50.3158 125.877 49.9149C125.877 49.2184 125.666 48.7339 125.223 48.353C124.738 47.9527 124.105 47.7626 123.282 47.7626H119.083V51.9188ZM129.105 59.134C129.253 59.3665 129.253 59.6614 129.126 59.894C129.063 60.0074 128.972 60.1022 128.861 60.1689C128.75 60.2355 128.623 60.2717 128.493 60.2737H126.594C126.472 60.2751 126.351 60.2448 126.244 60.1857C126.137 60.1265 126.047 60.0407 125.983 59.9364L122.818 54.8935H119.083V59.5355C119.083 59.9364 118.746 60.2743 118.345 60.2743H116.762C116.567 60.2718 116.381 60.1931 116.243 60.0551C116.105 59.917 116.027 59.7305 116.025 59.5355V45.5261C116.025 45.1252 116.362 44.7872 116.762 44.7872H123.472C125.075 44.7872 126.405 45.2517 127.396 46.1589C128.409 47.0873 128.915 48.3324 128.915 49.9149C128.915 51.94 128.008 53.4165 126.299 54.1553C126.193 54.2183 126.067 54.2607 125.961 54.3031L129.105 59.134ZM142.124 56.2016C142.99 55.2944 143.412 54.1341 143.412 52.6994C143.412 51.2654 142.99 50.1256 142.124 49.1972C141.238 48.2694 140.099 47.805 138.623 47.805C137.145 47.805 136.006 48.2694 135.12 49.1972C134.255 50.1256 133.834 51.2654 133.834 52.6994C133.834 54.1347 134.255 55.2944 135.12 56.2016C136.006 57.13 137.145 57.5945 138.623 57.5945C140.099 57.5945 141.239 57.13 142.124 56.2016ZM144.297 47.1085C145.732 48.6068 146.47 50.4841 146.47 52.6994C146.47 54.9147 145.732 56.7921 144.297 58.2904C142.82 59.8304 140.901 60.611 138.623 60.611C136.343 60.611 134.423 59.8304 132.947 58.2904C131.512 56.7921 130.773 54.9147 130.773 52.6994C130.773 50.4841 131.512 48.6068 132.947 47.1085C134.423 45.5685 136.343 44.7878 138.623 44.7878C140.901 44.7878 142.82 45.5691 144.297 47.1085ZM168.731 45.0834C168.879 45.2729 168.921 45.5267 168.836 45.7374L164.49 59.7674C164.439 59.9161 164.342 60.0448 164.213 60.1356C164.084 60.2263 163.931 60.2746 163.773 60.2737H161.98C161.663 60.2737 161.368 60.063 161.283 59.7674L158.182 50.1674L155.102 59.7674C154.997 60.063 154.722 60.2737 154.405 60.2737H152.592C152.275 60.2737 152 60.063 151.895 59.7674L147.549 45.7374C147.508 45.6285 147.497 45.5111 147.516 45.3964C147.534 45.2818 147.582 45.174 147.655 45.0834C147.781 44.8932 148.013 44.7878 148.245 44.7878H149.912C150.228 44.7878 150.523 44.9986 150.608 45.3153L153.519 54.8306L156.578 45.2941C156.685 44.9986 156.959 44.7878 157.275 44.7878H159.11C159.427 44.7878 159.701 44.9986 159.807 45.2941L162.845 54.8306L165.756 45.3153C165.862 44.9986 166.136 44.7884 166.474 44.7884H168.14C168.372 44.7884 168.583 44.8932 168.731 45.0834ZM182.869 55.8437C182.869 57.4044 182.257 58.6065 181.076 59.4507C179.979 60.2107 178.46 60.6116 176.582 60.6116C174.451 60.6116 172.785 60.1471 171.624 59.2188C170.548 58.354 169.936 57.13 169.788 55.59C169.767 55.3792 169.831 55.1685 169.978 55.0207C170.126 54.8723 170.316 54.7882 170.526 54.7882H172.172C172.573 54.7882 172.89 55.0831 172.911 55.4634C172.953 56.181 173.269 56.6867 173.944 57.0876C174.577 57.4468 175.485 57.6363 176.603 57.6363C179.81 57.6363 179.81 56.3706 179.81 55.9067C179.81 55.5688 179.683 55.358 179.409 55.1679C179.008 54.8935 178.481 54.6616 177.848 54.4714C177.152 54.2607 176.392 54.0711 175.59 53.881C174.763 53.7013 173.952 53.4542 173.164 53.1421C172.363 52.8054 171.666 52.3833 171.139 51.834C170.527 51.2224 170.21 50.4 170.21 49.4086C170.21 48.0369 170.738 46.8978 171.793 46.0324C172.805 45.2099 174.282 44.7878 176.223 44.7878C178.164 44.7878 179.704 45.2523 180.822 46.1801C181.857 47.0243 182.427 48.1423 182.49 49.4928C182.511 49.6823 182.427 49.8931 182.299 50.0414C182.152 50.1674 181.961 50.2522 181.772 50.2522H180.126C179.951 50.2513 179.781 50.1867 179.649 50.0703C179.517 49.954 179.432 49.7937 179.409 49.6193C179.345 49.0707 179.093 48.3112 177.7 47.9315C177.278 47.8043 176.73 47.7414 176.097 47.7414C175.464 47.7414 174.936 47.805 174.535 47.9521C174.135 48.0793 173.839 48.2265 173.65 48.3954C173.48 48.5432 173.375 48.6909 173.333 48.8387C173.265 49.0572 173.23 49.2845 173.227 49.5134C173.227 49.5557 173.227 49.6829 173.417 49.8725C173.662 50.0958 173.949 50.2679 174.261 50.3788C174.683 50.5683 175.168 50.7161 175.717 50.8427C176.286 50.9904 176.877 51.1382 177.489 51.286C178.101 51.4337 178.712 51.6027 179.303 51.7928C179.936 52.0036 180.527 52.2773 181.033 52.6153C182.216 53.3747 182.869 54.4932 182.869 55.8437ZM197.091 45.5267V47.0455C197.091 47.4464 196.774 47.7838 196.352 47.7838H188.377V51.0116H195.424C195.846 51.0116 196.163 51.3495 196.163 51.7505V53.2905C196.163 53.6914 195.846 54.0287 195.424 54.0287H188.377V57.2778H196.353C196.774 57.2778 197.091 57.6157 197.091 58.0166V59.5355C197.091 59.9364 196.774 60.2743 196.352 60.2743H186.057C185.656 60.2743 185.318 59.9364 185.318 59.5355V45.5267C185.318 45.1252 185.656 44.7878 186.057 44.7878H196.352C196.774 44.7878 197.091 45.1252 197.091 45.5267ZM202.705 51.9188H206.819C208.042 51.9188 208.845 51.5815 209.288 50.885C209.414 50.6531 209.498 50.3158 209.498 49.9149C209.498 49.2184 209.288 48.7339 208.844 48.353C208.359 47.9527 207.726 47.7626 206.904 47.7626H202.705V51.9188ZM212.726 59.134C212.874 59.3665 212.874 59.6614 212.747 59.894C212.685 60.0073 212.593 60.102 212.482 60.1687C212.371 60.2354 212.244 60.2716 212.115 60.2737H210.215C209.963 60.2737 209.731 60.1465 209.604 59.9364L206.439 54.8935H202.705V59.5355C202.705 59.9364 202.368 60.2743 201.966 60.2743H200.384C200.189 60.2718 200.002 60.1931 199.865 60.0551C199.727 59.917 199.648 59.7305 199.646 59.5355V45.5261C199.646 45.1252 199.984 44.7872 200.384 44.7872H207.093C208.696 44.7872 210.026 45.2517 211.018 46.1589C212.03 47.0873 212.537 48.3324 212.537 49.9149C212.537 51.94 211.629 53.4165 209.921 54.1553C209.815 54.2183 209.688 54.2607 209.582 54.3031L212.726 59.134Z" fill="#242121"/>
<path fill-rule="evenodd" clip-rule="evenodd" d="M14.6315 41.6909C14.1301 41.6909 13.7231 42.0803 13.7231 42.56V46.4703C13.7231 46.95 14.1301 47.3394 14.6315 47.3394C15.133 47.3394 15.5399 46.95 15.5399 46.4703V42.56C15.5399 42.0803 15.133 41.6909 14.6315 41.6909ZM11.4521 41.6909C10.9507 41.6909 10.5437 42.1118 10.5437 42.6296V46.8549C10.5437 47.3727 10.9507 47.7936 11.4521 47.7936C11.9535 47.7936 12.3605 47.3727 12.3605 46.8549V42.6296C12.3605 42.1118 11.9535 41.6909 11.4521 41.6909ZM14.6703 57.588H14.5928C14.1125 57.588 13.7231 58.0125 13.7231 58.537V62.0894C13.7231 62.6139 14.1125 63.0384 14.5928 63.0384H14.6703C15.1505 63.0384 15.5399 62.6139 15.5399 62.0894V58.537C15.5399 58.0125 15.1505 57.588 14.6703 57.588ZM11.4521 57.588C11.2112 57.588 10.9801 57.6837 10.8098 57.8541C10.6394 58.0244 10.5437 58.2555 10.5437 58.4964V62.13C10.5437 62.3709 10.6394 62.602 10.8098 62.7724C10.9801 62.9427 11.2112 63.0384 11.4521 63.0384C11.693 63.0384 11.9241 62.9427 12.0944 62.7724C12.2648 62.602 12.3605 62.3709 12.3605 62.13V58.4964C12.3605 58.2555 12.2648 58.0244 12.0944 57.8541C11.9241 57.6837 11.693 57.588 11.4521 57.588Z" fill="#01C3C5"/>
<path fill-rule="evenodd" clip-rule="evenodd" d="M106.38 41.6909C106.139 41.6909 105.908 41.7866 105.738 41.957C105.568 42.1273 105.472 42.3584 105.472 42.5993V45.7787C105.472 46.0197 105.568 46.2507 105.738 46.4211C105.908 46.5914 106.139 46.6871 106.38 46.6871C106.621 46.6871 106.852 46.5914 107.023 46.4211C107.193 46.2507 107.289 46.0197 107.289 45.7787V42.5993C107.289 42.3584 107.193 42.1273 107.023 41.957C106.852 41.7866 106.621 41.6909 106.38 41.6909ZM106.38 58.0422C106.139 58.0422 105.908 58.1379 105.738 58.3083C105.568 58.4786 105.472 58.7097 105.472 58.9506V62.13C105.472 62.3709 105.568 62.602 105.738 62.7724C105.908 62.9427 106.139 63.0384 106.38 63.0384C106.621 63.0384 106.852 62.9427 107.023 62.7724C107.193 62.602 107.289 62.3709 107.289 62.13V58.9506C107.289 58.7097 107.193 58.4786 107.023 58.3083C106.852 58.1379 106.621 58.0422 106.38 58.0422Z" fill="#242121"/>
</svg>
