<svg width="217" height="107" viewBox="0 0 217 107" fill="none" xmlns="http://www.w3.org/2000/svg">
<path d="M66.0718 80.4231C66.4947 80.4231 66.7766 80.3291 66.9645 80.0942C67.1525 79.8593 67.2464 79.5304 67.2464 79.1075H69.9716V79.1545C70.0186 80.1882 69.6427 81.0339 68.8909 81.6917C68.1392 82.3495 67.1994 82.6784 66.0248 82.6784C64.5682 82.6784 63.4406 82.2086 62.6418 81.3158C61.843 80.4231 61.4672 79.2484 61.4672 77.7919V77.6039C61.4672 76.1474 61.843 75.0197 62.6418 74.08C63.4406 73.1873 64.5212 72.7174 65.9778 72.7174C67.1994 72.7174 68.1861 73.0463 68.8909 73.7511C69.5957 74.4089 69.9716 75.3486 69.9246 76.5233V76.5703H67.1994C67.1994 76.1004 67.1055 75.7245 66.9175 75.4426C66.7296 75.1607 66.4007 75.0197 66.0248 75.0197C65.461 75.0197 65.0381 75.2546 64.8501 75.7245C64.6152 76.1944 64.5212 76.8052 64.5212 77.6039V77.7919C64.5212 78.5906 64.6152 79.2015 64.8501 79.6713C65.0851 80.1882 65.461 80.4231 66.0718 80.4231Z" fill="black"/>
<path d="M76.6435 75.5836H75.5628C75.2339 75.5836 74.952 75.6305 74.7171 75.7715C74.4821 75.8655 74.3412 76.0534 74.2472 76.2414V82.5375H71.2401V72.9523H74.0593L74.1532 74.3619C74.3412 73.8451 74.6231 73.4692 74.952 73.1873C75.2809 72.9054 75.6568 72.7644 76.1266 72.7644C76.2676 72.7644 76.4086 72.7644 76.5495 72.8114C76.6905 72.8114 76.8314 72.8584 76.9254 72.9054L76.6435 75.5836Z" fill="black"/>
<path d="M82.3288 78.3087V78.4026H82.3758L83.9734 72.9523H87.1684L83.3625 83.947C83.0806 84.6518 82.7047 85.2626 82.2349 85.6854C81.765 86.1553 81.0132 86.3902 80.0265 86.3902C79.7446 86.3902 79.5567 86.3902 79.3687 86.3432C79.1808 86.2963 78.9459 86.2493 78.57 86.1553L78.9459 84.0409C79.0398 84.0409 79.0868 84.0879 79.1338 84.0879C79.1808 84.0879 79.2278 84.0879 79.2748 84.0879C79.7446 84.0879 80.0735 84.0409 80.3085 83.9C80.5434 83.759 80.6843 83.5711 80.7783 83.2892L81.0132 82.6783L77.6772 72.9993H80.8723L82.3288 78.3087Z" fill="black"/>
<path d="M96.8474 77.933C96.8474 79.3895 96.5185 80.5172 95.8607 81.4099C95.2029 82.3027 94.3101 82.7255 93.1355 82.7255C92.6656 82.7255 92.2428 82.6316 91.9138 82.4436C91.5849 82.2557 91.256 82.0207 90.9741 81.6918V86.2495H87.967V72.9995H90.7862L90.8802 74.0332C91.1621 73.6573 91.491 73.3284 91.8199 73.1404C92.1958 72.9055 92.6186 72.8115 93.0885 72.8115C94.2631 72.8115 95.2029 73.2814 95.8607 74.1741C96.5185 75.0668 96.8474 76.2885 96.8474 77.792V77.933ZM93.8403 77.745C93.8403 76.9463 93.6993 76.2885 93.4644 75.8186C93.2295 75.3488 92.8536 75.0668 92.3367 75.0668C92.0078 75.0668 91.7259 75.1138 91.491 75.2548C91.2561 75.3957 91.0681 75.5367 90.9271 75.8186V79.8124C91.0681 80.0004 91.2561 80.1883 91.491 80.2823C91.7259 80.3762 92.0078 80.4232 92.3367 80.4232C92.8536 80.4232 93.2295 80.1883 93.4644 79.7654C93.6993 79.3426 93.7933 78.7317 93.7933 77.933V77.745H93.8403Z" fill="black"/>
<path d="M101.687 70.556V72.9523H103.331V75.0197H101.687V79.4364C101.687 79.7653 101.734 80.0472 101.875 80.1881C102.016 80.3291 102.204 80.4231 102.439 80.4231C102.627 80.4231 102.768 80.4231 102.909 80.4231C103.003 80.4231 103.144 80.3761 103.331 80.3291L103.566 82.5374C103.237 82.6314 102.956 82.6784 102.674 82.6784C102.392 82.6784 102.11 82.7254 101.734 82.7254C100.747 82.7254 99.9955 82.4435 99.4786 81.9266C98.9618 81.4098 98.7268 80.564 98.7268 79.4364V75.0197H97.3643V72.9523H98.7268V70.556H101.687Z" fill="black"/>
<path d="M104.083 77.6509C104.083 76.1944 104.506 75.0197 105.305 74.127C106.104 73.2343 107.278 72.7644 108.735 72.7644C110.191 72.7644 111.319 73.2343 112.165 74.127C112.964 75.0197 113.386 76.1944 113.386 77.6509V77.8389C113.386 79.2954 112.964 80.4701 112.165 81.3628C111.366 82.2555 110.238 82.7254 108.782 82.7254C107.325 82.7254 106.151 82.2555 105.352 81.3628C104.553 80.4701 104.13 79.2954 104.13 77.8389V77.6509H104.083ZM107.043 77.8389C107.043 78.6376 107.184 79.2954 107.419 79.7183C107.654 80.1882 108.077 80.4231 108.688 80.4231C109.252 80.4231 109.675 80.1882 109.956 79.7183C110.191 79.2485 110.332 78.6376 110.332 77.8389V77.6509C110.332 76.8522 110.191 76.2414 109.956 75.7715C109.722 75.3016 109.299 75.0667 108.688 75.0667C108.077 75.0667 107.654 75.3016 107.419 75.7715C107.184 76.2414 107.043 76.8522 107.043 77.6509V77.8389Z" fill="black"/>
<path d="M117.427 72.9523L117.521 74.3149C117.85 73.8451 118.226 73.4692 118.696 73.1873C119.166 72.9054 119.683 72.7644 120.246 72.7644C121.186 72.7644 121.938 73.0463 122.455 73.6571C122.972 74.2679 123.254 75.2547 123.254 76.5703V82.5375H120.246V76.5703C120.246 76.0064 120.152 75.6305 119.918 75.3956C119.683 75.1607 119.354 75.0667 118.931 75.0667C118.649 75.0667 118.414 75.1137 118.179 75.2077C117.944 75.3016 117.756 75.4426 117.615 75.6305V82.5375H114.608V72.9523H117.427Z" fill="black"/>
<path d="M129.221 82.7255C127.811 82.7255 126.684 82.3027 125.838 81.4099C124.992 80.5172 124.569 79.4365 124.569 78.0739V77.745C124.569 76.2885 124.945 75.1138 125.697 74.1741C126.449 73.2344 127.576 72.8115 128.986 72.8115C130.301 72.8115 131.288 73.1874 132.04 73.9862C132.792 74.7849 133.168 75.8186 133.168 77.1812V78.7317H127.67V78.7787C127.717 79.2486 127.952 79.6715 128.281 80.0004C128.61 80.3293 129.08 80.4702 129.644 80.4702C130.208 80.4702 130.677 80.4232 131.006 80.3293C131.335 80.2353 131.758 80.0943 132.275 79.8594L132.98 81.6918C132.557 82.0207 132.04 82.2557 131.335 82.4436C130.724 82.5846 129.973 82.7255 129.221 82.7255ZM129.033 75.0668C128.61 75.0668 128.281 75.2078 128.046 75.5367C127.811 75.8656 127.717 76.2415 127.67 76.7583L127.717 76.8053H130.301V76.5704C130.301 76.1005 130.208 75.7246 130.02 75.4427C129.738 75.2078 129.456 75.0668 129.033 75.0668Z" fill="black"/>
<path d="M142.706 78.4966H142.753L143.786 72.9523H146.558L144.303 82.5374H141.766L140.215 77.4629H140.168L138.618 82.5374H136.081L133.825 72.9523H136.597L137.631 78.5436H137.678L139.229 72.9523H141.108L142.706 78.4966Z" fill="black"/>
<path d="M152.62 79.8123C152.62 79.5773 152.479 79.3424 152.197 79.2015C151.915 79.0135 151.445 78.8256 150.74 78.6846C149.613 78.4497 148.767 78.1208 148.203 77.6509C147.639 77.1811 147.357 76.5702 147.357 75.7715C147.357 74.9257 147.733 74.221 148.438 73.6101C149.143 72.9993 150.129 72.7174 151.304 72.7174C152.573 72.7174 153.606 72.9993 154.358 73.5632C155.11 74.127 155.486 74.8788 155.439 75.7715V75.8185H152.526C152.526 75.4426 152.432 75.1607 152.244 74.9727C152.056 74.7848 151.727 74.6908 151.304 74.6908C150.975 74.6908 150.74 74.7848 150.505 74.9257C150.27 75.1137 150.176 75.3016 150.176 75.5835C150.176 75.8185 150.317 76.0534 150.552 76.2413C150.787 76.4293 151.304 76.5702 152.056 76.7112C153.23 76.9461 154.076 77.275 154.64 77.7449C155.204 78.2148 155.486 78.8726 155.486 79.6713C155.486 80.5171 155.11 81.2218 154.358 81.7857C153.606 82.3495 152.573 82.6314 151.304 82.6314C149.988 82.6314 148.955 82.3025 148.203 81.6447C147.451 80.9869 147.075 80.2351 147.122 79.4364V79.3894H149.848C149.848 79.8593 149.988 80.1882 150.27 80.3761C150.552 80.564 150.928 80.658 151.398 80.658C151.821 80.658 152.103 80.564 152.291 80.4231C152.526 80.3291 152.62 80.0942 152.62 79.8123Z" fill="black"/>
<path d="M117.897 39.4042L108.5 48.8013H127.294L117.897 39.4042Z" fill="url(#paint0_linear_2086_6944)"/>
<path d="M117.897 39.4043L127.294 30.0071H108.5L117.897 39.4043Z" fill="url(#paint1_linear_2086_6944)"/>
<path d="M108.5 20.6099H99.1028V30.007H108.5V20.6099Z" fill="url(#paint2_linear_2086_6944)"/>
<path d="M117.897 20.6099H108.5V30.007H117.897V20.6099Z" fill="url(#paint3_linear_2086_6944)"/>
<path d="M99.1027 30.0071H89.7056V39.4043H99.1027V30.0071Z" fill="url(#paint4_linear_2086_6944)"/>
<path d="M99.1027 39.4042H89.7056V48.8013H99.1027V39.4042Z" fill="url(#paint5_linear_2086_6944)"/>
<path d="M108.5 48.8015H99.1028V58.1987H108.5V48.8015Z" fill="url(#paint6_linear_2086_6944)"/>
<path d="M117.897 48.8015H108.5V58.1987H117.897V48.8015Z" fill="url(#paint7_linear_2086_6944)"/>
<path d="M108.5 30.007L117.897 20.6099H99.1028L108.5 30.007Z" fill="url(#paint8_linear_2086_6944)"/>
<path d="M117.897 58.1987L127.294 48.8015H108.5L117.897 58.1987Z" fill="url(#paint9_linear_2086_6944)"/>
<path d="M99.1027 58.1987L108.5 48.8015H89.7056L99.1027 58.1987Z" fill="url(#paint10_linear_2086_6944)"/>
<path d="M117.897 20.6099L108.5 30.007H127.294L117.897 20.6099Z" fill="url(#paint11_linear_2086_6944)"/>
<path d="M89.7056 30.007H108.5L99.1027 20.6099L89.7056 30.007Z" fill="url(#paint12_linear_2086_6944)"/>
<path d="M108.5 48.8015L99.1028 58.1987H117.897L108.5 48.8015Z" fill="url(#paint13_linear_2086_6944)"/>
<path d="M99.1027 39.4042L89.7056 48.8013H108.5L99.1027 39.4042Z" fill="url(#paint14_linear_2086_6944)"/>
<path d="M108.5 30.0071H89.7056L99.1027 39.4043L108.5 30.0071Z" fill="url(#paint15_linear_2086_6944)"/>
<path d="M99.1027 39.4043L89.7056 30.0071V48.8014L99.1027 39.4043Z" fill="url(#paint16_linear_2086_6944)"/>
<defs>
<linearGradient id="paint0_linear_2086_6944" x1="108.5" y1="44.1028" x2="127.294" y2="44.1028" gradientUnits="userSpaceOnUse">
<stop stop-color="#2D082D"/>
<stop offset="1" stop-color="#1C093F"/>
</linearGradient>
<linearGradient id="paint1_linear_2086_6944" x1="108.5" y1="34.7057" x2="127.294" y2="34.7057" gradientUnits="userSpaceOnUse">
<stop stop-color="#2D082D"/>
<stop offset="1" stop-color="#1C093F"/>
</linearGradient>
<linearGradient id="paint2_linear_2086_6944" x1="99.1028" y1="25.3084" x2="108.5" y2="25.3084" gradientUnits="userSpaceOnUse">
<stop stop-color="#E22345"/>
<stop offset="1" stop-color="#AE2182"/>
</linearGradient>
<linearGradient id="paint3_linear_2086_6944" x1="108.5" y1="25.3084" x2="117.897" y2="25.3084" gradientUnits="userSpaceOnUse">
<stop stop-color="#590F57"/>
<stop offset="1" stop-color="#35157C"/>
</linearGradient>
<linearGradient id="paint4_linear_2086_6944" x1="89.7056" y1="34.7057" x2="99.1027" y2="34.7057" gradientUnits="userSpaceOnUse">
<stop stop-color="#EC85AD"/>
<stop offset="1" stop-color="#F3859D"/>
</linearGradient>
<linearGradient id="paint5_linear_2086_6944" x1="89.7056" y1="44.1028" x2="99.1027" y2="44.1028" gradientUnits="userSpaceOnUse">
<stop stop-color="#EC85AD"/>
<stop offset="1" stop-color="#F3859D"/>
</linearGradient>
<linearGradient id="paint6_linear_2086_6944" x1="99.1028" y1="53.5001" x2="108.5" y2="53.5001" gradientUnits="userSpaceOnUse">
<stop stop-color="#E22345"/>
<stop offset="1" stop-color="#AE2182"/>
</linearGradient>
<linearGradient id="paint7_linear_2086_6944" x1="108.5" y1="53.5001" x2="117.897" y2="53.5001" gradientUnits="userSpaceOnUse">
<stop stop-color="#590F57"/>
<stop offset="1" stop-color="#35157C"/>
</linearGradient>
<linearGradient id="paint8_linear_2086_6944" x1="99.1028" y1="25.3084" x2="117.897" y2="25.3084" gradientUnits="userSpaceOnUse">
<stop stop-color="#A51758"/>
<stop offset="1" stop-color="#6D1C89"/>
</linearGradient>
<linearGradient id="paint9_linear_2086_6944" x1="108.5" y1="53.5001" x2="127.294" y2="53.5001" gradientUnits="userSpaceOnUse">
<stop stop-color="#590F57"/>
<stop offset="1" stop-color="#35157C"/>
</linearGradient>
<linearGradient id="paint10_linear_2086_6944" x1="89.7056" y1="53.5001" x2="108.5" y2="53.5001" gradientUnits="userSpaceOnUse">
<stop stop-color="#E22345"/>
<stop offset="1" stop-color="#AE2182"/>
</linearGradient>
<linearGradient id="paint11_linear_2086_6944" x1="108.5" y1="25.3084" x2="127.294" y2="25.3084" gradientUnits="userSpaceOnUse">
<stop stop-color="#590F57"/>
<stop offset="1" stop-color="#35157C"/>
</linearGradient>
<linearGradient id="paint12_linear_2086_6944" x1="89.7056" y1="25.3084" x2="108.5" y2="25.3084" gradientUnits="userSpaceOnUse">
<stop stop-color="#E22345"/>
<stop offset="1" stop-color="#AE2182"/>
</linearGradient>
<linearGradient id="paint13_linear_2086_6944" x1="99.1028" y1="53.5001" x2="117.897" y2="53.5001" gradientUnits="userSpaceOnUse">
<stop stop-color="#A51758"/>
<stop offset="1" stop-color="#6D1C89"/>
</linearGradient>
<linearGradient id="paint14_linear_2086_6944" x1="89.7056" y1="44.1028" x2="108.5" y2="44.1028" gradientUnits="userSpaceOnUse">
<stop stop-color="#F24D75"/>
<stop offset="1" stop-color="#CD51A2"/>
</linearGradient>
<linearGradient id="paint15_linear_2086_6944" x1="89.7056" y1="34.7057" x2="108.5" y2="34.7057" gradientUnits="userSpaceOnUse">
<stop stop-color="#F24D75"/>
<stop offset="1" stop-color="#CD51A2"/>
</linearGradient>
<linearGradient id="paint16_linear_2086_6944" x1="89.7056" y1="39.4043" x2="99.1027" y2="39.4043" gradientUnits="userSpaceOnUse">
<stop stop-color="#EC85AD"/>
<stop offset="1" stop-color="#F3859D"/>
</linearGradient>
</defs>
</svg>
