<svg width="217" height="107" viewBox="0 0 217 107" fill="none" xmlns="http://www.w3.org/2000/svg">
<path d="M49.6757 32.8833H38.6261C36.1508 32.8833 34.146 34.8598 34.146 37.2928V69.7073C34.146 72.145 36.1508 74.1168 38.6261 74.1168H49.6757C62.4805 74.1168 71.323 65.1049 71.323 53.3824C71.323 41.7775 62.4805 32.8833 49.6757 32.8833Z" fill="url(#paint0_linear_2086_6941)"/>
<path d="M90.848 68.8932H84.7491V57.0719C84.7491 56.7895 84.6455 56.5495 84.4432 56.3519C84.2361 56.1542 83.9914 56.0554 83.7091 56.0554C83.3985 56.0554 83.1443 56.1542 82.942 56.3519C82.7443 56.5495 82.6455 56.7895 82.6455 57.0719V69.8438C82.6455 70.1262 82.7396 70.3662 82.9326 70.5639C83.1255 70.7615 83.3702 70.8603 83.6667 70.8603H90.848C91.1445 70.8603 91.3892 70.7709 91.5821 70.5874C91.7751 70.4039 91.8692 70.1733 91.8692 69.8909C91.8692 69.5944 91.7751 69.3544 91.5821 69.1709C91.3939 68.9827 91.1492 68.8932 90.848 68.8932Z" fill="#2C3E50"/>
<path d="M114.477 60.2626C113.695 59.7684 112.825 59.5237 111.865 59.5237C111.126 59.5237 110.434 59.7073 109.785 60.0743C109.135 60.4414 108.636 60.879 108.298 61.3873V56.2249C108.298 55.9425 108.204 55.7025 108.011 55.5049C107.818 55.3072 107.573 55.2084 107.276 55.2084C106.98 55.2084 106.74 55.3025 106.552 55.4954C106.368 55.6837 106.274 55.9284 106.274 56.2249V69.9898C106.274 70.2862 106.368 70.5309 106.561 70.7192C106.754 70.9074 106.989 71.0062 107.272 71.0062C107.568 71.0062 107.813 70.9074 108.006 70.7098C108.199 70.5121 108.293 70.2721 108.293 69.9898V69.378C108.688 69.858 109.206 70.258 109.846 70.5827C110.481 70.9074 111.168 71.0674 111.907 71.0674C112.844 71.0674 113.7 70.8227 114.477 70.3286C115.258 69.8345 115.87 69.1427 116.317 68.258C116.764 67.3685 116.985 66.3756 116.985 65.2744C116.985 64.1732 116.764 63.1897 116.317 62.3144C115.865 61.4391 115.253 60.7567 114.477 60.2626ZM114.613 67.2744C114.321 67.8721 113.917 68.3474 113.389 68.6909C112.862 69.0344 112.279 69.2086 111.625 69.2086C110.961 69.2086 110.364 69.0344 109.841 68.6909C109.319 68.3474 108.909 67.8768 108.618 67.2838C108.326 66.6909 108.18 66.0226 108.18 65.2744C108.18 64.5261 108.326 63.8626 108.618 63.2744C108.909 62.6861 109.314 62.2297 109.841 61.8908C110.364 61.552 110.961 61.3826 111.625 61.3826C112.274 61.3826 112.862 61.552 113.389 61.8908C113.912 62.2297 114.321 62.6955 114.613 63.2885C114.905 63.8814 115.051 64.545 115.051 65.2744C115.051 66.0038 114.905 66.6768 114.613 67.2744Z" fill="#2C3E50"/>
<path d="M124.928 65.0861C124.434 64.8602 123.808 64.6485 123.06 64.4508C122.194 64.2249 121.554 63.9943 121.135 63.7543C120.717 63.5143 120.5 63.1473 120.486 62.6531C120.486 62.1308 120.674 61.7637 121.051 61.5425C121.427 61.3261 121.884 61.2131 122.42 61.2131C122.943 61.2131 123.423 61.3025 123.856 61.4861C124.288 61.6696 124.651 61.9284 124.952 62.2672C125.107 62.4367 125.314 62.5214 125.568 62.5214C125.78 62.5214 125.959 62.4602 126.1 62.3331C126.326 62.1214 126.439 61.9049 126.439 61.679C126.439 61.4672 126.354 61.2649 126.185 61.0672C125.761 60.5449 125.211 60.159 124.538 59.9049C123.865 59.6507 123.187 59.5237 122.51 59.5237C121.804 59.5237 121.145 59.6554 120.543 59.9237C119.94 60.1919 119.46 60.5637 119.098 61.0437C118.735 61.5237 118.557 62.079 118.557 62.7143C118.557 63.4343 118.735 64.0132 119.098 64.4602C119.46 64.9026 119.903 65.2414 120.425 65.4767C120.947 65.7073 121.606 65.9332 122.401 66.1449C123.211 66.3567 123.823 66.5873 124.241 66.8414C124.66 67.0955 124.867 67.4626 124.867 67.9426C124.867 68.465 124.66 68.8415 124.251 69.072C123.841 69.3026 123.366 69.4297 122.83 69.4438C122.152 69.4438 121.564 69.3262 121.079 69.0862C120.594 68.8462 120.133 68.4885 119.71 68.0085C119.498 67.7967 119.263 67.6932 119.008 67.6932C118.825 67.6932 118.66 67.7403 118.519 67.8391C118.222 68.0367 118.072 68.2767 118.072 68.5591C118.072 68.7426 118.138 68.9309 118.265 69.1285C118.787 69.8062 119.432 70.3003 120.19 70.6109C120.947 70.9215 121.771 71.0768 122.665 71.0768C123.357 71.0768 124.016 70.945 124.632 70.6862C125.248 70.4274 125.747 70.0509 126.128 69.5662C126.51 69.0815 126.703 68.5073 126.703 67.8438C126.703 67.1238 126.533 66.545 126.194 66.0979C125.841 65.6461 125.423 65.312 124.928 65.0861Z" fill="#2C3E50"/>
<path d="M102.683 59.6272C102.387 59.6272 102.147 59.726 101.963 59.9236C101.78 60.1213 101.686 60.366 101.686 60.6625V61.1707C101.305 60.6907 100.792 60.2954 100.147 59.9848C99.5023 59.6742 98.8058 59.5189 98.0528 59.5189C97.1163 59.5189 96.2599 59.7636 95.4834 60.2578C94.7022 60.7519 94.0904 61.4389 93.6433 62.319C93.1963 63.199 92.9751 64.1919 92.9751 65.2884C92.9751 66.3896 93.1963 67.3779 93.6433 68.2579C94.0904 69.1379 94.7069 69.8249 95.4928 70.3191C96.2787 70.8132 97.154 71.0579 98.1187 71.0579C98.8575 71.0579 99.5399 70.8838 100.18 70.5402C100.815 70.1967 101.319 69.7732 101.691 69.2838V69.8344C101.691 70.1308 101.785 70.3755 101.968 70.5638C102.152 70.752 102.392 70.8508 102.688 70.8508C102.985 70.8508 103.229 70.752 103.422 70.5544C103.615 70.3567 103.709 70.1167 103.709 69.8344V60.6578C103.709 60.3472 103.615 60.0978 103.422 59.9048C103.225 59.726 102.98 59.6272 102.683 59.6272ZM101.333 67.3073C101.041 67.9002 100.641 68.3661 100.123 68.7049C99.6058 69.0438 99.0128 69.2132 98.3493 69.2132C97.6858 69.2132 97.0928 69.0438 96.5752 68.7049C96.0575 68.3661 95.6528 67.9002 95.3657 67.3073C95.074 66.7143 94.9281 66.0461 94.9281 65.2978C94.9281 64.5496 95.074 63.8813 95.3657 63.2884C95.6575 62.6954 96.0575 62.2295 96.5752 61.8907C97.0928 61.5519 97.6858 61.3825 98.3493 61.3825C99.0128 61.3825 99.6058 61.5566 100.123 61.9001C100.641 62.2437 101.046 62.7143 101.333 63.3072C101.625 63.9002 101.771 64.5637 101.771 65.2931C101.771 66.0414 101.625 66.7143 101.333 67.3073Z" fill="#2C3E50"/>
<path d="M84.2079 52.9684H88.3115C93.0692 52.9684 96.354 49.7307 96.354 45.5236C96.354 41.3588 93.0692 38.1635 88.3115 38.1635H84.2079C83.2902 38.1635 82.542 38.874 82.542 39.7494V51.3872C82.542 52.2625 83.2855 52.9684 84.2079 52.9684ZM84.6597 40.2858H88.3115C91.7986 40.2858 94.2363 42.4412 94.2363 45.5283C94.2363 48.6624 91.7986 50.8554 88.3115 50.8554H84.6597V40.2858Z" fill="#2C3E50"/>
<path d="M107.902 50.7094C107.902 50.4835 107.822 50.2859 107.658 50.1164C107.493 49.947 107.291 49.8623 107.051 49.8623C106.853 49.8623 106.646 49.9235 106.434 50.0506C106.109 50.3612 105.733 50.6153 105.309 50.8129C104.886 51.0106 104.331 51.1094 103.653 51.1094C102.66 51.1094 101.822 50.7988 101.135 50.1776C100.448 49.5564 100.058 48.7329 99.954 47.7023H107.432C107.7 47.7023 107.935 47.6129 108.133 47.4388C108.331 47.2646 108.439 47.0482 108.453 46.794C108.439 45.7776 108.189 44.8646 107.709 44.0458C107.229 43.2269 106.589 42.5869 105.799 42.121C105.003 41.6552 104.156 41.4246 103.248 41.4246C102.326 41.4246 101.469 41.6646 100.665 42.1446C99.8646 42.6246 99.2199 43.3116 98.7305 44.2058C98.2411 45.0999 97.9963 46.1399 97.9963 47.3258C97.9963 48.4129 98.2316 49.3823 98.7069 50.2435C99.1822 51.1047 99.8552 51.7729 100.726 52.2529C101.596 52.733 102.608 52.973 103.752 52.973C104.458 52.973 105.154 52.8318 105.832 52.5494C106.509 52.2671 107.055 51.9235 107.469 51.5141C107.761 51.2741 107.902 51.0059 107.902 50.7094ZM101.192 43.9517C101.771 43.5093 102.458 43.2834 103.253 43.2834C104.02 43.2834 104.702 43.5234 105.305 44.0034C105.907 44.4834 106.241 45.0952 106.312 45.8434V46.0129H100.043C100.227 45.0858 100.608 44.394 101.192 43.9517Z" fill="#2C3E50"/>
<path d="M119.206 51.1095C119.206 50.8272 119.126 50.5966 118.961 50.4225C118.797 50.2483 118.575 50.1589 118.293 50.1589C118.138 50.1589 118.006 50.1872 117.898 50.2436C117.79 50.3001 117.667 50.3848 117.526 50.4978C117.357 50.6248 117.22 50.7142 117.121 50.7707C116.67 50.9966 116.072 51.1095 115.338 51.1095C114.632 51.1095 114.001 50.9401 113.446 50.6013C112.895 50.2625 112.467 49.7966 112.161 49.2036C111.855 48.6107 111.705 47.9424 111.705 47.1942C111.705 46.4601 111.86 45.7965 112.171 45.1942C112.481 44.5965 112.924 44.1259 113.488 43.7871C114.053 43.4483 114.707 43.2788 115.441 43.2788C115.695 43.2788 115.978 43.3071 116.293 43.3635C116.608 43.42 116.844 43.4906 117.018 43.5753C117.201 43.6883 117.338 43.7871 117.422 43.8718C117.606 43.9988 117.752 44.0883 117.86 44.1447C117.968 44.2012 118.11 44.2294 118.298 44.2294C118.538 44.2294 118.735 44.1353 118.891 43.9424C119.046 43.7541 119.126 43.5377 119.126 43.2977C119.126 42.7471 118.754 42.2953 118.011 41.9423C117.267 41.5894 116.335 41.4153 115.215 41.4153C114.138 41.4153 113.182 41.6647 112.349 42.1682C111.512 42.6671 110.862 43.3588 110.397 44.2389C109.931 45.1189 109.695 46.1024 109.695 47.1895C109.695 48.2766 109.916 49.2601 110.364 50.1401C110.811 51.0201 111.441 51.7119 112.265 52.2107C113.088 52.7096 114.034 52.9637 115.112 52.9637C115.832 52.9637 116.51 52.8743 117.14 52.6907C117.771 52.5072 118.274 52.2719 118.651 51.9801C119.018 51.6978 119.206 51.406 119.206 51.1095Z" fill="#2C3E50"/>
<path d="M171.362 42.121C170.567 41.6552 169.72 41.4246 168.811 41.4246C167.889 41.4246 167.033 41.6646 166.228 42.1446C165.428 42.6246 164.783 43.3116 164.294 44.2058C163.804 45.0999 163.56 46.1399 163.56 47.3258C163.56 48.4129 163.795 49.3823 164.27 50.2435C164.745 51.1047 165.418 51.7729 166.289 52.2529C167.16 52.733 168.171 52.973 169.315 52.973C170.021 52.973 170.717 52.8318 171.395 52.5494C172.073 52.2671 172.619 51.9235 173.033 51.5141C173.315 51.2741 173.456 51.0059 173.456 50.7094C173.456 50.4835 173.376 50.2859 173.211 50.1164C173.047 49.947 172.844 49.8623 172.604 49.8623C172.407 49.8623 172.2 49.9235 171.988 50.0506C171.663 50.3612 171.287 50.6153 170.863 50.8129C170.44 51.0106 169.884 51.1094 169.207 51.1094C168.214 51.1094 167.376 50.7988 166.689 50.1776C166.002 49.5564 165.611 48.7329 165.508 47.7023H172.986C173.254 47.7023 173.489 47.6129 173.687 47.4388C173.884 47.2646 173.993 47.0482 174.007 46.794C173.993 45.7776 173.743 44.8646 173.263 44.0458C172.793 43.2316 172.157 42.5869 171.362 42.121ZM171.875 46.0129H165.607C165.79 45.0811 166.171 44.394 166.755 43.9517C167.338 43.5093 168.021 43.2834 168.816 43.2834C169.583 43.2834 170.266 43.5234 170.868 44.0034C171.47 44.4834 171.804 45.0952 171.875 45.8434V46.0129Z" fill="#2C3E50"/>
<path d="M182.43 41.7116C182.162 41.5234 181.842 41.4246 181.475 41.4246C180.68 41.4387 179.974 41.6599 179.353 42.0928C178.732 42.521 178.261 43.0811 177.95 43.7728V42.6952C177.95 42.4128 177.856 42.1728 177.663 41.9752C177.47 41.7775 177.226 41.6787 176.929 41.6787C176.647 41.6787 176.407 41.7775 176.219 41.9752C176.026 42.1728 175.932 42.4128 175.932 42.6952V51.7447C175.932 52.0412 176.026 52.2859 176.209 52.4741C176.393 52.6624 176.633 52.7612 176.929 52.7612C177.226 52.7612 177.47 52.6624 177.663 52.4647C177.856 52.2671 177.95 52.0271 177.95 51.7447V46.6482C177.95 45.9987 178.082 45.4105 178.346 44.8834C178.609 44.3564 178.948 43.9375 179.367 43.6364C179.786 43.3352 180.214 43.1799 180.652 43.1799C180.821 43.1799 181.056 43.2269 181.353 43.3258C181.607 43.4105 181.8 43.4528 181.927 43.4528C182.181 43.4528 182.397 43.3634 182.576 43.1893C182.755 43.0152 182.84 42.7563 182.84 42.4175C182.835 42.1352 182.699 41.8999 182.43 41.7116Z" fill="#2C3E50"/>
<path d="M159.828 42.1634C159.047 41.6693 158.176 41.4246 157.216 41.4246C156.477 41.4246 155.785 41.6081 155.136 41.9752C154.487 42.3423 153.988 42.7799 153.649 43.2882V38.1257C153.649 37.8434 153.555 37.6034 153.362 37.4057C153.169 37.2081 152.924 37.1093 152.628 37.1093C152.331 37.1093 152.091 37.2034 151.908 37.3963C151.724 37.5846 151.63 37.8293 151.63 38.1257V51.8906C151.63 52.1871 151.724 52.4318 151.917 52.6201C152.11 52.8083 152.345 52.9071 152.628 52.9071C152.924 52.9071 153.169 52.8083 153.362 52.6106C153.555 52.413 153.649 52.173 153.649 51.8906V51.2789C154.044 51.7589 154.562 52.1589 155.202 52.4836C155.837 52.8083 156.524 52.9683 157.263 52.9683C158.2 52.9683 159.056 52.7236 159.832 52.2295C160.614 51.7353 161.225 51.0436 161.673 50.1588C162.12 49.2694 162.341 48.2765 162.341 47.1753C162.341 46.0741 162.12 45.0905 161.673 44.2152C161.221 43.3446 160.604 42.6576 159.828 42.1634ZM159.964 49.1753C159.672 49.773 159.268 50.2483 158.741 50.5918C158.214 50.9353 157.63 51.1094 156.976 51.1094C156.312 51.1094 155.715 50.9353 155.192 50.5918C154.67 50.2483 154.261 49.7777 153.969 49.1847C153.677 48.5918 153.531 47.9235 153.531 47.1753C153.531 46.427 153.677 45.7635 153.969 45.1752C154.261 44.5917 154.665 44.1305 155.192 43.7917C155.715 43.4529 156.312 43.2835 156.976 43.2835C157.625 43.2835 158.214 43.4529 158.741 43.7917C159.268 44.1305 159.672 44.5964 159.964 45.1894C160.256 45.7823 160.402 46.4459 160.402 47.1753C160.402 47.9047 160.256 48.5776 159.964 49.1753Z" fill="#2C3E50"/>
<path d="M145.315 41.4906C144.505 41.4906 143.743 41.7306 143.018 42.2106C142.293 42.6906 141.78 43.2271 141.465 43.82C140.943 42.2671 139.799 41.4953 138.044 41.4953C137.324 41.4953 136.651 41.6835 136.035 42.0553C135.418 42.4271 134.924 42.893 134.557 43.4389V42.7C134.557 42.4177 134.463 42.1777 134.27 41.98C134.077 41.7824 133.832 41.6835 133.536 41.6835C133.253 41.6835 133.013 41.7824 132.825 41.98C132.632 42.1777 132.538 42.4177 132.538 42.7V51.7496C132.538 52.046 132.632 52.2908 132.816 52.479C132.999 52.6672 133.239 52.7661 133.54 52.7661C133.837 52.7661 134.082 52.6672 134.274 52.4696C134.467 52.2719 134.562 52.0319 134.562 51.7496V46.1024C134.562 45.3259 134.834 44.6765 135.38 44.1448C135.926 43.6177 136.618 43.3495 137.451 43.3495C138.275 43.3495 138.858 43.5989 139.216 44.1024C139.573 44.6059 139.748 45.2695 139.748 46.1024V51.7496C139.748 52.046 139.842 52.2908 140.025 52.479C140.209 52.6672 140.449 52.7661 140.745 52.7661C141.042 52.7661 141.286 52.6672 141.479 52.4696C141.672 52.2719 141.766 52.0319 141.766 51.7496V46.1213C141.766 45.613 141.889 45.1471 142.138 44.7236C142.388 44.3001 142.731 43.9659 143.178 43.7212C143.625 43.4765 144.124 43.3495 144.675 43.3495C146.232 43.3495 147.013 44.2718 147.013 46.1213V51.7449C147.013 52.0272 147.108 52.2672 147.301 52.4649C147.494 52.6625 147.738 52.7613 148.035 52.7613C148.331 52.7613 148.571 52.6672 148.755 52.4743C148.938 52.2813 149.032 52.0413 149.032 51.7449V46.0977C149.032 43.0247 147.795 41.4906 145.315 41.4906Z" fill="#2C3E50"/>
<path d="M127.978 42.121C127.183 41.6552 126.336 41.4246 125.427 41.4246C124.505 41.4246 123.648 41.6646 122.844 42.1446C122.044 42.6246 121.399 43.3116 120.91 44.2058C120.42 45.0999 120.175 46.1399 120.175 47.3258C120.175 48.4129 120.411 49.3823 120.886 50.2435C121.361 51.1047 122.034 51.7729 122.905 52.2529C123.775 52.733 124.787 52.973 125.931 52.973C126.637 52.973 127.333 52.8318 128.011 52.5494C128.689 52.2671 129.234 51.9235 129.649 51.5141C129.931 51.2741 130.072 51.0059 130.072 50.7094C130.072 50.4835 129.992 50.2859 129.827 50.1164C129.663 49.947 129.465 49.8623 129.22 49.8623C129.023 49.8623 128.816 49.9235 128.604 50.0506C128.279 50.3612 127.903 50.6153 127.479 50.8129C127.056 51.0106 126.5 51.1094 125.823 51.1094C124.83 51.1094 123.992 50.7988 123.305 50.1776C122.618 49.5564 122.227 48.7329 122.124 47.7023H129.601C129.87 47.7023 130.105 47.6129 130.303 47.4388C130.5 47.2646 130.609 47.0482 130.623 46.794C130.609 45.7776 130.359 44.8646 129.879 44.0458C129.409 43.2316 128.773 42.5869 127.978 42.121ZM128.491 46.0129H122.223C122.406 45.0811 122.787 44.394 123.371 43.9517C123.954 43.5093 124.637 43.2834 125.432 43.2834C126.199 43.2834 126.881 43.5234 127.484 44.0034C128.086 44.4834 128.42 45.0952 128.491 45.8434V46.0129Z" fill="#2C3E50"/>
<defs>
<linearGradient id="paint0_linear_2086_6941" x1="30.1839" y1="65.4221" x2="66.5607" y2="39.9507" gradientUnits="userSpaceOnUse">
<stop stop-color="#3EC2FE"/>
<stop offset="0.9808" stop-color="#3E73FE"/>
</linearGradient>
</defs>
</svg>
