<svg width="217" height="108" fill="none" xmlns="http://www.w3.org/2000/svg"><path d="M114.124 41.153c-.346.086-.736.173-1.082.26-.951.302-1.86.216-2.811-.13-.736-.26-1.514-.52-2.293-.692-1.168-.26-2.163.13-2.984.995l-.39.389c0-.217-.043-.39 0-.476.995-2.985 3.331-4.758 6.748-4.023.995.216 1.99.433 2.942.736 1.773.519 3.46.13 5.147-.303.216-.044.433-.087.735 0-.173.13-.302.216-.475.346-1.514 1.038-2.942 2.163-3.764 3.893-.822 1.644-.951 3.374-.995 5.147a212.08 212.08 0 0 0 0 7.397c.044 3.374-.908 6.402-3.071 9.04-.086.13-.173.26-.259.347 0 .043 0 .086-.044.26.39-.217.736-.433 1.039-.65 1.946-1.47 3.633-3.2 4.282-5.623.303-1.168.476-2.422.519-3.633.087-2.769-.043-5.537.087-8.306.129-2.595.951-4.844 3.33-6.315 1.471-.908 3.071-1.6 4.715-1.99.952-.216 1.903-.432 2.898-.39 2.552.087 4.239 2.207 4.11 4.802-.087 1.687-.909 3.028-1.904 4.283-.735.908-1.557 1.687-2.335 2.552-.173.173-.303.346-.563.605.346.087.563.13.736.173 1.557.26 3.071.65 4.066 1.99.475.649.865 1.557.908 2.38.13 2.681.043 5.406.043 8.088 0 .39-.173.52-.519.649-1.687.476-3.374.865-4.974 1.557-1.86.779-3.59 1.86-5.321 2.812-.432.216-.778.303-1.254.13-1.687-.52-3.417-1.082-5.148-1.428a13.017 13.017 0 0 0-7.267.52c-1.254.475-2.249 1.513-1.687 3.07.13.303.173.65.26.995.13.822-.087 1.212-.865 1.341a1.15 1.15 0 0 1-1.298-1.081c-.043-.476-.043-1.038.173-1.428.433-.865.952-1.73 1.514-2.552.952-1.254 2.076-2.422 2.942-3.72.432-.649.605-1.557.692-2.379.086-.908-.649-1.427-1.601-1.168-.346.087-.692.26-1.038.476-.303.173-.562.433-.952.692-.259-.908-.129-1.73.346-2.465.519-.779 1.255-1.255 2.12-1.558 1.168-.389 1.341-.908 1.038-2.12-.389-1.513-2.206-2.205-3.59-1.989-.779.13-1.557.303-2.422.52.086-.823.475-1.472 1.038-2.034.908-.908 2.033-1.514 3.374-1.557.648 0 .865-.216.908-.865.173-2.769 1.557-4.975 3.59-6.791.217-.174.39-.346.606-.52.043-.13.043-.173 0-.26Zm9.776 9.862c.649-.432 1.168-.735 1.643-1.124 3.72-2.855 3.547-7.657-.389-10.079a1.164 1.164 0 0 0-.649-.216c-1.297.13-2.682 1.34-2.984 2.638-.173.65-.217 1.298-.217 1.947-.043 3.2 0 6.402-.043 9.603-.043 1.99-.346 3.98-1.903 5.45-1.038.952-2.249 1.687-3.374 2.552-.216.13-.389.303-.606.433 2.596-.26 5.148-.476 7.7.173V47.209c0-.173-.043-.433.043-.563.087-.13.303-.26.476-.302.13 0 .303.173.346.346.043.173 0 .389 0 .562-.043 1.255-.043 2.38-.043 3.763Zm0 10.122c0 1.687 0 1.687 1.6 2.206a.802.802 0 0 0 .303.087c.26.043.519.086.735 0 .606-.26 1.168-.563 1.774-.909a.658.658 0 0 0 .259-.475c.044-.736.044-1.428 0-2.163 0-.173-.216-.476-.346-.476-.865-.13-1.73-.346-2.552-.26-1.817.217-1.773.303-1.773 1.99Zm0-7.872c0 .389-.044.648 0 .865.043.173.173.39.303.39.951.129 1.86.388 2.811.345 1.428-.086 1.774-.562 1.601-1.946-.13-1.082-.779-1.774-1.774-2.163-.778-.303-1.081.346-1.6.605-.13.087-.26.217-.433.303-.735.39-1.125.908-.908 1.6Zm4.585 2.206h-4.542v3.114h4.542v-3.114ZM3.778 67.15c.173-.173.346-.39.519-.563 1.21-1.167 2.335-2.422 3.157-3.893.65-1.21.952-2.508.52-3.85-.65-2.076-2.899-2.811-4.716-1.556-.216.173-.432.302-.735.562.043-1.125.562-1.86 1.255-2.466 1.038-.908 2.249-1.254 3.59-1.211.476 0 1.081.13 1.427-.13.26-.216.217-.865.303-1.297.649-3.504 2.509-6.186 5.407-8.133.303-.216.606-.432.908-.778h-.735c-1.99.043-3.98.216-5.97.13-4.152-.173-5.58-3.59-5.363-6.402 0-.044.043-.13.087-.217.346.39.605.822.994 1.168.909.865 1.99 1.428 3.245 1.341 3.07-.173 6.142-.39 9.213-.562 2.812-.13 5.623-.39 8.435.26 2.768.605 4.758 2.249 6.143 4.671 1.557 2.769 2.292 5.796 2.422 8.954.13 3.071.043 6.186 0 9.3 0 .216-.217.52-.39.606-2.249 1.081-4.282 2.509-6.185 4.11-.39.302-.692.388-1.168.215-3.114-1.038-6.272-1.687-9.56-1.643-4.195.043-8.089 1.21-11.765 3.114-.13.043-.26.173-.433.216-.173.044-.346 0-.562 0 .086-.173.173-.389.303-.475 2.12-1.341 4.282-2.596 6.358-4.023a30.29 30.29 0 0 0 3.893-3.158c1.644-1.644 2.336-3.763 2.336-6.1 0-2.162.087-4.281-.043-6.444-.087-1.817.173-3.504 1.038-5.061-.087-.043-.087-.087-.13-.087-2.292.865-3.59 2.033-3.72 4.196-.086 1.903-.173 3.807-.086 5.71.173 3.677-1.255 6.618-3.85 9.084-1.817 1.773-3.936 3.114-6.056 4.542 0-.044-.043-.087-.086-.13ZM20.69 47.122c0 .995-.044 1.947 0 2.942 0 .26.13.605.303.778 2.032 2.033 5.363 1.99 7.353-.086.13-.13.216-.433.173-.606-.173-.908-.346-1.817-.649-2.638-.605-1.514-1.557-2.726-3.2-3.201-1.125-.303-2.293-.433-3.418-.693-.52-.086-.606.13-.606.563.044.995.044 1.99.044 2.941ZM15.76 61.267c1.167 0 2.162-.043 3.2 0 .606.043.822-.13.78-.779-.044-5.407 0-10.77-.044-16.177 0-.26.173-.693-.303-.779-.433-.043-.865-.043-1.038.476-.303 1.081-.736 2.206-.779 3.33-.13 2.596-.043 5.191-.086 7.787 0 1.6-.173 3.2-.909 4.628-.173.476-.432.865-.822 1.514Zm13.322 1.557v-3.85c0-.173-.173-.346-.302-.432-1.904-1.817-5.32-1.903-7.484-.303-.476.346-.735.735-.649 1.384.044.346.044.692 0 .995-.086.563.13.779.693.822 1.34.13 2.638.39 3.936.606 1.211.216 2.422.475 3.806.778Zm-8.391-5.277c2.811-1.125 5.537-1.687 8.348-.043.043-1.99-.043-3.764-.346-5.71-1.298.908-2.639 1.168-4.066 1.254-1.427.087-2.682-.476-3.98-1.124.044 1.903.044 3.72.044 5.623Zm182.065-6.705c1.946-1.557 3.806-3.028 5.709-4.542.865.822 1.774 1.6 2.639 2.466.303.26.476.303.779.043.475-.432.994-.778 1.514-1.21.173.172.302.302.432.475-.562.822-1.125 1.6-1.644 2.379-.173.26-.302.606-.302.952v10.77c0 .822.475 1.341 1.081 1.73.13.087.519-.043.735-.172.346-.217.606-.173.779.302-1.298 1.082-2.595 2.12-3.936 3.201-1.731-.951-2.682-2.379-2.682-4.325-.043-3.59-.043-7.18-.043-10.771 0-.606-.13-1.081-.649-1.47-.476-.347-.909-.78-1.385-1.169-.994.736-1.946 1.428-2.898 2.163-.129.087-.216.346-.216.52v10.38c0 .217.13.433.216.65.26.389.606.778.952 1.21a88.312 88.312 0 0 1-3.028 2.64c-.086.086-.346.043-.433 0a82.437 82.437 0 0 1-3.114-2.596c.087-.13.13-.26.216-.346.865-.692.995-1.6.995-2.639a367.161 367.161 0 0 1 0-9.732c0-.909-.346-1.644-1.081-2.206-.216.13-.433.26-.736.475-.129-.13-.259-.26-.432-.475a215.318 215.318 0 0 1 3.504-3.201c.086-.087.389 0 .562.086 1.384.952 2.293 2.206 2.379 3.937-.043.086 0 .172.087.475Zm-18.428-1.73v13.842c0 .52-.129.779-.648.908a17.392 17.392 0 0 0-5.624 2.898c-.259.174-.432.26-.735.044-2.206-1.557-4.672-2.596-7.31-3.201-.087 0-.13-.043-.303-.13 1.081-1.211 1.125-2.639 1.125-4.11v-9.256c0-.476.086-.735.605-.865 1.99-.606 3.72-1.6 5.277-2.985.346-.303.606-.346.995-.086 2.033 1.427 4.153 2.508 6.618 2.941Zm-4.239 14.49V51.579c0-.13-.129-.346-.216-.39-1.6-.605-3.201-1.21-4.758-1.816-.043.086-.087.13-.087.173V61.31c0 .13.13.346.217.39 1.557.648 3.114 1.254 4.844 1.903Zm-118.78.823c-1.169.995-2.337 1.99-3.548 2.941-.13.087-.432.043-.605-.043-1.471-.908-2.293-2.25-2.423-3.98 0-.173-.043-.303-.043-.562-.562.433-1.038.822-1.557 1.211-1.341 1.082-2.725 2.163-4.066 3.288-.433.346-.692.302-1.082-.044-1.124-1.168-2.163-2.422-2.552-4.023-.476-2.032 0-3.892 1.125-5.58.778-1.21 1.773-2.249 2.725-3.33.303-.346.39-.563.216-.995-.649-1.6-1.254-3.244-1.86-4.801.909-.13 1.817-.174 2.639-.433.692-.216 1.384-.649 1.99-1.081.389-.26.648-.346 1.081-.174 1.6.563 3.288 1.039 4.888 1.644.649.216 1.125.216 1.6-.303.13-.13.303-.216.563-.26-.26.477-.476.91-.736 1.385a7.212 7.212 0 0 0-.778 3.288c.043 3.33 0 6.661.043 9.992 0 .476.26.995.52 1.427.215.39.648.52 1.124.216.26-.302.519-.216.735.217Zm-11.16-9.95c-2.207 3.548-1.558 7.484 1.297 9.907 1.038-.866 2.076-1.73 3.07-2.64.13-.086.174-.302.174-.432v-4.196c0-.173-.087-.389-.216-.432-1.428-.779-2.855-1.47-4.326-2.206Zm4.541 1.471v-4.282c0-.476-.13-.692-.606-.865-1.773-.605-3.503-1.298-5.234-1.947a7.317 7.317 0 0 1-.605-.172c.605 1.687 1.211 3.287 1.773 4.844.044.087.13.216.26.26 1.427.735 2.855 1.427 4.412 2.163Zm99.013 7.57c.519.346.519.65.043.995-1.081.865-2.076 1.817-3.157 2.682-.173.13-.563.173-.692.087-1.601-1.212-3.245-2.293-5.105-3.072-.043 0-.043-.043-.129-.173 1.168-1.21 1.124-2.725 1.124-4.282V49.415h-1.6c.086-.346.13-.649.259-.822a568.33 568.33 0 0 1 5.58-7.05c.044.302.044.475.044.648 0 1.427.043 2.898 0 4.326 0 .475.173.605.605.605 1.125-.043 2.25 0 3.374 0 .476 0 .606.173.606.606 0 1.687 0 1.687-1.644 1.687h-2.422c-.39 0-.519.13-.519.519v12.112c0 .216.173.519.346.692.476.476 1.038.865 1.557 1.34.346.347.606.347.952 0 .259-.216.519-.389.778-.562Zm-84.176-13.41a309.254 309.254 0 0 1 4.498-3.416 190.322 190.322 0 0 0 2.899 3.114c-.995.865-1.947 1.687-2.942 2.552-.908-.865-1.773-1.73-2.682-2.595-.519.39-1.038.778-1.514 1.168-.13.086-.173.346-.173.519v10.814c0 .216.173.476.346.605.52.433 1.082.822 1.6 1.255.347.303.606.346.91 0 .216-.216.518-.39.864-.606.13.173.26.346.476.606-1.34 1.168-2.682 2.293-3.893 3.33-1.946-1.167-3.806-2.249-5.71-3.417 1.212-1.167 1.038-2.854 1.038-4.455v-7.397c0-.995-.302-1.6-1.08-2.206-.39.087-.78.692-1.169-.086a55.5 55.5 0 0 1 1.644-1.428c.432-.39.908-.778 1.34-1.168.823-.735.823-.735 1.731-.13 1.038.693 1.644 1.601 1.817 2.942Zm98.148-.734c-.606.865-1.125 1.643-1.73 2.379-.087.13-.476.13-.606.043-.995-.52-1.946-1.081-2.941-1.644l-.606-.303c0 .26-.043.433-.043.65v11.419c0 .432.13.649.519.822.951.432 1.903.908 2.855 1.427.389.216.692.216 1.081-.086.433-.39.909-.692 1.384-1.038.173.173.26.302.433.475a1545.09 1545.09 0 0 1-5.364 3.937c-1.86-1.298-3.806-2.336-6.142-2.855 1.297-1.298 1.211-2.898 1.211-4.456v-9.516c0-.432.13-.692.519-.865 1.644-.692 3.114-1.687 4.499-2.855.346-.303.562-.346.995-.087 1.211.866 2.552 1.688 3.936 2.553ZM85.618 63.906c-1.254.994-2.509 2.033-3.763 3.028-.13.086-.476.043-.692-.044-1.557-.908-2.38-2.206-2.38-4.066.044-3.806.044-7.656.087-11.463 0-.822-.173-1.47-.822-1.99-.173-.13-.302-.302-.476-.519 1.082-.908 2.163-1.773 3.288-2.725 1.081.909 2.163 1.774 3.2 2.639.087.087.044.433-.042.52-.822.605-.822 1.47-.822 2.378.043 3.46 0 6.921.043 10.382 0 .475.26.995.562 1.427.26.433.692.649 1.212.216.086-.086.389.044.605.044v.173Zm-5.45-19.812c.346-1.514.649-2.898.995-4.282.043-.13.26-.303.389-.303.908-.043 1.86 0 2.985 0-1.341 1.6-2.552 3.071-3.764 4.499-.086.043-.302.043-.605.086ZM43.573 63.906c-1.254.994-2.465 1.99-3.677 2.984-.173.13-.519.13-.735 0-1.687-.951-2.466-2.379-2.422-4.369.086-3.98.086-8.002.086-11.982 0-.259-.173-.519-.346-.692-.26-.346-.605-.648-.951-1.038 1.124-.951 2.206-1.816 3.287-2.725 1.125.952 2.25 1.86 3.374 2.812-.043.086-.043.216-.13.26-.865.648-.951 1.556-.951 2.595.043 3.46.043 6.877 0 10.338 0 .649.216 1.081.648 1.514.346.303.65.476 1.039.086.346-.302.605-.216.778.217Zm-1.081-24.397c-.563.692-1.038 1.255-1.47 1.817-.693.822-1.342 1.644-2.034 2.422-.173.173-.39.26-.735.476 0-.346 0-.476.043-.605.303-1.255.562-2.466.865-3.72.043-.174.26-.39.39-.39.864-.043 1.773 0 2.94 0Zm92.308 9.473c1.038-.865 2.033-1.687 3.028-2.509.087-.086.389-.13.476-.043 1.038.865 2.076 1.73 3.158 2.596-.087.13-.13.26-.217.346-.778.605-.865 1.384-.865 2.292.044 3.504.044 7.008 0 10.511 0 .606.217 1.082.606 1.471.346.346.692.52 1.168.13.13-.087.432 0 .649 0 0 .086.043.13.043.216-.606.476-1.168.952-1.774 1.428-.519.432-1.081.822-1.557 1.297-.519.52-.951.476-1.471.043-1.427-1.038-2.033-2.422-2.033-4.195.087-3.98.044-7.96.044-11.896 0-.216-.13-.475-.303-.649-.26-.302-.562-.648-.952-1.038Zm6.964-9.3c-.648.779-1.167 1.384-1.643 1.99-.606.735-1.255 1.514-1.86 2.25-.173.172-.39.259-.606.389-.043-.044-.13-.087-.173-.13.087-.476.216-.952.303-1.47.216-.866.389-1.731.649-2.596.043-.173.259-.433.389-.433h2.941ZM186.881 48.94c1.124-.91 2.163-1.774 3.287-2.683 1.125.952 2.25 1.86 3.374 2.812-.086.13-.086.26-.173.346-.735.606-.865 1.384-.865 2.293.043 3.503 0 7.05.043 10.597 0 .476.303.995.606 1.385.259.389.649.562 1.125.173.129-.087.432 0 .648 0 0 .086.044.173.044.26l-2.077 1.686c-.519.433-1.038.865-1.6 1.255-.173.13-.562.173-.779.086-1.557-.908-2.422-2.206-2.422-4.023.043-3.893.043-7.786.086-11.679 0-.735-.129-1.254-.692-1.73-.216-.303-.389-.563-.605-.779Zm6.921-9.3-.519.691c-.995 1.168-1.947 2.336-2.942 3.504-.173.216-.432.303-.692.476-.043-.043-.13-.087-.173-.173.216-.952.433-1.904.649-2.898.389-1.6.389-1.6 2.033-1.6h1.644ZM101.795 49.76c0-.172-.216-.475-.389-.518-2.25-.476-4.24-1.558-6.186-2.769-.389-.26-.648-.26-.995.043-1.557 1.385-3.33 2.423-5.32 3.028-.433.13-.519.346-.519.779v9.473c0 1.384-.043 2.768-1.168 3.936 2.855.65 5.364 1.687 7.656 3.288.13.086.476.086.606-.043 1.773-1.385 3.763-2.38 5.926-3.072.173-.043.389-.346.389-.519.044-4.498.044-9.084 0-13.625ZM97.6 63.474c0 .043-.044.13-.087.303-1.6-.606-3.158-1.212-4.715-1.817-.13-.043-.303-.303-.303-.476V50.107c0-.13 0-.303.043-.52.303.087.563.174.866.303 1.254.476 2.552.952 3.806 1.471.217.087.433.346.433.562 0 3.807-.043 7.7-.043 11.55Z" fill="#0B0B0B"/></svg>