<svg width="217" height="108" fill="none" xmlns="http://www.w3.org/2000/svg"><g clip-path="url(#a)"><path d="M67.91 69.606V38.411c.13-.01.255-.026.38-.026 3.031.005 6.062-.035 9.09.03 3.297.072 6.523.575 9.538 2.004 4.199 1.99 6.687 5.32 7.532 9.855.625 3.355.5 6.693-.695 9.926-1.394 3.777-4.1 6.277-7.79 7.768-2.455.991-5.023 1.5-7.656 1.567-3.377.085-6.757.064-10.135.088-.072 0-.143-.009-.265-.016Zm9.722-22.266v13.428c.822-.105 1.62-.15 2.392-.317 2.437-.524 4.127-1.881 4.695-4.402.246-1.087.258-2.184.145-3.295-.425-4.185-3.925-5.516-7.232-5.415Z" fill="#FBCD24"/><path d="M141.581 69.595V67.73c0-3.711.003-7.423-.008-11.134 0-.246-.065-.52-.183-.736-3.064-5.64-6.138-11.275-9.21-16.91-.087-.162-.169-.327-.291-.564h.442c3.424-.001 6.848.003 10.271-.01.312 0 .461.11.602.368 1.078 1.993 2.171 3.978 3.258 5.966.034.063.071.124.138.243l.834-1.535c.848-1.57 1.691-3.146 2.553-4.71.08-.144.286-.31.435-.31 3.569-.017 7.138-.012 10.708-.01.024 0 .048.015.117.04-.451.833-.894 1.66-1.344 2.483-2.726 4.998-5.455 9.994-8.173 14.996a1.518 1.518 0 0 0-.164.7c-.009 4.162-.007 8.324-.007 12.487v.5h-9.979.001ZM129.05 57.825h-8.269V69.6h-9.961V38.408h18.335v8.185h-8.356v3.436h8.251v7.796ZM97.506 69.6V38.415h10.546v31.183H97.506Z" fill="#3A3A3A"/><path d="M65.181 61.605a4.696 4.696 0 0 1-4.709 4.712c-2.615 0-4.72-2.1-4.72-4.709 0-2.627 2.108-4.713 4.76-4.71 2.577.003 4.67 2.111 4.669 4.707ZM65.181 46.417c-.002 2.604-2.11 4.695-4.732 4.693-2.596-.004-4.698-2.122-4.696-4.734.001-2.602 2.11-4.689 4.736-4.686 2.612.003 4.694 2.1 4.692 4.727Z" fill="#FBCD24"/></g><defs><clipPath id="a"><path fill="#fff" transform="translate(55.752 38.377)" d="M0 0h105.495v31.246H0z"/></clipPath></defs></svg>