<svg xmlns="http://www.w3.org/2000/svg" width="217" height="108" fill="none"><g clip-path="url(#a)"><path fill="url(#b)" d="M70.516 52.809c-.045 4.816-1.353 8.77-3.964 12.261-1.338 1.79-1.389 3.568-.363 5.47.542 1.004 1.322 1.847 1.933 2.803.22.342.51.71.293 1.128-.243.472-.746.415-1.183.388-.94-.057-1.753-.502-2.585-.88-1.695-.773-3.368-1.592-5.246-1.868a7.035 7.035 0 0 0-3.089.21c-3.953 1.174-7.964 1.29-11.86-.03-7.755-2.629-12.535-8-13.875-16.108-1.697-10.288 5.06-20.184 15.21-22.532 11.374-2.632 22.577 4.828 24.47 16.313.18 1.086.322 2.186.26 2.845Zm-24.968 5.226h.7c3.04 0 6.08.015 9.12-.008.544-.004.687.322.86.706.49 1.089.811 2.259 1.553 3.23.92 1.202 2.767 1.564 4.101.797 1.115-.64 1.342-1.854.642-3.435-.052-.116-.107-.229-.16-.343-2.48-5.313-4.958-10.63-7.443-15.941-.36-.771-.659-1.572-1.134-2.286-.98-1.471-2.406-1.994-4.115-1.555-1.305.337-1.971 1.298-2.493 2.41-1.926 4.11-3.844 8.226-5.76 12.343-.88 1.886-1.783 3.762-2.617 5.667-.563 1.286-.23 2.419.796 3.096 1.244.822 3.216.459 4.066-.761.82-1.176 1.195-2.57 1.886-3.922l-.002.002Z"/><path fill="#4E4E4E" d="M156.511 64.524c2.162.953 3.092 2.934 3.932 4.872.7 1.612-1.224 3.4-3.186 3.134-.967-.131-1.717-.575-2.229-1.427-.65-1.081-1.404-2.105-1.983-3.222-.738-1.427-1.884-1.91-3.412-1.897-2.538.023-4.871-.683-6.919-2.206-2.406-1.789-3.755-4.228-4.232-7.142-.501-3.055-.295-6.05 1.193-8.834 1.73-3.237 4.508-5.05 8.111-5.574 3.596-.521 7.024-.084 9.971 2.251 2.998 2.375 4.166 5.614 4.197 9.327.036 4.375-1.405 8.033-5.243 10.493-.074.048-.124.136-.2.223v.002ZM144.63 53.996c-.044 1.34.158 2.642.712 3.867.856 1.894 2.32 2.923 4.425 3.019 2.234.1 3.979-.725 4.955-2.773 1.247-2.615 1.239-5.323.124-7.962-.91-2.153-2.695-3.055-5.019-2.971-2.238.082-3.739 1.2-4.588 3.214-.481 1.144-.66 2.36-.609 3.605v.001ZM86.437 51.35h9.412c.217-.306.114-.629.116-.932.012-1.863-.032-3.726.021-5.587.052-1.753 1.226-2.754 3.081-2.738 1.806.015 2.893 1.012 2.984 2.738.008.158.004.316.004.474 0 5.808.002 11.616 0 17.424 0 2.514-1.658 3.76-4.088 3.093-1.31-.362-1.979-1.293-1.99-2.85-.016-2.142-.004-4.285-.004-6.498h-9.534v2.405c0 1.357.053 2.718-.016 4.071-.11 2.122-1.221 3.094-3.303 3.01-1.85-.075-2.83-1.158-2.834-3.18-.008-4.639-.002-9.28-.002-13.92 0-1.231-.015-2.463.004-3.694.038-2.618 2.588-4.004 4.859-2.643.694.416 1.061 1.058 1.177 1.85.24 1.634.067 3.277.113 4.915.019.659.004 1.317.004 2.06l-.004.003ZM179.779 60.998h-10.324c-.607 1.138-.937 2.369-1.595 3.446-.824 1.346-2.143 1.842-3.654 1.372-1.29-.401-1.901-1.478-1.56-2.795.285-1.108.875-2.088 1.351-3.114 2.344-5.058 4.706-10.109 7.051-15.165.597-1.29 1.404-2.325 2.9-2.601 1.741-.322 3.233.517 4.101 2.346 1.214 2.561 2.401 5.136 3.598 7.705 1.502 3.226 3.003 6.454 4.503 9.681.225.485.457.965.516 1.511.156 1.424-.695 2.453-2.134 2.55-1.75.12-2.637-.367-3.417-1.954-.47-.96-.876-1.949-1.336-2.984v.002Zm-5.19-12.248-3.136 7.483h6.286l-3.15-7.483ZM113.325 66.004c-2.912 0-5.553-.734-7.348-3.185-2.082-2.843-2.213-6.012-.851-9.15 1.329-3.056 3.984-4.331 7.2-4.57 1.296-.094 2.592-.05 3.865.265 4.133 1.028 6.514 4.543 6.093 8.99-.462 4.89-3.684 7.64-8.955 7.649l-.004.001Zm3.01-8.457c.012-.726-.053-1.446-.285-2.14-.415-1.237-1.418-1.968-2.7-1.974-1.319-.008-2.324.664-2.741 1.907a6.748 6.748 0 0 0-.004 4.358c.421 1.262 1.41 1.941 2.716 1.94 1.288 0 2.284-.71 2.718-1.953.241-.691.308-1.41.296-2.14v.002ZM131.725 49.452c1.085 0 2.029-.015 2.973.004 1.197.023 1.878.631 1.971 1.728.131 1.53-.352 2.308-1.631 2.525-.525.09-1.069.084-1.606.099-.531.015-1.064.004-1.671.004 0 1.903-.068 3.726.025 5.541.061 1.218.839 1.82 2.082 1.898.542.034 1.066-.086 1.598-.166.88-.13 1.369.158 1.494.91.143.843.135 1.697-.169 2.521-.253.684-.775 1.076-1.458 1.224-1.886.411-3.773.404-5.621-.19-2.373-.763-3.721-2.691-3.862-5.607-.081-1.699-.03-3.406-.04-5.11v-.96c-1.037-.149-2.129.091-2.886-.773-.4-.455-.453-1.035-.442-1.606.029-1.542.565-1.886 3.26-2.097.148-.663.046-1.351.067-2.03.034-1.099.3-2.098 1.372-2.616 1.149-.555 2.346-.525 3.457.117.777.447 1.053 1.235 1.081 2.095.027.784.006 1.568.006 2.49v-.001Z"/><path fill="#53B8BB" d="m50.797 45.967 3.052 7.28h-6.29l3.028-7.267c.07-.003.139-.007.21-.013Z"/></g><defs><linearGradient id="b" x1="35.533" x2="70.531" y1="37.059" y2="76.721" gradientUnits="userSpaceOnUse"><stop stop-color="#30E6A2"/><stop offset="1" stop-color="#8672E1"/></linearGradient><clipPath id="a"><path fill="#fff" d="M30.317 33.122h156.367v41.757H30.315z"/></clipPath></defs></svg>