<svg width="217" height="107" viewBox="0 0 217 107" fill="none" xmlns="http://www.w3.org/2000/svg">
<g clip-path="url(#clip0_1198_2802)">
<path d="M183.667 66.2684H178.507V71.4304H183.667V66.2684Z" fill="#3644F4"/>
<path d="M71.517 61.3597L66.5666 59.0966L65.9044 60.6056C64.4824 63.8455 61.1124 66.1525 57.2713 66.1525C52.0626 66.1525 48.0163 62.255 48.0163 56.7285C48.0163 51.2351 51.975 47.2508 57.3254 47.2508C61.2177 47.2508 64.4669 49.5522 65.784 52.7157L66.3813 54.15L71.4621 52.2876L70.8508 50.7495C68.7555 45.4761 63.5381 41.9196 57.3254 41.9196C48.9012 41.9196 42.4957 48.3016 42.4957 56.7285C42.4957 65.2182 48.9101 71.4298 57.1631 71.4298C63.3587 71.4298 68.6686 67.894 70.8845 62.8105L71.517 61.3597Z" fill="black"/>
<path fill-rule="evenodd" clip-rule="evenodd" d="M88.9819 71.4298C97.3883 71.4298 103.812 65.173 103.812 56.7285C103.812 48.3643 97.469 41.9196 88.9819 41.9196C80.5444 41.9196 74.2063 48.3687 74.2063 56.7285C74.2063 65.1105 80.6207 71.4298 88.9819 71.4298ZM79.7267 56.7285C79.7267 62.1577 83.7293 66.1525 89.0359 66.1525C94.2782 66.1525 98.2912 62.1143 98.2912 56.7285C98.2912 51.2351 94.2782 47.2508 89.0359 47.2508C83.7343 47.2508 79.7267 51.2404 79.7267 56.7285Z" fill="black"/>
<path fill-rule="evenodd" clip-rule="evenodd" d="M130.827 70.8912H136.348V35.2958H130.827V45.3235C128.367 43.2328 125.174 42.0271 121.626 42.0271C113.608 42.0271 107.608 48.4386 107.608 56.7284C107.608 65.0182 113.608 71.4297 121.626 71.4297C125.18 71.4297 128.371 70.1965 130.827 68.0768V70.8912ZM113.183 56.7284C113.183 62.2508 117.004 66.1524 121.842 66.1524C127.005 66.1524 130.935 62.1947 130.935 56.6746C130.935 51.224 127.02 47.3045 121.842 47.3045C117.004 47.3045 113.183 51.2061 113.183 56.7284Z" fill="black"/>
<path fill-rule="evenodd" clip-rule="evenodd" d="M165.01 42.5118V45.4001C162.586 43.2561 159.386 41.9733 155.755 41.9733C147.602 41.9733 141.467 48.3561 141.467 56.7284C141.467 65.0419 147.543 71.4297 155.701 71.4297C159.354 71.4297 162.568 70.1313 165.01 67.9529V70.8912H170.477V42.5118H165.01ZM147.041 56.7284C147.041 62.2226 150.891 66.1524 155.918 66.1524C161 66.1524 164.956 62.1133 164.956 56.5669C164.956 51.2131 161.03 47.2507 155.972 47.2507C150.944 47.2507 147.041 51.235 147.041 56.7284Z" fill="black"/>
<path d="M33.4197 42.8459L38.5444 42.8256L38.4577 70.6086L33.333 70.6288L33.4197 42.8459Z" fill="black"/>
</g>
<defs>
<clipPath id="clip0_1198_2802">
<rect width="150.334" height="36.409" fill="white" transform="translate(33.333 35.2955)"/>
</clipPath>
</defs>
</svg>
