<svg width="217" height="107" viewBox="0 0 217 107" fill="none" xmlns="http://www.w3.org/2000/svg">
<path d="M108.032 66.6681H103.506V48.956H108.032V66.6681ZM103.033 42.5796C103.033 41.0052 104.293 39.9425 105.867 39.9425C107.245 39.9425 108.465 41.0052 108.465 42.5796C108.465 44.3115 107.245 45.4136 105.867 45.4136C104.253 45.4136 103.033 44.3115 103.033 42.5796ZM113.346 59.9375V44.036H117.872V48.956H123.579V53.2069H117.872V59.662C117.872 61.7874 118.581 62.8501 119.998 62.8501C120.903 62.8501 121.808 62.4959 122.713 61.8268L124.091 65.3298C122.674 66.4713 120.942 67.0617 118.856 67.0617C114.959 67.0617 113.346 64.6607 113.346 59.9375ZM141.095 61.7087L142.394 64.8969C140.662 66.3532 138.418 67.101 135.624 67.101C132.75 67.101 130.467 66.2351 128.696 64.5426C126.964 62.8501 126.098 60.6066 126.098 57.812C126.098 55.1749 126.964 52.9707 128.657 51.1995C130.349 49.4283 132.632 48.523 135.466 48.523C137.788 48.523 139.796 49.3102 141.41 50.8453C143.023 52.3803 143.85 54.3483 143.85 56.7493C143.85 57.7333 143.771 58.5599 143.574 59.1896H130.782C131.137 61.8268 133.262 63.3225 136.096 63.3225C138.103 63.3225 139.756 62.7714 141.095 61.7087ZM135.269 52.3016C132.711 52.3016 131.137 53.6005 130.625 56.1589H139.323C139.363 53.9547 137.788 52.3016 135.269 52.3016ZM155.658 53.2069H146.644V48.956H161.995V52.2229L152.391 62.4565H161.798V66.6681H146.054V63.4012L155.658 53.2069Z" fill="#6A42E9"/>
<path d="M72.4198 36.0066C82.0812 36.0066 89.9132 43.8387 89.9132 53.5C89.9132 63.1614 82.0812 70.9934 72.4198 70.9934C62.7585 70.9934 54.9264 63.1614 54.9264 53.5C54.9264 43.8387 62.7585 36.0066 72.4198 36.0066ZM76.6816 41.2612L73.601 49.7193C73.5912 49.7462 73.5862 49.7747 73.5862 49.8033C73.5862 49.939 73.6962 50.0489 73.8318 50.0489H79.6603C79.7013 50.0489 79.7416 50.0592 79.7775 50.0787C79.8968 50.1434 79.9409 50.2925 79.8762 50.4117L71.1958 66.399C71.5987 66.4368 72.007 66.4561 72.4198 66.4561C79.5752 66.4561 85.3759 60.6554 85.3759 53.5C85.3759 47.8376 81.7434 43.0237 76.6816 41.2612ZM70.3603 40.7067C64.1837 41.6933 59.4637 47.0455 59.4637 53.5C59.4637 59.0846 62.9971 63.8439 67.9502 65.6644L71.3711 54.7794C71.3785 54.7556 71.3824 54.7308 71.3824 54.7058C71.3824 54.5702 71.2724 54.4602 71.1367 54.4602H66.1986C66.1726 54.4602 66.1469 54.4561 66.1222 54.448C65.9933 54.4058 65.923 54.2671 65.9652 54.1382L70.3603 40.7067Z" fill="#6A42E9"/>
</svg>
