<svg width="217" height="108" fill="none" xmlns="http://www.w3.org/2000/svg"><g clip-path="url(#a)" fill="#000"><path d="M100.916 58.245c.539-.799 1.051-1.563 1.567-2.324 1.398-2.064 2.792-4.131 4.204-6.186.183-.266.173-.44-.002-.695-1.881-2.753-3.75-5.512-5.622-8.27-.037-.056-.068-.117-.127-.218h73.266c-.508.752-.992 1.468-1.477 2.182-1.43 2.11-2.856 4.224-4.297 6.326-.172.251-.164.415.005.662 1.855 2.718 3.697 5.446 5.542 8.17.069.103.128.21.217.353h-73.276ZM112.88 47.25v1.017h3.728v1.375h-2.975v.985h2.973v1.24h-3.257v1.029h3.251v1.322h-3.971v1.037h3.992v1.94h1.103V55.25h4.541v-1.053h-4.52v-1.33h3.686v-1.005h-3.69v-1.266h3.281v-2.357h1.109v-1.003h-1.141v-2.352h-3.293V43.74h-1.079v1.178h-2.929v.958h2.916v1.372h-3.724l-.001.001Zm49.949 7.096c.11-.125.18-.211.257-.29a9.231 9.231 0 0 0 2.128-3.535c.124-.38.103-.808.155-1.257h-2.97v-2.32h3.474v-1.067h-3.509v-2.022h-1.085v2.042h-3.466v1.052h3.456v2.332h-3.191v1.002c.117.012.218.044.308.027.367-.068.488.12.604.442.198.551.419 1.108.728 1.601.435.694.96 1.333 1.465 2.02-1.111.903-2.453 1.45-3.846 1.971l.526.909a14.701 14.701 0 0 0 4.172-2.205c1.166.89 2.381 1.62 3.724 2.174l.564-.91c-1.238-.552-2.421-1.117-3.492-1.964l-.002-.002Zm-19.238-10.34-5.115.892.211.967 2.155-.24v2.079h-2.351v1.073h2.195c-.043.148-.064.257-.104.357a11.706 11.706 0 0 1-2.289 3.642c-.096.103-.226.275-.197.375.101.362.264.707.419 1.1.977-1.12 1.67-2.32 2.254-3.591l.093.026v6.44h1.112V50.53l1.883 2.07.63-.955c-.737-.65-1.441-1.313-2.192-1.916-.344-.276-.407-.554-.286-.973h1.93v-1.074h-1.959v-2.25l1.977-.463c-.145-.384-.266-.705-.366-.966v.002Zm-10.647 2.042v-2.192h-1.106v2.14h-2.006l.451-1.517a378.23 378.23 0 0 0-.91-.195 3581.9 3581.9 0 0 0-1.711 3.934l.836.529c.218-.393.453-.73.598-1.101.188-.48.455-.69.996-.634.577.06 1.164.014 1.734.014v2.358h-4.301v.968h9.321v-1.003h-3.867v-2.335h3.24v-.965h-3.276.001Zm22.817.39v-2.674c-.237 0-.433.022-.622-.004-.383-.053-.482.11-.469.473.025.723.007 1.448.007 2.212h-1.72v1.096h1.719c0 .996-.019 1.95.011 2.901.011.377-.108.548-.47.64-.522.134-1.031.322-1.573.496l.277 1.072c.596-.213 1.146-.41 1.724-.615.014.136.031.228.031.322.002.995.006 1.99 0 2.985-.003.59-.21.776-.801.736-.274-.018-.548-.046-.873-.075.082.384.15.705.223 1.041.432 0 .823.003 1.214 0 .902-.007 1.318-.415 1.321-1.308.004-1.275.011-2.55-.004-3.826-.004-.283.082-.43.344-.537a9.293 9.293 0 0 0 1.01-.515c.098-.054.217-.165.227-.261.031-.285.011-.575.011-.933l-1.558.786v-2.934h1.493V46.44h-1.521l-.001-.002Zm-25.932 10.128h4.929l.045.62h1.03v-5.433h-7.073v5.425h1.03l.04-.612h-.001Zm19.196-4.496-4.719.774.185 1.065 4.546-.734v3.965h1.109v-4.143l1.48-.26-.187-1.053-1.315.197v-8.025h-1.1v8.213h.001Zm-38.488 4.993 1.882-5.334c-.402-.152-.707-.268-.998-.38l-1.994 5.243 1.11.471Zm14.556.148 1.94-5.326-.986-.398-2.031 5.24 1.077.484Zm19.45-8.56c.94.818 1.839 1.603 2.748 2.397l.799-.767-2.755-2.385-.792.754Zm3.878-1.772c-.776-.863-1.638-1.547-2.535-2.189-.062-.044-.223-.03-.287.02-.223.178-.424.386-.619.568l2.703 2.277.738-.676Zm-21.51 2.779-2.331-2.154-.791.765 2.274 2.128.847-.739h.001Zm-15.52.652.87-.722-2.317-2.184-.744.804 2.192 2.102h-.001Zm1.144-4.464-2.222-1.908-.756.796 2.238 1.922.74-.81Zm14.646.065-2.227-1.887-.802.759 2.243 1.904.786-.776ZM86.667 78.906c-1.84 1.014-3.608 1.983-5.371 2.96a1039.464 1039.464 0 0 0-6.42 3.582c-1.023.577-2.014.508-2.983-.09-1.048-.648-2.066-1.346-3.12-1.984-1.498-.906-3.03-1.756-4.52-2.674a5.451 5.451 0 0 1-1.358-1.156c-.252-.31-.41-.793-.406-1.197.008-1.171.119-2.34.191-3.56.4.233.787.45 1.164.683 2.503 1.543 5.003 3.092 7.51 4.63.344.212.704.408 1.079.559.975.394 1.935.289 2.825-.24.95-.562 1.866-1.179 2.841-1.8-.452-.276-.897-.549-1.343-.82-4.334-2.632-8.667-5.268-13.007-7.889-.719-.435-1.07-1.02-1.03-1.868.055-1.148.067-2.298.113-3.446.011-.263-.063-.428-.269-.603-1.201-1.02-1.681-2.348-1.403-3.876.283-1.55 1.24-2.615 2.734-3.14 1.625-.57 3.497.035 4.545 1.427 1.065 1.417 1.127 3.35.074 4.783-.347.472-.847.841-1.312 1.212-.186.148-.278.267-.27.505.035 1.343.664 2.375 1.749 3.09 1.214.801 2.49 1.51 3.734 2.264 4.084 2.476 8.167 4.955 12.25 7.433l2.002 1.213.001.002ZM65.153 58.615c-1.036-.029-2.22.805-2.24 2.252-.016 1.248 1.027 2.26 2.24 2.258 1.263 0 2.285-1.015 2.275-2.258-.01-1.277-1.004-2.26-2.275-2.252Z"/><path d="M100.729 53.261c0 1.64.005 3.195 0 4.75-.011 2.887-.035 5.774-.036 8.661 0 1.122-.43 1.988-1.416 2.535-1.225.679-2.475 1.313-3.693 2.004-1.498.85-2.978 1.733-4.46 2.61-1.157.687-2.254.682-3.359-.15-.734-.554-1.533-1.022-2.331-1.548 1.155-.662 2.294-1.334 3.452-1.973 1.813-1.003 3.637-1.986 5.458-2.974.9-.487 1.672-1.1 1.98-2.123a3.91 3.91 0 0 0 .175-1.197c-.026-1.076-.105-2.152-.166-3.281-.596.33-1.19.652-1.78.985-4.308 2.427-8.614 4.855-12.92 7.285-.685.386-1.352.383-2.025-.035a173.629 173.629 0 0 0-3.053-1.855.617.617 0 0 0-.455-.058c-2.453.856-5.01-.615-5.453-3.15-.377-2.169 1.076-4.295 3.216-4.702 2.192-.416 4.34.964 4.786 3.084.065.313.13.64.11.956-.022.321.077.465.366.596 1.182.531 2.347.42 3.44-.171 1.625-.88 3.198-1.854 4.809-2.761 3.857-2.17 7.723-4.325 11.586-6.487.57-.32 1.138-.644 1.77-1.001h-.001Zm-26.047 7.534a2.281 2.281 0 0 0-2.27 2.318c.015 1.203 1.033 2.2 2.252 2.206 1.256.007 2.267-1.029 2.267-2.322 0-1.179-1.047-2.203-2.249-2.202ZM49.128 56.331c0 .99.03 2.009-.006 3.025-.084 2.408-.204 4.815-.299 7.223-.075 1.938.563 2.938 2.321 3.78.668.319 1.297.718 1.945 1.08.092.05.187.097.327.17.04-1.014.086-1.974.116-2.935.146-4.608.292-9.217.431-13.826.026-.845.367-1.476 1.136-1.863.938-.472 1.87-.958 2.806-1.433.225-.113.346-.241.375-.53.198-2.018 1.929-3.637 3.892-3.676 2.129-.042 3.922 1.41 4.21 3.462.224 1.6-.296 2.947-1.611 3.91-1.325.967-2.765 1.067-4.244.357-.227-.108-.387-.076-.582.036-1.293.744-1.834 1.947-1.916 3.353-.09 1.523-.049 3.055-.097 4.581-.123 3.922-.264 7.844-.397 11.766l-.127 3.824c-.005.152-.015.303-.026.52-.177-.102-.319-.178-.455-.263-3.078-1.919-6.154-3.842-9.236-5.754-.583-.362-1.194-.677-1.787-1.023-.862-.504-1.363-1.245-1.364-2.258-.001-.784.065-1.567.086-2.351.064-2.368.11-4.735.189-7.102.016-.47.097-.95.235-1.398a2.058 2.058 0 0 1 1.102-1.265c1.004-.486 2.016-.954 2.977-1.408l-.001-.002Zm13.276-7.148c-1.28-.019-2.293.955-2.309 2.218a2.24 2.24 0 0 0 2.194 2.29 2.272 2.272 0 0 0 2.314-2.266 2.235 2.235 0 0 0-2.2-2.242Z"/><path d="M94.195 51.034c0-1.203-.009-2.308.001-3.413.022-2.326.05-4.652.08-6.978.013-1.095-.249-2.085-1.097-2.843a3.281 3.281 0 0 0-.683-.485c-.97-.493-1.953-.964-2.997-1.476v.44c.007 5.367 0 10.736.032 16.104.006 1.045-.364 1.764-1.306 2.23-.79.392-1.542.858-2.318 1.276-.209.112-.293.243-.311.485-.138 1.815-1.485 3.338-3.233 3.677-1.845.357-3.673-.531-4.5-2.187-.758-1.521-.484-3.4.675-4.607 1.235-1.29 3.076-1.673 4.662-.926.318.151.503.085.733-.101.937-.758 1.366-1.776 1.4-2.94.04-1.415-.008-2.83-.01-4.246l-.027-14.296c-.002-.766 0-1.53 0-2.375.77.44 1.472.835 2.169 1.24 2.495 1.448 4.984 2.906 7.483 4.345.668.384 1.365.714 2.044 1.078.928.497 1.44 1.275 1.475 2.329.024.742-.016 1.485-.013 2.227.01 2.369.002 4.737.047 7.104.028 1.458-.42 2.46-1.9 3.065-.656.268-1.262.662-1.89.999l-.515.274h-.001Zm-12.691 7.258c1.224.026 2.25-.961 2.29-2.202.042-1.25-.937-2.266-2.222-2.31-1.203-.04-2.257.978-2.287 2.207-.031 1.263.946 2.278 2.22 2.305h-.001Z"/><path d="M57.714 28.632c3.446-1.725 6.816-3.407 10.181-5.1.55-.277 1.083-.59 1.61-.908 1.15-.695 2.24-.59 3.34.14 2.463 1.634 4.945 3.24 7.417 4.858.222.146.443.297.649.465.806.662 1.108 1.505.939 2.541-.106.649-.148 1.308-.213 1.963-.03.303-.05.608-.078.97-.955-.608-1.873-1.171-2.768-1.768-1.923-1.282-3.825-2.595-5.757-3.863a6.237 6.237 0 0 0-1.58-.75c-.719-.219-1.462-.114-2.123.248-1.015.555-2.005 1.158-3.063 1.773.51.338.991.662 1.476.979 4.176 2.725 8.35 5.454 12.533 8.17.743.483 1.106 1.112 1.022 2.005-.088.95-.143 1.9-.223 2.85-.02.23.03.374.227.527 1.322 1.03 1.89 2.41 1.571 4.04-.314 1.61-1.318 2.72-2.928 3.146-1.667.44-3.115-.012-4.233-1.34-1.578-1.874-1.107-4.744.976-6.04.205-.127.284-.253.275-.499-.047-1.27-.686-2.226-1.665-2.925-1.15-.821-2.38-1.528-3.563-2.302-4.174-2.729-8.343-5.463-12.515-8.196-.479-.314-.958-.625-1.507-.982v-.002Zm21.102 20.6c1.227.032 2.245-.942 2.297-2.198.052-1.252-.966-2.294-2.265-2.32-1.176-.024-2.226.982-2.254 2.159-.03 1.292.944 2.326 2.222 2.36Z"/><path d="M47.41 46.657c.627-.32 1.198-.605 1.764-.9l12.93-6.737c.162-.084.33-.154.495-.23.627-.296 1.223-.229 1.794.147.667.438 1.344.862 1.998 1.32.28.196.491.22.822.065 1.533-.723 3.022-.587 4.33.494 1.28 1.058 1.798 2.468 1.407 4.101-.384 1.604-1.416 2.654-3.033 3.047a4.032 4.032 0 0 1-4.965-3.365c-.048-.33-.194-.486-.47-.6-.99-.413-1.99-.36-2.938.072-1.07.486-2.102 1.053-3.144 1.597-3.624 1.894-7.244 3.797-10.869 5.69-1.477.772-2.964 1.526-4.446 2.287-.083.043-.17.078-.282.13 0-.342-.011-.644.001-.946.1-2.408.211-4.816.307-7.226.07-1.764.126-3.528.179-5.292.035-1.181.657-1.964 1.668-2.474 1.325-.669 2.672-1.295 3.989-1.98 1.353-.705 2.686-1.452 4.02-2.195 1.363-.76 2.298-.695 3.533.234.715.538 1.457 1.038 2.226 1.581-.77.406-1.527.816-2.295 1.207-2.284 1.163-4.565 2.33-6.86 3.47-1.551.77-2.305 1.964-2.18 3.714.053.74.016 1.485.02 2.227v.562Zm23.832-2.732c-.028-1.24-1.066-2.244-2.282-2.208-1.25.036-2.242 1.05-2.225 2.273.018 1.26 1.062 2.295 2.286 2.263a2.28 2.28 0 0 0 2.22-2.327l.001-.001ZM117.732 47.22v-1.327h2.173v1.326h-2.173ZM117.735 48.278h2.175v1.33h-2.175v-1.33ZM164.177 50.338c-.463 1.283-1.186 2.356-2.164 3.328-.993-.935-1.698-2.008-2.117-3.328h4.281ZM129.83 55.49v-2.701h4.924v2.7h-4.924Z"/></g><defs><clipPath id="a"><path fill="#fff" transform="translate(42.797 22.155)" d="M0 0h131.405v63.69H0z"/></clipPath></defs></svg>