<svg width="217" height="107" viewBox="0 0 217 107" fill="none" xmlns="http://www.w3.org/2000/svg">
<g clip-path="url(#clip0_2359_5143)">
<path d="M73.7434 61.7777V46.0576H75.1133L85.9602 59.7117H85.2416V46.0576H86.8809V61.7777H85.511L74.6866 48.1237H75.4052V61.7777H73.7434Z" fill="#293D4E"/>
<path d="M93.6193 52.8175H102.186V54.2761H93.6193V52.8175ZM93.8046 60.2959H103.552V61.7777H92.0912V45.5706H103.205V47.0524H93.8046V60.2959Z" fill="#293D4E"/>
<path d="M111.035 61.7777L105.57 45.5706H107.33L112.447 60.8285H111.567L116.846 45.5706H118.42L123.63 60.8285H122.796L127.96 45.5706H129.603L124.139 61.7777H122.333L117.355 47.307H117.818L112.817 61.7777H111.035Z" fill="#293D4E"/>
<path d="M137.213 61.9167C136.009 61.9167 134.852 61.7237 133.74 61.3378C132.644 60.9365 131.796 60.4271 131.194 59.8097L131.865 58.49C132.436 59.0457 133.2 59.5164 134.157 59.9023C135.13 60.2728 136.148 60.458 137.213 60.458C138.232 60.458 139.058 60.3345 139.691 60.0876C140.339 59.8252 140.81 59.4779 141.103 59.0457C141.412 58.6135 141.566 58.135 141.566 57.6102C141.566 56.9773 141.381 56.468 141.01 56.0821C140.655 55.6962 140.185 55.3952 139.598 55.1791C139.012 54.9476 138.363 54.7469 137.653 54.5771C136.943 54.4073 136.233 54.2298 135.523 54.0446C134.813 53.8439 134.157 53.5815 133.555 53.2574C132.969 52.9332 132.49 52.5088 132.12 51.984C131.765 51.4437 131.587 50.7414 131.587 49.877C131.587 49.0744 131.796 48.3412 132.212 47.6775C132.644 46.9983 133.3 46.4581 134.18 46.0568C135.06 45.64 136.187 45.4316 137.561 45.4316C138.471 45.4316 139.374 45.5628 140.27 45.8252C141.165 46.0722 141.937 46.4195 142.585 46.8671L142.006 48.2332C141.311 47.7701 140.571 47.4305 139.783 47.2144C139.012 46.9983 138.263 46.8903 137.538 46.8903C136.565 46.8903 135.762 47.0215 135.13 47.2839C134.497 47.5463 134.026 47.9013 133.717 48.3489C133.424 48.7811 133.277 49.2751 133.277 49.8307C133.277 50.4636 133.455 50.973 133.81 51.3588C134.18 51.7447 134.659 52.0457 135.245 52.2618C135.847 52.4779 136.503 52.6708 137.213 52.8406C137.923 53.0104 138.626 53.1956 139.32 53.3963C140.03 53.597 140.679 53.8594 141.265 54.1835C141.867 54.4922 142.346 54.909 142.701 55.4338C143.071 55.9586 143.256 56.6455 143.256 57.4944C143.256 58.2816 143.04 59.0148 142.608 59.694C142.176 60.3577 141.512 60.8979 140.617 61.3147C139.737 61.716 138.603 61.9167 137.213 61.9167Z" fill="#293D4E"/>
<path d="M160.027 46.5091C161.029 47.2271 161.531 48.2048 161.531 49.4422C161.531 50.2985 161.288 51.0431 160.801 51.6771C160.315 52.3112 159.653 52.7427 158.814 52.9719C159.831 53.1704 160.632 53.6325 161.216 54.3584C161.8 55.0843 162.092 55.9741 162.092 57.0279C162.092 58.4026 161.561 59.4869 160.498 60.282C159.435 61.077 157.992 61.474 156.166 61.474H148.691V45.4316H155.919C157.655 45.4316 159.024 45.7911 160.027 46.5091ZM157.322 51.4243C157.703 51.1112 157.895 50.6718 157.895 50.1069C157.895 49.542 157.704 49.1292 157.322 48.823C156.94 48.5178 156.412 48.3727 155.739 48.3875H152.237V51.8934H155.739C156.412 51.8934 156.94 51.7374 157.322 51.4233V51.4243ZM157.715 58.0006C158.194 57.657 158.433 57.18 158.433 56.5686C158.433 55.9573 158.193 55.5297 157.715 55.1929C157.235 54.8572 156.577 54.6972 155.739 54.712H152.237V58.5162H155.739C156.577 58.5162 157.235 58.3443 157.715 58.0006Z" fill="url(#paint0_linear_2359_5143)"/>
<path d="M163.798 45.4316H176.93V48.502H172.126V61.472H168.58V48.502H163.799V45.4316H163.798Z" fill="url(#paint1_linear_2359_5143)"/>
<path d="M188.367 48.9041C187.641 48.5298 186.912 48.3422 186.178 48.3422C185.295 48.3422 184.486 48.5634 183.754 49.0068C183.02 49.4502 182.444 50.0537 182.025 50.8171C181.606 51.5814 181.397 52.4288 181.397 53.3601C181.397 54.2914 181.607 55.1437 182.025 55.915C182.444 56.6863 183.02 57.2976 183.754 57.7489C184.486 58.1993 185.294 58.4244 186.178 58.4244C186.881 58.4244 187.596 58.2526 188.322 57.9089C189.048 57.5652 189.695 57.103 190.264 56.5223L192.352 58.8372C191.513 59.7231 190.529 60.4263 189.4 60.9457C188.269 61.4652 187.136 61.7249 185.998 61.7249C184.457 61.7249 183.058 61.3625 181.801 60.6366C180.544 59.9107 179.556 58.9143 178.837 57.6462C178.119 56.3781 177.76 54.9649 177.76 53.4065C177.76 51.8481 178.126 50.4665 178.86 49.2132C179.594 47.961 180.599 46.9753 181.879 46.2574C183.158 45.5394 184.576 45.1809 186.133 45.1809C187.269 45.1809 188.391 45.4209 189.499 45.9028C190.607 46.3838 191.55 47.0366 192.328 47.8622L190.263 50.4516C189.725 49.7949 189.092 49.2794 188.366 48.9051L188.367 48.9041Z" fill="url(#paint2_linear_2359_5143)"/>
<path d="M60.3916 43.3308C60.3867 43.3209 60.3808 43.311 60.3729 43.2992C60.1102 42.913 58.0017 41.5581 55.3243 39.9592C50.3439 36.9836 43.3923 33.1626 42.6901 33.1626C41.5989 33.1626 25.4242 42.4607 24.9897 43.3308C24.5541 44.2008 24.5166 62.8 24.9897 63.6691C24.9976 63.6829 25.0094 63.6997 25.0262 63.7185C25.364 64.0997 27.4962 65.3895 30.1695 66.9271C35.3633 69.9146 42.6023 73.8373 42.6901 73.8373C43.6165 73.8373 59.7912 64.7051 60.3916 63.6691C60.9911 62.6321 60.837 44.2808 60.3916 43.3308Z" fill="url(#paint3_linear_2359_5143)"/>
<path fill-rule="evenodd" clip-rule="evenodd" d="M45.5868 44.9971L39.7422 53.1644H39.7413L30.1696 66.9274C27.4962 65.3897 25.364 64.0999 25.0262 63.7187L38.1473 44.9971H45.5868Z" fill="white"/>
<path opacity="0.55" fill-rule="evenodd" clip-rule="evenodd" d="M39.7423 44.9971V62.0033H45.5878V44.9971H39.7423Z" fill="white"/>
<path fill-rule="evenodd" clip-rule="evenodd" d="M60.373 43.2995L47.2875 62.0034H39.848L45.5869 53.9842L55.3235 39.9595C58.0008 41.5584 60.1093 42.9133 60.372 43.2995H60.373Z" fill="white"/>
</g>
<defs>
<linearGradient id="paint0_linear_2359_5143" x1="155.391" y1="61.473" x2="155.391" y2="45.4316" gradientUnits="userSpaceOnUse">
<stop stop-color="#00A5C4"/>
<stop offset="1" stop-color="#00ABBD"/>
</linearGradient>
<linearGradient id="paint1_linear_2359_5143" x1="170.364" y1="33.1629" x2="170.364" y2="33.1629" gradientUnits="userSpaceOnUse">
<stop stop-color="#00A5C4"/>
<stop offset="1" stop-color="#00ABBD"/>
</linearGradient>
<linearGradient id="paint2_linear_2359_5143" x1="185.055" y1="61.7239" x2="185.055" y2="45.1799" gradientUnits="userSpaceOnUse">
<stop stop-color="#00A5C4"/>
<stop offset="1" stop-color="#00ABBD"/>
</linearGradient>
<linearGradient id="paint3_linear_2359_5143" x1="56.6388" y1="67.4417" x2="28.7484" y2="39.5523" gradientUnits="userSpaceOnUse">
<stop stop-color="#008EB6"/>
<stop offset="1" stop-color="#00BCBB"/>
</linearGradient>
<clipPath id="clip0_2359_5143">
<rect width="167.702" height="40.6747" fill="white" transform="translate(24.649 33.1626)"/>
</clipPath>
</defs>
</svg>
