<svg width="217" height="108" fill="none" xmlns="http://www.w3.org/2000/svg"><path d="M47.505 73.951c11.018 0 19.951-8.932 19.951-19.951s-8.933-19.952-19.951-19.952c-11.02 0-19.952 8.933-19.952 19.952 0 11.019 8.933 19.951 19.952 19.951Z" fill="#FF7800"/><path d="M61.127 63.871c-2.744 3.837-6.428 6.186-10.955 6.98-.978.173-1.956.258-2.923.258-3.492 0-6.87-1.114-9.91-3.288-2.41-1.723-4.26-3.919-5.494-6.526-1.26-2.658-1.772-5.461-1.521-8.333a.565.565 0 0 1 .617-.516.567.567 0 0 1 .516.617c-.23 2.67.246 5.277 1.417 7.748 1.15 2.43 2.876 4.477 5.126 6.088 3.627 2.596 7.77 3.575 11.975 2.835 4.22-.742 7.662-2.934 10.225-6.522 2.579-3.605 3.544-7.577 2.872-11.81-.668-4.207-2.935-7.8-6.559-10.391-2.231-1.596-4.718-2.562-7.39-2.875-5.599-.653-10.72 1.676-14.81 6.727a.57.57 0 0 1-.887-.717c4.352-5.37 9.826-7.839 15.833-7.142 2.866.336 5.53 1.368 7.92 3.079 3.878 2.773 6.306 6.623 7.021 11.14.72 4.539-.314 8.795-3.07 12.65h-.001l-.002-.002Zm-5.725-.532a.57.57 0 0 0 .793.819c3.895-3.756 5.45-8.207 4.499-12.873-.46-2.25-1.476-4.305-3.021-6.108-2.533-2.954-5.686-4.577-9.378-4.822-3.66-.246-6.973.88-9.852 3.346-2.893 2.48-4.517 5.592-4.823 9.243-.31 3.676.818 7.035 3.347 9.984 1.531 1.785 3.4 3.1 5.557 3.904 1.48.55 2.986.83 4.499.83.724 0 1.452-.064 2.177-.191a.57.57 0 1 0-.197-1.122c-2.036.358-4.081.16-6.08-.584a12.304 12.304 0 0 1-5.09-3.578c-2.322-2.71-3.358-5.788-3.076-9.148.28-3.344 1.772-6.194 4.43-8.474 2.643-2.266 5.68-3.3 9.034-3.077 3.373.225 6.263 1.715 8.588 4.427 1.419 1.653 2.35 3.536 2.77 5.594.869 4.268-.572 8.356-4.173 11.826h.001l-.005.004ZM31.99 49.807a1.323 1.323 0 0 0-.433-2.609c-.72.12-1.207.8-1.088 1.521.118.722.8 1.207 1.52 1.087v.001Zm20.676 14.789a1.32 1.32 0 0 0-1.419 1.217 1.32 1.32 0 0 0 1.217 1.418 1.32 1.32 0 0 0 1.419-1.216 1.32 1.32 0 0 0-1.217-1.419Zm2.173-4.678V48.075a1.594 1.594 0 1 0-3.19 0v7.993l-9.12-9.12a1.594 1.594 0 0 0-2.722 1.127v11.842a1.594 1.594 0 1 0 3.19 0v-7.994l9.12 9.12a1.597 1.597 0 0 0 1.738.348c.596-.246.984-.83.984-1.474v.001Z" fill="#fff"/><path d="M86.671 47.912c.978 1.116 1.466 2.619 1.466 4.511v9.087h-3.762v-9.054c0-.956-.259-1.694-.782-2.215-.521-.521-1.195-.782-2.024-.782-.51 0-.989.101-1.435.303a3.342 3.342 0 0 0-1.148.845c-.32.364-.57.782-.75 1.26-.179.477-.27.993-.27 1.545v8.098h-3.762V46.559h3.602l.097 1.688c.19-.211.418-.434.685-.669.267-.235.585-.451.956-.653a5.869 5.869 0 0 1 1.26-.494c.467-.127.996-.19 1.594-.19 1.87 0 3.293.559 4.272 1.674l.001-.003Zm9.966-4.272c.435-.479 1.025-.717 1.77-.717.401 0 .8.075 1.195.223.394.149.76.34 1.099.574l1.754-2.487c-.765-.658-1.562-1.085-2.391-1.276-.829-.19-1.583-.286-2.264-.286-.638 0-1.286.107-1.944.319a4.895 4.895 0 0 0-1.785 1.036c-.531.477-.968 1.096-1.308 1.848-.34.754-.51 1.675-.51 2.758v.925h-2.55v3.06h2.55V61.51h3.762V49.619h3.826v-3.06h-3.858v-.862c0-.893.218-1.578.653-2.057h.001Zm13.892 14.904c-.351.171-.825.256-1.419.256-.639 0-1.099-.228-1.388-.686-.288-.458-.43-1.11-.43-1.96v-6.537h4.017v-3.06h-4.018V41.71h-3.763v4.846h-2.55v3.06h2.55v6.792c0 .829.085 1.59.256 2.28.171.692.451 1.28.845 1.769.395.49.909.865 1.546 1.132.638.267 1.414.399 2.327.399.914 0 1.699-.132 2.424-.4.721-.266 1.454-.704 2.2-1.322l-1.594-2.327a6.448 6.448 0 0 1-1.005.606l.002-.002Zm18.508-12.306c-.594 0-1.127.063-1.595.19a5.9 5.9 0 0 0-1.258.494 5.163 5.163 0 0 0-.957.653 8.772 8.772 0 0 0-.685.67l-.096-1.69h-3.603v14.953h3.762V53.41c0-.553.092-1.068.271-1.545.179-.477.43-.898.749-1.26a3.383 3.383 0 0 1 1.148-.844 3.44 3.44 0 0 1 1.435-.303c.829 0 1.503.259 2.024.781.522.523.782 1.26.782 2.215v9.054h3.763v-9.086c0-1.893-.491-3.396-1.466-4.512-.976-1.115-2.403-1.674-4.272-1.674l-.002.002Zm22.803 5.26c.256 1.02.383 2.06.383 3.124v.542h-11.158c0 .554.124 1.053.366 1.499.245.446.562.829.956 1.148.395.32.841.562 1.339.733.499.171.994.256 1.482.256.722 0 1.355-.069 1.898-.207a7.631 7.631 0 0 0 1.387-.479c.383-.18.694-.371.94-.573a9.15 9.15 0 0 0 .559-.494l2.041 2.295-.527.526c-.286.287-.702.59-1.242.909-.541.32-1.232.606-2.072.861-.84.256-1.845.383-3.013.383s-2.275-.202-3.253-.606a7.315 7.315 0 0 1-2.503-1.674 7.255 7.255 0 0 1-1.594-2.567c-.372-1-.559-2.104-.559-3.316 0-1.104.187-2.132.559-3.076a7.519 7.519 0 0 1 1.562-2.471 7.284 7.284 0 0 1 2.391-1.658c.925-.402 1.949-.606 3.076-.606 1.36 0 2.515.25 3.459.75.945.498 1.706 1.152 2.281 1.96a8.056 8.056 0 0 1 1.242 2.741Zm-3.475.956c0-.382-.075-.765-.223-1.148a3.222 3.222 0 0 0-.654-1.036 3.405 3.405 0 0 0-1.099-.765c-.446-.204-.956-.303-1.531-.303-.617 0-1.163.1-1.642.303a3.862 3.862 0 0 0-1.195.765 3.301 3.301 0 0 0-.733 1.036 2.794 2.794 0 0 0-.256 1.148h7.333Zm20.837 4.495-3.189-10.394h-3.156L159.7 56.95l-2.869-10.395h-4.145l5.068 14.953h3.507l2.966-9.023 3.06 9.023h3.635l5.069-14.953h-3.953l-2.837 10.395h.001Zm19.895-1.514a3.948 3.948 0 0 0-1.005-1.355 5.648 5.648 0 0 0-1.562-.956 12.079 12.079 0 0 0-2.057-.639c-1.231-.298-2.14-.578-2.727-.845-.584-.267-.876-.634-.876-1.1 0-.382.176-.705.526-.972.35-.267.973-.399 1.865-.399.893 0 1.67.124 2.328.367.658.244 1.188.514 1.594.812l1.945-2.646a7.969 7.969 0 0 0-2.504-1.243c-.925-.275-2.045-.414-3.363-.414-.744 0-1.482.108-2.215.32a6.985 6.985 0 0 0-1.977.908 4.793 4.793 0 0 0-1.419 1.466c-.361.585-.542 1.248-.542 1.992s.155 1.344.462 1.865c.308.521.702.968 1.18 1.339.477.371.993.664 1.545.876.552.212 1.085.383 1.595.51.829.19 1.487.371 1.977.542.49.171.873.339 1.148.51.275.171.458.347.543.526.084.18.127.378.127.59 0 .49-.245.84-.733 1.052-.491.212-1.137.319-1.945.319-.915 0-1.726-.155-2.44-.463-.713-.307-1.303-.697-1.769-1.164l-2.263 2.454c.679.766 1.583 1.344 2.71 1.738 1.127.394 2.391.59 3.793.59a8.9 8.9 0 0 0 2.471-.336 6.97 6.97 0 0 0 2.04-.94 4.563 4.563 0 0 0 1.388-1.482c.339-.584.51-1.239.51-1.96 0-.722-.116-1.344-.35-1.865v.003Zm-72.254 1.674c-1.217 0-2.2.984-2.2 2.2 0 1.217.983 2.2 2.2 2.2s2.2-.983 2.2-2.2a2.2 2.2 0 0 0-2.2-2.2Z" fill="#000"/></svg>