<svg xmlns="http://www.w3.org/2000/svg" width="217" height="108" fill="none"><g clip-path="url(#a)"><mask id="b" width="117" height="64" x="50" y="22" maskUnits="userSpaceOnUse" style="mask-type:luminance"><path fill="#fff" d="M166.121 22.808H50.991v62.438h115.13V22.808Z"/></mask><g mask="url(#b)"><path fill="#FCD203" d="M115.276 57.455c.138-.565.413-1.07.695-1.573.115-.213.231-.201.316.022.214.56.056 1.27.251 1.838.043.124.345.607.345.607l.479-.677s2.443-3.242 3.23-5.144c.146-.348-.094-.276-.257-.276-1.505 0-3.011.01-4.516.026-8.32.087-16.64.06-24.958.026-4.092-.016-8.184-.08-12.274-.135-2.61-.036-5.22-.106-7.82-.301-3.777-.284-7.526-.789-11.158-1.928-1.898-.595-3.753-1.343-5.312-2.612-1.722-1.4-3.108-3.071-3.273-5.406a10.485 10.485 0 0 1 1.865-6.849c1.485-2.16 3.46-3.741 5.724-5.01 2.844-1.59 5.924-2.493 9.09-3.16 1.93-.407 3.893-.601 5.847-.869 2.11-.288 4.22-.586 6.343-.77 1.768-.156 3.54-.284 5.311-.41 3.714-.27 7.428-.529 11.147-.723 3.242-.17 6.484-.314 9.726-.479 3.658-.185 7.318-.304 10.979-.434 3.526-.125 7.053-.232 10.58-.3 1.899-.036 3.797-.107 5.694-.11 2.647 0 5.294.027 7.939.08 2.351.052 4.703.148 7.046.342 2.93.242 5.852.563 8.715 1.265 1.093.269 2.231.514 3.156 1.166 1.375.97 2.78 1.939 3.8 3.318 1.06 1.437 1.673 3.072 1.955 4.824.358 2.223.18 4.425-.418 6.587-.916 3.313-2.547 6.197-5.202 8.44a12.162 12.162 0 0 1-6.729 2.851c-2.962.31-5.932.449-8.908.52-4.998.116-9.996.092-14.995.047-.65 0-1.063.17-1.39.767a15.136 15.136 0 0 1-1.538 2.286c-.052.065-.125.116-.121.218v-.017a.113.113 0 0 0-.065.05.115.115 0 0 0-.016.081 3.48 3.48 0 0 0-.749.873c-.064.009-.062.058-.064.105h.006c-.087-.007-.129.056-.175.116-1.314 1.57-2.895 2.834-4.632 3.887-.919.553-1.858 1.112-3.01.706a.081.081 0 0 0-.036 0c-.945-1.245-1.785-2.553-2.623-3.865ZM79.278 41.22c0-.882.014-1.764 0-2.645-.06-3.187-3.346-5.748-6.454-5.038-3.064.694-4.94 3.73-4.104 6.774 1.115 4.064 5.653 5.363 8.617 2.85.174-.147.377-.473.527-.39.218.122.084.463.082.715-.012 2.517-2.65 4.215-4.92 3.514-1.158-.355-2.04-1.05-2.553-2.162-.116-.26-.265-.384-.557-.347-.22.02-.44.03-.661.028-.19 0-.271.064-.188.27.25.617.534 1.21.98 1.712 1.915 2.16 5.384 2.397 7.642.533 1.071-.884 1.622-1.996 1.594-3.392-.019-.806-.005-1.614-.005-2.422Zm63.894.137c0-.87.01-1.737 0-2.607a4.883 4.883 0 0 0-1.158-3.14c-1.405-1.682-3.183-2.448-5.353-1.97-3.262.728-5.064 4.146-3.882 7.29.856 2.277 3.227 4.192 6.409 3.387a5.117 5.117 0 0 0 2.351-1.37c.065-.065.116-.18.232-.138.036.014.061.103.061.159-.007.648.032 1.312-.26 1.912-.695 1.42-1.818 2.266-3.422 2.343-1.54.075-2.779-.587-3.531-1.896-.378-.666-.803-.772-1.433-.754-.267.008-.291.104-.213.311a5.155 5.155 0 0 0 1.129 1.873c1.779 1.81 4.747 2.14 6.9.77 1.455-.925 2.258-2.2 2.18-3.97-.037-.73-.01-1.465-.01-2.2Zm-41.987-.657c0-1.09-.02-2.18 0-3.27.024-1.055.613-1.773 1.527-2.2.889-.417 1.809-.476 2.653.126.819.584 1.17 1.436 1.177 2.415.012 2.059 0 4.117-.013 6.174 0 .268.071.386.347.373.27-.015.541-.015.811 0 .271.018.326-.11.325-.347-.01-1.556-.008-3.112-.012-4.667 0-.694.023-1.396-.058-2.092a4.016 4.016 0 0 0-2.915-3.43c-1.674-.493-3.143-.05-4.218 1.274-.359.441-.383.463-.733-.02-1.782-2.42-5.783-1.64-6.805 1.064-.238.671-.351 1.38-.333 2.092V43.3c0 .991 0 .979 1.008 1.011.323.01.422-.077.421-.406-.008-1.96 0-3.92.01-5.88 0-.245.013-.49.042-.733.152-1.165.932-2.084 1.915-2.308 1.524-.341 3.446.78 3.393 2.717-.05 1.836-.017 3.674-.008 5.511 0 .348-.169.8.067 1.022.236.22.681.044 1.031.082.312.033.366-.107.363-.378-.001-1.082.005-2.16.005-3.238Zm13.744-7.12c-2.908-.137-5.392 2.61-5.395 5.488 0 2.822 2.341 5.558 5.516 5.475 2.828-.072 5.262-2.548 5.254-5.459-.005-3.058-2.402-5.511-5.375-5.505ZM86.151 44.495c2.961-.009 5.364-2.465 5.365-5.481a5.49 5.49 0 0 0-5.367-5.496c-2.767-.056-5.422 2.432-5.394 5.544.028 3.038 2.4 5.441 5.397 5.433Zm61.393-3.274c0 .537.007 1.37 0 2.2-.009.933-.015.933.909.955.515.012.513.012.513-.515 0-1.887-.013-3.774.019-5.66a3.214 3.214 0 0 1 1.314-2.554 3.215 3.215 0 0 1 2.83-.49c1.346.402 2.298 1.714 2.316 3.243.011 1.666-.007 3.332-.013 4.999 0 .971 0 .954.967.999.347.015.446-.083.442-.422-.015-1.923 0-3.847-.021-5.77-.026-2.44-1.767-4.31-4.193-4.539a4.544 4.544 0 0 0-4.538 2.456 4.558 4.558 0 0 0-.486 1.751c-.09 1.017-.01 2.035-.059 3.346Zm-16.587-.266c0-.992.04-1.987-.01-2.975-.079-1.557-.782-2.81-2.104-3.638-1.533-.96-3.165-1.01-4.755-.16-1.59.848-2.354 2.245-2.386 4.028-.032 1.898-.016 3.797-.04 5.695 0 .347.116.463.445.42.182-.024.367-.024.55 0 .362.052.443-.09.441-.442a284.477 284.477 0 0 1 0-5.695 3.2 3.2 0 0 1 3.242-3.193 3.25 3.25 0 0 1 3.216 3.243v1.322c0 1.482-.009 2.964-.02 4.445 0 .232.058.348.31.325.256-.022.514-.022.77 0 .265.024.338-.071.335-.328-.001-1.014.006-2.031.006-3.047Zm-73.14-.147h-.01v2.425c0 .973 0 .954.97.991.348.014.433-.095.432-.426-.011-1.91-.011-3.82 0-5.73.01-1.603 1.313-3.046 2.85-3.18 2.01-.176 3.608 1.286 3.61 3.313 0 1.653 0 3.307-.008 4.96 0 1.072 0 1.064 1.078 1.07.249 0 .322-.087.322-.316 0-2.008.055-4.02-.018-6.021-.07-1.942-1.07-3.358-2.878-4.07-2.883-1.133-6.178.686-6.347 4.085-.042.963-.001 1.933-.001 2.9Zm86.883-1.736v4.335c0 .926-.006.903.927.938.347.012.433-.084.431-.42-.012-3.05-.008-6.098-.01-9.148 0-.915 0-.901-.916-.917-.339-.007-.436.097-.433.435.01 1.587.001 3.18.001 4.77v.007Zm1.377-7.723h-.016v-.221c-.011-1.033-.011-1.027-1.042-.991-.22.008-.308.072-.305.296 0 .367-.023.734-.016 1.101.024 1.3-.178 1.036 1.086 1.072.232.006.302-.092.298-.303-.012-.318-.005-.637-.005-.954Z"/><path fill="#F69C08" d="M116.159 55.152s-.811 1.877-.948 2.442c.838 1.312 1.2 2.038 2.145 3.282.012-.002.562.436.573.439-.672-.922-1.246-3.874-1.77-6.163Z"/><path fill="#165CB1" d="M151.991 67.119c1.409 0 2.818-.028 4.228.009 1.01.025 1.968.258 2.689 1.062.549.612.783 1.367.855 2.151.313 3.405-.169 6.66-2.032 9.597-1.7 2.679-4.15 4.323-7.248 4.98-2.358.52-4.812.415-7.118-.304-2.936-.916-5.149-2.763-6.735-5.38-1.315-2.164-2.016-4.535-2.248-7.045-.304-3.208.067-6.34 1.232-9.352 1.189-3.072 3.035-5.674 6.028-7.191 4.741-2.405 9.412-2.084 13.896.746 1.021.645 1.817 1.539 2.2 2.722.326 1.018.268 2.029-.321 2.934-.916 1.406-2.764 1.605-4.198.485-.492-.383-.941-.817-1.488-1.134-2.809-1.633-7.571-1.66-9.691 2.808-1.604 3.377-1.813 6.9-.445 10.421.846 2.177 2.361 3.733 4.739 4.195 1.835.356 3.597.132 5.115-1.084 1.147-.918 1.716-2.174 2.012-3.577.188-.889.187-.889-.7-.889-1.531 0-3.063.007-4.595 0-.775-.007-1.543-.068-2.222-.516a2.37 2.37 0 0 1-.949-1.18 4.135 4.135 0 0 1-.081-2.53c.281-1.089 1.076-1.621 2.128-1.831a6.595 6.595 0 0 1 1.316-.102h3.64l-.007.005ZM115.276 57.455c.834 1.312 1.673 2.62 2.615 3.86.053.094.101.194.162.284 2.275 3.397 4.552 6.79 6.832 10.183.172.258.315.542.597.817V59.034c0-.822.013-1.638.262-2.432h-.006l.064-.104c.199-.33.453-.625.749-.873.048-.03.135-.037.081-.13v.016c.472-.092.904-.322 1.4-.358.761-.056 1.496.005 2.191.323.843.384 1.195 1.118 1.319 1.987.04.291.06.585.059.88v23.12c0 .665-.062 1.328-.375 1.928-.634 1.207-1.738 1.465-2.967 1.39-1.286-.081-2.225-.767-2.93-1.799a3245.42 3245.42 0 0 1-6.167-9.049 3070.215 3070.215 0 0 0-4.062-5.947c-.081-.116-.139-.258-.278-.347-.116.098-.06.231-.06.339-.005 4.534-.005 9.067 0 13.6a5.06 5.06 0 0 1-.125 1.239c-.255 1.009-.876 1.645-1.905 1.865-.601.13-1.22.147-1.827.051-1.294-.201-2.084-1.067-2.2-2.38-.032-.348-.026-.71-.026-1.065V58.39a5.723 5.723 0 0 1 .049-.916c.339-2.084 1.999-2.595 3.589-2.316 1.158.2 1.981.915 2.641 1.846.106.15.215.303.318.452ZM81.459 66.292c0 2.292.02 4.582-.006 6.874-.023 2.148-.32 4.254-1.245 6.221-1.45 3.087-3.972 4.802-7.236 5.496a16.251 16.251 0 0 1-7.072-.052c-2.03-.463-3.813-1.39-5.211-2.974-1.33-1.505-2.037-3.298-2.432-5.237a17.178 17.178 0 0 1-.315-3.433c-.004-4.9-.004-9.803 0-14.706-.009-.404.026-.809.103-1.206.211-.955.73-1.653 1.697-1.945a4.694 4.694 0 0 1 2.68-.029c1.11.316 1.77 1.208 1.844 2.432.02.318.018.637.018.955v13.895a9.278 9.278 0 0 0 .38 2.756c.539 1.75 1.69 2.86 3.486 3.276a7.452 7.452 0 0 0 3.357.028c1.865-.42 2.856-1.687 3.282-3.474.185-.838.269-1.695.25-2.553-.005-4.668-.005-9.335 0-14.003a5.533 5.533 0 0 1 .182-1.6c.258-.901.84-1.48 1.74-1.712a4.822 4.822 0 0 1 2.578.015c1.183.331 1.709 1.198 1.853 2.346.041.353.06.708.056 1.063.005 2.524.005 5.048 0 7.572l.01-.005ZM94.728 55.203c1.807 0 3.086.904 3.705 2.621l6.225 17.124c.748 2.072 1.514 4.14 2.154 6.253.546 1.796-.71 3.536-2.586 3.603-1.661.06-2.631-.551-3.255-2.084-.386-.952-.75-1.915-1.108-2.88-.102-.276-.231-.398-.554-.396-2.99.014-5.98.014-8.969 0-.29 0-.406.116-.494.365-.347.994-.658 2-1.08 2.967-.729 1.675-2.334 2.425-4.085 1.89-.9-.278-1.457-.917-1.716-1.817-.288-1.005-.059-1.957.278-2.908 1.947-5.481 3.888-10.964 5.823-16.45.681-1.928 1.355-3.86 2.06-5.778.44-1.195 1.251-2.029 2.505-2.392.359-.09.728-.13 1.097-.118Zm.055 10.59a1.262 1.262 0 0 0-.115.183c-.85 2.323-1.697 4.646-2.542 6.97-.1.273.013.314.25.312.895-.006 1.789 0 2.683 0 .65 0 1.3-.016 1.948 0 .347.01.397-.116.268-.407-.116-.257-.19-.53-.283-.795-.717-2.066-1.506-4.11-2.209-6.263ZM79.278 41.22c0 .811-.012 1.622 0 2.425.028 1.397-.522 2.508-1.593 3.392-2.26 1.864-5.728 1.627-7.642-.533-.446-.502-.731-1.095-.98-1.711-.083-.206 0-.267.188-.271.22.002.441-.007.66-.028.293-.04.438.084.558.347.513 1.113 1.397 1.807 2.553 2.162 2.27.7 4.907-.997 4.92-3.514 0-.248.136-.593-.082-.715-.15-.083-.353.243-.527.39-2.964 2.513-7.502 1.214-8.617-2.85-.836-3.044 1.042-6.075 4.103-6.774 3.108-.71 6.394 1.852 6.455 5.038.018.879.004 1.761.004 2.642Zm-5.275 1.82c2.108.007 3.827-1.825 3.903-4.022.074-2.134-1.76-4.254-3.992-4.22-2.12.032-3.966 1.9-3.973 4.105-.008 2.329 1.762 4.132 4.062 4.138ZM143.168 41.36c0 .733-.027 1.47 0 2.2.077 1.772-.725 3.048-2.181 3.971-2.157 1.37-5.12 1.042-6.9-.771a5.182 5.182 0 0 1-1.129-1.873c-.077-.207-.053-.303.213-.311.63-.017 1.055.088 1.434.754.746 1.31 1.99 1.968 3.53 1.896 1.604-.077 2.727-.926 3.422-2.343.293-.6.254-1.264.261-1.912 0-.056-.026-.145-.062-.159-.116-.042-.167.073-.231.137a5.124 5.124 0 0 1-2.351 1.371c-3.182.805-5.558-1.11-6.409-3.387-1.183-3.144.619-6.562 3.881-7.29 2.17-.483 3.949.283 5.353 1.97a4.883 4.883 0 0 1 1.158 3.14c.013.868 0 1.736 0 2.607h.011Zm-1.39-2.317c0-2.254-1.783-4.154-3.901-4.15-2.212 0-4.001 1.84-4.06 4.052-.063 2.355 1.95 4.22 4.014 4.202 2.159-.023 3.946-1.856 3.947-4.107v.003ZM101.179 40.7c0 1.079-.006 2.157 0 3.235 0 .27-.051.41-.364.377-.347-.038-.798.134-1.03-.082-.232-.215-.066-.671-.067-1.021-.01-1.838-.043-3.676.008-5.512.053-1.936-1.87-3.058-3.393-2.717-.983.22-1.763 1.143-1.915 2.308-.03.244-.043.488-.042.733-.008 1.96-.018 3.92-.01 5.88 0 .329-.099.417-.422.407-1.008-.033-1.007-.02-1.007-1.011v-5.109a5.814 5.814 0 0 1 .332-2.091c1.022-2.704 5.023-3.484 6.805-1.064.348.478.374.463.733.02 1.076-1.323 2.548-1.767 4.219-1.274a4.008 4.008 0 0 1 2.914 3.43c.081.694.057 1.389.058 2.092 0 1.555 0 3.11.013 4.666 0 .242-.055.37-.325.348a7.314 7.314 0 0 0-.811 0c-.276.012-.348-.106-.348-.373.014-2.058.026-4.115.013-6.174-.007-.98-.358-1.831-1.176-2.416-.844-.602-1.765-.543-2.653-.126-.915.428-1.505 1.146-1.527 2.2-.026 1.09 0 2.18 0 3.27l-.005.005ZM114.923 33.58c2.97-.007 5.367 2.446 5.375 5.504.008 2.915-2.432 5.387-5.254 5.459-3.175.08-5.519-2.653-5.516-5.475.007-2.874 2.491-5.625 5.395-5.488Zm-.014 9.58c2.192.01 3.98-1.819 3.998-4.09.019-2.273-1.761-4.122-3.948-4.137-2.188-.015-3.963 1.816-4.011 4.08-.046 2.302 1.945 4.267 3.964 4.147h-.003ZM86.145 44.494c-2.995.009-5.368-2.392-5.396-5.432-.028-3.108 2.627-5.6 5.394-5.545a5.49 5.49 0 0 1 5.367 5.496c-.001 3.016-2.404 5.472-5.365 5.481Zm.015-9.601c-2.233.014-4.02 1.867-4.008 4.157a4.074 4.074 0 0 0 1.191 2.893 4.08 4.08 0 0 0 2.89 1.199c2.077-.008 3.926-1.969 3.904-4.132-.022-2.282-1.81-4.13-3.977-4.117ZM147.546 41.221c.049-1.312-.031-2.33.052-3.345a4.556 4.556 0 0 1 1.618-3.172 4.548 4.548 0 0 1 3.406-1.035c2.432.232 4.169 2.1 4.193 4.538.022 1.923 0 3.848.021 5.771 0 .338-.096.437-.442.422-.969-.045-.971-.028-.967-1 0-1.666.024-3.332.013-4.998-.012-1.527-.964-2.839-2.316-3.243a3.221 3.221 0 0 0-4.145 3.043c-.031 1.887-.015 3.774-.018 5.66 0 .527 0 .527-.513.515-.926-.021-.918-.021-.909-.955.014-.83.007-1.668.007-2.2ZM130.951 40.955c0 1.015-.007 2.032 0 3.049 0 .257-.069.347-.334.327a4.604 4.604 0 0 0-.77 0c-.253.019-.313-.095-.311-.324.012-1.48.015-2.963.02-4.445V38.24a3.253 3.253 0 0 0-3.216-3.243 3.2 3.2 0 0 0-3.242 3.193 257.395 257.395 0 0 0 0 5.695c0 .347-.079.494-.441.442a2.136 2.136 0 0 0-.55 0c-.33.038-.449-.073-.445-.42.025-1.898.008-3.797.041-5.695.031-1.782.799-3.185 2.382-4.029 1.583-.844 3.222-.799 4.755.161 1.322.827 2.024 2.084 2.104 3.637.05.99.01 1.984.01 2.976l-.003-.002ZM57.814 40.81c0-.968-.04-1.937.007-2.903.169-3.398 3.464-5.217 6.346-4.085 1.808.71 2.808 2.128 2.879 4.07.073 2.005.014 4.016.017 6.022 0 .231-.073.317-.322.316-1.08 0-1.08 0-1.078-1.071 0-1.653.01-3.306.008-4.96 0-2.026-1.6-3.489-3.61-3.313-1.537.135-2.84 1.578-2.85 3.18-.014 1.91-.014 3.82 0 5.73 0 .332-.077.44-.43.427-.969-.037-.97-.019-.972-.991v-2.425l.005.002ZM144.703 39.066c0-1.59.009-3.183-.007-4.775 0-.338.094-.442.433-.435.911.016.916 0 .916.917 0 3.048 0 6.097.01 9.147 0 .337-.088.433-.432.42-.926-.034-.926-.016-.926-.937v-4.336h.006ZM146.07 31.35v.954c0 .21-.065.309-.297.302-1.265-.036-1.062.232-1.086-1.071-.007-.367.022-.734.016-1.101 0-.225.084-.289.304-.297 1.034-.036 1.034-.041 1.043.991v.222h.02Z"/><path fill="#FCD203" d="M74.003 43.041c-2.3-.006-4.07-1.809-4.062-4.137.007-2.206 1.853-4.074 3.973-4.105 2.233-.035 4.067 2.084 3.993 4.22-.077 2.196-1.795 4.028-3.904 4.022ZM141.777 39.04c0 2.249-1.788 4.084-3.947 4.104-2.064.018-4.077-1.847-4.014-4.202.059-2.212 1.853-4.053 4.06-4.053 2.118-.004 3.903 1.897 3.901 4.151ZM114.914 43.162c-2.019.115-4.01-1.846-3.961-4.148.049-2.264 1.813-4.095 4.011-4.08 2.198.016 3.966 1.879 3.949 4.137-.018 2.258-1.807 4.101-3.999 4.09ZM86.164 34.894c2.166-.013 3.954 1.835 3.976 4.112.022 2.166-1.827 4.123-3.903 4.131a4.083 4.083 0 0 1-4.08-4.086c-.014-2.29 1.773-4.143 4.007-4.157Z"/></g></g><defs><clipPath id="a"><path fill="#fff" d="M50.877 22.658h115.247v62.684H50.876z"/></clipPath></defs></svg>