<svg width="217" height="107" viewBox="0 0 217 107" fill="none" xmlns="http://www.w3.org/2000/svg">
<g clip-path="url(#clip0_2359_5144)">
<mask id="mask0_2359_5144" style="mask-type:luminance" maskUnits="userSpaceOnUse" x="37" y="13" width="143" height="81">
<path d="M37.756 13.6328H179.244V93.2195H37.756V13.6328Z" fill="white"/>
</mask>
<g mask="url(#mask0_2359_5144)">
<path d="M37.756 13.6328H179.244V94.3252H37.756V13.6328Z" fill="white"/>
<path d="M37.756 13.6328H179.244V93.2195H37.756V13.6328Z" fill="white"/>
<path d="M37.756 13.6328H179.244V93.2195H37.756V13.6328Z" fill="white"/>
</g>
<path d="M41.2231 36.0317H59.6225L52.9226 42.7132L59.7009 49.5123H54.7821L48.0015 42.7339L51.3907 39.4209H44.7484L41.2231 36.0317Z" fill="black"/>
<path d="M74.6731 46.5297V49.5128H66.635V35.9746H74.6731V38.9185H70.2941V41.048H74.3432V43.9734H70.2941V46.5297H74.6731Z" fill="black"/>
<path d="M87.0672 35.9746C88.7711 35.9746 90.0527 36.3495 90.9109 37.0982C91.7703 37.8474 92.2006 38.9127 92.2006 40.2936C92.2006 41.8041 91.7553 42.9692 90.8648 43.7889C89.9742 44.609 88.7082 45.0186 87.0672 45.0186H86.0406V49.5128H82.3815V35.9746H87.0672ZM86.0406 38.937V42.0377H86.7004C87.2553 42.0377 87.6948 41.8866 88.0178 41.5832C88.3408 41.2787 88.5023 40.849 88.5023 40.2936C88.5023 39.3892 87.9982 38.937 86.9911 38.937H86.0406Z" fill="black"/>
<path d="M107.115 35.9536H110.737V44.0124C110.737 45.7555 110.239 47.108 109.244 48.0707C108.251 49.0322 106.824 49.5126 104.965 49.5126C103.143 49.5126 101.742 49.0454 100.761 48.1099C99.7793 47.1732 99.2891 45.8327 99.2891 44.0886V35.9536H102.911V43.7979C102.911 44.7409 103.089 45.429 103.444 45.8627C103.799 46.2953 104.326 46.511 105.022 46.511C105.759 46.511 106.292 46.2982 106.621 45.872C106.95 45.4463 107.115 44.7484 107.115 43.7794V35.9536Z" fill="black"/>
<path d="M118.465 49.5128V35.9746H123.19C125.023 35.9746 126.388 36.2492 127.285 36.7983C128.183 37.3462 128.632 38.1952 128.632 39.3453C128.632 40.1067 128.435 40.7561 128.042 41.2925C127.648 41.8278 127.135 42.1727 126.503 42.3261V42.423C127.341 42.6434 127.95 43.0148 128.332 43.5374C128.714 44.0605 128.904 44.7348 128.904 45.5607C128.904 46.7881 128.442 47.7542 127.518 48.4585C126.595 49.1616 125.333 49.5128 123.732 49.5128H118.465ZM122.124 41.1656H123.229C123.758 41.1656 124.164 41.0595 124.447 40.8473C124.731 40.6339 124.874 40.3137 124.874 39.8875C124.874 39.125 124.299 38.7432 123.15 38.7432H122.124V41.1656ZM122.124 43.8581V46.7051H123.402C124.552 46.7051 125.128 46.2206 125.128 45.2516C125.128 44.7994 124.975 44.4545 124.671 44.2157C124.367 43.9775 123.926 43.8581 123.344 43.8581H122.124Z" fill="black"/>
<path d="M145.271 49.5128H136.4V35.9746H140.059V46.5689H145.271V49.5128Z" fill="black"/>
<path d="M155.981 49.5128H152.301V35.9746H155.981V49.5128Z" fill="black"/>
<path d="M171.281 42.0377L175.466 49.5128H171.339L168.667 44.3426L167.583 45.0001V49.5128H163.903V35.9746H167.583V41.8624C167.763 41.5013 168.137 40.9199 168.706 40.1182L171.553 35.9746H175.542L171.281 42.0377Z" fill="black"/>
<path d="M55.6717 53.981H74.071L67.3711 60.6624L74.1495 67.4615H69.2307L62.45 60.6832L65.8392 57.3701H59.197L55.6717 53.981Z" fill="black"/>
<path d="M88.7341 53.9023H92.3563V61.9611C92.3563 63.7042 91.8585 65.0567 90.8636 66.0194C89.8698 66.9809 88.4434 67.4613 86.5838 67.4613C84.7624 67.4613 83.3613 66.9941 82.3802 66.0586C81.3986 65.1219 80.9083 63.7815 80.9083 62.0373V53.9023H84.5305V61.7466C84.5305 62.6896 84.7081 63.3777 85.0634 63.8115C85.4187 64.2441 85.9448 64.4598 86.6415 64.4598C87.3781 64.4598 87.911 64.2469 88.2404 63.8207C88.5691 63.395 88.7341 62.6971 88.7341 61.7281V53.9023Z" fill="black"/>
<path d="M104.77 53.9229C106.474 53.9229 107.755 54.2978 108.613 55.0464C109.473 55.7957 109.903 56.861 109.903 58.2418C109.903 59.7524 109.458 60.9175 108.567 61.7371C107.677 62.5573 106.411 62.9668 104.77 62.9668H103.743V67.4611H100.084V53.9229H104.77ZM103.743 56.8852V59.986H104.403C104.958 59.986 105.397 59.8349 105.72 59.5315C106.043 59.2269 106.205 58.7972 106.205 58.2418C106.205 57.3374 105.701 56.8852 104.694 56.8852H103.743Z" fill="black"/>
<path d="M120.847 67.4611H117.167V53.9229H120.847V67.4611Z" fill="black"/>
<path d="M141.571 67.4611H137.579L136.903 64.9809H132.506L131.828 67.4611H127.8L132.215 53.9229H137.097L141.571 67.4611ZM133.261 61.9793H136.147L135.565 59.753C135.423 59.2489 135.256 58.6098 135.062 57.8357C134.869 57.0484 134.739 56.4861 134.675 56.1492C134.624 56.4601 134.518 56.9769 134.356 57.6996C134.195 58.4229 133.829 59.8493 133.261 61.9793Z" fill="black"/>
<path d="M160.144 53.9229V67.4611H156.464V61.9401H152.224V67.4611H148.544V53.9229H152.224V58.9385H156.464V53.9229H160.144Z" fill="black"/>
</g>
<defs>
<clipPath id="clip0_2359_5144">
<rect width="141.75" height="79.7344" fill="white" transform="translate(37.625 13.6328)"/>
</clipPath>
</defs>
</svg>
