<svg width="217" height="107" fill="none" xmlns="http://www.w3.org/2000/svg"><path d="M80.804 72.381h3.25c1.495 0 2.693 1.05 2.693 2.298 0 .778-.507 1.545-1.198 1.779.914.186 1.593 1.038 1.593 2.1 0 1.397-1.235 2.471-2.718 2.471h-3.62v-8.648Zm3.163 3.484c.519 0 .927-.395.927-.877s-.408-.853-.927-.853h-1.334v1.73h1.334Zm.296 3.41a1 1 0 0 0 1.013-1c0-.557-.444-1.014-.988-1.014h-1.655v2.014h1.63ZM103.573 81.03l-1.952-3.3h-.939v3.3h-1.829V72.38h3.336c1.458 0 2.73 1.186 2.73 2.669 0 1.111-.531 1.977-1.383 2.396l2.261 3.583h-2.224Zm-2.891-4.88h1.322c.593 0 1.062-.433 1.062-1.014 0-.556-.469-.988-1.062-.988h-1.322v2.001ZM122.374 79.584h-3.336l-.556 1.445h-1.94l3.435-8.648h1.483l3.447 8.648h-1.989l-.544-1.445Zm-.606-1.57-1.05-2.767-1.075 2.767h2.125ZM137.876 72.381l3.521 5.04v-5.04h1.829v8.648h-1.532l-3.546-5.04v5.04h-1.829v-8.648h1.557ZM162.57 76.668c0 2.508-1.89 4.361-4.386 4.361h-2.965v-8.648h2.965c2.496 0 4.386 1.829 4.386 4.287Zm-1.89 0c0-1.47-.988-2.533-2.372-2.533h-1.26v5.14h1.26c1.371 0 2.372-1.112 2.372-2.607Z" fill="#050505"/><path d="M105.004 36.794c-7.817 0-13.748 5.93-13.748 13.803 0 6.507 4.055 11.648 9.878 13.235l3.753-6.771c-3.552-.06-6.19-2.839-6.19-6.465 0-3.774 2.695-6.523 6.307-6.523 2.534 0 4.69 1.401 5.23 3.342l3.968-7.159c-2.37-2.154-5.635-3.462-9.198-3.462Z" fill="url(#a)"/><path d="M136.388 43.558c-2.202-4.073-6.546-6.764-11.513-6.764-2.052 0-3.983.423-5.716 1.185l-7.916 14.281c.858 6.865 6.507 12.001 13.625 12.081l4.326-7.803c-.907.923-2.4 1.499-4.373 1.499-3.559 0-6.201-2.21-6.74-5.661h13.42l4.887-8.818Zm-17.93 3.965c.917-3.127 3.182-4.583 6.093-4.583 2.803 0 5.23 1.888 5.446 4.583h-11.539Z" fill="url(#b)"/><path d="m76.468 26.11-7.593 13.71.014 23.913h7.6l-.02-37.624Z" fill="url(#c)"/><path d="M88.387 32.908 80.794 46.61l.014 17.124h7.6l-.021-30.825Z" fill="url(#d)"/><path d="m80.794 25.97.021 13.842 7.696-13.84-7.717-.001Z" fill="url(#e)"/><path opacity=".4" d="m56.668 63.791.053-.001h-.107l.054.001Z" fill="red"/><path d="m154.939 39.832-.001.002c-2.473-2.816-7.518-3.852-11.444-2.563l-8.767 15.817c.716 4.645 3.415 8.488 7.295 10.29 4.086 2.01 10.098 1.224 12.917-2.003v2.358h7.603V25.97l-7.603 13.86Zm-3.658 17.336c-1.64.899-4.225.953-5.927.136-.065-.03-.126-.064-.19-.096-7.036-3.275-4.862-13.823 3.014-13.933 7.824.105 10.047 10.552 3.103 13.893Z" fill="url(#f)"/><path d="m61.896 43.418 3.397-6.152h-12.61a8.69 8.69 0 0 0-8.31 6.152h17.523Z" fill="url(#g)"/><path d="M43.143 63.79h7.462l3.41-6.152h-7.487l-3.385 6.152Z" fill="url(#h)"/><path d="M48.64 53.638c1.373.754 2.993.983 4.57.983h2.428l4.207-7.588c-1.715-.635-3.755-.422-5.556-.455H44.022a8.685 8.685 0 0 0 4.617 7.06Z" fill="url(#i)"/><path d="M63.293 49.206a8.676 8.676 0 0 0-.615-.577L54.273 63.79l.05-.001h.99v.001l1.738-.001c4.772.035 8.662-3.836 8.66-8.606a8.612 8.612 0 0 0-2.418-5.978Z" fill="url(#j)"/><path d="M166.248 25.998h2.789v.662h-1.021v2.834h-.747V26.66h-1.021v-.662ZM172.039 28.62l.045-.202c.035-.116.066-.258.106-.384l.632-2.036h1.035v3.496h-.707v-1.9c0-.156.005-.328.01-.464.005-.076.005-.152.01-.228h-.015c-.015.06-.035.122-.05.182-.036.106-.071.243-.107.364l-.641 2.046h-.682l-.632-2.046c-.04-.121-.075-.258-.111-.374-.015-.066-.035-.131-.05-.197h-.015c0 .076 0 .152.005.237.005.142.01.324.01.48v1.9h-.697v-3.496h1.071l.621 2.036c.035.126.076.268.101.384l.045.202h.016Z" fill="#fff"/><defs><linearGradient id="a" x1="93.49" y1="59.942" x2="107.338" y2="35.956" gradientUnits="userSpaceOnUse"><stop stop-color="#F5DA63"/><stop offset="1" stop-color="#89EBA7"/></linearGradient><linearGradient id="b" x1="116.101" y1="61.402" x2="129.845" y2="37.595" gradientUnits="userSpaceOnUse"><stop stop-color="#89EBA7"/><stop offset="1" stop-color="#32B8B8"/></linearGradient><linearGradient id="c" x1="66.435" y1="62.316" x2="84.622" y2="30.817" gradientUnits="userSpaceOnUse"><stop stop-color="#DF5959"/><stop offset="1" stop-color="#EDB654"/></linearGradient><linearGradient id="d" x1="79.826" y1="63.166" x2="95.069" y2="36.766" gradientUnits="userSpaceOnUse"><stop stop-color="#EDB654"/><stop offset="1" stop-color="#F5DA63"/></linearGradient><linearGradient id="e" x1="77.811" y1="38.077" x2="85.728" y2="24.364" gradientUnits="userSpaceOnUse"><stop stop-color="#EDB654"/><stop offset="1" stop-color="#F5DA63"/></linearGradient><linearGradient id="f" x1="144.671" y1="64.96" x2="166.022" y2="27.98" gradientUnits="userSpaceOnUse"><stop stop-color="#6EA4F9"/><stop offset="1" stop-color="#C600FF"/></linearGradient><linearGradient id="g" x1="50.848" y1="47.156" x2="58.742" y2="33.483" gradientUnits="userSpaceOnUse"><stop stop-color="#DD2558"/><stop offset="1" stop-color="#DF5959"/></linearGradient><linearGradient id="h" x1="45.879" y1="65.37" x2="51.261" y2="56.048" gradientUnits="userSpaceOnUse"><stop stop-color="#DD2558"/><stop offset="1" stop-color="#DF5959"/></linearGradient><linearGradient id="i" x1="48.213" y1="53.4" x2="53.878" y2="43.588" gradientUnits="userSpaceOnUse"><stop stop-color="#DD2558"/><stop offset="1" stop-color="#DF5959"/></linearGradient><linearGradient id="j" x1="57.068" y1="65.405" x2="65.734" y2="50.394" gradientUnits="userSpaceOnUse"><stop stop-color="#DD2558"/><stop offset="1" stop-color="#DF5959"/></linearGradient></defs></svg>