<svg width="217" height="108" fill="none" xmlns="http://www.w3.org/2000/svg"><g clip-path="url(#a)"><path d="M40.632 45.016c3.277-10.12 13.345-18.414 25.592-18.548A27.42 27.42 0 0 1 92.99 46.262c3.586 12.537-1.815 25.53-13.058 31.758L65.827 59.388c.733-.034 1.288-.032 1.835-.09 1.771-.19 3.458-.571 4.892-1.755a6.066 6.066 0 0 0 2.17-3.588c.705-3.654-.447-6.738-4.047-8.264-1.038-.441-2.278-.55-3.428-.561-7.31-.078-14.625-.086-21.933-.114-1.535-.004-3.068 0-4.684 0Zm46.64 3.878c-1.956-8.214-9.345-15.3-18.664-16.183-9.082-.862-16.855 4.207-20.125 10.127a.84.84 0 0 0 .18.042c.768 0 1.54-.046 2.302.018.764.064 1.202-.259 1.665-.801 2.94-3.448 6.662-5.558 11.131-6.251 3.88-.634 7.861.036 11.32 1.905a18.334 18.334 0 0 1 7.507 7.349c.677 1.202 1.181 2.506 1.783 3.806l2.9-.012Zm-3.17 11.893a20.204 20.204 0 0 1-2.935 5.409 21.954 21.954 0 0 1-4.52 4.275c.505.787.968 1.515 1.44 2.238.07.08.15.152.237.212 4.338-3.005 7.315-6.984 8.815-12.138l-3.037.004Z" fill="url(#b)"/><path d="M39.857 47.657H66.74a14.4 14.4 0 0 1 1.977.227c1.757.248 2.82 1.36 3.29 2.959.529 1.803.066 3.46-1.334 4.732-.892.801-2.06 1.076-3.248 1.102-2.07.044-4.137.042-6.21.06h-.702c5.732 7.547 11.362 14.953 17.074 22.47a27.464 27.464 0 0 1-10.018 2.3c-5.792.2-11.18-1.28-16-4.456-10.743-7.066-14.227-19.42-11.713-29.394Zm32.365 28.106-1.769-2.66c-6.693 1.124-12.57-.453-17.275-5.498-4.706-5.044-6.01-11-4.636-17.688h-3.04c-1.44 7.853.461 14.773 6.073 20.36 5.684 5.659 12.674 7.332 20.647 5.486Z" fill="#444"/><path d="M140.5 57.462c-2.126.13-2.128.132-3.316-1.474-1.226-1.655-2.448-3.314-3.787-5.127v6.577h-2.247V47.09c.601 0 1.202-.064 1.789.026.333.092.624.297.823.58 1.29 1.7 2.546 3.425 3.817 5.14.19.255.4.495.735.904v-6.611h2.186v10.333Z" fill="#F15C22"/><path d="M145.557 71.734V61.316h2.066c1.168 0 2.342-.058 3.502.036 2.302.189 3.432 2.256 2.258 4.047a8.068 8.068 0 0 1-.741.842c.353.255.687.535 1.001.837.314.327.54.728.655 1.165a2.656 2.656 0 0 1-1.767 3.22 4.382 4.382 0 0 1-1.368.26c-1.835.023-3.668.011-5.606.011Zm2.246-1.859c1.07 0 2.036.05 2.995-.016.824-.056 1.379-.681 1.341-1.346-.038-.665-.575-1.164-1.369-1.202-.983-.042-1.969-.01-2.967-.01v2.574Zm.012-4.353c.846 0 1.637.022 2.425 0 .787-.022 1.284-.463 1.334-1.076.052-.653-.435-1.202-1.262-1.254-.828-.052-1.637-.014-2.497-.014v2.344ZM110.399 68.14l2.438 3.525h-2.512l-2.316-3.306h-1.651v3.328h-2.204v-10.37c1.15 0 2.336-.016 3.52 0 .731-.02 1.462.028 2.184.144 1.647.347 2.65 1.447 2.835 2.955.178 1.459-.515 2.691-1.97 3.502-.082.052-.156.112-.324.223Zm-4.039-1.822c.879 0 1.675.04 2.464-.01.94-.06 1.583-.698 1.587-1.477 0-.75-.577-1.402-1.475-1.472-.845-.075-1.701-.017-2.576-.017v2.976Z" fill="#0B0B0B"/><path d="M119.426 57.71c-2.995-.012-5.524-2.506-5.514-5.441.01-2.935 2.587-5.41 5.574-5.377 2.987.032 5.433 2.466 5.445 5.387.012 2.955-2.51 5.443-5.505 5.431Zm3.263-5.409c0-1.817-1.51-3.406-3.239-3.406-1.729 0-3.248 1.587-3.246 3.406.002 1.82 1.509 3.406 3.24 3.406 1.731 0 3.245-1.59 3.245-3.394v-.012Z" fill="#F15C22"/><path d="M132.923 33.121v1.938h-5.693v2.185h5.128v1.986h-5.116v2.224h5.659v1.989h-7.921V33.12h7.943ZM122.253 63.306h-5.643v2.192h5.098v2.018h-5.098v2.15h5.663v2.003h-7.897V61.383h7.877v1.923ZM115.935 37.242h4.73v-4.127h2.204v10.311h-2.164v-4.075h-4.726v4.071h-2.226V33.107h2.182v4.135ZM126.191 68.33v3.343h-2.22V61.361c1.803 0 3.606-.154 5.363.037 2.632.28 3.983 2.864 2.785 5.068-.71 1.303-1.916 1.79-3.32 1.857-.829.039-1.663.006-2.608.006Zm.046-5.01v3.006c.827 0 1.592.03 2.352 0 1.001-.052 1.672-.695 1.662-1.507 0-.777-.645-1.402-1.602-1.468-.782-.064-1.577-.018-2.412-.018v-.012ZM133.945 61.354h2.24c0 1.827-.012 3.618.01 5.41a5.37 5.37 0 0 0 .182 1.476 2.383 2.383 0 0 0 2.277 1.692 2.38 2.38 0 0 0 2.277-1.692c.124-.45.186-.913.183-1.379.018-1.803 0-3.606 0-5.473h2.201c0 2.182.143 4.383-.038 6.56-.212 2.534-2.298 4.114-4.876 3.986-2.579-.128-4.334-1.907-4.454-4.486v-.5l-.002-5.594Z" fill="#0B0B0B"/><path d="m113.204 48.634-1.557 1.402c-.802-.711-1.647-1.274-2.765-1.134a3.19 3.19 0 0 0-2.051 1.14 3.45 3.45 0 0 0 .2 4.714c1.316 1.304 2.881 1.252 4.596-.2l1.516 1.356c-1.781 2.234-5.279 2.404-7.591.387a5.266 5.266 0 0 1-1.507-5.863 5.269 5.269 0 0 1 1.145-1.802c2.147-2.294 5.684-2.324 8.014 0Z" fill="#F15C22"/><path d="M176.351 64.278c-1.749-1.493-3.339-1.521-4.672-.147a3.433 3.433 0 0 0 0 4.787c1.317 1.376 2.923 1.348 4.666-.137l1.517 1.357c-1.779 2.233-5.279 2.404-7.591.386a5.264 5.264 0 0 1-.369-7.663c2.156-2.294 5.688-2.324 8.014 0l-1.565 1.417ZM103.687 33.1h8.573v1.949h-3.13v8.38h-2.251v-8.33h-3.192v-2ZM163.148 69.716v1.94h-7.358V61.354h2.173v8.362h5.185Z" fill="#0B0B0B"/><path d="M126.588 47.135h2.148v10.331h-2.148V47.135Z" fill="#F15C22"/><path d="M166.782 71.707h-2.112v-10.35h2.112v10.35Z" fill="#0B0B0B"/></g><defs><linearGradient id="b" x1="67.361" y1="26.465" x2="67.361" y2="101.155" gradientUnits="userSpaceOnUse"><stop stop-color="#E65425"/><stop offset="1" stop-color="#1E1E1E"/></linearGradient><clipPath id="a"><path fill="#fff" transform="translate(39.085 26.467)" d="M0 0h138.83v55.066H0z"/></clipPath></defs></svg>