<svg width="217" height="108" fill="none" xmlns="http://www.w3.org/2000/svg"><path d="M15.867 58.456v.294h-4.164v-.294h.147c.616 0 .967-1.027.967-1.614V40.464h-3.4c-1.262 0-1.877 1.202-1.877 2.113h-.293v-3.2h13.165v3.2h-.294c0-.91-.615-2.113-1.877-2.113h-3.46v16.378c0 .587.353 1.614.94 1.614h.146ZM33.721 58.456h.148c.586 0 .938-.998.938-1.614v-7.984h-9.383v7.984c0 .587.323 1.614.91 1.614h.146v.294h-4.105v-.294h.146c.587 0 .939-.998.939-1.614V41.197c0-.557-.323-1.526-.939-1.526h-.146v-.294h4.105v.294h-.146c-.617 0-.91.969-.91 1.526v6.633h9.383v-6.633c0-.557-.323-1.526-.938-1.526h-.148v-.294h4.106v.294h-.147c-.615 0-.909.969-.909 1.526v15.645c0 .587.382 1.614.91 1.614h.146v.294h-4.105v-.294ZM40.26 58.456h.147c.587 0 .997-.968.997-1.556V41.197c0-.557-.41-1.526-.997-1.526h-.146v-.294h11.288v2.73h-.293c-.088-.91-.675-1.703-1.994-1.703h-5.894v7.426h4.867c.91 0 1.584-.645 1.584-1.379h.294v3.67h-.294c0-.705-.645-1.293-1.584-1.293h-4.867v8.894h6.422c1.495 0 2.2-1.585 2.2-2.407h.292v3.435H40.26v-.294ZM61.285 58.456h.148c.585 0 .937-1.027.937-1.614V41.197c0-.557-.322-1.526-.937-1.526h-.148v-.294h5.66c6.215 0 9.91 4.696 9.91 9.775 0 4.755-3.46 9.598-10.292 9.598h-5.278v-.294Zm4.546-18.052h-1.496v17.318h1.554c4.223 0 8.973-2.583 8.973-8.13 0-5.02-3.841-9.188-9.031-9.188ZM90.576 58.456h.147c.47 0 .704-.206.704-.646 0-.146-.03-.322-.088-.498L88.7 50.178h-5.13l-2.552 7.016a1.187 1.187 0 0 0-.088.44c0 .5.323.822.645.822h.147v.294h-3.255v-.294h.147c.498 0 1.026-.704 1.349-1.526l6.714-17.905 6.568 17.729c.263.792.733 1.702 1.525 1.702h.146v.294h-4.34v-.294Zm-6.714-9.276h4.516l-2.258-6.134-2.258 6.134ZM96.793 39.377h4.193v.293h-.148c-.557 0-.937.94-.937 1.526v15.646c0 .586.352 1.614.937 1.614h.148v.294h-4.193v-.294h.146c.615 0 .967-.998.967-1.614V41.197c0-.557-.352-1.526-.967-1.526h-.146v-.294ZM103.799 58.456h.147c.586 0 .997-.968.997-1.556V41.197c0-.557-.411-1.526-.997-1.526h-.147v-.294h4.222v.294h-.146c-.587 0-.968.969-.968 1.526v16.467h6.421c1.496 0 2.199-1.585 2.199-2.613h.294v3.699h-12.022v-.294ZM115.055 39.377h4.047v.293c-.264.03-.557.236-.557.616 0 .088.029.206.088.324l4.398 7.72 4.222-7.31c.147-.322.205-.41.205-.646-.088-.616-.586-.704-.674-.704v-.293h3.137v.293c-.586 0-1.231.91-1.671 1.644l-4.574 7.926v7.602c0 .558.381 1.614.967 1.614h.147v.293h-4.193v-.293h.147c.615 0 .967-.998.967-1.614v-7.338l-4.721-8.102c-.381-.586-1.143-1.73-1.788-1.73h-.147v-.295ZM150.331 58.456h.146c.587 0 .938-.998.938-1.614v-7.984h-9.382v7.984c0 .587.322 1.614.909 1.614h.146v.294h-4.104v-.294h.146c.587 0 .938-.998.938-1.614V41.197c0-.557-.322-1.526-.938-1.526h-.146v-.294h4.104v.294h-.146c-.616 0-.909.969-.909 1.526v6.633h9.382v-6.633c0-.557-.323-1.526-.938-1.526h-.146v-.294h4.105v.294h-.148c-.615 0-.909.969-.909 1.526v15.645c0 .587.382 1.614.909 1.614h.148v.294h-4.105v-.294ZM176.601 49.004c0 5.871-4.632 10.039-10.263 10.039-6.01 0-9.704-4.726-9.704-9.775 0-5.047 3.694-10.184 10.116-10.184 6.069 0 9.851 4.637 9.851 9.92Zm-1.993.352c0-4.314-3.254-9.245-8.24-9.245-4.838 0-7.77 4.756-7.77 8.747 0 4.315 3.46 9.158 8.122 9.158 5.249-.235 7.888-4.755 7.888-8.66ZM179.151 58.456h.147c.586 0 .938-1.027.938-1.614V41.197c0-.557-.322-1.526-.938-1.526h-.147v-.294h5.659c6.216 0 9.911 4.696 9.911 9.775 0 4.755-3.46 9.598-10.292 9.598h-5.278v-.294Zm4.545-18.052h-1.495v17.318h1.554c4.221 0 8.971-2.583 8.971-8.13 0-5.02-3.84-9.188-9.03-9.188ZM197.242 58.456h.146c.587 0 .997-.968.997-1.556V41.197c0-.557-.41-1.526-.997-1.526h-.146v-.294h4.222v.294h-.147c-.586 0-.967.969-.967 1.526v16.467h6.421c1.495 0 2.199-1.585 2.199-2.613h.293v3.699h-12.022v-.294h.001Z" fill="#070909"/><path d="m12.463 68.338-2.255-4.209a76.1 76.1 0 0 1 .021 1.813v2.396h-.597v-4.791h.915l2.256 4.208a76.645 76.645 0 0 1-.022-1.813v-2.395h.584l.013 4.79h-.915ZM19.329 66.678h-2.664c.055.973.514 1.3 1.054 1.3.48 0 .867-.3.95-.828h.625c-.146.89-.847 1.285-1.602 1.285-.957 0-1.672-.624-1.672-1.923 0-1.194.742-1.952 1.747-1.952 1.014 0 1.576.758 1.576 1.834 0 .055 0 .152-.014.284Zm-2.657-.458h2.067c-.055-.764-.382-1.201-.985-1.201-.582 0-1.012.417-1.082 1.2ZM25.744 68.338h-.707l-.818-3.097-.82 3.097h-.707l-1.172-3.68h.686l.854 3.11.805-3.11h.742l.818 3.09.853-3.09h.638l-1.172 3.68ZM31.785 65.706h-.623c-.084-.43-.347-.687-.777-.687-.417 0-.611.23-.611.549 0 .367.305.514.804.646.847.222 1.25.555 1.25 1.18 0 .694-.59 1.041-1.367 1.041-.757 0-1.332-.347-1.443-1.18h.624c.097.535.437.723.86.723.396 0 .715-.182.715-.536 0-.354-.25-.541-.867-.708-.66-.18-1.187-.452-1.187-1.097 0-.674.513-1.077 1.27-1.077.825 0 1.276.472 1.352 1.146ZM39.88 67.81l-.201.397c-.25.173-.57.228-.923.228-.666 0-1.186-.367-1.186-1.048 0-.833.624-1.264 2.067-1.264h.236v-.098c0-.16 0-.305-.014-.444-.028-.34-.222-.562-.714-.562-.5 0-.75.27-.792.778h-.624c.055-.785.604-1.237 1.416-1.237.874 0 1.241.369 1.304.973.013.145.02.326.02.486v1.382c0 .278.014.527.07.937h-.597l-.062-.527Zm-.008-.867v-.375c-1.012-.077-1.65.138-1.65.77 0 .445.284.64.735.64.555 0 .916-.369.916-1.035ZM46.517 66.269v2.069h-.597V66.31c0-.188 0-.34-.013-.528-.035-.431-.27-.75-.84-.75-.576 0-1.061.43-1.061 1.687v1.618h-.597v-3.68h.597v.631l.23-.424c.312-.242.582-.305.956-.305.805 0 1.255.431 1.31 1.076.015.189.015.334.015.633ZM52.628 68.338h-.597v-.59l-.277.395c-.208.174-.596.292-.971.292-1.076 0-1.672-.804-1.672-1.881 0-1.362.846-1.993 1.797-1.993.305 0 .693.09.88.242l.243.362v-1.931h.597v5.104Zm-.597-1.805v-.201c0-.951-.596-1.313-1.123-1.313-.646 0-1.145.5-1.145 1.465 0 .833.374 1.494 1.11 1.494.61 0 1.158-.39 1.158-1.445ZM58.674 68.338v-4.791h.597v4.79h-.597ZM65.326 66.269v2.069h-.596V66.31c0-.188 0-.34-.014-.528-.035-.431-.27-.75-.84-.75-.575 0-1.061.43-1.061 1.687v1.618h-.597v-3.68h.597v.631l.23-.424c.311-.242.582-.305.956-.305.805 0 1.255.431 1.312 1.076.013.189.013.334.013.633ZM70.646 65.706h-.624c-.083-.43-.347-.687-.777-.687-.417 0-.61.23-.61.549 0 .367.305.514.804.646.846.222 1.248.555 1.248 1.18 0 .694-.59 1.041-1.367 1.041-.755 0-1.331-.347-1.442-1.18h.624c.098.535.438.723.86.723.395 0 .715-.182.715-.536 0-.354-.25-.541-.867-.708-.66-.18-1.187-.452-1.187-1.097 0-.674.514-1.077 1.27-1.077.826 0 1.276.472 1.353 1.146ZM73.982 63.831a.377.377 0 0 1-.382.382.377.377 0 0 1-.382-.382c0-.216.167-.381.382-.381s.382.165.382.381Zm-.68 4.507v-3.68h.596v3.68h-.597ZM80.058 67.436c0 .228 0 .514-.007.715-.035 1.077-.687 1.646-1.748 1.646-1.048 0-1.568-.438-1.644-1.215l-.007-.07h.603l.007.062c.05.452.41.764 1.041.764.728 0 1.123-.417 1.152-1.125.006-.173.006-.292.006-.402v-.063l-.278.396c-.207.173-.595.292-.97.292-1.076 0-1.672-.806-1.672-1.882 0-1.36.846-1.994 1.797-1.994.305 0 .693.09.88.244l.243.36v-.506h.597v2.778Zm-.597-.903v-.202c0-.95-.596-1.312-1.124-1.312-.645 0-1.145.5-1.145 1.465 0 .833.375 1.494 1.111 1.494.61 0 1.158-.39 1.158-1.445ZM86.113 66.27v2.068h-.597v-2.027c0-.188 0-.34-.014-.528-.035-.431-.27-.764-.84-.75-.575.014-1.06.43-1.06 1.688v1.617h-.597V63.2h.597v2.09l.228-.423c.313-.244.583-.306.958-.306.804 0 1.256.43 1.31 1.077.015.187.015.332.015.631ZM89.726 67.262c0 .125 0 .187.007.285.028.354.174.43.639.374v.438c-.174.028-.34.035-.507.035-.457 0-.694-.187-.729-.646-.006-.097-.006-.25-.006-.458v-2.146h-.492v-.459h.492v-.854h.596v.854h.687v.459h-.687v2.118ZM96.304 64.324v.362h.755v.458h-.755v3.194h-.597v-3.194h-.395v-.459h.395v-.305c0-.139.007-.319.02-.444.063-.535.424-.833.972-.833.153 0 .298.013.423.034v.493c-.45-.083-.75.022-.797.32-.015.097-.021.27-.021.374ZM102.927 66.498c0 1.034-.575 1.937-1.824 1.937-1.248 0-1.824-.903-1.824-1.937 0-1.042.576-1.938 1.824-1.938 1.249 0 1.824.896 1.824 1.938Zm-.652 0c0-.868-.43-1.479-1.172-1.479s-1.172.611-1.172 1.48c0 .86.43 1.479 1.172 1.479s1.172-.619 1.172-1.48ZM107.235 64.623v.451c-.625-.041-1.096.327-1.096 1.168v2.096h-.597v-3.68h.597v.576l.332-.493a.948.948 0 0 1 .514-.167c.097 0 .18.014.25.05ZM113.593 67.262c0 .125 0 .187.006.285.027.354.174.43.639.374v.438c-.174.028-.34.035-.507.035-.458 0-.693-.187-.728-.646-.007-.097-.007-.25-.007-.458v-2.146h-.493v-.459h.493v-.854h.597v.854h.686v.459h-.686v2.118ZM120.05 66.27v2.068h-.597v-2.027c0-.188 0-.34-.014-.528-.035-.431-.27-.764-.84-.75-.575.014-1.06.43-1.06 1.688v1.617h-.597V63.2h.597v2.09l.228-.423c.312-.244.583-.306.957-.306.805 0 1.256.43 1.312 1.077.014.187.014.332.014.631ZM125.951 66.678h-2.664c.057.973.514 1.3 1.055 1.3.479 0 .867-.3.951-.828h.623c-.145.89-.845 1.285-1.602 1.285-.957 0-1.672-.624-1.672-1.923 0-1.194.743-1.952 1.749-1.952 1.012 0 1.574.758 1.574 1.834 0 .055 0 .152-.014.284Zm-2.656-.458h2.066c-.055-.764-.38-1.201-.984-1.201-.583 0-1.013.417-1.082 1.2ZM135.71 65.887c0 1.41-.819 2.285-1.929 2.423-.243.028-.354.028-.61.028h-1.422v-4.791h1.457c.257 0 .367 0 .61.028 1.109.138 1.894.88 1.894 2.312Zm-.653 0c0-1.063-.492-1.688-1.304-1.82a3.336 3.336 0 0 0-.582-.035h-.825v3.82h.79c.25 0 .43-.007.582-.035.812-.131 1.339-.799 1.339-1.93ZM139.059 63.831a.377.377 0 0 1-.382.382.377.377 0 0 1-.382-.382c0-.216.167-.381.382-.381s.382.165.382.381Zm-.68 4.507v-3.68h.597v3.68h-.597ZM145.136 67.436c0 .228 0 .514-.007.715-.035 1.077-.687 1.646-1.749 1.646-1.047 0-1.567-.438-1.644-1.215l-.007-.07h.604l.006.062c.049.452.41.764 1.041.764.729 0 1.124-.417 1.152-1.125.007-.173.007-.292.007-.402v-.063l-.277.396c-.209.173-.597.292-.972.292-1.075 0-1.672-.806-1.672-1.882 0-1.36.847-1.994 1.797-1.994.305 0 .694.09.881.244l.243.36v-.506h.597v2.778Zm-.597-.903v-.202c0-.95-.597-1.312-1.124-1.312-.645 0-1.144.5-1.144 1.465 0 .833.374 1.494 1.109 1.494.61 0 1.159-.39 1.159-1.445ZM148.763 63.831a.377.377 0 0 1-.382.382.377.377 0 0 1-.382-.382c0-.216.167-.381.382-.381s.382.165.382.381Zm-.681 4.507v-3.68h.597v3.68h-.597ZM152.342 67.262c0 .125 0 .187.006.285.027.354.174.43.638.374v.438a3.174 3.174 0 0 1-.506.035c-.458 0-.693-.187-.728-.646-.007-.097-.007-.25-.007-.458v-2.146h-.493v-.459h.493v-.854h.597v.854h.685v.459h-.685v2.118ZM157.737 67.81l-.202.397c-.249.173-.568.228-.922.228-.666 0-1.186-.367-1.186-1.048 0-.833.624-1.264 2.068-1.264h.235v-.098c0-.16 0-.305-.014-.444-.028-.34-.221-.562-.715-.562-.498 0-.748.27-.79.778h-.625c.056-.785.604-1.237 1.415-1.237.874 0 1.242.369 1.304.973.015.145.022.326.022.486v1.382c0 .278.013.527.068.937h-.595l-.063-.527Zm-.007-.867v-.375c-1.012-.077-1.651.138-1.651.77 0 .445.284.64.735.64.556 0 .916-.369.916-1.035ZM161.836 67.283c0 .111 0 .23.008.347.013.236.124.313.45.278v.43a2.745 2.745 0 0 1-.423.029c-.347 0-.604-.112-.624-.576-.007-.125-.007-.285-.007-.487v-4.069h.596v4.048ZM171.158 68.338h-3.184v-4.791h3.114v.485h-2.518V65.7h2.31v.486h-2.31v1.666h2.588v.486ZM176.734 65.893h-.625c-.132-.59-.45-.874-.942-.874-.577 0-1.062.451-1.062 1.444 0 1.07.472 1.515 1.02 1.515.485 0 .825-.279.95-.813h.624c-.18.853-.79 1.27-1.609 1.27-.93 0-1.637-.582-1.637-1.93 0-1.243.805-1.945 1.727-1.945.881 0 1.443.529 1.554 1.333ZM182.664 66.498c0 1.034-.575 1.937-1.824 1.937s-1.824-.903-1.824-1.937c0-1.042.575-1.938 1.824-1.938s1.824.896 1.824 1.938Zm-.652 0c0-.868-.43-1.479-1.172-1.479s-1.172.611-1.172 1.48c0 .86.43 1.479 1.172 1.479s1.172-.619 1.172-1.48ZM188.386 66.269v2.069h-.597V66.31c0-.188 0-.34-.014-.528-.035-.431-.27-.75-.839-.75-.576 0-1.061.43-1.061 1.687v1.618h-.597v-3.68h.597v.631l.228-.424c.312-.242.583-.305.957-.305.805 0 1.256.431 1.312 1.076.014.189.014.334.014.633ZM194.629 66.498c0 1.034-.577 1.937-1.826 1.937-1.248 0-1.824-.903-1.824-1.937 0-1.042.576-1.938 1.824-1.938 1.249 0 1.826.896 1.826 1.938Zm-.654 0c0-.868-.43-1.479-1.172-1.479s-1.172.611-1.172 1.48c0 .86.43 1.479 1.172 1.479s1.172-.619 1.172-1.48ZM202.167 66.089v2.249h-.596v-1.972c0-.326-.007-.528-.027-.715-.057-.417-.32-.619-.736-.619-.465 0-.805.369-.805 1.487v1.819h-.596v-1.972c0-.326-.007-.528-.028-.715-.056-.417-.319-.619-.735-.619-.465 0-.805.369-.805 1.487v1.819h-.596v-3.68h.596v.534l.236-.417c.188-.152.451-.215.777-.215.561 0 .923.285 1.061.688l.327-.473c.187-.152.45-.215.777-.215.659 0 1.033.39 1.116.896.028.188.034.334.034.633ZM206.558 68.651c-.299.777-.694 1.146-1.291 1.146-.132 0-.215 0-.305-.015v-.485c.09.006.153.006.215.006.368 0 .61-.16.798-.646l.049-.13-1.464-3.87h.673l1.096 3.237 1.089-3.236h.652l-1.512 3.993Z" fill="#2F302F"/></svg>