<svg width="217" height="108" fill="none" xmlns="http://www.w3.org/2000/svg"><path d="M25.64 63.789c-2.076-1.978-3.164-4.845-3.164-8.504V41.64h8.306v13.349c0 1.78.297 3.164.989 3.955.692.79 1.582 1.186 2.768 1.186 1.187 0 2.176-.395 2.769-1.186.692-.791.989-2.176.989-3.956V41.64h8.207v13.546c0 3.659-1.088 6.526-3.164 8.603-2.176 2.076-5.043 3.065-8.9 3.065-3.757 0-6.723-.989-8.8-3.065Zm27.785-19.677c.89 0 1.384.297 1.582.593.297.297.593.593.593 1.483 0 .89-.296 1.286-.593 1.483-.296.297-.692.594-1.582.594-.89 0-1.285-.297-1.582-.593-.297-.297-.593-.693-.593-1.484 0-.79.296-1.186.593-1.483.297-.198.692-.593 1.582-.593Zm0-2.472c-1.285 0-2.373.494-3.263 1.285-.89.791-1.285 1.88-1.285 3.263 0 1.385.395 2.472 1.285 3.263.89.89 1.978 1.286 3.362 1.286 1.384 0 2.472-.396 3.362-1.286.89-.89 1.285-1.977 1.285-3.263 0-1.285-.395-2.472-1.285-3.263-.989-.79-2.077-1.285-3.46-1.285Zm14.436 6.526h-7.218V41.64h22.742v6.427h-7.218v18.194h-8.306V48.166ZM91 65.272a12.918 12.918 0 0 1-4.944-4.549c-1.187-1.977-1.78-4.152-1.78-6.624 0-2.472.593-4.648 1.78-6.625 1.186-1.978 2.867-3.461 4.944-4.549 2.076-1.285 4.45-1.78 7.12-1.78 2.669 0 5.042.594 7.118 1.681a12.913 12.913 0 0 1 4.944 4.549c1.187 1.879 1.78 4.153 1.78 6.625 0 2.472-.593 4.647-1.78 6.625-1.186 1.977-2.867 3.46-4.944 4.548-2.076 1.088-4.449 1.68-7.119 1.68s-5.043-.493-7.12-1.581Zm9.888-5.834a5.313 5.313 0 0 0 1.977-2.175c.495-.89.692-1.978.692-3.263 0-1.286-.197-2.373-.692-3.263-.494-.89-1.186-1.681-1.977-2.176a5.317 5.317 0 0 0-2.769-.79 5.315 5.315 0 0 0-4.746 2.966c-.494.89-.692 1.977-.692 3.263a7.96 7.96 0 0 0 .692 3.263c.494.89 1.186 1.68 1.978 2.175.79.494 1.78.791 2.768.791.989-.099 1.978-.297 2.769-.79Zm14.139-17.798h12.162c2.769 0 5.142.494 7.317 1.483a12.227 12.227 0 0 1 4.944 4.252c1.187 1.879 1.78 4.054 1.78 6.526 0 2.472-.593 4.647-1.78 6.526-1.186 1.879-2.768 3.263-4.944 4.252-2.076.988-4.548 1.483-7.317 1.483h-12.162V41.64Zm11.866 18.194c1.78 0 3.164-.495 4.252-1.484 1.087-.988 1.582-2.472 1.582-4.35 0-1.879-.495-3.263-1.582-4.35-1.088-.99-2.472-1.484-4.252-1.484h-3.56v11.668h3.56Zm33.717 2.175h-9.393l-1.681 4.252h-8.405l10.778-24.621h8.207l10.679 24.72h-8.603l-1.582-4.351Zm-2.274-5.933-2.373-6.23-2.373 6.23h4.746Zm26.895 1.286v8.899h-8.306v-9.097L167.63 41.54h8.8l5.043 8.504 5.042-8.504h8.01l-9.295 15.82Z" fill="#0B0B0B"/></svg>