<svg xmlns="http://www.w3.org/2000/svg" width="282" height="336" fill="none"><g clip-path="url(#a)"><circle cx="136.484" cy="162.484" r="229.484" fill="url(#b)"/><path fill="#0063FD" d="m269.364 348.936.073-.067c.35-.459.82-1.068 1.171-1.527l-1.873-.996-1.079.103c-14.706 2.818-27.1 14.123-43.215 11.781-3.034-.439-4.185-3.613-5.299-6.678-3.803-10.485-7.121-12.363-13.788-14.154q-3.003-.19-5.361.078c-7.1 1.842-18.989 4.923-33.483 26.043q-15.192 24.437-17.596 24.644c-.759.067-1.775.155-2.534.247 3.225 1.172 7.235 2.627 22.71.537-1.301.17-3.04.413-4.34.573-9.876.81-23.076 1.579-32.983 1.682q-24.292-1.481-36.234-3.658-23.333-5.212-34.603-9.165-22.002-8.69-32.436-14.272l-.433-.232c-1.837-1.058-4.262-2.513-5.986-3.747q4.124.398 15.264 5c41.987 17.364 66.884 25.212 103.438 25.832a210 210 0 0 0 28.307-2.013l-.49.067C80.523 400.671-6.526 329.313 5.863 318.508c.583-.506 1.646-.723 2.353-1.032l.19-.031 1.105-.083q7.198 1.213 52.157 31.776c36.399 21.341 59.377 22.1 69.831 20.65 5.464-.996 12.941-2.363 21.362-11.976 26.755-34.454 37.22-80.223 74.573-107.308 4.582-2.751 13.112-7.864 25.31-9.613 7.647-.609 25.547-2.039 30.16 15.536 5.361 20.408-7.745 36.982-11.507 55.502-.283 4.829-.665 11.439 7.24 10.428 3.581-.836 6.966-1.625 14.706-6.858 15.31-11.254 22.823-19.221 40.976-38.473-15.419 27.617-37.896 52.596-64.96 71.905"/><path fill="#0063FD" d="M363.571 193.039c-1.961-1.677-2.555-2.182-8.741-1.537l-1.182.155-3.034.428c-1.063.155-2.477.356-3.535.5-32.42 3.762-46.368-4.024-63.948-16.331q-79.005-71.838-103.856-75.388a95 95 0 0 0-4.401.248l-1.502.185c-46.61 13.029-56.409 62.225-58.298 76.993-3.374 41.889 6.136 83.567 2.111 125.466-3.308 34.459-11.001 38.447-17.952 39.479-20.367 1.461-49.743-23.137-78.148-46.93-13.927-11.662-32.999-27.632-51.384-25.165-28.963 7.92-8.834 40.124 10.656 58.561l-8.07-7.869q-15.858-17.54-22.73-27.183l-5.532-8.127-3.984-6.858c-9.984-23.437-3.25-37.096 20-40.594 7.668-.764 21.936-2.193 47.029 8.081 22.142 9.391 30.423 12.905 40.707 11.501 2.142-.418 4.164-.81 6.786-2.095 9.319-6.888 17.363-12.833 14.99-56.806-2.518-46.626.423-82.803 23.122-140.384 7.234-16.899 27.27-56.678 56.956-61.1 3.586-.371 6.677-.691 12.456.119 14.417 4.324 24.836 7.451 45.094 26.218 25.599 23.72 42.683 54.81 68.107 78.68 21.445 20.134 43.354 17.972 71.095 15.238 8.276-.336 11.419.418 16.305 6.032.253 1.568.496 3.142.718 4.726 3.075 21.677 3.023 43.076.201 63.742"/><path fill="#0063FD" d="M342.829 61.485c-1.063-.769-2.43-1.873-3.545-2.565C316.663 44.931 291.307 36.072 269 21.495c-23.633-15.44-43.824-35.785-69.325-48.55-20.006-10.016-39.696-14.041-56.946-11.642-7.776 1.424-22.255 4.071-39.727 19.629C90.824-7.02 65.494 18.048 45.757 68.368c-17.364 44.279-10.413 97.788-50.661 133.377-4.701 2.838-7.642 4.195-13.68 5.222-17.44 1.573-32.807-8.767-49.99-8.7l-1.238.129c-5.527 2.193-20.212 8.013-8.22 44.634l-4.433-12.838c-1.857-6.92-4.427-16.125-5.918-23.127-.986-7.054 4.768-41.559 120.28-189.327 40.418-51.729 79.222-74.232 90.151-79.898 3.286-1.181 3.415-1.228 6.403-1.739 73.314-7.683 195.916 94.259 196.948 95.306a229 229 0 0 1 17.425 30.078"/><path fill="#0063FD" d="M104.972-66.048q-2.337 2.595-8.824 7.25C-1.453 11.244-57.336 88.536-72.14 110.553c-12.894 18.922-19.448 31.621-20.614 39.975.795-9.128 2.059-21.29 3.462-30.346q5.217-23.334 9.17-34.593l1.305-3.627c1.528-3.654 1.94-4.64 6.063-12.327 18.757-33.205 32.24-49.723 50.558-68.588 20.46-19.943 41.59-32.059 47.183-32.962.336.005.78.01 1.11.016 1.192 1.78-.227 4.004.985 5.784l.924.145c4.814-1.868 5.96-2.312 17.745-9.547 44.851-27.544 58.721-30.474 58.84-30.495.109.036.268-.026.382-.041"/></g><defs><radialGradient id="b" cx="0" cy="0" r="1" gradientTransform="rotate(44.165 50.49 -153.966)scale(742.004)" gradientUnits="userSpaceOnUse"><stop stop-color="#001C3F"/><stop offset=".332" stop-color="#0063FD"/><stop offset=".741" stop-color="#C3DFFF"/><stop offset="1" stop-color="#fff"/></radialGradient><clipPath id="a"><path fill="#fff" d="M0 0h282v336H0z"/></clipPath></defs></svg>