<svg width="33" height="32" viewBox="0 0 33 32" fill="none" xmlns="http://www.w3.org/2000/svg">
<rect x="0.5" width="32" height="32" rx="16" fill="#1A4FE5"/>
<path d="M17.062 20.5H12.12V11.414H16.824C18.462 11.414 20.226 12.044 20.184 14.144C20.17 15.32 19.414 15.992 18.028 15.992V16.062C19.54 16.16 20.632 16.482 20.632 18.148C20.632 20.136 18.784 20.5 17.062 20.5ZM14.556 13.276V15.264H16.782C17.412 15.264 17.86 15.348 17.86 14.214C17.86 13.458 17.314 13.262 16.712 13.262L14.556 13.276ZM14.556 16.818V18.652H17.02C17.678 18.652 18.21 18.61 18.21 17.756C18.21 17.182 17.692 16.818 17.02 16.818H14.556Z" fill="white"/>
</svg>
