<svg width="32" height="32" viewBox="0 0 32 32" fill="none" xmlns="http://www.w3.org/2000/svg">
<rect width="32" height="32" rx="16" fill="#F96428"/>
<path d="M17.506 18.302H19.536C19.298 20.234 17.38 20.5 16.008 20.5C13.74 20.5 12.004 19.576 12.004 16.748C12.004 15.922 12.34 13.276 15.854 13.276C18.514 13.276 19.62 14.774 19.62 17.378H14.118C14.146 18.162 14.608 18.792 16.036 18.792C16.68 18.792 17.366 18.75 17.506 18.302ZM14.174 16.342H17.45C17.366 15.474 16.778 15.152 15.714 15.152C14.902 15.152 14.37 15.544 14.174 16.342Z" fill="white"/>
</svg>
