<svg width="32" height="32" viewBox="0 0 32 32" fill="none" xmlns="http://www.w3.org/2000/svg">
<rect width="32" height="32" rx="16" fill="#BF00B6"/>
<path d="M18.1965 18.413C18.9687 18.413 19.6122 19.0349 19.6122 19.8285V20.6006C19.698 22.3594 18.3896 23.2604 16.0302 23.2604C13.6709 23.2604 12.3411 22.3809 12.3411 20.6221V19.807C12.3411 19.0349 12.9629 18.3915 13.7565 18.3915H18.1965V18.413ZM9.33824 14.3806H12.8773C12.813 14.638 12.77 14.9168 12.77 15.1957C12.77 16.0965 13.1345 16.9116 13.7351 17.4907L13.8639 17.6194H13.778C13.5421 17.6194 13.3062 17.6622 13.0918 17.7266C12.384 17.9625 11.8476 18.5202 11.6546 19.228H11.6331C9.29523 19.228 7.94403 18.3485 7.94403 16.5898V15.7747C7.94403 15.0025 8.56611 14.3591 9.35971 14.3591L9.33824 14.3806ZM22.6363 14.3806C23.4084 14.3806 24.052 15.0026 24.052 15.7962V16.5684C24.1378 18.3272 22.8293 19.228 20.47 19.228H20.3414C20.1484 18.5417 19.6336 17.984 18.9687 17.7481C18.7756 17.6837 18.5825 17.6408 18.368 17.6194H18.218H18.1321C18.797 17.0188 19.226 16.1609 19.226 15.1957C19.226 14.9168 19.183 14.638 19.1187 14.3806H22.6578H22.6363ZM15.9873 12.772C17.3171 12.772 18.411 13.8659 18.411 15.1957C18.411 16.5255 17.3171 17.6194 15.9873 17.6194C14.6575 17.6194 13.5636 16.5255 13.5636 15.1957C13.5636 13.8659 14.6575 12.772 15.9873 12.772ZM11.5475 8.73961C12.8773 8.73961 13.9712 9.8335 13.9712 11.1633C13.9712 12.4931 12.8773 13.587 11.5475 13.587C10.2177 13.587 9.12381 12.4931 9.12381 11.1633C9.12381 9.8335 10.2177 8.73961 11.5475 8.73961ZM20.4273 8.73961C21.7571 8.73961 22.8507 9.8335 22.8507 11.1633C22.8507 12.4931 21.7571 13.587 20.4273 13.587C19.0975 13.587 18.0036 12.4931 18.0036 11.1633C18.0036 9.8335 19.0975 8.73961 20.4273 8.73961Z" fill="white"/>
</svg>
