<svg width="33" height="32" viewBox="0 0 33 32" fill="none" xmlns="http://www.w3.org/2000/svg">
<rect x="0.5" width="32" height="32" rx="16" fill="#F9F9F9"/>
<path d="M20.9575 13.211C20.9575 15.2556 19.5345 17.7255 17.7516 18.756C16.2632 19.6229 15.0037 19.1649 14.6602 17.7746C15.1018 17.84 15.6415 17.7255 16.214 17.382C17.8333 16.4497 19.1419 14.1761 19.1419 12.3114C19.1419 11.7553 19.0273 11.2973 18.8147 10.9538C20.0578 10.7411 20.9575 11.5917 20.9575 13.211Z" fill="#F96428"/>
<path d="M20.8265 8.74558C20.8101 8.74558 20.7939 8.72919 20.7612 8.71284L18.9456 7.66597C18.5367 7.3879 18.0624 7.25705 17.5226 7.25705C16.8847 7.25705 16.2468 7.48609 15.4943 7.91136C12.8609 9.36713 10.6035 13.5708 10.6035 16.3351V17.1039C10.6035 20.4571 15.0036 24.5463 15.0036 24.5463L16.8355 25.6095C16.7701 25.5441 18.7819 22.6162 20.663 16.924C22.7567 10.6266 20.843 8.81093 20.794 8.76185L20.8265 8.74558ZM17.7516 18.756C16.2631 19.6229 15.0036 19.1648 14.6601 17.7745C13.9731 17.6764 13.4823 17.153 13.3351 16.2861C13.1388 13.4891 14.6273 11.2809 16.7537 10.3649C17.6533 10.0378 18.4221 10.2667 18.831 10.9537C20.0741 10.7411 20.9739 11.5916 20.9739 13.211C20.9739 15.2556 19.5507 17.7255 17.7678 18.756H17.7516Z" fill="url(#paint0_linear_4935_27698)"/>
<mask id="mask0_4935_27698" style="mask-type:luminance" maskUnits="userSpaceOnUse" x="13" y="11" width="7" height="7">
<path d="M16.7537 17.9218C18.5243 17.9218 19.9598 16.4864 19.9598 14.7158C19.9598 12.9452 18.5243 11.5099 16.7537 11.5099C14.9831 11.5099 13.5478 12.9452 13.5478 14.7158C13.5478 16.4864 14.9831 17.9218 16.7537 17.9218Z" fill="white"/>
</mask>
<g mask="url(#mask0_4935_27698)">
<path d="M16.7047 20.3262L16.3938 20.1463V17.1366L16.7047 17.3166V20.3262Z" fill="url(#paint1_linear_4935_27698)"/>
<path d="M16.7047 20.3262L17.0318 20.1463V17.1366L16.7047 17.3166V20.3262Z" fill="url(#paint2_linear_4935_27698)"/>
<path d="M20.0414 15.6528C20.4685 13.9438 19.4293 12.212 17.7203 11.785C16.0112 11.3579 14.2796 12.3973 13.8525 14.1063C13.4255 15.8153 14.4647 17.5469 16.1737 17.9739C17.8828 18.401 19.6144 17.3618 20.0414 15.6528Z" fill="url(#paint3_radial_4935_27698)"/>
<path style="mix-blend-mode:multiply" d="M19.927 14.7322C19.927 12.9656 18.5038 11.5425 16.7372 11.5425C14.9707 11.5425 13.5477 12.9656 13.5477 14.7322C13.5477 16.3842 14.7908 17.7255 16.3938 17.9054V20.1463L16.7047 20.3262L17.0154 20.1463V17.9054C18.6347 17.7582 19.9106 16.4006 19.9106 14.7322H19.927Z" fill="url(#paint4_linear_4935_27698)"/>
</g>
<path d="M20.8266 8.74563C20.8102 8.74563 20.794 8.72924 20.7613 8.71288C19.878 8.22218 18.7002 8.28761 17.408 9.02367C15.4616 10.1523 13.7769 12.524 12.9754 14.9939C12.6646 15.9753 12.5173 16.4987 12.5173 17.4474V18.2162C12.5173 20.8006 15.3961 24.2683 16.7373 25.5114C16.7701 25.5441 16.8029 25.5605 16.8356 25.5932C17.1627 25.7895 17.6043 25.6749 17.7842 25.3151C18.9455 22.9433 22.3315 15.7791 22.3315 13.0148V12.2459C22.3315 10.5285 21.7427 9.30176 20.8104 8.74563H20.8266ZM14.6602 17.7746C14.6602 17.7746 14.6274 17.6273 14.6111 17.5455C14.5783 17.3493 14.5619 17.1367 14.5619 16.9077C14.5619 14.8631 15.9849 12.3932 17.7678 11.3627C17.9641 11.2482 18.1606 11.1501 18.3569 11.0847C18.5204 11.0192 18.6839 10.9865 18.8311 10.9538C20.0742 10.7411 20.9739 11.5917 20.9739 13.211C20.9739 15.2556 19.5507 17.7255 17.7678 18.756C16.2794 19.6229 15.02 19.1649 14.6766 17.7746H14.6602Z" fill="url(#paint5_linear_4935_27698)"/>
<defs>
<linearGradient id="paint0_linear_4935_27698" x1="10.7343" y1="22.7471" x2="17.9641" y2="14.3886" gradientUnits="userSpaceOnUse">
<stop stop-color="#FF9BAD"/>
<stop offset="1" stop-color="#F96428"/>
</linearGradient>
<linearGradient id="paint1_linear_4935_27698" x1="16.5411" y1="20.3262" x2="16.5411" y2="17.1366" gradientUnits="userSpaceOnUse">
<stop stop-color="#C6D2DC"/>
<stop offset="0.29" stop-color="#D2DBE3"/>
<stop offset="0.81" stop-color="#F2F4F7"/>
<stop offset="1" stop-color="white"/>
</linearGradient>
<linearGradient id="paint2_linear_4935_27698" x1="16.8682" y1="20.3262" x2="16.8682" y2="17.1366" gradientUnits="userSpaceOnUse">
<stop stop-color="#9CB0C3"/>
<stop offset="0.37" stop-color="#A8B9CA"/>
<stop offset="1" stop-color="#C6D2DC"/>
</linearGradient>
<radialGradient id="paint3_radial_4935_27698" cx="0" cy="0" r="1" gradientUnits="userSpaceOnUse" gradientTransform="translate(15.4932 13.0641) scale(5.00524)">
<stop stop-color="white"/>
<stop offset="0.34" stop-color="#E0E6EC"/>
<stop offset="1" stop-color="#9CB0C3"/>
</radialGradient>
<linearGradient id="paint4_linear_4935_27698" x1="19.2727" y1="17.889" x2="14.1693" y2="12.7856" gradientUnits="userSpaceOnUse">
<stop stop-color="#9CB0C3"/>
<stop offset="0.14" stop-color="#B3C2D1"/>
<stop offset="0.38" stop-color="#D4DCE5"/>
<stop offset="0.61" stop-color="#EBEFF3"/>
<stop offset="0.82" stop-color="#FAFBFC"/>
<stop offset="1" stop-color="white"/>
</linearGradient>
<linearGradient id="paint5_linear_4935_27698" x1="18.0787" y1="14.2252" x2="14.0058" y2="23.156" gradientUnits="userSpaceOnUse">
<stop stop-color="#FF9BAD"/>
<stop offset="1" stop-color="#F96428"/>
</linearGradient>
</defs>
</svg>
