<svg width="48" height="48" viewBox="0 0 48 48" fill="none" xmlns="http://www.w3.org/2000/svg">
<path d="M24 48C37.2548 48 48 37.2548 48 24C48 10.7452 37.2548 0 24 0C10.7452 0 0 10.7452 0 24C0 37.2548 10.7452 48 24 48Z" fill="#F96428"/>
<path d="M24.8882 10.8742L27.6299 19.3245H36.5042C37.4181 19.3245 37.8021 20.4901 37.0603 21.0331L29.8816 26.2517L32.6233 34.702C32.9014 35.5762 31.9081 36.2914 31.1796 35.7616L24.0008 30.5431L16.8219 35.7616C16.0802 36.2914 15.0868 35.5762 15.3782 34.702L18.12 26.2517L10.9412 21.0331C10.1995 20.5033 10.5836 19.3245 11.4975 19.3245H20.3716L23.1133 10.8742C23.3914 10 24.6233 10 24.9015 10.8742H24.8882Z" fill="white"/>
</svg>
