<svg width="33" height="32" viewBox="0 0 33 32" fill="none" xmlns="http://www.w3.org/2000/svg">
<rect x="0.5" width="32" height="32" rx="16" fill="#F96428"/>
<path d="M14.818 20.5H12.494V10.462H14.874V14.69C15.294 13.934 16.274 13.346 17.142 13.346C19.34 13.346 20.446 15.292 20.348 17.168C20.264 18.848 19.228 20.458 17.142 20.57C15.854 20.64 15.196 19.73 14.818 19.184V20.5ZM16.428 18.68C17.408 18.68 17.982 17.882 17.982 16.958C17.982 16.02 17.422 15.222 16.428 15.222C15.434 15.222 14.86 16.02 14.86 16.958C14.86 17.882 15.434 18.68 16.428 18.68Z" fill="white"/>
</svg>
