<svg width="33" height="32" viewBox="0 0 33 32" fill="none" xmlns="http://www.w3.org/2000/svg">
<rect x="0.5" width="32" height="32" rx="16" fill="#FFD400"/>
<path d="M9.84923 9.37494C9.43287 9.37494 9.10425 9.70356 9.10425 10.1199V14.174C9.10425 15.423 9.87114 16.4968 10.9449 16.9131V21.5588C10.9449 22.1723 11.4489 22.6764 12.0625 22.6764C12.6761 22.6764 13.1801 22.1723 13.1801 21.5588V16.9131C14.2758 16.4749 15.0207 15.423 15.0207 14.174V10.1199C15.0207 9.70356 14.6921 9.37494 14.2758 9.37494C13.8594 9.37494 13.5305 9.70356 13.5305 10.1199V13.0783C13.5305 13.2755 13.3554 13.4508 13.1582 13.4508C12.9609 13.4508 12.7855 13.2755 12.7855 13.0783V10.1199C12.7855 9.70356 12.4569 9.37494 12.0406 9.37494C11.6242 9.37494 11.2956 9.70356 11.2956 10.1199V13.0783C11.2956 13.2755 11.1202 13.4508 10.923 13.4508C10.7257 13.4508 10.5503 13.2755 10.5503 13.0783V10.1199C10.5503 9.70356 10.2217 9.37494 9.80536 9.37494M22.3178 9.37494C22.3178 9.37494 22.1206 9.44065 22.0329 9.48448L19.4473 11.0184V13.7795H16.489V15.2477H17.234L17.979 22.6325H22.4055L23.1505 15.2477H23.8958V13.7795H20.9372V11.8073L22.7782 10.6897C23.1507 10.4925 23.2383 10.0761 23.0192 9.70356C22.8658 9.4406 22.5807 9.28724 22.3178 9.33107V9.37494Z" fill="#A80202"/>
</svg>
