 
<svg width="33" height="32" viewBox="0 0 33 32" fill="none" xmlns="http://www.w3.org/2000/svg">
<rect x="0.5" width="32" height="32" rx="16" fill="#F96428"/>
<path d="M19.942 20.5H17.618V19.184C17.31 20.066 16.022 20.57 15.434 20.57C13.306 20.57 12.074 19.156 12.074 16.958C12.074 14.746 13.306 13.346 15.434 13.346C16.008 13.346 17.226 13.682 17.576 14.69V10.462H19.942V20.5ZM16.036 18.68C17.016 18.68 17.59 17.882 17.59 16.958C17.59 16.02 17.03 15.222 16.036 15.222C15.042 15.222 14.468 16.02 14.468 16.958C14.468 17.882 15.042 18.68 16.036 18.68Z" fill="white"/>
</svg>
