<svg width="32" height="32" viewBox="0 0 32 32" fill="none" xmlns="http://www.w3.org/2000/svg">
<rect width="32" height="32" rx="16" fill="#F96428"/>
<path d="M18.472 20.5C17.884 20.5 17.002 20.164 16.96 19.212C16.554 20.276 15.63 20.626 14.58 20.626C13.362 20.626 12.13 20.08 12.004 18.722C11.822 16.958 13.236 16.314 15.028 16.314L16.946 16.328V15.684C16.946 15.236 16.694 14.914 15.77 14.914C14.958 14.914 14.594 15.166 14.594 15.712H12.508C12.424 13.892 13.88 13.22 15.672 13.22C17.464 13.22 19.256 13.668 19.256 15.474V18.4C19.256 18.764 19.368 19.016 19.732 19.016H19.788V20.5H18.472ZM14.23 18.344C14.188 19.016 14.692 19.1 15.294 19.086C16.008 19.058 16.946 18.498 16.946 17.826V17.56L15.434 17.588C14.58 17.602 14.244 17.784 14.23 18.344Z" fill="white"/>
</svg>
