<svg width="32" height="32" viewBox="0 0 32 32" fill="none" xmlns="http://www.w3.org/2000/svg">
<rect width="32" height="32" rx="16" fill="#76FBB7"/>
<path fill-rule="evenodd" clip-rule="evenodd" d="M18.7493 7.17409C17.5188 7.17409 16.5569 8.13617 16.5569 9.34428H16.5793C16.5793 10.5748 17.5412 11.5367 18.7493 11.5367C19.9574 11.5367 20.9194 10.5524 20.9194 9.34428C20.9194 8.13617 19.9351 7.17409 18.7493 7.17409ZM19.1205 13.8023C19.1692 13.7413 19.2146 13.6836 19.2581 13.6283C19.3688 13.4876 19.4675 13.3623 19.5771 13.237C20.0469 12.6554 20.7629 12.5435 21.2998 12.991C21.8367 13.4161 21.9037 14.1319 21.4563 14.7136C20.9417 15.3847 20.4273 16.0336 19.8903 16.7047C19.3534 17.3759 18.3019 17.4206 17.6979 16.7942C17.6012 16.6975 17.5176 16.5878 17.4294 16.4721C17.3543 16.3736 17.276 16.2707 17.1834 16.1678C16.9597 16.5481 16.7415 16.9229 16.5233 17.2976C16.3051 17.6723 16.0869 18.0471 15.8632 18.4275C15.93 18.4942 15.9969 18.5389 16.0637 18.5834L16.0647 18.5841L16.0699 18.5878C17.4329 19.571 18.7959 20.5541 20.1812 21.5149C21.3446 22.3426 21.3446 23.9087 20.1812 24.5799C19.9351 24.7141 19.6219 24.8259 19.3534 24.8259H11.9704C11.0084 24.8259 10.2704 24.0429 10.248 23.0586C10.248 22.0965 10.986 21.2911 11.948 21.2464C12.306 21.2464 12.6863 21.2463 13.089 21.1792C13.0331 21.1457 12.9772 21.1065 12.9214 21.0674C12.8655 21.0282 12.8096 20.9891 12.7537 20.9555C12.6045 20.8362 12.4503 20.7218 12.2961 20.6074C11.9878 20.3787 11.6795 20.15 11.4111 19.8816C10.5833 19.0762 10.4493 18.2037 11.031 17.1746C11.4909 16.341 11.9785 15.5166 12.4641 14.6956C12.7345 14.2385 13.0042 13.7825 13.2682 13.3265C13.4468 13.0139 13.6254 12.7237 13.804 12.4335L13.8051 12.4317C14.6553 11.0222 16.4673 10.776 17.6083 11.9394C17.916 12.2471 18.18 12.5985 18.444 12.9499C18.6024 13.1606 18.7607 13.3714 18.9285 13.5727C18.9648 13.6211 19.0012 13.663 19.041 13.709C19.0659 13.7377 19.0921 13.7679 19.1205 13.8023Z" fill="#00491F"/>
</svg>
