<svg width="33" height="32" viewBox="0 0 33 32" fill="none" xmlns="http://www.w3.org/2000/svg">
<rect x="0.5" width="32" height="32" rx="16" fill="#BF6D00"/>
<path fill-rule="evenodd" clip-rule="evenodd" d="M16.4656 12.0239C17.3263 12.0239 18.0241 11.3262 18.0241 10.4655C18.0241 9.60484 17.3263 8.90715 16.4656 8.90715C15.6049 8.90715 14.9074 9.60484 14.9074 10.4655C14.9074 11.3262 15.6049 12.0239 16.4656 12.0239ZM22.6993 14.3156C23.56 14.3156 24.2575 13.6179 24.2575 12.7572C24.2575 11.8966 23.56 11.1989 22.6993 11.1989C21.8386 11.1989 21.1408 11.8966 21.1408 12.7572C21.1408 13.6179 21.8386 14.3156 22.6993 14.3156ZM19.0553 14.2925V15.8509H13.8759V14.2925C13.8759 13.4217 14.5865 12.7342 15.4344 12.7342H17.497C18.3679 12.7342 19.0553 13.4446 19.0553 14.2925ZM10.301 14.3156C11.1616 14.3156 11.8592 13.6179 11.8592 12.7572C11.8592 11.8966 11.1616 11.1989 10.301 11.1989C9.44029 11.1989 8.74246 11.8966 8.74246 12.7572C8.74246 13.6179 9.44029 14.3156 10.301 14.3156ZM22.7223 15.0718H23.7534H23.7764C24.6243 15.0947 25.3116 15.7822 25.3116 16.6301V20.5489H23.7075L20.8888 16.6301C20.8888 15.7593 21.8743 15.0718 22.7223 15.0718ZM11.4698 18.9676L13.1198 16.3781H19.8347L24.2346 23.0928H8.69658L9.81979 21.0532H12.5927V20.5032H8.71952C8.14659 20.5032 7.68835 20.0448 7.68835 19.4719V16.6072C7.68835 15.7363 8.39891 15.0488 9.24686 15.0488H10.5301C11.4009 15.0488 12.0886 15.5072 12.0886 16.3781L10.278 18.9676H11.4698Z" fill="white"/>
</svg>
