<svg width="32" height="32" viewBox="0 0 32 32" fill="none" xmlns="http://www.w3.org/2000/svg">
<rect width="32" height="32" rx="16" fill="#F96428"/>
<path d="M12.414 21.648H15.144C16.32 21.648 16.838 21.634 16.964 20.976C16.978 20.92 16.992 18.834 16.992 18.778C16.684 19.744 15.858 20.178 15.116 20.248C12.4 20.528 11.434 18.33 11.434 16.79C11.434 15.25 12.344 13.164 15.06 13.346C16.026 13.402 16.754 13.906 17.076 14.858V13.402H19.4V21.06C19.4 22.6 18.56 23.636 15.648 23.636H12.414V21.648ZM15.438 18.358C16.418 18.358 17.034 17.672 17.034 16.79C17.034 15.894 16.446 15.222 15.438 15.222C14.416 15.222 13.828 15.88 13.828 16.79C13.828 17.672 14.444 18.358 15.438 18.358Z" fill="white"/>
</svg>
