<svg width="149" height="38" viewBox="0 0 149 38" fill="none" xmlns="http://www.w3.org/2000/svg">
<g clip-path="url(#clip0_3360_4214)">
<path d="M11.1328 0.66847C13.6566 0.701161 16.7818 0.586743 19.9038 0.714238C22.5918 0.841217 25.2136 1.58984 27.5633 2.90127C29.9874 4.2252 32.0834 6.07619 33.697 8.31781C35.3106 10.5594 36.4007 13.1346 36.8868 15.8535C37.0866 17.025 37.1807 18.2121 37.168 19.4004C37.168 23.1861 37.168 26.9749 37.168 30.7606C37.1966 31.1716 37.1154 31.5829 36.9327 31.9523C36.75 32.3217 36.4725 32.6358 36.1284 32.8626C35.8881 33.009 35.6175 33.0985 35.3373 33.1241C34.6083 33.2385 33.8727 33.1241 33.1404 33.1503C32.9999 33.1503 32.9574 33.0849 32.9639 32.9574C32.9704 32.8299 32.9639 32.7515 32.9639 32.6468C32.9639 28.1377 32.9639 23.6317 32.9639 19.1291C32.9771 18.1104 32.8729 17.0935 32.6533 16.0986C32.1751 14.0053 31.2494 12.0403 29.94 10.3385C29.3666 9.59041 28.7084 8.91135 27.9785 8.3149C27.3014 7.73463 26.5714 7.21913 25.798 6.77515C24.9946 6.33421 24.1598 5.95288 23.3004 5.63424C22.2083 5.25016 21.071 5.0095 19.9169 4.9183C19.59 4.89215 19.2631 4.87581 18.9362 4.87581C15.775 4.87581 12.6137 4.87581 9.45578 4.87581C9.08964 4.87581 8.76927 4.93138 8.62216 5.3106C8.47505 5.68981 8.68101 5.92846 8.92619 6.17037C10.2949 7.5325 11.6613 8.89898 13.0256 10.2698C13.3216 10.597 13.7143 10.8211 14.1466 10.9093C14.5788 10.9975 15.028 10.9453 15.4284 10.7602C18.485 9.58658 21.3684 9.92003 24.0491 11.803C25.7458 13.0218 26.9603 14.7981 27.4801 16.8214C28 18.8448 27.7923 20.9865 26.8932 22.8722C26.3525 23.9976 25.5922 25.0035 24.6571 25.8308C24.0835 26.3288 23.4403 26.7407 22.748 27.0534C22.4766 27.1776 22.1987 27.2986 21.9339 27.4457C21.6036 27.626 21.332 27.8976 21.1518 28.228C20.9715 28.5584 20.8901 28.9337 20.9173 29.3091C20.9173 31.8426 20.9173 34.3762 20.9173 36.9097C20.9173 37.2661 20.8257 37.3674 20.4661 37.3609C19.3677 37.3347 18.2693 37.338 17.1741 37.3609C16.8309 37.3609 16.7132 37.2988 16.7165 36.9228C16.7361 34.4023 16.7165 31.8819 16.7165 29.3614C16.7165 28.2989 16.213 27.6778 15.3042 27.2855C14.1301 26.7592 13.0806 25.9905 12.2247 25.0298C11.2858 24.0117 10.6003 22.7863 10.224 21.4534C9.989 20.6021 9.87888 19.7211 9.89711 18.8381C9.90152 17.6903 10.1372 16.5551 10.5902 15.5004C10.7447 15.1417 10.7865 14.7445 10.71 14.3614C10.6335 13.9784 10.4424 13.6277 10.1619 13.3559C7.90405 11.1263 5.65708 8.88155 3.42102 6.62151C2.65668 5.91991 1.93612 5.17206 1.26341 4.38217C0.735738 3.70283 0.458616 2.86223 0.478824 2.00226C0.478824 1.67535 0.478824 1.32229 0.478824 0.985573C0.45921 0.714238 0.56709 0.658663 0.805735 0.658663C2.64624 0.658663 4.49001 0.658663 6.33052 0.658663L11.1328 0.66847ZM23.5554 19.0081C23.558 18.0695 23.2822 17.1511 22.7629 16.3691C22.2437 15.5872 21.5042 14.9768 20.638 14.615C19.7718 14.2533 18.8179 14.1564 17.8967 14.3368C16.9755 14.5171 16.1285 14.9666 15.4627 15.6283C14.7969 16.2899 14.3422 17.1342 14.1561 18.0542C13.9701 18.9743 14.061 19.9288 14.4174 20.7972C14.7737 21.6656 15.3796 22.4089 16.1583 22.933C16.937 23.4571 17.8537 23.7386 18.7923 23.7418C19.4166 23.7452 20.0355 23.6254 20.6134 23.3892C21.1912 23.153 21.7168 22.805 22.1599 22.3652C22.603 21.9254 22.955 21.4025 23.1956 20.8264C23.4362 20.2504 23.5607 19.6324 23.562 19.0081H23.5554Z" fill="black"/>
<path d="M58.6812 21.1293C58.6812 23.2705 58.6812 25.4118 58.6812 27.553C58.6812 27.8505 58.6191 27.9551 58.2987 27.9486C57.318 27.929 56.3144 27.9257 55.3239 27.9486C54.9969 27.9486 54.9283 27.8505 54.9381 27.5498C54.9577 26.8208 54.9381 26.0885 54.9381 25.3562C54.9381 25.0979 54.8564 25.0293 54.6112 25.0293C53.018 25.0293 51.4249 25.0293 49.8318 25.0293C49.567 25.0293 49.5048 25.111 49.5048 25.3562C49.5212 26.1146 49.5048 26.8698 49.5048 27.6446C49.5048 27.88 49.4493 27.9715 49.2041 27.9551C48.1711 27.9421 47.1391 27.9421 46.1082 27.9551C45.8435 27.9551 45.7813 27.8702 45.7813 27.6282C45.7813 23.337 45.7813 19.0436 45.7813 14.748C45.7755 13.813 46.0599 12.8992 46.5953 12.1327C46.9725 11.5463 47.4831 11.0576 48.0854 10.7065C48.6877 10.3553 49.3645 10.1517 50.0606 10.1124C51.4808 10.0094 52.9066 10.0094 54.3268 10.1124C55.5067 10.2034 56.6092 10.7345 57.4158 11.6005C58.2224 12.4664 58.6741 13.6038 58.6812 14.7872C58.6812 15.8431 58.6812 16.9023 58.6812 17.9582V21.1293ZM54.9512 17.5594C54.9512 16.6702 54.9512 15.781 54.9512 14.8951C54.9663 14.7475 54.9486 14.5984 54.8992 14.4586C54.8498 14.3187 54.77 14.1915 54.6656 14.0862C54.5612 13.9808 54.4347 13.8999 54.2953 13.8493C54.1559 13.7987 54.007 13.7796 53.8593 13.7934C52.7696 13.7934 51.6723 13.7934 50.5673 13.7934C50.4268 13.784 50.2859 13.805 50.1543 13.855C50.0226 13.9049 49.9033 13.9826 49.8043 14.0828C49.7054 14.183 49.6292 14.3033 49.5809 14.4356C49.5326 14.5678 49.5134 14.7089 49.5245 14.8493C49.5245 16.6364 49.5245 18.4246 49.5245 20.2139C49.5108 20.3577 49.5291 20.5027 49.578 20.6386C49.6269 20.7745 49.7052 20.8979 49.8073 21C49.9094 21.1022 50.0329 21.1805 50.1688 21.2294C50.3047 21.2783 50.4497 21.2966 50.5935 21.2829C51.6832 21.2829 52.7805 21.2829 53.8854 21.2829C54.6079 21.2829 54.9479 20.9168 54.9512 20.1812C54.9544 19.3084 54.9512 18.4323 54.9512 17.5594Z" fill="black"/>
<path d="M113.953 19.0092C113.953 16.1912 113.953 13.37 113.953 10.5488C113.953 10.1467 114.068 10.0453 114.46 10.0486C116.944 10.0486 119.426 10.0486 121.907 10.0486C122.982 10.0197 124.034 10.3579 124.891 11.0074C125.748 11.657 126.358 12.579 126.621 13.6217C126.724 14.0397 126.773 14.4694 126.765 14.8999C126.765 17.6307 126.765 20.355 126.765 23.0727C126.765 25.8383 124.771 27.8881 121.992 27.924C119.445 27.9567 116.899 27.924 114.349 27.924C113.986 27.924 113.96 27.7573 113.96 27.4696C113.96 24.6647 113.957 21.8446 113.953 19.0092ZM117.664 19.0092C117.664 20.6143 117.664 22.2227 117.664 23.8278C117.664 24.1319 117.745 24.2299 118.059 24.2267C119.314 24.2267 120.567 24.2267 121.822 24.2267C122.665 24.2267 123.048 23.8507 123.051 23.0106C123.051 20.3473 123.051 17.6841 123.051 15.0209C123.051 14.2101 122.662 13.8244 121.841 13.8211C120.586 13.8211 119.334 13.8211 118.079 13.8211C117.752 13.8211 117.66 13.9225 117.664 14.2428C117.67 15.8251 117.664 17.4171 117.664 19.0092Z" fill="#10BEFA"/>
<path d="M89.2812 20.9926C89.2812 23.1862 89.2812 25.3797 89.2812 27.5733C89.2812 27.8642 89.2093 27.9492 88.9151 27.946C87.9082 27.9264 86.9013 27.9264 85.8945 27.946C85.61 27.946 85.5479 27.8544 85.5675 27.5896C85.5839 26.8443 85.5675 26.0989 85.5675 25.3568C85.5675 25.0888 85.4825 25.0299 85.2406 25.0299C83.6486 25.0299 82.0533 25.0299 80.4612 25.0299C80.1899 25.0299 80.1343 25.1247 80.1343 25.3568C80.1343 26.1022 80.1343 26.8476 80.1343 27.5896C80.1343 27.8316 80.0885 27.9394 79.8074 27.9165C78.7776 27.9165 77.7446 27.9165 76.7115 27.9165C76.4794 27.9165 76.3846 27.8642 76.3846 27.6158C76.3846 23.2679 76.3617 18.92 76.4075 14.5721C76.4239 12.98 77.215 11.7345 78.5259 10.8159C79.3298 10.2778 80.2823 10.0056 81.2491 10.0378C82.2952 10.0378 83.338 10.0378 84.3841 10.0378C85.0314 10.0161 85.6763 10.1273 86.279 10.3644C86.8816 10.6016 87.4293 10.9598 87.8882 11.4168C88.3471 11.8739 88.7074 12.4201 88.947 13.0218C89.1866 13.6235 89.3004 14.2679 89.2812 14.9153V20.986V20.9926ZM80.1277 17.5175C80.1277 18.4329 80.1277 19.345 80.1277 20.2603C80.1136 20.3942 80.1289 20.5296 80.1727 20.6569C80.2164 20.7843 80.2875 20.9005 80.381 20.9974C80.4745 21.0943 80.5881 21.1695 80.7137 21.2178C80.8394 21.2661 80.9742 21.2863 81.1085 21.277C82.2592 21.2933 83.3969 21.2933 84.5574 21.277C84.6882 21.2846 84.8191 21.2644 84.9415 21.2178C85.0639 21.1712 85.1751 21.0993 85.2677 21.0066C85.3604 20.914 85.4324 20.8028 85.479 20.6804C85.5256 20.558 85.5457 20.427 85.5381 20.2963C85.5381 18.4852 85.5381 16.6708 85.5381 14.8565C85.5512 14.7133 85.5326 14.5689 85.4836 14.4337C85.4347 14.2985 85.3566 14.1756 85.2549 14.074C85.1532 13.9723 85.0304 13.8942 84.8952 13.8452C84.76 13.7963 84.6156 13.7777 84.4724 13.7908C83.4263 13.7908 82.3802 13.7908 81.3373 13.7908C80.5037 13.7908 80.1441 14.1438 80.1376 14.9742C80.131 15.8045 80.1343 16.6708 80.1343 17.5306L80.1277 17.5175Z" fill="black"/>
<path d="M98.3759 18.9964C98.3759 16.1751 98.3759 13.3539 98.3759 10.5359C98.3759 10.16 98.4707 10.0456 98.8564 10.0488C101.364 10.0488 103.871 10.0488 106.375 10.0488C107.021 10.0303 107.663 10.1438 108.263 10.3824C108.862 10.6211 109.407 10.9798 109.863 11.4365C110.319 11.8933 110.677 12.4385 110.915 13.0386C111.153 13.6387 111.266 14.2811 111.246 14.9263C111.246 19.1042 111.246 23.2822 111.246 27.4601C111.246 27.8785 111.109 27.9635 110.73 27.9537C109.828 27.9308 108.925 27.9276 108.026 27.9537C107.637 27.9537 107.516 27.8654 107.516 27.4568C107.533 23.3312 107.516 19.2056 107.516 15.0767C107.53 14.8812 107.512 14.6848 107.464 14.4948C107.411 14.2901 107.292 14.109 107.124 13.9804C106.956 13.8518 106.75 13.7831 106.539 13.7854C105.166 13.7854 103.796 13.7854 102.423 13.7854C102.034 13.7854 102.096 14.0306 102.096 14.2562V27.0057C102.096 27.9701 102.096 27.9701 101.115 27.9701C100.331 27.9701 99.5462 27.9701 98.7616 27.9701C98.4347 27.9701 98.3367 27.8654 98.3399 27.5418C98.3792 24.6879 98.3759 21.8438 98.3759 18.9964Z" fill="#10BEFA"/>
<path d="M140.119 27.9559C138.812 27.9559 137.534 27.9559 136.242 27.9559C135.932 27.9559 135.834 27.8644 135.84 27.5538C135.856 26.5731 135.86 25.5924 135.84 24.6116C135.84 24.2847 135.948 24.1964 136.265 24.1997C138.763 24.1997 141.257 24.1997 143.751 24.1997C144.562 24.1997 144.932 23.8336 144.938 23.0359C144.938 22.709 144.938 22.3559 144.938 22.016C144.938 21.2412 144.536 20.8489 143.751 20.8456C142.695 20.8456 141.636 20.8456 140.577 20.8456C139.955 20.8452 139.34 20.7222 138.766 20.4836C138.192 20.245 137.671 19.8956 137.232 19.4553C136.793 19.015 136.446 18.4925 136.209 17.9177C135.972 17.3429 135.852 16.727 135.853 16.1054C135.853 15.2326 135.775 14.3565 136.033 13.4901C136.306 12.5062 136.892 11.6376 137.701 11.015C138.511 10.3925 139.5 10.0496 140.522 10.038C142.483 10.0053 144.444 10.038 146.406 10.038C146.733 10.038 146.792 10.1197 146.68 10.427C146.131 11.9896 145.592 13.5555 145.062 15.1247C145.046 15.2274 144.99 15.3195 144.906 15.3808C144.822 15.4421 144.717 15.4676 144.614 15.4516C144.222 15.4516 143.83 15.4287 143.438 15.4516C143.134 15.4712 143.052 15.3437 143.068 15.0626C143.084 14.7814 143.068 14.4088 143.068 14.0818C143.068 13.8661 142.993 13.7778 142.771 13.7811C142.015 13.7811 141.257 13.7811 140.499 13.7811C140.286 13.7814 140.081 13.8572 139.919 13.995C139.758 14.1327 139.65 14.3234 139.616 14.533C139.497 15.1506 139.497 15.7853 139.616 16.4029C139.675 16.6267 139.812 16.8224 140.001 16.9552C140.191 17.0881 140.422 17.1495 140.652 17.1286C141.725 17.1286 142.797 17.1613 143.866 17.1286C144.496 17.1221 145.12 17.2413 145.703 17.4794C146.286 17.7175 146.816 18.0696 147.261 18.515C147.706 18.9605 148.058 19.4904 148.296 20.0736C148.533 20.6568 148.652 21.2816 148.645 21.9113C148.619 22.6404 148.724 23.3759 148.57 24.0984C148.359 25.1929 147.77 26.1785 146.906 26.8829C146.042 27.5874 144.958 27.966 143.843 27.9527C142.604 27.9625 141.355 27.9559 140.119 27.9559Z" fill="#10BEFA"/>
<path d="M61.3529 19.0157C61.3529 16.1683 61.3529 13.3242 61.3529 10.4768C61.3529 10.114 61.4608 10.0486 61.791 10.0551C62.7717 10.078 63.7524 10.0747 64.7332 10.0551C65.0274 10.0551 65.1091 10.1303 65.1091 10.4278C65.1091 12.5266 65.1091 14.6286 65.0928 16.7306C65.0928 17.0575 65.1909 17.1425 65.5112 17.1393C66.7371 17.1196 67.9663 17.1393 69.1955 17.1393C70.297 17.0785 71.3855 17.4021 72.275 18.0546C73.3211 18.8555 74.0436 19.9147 74.1318 21.2551C74.2724 23.4061 74.1613 25.5605 74.1874 27.7148C74.1874 27.9142 74.0992 27.9535 73.9259 27.9502C72.8569 27.9502 71.7846 27.9502 70.7124 27.9502C70.4116 27.9502 70.4574 27.7737 70.4574 27.5939C70.4574 25.7533 70.4345 23.9128 70.4574 22.0723C70.4615 21.9138 70.4331 21.7562 70.3739 21.6091C70.3148 21.462 70.2261 21.3285 70.1134 21.217C70.0006 21.1055 69.8662 21.0183 69.7185 20.9608C69.5708 20.9032 69.4128 20.8765 69.2543 20.8824C67.9859 20.9085 66.7175 20.8824 65.4524 20.8824C65.1647 20.8824 65.0764 20.9543 65.0764 21.2518C65.0764 23.3407 65.0764 25.4297 65.0928 27.5187C65.0928 27.8456 65.0176 27.9633 64.6645 27.9535C63.6838 27.9295 62.7031 27.9295 61.7223 27.9535C61.3954 27.9535 61.3398 27.8554 61.3398 27.5579C61.3562 24.7236 61.3529 21.8598 61.3529 19.0157Z" fill="black"/>
<path d="M91.9648 18.9698C91.9648 16.1388 91.9648 13.3078 91.9648 10.4702C91.9648 10.1433 92.0466 10.0485 92.3767 10.055C93.3411 10.0779 94.3088 10.0812 95.2732 10.055C95.6001 10.055 95.7112 10.1302 95.708 10.4833C95.708 15.5994 95.708 20.7155 95.708 25.8317C95.708 26.4299 95.6883 27.0315 95.708 27.633C95.708 27.9206 95.5903 27.9435 95.3614 27.9435C94.3578 27.9435 93.3509 27.9239 92.3441 27.9435C92.0171 27.9435 91.9648 27.8291 91.9648 27.5382C91.9681 24.6875 91.9648 21.8303 91.9648 18.9698Z" fill="black"/>
<path d="M129.425 18.982C129.425 16.164 129.425 13.3428 129.425 10.5248C129.425 10.139 129.539 10.0377 129.912 10.0475C130.824 10.0704 131.739 10.0475 132.654 10.0475C133.174 10.0475 133.174 10.0475 133.174 10.5542V22.7316C133.174 24.327 133.174 25.919 133.174 27.5111C133.174 27.838 133.073 27.9622 132.726 27.9557C131.788 27.936 130.847 27.9328 129.908 27.9557C129.532 27.9557 129.415 27.8543 129.418 27.4718C129.431 24.6473 129.425 21.8163 129.425 18.982Z" fill="#10BEFA"/>
<path d="M0.480285 25.3152C0.480285 23.3309 0.480285 21.3465 0.480285 19.3622C0.480285 19.0679 0.558743 18.9764 0.852962 18.9895C1.37602 19.0124 1.89907 18.9895 2.42213 18.9895C3.82458 18.9895 4.67127 19.8558 4.67127 21.2779C4.67127 25.106 4.67127 28.9308 4.67127 32.7557C4.67127 33.0826 4.59936 33.1774 4.26918 33.1676C3.79189 33.1512 3.30806 33.2101 2.83731 33.2134C1.61466 33.2134 0.522782 32.5595 0.490091 31.1211C0.450862 29.1891 0.490091 27.257 0.490091 25.325L0.480285 25.3152Z" fill="black"/>
<path d="M70.4492 13.1094C70.4492 12.1973 70.4492 11.2852 70.4492 10.3699C70.4492 10.1345 70.5081 10.043 70.7532 10.043C71.7994 10.043 72.8422 10.043 73.885 10.043C74.1008 10.043 74.1858 10.0953 74.1858 10.3241C74.1858 11.6546 74.2021 12.9852 74.1858 14.3157C74.1902 14.5577 74.1458 14.7982 74.0552 15.0227C73.9646 15.2472 73.8297 15.4512 73.6585 15.6224C73.4873 15.7936 73.2834 15.9285 73.0589 16.0191C72.8344 16.1097 72.5939 16.1541 72.3518 16.1497C71.819 16.1693 71.2828 16.1497 70.7467 16.1497C70.5179 16.1497 70.4623 16.0745 70.4656 15.8587C70.4558 14.963 70.4492 14.0378 70.4492 13.1094Z" fill="black"/>
</g>
<defs>
<clipPath id="clip0_3360_4214">
<rect width="148.09" height="36.9409" fill="white" transform="translate(0.453125 0.53125)"/>
</clipPath>
</defs>
</svg>
