<svg width="125" height="69" viewBox="0 0 125 69" fill="none" xmlns="http://www.w3.org/2000/svg">
<g clip-path="url(#clip0_3360_3807)">
<path d="M124.436 15.7992C124.392 16.0824 124.351 16.3686 124.301 16.6518C123.854 19.2758 122.64 21.707 120.813 23.6364C118.987 25.5658 116.632 26.9064 114.046 27.488C107.323 29.0006 100.538 25.1738 98.4086 18.6129C97.8116 16.8133 97.6007 14.907 97.79 13.0196C97.9792 11.1322 98.5642 9.30653 99.5065 7.66268C100.449 6.01883 101.727 4.59413 103.257 3.48238C104.787 2.37064 106.534 1.59705 108.383 1.21256C115.703 -0.314336 122.885 4.49699 124.262 11.8611C124.311 12.122 124.325 12.3892 124.362 12.6564C124.377 12.7661 124.409 12.8743 124.433 12.984L124.436 15.7992Z" fill="black"/>
<path d="M0.56725 36.2531C0.641659 35.8443 0.725567 35.4355 0.790477 35.0252C0.98155 33.7236 1.48707 32.4889 2.26283 31.429C3.7336 29.479 5.7189 28.6536 8.13166 28.8221C9.11072 28.8746 10.0571 29.1941 10.869 29.7462C11.4907 30.1707 12.0078 30.7321 12.3809 31.3877C12.4363 31.4847 12.4981 31.5801 12.5598 31.674C12.5598 31.674 12.582 31.674 12.6247 31.674V29.0735C12.916 28.9828 16.7726 28.951 17.4534 29.0241C17.5294 29.3025 17.5626 44.2009 17.4898 44.9819C17.227 45.0677 13.3894 45.1011 12.6532 45.02V42.34C12.5772 42.3829 12.5345 42.3925 12.5218 42.4163C11.6115 44.1277 10.1645 45.0312 8.2694 45.2252C6.23502 45.4161 4.4302 44.8721 2.94201 43.42C2.07093 42.5585 1.43802 41.4842 1.10553 40.3025C0.920298 39.6663 0.834806 39.0126 0.701819 38.3669C0.660657 38.1712 0.608412 37.9756 0.5625 37.78L0.56725 36.2531ZM5.63341 37.0324C5.6272 37.2355 5.6378 37.4387 5.66507 37.64C5.7569 38.0853 5.82339 38.553 5.99754 38.9633C6.58331 40.2946 7.66304 40.9197 9.10215 40.9308C10.7344 40.9308 12.0041 39.9876 12.4506 38.4114C12.729 37.452 12.7135 36.4306 12.4062 35.4801C12.2699 35.0212 12.0347 34.598 11.7173 34.2407C11.3999 33.8834 11.0081 33.6006 10.5697 33.4124C9.97252 33.1512 9.31547 33.0593 8.66994 33.1468C7.28149 33.3058 6.34109 34.0581 5.8693 35.3846C5.69517 35.9158 5.61532 36.4735 5.63341 37.0324V37.0324Z" fill="black"/>
<path d="M76.4042 68.1467C76.9662 66.7454 77.5235 65.341 78.0966 63.9445C78.1311 63.8504 78.1442 63.7498 78.1352 63.6499C78.1262 63.5501 78.0951 63.4535 78.0443 63.3672C76.9034 60.6792 75.763 57.9912 74.6231 55.3032C74.5139 55.0471 74.4094 54.7911 74.2891 54.5H75.1456L78.5589 62.6117L78.638 62.6212C79.6924 59.9173 80.7468 57.2134 81.8044 54.5H82.6482C82.6007 54.64 82.5627 54.7656 82.5137 54.8881C81.2999 57.9854 80.0861 61.0816 78.8724 64.1767C78.3531 65.5 77.8354 66.8255 77.3193 68.153L76.4042 68.1467Z" fill="black"/>
<path d="M95.6406 31.6687V29.0268H100.488V45.0274H95.6454C95.6295 44.1431 95.6454 43.2588 95.6343 42.2902C95.5425 42.4206 95.4918 42.4826 95.4522 42.551C94.5672 44.1113 93.2199 44.975 91.4595 45.1929C89.5027 45.4346 87.7327 44.9893 86.2255 43.6755C85.2249 42.8039 84.5711 41.6937 84.1515 40.4436C83.7116 39.072 83.5448 37.6268 83.6607 36.1905C83.712 35.1471 83.9334 34.1192 84.3162 33.1478C85.0397 31.3824 86.1922 30.0161 87.9876 29.2845C89.4297 28.6837 91.0368 28.6144 92.5249 29.0888C93.7427 29.4524 94.7728 30.2763 95.3984 31.3871L95.5694 31.6798L95.6406 31.6687ZM88.5907 36.9937H88.6398C88.6279 37.1462 88.6279 37.2993 88.6398 37.4518C88.6902 37.8819 88.7744 38.3074 88.8916 38.7242C89.3554 40.0984 90.5127 40.8937 92.0294 40.9255C93.6759 40.9589 94.9836 40.0109 95.4427 38.4427C95.632 37.7671 95.6858 37.0605 95.601 36.3639C95.5778 36.1748 95.5434 35.9874 95.4981 35.8024C95.1688 34.266 93.7962 32.8297 91.5212 33.1669C90.0457 33.3848 89.1464 34.2803 88.7855 35.7118C88.6987 36.1354 88.6337 36.5633 88.5907 36.9937Z" fill="black"/>
<path d="M45.3698 37.9207C45.3679 38.5392 45.4907 39.1516 45.7307 39.7212C46.155 40.6643 46.9244 41.1526 47.9187 41.2687C48.3593 41.3158 48.8045 41.2916 49.2375 41.1972C49.6369 41.1141 50.0093 40.9321 50.3209 40.6677C50.6326 40.4032 50.8734 40.0648 51.0217 39.683C51.0629 39.5907 51.0961 39.4953 51.1404 39.3808H56.2937C56.2668 39.5398 56.2509 39.6798 56.2129 39.8198C55.5876 42.1483 54.101 43.7134 51.9194 44.6359C50.5737 45.2037 49.1583 45.3421 47.7097 45.218C46.9133 45.1573 46.1297 44.9827 45.3824 44.6995C43.1866 43.847 41.7253 42.2755 41.0065 40.0393C40.3762 38.1145 40.3624 36.0397 40.9669 34.1066C41.8171 31.3359 43.7169 29.6532 46.5081 29.017C48.3083 28.5806 50.1982 28.7059 51.9257 29.3764C54.4271 30.3609 55.8963 32.2282 56.4156 34.8589C56.6006 35.7448 56.6264 36.6567 56.4916 37.5517C56.4741 37.663 56.4472 37.7728 56.4187 37.9143L45.3698 37.9207ZM51.6217 35.8307C51.6217 34.6538 51.2972 33.6963 50.2491 33.0982C49.8292 32.8596 49.3598 32.7224 48.8781 32.6974C48.0168 32.6417 47.2157 32.8215 46.5302 33.375C45.7576 33.9985 45.4679 34.8478 45.3967 35.8307H51.6217Z" fill="black"/>
<path d="M38.4766 45.0277C38.4094 45.0379 38.3418 45.0442 38.2739 45.0468C37.3747 45.0468 36.4754 45.0627 35.5825 45.0214C34.4621 44.9935 33.371 44.6562 32.4288 44.0464C31.4061 43.3672 30.8615 42.3795 30.5924 41.2121C30.4404 40.5453 30.3639 39.8634 30.3644 39.1794V33.1513H28.2461V29H30.3533C30.3755 28.5436 30.3612 28.1157 30.3644 27.691C30.3675 27.2664 30.3644 26.8258 30.3644 26.3932V25.1096C30.6652 25.0269 34.8179 25.011 35.2722 25.0937V28.9825H38.4069C38.4908 29.2831 38.513 32.5103 38.4402 33.1179H35.2976C35.2881 33.2865 35.2754 33.4105 35.2754 33.533C35.2754 35.3505 35.2754 37.1684 35.2754 38.9869C35.2703 39.2409 35.2883 39.4949 35.3292 39.7456C35.4464 40.3564 35.7488 40.6506 36.363 40.7492C36.6637 40.7904 36.9667 40.8116 37.2702 40.8128C37.6612 40.824 38.0523 40.8128 38.4354 40.8128C38.5161 41.1278 38.5446 44.269 38.4766 45.0277Z" fill="black"/>
<path d="M71.8828 29.0167H76.7685V31.8351C78.1553 30.0107 79.8778 28.8735 82.2384 28.8242V34.1016C82.0705 34.1016 81.9217 34.1016 81.7729 34.1016C81.0779 34.127 80.3813 34.1286 79.6894 34.1954C79.3266 34.2445 78.9716 34.3407 78.6335 34.4817C77.6218 34.8682 77.0408 35.6253 76.8682 36.6862C76.8043 37.1131 76.7736 37.5444 76.7764 37.9761C76.7685 40.1742 76.7764 42.3739 76.7764 44.5736V44.976C76.4693 45.0603 72.3308 45.0794 71.886 45.003L71.8828 29.0167Z" fill="black"/>
<path d="M64.1638 45.0253H59.2812V29.0183H64.1748V31.8319C65.5665 30.006 67.2858 28.8672 69.6479 28.8242V34.0873L69.2394 34.1016C68.5207 34.1302 67.7956 34.1191 67.0816 34.2018C66.6434 34.2667 66.2168 34.3947 65.815 34.5819C65.4438 34.7361 65.1157 34.9789 64.8592 35.2893C64.6026 35.5998 64.4253 35.9684 64.3427 36.3633C64.2403 36.8083 64.1872 37.2633 64.1843 37.72C64.1669 40.0072 64.1764 42.2959 64.1764 44.5847C64.1748 44.7294 64.1669 44.8774 64.1638 45.0253Z" fill="black"/>
<path d="M25.9341 45.0315H21.0469V23.7773H25.8708L25.8914 23.7996C25.9009 23.7996 25.9151 23.8187 25.9151 23.8282L25.9341 44.6068V45.0315Z" fill="black"/>
<path d="M72.6304 63.7285C72.5085 63.7412 72.423 63.7571 72.3375 63.7603C72.1997 63.7603 72.0636 63.7603 71.8704 63.7603V63.3197C71.8704 61.7181 71.8704 60.1164 71.8704 58.5147C71.8735 58.1081 71.8406 57.702 71.7723 57.3012C71.4952 55.8204 70.4487 54.8979 68.7817 54.979C67.1985 55.0569 66.1425 56.0144 65.8575 57.5779C65.7892 57.9783 65.7548 58.3837 65.7546 58.7899C65.742 60.2898 65.7546 61.7896 65.7546 63.2895V63.7317H65.0026C65.0026 63.598 64.982 63.4644 64.982 63.3308C64.982 61.7403 64.99 60.1498 64.982 58.5593C64.9822 58.1147 64.9409 57.6712 64.8586 57.2344C64.5577 55.7377 63.4337 54.882 61.8125 54.9758C60.2294 55.0681 59.2019 56.1003 58.9391 57.6797C58.8816 58.0438 58.8525 58.4118 58.852 58.7804C58.8425 60.2802 58.852 61.7801 58.852 63.2799V63.7269H58.1016V54.4971C58.2377 54.4971 58.3596 54.4796 58.4831 54.4796C58.6066 54.4796 58.7047 54.4923 58.8457 54.5019V56.5186C59.6372 54.7691 61.0114 54.1058 62.8495 54.3285C64.1905 54.4875 65.02 55.2669 65.5916 56.8733C65.6319 56.8055 65.6674 56.7348 65.6976 56.6618C66.2977 54.7532 68.0914 54.1456 69.4973 54.2951C70.9839 54.4541 71.9781 55.2383 72.4182 56.6809C72.5133 57.0491 72.5773 57.4247 72.6098 57.8038C72.6322 58.0315 72.6396 58.2605 72.6319 58.4893C72.6319 60.0904 72.6319 61.6921 72.6319 63.2943L72.6304 63.7285Z" fill="black"/>
<path d="M43.7247 56.9637V51.1328H44.4229C44.4973 51.4048 44.5258 63.0824 44.4529 63.7329H43.7168V61.2644L43.6629 61.2517C43.6202 61.336 43.5743 61.4187 43.5347 61.5062C42.9014 62.9122 41.7932 63.6932 40.2797 63.857C39.4325 63.9661 38.5717 63.8378 37.7925 63.4864C36.5418 62.9043 35.8167 61.8959 35.4985 60.5741C35.2396 59.5446 35.2571 58.4645 35.5492 57.444C36.2331 55.0853 38.2121 54.1787 40.2354 54.3743C41.8185 54.5333 42.9426 55.3509 43.5774 56.8285C43.6023 56.8798 43.6308 56.9293 43.6629 56.9764L43.7247 56.9637ZM36.1444 59.1268C36.1444 59.3049 36.1349 59.483 36.1444 59.6596C36.1568 59.8242 36.1795 59.9878 36.2125 60.1495C36.5101 61.6509 37.3302 62.6943 38.8501 63.0633C39.2449 63.1516 39.6489 63.1917 40.0533 63.1826C40.7927 63.1871 41.515 62.9597 42.1195 62.532C42.724 62.1043 43.1806 61.4977 43.4255 60.7968C43.72 59.9932 43.7955 59.125 43.6439 58.2822C43.3827 56.7712 42.5785 55.696 41.0855 55.2205C40.4899 55.0376 39.8603 54.9957 39.2459 55.098C37.954 55.2888 37.0294 55.968 36.4912 57.1657C36.2254 57.7834 36.1067 58.4549 36.1444 59.1268V59.1268Z" fill="black"/>
<path d="M9.90781 56.968V54.4995H10.6519V63.7325H9.91731V61.3117L9.86348 61.291C9.82002 61.3527 9.78036 61.417 9.74474 61.4835C9.03231 63.0343 7.8101 63.8073 6.1256 63.8693C5.58115 63.8985 5.0358 63.8323 4.51393 63.6737C3.03366 63.2076 2.13917 62.177 1.73071 60.7057C1.44393 59.6574 1.44393 58.5508 1.73071 57.5024C2.22941 55.6097 3.73343 54.4264 5.71239 54.3484C7.0296 54.2975 8.20115 54.657 9.07822 55.694C9.39169 56.0662 9.61967 56.5147 9.90781 56.968ZM2.29274 59.1089C2.3244 59.427 2.3434 59.7451 2.38773 60.0552C2.60462 61.5932 3.60835 62.74 5.06171 63.0677C5.4577 63.1512 5.86203 63.188 6.26651 63.1774C7.0002 63.1812 7.71683 62.9551 8.31668 62.5306C8.91653 62.1062 9.36977 61.5044 9.61334 60.8091C10.0265 59.7158 10.0265 58.5083 9.61334 57.4149C9.42728 56.8775 9.11248 56.3943 8.69669 56.0079C8.2809 55.6216 7.77689 55.3439 7.22908 55.1994C6.65441 55.0323 6.05049 54.9927 5.45909 55.0832C4.07222 55.2884 3.11757 56.0376 2.60937 57.3466C2.40548 57.9116 2.3005 58.5078 2.29907 59.1089H2.29274Z" fill="black"/>
<path d="M32.1824 56.9516V54.5037H32.9312V63.7288H32.1824V61.3032L32.119 61.2905C32.0826 61.3637 32.0431 61.4352 32.0082 61.51C31.375 62.8969 30.2921 63.6779 28.7896 63.8512C28.0206 63.9514 27.2388 63.8602 26.513 63.5856C25.1657 63.0623 24.3662 62.0524 23.9989 60.6861C23.7355 59.6975 23.7246 58.6581 23.9673 57.6641C24.5151 55.3404 26.4228 54.1538 28.6994 54.3685C30.2826 54.5165 31.4098 55.3324 32.0446 56.81C32.0693 56.8618 32.0968 56.9123 32.127 56.9611L32.1824 56.9516ZM32.203 59.1163C32.1697 58.7982 32.1507 58.48 32.1001 58.1715C31.9956 57.4361 31.6688 56.7507 31.164 56.2079C30.6591 55.6651 30.0005 55.2912 29.2773 55.1368C28.7817 55.0273 28.2705 55.009 27.7685 55.0827C26.2803 55.2926 25.2861 56.1102 24.8238 57.5369C24.4827 58.5854 24.4899 59.7168 24.8444 60.7609C25.2497 61.9871 26.084 62.7856 27.3489 63.0671C27.7934 63.1669 28.2499 63.2011 28.7041 63.1689C30.1464 63.0576 31.204 62.3514 31.8072 61.009C32.0625 60.4106 32.1971 59.7673 32.203 59.1163Z" fill="black"/>
<path d="M47.6629 59.3411C47.5837 61.0907 48.627 63.0327 50.9733 63.2013C51.6819 63.274 52.3972 63.1623 53.0504 62.8768C53.9259 62.4728 54.5228 61.8207 54.7618 60.8664C54.784 60.7805 54.8141 60.6978 54.8441 60.6008H55.6231C55.5088 61.4062 55.1319 62.1507 54.5513 62.7178C54.1272 63.1411 53.6081 63.4558 53.0377 63.6355C52.1047 63.9386 51.1064 63.9765 50.1532 63.7452C48.684 63.3921 47.6882 62.4808 47.1816 61.0668C46.7382 59.8619 46.7209 58.5405 47.1325 57.3243C47.6977 55.6209 48.893 54.6427 50.6693 54.4041C51.8773 54.2451 53.0124 54.4343 54.032 55.1469C55.3618 56.0757 55.9318 57.8428 55.555 59.3379H52.9269C52.053 59.3379 51.1854 59.3379 50.3068 59.3379C49.4281 59.3379 48.5352 59.3204 47.6629 59.3411ZM54.9027 58.8417C54.9027 58.592 54.9138 58.3788 54.9027 58.1657C54.8733 57.4806 54.6302 56.8221 54.2077 56.2834C53.7852 55.7448 53.2047 55.3533 52.5485 55.1644C52.0611 55.0222 51.5523 54.9683 51.0461 55.0053C49.3569 55.1008 48.0903 56.1934 47.742 57.8587C47.6658 58.1799 47.6381 58.5107 47.6597 58.8401L54.9027 58.8417Z" fill="black"/>
<path d="M21.8327 57.6714H21.0728C21.0513 57.6386 21.0338 57.6034 21.0205 57.5665C20.7277 56.2463 19.8791 55.4813 18.6078 55.1536C17.8318 54.9442 17.0112 54.9736 16.252 55.2379C14.9681 55.6801 14.2572 56.6296 13.9707 57.9164C13.7795 58.7663 13.7942 59.6499 14.0134 60.493C14.4298 62.1329 15.7549 63.1715 17.4441 63.1969C18.0919 63.2218 18.7363 63.0926 19.325 62.82C19.7308 62.6362 20.0902 62.3629 20.3763 62.0203C20.6625 61.6778 20.8681 61.2748 20.9778 60.8414C21.0015 60.7555 21.0221 60.6696 21.049 60.5582H21.8185C21.8204 60.6289 21.8167 60.6997 21.8074 60.7698C21.6418 61.5386 21.2482 62.239 20.6784 62.7785C20.1086 63.318 19.3894 63.6713 18.6157 63.7918C17.8914 63.9302 17.1467 63.9205 16.4262 63.7631C14.8034 63.3846 13.7569 62.3651 13.282 60.7761C12.9809 59.7575 12.9639 58.6753 13.2329 57.6476C13.7253 55.6785 15.2404 54.449 17.2874 54.352C18.0484 54.2987 18.8115 54.4211 19.5181 54.7099C20.0978 54.9415 20.6111 55.3142 21.0118 55.7945C21.4125 56.2748 21.6881 56.8476 21.8137 57.4615C21.8238 57.5311 21.8302 57.6012 21.8327 57.6714Z" fill="black"/>
</g>
<defs>
<clipPath id="clip0_3360_3807">
<rect width="123.868" height="67.2982" fill="white" transform="translate(0.566406 0.851562)"/>
</clipPath>
</defs>
</svg>
