<svg width="85" height="71" viewBox="0 0 85 71" fill="none" xmlns="http://www.w3.org/2000/svg">
<g clip-path="url(#clip0_3360_3973)">
<path d="M28.5258 21.7892L27.0032 26.1379C24.4192 33.5219 21.8346 40.9069 19.2494 48.2931C19.0405 48.8901 18.9459 48.9697 18.3057 48.9714C15.715 48.978 13.1255 48.978 10.537 48.9714C10.4127 48.9753 10.2883 48.9676 10.1655 48.9482C9.71102 48.8653 9.55511 48.6347 9.71102 48.1952C9.97307 47.4538 10.27 46.724 10.5536 45.991C13.4616 38.4821 16.3702 30.9732 19.2793 23.4643C22.1143 16.1534 24.9516 8.84129 27.791 1.52812C27.8209 1.45017 27.8524 1.37388 27.8773 1.29592C27.9139 1.15415 27.9964 1.02846 28.1119 0.938459C28.2274 0.848458 28.3694 0.799197 28.5158 0.798355C28.8376 0.780111 29.0549 0.929382 29.2041 1.31085C29.9306 3.16071 30.6493 5.01167 31.3603 6.86373C33.9034 13.4051 36.4465 19.9459 38.9897 26.4862C41.754 33.6048 44.5232 40.7228 47.2974 47.8403C47.6441 48.7309 47.4849 48.9764 46.5445 48.978C44.0168 48.978 41.4897 48.978 38.9631 48.978C38.235 48.978 38.1704 48.9333 37.9299 48.2516C35.3867 41.0722 32.8436 33.8917 30.3005 26.7101C29.7686 25.2086 29.2357 23.707 28.7016 22.2055C28.6734 22.1093 28.627 22.023 28.5258 21.7892Z" fill="#0B0B0B"/>
<path d="M64.2922 48.3887C66.3742 42.5893 68.4563 36.7843 70.5383 30.9738H79.7467C79.7334 31.0985 79.709 31.2217 79.6737 31.342C77.083 38.0393 74.4907 44.7366 71.8967 51.4339C69.5913 57.4036 67.2825 63.3706 64.9705 69.3348C64.9121 69.5115 64.8411 69.6839 64.7582 69.8506C64.7044 69.9512 64.625 70.0357 64.528 70.0957C64.4311 70.1557 64.3199 70.189 64.2059 70.1922C64.0919 70.1954 63.9791 70.1684 63.8789 70.1139C63.7787 70.0595 63.6947 69.9795 63.6354 69.8821C63.5465 69.7182 63.4737 69.546 63.4181 69.3679L54.4171 45.9556L45.6134 23.0674C45.2817 22.1983 45.4177 21.9844 46.3448 21.9844C48.8293 21.9844 51.3144 21.9844 53.8001 21.9844C54.6658 21.9844 54.7056 22.0126 55.0009 22.8369C56.1696 26.1109 57.3383 29.3854 58.5071 32.6606C60.2906 37.6495 62.0747 42.6374 63.8593 47.6241C63.9555 47.8912 64.0633 48.1532 64.1644 48.4169L64.2922 48.3887Z" fill="#0B0B0B"/>
<path d="M71.2539 29.0892V24.8698C72.1313 24.8416 73.012 24.7437 73.8761 25.0025C74.067 25.0605 74.2393 25.1676 74.3759 25.3132C74.5124 25.4587 74.6083 25.6375 74.654 25.8318C74.8559 26.5115 74.8599 27.2347 74.6656 27.9166C74.5994 28.1798 74.4611 28.4194 74.2663 28.6084C74.0714 28.7973 73.8278 28.9282 73.5626 28.9864C72.8063 29.1721 72.0484 29.051 71.2539 29.0892ZM72.3187 25.8981V28.0708C72.5177 28.0824 72.677 28.1057 72.8362 28.1007C73.4565 28.0775 73.6456 27.8967 73.697 27.293C73.7053 27.1901 73.697 27.0873 73.697 26.9845C73.697 25.9429 73.4498 25.7173 72.4 25.8235C72.39 25.8351 72.3751 25.8533 72.3187 25.8981Z" fill="#0B0B0B"/>
<path d="M83.9971 26.9598V27.0842C83.9739 28.8689 82.3551 29.791 80.7811 28.9186C80.6276 28.8324 80.4931 28.716 80.3859 28.5763C80.2787 28.4366 80.201 28.2765 80.1575 28.1059C79.9379 27.3688 79.9425 26.5831 80.1708 25.8486C80.2424 25.5972 80.3829 25.3709 80.5763 25.1951C80.7697 25.0192 81.0084 24.9009 81.2654 24.8535C81.7909 24.7315 82.3379 24.7366 82.861 24.8684C83.1071 24.9149 83.334 25.0333 83.5129 25.2086C83.6917 25.384 83.8147 25.6084 83.866 25.8536C83.949 26.2118 83.9821 26.5817 84.0319 26.9466L83.9971 26.9598ZM81.0896 26.9598H81.0763C81.0879 27.1456 81.0913 27.333 81.1145 27.5155C81.1725 27.9683 81.3334 28.1275 81.7779 28.1789C81.9433 28.1974 82.1101 28.1974 82.2755 28.1789C82.6669 28.1308 82.8311 28.0014 82.8775 27.6017C82.9263 27.2166 82.9325 26.8272 82.8958 26.4407C82.8377 25.8967 82.6719 25.7773 82.1411 25.7375C81.3633 25.6877 81.1327 25.8901 81.0863 26.6646C81.0846 26.7509 81.0896 26.8554 81.0896 26.9582V26.9598Z" fill="#0B0B0B"/>
<path d="M20.4912 55.4914H19.4397C19.3568 55.2907 19.2738 55.0867 19.166 54.8379H17.6468L17.3847 55.4831H16.3398C16.8026 54.0468 17.3632 52.7067 17.8607 51.2969H18.9736C19.4646 52.6569 19.9605 54.0335 20.4912 55.4914ZM18.8874 53.9174C18.7348 53.4198 18.5972 52.9687 18.4611 52.5209H18.3318C18.1958 52.972 18.0614 53.4248 17.9138 53.9158L18.8874 53.9174Z" fill="#0B0B0B"/>
<path d="M3.77755 54.8197H2.28484L1.99625 55.4831H0.941406C1.47049 54.0551 1.97635 52.6884 2.49051 51.2969H3.59511L5.10275 55.4781H4.05619L3.77755 54.8197ZM3.50887 53.9207C3.34301 53.4115 3.21032 52.9521 3.06769 52.4927H2.97315C2.83549 52.9505 2.69617 53.4066 2.53861 53.9224L3.50887 53.9207Z" fill="#0B0B0B"/>
<path d="M76.8605 24.8711H77.9602C78.4478 26.2162 78.942 27.5845 79.4711 29.0507L78.4411 29.0955C78.3383 28.8599 78.2488 28.6593 78.1476 28.432H76.6549L76.3713 29.0623H75.3164C75.8405 27.6343 76.3497 26.256 76.8605 24.8711ZM76.8821 27.5248H77.8872C77.7213 27.0272 77.587 26.5711 77.446 26.12L77.3183 26.1299C77.1856 26.5778 77.0446 27.0189 76.8821 27.5314V27.5248Z" fill="#0B0B0B"/>
<path d="M9.19531 51.2904C9.98645 51.2556 10.7477 51.2108 11.5024 51.3418C11.7531 51.3725 11.9858 51.4878 12.1619 51.6688C12.3381 51.8498 12.4471 52.0855 12.471 52.337C12.6368 53.3703 12.2802 54.2576 10.9468 54.3024C10.7229 54.3024 10.4989 54.3024 10.2236 54.3024C10.1987 54.717 10.1772 55.0802 10.1523 55.48H9.19531V51.2904ZM10.2054 53.352C10.3205 53.3744 10.4368 53.3905 10.5537 53.4001C10.6771 53.4018 10.8004 53.3918 10.9219 53.3703C11.31 53.2989 11.4476 53.1198 11.4194 52.7334C11.4012 52.3901 11.2702 52.2557 10.8605 52.2159C10.6393 52.2072 10.4178 52.2117 10.1971 52.2292L10.2054 53.352Z" fill="#0B0B0B"/>
<path d="M27.4986 54.468V55.2856C26.886 55.5694 26.197 55.6434 25.5382 55.4963C25.2892 55.4593 25.0575 55.347 24.8742 55.1744C24.691 55.0019 24.565 54.7773 24.5132 54.531C24.3324 53.8679 24.3193 53.1703 24.475 52.5009C24.5319 52.1933 24.6808 51.9101 24.902 51.6889C25.1232 51.4677 25.4064 51.3188 25.714 51.2619C26.2663 51.1359 26.8153 51.1923 27.4007 51.2238V52.1393C27.0541 52.1393 26.7091 52.1294 26.3658 52.1393C25.7355 52.1609 25.5166 52.3666 25.4735 53.0018C25.4524 53.2908 25.458 53.5812 25.4901 53.8692C25.5548 54.3883 25.7422 54.5625 26.2613 54.5625C26.6494 54.5642 27.0375 54.5061 27.4986 54.468Z" fill="#0B0B0B"/>
</g>
<defs>
<clipPath id="clip0_3360_3973">
<rect width="83.1107" height="69.4044" fill="white" transform="translate(0.945312 0.796875)"/>
</clipPath>
</defs>
</svg>
