<svg width="159" height="35" viewBox="0 0 159 35" fill="none" xmlns="http://www.w3.org/2000/svg">
<g clip-path="url(#clip0_3360_4035)">
<path d="M0.402344 15.8798C0.474873 15.5732 0.563886 15.2699 0.619931 14.9567C1.1096 12.0419 2.38723 9.31644 4.31451 7.0755C6.2418 4.83456 8.74532 3.16346 11.5541 2.24309C14.3629 1.32272 17.3699 1.18815 20.2496 1.85393C23.1294 2.51972 25.7722 3.96051 27.8919 6.02033C30.0117 8.08015 31.5277 10.6805 32.2758 13.54C33.0238 16.3995 32.9756 19.4091 32.1361 22.2431C31.2967 25.0771 29.698 27.6276 27.5133 29.6183C25.3285 31.6091 22.6409 32.9643 19.7412 33.5374C17.5883 33.9503 15.3747 33.929 13.2301 33.4747C13.1312 33.4517 13.0356 33.4187 12.9499 33.3956C13.24 33.1385 13.5103 32.8747 13.8103 32.6439C13.9289 32.5786 14.0668 32.5576 14.1994 32.5846C15.8241 32.8497 17.4822 32.8341 19.1017 32.5384C21.3006 32.1395 22.6688 30.7747 23.104 28.5823C23.3578 27.369 23.3578 26.1164 23.104 24.9031C22.5633 22.4239 21.2149 21.0591 18.6929 20.7327C17.1467 20.5316 15.5642 20.5975 14.0016 20.5382C13.6884 20.5382 13.8004 20.7591 13.7972 20.9008C13.7972 22.9514 13.7972 25.0053 13.7972 27.0559C13.7853 27.8284 13.7226 28.5994 13.6092 29.3636C13.5392 29.9544 13.3304 30.5201 12.9998 31.0146C12.6691 31.5091 12.2261 31.9183 11.707 32.2088C9.65122 33.4393 7.20378 33.8401 4.86288 33.3297C4.56814 33.2578 4.28431 33.147 4.01891 33C3.79015 32.9123 3.59655 32.7519 3.46788 32.5434C3.33922 32.3349 3.28262 32.0899 3.3068 31.8461C3.3244 31.6607 3.40123 31.4859 3.52592 31.3475C3.65061 31.2092 3.81653 31.1147 3.99913 31.078C4.25012 30.9906 4.52188 30.9823 4.77774 31.0542C5.03359 31.1261 5.26123 31.2748 5.42993 31.4802C5.59189 31.7187 5.73202 31.9714 5.84862 32.2351C6.29369 33.1714 6.77831 33.4022 7.78053 33.1253C8.25967 33.0047 8.69194 32.7439 9.02201 32.3763C9.35208 32.0086 9.56493 31.5508 9.63332 31.0615C9.83683 30.0039 9.94715 28.9306 9.963 27.8537C9.99926 22.9976 9.98608 18.1447 9.963 13.2919C9.96002 12.7916 9.89692 12.2935 9.77508 11.8083C9.44541 10.4665 8.41022 9.88628 7.17063 9.57309C6.94315 9.51705 6.69919 9.51375 6.47171 9.45111C6.36951 9.42144 6.28709 9.30605 6.19478 9.23023C6.28391 9.1655 6.38464 9.1185 6.49149 9.09176C8.17944 9.06209 9.8641 9.01594 11.5487 9.02253C14.0939 9.02253 16.6357 9.0489 19.1775 9.12473C19.9922 9.15211 20.8005 9.27944 21.5841 9.50386C24.1952 10.2489 25.6524 12.5666 25.2798 15.2534C25.1869 16.1624 24.8472 17.0286 24.2975 17.7584C23.7478 18.4883 23.009 19.0539 22.1611 19.3942C21.7918 19.559 21.4127 19.7041 20.9709 19.8854C21.4885 19.9975 21.96 20.0997 22.4149 20.192C26.5722 20.9997 28.0953 24.9031 27.3865 28.0515C27.376 28.1137 27.3694 28.1765 27.3667 28.2394C27.4821 28.1307 27.5645 28.068 27.6337 27.9889C30.8184 24.5042 32.18 20.4063 31.6096 15.7282C31.192 12.4796 29.7298 9.45481 27.4434 7.10958C25.1571 4.76435 22.1704 3.22577 18.9335 2.72568C10.952 1.43994 3.20131 6.82358 1.75073 14.7688C0.732022 20.4492 2.45624 25.2427 6.74534 29.1032C7.39496 29.6569 8.08479 30.1616 8.80913 30.6131C9.07946 30.7912 9.1388 30.9428 9.01023 31.2065C8.96078 31.312 8.90473 31.4175 8.86517 31.5362C8.78275 31.7835 8.66077 31.7703 8.45637 31.6516C6.62553 30.5991 5.02073 29.1952 3.73417 27.5205C2.44761 25.8458 1.50466 23.9334 0.959499 21.8931C0.748505 21.1382 0.649602 20.3404 0.494654 19.5821C0.494654 19.5261 0.435312 19.4832 0.402344 19.4338V15.8798ZM13.8466 16.0546H13.7972V19.681C13.7972 19.859 13.7675 20.0107 14.0444 20.0107C15.2958 20.0445 16.547 19.9339 17.7731 19.681C18.4243 19.5541 19.0348 19.2704 19.5518 18.8545C20.0688 18.4386 20.4766 17.9031 20.7402 17.2941C21.2773 16.1096 21.3857 14.7751 21.0468 13.5193C20.572 11.5676 19.4907 10.1797 17.4203 9.7643C15.3499 9.34891 13.9884 10.3775 13.8796 12.4644C13.7972 13.6446 13.8466 14.8446 13.8466 16.0546Z" fill="#0B0B0B"/>
<path d="M39.9416 34.4331C39.7702 33.7243 39.612 33.0122 39.4273 32.3034C39.3251 31.8946 39.2032 31.4924 39.0977 31.0836C39.1016 31.0415 39.1164 31.0011 39.1407 30.9664C39.165 30.9317 39.1979 30.9039 39.2361 30.8858C39.7966 30.8133 39.8098 30.8331 39.935 31.377C40.0512 31.9378 40.2099 32.4888 40.4098 33.0254C40.5647 32.4386 40.7395 31.8551 40.8614 31.2616C40.9241 30.9583 41.0428 30.8759 41.3494 30.866C41.656 30.8561 41.7417 31.0012 41.7977 31.2583C41.9355 31.8834 42.1061 32.5007 42.3087 33.1078C42.3812 32.8408 42.4538 32.5738 42.5197 32.3067C42.5856 32.0397 42.6417 31.7693 42.7076 31.5023C42.8659 30.843 42.8659 30.843 43.6142 30.9122C43.3175 32.0111 43.0186 33.11 42.7175 34.209C42.6944 34.2914 42.5988 34.354 42.5395 34.4265H41.9065C41.7252 33.6584 41.5406 32.887 41.3592 32.1188C41.1384 32.7782 40.9867 33.4177 40.8087 34.054C40.7479 34.1923 40.6643 34.3193 40.5614 34.4298L39.9416 34.4331Z" fill="#0B0B0B"/>
<path d="M55.4571 34.4304C55.4175 34.3843 55.3846 34.3151 55.3351 34.2953C54.5867 34.0216 54.1582 33.026 54.4219 32.0502C54.5243 31.6678 54.7568 31.3331 55.0794 31.1038C55.402 30.8744 55.7945 30.7647 56.1893 30.7936C56.5841 30.8225 56.9564 30.9882 57.2422 31.2621C57.528 31.536 57.7093 31.9009 57.7549 32.2941C57.8835 33.3392 57.5242 33.9425 56.4824 34.4304H55.4571ZM57.0066 32.5843C56.989 32.4223 56.9614 32.2615 56.9242 32.1029C56.8748 31.9097 56.761 31.739 56.6015 31.6192C56.4421 31.4993 56.2466 31.4374 56.0472 31.4436C55.8533 31.4349 55.6628 31.497 55.5112 31.6183C55.3596 31.7396 55.2572 31.9118 55.223 32.1029C55.152 32.4721 55.1621 32.8523 55.2527 33.2172C55.2904 33.3341 55.3533 33.4412 55.4368 33.5312C55.5204 33.6211 55.6227 33.6916 55.7364 33.7378C55.8502 33.784 55.9726 33.8047 56.0953 33.7985C56.2179 33.7923 56.3376 33.7593 56.4461 33.7019C56.878 33.4942 56.9604 33.0821 56.9934 32.5843H57.0066Z" fill="#0B0B0B"/>
<path d="M71.0231 34.4301C70.9802 34.1202 70.9275 33.8103 70.8879 33.5005C70.8864 33.4271 70.8693 33.3549 70.8376 33.2887C70.8059 33.2226 70.7604 33.1639 70.7042 33.1168C70.648 33.0696 70.5824 33.035 70.5117 33.0154C70.441 32.9957 70.367 32.9913 70.2945 33.0026C69.556 33.0026 69.556 32.9763 69.556 33.695V33.8928C69.556 34.3378 69.3384 34.4928 68.8966 34.3477C68.8631 34.3263 68.8351 34.2972 68.815 34.2628C68.795 34.2284 68.7834 34.1897 68.7812 34.1499C68.7812 33.1246 68.7812 32.0993 68.7812 31.0773C68.7812 31.0081 68.923 30.8861 69.0054 30.8828C69.4901 30.8828 69.9945 30.8828 70.4659 30.8828C70.9373 30.8828 71.4088 30.9751 71.5967 31.4828C71.6974 31.7014 71.7122 31.9498 71.6383 32.1788C71.5644 32.4078 71.4072 32.6006 71.1978 32.7191C71.4082 32.9468 71.5581 33.2237 71.6336 33.5244C71.709 33.8251 71.7077 34.14 71.6297 34.44L71.0231 34.4301ZM70.0044 32.4521C70.1934 32.4676 70.3836 32.4532 70.5681 32.4092C70.6433 32.3808 70.7116 32.3367 70.7684 32.2798C70.8252 32.223 70.8693 32.1547 70.8978 32.0795C70.9275 31.9279 70.8483 31.6246 70.7659 31.6081C70.3977 31.5453 70.0251 31.5122 69.6516 31.5092C69.6285 31.5092 69.5824 31.5587 69.5824 31.5883C69.559 31.8479 69.5689 32.1093 69.612 32.3664C69.6351 32.4389 69.9219 32.4389 70.0044 32.4554V32.4521Z" fill="#0B0B0B"/>
<path d="M97.5139 34.4315C97.254 34.2485 97.0142 34.0385 96.7985 33.8051C96.7414 33.7202 96.7059 33.6228 96.695 33.5211C96.6841 33.4194 96.6981 33.3166 96.7358 33.2216C96.8446 33.0535 97.3292 33.248 97.4413 33.4688C97.5824 33.6594 97.7922 33.7874 98.0262 33.8256C98.2602 33.8637 98.4998 33.8091 98.6941 33.6732C98.7484 33.6352 98.79 33.5816 98.8134 33.5196C98.8368 33.4575 98.841 33.3898 98.8253 33.3254C98.8096 33.2609 98.7749 33.2027 98.7256 33.1583C98.6763 33.1139 98.6148 33.0854 98.549 33.0765C98.2457 32.9545 97.9227 32.8853 97.6095 32.7897C96.9798 32.5919 96.7094 32.2721 96.749 31.7743C96.7737 31.5242 96.8869 31.2911 97.0683 31.117C97.2496 30.9429 97.4871 30.8393 97.738 30.8248C98.0638 30.7863 98.394 30.8166 98.7073 30.9138C98.9543 31.0254 99.1662 31.202 99.3205 31.4248C99.3647 31.4952 99.3905 31.5755 99.3957 31.6584C99.4009 31.7414 99.3852 31.8243 99.3502 31.8996C99.2546 32.038 98.737 31.8996 98.6512 31.7413C98.5591 31.5899 98.414 31.478 98.244 31.4274C98.0741 31.3769 97.8914 31.3912 97.7315 31.4677C97.6741 31.5043 97.625 31.5526 97.5875 31.6094C97.5501 31.6662 97.525 31.7302 97.5139 31.7974C97.5139 31.8831 97.6358 32.0282 97.7347 32.0677C98.0083 32.1618 98.2867 32.241 98.5688 32.3051C99.2282 32.4732 99.5249 32.7765 99.5579 33.2677C99.5716 33.5331 99.4844 33.7938 99.3137 33.9974C99.1431 34.2011 98.9017 34.3326 98.6381 34.3656C98.6381 34.3656 98.6183 34.4084 98.6084 34.4282L97.5139 34.4315Z" fill="#0B0B0B"/>
<path d="M82.8203 34.4307C82.8203 33.356 82.8467 32.2812 82.8203 31.2065C82.8203 30.8768 82.9687 30.8768 83.2159 30.8768C83.4632 30.8768 83.6577 30.8405 83.6181 31.2065C83.5995 31.5711 83.5995 31.9364 83.6181 32.301C83.9237 32.005 84.208 31.6877 84.4687 31.3515C84.8182 30.8471 85.2863 30.8142 85.8764 30.9098C85.4874 31.3021 85.1281 31.6878 84.7423 32.0439C84.5676 32.2087 84.5742 32.3142 84.7094 32.4922C85.0951 33.0065 85.4643 33.534 85.8237 34.0648C85.883 34.1571 85.8599 34.3087 85.8764 34.4307H85.0852L84.0368 32.8318C83.8771 32.9174 83.7473 33.0498 83.6648 33.2113C83.5823 33.3727 83.5511 33.5555 83.5753 33.7351C83.5577 33.973 83.5066 34.2071 83.4236 34.4307H82.8203Z" fill="#0B0B0B"/>
<path d="M138.797 34.4304C138.761 34.3975 138.735 34.348 138.692 34.3348C137.637 33.9425 137.347 32.5282 137.9 31.582C138.06 31.3021 138.301 31.0774 138.591 30.9378C138.882 30.7982 139.208 30.7504 139.526 30.8007C139.791 30.8045 140.05 30.8862 140.27 31.0356C140.49 31.1851 140.661 31.3957 140.762 31.6414C140.793 31.7764 140.801 31.9158 140.785 32.0535C140.551 32.0205 140.198 32.0535 140.126 31.9348C140.042 31.7623 139.903 31.6228 139.731 31.5385C139.559 31.4543 139.364 31.4301 139.176 31.4699C138.979 31.5101 138.802 31.617 138.675 31.7726C138.548 31.9281 138.478 32.1228 138.477 32.3238C138.456 32.6482 138.496 32.9738 138.596 33.2832C138.654 33.4471 138.767 33.5863 138.915 33.6774C139.063 33.7686 139.238 33.8063 139.41 33.7843C139.57 33.7849 139.724 33.7323 139.85 33.635C139.976 33.5377 140.066 33.4011 140.106 33.2469C140.172 33.059 140.729 32.8941 140.854 33.0359C140.904 33.0919 140.887 33.2304 140.854 33.3227C140.788 33.5873 140.652 33.8294 140.461 34.0241C140.269 34.2188 140.03 34.3591 139.766 34.4304H138.797Z" fill="#0B0B0B"/>
<path d="M123.614 34.4319C123.594 34.3626 123.535 34.2802 123.555 34.2275C123.96 33.1956 124.392 32.1736 124.778 31.1351C124.89 30.8285 125.084 30.8779 125.299 30.8779C125.513 30.8779 125.684 30.8384 125.783 31.1285C126.113 32.1175 126.505 33.067 126.858 34.0396C126.878 34.1696 126.878 34.3018 126.858 34.4319H126.146C126.06 33.6373 125.998 33.578 125.239 33.578C125.201 33.5814 125.162 33.5814 125.124 33.578C125.051 33.5542 124.973 33.5475 124.896 33.5585C124.82 33.5696 124.747 33.598 124.683 33.6416C124.62 33.6853 124.567 33.7429 124.529 33.8102C124.491 33.8775 124.469 33.9526 124.465 34.0297C124.435 34.178 124.277 34.3 124.175 34.4319H123.614ZM125.701 32.9846C125.556 32.5791 125.427 32.2131 125.272 31.7648C125.19 31.9956 125.144 32.1307 125.094 32.2659C124.817 33.0439 124.817 33.0439 125.701 32.9846Z" fill="#0B0B0B"/>
<path d="M110.565 34.4326C110.565 33.3051 110.539 32.1776 110.539 31.0501C110.539 30.9941 110.681 30.8853 110.76 30.8853C111.258 30.8853 111.749 30.8622 112.257 30.8853C112.55 30.8853 112.832 31.002 113.04 31.2097C113.248 31.4174 113.364 31.6992 113.364 31.993C113.364 32.2868 113.248 32.5685 113.04 32.7762C112.832 32.984 112.55 33.1007 112.257 33.1007C112.164 33.1007 112.072 33.1007 111.98 33.1007C111.297 33.1007 111.301 33.1007 111.297 33.8128C111.297 34.0304 111.373 34.2776 111.116 34.4194L110.565 34.4326ZM111.311 31.9864C111.278 32.3161 111.245 32.5633 111.716 32.5271C112.346 32.4776 112.553 32.3853 112.55 31.993C112.547 31.6007 112.365 31.5248 111.749 31.482C111.294 31.449 111.235 31.6501 111.311 31.9864Z" fill="#0B0B0B"/>
<path d="M47.3561 15.9702C46.7165 17.7175 46.1 19.3988 45.4868 21.0835C44.7945 22.9824 44.1087 24.8847 43.4032 26.7803C43.3379 26.9219 43.2195 27.032 43.0736 27.0869C42.8362 27.1693 42.8197 26.9452 42.7637 26.7902C41.0296 21.9857 39.2933 17.1823 37.5548 12.38C37.3522 11.8397 37.1098 11.3151 36.8295 10.8107C36.6872 10.5241 36.4704 10.281 36.2018 10.107C35.9332 9.933 35.6228 9.83445 35.3031 9.82169C35.0426 9.80521 35.0195 9.70301 35.0195 9.49202C35.0195 9.21179 35.214 9.29751 35.3492 9.29751C37.2877 9.29751 39.2229 9.29751 41.1614 9.29751C41.3427 9.29751 41.5109 9.25135 41.5142 9.55795C41.5175 9.86455 41.3263 9.79202 41.1581 9.8151C40.8842 9.84354 40.6123 9.88868 40.3438 9.95027C40.2572 9.96031 40.1736 9.98874 40.0988 10.0337C40.024 10.0786 39.9596 10.1389 39.91 10.2107C39.8604 10.2825 39.8267 10.364 39.8111 10.4499C39.7955 10.5357 39.7984 10.6239 39.8196 10.7085C39.8667 11.0859 39.9574 11.4565 40.09 11.8129C41.3164 15.0405 42.5593 18.2614 43.7956 21.4857C43.8219 21.5582 43.8582 21.6242 43.9142 21.7461L45.6846 16.946C45.978 16.1581 46.2714 15.3702 46.5517 14.5789C46.6051 14.4506 46.6167 14.3087 46.5846 14.1734C46.2022 13.1547 45.8033 12.1393 45.4044 11.1239C45.2812 10.7153 45.0215 10.3614 44.6686 10.1213C44.3158 9.88127 43.8912 9.76968 43.4659 9.80521C43.2582 9.80521 43.1955 9.75246 43.1955 9.54147C43.1955 9.33047 43.2846 9.28761 43.4791 9.28761C45.6374 9.28761 47.7978 9.28761 49.9605 9.28761C50.1583 9.28761 50.2408 9.32718 50.2408 9.54476C50.2408 9.76235 50.1748 9.79532 49.977 9.8151C49.6095 9.8427 49.246 9.909 48.8924 10.0129C48.2495 10.214 48.0748 10.5173 48.2924 11.147C48.6682 12.2382 49.0836 13.3196 49.5023 14.3943C50.4155 16.7416 51.3452 19.0856 52.2683 21.4329C52.3111 21.5384 52.3573 21.6439 52.4364 21.8319C52.8221 20.8857 53.1518 20.012 53.4815 19.1384C54.2892 16.9592 55.1101 14.7833 55.8947 12.5976C56.0589 12.0998 56.1694 11.5859 56.2244 11.0646C56.3002 10.4349 56.0464 10.1085 55.4266 9.94367C55.1727 9.87343 54.9117 9.83251 54.6485 9.82169C54.4474 9.82169 54.3815 9.76235 54.3815 9.55465C54.3815 9.34696 54.4639 9.29421 54.6584 9.29751C56.2145 9.29751 57.7706 9.29751 59.3267 9.29751C59.3845 9.30709 59.4392 9.32995 59.4867 9.36427C59.5342 9.39859 59.5731 9.44344 59.6003 9.49531C59.6596 9.66674 59.6003 9.82499 59.3761 9.85466C58.275 9.95686 57.7541 10.6591 57.3981 11.6349C55.6398 16.69 53.8727 21.7319 52.0968 26.7605C52.0731 26.8337 52.0341 26.9009 51.9824 26.9577C51.9307 27.0146 51.8674 27.0597 51.7968 27.0902C51.5364 27.1759 51.5265 26.9287 51.4672 26.7605C50.1484 23.2901 48.8297 19.8164 47.511 16.3394C47.4846 16.2306 47.4286 16.1317 47.3561 15.9702Z" fill="#0B0B0B"/>
<path d="M87.9038 18.4014L89.6049 20.5509C90.7984 22.0575 91.9984 23.5575 93.1786 25.0707C93.4197 25.4097 93.7327 25.6912 94.0951 25.8952C94.4576 26.0992 94.8606 26.2207 95.2754 26.251C95.4205 26.251 95.671 26.1883 95.6578 26.5081C95.6578 26.7092 95.6314 26.8114 95.3809 26.8081C94.1182 26.8081 92.8523 26.8081 91.5863 26.7884C91.4151 26.7647 91.26 26.6747 91.1544 26.5378C89.1895 24.0191 87.2324 21.4915 85.2829 18.9552C85.2222 18.8476 85.1286 18.7623 85.0159 18.7119C84.9031 18.6614 84.7771 18.6485 84.6565 18.675C84.5004 18.6971 84.3426 18.7059 84.185 18.7014C83.5784 18.7014 83.5784 18.7014 83.5817 19.3014V24.352C83.5817 24.4575 83.5817 24.563 83.5817 24.6817C83.6543 25.651 84.0037 26.0367 84.9631 26.2048C85.1805 26.2476 85.401 26.273 85.6224 26.2807C85.8433 26.2807 85.906 26.3664 85.906 26.584C85.906 26.8015 85.7543 26.8114 85.5961 26.8114H78.9102C78.7585 26.8114 78.5805 26.8576 78.6036 26.5906C78.6036 26.3895 78.6399 26.2872 78.8706 26.2609C79.1728 26.2394 79.4728 26.1931 79.7674 26.1224C80.0241 26.0811 80.2602 25.9563 80.4389 25.7674C80.6177 25.5785 80.7293 25.336 80.7564 25.0773C80.8146 24.6876 80.8465 24.2944 80.852 23.9004C80.852 19.9135 80.852 15.9288 80.852 11.9463C80.852 10.3407 80.608 10.0737 79.0157 9.83633C78.864 9.81655 78.5871 9.93853 78.6036 9.57918C78.6036 9.36819 78.653 9.28906 78.8871 9.28906C81.5245 9.30884 84.1817 9.28906 86.8291 9.33851C88.2417 9.39251 89.6213 9.7812 90.8544 10.4726C92.9215 11.5737 93.6369 15.8431 90.7522 17.4321C90.3144 17.6737 89.8554 17.8746 89.3808 18.0321C88.9225 18.1805 88.4445 18.2695 87.9038 18.4014ZM83.5784 14.3826C83.5784 15.3936 83.5784 16.4057 83.5784 17.4189C83.5784 17.5673 83.5257 17.7486 83.7927 17.7222C84.8411 17.6548 85.8854 17.5337 86.9214 17.3596C88.5038 17.0299 89.5093 16.0409 89.7335 14.3694C89.9907 12.4639 89.1104 11.0331 87.2411 10.5715C86.4186 10.3954 85.5801 10.3048 84.7389 10.3012C83.8685 10.2715 83.5817 10.6012 83.5784 11.4616C83.5751 12.4276 83.5784 13.4166 83.5784 14.3826Z" fill="#0B0B0B"/>
<path d="M101.819 17.63C103.883 15.6948 105.868 13.8486 107.826 11.976C108.13 11.6831 108.372 11.3322 108.538 10.9441C108.782 10.3771 108.495 9.95508 107.879 9.87926C107.62 9.83601 107.357 9.81725 107.094 9.82321C106.854 9.82321 106.854 9.71771 106.847 9.53969C106.84 9.36166 106.906 9.29902 107.094 9.29902C109.214 9.29902 111.337 9.29902 113.457 9.29902C113.514 9.30951 113.568 9.33396 113.613 9.37019C113.659 9.40643 113.694 9.45332 113.717 9.50672C113.78 9.69464 113.717 9.81332 113.47 9.81991C112.151 9.85288 111.12 10.4793 110.2 11.3694C108.441 13.0639 106.669 14.7519 104.882 16.4333C104.704 16.6014 104.714 16.6904 104.882 16.8651C107.213 19.3905 109.527 21.9257 111.861 24.4477C112.274 24.8746 112.714 25.2733 113.18 25.6412C113.615 26.0241 114.167 26.2484 114.746 26.2774C114.967 26.2774 114.993 26.3664 115 26.5544C115.006 26.7423 114.904 26.8016 114.72 26.8016C112.218 26.8016 109.715 26.8016 107.21 26.8016C107.008 26.8016 106.936 26.7522 106.933 26.5379C106.929 26.3236 107.022 26.2873 107.213 26.2807C107.544 26.2797 107.875 26.2499 108.202 26.1917C108.749 26.0829 108.937 25.7137 108.66 25.2324C108.4 24.7588 108.087 24.3164 107.727 23.9136C106.056 22.1235 104.361 20.3564 102.667 18.5926C102.622 18.5631 102.57 18.545 102.517 18.5398C102.464 18.5346 102.41 18.5426 102.36 18.563C102.174 18.6537 102.021 18.8005 101.923 18.9826C101.825 19.1648 101.786 19.3731 101.813 19.5784C101.859 21.118 101.839 22.6576 101.849 24.1939C101.849 24.2994 101.849 24.4093 101.849 24.5235C101.922 25.6741 102.307 26.0796 103.461 26.2214C103.614 26.2493 103.768 26.268 103.923 26.2774C104.19 26.2774 104.153 26.4456 104.163 26.6071C104.163 26.8544 104.008 26.8016 103.873 26.8016H96.9994C96.8379 26.8016 96.6928 26.8313 96.6994 26.5741C96.706 26.317 96.7555 26.284 96.9764 26.2708C97.2913 26.25 97.6042 26.206 97.9126 26.139C98.1956 26.0957 98.4562 25.9594 98.6532 25.7517C98.8502 25.544 98.9724 25.2766 99.0006 24.9917C99.0631 24.5891 99.0962 24.1825 99.0995 23.7752C99.0995 19.819 99.0995 15.8728 99.0995 11.9364C99.0995 11.8046 99.0995 11.6727 99.0995 11.5408C99.0237 10.4562 98.6379 10.0408 97.5632 9.89244C97.3824 9.85965 97.1995 9.83982 97.0159 9.8331C96.795 9.8331 96.7324 9.75727 96.7291 9.53639C96.7258 9.31551 96.861 9.29902 97.0291 9.29902H103.906C104.061 9.29902 104.236 9.25946 104.236 9.51991C104.236 9.78035 104.186 9.81991 103.959 9.8331C103.656 9.85356 103.356 9.89542 103.059 9.95838C102.278 10.1133 101.948 10.4694 101.895 11.2771C101.849 11.9167 101.846 12.5628 101.842 13.209C101.816 14.6332 101.819 16.0574 101.819 17.63Z" fill="#0B0B0B"/>
<path d="M68.5965 8.92969C73.2483 8.92969 76.7693 12.1539 77.2044 16.7892C77.3956 18.82 77.2044 20.7948 76.2616 22.6212C74.6132 25.8553 71.8274 27.2367 68.2735 27.1675C63.7272 27.0587 60.5821 23.9663 60.0315 19.4728C59.7789 17.6801 59.9807 15.8527 60.6183 14.1584C61.9041 10.8583 64.858 8.92969 68.5965 8.92969ZM62.9623 18.0354C62.9953 19.7563 63.1667 21.3618 63.8426 22.8652C64.3668 24.0421 65.1085 25.0542 66.2855 25.6608C68.9229 27.0125 71.9494 25.951 73.2351 23.2443C73.9001 21.7216 74.237 20.076 74.2241 18.4145C74.2802 16.476 74.0626 14.5738 73.1362 12.8298C72.1472 10.9539 70.5911 9.8429 68.4086 9.90553C66.2921 9.96488 64.8448 11.1089 63.9646 12.988C63.2754 14.5801 62.9337 16.3008 62.9623 18.0354Z" fill="#0B0B0B"/>
<path d="M155.548 6.02942C155.956 6.6624 156.372 7.30857 156.276 8.09979C156.207 8.67343 156.039 9.23388 155.917 9.80093H155.785C155.416 8.92179 155.049 8.05144 154.684 7.18988H154.562C154.562 8.44595 154.562 9.70203 154.562 10.9548C154.562 16.0978 154.562 21.2418 154.562 26.387C154.562 26.7167 154.509 26.8453 154.163 26.8024C153.817 26.7596 153.444 26.8749 153.256 26.7167C153.068 26.5584 153.21 26.1464 153.21 25.8431C153.21 20.3484 153.202 14.8538 153.187 9.35916C153.181 8.66439 153.122 7.97111 153.009 7.28549C152.712 8.14265 152.383 8.96685 152.053 9.87676C151.665 9.32789 151.491 8.65586 151.565 7.9877C151.672 7.27967 151.934 6.6041 152.333 6.00964L152.383 5.93381H152.284L149.297 7.15362C149.66 5.44918 150.978 5.03049 152.366 4.6118L149.343 3.35243C149.963 2.5645 151.117 2.69308 153.243 3.74805C153.339 2.66011 153.207 1.52931 153.922 0.546875C154.657 1.51613 154.499 2.65022 154.624 3.77442C155.871 2.96671 157.123 2.39307 158.604 3.30957L155.449 4.62829C157.097 4.82939 158.103 5.61732 158.6 7.1701L155.6 5.96018H155.485L155.548 6.02942Z" fill="#0B0B0B"/>
<path d="M126.602 26.8025L135.533 8.49219L144.49 26.8025C144.005 26.8025 143.567 26.8025 143.132 26.8025C143.046 26.8025 142.954 26.6344 142.898 26.5256C141.928 24.5904 140.956 22.6518 140.003 20.7067C139.964 20.5905 139.887 20.4909 139.784 20.4244C139.681 20.3579 139.558 20.3285 139.436 20.3408C136.799 20.354 134.151 20.354 131.494 20.3408C131.38 20.3238 131.263 20.3475 131.164 20.4078C131.065 20.468 130.991 20.561 130.953 20.6705C130.017 22.6123 129.058 24.5376 128.118 26.4761C128.006 26.7069 127.891 26.8058 127.617 26.8058C127.304 26.7827 126.977 26.8025 126.602 26.8025ZM131.712 19.1111C134.145 19.1111 136.502 19.1111 138.859 19.1111C139.215 19.1111 139.248 19.0452 139.093 18.7353C137.961 16.4715 136.838 14.2022 135.724 11.9274C135.648 11.7692 135.566 11.5978 135.463 11.4131C134.197 14.011 132.971 16.533 131.712 19.1111Z" fill="#0B0B0B"/>
<path d="M123.012 15.6547C124.786 16.4526 125.956 17.7086 126.408 19.5878C127.443 23.9 123.929 26.8407 120.764 26.8011C120.385 26.8011 119.887 26.9066 119.666 26.7121C119.445 26.5176 119.61 26.0198 119.61 25.6506C119.61 20.3406 119.61 15.0284 119.61 9.71395C119.61 9.33811 119.719 9.26229 120.068 9.26888C120.819 9.23108 121.57 9.34316 122.277 9.59856C124.631 10.6272 125.122 13.5547 123.266 15.4372C123.18 15.4998 123.111 15.5591 123.012 15.6547ZM120.929 20.9988C120.929 22.4197 120.929 23.8406 120.929 25.2615C120.929 25.5583 121.028 25.5912 121.291 25.5681C122.395 25.4223 123.409 24.8801 124.143 24.0425C124.877 23.2049 125.282 22.1291 125.282 21.0153C125.282 19.9015 124.877 18.8257 124.143 17.9881C123.409 17.1505 122.395 16.6083 121.291 16.4625C121.014 16.4295 120.929 16.4888 120.932 16.7921C120.938 18.1834 120.929 19.5878 120.929 20.9988ZM120.929 12.8854C120.929 13.5943 120.929 14.3064 120.929 15.0152C120.929 15.2163 120.981 15.2525 121.179 15.2163C121.705 15.087 122.176 14.7906 122.519 14.3716C122.863 13.9525 123.061 13.4334 123.085 12.892C123.098 12.3489 122.922 11.8181 122.587 11.3904C122.252 10.9627 121.779 10.6649 121.248 10.548C121.021 10.5019 120.919 10.5151 120.919 10.7953C120.945 11.4876 120.929 12.1832 120.929 12.8821V12.8854Z" fill="#0B0B0B"/>
<path d="M145.527 18.0343C145.527 15.2485 145.527 12.4595 145.527 9.67039C145.527 9.34071 145.606 9.27807 145.916 9.28137C146.879 9.28137 146.882 9.28137 146.882 10.2341C146.882 15.2057 146.882 20.1772 146.882 25.1488C146.882 25.4784 146.961 25.5839 147.311 25.5806C148.801 25.5576 150.278 25.5806 151.778 25.5806C152.075 25.5806 152.154 25.6532 152.147 25.9499C152.131 26.8301 152.147 26.8301 151.267 26.8301C149.503 26.8301 147.736 26.8301 145.972 26.8301C145.643 26.8301 145.531 26.7708 145.534 26.4081C145.537 23.6026 145.527 20.8135 145.527 18.0343Z" fill="#0B0B0B"/>
<path d="M151.914 32.6152C151.914 32.1141 151.914 31.6262 151.914 31.1152C151.914 30.9273 151.964 30.8679 152.155 30.8712C152.867 30.8712 153.576 30.8712 154.288 30.8712C154.571 30.8712 154.532 31.0262 154.529 31.2009C154.525 31.3756 154.581 31.5306 154.295 31.5306C153.846 31.5108 153.398 31.5306 152.953 31.5306C152.646 31.5141 152.679 31.6954 152.689 31.8603C152.699 32.0251 152.59 32.2756 152.943 32.2526C153.296 32.2295 153.708 32.2526 154.087 32.2526C154.357 32.2526 154.377 32.3515 154.387 32.5822C154.397 32.813 154.314 32.9119 154.074 32.8856C153.704 32.8658 153.335 32.8856 152.966 32.8856C152.778 32.8856 152.686 32.9119 152.682 33.1361C152.682 33.7295 152.653 33.7295 153.253 33.7295C153.609 33.7295 153.965 33.7295 154.321 33.7295C154.608 33.7097 154.562 33.8878 154.558 34.0592C154.555 34.2306 154.621 34.3889 154.324 34.3889C153.602 34.3889 152.877 34.3889 152.152 34.3889C151.954 34.3889 151.911 34.3229 151.914 34.1416C151.921 33.6141 151.914 33.113 151.914 32.6152Z" fill="#0B0B0B"/>
</g>
<defs>
<clipPath id="clip0_3360_4035">
<rect width="158.202" height="33.8711" fill="white" transform="translate(0.398438 0.5625)"/>
</clipPath>
</defs>
</svg>
