<svg width="133" height="39" viewBox="0 0 133 39" fill="none" xmlns="http://www.w3.org/2000/svg">
<g clip-path="url(#clip0_3269_3253)">
<path d="M0.523438 38.1418V34.7832C1.70688 34.7832 2.86901 34.7382 4.01695 34.7997C4.72701 34.84 4.98974 34.5323 5.00394 33.898C5.00394 33.4482 4.9069 33.0683 5.00394 32.6422C5.29033 31.4588 4.92347 30.9133 3.43943 31.4577C3.59565 30.9583 3.59565 30.5891 3.76369 30.4825C5.18382 29.5847 6.6292 28.7169 8.09982 27.879C8.3365 27.7464 8.66787 27.7725 8.95663 27.7559C10.1401 27.6873 10.2489 27.5192 9.90338 26.1417H5.73057C6.96608 24.2032 9.359 24.2482 10.6418 22.8281L10.4643 22.4991H6.52584C6.71283 21.1405 7.9578 21.0789 8.65603 20.5109C9.35426 19.9428 10.3389 19.6517 11.1981 19.2399L11.1271 18.8919H7.70928L7.5223 18.5582C7.75899 18.2789 7.9294 17.9002 8.23236 17.7416C9.17911 17.2351 10.1732 16.8304 11.1223 16.3357C11.3353 16.2245 11.4418 15.9073 11.5957 15.6848C11.359 15.5783 11.1223 15.3913 10.8691 15.3819C10.2537 15.3606 9.63829 15.4197 8.82882 15.4552C9.51758 13.912 11.2643 14.0138 12.0572 12.9937L11.9152 12.6576H9.73533L9.61699 12.2836C10.3413 11.8647 11.0821 11.4647 11.7874 11.0126C12.0215 10.8149 12.2277 10.5864 12.4004 10.3333C12.1082 10.2308 11.8059 10.1594 11.4987 10.1203C11.0847 10.1389 10.6726 10.1872 10.2655 10.2647C10.4075 8.79957 12.1377 9.35105 12.443 8.13448L10.7697 7.9972C11.0774 7.06228 11.8348 6.8966 12.4927 6.59364C12.6983 6.4631 12.884 6.30368 13.0442 6.12026C12.8399 6.00472 12.6174 5.92469 12.3862 5.88357C12.0028 5.88357 11.617 5.97588 11.12 5.7747L12.5638 4.23623H11.6738C12.7129 3.28947 12.7129 3.40782 13.3306 2.46107L12.088 2.8161L14.1496 0.449219L16.159 2.64332L14.9401 2.70959L14.9614 3.05279L17.075 4.07764H15.946L17.4514 5.98062C16.5969 6.17943 15.8561 5.38653 15.3638 6.2173L17.6857 7.71317L17.5792 7.9972H15.7567L15.6951 8.25992L18.2419 9.80549L18.0904 10.2008L16.0265 10.0848L15.8442 10.4422L18.7484 12.2836L18.5827 12.615H16.5164L16.3555 12.9345C17.1247 14.0185 18.791 14.0233 19.7141 15.3961C18.8999 15.3961 18.294 15.3582 17.707 15.4103C17.3794 15.4784 17.0615 15.5865 16.7602 15.7322C17.0041 15.9839 17.2739 16.2092 17.565 16.4044C18.5117 16.9416 19.5153 17.4174 20.4691 17.9594C20.6585 18.0659 20.746 18.3547 21.0774 18.8683H17.3425L17.2999 19.1996C18.765 20.3144 20.8218 20.6198 21.9839 22.1511L21.8253 22.4612C20.7484 22.4612 19.6739 22.4446 18.5993 22.4754C18.322 22.527 18.0534 22.6179 17.8017 22.7452C17.9602 22.9961 18.0596 23.3606 18.275 23.4766C19.262 23.9855 20.2987 24.3997 21.2952 24.8967C21.7378 25.1145 22.1259 25.4435 22.8597 25.9381C21.1816 26.3216 19.7827 26.0186 18.4454 26.1748C17.9389 27.3228 18.2088 27.6139 19.2999 27.7985C20.2111 27.9524 21.075 28.4423 21.9295 28.8494C22.4596 29.1456 22.9731 29.4703 23.468 29.8222C23.9721 30.137 24.4857 30.4399 24.9946 30.75L24.978 31.0672C24.6798 31.1287 24.339 31.1169 24.0999 31.2684C23.7709 31.4743 23.3496 31.7607 23.2715 32.0873C23.1461 32.6056 23.3425 33.195 23.2715 33.7441C23.1579 34.5725 23.4822 34.8589 24.2703 34.8376C25.2692 34.8116 26.2703 34.8376 27.3331 34.8376V16.4706C30.5402 16.4706 33.6929 16.286 36.8148 16.5251C39.655 16.7452 41.1698 18.3073 41.5841 20.7263C42.0125 23.2328 40.9758 25.2233 38.474 26.6009C38.555 26.6638 38.6442 26.7156 38.7391 26.7547C40.9261 27.2731 42.4172 28.5062 42.6941 30.8352C42.9805 33.2518 42.4574 35.5074 40.2278 36.7524C38.8503 37.524 37.1509 38.111 35.6006 38.1276C23.9745 38.2412 12.346 38.1891 0.717522 38.1891C0.651401 38.1799 0.586379 38.164 0.523438 38.1418ZM31.9745 28.6151V34.3761C33.1012 34.3761 34.1781 34.3903 35.255 34.3761C35.5981 34.3567 35.9371 34.2922 36.2633 34.1843C37.6645 33.7725 38.3627 32.7642 38.3036 31.2778C38.2491 29.9476 37.4941 29.0553 36.0408 28.866C34.7154 28.6766 33.3686 28.6837 31.9745 28.6151ZM31.9745 25.3014C33.1793 25.2068 34.3248 25.2281 35.4183 25.0032C36.6657 24.75 37.274 23.6825 37.203 22.2908C37.1414 21.1073 36.5473 20.3973 35.2219 20.2269C34.1639 20.099 33.0799 20.2032 31.9745 20.2032V25.3014ZM8.84302 31.2328C7.89627 31.2328 7.00869 31.195 6.12821 31.266C5.95069 31.2802 5.69033 31.6944 5.66903 31.9405C5.60089 32.649 5.60089 33.3623 5.66903 34.0707C5.69507 34.3287 5.99803 34.7477 6.20631 34.7666C7.06076 34.8447 7.9294 34.7997 8.84302 34.7997V31.2328ZM22.7721 32.9796C22.7567 32.7961 22.7567 32.6116 22.7721 32.4281C22.9283 31.505 22.6041 31.1642 21.6242 31.2163C19.5413 31.3252 19.5531 30.7879 19.5508 33.3962C19.5508 34.3429 19.6005 34.9015 20.8384 34.84C23.0538 34.7287 22.7721 35.0199 22.7721 32.9796Z" fill="#0B0B0B"/>
<path d="M50.6534 16.3086H56.128L62.4665 38.1691H57.6262C57.2191 36.4776 56.8057 34.7655 56.3859 33.033H50.2108C49.7966 34.7537 49.3824 36.4673 48.9658 38.1904H44.3125L50.6534 16.3086ZM55.4368 29.1205C54.7268 26.1193 54.0475 23.1418 53.2948 19.9086C52.5563 23.1489 51.8747 26.1169 51.193 29.1205H55.4368Z" fill="#0B0B0B"/>
<path d="M117.449 35.3894L119.989 32.1325C120.988 32.7148 121.901 33.4462 122.94 33.7894C123.968 34.0929 125.042 34.206 126.11 34.1231C127.016 34.0805 127.643 33.4462 127.766 32.4781C127.89 31.51 127.461 30.8686 126.668 30.4639C125.305 29.7704 123.911 29.1337 122.524 28.4828C119.016 26.8402 117.513 23.8887 118.524 20.6106C119.499 17.4508 122.945 15.465 126.479 16.0236C128.554 16.3094 130.466 17.3075 131.887 18.8472L129.712 21.7987C128.675 21.3088 127.721 20.7336 126.687 20.4141C125.959 20.1761 125.175 20.1695 124.443 20.3952C123.774 20.6896 123.238 21.2229 122.94 21.891C122.614 22.6792 123.165 23.3893 123.913 23.7538C125.598 24.5751 127.31 25.3372 129.009 26.1207C133.601 28.2509 133.329 34.3669 130.098 36.8545C127.927 38.5255 125.463 38.8166 122.872 38.3101C120.813 37.8996 118.925 36.8824 117.449 35.3894Z" fill="#0B0B0B"/>
<path d="M69.8878 34.0743H77.8311V38.1595H65.3789V16.3203H69.8996L69.8878 34.0743Z" fill="#0B0B0B"/>
<path d="M100.234 34.6234L103.33 32.1476C103.711 32.621 104.04 33.0944 104.438 33.4944C104.778 33.8537 105.215 34.1055 105.696 34.2186C106.178 34.3318 106.682 34.3014 107.146 34.1311C108.109 33.8257 108.445 33.0186 108.566 32.1192C108.661 31.4393 108.71 30.7537 108.713 30.0671C108.724 25.7547 108.724 21.4415 108.713 17.1274V16.3203H113.259C113.271 16.557 113.295 16.7771 113.297 17.0043C113.297 21.5819 113.311 26.1594 113.285 30.7322C113.278 31.6072 113.185 32.4793 113.006 33.3358C112.497 35.7855 111.217 37.679 108.67 38.2849C106 38.924 103.501 38.5003 101.529 36.3914C101.065 35.8266 100.633 35.2364 100.234 34.6234Z" fill="#0B0B0B"/>
<path d="M86.7119 38.1666H82.2148V16.3203H86.7119V38.1666Z" fill="#0B0B0B"/>
<path d="M97.251 35.4557C97.251 37.1812 96.0415 38.5161 94.4817 38.5185C92.922 38.5208 91.7196 37.2072 91.7148 35.4628C91.7148 33.6829 92.9314 32.322 94.5125 32.348C96.0581 32.3717 97.2533 33.7303 97.251 35.4557Z" fill="#0B0B0B"/>
</g>
<defs>
<clipPath id="clip0_3269_3253">
<rect width="131.972" height="38.1044" fill="white" transform="translate(0.515625 0.449219)"/>
</clipPath>
</defs>
</svg>
