<svg width="113" height="57" viewBox="0 0 113 57" fill="none" xmlns="http://www.w3.org/2000/svg">
<g clip-path="url(#clip0_3360_3833)">
<path d="M10.5872 11.7717C11.5898 11.9839 12.3951 12.482 13.0032 13.2658C13.6113 14.0334 13.9154 14.9151 13.9154 15.9112C13.9154 17.3483 13.4059 18.4913 12.3869 19.3404C11.3843 20.1733 9.97901 20.5897 8.17112 20.5897H0.109375V3.39453H7.89992C9.65852 3.39453 11.0309 3.79461 12.0171 4.59476C13.0197 5.39491 13.5209 6.48084 13.5209 7.85254C13.5209 8.86498 13.2498 9.70596 12.7074 10.3755C12.1815 11.045 11.4747 11.5104 10.5872 11.7717ZM4.32515 10.351H7.08635C7.77666 10.351 8.3026 10.204 8.66419 9.91004C9.04221 9.59982 9.23118 9.15075 9.23118 8.56287C9.23118 7.97501 9.04221 7.52594 8.66419 7.21568C8.3026 6.90541 7.77666 6.75028 7.08635 6.75028H4.32515V10.351ZM7.4315 17.2095C8.13824 17.2095 8.68062 17.0543 9.05864 16.744C9.45311 16.4174 9.65035 15.9521 9.65035 15.3479C9.65035 14.7436 9.44485 14.2701 9.03395 13.9271C8.63954 13.5843 8.08894 13.4128 7.3822 13.4128H4.32515V17.2095H7.4315Z" fill="#FFC000"/>
<path d="M18.3584 5.50024C17.6188 5.50024 17.0107 5.28795 16.534 4.86338C16.0738 4.42248 15.8438 3.8836 15.8438 3.24675C15.8438 2.59356 16.0738 2.05468 16.534 1.6301C17.0107 1.1892 17.6188 0.96875 18.3584 0.96875C19.0816 0.96875 19.6733 1.1892 20.1335 1.6301C20.6101 2.05468 20.8485 2.59356 20.8485 3.24675C20.8485 3.8836 20.6101 4.42248 20.1335 4.86338C19.6733 5.28795 19.0816 5.50024 18.3584 5.50024ZM20.454 6.92092V20.5889H16.2382V6.92092H20.454Z" fill="#FFC000"/>
<path d="M31.0492 17.0373V20.589H28.9043C27.3758 20.589 26.1842 20.2216 25.3296 19.4868C24.4749 18.7357 24.0476 17.519 24.0476 15.8371V10.3993H22.3711V6.9211H24.0476V3.58984H28.2633V6.9211H31.0245V10.3993H28.2633V15.8861C28.2633 16.2943 28.362 16.5883 28.5591 16.7679C28.7564 16.9476 29.0851 17.0373 29.5453 17.0373H31.0492Z" fill="#FFC000"/>
<path d="M32.4375 13.7526C32.4375 12.3319 32.7251 11.0909 33.3004 10.0295C33.8921 8.96799 34.7057 8.15151 35.7411 7.57996C36.793 7.00842 37.9928 6.72266 39.3405 6.72266C41.0663 6.72266 42.5045 7.17173 43.6549 8.06986C44.8218 8.96799 45.5861 10.2335 45.9477 11.8665H41.4607C41.0828 10.8214 40.3514 10.2989 39.2666 10.2989C38.4941 10.2989 37.8778 10.6009 37.4175 11.2052C36.9573 11.793 36.7272 12.6422 36.7272 13.7526C36.7272 14.863 36.9573 15.7203 37.4175 16.3245C37.8778 16.9124 38.4941 17.2063 39.2666 17.2063C40.3514 17.2063 41.0828 16.6837 41.4607 15.6387H45.9477C45.5861 17.2389 44.8218 18.4963 43.6549 19.4109C42.488 20.3253 41.0498 20.7825 39.3405 20.7825C37.9928 20.7825 36.793 20.4968 35.7411 19.9252C34.7057 19.3537 33.8921 18.5372 33.3004 17.4758C32.7251 16.4143 32.4375 15.1732 32.4375 13.7526Z" fill="#FFC000"/>
<path d="M54.3424 20.7825C52.9947 20.7825 51.7784 20.4968 50.6937 19.9252C49.6254 19.3537 48.779 18.5372 48.1544 17.4758C47.5463 16.4143 47.2422 15.1732 47.2422 13.7526C47.2422 12.3483 47.5545 11.1154 48.1791 10.0539C48.8036 8.97615 49.6582 8.15151 50.7431 7.57996C51.8278 7.00842 53.044 6.72266 54.3917 6.72266C55.7395 6.72266 56.9557 7.00842 58.0405 7.57996C59.1252 8.15151 59.9799 8.97615 60.6044 10.0539C61.229 11.1154 61.5413 12.3483 61.5413 13.7526C61.5413 15.1569 61.2208 16.398 60.5799 17.4758C59.9553 18.5372 59.0924 19.3537 57.9912 19.9252C56.9064 20.4968 55.6902 20.7825 54.3424 20.7825ZM54.3424 17.1573C55.1478 17.1573 55.8299 16.8634 56.3887 16.2755C56.964 15.6877 57.2516 14.8467 57.2516 13.7526C57.2516 12.6585 56.9722 11.8176 56.4134 11.2297C55.8709 10.6418 55.1971 10.3478 54.3917 10.3478C53.57 10.3478 52.8879 10.6418 52.3456 11.2297C51.8031 11.8012 51.5319 12.6422 51.5319 13.7526C51.5319 14.8467 51.7949 15.6877 52.3209 16.2755C52.8632 16.8634 53.5371 17.1573 54.3424 17.1573Z" fill="#FFC000"/>
<path d="M65.7763 5.50024C65.0368 5.50024 64.4286 5.28795 63.952 4.86338C63.4918 4.42248 63.2617 3.8836 63.2617 3.24675C63.2617 2.59356 63.4918 2.05468 63.952 1.6301C64.4286 1.1892 65.0368 0.96875 65.7763 0.96875C66.4996 0.96875 67.0912 1.1892 67.5515 1.6301C68.0281 2.05468 68.2663 2.59356 68.2663 3.24675C68.2663 3.8836 68.0281 4.42248 67.5515 4.86338C67.0912 5.28795 66.4996 5.50024 65.7763 5.50024ZM67.872 6.92092V20.5889H63.6561V6.92092H67.872Z" fill="#FFC000"/>
<path d="M79.183 6.77344C80.7937 6.77344 82.0757 7.29599 83.029 8.34108C83.9987 9.36985 84.4835 10.7905 84.4835 12.6031V20.5883H80.2925V13.1665C80.2925 12.252 80.0541 11.5417 79.5775 11.0355C79.1009 10.5293 78.4599 10.2762 77.6545 10.2762C76.8491 10.2762 76.2081 10.5293 75.7315 11.0355C75.2549 11.5417 75.0165 12.252 75.0165 13.1665V20.5883H70.8008V6.9204H75.0165V8.733C75.4439 8.1288 76.0192 7.65524 76.7423 7.31232C77.4655 6.95306 78.2791 6.77344 79.183 6.77344Z" fill="#FFC000"/>
<path d="M19.7091 32.3398V49.535H15.4933V39.2228L11.6226 49.535H8.22042L4.32515 39.1984V49.535H0.109375V32.3398H5.08941L9.94616 44.2442L14.7536 32.3398H19.7091Z" fill="#FFC000"/>
<path d="M21.7773 42.6773C21.7773 41.273 22.0403 40.04 22.5662 38.9786C23.1086 37.9172 23.84 37.1007 24.7604 36.5292C25.6808 35.9576 26.7081 35.6719 27.8421 35.6719C28.8118 35.6719 29.6583 35.8679 30.3814 36.2598C31.121 36.6517 31.6881 37.166 32.0825 37.8029V35.8679H36.2983V49.5358H32.0825V47.6007C31.6717 48.2376 31.0964 48.752 30.3567 49.1439C29.6336 49.5358 28.7872 49.7317 27.8174 49.7317C26.6998 49.7317 25.6808 49.446 24.7604 48.8745C23.84 48.2866 23.1086 47.4619 22.5662 46.4005C22.0403 45.3227 21.7773 44.0816 21.7773 42.6773ZM32.0825 42.7018C32.0825 41.6567 31.7867 40.8321 31.195 40.2278C30.6198 39.6237 29.913 39.3216 29.0747 39.3216C28.2366 39.3216 27.5216 39.6237 26.9299 40.2278C26.3546 40.8157 26.0671 41.6322 26.0671 42.6773C26.0671 43.7224 26.3546 44.5552 26.9299 45.1757C27.5216 45.78 28.2366 46.0821 29.0747 46.0821C29.913 46.0821 30.6198 45.78 31.195 45.1757C31.7867 44.5716 32.0825 43.7469 32.0825 42.7018Z" fill="#FFC000"/>
<path d="M43.4385 31.4102V49.5361H39.2227V31.4102H43.4385Z" fill="#FFC000"/>
<path d="M45.5352 42.6773C45.5352 41.273 45.7981 40.04 46.3241 38.9786C46.8664 37.9172 47.5978 37.1007 48.5182 36.5292C49.4387 35.9576 50.4659 35.6719 51.5999 35.6719C52.5697 35.6719 53.4161 35.8679 54.1393 36.2598C54.8789 36.6517 55.4459 37.166 55.8404 37.8029V35.8679H60.0561V49.5358H55.8404V47.6007C55.4295 48.2376 54.8542 48.752 54.1146 49.1439C53.3915 49.5358 52.545 49.7317 51.5753 49.7317C50.4577 49.7317 49.4387 49.446 48.5182 48.8745C47.5978 48.2866 46.8664 47.4619 46.3241 46.4005C45.7981 45.3227 45.5352 44.0816 45.5352 42.6773ZM55.8404 42.7018C55.8404 41.6567 55.5446 40.8321 54.9529 40.2278C54.3776 39.6237 53.6709 39.3216 52.8326 39.3216C51.9944 39.3216 51.2794 39.6237 50.6878 40.2278C50.1125 40.8157 49.8249 41.6322 49.8249 42.6773C49.8249 43.7224 50.1125 44.5552 50.6878 45.1757C51.2794 45.78 51.9944 46.0821 52.8326 46.0821C53.6709 46.0821 54.3776 45.78 54.9529 45.1757C55.5446 44.5716 55.8404 43.7469 55.8404 42.7018Z" fill="#FFC000"/>
<path d="M77.0354 35.8711L68.4067 56.0301H63.8704L67.0261 49.0736L61.4297 35.8711H66.1386L69.3189 44.4197L72.4746 35.8711H77.0354Z" fill="#FFC000"/>
<path d="M84.0352 49.7317C82.8354 49.7317 81.7671 49.5276 80.8302 49.1194C79.8934 48.7112 79.1538 48.1559 78.6114 47.4538C78.0691 46.7352 77.765 45.9351 77.6992 45.0533H81.8657C81.915 45.5269 82.1369 45.9106 82.5314 46.2045C82.9259 46.4985 83.4106 46.6455 83.9859 46.6455C84.5118 46.6455 84.9146 46.5474 85.1939 46.3515C85.4898 46.1392 85.6377 45.8697 85.6377 45.5432C85.6377 45.1513 85.4323 44.8655 85.0214 44.6859C84.6105 44.4899 83.9448 44.2776 83.0244 44.0491C82.0382 43.8204 81.2165 43.5836 80.5591 43.3387C79.9017 43.0774 79.3346 42.6773 78.858 42.1384C78.3813 41.5832 78.143 40.8403 78.143 39.9094C78.143 39.1256 78.3566 38.4152 78.784 37.7784C79.2277 37.1253 79.8687 36.6108 80.707 36.2353C81.5616 35.8597 82.5724 35.6719 83.7394 35.6719C85.4651 35.6719 86.8211 36.0965 87.8072 36.9456C88.8098 37.7948 89.3847 38.9215 89.5331 40.3258H85.6377C85.572 39.8523 85.3583 39.4767 84.9967 39.1991C84.6516 38.9215 84.1914 38.7827 83.6161 38.7827C83.1231 38.7827 82.745 38.8807 82.4821 39.0766C82.2191 39.2562 82.0876 39.5093 82.0876 39.836C82.0876 40.2279 82.293 40.5218 82.7039 40.7178C83.1313 40.9137 83.7887 41.1097 84.6762 41.3056C85.6952 41.5669 86.5252 41.8282 87.1662 42.0895C87.8072 42.3344 88.3661 42.7426 88.8427 43.3142C89.3359 43.8694 89.5908 44.6205 89.6068 45.5677C89.6068 46.3678 89.3768 47.0864 88.9167 47.7232C88.4729 48.3437 87.8236 48.8336 86.969 49.1928C86.1308 49.5521 85.1528 49.7317 84.0352 49.7317Z" fill="#FFC000"/>
<path d="M94.182 34.4494C93.4423 34.4494 92.8349 34.2371 92.358 33.8126C91.898 33.3717 91.668 32.8328 91.668 32.1959C91.668 31.5427 91.898 31.0039 92.358 30.5793C92.8349 30.1384 93.4423 29.918 94.182 29.918C94.9058 29.918 95.4973 30.1384 95.9573 30.5793C96.4341 31.0039 96.6721 31.5427 96.6721 32.1959C96.6721 32.8328 96.4341 33.3717 95.9573 33.8126C95.4973 34.2371 94.9058 34.4494 94.182 34.4494ZM96.2779 35.8701V49.5381H92.0623V35.8701H96.2779Z" fill="#FFC000"/>
<path d="M98.3711 42.6773C98.3711 41.273 98.634 40.04 99.1597 38.9786C99.7023 37.9172 100.433 37.1007 101.354 36.5292C102.274 35.9576 103.302 35.6719 104.436 35.6719C105.405 35.6719 106.252 35.8679 106.975 36.2598C107.714 36.6517 108.282 37.166 108.676 37.8029V35.8679H112.892V49.5358H108.676V47.6007C108.265 48.2376 107.689 48.752 106.95 49.1439C106.227 49.5358 105.38 49.7317 104.411 49.7317C103.294 49.7317 102.274 49.446 101.354 48.8745C100.433 48.2866 99.7023 47.4619 99.1597 46.4005C98.634 45.3227 98.3711 44.0816 98.3711 42.6773ZM108.676 42.7018C108.676 41.6567 108.38 40.8321 107.788 40.2278C107.213 39.6237 106.507 39.3216 105.668 39.3216C104.83 39.3216 104.115 39.6237 103.524 40.2278C102.948 40.8157 102.66 41.6322 102.66 42.6773C102.66 43.7224 102.948 44.5552 103.524 45.1757C104.115 45.78 104.83 46.0821 105.668 46.0821C106.507 46.0821 107.213 45.78 107.788 45.1757C108.38 44.5716 108.676 43.7469 108.676 42.7018Z" fill="#FFC000"/>
</g>
<defs>
<clipPath id="clip0_3360_3833">
<rect width="112.783" height="55.0593" fill="white" transform="translate(0.109375 0.96875)"/>
</clipPath>
</defs>
</svg>
