<svg width="59" height="66" viewBox="0 0 59 66" fill="none" xmlns="http://www.w3.org/2000/svg">
<g clip-path="url(#clip0_3357_4835)">
<path d="M27.98 0.234375C33.5686 0.349211 38.9167 2.57666 43.3807 6.88209C47.083 10.3877 49.4506 15.072 50.0776 20.1319C51.0547 27.5653 48.984 34.0672 43.7489 39.479C40.3859 42.9423 36.3101 45.1898 31.5508 46.0538C25.4627 47.1585 19.7865 46.0028 14.5661 42.6707C12.701 41.4733 11.0266 40.0023 9.59895 38.307C9.33508 38.0095 9.14615 37.6532 9.04789 37.2678C8.94963 36.8825 8.94489 36.4792 9.03406 36.0917C9.12324 35.7041 9.30374 35.3435 9.56054 35.0399C9.81733 34.7362 10.143 34.4983 10.5103 34.3461C10.883 34.1763 11.3023 34.138 11.6996 34.2373C12.0969 34.3366 12.4487 34.5677 12.6977 34.8929C17.2784 40.3485 23.0694 42.7783 30.171 41.7302C34.4891 41.0922 38.1365 39.0871 41.1077 35.8772C42.0701 34.8364 42.1449 33.3909 41.3684 32.1678C40.6119 30.9757 39.2193 30.3924 37.9889 30.7552C37.4891 30.9153 37.0415 31.2068 36.6929 31.5991C34.3834 34.0435 31.5891 35.5673 28.206 35.7551C22.9946 36.0449 18.8842 34.0562 16.3579 29.3972C13.8315 24.7381 14.2325 20.1155 17.3513 15.8612C21.4762 10.2324 29.4345 9.21708 34.9558 13.4915C35.6266 14.011 36.3466 14.3847 37.2124 14.4266C37.8427 14.4565 38.4655 14.2799 38.9863 13.9236C39.5071 13.5674 39.8974 13.0508 40.0979 12.4525C40.5845 11.1091 40.2656 9.8423 39.212 9.04392C35.9547 6.56857 32.331 4.99186 28.2078 4.82781C21.8918 4.57991 16.6185 6.82194 12.6795 11.8383C11.8629 12.8791 10.2059 12.7369 9.475 12.057C8.52532 11.1766 8.4597 9.84048 9.36381 8.72128C10.9172 6.80592 12.7818 5.1656 14.8796 3.86902C18.6947 1.48481 22.8543 0.269008 27.98 0.234375Z" fill="url(#paint0_linear_3357_4835)"/>
<path d="M7.84716 57.0658C7.80345 57.0631 7.75962 57.0631 7.71592 57.0658C7.211 57.1169 6.88837 57.0403 6.64594 56.4515C6.15561 55.2594 4.32917 55.1337 3.49251 56.1599C3.1259 56.6175 2.90438 57.1741 2.85636 57.7585C2.76704 58.6699 2.74152 59.5667 3.08238 60.4434C3.31388 61.0377 4.02841 61.6301 4.59165 61.652C5.77282 61.6975 6.37616 61.4259 6.6751 60.5583C6.85738 60.057 7.10346 59.9203 7.5865 59.9786C7.86237 60.0042 8.14 60.0042 8.41587 59.9786C8.71663 59.9586 8.8187 60.0078 8.73121 60.356C8.29374 62.0657 7.00321 63.2214 5.37728 63.3034C3.2993 63.4255 1.79732 62.5324 1.18486 60.7515C0.683156 59.3345 0.694121 57.7865 1.21585 56.3768C1.89757 54.5084 3.6839 53.5588 5.74183 53.9069C7.24381 54.1621 8.26275 54.9641 8.70387 56.4424C8.88615 57.0622 8.88615 57.0658 8.23723 57.0658H7.84716Z" fill="#52C8E4"/>
<path d="M24.8304 57.2214C25.9514 55.7759 27.776 56.0931 28.6345 56.9535C29.0862 57.4074 29.3861 57.99 29.4931 58.6213C29.6786 59.5147 29.6334 60.4407 29.3618 61.3118C28.897 62.6971 27.7851 63.4025 26.3342 63.2366C25.8074 63.1765 25.5759 63.0416 24.8395 62.3526C24.8395 63.3606 24.8231 64.3285 24.8486 65.2964C24.8486 65.6372 24.752 65.7247 24.433 65.6974C24.1134 65.6701 23.792 65.6701 23.4724 65.6974C23.168 65.7229 23.0841 65.6299 23.086 65.3182C23.1005 63.4262 23.086 61.5341 23.086 59.6403C23.086 58.6797 23.086 57.719 23.086 56.7584C23.086 56.4905 23.1297 56.3465 23.4341 56.3939C23.5943 56.4057 23.7551 56.4057 23.9153 56.3939C24.7301 56.3939 24.7301 56.3939 24.8304 57.2214ZM27.7468 59.7642C27.7691 59.478 27.7357 59.1901 27.6484 58.9166C27.4771 58.2568 27.0487 57.8466 26.4764 57.8011C25.7235 57.7427 25.2186 58.0089 24.9798 58.6578C24.7027 59.3706 24.6917 60.1595 24.9489 60.8798C25.0366 61.1469 25.2081 61.3785 25.438 61.5404C25.6678 61.7023 25.9438 61.7858 26.2248 61.7784C26.4956 61.8025 26.7671 61.7394 26.9995 61.5984C27.232 61.4574 27.4134 61.2459 27.5172 60.9946C27.6987 60.6112 27.7785 60.1874 27.7487 59.7642H27.7468Z" fill="#52C8E4"/>
<path d="M39.3382 63.3032C36.9485 63.3414 36.0571 61.3619 36.0991 59.6011C36.1097 59.2816 36.1524 58.9641 36.2267 58.6532C36.5311 57.3554 37.4807 56.4112 38.6783 56.238C40.1602 56.0211 41.5328 56.1888 42.3676 57.6306C43.1533 58.9832 43.1678 60.3958 42.4205 61.7793C41.7971 62.9386 40.7399 63.3032 39.3382 63.3032ZM39.5095 61.8176C39.8235 61.8279 40.1321 61.7344 40.3875 61.5515C40.6429 61.3686 40.8309 61.1065 40.9222 60.8059C41.1373 60.2318 41.0844 59.6412 41.017 59.0561C40.9922 58.69 40.8347 58.3455 40.5739 58.0874C40.3131 57.8293 39.967 57.6753 39.6006 57.6543C39.2647 57.6264 38.9294 57.7158 38.6519 57.9072C38.3744 58.0986 38.1718 58.3803 38.0786 58.7043C37.8576 59.3862 37.8621 60.1212 38.0914 60.8005C38.1783 61.105 38.3658 61.3712 38.6233 61.5555C38.8808 61.7399 39.1932 61.8316 39.5095 61.8158V61.8176Z" fill="#52C8E4"/>
<path d="M15.4006 56.3921C15.9766 56.3921 16.5581 56.3921 17.1377 56.3921C17.4038 56.3921 17.3728 56.6108 17.4166 56.7566C17.8103 58.0763 18.1931 59.4015 18.5905 60.7212C18.6287 60.8506 18.6142 61.0201 18.7928 61.1167C19.1883 59.6877 19.5966 58.2714 19.9667 56.8441C20.0615 56.4796 20.2164 56.3538 20.5864 56.383C21.0348 56.4176 21.4869 56.383 21.9973 56.383L21.0439 59.1171C20.5974 60.3931 20.1544 61.6818 19.6987 62.9614C19.4982 63.521 19.2576 64.066 19.0553 64.6238C18.76 65.4349 18.1658 65.7484 17.3346 65.7576C16.2828 65.7685 16.2974 65.7849 16.2792 64.735C16.2792 64.4069 16.3557 64.2939 16.6838 64.3394C17.484 64.4506 17.9251 63.6231 17.67 62.945C16.908 60.9217 16.2117 58.8747 15.4954 56.835C15.4223 56.6994 15.3894 56.5457 15.4006 56.3921Z" fill="#52C8E4"/>
<path d="M33.1793 55.4912V55.5787C33.1793 56.3843 33.1793 56.3935 33.9649 56.4153C34.1964 56.4153 34.2857 56.4919 34.2584 56.7161C34.2566 56.7452 34.2566 56.7745 34.2584 56.8036C34.2712 57.6512 34.2712 57.6603 33.4381 57.7022C33.2231 57.7132 33.172 57.7843 33.1738 57.9848C33.1738 59.093 33.1848 60.1994 33.1738 61.3059C33.1738 61.7962 33.4892 61.8527 33.841 61.8199C34.1928 61.7871 34.2712 61.9165 34.2639 62.2464C34.2456 63.1578 34.2639 63.1578 33.3525 63.1578C33.0185 63.1779 32.6834 63.1503 32.3572 63.0758C31.7393 62.8935 31.4458 62.5636 31.4367 61.9183C31.4258 59.5596 31.4367 57.201 31.4258 54.8423C31.4258 54.6308 31.4878 54.5561 31.6974 54.5725C31.907 54.5889 32.0747 54.5725 32.2643 54.5725C33.1793 54.5707 33.1793 54.5707 33.1793 55.4912Z" fill="#52C8E4"/>
<path d="M12.3871 57.5739C12.8318 56.8321 13.3714 56.36 14.2336 56.3837C14.4778 56.3837 14.5781 56.4456 14.5471 56.6972C14.5379 56.8277 14.5379 56.9586 14.5471 57.0891C14.5471 57.4245 14.6546 57.8182 14.5124 58.077C14.3703 58.3359 13.9401 58.139 13.6393 58.1901C13.0469 58.2903 12.46 58.6986 12.4509 59.5553C12.4363 60.649 12.4272 61.7427 12.4381 62.8363C12.4381 63.1189 12.4016 63.2683 12.0735 63.2337C11.616 63.1845 10.9981 63.416 10.7393 63.1389C10.5096 62.8874 10.6645 62.2822 10.6627 61.832C10.6627 60.2006 10.6627 58.5692 10.6499 56.9396C10.6499 56.6024 10.7466 56.4876 11.0674 56.5386C11.1542 56.5441 11.2412 56.5441 11.328 56.5386C11.647 56.5386 12.0407 56.4456 12.2649 56.5951C12.4891 56.7446 12.2777 57.1893 12.3871 57.5739Z" fill="#52C8E4"/>
<path d="M50.2853 62.8302L50.2634 57.6318C50.264 57.512 50.2646 57.3921 50.2651 57.2723L50.266 57.0788C50.2703 56.1584 50.2746 55.2379 50.2853 54.3161C50.2871 54.1174 50.2434 54.0318 50.0228 54.0318C49.558 54.0482 49.0914 54.05 48.6265 54.0318C48.3951 54.0227 48.375 54.1338 48.375 54.3161C48.3914 54.9577 48.3914 55.5938 48.3914 56.2335C48.3878 58.4318 48.3823 60.6313 48.375 62.8321C48.375 62.9833 48.4023 63.069 48.5846 63.069H50.0702C50.2488 63.0727 50.2853 62.9888 50.2853 62.8302Z" fill="url(#paint1_linear_3357_4835)"/>
<path d="M56.2125 56.2385C55.2555 56.1437 54.4243 56.3552 53.852 57.2976C53.8143 57.1505 53.8231 56.9994 53.831 56.8635C53.8421 56.6711 53.8515 56.5094 53.7244 56.4336C53.5678 56.3402 53.3439 56.3569 53.1224 56.3734C53.037 56.3798 52.952 56.3862 52.8713 56.3862C52.7408 56.3953 52.6099 56.3953 52.4794 56.3862C52.1659 56.3388 52.1003 56.4664 52.1003 56.769C52.1112 58.4131 52.1112 60.0646 52.1112 61.7051C52.1118 61.8316 52.0991 61.9709 52.0864 62.1109C52.0555 62.4507 52.0243 62.7945 52.1805 62.9701C52.3419 63.1491 52.6454 63.1178 52.9591 63.0855C53.1342 63.0674 53.3124 63.0491 53.471 63.0667C53.7955 63.1032 53.8793 63.0011 53.8793 62.6693C53.8611 61.5337 53.8666 60.3981 53.8793 59.2625C53.8866 58.4824 54.2001 57.9538 54.736 57.7715C55.6237 57.4561 56.2891 57.8973 56.3328 58.8287V59.2662C56.3328 59.6496 56.3342 60.033 56.3356 60.4164C56.3385 61.1831 56.3413 61.9499 56.3328 62.7167C56.3292 62.9737 56.3784 63.0849 56.6627 63.0685C56.9498 63.0551 57.2336 63.0596 57.5163 63.0641C57.6573 63.0663 57.798 63.0685 57.9387 63.0685C58.1027 63.0722 58.1683 63.0339 58.1683 62.8516C58.1648 62.3438 58.1668 61.8359 58.1689 61.3281C58.1731 60.2776 58.1774 59.2274 58.1319 58.178C58.0827 57.0223 57.3499 56.3515 56.2125 56.2385Z" fill="url(#paint2_linear_3357_4835)"/>
<path d="M46.3621 62.1668C46.3621 63.0636 46.3621 63.0636 45.4671 63.0636C44.4883 63.0636 44.4883 63.0636 44.4883 62.0665C44.4883 61.2171 44.4883 61.2171 45.3468 61.2189H45.4343C46.3621 61.2189 46.3621 61.2189 46.3621 62.1668Z" fill="#52C8E4"/>
</g>
<defs>
<linearGradient id="paint0_linear_3357_4835" x1="59.9694" y1="1.87489" x2="8.65786" y2="43.7079" gradientUnits="userSpaceOnUse">
<stop offset="0.263141" stop-color="#D11C5D"/>
<stop offset="0.592222" stop-color="#363090"/>
<stop offset="1" stop-color="#00A7E8"/>
</linearGradient>
<linearGradient id="paint1_linear_3357_4835" x1="55.5964" y1="54.0078" x2="48.3964" y2="63.5774" gradientUnits="userSpaceOnUse">
<stop offset="0.315255" stop-color="#A7226B"/>
<stop offset="0.654181" stop-color="#39308F"/>
<stop offset="0.903989" stop-color="#0A92D9"/>
</linearGradient>
<linearGradient id="paint2_linear_3357_4835" x1="55.5964" y1="54.0078" x2="48.3964" y2="63.5774" gradientUnits="userSpaceOnUse">
<stop offset="0.315255" stop-color="#A7226B"/>
<stop offset="0.654181" stop-color="#39308F"/>
<stop offset="0.903989" stop-color="#0A92D9"/>
</linearGradient>
<clipPath id="clip0_3357_4835">
<rect width="57.3486" height="65.5348" fill="white" transform="translate(0.824219 0.234375)"/>
</clipPath>
</defs>
</svg>
