<svg width="159" height="39" viewBox="0 0 159 39" fill="none" xmlns="http://www.w3.org/2000/svg">
<g clip-path="url(#clip0_3360_3905)">
<path d="M5.33882 9.19241C6.91971 9.19241 8.5006 9.19568 10.0815 9.1875C10.2886 9.1875 10.4086 9.24746 10.5127 9.43227C11.5582 11.2817 12.6096 13.1284 13.6668 14.9725C14.4823 16.4014 15.3 17.8299 16.1199 19.2577C16.1466 19.3046 16.1712 19.3531 16.1973 19.4011C16.278 19.5494 16.2638 19.6442 16.0665 19.6453C14.8945 19.6533 13.7226 19.6626 12.5509 19.6731C12.4968 19.6765 12.443 19.6635 12.3964 19.6358C12.3498 19.6081 12.3126 19.5669 12.2898 19.5178C11.6026 18.2967 10.9132 17.0767 10.2216 15.8577C9.64756 14.8427 9.07026 13.8299 8.50332 12.8115C8.41447 12.6529 8.30598 12.6011 8.13372 12.6033C7.67036 12.6098 7.207 12.6033 6.74418 12.6033C6.46616 12.6033 6.42909 12.6535 6.56483 12.896C6.89682 13.4941 7.2397 14.0888 7.57823 14.6884C8.25928 15.8812 8.94052 17.0739 9.62194 18.2667C10.4425 19.7044 11.263 21.1419 12.0832 22.5792C13.18 24.5054 14.2761 26.4315 15.3715 28.3577C15.976 29.4179 16.5876 30.4744 17.1878 31.538C17.286 31.7124 17.3546 31.7467 17.4604 31.5609C17.7112 31.1209 17.9559 30.6772 18.2149 30.2411C18.2955 30.1048 18.2149 30.011 18.1604 29.914C17.2155 28.2357 16.2689 26.5589 15.3208 24.8835C14.6666 23.7267 14.019 22.5662 13.355 21.4154C13.2247 21.1902 13.3059 21.1428 13.5066 21.1428C14.6606 21.1325 15.8141 21.1265 16.9681 21.1156C17.0314 21.1122 17.0943 21.1278 17.1486 21.1604C17.2029 21.1931 17.2462 21.2413 17.2729 21.2987C17.9848 22.5591 18.698 23.8183 19.4125 25.0765C20.2013 26.4573 20.9765 27.8469 21.7991 29.2075C22.1235 29.7434 22.2172 30.1391 21.8433 30.7453C20.6756 32.6375 19.6082 34.5918 18.5038 36.5237C18.1157 37.2023 17.7264 37.8828 17.3361 38.5653C17.1889 38.8209 17.1698 38.8231 17.0216 38.5653C15.9676 36.7209 14.9137 34.8758 13.8598 33.03C12.6725 30.9483 11.4863 28.8661 10.3012 26.7833C9.06735 24.6206 7.83463 22.4589 6.60299 20.2984C5.38262 18.1622 4.16043 16.0273 2.93642 13.8936C2.08438 12.4027 1.24651 10.9052 0.387381 9.417C0.250553 9.17932 0.371027 9.18859 0.542199 9.18859C2.14126 9.18859 3.74031 9.18859 5.33937 9.18859L5.33882 9.19241Z" fill="#04C5FC"/>
<path d="M29.1451 9.20503C30.7161 9.20503 32.2872 9.20503 33.8583 9.20503C34.1205 9.20503 34.1565 9.25246 34.0305 9.47433C33.3215 10.7256 32.6105 11.9754 31.8974 13.2238C30.7461 15.2306 29.5919 17.2359 28.4348 19.2398C27.2213 21.3477 26.0084 23.4555 24.796 25.5634C24.3321 26.3713 23.8764 27.1841 23.4114 27.9914C23.3568 28.0868 23.3274 28.2449 23.1873 28.2351C23.0739 28.2275 23.0423 28.0857 22.9905 27.9941C21.2875 24.9897 19.5858 21.9848 17.8853 18.9793C16.5676 16.6508 15.2502 14.3222 13.9331 11.9934C13.4567 11.1517 12.982 10.3086 12.5092 9.46397C12.3653 9.20558 12.3757 9.19141 12.6559 9.19141C13.7821 9.19141 14.9084 9.19577 16.0357 9.19141C16.2069 9.19141 16.2963 9.25846 16.3764 9.40074C17.1709 10.8105 17.9684 12.218 18.769 13.6233C19.5351 14.9658 20.3041 16.3065 21.076 17.6453C21.7462 18.813 22.4156 19.9809 23.0843 21.1489C23.1333 21.235 23.1693 21.3615 23.268 21.3615C23.3667 21.3615 23.4015 21.2312 23.4506 21.1462C23.6501 20.8017 23.8387 20.4506 24.0552 20.1181C24.1931 19.9065 24.1849 19.7326 24.0617 19.5184C23.4026 18.3736 22.7534 17.2239 22.1041 16.0753C21.1632 14.4156 20.2227 12.7553 19.2825 11.0945C18.9712 10.5439 18.6676 9.98839 18.3503 9.44108C18.2342 9.24101 18.2958 9.19141 18.5013 9.19195C19.6548 9.19686 20.8083 9.20231 21.9618 9.19195C22.1712 9.19195 22.248 9.3037 22.3298 9.44707L23.6474 11.7535L25.8661 15.6398C25.9468 15.781 26.0296 15.92 26.1109 16.0623C26.2112 16.2422 26.2858 16.2258 26.3834 16.0525C26.856 15.2189 27.3369 14.3898 27.8149 13.5596C27.937 13.348 28.0652 13.1393 28.1834 12.925C28.2718 12.7648 28.2718 12.6601 28.0324 12.6644C27.4606 12.6737 26.8877 12.6595 26.3158 12.6644C26.1228 12.6644 26.0062 12.6099 25.9064 12.429C25.3613 11.439 24.7993 10.4578 24.2421 9.47379C24.1097 9.23938 24.1304 9.1974 24.4024 9.1974C25.9829 9.19522 27.5638 9.19522 29.1451 9.1974V9.20503Z" fill="#04C5FC"/>
<path d="M130.99 15.2049C130.886 15.7626 130.778 16.2434 130.708 16.7313C130.573 17.6422 130.373 18.54 130.199 19.4428C129.949 20.7331 129.664 22.0163 129.394 23.3029C129.231 24.09 129.063 24.8772 128.904 25.6655C128.872 25.8225 128.809 25.8835 128.637 25.8835C127.865 25.8726 127.092 25.8715 126.32 25.8835C126.166 25.8835 126.117 25.8056 126.089 25.702C125.782 24.5975 125.485 23.4904 125.177 22.3865C124.993 21.7291 124.787 21.0782 124.601 20.4202C124.315 19.403 124.046 18.3803 123.757 17.3642C123.337 15.8863 122.898 14.4134 122.486 12.9333C122.427 12.7224 122.369 12.5081 122.319 12.2933C122.287 12.1565 122.273 12.06 122.483 12.0622C123.381 12.0731 124.282 12.0682 125.18 12.0655C125.294 12.0655 125.344 12.0851 125.371 12.2187C125.631 13.3634 125.916 14.5082 126.175 15.6563C126.409 16.6817 126.623 17.712 126.849 18.7395C127.088 19.8298 127.333 20.9201 127.492 22.0283C127.495 22.048 127.521 22.0643 127.563 22.1145C127.62 21.8037 127.672 21.5268 127.722 21.2488C127.817 20.7086 127.902 20.1662 128.001 19.627C128.114 19.0214 128.238 18.4185 128.358 17.8145C128.541 16.891 128.729 15.9681 128.908 15.0441C129.042 14.355 129.162 13.6638 129.294 12.9726C129.339 12.7376 129.435 12.507 129.444 12.2721C129.453 12.0622 129.55 12.0628 129.698 12.0633C130.579 12.0633 131.46 12.072 132.341 12.0589C132.523 12.0557 132.574 12.1358 132.604 12.277C132.923 13.7946 133.242 15.3128 133.579 16.8272C133.906 18.3089 134.171 19.8047 134.455 21.2973C134.501 21.5383 134.52 21.7841 134.656 22.0174C134.724 21.6647 134.795 21.3131 134.86 20.9604C134.939 20.5341 135.001 20.104 135.093 19.6804C135.239 19.0023 135.401 18.3274 135.561 17.6525C135.695 17.084 135.841 16.5181 135.974 15.949C136.131 15.2796 136.277 14.6074 136.431 13.938C136.545 13.4474 136.655 12.9568 136.787 12.4754C136.899 12.0622 136.912 12.0655 137.356 12.0655C138.083 12.0655 138.81 12.0775 139.537 12.0589C139.793 12.0524 139.809 12.1391 139.75 12.3446C139.304 13.9091 138.85 15.4715 138.422 17.0415C137.855 19.119 137.237 21.1845 136.682 23.2641C136.464 24.0791 136.23 24.8919 135.991 25.702C135.947 25.8503 135.864 25.8819 135.718 25.8802C134.955 25.8722 134.192 25.8722 133.429 25.8802C133.228 25.8802 133.144 25.8421 133.098 25.6137C132.922 24.7355 132.687 23.8692 132.513 22.991C132.373 22.2824 132.24 21.5737 132.077 20.8716C131.899 20.0975 131.804 19.3048 131.641 18.5275C131.433 17.5212 131.25 16.5107 131.092 15.496C131.082 15.417 131.042 15.345 130.99 15.2049Z" fill="black"/>
<path d="M68.8751 19.2692C69.1744 19.46 69.5036 19.5657 69.7538 19.8028C70.2336 20.2569 70.4391 20.8337 70.5208 21.4699C70.6506 22.48 70.565 23.4972 70.6348 24.509C70.662 24.9042 70.7438 25.2978 71.1576 25.5022C71.2928 25.5687 71.2121 25.6936 71.2181 25.7895C71.2268 25.9029 71.1227 25.8745 71.0545 25.8745C70.0918 25.8745 69.1286 25.8702 68.1653 25.8805C67.9702 25.8805 67.9473 25.7513 67.9189 25.6325C67.7913 25.0231 67.7296 24.4017 67.7347 23.779C67.7347 23.2437 67.7614 22.7057 67.6971 22.1725C67.6513 21.7909 67.5842 21.4143 67.3444 21.0937C67.2255 20.9366 67.075 20.806 66.9026 20.7105C66.7302 20.6151 66.5398 20.5567 66.3435 20.5393C65.1262 20.4101 63.9024 20.5044 62.6813 20.4739C62.4861 20.469 62.4889 20.5606 62.4889 20.7012C62.4916 22.3186 62.4845 23.9355 62.497 25.5529C62.497 25.8227 62.4164 25.8865 62.1596 25.88C61.3964 25.8636 60.6332 25.868 59.87 25.88C59.6972 25.88 59.6596 25.8298 59.6602 25.6663C59.6642 21.2057 59.6642 16.7446 59.6602 12.2833C59.6602 12.0958 59.7212 12.0625 59.8902 12.0625C62.1432 12.0669 64.3963 12.0587 66.6499 12.0663C67.6436 12.0701 68.5954 12.2457 69.4202 12.8584C70.3862 13.5752 70.8855 14.5341 70.9591 15.7334C71.0136 16.6002 70.8463 17.3999 70.3551 18.126C70.0199 18.621 69.5849 18.9835 69.019 19.1863C68.9689 19.2101 68.9208 19.2378 68.8751 19.2692ZM64.4421 18.1435C65.0052 18.1435 65.5689 18.1505 66.132 18.1435C67.4294 18.1244 68.0585 17.5525 68.1005 16.3652C68.1381 15.3137 67.497 14.5521 66.4492 14.4802C65.1802 14.3935 63.9067 14.466 62.6333 14.4458C62.4442 14.4426 62.4927 14.5712 62.4927 14.6688C62.4927 15.759 62.4927 16.8493 62.4872 17.9396C62.4872 18.1069 62.5265 18.1533 62.696 18.15C63.2793 18.1364 63.861 18.1435 64.4421 18.1435Z" fill="black"/>
<path d="M146.951 18.9786C146.951 16.7719 146.956 14.563 146.944 12.3585C146.944 12.0984 147.022 12.057 147.258 12.0586C149.003 12.0685 150.747 12.0586 152.489 12.0663C153.28 12.0701 154.07 12.0761 154.845 12.3007C156.075 12.6556 156.981 13.3953 157.641 14.4714C158.186 15.3578 158.423 16.333 158.565 17.3524C158.739 18.6499 158.676 19.9683 158.378 21.243C158.158 22.1965 157.744 23.0942 157.16 23.8793C156.736 24.4561 156.191 24.8938 155.597 25.2503C155.032 25.5888 154.384 25.7649 153.717 25.8276C152.588 25.9328 151.456 25.8576 150.325 25.8718C149.299 25.8849 148.272 25.8658 147.246 25.881C146.995 25.8848 146.939 25.8352 146.941 25.5714C146.957 23.374 146.951 21.176 146.951 18.9786ZM149.781 18.9644C149.781 20.3986 149.784 21.8329 149.776 23.2671C149.776 23.447 149.824 23.4906 150 23.489C150.862 23.4797 151.724 23.4803 152.587 23.4857C153.623 23.4923 154.395 23.0349 154.937 22.1725C155.448 21.3602 155.634 20.4493 155.695 19.5095C155.766 18.4258 155.718 17.3492 155.344 16.315C154.942 15.2084 154.182 14.5494 152.971 14.4736C151.99 14.4125 151.011 14.4676 150.032 14.4403C149.832 14.4349 149.774 14.4796 149.775 14.6889C149.786 16.1144 149.781 17.5394 149.781 18.9644Z" fill="black"/>
<path d="M115.262 11.7031C116.851 11.7151 118.232 12.0618 119.434 12.9569C120.218 13.5429 120.788 14.3078 121.221 15.1854C121.582 15.917 121.752 16.6938 121.875 17.4892C121.985 18.1994 122.02 18.9194 121.978 19.637C121.899 20.9682 121.593 22.24 120.888 23.3891C120.484 24.0559 119.945 24.6314 119.307 25.0791C118.293 25.7877 117.16 26.1241 115.934 26.2167C115.388 26.2592 114.839 26.2492 114.295 26.1868C113.762 26.122 113.238 25.9958 112.734 25.8106C112.253 25.6311 111.795 25.3931 111.372 25.102C111.035 24.879 110.731 24.6102 110.468 24.3033C109.974 23.7288 109.582 23.0741 109.309 22.3676C109.102 21.8321 108.949 21.2776 108.851 20.712C108.752 20.1123 108.779 19.5062 108.696 18.9065C108.638 18.4851 108.751 18.0567 108.793 17.6314C108.832 17.213 108.911 16.7993 109.028 16.3956C109.337 15.3321 109.786 14.3541 110.585 13.5484C111.169 12.954 111.871 12.4881 112.646 12.1807C113.523 11.8301 114.437 11.7358 115.262 11.7031ZM119.11 19.0123C119.103 18.0245 118.988 17.0558 118.549 16.1547C117.961 14.9494 117.006 14.25 115.657 14.1573C114.221 14.0586 113.095 14.5994 112.341 15.8538C111.905 16.5853 111.71 17.3938 111.65 18.2333C111.563 19.4582 111.637 20.6667 112.175 21.7984C112.758 23.0261 113.741 23.7064 115.098 23.7882C116.502 23.8705 117.637 23.3613 118.379 22.1228C118.953 21.1661 119.101 20.1036 119.11 19.0123Z" fill="black"/>
<path d="M57.4231 21.1421C57.2105 22.247 56.8169 23.2512 56.1295 24.1327C55.7786 24.578 55.3589 24.9645 54.8861 25.2774C54.1343 25.7833 53.2992 26.0406 52.4024 26.1682C51.7292 26.2658 51.0587 26.2418 50.3974 26.1911C49.8022 26.1447 49.2156 25.9539 48.6617 25.6939C47.4624 25.1313 46.581 24.2553 45.9862 23.0713C45.6241 22.3638 45.3727 21.6048 45.241 20.821C45.1069 19.9907 45.1069 19.1452 45.1265 18.3014C45.1467 17.5199 45.2791 16.7453 45.5196 16.0015C45.8082 15.0982 46.2904 14.2689 46.9326 13.5712C47.4526 13.001 48.0506 12.5415 48.7381 12.2455C49.8632 11.7603 51.0538 11.6082 52.2874 11.75C52.9607 11.8274 53.6192 11.9642 54.2292 12.2264C54.9874 12.5442 55.6598 13.0366 56.1917 13.6634C56.8607 14.4542 57.2834 15.4238 57.4073 16.4523C57.4247 16.5842 57.3948 16.5902 57.2983 16.5907C56.4083 16.594 55.5179 16.5976 54.6271 16.6016C54.5823 16.6003 54.5396 16.5821 54.5075 16.5507C54.4755 16.5193 54.4565 16.4769 54.4543 16.4321C54.3818 15.8968 54.1169 15.4509 53.7794 15.0567C53.4616 14.686 53.025 14.4538 52.5556 14.3388C52.1508 14.2365 51.733 14.1953 51.316 14.2167C50.1385 14.2881 49.0809 15.03 48.5936 16.1688C48.0523 17.4373 47.9994 18.7495 48.1253 20.0823C48.1896 20.7665 48.3668 21.4353 48.707 22.0448C49.269 23.0506 50.0764 23.66 51.2735 23.7282C52.0912 23.7745 52.8309 23.587 53.4387 23.0822C53.9484 22.6592 54.3229 22.0922 54.4418 21.4086C54.4778 21.2031 54.559 21.1317 54.7754 21.1361C55.6552 21.1497 56.5362 21.1421 57.4231 21.1421Z" fill="black"/>
<path d="M85.5055 18.9606C85.5055 16.7533 85.5093 14.545 85.5 12.3383C85.5 12.1099 85.5545 12.057 85.7807 12.0586C87.9068 12.0728 90.0328 12.0679 92.1588 12.0826C92.6614 12.0864 93.1488 12.2107 93.6198 12.3895C94.6228 12.7711 95.2999 13.4765 95.7087 14.4583C96.1748 15.578 96.219 16.7375 95.8995 17.8823C95.6449 18.7948 95.1216 19.5777 94.3186 20.1315C93.526 20.6766 92.638 20.9029 91.6813 20.8947C90.6635 20.8882 89.6463 20.8991 88.6285 20.8892C88.4361 20.8892 88.3887 20.9438 88.3892 21.1307C88.3974 22.6206 88.3892 24.111 88.3985 25.6008C88.3985 25.8058 88.3592 25.8832 88.1341 25.8788C87.3349 25.8647 86.5352 25.8669 85.7355 25.8788C85.5409 25.8816 85.5005 25.8205 85.5011 25.6374C85.508 23.4121 85.5095 21.1865 85.5055 18.9606ZM88.3947 16.4742C88.3947 17.082 88.3985 17.6899 88.3914 18.2977C88.3914 18.4509 88.4099 18.5217 88.5931 18.5195C89.4909 18.5092 90.392 18.5272 91.2871 18.5119C92.2531 18.495 92.9084 18.0022 93.1253 17.1584C93.1892 16.8936 93.2174 16.6216 93.2093 16.3494C93.1935 15.1871 92.6211 14.5859 91.4594 14.4867C90.4989 14.4043 89.5373 14.4708 88.5767 14.4414C88.4039 14.436 88.3908 14.5134 88.3919 14.6507C88.3968 15.2586 88.3941 15.8664 88.3941 16.4742H88.3947Z" fill="black"/>
<path d="M77.7532 18.0403C77.9795 17.5197 78.1784 16.991 78.4357 16.4927C78.6538 16.0746 78.8364 15.6423 79.025 15.2149C79.1727 14.8813 79.345 14.5575 79.4753 14.213C79.6536 13.7431 79.8912 13.2939 80.1191 12.8441C80.1955 12.6964 80.2607 12.5431 80.3143 12.3857C80.402 12.1169 80.5498 12.0586 80.8049 12.0586C81.6945 12.0706 82.5847 12.0673 83.476 12.0586C83.699 12.0586 83.7371 12.0978 83.6281 12.3094C83.3272 12.8916 83.0285 13.4759 82.7177 14.0538C82.358 14.7276 81.9764 15.3943 81.6231 16.0708C81.4051 16.4878 81.187 16.913 80.969 17.3246C80.6124 17.9853 80.257 18.6487 79.8934 19.3067C79.665 19.7193 79.4535 20.1424 79.2229 20.5539C79.161 20.6745 79.1326 20.8095 79.1406 20.9448C79.1406 22.4886 79.134 24.0324 79.1488 25.5784C79.1515 25.8401 79.0675 25.8848 78.832 25.8804C78.0514 25.8663 77.2702 25.8685 76.488 25.8804C76.2944 25.8832 76.2476 25.8259 76.2486 25.6379C76.2557 24.0755 76.2486 22.5137 76.2563 20.9497C76.2593 20.7721 76.2129 20.5971 76.1222 20.4444C75.5405 19.4375 74.997 18.4094 74.4372 17.3916C73.8092 16.2469 73.1485 15.1244 72.5107 13.9867C72.188 13.4122 71.8881 12.8251 71.5692 12.2483C71.4858 12.0978 71.5294 12.0619 71.6783 12.0624C72.7047 12.0624 73.7307 12.0684 74.7572 12.0591C74.8097 12.0587 74.8611 12.0752 74.9034 12.1064C74.9458 12.1376 74.9769 12.1816 74.9921 12.2319C75.4697 13.386 76.0557 14.4893 76.5795 15.6221C76.9432 16.4082 77.3149 17.1905 77.6845 17.9738C77.6949 17.9978 77.7227 18.0131 77.7532 18.0403Z" fill="black"/>
<path d="M101.324 20.2051C101.324 18.3979 101.318 16.5903 101.331 14.7832C101.331 14.5319 101.259 14.4915 101.029 14.4937C99.8216 14.5057 98.6135 14.4937 97.4055 14.5046C97.2011 14.5046 97.1482 14.455 97.1526 14.2517C97.1668 13.5975 97.164 12.9433 97.1526 12.2892C97.1526 12.1137 97.1935 12.0586 97.3772 12.0586C100.975 12.064 104.571 12.064 108.166 12.0586C108.352 12.0586 108.392 12.1213 108.389 12.2935C108.38 12.9564 108.377 13.6193 108.389 14.2822C108.393 14.4757 108.32 14.5002 108.154 14.5002C106.937 14.4942 105.72 14.5035 104.502 14.4915C104.271 14.4915 104.2 14.5319 104.201 14.7821C104.21 18.38 104.204 21.9746 104.213 25.5708C104.213 25.8221 104.148 25.8837 103.902 25.8788C103.139 25.8617 102.376 25.8617 101.613 25.8788C101.365 25.8843 101.305 25.8385 101.308 25.5703C101.333 23.7828 101.324 21.9936 101.324 20.2051Z" fill="black"/>
<path d="M6.64844 6.34417C6.68224 6.23841 6.76837 6.21879 6.83487 6.18063C10.222 4.22251 13.6094 2.26457 16.9972 0.306817C17.1395 0.224502 17.242 0.21687 17.3903 0.306817C20.7701 2.29873 24.1499 4.28738 27.5298 6.27275C27.5897 6.30764 27.6448 6.35071 27.7047 6.39214C27.6306 6.50498 27.5314 6.46464 27.4502 6.46464C25.5335 6.46137 23.6163 6.45265 21.6996 6.4521C21.5186 6.45104 21.3415 6.3995 21.1882 6.30328C19.9497 5.56626 18.7008 4.8396 17.4612 4.09985C17.2829 3.99083 17.1553 3.9832 16.9705 4.09168C15.7096 4.83033 14.4395 5.55427 13.1742 6.28584C13.0605 6.35995 12.9283 6.40074 12.7926 6.40359C10.8396 6.39341 8.88639 6.38505 6.933 6.37851C6.83814 6.37796 6.73838 6.39541 6.64844 6.34417Z" fill="black"/>
<path d="M1.56985 15.1992L2.82365 17.3977C3.40749 18.422 3.98969 19.4485 4.57898 20.4685C4.66077 20.6092 4.7012 20.7702 4.69564 20.9329C4.6831 22.395 4.67765 23.857 4.6613 25.3191C4.6613 25.5044 4.70818 25.6113 4.87554 25.7067C6.15987 26.4393 7.43766 27.1862 8.7209 27.9199C8.88444 28.0126 8.97003 28.1467 9.05616 28.2977C10.0011 29.952 10.9469 31.6055 11.8936 33.2584C11.9394 33.3385 12.0239 33.4105 11.9873 33.5631C11.7813 33.4492 11.5867 33.3451 11.3953 33.236C8.14306 31.3553 4.89044 29.4755 1.63744 27.5966C1.463 27.4958 1.40413 27.3868 1.40631 27.1889C1.44265 23.2843 1.47609 19.3797 1.50661 15.4751C1.50825 15.3987 1.48208 15.317 1.56985 15.1992Z" fill="black"/>
<path d="M22.1367 33.4864C22.6399 32.6251 23.1409 31.7627 23.6473 30.9036C24.1537 30.0444 24.677 29.1733 25.1895 28.3049C25.2745 28.1559 25.4 28.034 25.5514 27.9533C26.8145 27.2561 28.0705 26.5463 29.3374 25.8556C29.5462 25.7417 29.6061 25.6071 29.6067 25.3846C29.611 23.9673 29.6296 22.5499 29.635 21.1353C29.6326 20.9188 29.6913 20.706 29.8046 20.5215C30.7912 18.8705 31.7725 17.216 32.7483 15.5581C32.7799 15.5036 32.8213 15.4572 32.8671 15.3945C32.956 15.4861 32.9216 15.5902 32.9189 15.6802C32.8891 19.5757 32.858 23.471 32.8257 27.3662C32.8257 27.5412 32.7968 27.6628 32.6191 27.7609C29.2214 29.6438 25.8265 31.5307 22.4344 33.4215C22.3564 33.4646 22.2708 33.4968 22.1901 33.5338L22.1367 33.4864Z" fill="black"/>
<path d="M144.23 18.9889C144.23 21.1956 144.227 23.4045 144.234 25.6096C144.234 25.8123 144.196 25.8848 143.973 25.8821C143.21 25.8661 142.447 25.8661 141.684 25.8821C141.415 25.8881 141.331 25.8363 141.332 25.5376C141.345 21.1511 141.346 16.7644 141.336 12.3775C141.336 12.1377 141.382 12.0505 141.641 12.0592C142.422 12.0777 143.203 12.0739 143.985 12.0592C144.194 12.0554 144.236 12.1137 144.235 12.3143C144.228 14.5384 144.231 16.7637 144.23 18.9889Z" fill="black"/>
<path d="M22.1895 33.5357C22.1693 33.5472 22.1415 33.5733 22.1306 33.5679C22.0832 33.5433 22.1137 33.5134 22.1344 33.4883L22.1895 33.5357Z" fill="black"/>
</g>
<defs>
<clipPath id="clip0_3360_3905">
<rect width="158.337" height="38.5142" fill="white" transform="translate(0.332031 0.242188)"/>
</clipPath>
</defs>
</svg>
