<svg width="153" height="48" viewBox="0 0 153 48" fill="none" xmlns="http://www.w3.org/2000/svg">
<g clip-path="url(#clip0_3360_4235)">
<path d="M39.1215 17.3941C39.1292 17.1848 38.8591 17.057 38.9366 16.8156C39.132 16.7067 39.3434 16.7633 39.5451 16.7626C40.8012 16.7563 42.0573 16.7856 43.3135 16.7465C43.8417 16.7305 44.1439 16.8896 44.4265 17.3522C46.3184 20.4458 48.2011 23.5442 50.0476 26.6642C50.1628 26.8596 50.2472 27.0795 50.4433 27.2127C50.6785 27.0767 50.7469 26.8415 50.862 26.644C52.6513 23.5167 54.4913 20.4197 56.3819 17.3529C56.6394 16.9342 56.9074 16.7444 57.4224 16.7465C61.77 16.7688 66.1182 16.7577 70.4658 16.7605C72.0115 16.7605 73.5314 16.9286 74.9655 17.5532C75.3842 17.7353 75.7854 17.9621 76.3011 18.2217C76.3011 17.81 76.3081 17.473 76.3011 17.1366C76.2942 16.8721 76.4065 16.7514 76.671 16.764C76.8106 16.7702 76.9501 16.764 77.0897 16.764C83.3442 16.764 89.5988 16.764 95.8533 16.764C96.6495 16.764 96.6691 16.6642 96.667 17.5455C96.667 17.987 96.67 18.429 96.676 18.8714C96.676 18.9112 96.713 18.951 96.7347 18.9929C96.9001 19.0305 96.9789 18.891 97.0773 18.81C99.0564 17.1875 101.365 16.4304 103.881 16.2399C106.069 16.0738 108.211 16.3243 110.231 17.198C113.178 18.4709 115.167 20.6837 116.338 23.6544C116.406 23.827 116.475 23.9987 116.547 24.1695C116.551 24.1799 116.586 24.1778 116.66 24.1918V22.6705C116.66 20.9491 116.66 19.2278 116.66 17.5065C116.66 16.764 116.66 16.7626 117.433 16.7612C118.549 16.7612 119.666 16.7556 120.782 16.7612C121.279 16.7647 121.28 16.7772 121.299 17.2699C121.304 17.4095 121.299 17.549 121.299 17.6886C121.299 25.2434 121.299 32.7983 121.299 40.3531C121.299 41.2701 121.419 41.2129 120.44 41.2143C119.393 41.2143 118.346 41.2143 117.299 41.2143C116.666 41.2143 116.662 41.2066 116.661 40.5499C116.661 38.5741 116.661 36.5983 116.661 34.6224V33.739C116.242 34.5031 115.95 35.3021 115.515 36.0356C113.91 38.7446 111.614 40.5457 108.544 41.3189C106.081 41.9393 103.608 41.9323 101.167 41.2443C97.429 40.1898 94.877 37.7676 93.6146 34.1312C92.3271 30.4249 92.4325 26.6859 93.9119 23.0201C94.1973 22.3139 94.6035 21.6677 95.0215 21.0222C94.817 20.8519 94.6244 20.9147 94.452 20.914C92.8009 20.9084 91.1494 20.9084 89.4973 20.914C88.8163 20.914 88.8121 20.9182 88.8121 21.5916C88.8121 25.2204 88.8121 28.8469 88.8121 32.471V40.2784C88.8121 40.418 88.8121 40.5576 88.8121 40.6971C88.7995 41.2094 88.7988 41.2136 88.2489 41.2212C87.7604 41.2275 87.2719 41.2212 86.7834 41.2212C86.0626 41.2212 85.3417 41.2101 84.6201 41.2254C84.2712 41.2324 84.087 41.134 84.1316 40.753C84.1411 40.5903 84.1411 40.4272 84.1316 40.2645V21.8554C84.1316 21.6691 84.1247 21.4828 84.1316 21.2971C84.1414 21.0452 84.0528 20.9091 83.775 20.9098C82.0828 20.9147 80.3905 20.9098 78.701 20.9098C78.6145 21.2399 78.7987 21.4528 78.8762 21.6851C79.5105 23.5979 79.567 25.5302 78.9641 27.4458C78.1267 30.0976 76.2425 31.6419 73.5991 32.3209C72.7651 32.5368 71.9072 32.6466 71.0457 32.6475C69.0917 32.6475 67.1378 32.6501 65.1838 32.6552C64.5823 32.6552 64.5746 32.6636 64.5739 33.2784C64.5702 35.6511 64.5702 38.0221 64.5739 40.3915C64.5739 40.5541 64.5683 40.7167 64.5739 40.88C64.5816 41.1124 64.4741 41.2184 64.2417 41.2177C62.9168 41.2177 61.5909 41.2177 60.264 41.2177C60.0421 41.2177 59.9116 41.134 59.9151 40.8911C59.9207 40.7048 59.9151 40.5192 59.9151 40.3329C59.9151 33.9169 59.9151 27.5012 59.9151 21.0857C59.9151 20.8142 59.9709 20.5344 59.8607 20.2664C59.6304 20.2329 59.5997 20.4318 59.5229 20.5546C57.3364 24.0662 55.1498 27.5786 52.9632 31.092C52.7662 31.4049 52.6661 31.7692 52.6757 32.1388C52.6848 34.882 52.6806 37.6252 52.6806 40.3678C52.6806 40.5304 52.6729 40.6937 52.6806 40.8563C52.6932 41.1284 52.5585 41.2205 52.2996 41.2191C50.9969 41.2135 49.6943 41.2135 48.3917 41.2191C48.1272 41.2191 48.0155 41.1186 48.0204 40.8486C48.0316 40.2903 48.0204 39.732 48.0204 39.1738V32.1353C48.0204 31.8101 48.0092 31.5073 47.818 31.2037C46.3002 28.8087 44.8006 26.4025 43.2946 23.9999C43.2353 23.9064 43.199 23.7863 42.9771 23.7514C42.8843 24.9741 42.6561 26.166 41.9555 27.2072C41.2437 28.2658 40.2422 28.9518 39.0315 29.4403C39.1536 29.6496 39.3323 29.6838 39.4872 29.7487C41.0294 30.3949 41.9192 31.5547 42.2206 33.1891C42.4488 34.4298 42.43 35.6894 42.5319 36.9393C42.573 37.4278 42.5933 37.9162 42.617 38.4047C42.6624 39.3412 42.8166 40.2519 43.2653 41.0684C43.1432 41.2778 42.9638 41.2233 42.811 41.224C41.5786 41.2282 40.3458 41.2282 39.1124 41.224C38.5367 41.224 38.52 41.2101 38.3141 40.6546C38.1084 40.0854 37.9907 39.4881 37.9652 38.8835C37.9103 37.8134 37.8605 36.7453 37.8159 35.679C37.7919 35.0748 37.7056 34.4747 37.5583 33.8883C37.2715 32.755 36.52 32.1109 35.4188 31.8304C34.8987 31.7043 34.3648 31.6443 33.8298 31.6517C32.0391 31.6517 30.2485 31.6517 28.4564 31.6517C27.8569 31.6517 27.85 31.6608 27.8493 32.2742C27.8465 34.9725 27.8465 37.669 27.8493 40.3636C27.8493 40.5269 27.8409 40.6895 27.8493 40.8521C27.8632 41.1207 27.7355 41.2261 27.4752 41.2254C26.1731 41.2212 24.8709 41.2156 23.5673 41.2254C23.1856 41.2254 23.18 41.0063 23.1807 40.7272C23.1863 39.2861 23.1807 37.8451 23.1807 36.4005V35.6594C23.0258 35.605 22.9748 35.679 22.933 35.7641C21.0886 39.5213 17.9525 41.3468 13.8931 41.7027C11.7912 41.8863 9.70607 41.6895 7.74025 40.8269C4.80792 39.5338 2.76184 37.3524 1.71857 34.3279C0.447102 30.6447 0.447102 26.9015 1.85395 23.2623C3.36757 19.3481 6.30618 17.0584 10.4549 16.376C13.0369 15.9517 15.5561 16.1792 17.9574 17.2769C20.1011 18.2573 21.7487 19.7682 22.7941 21.9036C22.873 22.0648 22.9141 22.2525 23.1109 22.399C23.24 22.2406 23.1926 22.0543 23.1926 21.8889C23.1975 20.4018 23.1926 18.914 23.1968 17.4227C23.1968 16.7605 23.2016 16.7535 23.8248 16.7535C27.314 16.7535 30.8018 16.7535 34.2883 16.7535C35.8938 16.7536 37.488 17.0233 39.0043 17.5511C39.0615 17.5651 39.1487 17.6111 39.1704 17.5895C39.2548 17.5134 39.1976 17.4443 39.1215 17.3941ZM23.1954 28.5784C23.1954 27.6014 23.1814 26.6245 23.2023 25.6475C23.21 25.2804 23.0795 25.159 22.7222 25.1653C21.7452 25.1806 20.7683 25.173 19.7913 25.1688C19.2421 25.1688 19.1528 25.2965 18.9211 24.5442C18.4326 22.9636 17.4668 21.7668 15.9797 20.9936C15.1346 20.5546 14.2351 20.3816 13.3034 20.2901C10.3334 19.9998 7.79468 21.4123 6.62231 24.1632C5.36619 27.1074 5.37038 30.1514 6.34875 33.1653C7.22036 35.8499 9.37599 37.6092 12.4688 37.6915C15.1458 37.7613 18.4521 36.3622 19.1911 32.5275C19.27 32.1165 19.1772 31.9923 19.8813 31.9985C20.7411 32.0055 21.6015 31.9985 22.4633 31.9985C23.2693 31.9985 23.1933 32.0327 23.1954 31.3007C23.1977 30.3926 23.1977 29.4851 23.1954 28.5784ZM112.38 29.1681C112.395 28.2834 112.325 27.3993 112.17 26.5282C111.513 22.9978 108.923 20.0264 104.44 20.3327C101.432 20.5386 99.4004 22.1031 98.3146 24.8589C97.42 27.1297 97.4193 29.4919 97.9224 31.859C98.1403 32.9343 98.5855 33.9508 99.2281 34.8402C100.724 36.8848 102.787 37.7467 105.276 37.665C108.086 37.572 110.127 36.2693 111.401 33.7571C112.157 32.2728 112.38 30.6706 112.381 29.1681H112.38ZM64.5774 24.7103C64.5774 25.801 64.5774 26.8917 64.5774 27.9825C64.5774 28.6761 64.5823 28.6803 65.2564 28.6803C66.7651 28.6838 68.2739 28.6873 69.7826 28.6803C70.2929 28.6857 70.8032 28.6624 71.3109 28.6105C72.657 28.4507 73.7778 27.9008 74.3249 26.5791C74.5809 25.9785 74.7101 25.3314 74.7043 24.6785C74.6986 24.0256 74.558 23.3809 74.2914 22.7849C73.6989 21.4179 72.5161 20.8456 71.1099 20.7982C69.0931 20.7284 67.0729 20.7689 65.054 20.7472C64.6918 20.743 64.5655 20.8728 64.5711 21.2315C64.5879 22.39 64.5781 23.5505 64.5781 24.7103H64.5774ZM27.8528 24.2427C27.8528 25.2895 27.8472 26.3363 27.8528 27.383C27.8576 27.9867 27.8674 27.9929 28.4808 27.9943C30.2471 27.9978 32.014 28.0034 33.7802 27.9943C34.4083 27.9894 35.0363 27.9343 35.6407 27.7494C36.6916 27.4277 37.5248 26.8366 37.9045 25.7584C38.2192 24.8596 38.2353 23.935 38.005 23.0117C37.8291 22.3041 37.4097 21.7647 36.8186 21.3502C36.1313 20.8687 35.3629 20.6405 34.5325 20.6C32.4648 20.4995 30.3957 20.5853 28.328 20.549C27.956 20.5428 27.8451 20.6886 27.85 21.0417C27.8625 22.1045 27.8535 23.1736 27.8535 24.2427H27.8528Z" fill="#F41404"/>
<path d="M121.71 29.0111V17.7877C121.71 17.602 121.724 17.415 121.71 17.2294C121.681 16.8547 121.868 16.7514 122.211 16.7563C125.812 16.8128 129.418 16.6034 133.014 16.8875C135.553 17.0884 137.86 17.9377 139.778 19.6872C141.412 21.1785 142.42 23.0368 142.913 25.1674C143.58 28.0522 143.562 30.9406 142.629 33.7676C141.532 37.0914 139.319 39.3503 135.973 40.4724C134.367 41.0119 132.711 41.2031 131.031 41.2107C128.15 41.2233 125.268 41.2163 122.386 41.2107C121.717 41.2107 121.713 41.2038 121.712 40.5087C121.71 36.6776 121.709 32.845 121.71 29.0111ZM126.372 28.9922C126.372 31.5249 126.372 34.0576 126.372 36.5903C126.372 37.2303 126.379 37.2351 127.03 37.2365C128.356 37.2365 129.681 37.2365 131.007 37.2365C131.682 37.2369 132.355 37.1684 133.015 37.0321C135.693 36.4877 137.375 34.8576 138.119 32.2644C138.687 30.2846 138.705 28.2644 138.259 26.263C137.631 23.4116 135.937 21.54 133.016 20.9594C130.922 20.5407 128.797 20.8198 126.686 20.7591C126.443 20.7528 126.369 20.8987 126.372 21.1178C126.372 21.2804 126.372 21.443 126.372 21.6063V28.9922Z" fill="#F41404"/>
<path d="M152.215 8.80358C152.378 12.8553 148.973 17.1777 143.858 17.1665C142.757 17.1668 141.666 16.9496 140.649 16.5273C139.633 16.105 138.709 15.486 137.932 14.7058C137.155 13.9256 136.54 12.9996 136.122 11.9809C135.704 10.9623 135.491 9.87115 135.496 8.77008C135.51 4.15735 139.295 0.395976 143.926 0.437846C149.011 0.483904 152.371 4.74004 152.215 8.80358Z" fill="#F41404"/>
<path d="M69.0209 46.3604C69.2463 45.7072 69.4619 45.0729 69.6852 44.4406C69.8429 43.9961 70.2191 43.8182 70.6468 43.964C70.7864 44.0108 70.8094 44.1154 70.8101 44.232C70.8101 45.2292 70.8101 46.2271 70.8101 47.2243C70.8101 47.4644 70.6489 47.4623 70.48 47.4665C70.2902 47.4714 70.1744 47.4204 70.1772 47.1964C70.1856 46.5488 70.1772 45.9005 70.1772 45.2494C69.926 45.2494 69.9483 45.4588 69.898 45.5928C69.7068 46.1148 69.5205 46.6395 69.3447 47.1664C69.2749 47.3681 69.1758 47.4686 68.949 47.4721C68.7075 47.4721 68.6336 47.3325 68.568 47.1497C68.3586 46.5446 68.1381 45.9417 67.919 45.329C67.6831 45.3988 67.7417 45.5537 67.7396 45.6674C67.7333 46.1315 67.7396 46.5956 67.7396 47.0631C67.7396 47.2802 67.7578 47.4735 67.4333 47.4776C67.1311 47.4776 67.0983 47.3332 67.1004 47.091C67.1081 46.2097 67.1004 45.3276 67.1081 44.4462C67.1081 44.2634 67.0083 44.0149 67.3356 43.9577C67.8303 43.8733 68.0488 43.9452 68.182 44.3066C68.3837 44.8496 68.5645 45.4002 68.7578 45.9466C68.8094 46.0694 68.7982 46.2236 69.0209 46.3604Z" fill="#0B0B0B"/>
<path d="M61.2407 45.2256C61.0174 45.8509 60.7943 46.4759 60.5715 47.1007C60.5184 47.2514 60.5017 47.4273 60.2923 47.4587C60.0313 47.4985 59.8611 47.4287 59.7697 47.144C59.575 46.5334 59.3454 45.9339 59.1255 45.3177C58.8946 45.3987 58.9476 45.5515 58.9462 45.6666C58.9413 46.1551 58.9371 46.6436 58.9518 47.1321C58.9581 47.3666 58.882 47.4699 58.6391 47.4699C58.4068 47.4699 58.3098 47.3959 58.3126 47.1489C58.323 46.22 58.3126 45.2912 58.3188 44.3624C58.3188 44.1886 58.2665 43.9346 58.5575 43.9667C58.8255 43.9953 59.1856 43.7664 59.3426 44.1858C59.5282 44.6862 59.6915 45.1928 59.8834 45.6918C59.963 45.9011 59.9685 46.1468 60.2058 46.3896C60.4361 45.7308 60.6489 45.1174 60.8646 44.5054C61.0739 43.9227 61.1158 43.9088 61.7104 43.9472C61.9679 43.9632 62.016 44.0867 62.0153 44.2961C62.0153 45.2479 62.0083 46.2005 62.0188 47.1523C62.0188 47.4071 61.9064 47.4622 61.6824 47.4657C61.42 47.4699 61.3824 47.3331 61.3852 47.1168C61.3935 46.4936 61.3852 45.8704 61.3852 45.2465L61.2407 45.2256Z" fill="#0B0B0B"/>
<path d="M84.5713 45.3164C84.5713 45.9138 84.5594 46.5111 84.5769 47.1085C84.5846 47.3814 84.4924 47.4867 84.221 47.4686C84.0284 47.456 83.9244 47.3988 83.9258 47.1832C83.9328 46.2062 83.9258 45.2362 83.9314 44.262C83.9314 44.1503 83.9237 43.9996 84.071 43.9829C84.2915 43.9549 84.5385 43.8691 84.7206 44.0764C84.8211 44.2038 84.9114 44.3389 84.9907 44.4804C85.3559 45.0638 85.7204 45.6477 86.0842 46.232C86.3341 46.1183 86.2315 45.934 86.2343 45.7952C86.244 45.2834 86.2424 44.7733 86.2294 44.2648C86.2231 44.0136 86.3431 43.9515 86.5678 43.9536C86.766 43.9536 86.8756 44.0233 86.8756 44.2285C86.8756 45.225 86.8756 46.2222 86.8756 47.2188C86.8756 47.3583 86.8156 47.456 86.6865 47.456C86.445 47.456 86.1756 47.5572 86.0026 47.2648C85.7186 46.7868 85.4192 46.3178 85.1247 45.8461C85.0068 45.657 84.8839 45.4707 84.7632 45.2829L84.5713 45.3164Z" fill="#0B0B0B"/>
<path d="M49.8009 45.7489C49.7898 44.6225 50.4562 43.9073 51.5204 43.9024C52.5846 43.8975 53.2762 44.6204 53.2727 45.7251C53.2727 46.7914 52.586 47.5311 51.5797 47.557C50.5385 47.5842 49.8114 46.8452 49.8009 45.7489ZM52.5846 45.8228C52.5902 45.1829 52.3592 44.7447 51.9726 44.5667C51.7696 44.4785 51.5441 44.4561 51.3278 44.5025C51.1114 44.5489 50.915 44.6619 50.766 44.8256C50.4122 45.2443 50.4046 46.1557 50.75 46.5884C50.8897 46.7614 51.0828 46.8831 51.2992 46.9345C51.5155 46.9859 51.7428 46.9641 51.9454 46.8724C52.4374 46.6533 52.5574 46.2171 52.5846 45.8228Z" fill="#0B0B0B"/>
<path d="M44.7791 46.1776C44.6675 46.9836 44.2474 47.417 43.4993 47.537C42.7826 47.6514 42.0569 47.3018 41.761 46.6612C41.6182 46.3678 41.5437 46.0459 41.543 45.7196C41.5422 45.3933 41.6153 45.0711 41.7568 44.777C42.0359 44.1748 42.5516 43.8998 43.216 43.8984C43.844 43.8984 44.3542 44.1015 44.6549 44.6807C44.7247 44.8119 44.8643 44.9599 44.7331 45.1238C44.6382 45.2453 44.2446 45.1853 44.1134 45.0359C44.0749 44.9784 44.0402 44.9185 44.0094 44.8566C43.7882 44.5272 43.4616 44.449 43.0952 44.4923C42.5195 44.5621 42.2188 45.0722 42.2711 45.881C42.3144 46.5474 42.6647 46.9585 43.2132 46.9606C43.5844 46.9606 43.9313 46.828 44.0604 46.4721C44.2139 46.0408 44.4895 46.1671 44.7791 46.1776Z" fill="#0B0B0B"/>
<path d="M78.837 45.2881C78.837 45.637 78.8643 45.9859 78.8315 46.3293C78.7617 47.0969 78.2257 47.5421 77.4086 47.5526C76.5711 47.563 75.9863 47.0948 75.9389 46.3041C75.8984 45.6349 75.9305 44.9615 75.9228 44.2902C75.9228 44.0634 75.9975 43.9573 76.2418 43.9496C76.5209 43.9412 76.6025 44.0648 76.5991 44.3223C76.5921 44.9503 76.5802 45.5742 76.6081 46.1981C76.6346 46.7773 77.0596 47.0725 77.606 46.935C77.978 46.8408 78.149 46.6314 78.1643 46.1674C78.1832 45.5428 78.179 44.9168 78.1692 44.2923C78.165 44.0033 78.313 43.9482 78.56 43.9524C78.7693 43.9559 78.8482 44.0515 78.8475 44.2462C78.8475 44.5951 78.8475 44.944 78.8475 45.2888L78.837 45.2881Z" fill="#0B0B0B"/>
<path d="M107.325 45.4469C107.57 45.0386 107.784 44.7344 107.943 44.4036C108.135 44.0023 108.409 43.8572 108.857 43.9975C108.735 44.412 108.483 44.7504 108.251 45.0854C107.832 45.6939 107.532 46.315 107.629 47.0868C107.668 47.4085 107.457 47.5397 107.162 47.4546C107.063 47.4267 106.998 47.3785 106.994 47.2696C106.991 47.2464 106.991 47.2231 106.994 47.1999C107.208 46.1719 106.59 45.4385 106.103 44.6555C105.983 44.4622 105.823 44.2857 105.777 44.0491C106.375 43.9095 106.377 43.9095 106.651 44.3443C106.858 44.6792 107.059 45.0142 107.325 45.4469Z" fill="#0B0B0B"/>
<path d="M99.4662 43.957C99.8367 43.957 100.207 43.957 100.578 43.957C100.777 43.957 100.868 44.0408 100.871 44.2473C100.874 44.4539 100.801 44.5383 100.592 44.5551C100.326 44.5774 99.9798 44.4288 99.813 44.666C99.6462 44.9033 99.7607 45.2501 99.7544 45.5481C99.7446 46.0366 99.7502 46.5202 99.7544 47.0066C99.7544 47.2397 99.7963 47.4637 99.4299 47.4742C99.0112 47.4867 99.0768 47.2173 99.0768 46.9696C99.0768 46.3213 99.0572 45.6723 99.0838 45.0247C99.0984 44.6639 98.9909 44.5041 98.619 44.5509C98.4796 44.5604 98.3397 44.5604 98.2003 44.5509C98.0251 44.5509 97.9644 44.4511 97.9609 44.2871C97.9609 44.1057 97.9875 43.9626 98.2122 43.9626H99.4627L99.4662 43.957Z" fill="#0B0B0B"/>
<path d="M92.0992 45.7378C92.0992 45.2494 92.104 44.7609 92.0992 44.2773C92.0992 44.0442 92.185 43.9465 92.425 43.9493C92.6497 43.9493 92.774 44.0191 92.774 44.2612C92.7705 45.2382 92.7684 46.2082 92.774 47.1817C92.774 47.4608 92.6002 47.4608 92.4069 47.4608C92.2248 47.4608 92.0936 47.4252 92.0978 47.1963C92.1047 46.7113 92.0992 46.2242 92.0992 45.7378Z" fill="#0B0B0B"/>
</g>
<defs>
<clipPath id="clip0_3360_4235">
<rect width="151.44" height="47.1211" fill="white" transform="translate(0.78125 0.4375)"/>
</clipPath>
</defs>
</svg>
