<svg width="107" height="45" viewBox="0 0 107 45" fill="none" xmlns="http://www.w3.org/2000/svg">
<g clip-path="url(#clip0_3360_3923)">
<path d="M16.0744 4.16772V0.638664H19.2489V4.0799H20.8069V0.628906H23.9651V4.70602C27.1201 5.6818 29.8816 7.23978 32.1828 9.52147L26.8014 14.8882C24.0367 12.1349 20.6345 11.1478 16.7607 11.8926C13.9716 12.4309 11.846 14.0377 10.1823 16.2836C7.07772 20.4843 7.72336 26.6236 11.5305 30.3494C15.4108 34.1468 22.4624 34.6526 26.8502 30.1477L32.2072 35.5031C29.9157 37.8011 27.1657 39.3574 23.9863 40.3365V44.3615H20.8264V40.9057L19.2538 40.9821V44.3762H16.1085V40.7983C10.2539 39.777 5.92142 36.5797 2.9014 31.587C0.837636 28.1718 0.307465 24.4037 0.637602 20.4957C1.30113 12.6423 7.89412 5.43948 16.0744 4.16772Z" fill="#0B0B0B"/>
<path d="M97.5284 4.08284C102.542 4.09748 106.449 8.04612 106.437 13.0876C106.426 17.8933 102.407 21.8485 97.5252 21.8598C96.3478 21.8758 95.179 21.6576 94.0866 21.2181C92.9943 20.7785 92.0001 20.1264 91.1619 19.2994C90.3237 18.4724 89.6581 17.4872 89.2038 16.4009C88.7496 15.3146 88.5156 14.1488 88.5156 12.9713C88.5156 11.7939 88.7496 10.6281 89.2038 9.5418C89.6581 8.45548 90.3237 7.47024 91.1619 6.64328C92.0001 5.81633 92.9943 5.16415 94.0866 4.7246C95.179 4.28506 96.3478 4.06692 97.5252 4.08284H97.5284ZM97.5073 18.0299C98.8622 18.036 100.164 17.504 101.127 16.5508C102.09 15.5975 102.635 14.3011 102.643 12.9461C102.643 10.1635 100.28 7.80705 97.5073 7.82494C96.1528 7.84123 94.8595 8.39163 93.9087 9.35644C92.9579 10.3213 92.4265 11.6225 92.43 12.977C92.4304 13.6425 92.5622 14.3014 92.8178 14.9158C93.0734 15.5303 93.4478 16.0882 93.9195 16.5577C94.3912 17.0271 94.951 17.3988 95.5666 17.6514C96.1823 17.9041 96.8418 18.0327 97.5073 18.0299Z" fill="#0B0B0B"/>
<path d="M37.4221 15.3709V21.7134H33.6914V4.17874C33.854 4.16736 34.0167 4.14459 34.1793 4.14621C36.3309 4.17549 38.4955 4.07141 40.6308 4.27144C43.3012 4.52189 45.8919 7.03614 45.7731 10.1733C45.7065 11.8939 45.2592 13.3738 44.0493 14.5642C43.5728 15.0342 42.9304 15.3351 42.3189 15.7433L46.2139 21.7476C44.6819 21.7476 43.2524 21.7638 41.8229 21.7264C41.6505 21.7264 41.4488 21.4516 41.3236 21.2629C40.1023 19.4204 38.8955 17.568 37.6823 15.7189C37.6254 15.6457 37.5701 15.5742 37.4221 15.3709ZM37.4368 12.4582C38.3247 12.4582 39.1574 12.5054 39.9803 12.4468C41.0032 12.3736 41.7204 11.567 41.8505 10.4595C41.9855 9.32108 41.5106 8.35994 40.4877 8.12087C39.5119 7.89319 38.4743 7.89157 37.4368 7.79561V12.4582Z" fill="#0B0B0B"/>
<path d="M33.6992 23.1914H37.3746V30.0218H42.2795V23.2093H46.0509V40.7115H42.3397V33.881H37.4316V40.7115H33.6992V23.1914Z" fill="#0B0B0B"/>
<path d="M68.5706 23.1956H72.2526V29.0503L72.4038 29.0926L75.8418 23.1875H80.1807L75.0075 32.0898L81.0459 40.7482C79.4944 40.7482 78.0796 40.7645 76.6647 40.7271C76.4874 40.7271 76.2793 40.4652 76.1492 40.2815C74.8904 38.4925 73.6447 36.7036 72.303 34.7748V40.7043H68.5625L68.5706 23.1956Z" fill="#0B0B0B"/>
<path d="M62.0781 4.23527C62.1481 4.20274 62.1838 4.17184 62.2196 4.17184C64.5533 4.18973 66.9001 4.05963 69.2127 4.27105C72.1758 4.53451 74.4038 7.25042 74.4477 10.2786C74.4916 13.3067 72.3335 15.9706 69.3737 16.4341C68.4987 16.5723 67.5945 16.5235 66.7033 16.5561C66.4252 16.5658 66.1471 16.5561 65.8267 16.5561V21.7082H62.0781V4.23527ZM65.843 12.7961C66.687 12.7961 67.4953 12.8058 68.3036 12.7961C68.9182 12.7879 69.507 12.548 69.9524 12.1243C70.3977 11.7007 70.6667 11.1246 70.7056 10.5111C70.7772 9.27352 69.829 8.05706 68.5914 7.93996C67.6921 7.8554 66.7765 7.9237 65.8414 7.9237L65.843 12.7961Z" fill="#0B0B0B"/>
<path d="M64.9136 35.5245L67.5043 38.1347C64.8714 41.2018 59.2964 41.9532 55.6161 38.9185C51.5894 35.5944 51.1454 29.7918 54.5851 25.9993C58.2881 21.914 64.242 22.4377 67.4913 25.7667C66.6196 26.6319 65.7496 27.4987 64.8339 28.4094C63.5232 27.1344 61.9066 26.6205 60.0348 27.0124C58.7874 27.2743 57.8197 27.9882 57.0603 28.9916C55.5576 30.979 55.8064 33.7908 57.5856 35.6058C59.1533 37.2028 62.3148 37.9444 64.9136 35.5245Z" fill="#0B0B0B"/>
<path d="M81.8488 35.3338H85.5275C85.5864 35.5823 85.6597 35.8272 85.7471 36.0673C85.8238 36.2616 85.9395 36.4382 86.0869 36.5862C86.2343 36.7343 86.4104 36.8507 86.6043 36.9284C86.7983 37.006 87.0061 37.0432 87.2149 37.0378C87.4238 37.0323 87.6293 36.9843 87.819 36.8967C88.6695 36.5129 89.0875 35.4981 88.6484 34.7126C88.4587 34.4324 88.1881 34.2168 87.8726 34.0946C87.1473 33.7839 86.3569 33.6067 85.6576 33.2521C84.822 32.8468 84.0352 32.3475 83.3125 31.7641C81.7724 30.4631 81.4797 28.7278 82.0424 26.8852C82.6604 24.8637 84.0736 23.5757 86.1601 23.1561C86.9088 23.003 87.6815 23.0109 88.4269 23.1794C89.1723 23.3479 89.8733 23.673 90.4834 24.1333C91.0934 24.5935 91.5985 25.1783 91.9652 25.8487C92.3319 26.5192 92.5517 27.26 92.61 28.022C92.623 28.1846 92.6254 28.3472 92.6254 28.5473H88.8939C88.8517 28.3749 88.811 28.1602 88.746 27.9537C88.6443 27.6314 88.4411 27.3508 88.1667 27.1535C87.8924 26.9562 87.5616 26.853 87.2237 26.8592C86.8855 26.8601 86.5564 26.9694 86.2847 27.1711C86.0131 27.3727 85.8133 27.6561 85.7145 27.9797C85.4852 28.6302 85.6609 29.2986 86.274 29.6873C86.7789 30.0167 87.3259 30.2765 87.9003 30.4598C88.985 30.7851 90.0145 31.2063 90.8813 31.9332C92.8637 33.5872 93.2085 36.1616 91.7578 38.3815C91.1147 39.3676 90.1705 40.1198 89.0655 40.5262C87.9606 40.9326 86.7539 40.9715 85.6251 40.6371C83.5012 40.0013 81.8635 37.8724 81.8293 35.69C81.8277 35.5956 81.8391 35.4932 81.8488 35.3338Z" fill="#0B0B0B"/>
<path d="M46.8945 4.18359H51.1066L53.9966 9.46904L56.8865 4.18847H61.1327C60.8465 4.73491 60.5879 5.24881 60.3196 5.75297C58.921 8.316 57.5126 10.8742 56.1286 13.4437C55.9727 13.7456 55.8891 14.0797 55.8847 14.4195C55.8652 16.8329 55.8749 19.2447 55.8749 21.7085H52.0987V20.9116C52.0987 18.7617 52.1182 16.6101 52.084 14.4601C52.067 14.0214 51.9496 13.5925 51.7409 13.2063C50.2203 10.3651 48.6688 7.54026 47.1287 4.70889C47.0572 4.56902 46.9954 4.41941 46.8945 4.18359Z" fill="#0B0B0B"/>
<path d="M79.7785 7.89187H75.5078V4.19531H87.827V7.87561H83.5433V21.7251H79.7785V7.89187Z" fill="#0B0B0B"/>
<path d="M51.2477 40.7277H47.543V23.1914H51.2428L51.2477 40.7277Z" fill="#0B0B0B"/>
</g>
<defs>
<clipPath id="clip0_3360_3923">
<rect width="105.893" height="43.7407" fill="white" transform="translate(0.554688 0.628906)"/>
</clipPath>
</defs>
</svg>
