<svg width="155" height="28" viewBox="0 0 155 28" fill="none" xmlns="http://www.w3.org/2000/svg">
<g clip-path="url(#clip0_3360_4324)">
<path d="M59.1445 25.2539H60.6274V25.621H59.5115V26.3697H60.6274V26.7369H59.5115V27.4856H60.6274V27.8527H59.1445V25.2539ZM60.6274 25.6357H60.9944V26.3845H60.6274V25.6357ZM60.6274 26.7515H60.9944V27.5004H60.6274V26.7515Z" fill="#FF5A5A"/>
<path d="M62.1054 27.4866H61.7383V26.7379H62.1054V27.4866ZM62.1054 25.6367H63.2212V26.0037H62.1054V25.6367ZM63.2212 26.0037H63.5882V27.8537H62.1054V27.4866H63.2212V26.7379H62.1054V26.3707H63.2212V26.0037Z" fill="#FF5A5A"/>
<path d="M64.3398 25.6367H64.7069V26.7525H65.0739V26.3854H65.441V26.7525V27.1196H64.7069V27.8684H64.3398V25.6367ZM65.4557 26.3707V26.0037H65.8227V26.3707H65.4557ZM65.4557 27.1196H65.8227V27.4866H65.4557V27.1196ZM65.8227 26.0037V25.6367H66.1897V26.0037H65.8227ZM65.8227 27.4866H66.1897V27.8537H65.8227V27.4866Z" fill="#FF5A5A"/>
<path d="M67.3045 26.0037V27.4866H66.9375V26.0037H67.3045ZM67.3045 25.6367H68.4203V26.0037H67.3045V25.6367ZM67.3045 27.4866H68.7873V27.8537H67.3045V27.4866ZM68.4203 26.0037H68.7873V26.3707H68.4203V26.0037Z" fill="#FF5A5A"/>
<path d="M69.5391 25.2539H69.9061V26.3697H70.2731V26.7369H69.9061V27.8527H69.5391V25.2539ZM70.2878 26.3697V26.0027H71.0366V26.3697H70.2878ZM71.0219 26.3697H71.3889V27.8527H71.0219V26.3697Z" fill="#FF5A5A"/>
<path d="M72.5156 27.4866H72.1484V26.0037H72.5156V27.4866ZM72.5156 25.6367H73.6314V26.0037H72.5156V25.6367ZM73.6167 27.4866V27.8537H72.5009V27.4866H73.6167ZM73.6167 26.0037H73.9837V27.4866H73.6167V26.0037Z" fill="#FF5A5A"/>
<path d="M75.117 27.4866H74.75V26.0037H75.117V27.4866ZM75.117 25.6367H76.2328V26.0037H75.117V25.6367ZM76.2328 27.4866V27.8537H75.117V27.4866H76.2328ZM76.2328 26.0037H76.6V27.4866H76.2328V26.0037Z" fill="#FF5A5A"/>
<path d="M77.7137 26.0037V27.8537H77.332V26.0037H77.7137ZM77.7137 25.6367H78.4625V26.0037H77.7137V25.6367ZM78.4479 26.0037H78.8149V27.8537H78.4479V26.0037ZM78.8295 26.0037V25.6367H79.5784V26.0037H78.8295ZM79.5637 26.0037H79.9307V27.8537H79.5637V26.0037Z" fill="#FF5A5A"/>
<path d="M80.6797 26.0027H81.4284V27.4856H81.7955V27.8527H80.6797V27.4856H81.0467V26.3697H80.6797V26.0027ZM81.0467 25.2539H81.4137V25.621H81.0467V25.2539Z" fill="#FF5A5A"/>
<path d="M84.0259 26.0037H84.3929V26.7525H82.9101V27.5012H82.543V26.0184H82.9101V26.3854H84.0259V26.0037ZM82.9101 25.6367H84.0259V26.0037H82.9101V25.6367ZM82.9101 27.4866H84.3929V27.8537H82.9101V27.4866Z" fill="#FF5A5A"/>
<path d="M86.625 25.2539H87.7408V25.621H87.3738V27.4709H87.7408V27.838H86.625V27.4709H86.992V25.621H86.625V25.2539Z" fill="#FF5A5A"/>
<path d="M89.2262 26.0037V26.3707H88.8592V27.8537H88.4922V26.0037H89.2262ZM89.2262 25.6367H89.975V26.0037H89.2262V25.6367ZM89.975 26.0037H90.342V27.8537H89.975V26.0037Z" fill="#FF5A5A"/>
<path d="M91.4568 26.0037V27.4866H91.0898V26.0037H91.4568ZM91.4568 25.6367H92.5727V26.0037H91.4568V25.6367ZM91.4568 27.4866H92.9397V27.8537H91.4568V27.4866ZM92.5727 26.0037H92.9397V26.3707H92.5727V26.0037Z" fill="#FF5A5A"/>
<path d="M93.6875 27.4844H94.0546V27.8514H93.6875V27.4844Z" fill="#FF5A5A"/>
<path d="M13.6413 6.27164H16.7098V12.4087H4.43571V18.5458H1.36719V6.27164H4.43571V9.34016H13.6413V6.27164ZM4.43571 3.20312H13.6413V6.27164H4.43571V3.20312ZM4.43571 18.5311H16.7098V21.5996H4.43571V18.5311Z" fill="#FF5A5A"/>
<path d="M22.8477 3.20312H25.9162V18.5458H22.8477V3.20312ZM25.9162 18.5311H32.0532V21.5996H25.9162V18.5311Z" fill="#FF5A5A"/>
<path d="M38.1905 6.26984H44.3276V18.5439H47.3813V21.6124H38.1758V18.5439H41.2443V9.33836H38.1758V6.26984H38.1905ZM41.259 0.132812H44.3276V3.20133H41.259V0.132812Z" fill="#FF5A5A"/>
<path d="M53.5156 0.132812H68.8582V3.20133H56.5841V6.26984H65.7897V9.33836H53.5156V0.132812ZM56.5841 18.5292H53.5156V15.4607H56.5841V18.5292ZM65.7897 18.5292V21.5977H56.5841V18.5292H65.7897ZM65.7897 9.33836H68.8582V18.5439H65.7897V9.33836Z" fill="#FF5A5A"/>
<path d="M78.0646 18.5292H74.9961V9.32369H78.0646V18.5292ZM87.2702 0.132812H90.3387V21.5977H78.0646V18.5292H87.2702V9.32369H78.0646V6.25517H87.2702V0.132812Z" fill="#FF5A5A"/>
<path d="M108.735 6.27164H111.804V12.4087H99.5295V18.5458H96.4609V6.27164H99.5295V9.34016H108.735V6.27164ZM99.5295 3.20312H108.735V6.27164H99.5295V3.20312ZM99.5295 18.5311H111.804V21.5996H99.5295V18.5311Z" fill="#FF5A5A"/>
<path d="M124.075 3.20133V9.33836H130.212V12.4069H124.075V21.6124H121.006V12.4069H117.938V9.33836H121.006V3.20133H124.075ZM124.075 0.132812H133.28V3.20133H124.075V0.132812Z" fill="#FF5A5A"/>
<path d="M139.406 6.26984H145.543V18.5439H148.612V21.6124H139.406V18.5439H142.475V9.33836H139.406V6.26984ZM142.475 0.132812H145.543V3.20133H142.475V0.132812Z" fill="#FF5A5A"/>
<path d="M18.8717 6.26774H21.9403V12.4048H9.66617V18.5419H6.59766V6.26774H9.66617V9.33625H18.8717V6.26774ZM9.66617 3.19922H18.8717V6.26774H9.66617V3.19922ZM9.66617 18.5271H21.9403V21.5956H9.66617V18.5271Z" fill="#1682FE"/>
<path d="M28.0781 3.19922H31.1466V18.5419H28.0781V3.19922ZM31.1466 18.5271H37.2837V21.5956H31.1466V18.5271Z" fill="#1682FE"/>
<path d="M43.418 6.26593H49.555V18.54H52.6235V21.6085H43.418V18.54H46.4865V9.33446H43.418V6.26593ZM46.4865 0.128906H49.555V3.19743H46.4865V0.128906Z" fill="#1682FE"/>
<path d="M58.7461 0.128906H74.0887V3.19743H61.8146V6.26594H71.0202V9.33446H58.7461V0.128906ZM61.8146 18.5253H58.7461V15.4568H61.8146V18.5253ZM71.0202 18.5253V21.5938H61.8146V18.5253H71.0202ZM71.0202 9.33446H74.0887V18.54H71.0202V9.33446Z" fill="#1682FE"/>
<path d="M83.2951 18.5253H80.2266V9.31977H83.2951V18.5253ZM92.4859 0.128906H95.5545V21.5938H83.2804V18.5253H92.4859V9.31977H83.2804V6.25126H92.4859V0.128906Z" fill="#1682FE"/>
<path d="M113.965 6.26774H117.034V12.4048H104.76V18.5419H101.691V6.26774H104.76V9.33625H113.965V6.26774ZM104.76 3.19922H113.965V6.26774H104.76V3.19922ZM104.76 18.5271H117.034V21.5956H104.76V18.5271Z" fill="#1682FE"/>
<path d="M129.305 3.19743V9.33446H135.442V12.403H129.305V21.6085H126.236V12.403H123.168V9.33446H126.236V3.19743H129.305ZM129.305 0.128906H138.511V3.19743H129.305V0.128906Z" fill="#1682FE"/>
<path d="M144.637 6.26593H150.774V18.54H153.842V21.6085H144.637V18.54H147.705V9.33446H144.637V6.26593ZM147.705 0.128906H150.774V3.19743H147.705V0.128906Z" fill="#1682FE"/>
<path d="M15.8015 6.19742H18.87V12.3345H6.59586V18.4715H3.52734V6.19742H6.59586V9.26594H15.8015V6.19742ZM6.61054 3.12891H15.8161V6.19742H6.61054V3.12891ZM6.61054 18.4715H18.8847V21.5401H6.61054V18.4715Z" fill="#343434" stroke="#555555" stroke-width="0.146819" stroke-miterlimit="10"/>
<path d="M25.0039 3.12891H28.0724V18.4715H25.0039V3.12891ZM28.0724 18.4715H34.2095V21.5401H28.0724V18.4715Z" fill="#343434" stroke="#555555" stroke-width="0.146819" stroke-miterlimit="10"/>
<path d="M40.3477 6.19954H46.4847V18.4736H49.5532V21.5421H40.3477V18.4736H43.4162V9.26805H40.3477V6.19954ZM43.4162 0.0625H46.4847V3.13102H43.4162V0.0625Z" fill="#343434" stroke="#555555" stroke-width="0.146819" stroke-miterlimit="10"/>
<path d="M55.6905 0.0625H71.0184V3.13102H58.7443V6.19954H67.9499V9.26805H55.6758V0.0625H55.6905ZM58.7443 18.4736H55.6758V15.4051H58.7443V18.4736ZM67.9499 18.4736V21.5421H58.7443V18.4736H67.9499ZM67.9499 9.26805H71.0184V18.4736H67.9499V9.26805Z" fill="#343434" stroke="#555555" stroke-width="0.146819" stroke-miterlimit="10"/>
<path d="M80.2248 18.4736H77.1562V9.26805H80.2248V18.4736ZM89.4303 0.0625H92.4988V21.5274H80.2248V18.4589H89.4303V9.25336H80.2248V6.18485H89.4303V0.0625Z" fill="#343434" stroke="#555555" stroke-width="0.146819" stroke-miterlimit="10"/>
<path d="M110.891 6.19742H113.96V12.3345H101.686V18.4715H98.6172V6.19742H101.686V9.26594H110.891V6.19742ZM101.686 3.12891H110.891V6.19742H101.686V3.12891ZM101.686 18.4715H113.96V21.5401H101.686V18.4715Z" fill="#343434" stroke="#555555" stroke-width="0.146819" stroke-miterlimit="10"/>
<path d="M126.235 3.13102V9.26805H132.372V12.3365H126.235V21.5421H123.166V12.3365H120.098V9.26805H123.166V3.13102H126.235ZM126.235 0.0625H135.44V3.13102H126.235V0.0625Z" fill="#343434" stroke="#555555" stroke-width="0.146819" stroke-miterlimit="10"/>
<path d="M141.578 6.19954H147.715V18.4736H150.784V21.5421H141.578V18.4736H144.647V9.26805H141.578V6.19954ZM144.632 0.0625H147.701V3.13102H144.632V0.0625Z" fill="#343434" stroke="#555555" stroke-width="0.146819" stroke-miterlimit="10"/>
<path d="M59.5234 25.2109H61.0063V25.5779H59.8904V26.3268H61.0063V26.6938H59.8904V27.4426H61.0063V27.8096H59.5234V25.2109ZM61.0063 25.5779H61.3733V26.3268H61.0063V25.5779ZM61.0063 26.6938H61.3733V27.4426H61.0063V26.6938Z" fill="#1682FE"/>
<path d="M62.492 27.4428H62.125V26.6939H62.492V27.4428ZM62.492 25.5781H63.6078V25.9451H62.492V25.5781ZM63.6078 25.9451H63.9748V27.7951H62.492V27.428H63.6078V26.6793H62.492V26.3269H63.6078V25.9451Z" fill="#1682FE"/>
<path d="M64.7217 25.5781H65.0888V26.6939H65.4558V26.3269H65.8229V26.6939V27.061H65.0742V27.8098H64.707V25.5781H64.7217ZM65.8375 26.3269V25.9598H66.2047V26.3269H65.8375ZM65.8375 27.061H66.2047V27.428H65.8375V27.061ZM66.2047 25.9451V25.5781H66.5717V25.9451H66.2047ZM66.2047 27.4428H66.5717V27.8098H66.2047V27.4428Z" fill="#1682FE"/>
<path d="M67.6835 25.9451V27.428H67.3164V25.9451H67.6835ZM67.6835 25.5781H68.7994V25.9451H67.6835V25.5781ZM67.6835 27.4428H69.1664V27.8098H67.6835V27.4428ZM68.7994 25.9451H69.1664V26.3121H68.7994V25.9451Z" fill="#1682FE"/>
<path d="M69.918 25.2109H70.285V26.3268H70.6521V26.6938H70.285V27.8096H69.918V25.2109ZM70.6668 26.3268V25.9598H71.4156V26.3268H70.6668ZM71.4008 26.3268H71.7679V27.8096H71.4008V26.3268Z" fill="#1682FE"/>
<path d="M72.8865 27.4428H72.5195V25.9598H72.8865V27.4428ZM72.8865 25.5781H74.0024V25.9451H72.8865V25.5781ZM74.0024 27.4428V27.8098H72.8865V27.4428H74.0024ZM74.0024 25.9451H74.3694V27.428H74.0024V25.9451Z" fill="#1682FE"/>
<path d="M75.4804 27.4428H75.1133V25.9598H75.4804V27.4428ZM75.4804 25.5781H76.5962V25.9451H75.4804V25.5781ZM76.5962 27.4428V27.8098H75.4804V27.4428H76.5962ZM76.5962 25.9451H76.9632V27.428H76.5962V25.9451Z" fill="#1682FE"/>
<path d="M78.0976 25.9451V27.7951H77.7305V25.9451H78.0976ZM78.0976 25.5781H78.8463V25.9451H78.0976V25.5781ZM78.8316 25.9451H79.1986V27.7951H78.8316V25.9451ZM79.1986 25.9451V25.5781H79.9474V25.9451H79.1986ZM79.9474 25.9451H80.3145V27.7951H79.9474V25.9451Z" fill="#1682FE"/>
<path d="M81.0586 25.9451H81.8074V27.4279H82.1744V27.7949H81.0586V27.4279H81.4256V26.3268H81.0586V25.9451ZM81.4256 25.2109H81.7927V25.5779H81.4256V25.2109Z" fill="#1682FE"/>
<path d="M84.4116 25.9451H84.7787V26.6939H83.2957V27.4428H82.9141V25.9598H83.2811V26.3269H84.3969V25.9451H84.4116ZM83.2957 25.5781H84.4116V25.9451H83.2957V25.5781ZM83.2957 27.4428H84.7787V27.8098H83.2957V27.4428Z" fill="#1682FE"/>
<path d="M87.0078 25.2109H88.1236V25.5779H87.7566V27.4279H88.1236V27.7949H87.0078V27.4279H87.3748V25.5779H87.0078V25.2109Z" fill="#1682FE"/>
<path d="M89.6052 25.9451V26.3121H89.2382V27.7951H88.8711V25.9451H89.6052ZM89.6052 25.5781H90.3541V25.9451H89.6052V25.5781ZM90.3393 25.9451H90.7064V27.7951H90.3393V25.9451Z" fill="#1682FE"/>
<path d="M91.8359 25.9451V27.428H91.4688V25.9451H91.8359ZM91.8359 25.5781H92.9517V25.9451H91.8359V25.5781ZM91.8359 27.4428H93.3187V27.8098H91.8359V27.4428ZM92.9517 25.9451H93.3187V26.3121H92.9517V25.9451Z" fill="#1682FE"/>
<path d="M94.0547 27.4375H94.4217V27.8046H94.0547V27.4375Z" fill="#1682FE"/>
<path d="M58.832 25.3008H60.315V25.6678H59.1992V26.4166H60.315V26.7836H59.1992V27.5324H60.315V27.8994H58.832V25.3008ZM60.315 25.6826H60.682V26.4313H60.315V25.6826ZM60.315 26.7836H60.682V27.5324H60.315V26.7836Z" fill="#555555"/>
<path d="M61.8007 27.5297H61.4336V26.7808H61.8007V27.5297ZM61.8007 25.6797H62.9165V26.0467H61.8007V25.6797ZM62.9165 26.0467H63.2836V27.8967H61.8007V27.5297H62.9165V26.7808H61.8007V26.4138H62.9165V26.0467Z" fill="#555555"/>
<path d="M64.0342 25.6797H64.4012V26.7955H64.7683V26.4285H65.1354V26.7955V27.1625H64.3865V27.9113H64.0195V25.6797H64.0342ZM65.15 26.4138V26.0467H65.517V26.4138H65.15ZM65.15 27.1625H65.517V27.5297H65.15V27.1625ZM65.517 26.0467V25.6797H65.8842V26.0467H65.517ZM65.517 27.5297H65.8842V27.8967H65.517V27.5297Z" fill="#555555"/>
<path d="M67.0115 26.0467V27.5297H66.6445V26.0467H67.0115ZM67.0115 25.6797H68.1274V26.0467H67.0115V25.6797ZM67.0115 27.5297H68.4944V27.8967H67.0115V27.5297ZM68.1127 26.0467H68.4797V26.4138H68.1127V26.0467Z" fill="#555555"/>
<path d="M69.2305 25.3008H69.5976V26.4166H69.9646V26.7836H69.5976V27.8994H69.2305V25.3008ZM69.9793 26.4166V26.0496H70.7281V26.4166H69.9793ZM70.7281 26.4166H71.0951V27.8994H70.7281V26.4166Z" fill="#555555"/>
<path d="M72.2069 27.5297H71.8398V26.0467H72.2069V27.5297ZM72.2069 25.6797H73.3227V26.0467H72.2069V25.6797ZM73.3227 27.5297V27.8967H72.2069V27.5297H73.3227ZM73.3227 26.0467H73.6897V27.5297H73.3227V26.0467Z" fill="#555555"/>
<path d="M74.8046 27.5297H74.4375V26.0467H74.8046V27.5297ZM74.8046 25.6797H75.9205V26.0467H74.8046V25.6797ZM75.9205 27.5297V27.8967H74.8046V27.5297H75.9205ZM75.9205 26.0467H76.2875V27.5297H75.9205V26.0467Z" fill="#555555"/>
<path d="M77.4061 26.0467V27.8967H77.0391V26.0467H77.4061ZM77.4061 25.6797H78.1549V26.0467H77.4061V25.6797ZM78.1549 26.0467H78.5219V27.8967H78.1549V26.0467ZM78.5219 26.0467V25.6797H79.2707V26.0467H78.5219ZM79.256 26.0467H79.6231V27.8967H79.256V26.0467Z" fill="#555555"/>
<path d="M80.375 26.0496H81.1238V27.5324H81.4908V27.8994H80.375V27.5324H80.7421V26.4166H80.375V26.0496ZM80.7568 25.3008H81.1238V25.6678H80.7568V25.3008Z" fill="#555555"/>
<path d="M83.7173 26.0467H84.0843V26.7955H82.6015V27.5443H82.2344V26.0615H82.6015V26.4285H83.7173V26.0467ZM82.6015 25.6797H83.7173V26.0467H82.6015V25.6797ZM82.6015 27.5297H84.0843V27.8967H82.6015V27.5297Z" fill="#555555"/>
<path d="M86.3203 25.3008H87.4361V25.6678H87.069V27.5178H87.4361V27.8848H86.3203V27.5178H86.6873V25.6678H86.3203V25.3008Z" fill="#555555"/>
<path d="M88.9138 26.0467V26.4138H88.5467V27.8967H88.1797V26.0467H88.9138ZM88.9138 25.6797H89.6625V26.0467H88.9138V25.6797ZM89.6625 26.0467H90.0295V27.8967H89.6625V26.0467Z" fill="#555555"/>
<path d="M91.1483 26.0467V27.5297H90.7812V26.0467H91.1483ZM91.1483 25.6797H92.2641V26.0467H91.1483V25.6797ZM91.1483 27.5297H92.6311V27.8967H91.1483V27.5297ZM92.2641 26.0467H92.6311V26.4138H92.2641V26.0467Z" fill="#555555"/>
<path d="M93.3789 27.5273H93.746V27.8945H93.3789V27.5273Z" fill="#555555"/>
</g>
<defs>
<clipPath id="clip0_3360_4324">
<rect width="154.032" height="27.8956" fill="white" transform="translate(0.484375 0.0507812)"/>
</clipPath>
</defs>
</svg>
