<svg width="149" height="32" viewBox="0 0 149 32" fill="none" xmlns="http://www.w3.org/2000/svg">
<g clip-path="url(#clip0_3357_5253)">
<path d="M4.55603 26.6074C3.94823 25.8214 3.29368 25.0616 2.74432 24.2347C1.76007 22.7392 1.06616 21.0718 0.698844 19.3197C0.338364 17.6521 0.271124 15.9346 0.500141 14.244C0.859485 11.3051 2.03245 8.52498 3.88687 6.21691C5.42189 4.29067 7.40535 2.76972 9.66388 1.78699C12.3637 0.614359 15.3422 0.237226 18.249 0.699965C19.8533 0.936656 21.4634 1.299 22.6731 2.60226C25.3907 5.52437 24.0378 10.1822 20.4202 11.1962C19.8169 11.3508 19.1987 11.44 18.5763 11.4621C17.0744 11.5381 15.5549 11.4446 14.0733 11.6462C12.2646 11.8917 10.9058 12.9758 9.98239 14.5391C8.78725 16.5466 7.6447 18.5862 6.45833 20.6054C5.38591 22.4259 4.55019 24.3136 4.79272 26.5168L4.55603 26.6074Z" fill="#0B0B0B"/>
<path d="M27.1047 5.29297C27.7125 6.10532 28.3817 6.87967 28.9223 7.73293C31.006 10.9641 31.7667 14.8732 31.0466 18.6499C30.0823 24.1347 26.8651 27.8809 21.8858 30.1806C19.3139 31.3447 16.4572 31.7297 13.6688 31.2881C12.4006 31.1098 11.0769 30.9111 9.9782 30.1514C8.24831 28.9592 7.37168 27.2643 7.60837 25.1838C7.85091 23.0273 9.03728 21.4785 11.1675 20.8006C11.6938 20.6389 12.239 20.5465 12.7893 20.5259C14.2182 20.4616 15.6588 20.5259 17.0819 20.4003C19.0893 20.2454 20.6293 19.2022 21.655 17.5103C23.1452 15.0557 24.578 12.5671 25.9534 10.0443C26.567 8.91639 27.0287 7.84689 26.9265 5.41862L27.1047 5.29297Z" fill="#0B0B0B"/>
<path d="M61.6403 26.7047C61.3685 25.9011 61.0997 25.1034 60.8017 24.2268H54.9282C54.7354 24.8112 54.4928 25.4599 54.3029 26.1261C54.1743 26.5878 53.961 26.8011 53.4438 26.7807C52.3275 26.7427 51.2084 26.7807 50.0892 26.7807C49.9051 26.7807 49.7181 26.7485 49.4609 26.7222L55.2876 10.7383H60.4656C62.3854 16.0244 64.3111 21.3251 66.2689 26.7076L61.6403 26.7047ZM59.6708 20.7728C59.0864 18.9932 58.5253 17.3072 57.9701 15.6211L57.7627 15.6445C57.2075 17.3306 56.6552 19.0195 56.0795 20.7728H59.6708Z" fill="#0B0B0B"/>
<path d="M74.1176 22.1744C75.3128 18.3757 76.505 14.577 77.706 10.7344H82.3813C82.1125 11.5584 81.8671 12.3474 81.5982 13.1276C80.9495 14.9919 80.2891 16.8533 79.6346 18.7147C79.0238 20.4679 78.4043 22.2007 77.7995 23.9482C77.5482 24.6787 77.3349 25.4092 77.0982 26.1573C76.993 26.4875 76.879 26.7797 76.429 26.7738C74.705 26.7738 72.9809 26.7738 71.1692 26.7738L65.6172 10.7665H70.3276C71.5218 14.5555 72.7218 18.3543 73.9277 22.1628L74.1176 22.1744Z" fill="#0B0B0B"/>
<path d="M43.1332 14.1075C43.1332 14.9841 43.1332 15.738 43.1332 16.4832C43.1332 16.6731 43.1683 16.863 43.1946 17.1202H47.8992V20.4046H43.1449V26.7281H38.7617V10.7383H49.6174V14.0987L43.1332 14.1075Z" fill="#0B0B0B"/>
<path d="M90.5146 10.6977C95.1316 10.5692 98.6001 14.2452 98.5388 18.8797C98.4774 23.5141 95.1783 26.9242 90.4854 26.9447C86.0117 26.9622 82.4613 23.4382 82.4964 18.681C82.5285 14.2423 86.0643 10.5166 90.5146 10.6977ZM84.5594 18.754L84.4074 18.7891C84.6353 19.7943 84.6996 20.8755 85.1204 21.793C86.5552 24.9314 89.974 26.0213 92.9546 24.7151C94.9825 23.8385 96.0783 22.1904 96.3764 20.0397C96.6744 17.8891 96.3501 15.8144 94.7634 14.1049C92.6916 11.9046 88.7088 11.7585 86.5113 13.8653C85.8524 14.491 85.3367 15.2519 84.9997 16.0958C84.6628 16.9397 84.5126 17.8465 84.5594 18.754Z" fill="#0B0B0B"/>
<path d="M121.481 20.1738L125.417 26.7573C124.643 26.7573 123.921 26.7953 123.211 26.731C123.021 26.7134 122.817 26.4125 122.691 26.1992C121.604 24.367 120.534 22.5261 119.453 20.691C119.36 20.5332 119.225 20.2994 119.091 20.2848C118.264 20.1971 117.425 20.0949 116.563 20.3403V26.7105H114.605V11.6324C114.605 10.8581 114.605 10.8522 115.362 10.8581C117.186 10.8581 119.012 10.8347 120.832 10.9282C121.522 10.9434 122.199 11.1146 122.813 11.4289C123.427 11.7432 123.962 12.1924 124.377 12.7428C126.037 14.9227 125.444 18.9582 121.998 19.9458C121.822 20.0112 121.649 20.0873 121.481 20.1738ZM116.572 12.6522C116.572 14.4055 116.59 16.1938 116.572 17.9646C116.572 18.5169 116.777 18.701 117.291 18.6893C118.141 18.6893 118.997 18.7507 119.839 18.6659C120.53 18.6145 121.206 18.4382 121.835 18.1458C123.018 17.538 123.24 16.4101 123.161 15.1769C123.08 13.8591 122.521 12.9123 121.265 12.7078C119.821 12.4711 118.328 12.5441 116.855 12.4944C116.765 12.4886 116.68 12.588 116.572 12.6522Z" fill="#0B0B0B"/>
<path d="M137.592 14.6397H135.692C135.213 14.0553 134.839 13.4708 134.333 13.015C133.097 11.9192 130.707 12.1384 129.658 13.3656C128.554 14.6484 129.17 16.6589 130.871 17.2462C132.148 17.6845 133.442 18.0702 134.725 18.4881C135.751 18.8212 136.665 19.3326 137.253 20.2764C137.752 21.1426 137.933 22.1562 137.763 23.1415C137.593 24.1267 137.084 25.0215 136.323 25.6707C134.57 27.0733 132.577 27.2223 130.479 26.6554C128.974 26.2492 127.849 25.3872 127.265 23.8999C127.14 23.4878 127.043 23.0681 126.973 22.6433H128.977C129.269 23.203 129.591 23.7463 129.942 24.271C130.153 24.5513 130.423 24.7819 130.733 24.9465C131.043 25.1111 131.385 25.2057 131.736 25.2236C132.612 25.2937 133.469 25.3434 134.29 24.9314C135.382 24.3674 135.797 23.5638 135.751 22.2576C135.701 21.1268 134.725 20.3904 133.869 20.104C132.522 19.654 131.154 19.2595 129.804 18.8212C128.223 18.3069 127.294 17.1936 127.133 15.5572C127.025 14.7859 127.142 13.9998 127.469 13.293C127.796 12.5861 128.319 11.9884 128.977 11.5715C130.187 10.7474 131.543 10.6715 132.945 10.6948C134.216 10.6984 135.439 11.178 136.373 12.039C136.742 12.3674 137.04 12.7673 137.249 13.2143C137.459 13.6614 137.575 14.1463 137.592 14.6397Z" fill="#0B0B0B"/>
<path d="M100.289 10.9062H102.218V11.742C102.218 14.8803 102.218 18.0196 102.218 21.1599C102.218 22.358 102.455 23.4538 103.431 24.2895C104.637 25.321 106.06 25.4584 107.463 25.0697C109.395 24.5437 110.143 23.1967 110.149 21.344C110.163 18.1297 110.149 14.9154 110.149 11.7011V10.9238H112.092C112.121 11.0821 112.141 11.2422 112.15 11.403C112.15 14.6641 112.171 17.9252 112.15 21.1862C112.136 23.4567 111.274 25.3006 109.149 26.3087C106.592 27.5243 103.065 27.0626 101.382 24.8769C100.615 23.8699 100.203 22.6364 100.213 21.3703C100.178 17.9894 100.196 14.6056 100.196 11.2248C100.215 11.1153 100.246 11.0085 100.289 10.9062Z" fill="#0B0B0B"/>
<path d="M139.891 10.7852H147.602C148.376 10.7852 148.382 10.7852 148.385 11.5507V12.3456C148.12 12.3895 147.853 12.4197 147.585 12.4361C145.931 12.4361 144.277 12.4361 142.617 12.4361C141.828 12.4361 141.825 12.4361 141.822 13.1871C141.822 14.5255 141.822 15.8638 141.822 17.205C141.822 17.395 141.848 17.582 141.869 17.8625H147.625V19.5456H141.875V25.1853H148.341V26.6961H139.891V10.7852Z" fill="#0B0B0B"/>
<path d="M20.3042 14.3802C19.7753 15.1926 19.3691 15.9318 18.8431 16.5806C18.5902 16.9039 18.2669 17.1653 17.8978 17.3451C17.5287 17.5248 17.1235 17.6181 16.7129 17.6179C14.9918 17.6384 13.2736 17.6179 11.4531 17.6179C12.1164 16.3176 12.6658 15.0377 14.083 14.4737C14.2163 14.4167 14.359 14.385 14.5038 14.3802C16.3769 14.3773 18.2412 14.3802 20.3042 14.3802Z" fill="#0B0B0B"/>
</g>
<defs>
<clipPath id="clip0_3357_5253">
<rect width="148.882" height="31.5588" fill="white" transform="translate(0.0585938 0.21875)"/>
</clipPath>
</defs>
</svg>
