<svg width="113" height="37" viewBox="0 0 113 37" fill="none" xmlns="http://www.w3.org/2000/svg">
<path d="M5.41805 16.0947C5.45732 16.1584 5.51679 16.2052 5.58571 16.2265C5.58542 16.2345 5.58692 16.2425 5.5901 16.2498C5.59328 16.2571 5.59803 16.2634 5.60398 16.2684C5.60993 16.2734 5.61689 16.2768 5.62432 16.2783C5.63174 16.2799 5.6394 16.2795 5.64667 16.2773C7.02061 17.3087 8.50994 17.6162 10.1212 17.0335C10.8609 16.7797 11.5414 16.3619 12.1176 15.8078C12.6938 15.2537 13.1526 14.5759 13.4635 13.8192C13.4799 13.7709 13.493 13.7215 13.5027 13.6712C13.6407 13.4318 13.7256 13.1621 13.7509 12.8827H10.2671C9.97533 12.8827 9.68356 12.8827 9.39614 12.8665C9.03687 12.8549 8.96066 12.7 9.1588 12.3832C9.61606 11.664 10.0798 10.9495 10.5393 10.2327C10.6422 10.0636 10.785 9.92601 10.9534 9.83353C11.1218 9.74106 11.3101 9.6969 11.4995 9.70543C13.2066 9.70543 14.9158 9.70543 16.6251 9.70543C16.919 9.70543 16.9234 9.70543 16.9756 10.0107C17.0061 10.1864 17.0148 10.3691 17.0344 10.5471C17.0441 10.9328 17.0354 11.3187 17.0083 11.7034C16.9997 12.3629 16.9127 13.0187 16.7492 13.655C15.4253 18.7724 10.4914 21.3716 5.95151 19.9101C5.47248 19.7552 5.03047 19.5101 4.56669 19.3182C4.54056 19.2511 4.48612 19.2372 4.42516 19.2303C3.82441 18.8353 3.26079 18.38 2.74203 17.8706C1.49217 16.5792 0.654583 14.9044 0.346903 13.0816C-0.0687163 11.028 0.19988 8.88496 1.10681 7.01839C2.40018 4.38223 4.45782 2.79591 7.20351 2.35655C9.84468 1.93337 12.2333 2.64097 14.2561 4.55797C14.2931 4.59266 14.3345 4.62041 14.3715 4.65278C14.3714 4.66069 14.373 4.66852 14.376 4.67575C14.379 4.68298 14.3834 4.68944 14.389 4.6947C14.3946 4.69995 14.4011 4.70388 14.4083 4.70623C14.4154 4.70857 14.4229 4.70927 14.4303 4.70828L14.4455 4.72678C14.4449 4.73495 14.4459 4.74317 14.4485 4.75089C14.4511 4.75861 14.4552 4.76565 14.4606 4.77156C14.4659 4.77746 14.4724 4.78209 14.4796 4.78513C14.4867 4.78818 14.4944 4.78957 14.5021 4.78921L14.5631 4.89096C14.5452 5.04523 14.4802 5.18902 14.378 5.30026C13.9425 5.89841 13.5071 6.49964 13.0716 7.10395C13.0036 7.2104 12.9144 7.29963 12.8103 7.36525C12.6669 7.34042 12.5381 7.25754 12.451 7.13401C12.3504 6.98972 12.2274 6.86461 12.0874 6.76402C12.0872 6.75458 12.0851 6.74529 12.0812 6.73676C12.0774 6.72824 12.0719 6.72067 12.0651 6.71456C12.0583 6.70844 12.0504 6.70392 12.0419 6.70129C12.0333 6.69866 12.0244 6.69797 12.0155 6.69928C12.0157 6.69031 12.014 6.68141 12.0105 6.67325C12.007 6.66508 12.0018 6.65785 11.9953 6.65209C11.9888 6.64632 11.9812 6.64217 11.9731 6.63993C11.9649 6.63769 11.9563 6.63743 11.948 6.63915L11.9306 6.62528C11.9306 6.58828 11.9154 6.57209 11.8805 6.57672L11.8196 6.53278C11.7816 6.48398 11.7401 6.43837 11.6955 6.39635C10.8002 5.66318 9.70146 5.26554 8.57091 5.26554C7.44036 5.26554 6.34164 5.66318 5.44635 6.39635C4.80625 6.91476 4.27506 7.56933 3.88675 8.31821C3.49845 9.06709 3.26157 9.89379 3.19128 10.7454C3.12099 11.5971 3.21882 12.4549 3.47852 13.2641C3.73823 14.0733 4.15409 14.8161 4.69951 15.4449C4.90118 15.7046 5.14442 15.9246 5.41805 16.0947Z" fill="#0B0B0B"/>
<path d="M16.6298 19.9596C16.4687 19.8093 16.5318 19.6729 16.6298 19.5226C17.0261 18.9815 17.418 18.4358 17.81 17.9039L28.3398 3.33563C28.4269 3.21307 28.514 3.08589 28.612 2.97258C28.6887 2.86696 28.7865 2.78068 28.8983 2.71991C29.0101 2.65914 29.1332 2.62539 29.2587 2.62109C30.0266 2.62109 30.7952 2.62109 31.5645 2.62109C31.8171 2.62109 31.8563 2.68122 31.8694 2.94715C31.8694 3.10208 31.8824 3.25701 31.8868 3.40963C31.8912 3.56225 31.8694 3.71718 31.8694 3.87211V19.3908C31.8694 19.9504 31.8563 19.9643 31.3425 19.9643H29.1542C28.8639 19.8627 28.6139 19.6608 28.4443 19.3908C27.5081 18.0727 26.5689 16.7569 25.6268 15.4435C25.5528 15.3417 25.4722 15.2446 25.396 15.1429L24.5838 13.9867C24.4725 14.0714 24.3785 14.1792 24.3073 14.3035C23.0618 16.01 21.812 17.7143 20.5796 19.4347C20.4632 19.6154 20.3042 19.7607 20.1186 19.856C19.933 19.9513 19.7271 19.9934 19.5214 19.9781C18.559 19.9481 17.5944 19.962 16.6298 19.9596ZM28.9059 10.3284V8.05991C28.8708 8.07021 28.8379 8.08804 28.8095 8.11229C28.781 8.13655 28.7575 8.16673 28.7405 8.20097C28.0524 9.13673 27.3651 10.0756 26.6785 11.0175C26.4847 11.2834 26.4607 11.2117 26.6894 11.5309C27.3469 12.445 28.0067 13.3569 28.6686 14.2665C28.7318 14.352 28.7731 14.4676 28.9059 14.4977V13.8965C28.9263 12.7079 28.927 11.5185 28.9081 10.3284H28.9059Z" fill="#0B0B0B"/>
<path d="M57.054 19.9643C56.7667 19.8589 56.5192 19.6578 56.3485 19.3908C55.4231 18.0843 54.4868 16.7824 53.5549 15.4805C53.4743 15.3672 53.3872 15.2493 53.3045 15.1498L52.4749 13.9612C52.3682 14.1023 52.2898 14.1925 52.2158 14.3035C50.9638 16.0239 49.7074 17.7397 48.462 19.4671C48.3562 19.6327 48.2122 19.7667 48.0436 19.8562C47.8751 19.9457 47.6878 19.9877 47.4996 19.9782C46.511 19.9597 45.5225 19.9666 44.5361 19.9643C44.5089 19.9432 44.4864 19.916 44.4701 19.8847C44.4538 19.8534 44.4442 19.8186 44.4419 19.7829C44.4397 19.7472 44.4448 19.7114 44.4569 19.678C44.469 19.6446 44.4879 19.6145 44.5122 19.5897C44.5666 19.5203 44.6167 19.4463 44.669 19.3746L56.3049 3.26397C56.3724 3.17148 56.4378 3.07667 56.5096 2.9888C56.5981 2.87299 56.71 2.77981 56.8371 2.71616C56.9641 2.65251 57.1029 2.62003 57.2434 2.62112C57.975 2.62112 58.7066 2.62112 59.4382 2.62112C59.7343 2.62112 59.7713 2.67431 59.7844 2.98417C59.7749 3.1265 59.7829 3.26955 59.8084 3.40966C59.7798 3.53522 59.7717 3.66505 59.7844 3.79352V13.3438C59.7844 15.3911 59.7844 17.436 59.7844 19.4787C59.7844 19.925 59.743 19.9689 59.325 19.9689L57.054 19.9643ZM56.8144 10.3284V8.05994C56.7197 8.11412 56.6401 8.19389 56.5836 8.29118C55.9174 9.19611 55.2533 10.1026 54.5913 11.0106C54.3736 11.3158 54.3997 11.2418 54.5913 11.524C55.2533 12.4489 55.9195 13.3739 56.5902 14.2989C56.6468 14.3752 56.6794 14.4839 56.8079 14.5116V13.8965C56.8311 12.7079 56.8333 11.5186 56.8144 10.3284Z" fill="#0B0B0B"/>
<path d="M67.1618 9.69783L70.1971 9.7117H72.5377C72.9079 9.7117 72.8752 9.73483 72.8752 9.3579V3.22767C72.8752 3.12592 72.8752 3.02186 72.8752 2.9178C72.8948 2.68656 72.9558 2.6195 73.1757 2.61719C73.9683 2.61719 74.7609 2.61719 75.5534 2.61719C75.793 2.61719 75.8626 2.71431 75.8757 2.98486C75.8757 3.12592 75.8866 3.26698 75.8909 3.40804C75.8953 3.54909 75.8757 3.7179 75.8757 3.87052V19.2805C75.8757 19.3984 75.8757 19.5118 75.8757 19.6297C75.8777 19.6753 75.8705 19.7208 75.8547 19.7632C75.8388 19.8056 75.8146 19.844 75.7837 19.8757C75.7528 19.9074 75.7159 19.9318 75.6755 19.9472C75.635 19.9626 75.5919 19.9686 75.5491 19.965C75.4642 19.965 75.3771 19.965 75.2921 19.965H73.0973C72.8796 19.8771 72.8796 19.6875 72.8796 19.484C72.8796 18.2168 72.8796 16.9403 72.8796 15.6801C72.8796 15.0071 72.8796 14.3342 72.8644 13.6613C72.8644 13.5341 72.8818 13.4046 72.8818 13.2751C72.8818 12.8312 72.9297 12.8635 72.4855 12.8635H66.563C66.0774 12.8635 66.1449 12.8242 66.1449 13.326C66.1449 15.3687 66.1449 17.4113 66.1449 19.4539C66.1449 19.9303 66.1232 19.9534 65.6659 19.9534H63.3644C63.3087 19.9258 63.2622 19.881 63.2307 19.8249C63.1993 19.7689 63.1844 19.7041 63.188 19.6389C63.188 19.5349 63.188 19.4331 63.188 19.3291V3.20454C63.188 2.61719 63.188 2.61719 63.7258 2.61719H65.7378C66.1275 2.61719 66.1406 2.64031 66.1471 3.06349C66.1471 3.17911 66.158 3.29473 66.1623 3.41035C66.1667 3.52597 66.1471 3.66934 66.1471 3.79884C66.1471 5.62411 66.1471 7.44861 66.1471 9.27234C66.1504 9.33704 66.1504 9.40188 66.1471 9.46659C66.1297 9.64233 66.1863 9.72789 66.3648 9.71633C66.6261 9.69783 66.894 9.70245 67.1618 9.69783Z" fill="#0B0B0B"/>
<path d="M66.2063 35.5892L65.932 35.3996C63.9549 34.0375 62.9359 32.0905 62.8292 29.6185C62.756 28.5414 62.9244 27.4612 63.3208 26.4667C63.7171 25.4721 64.3299 24.5917 65.1089 23.8976C65.7445 23.3082 66.4856 22.861 67.2877 22.5829C68.0899 22.3048 68.9366 22.2014 69.7772 22.2789C71.4638 22.3773 73.0502 23.1605 74.2082 24.4664C74.2431 24.5034 74.2823 24.5335 74.3193 24.5659C74.3567 24.6609 74.4132 24.7461 74.4847 24.8156C75.1012 25.5892 75.5499 26.4973 75.799 27.4755C76.0481 28.4538 76.0915 29.4783 75.9262 30.4764C75.7836 31.4349 75.4563 32.3518 74.9648 33.1699C74.4734 33.988 73.8283 34.6896 73.0699 35.2309C72.3116 35.7721 71.4562 36.1414 70.5573 36.3157C69.6585 36.4899 68.7354 36.4654 67.8459 36.2436C67.366 36.104 66.8942 35.9349 66.4328 35.7372C66.4328 35.6909 66.3979 35.677 66.3544 35.6886C66.3027 35.6673 66.2537 35.6394 66.2085 35.6054L66.2063 35.5892ZM71.9372 25.6203C71.4342 25.1452 70.8213 24.8207 70.1612 24.6801C69.5012 24.5395 68.8178 24.5878 68.1812 24.8202C65.4399 25.7452 64.1704 29.4844 66.0365 32.1575C66.2718 32.5354 66.5797 32.8562 66.9401 33.0987C66.9457 33.1171 66.9563 33.1334 66.9707 33.1453C66.9851 33.1573 67.0025 33.1644 67.0207 33.1658C67.0207 33.175 67.0227 33.1842 67.0266 33.1925C67.0305 33.2008 67.0361 33.208 67.0431 33.2136C67.05 33.2192 67.0581 33.223 67.0667 33.2247C67.0753 33.2265 67.0841 33.2261 67.0925 33.2236C67.5878 33.6277 68.1706 33.8934 68.7876 33.9964C69.4046 34.0995 70.0361 34.0365 70.6242 33.8132C71.6915 33.427 72.5807 32.6247 73.1123 31.5687C73.6438 30.5127 73.7779 29.2817 73.4875 28.1247C73.2731 27.1182 72.7223 26.2284 71.9372 25.6203Z" fill="#0B0B0B"/>
<path d="M22.4895 36.1113C22.3406 36.0799 22.199 36.0171 22.0734 35.9265C21.9477 35.836 21.8404 35.7195 21.7579 35.5841C20.5168 33.8544 19.2706 32.1293 18.0194 30.4089C17.7842 30.0828 17.7842 30.0828 18.0194 29.7568C18.9295 28.4911 19.8404 27.2278 20.752 25.9667C20.826 25.865 20.8913 25.7563 20.9697 25.6499C21.1624 25.4276 21.3372 25.1886 21.4923 24.9354H21.2223C19.672 24.9354 18.1217 24.9354 16.5736 24.9354C16.0641 24.9354 16.1228 24.866 16.1228 25.3979C16.1228 28.8048 16.1228 32.2095 16.1228 35.6118C16.1228 36.0466 16.0945 36.0743 15.6874 36.0743L14.5181 36.0951C14.3722 36.0951 14.2263 36.0836 14.0826 36.072C13.8366 36.0535 13.7865 36.0003 13.7734 35.746C13.7734 35.6673 13.7734 35.591 13.7734 35.5147V22.9097C13.7734 22.5097 13.8083 22.4727 14.2089 22.4727C16.3326 22.4727 18.4556 22.4727 20.5778 22.4727C21.5162 22.4727 22.4547 22.4727 23.3953 22.4727C23.9114 22.4727 23.9266 22.5952 23.9005 22.9906C23.8973 23.016 23.8973 23.0416 23.9005 23.0669C23.9005 23.83 23.8809 24.5931 23.9005 25.3539C23.908 25.6648 23.809 25.968 23.6218 26.2072C22.7508 27.3935 21.906 28.5913 21.0481 29.7822C20.8304 30.0759 20.8304 30.0782 21.0481 30.365C22.3139 32.1224 23.5797 33.8783 24.8455 35.6327C24.9151 35.7321 25.0393 35.8246 24.9805 35.9703C24.9217 36.116 24.7627 36.0905 24.6277 36.0928H22.8728C22.7269 36.0905 22.6115 36.1044 22.4895 36.1113Z" fill="#0B0B0B"/>
<path d="M41.1633 36.1113C41.0195 36.0851 40.8733 36.0774 40.7278 36.0882C40.4034 36.0743 40.362 36.0258 40.3555 35.6697V23.0207C40.3555 22.956 40.3555 22.8912 40.3555 22.8265C40.3685 22.5467 40.4164 22.4912 40.6799 22.4727C40.7518 22.4727 40.8258 22.4727 40.8976 22.4727H49.9665C50.4499 22.4727 50.452 22.4727 50.4694 22.986C50.4694 23.0115 50.4694 23.0369 50.4825 23.0623C50.4825 23.8624 50.4673 24.6625 50.4694 25.4649C50.4741 25.698 50.4017 25.9255 50.2648 26.1078C49.404 27.2964 48.5468 28.488 47.6933 29.6828C47.6088 29.8092 47.4957 29.9111 47.3644 29.9789C47.2331 30.0468 47.0879 30.0786 46.9421 30.0713C46.1626 30.0551 45.3831 30.0597 44.6036 30.0574C44.4882 29.9325 44.5513 29.8262 44.6319 29.7198C44.8344 29.4446 45.0325 29.1671 45.2328 28.8919L47.3841 25.9135C47.4429 25.8326 47.493 25.7447 47.5474 25.6615C47.7482 25.4517 47.9126 25.2059 48.0329 24.9354C46.315 24.9354 44.634 24.9354 42.9509 24.9354C42.7637 24.9354 42.6787 24.9932 42.7005 25.199C42.706 25.2891 42.706 25.3795 42.7005 25.4696V35.4847C42.7005 36.0905 42.7005 36.0882 42.1453 36.0928C41.8179 36.0784 41.49 36.0845 41.1633 36.1113Z" fill="#0B0B0B"/>
<path d="M4.40227 33.223C5.63468 34.1479 6.952 34.2728 8.33682 33.6646C8.86663 33.4315 9.33947 33.0733 9.71946 32.6171C10.0526 32.2217 10.0744 32.2864 10.414 32.5917C10.8016 32.9408 11.1979 33.2854 11.5898 33.6299C11.591 33.6467 11.5982 33.6624 11.61 33.6736C11.6217 33.6848 11.6372 33.6907 11.653 33.6901L11.6682 33.7039C11.6683 33.7213 11.674 33.738 11.6843 33.7515C11.6946 33.7649 11.7089 33.7743 11.7248 33.7779C11.7553 33.9884 11.6181 34.1086 11.5071 34.2404C9.74341 36.125 7.62699 36.7402 5.19267 36.2245C4.61694 36.0687 4.05744 35.8518 3.52261 35.577C3.52261 35.54 3.49648 35.5192 3.45946 35.5308C2.65176 35.0271 1.95112 34.3511 1.40173 33.5455C0.852349 32.7398 0.466146 31.822 0.267491 30.8499C0.0688353 29.8778 0.0620397 28.8726 0.247532 27.8975C0.433024 26.9225 0.806778 25.9989 1.34521 25.185C3.6293 21.7163 8.18222 21.3556 10.9911 23.8831C11.0934 23.9756 11.2088 24.0634 11.3024 24.1536C11.3027 24.1626 11.3047 24.1715 11.3082 24.1797C11.3118 24.1879 11.3169 24.1952 11.3232 24.2012C11.3295 24.2073 11.3369 24.2119 11.3449 24.2149C11.3529 24.2178 11.3615 24.219 11.3699 24.2184C11.3696 24.2272 11.371 24.2359 11.3741 24.2441C11.3772 24.2523 11.3819 24.2597 11.3878 24.2658C11.3938 24.2719 11.4009 24.2766 11.4087 24.2796C11.4165 24.2826 11.4248 24.2838 11.4331 24.2831H11.444C11.4432 24.292 11.4444 24.301 11.4474 24.3093C11.4503 24.3177 11.455 24.3252 11.461 24.3314C11.4671 24.3376 11.4744 24.3423 11.4823 24.3452C11.4903 24.348 11.4988 24.3489 11.5071 24.3479V24.3617C11.5071 24.4057 11.5289 24.4265 11.5702 24.4288C11.7662 24.771 11.7662 24.7803 11.4962 25.0277C11.1021 25.3862 10.7036 25.7376 10.3139 26.0984C10.2666 26.1477 10.2104 26.1862 10.1486 26.2117C10.0868 26.2371 10.0208 26.2489 9.95462 26.2464C9.77411 26.0374 9.57746 25.8448 9.36672 25.6706C9.36354 25.6514 9.35375 25.6341 9.33927 25.6222C9.32479 25.6102 9.30663 25.6044 9.28834 25.6058C9.27838 25.5823 9.26517 25.5605 9.24914 25.5411C8.04505 24.5467 6.71902 24.3016 5.29065 24.8751C2.39472 26.0313 1.33215 30.3764 4.03647 32.927C4.075 32.9573 4.11663 32.9829 4.16058 33.0033C4.19598 33.0684 4.25372 33.1164 4.32171 33.1374C4.31642 33.143 4.31222 33.1497 4.30936 33.157C4.3065 33.1644 4.30502 33.1722 4.30502 33.1802C4.30502 33.1881 4.3065 33.196 4.30936 33.2033C4.31222 33.2107 4.31642 33.2173 4.32171 33.223C4.327 33.2286 4.33328 33.233 4.34019 33.2361C4.3471 33.2391 4.35451 33.2407 4.36199 33.2407C4.36947 33.2407 4.37688 33.2391 4.38379 33.2361C4.3907 33.233 4.39698 33.2286 4.40227 33.223Z" fill="#0B0B0B"/>
<path d="M35.0152 19.7661C34.5264 19.4727 34.0822 19.1024 33.6978 18.6677C33.4953 18.4226 33.4801 18.3324 33.7196 18.1266C34.3003 17.6117 34.8809 17.1022 35.4615 16.5981C35.6793 16.4085 35.7228 16.4154 35.9602 16.6351C36.2727 16.9268 36.6568 17.1183 37.0677 17.1874C37.4787 17.2565 37.8997 17.2004 38.2818 17.0256C38.664 16.8508 38.9915 16.5644 39.2266 16.1997C39.4616 15.8351 39.5943 15.4071 39.6095 14.9655C39.6095 14.799 39.6095 14.6302 39.6095 14.4614V3.24848C39.6095 3.15829 39.6095 3.06811 39.6095 2.97793C39.6225 2.68194 39.677 2.6195 39.9644 2.61719C40.7221 2.61719 41.4784 2.61719 42.2332 2.61719C42.5293 2.61719 42.5577 2.65881 42.5707 2.98024C42.5602 3.12179 42.5682 3.26422 42.5947 3.40341C42.5629 3.55514 42.5548 3.71138 42.5707 3.8659C42.5707 7.47328 42.5598 11.0807 42.5707 14.688C42.5921 15.4722 42.454 16.252 42.1658 16.9743C41.8776 17.6966 41.446 18.3444 40.9007 18.8735C39.6704 20.0968 38.2159 20.5408 36.5589 20.3026C36.0453 20.2023 35.5446 20.0377 35.0674 19.8124H35.0565C35.0652 19.7731 35.0478 19.7569 35.0152 19.7661Z" fill="#0B0B0B"/>
<path d="M32.3102 27.6558L34.3635 24.8416C34.8316 24.1964 35.3019 23.5559 35.7592 22.9015C35.8485 22.7624 35.9698 22.6499 36.1115 22.5746C36.2533 22.4993 36.4108 22.4638 36.5692 22.4713C37.2376 22.4713 37.9061 22.4713 38.5767 22.4713C38.6253 22.4679 38.674 22.4679 38.7226 22.4713C38.9404 22.5014 38.9883 22.5985 38.8663 22.802C38.8271 22.8668 38.7858 22.9292 38.7444 22.994C38.7241 23.0081 38.7051 23.0244 38.6878 23.0425C36.9328 25.4752 35.1778 27.9079 33.4228 30.3405C33.3091 30.4909 33.2496 30.6795 33.2552 30.8724C33.2552 32.4633 33.2552 34.052 33.2552 35.6429C33.2552 36.0545 33.2182 36.0892 32.8415 36.1054L31.7092 36.1239C31.5873 36.1239 31.4676 36.1077 31.3456 36.1054C30.9602 36.1054 30.9101 36.0615 30.9101 35.666C30.9101 35.3423 30.9101 35.0209 30.9101 34.6971C30.9101 33.4299 30.9101 32.1535 30.9101 30.8932C30.915 30.675 30.8454 30.4622 30.7142 30.2943C28.9519 27.8647 27.1955 25.4312 25.4449 22.994C25.3621 22.8783 25.1901 22.7627 25.2642 22.6008C25.3382 22.439 25.5407 22.4829 25.6996 22.4806C26.2962 22.4806 26.895 22.4945 27.4916 22.4806C27.686 22.4557 27.8829 22.4914 28.0585 22.5834C28.234 22.6754 28.3805 22.8196 28.4802 22.9986C28.5041 23.0278 28.5303 23.0549 28.5586 23.0795C28.558 23.0895 28.5592 23.0996 28.5623 23.1091C28.5654 23.1186 28.5702 23.1273 28.5765 23.1349C28.5828 23.1424 28.5904 23.1485 28.5989 23.1529C28.6074 23.1573 28.6166 23.1599 28.6261 23.1605C28.6515 23.2184 28.6814 23.2741 28.7153 23.3269L31.9466 27.8038C31.9879 27.8616 32.0184 27.9402 32.1251 27.9402C32.1861 27.8385 32.2863 27.776 32.3102 27.6558Z" fill="#0B0B0B"/>
<path d="M85.4794 32.7503C85.4461 32.687 85.3917 32.6392 85.327 32.6162C85.279 32.5146 85.1966 32.436 85.0962 32.3965C85.097 32.3869 85.0957 32.3771 85.0924 32.3681C85.0891 32.3591 85.0839 32.351 85.0771 32.3445C85.0704 32.338 85.0623 32.3332 85.0535 32.3306C85.0447 32.328 85.0355 32.3276 85.0265 32.3295C85.0265 32.2878 85.0091 32.2647 84.9655 32.267C84.0927 31.3883 83.3029 30.4209 82.6074 29.3788C80.2077 25.7333 79.1966 21.258 79.7773 16.853C80.3581 12.4479 82.4876 8.43967 85.7377 5.63419C88.9879 2.82871 93.1176 1.43404 97.2966 1.7306C101.476 2.02716 105.394 3.99295 108.264 7.23273C108.314 7.28823 108.37 7.3391 108.423 7.39229C108.49 7.48247 108.553 7.57959 108.625 7.66515C111.352 10.9428 112.832 15.1818 112.776 19.5555C112.72 23.9291 111.131 28.1236 108.32 31.3208C105.51 34.518 101.679 36.4886 97.5739 36.8482C93.4692 37.2079 89.3856 35.9308 86.1196 33.266L85.4794 32.7503ZM96.2335 2.1824C93.046 2.17967 89.9293 3.18026 87.2769 5.05775C84.6246 6.93524 82.5556 9.60543 81.3315 12.731C80.1073 15.8566 79.7828 19.2974 80.399 22.6187C81.0151 25.9401 82.5443 28.993 84.7934 31.3918C87.0424 33.7907 89.9104 35.4278 93.0351 36.0965C96.1598 36.7652 99.4011 36.4355 102.349 35.1489C105.298 33.8623 107.821 31.6766 109.6 28.8679C111.379 26.0592 112.335 22.7535 112.346 19.3683C112.353 14.8209 110.66 10.4565 107.639 7.23405C104.618 4.0116 100.515 2.19465 96.2335 2.1824Z" fill="#0B0B0B"/>
<path d="M56.1073 36.1122L55.5956 36.0914C55.4193 36.0914 55.3234 35.9966 55.3234 35.8047C55.3234 35.7029 55.3234 35.5988 55.3234 35.4948C55.3234 32.336 55.3234 29.1757 55.3234 26.0139C55.3234 25.8589 55.3126 25.704 55.306 25.5514C55.3151 25.4878 55.3209 25.4237 55.3234 25.3594C55.3234 24.8738 55.3452 24.9386 54.938 24.9363H51.8636C51.8158 24.886 51.7792 24.8251 51.7566 24.7578C51.734 24.6906 51.7259 24.6188 51.7329 24.5478C51.7329 23.9905 51.7329 23.4355 51.7329 22.8782C51.7329 22.5406 51.7939 22.4828 52.1292 22.4805C52.7998 22.4805 53.4705 22.4805 54.1411 22.4805C55.9222 22.4805 57.7033 22.4967 59.4844 22.4805C60.0157 22.4805 60.4468 22.5799 60.7343 23.084C60.7334 23.0926 60.7341 23.1013 60.7365 23.1095C60.739 23.1177 60.7429 23.1254 60.7483 23.1319C60.7536 23.1384 60.7601 23.1437 60.7674 23.1474C60.7748 23.1511 60.7828 23.1531 60.7909 23.1534C61.0696 23.6159 61.4201 24.039 61.725 24.4923C61.799 24.601 61.9427 24.6981 61.8709 24.8576C61.799 25.0172 61.6313 24.9478 61.5051 24.9478C60.3837 24.9478 59.2623 24.9478 58.141 24.9478C57.5792 24.9478 57.6489 24.8646 57.6489 25.4519C57.6489 28.8435 57.6489 32.235 57.6489 35.6266C57.6489 36.0891 57.638 36.0891 57.1982 36.1053C56.8367 36.1006 56.4796 36.0683 56.1073 36.1122Z" fill="#0B0B0B"/>
<path d="M94.3441 13.6091L95.6375 13.2576C96.1361 13.2391 96.6325 13.1975 97.1333 13.209C98.267 13.2075 99.3548 13.6841 100.158 14.534C100.721 15.1449 101.218 15.8205 101.641 16.5482C102.013 17.1679 102.366 17.8038 102.753 18.4166C103.223 19.2064 103.823 19.9003 104.523 20.4654C104.944 20.7868 105.079 20.7475 105.353 20.2619C105.364 20.2387 105.375 20.2147 105.383 20.1902C105.502 20.0792 105.583 19.9296 105.614 19.7647C105.622 19.7302 105.636 19.6977 105.656 19.6692C105.676 19.6407 105.701 19.6167 105.73 19.5988C105.759 19.5809 105.791 19.5693 105.824 19.5649C105.858 19.5604 105.891 19.5631 105.923 19.5728C106.111 19.6052 106.113 19.7532 106.106 19.8966C106.076 20.1286 105.988 20.3479 105.852 20.5325C105.733 20.6675 105.637 20.8241 105.571 20.995C106.057 21.1271 106.565 21.1444 107.058 21.0458C107.935 20.9161 108.747 20.4828 109.368 19.8133C109.601 19.5729 109.779 19.2796 109.889 18.9557C110 18.6317 110.04 18.2853 110.006 17.9426C109.99 17.7393 109.935 17.5418 109.844 17.3625C109.752 17.1833 109.627 17.0262 109.475 16.9013C109.323 16.7765 109.148 16.6865 108.962 16.6373C108.776 16.588 108.582 16.5805 108.393 16.6152C108.268 16.6344 108.148 16.6797 108.04 16.7483C107.932 16.8169 107.838 16.9076 107.763 17.0151C107.688 17.1226 107.634 17.2448 107.604 17.3746C107.574 17.5044 107.568 17.6393 107.587 17.7714C107.594 17.8488 107.62 17.9229 107.662 17.9866C107.704 18.0502 107.76 18.1012 107.827 18.1345C107.926 18.1839 108.02 18.2427 108.11 18.3102C108.188 18.3727 108.264 18.4513 108.236 18.5715C108.208 18.6918 108.114 18.7288 108.018 18.7612C107.929 18.787 107.836 18.7875 107.747 18.7628C107.658 18.738 107.576 18.6888 107.511 18.6201C107.318 18.4486 107.178 18.2206 107.107 17.9648C107.036 17.7089 107.038 17.4366 107.112 17.1818C107.234 16.8118 107.47 16.4969 107.783 16.2892C108.096 16.0815 108.466 15.9934 108.832 16.0394C109.262 16.0813 109.664 16.2808 109.97 16.6037C110.276 16.9266 110.467 17.3526 110.509 17.8084C110.572 18.1869 110.555 18.5755 110.458 18.946C110.362 19.3164 110.189 19.6593 109.952 19.9497C109.431 20.6164 108.751 21.1219 107.983 21.4133C107.214 21.7046 106.387 21.771 105.586 21.6054C105.489 21.5916 105.395 21.5644 105.305 21.5245C105.126 21.4373 104.922 21.4289 104.737 21.5014C104.551 21.5636 104.361 21.6108 104.168 21.6424C103.917 21.6969 103.656 21.6894 103.408 21.6204C103.159 21.5515 102.928 21.423 102.734 21.2447C102.555 21.0851 102.392 20.9094 102.211 20.7568C102.153 20.6957 102.083 20.6478 102.007 20.6157C101.931 20.5836 101.849 20.5681 101.767 20.57C101.685 20.572 101.604 20.5913 101.529 20.627C101.455 20.6626 101.387 20.7138 101.331 20.7776C101.242 20.8658 101.161 20.9634 101.09 21.069C100.508 21.9685 99.6591 22.3616 98.6836 22.5142C98.6357 22.5253 98.5868 22.5307 98.5378 22.5304C98.3418 22.5304 98.2656 22.6322 98.2394 22.831C98.0829 23.8 97.8115 24.7441 97.4316 25.6406C97.1072 26.4638 96.7327 27.2593 96.3538 28.0594C96.2885 28.1935 96.2254 28.2907 96.0555 28.2907C95.2499 28.2907 94.4443 28.2907 93.6408 28.2907C93.6024 28.2846 93.5651 28.2729 93.5298 28.256C93.5641 28 93.627 27.7493 93.717 27.5091C93.8975 26.9425 93.9475 26.3383 93.8629 25.747C93.7312 25.0157 93.3798 24.3496 92.8613 23.8485C91.9903 22.9721 90.6469 23.1918 89.9501 23.8485C89.8083 23.9732 89.7033 24.1385 89.6475 24.3248C89.4439 24.4908 89.2921 24.718 89.212 24.977C89.0251 25.4566 88.9353 25.9727 88.9485 26.4916C88.936 26.8806 89.0193 27.2664 89.1902 27.6108C89.151 27.842 89.3317 28.0201 89.3317 28.2375C89.2555 28.3115 89.1684 28.286 89.0857 28.286C88.3911 28.286 87.6943 28.286 86.9998 28.286C86.9103 28.2962 86.8202 28.2735 86.7446 28.2217C86.6689 28.17 86.6122 28.0923 86.5839 28.0016C85.969 26.7361 85.4478 25.4218 85.0249 24.0705C84.9767 23.8436 84.8912 23.6276 84.7723 23.4323C84.646 23.5132 84.6395 23.6635 84.5785 23.7629C84.2867 24.2809 83.9253 24.6879 83.3243 24.7966C83.0874 24.8321 82.8459 24.791 82.6311 24.6789C82.4164 24.5667 82.2384 24.3886 82.1202 24.1676C82.0442 24.0329 82.0135 23.8747 82.0331 23.719C82.0402 23.6474 82.0703 23.5805 82.1182 23.5296C82.1662 23.4786 82.2291 23.4467 82.2966 23.4392C82.4534 23.4091 82.473 23.5456 82.5143 23.6496C82.8083 24.4659 83.3483 24.3919 83.8534 23.8994C84.2628 23.497 84.3869 22.9536 84.45 22.394C84.4932 21.8913 84.5092 21.3863 84.4979 20.8816C84.4928 19.8297 84.7056 18.7895 85.1214 17.8348C85.5372 16.8801 86.1458 16.0342 86.9039 15.3573C87.7858 14.534 88.8723 14.0716 90.0089 13.7085C90.1055 13.7211 90.2034 13.7164 90.2985 13.6946C91.3204 13.5022 92.3704 13.5632 93.3664 13.8727C93.5355 13.9376 93.7191 13.9472 93.8933 13.9002C94.0676 13.8532 94.2246 13.7518 94.3441 13.6091ZM91.8357 22.7478C92.244 22.8252 92.632 22.9947 92.9734 23.2448C93.3148 23.4949 93.6018 23.8198 93.815 24.1977C94.3239 25.0397 94.5195 26.0528 94.3637 27.0396C94.3354 27.2709 94.2984 27.4836 94.2635 27.7334C94.76 27.7334 95.2216 27.7149 95.681 27.7334C95.9271 27.7472 95.9684 27.6177 95.9793 27.4189C96.0728 27.3568 96.1429 27.2619 96.1775 27.1506C96.6117 26.1812 96.9948 25.1869 97.3249 24.1722C97.5013 23.5525 97.6189 22.9189 97.7604 22.2899C97.8606 21.8413 97.8192 21.8575 98.222 21.9361H98.259C98.5848 21.9976 98.9196 21.9758 99.2358 21.8724C99.552 21.7691 99.8404 21.5872 100.077 21.3418C100.284 21.1406 100.478 20.9251 100.659 20.6967C100.808 20.4824 100.999 20.3054 101.22 20.178C101.44 20.0505 101.684 19.9758 101.934 19.959C102.292 20.0857 102.612 20.3116 102.86 20.6134C102.927 20.6889 103 20.7585 103.078 20.8215C103.437 21.1337 103.833 21.1615 104.343 20.9926C103.785 20.6065 103.433 20.0885 102.954 19.7162C102.933 19.6146 102.886 19.5214 102.816 19.4479C102.431 18.9115 102.069 18.3611 101.728 17.7876C101.31 17.0777 100.896 16.347 100.395 15.6671C100.016 15.1045 99.5314 14.632 98.9711 14.2797C97.5449 13.4333 96.0925 13.586 94.6293 14.1617C94.5988 14.1617 94.5705 14.2034 94.5792 14.2704C94.7153 14.3854 94.8611 14.4868 95.0147 14.5734C95.24 14.7043 95.458 14.8487 95.6679 15.0058C96.5389 15.7226 97.0702 16.6522 97.007 17.8385C96.9417 19.0826 96.2907 19.9682 95.2368 20.4839C94.183 20.9996 93.2445 20.7637 92.4062 20.0214C91.4482 19.1774 91.0279 18.0906 91.3306 16.784C91.5218 16.0398 91.9313 15.3796 92.4998 14.8994C92.6895 14.7564 92.8608 14.5877 93.0094 14.3976C92.7381 14.2319 92.4317 14.142 92.1188 14.1363C91.4852 14.1058 90.8505 14.1578 90.2288 14.2912C88.6088 14.5919 87.3568 15.5261 86.3095 16.8072C86.1365 16.9739 86.0201 17.1966 85.9786 17.4408C85.883 17.5196 85.8081 17.6231 85.7608 17.7414C85.1511 18.8213 84.9661 20.0076 84.9944 21.2401C85.0381 22.0791 85.1845 22.9085 85.4299 23.7074C85.8087 25.0648 86.4968 26.2835 86.954 27.6015C86.9667 27.6446 86.9928 27.6818 87.028 27.707C87.0633 27.7322 87.1055 27.7439 87.1478 27.7403C87.5369 27.775 87.928 27.775 88.3171 27.7403C88.5457 27.7102 88.5457 27.7102 88.4804 27.4189C88.4651 27.1992 88.4542 26.9818 88.4347 26.7645C88.3297 25.7518 88.599 24.7354 89.1859 23.9294C89.5991 23.3259 90.2135 22.9124 90.9038 22.7732C91.0453 22.7431 91.1978 22.7732 91.3284 22.6923C91.4109 22.7177 91.4985 22.7177 91.581 22.6923C91.6181 22.7184 91.66 22.7358 91.7039 22.7434C91.7478 22.7509 91.7928 22.7485 91.8357 22.7362V22.7478ZM91.7617 17.346C91.7472 17.9727 91.9308 18.5866 92.2832 19.0896C92.6357 19.5926 93.1366 19.9557 93.7061 20.1209C93.9901 20.2039 94.2886 20.2142 94.5771 20.1509C95.0208 20.0523 95.4294 19.8233 95.7566 19.4902C96.0838 19.157 96.3164 18.7329 96.4279 18.2663C96.5151 17.9819 96.5308 17.6782 96.4736 17.3853C96.1949 15.9978 95.2869 15.244 94.1503 14.7121C94.0468 14.6701 93.9349 14.6568 93.8252 14.6734C93.7155 14.69 93.6116 14.7359 93.5232 14.8069C93.2019 15.0167 92.9026 15.2625 92.6305 15.54C92.1123 16.0834 91.7748 16.7239 91.7617 17.3344V17.346Z" fill="#0B0B0B"/>
<path d="M104.014 12.3673C103.97 12.564 103.986 12.7706 104.06 12.9569C104.08 13.0156 104.089 13.078 104.086 13.1403C104.082 13.2027 104.067 13.2636 104.041 13.3196C104.015 13.3756 103.979 13.4253 103.934 13.4659C103.889 13.5065 103.837 13.5371 103.781 13.5559C103.668 13.6044 103.59 13.6946 103.487 13.7478C103.385 13.801 103.228 13.6252 103.183 13.6576C103.087 13.7247 102.998 13.7871 102.895 13.7478C102.793 13.7085 102.712 13.609 102.603 13.5559C102.54 13.5235 102.558 13.3917 102.603 13.3084C102.692 13.1257 102.738 12.9231 102.738 12.7176C102.738 12.5121 102.692 12.3096 102.603 12.1268C102.542 12.0042 102.505 11.877 102.701 11.7984C102.856 11.736 102.974 11.4677 103.137 11.7684C103.143 11.7748 103.151 11.7795 103.159 11.7822C103.168 11.7849 103.177 11.7855 103.185 11.784C103.194 11.7824 103.202 11.7787 103.209 11.7732C103.216 11.7677 103.222 11.7605 103.226 11.7522C103.376 11.5209 103.483 11.6342 103.599 11.7961C103.64 11.8516 103.727 11.8632 103.788 11.9048C103.863 11.9517 103.923 12.0199 103.964 12.1016C104.004 12.1834 104.021 12.2754 104.014 12.3673ZM103.361 12.8575C103.3 12.8575 103.239 12.8575 103.178 12.8575C103.061 12.8575 103.05 12.9523 103.054 13.0494C103.059 13.1466 103.035 13.2506 103.157 13.2576C103.314 13.2714 103.472 13.2714 103.629 13.2576C103.671 13.2476 103.708 13.2225 103.734 13.1866C103.76 13.1507 103.773 13.1063 103.771 13.061C103.77 13.0158 103.754 12.9725 103.725 12.9387C103.697 12.9049 103.658 12.8828 103.616 12.876C103.522 12.8621 103.437 12.8644 103.352 12.8575H103.361ZM103.385 12.1638C103.111 12.1638 103.089 12.1638 103.063 12.2771C103.019 12.4598 103.085 12.5083 103.357 12.5083C103.49 12.5083 103.688 12.5661 103.692 12.3395C103.696 12.1129 103.485 12.1892 103.376 12.1684L103.385 12.1638Z" fill="#0B0B0B"/>
<path d="M105.277 16.6574C105.045 16.3347 104.833 15.9964 104.642 15.6445C104.616 15.6092 104.602 15.5656 104.602 15.5208C104.602 15.476 104.616 15.4324 104.642 15.3971C104.838 15.0734 105.029 14.7473 105.253 14.375L105.876 15.4063C105.901 15.4509 105.912 15.5027 105.907 15.5542C105.902 15.6057 105.882 15.6543 105.85 15.6931C105.665 16.0053 105.469 16.3221 105.277 16.6574Z" fill="#0B0B0B"/>
<path d="M106.463 12.0731C106.463 11.9713 106.463 11.8812 106.476 11.791C106.49 11.636 106.463 11.5227 106.291 11.4719C106.202 11.4541 106.121 11.4036 106.063 11.3293C106.005 11.255 105.973 11.1614 105.974 11.0649C105.973 10.9602 106.005 10.8583 106.065 10.7748C106.124 10.6913 106.207 10.6307 106.302 10.6024C106.365 10.5746 106.446 10.5723 106.481 10.4845C106.516 10.3966 106.598 10.392 106.625 10.4428C106.733 10.644 107.016 10.5261 107.101 10.7435C107.106 10.7589 107.107 10.7752 107.104 10.791C107.101 10.8069 107.094 10.8216 107.084 10.834C107.074 10.8464 107.062 10.856 107.048 10.862C107.034 10.868 107.018 10.8702 107.003 10.8683C106.945 10.8533 106.887 10.834 106.831 10.8105C106.809 10.8 106.785 10.7971 106.761 10.802C106.737 10.807 106.715 10.8197 106.699 10.8383C106.665 10.9305 106.656 11.0311 106.673 11.1284C106.69 11.2257 106.733 11.3159 106.797 11.3886C106.841 11.4087 106.886 11.4265 106.932 11.4418C107.007 11.4684 107.074 11.5178 107.123 11.5839C107.173 11.65 107.203 11.73 107.21 11.8141C107.22 11.9055 107.199 11.9975 107.153 12.0752C107.107 12.1529 107.037 12.2116 106.956 12.2419C106.803 12.2951 106.644 12.5148 106.566 12.4546C106.402 12.3298 106.209 12.309 106.052 12.1957L106.021 12.1772C106.002 12.1622 105.987 12.141 105.979 12.1164C105.971 12.0919 105.971 12.0654 105.978 12.0407C106.004 11.9598 106.061 11.9575 106.124 11.9875C106.224 12.0567 106.344 12.087 106.463 12.0731ZM106.655 11.8673C106.699 11.9274 106.598 12.0847 106.753 12.0985C106.811 12.0985 106.866 12.0742 106.907 12.0308C106.948 11.9874 106.971 11.9286 106.971 11.8673C106.986 11.7517 106.838 11.5875 106.74 11.6175C106.642 11.6476 106.668 11.7586 106.655 11.8673ZM106.466 10.792C106.416 10.7904 106.367 10.8042 106.324 10.8317C106.282 10.8592 106.248 10.8993 106.226 10.9469C106.208 10.9856 106.202 11.0299 106.212 11.0722C106.221 11.1145 106.244 11.152 106.276 11.1782C106.32 11.2221 106.372 11.2707 106.435 11.236C106.498 11.2013 106.479 11.1019 106.481 11.0302C106.483 10.9585 106.472 10.8891 106.466 10.792Z" fill="#0B0B0B"/>
<path d="M98.8214 16.1675C98.866 16.1648 98.9107 16.1722 98.9524 16.1891C98.9941 16.2061 99.032 16.2323 99.0635 16.266C99.095 16.2996 99.1194 16.34 99.1351 16.3844C99.1508 16.4288 99.1574 16.4763 99.1546 16.5236C99.1468 16.6174 99.1045 16.704 99.0367 16.7647C98.969 16.8253 98.8814 16.8551 98.7931 16.8474C98.7512 16.8436 98.7104 16.831 98.6731 16.8103C98.6359 16.7895 98.6029 16.7611 98.5761 16.7266C98.5493 16.6922 98.5293 16.6524 98.5172 16.6096C98.5051 16.5668 98.5012 16.5218 98.5057 16.4774C98.5026 16.4336 98.5088 16.3897 98.524 16.3488C98.5391 16.3079 98.5627 16.2712 98.5931 16.2414C98.6234 16.2116 98.6598 16.1895 98.6993 16.1767C98.7388 16.1639 98.7806 16.1608 98.8214 16.1675Z" fill="#0B0B0B"/>
</svg>
