<svg width="111" height="63" viewBox="0 0 111 63" fill="none" xmlns="http://www.w3.org/2000/svg">
<path d="M69.4093 59.0005H63.9111C63.9002 58.1718 63.8953 57.3382 63.8916 56.5045C63.888 55.6709 63.8856 54.8312 63.8819 53.9952C63.8783 53.1591 63.8819 52.3279 63.8722 51.4724H44.1684V58.8959C43.925 58.9689 39.034 59.0638 38.5935 59.0103C38.5594 58.605 38.5168 58.1925 38.4937 57.7775C38.3903 55.952 38.4219 54.1205 38.4463 52.2914C38.4767 49.8891 38.5107 47.4869 38.5327 45.0834C38.5436 43.8275 38.5631 42.5728 38.7201 41.3254C39.1886 37.6149 40.6782 34.4058 43.4553 31.8538C44.9363 30.4933 46.6997 29.6219 48.6115 29.0402C49.8704 28.6667 51.1603 28.4073 52.4656 28.265C54.7219 28.0034 56.9878 27.9742 59.255 28.007C61.3644 28.0378 63.4738 28.0679 65.5832 28.0971C66.1477 28.0944 66.7108 28.1532 67.2626 28.2723C68.5575 28.5753 69.273 29.3493 69.4824 30.6648C69.5899 31.3677 69.6229 32.0799 69.5809 32.7897C69.4592 35.0654 69.5006 37.3411 69.5079 39.618C69.5249 45.173 69.5314 50.7305 69.5274 56.2904C69.5274 57.1167 69.4653 57.943 69.4312 58.7693C69.4312 58.8241 69.4215 58.8898 69.4093 59.0005ZM63.8539 33.7632C63.7322 33.7438 63.6215 33.717 63.5059 33.7097C62.5944 33.6476 61.6804 33.5624 60.7689 33.5357C59.0379 33.4791 57.3052 33.5107 55.5774 33.6306C54.1601 33.718 52.7501 33.8997 51.357 34.1746C50.4503 34.3632 49.5656 34.62 48.7478 35.0727C46.4465 36.3468 45.0714 38.311 44.4495 40.8338C44.099 42.2552 44.0516 43.6997 44.1684 45.154C44.1854 45.3645 44.2159 45.5738 44.2426 45.8075H63.8539V33.7632Z" fill="#0B0B0B"/>
<path d="M2.64985 43.31C2.64985 40.2737 2.64133 37.2386 2.64985 34.2023C2.65593 33.0255 2.7107 31.8487 2.75086 30.6731C2.7574 30.4593 2.78677 30.2467 2.83848 30.0391C3.07213 29.1057 3.65993 28.5069 4.59212 28.2769C4.97236 28.1969 5.35668 28.1376 5.74336 28.0993C5.8983 28.0852 6.05394 28.0804 6.20946 28.0847C9.48794 28.0494 12.7664 28.0056 16.0449 27.9861C17.4363 27.978 18.8273 27.9987 20.2179 28.0482C21.5882 28.098 22.9572 28.1966 24.2898 28.5605C27.909 29.5487 30.5839 31.6942 32.2621 35.0615C32.7489 36.0351 33.0203 37.0792 33.2199 38.1428C33.651 40.5103 33.8142 42.9189 33.7066 45.3229C33.6708 46.6061 33.5295 47.8841 33.2844 49.1441C32.4179 53.3597 29.3292 56.901 25.3425 58.2482C24.3059 58.5847 23.2368 58.8111 22.1528 58.9236C20.459 59.1026 18.755 59.1669 17.0526 59.1159C14.0369 59.0599 11.0213 59.0076 8.00569 59.0806C7.08145 59.1174 6.15575 59.0816 5.2371 58.9735C4.91104 58.9295 4.58938 58.8574 4.27571 58.7581C3.99134 58.6695 3.73239 58.514 3.52063 58.3046C3.30886 58.0951 3.15046 57.8379 3.05875 57.5545C2.88712 57.0571 2.78914 56.5372 2.7679 56.0114C2.73017 55.3518 2.70461 54.6898 2.69975 54.029C2.67297 50.4593 2.65066 46.8895 2.63281 43.3198L2.64985 43.31ZM8.29654 53.4108C8.43041 53.4205 8.52533 53.4303 8.62025 53.4339C9.33947 53.4595 10.0587 53.4923 10.7791 53.5082C14.0467 53.5787 17.3154 53.6152 20.5817 53.4181C21.3191 53.3896 22.0523 53.2939 22.7723 53.1321C24.88 52.6125 26.4049 51.3809 27.3164 49.4034C27.7262 48.4853 27.9464 47.4939 27.9638 46.4887C28.0198 44.6986 28.0259 42.9084 27.903 41.1207C27.8473 40.198 27.6918 39.284 27.4393 38.3947C26.6836 35.7978 24.79 34.167 22.1224 33.8664C21.1184 33.7533 20.1071 33.6839 19.097 33.6498C15.6251 33.5281 12.1519 33.561 8.67988 33.6997C8.57766 33.6997 8.47543 33.7204 8.36591 33.7314C8.34644 40.3066 8.3221 46.8441 8.29654 53.4157V53.4108Z" fill="#0B0B0B"/>
<path d="M91.4934 59.675C89.7714 59.6434 88.0531 59.5533 86.3396 59.372C84.4935 59.1797 82.7325 58.688 81.114 57.7522C79.2776 56.691 77.9012 55.1966 76.8996 53.3334C76.0903 51.8305 75.5865 50.2217 75.2701 48.5496C74.8247 46.2033 74.7517 43.8351 74.905 41.4583C74.9707 40.441 75.0657 39.4224 75.202 38.4159C75.5671 35.7228 76.7268 33.4142 78.6228 31.4793C79.7691 30.2765 81.1573 29.3304 82.696 28.7034C83.7231 28.2969 84.8001 28.0767 85.8893 27.9185C88.6433 27.5205 91.4143 27.5096 94.1877 27.6033C95.1613 27.6373 96.1349 27.6714 97.1024 27.7444C99.5363 27.927 101.766 28.6705 103.681 30.2282C105.168 31.4379 106.237 32.9627 107.025 34.6969C107.707 36.2373 108.179 37.8622 108.429 39.5282C108.705 41.3083 108.799 43.1118 108.708 44.9109C108.625 46.8069 108.427 48.6932 107.903 50.5283C107.429 52.1834 106.694 53.7058 105.583 55.0311C104.318 56.5438 102.726 57.594 100.904 58.3169C99.551 58.8377 98.1408 59.196 96.7032 59.3841C94.9768 59.6167 93.2349 59.7139 91.4934 59.675ZM91.5202 33.1453C90.3166 33.2037 88.821 33.267 87.3253 33.3522C86.5178 33.3979 85.7231 33.5738 84.9717 33.873C83.1548 34.6032 81.8344 35.8202 81.1261 37.6699C80.8048 38.5072 80.6905 39.3834 80.6479 40.2694C80.5052 42.8056 80.5617 45.3492 80.817 47.8766C81.075 50.2618 82.2968 51.9875 84.4363 53.0608C85.1123 53.3861 85.8329 53.6093 86.5745 53.7229C87.6137 53.9017 88.6652 53.9224 89.7142 53.9443C91.6699 53.9857 93.6255 53.9699 95.5775 53.8287C96.2866 53.7978 96.992 53.7086 97.6865 53.5622C100.251 52.9416 101.851 51.2962 102.587 48.7857C102.857 47.862 102.895 46.9054 102.928 45.9538C103.01 43.9604 102.973 41.9639 102.817 39.9749C102.762 39.3457 102.716 38.7104 102.521 38.1056C101.884 36.1268 100.63 34.6981 98.7075 33.8645C97.6804 33.4215 96.5949 33.2767 95.4911 33.2402C94.2669 33.2001 93.0402 33.1794 91.5202 33.1441V33.1453Z" fill="#0B0B0B"/>
<path d="M7.99051 13.6318V10.845C8.0298 10.83 8.07061 10.8194 8.11221 10.8133C10.1616 10.6916 12.2097 10.5553 14.2639 10.5602C15.0136 10.5602 15.7644 10.5602 16.5044 10.6941C16.8099 10.7466 17.1104 10.8252 17.4025 10.9289C17.9744 11.1346 18.2982 11.563 18.3943 12.1581C18.433 12.3784 18.4541 12.6014 18.4576 12.825C18.4576 14.4788 18.4637 16.1327 18.4418 17.7865C18.4273 18.2334 18.3732 18.6781 18.2799 19.1154C18.174 19.6509 17.8175 19.9564 17.2771 20.033C17.0467 20.0689 16.8142 20.0896 16.581 20.0951C15.9494 20.0951 15.3166 20.0805 14.6838 20.0951C13.5885 20.1158 12.4872 20.1511 11.3883 20.1864C10.007 20.2302 8.62577 20.2886 7.2506 20.1462C6.47469 20.0806 5.71188 19.9061 4.98462 19.6278C3.57173 19.0595 2.7941 18.0177 2.70161 16.499C2.64076 15.48 2.60871 14.4593 2.60547 13.4371C2.60547 12.124 2.62859 10.8109 2.65293 9.4978C2.64706 8.73847 2.72088 7.98062 2.8732 7.2367C3.02278 6.49723 3.39625 5.82168 3.94291 5.30173C4.3395 4.92411 4.83479 4.66634 5.37162 4.55817C6.16494 4.40673 6.96822 4.31318 7.77511 4.27827C10.1859 4.14805 12.5991 4.19065 15.0111 4.23689C15.9847 4.25515 16.9583 4.28192 17.9319 4.30382C18.0365 4.30382 18.1424 4.30382 18.275 4.30382C18.2945 5.25549 18.3128 6.17307 18.331 7.11135C18.2093 7.11865 18.1144 7.1296 18.0195 7.12839C15.4225 7.09918 12.8255 7.06267 10.2309 7.04076C9.27806 7.03225 8.32518 7.04928 7.3723 7.07362C7.10022 7.08574 6.83018 7.12653 6.56667 7.19532C5.89248 7.35717 5.57241 7.72104 5.50913 8.41228C5.47141 8.81874 5.46654 9.22886 5.46532 9.63654C5.46532 10.8036 5.47506 11.9719 5.46532 13.1389C5.44212 14.1135 5.47341 15.0886 5.55903 16.0596C5.58093 16.2629 5.62961 16.4625 5.64543 16.6681C5.64397 16.7115 5.6511 16.7548 5.66641 16.7955C5.68173 16.8361 5.70492 16.8733 5.73466 16.905C5.7644 16.9367 5.8001 16.9621 5.83971 16.98C5.87933 16.9978 5.92207 17.0076 5.96549 17.0089C6.32084 17.06 6.67376 17.1391 7.03155 17.1719C8.66966 17.319 10.3149 17.3718 11.959 17.3302C13.047 17.3082 14.1349 17.234 15.2229 17.1805C15.3263 17.1805 15.4286 17.1513 15.543 17.1342C15.5588 16.0122 15.5734 14.9157 15.5892 13.7815L7.99051 13.6318Z" fill="#0B0B0B"/>
<path d="M103.965 12.2017V14.8791C103.666 14.8997 103.368 14.9375 103.069 14.9387C102.233 14.9387 101.396 14.9241 100.56 14.9241C99.9869 14.9241 99.4137 14.9387 98.8405 14.9484C98.8215 14.9466 98.8023 14.9466 98.7833 14.9484C98.0811 15.0458 97.7659 15.3683 97.7136 16.0705C97.699 16.2725 97.7343 16.4781 97.7355 16.6789C97.7323 16.7375 97.7504 16.7952 97.7864 16.8415C97.8224 16.8878 97.8739 16.9195 97.9314 16.9308C98.2542 17.0366 98.5824 17.1248 98.9147 17.1949C100.507 17.4787 102.135 17.5062 103.736 17.2765C104.067 17.2081 104.393 17.1153 104.71 16.999C104.807 16.9673 104.894 16.9096 104.961 16.8321C105.028 16.7547 105.072 16.6605 105.09 16.5597C105.227 15.9921 105.301 15.4108 105.309 14.8267C105.344 13.7272 105.273 12.6268 105.097 11.5409C105.091 11.4452 105.054 11.3541 104.992 11.2809C104.93 11.2078 104.846 11.1564 104.752 11.1345C104.124 10.9288 103.467 10.8196 102.805 10.8108C101.697 10.7925 100.588 10.8181 99.4794 10.829C98.944 10.829 98.4097 10.8509 97.8742 10.8607C97.8183 10.8607 97.7623 10.8534 97.6661 10.8473C97.7221 9.96376 97.7781 9.09607 97.8329 8.23689C97.8682 8.22046 97.9054 8.20821 97.9436 8.20038C99.5257 8.17118 101.115 8.12737 102.699 8.12128C103.548 8.11566 104.392 8.23583 105.205 8.47785C105.485 8.55978 105.758 8.66396 106.021 8.78939C107.152 9.33581 107.777 10.2595 107.883 11.491C108.038 13.237 108.024 14.9939 107.842 16.7374C107.679 18.3267 106.667 19.5023 105.124 19.9087C104.806 19.998 104.48 20.0539 104.15 20.0755C102.945 20.1302 101.739 20.1838 100.533 20.1972C99.5981 20.2192 98.6647 20.1053 97.7623 19.8589C97.4447 19.7685 97.135 19.6525 96.8362 19.512C95.803 19.0252 95.1969 18.1965 95.0107 17.072C94.8839 16.3207 94.9221 15.5508 95.1227 14.8158C95.2396 14.3504 95.4596 13.9173 95.7662 13.5483C96.0729 13.1792 96.4585 12.8838 96.8946 12.6837C97.5142 12.3987 98.1766 12.2178 98.8551 12.1482C100.137 11.9876 101.419 12.0545 102.702 12.1178C102.975 12.1312 103.246 12.1445 103.519 12.1604C103.652 12.1701 103.786 12.1859 103.965 12.2017Z" fill="#0B0B0B"/>
<path d="M23.1841 10.8521V8.26846C23.2407 8.25354 23.2985 8.24336 23.3569 8.23804C25.029 8.21978 26.7023 8.18814 28.3756 8.19179C29.1954 8.18456 30.013 8.27898 30.8096 8.47291C30.9592 8.51064 31.1089 8.55566 31.2562 8.60678C31.6559 8.73691 32.0185 8.96114 32.3135 9.26059C32.6085 9.56004 32.8273 9.92595 32.9514 10.3276C33.1511 10.9286 33.2629 11.5553 33.2836 12.1883C33.3287 13.4722 33.3469 14.7561 33.3554 16.04C33.3542 16.6151 33.2538 17.1857 33.0585 17.7267C32.9117 18.1722 32.6666 18.5791 32.3414 18.9172C32.0161 19.2553 31.6191 19.5159 31.1795 19.6799C30.5241 19.931 29.8306 20.0681 29.1289 20.0851C28.3416 20.1156 27.5542 20.1107 26.7656 20.1107C26.1048 20.1107 25.4428 20.1034 24.782 20.0851C23.9301 20.062 23.0977 19.905 22.3359 19.4973C21.1956 18.8889 20.4995 17.9445 20.3474 16.6521C20.252 15.8433 20.41 15.0249 20.7996 14.3097C21.1891 13.5946 21.7909 13.0179 22.5221 12.6592C23.1573 12.3346 23.8604 12.1649 24.5739 12.1639C26.1303 12.1639 27.6868 12.181 29.2433 12.1932C29.2907 12.1962 29.3378 12.2019 29.3845 12.2102C29.4648 13.0888 29.4259 13.9687 29.4928 14.8692C29.3516 14.8814 29.2494 14.8972 29.1435 14.8972C28.3367 14.8972 27.5286 14.8887 26.7218 14.8972C26.0318 14.9058 25.3418 14.9204 24.653 14.9557C24.244 14.9806 23.8425 15.0765 23.4664 15.2392C23.4055 15.2553 23.3515 15.2906 23.3125 15.34C23.2734 15.3894 23.2514 15.4501 23.2498 15.513C23.2389 15.8039 23.1926 16.0947 23.2036 16.3844C23.2018 16.5769 23.2653 16.7644 23.3838 16.9163C23.5022 17.0681 23.6686 17.1753 23.8559 17.2204C24.079 17.2863 24.3088 17.3272 24.541 17.3421C24.9876 17.3677 25.4355 17.3725 25.8797 17.3689C26.9396 17.3616 27.9996 17.3458 29.0608 17.3324C29.7362 17.3239 30.0003 17.2472 30.5357 16.9016C30.5576 16.4598 30.5808 16.0047 30.6015 15.5483C30.638 14.7037 30.6866 13.858 30.7 13.0122C30.7059 12.6444 30.6717 12.2772 30.5978 11.9169C30.5603 11.6883 30.4546 11.4764 30.2946 11.309C30.1345 11.1415 29.9276 11.0264 29.7009 10.9786C29.3529 10.8915 28.9969 10.8397 28.6385 10.8241C28.0458 10.8034 27.452 10.8241 26.8581 10.835L23.4153 10.8667C23.3423 10.8655 23.2754 10.8569 23.1841 10.8521Z" fill="#0B0B0B"/>
<path d="M55.2804 16.0058V13.3882C55.4094 13.3882 55.5128 13.3723 55.6162 13.3735C56.6859 13.3845 57.7556 13.4076 58.8254 13.404C59.3791 13.404 59.9316 13.3577 60.4841 13.3261C60.5806 13.3158 60.6755 13.2933 60.7664 13.2592C61.2532 13.1022 61.5124 12.787 61.5343 12.2746C61.531 12.0127 61.5143 11.7511 61.4844 11.4909C61.4747 11.3449 61.3627 11.2877 61.2581 11.256C60.8718 11.1268 60.4775 11.0231 60.0776 10.9457C58.468 10.7052 56.8305 10.7204 55.2256 10.9907C54.9676 11.0346 54.7169 11.1124 54.4638 11.1842C54.3822 11.1977 54.3078 11.239 54.2532 11.3011C54.1986 11.3632 54.1672 11.4423 54.1644 11.525C54.1072 12.0665 54.0074 12.6044 53.9733 13.146C53.9011 14.0292 53.9154 14.9173 54.0159 15.7977C54.0524 16.0764 54.1279 16.349 54.1814 16.6253C54.1985 16.7017 54.2323 16.7733 54.2806 16.835C54.3288 16.8967 54.3901 16.9468 54.4601 16.9818C54.9111 17.2352 55.4138 17.3829 55.9302 17.4139C56.7821 17.4978 57.6206 17.4017 58.4664 17.3859C59.0493 17.3749 59.6322 17.398 60.2139 17.4065C60.2676 17.4116 60.3209 17.4205 60.3733 17.4333V19.9975C60.0971 20.0279 59.8293 20.068 59.5604 20.0851C58.1826 20.1744 56.8005 20.1744 55.4227 20.0851C54.8189 20.0668 54.2219 19.9517 53.6545 19.7443C52.3158 19.2101 51.5601 18.2183 51.4019 16.8042C51.2446 15.3819 51.2063 13.9491 51.2875 12.5205C51.3174 11.9076 51.4275 11.3012 51.6149 10.7169C52.0359 9.42695 52.9195 8.64809 54.2374 8.36941C54.6942 8.27519 55.1585 8.22264 55.6248 8.21242C56.7719 8.18646 57.9199 8.18078 59.0687 8.19539C59.965 8.1883 60.858 8.30376 61.7229 8.53857C61.9747 8.61153 62.2211 8.7018 62.4604 8.80873C63.49 9.26996 64.0948 10.0659 64.2798 11.1757C64.4052 11.9276 64.3637 12.6979 64.1581 13.432C64.0393 13.8961 63.816 14.3269 63.5054 14.6915C63.1947 15.0562 62.8048 15.3451 62.3655 15.5361C61.6689 15.8397 60.9248 16.0196 60.1664 16.0679C59.1086 16.1478 58.0465 16.1547 56.9877 16.0886C56.501 16.0655 56.0142 16.0496 55.5274 16.0302C55.4483 16.0253 55.3716 16.0143 55.2804 16.0058Z" fill="#0B0B0B"/>
<path d="M68.7927 11.2982C68.8268 11.4868 68.8597 11.6633 68.8913 11.847C68.8975 11.9058 68.9249 11.9603 68.9683 12.0004C69.0118 12.0405 69.0683 12.0634 69.1274 12.0649C69.185 12.0741 69.2431 12.0798 69.3014 12.0819C70.0401 12.0819 70.78 12.0819 71.5187 12.0661C72.4412 12.0454 73.3636 12.0016 74.2873 12.0892C76.3026 12.279 77.3541 13.8015 77.6546 15.1425C77.8086 15.8286 77.8037 16.5409 77.64 17.2248C77.5425 17.6675 77.3515 18.0844 77.08 18.4474C76.8084 18.8105 76.4625 19.1114 76.0653 19.3301C75.4068 19.6902 74.6893 19.9301 73.9466 20.0384C73.0536 20.1867 72.1486 20.2503 71.2437 20.2282C70.0377 20.2087 68.8329 20.1637 67.6269 20.1296L66.315 20.0956C66.2201 20.0956 66.124 20.0956 65.995 20.0956C66.0351 19.122 66.0753 18.174 66.1167 17.2089C66.2225 17.2089 66.3077 17.1931 66.3917 17.1931C67.5977 17.1931 68.8049 17.1931 70.0109 17.1992C71.0027 17.2077 71.9946 17.2394 72.9864 17.2454C73.3452 17.2552 73.7042 17.2311 74.0585 17.1736C74.6195 17.069 74.8848 16.6929 74.835 16.1198C74.813 15.8691 74.7388 15.6245 74.6974 15.3762C74.6924 15.3127 74.6653 15.253 74.6208 15.2075C74.5764 15.1619 74.5174 15.1333 74.454 15.1267C74.0342 15.0513 73.6168 14.9308 73.1945 14.9113C72.5154 14.8809 71.8327 14.9113 71.1524 14.9296C70.4339 14.9703 69.7134 14.9618 68.996 14.904C67.3507 14.7288 66.1313 13.6153 65.8927 11.9833C65.7078 10.7092 66.1446 9.67109 67.2314 8.92875C67.8399 8.51255 68.5335 8.32027 69.2576 8.2509C69.5862 8.21683 69.9172 8.20466 70.2482 8.20223C71.7646 8.19127 73.2821 8.18154 74.7997 8.18397C75.3132 8.18397 75.828 8.22413 76.333 8.24482C76.4012 8.47482 76.4194 10.6337 76.3574 10.9939C76.0872 11.011 75.8073 11.045 75.5298 11.0414C74.3336 11.0207 73.1373 10.9903 71.941 10.9599C71.1732 10.9283 70.404 10.9585 69.641 11.0499C69.3433 11.0684 69.0534 11.1532 68.7927 11.2982Z" fill="#0B0B0B"/>
<path d="M38.6884 20.0838L35.8675 19.9816C35.8456 19.5398 35.8103 19.1297 35.8079 18.7098C35.7993 16.8515 35.7933 14.9932 35.7993 13.1349C35.7993 12.0068 35.8298 10.8787 35.8517 9.75058C35.859 9.58683 35.8802 9.42399 35.9149 9.2638C36.0099 8.73807 36.3214 8.41193 36.8471 8.3097C37.1518 8.24798 37.4613 8.21336 37.772 8.20626C39.5816 8.19287 41.3913 8.14298 43.1984 8.25494C44.1128 8.29077 45.0189 8.44206 45.8952 8.70521C47.2156 9.13115 48.1113 9.99276 48.592 11.2925C48.8707 12.0794 49.0434 12.9 49.1056 13.7325C49.2601 15.4715 49.1944 17.2105 49.0678 18.9496C49.0411 19.3147 49.0119 19.6798 48.9827 20.0655H46.2214C46.1922 19.6883 46.1605 19.3134 46.135 18.9362C46.0352 17.4685 46.135 15.9997 46.1435 14.532C46.1509 14.017 46.1265 13.5021 46.0705 12.9901C45.9719 12.12 45.4766 11.5565 44.6442 11.2864C44.0281 11.1027 43.3898 11.0044 42.747 10.9943C41.4536 10.9549 40.1591 10.9899 38.8697 11.099C38.8231 11.106 38.7772 11.1166 38.7322 11.1306C38.7176 14.1097 38.703 17.0815 38.6884 20.0838Z" fill="#0B0B0B"/>
<path d="M92.9579 20.0662H90.2246C90.2246 19.9445 90.2246 19.8228 90.2246 19.7145C90.2076 17.524 90.1942 15.3335 90.1723 13.1503C90.172 12.8105 90.146 12.4712 90.0944 12.1353C89.9849 11.4745 89.6417 11.1496 88.9785 11.04C88.7483 11.0022 88.5156 10.9818 88.2824 10.9792C87.6508 10.9792 87.0192 10.995 86.3864 11.006L84.0826 11.051C84.0255 11.051 83.9683 11.0413 83.8867 11.0327V8.24226C83.9563 8.22837 84.0266 8.21861 84.0973 8.21305C85.0307 8.18749 85.9641 8.1595 86.8963 8.14003C87.8107 8.10363 88.7266 8.15661 89.6308 8.29824C89.9277 8.34859 90.2205 8.42058 90.507 8.51364C91.8943 8.97 92.706 9.90706 92.9007 11.3747C93.0237 12.3393 93.0952 13.3098 93.1149 14.282C93.1624 16.0819 93.1003 17.8806 93.0017 19.6768C92.9932 19.8022 92.9738 19.9251 92.9579 20.0662Z" fill="#0B0B0B"/>
<path d="M82.719 20.0214H79.9115C79.8591 19.8425 79.8104 3.56572 79.8737 3.24322L82.6265 3.18359C82.6922 8.80108 82.6642 14.3979 82.719 20.0214Z" fill="#0B0B0B"/>
</svg>
