<svg width="83" height="62" viewBox="0 0 83 62" fill="none" xmlns="http://www.w3.org/2000/svg">
<path d="M62.5183 20.3097C61.3356 19.4973 60.0566 18.846 58.8257 18.1249C55.7148 16.3125 52.5895 14.5278 49.4775 12.7185C48.0267 11.8242 46.9849 10.3961 46.5763 8.74145C46.1678 7.08681 46.4252 5.33792 47.2931 3.87113C48.1609 2.40434 49.57 1.3369 51.217 0.89851C52.8639 0.460121 54.6172 0.685832 56.0994 1.52707C63.6356 5.87603 71.1704 10.2281 78.7038 14.5832C82.4455 16.7525 83.1758 21.5025 80.2875 24.7232C79.6043 25.4843 78.7212 25.9674 77.8258 26.4187C77.7413 26.4138 77.6566 26.4193 77.5735 26.4351C75.6369 27.0393 73.8091 26.7839 72.0665 25.7664C70.1669 24.6572 68.2622 23.5574 66.3523 22.4667C65.0733 21.7426 63.8445 20.9425 62.5183 20.3097Z" fill="#169D5A"/>
<path d="M20.4865 20.2236C20.9091 20.6554 21.4692 20.876 21.9769 21.1703C25.772 23.3705 29.5742 25.5501 33.3621 27.7522C35.6525 29.0856 36.9736 31.6417 36.629 34.0623C36.2187 36.9281 34.6442 38.839 31.8502 39.6503C31.0545 39.8919 30.2172 39.9654 29.3916 39.8662C28.5659 39.767 27.7699 39.4971 27.0541 39.0739C19.4263 34.6853 11.8023 30.2823 4.18203 25.865C-0.141284 23.351 -0.125898 17.2009 4.18203 14.6479C4.51949 14.4428 4.86515 14.2643 5.20773 14.0725C5.30779 14.0593 5.40708 14.0408 5.50518 14.0171C7.28785 13.5207 9.01102 13.6592 10.6398 14.5823C12.0943 15.4028 13.5333 16.2521 14.9826 17.0829C16.8152 18.1298 18.6498 19.1767 20.4865 20.2236Z" fill="#567DBE"/>
<path d="M20.4871 20.2237C18.6517 19.1761 16.8171 18.1285 14.9832 17.081C13.5338 16.2471 12.0948 15.4029 10.6404 14.5824C9.01154 13.6592 7.28837 13.5259 5.50058 14.0264C5.40247 14.0501 5.30318 14.0686 5.20312 14.0818C7.70788 12.6267 10.213 11.1712 12.7184 9.71542C17.4428 6.98022 22.1685 4.25084 26.8956 1.52727C30.1676 -0.349757 34.2017 0.825694 35.9433 4.13357C37.5116 7.11322 36.4787 10.9616 33.5965 12.6469C29.2414 15.1978 24.8586 17.6984 20.4871 20.2237Z" fill="#EB4434"/>
<path d="M62.5191 20.3086C63.8453 20.9373 65.0741 21.7446 66.348 22.4626C68.2592 23.5525 70.1639 24.6524 72.0622 25.7622C73.8059 26.7797 75.6326 27.0351 77.5691 26.431C77.6523 26.4151 77.737 26.4096 77.8215 26.4146C75.8802 27.5435 73.9378 28.6718 71.9945 29.7994C66.8598 32.7739 61.7139 35.7218 56.5936 38.7178C54.9648 39.6707 53.2755 40.1692 51.4138 39.7251C48.7214 39.083 46.9962 37.3762 46.4505 34.6725C45.9141 32.0159 46.7879 29.7676 48.9881 28.1531C50.3328 27.1664 51.8508 26.4382 53.296 25.6022C56.3362 23.8428 59.3791 22.0895 62.4247 20.3424C62.4554 20.3291 62.4869 20.3178 62.5191 20.3086Z" fill="#FABB13"/>
<path d="M41.5871 54.1904C42.458 54.1904 43.3308 54.2212 44.1986 54.1771C44.6417 54.1556 44.7114 54.371 44.733 54.7094C44.9853 58.1045 43.058 60.5775 40.0076 61.2124C36.2535 61.9929 32.799 59.7631 32.0071 56.0777C31.044 51.5913 34.9345 47.4793 39.466 48.1798C40.7994 48.385 41.9861 48.8722 42.9852 49.7984C43.2067 50.0035 43.2549 50.1389 43.0006 50.3615C42.6416 50.6692 42.3718 51.1708 41.9636 51.3277C41.5133 51.5011 41.2733 50.8692 40.8794 50.6672C39.146 49.7799 37.4402 49.7871 35.8432 50.8938C34.2647 51.9883 33.719 53.5904 33.9683 55.4654C34.4883 59.3733 38.9829 60.4062 41.3748 58.5066C42.0795 57.9486 42.4733 57.2255 42.6959 56.3783C42.777 56.0705 42.661 55.9967 42.3677 55.9998C41.2394 56.0121 40.1112 55.9905 38.988 56.0131C38.6219 56.0193 38.4875 55.9413 38.4916 55.5392C38.5039 54.1894 38.4865 54.1894 39.8455 54.1894L41.5871 54.1904Z" fill="#0B0B0B"/>
<path d="M14.3586 54.193C15.2468 54.193 16.1351 54.2094 17.0254 54.1858C17.3844 54.1755 17.488 54.3058 17.5147 54.6484C17.8624 59.0979 14.5545 61.6929 10.6066 61.3236C7.73464 61.0559 5.34681 58.9163 4.81037 56.1849C4.21239 53.1375 5.52836 50.281 8.18184 48.8706C10.5409 47.6172 13.8232 47.9916 15.6694 49.6973C16.0018 50.005 16.0315 50.1989 15.6756 50.4912C15.3463 50.761 15.1094 51.2297 14.7463 51.3456C14.336 51.4769 14.0868 50.9251 13.735 50.7148C10.9881 49.0737 7.07614 50.5712 6.73971 54.1704C6.48841 56.868 7.95926 58.8599 10.5143 59.3645C12.6682 59.7902 14.7955 58.626 15.3925 56.6895C15.5976 56.0187 15.5925 56.0085 14.9012 56.0085C13.8427 56.0085 12.7831 55.9962 11.7215 56.0156C11.3851 56.0156 11.2456 55.9582 11.2466 55.5746C11.2466 54.193 11.2343 54.193 12.619 54.193H14.3586Z" fill="#0B0B0B"/>
<path d="M57.9945 54.542C58.0714 54.5851 58.1545 54.6374 58.2427 54.6774C60.5526 55.737 60.5475 58.65 58.9217 60.0531C58.2109 60.6685 57.3832 61.0224 56.4539 61.0409C54.7984 61.0716 53.1429 61.0481 51.4875 61.0634C51.191 61.0634 51.1162 60.9681 51.1172 60.6819C51.1254 56.7227 51.1254 52.7628 51.1172 48.8022C51.1172 48.4638 51.2475 48.4135 51.5367 48.4156C53.0558 48.4268 54.5759 48.3991 56.0939 48.4268C58.0653 48.4638 59.6438 49.9921 59.6315 51.8116C59.6243 52.8845 59.1617 53.7112 58.2632 54.2959C58.1781 54.3502 58.096 54.4087 58.014 54.4682C58.0007 54.4733 58.0027 54.499 57.9945 54.542ZM53.1122 57.3525C53.1122 57.8653 53.1122 58.3782 53.1122 58.891C53.1122 59.09 53.1481 59.211 53.3901 59.208C54.3789 59.1956 55.3708 59.2398 56.3565 59.1813C57.3422 59.1228 58.0878 58.2325 58.0478 57.2745C58.0268 56.8077 57.8302 56.3661 57.4973 56.0382C57.1644 55.7102 56.7199 55.5202 56.2529 55.5062C55.3297 55.4754 54.4066 55.5062 53.4896 55.4877C53.2045 55.4816 53.0947 55.5667 53.1071 55.8631C53.1265 56.3575 53.1122 56.8529 53.1122 57.3525ZM53.1122 51.9604C53.1122 52.4199 53.1183 52.8835 53.1122 53.3399C53.1122 53.5594 53.1471 53.6928 53.4199 53.6876C54.3051 53.6723 55.1933 53.7071 56.0764 53.661C56.9596 53.6148 57.7001 52.7717 57.6683 51.905C57.6478 51.4737 57.4651 51.0661 57.1567 50.7639C56.8484 50.4616 56.4373 50.2871 56.0057 50.2751C55.1718 50.2516 54.3358 50.2813 53.5019 50.2587C53.1696 50.2495 53.0978 50.3828 53.1112 50.6772C53.1306 51.1039 53.1163 51.5306 53.1163 51.9563L53.1122 51.9604Z" fill="#0B0B0B"/>
<path d="M19.7788 54.7287C19.7788 52.7799 19.79 50.8362 19.7695 48.8905C19.7695 48.4997 19.8783 48.4043 20.2578 48.4104C21.5368 48.435 22.822 48.4104 24.098 48.4227C28.0479 48.4699 30.6624 51.3552 30.2522 55.4365C29.9034 58.9105 27.6079 60.9752 24.1267 61.0522C22.8128 61.084 21.4978 61.045 20.1839 61.0665C19.8208 61.0727 19.7736 60.926 19.7736 60.6173C19.7839 58.6541 19.7788 56.6909 19.7788 54.7287ZM21.7973 54.6846C21.7973 56.0324 21.8055 57.3802 21.7922 58.7269C21.7922 59.0346 21.8732 59.1515 22.1933 59.1372C22.7902 59.1156 23.3882 59.1464 23.9841 59.129C25.1216 59.0962 26.1771 58.8213 27.0294 58.011C28.1249 56.9627 28.3515 55.6252 28.2531 54.2025C28.1095 52.1429 26.8243 50.7306 24.8078 50.4075C23.9636 50.271 23.1041 50.3675 22.2527 50.3336C21.8938 50.3193 21.7861 50.4362 21.7912 50.7921C21.8096 52.0917 21.7984 53.3881 21.7973 54.6846Z" fill="#0B0B0B"/>
<path d="M67.4462 60.0103C66.5939 61.0555 65.5487 61.435 64.3107 61.3437C61.8962 61.1581 60.531 58.6831 61.7998 56.7455C62.4152 55.806 63.3783 55.4193 64.4532 55.3147C65.4555 55.1993 66.4709 55.3299 67.4113 55.6952C67.6544 54.7628 67.1149 53.8489 66.1364 53.5823C65.0697 53.2848 64.0983 53.4879 63.3127 54.291C63.0644 54.5444 62.9106 54.5628 62.6603 54.3259C62.4223 54.1056 62.1652 53.9068 61.8921 53.732C61.65 53.573 61.6818 53.4458 61.8541 53.254C62.9055 52.0786 64.2512 51.6878 65.7733 51.7729C66.2854 51.7912 66.7913 51.8913 67.2719 52.0694C68.6914 52.6284 69.3756 53.7177 69.4084 55.1988C69.4474 57.0245 69.4145 58.8513 69.4258 60.678C69.4258 60.9632 69.3458 61.0883 69.0494 61.0606C68.8801 61.0442 68.7078 61.0606 68.5365 61.0606C67.5714 61.0596 67.5714 61.0586 67.4462 60.0103ZM65.0522 59.7108C66.2451 59.7006 67.1908 58.9026 67.4452 57.7374C67.518 57.404 67.4514 57.245 67.1313 57.1219C66.3555 56.8057 65.5061 56.715 64.6809 56.8604C64.1999 56.9476 63.7763 57.1548 63.526 57.6133C62.9537 58.6615 63.7188 59.719 65.0522 59.7108Z" fill="#0B0B0B"/>
<path d="M73.4766 54.7995C73.4766 56.7268 73.4663 58.653 73.4848 60.5793C73.4848 60.9547 73.3966 61.1004 73.0048 61.0675C72.5319 61.0265 71.9175 61.2132 71.617 60.9783C71.2949 60.726 71.5144 60.0849 71.5144 59.6151C71.5042 56.0519 71.5144 52.4886 71.5001 48.9253C71.5001 48.5325 71.5873 48.3714 72.0006 48.4125C72.3418 48.4445 72.6852 48.4445 73.0263 48.4125C73.3822 48.3817 73.4899 48.4986 73.4858 48.8628C73.4663 50.8444 73.4756 52.8219 73.4766 54.7995Z" fill="#0B0B0B"/>
<path d="M77.8267 56.5871C77.8267 57.9205 77.8154 59.2457 77.8338 60.575C77.8338 60.937 77.7702 61.1186 77.361 61.0663C76.8789 61.0047 76.2502 61.2786 75.9424 60.9514C75.6604 60.6529 75.8645 60.0396 75.8624 59.5667C75.8553 57.2661 75.8789 54.9654 75.844 52.6648C75.8368 52.1242 76.003 51.9735 76.5045 52.0371C76.7929 52.0683 77.0839 52.0683 77.3723 52.0371C77.7333 52.0042 77.839 52.1396 77.8338 52.4976C77.8164 53.8608 77.8267 55.2239 77.8267 56.5871Z" fill="#0B0B0B"/>
<path d="M76.8609 50.8942C76.6858 50.8982 76.5117 50.8669 76.349 50.8022C76.1863 50.7374 76.0383 50.6405 75.9138 50.5173C75.7894 50.3941 75.691 50.2471 75.6246 50.0851C75.5583 49.923 75.5252 49.7492 75.5275 49.5741C75.5271 49.313 75.604 49.0577 75.7485 48.8402C75.893 48.6228 76.0987 48.453 76.3396 48.3523C76.5805 48.2516 76.8458 48.2245 77.1021 48.2743C77.3584 48.3242 77.5942 48.4489 77.7797 48.6326C77.9653 48.8162 78.0923 49.0508 78.1447 49.3065C78.1972 49.5623 78.1727 49.8279 78.0745 50.0698C77.9762 50.3117 77.8085 50.5191 77.5925 50.6658C77.3765 50.8125 77.1219 50.892 76.8609 50.8942Z" fill="#0B0B0B"/>
</svg>
