<svg width="79" height="66" viewBox="0 0 79 66" fill="none" xmlns="http://www.w3.org/2000/svg">
<g clip-path="url(#clip0_3360_4392)">
<path d="M43.2619 10.918L52.5227 10.9421H53.4641V11.8884C53.4641 14.7061 53.4641 17.5244 53.4641 20.3432C53.4641 20.635 53.5093 20.9251 53.5318 21.2169C53.5076 21.5087 53.4641 21.8004 53.4625 22.0906C53.4625 27.4639 53.4625 32.8371 53.4625 38.2104V39.1518H52.5227C47.1495 39.1518 41.7762 39.1518 36.4029 39.1518C36.1079 39.1518 35.8145 39.1776 35.5196 39.1905C34.8506 39.1776 34.1816 39.1534 33.5126 39.1518C31.0721 39.1518 28.6316 39.1518 26.191 39.1518H25.3173V38.3087C25.3173 35.4378 25.3173 32.5685 25.3173 29.6992C25.2994 29.4087 25.2638 29.1197 25.2109 28.8335C25.2109 28.5385 25.2206 28.2419 25.2206 27.9469C25.2206 22.6016 25.2206 17.2568 25.2206 11.9126C25.2206 11.6047 25.2657 11.2968 25.2964 10.918H43.2619Z" fill="#079CA7"/>
<path d="M35.5273 39.1923C35.8223 39.1794 36.1157 39.1536 36.4107 39.1536C41.784 39.1536 47.1572 39.1536 52.5305 39.1536H53.4703V38.2123C53.4703 32.839 53.4703 27.4657 53.4703 22.0924C53.4703 21.8023 53.5154 21.5105 53.5396 21.2188H63.7032V49.3752H35.5273V39.1923Z" fill="#F2BF1D"/>
<path d="M43.2599 10.9197H25.2911C25.2605 11.2985 25.2154 11.6064 25.2154 11.9143C25.2154 17.2574 25.2154 22.6022 25.2154 27.9486C25.2154 28.2436 25.2154 28.5402 25.2057 28.8352H15.0938V0.683594H43.2486C43.2502 4.07681 43.2599 7.49905 43.2599 10.9197Z" fill="#3F6B4B"/>
<path d="M75.1541 58.1523C77.2626 58.1523 78.773 59.637 78.773 61.7116C78.773 63.7862 77.2658 65.2966 75.1767 65.3063C73.0875 65.316 71.4691 63.7508 71.4885 61.6923C71.5078 59.6338 73.0456 58.1507 75.1541 58.1523ZM77.1046 61.5794C77.1052 61.4572 77.0987 61.335 77.0852 61.2135C76.9241 60.1367 76.1535 59.458 75.117 59.4758C74.0805 59.4935 73.3438 60.1625 73.2294 61.2731C73.1939 61.5908 73.1939 61.9114 73.2294 62.229C73.3906 63.5525 74.5319 64.2666 75.8086 63.8523C76.6774 63.5686 77.1143 62.8513 77.1046 61.5794Z" fill="#0B0B0B"/>
<path d="M50.133 58.2212C49.2738 59.3898 48.521 60.4006 47.7875 61.4048L50.2281 65.0963C50.1201 65.1672 50.083 65.2155 50.0427 65.2172C48.4307 65.272 48.4307 65.272 47.557 63.9131C47.2959 63.5068 47.0186 63.1071 46.7688 62.7009C46.5189 62.2946 46.2078 62.1479 45.6871 62.3108V65.1898H44.0703V58.2679H45.6613V60.9922C46.1643 61.1533 46.3916 60.9003 46.5963 60.6004C47.0057 60.0056 47.4361 59.4221 47.8198 58.8095C47.9293 58.6094 48.0957 58.4463 48.2981 58.341C48.5004 58.2356 48.7295 58.1928 48.9562 58.2179C49.2883 58.2324 49.63 58.2212 50.133 58.2212Z" fill="#0B0B0B"/>
<path d="M52.5486 65.1862H50.9141V58.2289C51.9747 58.2289 53.0403 58.1354 54.1026 58.3046C55.1407 58.4658 55.7613 59.0091 55.9402 59.8554C56.1288 60.75 55.779 61.5302 54.9263 62.1202C54.8602 62.1653 54.7876 62.2024 54.7651 62.2169C55.3615 63.1841 55.9596 64.1513 56.5689 65.1282C56.4923 65.1656 56.4117 65.1943 56.3287 65.2136C54.512 65.2055 54.857 65.4183 54.0075 63.9466C53.7673 63.5307 53.5239 63.1196 53.2627 62.6828L52.5518 62.6489L52.5486 65.1862ZM52.5486 61.5351C53.2047 61.5173 53.8511 61.6463 54.238 60.9821C54.3423 60.8241 54.3979 60.6388 54.3979 60.4494C54.3979 60.26 54.3423 60.0747 54.238 59.9166C53.8156 59.2992 53.1805 59.4443 52.5486 59.4766V61.5351Z" fill="#0B0B0B"/>
<path d="M60.3501 58.2301C61.3173 58.2301 62.2555 58.2221 63.1904 58.2301C63.4318 58.239 63.6712 58.278 63.9029 58.3462C64.9942 58.6444 65.5907 59.4117 65.5939 60.5014C65.5971 61.5911 65.0458 62.4084 63.9577 62.6921C63.3452 62.8533 62.6923 62.8533 61.9831 62.9452V65.1681H60.4146C60.2663 64.6668 60.2099 59.6809 60.3501 58.2301ZM61.9831 61.6588C62.6811 61.6363 63.3855 61.8394 63.7982 61.1752C63.9233 60.982 63.9871 60.7556 63.9814 60.5255C63.9756 60.2954 63.9005 60.0724 63.7659 59.8856C63.3081 59.2554 62.6375 59.4778 61.9831 59.4553V61.6588Z" fill="#0B0B0B"/>
<path d="M14.6992 58.3161C15.7003 58.3161 16.6336 58.2758 17.5734 58.3258C19.598 58.4322 20.9102 60.2022 20.6007 62.3558C20.375 63.8968 19.4078 64.9688 17.8361 65.1622C16.8125 65.2847 15.7615 65.1864 14.6992 65.1864V58.3161ZM15.6664 64.4223C16.3338 64.4223 16.9786 64.4739 17.6105 64.411C18.5776 64.3127 19.2337 63.7388 19.5319 62.8184C19.7584 62.1244 19.7545 61.3757 19.5207 60.6841C19.2386 59.8282 18.6566 59.2463 17.7475 59.1447C17.0672 59.0689 16.3708 59.1302 15.6664 59.1302V64.4223Z" fill="#0B0B0B"/>
<path d="M28.9962 60.2738V65.1904H28.2031V58.3588L28.8479 58.3088L32.9117 63.5832V58.354L33.6984 58.3008V65.163C33.239 65.358 32.9778 65.1114 32.7134 64.7632C31.6769 63.393 30.6179 62.0374 29.5749 60.6785C29.4492 60.5173 29.3073 60.3657 29.1751 60.2094L28.9962 60.2738Z" fill="#0B0B0B"/>
<path d="M65.9922 58.2461H71.4729V59.5357H69.5579V65.1776H67.9459V59.5566H65.9922V58.2461Z" fill="#0B0B0B"/>
<path d="M6.20006 59.1201L5.80835 59.6698C5.72367 59.6586 5.64008 59.6402 5.55849 59.615C5.11358 59.4425 4.68318 59.1733 4.22377 59.1056C2.30229 58.8235 1.0933 59.9954 1.20936 61.9814C1.33832 64.1624 3.19533 65.1183 5.3586 64.1205C5.36989 63.919 5.38923 63.6852 5.39568 63.4531C5.40213 63.221 5.39568 62.9776 5.39568 62.6874L4.20765 62.6149V61.9121H6.26937C6.26937 62.357 6.26937 62.8003 6.26937 63.2452C6.26937 63.6901 6.26937 64.1011 6.26937 64.5557C5.02009 65.3488 3.69988 65.539 2.33453 65.057C0.827325 64.5186 -0.0060688 62.8615 0.27764 61.1173C0.722547 58.3786 3.85785 57.2792 6.20006 59.1201Z" fill="#0B0B0B"/>
<path d="M40.9705 59.1312C40.8222 59.344 40.7013 59.5133 40.545 59.7357C40.1493 59.4289 39.6884 59.2171 39.1979 59.1167C38.7074 59.0164 38.2003 59.0302 37.716 59.157C37.2183 59.28 36.7831 59.5811 36.4925 60.0033C35.7719 61.0285 35.8283 62.7614 36.6198 63.6931C37.4113 64.6249 38.8621 64.7716 40.1758 64.0768V62.6776L38.9943 62.6115C38.9749 62.3955 38.9556 62.1779 38.933 61.9167H41.0286V64.4959C39.5971 65.6743 37.1082 65.5646 35.917 64.2557C34.7257 62.9468 34.7273 60.5369 35.9428 59.236C37.1582 57.9351 39.4553 57.8723 40.9705 59.1312Z" fill="#0B0B0B"/>
<path d="M12.1675 58.2969H13.0766C13.0895 58.4984 13.1137 58.7031 13.1137 58.9062C13.1137 60.1136 13.1298 61.3242 13.1137 62.5267C13.0799 64.8335 10.9988 65.7507 9.30945 65.1059C8.27778 64.7093 7.69747 63.9162 7.65717 62.8491C7.58947 61.3387 7.63783 59.8428 7.63783 58.3001H8.57761C8.57761 59.5687 8.57761 60.7987 8.57761 62.027C8.56914 62.3201 8.5783 62.6135 8.60502 62.9055C8.72753 63.8904 9.41101 64.474 10.4169 64.4579C11.3631 64.4434 12.045 63.8534 12.1336 62.8942C12.1917 62.2495 12.1627 61.6047 12.1659 60.9599C12.1691 60.112 12.1675 59.2544 12.1675 58.2969Z" fill="#0B0B0B"/>
<path d="M27.3358 65.194H26.404L25.6416 63.3434H22.5885C22.3289 63.9721 22.0759 64.5814 21.826 65.1843H20.9023C21.8244 62.8598 22.719 60.6014 23.6314 58.2963L24.5696 58.2383L27.3358 65.194ZM24.1231 59.3086L22.8625 62.6003H25.3675C24.9533 61.5042 24.5519 60.4435 24.1231 59.3086Z" fill="#0B0B0B"/>
<path d="M58.9859 65.205H57.4336V58.2734H58.9859V65.205Z" fill="#0B0B0B"/>
</g>
<defs>
<clipPath id="clip0_3360_4392">
<rect width="78.5502" height="64.6356" fill="white" transform="translate(0.226562 0.683594)"/>
</clipPath>
</defs>
</svg>
