<svg width="123" height="49" viewBox="0 0 123 49" fill="none" xmlns="http://www.w3.org/2000/svg">
<path d="M65.9059 35.423C63.9636 35.232 62.1097 34.5172 60.542 33.3549C59.5445 32.5914 58.6933 31.6537 58.0295 30.5872C57.2684 29.339 56.7406 27.9628 56.4718 26.5258C56.4146 26.275 56.4718 25.9846 56.4234 25.7161C56.442 25.4377 56.4137 25.1581 56.3398 24.8889C56.3882 24.5651 56.3882 24.2359 56.3398 23.9121C56.416 23.6796 56.4444 23.4342 56.4234 23.1904C56.5375 21.784 56.9346 20.4151 57.591 19.1659C58.2473 17.9168 59.1493 16.8131 60.2428 15.9213C61.7148 14.7143 63.495 13.9431 65.3822 13.6948C68.722 13.2548 71.7801 13.9588 74.4159 16.1633C75.9833 17.464 77.0986 19.2278 77.6016 21.2015C77.6852 21.5096 77.6016 21.5404 77.3552 21.536C75.9779 21.536 74.6051 21.536 73.2322 21.536C73.0078 21.536 72.9198 21.4568 72.8142 21.2279C72.4127 20.3882 71.8077 19.6622 71.0541 19.1159C70.9793 18.9222 70.7989 18.8738 70.6141 18.8034C69.9303 18.4171 69.1866 18.1479 68.414 18.007C68.2023 17.9094 67.9654 17.8802 67.7364 17.9234C64.7662 17.6946 62.3241 19.1335 61.2901 22.086C61.2574 22.2304 61.2411 22.378 61.2417 22.526C61.1053 22.68 61.1361 22.8868 61.0921 23.0672C60.7708 25.0869 60.9821 26.9966 62.2185 28.6995L62.5661 29.1395C63.4039 30.19 64.6238 30.8656 65.9587 31.0184C66.1329 31.1048 66.33 31.1341 66.5219 31.102C67.5018 31.221 68.4959 31.1188 69.4311 30.8028C70.3662 30.4867 71.2185 29.965 71.9253 29.2759C72.4406 28.8079 72.8219 28.211 73.0298 27.5466H71.6657C70.1829 27.5466 68.7 27.5466 67.2171 27.5466C66.8827 27.5466 66.7771 27.4674 66.7771 27.1066C66.7771 26.099 66.7771 25.0957 66.7771 24.0881C66.9927 24.0881 67.2171 24.0397 67.4283 24.0397H75.2431C76.1583 24.0397 77.0736 24.0397 77.9888 24.0705V25.0033C77.9084 25.2287 77.8798 25.4694 77.9052 25.7074C77.7116 27.0631 77.3186 28.3827 76.7392 29.6235C76.0501 31.0747 75.0289 32.3431 73.7584 33.3262C72.4879 34.3093 71.0037 34.9794 69.426 35.2822C69.162 35.335 68.8936 35.3746 68.6296 35.423C68.4314 35.3925 68.2286 35.4185 68.0444 35.4978H66.7243C66.4594 35.4176 66.1809 35.3922 65.9059 35.423Z" fill="#0B0B0B"/>
<path d="M101.404 23.1892C101.595 21.1262 102.379 19.1626 103.661 17.535C104.86 15.9727 106.493 14.7987 108.356 14.16C109.182 13.8949 110.028 13.7006 110.886 13.5792C111.166 13.6056 111.448 13.5787 111.718 13.5H112.69C112.922 13.5788 113.169 13.6058 113.412 13.5792C115.888 13.8333 118.185 14.9872 119.867 16.8221C120.997 18.076 121.803 19.5864 122.217 21.2223C122.252 21.3632 122.3 21.4952 122.349 21.6316C122.349 21.988 122.089 21.8648 121.909 21.8648C120.54 21.8648 119.172 21.8648 117.803 21.8648C117.518 21.019 117.041 20.2509 116.409 19.6207C115.491 18.6986 114.283 18.1219 112.99 17.9882C111.86 17.7981 110.7 17.9514 109.659 18.4282C107.186 19.6251 106.046 21.6932 105.993 24.3861C105.936 27.4662 107.564 29.8907 110.266 30.806C110.584 30.9461 110.93 31.0137 111.278 31.004C111.457 31.0915 111.659 31.1192 111.854 31.0832C113.281 31.2227 114.706 30.7907 115.815 29.8819C116.711 29.1776 117.373 28.219 117.715 27.1318C117.742 27.0311 117.804 26.9431 117.889 26.8835C117.974 26.8239 118.078 26.7965 118.182 26.8062C119.502 26.8062 120.782 26.8062 122.085 26.8062C122.366 26.8062 122.476 26.8414 122.402 27.167C121.636 30.4364 119.863 32.9313 116.809 34.4361C115.739 34.9489 114.591 35.279 113.412 35.413C113.169 35.3864 112.922 35.4134 112.69 35.4922H111.705C111.438 35.4196 111.162 35.3928 110.886 35.413C108.877 35.2404 106.964 34.4746 105.39 33.2129C104.123 32.2126 103.109 30.9284 102.429 29.4639C101.842 28.251 101.494 26.9363 101.404 25.5917C101.422 25.1675 101.394 24.7426 101.32 24.3245C101.369 24.1818 101.369 24.0271 101.32 23.8845C101.399 23.6618 101.428 23.4243 101.404 23.1892Z" fill="#0B0B0B"/>
<path d="M87.468 34.8406C86.808 33.1333 86.1479 31.4128 85.4747 29.7144C85.1552 28.8018 84.7865 27.9073 84.3703 27.0346C84.4363 26.8982 84.3439 26.8058 84.2779 26.7046L83.6354 25.0545C83.6838 24.9093 83.5606 24.8301 83.5034 24.7245L79.332 13.9617H84.1194C84.4891 13.9617 84.4803 14.2829 84.5595 14.4853C85.2459 16.3906 85.9015 18.309 86.5792 20.2055C87.5707 22.9777 88.5651 25.7468 89.5625 28.5131C89.6003 28.5773 89.6462 28.6365 89.6989 28.6891C90.0685 27.6463 90.4337 26.6474 90.7725 25.6398C91.4766 23.5629 92.1806 21.4816 92.933 19.4179C93.5491 17.7458 94.1211 16.0561 94.6931 14.3665C94.7043 14.2965 94.7293 14.2295 94.7667 14.1693C94.8041 14.1092 94.8531 14.0571 94.9109 14.0161C94.9687 13.9751 95.034 13.9461 95.1032 13.9307C95.1723 13.9153 95.2438 13.9139 95.3135 13.9265C96.792 13.9485 98.2705 13.9265 99.8061 13.9265C99.1109 15.7745 98.4377 17.5698 97.7601 19.3651C95.8856 24.3197 94.0126 29.2729 92.141 34.2246C92.0706 34.4094 92.0266 34.603 91.9694 34.7922C91.9149 34.8638 91.8417 34.9189 91.7578 34.9515C91.674 34.9841 91.5827 34.9929 91.4942 34.977H87.9388C87.754 35.0166 87.5736 35.021 87.468 34.8406Z" fill="#0B0B0B"/>
<path d="M0.631859 20.2053L0.613281 19.8816V18.2892C0.744076 16.2129 1.46604 14.2174 2.69399 12.538C3.3507 11.6169 4.13327 10.7923 5.01886 10.0884C6.86101 8.61558 9.07826 7.68713 11.4202 7.40792C11.5848 7.38669 11.7467 7.35749 11.9086 7.33095C12.0501 7.34446 12.193 7.32819 12.3279 7.28318H14.0742L14.4935 7.32564C14.6781 7.3391 14.8611 7.3693 15.0402 7.41588C15.364 7.53265 15.571 7.33361 15.7701 7.15048C16.6804 6.41003 17.5695 5.64038 18.4851 4.90523C18.785 4.66372 19.0902 4.41424 19.3742 4.1515C19.4497 4.06977 19.5537 4.02009 19.6648 4.01268C19.7759 4.00528 19.8856 4.04071 19.9713 4.11169C20.0519 4.17126 20.1068 4.2592 20.1251 4.35773C20.1433 4.45626 20.1234 4.55803 20.0695 4.64249C19.5997 5.66957 19.1486 6.69135 18.6629 7.70781C18.3763 8.32088 18.3683 8.31027 18.9548 8.59689C20.1522 9.16725 21.2514 9.92422 22.2113 10.8395C23.0359 11.6378 23.7499 12.5429 24.3344 13.5306C24.3716 13.5917 24.3795 13.6845 24.5016 13.6978C24.5578 13.1768 24.6911 12.6669 24.8971 12.1851C25.217 11.546 25.7698 11.054 26.4417 10.8103C27.1476 10.5051 27.9199 10.3538 28.5648 9.94245C28.8297 9.77692 29.0777 9.5858 29.3053 9.37185C29.3325 9.35465 29.3556 9.33172 29.3729 9.30465C29.3903 9.27758 29.4015 9.24704 29.4058 9.21517C29.4101 9.1833 29.4074 9.15087 29.3978 9.12017C29.3882 9.08947 29.3721 9.06123 29.3504 9.03745C29.2252 8.84891 29.1503 8.63147 29.1328 8.40581L29.0797 8.07141C29.0466 7.67467 29.1205 7.27632 29.2937 6.91783C29.4669 6.55935 29.733 6.25386 30.0643 6.03316C30.3682 5.82396 30.7172 5.68946 31.0828 5.6406C31.4485 5.59174 31.8206 5.6299 32.1687 5.75198C32.5168 5.87406 32.8312 6.07661 33.0863 6.34315C33.3414 6.60968 33.5299 6.93267 33.6366 7.28584C33.687 7.44507 33.7401 7.52204 33.902 7.55123C34.3505 7.63085 34.7751 7.83521 35.229 7.81663C35.4495 7.88423 35.6852 7.88423 35.9057 7.81663C36.3569 7.81663 36.7683 7.64412 37.2008 7.55123C37.5193 7.48488 37.8351 7.40526 38.1536 7.33361L38.5066 7.28584C38.9567 7.2699 39.405 7.35208 39.8202 7.52669C40.2354 7.70129 40.6076 7.96414 40.9111 8.297C41.3466 8.79353 41.8072 9.26745 42.2912 9.71687C42.8591 10.1733 43.5491 10.3459 44.202 10.6033C44.9159 10.882 45.6245 11.1659 46.0943 11.8294C46.4451 12.3341 46.6423 12.9296 46.6622 13.5439C46.7143 14.8678 47.1648 16.1452 47.9547 17.209C48.2796 17.6746 48.5021 18.2037 48.6076 18.7616C48.6076 18.9792 48.6076 19.1995 48.6076 19.4198C48.4537 20.2929 47.9759 21.0121 47.4956 21.7234C47.0398 22.4295 46.7738 23.2412 46.7233 24.0801C46.7017 24.7349 46.5624 25.3803 46.3119 25.9857C45.9706 26.6672 45.3762 27.1882 44.6558 27.4374C44.141 27.6417 43.6181 27.8328 43.098 28.0239C42.6579 28.2016 42.2621 28.4733 41.9382 28.8201C41.7949 28.9608 41.8187 29.043 41.9647 29.1519C42.4239 29.4889 42.8697 29.8472 43.3368 30.1763C43.688 30.4252 43.9566 30.7737 44.108 31.1767C44.2594 31.5797 44.2866 32.0188 44.1861 32.4375C44.0956 32.8636 43.8762 33.2517 43.5576 33.5489C43.239 33.8461 42.8367 34.0381 42.4053 34.0988C41.9118 34.2164 41.3938 34.1738 40.9261 33.9772C40.4585 33.7806 40.0656 33.4402 39.8044 33.0054C39.3506 32.3446 38.8622 31.7103 38.3872 31.0654C38.2866 30.9557 38.1481 30.8883 37.9997 30.8769C37.4689 30.7575 36.954 30.6115 36.4312 30.4868C35.7146 30.3063 35.0193 30.4204 34.308 30.5638C33.8356 30.6593 33.6658 31.0229 33.4269 31.3281C32.9227 31.9704 32.4635 32.6551 31.9593 33.292C31.7524 33.5612 31.4863 33.779 31.1816 33.9286C30.8769 34.0782 30.5418 34.1555 30.2023 34.1546C29.8978 34.1823 29.5908 34.1497 29.2989 34.0586C29.0069 33.9676 28.7359 33.8198 28.5011 33.6238C28.1362 33.2959 27.8945 32.8528 27.8164 32.3685V31.6439C27.9305 30.7495 28.5516 30.2506 29.2496 29.8153C29.3106 29.7782 29.3637 29.7278 29.4247 29.688C29.8281 29.4226 29.8175 29.4226 29.4911 29.0616C28.9335 28.4654 28.2272 28.0285 27.4449 27.7957C27.1795 27.7134 26.8902 27.4586 26.7018 27.5913C26.5133 27.724 26.5133 28.077 26.4364 28.3371C25.8313 30.4603 25.2279 32.5834 24.6264 34.7066C24.5282 35.049 24.4273 35.3913 24.3212 35.7549H27.6572C27.7772 35.7425 27.8984 35.7598 28.0102 35.8053C28.0715 35.8287 28.126 35.8671 28.1686 35.9171C28.2111 35.9671 28.2404 36.0271 28.2536 36.0914C28.2668 36.1557 28.2636 36.2223 28.2443 36.285C28.2249 36.3477 28.19 36.4046 28.1429 36.4503C27.6121 37.1801 27.0813 37.902 26.5505 38.6265L22.2511 44.4971C21.262 45.8453 20.2739 47.1944 19.2866 48.5444C19.2489 48.6112 19.1942 48.6668 19.128 48.7055C19.0617 48.7442 18.9864 48.7646 18.9097 48.7646C18.833 48.7646 18.7577 48.7442 18.6915 48.7055C18.6253 48.6668 18.5705 48.6112 18.5329 48.5444C18.5076 48.4138 18.5076 48.2795 18.5329 48.1489C18.8708 47.2165 19.2087 46.2832 19.5467 45.349C19.9395 44.2874 20.3429 43.2126 20.7277 42.1404C20.9931 41.3999 21.2585 40.6568 21.5239 39.911C21.5239 39.911 21.5079 39.8739 21.5 39.8553C21.388 39.8105 21.2653 39.7994 21.147 39.8234C20.0854 39.8234 19.0079 39.8102 17.9357 39.8022C17.6385 39.6536 17.5854 39.3935 17.7977 39.0432C18.1507 38.462 18.509 37.8887 18.8593 37.3101C19.4617 36.3176 20.0881 35.3409 20.6693 34.3377C20.8498 34.0219 21.0621 33.722 21.2505 33.4062C21.2797 33.1991 21.1178 33.3372 21.0541 33.3C20.7245 33.243 20.4106 33.1174 20.1326 32.9313C19.8546 32.7452 19.6188 32.5028 19.4405 32.2198C18.9734 31.559 18.4877 30.9088 18.0021 30.2586C17.955 30.1855 17.882 30.133 17.7977 30.1119C17.7134 30.0907 17.6242 30.1023 17.5482 30.1444C16.6907 30.4478 15.8039 30.6612 14.9022 30.7814C14.7883 30.7675 14.6726 30.7849 14.5678 30.8318L14.1724 30.853L13.424 30.8955H12.9224L12.174 30.8477C10.993 30.7869 9.82884 30.5416 8.7238 30.1206C8.56191 30.0569 8.47433 30.0967 8.37082 30.24C7.82941 30.9795 7.28093 31.7138 6.72536 32.4428C6.38326 32.8838 5.89469 33.1878 5.34796 33.3H4.42438C3.93435 33.2441 3.47906 33.0194 3.13667 32.6644C2.79428 32.3095 2.58615 31.8464 2.54802 31.3546V30.8955C2.60376 29.9905 3.19294 29.4517 3.875 28.9847C4.21602 28.715 4.57033 28.4625 4.93659 28.2283C5.11706 28.1301 4.98436 28.0053 4.90209 27.9416C3.59982 26.9322 2.53828 25.6458 1.7943 24.1757C1.34482 23.3351 1.02197 22.4327 0.836214 21.4978C0.775173 21.182 0.730056 20.8662 0.676976 20.5477C0.695204 20.4316 0.679538 20.3127 0.631859 20.2053ZM37.3123 13.512C37.3521 13.3873 37.4742 13.3687 37.5777 13.321C38.4774 12.8539 39.3851 12.3947 40.2821 11.9197C40.5397 11.7986 40.756 11.6045 40.9042 11.3615C41.0524 11.1185 41.1258 10.8373 41.1154 10.5529C41.1233 10.2787 41.0525 10.0081 40.9114 9.77293C40.7703 9.53777 40.5648 9.34794 40.3193 9.22588C40.0205 9.06113 39.6735 9.00623 39.3385 9.07071C39.0035 9.13519 38.7016 9.31499 38.4854 9.57886C37.8696 10.2583 37.2778 10.9616 36.678 11.6516C36.5851 11.7578 36.5082 11.8984 36.3357 11.7684C36.2756 11.6902 36.2061 11.6198 36.1286 11.5587C35.9004 11.4101 35.8978 11.2933 36.0941 11.0863C36.5374 10.6245 36.954 10.1388 37.3707 9.65317C37.9333 8.99233 38.4933 8.32619 39.4939 8.26515C39.3763 8.18329 39.2387 8.13469 39.0958 8.12449C38.5887 8.08862 38.0794 8.14711 37.5936 8.297C36.7284 8.51462 35.8659 8.76675 34.9556 8.58893C34.6371 8.52789 34.3186 8.45889 33.9683 8.38723C34.0798 8.8676 34.1833 9.3055 34.2868 9.74075C34.4248 10.3087 34.4248 10.3087 33.8675 10.4865C33.847 10.4941 33.8274 10.5039 33.8091 10.5157C33.5835 10.5529 33.6021 10.3644 33.5729 10.2503C33.3393 9.33204 33.1323 8.40846 32.8828 7.4955C32.7952 7.19099 32.6113 6.92303 32.3587 6.73168C32.1062 6.54033 31.7984 6.43587 31.4816 6.43391C31.1689 6.42799 30.862 6.51823 30.6024 6.69243C30.3428 6.86664 30.1429 7.1164 30.0298 7.40792C29.9341 7.67487 29.9097 7.96219 29.959 8.24146C30.0084 8.52074 30.1297 8.7823 30.3112 9.0003C30.9269 9.86018 31.5718 10.6962 32.1318 11.5959C31.9904 11.6814 31.8556 11.7772 31.7284 11.8825C31.5506 12.0417 31.463 12.0019 31.3197 11.8135C30.9216 11.2323 30.4969 10.6643 30.0962 10.0831C29.9847 9.92122 29.9184 9.86814 29.7618 10.0433C29.4179 10.4204 28.9908 10.7121 28.5144 10.8952C27.912 11.1394 27.2962 11.3544 26.6938 11.5985C26.3926 11.7096 26.1241 11.8943 25.9127 12.1358C25.7013 12.3774 25.5538 12.668 25.4836 12.9812C25.3137 13.6925 25.2766 14.4223 25.1572 15.1416C25.1556 15.2408 25.1774 15.339 25.2208 15.4282C26.049 17.7951 26.049 20.373 25.2208 22.7399C25.1731 22.839 25.1512 22.9485 25.1572 23.0583C25.258 23.7351 25.3403 24.4145 25.4544 25.0913C25.4967 25.4161 25.6364 25.7206 25.8551 25.9644C26.1205 25.5239 26.3859 25.1152 26.6328 24.7012C26.7681 24.4703 26.93 24.2924 27.2166 24.4119C27.5033 24.5313 27.482 24.7861 27.4104 25.0329C27.283 25.492 27.1715 25.9538 27.0149 26.3997C26.9273 26.6651 26.991 26.7527 27.2246 26.8323C27.7627 26.9976 28.2879 27.2025 28.7957 27.4454C29.5733 27.8434 30.1227 28.5069 30.696 29.1253C31.3117 29.7941 32.023 30.2453 32.9731 30.033C33.2226 29.9799 33.472 29.9321 33.7162 29.8631C34.7778 29.5685 35.8261 29.3987 36.9009 29.7118C37.2937 29.826 37.6971 29.9056 38.0899 30.0038C38.4807 30.1172 38.8958 30.116 39.2858 30.0002C39.6759 29.8845 40.0244 29.6591 40.2901 29.3509C40.5369 29.0855 40.797 28.8201 41.0358 28.5547C41.6335 27.8492 42.4182 27.3267 43.2997 27.0473C43.6898 26.9225 44.0667 26.7633 44.4488 26.6226C44.8061 26.4986 45.1216 26.277 45.3594 25.9829C45.5972 25.6888 45.7479 25.3339 45.7944 24.9586C45.8352 24.7641 45.8645 24.5674 45.882 24.3694C45.9255 23.08 46.3637 21.835 47.1373 20.8025C47.2381 20.6698 47.3098 20.5185 47.4027 20.3805C47.6741 19.9987 47.8199 19.5419 47.8199 19.0734C47.8199 18.605 47.6741 18.1481 47.4027 17.7663C47.3178 17.6363 47.2514 17.5009 47.1559 17.3736C46.3093 16.2987 45.9828 15.0513 45.8873 13.7111C45.8289 12.9149 45.6219 12.1744 44.8549 11.7471C43.9393 11.2429 42.8803 11.0837 41.9913 10.4918C41.7418 11.8931 41.5082 12.2116 40.2794 12.8565C39.6531 13.1856 39.0268 13.5067 38.3978 13.8305C38.1722 13.9446 37.9227 14.1702 37.7237 14.1331C37.5246 14.0959 37.4609 13.7217 37.3123 13.512ZM14.5864 8.17757C13.6933 8.06465 12.79 8.05752 11.8953 8.15634C9.3909 8.3904 7.02522 9.4125 5.13829 11.0757C2.32243 13.5943 1.03526 16.7366 1.51563 20.5026C1.83452 23.0102 3.07701 25.3087 5.00029 26.9491C7.83472 29.4677 11.1867 30.4231 14.9022 29.9454C17.8626 29.6202 20.5797 28.1541 22.4766 25.8583C24.8652 22.9947 25.6136 19.7144 24.5653 16.1262C23.5993 12.8194 21.3806 10.5714 18.2754 9.1383C18.0551 9.0348 18.01 9.1383 17.9171 9.30285C17.1209 11.0173 16.346 12.7344 15.5445 14.4436C15.0137 15.5556 15.3561 15.2955 14.1644 15.5476C13.1913 15.7489 12.1781 15.5731 11.3297 15.0558C10.4813 14.5385 9.86098 13.7182 9.5943 12.761C9.5558 12.6637 9.55027 12.5566 9.57855 12.4559C9.60684 12.3552 9.66738 12.2666 9.75088 12.2036C10.8372 11.3066 11.9183 10.4096 12.994 9.51251L14.5864 8.17757ZM27.076 36.575H24.0106C23.4798 36.575 23.3206 36.3733 23.4798 35.8505C24.2035 33.3044 24.9271 30.7593 25.6508 28.215C25.6826 28.1035 25.7623 27.9947 25.6747 27.8222L18.8328 39.006H21.9459C22.5297 39.006 22.6837 39.2263 22.4766 39.773C21.8167 41.6078 21.1497 43.4417 20.4756 45.2747C20.4412 45.3284 20.4183 45.3887 20.4082 45.4517C20.3982 45.5147 20.4012 45.5792 20.4172 45.6409L27.076 36.575ZM18.509 6.08093C18.4333 6.08826 18.3598 6.11057 18.2928 6.14657C18.2259 6.18256 18.1667 6.23152 18.1188 6.2906C15.6666 8.33238 13.2152 10.3751 10.7647 12.4186C10.3825 12.7371 10.3825 12.7371 10.6134 13.167C10.9384 13.7767 11.4547 14.2628 12.0828 14.5505C12.7109 14.8381 13.4162 14.9116 14.0901 14.7594C14.2405 14.7436 14.3832 14.6852 14.5017 14.5912C14.6201 14.4972 14.7093 14.3715 14.7589 14.2286C15.587 12.3947 16.4415 10.5688 17.2908 8.7349L18.509 6.08093ZM4.85166 32.4985C5.43819 32.4985 5.79913 32.3499 6.10168 31.9518C6.60859 31.2803 7.09957 30.6009 7.61179 29.9348C7.74979 29.7543 7.71529 29.688 7.52686 29.603C6.98328 29.3576 6.46203 29.0655 5.96898 28.7299C5.92022 28.6859 5.85686 28.6615 5.79117 28.6615C5.72548 28.6615 5.66212 28.6859 5.61335 28.7299C5.08256 29.1519 4.51726 29.5526 3.97851 29.9746C3.39995 30.4258 3.21948 30.999 3.44772 31.6068C3.64676 32.1747 4.15898 32.4958 4.85166 32.4985ZM21.5265 32.4985C21.7707 32.5649 21.9326 32.4189 22.0706 32.1641C22.2835 31.7516 22.5275 31.3559 22.8004 30.9804C23.0287 30.6779 22.9411 30.4496 22.7314 30.232C22.6645 30.158 22.5907 30.0905 22.5111 30.0303C21.9485 29.6057 21.3806 29.189 20.8206 28.7538C20.773 28.7022 20.7069 28.6715 20.6368 28.6685C20.5666 28.6655 20.4982 28.6905 20.4464 28.7378C19.9524 29.0712 19.4323 29.3641 18.8911 29.6136C18.6974 29.7039 18.6762 29.7729 18.8089 29.9401C19.3078 30.5876 19.8014 31.2352 20.2845 31.8934C20.423 32.0943 20.6111 32.2559 20.8307 32.3624C21.0502 32.4689 21.2936 32.5167 21.5371 32.5012L21.5265 32.4985ZM43.4324 31.9969C43.4412 31.7651 43.3913 31.5348 43.2874 31.3274C43.1835 31.12 43.0288 30.9423 42.8379 30.8106C42.3734 30.4549 41.8984 30.1126 41.4392 29.749C41.272 29.6163 41.1738 29.6322 41.0332 29.7808C40.6184 30.2764 40.0719 30.6444 39.4567 30.8424C39.3532 30.869 39.2869 30.9061 39.3771 31.0176C39.8867 31.6705 40.306 32.4003 40.8978 32.9789C41.3835 33.4513 42.0151 33.4327 42.6096 33.1965C42.8526 33.1049 43.0617 32.9411 43.2088 32.7271C43.3558 32.5131 43.4339 32.2592 43.4324 31.9996V31.9969ZM23.4905 29.8233C24.0982 28.8307 24.7007 27.8434 25.3084 26.8615C25.3257 26.841 25.3388 26.8173 25.3468 26.7918C25.3549 26.7662 25.3578 26.7393 25.3553 26.7126C25.3528 26.6859 25.3451 26.66 25.3325 26.6363C25.3199 26.6127 25.3027 26.5918 25.2819 26.5749C24.9479 26.1787 24.7261 25.7003 24.6396 25.1895C24.5892 24.94 24.5441 24.6905 24.4857 24.3933C23.7372 25.7733 22.7234 26.9917 21.5026 27.9788C21.3169 28.1301 21.4098 28.1885 21.5371 28.2893C22.19 28.783 22.8986 29.2182 23.4905 29.826V29.8233ZM32.6997 30.9406C31.7814 30.9406 31.3727 30.784 30.6057 30.1842C30.5864 30.1617 30.5628 30.1433 30.5364 30.1299C30.5099 30.1165 30.481 30.1085 30.4515 30.1062C30.4219 30.104 30.3921 30.1077 30.364 30.1169C30.3358 30.1262 30.3097 30.141 30.2873 30.1604C29.8971 30.4258 29.4911 30.6912 29.1116 30.9565C28.9688 31.0617 28.851 31.1972 28.7666 31.3531C28.6821 31.5091 28.6332 31.6818 28.6232 31.8589C28.5875 32.13 28.64 32.4053 28.7728 32.6443C28.9057 32.8833 29.1119 33.0732 29.361 33.1859C29.9104 33.4513 30.7491 33.377 31.1339 32.9683C31.7124 32.3552 32.1663 31.6333 32.6997 30.9433V30.9406Z" fill="#292956"/>
<path d="M33.7442 37.4569C34.6386 37.5736 35.3843 38.0779 36.2018 38.3964C36.609 38.5809 37.0525 38.6716 37.4996 38.6618C37.8624 38.7414 38.2381 38.7414 38.601 38.6618C39.4827 38.5928 40.3276 38.2784 41.04 37.7541C42.0405 37.0535 42.9986 36.2891 43.9805 35.5593C44.8298 34.9276 45.6924 34.3093 46.5363 33.6697C46.9848 33.3299 47.4148 32.969 47.8872 32.6665C48.2508 32.4329 48.3357 32.4409 48.6223 32.7567C48.6223 32.8655 48.6223 32.9743 48.6223 33.0858C47.935 34.1845 47.2317 35.278 46.5629 36.39C45.6032 38.0304 44.4444 39.5458 43.1127 40.9017C41.9875 42.0256 40.7414 43.0216 39.3971 43.8715C37.7808 44.8932 36.0313 45.6872 34.198 46.2309C33.991 46.2946 33.7734 46.3291 33.5611 46.3742C33.1865 46.4007 32.8104 46.4007 32.4358 46.3742C31.4619 46.2492 30.5582 45.8006 29.8699 45.1002C29.1816 44.3999 28.7487 43.4886 28.6406 42.5127V41.4511C28.8397 39.3836 30.6364 37.6878 32.7012 37.4701L33.7442 37.4569ZM46.5894 34.6941C46.4912 34.6941 46.4408 34.7684 46.3718 34.8188C44.6865 36.0688 43.0304 37.356 41.3107 38.5583C40.1713 39.3271 38.7913 39.6553 37.4279 39.4818C36.4831 39.3916 35.6524 39.0121 34.8084 38.6166C34.2199 38.3368 33.5688 38.2146 32.9188 38.262C32.2689 38.3094 31.6424 38.5247 31.1006 38.8869C30.5589 39.2491 30.1205 39.7458 29.8284 40.3284C29.5363 40.9109 29.4004 41.5593 29.4342 42.2101C29.4951 43.0822 29.8698 43.9027 30.4889 44.5199C31.1081 45.1371 31.9298 45.5092 32.802 45.5674C33.6487 45.6072 34.3944 45.302 35.172 45.0366C38.5983 43.7748 41.6229 41.6163 43.9301 38.7865C44.936 37.5736 45.7215 36.2148 46.5416 34.8799C46.5735 34.8215 46.6345 34.7711 46.5788 34.6941H46.5894Z" fill="#292956"/>
<path d="M8.87814 38.4055C9.19808 38.3729 9.50381 38.2566 9.76456 38.0684C10.541 37.6243 11.4325 37.4225 12.3245 37.4892C13.2165 37.5559 14.0682 37.888 14.7699 38.4426C15.2823 38.8313 15.7068 39.3236 16.016 39.8874C16.3251 40.4513 16.5119 41.074 16.564 41.715V42.3094C16.4718 43.36 16.0145 44.345 15.2715 45.0935C14.835 45.5264 14.3126 45.8632 13.7381 46.0821C13.1635 46.3011 12.5495 46.3973 11.9355 46.3647C11.3723 46.3213 10.8196 46.1887 10.298 45.9719C9.09257 45.5364 7.95231 44.9381 6.90889 44.1938C5.81918 43.4218 4.83739 42.5079 3.98953 41.4761C3.11125 40.3911 2.37461 39.1987 1.79736 37.9277C1.46296 37.2218 1.23472 36.4628 0.966665 35.7276C0.872367 35.4016 0.760742 35.0809 0.632266 34.7669C0.579687 34.6809 0.561943 34.578 0.582661 34.4794C0.603379 34.3807 0.660995 34.2937 0.743732 34.2361C0.825133 34.1795 0.923085 34.1516 1.0221 34.1569C1.12111 34.1622 1.21554 34.2003 1.29045 34.2653C2.00702 34.7483 2.7289 35.2234 3.44812 35.7011C4.64241 36.4955 5.83581 37.2917 7.02832 38.0896C7.32248 38.3005 7.67245 38.4196 8.03418 38.432C8.14579 38.4814 8.2694 38.4971 8.38981 38.4771H8.45881C8.60262 38.4967 8.749 38.4717 8.87814 38.4055ZM1.84513 35.6931C1.97252 36.0381 2.0946 36.3752 2.22199 36.7122C3.81437 40.9294 6.73373 43.8116 11.0013 45.3137C11.552 45.5117 12.1431 45.5703 12.7219 45.4843C13.3007 45.3983 13.8492 45.1704 14.3186 44.8209C14.7879 44.4714 15.1634 44.0112 15.4117 43.4813C15.6599 42.9514 15.7732 42.3683 15.7413 41.784C15.6484 40.2739 14.7938 39.2388 13.4695 38.5992C12.9546 38.3496 12.3848 38.2347 11.8134 38.2653C11.242 38.2959 10.6877 38.4711 10.2025 38.7744C9.6344 39.1267 8.97488 39.3034 8.30674 39.2822C7.63859 39.2609 6.99163 39.0427 6.4471 38.6549C5.02192 37.726 3.61532 36.7706 2.20076 35.8311C2.0946 35.7754 2.00967 35.6427 1.84513 35.6931Z" fill="#292956"/>
<path d="M29.0203 0.611196L28.7734 1.18445C28.11 2.73437 27.4447 4.28428 26.7777 5.8342C26.7432 5.91382 26.7034 5.99078 26.6715 6.07306C26.6131 6.21106 26.5494 6.22433 26.4061 6.16064C25.8275 5.91913 25.8382 5.93505 26.0717 5.36445C26.6025 4.11443 27.1598 2.88299 27.6641 1.6197C27.8286 1.20568 28.0064 0.791666 28.1949 0.390917C28.2427 0.295374 28.2825 0.202485 28.4045 0.244949C28.5877 0.311298 28.7655 0.396225 28.9353 0.475844C28.9644 0.482798 28.9896 0.500869 29.0054 0.526176C29.0213 0.551483 29.0266 0.582008 29.0203 0.611196Z" fill="#292956"/>
<path d="M22.5302 5.93158C22.4241 5.22563 22.3153 4.51702 22.2144 3.80841C22.1401 3.27762 22.0844 2.74683 22.0127 2.21603C21.9411 1.68524 21.8535 1.13322 21.7712 0.591807C21.7712 0.551997 21.7234 0.488302 21.7367 0.477686C21.9304 0.31314 22.1852 0.376836 22.4082 0.318448C22.5541 0.278639 22.578 0.363566 22.5966 0.498918C22.716 1.36676 22.862 2.2293 22.9814 3.09715C23.1008 3.965 23.1725 4.79569 23.3397 5.63169C23.4114 5.99263 23.284 6.0404 23.0159 6.06694C22.939 6.06694 22.8646 6.08817 22.7877 6.09878C22.6417 6.13594 22.5674 6.06428 22.5302 5.93158Z" fill="#292956"/>
<path d="M16.7735 0.278623C16.9513 0.260045 16.9088 0.448476 16.9327 0.544019C17.1477 1.34021 17.3441 2.16294 17.5431 2.97505C17.6811 3.543 17.6758 3.54035 17.1238 3.68366C16.9407 3.73143 16.8584 3.72612 16.808 3.49257C16.593 2.55307 16.3382 1.6348 16.0994 0.689987C16.0622 0.554635 16.0542 0.45113 16.2427 0.424591C16.422 0.385149 16.5992 0.336427 16.7735 0.278623Z" fill="#2A2A56"/>
<path d="M14.5878 8.17602L12.9954 9.503C11.9179 10.4053 10.8386 11.305 9.75757 12.2021C9.67407 12.265 9.61353 12.3537 9.58524 12.4543C9.55695 12.555 9.56249 12.6622 9.60099 12.7594C9.86768 13.7172 10.4884 14.5379 11.3374 15.0553C12.1864 15.5727 13.2003 15.7481 14.1738 15.5461C15.3654 15.2807 15.0337 15.5461 15.5538 14.442C16.35 12.7329 17.1462 11.0158 17.9265 9.3013C18.0087 9.12614 18.0645 9.0359 18.2848 9.13675C21.3819 10.5699 23.6086 12.8178 24.5747 16.1246C25.6362 19.7128 24.8772 22.9931 22.486 25.8567C20.5871 28.1544 17.8668 29.6207 14.9036 29.9438C11.1748 30.4216 7.82814 29.4661 4.9937 26.9475C3.07339 25.3059 1.83383 23.0075 1.51701 20.501C1.03664 16.7351 2.3132 13.6007 5.13967 11.0821C7.0266 9.41891 9.39228 8.39681 11.8967 8.16275C12.7911 8.06129 13.6944 8.06574 14.5878 8.17602ZM9.86107 17.5711C9.91239 17.4996 9.9711 17.4338 10.0362 17.3747C10.2486 17.2181 10.2326 17.0907 10.0362 16.9182C9.73103 16.6528 9.46298 16.337 9.16308 16.0583C8.8428 15.7333 8.42765 15.5184 7.97742 15.4445C7.52719 15.3706 7.06511 15.4415 6.65774 15.6469C6.24902 15.8619 5.91715 16.1985 5.70796 16.6102C5.49878 17.0219 5.42262 17.4884 5.48999 17.9453C5.53933 18.3868 5.72391 18.8022 6.01846 19.1348C6.31301 19.4673 6.70314 19.7007 7.13545 19.803L8.22358 20.0684C8.48898 20.1321 8.78091 20.3046 8.98261 20.225C9.18431 20.1454 9.13389 19.7367 9.24801 19.4925C9.44794 18.8556 9.6523 18.2151 9.86107 17.5711ZM17.3134 17.855L17.5098 17.8232C18.643 17.5949 19.7789 17.3773 20.9122 17.1385C21.4961 17.0164 21.443 17.1385 21.3368 16.4909C21.2997 16.2786 21.2254 16.2255 21.0051 16.2839C20.1452 16.4723 19.2773 16.6342 18.4122 16.8147C18.3166 16.8333 18.1972 16.8943 18.1282 16.8147C18.0592 16.7351 18.16 16.6342 18.1998 16.5493C18.4652 15.9866 18.7598 15.424 19.0411 14.8614C19.288 14.3651 19.2826 14.3757 18.7757 14.1209C18.5661 14.0147 18.4918 14.0784 18.4042 14.2616C18.1069 14.8773 17.7938 15.485 17.4886 16.0981C17.2922 16.4723 17.1064 16.8439 16.9339 17.226C16.8949 17.2901 16.874 17.3636 16.8735 17.4386C16.873 17.5136 16.8929 17.5874 16.931 17.652C16.9692 17.7166 17.0242 17.7696 17.0901 17.8053C17.1561 17.8411 17.2305 17.8583 17.3054 17.855H17.3134ZM14.1074 19.6438C13.712 20.44 13.3537 21.1698 12.9795 21.8944C12.8733 22.1014 12.8946 22.2155 13.1201 22.2871C13.1932 22.314 13.2627 22.3496 13.3272 22.3933C13.5129 22.5154 13.6244 22.4862 13.7279 22.2686C14.187 21.3131 14.6674 20.3683 15.1398 19.4182C15.2274 19.2377 15.3229 19.0573 15.1823 18.8609C15.1111 18.7747 15.0146 18.7131 14.9064 18.685C14.7982 18.6569 14.6839 18.6636 14.5798 18.7043C13.4545 18.9246 12.3293 19.1475 11.2066 19.3811C10.5776 19.5111 10.6997 19.3996 10.7953 20.0313C10.8245 20.2383 10.9094 20.2808 11.127 20.233C12.0957 20.026 13.0697 19.8455 14.1074 19.6438ZM20.8273 21.8492C20.6839 21.6741 20.5619 21.544 20.4663 21.4007C20.3708 21.2574 20.2593 21.207 20.0841 21.3556C18.6669 22.5525 17.2418 23.7442 15.8166 24.9199C15.3654 25.2941 15.3681 25.2861 15.7768 25.7161C15.8909 25.8382 15.9599 25.8594 16.0979 25.7453C17.6142 24.4891 19.1323 23.2293 20.6521 21.966C20.7025 21.9262 20.7609 21.8944 20.8273 21.8492Z" fill="#7572F1"/>
<path d="M33.8001 10.5265C33.8184 10.5146 33.838 10.5049 33.8585 10.4973C34.4158 10.3195 34.4158 10.3195 34.2778 9.75151C34.1743 9.31626 34.0708 8.87835 33.9593 8.39799C34.3096 8.46964 34.6281 8.53865 34.9466 8.59969C35.8569 8.7775 36.7194 8.52538 37.5846 8.30775C38.0704 8.15787 38.5797 8.09938 39.0868 8.13524C39.2297 8.14545 39.3672 8.19405 39.4849 8.27591C38.487 8.34491 37.927 9.00309 37.3617 9.66393C36.945 10.1496 36.5283 10.6353 36.0851 11.0971C35.8887 11.3014 35.8914 11.4209 36.1196 11.5695C36.197 11.6305 36.2666 11.701 36.3266 11.7791C36.6174 12.3785 36.9453 12.9591 37.3086 13.5175C37.4546 13.7218 37.4944 14.0907 37.704 14.1279C37.9137 14.1651 38.1526 13.9395 38.3782 13.8253C39.0071 13.5016 39.6335 13.1804 40.2598 12.8513C41.4886 12.2064 41.7222 11.888 41.9716 10.4867C42.8607 11.0785 43.9196 11.2377 44.8353 11.742C45.6076 12.1693 45.8093 12.9177 45.8676 13.7059C45.9632 15.0462 46.2896 16.2935 47.1362 17.3684C47.2318 17.4878 47.2981 17.6338 47.3831 17.7612C47.6545 18.143 47.8003 18.5998 47.8003 19.0683C47.8003 19.5367 47.6545 19.9935 47.3831 20.3753C47.2928 20.5133 47.2212 20.6646 47.1177 20.7973C46.344 21.8298 45.9059 23.0748 45.8623 24.3642C45.8449 24.5622 45.8156 24.7589 45.7748 24.9534C45.7283 25.3288 45.5776 25.6836 45.3397 25.9777C45.1019 26.2718 44.7865 26.4934 44.4292 26.6175C44.047 26.7581 43.6702 26.9174 43.28 27.0421C42.4015 27.3228 41.6197 27.8453 41.0242 28.5495C40.7853 28.8149 40.5252 29.0803 40.2784 29.3457C40.0128 29.6539 39.6642 29.8793 39.2741 29.995C38.8841 30.1108 38.469 30.112 38.0783 29.9986C37.6828 29.9004 37.2821 29.8208 36.8893 29.7067C35.8038 29.3935 34.7475 29.5634 33.7045 29.8579C33.4604 29.927 33.2109 29.9747 32.9614 30.0278C31.998 30.2401 31.3 29.7889 30.6843 29.1201C30.1111 28.4965 29.5617 27.8383 28.7841 27.4402C28.2762 27.1974 27.751 26.9924 27.2129 26.8271C26.9794 26.7475 26.9157 26.6467 27.0033 26.3945C27.1598 25.9487 27.2687 25.4869 27.3987 25.0277C27.4677 24.7809 27.4969 24.5261 27.205 24.4067C26.913 24.2873 26.7564 24.4651 26.6211 24.696C26.3743 25.11 26.1142 25.5187 25.8435 25.9593C25.6248 25.7154 25.485 25.411 25.4427 25.0861C25.3286 24.4094 25.2463 23.7299 25.1455 23.0532C25.1395 22.9434 25.1615 22.8338 25.2092 22.7347C26.0373 20.3678 26.0373 17.7899 25.2092 15.423C25.1657 15.3338 25.1439 15.2356 25.1455 15.1364C25.2649 14.4172 25.3021 13.6873 25.4719 12.9761C25.5422 12.6618 25.6903 12.3702 25.9027 12.1281C26.1151 11.8861 26.385 11.7013 26.6874 11.5907C27.2899 11.3465 27.9056 11.1316 28.5081 10.8874C28.9844 10.7042 29.4115 10.4126 29.7554 10.0355C29.912 9.86032 29.9784 9.9134 30.0898 10.0753C30.4906 10.6565 30.9152 11.2245 31.3133 11.8057C31.4433 11.9941 31.5442 12.0339 31.722 11.8747C31.8492 11.7693 31.9841 11.6735 32.1254 11.5881L33.8001 10.5265ZM32.6323 19.197C32.6695 19.2739 32.6907 19.3111 32.7119 19.3509C32.9753 19.9353 33.4193 20.4197 33.9786 20.7328C34.5378 21.046 35.1828 21.1714 35.8187 21.0906C36.4545 21.0098 37.0477 20.727 37.5108 20.2839C37.9739 19.8408 38.2826 19.2607 38.3914 18.629C38.5533 17.793 38.6807 16.9544 38.8214 16.1157C38.8559 15.8981 38.9116 15.6672 38.6993 15.5027C38.487 15.3381 38.28 15.4469 38.0783 15.5345C36.4248 16.2405 34.7688 16.9411 33.1233 17.6577C33.024 17.7109 32.9111 17.7333 32.7991 17.722C32.687 17.7106 32.5809 17.6661 32.4943 17.594C31.0771 16.6359 29.6493 15.6884 28.2241 14.741C27.8207 14.4756 27.473 14.603 27.4704 15.0382C27.4296 16.0209 27.4394 17.0051 27.4996 17.9868C27.6376 19.4279 29.0919 20.5399 30.5357 20.3753C30.9477 20.3347 31.3468 20.209 31.7077 20.0062C32.0686 19.8033 32.3834 19.5278 32.6323 19.197ZM44.891 19.8817C45.4218 19.8817 45.4218 19.8817 45.3156 19.3827C45.3156 19.3615 45.3023 19.3403 45.297 19.3191C45.1283 18.6773 44.8302 18.0767 44.4212 17.5542C43.86 16.7548 43.5336 15.8143 43.4791 14.8392C43.4469 14.3774 43.3669 13.9202 43.2402 13.475C43.1898 13.2866 43.1394 13.2229 42.9324 13.3025C42.4308 13.4909 42.4255 13.4803 42.5396 14.0138C42.5528 14.0669 42.5582 14.1226 42.5661 14.1757C42.6617 14.8418 42.7307 15.5027 42.8554 16.1715C43.012 16.9676 43.5242 17.6232 43.9515 18.2946C44.2168 18.661 44.4054 19.0771 44.5062 19.5181C44.5513 19.8207 44.6256 19.9746 44.891 19.8817ZM29.7156 24.3377C29.7743 24.3347 29.8328 24.3285 29.8908 24.3191C31.2363 24.0962 32.5819 23.8759 33.9301 23.6477C34.4927 23.5521 34.4848 23.5495 34.376 22.9762C34.3415 22.7851 34.2831 22.7374 34.0761 22.7745C32.7199 23.0134 31.3637 23.2337 30.0049 23.4592C29.3706 23.5654 29.3733 23.5654 29.5378 24.1838C29.567 24.2952 29.5882 24.3775 29.7156 24.3377Z" fill="#ECECEC"/>
<path d="M27.0752 36.5809L20.4271 45.6415C20.4111 45.5798 20.4081 45.5153 20.4181 45.4523C20.4282 45.3893 20.4511 45.3291 20.4855 45.2753C21.1489 43.4405 21.8151 41.6066 22.4839 39.7736C22.6829 39.2269 22.529 39.0093 21.9531 39.0066H18.832L25.6633 27.8281C25.7509 28.0006 25.6633 28.1094 25.6395 28.2209C24.9176 30.7669 24.1939 33.3121 23.4685 35.8564C23.3199 36.3872 23.4685 36.5782 23.9993 36.5809H27.0752Z" fill="#F1C24E"/>
<path d="M18.5077 6.08203L17.2896 8.736C16.4429 10.5699 15.5884 12.3958 14.7603 14.235C14.7108 14.3779 14.6215 14.5036 14.5031 14.5976C14.3847 14.6916 14.2419 14.75 14.0915 14.7658C13.4176 14.918 12.7124 14.8446 12.0842 14.5569C11.4561 14.2692 10.9398 13.7831 10.6148 13.1734C10.3839 12.7435 10.3839 12.7435 10.7661 12.425C13.2166 10.3815 15.6671 8.33879 18.1176 6.297C18.165 6.23695 18.2239 6.18699 18.2909 6.15007C18.3579 6.11315 18.4316 6.09002 18.5077 6.08203Z" fill="#F1C24E"/>
<path d="M37.3101 13.5131C36.9468 12.9547 36.6189 12.3741 36.3281 11.7748C36.5006 11.9048 36.5776 11.7748 36.6705 11.658C37.2703 10.968 37.8621 10.2647 38.4778 9.58524C38.6941 9.32137 38.9959 9.14158 39.3309 9.07709C39.666 9.01261 40.013 9.06751 40.3117 9.23226C40.5573 9.35432 40.7628 9.54415 40.9039 9.77931C41.045 10.0145 41.1158 10.2851 41.1079 10.5592C41.117 10.8431 41.0426 11.1233 40.8941 11.3653C40.7455 11.6073 40.5292 11.8004 40.2719 11.9207C39.3749 12.3958 38.4672 12.8549 37.5675 13.322C37.472 13.3751 37.3499 13.3937 37.3101 13.5131Z" fill="#BDBDBD"/>
<path d="M33.8009 10.5275L32.1368 11.5891C31.5768 10.6894 30.9319 9.85336 30.3162 8.99348C30.1353 8.77682 30.0138 8.51689 29.9635 8.23915C29.9133 7.9614 29.936 7.67537 30.0296 7.40906C30.141 7.1187 30.3385 6.8693 30.5955 6.69428C30.8526 6.51926 31.157 6.42696 31.468 6.42975C31.7849 6.43171 32.0926 6.53617 32.3452 6.72752C32.5978 6.91887 32.7817 7.18682 32.8693 7.49134C33.1188 8.4043 33.3258 9.32788 33.5593 10.2462C33.5939 10.3762 33.5753 10.5646 33.8009 10.5275Z" fill="#BDBDBD"/>
<path d="M4.84954 32.4972C4.15685 32.4972 3.64464 32.1734 3.44028 31.6054C3.21735 30.9977 3.39782 30.4244 3.97107 29.9732C4.50187 29.5513 5.06716 29.1505 5.60592 28.7285C5.65468 28.6845 5.71804 28.6602 5.78373 28.6602C5.84942 28.6602 5.91278 28.6845 5.96155 28.7285C6.4546 29.0641 6.97585 29.3563 7.51943 29.6017C7.70786 29.6866 7.74236 29.753 7.60435 29.9334C7.09214 30.5996 6.60115 31.279 6.09425 31.9504C5.797 32.3539 5.43606 32.4998 4.84954 32.4972Z" fill="#5350EE"/>
<path d="M21.5364 32.5021C21.2949 32.5161 21.0538 32.4678 20.8363 32.3618C20.6188 32.2559 20.4322 32.0958 20.2943 31.897C19.8113 31.2388 19.3177 30.5912 18.8187 29.9437C18.686 29.7765 18.7073 29.7075 18.901 29.6172C19.4422 29.3677 19.9623 29.0748 20.4562 28.7414C20.508 28.6941 20.5765 28.6691 20.6466 28.6721C20.7168 28.6751 20.7829 28.7057 20.8304 28.7574C21.3904 29.1926 21.9584 29.6093 22.521 30.0339C22.6006 30.0941 22.6744 30.1616 22.7413 30.2356C22.951 30.4665 23.0385 30.6815 22.8103 30.984C22.5328 31.359 22.2843 31.7548 22.0672 32.1677C21.9318 32.4225 21.7699 32.5684 21.5364 32.5021Z" fill="#5350EE"/>
<path d="M43.4337 31.9985C43.4341 32.2573 43.3556 32.51 43.2085 32.723C43.0615 32.9359 42.853 33.0989 42.6109 33.1902C42.0164 33.4264 41.3848 33.4556 40.8991 32.9726C40.3073 32.394 39.888 31.6641 39.3784 31.0113C39.2882 30.8998 39.3545 30.8626 39.458 30.8361C40.0732 30.6381 40.6197 30.2701 41.0345 29.7745C41.1751 29.6259 41.2733 29.61 41.4405 29.7427C41.8997 30.1089 42.3747 30.4513 42.8392 30.8043C43.0313 30.9367 43.1867 31.1157 43.2907 31.3246C43.3946 31.5335 43.4438 31.7654 43.4337 31.9985Z" fill="#BDBDBD"/>
<path d="M32.7007 30.9444C32.1699 31.6344 31.7134 32.3536 31.1348 32.972C30.75 33.3807 29.9114 33.4524 29.362 33.1896C29.1129 33.0769 28.9067 32.887 28.7738 32.6481C28.6409 32.4091 28.5885 32.1337 28.6242 31.8627C28.6342 31.6856 28.6831 31.5129 28.7675 31.3569C28.8519 31.2009 28.9697 31.0655 29.1125 30.9603C29.4947 30.679 29.9087 30.4295 30.2882 30.1641C30.3107 30.1447 30.3368 30.13 30.3649 30.1207C30.3931 30.1114 30.4228 30.1078 30.4524 30.11C30.482 30.1122 30.5109 30.1203 30.5373 30.1336C30.5638 30.147 30.5874 30.1655 30.6067 30.188C31.3578 30.7878 31.7824 30.9364 32.7007 30.9444Z" fill="#BDBDBD"/>
<path d="M46.579 34.6956C46.6347 34.7725 46.579 34.823 46.5418 34.876C45.7218 36.203 44.9362 37.5698 43.9303 38.7827C41.6231 41.6125 38.5985 43.771 35.1723 45.0328C34.4079 45.3141 33.6489 45.6087 32.8023 45.5635C31.93 45.5054 31.1083 45.1333 30.4891 44.5161C29.87 43.8989 29.4953 43.0784 29.4344 42.2063C29.4019 41.5563 29.5385 40.9089 29.8309 40.3275C30.1233 39.7461 30.5615 39.2504 31.1026 38.8889C31.6438 38.5274 32.2695 38.3124 32.9186 38.2649C33.5677 38.2175 34.218 38.3392 34.806 38.6181C35.65 39.0136 36.4807 39.3931 37.4255 39.4833C38.7889 39.6568 40.1689 39.3285 41.3082 38.5597C43.028 37.3575 44.6841 36.0703 46.3693 34.8203C46.4304 34.7699 46.4835 34.6903 46.579 34.6956Z" fill="#F1C24E"/>
<path d="M1.84375 35.6948C2.0083 35.6443 2.09322 35.777 2.19407 35.8434C3.61395 36.7829 5.02055 37.7383 6.44042 38.6672C6.98494 39.055 7.63191 39.2732 8.30005 39.2944C8.96819 39.3157 9.62772 39.139 10.1958 38.7866C10.681 38.4834 11.2353 38.3082 11.8067 38.2776C12.3781 38.247 12.9479 38.3618 13.4628 38.6115C14.7898 39.2405 15.6417 40.2755 15.7346 41.7962C15.7665 42.3805 15.6533 42.9636 15.405 43.4936C15.1568 44.0235 14.7812 44.4837 14.3119 44.8332C13.8426 45.1827 13.294 45.4106 12.7152 45.4966C12.1364 45.5826 11.5453 45.524 10.9946 45.326C6.73235 43.8239 3.82892 40.9417 2.21531 36.7245C2.09322 36.3768 1.97114 36.0398 1.84375 35.6948Z" fill="#F1C24E"/>
<path d="M9.24281 19.5062C9.12603 19.7504 9.21627 20.1431 8.97741 20.2387C8.73856 20.3342 8.47316 20.1458 8.21838 20.0821L7.13025 19.8167C6.69794 19.7144 6.30781 19.481 6.01326 19.1485C5.71871 18.8159 5.53413 18.4004 5.48479 17.9589C5.41742 17.5021 5.49358 17.0356 5.70276 16.6239C5.91195 16.2121 6.24382 15.8756 6.65254 15.6606C7.05991 15.4551 7.52199 15.3842 7.97222 15.4582C8.42245 15.5321 8.8376 15.747 9.15788 16.072C9.45778 16.3374 9.72583 16.6611 10.031 16.9318C10.2274 17.1044 10.2434 17.2317 10.031 17.3883C9.9659 17.4474 9.90719 17.5133 9.85588 17.5847C9.72583 17.7068 9.61967 17.7227 9.47636 17.5688C9.17115 17.2344 8.85002 16.9159 8.52093 16.6081C8.3606 16.4457 8.1584 16.331 7.9368 16.2766C7.71519 16.2223 7.48286 16.2305 7.26561 16.3002C6.97512 16.3755 6.71943 16.5485 6.54155 16.7902C6.36368 17.0319 6.27447 17.3275 6.28895 17.6272C6.30487 18.2721 6.55434 18.7923 7.23376 18.9834C7.91317 19.1744 8.57136 19.331 9.24281 19.5062Z" fill="#292956"/>
<path d="M9.24319 19.5074C8.57174 19.3322 7.89763 19.1677 7.23149 18.9766C6.56534 18.7855 6.3026 18.2653 6.28668 17.6204C6.2722 17.3207 6.36141 17.0251 6.53928 16.7834C6.71716 16.5418 6.97285 16.3687 7.26334 16.2934C7.48059 16.2237 7.71292 16.2155 7.93453 16.2699C8.15613 16.3242 8.35833 16.439 8.51866 16.6013C8.84775 16.9092 9.16888 17.2276 9.47409 17.562C9.6174 17.716 9.72356 17.7001 9.85361 17.578C9.65191 18.2202 9.44843 18.8634 9.24319 19.5074Z" fill="#5350EE"/>
<path d="M17.3031 17.8571C17.2281 17.8604 17.1537 17.8432 17.0877 17.8074C17.0218 17.7717 16.9668 17.7187 16.9286 17.6541C16.8905 17.5895 16.8706 17.5157 16.8711 17.4407C16.8716 17.3657 16.8925 17.2922 16.9315 17.2281C17.104 16.8486 17.3004 16.4771 17.4888 16.1028C17.7941 15.4898 18.1072 14.882 18.4045 14.2663C18.492 14.0832 18.5664 14.0195 18.776 14.1256C19.2723 14.391 19.2776 14.3698 19.0414 14.8661C18.7601 15.4287 18.4761 15.9914 18.2001 16.554C18.1603 16.6363 18.0488 16.7318 18.1285 16.8194C18.2081 16.907 18.3169 16.8194 18.4124 16.8194C19.2776 16.6496 20.1455 16.4877 21.0054 16.2886C21.2256 16.2408 21.2999 16.2886 21.3371 16.4956C21.4486 17.1485 21.4963 17.0264 20.9125 17.1432C19.7792 17.3821 18.6433 17.5997 17.5101 17.8279L17.3031 17.8571Z" fill="#292956"/>
<path d="M14.1048 19.6438C13.0671 19.8455 12.0931 20.026 11.1244 20.233C10.9067 20.2808 10.8218 20.233 10.7926 20.0313C10.6971 19.3997 10.575 19.5005 11.204 19.3811C12.3266 19.1475 13.4519 18.9246 14.5772 18.7043C14.6813 18.6637 14.7956 18.6569 14.9038 18.685C15.0119 18.7132 15.1085 18.7747 15.1796 18.8609C15.3203 19.0573 15.2247 19.2378 15.1372 19.4182C14.6648 20.3684 14.1844 21.3132 13.7253 22.2686C13.6217 22.4862 13.5103 22.5154 13.3245 22.3933C13.2601 22.3497 13.1906 22.314 13.1175 22.2872C12.8919 22.2155 12.8707 22.1014 12.9768 21.8944C13.351 21.1699 13.7093 20.4347 14.1048 19.6438Z" fill="#292956"/>
<path d="M20.8259 21.8513C20.7595 21.8965 20.7011 21.9283 20.6507 21.9681C19.1309 23.2314 17.6128 24.4938 16.0965 25.7553C15.9585 25.8694 15.8895 25.8482 15.7754 25.7261C15.3666 25.2882 15.364 25.2962 15.8152 24.9299C17.2403 23.7436 18.6655 22.5626 20.0827 21.3657C20.2579 21.217 20.3481 21.2356 20.4649 21.4108C20.5817 21.5859 20.6825 21.6762 20.8259 21.8513Z" fill="#292956"/>
<path d="M32.6319 19.1966C32.384 19.5294 32.0696 19.807 31.7087 20.0117C31.3477 20.2164 30.9481 20.3437 30.5353 20.3856C29.0968 20.5448 27.6372 19.4328 27.4991 17.997C27.439 17.0153 27.4292 16.0312 27.47 15.0485C27.47 14.6132 27.8203 14.4858 28.2237 14.7512C29.6489 15.6987 31.0767 16.6462 32.4939 17.6043C32.5805 17.6763 32.6866 17.7209 32.7987 17.7322C32.9107 17.7436 33.0236 17.7212 33.1229 17.668C34.7684 16.9461 36.4244 16.2454 38.0779 15.5448C38.2796 15.4572 38.4866 15.3457 38.6989 15.5129C38.9112 15.6801 38.8555 15.9084 38.821 16.126C38.6803 16.9646 38.5556 17.8033 38.391 18.6393C38.2806 19.2703 37.9707 19.8493 37.5069 20.2911C37.0431 20.7329 36.4498 21.0143 35.8141 21.0939C35.1785 21.1735 34.5341 21.0471 33.9757 20.7333C33.4172 20.4195 32.9741 19.9349 32.7115 19.3506C32.6823 19.3108 32.6823 19.2736 32.6319 19.1966ZM37.9398 16.5029C36.3899 17.1637 34.9117 17.798 33.4281 18.4243C33.2795 18.488 33.306 18.5676 33.3352 18.6897C33.4588 19.1469 33.7269 19.5518 34.0995 19.8441C34.4721 20.1363 34.9292 20.3002 35.4027 20.3113C35.8646 20.3257 36.319 20.1911 36.6985 19.9272C37.078 19.6634 37.3625 19.2844 37.5099 18.8463C37.7435 18.1032 37.7833 17.3256 37.9398 16.5029ZM28.2847 15.8394C28.2847 16.3994 28.2847 16.9593 28.2847 17.5193C28.2718 17.9638 28.4054 18.4001 28.6648 18.7613C28.9242 19.1224 29.2952 19.3882 29.7205 19.5178C30.1537 19.6438 30.6164 19.6238 31.0371 19.4607C31.4577 19.2976 31.813 19.0006 32.048 18.6154C32.1781 18.4243 32.1489 18.35 31.9605 18.2147C30.8246 17.4662 29.6834 16.6966 28.5422 15.9508C28.4732 15.9004 28.4148 15.8261 28.2847 15.8394Z" fill="#292956"/>
<path d="M44.8911 19.882C44.6258 19.9696 44.5488 19.8156 44.5037 19.5343C44.4029 19.0933 44.2143 18.6772 43.949 18.3108C43.5217 17.6288 43.0095 16.9839 42.8529 16.1877C42.7282 15.5268 42.6592 14.8607 42.5636 14.1919C42.5636 14.1388 42.5504 14.0831 42.5371 14.03C42.423 13.4992 42.4283 13.4992 42.9299 13.3187C43.1369 13.2391 43.1953 13.3028 43.2377 13.4912C43.3644 13.9365 43.4444 14.3936 43.4766 14.8554C43.5329 15.829 43.8601 16.7675 44.4214 17.5651C44.8304 18.0876 45.1284 18.6882 45.2972 19.33C45.2972 19.3512 45.3105 19.3724 45.3158 19.3937C45.4219 19.882 45.4219 19.882 44.8911 19.882Z" fill="#292956"/>
<path d="M29.7161 24.3377C29.5888 24.3775 29.5675 24.2952 29.5383 24.1837C29.3738 23.5654 29.3711 23.5654 30.0054 23.4592C31.3643 23.2336 32.7204 23.0133 34.0766 22.7745C34.2836 22.7373 34.342 22.7745 34.3765 22.9762C34.4853 23.5494 34.4933 23.5521 33.9306 23.6476C32.5824 23.8759 31.2369 24.0962 29.8913 24.3191C29.8333 24.3285 29.7748 24.3347 29.7161 24.3377Z" fill="#292956"/>
<path d="M37.9399 16.5039C37.7833 17.3266 37.7435 18.0963 37.5099 18.8394C37.3625 19.2775 37.078 19.6565 36.6985 19.9203C36.319 20.1842 35.8646 20.3188 35.4027 20.3044C34.9292 20.2933 34.4721 20.1294 34.0995 19.8371C33.7269 19.5449 33.4588 19.14 33.3352 18.6828C33.306 18.5687 33.2795 18.4891 33.4281 18.4174C34.9117 17.799 36.3979 17.1647 37.9399 16.5039Z" fill="#BDBDBD"/>
<path d="M28.2854 15.8414C28.4154 15.8281 28.4738 15.9051 28.5508 15.9528C29.692 16.7066 30.8279 17.4682 31.9717 18.2167C32.1602 18.3414 32.1894 18.4263 32.0593 18.6174C31.8243 19.0025 31.469 19.2996 31.0483 19.4627C30.6277 19.6258 30.165 19.6458 29.7318 19.5198C29.3065 19.3902 28.9355 19.1243 28.6761 18.7632C28.4166 18.4021 28.2831 17.9658 28.296 17.5213C28.2827 16.964 28.2854 16.4013 28.2854 15.8414Z" fill="#BDBDBD"/>
</svg>
