<svg width="71" height="70" viewBox="0 0 71 70" fill="none" xmlns="http://www.w3.org/2000/svg">
<g clip-path="url(#clip0_3360_4071)">
<path d="M29.8398 55.2362C29.8398 54.0048 29.8398 52.7739 29.8398 51.5436C29.8398 51.1426 30.0354 50.8639 30.3584 50.7705C30.5319 50.7131 30.7205 50.7224 30.8874 50.7966C31.0544 50.8707 31.1877 51.0044 31.2613 51.1715C31.3412 51.3193 31.3854 51.3176 31.5164 51.2395C32.795 50.4646 34.4477 50.5496 35.5563 51.4094C35.7539 51.5581 35.9336 51.7292 36.0919 51.9192C36.2007 52.0534 36.2534 52.0177 36.347 51.9192C36.6386 51.571 36.9963 51.284 37.3995 51.0747C37.8027 50.8654 38.2434 50.7379 38.6961 50.6997C39.1488 50.6615 39.6046 50.7132 40.0373 50.8519C40.4699 50.9907 40.8707 51.2136 41.2167 51.508C41.8048 51.9886 42.2256 52.6429 42.4188 53.3772C42.4943 53.7614 42.52 54.1538 42.4953 54.5446C42.4953 55.9901 42.4897 57.4363 42.4783 58.8829C42.4843 58.9943 42.4653 59.1056 42.4226 59.2086C42.3799 59.3117 42.3147 59.4038 42.2316 59.4783C42.1486 59.5528 42.0499 59.6078 41.9428 59.6391C41.8358 59.6705 41.723 59.6775 41.6129 59.6595C41.4309 59.625 41.267 59.5272 41.1503 59.3835C41.0336 59.2398 40.9716 59.0595 40.9752 58.8744C40.9752 57.3122 40.9752 55.7511 40.9752 54.1912C40.9752 53.1138 40.3155 52.2981 39.2953 52.1044C38.9998 52.0462 38.6951 52.0541 38.403 52.1276C38.1109 52.201 37.8387 52.3382 37.6059 52.5292C37.3732 52.7203 37.1856 52.9604 37.0567 53.2325C36.9278 53.5046 36.8608 53.8018 36.8605 54.1028C36.8605 55.5183 36.8605 56.9321 36.8605 58.351C36.8605 58.6127 36.8418 58.8744 36.8282 59.1344C36.8269 59.3083 36.7577 59.4749 36.6355 59.5986C36.5132 59.7224 36.3475 59.7936 36.1735 59.7971C35.9851 59.7968 35.8034 59.7274 35.6627 59.6021C35.522 59.4769 35.4321 59.3044 35.4101 59.1174C35.4101 58.9339 35.4101 58.7487 35.4101 58.5652C35.4101 57.1106 35.4101 55.6565 35.4101 54.203C35.4101 53.1138 34.7606 52.3151 33.7336 52.118C33.4363 52.0592 33.1297 52.0671 32.8359 52.1409C32.542 52.2147 32.2682 52.3527 32.034 52.5449C31.7999 52.7371 31.6113 52.9788 31.4818 53.2526C31.3523 53.5264 31.2851 53.8255 31.2851 54.1283C31.2851 55.5591 31.2851 56.9899 31.2851 58.4207C31.2851 58.6654 31.2664 58.9118 31.2511 59.1565C31.2509 59.2428 31.2334 59.3281 31.1997 59.4075C31.166 59.4869 31.1167 59.5587 31.0547 59.6187C30.9927 59.6788 30.9193 59.7258 30.8389 59.757C30.7584 59.7882 30.6726 59.803 30.5863 59.8005C30.2139 59.7768 29.8773 59.5609 29.8602 59.1446C29.8517 58.9135 29.8602 58.6824 29.8602 58.4513V55.2362H29.8398Z" fill="#0B0B0B"/>
<path d="M10.8633 53.4671V58.944C10.8682 59.0434 10.8526 59.1428 10.8173 59.236C10.782 59.3291 10.7279 59.414 10.6583 59.4853C10.5888 59.5566 10.5052 59.6128 10.4129 59.6503C10.3206 59.6879 10.2216 59.706 10.1219 59.7035C10.022 59.7021 9.92336 59.6805 9.83189 59.6402C9.74043 59.5999 9.658 59.5417 9.5895 59.4689C9.52099 59.3962 9.4678 59.3104 9.43308 59.2167C9.39836 59.123 9.38283 59.0234 9.38739 58.9236C9.38739 57.3551 9.38739 55.785 9.38739 54.2165C9.38739 53.9956 9.32108 53.9565 9.11874 53.9565C6.77683 53.9633 4.43663 53.9633 2.09812 53.9565C1.88388 53.9565 1.81417 53.9956 1.81587 54.2267C1.82437 55.8036 1.81587 57.3806 1.81587 58.9575C1.81304 59.1388 1.74527 59.3131 1.62484 59.4488C1.50442 59.5844 1.33933 59.6724 1.15955 59.6967C1.00245 59.7154 0.843695 59.6797 0.70973 59.5956C0.575765 59.5115 0.474678 59.3841 0.423309 59.2345C0.387734 59.1419 0.371531 59.043 0.3757 58.944C0.3757 55.2905 0.3757 51.6364 0.3757 47.9818C0.371373 47.8804 0.387147 47.7791 0.422114 47.6839C0.457081 47.5886 0.510552 47.5012 0.57945 47.4266C0.648348 47.3521 0.731314 47.2919 0.823574 47.2495C0.915834 47.2071 1.01557 47.1834 1.11704 47.1797C1.32255 47.185 1.51764 47.2712 1.65995 47.4195C1.80226 47.5677 1.88029 47.7661 1.87708 47.9716C1.87708 49.472 1.87708 50.9725 1.87708 52.4713C1.87708 52.7109 1.94169 52.7568 2.16784 52.7568C4.53128 52.7489 6.89472 52.7489 9.25817 52.7568C9.45541 52.7568 9.49281 52.699 9.49451 52.5121C9.49451 50.9742 9.46051 49.4364 9.52002 47.8985C9.51791 47.8064 9.53457 47.7148 9.56898 47.6293C9.6034 47.5438 9.65485 47.4661 9.72022 47.4011C9.78558 47.3361 9.86349 47.2851 9.94921 47.2511C10.0349 47.2171 10.1267 47.2009 10.2188 47.2035C10.3987 47.2214 10.5653 47.3063 10.6853 47.4414C10.8054 47.5765 10.8701 47.7518 10.8667 47.9325L10.8633 53.4671Z" fill="#0B0B0B"/>
<path d="M19.9559 58.4974C18.8541 59.4643 17.6145 59.8568 16.2152 59.6631C15.0847 59.5106 14.0569 58.9273 13.3467 58.0352C12.6758 57.2136 12.3103 56.1851 12.3125 55.1247C12.3147 54.0642 12.6843 53.0373 13.3586 52.2184C13.7458 51.74 14.2292 51.3482 14.7775 51.0684C15.3258 50.7885 15.9269 50.6269 16.5416 50.5939C17.8118 50.5055 18.9357 50.9117 19.9423 51.7664C19.9423 51.5778 19.9423 51.4419 19.9423 51.3076C19.9496 51.2103 19.9761 51.1155 20.0203 51.0285C20.0645 50.9416 20.1256 50.8643 20.1999 50.801C20.2742 50.7378 20.3603 50.69 20.4533 50.6602C20.5463 50.6305 20.6442 50.6195 20.7414 50.6279C21.1206 50.6364 21.3705 50.9066 21.3722 51.3246C21.3722 53.8611 21.3722 56.3987 21.3722 58.9375C21.3688 59.1229 21.2942 59.2999 21.1638 59.4318C21.0334 59.5637 20.8572 59.6404 20.6717 59.6461C20.4859 59.6527 20.3049 59.5866 20.1671 59.4619C20.0293 59.3372 19.9456 59.1637 19.9338 58.9783C19.9474 58.8389 19.9559 58.6962 19.9559 58.4974ZM16.8358 52.0604C16.2281 52.0685 15.6364 52.2563 15.1354 52.6002C14.6344 52.944 14.2466 53.4285 14.0209 53.9924C13.7951 54.5564 13.7416 55.1745 13.8671 55.7688C13.9926 56.3631 14.2914 56.907 14.7259 57.3317C15.1603 57.7564 15.711 58.043 16.3082 58.1552C16.9055 58.2675 17.5227 58.2004 18.0819 57.9624C18.641 57.7245 19.1171 57.3263 19.45 56.8181C19.783 56.31 19.9578 55.7146 19.9525 55.1073C19.9431 54.2903 19.6095 53.5105 19.0251 52.9392C18.4407 52.3679 17.6533 52.0518 16.8358 52.0604Z" fill="#0B0B0B"/>
<path d="M48.1362 50.5798C50.4164 50.4523 52.858 52.5289 52.6999 55.3616C52.6674 55.9665 52.5146 56.5588 52.2504 57.1039C51.9863 57.649 51.616 58.1361 51.1613 58.5365C50.7066 58.937 50.1766 59.2429 49.6023 59.4363C49.0279 59.6297 48.4208 59.7067 47.8163 59.6629C47.2118 59.6191 46.6221 59.4553 46.0817 59.1811C45.5413 58.9069 45.061 58.5278 44.6689 58.0659C44.2768 57.604 43.9807 57.0687 43.7981 56.4911C43.6154 55.9136 43.5497 55.3055 43.6049 54.7023C43.7664 52.3946 45.8153 50.4761 48.1362 50.5798ZM51.1968 55.1084C51.1968 54.7042 51.1167 54.3039 50.9609 53.9308C50.8052 53.5577 50.577 53.2191 50.2896 52.9347C50.0021 52.6502 49.6611 52.4256 49.2863 52.2737C48.9114 52.1218 48.5101 52.0456 48.1056 52.0497C47.6981 52.0532 47.2953 52.1371 46.9203 52.2963C46.5453 52.4556 46.2053 52.6873 45.9199 52.978C45.6346 53.2687 45.4094 53.6128 45.2572 53.9907C45.105 54.3685 45.0289 54.7725 45.0332 55.1798C45.0417 56.8434 46.4716 58.2164 48.1685 58.1994C48.979 58.1856 49.7515 57.8536 50.3191 57.2753C50.8867 56.6969 51.2038 55.9185 51.2019 55.1084H51.1968Z" fill="#0B0B0B"/>
<path d="M66.3677 57.0406L67.0189 55.654C67.7722 54.06 68.539 52.4712 69.2684 50.8653C69.322 50.7629 69.3989 50.6745 69.4929 50.6072C69.5869 50.5398 69.6954 50.4955 69.8096 50.4776C69.9239 50.4598 70.0407 50.4689 70.1508 50.5044C70.2609 50.5399 70.3611 50.6006 70.4434 50.6818C70.5349 50.7809 70.5966 50.9037 70.6216 51.0363C70.6465 51.1688 70.6337 51.3056 70.5845 51.4312C70.3881 51.9926 70.1535 52.54 69.8823 53.0693C68.5027 56.0499 67.1198 59.0288 65.7335 62.006C65.6757 62.13 65.6128 62.2524 65.5481 62.373C65.5091 62.4582 65.4534 62.5347 65.3844 62.598C65.3153 62.6614 65.2343 62.7103 65.1461 62.742C65.0579 62.7736 64.9643 62.7874 64.8707 62.7824C64.7771 62.7774 64.6854 62.7537 64.6011 62.7129C64.5073 62.6776 64.4221 62.6229 64.3508 62.5526C64.2796 62.4822 64.2239 62.3976 64.1875 62.3043C64.1511 62.2111 64.1348 62.1112 64.1395 62.0112C64.1443 61.9112 64.17 61.8133 64.2151 61.7239C64.6062 60.8368 65.0091 59.9532 65.4172 59.073C65.4474 59.0174 65.4633 58.9552 65.4633 58.892C65.4633 58.8288 65.4474 58.7665 65.4172 58.711C64.329 56.3252 63.2425 53.9388 62.1577 51.5518C62.0855 51.3946 62.0704 51.2171 62.1149 51.05C62.1594 50.8828 62.2608 50.7363 62.4017 50.6358C62.5426 50.5352 62.7141 50.4868 62.8868 50.499C63.0595 50.5111 63.2225 50.5829 63.3479 50.7022C63.4161 50.775 63.4703 50.8596 63.5078 50.952L66.281 56.8452C66.298 56.8928 66.3201 56.942 66.3677 57.0406Z" fill="#0B0B0B"/>
<path d="M55.3483 51.3851C55.8579 51.0207 56.4431 50.7756 57.0605 50.668C57.6741 50.5571 58.3058 50.6041 58.8962 50.8044C59.4867 51.0048 60.0164 51.352 60.4356 51.8133C61.0137 52.4349 61.3638 53.234 61.4286 54.0801C61.5306 55.0233 61.4643 55.9664 61.4796 56.9095C61.4898 57.5705 61.4796 58.2332 61.4796 58.8943C61.4796 58.9938 61.4598 59.0924 61.4213 59.1842C61.3827 59.276 61.3263 59.3593 61.2552 59.429C61.1841 59.4988 61.0998 59.5537 61.0073 59.5906C60.9147 59.6274 60.8158 59.6455 60.7162 59.6437C60.6203 59.643 60.5256 59.6233 60.4375 59.5856C60.3493 59.5479 60.2696 59.4931 60.203 59.4242C60.1363 59.3554 60.0841 59.274 60.0493 59.1848C60.0145 59.0955 59.9978 59.0002 60.0003 58.9045C59.9612 57.404 59.9867 55.9052 59.9765 54.4047C59.9837 53.9051 59.8299 53.4165 59.5377 53.0111C59.2456 52.6056 58.8308 52.3048 58.3544 52.1531C57.7847 51.968 57.1651 52.013 56.6281 52.2784C56.0911 52.5439 55.6793 53.0088 55.4809 53.5738C55.3787 53.8376 55.3274 54.1184 55.3295 54.4013C55.35 55.878 55.3108 57.353 55.2938 58.8297C55.3033 58.9759 55.2665 59.1213 55.1887 59.2454C55.1108 59.3695 54.996 59.466 54.8603 59.5213C54.7306 59.5803 54.5861 59.5989 54.4457 59.5747C54.3052 59.5504 54.1754 59.4845 54.073 59.3854C54.0032 59.3248 53.9477 59.2495 53.9106 59.1648C53.8736 59.0802 53.8559 58.9883 53.8588 58.896C53.7738 56.3827 53.835 53.8677 53.8197 51.3528C53.8236 51.171 53.893 50.9967 54.0151 50.8619C54.1372 50.727 54.3039 50.6407 54.4845 50.6187C54.6605 50.5975 54.8384 50.6396 54.9863 50.7373C55.1342 50.835 55.2426 50.9821 55.2921 51.1522C55.3091 51.2253 55.3244 51.2933 55.3483 51.3851Z" fill="#0B0B0B"/>
<path fill-rule="evenodd" clip-rule="evenodd" d="M34.1903 14.7665C33.7006 14.0464 33.0564 13.4444 32.3046 13.0043C31.0906 12.2566 29.7814 11.7078 28.4653 11.1691L28.4631 11.1682C28.1354 11.0348 28.1259 11.0309 28.3956 10.8037C28.5256 10.6942 28.6663 10.5808 28.8092 10.4655C28.9634 10.3411 29.1205 10.2144 29.2696 10.0883C29.3816 9.99011 29.5156 9.92017 29.6603 9.88439C29.8049 9.84861 29.9561 9.84804 30.101 9.88272C31.5463 10.1512 32.7025 9.32535 33.1089 8.01349C33.449 6.92254 33.2398 5.94374 32.3574 5.16716C31.8891 4.78811 31.3233 4.54895 30.725 4.47724C30.0619 4.38439 29.39 4.37127 28.7238 4.43816C28.5061 4.45175 28.4874 4.38208 28.5435 4.19346C28.8581 3.14839 29.8409 2.35312 30.924 2.3922C31.4725 2.41145 32.021 2.40504 32.57 2.39862C32.8447 2.39541 33.1196 2.3922 33.3946 2.3922C33.6175 2.38762 33.8391 2.35566 34.0543 2.29704C33.7756 2.13473 33.4749 2.0134 33.1616 1.93679C32.7995 1.83334 32.4245 1.78185 32.0479 1.78385C32.0395 1.78385 32.0309 1.784 32.022 1.78416C31.9535 1.78539 31.8742 1.78681 31.8456 1.71758C31.8213 1.65878 31.8701 1.62305 31.916 1.58943C31.9312 1.57836 31.946 1.56751 31.9578 1.55614C32.4848 1.0412 33.1882 0.745944 33.925 0.730283C34.12 0.723485 34.315 0.725751 34.51 0.728017C34.6074 0.72915 34.7049 0.730283 34.8024 0.730283C35.1523 0.730283 35.4055 0.528103 35.6594 0.325362L35.7121 0.283366C35.7306 0.268708 35.7461 0.250581 35.7619 0.232143C35.7955 0.192871 35.8303 0.152189 35.8974 0.140625C35.9173 0.402359 35.8581 0.664028 35.7274 0.891716C35.9896 0.964801 36.2612 0.998589 36.5333 0.991975C37.839 1.05497 39.1473 0.944112 40.4237 0.662311C40.4367 0.659243 40.4502 0.654618 40.4638 0.649959C40.5104 0.633969 40.5582 0.617571 40.5937 0.662311C40.6367 0.71641 40.6126 0.78094 40.5898 0.841947L40.5852 0.854332C40.4451 1.22153 40.2309 1.55599 39.9559 1.83693C39.681 2.11787 39.3511 2.33927 38.9869 2.48736C38.377 2.73967 37.7269 2.88067 37.0672 2.90369L36.9312 2.91728C36.9483 3.0266 36.9934 3.12964 37.0621 3.21636C37.9102 4.71984 38.6019 6.30621 39.1263 7.95061C39.2579 8.41224 39.5141 8.82878 39.8668 9.15458C40.2195 9.48039 40.6551 9.70291 41.1259 9.79776C41.508 9.89038 41.9068 9.89038 42.2889 9.79776C42.3674 9.76389 42.4558 9.76082 42.5365 9.78916C42.6171 9.8175 42.6842 9.87518 42.7242 9.95069C42.7839 10.0564 42.843 10.1621 42.9021 10.2679L42.9027 10.2689L42.9032 10.2698C42.992 10.4285 43.0808 10.5872 43.1714 10.746C43.2292 10.8496 43.2394 10.8904 43.0932 10.9499C41.8976 11.4113 40.7263 11.9331 39.5837 12.5132C38.504 13.0859 37.5433 13.8081 36.8292 14.8243C36.8034 14.8618 36.7801 14.9009 36.7595 14.9415C36.7136 14.9772 36.6826 15.0287 36.6728 15.086C36.6547 15.0932 36.6401 15.1072 36.6322 15.1249C36.6243 15.1427 36.6236 15.1629 36.6303 15.1811C36.598 15.1811 36.5877 15.1811 36.6082 15.2168L36.632 15.1828C36.6711 15.1692 36.683 15.137 36.6932 15.1013C36.7544 15.0826 36.7765 15.0282 36.7969 14.9755C36.9583 14.8309 37.1108 14.6772 37.2634 14.5235C37.4838 14.3015 37.7042 14.0794 37.9514 13.8846C39.0017 13.0399 40.254 12.4829 41.585 12.2685C42.3645 12.1534 43.1558 12.142 43.9382 12.2346C43.8947 12.3501 43.81 12.3941 43.737 12.4321C43.7273 12.4371 43.7178 12.442 43.7087 12.447C42.5368 13.1861 41.4569 14.0617 40.4917 15.0554C40.3472 15.1804 40.2253 15.3293 40.1312 15.4955C40.1091 15.4955 40.0666 15.5057 40.0853 15.5363C40.104 15.5669 40.1295 15.5363 40.1431 15.5108L40.4832 15.3339C40.9634 15.0841 41.4458 14.833 41.9216 14.5898C43.1306 13.9819 44.3845 13.4758 45.6383 12.9698C46.0914 12.7869 46.5445 12.604 46.9954 12.4164C47.37 12.2605 47.7458 12.1073 48.1216 11.9541C49.5519 11.371 50.9819 10.7881 52.3446 10.056C53.2866 9.54626 54.215 9.01438 54.9665 8.2344C55.3786 7.83969 55.6588 7.32759 55.7691 6.7679C55.8338 7.00128 55.8714 7.24133 55.8813 7.48331C55.9096 7.71956 55.9227 7.95739 55.9204 8.19531C55.9597 9.11567 55.864 10.0368 55.6364 10.9295C55.1892 12.5404 54.1674 13.7061 52.8003 14.6C51.6035 15.3841 50.2681 15.8623 48.929 16.3418L48.8198 16.3808C48.4314 16.5204 48.0414 16.6553 47.6515 16.7903L47.6506 16.7906C46.5404 17.1747 45.4304 17.5588 44.3599 18.0479C42.9129 18.7089 41.5408 19.5246 40.4645 20.7464C39.4443 21.89 38.7438 23.1933 38.487 24.7142C38.2762 25.9615 38.4683 27.1816 38.7812 28.3864C39.0473 29.5031 39.5398 30.5534 40.2281 31.4723C40.324 31.5915 40.4268 31.705 40.5359 31.8122C40.6396 31.9176 40.6447 31.9821 40.5036 32.0688C39.4495 32.7736 38.4676 33.5807 37.5722 34.4784C36.8501 35.1814 36.1949 35.95 35.6152 36.7742C35.5944 36.8042 35.572 36.8319 35.5459 36.8642C35.5336 36.8794 35.5205 36.8956 35.5063 36.9135C35.1142 36.3594 34.6919 35.8273 34.2413 35.3196C33.2277 34.1827 32.0866 33.1661 30.8407 32.2897L30.8344 32.2854C30.6031 32.1246 30.489 32.0453 30.4764 31.9523C30.4642 31.8617 30.5483 31.7581 30.7145 31.5535L30.7404 31.5216C31.4195 30.6442 31.9125 29.6375 32.189 28.5631C32.4682 27.5843 32.6023 26.5697 32.5869 25.552C32.5759 24.5289 32.3218 23.523 31.8456 22.6173C31.4518 21.8437 30.9459 21.1325 30.3442 20.5068C29.5161 19.6833 28.5637 18.9952 27.5216 18.4676C26.3653 17.8839 25.1659 17.3897 23.934 16.9892C23.6894 16.9038 23.4445 16.8194 23.1995 16.7351L23.1984 16.7347C21.8259 16.262 20.4541 15.7895 19.1544 15.1336C18.0407 14.5745 17.0392 13.8693 16.3029 12.8497C15.647 11.9359 15.2499 10.8622 15.1535 9.74168C15.0573 8.73731 15.0773 7.72521 15.213 6.72542C15.2301 6.77745 15.2456 6.82641 15.2604 6.87297C15.3015 7.00274 15.3368 7.1141 15.3831 7.22161C15.6381 7.86565 16.1057 8.33976 16.6328 8.76118C17.7703 9.67201 19.0779 10.2906 20.3956 10.887C21.6473 11.4538 22.9206 11.9677 24.1939 12.4816C25.2609 12.9123 26.328 13.343 27.3822 13.8047C28.5762 14.3038 29.7346 14.884 30.8492 15.5414C30.8646 15.5508 30.8799 15.561 30.8954 15.5713C30.9664 15.6187 31.0404 15.6682 31.1414 15.6455C31.129 15.562 31.0763 15.5121 31.0213 15.46C30.9986 15.4385 30.9754 15.4166 30.9546 15.3919C29.8978 14.2423 28.6918 13.2393 27.3686 12.4096C27.3591 12.4038 27.3491 12.3984 27.3389 12.3929C27.2891 12.3659 27.2354 12.3368 27.2156 12.2549C27.2555 12.248 27.2949 12.2397 27.3343 12.2314C27.4107 12.2154 27.4867 12.1994 27.5642 12.1938C28.752 12.0869 29.9486 12.2519 31.0631 12.6762C32.1776 13.1005 33.1808 13.7729 33.9965 14.6425C34.0524 14.6941 34.1127 14.7407 34.1767 14.7818L34.2345 14.8192C34.2319 14.8281 34.2312 14.8375 34.2323 14.8467C34.2334 14.8559 34.2363 14.8648 34.2409 14.8729C34.2455 14.881 34.2517 14.8881 34.259 14.8937C34.266 14.899 34.2738 14.903 34.2822 14.9054C34.287 14.8884 34.2858 14.8703 34.2786 14.854C34.2707 14.8359 34.2561 14.8217 34.2379 14.8141L34.1903 14.7665ZM31.1433 15.6479C31.1434 15.6765 31.1444 15.6886 31.1756 15.6705L31.1433 15.6479ZM34.2884 14.9207C34.2879 14.918 34.2875 14.9153 34.2868 14.9129L34.3144 14.9212C34.293 14.9474 34.2907 14.9343 34.2884 14.9207ZM38.2932 18.9791V17.4327C38.2969 17.3334 38.2878 17.234 38.266 17.137C38.1856 16.8656 38.0111 16.6316 37.7736 16.4772C37.5362 16.3228 37.2514 16.2582 36.9705 16.2948C36.6896 16.3315 36.431 16.467 36.2412 16.6772C36.0513 16.8873 35.9427 17.1582 35.9348 17.4412V18.2025C35.9348 18.7531 35.9348 18.7531 35.3889 18.7564L35.3737 18.7565C35.2309 18.7565 35.1867 18.7106 35.1884 18.5729V17.465C35.1884 17.3076 35.1572 17.1518 35.0965 17.0066C35.0358 16.8614 34.947 16.7297 34.835 16.619C34.723 16.5084 34.5902 16.4211 34.4442 16.3621C34.2982 16.3031 34.142 16.2737 33.9846 16.2755C33.6729 16.2842 33.3766 16.4127 33.1575 16.6343C32.9383 16.8559 32.8131 17.1535 32.8079 17.465C32.8011 18.4959 32.8011 19.5268 32.8079 20.5577C32.8128 20.874 32.9417 21.1758 33.1668 21.3982C33.3918 21.6206 33.6952 21.7459 34.0118 21.7472C34.1681 21.7457 34.3225 21.7134 34.4663 21.6522C34.6102 21.5909 34.7405 21.502 34.8499 21.3905C34.9593 21.2789 35.0457 21.1469 35.1041 21.002C35.1624 20.857 35.1917 20.702 35.1901 20.5458V19.8066C35.1901 19.5308 35.1901 19.3932 35.2589 19.3243C35.3275 19.2556 35.4644 19.2552 35.7377 19.2544L35.7529 19.2544C35.8991 19.2544 35.9382 19.3036 35.9348 19.4396V20.5934C35.945 20.8999 36.0757 21.1901 36.2985 21.4009C36.5213 21.6118 36.8183 21.7265 37.1251 21.7201C37.4284 21.7233 37.7207 21.6071 37.939 21.3966C38.1573 21.1861 38.2839 20.8982 38.2915 20.5951C38.2932 20.0343 38.2932 19.5093 38.2932 18.9791Z" fill="url(#paint0_linear_3360_4071)"/>
<path d="M40.9657 26.6624C40.5288 25.1568 40.3995 23.6751 41.3908 22.3037C41.7615 21.7939 42.2835 21.4541 42.831 21.1414C44.0688 20.4515 45.3934 19.9655 46.7196 19.4846C47.1203 19.3392 47.5219 19.1962 47.9235 19.0533C49.4372 18.5144 50.9506 17.9756 52.414 17.3095C53.4444 16.8422 54.4544 16.3205 55.2297 15.4674C55.5233 15.1662 55.7133 14.7793 55.7721 14.3629C55.7829 14.4095 55.7924 14.4496 55.8009 14.4856C55.8167 14.552 55.8291 14.6046 55.8401 14.6586C55.8585 14.7403 55.871 14.8232 55.8775 14.9067C55.92 15.8515 55.9438 16.7912 55.5868 17.6952C55.1449 18.7838 54.4017 19.724 53.4444 20.4056C52.244 21.2994 50.8854 21.8874 49.5081 22.4448C48.8404 22.7108 48.1659 22.9584 47.4915 23.2058C46.5465 23.5526 45.6016 23.8993 44.6758 24.297C43.5791 24.7677 42.5096 25.2911 41.6153 26.1017C41.4753 26.2287 41.349 26.3701 41.2225 26.5116C41.1647 26.5764 41.1066 26.6415 41.0474 26.7049L40.9657 26.6624Z" fill="url(#paint1_linear_3360_4071)"/>
<path d="M29.2903 25.9926C29.5256 26.2219 29.7459 26.4659 29.9501 26.7233C30.0131 26.6807 30.0593 26.6177 30.081 26.5448C30.3071 25.8426 30.4005 25.1044 30.3564 24.368C30.3497 23.8104 30.2067 23.2629 29.94 22.7731C29.6733 22.2832 29.291 21.8659 28.8262 21.5574C27.9318 20.9235 26.9337 20.4885 25.922 20.0926C24.3185 19.4606 22.6951 18.8883 21.0722 18.3161L20.8091 18.2234C19.6064 17.815 18.4459 17.2915 17.3439 16.66C16.4206 16.1162 15.5246 15.5232 15.2151 14.3336C15.196 14.4936 15.1819 14.625 15.1687 14.748C15.1632 14.8001 15.1578 14.8506 15.1522 14.9012C15.0532 15.6782 15.0982 16.4668 15.2848 17.2276C15.6249 18.5343 16.4223 19.5114 17.4731 20.3169C18.7756 21.3127 20.265 21.9397 21.7749 22.5345C22.3821 22.7737 22.9947 22.9983 23.6072 23.2229C24.487 23.5455 25.3667 23.8681 26.2298 24.2338C27.318 24.696 28.3858 25.2058 29.2903 25.9926Z" fill="url(#paint2_linear_3360_4071)"/>
<path d="M55.4658 20.8564C55.612 22.7733 55.1376 24.4046 53.7128 25.7148C52.5838 26.753 51.2337 27.3852 49.8292 27.9136C48.9813 28.2319 48.1263 28.53 47.2708 28.8283C46.6784 29.0348 46.0857 29.2415 45.4951 29.4549C44.5938 29.7549 43.7426 30.1886 42.9702 30.7413C42.7176 30.9167 42.4919 31.1279 42.3002 31.3683C42.2118 31.489 42.1387 31.4958 42.0809 31.3377C41.6337 30.1295 41.6133 28.9587 42.3852 27.8593C42.8596 27.1795 43.5432 26.7462 44.2556 26.3673C45.5301 25.7018 46.8688 25.2063 48.2087 24.7104L48.4792 24.6102C48.7975 24.4923 49.117 24.3771 49.4364 24.2618C50.6182 23.8355 51.8007 23.4088 52.9289 22.8497C53.7094 22.464 54.4728 22.0494 55.073 21.3951C55.2138 21.223 55.345 21.0431 55.4658 20.8564Z" fill="url(#paint3_linear_3360_4071)"/>
<path d="M17.0576 22.4776C16.3656 22.0647 15.6888 21.6296 15.2519 20.8564C15.1644 21.3788 15.1679 21.9123 15.2621 22.4334C15.4338 23.8965 16.1666 25.0571 17.2922 25.9883C18.19 26.736 19.2204 27.2441 20.2865 27.6876C21.2035 28.0688 22.1433 28.3864 23.0829 28.7039C23.7479 28.9287 24.4128 29.1534 25.0695 29.4005C26.3124 29.8695 27.5367 30.3691 28.4446 31.3989C28.5279 31.4924 28.5603 31.455 28.5994 31.3615C28.8815 30.7033 28.9841 29.9821 28.8969 29.2714C28.7973 28.517 28.4225 27.8259 27.8444 27.3308C27.0708 26.6256 26.1509 26.1685 25.2004 25.7657C23.779 25.1595 22.3244 24.6417 20.8702 24.1241L20.7082 24.0664C19.4567 23.6212 18.2053 23.1573 17.0576 22.4776Z" fill="url(#paint4_linear_3360_4071)"/>
<path d="M32.6574 34.41C33.4311 35.1322 33.9225 35.9394 34.0857 36.9334C34.271 38.0482 33.9769 39.0882 33.5586 40.106C33.1764 41.0355 32.6793 41.903 32.1822 42.7706C32.0004 43.0878 31.8185 43.4053 31.6423 43.7256L31.6142 43.7767C31.1916 44.5464 30.7687 45.3165 30.5558 46.1793C30.4923 46.4486 30.4665 46.7254 30.4793 47.0018C30.4793 47.1564 30.4317 47.1598 30.3093 47.1004C29.8034 46.8753 29.3808 46.4973 29.1011 46.0196C28.8214 45.5419 28.6987 44.9886 28.7501 44.4376C28.8449 43.7516 29.0498 43.0854 29.3571 42.4647C29.7594 41.5612 30.2278 40.6982 30.6964 39.8348C30.9329 39.3992 31.1694 38.9634 31.3975 38.5223L31.4204 38.4778C31.877 37.592 32.3335 36.7064 32.5877 35.7337C32.7174 35.3046 32.7413 34.8504 32.6574 34.41Z" fill="url(#paint5_linear_3360_4071)"/>
<path d="M37.9638 34.7222L37.965 34.7096L37.9786 34.7113L37.9638 34.7222Z" fill="url(#paint6_linear_3360_4071)"/>
<path d="M37.9638 34.7222C37.8643 35.7367 38.2252 36.6454 38.6452 37.5373C39.0411 38.3881 39.4863 39.2132 39.9315 40.0386C40.2626 40.6523 40.5938 41.2662 40.9049 41.8909C41.3022 42.627 41.6115 43.4072 41.8265 44.2155C42.1393 45.5461 41.6258 46.6846 40.4186 47.3235C40.2095 47.4357 40.1993 47.4289 40.1959 47.1893C40.168 46.5438 40.004 45.9114 39.7147 45.3337C39.3751 44.585 38.9685 43.8775 38.5617 43.1696C38.4146 42.9135 38.2672 42.6571 38.1232 42.399C37.5247 41.3267 36.9432 40.2426 36.6643 39.0344C36.2953 37.4183 36.6541 35.9943 37.8545 34.8116C37.8895 34.78 37.9259 34.7502 37.9638 34.7222Z" fill="url(#paint7_linear_3360_4071)"/>
<path d="M43.4711 44.9954C43.5018 43.8123 42.9756 42.8356 42.4512 41.8623L42.3659 41.7039C42.1535 41.3085 41.9302 40.9189 41.7069 40.5291C41.2775 39.78 40.8479 39.0304 40.4956 38.239C40.1703 37.5618 39.9469 36.8403 39.8324 36.0979C39.6794 34.8387 39.96 33.6934 40.8169 32.7231C40.9062 32.6218 40.9981 32.5222 41.0967 32.4152C41.1371 32.3715 41.1786 32.3264 41.2216 32.2796C41.2561 32.4138 41.2425 32.5372 41.2292 32.6571C41.219 32.7497 41.209 32.8403 41.2216 32.9321C41.3117 33.7478 41.6195 34.4887 41.9629 35.2177C42.3503 36.0441 42.7851 36.848 43.2198 37.6519C43.5484 38.2595 43.8771 38.8672 44.1853 39.4846L44.2121 39.539C44.569 40.2621 44.9291 40.9915 45.0949 41.7872C45.435 43.2605 44.8399 44.3361 43.4711 44.9954Z" fill="url(#paint8_linear_3360_4071)"/>
<path d="M30.5808 34.666C30.4227 33.6957 29.9296 32.9158 29.19 32.1919C29.2315 32.5327 29.2247 32.8777 29.1695 33.2165C28.9519 34.2395 28.4945 35.1656 28.0235 36.0833C27.7807 36.556 27.5277 37.0237 27.2747 37.4915C26.7801 38.4058 26.2854 39.3205 25.8658 40.2737C25.5377 41.018 25.2435 41.7589 25.2605 42.6086C25.2809 43.6146 25.9866 44.4574 26.8265 44.8755C26.9421 44.9332 26.9744 44.8958 26.9744 44.7786C26.97 44.5404 26.994 44.3025 27.0459 44.07C27.2125 43.2543 27.5968 42.5287 27.9861 41.8048C28.205 41.3976 28.4343 40.9957 28.6636 40.5937C29.1415 39.7562 29.6195 38.9182 30.0044 38.0307C30.4703 36.955 30.7764 35.8556 30.5808 34.666Z" fill="url(#paint9_linear_3360_4071)"/>
<path d="M24.7643 51.7642C25.2129 51.3694 25.7274 51.0565 26.2844 50.8398C26.8398 50.6132 27.4417 50.5234 28.0391 50.5781C28.2167 50.5966 28.3799 50.6841 28.4934 50.8217C28.607 50.9594 28.6618 51.1361 28.6461 51.3139C28.6478 51.4878 28.5853 51.6563 28.4705 51.787C28.3556 51.9177 28.1966 52.0016 28.0238 52.0225C27.6838 52.0836 27.3437 52.0684 27.0036 52.1567C26.3664 52.3355 25.8019 52.7107 25.3904 53.2287C24.9789 53.7468 24.7413 54.3813 24.7116 55.0421C24.664 56.3421 24.7116 57.6421 24.6827 58.9403C24.6846 59.1283 24.6129 59.3095 24.483 59.4454C24.3531 59.5812 24.1752 59.661 23.9873 59.6676C23.7986 59.6545 23.6218 59.571 23.4918 59.4338C23.3618 59.2966 23.288 59.1157 23.285 58.9267C23.2578 56.6882 23.2544 54.4502 23.2748 52.2128C23.2535 51.8679 23.2672 51.5217 23.3156 51.1796C23.3519 51.0052 23.4538 50.8513 23.6003 50.7498C23.7468 50.6483 23.9267 50.6069 24.1029 50.6341C24.2744 50.6545 24.4337 50.7331 24.5541 50.8569C24.6745 50.9806 24.7488 51.142 24.7643 51.3139C24.7711 51.4396 24.7643 51.5705 24.7643 51.7642Z" fill="#0B0B0B"/>
<path d="M31.4528 66.8169C31.5429 68.105 30.6519 69.2231 29.6589 69.6378C28.3803 70.173 26.8313 69.58 26.1546 68.3004C25.8191 67.6655 25.7154 66.9337 25.8612 66.2307C26.0071 65.5277 26.3934 64.8974 26.9537 64.4481C27.2364 64.2235 27.5611 64.0575 27.9088 63.96C28.2564 63.8626 28.6201 63.8355 28.9784 63.8805C29.3367 63.9254 29.6824 64.0415 29.9952 64.2218C30.308 64.4022 30.5816 64.6432 30.7999 64.9307C31.2436 65.4898 31.5055 66.1117 31.4528 66.8169ZM30.5516 66.8458C30.5544 66.6696 30.535 66.4938 30.4938 66.3224C30.2949 65.6019 29.8749 65.0666 29.142 64.8576C28.8241 64.7581 28.4843 64.7516 28.1628 64.8389C27.8413 64.9262 27.5516 65.1037 27.3278 65.3504C26.9426 65.7485 26.7261 66.2799 26.7236 66.8337C26.7211 67.3875 26.9327 67.9209 27.3142 68.3225C27.4763 68.4997 27.6722 68.6426 27.8905 68.7429C28.1087 68.8432 28.3449 68.8988 28.585 68.9064C28.8251 68.914 29.0643 68.8735 29.2884 68.7872C29.5126 68.7009 29.7172 68.5706 29.8902 68.4041C30.1057 68.2068 30.2762 67.9656 30.3903 67.6968C30.5044 67.4279 30.5594 67.1377 30.5516 66.8458Z" fill="#0B0B0B"/>
<path d="M35.4497 65.9772C35.4085 66.0467 35.3935 66.1287 35.4072 66.2083C35.397 67.2619 35.3902 68.3154 35.38 69.369C35.38 69.6579 35.2219 69.8295 34.9618 69.8295C34.7016 69.8295 34.5707 69.7021 34.5571 69.3894C34.484 67.7598 34.4993 66.1301 34.5571 64.5005C34.548 64.4204 34.5664 64.3396 34.6094 64.2713C34.6523 64.2031 34.7172 64.1515 34.7934 64.125C34.8743 64.0883 34.9652 64.08 35.0514 64.1016C35.1376 64.1232 35.2138 64.1734 35.2678 64.2439C35.8051 64.9236 36.288 65.6237 36.7981 66.3171C37.1926 66.8557 37.5802 67.3995 37.9713 67.9399C38.058 67.8991 38.0223 67.8277 38.0223 67.77C38.0223 66.7079 38.0325 65.6475 38.0665 64.5855C38.0784 64.2711 38.2094 64.1114 38.4729 64.1114C38.7365 64.1114 38.881 64.2813 38.8929 64.577C38.9524 66.1607 38.9099 67.7445 38.9252 69.335C38.9325 69.4397 38.9045 69.5438 38.8456 69.6307C38.7867 69.7175 38.7004 69.7822 38.6004 69.8142C38.5081 69.845 38.4078 69.8425 38.3171 69.8071C38.2264 69.7717 38.151 69.7057 38.1039 69.6205C37.2708 68.4695 36.4359 67.3208 35.5994 66.1743C35.5569 66.1131 35.5093 66.0554 35.4497 65.9772Z" fill="#0B0B0B"/>
<path d="M11.9169 65.9859V69.189C11.9204 69.2873 11.9107 69.3856 11.888 69.4813C11.8806 69.5366 11.8618 69.5897 11.8328 69.6373C11.8038 69.6849 11.7652 69.726 11.7195 69.758C11.6738 69.7899 11.6219 69.812 11.5672 69.8229C11.5125 69.8338 11.4561 69.8332 11.4017 69.8212C11.2992 69.806 11.2063 69.7528 11.1413 69.6722C11.0764 69.5916 11.0443 69.4894 11.0514 69.3862C11.0514 67.7786 11.0514 66.1728 11.0514 64.5652C11.0372 64.4701 11.0566 64.3729 11.1062 64.2904C11.1559 64.208 11.2327 64.1453 11.3235 64.1132C11.42 64.0742 11.5274 64.0717 11.6257 64.1061C11.7239 64.1405 11.8063 64.2095 11.8574 64.3002C12.5256 65.228 13.2006 66.1507 13.8722 67.0751L14.498 67.9248C14.5246 67.8853 14.5432 67.841 14.5525 67.7943C14.5619 67.7476 14.5618 67.6995 14.5524 67.6529C14.5524 66.6537 14.5626 65.6545 14.5694 64.6536C14.5694 64.3222 14.6867 64.1438 14.9094 64.1098C15.2138 64.0572 15.4297 64.2645 15.4297 64.6196C15.4297 66.1116 15.4297 67.6036 15.4297 69.0939C15.4297 69.1873 15.4297 69.2791 15.4297 69.3709C15.4342 69.4634 15.4088 69.5549 15.3574 69.632C15.306 69.709 15.2312 69.7676 15.1441 69.7991C15.0607 69.8303 14.9691 69.8326 14.8843 69.8054C14.7995 69.7783 14.7263 69.7234 14.6765 69.6495C14.1664 69.0378 13.7243 68.37 13.2516 67.7259C12.8741 67.2162 12.5052 66.6945 12.1328 66.1779C12.0801 66.1048 12.024 66.0334 11.9628 65.9621L11.9169 65.9859Z" fill="#0B0B0B"/>
<path d="M18.624 66.9017C18.624 66.0945 18.624 65.2873 18.624 64.4819C18.624 64.2185 18.76 64.0366 19.0151 64.0315C19.6323 64.0213 20.2512 63.9789 20.8633 64.1522C21.4726 64.3341 22.0053 64.7108 22.3799 65.2244C22.7544 65.738 22.95 66.3602 22.9366 66.9956C22.9233 67.6309 22.7018 68.2444 22.3061 68.7419C21.9104 69.2394 21.3624 69.5934 20.746 69.7497C20.156 69.8873 19.5558 69.8415 18.9573 69.8211C18.7464 69.8126 18.6172 69.6154 18.6172 69.3436C18.6172 68.5296 18.6172 67.7156 18.6172 66.9017H18.624ZM19.5218 66.9492C19.5218 67.5474 19.5218 68.1473 19.5218 68.7471C19.5218 68.9051 19.5626 68.968 19.7309 68.9425C19.8992 68.917 20.037 68.934 20.19 68.9204C20.5578 68.8927 20.9108 68.764 21.21 68.5484C21.5092 68.3327 21.743 68.0387 21.8855 67.6987C22.028 67.3586 22.0737 66.9858 22.0175 66.6215C21.9614 66.2571 21.8055 65.9154 21.5672 65.634C21.098 65.0647 20.4637 64.8982 19.7513 64.9271C19.5813 64.9271 19.515 64.9611 19.5201 65.1514C19.5303 65.7444 19.5218 66.3494 19.5218 66.9492Z" fill="#0B0B0B"/>
<path d="M41.9564 66.9127C41.9564 66.1361 41.9564 65.3595 41.9564 64.583C41.9564 64.1989 42.1264 64.0256 42.5209 64.0239C43.3812 64.0239 44.2433 64.0239 45.1054 64.0239C45.2064 64.0194 45.306 64.0483 45.389 64.106C45.4719 64.1638 45.5336 64.2471 45.5645 64.3434C45.5929 64.4237 45.5956 64.5109 45.5722 64.5928C45.5487 64.6748 45.5002 64.7474 45.4335 64.8005C45.3727 64.8585 45.2931 64.8929 45.2091 64.8973C44.5035 64.9704 43.7944 64.9262 43.0871 64.9296C42.9018 64.9296 42.8541 64.9823 42.8609 65.1607C42.8746 65.5295 42.8729 65.8999 42.8609 66.2687C42.8609 66.4267 42.895 66.4794 43.0616 66.4777C43.6227 66.4658 44.1855 66.4692 44.7466 66.4777C44.8095 66.4726 44.8728 66.4802 44.9328 66.4999C44.9927 66.5197 45.0481 66.5512 45.0956 66.5927C45.1432 66.6342 45.1819 66.6848 45.2096 66.7415C45.2373 66.7982 45.2533 66.8599 45.2567 66.9229C45.2626 66.9743 45.2579 67.0264 45.243 67.076C45.2281 67.1256 45.2033 67.1717 45.1701 67.2114C45.1369 67.2511 45.0959 67.2837 45.0497 67.3071C45.0035 67.3306 44.953 67.3444 44.9013 67.3477C44.3113 67.4276 43.7111 67.3783 43.1262 67.38C42.9239 67.38 42.8422 67.4191 42.8541 67.6417C42.8746 68.0104 42.8678 68.3792 42.8541 68.7479C42.8541 68.9043 42.9035 68.9417 43.0514 68.9417C43.7434 68.9417 44.4354 68.923 45.1275 68.9638C45.1847 68.9612 45.2419 68.9702 45.2956 68.9902C45.3493 69.0102 45.3985 69.0407 45.4402 69.08C45.4819 69.1193 45.5153 69.1666 45.5384 69.219C45.5615 69.2714 45.5738 69.3279 45.5747 69.3852C45.5779 69.4448 45.5685 69.5044 45.547 69.5601C45.5255 69.6158 45.4925 69.6664 45.4501 69.7084C45.4077 69.7505 45.3569 69.7831 45.301 69.8041C45.2451 69.8251 45.1854 69.8341 45.1258 69.8304C44.211 69.8304 43.2957 69.8304 42.3798 69.8304C42.3182 69.8289 42.2576 69.8146 42.2018 69.7885C42.146 69.7624 42.0963 69.725 42.0557 69.6787C42.0151 69.6323 41.9846 69.5781 41.966 69.5194C41.9474 69.4607 41.9413 69.3988 41.9479 69.3376C41.9547 68.527 41.9564 67.7199 41.9564 66.9127Z" fill="#0B0B0B"/>
<path d="M50.517 69.8336C49.7553 69.8336 49.104 69.5448 48.5021 69.1131C48.4349 69.064 48.3738 69.0069 48.3202 68.9432C48.256 68.8806 48.2173 68.7964 48.2117 68.7069C48.206 68.6175 48.2338 68.5291 48.2896 68.4589C48.3124 68.4161 48.3439 68.3785 48.382 68.3485C48.4201 68.3184 48.464 68.2966 48.5109 68.2843C48.5579 68.272 48.6068 68.2695 48.6548 68.2771C48.7027 68.2846 48.7486 68.302 48.7895 68.3281C49.0054 68.4436 49.2027 68.5914 49.4169 68.7104C49.6611 68.8565 49.9328 68.9509 50.2151 68.9877C50.4973 69.0246 50.7841 69.0031 51.0577 68.9245C51.1684 68.8955 51.2751 68.8533 51.3757 68.7988C51.6596 68.639 51.913 68.4385 51.8994 68.0766C51.8858 67.7146 51.612 67.5532 51.3196 67.4274C50.8469 67.2252 50.33 67.1725 49.8403 67.0196C49.4528 66.9255 49.0947 66.7369 48.798 66.4707C48.545 66.2364 48.394 65.9124 48.3771 65.5681C48.3603 65.2238 48.479 64.8866 48.7079 64.6287C48.8997 64.4081 49.1341 64.2285 49.3971 64.1006C49.66 63.9727 49.9461 63.8992 50.2382 63.8844C50.9863 63.8062 51.6171 64.0815 52.2139 64.4825C52.3355 64.5519 52.4261 64.6649 52.4673 64.7986C52.4832 64.8705 52.4786 64.9455 52.454 65.0149C52.4293 65.0843 52.3856 65.1454 52.3278 65.1911C52.2701 65.2443 52.1967 65.2775 52.1187 65.2858C52.0406 65.294 51.9619 65.2769 51.8943 65.237C51.6681 65.1283 51.4539 64.9906 51.226 64.8802C50.9959 64.7628 50.7418 64.7001 50.4835 64.6968C50.2252 64.6936 49.9696 64.7499 49.7366 64.8615C49.5818 64.9317 49.4465 65.0384 49.3421 65.1725C49.296 65.2241 49.2611 65.2847 49.2397 65.3505C49.2183 65.4163 49.2108 65.4859 49.2176 65.5547C49.2245 65.6236 49.2456 65.6902 49.2796 65.7505C49.3136 65.8108 49.3598 65.8633 49.4152 65.9049C49.74 66.1801 50.1446 66.2447 50.5408 66.3382C51.1597 66.4809 51.7752 66.6305 52.27 67.0723C52.544 67.3063 52.7138 67.6395 52.7421 67.9985C52.7705 68.3576 52.6552 68.7133 52.4214 68.9874C51.9283 69.5838 51.2754 69.8251 50.517 69.8336Z" fill="#0B0B0B"/>
<path d="M63.541 69.8237C63.4443 69.8285 63.3489 69.8002 63.2706 69.7433C63.1923 69.6864 63.1359 69.6044 63.1108 69.511C62.9969 69.2272 62.8863 68.9434 62.7894 68.6613C62.7798 68.6019 62.7474 68.5485 62.6993 68.5124C62.6511 68.4763 62.5908 68.4602 62.531 68.4676C61.9699 68.4778 61.4071 68.4761 60.846 68.4676C60.7909 68.4602 60.735 68.4735 60.6891 68.5048C60.6433 68.5362 60.6107 68.5835 60.5977 68.6375C60.4804 68.9519 60.3665 69.268 60.2236 69.5722C60.1937 69.6412 60.1462 69.7013 60.0858 69.7463C60.0255 69.7913 59.9544 69.8198 59.8796 69.8289C59.8049 69.838 59.729 69.8274 59.6596 69.7982C59.5902 69.7689 59.5297 69.7221 59.484 69.6622C59.4386 69.6049 59.41 69.5362 59.4013 69.4636C59.3925 69.391 59.4041 69.3174 59.4347 69.251C59.6404 68.5305 59.9312 67.8406 60.193 67.1405C60.5331 66.2177 60.8987 65.3001 61.2455 64.3791C61.2689 64.2815 61.3236 64.1943 61.4013 64.1308C61.479 64.0672 61.5754 64.0309 61.6757 64.0273C61.9138 64.0273 62.0396 64.1701 62.1246 64.3842C62.7537 65.9577 63.3483 67.5438 63.9082 69.1422C64.0511 69.5586 63.8929 69.8237 63.541 69.8237ZM62.3711 67.5585L61.691 65.7385L61.3373 66.6715C61.2285 66.962 61.1214 67.2526 61.0075 67.5585H62.3711Z" fill="#0B0B0B"/>
<path d="M7.86097 66.9175C7.86097 67.7161 7.86097 68.5165 7.86097 69.3169C7.86097 69.6567 7.70964 69.8267 7.41718 69.8267C7.12473 69.8267 6.9717 69.6313 6.9717 69.2999C6.9717 67.7008 6.9564 66.1018 6.9955 64.5011C6.9955 64.1952 7.14853 64.0185 7.40868 64.0321C7.47205 64.0282 7.53549 64.0382 7.59456 64.0615C7.65364 64.0847 7.70691 64.1206 7.75065 64.1665C7.7944 64.2125 7.82754 64.2675 7.84777 64.3276C7.868 64.3878 7.87483 64.4516 7.86777 64.5147C7.84736 65.3167 7.86097 66.1171 7.86097 66.9175Z" fill="#0B0B0B"/>
<path d="M56.579 66.9359C56.579 67.743 56.579 68.5485 56.579 69.3557C56.5899 69.46 56.5627 69.5648 56.5023 69.6507C56.442 69.7365 56.3527 69.7977 56.2508 69.823C56.1535 69.8474 56.0509 69.8392 55.9587 69.7996C55.8665 69.76 55.7899 69.6912 55.7407 69.6038C55.6906 69.5168 55.6686 69.4165 55.6778 69.3166V64.5449C55.6727 64.4805 55.6808 64.4158 55.7018 64.3547C55.7227 64.2935 55.7559 64.2373 55.7994 64.1896C55.8429 64.1418 55.8958 64.1034 55.9547 64.0769C56.0136 64.0503 56.0774 64.0361 56.142 64.0352C56.268 64.0464 56.3848 64.1056 56.4683 64.2004C56.5519 64.2953 56.5958 64.4187 56.5909 64.5449C56.5688 65.3436 56.5824 66.144 56.5824 66.9427L56.579 66.9359Z" fill="#0B0B0B"/>
<path d="M37.9697 34.7112C37.968 34.7047 37.968 34.6979 37.9697 34.6914H37.9841L37.957 34.7112H37.9697Z" fill="#5FC4D5"/>
<path d="M37.8273 18.6641V19.3965C37.8273 19.7805 37.8273 20.1645 37.8273 20.5486C37.8294 20.643 37.8118 20.7368 37.7757 20.824C37.7395 20.9112 37.6855 20.99 37.6172 21.0552C37.5489 21.1204 37.4678 21.1707 37.3789 21.2029C37.2901 21.235 37.1955 21.2483 37.1013 21.2419C37.0107 21.2426 36.921 21.2246 36.8378 21.1889C36.7546 21.1532 36.6797 21.1006 36.6178 21.0345C36.556 20.9683 36.5085 20.8901 36.4785 20.8047C36.4484 20.7193 36.4364 20.6286 36.4433 20.5384C36.4433 20.1543 36.4433 19.7686 36.4433 19.3846C36.4433 19.2418 36.4654 19.1688 36.632 19.1399C37.0608 19.0716 37.469 18.9091 37.8273 18.6641Z" fill="#5FC4D5"/>
<path d="M33.3099 18.2823C33.3099 18.0206 33.3099 17.7589 33.3099 17.4972C33.3099 17.0469 33.5904 16.7478 34.0053 16.7461C34.4202 16.7444 34.699 17.0299 34.7007 17.487C34.7007 17.8642 34.6922 18.2415 34.7007 18.617C34.7007 18.7734 34.6497 18.8226 34.5001 18.8515C34.1262 18.9076 33.7676 19.0389 33.4459 19.2373C33.3337 19.312 33.3031 19.2832 33.3048 19.1591C33.3116 18.8668 33.3099 18.5745 33.3099 18.2823Z" fill="#5FC4D5"/>
<path d="M36.4063 17.9657C36.4063 17.7958 36.4063 17.6123 36.4063 17.4355C36.406 17.3418 36.4251 17.2491 36.4624 17.1631C36.4998 17.0771 36.5545 16.9998 36.6231 16.9359C36.6918 16.8721 36.7729 16.8232 36.8614 16.7922C36.9499 16.7612 37.0439 16.7488 37.1374 16.7558C37.2279 16.7546 37.3176 16.7723 37.4009 16.8076C37.4842 16.8429 37.5592 16.8951 37.6213 16.9609C37.6833 17.0268 37.731 17.1048 37.7612 17.19C37.7915 17.2752 37.8037 17.3657 37.7971 17.4559C37.8073 18.1136 37.6135 18.3719 36.9708 18.5639C36.4063 18.7338 36.4063 18.7338 36.4063 18.1577V17.9657Z" fill="#5FC4D5"/>
<path d="M34.6973 19.7131C34.6973 20.0036 34.6973 20.2959 34.6973 20.5865C34.698 20.6728 34.6815 20.7583 34.6487 20.8381C34.616 20.9179 34.5676 20.9903 34.5065 21.0512C34.4454 21.1121 34.3728 21.1603 34.2929 21.1928C34.2129 21.2254 34.1273 21.2416 34.041 21.2407C33.8625 21.2534 33.6861 21.1952 33.5502 21.0788C33.4143 20.9624 33.3298 20.7971 33.315 20.6188C33.2589 20.0325 33.4255 19.7487 33.9747 19.5278C34.1362 19.4616 34.3148 19.4327 34.4848 19.3715C34.6956 19.2933 34.7705 19.3596 34.7416 19.5737C34.7382 19.6201 34.7382 19.6667 34.7416 19.7131H34.6973Z" fill="#5FC4D5"/>
</g>
<defs>
<linearGradient id="paint0_linear_3360_4071" x1="37.3736" y1="13.4822" x2="53.2768" y2="47.6273" gradientUnits="userSpaceOnUse">
<stop stop-color="#5FC4D5"/>
<stop offset="1" stop-color="#5FD5AB"/>
</linearGradient>
<linearGradient id="paint1_linear_3360_4071" x1="37.3736" y1="13.4822" x2="53.2768" y2="47.6273" gradientUnits="userSpaceOnUse">
<stop stop-color="#5FC4D5"/>
<stop offset="1" stop-color="#5FD5AB"/>
</linearGradient>
<linearGradient id="paint2_linear_3360_4071" x1="37.3736" y1="13.4822" x2="53.2768" y2="47.6273" gradientUnits="userSpaceOnUse">
<stop stop-color="#5FC4D5"/>
<stop offset="1" stop-color="#5FD5AB"/>
</linearGradient>
<linearGradient id="paint3_linear_3360_4071" x1="37.3736" y1="13.4822" x2="53.2768" y2="47.6273" gradientUnits="userSpaceOnUse">
<stop stop-color="#5FC4D5"/>
<stop offset="1" stop-color="#5FD5AB"/>
</linearGradient>
<linearGradient id="paint4_linear_3360_4071" x1="37.3736" y1="13.4822" x2="53.2768" y2="47.6273" gradientUnits="userSpaceOnUse">
<stop stop-color="#5FC4D5"/>
<stop offset="1" stop-color="#5FD5AB"/>
</linearGradient>
<linearGradient id="paint5_linear_3360_4071" x1="37.3736" y1="13.4822" x2="53.2768" y2="47.6273" gradientUnits="userSpaceOnUse">
<stop stop-color="#5FC4D5"/>
<stop offset="1" stop-color="#5FD5AB"/>
</linearGradient>
<linearGradient id="paint6_linear_3360_4071" x1="37.3736" y1="13.4822" x2="53.2768" y2="47.6273" gradientUnits="userSpaceOnUse">
<stop stop-color="#5FC4D5"/>
<stop offset="1" stop-color="#5FD5AB"/>
</linearGradient>
<linearGradient id="paint7_linear_3360_4071" x1="37.3736" y1="13.4822" x2="53.2768" y2="47.6273" gradientUnits="userSpaceOnUse">
<stop stop-color="#5FC4D5"/>
<stop offset="1" stop-color="#5FD5AB"/>
</linearGradient>
<linearGradient id="paint8_linear_3360_4071" x1="37.3736" y1="13.4822" x2="53.2768" y2="47.6273" gradientUnits="userSpaceOnUse">
<stop stop-color="#5FC4D5"/>
<stop offset="1" stop-color="#5FD5AB"/>
</linearGradient>
<linearGradient id="paint9_linear_3360_4071" x1="37.3736" y1="13.4822" x2="53.2768" y2="47.6273" gradientUnits="userSpaceOnUse">
<stop stop-color="#5FC4D5"/>
<stop offset="1" stop-color="#5FD5AB"/>
</linearGradient>
<clipPath id="clip0_3360_4071">
<rect width="70.2555" height="69.6935" fill="white" transform="translate(0.371094 0.152344)"/>
</clipPath>
</defs>
</svg>
