<svg width="75" height="66" viewBox="0 0 75 66" fill="none" xmlns="http://www.w3.org/2000/svg">
<g clip-path="url(#clip0_3357_4985)">
<path d="M0.796875 34.8367V30.982H3.73908C3.8028 30.5565 3.88016 30.1537 3.92112 29.7464C4.23322 26.5951 5.16917 23.5375 6.67447 20.7514C9.31859 15.7908 13.0913 11.9225 17.7971 8.91886C21.6281 6.48348 25.8681 4.76126 30.3123 3.83541C33.8284 3.07397 37.4308 2.78774 41.023 2.98438C42.1425 3.04582 43.2621 3.13001 44.484 3.21193V0.875H48.6186C48.6186 1.7852 48.6345 2.61803 48.6186 3.4463C48.6186 3.9014 48.7506 4.10165 49.2193 4.22225C55.0195 5.72407 60.2054 8.36591 64.6926 12.3662C67.9035 15.1951 70.4597 18.6893 72.1836 22.6059C73.7921 26.1993 74.4608 30.1426 74.1268 34.0653C73.8265 37.5536 72.9891 40.8645 71.2916 43.9546C70.0247 46.3187 68.4617 48.5117 66.6405 50.4807C61.9302 55.4868 56.1277 58.6315 49.5584 60.4701C48.6482 60.7272 48.6254 60.6976 48.6209 61.642C48.6209 62.8002 48.6209 63.9584 48.6209 65.128H44.4613V61.5783C44.1632 61.5783 43.9766 61.5646 43.7945 61.5783C39.6987 61.931 35.6324 61.9128 31.5774 61.1573C27.7472 60.4672 24.0404 59.2135 20.5777 57.4369C16.9985 55.6181 13.7746 53.1718 11.0593 50.2145C8.68145 47.5999 6.7359 44.7032 5.44343 41.3992C4.66005 39.4809 4.16026 37.4588 3.95981 35.3965C3.92795 35.021 3.8301 34.7138 3.37045 34.7366C2.51259 34.7662 1.65473 34.8026 0.796875 34.8367ZM48.6231 58.1673C57.7069 55.0499 66.4903 45.0445 66.5039 32.4315C66.5176 19.757 57.7137 9.6766 48.6209 6.57055V7.83345C48.6209 11.4993 48.6004 15.1651 48.6391 18.8309C48.6639 19.1465 48.6093 19.4633 48.4801 19.7523C48.3509 20.0413 48.1513 20.2932 47.8995 20.4852C47.0257 21.1997 46.1747 21.946 45.3464 22.7129C42.7675 25.0991 40.1962 27.4952 37.6325 29.9012C37.3117 30.2015 37.0068 30.5201 36.695 30.8318L36.7815 31.0412H58.3531V34.7571H36.5585C36.8816 35.1211 37.0341 35.3237 37.2184 35.4966C37.9943 36.2179 38.7794 36.9256 39.5576 37.6446C42.3314 40.2046 45.0847 42.7873 47.8904 45.3131C48.1367 45.5061 48.333 45.7555 48.4629 46.0402C48.5928 46.3249 48.6524 46.6366 48.6368 46.9491C48.6027 50.3123 48.6231 53.6755 48.6231 57.0387V58.1673ZM29.8708 31.048C30.9608 30.0513 31.8277 29.2777 32.6719 28.4835C35.0612 26.2353 37.4459 23.9818 39.8261 21.723C41.1914 20.4215 42.5021 19.063 43.8947 17.791C44.1018 17.6067 44.2631 17.3766 44.3658 17.1191C44.4685 16.8616 44.5097 16.5836 44.4863 16.3074C44.4681 13.0967 44.4863 9.88367 44.4863 6.67295C44.4863 6.37031 44.4749 6.06767 44.4863 5.76275C44.4985 5.6877 44.4943 5.61088 44.4738 5.53765C44.4533 5.46441 44.4171 5.39652 44.3677 5.33869C44.3184 5.28086 44.257 5.23449 44.1878 5.2028C44.1187 5.17111 44.0435 5.15487 43.9675 5.1552C42.6545 4.99819 41.3438 4.77974 40.0263 4.7001C37.6409 4.58462 35.2512 4.80911 32.9291 5.36682C29.24 6.23088 25.7674 7.84247 22.7259 10.102C19.6844 12.3614 17.1387 15.2208 15.2462 18.5032C14.2018 20.3373 13.2597 22.2237 12.6454 24.2534C12.1044 26.1319 11.7358 28.0558 11.544 30.0013C11.4325 31.0207 11.4507 31.0526 12.5407 31.0548H24.6008C24.751 31.0548 24.9034 31.0548 25.0559 31.0548C25.4928 31.0776 25.6725 30.8637 25.6521 30.4404C25.6384 30.1765 25.6521 29.9125 25.6521 29.6463C25.6521 24.3565 25.6521 19.066 25.6521 13.7748V12.5915C27.1129 12.6234 28.4532 12.5346 29.8663 12.6529L29.8708 31.048ZM11.6328 34.7388C11.7416 37.2756 12.2802 39.7754 13.2256 42.1319C14.0953 44.3416 15.234 46.4357 16.6161 48.3668C18.813 51.5002 21.6404 54.1401 24.9171 56.1171C27.7872 57.8784 30.9718 59.0662 34.2944 59.6145C37.4254 60.1288 40.5338 60.2221 43.6489 59.5804C44.4635 59.4143 44.4749 59.4097 44.4772 58.6042C44.4772 55.5073 44.4772 52.408 44.4772 49.3111C44.4918 49.07 44.4503 48.8289 44.3559 48.6066C44.2616 48.3843 44.1169 48.1869 43.9333 48.03C42.0644 46.3264 40.2137 44.6054 38.3811 42.8669C35.8303 40.4458 33.3023 38.0042 30.7628 35.5853C30.5353 35.3578 30.2759 35.1666 29.8253 34.7798V53.1885C28.4896 53.1885 27.2836 53.2022 26.0776 53.1703C25.9811 53.1444 25.8924 53.0951 25.8194 53.0269C25.7464 52.9586 25.6913 52.8735 25.6589 52.7789C25.6163 52.4774 25.6086 52.172 25.6361 51.8687V36.1132C25.6361 35.847 25.6202 35.5831 25.6361 35.3191C25.6657 34.864 25.4359 34.7138 25.0172 34.7366C24.8283 34.748 24.6395 34.7366 24.4483 34.7366H11.6328V34.7388Z" fill="#0B0B0B"/>
</g>
<defs>
<clipPath id="clip0_3357_4985">
<rect width="73.421" height="64.2462" fill="white" transform="translate(0.789062 0.875)"/>
</clipPath>
</defs>
</svg>
