<svg width="73" height="62" viewBox="0 0 73 62" fill="none" xmlns="http://www.w3.org/2000/svg">
<g clip-path="url(#clip0_3360_4410)">
<path d="M41.7531 60.9357C37.3428 56.5262 32.9299 52.1198 28.5143 47.7164C28.2559 47.4591 28.191 47.2041 28.191 46.8671C28.1971 36.348 28.2032 25.8294 28.2092 15.3111C28.2092 14.7612 28.0772 14.628 27.5262 14.628C23.1091 14.6519 18.6909 14.6383 14.2738 14.6485C14.1162 14.657 13.9587 14.6308 13.8124 14.5718C13.666 14.5127 13.5344 14.4224 13.4268 14.307C9.04005 9.90735 4.64649 5.51076 0.246094 1.11719C0.468087 0.897477 0.748139 0.991966 1.00428 0.991966C14.3368 0.986654 27.6696 0.984377 41.0029 0.985136C41.2453 0.985136 41.4969 1.04206 41.7303 0.917969H41.958C41.9421 1.16159 41.9136 1.40521 41.9136 1.64884C41.9136 21.1539 41.9136 40.6589 41.9136 60.1639C41.9136 60.4098 41.9079 60.6557 41.9056 60.9027L41.7531 60.9357Z" fill="#785233"/>
<path d="M72.9172 18.3236C71.5158 19.5668 70.2442 20.942 68.9168 22.2603C65.8225 25.3341 62.7499 28.4272 59.6534 31.4986C59.5119 31.6309 59.4011 31.7927 59.3289 31.9725C59.2567 32.1523 59.2249 32.3457 59.2356 32.5392C59.2481 37.3205 59.2424 42.094 59.2481 46.8708C59.2481 47.185 59.2037 47.44 58.959 47.6791C54.5935 52.0263 50.2329 56.3804 45.8773 60.7414C45.7988 60.8199 45.7157 60.8939 45.6371 60.969C45.4345 60.8552 45.5233 60.6844 45.5233 60.5524C45.5187 46.6385 45.5134 32.7243 45.5073 18.8097C45.5073 18.3043 45.6849 18.2337 46.1278 18.2337C54.8709 18.2466 63.6136 18.2493 72.356 18.2417C72.5438 18.2417 72.7316 18.2212 72.9183 18.2109L72.9172 18.3236Z" fill="#785233"/>
<path d="M72.9164 14.6833C72.7092 14.6753 72.502 14.6583 72.2936 14.6583C63.5923 14.6583 54.8917 14.6621 46.1918 14.6697C45.6522 14.6697 45.4928 14.5478 45.4962 13.9866C45.5202 9.83704 45.5099 5.68748 45.5088 1.53792C45.5088 1.33073 45.4951 1.12239 45.4883 0.914062H59.2632C59.3793 1.05978 59.4932 1.21119 59.6252 1.34439C63.7509 5.47308 67.8788 9.59949 72.009 13.7236C72.3016 14.0151 72.5566 14.3509 72.9198 14.5706L72.9164 14.6833Z" fill="#EBBB4F"/>
<path d="M41.7342 0.915298C41.5009 1.03939 41.2493 0.982465 41.0068 0.982465C27.6728 0.984741 14.3396 0.987018 1.00708 0.989295C0.750934 0.989295 0.470882 0.894806 0.248889 1.11452L0.078125 1.02914C0.20449 0.791209 0.423068 0.923267 0.590416 0.923267C8.4076 0.914918 16.2225 0.912262 24.0351 0.915298H41.7342Z" fill="#EBBB4F"/>
<path d="M41.9042 60.8945L41.9588 61.0949H41.845L41.7539 60.9298L41.9042 60.8945Z" fill="#EBBB4F"/>
</g>
<defs>
<clipPath id="clip0_3360_4410">
<rect width="72.8592" height="60.2227" fill="white" transform="translate(0.0703125 0.886719)"/>
</clipPath>
</defs>
</svg>
