<svg width="51" height="57" viewBox="0 0 51 57" fill="none" xmlns="http://www.w3.org/2000/svg">
<path d="M9.97755 31.4404C10.0072 31.3655 10.0167 31.2842 10.0051 31.2046V20.9458C10.0051 20.7222 10.0051 20.7222 10.1934 20.8279C12.086 21.8956 13.9785 22.9623 15.871 24.028C15.9198 24.0482 15.961 24.0835 15.9885 24.1286C16.016 24.1737 16.0285 24.2264 16.0241 24.2791C16.0241 33.41 16.0241 42.5398 16.0241 51.6686V51.8447C15.8636 51.8285 15.7077 51.7817 15.5648 51.7069C14.742 51.3191 13.9428 50.883 13.1716 50.4008C12.4228 49.9522 11.6588 49.5295 10.8901 49.1192C10.5904 48.9606 10.325 48.7443 10.109 48.4829C9.89299 48.2214 9.73074 47.92 9.63151 47.5957C8.78324 45.1075 7.9166 42.6271 7.05609 40.1435C7.04231 40.1037 7.027 40.0654 6.99484 39.9812C6.98565 40.0731 6.97953 40.1205 6.978 40.1695C6.90859 42.2478 6.8407 44.3266 6.77435 46.406C6.77435 46.6203 6.76517 46.6219 6.55846 46.5346C6.19337 46.3782 5.84114 46.1934 5.50502 45.9818C4.055 45.0892 2.55599 44.2807 1.06464 43.4615C1.01486 43.4413 0.973008 43.4054 0.945393 43.3592C0.917778 43.3131 0.905891 43.2593 0.911521 43.2058C0.911521 34.0342 0.911521 24.862 0.911521 15.6893C0.911521 15.4718 0.911521 15.4657 1.11823 15.5515C1.31131 15.6276 1.4986 15.7177 1.67863 15.8209C2.87448 16.5574 4.1285 17.1852 5.34424 17.8926C5.77126 18.1321 6.18061 18.4017 6.56918 18.6995C6.77384 18.856 6.92128 19.0756 6.98872 19.3242C7.20002 20.0653 7.29495 20.8309 7.48635 21.5766C7.8477 23.0404 8.21977 24.5011 8.58725 25.9634C9.03435 27.7242 9.4789 29.4866 9.9209 31.2505C9.93621 31.3071 9.95458 31.3623 9.97755 31.4404Z" fill="#0B0B0B"/>
<path d="M47.7637 14.6527C47.7529 14.7874 47.7453 14.9221 47.73 15.0554C47.7049 15.2846 47.6213 15.5036 47.4873 15.6913C47.3532 15.879 47.1731 16.0291 46.9644 16.1272C45.9339 16.6861 44.9249 17.2832 43.9128 17.8727C39.895 20.2169 35.8542 22.5229 31.8625 24.9161C30.2548 25.8776 28.6256 26.8055 26.9306 27.6079C26.5524 27.7916 26.1602 27.9452 25.7577 28.0672C25.5341 28.1353 25.2941 28.1261 25.0764 28.0412C24.2679 27.7138 23.4817 27.3338 22.723 26.9035C19.6055 25.2192 16.5708 23.3987 13.5283 21.5873C12.2896 20.8508 11.0142 20.1802 9.79994 19.4039C9.59323 19.2722 9.39877 19.1237 9.19666 18.9859C9.0956 18.9154 9.08182 18.8542 9.17981 18.7593C9.30299 18.6408 9.4403 18.5379 9.58864 18.453C12.2728 16.9494 14.9339 15.406 17.5982 13.8672L31.7262 5.70607C31.9743 5.56214 32.2223 5.41514 32.4566 5.24672C32.5916 5.13944 32.7575 5.0784 32.9298 5.07261C33.1021 5.06682 33.2717 5.11658 33.4136 5.21456C34.1026 5.62032 34.7916 6.01842 35.4883 6.41959L45.7976 12.4064C46.1039 12.5841 46.4101 12.7525 46.7163 12.9286C46.8792 13.0257 47.033 13.1374 47.1757 13.2624C47.3863 13.4229 47.5513 13.6356 47.6544 13.8794C47.7575 14.1232 47.7952 14.3898 47.7637 14.6527ZM27.1557 20.8723C27.3547 20.8814 27.553 20.8415 27.7329 20.7559C28.0378 20.6303 28.334 20.4845 28.6195 20.3195C29.8444 19.6305 31.0005 18.8312 32.2315 18.1544C32.9971 17.7334 33.7397 17.2725 34.4609 16.7764C34.9313 16.4754 35.3677 16.1242 35.7624 15.7291C35.905 15.5858 36.0101 15.4096 36.0686 15.2161C36.2692 14.4812 36.0288 13.8274 35.3597 13.3695C34.3981 12.7096 33.3967 12.1125 32.3846 11.5322C32.2407 11.4348 32.0716 11.3813 31.8979 11.3783C31.7242 11.3753 31.5534 11.4229 31.4062 11.5153C30.1568 12.1844 28.9395 12.9087 27.713 13.613C25.3841 14.9512 23.1195 16.3982 20.7202 17.6124C20.5962 17.6752 20.5438 17.6934 20.5269 17.776C20.5101 17.8587 20.662 17.9523 20.7355 17.9784C21.0628 18.1588 21.5361 18.3409 21.9115 18.5694C22.8516 19.1022 23.7489 19.6979 24.7211 20.1817C25.4725 20.5868 26.3035 20.8225 27.1557 20.8723Z" fill="#0B0B0B"/>
<path d="M33.2773 25.1947V25.4198C33.2773 27.7339 33.2773 30.047 33.2773 32.3591C33.29 32.4248 33.2764 32.4929 33.2395 32.5487C33.2026 32.6045 33.1452 32.6436 33.0798 32.6576C32.5541 32.8726 32.0488 33.1345 31.57 33.4401L26.606 36.3722C26.3745 36.5088 26.1341 36.6295 25.8864 36.7336C25.725 36.8091 25.5462 36.8398 25.3689 36.8223C25.1916 36.8047 25.0223 36.7397 24.8789 36.6341C24.6369 36.4687 24.3996 36.2957 24.1592 36.1273L23.7565 35.844C23.7029 35.8884 23.7274 35.9405 23.7274 35.9833C23.7274 37.3185 23.7274 38.6527 23.7274 39.9858C23.7274 40.0715 23.7274 40.1466 23.8269 40.1925C24.357 40.4443 24.8542 40.7601 25.3076 41.1326C25.3719 41.1832 25.4209 41.2199 25.5128 41.1602C26.9413 40.2415 28.4541 39.4683 29.9286 38.6307C30.6345 38.2311 31.3388 37.8284 32.0462 37.366C32.0462 37.9463 32.2085 38.4837 32.207 39.0395C32.207 40.8198 32.207 42.6005 32.207 44.3818C32.207 44.6176 32.1565 44.8212 31.9207 44.9284C31.0525 45.3265 30.2609 45.8609 29.431 46.3263C28.1433 47.0491 26.8801 47.8162 25.5863 48.5282C25.5387 48.5629 25.4799 48.5787 25.4213 48.5725C25.3627 48.5662 25.3085 48.5384 25.2693 48.4945C24.7885 48.101 24.2587 47.7718 23.7274 47.3767V56.1044C23.7274 56.3341 23.7274 56.3371 23.5161 56.2406C22.7949 55.9084 22.1243 55.4751 21.4383 55.0846C20.2333 54.3864 19.0313 53.6851 17.8248 52.9915C17.7851 52.9714 17.7527 52.9392 17.7324 52.8996C17.712 52.86 17.7047 52.815 17.7115 52.771C17.7115 51.2531 17.7115 49.7358 17.7115 48.2189V25.4168C17.7115 25.1764 17.7115 25.1702 17.9381 25.2636C18.7558 25.6462 19.5526 26.0719 20.3252 26.5391C21.7032 27.3231 23.043 28.1805 24.4287 28.9538C24.7058 29.1069 24.9891 29.2523 25.2785 29.3825C25.3573 29.4213 25.4446 29.4397 25.5323 29.436C25.6201 29.4322 25.7055 29.4065 25.7807 29.361C27.0332 28.6996 28.2551 27.983 29.4754 27.2664C30.5901 26.6095 31.6971 25.9389 32.8562 25.3601C32.9899 25.2894 33.1312 25.2339 33.2773 25.1947Z" fill="#0B0B0B"/>
<path d="M40.2196 28.4209C38.5261 29.4315 36.851 30.4114 35.1285 31.3546V31.1433C35.1285 28.8108 35.1285 26.4794 35.1285 24.149C35.1285 23.9958 35.1805 23.9484 35.3092 23.8932C36.1899 23.4875 37.0458 23.0299 37.8723 22.5229C40.0466 21.2581 42.2086 19.9735 44.3874 18.7164C46.0319 17.7671 47.6611 16.7932 49.3055 15.8454C49.5057 15.7279 49.7128 15.6226 49.9257 15.53C50.0451 15.4795 50.0941 15.481 50.0926 15.6372C50.0926 17.9513 50.0926 20.2644 50.0926 22.5764C50.0944 22.6234 50.0816 22.6698 50.0557 22.709C50.0299 22.7483 49.9925 22.7785 49.9486 22.7954C48.716 23.5059 47.4865 24.2194 46.2509 24.9237C46.1892 24.9519 46.1381 24.999 46.105 25.0582C46.072 25.1174 46.0587 25.1856 46.0671 25.2529C46.0671 31.99 46.0671 38.7272 46.0671 45.4643C46.0746 45.5314 46.0604 45.5992 46.0265 45.6577C45.9926 45.7161 45.9408 45.7621 45.8788 45.7889C44.0414 46.7995 42.204 47.8136 40.3666 48.8313L40.2135 48.9094L40.2196 28.4209Z" fill="#0B0B0B"/>
<path d="M1.53317 14.4077C2.53609 13.8473 3.5145 13.3221 4.47607 12.7693C7.76808 10.8768 11.0555 8.97817 14.3383 7.0734C17.6502 5.15638 20.979 3.26845 24.2695 1.31315C24.6383 1.0855 25.0267 0.891288 25.4301 0.73284C25.4641 0.713368 25.5026 0.703125 25.5418 0.703125C25.5811 0.703125 25.6196 0.713368 25.6536 0.73284C26.9827 1.55661 28.373 2.27319 29.7097 3.08165C30.1554 3.33627 30.5831 3.62122 30.9897 3.93451C31.1122 4.03556 31.1168 4.07997 30.9668 4.16571C26.4008 6.76563 21.8364 9.36861 17.2736 11.9747C14.6323 13.489 12.014 15.0293 9.3804 16.5513C8.82458 16.8713 8.25499 17.1638 7.72215 17.5236C7.29189 17.8115 6.89532 17.7931 6.462 17.5236C5.11916 16.6998 3.79624 15.8393 2.46565 15.0002L1.53317 14.4077Z" fill="#0B0B0B"/>
</svg>
