<svg width="93" height="51" viewBox="0 0 93 51" fill="none" xmlns="http://www.w3.org/2000/svg">
<path d="M22.4835 19.318H31.9324C31.7812 20.0481 31.6386 20.7113 31.5046 21.3796C31.3328 22.2746 31.362 23.1353 32.2227 23.6696C33.0559 24.185 33.951 24.0802 34.7293 23.5494C35.1845 23.2367 35.7222 22.8055 35.8666 22.321C36.3923 20.5566 36.7685 18.7476 37.2289 16.8355H32.4529C33.6315 11.2898 34.7859 5.85929 35.949 0.394391H45.4374C44.2778 5.85414 43.1336 11.24 41.9723 16.7152H44.2623C45.4288 11.2675 46.5816 5.84899 47.7412 0.416725C47.9228 0.380127 48.1064 0.354881 48.291 0.341133C53.3573 0.341133 58.4271 0.303338 63.4917 0.356595C67.3744 0.397827 70.4959 2.76177 71.4563 6.24584C72.3153 9.38459 71.5061 12.2416 69.9445 14.9577C69.5923 15.5711 69.1404 16.1277 68.6388 16.8475H73.1777C72.9544 17.1379 72.8719 17.277 72.7602 17.3887C70.0235 20.1581 66.7817 21.7455 62.8131 21.6699C61.0436 21.6355 59.2724 21.6699 57.4375 21.6699C56.5975 25.6213 55.7711 29.4953 54.931 33.4364H45.4563C46.6143 27.956 47.7619 22.5186 48.9318 16.9867H46.6555C46.3445 18.416 46.0095 19.8849 45.7089 21.3624C44.4066 27.7601 38.7528 32.8729 32.3086 33.4638C27.5807 33.8985 23.6929 31.5655 22.1725 27.365C21.4046 25.2364 21.5815 23.0855 22.0935 20.9363C22.2206 20.4055 22.3478 19.8815 22.4835 19.318ZM54.7386 12.1815C56.8259 12.1815 58.7363 12.2347 60.6399 12.142C61.078 12.1196 61.6174 11.6764 61.8888 11.283C62.3304 10.6284 61.9387 9.87078 61.181 9.8536C59.2208 9.81065 57.2572 9.83986 55.2299 9.83986L54.7386 12.1815Z" fill="#0B0B0B"/>
<path d="M40.7656 41.9688H41.8428L45.8526 47.8494L46.0244 47.8065V41.9928H47.2733V50.569H46.2065L42.2414 44.7484L42.0593 44.8034V50.5587H40.7708L40.7656 41.9688Z" fill="#0B0B0B"/>
<path d="M22.0789 50.5772H21.2199L20.8144 49.9055C19.2906 50.8023 17.7066 51.0239 16.1759 49.9725C14.707 48.964 14.1143 47.4986 14.2758 45.7377C14.4682 43.6967 16.1415 42.0303 18.1241 41.8705C19.8592 41.7313 21.5085 42.9116 21.9861 44.6966H20.7354C19.7355 43.2277 18.9332 42.8223 17.6894 43.1762C16.1948 43.6005 15.2842 45.3271 15.6519 47.0347C15.9955 48.6325 17.3029 49.6255 18.7992 49.4245C19.83 49.287 20.567 48.5449 20.7595 47.3629H18.3251V46.1775H22.0789V50.5772Z" fill="#0B0B0B"/>
<path d="M59.8472 41.9457C61.0377 41.9457 62.1802 41.9027 63.3175 41.9577C64.5905 42.0195 65.5079 42.8167 65.7828 43.9677C66.0577 45.1188 65.5612 46.1599 64.4084 46.8299C64.2864 46.9003 64.1593 46.9639 63.9635 47.067L66.0147 50.5734H64.5854L62.6063 47.2044H61.1614V50.5579H59.8438L59.8472 41.9457ZM61.1717 45.909C61.9551 45.909 62.6423 45.9675 63.3141 45.8936C63.6472 45.8651 63.9563 45.7087 64.1767 45.4573C64.397 45.2059 64.5115 44.8789 64.496 44.545C64.4651 43.8767 64.1284 43.3424 63.4653 43.2599C62.7179 43.1637 61.95 43.2376 61.1786 43.2376L61.1717 45.909Z" fill="#0B0B0B"/>
<path d="M23.5283 46.1584C23.5747 43.7996 25.4594 41.8428 27.6618 41.8634C29.8643 41.8841 31.785 43.9456 31.7661 46.301C31.7403 48.7062 29.8454 50.6887 27.6068 50.6595C25.303 50.632 23.4785 48.6151 23.5283 46.1584ZM30.4226 46.2924C30.4226 44.5349 29.1805 43.0781 27.6618 43.0643C26.1431 43.0506 24.8392 44.5246 24.8254 46.2443C24.8117 47.964 26.0899 49.4432 27.6154 49.4552C29.141 49.4672 30.4192 48.0533 30.4226 46.2924Z" fill="#0B0B0B"/>
<path d="M70.8932 50.6596C68.6324 50.639 66.8061 48.6564 66.8164 46.2375C66.8285 43.8461 68.732 41.8378 70.9619 41.8635C73.1919 41.8893 75.0851 43.9543 75.0593 46.3062C75.025 48.7131 73.1438 50.6785 70.8932 50.6596ZM73.7159 46.2891C73.7159 44.5316 72.4669 43.0747 70.9499 43.0644C69.4329 43.0541 68.1187 44.5453 68.117 46.2513C68.117 47.9847 69.3866 49.4433 70.9121 49.4553C72.4377 49.4673 73.7159 48.0431 73.7159 46.2891Z" fill="#0B0B0B"/>
<path d="M12.7092 50.6172C12.4412 49.9507 12.1938 49.3459 11.9327 48.6845H8.49671L7.72705 50.5743H6.375L9.63917 41.9844H10.7833L14.0475 50.5468L12.7092 50.6172ZM10.2061 43.9652C9.76802 45.209 9.40724 46.2295 9.03615 47.2878H11.4087L10.2061 43.9652Z" fill="#0B0B0B"/>
<path d="M39.6619 50.5799H38.2875C38.0298 49.9477 37.7721 49.3206 37.511 48.6678H34.1042L33.3328 50.561H31.9688C33.0683 47.6731 34.142 44.8539 35.2329 41.9883H36.3788L39.6619 50.5799ZM34.6247 47.2968H37.0042L35.8016 43.9794L34.6247 47.2968Z" fill="#0B0B0B"/>
<path d="M52.4688 42.0057C53.7194 42.0057 54.9495 41.8957 56.1521 42.0366C57.4423 42.1861 58.3425 43.4419 58.3168 44.739C58.3126 45.3741 58.0827 45.987 57.6682 46.4682C57.2537 46.9494 56.6816 47.2676 56.0542 47.3658C55.3292 47.474 54.5887 47.4723 53.7401 47.529V50.5698H52.4688V42.0057ZM53.8071 43.2083V46.1477C54.4943 46.1477 55.111 46.1959 55.7226 46.1357C56.0798 46.0908 56.4082 45.9165 56.6456 45.6458C56.8831 45.3752 57.0131 45.0269 57.0111 44.6668C56.9969 44.2922 56.844 43.9362 56.5821 43.6679C56.3202 43.3997 55.968 43.2383 55.5938 43.2152C55.0251 43.1808 54.4582 43.21 53.8019 43.21L53.8071 43.2083Z" fill="#0B0B0B"/>
<path d="M81.3578 45.5975V46.8516H77.9922V50.5573H76.6797V42H82.0827V43.1699H78.0455V45.594L81.3578 45.5975Z" fill="#0B0B0B"/>
<path d="M90.0634 50.5718H88.7028V43.2085H86.1602V41.9922H92.5888V43.169H90.0634V50.5718Z" fill="#0B0B0B"/>
<path d="M0.41348 48.1507H1.4666C1.73117 48.5286 1.91328 48.9873 2.25 49.233C3.17256 49.9047 4.31158 49.2691 4.34079 48.051C4.38889 46.3949 4.35453 44.7353 4.35625 43.0689V41.9883H5.65676C5.65676 44.1701 5.75125 46.3399 5.62412 48.496C5.53822 49.9597 4.19132 50.7998 2.62968 50.628C1.25014 50.482 0.348197 49.4907 0.41348 48.1507Z" fill="#0B0B0B"/>
<path d="M83.5625 41.9883H84.7857V50.5421H83.5625V41.9883Z" fill="#0B0B0B"/>
</svg>
