<svg width="77" height="60" viewBox="0 0 77 60" fill="none" xmlns="http://www.w3.org/2000/svg">
<g clip-path="url(#clip0_3357_5234)">
<path d="M49.1 59.1902C42.8517 59.1849 37.8746 54.1273 37.8478 47.7664C37.8209 41.4055 42.8732 36.305 49.1482 36.3479C55.4823 36.3908 60.4005 41.4055 60.3897 47.8254C60.3844 54.1648 55.375 59.2063 49.0946 59.1956L49.1 59.1902ZM49.1053 55.2911C50.8967 55.3018 52.4681 54.7172 53.7553 53.4676C56.4477 50.8557 56.8768 46.1574 54.7368 43.0145C52.0015 38.9974 46.0107 39.0886 43.4095 43.1861C42.3208 44.9024 42.0419 46.7903 42.2403 48.7854C42.6104 52.5344 45.5012 55.2804 49.1107 55.2911H49.1053Z" fill="#0B0B0B"/>
<path d="M57.1747 3.71793C56.3004 4.82277 55.4745 5.86325 54.729 6.81256C53.6617 6.26014 52.6748 5.61118 51.5915 5.21429C49.8859 4.59215 48.0999 4.54924 46.3676 5.12848C45.8366 5.30547 45.2628 5.67017 44.941 6.12069C44.1633 7.19335 44.5923 8.55027 45.8956 9.05442C47.2633 9.58539 48.7006 9.934 50.1005 10.3899C51.4788 10.835 52.8947 11.1997 54.2034 11.8058C56.3487 12.7926 57.5662 14.5143 57.6734 16.9331C57.7861 19.4807 56.6222 21.3257 54.4984 22.6075C52.6319 23.7284 50.5563 24.0931 48.4057 24.0824C45.9385 24.077 43.5358 23.7392 41.369 22.4627C40.5162 21.9585 39.76 21.2935 38.918 20.666C39.9424 19.5504 40.8649 18.5475 41.841 17.4855C42.0501 17.6572 42.2432 17.8127 42.4309 17.9682C45.0858 20.194 48.0946 20.6338 51.334 19.6255C52.7499 19.1857 53.2809 18.1399 52.9162 16.8527C52.7178 16.1554 52.2351 15.6781 51.5915 15.4636C49.9932 14.9326 48.3788 14.4499 46.7591 13.9994C45.2735 13.5864 43.82 13.1359 42.5221 12.2402C39.2076 9.95546 39.1379 4.98367 42.5221 2.62382C44.5548 1.2079 46.8288 0.752023 49.2638 0.800293C51.8489 0.859289 54.2463 1.4868 56.3541 3.05288C56.6276 3.25669 56.885 3.47658 57.1747 3.71793Z" fill="#0B0B0B"/>
<path d="M32.918 1.30078H37.1764C37.1872 1.52604 37.2033 1.73521 37.2033 1.93901C37.2033 6.24575 37.2301 10.5525 37.1872 14.8592C37.1764 15.9641 37.037 17.0904 36.7742 18.1576C35.8463 21.8798 33.1593 24.009 29.3138 24.068C27.9301 24.0895 26.5088 24.0895 25.1626 23.8106C21.9339 23.1348 20.2016 20.8929 19.5044 17.7876C19.3005 16.8758 19.2201 15.9212 19.2147 14.9879C19.1879 10.6812 19.204 6.37447 19.204 2.06773C19.204 1.83175 19.204 1.59576 19.204 1.32223H23.4678V1.97656C23.4678 6.15457 23.4464 10.3326 23.4839 14.5106C23.4893 15.3795 23.6126 16.2644 23.8272 17.1064C24.4815 19.6969 26.777 20.4263 28.6327 20.2279C31.3036 19.9436 32.7088 18.3722 32.8375 15.5296C32.9341 13.4326 32.9019 11.3355 32.9126 9.23311C32.9233 6.83571 32.9126 4.43295 32.9126 2.03555V1.30078H32.918Z" fill="#0B0B0B"/>
<path d="M74.2158 13.4882H66.0958C66.0958 14.2712 66.0958 15.0167 66.0958 15.7622C66.1119 18.2884 66.0797 20.8198 66.1655 23.3406C66.2567 26.0383 67.8281 28.0388 70.2684 28.4411C71.3572 28.6181 72.521 28.4411 73.6366 28.3177C74.0656 28.2695 74.2802 28.307 74.5269 28.6503C75.2724 29.6907 76.0501 30.7098 76.9457 31.9058C75.7122 32.2008 74.6181 32.5494 73.4971 32.7103C71.7487 32.957 69.9949 32.898 68.2679 32.4743C64.5404 31.5625 62.0304 28.6556 61.655 24.7994C61.5745 23.9466 61.5316 23.0939 61.5262 22.2357C61.5155 15.5102 61.5209 8.78458 61.5209 2.05363V1.32422H66.0743V9.55153H74.2051V13.4936L74.2158 13.4882Z" fill="#0B0B0B"/>
<path d="M36.5244 40.3407C35.5644 41.3061 34.6312 42.2393 33.757 43.1136C33.1402 42.5182 32.5502 41.7942 31.8155 41.2739C28.3776 38.8283 22.4136 39.9063 21.1693 45.7952C20.6222 48.3911 21.0781 50.8367 22.7944 52.923C25.5672 56.3019 30.952 56.0338 33.4405 52.4296C33.521 52.3116 33.6068 52.1883 33.6658 52.1025C34.6419 53.0786 35.6073 54.044 36.5781 55.0147C34.4918 57.9538 30.0188 59.9758 25.4063 58.8978C20.5472 57.7661 17.0396 53.6203 16.6695 48.6431C16.2941 43.5909 19.1742 38.9087 23.7651 37.1174C28.324 35.3368 33.5907 36.6776 36.5137 40.3407H36.5244Z" fill="#0B0B0B"/>
<path d="M0.0429688 31.7649C0.868918 30.6547 1.65732 29.6142 2.42428 28.5576C2.63345 28.268 2.83189 28.209 3.1805 28.3109C4.32825 28.6381 5.50818 28.7132 6.67201 28.4557C9.06405 27.9301 10.555 26.053 10.7374 23.4089C10.7589 23.0656 10.7642 22.7223 10.7642 22.3791C10.7642 15.6052 10.7642 8.83675 10.7642 2.0629V1.32812H15.3284C15.3391 1.45684 15.3713 1.61774 15.3713 1.77864C15.3713 8.9762 15.3981 16.1791 15.3338 23.3767C15.3069 26.5142 14.2718 29.2656 11.6009 31.1642C9.93827 32.3495 8.0182 32.7464 6.02305 32.8215C4.06545 32.8912 2.12929 32.7196 0.311134 31.899C0.236048 31.8668 0.166325 31.8239 0.0429688 31.7649H0.0429688Z" fill="#0B0B0B"/>
<path d="M57.6566 28.3555V32.2117H19.25V28.3555H57.6566Z" fill="#048BB7"/>
</g>
<defs>
<clipPath id="clip0_3357_5234">
<rect width="76.9098" height="58.401" fill="white" transform="translate(0.046875 0.800781)"/>
</clipPath>
</defs>
</svg>
