<svg width="83" height="62" viewBox="0 0 83 62" fill="none" xmlns="http://www.w3.org/2000/svg">
<g clip-path="url(#clip0_3360_4096)">
<path d="M19.3935 0.292765C23.5862 0.292765 27.2518 0.631704 30.8599 1.51464C32.3424 1.85667 33.7653 2.41877 35.0814 3.18223C35.7948 3.6076 36.3897 4.22956 36.5659 5.1108C36.815 6.36149 37.137 7.53592 38.1928 8.43072C38.7538 8.90694 38.6606 9.7492 38.5843 10.4322C38.5081 11.1151 38.4148 11.8303 38.3962 12.5319C38.3691 13.3233 38.1759 14.03 37.5827 14.5893C37.3387 14.8181 37.2913 15.118 37.2523 15.4366C36.971 17.7007 36.5541 19.9564 36.4202 22.2273C36.0812 27.9571 35.2254 33.6309 34.7034 39.3438C34.4764 41.8113 34.1679 44.2703 33.8951 46.7327C33.9011 46.8738 33.8701 47.014 33.8053 47.1394C32.7325 48.4121 33.024 50.0204 32.7681 51.4761C32.525 52.8605 32.3542 54.2566 32.2563 55.6587C32.1919 56.567 31.7479 57.1602 31.0937 57.6923C28.4297 59.8564 25.2826 60.775 21.9576 61.0936C17.9174 61.4817 14.023 60.9241 10.4879 58.7481C10.3438 58.66 10.2014 58.5685 10.0591 58.477C8.83891 57.6923 8.12374 56.684 7.98817 55.1367C7.7865 52.8421 7.49332 50.5271 6.93746 48.2969C6.37816 45.9922 5.96104 43.6553 5.68846 41.2995C5.0987 36.5001 4.0446 31.7769 3.44806 26.9792C3.27859 25.6692 2.89898 24.3626 2.92271 23.0594C2.97016 20.3326 2.22449 17.7262 1.94825 15.0553C1.91097 14.691 1.87368 14.3283 1.49068 14.1181C1.43035 14.0813 1.37858 14.032 1.33884 13.9736C1.29909 13.9151 1.27228 13.8488 1.2602 13.7792C1.15344 12.2184 0.687395 10.683 1.01108 9.08827C1.15005 8.41039 1.42628 7.86808 2.04316 7.5427C2.53292 7.28341 2.68884 6.83601 2.72104 6.35641C2.84305 4.26006 4.15475 3.18562 5.94097 2.43487C8.27966 1.45025 10.7404 0.996065 13.2282 0.680851C15.4262 0.404614 17.648 0.221588 19.3935 0.292765ZM3.80226 24.3677C3.50738 25.1066 3.97172 25.8336 4.07002 26.5979C4.40896 29.1552 4.8123 31.7024 5.13599 34.2614C5.30546 35.5832 6.08502 36.2645 7.24589 36.7221C8.46269 37.2034 9.73202 37.4711 10.9742 37.8304C12.3893 38.2591 13.8459 38.5363 15.3194 38.6574C20.6188 39.0167 25.8588 38.6083 30.9565 36.9932C31.7564 36.7407 32.5563 36.4848 33.3494 36.2086C34.6357 35.7629 34.5679 34.6088 34.695 33.5699C34.9932 31.1194 35.1034 28.6553 35.5203 26.2081C35.6305 25.5709 35.5372 24.8981 35.5372 24.388C24.9267 28.5621 14.3975 28.6672 3.80226 24.3677ZM5.76133 36.6848C5.62914 37.1034 5.75286 37.4322 5.80031 37.7575C6.16806 40.2657 6.70528 42.762 6.87644 45.282C7.00524 47.1953 7.98817 48.1003 9.59983 48.6562C9.78625 48.7206 9.96928 48.7985 10.1574 48.8527C17.0277 50.8254 23.8845 50.683 30.704 48.6341C32.2834 48.1596 33.3104 47.258 33.3189 45.4142C33.3273 44.0127 33.5866 42.6112 33.7375 41.2113C33.9069 39.6488 34.0764 38.0846 34.2611 36.4136C29.5753 38.0999 24.8928 39.1692 19.9951 39.2777C15.0635 39.3828 10.298 38.732 5.76133 36.6848ZM2.71087 15.1163C2.67697 15.1892 2.65155 15.218 2.65494 15.24C3.01761 17.7753 3.37971 20.31 3.74124 22.8442C3.75854 22.9399 3.79548 23.0311 3.84973 23.1119C3.90398 23.1927 3.97437 23.2613 4.05646 23.3136C4.62926 23.763 5.24124 24.16 5.88505 24.4999C8.25763 25.7489 10.8505 26.1183 13.4536 26.4217C19.385 27.1131 25.2741 26.9301 31.0649 25.3371C32.5902 24.9168 34.0781 24.3965 35.2847 23.2933C35.54 23.0755 35.7 22.7665 35.7304 22.4324C35.9762 20.3987 36.2388 18.3515 36.4964 16.3094C36.5236 16.0857 36.6456 15.823 36.4134 15.6213C25.1962 20.2614 13.2333 20.0869 2.71765 15.1163H2.71087ZM19.9867 60.5564C21.002 60.5597 22.016 60.4803 23.0185 60.3191C25.9266 59.8548 28.6551 58.9633 30.926 56.9822C31.1033 56.8456 31.2518 56.6753 31.3629 56.481C31.474 56.2867 31.5455 56.0723 31.5733 55.8502C31.8275 53.6979 32.0817 51.5439 32.3851 49.3984C32.4969 48.6036 32.1902 48.5782 31.6225 48.8561C30.3797 49.4586 29.067 49.9049 27.7145 50.1848C23.2557 51.1203 18.7614 51.1084 14.2586 50.5627C12.327 50.3243 10.4419 49.7982 8.66605 49.0019C7.82887 48.629 7.71702 48.7206 7.83734 49.5272C8.11697 51.4202 8.49997 53.3047 8.65249 55.2079C8.75079 56.4569 9.35749 57.2042 10.2997 57.8601C13.2163 59.892 16.5108 60.5411 19.9867 60.5564ZM10.6522 3.0958C11.0691 3.3534 11.32 3.51778 11.5792 3.66692C14.0908 5.11928 16.6278 6.52927 19.0969 8.04772C19.7918 8.47478 20.4442 8.55613 21.2035 8.58494C23.7455 8.70018 26.2181 8.25786 28.6991 7.88164C30.1955 7.65455 31.6699 7.23087 32.9765 6.40555C34.0645 5.72767 34.0713 4.95828 32.9986 4.27023C31.9258 3.58218 30.7328 3.27713 29.521 3.00429C25.5843 2.11796 21.5882 2.02136 17.5751 2.15694C17.3107 2.16541 16.9921 2.30099 16.7413 1.98747C17.0006 1.7536 17.265 1.83494 17.5022 1.818C20.1748 1.58752 22.8405 1.818 25.4978 2.02305C27.8026 2.19252 30.0922 2.59078 32.2393 3.49914C33.0714 3.85164 34.1035 4.19905 34.1035 5.33789C34.1035 6.47673 33.0867 6.8394 32.2529 7.18342C29.9396 8.12737 27.4959 8.55952 25.0182 8.73916C23.3506 8.85948 21.678 8.89507 20.0002 8.90863C16.2024 8.92388 12.4588 8.63748 8.8423 7.43424C8.06274 7.17495 7.7238 7.34103 7.43909 8.0223C9.54899 8.83237 11.7063 9.22045 13.8959 9.47805C19.4291 10.1305 24.9301 9.96612 30.3701 8.71882C32.0478 8.33413 33.6985 7.80199 35.0305 6.62926C36.2066 5.5904 36.1372 4.73966 34.8458 3.84655C33.6188 2.9992 32.2292 2.51791 30.8006 2.18236C23.8302 0.545275 16.8294 0.552054 9.82184 1.92307C8.1051 2.26201 6.43243 2.77042 4.92245 3.70589C4.42392 3.98268 4.01294 4.39365 3.73616 4.89219C3.46331 5.4311 3.94461 5.70564 4.19204 6.05306C4.26152 6.14965 4.42082 6.33099 4.51064 6.15304C4.99702 5.18537 5.65118 5.66158 6.28499 5.95646C6.25449 4.81084 6.51378 4.46851 7.48315 3.82622C8.64402 3.05513 10.0252 3.00598 11.2928 2.60773C12.8028 2.12982 14.4585 1.85867 16.1092 2.21625C14.3484 2.39928 12.5859 2.6162 10.6522 3.0958ZM36.2507 6.34624C34.5255 7.93926 33.3884 8.568 31.1022 9.1747C26.3062 10.4457 21.4204 10.6542 16.4973 10.3491C13.1384 10.1424 9.82353 9.68141 6.67817 8.38836C5.42398 7.87783 4.29115 7.10933 3.35316 6.13271C3.36164 7.26985 2.82272 7.80877 2.11603 8.30532C1.35511 8.83915 1.41951 9.77293 2.17195 10.339C3.83785 11.5812 5.78845 12.1658 7.76447 12.6454C14.8482 14.3965 22.2082 14.7294 29.4211 13.625C32.1326 13.2098 34.7662 12.4658 37.1082 10.944C38.1471 10.2661 38.2844 9.3662 37.4302 8.53749C36.832 7.95282 36.3236 7.34442 36.2507 6.34624ZM1.6144 10.7745C1.65337 11.3507 1.72625 11.7625 1.70083 12.1692C1.62965 13.2437 2.10925 13.9165 3.01761 14.4825C5.05716 15.7377 7.29048 16.6465 9.62695 17.172C15.7279 18.604 21.8627 18.6057 28.0111 17.6041C30.7667 17.155 33.4799 16.5195 35.9304 15.074C37.137 14.3605 37.9234 13.4318 37.7692 11.9388C37.7505 11.7608 37.9047 11.5219 37.6556 11.4168C37.4861 11.3422 37.3574 11.5202 37.2201 11.6083C36.0929 12.3044 34.8838 12.8582 33.6205 13.2572C30.7395 14.2029 27.7484 14.613 24.7318 14.774C18.6411 15.1129 12.6249 14.6384 6.72222 13.0234C4.9716 12.5421 3.2769 11.8879 1.6144 10.7745ZM18.9732 8.57138C18.9732 8.46631 18.9902 8.41886 18.9732 8.41208C16.2786 6.69027 13.4536 5.19215 10.7031 3.56184C10.4201 3.39237 10.3014 3.55337 10.1828 3.7686C9.6744 4.67526 9.17446 5.58701 8.65758 6.48012C8.46777 6.80211 8.48811 6.95972 8.86941 7.08852C12.1487 8.20363 15.5482 8.44597 18.9732 8.57138ZM10.0557 3.29578C9.16222 3.42752 8.30419 3.73696 7.53229 4.20583C7.07472 4.47529 6.57648 4.7905 6.63749 5.41585C6.6968 6.00899 7.21369 6.27337 7.65431 6.56316C7.95766 6.76144 8.16272 6.67162 8.33219 6.36319C8.86941 5.38534 9.42697 4.41597 10.0557 3.29578ZM7.48315 7.27494C6.84425 6.83601 6.21551 6.39369 5.57153 5.97341C5.40206 5.86495 5.16818 5.83444 5.04447 6.02933C4.88856 6.27845 5.1631 6.36827 5.30037 6.45809C5.75229 6.78234 6.21551 7.0936 6.69003 7.39187C6.93068 7.53592 7.19166 7.65963 7.48315 7.27494Z" fill="#222121"/>
<path d="M75.745 23.8399C76.6364 22.3994 77.5007 21.0555 78.3074 19.676C78.5735 19.2201 78.8819 19.0574 79.3886 19.0896C79.979 19.1388 80.5725 19.1388 81.163 19.0896C81.9036 19.0117 82.1154 19.2591 82.1103 20.0133C82.0747 24.772 82.0917 29.5324 82.0917 34.2928C82.0917 36.1739 82.0917 36.1739 80.1885 36.1739C78.7192 36.1739 78.7107 36.1739 78.7192 34.725C78.7395 31.5152 78.7627 28.3054 78.7887 25.0957C78.7779 24.94 78.7586 24.7849 78.7311 24.6313C78.0668 25.3499 77.7465 26.1565 77.2618 26.8548C76.8923 27.3835 76.6025 27.9682 76.2449 28.5071C75.8653 29.0782 75.4722 29.068 75.0959 28.4918C74.2672 27.2191 73.4504 25.9396 72.5539 24.5551C72.3946 25.2567 72.5234 25.8498 72.5234 26.4379C72.5234 29.4527 72.5115 32.4659 72.5369 35.4791C72.5369 36.04 72.3675 36.2248 71.8218 36.1841C71.2312 36.1383 70.638 36.1383 70.0474 36.1841C69.5238 36.2248 69.3695 36.0519 69.378 35.5299C69.4051 33.6437 69.378 31.7558 69.378 29.8696C69.378 26.5446 69.3865 23.2213 69.3594 19.898C69.3594 19.3015 69.5034 19.1557 70.1372 19.0642C72.0794 18.788 73.3928 19.3811 74.1622 21.2673C74.5418 22.152 75.1824 22.9332 75.745 23.8399Z" fill="#C12F09"/>
<path d="M61.4303 31.3979C61.9692 29.393 62.481 27.5 62.9894 25.602C63.5165 23.6463 64.0554 21.694 64.5553 19.7332C64.6824 19.2248 64.9095 19.0554 65.4247 19.0808C66.1586 19.1207 66.894 19.1207 67.6278 19.0808C68.1362 19.0554 68.2498 19.2096 68.099 19.6959C67.5109 21.6042 66.9517 23.5192 66.3771 25.4308C65.3739 28.7694 64.3537 32.1029 63.3758 35.4482C63.2064 36.0125 62.9708 36.2176 62.3844 36.1786C61.5946 36.1207 60.8017 36.1207 60.0118 36.1786C59.3967 36.2278 59.1899 35.9515 59.0289 35.4228C57.541 30.5302 56.0293 25.6444 54.5278 20.7568C54.3719 20.2484 54.2228 19.74 54.0312 19.0977C55.2464 19.0977 56.3835 19.0791 57.5206 19.1062C58.0477 19.1181 57.9663 19.6417 58.0528 19.9451C59.0425 23.4023 60 26.8696 60.9711 30.3336C61.0626 30.6607 61.088 30.9996 61.4303 31.3979Z" fill="#C12F09"/>
<path d="M51.5514 25.3966C51.5514 26.9219 51.5107 28.4386 51.5514 29.9571C51.6954 34.7023 48.5704 36.7647 44.3845 36.4427C43.3141 36.3772 42.2672 36.1014 41.3035 35.631C40.8697 35.4123 40.6765 35.1768 40.9782 34.726C41.0056 34.6764 41.0294 34.6248 41.0493 34.5718C41.3154 33.9837 41.4357 33.216 41.8865 32.855C42.4085 32.4347 42.9948 33.1753 43.5948 33.3041C45.6386 33.7414 47.1248 33.2584 47.8315 31.8246C48.1586 31.1688 48.1705 30.457 48.1705 29.7622C48.1959 27.4252 48.1705 25.0882 48.1857 22.7529C48.1857 22.2326 48.0162 22.075 47.5078 22.0886C45.7047 22.114 43.8998 22.0784 42.0983 22.1072C41.5425 22.1174 41.3103 22.0089 41.3069 21.3819C41.2934 19.0941 41.2679 19.0957 43.5761 19.0957C45.9148 19.0957 48.2535 19.1212 50.5922 19.0788C51.2989 19.0669 51.5819 19.2059 51.5531 19.9922C51.509 21.792 51.5531 23.5952 51.5514 25.3966Z" fill="#C12F09"/>
<path d="M54.4159 41.6006C54.4159 42.1362 54.3989 42.6717 54.4159 43.2055C54.426 43.4428 54.3633 43.7834 54.6311 43.8834C55.0277 44.0258 54.9565 44.3223 54.9124 44.5698C54.8446 44.9511 54.4887 44.7952 54.2837 44.7697C53.7175 44.7041 53.1443 44.7362 52.589 44.8646C51.5722 45.0799 50.8299 44.4427 50.6638 43.3496C50.4791 42.1463 51.1366 41.0973 52.1992 40.916C52.4245 40.8943 52.6508 40.8864 52.8771 40.8923C53.0787 40.8821 53.3533 41.0363 53.4211 40.6906C53.4719 40.4347 53.2923 40.3618 53.0821 40.3059C52.7246 40.2093 52.8296 39.9076 52.8517 39.6755C52.8771 39.3925 53.1381 39.4602 53.316 39.4399C54.3498 39.3264 54.4125 39.384 54.4226 40.4228C54.4226 40.816 54.4226 41.2109 54.4226 41.6091L54.4159 41.6006ZM53.4431 42.7869C53.4635 42.2599 53.5719 41.704 52.7652 41.7328C52.0874 41.7583 51.6705 42.1989 51.662 42.9479C51.6535 43.6258 52.0585 44.0986 52.6398 44.0563C53.4685 44.0003 53.4804 43.3919 53.4414 42.7903L53.4431 42.7869Z" fill="#C12F09"/>
<path d="M43.5596 44.7842C43.1088 44.7842 42.658 44.7842 42.2039 44.7842C41.9039 44.7842 41.6497 44.7842 41.6734 44.3469C41.6921 43.9961 41.8124 43.786 42.1683 43.847C43.0156 43.9927 43.0868 43.5081 43.0444 42.8607C43.018 42.4091 43.018 41.9565 43.0444 41.5049C43.0766 40.827 43.1224 40.1678 42.0869 40.3813C41.748 40.4508 41.6751 40.2 41.6768 39.9051C41.6785 39.6102 41.7785 39.4323 42.114 39.434C43.0698 39.434 44.0273 39.4459 44.9849 39.4221C45.3831 39.4137 45.4373 39.6187 45.456 39.9424C45.4797 40.3542 45.2543 40.4322 44.934 40.3796C44.2307 40.2644 44.0511 40.6084 44.1019 41.2372C44.1324 41.7151 44.1324 42.1946 44.1019 42.6726C44.0731 43.3708 44.0714 44.008 45.0815 43.8589C45.4628 43.8012 45.4441 44.1131 45.4492 44.3673C45.4543 44.6215 45.3882 44.7943 45.0713 44.7842C44.5747 44.7706 44.0663 44.7842 43.5596 44.7842Z" fill="#C12F09"/>
<path d="M60.2504 43.2556C60.1131 42.7794 60.5741 42.0914 59.7691 41.6897C59.5674 41.5897 59.5081 40.9678 60.0589 40.9983C60.9397 41.0376 61.8222 41.0047 62.6976 40.9C63.25 40.8424 63.6042 41.2474 63.7144 41.8236C63.8839 42.6879 63.7635 43.559 63.8025 44.4267C63.8212 44.8215 63.5449 44.7842 63.2941 44.7859C63.0433 44.7876 62.7857 44.8164 62.8026 44.4182C62.8247 43.8301 62.8026 43.2319 62.8026 42.6489C62.8026 42.1405 62.6128 41.7423 62.0332 41.7609C61.513 41.7795 61.235 42.0998 61.2316 42.632C61.2316 43.1929 61.2045 43.7556 61.2316 44.3165C61.2452 44.6927 61.0927 44.7944 60.7368 44.7961C60.3809 44.7978 60.2148 44.7198 60.2487 44.3318C60.2724 43.9979 60.2504 43.6573 60.2504 43.2556Z" fill="#C12F09"/>
<path d="M50.0999 43.275C50.0999 43.6139 50.0779 43.9529 50.0999 44.2918C50.1372 44.7291 49.9101 44.785 49.5424 44.8002C49.1356 44.8172 49.0831 44.6308 49.0933 44.2918C49.1102 43.7292 49.0933 43.1682 49.0933 42.6056C49.0933 42.0972 48.8628 41.7769 48.3645 41.7582C47.8663 41.7396 47.5172 42.0294 47.5002 42.5751C47.4833 43.1208 47.4664 43.7004 47.5002 44.2596C47.5189 44.663 47.3816 44.7935 46.9766 44.7935C46.5715 44.7935 46.5021 44.624 46.5156 44.285C46.5343 43.8088 46.5326 43.3292 46.5156 42.853C46.497 42.4395 46.6851 41.948 46.0835 41.7243C45.9055 41.66 45.9547 41.3702 45.997 41.1804C46.0445 40.9651 46.2394 40.9736 46.4055 40.9838C47.1766 41.0295 47.9307 41.0634 48.712 40.8889C49.4932 40.7143 49.9559 41.1634 50.0677 42.0057C50.0991 42.4253 50.1025 42.8465 50.0779 43.2665L50.0999 43.275Z" fill="#C12F09"/>
<path d="M59.2972 42.8611C59.2972 44.1287 58.5769 44.8812 57.3466 44.8948C56.079 44.9134 55.2825 44.1321 55.2774 42.8696C55.2723 41.607 56.04 40.8359 57.3313 40.8359C58.5668 40.8631 59.2955 41.6087 59.2972 42.8611ZM58.2804 42.8984C58.2804 42.1273 57.9414 41.7121 57.3008 41.7121C56.562 41.7019 56.3535 42.2205 56.2976 42.8018C56.2315 43.4695 56.7806 44.1135 57.3483 44.0593C58.016 43.9966 58.2804 43.5492 58.2719 42.9052L58.2804 42.8984Z" fill="#C12F09"/>
<path d="M65.4422 43.3397C65.7812 44.0769 66.2421 44.2515 67.2352 43.9651C67.5487 43.8753 67.8352 43.7244 67.9606 44.1769C68.0741 44.5853 67.7301 44.6582 67.4861 44.726C66.5912 44.9785 65.6626 45.0937 64.944 44.3735C64.2848 43.7143 64.2085 42.8669 64.5373 42.0196C64.8762 41.1315 65.8659 40.6892 66.9302 40.9129C67.3105 40.9765 67.6532 41.1802 67.8909 41.4838C68.1287 41.7874 68.2442 42.1689 68.2148 42.5534C68.1995 43.0025 68.0673 43.2889 67.5166 43.255C66.8709 43.216 66.2201 43.255 65.5727 43.2719C65.5287 43.2685 65.4863 43.3143 65.4422 43.3397ZM65.4185 42.4924C65.7575 42.4924 66.0608 42.5144 66.3557 42.4924C66.6217 42.467 66.9336 42.6195 67.1454 42.3653C67.2505 42.2382 67.1132 42.1026 67.0403 41.9924C66.8133 41.6535 66.4591 41.6925 66.1303 41.7433C65.8015 41.7942 65.5439 42.0196 65.4185 42.4975V42.4924Z" fill="#C12F09"/>
<path d="M71.0102 40.8594C71.404 40.8584 71.7922 40.952 72.1423 41.1322C72.3541 41.2356 72.5575 41.3542 72.3999 41.6406C72.2796 41.861 72.1677 42.1016 71.8271 41.9423C71.4243 41.7332 70.9625 41.6669 70.5171 41.7542C70.4516 41.7673 70.3896 41.7943 70.3355 41.8335C70.2814 41.8727 70.2364 41.9231 70.2036 41.9813C70.1646 42.1253 70.3205 42.2185 70.4595 42.266C70.9679 42.4355 71.4763 42.5846 71.9745 42.7642C72.1942 42.826 72.3824 42.9683 72.5018 43.1627C72.6212 43.3571 72.6628 43.5894 72.6185 43.8132C72.5575 44.2861 72.3491 44.6606 71.8305 44.7894C71.0102 44.9826 70.2171 44.969 69.4697 44.5284C69.246 44.3962 69.0173 44.2827 69.2494 43.9573C69.4189 43.7116 69.5257 43.5201 69.9002 43.7404C70.2561 43.9733 70.6749 44.0916 71.1001 44.0793C71.2475 44.0691 71.3865 44.0353 71.439 43.8776C71.4915 43.72 71.3373 43.6692 71.2509 43.5692C71.0475 43.332 70.7831 43.2913 70.5188 43.2116C69.8409 43.0049 69.1071 42.8066 69.202 41.8643C69.263 41.2102 69.9121 40.8577 71.0102 40.8594Z" fill="#C12F09"/>
<path d="M81.4581 42.8482C81.5055 43.2414 81.2564 43.7854 81.8987 44.0667C81.9784 44.1006 81.9953 44.6057 81.8987 44.6718C81.5598 44.8971 81.0514 44.9209 80.7938 44.7056C80.4701 44.4243 80.3311 44.5362 80.0583 44.6904C79.6953 44.8591 79.2812 44.881 78.9025 44.7514C78.4771 44.6362 78.0467 44.2735 78.1026 43.9041C78.1839 43.3567 78.472 42.7788 79.1075 42.5873C79.3832 42.5309 79.6634 42.5002 79.9447 42.4958C80.1532 42.4754 80.4531 42.5788 80.4769 42.2534C80.4904 41.9721 80.2616 41.7992 79.9871 41.767C79.68 41.7167 79.3651 41.7501 79.0753 41.8636C78.8025 41.984 78.6161 41.9619 78.5144 41.6111C78.4127 41.2603 78.5144 41.1434 78.8211 41.0688C79.2813 40.934 79.7606 40.8767 80.2396 40.8993C81.2073 40.9722 81.5005 41.4298 81.4581 42.8482ZM79.7092 43.9651C80.0786 43.9244 80.4718 43.8769 80.5124 43.4143C80.548 43.0228 80.1904 43.0889 79.9701 43.1075C79.6312 43.138 79.1228 42.9821 79.0991 43.5888C79.0787 44.0379 79.4787 43.8668 79.7092 43.9651Z" fill="#C12F09"/>
<path d="M75.3559 44.7845C74.934 44.7845 74.5086 44.7845 74.09 44.7845C73.7833 44.7845 73.5443 44.7845 73.568 44.3507C73.5918 43.9168 73.8188 43.9304 74.1256 43.9134C74.4018 43.8982 74.8458 44.1083 74.8967 43.6626C74.9645 43.0881 75.0475 42.4763 74.817 41.9239C74.7069 41.6646 74.2984 41.834 74.0273 41.8188C73.7138 41.8018 73.5731 41.6866 73.585 41.3578C73.5968 41.029 73.7748 41.0002 74.0256 41.0002H74.1137C75.8864 40.8748 75.8864 40.8748 75.8881 42.6526C75.9016 42.8495 75.9016 43.0471 75.8881 43.244C75.8084 43.8067 76.0474 44.0032 76.5981 43.9389C76.9269 43.8999 77.276 43.8524 77.276 44.4015C77.276 44.9506 76.8947 44.7709 76.6303 44.7845C76.2016 44.8015 75.7796 44.7845 75.3559 44.7845Z" fill="#C12F09"/>
<path d="M75.3011 39.3751C75.796 39.3751 76.0688 39.5445 76.0739 39.9445C76.0739 40.3004 75.8146 40.4936 75.4723 40.5071C75.13 40.5207 74.7944 40.3953 74.7707 39.975C74.7602 39.8996 74.7661 39.8229 74.788 39.75C74.81 39.6772 74.8474 39.6099 74.8978 39.5529C74.9482 39.4959 75.0104 39.4505 75.08 39.4198C75.1496 39.3891 75.2251 39.3738 75.3011 39.3751Z" fill="#C12F09"/>
<path d="M3.8002 24.3672C14.3955 28.6666 24.9247 28.5616 35.5369 24.3875C35.5369 24.8959 35.6301 25.5738 35.5199 26.2076C35.103 28.648 34.9929 31.1223 34.6946 33.5694C34.5675 34.6083 34.6353 35.7624 33.349 36.2081C32.5559 36.4826 31.756 36.7402 30.9561 36.9927C25.8584 38.6078 20.6184 39.0162 15.3191 38.6569C13.8455 38.5358 12.3889 38.2586 10.9739 37.8299C9.72996 37.4706 8.46063 37.2029 7.24552 36.7216C6.08296 36.264 5.30848 35.5759 5.13901 34.2609C4.81532 31.7019 4.4069 29.1547 4.07304 26.5974C3.96628 25.8331 3.50532 25.1061 3.8002 24.3672Z" fill="#C12F09"/>
<path d="M5.76227 36.6825C10.299 38.7297 15.0645 39.3805 19.9978 39.2703C24.8954 39.1618 29.5779 38.0925 34.2638 36.4062C34.0807 38.0772 33.9079 39.6414 33.7401 41.204C33.5893 42.6038 33.33 44.0053 33.3215 45.4068C33.3215 47.2557 32.286 48.1573 30.7066 48.6267C23.8803 50.6756 17.0303 50.818 10.16 48.8454C9.9719 48.7911 9.78888 48.7132 9.60246 48.6488C7.9908 48.0929 7.00787 47.1879 6.87907 45.2746C6.7096 42.7546 6.17069 40.2583 5.80294 37.7501C5.75379 37.4383 5.63008 37.0994 5.76227 36.6825Z" fill="#FEFEFE"/>
<path d="M2.72177 15.1133C13.2374 20.0838 25.2003 20.2584 36.4243 15.6217C36.6565 15.8234 36.5345 16.086 36.5073 16.3097C36.2582 18.3519 35.9871 20.3906 35.7413 22.4327C35.7109 22.7669 35.5509 23.0759 35.2956 23.2936C34.089 24.3884 32.5994 24.9154 31.0741 25.3357C25.2833 26.9338 19.3942 27.1118 13.4628 26.4203C10.8597 26.117 8.27022 25.7424 5.89425 24.4985C5.25045 24.1586 4.63846 23.7616 4.06566 23.3122C3.98357 23.26 3.91318 23.1913 3.85893 23.1105C3.80468 23.0297 3.76774 22.9386 3.75045 22.8428C3.39343 20.3075 3.03133 17.7728 2.66414 15.2387C2.66245 15.215 2.68787 15.1862 2.72177 15.1133Z" fill="#FEFEFE"/>
<path d="M19.9875 60.5543C16.5117 60.5391 13.2087 59.89 10.2989 57.8597C9.35666 57.2039 8.74996 56.4565 8.65166 55.2075C8.49914 53.3044 8.11614 51.4199 7.83651 49.5269C7.71619 48.7202 7.83652 48.6287 8.66523 49.0015C10.4411 49.7979 12.3261 50.324 14.2577 50.5624C18.7606 51.1081 23.2549 51.1199 27.7137 50.1844C29.0662 49.9046 30.3788 49.4583 31.6217 48.8558C32.1894 48.5779 32.4961 48.6033 32.3843 49.3981C32.0809 51.5436 31.8267 53.6976 31.5725 55.8498C31.5447 56.0719 31.4732 56.2863 31.3621 56.4806C31.251 56.6749 31.1025 56.8453 30.9251 56.9819C28.6542 58.9613 25.9258 59.8544 23.0177 60.3188C22.0157 60.4793 21.0023 60.5581 19.9875 60.5543Z" fill="#FEFEFE"/>
<path d="M10.6502 3.09749C12.5839 2.61789 14.3464 2.40097 16.1105 2.19591C14.4599 1.83833 12.8042 2.10948 11.2942 2.58738C10.0316 2.98564 8.64537 3.03479 7.4845 3.80588C6.51513 4.44817 6.25584 4.7905 6.28635 5.93611C5.65253 5.64124 4.99837 5.16503 4.512 6.1327C4.42218 6.31064 4.26288 6.1327 4.1934 6.03271C3.94597 5.69377 3.46467 5.41076 3.73752 4.87184C4.0143 4.37331 4.42528 3.96233 4.92381 3.68555C6.4321 2.74669 8.10646 2.23827 9.8232 1.90272C16.8308 0.53171 23.8316 0.524933 30.8019 2.16202C32.2305 2.50096 33.6202 2.97886 34.8472 3.82621C36.1385 4.71932 36.2029 5.57006 35.0319 6.60891C33.6998 7.78165 32.0492 8.31378 30.3715 8.69848C24.9315 9.94578 19.4305 10.1102 13.8973 9.45771C11.7077 9.20011 9.55034 8.81202 7.44044 8.00196C7.72515 7.32408 8.06409 7.15461 8.84365 7.4139C12.4601 8.61713 16.2037 8.90354 20.0016 8.88829C21.6793 8.88829 23.352 8.84592 25.0196 8.71881C27.4972 8.53918 29.9342 8.10703 32.2543 7.16308C33.1016 6.82414 34.1049 6.453 34.1049 5.31755C34.1049 4.1821 33.0762 3.8313 32.2407 3.4788C30.0935 2.57044 27.804 2.17727 25.4992 2.00271C22.8419 1.79935 20.1761 1.56717 17.5036 1.79765C17.2663 1.81799 16.9952 1.73664 16.7427 1.96712C16.9935 2.27895 17.3121 2.13659 17.5765 2.13659C21.5895 2.0078 25.5856 2.10439 29.5224 2.98394C30.7341 3.25679 31.9407 3.57201 32.9999 4.24989C34.0591 4.92777 34.0659 5.70055 32.9779 6.38521C31.6713 7.21053 30.1969 7.63421 28.7005 7.8613C26.2194 8.23752 23.7401 8.67984 21.2048 8.5646C20.4456 8.52901 19.7931 8.45444 19.0983 8.02738C16.6291 6.50214 14.0921 5.09893 11.5806 3.64657C11.3179 3.51947 11.0705 3.35508 10.6502 3.09749Z" fill="#FEFEFE"/>
<path d="M36.2505 6.34531C36.3251 7.34349 36.825 7.9485 37.425 8.52978C38.2723 9.35849 38.1418 10.2618 37.103 10.9363C34.7609 12.4615 32.1307 13.2021 29.4158 13.6173C22.2029 14.7217 14.8429 14.3888 7.7592 12.6377C5.78826 12.1581 3.83766 11.5735 2.16669 10.3312C1.41424 9.772 1.34984 8.83822 2.11076 8.29761C2.81745 7.80106 3.35637 7.26214 3.34789 6.125C4.28588 7.10162 5.41872 7.87012 6.6729 8.38065C9.81826 9.6737 13.1331 10.1347 16.492 10.3414C21.4151 10.6465 26.3009 10.438 31.0969 9.16699C33.3882 8.56706 34.5253 7.93833 36.2505 6.34531Z" fill="#FEFEFE"/>
<path d="M1.61719 10.7695C3.27291 11.883 4.96931 12.5371 6.7318 13.0184C12.6344 14.6335 18.6506 15.1029 24.7414 14.769C27.758 14.5996 30.7423 14.1979 33.6301 13.2523C34.8934 12.8533 36.1024 12.2994 37.2296 11.6033C37.3669 11.5152 37.4872 11.3373 37.6652 11.4118C37.9143 11.5169 37.7601 11.7508 37.7787 11.9338C37.9329 13.4268 37.1466 14.3555 35.94 15.069C33.4894 16.5146 30.7762 17.1501 28.0223 17.6077C21.874 18.6092 15.7324 18.6075 9.63821 17.1755C7.30174 16.65 5.06842 15.7412 3.02887 14.486C2.12051 13.92 1.64091 13.2472 1.71209 12.1727C1.72904 11.7575 1.65617 11.3457 1.61719 10.7695Z" fill="#FEFEFE"/>
<path d="M18.9749 8.5723C15.5499 8.44689 12.1503 8.20455 8.86768 7.09283C8.48807 6.96403 8.46604 6.80642 8.65585 6.48443C9.1812 5.58793 9.67267 4.67618 10.1811 3.77291C10.2997 3.55768 10.4183 3.39838 10.7013 3.56615C13.4518 5.19137 16.2769 6.69457 18.9715 8.41639C18.9918 8.41978 18.98 8.46214 18.9749 8.5723Z" fill="#FEFEFE"/>
<path d="M10.0544 3.29688C9.4223 4.41707 8.86813 5.38644 8.33261 6.36428C8.16314 6.67272 7.96147 6.76254 7.65473 6.56426C7.20902 6.27447 6.69214 6.01009 6.63791 5.41695C6.5769 4.7916 7.07514 4.47639 7.53271 4.20693C8.3041 3.73827 9.16153 3.42884 10.0544 3.29688Z" fill="#FEFEFE"/>
<path d="M7.48521 7.27624C7.19372 7.66941 6.93274 7.54569 6.69209 7.39317C6.22097 7.09377 5.75774 6.78251 5.30244 6.45939C5.16516 6.3611 4.89062 6.27975 5.04653 6.03063C5.17025 5.83574 5.40751 5.86116 5.57359 5.97471C6.21757 6.38652 6.84631 6.82883 7.48521 7.27624Z" fill="#FEFEFE"/>
</g>
<defs>
<clipPath id="clip0_3360_4096">
<rect width="81.1762" height="60.3314" fill="white" transform="translate(0.910156 0.835938)"/>
</clipPath>
</defs>
</svg>
