<svg width="149" height="36" viewBox="0 0 149 36" fill="none" xmlns="http://www.w3.org/2000/svg">
<g clip-path="url(#clip0_3357_5060)">
<path d="M0.875 2.94172C0.921789 2.84393 0.963511 2.7438 1 2.64172C1.18744 1.97501 1.58758 1.38779 2.13951 0.969441C2.69144 0.551094 3.36494 0.324525 4.0575 0.324219C14.5292 0.324219 25.0017 0.324219 35.475 0.324219C35.898 0.326142 36.3164 0.412034 36.7059 0.576913C37.0954 0.741792 37.4483 0.982375 37.7441 1.28471C38.04 1.58704 38.2728 1.9451 38.4292 2.33812C38.5855 2.73114 38.6623 3.1513 38.655 3.57422C38.655 4.52922 38.655 5.48672 38.655 6.44172C38.655 15.0467 38.655 23.6517 38.655 32.2567C38.6827 33.039 38.4227 33.8042 37.9242 34.4077C37.4258 35.0113 36.7234 35.4111 35.95 35.5317C35.7439 35.5618 35.5357 35.5743 35.3275 35.5692H4.2225C2.495 35.5692 1.285 34.5842 0.93 32.8942C0.93 32.8692 0.8975 32.8467 0.8825 32.8217L0.875 2.94172Z" fill="#E51006"/>
<path d="M82.6844 18.0925C82.2194 19.505 81.7744 20.8425 81.3319 22.1975C80.9019 23.495 80.4694 24.7925 80.0519 26.0925C80.0452 26.14 80.029 26.1857 80.0044 26.2269C79.9798 26.2681 79.9472 26.3039 79.9086 26.3323C79.8699 26.3608 79.826 26.3812 79.7793 26.3924C79.7326 26.4035 79.6842 26.4053 79.6369 26.3975C78.8669 26.3975 78.0944 26.3975 77.3244 26.3975C77.2384 26.4106 77.1506 26.3898 77.0797 26.3394C77.0088 26.289 76.9602 26.213 76.9444 26.1275C75.5444 22.0525 74.1394 17.98 72.7294 13.91C72.5894 13.505 72.6419 13.435 73.0719 13.435C73.9144 13.435 74.7594 13.435 75.6019 13.435C75.6512 13.4264 75.7017 13.4279 75.7505 13.4392C75.7992 13.4505 75.8452 13.4714 75.8858 13.5008C75.9263 13.5301 75.9606 13.5673 75.9865 13.6101C76.0125 13.6529 76.0296 13.7005 76.0369 13.75C76.8669 16.4525 77.7119 19.15 78.5744 21.9225C78.6519 21.7075 78.7144 21.55 78.7669 21.39C79.5819 18.825 80.396 16.2591 81.2094 13.6925C81.2246 13.6129 81.2701 13.5424 81.3364 13.4958C81.4026 13.4491 81.4843 13.43 81.5644 13.4425C82.3769 13.4425 83.1894 13.4425 84.0019 13.4425C84.0973 13.4289 84.1942 13.4536 84.2715 13.5112C84.3488 13.5688 84.4001 13.6546 84.4144 13.75C85.2094 16.3225 86.0194 18.89 86.8244 21.46C86.8544 21.56 86.8869 21.6575 86.9319 21.8075C86.9894 21.6725 87.0344 21.5775 87.0669 21.48C87.8744 18.9 88.6619 16.3275 89.4469 13.75C89.4536 13.7008 89.47 13.6534 89.4952 13.6105C89.5205 13.5677 89.5539 13.5303 89.5937 13.5006C89.6335 13.4708 89.6788 13.4492 89.7269 13.4371C89.7751 13.425 89.8252 13.4226 89.8744 13.43C90.7169 13.445 91.5619 13.43 92.4044 13.43C92.7669 13.43 92.8394 13.5275 92.7219 13.8625C91.3069 17.9408 89.8902 22.0191 88.4719 26.0975C88.4508 26.1929 88.394 26.2767 88.3131 26.3315C88.2322 26.3864 88.1333 26.4082 88.0369 26.3925C87.2869 26.3925 86.5369 26.3725 85.7869 26.3925C85.7272 26.4028 85.6661 26.4011 85.6071 26.3875C85.5481 26.374 85.4924 26.3487 85.4433 26.3133C85.3941 26.2779 85.3526 26.2331 85.321 26.1814C85.2894 26.1298 85.2685 26.0723 85.2594 26.0125C84.4369 23.45 83.5969 20.8925 82.7594 18.3325C82.7594 18.2825 82.7369 18.225 82.6844 18.0925Z" fill="#0B0B0B"/>
<path d="M139.434 14.6429L139.857 14.2504C140.524 13.6461 141.372 13.2781 142.269 13.2029C143.404 13.0779 144.519 13.1379 145.544 13.7029C146.907 14.4529 147.577 15.7029 147.794 17.2029C147.849 17.6038 147.874 18.0083 147.869 18.4129C147.869 20.9279 147.869 23.4429 147.869 25.9579C147.869 26.3729 147.869 26.3804 147.449 26.3804C146.637 26.3804 145.827 26.3804 145.014 26.3804C144.747 26.3804 144.654 26.3079 144.654 26.0279C144.667 23.5846 144.667 21.1421 144.654 18.7004C144.653 18.3644 144.617 18.0294 144.549 17.7004C144.317 16.5804 143.592 15.9879 142.447 15.9504C140.737 15.9004 139.634 17.0054 139.629 18.7979C139.629 21.1679 139.629 23.5479 139.629 25.9079C139.629 26.3579 139.629 26.3579 139.179 26.3579C138.377 26.3579 137.577 26.3579 136.774 26.3579C136.502 26.3579 136.414 26.2679 136.414 25.9954C136.414 21.9104 136.414 17.8271 136.414 13.7454C136.414 13.4954 136.492 13.3904 136.752 13.3954C137.532 13.3954 138.312 13.3954 139.094 13.3954C139.327 13.3954 139.442 13.4679 139.427 13.7204C139.412 13.9729 139.434 14.3104 139.434 14.6429Z" fill="#0B0B0B"/>
<path d="M48.4877 16.2952C48.4877 14.1285 48.4877 11.9577 48.4877 9.78266C48.4877 9.36516 48.5052 9.34766 48.9302 9.34766C49.7302 9.34766 50.5327 9.34766 51.3327 9.34766C51.7377 9.34766 51.7502 9.34766 51.7502 9.77266C51.7502 13.7827 51.7502 17.7918 51.7502 21.8002C51.749 22.1631 51.7961 22.5246 51.8902 22.8752C52.0777 23.5702 52.5452 23.8977 53.2627 23.9052C53.3677 23.9052 53.4702 23.9052 53.5752 23.9052C54.1552 23.8677 54.1552 23.8652 54.1677 24.4702C54.1802 25.0752 54.1952 25.6127 54.1827 26.1827C54.1764 26.249 54.1536 26.3128 54.1165 26.3682C54.0794 26.4236 54.0292 26.469 53.9702 26.5002C52.8727 26.7502 51.7702 26.8377 50.6852 26.4327C49.4677 25.9777 48.8402 25.0352 48.6102 23.8052C48.5283 23.3455 48.4873 22.8795 48.4877 22.4127C48.4802 20.3677 48.4877 18.3327 48.4877 16.2952Z" fill="#0B0B0B"/>
<path d="M7.94531 14.5701C7.94531 13.5701 7.94531 12.5701 7.94531 11.5701C7.94531 10.7451 8.28281 10.2201 9.09031 10.0476C10.4659 9.73221 11.8569 9.48855 13.2578 9.31763C14.9203 9.13763 16.5978 9.04263 18.2578 9.01763C20.5678 9.00263 22.8753 9.05513 25.0928 9.75263C27.3428 10.4626 29.2253 11.7276 30.4353 13.8276C31.1139 15.0265 31.4592 16.3852 31.4353 17.7626C31.4353 18.5126 31.4353 19.2626 31.4353 20.0126C31.4353 20.1851 31.3778 20.4951 31.3153 20.5126C31.0634 20.5306 30.8103 20.5087 30.5653 20.4476C30.4878 20.4326 30.4203 20.3376 30.3553 20.2676C29.796 19.6558 29.1121 19.1708 28.3497 18.8452C27.5873 18.5196 26.7641 18.3611 25.9353 18.3801C20.1803 18.3801 14.4253 18.3801 8.67031 18.3801C8.07531 18.3801 7.97281 18.3001 7.96531 17.7026C7.95281 16.6626 7.96531 15.6251 7.96531 14.5851L7.94531 14.5701Z" fill="#FEFEFE"/>
<path d="M17.4729 19.8975C20.3654 19.8975 23.2579 19.8975 26.1529 19.8975C26.7852 19.8968 27.4104 20.0302 27.9874 20.2887C28.5644 20.5473 29.0801 20.9251 29.5004 21.3975C29.6897 21.6321 29.9336 21.8167 30.2108 21.9353C30.488 22.0538 30.79 22.1027 31.0904 22.0775C31.1945 22.0712 31.2988 22.0712 31.4029 22.0775C31.4712 22.0699 31.5403 22.0775 31.6053 22.0997C31.6704 22.1219 31.7297 22.1582 31.7791 22.2059C31.8285 22.2537 31.8668 22.3117 31.8912 22.3759C31.9156 22.4401 31.9256 22.509 31.9204 22.5775C31.9204 23.15 31.9354 23.7225 31.9204 24.2925C31.919 24.3682 31.902 24.4429 31.8706 24.5119C31.8392 24.5808 31.794 24.6427 31.7377 24.6935C31.6815 24.7443 31.6155 24.7831 31.5437 24.8074C31.4719 24.8318 31.3959 24.8411 31.3204 24.835C30.7604 24.835 30.1979 24.835 29.6354 24.835C29.3504 24.835 29.2329 24.75 29.2154 24.4475C29.1279 22.965 28.2154 21.7925 26.9054 21.405C24.8729 20.8075 22.8854 22.25 22.7604 24.425C22.7429 24.74 22.6304 24.835 22.3279 24.8325C20.1962 24.8325 18.0629 24.8325 15.9279 24.8325C15.6429 24.8325 15.5154 24.7525 15.5029 24.4475C15.4204 22.6825 14.0429 21.295 12.3729 21.275C10.6229 21.2525 9.22041 22.5725 9.08291 24.3925C9.05291 24.8125 9.03541 24.8275 8.62291 24.83H8.56041C8.28791 24.815 7.95541 24.915 7.81041 24.595C7.72524 24.4279 7.68614 24.2412 7.69712 24.054C7.70811 23.8668 7.76879 23.6859 7.87291 23.53C7.94024 23.4032 7.97301 23.2609 7.96791 23.1175C7.96791 22.245 7.96791 21.3675 7.96791 20.5C7.96791 20 8.13791 19.86 8.63291 19.8675C9.44291 19.8675 10.2554 19.8675 11.0679 19.8675H17.4729V19.8975Z" fill="#FEFEFE"/>
<path d="M12.2976 22.7071C12.7321 22.7027 13.158 22.8273 13.5216 23.0651C13.8852 23.3029 14.17 23.6432 14.34 24.043C14.51 24.4428 14.5576 24.8841 14.4767 25.3109C14.3957 25.7378 14.19 26.131 13.8854 26.4408C13.5809 26.7506 13.1912 26.9631 12.7658 27.0513C12.3404 27.1395 11.8984 27.0995 11.4958 26.9364C11.0931 26.7732 10.748 26.4943 10.504 26.1348C10.26 25.7754 10.1281 25.3516 10.1251 24.9171C10.1218 24.6292 10.1755 24.3434 10.2831 24.0762C10.3906 23.809 10.5499 23.5657 10.7518 23.3604C10.9537 23.155 11.1942 22.9915 11.4595 22.8794C11.7248 22.7673 12.0096 22.7088 12.2976 22.7071Z" fill="#FEFEFE"/>
<path d="M23.8556 24.9074C23.8586 24.4793 23.9879 24.0617 24.2275 23.7069C24.467 23.3521 24.806 23.076 25.2019 22.9132C25.5978 22.7504 26.033 22.7082 26.4528 22.7919C26.8727 22.8756 27.2584 23.0815 27.5616 23.3837C27.8648 23.6859 28.072 24.0709 28.1571 24.4904C28.2423 24.9099 28.2016 25.3453 28.0402 25.7417C27.8787 26.1382 27.6038 26.4782 27.2498 26.7189C26.8958 26.9596 26.4786 27.0904 26.0506 27.0949C25.7619 27.0989 25.4752 27.0451 25.2076 26.9367C24.94 26.8283 24.6967 26.6674 24.4922 26.4636C24.2877 26.2598 24.126 26.0171 24.0167 25.7498C23.9073 25.4826 23.8526 25.1961 23.8556 24.9074Z" fill="#FEFEFE"/>
<path fill-rule="evenodd" clip-rule="evenodd" d="M116.999 13.7733V14.7033C116.614 14.3817 116.21 14.0829 115.789 13.8083C114.789 13.2108 113.674 13.1033 112.539 13.1908C111.825 13.2327 111.126 13.4155 110.482 13.7288C109.838 14.042 109.263 14.4794 108.789 15.0158C106.807 17.2133 106.677 21.0708 108.142 23.5008C109.949 26.4808 113.337 26.6508 115.352 25.7508C115.855 25.4767 116.336 25.1649 116.792 24.8183C116.792 24.9539 116.793 25.0937 116.794 25.2364C116.797 25.5303 116.8 25.8361 116.792 26.1408C116.782 26.8812 116.499 27.5918 115.997 28.1359C115.495 28.6801 114.809 29.0193 114.072 29.0883C112.754 29.2083 111.754 28.6608 111.099 27.5083C111.002 27.3408 110.937 27.2483 110.722 27.3658C109.955 27.7792 109.184 28.1833 108.409 28.5783C108.224 28.6733 108.209 28.7708 108.294 28.9458C108.617 29.6233 109.079 30.2254 109.649 30.7133C111.602 32.3533 114.792 32.6258 117.024 31.3133C119.029 30.1333 119.972 28.2858 120.007 26.0358C120.051 23.0055 120.045 19.9766 120.039 16.9471C120.036 15.8826 120.034 14.818 120.034 13.7533C120.034 13.5308 119.959 13.4333 119.727 13.4333H117.322C117.074 13.4308 116.999 13.5383 116.999 13.7733ZM115.346 22.825C116.491 22.095 116.886 20.97 116.924 19.575C116.902 19.3009 116.867 19.0281 116.819 18.7575C116.544 17.4975 115.846 16.5575 114.569 16.2325C113.291 15.9075 112.074 16.1525 111.216 17.1575C110.359 18.1625 110.216 19.37 110.466 20.62C111.036 23.37 113.769 23.825 115.346 22.825Z" fill="#0B0B0B"/>
<path fill-rule="evenodd" clip-rule="evenodd" d="M100.144 26.5013C101.107 26.2986 101.971 25.7686 102.589 25.0013C102.589 25.1542 102.59 25.2946 102.592 25.4271C102.595 25.6453 102.597 25.8418 102.591 26.0363C102.576 26.3138 102.696 26.3938 102.961 26.3938H105.146C105.604 26.3938 105.604 26.3938 105.604 25.9513V15.2763V13.7488C105.609 13.5363 105.531 13.4463 105.316 13.4463H102.879C102.669 13.4463 102.591 13.5363 102.591 13.7513V14.8463C102.173 14.3443 101.653 13.9365 101.065 13.6495C100.478 13.3626 99.8369 13.203 99.1837 13.1813C96.8312 13.0163 94.9212 13.8088 93.7012 15.8938C92.5612 17.8213 92.4337 19.9313 92.9512 22.0713C93.7887 25.5013 96.6862 27.2788 100.144 26.5013ZM101.857 22.344C102.292 21.6195 102.512 20.7863 102.492 19.9415L102.584 19.924C102.476 19.2846 102.323 18.6538 102.124 18.0365C101.928 17.4934 101.574 17.0213 101.108 16.681C100.641 16.3406 100.084 16.1475 99.5066 16.1265C98.9567 16.0554 98.3978 16.137 97.8912 16.3624C97.3846 16.5877 96.9497 16.948 96.6341 17.404C95.6191 18.804 95.6541 21.184 96.7066 22.554C97.0199 22.946 97.421 23.2588 97.8776 23.467C98.3342 23.6753 98.8334 23.7731 99.3348 23.7527C99.8362 23.7322 100.326 23.5941 100.764 23.3493C101.202 23.1046 101.576 22.7602 101.857 22.344Z" fill="#0B0B0B"/>
<path fill-rule="evenodd" clip-rule="evenodd" d="M58.2569 20.9082H62.5969C62.7952 20.9082 62.9936 20.9081 63.192 20.908C64.481 20.9074 65.7692 20.9068 67.0519 20.9307C67.3119 20.9307 67.4244 20.8632 67.4244 20.5807C67.4144 20.3507 67.4162 20.1202 67.4181 19.8896C67.4204 19.6014 67.4227 19.3132 67.4019 19.0257C67.1994 16.0957 65.1294 13.4182 61.9019 13.0957C59.2169 12.8282 56.9144 13.8682 55.5444 16.2907C54.6969 17.7857 54.5219 19.4107 54.7444 21.0832C54.9247 22.7133 55.7195 24.2134 56.9669 25.2782C58.4044 26.5182 60.1119 26.8657 61.9669 26.6682C63.1509 26.541 64.2721 26.0712 65.1931 25.3163C66.1141 24.5614 66.7948 23.5542 67.1519 22.4182C67.2594 22.1082 67.2144 22.0332 66.9019 22.0332H64.2469C64.1718 22.0316 64.0978 22.0514 64.0336 22.0904C63.9694 22.1294 63.9176 22.1858 63.8844 22.2532C63.6543 22.6276 63.3686 22.9648 63.0369 23.2532C61.5819 24.3232 58.6169 24.1132 57.9594 21.2532C57.8869 20.9307 57.9819 20.9082 58.2569 20.9082ZM58.1948 18.3658H61.0373C61.3245 18.3658 61.6117 18.3651 61.8989 18.3645C62.5694 18.3629 63.2403 18.3613 63.9123 18.3683C64.1523 18.3708 64.1798 18.3108 64.1198 18.0858C63.7423 16.6558 62.6098 15.7983 61.0923 15.7983C60.3898 15.7768 59.7013 15.9977 59.1423 16.4237C58.5833 16.8498 58.1878 17.4552 58.0223 18.1383C57.9773 18.3258 58.0073 18.3658 58.1948 18.3658Z" fill="#0B0B0B"/>
<path fill-rule="evenodd" clip-rule="evenodd" d="M132.936 15.188C131.695 13.9223 130.006 13.1942 128.234 13.1602C126.461 13.1942 124.772 13.9223 123.531 15.188C122.289 16.4537 121.594 18.1559 121.594 19.9289C121.594 21.7019 122.289 23.4041 123.531 24.6698C124.772 25.9355 126.461 26.6636 128.234 26.6977C130.006 26.6636 131.695 25.9355 132.936 24.6698C134.178 23.4041 134.874 21.7019 134.874 19.9289C134.874 18.1559 134.178 16.4537 132.936 15.188ZM125.311 17.9341C124.91 18.5127 124.689 19.197 124.676 19.9008C124.665 20.8515 125.032 21.7676 125.695 22.4485C126.359 23.1294 127.265 23.5195 128.216 23.5333C128.92 23.5386 129.61 23.3356 130.198 22.9497C130.787 22.5638 131.249 22.0124 131.525 21.3648C131.801 20.7172 131.879 20.0024 131.75 19.3104C131.62 18.6185 131.289 17.9802 130.798 17.4761C130.307 16.9719 129.677 16.6244 128.989 16.4772C128.3 16.3301 127.584 16.3899 126.929 16.6491C126.275 16.9084 125.712 17.3554 125.311 17.9341Z" fill="#0B0B0B"/>
<path d="M26.185 16.8328H23.125C22.77 16.8328 22.6875 16.7503 22.6875 16.3928C22.6875 15.0103 22.6875 13.6278 22.6875 12.2478C22.6875 11.9503 22.79 11.8278 23.0875 11.8503C23.8725 11.9128 24.68 11.8703 25.44 12.0378C26.9575 12.3778 28.0075 13.3953 28.785 14.6928C29.0865 15.2237 29.3562 15.7722 29.5925 16.3353C29.755 16.6903 29.645 16.8353 29.2475 16.8353L26.185 16.8328Z" fill="#E51006"/>
<path d="M12.1561 16.7974C11.4061 16.7974 10.6361 16.7974 9.87609 16.7974C9.58609 16.7974 9.49609 16.6874 9.49609 16.4099C9.50609 15.0166 9.50609 13.6241 9.49609 12.2324C9.49609 11.9274 9.61359 11.8374 9.90359 11.8399C11.4336 11.8499 12.9636 11.8499 14.4936 11.8399C14.7686 11.8399 14.8886 11.9224 14.8886 12.2149C14.8786 13.6166 14.8786 15.0191 14.8886 16.4224C14.8886 16.7149 14.7711 16.7999 14.4961 16.7974C13.7161 16.7899 12.9361 16.7974 12.1561 16.7974Z" fill="#E51006"/>
<path d="M18.7811 16.8316H16.5636C16.1786 16.8316 16.1211 16.7791 16.1211 16.4091C16.1211 15.0291 16.1211 13.6482 16.1211 12.2666C16.1211 11.9041 16.1736 11.8516 16.5386 11.8516H21.0011C21.3811 11.8516 21.4386 11.9091 21.4386 12.2816C21.4386 13.6541 21.4386 15.0316 21.4386 16.3941C21.4386 16.7491 21.3561 16.8316 20.9961 16.8316H18.7811Z" fill="#E51006"/>
<path d="M13.3749 24.8859C13.3732 25.168 13.2624 25.4384 13.0657 25.6407C12.8691 25.8429 12.6018 25.9612 12.3199 25.9709C12.043 25.9672 11.7782 25.8565 11.581 25.662C11.3838 25.4675 11.2695 25.2042 11.2621 24.9273C11.2547 24.6504 11.3547 24.3814 11.5411 24.1765C11.7276 23.9717 11.9861 23.847 12.2624 23.8284C12.55 23.8217 12.8286 23.9292 13.0371 24.1274C13.2456 24.3256 13.3671 24.5984 13.3749 24.8859Z" fill="#E51006"/>
<path d="M26.0285 25.9719C25.7534 25.9586 25.4939 25.8399 25.3039 25.6405C25.1138 25.441 25.0078 25.1761 25.0078 24.9006C25.0078 24.6251 25.1138 24.3602 25.3039 24.1608C25.4939 23.9613 25.7534 23.8427 26.0285 23.8294C26.1736 23.8224 26.3185 23.8449 26.4546 23.8956C26.5907 23.9462 26.715 24.024 26.8202 24.1242C26.9253 24.2243 27.009 24.3448 27.0661 24.4783C27.1233 24.6117 27.1528 24.7554 27.1528 24.9006C27.1528 25.0458 27.1233 25.1895 27.0661 25.323C27.009 25.4565 26.9253 25.5769 26.8202 25.6771C26.715 25.7772 26.5907 25.855 26.4546 25.9057C26.3185 25.9564 26.1736 25.9789 26.0285 25.9719Z" fill="#E51006"/>
</g>
<defs>
<clipPath id="clip0_3357_5060">
<rect width="147.25" height="35.5" fill="white" transform="translate(0.875 0.25)"/>
</clipPath>
</defs>
</svg>
