<svg width="53" height="69" viewBox="0 0 53 69" fill="none" xmlns="http://www.w3.org/2000/svg">
<g clip-path="url(#clip0_3360_4004)">
<path d="M19.4682 0.1744C22.4665 0.12515 25.4327 0.796933 28.1172 2.1332C30.8017 3.46946 33.1259 5.4311 34.8941 7.85298C36.2355 9.57271 37.5855 11.2924 38.8667 13.1067C39.5805 14.0463 39.8918 15.231 39.7322 16.4001C39.5725 17.5692 38.955 18.627 38.0154 19.3408C37.0759 20.0546 35.8912 20.3659 34.7221 20.2062C33.553 20.0466 32.4952 19.4291 31.7814 18.4895C30.3627 16.6838 29.0471 14.7921 27.6025 13.0036C26.5266 11.5416 25.0607 10.4121 23.3727 9.74449C21.6847 9.0769 19.8429 8.89817 18.058 9.22876C16.3114 9.46099 14.6634 10.173 13.2973 11.2857C11.9311 12.3984 10.9002 13.8681 10.3192 15.5316C9.66619 17.0958 9.43602 18.8043 9.65185 20.4856C9.86767 22.1669 10.5219 23.7619 11.5488 25.1104C12.9848 27.1225 14.5412 29.0486 15.9943 31.0349C16.7423 31.9471 17.0973 33.1191 16.9812 34.293C16.8651 35.467 16.2874 36.5467 15.3752 37.2947C14.463 38.0427 13.2911 38.3977 12.1171 38.2816C10.9432 38.1655 9.86343 37.5878 9.11543 36.6756C7.15539 34.3339 5.3268 31.8853 3.6381 29.341C1.94629 26.6789 0.943374 23.6378 0.71973 20.4916C0.496086 17.3454 1.05874 14.193 2.35699 11.3184C3.65524 8.44382 5.64829 5.93742 8.15656 4.02503C10.6648 2.11264 13.6095 0.854362 16.7252 0.36357C17.6711 0.217393 18.6341 0.225992 19.4682 0.1744Z" fill="#FE2B02"/>
<path d="M33.4295 37.2627C29.7235 37.1596 26.1895 35.1905 23.4637 31.7854C20.8841 28.6039 18.4851 25.302 16.0431 22.026C15.6632 21.562 15.3809 21.0262 15.2131 20.4506C15.0453 19.8749 14.9955 19.2714 15.0666 18.676C15.1377 18.0806 15.3282 17.5057 15.6269 16.9858C15.9255 16.4659 16.326 16.0116 16.8044 15.6501C17.2828 15.2887 17.8293 15.0276 18.4111 14.8825C18.9928 14.7373 19.5979 14.7111 20.19 14.8055C20.7822 14.8998 21.3492 15.1127 21.857 15.4315C22.3649 15.7502 22.8031 16.1682 23.1456 16.6604C25.4844 19.7043 27.7802 22.7912 30.1277 25.8352C30.5899 26.4322 31.1275 26.9669 31.727 27.4259C32.3341 27.9412 33.0835 28.2599 33.8759 28.3398C34.6682 28.4196 35.4661 28.2569 36.1639 27.873C37.0109 27.4264 37.8165 26.9056 38.5715 26.3167C39.9731 25.2676 41.3145 24.1412 42.7075 23.0836C43.3312 22.564 44.0858 22.2259 44.8888 22.1062C45.6917 21.9865 46.5121 22.0898 47.2603 22.4049C48.0085 22.72 48.6557 23.2347 49.1311 23.8927C49.6065 24.5508 49.8919 25.3268 49.9561 26.1361C50.0576 26.8223 49.9776 27.523 49.7242 28.1687C49.4707 28.8143 49.0527 29.3824 48.5115 29.8163C46.4135 31.5361 44.2982 33.2558 42.0798 34.7863C39.5428 36.5313 36.5056 37.4008 33.4295 37.2627Z" fill="#FE2B02"/>
<path d="M8.02423 49.7616L11.6528 43.6824H14.8343V55.153H11.3949V50.2432L11.2057 50.183L8.8239 54.1297H7.10417L4.62776 50.1916V55.1358H1.13672V43.648C2.06537 43.648 3.01122 43.605 3.95707 43.648C4.18064 43.648 4.44719 43.9662 4.59337 44.2069C5.57361 45.7719 6.52806 47.3626 7.49971 48.9448C7.63729 49.1855 7.80066 49.4177 8.02423 49.7616Z" fill="#FE2B02"/>
<path d="M24.6992 68.5424V57.2266C24.768 57.175 24.8196 57.0977 24.8626 57.0977C27.3992 57.0977 29.9272 57.0977 32.4552 57.218C32.9332 57.2748 33.3982 57.4114 33.831 57.6222C34.271 57.7961 34.6571 58.0836 34.9497 58.4554C35.2423 58.8272 35.4311 59.2701 35.4966 59.7387C35.5622 60.2073 35.5023 60.6849 35.3229 61.1227C35.1436 61.5606 34.8513 61.9431 34.4759 62.231C34.3383 62.3256 34.2179 62.4288 34.0545 62.5492C34.3555 62.7384 34.622 62.8931 34.9144 63.0737C35.3048 63.3414 35.6211 63.7036 35.8337 64.1265C36.0464 64.5495 36.1484 65.0194 36.1304 65.4924C36.1124 65.9655 35.9749 66.4262 35.7306 66.8318C35.4864 67.2373 35.1435 67.5744 34.7338 67.8116C34.0586 68.2132 33.299 68.4517 32.5154 68.508C29.91 68.594 27.3304 68.5424 24.6992 68.5424ZM28.5084 65.8683C29.5145 65.8683 30.4001 65.8683 31.2858 65.8683C31.5138 65.8683 31.7325 65.7777 31.8938 65.6164C32.055 65.4552 32.1456 65.2365 32.1456 65.0084C32.1527 64.8912 32.1357 64.7738 32.0956 64.6635C32.0556 64.5531 31.9933 64.4521 31.9128 64.3668C31.8322 64.2814 31.735 64.2134 31.6272 64.167C31.5194 64.1206 31.4032 64.0967 31.2858 64.0969C30.3743 64.0969 29.4629 64.0969 28.5342 64.0969L28.5084 65.8683ZM28.5084 61.4658C29.2823 61.4658 30.0218 61.4658 30.7527 61.4658C31.2256 61.4658 31.6125 61.2164 31.6125 60.6059C31.6125 59.9954 31.1912 59.832 30.7527 59.7976C30.0218 59.746 29.2823 59.7976 28.5342 59.7976L28.5084 61.4658Z" fill="#FE2B02"/>
<path d="M43.2622 43.6758H47.1058L52.093 55.1378H48.1032L47.3208 53.1773H42.9613L42.1788 55.2066H38.2578C39.9431 51.3028 41.5855 47.5108 43.2622 43.6758ZM46.2459 50.3139L45.1453 47.4678L44.0533 50.3053L46.2459 50.3139Z" fill="#FE2B02"/>
<path d="M14.7652 66.5999L13.9913 68.5776H10.0703L15.0833 57.0898H18.9097L23.8883 68.5432H19.9157L19.1419 66.5999H14.7652ZM15.8744 63.7022H18.0584L16.9578 60.8904L15.8744 63.7022Z" fill="#FE2B02"/>
<path d="M29.271 54.3474L29.3742 55.1471H25.4876L24.6966 53.1522H20.3371L19.589 55.2073H15.625C17.3447 51.3293 18.9785 47.5201 20.6294 43.7109H24.4644C25.393 45.8606 26.3217 48.0103 27.2762 50.1685C27.8523 51.4669 28.4886 52.7481 29.0991 54.0121L29.314 54.4506L29.271 54.3474ZM22.6071 47.6749H22.4179L21.4377 50.2545H23.6045L22.6071 47.6749Z" fill="#FE2B02"/>
<path d="M36.5781 67.5079L37.7647 64.8337C38.995 65.5048 40.3792 65.8428 41.7803 65.814C42.2532 65.814 42.9669 65.9429 43.0185 65.2464C43.0701 64.55 42.3994 64.6617 41.9437 64.4984C40.8105 64.2481 39.6935 63.9294 38.5988 63.5439C38.0817 63.3274 37.6311 62.9778 37.293 62.5305C36.9549 62.0833 36.7413 61.5545 36.6741 60.9979C36.6068 60.4413 36.6882 59.8768 36.91 59.3619C37.1318 58.847 37.486 58.4001 37.9367 58.0666C38.7222 57.4354 39.6701 57.039 40.6711 56.923C42.6285 56.6001 44.6379 56.9009 46.415 57.7828C46.028 58.7201 45.6583 59.5885 45.2885 60.4656C44.4287 60.2506 43.6892 60.0013 42.9067 59.8465C42.4348 59.7607 41.9513 59.7607 41.4793 59.8465C41.1612 59.9067 40.7055 60.1389 40.6195 60.3968C40.4733 60.8783 40.9978 60.9643 41.3418 61.0761C41.6857 61.1879 42.1414 61.2395 42.537 61.3513C43.3402 61.5143 44.1305 61.7355 44.9016 62.0134C45.4194 62.2084 45.877 62.5357 46.2287 62.9627C46.5805 63.3898 46.8142 63.9016 46.9064 64.4471C46.9986 64.9927 46.9462 65.5529 46.7544 66.0718C46.5625 66.5908 46.238 67.0503 45.8131 67.4047C44.9869 68.1384 43.9471 68.5875 42.8465 68.6859C40.9028 68.9435 38.9255 68.6763 37.1198 67.912C37.0056 67.866 36.8937 67.8143 36.7845 67.7572C36.7071 67.7229 36.6813 67.6541 36.5781 67.5079Z" fill="#FE2B02"/>
<path d="M29.0985 53.9691C29.0985 53.7541 29.0985 53.4876 29.2274 53.3414C29.7778 52.6449 30.3711 51.9828 30.9472 51.3121C31.3145 51.6281 31.7054 51.9156 32.1166 52.172C32.3069 52.3131 32.5343 52.3954 32.7708 52.4087C33.0073 52.422 33.2425 52.3657 33.4474 52.2468C33.6523 52.1279 33.8179 51.9516 33.9237 51.7396C34.0294 51.5277 34.0708 51.2894 34.0427 51.0542C34.0427 49.6096 34.0427 48.1736 34.0427 46.6173H30.2077V43.7109H37.8863C37.8863 46.3421 37.9809 48.9475 37.8863 51.5357C37.7745 53.7025 36.5793 54.8806 34.4468 55.2847C32.8921 55.6104 31.2718 55.3403 29.9067 54.528C29.7131 54.4524 29.511 54.4004 29.3048 54.3732L29.0469 53.9519L29.0985 53.9691Z" fill="#FE2B02"/>
<path d="M4.79124 65.5728H9.95042V68.5651H0.964844V57.1289H4.79124V65.5728Z" fill="#FE2B02"/>
<path d="M52.3237 66.6508C52.3339 67.0786 52.2167 67.4997 51.987 67.8608C51.7573 68.2218 51.4254 68.5064 51.0336 68.6784C50.6417 68.8504 50.2076 68.9021 49.7863 68.8268C49.3651 68.7515 48.9757 68.5527 48.6677 68.2556C48.3597 67.9585 48.147 67.5765 48.0566 67.1583C47.9661 66.74 48.0021 66.3043 48.1598 65.9065C48.3176 65.5087 48.59 65.1668 48.9426 64.9242C49.2951 64.6816 49.7118 64.5493 50.1397 64.5441C50.4225 64.5349 50.7042 64.5825 50.9683 64.6841C51.2323 64.7858 51.4733 64.9394 51.677 65.1358C51.8806 65.3322 52.0428 65.5675 52.1539 65.8277C52.265 66.088 52.3227 66.3678 52.3237 66.6508Z" fill="#FE2B02"/>
</g>
<defs>
<clipPath id="clip0_3360_4004">
<rect width="51.652" height="68.6515" fill="white" transform="translate(0.675781 0.175781)"/>
</clipPath>
</defs>
</svg>
