<svg width="167" height="31" viewBox="0 0 167 31" fill="none" xmlns="http://www.w3.org/2000/svg">
<g clip-path="url(#clip0_3358_5598)">
<path d="M45.6445 10.875H48.7637L52.3733 18.4978L55.9515 10.875H59.0393V20.7009H57.003L57.0893 12.5806H57.0619L53.2522 20.7009H51.4042L47.622 12.5806H47.5945L47.6808 20.7009H45.6445V10.875Z" fill="#0B0B0B"/>
<path d="M65.4805 10.8748H74.4299V12.4159H67.6462V14.892H74.1553V16.433H67.6462V19.156H74.5476V20.697H65.4805V10.8711V10.8748Z" fill="#0B0B0B"/>
<path d="M83.3256 12.416H79.457V10.875H89.3599V12.416H85.4913V20.7009H83.3256V12.416Z" fill="#0B0B0B"/>
<path d="M97.6217 10.875H100.192L104.782 20.7009H102.369L101.286 18.2659H96.4368L95.3696 20.7009H93.0312L97.6217 10.875ZM100.639 16.7249L98.8772 12.5843L97.0881 16.7249H100.639Z" fill="#0B0B0B"/>
<path d="M110.035 10.875H116.85C119.204 10.875 119.809 12.0719 119.809 13.3249C119.809 14.7276 118.957 15.1278 118.408 15.3746C119.2 15.6103 120.283 16.1601 120.283 17.8096C120.283 18.9093 119.561 20.7009 116.776 20.7009H110.035V10.875ZM112.201 14.866H116.242C116.85 14.866 117.643 14.7276 117.643 13.6129C117.643 12.8013 117.125 12.416 115.865 12.416H112.197V14.866H112.201ZM112.201 19.1599H116.085C117.05 19.1599 118.035 18.9803 118.035 17.7161C118.035 16.8072 117.372 16.3247 116.403 16.3247H112.201V19.1599Z" fill="#0B0B0B"/>
<path d="M129.805 10.875H132.375L136.966 20.7009H134.553L133.47 18.2659H128.62L127.553 20.7009H125.215L129.805 10.875ZM132.822 16.7249L131.061 12.5843L129.272 16.7249H132.822Z" fill="#0B0B0B"/>
<path d="M146.216 10.6016C147.805 10.6016 150.979 10.8783 151.254 13.7248H148.916C148.845 12.9692 148.123 12.1426 146.318 12.1426C144.875 12.1426 143.921 12.569 143.921 13.4929C143.921 15.8044 151.599 13.5901 151.599 17.7868C151.599 20.319 148.841 20.981 146.648 20.981C142.94 20.981 141.449 19.5896 141.422 17.5287H143.76C143.819 18.8229 144.945 19.44 146.719 19.44C148.033 19.44 149.261 19.0697 149.261 17.9962C149.261 15.5613 141.669 17.6783 141.669 13.6462C141.669 11.4581 143.705 10.6053 146.216 10.6053V10.6016Z" fill="#0B0B0B"/>
<path d="M157.254 10.8748H166.203V12.4159H159.42V14.892H165.929V16.433H159.42V19.156H166.321V20.697H157.254V10.8711V10.8748Z" fill="#0B0B0B"/>
<path d="M26.8426 17.7619C26.6817 18.6745 26.3365 19.4974 25.8147 20.2118C25.4262 20.743 24.9436 21.2142 24.3708 21.6107C24.1825 21.7454 23.9785 21.8688 23.7666 21.9847L23.3546 22.2129L22.8524 22.4897H22.8485L19.9412 20.8888L20.8161 20.4063L21.3576 20.1071L22.311 19.5834C22.77 19.3328 23.1428 19.0112 23.4253 18.6259C23.6999 18.2407 23.8882 17.7993 23.9745 17.3018C24.0609 16.7969 24.0412 16.3181 23.9078 15.8768C23.7784 15.4279 23.5351 15.0053 23.1859 14.6237L20.7063 11.897L20.055 11.1789L19.9412 11.0517L18.0187 8.93466L17.9834 8.89352L17.8186 8.71398L14.0246 4.53601C13.6322 4.10961 13.1536 3.8029 12.6318 3.64207C12.106 3.48123 11.5214 3.46627 10.9447 3.59718C10.3718 3.7281 9.86178 3.9974 9.46943 4.3677C9.07709 4.73425 8.79852 5.2205 8.65335 5.77407L3.92556 23.9896C3.80393 24.5431 3.83924 25.0967 4.02757 25.6017C4.20805 26.0804 4.52585 26.5143 4.94566 26.8509C4.99667 26.8921 5.05159 26.9295 5.1026 26.9706C5.6048 27.3297 6.18548 27.5429 6.78185 27.5766C7.37822 27.6102 7.98243 27.4681 8.5278 27.1689L14.9348 23.6417L15.6136 23.2677L17.03 22.4897L19.9373 24.0906L18.5758 24.8386L18.415 24.9284L9.87748 29.6225C8.96331 30.105 7.95889 30.3556 6.94664 30.3556C6.82893 30.3556 6.71515 30.3519 6.60137 30.3444C5.4361 30.2771 4.31006 29.8731 3.3488 29.1849L3.32526 29.17C3.32526 29.17 3.28995 29.1438 3.27033 29.1288C2.34439 28.4443 1.65386 27.5466 1.27328 26.533C0.888782 25.5044 0.829929 24.3786 1.10065 23.2826L1.11242 23.2303L5.81667 5.10454C6.08739 4.06473 6.63668 3.1259 7.40568 2.39653C8.17468 1.66716 9.1634 1.151 10.2581 0.900392C11.3449 0.649788 12.463 0.683452 13.4949 0.997641C14.5229 1.30809 15.4527 1.89906 16.1864 2.69576L16.206 2.71446L19.5567 6.40245L19.7607 6.62687L19.9294 6.81014L21.8519 8.92718L22.1266 9.23389L22.6327 9.78746L25.3713 12.7984C26.003 13.4979 26.4503 14.2759 26.6974 15.1137C26.9446 15.9553 26.9878 16.8418 26.8269 17.7469L26.8426 17.7619Z" fill="url(#paint0_linear_3358_5598)"/>
<path d="M38.6019 26.5372C38.292 27.3639 37.7937 28.097 37.1149 28.7179C36.9384 28.8787 36.7422 29.0358 36.5303 29.1929C35.5651 29.8811 34.443 30.2851 33.2738 30.3524C32.1478 30.416 31.0178 30.1654 29.9977 29.6268L29.8996 29.5744L21.7349 25.0823L20.8874 24.6147L19.9418 24.0948L17.0345 22.4939L16.9678 22.4565L16.1164 21.989C15.9399 21.8917 15.7712 21.787 15.6064 21.6785C14.9943 21.2708 14.4764 20.7771 14.0684 20.2161C13.5505 19.5017 13.2013 18.6788 13.0404 17.7661C12.8796 16.861 12.9227 15.9745 13.1699 15.1329C13.4171 14.2951 13.8644 13.5171 14.4961 12.8176L17.2033 9.83659L18.0154 8.94264L19.9379 11.0597L19.4161 11.6357L19.0591 12.0284L16.6932 14.6317C16.344 15.0132 16.1008 15.4359 15.9713 15.881C15.8418 16.3224 15.8183 16.8011 15.9085 17.3061C15.9948 17.7998 16.1792 18.2449 16.4617 18.6301C16.7403 19.0117 17.1169 19.3333 17.5721 19.5839L18.0115 19.8271L19.4906 20.6425L19.9418 20.8931L22.8491 22.4939L23.5357 22.8717H23.5436L24.548 23.4215L31.3592 27.1731C31.9124 27.4761 32.5048 27.6145 33.1051 27.5808C33.7015 27.5471 34.2822 27.3339 34.7883 26.9749C34.8981 26.8963 34.9884 26.8215 35.0747 26.7467C35.4357 26.4213 35.6985 26.036 35.8633 25.6059C36.0517 25.0972 36.087 24.5324 35.9614 23.9751L35.9418 23.9003L31.2375 5.77457C31.0963 5.22473 30.8138 4.73849 30.4215 4.37193C30.0252 4.00164 29.5151 3.73608 28.9423 3.60142C28.3656 3.47051 27.7849 3.48547 27.2591 3.64631C26.7373 3.8034 26.2547 4.11385 25.8663 4.54025L25.8545 4.55147L22.6608 8.0674L22.5156 8.22824L21.8683 8.94264L19.9458 6.8256L20.5343 6.18226L20.6873 6.01395L23.6888 2.70748C24.4146 1.91078 25.3523 1.32355 26.3842 1.00936C27.4161 0.69517 28.5382 0.661507 29.6211 0.91211C30.7157 1.16271 31.7005 1.67888 32.4734 2.40825C33.2424 3.13762 33.7957 4.07645 34.0624 5.11626L38.7785 23.2944C39.0492 24.3903 38.9903 25.5124 38.6058 26.541L38.6019 26.5372Z" fill="url(#paint1_linear_3358_5598)"/>
</g>
<defs>
<linearGradient id="paint0_linear_3358_5598" x1="0.94371" y1="15.5513" x2="26.9368" y2="15.5513" gradientUnits="userSpaceOnUse">
<stop stop-color="#D329F8"/>
<stop offset="1" stop-color="#09FDF8"/>
</linearGradient>
<linearGradient id="paint1_linear_3358_5598" x1="12.9463" y1="15.5518" x2="38.9433" y2="15.5518" gradientUnits="userSpaceOnUse">
<stop stop-color="#D329F8"/>
<stop offset="1" stop-color="#09FDF8"/>
</linearGradient>
<clipPath id="clip0_3358_5598">
<rect width="166.479" height="30.5" fill="white" transform="translate(0.261719 0.25)"/>
</clipPath>
</defs>
</svg>
