<svg width="71" height="68" viewBox="0 0 71 68" fill="none" xmlns="http://www.w3.org/2000/svg">
<g clip-path="url(#clip0_3360_4169)">
<path d="M35.5084 67.7156C24.1336 67.7156 12.7587 67.7156 1.38386 67.7156C1.07051 67.7234 1 67.6451 1 67.3396C1 45.1122 1 22.8847 1 0.657299C1 0.343943 1.07051 0.273438 1.38386 0.273438C24.1336 0.273438 46.8832 0.273438 69.6329 0.273438C69.9463 0.273438 70.0168 0.343943 70.0168 0.657299C70.0168 22.8847 70.0168 45.1122 70.0168 67.3396C70.0168 67.6529 69.9463 67.7234 69.6329 67.7234C58.2581 67.7165 46.8832 67.7139 35.5084 67.7156ZM35.5711 1.34668C24.5723 1.34668 13.5708 1.34407 2.56678 1.33885C2.25343 1.33885 2.18553 1.40936 2.18553 1.72271C2.18553 23.2399 2.18553 44.7579 2.18553 66.2768C2.18553 66.5901 2.25604 66.6607 2.56939 66.6607C24.567 66.6502 46.5655 66.6502 68.5649 66.6607C68.8783 66.6607 68.9488 66.5875 68.9488 66.2768C68.9383 44.7579 68.9383 23.239 68.9488 1.7201C68.9488 1.40674 68.8756 1.33624 68.5649 1.33885C57.5678 1.34755 46.5699 1.35017 35.5711 1.34668Z" fill="#0B0B0B"/>
<path d="M28.0085 54.7229C27.0485 54.7568 26.0895 54.6324 25.17 54.3547C23.4256 53.775 22.3263 52.6025 21.9711 50.7746C21.6335 49.224 21.6513 47.617 22.0234 46.0743C22.5691 43.9852 23.9583 42.7553 26.0422 42.3009C27.4323 41.9908 28.8757 42.0105 30.2568 42.3584C32.4111 42.9015 33.7377 44.2673 34.1738 46.4581C34.4723 47.9561 34.442 49.501 34.085 50.9861C33.6254 52.9707 32.2727 54.0466 30.3613 54.5062C29.5886 54.6728 28.7986 54.7456 28.0085 54.7229ZM28.2566 48.414C28.2566 46.5365 28.2566 44.659 28.2566 42.7814C28.2566 42.6039 28.2566 42.4916 28.0137 42.5203C27.7709 42.549 27.8596 42.7057 27.8596 42.8128C27.8596 46.5469 27.8596 50.2802 27.8596 54.0127C27.8596 54.0544 27.8596 54.0962 27.8596 54.138C27.8596 54.2581 27.9014 54.2868 28.0189 54.3025C28.2566 54.3312 28.2592 54.2007 28.2566 54.0257C28.2548 52.1508 28.2548 50.2802 28.2566 48.414Z" fill="#0B0B0B"/>
<path d="M10.106 42.8864C10.1621 42.9241 10.2226 42.9547 10.2861 42.9778C11.4142 43.1971 12.088 43.8474 12.3177 44.9337C12.4067 45.307 12.4114 45.6955 12.3315 46.071C12.2516 46.4464 12.0891 46.7993 11.8558 47.1041C11.6226 47.4089 11.3243 47.6579 10.9828 47.8331C10.6413 48.0083 10.265 48.1052 9.8814 48.1168C9.48445 48.1193 9.09211 48.0317 8.73386 47.8608C8.3756 47.6898 8.06075 47.4399 7.81296 47.1298C7.56517 46.8196 7.39088 46.4574 7.30318 46.0703C7.21549 45.6831 7.21668 45.2811 7.30665 44.8945C7.53122 43.8291 8.21016 43.1945 9.16329 42.7872C10.2431 42.3539 11.3945 42.1263 12.558 42.1161C13.9856 42.0288 15.4186 42.1095 16.8275 42.3563C17.5843 42.4644 18.2993 42.7697 18.9008 43.2415C19.7051 43.9361 19.8409 44.8736 19.7913 45.8528C19.713 47.3752 18.7102 48.0907 17.2844 48.4198C16.2602 48.6188 15.2175 48.7064 14.1744 48.6809C12.8506 48.6599 11.5268 48.7201 10.2104 48.8611C9.6299 48.9205 9.06141 49.0657 8.52352 49.2919C8.35559 49.3468 8.20241 49.4393 8.07569 49.5624C7.94897 49.6855 7.85206 49.8359 7.79235 50.0022C7.98559 49.9683 8.09265 49.809 8.24411 49.7411C8.95455 49.4383 9.7095 49.2531 10.4794 49.1927C12.1585 48.9707 13.8506 49.0491 15.5375 48.9864C16.5699 48.9672 17.5964 48.8251 18.5953 48.5634C19.0596 48.4752 19.4803 48.2322 19.7887 47.874C19.7887 48.1665 19.7887 48.3963 19.7887 48.6156C19.7652 49.8873 19.8723 51.1616 19.7365 52.4307C19.6085 53.5901 18.6136 54.6294 17.603 54.6999C16.8003 54.7642 15.9925 54.6874 15.2163 54.4728C13.8297 54.0654 12.5266 53.4622 11.1871 52.9634C10.5914 52.7407 9.96539 52.6096 9.33041 52.5743C8.5183 52.5299 7.86808 53.1279 7.71924 54.0523C7.68854 54.2054 7.67193 54.361 7.66962 54.5171C7.66962 54.6843 7.6174 54.7287 7.45549 54.7287C7.29359 54.7287 7.24137 54.6764 7.24137 54.5119C7.24137 53.1671 7.24137 51.8197 7.24137 50.4748C7.2344 50.1487 7.32485 49.828 7.50114 49.5535C7.67744 49.2791 7.93157 49.0634 8.23105 48.9342C8.95431 48.6146 9.72223 48.4077 10.5081 48.3205C10.992 48.2473 11.4678 48.1275 11.9287 47.9628C12.8061 47.6364 13.4954 47.1193 13.6365 46.1192C13.7262 45.6387 13.6853 45.1429 13.5181 44.6836C13.3509 44.2243 13.0635 43.8183 12.6859 43.5079C11.9443 42.8551 11.0669 42.7663 10.106 42.8864Z" fill="#0B0B0B"/>
<path d="M36.9628 50.0083C37.4851 49.5488 38.1248 49.4286 38.7672 49.3085C40.3967 49.0056 42.0444 49.0134 43.6895 49.0056C44.8685 49.0177 46.0455 48.9074 47.2017 48.6766C47.7971 48.5486 48.4029 48.4154 48.8782 47.8932C48.8782 48.5199 48.8782 49.0892 48.8782 49.6558C48.8651 50.5541 48.933 51.4524 48.8443 52.3455C48.7267 53.5467 47.7345 54.6304 46.6899 54.6956C45.8243 54.7588 44.9543 54.6632 44.123 54.4136C42.8174 54.0167 41.5796 53.4448 40.3027 52.9722C39.7149 52.7552 39.0996 52.6216 38.4748 52.5753C37.66 52.5152 36.9968 53.0714 36.8296 53.9671C36.7884 54.1603 36.7666 54.3571 36.7644 54.5546C36.7644 54.7348 36.6677 54.727 36.545 54.727C36.4223 54.727 36.3257 54.727 36.3283 54.552C36.3283 53.1732 36.3283 51.7971 36.3283 50.4209C36.3298 50.1046 36.4239 49.7957 36.5988 49.5322C36.7737 49.2686 37.0219 49.062 37.3127 48.9377C38.0442 48.6095 38.8219 48.3963 39.6185 48.3058C40.1854 48.2211 40.7403 48.0695 41.2715 47.854C42.8383 47.1907 43.0054 45.7101 42.5615 44.5847C42.355 44.0636 41.9943 43.618 41.5276 43.3077C41.0609 42.9973 40.5105 42.837 39.9502 42.8481H39.2138C39.2895 42.9657 39.3966 42.95 39.4749 42.9683C40.5847 43.2059 41.2036 43.924 41.4177 44.9999C41.5018 45.3835 41.4969 45.7813 41.4033 46.1627C41.3097 46.5441 41.1299 46.899 40.8777 47.2001C40.6256 47.5012 40.3077 47.7404 39.9487 47.8995C39.5896 48.0586 39.1988 48.1333 38.8064 48.1178C38.4579 48.0972 38.117 48.0077 37.8034 47.8544C37.4898 47.7011 37.2098 47.4871 36.9795 47.2248C36.7492 46.9624 36.5733 46.657 36.462 46.3262C36.3506 45.9954 36.3061 45.6457 36.3309 45.2976C36.4562 43.9762 37.2109 43.1902 38.3912 42.728C39.5991 42.2899 40.8772 42.0774 42.1619 42.1013C43.6634 42.0856 45.1649 42.1013 46.622 42.5452C47.5255 42.822 48.3116 43.2686 48.6536 44.2295C48.9243 44.9705 48.9572 45.7774 48.7476 46.5379C48.5048 47.444 47.8285 47.9428 46.985 48.2457C45.9588 48.6139 44.896 48.6531 43.8097 48.6792C42.2977 48.7184 40.7858 48.6609 39.2817 48.8698C38.7006 48.9232 38.132 49.0696 37.5974 49.3033C37.2997 49.4469 36.9837 49.5879 36.9132 49.9718C36.8971 49.9892 36.8881 50.012 36.8881 50.0358C36.8881 50.0595 36.8971 50.0824 36.9132 50.0997L36.9628 50.0083Z" fill="#0B0B0B"/>
<path d="M51.492 49.9907C52.4556 49.3117 53.581 49.2438 54.6987 49.1263C56.1923 48.967 57.6991 49.0428 59.1979 48.9801C60.3454 48.9695 61.485 48.7891 62.5796 48.4448C62.927 48.3503 63.2301 48.1368 63.4361 47.8416V49.0036C63.4361 49.9724 63.4361 50.9438 63.4361 51.9152C63.423 53.1608 62.731 54.2262 61.6839 54.5892C61.0786 54.7555 60.4428 54.7779 59.8273 54.6544C58.5216 54.4925 57.3517 53.9494 56.1505 53.4794C55.3672 53.1686 54.5838 52.8056 53.7325 52.662C53.4661 52.6134 53.1963 52.5855 52.9256 52.5785C52.1004 52.5628 51.4685 53.1947 51.3588 54.1452C51.3351 54.2682 51.3255 54.3935 51.3301 54.5187C51.3457 54.7119 51.2517 54.7354 51.0898 54.7406C50.8888 54.7406 50.9044 54.6309 50.9044 54.503C50.9044 53.1451 50.9044 51.7881 50.9044 50.432C50.8985 50.1591 50.9659 49.8897 51.0995 49.6518C51.2332 49.4139 51.4282 49.2162 51.6643 49.0793C52.3198 48.6563 53.0692 48.5179 53.816 48.3795C54.372 48.2956 54.921 48.1708 55.4586 48.0061C56.6258 47.6118 57.216 46.9302 57.3126 45.9379C57.371 45.3644 57.2522 44.7867 56.972 44.2829C56.6918 43.779 56.2638 43.3733 55.7458 43.1203C55.1269 42.8043 54.4741 42.8592 53.8187 42.8775C53.8187 42.9741 53.9127 42.9532 53.9623 42.961C55.1243 43.1412 56.0095 44.0995 56.0357 45.554C56.035 46.1983 55.7936 46.8191 55.3588 47.2945C54.9239 47.7699 54.3271 48.0656 53.6855 48.1236C52.4294 48.2411 51.1238 47.3088 50.9358 46.0685C50.7164 44.6427 51.2152 43.4754 52.7872 42.8017C53.873 42.3668 55.0305 42.1383 56.2002 42.128C57.7147 42.0784 59.2241 42.0836 60.7125 42.4309C60.9662 42.4878 61.2157 42.562 61.4593 42.6529C61.8707 42.8033 62.2455 43.0395 62.5587 43.3457C62.8719 43.6519 63.1165 44.0212 63.2763 44.4291C63.436 44.837 63.5073 45.2741 63.4853 45.7116C63.4633 46.1491 63.3486 46.5769 63.1488 46.9668C62.778 47.6901 62.1252 48.0687 61.3784 48.3038C60.2164 48.6693 59.0152 48.6719 57.8192 48.6902C56.4849 48.6688 55.1506 48.7298 53.8239 48.873C53.189 48.9303 52.5697 49.1019 51.996 49.3796C51.6304 49.5781 51.539 49.7008 51.492 49.9907Z" fill="#0B0B0B"/>
<path d="M9.19967 10.3887C9.19967 12.7572 9.19967 15.1256 9.19967 17.4941C9.19967 17.8022 9.13961 17.9067 8.81581 17.8832C8.35743 17.8584 7.89804 17.8584 7.43965 17.8832C7.20202 17.8832 7.12891 17.8388 7.12891 17.5829C7.12891 14.734 7.12891 11.8876 7.12891 9.03869C7.12891 7.99417 7.12891 6.92876 7.12891 5.8764C7.12891 5.68056 7.16285 5.60222 7.39004 5.61527C7.9123 5.63355 8.45284 5.63094 8.98554 5.61527C9.06563 5.6066 9.14621 5.62646 9.21308 5.67136C9.27996 5.71626 9.32884 5.78333 9.35113 5.86074C10.8274 8.9003 12.3071 11.9372 13.7903 14.9716C13.8173 15.0185 13.8469 15.0639 13.8791 15.1074C14.1873 14.4467 14.485 13.8017 14.7853 13.1724C15.9203 10.7439 17.0562 8.31449 18.193 5.88424C18.22 5.79852 18.2765 5.72519 18.3526 5.67736C18.4287 5.62952 18.5193 5.61029 18.6082 5.62311C19.12 5.64226 19.6318 5.64226 20.1437 5.62311C20.3656 5.62311 20.4048 5.68317 20.4048 5.8999C20.4048 8.15346 20.4048 10.407 20.4048 12.6606C20.4048 14.3109 20.4048 15.9587 20.4048 17.6064C20.4048 17.8414 20.3526 17.9067 20.1149 17.8962C19.6266 17.8754 19.1357 17.878 18.6448 17.8962C18.4045 17.8962 18.334 17.844 18.3366 17.5933C18.3366 15.3476 18.3366 13.1045 18.3366 10.8614V10.4566C18.2478 10.6185 18.193 10.7178 18.1486 10.8039C17.0936 13.0671 16.0395 15.3302 14.9863 17.5933C14.8897 17.8022 14.7905 17.9145 14.532 17.8962C14.075 17.8675 13.6128 17.878 13.1558 17.8962C13.0762 17.9076 12.9951 17.8905 12.9268 17.848C12.8585 17.8055 12.8074 17.7403 12.7824 17.6638C11.6543 15.3346 10.5227 13.007 9.38769 10.6812L9.23884 10.3887H9.19967Z" fill="#0B0B0B"/>
<path d="M37.7515 10.7364C37.3049 10.034 36.9289 9.34723 36.4667 8.72835C36.2106 8.41625 36.0209 8.0552 35.9091 7.66727C35.7973 7.27935 35.7658 6.8727 35.8165 6.47218C35.853 6.21105 35.7355 5.84808 35.8713 5.68879C36.0071 5.5295 36.3936 5.63657 36.6547 5.63918C37.8951 5.63918 39.1381 5.57912 40.3758 5.67312C41.245 5.72094 42.0811 6.02233 42.7808 6.54008C43.2059 6.85651 43.5419 7.27736 43.7565 7.76186C43.9711 8.24635 44.0569 8.77806 44.0055 9.30545C43.9167 10.9871 43.1438 11.9429 41.5326 12.4886L41.3342 12.5644L44.6427 17.8653C43.841 17.8653 43.0968 17.8653 42.35 17.8653C42.1802 17.8653 42.1489 17.74 42.0888 17.6407C41.1305 16.1053 40.1695 14.5698 39.2164 13.0292C39.1734 12.9376 39.1017 12.8625 39.0121 12.8154C38.9226 12.7682 38.8201 12.7516 38.7202 12.768C38.4591 12.7994 38.0988 12.661 37.9369 12.8203C37.775 12.9796 37.8899 13.3425 37.8899 13.6037C37.8899 14.9406 37.8899 16.275 37.8899 17.6094C37.8899 17.8314 37.835 17.8888 37.6287 17.8705C37.1065 17.8523 36.5659 17.8575 36.0332 17.8705C35.8687 17.8705 35.8243 17.8261 35.8269 17.6642C35.8269 15.422 35.8269 13.1798 35.8269 10.9375C35.8269 10.7391 35.9053 10.7234 36.0646 10.726C36.5946 10.7417 37.1378 10.7364 37.7515 10.7364ZM41.9478 9.20622C41.9478 8.52728 41.483 8.01285 40.6709 7.80134C39.9867 7.62116 39.2843 7.69166 38.5818 7.68122C38.4957 7.68122 38.3782 7.62899 38.3207 7.72561C38.2633 7.82223 38.3782 7.87184 38.4199 7.93974C38.8882 8.68831 39.3565 9.43689 39.8248 10.1855C40.1982 10.7834 40.2583 10.8017 40.932 10.5354C41.6057 10.269 41.9452 9.81204 41.9478 9.20622Z" fill="#0B0B0B"/>
<path d="M28.1297 37.1103C26.8684 37.1103 25.6045 37.1103 24.3433 37.1103C24.1291 37.1103 24.043 37.0895 24.043 36.8335C24.0534 32.9288 24.0534 29.0266 24.043 25.1271C24.043 24.9156 24.0874 24.8477 24.3041 24.8477C26.8475 24.8477 29.3927 24.8477 31.9396 24.8477C32.1641 24.8477 32.2216 24.9156 32.2007 25.1297C32.185 25.631 32.1824 26.1324 32.2007 26.6312C32.2007 26.8688 32.138 26.9263 31.9056 26.9263C30.0777 26.9263 28.2315 26.9263 26.3958 26.9263C26.1346 26.9263 26.0641 26.9837 26.072 27.2474C26.0902 28.0726 26.072 28.8978 26.072 29.7204C26.072 29.9293 26.132 29.9815 26.3331 29.9815C27.8241 29.9815 29.3152 29.9815 30.8063 29.9815C31.1222 29.9815 31.1823 30.0703 31.1666 30.3575C31.1405 30.838 31.1483 31.3185 31.1666 31.799C31.1666 32.0131 31.0987 32.0601 30.9055 32.0601C29.3909 32.0601 27.879 32.0601 26.367 32.0601C26.1372 32.0601 26.0693 32.1071 26.0746 32.3473C26.0902 33.1603 26.0902 33.9742 26.0746 34.7889C26.0746 35.0239 26.1216 35.0996 26.3749 35.097C28.2028 35.097 30.0307 35.097 31.8586 35.097C32.1197 35.097 32.2268 35.1388 32.2085 35.4313C32.1798 35.9196 32.1902 36.4131 32.2085 36.9014C32.2085 37.126 32.1459 37.1782 31.9291 37.1756C30.6757 37.0947 29.404 37.1103 28.1297 37.1103Z" fill="#0B0B0B"/>
<path d="M32.7065 10.1578C32.7065 11.4635 32.7065 12.7874 32.7065 14.1009C32.6909 16.1142 31.3565 17.4956 29.4659 17.9082C28.0428 18.2137 26.6614 18.104 25.3923 17.3285C24.812 17 24.3317 16.5202 24.0024 15.9404C23.6732 15.3605 23.5074 14.7022 23.5226 14.0356C23.5069 11.3329 23.5226 8.6302 23.5226 5.9275C23.5226 5.69771 23.5722 5.61937 23.8124 5.62982C24.3034 5.65071 24.7943 5.64809 25.2826 5.62982C25.5255 5.62982 25.5986 5.68465 25.5986 5.93795C25.5986 7.81548 25.5986 9.69301 25.5986 11.5705V13.6987C25.5986 14.8817 26.1705 15.6207 27.3194 15.9001C28.0525 16.093 28.8303 16.018 29.5129 15.6886C29.871 15.5403 30.1747 15.2852 30.3826 14.9581C30.5906 14.631 30.6926 14.2478 30.675 13.8606C30.675 11.2842 30.675 8.7068 30.675 6.12857C30.675 5.64287 30.675 5.64287 31.1763 5.64287C31.5706 5.64287 31.9597 5.6716 32.3645 5.64287C32.7013 5.61415 32.7509 5.7421 32.7483 6.0424C32.7327 7.41856 32.7483 8.79733 32.7483 10.1735L32.7065 10.1578Z" fill="#0B0B0B"/>
<path d="M41.5771 33.6998H41.8383C42.0554 33.6727 42.2753 33.6771 42.4911 33.7129C42.7313 33.7886 42.6321 34.0837 42.7157 34.2717C43.1022 35.1308 44.3817 35.4885 45.327 34.982C45.5575 34.8685 45.7552 34.6978 45.901 34.4863C46.0469 34.2747 46.1361 34.0293 46.1602 33.7735C46.1843 33.5176 46.1424 33.2599 46.0386 33.0248C45.9348 32.7898 45.7725 32.5852 45.5672 32.4307C45.1799 32.1257 44.7024 31.9576 44.2093 31.9528C43.1554 31.9373 42.1491 31.511 41.4048 30.7647C40.0234 29.3598 40.1148 26.0408 42.8854 24.9493C44.5331 24.3017 46.4707 24.7874 47.4761 26.0957C47.8759 26.6337 48.1157 27.2736 48.1681 27.9419C48.1864 28.1247 48.1681 28.203 47.9461 28.203C47.4239 28.1873 46.8833 28.203 46.3506 28.203C46.2592 28.203 46.1548 28.25 46.1104 28.0881C45.8492 27.1167 45.4628 26.8164 44.4731 26.7511C43.2275 26.6702 42.337 27.7069 42.6635 28.8611C42.7648 29.1754 42.9605 29.4509 43.2241 29.65C43.4876 29.849 43.8061 29.962 44.1362 29.9735C44.6354 29.987 45.1317 30.0535 45.6168 30.1719C47.3534 30.6942 48.3352 32.1539 48.202 33.9635C48.0245 36.3398 45.9302 37.447 44.0239 37.2668C43.0669 37.2202 42.1602 36.8245 41.4753 36.1544C40.9068 35.5477 40.5743 34.7576 40.5379 33.927C40.5222 33.7651 40.5718 33.705 40.7415 33.7129C41.0131 33.7181 41.2951 33.6998 41.5771 33.6998Z" fill="#0B0B0B"/>
<path d="M55.2611 17.8756C54.5482 17.8756 53.8797 17.8756 53.2139 17.8756C53.1582 17.884 53.1015 17.8705 53.0557 17.8378C53.0099 17.8052 52.9786 17.756 52.9684 17.7007C52.8431 17.3482 52.6942 17.0035 52.5689 16.6562C52.5563 16.5979 52.5228 16.5462 52.4746 16.5111C52.4265 16.4759 52.3671 16.4597 52.3077 16.4655C51.016 16.4655 49.7225 16.4655 48.4273 16.4655C48.3659 16.4562 48.3033 16.4708 48.2523 16.5062C48.2013 16.5417 48.1658 16.5954 48.1532 16.6562C48.0356 17.0113 47.892 17.356 47.7693 17.7007C47.7585 17.7554 47.7268 17.8037 47.681 17.8354C47.6352 17.867 47.5788 17.8796 47.5238 17.8704C46.8579 17.8704 46.1894 17.8704 45.4766 17.8704C47.1034 13.6767 48.7172 9.51424 50.3649 5.25781C52.0048 9.50118 53.6238 13.6636 55.2611 17.8756ZM51.822 14.6768C51.3389 13.298 50.8637 11.9375 50.3884 10.577H50.3205L48.8869 14.6716L51.822 14.6768Z" fill="#0B0B0B"/>
<path d="M7.20703 30.9777C7.20703 29.0375 7.20703 27.0973 7.20703 25.1571C7.20703 24.9116 7.2697 24.8516 7.51255 24.8516C10.0264 24.862 12.5411 24.862 15.0566 24.8516C15.3177 24.8516 15.4039 24.9012 15.3882 25.1728C15.3647 25.6402 15.3674 26.1128 15.3882 26.5802C15.3882 26.8414 15.3439 26.9119 15.0723 26.9093C13.2574 26.9093 11.44 26.9093 9.6251 26.8936C9.31174 26.8936 9.25168 26.985 9.25952 27.2749C9.28041 28.0669 9.28041 28.8599 9.25952 29.6538C9.25952 29.9149 9.34047 29.9697 9.58854 29.9671C11.0796 29.9671 12.5733 29.9671 14.0643 29.9671C14.2915 29.9671 14.3672 30.0115 14.3568 30.2544C14.3359 30.7531 14.3411 31.2545 14.3568 31.7559C14.3568 31.9569 14.3072 32.017 14.0957 32.017C12.5942 32.017 11.0927 32.017 9.58854 32.017C9.32741 32.017 9.25429 32.0666 9.25691 32.3356C9.27257 33.8397 9.25691 35.3412 9.26996 36.8427C9.26996 37.0829 9.2099 37.143 8.9775 37.1325C8.47874 37.1142 7.97737 37.1142 7.476 37.1325C7.25403 37.1325 7.20181 37.0803 7.21486 36.8714C7.20964 34.8816 7.20703 32.9283 7.20703 30.9777Z" fill="#0B0B0B"/>
<path d="M60.8682 31.9191C60.8682 33.5563 60.8682 35.1936 60.8682 36.8335C60.8682 37.0555 60.8107 37.1103 60.607 37.0947C60.1057 37.0764 59.6043 37.0764 59.1055 37.0947C58.8705 37.0947 58.8131 37.0424 58.8131 36.8048C58.8131 33.5616 58.8131 30.3183 58.8131 27.0725C58.8131 26.7852 58.7373 26.7121 58.4553 26.7199C57.7999 26.7408 57.1497 26.7199 56.4838 26.7199C56.3036 26.7199 56.2227 26.686 56.2227 26.4797C56.2383 26.0123 56.2227 25.5422 56.2227 25.0722C56.2227 24.9155 56.2566 24.8555 56.4263 24.8555C58.6895 24.8555 60.9526 24.8555 63.2157 24.8555C63.3907 24.8555 63.4194 24.9181 63.4168 25.0696C63.4168 25.5396 63.4037 26.0097 63.4168 26.4771C63.4168 26.6729 63.3672 26.7382 63.1739 26.7199C62.4872 26.7199 61.7978 26.7199 61.1084 26.7199C60.8838 26.7199 60.8473 26.7852 60.8473 26.9994C60.8734 28.6445 60.8682 30.2818 60.8682 31.9191Z" fill="#0B0B0B"/>
<path d="M58.9715 10.7494C58.9715 12.345 58.9715 13.9405 58.9715 15.536C58.9715 15.7684 59.0238 15.8284 59.2588 15.8258C60.5644 15.8128 61.8884 15.8258 63.2019 15.8258C63.4186 15.8258 63.5126 15.8545 63.5022 16.1052C63.4787 16.6275 63.4891 17.1498 63.5022 17.672C63.5022 17.8391 63.4734 17.9044 63.2854 17.9044C61.2295 17.9044 59.1752 17.9044 57.1227 17.9044C56.8825 17.9044 56.9112 17.7817 56.9112 17.6433C56.9112 15.307 56.9112 12.9708 56.9112 10.6345C56.9112 9.06776 56.9112 7.50098 56.9112 5.9342C56.9112 5.69918 56.9687 5.63129 57.2037 5.64173C57.6946 5.66001 58.1855 5.66523 58.6739 5.64173C58.9507 5.62868 58.9924 5.73052 58.9898 5.97859C58.9715 7.55843 58.9715 9.15133 58.9715 10.7494Z" fill="#0B0B0B"/>
<path d="M45.1321 60.2415C45.1321 61.0249 45.1138 61.8083 45.1321 62.5917C45.1321 62.9129 44.9545 62.8372 44.7795 62.8528C44.6046 62.8685 44.4662 62.8528 44.4688 62.5917C44.4871 61.495 44.4818 60.4008 44.4688 59.3067C44.4688 59.0952 44.5106 59.0273 44.7299 59.0194C44.8503 59.006 44.9719 59.0283 45.0796 59.0836C45.1874 59.1388 45.2765 59.2246 45.3357 59.3302C45.858 60.1136 46.4247 60.897 47.0226 61.7535C47.0226 60.8944 47.0226 60.1188 47.0226 59.3432C47.0226 59.2414 46.9495 59.0821 47.0853 59.0429C47.2582 59.0145 47.4346 59.0145 47.6076 59.0429C47.6781 59.0429 47.652 59.15 47.652 59.2075C47.652 60.3669 47.652 61.5237 47.652 62.6805C47.652 62.8137 47.618 62.8502 47.4796 62.8633C47.3348 62.8893 47.1855 62.8687 47.0531 62.8044C46.9208 62.7401 46.8123 62.6355 46.7432 62.5055C46.2419 61.7221 45.6987 60.9884 45.1764 60.2311L45.1321 60.2415Z" fill="#0B0B0B"/>
<path d="M9.2151 60.923C9.73736 61.2154 9.9071 61.4974 9.82615 61.9675C9.78451 62.1958 9.66592 62.403 9.49013 62.5546C9.31434 62.7061 9.09195 62.7929 8.85997 62.8005C8.36382 62.8527 7.85984 62.8214 7.36108 62.8318C7.22268 62.8318 7.21484 62.7561 7.21484 62.6516C7.21484 61.4957 7.21484 60.3389 7.21484 59.1812C7.21484 59.0794 7.21484 58.9932 7.35847 59.001C7.88073 59.0272 8.42127 58.941 8.94614 59.0663C9.16466 59.1 9.36553 59.2061 9.51658 59.3675C9.66762 59.529 9.76008 59.7365 9.77915 59.9568C9.81827 60.1588 9.78263 60.3682 9.67887 60.546C9.57511 60.7237 9.41029 60.8577 9.2151 60.923ZM8.34032 62.2051C8.43432 62.2051 8.52833 62.2051 8.62234 62.2051C8.99314 62.1842 9.20727 62.0067 9.20205 61.7272C9.19682 61.4478 8.99575 61.2859 8.64062 61.2624C8.44477 61.2494 8.24631 61.2624 8.04785 61.2624C7.84939 61.2624 7.852 61.3277 7.86245 61.4687C7.86245 61.5601 7.86245 61.6541 7.86245 61.7481C7.86506 62.2051 7.86506 62.2051 8.34032 62.2051ZM7.86506 60.1161V60.4581C7.86506 60.5234 7.87812 60.5913 7.95907 60.5913C8.27764 60.5913 8.60406 60.6566 8.90697 60.5052C8.98353 60.471 9.04768 60.414 9.09067 60.3421C9.13367 60.2701 9.15341 60.1866 9.14721 60.103C9.14583 60.0143 9.11696 59.9283 9.06457 59.8567C9.01218 59.7851 8.93886 59.7316 8.85474 59.7035C8.68658 59.6479 8.50916 59.6257 8.33248 59.6382C7.86506 59.6513 7.86506 59.6486 7.86506 60.1265V60.1161Z" fill="#0B0B0B"/>
<path d="M30.6369 60.2174C30.6369 61.0008 30.6186 61.7842 30.6369 62.5519C30.6369 62.8601 30.5011 62.8366 30.287 62.8496C30.0729 62.8627 29.9841 62.7791 29.9867 62.5415C29.9867 61.497 29.9867 60.4525 29.9867 59.4079C29.9867 59.28 29.8666 59.0476 30.0807 59.0241C30.2948 59.0006 30.5769 58.9092 30.7727 59.2042C31.2715 59.9615 31.8172 60.6953 32.3238 61.4369C32.3734 61.51 32.4309 61.5805 32.5353 61.7163C32.5353 60.865 32.5353 60.0895 32.5353 59.3139C32.5353 59.2121 32.4596 59.0528 32.6058 59.0215C32.7787 58.9918 32.9553 58.9918 33.1281 59.0215C33.1908 59.0215 33.1647 59.1311 33.1647 59.1912C33.1647 60.3376 33.1647 61.4839 33.1647 62.6329C33.1647 62.8052 33.102 62.8235 32.9505 62.8392C32.8152 62.8624 32.6761 62.8421 32.5531 62.781C32.4301 62.72 32.3297 62.6215 32.2664 62.4997C31.7441 61.7163 31.201 60.959 30.663 60.1939L30.6369 60.2174Z" fill="#0B0B0B"/>
<path d="M35.1623 60.9251C35.1623 60.3611 35.1623 59.797 35.1623 59.2356C35.1623 59.0554 35.2145 59.0058 35.3921 59.011C35.9124 58.9825 36.4338 59.0399 36.9354 59.1807C37.2366 59.2734 37.502 59.4563 37.6959 59.7048C37.8897 59.9533 38.0025 60.2553 38.0191 60.57C38.0948 61.2358 38.0191 61.8756 37.4968 62.3483C37.1147 62.6616 36.6357 62.8323 36.1415 62.8314C35.8308 62.8522 35.4339 62.9645 35.2328 62.7948C35.0317 62.6251 35.1858 62.2255 35.178 61.9252C35.1701 61.6249 35.1623 61.2567 35.1623 60.9251ZM35.8099 60.9251C35.8099 61.2985 35.8099 61.6719 35.8099 62.048C35.8099 62.1968 35.8595 62.2438 36.0058 62.249C36.8675 62.2804 37.408 61.7607 37.3976 60.9042C37.3871 60.0477 36.8466 59.5986 36.0005 59.6351C35.8517 59.6351 35.8047 59.6847 35.8099 59.831C35.8177 60.1887 35.8099 60.5517 35.8099 60.9173V60.9251Z" fill="#0B0B0B"/>
<path d="M49.625 60.9154C49.625 60.3618 49.625 59.8108 49.625 59.2572C49.625 59.0744 49.6564 58.9961 49.8601 58.9961C50.5599 59.0092 51.2571 59.0144 51.9491 58.9961C52.2442 58.9961 52.1658 59.1711 52.1632 59.3173C52.1606 59.4635 52.2494 59.6568 51.9517 59.6437C51.4634 59.6228 50.9725 59.6437 50.4816 59.6437C50.3223 59.6437 50.27 59.6803 50.2622 59.85C50.2361 60.6073 50.2309 60.6047 50.9881 60.6047C51.2179 60.6047 51.4477 60.6047 51.6775 60.6047C51.8133 60.6047 51.8499 60.649 51.8577 60.7848C51.8838 61.2549 51.8917 61.2549 51.406 61.2549C51.103 61.2549 50.8001 61.2679 50.4998 61.2549C50.2961 61.2418 50.2622 61.3175 50.2622 61.5003C50.2622 62.208 50.2622 62.208 50.9699 62.208C51.3041 62.208 51.6384 62.2211 51.9726 62.208C52.3069 62.1949 52.1476 62.4195 52.1606 62.5501C52.1737 62.6806 52.2363 62.8608 51.9595 62.853C51.2623 62.8347 50.5625 62.853 49.8705 62.853C49.6825 62.853 49.6094 62.8086 49.6094 62.6101C49.6329 62.0435 49.625 61.4794 49.625 60.9154Z" fill="#0B0B0B"/>
<path d="M55.8216 60.0745C55.6649 60.1058 55.5604 60.0536 55.4821 59.8604C55.4246 59.7471 55.3266 59.6597 55.2075 59.6157C55.0884 59.5716 54.957 59.5741 54.8397 59.6227C54.7212 59.6445 54.6155 59.7106 54.5442 59.8077C54.4728 59.9048 54.4412 60.0254 54.4558 60.145C54.4558 60.4296 54.6569 60.5628 54.9233 60.602L55.1087 60.6203C55.8921 60.7169 56.3125 61.2705 56.1741 62.0356C56.0566 62.6649 55.3594 63.0488 54.6595 62.8634C54.4442 62.8179 54.248 62.7074 54.0976 62.5467C53.9472 62.386 53.8498 62.183 53.8187 61.9651C53.7978 61.8293 53.8187 61.7666 53.9675 61.7771C54.1869 61.7927 54.4193 61.6935 54.542 62.0382C54.6386 62.2993 54.9337 62.3228 55.1948 62.2471C55.3041 62.2256 55.4015 62.1642 55.4681 62.075C55.5347 61.9857 55.5657 61.8749 55.5552 61.764C55.5508 61.6437 55.505 61.5286 55.4256 61.4382C55.3461 61.3478 55.2378 61.2876 55.1191 61.2679C54.9886 61.2365 54.858 61.2339 54.7196 61.2078C54.438 61.164 54.185 61.0107 54.0158 60.7814C53.8466 60.552 53.7748 60.2651 53.8161 59.9831C53.8615 59.6762 54.0251 59.3992 54.272 59.2113C54.5189 59.0235 54.8295 58.9396 55.1374 58.9778C55.3518 58.9891 55.5582 59.0625 55.7316 59.1891C55.905 59.3157 56.0379 59.4899 56.114 59.6906C56.2472 60.0353 56.2263 60.0745 55.8216 60.0745Z" fill="#0B0B0B"/>
<path d="M63.2727 62.8441C63.1187 62.8361 62.9644 62.8361 62.8105 62.8441C62.6329 62.865 62.5311 62.8023 62.5023 62.63C62.4736 62.4576 62.3483 62.3688 62.1524 62.3897C61.9446 62.4041 61.7361 62.4041 61.5283 62.3897C61.2489 62.3741 60.98 62.3584 60.9382 62.737C60.9382 62.8337 60.8546 62.8415 60.7789 62.8415H60.2148C60.7214 61.5358 61.215 60.2563 61.7398 58.9062L63.2727 62.8441ZM61.7398 60.5305C61.5806 60.977 61.45 61.3426 61.322 61.7082C61.2881 61.797 61.322 61.844 61.416 61.8414C61.6772 61.8414 61.92 61.8414 62.1994 61.8414C62.0454 61.3974 61.907 61.0031 61.7398 60.5305Z" fill="#0B0B0B"/>
<path d="M11.1992 62.8428L12.7268 58.9102C13.0976 59.8581 13.4397 60.7381 13.7714 61.605C13.9071 61.9549 14.0325 62.3049 14.1787 62.6495C14.2466 62.8062 14.2074 62.8506 14.0455 62.8454C13.7844 62.8454 13.4841 62.929 13.4397 62.519C13.4267 62.4041 13.33 62.391 13.2282 62.391C12.8835 62.391 12.5414 62.391 12.1837 62.391C12.1027 62.391 12.0087 62.3754 11.9983 62.4981C11.9565 62.8846 11.6797 62.8585 11.4055 62.8402C11.3663 62.8402 11.3037 62.8428 11.1992 62.8428ZM13.1812 61.827L12.7268 60.5213L12.2699 61.827H13.1812Z" fill="#0B0B0B"/>
<path d="M42.595 60.3672C42.5955 60.6472 42.5132 60.9212 42.3584 61.1546C42.2036 61.388 41.9833 61.5705 41.7252 61.679C41.467 61.7876 41.1825 61.8174 40.9075 61.7648C40.6324 61.7122 40.379 61.5794 40.1792 61.3832C39.9794 61.187 39.842 60.9361 39.7843 60.662C39.7267 60.3879 39.7513 60.1029 39.8552 59.8428C39.959 59.5827 40.1374 59.3591 40.368 59.2002C40.5985 59.0412 40.8709 58.9539 41.151 58.9492C41.5293 58.9498 41.8923 59.0986 42.1622 59.3636C42.4321 59.6287 42.5875 59.9889 42.595 60.3672ZM41.9578 60.3672C41.9553 60.2643 41.9325 60.1629 41.8907 60.0689C41.849 59.9748 41.7891 59.8899 41.7145 59.819C41.64 59.748 41.5522 59.6925 41.4562 59.6555C41.3601 59.6185 41.2577 59.6008 41.1549 59.6034C41.052 59.6059 40.9506 59.6287 40.8566 59.6705C40.7625 59.7122 40.6776 59.7721 40.6067 59.8467C40.5357 59.9212 40.4802 60.009 40.4432 60.105C40.4062 60.2011 40.3885 60.3035 40.3911 60.4063C40.3963 60.6141 40.4838 60.8113 40.6344 60.9545C40.7849 61.0978 40.9863 61.1753 41.194 61.1701C41.4018 61.1649 41.599 61.0774 41.7422 60.9268C41.8855 60.7762 41.963 60.5749 41.9578 60.3672Z" fill="#0B0B0B"/>
<path d="M15.7982 60.9234C15.7982 60.3802 15.8164 59.8371 15.7982 59.2966C15.7825 59.0145 15.9105 59.0015 16.122 59.0093C16.3335 59.0171 16.4719 58.978 16.4614 59.2704C16.4379 60.1557 16.4614 61.0435 16.4484 61.9288C16.4484 62.1533 16.5111 62.2108 16.7252 62.1899C17.0359 62.1716 17.3493 62.1899 17.6626 62.1899C17.8193 62.1899 17.8768 62.2186 17.8768 62.391C17.8768 62.8297 17.8768 62.8297 17.4616 62.8297C17.0464 62.8297 16.5424 62.814 16.0854 62.8297C15.8373 62.8427 15.7929 62.7539 15.8008 62.532C15.8086 62.0071 15.7982 61.4639 15.7982 60.9234Z" fill="#0B0B0B"/>
<path d="M28.028 60.9306C28.028 61.4946 28.0123 62.0561 28.028 62.6175C28.028 62.9387 27.8321 62.8342 27.6807 62.8421C27.5292 62.8499 27.3621 62.9021 27.3673 62.6149C27.3865 61.492 27.3865 60.3683 27.3673 59.2437C27.3673 58.9251 27.5632 59.0243 27.7146 59.0165C27.8661 59.0087 28.0436 58.9591 28.0306 59.2463C28.0097 59.813 28.028 60.3692 28.028 60.9306Z" fill="#0B0B0B"/>
<path d="M19.657 60.9247C19.657 60.3633 19.6726 59.7993 19.657 59.2378C19.657 58.9192 19.8528 59.0289 20.0017 59.0159C20.1505 59.0028 20.3124 58.9741 20.3072 59.2483C20.2898 60.3711 20.2898 61.494 20.3072 62.6169C20.3072 62.9354 20.1139 62.831 19.9625 62.8414C19.811 62.8519 19.6439 62.8806 19.657 62.609C19.6726 62.0476 19.657 61.4862 19.657 60.9247Z" fill="#0B0B0B"/>
<path d="M58.0398 60.8892C58.0398 60.3486 58.0607 59.8055 58.0398 59.2676C58.0268 58.9803 58.1782 59.0064 58.3584 59.0064C58.5386 59.0064 58.6979 58.9385 58.6927 59.2441C58.6753 60.3669 58.6753 61.4898 58.6927 62.6126C58.6927 62.9312 58.4942 62.8215 58.3454 62.8346C58.1965 62.8477 58.032 62.8685 58.0425 62.5996C58.0581 62.0329 58.0398 61.4611 58.0398 60.8892Z" fill="#0B0B0B"/>
<path d="M41.1585 62.8416C40.8164 62.8416 40.4743 62.8416 40.1322 62.8416C39.9468 62.8416 39.8711 62.8077 39.8711 62.6066C39.8842 62.1992 39.8711 62.1992 40.2811 62.1992C40.9156 62.1992 41.5502 62.2149 42.1821 62.1992C42.4615 62.1992 42.4171 62.3533 42.4145 62.5126C42.4119 62.6719 42.4798 62.8729 42.1743 62.8494C41.8687 62.8259 41.5032 62.8416 41.1585 62.8416Z" fill="#0B0B0B"/>
<path d="M22.2828 63.3767C22.2985 63.0816 22.3142 62.8909 22.0557 62.7917C21.9966 62.756 21.954 62.6982 21.9374 62.6312C21.9207 62.5641 21.9313 62.4932 21.9669 62.434C21.9944 62.3603 22.0467 62.2986 22.1149 62.2595C22.1831 62.2204 22.2628 62.2064 22.3403 62.2198C22.4201 62.2215 22.4964 62.2525 22.5547 62.3069C22.613 62.3614 22.6492 62.4354 22.6563 62.5149C22.6656 62.6777 22.6367 62.8405 22.5719 62.9901C22.507 63.1398 22.408 63.2721 22.2828 63.3767Z" fill="#0B0B0B"/>
</g>
<defs>
<clipPath id="clip0_3360_4169">
<rect width="69.0168" height="67.45" fill="white" transform="translate(0.992188 0.273438)"/>
</clipPath>
</defs>
</svg>
