<svg width="107" height="48" viewBox="0 0 107 48" fill="none" xmlns="http://www.w3.org/2000/svg">
<g clip-path="url(#clip0_3357_5199)">
<path d="M0.527344 14.6261C0.527344 11.0071 0.527344 7.38806 0.527344 3.76902C0.527344 2.01267 1.7185 0.763782 3.4718 0.669583C4.59915 0.60881 5.62318 0.827594 6.38892 1.74527C6.76875 2.20107 7.15162 2.6599 7.53145 3.1157C11.3328 7.6585 15.1342 12.2013 18.9355 16.7471C20.4701 18.5825 21.9985 20.4178 23.5391 22.2501C23.6455 22.3778 23.8369 22.551 23.9554 22.5297C24.2076 22.4841 24.1134 22.2137 24.1134 22.0344C24.1165 17.054 24.1195 12.0767 24.1134 7.09635C24.1134 6.92011 24.0223 6.74386 23.9706 6.56762C23.8187 6.6527 23.6485 6.71652 23.5178 6.82591C21.7402 8.35131 19.9687 9.88584 18.1941 11.4173C18.1303 11.472 18.0665 11.5297 17.9996 11.5814C17.711 11.8002 17.3706 11.7941 17.1367 11.5723C16.9118 11.3565 16.8784 11.0375 17.0698 10.7427C17.4223 10.2049 17.7839 9.67313 18.1425 9.14137C19.7286 6.78944 21.3209 4.44056 22.901 2.08256C23.6819 0.915715 25.0281 0.402181 26.3256 0.800246C27.614 1.19223 28.4405 2.34388 28.4405 3.74167C28.4405 10.9919 28.4405 18.2421 28.4405 25.4924C28.4405 27.2518 27.1399 28.5462 25.3805 28.5432C25.0402 28.5432 24.6968 28.5554 24.3626 28.5067C23.5999 28.3943 22.983 28.0084 22.4877 27.4189C16.7963 20.6001 11.0928 13.7844 5.39224 6.96568C5.36793 6.93834 5.35273 6.89883 5.32235 6.8806C5.20384 6.81679 5.07926 6.75906 4.95771 6.69828C4.91517 6.81375 4.83616 6.93226 4.83616 7.04773C4.82705 7.94717 4.83008 8.84358 4.83008 9.74302C4.83008 13.8726 4.83009 18.0021 4.83616 22.1316C4.83616 22.2988 4.86047 22.5418 4.96682 22.6209C5.14914 22.7546 5.28588 22.5236 5.41655 22.4112C7.22151 20.8615 9.0204 19.3057 10.8223 17.7499C10.8679 17.7104 10.9104 17.6648 10.9591 17.6283C11.2356 17.4217 11.5577 17.4217 11.7947 17.6314C12.0226 17.8319 12.0773 18.1783 11.895 18.4609C11.5668 18.9714 11.2204 19.4698 10.8831 19.9711C9.26349 22.3747 7.64388 24.7783 6.02124 27.1819C5.12484 28.5067 3.49915 28.9382 2.11352 28.1907C1.07126 27.6377 0.53646 26.7352 0.533421 25.5562C0.524305 21.9128 0.530382 18.2695 0.530382 14.6261H0.527344Z" fill="#0B0B0B"/>
<path d="M51.0279 18.9706C51.0279 18.3234 51.0522 17.6822 51.0249 17.0441C50.9155 14.5585 50.8274 12.0729 50.8578 9.58421C50.8699 8.64831 50.8578 7.7124 50.8578 6.77953C50.8578 6.28119 50.8881 6.25384 51.3986 6.25384C51.9699 6.25384 52.5412 6.25384 53.1124 6.25384C53.55 6.25384 53.5804 6.28423 53.5804 6.73699C53.5804 9.76046 53.5804 12.7839 53.5804 15.8104C53.5804 18.0195 53.5804 20.2317 53.5804 22.4408C53.5804 22.9786 53.5804 22.9817 53.0274 22.9817C52.5898 22.9817 52.1522 22.9756 51.7147 22.9817C50.797 22.9938 50.1133 22.5927 49.618 21.83C47.1749 18.053 44.7288 14.2789 42.2857 10.5019C42.2219 10.4047 42.152 10.3105 42.0335 10.2345C42.0669 10.9546 42.0973 11.6718 42.1338 12.3919C42.2553 14.7925 42.3374 17.193 42.3039 19.5966C42.2918 20.5811 42.3039 21.5626 42.3039 22.5471C42.3039 22.93 42.2614 22.9725 41.8907 22.9756C41.2343 22.9756 40.578 22.9695 39.9216 22.9786C39.6724 22.9817 39.557 22.8905 39.5783 22.6383C39.5843 22.5654 39.5783 22.4924 39.5783 22.4195C39.5783 17.2082 39.5783 11.9999 39.5783 6.78865C39.5783 6.67926 39.5539 6.56075 39.5904 6.46351C39.6238 6.37843 39.7271 6.26296 39.797 6.25992C40.502 6.25688 41.21 6.22346 41.9059 6.29942C42.6351 6.37843 43.1517 6.83423 43.5467 7.44804C45.0448 9.77261 46.552 12.0881 48.0561 14.4096C48.992 15.853 49.9279 17.2994 50.8638 18.7458C50.9155 18.8248 50.9732 18.8977 51.0249 18.9706H51.0279Z" fill="#0B0B0B"/>
<path d="M29.7053 35.2771V30.8984H32.75V46.9578H30.0942V46.3622C30.0395 46.3622 30.0091 46.3531 29.9939 46.3622C27.6055 48.079 23.0931 47.763 21.6528 43.4359C20.96 41.3453 21.0512 39.2578 22.1451 37.313C23.2724 35.3106 25.0743 34.4658 27.3442 34.5691C28.1677 34.6056 28.9365 34.8305 29.7022 35.2741L29.7053 35.2771ZM30.1216 40.9291C30.0517 40.4125 30.0243 39.8898 29.9058 39.3854C29.7205 38.5862 29.374 37.8722 28.5658 37.5045C27.2166 36.8937 25.5909 37.4316 24.9649 38.7686C24.263 40.2666 24.2843 41.8042 25.0379 43.287C25.5788 44.3506 26.542 44.6696 27.6694 44.5694C28.7147 44.4752 29.4196 43.9221 29.7782 42.9346C30.0152 42.2873 30.079 41.6158 30.1216 40.926V40.9291Z" fill="#0B0B0B"/>
<path d="M101.75 16.6117C103.273 18.5564 104.761 20.4556 106.25 22.3578C106.296 22.4155 106.345 22.4702 106.384 22.531C106.56 22.8075 106.478 22.9685 106.15 22.9716C105.567 22.9776 104.983 22.9898 104.4 22.9716C103.661 22.9442 103.081 22.5948 102.637 22.0174C101.373 20.3705 100.106 18.7296 98.8573 17.0705C98.6659 16.8152 98.4714 16.7302 98.1645 16.7393C97.4747 16.7606 96.7819 16.7454 96.0466 16.7454C96.0466 16.8912 96.0466 17.0188 96.0466 17.1465C96.0466 18.9302 96.0466 20.7169 96.0466 22.5006C96.0466 22.9837 96.0192 23.0111 95.527 23.0111C94.9192 23.0111 94.3115 23.0111 93.7038 23.0111C93.3726 23.0111 93.3239 22.9625 93.3239 22.6282C93.3239 20.0301 93.3239 17.4321 93.3239 14.831C93.3239 14.4572 93.4394 14.3509 93.8405 14.3509C95.8825 14.3509 97.9245 14.357 99.9664 14.3418C100.386 14.3387 100.817 14.2901 101.224 14.1868C102.865 13.7705 103.352 12.4092 103.172 11.139C102.984 9.81114 102.027 8.99374 100.583 8.87523C100.27 8.85092 99.9543 8.83877 99.6383 8.83573C98.2648 8.83269 96.8913 8.84181 95.5178 8.83269C94.354 8.82357 93.406 7.92413 93.3239 6.76944C93.2966 6.39265 93.4212 6.24679 93.7919 6.24679C96.0283 6.24679 98.2648 6.23464 100.501 6.24983C101.395 6.25591 102.264 6.42607 103.081 6.79983C104.339 7.37413 105.202 8.307 105.634 9.62578C106.013 10.7865 106.044 11.9686 105.734 13.1415C105.242 15.0042 103.944 16.0404 102.13 16.5144C102.014 16.5448 101.896 16.5722 101.747 16.6086L101.75 16.6117Z" fill="#0B0B0B"/>
<path d="M74.8897 43.8073C74.5008 44.7979 73.8718 45.5636 73.0513 46.1805C70.1524 48.3622 64.5887 47.4993 63.4492 42.8045C62.8809 40.4739 63.2486 38.2587 64.8925 36.399C65.8862 35.2778 67.1837 34.7217 68.6696 34.588C69.7756 34.4908 70.8544 34.5941 71.8723 35.062C73.5314 35.8278 74.4369 37.1921 74.835 38.9242C75.0477 39.851 75.1115 40.7929 74.9748 41.7927C73.577 41.7927 72.1731 41.7927 70.7723 41.7927C69.3715 41.7927 67.9585 41.7927 66.5486 41.7927C66.7036 43.9805 68.9157 45.1656 70.7906 44.096C71.1917 43.8681 71.5046 43.5551 71.7204 43.1479C71.7872 43.0203 71.845 42.923 72.0212 42.9747C72.9723 43.2543 73.9234 43.5247 74.8927 43.8073H74.8897ZM66.6246 39.4894H71.8845C71.8662 39.3557 71.8602 39.2493 71.8359 39.1429C71.6748 38.4228 71.3952 37.7816 70.6751 37.4413C68.9582 36.63 67.0135 37.5993 66.6215 39.4894H66.6246Z" fill="#0B0B0B"/>
<path d="M106.484 46.9705H103.81V45.5514C103.549 45.8006 103.348 46.0072 103.132 46.1956C102.442 46.7942 101.634 47.1315 100.735 47.2379C99.6621 47.3655 98.6047 47.3503 97.6049 46.852C96.271 46.1895 95.6177 44.9042 95.6754 43.4547C95.6906 43.1053 95.7453 42.7528 95.8304 42.4155C96.116 41.273 96.9 40.5771 97.9422 40.1274C98.9663 39.6868 100.054 39.5015 101.145 39.3252C101.911 39.2006 102.673 39.0821 103.436 38.9606C103.436 38.1462 102.895 37.6448 102.385 37.499C101.576 37.265 100.78 37.2772 99.9994 37.6084C99.4585 37.8393 99.0756 38.2222 98.8629 38.8147C98.398 38.6689 97.9392 38.526 97.4834 38.3802C97.0337 38.2374 96.587 38.0946 96.1099 37.9426C96.274 37.3015 96.5657 36.7575 96.9729 36.2714C97.6232 35.4904 98.4558 34.983 99.4433 34.7581C100.838 34.439 102.242 34.4512 103.618 34.8675C105.341 35.3871 106.302 36.5935 106.444 38.3832C106.472 38.7448 106.49 39.1095 106.493 39.4741C106.496 41.8291 106.493 44.184 106.493 46.542C106.493 46.6727 106.493 46.8064 106.493 46.9705H106.484ZM103.406 41.4158C102.385 41.6346 101.364 41.826 100.355 42.0782C99.9538 42.1785 99.571 42.3943 99.2033 42.6009C98.9237 42.7589 98.7444 43.0233 98.6867 43.3575C98.5591 44.105 98.9997 44.7158 99.8201 44.8495C101.634 45.1473 103.655 43.9744 103.403 41.4188L103.406 41.4158Z" fill="#0B0B0B"/>
<path d="M81.9373 6.24911C82.3749 6.24911 82.8125 6.2643 83.25 6.24303C83.5539 6.23088 83.7089 6.34938 83.8183 6.63198C84.7116 8.97175 85.6171 11.3085 86.5196 13.6452C87.6439 16.5593 88.7713 19.4703 89.8986 22.3813C89.929 22.4604 89.9655 22.5363 89.9898 22.6184C90.0475 22.8189 89.9898 22.9678 89.7619 22.9708C88.984 22.9769 88.2061 22.9708 87.4282 22.9739C87.2003 22.9739 87.1638 22.7946 87.1061 22.6396C86.4953 21.0322 85.8876 19.4247 85.2768 17.8173C84.2558 15.125 83.2318 12.4297 82.2108 9.73749C82.1926 9.69191 82.1835 9.64025 82.1531 9.60379C82.0893 9.52478 82.0011 9.38197 81.9495 9.39412C81.8522 9.41843 81.7429 9.50959 81.6912 9.60379C81.6 9.77092 81.5453 9.96235 81.4755 10.1416C79.8984 14.2924 78.3183 18.4432 76.7534 22.6001C76.644 22.8888 76.5042 22.9921 76.2003 22.983C75.5561 22.9617 74.912 22.9769 74.2678 22.9769C73.8059 22.9769 73.7421 22.8858 73.9062 22.4634C75.076 19.4399 76.249 16.4134 77.4219 13.39C78.2849 11.1657 79.1478 8.94136 80.0108 6.71706C80.1324 6.40712 80.3613 6.25215 80.6976 6.25215C81.1108 6.25215 81.5241 6.25215 81.9373 6.25215V6.24911Z" fill="#0B0B0B"/>
<path d="M41.3099 47.3101C37.8215 47.301 35.3146 44.8032 35.2295 41.2662C35.1991 39.9201 35.3967 38.6287 36.0925 37.4527C37.1256 35.7024 38.6814 34.7817 40.687 34.5903C41.8052 34.4839 42.8961 34.6085 43.9292 35.0643C45.4668 35.7389 46.5273 36.8845 47.0529 38.4706C47.7518 40.5856 47.6576 42.661 46.4726 44.5935C45.4516 46.2618 43.8927 47.1035 41.9602 47.2797C41.8021 47.2949 41.6441 47.301 41.4892 47.3101C41.4284 47.3131 41.3676 47.3101 41.3068 47.3101H41.3099ZM44.2361 40.9411C44.224 40.698 44.2209 40.4549 44.1936 40.2148C44.1662 39.9869 44.1206 39.759 44.0629 39.5372C43.7165 38.182 42.7563 37.4253 41.3889 37.4223C39.9121 37.4193 39.0035 38.0999 38.6328 39.5099C38.4171 40.3303 38.3928 41.1659 38.5538 41.9985C38.879 43.7032 39.9243 44.5297 41.6198 44.4355C42.5314 44.3839 43.2394 43.9737 43.7043 43.1775C44.1054 42.4878 44.2361 41.7311 44.2392 40.9411H44.2361Z" fill="#0B0B0B"/>
<path d="M11.0222 46.9635H7.92578V34.9092H10.6393V36.0456C10.7578 35.9545 10.8247 35.9119 10.8824 35.8572C12.0614 34.7755 13.4774 34.4503 15.0271 34.5476C15.8111 34.5962 16.5768 34.742 17.2271 35.2161C18.2086 35.9332 18.8498 36.8934 19.0442 38.0937C19.1749 38.8928 19.2448 39.7072 19.2569 40.5155C19.2873 42.518 19.2661 44.5235 19.2661 46.526V46.9514H16.1545C16.1545 46.8116 16.1545 46.6809 16.1545 46.5503C16.1514 44.5721 16.1575 42.5909 16.1362 40.6127C16.1271 39.9473 16.0512 39.2818 15.726 38.6741C15.1973 37.6895 14.4103 37.2975 13.207 37.4313C12.2285 37.5406 11.4202 38.2365 11.2015 39.221C11.0981 39.692 11.0404 40.1812 11.0374 40.6613C11.0191 42.6152 11.0313 44.5721 11.0313 46.526C11.0313 46.6597 11.0313 46.7903 11.0313 46.9574L11.0222 46.9635Z" fill="#0B0B0B"/>
<path d="M58.1458 46.957C58.1458 45.2402 58.1519 43.5416 58.1428 41.846C58.1397 41.2413 58.1093 40.6336 58.0698 40.0289C58.0242 39.336 57.8085 38.701 57.3588 38.157C57.0853 37.8258 56.748 37.6071 56.3317 37.5098C55.727 37.37 55.1284 37.37 54.545 37.6131C53.5179 38.0385 53.1411 38.8924 53.0469 39.9195C53.0013 40.4026 52.9861 40.8888 52.9861 41.3719C52.9801 43.2286 52.9861 45.0852 52.9861 46.9631H49.9141V34.9026H52.6094V36.0786C52.7309 35.9723 52.8008 35.9145 52.8676 35.8537C54.0497 34.7781 55.4657 34.4499 57.0154 34.5532C57.3649 34.5775 57.7173 34.6261 58.0546 34.7173C59.6955 35.1549 60.5858 36.3308 60.9717 37.8927C61.1662 38.6858 61.2239 39.5244 61.2391 40.3449C61.2756 42.4081 61.2513 44.4744 61.2513 46.5377V46.96H58.1488L58.1458 46.957Z" fill="#0B0B0B"/>
<path d="M87.1691 38.1479C86.1208 38.3363 85.0998 38.5186 84.0545 38.707C83.9421 38.0689 83.6078 37.6161 83.0153 37.3943C82.3133 37.1299 81.5962 37.0783 80.8852 37.3609C80.7423 37.4186 80.6087 37.5159 80.4993 37.6252C80.1103 38.0203 80.1741 38.6007 80.6664 38.8468C81.0644 39.0443 81.4929 39.1902 81.9214 39.3208C82.8481 39.6004 83.7871 39.8435 84.7139 40.1291C85.0451 40.2324 85.3611 40.3995 85.6711 40.5636C86.8956 41.2169 87.3636 42.2714 87.2694 43.6175C87.157 45.2097 86.3304 46.3006 84.8537 46.8506C83.1216 47.5009 81.3501 47.5009 79.6181 46.8628C78.0136 46.2733 77.1081 45.0669 76.8164 43.3379C77.8465 43.1799 78.8736 43.0249 79.9189 42.8639C79.9523 42.9429 79.9857 43.0037 80.007 43.0705C80.2957 44.0156 80.9794 44.5048 81.9153 44.6263C82.3498 44.681 82.8178 44.6506 83.2492 44.5564C83.9269 44.4106 84.2581 43.8332 84.1244 43.2255C84.0484 42.8791 83.8023 42.712 83.5106 42.6147C82.8816 42.402 82.2374 42.2258 81.6053 42.0192C80.7423 41.7366 79.8672 41.4904 79.0346 41.1379C78.1777 40.7763 77.5153 40.1656 77.3208 39.1993C76.944 37.3275 77.7098 35.7474 79.4418 35.0515C81.3653 34.2797 83.3131 34.3253 85.1758 35.2946C86.3061 35.8841 86.9655 36.8474 87.1722 38.1449L87.1691 38.1479Z" fill="#0B0B0B"/>
<path d="M64.1493 22.9729C62.5206 22.9729 60.8918 22.9729 59.2631 22.9729C58.7253 22.9729 58.6523 22.903 58.6523 22.3651C58.6523 19.4875 58.6523 16.6099 58.6523 13.7323C58.6523 13.2157 58.7283 13.1398 59.2388 13.1367C62.3382 13.1367 65.4377 13.1367 68.5341 13.1367C68.9899 13.1367 69.0051 13.155 69.0051 13.6077C69.0051 14.1668 69.0051 14.7259 69.0051 15.282C69.0051 15.7287 68.999 15.7317 68.5644 15.7317C66.3766 15.7317 64.1888 15.7317 62.0009 15.7317C61.9159 15.7317 61.8308 15.7317 61.7457 15.7317C61.4813 15.7226 61.378 15.8533 61.3811 16.1116C61.3871 16.7801 61.3811 17.4486 61.3811 18.114C61.3811 18.7096 61.3811 19.3052 61.3811 19.8977C61.3811 20.3657 61.3993 20.3809 61.8824 20.3809C64.2891 20.3809 66.6957 20.3809 69.0993 20.3809C69.5854 20.3809 69.5854 20.3809 69.5854 20.8701C69.5854 21.4171 69.5854 21.964 69.5854 22.5079C69.5854 22.9364 69.5611 22.9637 69.1357 22.9637C67.4705 22.9637 65.8053 22.9637 64.1402 22.9637L64.1493 22.9729Z" fill="#0B0B0B"/>
<path d="M1.5625 30.8867H4.57989V46.9551H1.5625V30.8867Z" fill="#0B0B0B"/>
<path d="M89.9648 34.8945H92.9853V46.961H89.9648V34.8945Z" fill="#0B0B0B"/>
<path d="M64.1615 6.25C65.8267 6.25 67.4888 6.25 69.154 6.25C69.5764 6.25 69.5946 6.26823 69.5946 6.67541C69.5946 7.25884 69.5946 7.83922 69.5946 8.42264C69.5946 8.81159 69.549 8.86021 69.157 8.86021C67.662 8.86021 66.17 8.86021 64.675 8.86021C63.4838 8.86021 62.2957 8.86325 61.1046 8.86021C60.0167 8.85413 59.1811 8.33148 58.8286 7.42292C58.7435 7.2011 58.698 6.95497 58.6706 6.71795C58.6341 6.36851 58.7466 6.25304 59.096 6.25304C60.0198 6.25 60.9405 6.25304 61.8642 6.25304C62.63 6.25304 63.3957 6.25304 64.1584 6.25304L64.1615 6.25Z" fill="#0B0B0B"/>
<path d="M92.9861 30.5547V33.2105H89.9688V30.5547H92.9861Z" fill="#0B0B0B"/>
</g>
<defs>
<clipPath id="clip0_3357_5199">
<rect width="105.955" height="46.6799" fill="white" transform="translate(0.523438 0.660156)"/>
</clipPath>
</defs>
</svg>
