<svg width="165" height="24" viewBox="0 0 165 24" fill="none" xmlns="http://www.w3.org/2000/svg">
<g clip-path="url(#clip0_3360_4201)">
<path d="M43.8676 11.5609C43.8637 10.8203 43.8857 10.0801 43.9508 9.34218C44.0607 8.09802 44.2648 6.87278 44.7063 5.69723C45.0379 4.81501 45.4948 4.00801 46.1453 3.31886C46.8797 2.54044 47.7725 2.01357 48.7779 1.66218C49.5132 1.40491 50.2731 1.25098 51.0436 1.15115C52.1818 1.00338 53.3257 0.983592 54.47 1.01922C55.6143 1.05484 56.7516 1.17138 57.8603 1.47923C58.8279 1.74838 59.7246 2.1565 60.5052 2.79859C61.3685 3.50709 61.9657 4.40557 62.387 5.4294C62.723 6.24564 62.9333 7.09663 63.0731 7.96565C63.3124 9.45125 63.3581 10.9478 63.3154 12.448C63.2855 13.5012 63.198 14.5501 63.0032 15.588C62.8238 16.5432 62.5594 17.4712 62.1337 18.3494C61.3342 19.9995 60.0575 21.11 58.3309 21.7116C57.5899 21.963 56.8244 22.135 56.0471 22.2248C55.0002 22.3495 53.9452 22.3927 52.8916 22.3541C51.7825 22.3207 50.6817 22.2143 49.6038 21.9333C48.7413 21.7081 47.9264 21.3769 47.1885 20.8703C46.1563 20.1618 45.4293 19.204 44.928 18.0684C44.5581 17.2328 44.3241 16.3577 44.1658 15.4605C43.9384 14.171 43.8637 12.8697 43.8676 11.5609ZM59.2118 11.6959C59.2153 10.5569 59.1911 9.51633 59.0623 8.48108C58.9879 7.88341 58.8727 7.29365 58.6629 6.72677C58.2948 5.73109 57.6074 5.0824 56.5823 4.7917C55.9574 4.61579 55.3184 4.54938 54.6745 4.52036C53.9647 4.48825 53.2536 4.48957 52.5433 4.52036C51.9776 4.53875 51.4147 4.60941 50.862 4.73145C49.708 4.99533 48.923 5.67128 48.5311 6.79845C48.3659 7.28872 48.2481 7.79371 48.1793 8.30648C48.057 9.16011 48.0249 10.0216 48.0082 10.8806C47.9813 11.9818 48.0123 13.0836 48.101 14.1816C48.1453 14.7515 48.2335 15.3171 48.3649 15.8734C48.4273 16.1244 48.5054 16.3712 48.5989 16.6123C48.9889 17.6278 49.7089 18.2773 50.7538 18.5724C51.4663 18.7734 52.1972 18.8363 52.9321 18.8561C53.6065 18.8809 54.2818 18.8696 54.9551 18.8222C55.4658 18.7886 55.972 18.7045 56.4662 18.5711C57.461 18.2888 58.1726 17.6854 58.571 16.724C58.6171 16.6132 58.6597 16.5007 58.699 16.3867C58.9576 15.6355 59.0605 14.8549 59.1265 14.0686C59.199 13.2479 59.2188 12.4238 59.2118 11.6959Z" fill="#A2195C"/>
<path d="M27.7249 8.30742C27.7407 8.75344 27.6839 9.19905 27.5565 9.62678C27.3265 10.3951 26.8999 11.046 26.3343 11.6027C24.3258 13.5818 22.3428 15.5841 20.3405 17.5685C19.6434 18.2611 18.9574 18.9643 18.2625 19.657C17.2897 20.6263 16.3147 21.5938 15.3375 22.5596C14.7315 23.1595 13.9974 23.5069 13.1645 23.6569C12.1204 23.8451 11.1274 23.707 10.1955 23.1867C9.71783 22.9158 9.28016 22.5798 8.89504 22.1884C8.05065 21.3449 7.21506 20.497 6.36759 19.6561C5.16741 18.463 3.96283 17.2742 2.78113 16.0626C2.45744 15.731 2.12145 15.41 1.79381 15.0828C1.06112 14.3536 0.69434 13.4556 0.598027 12.4414C0.462133 11.024 0.908956 9.80534 1.91387 8.80042C3.70248 7.01137 5.48098 5.2122 7.28718 3.44118C7.77095 2.96885 8.22876 2.47365 8.70242 1.99297C9.01361 1.6735 9.34915 1.37869 9.70601 1.11119C10.564 0.475703 11.5294 0.221506 12.5914 0.276919C13.8066 0.340248 14.7935 0.875029 15.6374 1.71238C16.4453 2.51411 17.2461 3.32332 18.0496 4.13121C18.0793 4.16101 18.1074 4.19243 18.1336 4.22532C18.1592 4.25174 18.1735 4.28707 18.1735 4.32384C18.1735 4.36061 18.1592 4.39593 18.1336 4.42235C18.0949 4.46633 18.0536 4.51031 18.0114 4.55428L15.2632 7.30207L12.0188 10.5486C11.9551 10.6123 11.8913 10.6766 11.8231 10.7359C11.6987 10.8441 11.6472 10.8375 11.5729 10.6977C11.422 10.422 11.3308 10.1177 11.3051 9.80446C11.2611 9.10476 11.481 8.50093 11.9784 8.00397C12.6908 7.29416 13.4043 6.58522 14.1188 5.87716C14.1531 5.84286 14.1883 5.81032 14.2209 5.77469C14.3431 5.64276 14.3436 5.56184 14.2231 5.43254C14.2024 5.41055 14.1791 5.38856 14.1584 5.36921C13.7604 4.99275 13.3668 4.6119 12.9934 4.21037C12.62 3.80885 12.131 3.79345 11.7207 4.14836C11.5448 4.30185 11.3856 4.47688 11.2198 4.64312C10.0614 5.80211 8.90325 6.96094 7.74544 8.11963C6.77087 9.09537 5.7966 10.0717 4.82262 11.0486C4.72709 11.1489 4.62654 11.2443 4.52136 11.3345C4.115 11.6665 4.11764 12.229 4.44704 12.605C4.48662 12.649 4.53104 12.693 4.57326 12.7339C6.06853 14.2292 7.56469 15.723 9.06172 17.2153C9.94129 18.0917 10.8201 18.9676 11.6982 19.843C11.8904 20.0348 12.109 20.1588 12.3896 20.1298C12.6161 20.1065 12.7959 19.9886 12.9534 19.8329C13.2102 19.5787 13.4665 19.3239 13.7221 19.0686L23.3354 9.46494C24.4648 8.33674 25.5946 7.20913 26.7249 6.0821C26.7332 6.07331 26.7416 6.06495 26.7504 6.0566C26.9703 5.83978 27.009 5.84286 27.1537 6.10541C27.4712 6.68021 27.6968 7.28448 27.7307 7.94856C27.7379 8.06815 27.736 8.18812 27.7249 8.30742Z" fill="#A2195C"/>
<path d="M38.4768 11.9159C38.4711 13.1934 38.037 14.2907 37.1232 15.1953C36.1086 16.1994 35.1102 17.2184 34.1018 18.2299C32.8672 19.4657 31.6304 20.6993 30.3913 21.9307C30.0883 22.2319 29.7937 22.5429 29.4581 22.8103C28.8169 23.3213 28.0948 23.6586 27.2759 23.7281C25.8734 23.8468 24.624 23.4686 23.6072 22.4677C22.7193 21.5929 21.848 20.7002 20.9557 19.8289C20.8115 19.6882 20.8132 19.6583 20.9628 19.5083C21.2653 19.2062 21.5697 18.9058 21.8722 18.6033L26.2701 14.2093C26.5551 13.9239 26.8379 13.6354 27.1215 13.3491C27.3348 13.1336 27.4153 13.1468 27.5327 13.419C27.918 14.3131 27.7904 15.1342 27.1708 15.8819C26.9008 16.2064 26.5784 16.4813 26.2815 16.7799C25.8101 17.2531 25.3338 17.7206 24.8584 18.1925C24.6825 18.3658 24.686 18.4414 24.8584 18.6125L26.0766 19.8197C26.1513 19.8983 26.2357 19.967 26.3277 20.0242C26.4382 20.0934 26.5653 20.1314 26.6956 20.1342C26.8259 20.137 26.9546 20.1044 27.0679 20.04C27.199 19.965 27.3177 19.87 27.4197 19.7586C29.2008 17.9815 30.983 16.2038 32.7662 14.4253C33.3232 13.8682 33.8827 13.3119 34.4444 12.7563C34.5706 12.6352 34.6773 12.4953 34.7606 12.3416C34.8298 12.2172 34.8656 12.077 34.8642 11.9347C34.8629 11.7923 34.8246 11.6528 34.7531 11.5297C34.6589 11.3611 34.5358 11.2103 34.3894 11.0842C34.2236 10.9356 34.0622 10.7816 33.911 10.618C33.3458 10.0072 32.7081 9.47108 32.1206 8.88309C31.241 8.00351 30.3421 7.13581 29.4555 6.25976C28.7826 5.59524 28.1154 4.92501 27.4461 4.25741L27.4333 4.24422C26.9795 3.79651 26.4693 3.79343 26.0185 4.23806C25.7696 4.48346 25.526 4.7337 25.2788 4.98042C23.5141 6.7422 21.7489 8.50355 19.9833 10.2645C19.3134 10.9329 18.6438 11.6013 17.9744 12.2694C17.7337 12.5146 17.4783 12.7449 17.2096 12.959C16.9914 13.1305 16.7953 13.3284 16.626 13.5483C16.3241 13.9319 15.9922 14.2909 15.6334 14.6219C14.9091 15.3027 14.2331 16.0323 13.5224 16.7258C13.1042 17.1339 12.6868 17.5425 12.2844 17.9664C12.2683 17.9843 12.2513 18.0013 12.2334 18.0175C12.0901 18.1446 12.0113 18.1371 11.9212 17.9735C11.6133 17.4092 11.3596 16.8221 11.3156 16.1739C11.2276 14.8928 11.5245 13.7243 12.3918 12.7387C12.4872 12.6301 12.5853 12.5236 12.6873 12.4216C14.5068 10.6038 16.3267 8.78604 18.1468 6.96826C19.3533 5.76412 20.5603 4.56057 21.768 3.35761C22.3652 2.76214 22.9554 2.16139 23.5606 1.57295C24.2699 0.881168 25.113 0.436543 26.0981 0.297571C27.301 0.125174 28.3903 0.425109 29.3697 1.13624C29.5644 1.27835 29.7478 1.43539 29.9181 1.60594C31.633 3.31553 33.3482 5.02513 35.0636 6.73473C35.7752 7.44572 36.4837 8.15964 37.1891 8.87649C37.8048 9.49879 38.2327 10.2244 38.4016 11.0917C38.4496 11.3638 38.4748 11.6395 38.4768 11.9159Z" fill="#0B0B0B"/>
<path d="M93.5439 11.4488C93.5363 10.6043 93.5755 9.75989 93.6613 8.91963C93.788 7.68251 94.0131 6.46694 94.4925 5.31074C94.8483 4.44964 95.3351 3.67562 96.015 3.03001C96.7649 2.31931 97.6546 1.85754 98.6331 1.55364C99.3658 1.32627 100.117 1.19478 100.879 1.11386C101.803 1.01936 102.731 0.98572 103.659 1.01315C104.496 1.03781 105.331 1.10636 106.16 1.21853C107.032 1.32865 107.896 1.48885 108.749 1.69833C109.015 1.76518 109.016 1.76518 108.948 2.03697C108.699 3.02825 108.45 4.01938 108.2 5.01037C108.194 5.03368 108.19 5.05743 108.186 5.08117C108.173 5.16253 108.136 5.16913 108.06 5.14318C107.757 5.04185 107.449 4.95901 107.136 4.89514C106.423 4.74744 105.701 4.64345 104.975 4.58377C104.175 4.51385 103.374 4.5244 102.574 4.55959C101.96 4.5804 101.349 4.66172 100.751 4.80235C99.5197 5.1036 98.6881 5.84288 98.2518 7.03163C98.059 7.56987 97.9249 8.12739 97.852 8.69446C97.6563 10.1255 97.6524 11.5636 97.717 13.0044C97.7531 13.8162 97.8384 14.6241 98.0306 15.417C98.1092 15.7446 98.2121 16.0658 98.3384 16.378C98.7905 17.4854 99.5984 18.1877 100.749 18.5035C101.25 18.6371 101.762 18.722 102.278 18.7568C103.005 18.8161 103.735 18.828 104.463 18.7924C105.68 18.7242 106.882 18.5681 108.052 18.2062C108.159 18.1732 108.161 18.1736 108.19 18.2915C108.395 19.1203 108.6 19.9493 108.803 20.7785C108.86 21.012 108.92 21.2451 108.976 21.4791C109.014 21.6356 109.014 21.6383 108.865 21.6761C108.27 21.8283 107.668 21.9461 107.062 22.0424C106.241 22.1732 105.416 22.2651 104.586 22.3182C103.786 22.3731 102.984 22.3829 102.184 22.3476C101.456 22.3199 100.73 22.2422 100.013 22.115C99.1771 21.9593 98.3653 21.7192 97.6022 21.3313C96.2292 20.636 95.2674 19.5563 94.6372 18.1648C94.2449 17.2989 93.9999 16.3894 93.8377 15.4557C93.6125 14.1575 93.5373 12.8491 93.5439 11.4488Z" fill="#0B0B0B"/>
<path d="M154.709 12.284V12.4815C154.709 15.4559 154.709 18.4303 154.709 21.4047C154.709 21.6717 154.74 21.6369 154.481 21.6369C153.409 21.6369 152.337 21.6369 151.264 21.6369C151.222 21.6369 151.18 21.6369 151.138 21.6369C151.084 21.6369 151.062 21.6119 151.063 21.5604C151.063 21.5164 151.063 21.4764 151.063 21.4342C151.063 16.5869 151.063 11.7397 151.063 6.89265C151.063 6.68023 151.04 6.6965 151.255 6.6965C152.333 6.6965 153.409 6.6965 154.49 6.6965C154.536 6.69207 154.583 6.70006 154.626 6.71968C154.669 6.73929 154.706 6.76983 154.733 6.80821C156.54 9.16459 158.256 11.5839 159.796 14.1249C160.102 14.6292 160.399 15.1385 160.688 15.6528C160.704 15.6813 160.71 15.7218 160.762 15.7297C160.778 15.6614 160.782 15.5909 160.775 15.5213C160.775 12.655 160.775 9.78894 160.775 6.92299C160.775 6.67188 160.75 6.6987 160.994 6.69826C162.061 6.69826 163.127 6.69826 164.193 6.69826C164.237 6.69826 164.278 6.7009 164.32 6.69826C164.39 6.69343 164.42 6.72289 164.415 6.79282C164.412 6.8368 164.415 6.87726 164.415 6.91948C164.415 11.7545 164.415 16.5895 164.415 21.4245C164.415 21.6721 164.439 21.6387 164.208 21.6387C163.123 21.6387 162.039 21.6365 160.953 21.6427C160.821 21.6427 160.752 21.6013 160.689 21.487C159.4 19.1869 158.044 16.9273 156.558 14.7477C156.019 13.9561 155.459 13.1803 154.867 12.4278C154.827 12.3768 154.785 12.3271 154.744 12.277L154.709 12.284Z" fill="#0B0B0B"/>
<path d="M111.284 14.1825C111.284 11.7619 111.284 9.34119 111.284 6.92031C111.284 6.66963 111.262 6.70042 111.507 6.70042C112.574 6.70042 113.64 6.70042 114.707 6.70042C114.751 6.70042 114.791 6.70305 114.833 6.70042C114.906 6.69558 114.928 6.7334 114.924 6.79937C114.924 6.84335 114.924 6.88337 114.924 6.92559C114.924 8.61173 114.924 10.2976 114.924 11.9831C114.924 12.203 114.893 12.1863 115.126 12.1863C116.946 12.1863 118.765 12.1863 120.585 12.1863C120.811 12.1863 120.784 12.2127 120.784 11.9831C120.784 10.297 120.784 8.61114 120.784 6.92559C120.784 6.88161 120.787 6.84115 120.784 6.79893C120.78 6.73032 120.809 6.69822 120.878 6.7013C120.914 6.7013 120.951 6.7013 120.987 6.7013H124.222C124.258 6.7013 124.295 6.7013 124.331 6.7013C124.398 6.69646 124.433 6.72197 124.429 6.79365C124.426 6.83543 124.429 6.87765 124.429 6.91987C124.429 11.7558 124.429 16.5914 124.429 21.4267C124.429 21.6721 124.455 21.6417 124.222 21.6417C123.143 21.6417 122.065 21.6417 120.986 21.6417C120.942 21.6417 120.902 21.6417 120.86 21.6417C120.806 21.6417 120.785 21.6127 120.785 21.563C120.785 21.5133 120.785 21.4667 120.785 21.4183V15.545C120.783 15.5029 120.783 15.4608 120.785 15.4187C120.797 15.3189 120.749 15.2934 120.659 15.2982C120.557 15.304 120.454 15.2982 120.351 15.2982H115.161C115.114 15.2982 115.065 15.2982 115.017 15.2982C114.95 15.296 114.915 15.3216 114.921 15.3932C114.924 15.435 114.921 15.4772 114.921 15.5195V21.4645C114.921 21.6637 114.926 21.6404 114.745 21.6404C113.649 21.6404 112.552 21.6404 111.455 21.6404H111.347C111.303 21.6404 111.283 21.6131 111.281 21.5727C111.281 21.5186 111.281 21.4645 111.281 21.4104C111.283 19.001 111.284 16.5917 111.284 14.1825Z" fill="#0B0B0B"/>
<path d="M126.621 21.64C126.709 21.3497 126.786 21.0797 126.868 20.8105C127.727 17.9845 128.718 15.2033 129.753 12.4379C130.445 10.5908 131.163 8.75364 131.908 6.92648C131.913 6.91548 131.916 6.90361 131.921 6.89261C132.019 6.67624 131.956 6.69999 132.202 6.69999C133.619 6.69999 135.035 6.69999 136.45 6.69999C136.8 6.69999 137.15 6.69999 137.499 6.69999C137.666 6.69999 137.667 6.69999 137.716 6.86623C138.202 8.51015 138.712 10.1463 139.246 11.7747C140.235 14.7921 141.279 17.7896 142.5 20.7226C142.602 20.9671 142.709 21.209 142.811 21.4531C142.833 21.5067 142.876 21.5555 142.862 21.6237C142.818 21.6545 142.77 21.6395 142.725 21.6395C141.562 21.6395 140.399 21.6395 139.236 21.6439C139.104 21.6439 139.049 21.6 139 21.4839C138.548 20.4205 138.149 19.3377 137.766 18.2483C137.753 18.221 137.743 18.1926 137.736 18.1635C137.717 18.0535 137.654 18.028 137.547 18.028C135.558 18.0312 133.57 18.0321 131.581 18.0307C131.444 18.0307 131.443 18.0307 131.399 18.1696C131.052 19.2638 130.735 20.3686 130.432 21.4751C130.388 21.64 130.388 21.6404 130.218 21.6404C129.08 21.6404 127.941 21.6404 126.802 21.6404L126.621 21.64ZM132.298 15.351H136.748C136.771 15.2754 136.731 15.2165 136.711 15.1558C136.303 13.949 135.915 12.7361 135.547 11.517C135.371 10.936 135.195 10.3551 135.029 9.7719C135 9.67031 134.958 9.63293 134.853 9.64304C134.769 9.65096 134.685 9.64304 134.6 9.64304C134.322 9.64788 134.392 9.60302 134.292 9.84666C133.663 11.407 133.093 12.9898 132.552 14.5832C132.472 14.8334 132.388 15.0828 132.298 15.3502V15.351Z" fill="#0B0B0B"/>
<path d="M65.579 14.1072C65.579 11.6981 65.579 9.28922 65.579 6.88066C65.579 6.61678 65.5513 6.65417 65.8129 6.65417C69.5552 6.65417 73.2971 6.65417 77.0385 6.65417C77.2997 6.65417 77.2711 6.61898 77.2716 6.88154C77.2716 7.7183 77.2716 8.55536 77.2716 9.39272C77.2694 9.42875 77.2694 9.46488 77.2716 9.50091C77.2843 9.60074 77.2355 9.62976 77.1449 9.62097C77.1031 9.61701 77.0609 9.62097 77.0187 9.62097C74.4937 9.62097 71.9691 9.62097 69.4447 9.62097C69.1949 9.62097 69.2248 9.5937 69.2222 9.84086C69.2222 10.8767 69.2222 11.9125 69.2222 12.9484C69.2222 13.1516 69.2019 13.145 69.417 13.145H75.1109C75.1549 13.145 75.1953 13.145 75.2376 13.145C75.3933 13.145 75.395 13.1472 75.395 13.3042C75.395 14.1348 75.395 14.9658 75.395 15.7973C75.395 15.9864 75.4179 15.9842 75.2099 15.9842H70.0613C69.8264 15.9842 69.5911 15.9842 69.3576 15.9842C69.2301 15.9842 69.2257 15.9882 69.2257 16.1162C69.2257 16.6338 69.2257 17.1519 69.2257 17.6699C69.2257 18.9101 69.2257 20.1506 69.2257 21.3914C69.2257 21.6087 69.2534 21.5933 69.0207 21.5933H65.7822C65.7461 21.5933 65.71 21.5933 65.674 21.5933C65.6049 21.5955 65.5755 21.5629 65.579 21.4948C65.5812 21.4464 65.579 21.3985 65.579 21.3501V14.1072Z" fill="#A2195C"/>
<path d="M79.5006 14.1112C79.5006 11.6962 79.5006 9.28133 79.5006 6.86661C79.5006 6.62561 79.4777 6.65331 79.7117 6.65331H90.9914C91.2113 6.65331 91.1932 6.62736 91.1937 6.85737V9.42309C91.1937 9.45915 91.1937 9.49521 91.1937 9.53128C91.1959 9.59109 91.1704 9.61923 91.1088 9.61923C91.0608 9.61923 91.0125 9.61923 90.9645 9.61923C88.4337 9.61923 85.903 9.61923 83.3725 9.61923C83.1139 9.61923 83.1456 9.58757 83.1451 9.85276C83.1451 10.8824 83.1451 11.9121 83.1451 12.9418C83.1451 13.1556 83.1236 13.1432 83.3527 13.1432H89.1012C89.3466 13.1432 89.318 13.1243 89.318 13.3513C89.318 14.1581 89.318 14.9651 89.318 15.7723C89.318 15.8163 89.318 15.8567 89.318 15.8989C89.318 15.9618 89.2859 15.9834 89.23 15.9821C89.1816 15.9821 89.1333 15.9821 89.0853 15.9821C87.1872 15.9821 85.2891 15.9821 83.391 15.9821C83.1091 15.9821 83.1464 15.957 83.1464 16.2182C83.1464 17.9281 83.1464 19.6383 83.1464 21.3488C83.1464 21.3853 83.1464 21.4213 83.1464 21.4574C83.1429 21.5893 83.1429 21.5893 83.0185 21.5915C82.9041 21.5937 82.7893 21.5915 82.675 21.5915H79.7465C79.7025 21.5915 79.662 21.5893 79.6202 21.5915C79.5384 21.5973 79.494 21.5691 79.5015 21.4794C79.5059 21.4315 79.5015 21.3831 79.5015 21.3351L79.5006 14.1112Z" fill="#A2195C"/>
<path d="M145.098 14.1671V6.95948C145.098 6.92342 145.098 6.88736 145.098 6.8513C145.1 6.70177 145.1 6.70045 145.243 6.69957C145.454 6.69957 145.665 6.69957 145.876 6.69957H148.514C148.558 6.69957 148.599 6.69957 148.641 6.69957C148.71 6.69561 148.741 6.72508 148.738 6.79456C148.736 6.83634 148.738 6.87856 148.738 6.92078C148.738 11.7499 148.738 16.5791 148.738 21.4082C148.738 21.6835 148.759 21.6396 148.51 21.64C147.443 21.64 146.377 21.64 145.311 21.64C145.262 21.64 145.214 21.64 145.166 21.64C145.157 21.6413 145.148 21.6405 145.139 21.6377C145.131 21.6349 145.123 21.6301 145.116 21.6238C145.11 21.6174 145.105 21.6097 145.102 21.6011C145.099 21.5926 145.098 21.5834 145.099 21.5745C145.099 21.5204 145.099 21.4663 145.099 21.4122L145.098 14.1671Z" fill="#0B0B0B"/>
</g>
<defs>
<clipPath id="clip0_3360_4201">
<rect width="163.843" height="23.5" fill="white" transform="translate(0.578125 0.25)"/>
</clipPath>
</defs>
</svg>
