<svg width="147" height="20" viewBox="0 0 147 20" fill="none" xmlns="http://www.w3.org/2000/svg">
<g clip-path="url(#clip0_3357_5245)">
<path d="M127.519 13.9961C127.472 15.4082 126.878 16.7468 125.863 17.73C124.849 18.7131 123.492 19.2639 122.079 19.2663C120.666 19.2686 119.308 18.7223 118.29 17.7426C117.272 16.7628 116.674 15.4261 116.622 14.0142C116.622 13.9931 116.625 13.9721 116.633 13.9525C116.641 13.9328 116.652 13.9149 116.667 13.8998C116.682 13.8847 116.699 13.8727 116.719 13.8646C116.738 13.8564 116.759 13.8522 116.78 13.8522H120.09C120.128 13.8522 120.166 13.8665 120.194 13.8924C120.223 13.9183 120.241 13.9538 120.245 13.9922C120.275 14.3145 120.389 14.6231 120.577 14.8868C120.764 15.1505 121.018 15.3598 121.313 15.4934C121.608 15.6271 121.933 15.6803 122.255 15.6476C122.577 15.615 122.884 15.4977 123.146 15.3076C123.408 15.1175 123.615 14.8615 123.746 14.5655C123.877 14.2695 123.927 13.9442 123.891 13.6226C123.855 13.3009 123.735 12.9945 123.543 12.7344C123.35 12.4743 123.092 12.2698 122.795 12.1417C122.258 11.9025 119.531 10.7009 118.412 9.77942C117.475 9.00661 116.798 7.47718 116.798 5.98778C116.799 4.61568 117.335 3.29796 118.292 2.31506C119.25 1.33217 120.553 0.761703 121.924 0.725072C123.296 0.688441 124.628 1.18854 125.636 2.11893C126.645 3.04932 127.25 4.33656 127.324 5.70668C127.325 5.72788 127.322 5.74904 127.314 5.7689C127.307 5.78875 127.295 5.80688 127.281 5.82219C127.266 5.83751 127.248 5.84969 127.229 5.858C127.209 5.86632 127.188 5.87059 127.167 5.87058H123.888C123.851 5.87082 123.815 5.8578 123.787 5.83386C123.758 5.80991 123.74 5.77663 123.734 5.74003C123.675 5.34504 123.479 4.98361 123.179 4.7201C122.879 4.45659 122.495 4.30812 122.096 4.30113C121.646 4.29831 121.214 4.4729 120.893 4.78694C120.572 5.10099 120.388 5.52911 120.38 5.97825C120.374 6.25294 120.437 6.52481 120.564 6.76856C120.69 7.01232 120.877 7.22003 121.106 7.37236C121.75 7.78212 123.349 8.36625 124.631 9.01328C125.025 9.22271 125.391 9.48178 125.719 9.78418C126.311 10.3105 126.779 10.9609 127.09 11.689C127.401 12.417 127.547 13.2048 127.519 13.9961ZM84.2021 6.26603C84.2291 6.98422 84.1112 7.70048 83.8553 8.37208C83.5994 9.04368 83.2108 9.65685 82.7128 10.175C82.2148 10.6931 81.6174 11.1056 80.9565 11.3879C80.2955 11.6701 79.5845 11.8163 78.8658 11.8177H74.5682V18.6548C74.5682 18.7127 74.5452 18.7682 74.5042 18.8091C74.4633 18.8501 74.4078 18.8731 74.35 18.8731H71.1472C71.1185 18.8732 71.0901 18.8676 71.0636 18.8567C71.037 18.8458 71.0129 18.8297 70.9926 18.8094C70.9723 18.7891 70.9563 18.765 70.9454 18.7385C70.9344 18.712 70.9289 18.6835 70.929 18.6548V1.34425C70.929 1.28637 70.952 1.23087 70.9929 1.18994C71.0338 1.14902 71.0893 1.12603 71.1472 1.12603H78.7324C81.6292 1.12603 84.0954 3.37299 84.2021 6.26603ZM80.5706 6.47186C80.5693 6.01959 80.3895 5.58611 80.0702 5.26577C79.7509 4.94543 79.3181 4.76415 78.8658 4.76139H74.5682V8.18234H78.8658C79.3186 8.18033 79.7522 7.99938 80.0721 7.67896C80.3919 7.35854 80.5722 6.92463 80.5734 6.47186H80.5706ZM19.2374 9.99764C19.2377 11.838 18.6923 13.6372 17.67 15.1676C16.6478 16.698 15.1946 17.8908 13.4944 18.5953C11.7941 19.2997 9.92314 19.484 8.11809 19.125C6.31304 18.766 4.65501 17.8797 3.35372 16.5783C2.05242 15.2769 1.16632 13.6187 0.807479 11.8137C0.448642 10.0086 0.633194 8.13761 1.33779 6.43743C2.04239 4.73724 3.23538 3.2842 4.76587 2.2621C6.29636 1.24 8.09559 0.694748 9.936 0.695313C12.4027 0.698339 14.7675 1.67958 16.5117 3.4238C18.256 5.16803 19.2372 7.53284 19.2402 9.99954L19.2374 9.99764ZM15.5534 9.99764C15.5534 8.88567 15.2237 7.79868 14.6059 6.87412C13.9881 5.94956 13.1101 5.22895 12.0827 4.80342C11.0554 4.37789 9.925 4.26655 8.8344 4.48349C7.7438 4.70042 6.74203 5.23588 5.95575 6.02216C5.16948 6.80843 4.63402 7.81021 4.41708 8.9008C4.20015 9.9914 4.31149 11.1218 4.73702 12.1491C5.16255 13.1765 5.88316 14.0545 6.80772 14.6723C7.73228 15.2901 8.81927 15.6198 9.93123 15.6198C10.6696 15.6202 11.4009 15.4751 12.0832 15.1929C12.7655 14.9106 13.3855 14.4967 13.9079 13.9748C14.4302 13.4529 14.8447 12.8332 15.1275 12.1511C15.4103 11.4691 15.556 10.7379 15.5563 9.99954L15.5534 9.99764ZM108.923 9.99764C108.924 11.8383 108.379 13.6378 107.356 15.1685C106.334 16.6992 104.881 17.8923 103.18 18.5969C101.48 19.3015 99.6086 19.486 97.8033 19.1269C95.998 18.7679 94.3397 17.8815 93.0382 16.5799C91.7367 15.2783 90.8505 13.6199 90.4917 11.8146C90.1328 10.0092 90.3175 8.13797 91.0223 6.43757C91.727 4.73717 92.9203 3.284 94.4511 2.26186C95.9819 1.23973 97.7814 0.694559 99.6221 0.695313C102.089 0.698339 104.454 1.67958 106.198 3.4238C107.942 5.16803 108.923 7.53284 108.926 9.99954L108.923 9.99764ZM105.24 9.99764C105.24 8.88567 104.91 7.79868 104.292 6.87412C103.674 5.94956 102.796 5.22895 101.769 4.80342C100.742 4.37789 99.6111 4.26655 98.5205 4.48349C97.4299 4.70042 96.4281 5.23588 95.6419 6.02216C94.8556 6.80843 94.3201 7.81021 94.1032 8.9008C93.8863 9.9914 93.9976 11.1218 94.4231 12.1491C94.8487 13.1765 95.5693 14.0545 96.4938 14.6723C97.4184 15.2901 98.5054 15.6198 99.6174 15.6198C100.356 15.6202 101.087 15.4751 101.769 15.1929C102.452 14.9106 103.072 14.4967 103.594 13.9748C104.116 13.4529 104.531 12.8332 104.814 12.1511C105.096 11.4691 105.242 10.7379 105.242 9.99954L105.24 9.99764ZM41.7528 1.12603H38.5881C38.5593 1.12552 38.5306 1.13077 38.5038 1.14146C38.477 1.15215 38.4526 1.16808 38.432 1.1883C38.4115 1.20853 38.3951 1.23265 38.384 1.25926C38.3728 1.28587 38.3671 1.31444 38.3671 1.34329V11.73C38.3664 12.2684 38.2565 12.801 38.0439 13.2957C37.8314 13.7903 37.5206 14.2367 37.1304 14.6077C36.7403 14.9786 36.2789 15.2666 35.7742 15.454C35.2695 15.6414 34.732 15.7244 34.1943 15.698C32.0597 15.5922 30.4217 13.7512 30.4217 11.6147V1.33853C30.4217 1.28217 30.3993 1.22812 30.3594 1.18827C30.3196 1.14842 30.2655 1.12603 30.2092 1.12603H27.0388C26.9825 1.12603 26.9284 1.14842 26.8886 1.18827C26.8487 1.22812 26.8264 1.28217 26.8264 1.33853V11.5709C26.8264 15.6913 30.051 19.1789 34.1695 19.3009C35.1823 19.3303 36.1907 19.1564 37.1351 18.7894C38.0796 18.4225 38.9409 17.8699 39.6681 17.1643C40.3953 16.4588 40.9737 15.6146 41.3691 14.6817C41.7644 13.7488 41.9688 12.7461 41.97 11.7329V1.34329C41.97 1.28567 41.9471 1.23041 41.9064 1.18966C41.8656 1.14892 41.8104 1.12603 41.7528 1.12603ZM61.316 1.12603H50.7092C50.6518 1.12603 50.5968 1.14882 50.5562 1.18939C50.5156 1.22995 50.4929 1.28497 50.4929 1.34234V4.54508C50.4929 4.57348 50.4985 4.60161 50.5093 4.62785C50.5202 4.6541 50.5361 4.67794 50.5562 4.69803C50.5763 4.71812 50.6001 4.73405 50.6264 4.74492C50.6526 4.75579 50.6808 4.76139 50.7092 4.76139H54.1949V18.6596C54.1949 18.7162 54.2174 18.7705 54.2574 18.8105C54.2975 18.8506 54.3518 18.8731 54.4084 18.8731H57.6159C57.644 18.8732 57.6718 18.8678 57.6978 18.8571C57.7239 18.8464 57.7475 18.8307 57.7674 18.8109C57.7873 18.791 57.8032 18.7675 57.8139 18.7415C57.8247 18.7155 57.8303 18.6877 57.8303 18.6596V4.76139H61.316C61.3444 4.76139 61.3726 4.75579 61.3988 4.74492C61.425 4.73405 61.4489 4.71812 61.469 4.69803C61.4891 4.67794 61.505 4.6541 61.5159 4.62785C61.5267 4.60161 61.5323 4.57348 61.5323 4.54508V1.34234C61.5323 1.28497 61.5095 1.22995 61.469 1.18939C61.4284 1.14882 61.3734 1.12603 61.316 1.12603ZM146.157 1.12603H135.55C135.493 1.12628 135.438 1.14918 135.397 1.18972C135.357 1.23026 135.334 1.28514 135.334 1.34234V4.54508C135.334 4.57344 135.34 4.60154 135.35 4.62778C135.361 4.65402 135.377 4.67787 135.397 4.69797C135.417 4.71807 135.441 4.73402 135.467 4.7449C135.493 4.75579 135.521 4.76139 135.55 4.76139H139.035V18.6596C139.035 18.6877 139.041 18.7155 139.052 18.7415C139.063 18.7675 139.078 18.791 139.098 18.8109C139.118 18.8307 139.142 18.8464 139.168 18.8571C139.194 18.8678 139.222 18.8732 139.25 18.8731H142.457C142.514 18.8731 142.568 18.8506 142.608 18.8105C142.648 18.7705 142.671 18.7162 142.671 18.6596V4.76139H146.157C146.185 4.76151 146.213 4.756 146.24 4.74518C146.266 4.73435 146.29 4.71842 146.31 4.69831C146.33 4.6782 146.346 4.6543 146.357 4.628C146.368 4.6017 146.373 4.57352 146.373 4.54508V1.34234C146.373 1.28497 146.35 1.22995 146.31 1.18939C146.269 1.14882 146.214 1.12603 146.157 1.12603Z" fill="#0B0B0B"/>
</g>
<defs>
<clipPath id="clip0_3357_5245">
<rect width="145.741" height="18.6094" fill="white" transform="translate(0.628906 0.695312)"/>
</clipPath>
</defs>
</svg>
