<svg width="113" height="61" viewBox="0 0 113 61" fill="none" xmlns="http://www.w3.org/2000/svg">
<g clip-path="url(#clip0_3357_4514)">
<mask id="path-1-inside-1_3357_4514" fill="white">
<path d="M24.9234 60.3991C19.6487 60.3991 15.0491 58.9758 10.9188 56.1609C7.12319 53.6059 4.11497 50.0435 2.23188 45.8736C0.348788 41.7037 -0.334624 37.0914 0.258378 32.5546C0.641815 29.631 1.53556 26.7975 2.89891 24.1829C5.01319 20.1048 8.24596 16.7137 12.2184 14.4069C15.3266 12.5681 18.8019 11.4371 22.397 11.0944C23.5923 10.9599 24.7968 10.9249 25.998 10.9898C26.9854 11.0317 27.9679 11.1515 28.9365 11.348C29.2091 11.4082 29.3105 11.348 29.3074 11.0532C29.2882 8.67464 30.0929 6.36279 31.5849 4.51025C33.0769 2.65772 35.1641 1.37872 37.4921 0.890482C41.0994 0.117026 44.339 0.909502 47.1064 3.36935C49.8737 5.82919 50.9102 9.0403 50.3714 12.7269C50.0551 14.8107 49.2346 16.7858 47.9813 18.4803C47.1666 19.6024 46.4312 20.7753 45.7084 21.9672C45.6358 22.0657 45.5982 22.1857 45.6017 22.308C45.6051 22.4304 45.6494 22.5481 45.7275 22.6424C47.4345 25.346 48.5834 28.3637 49.1066 31.5181C50.1775 37.7648 48.8087 44.1842 45.2829 49.4507C41.7571 54.7173 36.3435 58.4288 30.1601 59.819C28.4421 60.2101 26.6853 60.4047 24.9234 60.3991ZM11.4576 29.7968C11.4457 29.5997 11.4563 29.4019 11.4893 29.2072C11.9268 27.5494 12.9412 26.3987 14.6275 25.9644C16.0065 25.6189 17.2934 26.0658 18.4758 26.7537C19.6582 27.4416 20.5331 28.4433 21.446 29.4069C22.0388 30.0409 22.5903 29.9268 23.107 29.4069C23.7886 28.6858 24.2419 27.7792 24.4099 26.8013C24.5398 26.1483 24.524 26.0817 23.9249 25.8503C23.6705 25.7516 23.4407 25.5985 23.2517 25.4017C23.0626 25.2049 22.9188 24.9692 22.8304 24.7111C22.7419 24.453 22.7109 24.1786 22.7395 23.9072C22.7682 23.6359 22.8557 23.374 22.9961 23.14C23.6079 22.2176 24.4733 21.6216 25.3386 21.0067C26.0188 20.5834 26.6701 20.1153 27.2881 19.6056C27.7858 19.1428 27.7414 18.7687 27.174 18.363C26.4573 17.8942 25.6985 17.4931 24.9075 17.1648C23.9215 16.754 22.983 16.2375 22.1085 15.6242C21.1575 14.911 20.7867 13.9061 21.1575 13.0122C21.3224 12.6255 21.1575 12.6191 20.8786 12.6445C20.8279 12.6445 20.774 12.6445 20.7201 12.6445C19.2443 12.9069 17.7951 13.3016 16.39 13.8237C14.94 14.3817 13.5446 15.0725 12.2216 15.8873C10.823 16.7527 9.52124 17.7654 8.33846 18.9082C6.92957 20.275 5.69456 21.8102 4.66137 23.4792C4.40696 23.789 4.23665 24.1591 4.16687 24.5538C4.13079 25.2114 4.17122 25.8709 4.28732 26.5191C4.50474 27.7631 4.89973 28.9695 5.46019 30.1011C6.04803 31.264 6.77389 32.3517 7.62206 33.3408C8.71568 34.6404 10.2214 35.2427 11.7841 35.6992C12.9076 35.9861 14.0145 36.3342 15.0999 36.7421C15.678 37.0031 16.1559 37.4444 16.4622 37.9999C16.7685 38.5553 16.8866 39.195 16.7989 39.8232C16.6563 40.6981 16.1396 41.2846 15.4993 41.8203C14.9953 42.2419 14.3993 42.543 13.9397 43.0217C13.838 43.102 13.7537 43.2023 13.6922 43.3164C13.6307 43.4305 13.5931 43.556 13.5818 43.6851C13.5705 43.8143 13.5858 43.9443 13.6266 44.0674C13.6674 44.1904 13.733 44.3038 13.8192 44.4006C14.0436 44.6937 14.3278 44.9357 14.6529 45.1106C15.5341 45.659 16.4724 46.1187 17.322 46.7241C18.1715 47.3296 18.4283 48.2805 17.8925 49.2093C17.4963 49.894 17.3473 50.5755 17.7531 51.3363C18.4431 52.5547 18.634 53.9932 18.2856 55.3494C18.2544 55.4666 18.2633 55.5908 18.311 55.7023C18.3587 55.8138 18.4424 55.9061 18.5487 55.9644C19.1161 56.3067 20.1337 56.0056 20.4697 55.4287C20.7228 54.9366 20.9349 54.4245 21.1037 53.8976C21.4334 52.9639 21.9648 52.1143 22.6601 51.4092C23.2794 50.8564 23.9664 50.3845 24.7047 50.005C25.4686 49.5675 26.2896 49.241 27.006 48.7021C27.659 48.2013 28.1313 47.6053 28.0394 46.6987C27.994 46.2695 27.9102 45.8451 27.789 45.4308C27.3202 43.9037 26.3043 42.6034 24.9361 41.7791C23.6364 40.9359 22.1814 40.4128 20.7581 39.8264C19.655 39.3731 18.7548 38.6916 18.2444 37.5567C17.8184 36.5345 17.5604 35.4502 17.4805 34.3456C17.4616 33.7545 17.3657 33.1684 17.1952 32.6022C17.0335 32.1774 16.8782 32.076 16.4502 32.1806C15.8384 32.3327 15.2393 32.5356 14.6212 32.6466C14.0031 32.7575 13.2486 32.8304 12.6876 32.3613C11.9109 31.7051 11.3911 30.8841 11.4576 29.7968ZM48.0098 35.6897C47.9654 35.1444 47.9876 34.5422 47.9432 33.9335C47.8427 32.5712 47.6199 31.2207 47.2775 29.8983C46.7558 27.8553 45.9604 25.8923 44.9128 24.0625C44.7638 23.8057 44.6782 23.7455 44.507 24.0625C43.8192 25.3526 43.1281 26.6428 42.4181 27.9202C42.1518 28.3957 41.9933 28.9473 41.5178 29.2928C41.2092 29.5297 40.8512 29.6942 40.4705 29.7743C40.0897 29.8544 39.6959 29.848 39.3179 29.7556C39.0108 29.705 38.7188 29.5869 38.4628 29.4099C38.2068 29.2328 37.9933 29.0012 37.8376 28.7317C37.3209 27.7396 36.7693 26.7664 36.2526 25.771C36.0878 25.4541 35.9356 25.4541 35.6725 25.6538C34.6046 26.5298 33.3791 27.1936 32.062 27.6096C31.4164 27.8088 30.8405 28.1869 30.401 28.7C30.0538 29.0723 29.7848 29.5104 29.61 29.9885C29.4353 30.4665 29.3582 30.9748 29.3834 31.4832C29.4278 32.1172 29.6053 32.7163 30.3344 32.9826C31.0001 33.2298 31.6563 33.5056 32.2966 33.8163C33.1461 34.2283 33.9132 34.7419 34.3222 35.6643C34.5948 36.2729 34.5314 36.9037 34.5314 37.5314C34.5197 37.7673 34.5596 38.003 34.6483 38.222C34.737 38.441 34.8723 38.638 35.0449 38.7993C35.5619 39.2748 36.1967 39.6031 36.8834 39.7503C37.3974 39.8386 37.9185 39.8778 38.4399 39.8676C39.86 39.9152 41.1121 41.2243 41.3942 42.4035C41.4823 42.6815 41.4882 42.9789 41.4112 43.2602C41.3341 43.5414 41.1774 43.7943 40.9599 43.9885C40.6433 44.285 40.2883 44.5377 39.9044 44.7397C39.1436 45.1138 38.6364 45.6558 38.6364 46.5751C38.6264 46.6806 38.6573 46.7858 38.7228 46.869C38.7883 46.9523 38.8834 47.0071 38.9882 47.0221C39.3819 47.1424 39.7597 47.3095 40.1136 47.5198C40.4346 47.6676 40.6915 47.9263 40.8371 48.2483C40.9826 48.5703 41.0071 48.9341 40.906 49.2727C40.7951 49.8306 40.5732 50.3536 40.4401 50.902C40.3754 51.1147 40.3597 51.3393 40.3943 51.559C40.4289 51.7786 40.5128 51.9875 40.6398 52.17C40.8204 52.4204 40.9568 52.468 41.223 52.208C42.3764 51.0349 43.4077 49.7476 44.301 48.3661C45.1376 47.0731 45.8457 45.7014 46.4153 44.2706C47.4912 41.5389 48.0304 38.6255 48.0034 35.6897H48.0098ZM39.524 1.83511C38.7105 1.83654 37.9029 1.97257 37.1339 2.23769C35.3127 2.77505 33.6977 3.85283 32.5026 5.32835C31.3596 6.70875 30.6778 8.41261 30.5531 10.2005C30.4265 12.1844 30.8383 14.1657 31.745 15.9348C32.3505 17.1743 33.219 18.2394 33.964 19.39C35.7454 22.1637 37.2828 25.08 38.8424 27.9805C38.9421 28.1677 39.0932 28.3224 39.2781 28.4263C39.4629 28.5302 39.6736 28.579 39.8853 28.5669C40.0967 28.5922 40.3108 28.5546 40.5008 28.4587C40.6909 28.3629 40.8484 28.213 40.9536 28.028C41.1755 27.6064 41.3942 27.188 41.6224 26.7601C42.3864 25.3748 43.1472 23.9896 43.927 22.6138C44.7067 21.2381 45.4739 19.9416 46.3709 18.6736C47.1093 17.6967 47.7465 16.6474 48.2729 15.5418C49.1059 13.7257 49.4281 11.7169 49.2048 9.73134C48.9969 7.93057 48.2092 6.24619 46.9606 4.93211C45.084 2.86533 42.697 1.87315 39.524 1.83511Z"/>
</mask>
<path d="M24.9234 60.3991C19.6487 60.3991 15.0491 58.9758 10.9188 56.1609C7.12319 53.6059 4.11497 50.0435 2.23188 45.8736C0.348788 41.7037 -0.334624 37.0914 0.258378 32.5546C0.641815 29.631 1.53556 26.7975 2.89891 24.1829C5.01319 20.1048 8.24596 16.7137 12.2184 14.4069C15.3266 12.5681 18.8019 11.4371 22.397 11.0944C23.5923 10.9599 24.7968 10.9249 25.998 10.9898C26.9854 11.0317 27.9679 11.1515 28.9365 11.348C29.2091 11.4082 29.3105 11.348 29.3074 11.0532C29.2882 8.67464 30.0929 6.36279 31.5849 4.51025C33.0769 2.65772 35.1641 1.37872 37.4921 0.890482C41.0994 0.117026 44.339 0.909502 47.1064 3.36935C49.8737 5.82919 50.9102 9.0403 50.3714 12.7269C50.0551 14.8107 49.2346 16.7858 47.9813 18.4803C47.1666 19.6024 46.4312 20.7753 45.7084 21.9672C45.6358 22.0657 45.5982 22.1857 45.6017 22.308C45.6051 22.4304 45.6494 22.5481 45.7275 22.6424C47.4345 25.346 48.5834 28.3637 49.1066 31.5181C50.1775 37.7648 48.8087 44.1842 45.2829 49.4507C41.7571 54.7173 36.3435 58.4288 30.1601 59.819C28.4421 60.2101 26.6853 60.4047 24.9234 60.3991ZM11.4576 29.7968C11.4457 29.5997 11.4563 29.4019 11.4893 29.2072C11.9268 27.5494 12.9412 26.3987 14.6275 25.9644C16.0065 25.6189 17.2934 26.0658 18.4758 26.7537C19.6582 27.4416 20.5331 28.4433 21.446 29.4069C22.0388 30.0409 22.5903 29.9268 23.107 29.4069C23.7886 28.6858 24.2419 27.7792 24.4099 26.8013C24.5398 26.1483 24.524 26.0817 23.9249 25.8503C23.6705 25.7516 23.4407 25.5985 23.2517 25.4017C23.0626 25.2049 22.9188 24.9692 22.8304 24.7111C22.7419 24.453 22.7109 24.1786 22.7395 23.9072C22.7682 23.6359 22.8557 23.374 22.9961 23.14C23.6079 22.2176 24.4733 21.6216 25.3386 21.0067C26.0188 20.5834 26.6701 20.1153 27.2881 19.6056C27.7858 19.1428 27.7414 18.7687 27.174 18.363C26.4573 17.8942 25.6985 17.4931 24.9075 17.1648C23.9215 16.754 22.983 16.2375 22.1085 15.6242C21.1575 14.911 20.7867 13.9061 21.1575 13.0122C21.3224 12.6255 21.1575 12.6191 20.8786 12.6445C20.8279 12.6445 20.774 12.6445 20.7201 12.6445C19.2443 12.9069 17.7951 13.3016 16.39 13.8237C14.94 14.3817 13.5446 15.0725 12.2216 15.8873C10.823 16.7527 9.52124 17.7654 8.33846 18.9082C6.92957 20.275 5.69456 21.8102 4.66137 23.4792C4.40696 23.789 4.23665 24.1591 4.16687 24.5538C4.13079 25.2114 4.17122 25.8709 4.28732 26.5191C4.50474 27.7631 4.89973 28.9695 5.46019 30.1011C6.04803 31.264 6.77389 32.3517 7.62206 33.3408C8.71568 34.6404 10.2214 35.2427 11.7841 35.6992C12.9076 35.9861 14.0145 36.3342 15.0999 36.7421C15.678 37.0031 16.1559 37.4444 16.4622 37.9999C16.7685 38.5553 16.8866 39.195 16.7989 39.8232C16.6563 40.6981 16.1396 41.2846 15.4993 41.8203C14.9953 42.2419 14.3993 42.543 13.9397 43.0217C13.838 43.102 13.7537 43.2023 13.6922 43.3164C13.6307 43.4305 13.5931 43.556 13.5818 43.6851C13.5705 43.8143 13.5858 43.9443 13.6266 44.0674C13.6674 44.1904 13.733 44.3038 13.8192 44.4006C14.0436 44.6937 14.3278 44.9357 14.6529 45.1106C15.5341 45.659 16.4724 46.1187 17.322 46.7241C18.1715 47.3296 18.4283 48.2805 17.8925 49.2093C17.4963 49.894 17.3473 50.5755 17.7531 51.3363C18.4431 52.5547 18.634 53.9932 18.2856 55.3494C18.2544 55.4666 18.2633 55.5908 18.311 55.7023C18.3587 55.8138 18.4424 55.9061 18.5487 55.9644C19.1161 56.3067 20.1337 56.0056 20.4697 55.4287C20.7228 54.9366 20.9349 54.4245 21.1037 53.8976C21.4334 52.9639 21.9648 52.1143 22.6601 51.4092C23.2794 50.8564 23.9664 50.3845 24.7047 50.005C25.4686 49.5675 26.2896 49.241 27.006 48.7021C27.659 48.2013 28.1313 47.6053 28.0394 46.6987C27.994 46.2695 27.9102 45.8451 27.789 45.4308C27.3202 43.9037 26.3043 42.6034 24.9361 41.7791C23.6364 40.9359 22.1814 40.4128 20.7581 39.8264C19.655 39.3731 18.7548 38.6916 18.2444 37.5567C17.8184 36.5345 17.5604 35.4502 17.4805 34.3456C17.4616 33.7545 17.3657 33.1684 17.1952 32.6022C17.0335 32.1774 16.8782 32.076 16.4502 32.1806C15.8384 32.3327 15.2393 32.5356 14.6212 32.6466C14.0031 32.7575 13.2486 32.8304 12.6876 32.3613C11.9109 31.7051 11.3911 30.8841 11.4576 29.7968ZM48.0098 35.6897C47.9654 35.1444 47.9876 34.5422 47.9432 33.9335C47.8427 32.5712 47.6199 31.2207 47.2775 29.8983C46.7558 27.8553 45.9604 25.8923 44.9128 24.0625C44.7638 23.8057 44.6782 23.7455 44.507 24.0625C43.8192 25.3526 43.1281 26.6428 42.4181 27.9202C42.1518 28.3957 41.9933 28.9473 41.5178 29.2928C41.2092 29.5297 40.8512 29.6942 40.4705 29.7743C40.0897 29.8544 39.6959 29.848 39.3179 29.7556C39.0108 29.705 38.7188 29.5869 38.4628 29.4099C38.2068 29.2328 37.9933 29.0012 37.8376 28.7317C37.3209 27.7396 36.7693 26.7664 36.2526 25.771C36.0878 25.4541 35.9356 25.4541 35.6725 25.6538C34.6046 26.5298 33.3791 27.1936 32.062 27.6096C31.4164 27.8088 30.8405 28.1869 30.401 28.7C30.0538 29.0723 29.7848 29.5104 29.61 29.9885C29.4353 30.4665 29.3582 30.9748 29.3834 31.4832C29.4278 32.1172 29.6053 32.7163 30.3344 32.9826C31.0001 33.2298 31.6563 33.5056 32.2966 33.8163C33.1461 34.2283 33.9132 34.7419 34.3222 35.6643C34.5948 36.2729 34.5314 36.9037 34.5314 37.5314C34.5197 37.7673 34.5596 38.003 34.6483 38.222C34.737 38.441 34.8723 38.638 35.0449 38.7993C35.5619 39.2748 36.1967 39.6031 36.8834 39.7503C37.3974 39.8386 37.9185 39.8778 38.4399 39.8676C39.86 39.9152 41.1121 41.2243 41.3942 42.4035C41.4823 42.6815 41.4882 42.9789 41.4112 43.2602C41.3341 43.5414 41.1774 43.7943 40.9599 43.9885C40.6433 44.285 40.2883 44.5377 39.9044 44.7397C39.1436 45.1138 38.6364 45.6558 38.6364 46.5751C38.6264 46.6806 38.6573 46.7858 38.7228 46.869C38.7883 46.9523 38.8834 47.0071 38.9882 47.0221C39.3819 47.1424 39.7597 47.3095 40.1136 47.5198C40.4346 47.6676 40.6915 47.9263 40.8371 48.2483C40.9826 48.5703 41.0071 48.9341 40.906 49.2727C40.7951 49.8306 40.5732 50.3536 40.4401 50.902C40.3754 51.1147 40.3597 51.3393 40.3943 51.559C40.4289 51.7786 40.5128 51.9875 40.6398 52.17C40.8204 52.4204 40.9568 52.468 41.223 52.208C42.3764 51.0349 43.4077 49.7476 44.301 48.3661C45.1376 47.0731 45.8457 45.7014 46.4153 44.2706C47.4912 41.5389 48.0304 38.6255 48.0034 35.6897H48.0098ZM39.524 1.83511C38.7105 1.83654 37.9029 1.97257 37.1339 2.23769C35.3127 2.77505 33.6977 3.85283 32.5026 5.32835C31.3596 6.70875 30.6778 8.41261 30.5531 10.2005C30.4265 12.1844 30.8383 14.1657 31.745 15.9348C32.3505 17.1743 33.219 18.2394 33.964 19.39C35.7454 22.1637 37.2828 25.08 38.8424 27.9805C38.9421 28.1677 39.0932 28.3224 39.2781 28.4263C39.4629 28.5302 39.6736 28.579 39.8853 28.5669C40.0967 28.5922 40.3108 28.5546 40.5008 28.4587C40.6909 28.3629 40.8484 28.213 40.9536 28.028C41.1755 27.6064 41.3942 27.188 41.6224 26.7601C42.3864 25.3748 43.1472 23.9896 43.927 22.6138C44.7067 21.2381 45.4739 19.9416 46.3709 18.6736C47.1093 17.6967 47.7465 16.6474 48.2729 15.5418C49.1059 13.7257 49.4281 11.7169 49.2048 9.73134C48.9969 7.93057 48.2092 6.24619 46.9606 4.93211C45.084 2.86533 42.697 1.87315 39.524 1.83511Z" fill="#407B6C" stroke="#407B6C" stroke-width="1.84502" mask="url(#path-1-inside-1_3357_4514)"/>
<circle cx="24.8898" cy="35.753" r="23.1124" fill="#00637E"/>
<path d="M71.9177 21.5812C72.0125 21.2826 72.1951 21.0195 72.4416 20.8261C72.6881 20.6327 72.9872 20.5181 73.2998 20.4971C73.928 20.3851 74.5756 20.4843 75.1415 20.7792C75.439 20.9301 75.6826 21.1692 75.8389 21.4639C75.9815 21.7461 76.0766 21.7397 76.2636 21.4893C76.5687 21.0319 77.0227 20.6942 77.5486 20.5336C78.0744 20.3729 78.6396 20.3992 79.1482 20.6081C79.5512 20.7305 79.9051 20.9775 80.1591 21.3134C80.413 21.6494 80.5541 22.0572 80.562 22.4783C80.6476 23.6131 80.5874 24.7511 80.6001 25.886C80.6001 26.3868 80.6001 26.8876 80.6001 27.3885C80.6001 27.5945 80.5398 27.6674 80.3306 27.6643C79.8425 27.6643 79.3543 27.6453 78.8661 27.6643C78.584 27.6643 78.5111 27.5755 78.5143 27.3029C78.5143 26.0761 78.5143 24.8494 78.5143 23.6195C78.5259 23.2993 78.4917 22.9791 78.4128 22.6685C78.3574 22.4581 78.2378 22.2702 78.0706 22.131C77.9034 21.9918 77.697 21.9081 77.4801 21.8917C77.2631 21.8754 77.0465 21.927 76.8602 22.0395C76.674 22.1521 76.5275 22.3198 76.4412 22.5195C76.2866 22.8711 76.2078 23.2513 76.2098 23.6353C76.2098 24.8494 76.2098 26.0635 76.2098 27.2775C76.2098 27.5755 76.1273 27.6706 75.8325 27.6548C75.3729 27.6326 74.9101 27.6548 74.4473 27.6548C74.2032 27.6548 74.1303 27.5819 74.1303 27.3378C74.1303 26.1364 74.1303 24.935 74.1303 23.7336C74.1379 23.3627 74.0942 22.9925 74.0003 22.6336C73.9539 22.4328 73.8435 22.2525 73.6857 22.1198C73.5279 21.9872 73.3313 21.9094 73.1254 21.8982C72.9089 21.8608 72.6862 21.8978 72.4934 22.0032C72.3005 22.1085 72.1491 22.2759 72.0635 22.4783C71.8984 22.8391 71.8161 23.2323 71.8226 23.629C71.8226 24.8431 71.8068 26.0571 71.8226 27.2712C71.8226 27.5692 71.7434 27.6674 71.4454 27.6548C70.9731 27.6326 70.4944 27.6548 70.0221 27.6548C69.7939 27.6548 69.7305 27.5755 69.7305 27.3568C69.7305 25.2182 69.7305 23.0785 69.7305 20.9377C69.7305 20.7222 69.7907 20.6207 70.0221 20.6398C70.4944 20.6556 70.9731 20.662 71.4454 20.6398C71.7624 20.6398 71.8543 20.7222 71.8194 21.0202C71.8099 21.1891 71.8099 21.3584 71.8194 21.5273L71.9177 21.5812Z" fill="#407B6C"/>
<path d="M95.7787 41.5689C95.896 41.4864 95.9499 41.4642 95.9689 41.4262C96.4158 40.4752 97.2685 40.4404 98.1276 40.5006C98.4672 40.5046 98.8001 40.5963 99.0939 40.7668C99.3877 40.9373 99.6325 41.1808 99.8045 41.4738C99.9788 41.7907 100.083 41.7242 100.264 41.4738C100.565 41.0308 101.007 40.703 101.519 40.5441C102.03 40.3851 102.58 40.4045 103.079 40.5989C103.497 40.7119 103.865 40.9596 104.128 41.3034C104.39 41.6473 104.532 42.0682 104.531 42.5008C104.578 44.1365 104.559 45.7753 104.572 47.411C104.572 47.6139 104.48 47.6487 104.306 47.6456C103.805 47.6456 103.304 47.6456 102.803 47.6456C102.543 47.6456 102.486 47.5441 102.486 47.3286C102.486 46.1399 102.486 44.9511 102.486 43.7656C102.5 43.3821 102.457 42.9987 102.359 42.6276C102.317 42.4385 102.216 42.2677 102.071 42.1395C101.926 42.0114 101.744 41.9325 101.551 41.9144C101.343 41.8666 101.126 41.8877 100.931 41.9747C100.737 42.0616 100.576 42.2096 100.473 42.3962C100.272 42.7697 100.171 43.1892 100.182 43.6134C100.182 44.8275 100.163 46.0416 100.182 47.2557C100.182 47.5727 100.106 47.6773 99.7886 47.6582C99.3399 47.6313 98.8901 47.6313 98.4414 47.6582C98.1529 47.6582 98.0927 47.56 98.0927 47.2937C98.0927 46.0669 98.0927 44.837 98.0927 43.6103C98.0975 43.3064 98.0656 43.0031 97.9976 42.7069C97.9608 42.4967 97.8558 42.3046 97.6988 42.1602C97.5418 42.0158 97.3415 41.9271 97.1291 41.908C96.8979 41.8618 96.6578 41.9004 96.4529 42.0168C96.2479 42.1333 96.0918 42.3198 96.0132 42.542C95.8272 43.0366 95.7462 43.5645 95.7755 44.0921C95.7755 45.135 95.7533 46.1811 95.7755 47.2208C95.7755 47.6012 95.6582 47.6931 95.3064 47.6709C94.8753 47.6424 94.4378 47.6709 94.0004 47.6709C93.788 47.6709 93.6992 47.6234 93.6992 47.3856C93.6992 45.2364 93.6992 43.0841 93.6992 40.9317C93.6992 40.7605 93.7246 40.6591 93.9306 40.6623C94.4568 40.6623 94.9862 40.6623 95.5156 40.6623C95.6994 40.6623 95.7755 40.7352 95.766 40.919C95.7565 41.1029 95.7787 41.3089 95.7787 41.5689Z" fill="#659833"/>
<path d="M59.1452 23.33C59.9947 23.7485 60.2737 24.468 60.3846 25.3334C60.4797 26.0625 60.5558 26.8043 60.9521 27.4573C61.0535 27.6253 60.9521 27.6665 60.8031 27.6665C60.2103 27.6665 59.6144 27.6665 59.0216 27.6665C58.7965 27.6665 58.7617 27.5238 58.7046 27.3748C58.5401 26.8592 58.4286 26.3281 58.3718 25.7899C58.3435 25.4616 58.2611 25.1402 58.1277 24.8389C58.0534 24.6267 57.9149 24.4428 57.7315 24.3127C57.548 24.1827 57.3287 24.1129 57.1038 24.113C56.7329 24.113 56.362 24.113 55.9943 24.113C55.7312 24.113 55.6583 24.1923 55.6615 24.449C55.6615 25.4 55.6615 26.351 55.6615 27.3019C55.6615 27.6189 55.5854 27.695 55.2874 27.6791C54.8246 27.657 54.3618 27.6791 53.899 27.6791C53.674 27.6791 53.582 27.6348 53.582 27.3622C53.582 24.5388 53.582 21.7134 53.582 18.8858C53.582 18.7083 53.582 18.5688 53.8293 18.5879C55.4142 18.6322 57.0245 18.4959 58.619 18.6893C60.2895 18.8922 61.2088 20.3408 60.6604 21.9099C60.5509 22.1941 60.3832 22.4522 60.1681 22.6678C59.9531 22.8835 59.6954 23.0518 59.4115 23.162C59.3386 23.1969 59.2657 23.2223 59.1959 23.254C59.1864 23.254 59.1832 23.2698 59.1452 23.33ZM55.6583 21.3647C55.6583 21.6817 55.6583 21.9987 55.6583 22.3157C55.6583 22.4615 55.6742 22.5788 55.8644 22.5724C56.4571 22.5724 57.0531 22.5724 57.6427 22.5281C57.7856 22.5204 57.9255 22.4844 58.0543 22.4219C58.1831 22.3595 58.2981 22.272 58.3926 22.1645C58.487 22.057 58.5591 21.9317 58.6045 21.796C58.6499 21.6603 58.6678 21.5169 58.657 21.3742C58.657 20.7149 58.2988 20.3313 57.592 20.2394C57.0406 20.1929 56.4873 20.175 55.9341 20.1855C55.7312 20.1855 55.6488 20.2489 55.6583 20.4581C55.671 20.7561 55.6647 21.0604 55.6647 21.3647H55.6583Z" fill="#407B6C"/>
<path d="M84.4381 42.8617C84.4381 44.3389 84.4381 45.8192 84.4381 47.2995C84.4381 47.5848 84.3811 47.7021 84.0704 47.6863C83.6108 47.6609 83.148 47.6641 82.6852 47.6863C82.4252 47.6863 82.3238 47.6165 82.3523 47.3693C82.3618 47.2511 82.3618 47.1324 82.3523 47.0142C82.3523 46.9635 82.3523 46.9065 82.2763 46.8938C82.2002 46.8811 82.1843 46.9255 82.1558 46.9667C81.3823 48.0888 80.2539 47.9874 79.1602 47.7465C78.0064 47.4929 77.3566 46.637 77.0935 45.5276C76.7575 44.117 76.8874 42.7634 77.8416 41.5969C78.7957 40.4304 80.4758 40.2528 81.7532 40.8044C81.8862 40.87 81.9966 40.9737 82.0702 41.1024C82.1273 41.1848 82.1558 41.3338 82.2763 41.3053C82.3967 41.2767 82.3682 41.1056 82.3682 40.9883C82.3682 40.1324 82.3872 39.2733 82.3682 38.4143C82.3682 38.0973 82.4696 38.0054 82.7739 38.0212C83.2089 38.045 83.6449 38.045 84.0799 38.0212C84.3779 38.0212 84.4635 38.1037 84.4603 38.4016C84.4318 39.8788 84.4381 41.3687 84.4381 42.8617ZM82.365 44.1296C82.392 43.6977 82.3249 43.2652 82.1685 42.8617C82.081 42.6108 81.924 42.39 81.7157 42.225C81.5075 42.06 81.2567 41.9576 80.9924 41.9297C80.7179 41.8791 80.4346 41.9063 80.1747 42.0082C79.9147 42.1102 79.6885 42.2828 79.5216 42.5066C78.8876 43.315 78.9067 45.0204 79.5216 45.835C79.69 46.0669 79.9228 46.2442 80.191 46.345C80.4592 46.4459 80.751 46.4659 81.0305 46.4025C81.2931 46.3638 81.5393 46.2511 81.7403 46.0777C81.9413 45.9042 82.0887 45.6771 82.1653 45.423C82.3114 45.0134 82.3791 44.5801 82.365 44.1455V44.1296Z" fill="#659833"/>
<path d="M57.1533 38.5985C57.4703 38.5985 57.7619 38.6207 58.0631 38.5985C58.3642 38.5763 58.4815 38.6968 58.5734 38.9567C59.5117 41.6131 60.4542 44.2695 61.401 46.9258C61.6672 47.6803 61.6704 47.6803 60.8558 47.6803H60.1425C59.4198 47.6803 59.4198 47.6803 59.1916 46.9702C59.0299 46.4535 58.846 45.9463 58.7002 45.4265C58.6941 45.3774 58.678 45.33 58.6531 45.2872C58.6282 45.2445 58.595 45.2072 58.5553 45.1776C58.5156 45.148 58.4704 45.1267 58.4223 45.115C58.3742 45.1033 58.3243 45.1014 58.2755 45.1095C57.4957 45.1095 56.7159 45.1095 55.9392 45.1095C55.8481 45.0978 55.756 45.1225 55.683 45.1783C55.61 45.2341 55.562 45.3164 55.5493 45.4075C55.3528 46.0414 55.1277 46.6754 54.9154 47.3094C54.8424 47.5503 54.7442 47.6834 54.4525 47.6644C53.9263 47.6359 53.397 47.6644 52.8676 47.6644C52.6425 47.6644 52.6013 47.6169 52.6837 47.3918C53.7171 44.5452 54.7442 41.6923 55.7649 38.8331C55.7832 38.7492 55.8327 38.6755 55.9033 38.6266C55.9739 38.5778 56.0603 38.5576 56.1453 38.57C56.494 38.608 56.8236 38.5985 57.1533 38.5985ZM57.1818 40.5607H57.0836C56.7919 41.4831 56.4971 42.4024 56.2087 43.328C56.1548 43.4992 56.2943 43.4865 56.3957 43.4865C56.868 43.4865 57.3467 43.4865 57.819 43.4865C58.0504 43.4865 58.0821 43.4104 58.0092 43.2012C57.8919 42.8842 57.8031 42.5514 57.6922 42.2249C57.5274 41.6712 57.3572 41.1165 57.1818 40.5607Z" fill="#659833"/>
<path d="M54.0787 34.9373C54.1843 34.9437 54.2901 34.9437 54.3957 34.9373C54.5811 34.8878 54.7785 34.9138 54.9448 35.0094C55.1111 35.105 55.2328 35.2626 55.2833 35.4477C55.6478 36.2845 56.9094 36.5762 57.6861 36.0817C57.8212 35.9974 57.9335 35.8813 58.0132 35.7433C58.0928 35.6054 58.1372 35.45 58.1425 35.2909C58.1478 35.1317 58.1139 34.9737 58.0437 34.8308C57.9735 34.6879 57.8692 34.5644 57.74 34.4714C57.4284 34.2481 57.0746 34.0907 56.7002 34.0086C56.0479 33.8571 55.4111 33.6448 54.7983 33.3746C54.394 33.189 54.0469 32.8983 53.7933 32.5328C53.5397 32.1674 53.3888 31.7405 53.3564 31.2969C53.324 30.8532 53.4113 30.409 53.6092 30.0105C53.8071 29.6121 54.1082 29.2741 54.4813 29.0318C55.7873 28.1316 58.0189 28.2203 59.1569 29.2252C59.6812 29.7181 60.0174 30.3783 60.1079 31.0922C60.1364 31.2476 60.0857 31.3141 59.9304 31.3141C59.3756 31.3141 58.8209 31.3141 58.2662 31.3141C57.9967 31.3141 58.0379 31.0954 57.9904 30.9528C57.9376 30.7667 57.847 30.5936 57.7243 30.4441C57.6015 30.2947 57.4492 30.1723 57.2768 30.0845C57.1045 29.9967 56.916 29.9455 56.7229 29.934C56.5299 29.9225 56.3365 29.9509 56.155 30.0176C56.0076 30.0552 55.8746 30.1354 55.7726 30.2481C55.6705 30.3609 55.604 30.5012 55.5813 30.6516C55.5331 30.8314 55.5374 31.0213 55.5935 31.1987C55.6497 31.3762 55.7554 31.5339 55.8982 31.6533C56.3134 31.9376 56.7829 32.1329 57.2772 32.2271C58.0573 32.3803 58.7936 32.7051 59.4327 33.178C59.713 33.4184 59.9374 33.717 60.0902 34.0531C60.2431 34.3892 60.3207 34.7546 60.3177 35.1238C60.3147 35.493 60.2311 35.8571 60.0728 36.1906C59.9144 36.5242 59.6852 36.8191 59.401 37.0548C58.4278 37.8093 57.3025 37.9234 56.1296 37.8061C55.4946 37.7613 54.879 37.568 54.3323 37.2419C53.9859 37.0241 53.6924 36.7318 53.4731 36.3864C53.2537 36.0409 53.1141 35.651 53.0644 35.2448C53.0295 35.0134 53.0834 34.9278 53.3179 34.9278C53.5525 34.9278 53.8156 34.9373 54.0787 34.9373Z" fill="#407B6C"/>
<path d="M68.5453 37.6682C67.6862 37.6682 66.9318 37.6682 66.1805 37.6682C65.9681 37.6682 65.8794 37.535 65.7779 37.4019C65.2834 36.7679 64.7953 36.0927 64.2912 35.4492C64.1771 35.3098 64.1042 34.9959 63.895 35.091C63.7596 35.1468 63.6425 35.2392 63.5568 35.3579C63.4711 35.4767 63.4202 35.617 63.41 35.763C63.41 36.2671 63.391 36.7679 63.41 37.2688C63.4259 37.5857 63.3434 37.6935 63.0201 37.6713C62.5732 37.6428 62.1199 37.6523 61.6729 37.6713C61.4257 37.6713 61.3242 37.6174 61.3242 37.3543C61.3242 34.3556 61.3242 31.3579 61.3242 28.3613C61.3242 28.0887 61.4035 27.9778 61.6856 27.9904C62.1325 28.0095 62.5827 28.0126 63.0328 27.9904C63.3308 27.9714 63.4132 28.076 63.41 28.3708C63.41 29.9273 63.41 31.4868 63.41 33.0433C63.41 33.1352 63.41 33.2303 63.41 33.3222C63.41 33.4141 63.41 33.4934 63.4956 33.5219C63.5812 33.5505 63.6351 33.468 63.6858 33.411L64.9538 31.9465C65.183 31.7107 65.3949 31.4585 65.5877 31.192C65.7063 30.9958 65.8815 30.8399 66.0902 30.7448C66.2989 30.6498 66.5315 30.6201 66.7574 30.6595C67.29 30.7007 67.832 30.6595 68.3646 30.6595C68.4121 30.8275 68.2917 30.8782 68.2283 30.948C67.3978 31.8355 66.5704 32.7263 65.7272 33.598C65.6801 33.6314 65.6413 33.6753 65.614 33.7261C65.5867 33.777 65.5715 33.8335 65.5696 33.8913C65.5678 33.949 65.5794 34.0063 65.6034 34.0589C65.6274 34.1114 65.6633 34.1576 65.7082 34.1939C66.5197 35.1671 67.3153 36.1529 68.1173 37.1356L68.5453 37.6682Z" fill="#407B6C"/>
<path d="M66.1061 24.6976C65.3929 24.6976 64.6796 24.6976 63.9664 24.6976C63.7287 24.6976 63.6494 24.7642 63.6716 25.0146C63.7794 26.1019 64.6796 26.6915 65.6718 26.3111C65.8276 26.2545 65.9686 26.1636 66.0844 26.0451C66.2002 25.9265 66.2878 25.7834 66.3407 25.6264C66.3977 25.4679 66.4548 25.3538 66.6577 25.3601C67.1585 25.3791 67.6625 25.3601 68.1634 25.3601C68.4455 25.3601 68.4201 25.4837 68.3599 25.6771C67.989 26.888 66.9144 27.6868 65.4626 27.8263C62.9996 28.0609 61.3703 26.3777 61.5668 23.8322C61.7728 21.1283 64.258 19.9047 66.515 20.7004C67.8749 21.1758 68.8988 23.1127 68.5596 24.5042C68.5057 24.7325 68.3504 24.704 68.1982 24.704C67.504 24.6976 66.8035 24.6976 66.1061 24.6976ZM65.0315 23.3694H66.1758C66.3026 23.3694 66.3977 23.3694 66.3977 23.1824C66.3812 22.8673 66.2548 22.568 66.0405 22.3364C65.8263 22.1048 65.5377 21.9555 65.2249 21.9144C64.2581 21.8384 63.8999 22.4977 63.716 23.1665C63.6589 23.3631 63.7731 23.3853 63.9252 23.3853L65.0315 23.3694Z" fill="#407B6C"/>
<path d="M92.4155 45.3792C92.3214 45.9542 92.0534 46.4867 91.6476 46.9049C91.2419 47.3231 90.7178 47.6071 90.1458 47.7185C88.7859 48.0355 87.5053 47.8929 86.4814 46.8373C85.3529 45.674 85.2547 43.3504 86.2373 41.9271C87.1313 40.6243 89.0491 40.0886 90.5991 40.7574C91.9527 41.3375 92.5233 42.4692 92.5771 43.8766C92.6152 44.9195 92.6374 44.7008 91.7815 44.7103C90.5262 44.723 89.272 44.723 88.0188 44.7103C87.7018 44.7103 87.6448 44.8339 87.7018 45.1097C87.8698 46.1716 88.7479 46.6947 89.6957 46.327C89.8566 46.2652 90.0015 46.1683 90.12 46.0432C90.2385 45.9182 90.3275 45.7682 90.3804 45.6042C90.4311 45.4616 90.4818 45.3792 90.6467 45.3792C91.2268 45.3823 91.8195 45.3792 92.4155 45.3792ZM89.0427 43.398C89.4263 43.398 89.8067 43.398 90.1902 43.398C90.3646 43.398 90.4089 43.3314 90.3994 43.1602C90.3934 42.9776 90.3488 42.7982 90.2685 42.634C90.1883 42.4698 90.0742 42.3244 89.9338 42.2073C89.7935 42.0903 89.6299 42.0043 89.4539 41.9549C89.278 41.9055 89.0935 41.8939 88.9127 41.9208C88.3073 42 87.892 42.447 87.7399 43.1444C87.6955 43.3473 87.7399 43.4011 87.9364 43.398C88.3041 43.398 88.675 43.398 89.0427 43.398Z" fill="#659833"/>
<path d="M99.151 24.6944H97.0461C96.8845 24.6944 96.7292 24.6944 96.7292 24.9322C96.7231 25.1616 96.7714 25.3891 96.8703 25.5962C96.9691 25.8033 97.1156 25.984 97.2978 26.1235C97.48 26.263 97.6927 26.3573 97.9184 26.3988C98.1441 26.4402 98.3764 26.4275 98.5962 26.3618C98.7826 26.3253 98.9558 26.2396 99.0979 26.1137C99.2401 25.9877 99.3459 25.826 99.4046 25.6454C99.4838 25.3855 99.6296 25.3284 99.8705 25.3284C100.306 25.3522 100.742 25.3522 101.177 25.3284C101.535 25.3031 101.538 25.4457 101.436 25.7152C100.936 27.0402 99.9181 27.652 98.5645 27.7978C96.3139 28.0419 94.7194 26.6313 94.6624 24.3679C94.6212 22.783 95.1474 21.4897 96.6404 20.7986C97.8893 20.2154 99.1763 20.2471 100.321 21.0871C101.465 21.9271 101.728 23.1063 101.652 24.4282C101.652 24.6659 101.497 24.6659 101.335 24.6659L99.151 24.6944ZM98.1493 23.3789H99.2651C99.3855 23.3789 99.4933 23.3789 99.4933 23.1982C99.4851 22.8718 99.3566 22.56 99.1325 22.3224C98.9085 22.0849 98.6046 21.9385 98.2792 21.9113C97.9251 21.8846 97.5745 21.9973 97.3022 22.2252C97.0299 22.4532 96.8573 22.7784 96.8211 23.1317C96.783 23.3472 96.8718 23.3821 97.0461 23.3821C97.4107 23.3631 97.7784 23.3663 98.1493 23.3663V23.3789Z" fill="#407B6C"/>
<path d="M109.229 45.9051C109.701 44.2948 110.18 42.7035 110.627 41.1059C110.722 40.7889 110.858 40.6336 111.22 40.6589C111.72 40.697 112.224 40.6589 112.725 40.6589C112.893 40.6589 113.017 40.6589 112.925 40.8998C111.857 43.5372 110.956 46.2475 109.736 48.8246C109.067 50.232 108.151 50.5459 106.436 50.3874C106.29 50.3874 106.224 50.3145 106.24 50.1655C106.24 50.0989 106.24 50.0323 106.24 49.9658C106.24 49.6773 106.154 49.3318 106.281 49.1099C106.408 48.888 106.785 49.0465 107.048 49.0084C107.292 48.9735 107.52 48.87 107.707 48.7101C107.894 48.5501 108.031 48.3403 108.104 48.105C108.122 48.0485 108.128 47.9888 108.121 47.9298C108.115 47.8708 108.096 47.8138 108.066 47.7627L105.444 41.1059C105.27 40.6621 105.267 40.6653 105.736 40.6621C106.205 40.6589 106.687 40.6906 107.159 40.6621C107.511 40.6367 107.628 40.7826 107.717 41.0964C108.148 42.6021 108.601 44.1046 109.048 45.6071C109.089 45.7022 109.089 45.8164 109.229 45.9051Z" fill="#659833"/>
<path d="M73.7039 46.8264C73.5803 47.4604 73.1016 47.6316 72.5913 47.7552C71.898 47.9562 71.1542 47.8847 70.5118 47.5555C70.1751 47.3801 69.8985 47.108 69.7177 46.7741C69.5369 46.4403 69.4602 46.0599 69.4974 45.6821C69.5323 44.7565 70.0617 44.1669 70.8668 43.815C71.6026 43.5144 72.3927 43.3698 73.1872 43.3902C73.7546 43.3902 73.7388 43.3902 73.7261 42.807C73.7396 42.621 73.6891 42.436 73.583 42.2826C73.4769 42.1293 73.3216 42.0168 73.1428 41.9638C72.9347 41.8921 72.7099 41.8839 72.4971 41.9404C72.2842 41.9968 72.093 42.1153 71.9478 42.2808C71.842 42.417 71.7742 42.5789 71.7512 42.7499C71.7227 42.956 71.6149 43.0003 71.4343 42.9972C70.9873 42.9972 70.5372 42.975 70.0902 42.9972C69.7574 43.0162 69.7098 42.8735 69.7732 42.5978C69.8464 42.199 70.0197 41.8254 70.2771 41.5121C70.5344 41.1988 70.8671 40.9561 71.2441 40.8068C72.1526 40.422 73.1662 40.3638 74.1128 40.6419C74.5995 40.7382 75.0358 41.005 75.3432 41.3944C75.6506 41.7838 75.809 42.2701 75.7897 42.7658C75.8151 43.3998 75.8119 44.0084 75.8119 44.6297C75.7791 45.5143 75.813 46.4002 75.9133 47.2797C75.9672 47.6347 75.8404 47.7045 75.5203 47.6823C75.1383 47.6538 74.7547 47.6538 74.3728 47.6823C74.0558 47.7045 73.8719 47.6252 73.8751 47.2734C73.8668 47.1445 73.8445 47.017 73.8085 46.893L73.7039 46.8264ZM73.184 44.6075C72.7641 44.6014 72.3507 44.711 71.989 44.9245C71.8318 45.0255 71.7128 45.1761 71.6508 45.3523C71.5888 45.5286 71.5874 45.7205 71.6466 45.8976C71.6936 46.064 71.7965 46.2091 71.938 46.3084C72.0795 46.4077 72.2509 46.4552 72.4233 46.4429C73.2157 46.4841 73.7071 46.0149 73.7515 45.1749C73.78 44.6043 73.7578 44.5821 73.184 44.5916V44.6075Z" fill="#659833"/>
<path d="M81.6172 24.1341C81.6172 21.8803 83.0563 20.4507 85.3165 20.4571C87.5766 20.4634 89.0221 21.9374 89.0094 24.1595C88.9967 26.3816 87.5386 27.8429 85.2879 27.8429C83.0373 27.8429 81.614 26.3911 81.6172 24.1341ZM86.857 24.1341C86.857 23.9344 86.857 23.7379 86.8253 23.5414C86.7985 23.3585 86.7561 23.1782 86.6985 23.0025C86.6329 22.6975 86.4671 22.4232 86.2276 22.2233C85.9881 22.0234 85.6885 21.9094 85.3767 21.8994C85.0503 21.8691 84.7238 21.9567 84.4564 22.1462C84.1889 22.3358 83.9981 22.6148 83.9185 22.9327C83.6388 23.7367 83.6466 24.6128 83.9407 25.4116C84.0277 25.7069 84.2104 25.9649 84.46 26.1451C84.7096 26.3253 85.012 26.4174 85.3196 26.407C85.6324 26.4043 85.9356 26.2985 86.182 26.1059C86.4285 25.9133 86.6045 25.6447 86.6827 25.3419C86.8118 24.9539 86.8708 24.546 86.857 24.1373V24.1341Z" fill="#407B6C"/>
<path d="M81.0921 35.4917C81.2367 35.5012 81.3818 35.5012 81.5264 35.4917C81.6768 35.4525 81.8366 35.4737 81.9716 35.5507C82.1066 35.6277 82.2062 35.7544 82.2491 35.9037C82.3718 36.1493 82.58 36.3415 82.8346 36.4443C83.0891 36.5471 83.3724 36.5532 83.6312 36.4616C83.8721 36.3824 84.0972 36.2683 84.1416 35.9735C84.1659 35.8362 84.1466 35.6948 84.0864 35.5691C84.0261 35.4434 83.9278 35.3398 83.8055 35.2729C83.4463 35.075 83.0595 34.9319 82.658 34.8482C82.2629 34.7457 81.8761 34.6132 81.501 34.4519C81.1412 34.3104 80.8339 34.0611 80.6211 33.7383C80.4083 33.4154 80.3005 33.0347 80.3123 32.6483C80.3023 32.2593 80.4118 31.8766 80.626 31.5518C80.8403 31.227 81.149 30.9757 81.5105 30.8319C82.0044 30.5971 82.5429 30.4708 83.0896 30.4615C83.6364 30.4522 84.1789 30.5601 84.6804 30.778C84.9963 30.9168 85.2771 31.1248 85.502 31.3864C85.7269 31.6481 85.8903 31.9569 85.9801 32.2901C86.0593 32.5468 86.0403 32.718 85.6853 32.699C85.2629 32.6767 84.8397 32.6767 84.4173 32.699C84.3607 32.7111 84.3023 32.7119 84.2453 32.7014C84.1884 32.6909 84.1341 32.6693 84.0855 32.6378C84.037 32.6063 83.9951 32.5655 83.9623 32.5178C83.9294 32.4701 83.9063 32.4164 83.8943 32.3598C83.8388 32.1729 83.7162 32.0132 83.55 31.9113C83.3838 31.8095 83.1857 31.7728 82.994 31.8082C82.8683 31.807 82.7454 31.8456 82.6429 31.9185C82.5404 31.9914 82.4636 32.0948 82.4235 32.214C82.3716 32.3371 82.3621 32.474 82.3965 32.6031C82.4309 32.7323 82.5073 32.8463 82.6137 32.9272C82.8218 33.0905 83.0614 33.2092 83.3174 33.2759C83.935 33.4313 84.5392 33.6359 85.1242 33.8877C85.4753 34.0497 85.7686 34.3149 85.9652 34.6479C86.1617 34.9809 86.252 35.3659 86.2242 35.7516C86.2353 36.1184 86.1325 36.4797 85.9298 36.7857C85.7272 37.0917 85.4346 37.3273 85.0925 37.4602C84.4628 37.7555 83.771 37.8941 83.0761 37.8643C82.3812 37.8345 81.7038 37.6371 81.1016 37.289C80.8339 37.1273 80.6043 36.9095 80.4287 36.6507C80.2531 36.3919 80.1355 36.0981 80.0841 35.7896C80.0334 35.5677 80.0841 35.4726 80.3377 35.4726C80.5913 35.4726 80.8385 35.4917 81.0921 35.4917Z" fill="#407B6C"/>
<path d="M67.7101 43.2672C67.6309 43.2624 67.5515 43.2624 67.4723 43.2672C67.0158 43.3084 66.6608 43.2894 66.5213 42.6839C66.4199 42.1863 65.9856 41.9295 65.4436 41.9168C65.1905 41.8914 64.9361 41.9504 64.72 42.0845C64.5038 42.2187 64.3381 42.4205 64.2485 42.6586C64.0538 43.1372 63.9552 43.6495 63.9585 44.1662C63.9617 44.6829 64.0667 45.1939 64.2675 45.67C64.3539 45.9094 64.5178 46.113 64.7332 46.2486C64.9486 46.3841 65.2031 46.4438 65.4562 46.4181C65.7098 46.4103 65.954 46.3209 66.1527 46.1633C66.3514 46.0057 66.494 45.7883 66.5594 45.5432C66.6513 45.204 66.8288 45.1533 67.1236 45.1691C67.5195 45.1929 67.9164 45.1929 68.3123 45.1691C68.6991 45.1406 68.7212 45.2959 68.6293 45.6097C68.5061 46.0776 68.2673 46.5071 67.9351 46.8587C67.6028 47.2104 67.1875 47.4731 66.7274 47.6226C65.2756 48.1425 63.6114 47.8192 62.7301 46.8143C61.8964 45.8633 61.7538 44.7285 61.9123 43.5398C62.3434 40.316 65.8557 39.8564 67.5706 41.118C67.8711 41.3352 68.1241 41.6114 68.3143 41.9297C68.5045 42.248 68.6279 42.6017 68.6769 42.9692C68.7117 43.1943 68.6483 43.2862 68.4106 43.2704C68.1729 43.2545 67.9478 43.2672 67.7101 43.2672Z" fill="#659833"/>
<path d="M90.4959 24.2444C90.4959 23.6104 90.4959 23.0018 90.4959 22.3837C90.4959 22.1206 90.442 22.0096 90.1504 22.0128C89.4403 22.0128 89.4403 22.0128 89.4403 21.2837C89.4467 21.1781 89.4467 21.0723 89.4403 20.9667C89.4182 20.7385 89.5259 20.6814 89.7573 20.6782C90.5086 20.6592 90.5086 20.6497 90.5086 19.9048C90.5086 18.9285 90.5086 18.919 91.4596 18.9348C91.8209 18.9348 92.2869 18.7636 92.5215 19.0204C92.7561 19.2771 92.5754 19.7019 92.5817 20.0569C92.5817 20.6909 92.5817 20.6909 93.2157 20.6909C94.0557 20.6909 94.0335 20.6909 94.0652 21.5436C94.0811 21.9399 93.9765 22.054 93.5739 22.0413C92.5881 22.0096 92.5881 22.0413 92.5881 23.0145C92.5881 23.845 92.5881 24.6787 92.5881 25.5092C92.5881 26.2066 92.8004 26.4221 93.4946 26.3936C93.8814 26.3936 93.9479 26.5204 93.9384 26.8659C93.9194 27.7788 93.9384 27.7788 93.0033 27.8169C92.6605 27.8396 92.3162 27.8258 91.9763 27.7757C90.9714 27.6203 90.553 27.1734 90.5149 26.1432C90.4896 25.5092 90.5149 24.8752 90.5149 24.2412L90.4959 24.2444Z" fill="#407B6C"/>
<path d="M76.6953 32.3829C76.6953 31.0484 76.6953 29.7171 76.6953 28.3825C76.6953 28.0655 76.7904 27.9641 77.1042 27.9831C77.5128 28.0085 77.9225 28.0085 78.331 27.9831C78.6733 27.9609 78.7874 28.0751 78.7874 28.4269C78.7874 30.592 78.7874 32.757 78.7874 34.922C78.7874 35.1978 78.8065 35.4768 78.7874 35.7526C78.7874 36.1171 78.9428 36.3041 79.301 36.2914C79.5324 36.2914 79.5989 36.3834 79.5894 36.6084C79.5894 36.8969 79.5894 37.1885 79.5894 37.477C79.5894 37.6228 79.5672 37.7433 79.3834 37.7496C78.8446 37.8083 78.3008 37.8019 77.7636 37.7306C77.0915 37.5943 76.7429 37.1695 76.7302 36.4309C76.7112 35.0837 76.7302 33.7397 76.7302 32.3925L76.6953 32.3829Z" fill="#407B6C"/>
<path d="M74.9441 32.0534C74.9441 33.2675 74.9441 34.4816 74.9441 35.6956C74.9441 36.0824 75.0741 36.3074 75.483 36.2948C75.6985 36.2948 75.7556 36.3962 75.7461 36.5896C75.7461 36.8685 75.7461 37.1443 75.7461 37.4201C75.7461 37.6959 75.6446 37.7529 75.4291 37.7529C75.0328 37.7529 74.6366 37.7783 74.2435 37.7529C73.394 37.718 72.9154 37.2362 72.8995 36.3645C72.8773 35.0965 72.8837 33.8571 72.8837 32.605C72.8837 31.1785 72.8837 29.7521 72.8837 28.332C72.8837 28.0562 72.9629 27.9611 73.2418 27.9738C73.6888 27.9928 74.1389 27.9959 74.5859 27.9738C74.9029 27.9738 74.9663 28.0784 74.9631 28.3637C74.9631 29.5904 74.9631 30.8172 74.9631 32.0439L74.9441 32.0534Z" fill="#407B6C"/>
<path d="M71.3678 34.1648C71.3678 35.2045 71.3678 36.2474 71.3678 37.2872C71.3678 37.5693 71.3139 37.6961 71.0001 37.6771C70.5404 37.6517 70.0776 37.6771 69.618 37.6771C69.3898 37.6771 69.2852 37.6327 69.2852 37.3601C69.2852 35.2236 69.2852 33.0881 69.2852 30.9537C69.2852 30.7033 69.3771 30.6367 69.6021 30.6367C70.0776 30.6367 70.5531 30.6557 71.0254 30.6367C71.298 30.6367 71.3583 30.735 71.3424 30.9822C71.3678 32.0568 71.3678 33.1092 71.3678 34.1648Z" fill="#407B6C"/>
<path d="M70.3355 27.9554C70.4775 27.9445 70.6202 27.9638 70.7542 28.0123C70.8882 28.0607 71.0103 28.137 71.1125 28.2362C71.2148 28.3355 71.2947 28.4553 71.3471 28.5878C71.3995 28.7202 71.4231 28.8623 71.4164 29.0046C71.4113 29.2955 71.291 29.5725 71.0817 29.7746C70.8724 29.9767 70.5915 30.0874 70.3006 30.0824C70.0097 30.0774 69.7327 29.957 69.5306 29.7477C69.3285 29.5385 69.2178 29.2575 69.2228 28.9666C69.2206 28.8244 69.2487 28.6833 69.3052 28.5528C69.3617 28.4223 69.4454 28.3053 69.5507 28.2096C69.6559 28.114 69.7804 28.0418 69.9157 27.998C70.051 27.9541 70.1941 27.9396 70.3355 27.9554Z" fill="#407B6C"/>
<path d="M23.9143 25.8424L24.0812 25.4124C23.8895 25.338 23.7163 25.2226 23.5738 25.0742C23.4312 24.9259 23.3229 24.7482 23.2562 24.5537C23.1895 24.3591 23.1661 24.1523 23.1877 23.9477C23.2089 23.7465 23.2732 23.5522 23.376 23.378C23.917 22.5668 24.6764 22.0275 25.5265 21.4236C25.5456 21.4101 25.5647 21.3965 25.5839 21.3829C26.2771 20.9508 26.9409 20.4733 27.5711 19.9535L27.5817 19.9448L27.5917 19.9355C27.8727 19.6741 28.1204 19.3318 28.079 18.91C28.0389 18.5007 27.7421 18.2018 27.4318 17.9799L27.4235 17.9739L27.4149 17.9684C26.6781 17.4893 25.8987 17.0793 25.0865 16.7435C24.1337 16.3466 23.2267 15.8476 22.3813 15.2554C21.5451 14.6284 21.3111 13.8338 21.5836 13.1988L21.584 13.1978C21.6316 13.0862 21.6763 12.9579 21.6862 12.8274C21.697 12.6842 21.6667 12.4802 21.4912 12.3291C21.3454 12.2035 21.1752 12.1858 21.0961 12.1812C21.014 12.1764 20.9281 12.1823 20.8608 12.188H20.8607H20.8604H20.8601H20.8598H20.8595H20.8592H20.8589H20.8586H20.8583H20.858H20.8577H20.8574H20.8571H20.8568H20.8564H20.8561H20.8558H20.8555H20.8552H20.8549H20.8546H20.8543H20.854H20.8537H20.8534H20.8531H20.8528H20.8525H20.8522H20.8519H20.8516H20.8513H20.851H20.8507H20.8504H20.8501H20.8498H20.8495H20.8492H20.8489H20.8486H20.8483H20.848H20.8476H20.8473H20.847H20.8467H20.8464H20.8461H20.8458H20.8455H20.8452H20.8449H20.8446H20.8443H20.844H20.8437H20.8434H20.8431H20.8428H20.8425H20.8422H20.8419H20.8416H20.8412H20.8409H20.8406H20.8403H20.84H20.8397H20.8394H20.8391H20.8388H20.8385H20.8382H20.8379H20.8376H20.8373H20.837H20.8367H20.8364H20.836H20.8357H20.8354H20.8351H20.8348H20.8345H20.8342H20.8339H20.8336H20.8333H20.833H20.8327H20.8324H20.8321H20.8318H20.8314H20.8311H20.8308H20.8305H20.8302H20.8299H20.8296H20.8293H20.829H20.8287H20.8284H20.8281H20.8278H20.8274H20.8271H20.8268H20.8265H20.8262H20.8259H20.8256H20.8253H20.825H20.8247H20.8244H20.8241H20.8237H20.8234H20.8231H20.8228H20.8225H20.8222H20.8219H20.8216H20.8213H20.821H20.8207H20.8204H20.82H20.8197H20.8194H20.8191H20.8188H20.8185H20.8182H20.8179H20.8176H20.8173H20.817H20.8166H20.8163H20.816H20.8157H20.8154H20.8151H20.8148H20.8145H20.8142H20.8139H20.8136H20.8132H20.8129H20.8126H20.8123H20.812H20.8117H20.8114H20.8111H20.8108H20.8105H20.8101H20.8098H20.8095H20.8092H20.8089H20.8086H20.8083H20.808H20.8077H20.8073H20.807H20.8067H20.8064H20.8061H20.8058H20.8055H20.8052H20.8049H20.8046H20.8042H20.8039H20.8036H20.8033H20.803H20.8027H20.8024H20.8021H20.8018H20.8014H20.8011H20.8008H20.8005H20.8002H20.7999H20.7996H20.7993H20.799H20.7986H20.7983H20.798H20.7977H20.7974H20.7971H20.7968H20.7965H20.7961H20.7958H20.7955H20.7952H20.7949H20.7946H20.7943H20.794H20.7936H20.7933H20.793H20.7927H20.7924H20.7921H20.7918H20.7915H20.7912H20.7908H20.7905H20.7902H20.7899H20.7896H20.7893H20.789H20.7887H20.7883H20.788H20.7877H20.7874H20.7871H20.7868H20.7865H20.7861H20.7858H20.7855H20.7852H20.7849H20.7846H20.7843H20.784H20.7836H20.7833H20.783H20.7827H20.7824H20.7821H20.7818H20.7815H20.7811H20.7808H20.7805H20.7802H20.7799H20.7796H20.7793H20.7789H20.7786H20.7783H20.778H20.7777H20.7774H20.7771H20.7768H20.7764H20.7761H20.7758H20.7755H20.7752H20.7749H20.7746H20.7742H20.7739H20.7736H20.7733H20.773H20.7727H20.7724H20.772H20.7717H20.7714H20.7711H20.7708H20.7705H20.7702H20.7698H20.7695H20.7692H20.7689H20.7686H20.7683H20.768H20.7676H20.7673H20.767H20.7667H20.7664H20.7661H20.7658H20.7654H20.7651H20.7648H20.7645H20.7642H20.7639H20.7636H20.7632H20.7629H20.7626H20.7623H20.762H20.7617H20.7614H20.761H20.7607H20.7604H20.7601H20.7598H20.7595H20.7592H20.7588H20.7585H20.7582H20.7579H20.7576H20.7573H20.757H20.7566H20.7563H20.756H20.7557H20.7554H20.7551H20.7547H20.7544H20.7541H20.7538H20.7535H20.7532H20.7529H20.7525H20.7522H20.7519H20.7516H20.7513H20.751H20.7507H20.7503H20.75H20.7497H20.7494H20.7491H20.7488H20.7484H20.7481H20.7478H20.7475H20.7472H20.7469H20.7466H20.7462H20.7459H20.7456H20.7453H20.745H20.7447H20.7443H20.744H20.7437H20.7434H20.7431H20.7428H20.7425H20.7421H20.7418H20.7415H20.7412H20.7409H20.7406H20.7402H20.7399H20.7396H20.7393H20.739H20.7387H20.7383H20.738H20.7377H20.7374H20.7371H20.7368H20.7365H20.7361H20.7358H20.7355H20.7352H20.7349H20.7346H20.7342H20.7339H20.7336H20.7333H20.733H20.7327H20.7324H20.732H20.7317H20.7314H20.7311H20.7308H20.7305H20.7301H20.7298H20.7295H20.7292H20.7289H20.7286H20.7282H20.7279H20.7276H20.7273H20.727H20.7267H20.7264H20.726H20.7257H20.7254H20.7251H20.7248H20.7245H20.7241H20.7238H20.7235H20.7232H20.7229H20.7226H20.7222H20.6816L20.6415 12.1951C19.1385 12.4624 17.6625 12.8643 16.2315 13.3961L16.2315 13.3961L16.2265 13.398C14.7499 13.9663 13.329 14.6697 11.9819 15.4993L11.981 15.4998C10.5545 16.3826 9.22659 17.4156 8.02011 18.5813L8.01944 18.5819C6.59046 19.9682 5.33696 21.5245 4.28701 23.2159C3.9947 23.5796 3.798 24.0108 3.71509 24.4703L3.71002 24.4985L3.70846 24.527C3.67044 25.2199 3.713 25.9149 3.83527 26.598C4.06034 27.8851 4.46908 29.1333 5.04898 30.3043L5.05058 30.3075C5.65461 31.5039 6.40068 32.6231 7.27263 33.641C8.45859 35.0494 10.0781 35.6728 11.6545 36.1428L11.6633 36.1455L11.6723 36.1477C12.7721 36.4283 13.8559 36.7685 14.9188 37.1668C15.3982 37.3871 15.7947 37.7548 16.0504 38.2165C16.3074 38.6807 16.4084 39.2153 16.3384 39.7412C16.2211 40.4484 15.8021 40.9425 15.1983 41.4529C15.0131 41.6077 14.8169 41.7431 14.6006 41.8922C14.5467 41.9294 14.4915 41.9675 14.4349 42.0069C14.1687 42.1925 13.8814 42.4026 13.6234 42.6666C13.484 42.7822 13.3681 42.9236 13.282 43.0832C13.1907 43.2526 13.1349 43.439 13.1181 43.6307C13.1014 43.8225 13.124 44.0157 13.1846 44.1984C13.2433 44.3753 13.3365 44.5388 13.4586 44.6795C13.7182 45.0149 14.0445 45.2927 14.417 45.4954C14.7557 45.7058 15.0994 45.9007 15.4348 46.091C15.5414 46.1514 15.6471 46.2114 15.7516 46.2713C16.194 46.5247 16.625 46.7819 17.0497 47.0852C17.4217 47.3509 17.6191 47.651 17.6874 47.946C17.7553 48.2391 17.7088 48.5831 17.4888 48.9646C17.2717 49.3399 17.104 49.7449 17.059 50.1829C17.0132 50.6295 17.0979 51.0816 17.3419 51.5391L17.3418 51.5392L17.3476 51.5496C17.9802 52.6653 18.1549 53.9829 17.8352 55.2249C17.778 55.4411 17.7948 55.6702 17.8827 55.8758C17.9697 56.0791 18.1214 56.2479 18.314 56.3561C18.7441 56.6115 19.281 56.6015 19.7181 56.477C20.1599 56.3511 20.6179 56.0756 20.8641 55.6529L20.8701 55.6425L20.8756 55.6318C21.1393 55.1193 21.3604 54.5859 21.5366 54.0371C21.8423 53.1743 22.333 52.3888 22.9741 51.7356C23.5613 51.213 24.2123 50.7667 24.9114 50.4073L24.9207 50.4025L24.9297 50.3973C25.1828 50.2524 25.4368 50.1235 25.7026 49.9887C25.8273 49.9255 25.9545 49.861 26.0854 49.7929C26.4838 49.5856 26.8961 49.3548 27.2815 49.061L27.2825 49.0602C27.9902 48.5175 28.6096 47.7834 28.4941 46.6443L28.4939 46.6424C28.4456 46.1856 28.3565 45.7341 28.2275 45.2933L28.2275 45.2933L28.2257 45.2875C27.7243 43.6543 26.6387 42.2632 25.1765 41.38C24.0534 40.6526 22.8152 40.1537 21.6256 39.6745C21.3913 39.5801 21.1589 39.4865 20.9297 39.392L20.9293 39.3919C19.9007 38.9692 19.1121 38.358 18.6638 37.3662C18.2645 36.3956 18.0234 35.3673 17.9497 34.3205C17.9289 33.6923 17.8266 33.0695 17.6453 32.4676L17.6404 32.4513L17.6343 32.4355C17.552 32.2206 17.4283 31.9486 17.1674 31.795C16.8919 31.6328 16.5904 31.6729 16.3507 31.7306L16.3496 31.7309C16.1121 31.7887 15.8803 31.8543 15.6575 31.9174C15.5842 31.9381 15.5119 31.9585 15.4408 31.9783C15.1477 32.0599 14.8594 32.1347 14.5476 32.1911C13.8791 32.3121 13.3753 32.3257 12.993 32.0067C12.2793 31.4025 11.8644 30.7162 11.914 29.8208L11.9155 29.7932L11.9138 29.7657C11.9036 29.6073 11.9112 29.4482 11.9364 29.2915C12.3461 27.7948 13.2479 26.7851 14.7314 26.4113C15.9418 26.1332 17.1192 26.4966 18.2334 27.1446C19.1848 27.6978 19.9404 28.4945 20.7368 29.3342C20.8569 29.4608 20.978 29.5885 21.1007 29.7164C21.451 30.0902 21.8581 30.3182 22.3156 30.2972C22.7598 30.2769 23.131 30.0259 23.4276 29.7202L23.4276 29.7202L23.4317 29.7159C24.1744 28.9301 24.6687 27.9428 24.8529 26.8776C24.884 26.7212 24.9129 26.5687 24.9227 26.4354C24.9327 26.2979 24.9276 26.1258 24.8441 25.9561C24.7579 25.781 24.6204 25.6726 24.4941 25.5987C24.3743 25.5286 24.2285 25.4693 24.0805 25.4121L23.9143 25.8424ZM23.9143 25.8424C24.5135 26.0738 24.5293 26.1404 24.3993 26.7934M23.9143 25.8424C23.6599 25.7437 23.4302 25.5906 23.2411 25.3938C23.0521 25.197 22.9083 24.9613 22.8198 24.7032C22.7314 24.4451 22.7004 24.1707 22.729 23.8993C22.7576 23.628 22.8452 23.3661 22.9856 23.1321C23.5752 22.2431 24.4004 21.6573 25.2342 21.0655C25.2655 21.0433 25.2968 21.021 25.3281 20.9988L24.3993 26.7934M24.3993 26.7934C24.2314 27.7713 23.7781 28.6779 23.0965 29.399L24.3993 26.7934Z" fill="#659833" stroke="#3F7A6C" stroke-width="0.922511"/>
<path d="M48.4634 35.6672L48.4636 35.6842C48.4916 38.678 47.9427 41.6491 46.8466 44.4352L46.8459 44.4369C46.2652 45.8957 45.5433 47.2942 44.6903 48.6124C43.7801 50.0201 42.7292 51.3317 41.554 52.5271C41.4111 52.6734 41.1725 52.8717 40.8526 52.8343C40.5469 52.7985 40.3615 52.5655 40.2678 52.4356L40.2631 52.4292L40.2632 52.4291C40.0964 52.1894 39.9862 51.9149 39.9407 51.6264C39.896 51.3425 39.9152 51.0522 39.9969 50.7767C40.0596 50.521 40.1399 50.2708 40.2145 50.0384C40.2245 50.0073 40.2344 49.9766 40.2441 49.9463C40.3299 49.6777 40.4058 49.4294 40.4557 49.1785L40.4599 49.1572L40.4661 49.1365C40.5354 48.9043 40.5186 48.6548 40.4188 48.434C40.319 48.2132 40.1428 48.0358 39.9227 47.9345L39.9055 47.9265L39.889 47.9172C39.5727 47.7388 39.2368 47.5977 38.888 47.4968C38.6805 47.458 38.4936 47.3452 38.3625 47.1786C38.2301 47.0105 38.1643 46.7999 38.1769 46.587C38.1682 46.0415 38.3188 45.581 38.6038 45.2006C38.8835 44.8273 39.2715 44.5594 39.6939 44.3544C40.0297 44.1674 40.3395 43.937 40.6153 43.6692L40.6222 43.6624L40.6294 43.656C40.7806 43.521 40.8895 43.3453 40.943 43.1498C40.9966 42.9544 40.9925 42.7477 40.9312 42.5545L40.9261 42.5384L40.9222 42.5219C40.8056 42.032 40.4775 41.4864 40.0093 41.0585C39.5452 40.6343 38.9823 40.3602 38.4136 40.3406C37.8671 40.3505 37.3208 40.309 36.7821 40.2165L36.7727 40.2149L36.7635 40.2129C35.9962 40.0485 35.2869 39.6816 34.7094 39.1504L34.7066 39.1478C34.485 38.9407 34.3113 38.6878 34.1975 38.4067C34.0851 38.1293 34.0338 37.8311 34.0468 37.5322C34.0469 37.4191 34.0483 37.3115 34.0496 37.2084C34.0565 36.6781 34.0618 36.2687 33.879 35.8669L33.8772 35.8628L33.8772 35.8628C33.5354 35.0919 32.8907 34.64 32.072 34.2428L32.067 34.2404L32.067 34.2404C31.4537 33.9337 30.8082 33.6708 30.1505 33.4266L30.1504 33.4265C29.6882 33.2547 29.3773 32.9663 29.1827 32.6066C28.9969 32.2632 28.9311 31.8805 28.9007 31.5353L28.8999 31.5265L28.8995 31.5177C28.8712 30.9476 28.9576 30.3777 29.1535 29.8417C29.3483 29.3089 29.6474 28.8203 30.0333 28.4046C30.533 27.8209 31.189 27.3918 31.9241 27.168C33.1854 26.7683 34.3586 26.1312 35.3805 25.2909C35.517 25.1774 35.7625 25.0028 36.0708 25.0537C36.3927 25.107 36.5682 25.3667 36.6639 25.5508L36.6646 25.5521C36.9472 26.0998 37.2295 26.6192 37.5145 27.1435C37.755 27.5859 37.9975 28.0319 38.2435 28.5013C38.3647 28.7084 38.5298 28.8865 38.7272 29.0231C38.9271 29.1613 39.1552 29.2535 39.395 29.2931L39.4124 29.2959L39.4295 29.3001C39.7404 29.3761 40.0644 29.3814 40.3776 29.3155C40.6908 29.2496 40.9852 29.1143 41.2391 28.9194L41.2486 28.9121L41.2487 28.9122C41.4091 28.7957 41.528 28.637 41.6444 28.4255C41.7024 28.3199 41.7557 28.2094 41.8155 28.0853L41.8185 28.0791C41.8775 27.9566 41.9432 27.8205 42.0177 27.6874C42.6898 26.4873 43.345 25.2582 43.9993 24.0308C44.0336 23.9666 44.0678 23.9023 44.1021 23.838L44.1033 23.8359C44.1525 23.7447 44.2159 23.6413 44.3 23.5585C44.3881 23.4717 44.5569 23.3541 44.788 23.3884C44.9862 23.4178 45.1089 23.5455 45.16 23.6039C45.2196 23.6722 45.2703 23.752 45.3086 23.8147L45.3155 23.8261L45.3153 23.8262C46.3829 25.6941 47.1929 27.6979 47.7233 29.783M48.4634 35.6672L47.2764 29.8972M48.4634 35.6672L48.462 35.6503C48.4413 35.4015 48.4358 35.1299 48.4302 34.8304L48.43 34.8159C48.4245 34.5258 48.4187 34.2125 48.3958 33.8989M48.4634 35.6672L47.9358 33.9324M47.7233 29.783C47.7234 29.7831 47.7234 29.7833 47.7235 29.7835L47.2764 29.8972M47.7233 29.783C47.7233 29.7827 47.7232 29.7825 47.7232 29.7823L47.2764 29.8972M47.7233 29.783C48.0703 31.132 48.2953 32.5096 48.3958 33.8989M47.2764 29.8972C47.6166 31.2198 47.8373 32.5703 47.9358 33.9324M48.3958 33.8989L47.9358 33.9324M48.3958 33.8989C48.3958 33.899 48.3958 33.8991 48.3958 33.8992L47.9358 33.9324" fill="#659833" stroke="#3F7A6C" stroke-width="0.922511"/>
<path d="M39.5228 1.83203C42.6927 1.87958 45.0828 2.86225 46.9689 4.92903C48.211 6.24019 48.995 7.91839 49.2036 9.71241C49.427 11.6979 49.1047 13.7068 48.2717 15.5228C47.7453 16.6285 47.1081 17.6778 46.3698 18.6547C45.4727 19.9227 44.6897 21.2699 43.9258 22.6234C43.1618 23.977 42.3852 25.3844 41.6212 26.7697C41.393 27.1849 41.1743 27.6033 40.9524 28.0376C40.8472 28.2226 40.6897 28.3725 40.4996 28.4683C40.3096 28.5642 40.0955 28.6018 39.8841 28.5765C39.6724 28.5886 39.4617 28.5398 39.2769 28.4359C39.092 28.332 38.9409 28.1773 38.8412 27.9901C37.2816 25.0769 35.7442 22.1574 33.9628 19.387C33.221 18.2363 32.3524 17.168 31.7438 15.9318C30.8393 14.162 30.4297 12.1808 30.5583 10.1974C30.683 8.40953 31.3647 6.70566 32.5078 5.32526C33.7012 3.85081 35.3138 2.77313 37.1327 2.23461C37.9017 1.96949 38.7093 1.83346 39.5228 1.83203ZM40.0141 4.88465C38.6817 4.86581 37.3737 5.24334 36.2563 5.96931C35.1388 6.69527 34.2623 7.73692 33.738 8.962C33.2137 10.1871 33.0652 11.5403 33.3115 12.8499C33.5578 14.1595 34.1877 15.3664 35.1212 16.3173C36.0547 17.2683 37.2498 17.9204 38.5546 18.1908C39.8594 18.4612 41.2152 18.3378 42.4497 17.8362C43.6843 17.3347 44.742 16.4775 45.4885 15.3737C46.2349 14.2699 46.6366 12.9691 46.6424 11.6365C46.7089 7.97847 43.6088 4.79272 40.0141 4.88465Z" fill="#FFBD59"/>
<path d="M40.0164 4.88866C43.6111 4.79673 46.7113 7.98249 46.6542 11.6406C46.6515 12.9772 46.2515 14.2828 45.5048 15.3915C44.7582 16.5002 43.6988 17.3618 42.4612 17.8668C41.2236 18.3718 39.8639 18.4974 38.5547 18.2276C37.2456 17.9578 36.0463 17.3048 35.1092 16.3517C34.1722 15.3985 33.5397 14.1882 33.2923 12.8747C33.0448 11.5611 33.1936 10.2037 33.7196 8.97492C34.2456 7.74614 35.1252 6.70154 36.2464 5.97393C37.3677 5.24631 38.6799 4.86854 40.0164 4.88866Z" fill="#407B6C"/>
</g>
<defs>
<clipPath id="clip0_3357_4514">
<rect width="112.912" height="59.7939" fill="white" transform="translate(0.0429688 0.601562)"/>
</clipPath>
</defs>
</svg>
