<svg width="57" height="49" viewBox="0 0 57 49" fill="none" xmlns="http://www.w3.org/2000/svg">
<g clip-path="url(#clip0_3360_3900)">
<path d="M26.8229 48.0498C26.2515 48.2504 25.6514 48.2846 25.0559 48.3355C21.7715 48.6129 18.5445 48.231 15.347 47.4857C12.8171 46.9134 10.3637 46.0444 8.03759 44.8967C5.66399 43.6942 3.46042 42.1822 1.48456 40.4001C0.482232 39.5032 0.405486 38.3427 1.2386 37.2757C1.94596 36.3695 2.9261 35.7703 3.78325 35.0334C4.94832 34.032 6.14667 33.0694 7.33023 32.0902C8.14763 31.4124 9.02697 30.9621 10.1273 31.3366C10.5484 31.4897 10.93 31.7349 11.2443 32.0541C13.7547 34.474 16.7321 36.0366 20.109 36.8392C22.0175 37.2932 23.9463 37.6002 25.9149 37.2553C27.4341 36.989 28.4115 36.1282 28.7064 34.8716C28.8784 34.1318 28.6315 33.5512 28.171 33.0075C27.3037 31.9848 26.1507 31.3625 24.9958 30.7504C23.3314 29.8701 21.5339 29.3107 19.8122 28.5691C17.0761 27.3911 14.4566 26.006 12.1449 24.1003C10.9521 23.1164 9.87396 22.0244 9.09355 20.679C8.05978 18.9037 7.84711 16.9536 7.99229 14.9637C8.15927 12.7023 8.86741 10.5141 10.057 8.58361C11.6891 5.88546 14.046 4.02136 16.8542 2.68616C20.4067 0.995885 24.159 0.374517 28.073 0.604756C30.0088 0.720004 31.9265 1.04334 33.793 1.56917C37.2086 2.52711 40.3876 3.95571 43.0515 6.36721C43.4149 6.69731 43.7774 7.02926 44.1195 7.38433C45.2245 8.51796 45.2291 9.70337 44.0797 10.8148C43.0515 11.8088 41.9697 12.7473 40.911 13.7099C40.2847 14.2789 39.6574 14.8466 39.0293 15.4131C37.8485 16.4811 36.5873 16.5393 35.3834 15.5C33.8688 14.1926 32.2469 13.0645 30.3717 12.3488C28.025 11.4537 25.6218 11.0691 23.14 11.745C22.0859 12.0326 21.1825 12.5633 20.5667 13.4963C19.9786 14.3886 20.059 15.2374 20.8071 16.0095C21.7382 16.9721 22.9264 17.5232 24.1358 18.0271C26.7767 19.1256 29.4582 20.1316 31.9686 21.5186C32.1138 21.5991 32.2839 21.6444 32.3801 21.796C32.3061 21.9495 32.1471 21.992 32.0102 22.0494C29.6348 23.0665 27.9676 24.8733 26.5603 26.95C25.9426 27.8618 26.1266 28.6255 26.9866 29.2219C27.9778 29.9108 28.9727 30.596 29.9612 31.2895C30.8285 31.8969 31.5331 31.7832 32.2072 30.9667C32.8655 30.1688 33.4795 29.332 34.3477 28.7198C35.7347 27.7415 37.1679 27.5955 38.6724 28.3703C40.2443 29.1803 40.2785 30.9714 39.0746 32.2058C37.5813 33.7352 35.9437 35.1194 34.3293 36.5221C32.3234 38.2641 30.3061 39.9939 28.2774 41.7112C27.4942 42.3733 26.7591 43.0575 26.54 44.1089C26.3818 44.8671 26.5011 45.6447 26.4586 46.4122C26.4221 46.9816 26.5485 47.5495 26.8229 48.0498Z" fill="#F5921B"/>
<path d="M26.8237 48.0504C26.5515 47.5495 26.4274 46.9815 26.4659 46.4128C26.5084 45.6453 26.3891 44.8677 26.5472 44.1095C26.7664 43.0581 27.5015 42.3739 28.2847 41.7118C30.3134 39.9957 32.3307 38.266 34.3365 36.5227C35.951 35.12 37.5886 33.7358 39.0819 32.2064C40.2839 30.972 40.2543 29.1809 38.6796 28.3709C37.1752 27.596 35.7402 27.7421 34.355 28.7204C33.4868 29.3326 32.8756 30.1694 32.2145 30.9673C31.5404 31.7838 30.8358 31.8975 29.9685 31.29C28.98 30.5966 27.9851 29.9114 26.9939 29.2225C26.1339 28.6261 25.9499 27.8623 26.5676 26.9506C27.9749 24.872 29.6421 23.0625 32.0175 22.05C32.1516 21.9926 32.3106 21.9501 32.3874 21.7966C33.1271 21.6551 33.8141 21.3509 34.5548 21.215C38.6963 20.4522 43.204 21.8438 45.4897 25.9881C45.7024 26.3737 45.8707 26.7833 46.0861 27.2373C46.7843 26.3367 47.4583 25.4693 48.1296 24.6002C48.592 24.0038 49.0543 23.4083 49.5074 22.8063C50.0464 22.0888 50.7612 21.7541 51.6553 21.7633C52.6105 21.7744 53.5657 21.7633 54.5218 21.7679C55.857 21.7735 56.3249 22.2303 56.3295 23.5747C56.3387 26.333 56.3295 29.0903 56.3295 31.8485V46.6819C56.3295 47.3032 56.237 47.8839 55.6286 48.226C55.3392 48.3888 55.0183 48.4211 54.6928 48.4211H51.2716C49.9771 48.4211 49.4907 47.9394 49.4879 46.6375C49.4824 44.0956 49.4879 41.5519 49.4879 39.0109C49.4879 36.1445 49.4824 33.2781 49.4953 30.4116C49.4953 30.0658 49.4352 29.929 49.0497 29.9493C48.3432 29.9854 47.6331 29.9659 46.923 29.9558C46.702 29.9558 46.591 29.9826 46.5984 30.2489C46.6604 32.6964 45.3501 34.4857 43.7625 36.1436C41.976 38.0086 39.939 39.5805 37.9316 41.1885C37.6995 41.3734 37.2964 41.5528 37.3768 41.8357C37.4378 42.0558 37.8724 41.9125 38.1378 41.9134C40.3403 41.9236 42.5438 41.919 44.7472 41.9199C44.9007 41.9199 45.0551 41.9199 45.2096 41.9282C46.1925 42.004 46.6622 42.4645 46.689 43.4557C46.7161 44.5949 46.7161 45.7353 46.689 46.877C46.6668 47.9117 46.1222 48.4202 45.0903 48.4211C39.498 48.4273 33.9057 48.4341 28.3133 48.4415C27.7743 48.4415 27.2786 48.3379 26.8237 48.0504Z" fill="black"/>
</g>
<defs>
<clipPath id="clip0_3360_3900">
<rect width="55.6587" height="47.8805" fill="white" transform="translate(0.671875 0.558594)"/>
</clipPath>
</defs>
</svg>
