<svg width="65" height="71" viewBox="0 0 65 71" fill="none" xmlns="http://www.w3.org/2000/svg">
<g clip-path="url(#clip0_3357_4483)">
<path d="M14.6589 4.33091C15.9001 4.41142 17.1189 4.45391 18.3311 4.75582C18.6232 4.8147 18.8877 4.9682 19.0838 5.19257C19.2799 5.41695 19.3965 5.69969 19.4157 5.99704C19.4884 6.54705 19.5064 7.10291 19.4694 7.65646C19.3824 9.10219 19.4356 10.5529 19.6282 11.9884C19.7488 12.8186 20.0089 13.6223 20.3975 14.3657C20.6212 14.7974 20.9074 15.1843 21.4285 15.1977C21.9496 15.2111 22.303 14.8331 22.5467 14.3948C22.9515 13.6123 23.1624 12.7441 23.1617 11.8632C23.1975 10.6846 23.1617 9.50375 23.1752 8.32516C23.1393 7.39583 23.1729 6.46512 23.2758 5.54081C23.2982 5.39991 23.3138 5.25678 23.3474 5.11812C23.4726 4.59704 23.6761 4.40247 24.2039 4.41365C24.9375 4.40754 25.6695 4.48254 26.3867 4.63729C27.1359 4.82292 27.4378 5.21429 27.4601 6.02835C27.5004 7.52899 27.4982 9.03186 27.4288 10.5325C27.3483 12.2657 27.2477 13.9967 27.1426 15.7277C27.0913 16.5839 26.992 17.4366 26.8451 18.2817C26.7275 18.877 26.5445 19.4576 26.2994 20.0127C26.1509 20.4092 25.891 20.7543 25.551 21.0066C25.211 21.2589 24.8053 21.4077 24.3828 21.4351C23.0868 21.5938 21.7812 21.661 20.4758 21.6363C19.6483 21.6117 19.6662 21.614 19.6103 22.4258C19.5208 23.7252 19.4873 25.0335 19.2145 26.3149C19.0666 27.1333 18.6154 27.8657 17.9509 28.3657C17.8577 28.4161 17.7809 28.4922 17.7298 28.585C17.6786 28.6778 17.6552 28.7833 17.6624 28.8891C17.7362 29.8149 17.7675 30.7453 17.9061 31.6645C17.938 31.8584 17.9813 32.0504 18.0359 32.2392C18.0831 32.4507 18.1979 32.641 18.3629 32.7815C18.528 32.9219 18.7342 33.0047 18.9506 33.0175C19.2346 33.0488 19.5231 33.0645 19.8049 33.1092C20.0867 33.1539 20.2253 33.0488 20.2745 32.7603C20.4065 32.0044 20.563 31.253 20.7017 30.497C21.149 28.0884 21.7304 25.7133 22.3298 23.3405C22.3656 23.2018 22.417 23.0676 22.4617 22.9312C22.5154 22.712 22.6407 22.5168 22.8177 22.3767C22.9947 22.2365 23.2133 22.1594 23.4391 22.1574C24.6333 22.0814 25.8253 21.9584 27.0173 21.9696C27.3701 21.955 27.7179 22.0565 28.0075 22.2584C28.2971 22.4604 28.5126 22.7517 28.6208 23.0878C29.0301 24.1053 29.2426 25.1744 29.4841 26.2344C30.1304 29.0747 30.7522 31.9172 31.2621 34.7843C31.3133 35.1017 31.3424 35.4222 31.3493 35.7437C31.3628 35.9242 31.3185 36.1042 31.2228 36.2578C31.1271 36.4114 30.985 36.5306 30.817 36.598C30.6403 36.6828 30.4551 36.7487 30.2646 36.7948C29.6881 36.9218 29.1012 36.9967 28.5113 37.0185C28.0975 37.0363 27.9969 36.9648 27.8403 36.5555C27.6745 36.0443 27.5488 35.5208 27.4646 34.99C27.2678 34.0954 27.0934 33.2009 26.8943 32.3197C26.7534 31.6913 26.6975 31.66 26.0691 31.6488C25.4407 31.6376 24.8525 31.66 24.2442 31.6488C23.9736 31.6488 23.7969 31.7069 23.7589 32.0022C23.7052 32.3309 23.5598 32.6462 23.5665 33.0264C23.9109 33.0488 24.2375 33.06 24.5796 33.098C24.9822 33.145 25.0806 33.2367 25.1164 33.6325C25.2053 34.5234 25.1616 35.4225 24.9867 36.3006C24.8592 36.9066 24.5215 37.2734 23.8685 37.3517C22.9279 37.4642 21.9821 37.5276 21.0349 37.5418C19.9167 37.5574 18.7851 37.6514 17.6601 37.5418C16.9995 37.4999 16.3481 37.3644 15.7256 37.1392C15.4032 37.0274 15.1165 36.8317 14.8948 36.5723C14.6731 36.3129 14.5245 35.9991 14.4643 35.6632C14.3148 34.8734 14.2162 34.0749 14.1691 33.2724C14.0729 32.1855 14.0058 31.0964 13.9253 30.0095C13.8918 29.5622 13.8851 29.5443 13.4579 29.5622C11.4941 29.677 9.52556 29.689 7.56046 29.598C6.10679 29.5443 5.66845 29.2335 5.28155 27.829C5.03925 26.9411 4.95224 26.0181 5.02436 25.1006C5.08922 24.244 5.52979 23.7587 6.36621 23.6111C7.12436 23.4702 7.89816 23.4903 8.66302 23.421C9.1431 23.3763 9.62394 23.336 10.1055 23.3002C10.3837 23.283 10.6524 23.1927 10.8845 23.0384C11.1165 22.884 11.3038 22.6712 11.4272 22.4213C11.7259 21.8657 11.8469 21.2319 11.7739 20.6053C11.7666 20.4245 11.698 20.2516 11.5793 20.115C11.4606 19.9784 11.2989 19.8863 11.1208 19.8539C10.6295 19.7516 10.1245 19.7327 9.62692 19.798C7.96749 19.9367 6.3103 20.0373 4.6464 19.8561C3.91675 19.7847 3.19693 19.6347 2.49944 19.4089C2.16542 19.3044 1.85984 19.1247 1.60625 18.8835C1.35267 18.6424 1.15785 18.3462 1.03682 18.0178C0.781776 17.349 0.614878 16.6498 0.540334 15.9379C0.298801 13.8894 0.356946 11.8363 0.462058 9.78106C0.512442 8.78168 0.637282 7.78744 0.83554 6.80662C0.947931 6.14198 1.2247 5.51598 1.64068 4.98556C2.05665 4.45515 2.59864 4.03714 3.21733 3.76956C4.42589 3.23063 5.70674 2.87124 7.01925 2.70279C9.00213 2.41741 11.0059 2.30367 13.0084 2.36285C13.5608 2.37851 13.5899 2.39416 13.5921 2.93985C13.601 4.47851 13.601 6.01642 13.5921 7.55359C13.5921 8.11269 13.5049 8.2111 12.9592 8.26701C11.5547 8.41014 10.148 8.54209 8.74353 8.68522C8.35215 8.72324 7.96302 8.77244 7.57388 8.83059C6.87612 8.93793 6.6234 9.17499 6.46685 9.87499C6.41475 10.1197 6.38037 10.3678 6.36398 10.6175C6.30806 11.3309 6.22979 12.0443 6.21637 12.7577C6.18954 14.028 6.79561 14.7526 8.03458 15.0322C8.81286 15.2089 9.60008 15.1283 10.3851 15.1485C11.5301 15.1753 12.6729 15.0724 13.8135 14.9964C14.3256 14.9629 14.3301 14.9584 14.3368 14.4216C14.3614 12.1673 14.3659 9.91525 14.4106 7.66317C14.4308 6.62771 14.5247 5.59225 14.5873 4.55902C14.6055 4.48133 14.6295 4.40509 14.6589 4.33091ZM19.5119 19.5744C19.5119 19.1651 19.5365 18.7536 19.5119 18.3443C19.456 17.5817 19.4716 16.8101 19.2279 16.0676C18.9684 15.2737 18.5927 14.9673 17.763 14.8958C16.7589 14.8085 15.7704 15.0009 14.7729 15.0501C14.5381 15.0613 14.4911 15.2089 14.4934 15.4146C14.4902 16.5211 14.5725 17.6262 14.7394 18.72C14.7979 19.2024 14.9895 19.659 15.2929 20.0386C15.5963 20.4182 15.9993 20.7058 16.4569 20.8692C17.3325 21.1757 18.2432 21.3703 19.1675 21.4485C19.4202 21.4776 19.532 21.3881 19.5298 21.1287C19.5052 20.6098 19.5119 20.0932 19.5119 19.5744ZM17.4589 28.1197C17.3515 26.5811 17.2486 25.067 17.1368 23.5552C17.1055 23.1459 17.0697 22.7367 17.0004 22.3319C16.9221 21.8846 16.8483 21.8085 16.3943 21.8846C15.7575 21.9676 15.1153 22.0027 14.4732 21.9897C14.3301 21.9897 14.187 21.9897 14.0461 22.0076C13.6883 22.0434 13.6704 22.0657 13.686 22.4549L13.9678 28.7661C13.9742 28.9084 13.9884 29.0502 14.0103 29.191C14.0109 29.218 14.0175 29.2446 14.0297 29.2688C14.042 29.293 14.0594 29.3141 14.0809 29.3306C14.1023 29.3471 14.1272 29.3586 14.1537 29.3643C14.1802 29.3699 14.2076 29.3695 14.2339 29.3632C15.2359 29.1977 16.2467 29.0724 17.1905 28.6609C17.2445 28.6444 17.2946 28.6169 17.3377 28.5803C17.3808 28.5437 17.416 28.4987 17.4411 28.4481C17.4662 28.3974 17.4808 28.3422 17.4838 28.2857C17.4869 28.2293 17.4784 28.1728 17.4589 28.1197ZM23.2736 33.2926H20.5899C20.5503 33.2869 20.5099 33.2895 20.4714 33.3002C20.4328 33.3109 20.3969 33.3294 20.3658 33.3546C20.3348 33.3798 20.3092 33.4111 20.2908 33.4466C20.2724 33.4821 20.2615 33.521 20.2589 33.5609C20.1403 34.2095 19.9994 34.8536 19.8653 35.4999C19.8317 35.6632 19.8653 35.7839 20.0553 35.813C20.7956 35.9248 21.5359 36.0367 22.2761 36.1485C22.3145 36.1595 22.3549 36.1619 22.3944 36.1555C22.4339 36.1491 22.4714 36.134 22.5043 36.1113C22.5373 36.0886 22.5648 36.059 22.5849 36.0244C22.6049 35.9898 22.6171 35.9513 22.6205 35.9114C22.8352 35.0526 23.1036 34.2028 23.2691 33.2926H23.2736ZM20.4087 33.1383C21.102 33.1383 21.7506 33.1383 22.3835 33.1383C22.5977 33.1323 22.8113 33.1129 23.0231 33.0801C23.1573 33.0622 23.3339 33.1025 23.3787 32.9146C23.4793 32.5098 23.6538 32.1184 23.6448 31.6108C23.0477 31.6108 22.4774 31.5974 21.9071 31.6108C21.5023 31.622 21.0125 31.3871 20.7196 31.6443C20.4266 31.9015 20.4959 32.445 20.4087 32.8609C20.4003 32.9531 20.3988 33.0458 20.4042 33.1383H20.4087Z" fill="#0B0B0B"/>
<path d="M11.4167 34.546C10.6049 34.5796 9.92499 34.9687 9.27867 35.4272C8.8326 35.7299 8.46347 36.1328 8.20071 36.6035C7.61477 37.6904 7.59911 38.7415 8.38633 39.7613C8.99248 40.5708 9.8811 41.1225 10.8755 41.3067C12.0831 41.546 13.2908 41.7987 14.4962 42.0447C15.0741 42.1732 15.6256 42.4002 16.1266 42.7157C16.6618 43.0133 17.1032 43.4544 17.4012 43.9894C17.6991 44.5245 17.8417 45.1321 17.8129 45.7438C17.8129 45.9674 17.8129 46.2022 17.8129 46.4684C18.3044 46.4994 18.7978 46.4844 19.2867 46.4236C20.2327 46.3565 21.1764 46.276 22.1247 46.285C22.2857 46.285 22.4445 46.3051 22.6055 46.3141C22.7966 46.3172 22.9797 46.3908 23.1197 46.5209C23.2597 46.651 23.3466 46.8282 23.3636 47.0185C23.4462 47.4611 23.4882 47.9102 23.4889 48.3604C23.4951 48.4228 23.4888 48.4859 23.4706 48.5459C23.4523 48.6059 23.4224 48.6617 23.3825 48.7101C23.3426 48.7586 23.2935 48.7986 23.2381 48.828C23.1826 48.8574 23.122 48.8756 23.0595 48.8815C22.5867 48.9782 22.1062 49.0329 21.6237 49.0447C20.0314 49.0895 18.4435 48.9709 16.8534 48.9374C16.4978 48.9173 16.1468 49.0261 15.8649 49.2438C14.7847 50.0489 13.5323 50.4805 12.2307 50.7422C11.6962 50.8495 11.7186 50.9815 11.7835 51.3773C11.8483 51.7732 11.8573 52.1243 11.8908 52.4955C11.9378 53.0054 11.9199 53.0323 11.3966 53.0859C11.1729 53.1083 10.9694 53.1083 10.7547 53.1105C10.0924 53.1094 9.43265 53.192 8.79112 53.3565C8.05087 53.5534 7.39336 54.0476 7.52084 55.1815C7.5585 55.6287 7.71272 56.0582 7.96812 56.4272C8.0741 56.5937 8.21781 56.7329 8.3876 56.8335C8.55739 56.9341 8.7485 56.9934 8.94544 57.0064C9.85566 57.0712 10.7614 57.1562 11.6716 57.23C12.101 57.2613 12.101 57.2502 12.1189 56.8141C12.2109 55.3853 12.7477 54.0212 13.6541 52.9131C14.5605 51.8049 15.7911 51.0082 17.1732 50.6348C19.5081 50.0288 21.5589 50.5431 23.2608 52.2965C23.6141 52.6588 23.6141 52.661 24.0592 52.4664C24.9895 52.0527 25.9914 51.961 26.9844 51.8537C28.3688 51.7038 29.7598 51.592 31.1464 51.4623C31.6228 51.4176 31.6787 51.4623 31.7212 51.9208C31.7631 52.2587 31.7533 52.6011 31.6921 52.9361C31.5199 53.7434 31.1397 54.1147 30.3256 54.2131C29.8649 54.2668 29.3997 54.2824 28.9346 54.3115C28.4881 54.3301 28.0453 54.4007 27.6151 54.5217C27.3155 54.5935 27.0462 54.758 26.8454 54.9916C26.6447 55.2253 26.5227 55.5163 26.4969 55.8233C26.3484 57.0145 26.4151 58.2227 26.6937 59.3904C26.7351 59.6018 26.8395 59.7956 26.9932 59.9465C27.1469 60.0974 27.3426 60.1983 27.5547 60.2358C27.847 60.3099 28.1478 60.3452 28.4493 60.3409C29.1202 60.3409 29.8068 60.3409 30.4844 60.276C30.8932 60.222 31.3079 60.2295 31.7145 60.2984C32.1975 60.4013 32.3854 60.5511 32.4167 61.0364C32.4943 61.9711 32.2852 62.9073 31.8173 63.7201C31.7515 63.8387 31.6609 63.9416 31.5517 64.0219C31.4425 64.1021 31.3172 64.1579 31.1844 64.1853C29.3237 64.5879 27.4563 64.8137 25.5509 64.4492C24.902 64.3514 24.2919 64.079 23.7861 63.661C23.2802 63.243 22.8976 62.6952 22.6793 62.0764C22.648 61.9936 22.6033 61.9176 22.5652 61.8393C22.3416 61.8393 22.1985 62.0003 22.0464 62.1121C21.0316 62.8569 19.8284 63.3024 18.5732 63.3981C18.0521 63.445 17.54 63.3332 17.0234 63.3131C16.679 63.2974 16.6611 63.2974 16.6432 63.6486C16.6231 64.0958 16.6097 64.5431 16.6208 64.9904C16.6412 65.8163 16.5662 66.6418 16.3972 67.4505C16.1624 68.6201 15.5026 69.4141 14.3598 69.7853C13.3813 70.0701 12.3752 70.2501 11.3585 70.322C9.70135 70.4875 8.03745 70.4428 6.37355 70.4473C5.25534 70.4473 4.15726 70.4473 3.04799 70.4473C2.45311 70.4473 2.2563 70.2684 2.15343 69.678C2.12393 69.4661 2.11122 69.2522 2.11541 69.0383C2.11541 68.1617 2.11541 67.285 2.11541 66.4083C2.11541 65.8559 2.19144 65.7687 2.75055 65.7061C3.07036 65.6703 3.3924 65.6367 3.71221 65.6233C6.01573 65.5115 8.31924 65.4034 10.6228 65.299C11.1282 65.2744 11.1349 65.2744 11.117 64.7869C11.1076 63.8213 10.9677 62.8614 10.701 61.9332C10.6384 61.7275 10.5624 61.5284 10.4774 61.3294C10.3708 61.0029 10.1599 60.7204 9.87696 60.5256C9.59406 60.3308 9.25495 60.2345 8.91189 60.2514C8.17835 60.2514 7.4448 60.2514 6.71125 60.2514C5.76525 60.2514 4.81477 60.2649 3.871 60.2201C2.22946 60.1396 1.51157 59.4374 1.37962 57.8026C1.26076 56.4485 1.21894 55.0888 1.25438 53.73C1.27359 53.248 1.33344 52.7684 1.4333 52.2965C1.55991 51.6757 1.92536 51.1296 2.45087 50.7757C3.01918 50.3702 3.64583 50.0535 4.30934 49.8364C4.75662 49.6911 5.19048 49.5434 5.63553 49.4137C5.67525 49.409 5.71336 49.3952 5.74692 49.3734C5.78048 49.3517 5.8086 49.3225 5.82911 49.2881C5.84963 49.2538 5.862 49.2152 5.86528 49.1753C5.86855 49.1355 5.86264 49.0954 5.848 49.0581C5.78314 48.7607 5.71157 48.4655 5.66461 48.1636C5.58857 47.6895 5.69145 47.5396 6.15215 47.4502C6.38073 47.4062 6.6127 47.3823 6.84544 47.3786C7.61328 47.3607 8.38186 47.351 9.15119 47.3495C9.6343 47.3488 10.1148 47.2787 10.578 47.1415C11.0647 47.0047 11.489 46.7036 11.779 46.2895C12.1435 45.7639 12.0742 45.2719 11.5553 44.8827C10.9074 44.4325 10.1628 44.1407 9.38154 44.0307C8.80231 43.9233 8.22307 43.807 7.65502 43.6482C6.83897 43.4191 6.12763 42.914 5.64224 42.2192C4.45694 40.562 4.03426 38.699 4.20199 36.6885C4.24441 36.1534 4.3426 35.6243 4.49496 35.1096C5.18601 32.8038 6.82978 31.5045 9.05726 30.847C9.65643 30.6599 10.2848 30.5841 10.9113 30.6233C11.1349 30.639 11.2691 30.7307 11.2803 30.9789C11.3295 32.1217 11.3854 33.2645 11.4368 34.4073C11.4347 34.4541 11.428 34.5006 11.4167 34.546ZM22.6547 61.2802C24.9694 59.7997 25.495 54.8773 23.5493 52.9227C23.2312 53.1215 22.9712 53.4008 22.7956 53.7323C22.4746 54.3325 22.2777 54.9911 22.2164 55.669C21.9927 57.3553 22.1716 59.0236 22.4646 60.6831C22.4661 60.8968 22.5324 61.105 22.6547 61.2802ZM16.5135 62.8971C16.5135 61.7789 16.5783 60.6406 16.3435 59.5157C16.2735 59.1356 16.1027 58.7813 15.8489 58.4898C15.5952 58.1982 15.2678 57.9802 14.901 57.8585C14.1555 57.6074 13.3771 57.4672 12.5908 57.4425C12.3001 57.4224 12.2464 57.4895 12.2822 57.7891C12.5707 60.1888 13.7918 61.8974 16.0483 62.8256C16.1887 62.9074 16.355 62.933 16.5135 62.8971ZM6.23937 49.4115C6.25055 50.3061 6.59943 50.7064 7.40678 50.7534C8.13585 50.7914 8.86716 50.8204 9.59624 50.845C10.1303 50.8421 10.6636 50.8055 11.193 50.7355C11.3541 50.722 11.5285 50.6974 11.5173 50.4693C11.4972 50.078 11.4748 49.6866 11.4569 49.2952C11.4569 49.0716 11.3071 48.9978 11.1036 48.9955C10.6943 48.9955 10.2851 48.9597 9.87579 48.9709C8.65048 48.971 7.42961 49.1182 6.23937 49.4093V49.4115ZM17.5109 46.701L15.648 46.8217C15.4758 46.8351 15.4065 46.9313 15.4065 47.1058C15.4065 47.4613 15.3774 47.8169 15.393 48.1725C15.3961 48.2786 15.4282 48.3817 15.4859 48.4708C15.5435 48.5598 15.6245 48.6313 15.7201 48.6775C15.8156 48.7236 15.922 48.7427 16.0276 48.7325C16.1332 48.7223 16.234 48.6833 16.3189 48.6198C16.9104 48.1234 17.328 47.4511 17.5109 46.701Z" fill="#0B0B0B"/>
<path d="M52.1773 13.1962C55.8696 14.7975 58.3856 17.3738 59.5575 21.1735C59.4968 21.234 59.4245 21.2816 59.3449 21.3135C59.2654 21.3454 59.1802 21.3609 59.0946 21.3591L55.8674 21.8691C55.7623 21.8869 55.6438 21.8847 55.5476 21.9048C55.2524 21.963 55.116 21.8131 55.0601 21.5492C55.0422 21.462 55.0287 21.3726 55.0086 21.2853C54.3824 18.7112 52.7476 17.101 50.2495 16.3205C49.961 16.231 49.6658 16.155 49.3706 16.0857C48.977 15.994 48.8517 16.0588 48.7511 16.4502C48.6848 16.7455 48.634 17.0441 48.599 17.3448C48.5169 18.1266 48.3794 18.9016 48.1875 19.6639C48.0399 20.1738 47.8454 20.3349 47.3265 20.3796C46.7652 20.4221 46.2284 20.2655 45.6827 20.1694C45.4591 20.1291 45.4904 19.9457 45.4904 19.7914C45.4904 18.9147 45.468 18.0381 45.4904 17.1636C45.5978 13.4467 45.7133 9.73124 45.8371 6.01729C45.8706 5.01761 45.9712 4.02017 46.0204 3.02049C46.0202 2.84272 46.0684 2.66826 46.1598 2.51579C46.2512 2.36332 46.3824 2.2386 46.5393 2.15499C47.2608 1.72061 48.0667 1.44535 48.9032 1.34764C50.0203 1.1795 51.1594 1.22887 52.2578 1.49301C53.2912 1.74648 54.2149 2.32723 54.8912 3.14862C55.5675 3.97002 55.9601 4.98805 56.0105 6.05084C56.2006 8.87097 55.0041 11.0224 52.8326 12.7109C52.6358 12.8652 52.4345 13.0083 52.1773 13.1962Z" fill="#0B0B0B"/>
<path d="M63.5412 50.7182C63.5233 52.2055 63.5412 53.8336 63.398 55.455C63.1878 57.8368 63.0514 60.232 62.3492 62.5422C62.1745 63.1239 61.9593 63.6926 61.7051 64.2441C61.3802 64.9927 60.8991 65.6631 60.2939 66.2104C59.6887 66.7578 58.9734 67.1694 58.1961 67.4176C56.9551 67.8248 55.6618 68.0508 54.3562 68.0885C52.4105 68.1579 50.4626 68.1869 48.5147 68.1981C47.6044 68.1981 46.692 68.1355 45.784 68.0796C45.1869 68.0438 45.1533 68.0214 45.1131 67.4198C45.0415 66.4224 45.0057 65.4205 44.9587 64.4208C44.9527 64.2963 44.9625 64.1716 44.9878 64.0495C45.0639 63.6984 45.1757 63.6023 45.538 63.6023C45.7616 63.6023 46.0032 63.6157 46.2357 63.6246C48.7192 63.7296 51.2071 63.6203 53.6718 63.2981C54.219 63.2188 54.7617 63.1113 55.2977 62.9761C55.8813 62.8336 56.4302 62.575 56.9116 62.2157C57.3931 61.8564 57.7972 61.4039 58.1 60.885C58.5646 60.1186 58.8654 59.2642 58.9833 58.3757C59.1653 57.2082 59.2558 56.0283 59.2539 54.8467C59.2539 54.7393 59.2539 54.623 59.2539 54.5246C59.2651 54.263 59.1779 54.1265 58.8827 54.1556C58.5875 54.1847 58.3482 54.1668 58.0798 54.1735C57.7938 54.1798 57.5079 54.1535 57.2278 54.0952C56.6583 54.0065 56.1344 53.7313 55.7382 53.3128C55.3419 52.8944 55.0958 52.3562 55.0383 51.7828C54.9242 51.0023 54.9131 50.2173 54.8616 49.4323C54.8169 48.7614 54.8616 48.0726 54.7654 47.3972C54.7364 47.2003 54.7945 47.0908 55.0092 47.0841C55.6331 47.0382 56.2595 47.0382 56.8833 47.0841C56.9457 47.0841 57.0074 47.0964 57.065 47.1204C57.1225 47.1444 57.1747 47.1795 57.2186 47.2238C57.2625 47.2681 57.2971 47.3207 57.3206 47.3785C57.344 47.4362 57.3558 47.4981 57.3552 47.5604C57.3955 47.9317 57.4492 48.3051 57.5006 48.6786C57.5928 49.3517 57.7905 50.0061 58.0865 50.6176C58.3504 51.1745 58.7105 51.6419 59.3971 51.6508C60.0837 51.6598 60.5019 51.2035 60.7926 50.6444C61.146 49.9601 61.1952 49.2042 61.26 48.4595C61.3405 47.5313 61.26 46.601 61.26 45.6706C61.26 45.5476 61.26 45.4224 61.26 45.2971C61.26 45.0847 61.3472 44.9595 61.5709 44.946C62.0361 44.917 62.499 44.87 62.9619 44.8633C63.369 44.8633 63.4316 44.9214 63.4383 45.3262C63.4562 47.0773 63.6105 48.8262 63.5412 50.7182Z" fill="#0B0B0B"/>
<path d="M32.0476 0.976762C34.0604 0.976762 35.9032 1.44418 37.453 2.80168C38.3767 3.61127 38.9894 4.57293 39.0744 5.83427C39.1236 6.53203 39.146 6.53651 39.8661 6.5298C41.2594 6.51638 42.6527 6.49625 44.0482 6.48507C44.5648 6.48507 44.5581 6.49849 44.6453 7.00839C44.7974 7.90296 44.6454 8.79753 44.4978 9.67197C44.4778 9.869 44.3883 10.0525 44.2452 10.1894C44.1022 10.3263 43.9149 10.4077 43.7172 10.4189C42.722 10.5755 41.7224 10.5308 40.7227 10.5621C39.7946 10.5934 38.8642 10.5956 37.9361 10.5956C37.8303 10.591 37.7248 10.6114 37.6284 10.6554C37.532 10.6993 37.4474 10.7654 37.3815 10.8483C36.3867 11.9604 35.102 12.7735 33.6712 13.1966C33.347 13.2994 33.0271 13.409 32.7051 13.5186C32.542 13.5694 32.3961 13.6641 32.2833 13.7923C32.1705 13.9205 32.0951 14.0773 32.0655 14.2455C31.965 14.7355 31.9044 15.2329 31.8843 15.7327C31.8329 16.6429 31.7949 17.5531 31.7613 18.4633C31.7476 18.7492 31.7102 19.0335 31.6495 19.3132C31.5932 19.6785 31.4252 20.0173 31.1685 20.2832C30.9118 20.5491 30.579 20.729 30.216 20.7982C29.7972 20.8913 29.3701 20.9422 28.9412 20.9502C28.8893 20.9617 28.8354 20.9613 28.7837 20.949C28.7319 20.9367 28.6836 20.913 28.6423 20.8794C28.601 20.8459 28.5679 20.8035 28.5453 20.7553C28.5227 20.7072 28.5112 20.6545 28.5118 20.6014C28.4246 20.0534 28.4693 19.501 28.4335 18.9509C28.2233 15.7036 28.1294 12.4653 28.0668 9.20232C28.0243 7.00392 27.9192 4.80775 27.8431 2.61382C27.8163 1.90264 27.9438 1.70807 28.6214 1.47325C29.7322 1.13731 30.8871 0.969948 32.0476 0.976762ZM38.9425 6.73331C38.9023 6.70404 38.8567 6.68304 38.8083 6.67152C38.7599 6.66 38.7098 6.6582 38.6607 6.66622C37.699 6.702 36.7351 6.7266 35.7735 6.78475C35.3829 6.81884 34.9956 6.88314 34.615 6.97708C34.3677 7.02362 34.1379 7.13735 33.951 7.30579C33.764 7.47423 33.627 7.6909 33.5549 7.93204C33.375 8.45477 33.2725 9.00103 33.2508 9.55344C33.2239 10.1617 33.3089 10.2669 33.8993 10.3787C33.9687 10.3921 34.0402 10.3988 34.1096 10.4055C35.107 10.4883 36.1067 10.4793 37.1064 10.4793C37.2395 10.4883 37.3724 10.4605 37.4908 10.399C37.6091 10.3375 37.7082 10.2446 37.7773 10.1304C38.2432 9.45381 38.5924 8.70392 38.8105 7.91191C38.9067 7.52277 39.0275 7.12469 38.938 6.73331H38.9425Z" fill="#0B0B0B"/>
<path d="M35.7229 21.6719C37.2884 21.6719 38.8539 21.6719 40.4015 21.6719C40.5293 21.6896 40.6592 21.6631 40.7699 21.5968C40.8805 21.5305 40.9652 21.4284 41.0098 21.3074C41.2172 20.8684 41.5713 20.5156 42.011 20.3098C42.4508 20.104 42.9485 20.0582 43.4185 20.1802C43.8655 20.3177 44.2559 20.5965 44.5309 20.9747C44.8059 21.353 44.9508 21.8103 44.9437 22.278C44.9146 23.3492 44.2459 24.2304 43.2217 24.3713C42.3584 24.4898 41.5712 24.8946 40.6945 24.955C40.037 24.9997 39.384 25.1227 38.7309 25.2122C38.6079 25.2301 38.4871 25.2681 38.3641 25.2927C38.2582 25.3072 38.1618 25.3615 38.0945 25.4446C38.0271 25.5277 37.994 25.6333 38.0018 25.74C38.0018 25.9368 38.0018 26.1336 38.0018 26.3304C38.1509 29.3451 38.3045 32.3605 38.4625 35.3767C38.5096 35.8756 38.5006 36.3782 38.4357 36.8751C38.3932 37.0987 38.3105 37.2978 38.06 37.3336C37.3557 37.4599 36.6362 37.4779 35.9264 37.3872C35.7023 37.368 35.4919 37.2709 35.3318 37.1128C35.1717 36.9548 35.0719 36.7457 35.0498 36.5218C34.8373 35.361 34.6875 34.1914 34.551 33.0218C34.2693 30.6444 34.0613 28.2604 33.9025 25.8652C33.8689 25.3575 33.8488 25.3508 33.3121 25.3665C32.3653 25.3933 31.4186 25.4172 30.4718 25.438C29.7584 25.4537 29.7673 25.4492 29.6846 24.7671C29.6276 24.2338 29.603 23.6976 29.6108 23.1614C29.6154 22.9471 29.6439 22.7341 29.6958 22.5262C29.717 22.383 29.7859 22.2512 29.8915 22.1521C29.997 22.0531 30.133 21.9926 30.2772 21.9805C30.4703 21.9449 30.6651 21.9203 30.861 21.9067C32.4958 21.8799 34.1127 21.7569 35.7229 21.6719ZM42.2868 24.132C42.3226 24.0783 42.3539 24.0515 42.3562 24.0224C42.4054 23.4007 42.2801 22.7856 42.26 22.1662C42.2606 22.1257 42.2525 22.0855 42.2364 22.0484C42.2202 22.0113 42.1962 21.9781 42.1662 21.951C42.1361 21.9239 42.1006 21.9035 42.062 21.8912C42.0234 21.879 41.9826 21.8751 41.9424 21.8799C41.7188 21.8799 41.4795 21.8799 41.2514 21.8799C41.0233 21.8799 40.9651 21.9582 40.945 22.1505C40.8919 22.5958 41.0033 23.0451 41.2581 23.4141C41.5086 23.7741 41.8105 24.085 42.2868 24.1275V24.132Z" fill="#0B0B0B"/>
<path d="M45.6484 21.5629C46.1986 21.5629 46.6951 21.5473 47.1893 21.5629C48.0481 21.5942 48.359 21.8335 48.6475 22.6386C49.4724 24.9236 50.068 27.2849 50.4254 29.6878C50.4702 30.0054 50.5373 30.3207 50.5976 30.6361C50.6111 30.7032 50.6379 30.7703 50.6692 30.8709C50.7721 30.7318 50.827 30.5631 50.8258 30.3901C51.1008 28.2453 51.4475 26.114 51.8254 23.9872C51.9242 23.3522 52.0684 22.7251 52.2571 22.1108C52.436 21.5651 52.5657 21.4913 53.1248 21.5853C53.4631 21.6202 53.7925 21.7148 54.0976 21.8648C54.2662 21.9445 54.4079 22.0716 54.5056 22.2304C54.6033 22.3892 54.6527 22.573 54.6478 22.7594C54.6325 23.5079 54.5713 24.2548 54.4644 24.9958C54.1662 27.4961 53.8882 29.9987 53.6302 32.5035C53.5198 33.6774 53.3406 34.8438 53.0935 35.9968C52.919 36.7907 52.7111 36.9696 51.9015 37.0278C51.1541 37.072 50.4041 37.0338 49.665 36.9137C48.9293 36.8041 48.5334 36.4038 48.3925 35.6792C48.1264 34.2949 47.8222 32.9195 47.5472 31.5351C46.9858 28.6993 46.3775 25.8725 45.881 23.0233C45.7893 22.5469 45.7222 22.0527 45.6484 21.5629Z" fill="#0B0B0B"/>
<path d="M32.4034 47.6629C32.4118 48.1 32.3901 48.5371 32.3386 48.9712C32.3283 49.0964 32.2726 49.2134 32.182 49.3004C32.0913 49.3873 31.972 49.4381 31.8466 49.4431C30.2831 49.6573 28.6921 49.5361 27.1791 49.0875C25.437 48.5709 24.4954 47.3185 24.3657 45.4511C24.2646 43.9301 24.5133 42.4061 25.0926 40.9961C25.8194 39.1667 27.1881 38.1671 29.06 37.7667C29.4438 37.6771 29.8382 37.6417 30.2319 37.6616C30.4085 37.6616 30.489 37.7488 30.4823 37.9278C30.4555 38.5987 30.4577 39.2853 30.3951 39.9629C30.3927 40.0798 30.347 40.1916 30.2669 40.2768C30.1867 40.3619 30.0778 40.4142 29.9613 40.4236C29.7152 40.4683 29.467 40.5063 29.221 40.5488C28.8658 40.6028 28.5249 40.7271 28.2184 40.9146C27.9119 41.102 27.646 41.3488 27.4362 41.6405C27.2264 41.9322 27.077 42.2628 26.9968 42.613C26.9165 42.9632 26.9071 43.3259 26.9689 43.6798C27.2641 45.6591 28.4785 46.2249 30.2117 46.2159C30.621 46.2159 31.0303 46.1399 31.4395 46.1063C31.5816 46.0929 31.7246 46.0929 31.8667 46.1063C32.2089 46.1466 32.2938 46.2204 32.3319 46.576C32.3699 46.9316 32.3855 47.3498 32.4034 47.6629Z" fill="#0B0B0B"/>
<path d="M33.5883 51.2906C34.5381 51.1553 35.496 51.0843 36.4554 51.0781C37.057 51.0915 37.2068 51.228 37.2807 51.8251C37.3135 52.1453 37.3284 52.4671 37.3254 52.789C37.3254 55.665 37.2985 58.5388 37.2449 61.4149C37.2398 61.9864 37.1919 62.5568 37.1017 63.1213C37.0011 63.7161 36.8222 63.8839 36.2295 63.9487C35.6439 64.0347 35.046 63.974 34.4896 63.7721C34.268 63.701 34.0714 63.5681 33.9228 63.389C33.7742 63.2099 33.6799 62.9921 33.6509 62.7612C33.5852 62.3013 33.556 61.8369 33.5637 61.3724C33.5637 58.1206 33.5637 54.8689 33.5637 51.6171C33.5637 51.5299 33.5771 51.4427 33.5883 51.2906Z" fill="#0B0B0B"/>
<path d="M46.7578 39.5896C46.7578 39.4465 46.7578 39.3034 46.7578 39.1625C46.7578 38.5318 46.7578 38.5385 47.4019 38.5162C50.2958 38.4237 53.1898 38.3298 56.0837 38.2344C56.3073 38.2344 56.5489 38.2344 56.7792 38.2567C56.9648 38.2567 57.0834 38.3395 57.0767 38.5497C57.1013 39.1029 57.0721 39.6571 56.9894 40.2047C56.9735 40.3387 56.9102 40.4626 56.811 40.554C56.7118 40.6455 56.5831 40.6985 56.4482 40.7034C55.9316 40.7615 55.4128 40.766 54.8962 40.7749C54.5741 40.7749 54.2521 40.8063 53.9323 40.8241C53.8694 40.8224 53.807 40.8339 53.7489 40.8578C53.6908 40.8818 53.6385 40.9178 53.5952 40.9634C53.5519 41.0089 53.5188 41.0631 53.4979 41.1223C53.4769 41.1816 53.4687 41.2446 53.4738 41.3072C53.4626 41.7008 53.4268 42.0922 53.4335 42.4858C53.4537 43.7561 53.3709 45.0242 53.3061 46.2877C53.2904 46.574 53.2367 46.8558 53.1965 47.1376C53.1897 47.2646 53.1348 47.3842 53.043 47.4723C52.9512 47.5603 52.8294 47.6102 52.7022 47.6117C52.1677 47.6718 51.627 47.6454 51.1009 47.5334C50.958 47.5119 50.8271 47.4407 50.7314 47.3323C50.6357 47.2239 50.5813 47.0853 50.5776 46.9408C50.5329 46.4241 50.4725 45.9098 50.4479 45.3909C50.392 44.1408 50.3517 42.8906 50.3048 41.6404C50.3048 41.5689 50.3048 41.4973 50.3048 41.4168C50.2869 40.9382 50.2847 40.9404 49.8195 40.9539C49.2291 40.9695 48.6386 40.9785 48.0505 40.9852C47.7642 40.9812 47.4796 40.9421 47.2029 40.8689C47.0857 40.854 46.9783 40.796 46.9014 40.7064C46.8245 40.6167 46.7837 40.5016 46.7869 40.3836C46.7869 40.1152 46.7869 39.8468 46.7869 39.5785L46.7578 39.5896Z" fill="#0B0B0B"/>
<path d="M31.1094 40.8995C31.1094 40.4008 31.1094 39.6158 31.1094 38.8286C31.1094 38.2918 31.1988 38.1576 31.7177 38.0391C32.4644 37.8454 33.2452 37.8229 34.0019 37.9731C34.7586 38.1234 35.4716 38.4425 36.0877 38.9068C36.6714 39.3273 36.9129 39.9669 37.0091 40.6602C37.1446 41.5185 36.953 42.3964 36.4723 43.1202C36.2666 43.4311 36.025 43.7308 35.8014 44.026C35.5107 44.4017 35.4995 44.404 35.8193 44.726C36.2218 45.1308 36.6222 45.5378 37.0448 45.9225C37.9394 46.7298 38.834 47.5215 39.7285 48.3199C39.8225 48.4027 39.9164 48.4832 40.0059 48.5704C40.1602 48.7225 40.1445 48.85 39.9455 48.9461C39.8988 48.9725 39.8493 48.9935 39.7979 49.0087C38.96 49.1817 38.1206 49.3524 37.2797 49.5209C37.0337 49.5701 36.8771 49.4068 36.7317 49.2503C35.9386 48.4004 35.1476 47.5491 34.3589 46.6963C33.9832 46.2915 33.6209 45.8733 33.2161 45.4909C33.1192 45.3866 33.0002 45.3052 32.8679 45.2526C32.7356 45.2 32.5933 45.1775 32.4512 45.1867C32.1851 45.2024 31.9167 45.1755 31.6484 45.1867C31.4247 45.1867 31.3375 45.1241 31.3241 44.8825C31.2615 43.648 31.1541 42.4202 31.1094 40.8995ZM32.3953 40.4075C32.8269 40.0787 33.3861 40.1838 33.8244 39.8685C33.6902 39.7665 33.5277 39.7087 33.3592 39.703C32.8269 39.6583 32.2924 39.6046 31.7602 39.5733C31.2279 39.542 31.2391 39.5733 31.2503 40.0631C31.2749 41.027 31.3107 41.9886 31.342 42.9525C31.342 43.0241 31.342 43.0934 31.3576 43.165C31.3777 43.3528 31.4605 43.458 31.673 43.4266C32.3117 43.3633 32.9448 43.2527 33.5672 43.0957C33.6857 43.0599 33.8669 43.0733 33.896 42.8564C33.4599 42.6327 32.9343 42.6752 32.4445 42.4091C32.9656 42.0512 33.594 42.1004 34.1107 41.7627C33.5717 41.5167 32.9924 41.633 32.4087 41.3423C32.9365 41.0739 33.4509 41.0516 33.9161 40.8078C33.4263 40.5573 32.8605 40.7228 32.3953 40.4075Z" fill="#0B0B0B"/>
<path d="M48.7395 58.369C48.7954 56.8326 48.8648 55.2962 48.9945 53.7642C49.0302 53.3281 48.9945 53.2789 48.5472 53.232C47.9076 53.1649 47.2814 53.0083 46.6529 52.8853C46.2548 52.807 46.2057 52.7377 46.2459 52.3374C46.2708 52.0525 46.3172 51.7699 46.3846 51.492C46.4136 51.3128 46.5027 51.1488 46.6372 51.0269C46.7717 50.905 46.9436 50.8324 47.1248 50.8211C47.3485 50.7965 47.5855 50.7629 47.8181 50.754L53.4405 50.5304C53.5478 50.5304 53.6641 50.5304 53.7625 50.5304C53.8028 50.5243 53.844 50.5274 53.883 50.5392C53.922 50.551 53.9579 50.5714 53.988 50.5988C54.0182 50.6261 54.0419 50.6599 54.0575 50.6976C54.073 50.7353 54.08 50.7759 54.0779 50.8166C54.1181 51.5487 54.1561 52.28 54.1919 53.0106C54.1992 53.0548 54.1966 53.1001 54.1843 53.1432C54.172 53.1863 54.1503 53.2262 54.1209 53.26C54.0914 53.2937 54.0548 53.3205 54.0137 53.3385C53.9726 53.3565 53.9281 53.3652 53.8833 53.3639C53.474 53.4109 53.0692 53.4735 52.6622 53.5294C52.537 53.5451 52.4095 53.5428 52.2887 53.5674C51.7945 53.6658 51.6983 53.7754 51.7095 54.2898C51.7564 56.1661 51.7341 58.0425 51.6178 59.9166C51.5954 60.2923 51.5462 60.6636 51.5082 61.0348C51.5044 61.1521 51.4581 61.264 51.3778 61.3496C51.2976 61.4352 51.1889 61.4887 51.0721 61.5C50.5678 61.6205 50.0519 61.6858 49.5334 61.6946C48.8961 61.6812 48.7529 61.5492 48.7462 60.8962C48.7328 60.0486 48.7395 59.2099 48.7395 58.369Z" fill="#0B0B0B"/>
<path d="M41.4883 27.6206C41.4883 27.0123 41.4883 26.4062 41.4883 25.8002C41.4883 25.5765 41.533 25.4334 41.8014 25.4133C42.5818 25.328 43.3669 25.2929 44.1519 25.3082C44.7736 25.335 44.8474 25.4066 44.8876 26.0328C44.986 27.5804 45.0666 29.1324 45.1672 30.6823C45.2499 31.9637 45.3483 33.2452 45.4468 34.5267C45.4977 35.1105 45.5044 35.6974 45.4669 36.2823C45.4177 36.9532 45.2432 37.112 44.5723 37.1634C44.1448 37.197 43.7148 37.1812 43.2908 37.1165C42.6199 37.0181 42.3292 36.7161 42.2487 36.0385C41.9244 33.2475 41.7142 30.4363 41.4883 27.6206Z" fill="#0B0B0B"/>
<path d="M55.6139 23.5838C56.2059 23.494 56.8041 23.4507 57.403 23.4541C59.1318 23.3579 60.8471 23.103 62.5781 23.0448C62.8442 23.0448 63.1126 23.0448 63.381 23.0448C63.5708 23.032 63.7593 23.0854 63.9142 23.1959C64.0692 23.3064 64.1811 23.4672 64.2308 23.6509C64.5006 24.4841 64.6409 25.3537 64.6468 26.2295C64.6468 26.5739 64.5036 26.7103 64.0765 26.8266C63.4545 26.9866 62.8187 27.0869 62.1778 27.1263C60.6279 27.2404 59.0758 27.265 57.5215 27.2314C56.4503 27.2091 56.2222 27.0212 55.9918 25.9857C55.8576 25.3774 55.7391 24.7646 55.6228 24.1519C55.5664 23.9671 55.5633 23.7702 55.6139 23.5838Z" fill="#0B0B0B"/>
<path d="M58.7483 34.1137C60.3585 34.098 61.7697 34.0421 63.1787 34.1137C64.1672 34.1629 64.3595 34.3552 64.3886 35.337C64.3886 35.6926 64.4109 36.0504 64.4042 36.4083C64.4042 36.9808 64.3148 37.0792 63.7333 37.1776C63.4685 37.2198 63.2008 37.2408 62.9327 37.2402C60.3272 37.2402 57.7196 37.2402 55.1052 37.3163C54.0921 37.3476 53.893 37.1351 53.8483 36.1108C53.8327 35.6288 53.8573 35.1463 53.9221 34.6683C53.9202 34.6151 53.9298 34.562 53.9502 34.5128C53.9706 34.4635 54.0013 34.4193 54.0404 34.383C54.0794 34.3467 54.1258 34.3193 54.1764 34.3025C54.227 34.2858 54.2806 34.2801 54.3336 34.2859C54.4767 34.2859 54.6176 34.2636 54.7608 34.2591L58.7483 34.1137Z" fill="#0B0B0B"/>
<path d="M39.1542 16.8277L42.8465 16.9798C42.9717 16.9798 43.097 16.9977 43.2222 16.9954C43.882 16.9954 43.8797 16.9954 43.882 17.6664C43.909 18.0947 43.866 18.5245 43.7545 18.9389C43.7206 19.1062 43.6322 19.2576 43.5031 19.3693C43.374 19.4809 43.2115 19.5467 43.0411 19.5561C42.7213 19.5852 42.4037 19.6188 42.0816 19.621C40.0689 19.621 38.0807 19.5651 36.0836 19.489C35.4238 19.4644 34.7663 19.3728 34.1133 19.2833C33.3976 19.1849 33.2701 19.0037 33.3417 18.2903C33.4692 17.0156 33.742 16.7606 35.0302 16.7539C36.4056 16.7539 37.7788 16.7539 39.1542 16.7539V16.8277Z" fill="#0B0B0B"/>
<path d="M15.6764 38.3853C15.7994 38.3719 15.8866 38.354 15.9716 38.354C18.0269 38.3652 20.0822 38.3138 22.1352 38.3921C23.4279 38.4413 23.6448 38.7588 23.7007 39.9844C23.7454 41.1026 23.6112 41.2569 22.4863 41.3262C20.5404 41.4143 18.5906 41.3657 16.6515 41.1809C15.9247 41.1205 15.7122 40.8879 15.6876 40.1611C15.6608 39.5841 15.6764 39.0138 15.6764 38.3853Z" fill="#0B0B0B"/>
<path d="M58.8251 32.6325C58.0222 32.5945 57.2216 32.5587 56.4209 32.5118C55.8596 32.4805 55.75 32.3709 55.6807 31.8118C55.5953 31.0696 55.5632 30.3222 55.5845 29.5754C55.5845 29.1012 55.5979 29.0856 56.0631 29.1012C57.2395 29.1415 58.4158 29.1817 59.59 29.2488C60.2317 29.2653 60.8722 29.3153 61.5088 29.3987C62.2155 29.5127 62.4861 29.7498 62.674 30.452C62.7729 30.923 62.8053 31.4056 62.7701 31.8856C62.7731 32.0118 62.7315 32.1351 62.6525 32.2337C62.5736 32.3323 62.4624 32.3999 62.3385 32.4246C61.9437 32.5392 61.5352 32.6002 61.1241 32.6057C60.3593 32.6191 59.5922 32.6057 58.8251 32.6057V32.6325Z" fill="#0B0B0B"/>
<path d="M41.1125 58.3423C42.1972 58.2439 43.1096 58.2573 44.0198 58.2461C44.1447 58.2458 44.2694 58.2532 44.3933 58.2685C44.9189 58.34 45.0419 58.472 45.0464 58.9908C45.0464 59.5813 45.0464 60.1694 45.0464 60.7598C45.0464 61.3503 44.9502 61.4308 44.3978 61.442C43.7738 61.4531 43.1476 61.4285 42.5237 61.4062C41.3451 61.3614 40.1665 61.3055 38.9879 61.2519C38.8451 61.2478 38.7029 61.2314 38.563 61.2027C38.2007 61.1266 38.1157 61.0349 38.0933 60.6614C38.062 60.0554 38.0598 59.4471 38.0285 58.8388C38.0151 58.5614 38.1202 58.4765 38.3997 58.4675C39.3614 58.4384 40.323 58.3803 41.1125 58.3423Z" fill="#0B0B0B"/>
<path d="M26.5944 0.777405C26.6333 1.37438 26.6123 1.97375 26.5318 2.56654C26.4692 2.96686 26.4357 3.00041 26.0085 3.01383C25.0267 3.04737 24.0449 3.05632 23.0654 3.08316C21.6922 3.11894 20.3213 3.22852 18.9459 3.19721C18.6454 3.19293 18.3459 3.16073 18.0513 3.10105C17.7337 3.02948 17.6421 2.89306 17.6532 2.56654C17.6532 2.533 17.6644 2.49721 17.6689 2.46143C17.8321 1.27389 18.0357 0.86686 19.3753 0.817659C21.6944 0.734911 24.0114 0.647692 26.3305 0.748331L26.5944 0.777405Z" fill="#0B0B0B"/>
<path d="M40.3631 13.0977C41.2577 13.0977 42.1522 13.0977 43.0468 13.0977C43.3331 13.0977 43.427 13.205 43.4359 13.4667C43.4696 13.9844 43.4448 14.5043 43.3621 15.0165C43.2816 15.4414 43.1385 15.5935 42.6912 15.6628C42.4448 15.7056 42.1962 15.734 41.9465 15.7478C40.3586 15.8015 38.773 15.9536 37.1807 15.8753C36.8609 15.8596 36.5411 15.8149 36.2235 15.7679C36.1694 15.7671 36.1159 15.7554 36.0664 15.7336C36.0169 15.7117 35.9722 15.6801 35.9351 15.6407C35.898 15.6013 35.8692 15.5549 35.8503 15.5041C35.8315 15.4534 35.823 15.3993 35.8254 15.3453C35.7963 14.8807 35.8165 14.4144 35.8858 13.9542C35.9931 13.4465 36.1542 13.2833 36.6685 13.2296C37.307 13.1555 37.9491 13.1159 38.5919 13.1111C39.1823 13.1111 39.7727 13.1111 40.3609 13.1111L40.3631 13.0977Z" fill="#0B0B0B"/>
<path d="M41.9495 38.5195C42.8776 38.5195 43.8057 38.5195 44.7316 38.5195C45.1453 38.5195 45.1475 38.533 45.1565 38.9422C45.1654 39.3515 45.1766 39.6937 45.1565 40.0604C45.1364 40.4272 44.9977 40.5949 44.6019 40.6464C44.3559 40.6777 44.1054 40.6844 43.8549 40.6978C42.2357 40.7932 40.6158 40.8872 38.9951 40.9796C38.693 41.0042 38.3893 41.0042 38.0872 40.9796C37.6757 40.9326 37.5303 40.756 37.5146 40.3489C37.503 40.1164 37.5263 39.8834 37.584 39.6579C37.7584 38.9869 37.9999 38.7633 38.691 38.7096C39.7757 38.5978 40.8626 38.5486 41.9495 38.5195Z" fill="#0B0B0B"/>
<path d="M42.2255 53.2184C41.4741 53.2184 40.7249 53.2184 39.9757 53.2184C39.7798 53.212 39.5847 53.1911 39.392 53.1557C39.2836 53.144 39.1817 53.098 39.1013 53.0244C39.0208 52.9508 38.966 52.8534 38.9447 52.7465C38.8346 52.2581 38.791 51.7571 38.815 51.257C38.815 51.0781 38.9223 51.0043 39.0834 50.9909C39.1728 50.9909 39.2623 50.9775 39.3517 50.9752C41.1409 50.9529 42.93 50.8477 44.7057 50.888C45.3767 50.9037 45.569 51.0982 45.5511 51.758C45.5511 52.0979 45.5086 52.4289 45.4862 52.7733C45.489 52.8181 45.4827 52.863 45.4677 52.9053C45.4528 52.9476 45.4295 52.9865 45.3993 53.0196C45.369 53.0528 45.3324 53.0796 45.2917 53.0983C45.2509 53.1171 45.2068 53.1275 45.162 53.1289C44.9137 53.1535 44.6655 53.1982 44.4172 53.2005C43.6837 53.2005 42.9524 53.2005 42.2211 53.2005L42.2255 53.2184Z" fill="#0B0B0B"/>
<path d="M41.1784 42.5428C41.7666 42.5182 42.3548 42.498 42.943 42.4667C43.1868 42.4511 43.312 42.5316 43.3165 42.7888C43.3165 43.2159 43.3523 43.6453 43.3455 44.0725C43.3455 44.4281 43.2606 44.5197 42.8983 44.5488C41.4043 44.6763 39.9126 44.8373 38.412 44.8485C38.3404 44.8485 38.2689 44.8485 38.1995 44.8351C37.6538 44.7792 37.5286 44.6405 37.5085 44.0926C37.5058 43.9679 37.5111 43.8432 37.5241 43.7191C37.5979 42.9565 37.8037 42.7731 38.5507 42.6971C39.4296 42.6098 40.3062 42.5942 41.1784 42.5428Z" fill="#0B0B0B"/>
<path d="M42.0216 47.9673C41.5207 47.9673 41.0219 47.9785 40.5232 47.9673C40.0245 47.9562 39.7807 47.6587 39.7517 47.0728C39.7293 46.6031 39.9328 46.3191 40.4114 46.261C41.4737 46.1335 42.5382 46.0373 43.605 45.9322C44.2603 45.8696 44.92 45.8181 45.5775 45.7801C45.9823 45.7555 46.0025 45.7801 46.0248 46.1827C46.0427 46.4851 46.0427 46.7883 46.0248 47.0907C46.0047 47.5201 45.9152 47.6095 45.4747 47.6498C44.3207 47.7526 43.1667 47.8488 42.0104 47.9472L42.0216 47.9673Z" fill="#0B0B0B"/>
<path d="M40.6608 55.0273C41.1975 55.0273 41.732 55.0273 42.2666 55.0273C42.7317 55.0385 42.9084 55.1928 43.018 55.6312C43.1013 55.9984 43.1104 56.3786 43.0448 56.7494C43.0396 56.8386 43.0019 56.9229 42.9389 56.9863C42.8759 57.0497 42.7919 57.088 42.7027 57.0938C42.5274 57.128 42.3505 57.1534 42.1726 57.1698C41.211 57.2097 40.2479 57.197 39.2876 57.1318C38.8694 57.1072 38.7263 56.9976 38.6592 56.6063C38.6021 56.2006 38.5662 55.7923 38.5519 55.3829C38.5362 55.1436 38.6928 55.0877 38.8985 55.09H40.6608V55.0273Z" fill="#0B0B0B"/>
<path d="M18.4529 42.9735C18.934 43.0303 19.4197 43.0371 19.9021 42.9936C20.8101 42.9645 21.7181 42.922 22.6261 42.8885C23.2434 42.8683 23.3932 43.0159 23.3843 43.6287C23.383 43.7356 23.3763 43.8423 23.3641 43.9485C23.2948 44.4651 23.2277 44.5568 22.7178 44.6441C21.5196 44.8369 20.3035 44.8939 19.0926 44.814C18.5357 44.7805 18.4105 44.6418 18.3702 44.0917C18.3287 43.717 18.3567 43.3379 18.4529 42.9735Z" fill="#0B0B0B"/>
</g>
<defs>
<clipPath id="clip0_3357_4483">
<rect width="64.4089" height="70" fill="white" transform="translate(0.296875 0.5)"/>
</clipPath>
</defs>
</svg>
