<svg width="143" height="49" viewBox="0 0 143 49" fill="none" xmlns="http://www.w3.org/2000/svg">
<g clip-path="url(#clip0_3269_3316)">
<path d="M42.8625 48.4199H31.3785C30.8043 48.4199 30.8761 48.4687 30.8761 47.9146C30.8761 46.2867 30.8761 44.6617 30.8761 43.0339C30.8761 42.9506 30.8761 42.8673 30.8761 42.787C30.8761 42.4482 30.8761 42.4424 30.543 42.4424H25.4183C24.8269 42.4424 24.9044 42.3793 24.9044 42.9764C24.9044 44.6014 24.9044 46.2283 24.9044 47.8572C24.9044 47.9261 24.9044 47.995 24.9044 48.0639C24.9044 48.417 24.9044 48.4199 24.5398 48.4199H13.3141C12.9438 48.4199 12.9409 48.4199 12.9409 48.0294V42.9477C12.9409 42.8501 12.9409 42.7554 12.9409 42.6606C12.9409 42.5027 12.8777 42.4367 12.7227 42.4424C12.628 42.4424 12.5304 42.4424 12.4356 42.4424H7.42284C6.89745 42.4424 6.94913 42.4855 6.94913 41.9486C6.94913 40.3351 6.94913 38.7245 6.94913 37.111V36.8641C6.94913 36.4363 6.96348 36.4621 6.54719 36.4621H1.42245C0.968829 36.4478 0.968829 36.4478 0.968829 36.0257V30.901C0.968829 30.4273 0.951603 30.4675 1.42532 30.4675H6.38641C6.4668 30.4675 6.55006 30.4675 6.63045 30.4675C6.94051 30.4675 6.94339 30.4675 6.94626 30.1431C6.94626 29.7727 6.94626 29.4052 6.94626 29.0349V12.9257C6.94626 12.5237 6.94626 12.5209 7.34532 12.5209H12.3925C12.4882 12.5151 12.584 12.5151 12.6796 12.5209C12.8864 12.5409 12.9438 12.4347 12.9294 12.251C12.9294 12.1419 12.9294 12.0328 12.9294 11.9237V1.06268C12.9294 0.502837 12.8777 0.560257 13.4376 0.560257H18.4389C18.5365 0.560257 18.6312 0.560257 18.726 0.560257C18.8667 0.560257 18.9241 0.623419 18.9212 0.758356C18.9183 0.893294 18.9212 0.947843 18.9212 1.04546V6.04961C18.9212 6.14436 18.9212 6.2391 18.9212 6.33671C18.9212 6.43433 18.97 6.54343 19.1107 6.54056H24.402C24.4967 6.54056 24.5914 6.54056 24.6891 6.54056C24.8498 6.54056 24.913 6.60659 24.9072 6.76162C24.9072 6.85637 24.9072 6.95111 24.9072 7.04872V12.1304C24.9072 12.5151 24.9072 12.518 25.2833 12.5209C26.047 12.5209 26.8136 12.5209 27.5801 12.5209H30.4081C30.9306 12.5209 30.8818 12.5668 30.8818 12.027C30.8818 10.4001 30.8818 8.77324 30.8818 7.14634C30.8818 7.07743 30.8818 7.00853 30.8818 6.93962C30.8818 6.54056 30.8818 6.53768 31.2837 6.53768H36.4515C36.8736 6.53768 36.8765 6.53768 36.8765 6.95972V17.9901C36.8765 18.5643 36.8133 18.5069 37.4105 18.5069H54.3034C54.8949 18.5069 54.8231 18.4466 54.8231 19.0352C54.8231 20.6889 54.8231 22.3426 54.8231 23.9962C54.8231 24.091 54.8231 24.1886 54.8231 24.2833C54.8231 24.3781 54.869 24.4901 55.0126 24.4872C55.093 24.4872 55.1762 24.4872 55.2595 24.4872H66.2841C66.7722 24.4872 66.7406 24.5331 66.7406 24.0135C66.7406 22.3483 66.7406 20.6802 66.7406 19.0122C66.7406 18.9174 66.7406 18.8227 66.7406 18.7251C66.7406 18.5729 66.8038 18.4954 66.9617 18.5069C66.9885 18.5083 67.0153 18.5083 67.0421 18.5069H72.4568C72.7439 18.5069 72.7439 18.5069 72.764 18.794C72.764 18.86 72.764 18.9289 72.764 18.9978V29.945C72.764 30.5507 72.764 30.456 72.2587 30.456C70.6308 30.456 69.0058 30.456 67.378 30.456H67.1311C66.7837 30.456 66.7779 30.456 66.7779 30.8292V41.9027C66.7779 42.0118 66.7779 42.1209 66.7779 42.23C66.7819 42.2572 66.7794 42.2849 66.7706 42.3109C66.7619 42.337 66.7471 42.3606 66.7276 42.3799C66.708 42.3992 66.6842 42.4136 66.658 42.4219C66.6319 42.4303 66.6041 42.4324 66.577 42.4281H61.1967C61.1422 42.4252 61.0876 42.4252 61.0331 42.4281C60.8407 42.4453 60.746 42.362 60.7632 42.1668C60.7632 41.7993 60.7632 41.429 60.7632 41.0615V37.022C60.7632 36.9272 60.7632 36.8325 60.7632 36.7349C60.7632 36.554 60.7201 36.4478 60.5105 36.465C60.456 36.4679 60.4014 36.4679 60.3469 36.465H55.2308C55.1619 36.465 55.093 36.465 55.0269 36.465C54.892 36.465 54.8202 36.5138 54.826 36.6545C54.8317 36.7952 54.826 36.8756 54.826 36.9847V47.9318C54.826 48.4629 54.8805 48.4227 54.3465 48.4227L42.8625 48.4199Z" fill="#2EC4B6"/>
<path d="M90.4271 39.6272C90.4548 39.6579 90.4856 39.6858 90.5189 39.7104C90.9894 39.9683 91.3657 40.3689 91.5938 40.8544C91.8219 41.3399 91.8898 41.8854 91.7879 42.4121C91.5582 44.0112 90.5534 44.8725 88.8538 44.8926C87.5015 44.9127 86.1493 44.8926 84.797 44.8926H84.6736C84.5157 44.907 84.4468 44.8323 84.4583 44.6773C84.4583 44.5969 84.4583 44.5136 84.4583 44.4304V35.381C84.4583 34.8958 84.4152 34.9302 84.8889 34.9302C86.0373 34.9302 87.2116 34.9302 88.3714 34.9302C88.645 34.9276 88.9182 34.9526 89.1868 35.0049C91.1965 35.4068 91.719 37.5227 91.1075 38.8176C91.036 38.9793 90.9391 39.1286 90.8204 39.2597C90.6912 39.386 90.5563 39.5009 90.4271 39.6272ZM87.6307 40.4885C87.2087 40.4885 86.7866 40.4885 86.3617 40.4885C86.2354 40.4885 86.155 40.5143 86.1579 40.6665C86.1579 41.4857 86.1579 42.3049 86.1579 43.1241C86.1579 43.259 86.2096 43.3222 86.3474 43.3193C87.1943 43.3049 88.0413 43.371 88.8853 43.2877C89.2341 43.2388 89.5519 43.0609 89.7759 42.7891C89.9999 42.5173 90.1137 42.1713 90.095 41.8196C90.0762 41.4679 89.9262 41.136 89.6746 40.8896C89.423 40.6431 89.0881 40.5 88.7361 40.4885C88.3686 40.4655 88.0011 40.4655 87.6307 40.4655V40.4885ZM87.4039 38.9209H88.5523C88.6205 38.9145 88.6878 38.901 88.7533 38.8807C88.9752 38.8398 89.1783 38.7292 89.3332 38.565C89.4881 38.4009 89.5866 38.1917 89.6146 37.9677C89.7466 37.1323 89.2586 36.5495 88.3772 36.5322C87.7226 36.5093 87.068 36.5322 86.4134 36.5322C86.2182 36.5322 86.1493 36.5897 86.1521 36.7878C86.1521 37.4309 86.1521 38.0721 86.1521 38.7113C86.1521 38.9209 86.2354 38.964 86.4192 38.9582C86.7493 38.9008 87.0766 38.9094 87.4039 38.9094V38.9209Z" fill="#0B0B0B"/>
<path d="M140.364 44.6335C140.342 44.6165 140.315 44.6072 140.288 44.6072C140.26 44.6072 140.233 44.6165 140.212 44.6335C138.159 45.7417 135.957 44.8632 135.262 42.6381C134.909 41.5627 134.949 40.3969 135.374 39.348C136.161 37.41 138.004 36.9076 139.569 37.3641C139.903 37.4704 140.215 37.6389 140.487 37.8608C140.525 37.8263 140.556 37.812 140.559 37.7919C140.599 37.4273 140.599 37.4244 140.952 37.4244H141.647C142.081 37.4244 142.026 37.3842 142.032 37.8292V45.245C142.038 45.5869 142.008 45.9285 141.943 46.2642C141.884 46.6166 141.742 46.9502 141.53 47.238C141.318 47.5257 141.042 47.7596 140.723 47.9208C140.139 48.2409 139.487 48.4155 138.822 48.4294C138.157 48.4434 137.498 48.2965 136.901 48.0012C136.434 47.7703 136.038 47.4183 135.753 46.982C135.652 46.8355 135.658 46.7551 135.833 46.6748C136.218 46.4996 136.594 46.3073 136.982 46.1006C137.108 46.0374 137.197 46.0173 137.289 46.1608C137.78 46.9274 139.012 46.936 139.66 46.5599C139.871 46.4492 140.048 46.2845 140.175 46.0828C140.301 45.881 140.371 45.6493 140.378 45.4115C140.375 45.1503 140.364 44.889 140.364 44.6335ZM140.571 41.1251C140.574 40.7196 140.516 40.3159 140.398 39.9279C140.169 39.2532 139.744 38.8053 138.997 38.7364C138.251 38.6675 137.544 38.8915 137.174 39.6236C136.922 40.103 136.791 40.6369 136.794 41.1786C136.796 41.7202 136.932 42.253 137.188 42.73C137.547 43.4305 138.193 43.6545 138.948 43.5913C139.272 43.5726 139.582 43.4548 139.836 43.254C140.09 43.0532 140.276 42.779 140.37 42.4687C140.514 42.0358 140.582 41.5812 140.571 41.1251Z" fill="#0B0B0B"/>
<path d="M88.4758 18.5664C89.1012 18.5494 89.7233 18.6638 90.3018 18.9023C90.7949 19.1047 91.2355 19.4167 91.5902 19.8146C91.9449 20.2126 92.2043 20.686 92.3488 21.1991C92.4263 21.4547 92.4148 21.469 92.1507 21.5178C91.72 21.5953 91.2894 21.6614 90.8616 21.7418C90.7037 21.7733 90.6204 21.7619 90.5745 21.581C90.1266 20.1053 88.338 19.8354 87.3303 20.3694C87.1524 20.4436 86.996 20.5614 86.8756 20.7119C86.7552 20.8625 86.6746 21.0409 86.6412 21.2307C86.6099 21.3916 86.6251 21.5582 86.6851 21.7107C86.7451 21.8633 86.8474 21.9956 86.98 22.092C87.2592 22.2902 87.5741 22.4326 87.9073 22.5112C88.7686 22.7581 89.6127 22.9964 90.4625 23.2462C90.8562 23.3628 91.2264 23.5474 91.5564 23.7917C91.8328 23.9936 92.0599 24.2556 92.2205 24.558C92.3811 24.8603 92.4711 25.1951 92.4837 25.5372C92.5562 26.1554 92.4202 26.7802 92.0972 27.3123C91.7742 27.8443 91.2827 28.2533 90.7008 28.4743C90.0518 28.7696 89.3477 28.9243 88.6347 28.9283C87.9217 28.9322 87.2159 28.7853 86.5637 28.4972C86.0723 28.2985 85.6344 27.9871 85.2853 27.5882C84.9362 27.1892 84.6857 26.7139 84.554 26.2004C84.5253 26.0946 84.5023 25.9872 84.4851 25.8789C84.465 25.7784 84.5109 25.7325 84.6114 25.7152C85.0851 25.6463 85.556 25.5803 86.0268 25.4999C86.2134 25.4683 86.2192 25.5946 86.2594 25.7066C86.3551 26.0004 86.5103 26.2712 86.7153 26.5024C86.9203 26.7336 87.1707 26.92 87.4508 27.0502C87.8323 27.2378 88.2512 27.3367 88.6762 27.3397C89.1013 27.3427 89.5215 27.2496 89.9056 27.0675C90.0916 26.9961 90.2589 26.8833 90.3947 26.7375C90.5306 26.5917 90.6313 26.4169 90.6893 26.2263C90.756 26.0174 90.7531 25.7926 90.6811 25.5856C90.6092 25.3785 90.472 25.2004 90.2903 25.0779C90.0495 24.9217 89.7847 24.8063 89.5065 24.7362C88.6825 24.4922 87.8585 24.251 87.0345 24.0012C86.8133 23.9344 86.5958 23.8558 86.3828 23.7658C85.1512 23.2462 84.7119 22.2672 84.8698 21.0298C84.9218 20.5859 85.0895 20.1635 85.356 19.8047C85.6226 19.446 85.9786 19.1635 86.3886 18.9856C87.0405 18.68 87.7565 18.5363 88.4758 18.5664Z" fill="#0B0B0B"/>
<path d="M127.318 28.4556V28.915C127.318 29.8423 127.318 30.7725 127.318 31.6998C127.318 32.0156 127.318 32.0185 127.008 32.0214C126.64 32.0214 126.27 32.0214 125.902 32.0214C125.615 32.0214 125.615 32.0214 125.615 31.7343C125.615 31.2405 125.615 30.7495 125.615 30.2586C125.615 27.4048 125.615 24.5501 125.615 21.6944C125.615 21.2207 125.561 21.2494 126.049 21.2494H126.743C127.062 21.2494 127.059 21.2494 127.105 21.5594C127.121 21.6072 127.141 21.6534 127.165 21.6973C127.489 21.4406 127.863 21.2539 128.262 21.1489C130.163 20.7297 131.69 21.5795 132.328 23.2562C132.782 24.415 132.763 25.7062 132.273 26.8507C132.101 27.296 131.835 27.6987 131.492 28.0309C131.149 28.3631 130.738 28.6169 130.288 28.7747C129.837 28.9325 129.358 28.9906 128.883 28.9449C128.408 28.8992 127.948 28.7509 127.536 28.5101C127.481 28.4642 127.435 28.4068 127.318 28.4556ZM130.855 24.9759C130.876 24.4813 130.778 23.9887 130.568 23.5404C130.413 23.202 130.154 22.9215 129.83 22.7394C129.505 22.5573 129.131 22.4829 128.762 22.527C128.41 22.5424 128.074 22.673 127.804 22.8987C127.534 23.1244 127.346 23.4327 127.269 23.7759C127.036 24.5522 127.036 25.3796 127.269 26.1559C127.354 26.5193 127.562 26.8423 127.857 27.0703C128.153 27.2984 128.518 27.4175 128.891 27.4077C129.256 27.4372 129.622 27.3478 129.932 27.1527C130.243 26.9576 130.482 26.6674 130.614 26.3253C130.791 25.8984 130.873 25.4379 130.855 24.9759Z" fill="#0B0B0B"/>
<path d="M114.8 44.8707C114.8 44.7243 114.78 44.5836 114.769 44.4573C114.668 44.4027 114.616 44.4889 114.553 44.5319C114.195 44.777 113.792 44.9492 113.367 45.0385C112.943 45.1279 112.505 45.1327 112.078 45.0527C111.651 44.9728 111.245 44.8095 110.881 44.5724C110.518 44.3352 110.205 44.0288 109.96 43.6706C109.543 42.9796 109.301 42.1968 109.257 41.3909C109.213 40.585 109.368 39.7806 109.707 39.0483C109.908 38.6398 110.191 38.2767 110.537 37.9812C110.884 37.6857 111.287 37.464 111.722 37.3296C112.157 37.1952 112.615 37.151 113.068 37.1997C113.52 37.2484 113.959 37.389 114.355 37.6128C114.401 37.6358 114.441 37.6846 114.536 37.6587C114.57 37.567 114.579 37.4679 114.562 37.3716C114.562 36.6481 114.562 35.9361 114.562 35.2012C114.562 34.9945 114.619 34.9141 114.849 34.9141C115.245 34.9141 115.641 34.9141 116.038 34.9141C116.21 34.9141 116.296 34.9657 116.279 35.1466C116.279 35.2155 116.279 35.2815 116.279 35.3505C116.279 38.3822 116.279 41.4131 116.279 44.4429C116.279 44.9367 116.322 44.8879 115.845 44.8822C115.497 44.9066 115.148 44.9028 114.8 44.8707ZM114.78 41.1384C114.791 40.7235 114.731 40.3098 114.602 39.9153C114.381 39.2608 113.973 38.8071 113.241 38.7296C112.457 38.6435 111.777 38.8502 111.398 39.5766C111.129 40.0631 110.989 40.6103 110.992 41.1661C110.994 41.7219 111.139 42.2679 111.412 42.7519C111.774 43.4323 112.417 43.6419 113.152 43.573C113.476 43.5543 113.785 43.4365 114.04 43.2357C114.294 43.0349 114.48 42.7607 114.573 42.4504C114.717 42.0322 114.787 41.5921 114.78 41.1499V41.1384Z" fill="#0B0B0B"/>
<path d="M97.8849 44.0123C97.7753 44.0398 97.6806 44.1088 97.6208 44.2047C97.1014 44.739 96.3933 45.0482 95.6484 45.066C95.2398 45.103 94.828 45.0749 94.4282 44.9827C94.0069 44.8819 93.6257 44.6566 93.3343 44.336C93.0429 44.0154 92.8548 43.6145 92.7946 43.1855C92.6625 42.0887 93.053 41.2705 93.943 40.8112C94.6297 40.5039 95.36 40.3053 96.1078 40.2226C96.6303 40.1336 97.1557 40.0589 97.6782 39.9786C97.6265 39.1976 97.2906 38.8302 96.5499 38.7584C96.238 38.7152 95.9206 38.7357 95.6168 38.8187C95.4086 38.8626 95.2135 38.9542 95.0466 39.0862C94.8798 39.2182 94.7457 39.387 94.655 39.5795C94.5976 39.7087 94.5373 39.7776 94.3823 39.7288C93.9918 39.5996 93.6042 39.4733 93.2109 39.3584C93.0329 39.3067 93.0559 39.2177 93.1076 39.0713C93.2506 38.6554 93.4934 38.2809 93.8147 37.9806C94.136 37.6802 94.5261 37.4633 94.9507 37.3487C95.8513 37.0913 96.8089 37.1154 97.6954 37.4176C98.1326 37.5426 98.5212 37.7983 98.809 38.1503C99.0969 38.5023 99.2703 38.9338 99.306 39.3871C99.3392 39.6307 99.3564 39.8763 99.3577 40.1221C99.3577 41.5825 99.3577 43.0438 99.3577 44.5061C99.3577 44.8679 99.3577 44.8707 99.0103 44.8736C98.7232 44.8736 98.4361 44.8736 98.149 44.8736C97.9624 44.8736 97.8619 44.8306 97.8849 44.6238C97.9079 44.4171 97.8849 44.2477 97.8849 44.0123ZM97.6667 41.8189C97.6667 41.7299 97.6667 41.661 97.6811 41.5949C97.6954 41.4313 97.6323 41.371 97.4686 41.4026C96.8111 41.5318 96.1479 41.6093 95.502 41.7873C95.2216 41.8532 94.9589 41.9796 94.7325 42.1577C94.6233 42.2456 94.5372 42.3588 94.4817 42.4875C94.4262 42.6163 94.403 42.7566 94.414 42.8964C94.425 43.0361 94.47 43.1711 94.545 43.2895C94.6201 43.4079 94.7229 43.5062 94.8445 43.5759C95.0346 43.6856 95.2483 43.7476 95.4675 43.7568C95.7421 43.7891 96.0205 43.7631 96.2844 43.6807C96.5483 43.5983 96.7919 43.4612 96.9994 43.2784C97.2068 43.0956 97.3735 42.8712 97.4884 42.6197C97.6034 42.3682 97.6642 42.0954 97.6667 41.8189Z" fill="#0B0B0B"/>
<path d="M103.968 27.8369C103.924 27.85 103.882 27.8673 103.841 27.8886C102.98 28.8791 101.849 29.0628 100.626 28.8417C100.176 28.764 99.7625 28.5443 99.4463 28.2147C99.1301 27.8851 98.9278 27.463 98.8688 27.01C98.7772 26.5428 98.8413 26.0584 99.0513 25.6311C99.2613 25.2038 99.6057 24.8572 100.032 24.6443C100.657 24.3646 101.321 24.1826 102.001 24.1046C102.527 24.0099 103.052 23.9323 103.58 23.8634C103.773 23.8405 103.801 23.7601 103.767 23.5936C103.74 23.3666 103.643 23.1538 103.488 22.9857C103.333 22.8176 103.129 22.7027 102.905 22.6576C102.451 22.5462 101.975 22.5681 101.533 22.7208C101.363 22.7722 101.205 22.8592 101.07 22.976C100.936 23.0928 100.827 23.2367 100.752 23.3983C100.669 23.5964 100.574 23.6223 100.379 23.5505C100.034 23.4219 99.6821 23.3117 99.3253 23.2203C99.133 23.1686 99.1272 23.0796 99.1904 22.9332C99.3389 22.5044 99.5934 22.12 99.9302 21.8159C100.267 21.5117 100.675 21.2976 101.117 21.1934C101.995 20.9645 102.921 20.9974 103.781 21.2881C104.244 21.4242 104.652 21.7043 104.946 22.0879C105.239 22.4715 105.402 22.9386 105.412 23.4213C105.443 24.0615 105.429 24.7046 105.432 25.3477C105.432 26.3717 105.432 27.3967 105.432 28.4226C105.432 28.7097 105.432 28.7097 105.145 28.7097C104.858 28.7097 104.516 28.7097 104.203 28.7097C103.996 28.7097 103.942 28.6322 103.956 28.4427C103.971 28.2532 103.968 28.0666 103.968 27.8369ZM103.773 25.2128C103.043 25.2996 102.32 25.4319 101.608 25.609C101.383 25.6638 101.168 25.7529 100.97 25.8731C100.807 25.961 100.675 26.0981 100.594 26.2651C100.512 26.4322 100.486 26.6205 100.517 26.8036C100.549 26.9866 100.638 27.155 100.771 27.2848C100.903 27.4146 101.074 27.4993 101.258 27.5268C101.543 27.599 101.841 27.6085 102.13 27.5544C102.42 27.5004 102.694 27.3842 102.934 27.2139C103.609 26.7373 103.79 26.0511 103.773 25.2099V25.2128Z" fill="#0B0B0B"/>
<path d="M128.305 38.1201C128.425 38.1431 128.457 38.0656 128.503 38.0254C129.485 37.1382 130.63 37.0234 131.836 37.3794C132.637 37.6177 133.117 38.2407 133.398 39.0015C133.582 39.5312 133.673 40.0887 133.668 40.6495C133.668 41.9606 133.668 43.2726 133.668 44.5856C133.668 44.8957 133.668 44.8985 133.355 44.9014H132.413C131.971 44.9014 131.988 44.9675 131.988 44.4937C131.988 43.5922 131.988 42.6879 131.988 41.7864C131.99 41.3635 131.969 40.9409 131.925 40.5203C131.896 40.2349 131.819 39.9565 131.698 39.6963C131.59 39.4197 131.398 39.1837 131.15 39.0207C130.901 38.8577 130.609 38.7757 130.312 38.7862C130.003 38.7586 129.693 38.8236 129.422 38.9729C129.15 39.1222 128.929 39.3491 128.787 39.6245C128.567 40.1115 128.469 40.6444 128.5 41.1777C128.5 42.2716 128.5 43.3654 128.5 44.4564C128.5 44.9646 128.537 44.8957 128.069 44.9014H127.168C126.852 44.9014 126.818 44.9732 126.821 44.5368C126.823 44.1004 126.821 43.7444 126.821 43.3482V37.7756C126.821 37.388 126.798 37.4253 127.177 37.4253C127.464 37.4253 127.751 37.4253 128.038 37.4253C128.236 37.4253 128.351 37.4598 128.325 37.6952C128.31 37.8363 128.303 37.9782 128.305 38.1201Z" fill="#0B0B0B"/>
<path d="M123.406 44.1975C122.527 45.0186 121.514 45.1937 120.426 45.0588C119.338 44.9239 118.677 44.2894 118.316 43.296C118.154 42.8602 118.067 42.4 118.06 41.9352C118.06 40.514 118.06 39.0929 118.043 37.6746C118.043 37.4822 118.089 37.4047 118.293 37.4105C118.689 37.4248 119.085 37.4277 119.481 37.4105C119.711 37.4105 119.751 37.4995 119.748 37.6976C119.748 38.7914 119.748 39.8824 119.748 40.9762C119.733 41.4133 119.781 41.8503 119.889 42.2739C120.262 43.5171 121.227 43.6692 122.062 43.4223C122.711 43.2271 123.001 42.7103 123.139 42.0931C123.204 41.7719 123.233 41.4445 123.225 41.1169C123.225 39.9838 123.225 38.8498 123.225 37.7148C123.225 37.4277 123.225 37.4277 123.512 37.4277C123.854 37.4277 124.196 37.4277 124.537 37.4277C124.879 37.4277 124.899 37.3875 124.899 37.7722C124.899 38.3464 124.899 38.9206 124.899 39.4948V44.4502C124.899 44.5478 124.899 44.6425 124.899 44.7373C124.899 44.832 124.844 44.9066 124.724 44.9038H123.575C123.452 44.9038 123.406 44.8406 123.409 44.7258C123.409 44.5449 123.406 44.3726 123.406 44.1975Z" fill="#0B0B0B"/>
<path d="M102.635 37.423V38.092C102.77 38.1236 102.805 38.0317 102.862 37.9829C103.876 37.1216 105.033 37.0096 106.244 37.4087C107.002 37.6585 107.456 38.27 107.72 39.0078C107.899 39.5249 107.989 40.0685 107.987 40.6156V44.5891C107.987 44.8762 107.987 44.8934 107.665 44.8963H106.6C106.296 44.8963 106.29 44.8963 106.29 44.5718C106.29 43.5067 106.29 42.4415 106.29 41.3764C106.304 40.9677 106.267 40.5588 106.181 40.1591C106.152 40.0529 106.124 39.9466 106.086 39.8462C105.994 39.5272 105.797 39.2486 105.527 39.0549C105.258 38.8612 104.931 38.7638 104.599 38.7782C104.261 38.7542 103.925 38.841 103.641 39.0254C103.357 39.2099 103.141 39.4819 103.026 39.8002C102.878 40.1976 102.806 40.6194 102.816 41.0434V44.4426C102.816 44.5374 102.816 44.635 102.816 44.7297C102.816 44.8245 102.756 44.8963 102.638 44.8963H101.329C101.191 44.8963 101.122 44.8503 101.125 44.7096C101.125 44.6293 101.125 44.546 101.125 44.4656V37.8307C101.125 37.7647 101.125 37.6958 101.125 37.6269C101.125 37.4977 101.157 37.4202 101.306 37.423H102.635Z" fill="#0B0B0B"/>
<path d="M122.912 28.0256C122.768 28.0026 122.731 28.0916 122.674 28.1375C121.663 29.0161 120.503 29.1137 119.292 28.7117C118.531 28.462 118.077 27.8504 117.816 27.1097C117.64 26.6059 117.552 26.0757 117.555 25.5422V21.5687C117.555 21.2385 117.555 21.2385 117.896 21.2357C118.238 21.2328 118.608 21.2357 118.962 21.2357C119.183 21.2357 119.249 21.3074 119.249 21.5228C119.249 22.5869 119.249 23.653 119.249 24.721C119.235 25.186 119.285 25.6507 119.398 26.102C119.685 27.1069 120.472 27.5375 121.485 27.2849C122.197 27.0982 122.516 26.5642 122.657 25.8953C122.713 25.6118 122.739 25.323 122.734 25.034C122.734 23.8856 122.734 22.7659 122.734 21.6319C122.734 21.1868 122.734 21.2414 123.139 21.2414C123.48 21.2414 123.822 21.2414 124.164 21.2414C124.339 21.2414 124.414 21.2959 124.405 21.4739C124.396 21.6519 124.405 21.9132 124.405 22.1314V28.2323C124.405 28.327 124.405 28.4218 124.405 28.5194C124.405 28.617 124.379 28.7031 124.247 28.7031H123.099C122.944 28.7031 122.921 28.6199 122.924 28.4935C122.926 28.3672 122.912 28.1749 122.912 28.0256Z" fill="#0B0B0B"/>
<path d="M95.4973 22.5508C95.4973 23.0848 95.4973 23.5614 95.4973 24.038C95.4973 24.7873 95.4973 25.5395 95.4973 26.2889C95.5117 26.9894 95.8619 27.331 96.5625 27.3626C96.9297 27.3727 97.2972 27.3564 97.6621 27.3138C97.6621 27.7416 97.6621 28.1464 97.6621 28.5512C97.6649 28.575 97.6627 28.5991 97.6557 28.622C97.6486 28.6448 97.6369 28.666 97.6212 28.6841C97.6056 28.7022 97.5863 28.7168 97.5647 28.7271C97.543 28.7373 97.5195 28.7429 97.4955 28.7436C96.7162 28.8996 95.9108 28.8661 95.1471 28.6459C94.7988 28.5383 94.4904 28.3296 94.2609 28.0465C94.0314 27.7633 93.8912 27.4184 93.858 27.0554C93.8163 26.7164 93.799 26.3748 93.8063 26.0333C93.8063 23.8916 93.8063 21.7488 93.8063 19.6052C93.8063 19.5219 93.8063 19.4415 93.8063 19.3583C93.8063 19.2233 93.858 19.1602 93.9987 19.1602C94.4351 19.1602 94.86 19.1602 95.3078 19.1602C95.4916 19.1602 95.4945 19.2693 95.4945 19.4042C95.4945 19.921 95.4945 20.4406 95.4945 20.9574C95.4945 21.1641 95.5433 21.2445 95.7672 21.2445C96.284 21.2273 96.8036 21.2445 97.3204 21.2445C97.6649 21.2445 97.6793 21.2445 97.6678 21.5661C97.6999 21.8891 97.6844 22.2151 97.6219 22.5336C97.312 22.5666 97 22.5752 96.6888 22.5594C96.3041 22.5566 95.9222 22.5508 95.4973 22.5508Z" fill="#0B0B0B"/>
<path d="M116.059 27.3082C116.09 27.7219 116.1 28.1368 116.088 28.5514C116.09 28.5752 116.088 28.5992 116.08 28.6219C116.073 28.6447 116.061 28.6656 116.045 28.6834C116.029 28.7013 116.01 28.7156 115.988 28.7255C115.966 28.7353 115.942 28.7406 115.919 28.7409C115.152 28.8953 114.361 28.8678 113.607 28.6605C113.204 28.5392 112.852 28.2889 112.605 27.9482C112.359 27.6074 112.23 27.1949 112.241 26.7742C112.226 26.1053 112.241 25.4363 112.241 24.7645V19.5221C112.241 19.1402 112.224 19.1603 112.591 19.1603C112.959 19.1603 113.274 19.1603 113.616 19.1603C113.903 19.1603 113.903 19.1603 113.903 19.4474C113.903 19.9527 113.903 20.458 113.903 20.9633C113.903 21.1586 113.963 21.2275 114.159 21.2246C114.707 21.2246 115.252 21.2246 115.798 21.2246C116.085 21.2246 116.085 21.2246 116.102 21.5117C116.102 21.839 116.102 22.1663 116.102 22.5366H114.899C114.655 22.5366 114.408 22.5366 114.164 22.5366C113.92 22.5366 113.906 22.6543 113.906 22.841C113.906 23.6764 113.906 24.509 113.906 25.3416C113.906 25.6545 113.906 25.9704 113.906 26.2833C113.946 26.9924 114.285 27.3197 114.988 27.3513C115.346 27.3694 115.704 27.3549 116.059 27.3082Z" fill="#0B0B0B"/>
<path d="M106.935 28.6974C106.89 28.5545 106.876 28.4038 106.894 28.2552C106.894 26.058 106.894 23.8568 106.894 21.6519C106.894 21.5715 106.894 21.4883 106.894 21.4079C106.894 21.2643 106.96 21.2184 107.093 21.2213C107.449 21.2213 107.805 21.2213 108.158 21.2213C108.316 21.2213 108.379 21.2816 108.373 21.4395C108.373 21.7065 108.373 21.9706 108.373 22.3209C108.522 22.1515 108.603 22.0338 108.695 21.9534C108.983 21.6703 109.331 21.4556 109.713 21.3249C110.095 21.1942 110.501 21.151 110.902 21.1983C111.075 21.1983 111.098 21.3074 111.095 21.4452C111.095 21.8127 111.095 22.1802 111.095 22.5505C111.095 22.7486 111.011 22.7716 110.848 22.7486C110.441 22.6809 110.023 22.74 109.651 22.918C108.838 23.3228 108.577 24.0406 108.565 24.8789C108.565 25.9986 108.565 27.1183 108.565 28.238C108.565 28.3327 108.565 28.4275 108.565 28.5251C108.565 28.6227 108.508 28.6945 108.39 28.6916L106.935 28.6974Z" fill="#0B0B0B"/>
</g>
<defs>
<clipPath id="clip0_3269_3316">
<rect width="141.067" height="47.8711" fill="white" transform="translate(0.964844 0.5625)"/>
</clipPath>
</defs>
</svg>
