<svg width="121" height="62" viewBox="0 0 121 62" fill="none" xmlns="http://www.w3.org/2000/svg">
<g clip-path="url(#clip0_3357_4990)">
<path d="M27.0589 0.773438C27.2517 0.854574 27.4216 0.981971 27.5535 1.14436C29.1153 2.55215 30.4753 4.15516 31.8788 5.71262C32.9352 6.88614 33.9807 8.06833 34.998 9.27439C37.6524 12.4136 39.5196 16.1407 40.4448 20.1462C40.8781 21.8406 41.2221 23.5566 41.4752 25.2871C41.6693 27.0276 41.7475 28.7791 41.7094 30.53C41.7094 32.1612 41.627 33.7881 41.4621 35.4106C41.178 38.191 40.4569 40.9091 39.3255 43.4647C38.7116 44.879 38.0717 46.2846 37.4752 47.7054C36.6379 49.6946 36.5186 51.7574 36.8548 53.8789C37.2623 56.2354 37.8542 58.5563 38.6249 60.8202C38.6726 60.9677 38.7203 61.1152 38.7637 61.2649C38.7637 61.2952 38.7529 61.3321 38.7464 61.3646C38.6466 61.3907 38.5923 61.3169 38.5294 61.2584C35.998 58.6554 33.5078 56.0307 31.3712 53.0915C29.6033 50.6663 28.1543 48.0764 27.2802 45.1849C26.7881 43.5938 26.5409 41.9371 26.547 40.2717C26.5866 38.8843 26.761 37.504 27.0676 36.1503C27.6598 33.2284 28.419 30.3478 29.137 27.4585C29.6185 25.5214 29.9352 23.554 30.2497 21.6017C30.4059 20.6278 30.5838 19.6495 30.7161 18.6799C30.9322 17.0802 30.9686 15.4613 30.8246 13.8535C30.5035 10.205 29.3517 6.77985 27.9916 3.41114C27.688 2.65627 27.4038 1.89273 27.124 1.13135C27.0719 1.01205 26.9895 0.905756 27.0589 0.773438Z" fill="#49B0CD"/>
<path d="M26.7308 0.625C26.7308 0.861439 26.7308 1.09571 26.7308 1.33215C26.759 3.4666 26.5681 5.59238 26.4423 7.72033C26.4017 8.75835 26.3025 9.79324 26.1451 10.8201C25.5779 13.9687 24.3378 16.9579 22.5096 19.5835C20.7092 22.2429 18.4077 24.4099 15.8264 26.2949C13.7961 27.7786 11.6681 29.1148 9.58138 30.5161C8.79297 31.0226 8.05174 31.599 7.36667 32.2384C7.22952 32.3714 7.10058 32.5127 6.98056 32.6614C6.85527 32.8071 6.77421 32.9855 6.74693 33.1758C6.71964 33.366 6.74727 33.56 6.82655 33.7351C7.00267 34.1503 7.2316 34.5411 7.50766 34.8978C7.91664 35.4152 8.36016 35.9044 8.83519 36.3619C8.93497 36.4639 9.09983 36.529 9.09983 36.7134C8.98269 36.7893 8.88291 36.7003 8.80916 36.6591C6.93934 35.6982 5.12158 34.6613 3.53159 33.2644C3.03249 32.8329 2.57629 32.3542 2.16936 31.8349C1.53477 31.0269 1.11402 30.072 0.945948 29.0584C0.898226 28.7493 0.898226 28.4347 0.945948 28.1256C1.25972 25.7621 2.44675 23.6016 4.27344 22.0693C5.97735 20.6168 7.80824 19.3202 9.74407 18.1952C12.7505 16.436 15.6746 14.5532 18.501 12.5077C20.9993 10.6994 23.0005 8.28943 24.3187 5.50128C24.9846 4.09566 25.6354 2.67269 26.2861 1.2584C26.3654 1.00643 26.5207 0.785182 26.7308 0.625V0.625Z" fill="#42555B"/>
<path d="M106.327 25.6926C106.177 25.5451 106.071 25.4301 105.954 25.326C105.086 24.5386 105.214 23.2545 106.049 22.5321C106.606 22.084 107.288 21.8201 108.001 21.7773C108.52 21.7371 109.041 21.7371 109.559 21.7773C110.11 21.8033 110.11 21.8011 110.327 21.2957C110.487 20.8685 110.802 20.5169 111.208 20.3105C111.615 20.104 112.085 20.0577 112.524 20.1808C112.791 20.2415 112.917 20.3608 112.904 20.6363C112.886 20.9486 112.904 21.2632 112.88 21.5734C112.86 21.8337 112.969 21.8966 113.21 21.8901C113.815 21.8749 114.422 21.8901 115.03 21.877C115.854 21.877 115.886 21.8987 116.114 22.6688C116.392 23.5972 116.682 24.5212 116.971 25.4583C117.136 25.4258 117.134 25.2935 117.166 25.1915C117.439 24.3239 117.717 23.4779 117.984 22.6189C118.181 21.9855 118.327 21.8662 118.982 21.8727C119.241 21.8672 119.501 21.8803 119.758 21.9117C120.068 21.9573 120.131 22.0636 120.081 22.3803C120.055 22.5341 120.014 22.6852 119.96 22.8315C119.166 25.0484 118.377 27.2652 117.574 29.48C117.194 30.532 116.526 31.3107 115.405 31.5927C114.827 31.7227 114.227 31.7078 113.656 31.5493C113.605 31.5421 113.555 31.5249 113.511 31.4985C113.466 31.4722 113.427 31.4372 113.396 31.3957C113.364 31.3542 113.342 31.3069 113.329 31.2566C113.316 31.2063 113.313 31.1539 113.32 31.1025C113.32 30.7728 113.296 30.4517 113.301 30.1155C113.301 29.5711 113.485 29.4279 114.008 29.5363C114.366 29.6211 114.741 29.6068 115.092 29.4951C115.457 29.3715 115.563 29.2001 115.489 28.8249C115.446 28.6397 115.388 28.4583 115.316 28.2826C114.577 26.3217 113.836 24.3622 113.092 22.4041C113.012 22.1872 112.938 22.0441 112.646 22.1395C112.442 22.2067 112.199 22.1395 111.977 22.1634C111.544 22.2067 111.463 22.3608 111.706 22.7208C111.888 22.9742 112.03 23.2535 112.127 23.5495C112.26 23.95 112.251 24.3839 112.102 24.7786C111.953 25.1734 111.673 25.5052 111.309 25.7186C110.754 26.0471 110.123 26.2251 109.479 26.2349C109.116 26.2544 108.752 26.2349 108.394 26.2349C108.273 26.2349 108.151 26.2349 108.03 26.2349C107.99 26.2325 107.951 26.2382 107.914 26.2514C107.877 26.2647 107.843 26.2854 107.814 26.3121C107.786 26.3389 107.762 26.3712 107.747 26.4072C107.731 26.4431 107.722 26.4819 107.722 26.5212C107.715 26.5645 107.717 26.6088 107.729 26.651C107.741 26.6932 107.762 26.7322 107.791 26.7653C107.82 26.7984 107.856 26.8248 107.896 26.8426C107.936 26.8604 107.979 26.8692 108.023 26.8683C108.403 26.8986 108.784 26.9073 109.166 26.929C109.807 26.9294 110.447 26.9722 111.082 27.057C112.416 27.313 113.149 28.3585 112.897 29.6773C112.835 30.0387 112.67 30.3745 112.421 30.6439C112.173 30.9134 111.851 31.1051 111.496 31.1958C110.549 31.487 109.562 31.6247 108.572 31.6036C107.739 31.5949 106.912 31.4686 106.114 31.2283C104.676 30.7945 104.392 29.7554 105.414 28.6448C105.508 28.5731 105.572 28.4692 105.594 28.3531C105.616 28.237 105.594 28.1169 105.533 28.0158C104.993 26.8531 105.088 26.5559 106.16 25.8249C106.19 25.8032 106.24 25.7555 106.327 25.6926ZM108.93 30.096C109.3 30.1114 109.671 30.0801 110.034 30.0027C110.12 29.9916 110.2 29.9564 110.267 29.9011C110.333 29.8458 110.383 29.7727 110.409 29.6904C110.5 29.3888 110.353 29.1589 109.995 29.1242C109.416 29.0656 108.834 29.0331 108.26 29.0049C108.018 29.0002 107.776 29.0118 107.535 29.0396C107.438 29.0382 107.345 29.0734 107.273 29.1382C107.202 29.203 107.157 29.2926 107.149 29.3888C107.128 29.4918 107.145 29.5988 107.197 29.6902C107.249 29.7815 107.332 29.851 107.431 29.8856C107.542 29.9326 107.659 29.9668 107.778 29.9875C108.152 30.0708 108.534 30.1072 108.917 30.096H108.93ZM108.85 24.89C108.963 24.8966 109.076 24.8782 109.182 24.8361C109.287 24.794 109.382 24.7293 109.459 24.6466C109.537 24.5638 109.595 24.465 109.631 24.3571C109.666 24.2492 109.677 24.135 109.663 24.0223C109.663 23.4844 109.353 23.1785 108.832 23.1785C108.275 23.1785 107.997 23.4735 108.01 24.0614C108.01 24.6232 108.299 24.9052 108.837 24.9008L108.85 24.89Z" fill="#42555B"/>
<path d="M25.2125 16.4844C25.3014 16.6471 25.1777 16.7555 25.1192 16.8683C24.8873 17.3169 24.7539 17.8098 24.7281 18.3141C24.7023 18.8185 24.7846 19.3225 24.9695 19.7923C25.1872 20.378 25.4788 20.9335 25.8372 21.4453C26.3599 22.2196 26.8588 23.0157 27.4142 23.7684C28.4749 25.2087 28.6029 26.7922 28.2167 28.4733C28.0181 29.3167 27.7653 30.1463 27.4597 30.957C26.7248 33.0182 26.3314 35.1855 26.2949 37.3734C26.2949 37.5643 26.2753 37.7552 26.2667 37.9439C26.2667 37.9894 26.2471 38.0111 26.1951 38.0068C26.0476 37.9656 26.0888 37.8203 26.0758 37.7118C25.8849 35.8311 25.6832 33.9526 25.514 32.072C25.4532 31.3995 25.4619 30.7206 25.4532 30.0438C25.4645 29.556 25.3549 29.0729 25.1343 28.6377C24.9136 28.2024 24.5888 27.8285 24.1886 27.5493C23.3268 26.8987 22.6224 26.0624 22.1279 25.1025C21.8416 24.5842 21.6711 24.01 21.628 23.4194C21.585 22.8289 21.6704 22.236 21.8785 21.6817C22.5487 19.7294 23.6789 18.0592 25.078 16.5603C25.119 16.5288 25.1643 16.5033 25.2125 16.4844Z" fill="#42555B"/>
<path d="M48.4711 31.2561C48.8182 31.2561 49.1653 31.2452 49.5123 31.2561C49.6878 31.2537 49.8596 31.3065 50.0036 31.4069C50.1475 31.5073 50.2564 31.6502 50.3149 31.8157C50.4349 32.1223 50.5434 32.4325 50.6403 32.7463C51.414 35.2452 52.1855 37.744 52.9548 40.2429C52.9743 40.3101 53.0047 40.3752 53.0199 40.4425C53.1218 40.8763 53.0199 41.0064 52.5687 41.0086C51.9787 41.0086 51.3886 41.0238 50.8008 41.0195C50.1501 41.0195 49.9331 40.8351 49.8073 40.2017C49.7683 39.9978 49.7466 39.7896 49.6989 39.5878C49.6121 39.2364 49.482 39.1323 49.1154 39.1258C48.7488 39.1193 48.354 39.1019 47.9744 39.0694C47.1978 39.0021 46.9093 39.2321 46.7488 39.9956C46.5319 41.0021 46.5319 41.0108 45.4864 40.9978C45.2087 40.9978 44.931 41.0086 44.6534 41.0108C44.1328 41.0108 44.0157 40.8806 44.1567 40.3882C44.3584 39.6898 44.5905 38.9978 44.8074 38.3015L46.7922 31.794C46.9223 31.3602 47.0894 31.2365 47.5406 31.2344H48.4776L48.4711 31.2561ZM48.3909 34.7267L48.2672 34.7159C47.9288 35.3037 47.8486 35.9827 47.6664 36.6247C47.6553 36.6632 47.6535 36.7037 47.6612 36.743C47.669 36.7822 47.6859 36.8191 47.7107 36.8505C47.7356 36.8819 47.7675 36.9069 47.8039 36.9235C47.8403 36.94 47.8802 36.9477 47.9202 36.9458C48.1786 36.9653 48.4382 36.9653 48.6967 36.9458C48.7364 36.9478 48.7759 36.9398 48.8116 36.9223C48.8473 36.9049 48.8779 36.8787 48.9007 36.8462C48.9235 36.8136 48.9376 36.7758 48.9418 36.7364C48.9459 36.6969 48.94 36.657 48.9245 36.6204C48.7488 35.9805 48.5687 35.3536 48.3909 34.7246V34.7267Z" fill="#49B0CD"/>
<path d="M70.2146 22.5307C70.369 22.5016 70.5077 22.4177 70.605 22.2943C71.2688 21.713 72.0497 21.6435 72.8566 21.8149C73.2879 21.8969 73.6769 22.1273 73.9562 22.466C74.2355 22.8047 74.3875 23.2305 74.3859 23.6695C74.4054 24.1533 74.3859 24.6392 74.3859 25.1251C74.3859 26.2335 74.3989 27.3441 74.3989 28.4525C74.3989 29.0577 74.3555 29.0859 73.7481 29.1033C73.3664 29.1033 72.9867 29.1597 72.6071 29.1705C71.7742 29.1922 71.5226 28.9536 71.5681 28.1402C71.6223 27.0144 71.6397 25.8886 71.605 24.7628C71.605 24.6413 71.605 24.5199 71.592 24.3984C71.5551 23.9645 71.4011 23.7737 71.067 23.7476C70.8843 23.7219 70.6986 23.7672 70.5481 23.8741C70.3977 23.981 70.2938 24.1414 70.2579 24.3225C70.2348 24.4768 70.2268 24.633 70.2341 24.7888C70.2341 25.9667 70.2341 27.1467 70.2341 28.3246C70.2341 28.4634 70.2341 28.6022 70.2341 28.741C70.2356 28.7893 70.2272 28.8374 70.2092 28.8822C70.1913 28.927 70.1642 28.9676 70.1298 29.0015C70.0953 29.0353 70.0542 29.0616 70.0091 29.0788C69.9639 29.0959 69.9157 29.1035 69.8675 29.1011C69.297 29.1272 68.7265 29.1705 68.156 29.1597C67.5855 29.1488 67.3057 28.8777 67.3209 28.2725C67.3404 27.4591 67.4294 26.6521 67.4185 25.8344C67.3925 23.945 67.4055 22.0557 67.4033 20.1663C67.4004 20.0621 67.4041 19.9578 67.4142 19.854C67.4554 19.546 67.5769 19.3963 67.8762 19.3985C68.5161 19.3985 69.156 19.3985 69.7981 19.3985C70.1235 19.3985 70.2319 19.5373 70.2319 19.9082C70.2319 20.6869 70.2319 21.4678 70.2319 22.2487L70.2146 22.5307Z" fill="#42555B"/>
<path d="M81.1468 40.3618L80.7693 40.6178C80.3732 40.8874 79.9213 41.0643 79.4474 41.1353C78.9734 41.2063 78.4896 41.1695 78.0318 41.0278C77.645 40.9469 77.2915 40.7513 77.0176 40.4665C76.7436 40.1817 76.5619 39.8209 76.4961 39.4313C76.3985 39.0225 76.4232 38.594 76.5671 38.1991C76.7109 37.8043 76.9676 37.4603 77.3052 37.21C77.9711 36.6851 78.765 36.5094 79.5698 36.3706C79.9277 36.3077 80.2921 36.2838 80.6544 36.2491C80.8084 36.2339 80.9841 36.2599 81.0383 36.0625C81.0669 35.9703 81.0664 35.8715 81.0369 35.7795C81.0074 35.6875 80.9503 35.6069 80.8734 35.5485C80.5567 35.2903 79.7737 35.3315 79.5481 35.6743C79.2748 36.0864 78.9125 36.1732 78.4635 36.1081C78.0145 36.043 77.5676 36.0105 77.1251 35.9367C76.6371 35.8543 76.585 35.7198 76.8128 35.2665C77.2943 34.325 78.1012 33.8478 79.1056 33.6526C80.095 33.4537 81.117 33.4849 82.0925 33.7437C83.2704 34.0582 83.8127 34.7242 83.8408 35.9389C83.856 36.5897 83.8408 37.223 83.8408 37.8651C83.8198 38.7667 83.8728 39.6685 83.9992 40.5614C84.0513 40.9063 83.9818 40.9952 83.6196 40.9952C83.099 41.0061 82.5784 40.9952 82.0578 40.9952C81.4027 41.0126 81.4027 41.0126 81.1468 40.3618ZM81.1055 38.1688C81.1229 37.7805 81.0188 37.6634 80.6609 37.7068C80.4461 37.7315 80.2388 37.8006 80.0521 37.9096C79.8654 38.0187 79.7034 38.1653 79.5763 38.3402C79.4946 38.4311 79.4424 38.5447 79.4266 38.6659C79.4107 38.787 79.4319 38.9102 79.4873 39.0191C79.5492 39.1344 79.6444 39.2284 79.7605 39.2887C79.8766 39.3491 80.0082 39.3731 80.1381 39.3575C80.2773 39.3539 80.4137 39.3182 80.5368 39.2531C80.6598 39.188 80.7661 39.0953 80.8474 38.9822C81.0063 38.7398 81.0956 38.4585 81.1055 38.1688Z" fill="#49B0CD"/>
<path d="M88.0478 34.3633C88.4466 33.9761 88.9466 33.7092 89.4903 33.5932C90.1984 33.4676 90.9276 33.6233 91.5228 34.0271C92.0824 34.3915 92.2473 34.9793 92.2603 35.6084C92.2776 36.5086 92.2711 37.4109 92.2755 38.3111C92.2755 39.0226 92.2755 39.732 92.2755 40.4434C92.2755 40.8773 92.1583 40.9966 91.7201 41.0031C91.1497 41.0031 90.577 41.0031 90.0065 41.0031C89.5119 41.0031 89.3861 40.8903 89.384 40.3979C89.384 39.1333 89.384 37.8686 89.384 36.604C89.384 36.4652 89.384 36.3264 89.384 36.1875C89.3579 35.8383 89.23 35.6734 88.9501 35.6214C88.8126 35.5955 88.6703 35.6146 88.5445 35.676C88.4187 35.7373 88.316 35.8376 88.2517 35.9619C88.1467 36.2006 88.1006 36.461 88.1172 36.7212C88.1172 37.8318 88.1172 38.9402 88.1172 40.0486C88.1172 40.2048 88.1172 40.361 88.1172 40.515C88.089 40.8491 87.9567 40.9944 87.6313 41.0009C86.9805 41.0161 86.3493 41.0009 85.7072 41.0009C85.5939 41.0081 85.4822 40.9706 85.3962 40.8964C85.3102 40.8221 85.2568 40.7171 85.2474 40.604C85.2325 40.4831 85.2274 40.3612 85.2322 40.2395C85.2322 38.3177 85.2322 36.3951 85.2322 34.4717C85.2322 34.3676 85.2322 34.2548 85.2322 34.1594C85.2691 33.8036 85.4079 33.6453 85.7658 33.6648C86.3005 33.6919 86.8363 33.6919 87.371 33.6648C87.7853 33.6475 87.8916 33.7689 88.0478 34.3633Z" fill="#49B0CD"/>
<path d="M78.5784 22.4528C78.6157 22.4545 78.653 22.4475 78.6872 22.4325C78.7214 22.4174 78.7517 22.3947 78.7757 22.366C79.5892 21.6372 80.5414 21.6263 81.5132 21.8975C81.837 21.977 82.1279 22.1555 82.3452 22.4083C82.5626 22.6611 82.6957 22.9754 82.7258 23.3074C82.7631 23.5472 82.7841 23.7893 82.7887 24.0319C82.8046 25.5388 82.814 27.0463 82.8169 28.5546C82.8169 29.0622 82.7909 29.0882 82.2898 29.0882C81.7171 29.0882 81.1466 29.0665 80.574 29.0991C80.112 29.1251 80.0013 29.0036 79.9992 28.5199C79.9992 27.2379 79.9992 25.956 79.9992 24.6718C79.9992 24.5525 79.9992 24.4289 79.9992 24.3096C79.9753 23.9321 79.843 23.7716 79.5328 23.7304C79.3793 23.6929 79.2174 23.7124 79.0773 23.7855C78.9372 23.8585 78.8285 23.98 78.7714 24.1274C78.689 24.3746 78.6537 24.635 78.6673 24.8952C78.6673 26.0557 78.6673 27.2162 78.6673 28.3789C78.6673 28.483 78.6673 28.5958 78.6673 28.6891C78.6391 28.9906 78.5436 29.1229 78.2486 29.1012C77.5979 29.0709 76.932 29.0752 76.2747 29.1012C75.9775 29.1012 75.8843 28.9928 75.8517 28.6891C75.8463 28.5851 75.8463 28.4808 75.8517 28.3767V22.6523C75.8474 22.5134 75.8517 22.3743 75.8647 22.2358C75.865 22.1881 75.8748 22.1409 75.8936 22.097C75.9124 22.0531 75.9398 22.0134 75.9741 21.9803C76.0085 21.9471 76.0492 21.9212 76.0937 21.904C76.1382 21.8868 76.1858 21.8787 76.2335 21.8801C76.8409 21.8801 77.4461 21.8801 78.0534 21.8801C78.4222 21.8801 78.5285 22.1556 78.5784 22.4528Z" fill="#42555B"/>
<path d="M58.5723 26.6859C58.5137 27.2328 58.2713 27.7436 57.8846 28.1349C57.1449 28.9114 56.1883 29.1717 55.1645 29.2498C54.5761 29.2911 53.9855 29.2114 53.4292 29.0155C51.9108 28.4971 51.1407 27.3973 51.0149 25.8334C50.8348 23.5905 52.3164 22.1328 53.8955 21.8399C54.8709 21.633 55.8875 21.7566 56.7849 22.1913C58.2317 22.9115 58.7371 24.3605 58.6655 25.6316C58.6482 25.9548 58.5441 26.0481 58.2035 26.0655C57.9454 26.0785 57.6851 26.0655 57.4248 26.0655L54.3576 26.0503C54.0409 26.0503 53.9693 26.1154 53.9584 26.4429C53.941 26.6169 53.9801 26.7919 54.07 26.942C54.1599 27.092 54.2957 27.2091 54.4574 27.2759C54.9671 27.4928 55.4638 27.4299 55.7589 27.1023C55.8381 27.0099 55.9065 26.9087 55.9628 26.8008C56.0106 26.7073 56.0859 26.6306 56.1786 26.581C56.2712 26.5313 56.3768 26.5112 56.4812 26.5232C57.1645 26.5644 57.8521 26.6273 58.5723 26.6859ZM54.8586 24.6447C55.0833 24.6621 55.3093 24.6452 55.5289 24.5948C55.8348 24.5232 55.9259 24.3562 55.8131 24.0633C55.7607 23.8978 55.6624 23.7505 55.5295 23.6387C55.3966 23.527 55.2346 23.4553 55.0625 23.4321C54.8839 23.3972 54.699 23.4132 54.5291 23.4785C54.3592 23.5437 54.211 23.6554 54.1016 23.8009C54.0359 23.8811 53.9885 23.9746 53.9627 24.075C53.9368 24.1754 53.9332 24.2802 53.9519 24.3822C53.9845 24.5839 54.0951 24.6946 54.3055 24.662C54.4842 24.6022 54.6765 24.5962 54.8586 24.6447Z" fill="#42555B"/>
<path d="M87.8178 21.7582C88.8439 21.7473 89.7896 21.9946 90.5488 22.7104C91.7223 23.8167 91.9306 25.2093 91.5098 26.6843C91.1063 28.1008 90.0543 28.8708 88.6335 29.1572C87.9879 29.2901 87.3206 29.2761 86.6812 29.116C85.8536 28.9208 85.1219 28.4387 84.616 27.7553C84.1101 27.0719 83.8627 26.2313 83.9177 25.3828C83.9936 23.1681 85.5164 21.756 87.8178 21.7582ZM88.7137 25.4132C88.6703 24.9468 88.6985 24.5282 88.5619 24.1247C88.5268 23.972 88.4456 23.8338 88.3291 23.729C88.2126 23.6242 88.0667 23.5578 87.9111 23.539C87.4773 23.4913 87.2105 23.6757 87.0673 24.1334C86.7985 25.0172 86.7873 25.9592 87.0348 26.8492C87.1519 27.309 87.384 27.4999 87.7875 27.4999C88.1909 27.4999 88.4165 27.3025 88.5532 26.8492C88.6964 26.3655 88.6725 25.86 88.7137 25.4132Z" fill="#42555B"/>
<path d="M100.59 21.7651C101.011 21.7472 101.432 21.8007 101.835 21.9234C103.629 22.4484 104.535 23.9581 104.416 25.7216C104.24 28.355 102.03 29.4439 100.008 29.2118C98.0364 28.9949 96.7436 27.6197 96.6373 25.7932C96.4833 23.1186 98.4724 21.6827 100.59 21.7651ZM101.429 25.4353C101.458 24.985 101.406 24.5331 101.275 24.1013C101.123 23.6956 100.88 23.5243 100.498 23.5351C100.331 23.5312 100.168 23.5869 100.038 23.6922C99.9082 23.7975 99.8199 23.9456 99.7891 24.11C99.4995 25.0439 99.4995 26.0436 99.7891 26.9776C99.8376 27.1563 99.9536 27.3093 100.113 27.4044C100.272 27.4994 100.461 27.5292 100.642 27.4873C100.789 27.468 100.927 27.4039 101.036 27.3039C101.146 27.2038 101.223 27.0725 101.255 26.9277C101.386 26.4413 101.444 25.9386 101.429 25.4353Z" fill="#42555B"/>
<path d="M72.3938 41.1359C71.8917 41.1569 71.3888 41.1205 70.8949 41.0275C70.4324 40.9432 69.997 40.7485 69.6258 40.46C69.2546 40.1715 68.9585 39.7977 68.7626 39.3703C68.5934 39.0167 68.6498 38.8995 69.0251 38.8388C69.4004 38.7781 69.8125 38.7173 70.2073 38.6653C70.3617 38.6373 70.5205 38.6457 70.6711 38.6898C70.8217 38.7338 70.9599 38.8123 71.075 38.9191C71.6151 39.4332 72.2441 39.4614 72.9166 39.277C72.9844 39.2629 73.0505 39.2418 73.114 39.2141C73.2246 39.1555 73.3309 39.0774 73.3005 38.9343C73.2924 38.8825 73.2681 38.8347 73.2311 38.7976C73.194 38.7606 73.1462 38.7363 73.0944 38.7282C72.8081 38.6609 72.5218 38.5959 72.2268 38.5395C71.819 38.4614 71.409 38.3941 71.0012 38.3225C70.7136 38.2581 70.4326 38.1674 70.1617 38.0514C68.5587 37.4267 68.6238 35.2315 69.6954 34.3812C70.2741 33.9333 70.9656 33.6548 71.6932 33.5764C72.4878 33.4695 73.2967 33.5712 74.0402 33.8714C74.5887 34.0941 75.0611 34.4708 75.4003 34.956C75.6649 35.3248 75.5651 35.5742 75.1139 35.6501C74.6934 35.7505 74.2654 35.8166 73.8341 35.8475C73.5547 35.8686 73.278 35.7808 73.0619 35.6024C72.7213 35.3031 72.2984 35.3248 71.8862 35.3226C71.8252 35.3247 71.7655 35.3401 71.7111 35.3679C71.6567 35.3956 71.6092 35.4349 71.5717 35.4831C71.5365 35.5159 71.5104 35.5572 71.4958 35.6031C71.4812 35.6489 71.4787 35.6978 71.4885 35.7449C71.4984 35.792 71.5201 35.8357 71.5518 35.872C71.5835 35.9082 71.6239 35.9356 71.6693 35.9517C71.7979 36.0033 71.9343 36.0326 72.0728 36.0384C72.756 36.136 73.4458 36.2163 74.1226 36.3551C75.1638 36.572 75.7712 37.2228 75.9165 38.1902C75.9994 38.6555 75.9339 39.135 75.7291 39.5609C75.5243 39.9868 75.1907 40.3375 74.7755 40.5633C74.0607 40.9976 73.228 41.1978 72.3938 41.1359Z" fill="#49B0CD"/>
<path d="M46.4722 25.4377C46.4722 24.416 46.4722 23.3944 46.4722 22.3727C46.4722 21.8499 46.392 21.7718 45.867 21.7545C45.5726 21.7531 45.2788 21.7277 44.9885 21.6786C44.8754 21.6672 44.7693 21.6183 44.6872 21.5397C44.605 21.4611 44.5515 21.3572 44.5352 21.2447C44.4586 20.8008 44.4382 20.3489 44.4744 19.8998C44.5135 19.5463 44.6545 19.414 45.0167 19.3944C45.3269 19.3771 45.6393 19.3944 45.9516 19.3944H50.4223C50.5606 19.3887 50.6991 19.3937 50.8366 19.4096C50.9427 19.413 51.0433 19.4574 51.1173 19.5334C51.1914 19.6095 51.233 19.7113 51.2335 19.8174C51.2531 20.2512 51.2834 20.6851 51.2704 21.1189C51.2574 21.6547 51.0036 21.8629 50.47 21.8261C50.2292 21.8087 49.9884 21.7653 49.7455 21.761C49.3637 21.761 49.2466 21.8673 49.2357 22.2512C49.2227 22.7545 49.2227 23.2555 49.2249 23.7696C49.2249 25.288 49.2054 26.7848 49.2596 28.2902C49.2596 28.4287 49.2509 28.5671 49.2336 28.7045C49.2341 28.7617 49.2227 28.8183 49.1999 28.8708C49.1772 28.9233 49.1436 28.9704 49.1015 29.009C49.0593 29.0477 49.0095 29.077 48.9553 29.0952C48.9011 29.1134 48.8436 29.1199 48.7867 29.1144C48.1468 29.0928 47.5069 29.0841 46.867 29.1144C46.5785 29.1253 46.4831 29.0017 46.4722 28.6806C46.4614 28.3596 46.4722 27.9865 46.4722 27.6416C46.4722 26.8932 46.4722 26.1666 46.4722 25.4377Z" fill="#42555B"/>
<path d="M59.375 25.4864C59.375 23.66 60.4249 22.2327 62.093 21.8314C62.5804 21.7015 63.0892 21.673 63.588 21.7476C64.0869 21.8222 64.5651 21.9984 64.9931 22.2652C65.6614 22.6857 66.1381 23.3517 66.3207 24.1198C66.4248 24.4821 66.3424 24.6209 65.9801 24.6469C65.479 24.6838 64.9801 24.7142 64.4812 24.7771C64.0669 24.8292 63.9021 24.6795 63.7676 24.2608C63.6331 23.8422 63.4335 23.6621 63.0973 23.6643C62.9308 23.6664 62.7701 23.7255 62.6418 23.8316C62.5135 23.9378 62.4255 24.0847 62.3923 24.2478C62.1428 25.0295 62.1428 25.8695 62.3923 26.6513C62.4198 26.7616 62.471 26.8647 62.5423 26.9533C62.6136 27.0419 62.7034 27.1139 62.8054 27.1643C62.9074 27.2146 63.0191 27.2422 63.1329 27.245C63.2466 27.2478 63.3595 27.2258 63.4639 27.1805C63.5689 27.1387 63.6628 27.0731 63.7381 26.9887C63.8134 26.9044 63.868 26.8037 63.8977 26.6946C64.0626 26.2608 64.1862 26.1849 64.6374 26.2218C65.0886 26.2586 65.5051 26.3064 65.9389 26.3606C66.3727 26.4148 66.466 26.5515 66.3293 26.9896C66.1105 27.646 65.692 28.2176 65.1323 28.6244C64.5726 29.0312 63.8998 29.253 63.2079 29.2586C60.9542 29.3345 59.3707 27.7749 59.375 25.4864Z" fill="#42555B"/>
<path d="M59.9196 37.5962C59.9196 37.145 59.9196 36.6938 59.9196 36.2426C59.9196 35.7567 59.8264 35.6721 59.347 35.6635C58.9131 35.6635 58.796 35.5333 58.7852 35.1038C58.7852 34.8088 58.7852 34.5138 58.7852 34.221C58.7982 33.8197 58.9262 33.6917 59.3123 33.6678C59.9044 33.6288 59.911 33.6201 59.9196 33.0171C59.9196 32.6874 59.9066 32.3663 59.9392 32.0301C59.9847 31.5703 60.1344 31.4054 60.5899 31.3794C61.1083 31.3403 61.6289 31.3512 62.1495 31.3599C62.2107 31.3572 62.2719 31.3668 62.3293 31.3881C62.3868 31.4093 62.4395 31.4418 62.4843 31.4835C62.5291 31.5253 62.5652 31.5756 62.5904 31.6315C62.6156 31.6873 62.6294 31.7476 62.6311 31.8089C62.6874 32.2039 62.7027 32.6037 62.6766 33.0019C62.6463 33.5876 62.7309 33.683 63.2948 33.6527C63.9564 33.6266 64.0931 33.7546 64.0931 34.4184C64.0931 34.6353 64.0931 34.8696 64.0714 35.093C64.0389 35.4422 63.9304 35.5507 63.5964 35.6027H63.5443C62.6766 35.7069 62.6766 35.7069 62.6766 36.5528C62.6766 37.1081 62.6766 37.6634 62.6875 38.2187C62.6983 38.774 62.8784 38.9519 63.4575 38.9302C63.5617 38.9302 63.6745 38.9064 63.7699 38.9042C63.8088 38.8991 63.8483 38.9026 63.8856 38.9144C63.923 38.9261 63.9574 38.9459 63.9863 38.9724C64.0152 38.9988 64.038 39.0313 64.0531 39.0675C64.0682 39.1036 64.0752 39.1427 64.0736 39.1818C64.1332 39.594 64.1332 40.0126 64.0736 40.4248C64.056 40.5722 63.9911 40.7101 63.8887 40.8176C63.7862 40.9251 63.6517 40.9966 63.5053 41.0213C62.7052 41.2001 61.8714 41.1551 61.0953 40.8912C60.2732 40.5918 59.9695 39.902 59.9131 39.0907C59.8914 38.6049 59.9196 38.0994 59.9196 37.5962Z" fill="#49B0CD"/>
<path d="M92.7822 24.2186C92.7822 22.868 92.7822 21.5159 92.7822 20.1623C92.7793 20.0407 92.7829 19.9191 92.7931 19.7979C92.7921 19.7407 92.8034 19.6839 92.826 19.6314C92.8487 19.5789 92.8822 19.5317 92.9245 19.4932C92.9668 19.4546 93.0167 19.4255 93.0711 19.4077C93.1255 19.3899 93.183 19.3839 93.2399 19.3901C93.7453 19.4096 94.2442 19.3489 94.7453 19.3293C95.3353 19.3077 95.6 19.5745 95.6021 20.197C95.6021 20.7003 95.5392 21.2013 95.5371 21.7024C95.5371 23.9388 95.5479 26.1752 95.5544 28.4116C95.5544 29.0385 95.4156 29.1622 94.7692 29.1036C94.3195 29.0667 93.8675 29.0667 93.4178 29.1036C92.882 29.1405 92.7822 29.0429 92.7822 28.4941C92.7822 27.0653 92.7822 25.6402 92.7822 24.2186Z" fill="#42555B"/>
<path d="M56.3457 34.5763C56.6754 34.0904 57.0507 33.7087 57.6125 33.598C57.7134 33.5747 57.8155 33.5566 57.9183 33.5438C58.402 33.5113 58.5365 33.6393 58.5387 34.1317C58.5387 34.5828 58.5517 35.0319 58.5495 35.483C58.5495 35.9971 58.376 36.1772 57.8814 36.2075C56.9877 36.2661 56.6906 36.5503 56.6645 37.4526C56.6407 38.3203 56.6537 39.188 56.6515 40.0556C56.6515 40.2118 56.6645 40.368 56.6515 40.522C56.6146 40.8864 56.4845 41.0144 56.1223 41.0209C55.5322 41.0209 54.9444 41.0318 54.3544 41.0209C53.9921 41.0209 53.8815 40.8886 53.875 40.4938C53.875 39.8691 53.875 39.2465 53.875 38.6218C53.875 37.2032 53.875 35.7824 53.875 34.3616C53.875 33.7455 53.9401 33.6826 54.5648 33.6805C54.9119 33.6805 55.2589 33.6805 55.6038 33.6805C56.17 33.6805 56.2329 33.7477 56.2546 34.2943C56.249 34.3451 56.2543 34.3965 56.27 34.4451C56.2857 34.4937 56.3115 34.5384 56.3457 34.5763Z" fill="#49B0CD"/>
<path d="M67.8264 37.3039V40.3191C67.8264 40.9156 67.7244 41.0175 67.1344 41.0154C66.6659 41.0154 66.1973 41.0154 65.731 41.0154C64.9718 41.0154 64.9219 40.9763 64.9219 40.2388V35.7638C64.9219 35.2627 64.9219 34.7595 64.9219 34.2562C64.9219 33.7942 65.052 33.6706 65.5097 33.6641C66.0997 33.6641 66.6876 33.6641 67.2776 33.6641C67.7114 33.6641 67.8155 33.7834 67.8177 34.2345C67.8177 35.2562 67.8177 36.2779 67.8177 37.3017L67.8264 37.3039Z" fill="#49B0CD"/>
<path d="M66.2387 30.9679C66.5662 30.9679 66.8894 30.944 67.2213 30.9679C67.5944 31.0047 67.7549 31.1544 67.7831 31.5275C67.8178 31.9895 67.8027 32.4581 67.8005 32.9223C67.8041 32.9614 67.7995 33.0009 67.787 33.0382C67.7744 33.0755 67.7543 33.1097 67.7277 33.1387C67.7011 33.1677 67.6688 33.1909 67.6328 33.2066C67.5968 33.2224 67.5578 33.2305 67.5185 33.2303C67.3992 33.2483 67.279 33.2599 67.1584 33.265C66.6422 33.2542 66.1237 33.2477 65.6075 33.2151C65.1866 33.1869 64.9914 33.0221 64.9567 32.6208C64.9195 32.2089 64.9159 31.7947 64.9459 31.3822C64.9697 31.0546 65.1259 30.9483 65.4665 30.9375C65.6053 30.9375 65.742 30.9375 65.8808 30.9483H66.243L66.2387 30.9679Z" fill="#49B0CD"/>
</g>
<defs>
<clipPath id="clip0_3357_4990">
<rect width="119.189" height="60.7431" fill="white" transform="translate(0.90625 0.628906)"/>
</clipPath>
</defs>
</svg>
