<svg width="69" height="68" viewBox="0 0 69 68" fill="none" xmlns="http://www.w3.org/2000/svg">
<g clip-path="url(#clip0_3357_4979)">
<path d="M42.7674 43.5055C42.5171 43.8428 42.6622 44.2297 43.1108 44.5284C43.5836 44.3519 43.7843 43.9323 43.5655 43.5284C43.4929 43.4075 43.3236 43.2697 43.2027 43.2697C43.1182 43.2782 43.0362 43.3034 42.9614 43.3439C42.8867 43.3844 42.8208 43.4393 42.7674 43.5055Z" fill="url(#paint0_linear_3357_4979)"/>
<path d="M15.5417 44.4206L15.0024 44.5307C14.8379 44.1504 14.8782 43.7937 14.9181 43.4397C14.9234 43.393 14.9287 43.3464 14.9335 43.2997C15.7037 43.2671 15.8935 43.5972 15.5417 44.4206Z" fill="url(#paint1_linear_3357_4979)"/>
<path d="M37.3572 44.0287L37.2061 43.551L37.0997 43.5365C37.0681 43.6463 37.037 43.7561 36.9999 43.8876C36.983 43.9472 36.9649 44.0113 36.9449 44.0819L37.3572 44.0287Z" fill="url(#paint2_linear_3357_4979)"/>
<path d="M58.6402 43.781C58.6162 43.7302 58.5987 43.6766 58.5882 43.6214C58.5882 43.549 58.5922 43.476 58.5973 43.3845C58.599 43.3538 58.6009 43.3209 58.6027 43.2852H59.1045C59.1879 43.8028 59.1807 43.8088 58.6402 43.781Z" fill="url(#paint3_linear_3357_4979)"/>
<path d="M32.3042 44.5389C32.5823 44.5389 32.7625 44.2729 32.7552 43.8739C32.7468 43.4773 32.5472 43.2379 32.2631 43.2488C31.9789 43.2596 31.7818 43.5402 31.7891 43.9078C31.7964 44.2753 32.0261 44.5389 32.3042 44.5389Z" fill="url(#paint4_linear_3357_4979)"/>
<path fill-rule="evenodd" clip-rule="evenodd" d="M33.343 67.9862H35.7613C35.9348 67.9492 36.1105 67.9237 36.2873 67.91C39.9789 67.8182 43.5158 67.0044 46.9438 65.661C49.6727 64.5808 52.2535 63.1588 54.6245 61.4289C55.4201 60.8533 56.1734 60.2149 56.9134 59.5692C59.2899 57.4903 61.3636 55.0889 63.0742 52.435C65.3193 48.9757 66.9035 45.13 67.7464 41.093C68.0767 39.6293 68.287 38.1411 68.3752 36.6432C68.3948 36.5098 68.4284 36.3789 68.4756 36.2526V32.8669C68.4671 32.7912 68.4563 32.716 68.4455 32.6408C68.4224 32.4795 68.3994 32.3185 68.3994 32.1535C68.3408 30.4484 68.1267 28.7521 67.7597 27.0859C67.7412 26.9839 67.7068 26.8846 67.6691 26.776L67.669 26.7757L67.6689 26.7755L67.6689 26.7753C67.6499 26.7205 67.63 26.6633 67.611 26.6022H62.5554C62.6161 26.5338 62.6689 26.4729 62.7169 26.4174L62.7174 26.4169L62.7176 26.4167L62.7178 26.4165C62.812 26.3077 62.8878 26.2203 62.9678 26.1403C64.0343 25.073 65.1007 24.0061 66.1672 22.9396C66.174 22.9329 66.1808 22.9262 66.1876 22.9195C66.3856 22.7234 66.5812 22.5298 66.2398 22.179C64.6799 23.6204 63.1528 25.0871 61.6147 26.5937H60.9654C59.926 26.5941 58.8867 26.5967 57.8474 26.5994C55.2061 26.6061 52.5649 26.6129 49.9244 26.5817C48.3658 26.5623 46.3996 27.8501 46.0103 29.815C45.859 30.565 45.8689 31.3387 46.0393 32.0846C46.4069 33.717 48.0296 35.0157 49.7225 35.0229H53.3427C53.4782 35.0229 53.6143 35.0304 53.7634 35.0387L53.7649 35.0388C53.7993 35.0407 53.8344 35.0426 53.8703 35.0445C53.9033 35.0462 53.937 35.0479 53.9715 35.0495V39.9358C53.8246 39.9605 53.6764 39.9774 53.5277 39.9866C52.884 39.9866 52.2408 39.9878 51.5975 39.989C50.3109 39.9914 49.0244 39.9938 47.7346 39.9866C47.093 39.9641 46.4591 39.8396 45.8567 39.6178C44.9208 39.3058 44.0079 38.9576 43.1712 38.4219C40.9825 37.0277 39.6029 35.0797 39.1809 32.5175C38.7625 29.977 39.2123 27.5913 40.7455 25.4825C41.835 23.9819 43.3211 22.9674 45.0139 22.2419C46.218 21.7339 47.515 21.4835 48.8216 21.5067C52.9148 21.5311 57.008 21.5279 61.1012 21.5247C62.4989 21.5236 63.8965 21.5225 65.2942 21.5225H66.0282C60.7211 7.57463 45.5435 -2.13142 29.0637 0.591645C19.8534 2.114 12.4654 6.76086 6.99263 14.3146C2.31554 20.7752 0.325243 28.0689 0.671067 36.0906H6.20667L6.25262 36.2115L1.36271 41.1014C2.08757 44.4907 3.32551 47.7495 5.03377 50.7652C6.12405 52.6889 7.39628 54.5038 8.833 56.1847C10.4776 58.1128 12.341 59.8431 14.3855 61.3406C17.4569 63.616 20.891 65.3556 24.5426 66.4856C26.2252 67.018 27.9518 67.3992 29.7021 67.6247C30.3885 67.7082 31.079 67.762 31.7696 67.8157L31.7701 67.8158L31.772 67.8159C32.1403 67.8446 32.5085 67.8732 32.8762 67.9064C32.985 67.9157 33.0932 67.9373 33.2016 67.959C33.2258 67.9638 33.25 67.9687 33.2742 67.9734C33.2971 67.9778 33.32 67.9821 33.343 67.9862ZM2.69885 41.07H2.10636L6.94185 36.2321L6.86083 36.1172H7.51621C12.2626 36.1229 17.0086 36.1204 21.7542 36.11C22.0512 36.1181 22.3453 36.0507 22.6091 35.9141C23.1774 35.5755 23.2343 34.9008 22.7772 34.4171C22.6326 34.2631 22.4564 34.1422 22.2605 34.0629C22.0647 33.9835 21.854 33.9476 21.643 33.9576C21.1938 33.9611 20.7446 33.9593 20.2954 33.9576H20.2946C19.6378 33.955 18.9812 33.9524 18.325 33.9661C16.9574 33.9951 15.8172 33.4256 14.8124 32.5937C13.4327 31.4498 12.8088 29.9432 12.8015 28.1403C12.7955 26.6131 13.1643 25.2262 14.1594 24.0666C15.3722 22.6518 16.8716 21.7655 18.8063 21.7788H21.9429C26.3459 21.8022 30.7481 21.826 35.1495 21.8502C35.2379 21.8509 35.3279 21.8578 35.446 21.8668C35.5103 21.8717 35.583 21.8773 35.6682 21.8828C35.5537 21.9958 35.4459 22.1029 35.3425 22.2056L35.3412 22.207L35.3398 22.2083L35.3393 22.2088C35.1209 22.4258 34.9219 22.6236 34.719 22.8175C33.8065 23.6937 32.8907 24.5664 31.9718 25.4354C31.7745 25.6223 31.5747 25.8066 31.3749 25.9909C31.0578 26.2833 30.7408 26.5757 30.4337 26.8791C30.1761 27.133 29.8823 27.1645 29.551 27.1645H20.562C20.4214 27.1529 20.2801 27.1554 20.14 27.1717C19.9861 27.1977 19.8394 27.2558 19.7095 27.3422C19.3262 27.6264 19.169 27.9819 19.2899 28.2564C19.4592 28.63 19.7772 28.7618 20.1738 28.7509C20.282 28.7509 20.39 28.7529 20.4978 28.755H20.4981C20.7133 28.759 20.9278 28.763 21.1412 28.7509C22.6466 28.6651 24.0335 29.1221 25.3999 29.6699C26.5847 30.1282 27.657 30.8363 28.5438 31.746C28.9917 32.197 29.3447 32.733 29.5821 33.3226C29.8195 33.9122 29.9364 34.5434 29.9258 35.1789C29.9041 36.7544 29.1979 38.0374 27.9368 38.9926C26.9162 39.7689 25.7711 40.2623 24.5378 40.6153C23.3389 40.9427 22.0996 41.0978 20.857 41.076C16.4735 41.0647 12.09 41.0666 7.70693 41.0685H7.70614C6.03697 41.0693 4.36787 41.07 2.69885 41.07ZM37.5509 21.8695V40.9007H31.8025V27.0278L37.5509 21.8695ZM28.04 44.5953L28.04 44.5968C28.0382 44.7058 28.0363 44.8163 28.0347 44.9285V44.9273C27.5747 44.9273 27.4024 44.6487 27.2292 44.3684C27.1219 44.1948 27.0142 44.0207 26.8376 43.9116C26.8207 44.2404 26.8038 44.544 26.7844 44.8898L26.2826 44.9188V42.9224C26.5136 42.7217 26.6792 42.7955 26.8316 43.0168C26.9809 43.2278 27.1315 43.4351 27.3058 43.6749C27.3742 43.769 27.4462 43.8681 27.5232 43.9744L27.5849 42.8354H28.025C28.0599 43.4093 28.0504 43.979 28.04 44.5953ZM44.8809 42.8596L45.3005 42.8003V42.7991C45.486 43.0738 45.6499 43.3145 45.8254 43.5723L45.8267 43.5742L45.9507 43.7564C46.0052 43.8365 46.0615 43.9192 46.1203 44.0059C46.1355 43.7206 46.1475 43.4894 46.1591 43.2656L46.1591 43.2648L46.1599 43.2492C46.1656 43.139 46.1713 43.0304 46.1772 42.9176H46.6016V44.8523C46.2719 45.0358 46.1371 44.8305 46.0028 44.626L46.0027 44.6259C45.9848 44.5987 45.967 44.5714 45.9486 44.5452L45.425 43.8015C45.4045 44.2308 45.39 44.5331 45.3731 44.8801L44.8809 44.9212V42.8596ZM28.8074 44.914V42.8112L28.811 42.81C29.2666 42.8318 29.4471 43.1234 29.6283 43.4162C29.7491 43.6114 29.8702 43.8071 30.0734 43.9236V42.8535L30.5353 42.8185V44.8571C30.2862 45.0131 30.1169 44.9212 29.9597 44.6782C29.8535 44.5139 29.734 44.3579 29.5897 44.1696L29.5896 44.1695C29.5204 44.0791 29.4455 43.9814 29.3636 43.8717C29.342 44.2028 29.3255 44.4423 29.309 44.6815L29.2947 44.891L28.8074 44.914ZM54.4794 42.8511L55.0126 42.8112V44.8898C54.5418 44.9662 54.3706 44.6738 54.1995 44.3814C54.0836 44.1834 53.9676 43.9854 53.7587 43.9019C53.743 44.2235 53.7285 44.5343 53.7127 44.8801H53.2811V42.9454C53.5205 42.8027 53.6922 42.8705 53.8361 43.0857C54.0134 43.3756 54.2298 43.6397 54.4794 43.8704V42.8511ZM20.0613 44.3514C19.9448 44.1631 19.8261 43.9712 19.6333 43.8511C19.625 44.1008 19.6121 44.3276 19.599 44.5587C19.593 44.6633 19.587 44.7688 19.5814 44.8777L19.1485 44.9261V42.9055L19.5862 42.8825C19.8341 43.232 20.0747 43.5694 20.3891 44.0095C20.4 43.8022 20.4096 43.6242 20.4186 43.4572C20.4285 43.2735 20.4376 43.103 20.4471 42.9212L20.8788 42.8813V44.92C20.4236 44.937 20.2452 44.6487 20.0613 44.3514ZM61.79 43.7157C61.7961 43.8027 61.8021 43.8995 61.8106 44.0446L60.9775 44.1171C60.981 44.1791 60.9848 44.2289 60.9877 44.268C60.9909 44.3099 60.9932 44.3396 60.9932 44.3589C61.0936 44.4897 61.2512 44.489 61.4092 44.4883C61.6355 44.4874 61.8625 44.4864 61.923 44.8716H60.4515V42.781C60.5683 42.7885 60.6839 42.7954 60.7985 42.8022C61.1452 42.823 61.4828 42.8432 61.819 42.8777C61.8451 42.8808 61.8654 42.9442 61.8931 43.0309C61.909 43.0809 61.9274 43.1386 61.9508 43.1969L61.0319 43.261C61.0391 43.5766 61.0391 43.5766 61.79 43.7157ZM44.1675 43.8281C44.1167 44.5947 43.8338 44.9551 43.2002 44.9381C42.5593 44.9478 42.1675 44.5585 42.1554 43.9019C42.1494 43.2731 42.5533 42.7822 43.0793 42.7894C43.7104 42.7979 44.2062 43.2465 44.1675 43.8281ZM14.683 44.9199C14.5963 44.9132 14.509 44.9065 14.4218 44.9019V42.9297C14.9841 42.7084 15.7277 42.804 15.9937 43.1498C16.1329 43.3245 16.2184 43.5359 16.2398 43.7582C16.2613 43.9806 16.2178 44.2043 16.1146 44.4025C15.8078 45.0068 15.2589 44.9644 14.683 44.9199ZM37.5013 42.8354L38.1942 44.8716L37.7226 44.9369L37.4602 44.5488H36.8423L36.621 44.9055H36.1289C36.3635 44.1957 36.5836 43.527 36.8109 42.8354H37.5013ZM59.6026 43.9345C59.5423 44.025 59.4757 44.1111 59.4031 44.1921L59.7743 44.8813L59.3052 44.9115C59.1979 44.8239 59.1373 44.7097 59.0773 44.5967C58.9858 44.4244 58.8957 44.2547 58.6437 44.186C58.637 44.23 58.6305 44.2731 58.6239 44.3156L58.6063 44.4306C58.5977 44.4864 58.5892 44.5422 58.5805 44.5991C58.5674 44.6845 58.554 44.7724 58.5398 44.8668L58.1371 44.9188V42.9067C58.4624 42.7338 58.7973 42.7858 59.1274 42.862C59.732 43.001 59.9061 43.3989 59.6026 43.9345ZM11.8767 43.2809L11.8767 43.2808C11.8754 43.1264 11.8741 42.9641 11.8741 42.7894L12.4521 42.8705V44.4218H13.0276C13.2123 44.1346 13.2015 43.8279 13.1906 43.5161C13.1829 43.2949 13.1751 43.0712 13.2368 42.8499L13.6721 42.8076C13.6721 42.9612 13.6743 43.1115 13.6765 43.2593C13.6818 43.627 13.6869 43.9794 13.6576 44.3287C13.6191 44.5215 13.5078 44.6921 13.3468 44.8051C13.0313 45.0288 12.6371 44.995 12.313 44.8668C11.9889 44.7386 11.8608 44.4484 11.8741 44.0857C11.8811 43.827 11.879 43.5679 11.8767 43.2809ZM33.3152 43.862C33.3091 44.5234 32.9161 44.9394 32.2922 44.9394C31.6912 44.9418 31.3031 44.5452 31.2958 43.9224C31.2862 43.2683 31.6852 42.7931 32.2632 42.7846C32.4036 42.7841 32.5428 42.8117 32.6723 42.866C32.8019 42.9203 32.9192 43 33.0173 43.1005C33.1154 43.201 33.1924 43.3202 33.2435 43.451C33.2947 43.5818 33.3191 43.7216 33.3152 43.862ZM7.66735 42.8656C8.21148 42.6443 8.66371 42.8559 8.79914 43.4037C8.63284 43.5567 8.47674 43.464 8.31847 43.3701C8.14531 43.2673 7.96955 43.1629 7.77497 43.3771C7.83493 43.5984 8.00742 43.6352 8.17427 43.6708C8.23622 43.684 8.2974 43.697 8.35175 43.7193C8.76649 43.8849 8.92973 44.1171 8.83542 44.4895C8.80761 44.6057 8.74521 44.7107 8.65646 44.7906C8.36021 45.024 8.0035 44.9684 7.67219 44.9115C7.52978 44.8957 7.399 44.8254 7.30709 44.7155C7.21518 44.6056 7.16924 44.4644 7.17885 44.3215C7.42226 44.123 7.5712 44.248 7.72992 44.3813C7.81011 44.4486 7.89279 44.5179 7.99141 44.5488L8.34086 44.3988C8.3293 44.3716 8.32056 44.3441 8.31262 44.3191C8.29731 44.2708 8.28494 44.2319 8.26106 44.2223C8.07726 44.1522 7.88621 44.0905 7.69758 44.0313C7.39892 43.9357 7.19457 43.7411 7.19457 43.4267C7.19336 43.1341 7.40617 42.972 7.66735 42.8656ZM51.5979 43.6141L52.3826 43.6818V44.0518L51.5894 44.1256V44.4605C51.6992 44.5645 51.8452 44.5608 51.9921 44.5572C52.2075 44.5519 52.4247 44.5465 52.5326 44.8801H51.0429V42.9043C51.3369 42.7635 51.6432 42.7855 51.9476 42.8073C52.0588 42.8153 52.1698 42.8233 52.2799 42.8233C52.4709 42.8257 52.5495 42.9732 52.4576 43.203L51.5749 43.2852C51.5776 43.3251 51.5801 43.3609 51.5825 43.3952L51.5979 43.6141ZM34.4651 44.891L33.7686 42.8052L34.343 42.8439L34.8436 44.2864L35.3103 42.8354H35.8895L35.1737 44.891H34.4651ZM49.2327 42.7931C49.7309 42.7108 50.0985 42.9623 50.2992 43.5307H50.3004C50.207 43.5908 50.0939 43.6127 49.9847 43.5917C49.8755 43.5708 49.7786 43.5087 49.714 43.4182C49.5362 43.2211 49.3041 43.1558 49.0828 43.3807C48.9805 43.5055 48.919 43.6588 48.9067 43.8197C48.8943 43.9806 48.9318 44.1414 49.0139 44.2804C49.1795 44.5065 49.4069 44.5548 49.6946 44.3517C49.905 44.2078 50.078 44.1631 50.2992 44.2719C50.0042 44.8861 49.6245 45.0748 49.0465 44.9091C48.6378 44.7918 48.3343 44.2973 48.3754 43.8136C48.4214 43.2634 48.7346 42.8753 49.2327 42.7931ZM17.4629 44.1183V44.5282L18.3117 44.573L18.3843 44.891H16.9659V42.9285C17.4066 42.8227 17.8662 42.8227 18.3069 42.9285C18.3308 42.9339 18.3443 42.9859 18.3636 43.0595C18.3745 43.1015 18.3873 43.1504 18.4048 43.2018L17.4629 43.2683V43.6165C17.5469 43.7181 17.6781 43.7146 17.8116 43.711C18.0103 43.7057 18.2145 43.7003 18.2767 44.0409L17.4629 44.1183ZM10.6407 43.2888V44.891H10.0821V43.3094L9.49321 43.1885V42.8257H11.209L11.2344 43.2006L10.6407 43.2888ZM23.0807 42.7967C23.3056 42.7979 23.4132 42.9067 23.3504 43.2078L22.7337 43.2767V44.8946L22.25 44.92V43.2912L21.5789 43.2066V42.7967H23.0807ZM57.3267 42.9829C57.3796 43.0182 57.4424 43.06 57.5216 43.105L56.8457 43.3251V44.891H56.3016V43.2925L55.697 43.1909C55.7034 43.1585 55.7075 43.1207 55.7115 43.0842C55.7196 43.0104 55.7271 42.9422 55.7514 42.9357C55.9226 42.8947 56.0978 42.8724 56.2738 42.8692C56.5534 42.8563 56.8336 42.8592 57.1129 42.8777C57.1767 42.883 57.2376 42.9236 57.3267 42.9829ZM39.17 44.9261V43.2912L38.5013 43.18C38.5289 43.1342 38.5526 43.0848 38.5741 43.04L38.5741 43.0399C38.6139 42.957 38.6462 42.8898 38.6815 42.8898C39.141 42.8729 39.6029 42.8717 40.0624 42.8898C40.1042 42.8913 40.1446 42.9521 40.1946 43.0273C40.2226 43.0694 40.2537 43.1161 40.2897 43.1594L39.6537 43.2973V44.8595L39.17 44.9261ZM25.0686 44.9369V42.8076L25.5426 42.8463V44.8728L25.0686 44.9369ZM40.9946 42.914L41.4191 42.8838V44.8559L40.9946 44.9345V42.914Z" fill="url(#paint5_linear_3357_4979)"/>
</g>
<defs>
<linearGradient id="paint0_linear_3357_4979" x1="68.4722" y1="34.0081" x2="0.637534" y2="34.0081" gradientUnits="userSpaceOnUse">
<stop stop-color="#66ABE7"/>
<stop offset="1" stop-color="#77C3ED"/>
</linearGradient>
<linearGradient id="paint1_linear_3357_4979" x1="68.4722" y1="34.0081" x2="0.637534" y2="34.0081" gradientUnits="userSpaceOnUse">
<stop stop-color="#66ABE7"/>
<stop offset="1" stop-color="#77C3ED"/>
</linearGradient>
<linearGradient id="paint2_linear_3357_4979" x1="68.4722" y1="34.0081" x2="0.637534" y2="34.0081" gradientUnits="userSpaceOnUse">
<stop stop-color="#66ABE7"/>
<stop offset="1" stop-color="#77C3ED"/>
</linearGradient>
<linearGradient id="paint3_linear_3357_4979" x1="68.4722" y1="34.0081" x2="0.637534" y2="34.0081" gradientUnits="userSpaceOnUse">
<stop stop-color="#66ABE7"/>
<stop offset="1" stop-color="#77C3ED"/>
</linearGradient>
<linearGradient id="paint4_linear_3357_4979" x1="68.4722" y1="34.0081" x2="0.637534" y2="34.0081" gradientUnits="userSpaceOnUse">
<stop stop-color="#66ABE7"/>
<stop offset="1" stop-color="#77C3ED"/>
</linearGradient>
<linearGradient id="paint5_linear_3357_4979" x1="68.4722" y1="34.0081" x2="0.637534" y2="34.0081" gradientUnits="userSpaceOnUse">
<stop stop-color="#66ABE7"/>
<stop offset="1" stop-color="#77C3ED"/>
</linearGradient>
<clipPath id="clip0_3357_4979">
<rect width="67.9556" height="67.9556" fill="white" transform="translate(0.523438 0.0234375)"/>
</clipPath>
</defs>
</svg>
