<svg width="49" height="48" viewBox="0 0 49 48" fill="none" xmlns="http://www.w3.org/2000/svg">
<path d="M24.5 48C37.7548 48 48.5 37.2548 48.5 24C48.5 10.7452 37.7548 0 24.5 0C11.2452 0 0.5 10.7452 0.5 24C0.5 37.2548 11.2452 48 24.5 48Z" fill="#00387C"/>
<path d="M8.53906 22.9898H19.7605L10.029 17.3657L11.1431 15.4328L21.331 21.312L15.4384 11.124L17.425 10.01L23.3579 20.1979V8.54688H25.6397V20.1979L31.4518 10.01L33.3444 11.124L27.4384 21.312L37.6129 15.4328L38.727 17.3657L28.982 22.9898H40.472V25.6475H28.8344L38.727 31.3522L37.6129 33.2851L27.425 27.4059L33.3042 37.5939L31.4518 38.708L25.6397 28.52V40.4664H23.3579V28.52L17.425 38.708L15.4652 37.5939L21.331 27.4059L11.1431 33.2851L10.029 31.3522L19.9082 25.6475H8.53906V22.9898Z" fill="white"/>
</svg>
