<svg width="25" height="25" viewBox="0 0 25 25" fill="none" xmlns="http://www.w3.org/2000/svg">
<path d="M12.4995 24.0073C19.1266 24.0073 24.499 18.6349 24.499 12.0078C24.499 5.38065 19.1266 0.00830078 12.4995 0.00830078C5.87235 0.00830078 0.5 5.38065 0.5 12.0078C0.5 18.6349 5.87235 24.0073 12.4995 24.0073Z" fill="#D733FF"/>
<path d="M6.9295 8.0708C9.06005 8.0708 11.2016 8.0708 13.3322 8.0708C13.3432 8.0708 13.3542 8.07081 13.3653 8.08185C14.1711 8.21432 14.6679 8.78836 14.6679 9.60525C14.6679 11.2059 14.6679 12.8066 14.6679 14.4073C14.6679 14.5397 14.6679 14.6722 14.6237 14.7936C14.4582 15.4891 13.8731 15.9417 13.1335 15.9527C12.5042 15.9527 11.875 15.9527 11.2347 15.9527C9.86589 15.9527 8.49704 15.9527 7.11715 15.9527C6.23402 15.9527 5.59375 15.3125 5.59375 14.4293C5.59375 12.7955 5.59375 11.1728 5.59375 9.53902C5.59375 9.13057 5.74831 8.79941 6.02429 8.51239C6.26715 8.25849 6.57623 8.13704 6.9074 8.0708H6.9295Z" fill="white"/>
<path d="M19.0064 9.53413V14.4355C18.9623 14.6011 18.885 14.7556 18.7636 14.877C18.4655 15.1861 18.046 15.2303 17.6376 14.9985C16.9421 14.6011 16.2466 14.1926 15.5401 13.8062C15.4187 13.74 15.3635 13.6517 15.3635 13.5082C15.3635 12.5699 15.3635 11.6205 15.3635 10.6822C15.3635 10.2186 15.2973 10.351 15.6947 10.1192C16.357 9.73283 17.0083 9.3575 17.6707 8.98217C18.0129 8.79451 18.3441 8.82762 18.6642 9.0484C18.8298 9.16983 18.9181 9.34646 18.9954 9.53413H19.0064Z" fill="white"/>
</svg>
