<svg width="49" height="49" viewBox="0 0 49 49" fill="none" xmlns="http://www.w3.org/2000/svg">
<path d="M24.4988 48.0055C37.753 48.0055 48.4977 37.2608 48.4977 24.0067C48.4977 10.7525 37.753 0.0078125 24.4988 0.0078125C11.2447 0.0078125 0.5 10.7525 0.5 24.0067C0.5 37.2608 11.2447 48.0055 24.4988 48.0055Z" fill="#151616"/>
<mask id="mask0_4735_6507" style="mask-type:luminance" maskUnits="userSpaceOnUse" x="7" y="14" width="35" height="23">
<path d="M41.6586 14.2578H7.35156V36.807H41.6586V14.2578Z" fill="white"/>
</mask>
<g mask="url(#mask0_4735_6507)">
<path fill-rule="evenodd" clip-rule="evenodd" d="M21.4752 35.438C20.8712 34.7266 20.7906 32.8609 19.8242 30.4449C17.784 28.5658 17.623 28.5792 16.16 25.8411C16.3211 23.6667 17.3143 21.64 18.9384 20.1904C20.3343 19.8817 22.2537 19.3314 24.5086 19.1972C26.683 19.318 28.6426 19.8683 30.0653 20.1904C31.6894 21.64 32.6961 23.6667 32.8437 25.8411C31.3807 28.5792 31.2331 28.5524 29.1795 30.4449C28.2131 32.8475 28.1326 34.7132 27.5286 35.438C25.6092 37.2768 23.3811 37.2768 21.4617 35.438H21.4752ZM15.5292 25.4787C13.1668 24.2439 9.70392 22.3379 8.64357 20.2575C8.02615 19.0629 7.14027 15.8148 7.40871 14.2578C8.20062 15.5732 8.09326 15.8685 9.6905 17.5999C11.0327 19.0629 15.0191 20.2172 17.2472 20.4185C17.4351 20.432 17.623 20.4185 17.8109 20.4051C16.5492 21.8144 15.7573 23.5996 15.556 25.4787H15.5292ZM31.2197 20.4051C31.4076 20.432 31.5955 20.432 31.7834 20.4185C34.0115 20.2172 37.9978 19.0495 39.3401 17.5999C40.9373 15.8819 40.8165 15.5732 41.6218 14.2578C41.8769 15.8282 40.991 19.0629 40.387 20.2575C39.3132 22.3379 35.8637 24.2305 33.5014 25.4787C33.3001 23.5862 32.5082 21.8144 31.2331 20.4051H31.2197Z" fill="#FF52C3"/>
</g>
</svg>
