<svg width="25" height="25" viewBox="0 0 25 25" fill="none" xmlns="http://www.w3.org/2000/svg">
<path d="M12.5 24.0219C19.1274 24.0219 24.5 18.6483 24.5 12.0197C24.5 5.39112 19.1274 0.0175781 12.5 0.0175781C5.87259 0.0175781 0.5 5.39112 0.5 12.0197C0.5 18.6483 5.87259 24.0219 12.5 24.0219Z" fill="#09CCC2"/>
<path d="M16.3013 20.0841H8.70604C8.50733 19.9957 8.38589 19.8522 8.37485 19.6203C8.36381 19.4768 8.34173 19.3222 8.33069 19.1787C8.26445 18.5603 8.20926 17.953 8.15406 17.3347C8.07678 16.606 8.01055 15.8772 7.93327 15.1485C7.87807 14.5412 7.81183 13.9339 7.75664 13.3266C7.6904 12.6972 7.62416 12.0568 7.56897 11.4275C7.51377 10.8202 7.44753 10.2129 7.39233 9.60562C7.31505 8.87688 7.24882 8.15918 7.17154 7.43043C7.12738 7.01086 7.08322 6.60231 7.03906 6.18273V5.75213C7.13842 5.50922 7.3261 5.4209 7.58001 5.4209C10.8698 5.4209 14.1706 5.4209 17.4604 5.4209C17.5046 5.4209 17.5487 5.4209 17.5929 5.4209C17.8247 5.44298 18.0013 5.61963 18.0124 5.8515C18.0124 5.93983 18.0124 6.02817 18.0124 6.12754C17.9903 6.37045 17.9682 6.62442 17.9351 6.86734C17.8689 7.47462 17.8137 8.09292 17.7585 8.70021C17.6922 9.32957 17.637 9.95897 17.5708 10.5883C17.5046 11.1956 17.4494 11.814 17.3831 12.4212C17.3169 13.0506 17.2617 13.6689 17.1955 14.2983C17.1292 14.9166 17.074 15.5239 17.0078 16.1422C16.9415 16.7716 16.8864 17.3899 16.8201 18.0193C16.7649 18.5493 16.7097 19.0903 16.6545 19.6203C16.6324 19.8411 16.522 19.9957 16.3233 20.0841H16.3013ZM12.5147 6.37046C11.1679 6.37046 9.83208 6.37046 8.48525 6.37046C8.36382 6.37046 8.24238 6.37046 8.1099 6.37046C8.02158 6.37046 7.98847 6.40356 7.99951 6.4919C8.07678 7.28689 8.1651 8.07086 8.24238 8.86586C8.25342 8.98731 8.29758 8.99835 8.39693 8.96523C8.8054 8.85481 9.2249 8.77751 9.6444 8.74438C10.2405 8.68917 10.8256 8.74437 11.4107 8.91C11.9848 9.07562 12.4705 9.39584 12.9342 9.74917C13.3979 10.1025 13.9388 10.2902 14.5128 10.3454C15.1642 10.4006 15.8045 10.3123 16.4337 10.1356C16.5883 10.0915 16.6435 10.0142 16.6545 9.87064C16.7649 8.77753 16.8643 7.67336 16.9747 6.58025C16.9894 6.44039 16.9231 6.37046 16.776 6.37046C15.3519 6.37046 13.9278 6.37046 12.5036 6.37046H12.5147Z" fill="white"/>
</svg>
