<svg width="25" height="25" viewBox="0 0 25 25" fill="none" xmlns="http://www.w3.org/2000/svg">
<path d="M12.5 24.0136C19.1274 24.0136 24.5 18.64 24.5 12.0114C24.5 5.38282 19.1274 0.00927734 12.5 0.00927734C5.87259 0.00927734 0.5 5.38282 0.5 12.0114C0.5 18.64 5.87259 24.0136 12.5 24.0136Z" fill="#FF8B17"/>
<path d="M9.05322 19.3738C8.46812 19.2855 7.91615 19.1309 7.40833 18.8328C6.18294 18.1151 5.44329 17.055 5.20042 15.6638C5.15626 15.443 5.16729 15.443 5.38809 15.443C5.80759 15.443 6.22709 15.443 6.64659 15.443C6.83427 15.443 6.98882 15.5092 7.11025 15.6417C7.17649 15.708 7.24273 15.7853 7.30897 15.8626C7.97134 16.6134 9.1305 16.6134 9.80391 15.8736C9.87015 15.7963 9.94742 15.7411 10.0026 15.6528C10.2124 15.3657 10.8085 15.3657 11.0403 15.6528C11.0955 15.7301 11.1728 15.7963 11.2391 15.8736C11.9014 16.6023 13.0495 16.6134 13.723 15.8736C13.7892 15.7963 13.8665 15.7411 13.9217 15.6528C14.1314 15.3547 14.7386 15.3547 14.9815 15.6528C15.0808 15.7853 15.2023 15.9067 15.3347 16.0172C16.0302 16.5913 17.0459 16.5251 17.653 15.8515C17.7303 15.7632 17.8076 15.6859 17.8849 15.5976C17.9953 15.4761 18.1388 15.4209 18.3154 15.4209C18.757 15.4209 19.1986 15.4209 19.6402 15.4209C19.7726 15.4209 19.8058 15.4651 19.7837 15.5976C19.6512 16.4588 19.309 17.2207 18.7239 17.8721C17.9953 18.7002 17.079 19.1861 15.975 19.3296C15.9529 19.3296 15.9309 19.3406 15.9088 19.3517H9.05322V19.3738Z" fill="white"/>
<path d="M4.11719 13.8223C4.23862 13.5683 4.43734 13.48 4.71332 13.48C9.90192 13.48 15.0795 13.48 20.2681 13.48C20.6324 13.48 20.8421 13.6677 20.8532 13.9658C20.8532 14.2529 20.6544 14.4737 20.3564 14.4737C19.7382 14.4737 19.131 14.4737 18.5128 14.4737C17.9277 14.4737 17.4419 14.6393 17.0556 15.1031C16.912 15.2798 16.7464 15.4454 16.4815 15.4564C16.2165 15.4564 15.9958 15.4012 15.8302 15.1914C15.775 15.1252 15.7087 15.07 15.6535 15.0037C15.0684 14.3081 13.821 14.3081 13.2469 15.0037C13.1917 15.07 13.1144 15.1362 13.0592 15.2025C12.8053 15.5558 12.1761 15.5447 11.9332 15.2025C11.8559 15.092 11.7455 15.0037 11.6572 14.9043C11.05 14.3302 10.0454 14.3191 9.43825 14.9043C9.32786 15.0037 9.21746 15.1031 9.12915 15.2245C8.88628 15.5447 8.26806 15.5337 8.04727 15.2245C8.00311 15.1583 7.93687 15.1141 7.89271 15.0589C7.53945 14.6283 7.07579 14.4737 6.53485 14.4737C5.93872 14.4737 5.34258 14.4737 4.7354 14.4737C4.45941 14.4737 4.26071 14.3854 4.13927 14.1314V13.8002L4.11719 13.8223Z" fill="white"/>
<path d="M4.11719 11.873C4.23862 11.6191 4.43734 11.5308 4.71332 11.5308C9.90192 11.5308 15.0795 11.5308 20.2681 11.5308C20.6655 11.5308 20.8752 11.8068 20.8532 12.0828C20.8311 12.3258 20.6434 12.5245 20.4005 12.5466C20.3564 12.5466 20.3012 12.5466 20.257 12.5466C15.0795 12.5466 9.90192 12.5466 4.72437 12.5466C4.44838 12.5466 4.24966 12.4583 4.12823 12.2043V11.873H4.11719Z" fill="white"/>
<path d="M12.4859 10.5665C10.1455 10.5665 7.79407 10.5665 5.45368 10.5665C5.14458 10.5665 5.13354 10.5665 5.15562 10.2684C5.28809 8.79987 5.77383 7.48594 6.86675 6.44803C7.61744 5.74137 8.51165 5.31075 9.49417 5.03471C10.7196 4.69243 11.9781 4.62617 13.2476 4.68138C14.2853 4.73658 15.312 4.91326 16.2835 5.31075C18.2596 6.12783 19.3856 7.61842 19.7278 9.71632C19.761 9.94819 19.783 10.1911 19.8051 10.423C19.8162 10.5113 19.783 10.5555 19.6947 10.5555C19.6395 10.5555 19.5843 10.5555 19.5291 10.5555C17.1777 10.5555 14.8263 10.5555 12.4748 10.5555L12.4859 10.5665ZM11.5034 7.60738C11.7462 7.60738 11.9781 7.37551 11.9781 7.1326C11.9781 6.88969 11.7462 6.65779 11.5034 6.65779C11.2605 6.65779 11.0176 6.90071 11.0287 7.14362C11.0287 7.38653 11.2715 7.61842 11.5034 7.60738ZM13.4684 7.6405C13.2255 7.6405 12.9937 7.86135 12.9827 8.10426C12.9827 8.34718 13.1924 8.57902 13.4463 8.59006C13.6892 8.6011 13.9321 8.36924 13.9321 8.11528C13.9321 7.87237 13.7113 7.6405 13.4684 7.6405ZM9.53833 8.62322C9.29546 8.62322 9.06362 8.85508 9.06362 9.09799C9.06362 9.34091 9.28441 9.57277 9.52728 9.57277C9.77015 9.57277 10.013 9.34091 10.013 9.09799C10.013 8.85508 9.7812 8.62322 9.53833 8.62322ZM14.9367 9.09799C14.9367 9.34091 15.1685 9.57277 15.4114 9.57277C15.6542 9.57277 15.8861 9.35193 15.8861 9.10901C15.8861 8.8661 15.6542 8.62322 15.4114 8.62322C15.1685 8.62322 14.9367 8.85508 14.9367 9.09799Z" fill="white"/>
</svg>
