<svg width="25" height="25" viewBox="0 0 25 25" fill="none" xmlns="http://www.w3.org/2000/svg">
<path d="M12.501 24.0112C19.1289 24.0112 24.5019 18.6382 24.5019 12.0103C24.5019 5.38231 19.1289 0.00927734 12.501 0.00927734C5.87301 0.00927734 0.5 5.38231 0.5 12.0103C0.5 18.6382 5.87301 24.0112 12.501 24.0112Z" fill="#006D34"/>
<path d="M7.9713 20.9641C8.1369 20.5667 8.29147 20.1803 8.45708 19.8049C9.37343 17.6299 10.2898 15.455 11.2061 13.28C11.2613 13.1475 11.3165 13.015 11.3718 12.8825C11.4049 12.7942 11.3828 12.75 11.2945 12.75C11.2061 12.75 11.1289 12.75 11.0405 12.75C10.08 12.75 9.13054 12.75 8.17002 12.75C7.93817 12.75 7.93818 12.75 8.03754 12.5403C9.46176 9.69184 10.8749 6.85447 12.2881 4.00604C12.3544 3.86252 12.4427 3.81834 12.5972 3.81834C14.0325 3.81834 15.4678 3.81834 16.892 3.81834C16.9582 3.81834 17.0465 3.78522 17.0797 3.85146C17.1238 3.9177 17.0355 3.98396 17.0024 4.03916C16.1523 5.37505 15.3021 6.72197 14.452 8.05786C14.1319 8.56572 13.8117 9.07359 13.4915 9.58145C13.4584 9.62561 13.4032 9.66978 13.4363 9.72498C13.4694 9.76914 13.5357 9.74705 13.5798 9.74705C14.7612 9.74705 15.9535 9.74705 17.1349 9.74705C17.1901 9.74705 17.2342 9.74705 17.2894 9.74705C17.3998 9.74705 17.3998 9.79122 17.3336 9.86851C17.168 10.0562 17.0134 10.2549 16.8478 10.4536C15.7217 11.7895 14.5956 13.1254 13.4805 14.4613C12.1887 15.9959 10.897 17.5306 9.60528 19.0652C9.10846 19.6614 8.61165 20.2465 8.11483 20.8427C8.08171 20.8869 8.05962 20.942 7.94922 20.9531L7.9713 20.9641Z" fill="#F9F9F9"/>
</svg>
