<svg width="41" height="41" viewBox="0 0 41 41" fill="none" xmlns="http://www.w3.org/2000/svg">
<path d="M20.5039 40.2041C31.5496 40.2041 40.5039 31.2498 40.5039 20.2041C40.5039 9.15841 31.5496 0.204102 20.5039 0.204102C9.45821 0.204102 0.503906 9.15841 0.503906 20.2041C0.503906 31.2498 9.45821 40.2041 20.5039 40.2041Z" fill="#015AFD"/>
<path d="M34.4516 25.0028C34.1923 25.9157 33.6425 26.5692 32.6882 26.7144C32.2732 26.7767 32.1487 26.9634 31.9931 27.2954C31.35 28.6439 30.2711 29.3804 28.7566 29.37C27.2628 29.3597 26.2255 28.6024 25.572 27.285C25.5305 27.1916 25.489 27.0983 25.4682 27.0049C25.4267 26.8078 25.3126 26.7559 25.1155 26.7559C22.4807 26.7559 19.8562 26.7559 17.2213 26.7559C17.0139 26.7559 16.9309 26.8285 16.8583 27.0256C16.3292 28.4779 15.0533 29.3804 13.5284 29.3804C12.0346 29.3804 10.7587 28.4779 10.2296 27.0256C10.157 26.8285 10.074 26.7559 9.86657 26.7559C9.48275 26.7663 9.1093 26.7559 8.72549 26.7559C7.52217 26.7456 6.56781 25.7912 6.56781 24.5879C6.56781 23.0007 6.54707 21.4136 6.56781 19.8265C6.56781 19.1315 6.82715 18.4779 6.962 17.8036C7.29395 16.2684 7.64665 14.7435 7.9786 13.2082C8.26905 11.87 9.28565 11.0402 10.6549 11.0402C17.657 11.0402 24.6591 11.0505 31.6612 11.0298C33.0305 11.0298 34.1404 11.8804 34.4101 13.0837C34.4101 13.1149 34.4309 13.1563 34.4516 13.1875V25.0028ZM21.1633 24.9821C22.4496 24.9821 23.7359 24.9821 25.0325 24.9821C25.2919 24.9821 25.406 24.9095 25.4994 24.6605C26.2047 22.6999 28.4869 21.7871 30.3541 22.7207C31.2151 23.1563 31.8064 23.841 32.128 24.7642C32.2006 24.9924 32.3147 25.0236 32.5118 24.8783C32.6881 24.7435 32.6985 24.5568 32.6985 24.3597C32.6985 22.6584 32.6985 20.9468 32.6985 19.2456C32.6985 18.9862 32.6259 18.9136 32.3562 18.9136C26.5574 18.9136 20.7587 18.9136 14.9599 18.9136C14.7836 18.9136 14.628 18.9551 14.4828 19.0588C13.7981 19.5256 13.1135 19.9717 12.4288 20.4385C12.2006 20.5941 11.962 20.6667 11.6923 20.6667C10.8105 20.6667 9.9288 20.6667 9.05744 20.6667C8.58026 20.6667 8.34167 20.9053 8.34167 21.3825C8.34167 21.7283 8.51456 21.915 8.86035 21.9427C9.3064 21.9841 9.63835 22.3472 9.64872 22.7933C9.65909 23.2705 9.33752 23.6543 8.89146 23.7061C8.71512 23.7269 8.4869 23.6232 8.38317 23.7788C8.27943 23.924 8.36241 24.1522 8.35204 24.3389C8.35204 24.37 8.35204 24.3908 8.35204 24.4219C8.36241 24.8057 8.51802 24.9717 8.90184 24.9821C9.18192 24.9821 9.462 24.9613 9.74209 24.9821C10.0429 25.0132 10.1881 24.9095 10.2919 24.619C10.7068 23.4261 12.0035 22.2953 13.7359 22.3576C15.0948 22.4095 16.4018 23.3534 16.8686 24.7124C16.9413 24.9302 17.045 24.9821 17.2628 24.9821C18.5699 24.9821 19.8769 24.9821 21.184 24.9821H21.1633ZM13.518 15.231C13.518 14.5153 13.518 13.7995 13.518 13.0837C13.518 12.9281 13.4973 12.8244 13.3002 12.8244C12.4081 12.8244 11.5263 12.8244 10.6342 12.8244C10.1363 12.8244 9.85619 13.0837 9.74209 13.5505C9.36864 15.2414 8.99519 16.9323 8.61138 18.6232C8.56988 18.7995 8.58026 18.8825 8.80847 18.8825C9.63835 18.8721 10.4786 18.8825 11.3085 18.8825C11.4433 18.8825 11.5574 18.8514 11.6612 18.7788C12.211 18.4053 12.7608 18.0422 13.3106 17.6792C13.4558 17.5858 13.5076 17.4717 13.5076 17.2954C13.5076 16.6107 13.5076 15.9157 13.5076 15.231H13.518ZM18.3106 15.0028C18.3106 14.37 18.3106 13.7373 18.3106 13.0941C18.3106 12.897 18.2587 12.814 18.0512 12.8244C17.2213 12.8244 16.3811 12.8244 15.5512 12.8244C15.3645 12.8244 15.3023 12.8866 15.3023 13.0734C15.3023 14.3389 15.3023 15.6148 15.3023 16.8804C15.3023 17.0879 15.3852 17.1397 15.572 17.1397C16.4018 17.1397 17.2213 17.1397 18.0512 17.1397C18.2587 17.1397 18.3209 17.0775 18.3209 16.87C18.3209 16.2476 18.3209 15.6149 18.3209 14.9924L18.3106 15.0028ZM23.1031 15.0028C23.1031 14.37 23.1031 13.7373 23.1031 13.0941C23.1031 12.9074 23.0616 12.814 22.8437 12.814C22.0139 12.814 21.1736 12.814 20.3438 12.814C20.157 12.814 20.0844 12.8763 20.0844 13.063C20.0844 14.3285 20.0844 15.6045 20.0844 16.87C20.0844 17.0775 20.157 17.1398 20.3541 17.1294C21.184 17.1294 22.0035 17.119 22.8334 17.1294C23.0616 17.1294 23.1031 17.036 23.1031 16.8389C23.1031 16.2269 23.1031 15.6045 23.1031 14.9924V15.0028ZM27.8956 15.0028C27.8956 14.37 27.8956 13.7373 27.8956 13.0941C27.8956 12.9074 27.8541 12.814 27.6363 12.814C26.8064 12.814 25.9662 12.814 25.1363 12.814C24.9496 12.814 24.8769 12.8659 24.8769 13.063C24.8769 14.3285 24.8769 15.6045 24.8769 16.87C24.8769 17.0775 24.9496 17.1398 25.1467 17.1294C25.9765 17.1294 26.796 17.119 27.6259 17.1294C27.8541 17.1294 27.8956 17.036 27.8956 16.8389C27.8956 16.2269 27.8956 15.6045 27.8956 14.9924V15.0028ZM29.6798 14.9717C29.6798 15.6045 29.6798 16.2373 29.6798 16.87C29.6798 17.0671 29.7317 17.1397 29.9392 17.1397C30.7691 17.1397 31.6093 17.1397 32.4392 17.1397C32.657 17.1397 32.6985 17.0568 32.6985 16.8597C32.6985 15.8327 32.6985 14.8161 32.6985 13.7891C32.6985 13.1771 32.3458 12.8244 31.7338 12.814C31.1425 12.814 30.5512 12.814 29.9703 12.814C29.7317 12.814 29.6798 12.9074 29.6798 13.1149C29.6902 13.7269 29.6798 14.3493 29.6798 14.9613V14.9717ZM15.2608 25.8846C15.2608 24.9613 14.4724 24.1626 13.5491 24.1626C12.6155 24.1626 11.8272 24.9613 11.8272 25.8846C11.8272 26.8078 12.5948 27.5754 13.5284 27.5962C14.4516 27.6169 15.2504 26.8182 15.2608 25.8846ZM30.5097 25.8846C30.5097 24.951 29.711 24.1626 28.7877 24.1626C27.8541 24.1626 27.0657 24.9717 27.0761 25.8949C27.0865 26.8182 27.8541 27.5858 28.7877 27.6066C29.711 27.6169 30.5097 26.8182 30.5201 25.8949L30.5097 25.8846Z" fill="white"/>
</svg>
