<svg width="25" height="26" viewBox="0 0 25 26" fill="none" xmlns="http://www.w3.org/2000/svg">
<path d="M12.501 24.9995C19.1289 24.9995 24.5019 19.6264 24.5019 12.9985C24.5019 6.37056 19.1289 0.997559 12.501 0.997559C5.87301 0.997559 0.5 6.37056 0.5 12.9985C0.5 19.6264 5.87301 24.9995 12.501 24.9995Z" fill="#00387C"/>
<path d="M12.2601 20.0129C11.3613 20.0129 10.5998 19.9006 9.97568 19.6759C9.36401 19.4512 8.86469 19.1578 8.47772 18.7958C8.09074 18.4338 7.78491 18.0531 7.56021 17.6536C7.348 17.2417 7.1982 16.8547 7.11082 16.4927C7.03592 16.1182 6.99847 15.8124 6.99847 15.5752H9.73226C9.73226 15.8373 9.80716 16.1307 9.95696 16.4553C10.1068 16.7673 10.3564 17.042 10.7059 17.2791C11.0679 17.5163 11.5735 17.6349 12.2226 17.6349C12.8967 17.6349 13.4522 17.4601 13.8891 17.1106C14.3385 16.7611 14.5632 16.293 14.5632 15.7063C14.5632 15.182 14.3697 14.7513 13.9827 14.4143C13.6082 14.0648 13.0715 13.89 12.3724 13.89H10.5V11.6618H12.3912C12.9903 11.6618 13.4709 11.4995 13.8329 11.1749C14.195 10.8379 14.376 10.4259 14.376 9.93911C14.376 9.4273 14.17 9.00288 13.758 8.66584C13.3461 8.31631 12.8343 8.14155 12.2226 8.14155C11.6484 8.14155 11.1928 8.26638 10.8557 8.51604C10.5312 8.7657 10.294 9.05905 10.1442 9.3961C10.0069 9.73314 9.93823 10.0265 9.93823 10.2762H7.26062C7.26062 10.0515 7.29807 9.75186 7.37297 9.37737C7.46035 9.00288 7.61014 8.60967 7.82236 8.19772C8.03457 7.78578 8.32792 7.39881 8.70241 7.0368C9.0769 6.66231 9.55126 6.36272 10.1255 6.13802C10.7122 5.90084 11.4237 5.78225 12.2601 5.78225C13.0964 5.78225 13.8891 5.93829 14.6381 6.25037C15.3996 6.54996 16.0175 6.99311 16.4918 7.57981C16.9662 8.15403 17.2034 8.85308 17.2034 9.67696C17.2034 10.2387 17.091 10.7255 16.8663 11.1375C16.6416 11.5369 16.367 11.8677 16.0424 12.1299C15.7179 12.392 15.3933 12.5793 15.0688 12.6916V12.804C15.6929 13.0287 16.2422 13.3907 16.7165 13.89C17.2034 14.3768 17.4468 15.0384 17.4468 15.8748C17.4468 16.7486 17.2034 17.4976 16.7165 18.1217C16.2422 18.7334 15.6118 19.2015 14.8253 19.5261C14.0389 19.8506 13.1838 20.0129 12.2601 20.0129Z" fill="white"/>
</svg>
