<svg width="25" height="25" viewBox="0 0 25 25" fill="none" xmlns="http://www.w3.org/2000/svg">
<path d="M12.501 24.0053C19.1289 24.0053 24.5019 18.6323 24.5019 12.0044C24.5019 5.37642 19.1289 0.00341797 12.501 0.00341797C5.87301 0.00341797 0.5 5.37642 0.5 12.0044C0.5 18.6323 5.87301 24.0053 12.501 24.0053Z" fill="#FF52C3"/>
<path d="M7.56259 18.4331V16.4483L9.95933 14.4073C10.958 13.571 11.8131 12.8594 12.5246 12.2727C13.2361 11.686 13.7791 11.1368 14.1536 10.625C14.5281 10.1132 14.7154 9.5639 14.7154 8.9772C14.7154 8.52781 14.6093 8.15332 14.3971 7.85372C14.1848 7.54165 13.9102 7.31071 13.5732 7.16091C13.2486 6.99863 12.9053 6.91749 12.5433 6.91749C12.1064 6.91749 11.7382 6.99863 11.4386 7.16091C11.1515 7.32319 10.9205 7.5354 10.7458 7.79755C10.5835 8.04721 10.4649 8.30935 10.39 8.58398C10.3151 8.85861 10.2777 9.09579 10.2777 9.29551H7.50641C7.50641 8.77123 7.60628 8.22821 7.80601 7.66648C8.00574 7.09226 8.31157 6.56173 8.72351 6.07489C9.13545 5.57557 9.66598 5.16987 10.3151 4.85779C10.9642 4.54571 11.7382 4.38968 12.6369 4.38968C13.5482 4.38968 14.3783 4.57068 15.1273 4.93269C15.8763 5.28221 16.4755 5.78778 16.9249 6.44938C17.3867 7.11098 17.6177 7.89117 17.6177 8.78995C17.6177 9.6388 17.4055 10.4127 16.981 11.1118C16.5691 11.7984 15.9886 12.4724 15.2397 13.1341C14.4907 13.7832 13.6293 14.4885 12.6557 15.2499L11.8692 15.9053H17.8049V18.4331H7.56259Z" fill="white"/>
</svg>
