<svg width="25" height="25" viewBox="0 0 25 25" fill="none" xmlns="http://www.w3.org/2000/svg">
<path d="M12.501 24.0092C19.1289 24.0092 24.5019 18.6362 24.5019 12.0083C24.5019 5.38033 19.1289 0.00732422 12.501 0.00732422C5.87301 0.00732422 0.5 5.38033 0.5 12.0083C0.5 18.6362 5.87301 24.0092 12.501 24.0092Z" fill="#1AADFF"/>
<path d="M9.14893 4.23709C9.31453 4.29229 9.49118 4.33647 9.64574 4.42479C10.3082 4.80017 10.6063 5.61716 10.2971 6.29063C9.96592 7.03034 9.15996 7.3726 8.42025 7.09659C7.81303 6.86474 7.43765 6.27958 7.47078 5.59508C7.49286 5.00993 7.95656 4.44687 8.55274 4.28126C8.5969 4.27022 8.65211 4.28128 8.67419 4.22607H9.13788L9.14893 4.23709Z" fill="white"/>
<path d="M15.7868 4.23389C15.9635 4.28909 16.1401 4.33327 16.3057 4.42159C16.9682 4.78592 17.2663 5.62501 16.9571 6.29848C16.6149 7.03818 15.82 7.38042 15.0913 7.10441C14.5062 6.8836 14.0977 6.28743 14.1308 5.66916C14.1529 5.02882 14.6055 4.46576 15.2127 4.28911C15.2569 4.27807 15.3121 4.28909 15.3342 4.23389H15.7979H15.7868Z" fill="white"/>
<path d="M10.4209 16.2647C10.4209 17.1479 10.4209 18.0201 10.4209 18.9034C10.4209 19.0248 10.3767 19.0359 10.2774 19.0248C9.3831 19.0248 8.49986 19.0248 7.60559 19.0248C7.48414 19.0248 7.45102 19.0027 7.45102 18.8813C7.45102 17.1259 7.45102 15.3815 7.45102 13.626C7.45102 13.5046 7.42895 13.4715 7.3075 13.4715C7.02045 13.4715 6.73339 13.4715 6.44634 13.4715C6.36906 13.4715 6.33594 13.4494 6.33594 13.3721C6.33594 12.0583 6.33594 10.7334 6.33594 9.41963C6.33594 8.55848 6.99837 7.9292 7.85952 7.9292C8.56611 7.9292 9.2727 7.9292 9.97928 7.9292C10.8294 7.9292 11.4918 8.54746 11.5029 9.40861C11.5249 10.7335 11.5029 12.0583 11.5029 13.3721C11.5029 13.4604 11.4697 13.4715 11.3925 13.4715C11.1054 13.4715 10.8184 13.4715 10.5313 13.4715C10.4209 13.4715 10.3878 13.4936 10.3878 13.615C10.3878 14.4982 10.3878 15.3704 10.3878 16.2537L10.4209 16.2647Z" fill="white"/>
<path d="M14.4845 16.8116C14.4845 16.1161 14.4845 15.4205 14.4845 14.714C14.4845 14.6035 14.4514 14.5815 14.3521 14.5815C13.7007 14.5815 13.0493 14.5815 12.4089 14.5815C12.2875 14.5815 12.2764 14.5483 12.3206 14.449C12.9278 12.6273 13.5351 10.8167 14.1423 8.99498C14.4735 8.00134 15.5775 7.61495 16.4608 8.18905C16.7589 8.37674 16.9465 8.66377 17.057 8.99498C17.6642 10.8167 18.2714 12.6383 18.8786 14.449C18.9228 14.5814 18.8786 14.5815 18.7682 14.5815C18.1279 14.5815 17.4875 14.5815 16.8472 14.5815C16.7257 14.5815 16.7037 14.6146 16.7037 14.736C16.7037 16.1161 16.7037 17.4961 16.7037 18.8762C16.7037 18.9976 16.6705 19.0308 16.5601 19.0197C15.9198 19.0197 15.2794 19.0197 14.6391 19.0197C14.5177 19.0197 14.4735 18.9976 14.4845 18.8651C14.4845 18.1806 14.4845 17.4851 14.4845 16.8006V16.8116Z" fill="white"/>
</svg>
