<svg width="25" height="25" viewBox="0 0 25 25" fill="none" xmlns="http://www.w3.org/2000/svg">
<path d="M12.4995 24.0082C19.1266 24.0082 24.499 18.6359 24.499 12.0088C24.499 5.38163 19.1266 0.00927734 12.4995 0.00927734C5.87235 0.00927734 0.5 5.38163 0.5 12.0088C0.5 18.6359 5.87235 24.0082 12.4995 24.0082Z" fill="#D733FF"/>
<path d="M10.7378 14.9743C10.7378 13.8594 10.7378 12.7334 10.7378 11.6185C10.7378 11.3646 10.6715 11.221 10.4066 11.1438C9.78841 10.9561 9.49035 10.4704 9.54555 9.8301C9.5897 9.27815 10.0202 8.84762 10.6163 8.75931C11.0689 8.69307 11.5215 8.70413 11.9741 8.74829C12.7469 8.82556 13.1664 9.28919 13.1664 10.073C13.1664 12.2477 13.1664 14.4113 13.1664 16.586C13.1664 16.9393 13.3393 17.1159 13.6852 17.1159C13.917 17.1159 14.1488 17.1159 14.3806 17.1159C15.0209 17.149 15.5067 17.6237 15.5508 18.2419C15.595 18.8822 15.2196 19.4562 14.5794 19.5335C13.619 19.6549 12.6475 19.6549 11.6871 19.5335C11.1021 19.4562 10.7267 18.9705 10.7267 18.3744C10.7267 17.2374 10.7267 16.1113 10.7267 14.9743H10.7378Z" fill="white"/>
<path d="M13.1906 5.78571C13.1906 6.80131 12.3737 7.60719 11.3691 7.60719C10.3425 7.60719 9.54767 6.77925 9.55871 5.74158C9.55871 4.74806 10.3756 3.94219 11.3691 3.93115C12.3847 3.93115 13.2016 4.75908 13.2016 5.78571H13.1906Z" fill="white"/>
</svg>
