<svg width="49" height="49" viewBox="0 0 49 49" fill="none" xmlns="http://www.w3.org/2000/svg">
<path d="M24.5078 48.0312C37.7626 48.0312 48.5078 37.2861 48.5078 24.0312C48.5078 10.7764 37.7626 0.03125 24.5078 0.03125C11.253 0.03125 0.507812 10.7764 0.507812 24.0312C0.507812 37.2861 11.253 48.0312 24.5078 48.0312Z" fill="#FFC431"/>
<path d="M8.54688 23.0211H19.7684L10.0368 17.3969L11.1509 15.464L21.3388 21.3432L15.4462 11.1553L17.4328 10.0412L23.3657 20.2291V8.57812H25.6475V20.2291L31.4596 10.0412L33.3522 11.1553L27.4462 21.3432L37.6207 15.464L38.7348 17.3969L28.9898 23.0211H40.4798V25.6788H28.8422L38.7348 31.3835L37.6207 33.3164L27.4328 27.4372L33.312 37.6251L31.4596 38.7392L25.6475 28.5513V40.4976H23.3657V28.5513L17.4328 38.7392L15.4731 37.6251L21.3388 27.4372L11.1509 33.3164L10.0368 31.3835L19.916 25.6788H8.54688V23.0211Z" fill="white"/>
</svg>
