<svg width="25" height="25" viewBox="0 0 25 25" fill="none" xmlns="http://www.w3.org/2000/svg">
<path d="M12.5088 24.0312C19.1367 24.0312 24.5097 18.6582 24.5097 12.0302C24.5097 5.4023 19.1367 0.0292969 12.5088 0.0292969C5.88082 0.0292969 0.507812 5.4023 0.507812 12.0302C0.507812 18.6582 5.88082 24.0312 12.5088 24.0312Z" fill="#FFC600"/>
<path d="M7.5704 18.459V16.4742L9.96715 14.4332C10.9658 13.5968 11.8209 12.8853 12.5324 12.2986C13.2439 11.7119 13.787 11.1626 14.1614 10.6508C14.5359 10.139 14.7232 9.58978 14.7232 9.00308C14.7232 8.55369 14.6171 8.17919 14.4049 7.8796C14.1927 7.56753 13.918 7.33659 13.581 7.18679C13.2564 7.02451 12.9131 6.94337 12.5511 6.94337C12.1142 6.94337 11.746 7.02451 11.4464 7.18679C11.1593 7.34907 10.9283 7.56128 10.7536 7.82343C10.5913 8.07309 10.4727 8.33523 10.3978 8.60986C10.3229 8.88449 10.2855 9.12166 10.2855 9.32139H7.51423C7.51423 8.79711 7.61409 8.25409 7.81382 7.69236C8.01355 7.11813 8.31938 6.58761 8.73132 6.10077C9.14326 5.60144 9.67379 5.19575 10.3229 4.88367C10.972 4.57159 11.746 4.41555 12.6448 4.41555C13.556 4.41555 14.3861 4.59656 15.1351 4.95857C15.8841 5.30809 16.4833 5.81366 16.9327 6.47526C17.3946 7.13686 17.6255 7.91705 17.6255 8.81583C17.6255 9.66468 17.4133 10.4386 16.9889 11.1377C16.5769 11.8242 15.9965 12.4983 15.2475 13.1599C14.4985 13.809 13.6372 14.5143 12.6635 15.2758L11.8771 15.9312H17.8127V18.459H7.5704Z" fill="white"/>
</svg>
