<svg width="25" height="25" viewBox="0 0 25 25" fill="none" xmlns="http://www.w3.org/2000/svg">
<path d="M12.498 24.0014C19.1265 24.0014 24.4999 18.6288 24.4999 12.0014C24.4999 5.37403 19.1265 0.00146484 12.498 0.00146484C5.86953 0.00146484 0.496094 5.37403 0.496094 12.0014C0.496094 18.6288 5.86953 24.0014 12.498 24.0014Z" fill="#151616"/>
<path d="M8.22067 4.88947H16.7446C16.9875 4.98882 17.0868 5.18752 17.142 5.43039C17.385 6.52331 17.6168 7.61625 17.8818 8.69812C18.0916 9.58128 18.2241 10.4644 18.0806 11.3807C17.8266 12.9263 17.0758 14.1737 15.8171 15.101C15.0442 15.6861 14.1609 16.0284 13.2003 16.1388C13.0457 16.1608 13.0126 16.227 13.0126 16.3705C13.0126 17.5959 13.0126 18.8324 13.0126 20.0578C13.0126 20.2675 13.0126 20.2675 13.2334 20.2675C13.8186 20.2675 14.3928 20.2675 14.978 20.2675C15.0552 20.2675 15.1325 20.2676 15.1988 20.2896C15.4527 20.3559 15.6073 20.5987 15.5742 20.8747C15.5411 21.1286 15.3202 21.3273 15.0553 21.3273C13.3438 21.3273 11.6325 21.3273 9.92105 21.3273C9.86584 21.3273 9.81062 21.3273 9.76645 21.3052C9.5125 21.228 9.36898 20.9851 9.4021 20.7201C9.43523 20.4773 9.64499 20.2896 9.89894 20.2786C10.5283 20.2786 11.1466 20.2786 11.776 20.2786C11.9085 20.2786 11.9637 20.2344 11.9637 20.0909C11.9637 18.8434 11.9637 17.5849 11.9637 16.3375C11.9637 16.2271 11.9306 16.1498 11.8091 16.1498C11.7208 16.1498 11.6325 16.1277 11.5441 16.1167C9.40211 15.6751 7.9336 14.4386 7.14967 12.3853C6.99509 11.9768 6.92885 11.5353 6.85156 11.1047C6.85156 10.7183 6.85156 10.3319 6.85156 9.94553C6.87365 9.80201 6.8957 9.6475 6.92883 9.50398C7.23798 8.12404 7.54716 6.75515 7.84527 5.37521C7.90048 5.14338 8.0109 4.97777 8.23173 4.87842L8.22067 4.88947ZM12.4826 10.0118C13.9069 10.0118 15.3313 10.0118 16.7666 10.0118C16.9433 10.0118 17.0243 9.92345 17.0096 9.74682C17.0096 9.68058 17.0096 9.61437 16.9875 9.55917C16.7335 8.40002 16.4685 7.24085 16.2146 6.09274C16.1815 5.9713 16.1262 5.92719 16.0048 5.92719C13.6751 5.92719 11.3343 5.92719 9.0046 5.92719C8.8721 5.92719 8.81692 5.97132 8.78379 6.10379C8.68442 6.55641 8.57399 6.99803 8.48566 7.45065C8.32004 8.22342 8.11027 8.99617 7.98882 9.77997C7.95569 10.0118 7.95568 10.0118 8.18755 10.0118C9.62292 10.0118 11.0583 10.0118 12.4937 10.0118H12.4826Z" fill="white"/>
</svg>
