<svg width="25" height="26" viewBox="0 0 25 26" fill="none" xmlns="http://www.w3.org/2000/svg">
<path d="M12.501 24.9975C19.1289 24.9975 24.5019 19.6245 24.5019 12.9965C24.5019 6.36861 19.1289 0.995605 12.501 0.995605C5.87301 0.995605 0.5 6.36861 0.5 12.9965C0.5 19.6245 5.87301 24.9975 12.501 24.9975Z" fill="#00387C"/>
<path d="M7.56259 19.4253V17.4405L9.95933 15.3995C10.958 14.5631 11.8131 13.8516 12.5246 13.2649C13.2361 12.6782 13.7791 12.129 14.1536 11.6171C14.5281 11.1053 14.7154 10.5561 14.7154 9.96938C14.7154 9.51999 14.6093 9.1455 14.3971 8.84591C14.1848 8.53383 13.9102 8.3029 13.5732 8.1531C13.2486 7.99082 12.9053 7.90968 12.5433 7.90968C12.1064 7.90968 11.7382 7.99082 11.4386 8.1531C11.1515 8.31538 10.9205 8.52759 10.7458 8.78974C10.5835 9.0394 10.4649 9.30154 10.39 9.57617C10.3151 9.8508 10.2777 10.088 10.2777 10.2877H7.50641C7.50641 9.76341 7.60628 9.2204 7.80601 8.65866C8.00574 8.08444 8.31157 7.55391 8.72351 7.06708C9.13545 6.56775 9.66598 6.16205 10.3151 5.84998C10.9642 5.5379 11.7382 5.38186 12.6369 5.38186C13.5482 5.38186 14.3783 5.56287 15.1273 5.92488C15.8763 6.2744 16.4755 6.77997 16.9249 7.44157C17.3867 8.10317 17.6177 8.88336 17.6177 9.78214C17.6177 10.631 17.4055 11.4049 16.981 12.104C16.5691 12.7906 15.9886 13.4646 15.2397 14.1262C14.4907 14.7754 13.6293 15.4806 12.6557 16.2421L11.8692 16.8975H17.8049V19.4253H7.56259Z" fill="white"/>
</svg>
