<svg width="49" height="49" viewBox="0 0 49 49" fill="none" xmlns="http://www.w3.org/2000/svg">
<path d="M24.4988 47.9977C37.753 47.9977 48.4977 37.253 48.4977 23.9988C48.4977 10.7446 37.753 0 24.4988 0C11.2447 0 0.5 10.7446 0.5 23.9988C0.5 37.253 11.2447 47.9977 24.4988 47.9977Z" fill="#00387C"/>
<mask id="mask0_4735_6324" style="mask-type:luminance" maskUnits="userSpaceOnUse" x="0" y="0" width="49" height="49">
<path d="M24.5125 48.1031C37.77 48.1031 48.5172 37.3559 48.5172 24.0984C48.5172 10.841 37.77 0.09375 24.5125 0.09375C11.2551 0.09375 0.507812 10.841 0.507812 24.0984C0.507812 37.3559 11.2551 48.1031 24.5125 48.1031Z" fill="white"/>
</mask>
<g mask="url(#mask0_4735_6324)">
<path d="M36.2959 54.2384L12.7266 90.0354V18.8442C12.7266 12.2539 17.9344 6.89844 24.3367 6.89844H24.6723C31.0881 6.89844 36.2825 12.2539 36.2825 18.8442V54.2384H36.2959Z" fill="white"/>
</g>
<path d="M15.2109 24.0989C21.5328 25.6558 22.6334 26.9309 24.0025 34.1118C25.3715 26.9175 26.4856 25.6558 32.794 24.0989C26.4721 22.5419 25.3715 21.2668 24.0025 14.0859C22.6334 21.2802 21.5194 22.5419 15.2109 24.0989Z" fill="#015AFD"/>
</svg>
